P2
# Generated by OpenCV 3.4.0
92 112
255
 173 173 174 174 173 173 173 172 172 171 170 170 169 169 171 171 171 170 169 170 169 168 169 169 171 168 168 169 169 168 168 169 168 169 167 168 166 168 167 165 166 167 166 165 167 166 164 166 168 166 165 163 166 166 165 167 166 166 166 166 166 164 166 166 166 167 165 166 166 165 164 164 164 166 165 164 162 163 162 160 162 163 162 162 163 160 162 161 159 159 158 159
 174 174 175 174 174 174 172 172 171 171 173 171 169 170 171 170 170 170 170 169 170 170 170 170 170 168 169 169 169 169 169 170 168 169 168 169 167 168 168 167 166 166 166 164 162 164 164 166 165 167 167 161 164 165 166 167 167 167 166 167 167 165 164 165 166 166 165 165 164 165 165 165 165 166 165 164 164 163 163 163 163 162 161 161 161 159 160 159 160 160 160 160
 173 174 174 174 175 172 174 173 173 172 171 171 171 170 171 169 170 169 171 170 170 171 169 169 169 170 170 170 169 170 169 170 169 169 168 169 168 168 167 167 166 165 163 161 161 159 158 160 157 162 163 160 157 163 164 163 165 164 166 167 164 165 164 165 166 167 166 166 165 166 163 163 163 165 165 164 164 164 163 164 164 163 161 161 161 160 160 161 161 159 160 161
 173 173 172 173 173 172 173 174 172 172 172 172 171 171 170 171 172 172 171 169 171 170 170 170 170 169 169 169 170 169 170 170 169 169 169 169 168 165 164 163 161 151 126 113  98  81  82  97 110 138 139 138 135 139 142 143 160 164 164 166 166 165 166 166 167 166 166 167 167 166 165 165 165 165 164 164 164 164 164 163 163 164 164 163 162 162 162 161 162 159 162 159
 171 172 173 173 173 174 173 173 172 172 172 172 172 171 172 172 172 172 171 172 171 171 170 170 171 169 170 168 168 170 170 170 169 168 168 169 166 154 146 127  93  53  40  44  46  44  41  43  44  50  56  54  57  57  62  74 121 150 155 162 166 168 167 165 167 167 166 168 165 167 166 166 166 165 164 164 164 165 165 164 165 162 162 163 162 162 161 161 160 162 162 159
 172 172 172 171 173 172 172 172 173 173 173 172 171 172 172 172 171 171 171 171 172 171 171 170 170 170 171 170 169 170 169 168 168 163 160 154 114  79  55  43  43  39  36  32  33  31  31  30  31  33  34  32  34  38  37  40  48  68  92 107 143 164 166 166 168 167 166 167 166 166 167 166 166 164 165 164 164 164 164 164 165 165 163 164 162 162 163 164 160 161 161 160
 171 172 172 171 171 172 172 172 172 173 172 171 172 171 172 172 171 171 172 171 172 173 173 172 170 171 171 171 170 171 170 168 160 132  87  62  47  40  37  35  31  30  29  27  30  26  26  29  29  28  25  26  27  28  30  33  33  37  40  49  68 143 162 164 166 166 166 167 166 168 168 167 165 165 164 166 166 166 166 163 164 162 161 163 164 162 163 164 162 161 160 160
 171 171 173 172 171 172 172 172 172 172 172 172 172 172 172 173 171 171 173 172 173 173 173 172 171 172 172 172 171 171 170 165 120  61  43  39  36  31  29  30  26  25  26  29  28  26  25  27  27  25  24  24  24  24  26  26  28  28  30  34  45  60 126 154 164 166 167 167 167 170 166 168 166 166 165 165 167 166 165 166 165 163 165 164 164 161 162 162 161 161 161 161
 171 172 172 171 171 173 172 172 172 172 172 171 170 171 172 172 171 172 173 174 173 172 172 172 172 171 171 171 169 169 166 120  55  40  34  31  27  25  24  24  25  27  28  26  23  25  24  23  24  23  24  22  24  25  25  24  27  25  26  30  34  38  55 105 153 164 166 169 168 167 168 166 167 166 166 164 165 165 165 166 165 164 164 162 163 163 163 164 163 164 163 162
 171 171 172 171 171 171 172 171 172 172 173 171 171 171 172 171 173 172 174 173 172 173 171 172 172 172 170 169 168 155  97  53  40  32  32  27  26  26  24  24  25  24  23  21  21  22  21  20  20  20  22  22  21  22  23  22  21  23  25  28  29  30  36  55 115 160 165 167 166 165 166 166 166 166 167 166 166 165 165 167 165 164 163 162 163 164 164 162 164 164 162 164
 170 170 171 170 169 171 170 172 171 172 172 172 171 171 173 171 173 173 175 174 174 174 174 175 174 173 171 168 151  90  45  40  31  30  28  26  26  25  25  24  25  22  21  18  18  19  19  19  18  17  18  21  19  20  20  18  19  22  24  25  25  26  30  37  59 145 162 165 166 166 166 167 166 167 167 166 167 166 166 165 165 165 165 164 163 163 164 165 165 163 164 164
 172 171 171 171 171 171 172 171 170 171 170 171 171 171 172 172 173 174 174 174 175 174 175 176 174 174 170 156  80  49  38  32  28  27  26  25  24  24  23  23  22  21  19  18  18  17  18  18  17  17  17  17  16  17  18  17  19  20  21  23  22  24  24  27  35  64 131 159 164 166 166 168 168 166 167 166 166 165 166 166 166 165 166 165 163 166 165 165 165 165 165 164
 171 170 172 172 171 172 172 172 172 172 171 172 172 172 172 172 173 173 174 175 176 177 178 177 176 176 150  75  44  38  30  26  25  24  23  23  23  22  22  21  19  18  17  18  18  17  17  18  18  19  20  19  18  19  18  16  18  19  18  19  20  22  22  24  28  39  60 131 161 166 166 166 166 167 165 165 166 165 165 166 166 166 166 164 166 164 165 165 165 164 164 164
 171 171 171 172 173 172 171 171 172 172 173 172 172 172 173 173 172 174 177 178 181 182 184 182 180 163  70  44  38  33  26  25  24  24  23  24  22  21  19  19  19  19  18  18  20  21  23  25  27  30  29  28  26  24  23  20  18  18  17  17  18  19  19  22  25  28  35  70 150 165 167 167 168 166 166 166 166 166 165 165 165 166 166 166 165 164 164 166 165 164 164 166
 171 170 172 172 171 171 171 173 173 174 174 172 172 173 173 173 174 175 180 184 186 188 189 188 162  82  45  38  35  31  24  22  23  22  20  21  18  18  19  20  21  22  24  25  26  31  35  40  40  47  46  43  36  33  33  29  27  22  18  17  18  17  17  18  20  24  27  50 145 163 165 168 168 168 167 166 166 165 165 166 165 164 166 166 167 166 166 166 166 164 164 166
 171 171 172 171 172 172 172 170 171 172 171 172 173 172 173 172 172 174 178 183 187 189 186 186  94  52  39  31  30  26  23  21  23  21  19  19  19  21  22  24  27  30  35  39  39  43  49  56  55  58  58  52  48  47  43  38  38  30  25  22  19  19  17  17  18  20  24  35 117 160 164 166 167 167 169 164 166 167 165 166 164 166 166 166 167 166 166 165 166 164 164 165
 171 171 170 172 171 171 172 172 173 172 171 172 173 172 172 172 172 173 174 178 180 182 179 149  57  40  33  31  29  26  24  23  23  22  21  21  24  25  29  30  36  48  54  53  56  60  64  66  66  65  64  59  56  51  48  45  45  41  35  30  28  25  21  18  17  19  21  28  62 137 161 166 167 167 168 168 168 167 165 166 165 166 166 167 166 166 167 167 166 166 164 164
 171 170 170 172 172 172 171 172 171 172 172 172 172 173 172 172 172 172 173 174 175 173 143  70  46  35  31  30  27  25  24  23  21  25  28  29  33  37  44  47  56  66  68  70  69  70  70  69  68  69  68  66  63  58  51  49  48  46  43  41  38  35  32  26  23  22  19  23  32  98 153 161 166 168 167 167 166 166 168 167 167 168 167 167 165 166 167 167 166 164 166 165
 172 171 170 172 172 172 172 171 172 173 172 172 172 172 171 171 171 171 171 172 172 160  81  49  38  32  29  27  25  23  23  22  25  31  39  49  58  58  59  64  69  73  74  75  74  72  72  71  71  70  69  69  67  60  54  51  49  46  44  45  45  43  41  37  34  29  21  21  26  57 137 158 164 167 167 166 168 167 167 167 167 167 167 166 165 167 167 166 166 165 166 165
 173 172 172 173 173 171 170 172 174 174 174 172 173 172 173 171 170 170 170 171 168 101  50  40  34  31  28  26  23  23  24  26  32  44  55  67  71  72  72  73  74  76  77  75  74  71  71  72  72  70  69  67  62  58  54  51  49  48  46  44  46  46  44  42  42  41  30  23  24  39 105 157 164 166 166 165 165 167 168 168 166 166 166 165 166 166 166 165 167 166 165 164
 173 173 173 174 174 172 172 173 174 173 174 173 172 172 172 171 170 170 170 168 123  50  42  35  30  28  25  24  25  27  31  36  46  56  64  72  72  71  71  73  75  75  74  72  72  70  70  69  70  67  67  65  57  54  53  49  50  49  46  45  46  46  43  44  44  45  43  28  24  44 105 154 164 165 164 167 166 167 167 165 165 165 168 165 167 166 165 166 168 166 164 163
 173 174 174 174 173 173 174 174 174 175 174 173 170 171 172 172 170 171 169 155  70  40  37  31  29  25  24  27  30  36  42  47  55  62  66  70  71  70  71  72  70  71  69  68  68  66  66  66  66  65  66  62  58  50  51  50  48  47  46  44  43  43  42  42  43  43  46  40  27  42  98 154 163 166 166 166 166 166 167 166 166 166 168 167 165 167 166 165 166 166 164 164
 174 175 175 175 175 175 175 174 174 175 174 174 172 172 171 170 172 171 167 119  46  37  37  31  25  26  27  31  35  45  51  54  59  60  65  67  67  67  69  66  66  64  64  64  65  65  65  65  65  62  63  63  57  53  50  49  48  48  46  44  43  41  41  40  41  42  46  47  33  37  84 150 162 166 166 165 168 167 167 167 165 165 166 166 167 167 166 165 166 165 164 164
 177 175 174 176 176 176 176 177 176 176 176 174 173 172 172 171 172 170 154  66  42  37  34  26  24  26  32  40  45  52  54  55  58  59  63  65  67  66  64  64  64  62  62  63  67  67  66  66  65  64  65  62  58  55  54  53  52  50  48  48  44  42  39  39  38  40  42  47  44  39  75 146 163 167 167 166 167 166 166 166 163 165 164 165 166 166 165 166 165 164 165 163
 177 177 178 178 177 178 178 177 177 178 177 176 175 172 171 171 172 168 114  47  40  35  29  26  26  29  40  49  53  57  57  56  57  59  58  61  62  63  64  62  61  61  65  67  69  69  69  71  71  67  68  64  62  62  59  55  53  54  52  50  47  45  40  39  38  37  38  44  50  44  69 150 162 165 165 164 166 165 165 164 165 165 166 166 166 165 165 164 165 165 166 165
 184 184 184 182 180 182 182 183 181 182 179 178 175 173 173 171 169 160  66  42  38  33  28  26  29  38  49  55  58  61  60  58  58  59  59  59  59  61  64  65  67  68  70  71  72  72  71  72  70  68  66  64  65  65  64  59  54  54  56  55  52  47  43  42  41  39  39  42  49  52  68 137 160 165 166 165 167 168 167 167 167 166 167 166 167 166 164 165 166 164 164 165
 193 192 194 193 196 194 192 192 190 190 187 186 184 180 176 173 169 121  45  40  34  30  26  28  36  46  57  62  64  65  64  63  60  60  60  61  64  66  66  68  74  74  73  75  78  78  78  74  73  69  64  65  66  67  62  56  55  56  59  58  54  50  46  45  43  42  41  42  46  52  50  78 155 165 166 167 167 165 168 164 165 166 167 166 165 165 165 165 164 164 164 165
 197 200 197 202 205 206 206 203 200 196 200 195 189 184 177 174 166  73  42  37  31  30  28  30  39  51  60  64  65  66  65  66  64  59  61  64  66  68  70  73  76  76  74  75  79  83  82  79  76  72  69  66  65  66  61  53  52  56  59  57  56  53  51  47  44  44  42  43  45  51  53  59 145 163 165 166 166 166 166 164 164 166 166 164 165 165 166 166 166 164 165 165
 198 200 202 204 205 206 206 206 203 202 200 197 191 186 179 174 139  51  37  34  31  30  28  31  38  49  56  61  64  67  69  69  69  67  68  65  70  73  78  76  77  77  73  70  73  75  73  73  73  72  70  66  62  60  55  48  49  52  55  56  55  52  50  48  45  44  43  44  45  48  52  54 121 160 166 166 166 166 166 166 165 166 166 166 166 163 165 164 166 164 164 164
 195 196 199 200 200 200 200 202 202 197 195 192 189 183 179 169  86  42  36  34  32  26  27  30  34  45  55  56  62  66  70  71  72  72  70  72  71  74  76  76  78  74  71  68  68  67  65  65  69  66  64  58  54  52  50  48  47  48  49  49  49  48  47  44  42  43  43  43  45  49  52  54  77 152 163 166 167 166 165 166 167 167 166 165 166 164 165 165 166 164 164 164
 186 187 190 193 189 191 194 192 193 191 188 187 184 180 176 163  68  38  34  32  28  24  26  29  33  43  51  54  59  64  70  72  72  71  72  72  72  74  75  74  71  71  69  67  63  60  55  55  59  59  55  51  46  43  43  44  44  45  45  44  43  43  43  39  41  41  41  42  43  47  50  54  66 146 162 163 166 166 163 164 164 166 165 166 165 165 165 164 165 164 164 164
 180 181 182 184 185 183 183 184 183 183 183 180 178 175 174 159  55  38  34  30  27  25  28  29  35  42  48  53  60  66  70  72  73  72  73  72  74  70  66  63  63  65  69  67  62  54  48  48  53  52  48  43  37  34  37  41  41  38  39  40  38  38  37  36  36  36  37  39  39  44  47  52  65 134 163 166 167 165 166 165 166 165 164 166 164 165 166 165 165 164 165 164
 178 180 178 179 179 178 178 179 179 177 178 177 176 175 173 155  51  37  32  28  27  26  27  28  33  39  47  53  59  63  67  69  73  74  78  80  79  74  71  64  59  56  57  62  62  54  46  46  48  47  43  38  32  30  35  38  39  36  34  34  33  31  29  29  34  35  31  31  32  38  42  48  56 124 159 165 167 164 164 167 168 167 167 166 166 166 165 166 165 166 165 164
 176 177 177 177 177 179 177 176 177 176 176 176 175 175 171 130  47  34  29  27  26  25  25  26  32  40  48  53  57  59  66  72  74  74  77  68  61  55  51  42  42  41  39  41  42  40  41  42  42  38  34  34  30  29  34  36  35  31  29  30  28  26  25  22  25  26  21  20  21  26  30  36  45  91 157 163 164 165 164 165 164 166 165 165 164 165 165 165 166 165 164 165
 176 176 176 177 176 176 176 176 176 175 174 176 176 174 172 131  48  35  29  27  26  26  26  26  35  45  51  58  57  59  70  73  67  55  52  40  37  39  35  34  34  32  30  28  32  27  32  37  33  31  30  30  30  29  34  37  33  28  26  27  26  23  20  17  17  18  17  16  17  19  22  26  33  51 142 163 166 168 167 167 168 167 168 167 167 166 166 164 166 166 164 166
 176 175 175 175 176 175 175 176 175 176 176 175 176 175 171 108  44  32  29  26  24  26  26  29  41  48  53  56  57  63  62  55  40  34  33  31  31  29  28  27  25  23  20  19  20  21  19  22  23  24  25  26  25  27  33  34  30  26  26  24  23  20  17  14  13  15  15  14  16  18  22  26  30  35  84 151 165 168 167 166 167 168 169 168 168 166 166 166 168 166 165 166
 176 175 176 175 176 176 176 175 176 175 176 176 176 176 168 102  41  31  29  26  25  26  27  32  45  51  54  57  58  53  43  37  35  36  43  51  44  37  32  28  25  24  19  18  17  17  19  17  17  19  21  23  24  27  31  31  29  25  23  22  20  17  15  14  13  12  12  14  16  20  25  32  38  38  40 113 162 166 165 166 166 168 169 168 167 166 168 167 167 167 167 166
 175 174 176 176 175 175 176 175 174 174 174 175 173 174 168  90  41  31  30  25  25  26  28  38  49  53  54  59  48  37  35  37  48  64  78  78  67  52  42  33  26  23  20  18  17  15  16  16  16  16  18  21  23  27  30  30  27  24  22  18  17  16  14  13  13  13  14  15  18  23  27  32  40  46  44  91 160 166 168 167 168 168 167 166 167 166 166 167 167 166 165 166
 176 174 175 176 175 175 176 175 175 175 174 176 175 174 171 121  39  32  29  25  23  26  34  45  54  57  60  50  38  36  40  50  62  73  80  71  62  52  45  38  30  25  19  17  17  16  15  16  16  17  18  23  26  30  33  32  28  25  21  16  15  15  16  16  16  18  17  18  20  23  25  26  29  36  48  69 158 166 168 167 167 169 168 168 168 166 166 167 168 166 166 166
 175 174 174 174 175 175 175 175 176 174 174 175 176 174 172 130  44  31  27  24  24  26  39  50  58  59  56  41  39  44  48  55  62  61  54  43  35  28  27  27  26  24  24  20  18  18  17  17  19  21  24  28  31  35  37  34  29  27  22  18  17  17  17  18  18  18  17  17  20  25  27  26  26  25  39  73 146 165 169 168 168 168 169 168 168 168 168 166 169 167 166 166
 176 175 175 175 175 175 176 175 177 176 173 175 174 174 172 129  44  30  25  23  25  26  38  53  58  60  54  47  42  46  50  51  44  34  28  34  34  33  34  27  23  19  17  18  19  20  20  19  23  25  29  33  37  41  42  39  34  30  24  21  18  18  18  18  16  16  19  23  23  23  23  23  24  27  29  83 153 165 168 168 169 169 169 168 168 167 168 166 166 167 166 164
 175 174 175 176 174 176 174 175 176 175 174 174 175 174 171 131  45  31  27  24  25  28  41  55  59  59  57  47  40  46  47  36  26  35  45  33  25  20  19  18  18  19  19  17  16  20  21  22  24  29  34  39  43  48  48  46  41  34  28  23  19  18  19  17  18  20  19  16  17  20  24  23  20  20  28  87 151 164 168 167 168 168 168 169 168 169 168 166 167 166 166 164
 174 175 174 173 174 176 175 174 175 175 174 175 176 175 172 123  43  29  27  25  24  28  47  58  61  58  57  43  40  46  36  24  36  32  22  17  22  25  28  22  24  21  17  18  19  18  20  24  26  34  38  43  47  54  56  57  51  38  31  26  22  18  18  17  19  17  18  19  22  23  35  39  37  23  24  86 130 161 168 168 169 169 168 168 167 167 168 167 167 166 166 165
 175 174 173 175 175 176 176 174 174 174 176 176 176 176 174 149  44  30  26  25  26  29  47  60  60  59  55  44  42  40  25  28  26  21  26  49  42  37  27  21  29  42  33  19  18  20  22  24  31  39  42  47  51  57  61  65  58  45  37  29  22  18  18  19  17  24  31  22  22  19  24  46  48  33  20  65 128 160 167 167 169 169 167 168 168 167 169 166 166 166 166 164
 174 174 173 174 175 175 175 175 174 173 176 176 176 175 174 167  83  33  27  26  28  30  49  59  60  58  52  44  40  31  27  25  19  29  53  69  67  31  23  18  20  40  47  30  19  18  23  26  35  40  44  48  53  57  63  66  64  48  40  34  26  19  17  17  22  27  19  18  16  16  19  40  50  43  37 113 149 166 167 167 169 169 168 167 168 168 166 166 166 166 166 164
 174 174 174 173 174 175 176 176 175 176 176 175 175 174 174 171  67  35  28  27  30  34  49  59  58  58  52  44  38  28  24  18  23  52  69  58  25  21  21  16  17  30  43  36  25  19  23  32  38  40  46  52  54  56  59  64  63  52  42  36  31  23  19  18  22  24  14  15  16  16  20  38  48  54  54 148 163 167 168 167 167 169 167 167 168 168 167 167 167 167 168 164
 176 175 174 174 174 176 176 175 175 175 177 175 176 174 173 168  78  36  31  28  32  35  48  57  56  56  51  43  39  32  26  19  36  71  66  53  21  18  19  16  16  29  33  27  25  25  28  37  40  42  50  54  54  54  62  68  66  60  48  38  34  30  22  23  23  24  22  18  16  16  25  35  42  45  47 133 162 167 168 167 165 167 168 168 167 167 167 165 165 165 166 164
 176 175 176 175 175 175 176 176 176 175 176 176 176 173 174 168 111  37  32  31  34  34  46  55  54  54  51  44  39  37  32  29  37  54  60  54  37  18  16  18  22  24  24  24  25  27  32  39  41  46  52  54  53  61  77  82  74  67  59  47  37  33  28  25  24  21  20  20  19  21  22  24  27  28  37 114 158 166 166 166 166 168 167 168 166 166 167 166 165 166 165 164
 175 175 176 175 176 176 177 176 177 174 175 175 176 174 175 173 146  41  33  34  36  38  50  54  53  54  51  46  41  40  41  35  30  31  34  37  36  30  29  29  25  20  20  24  28  33  38  41  45  50  53  53  56  74  84  86  82  73  62  55  44  38  32  28  26  26  22  19  18  18  20  22  25  32  44 127 161 167 166 166 166 167 167 168 167 167 165 166 164 164 164 166
 175 175 177 176 176 177 177 177 177 176 176 177 175 175 174 174 165  56  36  34  37  37  49  53  54  53  53  49  46  45  48  45  37  32  31  30  27  25  24  22  20  22  26  30  33  39  43  48  50  53  53  52  62  80  86  89  89  83  76  63  51  45  38  32  29  28  26  24  22  20  19  20  25  37  50 125 162 165 165 166 166 167 166 167 166 164 164 165 165 164 164 164
 175 176 175 175 176 176 176 176 176 176 175 177 176 176 175 175 169  77  37  35  36  35  46  53  53  54  55  53  53  54  54  48  40  34  31  28  26  23  22  26  29  30  31  34  40  46  52  53  53  55  51  55  66  86  92  88  89  85  83  71  57  50  47  41  34  31  28  28  27  28  27  27  28  38  53 107 163 166 166 167 166 166 166 165 165 165 164 165 163 164 164 164
 175 176 176 177 175 176 175 176 175 176 177 176 177 176 176 175 171 121  44  40  34  34  44  52  54  56  59  61  62  63  60  54  47  41  39  38  38  36  38  37  37  36  37  43  48  52  54  56  55  51  53  63  77  90  87  81  77  74  68  57  52  48  49  49  47  40  35  30  28  29  30  31  34  40  53  85 159 163 164 166 163 164 165 166 165 164 163 164 162 164 164 162
 176 176 176 176 177 176 176 177 177 177 177 176 177 176 176 173 170 142  61  48  38  34  44  53  55  56  60  66  70  70  67  64  59  57  56  55  50  47  46  44  42  40  45  50  54  56  57  53  52  53  67  80  82  75  68  63  61  58  52  48  44  42  41  39  40  42  44  40  32  30  30  32  35  41  50  66 151 163 165 166 165 165 164 164 164 164 164 161 162 164 162 161
 176 176 176 176 175 176 175 175 177 178 176 176 176 174 174 143  85  71  67  55  43  34  46  54  55  57  61  69  71  73  72  71  69  65  62  60  55  51  47  45  46  50  55  58  59  57  54  49  53  66  77  70  56  50  47  49  49  46  45  41  36  33  32  28  27  28  30  36  43  35  32  32  36  42  48  55 131 160 165 165 164 166 164 164 164 164 164 162 163 163 162 162
 176 175 176 176 177 177 176 175 178 178 178 176 176 174 152  67  41  38  47  50  45  36  46  53  56  58  61  67  70  74  75  75  74  70  67  62  55  53  50  50  54  59  63  65  60  54  49  49  63  64  51  39  33  33  34  36  40  39  38  36  32  29  26  24  19  16  18  23  34  40  34  34  37  39  45  53 100 158 163 163 163 164 162 163 163 163 163 160 160 161 160 160
 175 175 176 176 175 175 177 177 178 177 176 176 175 174 103  49  28  26  32  43  42  36  48  54  55  57  59  62  69  74  76  78  78  74  68  65  58  55  56  60  62  64  65  62  57  51  45  52  52  40  26  17  14  18  26  30  34  37  35  31  29  26  24  20  13  11  12  17  27  38  39  38  40  41  42  48  83 157 160 162 160 161 162 161 163 162 162 161 160 159 158 159
 174 175 174 175 174 177 176 175 177 176 175 175 176 173  66  37  26  25  38  42  40  37  49  54  56  57  56  57  65  69  70  71  75  72  67  66  63  61  62  64  64  65  63  58  53  44  43  50  36  23  13  10  10  11  15  23  28  30  29  28  25  23  20  12  10  10  12  15  22  35  38  38  42  38  39  44  64 154 158 160 159 160 162 161 161 160 159 161 159 158 158 157
 175 175 174 175 175 176 176 175 174 176 176 175 174 167  49  30  26  33  43  41  39  40  50  54  56  53  55  56  60  61  64  65  66  64  65  66  64  64  63  64  63  64  57  53  50  40  43  39  26  16  11  10  10  10   9  11  20  25  25  24  23  19  11  10   9  11  13  16  21  34  36  37  37  36  37  40  55 151 158 162 159 159 159 159 159 160 158 158 157 156 156 157
 174 175 176 175 175 175 175 175 174 175 175 174 174 162  42  29  30  46  49  44  32  39  49  54  55  53  54  53  55  55  55  57  59  60  62  60  62  63  63  64  64  62  54  49  44  37  39  30  21  13  10  10   9   8   8  10  15  22  22  20  18  13   9  10  10  12  14  18  24  31  34  34  36  34  36  38  54 151 158 161 158 158 158 157 158 158 157 157 155 155 156 157
 174 175 175 174 175 175 175 175 174 175 175 174 175 166  49  29  40  54  48  30  28  40  46  54  54  54  53  51  52  51  52  54  56  55  58  58  60  59  61  63  60  55  51  46  41  37  37  27  19  14  10  10   9   9  10  14  18  20  19  17  17  11   9  10  11  15  18  18  26  30  33  31  35  35  36  36  55 151 157 157 158 155 158 158 157 155 157 155 155 155 156 156
 174 174 174 175 176 174 175 175 175 176 174 175 173 169  58  34  53  49  35  25  37  46  50  56  54  53  51  50  49  48  48  50  51  53  52  55  58  57  59  58  56  53  49  44  41  40  38  27  22  16  12  11  10  14  20  24  21  19  17  17  17  17  16  15  17  17  18  22  26  28  31  31  31  33  33  37  64 152 154 156 158 156 156 156 157 155 155 154 154 154 154 155
 174 174 174 175 175 174 176 175 174 174 174 175 173 170  77  38  55  41  33  29  45  44  47  52  53  52  50  48  46  46  46  46  47  47  51  53  54  55  55  53  52  51  46  43  41  43  40  27  23  20  22  22  27  30  33  29  26  25  23  21  19  19  21  19  19  17  20  25  27  29  29  29  30  31  33  38  71 151 155 157 157 155 155 154 154 154 154 155 154 154 154 153
 172 173 173 174 174 174 175 175 174 175 175 174 174 171 109  47  56  42  37  34  43  42  46  52  52  50  47  46  44  42  44  44  45  46  47  48  50  52  49  49  47  45  44  44  44  46  44  29  24  22  25  29  33  36  33  33  35  36  33  29  24  22  21  20  22  22  24  27  28  29  29  29  31  31  32  37  84 151 154 155 155 155 154 155 155 154 154 154 154 153 152 153
 173 174 174 174 175 175 175 175 175 175 174 174 173 172 158  52  61  48  43  40  46  42  46  51  52  50  45  43  45  42  41  42  41  45  46  45  46  47  46  45  44  44  45  45  47  50  50  40  30  29  31  34  36  37  37  36  37  35  34  34  29  27  24  24  25  27  28  30  29  29  29  29  28  29  34  37 101 152 154 154 155 155 154 154 154 153 154 153 152 152 152 152
 174 173 174 173 174 174 176 175 175 175 174 174 173 171 169  93  65  59  43  44  55  42  46  50  50  49  45  43  42  40  40  40  40  43  42  41  45  43  44  42  42  43  45  47  52  53  55  52  47  46  45  43  40  38  37  34  35  32  31  30  30  29  26  26  26  28  29  31  34  31  30  29  29  30  34  36 118 153 154 154 154 154 154 153 153 153 153 153 153 152 150 150
 175 174 174 175 175 175 175 175 175 175 174 173 171 172 170 139  63  72  61  67  68  43  47  47  46  46  44  41  39  37  38  38  39  39  40  40  41  39  40  40  42  45  46  50  53  58  58  59  56  52  44  40  38  35  35  32  33  30  29  30  30  30  30  25  27  29  28  32  34  34  31  30  29  30  32  41 136 153 154 154 153 153 153 153 153 153 152 151 150 152 150 150
 175 174 174 173 173 175 173 174 174 174 175 173 172 173 173 168  78  61  67  72  68  48  44  46  46  46  43  39  38  38  37  37  37  37  38  37  36  37  38  40  41  45  48  53  55  60  61  63  59  52  46  42  38  37  37  36  34  31  28  31  31  33  34  30  27  27  28  31  33  35  33  33  31  31  34  48 145 154 155 155 153 153 153 153 152 152 152 152 151 149 149 148
 174 174 173 173 175 174 175 175 175 175 173 173 173 172 172 169 118  60  60  72  61  46  42  47  42  42  41  39  37  37  38  36  36  35  36  35  36  36  38  39  43  45  50  53  59  61  62  62  56  51  42  40  38  41  40  39  37  33  32  32  35  33  37  35  32  30  28  28  32  37  37  33  33  32  35  71 151 153 154 155 154 153 152 152 152 151 151 151 149 149 148 149
 175 175 174 175 174 174 174 173 175 174 173 174 173 172 173 171 164  84  75  72  61  49  42  49  40  42  40  38  36  35  36  36  35  34  33  34  35  36  38  41  44  46  51  54  57  58  57  57  52  48  43  40  42  48  46  47  46  40  36  37  35  39  41  39  35  35  30  29  29  35  37  36  35  33  36  84 148 154 153 154 153 153 152 152 150 150 151 150 149 148 148 149
 174 174 173 173 174 175 175 174 174 174 174 174 173 173 173 172 170 153  85  69  56  45  39  46  41  41  38  36  34  35  36  36  33  32  32  33  34  36  36  40  44  48  53  53  54  52  50  51  48  45  44  47  51  51  51  49  50  50  50  50  48  42  36  30  30  31  32  33  28  31  33  35  36  36  34 118 153 153 154 154 154 154 151 152 150 150 150 148 147 148 147 147
 174 174 174 173 173 175 175 174 173 174 174 174 172 172 173 172 171 168 131  57  43  36  34  45  43  38  35  33  33  32  33  32  31  30  30  32  33  34  37  41  43  49  51  50  48  45  45  44  46  47  47  53  53  48  42  40  40  38  38  39  37  31  28  28  27  30  29  30  32  28  28  32  36  35  33 136 150 154 153 153 154 154 151 151 149 149 148 148 147 149 147 146
 174 174 174 174 174 174 175 175 174 174 174 174 173 173 173 172 172 170 163 120  79  87  87  46  42  38  36  32  33  31  32  31  32  30  30  32  34  35  38  41  46  47  46  46  43  41  42  39  44  46  47  49  44  39  38  37  34  31  30  32  29  26  24  23  24  25  26  26  30  29  27  30  36  33  44 142 150 152 153 152 151 152 152 149 149 149 148 147 148 148 148 147
 174 173 173 172 173 174 174 174 174 174 174 174 173 174 172 173 171 168 168 164 160 157 131  47  43  37  33  35  33  32  31  32  32  29  30  33  35  36  38  41  42  42  44  41  39  39  39  39  45  47  42  37  36  33  30  27  26  25  24  25  25  22  20  20  21  20  21  24  24  30  26  28  35  33  76 145 149 151 153 150 149 149 150 148 148 149 147 148 147 146 147 145
 172 173 174 174 173 175 174 174 174 173 174 174 172 172 171 171 170 169 168 166 164 160 145  51  45  40  35  32  33  31  28  30  30  32  32  32  34  36  38  41  39  39  37  37  35  36  39  42  45  39  30  28  27  24  21  21  20  19  21  23  22  19  17  17  17  17  17  20  23  29  26  29  36  33  99 145 149 150 150 150 151 149 148 148 148 149 148 146 146 146 147 145
 174 173 173 172 174 174 174 174 175 174 174 174 173 172 172 170 170 169 169 166 164 160 159  65  46  42  35  31  31  28  27  28  30  31  31  31  33  35  38  38  35  34  35  32  32  35  36  39  37  28  23  21  19  17  17  17  19  19  18  19  19  17  17  15  15  15  16  17  19  26  24  30  36  34 134 146 149 150 150 152 149 150 149 147 147 147 148 146 147 146 146 146
 174 174 174 174 174 174 176 176 175 174 174 174 172 172 171 172 170 168 167 166 163 161 157  78  42  39  37  33  29  28  28  26  30  28  29  30  35  36  38  36  31  30  31  30  30  31  31  30  25  21  18  17  15  15  16  31  42  38  31  25  29  30  26  13  12  13  15  15  18  23  24  30  34  57 142 148 149 151 152 150 149 149 149 149 148 146 147 146 146 146 145 145
 174 172 174 175 176 177 177 176 177 177 176 175 175 173 172 170 169 168 166 165 162 160 157 107  45  40  38  32  30  28  27  28  28  27  29  31  34  37  38  37  30  29  30  28  30  25  26  23  19  17  17  16  12   9  10  18  24  25  22  19  20  19  13   9  10  14  15  14  16  21  24  33  32  91 145 148 149 150 150 149 148 147 148 149 148 146 146 146 146 146 145 144
 174 175 175 177 176 177 177 178 177 176 177 175 176 173 173 171 169 168 166 163 162 160 156 111  41  39  38  35  34  32  30  28  28  27  29  32  34  36  39  36  30  29  32  29  24  21  17  16  14  14  14  11   9   8   9  13  18  21  20  17  18  17  10   7   9  14  14  14  15  20  24  33  32 125 147 149 148 150 150 149 149 148 146 148 146 146 147 145 145 145 145 145
 175 176 176 177 177 177 178 177 178 177 177 176 175 173 173 171 170 168 166 162 160 159 156 114  44  38  37  35  35  32  29  27  27  28  28  31  32  36  38  36  33  29  29  26  22  17  13  13  12  14  13  11  14  17  22  27  27  25  23  24  20  13   9   9  10  13  16  17  17  20  25  35  62 140 146 149 149 150 149 148 150 150 147 148 148 147 147 145 144 145 145 144
 176 176 176 178 177 177 179 177 177 176 175 176 172 172 171 171 170 167 165 164 160 159 155 114  48  34  34  32  33  31  29  27  28  28  29  31  31  36  37  34  31  28  27  25  20  14  10  11  13  20  23  27  33  36  34  35  31  24  22  20  16  16  15  11  13  15  18  21  21  22  27  35  88 142 147 148 150 149 149 149 149 148 147 147 147 146 146 146 145 144 145 144
 176 176 176 176 176 176 178 176 177 176 176 173 174 171 169 168 169 167 166 163 158 157 156 116  56  34  33  33  31  30  29  26  28  27  28  31  32  34  36  34  30  27  27  25  23  24  23  22  19  23  29  32  31  35  34  32  27  27  27  26  24  23  20  20  19  20  23  24  22  22  30  33 115 144 146 145 146 145 147 146 146 146 146 146 146 146 146 145 144 143 143 142
 177 176 175 176 176 176 176 175 176 175 174 174 173 173 170 169 168 168 166 161 159 158 153 116  57  38  30  30  32  31  28  27  27  25  26  29  31  34  35  33  29  27  26  26  25  30  35  37  34  33  29  29  29  33  31  37  37  39  45  36  32  28  29  28  28  28  29  25  25  24  33  44 128 143 145 145 146 146 148 149 147 148 147 146 146 146 146 146 145 145 144 142
 174 173 174 173 174 175 176 175 174 174 174 174 172 172 169 169 167 166 164 161 159 157 154 123  55  40  30  30  31  30  30  27  27  25  25  26  31  34  33  32  29  27  26  29  27  29  36  38  44  48  47  44  44  46  44  38  36  38  41  36  42  39  35  40  42  36  34  29  25  27  34  71 136 144 145 146 147 147 148 149 148 148 147 146 145 146 146 144 145 143 142 143
 172 172 172 173 174 176 173 172 173 174 171 173 173 172 169 168 168 166 163 160 158 156 153 122  56  44  33  27  27  26  26  26  25  25  26  27  31  32  32  30  28  27  26  29  29  27  34  39  47  55  62  59  51  54  53  47  40  36  37  42  49  51  47  46  42  36  35  31  25  29  35  96 138 141 144 144 146 145 146 147 147 147 146 146 147 146 145 144 144 144 144 144
 174 172 172 174 173 174 174 173 172 172 171 172 172 171 169 167 166 165 162 159 158 157 152 120  60  45  36  27  26  25  25  25  24  24  24  26  29  31  31  30  29  28  28  28  28  26  29  35  44  55  62  65  58  66  64  61  51  49  44  54  57  55  51  40  32  30  32  30  25  29  34 110 136 141 143 144 143 143 144 145 147 147 146 147 146 145 146 145 144 143 144 142
 172 171 172 172 172 172 171 171 171 170 171 171 170 167 167 167 166 166 161 160 158 156 153 117  58  47  38  30  27  25  26  24  24  25  24  25  28  30  28  28  28  28  29  29  28  26  26  30  38  49  61  60  56  54  56  56  56  55  49  60  59  50  42  36  30  29  29  26  23  26  38 120 136 140 141 142 144 144 145 144 145 145 145 145 146 146 143 145 145 145 144 141
 171 171 172 171 171 170 172 171 170 171 170 170 170 168 167 164 166 163 160 158 156 156 153 118  60  47  39  32  27  26  26  24  24  23  23  24  26  26  26  27  25  25  26  27  26  25  23  23  28  36  45  52  51  48  47  44  43  43  42  47  45  38  35  30  28  29  28  22  22  27  50 130 138 140 140 141 142 144 145 144 145 145 145 145 145 146 145 145 146 145 143 141
 171 170 172 172 171 171 171 171 170 169 168 168 168 168 165 163 162 160 159 157 155 154 152 119  58  46  38  33  29  25  26  25  24  20  21  22  23  26  26  25  25  23  22  23  24  22  20  18  20  25  32  38  41  41  40  37  35  34  31  35  34  29  29  29  27  25  21  19  22  26  74 131 139 140 140 142 143 142 143 144 143 144 144 145 145 146 145 143 144 142 143 142
 171 171 170 169 170 170 169 168 168 165 166 166 165 164 162 161 159 158 156 155 156 154 150 115  58  47  39  32  27  24  22  20  20  20  20  20  20  23  25  25  24  22  20  20  21  20  19  16  14  16  22  29  35  35  36  34  32  30  27  27  26  28  28  25  23  20  18  18  21  26  86 132 136 137 140 141 140 141 142 143 142 143 144 144 145 144 144 144 144 143 141 142
 170 170 169 168 167 168 167 166 166 165 165 163 164 164 160 160 159 155 156 153 153 151 150 113  58  46  39  32  27  23  21  20  18  19  20  21  21  21  23  23  23  20  20  19  18  18  17  16  14  12  12  15  18  24  25  26  25  24  22  20  20  24  22  17  17  17  17  16  19  26 103 131 134 136 137 140 140 140 140 141 141 143 143 144 144 143 143 144 144 142 143 142
 168 165 166 167 164 164 164 164 163 164 163 162 161 160 158 156 154 154 154 152 152 151 148 106  58  46  39  32  27  25  22  20  20  18  18  19  19  20  22  23  21  19  19  17  18  17  18  17  15  12  12  10  10  12  13  13  14  14  12  12  13  15  14  14  15  15  16  16  21  38 118 130 133 134 137 137 139 139 140 140 140 142 142 142 144 142 142 144 142 142 142 142
 164 164 164 163 163 163 162 161 161 161 161 160 159 156 155 156 153 153 152 151 150 149 146 103  56  47  39  33  27  22  19  19  19  16  16  16  16  17  20  20  20  20  18  17  17  18  17  15  15  13  12  11  11  11  11  11  10  10  11  11  11  11  12  15  15  17  18  16  20  52 121 130 133 133 134 136 137 137 138 139 140 140 141 140 142 142 142 142 142 141 142 142
 163 162 162 161 161 161 160 159 159 157 157 157 156 155 154 153 151 151 150 150 149 148 146  99  56  46  40  34  28  24  18  19  17  16  17  16  14  15  16  18  20  20  20  19  18  19  17  16  16  15  15  14  14  14  14  13  12  12  12  13  13  13  15  15  17  17  17  16  19  66 122 128 132 132 133 134 136 136 137 137 138 139 139 140 140 141 142 141 142 142 142 141
 160 160 160 160 158 158 158 156 157 156 155 155 153 152 153 152 151 150 149 147 147 147 143  90  54  46  39  33  28  24  20  18  15  15  17  16  14  15  15  17  19  20  19  20  20  20  20  19  18  18  17  18  18  17  16  16  15  14  13  14  12  12  14  15  16  15  16  18  22  97 125 127 128 131 132 131 133 134 135 135 136 137 139 140 140 139 140 139 140 141 139 139
 157 156 158 157 157 156 155 155 155 155 153 153 152 151 151 151 150 149 148 148 145 145 141  83  52  45  39  32  30  24  19  18  14  13  14  15  14  14  13  14  17  19  17  20  21  21  22  22  20  21  19  19  18  19  18  17  15  15  14  13  12  13  15  15  15  16  16  17  28 114 123 127 128 129 130 130 132 132 132 133 133 134 136 137 139 138 140 141 139 140 138 140
 157 156 157 157 156 154 154 154 152 154 153 150 151 150 150 149 148 147 146 146 144 143 138  71  50  43  39  34  32  24  20  17  16  12  12  13  13  12  13  14  16  18  18  20  21  23  23  23  22  21  23  20  18  19  18  15  16  14  13  12  12  13  12  14  14  14  17  18  41 115 122 123 126 129 128 131 130 130 132 133 134 133 134 134 135 137 139 139 139 137 139 140
 155 155 154 155 153 153 154 152 151 150 151 148 150 149 147 147 146 146 144 144 144 142 136  64  50  42  38  33  32  26  22  20  15  13  10  11  12  11  12  12  12  15  18  20  20  21  21  19  19  20  20  20  18  16  16  15  14  14  13  13  12  12  11  11  11  11  14  20  43 114 119 125 124 127 127 128 127 128 128 130 131 131 133 135 135 134 136 137 137 138 138 137
 154 154 154 153 151 152 153 151 150 151 150 146 147 145 144 145 143 142 141 141 139 137 125  59  49  43  38  34  32  28  24  20  17  16  12  11  11  10  11  11  11  12  13  15  16  18  17  17  17  17  17  18  14  14  13  12  13  12  13  12  10  10   9  10  10  11  13  22  40 113 119 121 121 123 126 126 127 128 128 128 129 130 131 132 133 133 134 134 134 135 136 137
 152 151 151 151 151 151 150 150 150 148 147 146 145 146 144 142 140 140 138 137 123 103  77  55  46  42  38  34  32  30  28  23  21  18  14  12  10  11  10  10  10  11  11  11  13  13  12  13  14  13  12  12  11  12  11  11  11  11  10  11   9   9   8  11   9  10  15  24  41 110 116 119 120 121 123 124 126 125 127 128 128 128 131 130 132 132 133 133 134 134 134 133
 151 150 150 151 150 150 149 146 147 146 145 145 144 143 144 140 138 118  79  46  25  35  60  52  46  40  38  34  33  31  27  25  23  20  18  15  11  11  11  10  11  10  10  10  11  12  12  10  12  11  11   9  10  10  10   9  10   9   9   9   9   9   8   9   9  12  18  24  30  30  56  87 105 118 118 121 123 123 124 125 126 126 129 128 128 129 130 132 132 133 134 132
 149 150 150 151 151 149 149 148 147 147 144 145 144 142 140 123  64  27  23  24  29  56  56  49  44  39  37  35  34  30  29  28  26  22  20  18  14  12  12  11  11  10   9   9  11  10  10   9   9  10  10   9   9   9   8   8   8   8   8   8   8   9   9   9  10  14  21  25  29  25  16  17  21  34  47  91 118 121 121 123 124 125 126 127 126 127 129 130 130 132 132 132
 149 149 151 150 150 150 149 147 147 145 145 144 141 127  73  31  22  16  24  27  47  62  53  47  43  40  37  36  34  31  30  30  31  26  24  19  18  17  17  15  12  11   9  10   9   9   9   8   8   9   9   9   8   7   6   5   6   7   7   8   8   8   9  11  15  17  21  25  29  34  28  16  11  12  15  14  51 111 119 121 122 122 124 126 127 126 129 128 129 130 130 131
 147 148 149 150 148 148 146 146 144 144 140 122  70  33  25  17  14  26  25  44  63  56  50  46  40  39  37  33  32  30  30  31  30  28  26  25  20  18  19  18  15  14  13  11   9   9   9   9   8   8   7   8   6   6   5   6   6   5   7   8   8   9  11  13  16  18  20  24  28  32  33  31  18  11  10  12  16  36 103 118 120 121 125 125 125 125 126 128 127 129 131 131
 146 147 148 147 149 146 146 145 143 136  69  32  29  23  16  13  24  28  35  62  61  53  48  44  40  39  37  35  34  32  33  31  31  29  29  27  24  21  21  19  19  18  16  15  13  10  10   8   6   6   5   8   6   6   6   6   8   6   8   9   9  11  11  14  17  19  20  23  27  30  32  35  33  22  11  10  11  15  24  85 118 118 121 124 125 124 126 127 127 127 130 129
 145 146 147 146 145 143 143 142 119  44  27  23  20  18  14  20  29  30  57  60  56  50  46  43  40  39  39  36  34  32  32  33  32  29  30  29  25  24  23  21  20  19  19  17  16  13  14  13  11  10   8   9   7   7   8   8   8   9   9  10  11  12  14  16  16  18  20  23  25  30  30  32  34  33  24  12  10  12  16  17  56 112 118 121 121 123 124 126 126 127 127 128
 145 146 145 145 143 143 142 112  32  28  21  18  18  17  13  23  26  36  57  57  52  48  45  41  38  39  38  35  36  33  33  32  32  32  31  29  25  24  22  23  20  19  19  18  17  16  15  14  12  11  10  12  10   8   8   8   8   9  10  10  11  13  15  16  18  17  20  23  24  29  30  31  33  32  32  24  12  10  11  14  16  31  94 118 119 120 122 123 125 125 127 127
 140 142 143 144 144 142 100  33  26  21  17  18  17  16  14  24  27  46  57  54  50  47  45  41  40  40  37  36  34  33  33  31  32  33  33  30  27  25  25  24  21  21  19  19  17  18  17  17  13  12  11  12   9   9   8   8   8  10  11  12  13  15  15  16  17  18  18  21  24  28  28  30  30  31  32  29  22  11  10  12  13  15  18  67 118 120 121 121 124 124 125 125
 140 140 139 137 139  76  30  26  21  17  17  17  16  16  13  22  25  49  56  53  50  46  43  40  41  40  39  37  37  34  32  32  32  30  30  30  30  28  26  25  23  22  19  20  19  18  16  16  14  14  13  11   9   9  10   9   9  12  12  14  14  16  16  16  16  18  18  22  24  28  29  29  28  30  32  30  26  17   9  10  12  13  14  16  50 116 119 120 120 124 124 123
 140 139 136 104  45  30  25  21  19  17  15  14  15  15  13  19  24  49  52  54  49  46  43  41  42  40  40  37  36  34  33  33  31  31  31  30  30  29  27  25  24  23  22  19  19  18  17  15  14  13  11  10   9   9   9  10  10  12  16  15  16  16  15  16  16  18  18  22  23  25  27  30  30  30  32  30  27  23  11   9  11  11  12  13  16  37  99 118 119 120 123 122
 138 109  51  29  27  23  20  19  16  16  16  13  13  14  14  16  21  51  51  51  50  46  44  42  42  40  39  38  36  34  34  33  32  32  31  30  29  28  27  26  25  25  23  20  19  17  16  16  14  13  12  10  10  10  10  10  12  15  16  16  16  16  16  17  18  18  18  21  23  26  28  29  30  30  32  30  28  25  14  10  11  10  11  12  13  16  22  73 113 118 119 121
  55  28  25  22  21  20  18  17  17  15  13  14  13  13  14  14  20  49  51  52  48  44  44  43  42  39  38  37  35  35  34  32  31  30  31  30  30  28  28  26  25  26  24  21  19  17  16  15  14  13  12  11  10  11  11  13  15  16  18  17  17  16  16  16  16  18  18  21  24  26  27  28  30  30  31  30  29  26  17   9  10  11  10  12  12  14  16  18  31  78 112 116
  27  23  20  19  19  18  18  16  14  13  15  12  12  12  12  13  20  45  53  51  50  45  45  44  42  38  38  38  36  35  34  33  30  31  30  30  30  29  28  27  24  24  24  24  21  18  17  16  15  13  13  11  12  13  15  16  17  17  18  16  16  16  16  16  16  16  20  20  23  25  26  28  30  31  30  29  29  27  17   9  10  10  10  11  10  12  14  15  17  20  35  81
