P2
# Generated by OpenCV 3.4.0
92 112
255
 205 205 204 202 200 195 190 184 177 172 171 171 170 169 170 170 169 169 168 169 171 170 171 170 170 168 169 169 169 169 169 168 168 170 168 170 169 169 169 168 169 167 168 167 168 168 166 168 169 168 167 168 168 169 168 167 167 167 165 168 167 167 165 166 167 166 166 166 165 165 165 165 164 164 163 162 163 162 161 162 163 162 161 161 161 161 161 158 158 158 159 158
 192 192 191 193 189 187 184 179 175 173 171 170 171 171 170 170 170 171 170 170 170 170 170 170 169 170 170 170 169 169 168 169 169 170 168 169 169 170 168 169 169 168 169 168 169 169 169 169 169 168 168 169 168 169 168 167 169 168 168 168 167 168 166 165 165 165 167 166 166 166 164 163 164 167 164 164 164 163 163 163 163 161 161 162 161 162 162 161 159 158 158 159
 185 186 185 184 184 182 180 177 174 173 172 171 171 171 169 169 170 171 169 170 171 171 171 171 170 170 171 170 170 169 169 169 169 169 169 169 169 169 168 169 169 169 169 168 168 167 169 168 166 169 168 169 168 168 168 167 168 168 168 167 166 168 168 167 167 167 167 167 168 167 165 164 164 166 164 164 163 163 163 164 164 164 164 164 162 161 161 160 160 159 159 160
 178 180 179 180 179 178 177 175 173 174 173 172 170 170 170 170 171 172 169 171 171 171 170 170 171 171 170 170 172 169 170 169 169 169 168 168 168 169 169 169 168 169 168 168 168 168 169 167 167 169 166 168 168 168 167 167 169 168 168 168 167 168 167 168 168 168 166 166 168 166 165 165 165 164 164 164 164 164 164 165 163 163 163 163 162 161 162 160 160 159 160 160
 177 176 178 178 176 176 175 176 174 173 172 173 172 171 171 171 170 170 172 170 170 171 170 171 171 171 171 172 171 171 170 170 170 169 170 170 169 169 170 168 169 169 168 168 169 169 169 168 165 167 167 168 168 169 167 167 168 168 169 169 166 167 167 167 167 168 166 165 168 166 167 165 166 165 164 164 164 163 165 164 164 162 163 162 161 161 162 160 162 160 160 161
 175 177 176 176 177 176 175 175 174 172 172 172 173 172 173 171 172 170 171 170 171 172 172 172 170 171 170 172 170 170 170 170 169 170 169 169 169 169 169 169 169 169 167 168 168 168 168 167 165 165 168 168 167 166 167 167 167 169 168 167 169 168 167 168 169 168 167 168 168 167 166 166 167 166 164 164 165 163 164 162 164 163 163 162 161 163 162 161 161 161 161 160
 176 176 176 177 177 175 176 174 173 173 172 172 173 172 173 173 171 170 170 171 172 171 172 172 171 171 170 170 171 170 170 171 171 169 170 169 169 168 169 169 168 168 168 165 165 167 165 163 164 163 159 159 162 162 162 165 167 167 165 166 167 167 169 168 168 166 167 166 167 167 167 165 166 165 164 165 165 163 163 164 163 163 161 161 161 163 162 161 161 162 160 161
 176 177 177 176 175 175 175 175 174 173 173 173 173 173 171 173 171 173 173 172 172 172 173 172 171 172 172 171 172 171 171 171 170 169 171 170 169 168 168 168 167 165 163 163 154 153 151 141 156 142 130 131 122 124 140 152 158 158 162 163 164 164 167 167 167 166 165 166 165 166 165 165 165 165 166 165 163 164 164 164 163 163 163 162 162 162 164 163 162 161 161 161
 176 175 175 174 175 175 175 175 174 174 173 173 172 172 172 173 172 173 173 171 174 174 172 171 172 172 171 171 170 172 171 171 170 171 170 170 169 168 166 163 147 118  88  81  96  80  74  68  60  48  48  46  49  48  62  98 110 129 130 144 158 163 166 167 168 167 165 166 167 166 166 165 165 165 164 165 164 165 163 163 163 163 163 162 162 162 162 164 162 162 161 162
 175 176 176 177 176 175 175 175 175 175 174 174 173 172 174 173 173 174 174 174 174 173 173 173 171 172 171 172 172 172 171 170 172 171 169 166 165 152 114  60  52  51  45  43  44  42  40  39  38  35  35  35  35  34  36  39  44  44  49  49  90 133 160 164 167 168 167 168 166 167 168 164 166 165 165 166 164 166 166 163 164 164 163 164 164 163 164 162 164 161 159 159
 175 175 175 176 175 176 173 175 176 176 174 173 174 174 172 173 174 174 175 175 174 173 174 173 173 172 171 171 171 172 172 171 171 170 165 148 124  78  48  41  36  34  33  33  34  33  29  31  32  29  30  28  28  30  29  30  30  30  32  32  40  52 100 150 162 166 167 168 167 168 166 164 166 166 166 166 165 166 164 163 165 164 165 162 164 163 164 163 162 159 159 161
 175 175 174 175 175 175 174 175 175 176 174 174 174 174 172 173 173 175 176 175 174 174 173 172 171 173 174 171 172 170 171 171 167 140  87  64  50  44  36  32  30  30  30  28  26  25  26  27  27  24  25  24  24  27  26  28  29  28  28  27  29  34  40  88 137 162 165 166 166 166 167 166 165 167 165 167 166 166 165 165 165 165 165 164 164 162 162 163 163 163 162 162
 173 174 173 174 173 174 173 174 175 175 175 173 174 173 175 174 175 174 175 175 174 175 173 171 173 175 173 172 173 173 169 159 123  71  49  39  36  35  31  27  28  29  28  26  25  25  24  26  24  24  24  22  24  24  24  25  24  25  24  24  25  26  30  36  56 119 156 165 164 166 166 167 166 165 166 166 167 165 165 164 165 163 164 165 165 163 165 164 163 163 161 164
 172 173 174 173 174 173 174 173 175 175 175 174 174 175 174 173 175 175 176 175 175 176 175 174 173 174 174 173 173 173 166 119  61  44  37  33  32  33  30  26  27  26  24  25  25  25  27  24  23  26  22  23  25  24  24  23  23  23  24  24  24  25  25  28  36  50 115 158 164 167 166 166 168 166 167 167 166 165 166 165 164 163 165 165 165 164 165 165 164 164 164 164
 172 173 173 173 172 175 175 174 175 175 174 174 174 174 174 176 177 176 176 175 176 175 175 175 174 174 174 174 172 170 150  69  42  33  33  34  29  29  27  25  24  24  26  24  24  23  23  22  20  19  20  24  24  22  24  21  19  23  24  24  25  24  23  24  28  35  40  95 150 162 165 165 166 165 166 166 165 166 165 165 166 164 165 165 164 164 164 163 163 164 163 164
 172 174 174 174 174 173 175 174 175 175 174 174 175 173 175 176 176 175 176 176 176 176 175 176 175 174 172 173 169 154  85  46  35  32  31  27  25  25  23  23  21  20  22  22  20  21  20  18  17  19  21  21  21  20  18  18  17  19  20  21  19  19  22  25  26  26  30  35  82 151 161 165 166 166 167 166 166 166 167 165 167 166 165 165 165 164 165 164 164 165 164 165
 172 173 173 173 175 174 174 175 175 174 174 174 174 174 175 176 175 175 176 176 177 177 176 176 176 175 176 172 152  82  53  40  32  31  28  24  20  21  21  18  18  18  18  18  17  17  17  17  17  19  18  18  17  20  20  17  17  19  20  19  18  18  21  25  25  24  24  26  38  92 153 163 165 165 166 167 166 166 166 166 166 166 166 166 165 165 166 166 165 165 164 165
 174 173 173 174 174 173 173 172 174 174 175 174 175 175 175 176 176 176 176 177 179 180 179 177 177 178 176 172 112  50  42  35  31  30  26  23  22  19  19  18  18  19  18  18  18  18  18  17  18  17  17  18  16  18  17  17  17  20  18  19  17  17  19  20  21  23  23  24  29  43  94 149 160 164 165 165 166 166 165 166 166 166 166 165 165 166 166 166 166 164 164 164
 173 173 174 173 175 174 174 174 174 174 175 175 174 174 175 175 176 178 179 180 182 183 185 184 183 184 179 166  71  40  34  31  28  25  21  21  22  21  20  21  21  23  24  24  24  23  23  22  22  18  17  17  17  17  15  16  16  17  16  17  16  16  16  17  17  18  19  22  23  30  36  81 149 161 164 165 167 166 165 167 167 167 167 166 166 166 165 164 165 165 165 164
 173 172 174 174 173 174 174 175 176 175 175 174 176 175 175 176 176 179 182 186 187 190 190 191 190 189 181 123  51  36  32  29  24  20  20  23  23  24  26  29  28  34  38  37  32  31  30  31  32  28  22  20  20  18  17  16  16  16  15  14  15  16  14  15  16  17  18  21  23  26  29  36  84 144 158 164 165 165 165 167 167 166 167 166 167 166 165 165 165 167 164 164
 173 174 174 172 173 174 173 175 176 176 175 176 176 175 175 176 178 182 186 190 192 195 197 197 196 188 164  70  44  34  30  25  24  24  25  27  30  33  38  46  44  50  54  49  45  45  43  45  48  41  34  29  27  26  23  21  21  19  17  16  16  16  15  16  15  15  16  17  20  23  24  28  37  54 129 158 166 167 164 166 166 166 167 167 167 166 167 166 166 165 165 164
 172 172 174 172 172 174 174 174 174 175 174 175 175 174 174 176 176 180 184 188 189 192 193 192 191 182 119  54  37  30  26  25  28  28  35  41  45  49  60  71  64  68  68  59  56  53  54  54  55  51  47  43  39  37  37  38  33  29  25  22  21  20  17  16  16  15  16  16  17  18  19  24  29  34  60 147 162 165 166 165 166 166 166 166 166 166 167 166 165 165 166 163
 172 172 172 174 174 174 174 174 174 175 176 176 175 174 175 176 175 178 180 183 184 184 184 185 182 173 110  48  35  29  27  29  31  40  54  67  73  80  82  83  79  77  76  68  64  59  61  59  58  55  52  53  52  50  52  51  45  39  34  31  29  26  24  22  18  16  16  14  15  16  18  20  23  28  36  96 147 162 166 167 168 165 167 166 167 167 167 166 166 166 165 164
 173 173 174 176 174 174 174 174 175 176 175 175 173 175 174 174 175 176 176 178 178 179 179 180 173 164  87  43  32  30  31  38  48  61  77  88  94  93  91  89  88  88  85  74  70  65  65  63  62  59  59  57  57  56  56  53  48  41  37  33  31  28  28  28  25  21  17  14  15  16  16  17  20  24  26  38  79 131 160 165 167 165 168 167 168 166 167 164 165 165 164 164
 172 174 175 174 173 173 174 176 176 176 176 175 175 173 174 173 174 175 176 176 176 176 176 176 168 149  78  40  32  33  46  56  66  76  89  98 101 102  97  96  95  92  84  74  72  69  67  67  66  65  61  60  58  55  50  46  44  39  35  34  33  31  30  30  30  29  25  19  15  16  15  16  18  21  24  29  35  54 137 161 166 165 167 164 164 165 167 167 165 166 164 164
 175 176 175 174 174 174 176 176 177 177 176 176 176 175 174 174 174 176 175 175 176 176 174 175 164 129  65  40  34  51  61  65  70  78  87  96  98  99  95  94  89  83  74  72  69  65  63  62  62  61  57  56  54  51  46  44  40  38  33  30  31  30  31  31  31  31  29  26  21  16  15  16  16  17  19  25  27  30  78 155 163 165 166 166 164 166 167 165 167 165 165 165
 176 176 176 176 175 176 176 178 177 176 175 176 175 174 175 174 174 175 175 175 176 174 175 174 163 117  62  42  50  65  68  67  70  74  79  87  90  88  88  88  84  76  70  70  68  64  64  61  61  60  58  56  52  51  47  43  38  35  31  29  29  30  31  31  32  32  32  30  28  22  18  16  16  16  17  19  24  26  36 121 156 162 165 166 166 167 167 165 165 165 164 165
 176 177 175 175 176 177 178 178 178 177 176 175 175 176 175 174 175 175 176 176 175 175 176 174 155 110  53  44  66  69  64  60  64  71  80  85  86  86  87  87  82  76  74  70  70  68  64  63  63  62  58  54  50  46  41  37  35  32  31  29  29  28  28  31  30  31  31  32  31  29  26  22  17  17  16  17  21  23  26  50 145 162 164 165 165 166 166 165 164 165 164 165
 176 177 176 176 177 177 178 178 177 177 177 175 176 175 176 174 175 174 175 175 175 176 176 172 144  84  48  55  70  68  60  60  64  70  79  86  84  83  88  87  85  83  77  73  70  68  67  64  63  59  58  51  45  38  35  31  30  29  28  30  29  29  28  29  30  31  30  32  31  33  31  29  25  19  17  16  19  23  26  31 111 160 163 165 165 165 164 164 166 165 165 164
 176 177 179 178 178 179 179 181 179 176 179 177 177 175 174 175 176 175 175 175 175 175 173 171 114  60  43  68  71  64  58  59  61  68  74  76  76  80  80  82  83  81  74  71  67  66  64  62  59  56  49  42  41  37  34  29  27  26  25  26  26  27  29  29  29  29  31  31  32  34  35  32  30  27  20  17  18  22  23  29  62 130 158 164 165 165 165 166 165 164 164 163
 180 180 180 181 181 181 181 183 182 179 179 178 176 175 175 175 175 174 175 175 175 173 170 157  91  48  49  71  69  62  57  57  65  73  78  79  73  76  77  82  84  76  70  65  64  64  64  58  54  49  46  45  46  44  40  36  31  27  26  25  24  25  25  27  29  30  30  31  31  34  33  34  33  30  24  18  17  17  20  24  33  64 146 161 165 165 164 165 166 166 163 164
 187 186 186 185 186 185 186 184 185 184 183 182 181 177 176 176 175 175 176 175 173 175 166 125  82  44  63  73  66  61  63  64  69  79  84  85  85  85  84  81  79  73  67  62  64  62  61  57  54  51  50  52  53  51  42  38  34  31  30  28  27  25  25  25  26  30  29  29  30  34  34  33  33  31  25  20  18  17  19  23  26  33 127 160 164 165 164 164 165 165 165 165
 194 195 197 200 199 197 197 195 194 192 192 189 184 180 177 175 174 176 175 175 173 174 160  89  56  58  73  72  70  70  69  68  72  79  80  83  85  85  84  81  77  70  64  62  62  61  58  57  55  53  54  54  50  45  39  34  32  31  31  30  30  29  29  28  28  30  30  30  32  33  33  33  33  31  25  20  18  17  19  20  23  32  98 157 162 163 164 164 164 165 164 165
 203 202 206 208 208 209 205 202 199 203 203 196 190 186 179 175 173 174 175 175 176 173 158  76  54  69  74  74  73  70  69  70  68  71  74  76  77  77  78  76  73  66  64  61  64  61  56  56  53  51  51  48  44  39  31  30  30  31  31  33  33  33  31  32  31  31  31  32  34  32  32  31  31  29  24  18  18  17  17  18  22  33  96 152 161 163 164 166 165 165 164 165
 204 205 206 208 207 207 207 206 203 202 202 195 191 188 182 178 176 174 174 175 173 173 148  57  57  75  76  75  68  66  67  67  65  67  71  70  72  70  70  67  65  61  62  63  64  62  57  54  51  50  45  39  37  32  29  28  30  32  34  37  40  37  37  35  36  32  31  33  33  33  34  31  29  26  23  18  17  16  16  17  21  28  91 155 161 164 166 164 165 165 164 163
 200 203 203 200 200 201 203 204 198 196 195 194 190 185 179 176 175 174 173 175 175 172 149  59  65  76  77  69  62  56  56  61  63  60  67  71  69  67  62  57  57  58  59  61  63  60  56  52  46  42  37  29  27  26  25  22  23  22  25  29  34  35  33  33  34  34  34  34  34  34  34  33  29  25  21  17  17  17  15  17  19  23  37 132 161 164 164 164 165 164 164 164
 187 191 193 190 192 192 190 191 191 191 187 186 184 182 178 176 175 175 176 175 174 173 150  64  73  75  70  58  47  45  46  47  52  52  56  64  66  66  63  57  53  55  56  59  62  58  53  48  43  35  29  25  24  23  21  20  18  17  18  19  21  23  23  25  27  27  29  31  33  34  34  33  31  25  20  17  17  17  15  17  18  22  30 128 162 164 165 167 164 163 164 164
 183 185 184 186 185 185 184 184 184 184 183 182 179 178 178 177 175 174 176 175 176 173 148  69  76  71  56  40  37  36  39  41  47  53  51  53  59  64  64  58  55  56  58  57  54  52  50  44  36  31  29  23  22  20  21  19  18  17  16  17  17  17  15  17  19  20  23  26  29  33  34  31  31  27  21  17  16  17  16  16  17  21  39 145 162 164 166 164 164 164 165 165
 181 180 181 180 181 181 180 179 180 179 180 179 178 177 177 176 175 173 174 175 175 174 157  74  71  52  43  35  33  32  33  31  32  36  42  48  52  58  63  59  56  58  58  56  52  50  42  38  32  28  26  24  24  21  20  18  18  18  16  17  17  17  17  16  16  17  18  19  24  29  32  30  32  27  21  16  16  16  15  16  17  21  35 144 162 164 164 163 164 164 165 165
 179 180 179 180 179 179 179 178 178 178 179 179 178 177 177 176 176 175 175 175 175 175 160  85  51  36  35  33  35  32  29  27  30  32  38  44  44  51  56  56  55  55  55  53  51  47  42  36  32  26  25  25  24  21  20  19  19  19  18  19  19  20  20  20  20  18  18  18  21  25  28  30  31  29  24  17  15  15  16  15  17  19  25 138 162 165 165 165 166 165 164 164
 178 178 180 179 178 179 178 178 177 177 179 178 178 178 177 176 177 176 176 175 175 176 168  67  40  37  40  40  39  37  32  29  29  32  34  39  45  48  51  53  52  52  50  48  45  42  39  35  29  27  26  25  24  23  23  23  22  21  21  23  24  24  26  26  25  24  24  24  23  23  24  29  31  30  25  18  15  14  14  15  17  19  27 134 162 166 165 164 166 165 166 164
 177 178 179 178 177 178 178 177 177 178 179 177 178 177 176 176 176 177 176 177 178 174 144  43  44  51  49  47  45  41  38  37  32  32  34  37  40  45  48  50  48  49  46  45  42  39  35  30  28  26  25  24  24  24  22  21  20  22  24  25  28  28  29  29  28  29  27  28  25  24  24  25  30  32  28  20  16  15  14  14  16  19  27 131 163 165 167 167 166 167 166 165
 177 177 178 178 177 177 178 176 177 178 178 177 177 177 177 176 175 177 177 178 178 177  85  52  58  60  58  54  50  47  43  38  38  34  33  33  36  43  46  47  46  44  44  41  41  37  32  31  26  25  24  24  24  23  23  23  25  29  31  32  36  37  37  35  33  31  28  28  27  27  24  24  28  34  33  23  16  16  15  15  16  19  33 142 163 165 167 167 167 166 166 164
 178 176 178 177 178 179 177 177 178 177 177 177 177 177 177 176 177 178 177 178 179 170  59  64  65  64  64  66  63  58  52  46  39  36  36  35  34  40  45  45  45  44  43  40  39  36  33  28  25  24  24  23  22  23  24  26  30  34  34  31  31  33  34  34  33  33  29  28  26  26  25  24  25  33  35  25  15  16  15  15  17  18  35 142 165 166 166 166 167 164 167 163
 177 178 179 179 179 178 176 178 178 179 178 178 178 179 176 177 178 178 178 178 178 144  73  68  64  68  73  74  69  62  56  54  47  40  36  34  37  40  43  46  47  45  43  42  41  37  33  28  25  24  24  24  23  24  27  28  26  27  32  39  42  41  35  27  25  27  28  28  26  25  24  24  24  30  35  28  16  15  14  15  17  18  42 150 164 166 167 168 167 165 164 165
 178 177 178 178 177 178 177 177 178 178 178 178 178 178 178 177 177 177 177 178 176 133  74  66  67  54  49  54  52  45  46  47  48  44  38  34  35  38  42  46  49  46  46  45  41  38  32  28  25  24  23  23  24  26  25  22  29  40  46  49  53  52  42  34  29  24  23  26  26  24  23  24  25  29  35  30  17  15  14  16  17  20  76 152 163 166 166 167 166 165 166 165
 177 177 177 178 177 178 178 178 178 178 178 178 178 177 177 177 178 178 177 176 175 138  71  64  50  60  72  76  73  61  46  38  42  45  41  36  34  38  43  48  52  53  51  48  43  37  32  28  25  23  24  24  26  25  21  30  37  39  38  35  33  32  33  33  32  29  25  24  24  24  23  24  26  29  33  33  19  16  15  16  18  21  99 159 167 167 165 166 165 166 166 165
 176 178 178 178 177 177 178 178 176 177 177 178 178 177 177 178 178 179 177 177 176 149  68  51  55  65  63  62  58  54  47  42  37  41  41  38  36  36  43  50  56  59  56  52  45  38  33  27  24  24  24  25  23  21  28  24  19  16  18  21  22  19  17  18  21  28  31  24  22  24  23  23  26  28  33  32  21  17  15  15  18  22 125 163 167 167 165 166 166 166 166 165
 176 176 176 177 177 178 178 177 177 178 177 179 178 178 178 178 178 178 175 175 174 165  74  40  29  25  26  27  27  30  32  37  41  38  37  38  37  37  44  53  64  69  65  56  47  39  32  28  25  23  25  25  21  26  20  12  15  19  36  62  62  53  44  32  19  16  21  26  20  23  23  24  26  27  31  31  20  16  16  16  19  26 138 163 165 165 165 167 166 166 164 165
 177 176 177 178 178 178 178 177 177 178 179 179 179 178 178 178 177 178 178 176 170 152  77  34  24  23  29  52  66  58  40  30  35  36  35  38  40  42  47  58  72  76  72  61  49  40  33  28  24  25  26  25  28  23  12  12  38  27  26  71  80  71  62  52  35  19  13  17  22  24  24  24  25  28  31  32  24  18  17  16  18  32 145 164 165 167 167 166 166 164 164 164
 175 176 175 177 177 178 179 178 179 179 178 178 178 177 178 179 178 179 177 177 167 127  54  30  27  29  62  61 104  95  85  59  35  28  34  39  44  48  54  66  80  83  79  69  56  44  34  28  26  25  29  28  27  16  12  14  26  20  28  67  78  72  64  56  47  33  16  13  18  22  23  24  25  26  31  32  25  17  18  17  18  35 138 164 165 165 165 165 165 165 165 166
 176 176 176 177 176 178 178 178 179 178 178 178 178 178 178 177 177 178 178 177 170 130  65  32  38  29  27  59  99  97  88  71  52  38  29  43  46  52  64  76  88  90  83  70  56  47  38  30  27  25  31  27  21  14  15  12  14  17  34  68  74  69  60  53  46  38  25  15  19  24  23  23  24  25  29  31  25  17  16  17  21  47 148 162 166 166 165 166 166 165 165 166
 175 178 177 177 178 178 178 178 178 178 178 178 177 178 178 177 177 178 178 179 175 163  97  49  49  30  29  70  95  97  91  68  46  43  36  44  49  61  72  85  93  89  80  67  57  48  39  34  29  25  26  25  31  26  23  18  15  17  42  61  64  61  58  51  45  38  26  20  21  24  24  24  25  26  27  30  25  18  16  18  22  98 160 164 165 165 166 165 165 166 164 165
 177 177 176 178 178 178 178 178 177 178 178 179 178 177 177 176 177 178 179 179 178 175 128  69  57  40  36  70  82  72  47  41  39  40  38  45  57  68  76  86  88  83  70  62  52  45  44  39  32  29  27  26  29  32  31  33  28  28  35  41  43  43  38  35  29  22  19  20  23  24  23  23  25  25  26  29  24  18  18  20  34 146 162 165 165 164 165 164 164 165 165 164
 178 178 177 178 177 177 177 177 178 177 178 178 178 178 178 178 178 178 177 178 178 175 117  54  45  40  38  41  37  36  33  34  38  38  42  54  65  72  83  85  83  78  68  59  48  45  42  39  35  33  31  29  28  34  32  25  23  23  25  23  23  24  22  21  20  18  20  23  26  24  24  25  25  25  27  29  26  18  19  19  58 153 162 164 164 166 165 165 164 164 164 164
 176 178 176 178 177 178 177 177 178 178 178 178 178 179 178 178 178 176 178 178 177 176 114  66  49  40  34  31  27  28  32  40  42  46  54  62  68  76  86  88  84  74  61  52  46  42  42  37  34  34  35  34  31  35  38  34  27  21  20  20  21  21  20  19  18  19  22  25  27  26  26  26  27  26  26  28  27  21  21  23 104 156 160 163 163 164 164 165 163 164 164 163
 175 176 177 177 178 178 177 177 178 179 179 179 179 178 178 178 178 178 177 178 177 174 115  79  61  44  32  28  30  36  40  44  46  52  59  65  76  89 102 106  87  74  61  55  49  43  41  39  35  34  33  34  34  34  36  37  35  31  26  22  21  19  19  18  19  19  22  24  28  30  29  29  29  29  28  28  28  23  25  28  44  53  83 144 161 164 164 164 164 164 164 163
 176 177 178 177 177 178 179 178 178 179 178 179 178 178 178 179 179 179 177 178 177 174 107  86  68  51  43  40  42  44  46  48  52  59  62  82  96 102 106 105  93  85  72  62  55  46  41  40  34  32  32  33  34  39  36  37  38  36  33  30  27  26  24  22  22  24  25  27  30  34  33  32  31  29  29  29  30  25  28  30  33  30  31  52 151 161 163 162 163 163 163 162
 176 177 178 177 178 177 178 176 178 178 179 178 177 178 178 178 178 176 178 177 176 174  98  89  73  59  52  49  48  47  51  52  58  65  84  96 100  94  91  89  88  83  80  77  67  52  43  44  42  32  31  31  34  40  36  36  36  36  34  32  31  30  28  26  26  27  27  28  31  35  35  34  31  29  27  28  31  26  26  25  23  18  20  29  96 156 161 162 163 162 162 161
 176 176 176 178 178 178 178 178 177 179 178 177 178 178 178 178 178 178 177 177 175 155  92  87  74  65  57  54  52  54  58  60  65  80  81  81  82  81  80  80  77  68  69  65  62  62  54  53  48  42  33  31  33  37  40  40  35  35  35  33  31  30  29  28  28  28  29  30  34  38  36  33  30  29  28  27  29  25  23  22  20  18  18  24  55 153 161 161 162 161 160 161
 176 177 177 178 177 177 178 176 178 179 178 178 179 180 178 177 178 178 178 178 175 133  94  86  75  68  62  58  60  64  68  70  77  73  68  73  73  73  72  65  59  56  53  47  46  51  57  59  54  47  39  29  31  38  40  41  38  37  35  34  34  31  30  30  30  30  32  34  35  36  34  33  30  28  28  29  30  25  22  21  22  18  18  20  38 148 159 161 161 159 161 160
 177 177 177 176 176 178 176 178 177 179 178 177 178 179 178 177 177 178 178 177 174 109  90  84  77  72  69  70  71  68  72  76  68  60  54  58  62  66  62  54  47  47  41  37  37  41  44  45  45  44  40  32  28  35  39  39  39  39  37  35  35  33  32  32  33  32  33  34  34  36  34  30  28  29  28  29  30  25  20  20  22  20  18  20  35 149 157 160 159 160 160 159
 175 176 176 175 177 177 176 177 179 178 177 176 177 179 179 179 178 177 176 176 171  90  81  75  75  75  73  74  74  70  71  60  44  40  40  42  46  49  50  46  42  39  34  31  29  27  26  29  33  34  34  31  29  31  33  36  38  39  38  36  37  35  35  35  33  31  32  31  30  32  29  29  27  28  28  30  30  24  20  24  26  25  20  23  42 150 156 159 158 159 161 158
 175 177 176 175 176 178 178 176 177 178 176 176 179 179 178 177 177 177 176 176 159  82  76  75  74  73  74  73  72  68  60  36  21  19  28  35  39  39  38  38  36  32  28  25  19  13  11  12  19  25  28  28  28  29  32  35  36  40  39  35  38  37  34  34  32  31  30  30  28  28  27  26  26  26  26  30  30  25  16  20  26  29  23  24  48 149 158 160 159 158 159 158
 175 175 177 175 177 178 176 176 176 178 177 176 178 178 177 176 178 178 176 175 146  80  76  74  73  73  76  75  70  64  49  26  15  13  13  23  33  32  33  32  30  28  21  14  10  10  10   9  11  18  23  24  25  27  30  31  33  36  35  34  36  35  34  33  30  28  29  28  26  26  24  25  25  25  26  30  30  27  18  18  22  27  26  25  60 153 158 157 158 158 158 158
 175 175 175 176 176 176 177 177 177 177 176 176 176 176 175 175 178 177 175 174 142  77  72  71  72  73  75  72  68  62  47  25  16  13  12  11  18  29  29  26  26  22  13   9   8   9   9   9  10  15  20  20  22  26  29  30  31  34  34  31  33  33  33  31  29  28  28  27  25  24  24  24  24  25  25  30  29  27  23  19  24  27  27  28  80 153 158 157 157 156 157 156
 175 175 174 176 176 176 177 177 178 176 176 175 176 178 175 176 176 175 176 174 130  75  71  69  70  70  70  68  64  60  51  27  20  14  12  10  10  18  25  24  21  16  11  10   8   9   9  10  12  17  18  18  19  25  29  29  31  33  33  30  33  33  30  30  28  28  27  26  24  24  23  24  24  24  26  30  30  26  24  23  25  30  29  27 120 153 156 156 155 156 156 158
 175 175 176 175 176 176 176 176 177 176 176 176 177 176 176 176 176 176 175 173 127  74  70  67  67  65  65  64  63  59  55  35  23  18  18  15  13  16  25  22  18  16  14  14  11  10  11  14  18  18  17  17  18  24  30  30  31  31  33  29  30  30  29  29  28  26  24  24  22  23  21  23  23  24  26  30  28  26  25  25  26  33  31  44 146 155 157 156 156 156 156 156
 175 175 176 176 175 176 176 176 177 176 175 176 176 175 177 176 176 175 175 174 131  75  70  65  61  60  60  60  60  60  60  49  26  23  26  33  33  30  27  22  18  17  16  18  20  22  22  21  19  17  17  16  18  25  29  30  30  30  30  27  29  28  27  27  26  24  23  22  21  21  20  21  22  24  26  29  27  23  25  24  31  35  32  94 150 155 155 155 155 154 155 155
 175 175 175 177 175 177 175 175 176 177 175 176 175 176 174 174 175 175 174 172 132  76  65  62  60  57  56  58  59  60  63  56  36  26  25  32  37  35  32  32  29  24  20  20  24  24  21  18  17  16  16  17  22  26  29  30  31  30  29  28  28  28  26  24  25  23  23  22  21  19  20  21  23  24  27  29  24  23  31  30  35  33  32 138 154 155 156 155 156 156 155 155
 175 175 174 176 175 175 175 175 177 175 175 175 175 174 174 174 175 175 175 173 136  73  65  61  55  54  56  56  61  66  67  62  51  37  33  33  35  36  39  42  40  34  26  24  23  24  22  20  19  19  21  22  26  30  30  30  30  31  30  26  26  24  24  24  22  22  22  18  19  20  20  22  23  24  27  25  24  27  34  35  31  32  78 149 155 154 155 155 156 157 155 155
 175 174 175 175 175 175 176 176 175 176 175 174 175 174 174 174 174 174 175 174 138  72  63  57  53  53  55  60  64  67  68  67  59  48  41  38  38  38  41  43  45  39  31  26  25  24  22  23  24  25  26  28  29  34  32  31  31  31  28  26  25  23  24  23  22  19  20  19  17  18  18  20  22  23  25  27  23  25  32  35  30  34 131 152 154 154 156 155 154 155 154 155
 174 175 175 175 175 175 176 176 175 176 175 173 174 175 175 175 175 175 174 173 142  69  62  56  54  53  56  61  66  67  69  68  63  49  43  38  39  38  38  40  39  37  33  28  26  25  25  26  25  26  27  28  32  34  34  33  31  30  28  26  24  23  22  20  19  18  18  17  18  18  18  20  20  23  25  26  25  29  30  34  38  84 148 153 155 154 155 154 154 154 154 154
 174 174 173 174 174 175 175 176 175 174 175 175 175 175 175 175 175 174 175 173 154  70  61  56  54  55  58  61  67  69  70  68  58  47  42  39  39  37  37  36  37  36  31  26  25  27  24  26  26  26  29  30  34  35  35  34  32  31  28  26  24  23  22  19  18  17  17  17  17  18  18  20  20  22  24  25  26  31  35  34  48 142 152 154 155 155 154 154 154 155 154 154
 174 175 174 174 174 174 174 174 175 175 175 176 175 175 175 174 175 175 175 173 159  70  60  58  57  59  59  65  67  66  65  60  48  43  42  41  40  36  34  37  35  36  34  27  24  25  25  25  25  26  29  30  33  35  35  34  31  32  29  26  25  24  20  18  17  17  16  16  17  17  17  18  20  22  23  25  24  28  35  38  96 149 154 154 154 154 154 155 154 154 154 155
 174 174 174 174 174 173 175 174 174 174 174 174 174 174 174 174 174 174 174 172 168  72  60  57  60  60  62  64  61  57  57  49  44  43  45  42  37  35  34  36  36  37  38  34  29  26  26  25  25  26  26  27  31  32  33  33  30  30  29  28  24  23  19  18  17  16  16  16  16  17  16  18  19  21  22  26  18  23  27  73 144 153 153 154 153 153 154 154 153 154 153 153
 174 173 173 172 175 174 175 175 173 175 173 174 175 175 175 174 174 173 172 171 169  98  59  59  62  60  57  56  54  52  51  46  47  51  51  51  42  36  37  37  39  42  44  42  36  34  31  28  26  26  24  25  28  29  30  29  29  29  29  26  24  21  18  17  17  17  16  15  16  17  17  18  17  17  22  36 113  96 105 145 147 151 152 153 153 153 153 151 153 153 154 152
 173 174 173 173 174 175 174 174 173 173 174 173 174 174 175 172 173 171 172 171 169 111  59  60  62  54  52  50  47  47  49  51  56  55  54  60  55  50  45  46  48  50  46  39  37  35  33  30  27  26  25  25  26  26  27  25  26  28  26  24  24  23  19  17  17  16  15  15  15  16  16  16  17  20  23  66 142 147 148 150 150 150 151 153 150 153 153 151 153 154 153 151
 171 173 171 172 173 174 173 174 174 174 175 174 174 173 174 173 172 172 172 171 169 126  59  60  63  49  45  43  45  46  49  54  50  46  44  48  54  61  60  53  47  39  33  32  31  31  30  30  30  28  26  25  25  25  25  24  24  24  25  24  23  22  18  17  17  16  15  15  16  16  16  15  17  20  27  84 146 150 150 149 150 152 150 151 153 152 151 152 151 150 151 150
 172 173 171 173 173 173 174 173 173 174 173 173 173 174 172 172 172 173 172 170 169 138  56  60  54  43  40  39  43  50  50  45  39  39  40  38  39  42  44  38  32  31  28  28  28  26  26  26  28  29  27  26  25  24  23  21  22  22  21  21  20  20  18  16  16  16  14  15  15  15  15  15  17  22  27 123 147 149 151 149 150 150 148 149 150 150 151 152 151 151 153 151
 172 172 172 173 172 173 174 174 174 174 174 174 174 173 174 173 171 170 170 170 168 161  66  58  55  39  37  37  42  49  41  36  35  32  32  31  30  32  31  28  26  24  24  24  24  24  23  22  24  24  24  25  24  22  20  18  18  18  18  19  20  18  17  17  16  16  15  15  15  15  15  16  17  23  33 137 149 150 150 149 150 150 149 149 150 149 151 149 149 150 150 150
 172 174 174 174 174 176 176 174 174 174 175 175 175 174 173 173 172 171 171 170 169 163  87  58  54  38  34  31  35  38  32  29  28  24  25  25  25  25  26  24  21  17  18  19  18  17  18  18  18  17  18  20  21  18  16  17  17  17  17  18  18  18  18  17  16  16  16  16  15  16  15  17  19  23  65 140 148 149 150 150 150 149 149 148 150 150 150 149 150 149 150 151
 174 174 175 176 175 176 177 176 177 176 176 175 175 174 173 174 172 171 170 170 167 166 118  56  57  38  32  24  24  26  24  21  21  20  21  22  22  24  24  21  19  16  17  15  15  14  15  14  12  12  13  14  14  15  13  13  15  15  16  17  18  18  17  17  17  15  15  13  13  16  16  17  20  25 123 145 148 150 150 148 148 149 149 148 149 150 149 148 150 150 149 150
 174 176 177 176 177 177 178 177 177 176 177 177 175 175 175 173 172 171 170 169 168 164 140  55  57  39  30  22  17  17  20  21  21  22  24  25  23  20  20  18  19  17  16  13  14  13  13  12  12  12  10  10  10  10  11  11  13  14  15  17  17  18  17  17  15  15  14  14  15  16  17  19  22  44 129 144 148 148 148 148 147 147 149 148 148 148 149 150 149 149 149 148
 176 176 177 177 176 176 177 177 178 177 177 176 176 175 175 173 172 171 170 168 168 165 158  69  59  40  31  26  24  26  32  36  36  37  41  40  37  31  26  24  25  23  22  20  20  19  17  14  13  10  10  10  10   9  11  11  13  13  15  16  16  18  18  16  16  14  15  14  15  15  17  18  22  91 139 144 146 146 147 147 148 148 148 148 148 150 150 149 148 149 149 148
 176 174 176 177 176 177 177 177 176 177 177 176 175 174 173 171 171 171 169 168 168 163 160  94  56  45  33  29  32  44  53  58  59  59  67  60  55  47  50  48  40  35  36  36  33  29  28  24  20  19  16  16  14  13  13  14  14  15  15  14  16  18  17  15  13  15  15  15  15  17  18  20  24 120 142 145 147 149 149 149 148 149 148 149 149 148 149 149 149 149 149 148
 175 175 175 175 176 178 177 178 177 176 174 176 175 174 171 171 172 170 169 167 165 163 160 128  53  51  36  35  38  51  65  68  66  66  73  71  66  56  48  55  54  56  52  44  42  36  34  31  28  25  22  21  17  16  15  15  14  14  15  15  15  17  17  15  15  14  15  15  17  18  18  22  39 133 143 147 148 148 150 149 149 148 149 148 148 147 149 148 150 148 149 149
 174 173 174 176 176 177 176 177 177 176 177 176 174 174 173 172 170 169 168 165 165 163 160 154  66  54  40  37  40  48  59  67  68  70  74  70  63  57  51  59  56  58  57  52  46  38  36  31  28  24  20  19  16  14  13  15  13  13  14  15  16  17  16  15  14  15  14  15  15  17  18  23  59 137 143 142 145 147 149 148 147 148 149 147 147 147 149 149 148 149 147 147
 173 172 173 173 173 175 176 174 173 174 174 176 175 172 171 172 170 168 169 165 162 162 159 156 105  55  44  38  38  41  49  56  61  62  67  62  58  52  49  54  57  58  58  50  42  36  32  28  24  19  16  15  12  12  13  14  14  13  14  14  16  15  16  14  15  14  14  14  15  16  18  27  75 138 142 144 145 146 145 147 148 148 148 148 148 147 147 147 148 149 147 147
 172 172 173 173 174 174 174 174 172 173 172 174 174 171 170 170 170 168 167 164 163 161 159 156 145  60  48  40  38  37  37  39  40  42  45  44  43  40  39  45  51  51  46  42  34  29  24  20  16  13  12  11  11  12  13  14  14  14  13  14  15  15  15  15  16  14  13  15  14  15  20  30  88 137 140 143 143 144 145 145 147 145 145 146 146 146 147 147 147 147 149 147
 172 171 173 172 172 173 173 173 172 172 171 171 172 172 170 170 169 166 163 162 161 159 158 155 151  85  51  39  36  34  29  25  22  21  23  25  25  24  24  29  32  32  29  27  22  17  14  11  10   9   8  10  10  12  13  13  13  13  12  12  14  15  15  15  15  12  14  15  14  18  24  28 101 136 139 141 142 143 145 144 143 145 145 144 144 145 146 144 145 146 146 147
 172 171 172 171 171 171 171 172 172 171 170 171 171 171 167 168 167 165 164 161 160 158 156 154 150 119  53  41  34  31  28  23  18  14  12  11  12  12  12  14  15  15  14  12  10   9   8   8   8   8  10  10   9  11  11  12  13  11  12  12  12  13  14  14  14  13  14  15  14  20  24  25 112 135 136 139 140 141 143 144 143 143 144 144 144 144 145 144 143 144 145 146
 169 170 170 171 170 171 171 171 170 171 170 169 171 169 166 165 166 163 161 160 158 155 155 153 151 140  69  44  35  28  27  26  21  17  14  13  12  12  12  12  12  11  11  10   9   9   9   9   9   9  11   9  10  11  11  11  10  10  11  11  12  13  14  13  12  13  12  13  14  21  24  34 119 132 136 136 138 140 142 142 142 142 142 142 142 144 143 145 145 144 144 145
 166 170 170 169 169 168 169 170 168 171 170 170 168 166 164 164 163 160 159 158 156 154 154 153 151 148 101  49  35  30  26  26  21  19  18  15  14  14  15  14  13  12  12  12  11  11  10  10  10  10  11  10  10  10  10  10  10  10  11  12  11  12  12  12  11  12  12  12  14  22  24  41 122 130 134 134 135 137 138 139 139 141 142 141 142 142 143 142 143 145 145 144
 166 166 168 169 167 167 167 168 164 166 167 165 166 163 162 160 160 158 157 156 154 154 152 150 150 147 131  44  37  30  26  24  23  20  18  17  16  15  16  15  13  14  12  12  12  11  11  10  11  11  11  11  10  10  10  10  10  10  10  11  11  11  12  11  10  11  12  12  16  20  24  50 122 130 132 132 133 136 136 136 138 137 140 139 140 140 141 142 142 142 142 143
 164 166 165 165 165 166 165 165 164 165 164 164 163 162 160 158 157 156 156 155 153 152 152 149 148 147 132  52  37  33  28  27  25  22  20  19  19  18  18  18  16  15  15  14  13  12  12  12  11  11  12  12  11  11  11  11  11  11  11  11  10  10  10  11  12  11  11  14  17  20  25  61 120 126 130 130 133 133 134 134 136 136 138 136 137 138 138 139 140 142 140 141
 163 163 164 163 165 164 163 164 163 163 163 162 160 159 158 156 154 154 154 153 150 150 149 150 147 145 125  56  34  32  30  30  29  27  24  23  22  22  21  22  18  18  18  16  15  14  13  15  16  14  14  14  13  12  12  10  12  10  10  10   9   9  10  10  11  10  11  12  16  20  25  71 120 125 127 127 130 130 132 133 134 134 134 134 136 136 137 137 137 140 140 141
 162 161 161 161 162 161 160 161 161 161 159 158 156 156 156 152 151 152 151 151 150 150 148 148 145 142 114  57  35  29  30  31  30  29  28  27  25  24  24  22  21  20  19  18  17  17  16  19  18  16  17  16  15  15  13  11  12  11   9  10   9  10  10  10   9  10  12  11  15  20  25  73 118 123 123 126 128 128 130 132 132 133 133 133 134 134 136 136 136 139 139 137
 158 158 157 158 158 157 159 158 157 155 155 155 154 154 154 153 151 151 150 149 149 148 147 145 144 142 105  56  40  27  28  31  32  30  30  28  24  23  22  20  19  20  19  17  18  18  19  18  18  18  17  17  15  15  13  11  11  10   8  10   9   9   9   9  10  10  11  11  16  20  26  82 117 121 122 124 125 127 126 128 129 132 131 132 132 133 134 134 134 136 136 136
 155 157 157 156 156 155 155 155 154 154 154 153 152 152 152 150 150 151 149 148 148 146 145 144 144 140  92  54  41  28  29  29  30  29  29  26  24  20  21  19  18  18  19  17  17  19  18  19  18  17  16  15  15  14  12  11  10  10   9   8   9   8   9   9   9   9  12  14  16  20  26  90 118 119 122 123 124 124 124 127 128 128 129 129 130 131 132 133 133 133 134 135
 155 155 155 155 153 154 153 153 152 152 151 152 150 152 150 149 148 147 146 147 144 145 144 143 142 140  82  52  40  29  25  25  27  25  25  24  21  19  18  18  19  18  17  17  14  16  17  15  15  13  14  15  14  14  12  11  10  10   9   9   9   9   8   8   9  10  11  15  17  20  27  97 118 119 120 120 121 121 123 125 126 128 126 126 127 128 130 132 132 132 133 134
 154 154 155 154 153 153 152 152 152 152 150 150 150 149 149 148 146 146 146 144 143 143 142 140 138 134  63  50  42  35  24  21  20  18  19  19  17  17  17  17  17  16  15  14  13  14  14  12  13  11  11  13  13  13  12  10   9   8   8   9   9  10   8   9   8   9  12  16  16  21  25 102 116 117 119 118 120 121 122 123 123 126 125 125 127 128 129 131 130 130 132 134
 152 153 152 152 151 151 152 150 150 150 150 149 148 148 148 146 144 144 144 141 140 131 118  89  67  76  60  47  42  37  27  19  16  14  16  15  14  13  14  14  16  13  13  12  11  12  11  11  10  10   8  10  10  11  10   8   9   8   7   8   9   9   8   9   9   9  12  14  17  20  24 103 113 114 117 116 117 118 120 121 123 123 123 123 125 125 128 127 129 129 130 132
 151 150 150 152 150 149 150 149 149 149 148 148 146 146 146 144 143 140 139 126  76  40  28  32  48  67  55  47  41  36  32  25  16  14  13  13  13  11  12  12  12  12  11  11  11  10  10  10   9   9   8  10   9   9   8   9   8   8   8   9   8   8   8   8  12  11  13  16  17  21  26  51  70  90 112 114 115 116 117 118 120 121 121 123 122 125 125 127 126 127 128 132
 148 150 150 150 148 149 147 147 146 146 144 144 145 144 143 142 140 130  70  24  23  21  27  36  67  60  52  46  41  36  32  30  22  14  12  11  12  11   9   9   9   9   9  10   9  10  10   8   9   9   8   9   8   8   8   6   8   8   7   8   8   8   9   9  11  12  14  16  16  21  25  22  13  14  27  46  52  87 112 116 118 119 120 119 121 123 125 125 125 127 128 130
 148 148 148 148 148 147 146 148 146 147 144 144 144 143 140 119  78  32  24  16  20  31  34  65  63  55  50  46  41  34  30  29  27  21  15  11  10  10   8   8   6   8   8   8   8   7   7   8   9   9   8   7   7   7   6   6   7   6   6   7   9   8   9  11  12  13  14  16  17  21  25  32  22  13  11  14  15  17  34  94 114 117 118 119 120 122 122 123 122 124 126 127
 148 147 148 148 148 147 146 146 147 145 146 143 143 122  73  37  31  20  14  23  31  31  63  61  58  53  47  45  41  37  32  31  28  25  21  15  12   9   9   8   7   7   6   6   7   7   6   7   6   8   6   6   4   6   6   6   7   7   8   8   9   9  10  11  12  12  14  17  16  20  24  29  32  25  14  11  12  12  15  22  81 114 117 117 119 120 121 122 121 123 125 126
 146 145 148 149 148 147 147 148 146 148 144 142  88  31  29  24  20  14  19  32  27  58  62  59  55  52  47  44  41  37  31  32  28  26  25  23  19  18  13  12   9   9   7   7   7   7   5   7   7   6   4   6   7   7   8   7   8   9   9   9   9  11  10  13  15  13  16  16  17  20  23  27  30  31  29  17  11  10  11  14  17  62 111 115 119 117 118 120 120 122 124 125
 144 144 146 147 148 147 145 146 142 142 131  63  31  25  20  20  17  14  26  28  39  63  61  57  53  50  46  44  39  37  34  30  30  27  25  25  22  19  19  17  15  16  15  12  12  11  10   8  10   9   9   9   8   8   9   8   8   9  10  10  10  12  12  13  14  16  17  17  18  21  22  25  28  30  31  30  22  12  12  11  13  17  38 101 116 116 117 118 120 121 122 123
 144 145 145 145 146 146 144 145 143 126  50  31  23  21  19  18  15  16  26  25  51  60  57  54  52  50  48  45  40  37  35  31  28  29  28  25  23  21  20  19  17  17  16  15  16  14  12  12  11  12  11  11   9   9   9   9   9  10  10  10  12  12  12  13  14  16  15  17  18  18  22  24  24  29  30  31  30  23  11  10  10  13  16  21  77 112 115 117 118 120 121 120
 142 142 145 143 144 145 142 142 125  41  29  22  20  19  18  17  16  16  25  26  50  56  56  52  49  48  46  44  40  37  34  31  29  28  27  25  25  22  21  19  17  17  17  16  16  15  13  12  11  12  12  11   9  10   9  10  10   9  11  12  12  13  12  14  15  15  15  17  17  18  21  23  23  25  26  30  30  29  22  12   9  10  12  14  17  44 107 115 117 118 119 120
 140 142 143 144 141 140 136  92  31  27  24  20  20  18  16  17  14  15  24  26  50  53  56  52  49  47  46  45  40  39  36  32  30  30  27  26  25  23  21  20  18  18  17  17  15  15  13  13  13  12  12  11  10  10   9   9  10  10  11  13  14  14  14  15  16  15  16  17  17  18  22  21  24  25  25  27  29  29  26  20  11  10  11  12  14  17  35  95 115 117 119 119
