P2
# Generated by OpenCV 3.4.0
92 112
255
  38  37  36  31  30  29  28  31  28  27  27  28  28  25  25  24  24  23  24  23  20  20  20  19  19  20  24  26  27  28  27  25  24  23  22  20  21  22  24  26  26  29  30  36  39  41  44  46  47  48  48  46  45  43  34  30  29  28  30  30  32  34  33  33  34  36  38  34  32  33  34  34  37  41  39  40  41  36  40  44  51 101 173 179 181 181 181 182 182 181 182 182
  40  38  34  31  30  31  30  29  28  28  27  28  28  23  24  24  25  24  21  24  24  21  21  20  22  22  24  24  24  22  23  22  22  22  23  22  21  24  26  29  30  31  36  44  47  49  51  54  54  54  54  52  51  46  39  31  29  29  28  28  29  31  34  32  32  35  37  33  36  37  39  39  38  38  38  39  38  41  48  39  41  62 140 177 182 182 182 183 183 182 182 183
  39  38  35  33  32  30  29  29  28  28  28  29  28  26  25  24  22  23  20  20  20  21  22  21  23  22  22  21  21  21  21  22  24  25  25  27  28  32  32  34  35  38  44  50  55  59  61  62  64  65  61  60  55  51  49  41  33  30  29  28  29  30  33  35  39  43  35  37  37  38  38  40  38  37  36  37  40  41  40  31  34  51 112 176 181 183 183 183 184 183 182 182
  34  36  32  29  30  30  30  30  28  30  29  28  24  24  24  23  22  23  22  24  22  22  21  24  25  23  23  23  22  20  20  21  23  26  31  31  31  32  36  41  47  50  56  60  65  73  75  79  81  82  82  77  68  63  55  48  44  36  34  33  34  33  33  36  40  35  35  40  40  39  42  40  38  36  35  35  37  35  31  27  30  42  74 142 174 182 183 182 183 183 183 183
  30  31  29  28  29  28  27  28  30  30  25  23  22  20  20  20  20  23  26  25  22  21  20  20  18  18  17  19  20  23  23  24  28  30  32  33  37  40  47  52  57  65  72  75  78  84  88  96  97 100  99  95  88  82  74  67  57  50  45  44  38  33  32  31  29  30  36  41  41  39  43  37  35  37  37  38  37  29  26  26  29  38  61 124 166 181 182 183 184 184 183 184
  30  30  29  30  30  28  28  29  27  25  23  21  21  23  22  22  24  23  23  21  20  19  20  19  17  17  19  23  24  25  26  29  30  31  34  38  46  54  55  64  70  77  81  84  87  94  98 101 103 107 106 103  97  93  87  83  76  64  57  49  41  35  30  28  31  30  31  36  32  35  36  35  34  36  37  42  37  34  32  35  40  46  69  95 144 178 182 183 184 183 184 185
  34  33  32  30  28  28  29  26  23  23  23  24  24  22  19  21  22  21  19  20  20  21  20  16  16  19  23  26  28  29  30  31  34  36  41  46  53  62  62  70  78  84  86  89  93  99 103 107 106 107 107 107 105 100  95  92  84  76  70  62  51  39  32  30  29  27  32  33  35  33  26  25  29  32  36  37  38  38  35  37  43  46  52  56  82 162 180 183 183 183 183 184
  33  32  30  28  28  28  25  24  23  23  24  23  23  20  20  20  19  18  19  19  22  21  19  19  20  22  27  30  30  30  32  35  39  43  50  53  59  63  66  73  82  86  86  89  96 101 105 108 108 106 106 108 108 106 106 102  97  90  84  70  53  38  33  30  30  31  33  38  39  26  25  30  35  36  36  34  38  37  34  33  39  40  40  41  55 116 177 183 182 182 184 185
  34  30  30  30  28  27  25  24  24  24  23  21  20  21  21  19  21  20  19  19  19  21  22  24  26  28  30  32  33  34  37  43  45  50  54  60  63  66  70  79  87  88  90  92  97 103 105 105 104 106 108 109 112 112 112 110 106  98  92  76  55  44  36  33  30  29  38  50  39  33  28  28  33  33  35  34  41  34  30  32  36  41  34  32  45  84 172 180 183 185 185 186
  35  33  34  32  29  26  26  25  24  24  23  20  20  23  23  23  22  24  24  23  22  23  26  29  28  31  34  36  39  40  46  46  51  57  61  64  69  71  77  84  89  90  91  92  99 102 104 104 105 106 109 112 113 113 117 114 111 103  92  78  64  52  42  36  33  36  44  42  38  38  33  30  29  37  38  36  35  30  28  35  39  42  32  32  42  84 165 181 184 183 185 184
  40  53  39  31  26  25  25  24  24  23  23  23  24  24  24  24  24  27  24  26  26  27  28  30  31  35  38  40  42  44  49  52  58  63  67  71  73  76  80  84  86  88  90  94 100 102 102 102 104 107 108 112 115 117 118 116 112 110 101  86  72  60  46  39  37  38  42  35  39  35  36  36  34  46  36  36  33  31  29  34  34  35  34  38  44  64 156 178 184 186 185 184
  46  55  37  30  27  24  24  24  24  24  25  26  25  25  26  28  28  28  27  29  29  30  31  33  35  37  42  44  47  51  53  58  64  68  72  75  78  79  81  84  87  88  89  94  98 101 101 104 104 107 109 115 116 116 116 114 115 111 104  98  85  66  54  45  39  39  32  35  36  31  38  37  38  45  34  28  33  34  30  32  27  26  36  40  40  47 116 173 185 187 186 186
  51  45  34  31  28  27  25  23  24  27  27  28  27  28  29  28  28  29  30  30  31  33  35  37  39  42  46  49  51  53  57  64  67  71  73  75  80  81  84  83  87  92  95  95  97  98 101 102 105 108 109 111 114 117 117 117 116 113 108  99  86  69  58  48  44  37  33  35  33  31  36  35  37  45  40  28  34  30  30  32  28  28  38  43  38  47  92 171 183 186 186 185
  48  40  34  29  28  26  25  24  27  30  28  28  28  30  29  30  30  31  32  33  34  36  37  39  44  45  48  51  55  58  63  66  69  72  75  79  81  82  87  89  89  93  98  97  98 101 102 104 107 109 111 113 114 114 113 118 116 113 107  96  83  70  57  48  42  36  36  34  30  29  34  30  36  37  45  34  33  31  33  35  29  34  41  38  31  44  80 168 182 184 186 186
  54  37  33  29  28  28  27  30  30  31  30  31  31  30  31  32  33  34  34  36  38  40  40  44  45  48  50  52  57  61  66  69  73  74  78  81  82  85  89  91  95  98  97  98  98  99 104 107 110 111 112 115 113 112 111 112 113 112 104  95  85  71  61  51  42  35  34  32  28  30  33  27  34  35  40  38  40  32  36  38  30  38  37  34  32  42  61 136 180 185 185 185
  54  36  35  31  30  27  28  32  34  33  32  33  32  33  34  34  36  35  37  40  41  42  45  49  50  51  54  58  63  65  69  72  74  78  81  84  85  89  91  93  98 101 101  99 101 103 107 109 110 109 111 114 113 111 111 111 111 108 102  92  85  70  62  53  44  35  35  33  27  30  31  28  30  34  37  42  42  34  37  41  33  42  39  38  36  40  55 109 164 183 186 186
  54  40  37  33  29  29  31  38  40  35  34  36  35  35  36  39  40  40  42  42  43  47  51  52  53  56  60  64  66  68  74  76  79  81  82  87  90  92  93  96  98 101 102 101 104 107 106 109 110 110 110 110 108 109 111 111 110 103  97  89  76  69  61  51  43  38  35  33  28  28  31  26  29  33  36  41  39  36  37  40  37  44  45  41  40  42  48  94 158 181 186 184
  54  44  39  34  33  31  32  42  39  39  38  39  39  40  40  40  42  41  44  46  49  50  54  56  58  59  64  67  69  72  75  78  83  83  86  90  96  96 100 101 101 103 104 106 105 107 110 111 111 113 112 110 109 107 109 110 107 103  94  88  72  65  57  49  43  39  36  34  30  26  29  28  29  34  38  45  37  40  36  40  40  44  45  44  44  46  47  95 172 183 186 185
  57  47  44  37  38  34  37  45  42  42  40  41  41  44  44  44  46  46  48  49  50  53  58  59  62  64  67  70  72  76  80  82  85  88  90  94  97 102 100 100 104 106 108 108 109 109 109 112 112 110 109 108 105 105 107 106 102  98  91  85  74  65  54  48  40  37  35  32  31  28  25  30  28  32  36  43  37  37  37  43  45  42  42  45  48  50  50  67 160 182 186 184
  62  54  52  41  40  36  42  48  45  43  43  42  44  45  47  48  48  50  52  53  54  58  60  63  67  70  74  76  78  81  85  85  90  94  96  99 100 102 104 106 107 110 112 109 109 110 111 112 110 108 108 105 105 105 106 106 100  95  89  80  72  63  51  42  37  33  35  35  33  30  24  31  27  31  36  39  36  36  38  42  41  39  37  46  51  51  53  60 128 177 185 185
  84  70  61  49  47  39  48  48  47  46  46  47  46  49  47  50  50  53  56  59  60  62  66  69  73  75  78  79  81  83  85  89  95  96  99 102 104 105 106 109 111 112 114 111 114 114 112 110 110 108 106 104 104 106 104 105 100  93  90  76  68  59  50  40  34  31  33  34  33  29  26  29  30  32  36  33  33  37  38  40  39  38  36  45  48  53  53  61 112 171 183 184
 122  79  73  59  60  47  55  51  49  46  49  49  48  51  53  52  56  58  59  62  64  67  69  74  77  78  80  81  84  88  88  92  97  97 100 105 108 107 110 113 113 111 113 114 113 112 109 108 108 107 109 105 103 105 102 101  99  92  84  73  64  58  49  39  31  30  29  31  32  29  26  26  30  34  35  35  32  35  36  40  40  39  35  42  47  46  52  57 111 174 182 185
 137 110  83  63  64  59  61  57  54  52  52  53  54  55  56  55  59  61  62  64  68  72  75  78  81  84  85  86  90  92  94  97  99 100 104 107 108 110 111 116 117 117 116 114 113 110 110 109 107 106 106 106 103 101  98  99  95  92  85  71  64  55  49  42  33  29  28  28  32  33  27  24  27  36  35  34  32  36  35  37  38  37  35  39  41  39  48  54  87 167 181 183
 156 154  94  67  73  80  66  61  58  57  56  59  59  58  60  61  65  64  67  69  74  78  82  84  85  88  89  92  94  97 100 101 103 106 107 108 111 114 116 113 116 117 115 115 114 109 112 110 107 105 103 104 106 105 101  97  93  92  88  77  66  56  47  41  34  31  30  29  28  32  28  26  26  34  35  34  32  33  36  39  37  37  37  38  40  41  49  53 106 167 182 184
 173 164 131  73  85  98  72  68  64  62  62  62  62  63  64  65  67  69  74  79  81  85  87  88  89  92  91  95  98  99 100 103 106 107 107 110 115 116 116 116 116 114 111 112 112 110 114 110 106 105 105 104 103 103 101  97  95  90  86  79  69  56  48  41  36  32  27  28  27  29  27  27  30  34  33  34  33  33  36  40  35  38  37  37  41  42  47  52  95 161 182 185
 179 174 148 114 115 108  80  76  71  67  67  67  69  70  69  72  75  80  84  87  86  87  88  89  91  94  95  96  97 101 102 107 107 109 107 109 111 113 115 115 115 115 113 113 114 109 113 112 109 106 105 105 104 104 104 100 100  95  89  82  73  62  53  47  41  34  30  26  26  27  26  27  33  33  31  33  34  33  37  41  38  40  37  39  43  41  48  53  93 168 181 183
 178 172 150 140 130 127  89  82  79  75  76  75  75  76  76  80  82  85  88  90  89  87  88  89  89  94  97  98 100 102 104 104 105 104 106 105 107 109 109 107 109 109 111 111 112 110 111 111 112 109 105 106 105 105 108 106 104 101  99  90  82  73  61  53  44  36  30  29  24  27  25  27  32  32  28  33  35  32  37  43  41  40  41  40  46  43  49  54  96 167 180 184
 174 172 149 144 134 139  95  88  85  84  83  82  81  81  83  83  85  87  90  92  91  91  92  91  89  96  97  96  99 100 101 100 103 101  99  98 100 101 102 101 102 105 107 108 108 108 109 109 110 109 105 107 107 107 106 106 109 106 101  97  91  84  74  63  52  42  32  28  27  26  26  26  28  30  27  32  33  29  33  39  39  38  38  40  46  46  47  56 103 167 180 182
 178 175 166 170 142 146 100  94  90  89  87  86  86  86  86  87  87  89  88  90  91  90  91  91  90  92  92  94  94  95  97  97  97  94  92  93  95  92  94  94  94  97  98  95  99 102 104 106 109 109 110 109 111 110 109 109 110 110 106 103  99  96  88  78  65  54  44  31  30  28  25  26  25  26  28  29  33  30  32  38  39  32  38  45  44  42  47  55 103 168 182 183
 181 180 180 176 156 155 105  97  95  92  88  88  88  88  87  88  88  89  89  89  89  90  89  89  88  87  89  89  89  92  92  90  85  85  89  88  87  84  85  85  85  83  87  88  87  91  95 100 104 103 106 110 110 112 113 109 111 113 108 110 107 105  99  95  85  73  63  44  37  31  26  26  25  25  30  31  31  29  33  36  41  33  37  39  43  43  47  54 100 159 179 183
 180 182 182 175 162 155 108  99  96  93  89  87  89  90  87  88  87  87  88  89  88  89  88  87  87  85  85  85  83  85  84  81  80  80  78  76  76  76  73  71  73  74  72  78  79  80  80  82  86  91  95 106 112 115 115 112 114 114 112 111 111 108 108 106 100  91  82  63  48  38  29  31  25  25  29  30  30  31  29  36  40  34  37  38  41  46  47  56 104 161 179 182
 181 182 182 173 163 165 108  97  92  90  89  89  87  88  88  86  86  86  86  87  86  87  86  84  83  80  79  79  77  76  73  68  68  68  67  63  59  59  63  63  61  59  58  58  59  63  63  67  71  78  86  97 108 113 116 117 116 115 113 113 112 112 112 110 110 108 103  87  64  45  30  32  29  25  28  32  34  34  30  32  37  36  37  40  42  45  48  57 104 167 181 184
 182 180 181 175 176 172 114  95  89  88  87  87  84  85  86  83  84  85  84  83  85  86  83  81  81  78  76  69  66  66  61  58  56  53  51  46  44  42  46  49  46  40  42  44  47  46  48  51  58  59  70  81  92 107 116 116 117 118 118 115 115 114 115 116 116 117 116 108  82  55  39  34  37  28  27  34  37  36  28  30  35  35  38  40  45  44  48  60 109 170 184 184
 181 182 181 175 182 178 112  88  85  85  82  83  79  79  78  78  79  78  78  80  81  81  79  77  75  68  70  60  54  48  46  42  38  35  31  30  30  30  30  32  32  31  31  34  35  37  37  37  40  44  50  58  67  84 103 115 116 115 119 119 116 118 120 119 119 119 120 113 100  67  49  38  36  35  26  32  38  35  28  27  33  38  38  40  44  43  44  59 130 168 183 185
 182 182 180 177 182 178  96  77  73  75  72  70  68  68  67  69  70  70  73  78  81  78  75  70  69  64  61  51  44  35  29  26  28  25  24  24  23  24  25  25  26  28  28  28  27  28  29  28  29  30  36  43  48  61  76  94 108 115 120 119 118 122 121 121 123 122 123 122 112  83  61  43  40  39  28  32  34  34  28  28  33  36  39  39  44  42  47  62 147 175 182 184
 182 183 180 180 181 180  77  58  54  52  51  49  52  50  51  56  60  63  68  73  78  75  70  65  62  57  54  45  38  31  26  25  24  25  23  21  22  21  22  23  22  23  24  24  25  26  26  25  26  27  30  33  37  41  50  67  87  99 112 118 120 125 124 123 125 124 123 127 119  95  69  46  37  39  35  32  32  33  30  29  31  35  38  39  41  42  51  81 169 181 183 186
 181 181 180 183 182 163  58  47  44  41  38  37  35  36  38  45  51  57  61  68  76  74  69  64  56  53  49  40  34  32  29  27  24  25  26  24  24  24  25  27  29  30  31  32  32  31  30  30  29  29  31  33  35  37  45  56  72  88 102 110 116 122 126 124 124 129 130 127 125 105  73  49  38  35  38  32  33  34  32  31  29  32  34  37  42  43  56  97 172 182 184 186
 182 182 183 183 182 148  53  42  38  34  33  30  30  29  30  32  38  44  52  62  70  72  68  62  56  49  44  40  34  36  30  31  29  30  30  30  30  31  35  35  37  37  39  40  40  40  40  38  37  38  38  39  41  43  50  58  70  81  86  96 107 117 120 126 126 128 132 131 134 115  82  52  40  35  36  34  34  36  31  29  28  30  34  33  39  45  62 116 170 182 183 186
 182 183 184 182 180 151  52  41  34  31  35  29  27  24  28  29  34  39  48  57  66  69  67  63  56  51  49  41  38  37  34  35  35  36  36  33  31  30  32  31  32  33  36  37  39  41  41  43  44  45  46  47  50  54  60  66  73  82  85  92 100 110 117 127 127 126 134 138 136 126  92  62  41  36  32  33  35  38  36  29  30  31  34  37  54  86 124 149 170 180 183 187
 183 183 182 182 181 179  68  43  39  40  42  40  37  37  35  35  39  42  47  54  65  72  71  67  59  55  50  44  41  38  37  39  38  36  35  31  26  24  22  21  23  30  34  35  34  34  35  36  38  41  45  49  52  55  60  67  73  80  86  92  97 106 113 121 128 130 134 138 139 131 102  70  43  36  32  32  38  37  37  32  31  30  36  44  74 100 106 103 120 152 180 186
 183 184 184 182 183 181 113  57  57  53  48  43  42  40  39  40  44  46  48  51  64  80  81  78  68  61  52  46  42  41  38  37  38  36  34  27  25  24  19  18  21  34  57  60  53  42  36  35  33  34  34  38  48  53  59  67  73  79  85  92  97 105 113 118 126 131 137 138 135 133 113  83  55  37  34  33  38  38  35  35  34  35  40  49  71  71  52  53  59  91 170 184
 184 184 184 184 184 182 171  89  71  54  44  38  36  35  38  38  36  40  45  48  60  88  91  89  81  70  59  49  44  40  41  40  38  36  32  29  28  25  20  21  24  32  57  78  73  66  52  46  40  36  33  34  34  44  53  62  70  75  82  90  93 103 112 119 124 131 139 140 142 139 123 103  67  42  33  34  39  38  35  36  40  48  61  66  68  71  58  51  52  72 148 183
 184 184 184 184 185 184 175 136  82  48  36  32  27  25  32  39  41  39  38  44  54  96 102 101  89  80  67  54  46  42  42  41  42  40  38  32  26  25  23  25  22  33  58  84  79  73  65  59  52  42  39  38  38  40  46  54  64  70  78  90  93 106 112 118 126 130 138 141 145 145 129 111  84  52  36  36  40  38  41  37  42  59  65  61  78  99  82  57  53  69 139 181
 184 186 184 184 185 185 178 157 107  53  41  43  28  25  37  56  57  54  48  42  47 101 109 106  97  86  73  59  48  47  46  45  46  48  42  30  30  27  26  25  25  29  55  78  77  71  65  59  55  54  57  52  50  48  50  56  62  73  81  92  98 107 114 119 124 127 135 142 148 145 134 116  91  64  43  35  39  39  48  44  52  63  55  64  88 122 110  69  57  71 136 180
 184 185 186 185 185 186 185 181 161  80  52  51  39  27  36  67  75  71  59  49  47 107 117 113 101  89  75  63  55  53  53  51  52  54  45  33  31  31  31  26  26  32  65  74  74  72  69  67  63  71  72  70  72  71  67  69  75  83  88  96 101 107 112 117 125 130 135 138 144 148 140 118 101  75  51  40  41  46  59  68  76  56  57  75 102 136 126  84  61  75 135 181
 184 185 185 185 186 186 185 182 171 125  71  58  48  32  43  74  81  76  64  50  59 118 122 117 101  87  79  72  66  61  59  56  58  58  51  48  45  43  47  45  43  59  70  70  66  69  66  68  69  73  75  80  85  87  85  88  90  92  97 103 106 109 114 120 123 131 134 140 143 148 144 124 105  84  57  47  43  54  65  89  92  80  84 102 117 147 132  92  65  77 133 180
 183 185 185 186 186 187 186 184 180 137  85  73  67  41  54  75  75  68  61  55  84 124 123 113 100  88  80  77  75  73  67  63  63  65  61  56  50  49  52  56  60  62  63  62  57  59  63  64  69  74  81  86  90  95  95  99 101 102 103 109 111 112 117 121 125 131 135 138 143 145 141 122 105  84  60  48  50  65  85  82  77  95 116 122 130 157 137  93  74  82 127 178
 184 185 185 185 186 186 186 185 183 143 100  87  80  65  63  64  63  60  56  58 113 127 123 109  98  86  82  81  81  83  80  74  70  70  68  62  56  53  54  57  60  57  57  61  61  60  63  65  70  78  84  90  94  98 100 105 108 109 112 114 114 116 122 125 128 130 133 136 141 142 137 120  98  80  60  54  64  89 104  60  46  63  88 106 124 156 143  94  86  86 125 176
 185 185 184 185 185 186 185 185 182 144 111  95  78  64  61  61  59  55  53  66 127 127 122 108  99  89  86  84  84  87  88  88  88  82  79  70  64  60  56  56  60  60  61  63  64  63  63  66  72  80  89  94  99 105 107 111 113 115 116 116 118 121 123 125 127 133 134 134 137 138 135 122  97  79  62  60  78 128 112  53  44  50  65  87 108 144 146  94  89  87 123 172
 184 185 186 185 185 186 185 186 182 143 117 102  92  80  71  64  60  58  56  91 128 129 120 107  97  92  90  88  88  89  91  95  97  97  96  91  78  70  64  63  62  62  63  63  65  67  68  73  78  83  92  99 104 109 113 118 120 120 119 120 121 122 124 127 126 129 131 132 132 135 133 120 100  79  68  61  88 138 146  61  45  49  66  80  98 124 142  94  90  92 125 172
 185 185 186 183 185 186 185 186 181 140 120 113 104  90  76  67  63  60  63 109 131 129 116 105 100  96  94  92  90  90  94  97 100 101 106 106  97  84  76  73  72  72  72  73  74  77  81  85  91  94 100 106 111 114 119 121 122 119 118 121 122 121 124 125 129 128 132 134 132 129 126 121  95  80  70  55  91 136 154  90  50  50  68  81  94 119 145  96  90  97 130 177
 186 186 186 186 186 186 185 185 180 137 120 117 111  99  86  78  73  72  77 119 129 125 112 104 100  99  98  96  93  92  94  98 100 101 107 110 107 100  91  85  80  80  83  85  88  90  93  97 102 105 109 112 116 118 120 122 121 118 116 117 121 121 123 125 129 133 127 129 127 126 123 110  86  77  70  60  98 133 145  98  57  53  64  79  97 117 145 104  96 103 137 179
 183 185 186 187 186 186 185 184 177 133 119 118 115 104  96  89  86  84  90 120 125 123 111 105  98  99  99  98  96  95  97  99 101 101 104 109 110 110 105  97  91  88  88  90  93  96  98 103 105 110 113 117 118 117 120 119 120 117 116 112 117 119 121 121 124 126 126 127 127 127 121 100  75  67  68  63 103 127 134  87  66  60  66  78  93 115 144 109 102 110 158 182
 186 186 186 186 186 187 186 185 173 128 121 117 114 107 102  97  94  94 106 123 126 119 111 107 107 107 103 100  97  95  95  97  97 100 103 106 111 114 116 111 104 100  98  99  98 102 105 105 107 111 114 116 114 115 117 114 113 113 114 113 116 116 118 120 122 123 124 126 126 124 119  95  71  68  75  65 120 127 104  81  88  74  75  80  91 114 140 112 112 133 175 182
 185 185 184 186 187 186 186 185 166 128 122 117 114 108 106 103 104 109 118 122 125 118 111 110 112 111 105 100  99  98  93  94  95  97  99 103 107 111 116 117 115 111 108 106 106 106 107 110 109 112 111 112 110 111 109 110 108 109 111 112 113 113 113 113 117 116 117 121 124 121 113  94  69  68  80  72 119 123  80  81  96  86  84  86  95 114 132 112 122 164 180 183
 182 184 184 185 186 186 186 185 163 125 119 118 116 113 112 111 115 117 120 122 124 118 111 112 114 112 107 104 100  97  93  92  93  95  97  99 104 107 110 112 116 117 115 112 109 109 111 112 109 108 107 107 104 102 104 103 104 105 108 108 108 109 110 111 114 115 114 114 117 117 109  90  65  66  73  61 118 108  82  88 102  94  89  94 109 124 122 118 145 177 182 182
 183 183 184 185 185 186 186 184 162 124 118 118 117 118 118 117 117 118 121 124 123 118 113 113 116 117 110 105  98  96  93  90  88  94  96 100 103 104 104 109 111 116 114 113 112 110 111 109 106 103 100 103 102 100  99  99 102 102 104 104 106 107 107 108 109 110 111 113 114 112 103  86  70  66  61  65 121 108 101 103 129 140 120 108 119 117 113 135 169 179 182 182
 182 181 183 184 183 185 186 185 166 121 120 118 116 118 119 116 117 118 123 126 125 122 116 115 116 114 113 105  99  92  91  89  86  88  93  99 100 101 103 104 109 112 111 113 112 110 108 104 103  99  94  93  96  96  95  95  98  97  97  98 103 104 104 104 106 109 110 112 115 109  98  83  71  70  62  70 119 117 117 120 141 153 121  98  93 101 126 164 175 178 181 183
 182 183 182 184 185 183 185 183 173 122 116 114 114 116 116 116 115 119 125 125 123 122 120 116 118 118 113 101  93  88  84  83  85  87  93  96  98 100 103 104 106 109 110 110 112 108 104 100  98  96  91  90  93  93  92  92  93  92  92  93  98 100  98 101 105 105 109 111 111 106  93  77  66  70  62  77  97  88  99 105 121 138 110  95 101 117 154 175 178 177 179 181
 180 181 182 182 183 184 184 183 178 129 115 112 112 112 113 113 114 124 127 128 126 122 120 119 121 120 112 102  88  81  77  77  81  84  89  92  96  98 102 103 104 107 106 102 102 103 100  97  92  93  90  89  91  91  88  87  91  91  91  92  94  93  95  98 101 101 106 106 109  98  88  73  72  67  61  84  86  79  88 107 132 144 128 117 118 145 172 176 178 178 177 179
 181 182 182 182 183 183 183 182 179 139 114 110 112 112 114 115 120 126 126 124 125 124 123 122 120 120 112 105  92  81  70  69  72  79  86  90  93  95 100 102 104 104 105 101  99  97  95  96  94  93  92  91  91  89  86  88  91  90  90  89  92  94  96  97 100 100 102 103 102  94  78  72  65  63  66  78  96  98  96 119 139 151 148 131 143 170 174 176 176 175 177 177
 180 181 181 182 182 182 183 181 178 150 115 109 111 114 115 117 125 126 121 122 125 126 122 123 122 124 117 111 101  91  73  64  65  73  81  88  91  94  97 102 104 103 103 100  98  94  95  95  93  90  91  90  89  88  87  86  86  88  88  88  90  92  93  99  99  99 100  99  90  80  73  70  62  60  70  73  98 111 107 114 135 146 145 150 168 174 175 175 176 176 177 177
 180 180 180 180 181 182 183 180 180 164 117 110 110 111 115 120 121 116 115 122 126 125 122 120 120 130 130 116 109 101  88  68  61  65  77  85  89  95  97  98 103 102 101 100  98  96  97  96  92  90  92  91  89  88  86  87  87  89  88  88  90  92  94  97  97  98 100  96  82  74  70  61  55  55  66  68  90 109 109 109 120 130 148 167 171 174 174 174 175 174 176 176
 180 180 180 182 181 181 181 182 180 174 125 111 110 109 113 119 115 110 110 117 121 119 118 115 114 120 126 117 116 115 104  83  61  60  69  80  87  91  95  96  99 101 101 102 101  96  97  97  93  90  89  91  90  91  89  90  88  89  87  87  88  91  94  94  96  96  95  90  87  76  70  56  54  55  62  64  78  94  99 102 110 136 165 171 172 172 174 173 173 174 174 175
 180 180 180 180 181 182 181 182 182 178 145 113 109 110 110 112 109 105 105 106 109 108 105 101  97  96 101 107 114 119 114  99  67  61  68  76  85  89  94  95  99 102 105 106 103  96  93  92  92  92  92  90  88  91  90  91  89  89  88  89  91  91  91  94  93  92  90  91  83  74  68  60  55  56  64  66  67  73  79  93 132 165 169 172 174 172 173 173 174 174 174 174
 180 180 181 181 182 181 180 181 182 180 162 116 109 110 109 102  95  94  94  94  98  94  88  81  75  77  78  83  91  96  98  96  74  60  70  80  84  88  88  91  98 100 103 102 102  99  98  93  93  93  90  92  91  88  88  90  92  93  89  90  92  91  91  88  89  89  85  83  72  73  61  53  55  55  70 106  74  90 120 153 164 168 169 171 170 171 171 172 173 173 174 174
 179 180 180 180 181 180 180 182 182 181 172 121 111 109 105 101  89  82  84  83  80  77  73  67  56  42  37  35  39  54  67  73  62  59  76  84  87  88  89  94  97  98  99 101 101 101  97  95  94  93  92  93  94  92  90  91  93  94  91  92  92  92  90  79  85  86  77  78  72  72  57  49  54  60  82 100  83 134 157 165 168 169 169 169 169 170 170 169 172 171 174 174
 180 180 180 180 181 181 180 180 181 180 174 133 115 110 106 100  93  74  69  68  62  63  62  50  36  33  32  25  19  30  44  52  48  61  81  88  91  90  93  95  96  98  98  99 100  99  98  97  96  95  93  93  93  92  93  91  93  94  90  89  89  89  83  79  83  74  69  70  70  68  57  55  52  61  96 103 120 157 163 166 169 167 168 169 170 170 169 170 170 169 171 171
 178 178 180 180 180 180 180 178 181 179 175 144 113 109 104 100  94  86  73  61  54  57  56  49  47  49  49  42  39  42  44  42  48  72  90  96  97  96  95  94  96  97  98  97  99  98  98  97  96  96  91  93  93  94  92  93  94  93  92  90  87  86  84  75  75  71  59  61  67  68  62  56  53  62 106 114 156 164 168 167 167 167 168 167 167 167 169 170 168 167 170 169
 177 177 178 177 179 178 180 180 181 181 173 147 114 109 104  99  94  90  94  89  77  61  55  48  45  48  47  46  48  51  48  49  65  82  94  96  98  99  97  95  96  97  98  98 100  98  98  97  96  98  94  93  95  93  94  92  92  90  90  92  85  84  83  76  69  64  52  54  60  66  64  54  55  72 110 121 160 166 167 167 167 167 168 166 168 167 167 168 168 168 170 168
 176 176 178 178 178 177 178 180 180 177 173 153 116 108 104  98  94  95  97  88  69  54  50  47  47  44  38  38  43  51  54  60  72  86  94  97 100 101  99  98  97  97  99 100 100 101  97  98  95  95  99  97  95  93  96  92  93  88  84  86  83  77  73  73  70  59  54  58  67  69  59  52  52  65 112 121 159 166 165 166 166 165 165 166 165 168 168 168 166 167 167 168
 174 176 176 178 175 177 178 179 177 176 173 159 117 107 104  99  97  99  95  77  55  47  46  45  44  41  33  35  37  47  51  60  72  83  90  95  99 101 100  98 100  99  99  99 100 100  98  95  98  98  96  98  98  95  94  90  92  90  83  76  76  72  64  69  65  59  58  65  67  61  52  50  52  71 109 127 160 166 166 164 165 165 166 165 165 167 167 167 167 167 168 167
 174 176 174 176 176 175 176 177 179 176 175 166 122 106 102  98  96  90  79  57  50  49  47  46  44  39  33  33  33  39  39  49  63  74  81  87  94  96  96  98  98  99 101  99  98  98  96  95  95  93  95  95  95  94  93  90  90  86  81  74  73  68  65  68  58  58  60  67  69  57  51  49  53  77 110 128 155 161 165 165 165 163 163 164 165 163 164 166 166 167 165 166
 174 174 176 175 175 176 176 175 176 176 175 169 132 106 101  93  83  71  57  47  44  44  52  48  44  38  35  35  33  37  33  38  50  58  71  75  84  88  91  92  95  97  96  94  95  94  94  93  93  91  90  94  95  93  94  92  85  78  75  73  73  68  67  68  60  63  68  64  66  54  52  48  51  88 118 134 160 163 164 163 162 162 163 164 165 163 162 165 167 166 164 165
 172 172 174 173 173 175 175 175 176 176 175 172 143 106  95  80  66  54  44  40  39  47  49  48  46  44  39  35  33  32  30  36  41  45  59  62  73  77  80  84  86  92  93  91  90  92  92  92  90  90  89  93  93  91  88  86  82  73  69  69  71  66  61  67  64  62  68  65  60  54  50  48  60 108 122 138 159 162 164 162 162 162 163 163 163 164 163 162 163 163 163 165
 171 172 172 172 173 174 174 174 174 176 174 173 144 105  92  70  56  47  41  35  37  46  50  53  54  49  42  38  31  34  33  34  35  37  45  49  57  64  64  68  75  78  88  88  87  88  90  90  89  89  88  89  89  87  82  75  72  64  62  65  62  56  59  67  62  58  61  65  63  56  46  54  78 115 125 143 160 162 162 162 161 162 161 162 162 162 161 161 158 159 160 160
 172 172 172 172 173 174 174 175 174 175 174 172 152  95  80  58  49  45  41  37  41  48  58  58  61  56  46  42  37  40  34  36  36  37  41  47  47  52  49  56  61  66  75  84  84  84  86  85  85  86  86  87  81  80  74  68  62  57  56  62  61  57  62  66  58  53  55  58  53  52  47  59  90 118 125 142 158 160 162 160 161 162 160 159 159 160 161 160 160 158 158 160
 171 172 171 172 173 171 172 173 174 173 174 173 167 112  78  54  48  43  42  44  48  58  69  71  76  67  50  44  43  43  42  43  37  42  44  42  43  48  42  52  50  54  60  72  79  82  82  80  83  82  80  84  77  72  66  60  55  51  53  56  55  61  65  62  55  53  53  54  49  49  46  59 101 123 124 140 156 158 161 160 160 160 160 158 160 160 160 159 158 159 159 158
 170 170 171 171 171 172 171 173 173 172 172 173 170 137  78  60  44  44  47  48  50  49  58  65  74  62  46  42  43  44  46  44  42  45  44  44  43  46  42  44  46  47  49  60  68  75  77  75  78  79  78  77  73  68  59  56  54  50  54  53  50  59  59  59  55  53  52  50  44  45  46  76 108 123 126 143 156 158 159 159 158 157 158 157 156 157 157 155 155 158 157 157
 170 171 169 171 171 171 171 171 172 172 171 172 172 162 101  64  46  44  43  40  38  39  40  40  43  37  34  34  33  36  39  38  39  39  39  42  41  44  43  44  43  42  45  50  61  70  72  75  76  75  74  75  70  65  55  53  55  47  53  51  48  56  56  58  54  53  51  46  41  44  53  86 114 124 128 147 155 158 158 157 158 156 158 158 156 156 156 155 156 156 156 156
 170 170 170 171 169 169 170 172 173 172 171 172 170 166 121  66  52  48  43  44  42  38  36  32  31  27  26  27  28  30  27  30  30  30  30  30  31  34  35  35  37  41  46  47  54  63  67  72  71  71  72  72  63  61  50  49  50  48  52  52  52  52  53  53  50  47  46  41  38  43  69  96 119 130 129 144 151 155 155 156 156 155 156 156 157 154 155 155 156 156 157 157
 170 170 170 170 170 170 171 171 172 171 171 172 172 164 136  76  60  52  49  52  55  50  50  47  47  38  35  35  32  30  29  30  30  31  31  28  28  27  27  29  32  36  43  44  47  55  62  68  65  66  69  68  59  57  50  50  49  49  55  54  52  52  48  51  50  44  40  34  36  53  88 104 118 128 125  98 116 143 152 153 154 152 152 153 154 152 154 155 155 155 155 154
 169 169 169 169 171 170 171 170 169 170 169 169 168 165 151 106  68  58  54  62  67  62  61  61  61  54  52  52  51  51  45  47  42  42  41  36  37  40  40  41  41  40  41  38  44  51  58  63  62  58  63  63  55  57  50  48  45  47  52  52  50  50  46  59  49  39  33  30  45  77  99 109 118 129 116  58  61  78 131 150 153 153 153 154 155 155 154 154 155 156 154 154
 168 168 168 168 169 168 169 168 168 168 168 168 168 167 161 150  78  61  56  65  73  72  68  68  70  65  61  59  63  63  56  53  50  48  48  51  50  50  50  49  49  48  44  38  39  50  57  59  55  51  52  56  53  50  48  49  43  41  48  46  47  44  45  51  44  36  30  34  59  86  98 107 118 130 108  52  50  54  64 101 140 152 153 152 154 154 155 154 153 155 154 155
 168 168 168 168 168 168 168 168 168 167 167 167 168 166 166 157 126  64  60  66  75  76  73  71  68  66  65  62  64  60  56  55  57  56  57  55  55  55  56  54  55  53  50  43  38  48  55  55  55  50  51  54  55  50  50  45  46  45  44  43  42  39  40  39  38  28  28  44  68  90  95 107 118 130  98  43  43  48  49  54  73 120 144 149 151 151 151 150 151 152 153 152
 167 167 168 169 168 167 166 166 167 166 164 166 166 166 164 162 152  90  54  61  72  76  75  67  63  64  62  61  60  60  61  61  60  60  57  60  59  60  59  58  58  55  51  46  40  48  54  53  53  52  51  51  52  51  50  43  45  45  42  41  40  36  34  31  29  24  33  48  74  91 100 110 120 128 100  36  37  45  46  44  52  77  87 109 130 143 145 146 146 148 148 150
 166 166 167 168 168 166 164 164 164 165 164 164 163 163 161 160 154 110  48  52  67  74  70  63  56  54  56  55  57  57  57  57  57  57  55  58  60  62  63  62  59  55  54  48  43  46  52  54  54  49  47  46  45  46  43  42  44  40  36  39  36  28  29  25  24  28  45  67  83  94 103 111 121 125 125  49  33  40  46  43  45  58  68  70  81  99 118 138 143 146 148 149
 166 164 165 164 165 166 165 163 164 163 162 161 158 154 150 130  96  59  44  42  58  74  68  57  47  44  44  44  44  47  49  50  50  49  51  56  57  59  63  63  61  56  53  48  43  47  51  53  54  48  47  45  41  40  38  38  43  38  32  32  29  28  29  23  25  37  60  74  86  97 106 114 123 126 131 101  29  36  47  44  44  50  56  59  62  67  72  83  97 110 132 144
 164 164 161 162 162 162 161 161 161 158 157 153 143 110  83  66  56  43  38  36  48  70  74  63  46  39  35  32  34  37  40  42  43  43  51  54  55  56  60  62  61  55  49  47  42  48  50  53  55  50  45  41  38  35  35  37  37  34  30  27  27  29  24  23  30  43  64  76  89 100 106 110 118 125 131 127  39  35  41  43  44  43  52  54  53  51  57  59  67  73  79  97
 162 161 161 160 159 157 153 153 136 104  90  79  68  64  56  48  38  33  32  32  37  61  77  74  57  43  33  32  31  33  37  41  43  46  49  53  59  60  59  59  58  52  47  45  43  46  49  55  57  51  43  36  32  34  32  32  34  29  26  23  24  25  23  27  36  54  69  84  95 104 107 110 118 127 133 136  56  35  39  45  42  41  51  52  52  48  50  53  56  56  68  75
 158 154 155 152 137 119  92  71  59  57  56  56  53  50  44  37  31  28  28  28  30  54  79  78  70  58  40  33  32  31  36  43  49  51  53  61  64  62  59  59  54  50  40  39  40  45  50  54  57  46  40  31  26  30  29  30  33  28  22  18  18  21  24  34  46  62  73  89  97 105 108 113 119 126 132 138  68  32  39  45  41  41  46  50  50  46  45  48  50  48  52  58
 142 122 107  86  70  61  58  51  47  49  51  48  41  36  31  30  30  28  26  25  28  44  72  78  77  66  51  42  39  38  45  56  61  59  64  63  64  60  52  54  49  45  37  35  38  41  46  50  48  39  35  28  22  25  24  28  28  21  16  17  20  23  34  39  52  67  78  91  98 104 110 115 122 128 133 138  77  34  38  42  44  39  47  51  50  45  44  45  49  46  44  49
  71  66  62  56  53  50  43  40  41  45  45  40  34  31  29  28  27  25  23  26  29  36  60  74  74  69  58  51  49  48  58  70  72  56  50  51  57  56  50  49  43  38  32  30  36  38  39  42  41  34  26  21  19  20  22  19  18  17  16  23  26  30  38  50  61  77  88  93 101 106 111 117 122 129 133 133  72  34  35  40  39  42  47  48  50  45  43  43  45  42  39  44
  51  47  48  47  46  43  40  38  39  43  40  32  30  29  28  28  26  24  23  23  28  30  48  62  64  65  62  57  53  52  63  69  66  46  38  37  48  50  44  42  37  33  30  27  29  32  30  33  32  25  18  16  19  19  17  14  15  17  19  26  31  40  46  58  74  83  88  93 100 106 112 117 123 130 132 127  64  33  35  40  37  41  44  44  46  44  43  43  40  37  38  43
  43  43  42  43  38  38  36  37  39  38  34  29  29  27  28  25  23  22  23  22  25  29  38  53  57  63  63  57  55  52  58  60  55  42  40  36  39  39  34  38  36  31  28  25  23  25  23  26  23  19  18  17  16  15  13  13  16  19  25  33  41  50  55  70  76  81  88  95 102 108 113 119 123 128 132 118  54  34  36  39  37  37  42  41  46  45  42  42  38  35  36  38
  44  41  39  36  34  35  33  35  36  36  32  28  26  27  28  24  23  21  21  20  25  29  30  42  52  57  57  56  51  53  54  52  45  38  34  35  31  31  33  37  34  30  27  24  17  20  17  20  18  14  13  14  13  15  14  15  21  29  37  44  51  58  64  72  78  85  91  96 103 110 113 117 123 127 127  98  51  34  35  38  35  38  38  38  44  45  43  41  38  37  35  36
  37  35  34  30  31  35  32  32  34  33  30  26  25  24  25  23  21  19  19  19  21  26  27  33  46  48  49  52  48  44  45  40  36  34  30  29  30  28  30  32  30  27  28  21  16  15  15  15  14  11  12  12  12  16  18  25  35  40  48  58  64  66  69  71  78  85  89  98 103 107 112 117 121 123 122  75  43  32  35  32  38  35  39  37  36  39  39  36  35  33  34  34
  36  35  34  30  30  31  28  32  30  30  27  25  23  23  23  19  18  16  18  18  19  23  24  26  34  37  40  42  40  35  34  32  30  30  27  27  28  28  27  30  27  21  19  16  16  14  13  14  11  11  14  16  17  19  28  35  43  54  62  67  69  68  69  71  78  87  91  97 100 107 111 115 120 121 107  59  37  36  30  33  34  39  38  37  36  36  38  36  32  30  32  33
  35  34  33  31  30  31  33  31  28  28  26  25  23  22  22  19  18  17  18  18  19  21  23  22  24  27  30  31  30  30  26  27  24  23  20  23  26  25  23  24  20  18  14  14  15  14  12  12  14  18  22  23  25  28  35  45  56  61  66  67  66  69  69  72  80  88  91  95  98 106 110 113 118 119  84  47  32  32  34  30  36  34  36  36  38  38  38  34  33  31  31  33
  32  32  30  31  30  28  31  28  28  27  24  25  23  21  18  18  18  17  17  16  16  17  22  20  20  19  22  24  26  26  20  19  20  16  16  22  18  18  16  16  15  14  15  16  13  13  13  20  25  26  27  30  33  38  47  55  59  64  64  65  64  67  69  74  81  85  89  93  98 101 107 112 117 110  62  35  28  34  32  32  32  36  33  34  37  36  37  33  30  30  29  31
  30  29  29  29  30  30  26  26  26  27  24  24  21  20  18  19  18  16  17  17  16  16  22  20  20  15  15  17  22  18  15  16  15  13  14  15  12  14  15  12  11  13  13  13  12  18  26  29  30  30  32  37  40  46  52  55  59  61  61  62  64  64  70  75  80  83  89  95  96 100 107 112 113  88  45  30  30  28  30  31  33  33  33  36  34  34  34  34  31  28  29  32
  29  27  29  29  30  27  26  24  25  25  23  21  19  19  21  21  17  17  16  16  15  16  18  18  18  18  16  14  16  16  10  12  13  11  10   9  10  12  15  12  14  14  16  19  23  28  30  30  30  32  33  37  40  47  51  53  58  57  60  61  62  65  70  76  80  87  92  94  95  98 105 109 103  58  36  27  31  28  28  27  31  33  33  34  34  35  32  29  28  27  27  30
  29  27  27  27  28  27  24  24  25  24  22  19  18  19  17  19  17  16  16  16  16  17  16  16  17  16  16  15  17  14  10  11  13  12  11  12  15  19  25  26  26  26  33  33  32  34  34  33  32  31  32  35  38  43  46  49  52  55  56  58  63  68  73  79  84  87  91  92  94  96 101 100  71  42  27  29  25  29  27  32  32  31  32  32  33  34  32  31  28  26  27  30
  28  27  28  27  23  23  21  23  24  24  22  19  19  17  17  17  18  16  13  13  14  15  15  16  13  14  16  16  15  14  14  12  16  21  23  26  30  37  38  36  35  39  38  39  37  37  35  34  35  32  35  36  37  39  44  46  51  53  54  58  64  68  73  80  83  88  90  91  92  94  90  70  41  29  27  27  30  26  29  31  31  30  31  32  33  32  33  30  28  26  26  29
  27  26  27  27  21  22  21  21  23  22  20  17  17  17  17  14  14  15  15  13  13  15  16  17  14  15  16  15  14  14  11  15  16  22  31  35  41  44  43  43  41  42  40  40  40  39  39  38  37  36  37  37  38  39  42  45  48  51  53  55  61  68  74  78  83  88  88  88  89  82  63  41  31  25  25  26  28  24  29  31  28  30  29  30  32  32  31  28  27  24  26  27
  24  28  25  25  21  20  23  22  24  22  19  19  18  16  16  15  16  13  15  13  14  14  15  15  14  13  15  13  14  12  13  12  12  15  21  30  36  40  42  42  39  40  40  40  40  39  39  38  39  39  38  39  40  40  41  43  47  48  52  54  59  66  74  79  84  85  86  83  74  57  40  29  28  26  22  27  24  29  26  28  28  30  30  30  33  33  31  28  26  26  27  29
  23  23  20  21  19  21  22  22  24  22  20  19  19  17  16  16  16  15  14  14  14  14  15  14  14  15  15  12  12  11  14  11  12  11  12  18  26  31  36  38  38  38  39  39  38  39  39  38  38  38  39  38  39  39  40  43  45  47  50  53  57  64  74  79  82  84  76  64  48  36  27  27  25  25  21  25  25  27  29  28  30  28  32  30  30  31  30  27  23  26  27  27
  24  21  23  20  20  21  22  23  21  21  20  18  18  16  16  17  16  15  13  14  14  15  14  13  13  12  14  13  13  12  12  11  11   9   9  11  16  20  25  30  33  36  37  37  37  38  37  35  37  35  35  37  35  38  38  40  42  45  47  52  55  65  71  77  78  71  56  40  30  25  25  23  26  22  24  22  27  26  25  27  30  30  30  33  32  29  27  26  23  24  25  26
  21  23  22  20  19  22  21  21  20  20  18  17  16  18  17  15  15  15  15  15  16  15  14  12  13  12  13  12  12  12  12  12  10  10  10   9  12  12  15  19  21  26  28  31  34  33  33  32  32  31  32  33  31  33  35  36  38  44  47  52  55  65  70  72  63  48  34  25  25  21  24  20  24  21  25  25  26  28  25  26  28  29  29  31  32  30  27  25  25  26  24  25
  20  20  20  21  19  18  20  20  18  19  18  17  18  16  15  14  14  15  14  14  15  15  14  13  12  11  13  12  12  10  12  10  10   9   8   8  10   9  10  12  13  16  18  20  24  24  26  27  26  26  27  26  25  28  29  33  35  40  44  47  53  57  54  47  34  26  23  21  21  19  21  19  20  22  22  25  23  24  25  26  27  30  31  30  30  27  26  26  24  25  26  26
  17  19  18  18  18  20  22  20  18  19  18  17  16  17  15  14  15  14  14  13  12  13  14  14  14  12  12  11  11  12  12  10   9   9   9   9  10  10   9   9  10  10  12  13  16  17  17  18  20  20  20  18  18  19  23  24  27  32  34  38  36  35  27  24  21  20  20  19  18  19  18  21  18  22  22  24  21  26  25  25  26  29  30  30  28  26  27  27  23  23  22  26
  18  19  18  20  18  22  21  17  18  20  20  17  16  17  14  15  15  14  13  13  14  13  13  14  14  13  12  11   9  11  11  11  10   8   9   9   9  11  10  11  10  10  11  10  11  13  15  14  15  15  15  16  15  17  17  16  19  22  21  21  20  19  17  18  17  19  17  18  17  19  16  22  19  20  23  21  23  25  25  25  26  30  28  28  26  26  25  25  21  19  21  25
