P2
# Generated by OpenCV 3.4.0
92 112
255
 163 163 162 163 162 163 164 164 163 165 161 156 146  91  52  51  48  41  36  35  34  33  33  33  31  33  33  35  34  33  35  40  37  34  32  33  31  31  33  37  35  34  32  30  28  27  28  27  30  30  34  30  31  32  31  29  31  36  39  44  45  45  39  36  40  49  58  58  61  61 106 164 171 172 173 172 172 174 173 172 172 173 172 173 171 171 172 172 171 173 172 172
 162 163 163 164 164 165 166 165 165 164 160 151 125  67  52  54  43  39  36  33  31  31  32  31  31  31  29  29  26  30  31  31  31  30  29  34  41  39  38  38  34  32  33  32  31  29  26  25  26  26  31  30  28  28  29  28  29  29  33  39  44  43  45  36  36  40  52  57  55  56  57 110 168 171 173 172 172 173 173 173 171 173 173 173 172 173 173 172 173 172 173 173
 162 164 163 163 163 162 164 164 165 161 161 156  94  60  57  44  37  34  37  34  35  34  33  32  31  34  30  30  30  31  30  29  28  30  31  33  35  35  31  32  34  32  29  26  24  21  21  24  22  22  26  29  28  26  27  27  27  28  29  33  37  47  40  41  37  37  43  51  51  53  51  60 108 165 172 173 173 173 174 173 173 173 173 172 173 172 173 173 173 172 172 172
 162 163 163 163 164 164 164 163 163 161 158 137  80  58  50  42  35  33  35  33  30  30  30  28  30  36  36  33  31  31  31  29  29  31  34  33  35  34  33  33  31  29  30  29  26  24  22  19  20  19  23  24  24  27  26  26  27  27  28  30  32  37  33  38  39  36  37  44  45  49  45  51  59 110 163 171 173 173 173 174 174 173 173 173 172 173 172 172 172 172 172 173
 162 162 164 163 164 163 163 163 162 162 150 126  72  61  45  36  35  35  35  34  30  30  29  28  29  33  36  41  38  36  32  31  29  28  28  30  29  26  28  29  30  28  29  30  30  29  25  23  24  23  23  24  25  24  26  26  27  26  26  27  30  30  35  34  36  36  36  42  43  45  42  41  49  56 116 162 171 172 172 173 173 174 172 173 172 173 172 173 173 172 172 172
 163 164 163 163 163 163 164 165 164 158 147 115  74  58  40  36  36  35  33  33  30  31  30  30  30  32  32  35  37  40  38  36  31  29  27  26  26  24  26  26  28  30  29  29  27  25  24  24  24  25  25  23  24  26  26  28  25  25  24  25  28  27  32  32  31  36  35  36  42  41  44  36  36  46  65 141 169 172 171 173 173 173 173 172 173 173 173 172 172 173 173 173
 162 163 163 162 162 164 164 165 163 156 136 114  78  54  43  36  34  34  34  31  28  29  29  29  29  28  28  28  30  32  36  38  39  35  31  29  29  29  30  29  29  29  30  29  27  26  25  24  24  24  20  21  22  24  28  28  27  27  26  25  26  28  33  32  29  32  37  34  36  34  39  37  33  36  48  82 150 166 170 173 172 172 172 172 172 173 173 172 173 173 173 173
 163 163 164 162 162 164 165 164 162 151 140 107  68  49  46  36  34  35  32  29  28  28  28  27  27  26  27  27  28  29  30  30  29  30  32  31  29  28  29  28  27  26  25  26  26  25  26  24  25  24  23  20  20  22  26  26  25  26  26  26  25  28  33  32  31  35  36  31  33  32  33  30  34  34  38  44  87 153 170 173 173 173 174 173 172 172 172 173 172 173 173 173
 163 163 163 163 162 164 164 165 163 158 143 101  58  49  41  33  32  34  30  28  25  25  25  26  28  28  26  26  24  26  25  26  25  27  26  21  21  23  28  29  26  25  24  26  27  26  24  21  21  19  19  20  23  25  24  26  27  26  27  28  32  34  36  35  38  38  38  34  32  31  30  32  39  41  41  40  47  95 164 172 173 172 172 172 172 172 173 173 173 172 172 173
 163 163 163 163 163 163 164 165 164 161 139  95  58  42  36  33  30  32  31  28  26  24  25  26  28  29  26  26  28  26  24  24  25  22  23  20  21  26  27  23  24  27  25  25  21  20  20  22  20  20  22  20  19  21  24  26  28  28  30  33  32  31  32  35  37  39  40  41  34  32  30  33  38  39  32  32  40  54 155 169 170 172 172 173 174 173 173 173 173 173 172 172
 162 165 165 165 165 164 165 164 165 161 146  84  51  38  34  33  29  29  32  29  25  25  25  25  26  28  27  27  26  26  24  26  27  26  24  25  25  24  22  23  28  25  20  18  17  17  18  19  20  25  25  21  24  26  23  25  26  31  34  33  33  35  37  42  45  47  48  45  40  37  33  37  36  40  40  40  36  46 121 166 172 173 172 172 173 174 173 172 173 173 172 172
 164 164 163 163 165 164 165 165 166 161 122  74  50  38  33  31  30  29  29  29  29  24  24  23  23  22  22  24  23  23  26  28  28  24  22  21  20  19  22  25  20  19  16  15  16  17  18  19  20  26  25  25  25  23  20  22  27  30  31  35  39  43  46  55  59  59  58  55  50  43  37  39  37  37  37  36  38  51  87 160 170 172 172 172 172 172 173 173 172 172 172 171
 164 164 164 163 164 165 165 165 164 155 103  64  52  41  34  32  29  29  29  30  30  28  24  24  20  19  22  24  25  26  26  25  23  21  19  19  20  25  25  19  16  15  16  17  17  17  17  18  21  24  25  26  23  24  23  27  33  33  38  43  48  55  61  70  74  77  79  70  61  50  38  34  34  39  41  37  40  47  68 148 169 172 172 173 172 173 173 173 173 172 171 172
 164 164 163 164 164 164 165 165 166 158  92  64  49  42  36  34  30  30  29  29  29  28  27  24  23  23  23  24  26  22  22  22  19  17  16  18  25  25  20  16  16  15  17  18  17  16  17  19  19  23  27  27  26  28  31  34  38  42  47  56  62  69  79  88  98  98 102  96  76  57  46  37  35  37  38  37  37  38  46 112 164 172 172 172 173 174 173 173 172 172 171 172
 164 165 164 164 164 165 163 165 165 158  97  58  46  39  33  31  30  29  29  29  26  28  29  28  26  28  28  23  22  22  20  18  17  18  21  26  26  21  17  17  18  17  17  19  19  19  22  23  23  27  30  30  30  33  37  40  46  50  56  66  73  77  88 102 113 116 120 118 103  80  57  46  39  37  34  33  37  39  46  59 145 167 169 172 174 173 172 173 173 172 172 172
 164 165 165 164 164 164 164 163 164 160 117  73  42  37  32  31  30  29  29  29  30  28  28  29  29  26  26  23  22  22  22  20  21  25  26  23  21  19  17  17  17  18  20  19  21  24  24  26  27  32  32  34  38  39  41  46  52  57  66  73  80  84  95 109 118 122 132 130 121 106  88  67  52  44  40  36  39  41  43  49 112 162 171 172 173 173 173 174 174 173 172 173
 164 166 165 165 165 165 165 164 165 162 123  67  43  36  33  31  30  29  29  28  28  29  29  26  27  27  25  24  23  22  22  22  24  24  22  20  18  18  18  20  20  21  23  24  25  26  28  30  32  34  37  40  42  44  47  51  56  63  71  79  86  90 101 113 122 127 135 138 136 127 111  91  69  47  38  37  39  40  39  47  88 157 170 172 173 173 172 173 173 173 172 173
 165 165 165 165 166 165 166 166 164 156 116  54  44  36  32  31  30  30  29  27  27  28  25  25  25  22  22  22  21  21  22  24  25  22  22  20  20  22  23  22  24  26  26  27  29  30  32  32  34  38  42  44  45  49  52  55  62  68  74  81  87  95 111 118 124 130 139 144 144 140 132 118  94  60  38  38  38  39  39  45  62 123 164 172 173 172 174 174 172 172 173 172
 166 166 166 166 166 166 166 165 162 157 112  72  44  36  32  31  30  30  30  28  29  28  24  24  23  23  22  21  20  22  22  22  22  22  23  24  24  23  25  27  28  29  29  30  31  32  36  36  38  43  46  49  49  52  56  60  66  73  78  86  91  98 111 120 122 131 138 148 146 148 145 140 120  79  45  39  37  37  38  37  42  68 144 168 172 173 174 173 173 173 173 172
 166 166 167 167 166 167 168 166 164 154 112  66  45  36  33  30  30  30  29  29  29  28  26  26  26  24  22  22  22  22  22  23  22  24  26  25  28  27  27  28  30  32  32  34  34  35  38  41  44  47  49  52  53  56  62  65  69  75  82  87  91  98 108 117 120 130 140 149 150 151 149 152 136  94  59  42  38  36  40  37  41  54 133 169 173 174 174 173 174 173 173 173
 166 166 168 166 168 168 168 169 164 147 115  63  45  38  34  31  29  28  27  29  30  26  26  27  27  26  25  24  24  22  23  23  26  26  27  28  29  30  31  32  33  34  35  35  37  40  42  45  49  49  51  54  56  62  67  69  73  79  83  89  92  98 109 117 122 129 138 147 149 153 154 155 146 116  78  48  37  37  46  44  39  48 115 164 170 173 174 173 174 175 173 172
 168 167 169 167 167 169 168 168 165 151 144  64  46  40  34  32  31  29  29  29  28  28  29  29  28  24  25  24  24  25  27  27  29  28  30  31  32  33  34  36  37  36  38  37  40  43  46  50  50  52  54  59  63  66  70  76  80  82  87  90  95 102 109 116 122 128 136 143 148 153 155 154 148 131  95  59  43  43  51  49  43  46  77 152 168 173 173 174 174 175 174 174
 170 167 170 169 170 169 169 170 169 162 134  57  47  40  36  34  32  31  30  29  27  29  30  30  28  28  28  28  27  30  28  31  32  32  35  36  34  36  38  40  40  40  41  42  47  51  53  56  56  57  60  65  67  70  75  80  83  87  90  93  95 102 112 116 120 127 134 140 148 152 156 155 152 135 103  67  50  44  48  50  46  47  56 135 167 171 174 175 175 175 174 174
 168 170 170 170 170 171 171 171 170 168 129  53  45  39  36  35  34  32  32  29  30  33  34  34  30  32  32  32  29  31  30  33  35  36  39  40  38  40  40  42  42  43  45  46  50  54  56  60  60  62  65  66  69  75  81  83  86  88  92  97  98 104 112 118 126 132 134 138 142 154 159 156 150 131 106  74  52  42  47  47  44  49  63 135 167 172 174 175 174 175 175 175
 169 170 170 170 171 171 172 172 171 168 136  56  43  39  35  34  33  32  31  33  32  36  37  33  35  38  34  34  34  32  34  39  40  41  41  42  43  43  44  45  45  49  50  52  55  58  61  64  63  66  69  70  72  77  83  86  90  95  96 101 104 108 111 117 124 131 133 138 144 150 156 156 146 130 110  80  54  43  50  46  45  50  62 104 159 171 174 175 175 175 175 174
 171 171 170 170 170 171 171 171 170 165 139  56  44  35  30  31  33  33  36  37  38  40  38  39  40  40  35  35  38  34  36  42  42  44  45  45  47  47  48  50  51  53  54  56  61  64  66  70  70  73  76  76  81  82  87  91  96  98  99 103 109 109 113 119 125 130 131 136 143 152 152 152 148 130 105  83  57  49  46  47  47  49  62 114 154 169 174 175 176 175 174 174
 171 170 171 170 171 170 172 171 170 167 157  71  46  38  30  32  31  36  40  41  41  43  45  44  44  43  42  41  39  41  44  47  48  47  47  48  50  52  52  54  54  57  60  61  66  69  71  73  75  78  82  85  88  89  92  96 100 102 104 107 110 113 115 120 124 127 129 134 142 150 151 148 143 129 106  81  57  49  46  49  45  45  59 100 158 168 173 175 176 175 175 175
 172 171 171 171 170 172 173 170 170 171 165  80  49  40  34  32  32  38  42  45  49  50  48  47  47  47  47  45  44  48  50  50  51  51  52  52  54  53  55  57  59  63  66  68  71  73  75  79  81  84  86  86  90  95  96  99 102 102 108 111 110 113 118 122 125 130 132 135 143 149 152 149 139 127 108  85  55  46  49  47  42  42  58  90 148 167 173 176 176 176 176 175
 172 172 172 171 171 172 173 173 172 171 162  92  46  39  38  35  33  38  44  53  58  55  53  50  50  50  48  50  51  55  57  56  55  56  56  59  61  60  63  65  67  72  74  76  80  81  84  84  85  89  93  96  97 102 103 103 106 106 111 115 115 119 123 124 128 130 132 136 144 150 150 147 138 125 105  82  59  44  47  47  39  45  55  78 143 168 173 175 176 176 176 176
 173 173 173 172 172 172 172 173 172 171 164 100  48  37  33  33  33  42  52  63  64  62  58  58  56  54  58  58  62  63  63  64  64  62  64  67  67  69  72  74  78  79  82  86  85  87  90  92  94  94  96  97 102 105 107 107 110 110 111 113 116 121 124 126 130 131 135 139 143 148 149 145 137 122 104  83  59  49  42  45  38  48  56  78 142 170 176 177 176 177 177 177
 173 173 173 174 173 174 173 173 171 172 165  97  48  38  31  29  31  43  57  63  66  66  65  68  64  59  65  67  70  70  69  68  67  70  73  77  75  80  83  84  88  88  90  92  91  92  93  96  95  98 101 102 104 107 109 110 111 112 112 115 119 123 124 127 132 135 136 142 145 149 150 145 133 119 105  84  61  47  44  44  38  44  54  74 138 169 176 177 176 175 176 178
 173 174 174 174 174 173 174 174 172 170 161  95  45  36  29  28  30  43  56  65  68  72  70  70  70  72  70  72  76  75  73  73  75  79  80  82  85  88  90  92  93  94  94  95  98  96  96  95  95  95 102 104 104 107 109 109 109 111 112 112 117 120 122 125 131 136 137 142 145 147 148 145 132 122 109  80  60  48  42  42  42  41  53  67 132 165 175 176 177 177 176 175
 173 174 175 175 174 173 174 174 173 170 164 113  50  39  29  25  29  41  56  71  81  80  78  78  74  76  73  77  76  79  78  80  82  84  84  87  91  92  91  91  92  95  95  95  98  96  95  94  94  95 101 102 101 102 102 103 105 106 107 108 112 116 117 121 127 132 135 141 147 148 147 142 131 123 109  80  57  46  39  37  41  45  53  68 134 168 176 177 177 176 176 176
 174 174 174 174 176 175 175 175 174 173 167 129  54  40  29  27  30  41  62  76  84  84  82  78  76  76  79  79  79  80  82  84  86  88  90  90  92  89  92  91  91  91  92  91  92  92  91  91  91  91  93  94  94  96  95  98 100 101 101 100 104 107 111 111 119 127 134 138 145 152 149 140 132 127 117  92  60  41  37  36  41  48  53  73 139 171 176 176 177 178 176 176
 173 173 175 175 175 174 174 175 175 174 168 146  66  43  30  28  33  44  63  80  86  85  80  80  79  79  80  78  80  82  83  87  88  87  87  89  88  88  91  89  88  87  88  87  88  88  89  88  88  88  87  90  89  89  91  92  91  92  93  95  96  96 100 101 105 113 122 132 141 150 148 142 134 130 122 105  69  42  35  34  40  50  57  88 141 172 176 175 177 176 177 178
 173 174 174 175 176 176 176 176 173 174 172 161  76  44  32  31  32  45  69  84  87  86  81  81  81  81  82  79  80  82  85  87  86  87  86  84  85  86  85  84  83  82  84  85  86  84  83  83  83  84  84  84  84  83  82  83  81  82  84  86  83  84  84  86  90  98 104 117 131 145 145 141 137 132 127 118  85  46  33  33  40  47  54  96 147 173 175 177 177 176 178 179
 173 174 174 175 176 175 175 174 174 175 172 164  83  46  35  29  30  46  73  87  90  89  84  83  82  83  82  77  79  80  83  83  83  83  81  79  81  81  79  78  80  79  80  81  82  83  80  81  79  80  77  74  73  73  71  70  70  71  73  70  67  68  72  70  73  78  84  88 101 114 128 135 138 135 132 127 105  59  36  33  37  44  56  97 156 172 177 177 176 176 177 178
 174 174 175 175 176 175 175 174 177 176 173 164  96  45  37  28  29  50  78  90  94  92  87  82  81  78  76  77  77  78  79  79  80  78  74  72  73  72  72  72  74  73  75  77  82  80  74  74  75  74  71  69  64  61  58  54  55  55  53  51  48  48  54  52  50  50  58  63  75  90 107 127 137 136 134 133 120  79  42  35  37  44  56 100 159 174 176 177 177 176 176 177
 174 174 173 174 174 176 176 175 174 176 174 171 131  50  39  27  30  57  84  92  94  91  84  82  75  69  69  68  69  69  69  67  67  64  63  64  61  60  63  66  66  66  69  75  79  77  71  70  68  67  61  59  51  43  40  39  37  36  33  31  30  32  32  34  34  37  42  48  54  63  78  95 126 137 135 135 129  96  49  39  39  46  58 112 163 173 176 176 177 176 177 177
 172 173 173 173 175 175 176 175 175 175 175 172 158  82  40  30  32  62  88  95  95  91  81  70  60  59  54  51  51  50  48  45  44  42  43  45  46  47  50  51  57  61  65  71  74  73  68  65  60  58  51  47  38  33  32  28  27  27  25  24  25  25  25  27  28  28  31  32  34  42  52  67  92 132 136 138 132 109  55  41  41  48  60 115 165 175 176 175 175 175 176 176
 173 172 175 173 174 174 174 173 174 175 174 173 166 112  45  33  35  67  91  98  96  89  66  48  41  38  37  36  35  34  32  31  29  30  30  30  32  34  38  42  49  56  57  68  74  72  67  59  54  50  46  41  33  30  28  26  24  25  24  23  23  23  23  25  24  25  26  29  30  35  41  50  67 104 136 140 136 116  64  50  46  51  70 125 167 175 176 176 175 175 175 178
 174 173 173 174 174 174 173 173 174 175 174 173 170 147  55  39  39  76  96  99  95  69  47  39  31  30  28  28  27  26  24  26  24  24  24  25  25  27  31  33  40  48  54  64  68  69  64  57  52  46  42  38  31  32  29  27  27  28  27  27  28  29  31  32  32  34  34  33  35  39  43  48  60  91 128 140 138 126  73  51  49  53  83 151 172 176 176 176 176 176 175 176
 173 172 173 174 174 174 175 174 174 174 174 175 168 156 104  44  45  81  98  99  84  51  37  32  29  27  25  23  24  25  24  27  23  22  24  25  27  29  30  32  39  45  53  63  69  67  61  57  52  49  43  39  37  35  34  34  35  34  32  34  35  36  37  37  39  40  43  48  49  56  57  63  74  97 119 139 142 131  79  51  51  53 112 166 174 175 176 176 176 176 177 178
 172 173 174 174 175 174 174 175 174 174 174 174 167 166 148  45  44  86 100  93  75  49  34  29  29  28  27  28  29  33  33  30  30  29  30  32  33  35  36  36  41  46  55  62  70  71  67  62  54  50  44  42  40  39  37  37  34  30  30  29  27  26  26  27  29  34  38  47  54  71  76  85  94 107 120 137 142 134  88  52  49  52 132 171 174 175 178 176 176 176 176 177
 172 173 173 173 174 173 174 175 175 176 175 176 173 170 139  47  48  92 102  96  76  51  40  35  36  36  38  41  38  35  34  34  32  30  30  32  36  39  38  40  42  47  58  68  79  83  80  73  63  55  49  43  39  38  37  32  30  31  30  25  20  22  21  22  32  32  35  37  43  61  78  89  99 113 124 136 145 141  95  53  48  53 121 168 174 175 177 176 175 176 177 175
 173 173 172 173 173 173 174 175 175 175 175 177 174 171 143  51  52  97 104 100  77  54  48  46  46  45  38  36  34  29  27  27  25  26  28  29  29  33  39  42  42  47  59  74  85  92  92  88  78  62  48  42  37  37  32  31  31  34  36  24  24  26  24  24  55 113  58  41  40  43  64  87 100 112 125 137 147 144 104  53  45  61 113 161 173 176 176 175 174 175 175 174
 172 171 172 173 172 173 174 174 174 174 174 175 173 170 164  57  57  99 104  94  76  64  58  57  48  35  36  32  32  34  23  32  27  19  21  30  31  30  33  40  43  46  55  76  91  97 100 100  90  68  50  42  38  37  34  30  33  45  43  24  25  24  22  25  36  90  90  58  47  43  50  75  96 111 124 138 147 148 120  61  46  59 119 154 169 174 174 175 175 174 175 175
 172 172 172 172 172 173 173 172 174 174 175 173 174 173 163  65  58 102 104  93  82  73  66  56  40  33  30  37  57  46  26  27  24  26  23  32  40  32  32  38  46  49  56  75  93 103 111 113 102  72  54  46  42  41  32  30  38  50  52  30  26  25  24  25  42  87  92  78  71  57  58  68  89 106 126 140 148 150 136  76  48  61  84  94 165 173 174 172 173 174 174 175
 171 172 172 172 173 173 174 173 173 174 173 174 173 172 146  69  64 103 106  96  86  78  65  48  39  35  34  57  73  57  29  25  27  24  24  38  48  38  31  40  50  54  58  76 102 114 118 124 108  80  64  51  47  42  34  33  36  44  52  49  29  25  25  32  63  75  78  91  96  89  81  84  94 113 130 145 149 151 145  98  57  61  60  97 166 172 173 174 174 175 175 175
 171 171 172 171 172 174 173 172 172 173 173 175 174 169  90  60  68 103 105  96  89  78  62  49  43  41  45  55  69  61  34  25  24  24  27  47  46  36  35  42  59  60  63  81 110 119 122 127 113  88  78  61  54  49  47  45  44  50  54  56  56  52  54  60  60  66  83  99 104 109 106 108 112 125 138 147 150 151 146 106  66  66  64 117 167 172 174 174 175 174 174 174
 170 170 173 171 172 171 172 172 171 172 173 174 172 166  75  54  75 106 106  99  92  78  66  59  58  59  60  62  63  68  55  33  29  33  46  50  48  46  49  54  62  66  70  88 114 120 122 126 114  96  89  77  65  58  53  47  47  52  55  56  57  56  53  58  65  73  89 103 113 120 121 124 124 133 146 150 152 152 147 112  74  83  75 130 168 173 174 173 174 174 174 174
 170 170 171 172 171 172 172 171 171 171 173 173 171 165  78  56  84 108 106 102  98  86  79  78  76  73  72  70  61  64  66  59  58  60  58  53  48  48  53  60  71  74  75  93 116 121 124 129 118 104 100  92  80  73  62  55  50  49  51  54  56  56  57  60  68  77  90 103 115 124 125 130 134 141 149 153 153 151 147 118  78  97  76 134 167 173 173 172 173 174 174 174
 170 170 170 171 171 171 172 172 172 172 172 172 171 159  79  59  94 109 108 106 104  99  95  93  91  85  79  72  64  62  58  57  55  55  54  51  48  52  63  72  81  81  80  95 114 123 125 130 121 109 107 104  94  86  79  69  61  56  54  52  51  52  54  59  67  77  91 106 118 127 130 135 141 147 152 155 154 151 146 120  91 105  76 126 166 170 172 173 173 174 173 172
 170 169 170 170 170 172 171 171 172 172 172 172 171 147  81  60  96 109 109 108 109 106 104 102  97  92  86  78  69  63  61  58  55  52  51  52  58  66  76  85  83  82  85  93 111 124 124 129 122 113 113 113 108 100  93  85  74  68  67  66  64  62  63  67  79  88 100 109 119 125 131 140 145 149 154 156 156 149 144 126  95 118  81 112 164 169 172 173 173 172 172 172
 168 168 168 169 170 171 170 170 171 171 171 171 170 139  79  65 100 112 110 109 112 109 109 110 108 102  96  88  80  68  63  61  58  59  62  66  69  77  88  89  84  85  89  97 109 118 122 128 123 115 117 119 120 113 108  99  91  84  78  77  76  77  80  84  92  97 107 115 119 127 133 141 146 148 152 154 154 150 143 124  97 129  88 102 161 169 169 172 172 170 171 171
 168 166 167 169 168 170 170 170 171 171 172 171 169 126  78  66 103 110 110 113 116 115 113 112 111 108 104  98  92  85  81  78  75  77  76  75  80  90  95  91  87  90  92  98 108 117 120 126 125 116 120 125 127 124 119 114 110 105  95  89  85  85  85  90  97 102 108 116 122 128 134 140 148 148 149 153 150 147 139 111  86 131  90 102 160 169 169 170 172 170 170 171
 167 167 168 168 169 170 170 171 171 171 170 171 169 128  83  66  95 110 113 113 116 116 116 111 112 114 111 107 100  94  92  90  87  85  85  88  94  99  97  91  91  94  94  98 109 117 119 127 129 120 121 127 129 127 126 123 120 121 116 108 100  99  98 100 104 107 111 116 123 130 135 138 142 146 148 147 146 143 139  96  89 133  89 108 159 168 169 170 171 170 170 170
 166 166 167 169 169 169 170 171 172 171 172 173 171 136  87  68  92 110 111 112 113 113 112 114 116 116 112 107 104 101  99  97  94  96 101 102 102 101  97  93  96  94  96 104 113 115 118 125 128 123 123 127 127 126 125 120 118 118 121 122 115 111 107 107 110 112 113 117 121 125 126 133 135 139 139 142 141 138 137  88  93 129  98 117 161 166 169 170 170 171 170 170
 166 166 168 169 168 169 170 171 170 172 173 173 171 150  93  70  81 109 111 107 108 110 110 113 114 115 115 111 108 107 105 104 104 107 109 108 106 103  98  95  97  96  96 104 113 116 120 123 127 125 123 125 124 124 123 118 115 114 113 116 118 116 114 112 113 115 116 114 118 125 125 129 130 134 135 135 135 135 127  80  89 129 112 135 165 168 168 169 171 169 169 169
 167 167 167 169 169 170 170 171 171 171 172 172 172 166 103  76  80 107 108 106 105 108 107 109 107 110 113 114 111 111 111 112 111 114 113 106 103 102  99  95  96  96 100 106 113 117 121 124 127 124 122 122 119 119 119 116 112 109 108 112 115 114 116 115 115 114 113 111 110 122 124 125 124 128 130 132 131 131 119  77  87 128 125 153 167 168 168 168 167 168 170 170
 168 167 167 167 168 170 170 170 172 172 172 172 172 169 136  89  81 106 106 104 101 102 104 105 105 109 111 112 111 113 115 113 112 112 109 106 103 100  98  94  94  95 103 108 114 117 121 123 126 124 121 114 113 115 116 112 108 107 108 109 110 112 113 114 113 111 109 110 107 112 118 118 120 122 122 127 129 130 107  79 110 137 139 160 168 167 168 167 167 168 167 168
 168 167 168 168 168 171 170 171 170 172 171 172 172 172 162 102  74 104 105 102  99  99 100 101 102 105 105 105 106 109 110 111 111 110 106 102 101 100  98  94  90  97 103 109 116 118 122 122 126 125 122 109 104 108 110 106 104 104 105 107 108 108 104 109 111 110 109 109 109 114 115 115 117 117 121 123 125 124 101 102 122 130 150 164 167 166 168 168 168 168 166 169
 168 167 168 167 169 170 168 170 171 170 170 172 172 172 170 126  79  97 102  96  96  96  97  99  98 100 100 101 105 105 107 108 106 105 103 102 100  99  96  89  87 103 108 113 116 119 120 120 124 129 129 114  92  95  99  97  97  99 100 104 105 106 104 105 106 108 112 112 110 114 114 112 116 115 116 119 120 119  90 110 110 135 159 165 166 166 169 166 167 168 168 168
 167 167 168 169 169 171 171 170 170 171 172 172 174 172 171 146  92  92 100  96  96  96  96  97  96  98  99  99 100 103 106 106 105 105 102 100 100  98  90  80  96 108 112 118 120 121 118 120 122 134 134 128  92  83  87  89  91  93  99 102 104 106 104 103 104 108 112 111 111 113 113 114 113 114 115 118 119 110  80 120 128 146 161 165 165 164 166 167 166 168 167 167
 168 169 169 168 170 171 169 170 170 171 172 172 172 174 173 167 113  84  98  96  96  96  96  96  95  93  96  98 101 103 105 105 104 104 102 100  97  91  85  80 104 110 113 115 115 115 110 115 118 130 138 133 111  75  77  83  87  92  95  99 103 105 104 104 105 109 111 109 113 114 115 113 115 114 114 117 118  94  80 140 144 156 161 163 165 163 165 165 165 166 165 165
 168 167 169 168 168 171 171 170 169 171 171 172 172 174 173 171 146  75  94  94  94  93  96  94  94  92  95  98 100 100 104 105 103  99  98  98  94  88  80  86 102 106 104 104 109 106 103 106 111 117 129 123 117  88  70  77  84  89  92  93  99 103 104 107 105 107 111 111 111 113 114 115 116 113 114 116 114  86  80 140 153 159 161 162 162 162 164 164 163 162 163 164
 168 167 168 167 169 169 170 170 170 171 171 172 173 173 172 172 167  81  86  92  92  92  93  92  93  92  93  97  97 100 101 103 101  99  97  95  91  85  80  91  88  89  89  89  93  92  90  89  96 103 103  96 101 111  72  73  83  85  89  93 100 102 106 108 108 106 108 110 113 112 114 116 115 115 116 113 105  78  84 133 155 159 158 160 161 162 163 163 162 162 163 162
 167 168 168 168 170 169 170 172 170 172 172 171 172 173 173 173 168 122  80  93  90  91  90  91  91  93  91  95  97  98  99 101 100  99  95  89  85  81  81  82  70  70  73  74  78  79  79  79  82  86  82  73  79  95  78  78  82  83  84  89  95 101 105 108 110 110 110 109 112 116 116 117 116 116 116 109  89  71  89 132 153 157 158 159 160 160 161 162 161 160 162 163
 167 167 169 168 169 169 169 170 170 171 172 171 172 172 172 173 173 155  75  91  90  92  91  91  93  93  93  96  99 101 100  99  97  96  91  86  82  79  78  66  46  40  50  64  65  65  66  65  66  71  40  37  49  76  81  84  83  85  86  90  94  96 102 107 109 108 113 112 115 114 116 119 118 115 112  99  82  68 100 138 151 156 157 159 160 158 159 160 159 160 159 161
 166 167 168 168 169 169 169 170 170 170 171 172 171 171 172 172 172 168  73  89  91  90  94  94  94  93  95  97 101 100  99  98  93  91  89  84  82  83  81  65  46  38  33  33  51  52  51  51  60  52  33  39  55  73  84  89  91  86  88  91  93  97 101 103 108 110 111 114 113 116 117 117 117 113 105  90  71  67 129 149 154 157 157 159 158 158 158 159 159 160 160 161
 166 168 167 167 168 170 169 170 171 171 170 172 172 172 172 173 172 168  78  76  89  89  92  95  94  94  96  97 100 100  98  96  92  90  85  83  84  87  85  75  60  46  42  43  46  48  47  52  61  69  66  71  71  77  92  99  99  95  92  91  92  97 100 104 107 111 112 115 113 117 116 116 115 112 102  80  61  62 143 151 155 157 156 157 159 158 158 158 158 159 161 160
 167 167 167 167 167 169 170 170 169 170 169 171 172 172 171 172 172 167 104  66  83  90  93  96  96  94  95  98  98  98  95  93  93  89  85  85  90  93  90  80  69  57  53  51  49  47  44  45  53  59  64  74  74  82  95 102 106 105 100  95  94  96 102 105 108 110 112 114 117 116 118 117 112 106  89  71  57  77 147 153 155 156 156 156 156 156 157 157 157 157 158 156
 166 166 167 168 168 168 169 170 169 169 170 170 172 172 171 172 171 167 131  55  75  89  96  97  94  94  96  95  98  96  95  93  90  87  86  89  95  96  90  82  65  61  54  47  44  47  45  43  43  39  42  51  62  80  96 104 108 109 107 102  98  96 100 104 109 109 112 114 118 118 116 113 108  95  80  69  58  92 146 152 153 153 154 155 155 156 157 156 156 156 156 156
 167 168 167 167 168 168 168 170 168 169 170 170 169 170 170 171 171 169 155  61  68  84  92  93  93  94  94  93  95  97  96  92  88  88  89  96  98  97  88  76  62  53  45  41  41  44  44  41  37  32  33  38  45  58  82  94 104 108 109 109 105 101 100 100 105 108 111 111 116 117 113 110 103  92  75  60  54 108 145 151 152 153 154 154 154 155 156 156 156 155 156 156
 166 166 166 166 167 167 168 168 168 168 169 169 168 168 168 168 169 169 162  71  61  73  86  91  91  92  91  92  93  94  92  91  88  90  93  96  95  90  76  59  49  43  38  38  41  43  42  42  37  30  30  36  41  42  60  73  89  98 103 104 106 104  96  99 102 107 111 109 113 114 112 103  95  88  71  60  58 138 144 148 151 152 154 154 152 153 154 155 155 156 156 155
 166 165 166 167 167 168 168 168 167 168 167 168 168 167 169 168 169 168 165  91  58  65  75  84  89  89  91  89  91  91  91  89  88  88  89  87  79  77  57  43  42  39  38  35  40  42  42  41  38  35  31  33  37  36  45  54  69  80  86  92  95 101 102  96  98 104 109 107 110 111 103  92  86  79  68  60  66 138 150 152 152 151 152 152 153 153 154 153 155 154 155 156
 164 165 166 166 165 167 167 167 167 167 168 168 168 167 168 167 168 167 164 144  56  55  63  75  85  88  89  85  87  87  88  86  84  81  74  66  66  58  41  34  35  36  33  38  39  38  41  42  41  38  35  38  37  38  39  43  50  58  66  71  80  91  98  96  95  98 105 105 105 103  93  81  74  68  62  57  82 140 150 149 150 151 152 150 151 151 152 152 151 152 154 155
 164 163 164 166 165 166 166 166 167 167 167 167 167 167 167 166 167 166 166 161  83  53  53  66  80  86  86  85  84  87  83  82  76  65  57  50  50  44  35  33  38  34  32  37  40  42  43  48  48  42  40  41  38  41  39  41  45  48  53  57  63  71  87  94  91  96 100 103 101  95  82  71  68  70  57  57  91 140 148 150 150 151 151 150 147 148 149 152 152 152 152 153
 164 163 164 164 165 164 166 167 166 166 166 167 168 168 167 164 167 166 165 160 114  51  49  60  75  80  81  83  83  83  80  77  65  50  42  42  44  40  36  35  37  34  38  44  48  52  53  56  56  49  45  41  43  44  46  45  49  49  45  47  56  57  66  80  87  88  94  95  94  85  73  64  64  66  55  68 112 138 144 147 147 150 149 149 148 149 149 150 151 150 152 152
 163 163 164 162 164 165 165 166 166 165 165 166 165 166 165 167 165 166 162 156 146  57  51  56  65  75  78  81  80  79  76  65  48  39  39  40  43  42  39  40  39  42  47  50  59  61  65  67  60  48  44  41  42  44  49  51  50  46  40  45  46  53  60  68  82  89  91  91  86  76  69  59  59  59  57  83 130 143 146 146 146 146 146 146 148 148 148 149 150 150 150 150
 161 162 163 162 163 165 164 166 165 165 166 164 165 165 163 165 164 163 162 161 157  91  51  48  54  65  73  77  79  77  72  56  40  33  34  39  43  42  42  44  41  39  38  36  38  39  43  41  36  33  32  32  34  37  39  42  40  40  36  43  44  49  55  67  78  85  89  90  80  65  61  56  58  58  51 113 138 144 146 145 146 145 145 144 146 147 147 148 148 148 148 148
 160 161 161 162 162 162 163 165 162 162 163 163 163 163 163 162 162 162 161 160 157 109  50  43  46  55  65  72  75  75  62  49  35  33  38  37  37  34  32  32  32  31  32  32  31  30  29  27  27  26  29  29  28  29  30  29  26  26  28  32  37  45  51  66  75  82  83  88  73  62  60  63  60  53  66 130 140 144 145 145 145 144 144 145 144 145 145 146 146 148 149 147
 159 161 161 162 161 161 161 163 162 162 163 162 163 163 162 161 162 161 159 159 158 128  52  43  43  49  57  64  70  68  62  46  33  35  35  33  28  27  28  29  30  30  29  29  28  26  25  25  26  27  28  30  33  37  42  37  31  31  32  34  36  43  47  64  73  76  76  81  68  61  60  62  56  50  89 139 141 145 144 143 144 144 143 143 143 143 143 144 145 144 145 144
 159 161 161 162 161 160 161 162 162 161 161 161 161 160 161 161 159 160 161 158 155 140  67  44  42  45  52  58  61  65  57  42  37  38  39  40  41  41  42  39  41  42  45  49  54  49  47  51  53  52  51  52  55  57  55  52  52  51  46  44  44  43  46  57  72  73  66  71  64  61  53  54  51  58 122 140 141 142 142 142 142 141 142 141 142 141 143 143 142 145 144 142
 156 158 160 161 160 160 160 161 162 160 160 160 161 160 160 160 159 158 158 155 153 151 115  46  42  42  49  51  55  57  54  45  43  43  48  52  55  56  54  50  51  52  58  63  67  62  61  59  65  68  70  68  64  65  65  66  68  65  57  54  50  47  46  56  68  66  64  70  62  56  50  49  50  84 132 141 140 139 139 140 141 143 143 142 142 141 143 141 143 142 143 143
 154 157 159 159 158 158 160 161 160 159 160 158 159 158 157 157 157 157 156 155 153 151 137  67  43  43  46  47  47  52  54  48  44  48  56  62  65  66  62  60  60  59  58  62  65  62  60  59  63  66  66  66  67  73  73  75  77  71  64  62  54  49  50  58  64  62  62  67  60  53  51  45  46 100 133 137 138 139 138 139 139 139 140 140 140 140 139 140 141 140 142 141
 154 155 156 156 157 156 157 158 158 159 159 157 157 157 154 155 154 155 154 153 152 150 135  81  47  44  41  41  43  50  54  52  45  52  59  67  68  68  67  64  65  64  65  62  60  58  58  55  59  60  64  70  70  75  76  80  83  79  73  68  59  52  53  63  65  58  60  58  55  49  43  46  54 125 133 136 137 138 138 137 139 138 138 138 139 140 140 140 138 139 139 140
 154 155 156 155 156 156 157 156 157 156 155 154 154 154 154 153 153 152 153 152 151 147 144 113  38  40  39  39  44  47  50  50  47  54  63  69  69  68  67  66  65  64  61  58  54  54  53  52  52  54  59  65  70  73  75  76  80  79  75  72  61  54  57  61  66  57  55  51  49  45  36  41  87 128 134 136 136 138 139 138 139 139 139 139 138 138 140 139 139 140 137 138
 153 153 154 153 154 153 155 155 154 155 154 154 153 152 151 152 152 152 151 150 150 148 147 130  64  31  34  36  40  44  48  48  47  56  63  68  68  69  67  62  59  57  56  52  47  43  42  41  40  46  51  56  58  61  69  70  74  74  73  67  59  58  60  61  65  55  52  47  41  37  32  61  82 102 124 133 133 134 137 139 137 138 139 137 138 138 138 138 137 138 138 139
 153 152 152 152 153 153 153 153 153 154 153 152 153 152 151 151 151 149 149 147 148 147 145 141 108  34  29  30  36  44  45  44  44  52  59  62  67  68  66  62  56  51  46  42  37  35  33  33  32  37  42  48  49  56  65  69  70  70  69  60  56  59  59  68  67  50  41  39  35  32  39  91  48  48  58 102 128 132 133 134 133 134 134 132 134 134 134 133 135 135 136 135
 150 150 151 151 152 151 152 151 152 151 152 151 150 149 148 148 146 147 149 147 147 145 142 138  98  35  29  29  32  39  40  39  43  45  55  63  68  69  67  64  59  54  49  40  34  30  29  28  31  36  39  46  51  55  67  73  68  66  62  57  53  56  62  67  58  43  34  36  32  32  72 102  40  41  44  52  93 121 129 132 131 132 132 132 132 131 132 133 133 132 133 134
 149 148 149 151 152 150 150 151 150 149 148 148 149 146 146 146 145 145 143 142 139 135 124  70  42  32  26  25  29  35  35  34  35  41  51  60  66  70  71  68  62  59  52  46  37  30  27  28  32  35  42  50  58  64  69  70  65  60  54  50  46  49  58  59  48  33  30  29  31  47  96 104  38  38  38  40  43  66  98 124 130 131 132 132 133 132 132 133 133 132 134 134
 146 148 147 150 150 149 149 148 147 149 147 147 146 146 144 143 143 142 129 103  75  58  49  37  33  27  21  20  35  28  28  26  30  35  44  52  63  72  77  75  71  66  62  55  47  38  35  33  40  46  58  64  68  68  70  63  57  54  46  41  41  42  52  51  36  29  26  27  54  92 105 112  42  34  37  35  36  44  62  72  91 116 125 130 129 131 131 130 131 132 131 132
 146 147 146 147 147 147 147 146 146 146 145 144 143 142 142 138 129  96  61  47  40  36  33  31  28  22  15  15  43  23  26  24  29  29  38  46  62  71  74  77  77  76  71  63  54  47  43  43  48  58  72  71  56  49  57  57  52  45  40  35  34  36  39  38  27  24  28  48  88 101 108 113  70  33  37  37  35  39  50  55  56  64  89 112 126 127 130 129 130 131 130 130
 146 146 147 146 146 146 144 144 145 143 141 141 137 133 114  93  72  51  39  32  30  32  30  28  25  17  13  21  63  31  21  19  21  26  33  42  52  62  67  73  73  72  70  67  59  54  49  49  52  61  70  66  49  43  44  50  43  39  35  31  30  30  30  27  23  27  51  81  95 104 112 115 100  30  34  36  34  35  41  47  49  53  55  61  80 102 118 125 128 126 129 131
 143 143 144 143 143 143 141 141 141 137 133 121 101  74  59  51  41  35  32  28  27  28  28  26  23  15  16  44  69  59  36  18  16  20  27  33  42  50  58  65  61  63  61  60  58  55  52  52  50  52  57  56  48  41  39  40  37  38  36  29  28  27  23  19  20  47  77  89  98 104 111 115 115  37  35  34  35  32  39  43  45  43  42  47  52  58  69  86 107 116 119 125
 139 141 141 139 139 138 135 124 111  82  63  56  54  54  45  37  31  29  27  27  28  28  28  25  20  15  23  60  68  67  56  34  21  15  18  27  32  39  44  47  50  49  52  55  55  55  53  50  47  52  49  44  42  38  33  38  36  36  31  27  25  23  19  21  38  73  82  92  98 106 112 116 120  43  33  35  34  32  38  40  44  38  37  41  43  44  49  61  69  78  86  90
 138 136 130 131 112  94  74  58  53  48  49  49  44  39  33  29  28  26  24  24  25  27  25  23  19  13  32  63  67  66  63  53  36  18  15  20  26  29  36  36  40  41  44  50  48  50  50  44  44  41  39  36  32  35  29  32  32  32  29  23  22  18  20  34  65  76  87  94 100 106 112 115 117  41  32  34  33  33  33  38  41  38  34  36  39  37  40  46  55  62  66  71
 113  95  78  63  54  53  47  40  39  42  42  40  35  31  29  27  25  23  22  23  24  24  23  22  16  14  36  63  67  65  64  62  50  42  19  17  20  25  30  25  31  34  37  43  40  40  42  38  36  33  31  29  27  28  29  32  30  29  25  18  19  21  45  56  73  81  89  96 101 106 112 112 109  38  32  31  34  31  35  38  38  36  33  33  34  35  34  37  45  53  59  56
  54  50  46  45  43  41  38  36  35  40  37  31  31  28  26  24  25  21  21  23  23  23  24  21  16  15  37  61  67  65  64  63  56  49  39  18  16  20  20  22  26  30  30  33  33  33  33  29  30  30  24  23  20  22  27  29  25  21  18  17  26  46  63  66  75  81  91  98 100 106 111 111  92  31  26  30  33  33  35  37  38  35  33  33  32  33  31  34  39  46  54  56
  38  40  38  38  36  34  33  33  36  36  32  29  28  26  25  24  22  19  20  21  22  21  23  22  16  14  32  57  66  66  64  61  62  57  51  33  20  17  15  17  20  23  22  26  27  27  28  23  27  26  19  21  17  17  21  19  20  16  17  21  44  57  66  73  77  84  91  96 100 106 109 109  73  30  28  30  29  32  34  35  36  34  33  32  32  30  29  34  34  41  48  53
  37  38  34  33  31  32  30  30  34  34  29  26  25  25  26  23  21  19  19  18  19  19  19  19  17  14  30  54  64  66  65  64  61  60  55  50  30  19  14  14  15  16  16  19  20  19  19  19  22  19  15  19  14  14  15  14  16  16  25  38  56  59  68  75  79  83  90  93  99 103 107 104  44  28  30  28  28  27  32  34  37  35  32  32  27  27  28  30  33  38  44  48
  35  32  33  29  28  30  27  31  32  32  28  25  24  24  23  20  18  19  19  19  20  19  19  19  18  15  24  47  60  64  64  65  65  60  56  53  46  34  21  15  12  14  15  14  14  14  14  14  17  16  12  14  12  13  14  15  23  40  48  53  58  63  69  73  77  81  89  93  98 102 105  84  34  26  27  28  26  28  30  31  36  35  32  30  28  27  26  28  33  36  39  41
  33  32  30  27  27  27  29  30  29  28  24  24  23  22  20  18  18  18  17  18  17  19  19  17  17  14  20  40  56  63  64  63  63  62  59  55  53  45  33  19  17  14  15  13  11  12  13  14  13  12  12  14  16  20  25  27  43  51  53  55  56  61  69  72  76  82  89  92  98 101  99  54  28  25  26  26  28  27  31  31  32  33  30  28  26  26  26  28  30  33  35  37
  30  30  30  30  28  28  31  29  27  26  22  25  20  21  19  18  18  18  17  18  18  18  18  17  15  16  18  33  52  59  63  63  63  63  61  62  56  54  44  38  35  30  26  24  20  18  17  16  16  18  21  24  27  35  39  43  46  50  50  54  56  60  67  72  78  82  86  93  97  97  72  34  26  25  24  25  25  31  29  31  28  28  28  26  25  23  24  27  28  30  31  33
  29  27  28  29  28  27  27  26  26  25  24  23  20  19  18  18  18  17  18  18  18  19  18  17  18  16  16  25  44  57  60  62  63  62  60  59  57  56  53  49  47  44  42  33  32  32  31  28  29  30  31  35  36  40  44  45  46  48  49  54  57  60  68  73  76  81  88  91  94  82  46  25  25  25  24  25  27  27  29  30  32  30  28  25  24  23  25  26  28  30  31  32
  28  24  27  28  28  27  26  23  24  24  23  21  20  19  20  18  18  18  18  18  18  18  18  16  16  15  16  18  33  49  56  57  60  60  60  61  58  55  55  53  52  50  46  41  40  39  37  36  35  36  36  37  37  40  42  43  45  47  50  54  55  60  66  72  76  80  82  88  86  57  29  18  23  25  26  25  26  27  27  28  31  29  27  24  23  23  23  26  26  29  31  31
  26  24  27  28  26  26  25  24  23  23  22  20  20  18  19  17  18  18  18  19  19  18  16  18  17  15  17  15  23  38  49  53  56  58  58  58  59  56  54  54  53  50  48  46  45  43  40  38  37  37  38  36  39  41  43  44  45  46  49  52  56  58  65  71  74  79  83  81  60  33  22  22  21  25  20  24  26  25  27  28  29  28  26  25  22  22  23  26  29  28  31  31
  27  26  26  25  24  23  23  26  26  25  23  20  19  17  18  17  18  17  18  17  18  17  18  16  15  16  17  16  17  26  41  48  53  54  55  55  56  54  53  52  52  52  51  46  46  42  42  41  39  38  38  38  39  43  43  40  43  46  50  53  55  59  62  69  72  76  75  59  34  23  23  21  23  21  24  23  26  26  26  27  27  27  24  24  19  20  24  26  30  29  31  29
  26  25  26  25  21  20  22  22  24  23  20  18  19  16  16  16  18  17  16  16  17  15  16  15  14  16  15  15  16  18  30  42  48  52  52  52  52  53  54  53  52  51  51  48  44  42  43  41  39  38  38  39  38  39  40  40  43  45  47  51  54  58  62  68  71  67  53  34  23  19  21  22  22  21  23  27  25  24  25  28  26  26  24  23  22  19  24  26  26  28  30  29
  25  25  22  21  18  22  24  23  24  22  18  19  19  17  18  16  17  16  16  16  17  18  17  15  16  14  15  12  14  15  20  28  40  45  49  48  50  51  52  52  52  51  49  47  47  44  42  39  38  38  38  36  36  38  38  38  42  44  47  50  54  56  61  61  59  47  32  23  16  20  19  22  18  23  23  24  22  24  27  27  27  26  24  22  20  19  22  25  27  27  30  29
  24  21  20  19  19  24  22  24  24  21  19  20  18  16  17  17  16  16  16  16  16  18  16  15  13  14  13  14  13  13  15  19  27  34  41  45  49  50  50  51  50  50  47  46  46  42  40  37  38  38  36  35  36  38  38  38  40  44  45  50  52  54  54  48  39  28  20  20  19  19  20  18  20  21  24  20  24  25  25  27  26  25  23  21  19  19  23  26  26  28  29  30
