P2
# Generated by OpenCV 3.4.0
92 112
255
  85  86  86  85  86  88  90  89  91  92  91  91  93  92  92  93  94  93  96  96  95  96  97  96  98  97  97  98  97  96  98  97  98  99  98  99 101 100 103 102 102  98  99 101 103 110 108 111 108 106 100  99  99  98  98  99  98 100 101 100  99  99 100  99  97  99  98  98  96  99  98  96  98  98  99  96  96  95  95  96  96  95  95  97  95  95  95  98  95  95  93  93
  85  86  86  88  88  89  88  89  90  91  92  92  92  93  96  94  95  95  96  96  96  95  98  98  98  98  96  98  98  98  98  98  96  98  98  99 100 106 101 101 101 100 100 107 115 115 106 101 103 102 104 101 101  96  98  98 103 104 102 100  99  98  98  99  98  98  99  98  96  98  98  98  98  97 100  98  98  96  97  97  96  97  97  96  95  96  96  97  95  96  96  96
  84  87  88  88  89  89  89  89  91  91  92  92  92  94  96  96  95  95  97  95  96  98  98  99  99  98  98  98  98  98  98  98  97  98  99 105 105 106 109 108 120 125 130 133 120 113 107 102 107 119 110 107 104 105 114 114 109 103  99  98  99  97  99  99  99  98 100 100  98  99  99  99  99  99 100  98  98  97  96  97  98  98  96  96  98  98  97  99  97  96  97  97
  85  86  88  88  89  89  89  91  92  92  92  94  94  93  94  95  96  96  96  95  96  97  96  97  98  99  99  98  98  98  98  99  97  97 103 104 100 101 106 107 109 108 112 111 110 117 124 128 133 127 123 129 123 124 112  96  87  83  82  86  95  95  95  97  96  96  98 100  98  99  99  99  99  99  98  99  98  98  98  97  99  99  98  99  97  98  98  97  97  97  98  96
  86  87  89  90  90  91  92  90  92  93  94  94  94  94  95  97  96  97  97  97  98  98  98  98  99 100 101 101 102 102 101  98  97  94 100 102  95  95 102 101 100 108 104 106 123 140 146 156 146 135 122 115 105  95  82  87  78  71  72  70  72  76  79  81  86  91  95  98  98  99  99 100  99 100  99  99  99  98 100  98  97  98  98  99  97  99  98  97  97  97  99  95
  88  89  89  90  91  91  92  92  93  93  93  95  92  94  97  96  97  99  98  97  98  98  98  99 100 100 101 103 103 103 104 100 104  98 104  95  86  88  94  96 101 109 116 136 151 155 163 155 137 115 102  97  99  94  91  81  72  66  62  60  62  65  70  67  69  68  74  85  94  99 100  98  99  99  98  99 101  99 100  99  98  99 100  98  99  99  99  97  98  97  97  98
  89  88  90  91  90  94  92  92  93  93  93  93  96  96  97  96  97  97  98  97  98 100  98 100 101 105 112 111 115 120 117 107 114  98  95  81  76  76  75  73  83 106 120 139 158 155 149 120 124 129 129 121 109  99  82  70  64  63  62  61  55  58  61  62  59  61  64  66  73  84  97 100 101 101 101 101 100 100  98  99  98  99  99  99  99 100 100  99  98  98  96  96
  87  90  90  91  90  90  92  92  93  94  94  95  95  94  96  96  96  97  97  98  99  98 100 102 110 115 110 117 135 145 129 109  98  82  85  77  67  65  64  66  76 102 140 162 159 149 122 135 153 161 153 133 116  95  75  65  57  53  50  48  48  49  50  51  52  54  60  64  67  70  83  96  99 101 100 100 102 100  99  98  98 100  99  98  99  99  99  99  98  96  97  99
  91  91  89  92  90  91  95  93  96  96  96  96  97  95  97  97  97  97  97  99  98  98 101 103 109 106 120 127 140 141 135 113  92  75  72  71  65  60  56  58  93 130 137 150 127 116 113 136 161 149 139 119  92  76  66  59  54  50  48  45  45  45  40  42  45  46  52  57  62  67  72  84  94 100  99 100 101  99 101 102 100  99 100  98  99  98  98  98  99  99 100  99
  90  92  90  91  92  93  92  93  97  94  95  98  95  97  98  98  98  99  98 101 100  99 100 101 112 152 147 156 140 120 106  98  87  74  62  57  57  48  55  74  89  98 117  95  88  83 102 122 121 109  82  70  72  71  66  57  52  48  45  45  43  43  43  42  43  44  47  53  59  65  67  71  77  90  99 100 100 100 102 101 100 101 100  99  98 100  99  99 101 100 100  97
  90  91  92  90  91  93  93  92  93  94  98  97  97  98  99  96  98  98  98  99  98 101 104 114 134 140 141 151 154 131 113  93  78  65  60  51  49  48  66  65  73  89  73  58  66  73  80  89  82  53  43  50  57  57  54  51  49  43  40  37  38  35  33  34  36  34  35  38  44  52  57  64  70  70  85  97  99 100 100 100 101 100 102  99 100 100 100  98 100  99  99  98
  90  92  92  94  93  94  94  97  94  96  97  97  98  97  99  99  99  98 101 100  98  99  98 117 142 153 155 166 167 148 108  89  86  69  60  56  54  62  62  69  69  59  45  50  58  56  59  54  34  31  34  39  41  46  47  43  45  42  37  34  33  32  30  32  32  33  35  38  37  40  46  47  52  62  64  84  98 100 100 102 100 101 101 100 100  99 100  99  99 101  99  99
  91  92  92  92  95  93  95  95  98  96  98  97  99  97  97  99  99  98  99  99  99 100 106 142 150 158 172 157 145 120 110 111  96  79  65  57  57  59  67  60  49  48  43  53  50  48  38  25  22  22  26  29  32  41  48  50  46  44  41  40  38  35  34  37  36  37  39  41  44  48  51  50  52  52  59  65  89  98 101 101 101 100 101 100 100  99  99 100 102  99 100  99
  92  93  93  93  94  95  95  95  95  98  98  98  98  97  98  99 100  97  99  99 100 104 124 140 161 164 165 167 150 144 152 121  87  66  56  50  56  60  52  49  42  44  43  43  35  32  24  21  24  26  29  38  48  50  52  55  56  59  48  41  40  38  36  35  37  39  39  39  38  42  43  48  50  49  49  60  72  96 101 101 102 100 101 101 100 100 100 100 100 101 100 100
  92  92  95  96  95  96  97  96  97  98  99  98  99  98  98  99 101  98 100  99 109 117 126 149 162 177 156 150 147 151 129  99  86  76  67  56  56  51  48  40  38  39  35  31  30  23  20  24  23  25  30  37  44  47  51  57  59  54  49  42  39  35  34  34  38  39  42  46  47  50  50  51  50  45  46  49  59  85  98 100 101 100 102 100 100 100  99 100 100 101 100  99
  94  93  94  94  92  95  98  97  96  99  98  98  99  99 100 100 100 102 104 104 112 118 126 130 135 121 117 119 143 155 152 130 117  88  67  59  49  46  43  37  37  37  31  30  26  23  22  21  22  24  26  29  30  35  43  45  48  43  37  33  32  30  29  29  30  31  32  33  36  38  41  43  46  44  47  48  52  68  92  99 101 101 100 100  99 102 100  99  99 100 100  99
  95  91  95  94  96  96  97  99  99  98  98  99 100 100 101 100 100 101  97  96 106 109 103  97  87  87 108 128 153 152 143 142 117  91  68  51  41  38  36  34  34  34  30  27  25  21  18  20  21  22  22  22  23  26  28  27  26  25  20  19  18  20  23  26  28  26  26  28  30  32  34  34  36  34  37  40  44  56  83  98 100 100 100 100 100  99  98  99 101 101 100  98
  92  92  94  96  96  97  99  98  98  98  99  98  99  99 100 100 101  94  86  91  93  87  84  80  80  91 107 123 140 151 158 148 104  74  56  48  40  36  34  34  33  35  32  28  24  23  21  22  21  23  22  23  22  23  24  22  20  21  22  22  22  24  25  24  22  22  22  24  28  31  32  35  38  39  39  36  40  48  68  94 100  99  98  97  98  99 100  98 100  98 100  98
  93  93  96  97  96  98  99  98  99 100  99  99  98  99 100 100 102  87  86  91  77  74  71  73  86  99 107 125 143 149 139 109  85  76  56  44  39  42  39  37  37  37  37  34  30  30  30  31  32  29  27  27  27  27  25  24  26  27  29  29  27  25  20  20  22  25  25  23  23  23  26  30  42  48  47  48  50  50  50  76  92  97  97  97  96  97  98  97  96  94  93  92
  95  95  95  96  96  98  99  98  99 101 101 100 100 101 100 100  95  82  83  84  77  72  74  86  89  96 114 114 110 102  91  96 100  58  40  39  44  43  45  48  46  47  45  42  37  33  33  35  36  34  31  31  31  31  33  30  31  29  27  24  25  24  23  22  24  24  23  22  22  21  24  25  31  43  54  53  56  57  54  53  77  89  91  92  93  92  92  93  93  94  93  92
  94  97  97  96  98  98  99 100  99 100 100 101  99 101 100 100  92  83  81  75  70  67  76  73  88  92  84  82  67  73  88  93  57  41  42  49  53  53  56  60  61  62  60  57  53  46  39  40  40  39  37  34  31  31  30  27  27  27  26  25  25  25  24  24  22  21  21  22  25  27  28  28  30  32  40  49  51  54  54  53  57  90 104 103 107 110 112 110 112 114 116 119
  94  97  98  97  97  98  98  97  98 102 100 100 100 100 101  96  84  80  72  71  67  69  75  84  76  68  66  58  62  70  71  56  47  46  50  57  62  64  69  74  71  72  72  67  64  56  49  48  46  42  37  34  32  30  30  29  26  25  24  24  23  24  24  25  25  25  25  28  25  25  29  29  30  31  35  43  49  47  50  49  55  77 118 123 125 123 123 124 124 125 124 124
  94  95  98  97  96  96  99  97  98  98 100  99  98 100  99  90  84  76  71  71  70  72  71  68  62  61  57  64  67  63  52  48  52  58  62  68  71  75  81  81  78  79  76  71  69  64  56  56  52  49  44  41  35  34  32  32  31  29  27  25  26  27  27  26  26  28  26  26  29  29  30  32  31  26  29  33  42  45  45  46  49  55 103 124 127 125 129 127 127 126 127 127
  92  93  95  96  96  95  95  95  95  95  97  94  93  95  96  89  86  80  70  77  71  65  59  60  58  58  60  62  56  48  49  55  62  70  73  78  81  87  85  83  85  86  81  79  76  72  62  62  61  56  51  48  45  40  39  36  34  33  32  29  27  28  28  29  28  29  29  31  31  35  37  38  37  32  30  28  32  40  46  44  44  48  62 115 128 127 128 127 127 127 128 125
  85  86  90  88  87  87  92  92  89  89  90  88  88  94  98  91  86  81  66  72  63  57  62  57  57  58  62  52  44  49  56  64  71  81  84  86  93  94  92  89  87  90  86  86  82  77  71  66  65  61  58  54  52  48  46  43  40  38  37  33  31  29  30  30  30  30  30  32  34  36  32  34  41  42  35  33  32  34  39  43  42  41  49  80 124 126 129 128 127 127 125 126
  96  99 103 105 106 108 110 112 112 115 116 117 120 117 119 108  90  72  61  65  58  52  50  58  56  47  43  44  47  57  68  79  83  87  92  98 104 104 100  95  92  92  92  90  86  82  77  71  68  66  63  59  58  54  51  48  48  44  42  37  34  31  31  34  35  35  35  36  36  36  36  34  35  35  36  37  33  31  34  38  43  40  40  44  94 125 129 128 128 128 128 127
 116 118 118 120 120 119 120 123 123 123 124 124 126 124 123 115  91  69  58  58  58  49  58  40  38  41  45  49  55  69  81  88  94 101 104 109 110 107 104 100  96  94  94  93  89  84  80  76  73  71  68  65  64  63  58  54  52  50  47  44  40  40  34  33  38  41  39  39  40  37  36  32  32  30  31  33  33  33  31  33  39  43  43  43  57 119 128 128 129 128 128 126
 119 121 120 121 121 123 124 124 123 122 124 124 124 124 126 121  90  58  47  40  36  36  40  38  37  42  51  56  69  84  95 101 105 109 113 114 112 108 107 102  98  94  93  92  90  88  82  79  78  71  71  69  70  68  64  63  58  54  54  49  47  44  40  38  37  41  43  45  44  43  42  36  32  30  28  28  28  28  30  31  35  37  40  43  49  94 126 129 128 129 128 128
 120 119 121 121 123 123 125 124 125 125 126 127 127 125 126 122  81  56  45  37  34  38  39  38  41  47  60  69  83  96 103 110 112 117 119 116 114 112 111 106 100  96  94  93  92  88  84  82  79  78  75  74  73  72  70  69  66  64  58  57  54  53  49  46  43  40  39  44  44  45  43  41  37  30  29  26  25  27  26  27  31  33  37  40  47  77 121 128 130 129 127 130
 120 122 122 124 125 124 125 125 124 126 127 126 128 127 126 125  80  53  43  35  38  41  38  42  45  57  71  86  95 106 111 115 122 121 122 120 117 114 112 107 102 100  98  96  94  91  87  87  86  84  79  78  76  76  75  74  74  72  71  68  65  65  62  58  56  51  49  47  48  48  47  45  43  35  28  26  24  24  27  27  27  29  33  37  50  68 104 119 124 125 128 129
 122 123 121 124 125 125 124 125 127 126 126 126 128 128 126 126  86  50  45  42  37  35  40  42  50  70  87 102 109 116 120 122 126 126 127 123 121 119 116 111 107 102 100  98  96  92  92  92  89  84  83  80  79  80  78  76  74  76  77  77  77  77  76  73  71  70  69  69  64  63  61  62  58  50  34  28  25  22  22  25  28  29  31  37  45  50  56  71 106 126 129 129
 121 123 124 125 125 125 125 124 126 126 126 127 125 128 127 123  71  48  42  38  37  38  43  46  65  87 106 115 120 122 124 127 131 132 129 125 122 122 119 113 110 105 103  99  98  96  93  94  92  89  85  83  80  81  81  81  81  80  82  83  83  84  83  86  84  83  83  81  80  79  76  77  80  74  51  31  25  23  23  23  26  27  30  34  43  49  58  70 114 128 129 129
 123 125 124 124 125 126 125 128 127 127 126 127 127 128 128 122  76  48  39  36  38  40  47  54  86 103 118 122 126 127 125 130 134 134 130 126 125 122 120 117 115 111 106 100  99  97  96  96  93  90  86  84  83  84  84  85  84  87  86  87  87  88  89  93  91  93  91  90  89  88  85  86  87  88  74  43  29  25  24  24  25  25  27  29  35  45  69 110 125 130 130 130
 123 125 125 127 124 126 126 127 129 128 128 129 130 129 128 122  88  57  43  38  37  43  48  72 105 115 124 126 128 126 124 134 136 135 135 134 131 126 122 123 119 114 108 104 101  99  98  97  95  92  88  88  85  86  84  87  88  90  90  90  89  92  92 100  97  97  97  96  95  95  94  95  95  96  86  60  37  29  26  26  25  25  25  27  35  65 116 121 127 129 132 133
 124 123 125 125 126 127 127 126 127 127 128 129 130 129 129 122  74  54  42  37  37  46  56  93 114 125 127 128 127 132 134 139 139 141 141 139 137 132 128 125 121 118 111 104 104 102 100 100  98  95  93  90  90  89  91  91  92  93  94  94  97  98 100 106 102 101 103 102 101 104 104 104 107 103  94  69  46  32  28  26  30  29  28  28  32  63 116 127 129 129 130 131
 125 124 127 127 126 127 128 127 128 129 129 129 129 131 129 112  54  47  40  42  42  50  78 108 119 128 129 129 132 137 139 143 144 144 142 141 139 132 131 126 121 115 110 109 106 104 104 102  98  98  99  95  96  93  96  97  97 100 101 103 106 106 107 116 112 107 108 109 110 110 110 111 111 107  97  77  54  38  32  29  30  30  31  34  31  38  87 120 126 129 131 131
 127 126 126 127 127 127 128 128 129 130 130 130 129 131 128  99  52  39  36  43  47  69  97 116 128 130 133 135 138 140 143 146 146 145 142 141 138 131 125 121 116 112 109 110 110 107 107 104 100 100 102 103  99 101  99 103 104 105 106 110 110 113 118 125 121 115 114 112 113 113 112 115 115 113 105  84  59  42  35  33  31  30  34  46  44  35  52  94 110 119 126 129
 127 126 127 127 128 129 129 130 130 130 131 131 132 131 123  85  50  35  36  45  58  86 109 124 132 134 136 140 142 144 147 147 145 143 137 137 131 127 124 120 116 110 109 108 108 108 105 107 103 105 106 106 103 102 103 106 106 107 107 111 111 115 119 126 126 121 119 117 115 118 115 117 117 116 108  91  68  49  38  36  33  32  33  57  78  55  55  88 104 123 127 133
 127 129 128 129 130 132 133 132 130 132 132 133 134 129 117  81  50  32  40  49  62 100 124 133 135 136 137 143 147 148 147 146 144 136 134 130 124 121 119 117 113 109 106 107 107 105 107 107 105 109 110 106 105 104 104 104 106 108 108 109 111 116 118 120 124 123 122 120 119 118 117 116 118 119 114 100  74  53  42  37  34  31  32  39 105 113 117 121 125 129 132 132
 129 130 130 132 132 131 133 135 134 133 134 135 134 128 112  94  52  34  38  54  65 116 137 139 139 140 144 149 147 148 146 143 135 128 125 119 118 116 112 112 111 106 104 105 104 105 106 110 108 106 108 108 106 101  99  99 100 102 102 105 107 111 114 116 121 122 123 122 121 119 118 117 118 119 116 106  81  59  47  41  36  32  29  35  67 126 131 134 136 135 134 133
 131 133 132 133 134 134 135 135 136 136 135 137 135 124 108  96  51  36  40  52  64 128 146 146 145 146 150 149 146 142 138 133 128 122 116 114 110 109 109 108 107 103 102 102 102 104 106 107 106 105 104 106 103  99  94  96  96  97  98 100 104 107 108 110 114 120 120 121 120 120 117 119 118 118 116 110  90  62  48  43  39  35  31  31  43 115 133 137 136 136 136 134
 133 135 134 136 135 137 137 138 138 138 137 137 138 124 119 100  52  37  39  53  71 143 154 152 151 150 156 151 140 131 129 124 117 110 104 101 100 102 100  98 100 100  99  99 101 104 103 104 102 100 100 100  96  94  93  93  94  96  96  95  98 103 104 108 110 116 121 119 120 122 119 119 119 119 118 112  96  66  50  45  42  39  34  36  46  95 133 137 137 135 136 136
 137 138 137 140 139 140 139 140 141 142 142 142 140 129 129  98  58  42  38  52  75 155 161 162 161 160 156 139 124 115 111 101  95  80  75  75  80  81  83  86  92  94  94  98  99 102 100 101  98  96  95  94  91  90  88  88  90  91  91  91  91  97 100 102 106 111 119 124 124 124 122 118 119 120 119 114 101  70  51  47  42  38  36  47  62 115 135 138 139 137 137 138
 139 140 140 141 142 143 142 142 143 144 143 145 144 137 138 114  62  45  38  51  69 163 166 167 158 145 126 108  96  87  74  65  58  53  49  50  57  60  64  75  81  87  89  92  97  99  99 101  97  93  90  86  80  78  74  78  74  73  77  80  79  82  86  88  95 101 110 114 119 123 121 121 121 117 118 117 106  72  50  47  38  37  38  51  75 118 138 139 140 138 138 139
 141 142 142 144 143 143 144 145 145 145 145 146 148 146 144 123  55  45  36  48  80 172 170 154 127 106  88  75  64  58  51  46  46  45  43  38  44  50  53  63  71  78  86  88  91  96  95  96  94  89  86  77  70  66  61  63  59  54  48  45  48  54  56  61  70  79  87  97 106 115 120 121 119 118 118 116 109  72  47  47  38  37  41  49 109 129 138 139 142 142 143 142
 144 144 143 146 145 146 146 147 148 147 149 148 150 150 147 129  54  44  37  46  93 166 133 113  97  84  69  57  51  48  44  45  46  46  45  43  43  47  50  54  64  71  82  86  90  90  90  91  90  87  80  75  62  56  50  52  51  44  38  35  34  33  36  39  44  49  58  66  75  89 102 116 120 118 120 120 112  69  45  45  38  37  41  52  91 133 142 143 143 143 143 143
 146 147 145 148 148 151 150 149 149 148 151 152 152 151 150 138  61  52  42  48 106 141 105  97  88  82  74  73  71  70  64  62  56  56  53  50  53  50  50  54  62  69  79  86  88  86  87  87  86  82  75  68  57  52  48  47  45  41  36  33  32  33  35  35  38  37  41  51  61  67  75  87 106 114 118 120 113  68  43  45  38  38  47  66  93 136 143 145 145 143 142 144
 149 150 151 151 151 153 152 153 152 151 152 154 152 153 151 137  67  62  47  45 111 128 113 103 102 101  99  95  94  92  88  86  85  80  76  76  71  69  63  58  65  73  82  86  90  90  86  85  84  82  75  66  61  55  50  49  44  40  40  38  38  41  43  43  43  44  45  49  52  61  65  68  80  88 109 119 116  61  40  42  36  38  49  62 121 140 145 147 145 145 145 144
 149 151 152 154 153 154 156 154 154 153 155 156 156 154 151 136  72  73  44  47 116 130 115 115 120 117 116 106 103  98  92  88  84  82  81  82  80  82  82  79  78  82  86  90  93  93  89  85  81  81  79  69  65  62  60  61  55  54  58  62  63  67  66  69  69  68  67  65  58  62  64  70  70  73  85 111 115  62  39  38  35  38  48  56 123 144 146 146 146 146 145 144
 152 154 154 157 154 156 157 157 156 157 156 158 158 157 154 149 142 134  79  54 135 139 123 124 127 121 114 106  99  90  81  77  72  68  71  76  77  79  80  82  87  89  91  96 100  97  93  88  83  84  80  74  71  69  67  67  64  64  64  66  67  70  70  70  73  76  79  80  80  81  75  78  77  75  80 102 117  66  41  40  34  34  43  66 123 145 146 148 148 148 147 147
 156 156 157 158 158 158 158 159 158 159 159 159 160 159 160 158 170 148  83  54 135 138 127 126 123 111  97  80  65  55  45  39  37  40  46  54  60  71  73  75  80  88  99 106 113 109 100  93  89  88  83  76  72  68  62  61  60  55  50  49  48  50  51  57  63  73  80  84  89  91  90  90  85  81  82  99 117  67  42  37  36  37  43  66 128 147 151 152 150 152 151 151
 158 158 158 161 160 161 162 160 161 161 162 163 162 161 161 162 148 125  78  58 138 139 126 124 114  87  69  50  54  55  33  30  28  29  35  49  51  53  62  70  75  84  95 113 123 118 109 103  99  95  85  77  67  60  58  53  44  41  43  42  40  32  28  28  34  42  57  71  82  92  98  97  94  94  96 107 118  72  44  39  39  39  38  62 122 148 152 151 151 152 151 151
 160 160 160 161 162 163 163 164 164 163 164 164 165 164 164 164 146 115  72  58 141 139 126 115  90  72  50  72 102  74  37  27  22  27  32  50  49  49  55  62  71  80  91 114 124 121 113 110 103  98  83  70  62  60  53  47  44  44  43  52  41  29  25  22  27  39  45  46  62  79  91  98 100 100 101 112 122  82  46  39  41  37  40  56  91 141 152 153 154 154 153 151
 164 164 164 164 164 166 165 165 164 164 166 165 167 167 166 165 151  87  56  61 153 137 122 105  83  59  53  95 109  66  41  31  25  30  33  53  51  46  43  59  69  82  94 116 123 121 115 111 106  98  81  67  63  59  52  49  43  45  48  55  34  28  22  20  29  40  74  54  43  63  75  93 100 100 104 117 125  87  47  43  37  41  44  66  85 123 151 155 154 155 153 153
 165 164 165 167 166 167 168 167 166 166 166 166 167 167 166 163 128  66  51  72 154 135 118  96  81  83  79  80 104  95  47  39  31  32  37  49  45  41  42  59  78  85 101 120 125 126 121 119 111 103  86  65  58  54  51  39  37  42  48  53  34  30  23  25  38  48  83  74  43  47  64  81  94  99 105 116 126  97  46  42  42  48  58  75  78 106 151 156 157 157 155 156
 166 166 166 167 167 168 170 168 167 168 168 168 169 168 168 170 145  56  57  72 161 140 121 102 100 106 105  95  89  86  72  56  53  53  55  54  54  57  65  74  85  94 112 128 134 135 129 128 124 117  98  71  61  57  50  41  38  38  41  48  40  31  29  32  43  72  78  59  48  48  57  71  84  93 101 115 126 104  47  43  48  57  68  67  76 104 150 158 158 159 158 158
 168 169 168 170 169 170 170 171 170 171 168 171 171 170 172 172 118  68  82  75 167 157 136 118 115 119 117 113 105  97  88  80  73  70  67  66  66  67  72  82  93 105 121 134 143 141 136 133 132 130 110  83  66  57  51  50  47  45  44  46  48  45  41  44  56  59  58  64  69  67  60  62  75  90 104 117 126 110  47  42  58  77  84  65  72  92 147 158 158 160 160 159
 170 170 171 171 171 171 171 172 172 171 172 173 173 173 172 158 104 105  93  78 174 179 167 151 134 123 117 114 109 101  94  83  76  71  66  68  72  77  83  96 107 117 126 137 144 143 138 135 133 133 118  98  79  66  56  51  52  50  49  50  53  56  59  61  65  66  74  86  93  90  76  70  77  90 106 119 127 113  54  44  61  79  89  63  63  85 144 161 161 160 161 160
 171 171 171 171 172 173 172 173 172 173 173 173 174 173 173 149  99 126  99  80 177 188 182 166 151 135 119 107  99  90  84  78  76  75  78  81  84  90 101 110 116 124 133 141 150 151 144 142 138 134 124 111  90  79  70  57  54  54  53  54  58  61  67  73  80  84  91  97 100 102  98  96  95 102 113 121 128 116  52  44  58  75  91  71  68  89 152 162 162 163 161 162
 173 173 174 173 175 174 174 175 174 175 174 176 175 175 174 158 120 124 106  81 178 187 185 175 167 156 137 120 108 101  97  94  93  92  93  93  99 107 114 120 123 128 139 147 155 160 153 145 140 134 127 117 102  86  82  71  62  61  61  60  59  61  65  68  75  80  86  95 103 110 112 113 112 116 120 122 128 115  57  47  65  87 100  80  70  96 155 162 164 162 163 162
 174 174 173 174 176 175 176 176 177 177 176 179 176 177 177 172 137 106 100  78 173 184 186 183 180 172 154 134 120 111 108 104 104 103 104 108 112 116 122 123 126 131 145 157 167 168 159 150 139 133 126 121 109  95  86  84  77  72  68  67  68  68  70  73  76  84  90  99 109 114 115 119 121 122 123 126 130 118  64  48  76  94 102  91  75 111 161 162 163 163 164 164
 178 178 176 176 176 175 178 178 179 179 177 180 179 178 180 177 143  96  87  80 170 182 190 193 188 180 162 142 129 119 116 113 111 110 111 112 113 118 123 126 128 139 153 165 175 169 161 151 140 135 126 122 114 102  90  86  88  84  80  78  79  78  81  84  88  97 104 108 116 120 120 120 123 124 124 127 129 112  65  55  78  93 100 101  82 132 163 165 165 166 165 165
 180 180 178 180 179 179 178 180 180 180 179 181 180 181 179 178 153  97  78  77 167 181 192 197 190 181 163 148 136 125 119 114 113 111 109 110 116 119 124 125 132 148 163 171 174 164 157 146 140 134 129 123 116 109 100  92  89  91  89  87  87  92  97 100 106 110 114 117 121 124 124 124 124 123 123 127 128 106  65  61  77  85  90 106  97 155 167 167 167 166 166 167
 180 181 181 180 181 180 180 181 181 181 181 181 182 182 181 183 167 129  80  79 162 180 188 190 182 175 163 152 141 129 121 114 110 109 110 111 116 123 127 128 139 160 168 163 160 157 149 143 138 138 133 127 121 114 108  99  93  93  91  90  93  98 102 105 107 113 120 122 124 125 125 124 125 124 125 128 127  94  64  63  73  74  80 100 119 162 167 169 168 169 168 167
 181 181 183 181 182 182 181 182 182 182 183 182 182 182 183 185 175 168 132  81 158 176 178 178 172 164 159 149 142 131 122 116 110 109 108 112 118 124 128 127 152 167 169 165 162 154 143 139 137 137 130 129 123 115 112 105 101  96  92  91  94  98 102 105 107 110 117 121 124 126 126 125 125 126 125 127 125  87  89  68  66  65  69  95 133 166 168 169 169 169 169 168
 182 182 183 182 181 184 183 183 183 184 183 185 184 185 185 184 179 161 176 161 163 169 167 171 166 161 153 147 138 129 123 118 114 109 111 114 120 126 127 131 167 174 172 170 166 153 144 139 136 132 131 129 128 117 109 108 105 101  97  94  96  98 104 108 110 112 115 117 117 122 124 124 124 125 127 128 123  87 110  73  61  60  67  97 143 167 169 171 171 170 171 170
 184 184 183 183 182 185 185 184 185 185 186 186 186 187 186 187 186 172 161 190 172 168 165 165 164 159 157 144 137 127 121 115 113 110 110 115 120 124 126 151 170 173 178 172 161 145 140 137 134 131 128 127 125 122 110 107 106 104 101  98  96  99 105 107 111 114 116 117 115 117 120 122 125 126 128 129 117 100 115  73  60  63  77 107 154 171 170 171 170 170 171 171
 184 185 186 185 184 186 185 186 187 187 186 186 187 187 187 188 189 195 204 193 162 161 158 160 160 156 148 137 134 127 123 117 114 113 112 113 117 121 142 164 166 170 173 160 145 130 125 125 125 124 123 121 121 122 118 109 101 101  99  99  95  98 103 106 109 113 117 117 116 116 119 119 124 124 125 129 115 110  97  68  64  80  98 118 162 171 172 172 173 173 172 171
 184 184 186 186 186 186 187 187 186 187 188 187 187 188 189 189 190 196 207 172 147 155 152 154 156 150 143 137 131 125 121 116 113 113 111 112 116 126 155 156 150 156 155 140 125 114 108 112 112 112 113 111 114 118 117 114  98  95  94  99  99 100 101 106 109 109 115 117 118 117 120 119 121 124 124 126 116  97  96 111 104 100 106 134 169 172 174 173 173 173 172 173
 186 187 186 188 187 187 187 188 189 187 189 189 189 189 189 189 188 190 174 146 136 148 146 152 149 140 139 133 129 126 122 116 115 110 108 108 110 134 149 138 132 133 131 124 115 107 104 104 102 102 101 104 105 110 113 113  92  88  91  94  96 100 103 105 108 113 114 117 120 120 120 121 121 121 123 123 112  77  97 121 109 100 110 156 171 173 174 173 173 173 173 173
 188 188 187 188 188 188 190 188 188 188 189 190 189 188 191 189 189 189 159 138 130 144 143 143 137 140 137 132 128 124 123 118 115 111 109 106 108 134 135 124 116 116 117 113 109 102  99 101  99  96  94  95 100 103 108 111  90  82  87  92  93  96  99 104 108 110 112 116 120 118 119 122 120 121 122 121 114 106 107 119 117 113 135 168 173 174 175 174 175 174 173 174
 188 188 187 188 188 189 188 188 188 189 190 191 190 189 190 190 193 192 185 150 136 142 144 141 132 132 132 125 123 123 121 116 113 110 106 104 108 124 121 108  92  74  91 111 106  96  94  98  99  84  67  67  89  98 104 106  90  81  84  89  92  96  96 102 104 109 112 117 118 119 118 120 119 118 121 118 109 109 104 110 122 130 162 172 174 174 175 174 175 174 174 174
 189 188 188 188 189 189 189 190 190 190 190 191 190 190 190 192 192 192 192 185 156 136 142 138 133 127 130 124 122 122 118 114 110 108 104 105 108 114 109  93  68  56  51  98 106  98  94  97  86  57  38  34  51  88  95 100  87  82  82  85  90  94  97 100 102 106 110 113 117 116 117 121 122 120 123 111 100 100  99 104 117 150 173 175 175 175 175 175 175 176 175 174
 189 188 189 188 189 190 189 190 191 190 192 191 192 193 193 191 192 192 194 192 191 178 145 139 137 131 129 128 125 121 117 110 109 106 106 108 114 117 111  96  83  79  84  98 107 100  96  93  82  73  64  53  58  76  92  99  91  87  85  84  88  92  97 101 103 105 108 114 117 118 120 120 122 121 123 113 110 106 108 105 135 170 174 176 178 178 176 175 175 174 175 174
 189 188 189 189 190 190 189 190 191 190 192 192 192 192 192 193 193 195 194 194 194 189 156 138 137 131 129 128 127 122 117 112 108 105 108 113 120 121 117 107  96  93  95  98  96  94  90  87  79  76  74  71  68  79  99 104  98  92  89  83  85  89  93  96  99 102 104 109 115 119 119 120 123 122 122 110 111 111 111 127 167 174 175 176 177 178 179 177 175 176 175 175
 189 189 189 190 190 191 191 190 192 192 192 193 192 191 194 194 196 194 193 195 195 192 164 140 137 132 129 126 125 122 115 112 108 108 113 121 126 125 120 115 107 106 103 101  94  87  85  84  79  77  78  80  79  93 105 106 102  94  92  89  85  88  92  94  99 100 105 108 114 118 118 122 122 124 124 106 103 112 139 168 174 176 177 178 177 178 176 177 179 176 176 176
 188 191 190 191 191 191 190 191 192 192 193 194 192 193 194 195 194 195 194 194 195 194 175 142 136 133 129 126 123 123 117 110 107 109 117 123 130 126 124 119 108 106 102  98  94  90  84  86  83  83  83  84  89 101 108 110 106 100  92  86  87  86  90  92  98 100 106 108 111 117 120 121 122 125 143 167 163 171 174 178 179 178 176 178 177 178 178 179 178 178 176 177
 189 190 190 191 191 192 192 191 193 192 193 191 192 194 195 194 194 195 195 195 195 195 180 144 139 137 131 127 124 120 114 110 110 112 122 127 133 130 126 124 115 107 103  96  92  87  82  87  83  83  82  88  96 104 106 106 107 102  94  91  90  89  88  91  96 100 104 107 112 116 120 119 120 124 156 175 178 179 179 180 180 180 180 177 180 179 180 178 176 178 178 176
 190 190 191 191 191 192 193 192 191 191 193 192 193 193 194 195 194 194 194 195 195 195 187 148 141 138 132 127 125 118 111 109 115 118 126 131 135 130 127 129 123 115 104  97  91  83  79  87  84  79  79  91  99 102 103 103 105 102 101 100  97  92  91  91  94 100 103 106 111 116 120 120 122 125 163 179 180 180 180 180 179 180 180 179 180 179 180 180 179 179 178 176
 192 191 189 191 191 191 194 194 192 192 193 193 195 195 194 195 197 195 195 195 194 195 189 154 141 140 132 124 123 114 109 117 120 126 135 140 137 133 132 132 125 119 106  97  87  79  79  85  85  83  87  92  97 101 102 100 101 102 102 100  99  97  92  91  94  99 104 106 114 115 120 120 123 129 171 180 181 181 180 181 180 180 180 180 180 182 180 180 179 179 179 179
 190 189 190 189 190 191 192 193 193 194 194 194 193 194 195 196 197 197 195 195 196 195 191 159 141 138 131 125 124 111 114 121 124 132 138 138 139 137 137 134 125 120 106  97  84  75  76  81  86  85  87  93  96 101 102 102 103 103 103  99  98  98  93  94  97 100 103 108 113 117 120 119 124 136 174 181 182 181 181 180 181 181 181 181 180 181 180 180 180 179 180 179
 190 190 190 192 192 191 191 194 192 193 193 192 194 196 196 196 196 196 196 195 197 196 193 170 144 139 130 126 123 115 121 123 124 125 128 132 136 136 134 130 123 119 108 100  89  81  80  83  88  91  94  98 101 104 105 104 103 102 102 101 100 100  97  97  99 100 104 108 111 117 118 121 124 146 177 181 180 182 182 182 181 180 181 182 181 180 181 180 181 181 180 181
 189 190 193 191 192 192 192 193 193 195 193 197 194 195 195 195 195 196 196 196 196 196 195 179 143 139 130 126 125 119 121 116 107 102 107 113 116 115 111 106 100  95  93  95  95  93  91  89  86  87  88  92  98 104 105 105 104 102 101 101  99 100 100  99 100 102 106 108 111 116 118 121 126 154 179 183 182 181 182 182 181 182 182 182 182 182 182 181 181 180 180 182
 190 191 192 193 192 193 193 192 195 194 193 194 194 196 197 196 196 195 196 197 197 197 198 190 147 138 131 127 126 121 118 108  94  82  64  74  85  85  84  81  80  81  81  81  86  88  88  83  75  71  72  77  81  89  94  98 101  99  97  95  94  96  98  99 100 102 106 109 114 118 120 121 128 165 183 184 182 183 182 183 182 182 182 183 181 183 182 181 181 180 180 180
 192 192 192 191 192 193 192 193 192 194 194 196 194 195 197 197 198 196 196 196 198 196 194 193 160 138 131 127 126 123 120 110 105  98  89  77  77  76  72  67  67  75  79  77  74  73  73  71  70  66  69  68  69  70  73  77  81  83  74  78  85  88  95  98 101 104 106 107 113 118 120 122 134 174 182 182 182 183 182 183 182 182 182 182 181 182 181 180 181 181 182 180
 192 193 193 191 192 193 194 194 195 194 194 195 196 196 196 198 197 196 195 196 196 196 196 194 178 138 132 127 126 124 119 115 112 112 113  99  91  88  86  74  56  51  55  62  65  68  66  66  66  65  64  60  61  61  62  63  60  54  46  61  77  83  91 100 102 103 104 108 113 118 121 124 145 180 182 183 183 183 182 182 182 182 183 182 182 182 183 181 182 181 181 181
 192 193 193 192 192 193 193 193 195 195 194 195 196 196 196 199 196 196 196 196 195 196 196 195 191 146 134 128 125 123 121 118 115 119 117 107  99 100  98  90  82  74  60  50  43  40  40  41  39  34  36  42  43  44  49  54  56  58  68  78  81  82  90  99 101 104 105 112 115 117 118 122 157 182 183 184 184 182 184 182 183 182 183 183 183 183 182 182 183 182 180 180
 194 194 192 190 193 193 194 192 195 196 195 196 195 195 196 196 195 196 196 196 196 196 196 195 193 170 134 127 127 123 122 118 120 118 118 114 108 103 106  98  85  79  74  69  62  52  48  50  48  50  52  56  58  63  66  68  67  73  84  85  86  85  89  97 102 102 105 110 114 117 119 140 179 182 182 182 183 182 183 182 183 183 182 183 180 183 182 182 182 182 182 181
 193 193 192 192 193 194 192 193 194 194 195 196 194 194 195 196 195 195 196 194 197 195 195 196 195 190 142 126 126 124 121 118 118 119 120 119 115 108 106 104  90  81  76  74  73  69  65  61  59  60  64  68  78  84  79  78  84  91  91  92  91  91  93 100 103 104 108 109 112 115 123 168 182 184 183 184 184 183 183 183 182 183 183 182 182 181 182 182 180 181 182 182
 191 192 193 192 192 194 193 194 194 195 194 195 195 196 196 195 195 195 195 193 196 195 194 193 194 194 171 128 124 123 121 110 113 116 117 116 117 107 102  98  95  85  80  78  75  73  69  69  67  67  69  75  83  82  82  86  96  98  97  93  93  93  96  99 103 104 106 109 112 114 149 179 183 183 183 183 184 182 182 182 183 182 180 182 182 181 182 182 182 180 181 180
 191 191 192 192 192 192 192 193 194 194 194 194 194 195 197 195 195 195 194 193 194 195 195 194 194 193 189 147 127 124 121 110 111 118 116 116 115 110 105  95  90  87  83  78  74  72  73  74  71  72  73  78  77  79  85  91  97  98  96  96  95  93  97  99 104 105 106 109 111 126 172 182 184 184 184 183 183 183 182 182 182 183 183 184 184 182 182 183 182 180 181 182
 190 191 190 191 191 191 192 194 194 194 195 195 194 196 196 196 195 193 194 194 194 193 194 195 196 194 191 173 128 124 122 119 116 117 115 115 113 109 106 101  92  87  86  80  75  72  71  72  71  70  72  74  76  82  90  91  93  96  95  97  95  95  98 103 104 105 105 109 112 144 176 182 182 183 183 183 183 182 183 182 181 183 182 183 184 183 182 182 181 180 180 181
 192 191 191 192 190 191 192 193 194 194 194 195 195 196 195 195 193 194 193 194 194 194 192 193 195 194 192 177 139 123 123 123 120 118 118 117 113 109 104 102  97  93  88  84  79  75  70  68  69  71  72  79  84  87  90  93  93  92  94  97  95  95 100 103 105 105 105 107 119 150 178 182 184 183 183 183 182 182 182 182 182 183 183 183 183 182 182 181 181 180 180 180
 190 190 191 191 191 191 192 192 193 196 194 195 194 195 196 194 194 193 193 193 193 193 193 192 193 193 193 178 145 127 120 122 122 122 119 116 115 112 106  99  94  90  86  84  80  79  76  74  77  82  82  84  85  88  90  92  92  93  95  95  97 100 100 105 107 105 105 108 122 153 179 183 182 183 183 183 183 182 182 182 182 183 182 182 180 181 182 180 180 182 182 181
 190 190 190 190 191 191 192 192 193 195 193 194 193 195 195 194 193 191 191 191 192 191 192 192 192 192 191 176 149 132 120 121 123 124 123 122 119 116 108 104  96  92  85  77  74  71  69  70  71  75  79  82  84  87  91  92  92  93  95  98  99 102 103 103 103 102 106 112 119 159 180 182 182 182 182 184 182 182 181 182 181 182 182 182 181 181 181 181 180 181 180 180
 189 189 190 191 190 191 190 192 193 192 193 194 195 193 195 194 191 192 192 192 190 190 192 192 190 189 191 176 150 138 127 118 123 123 123 122 121 115 113 109 105  96  90  83  76  73  70  69  71  71  75  81  86  89  92  93  94  95  95 100 102 105 104 102 100 105 111 115 121 160 180 183 184 182 183 183 183 182 182 182 183 182 180 182 181 183 182 181 182 181 181 180
 189 190 190 189 190 190 190 193 192 193 193 192 194 192 194 192 191 191 190 191 191 192 190 190 190 162  94 145 149 139 130 122 117 122 122 123 122 117 116 113 108  99  91  86  83  81  74  70  72  73  75  82  89  91  94  96  97 101 100 100 102 103 101  97 102 109 111 116 125 167 181 182 182 182 182 182 182 182 182 182 183 181 180 182 181 181 180 180 180 181 180 178
 189 190 189 190 190 191 190 190 190 191 192 192 193 193 192 190 190 190 191 191 190 191 190 186 161  75  41 150 150 140 133 126 117 117 119 122 120 118 118 114 109 100  91  87  85  83  76  76  75  81  82  90  94  96  97  98 101 101 102 102  98  98  97  97 105 109 114 114 123 169 181 182 180 181 183 183 182 181 180 182 182 181 181 182 181 182 182 182 180 182 181 179
 189 188 190 190 189 190 190 190 190 190 191 192 191 190 191 190 189 190 190 191 188 179 152 120 110  65 129 164 150 140 134 125 120 114 114 116 119 119 117 114 108 100  91  91  88  87  83  80  81  84  88  92  96  99 100 102 103 101 101  98  96  94  95 101 106 111 114 113 120 173 181 182 181 182 183 182 182 180 180 182 182 182 182 182 181 181 179 179 180 181 179 179
 189 188 188 189 189 188 188 188 189 189 190 192 192 191 189 189 189 190 174 153 130 118 115 114 105 178 205 164 149 141 135 127 121 113 109 115 118 120 116 112 105  98  92  90  90  88  86  84  81  85  92  91  94  97  99 100 102 100  98  93  87  90  98 102 107 110 114 113 123 174 181 181 181 182 182 181 181 181 182 180 181 180 180 181 180 180 180 181 180 180 181 178
 186 188 189 188 188 188 188 190 191 190 190 191 191 190 188 189 176 138 116 116 116 112 109 106 151 219 216 164 147 140 132 125 119 117 108 109 115 115 113 108 101  98  92  89  90  89  87  87  86  87  91  92  92  94  98 100  98  96  94  86  86  92 101 104 106 108 111 116 123 173 171 179 184 181 180 182 181 182 181 180 180 180 180 181 181 180 179 177 178 181 179 180
 187 188 188 187 188 188 190 190 190 189 190 191 189 191 173 136 115 115 111 115 109 104  99 101 201 219 208 161 145 138 131 122 116 117 114 110 107 107 106 106  99  94  92  88  88  89  88  89  88  89  88  92  94  94  96  98  94  92  88  89  90  97 103 105 106 106 112 114 119 108  79  76  96 162 177 180 181 181 180 182 182 180 182 181 181 179 180 180 180 181 179 178
 185 185 188 187 187 188 188 188 189 189 188 190 175 142 116 109 108 107 110 111 103  97  94 103 216 218 193 157 144 137 130 123 118 115 115 117 106 102 104 102  96  90  91  86  85  88  88  87  87  87  86  88  88  93  93  91  88  85  82  88  97 103 107 106 106 107 110 112 118 121 111  82  67  78 146 177 178 180 180 180 181 181 180 179 182 181 180 180 180 178 178 178
 184 186 187 186 187 186 187 187 187 188 172 141 117 113 110 108 107 106 109 103  95  89  94 115 210 214 189 156 143 134 128 121 118 115 116 120 117 102  98  97  94  91  88  88  85  88  88  88  88  85  85  86  86  88  87  83  82  86  88  95 100 106 104 104 106 107 109 113 116 123 124 121 108  67  71 105 138 162 177 178 180 181 179 179 179 180 180 179 178 178 178 179
 185 185 184 184 186 186 185 186 177 135 114 114 112 108 107 104 101 101 105  97  90  86  89 120 209 209 180 154 143 131 124 120 118 115 117 119 119 118 100  93  93  91  86  88  87  88  89  86  86  85  85  85  84  84  82  84  89  91  93  99 106 108 106 103 106 107 108 112 114 123 125 125 122 104  55  66  78  84 103 157 179 177 177 178 178 178 180 179 178 178 178 178
 185 185 187 186 183 179 159 137 106 104 110 108 107 105 100  98  97  92  96  90  85  83  89 123 208 203 173 152 141 130 122 120 118 117 118 119 121 119 116 102  90  87  87  87  89  86  87  89  88  87  85  84  80  81  88  89  90  96 102 106 109 109 107 105 106 108 108 113 114 123 125 123 124 121  77  55  61  60  71  73 102 156 178 177 179 178 178 180 179 178 178 177
 183 184 186 172 145 122 107  96  95 106 104 102 100  97  93  91  95  90  90  84  83  80  86 135 204 192 168 151 137 129 122 119 118 116 118 120 120 119 119 117 112 103  95  90  90  87  87  88  86  85  84  83  85  89  91  93  97 103 106 106 109 108 105 105 105 105 109 110 115 124 124 124 124 120  92  48  51  49  58  68  69  69 103 154 176 177 178 177 177 178 176 176
 182 161 128 114 106  93  86  91 104 103  98  94  92  96  86  86  83  84  91  82  82  78  82 133 198 183 162 146 136 127 121 117 117 116 118 119 119 119 120 119 118 115 111 108 103  98  93  92  89  89  90  91  89  91  93  95 103 106 110 109 108 108 104 103 104 107 108 111 114 121 124 124 126 123  94  49  46  44  46  57  65  60  61  65 107 167 174 176 177 177 177 177
 116 104 108  95  82  80  89 100  98  94  92  87  87  91  82  83  80  81  82  81  78  77  80 124 189 174 155 140 132 124 120 118 117 117 117 119 119 118 119 119 118 116 111 108 106 104 100 100  96  96  94  90  91  92  94  99 105 106 109 108 109 107 105 104 104 105 107 110 112 118 126 126 125 122  88  46  44  40  44  52  53  57  57  54  54  76 149 175 176 176 177 177
 100  99  88  74  74  85  97  97  86  88  82  86  85  84  77  78  76  84  75  78  78  77  77 107 181 169 151 137 129 122 120 118 117 116 116 119 120 117 119 118 118 117 113 108 105 103 100  97  97  96  92  89  89  93  96 103 106 109 109 108 105 104 101 100 104 106 107 110 113 116 121 124 125 119  68  43  41  40  45  50  51  47  51  56  51  49  54 116 174 176 177 176
  94  80  72  70  81  95  95  85  80  83  81  82  83  78  75  75  73  84  71  79  75  74  77  86 168 160 144 132 127 120 119 118 115 112 114 117 118 117 117 116 117 114 113 109 106 101  97  96  96  95  94  90  91  94  98 104 109 106 104 104 102 103 100 100 102 105 106 107 111 114 118 122 122 115  51  43  38  38  42  49  49  44  41  52  54  48  47  48  78 161 176 175
  76  70  71  75  92  93  83  74  80  82  80  83  86  77  73  70  73  86  69  73  74  76  74  82 139 150 137 126 121 119 119 117 114 113 114 117 116 116 115 112 115 112 111 110 105 103  98  97  95  95  94  92  93  97  98 102 105 104 101 100 100 100  99  99 101 103 105 107 110 112 114 120 121  95  42  41  36  38  40  48  45  44  39  40  52  51  45  42  47  58 120 168
