P2
# Generated by OpenCV 3.4.0
92 112
255
  79  81  81  82  83  84  83  84  85  86  88  87  88  89  94 103 101 114 127 124 167 190 167 163 163 153 134 128 105  88  71  67  59  61  53  56  50  46  44  44  42  42  39  35  28  30  27  23  29  40  57  63  59  54  55  56  58  59  54  46  40  40  39  39  37  38  40  42  44  46  46  48  61  75  85  88  89  88  89  87  87  87  90  89  87  89  88  88  87  88  87  87
  81  81  82  84  84  84  86  85  87  88  88  89  90  93 101 110 121 119 144 185 190 169 171 176 164 177 171 125  88  74  70  67  63  52  48  48  43  41  42  40  35  33  33  26  25  22  19  23  26  33  47  51  50  55  67  69  65  55  48  43  40  38  38  35  36  38  41  42  40  45  50  51  47  49  70  81  88  88  89  90  89  89  90  88  89  89  88  88  87  88  88  90
  80  82  84  84  85  84  86  86  85  86  87  88  88  92 104 111 117 126 163 163 156 170 169 180 203 179 127 115 110 100  77  68  60  50  47  44  40  37  36  35  31  30  29  22  18  17  18  22  25  28  30  34  42  51  59  60  53  47  43  38  34  32  34  37  34  39  42  42  44  42  42  50  52  50  50  64  85  89  90  89  89  90  90  89  89  88  90  90  90  89  86  88
  82  83  85  86  84  85  87  86  86  89  91  94  94  95 107 116 134 155 149 156 166 166 169 172 161 150 156 151 126  97  75  57  49  44  39  38  36  37  37  38  32  27  23  19  18  18  19  21  21  21  26  28  29  30  30  33  42  40  34  30  28  27  28  28  28  31  35  40  43  49  50  48  48  51  50  49  66  83  89  89  90  90  90  89  89  90  90  90  91  88  88  90
  84  83  84  85  85  86  86  85  87  87  89  89  94 104 121 131 153 145 140 146 137 134 146 162 175 181 182 151 116  81  62  51  41  37  37  36  34  33  32  33  30  28  23  18  20  24  24  21  22  19  18  19  20  20  23  23  22  18  16  16  20  20  22  25  25  26  27  30  32  36  40  45  48  50  50  48  50  68  85  89  89  90  92  90  88  89  90  90  91  89  90  90
  82  85  84  86  86  87  86  88  88  89  90  89  94 100 112 127 126 113 118 110 112 129 157 173 180 184 161 123 101  85  57  49  40  35  43  35  33  30  30  30  28  26  25  24  23  23  21  22  19  17  17  18  19  21  22  21  20  21  22  22  21  19  20  24  25  26  27  26  27  28  29  32  37  41  46  43  44  55  76  88  89  91  91  92  90  90  92  90  90  90  92  91
  84  85  84  86  86  87  88  87  86  88  87  88  93 102 112 115 102  99  95 109 129 153 154 156 155 138 136 120  99  65  41  38  37  32  36  34  35  33  33  32  29  28  26  24  24  22  24  27  26  26  28  27  26  27  25  24  24  24  24  24  22  21  19  19  20  19  20  23  26  29  32  32  34  33  36  41  42  45  62  84  89  90  90  90  90  91  89  90  91  91  91  90
  84  85  85  86  86  88  88  88  88  89  88  89  94 103 107  92  84  96 101 122 123 121 108 108 112 129 126  87  57  36  31  32  46  34  32  33  34  36  37  36  37  35  30  27  28  26  30  32  32  30  26  30  28  27  26  25  26  25  25  24  22  20  18  18  17  18  19  23  24  27  28  33  33  35  35  35  37  42  51  78  87  91  90  90  91  90  90  91  90  88  91  90
  83  86  86  88  88  88  88  88  87  88  89  92  98  93  83  78  84  90  97  95  95  87  92  90 105  89  68  43  38  34  31  37  41  38  38  41  45  47  50  49  47  46  42  34  30  28  30  28  26  24  24  26  24  24  25  24  24  24  23  24  24  24  22  22  23  22  22  22  21  22  25  25  29  32  36  37  36  36  44  63  84  90  91  92  91  93  92  92  92  91  91  91
  83  85  86  87  88  88  88  87  87  89  90  90  87  82  72  78  81  83  83  82  85  87  99  89  76  57  37  36  34  35  37  44  44  47  48  53  58  61  62  60  61  57  55  47  38  32  33  36  31  29  26  24  24  24  23  22  23  22  20  20  21  21  19  20  18  17  16  18  19  19  18  20  23  30  43  44  40  35  33  52  79  89  91  90  93  93  92  92  91  91  92  90
  86  86  87  88  88  88  88  89  89  87  93  87  86  81  85  86  86  81  83  79  82  85  78  65  35  37  40  41  39  44  47  49  53  58  62  65  69  71  68  70  69  67  60  54  49  42  39  38  35  33  30  27  26  25  25  24  23  22  18  20  19  20  19  21  18  19  20  19  21  21  20  17  21  25  37  49  50  45  35  45  70  87  91  92  91  91  92  90  91  91  91  92
  86  87  88  87  87  90  89  89  89  90  86  83  74  76  79  68  73  73  71  70  82  56  40  39  40  50  44  44  46  51  59  60  67  70  76  81  80  76  75  76  75  72  67  62  54  50  46  42  39  36  32  34  30  27  29  28  24  24  24  19  20  22  21  23  22  20  20  22  22  24  22  23  24  23  26  42  53  52  47  44  58  85  91  91  92  90  91  91  92  90  90  92
  86  87  87  89  89  88  89  89  89  89  85  79  71  77  71  64  62  67  64  60  40  37  40  38  47  47  47  50  55  64  69  72  80  86  89  90  85  81  81  83  81  78  74  66  59  55  52  47  44  40  38  37  33  31  29  29  26  27  26  22  20  20  21  23  24  25  24  24  22  22  21  22  24  28  30  32  45  50  48  52  49  75  88  93  92  92  91  91  92  90  90  92
  87  86  87  88  88  88  89  90  90  89  92  91  76  79  75  68  61  47  38  40  31  36  38  38  44  47  52  59  64  74  78  84  95 100 101  98  90  85  86  86  86  85  82  75  64  62  57  52  50  47  44  40  36  36  32  30  30  29  25  25  23  23  24  23  22  24  24  25  26  26  22  24  26  22  28  31  38  48  44  47  52  61  84  88  90  91  90  90  93  92  91  91
  86  88  88  89  90  89  90  90  91  92  87  84  74  75  53  37  38  39  36  31  34  40  40  41  47  53  63  71  76  83  90 102 109 109 108 102  96  91  90  89  90  88  84  80  71  65  63  61  56  52  51  48  45  42  38  33  32  30  31  28  26  24  25  23  23  24  24  25  26  31  35  30  28  27  23  25  30  41  45  44  45  50  72  88  93  92  91  91  93  91  91  91
  88  87  88  88  90  91  89  91  90  90  79  70  56  48  41  35  35  35  33  30  35  41  42  44  53  65  74  82  86  96 106 113 113 113 112 106 100  94  92  91  90  87  84  80  75  71  68  66  62  58  56  54  50  47  44  39  37  36  33  31  30  28  25  26  25  26  25  25  29  30  32  39  36  25  26  25  24  28  37  42  41  42  51  79  90  90  90  91  93  92  91  91
  87  88  89  89  88  90  90  92  91  89  79  62  51  44  39  32  34  34  35  33  40  46  46  53  65  78  86  92 101 111 117 120 117 116 112 108 104  98  94  92  90  89  86  81  78  74  70  69  64  63  62  60  56  54  51  47  45  43  39  34  34  32  29  29  29  29  30  29  29  30  30  31  38  36  27  24  25  24  29  36  42  43  43  59  86  89  91  92  92  92  91  90
  90  88  89  92  89  91  91  92  92  90  80  59  48  40  34  35  41  36  34  37  47  49  55  67  79  88  95 102 111 120 123 122 121 117 114 111 108 102  96  95  92  90  86  82  81  76  74  70  69  64  65  65  62  59  56  52  48  48  46  41  35  36  35  34  30  30  32  31  32  31  32  32  33  34  36  29  24  23  24  31  39  40  39  40  67  89  91  91  91  90  89  89
  88  88  91  90  89  92  93  92  92  93  80  58  45  38  34  38  40  36  34  44  51  56  67  79  90  97 104 112 122 126 128 125 120 117 119 113 108 102 102  97  93  92  88  85  83  80  79  77  74  69  68  68  66  64  62  60  54  51  49  48  43  39  39  39  41  36  35  36  34  34  31  32  33  32  33  34  29  25  23  26  32  37  37  37  43  78  87  88  89  86  87  85
  89  89  91  90  90  92  92  92  92  93  79  56  42  36  38  39  37  40  41  48  56  67  79  90  98 106 113 120 126 128 129 125 120 119 119 113 110 107 104 100  96  94  88  86  87  84  83  82  79  75  71  71  69  66  66  64  62  57  53  52  49  46  41  39  40  43  41  39  38  37  34  33  31  30  30  28  30  30  25  22  27  33  38  35  36  56  82  83  83  85  84  83
  89  91  92  91  91  92  92  92  91  94  76  50  50  42  39  36  37  39  47  55  71  83  95 101 107 114 119 125 130 130 127 122 121 123 117 113 112 110 105 103  97  94  90  91  90  90  85  84  81  76  76  76  74  70  70  68  67  67  61  57  57  52  48  44  42  40  42  43  40  40  37  35  31  30  27  26  28  27  27  23  24  26  33  35  34  39  79 100 103 106 107 107
  89  91  91  90  92  92  92  92  92  93  80  54  46  41  36  34  39  44  53  72  89  97 102 106 112 117 123 127 129 128 126 124 124 122 120 116 112 112 110 105 100  99  93  94  92  90  88  85  81  78  78  77  76  74  75  72  71  72  70  66  64  62  56  54  51  47  42  42  46  46  43  40  37  32  28  24  21  25  23  23  24  26  30  34  36  36  49 107 113 114 114 115
  87  88  90  91  92  92  91  91  91  92  83  50  41  35  35  37  41  47  64  91  98 103 106 112 112 120 127 129 130 130 131 128 125 121 120 119 118 117 111 106 103 100  95  95  93  93  90  86  82  80  77  77  78  77  77  77  76  76  74  75  72  71  67  65  60  61  58  54  48  50  49  47  42  36  30  24  20  19  22  21  23  22  29  32  34  35  44  97 115 116 117 116
  88  88  88  90  90  90  90  90  89  89  75  46  36  36  37  38  45  55  87  99 106 109 112 115 115 124 131 132 135 138 135 134 134 128 127 127 124 118 113 109 106 104 101  98  97  95  90  87  86  83  80  78  79  80  78  78  79  80  81  80  77  76  77  74  69  69  69  68  64  61  55  48  45  39  33  27  23  19  20  21  23  21  24  29  32  34  39  78 114 116 116 116
  84  82  83  84  84  84  85  85  85  85  69  58  41  36  36  40  49  70  99 108 112 113 116 122 125 131 134 137 141 142 144 141 136 133 133 129 125 122 118 109 106 105 103 102 100  99  96  94  91  88  86  83  81  83  83  84  86  84  85  83  82  84  85  86  83  78  75  74  72  70  67  64  58  54  43  29  22  18  17  20  23  24  24  25  31  32  37  64 109 116 115 115
  94  94  96 100 100 101 103 106 107 105  81  60  42  38  38  45  56  88 111 119 118 121 121 128 133 137 139 142 145 145 144 143 135 134 132 128 123 119 115 111 111 106 104 103 102 100 100 101 100  95  92  90  89  90  89  90  88  90  90  89  87  88  88  93  91  87  84  82  80  78  76  70  68  68  59  42  25  21  18  16  20  23  24  24  26  33  41  55  94 113 115 117
 112 112 112 112 115 114 115 115 116 109  74  53  46  42  43  51  73 105 121 124 125 128 130 134 137 141 142 145 145 142 143 140 135 132 126 121 120 114 113 111 110 111 106 105 104 103 100 103 103  99  97  94  95  94  96  97  95  95  96  98  98  96  96 101  93  93  90  90  88  85  83  81  79  78  72  58  32  24  21  17  16  19  22  25  27  32  37  40  52  82 103 110
 113 114 115 114 116 116 116 116 116 106  64  41  38  41  50  64  97 121 127 129 130 133 138 140 143 143 144 146 140 140 136 134 128 125 123 122 116 110 110 109 109 110 106 106 106 102 102 106 106 104 101 101 100 100 101 100 104 106 107 107 110 106 109 114 103  96  94  93  93  92  95  90  87  84  81  70  42  28  22  19  18  16  19  22  25  29  37  43  42  44  72 111
 114 116 115 115 115 116 118 118 117 100  56  36  37  46  53  80 118 132 132 133 136 142 146 146 142 142 142 137 134 133 127 125 120 120 117 117 112 108 109 106 108 107 106 105 106 104 108 111 106 102 101 101 102 104 104 105 109 109 111 111 116 118 119 121 113 106 100  99  99  99 100 100  98  94  87  77  53  31  24  22  21  19  18  20  22  26  36  44  60  65  89 115
 116 116 116 116 117 116 120 120 119  85  50  35  43  50  57 100 134 138 139 140 145 151 148 146 144 137 133 129 122 118 116 115 112 111 110 111 107 105 107 107 106 104 104 106 107 108 109 109 105 103 104 102 102 103 104 106 108 110 114 114 117 121 124 127 120 114 108 106 103 102 102 105 104 101  93  82  62  38  26  24  20  20  19  19  20  23  31  44  55 100 113 116
 115 116 117 117 119 118 120 120 116  82  53  45  46  54  63 126 145 145 147 151 155 156 148 145 138 131 126 121 114 109 109 108 106 106 104 102 102 102 102 101 102 103 103 105 105 105 106 107 108 106 104 101  99 100 101 103 106 109 109 114 117 121 120 122 121 119 115 111 110 109 106 106 106 105  97  86  67  44  28  25  21  21  21  18  18  23  35  56  88  98 117 118
 116 117 117 119 118 120 121 119 112  68  38  30  45  52  79 147 156 156 159 163 164 159 144 136 131 123 115 108 103  98  96  98  98  97  96  95  96  98  99  98  97 100 103 102 101 103 101 102 104 102 101  97  94  95  95  95 100 104 107 110 112 115 118 119 121 122 120 116 112 111 108 108 108 105 101  89  71  50  34  26  23  22  24  24  22  22  45  95 114 113 116 118
 117 117 117 117 120 118 115 113  98  64  38  33  50  54 102 158 161 163 166 171 164 149 134 127 118 105  97  84  81  78  79  81  85  84  87  91  90  93  95  95  96 100 100  96  99  98  94  94  98  95  95  92  90  92  93  94  95  97  99 104 105 110 111 117 120 121 120 119 114 113 110 107 109 106 103  94  74  52  37  29  24  24  24  24  24  24  32  93 114 117 119 119
 116 118 120 120 118 119 118 113  91  64  37  36  53  59 128 166 167 173 174 164 140 130 114  97  88  74  66  57  53  55  60  61  66  70  76  80  87  90  91  93  94  98  97  93  94  92  92  90  91  89  87  88  88  90  93  94  92  93  93  98 102 106 110 112 116 120 121 119 117 114 112 109 107 108 104  97  80  57  39  30  26  24  24  24  28  25  30  68 109 118 117 116
 118 119 121 118 117 121 120 113  95  61  40  39  52  59 150 174 174 159 140 118 105  89  75  69  56  50  47  43  37  37  43  48  53  54  66  72  80  85  86  88  91  93  92  93  94  90  89  86  84  81  81  83  81  84  87  87  87  89  91  94 102 103 106 107 112 117 118 117 114 114 112 110 109 107 107  99  83  59  42  33  27  24  26  24  34  33  27  48  97 114 116 118
 118 118 118 119 122 120 120 118 103  58  41  40  52  66 170 169 146 119 102  82  73  59  50  46  44  46  44  42  38  37  38  43  46  48  57  63  70  80  86  86  89  90  89  90  93  89  85  84  78  71  72  69  70  75  72  70  76  81  83  88  94  95  99 103 108 116 118 119 116 117 112 110 109 108 105 102  88  60  45  36  29  26  23  25  36  52  30  34  71  99 112 118
 119 119 121 120 122 122 122 121 111  56  45  43  52  80 168 128 108  91  81  66  58  52  47  44  40  41  42  45  39  39  40  41  43  44  52  60  68  75  82  84  86  88  86  88  88  85  83  79  72  64  62  56  55  60  55  55  54  54  59  68  75  82  87  91 101 112 114 119 121 119 115 111 109 109 106 102  90  64  45  36  31  28  25  23  28  71  56  52  80  87 100 107
 121 122 122 122 122 122 122 122 115  61  46  41  53  95 117 101  94  84  75  69  68  67  67  64  59  55  53  49  47  46  48  46  45  48  50  58  65  72  78  81  84  84  85  86  83  82  77  71  67  56  54  49  47  50  50  45  38  37  36  40  44  53  62  73  88  97 106 111 118 119 116 113 109 109 106 104  92  66  46  37  32  27  24  22  27  62  99 106 104 104 113 118
 123 122 123 123 124 123 125 124 118  60  47  39  54  95 106  99  92  90  90  88  85  83  84  82  79  79  77  71  67  65  60  57  55  51  54  60  66  76  80  84  85  82  82  82  82  78  74  66  63  54  48  44  40  43  41  38  34  32  30  30  31  34  41  46  58  71  85  95 108 117 117 115 112 110 108 104  95  67  45  40  33  30  26  22  25  41 109 117 121 121 119 122
 125 124 124 126 127 127 127 125 111  56  46  42  52 112 113 105 103 106 103 100  98  93  90  88  84  80  78  75  76  78  78  75  73  65  62  65  71  81  82  83  86  83  81  80  78  75  72  66  59  53  46  42  38  41  37  34  30  31  30  30  30  31  34  37  40  49  57  66  80  99 110 114 112 110 107 104  96  71  45  40  34  30  28  23  26  29  99 122 125 124 123 123
 126 126 127 129 128 130 129 130 115  56  48  44  64 121 108 109 117 111 109 104 101  98  92  89  85  79  79  76  75  76  78  79  80  80  80  78  81  83  85  85  87  86  84  80  77  75  72  67  59  54  49  46  45  41  36  33  36  34  32  32  32  32  31  32  34  36  45  53  65  76  90 110 111 109 108 106  99  72  44  42  33  30  31  25  29  32  79 122 127 127 125 126
 128 128 129 131 130 131 131 132 117  64  54  46  76 135 116 117 119 116 110 105  98  92  88  83  78  75  75  74  72  74  73  75  78  80  83  87  87  85  90  91  90  89  85  82  79  76  74  70  61  58  54  53  52  51  46  44  45  47  47  48  49  46  43  40  38  36  39  44  56  64  66  85 107 110 109 107 100  74  42  42  34  28  31  29  36  42  80 123 128 126 128 128
 131 132 133 132 132 133 134 134 117  58  52  47  95 134 120 119 120 113 103  91  79  71  64  58  55  51  50  49  52  64  70  73  73  74  79  82  87  93  97  97 100  95  90  84  82  81  74  70  64  63  65  62  61  58  56  55  55  57  59  60  60  61  62  61  56  54  50  48  52  58  62  66  83  99 107 110 102  73  42  39  31  26  30  31  46  57 109 125 129 129 128 128
 134 134 136 136 136 137 136 134 122  59  56  48 117 137 121 119 117 102  83  73  61  49  44  40  32  31  31  36  44  46  51  60  69  68  70  76  84  92 103 108 109 105  97  91  88  84  78  71  67  63  62  60  56  54  56  57  58  59  60  64  66  66  67  67  69  68  64  59  56  54  55  61  67  75  96 109 104  73  39  38  32  26  29  35  57  74 111 128 131 130 129 129
 136 135 137 139 139 137 137 136 127  82  80  54 131 135 121 119 105  83  69  47  51  72  65  34  28  24  24  26  36  42  47  49  55  63  68  72  77  90 106 113 114 111 106 101  96  89  79  70  65  63  59  55  52  51  53  52  52  54  56  61  64  65  67  68  72  74  75  71  72  66  62  62  63  64  78 101 102  70  34  37  31  28  27  35  54  99 119 130 132 133 130 131
 139 140 141 141 140 142 139 142 160 191 125  59 138 138 121 110  88  72  47  54  85  95  63  31  24  20  18  26  32  49  44  45  49  55  63  69  76  87 106 114 118 114 111 107 100  90  78  67  63  57  54  51  49  46  42  38  37  38  39  41  46  52  58  65  72  77  80  79  80  76  71  66  64  64  71  90 104  67  35  36  29  28  29  37  53  97 127 132 131 132 134 132
 141 141 142 143 143 144 143 146 177 185 120  62 151 137 118 100  80  56  44  60  92  94  55  34  27  22  20  25  30  48  45  39  41  51  57  66  74  88 109 116 120 119 117 111 103  92  76  64  59  56  52  50  46  40  37  38  38  37  36  30  28  29  36  49  60  70  75  79  83  85  79  74  67  65  73  87 102  64  33  35  26  25  30  36  50  93 130 135 134 134 134 132
 144 144 145 145 145 144 146 146 141 136  87  73 161 132 114  93  75  68  69  63  75  88  70  41  34  25  26  27  31  46  41  37  32  42  62  68  77  99 120 132 137 131 130 124 115  97  77  62  56  55  52  45  41  40  41  37  39  46  36  26  23  22  23  25  36  48  59  71  80  86  86  81  74  70  71  85 101  64  34  35  27  26  31  39  68 111 135 136 136 136 134 136
 146 146 147 147 148 147 150 146 138 101  65  87 156 131 106  88  87  97  95  86  76  73  71  53  46  44  42  45  46  47  46  47  54  60  72  77  89 119 142 150 149 141 138 133 129 113  87  63  53  53  50  48  43  37  37  41  49  49  30  27  19  18  22  26  36  34  44  56  71  83  86  84  82  81  82  93 101  61  35  33  27  26  29  39  68 126 136 137 136 137 138 138
 149 150 150 150 149 148 151 149 132  75  61 103 161 134 112  98 103 114 111 102  93  84  82  76  69  70  67  63  61  60  62  64  71  75  82  91 111 134 154 161 154 147 145 140 138 127  98  66  56  54  53  40  35  33  38  42  49  45  27  23  22  19  24  29  46  50  35  45  55  72  85  86  84  82  86  99 103  60  34  32  29  30  31  37  72 126 137 138 141 138 138 140
 150 152 152 152 151 153 152 146 118  60  62 115 172 163 143 135 130 117 113 108 104  97  92  84  76  71  67  64  63  61  63  70  74  81  90 104 126 143 161 165 157 153 148 141 140 130 106  77  61  56  51  44  38  33  35  37  42  42  28  24  21  20  33  35  50  60  42  32  48  57  77  85  85  84  92 103 106  58  36  33  29  31  30  35  77 130 136 139 141 140 140 140
 153 152 153 154 154 154 153 154 129  52  67 128 186 187 179 161 137 117 105 100  95  90  85  80  73  68  63  59  62  67  73  77  84  93 101 120 139 155 170 177 168 159 152 144 140 128 111  92  72  60  53  50  47  43  40  39  41  41  34  30  27  26  32  39  53  51  35  29  37  53  66  81  86  88  95 108 109  54  36  32  30  31  30  36  70 129 140 142 143 144 142 142
 154 154 154 156 155 156 158 173 117  60  71 146 192 190 180 162 153 137 110  96  86  77  73  72  69  64  68  75  80  82  85  91  98 104 114 132 152 166 177 187 176 164 153 145 140 130 116 100  80  70  59  53  50  49  49  46  47  48  48  48  45  46  47  50  50  50  53  48  41  47  62  71  83  88  94 109 110  57  36  32  30  32  32  38  63 122 142 144 143 144 144 143
 156 157 159 158 158 159 162 144 103  86  75 159 189 186 176 173 171 164 143 118 102  96  90  85  84  85  87  89  91  94  98 103 107 111 121 144 162 175 189 193 180 168 155 145 140 130 121 107  91  75  70  61  57  53  51  51  51  52  53  56  58  61  64  63  63  69  73  73  60  47  51  65  78  88  97 109 110  59  34  31  30  31  33  42  63 106 136 144 145 144 145 146
 158 160 159 158 161 161 163 122  98 111  83 170 185 182 183 188 187 177 157 139 122 109 103  99  99 100  99 100 102 105 107 111 112 117 130 154 174 188 200 194 181 171 155 144 135 127 121 111  99  84  78  73  65  61  60  54  52  53  52  56  63  68  73  75  78  84  86  84  73  59  52  60  76  90 102 112 113  62  34  32  32  34  38  54  75  84 123 145 146 146 146 145
 160 161 162 163 164 162 157 113 107 116  93 179 181 185 194 197 194 183 166 149 135 121 114 110 107 106 106 106 106 107 110 112 115 121 143 168 184 193 199 187 176 162 155 143 138 126 119 113 106  91  82  81  77  72  69  64  63  60  53  54  56  60  63  70  75  81  81  83  82  79  76  75  84  95 105 113 112  62  34  31  36  42  49  65  68  75 115 144 148 148 149 146
 163 162 164 164 165 164 159 114 119 117 112 181 181 194 202 199 192 180 166 152 142 129 122 116 110 107 105 105 108 109 110 114 119 131 164 180 187 179 184 174 166 159 150 143 138 128 120 113 107  97  84  82  84  85  80  75  74  72  68  66  62  59  61  66  66  72  79  87 100 105 104 101 102 107 110 113 114  67  34  32  45  59  67  60  64  75 115 146 148 149 148 149
 166 165 165 166 166 165 163 136 115 104 120 177 184 193 197 192 186 174 164 156 144 135 126 115 112 108 107 107 107 111 113 118 122 145 179 186 188 182 179 168 159 151 144 141 139 131 122 114 108 102  90  85  86  87  87  86  85  83  83  81  78  76  75  77  82  90  99  99 102 107 109 112 112 113 114 116 114  66  36  35  51  68  75  61  64  73 111 147 149 152 151 150
 168 167 167 167 167 167 165 149 107  90 113 179 182 187 184 179 176 169 160 151 146 137 128 116 112 108 107 108 110 113 115 121 127 173 186 190 188 190 181 165 156 148 142 141 136 127 125 117 108 105  96  90  88  89  91  90  90  91  91  94  94  96  97 102 108 112 117 118 113 109 111 112 113 115 116 118 116  67  39  38  52  66  79  61  56  67 105 147 152 151 153 152
 167 167 168 168 168 169 168 156 110  83 102 174 175 177 174 170 163 161 157 152 142 138 129 119 114 111 109 109 110 114 121 126 148 189 191 191 197 193 179 163 155 149 143 137 132 128 125 121 109 105 104  96  91  90  92  91  91  95  98 100 100 108 114 121 122 124 124 123 119 117 111 110 111 112 118 119 114  70  42  40  57  70  81  63  56  67 111 151 153 153 152 154
 170 167 169 170 170 170 172 163 131  86  96 172 166 169 169 167 162 159 155 145 139 134 129 121 118 113 112 112 114 118 122 128 178 186 189 194 191 177 160 149 145 143 139 138 130 129 125 124 112 102 103 101  97  95  93  92  94  99 100 103 105 110 113 120 124 125 126 122 120 119 114 111 111 113 115 118 111  70  46  45  67  79  89  68  61  73 119 150 154 153 153 155
 171 170 171 171 172 172 172 169 163 113  97 169 164 163 162 161 162 159 149 143 135 129 125 121 116 113 110 113 113 118 120 160 178 177 181 179 164 150 139 127 125 127 126 126 122 121 121 121 115 103  99 102 102  99  97  95  95 101 102 108 109 112 113 117 120 121 124 122 118 120 117 114 113 113 116 118 109  66  48  54  77  88  96  79  67  79 132 152 155 156 157 155
 172 173 173 173 174 173 173 172 166 190 126 166 160 157 159 158 155 148 137 139 132 131 126 122 116 113 113 114 112 117 141 169 161 160 164 157 143 128 117 108 110 111 112 115 112 111 110 115 114 109  97  98 100 100 100  98 100 104 106 109 109 111 112 115 117 118 119 119 119 119 116 116 116 115 117 118 104  61  50  62  79  88  97  91  68  87 146 156 157 157 158 156
 175 174 174 174 175 175 175 176 155 164 196 166 154 152 156 151 147 142 139 134 131 127 123 120 118 112 112 111 110 114 164 159 142 140 138 131 122 117 107 101 101 101  98  97  99  96 100 104 107 108 104  92  96  99 100 100 100 103 105 108 108 112 111 116 114 114 112 114 116 116 115 117 115 116 118 116  92  56  53  66  76  86  93  94  76 109 156 159 160 160 158 158
 175 174 175 175 175 176 177 180 178 163 209 162 148 150 152 143 140 138 133 129 124 121 116 116 114 112 109 109 110 129 160 144 126 123 121 119 114 108 102  96  97  94  90  90  89  90  92  96 103 108 109  92  88  92  93  97 103 101 102 105 105 108 111 114 112 112 110 109 112 112 114 117 117 116 118 116  83  54  54  66  75  80  86  98  85 136 159 161 161 162 160 159
 176 177 178 176 177 179 180 183 200 212 199 154 145 148 148 141 137 132 129 128 125 124 118 116 112 109 108 104 106 132 141 124 114 107 109 112 109 103  97  92  92  90  89  86  84  85  86  90  96 102 107  94  84  86  92  95 100 101 100 103 106 105 105 108 112 112 110 109 108 107 112 113 113 114 114 111  70  85  62  66  68  68  78  97 106 154 162 159 160 161 161 161
 179 179 178 180 179 181 181 183 197 204 164 144 142 141 128 136 133 129 125 122 123 121 117 115 110 108 106 102 104 125 124 110  97  70  61  92 109  98  90  90  89  86  86  81  82  83  85  89  91  98 100  92  79  80  88  91  97 100 102 102 103 106 107 110 110 112 110 109 108 108 109 111 112 112 114 102  77 105  69  62  58  58  69  97 124 158 163 164 162 162 161 161
 180 179 180 182 181 182 182 181 184 167 140 137 141 138 128 129 128 124 119 121 118 117 114 113 108 107 102 103 104 112 113  99  74  50  43  44  98  99  91  89  90  85  75  47  37  44  74  85  90  94  96  87  78  80  84  89  92  97 101 101 103 102 107 110 112 113 111 110 111 109 108 109 111 112 114  92  94 108  74  57  55  55  71 101 141 162 164 164 164 164 163 163
 182 181 180 180 181 181 181 181 175 144 131 130 138 135 128 125 126 122 115 117 117 113 109 106 104 103 100 101 105 113 110  95  77  66  59  72  92 102  94  90  90  80  56  46  36  28  40  78  86  88  93  82  75  77  82  86  90  93  96  98 102 102 105 106 108 110 111 109 109 108 104 105 108 108 110  96 101  95  68  53  54  65  83 103 153 162 163 164 166 165 164 163
 183 184 182 183 183 183 183 182 179 154 128 128 137 135 131 127 123 123 119 117 112 110 107 105 102 101 100 104 113 118 117 104  82  78  79  86  91  97  90  88  86  77  66  60  52  41  45  64  81  82  87  81  77  77  78  83  87  91  92  95  97 101 101 103 105 107 107 106 107 107 103 104 106 106 107 103  96  77  64  56  68  83  97 118 158 165 166 165 167 165 164 164
 184 183 182 183 183 184 183 184 182 177 148 127 135 134 132 128 123 121 121 116 113 110 106 103 101 103 107 111 120 126 124 114  91  82  86  86  85  83  84  84  79  72  68  65  63  56  55  58  70  85  90  88  82  80  80  82  87  90  90  93  95  97  97 101 104 104 107 106 104 106 101 104 106 105 105 100  82  93 102  96  95 102 102 132 162 166 167 165 166 164 165 164
 184 184 184 183 184 184 185 185 185 183 181 160 144 132 133 128 124 123 121 116 112 107 106 104 103 104 109 117 126 131 129 122 100  93  91  90  88  81  76  77  72  69  66  66  66  63  61  60  77  94  99  97  87  83  83  83  83  86  88  91  93  93  99 100 103 104 103 104 104 106 106 103 103 105 100  84  80 100 117 103  94  95 113 155 166 167 166 166 166 166 166 166
 184 184 184 187 184 184 186 185 184 185 184 181 157 135 132 129 125 123 121 116 111 108 104 102 102 104 112 125 134 135 130 130 111  96  91  87  86  83  76  74  74  71  69  66  67  64  67  74  89  97 100 100  95  88  84  81  83  87  89  90  91  93  96  97 102 102 104 104 100 104 105 103 105 106  97 108 106 105 113 105  98 104 138 164 168 168 166 166 166 166 167 166
 183 184 185 185 186 185 184 185 184 186 185 184 163 135 132 129 126 123 118 118 113 107 100 100 101 107 117 131 139 141 137 136 121 105  98  91  84  79  74  73  75  73  71  70  68  68  71  83  94  99 100 100  97  91  86  81  80  83  86  90  90  91  92  94  98 100 104 104 103 104 104 103 104 102  92  99 100  98 107 118 113 119 157 168 167 168 169 168 168 169 167 168
 185 185 184 185 186 187 185 185 186 188 187 186 171 136 132 129 126 123 119 117 112 107 102  99 102 111 125 141 148 148 146 144 132 114 105  94  88  81  75  73  77  74  72  71  70  78  83  91 100 102 103 102 100  96  91  85  82  84  86  87  88  90  91  96  95  99 103 101 102 104 104 103 104  99  89  87  92  94 100 111 122 153 167 167 167 169 169 168 169 168 168 167
 184 187 188 186 188 187 187 187 186 188 188 188 176 139 136 133 126 122 121 116 111 104 101 101 106 118 138 153 156 153 156 153 143 124 106  95  89  80  73  71  76  77  74  72  72  87  92  97 100 103 102 101 100  92  82  85  84  83  84  87  90  90  91  94  96 100 101 102 103 104 104 104 106 101  99  99  98  99 100 111 147 165 170 169 169 170 168 168 168 169 168 168
 186 187 187 187 188 188 188 188 188 188 188 187 178 141 135 134 126 122 122 116 108 104 106 109 116 137 156 164 159 156 160 150 141 122 104  94  87  77  74  75  78  82  79  79  83  91  95  97  97  98 100 103  97  89  81  88  87  87  85  85  88  91  93  94  97  99 102 104 105 104 104 106 105  98 105 108 108 104 100 135 163 169 170 170 168 170 170 169 168 169 170 169
 188 186 187 185 187 188 187 187 188 188 188 186 183 146 137 133 129 123 121 114 106 108 112 120 134 153 162 164 160 160 155 146 136 122 107  94  85  77  78  75  80  82  82  84  88  92  99 100  99  99 102 103  99  95  92  92  89  89  88  87  89  91  92  93  98 100 102 105 104 103 105 108 102  90  96  98 102 104 135 166 169 170 170 171 169 170 170 169 170 168 169 168
 188 186 187 188 188 188 187 188 188 189 188 186 183 150 138 135 126 122 122 114 107 113 122 130 142 153 156 158 159 159 152 143 138 128 113  98  88  82  84  77  80  82  83  84  88  93  97 100 100  95  98 103 101 100  95  93  92  90  90  88  90  91  91  93  98 101 102 102 102 103 103 108 135 117 100 102 122 154 168 169 172 171 170 170 170 171 170 170 170 169 170 170
 188 186 188 187 187 187 187 188 190 190 189 189 186 154 139 133 126 122 123 113 115 119 124 129 134 140 147 152 149 144 134 124 117 109 101  96  92  88  90  89  89  90  90  91  92  94  99 101 101 102 104 105 103 102  96  93  91  89  91  90  89  92  94  94  98  99 102 103 103 106 104 111 161 170 168 170 170 170 173 172 174 173 173 170 171 172 171 171 170 171 171 170
 189 187 188 187 187 188 188 188 189 188 189 190 187 160 141 133 125 124 123 116 122 120 116 114 117 123 128 125 115 107  97  92  85  81  82  86  91  91  91  92  90  86  83  87  91  96  97 100 104 104 106 106 104 105  96  94  92  90  91  91  90  91  93  94  97  97 101 105 103 105 106 120 166 172 172 174 172 172 174 172 173 173 174 171 170 172 172 173 173 172 171 171
 189 187 188 189 186 186 188 189 190 189 188 189 188 165 142 135 125 123 124 116 118 112 104 101  97  99  96  92  86  82  79  74  74  73  73  75  78  80  83  80  76  70  66  66  75  83  90  96 102 101 104 101  99 101  99  93  95  93  92  93  92  92  93  95  98  99 104 102 101 104 108 133 171 174 173 174 174 173 172 175 173 173 173 172 173 171 171 172 172 173 171 171
 188 188 189 189 189 188 189 190 189 189 189 189 189 173 143 135 128 123 124 116 114 107  96  90  75  58  58  63  68  66  66  69  72  71  73  72  72  72  71  67  63  61  59  61  61  68  75  85  92  97  99  98  96  96  96  95  94  93  94  94  93  92  93  93  97  99 101 101 101 106 111 148 172 174 174 176 174 174 174 175 174 173 174 173 173 175 172 172 172 173 172 170
 188 189 189 188 189 188 189 189 191 189 189 190 190 184 143 135 127 124 122 117 113 106 101  95  81  60  46  38  40  50  50  74  76  74  91  86  77  73  66  64  64  63  62  62  60  61  61  67  76  82  90  94  94  91  91  92  92  92  92  93  92  92  92  92  98  98 100 101 104 106 114 164 173 176 175 174 175 175 175 174 175 174 175 173 173 174 174 173 171 172 172 171
 188 189 189 188 189 189 188 188 190 189 190 190 190 186 153 135 130 123 122 117 114 112 107 105 101  83  67  55  45  38  24  36  56  62  94  93  89  87  75  68  76  76  74  69  57  54  56  60  60  64  72  77  79  80  85  88  89  92  93  91  93  92  92  94 101 100 101 100 104 107 121 169 175 176 175 175 176 174 174 175 175 175 175 174 174 173 173 172 175 174 171 170
 188 189 189 189 189 190 190 189 190 190 190 191 191 189 166 136 129 124 123 117 115 112 109 111 110  95  84  79  67  57  40  30  26  31  57  87  89  87  70  73  81  81  80  74  57  59  53  47  50  53  54  57  59  62  72  78  84  87  91  91  92  92  91  94  98 100 102 103 106 107 139 172 174 175 176 175 175 176 175 176 175 175 175 176 174 174 174 172 173 175 173 172
 189 189 190 190 189 190 190 189 189 188 190 189 192 191 179 136 128 124 124 119 116 115 112 113 112 104  94  93  90  79  64  51  39  32  31  40  45  48  34  50  68  69  67  65  43  44  39  25  25  32  28  30  35  50  63  70  77  85  90  92  91  90  92  94 100 101 103 105 106 112 153 175 176 176 176 176 175 175 175 176 175 172 174 173 174 174 174 174 173 174 173 173
 189 189 189 189 189 189 190 189 190 189 190 190 190 190 187 150 129 126 121 119 116 117 114 112 113 111 106 105 104  90  75  67  58  49  47  41  36  34  32  32  32  32  32  33  29  22  24  23  28  32  35  40  48  60  68  72  76  82  87  91  90  91  93  94  99 100 100 104 105 122 165 175 176 177 175 175 176 176 175 175 176 173 175 175 174 175 173 174 173 174 172 172
 188 188 189 189 188 189 189 189 189 190 189 191 189 190 189 173 129 125 122 118 117 117 115 114 113 112 109 108 107 101  82  72  72  64  58  53  46  43  42  38  35  32  31  34  33  37  37  41  42  48  52  54  64  72  74  76  79  82  86  86  89  91  92  96  99 102 101 102 104 131 172 175 176 176 176 175 174 176 176 174 176 174 175 174 174 174 173 173 173 171 172 172
 187 188 188 190 189 190 188 189 189 189 189 191 191 191 190 187 134 123 121 120 114 107 110 110 112 113 111 105 102 100  87  72  71  68  68  65  59  57  58  53  47  48  47  48  51  54  57  59  61  61  60  66  73  77  79  79  80  83  86  90  89  89  93  96  97 100  98 102 101 157 175 175 176 175 176 176 175 175 175 175 174 174 176 174 174 174 173 172 173 172 172 173
 189 188 188 189 188 188 189 189 190 190 190 191 190 190 191 187 157 124 119 118 113 101 108 109 111 111 109 104  98  93  90  75  70  70  68  67  63  64  62  61  57  58  58  57  62  68  71  68  67  66  70  77  80  80  80  80  82  83  86  88  89  89  92  96  95  95  97 103 138 173 176 176 176 175 175 176 175 176 174 176 175 174 174 174 174 174 171 174 172 173 173 172
 187 187 188 189 188 190 190 190 190 190 191 190 191 192 191 190 181 126 120 119 116 107 112 111 109 110 109 102  98  88  86  79  74  71  69  68  66  65  62  61  59  59  60  61  68  73  71  70  70  72  78  83  84  81  82  82  82  85  84  88  90  90  92  93  94  94  97 111 168 175 175 176 176 174 175 176 175 175 174 174 175 174 174 175 174 172 174 173 172 173 172 172
 186 187 188 188 188 189 189 189 190 189 191 190 191 190 191 190 186 149 122 119 120 115 111 113 110 109 109 105 101  91  84  82  76  73  71  69  64  65  69  62  65  64  64  68  68  70  67  66  71  76  83  82  84  84  83  82  84  83  86  90  90  92  93  92  92  93  97 150 172 176 176 175 177 176 176 175 175 176 175 174 174 173 173 173 174 173 173 173 173 172 173 171
 186 186 186 188 188 189 188 188 190 189 190 190 190 190 189 189 187 176 123 118 120 116 113 111 111 108 107 104 100  96  88  84  80  75  70  69  66  65  65  65  64  62  64  64  64  64  66  69  73  78  81  83  84  82  82  84  83  83  86  88  89  89  92  92  92  94 118 165 173 175 176 176 176 176 176 175 176 175 174 174 174 173 174 173 174 173 174 174 172 172 172 171
 188 187 187 188 187 185 189 187 189 188 190 189 190 190 189 189 186 183 150 120 121 117 116 114 111 110 107 105 100  94  93  89  85  80  76  73  70  66  63  65  62  62  60  60  64  66  69  72  74  77  82  83  82  82  83  82  82  85  86  89  90  90  89  91  90  96 134 168 175 176 175 176 174 176 175 175 174 174 174 174 174 174 174 172 172 174 172 172 171 172 172 170
 185 186 186 185 186 187 187 187 188 189 189 188 189 188 189 189 187 186 179 127 122 120 121 115 115 112 108 105  99  95  92  87  84  82  77  77  76  72  72  70  67  67  67  69  70  72  74  77  77  78  83  82  81  84  83  81  84  87  89  90  90  88  87  86  90 106 141 172 175 176 176 175 175 176 175 174 174 175 174 174 174 173 173 172 173 173 174 173 172 172 172 172
 186 185 187 185 186 187 186 188 188 188 188 189 190 188 189 188 189 187 185 161 120 119 122 118 117 115 109 107 104  99  91  87  82  78  71  70  69  67  66  70  70  72  73  72  73  74  77  78  77  78  80  80  81  83  85  84  87  87  93  91  88  88  86  86  97 110 141 173 174 176 176 175 176 175 175 175 175 174 176 174 174 174 173 174 174 173 174 173 172 173 172 170
 185 185 185 186 185 186 186 186 187 189 190 190 188 188 188 189 187 185 185 184 134 119 123 120 118 117 114 109 105 103  93  85  77  74  66  66  64  62  62  63  66  69  70  72  73  74  77  77  79  80  80  81  81  82  85  86  86  88  89  88  85  84  81  88 100 107 147 173 175 176 176 175 175 175 174 175 174 173 174 174 174 174 173 172 174 172 173 172 173 172 171 171
 184 184 185 185 185 186 186 186 186 187 188 187 189 188 188 187 187 185 186 183 156 119 121 119 118 118 115 111 109 105  98  90  82  77  70  67  61  60  60  60  61  62  67  70  73  76  77  77  79  81  82  81  84  86  87  88  87  87  88  86  83  82  88  94  98 107 150 172 174 175 175 174 174 174 174 174 174 173 174 173 173 174 173 173 174 172 171 173 172 172 172 172
 184 184 185 185 185 187 186 186 185 184 187 188 188 188 186 185 184 186 184 183 159 124 117 120 124 120 119 118 113 107 100  92  89  80  75  73  70  66  64  62  64  67  66  72  73  76  79  83  83  84  84  84  86  87  87  89  87  87  85  80  80  87  92  97  99 105 137 160 156 151 165 174 174 174 174 174 173 173 174 174 172 172 172 173 173 172 172 171 171 172 172 172
 182 183 185 185 184 185 185 186 185 186 187 187 187 186 185 185 184 184 183 180 153 132 115 117 119 120 119 118 114 109 100  92  87  83  79  75  73  70  66  65  66  69  68  74  78  81  84  85  86  86  88  87  88  86  86  87  86  85  79  75  83  90  93  97  98 105 113 124 122 106 101 129 161 173 173 172 172 174 174 173 172 172 172 173 173 173 171 172 171 171 170 171
 183 182 185 184 185 184 184 186 185 185 187 184 185 184 186 183 181 168 133 122 142 130 114 111 115 120 118 118 115 110 102  92  86  86  83  79  78  71  71  72  72  75  74  78  84  84  87  87  88  87  88  88  89  87  82  82  82  78  75  79  89  92  95  96  99 103 112 114 120 120 120  95  72 108 127 132 152 170 172 173 173 172 173 171 172 172 172 171 171 172 170 171
 183 182 182 183 184 184 184 184 184 185 185 185 185 183 178 152 128 116 113 103 139 129 119 108 109 117 120 118 115 109 101  90  86  87  87  84  83  79  74  78  74  75  78  82  85  87  88  90  90  89  91  89  85  84  81  78  75  74  77  84  89  95  96  98  99 104 111 115 115 115 116 116  64  60  67  69  82 103 123 145 160 172 171 171 172 171 171 172 172 170 171 171
 182 182 182 183 183 183 183 183 184 183 184 184 171 140 124 114 108 104 100 125 155 129 120 111 107 114 118 116 112 104  97  91  88  87  86  84  84  82  80  79  76  79  81  82  85  87  88  90  90  90  90  87  83  80  77  70  74  75  80  86  89  94  98  98 100 103 109 113 116 115 117 112  73  47  49  49  58  69  79  88  96 110 132 162 170 170 172 171 171 171 171 171
 181 180 182 181 183 183 181 181 184 182 181 148 119 110 113 102  98  92  92 174 159 128 120 114 104 106 112 110 108  99  94  91  88  85  83  84  84  84  83  81  82  83  84  84  85  85  86  89  89  88  85  85  81  75  71  70  71  76  84  89  91  94  94  99  99 101 108 113 115 114 116 113  71  43  40  41  49  54  61  66  73  83  90 101 134 168 170 171 171 171 171 170
 181 179 182 182 183 182 181 180 176 149 120 111 108 110 105  96  89  86 102 194 161 126 121 115 107  98 102 104 102  97  94  91  86  84  83  84  86  85  86  84  82  83  82  84  84  85  87  87  87  85  81  78  78  71  70  70  72  83  85  91  92  93  95  97 100 100 107 114 115 112 114 109  66  40  37  38  43  48  52  54  57  59  66  76  85  96 126 155 168 170 170 170
 179 179 180 180 181 179 174 148 120 106 105 104 102 103  94  89  85  83 118 198 162 125 120 115 110 102  96  98  96  94  89  86  85  82  80  81  84  81  82  83  83  82  82  80  83  87  85  84  82  80  76  73  72  71  72  74  78  87  88  91  92  93  96  95  98 101 107 113 115 115 115 107  53  37  35  34  38  44  47  46  49  50  54  58  67  70  80  88 104 125 148 165
 178 179 179 178 163 137 119 111 106 104 101  99  99  99  88  82  79  84 127 194 163 125 116 110 108 103  96  92  93  92  86  84  82  79  78  81  85  81  79  79  79  76  76  80  77  79  81  79  75  72  70  70  71  70  70  78  86  90  92  92  92  94  92  96  97 100 104 113 114 114 112 102  41  36  34  34  36  41  42  41  44  42  48  48  53  57  61  65  70  77  85 100
 177 175 157 123 110 110 109 103  99  96  94  93  92  90  81  79  79  83 135 190 159 124 116 110 106 102  99  94  90  88  88  84  80  78  78  80  83  82  79  79  79  76  75  74  73  72  76  74  68  67  69  72  73  73  77  82  87  92  92  91  90  92  94  94  97 100 103 113 115 114 112  86  39  36  33  36  34  39  41  38  40  40  40  44  47  48  52  54  57  58  64  68
 132 116 108 104 102 100  99  96  94  87  88  83  83  84  77  74  74  81 138 184 153 125 115 107 104 102 103  99  92  87  88  81  78  79  80  81  82  81  80  80  76  74  72  72  72  71  71  66  68  72  72  75  74  76  82  86  90  94  93  92  90  90  93  94  96  99 101 109 114 113 109  74  37  33  31  32  33  39  39  38  37  38  37  37  43  43  48  48  50  50  51  55
 102 101  99 100  98  95  93  89  84  79  84  79  80  77  74  72  72  77 141 179 147 123 114 108 105 103 104 103  99  94  84  80  81  79  81  80  77  79  81  77  77  73  71  68  67  65  69  72  73  74  73  76  75  80  87  90  93  92  92  91  91  91  91  94  95  99 101 104 112 114 106  60  36  32  30  32  33  36  38  36  36  35  35  34  39  42  46  45  42  42  44  45
  96  98 100  94  89  84  82  84  78  77  79  71  77  77  72  71  71  75 131 171 142 122 113 107 102 102 100 100 103 102 101  94  88  83  81  79  74  76  82  78  75  72  69  66  66  72  75  76  76  75  76  76  81  86  90  91  93  94  91  90  91  91  92  93  95 100 100 104 107 110 105  46  35  34  31  32  32  32  38  36  36  35  36  33  35  37  40  44  40  39  41  41
