P2
# Generated by OpenCV 3.4.0
92 112
255
  80  82  84  84  84  86  86  87  87  89  88  88  89  89  90  90  90  89  90  89  90  91  92  92  91  91  92  92  92  92  93  96  97  94  92  93  95  97 106 100 100 102 107 110 106  97  95  94  95  95  94  94  96  95  92  93  92  94  94  92  93  92  92  93  93  93  93  92  92  92  92  91  92  92  92  90  91  91  90  90  89  90  89  89  91  90  89  88  88  89  88  86
  81  82  83  84  87  86  88  88  87  87  89  88  89  89  90  91  91  90  91  90  91  92  93  91  92  92  92  91  92  93  93  96  96  97  99  96  99 102  98  98 101 108 119 111 102  99 101 101  99  98  97 100  96  94  93  94  93  94  91  93  93  91  92  94  93  92  93  90  92  91  93  93  93  92  92  92  91  91  89  90  92  91  91  90  91  92  91  90  91  90  90  88
  83  84  84  83  85  85  87  87  88  88  90  90  91  91  90  91  93  93  92  92  92  91  93  94  91  92  93  93  90  97  98  95 100  98 101 100 106 116 118 117 117 122 114 108 103 107 110 118 108 104  95  88  91  93  95  92  92  92  94  94  92  93  93  93  92  92  93  93  93  93  94  93  93  94  91  92  92  92  90  92  90  91  91  92  92  91  91  92  91  89  90  88
  83  84  85  86  86  88  87  87  88  88  90  90  90  90  90  91  91  91  90  92  92  93  92  92  96  93  92  94  92  99 100 102 111 116 106 108 124 121 122 130 139 140 134 123 125 118 115 102  96  87  76  74  70  74  79  83  86  90  90  90  91  94  92  93  93  93  93  92  93  93  92  93  91  93  94  95  93  92  92  92  92  91  92  91  92  92  90  91  91  90  91  89
  84  85  85  86  86  87  87  87  89  87  90  90  89  90  90  91  91  91  91  92  92  94  97  97 100  96  92  90  95 101  95 102  94  94  98 103 113 118 145 154 155 135 121 111 110 118 106  98  83  69  62  58  60  64  65  67  66  70  75  82  85  88  91  93  93  93  94  93  95  94  94  94  93  94  93  94  92  93  90  89  91  91  91  90  92  91  92  92  90  90  92  90
  85  86  86  86  86  88  89  88  90  90  89  90  89  91  93  93  91  91  92  91  94  98  99  95  95 100  98  94  94  90  92  85  83  89  94 109 132 164 167 154 132 147 158 163 152 131 122  92  79  70  69  65  62  57  58  59  60  63  61  65  66  73  83  90  94  94  94  96  95  94  94  94  93  93  93  92  93  92  93  93  94  92  92  92  92  91  91  92  90  91  91  91
  86  86  85  87  88  89  88  89  90  89  89  90  91  91  92  93  92  92  92  95 100 105 101 101 122 119 109 102 103 100  95  81  81  78  75 121 150 160 145 130 123 148 163 163 144 124 105  89  74  65  62  53  48  47  48  47  48  51  52  56  60  62  66  76  87  93  94  94  96  96  92  96  97  93  95  94  92  93  93  91  91  94  91  92  94  92  92  91  91  90  90  90
  86  88  88  88  89  89  89  90  90  89  89  90  90  90  90  91  92  93  94  98 109 109 113 128 140 127 104  88  86  76  76  68  64  68  95 109 122 107 101  96 106 136 130 128  99  84  78  78  76  66  63  55  49  49  47  44  45  43  45  48  54  58  61  63  74  84  91  94  95  96  94  96  97  96  93  94  94  93  94  93  92  93  93  92  94  93  94  92  91  91  90  92
  89  86  87  88  89  88  89  88  89  90  91  93  92  91  93  92  92  94  97 101 124 119 112 127 129 131 121 103  82  70  69  57  62  71  74  93  87  73  72  78  89  99  89  53  46  61  68  73  69  62  52  46  41  40  36  34  37  37  37  40  46  53  60  64  67  71  79  90  93  96  94  95  95  95  94  96  94  93  94  95  94  94  92  90  92  93  94  92  92  92  92  92
  87  86  89  88  89  88  90  91  90  89  92  92  92  91  95  94  95  96  98 116 119 112 138 148 152 139 122  95  69  62  57  55  65  70  74  66  54  49  58  60  65  59  29  32  40  50  54  58  58  54  48  43  37  35  33  31  31  34  34  36  36  38  38  44  54  62  66  70  89  94  95  96  93  96  97  96  96  95  94  95  94  95  94  91  92  92  94  94  92  92  92  93
  86  88  89  88  88  89  91  91  91  91  93  92  93  92  94  93  94  96 106 112 129 141 156 167 161 131 107  91  76  64  58  63  66  68  58  49  42  50  51  50  38  26  23  25  26  33  46  60  60  52  45  49  46  40  36  37  37  36  38  40  41  44  44  47  47  51  58  61  65  85  93  95  96  97  95  96  96  95  95  95  95  96  95  93  94  92  93  94  93  93  92  93
  87  90  90  90  89  90  91  90  92  90  93  93  93  96  93  94  95  93  91 123 135 157 164 153 133 128 130 110  85  64  60  63  63  56  46  42  40  46  40  31  22  21  23  26  34  47  53  56  59  68  68  56  46  45  40  36  36  37  37  38  37  36  39  44  46  47  50  51  62  68  88  94  96  96  96  96  95  96  95  95  96  95  95  92  93  94  94  92  94  92  90  92
  87  89  88  88  88  91  91  90  91  91  93  92  94  94  93  94  97  96 117 137 155 157 164 161 155 158 134  96  76  64  56  52  52  46  41  38  36  35  32  24  22  23  23  25  32  39  42  50  59  67  65  53  43  40  35  32  34  37  39  42  43  46  46  47  47  46  44  45  50  57  76  90  97  96  96  96  97  96  96  94  94  95  95  95  94  93  94  93  94  91  92  94
  88  89  89  89  88  89  91  92  92  91  92  93  93  95  96  99 106 111 130 149 165 161 155 143 149 149 128 105  90  71  60  50  50  43  38  36  32  29  25  20  20  18  20  24  25  27  32  39  44  44  46  38  32  28  26  26  26  30  29  30  28  32  36  40  44  43  42  42  46  50  63  85  96  96  95  96  97  96  95  95  95  94  95  94  93  93  94  94  94  92  93  91
  90  88  89  92  90  90  91  90  92  93  94  93  95  96 101 106 101 113 128 135 141 125 121 144 162 152 140 125  93  71  53  43  41  38  37  36  31  27  23  18  17  18  18  20  20  22  22  23  23  24  22  20  17  18  19  20  24  27  27  26  27  29  29  30  32  34  33  38  41  45  51  75  91  96  97  97  95  96  94  96  95  94  96  94  95  94  94  94  94  93  92  92
  90  88  90  89  90  90  92  91  92  93  94  94  95  96  98  94  94 110 103 100  96 109 122 143 146 153 159 130  89  59  46  38  37  34  34  32  30  28  24  19  21  23  23  23  23  20  20  22  22  22  21  24  24  24  22  23  23  20  20  21  25  28  28  29  32  34  33  33  32  36  44  56  85  96  97  96  97  94  94  95  95  94  96  95  94  92  95  95  94  93  92  92
  90  90  92  92  90  92  93  94  93  95  95  96  98  97  92  92  95  89  88  89  98 103 117 135 148 155 136  97  78  55  45  39  36  36  35  35  32  31  29  27  27  26  28  26  26  27  29  27  27  28  29  29  27  24  23  20  20  21  21  23  23  21  21  24  29  36  44  42  40  42  46  46  68  91  97  95  97  95  96  95  95  96  96  95  94  93  94  93  93  92  92  91
  88  91  92  92  91  93  93  92  94  94  94  95  96  92  87  91  83  77  76  80  85  96 120 124 128 108 106 102  64  42  39  41  40  40  41  42  43  39  36  33  32  33  34  33  31  29  31  31  30  28  27  26  23  26  24  23  22  22  21  21  20  19  20  20  23  30  41  50  49  52  54  52  52  74  93  95  95  94  95  95  94  94  93  94  94  92  93  93  92  92  90  91
  90  91  92  90  92  92  92  95  93  94  95  94  96  86  81  81  71  71  71  75  90  99  97  94  75  98 105  59  37  35  45  43  46  50  51  55  57  56  50  44  38  35  36  37  33  31  28  28  27  27  26  26  22  22  22  21  22  21  21  21  22  22  22  24  26  28  28  39  48  52  53  55  53  50  77  93  94  94  94  92  92  91  91  90  91  89  89  90  88  89  88  87
  90  91  91  93  92  93  94  94  94  94  94  95  94  79  77  70  70  67  72  83  78  75  64  63  72  76  58  40  39  43  51  55  57  60  66  70  70  67  64  54  50  45  45  40  37  33  31  30  29  28  24  25  21  21  23  24  24  25  24  24  24  22  24  24  26  27  30  33  42  48  49  49  51  50  52  82  87  87  88  88  89  88  87  87  85  86  88  88  89  87  87  88
  91  92  92  93  93  93  94  94  95  97  94  95  89  76  70  64  63  69  69  68  64  56  59  68  64  51  41  45  48  54  58  65  69  75  77  78  79  73  72  64  58  54  51  47  43  41  36  33  32  31  30  28  24  24  24  25  26  27  27  26  28  26  24  24  28  27  26  29  33  43  44  44  46  46  50  66  86  92  93  95  97  98 102 102 102 103 104 108 108 110 111 113
  91  92  94  92  93  93  93  95  96  97  94  93  83  72  70  68  68  64  60  61  54  57  56  59  48  43  45  51  58  63  69  76  82  84  83  85  86  81  78  71  64  58  58  56  50  47  44  41  39  36  34  31  30  27  26  25  28  28  29  28  31  31  34  30  26  26  27  28  27  33  39  43  44  42  46  53  89 113 115 118 115 115 118 117 117 118 118 117 118 118 117 117
  91  92  91  92  91  93  94  94  95  95  93  93  82  71  69  74  62  59  58  54  52  54  47  44  43  46  54  61  68  73  81  92  92  90  87  88  89  87  84  78  70  65  63  61  58  52  52  48  45  42  38  34  33  32  29  28  30  31  31  29  31  31  34  37  36  31  27  23  24  27  34  38  41  38  40  42  59 111 118 118 117 118 119 121 121 120 119 119 118 119 119 118
  89  90  92  91  91  91  90  90  91  90  88  87  83  74  66  66  57  56  49  51  49  34  38  37  43  53  63  71  78  88  97 101 102  98  94  93  91  90  86  81  75  71  69  66  63  59  57  54  52  49  47  44  35  35  35  31  31  34  34  33  34  34  34  35  35  37  34  29  25  25  25  30  35  40  37  35  40  75 119 120 121 119 121 122 120 121 121 120 121 121 119 119
  84  84  85  85  85  86  85  86  83  87  87  90  82  78  62  63  53  52  46  39  31  34  41  44  51  65  76  82  90 100 107 105 104 100  96  91  91  93  88  83  77  75  72  70  67  64  64  61  58  56  54  52  46  42  41  40  39  35  35  39  40  38  37  36  34  33  34  31  31  28  23  23  28  37  43  38  35  44 102 120 121 120 122 122 122 122 122 122 122 120 119 121
  95  98  99 103 103 106 107 108 110 110 112 111  93  70  56  48  39  33  34  34  31  38  45  50  64  76  86  91 101 109 110 109 108 105 101  96  91  91  91  87  79  78  73  74  70  68  69  66  63  62  58  57  54  50  46  43  44  46  44  41  40  43  42  40  35  34  30  29  29  29  26  26  25  30  37  37  35  40  65 115 122 122 122 122 122 121 123 122 121 122 120 120
 114 113 115 115 115 115 117 116 117 118 117 116 102  63  48  38  33  33  35  34  35  42  51  62  77  88  95 100 110 115 112 111 112 109 104  98  96  94  92  88  83  82  80  78  75  72  71  70  69  69  66  63  61  61  56  50  48  47  47  49  49  46  45  44  41  36  33  27  24  26  25  22  24  26  31  35  34  39  55 101 119 120 123 122 121 121 122 122 121 122 120 120
 114 116 116 116 118 118 120 121 119 121 119 117 106  59  45  35  31  36  36  34  38  48  61  75  87  97 104 112 119 118 114 111 113 108 106 105  98  95  94  89  87  86  85  80  79  77  74  73  72  72  71  71  69  69  68  65  61  57  51  49  50  51  54  55  50  45  40  30  26  23  21  23  25  25  26  30  37  45  57  89 112 115 118 122 122 124 123 123 122 123 122 122
 116 117 117 117 117 118 120 122 120 122 120 119 113  59  42  31  34  36  35  38  43  56  72  89  97 107 113 119 122 120 116 117 118 112 111 103  99  99  96  94  90  90  89  85  82  79  78  78  76  76  76  74  75  77  74  74  73  72  69  69  70  68  68  64  58  58  54  43  29  24  21  21  24  25  26  28  32  39  44  50  69  86 116 121 122 123 122 124 122 122 121 123
 116 119 118 120 119 120 119 122 123 123 122 121 115  59  44  38  34  32  36  41  52  73  88  99 106 112 119 124 124 123 120 122 121 118 114 109 105  98  97  96  91  91  91  88  84  81  78  80  80  79  82  81  82  81  81  82  84  85  83  81  80  82  82  80  76  77  74  66  44  29  23  21  21  21  23  26  29  33  43  51  60  87 121 121 124 122 122 123 123 123 123 122
 118 117 118 120 120 120 120 122 123 122 122 121 118  65  44  36  31  32  37  43  66  91 102 106 110 112 123 128 126 126 128 127 125 121 121 116 109 103 101  97  95  94  93  89  84  84  80  82  84  84  86  86  87  87  86  88  91  95  92  91  91  91  90  91  90  91  88  84  65  38  28  23  22  22  22  23  25  28  35  49  81 117 123 123 123 124 123 122 122 124 123 123
 118 118 119 120 120 120 122 122 123 123 123 123 115  59  41  34  34  35  41  50  86 101 108 111 115 115 127 130 132 132 134 135 133 128 125 120 114 104 103 100  98  96  96  93  90  89  88  86  90  91  91  96  93  98  96  98 101 105  99  99  99 101 100 102 103 104 102  95  80  51  32  25  23  24  22  22  23  27  36  75 107 116 123 124 123 123 125 123 123 124 123 124
 118 118 121 122 121 122 121 122 123 124 123 122 116  67  45  36  34  35  44  67  97 107 111 111 120 125 130 133 138 140 142 139 134 132 127 120 115 109 105 102 102  99  99  98  98  97  96  94  96  99 102 101 103 106 106 108 114 123 111 109 109 110 109 108 112 112 110 101  88  65  40  30  26  24  26  26  24  26  38  98 118 122 123 125 124 124 124 124 125 124 123 122
 121 118 121 120 121 122 123 122 125 124 122 121 115  73  49  37  34  39  52  84 104 110 114 118 123 130 133 137 139 141 141 138 129 125 119 116 111 108 106 106 103 103 102 100 102 105 102  99 101 103 106 107 108 110 110 113 121 128 122 119 117 115 114 112 112 111 113 108  97  77  51  33  29  28  27  26  27  28  30  64 113 121 122 124 123 124 126 125 125 124 124 124
 121 120 122 122 122 122 123 123 124 124 126 124 115  67  46  40  39  45  68  96 112 114 120 124 128 130 134 138 138 134 132 128 124 122 117 112 108 108 106 106 105 106 103 104 108 103 105 101 103 104 106 106 107 109 112 115 118 124 123 122 121 118 118 116 113 114 114 113 104  87  60  44  32  29  28  27  28  33  31  34  90 115 121 124 127 124 125 126 125 124 125 125
 120 122 120 121 121 124 124 122 125 124 126 123 113  55  35  38  42  58  85 108 116 121 125 131 134 133 134 134 130 127 124 118 116 113 111 107 105 104 106 103 106 104 106 105 105 104 103 102 101 102 103 103 104 104 107 111 114 117 120 122 122 120 118 118 114 112 112 112 109  96  70  51  38  31  29  28  28  39  44  36  60  90 105 114 123 125 125 125 126 126 125 126
 121 121 122 124 124 123 124 126 126 126 125 124 107  52  33  39  50  72 105 118 122 124 130 136 136 134 131 126 122 120 114 112 108 107 106 104  99  99 102 102 103 106 106 103 104 104 102  98  96  97  95  97  99 102 106 108 109 112 118 120 121 120 121 119 116 114 112 112 110 102  75  55  43  32  31  28  29  32  75  77  87 101 111 119 122 125 125 125 126 127 128 126
 122 121 125 124 125 124 126 126 126 128 126 121 103  50  34  43  52  84 120 124 126 129 135 136 134 130 124 120 116 109 106 102 105 101 101  99  96  99  98 100 102 101 103  99 100  99  96  93  92  94  93  93  93  95 100 104 104 107 113 119 121 119 119 119 115 113 112 111 110 106  82  60  45  37  34  29  26  28  48 106 118 122 123 126 127 126 128 127 126 127 127 127
 125 125 126 126 128 128 130 127 128 128 128 123  98  52  42  47  51  96 134 132 132 136 141 135 126 120 117 112 106  99  92  93  95  92  92  92  93  95  95  99  98  96  97  94  93  93  90  90  90  90  90  91  91  92  95  99  99 102 108 116 120 122 120 120 120 115 114 113 113 108  91  63  47  38  34  32  28  28  30  84 122 128 127 128 128 129 129 129 128 128 129 127
 125 126 128 128 130 129 130 130 129 128 129 128 101  57  37  47  54 114 142 140 140 143 141 125 112 106  98  91  79  72  70  73  75  77  81  86  89  92  92  96  95  93  92  90  89  86  83  82  77  81  79  79  81  84  84  89  90  91 100 107 112 117 119 120 121 117 114 115 113 108  94  67  48  40  32  33  29  28  32  56 119 127 129 130 130 130 129 130 129 129 128 127
 127 127 130 130 129 130 132 133 131 132 132 128  99  59  37  47  52 129 148 146 146 139 118 102  87  76  66  58  52  45  47  52  54  59  71  75  84  86  88  92  92  92  91  86  84  77  71  67  65  65  59  57  57  56  59  63  67  73  80  87  96 103 113 117 119 119 114 114 112 111  99  68  49  42  30  35  32  30  38  58 120 129 132 130 130 130 127 130 130 131 129 129
 130 131 133 131 132 134 134 134 133 135 135 132 109  56  40  46  48 145 154 145 122  97  84  69  58  53  46  44  43  39  37  40  45  48  60  67  77  83  84  88  88  87  86  83  78  70  61  56  53  53  51  45  37  35  35  36  40  46  49  56  65  75  85  96 111 118 117 114 111 111 100  69  48  42  30  31  32  32  48  80 123 131 131 131 132 131 130 131 133 130 130 131
 132 133 134 135 136 136 136 135 136 136 138 138 123  65  46  45  52 161 136 108  89  75  58  51  46  43  41  42  43  44  40  42  43  46  51  60  70  79  81  83  83  82  80  78  73  67  56  51  46  46  46  40  34  32  32  31  32  36  38  41  46  54  65  72  83 100 112 113 114 113 105  68  44  40  33  30  32  37  61  93 126 133 133 133 133 134 135 132 132 132 132 132
 136 137 137 137 137 139 139 137 139 139 139 138 133  69  47  44  70 142  99  88  76  68  64  62  61  60  56  53  52  50  49  50  46  48  51  59  71  78  81  83  82  80  78  76  71  64  57  49  47  45  42  38  36  34  35  34  37  38  38  39  40  46  55  61  65  73  83  94 112 116 106  68  40  37  32  31  33  39  54 102 129 134 135 135 136 135 134 133 134 136 134 134
 138 138 140 139 141 142 142 141 143 141 141 141 140  69  46  43  92 122  97  88  84  84  85  83  85  82  80  78  76  72  72  71  66  64  60  66  74  80  83  85  86  82  78  77  74  67  62  58  52  53  52  48  52  51  55  60  62  62  61  61  60  57  55  56  64  67  67  75  91 110 108  71  39  36  30  31  33  42  50  96 131 135 135 135 136 136 136 136 135 136 136 135
 140 141 141 141 143 143 143 143 144 144 145 144 141  73  49  45  99 115 102  99 100 103  98  95  92  86  82  81  76  73  73  73  74  77  78  81  79  82  88  89  87  84  80  79  76  70  68  66  67  64  62  61  61  63  64  67  68  70  69  73  73  74  74  73  68  73  71  73  81 102 112  78  39  37  30  31  35  40  60 105 134 137 138 138 138 137 138 137 138 139 138 136
 143 143 144 144 145 145 146 145 147 146 146 146 141  86  56  46 118 126 109 110 111 106 103  96  90  83  76  70  67  65  67  72  71  73  75  80  84  88  95 100  94  90  86  84  80  75  71  67  64  62  59  58  58  59  58  61  62  65  68  74  81  83  84  85  83  83  81  78  79  96 113  83  42  36  29  30  34  41  63 121 137 137 139 140 139 138 139 138 138 139 137 138
 145 144 145 147 147 147 148 147 147 151 147 148 143  94  58  44 130 126 114 112 110 103  91  83  70  59  51  43  43  43  46  52  61  68  71  74  81  89 103 106 104 100  95  90  83  76  70  64  57  56  53  48  41  41  42  39  38  39  49  62  71  79  85  89  89  90  88  88  88  99 114  95  46  35  30  29  33  40  60 121 138 140 141 142 143 141 142 140 141 140 139 139
 147 147 148 150 150 150 150 151 151 150 148 149 143 107  70  59 127 125 114 112 104  87  74  58  48  44  30  26  26  29  41  47  50  54  64  71  76  88 106 111 110 106 101  94  84  73  65  60  55  52  46  42  43  42  46  35  27  25  26  32  43  58  70  82  90  92  91  94  94 104 115 107  48  36  32  34  34  37  60 130 140 142 142 142 142 143 143 143 144 142 142 141
 150 151 150 152 151 152 153 153 153 151 152 151 148 149 146  82 123 125 113 106  87  71  50  66  88  49  29  22  22  28  38  48  44  50  56  65  73  85 107 116 120 118 111  99  86  71  62  61  54  48  47  44  43  51  53  31  25  22  25  31  52  44  55  64  76  87  90  93  98 107 116 116  52  40  33  36  32  34  57 117 142 144 144 145 144 144 144 144 144 143 144 143
 152 153 152 152 154 154 155 156 156 154 153 154 154 163 167  80 128 122 112  97  79  56  60  93  93  45  35  27  24  30  38  52  44  40  49  66  75  92 118 135 137 133 125 116  96  72  60  56  52  49  40  41  46  55  51  30  28  23  30  33  59  69  45  54  63  75  89  92  98 107 114 117  67  40  35  35  33  37  59 101 134 143 145 145 145 146 144 146 144 145 144 144
 154 154 154 156 156 157 156 156 158 156 158 158 157 145 127  68 138 123 110  92  74  69  64  94 104  71  42  32  30  31  42  45  40  44  56  71  77 109 138 157 150 142 136 132 116  84  63  58  56  43  40  39  41  48  50  34  30  27  37  46  75  76  50  46  57  70  79  86  94 103 115 118  80  41  36  36  38  44  72  86 115 144 148 146 148 147 146 146 146 146 146 145
 155 156 157 156 158 159 159 159 159 160 159 159 159 151  97  64 140 126 110  93  87  83  82  77  88  88  62  46  47  50  51  51  56  60  68  77  98 124 148 160 154 146 139 136 122  97  75  62  56  51  49  45  44  46  48  45  36  35  42  63  70  61  55  57  60  67  74  84  95 105 115 119  90  41  37  39  46  65  75  75  99 141 147 147 148 147 149 148 148 147 147 148
 158 159 160 159 160 160 161 161 161 161 162 162 160 151  71  64 145 134 116 100  94  97  95  88  85  80  77  71  68  64  62  63  65  68  75  90 113 134 154 169 162 153 142 136 126 111  91  72  59  52  52  50  49  50  52  56  58  58  60  63  65  73  78  73  70  69  74  84  95 106 115 119 100  44  38  48  62  73  68  72  91 136 147 150 152 150 150 150 149 150 149 149
 161 161 160 162 163 162 162 163 162 161 162 163 161 149  59  67 147 148 136 117 112 107 105 102  96  92  83  75  69  66  70  71  74  80  92 104 123 145 162 178 170 158 145 139 129 116 103  81  70  60  55  54  53  54  53  57  65  71  74  78  82  87  89  92  89  84  84  91  99 110 115 119 108  43  39  56  73  87  71  68  80 129 149 151 152 151 151 151 150 151 151 150
 162 162 162 164 164 164 164 165 164 165 166 165 164 158  65  68 151 165 162 144 129 115 107 101  95  89  83  80  77  75  79  80  84  95 104 115 134 153 174 185 176 161 146 137 128 120 109  94  81  72  64  62  61  63  62  61  64  70  74  79  85  91  97 103 105 102 101 104 109 113 117 120 109  49  40  55  70  88  74  60  73 125 150 153 153 153 152 153 153 151 152 151
 163 165 165 165 165 166 166 166 165 167 167 167 166 122  85  71 147 177 180 164 147 131 115 104 100  94  92  89  85  83  86  88  98 105 110 120 144 164 185 188 179 161 148 138 125 121 113 105  89  83  77  71  67  67  71  73  77  79  81  87  94 100 107 113 112 113 113 113 117 118 118 119 108  52  41  53  73  89  81  64  76 124 152 153 155 155 153 154 153 152 152 153
 164 167 167 167 168 168 167 167 167 168 168 168 164 103 103  84 141 182 188 179 164 144 128 117 106 101  99  92  91  91  96 100 106 109 113 128 156 172 185 178 172 160 149 139 130 120 113 109  96  86  84  83  76  73  73  79  85  89  96 105 110 114 118 120 119 120 121 122 122 121 121 120 108  58  44  62  86  96  96  69  82 134 152 154 156 155 155 155 155 154 153 153
 167 168 167 167 167 169 169 170 169 169 170 169 162 103 114  94 135 184 188 183 172 157 139 126 113 104 102  99  99  99 101 103 107 110 117 143 168 174 178 176 166 156 146 140 133 124 115 110 103  94  89  88  88  85  81  84  89  95 104 110 116 120 124 124 123 123 124 125 124 122 123 121 104  58  49  70  93  97 103  75  88 143 155 157 158 157 158 158 156 156 154 154
 168 170 169 170 170 170 172 172 172 172 171 170 166 122 113 101 131 179 183 180 171 161 146 132 119 109 106 103 101 102 103 105 108 112 118 160 173 180 185 176 166 157 146 138 132 128 118 110 110 104  99  96  94  92  92  91  94  98 105 109 116 119 122 125 125 124 124 124 124 125 123 120  94  58  53  69  88  93 104  88 101 151 158 158 160 160 160 159 158 160 157 157
 172 172 171 172 172 172 173 173 173 172 172 171 170 143 102  92 126 171 174 172 165 155 141 131 119 113 108 104 103 104 105 107 112 117 137 174 179 186 184 170 162 154 147 137 134 128 123 111 109 109 105 101  99  95  97  96  98  99 102 106 113 116 119 122 120 122 123 124 123 124 121 117  85  56  52  68  80  82  93  99 124 157 160 160 160 159 160 158 159 157 156 157
 173 172 172 172 173 174 173 172 173 173 173 173 172 154  99  83 115 165 168 165 158 150 139 129 122 116 112 107 105 105 107 107 113 119 158 176 180 175 160 144 139 135 134 132 128 123 121 114 105 108 109 107 103 101 100  98 101 102 103 105 110 114 117 119 120 118 120 120 121 122 121 114  78  61  69  69  72  73  84 105 141 159 161 162 161 162 161 159 158 161 160 159
 174 173 174 175 175 175 174 175 174 175 176 176 174 162 122  80 110 158 156 153 145 142 138 132 130 124 119 113 107 108 108 108 113 129 160 162 162 147 130 118 114 114 111 112 112 112 114 113 107 104 107 106 105 105 104 105 106 106 108 109 109 111 111 114 117 118 118 121 121 122 122 112  77  90  96  64  62  62  75 108 150 161 162 164 162 163 164 163 161 162 161 161
 175 176 177 176 176 175 176 176 176 176 178 177 177 170 164 118  93 152 143 143 142 140 137 137 133 127 122 117 112 108 108 107 112 142 143 140 134 123 114 104 103 102  97  98  99 100 105 110 111 105 102 103 103 106 103 103 107 107 109 110 110 109 109 108 112 113 115 118 120 120 122 111  83 105  99  63  59  62  78 110 157 164 164 164 166 165 163 164 163 165 163 162
 178 179 179 180 179 178 180 178 178 179 179 180 180 174 160 183 146 150 139 137 140 142 142 140 136 131 125 120 114 108 106 105 114 144 126 119 116 110 104  96  96  95  95  93  91  92  97 103 108 106  93  96  98 102 105 103 105 109 108 109 111 109 109 108 110 111 114 117 118 118 122 107 100 105  88  63  58  70  92 118 159 165 166 166 166 166 165 165 164 163 166 164
 180 179 179 180 180 180 181 179 181 182 181 180 180 180 161 147 185 152 138 135 136 142 140 136 135 130 126 119 114 109 104 102 118 129 112 105 107 108 100  94  92  92  93  90  87  90  92  99 102 103  90  89  94  98 101 105 106 108 108 109 111 110 111 110 110 111 112 113 116 118 120 110 108  89  83  76  82  96 104 130 162 166 166 165 167 167 166 166 166 165 166 165
 182 180 181 182 182 180 182 181 182 181 182 181 182 183 188 192 182 151 134 131 136 137 139 137 135 128 121 117 113 107 101  98 112 114 101  71  47  81  99  94  92  92  78  48  29  52  88  96 101 100  86  85  87  93  97 102 105 106 108 110 110 111 112 110 110 110 110 111 114 114 118 112  96  76 102 116 101  98 108 149 165 167 168 167 167 167 167 167 167 167 166 165
 181 183 181 182 182 183 184 183 183 184 183 182 182 185 188 200 165 143 132 127 136 134 134 134 134 131 125 119 110 105 100 100 103 106  91  64  49  63  99  97  93  92  73  58  43  35  67  89  94  93  85  85  87  90  94  99 101 105 107 108 110 111 111 108 109 111 111 111 113 117 118 109  95  91 109 118 104 103 127 161 167 167 167 168 167 167 169 167 168 166 167 167
 183 185 184 184 183 182 184 183 183 185 184 184 183 184 184 170 140 138 130 127 125 131 132 132 129 128 124 117 109 104  99 100 104 101  88  76  73  84  94  92  91  86  81  73  65  52  61  81  87  88  90  89  87  87  93  97  99 102 105 109 110 111 111 112 109 110 111 110 113 119 118 105 111 110 107 118 120 118 152 167 169 169 169 168 168 168 170 168 167 168 169 168
 183 184 184 185 185 184 185 185 183 186 184 186 184 184 184 159 132 131 129 126 124 124 128 126 124 123 117 110 105 102 104 107 110 105  93  79  82  88  86  87  86  81  75  72  72  66  65  72  89  96 101  95  91  88  92  93 101 104 104 109 110 113 112 111 108 109 112 110 113 117 116  97  97  98 100 107 117 143 166 170 169 171 170 169 168 170 170 170 169 170 169 167
 184 186 185 186 184 185 186 186 184 186 185 186 186 186 187 181 148 129 127 124 124 124 127 127 127 123 116 109 106 108 115 119 118 114 104  89  88  92  90  86  82  82  80  76  73  73  73  92  99 102 104 104 100  93  92  94  98 102 105 107 109 111 112 113 110 110 113 110 112 117 116 102 100 101 103 105 128 163 169 171 170 170 168 170 169 170 169 170 170 170 170 168
 185 188 187 187 187 186 187 187 185 187 185 187 187 188 187 187 183 163 130 125 127 128 130 128 128 122 116 113 111 118 124 127 123 119 115  97  91  91  89  87  80  83  81  79  77  82  85  97 102 104 102 103 104 103  95  94  97 102 104 103 108 111 114 114 111 111 111 111 112 118 112 105 108 108 109 120 160 170 172 173 171 173 172 172 172 171 170 170 171 171 170 169
 186 186 187 187 186 186 187 186 188 188 189 188 188 189 188 189 189 184 139 123 125 129 127 128 129 122 118 117 120 124 129 129 126 124 121 108  97  94  89  84  78  85  84  80  79  88  94  99 102 102 101 103 104 103 102  96  98 102 104 106 109 110 113 116 116 112 112 110 113 118 110  97 101 103 129 160 170 172 173 174 171 173 173 172 170 171 172 169 171 171 170 169
 188 188 186 187 186 188 188 187 188 188 189 188 191 189 189 188 190 187 152 124 124 128 128 129 130 126 125 121 124 127 130 133 129 129 128 120 109  93  88  82  75  82  83  81  80  89  93  96  97  98  99 101  96  94 105 104  98 100 104 106 106 107 111 115 117 115 110 111 112 119 144 139 137 153 167 172 174 173 172 173 174 173 173 173 172 172 171 171 171 171 170 170
 188 188 187 186 188 188 188 187 189 190 189 188 189 191 189 190 191 187 163 122 121 127 130 129 128 131 128 125 125 130 132 136 131 133 133 125 112  98  89  80  76  80  82  84  87  90  97  96  94  93  98  98  98 100 105 106 104 102 104 106 106 112 114 114 116 114 110 110 110 120 160 171 173 173 173 175 175 173 173 173 174 174 173 173 174 173 173 174 172 172 172 170
 188 188 188 188 188 188 189 189 189 190 190 190 190 190 190 191 190 189 173 123 122 128 130 126 128 129 128 129 132 135 134 135 134 135 134 128 117 102  91  79  76  76  83  83  88  93  97  98  94  92  94  97  97 102 102 105 104 102 102 106 108 110 113 114 117 114 114 110 112 125 165 175 175 173 175 174 174 173 175 174 173 174 174 173 173 173 172 172 174 173 172 171
 187 187 187 189 189 188 189 190 190 190 190 191 189 190 190 190 190 189 183 126 121 128 131 128 128 128 129 129 134 134 132 134 138 140 135 125 114 101  91  82  81  79  84  87  92  96  97 100 101 102  98 101  99  97  99 102 103 105 105 106 106 110 113 113 119 114 110 112 114 130 169 174 174 175 175 175 175 175 176 174 174 174 174 174 173 174 174 173 174 173 173 172
 187 188 189 189 190 190 189 190 190 190 190 190 190 190 190 190 190 192 188 138 123 128 132 127 126 124 128 127 130 127 125 132 134 123 109  99  91  86  88  90  90  89  85  82  82  88  94 102 102 102 101  99  97  98  96 102 103 104 105 105 106 110 111 113 115 113 111 113 116 137 172 174 174 174 175 176 176 175 176 175 175 175 176 174 174 174 174 172 175 173 172 172
 188 189 189 189 189 189 189 188 189 190 189 190 190 190 191 194 191 192 189 152 124 127 130 127 127 128 128 122 116 110 111 114 101  87  79  75  74  74  77  80  83  78  72  68  67  71  80  91  98 100 100  97  95  98  95  98 104 104 104 106 105 108 112 111 112 113 111 112 115 145 173 177 176 176 175 175 176 176 175 175 177 175 175 175 174 176 175 173 174 174 172 172
 189 188 189 189 189 189 189 189 190 191 190 191 190 191 192 194 194 193 192 174 122 127 130 126 126 123 122 112 101  91  90  85  78  73  71  70  70  72  73  71  71  69  68  63  65  65  66  72  78  87  92  95  89  91  95  98 101 104 103 105 106 109 114 113 113 113 113 111 114 150 174 177 178 178 176 176 176 177 176 176 176 175 176 175 175 175 175 175 174 175 174 174
 188 189 189 190 189 189 188 190 190 190 190 192 193 192 192 193 194 194 193 190 140 128 130 127 125 119 115 100  87  70  53  58  60  63  53  47  50  57  62  66  66  63  66  63  67  63  61  64  64  70  73  78  79  82  89  95  99 102 101 104 104 106 111 116 115 117 113 111 118 161 176 176 178 177 177 176 177 176 176 176 175 175 175 175 175 175 174 175 176 175 174 174
 189 189 190 190 190 190 190 190 189 190 191 191 192 192 192 194 193 194 192 191 167 128 129 126 124 116 111  98  87  77  68  66  71  70  62  53  49  43  41  39  38  44  47  40  36  38  43  47  51  56  55  53  51  68  78  86  94 100 101 103 103 104 109 114 115 117 114 111 124 172 177 179 178 178 177 180 177 177 178 176 176 175 175 176 175 175 175 176 175 176 174 174
 189 190 190 189 190 190 190 190 189 191 193 192 191 191 194 193 192 195 195 194 189 140 131 126 121 114 107 101  98  98  92  83  85  87  80  69  67  66  64  52  45  46  44  42  45  44  47  46  47  49  49  47  51  62  74  80  87  97 102 101 104 106 110 114 116 115 111 104 140 175 180 180 179 179 179 181 178 177 179 179 177 177 178 176 175 176 176 177 176 175 176 175
 189 189 190 190 189 190 191 191 191 192 192 192 192 194 195 194 195 194 192 193 191 172 131 126 121 112 109 104 104 103  99  91  89  90  88  76  72  71  70  66  64  60  59  55  58  58  62  65  61  62  61  61  70  76  80  83  88  94  99 100 104 107 110 112 113 113 110 111 173 177 179 180 181 181 179 179 178 179 176 178 178 178 177 177 177 177 176 176 177 174 175 176
 189 190 191 190 190 190 191 190 191 193 192 192 191 192 194 196 195 194 194 194 192 188 154 125 118 114 111 108 105 104 103  99  93  90  89  83  76  73  72  70  69  70  66  67  66  69  72  71  69  69  73  79  82  84  84  84  89  94  99 101 102 105 109 111 112 110 109 154 176 180 180 180 179 181 179 180 179 179 178 177 179 180 178 176 178 179 177 176 177 178 177 175
 189 190 190 190 191 190 191 189 190 192 191 192 195 193 194 195 194 195 192 194 191 191 183 128 116 113 108 108 105 103 102 101  96  93  87  83  79  76  74  71  69  71  69  69  70  72  71  71  70  74  81  87  87  86  87  88  89  94  99 100 105 106 108 110 110 106 132 170 180 181 180 179 180 181 178 178 180 179 178 179 177 177 180 178 177 177 177 178 177 176 176 176
 190 189 190 190 191 190 190 192 192 193 192 195 194 194 195 195 193 194 192 192 193 194 189 149 119 114 105  99 104 102 101 101  97  96  90  84  83  80  75  70  69  68  69  67  70  69  71  73  76  83  84  86  87  88  88  90  92  95  99 102 103 104 109 110 107 111 160 176 181 181 182 180 180 182 181 181 179 179 179 180 177 178 179 177 178 176 177 177 175 175 176 176
 190 190 190 190 189 192 192 191 191 192 193 194 194 194 194 195 192 190 191 191 191 192 189 177 122 114 108  97 103 101 101 100  97  94  94  92  89  86  82  79  77  73  73  73  73  75  79  81  82  84  85  86  88  88  88  89  92  95  98 102 103 106 107 106 107 125 168 178 180 180 182 181 180 181 180 182 178 179 180 180 179 180 179 177 177 176 177 176 176 176 176 176
 191 189 191 189 190 190 192 191 190 191 191 191 192 194 195 194 194 192 193 191 193 192 192 189 150 115 112 106 106 104 101  99  98  93  91  90  88  85  81  76  75  72  74  78  79  80  81  81  84  86  86  86  87  89  87  89  92  96 100 102 103 103 103 109 115 126 168 180 179 182 182 180 181 180 181 180 178 179 180 180 179 178 181 176 178 175 176 176 176 175 175 176
 190 190 189 189 189 190 191 190 191 191 191 190 193 194 196 193 193 192 191 191 192 192 191 190 185 126 113 109 108 107 104 104 102 101  96  90  86  80  74  69  70  68  66  71  73  77  79  82  84  85  85  86  87  88  89  91  93  98 102 102 102 102 103 111 117 133 174 181 180 182 179 181 180 180 181 180 180 179 179 179 179 179 181 178 177 177 176 176 176 176 174 176
 189 190 188 190 189 190 189 191 192 191 191 191 192 193 194 194 192 192 192 190 192 191 190 190 189 168 115 111 113 110 108 109 107 107 102  97  87  80  74  69  69  67  66  68  71  75  78  84  83  85  86  86  86  89  91  93  95  98  99  98  97 100 106 109 116 133 175 181 182 181 180 181 181 182 180 179 180 180 180 177 178 177 178 179 179 176 176 177 176 177 176 175
 188 188 190 190 190 190 190 190 192 191 191 191 190 193 193 194 192 192 192 190 191 192 190 190 189 180 124 111 113 112 109 111 109 109 103  97  91  84  79  75  74  70  70  70  72  76  80  86  89  89  89  90  89  90  93  93  97  96  95  93  96 103 105 109 115 135 175 181 181 181 181 181 180 180 179 180 180 180 180 180 180 178 178 178 178 176 176 178 176 177 177 175
 189 188 188 189 189 191 191 192 190 191 190 191 191 193 193 193 190 190 190 189 191 190 191 190 190 185 132 112 109 110 110 113 111 110 106  99  93  86  82  81  80  76  75  76  79  82  88  91  93  94  94  95  94  94  95  92  95  92  91  92 100 104 106 109 113 135 175 180 181 182 180 181 179 179 181 181 180 178 177 179 179 178 179 176 176 177 178 177 176 177 175 175
 188 189 188 189 190 189 189 190 191 190 192 194 193 192 192 192 190 189 189 190 189 189 191 190 188 183 134 116 105 107 109 110 110 108 106 101  92  87  86  86  84  82  80  81  82  86  90  94  97  99  98  97  98  97  93  91  90  88  92  94 101 106 109 110 113 138 176 181 181 180 180 181 179 180 180 182 181 179 178 178 178 177 179 176 178 177 176 176 175 176 174 174
 187 188 187 190 190 189 189 191 191 190 190 191 191 192 192 191 190 189 190 190 188 190 189 188 188 179 137 119 110 104 106 107 109 107 103  99  92  89  88  88  87  86  84  88  87  90  90  95 100 100 100  99  98  95  91  88  84  88  93  98 103 106 107 108 114 140 175 180 181 181 181 179 180 179 180 180 179 178 178 178 179 178 179 178 177 175 176 176 176 174 175 176
 189 186 189 188 189 189 190 188 189 189 190 191 191 191 190 190 190 189 189 190 189 189 188 189 184 149 134 120 112 105 102 103 108 106 102  97  92  89  88  88  88  88  87  87  90  91  93  93  95  99  98  96  95  93  88  86  85  92  94 101 105 105 108 110 113 144 175 179 178 180 181 180 179 178 179 178 178 178 178 177 178 176 176 176 177 177 176 174 176 176 174 176
 186 185 189 188 188 189 189 190 190 188 190 191 191 190 191 190 190 189 188 188 188 187 178 162 126 120 134 120 115 111 101  99 103 102 100  95  92  89  88  87  88  88  87  88  88  89  90  94  92  95  96  93  88  88  80  87  91  96 100 101 102 104 105 109 114 143 174 178 178 178 179 178 178 179 178 179 178 179 178 177 176 178 178 176 176 176 177 176 176 177 175 175
 185 186 187 189 188 189 190 190 188 191 188 190 190 191 190 189 188 186 187 178 159 136 121 114 131 186 134 121 114 110 105  98  93  95  97  94  88  87  87  85  88  86  86  86  87  86  87  88  89  91  88  85  81  84  85  91  95  98 100 103 101 103 106 108 110 129 161 175 178 177 181 177 178 176 179 180 180 178 177 179 177 178 177 177 176 177 177 177 176 176 177 174
 186 186 186 187 188 188 189 187 187 189 188 189 189 188 189 187 185 176 135 122 111 107  99  99 186 187 134 122 114 109 106 103  95  89  93  93  87  85  84  83  86  87  86  85  84  85  84  83  85  85  79  80  84  87  92  97  99 101 103 101 103 104 104 107 109 116 122 135 139 146 169 180 175 176 178 177 177 176 175 176 176 176 178 176 175 176 175 176 175 175 174 174
 185 186 185 186 186 187 186 187 186 188 189 190 188 187 186 169 146 120 114 111  98  94  92 104 205 187 134 121 114 110 106 105 105  93  88  87  86  85  85  85  87  87  86  85  83  82  81  79  80  78  80  86  90  92  94  98 100 103 103 100 100 103 105 107 108 115 120 122 120 117  84  91 150 176 176 177 176 179 177 177 176 175 177 176 176 176 177 176 175 175 174 174
 185 184 184 184 186 186 186 187 187 187 186 187 183 161 132 115 111 108 107  99  89  85  88 120 202 185 132 119 112 108 107 107 107 105  95  88  85  84  86  86  85  84  87  86  84  83  76  74  78  84  86  89  90  92  99 100 101 102 101  99  98 101 103 106 109 113 120 122 120 120 107  55  60  75  98 145 176 175 176 176 175 175 177 176 176 176 176 175 176 176 175 175
 184 184 185 184 184 185 185 187 185 184 164 138 120 112 108 103 101  98  98  91  84  78  85 129 196 174 132 117 110 106 106 105 105 105 104 100  95  88  88  87  83  82  84  83  79  78  77  82  86  88  88  90  92  94  98  99 102 102  99  98  99 101 103 106 107 114 120 120 120 120 105  48  47  47  52  64  93 139 168 175 175 175 176 176 176 175 175 176 176 176 174 176
 184 184 184 185 184 182 180 168 155 122 114 109 103 101  95  94  95  89  91  85  80  77  80 129 191 165 130 118 109 105 106 106 105 102 103 103 104 103 101  96  93  90  90  87  87  88  90  89  86  87  90  92  94  95  96  98  99 100  99  99  99 100 101 104 107 109 120 121 120 119  87  46  40  40  44  51  58  68  83 111 143 168 175 176 175 175 176 175 176 175 175 174
 182 182 182 181 165 138 117 110 107 104 100  96  96  95  84  89  85  83  85  80  75  74  77 125 186 158 128 114 109 105 104 105 104 102 102 102 104 103 102  97  96  95  93  93  93  92  91  89  87  87  88  92  95  96  98  97 100 100 100 100  96  97 100 102 105 109 117 120 121 115  69  41  37  35  40  46  49  47  54  62  75  97 144 172 174 174 176 174 176 174 174 174
 181 165 137 105 107 104 101 103  98  96  92  88  89  88  80  81  77  79  81  79  76  71  74 112 177 152 129 115 107 105 103 102 103 104 103 103 103 102 102  99  98  94  90  91  92  92  91  89  88  88  86  91  95  95  94  94  94  96  97  96  95  98  99 102 105 108 116 119 118 108  49  38  35  35  38  43  44  45  46  47  53  60  72  97 144 171 174 175 174 174 174 173
 113 100 101 100  96  94  93  94  90  89  83  81  81  81  74  75  70  77  77  77  76  73  75 101 171 145 123 114 107 104 103 102 100 102 102 100  99  98 101  98  98  96  94  93  92  92  89  89  89  89  88  90  92  92  90  93  94  94  96  94  95  98 100 103 105 108 111 117 116  88  41  35  32  34  37  43  44  40  41  40  43  47  53  59  67  81 120 157 172 173 172 171
  96  92  92  88  91  85  87  85  82  82  77  77  79  76  71  70  66  77  76  74  73  70  73  88 163 143 120 111 107 106 104 102 100 102 100  99  97  96  98  98  97  97  95  95  95  92  91  91  88  88  88  89  89  90  88  88  90  92  92  93  94  97  97 102 104 106 108 113 111  65  39  34  34  34  35  40  43  37  37  36  38  40  45  46  53  54  59  68 101 138 167 172
  90  88  83  83  80  77  82  75  79  76  76  75  81  71  68  66  66  76  72  69  68  71  67  80 149 139 121 110 107 107 104 101 100 100 101 100  99  96  96  96  97  97  96  95  95  93  91  91  89  87  86  87  88  87  84  85  89  92  94  94  95  97  97 103 103 104 108 114  98  46  38  35  34  34  33  39  41  37  37  38  36  36  40  41  45  46  48  52  58  66  75 103
  82  81  77  80  73  76  77  74  75  75  76  78  79  70  67  67  68  76  68  72  67  66  67  73 126 132 117 108 106 107 104 100  99 100 100 100  98  97  96  97  96  97  97  96  94  92  91  90  88  85  85  86  85  84  84  87  90  91  92  93  95  96  97 100 104 105 104 110  79  41  36  33  34  35  33  37  41  37  36  35  34  33  37  38  45  42  43  45  47  50  57  64
  80  75  77  73  72  77  76  77  70  71  75  81  77  66  64  65  70  76  66  67  65  67  65  65 104 126 112 105 108 107 103 102  98 100  99 100  98  97  95  96  95  97  98  96  95  92  89  86  86  85  83  84  83  84  86  86  88  91  89  92  92  93  94  99 102 103 104 106  64  40  34  32  35  37  34  36  40  37  36  35  34  32  35  36  44  44  40  39  42  42  44  50
  75  72  71  70  73  74  78  72  71  73  75  81  72  67  61  66  74  71  63  64  62  60  64  58  71 113 109 102 107 104 104 104  98  97 100  99  96  94  95  93  95  94  95  95  94  92  87  84  84  85  85  84  85  84  86  85  86  88  90  92  89  93  94  96  98 105 103  95  45  38  34  33  34  35  31  34  40  37  35  36  36  31  31  33  37  43  38  40  41  39  36  40
  71  70  69  69  73  78  76  72  67  70  78  79  71  62  63  66  72  72  62  60  63  59  58  56  58  84 106 101 102 102 103 102  99  97  99  98  96  94  98  93  92  92  89  88  88  85  84  83  83  84  86  86  84  84  85  86  88  88  88  87  90  91  92  96  98 101 100  75  41  36  33  32  35  36  31  32  39  36  36  36  36  32  31  32  33  41  41  40  40  39  36  36
