P2
# Generated by OpenCV 3.4.0
92 112
255
  82  80  83  85  85  86  88  86  87  87  86  87  90  91  90  90  91  91  92  90  90  91  91  92  92  91  91  94  95  98  97  94  93  93  94  94  93  94  94  93  94  94  95  97  96  96  95  94  93  93  95  94  93  93  95  93  94  94  91  93  93  93  92  91  92  93  93  93  93  94  94  92  92  93  92  92  91  92  91  90  91  90  92  92  90  90  92  92  92  90  90  88
  81  84  84  84  85  86  89  88  90  89  89  91  89  90  92  90  92  93  92  90  91  92  91  92  92  94  93  93  94  95  94  94  94  94  95  98 100  97  96  95  97  98  99 101  99  97  98  96  95  95  96  94  94  94  93  92  95  94  93  95  93  94  94  94  93  93  94  94  94  93  94  93  93  92  92  93  91  91  91  91  93  91  92  90  92  92  91  92  91  90  89  89
  83  84  84  86  86  87  88  87  88  90  90  91  90  91  91  92  92  92  92  94  93  91  93  94  92  93  93  93  92  97  98  99  97  97 102 102  99  96  99 111 120 110 103  98  97  96  98  95  95  96  96 100  95  95  94  93  94  95  94  96  94  94  95  94  92  93  95  93  94  94  93  93  92  93  94  91  93  91  92  92  92  92  91  91  93  91  90  91  92  89  89  90
  85  84  85  86  87  88  87  86  88  90  88  91  92  91  89  91  92  93  92  92  93  93  94  93  93  91  94  97  94  94  95  98 100 101 100  97  97  98 109 120 103 102 100 101 103 106 104 104 102  99 102 100  98  97  96  94  94  94  94  96  94  95  95  94  94  94  93  96  93  94  93  95  94  95  94  93  93  92  92  92  92  93  94  91  92  91  91  90  93  91  90  90
  83  84  85  85  87  86  88  88  90  89  90  92  91  89  90  91  90  93  93  92  94  94  94  91  91  90 102  99  97  99 101 104 101 101 104 118 126 130 129 117 114 111 116 115 124 125 120 104  94  88  91  99  97 102  95  94  94  94  94  95  95  96  93  93  94  94  94  95  94  94  95  94  94  95  93  94  95  92  93  94  93  93  93  92  92  93  94  92  91  92  91  91
  84  86  85  87  87  89  88  90  89  89  89  91  91  91  91  90  91  92  93  92  94  97  95  94  92  91  97  96  98 105 113 106 105 107 116 127 125 144 132 124 121 125 126 121 120 108  98  84  76  71  68  70  74  80  82  86  87  88  89  92  93  96  96  92  94  94  97  94  94  95  94  95  94  94  95  94  94  94  92  93  92  92  93  92  92  93  93  93  93  91  93  92
  86  86  88  88  88  90  89  91  90  88  91  90  92  92  92  91  92  95  93  95 100 101 101  94  90  91  99  96 100 100  95  93  98 107 130 149 156 134 123 136 137 138 132 120 112  92  75  72  66  64  66  68  68  68  68  67  71  71  72  76  83  92  95  96  97  96  96  97  97  96  96  95  95  95  96  96  94  94  94  93  93  92  93  94  93  92  92  92  94  91  92  93
  85  85  89  90  90  89  90  91  92  91  91  92  92  93  92  91  93  95  95 100  97  97  95  97  96  97  96  92  91  90  82  91 116 143 165 168 147 139 144 159 173 163 147 129 105  98  84  81  76  70  65  62  59  58  61  61  62  64  65  64  65  72  81  91  95  95  96  98  95  95  96  97  96  95  94  94  96  94  94  93  92  94  95  93  93  92  92  92  92  94  91  91
  88  87  86  89  87  88  89  89  90  90  93  91  92  92  93  92  94  98 107  99  94 105 118 113 101 105 112 113 106  84  80  95 130 140 136 117 108 106 141 158 157 142 126 108 100  85  74  72  69  56  50  53  51  49  48  49  52  54  59  62  62  63  68  76  87  94  94  96  97  96  96  97  96  96  98  96  96  94  95  94  96  93  94  93  93  93  94  93  94  93  94  92
  89  88  88  90  88  88  90  89  91  92  93  94  93  90  94  94  96 107 105 100 112 119 130 115  94  94  94  87  78  76  79  93 106  99  84  88  80 102 118 115 112  81  76  66  73  81  83  77  70  61  54  51  46  44  45  42  43  45  51  56  57  61  63  68  74  86  92  96  96  97  94  98  98  96  96  97  96  94  95  95  94  96  94  93  94  94  93  94  94  96  94  94
  88  88  90  89  88  91  91  92  91  91  93  94  93  92  93  96 102 102 132 111 105 116 125 134 116  98  96  85  65  72  77  82  82  67  63  65  70  81  91  72  42  42  48  58  71  78  76  67  58  48  40  40  36  37  37  36  36  40  44  50  54  61  63  66  67  70  84  91  96  98  97  97  97  98  96  97  96  95  96  96  97  95  96  94  94  95  94  94  93  93  93  94
  89  88  90  92  89  91  91  92  92  91  94  93  93  92  92  95 106 129 110 104 129 143 154 150 140  92  81  72  67  69  73  68  56  48  51  53  56  61  47  29  29  34  41  46  54  59  60  53  49  43  39  36  34  34  36  34  36  35  36  36  38  42  48  60  64  68  66  76  94  98  97  97  98  97  97  96  96  98  98  96  95  95  96  94  94  94  93  94  93  93  94  94
  90  89  90  90  89  91  93  91  92  94  92  93  93  93  94  96 113 117 117 138 142 166 170 139 115  90  73  67  67  70  65  55  50  45  49  49  46  33  24  24  25  25  27  44  59  65  61  54  55  58  46  40  37  40  37  35  37  38  38  40  43  46  46  48  52  57  61  60  74  93  93  96  97  96  95  98  94  98  97  95  94  94  95  94  96  95  95  94  94  93  93  93
  89  88  90  89  90  90  90  91  91  93  93  94  94  95  97  95 120 105 105 147 170 163 142 133 130 106  84  71  67  61  53  47  44  43  45  40  30  22  20  24  23  31  45  52  53  56  71  73  68  56  50  46  41  37  35  35  37  36  37  35  36  40  45  46  49  51  52  57  61  74  92  95  96  95  96  98  98  97  95  96  96  97  95  94  94  94  95  93  94  94  93  93
  90  90  91  91  93  91  93  92  93  93  95  96  94  98  97 112 110 125 150 162 159 153 162 147 125  96  75  65  56  52  49  43  40  38  36  32  24  23  19  21  24  30  34  37  43  53  66  71  64  52  44  42  35  35  34  36  39  41  44  45  46  47  47  44  43  46  48  50  55  61  82  94  99  98  96  97  96  95  95  95  96  96  95  95  95  95  94  96  94  94  94  94
  91  89  91  91  90  92  92  92  94  94  95  96  99 103 109 111 121 148 153 152 154 148 155 147 120 108  85  66  54  50  45  42  38  32  32  28  23  18  18  20  22  24  25  31  34  39  41  46  45  39  32  30  28  27  28  28  32  31  28  31  36  41  42  45  44  43  45  46  49  51  65  87  97  98  97  97  99  97  96  95  96  96  95  95  95  94  95  94  94  96  94  93
  90  92  91  90  91  92  93  92  96  97  97 100 106 110 100 110 128 129 132 125 132 157 162 152 141 113  83  63  49  44  41  39  37  32  30  24  19  18  18  19  18  20  21  21  21  21  24  25  20  18  18  19  20  23  26  27  27  26  24  28  28  30  33  35  34  36  39  42  43  46  54  74  94  96  98  97  96  96  96  96  97  97  96  96  96  94  94  94  94  95  95  92
  90  92  91  91  92  92  93  94  96  93  95  98  99 100  99 109 102 104 105 113 135 140 152 166 146 114  74  51  42  37  37  36  34  33  30  26  21  19  20  22  24  23  18  19  21  22  22  23  24  24  26  25  22  22  22  21  22  22  24  26  28  31  30  32  31  31  31  31  33  42  46  61  88  97  96  95  95  95  97  97  97  95  95  95  94  94  95  95  95  93  92  92
  90  91  92  93  92  92  94  94  96  96  98  97 100  91  93  90  97 101 101 105 126 143 164 154 123  89  67  49  42  39  37  36  34  33  32  30  27  26  25  24  24  26  25  27  26  26  28  29  28  29  28  25  20  19  19  19  22  22  22  21  18  25  27  32  38  37  36  36  38  42  46  50  69  90  94  96  95  94  94  92  92  92  91  91  92  91  91  90  90  89  90  87
  91  92  93  92  92  91  93  93  98  98  98  97  98  88  86  83  81  80  86 106 121 136 121 113 114  79  50  40  39  38  37  40  41  39  38  37  33  30  30  32  36  33  31  31  32  29  31  30  27  25  25  25  24  23  23  20  20  20  19  18  17  19  21  25  35  43  48  47  50  53  53  50  52  77  88  91  89  89  90  89  87  88  87  89  87  87  89  86  89  89  89  88
  91  92  92  93  93  93  95  94  96  96  94  92  83  79  74  70  72  81  97 100  94  80  98 110  80  42  34  40  42  39  41  46  48  52  53  51  44  38  35  33  38  36  33  29  30  27  27  27  24  25  23  23  22  21  20  18  19  20  20  21  22  21  23  24  25  31  44  52  54  55  57  56  51  52  77  88  92  90  93  95  96  98  99 100 103 103 105 106 107 110 111 113
  91  93  94  92  94  93  93  94  95  94  94  86  78  72  71  72  79  80  72  66  62  70  82  64  38  34  37  47  47  50  54  60  66  65  69  67  60  52  45  46  42  37  35  31  29  30  26  25  23  24  22  22  23  22  22  22  22  22  24  22  22  23  24  25  29  30  33  44  46  51  50  53  53  48  54  94 112 114 114 117 116 116 116 116 117 118 117 117 118 118 117 117
  89  91  92  92  92  95  95  95  94  93  93  79  70  64  68  70  74  65  59  58  60  63  55  45  38  40  45  50  56  61  67  75  76  75  78  74  69  59  55  53  50  44  40  36  34  32  33  30  28  27  25  23  24  25  26  25  25  25  26  23  22  23  25  25  24  25  30  35  45  49  47  46  49  51  52  65 113 117 118 118 120 121 120 119 119 122 121 120 119 119 119 119
  92  90  92  91  89  91  91  90  92  88  85  74  67  68  67  63  63  58  56  59  57  48  43  43  42  49  56  61  66  75  79  84  82  85  85  81  76  70  63  58  55  51  48  45  41  37  35  34  32  30  29  26  25  25  28  27  26  28  30  29  31  29  24  25  26  26  26  27  34  44  46  44  44  47  49  49  90 118 121 120 122 122 121 120 122 122 122 122 120 120 121 119
  83  86  86  86  84  85  86  87  87  85  80  75  72  65  63  60  57  52  54  48  37  37  43  46  52  58  66  74  81  89  91  89  87  91  90  88  83  76  68  63  63  58  54  52  49  47  44  42  36  32  31  30  28  27  28  28  29  30  29  30  33  34  35  31  24  24  24  25  25  35  41  43  40  40  44  49  57 113 122 122 123 122 122 122 122 122 122 120 119 121 121 120
  96  97  99 101 104 107 108 106 109 107  92  73  68  62  60  54  51  52  40  34  36  40  44  51  62  69  78  86  97  99 101  97  95  94  93  92  89  79  75  69  65  64  61  56  56  51  49  49  46  38  35  34  32  30  30  30  33  32  32  32  33  34  35  39  39  30  25  23  24  29  34  38  41  39  37  39  47  88 118 121 121 122 122 123 123 122 123 122 121 122 122 121
 113 112 115 115 116 117 117 118 117 112 100  73  66  60  52  49  41  33  32  37  38  42  50  64  74  81  91 101 108 108 107 103 100  96  96  95  90  84  78  76  72  70  66  63  61  59  54  52  52  48  43  38  37  38  35  34  35  36  36  37  36  36  35  37  37  37  33  28  25  22  25  32  39  44  41  37  38  47 106 122 122 122 122 122 122 124 123 122 122 123 122 121
 116 116 115 115 117 119 121 119 120 116 103  73  61  51  41  38  36  33  33  41  43  50  61  76  83  93 105 111 113 113 111 105 101  98  96  94  92  85  80  76  75  71  69  68  70  66  62  60  57  55  51  47  44  44  43  43  38  37  39  43  41  39  37  34  34  31  30  31  29  27  24  27  32  40  41  39  36  42  73 118 122 123 123 124 123 123 123 121 124 123 121 123
 117 117 116 117 120 120 122 121 119 118 105  72  50  42  34  33  36  35  39  46  48  61  76  86  94 106 115 117 114 115 114 110 104  99  96  96  93  89  84  82  79  75  73  71  71  68  67  68  63  60  60  57  50  48  45  45  48  48  45  44  44  42  41  36  34  30  27  27  27  26  24  22  24  32  35  38  37  40  53 102 122 123 122 122 123 122 123 122 123 122 122 122
 116 119 118 120 120 122 122 122 122 119 112  69  48  39  34  37  35  34  43  49  58  76  88  98 108 115 120 120 118 116 115 110 103 103 102  97  96  91  89  88  84  82  78  76  74  74  72  71  69  68  65  64  62  59  52  50  48  45  47  50  50  48  46  44  40  34  26  23  23  24  24  24  23  25  31  34  39  44  56  86 119 122 121 120 123 124 124 123 124 124 122 122
 117 120 119 120 120 121 123 122 122 121 119  77  48  36  34  37  36  35  48  57  70  89  99 108 116 122 124 123 120 120 118 112 109 105 103  99  96  93  94  90  87  86  83  80  80  77  77  76  75  75  74  72  70  70  67  63  61  60  59  58  58  58  57  51  49  45  34  28  24  22  22  25  24  24  26  30  39  45  54  75  99 106 116 120 124 123 123 122 122 123 123 122
 120 120 122 120 121 121 121 122 121 122 121  76  48  35  35  34  35  43  53  70  86  99 108 116 124 126 127 123 121 122 122 118 111 107 105 101 100  96  94  92  90  88  84  81  80  80  79  78  80  79  78  80  79  78  79  75  72  73  74  76  74  71  68  69  68  62  49  32  27  24  20  20  24  24  25  29  34  41  43  47  52  69 115 123 125 124 123 124 123 124 124 123
 119 118 122 121 120 120 122 122 122 123 121  85  49  39  34  33  38  47  65  87  98 107 113 121 127 127 125 123 126 127 123 120 117 115 108 102 100  95  96  94  92  89  85  83  82  82  83  82  85  85  86  85  84  85  87  87  86  83  83  84  82  81  78  79  81  82  74  51  32  28  23  21  22  22  22  24  29  33  41  50  75 102 122 124 124 124 126 125 125 125 123 124
 118 120 121 122 122 122 122 123 124 122 122  95  50  37  34  36  40  50  84 100 106 113 114 124 128 130 129 132 133 131 129 128 123 118 109 106 105  99  98  96  94  91  89  86  87  85  88  89  90  89  87  88  88  89  91  96  94  93  94  92  91  90  91  91  91  90  87  74  44  31  26  22  23  21  19  22  26  29  35  49  81 114 125 125 126 124 124 124 123 125 124 124
 119 120 121 122 121 122 123 122 122 122 122  98  53  36  35  35  42  63  98 107 112 118 119 127 132 135 137 139 140 137 135 130 126 122 112 108 105 101 101  99  99  98  97  94  92  93  92  94  96  97  95  98  97 100  98 103 100  98  99  99 100 100 102 101 104 101  95  86  61  38  28  25  24  24  23  20  23  27  42  85 117 119 124 124 124 126 124 126 125 125 126 124
 121 121 123 122 124 123 122 124 124 124 124 108  65  38  36  38  46  80 105 113 116 121 128 132 134 139 141 145 143 138 136 131 124 118 114 110 108 106 105 105 102 104 103 102 100  98 100 104 104 103 104 104 107 108 109 117 109 108 108 107 107 108 108 110 114 109 103  91  72  50  34  27  25  25  26  25  24  26  32  84 119 124 123 124 124 125 125 126 125 127 126 126
 122 122 122 122 123 123 123 125 123 124 126 113  58  42  36  40  59  94 112 116 120 126 131 135 140 142 142 143 140 135 129 123 121 115 114 111 111 109 108 105 103 108 107 105 106 104 105 106 106 107 109 110 109 113 118 124 120 117 113 113 110 112 112 114 114 113 109  99  82  58  40  31  27  27  27  25  27  28  30  49 106 122 122 122 127 126 125 125 125 126 127 126
 124 124 125 125 125 126 125 124 125 126 126 100  49  40  39  45  76 108 119 122 127 130 136 138 141 142 136 136 133 129 124 121 116 113 111 110 112 111 107 106 106 111 109 106 106 104 105 106 105 106 108 109 110 116 117 122 123 122 120 117 113 116 115 113 115 116 111 104  88  64  47  36  29  28  27  25  26  31  33  31  65 108 119 124 126 127 128 128 126 127 127 128
 124 127 124 125 126 127 127 127 127 128 124  85  44  36  44  55  93 115 125 127 132 136 137 138 138 133 132 128 123 119 115 116 112 108 107 109 108 109 109 110 108 108 108 107 106 102 102 102 103 105 105 106 109 113 114 118 121 121 122 122 119 119 117 115 112 115 113 110  97  72  50  38  32  28  29  27  28  34  50  39  52  77 100 115 122 126 128 128 129 129 127 128
 125 126 128 128 129 128 129 129 132 129 124  78  41  39  48  64 112 124 126 131 138 140 139 133 131 125 119 117 115 112 108 109 107 105 103 103 103 105 107 108 106 104 105 105 102  98  97  95  94  98 100 103 103 106 110 113 118 122 121 123 120 118 117 114 115 113 113 111 101  78  55  43  34  30  28  28  27  31  52  84  90 101 108 119 124 127 127 129 130 130 130 128
 126 128 130 131 129 130 131 132 130 129 123  75  40  40  47  66 123 129 130 136 140 137 133 127 123 119 112 107 108 105 104 103 101 100 100 100 100 103 103 103  99  98 100  99  95  93  93  94  93  93  95  97  99 103 105 106 112 118 120 120 120 121 118 115 116 114 114 113 106  85  60  45  35  31  29  28  25  29  38  91 117 125 125 128 129 129 131 130 131 132 130 130
 129 131 132 133 132 132 134 135 133 131 125  72  37  41  50  84 134 135 139 144 138 128 123 120 113 106 101  94  94  94  93  94  94  96  97  96  99  99  96  96  95  92  93  91  89  88  89  91  91  90  90  92  94  98 100 102 107 114 118 120 122 121 120 117 116 115 115 112 107  91  64  48  40  33  32  28  25  26  33  67 116 129 131 132 132 132 131 131 131 132 132 132
 132 133 134 134 134 136 137 137 135 133 120  74  38  44  50  95 140 144 147 146 128 116 108  96  88  77  71  70  70  75  77  81  85  88  91  93  95  95  93  93  92  91  86  82  81  80  80  81  80  80  83  81  84  88  90  92 100 109 115 118 121 122 122 121 118 114 116 113 110  96  70  50  40  33  32  33  27  26  32  46 108 129 132 133 133 135 134 132 132 135 132 133
 135 136 137 138 137 139 139 137 137 135 119  82  45  44  54 107 149 150 142 117 104  86  74  63  54  48  47  48  50  54  60  70  76  83  86  86  92  92  92  93  89  87  81  71  68  64  66  64  60  58  58  56  62  64  70  73  84  90  98 105 111 117 122 121 119 118 115 113 111 100  75  51  43  33  31  33  30  29  35  53 107 129 133 134 134 134 133 134 134 135 133 133
 137 138 140 140 140 142 141 141 141 141 130  85  50  42  55 118 148 123 101  81  68  57  51  47  44  42  41  40  43  46  50  61  66  76  82  85  89  90  90  88  85  82  76  65  60  54  52  51  50  42  38  36  36  38  42  44  50  59  70  78  90  98 112 118 119 116 116 114 112 106  80  52  43  33  30  31  31  33  38  64 119 132 136 136 136 136 137 136 138 136 136 136
 141 141 142 142 141 143 144 145 144 144 138 104  56  45  49 128 115  93  77  60  52  47  43  43  43  44  43  42  44  44  46  53  60  72  80  83  85  84  86  85  83  77  69  62  53  48  46  45  44  38  34  32  31  31  35  35  38  43  48  54  64  76  85 104 115 119 119 117 116 110  85  52  45  34  30  30  32  36  45  71 120 134 139 138 138 137 137 137 138 138 139 137
 142 144 144 144 144 146 145 145 146 147 144 120  59  46  58  97  92  80  68  66  63  62  60  59  57  50  51  50  50  48  50  53  58  72  81  83  86  82  82  81  80  76  66  61  53  49  46  45  41  37  37  35  34  35  36  38  37  38  40  46  54  62  64  71  90 100 112 118 118 112  89  54  42  35  31  29  33  39  46  86 126 135 139 138 140 139 140 141 140 138 138 137
 144 146 146 146 146 148 148 148 148 149 148 130  56  48  68  96  90  85  85  86  87  89  86  86  84  79  75  73  71  68  63  61  65  77  82  84  87  86  83  80  79  76  69  61  56  52  52  50  45  47  47  49  52  59  57  58  57  55  53  52  51  55  61  66  70  74  86 109 116 114  94  53  41  32  30  29  32  43  46  75 130 137 139 141 143 143 141 142 141 138 138 139
 147 150 148 148 148 150 149 150 151 151 149 141  68  52  76 104 101 103 104 101 100  97  92  87  82  80  79  78  79  79  80  80  79  80  83  87  89  88  85  81  78  78  72  66  64  65  64  62  61  61  60  63  66  68  67  68  68  69  70  71  67  67  63  67  70  69  76  89 111 114  99  55  40  32  28  30  34  39  44  73 133 140 143 143 144 143 141 141 143 142 142 142
 148 150 149 151 152 151 150 152 152 152 152 146  74  59  88 110 108 113 111 106 100  95  88  83  78  76  73  73  75  76  77  80  82  86  91  95  97  92  88  85  83  82  75  69  68  66  64  60  58  60  61  62  62  65  69  68  70  75  80  82  81  82  81  79  76  71  74  81 106 117 103  59  42  32  29  31  35  41  49  89 137 144 144 143 145 144 145 144 144 144 143 142
 152 152 154 154 153 152 153 154 154 154 154 145  91  65  89 117 114 116 109 101  86  77  66  56  49  47  47  49  55  65  71  72  74  82  91 102 107 102  96  93  91  86  78  72  69  62  58  55  52  50  46  45  46  46  47  51  59  67  76  81  82  87  89  86  85  81  78  83 102 114 109  60  38  31  29  30  31  38  48  87 139 146 146 145 146 145 146 145 146 145 145 144
 153 154 155 155 155 156 156 156 157 156 154 148 111  83 105 121 114 111  97  80  64  48  46  36  29  28  28  34  47  50  56  66  72  76  86 103 110 110 106 101  97  89  77  71  64  57  53  50  46  39  42  43  40  38  29  27  29  39  46  62  74  85  92  91  91  90  90  95 104 116 111  65  39  32  30  33  33  35  48  92 137 146 147 148 147 147 149 147 147 147 146 146
 155 156 157 157 159 158 158 160 158 159 158 156 159 160 116 123 113 101  80  53  50  79  75  33  26  21  24  30  42  46  48  56  64  70  80 105 116 117 115 108 101  89  76  65  59  58  51  46  45  43  41  45  54  35  28  22  23  28  35  40  54  68  81  91  93  93  93  98 108 118 116  73  40  34  31  35  33  33  47  91 138 147 149 148 149 149 150 148 147 149 150 147
 159 159 160 161 162 160 160 162 160 160 158 158 178 168 117 126 111  89  64  47  78  97  70  36  28  22  24  29  41  47  41  43  62  69  83 112 130 132 127 118 108  93  76  62  56  55  50  46  41  36  44  51  55  31  26  21  24  30  42  60  42  54  63  80  91  93  95 100 113 121 117  79  43  35  32  33  34  32  47  77 128 145 149 150 151 150 150 150 149 149 150 150
 160 161 161 161 164 161 163 161 162 163 163 163 145 118 114 125 105  83  63  57  75  98  88  44  35  28  29  30  43  43  38  41  64  74 102 136 155 150 141 132 125 106  82  63  55  52  52  38  35  36  42  50  52  36  30  23  29  36  50  74  54  37  54  66  80  88  92 100 112 121 120  81  42  36  31  32  35  37  50  77 106 131 148 150 152 152 153 152 152 151 150 151
 163 163 164 163 165 163 164 164 164 165 166 165 152  92 111 123 103  85  81  83  74  79  88  71  44  41  45  48  49  51  58  66  74  88 126 154 166 156 149 142 136 119  92  72  58  55  52  45  41  38  38  43  45  42  31  28  30  44  66  65  50  45  45  58  71  83  89  98 109 120 121  92  44  36  32  37  40  48  76  83  80 114 150 152 152 152 153 153 152 153 152 150
 165 165 164 165 166 166 167 167 167 167 167 166 152  71 110 131 108  96  98  98  89  82  81  76  72  69  66  64  63  64  67  74  84 108 139 158 168 159 155 143 138 124 103  82  69  62  53  50  49  47  47  48  48  50  48  46  49  55  55  63  66  67  58  56  60  74  86  99 113 121 122 103  46  35  35  43  51  66  76  67  75 100 145 153 153 153 154 155 153 152 154 153
 166 165 167 167 168 167 167 169 168 168 167 167 154  71 118 148 128 115 112 110 103  98  94  88  79  72  70  68  67  71  77  86  98 124 149 168 179 170 158 144 139 129 113  97  80  70  60  54  52  50  51  52  53  55  59  63  68  70  72  81  86  86  78  70  67  73  86 100 114 122 123 108  50  37  37  50  69  83  81  64  70  89 140 154 155 156 156 154 154 155 156 154
 168 168 168 168 170 170 169 169 170 168 169 169 167  85 133 171 157 137 120 108 104  98  92  83  76  73  73  74  77  82  89  99 111 136 158 177 185 177 160 145 138 130 119 106  89  78  73  63  58  59  56  55  55  56  62  67  74  80  85  91  90  95  97  93  88  89  98 108 115 120 124 114  55  36  37  56  67  82  87  65  62  79 133 154 158 158 157 157 156 157 156 155
 170 171 170 170 171 170 171 173 171 172 170 171 135  94 144 182 174 155 137 117 103  94  90  85  83  82  84  86  88  93 101 107 122 146 170 188 188 180 163 145 137 126 122 110  98  85  81  78  71  66  65  65  63  63  62  63  66  73  78  86  94 101 103 106 108 105 109 116 119 123 124 116  59  38  40  49  62  76  90  69  63  78 137 155 159 159 158 160 158 158 159 158
 171 171 172 171 172 172 172 173 173 174 173 171 110  95 148 185 178 164 150 134 120 105  99  96  94  94  93  95 100 104 108 111 129 157 181 196 188 176 161 144 138 126 118 111 107  94  84  83  79  75  72  72  73  75  74  73  77  81  86  93 101 106 109 112 114 116 116 119 122 124 124 119  68  43  46  55  72  82  94  77  67  83 139 158 158 160 159 160 160 158 159 157
 172 173 173 172 173 174 174 175 174 173 175 167 107 112 161 183 180 172 164 146 131 116 107 105 101 103 103 103 105 107 110 116 140 170 184 188 182 169 159 147 138 128 120 113 108 100  90  86  86  86  84  81  83  86  87  91  94  98 104 109 113 115 115 116 118 119 120 122 123 126 123 115  73  45  46  66  83  91 100  86  69  91 148 159 162 160 160 161 161 162 161 160
 174 174 174 175 176 175 175 176 175 175 175 173 120 118 163 180 184 179 170 156 138 125 114 110 106 106 105 105 107 109 113 121 160 177 177 182 173 165 153 144 140 132 123 115 110 107  97  93  88  89  90  89  89  92  96 102 108 111 116 118 120 122 120 122 120 119 120 122 122 125 122 114  72  49  47  63  84  90  99  97  72 104 157 162 163 163 163 164 162 162 162 160
 176 175 176 179 177 177 176 177 179 178 177 175 146 115 159 175 184 180 170 155 141 130 119 113 108 106 107 108 109 111 117 138 173 180 187 184 171 165 152 143 136 132 126 115 111 110 106 102  96  94  92  92  94  96 101 104 108 113 118 119 121 122 124 123 124 122 122 122 122 124 122 110  68  50  49  61  77  84  89 103  84 125 160 164 164 165 165 165 164 165 164 164
 178 177 178 179 178 179 180 179 180 180 179 178 158 109 152 174 180 175 165 153 142 134 124 116 108 107 107 109 109 112 120 165 180 187 190 179 168 162 152 141 134 131 126 121 111 104 106 105 103 100  96  94  97  99 102 103 108 108 115 116 119 121 121 120 120 121 123 122 123 124 120 104  64  58  54  61  74  77  81  98  99 147 164 166 167 166 166 166 166 166 165 165
 179 180 179 179 179 181 181 181 180 182 182 180 165 127 147 166 169 164 158 151 144 138 130 121 114 109 108 110 110 116 140 176 184 184 173 158 151 146 142 137 132 129 127 124 114 105 103 105 106 103 101  99 101 105 106 108 110 112 113 114 116 118 120 118 120 122 123 123 123 124 121  96  61  85  86  62  69  67  71  92 111 155 166 167 167 165 168 167 168 166 166 164
 180 181 181 182 182 182 182 182 183 182 183 183 173 158 151 155 159 156 152 146 143 136 130 124 116 114 110 110 112 117 156 172 177 163 146 129 120 122 120 120 118 115 117 118 116 111  99 101 104 103 103 103 101 105 108 108 111 111 111 112 112 111 114 116 118 119 124 122 122 122 119  88  72 107 100  64  62  60  64  90 124 160 167 166 168 167 167 166 167 167 165 166
 181 182 181 184 184 183 183 183 183 181 182 182 178 162 176 152 150 150 151 150 144 137 128 122 118 114 110 110 112 127 153 152 149 136 123 111 105 107 103 104 103 104 106 110 111 113 109  95  97  98  98 102 101 101 106 106 109 111 113 113 112 110 112 110 115 119 120 121 121 122 115  86  93 108 104  67  57  60  69  97 132 164 169 169 169 169 167 168 168 167 169 168
 184 182 182 183 184 182 184 185 183 185 184 182 181 160 149 146 144 144 148 145 136 135 130 126 119 116 111 112 111 138 138 130 125 118 112 104 101 101  96  96  92  93  96 102 107 110 110  95  90  91  93  98 104 103 105 109 108 109 111 112 113 108 112 111 113 116 118 119 119 123 115  98 107 105  86  65  57  67  83 104 144 166 168 168 169 169 168 168 169 168 169 169
 184 184 186 184 185 185 185 185 185 184 186 186 184 179 168 145 139 142 142 139 136 132 128 124 118 115 112 110 110 139 125 113 111 111 105  99  95  95  95  91  89  88  91  94 100 106 108  92  83  86  91  94  98 103 106 105 109 111 112 114 115 111 114 114 112 114 115 116 116 121 114 111 108  86  86  86  83  92 104 112 156 169 171 170 170 170 170 170 168 170 169 169
 186 185 184 184 186 187 186 188 186 186 188 186 187 188 206 152 137 141 137 136 132 131 126 123 117 114 110 107 108 126 112 100  79  93 104  96  94  93  91  80  67  58  78  92  97 102 104  87  80  83  86  92  93 101 104 106 107 109 112 114 114 111 112 112 111 111 110 114 114 121 116 112  88  72  99 119 106  96 101 129 165 171 172 171 171 170 171 170 170 170 170 169
 187 186 185 185 187 187 187 186 186 186 187 189 187 188 184 149 133 132 133 132 129 127 124 123 119 114 109 104 105 112 103  79  53  50  98  97  94  93  86  62  52  38  36  73  93  97 100  84  82  81  85  90  93  98 100 105 105 106 109 112 112 111 109 111 113 111 112 117 117 120 114 110  97  93 109 120 107  99 110 154 169 171 172 171 171 172 172 170 170 170 170 170
 187 187 185 186 187 186 186 186 188 188 188 188 188 186 163 141 131 123 126 128 124 123 124 119 115 111 107 102 106 109 102  83  70  72  92  97  92  90  86  74  68  58  49  58  83  90  89  87  86  84  84  88  92  95  96 100 105 106 109 112 110 111 111 110 112 112 112 115 119 119 109 104 112 110 106 113 118 117 133 167 171 170 171 171 172 170 172 172 171 170 170 169
 186 189 188 186 188 189 189 188 188 188 189 189 188 187 170 138 132 126 122 124 121 117 118 115 112 106 106 108 112 115 109  94  81  86  91  90  89  85  80  74  72  72  64  63  68  82  93  96  95  89  88  88  89  93  97 101 103 107 108 111 110 109 110 110 113 113 113 116 119 118 106  95  96  98  97 102 115 129 162 169 170 173 173 173 173 174 172 173 173 172 173 173
 187 188 188 187 188 190 188 188 190 188 188 189 190 188 187 173 137 128 125 123 121 123 118 114 110 105 107 115 121 122 119 106  88  91  92  87  84  80  78  76  73  74  70  71  82  97 101 103 101  97  90  88  90  92  97  98 102 105 105 109 110 112 113 111 113 113 115 116 118 117 103  96  96  98  99 103 118 156 170 172 174 173 174 172 173 172 172 173 173 172 172 172
 188 188 186 189 188 190 190 189 190 189 189 189 190 189 190 186 150 130 129 125 123 121 120 113 112 109 114 124 129 129 125 115  95  95  92  89  85  80  82  78  77  76  75  80  93 102 102 103 102 101  98  90  86  91  94  95  98  99 103 107 111 113 111 112 113 112 116 117 120 116 100 102 107 104 107 110 149 171 174 174 174 174 175 173 174 173 174 173 172 173 172 172
 189 188 188 190 188 189 188 189 189 190 190 190 190 190 190 188 163 131 129 125 123 123 117 115 113 115 124 133 135 134 130 125 103  97  90  86  83  78  82  80  78  76  84  90  98 104 104 103 102 103 100  95  88  91  94  94  98 101 105 106 109 111 112 113 114 114 114 116 119 112  93  96 101 102 116 155 170 174 174 175 174 174 174 174 175 174 174 174 174 173 173 173
 190 188 188 190 189 190 189 190 191 190 189 190 190 191 191 190 179 133 128 126 123 122 120 117 115 118 130 137 140 139 137 134 115 102  93  86  79  73  83  80  78  74  86  93  99 100 104 102 102 102  93  95  95  90  92  94  98 101 103 105 107 111 114 114 113 113 115 118 122 138 144 129 126 141 165 172 175 175 175 174 174 175 174 174 174 174 175 175 174 174 173 172
 189 189 188 189 190 188 189 190 191 190 190 190 190 190 190 191 188 139 129 127 125 122 125 119 117 124 138 142 144 142 143 140 124 107  94  86  76  74  80  82  82  84  88  96 100  99  99 102 102 100  98 103 104  98  94  92  96 102 103 105 108 109 113 113 113 113 115 118 126 159 174 173 174 174 175 176 176 176 176 175 176 177 176 176 175 175 175 174 174 174 175 174
 188 189 189 189 190 190 190 190 190 190 190 191 190 193 192 191 188 150 131 126 124 123 121 118 123 132 141 144 145 144 148 139 127 109  95  83  72  74  76  80  80  85  90  95 100 100  97  96 101 100 103 104 105 101  96  93  94 100 102 106 109 110 112 112 114 114 113 117 127 167 175 175 177 176 177 176 176 176 176 176 175 175 176 175 176 175 175 174 174 174 175 174
 189 189 189 188 188 189 190 190 190 189 190 190 191 191 192 193 191 159 132 128 124 122 120 116 129 138 145 144 146 147 149 142 132 115 100  87  79  73  74  84  89  90  94  97 100 103 102 103 101 103 103 103 103 100  98  95  94  99 102 103 108 106 111 112 110 111 116 120 132 171 176 177 176 176 176 177 177 178 177 176 176 176 174 176 176 176 175 175 175 175 175 175
 189 188 190 189 190 190 190 190 191 190 191 191 191 192 192 192 191 170 132 129 122 120 117 119 131 139 142 141 146 147 140 125 113 101  95  91  89  88  86  84  87  88  94  98 104 104 106 106 104 105 103  99  99 100  99  99  99 100 103 105 107 107 112 111 111 111 118 121 138 175 179 177 178 177 178 177 178 177 176 176 177 179 178 177 176 176 176 175 174 174 175 176
 190 190 190 190 190 190 190 191 190 190 192 191 192 193 191 192 191 180 137 129 123 121 117 123 129 131 128 131 135 120 103  91  83  80  80  85  88  86  82  74  69  71  76  84  96 103 103 105 103 104 104 100  98 100 100 101 101 101 102 103 107 108 111 110 111 112 116 121 145 175 179 177 179 180 180 179 180 179 180 178 177 178 178 178 178 177 176 177 176 176 176 176
 188 190 190 190 190 190 192 192 190 191 192 193 193 193 193 193 193 185 142 130 122 122 120 124 118 114 108 108  99  84  79  72  72  74  74  73  74  72  68  65  62  64  65  69  76  85  93  99 101 100 100 102  99  98 102 101 102 100 100 105 108 109 110 110 112 115 117 122 153 175 180 180 178 179 182 179 181 180 179 178 179 180 177 179 180 178 177 176 176 177 175 176
 190 191 191 190 190 190 191 191 192 191 192 192 194 193 194 194 195 189 157 131 123 123 118 118 109  98  87  80  75  70  66  61  62  68  72  73  71  69  65  66  66  65  63  64  64  68  74  84  90  92  91  95  96  98 101 101 102 103 103 106 107 111 111 112 113 116 117 124 166 178 181 182 180 179 181 179 180 178 178 180 178 180 178 177 176 177 177 176 176 177 176 176
 190 190 190 190 190 190 190 192 192 192 191 190 194 194 193 194 194 192 172 131 123 120 117 112 104  93  71  52  49  45  36  32  46  53  76  77  75  71  64  68  70  70  63  55  57  61  64  68  72  75  78  85  89  93  99 102 101 101 102 104 108 111 114 114 115 115 117 130 174 180 182 181 181 181 181 181 181 178 178 178 178 179 180 178 177 177 178 177 176 178 177 177
 190 188 190 190 190 191 191 192 192 191 191 195 194 195 194 194 194 193 188 135 124 122 118 113 106  99  90  75  67  56  46  37  30  28  36  65  66  64  49  70  69  67  60  40  39  38  43  44  46  50  58  75  82  88  97 102 103 102 102 105 106 110 113 115 116 118 118 144 176 181 181 181 181 181 180 181 181 179 181 179 179 180 180 177 179 179 179 177 177 176 177 176
 189 189 190 191 190 191 191 191 192 192 191 193 195 195 194 194 193 193 190 154 126 122 116 114 109 105 104  92  83  81  74  62  51  43  38  39  38  34  33  35  36  35  34  29  26  29  30  34  39  46  54  71  81  85  93  99 102 102 104 105 108 112 113 113 112 115 113 154 178 180 181 182 181 181 181 181 181 181 178 178 179 180 178 178 180 177 179 179 179 176 177 175
 190 189 190 191 192 190 191 192 192 191 193 192 194 193 194 194 193 193 190 175 127 121 117 114 111 108 109  98  91  94  88  74  67  65  62  52  45  42  42  41  41  41  40  42  46  48  52  54  57  59  70  81  85  87  91  97 100 101 103 104 110 111 110 110 111 112 126 171 180 182 180 180 181 182 180 181 181 180 181 181 178 179 178 180 179 177 179 179 178 177 176 175
 189 190 190 190 191 190 191 191 192 191 192 193 193 193 194 193 193 191 192 186 142 121 116 114 113 111 109 104  98  98  96  82  71  68  71  71  61  63  59  55  54  56  58  63  72  72  68  69  70  76  87  92  89  89  92  95 101  99 103 107 109 109 110 110 112 112 153 173 182 182 181 180 181 180 180 182 181 181 178 181 180 179 179 180 179 178 178 179 178 178 177 176
 190 190 191 191 190 190 191 192 192 191 193 193 194 193 194 193 193 191 190 190 169 121 117 114 111 109 106 105 102  95  92  90  74  71  70  68  67  68  62  61  62  63  67  75  78  75  71  72  78  87  91  92  90  91  91  96  99 101 104 106 106 108 106 107 108 119 163 177 181 182 182 180 181 181 181 181 181 180 180 181 179 178 179 181 178 177 178 177 176 176 175 176
 189 189 189 190 190 191 191 192 192 190 191 191 193 193 192 192 191 191 191 191 188 137 117 113 104 107 107 105 102  97  91  84  79  74  74  71  71  70  68  68  67  68  72  73  71  70  72  77  87  90  92  92  93  93  93  95  99 101 104 104 106 108 106 104 109 125 167 180 180 181 182 182 182 181 180 180 180 180 181 180 178 177 177 178 177 177 176 178 177 177 176 176
 188 190 190 190 190 190 191 190 191 192 190 192 192 193 194 192 192 190 191 189 189 166 118 114 104 106 107 105 104 100  92  84  80  76  74  71  70  70  70  69  70  70  69  68  69  72  78  82  87  89  92  92  92  94  92  95  99 100 104 102 103 104 103 102 114 129 168 180 182 183 181 181 181 181 180 180 180 180 180 179 178 177 178 177 177 178 177 177 177 177 176 176
 190 189 190 190 190 190 190 189 191 192 190 192 191 191 192 191 192 190 191 190 189 188 138 115 112 108 108 106 104 102  96  92  85  81  77  74  70  69  68  70  69  68  69  71  75  78  80  85  88  89  93  92  94  93  92  95 100 101 102 102 102 101 100 106 116 132 174 181 180 182 181 181 181 180 181 180 179 180 180 179 177 178 177 177 177 178 177 178 178 177 176 175
 189 188 189 190 190 191 189 191 190 190 190 192 192 192 193 192 190 190 190 189 188 188 176 117 114 111 109 108 106 101  98  93  91  89  84  78  76  72  71  72  71  74  75  77  79  83  85  87  87  90  90  92  93  93  93  96  98 101 101 101 100  94 100 108 116 134 174 181 182 182 181 182 182 180 181 180 179 181 178 180 178 179 178 177 177 176 176 176 178 177 176 176
 188 186 188 188 190 190 190 190 190 191 190 191 191 191 191 191 191 189 189 189 188 189 187 153 116 114 112 109 108 106 102  94  89  87  81  75  72  67  67  72  73  75  78  78  81  85  85  86  86  88  88  92  92  94  94  94 100 100  98  98  95  99 103 107 115 135 176 181 180 183 181 179 180 179 180 177 179 179 178 179 178 178 178 178 177 177 176 176 176 175 177 174
 186 187 188 188 189 187 188 189 191 190 191 190 190 191 192 191 191 191 189 189 188 188 189 186 128 115 115 112 112 107 104  99  91  83  77  71  64  64  66  63  66  67  70  74  79  84  84  85  87  86  88  92  92  95  97  94  97  97  94  93  99 104 106 108 116 141 175 181 181 181 178 179 180 178 178 180 179 177 178 178 178 177 178 178 178 176 177 176 176 175 176 175
 187 187 186 187 188 189 190 189 189 190 190 190 191 190 192 190 189 189 188 186 188 188 189 186 172 113 111 113 114 111 109 102  94  86  82  75  72  70  67  64  66  69  70  73  78  84  88  88  89  90  91  92  92  95  98  95  94  94  90  94 101 103 106 108 114 139 176 180 178 180 182 179 179 178 178 179 180 178 178 177 178 177 177 176 177 176 177 175 176 176 175 175
 186 187 187 187 186 188 188 189 190 188 189 190 191 190 190 189 189 187 188 188 189 189 187 183 124 117 111 112 115 114 111 106  98  87  80  77  75  74  69  66  67  71  71  76  82  87  89  91  92  93  93  94  95  94  94  90  91  87  89  96 102 106 108 109 112 143 177 178 178 181 181 181 179 178 179 179 178 178 178 178 177 178 177 177 178 176 176 175 176 176 177 175
 187 186 186 187 186 188 188 186 189 189 188 189 190 190 188 187 188 187 187 187 186 184 171 129  84 132 109 109 112 114 110 105  98  90  84  82  79  75  73  71  72  75  77  81  86  90  90  93  94  94  94  94  91  88  89  87  83  87  93  99 101 106 106 107 110 127 151 150 152 176 178 179 176 176 178 179 178 178 177 177 177 177 176 177 176 176 176 176 176 176 175 176
 185 185 185 186 186 187 186 188 190 188 189 189 190 189 187 187 187 185 186 177 157 135 117 114 199 139 113 105 110 113 109 106  96  89  86  84  84  80  78  75  75  77  80  84  88  90  93  95  98  98  96  92  90  87  82  81  83  88  96  98 101 103 105 108 111 118 122 126 124 114 117 157 177 178 176 176 177 176 178 178 176 176 177 176 176 176 176 176 176 177 174 174
 184 185 186 187 185 186 187 188 187 187 187 188 188 187 188 185 181 152 130 116 111 102  98 184 202 140 118 103 106 110 108 105  98  91  87  85  85  82  81  82  79  81  84  84  87  87  91  94  95  93  92  89  87  80  78  80  85  93  98  97  99 102 105 108 109 117 120 121 123 124  78  64  85 102 134 168 175 174 178 178 176 176 176 176 178 176 176 176 176 176 175 176
 183 185 186 186 184 185 187 186 186 187 187 186 185 184 186 159 126 115 112  99  93  88  98 200 204 141 119 110 102 104 104 100  94  89  86  83  84  86  86  85  81  83  83  87  86  87  89  91  91  89  86  84  81  78  77  85  90  96  97  98  99 101 104 107 107 116 123 122 123 122  76  51  54  58  69  92 115 139 156 173 175 176 175 176 176 176 176 175 174 176 175 174
 182 185 186 185 185 184 186 184 184 185 185 185 179 150 120 111 111 106 101  91  83  85 113 201 196 136 119 112 102  95  96  97  94  89  85  80  83  85  85  84  85  83  80  85  87  90  88  87  87  83  81  78  80  81  84  89  93 101 101  99  99  99 102 105 107 115 122 120 122 118  71  45  44  48  55  63  73  83  94 113 142 171 174 175 176 175 175 175 175 174 175 175
 184 182 184 183 184 185 185 184 184 185 168 140 115 110 106 101 100  99  94  83  79  83 110 194 192 139 117 109 105  95  90  91  90  85  84  83  81  85  84  83  84  79  77  81  80  81  85  84  80  77  78  82  84  87  90  94  98 102 100  96  98 100 101 104 107 114 121 123 121 113  59  42  39  40  48  53  57  61  66  74  86 108 142 169 174 174 176 174 174 174 174 175
 182 181 183 183 182 180 184 181 153 124 114 110 105 100  97  94  90  92  84  79  75  80 102 192 188 134 116 106 105 100  93  89  88  86  83  82  82  86  85  83  84  80  77  78  78  79  81  77  76  82  84  87  88  91  95  95 101 102  97  97  99 101 102 105 107 111 119 122 122 107  46  39  36  38  44  48  50  51  53  55  61  71  78  94 122 149 167 173 174 172 173 173
 181 182 183 182 178 166 149 120 111 108 102  98  97  91  88  89  85  83  78  76  74  75  94 187 177 135 117 106 103 101  99  92  86  86  81  82  83  86  85  85  84  82  80  77  76  76  76  80  86  87  86  88  90  93  98 101 103 102  98  99 100  98 102 105 106 109 118 120 120  95  42  37  36  37  41  45  44  46  47  47  52  55  61  68  72  77  92 125 147 167 173 173
 180 179 175 146 117 108 107 102 100  96  92  89  90  81  82  81  78  80  77  73  72  72  85 181 171 134 117 108 102  99 100  99  97  89  82  83  84  84  81  84  84  80  79  74  72  78  86  87  87  86  87  91  94  96  99 101 102 102 100  99  98 100 103 102 105 109 115 119 117  74  41  35  35  35  38  44  43  42  41  43  45  49  52  53  56  63  67  73  79  89 109 130
 159 129 109 100  99  99  97  94  91  88  81  82  84  78  77  75  73  76  74  72  69  68  78 170 163 131 114 107 101 102  99  99  98 100  98  98  97  91  88  86  84  82  81  83  87  90  88  87  87  88  92  96  96 100 102 101 101 101 100  99  97 100 101 104 102 107 110 117 113  58  40  35  35  37  37  38  41  41  39  40  40  45  48  49  50  52  55  59  63  68  72  77
 104 100  99  98  93  92  88  84  84  79  78  76  77  73  74  70  70  71  73  71  69  67  77 151 155 127 114 105 102  99  98  97 100 100  99 103 104 101  98  96  94  92  90  92  91  92  91  89  87  89  92  95  99 100 100  98  99  98  97  97  97  96  99 101 103 106 109 114 104  48  39  34  36  37  38  39  40  37  39  38  38  41  45  47  47  44  46  50  51  55  63  65
  95  92  90  89  79  83  82  78  78  74  76  76  73  70  69  65  70  72  69  68  69  68  75 136 149 124 112 105 102  99  97  96  98  99 100  99 100  99  98  98  97  92  90  91  92  91  89  90  89  90  93  96 101  99  95  94  95  97  95  96  95  97  98 102 105 106 109 114  93  42  37  34  35  38  34  38  38  37  37  36  35  36  39  43  49  42  42  48  47  45  52  59
  90  86  84  81  70  77  73  76  74  74  74  75  71  68  63  63  72  69  67  67  68  66  73 115 144 122 110 105 104 102  98  97  96  96  98  97  98  97  97  97  94  92  91  92  92  91  92  89  89  90  93  95  93  95  92  90  92  92  93  93  95  97  95 100 103 105 106 108  81  42  35  32  34  38  34  37  38  38  37  37  36  34  35  38  46  46  44  44  44  42  46  48
