P2
# Generated by OpenCV 3.4.0
92 112
255
 175 176 177 176 175 175 173 173 172 173 173 171 171 169 171 173 172 170 170 170 170 170 171 171 171 170 170 170 169 171 170 171 169 169 170 170 168 168 165 165 167 168 169 168 166 165 163 164 168 167 164 166 167 169 168 168 168 168 169 168 168 167 167 168 168 167 168 168 168 167 166 167 168 166 166 166 165 164 164 164 164 164 166 164 164 162 162 163 164 162 160 162
 175 175 176 176 175 174 176 174 175 173 173 173 171 171 171 172 172 171 170 172 171 171 171 171 171 171 171 170 172 172 171 170 170 170 170 170 170 166 164 161 161 163 158 157 158 158 154 151 160 159 155 158 163 164 164 167 168 167 167 168 168 166 166 166 167 167 168 168 168 168 168 167 166 166 165 166 165 165 165 164 165 165 165 165 165 162 164 163 163 162 161 161
 174 175 175 176 174 175 174 174 175 174 172 173 172 171 170 172 173 172 172 173 172 173 172 171 170 170 170 172 172 172 170 170 169 169 168 168 165 156 124 103 108 125 103 111 102  95  99  91  76  91 101 134 154 158 158 163 167 166 168 166 166 167 168 167 167 168 168 168 167 166 165 164 167 165 165 166 167 166 165 164 165 165 165 164 165 164 163 164 163 163 161 162
 175 173 173 174 174 174 174 174 174 174 173 174 171 171 171 171 172 172 172 172 173 172 170 172 172 171 170 169 170 170 168 168 166 164 154 115  72  63  64  47  44  46  46  47  45  46  46  43  41  44  46  54  78  96  94 103 152 164 167 167 168 168 168 168 169 169 168 169 168 168 166 165 167 166 166 165 165 166 166 165 164 165 165 163 165 164 163 164 163 162 162 161
 173 173 174 174 175 174 173 173 174 174 173 172 171 171 172 172 173 171 172 172 173 172 173 171 170 170 171 170 169 168 164 155 145 109  54  42  41  40  35  34  32  34  35  35  32  33  36  33  33  34  35  35  37  40  44  48  67 120 157 167 168 168 168 166 168 169 168 167 167 166 167 167 167 166 166 165 166 166 165 165 166 165 166 166 164 164 163 164 162 164 161 161
 172 172 173 174 173 172 173 173 174 174 174 172 171 171 171 172 172 173 172 173 174 173 173 172 170 170 171 170 166 160 119  90  59  42  41  36  33  30  29  28  30  28  28  28  26  26  28  30  28  28  26  28  29  30  31  35  36  51 101 145 160 167 168 168 168 168 168 168 169 167 169 168 167 166 166 165 166 166 164 166 165 166 167 166 165 165 165 165 163 163 162 162
 172 172 171 172 172 172 173 172 173 172 173 171 170 172 173 173 173 173 172 173 172 172 171 171 170 170 167 154 129  77  50  42  38  34  33  29  29  26  24  25  29  29  24  24  23  24  24  26  24  25  24  26  27  26  30  31  31  35  46  83 143 164 166 167 166 168 169 169 169 169 167 166 166 167 166 166 167 166 165 164 167 164 165 165 165 164 164 165 163 163 162 162
 172 171 172 174 172 172 172 173 173 173 173 171 171 172 173 172 171 172 173 173 173 173 172 171 171 168 143  87  51  43  37  32  31  26  26  30  30  27  24  25  25  23  23  23  23  24  25  24  22  25  23  24  25  26  25  25  26  28  32  40  90 155 163 166 165 167 168 168 168 168 167 167 166 168 166 166 166 166 166 166 166 164 164 165 164 163 163 163 162 163 162 163
 171 173 172 172 172 171 172 172 171 171 172 172 171 172 172 170 171 172 173 172 173 172 171 172 171 164 102  51  40  35  29  26  26  26  28  26  24  26  23  24  22  22  22  20  22  23  24  23  21  22  21  24  24  24  25  25  24  29  28  34  44  99 151 159 165 168 167 168 168 168 168 168 166 168 167 165 166 165 166 165 165 165 165 163 164 164 165 164 164 163 163 163
 170 170 171 172 171 171 173 171 172 172 172 171 172 171 171 172 173 173 173 175 173 173 172 170 165 126  50  38  33  27  26  25  25  26  26  22  22  23  22  20  20  19  21  21  20  19  21  19  18  18  21  23  23  23  22  23  22  24  26  29  30  35  54 119 156 166 166 166 166 168 167 167 165 166 167 165 166 165 167 164 165 165 164 162 164 165 163 163 165 164 164 163
 170 171 171 170 171 170 171 171 172 171 172 171 172 170 171 172 174 173 173 173 173 172 172 168 103  56  37  36  30  29  25  26  24  24  20  18  18  20  20  18  17  16  17  19  17  18  18  18  18  19  19  20  20  20  22  21  19  22  24  23  26  31  39  50 145 162 166 166 167 166 166 166 167 166 167 166 166 166 167 166 165 166 166 165 164 163 164 164 165 164 162 164
 169 171 172 171 172 171 172 172 170 172 171 171 171 170 172 173 174 173 175 175 176 174 171 133  54  38  35  31  29  28  24  24  25  22  22  19  17  18  18  17  17  16  17  17  17  18  17  18  17  17  17  17  18  17  19  20  19  20  23  23  23  26  30  37  97 157 165 166 168 166 165 166 167 166 167 165 165 165 166 165 166 165 165 166 164 164 165 165 163 164 164 164
 170 171 171 170 171 170 171 171 170 171 172 172 172 172 172 173 174 174 176 178 179 178 162  79  44  32  30  28  27  26  23  24  23  20  19  18  18  18  18  17  18  18  20  18  19  20  19  18  18  17  17  17  16  16  16  17  18  18  20  19  20  22  25  30  47 127 160 165 167 167 165 166 165 166 165 167 166 164 165 164 164 166 165 163 164 164 165 165 163 163 163 163
 170 170 170 172 170 170 170 171 172 173 171 172 171 173 173 173 175 179 183 184 185 182 108  43  34  27  27  25  23  23  22  22  20  17  17  18  18  20  20  21  23  26  27  28  28  26  26  25  25  23  19  18  17  17  16  16  17  17  17  17  18  18  21  25  30  77 148 160 166 166 167 165 167 166 166 164 166 164 164 164 165 166 164 164 165 165 164 165 163 164 163 163
 169 170 170 171 171 171 171 171 171 172 170 171 172 171 172 172 175 179 183 185 188 149  51  38  29  26  26  24  24  22  20  19  19  18  19  20  22  25  28  32  33  38  44  43  38  37  37  38  38  36  28  23  21  20  18  18  16  16  15  16  16  17  17  20  26  36  71 143 160 167 166 167 166 165 165 164 165 167 165 165 164 164 166 166 166 164 164 165 164 164 165 163
 171 169 170 170 170 169 171 171 170 170 170 170 172 171 170 172 173 176 181 179 164  69  44  32  25  25  24  22  21  19  20  20  22  22  25  27  29  34  40  46  48  50  56  52  49  50  50  48  48  48  40  34  30  28  26  24  21  19  17  16  16  16  17  18  22  26  40  92 151 160 165 168 165 166 167 168 166 166 166 166 164 166 167 165 166 165 164 164 164 164 164 163
 170 170 170 172 171 171 171 170 171 172 171 172 171 172 172 170 171 173 171 170 127  50  38  28  25  23  22  20  20  19  21  23  24  29  35  41  42  45  52  58  59  60  65  61  56  57  54  55  53  52  50  48  42  38  36  36  32  27  26  25  22  18  17  17  19  22  28  46 111 147 164 165 166 165 167 166 167 167 167 166 165 165 166 166 166 166 167 166 164 164 163 161
 170 169 171 172 171 171 171 171 174 172 171 172 170 171 170 170 171 171 170 157  84  41  34  25  24  24  23  22  22  23  26  29  33  46  55  59  63  64  66  67  67  68  70  69  67  63  60  59  56  55  52  51  50  48  46  45  42  37  35  33  30  27  21  17  18  19  23  31  60 137 159 161 166 166 166 167 166 166 166 166 167 167 166 165 166 166 167 165 166 165 164 164
 172 171 172 172 171 170 170 172 172 172 171 172 171 172 171 170 170 170 168 144  58  38  33  27  25  23  23  24  26  30  35  42  50  62  69  74  72  72  75  74  72  74  76  72  71  66  62  61  57  54  52  50  50  50  49  48  47  42  39  39  36  34  31  23  18  17  21  25  44 120 154 162 166 166 166 166 166 168 165 164 164 167 166 165 165 166 166 167 164 164 163 162
 171 172 173 172 172 172 173 173 172 171 172 172 170 170 171 170 169 169 162 108  45  36  29  26  24  23  25  31  38  45  51  58  67  70  74  75  76  81  78  77  76  75  74  72  70  65  63  61  54  54  53  50  49  50  48  47  45  44  42  40  38  38  38  33  24  17  18  22  30  66 142 161 164 165 165 165 166 168 167 167 165 165 166 166 167 167 166 166 164 163 162 164
 173 173 173 172 174 174 173 173 173 171 172 171 172 169 171 171 170 166 145  64  41  34  27  24  24  26  34  44  55  63  67  71  74  74  77  77  77  76  77  79  76  74  75  71  66  66  63  57  54  54  51  49  48  49  47  45  43  42  40  39  38  40  41  41  34  23  18  19  25  39 114 159 162 166 165 164 166 168 168 167 166 168 167 165 168 167 165 166 164 164 162 164
 173 173 174 175 173 173 174 174 173 173 172 171 170 171 170 171 170 160  98  46  37  29  24  24  26  32  45  55  62  67  70  72  74  74  76  76  74  73  76  72  73  72  72  70  64  63  60  55  52  51  51  48  47  46  45  43  41  38  37  36  37  37  40  41  41  33  23  19  23  31  91 158 163 165 166 167 166 167 167 167 164 166 168 165 167 167 165 165 163 165 164 164
 173 174 175 176 176 176 175 173 174 172 172 172 173 171 171 171 170 152  62  40  33  26  25  29  36  46  55  59  61  67  68  71  73  73  72  70  70  70  70  70  70  70  67  69  60  61  59  54  50  49  49  48  46  44  41  40  37  37  35  35  35  37  38  42  43  41  34  24  23  28  63 149 161 167 166 167 166 168 167 166 166 166 166 166 167 166 165 166 165 164 164 165
 176 176 177 177 178 177 176 176 176 174 175 173 172 170 171 170 168 137  46  36  30  27  29  37  48  54  57  58  60  64  68  68  69  70  68  66  67  68  68  67  67  68  67  63  61  61  59  55  54  51  49  49  46  43  41  40  37  34  34  33  31  33  35  38  40  44  44  36  26  26  34 101 158 163 166 168 166 166 166 165 164 165 166 166 166 166 168 165 165 164 164 165
 179 180 179 178 179 180 179 178 178 177 174 174 172 171 171 170 159  87  43  31  28  29  34  46  54  57  57  57  59  61  62  62  63  63  64  67  68  66  66  66  67  68  68  66  64  63  60  59  54  51  51  50  48  44  42  38  35  36  34  32  34  34  34  36  40  43  45  45  35  26  30  62 147 163 166 166 167 165 166 165 165 166 164 166 166 165 167 166 166 167 165 164
 189 190 188 188 188 185 186 184 184 182 180 177 174 172 171 168 120  47  37  28  26  32  44  53  57  57  56  55  57  56  57  59  59  60  65  67  66  66  68  70  67  68  68  66  64  64  62  57  56  53  54  51  51  48  43  38  36  35  33  32  34  33  34  36  39  42  44  47  44  30  27  34 121 163 165 167 168 167 166 166 165 166 167 166 166 166 166 166 167 166 165 165
 194 193 199 202 199 199 195 192 190 192 186 183 177 172 171 163  81  45  35  30  30  42  54  58  57  56  53  52  53  55  57  58  59  61  65  66  67  69  72  70  69  68  64  67  68  66  65  62  59  56  57  55  53  47  43  42  40  37  34  34  34  33  33  36  37  40  43  45  47  39  30  32  94 161 167 168 167 164 168 166 165 166 167 168 167 166 165 165 166 167 166 166
 201 203 205 205 206 206 205 202 198 197 193 187 179 175 173 157  63  41  32  30  36  53  59  62  57  54  55  52  52  54  55  58  59  61  65  69  72  71  72  68  68  66  67  69  68  65  63  63  63  60  60  55  52  50  47  45  42  40  37  34  33  32  33  35  36  38  41  46  46  41  29  30  58 153 166 166 167 165 167 166 165 167 167 166 165 166 168 166 166 166 164 165
 201 201 202 204 203 203 204 204 200 195 192 186 181 175 172 151  56  37  31  34  48  63  65  64  58  54  54  52  54  54  55  59  64  66  70  72  78  75  78  75  73  71  68  69  69  67  64  62  62  61  60  54  53  50  48  46  43  42  38  36  35  36  34  36  38  39  40  43  45  44  31  28  43 142 164 168 167 166 168 168 168 167 167 167 166 166 166 166 166 166 165 167
 193 196 198 194 195 197 197 198 195 192 190 186 180 176 171 143  48  36  33  37  54  65  67  63  57  55  54  54  55  54  61  63  68  70  72  77  82  80  78  76  74  72  69  68  68  64  63  59  58  58  54  54  52  49  48  48  44  41  41  39  38  37  38  38  37  39  41  42  45  45  34  26  43 137 162 165 166 167 168 167 169 168 167 166 168 167 166 168 168 165 167 165
 184 187 188 188 188 188 186 187 189 186 183 180 177 176 169 115  49  35  33  41  55  65  65  64  61  58  57  57  60  63  68  70  73  74  75  79  81  79  77  76  74  71  69  67  62  60  57  55  56  53  50  51  49  47  45  42  42  40  41  41  40  41  40  39  39  41  40  42  44  45  37  28  36 131 164 168 167 166 167 168 169 169 168 168 168 167 167 168 168 166 167 165
 182 183 181 180 180 182 183 182 182 180 179 177 176 175 169 105  47  34  32  39  53  63  64  66  65  64  63  61  65  68  72  73  74  77  76  75  74  75  74  71  69  68  65  63  60  54  54  53  51  51  49  47  44  42  43  41  41  40  39  37  38  40  40  42  42  41  41  42  43  46  42  30  33 114 164 168 169 166 169 169 169 169 168 168 169 167 166 168 168 166 166 166
 179 178 179 179 180 179 178 178 178 177 176 177 175 175 171  94  44  35  34  40  53  60  65  65  64  65  64  67  69  71  72  74  74  74  72  70  69  67  68  66  63  62  60  58  56  51  51  49  48  49  47  45  42  40  39  35  36  36  35  33  32  34  37  41  41  39  39  42  43  46  46  33  33  99 162 167 169 168 168 168 168 168 168 168 167 169 168 167 169 168 166 166
 177 177 179 179 178 177 177 178 177 177 178 176 175 175 168  82  42  34  35  42  51  62  66  67  66  67  68  69  69  70  71  73  71  69  67  64  65  63  61  56  56  54  54  52  49  48  48  46  46  45  43  42  37  33  32  28  28  29  27  23  22  21  25  29  29  28  28  29  32  39  44  35  31  99 161 167 167 167 165 167 168 169 169 169 169 168 168 169 167 167 165 167
 177 178 177 177 178 177 178 178 177 177 176 177 176 175 167  74  42  36  33  40  51  63  67  65  67  68  69  68  66  67  65  65  63  59  58  57  55  54  53  53  52  49  51  49  46  45  45  44  44  41  39  36  34  29  26  24  20  22  20  17  15  16  18  19  21  20  22  23  24  28  36  38  31 103 161 169 169 169 169 169 169 169 170 168 168 168 167 169 169 168 168 168
 177 178 177 178 177 177 178 178 177 177 176 176 177 176 170  87  40  36  32  39  53  64  65  66  68  68  64  60  54  45  42  45  46  44  43  45  45  46  45  45  47  48  46  46  44  43  42  41  39  37  34  33  30  26  24  21  17  17  17  16  15  15  17  16  17  18  17  18  20  25  30  34  33  91 162 168 169 169 170 170 170 170 170 169 170 169 169 169 169 169 168 168
 177 177 178 178 177 177 177 176 177 178 176 176 176 175 171  81  40  35  32  41  57  65  65  66  61  53  46  43  39  36  36  35  32  36  36  39  40  39  38  38  39  41  44  43  41  39  39  39  35  35  31  30  27  24  22  18  16  16  16  16  14  15  16  17  18  19  20  21  23  26  28  29  33 102 163 169 169 167 168 168 170 169 169 169 169 170 170 170 169 169 169 168
 178 177 178 178 178 177 178 177 176 177 176 177 177 175 171  85  40  34  34  45  63  65  66  54  44  38  34  35  34  30  29  28  24  24  24  24  25  30  29  32  34  33  38  40  38  36  37  35  35  33  30  29  25  22  18  17  17  16  16  16  16  17  17  19  21  24  25  26  26  29  29  29  34  95 162 169 170 170 169 170 169 170 170 170 170 169 170 169 170 168 168 167
 177 178 178 177 177 178 176 178 177 177 177 177 176 176 171 112  42  34  32  48  62  63  50  36  32  30  29  28  28  25  25  23  20  19  19  19  20  20  25  27  28  31  32  35  34  35  34  33  31  30  27  26  24  19  18  17  17  16  17  18  17  19  23  27  32  36  36  34  31  30  30  30  34  88 162 170 170 170 170 170 170 170 170 169 170 169 170 169 169 168 169 168
 177 177 177 176 176 177 177 177 177 178 177 177 177 175 170 112  44  35  34  52  60  51  37  31  31  34  33  34  30  27  26  25  22  20  18  18  19  20  21  23  26  27  30  32  33  33  32  32  30  29  28  24  21  19  18  16  17  18  18  21  24  30  37  40  39  39  36  37  36  36  31  31  37  96 163 169 170 171 171 171 169 171 171 169 170 169 170 169 168 168 169 168
 178 177 178 177 177 177 176 177 177 176 177 177 176 175 170 114  42  32  33  53  55  39  35  37  40  42  44  41  38  35  32  27  23  22  21  19  18  19  21  23  24  25  30  32  33  34  33  31  31  30  26  24  19  18  18  18  18  21  24  27  32  32  29  30  30  28  29  28  31  35  33  34  41  89 162 169 171 170 170 171 171 170 170 170 170 169 170 169 170 169 168 167
 176 177 177 177 177 178 177 177 177 177 178 178 176 177 173 120  39  32  35  58  45  36  36  43  47  52  58  61  58  53  47  40  35  27  24  22  22  22  22  21  23  25  31  35  35  36  37  36  33  32  28  25  22  20  18  18  22  25  28  29  26  26  34  38  38  35  32  31  30  29  34  36  45  93 160 169 171 171 170 170 170 170 171 171 170 170 169 170 170 169 168 165
 175 176 176 177 178 177 178 177 177 177 177 177 177 176 173 143  43  33  34  55  43  43  45  49  53  61  68  72  70  59  51  46  40  35  30  27  26  25  24  24  24  28  32  36  40  40  40  39  36  35  30  27  24  21  19  20  25  26  25  23  29  35  40  44  45  44  36  34  36  35  32  38  47  89 156 167 168 170 170 169 171 170 169 171 170 170 169 169 169 169 167 167
 176 175 175 175 176 177 178 177 177 177 176 177 177 176 174 139  44  32  33  50  47  47  50  53  56  58  56  50  44  40  38  32  30  28  28  28  26  26  25  25  25  28  33  39  46  47  46  46  40  36  30  27  24  20  19  22  25  23  22  27  32  33  30  27  25  22  22  24  30  39  37  40  49  99 159 168 170 171 171 169 170 170 170 169 170 171 169 168 169 167 167 166
 176 174 174 176 176 177 177 177 178 178 176 177 177 177 176 154  46  33  32  53  51  48  52  52  49  38  37  46  49  51  47  41  32  25  22  22  25  26  26  26  26  30  35  42  50  54  54  54  48  40  33  28  24  21  20  23  21  22  27  29  22  17  15  15  15  16  18  18  18  22  38  41  49  98 162 169 170 170 168 169 169 170 169 168 170 170 169 168 169 169 167 166
 176 176 174 174 176 176 176 177 177 176 177 177 176 175 174 168  72  34  32  56  53  48  52  48  34  40  46  58  65  58  47  38  31  25  23  20  20  24  26  26  28  32  35  45  54  61  63  62  55  45  37  30  25  22  19  24  23  25  22  17  19  18  15  15  14  16  23  28  24  19  26  31  43  93 164 169 170 170 168 169 169 169 169 170 170 167 168 168 169 169 167 165
 176 176 175 175 175 176 178 176 178 178 177 176 175 175 175 173  89  37  36  61  58  49  51  37  44  51  51  45  32  24  21  17  15  15  17  21  22  23  26  29  34  38  39  45  55  64  66  66  62  53  42  34  27  24  21  24  23  18  17  27  32  15  15  15  14  15  26  36  38  22  24  28  38  63 152 169 169 169 169 169 169 168 168 168 168 168 168 166 166 167 166 164
 176 177 176 176 177 176 177 177 176 176 176 176 176 175 175 172 105  39  39  64  62  50  49  40  54  37  25  19  22  23  19  16  14  14  17  17  18  22  27  33  41  41  43  47  54  63  65  67  67  57  45  39  32  25  23  24  19  14  19  30  41  22  12  13  13  16  32  36  38  24  32  31  40  51 124 165 169 168 167 168 169 168 167 167 168 167 168 167 166 167 166 164
 175 176 175 175 177 178 177 176 175 176 175 175 175 175 176 172 133  40  41  64  65  50  47  50  36  24  22  32  32  20  18  21  14  15  19  25  22  18  21  36  42  41  42  50  55  62  69  69  66  58  44  37  33  29  25  23  22  25  24  26  26  22  16  14  15  20  24  22  19  22  28  32  39  50 130 163 166 167 168 167 167 167 168 167 166 167 165 166 166 166 166 165
 175 176 176 176 175 177 175 176 177 175 177 176 175 175 176 173 160  50  42  64  64  50  42  35  24  26  41  47  41  19  17  18  15  14  23  29  24  22  26  34  39  40  45  52  58  71  83  80  72  60  46  40  35  34  29  25  23  24  24  24  22  20  19  19  17  17  18  18  21  27  35  35  38  46 119 161 166 168 168 167 166 166 166 166 166 166 164 166 166 164 163 164
 174 174 175 176 175 176 175 177 176 177 176 177 177 175 175 173 165  68  44  64  62  49  36  27  22  40  60  54  49  30  15  14  13  16  24  25  27  31  32  35  37  42  48  53  60  80  90  86  77  65  53  42  39  36  30  29  26  26  27  27  24  21  17  18  18  18  19  20  24  30  41  39  40  44  60 147 164 165 166 166 165 165 164 165 165 164 164 164 165 163 163 164
 176 175 174 176 176 176 175 174 176 176 177 176 175 176 175 174 169  81  47  62  60  51  43  42  30  25  37  40  43  40  26  22  21  23  23  23  28  33  37  37  40  45  50  55  66  79  91  88  78  66  54  45  41  38  34  32  30  28  28  29  28  26  24  22  19  20  18  20  24  29  39  45  43  44  39  80 159 164 165 164 164 166 164 165 164 165 164 164 164 164 162 163
 174 175 176 175 175 176 176 175 175 176 175 175 175 176 175 174 171 114  49  61  61  53  47  47  42  30  27  26  26  27  26  23  20  18  21  30  35  40  39  41  45  48  50  58  68  78  92 100  82  69  57  47  45  40  36  34  33  31  30  29  28  28  27  26  25  25  25  26  29  32  37  44  44  45  38  38 151 163 165 164 164 165 164 164 164 164 164 163 162 163 161 162
 175 174 175 176 176 176 176 177 175 175 175 176 174 176 174 174 173 130  49  59  61  57  52  54  50  39  32  28  25  24  22  20  20  25  30  34  40  42  44  46  47  48  53  63  74  91 101  98  88  80  68  57  50  44  39  36  35  33  31  31  29  29  28  27  28  28  26  28  29  33  38  43  45  44  40  27 138 161 164 164 164 164 164 164 163 164 163 161 162 161 160 160
 174 175 175 175 176 176 176 177 177 177 176 175 176 176 173 164 107  70  46  59  62  61  60  62  53  42  34  29  25  25  26  30  32  34  37  40  44  46  47  48  49  51  58  78  90 101  96  85  84  83  76  66  58  54  47  42  39  34  34  34  33  30  30  29  28  29  29  29  32  36  40  42  46  44  43  26 130 160 162 163 163 164 162 163 163 161 163 162 161 160 158 159
 175 175 174 176 175 175 176 176 176 176 175 175 175 176 173  98  53  49  43  62  63  66  67  66  60  49  42  40  40  38  39  40  40  40  43  46  49  50  50  50  49  57  74  87  89  87  81  78  77  67  61  55  57  53  49  48  48  44  37  35  35  33  33  31  30  29  30  30  33  35  41  43  43  42  43  32 128 160 161 162 161 162 162 163 163 162 161 162 160 158 158 158
 174 174 175 173 175 175 176 175 176 175 176 175 175 175 157  58  32  28  39  61  65  68  70  69  64  54  49  47  47  47  47  46  44  46  49  52  52  53  52  49  56  70  76  74  74  74  72  67  62  58  51  48  45  42  42  43  47  47  45  38  36  36  34  35  34  32  33  34  35  35  39  38  40  38  40  32 130 159 161 162 160 162 162 160 162 161 161 161 160 158 156 158
 174 174 174 174 174 176 176 175 175 175 175 176 176 174 138  46  28  25  35  58  65  66  69  70  67  62  57  54  52  51  47  47  48  52  56  58  56  54  52  56  71  73  69  64  64  64  59  54  50  48  43  40  36  32  32  34  37  37  40  42  36  35  35  35  35  35  35  36  35  36  37  35  37  36  41  34 131 157 160 161 160 160 159 159 158 158 159 159 160 158 156 156
 174 174 174 174 174 175 175 175 175 175 174 174 174 174 130  40  27  27  37  58  64  65  68  72  72  71  66  58  55  53  51  52  56  58  59  61  57  55  55  67  68  62  55  47  43  47  48  47  45  42  36  32  30  27  26  25  24  26  27  32  33  33  35  36  35  34  37  36  35  34  34  33  33  36  40  38 142 157 159 160 160 159 158 159 158 157 158 157 157 156 156 156
 175 175 175 175 176 175 174 174 176 175 174 175 175 174 131  38  28  35  44  62  61  62  66  67  71  71  68  64  61  57  57  60  62  64  63  60  56  51  59  61  53  40  37  34  34  35  38  39  38  37  32  29  25  23  20  12  11  13  17  23  29  30  32  34  34  35  35  35  35  33  33  31  33  35  40  54 151 158 158 159 158 158 158 158 158 159 158 158 155 157 155 155
 174 174 175 175 175 176 175 175 176 175 174 175 175 173 145  42  29  47  48  60  60  61  62  62  64  62  62  64  63  61  59  63  64  63  61  55  53  50  53  41  29  19  16  19  25  28  32  33  31  31  29  25  22  16  10   8   9  10  12  18  25  28  31  34  34  32  34  34  33  32  30  30  30  32  39  84 154 158 158 159 159 157 157 156 157 156 157 154 155 155 154 154
 174 173 174 175 175 176 175 175 175 176 174 175 175 173 161  48  36  55  40  59  60  59  58  57  57  59  61  61  62  63  61  65  63  64  57  55  49  49  39  26  15  11  10  11  14  20  25  26  27  26  24  22  14   9   8   9  10  11  13  16  21  27  28  30  32  31  32  33  31  31  30  29  30  31  40 107 154 156 157 158 156 157 156 156 156 158 157 155 155 154 154 155
 174 174 175 175 177 176 176 174 176 175 175 174 174 173 170  65  45  49  38  57  58  54  54  57  57  56  61  60  62  63  65  67  66  60  54  50  44  41  30  20  13  10   9  10  10  10  15  22  23  22  20  17  10   8   8   9  10  13  16  16  21  27  29  30  32  30  29  29  30  30  28  28  30  32  36 116 155 157 157 158 157 155 156 155 155 155 155 155 155 154 154 153
 175 175 175 176 176 175 175 175 176 175 175 175 175 173 172 106  54  50  42  56  57  54  52  53  55  55  57  60  62  62  65  66  61  58  53  50  44  41  26  19  14  11  10   9  10  10  14  18  18  18  17  15  12  11  10  12  15  17  16  16  24  29  29  29  30  29  28  29  29  29  29  29  30  33  35 125 155 157 157 158 156 155 155 155 155 154 154 154 154 154 154 153
 175 175 176 175 175 175 175 175 175 176 175 175 174 173 173 157  59  58  47  52  57  53  51  51  53  52  54  56  58  60  61  60  58  54  49  48  46  45  29  19  17  13  12  14  13  18  20  20  19  17  16  15  16  18  17  17  15  15  14  17  25  29  29  29  28  28  28  28  28  28  28  30  30  34  37 135 155 156 156 156 156 156 155 155 155 155 154 154 153 154 154 152
 174 175 175 175 176 176 175 175 176 175 175 174 175 173 172 169  99  68  52  50  55  51  48  51  51  51  52  53  56  57  56  56  54  52  48  50  49  48  34  22  18  19  20  27  30  32  26  23  22  19  19  16  17  18  18  17  15  14  17  22  27  30  30  30  29  29  28  27  27  27  26  29  31  34  38 133 154 154 157 157 156 156 155 155 154 154 154 154 152 153 153 152
 174 174 175 175 176 175 175 174 174 174 175 174 176 174 173 171 135  72  67  55  55  50  49  49  49  50  50  49  53  52  52  52  48  51  50  52  53  52  41  25  19  19  21  25  32  31  28  30  32  31  28  23  18  18  17  18  21  22  23  25  29  30  29  29  30  29  27  27  26  26  25  28  31  34  34 139 155 156 156 156 155 156 155 155 154 153 154 153 154 154 151 151
 175 174 175 175 174 175 175 174 175 174 174 173 173 173 172 173 163  70  70  62  55  51  49  48  48  49  47  47  48  50  50  48  47  49  52  53  55  56  50  39  30  28  28  31  31  31  30  33  35  32  32  28  22  21  22  21  23  25  24  28  30  30  30  31  30  30  29  26  26  26  25  26  30  32  45 138 155 157 156 157 156 155 155 154 155 154 154 153 152 151 152 150
 175 174 174 174 174 175 175 174 174 175 174 174 174 175 174 173 169 100  63  65  54  51  47  48  47  46  46  45  46  45  46  47  49  49  52  58  60  58  55  50  45  41  37  36  33  35  34  35  35  32  33  29  26  25  24  24  23  25  25  28  30  32  33  34  32  31  30  28  26  26  25  26  31  34  48 143 154 156 156 156 155 155 156 155 154 154 153 154 152 151 152 150
 174 174 174 175 174 175 176 175 175 174 176 174 174 174 174 174 171 146  77  67  54  50  47  47  46  44  43  42  42  41  44  46  50  53  56  58  60  60  57  54  50  44  38  37  34  34  34  33  32  31  31  30  28  25  24  24  24  26  26  29  31  34  34  33  35  32  30  29  26  26  26  27  31  34  43 140 154 154 155 155 156 156 155 155 154 154 153 153 153 150 149 151
 173 174 174 174 175 175 175 175 176 174 174 174 174 174 172 172 173 168 108  68  53  48  45  45  45  41  39  40  40  40  43  46  51  54  56  60  60  60  58  55  50  42  37  34  33  34  32  31  28  29  31  31  32  30  25  25  25  26  26  29  30  32  33  33  34  33  31  28  26  27  27  28  28  33  57 149 155 155 156 154 156 155 155 155 155 154 153 152 152 149 149 148
 174 174 174 174 175 174 176 175 175 175 174 175 174 173 172 173 172 168 132  63  53  50  45  45  42  40  39  39  40  40  43  48  51  56  55  60  59  59  59  57  49  40  37  35  36  35  32  30  26  29  31  32  36  36  32  28  28  26  26  26  26  29  30  30  31  32  30  30  28  26  26  27  28  32  84 150 155 154 155 154 157 155 155 154 155 153 153 152 151 149 148 148
 174 174 174 175 175 175 174 175 175 174 175 175 174 173 174 173 172 169 162  77  51  49  46  44  42  39  38  38  39  40  44  48  52  54  56  56  57  55  54  52  46  40  35  38  38  36  33  29  28  30  33  37  38  41  38  33  32  29  27  27  26  28  27  28  27  28  29  29  30  27  28  26  28  30 102 150 154 155 155 154 154 154 154 154 154 154 152 152 151 150 148 148
 174 173 175 175 175 174 175 175 175 175 175 175 175 174 173 170 171 170 167 161  86  49  46  43  39  37  35  37  38  39  43  46  52  54  53  52  50  48  48  46  42  39  39  44  43  43  42  38  33  35  35  39  42  43  36  33  32  31  31  28  27  26  26  26  26  26  25  26  28  29  27  25  28  31 110 150 153 154 154 153 153 153 154 155 154 154 152 151 150 150 149 148
 175 174 175 175 175 176 175 175 175 176 174 174 174 174 173 173 171 170 169 164 119  48  45  41  39  37  35  36  38  40  45  48  49  49  47  45  43  44  44  45  42  45  48  49  48  49  47  48  48  49  47  46  41  32  28  28  28  27  28  30  29  27  26  24  23  23  24  27  29  29  27  27  30  32 123 149 153 154 154 153 155 155 154 154 153 151 154 152 149 151 149 148
 174 174 176 177 177 177 177 178 178 178 176 176 175 174 174 172 171 170 168 165 143  52  47  41  37  36  34  36  38  43  44  46  44  43  42  40  40  40  38  43  45  48  48  45  40  37  34  36  40  44  41  32  27  25  25  25  26  25  24  26  27  26  25  23  22  19  23  26  30  29  28  27  29  55 142 150 153 154 154 154 154 155 154 154 152 151 153 152 150 148 148 148
 177 177 177 179 179 179 178 179 178 178 178 176 175 174 173 171 171 169 168 164 158  71  46  39  36  35  36  36  38  42  44  41  40  38  36  34  35  38  39  43  44  42  37  32  31  31  30  29  30  31  29  26  24  23  22  22  22  21  21  20  20  24  25  21  20  19  19  25  30  30  29  26  30  70 146 152 154 154 155 155 155 155 155 153 154 152 154 153 150 149 148 148
 178 178 179 179 179 179 180 178 178 178 179 177 176 174 173 173 172 170 167 164 161  89  46  36  35  35  37  36  38  41  42  36  33  32  30  31  32  34  39  43  37  29  28  27  26  26  25  23  24  26  25  23  19  18  19  18  18  17  17  17  17  17  20  17  17  17  19  24  30  31  28  25  29 110 148 151 154 154 155 155 155 152 154 153 152 152 152 150 150 150 147 148
 178 179 180 180 181 180 179 180 179 178 178 178 176 174 173 172 171 170 166 162 160 120  49  39  34  35  34  35  38  41  40  33  29  30  27  28  30  32  35  33  25  22  22  21  20  19  20  18  19  21  22  19  18  16  16  15  15  14  14  14  14  12  14  14  14  16  18  23  29  30  26  27  38 135 149 153 154 154 154 155 155 154 154 151 152 152 150 149 148 148 149 146
 177 179 180 180 179 180 179 178 178 179 177 175 175 174 173 171 170 170 166 163 160 148  57  42  36  34  33  35  37  41  40  32  27  27  25  26  22  25  26  22  18  17  16  16  16  16  16  15  18  20  20  18  16  14  13  14  14  14  12  13  12  12  12  14  15  17  19  22  29  29  26  30  74 146 150 152 152 153 153 154 154 153 153 153 152 152 151 150 150 149 149 146
 178 179 178 178 179 179 178 178 178 179 177 175 175 173 172 171 171 169 165 163 161 156  85  46  38  34  33  34  36  39  39  31  26  27  24  20  15  16  16  14  15  14  13  15  19  21  22  20  20  20  19  18  20  22  21  22  21  23  22  22  20  18  18  19  17  17  19  23  28  28  28  31 118 148 150 150 150 151 151 152 151 151 151 152 153 151 149 150 150 148 147 146
 176 177 178 177 177 177 177 178 178 178 177 176 173 172 171 171 169 169 165 162 160 157 110  50  39  33  30  32  33  36  38  33  26  24  22  17  13  11  12  15  21  22  25  26  33  41  41  40  41  36  42  42  35  37  41  39  34  33  34  31  28  25  23  20  18  18  19  24  29  28  29  42 136 147 147 148 150 150 151 152 152 151 153 151 152 151 150 149 149 148 148 147
 175 175 176 177 177 177 177 176 176 177 176 175 173 171 171 170 169 167 165 162 161 157 139  53  41  35  32  31  32  35  37  34  27  24  22  19  19  22  23  27  33  40  42  46  51  56  56  63  57  49  54  58  55  57  55  48  42  37  36  33  29  26  24  19  19  18  20  24  28  30  30  66 140 148 150 150 151 152 151 152 152 151 152 152 152 151 150 150 148 149 148 146
 175 175 176 176 177 176 176 176 176 177 176 174 172 172 171 170 168 166 164 161 159 157 146  95  43  35  31  29  31  33  35  33  27  24  23  21  23  28  34  37  42  49  53  58  65  68  66  64  57  52  51  60  57  53  49  45  41  35  32  29  27  22  19  17  17  19  22  24  28  32  30 118 144 146 148 149 149 150 150 151 151 152 152 151 152 150 150 148 148 148 148 147
 174 175 176 175 175 175 175 176 174 173 174 172 171 170 170 168 167 165 162 160 159 156 152 118  44  37  31  27  28  31  33  32  26  24  25  25  26  27  32  38  41  44  50  54  64  64  61  54  52  49  46  50  47  46  48  44  37  32  27  24  21  18  16  17  18  20  22  25  29  30  62 135 144 146 146 148 148 148 149 149 151 151 150 149 150 151 151 148 147 148 146 145
 172 174 174 175 173 174 173 172 172 172 172 171 170 169 168 167 166 162 159 158 158 155 151 122  49  36  31  28  27  29  32  30  27  25  24  26  28  26  28  31  34  35  39  46  50  50  52  49  46  44  38  39  43  44  40  36  29  24  20  17  16  16  15  16  18  17  20  25  28  25 104 139 143 145 146 147 148 147 147 148 148 150 151 150 148 150 150 149 147 147 146 146
 173 175 174 174 174 172 172 172 171 171 171 170 168 167 166 166 163 161 159 157 157 154 150 119  56  34  31  27  26  27  30  30  26  25  25  26  27  26  25  24  25  26  30  33  33  36  37  37  34  32  28  27  29  31  28  22  19  16  14  12  12  14  15  16  17  16  20  24  27  36 119 136 141 143 145 145 146 146 146 147 148 148 149 149 148 148 149 147 146 146 145 145
 171 173 172 172 172 171 171 171 171 171 169 168 166 166 165 164 161 159 158 156 155 154 151 122  59  41  30  28  26  26  27  26  26  25  25  26  27  26  24  20  19  17  18  20  20  20  20  20  19  18  16  16  16  16  14  12  10  10  10  10  12  15  15  15  16  16  19  21  27  67 130 138 141 142 143 143 143 144 145 146 147 148 147 147 149 148 148 146 146 145 144 144
 169 171 172 170 170 168 169 169 166 167 167 165 164 162 161 159 159 158 156 156 153 152 152 117  58  43  30  27  26  25  24  26  26  23  21  23  24  23  22  20  18  15  13  12  11  10   9   9   9   9   9   9   9  10   9   9   9  10  10  11  12  12  13  14  15  16  18  21  28 111 134 138 138 140 141 141 141 143 144 144 144 146 146 146 146 147 148 146 145 145 144 145
 170 169 169 170 168 167 167 168 166 165 165 163 161 159 159 157 158 156 154 153 152 151 149 113  58  45  35  26  25  23  23  25  25  24  20  20  20  19  19  19  18  16  13  11  11  10  10  10  10  10  10  11  10  10  10   9  10  11  11  11  12  12  13  15  15  16  17  21  40 124 133 136 138 140 139 140 140 142 142 143 142 143 144 145 146 147 145 146 145 144 143 142
 165 166 166 166 165 164 164 164 163 160 161 160 158 156 157 154 155 152 152 153 152 150 148 111  57  45  35  23  22  22  21  21  23  23  22  19  19  18  18  18  17  16  15  13  13  12  11  12  11  12  12  11  10  10  10  10  10  10  12  11  12  13  13  14  15  14  18  20  44 123 132 135 135 137 136 139 139 141 140 141 142 142 142 143 145 144 144 144 145 145 141 142
 164 163 162 162 162 160 161 161 161 160 157 158 156 155 155 153 154 150 151 151 151 149 147 105  55  44  36  26  20  19  20  21  22  22  22  19  18  17  18  17  16  16  14  13  13  11  11  12  12  13  12  12  11  11  12  11  11  12  14  14  14  15  15  15  16  15  18  21  49 123 129 132 133 133 134 137 136 137 139 140 140 141 142 142 143 143 143 141 143 145 142 142
 160 161 160 161 160 159 158 156 157 156 156 154 154 152 151 152 150 151 149 149 149 147 145 100  54  45  36  28  21  18  18  20  20  22  20  20  18  18  18  17  17  16  16  15  13  14  14  15  15  16  14  14  14  15  13  13  14  15  16  16  16  16  17  16  15  15  18  21  50 120 128 131 133 133 134 135 136 136 138 138 138 140 141 140 141 141 142 141 142 143 142 141
 158 158 159 158 157 156 158 155 155 154 154 152 152 151 150 150 150 149 149 148 148 146 142  92  54  45  36  31  24  19  16  15  18  19  20  21  20  18  19  19  18  18  17  17  17  17  18  18  17  18  17  16  15  15  14  14  15  15  17  17  18  17  16  16  14  15  15  21  54 119 127 129 131 131 132 134 133 135 134 136 136 137 138 140 139 140 141 141 140 140 142 140
 157 158 157 156 156 155 155 154 154 153 152 151 152 151 149 150 148 148 147 146 145 144 140  84  52  43  34  30  25  20  15  14  16  16  18  20  20  19  21  21  21  21  21  22  20  20  21  20  19  18  18  17  16  15  14  14  14  17  17  17  16  15  17  16  15  15  14  23  52 118 125 127 127 130 132 132 134 133 133 136 136 136 139 138 137 139 140 140 140 141 140 139
 156 155 155 155 154 154 154 153 152 151 152 152 150 148 148 148 147 146 144 145 143 143 138  77  50  42  37  31  26  21  17  14  15  13  15  17  18  19  23  23  24  24  23  23  23  23  21  20  17  17  16  16  15  15  12  12  14  15  15  14  14  16  16  16  13  16  16  25  54 117 124 126 127 129 130 130 131 132 131 133 133 133 135 137 136 138 137 139 139 140 139 140
 156 155 155 155 153 153 153 152 151 151 151 149 148 146 146 144 144 143 144 143 142 141 135  66  50  41  36  33  26  19  18  14  12  13  13  15  18  17  21  22  24  25  22  22  23  22  20  18  17  17  16  16  15  14  12  12  14  13  12  12  12  14  14  15  13  13  17  25  53 114 120 123 125 127 128 127 128 130 130 131 133 131 134 136 137 135 138 138 138 138 138 138
 153 154 154 153 152 150 150 151 150 151 148 146 146 145 144 143 142 140 142 141 138 137 129  60  49  40  35  31  29  23  19  16  14  12  10  14  16  18  21  19  22  22  19  19  20  19  18  16  16  14  14  14  13  12  11  11  12  10  10  10  10  12  11  12  12  16  18  26  56 115 118 121 124 126 126 126 127 128 127 130 129 130 131 131 133 134 136 136 136 137 136 138
 152 152 152 151 151 149 149 148 147 147 147 145 144 142 142 140 140 138 136 135 124 107  85  57  47  41  33  32  28  25  20  17  16  12  10  11  12  14  17  18  18  17  17  16  17  16  14  13  14  12  12  12  11  10   9   9   8   9   9   9   9  10  10  10  12  17  20  25  56 112 116 118 120 122 123 124 125 125 127 127 129 129 131 130 132 132 133 133 134 135 136 136
 152 152 152 149 149 148 147 147 147 146 145 145 144 144 141 141 136 112  76  48  26  35  59  52  44  39  35  32  30  27  22  20  18  14  11  11  10  12  14  14  14  13  13  13  12  12  12  11  11  10  10  10   9   9   9   8   8   8   8  10  10   8   9  11  12  17  20  25  44  79 107 115 117 119 120 122 124 125 125 125 126 127 130 130 131 132 130 133 134 133 135 137
 151 151 152 151 150 149 148 147 145 145 145 144 142 143 139 119  64  26  21  21  29  56  59  48  42  39  36  33  31  26  23  20  19  16  14  13  11  10  12  12  12  11  11  11  10  10  10   9  10   9   9   9   8   8   8   8   9   8   8   8   8   9   9  13  15  17  20  25  29  18  24  42  66  91 100 118 120 123 124 125 126 125 128 127 130 130 130 132 132 133 135 136
 151 153 152 150 150 150 148 146 145 146 143 141 138 124  69  29  21  15  23  25  49  62  54  48  42  38  36  34  30  27  26  23  20  19  18  15  12  12  11  11  11  11  10  10   9   9   9   8   7   7   6   7   7   8   6   6   8   8   8   9   8  10  11  15  16  18  22  24  31  31  17  13  16  19  21  49 104 119 121 125 125 127 126 127 129 128 130 130 130 133 132 134
 151 150 150 150 147 148 147 147 144 144 138 112  58  31  27  18  15  26  28  46  61  56  51  44  40  39  34  32  31  28  26  26  24  22  19  18  17  15  13  11  11   9   9   9  10   9   9   8   6   7   6   6   6   7   7   6   7   8   8   9   9  13  14  16  17  19  21  25  29  33  32  21  13  10  12  16  23  87 118 122 123 124 124 126 128 127 129 129 131 132 132 133
 148 148 148 147 147 147 145 145 143 121  51  29  27  22  16  13  25  28  37  61  58  55  47  45  40  39  36  32  30  28  28  26  25  24  22  19  18  18  17  13  12  11   9   8   8   9   8   6   6   7   6   5   5   5   6   6   6   8  10  11  12  13  12  15  16  18  21  23  26  31  33  34  24  11   9  10  14  17  66 117 120 123 124 123 126 127 127 126 129 130 133 131
 151 147 148 146 146 146 144 140  99  34  26  23  20  18  12  20  29  28  57  59  56  52  48  44  41  39  36  32  30  31  28  27  25  25  23  22  18  19  17  16  16  15  13  11  10   9   8   6   7   6   6   6   7   6   7   8   9   9  10  12  12  14  15  16  17  18  22  24  25  30  31  33  34  27  14  11  10  13  16  48 109 122 123 124 124 126 126 127 128 129 129 129
 149 146 146 144 142 142 138  78  29  25  21  18  18  16  14  24  28  40  59  58  53  49  46  41  42  39  38  33  31  30  31  29  26  26  25  21  20  20  18  17  17  17  16  14  14  12  12  10  10  10   9   8   8   8   8   9   9   9   9  11  14  14  15  16  18  19  20  23  25  29  30  32  33  34  30  16  10  10  13  18  25  89 119 121 121 125 124 127 126 128 129 129
 146 146 145 144 141 137  64  29  24  20  18  16  16  15  14  25  26  48  56  52  50  46  45  42  40  39  35  34  33  31  29  30  28  27  25  22  21  20  19  18  18  18  16  15  14  13  12  10  10   9   9  10   9   8   9   9   9  10  11  12  14  16  15  17  18  18  20  23  25  28  29  29  31  34  34  28  17  10  11  13  15  19  63 111 121 124 124 125 125 126 127 127
 143 144 142 141 118  50  28  24  20  17  17  16  14  14  14  23  24  48  55  53  50  46  44  42  40  39  37  35  33  32  29  29  29  28  26  25  23  21  20  18  18  17  17  15  16  14  14  10   9  10   9   9   9   9   8   9  10  12  13  14  14  16  15  16  17  18  18  22  25  26  28  29  31  32  34  30  27  15   9  10  13  14  18  36 108 121 122 124 126 126 125 126
 140 136 122  73  30  30  22  20  18  17  15  14  15  14  13  20  24  48  52  52  50  46  43  42  40  40  37  35  33  32  30  29  29  26  26  26  24  22  21  19  18  18  18  17  15  14  13  12  11  10  11  10  10  10   9  11  11  13  14  16  16  16  16  16  17  17  19  22  24  28  29  29  30  32  33  32  29  24  12  10  11  12  14  17  24  99 121 121 124 124 125 125
 130  78  33  25  25  22  20  19  17  17  16  12  13  15  15  16  22  48  50  51  49  46  43  42  41  39  36  36  34  32  30  30  29  28  26  25  25  23  23  21  19  18  17  17  16  16  14  13  11  11  11  12  11  11  11  11  12  15  16  16  15  16  15  17  16  17  18  21  24  27  27  29  30  30  32  30  29  26  15  10  10  11  12  14  16  20  76 118 121 122 123 123
  36  27  22  20  21  20  18  18  16  14  13  14  13  13  14  14  22  48  49  50  48  46  44  43  41  38  38  36  34  32  32  30  29  28  26  25  24  24  24  22  19  18  18  17  16  15  14  13  12  13  13  13  12  13  12  11  14  16  16  16  16  15  16  17  16  17  19  22  24  26  27  29  30  31  32  31  30  28  18  10  10  11  11  12  13  16  20  45 102 121 121 122
  24  21  20  20  19  19  17  15  13  15  14  12  12  13  12  12  20  45  50  51  48  47  44  44  41  38  37  36  34  32  32  29  29  28  26  26  24  24  23  23  21  19  18  17  16  15  15  14  14  13  13  13  12  12  14  14  15  17  16  16  15  14  16  16  17  18  19  21  24  25  27  30  30  31  32  31  30  27  20  10  11  10  10  11  12  13  16  19  23  55 105 118
