P2
# Generated by OpenCV 3.4.0
92 112
255
 208 206 204 204 203 201 199 190 186 181 176 173 172 171 172 171 171 171 172 171 171 172 171 171 172 173 171 172 171 170 171 171 171 169 170 170 170 171 170 170 170 170 170 169 170 168 169 169 170 170 170 169 169 169 170 171 169 169 170 170 169 169 169 169 170 169 169 168 167 168 167 166 166 168 169 166 166 166 164 164 165 165 164 165 164 164 164 163 162 162 161 160
 193 195 194 193 194 191 188 185 182 180 177 174 172 171 172 172 171 172 172 172 172 171 171 172 173 173 171 171 172 172 172 171 171 169 170 171 171 170 171 171 171 170 171 169 169 169 170 169 170 171 171 169 170 169 170 171 170 170 169 170 170 170 169 168 169 169 169 169 169 169 168 168 169 168 168 166 167 167 166 165 166 165 165 165 164 165 164 164 162 161 160 160
 186 186 186 185 186 186 184 184 180 178 176 175 174 173 172 173 172 171 172 172 172 171 171 172 173 172 172 171 170 170 171 171 171 171 171 172 170 171 171 171 170 170 170 169 170 170 169 170 170 169 170 170 170 170 171 171 170 169 169 171 171 170 169 170 169 170 168 169 170 169 169 168 168 169 168 167 168 167 166 166 166 165 164 166 164 164 164 165 164 163 162 161
 182 181 180 180 181 179 180 179 177 176 175 174 173 173 172 174 172 172 171 172 172 171 172 173 172 172 172 171 171 170 171 171 171 172 170 171 171 170 170 170 172 171 170 170 170 171 170 170 171 169 169 170 169 169 170 170 170 170 170 170 171 169 169 170 169 169 170 169 170 169 169 168 169 170 168 167 168 169 166 165 167 167 167 166 166 165 165 164 164 164 163 161
 180 179 178 178 179 178 177 176 177 176 175 174 173 174 173 173 173 172 172 172 172 172 171 172 172 172 172 172 172 171 172 171 171 171 171 171 170 169 170 170 170 170 170 170 170 170 170 170 170 169 169 170 170 170 170 171 171 171 170 170 170 170 171 170 170 170 170 169 168 169 169 169 169 170 168 168 168 167 166 165 167 168 166 167 166 165 164 164 164 164 163 164
 179 178 178 178 178 178 177 177 176 177 176 175 173 173 174 175 174 173 172 173 174 174 173 173 172 172 172 172 173 172 172 172 171 172 172 171 170 170 170 170 170 169 169 170 170 171 170 170 170 170 170 170 170 170 170 170 171 170 170 171 170 169 169 170 170 171 169 170 169 169 169 169 169 168 168 166 167 168 165 166 166 166 167 167 165 166 166 164 164 163 163 164
 178 176 178 179 178 178 177 176 175 175 175 176 175 173 175 174 173 173 173 173 172 172 173 173 172 173 172 173 173 173 171 172 172 171 172 172 169 171 169 170 169 170 168 169 169 170 168 169 169 171 170 170 170 170 170 169 169 169 171 170 170 170 170 169 170 170 169 169 168 169 169 169 169 168 169 168 168 166 167 165 167 166 165 166 164 165 165 165 164 165 164 164
 177 178 178 178 177 178 177 176 176 175 176 176 175 175 173 173 172 172 173 173 174 173 174 172 172 173 172 173 173 172 172 172 172 171 172 170 169 169 168 168 167 165 165 161 160 165 163 159 164 165 168 168 169 170 169 169 169 169 169 169 169 168 168 170 170 170 169 169 168 169 169 169 169 169 169 168 168 168 166 165 166 166 165 167 165 165 165 164 165 164 164 165
 177 178 177 176 176 177 177 177 177 176 176 175 175 174 174 173 173 173 173 173 174 174 172 172 174 172 171 173 173 172 173 172 170 171 170 169 166 157 159 154 147 146 141 131 135 112 109 128 142 155 160 162 165 165 169 170 169 169 169 169 169 169 169 170 170 169 169 170 168 168 167 166 168 168 166 166 168 166 166 165 166 167 165 165 166 166 164 165 165 164 165 165
 175 176 177 177 176 177 176 175 175 176 176 176 175 173 174 176 174 175 174 174 175 174 173 174 173 173 172 171 172 172 171 171 170 168 161 132 107  95 104  77  72  58  51  50  46  45  49  49  59  89 104  99  99 136 160 168 170 170 169 170 170 170 170 170 171 169 170 170 168 169 169 169 169 168 167 166 167 166 167 167 166 166 164 165 165 165 165 165 165 165 164 163
 174 175 176 176 175 176 176 176 176 176 177 176 174 174 173 175 175 176 174 175 175 174 174 174 174 174 173 171 170 169 168 165 144  89  68  60  47  46  46  44  43  38  39  38  35  34  35  35  36  40  41  43  43  49  75 138 162 167 170 170 171 169 170 169 170 169 169 168 170 169 168 169 169 168 167 168 168 167 166 168 168 167 167 165 166 166 166 164 165 164 163 164
 174 174 174 174 176 176 175 175 175 174 175 175 174 174 174 174 174 174 175 175 175 175 176 174 173 171 172 171 165 160 147  85  45  42  39  36  33  35  35  34  32  30  33  32  29  30  30  30  29  30  30  30  31  32  36  54 106 148 167 170 170 169 169 168 169 170 169 169 169 169 169 168 168 168 167 167 168 169 167 166 167 167 166 165 165 165 167 164 166 165 164 163
 175 173 173 174 174 175 174 174 174 175 176 176 174 174 174 173 174 174 174 176 175 175 175 175 174 172 170 166 135 105  56  43  38  36  31  29  28  30  28  28  26  26  27  28  25  26  24  26  26  27  28  30  28  27  29  36  42  80 144 165 169 167 168 168 169 169 170 169 168 169 168 168 168 168 168 168 168 167 168 166 167 166 167 165 164 165 166 164 165 163 164 165
 174 174 174 173 174 173 174 175 176 175 175 176 174 174 173 174 175 175 176 176 175 176 175 175 172 167 147  79  48  44  40  38  32  29  26  27  28  29  26  25  24  24  24  24  23  25  22  24  24  25  25  25  26  25  28  27  32  41  85 142 164 165 168 169 169 169 170 170 169 169 169 169 169 169 169 167 167 168 168 167 167 167 166 164 164 165 166 164 167 166 165 165
 174 174 174 172 173 175 174 174 174 176 175 174 174 173 175 174 174 173 176 175 176 174 174 174 159 110  57  48  37  33  31  31  31  29  25  26  28  26  24  24  24  25  24  22  23  23  22  23  25  24  24  23  23  27  26  27  29  30  37  56 112 151 166 169 168 168 169 169 169 169 169 169 168 167 168 167 166 167 169 167 166 166 165 164 167 165 165 165 167 165 165 165
 174 173 173 173 173 174 172 172 174 175 174 174 173 174 175 173 174 175 175 176 176 175 174 172 138  61  43  35  30  30  28  30  28  27  25  25  24  24  24  22  23  24  24  20  20  20  22  24  23  23  24  21  22  24  24  26  25  26  29  36  46  91 153 165 169 168 169 168 170 168 168 169 169 167 166 168 169 167 166 167 165 166 166 165 165 166 166 167 165 165 164 165
 173 172 172 172 174 174 173 173 174 173 174 173 174 174 173 175 175 175 176 175 175 175 173 155  75  45  32  28  26  28  31  26  25  26  23  23  21  23  23  21  20  20  20  19  18  19  20  22  21  21  19  20  18  21  22  23  21  24  29  29  30  38 115 160 165 168 169 168 169 169 169 170 169 168 168 168 168 166 167 168 167 167 166 167 167 167 167 166 167 165 165 166
 173 172 172 174 172 174 174 174 173 172 173 174 174 173 173 175 176 174 175 176 175 174 159  92  44  35  29  28  27  28  26  22  22  22  21  19  18  18  18  18  17  18  18  17  17  19  18  19  18  18  19  18  17  19  20  21  20  22  25  27  29  32  52 114 155 167 169 168 168 169 169 169 169 168 169 168 168 167 168 167 167 167 167 166 167 166 167 168 166 165 165 166
 172 172 173 172 173 174 173 174 173 173 174 174 174 174 174 175 175 175 176 177 177 176  95  47  40  34  31  27  28  25  23  18  18  18  18  17  16  17  17  18  17  17  18  17  17  18  17  18  16  17  18  17  17  19  18  18  17  19  21  21  25  27  32  42 106 157 164 168 169 169 168 167 168 168 168 166 168 168 168 166 166 168 167 167 167 166 167 166 165 166 165 164
 172 173 173 172 173 173 172 172 173 173 174 175 173 174 174 175 175 177 177 182 183 165  68  39  34  31  28  27  28  24  21  18  18  17  17  18  18  19  19  20  20  20  20  19  19  18  18  17  17  17  17  17  17  16  16  16  17  17  17  18  20  23  26  33  48  86 150 165 168 167 168 168 168 167 168 165 168 168 167 167 167 168 167 167 169 166 167 166 166 166 165 164
 171 172 172 173 173 174 173 173 174 174 174 173 174 175 175 174 174 175 179 184 182 135  43  34  30  28  26  26  24  20  18  18  19  20  20  21  22  27  28  28  26  27  26  26  27  24  20  19  18  18  17  17  17  16  16  15  16  16  17  17  18  20  22  26  31  41  97 149 162 166 169 167 167 167 168 168 167 168 167 168 166 167 166 168 168 168 167 166 168 167 166 166
 172 172 173 172 172 173 172 174 174 174 174 174 175 175 173 175 175 176 176 178 158  60  38  32  28  27  25  23  20  19  19  20  22  24  27  30  31  38  41  39  36  36  37  37  42  35  29  26  25  24  22  22  20  19  17  17  17  17  16  17  16  18  18  20  24  30  44  96 148 162 167 168 167 167 167 167 168 167 168 168 167 167 166 168 167 168 169 165 167 167 167 165
 173 173 173 172 174 173 173 173 173 173 174 173 173 174 174 174 173 173 174 166  99  45  34  30  26  26  22  20  21  21  23  25  28  32  37  43  45  49  53  48  48  47  49  48  50  46  41  39  35  34  35  33  30  28  26  25  24  22  20  17  17  17  16  17  21  24  30  43 101 153 164 165 168 169 168 167 168 168 169 168 168 167 168 167 168 167 167 167 168 168 168 165
 172 172 172 172 175 174 173 174 174 174 174 175 174 175 174 173 172 171 169 150  58  37  30  27  23  23  21  22  24  28  32  37  41  45  50  57  56  57  62  56  56  53  55  54  52  52  49  47  45  45  46  45  42  38  36  32  32  28  28  25  21  16  16  17  17  20  25  32  45  94 153 162 166 167 168 167 167 167 168 168 166 167 168 168 169 167 167 167 167 167 166 165
 173 172 173 174 174 174 173 173 174 175 175 176 175 174 172 174 174 170 163 132  52  35  30  26  24  24  25  26  30  37  50  55  60  62  64  67  66  66  68  67  64  59  58  57  56  53  51  50  51  51  51  50  47  43  41  37  35  33  32  31  28  23  18  17  17  18  21  25  31  43 123 158 165 168 167 169 167 167 167 168 166 165 167 166 168 168 168 168 166 165 164 165
 174 175 175 176 175 175 173 173 175 176 175 175 173 173 174 175 174 171 165 119  51  36  30  25  25  28  29  35  42  54  66  74  74  75  73  73  72  74  73  71  67  63  62  60  58  55  54  52  51  51  49  49  46  43  41  36  36  36  36  36  34  32  26  21  18  17  18  20  27  35  75 150 164 167 166 167 169 168 168 168 166 166 167 165 168 167 167 167 166 166 166 164
 176 176 176 176 175 175 176 176 175 176 175 175 173 173 173 173 172 168 157 107  46  32  28  25  29  36  43  48  57  67  74  79  80  80  78  78  77  78  75  72  68  65  62  59  58  58  54  52  52  51  49  45  43  40  38  35  36  34  36  36  36  35  33  28  23  20  18  20  22  28  39 110 159 165 165 165 166 167 168 168 165 167 167 166 167 168 166 166 166 165 166 164
 176 175 177 177 175 177 177 176 177 176 176 175 175 174 175 173 173 165 144  81  40  30  25  28  40  50  55  62  68  73  77  80  81  80  82  79  78  76  74  69  66  63  61  57  56  54  54  52  50  48  45  42  40  39  37  35  35  34  35  36  37  36  37  35  31  28  22  20  20  25  31  60 142 164 166 167 167 166 168 167 166 167 166 167 168 168 168 167 166 165 164 164
 177 176 176 176 176 177 177 177 176 177 177 176 175 174 174 173 173 163 125  64  37  29  30  40  54  56  58  62  68  71  74  74  76  76  76  75  74  74  70  66  64  63  57  55  53  54  52  50  48  45  43  42  37  36  34  32  30  31  32  34  35  35  36  37  36  35  30  26  22  24  28  36  82 155 164 166 167 167 166 166 165 167 166 167 166 168 169 167 166 166 164 166
 177 177 178 178 180 178 179 178 182 178 177 177 176 175 174 172 172 158 112  45  33  31  41  55  56  57  59  61  66  69  70  70  72  72  72  70  71  71  71  65  64  61  58  56  54  54  52  50  48  44  42  40  36  33  32  31  30  30  30  30  34  35  35  36  39  38  37  30  24  23  24  29  44 129 162 167 167 167 167 166 166 166 165 166 165 167 169 165 164 164 166 165
 180 182 184 182 181 182 182 182 181 181 180 178 177 175 175 173 171 151  75  41  33  34  50  58  56  58  56  57  58  60  66  70  71  70  68  70  71  69  68  66  66  63  61  58  56  54  53  52  47  43  41  35  35  33  32  30  30  29  30  31  33  34  35  35  38  40  41  36  28  24  23  26  33 103 159 166 168 166 167 166 168 167 167 167 168 167 166 166 165 166 167 166
 189 191 191 190 190 190 188 187 188 186 184 183 182 180 177 175 166 104  46  35  32  44  60  59  57  56  53  53  57  59  66  69  70  70  70  71  71  70  69  68  66  65  61  59  58  57  55  54  54  44  39  36  35  32  30  29  30  30  30  31  33  34  35  36  37  39  40  38  30  25  24  24  32  68 152 162 166 166 167 167 167 168 168 168 166 166 167 167 166 167 166 166
 195 197 197 195 202 203 202 201 197 194 194 194 189 184 178 173 165  70  42  33  36  55  62  59  58  54  53  53  54  57  65  67  70  71  71  71  69  69  69  70  69  67  63  61  60  60  57  54  46  45  44  42  37  35  31  30  29  29  29  30  32  34  34  35  37  39  39  37  30  24  23  23  27  64 151 163 166 167 168 168 167 168 168 167 168 167 167 169 167 165 165 168
 202 202 204 207 208 208 209 208 207 204 201 200 195 186 182 175 144  59  39  34  48  63  64  58  56  54  53  53  54  56  63  69  70  70  68  68  66  69  73  72  68  64  63  64  64  61  59  52  50  49  48  46  42  39  34  33  32  32  31  33  32  33  35  35  38  38  38  37  32  26  22  23  25  43 138 163 167 166 169 167 169 169 166 167 166 167 168 167 167 166 166 167
 200 201 204 204 204 206 206 206 206 204 200 199 194 188 182 172 115  52  38  42  62  66  62  60  57  54  53  54  57  62  68  74  78  77  75  75  73  71  73  71  67  65  63  63  62  58  58  54  50  51  52  47  42  42  38  38  38  37  36  35  36  35  35  35  36  38  39  35  31  26  22  23  25  34 117 162 166 165 166 165 168 169 168 169 169 169 169 168 167 167 166 165
 193 192 194 200 200 196 200 200 199 198 195 194 191 187 179 171 111  48  39  54  67  66  60  59  57  55  57  60  65  67  72  79  80  79  80  78  74  73  72  69  66  63  60  61  59  57  55  52  52  53  51  47  44  42  42  41  41  41  40  38  38  38  35  37  37  39  40  38  32  26  23  22  24  29 131 166 168 169 167 167 169 169 168 169 167 168 168 169 168 166 168 168
 187 185 187 188 189 190 189 189 190 189 188 187 185 182 178 170 105  48  42  61  68  65  62  62  60  62  64  67  71  73  74  76  78  78  78  77  73  71  69  64  61  58  58  57  54  53  53  49  50  50  47  46  44  41  39  38  40  42  44  43  41  40  39  39  37  39  39  39  37  28  23  23  23  27 123 163 168 168 168 168 168 169 168 169 168 168 169 168 168 166 167 169
 182 184 184 185 184 184 184 184 185 184 183 184 183 179 179 170  98  44  44  61  68  67  66  64  64  66  67  71  74  74  72  72  74  73  72  70  69  66  64  58  58  56  55  56  54  50  49  47  46  44  43  41  38  34  32  32  31  34  36  35  32  30  32  32  33  37  38  38  38  32  21  21  23  27  83 159 166 168 168 169 169 168 167 169 168 169 169 168 169 168 167 167
 179 182 181 182 184 183 183 182 180 179 181 180 179 179 178 172 111  46  48  63  68  67  67  66  67  66  65  69  70  71  67  66  67  66  66  66  64  59  56  54  54  53  53  54  52  50  47  45  41  36  30  30  30  25  22  20  20  22  24  24  22  22  23  25  25  30  33  37  39  34  23  20  22  26  61 158 166 168 169 167 168 168 168 167 168 169 168 169 168 168 167 167
 179 179 179 180 179 181 180 180 180 180 181 179 178 178 178 172 130  49  49  65  69  68  67  66  64  59  60  59  61  62  59  58  60  59  62  59  56  53  51  49  50  50  51  51  49  47  44  39  33  29  24  24  22  19  18  16  16  16  18  16  17  17  18  18  20  23  27  32  38  37  25  20  20  24  51 155 168 170 169 169 170 169 169 168 169 169 169 170 170 169 168 168
 179 179 179 180 179 180 180 180 179 178 178 179 179 178 178 175 149  58  49  67  67  67  67  65  58  49  47  48  48  47  47  48  49  51  53  52  54  51  50  48  47  49  47  47  44  44  39  33  29  27  21  19  18  18  16  16  15  16  16  17  18  18  17  20  22  25  25  26  32  39  27  21  19  23  48 151 168 169 169 170 170 170 170 170 170 169 168 169 169 169 169 168
 179 178 179 180 180 180 179 178 179 178 179 180 179 179 178 174 162  72  50  68  68  65  57  50  42  36  36  34  37  38  41  44  42  41  43  46  50  51  48  46  46  46  45  43  41  37  34  28  25  24  20  19  18  16  16  16  16  17  18  18  20  22  24  24  26  27  27  25  28  39  31  21  20  24  47 153 168 169 169 170 168 169 170 169 169 169 170 170 169 169 169 168
 179 179 179 179 178 179 180 178 178 179 179 179 179 178 177 177 172  92  52  68  65  53  43  39  36  33  32  29  30  28  27  30  33  33  38  39  42  46  46  46  45  44  43  39  38  35  30  27  24  22  20  18  18  17  17  16  17  19  20  24  28  29  28  29  28  28  28  28  28  36  33  22  20  24  50 157 167 169 169 169 170 170 170 170 170 170 169 169 169 170 170 169
 178 178 180 179 178 179 179 179 179 180 178 179 178 178 178 177 172 119  56  67  50  37  32  32  30  28  28  26  24  24  22  24  25  30  32  34  36  41  43  41  40  40  39  38  35  33  30  26  22  21  19  18  18  18  18  19  23  27  31  33  34  34  33  32  30  29  29  28  29  31  34  20  20  24  66 157 169 170 170 170 170 171 172 170 170 169 169 170 170 169 169 168
 179 178 179 178 179 179 179 179 179 179 179 178 178 178 178 178 172 142  57  57  37  33  34  35  35  33  32  28  24  23  21  23  24  26  29  30  34  38  40  39  39  38  37  35  33  30  26  24  22  20  19  19  19  21  24  27  31  30  26  25  27  26  24  26  29  29  29  28  29  33  38  23  20  26  83 164 170 170 170 169 171 172 171 170 171 171 171 170 169 169 169 168
 178 178 179 178 178 179 179 178 178 180 180 178 179 178 178 178 173 146  55  45  38  41  45  45  45  43  39  34  28  26  24  23  23  25  27  29  31  36  38  38  38  37  35  33  31  28  25  22  21  21  20  19  22  25  29  28  25  29  38  41  41  36  29  26  21  23  25  25  28  35  38  26  23  24  89 164 170 172 170 170 170 171 170 171 171 170 170 169 169 169 169 167
 178 179 178 179 178 178 179 179 178 179 178 178 178 178 178 178 176 158  57  44  45  52  59  61  63  60  52  46  40  34  29  27  26  24  25  26  29  36  37  38  37  37  35  34  32  29  25  24  21  20  20  22  25  29  26  24  33  40  42  40  35  28  26  29  30  21  22  26  29  35  38  29  23  24  83 163 169 171 171 170 171 171 170 170 171 168 169 170 170 168 168 167
 177 178 178 178 178 180 179 179 179 179 178 178 179 178 180 178 175 172  72  52  58  62  64  65  60  52  48  44  42  39  34  30  27  26  27  26  31  34  38  40  39  38  38  37  34  31  26  24  23  20  23  24  27  24  25  34  33  27  19  18  18  16  17  17  22  26  21  25  29  34  38  33  24  24  58 160 168 170 171 171 170 170 170 170 170 170 169 169 168 167 167 167
 177 178 176 177 178 179 178 178 178 179 178 178 178 179 178 178 178 173  72  61  60  58  46  37  36  39  39  34  30  29  30  31  30  28  27  27  29  33  38  43  44  44  44  39  36  31  28  24  22  22  24  26  24  22  33  27  19  22  25  25  26  31  29  23  16  17  19  23  28  33  40  39  26  25  65 162 169 170 170 170 169 169 169 169 170 169 168 168 167 168 168 167
 175 177 177 175 177 178 178 179 178 178 179 178 178 178 179 178 177 169  84  63  58  44  32  45  64  60  49  41  37  29  25  24  27  28  27  26  29  33  41  47  50  50  49  44  38  32  29  25  23  24  24  25  23  32  27  19  48  50  26  27  18  24  40  41  26  15  18  22  27  32  36  41  25  26  96 164 168 170 169 170 170 169 169 169 169 168 169 168 168 167 168 167
 177 177 177 176 177 177 179 179 177 178 179 178 178 178 178 177 177 173  96  63  51  34  39  34  28  25  24  22  22  24  26  23  23  26  27  26  29  34  41  49  56  60  55  48  40  34  29  25  23  23  24  24  30  27  22  52  86  57  26  19  15  18  31  45  39  20  20  25  27  31  34  39  28  26 142 166 169 169 169 170 170 169 169 169 169 169 169 169 169 168 168 167
 178 176 178 177 177 177 177 178 178 178 178 178 177 177 177 178 176 174 120  61  45  43  25  24  38  52  56  56  36  23  22  23  24  24  27  29  30  35  43  51  62  67  64  54  45  36  30  27  23  24  27  28  24  17  32  67  63  23  19  18  15  15  27  44  47  32  27  28  28  30  34  37  29  41 147 165 169 170 168 169 168 168 168 168 167 168 167 168 167 167 167 166
 176 177 178 177 178 178 177 178 178 178 177 177 177 176 178 177 177 173 132  58  40  32  25  50  84  94  67  43  30  23  24  24  22  25  30  33  38  40  44  52  63  68  68  64  54  42  33  28  25  25  30  26  19  21  34  58  67  29  15  13  14  14  30  40  38  26  27  28  27  29  32  36  33  45 147 163 166 167 167 168 168 168 167 166 168 167 166 167 168 166 166 166
 179 177 178 177 178 177 178 178 177 178 178 178 179 178 177 177 177 175 138  62  39  26  34  91 100  98  73  34  24  18  18  31  27  24  33  42  41  42  46  53  66  69  71  68  57  46  39  32  27  24  27  24  28  29  32  37  41  33  17  13  13  20  27  27  24  23  28  28  28  31  31  36  37  64 107 117 148 163 168 167 167 168 168 168 167 167 165 166 166 166 166 164
 178 176 177 177 177 177 178 177 176 178 178 179 179 177 177 177 177 174 133  60  37  26  52  98  94  63  26  22  23  17  16  28  32  33  31  43  39  42  49  57  70  75  72  69  56  46  38  34  30  28  26  24  26  26  27  26  25  24  22  19  18  19  20  19  20  24  31  32  31  32  35  36  38  37  44  43  52 145 164 167 166 167 168 166 165 166 166 167 167 166 165 164
 176 174 176 177 178 178 178 178 177 178 177 178 178 178 178 177 177 173 138  72  52  40  65  95  79  63  26  20  19  17  15  26  32  38  36  40  38  46  53  64  81  88  80  70  57  46  40  39  34  31  28  26  26  29  28  24  21  19  19  19  18  18  18  19  20  26  33  36  35  36  35  35  38  36  31  24  26  75 159 163 164 167 167 166 167 166 166 165 166 165 165 164
 176 176 177 177 175 177 178 177 178 177 178 178 178 177 178 178 176 174 142  73  58  59  63  85  76  61  39  20  17  19  26  30  30  34  38  38  43  50  56  71  87  97  86  72  61  46  42  41  35  33  32  30  29  29  30  29  26  24  21  18  18  18  18  18  23  26  32  38  41  40  37  35  36  32  24  21  24  34 148 162 163 166 166 165 166 164 164 165 165 163 165 164
 176 176 177 177 178 177 178 178 177 177 179 179 178 178 177 176 177 176 128  74  58  48  45  53  54  49  46  35  28  26  24  24  35  40  40  42  47  52  63  73  87  91  86  70  58  47  43  42  40  36  34  33  33  30  30  30  30  29  27  25  24  23  24  24  26  30  33  38  41  42  38  34  34  30  24  21  21  23 132 161 163 165 165 164 164 164 164 164 164 164 164 163
 175 176 177 177 178 177 177 178 179 178 178 179 178 177 178 176 176 174 123  74  62  55  45  36  33  33  31  27  22  21  26  34  41  43  44  47  50  54  67  77  96 103  87  73  58  52  46  41  41  40  35  34  32  33  32  30  32  30  29  28  28  27  26  27  28  30  34  38  42  43  38  35  36  33  24  21  21  27 122 161 163 164 164 163 164 163 163 163 162 162 162 161
 175 175 176 177 177 178 177 178 178 179 178 178 177 177 177 177 176 173 113  73  70  64  55  39  31  27  24  22  25  30  35  39  44  46  48  50  52  63  77  91 102 102  89  84  70  58  49  44  41  42  37  34  31  34  35  32  32  31  29  29  29  29  28  29  30  34  36  41  42  40  36  35  37  37  32  27  23  29 117 158 161 163 163 162 163 164 162 162 162 162 161 161
 174 176 176 176 176 177 176 177 177 178 178 177 177 177 177 177 177 175  78  71  73  72  60  42  33  30  30  33  36  39  41  44  47  49  51  51  61  79  93  96  87  85  86  83  77  71  64  52  45  45  44  37  32  33  34  35  36  34  32  30  31  30  30  30  33  35  37  41  40  39  35  34  36  37  32  32  24  30 114 158 161 163 163 163 161 163 162 161 160 161 160 159
 175 175 175 176 174 176 176 176 176 177 178 177 178 177 178 176 176 168  63  72  77  74  65  52  44  41  41  43  44  42  46  49  51  52  51  57  74  85  87  82  80  79  76  71  63  65  59  53  55  54  52  47  38  31  34  36  36  37  37  34  31  33  34  34  34  34  35  36  36  34  32  33  35  36  26  29  27  28 118 156 161 161 160 160 160 161 161 160 159 160 158 157
 175 175 176 175 175 176 176 175 177 175 177 176 176 177 176 176 175 172  62  70  75  75  67  54  50  48  48  46  46  47  51  54  54  53  58  72  73  73  73  73  71  67  60  57  53  49  41  41  45  50  50  48  44  34  32  35  37  37  37  36  35  36  36  36  34  34  34  32  34  31  30  31  34  37  26  28  30  26 136 157 159 159 161 160 160 160 160 159 159 158 157 157
 175 175 176 175 175 175 177 177 176 177 176 175 175 176 176 176 175 172  77  71  76  76  70  61  55  52  49  48  51  55  59  60  55  60  72  71  64  62  65  64  61  54  49  46  43  37  32  31  33  36  36  36  39  37  31  30  34  36  36  38  34  36  36  36  34  34  32  30  30  29  30  31  33  36  28  31  35  40 149 157 159 160 159 160 160 158 158 158 158 157 156 156
 175 175 175 174 176 175 176 176 176 176 175 175 176 175 175 175 175 172  99  72  75  77  74  67  59  56  55  56  57  60  62  60  58  70  63  56  49  43  45  48  49  47  44  40  35  29  27  26  22  20  21  24  26  30  31  30  31  33  35  35  33  35  34  35  33  30  30  28  28  28  28  29  33  36  30  35  39  69 152 157 157 158 160 158 158 159 157 158 157 156 156 155
 174 175 175 174 176 175 177 177 175 176 175 176 175 174 174 175 174 173 116  74  72  71  68  66  63  62  60  63  63  64  62  57  62  56  44  36  31  31  33  36  38  38  37  34  29  25  22  17  11   9  10  13  18  23  27  27  30  31  34  34  32  34  34  33  30  29  30  28  28  28  27  29  34  36  32  41  38 104 154 158 158 158 158 158 158 158 157 157 156 155 155 155
 174 175 175 175 175 175 176 176 176 175 175 175 174 174 174 175 175 173 146  74  68  65  63  63  62  63  62  65  64  63  60  54  54  37  22  15  15  21  27  30  31  30  30  28  26  22  14   9   9   9   9  11  13  18  22  26  28  28  31  32  30  31  32  31  30  29  28  26  26  25  26  28  32  34  34  41  35 134 154 156 156 157 157 158 156 156 156 156 154 155 155 155
 174 174 175 175 175 175 177 176 176 176 176 176 175 175 175 174 175 174 148  70  65  64  61  60  60  62  64  65  66  63  56  51  44  24  14  11  10  11  15  22  25  26  25  24  22  14   9   8   8   8   9  11  14  17  19  25  28  29  29  31  29  29  29  29  29  27  26  25  25  24  26  28  31  34  37  35  50 145 154 156 157 158 158 157 156 157 157 156 154 153 154 154
 174 175 175 175 175 175 175 175 176 175 175 176 175 176 176 175 175 172 150  69  62  62  60  58  61  62  65  66  64  59  54  47  38  22  15  11  12  10   9  12  18  21  21  19  17  11   9   9   9   9  10  14  17  17  20  25  29  30  29  29  28  27  28  28  27  26  25  25  25  24  25  28  31  34  39  41  81 151 155 156 156 157 156 156 156 157 155 154 154 153 154 154
 173 175 175 175 174 174 175 176 175 175 175 174 175 175 175 173 173 173 151  68  61  57  55  58  61  60  61  62  61  56  51  47  39  22  17  13  11  10  10   9  16  19  18  16  15  13  14  14  13  15  17  17  17  16  19  27  29  29  29  29  28  27  27  26  26  25  24  24  24  25  25  28  31  32  37  41 123 152 155 155 156 157 155 156 156 155 154 154 154 154 154 152
 174 174 175 174 175 175 175 175 175 175 174 174 174 174 175 174 174 173 159  67  58  57  55  55  56  57  58  58  58  53  50  49  46  30  19  18  17  19  19  24  23  20  18  16  15  14  17  20  20  18  16  15  16  17  22  27  30  29  29  29  28  28  25  24  24  24  24  24  24  25  24  26  31  33  41  46 140 154 154 156 156 154 155 157 157 155 155 154 154 154 152 152
 174 174 174 174 175 174 174 174 175 175 174 173 174 174 174 173 173 172 162  75  58  57  57  53  53  53  53  52  50  51  51  51  51  40  24  19  20  26  32  33  30  26  25  23  22  19  17  19  20  17  17  16  17  20  26  29  31  30  29  29  28  26  25  25  24  23  23  23  24  24  24  26  29  31  38  66 146 154 156 155 155 155 156 156 155 155 154 153 153 154 153 152
 174 175 174 175 175 174 174 174 175 174 174 174 173 172 172 173 174 172 169  82  59  55  54  51  51  51  50  48  48  51  52  53  55  49  32  23  22  25  30  31  29  32  35  33  30  26  21  20  18  19  21  23  24  25  29  31  33  32  30  30  28  26  25  24  23  21  22  22  23  24  24  27  30  30  27 109 149 154 156 155 155 157 157 156 155 155 155 154 154 153 153 151
 174 175 174 174 174 175 175 175 176 174 174 174 174 174 174 174 173 173 171  95  57  54  53  48  49  47  46  47  48  50  54  57  58  55  45  37  35  33  31  31  33  36  38  38  35  30  25  24  23  22  23  24  24  26  30  34  35  34  31  30  29  28  26  24  23  21  22  22  23  24  25  26  30  49 119 150 153 155 156 156 155 156 156 156 156 154 155 154 153 154 151 152
 174 175 174 174 173 174 175 175 175 175 174 174 176 175 174 174 172 174 168 111  60  55  50  48  47  45  45  46  49  54  57  59  60  59  53  45  39  36  34  35  35  35  37  35  34  32  27  25  24  24  24  25  26  28  30  34  35  36  35  32  30  29  27  24  22  22  21  22  22  24  24  25  29  77 147 153 154 155 156 156 155 155 156 155 155 154 155 154 153 153 153 152
 174 174 174 174 174 175 175 175 174 175 175 174 175 174 174 174 173 172 170 124  56  53  49  45  45  44  44  47  51  54  58  60  61  60  55  48  39  36  33  33  35  35  33  32  32  31  29  24  24  24  25  26  26  29  31  33  34  36  36  35  31  29  26  25  23  22  22  22  20  22  24  26  29  96 149 152 153 155 156 155 155 157 156 155 155 156 155 154 153 152 151 151
 175 173 173 175 174 174 175 174 174 174 174 174 175 174 173 174 174 172 171 151  59  52  50  45  45  43  44  49  51  54  57  60  62  63  56  46  38  36  34  36  33  32  30  32  31  34  35  28  26  25  26  26  25  26  29  31  31  33  32  31  30  29  28  25  24  22  22  21  22  23  24  23  32 114 149 153 153 153 155 155 155 155 155 155 156 155 155 154 154 153 151 150
 174 174 174 174 174 175 175 174 174 174 174 175 174 175 175 173 172 172 169 156  62  54  49  45  45  44  46  49  52  55  57  59  58  57  52  43  37  36  35  34  31  30  30  31  33  36  38  36  32  30  29  25  26  26  26  27  28  30  28  29  29  29  26  26  24  23  21  18  20  20  23  24  38 132 149 152 153 153 154 154 154 154 154 155 155 154 155 155 154 153 151 150
 174 174 174 174 174 174 174 174 175 174 174 174 174 174 173 174 172 171 169 164  82  51  46  44  44  45  47  50  52  54  54  52  50  50  46  40  37  41  41  38  34  29  31  32  35  38  41  40  36  36  33  29  27  26  26  26  27  26  25  26  27  26  25  26  24  24  22  19  20  21  22  26  42 127 148 150 153 153 153 153 154 154 154 155 156 154 154 153 153 152 151 150
 174 173 175 174 174 174 174 175 175 175 174 174 174 174 173 172 171 170 170 167 112  56  47  43  44  46  50  51  51  50  50  47  46  47  44  43  45  45  46  46  43  38  37  38  42  45  43  35  33  32  31  32  30  28  28  26  26  24  23  24  23  23  24  25  25  24  22  20  21  22  22  26  72 143 149 152 153 154 154 154 154 153 155 154 153 154 155 154 152 151 150 149
 174 174 174 174 175 174 176 177 176 176 174 175 174 174 174 172 171 170 168 167 139  52  45  43  45  49  51  49  46  46  44  42  42  42  45  48  51  48  46  45  47  51  52  51  44  36  31  29  27  28  26  26  28  29  29  26  25  23  19  20  20  22  24  24  25  23  23  20  18  20  25  29  85 145 150 150 151 152 152 153 154 153 153 154 153 154 154 153 152 151 149 149
 175 176 174 177 177 176 177 176 177 178 176 176 176 174 174 172 171 170 170 167 157  56  44  44  44  48  52  44  41  39  36  38  39  42  45  45  42  36  35  34  34  37  40  37  32  28  26  25  25  25  24  22  22  22  24  25  24  21  18  17  18  17  21  24  26  24  22  18  19  22  25  30 119 146 151 151 151 153 150 152 153 153 154 154 154 153 154 153 152 150 149 149
 176 176 175 175 178 178 177 178 178 177 178 177 176 174 174 174 172 169 169 166 163  90  46  42  43  49  50  40  37  34  31  34  38  45  44  36  31  30  31  29  28  30  30  29  26  22  21  22  20  20  18  18  17  16  17  19  20  17  16  16  17  17  20  24  26  24  22  18  19  22  26  47 140 149 150 150 152 151 152 152 152 153 153 153 153 154 154 152 151 150 150 148
 177 176 176 177 179 179 180 178 177 177 177 177 175 174 174 173 170 169 169 169 164 127  48  42  40  45  47  34  32  30  30  31  36  38  30  26  27  24  23  22  21  23  23  23  23  18  17  18  17  15  14  14  13  12  13  12  14  12  13  13  15  17  18  24  25  23  20  19  21  24  27  85 144 150 149 150 149 150 151 151 152 154 154 153 153 153 152 151 151 151 149 149
 177 176 177 178 178 179 177 179 177 177 178 176 175 176 174 173 171 170 169 168 165 155  60  42  40  44  48  34  28  27  26  24  28  27  22  19  19  18  17  17  19  19  20  19  19  17  15  14  13  13  12  11  10  11  10  10  10  10  11  13  15  15  17  23  24  22  18  20  24  26  29 113 147 150 150 149 149 149 150 149 150 152 151 151 152 153 153 151 150 150 150 149
 176 176 176 178 178 178 178 178 177 177 177 178 175 172 171 170 170 169 168 165 163 159  95  46  38  42  47  37  29  27  22  17  17  17  17  16  16  16  17  19  21  20  19  19  18  17  16  17  16  18  18  17  14  14  13  12  14  14  15  15  15  16  17  23  24  22  20  20  23  27  58 137 147 149 150 148 148 148 150 149 149 151 151 150 151 150 151 150 150 149 149 147
 176 176 176 176 177 176 177 177 175 176 175 175 175 173 171 170 170 169 168 166 164 159 124  49  40  40  45  39  28  24  19  15  14  14  18  22  25  26  34  38  38  38  31  33  34  33  33  33  34  30  29  29  27  26  22  19  18  17  16  16  15  16  18  22  23  22  21  22  24  23  83 141 146 147 149 149 149 149 150 150 151 151 151 151 153 150 150 150 150 149 149 147
 175 174 174 175 175 176 176 176 174 175 175 174 176 174 171 169 169 166 166 162 163 161 148  73  42  38  43  40  29  25  20  20  26  27  32  42  45  46  54  58  57  59  53  54  57  51  49  52  48  43  36  35  32  31  27  24  19  16  16  15  15  17  17  21  23  23  21  21  22  30 123 142 146 146 148 148 149 148 148 150 150 150 150 151 151 150 150 149 148 149 149 148
 173 173 172 172 174 174 173 174 173 172 172 171 172 172 170 170 169 166 164 163 162 159 154 120  43  36  39  41  30  25  24  25  30  37  43  52  54  59  65  68  63  58  54  49  57  58  57  51  48  43  36  33  29  27  22  19  16  16  15  16  16  17  17  19  23  23  22  21  23  37 125 141 143 146 146 146 146 147 146 148 150 150 150 150 149 149 150 149 148 148 148 147
 173 172 172 172 172 173 173 172 171 172 171 171 171 170 167 169 168 167 165 162 159 158 154 147  60  39  37  41  33  26  26  28  30  36  44  47  52  56  61  64  58  54  48  45  49  47  48  50  45  38  31  29  24  20  16  13  13  15  15  15  15  15  17  19  21  21  21  23  24  44 127 139 143 143 143 146 145 145 146 147 146 148 148 148 149 149 150 149 149 149 148 147
 172 171 170 171 172 172 171 171 171 170 170 170 171 170 168 166 167 166 163 160 159 157 155 150 103  39  36  38  35  29  27  29  29  31  36  38  44  46  48  50  49  47  42  37  38  43  45  43  36  30  25  20  16  15  12  11  12  13  14  13  15  15  15  18  20  19  19  19  23  53 129 139 140 141 143 144 143 144 146 144 145 146 146 145 146 148 148 149 149 146 146 144
 171 170 170 171 172 170 169 169 169 168 168 168 168 167 166 166 165 165 162 159 158 155 155 150 129  41  36  34  34  28  27  28  29  27  27  28  31  32  33  35  34  34  32  28  28  31  33  30  25  22  16  12  10  10  10  10  11  12  12  13  12  13  15  17  19  18  18  19  24  57 127 136 140 142 140 142 142 143 143 144 145 144 145 146 147 148 149 147 146 147 146 145
 170 168 168 169 169 169 170 169 167 166 166 167 165 167 164 162 162 161 161 156 155 154 152 149 132  53  36  32  34  30  26  26  27  25  24  20  18  19  19  17  18  18  17  15  16  18  17  15  13  10   9   9   8   9   9  10  11  12  12  12  12  12  14  15  18  18  18  18  25  59 127 133 137 139 140 140 141 141 141 143 143 144 144 144 145 146 146 146 146 146 144 144
 168 167 167 167 167 169 167 167 166 165 165 164 164 162 162 161 159 158 156 155 153 152 150 148 128  58  34  31  32  31  25  23  24  24  23  18  14  12  11  10  10  10  10  10  10  10   9   9   8   8   9   9   9  10  10  11  11  11  11  11  11  12  12  14  17  18  18  18  26  65 126 133 134 136 138 139 140 140 141 141 141 142 143 143 145 144 146 146 146 144 144 143
 166 164 166 165 165 165 165 165 164 164 165 163 162 161 160 158 157 156 155 153 152 152 149 147 121  59  34  27  28  29  26  22  21  20  20  18  16  13  12  12  11  11  11  11  10   9  10  11  10   9  10  10   9  10  10  10  11  12  10  11  11  12  13  12  14  16  16  18  26  67 125 131 132 135 136 138 138 137 140 139 140 141 140 140 144 142 143 144 144 144 142 143
 164 164 163 164 164 164 163 162 163 162 162 160 161 158 157 156 155 153 153 150 152 150 148 145 118  58  38  26  25  28  26  24  20  19  18  18  16  16  12  12  11  12  12  12  11  11  12  11  11  10  10  10  10  11  11  10  11  12  11  12  11  12  12  12  14  14  14  19  26  69 123 128 131 133 134 135 134 136 136 137 137 140 140 140 141 140 142 142 143 144 143 143
 161 162 163 163 162 163 163 160 161 160 159 159 159 156 155 154 152 151 151 149 149 148 148 145 115  58  42  28  21  24  25  24  21  19  18  18  15  17  14  14  13  15  14  16  15  14  13  13  13  11  11  12  12  12  12  13  14  14  13  13  11  12  13  12  12  13  14  18  26  68 122 128 129 130 134 135 133 134 135 137 137 136 137 140 139 139 141 141 141 143 142 142
 161 160 160 160 161 159 159 158 157 156 156 155 156 153 153 152 150 150 149 149 149 146 145 143 104  56  43  32  22  18  22  24  22  19  19  18  18  17  17  16  17  18  18  18  18  17  16  16  13  13  12  13  14  15  16  15  15  15  14  13  12  12  12  12  12  12  16  21  26  69 122 127 128 128 132 133 133 133 134 133 135 135 137 137 138 138 138 140 140 141 141 140
 158 158 156 157 157 157 156 155 155 154 154 151 153 152 150 149 150 149 147 147 146 145 144 141 102  54  42  33  25  18  16  20  22  20  21  20  21  20  20  21  20  20  19  19  18  18  16  16  12  12  13  14  15  17  15  14  15  15  13  12  12  12  10  10  11  13  16  20  27  69 119 122 126 128 129 131 130 131 133 134 134 133 134 134 135 137 137 139 138 139 141 139
 156 155 155 155 154 154 155 153 151 150 153 152 150 150 150 148 147 147 147 144 145 144 142 139  94  53  42  35  28  20  17  17  18  20  21  23  23  23  23  23  22  20  19  18  18  16  16  16  13  13  12  15  14  15  14  13  14  14  14  13  12  13   9  10  11  13  15  19  26  66 117 121 123 126 128 129 128 129 130 131 131 130 132 132 134 136 137 138 137 138 139 138
 154 155 153 153 152 152 152 152 151 150 150 151 149 149 148 147 145 146 146 143 144 143 140 138  86  51  40  34  29  22  18  15  17  19  21  23  23  23  22  23  21  18  18  16  17  16  14  13  13  12  13  13  12  12  12  13  14  15  15  13  11  11  10  11  12  15  17  21  27  69 116 119 122 124 126 125 127 127 128 128 129 130 131 132 133 133 134 135 135 136 138 136
 153 152 152 152 152 152 151 150 148 148 149 149 146 146 147 145 144 142 143 141 141 139 139 133  71  50  39  33  30  25  20  16  15  18  21  21  22  20  19  20  20  17  15  14  15  13  15  12  12  11  11  12  11  10   9   9  12  12  13  12  10  10  10  10  13  15  18  22  26  72 115 118 120 122 123 123 126 126 125 126 127 128 130 130 131 131 132 133 134 136 135 137
 151 149 150 151 151 150 150 150 148 148 147 145 145 145 144 144 141 142 140 137 136 131 114  90  61  47  40  35  30  27  22  19  15  14  17  18  18  17  17  17  16  14  12  12  13  13  13  11   9  10  10   9   8   9   9  10  10  10   9  11  10   9   9  11  13  16  18  22  27  69 112 116 116 119 119 120 120 122 124 123 124 127 127 126 129 129 130 131 133 133 134 134
 150 147 149 150 149 146 148 146 146 146 146 144 144 142 142 142 140 137 131 101  59  37  35  59  55  46  40  35  33  28  25  21  18  15  14  15  14  14  14  13  13  12  11  11  10  10  11   9   9   9   9   9   9   8   8   8   9  10  10   9   9   9  10  11  13  17  18  22  25  48  63  92 108 114 117 118 120 120 122 123 125 125 125 126 127 128 129 131 130 132 132 133
 149 147 147 147 146 146 147 145 145 144 144 143 142 141 140 138 137  89  37  21  21  30  49  62  50  44  39  36  32  28  26  22  18  17  13  13  12  12  11  11  11  11  10   9   8   8   9   9   9   9   9   9   8   8   9   9   9   8   8   8   8   9  10  12  15  17  19  23  25  32  21  16  22  49  66  75 110 118 119 122 122 122 123 125 127 127 127 130 130 130 130 130
 146 146 147 147 146 145 146 143 144 144 142 142 140 138 133  97  50  25  18  19  28  40  63  58  49  45  40  36  32  28  27  26  21  18  16  14  12  11  10  11  10   9   9   7   7   6   7   8   8   6   6   7   7   7   7   7   8   8   9   9   9  10  11  15  16  17  20  22  24  32  33  23  15  14  16  19  26  67 114 120 118 121 120 122 124 127 126 128 130 129 129 132
 145 146 146 146 147 146 146 146 144 145 143 139 132  92  45  28  22  15  20  29  33  62  59  54  48  43  39  35  31  29  28  26  26  22  18  18  15  12  10  10   8   8   8   6   7   6   6   5   5   4   5   5   6   6   6   5   5   8   9  10  10  12  14  14  16  17  20  22  24  29  31  33  26  14  12  12  14  19  47 107 116 120 120 122 124 124 126 125 128 128 128 131
 145 145 146 145 144 144 146 143 144 142 138 102  36  29  24  20  15  18  31  25  57  58  55  51  46  43  39  36  32  30  29  27  26  24  22  18  18  17  12  11   8   8   6   7   7   6   5   5   6   5   5   6   7   5   5   5   8   8   9  10  10  11  13  15  16  18  19  21  23  27  30  32  34  28  16  11  11  12  16  29  99 117 118 120 122 123 123 124 125 128 128 129
 143 143 145 144 145 144 144 143 140 131  76  31  26  22  20  16  14  26  28  42  58  55  52  49  46  43  41  36  32  31  30  28  26  25  24  20  19  18  16  15  12  11   8   8   6   6   7   6   5   5   6   6   7   7   8   8   9   9  10  10  11  13  14  14  16  17  19  22  23  27  27  29  33  33  32  19  11  11  12  18  22  76 115 117 119 121 123 124 124 125 126 128
 141 142 144 143 142 141 141 141 134  57  29  24  21  18  18  14  17  26  26  54  57  53  51  49  46  43  41  36  33  31  29  30  28  26  25  22  19  19  18  17  16  15  13  12  11   9   9   9   8   9   9   9   8   8   8   9   9  11  11  11  11  13  15  16  17  17  18  21  23  25  27  29  30  32  34  32  21  12  11  13  16  18  48 108 117 118 121 122 124 124 125 126
 141 142 142 143 142 140 139 130  44  29  22  19  18  17  17  14  18  25  28  54  54  51  50  46  44  43  40  38  34  33  29  29  29  27  25  23  21  19  18  17  16  16  14  15  14  12  12  12  10  10  10   9   9   9   8   9   8   9  11  12  13  15  15  17  17  17  19  20  22  25  26  28  30  31  33  34  31  22  11  10  12  14  16  27  83 117 120 121 123 124 124 124
 137 141 140 141 139 137  98  40  27  23  19  18  17  16  16  15  17  24  30  49  54  52  49  47  45  43  41  39  36  32  30  29  28  27  26  24  23  19  19  19  18  17  15  15  14  14  13  12  11  11  11  10   9  10   9   9  10  11  12  14  15  15  16  17  16  17  17  19  23  25  26  29  29  30  32  31  31  27  20  10  11  12  13  16  17  66 115 120 123 123 124 124
