P2
# Generated by OpenCV 3.4.0
92 112
255
 207 209 206 207 206 201 196 190 184 178 174 174 172 172 170 171 170 170 170 170 171 171 171 171 171 171 172 170 170 170 171 170 169 168 170 170 170 170 170 169 170 170 168 169 168 168 168 168 169 168 170 169 168 168 169 168 168 168 169 168 168 168 168 168 168 169 169 164 167 168 167 164 165 165 164 164 165 165 164 164 162 164 163 162 162 162 162 162 161 162 159 158
 196 195 193 195 193 192 189 185 182 177 175 172 172 171 171 170 171 170 171 170 170 171 172 170 170 170 170 170 171 170 171 170 169 169 169 169 169 168 169 170 168 170 169 167 168 167 168 169 169 169 170 169 169 169 169 168 169 169 169 168 168 168 168 169 169 168 168 168 167 167 168 166 166 165 166 164 164 165 164 165 164 164 162 163 162 162 162 161 161 160 160 159
 186 188 187 186 186 185 183 182 177 177 173 172 172 171 172 170 171 170 171 172 170 171 172 171 170 171 170 171 171 170 170 170 168 169 169 169 168 170 170 169 168 170 170 169 169 168 169 168 168 167 167 169 168 169 169 168 168 169 169 169 169 168 168 170 168 169 169 169 168 169 168 168 165 165 166 165 164 165 164 165 163 163 163 163 164 163 163 162 161 161 160 160
 181 180 180 180 180 179 179 178 175 174 173 172 172 172 172 171 170 171 171 170 170 171 171 170 170 170 170 171 171 169 170 170 170 170 168 168 169 170 170 170 170 169 169 168 169 168 168 168 168 166 169 169 169 168 168 170 169 169 170 169 168 168 168 169 168 168 168 168 167 167 168 167 166 166 165 165 166 164 163 163 164 165 164 163 164 164 164 162 162 161 160 159
 177 177 178 176 176 177 176 176 175 175 174 173 170 172 172 171 171 169 170 170 169 171 171 171 170 169 171 171 171 169 170 170 169 169 168 169 170 169 168 169 168 169 168 168 168 168 168 169 168 167 168 168 168 166 168 170 169 169 170 169 168 168 168 169 169 168 169 168 166 166 167 167 166 166 164 166 165 164 162 163 166 164 164 164 164 162 163 163 161 161 160 160
 175 175 175 176 176 177 175 174 174 173 172 171 171 172 172 171 171 170 170 171 172 171 170 171 170 170 169 171 171 170 170 171 169 168 169 169 169 169 169 170 168 168 168 168 167 166 168 168 168 166 168 169 168 169 169 169 168 168 168 169 168 168 168 168 168 169 168 167 165 167 166 166 166 166 165 166 166 166 163 164 165 165 165 164 164 162 162 161 160 160 159 160
 176 175 176 176 175 175 175 175 173 174 172 172 171 170 172 171 171 170 171 171 169 170 171 171 170 170 170 170 170 169 170 171 170 170 169 169 169 169 170 167 167 167 168 167 167 165 166 167 168 168 166 167 167 168 168 168 168 168 169 167 168 168 168 168 167 168 167 168 167 166 167 166 166 165 164 165 165 165 164 164 165 164 164 164 163 162 162 161 161 161 160 161
 175 176 176 175 176 174 175 174 174 172 173 173 171 171 171 171 171 171 171 171 172 170 171 170 171 171 170 170 170 171 170 171 170 170 170 169 169 168 168 162 165 166 166 166 164 164 160 161 165 166 163 164 166 167 167 167 169 168 169 167 168 166 168 167 168 168 167 167 167 166 166 165 165 164 166 164 164 164 163 163 164 164 163 164 163 163 163 161 162 162 161 160
 174 174 176 175 175 174 173 174 174 173 173 173 171 172 171 170 171 170 171 172 172 172 172 170 171 171 171 170 170 170 171 171 170 169 168 168 168 167 166 161 152 156 153 149 153 153 148 147 142 143 144 152 162 163 162 166 166 165 165 164 165 165 164 167 167 168 167 167 166 163 164 165 166 166 165 165 164 164 164 164 165 164 164 164 164 161 163 163 162 161 160 161
 174 173 175 176 175 174 174 172 174 174 173 173 172 172 172 171 171 172 171 172 172 172 172 172 171 169 169 171 170 170 171 170 169 168 167 165 158 149 116  86  81  99  76  69  66  61  67  60  52  68  79 106 137 151 148 152 162 166 166 167 166 168 167 167 168 168 167 167 165 167 164 165 165 167 165 165 165 164 163 163 164 165 163 162 163 164 163 162 162 161 161 161
 173 174 175 174 174 174 173 173 173 174 174 173 171 171 172 171 171 171 171 171 172 173 172 170 172 170 170 169 168 170 169 166 165 163 149 104  59  49  53  42  42  46  42  43  42  40  40  37  37  38  39  39  52  58  62  71 130 157 165 169 168 168 167 169 169 167 168 166 167 168 166 166 166 166 163 166 164 164 164 164 163 164 163 162 164 164 163 163 163 161 161 159
 174 173 173 172 173 174 174 172 174 174 174 173 172 172 172 172 172 172 173 172 171 174 172 172 172 170 170 171 170 169 166 155 139  96  55  42  38  39  34  32  31  32  32  32  30  31  32  31  30  30  31  32  33  34  36  38  41  87 142 158 166 167 168 168 168 167 166 166 167 167 166 165 166 166 163 164 166 164 165 165 164 163 163 164 163 163 163 162 162 162 161 159
 173 173 173 172 171 172 173 171 173 174 172 174 173 172 173 172 172 172 173 174 175 174 173 172 172 171 170 170 167 162 115  78  54  41  39  34  32  29  27  27  28  26  26  26  25  26  26  27  25  26  25  28  28  29  30  30  33  37  67 123 157 166 166 168 168 168 166 168 169 168 166 165 168 166 165 167 166 165 166 166 165 164 164 165 163 163 163 161 163 163 161 163
 172 173 172 172 172 172 173 174 174 173 173 174 173 173 173 173 172 172 174 174 175 174 173 173 172 170 170 156 125  75  45  42  36  32  31  29  29  27  24  26  28  27  25  24  24  24  25  25  23  24  23  25  25  26  28  28  28  30  38  59 128 162 165 167 167 168 168 167 168 168 167 167 166 166 164 166 165 167 165 165 164 165 164 162 164 165 164 164 164 163 163 163
 172 172 172 172 172 172 173 173 173 174 174 173 173 172 173 173 172 174 174 174 173 174 173 172 174 172 167 105  54  43  36  32  32  28  26  29  29  27  24  25  25  24  24  23  24  24  25  22  23  23  21  23  25  26  24  24  25  28  29  35  75 140 162 164 168 168 168 169 167 167 168 168 168 167 166 165 166 167 167 166 165 164 164 165 165 164 162 164 165 164 164 163
 172 172 172 172 172 170 172 174 174 173 174 174 172 172 174 172 173 174 174 174 174 175 175 174 173 170 150  66  43  35  30  27  26  27  29  26  24  25  23  24  22  23  24  20  23  22  22  21  18  18  20  24  24  24  24  23  25  27  28  30  34  44  97 147 164 167 168 167 166 168 167 167 167 167 166 167 167 167 166 168 166 166 165 164 163 163 165 165 164 164 164 163
 173 171 172 172 171 170 172 172 173 173 173 172 174 173 174 172 175 174 175 176 176 175 175 174 168 132  70  40  35  29  26  27  26  27  26  22  21  22  22  20  19  18  19  20  20  19  20  18  17  18  21  21  22  21  20  19  20  23  25  25  27  33  45  90 158 166 166 168 167 169 168 169 168 167 167 166 167 168 166 167 167 167 166 165 164 165 165 165 165 164 165 164
 172 173 171 172 172 172 174 173 172 173 172 173 173 173 173 175 175 175 176 177 176 177 175 173 144  62  44  37  34  32  27  26  28  24  23  19  18  19  20  20  17  17  17  18  17  18  18  17  18  18  18  18  18  19  19  17  19  22  24  23  25  30  32  47 138 163 168 168 168 169 168 168 168 168 167 168 166 167 166 167 168 166 166 166 167 164 166 167 166 165 166 165
 174 173 172 173 174 174 173 174 174 174 175 174 174 174 175 175 174 177 175 177 178 180 177 169  93  44  35  33  31  30  25  25  26  24  22  19  18  18  17  17  17  17  18  18  17  17  17  18  17  18  17  17  16  17  18  18  19  22  21  20  21  24  29  34  76 147 164 168 167 169 167 168 169 167 167 167 168 167 168 167 167 166 166 166 166 166 167 166 166 166 166 165
 172 172 172 172 173 173 173 173 174 174 175 175 174 175 174 175 175 177 178 181 183 184 185 131  51  36  30  28  27  25  24  24  23  20  18  19  18  18  18  18  19  21  22  21  21  21  21  20  19  18  17  17  17  18  17  17  17  17  17  17  18  20  23  27  32  98 155 164 167 168 168 167 168 167 167 166 169 167 167 166 168 167 168 168 166 167 167 166 165 164 166 165
 172 172 172 173 174 174 174 174 175 174 176 175 174 173 174 174 176 178 183 186 189 189 170  63  41  31  30  26  25  24  23  21  19  17  18  19  19  21  24  25  27  31  33  33  30  29  30  29  28  26  20  18  18  17  17  16  17  16  17  17  17  18  19  22  30  39  89 154 166 167 167 167 169 168 168 168 168 169 169 166 166 168 168 168 166 167 167 168 168 167 166 165
 174 173 174 173 174 175 173 173 173 173 174 173 174 175 175 174 176 178 181 185 186 179  95  46  34  28  27  25  25  23  20  19  19  20  21  23  24  29  32  38  38  44  48  45  41  42  43  41  45  36  28  27  24  22  21  20  17  16  16  16  17  17  17  19  24  29  40 108 154 167 169 169 169 169 169 168 169 169 169 167 168 169 167 168 169 168 168 168 168 168 166 166
 175 174 174 174 174 172 174 174 174 174 173 174 175 174 174 174 174 177 177 179 178 150  56  40  30  26  26  23  21  20  20  22  22  25  28  32  35  40  44  51  52  54  59  52  52  51  54  50  51  48  43  39  34  30  31  28  26  22  20  20  18  17  16  18  19  23  30  50 118 155 167 168 169 169 170 169 169 168 168 169 169 169 168 167 169 169 169 169 169 168 167 166
 174 174 174 173 174 174 175 174 175 175 175 175 175 174 175 174 174 176 176 174 164 107  44  36  29  26  25  22  23  22  23  26  29  36  44  48  51  52  58  63  65  63  65  62  63  59  58  58  54  55  51  48  46  42  43  42  37  33  31  29  27  23  19  18  18  20  26  33  66 151 161 164 170 170 169 168 169 169 169 169 169 169 170 169 169 169 169 169 167 168 167 166
 173 174 175 175 177 174 175 174 175 176 175 175 176 175 175 174 175 175 174 172 157  73  40  33  28  26  25  23  25  26  30  35  41  54  64  67  70  68  70  70  68  69  71  71  69  64  61  60  57  55  51  50  50  50  49  47  44  40  36  36  34  32  27  21  17  18  20  26  41 106 155 165 168 169 169 169 169 169 169 168 168 169 168 169 169 168 169 168 168 169 167 166
 175 176 176 176 177 176 174 176 178 177 178 177 176 175 175 174 175 172 172 167 129  55  38  32  29  25  24  26  32  37  43  51  60  67  73  78  76  76  75  75  73  75  73  72  70  67  64  61  56  55  51  50  48  50  49  48  44  43  39  37  38  37  36  30  22  18  18  24  30  49 140 164 168 169 168 169 169 169 169 168 168 169 169 169 168 169 169 169 168 169 167 166
 177 177 177 177 175 175 177 176 178 178 177 176 176 175 175 175 174 173 171 154  85  47  35  29  25  24  27  37  47  57  63  67  72  75  79  81  79  77  76  80  76  77  74  72  69  66  64  58  55  54  53  49  50  49  48  44  43  42  39  38  39  39  40  37  31  22  18  19  24  34 100 159 167 169 168 170 170 170 171 169 169 170 169 169 168 169 169 170 169 168 166 167
 178 177 177 178 177 178 179 178 178 178 178 177 176 176 176 174 175 175 170 122  50  41  31  27  27  29  38  50  59  66  69  73  76  78  79  78  78  77  77  77  75  76  74  70  67  63  61  56  55  53  51  48  48  45  44  42  42  39  37  38  38  40  39  40  38  31  23  20  23  30  68 152 167 170 170 169 170 170 169 169 169 169 170 170 169 169 169 169 169 168 167 167
 177 177 177 178 178 179 179 179 179 178 178 177 176 176 176 175 175 174 166  84  45  35  29  28  34  41  52  58  62  66  69  72  74  73  74  75  75  73  74  73  72  73  71  68  63  62  58  54  51  51  50  48  45  43  40  39  38  38  35  36  37  39  39  41  43  39  33  25  23  25  36  99 162 167 170 170 169 169 169 168 169 169 170 170 169 170 169 167 168 168 168 168
 179 178 179 180 180 180 180 180 180 179 178 177 177 176 176 176 176 172 152  55  40  32  30  32  42  52  58  58  58  62  69  71  71  72  72  70  70  71  71  69  68  69  69  63  64  59  58  54  52  51  48  48  45  41  41  38  35  35  34  32  34  36  36  39  42  44  42  38  29  25  29  54 144 166 169 170 169 169 169 169 168 168 169 169 169 170 169 168 169 168 166 167
 182 181 182 182 183 184 183 184 184 183 179 178 178 177 176 175 174 163  84  46  34  29  31  39  51  58  59  58  58  59  63  63  64  64  68  69  69  68  68  67  68  67  67  65  65  63  62  57  54  51  50  50  45  42  40  36  35  34  33  33  34  33  36  39  41  44  44  45  39  28  27  32 109 163 168 169 169 169 170 169 169 169 169 170 169 169 169 168 169 168 168 168
 188 190 188 188 186 188 187 187 186 187 185 182 181 179 177 174 172 129  51  39  32  29  37  51  57  58  58  56  56  58  58  60  63  62  67  67  69  68  69  69  68  69  69  65  66  64  60  57  54  55  52  51  48  43  40  37  35  34  34  31  31  33  35  38  38  42  44  47  45  36  28  31  84 162 169 169 169 169 169 169 168 169 170 170 169 169 169 168 168 168 168 168
 198 197 195 194 202 201 199 199 197 194 194 190 188 184 180 176 169  95  48  36  32  35  50  59  61  59  56  54  53  56  56  58  61  64  67  68  69  70  71  70  69  69  66  67  67  66  64  60  59  57  55  54  53  43  41  39  36  36  33  34  35  34  35  37  38  39  44  45  46  40  28  29  52 149 168 168 169 169 169 170 169 169 169 169 169 169 168 168 169 168 167 168
 201 204 205 208 210 210 211 208 205 202 202 200 194 187 182 178 167  71  43  33  34  48  62  64  62  58  58  55  54  55  57  59  62  64  67  69  71  72  70  68  67  68  69  69  67  65  63  62  61  61  55  54  49  47  46  42  40  37  34  33  34  34  34  36  37  39  42  44  45  43  29  27  44 136 165 169 169 169 169 170 171 170 170 169 169 169 170 168 169 169 168 169
 204 204 207 208 209 210 210 209 208 207 202 200 195 189 183 177 166  61  40  37  43  63  69  66  62  58  57  55  56  54  57  61  66  68  71  74  78  78  78  73  73  72  68  69  70  66  64  63  62  61  56  53  50  49  47  44  42  41  35  35  37  35  35  36  38  41  41  43  43  42  33  26  40 126 162 168 169 168 170 169 170 170 170 168 169 169 169 169 169 169 168 167
 198 200 203 205 203 202 205 205 206 203 198 195 193 187 182 177 158  62  41  37  51  67  71  68  61  58  58  55  56  56  62  64  68  72  76  81  83  82  80  78  75  70  69  69  66  64  62  60  61  56  54  52  50  49  48  45  40  42  40  39  39  38  37  38  37  40  41  43  44  42  34  26  37 140 164 169 169 169 170 170 169 170 169 169 169 169 169 169 169 168 168 169
 189 188 192 195 192 192 196 193 193 192 192 189 185 183 179 176 150  53  38  38  49  64  67  67  65  61  60  59  61  65  68  72  75  75  77  80  82  81  79  79  74  71  70  68  63  59  56  55  54  52  50  48  47  48  43  43  41  42  41  41  40  41  39  39  39  39  40  42  44  45  36  26  34 132 167 170 170 169 169 170 170 169 169 170 169 169 169 169 168 168 168 168
 184 185 186 186 186 186 185 186 186 186 185 183 183 180 177 175 146  50  37  37  50  61  67  67  65  66  66  64  66  67  72  74  76  78  76  76  77  77  75  73  69  69  66  64  59  56  53  53  54  49  47  45  43  44  42  41  41  41  35  38  40  42  41  43  42  40  42  43  44  45  41  27  30 120 164 169 167 169 168 169 169 168 169 169 169 169 169 169 168 168 168 168
 181 183 183 181 183 182 183 183 182 182 179 180 180 178 177 174 139  50  39  39  50  61  66  67  66  66  66  66  68  70  71  75  75  74  71  71  70  70  68  66  64  62  59  57  53  51  51  50  49  48  44  43  40  38  36  36  38  35  31  29  30  33  36  36  35  34  36  38  41  43  43  27  28 118 163 168 168 169 168 166 168 169 168 168 169 170 168 168 168 167 168 168
 179 179 180 179 180 180 180 179 180 180 179 179 179 178 176 175 128  53  39  37  48  61  67  67  66  66  66  68  66  67  68  68  70  68  65  63  64  63  59  57  57  53  52  51  49  48  47  46  47  45  43  39  34  32  28  27  26  26  21  20  20  23  25  26  25  25  25  27  31  38  42  27  31  98 164 168 169 169 170 169 169 169 170 170 169 169 169 169 168 167 167 169
 178 177 179 180 179 179 179 179 178 178 178 179 179 178 175 174 148  51  39  35  46  63  67  65  67  66  68  66  63  60  56  58  58  55  52  53  52  53  53  53  51  51  49  48  45  46  45  45  43  41  39  35  30  27  24  20  20  20  18  17  16  18  18  18  18  19  21  22  24  30  38  31  29  88 160 168 170 170 169 169 169 170 170 169 169 169 169 169 169 168 167 169
 177 177 179 178 178 178 178 179 179 178 177 177 178 178 177 174 148  45  39  34  46  64  66  66  66  64  56  51  44  38  36  37  38  39  40  43  41  42  45  45  47  47  46  45  43  44  42  41  39  38  35  32  27  24  22  18  17  17  17  16  16  16  16  18  19  18  20  23  24  27  30  30  29  87 162 169 168 168 168 168 168 170 169 169 169 169 169 168 168 168 168 167
 177 178 179 178 178 178 178 178 177 178 177 178 178 176 176 175 152  52  37  35  48  66  64  65  56  47  40  41  38  35  33  30  31  33  31  32  39  35  37  38  38  42  42  42  40  42  39  38  37  36  30  27  24  21  19  17  16  16  16  16  16  17  18  20  23  24  25  26  28  28  27  29  29  81 160 168 169 169 170 168 169 170 168 169 169 169 169 167 168 168 169 167
 177 176 177 177 178 178 178 177 177 177 177 178 177 178 177 175 164  68  38  34  47  64  62  48  38  33  30  31  31  28  27  24  23  22  23  22  21  25  30  32  34  36  38  38  37  37  36  35  34  31  30  26  23  19  18  18  17  16  17  17  18  19  23  30  32  34  34  32  32  30  30  32  28  80 162 169 169 168 169 169 169 169 169 169 169 168 168 168 168 168 167 167
 177 176 177 176 176 177 177 177 177 176 176 177 177 177 177 173 163  71  38  35  48  59  47  35  33  32  33  32  32  28  28  26  21  21  19  20  23  22  26  29  31  32  35  34  34  35  34  32  31  30  28  24  22  20  18  17  18  18  17  21  26  33  36  35  35  36  36  36  34  32  31  33  32  86 160 168 167 167 169 170 169 169 170 170 169 169 168 168 168 168 167 166
 177 177 176 176 177 176 177 177 176 176 177 177 177 176 176 174 166  66  37  32  49  50  37  36  39  42  46  43  41  36  32  28  25  22  21  19  20  22  24  26  27  30  32  34  33  33  32  31  30  27  25  23  19  18  18  18  18  20  24  30  31  30  26  26  25  25  26  28  31  33  32  36  34  76 162 168 168 168 169 168 169 169 169 169 168 168 168 168 168 167 165 164
 176 177 177 177 177 176 177 176 176 176 176 177 177 177 176 175 168  81  37  35  50  42  37  42  47  55  62  65  62  55  46  40  32  26  24  23  22  23  23  24  25  30  33  36  36  34  33  31  30  28  25  23  20  18  18  18  20  25  28  27  24  28  34  36  35  31  28  26  25  30  33  38  36  85 162 168 168 169 169 170 168 169 168 169 169 168 167 167 167 167 164 166
 176 175 176 175 177 176 177 176 176 176 176 176 176 176 175 176 172  91  35  34  44  43  45  51  56  64  71  73  70  60  51  46  42  33  29  26  25  24  24  24  26  31  35  37  38  36  34  34  33  30  26  24  20  18  18  20  24  25  21  25  31  37  41  41  38  32  32  35  32  25  33  39  39  76 162 166 168 169 169 168 168 168 167 168 169 168 166 167 167 166 165 164
 175 175 174 176 176 177 176 176 176 176 176 176 176 175 176 175 173  84  37  33  44  48  51  55  58  59  53  45  38  35  32  30  30  31  29  28  27  26  25  26  28  31  34  39  42  41  40  38  35  30  27  24  21  19  19  23  23  20  24  29  30  26  19  18  16  17  18  23  30  32  32  38  41  64 162 168 168 168 168 168 169 169 168 168 168 167 166 167 165 166 164 164
 175 175 175 174 176 176 176 176 176 176 177 176 175 176 176 176 172 114  37  34  50  51  53  56  49  38  34  43  50  49  46  38  30  24  22  24  26  26  25  25  27  31  38  44  46  48  46  42  37  30  27  24  20  18  20  22  19  24  28  22  15  16  16  14  15  21  21  17  18  28  31  34  43  88 160 168 169 169 169 169 167 167 168 167 166 166 164 164 166 166 165 164
 175 175 175 174 174 176 177 176 175 176 177 176 175 176 177 175 173 134  36  35  55  51  54  49  32  39  50  63  59  48  38  31  27  25  23  20  22  25  25  25  27  31  38  47  52  56  56  51  41  34  29  24  21  19  19  19  22  23  18  24  33  22  15  14  14  22  31  26  17  17  23  32  44  84 161 167 168 169 167 168 167 167 166 168 167 167 166 165 166 168 166 165
 175 174 175 175 175 177 177 176 175 177 177 177 177 177 175 174 174 145  39  40  63  51  52  38  40  49  40  29  23  21  19  17  15  15  18  23  21  22  25  26  30  34  42  47  58  63  64  59  47  38  31  25  21  19  21  21  20  18  25  41  20  17  17  14  15  23  35  33  20  20  26  30  45  74 159 166 167 169 168 166 166 166 166 166 167 166 167 164 165 165 165 164
 175 175 176 176 176 176 176 177 176 177 176 177 176 175 176 174 173 155  50  44  67  53  49  35  50  30  21  25  33  36  22  19  15  14  19  18  20  24  27  32  38  40  42  48  59  64  66  65  55  43  33  28  24  22  24  21  15  19  27  46  25  13  12  14  13  24  29  26  18  23  25  30  41  61 157 165 166 166 166 166 167 167 166 166 166 166 166 165 165 165 165 164
 175 176 176 175 177 176 176 176 177 177 177 176 176 175 176 174 173 165  61  47  69  55  45  38  29  24  35  50  50  33  21  21  15  15  23  25  21  19  28  39  39  40  45  50  55  63  65  66  58  43  36  32  27  24  22  20  25  26  29  30  26  21  17  16  16  20  20  20  25  31  30  30  38  52 105 155 164 165 166 166 167 166 166 166 166 166 165 164 164 165 165 162
 175 175 175 175 176 177 177 176 176 177 176 176 177 176 175 176 175 168  87  51  70  54  40  33  22  28  56  59  53  22  18  20  16  13  23  28  26  24  29  40  39  40  48  51  58  69  70  67  61  45  38  32  31  28  25  22  23  25  25  23  21  19  19  18  18  19  22  23  25  33  34  31  36  40  35  86 160 164 165 166 167 166 166 166 164 165 166 164 164 164 163 163
 175 174 177 176 177 177 176 175 176 177 175 177 177 176 175 175 175 170  94  53  67  55  41  31  22  28  48  53  52  30  16  16  17  18  23  24  27  31  32  35  37  44  49  52  65  82  82  79  67  50  40  36  34  30  28  26  24  24  24  24  22  19  18  19  18  18  19  22  24  31  36  36  36  38  25  31 141 162 165 165 165 166 167 165 165 165 164 164 164 163 164 162
 175 175 176 175 177 176 176 176 178 176 175 177 176 175 176 177 175 173 132  54  65  54  45  42  39  30  28  29  32  31  28  26  24  23  22  26  28  31  34  37  41  46  49  57  74  91  91  79  67  53  43  37  36  32  31  29  28  27  24  22  20  19  19  18  18  18  19  22  25  27  31  37  38  38  26  27 103 160 164 165 163 166 165 165 165 165 164 164 164 163 162 162
 178 175 176 177 177 177 178 178 177 177 178 177 176 177 177 176 175 172 139  56  63  56  49  50  51  42  37  33  30  28  25  23  21  21  24  26  31  37  38  43  47  48  50  65  73  88  98  84  71  55  47  41  38  35  34  30  30  29  28  25  24  22  20  19  18  17  18  19  23  27  32  37  38  38  30  26  91 160 164 165 165 166 164 166 164 165 164 164 164 164 161 162
 176 177 176 178 178 177 177 178 178 178 178 177 176 178 178 177 165  96  71  51  62  57  55  60  54  42  35  29  26  25  25  24  24  24  24  28  37  40  44  44  48  48  54  66  80  98 106  89  80  66  49  47  40  35  34  32  29  30  33  31  30  28  26  26  25  25  26  27  30  33  38  40  37  37  31  27  89 160 163 163 162 164 164 164 164 164 164 162 164 162 161 161
 175 176 177 176 176 177 176 176 179 178 178 178 177 176 177 175  99  48  42  44  61  62  63  64  57  45  37  31  30  29  26  24  26  28  32  40  43  45  46  48  48  53  67  80  97 100  92  87  86  79  63  53  47  41  38  36  30  31  33  34  36  36  35  35  33  34  37  39  41  42  44  41  40  37  36  28  88 158 162 163 163 164 163 162 164 163 165 163 164 160 160 160
 175 175 177 177 177 178 177 177 179 178 177 178 177 177 179 171  64  33  26  40  59  64  67  60  52  41  33  29  29  29  32  33  34  38  44  48  48  47  49  48  53  63  79  92  94  84  82  83  73  66  60  58  52  48  46  48  43  36  33  37  39  41  41  40  42  44  47  47  48  47  45  45  43  40  38  31  92 158 162 162 161 163 164 164 163 164 163 160 163 160 159 161
 175 176 177 175 175 177 178 178 179 179 178 177 177 178 177 165  51  30  26  36  62  63  68  72  72  64  53  45  42  41  42  43  48  53  53  53  53  49  49  54  68  77  80  80  77  73  74  68  61  55  49  48  44  44  48  50  51  47  38  33  35  39  42  43  46  44  47  49  50  49  47  47  45  43  42  36 101 159 162 163 161 162 163 162 163 162 163 161 160 159 158 159
 175 177 176 177 175 176 176 178 176 178 177 177 178 177 176 168  43  28  28  40  63  64  69  71  73  74  69  63  55  52  54  57  59  58  58  54  52  50  58  72  79  76  69  68  67  64  56  53  49  44  41  37  33  32  33  36  36  40  40  36  31  36  38  42  46  46  44  46  48  47  46  47  44  44  42  37 122 158 162 163 163 162 162 161 161 162 162 159 159 159 159 160
 176 176 176 177 176 177 176 176 175 176 178 178 176 175 175 176  53  29  36  48  62  66  68  72  77  76  75  71  67  62  63  63  62  59  55  52  51  57  72  72  66  60  52  49  53  50  48  46  42  37  34  31  27  27  26  24  24  26  28  32  30  31  33  39  41  42  41  44  43  44  43  43  41  41  41  47 148 158 161 162 159 160 161 159 161 160 159 158 159 158 158 158
 176 176 176 176 176 176 178 176 176 176 177 176 175 176 175 173  74  34  49  54  65  68  74  76  79  78  76  75  72  69  67  64  59  55  51  49  49  60  60  52  43  39  37  34  37  40  40  39  37  33  29  26  24  20  14  11  11  14  19  23  26  29  30  35  38  40  38  38  36  38  38  38  37  39  40  48 150 158 161 162 161 160 161 160 160 159 159 158 160 156 157 157
 175 176 177 175 175 175 178 177 176 176 176 177 175 176 175 172  98  38  53  58  67  71  72  74  74  76  78  75  74  72  69  62  57  51  47  45  50  49  37  26  20  16  21  26  29  33  33  33  30  29  26  22  17  13   9   9   9  11  13  18  24  28  31  30  33  36  32  31  33  35  34  34  33  34  38  43 144 158 160 161 160 159 160 160 159 159 158 158 158 156 155 156
 175 175 176 175 175 176 178 177 176 176 176 175 176 176 175 173 139  45  53  62  68  71  68  69  74  72  73  73  73  70  65  58  53  48  44  42  44  33  21  13  11  10  11  14  20  26  27  26  27  26  23  17  10   9   9   8   9  11  14  17  24  30  30  30  31  29  29  30  30  31  29  29  30  31  37  42 144 157 159 158 160 159 159 159 158 157 157 156 157 157 155 155
 175 176 175 175 176 176 176 178 178 176 176 175 175 176 176 174 172  72  59  62  67  68  67  66  69  68  70  69  65  61  57  53  48  45  44  45  39  24  16  12  10   9  10   9  10  16  22  23  22  20  17  12   9   8  10  10  12  14  16  17  26  30  31  29  28  27  27  27  27  27  27  27  27  30  37  40 147 156 158 159 158 158 157 158 158 157 156 156 157 156 154 154
 175 176 175 175 177 177 176 176 177 177 176 176 176 176 175 175 174 127  67  66  67  66  63  61  61  61  62  58  56  55  51  48  44  44  44  47  41  24  16  13  12  10  10  11  13  16  19  19  18  17  16  14  14  15  17  16  16  16  15  19  27  28  28  26  25  25  24  25  24  25  25  25  26  31  34  50 151 156 157 158 158 159 158 158 158 158 156 156 155 154 154 154
 176 176 176 176 176 176 177 179 179 177 177 176 176 175 176 176 174 169  75  66  62  60  57  52  52  52  53  52  49  47  45  46  43  44  47  51  44  27  19  17  17  21  24  25  25  22  20  18  16  16  14  16  17  18  17  16  15  15  18  23  26  26  25  24  23  23  23  23  23  23  24  24  28  33  31  72 154 157 158 158 158 158 157 158 157 158 156 155 155 155 154 154
 176 176 175 176 176 176 177 178 177 177 176 176 176 175 175 175 174 170 103  64  59  54  49  48  47  47  46  45  43  41  40  39  42  45  49  51  50  34  23  19  19  24  30  32  30  28  24  22  17  17  17  18  18  18  18  18  21  22  22  24  25  24  23  22  21  20  21  20  20  22  23  24  29  33  28  97 153 158 159 159 158 158 158 159 157 155 156 154 155 155 154 154
 176 175 176 176 176 176 176 176 177 175 176 176 176 176 176 174 175 173 128  63  55  50  45  43  42  40  39  40  39  38  38  37  39  44  47  51  52  46  38  33  31  34  35  33  32  31  30  28  25  26  24  24  22  20  19  21  22  24  23  24  25  26  25  23  19  18  18  17  18  19  21  24  31  30  27 112 154 158 158 158 158 159 158 156 157 156 155 155 154 154 155 154
 176 175 176 176 176 176 176 175 176 175 176 176 175 175 175 174 174 173 164  66  50  47  42  39  37  36  34  34  35  34  34  34  39  41  43  48  48  47  43  41  39  39  38  34  34  33  30  29  28  28  26  25  24  23  22  20  21  23  23  24  26  26  25  24  21  18  17  17  16  18  21  24  30  28  27 135 154 157 157 157 158 158 157 157 157 156 155 155 155 154 154 153
 176 175 175 175 176 176 176 176 176 176 175 176 175 175 176 175 176 175 172 100  48  44  40  38  35  33  32  31  32  32  32  34  37  40  43  48  48  47  45  40  35  37  38  37  37  34  31  29  29  27  25  25  24  24  24  23  24  24  24  25  25  25  26  24  20  18  18  18  16  17  20  24  28  26  36 147 154 156 156 156 156 158 157 157 156 157 155 155 154 154 153 154
 175 175 176 174 174 176 176 176 176 176 175 175 175 175 175 175 175 174 172 125  48  42  38  36  34  31  29  28  31  32  34  38  39  41  45  48  51  51  48  42  38  37  36  35  34  32  30  29  28  29  28  29  26  23  24  23  24  24  24  24  24  25  25  24  20  16  16  16  17  18  20  26  27  24  57 148 155 156 157 156 157 158 158 156 156 156 156 154 154 154 153 153
 176 174 175 175 175 176 176 175 176 175 176 176 175 174 175 174 174 173 172 150  47  40  38  34  34  31  30  30  31  34  36  38  40  40  42  44  47  48  46  39  37  36  34  36  34  31  28  27  30  30  30  31  30  26  24  24  24  24  24  24  25  25  25  24  18  14  13  15  17  18  21  26  26  25  83 149 155 156 156 156 156 156 158 156 155 155 155 154 153 152 150 152
 175 174 175 174 174 175 176 176 176 175 175 175 174 175 175 174 173 172 173 165  60  43  37  35  35  33  31  32  32  32  31  32  34  33  35  40  44  43  41  37  35  37  38  35  33  30  27  29  31  32  34  34  33  31  29  26  25  25  24  25  25  26  25  23  17  13  13  16  18  18  22  27  24  25 114 150 154 155 155 155 155 154 155 155 156 154 154 154 154 150 150 150
 174 174 174 174 174 174 174 175 175 174 174 175 175 174 174 174 173 172 171 166  85  44  36  36  36  33  32  35  32  29  28  27  25  28  31  36  39  41  39  39  37  41  40  37  37  34  30  32  35  34  37  35  34  32  28  26  25  26  25  25  25  24  24  20  13  13  14  16  17  19  24  25  24  31 123 150 153 154 155 154 154 154 154 155 155 154 154 153 153 151 150 149
 174 174 174 174 174 174 174 174 174 174 174 174 173 173 174 173 172 170 170 167 120  45  35  35  35  34  33  34  28  24  21  19  18  22  29  31  36  40  40  41  42  42  40  39  39  39  37  38  38  38  38  35  31  27  24  22  22  22  20  20  22  23  20  14  14  15  16  16  18  20  25  24  26  59 139 150 152 152 153 152 154 154 154 154 154 153 153 152 151 151 149 149
 174 173 173 173 174 175 174 174 175 176 173 174 174 172 171 172 171 169 170 168 143  43  35  34  32  33  32  32  26  20  17  16  14  21  27  32  37  38  37  39  37  38  36  36  36  36  36  38  38  36  32  27  23  22  21  18  18  18  17  17  18  17  16  17  16  15  16  17  18  22  23  23  27  81 145 149 151 153 154 152 153 152 155 154 153 152 152 151 152 150 149 147
 173 172 173 172 174 174 175 175 175 174 174 173 173 173 172 172 170 170 169 167 159  49  38  33  32  32  32  33  25  18  17  14  12  14  21  28  32  31  29  26  27  27  28  28  28  29  29  29  29  27  25  23  21  18  17  16  15  15  15  15  16  21  21  20  17  17  17  17  18  22  21  24  30 123 146 151 152 153 154 152 153 154 154 154 153 152 152 152 150 150 147 146
 173 173 174 175 175 175 176 176 175 174 175 175 174 171 171 172 170 167 168 166 160  84  40  34  31  32  31  32  27  20  18  15  13  15  17  18  22  22  21  21  21  23  24  24  25  24  23  23  23  22  19  17  16  16  14  12  12  14  17  21  24  24  24  21  18  17  17  17  18  22  23  27  53 141 148 151 150 150 151 152 152 153 151 152 153 152 151 150 149 147 147 146
 174 173 174 175 176 175 176 176 176 175 175 175 174 174 170 169 170 168 166 164 162 124  45  35  31  30  29  31  29  24  20  18  19  19  22  20  17  18  19  19  20  18  18  19  19  19  19  18  18  18  17  16  15  15  16  17  21  25  27  28  26  25  23  21  19  17  17  17  18  21  24  27  91 144 149 150 151 150 151 150 151 151 152 151 151 151 149 148 147 147 146 147
 174 176 176 174 176 177 176 176 177 176 176 175 174 172 171 170 168 166 166 163 160 152  57  37  32  30  30  29  29  23  21  22  23  26  30  30  26  29  34  37  39  38  36  33  34  33  29  27  25  25  28  28  31  32  34  34  35  33  30  27  24  24  22  22  20  17  17  17  19  22  25  28 125 146 148 148 149 149 150 150 151 151 150 150 151 150 149 148 148 147 147 145
 174 174 175 176 178 177 177 176 176 176 176 175 173 172 170 169 167 166 164 164 162 157  99  41  34  31  29  28  28  25  23  23  25  29  32  35  37  41  45  49  53  59  61  58  63  61  61  55  55  52  52  49  54  54  48  42  37  31  26  24  23  22  21  21  19  18  17  18  21  24  25  59 138 146 149 148 148 148 147 147 149 149 149 149 150 149 148 148 147 146 147 145
 175 174 173 175 176 177 176 175 175 174 175 175 172 170 169 169 167 166 164 162 161 157 138  45  34  31  28  28  28  26  23  23  25  29  34  37  38  43  45  48  55  67  74  73  71  68  66  62  56  55  58  64  61  55  45  36  30  23  22  22  20  19  18  19  17  17  17  18  20  23  21 104 142 145 146 145 146 146 145 147 148 149 148 148 149 147 148 149 146 146 146 145
 174 175 173 173 175 175 175 174 175 175 173 173 173 171 169 169 168 167 163 161 161 157 146  80  36  30  27  26  28  26  24  23  25  30  35  37  38  41  42  42  45  52  58  59  58  58  55  52  48  49  50  50  46  40  35  26  21  18  18  18  17  18  19  18  16  16  17  18  20  25  54 133 143 145 146 147 148 146 149 148 146 149 149 148 149 146 147 148 146 145 145 144
 174 174 172 172 174 175 173 173 173 173 172 172 174 171 168 168 167 167 164 161 159 157 152 136  47  34  28  26  27  27  25  24  25  29  33  36  36  36  37  36  34  35  37  38  39  40  40  40  35  36  36  32  30  25  21  17  15  16  16  17  17  18  18  17  16  17  17  20  19  26  93 138 143 144 145 146 146 146 148 148 148 148 148 148 148 147 148 147 147 147 145 144
 171 172 172 171 172 172 172 172 172 171 171 171 172 170 168 165 164 164 162 161 158 156 152 149  79  35  27  26  25  26  25  26  26  26  30  32  35  34  33  30  28  27  25  25  25  25  24  26  23  24  22  21  18  16  14  11  13  14  15  16  17  18  17  16  17  16  16  20  22  39 125 140 142 144 144 144 144 145 146 146 147 149 149 147 147 147 147 147 145 144 144 143
 169 170 172 172 171 172 171 172 170 171 170 171 171 169 165 166 166 163 160 158 158 155 154 148  97  40  28  25  24  26  26  25  26  26  28  31  34  33  29  26  22  20  20  19  18  17  17  16  16  15  14  14  13  11  11  10  11  13  14  17  18  18  16  16  15  16  18  20  20  72 127 137 141 141 142 143 144 145 144 144 145 146 146 146 146 146 147 148 146 145 145 144
 171 170 171 171 170 170 170 171 170 171 170 170 170 168 166 166 166 165 161 158 157 155 152 148  98  48  30  26  24  24  25  25  26  26  27  29  29  31  30  25  19  17  16  15  13  12  13  12  12  11  10  11   9   9   9  10  12  15  16  17  17  18  17  17  17  16  17  20  24 110 134 139 140 141 142 143 143 144 142 144 146 145 145 146 147 146 146 146 146 145 145 143
 171 170 170 169 170 169 169 169 169 166 168 168 167 167 165 164 163 162 160 156 154 154 150 148 103  50  32  27  24  23  24  24  25  26  27  27  28  31  31  28  23  18  16  14  12  13  11  11   9  10  11  11  11  10  11  12  14  16  15  16  17  17  16  17  16  15  16  21  28 119 132 138 140 141 141 143 143 142 142 145 145 143 144 145 145 145 145 144 145 145 142 142
 168 168 169 168 170 170 169 167 167 167 168 167 164 165 163 162 160 160 158 155 154 152 151 148 101  52  37  28  25  21  21  23  25  26  26  27  27  29  30  27  25  21  19  18  16  15  13  12  10  11  12  11  11  12  12  13  15  17  16  18  17  16  16  16  15  14  17  18  34 124 131 135 137 139 140 142 140 142 141 141 142 144 144 145 146 144 145 145 144 144 143 143
 169 168 167 168 168 168 166 164 165 165 165 164 163 162 160 160 158 158 156 153 153 151 150 146  95  53  41  25  22  22  22  22  24  25  26  26  27  29  27  26  25  24  21  19  17  16  17  15  14  14  12  12  12  12  12  14  16  15  16  18  18  17  16  15  15  15  16  19  39 122 131 133 135 137 137 138 139 141 140 140 141 142 143 143 144 143 143 144 144 144 142 142
 167 164 166 166 164 166 164 164 164 164 164 165 163 162 158 159 156 154 153 152 152 150 148 144  91  51  41  30  22  20  21  20  21  24  26  27  26  28  28  26  25  24  20  20  18  18  17  16  15  14  13  14  14  13  15  15  16  18  18  18  17  19  16  15  15  15  14  20  41 120 129 133 134 136 136 138 136 138 139 141 140 141 142 142 143 142 143 143 143 143 144 141
 165 164 164 164 164 164 163 162 163 162 162 162 161 158 157 155 154 154 151 152 149 149 148 144  86  52  39  29  22  19  18  18  20  22  25  27  27  28  29  28  25  24  22  21  20  20  18  18  16  16  16  16  17  17  15  16  16  18  17  17  17  15  16  15  12  12  15  22  41 119 128 130 131 134 135 135 135 136 137 138 138 140 140 140 141 142 143 143 142 142 142 141
 164 163 162 163 163 163 162 163 161 161 161 160 157 156 156 154 152 151 150 150 148 148 147 142  81  51  40  33  27  20  18  17  17  18  21  25  27  28  31  29  27  27  25  22  23  21  21  22  22  20  20  19  19  18  17  16  17  18  17  17  16  16  17  16  12  11  16  22  40 118 126 128 130 132 133 134 135 135 137 138 137 138 138 138 140 140 141 141 142 143 141 141
 162 162 162 160 160 161 159 158 158 156 157 156 155 153 153 152 150 150 148 148 148 146 144 141  73  51  40  34  27  22  18  17  15  17  19  23  24  26  30  30  28  26  26  24  24  24  23  23  23  22  20  19  18  17  16  17  18  17  17  17  17  19  17  15  14  13  17  24  40 117 125 126 128 131 132 133 133 133 134 135 135 135 136 138 140 140 141 140 142 141 141 140
 159 159 157 156 158 157 156 156 155 153 153 154 154 152 151 149 149 149 146 147 147 146 144 141  70  50  40  32  27  22  18  16  18  17  18  21  20  25  27  28  28  26  26  24  24  24  22  21  21  20  19  18  16  16  14  16  16  15  14  14  16  17  15  12  12  13  18  23  42 117 123 126 127 128 130 132 132 133 132 133 134 135 135 136 137 138 139 139 140 139 140 140
 156 157 155 155 155 155 155 154 152 152 152 152 151 151 150 149 148 148 147 146 145 146 143 135  64  49  41  34  30  23  18  14  15  14  15  18  22  25  24  27  25  24  24  24  24  24  22  21  21  20  18  18  16  15  13  14  14  13  12  12  13  12  14  12  13  15  18  24  39 117 122 124 126 127 129 129 130 130 132 132 132 132 132 134 135 137 138 138 139 139 139 139
 155 155 155 154 154 154 152 152 151 151 152 150 149 148 149 147 147 145 145 144 143 142 140 127  61  49  40  35  30  25  20  18  13  13  12  14  19  20  21  22  21  20  20  20  20  20  19  19  19  18  18  17  15  13  13  11  12  10  11  11  12  13  12  13  13  16  18  24  38 115 119 121 124 126 127 128 128 128 130 131 132 131 133 133 133 136 136 137 138 139 138 138
 154 153 154 153 152 152 152 151 151 149 150 148 148 148 146 145 144 144 144 142 141 140 139 116  58  48  39  33  31  27  22  18  16  13  13  12  15  18  18  18  18  18  17  14  17  15  16  17  17  16  15  14  13  11  11  10   9  10  10  10  10  10  10  11  14  15  19  24  40 113 119 120 121 123 125 126 126 126 127 128 130 128 131 132 132 134 135 134 136 136 137 138
 154 151 152 153 150 150 150 150 149 149 149 148 146 145 145 144 143 142 141 139 137 134 124  89  55  45  38  34  31  27  24  19  18  15  12  12  13  14  16  14  13  13  13  12  12  13  11  13  13  13  12  10  10  11   9  10   9  10   9   8   9   8   9  11  15  17  20  24  39 111 115 118 119 120 121 122 124 125 126 128 128 129 130 131 133 131 134 134 134 134 137 136
 152 150 150 149 149 149 149 148 148 147 147 146 146 145 145 143 141 139 133 103  76  42  40  62  53  44  40  35  32  28  25  23  20  17  12  11  10  13  13  12  12  12  12  11  11  11  10  10  10   9   9   9   9   9   9   8   9   9   9   8   9   9  10  13  15  17  20  24  34  63  81  99 117 118 118 120 122 124 125 127 127 127 128 130 130 131 132 133 133 134 135 135
 150 148 148 148 148 148 147 147 146 146 145 143 144 142 140 140 134  85  33  22  25  30  59  58  49  44  39  36  32  27  26  24  22  18  17  14  12  12  11  12  11  11  12  11  10  11  10   9   8   8   8   8   8   7   7   8   7   9   8   8   9   9  12  14  17  18  21  24  30  24  13  14  35  56  62  99 118 121 123 124 124 125 128 128 128 129 131 132 131 133 133 133
 148 148 149 150 147 146 146 146 146 145 143 141 142 139 134  94  41  21  18  23  29  52  64  55  47  43  38  36  33  30  28  27  25  22  19  18  15  14  11  12  11   9  11   9  10   9   8   8   8   8   7   6   7   7   6   7   8   8   8   8  10  11  12  14  16  18  22  23  28  34  26  15  12  15  17  17  48 108 121 122 121 126 125 126 127 128 128 132 130 132 132 134
 147 147 148 149 146 146 146 146 145 144 143 141 133  95  45  27  21  16  26  27  47  64  60  50  45  42  38  34  32  29  29  28  27  25  22  18  18  17  16  13  11  10   9   9   8   8   8   8   8   7   6   6   7   6   6   7   7   8   9  10  10  13  14  15  16  18  21  23  27  32  34  31  18  12  11  13  17  29  95 119 121 124 125 126 126 128 129 129 129 130 131 133
 146 146 149 148 147 147 146 146 144 144 139  86  41  29  24  19  15  25  30  38  62  59  55  49  46  43  40  37  34  31  29  28  27  25  24  23  19  18  18  16  15  13  11   9   8   8   7   7   7   7   6   8   7   5   6   7   9   9   9  12  12  13  15  17  18  18  21  24  27  30  32  32  32  20  13  12  12  16  22  80 117 120 123 123 126 126 128 128 129 130 132 133
 147 146 149 147 145 148 146 146 144 128  60  29  26  22  20  14  20  30  29  59  61  57  52  48  45  42  39  38  34  31  31  30  28  26  26  24  20  20  19  18  17  17  15  14  11  10   9   7   7   8   8   8   8   8   8   9  10   9  10  12  14  15  16  16  17  18  23  23  26  30  31  32  33  34  26  12  12  12  16  18  53 112 120 121 124 125 125 127 127 128 130 130
 145 147 146 147 146 144 144 142 120  40  28  24  20  20  18  13  26  28  42  63  59  54  50  46  42  43  40  38  36  34  31  30  30  29  27  24  22  20  20  18  17  17  17  15  16  14  13  12  11  11  11  11  10   9   8   9  10  11  11  11  14  15  16  16  17  18  21  23  25  28  29  32  33  34  34  28  15  11  12  14  17  29  90 120 123 124 125 126 128 128 128 129
 144 147 146 145 145 143 143 108  37  28  22  19  18  18  16  16  27  26  51  60  55  52  47  46  44  41  39  37  35  33  32  30  30  30  28  25  24  21  19  18  18  18  17  16  17  16  15  12  12  12  12  12  10  10  10   9  10  11  11  13  15  16  16  16  17  17  19  22  25  26  27  30  30  32  35  34  27  15  10  12  13  16  18  52 117 121 124 124 127 127 127 127
 142 144 146 144 142 141  96  36  26  22  19  18  18  17  17  15  24  26  51  59  53  51  46  45  45  44  40  37  36  34  32  32  30  29  29  26  26  23  24  20  20  18  17  17  16  16  15  14  14  13  13  11  10  10  10  10  11  12  13  15  16  16  16  17  17  18  19  21  24  27  28  30  31  32  34  34  29  24  12  10  12  13  15  17  39 105 120 122 125 126 126 127
