P2
# Generated by OpenCV 3.4.0
92 112
255
 184 184 184 181 180 176 175 172 170 169 169 169 170 168 169 169 170 168 168 169 169 170 169 167 167 168 169 168 167 168 167 166 168 167 167 167 168 167 169 167 166 167 166 166 168 167 166 167 167 167 167 168 167 166 166 167 168 168 167 165 166 166 166 166 166 166 166 166 163 165 163 164 163 163 164 163 163 163 161 162 162 161 162 161 162 160 159 160 159 160 160 159
 177 177 178 177 177 176 174 172 170 171 171 170 170 169 168 169 170 169 169 169 169 169 169 169 168 169 168 168 169 168 168 168 168 168 167 167 167 169 167 166 165 167 168 167 167 167 165 164 166 168 166 166 167 165 167 168 168 167 168 167 167 167 167 167 167 167 166 166 166 164 166 165 164 163 164 164 163 164 162 162 163 163 162 161 161 161 159 161 159 160 159 158
 174 175 176 175 174 174 173 172 171 171 170 170 170 169 169 168 169 169 169 169 169 169 169 169 168 170 169 169 168 168 167 168 168 168 167 167 168 167 167 167 166 167 167 166 166 167 164 164 166 167 166 167 167 166 166 167 169 168 169 168 167 167 166 166 166 164 165 166 167 166 166 164 164 163 163 163 163 163 163 163 163 162 161 160 162 160 160 161 160 160 158 159
 173 175 173 174 173 174 172 171 171 170 170 171 170 169 168 170 169 169 168 169 170 169 169 170 169 169 169 169 168 168 167 168 168 169 167 168 167 168 167 166 166 167 165 167 168 167 163 163 167 165 165 167 167 165 166 167 169 168 167 167 166 168 166 166 166 166 165 165 165 168 166 164 164 164 164 164 163 163 164 163 164 162 161 162 161 163 161 160 160 160 160 160
 175 174 175 174 174 172 170 171 171 171 169 170 170 169 171 169 169 170 169 169 170 170 169 169 169 169 170 169 169 168 168 168 168 168 166 166 167 167 165 163 164 164 166 166 167 166 162 162 164 164 165 165 166 168 168 168 167 166 167 166 166 167 167 166 166 167 167 166 165 166 167 166 165 164 164 165 165 164 164 162 163 162 163 161 162 162 161 160 162 160 160 161
 174 173 173 173 173 172 171 171 171 171 170 170 170 170 171 170 170 169 170 170 170 170 170 170 168 168 169 168 170 168 169 169 168 168 167 167 165 165 164 160 157 160 158 156 159 160 157 154 156 161 157 160 166 165 167 166 165 165 165 166 167 168 168 166 167 167 167 166 164 166 165 164 162 163 165 163 164 164 164 164 162 162 161 164 163 163 162 160 161 160 160 162
 172 174 172 173 173 173 173 173 173 172 170 171 170 171 171 171 171 171 171 170 170 171 170 170 169 169 169 169 169 168 169 168 168 166 166 164 160 137 127  93  81  84 100  94 104 111 113 118 108 114 122 136 157 161 162 163 165 165 165 166 167 167 166 166 166 165 164 166 165 165 164 164 163 163 162 163 163 164 164 163 162 162 161 160 162 162 162 160 161 161 160 160
 172 173 173 173 172 172 172 173 172 171 171 170 171 170 171 171 171 170 171 170 171 170 170 168 170 170 169 169 169 169 168 164 161 157 133 105  69  45  43  45  41  42  43  42  45  48  45  49  44  47  53  59 113 134 146 146 162 164 167 166 166 167 167 167 167 167 167 166 165 166 166 165 164 164 164 164 163 163 164 164 164 161 163 163 163 160 162 162 160 159 159 159
 173 173 172 174 172 172 173 174 172 171 170 170 171 170 171 171 171 170 171 172 170 169 172 170 169 169 168 169 168 165 164 146 106  76  45  43  39  37  36  33  30  29  31  30  34  34  32  32  36  33  36  38  45  51  53  67 115 159 165 166 166 166 165 167 167 169 168 166 166 166 167 165 163 164 165 164 165 164 164 164 165 163 163 163 164 162 163 163 162 159 158 159
 173 172 174 173 171 172 172 173 172 172 171 171 171 171 171 171 172 172 172 171 171 171 171 170 170 168 167 163 151 129  90  51  43  40  34  32  33  28  30  27  26  27  27  26  26  27  25  26  29  29  29  30  31  33  34  40  48  97 150 161 164 168 168 167 167 166 167 167 168 166 166 165 164 166 164 164 163 165 163 164 164 164 163 163 163 161 162 160 160 161 160 159
 171 171 172 173 171 172 171 172 172 171 170 171 172 172 171 171 173 172 172 172 173 171 171 170 169 169 165 135  82  47  43  37  33  31  28  27  27  28  29  26  23  24  27  26  24  24  23  24  24  25  25  26  26  28  29  32  36  44  80 131 158 165 167 166 167 167 166 168 165 166 164 165 164 166 166 165 165 166 165 163 164 163 164 163 162 162 162 162 163 164 162 161
 171 171 172 172 171 172 171 173 173 172 171 171 171 170 170 171 171 173 173 173 172 171 171 170 170 168 151  71  45  37  34  30  27  24  26  24  25  26  27  24  24  24  24  24  23  23  23  23  24  23  23  26  24  25  27  28  30  34  41  80 137 162 167 167 168 168 168 168 168 166 167 166 165 166 166 167 166 166 164 165 164 163 164 164 163 163 164 163 164 163 163 163
 172 171 172 171 171 172 172 172 172 171 171 171 172 172 172 171 171 174 174 174 173 172 172 170 162 143  72  44  32  30  28  25  24  24  24  26  26  24  21  24  22  22  21  21  22  21  22  23  22  24  22  22  21  24  26  26  26  27  33  46 100 159 166 166 169 168 168 168 168 167 166 166 166 166 166 166 167 166 166 165 164 164 166 164 164 163 164 165 165 163 163 163
 172 172 173 173 171 172 171 172 172 171 172 172 172 171 172 173 173 174 174 174 174 172 170 163 132  58  44  34  31  31  25  27  24  24  25  24  23  20  19  20  20  19  18  18  17  19  19  19  19  18  17  18  21  24  24  24  26  25  29  33  42 106 148 161 168 167 167 167 167 166 166 166 166 165 166 167 168 166 165 167 167 163 165 165 165 164 164 164 165 164 164 163
 172 171 171 172 171 174 171 172 171 172 172 172 172 172 172 173 174 174 173 174 174 172 165 123  63  42  35  30  29  28  26  26  23  23  25  20  20  18  16  17  18  17  18  17  16  18  17  17  17  17  17  18  19  22  22  21  22  22  22  27  31  39  72 139 163 168 167 167 169 168 166 167 167 166 167 168 166 166 166 167 166 165 165 166 167 165 165 164 163 164 163 165
 171 172 172 171 170 172 171 171 172 173 172 171 172 173 173 174 174 174 175 176 175 171 130  61  44  35  29  27  26  25  24  24  23  23  23  20  20  17  17  17  18  17  16  16  16  17  17  16  17  16  16  16  17  17  18  17  20  20  20  23  26  31  40 104 158 165 168 168 169 166 166 166 167 167 167 166 166 166 166 167 167 166 167 167 166 166 166 166 166 166 166 164
 172 173 173 172 173 173 172 172 172 173 171 172 172 173 174 174 175 175 177 176 175 138  54  43  36  30  26  26  25  22  21  21  22  20  19  16  17  18  17  18  18  18  18  19  22  20  20  19  20  17  17  16  17  17  17  17  18  19  19  23  24  25  30  54 140 164 168 169 168 168 167 166 167 167 168 167 167 166 167 166 166 167 167 166 166 167 166 165 166 165 165 164
 172 173 173 173 173 173 172 173 173 174 173 174 174 173 174 176 177 179 181 180 147  65  46  37  31  26  24  25  24  21  23  20  19  18  18  18  18  19  19  21  22  25  27  30  32  32  29  28  26  25  22  20  17  17  16  17  16  17  17  18  18  23  26  36 105 160 164 168 168 169 168 167 167 168 168 168 168 166 166 168 168 168 168 167 166 166 167 166 166 166 166 165
 171 172 172 172 171 173 173 174 172 173 173 176 175 174 175 177 181 184 185 174  73  45  39  34  29  24  23  23  21  20  19  18  18  18  19  21  22  24  26  28  33  38  41  44  50  48  41  40  38  36  35  31  24  20  19  18  18  17  17  16  17  19  20  27  63 139 160 167 168 169 168 168 168 168 167 169 168 165 167 169 168 169 168 166 166 166 166 167 168 166 167 166
 173 173 172 173 172 172 174 172 172 173 174 174 174 173 175 177 183 184 184 132  52  40  33  30  26  23  23  22  20  18  18  20  20  21  22  28  30  35  36  40  45  50  56  54  58  59  49  51  47  45  43  40  34  30  27  24  21  20  18  17  17  18  19  23  32  69 149 164 168 169 169 168 169 169 169 169 168 167 169 169 168 169 168 169 169 167 168 168 167 167 166 166
 172 173 172 172 173 174 174 172 174 175 174 174 174 174 174 175 176 177 151  69  44  35  30  31  26  24  22  23  22  21  23  23  26  27  31  40  48  51  51  54  56  61  62  61  64  63  56  57  52  50  49  46  44  41  36  33  31  30  26  24  22  19  18  20  27  38 111 156 164 169 169 168 169 168 169 168 168 169 169 169 168 169 168 169 169 168 169 168 166 166 167 165
 172 172 173 173 173 173 172 174 175 175 174 173 174 173 173 172 173 161  92  48  37  33  30  28  26  24  22  22  26  28  28  32  37  41  46  56  64  63  65  65  64  64  65  66  66  66  64  62  57  52  50  48  45  44  44  41  37  38  35  33  32  27  20  19  22  29  55 130 160 167 169 169 169 167 170 169 169 168 169 169 169 169 169 169 168 169 167 168 167 166 166 166
 173 174 175 173 172 173 174 175 175 174 175 174 173 173 172 172 171 117  51  44  34  32  28  25  24  23  21  25  33  39  48  52  53  57  61  68  70  72  70  68  68  67  67  66  68  68  66  65  58  52  50  47  45  44  44  44  44  43  40  38  37  36  30  21  19  26  50 124 161 168 170 169 168 168 169 169 169 168 169 168 167 169 169 168 168 168 168 168 166 167 166 166
 176 176 176 174 173 176 175 176 174 176 175 174 174 173 173 172 140  55  44  38  32  31  25  24  24  23  26  33  44  56  66  66  69  70  71  74  75  74  74  71  69  70  70  70  70  68  67  62  57  53  50  48  46  44  44  44  44  43  42  41  41  42  41  30  21  24  39  98 162 167 168 168 168 170 169 170 168 166 168 170 169 169 170 169 168 168 169 167 166 165 166 166
 175 174 174 174 175 175 175 174 175 174 175 174 173 172 172 165  89  44  39  32  30  26  25  25  27  30  36  45  55  63  66  69  71  73  75  75  75  74  71  69  70  70  67  68  69  67  64  62  56  52  50  47  47  44  42  42  42  42  40  40  41  43  44  42  26  23  34  78 152 166 168 169 168 169 170 170 169 166 168 169 169 169 169 169 169 168 168 166 167 165 166 167
 176 175 175 175 177 177 177 175 175 173 173 173 173 171 171 148  53  40  36  31  27  25  27  29  35  41  48  55  59  63  65  68  70  73  70  72  71  70  69  68  67  66  65  66  67  64  62  55  54  51  49  46  44  44  42  40  38  39  38  37  37  39  43  45  39  24  30  61 141 167 167 169 169 169 169 169 169 168 168 169 168 169 169 169 169 168 168 167 168 167 167 167
 176 176 177 176 176 177 176 175 175 174 175 175 172 172 166  96  45  39  35  29  27  28  30  34  44  49  54  55  58  59  61  65  67  68  66  66  67  65  66  66  66  64  62  63  64  63  58  57  53  50  48  44  43  44  43  40  38  38  37  35  36  37  42  45  46  34  27  55 142 167 168 168 169 169 169 170 168 168 168 169 169 169 169 169 169 166 166 167 168 167 166 165
 177 176 177 178 177 177 178 176 176 175 175 174 173 172 139  54  43  36  31  25  25  29  37  44  50  52  54  54  57  57  62  63  61  61  59  61  60  62  65  65  63  63  62  63  63  59  57  57  56  52  50  48  45  44  43  41  38  38  36  36  34  36  38  40  45  46  31  38  99 156 166 169 169 169 168 169 166 167 168 168 168 168 169 169 169 167 167 167 167 166 165 165
 179 178 179 178 178 179 178 177 177 176 176 174 170 166  88  47  40  33  29  27  28  36  46  50  53  54  53  53  54  54  57  60  60  58  58  59  60  63  65  65  65  67  66  64  65  62  59  59  58  54  49  49  49  46  44  42  40  37  35  34  35  35  37  38  42  47  44  33  42 136 164 168 169 168 168 168 168 168 168 168 168 169 168 168 167 168 167 167 167 166 166 166
 182 182 182 183 183 184 183 183 182 179 176 174 171 160  59  44  38  31  28  30  37  50  55  54  55  55  52  53  53  53  54  56  59  60  59  60  65  64  66  65  68  67  65  65  64  61  60  62  60  56  52  50  49  48  47  47  41  40  37  36  35  34  36  38  41  46  50  40  32 103 161 166 169 168 168 167 167 166 166 168 169 169 167 166 168 167 168 168 168 166 167 165
 191 193 193 191 190 191 190 189 186 185 182 177 173 130  52  40  34  30  30  36  49  61  62  60  59  58  55  53  53  54  56  58  59  61  65  64  65  68  69  69  70  68  65  64  61  64  64  63  60  55  53  52  50  49  48  44  41  42  40  37  37  35  35  37  39  44  49  50  39  76 156 168 169 168 169 168 169 168 168 168 169 169 168 168 167 166 168 168 167 166 167 166
 198 204 206 206 205 202 198 196 199 194 188 182 174  82  45  37  32  30  32  44  57  68  67  65  61  58  53  54  54  54  57  57  60  63  66  68  71  73  74  76  74  74  72  71  66  64  64  64  60  57  54  53  51  50  48  45  43  43  42  40  38  38  37  38  39  43  46  50  42  41 136 166 168 169 168 169 169 167 169 168 168 169 168 167 168 168 168 167 167 167 166 164
 206 208 208 207 207 206 204 203 202 198 192 184 148  52  42  37  33  31  34  44  55  64  68  65  60  58  56  56  57  56  60  64  66  69  71  73  76  77  79  81  77  75  74  71  66  66  64  61  56  55  53  50  51  47  47  45  43  44  42  41  39  39  40  39  40  44  45  48  49  42 114 161 166 168 167 167 166 168 169 169 169 169 168 168 168 168 167 166 167 167 166 166
 203 203 204 204 204 205 203 199 198 193 191 182 131  48  40  36  30  30  31  39  52  60  63  65  64  65  62  61  63  59  67  69  71  74  75  76  79  78  77  75  74  75  73  70  66  64  64  60  53  51  48  49  48  46  45  43  43  43  41  42  41  42  42  43  42  44  45  48  50  42 105 159 166 168 167 168 167 168 169 168 168 169 168 169 169 167 166 168 166 167 167 166
 198 195 192 196 197 194 195 192 191 188 185 177 111  49  41  33  30  30  33  39  50  56  63  66  67  65  65  66  66  66  68  73  76  75  77  76  75  75  72  71  71  70  68  64  62  60  57  54  50  49  47  47  46  43  42  41  42  41  40  41  41  41  41  42  42  44  45  47  50  49  95 159 168 168 169 168 169 167 168 168 167 169 168 169 168 167 168 167 166 167 167 165
 186 186 187 186 185 186 186 185 184 182 180 175 103  46  36  31  29  30  34  40  47  54  60  67  67  68  67  67  67  70  70  72  72  74  75  74  72  67  65  66  62  62  59  56  56  54  51  49  46  46  45  44  44  42  40  37  37  36  36  37  36  34  34  36  41  42  44  45  49  50  98 154 166 167 167 169 168 167 168 168 169 169 169 169 169 168 167 166 168 169 167 166
 181 181 181 180 180 180 180 179 178 177 176 171  86  42  35  30  29  30  31  37  46  54  60  66  67  68  68  68  69  71  70  70  71  69  65  65  61  59  56  56  55  54  52  52  50  48  46  44  42  43  43  42  42  39  36  34  31  29  28  30  29  25  25  26  30  32  34  35  42  49  81 152 164 165 166 167 166 167 168 167 168 168 169 167 168 168 168 168 167 167 167 164
 179 178 180 180 178 177 177 178 177 177 175 170  99  42  32  28  28  28  28  33  45  53  58  64  64  67  70  71  70  66  65  59  50  48  49  51  49  46  47  47  47  47  47  47  46  45  44  43  42  41  39  40  39  35  34  30  28  25  22  21  20  18  17  18  20  23  23  25  27  36  69 154 165 167 168 168 167 170 169 168 169 169 168 168 169 168 167 168 167 165 166 165
 177 177 178 177 177 176 176 176 175 176 175 169  93  40  31  28  27  27  26  35  48  53  57  59  66  68  68  62  55  49  43  37  34  34  34  31  32  32  37  38  37  38  39  40  42  43  42  40  38  38  36  36  34  33  30  27  25  23  19  17  17  16  16  16  17  18  18  20  22  27  43 130 161 167 169 168 169 170 169 169 169 169 169 168 169 168 167 168 166 166 167 165
 176 176 178 176 176 176 175 175 176 175 174 171  84  38  29  27  27  26  27  37  52  57  58  60  65  59  51  44  35  34  35  34  32  29  28  25  26  27  26  28  32  31  33  34  35  38  38  39  36  36  36  34  30  30  28  25  23  18  17  16  17  16  16  16  17  18  20  21  23  26  32  64 148 165 168 168 167 168 167 167 168 168 168 169 168 167 168 168 167 166 166 166
 177 176 177 177 176 176 176 176 176 175 175 170  78  37  30  27  26  28  29  39  53  58  56  60  54  40  35  30  28  26  27  26  24  24  22  19  18  19  20  20  20  24  28  30  30  33  35  36  33  33  32  32  30  29  27  24  20  18  17  16  16  16  16  17  18  21  24  25  26  29  32  40 120 164 169 168 168 169 168 168 168 168 169 168 168 167 167 167 167 167 165 165
 176 176 175 176 176 175 174 175 176 175 173 169 105  39  32  28  26  27  28  42  56  56  54  49  38  32  31  32  33  31  29  27  26  25  24  21  19  18  17  20  20  20  24  26  28  30  32  33  31  31  30  29  28  26  24  23  19  18  18  18  18  18  18  21  24  27  29  31  32  31  31  37 109 163 168 168 168 170 169 168 169 169 169 168 168 168 167 165 166 166 165 166
 176 177 177 177 176 176 175 175 175 176 174 170 115  40  29  27  24  27  34  50  57  58  50  39  33  36  40  42  43  42  36  34  31  27  25  23  20  20  18  18  19  21  23  24  25  30  30  30  30  30  29  29  26  25  22  19  18  18  18  18  19  21  24  28  32  34  34  38  38  36  33  40  93 163 168 168 168 169 169 169 169 168 169 168 168 168 167 167 167 166 166 166
 176 176 176 175 176 176 176 176 176 176 174 172 111  41  30  26  25  28  42  56  61  54  37  33  35  42  46  50  53  52  49  46  42  37  31  28  23  23  21  20  20  22  23  23  26  29  31  30  31  30  29  29  27  24  22  19  19  18  18  20  23  27  29  31  32  28  30  32  34  38  37  42 103 161 168 169 168 169 169 169 169 168 169 169 169 168 168 167 167 164 164 166
 176 176 176 176 174 175 175 175 175 174 174 171 126  42  29  25  25  27  41  59  63  45  38  39  43  49  52  57  64  68  66  62  52  46  37  33  27  24  24  24  23  24  24  24  26  31  32  35  35  33  32  31  29  26  24  20  18  19  20  24  27  28  26  27  32  36  34  33  34  34  40  42 132 161 168 170 170 169 169 168 168 169 168 168 168 169 168 166 165 166 166 165
 175 175 174 176 174 175 176 176 175 175 175 172 115  41  29  24  26  28  41  61  61  44  42  43  44  47  51  59  66  67  60  52  42  38  33  30  27  25  25  25  24  24  25  26  29  33  36  38  38  38  36  31  29  28  25  21  18  19  23  25  24  25  29  33  36  40  39  38  38  38  41  49 142 159 167 169 169 169 168 166 168 169 168 169 168 167 167 165 166 166 165 166
 174 175 175 175 174 174 175 175 176 175 175 173 137  38  31  26  26  28  45  63  59  50  42  43  44  46  50  52  44  43  43  46  45  42  34  27  23  21  23  24  24  24  24  26  30  36  41  44  45  44  42  36  33  28  25  21  18  21  24  22  23  29  32  34  35  34  32  29  31  40  45  66 157 165 168 169 170 168 168 168 166 168 169 169 166 166 165 166 166 165 165 165
 173 174 174 175 175 174 174 174 175 174 175 173 168  63  32  26  26  28  46  65  58  53  41  43  45  46  41  33  42  52  52  52  54  49  44  32  25  21  18  20  23  24  25  28  33  38  45  50  52  54  51  44  36  31  28  23  18  20  20  23  27  28  25  23  19  17  17  18  18  20  35  73 158 168 169 169 169 168 169 167 167 167 168 168 168 166 166 166 166 164 165 164
 173 175 175 175 175 175 175 174 175 174 173 173 167  67  34  26  26  30  48  64  59  52  40  43  45  40  34  46  52  61  67  56  44  34  27  21  19  18  18  18  21  24  26  33  38  44  50  57  61  64  63  49  41  35  30  22  18  20  22  24  22  22  25  26  17  15  15  15  18  21  23  58 140 163 169 169 169 169 169 167 168 168 166 166 166 166 166 166 166 165 166 164
 174 173 174 175 176 175 174 174 176 175 174 173 166  75  35  29  28  32  49  62  59  51  44  43  43  38  46  53  52  42  32  24  18  19  18  14  13  12  13  17  20  25  31  40  44  47  53  59  63  66  66  58  45  39  35  26  20  24  20  17  22  38  51  45  21  16  14  16  31  26  24  31 110 158 168 168 168 167 168 165 167 168 167 165 165 167 165 166 166 165 165 164
 174 175 174 175 175 175 176 175 176 175 174 173 168 103  38  31  30  35  51  61  59  52  45  43  44  47  49  35  25  21  22  26  27  21  18  14  13  12  14  14  17  26  38  44  44  48  54  57  60  64  66  62  48  41  37  31  24  22  18  18  21  30  41  43  25  15  14  18  34  31  34  48 147 162 167 168 167 167 165 165 168 167 167 168 165 166 165 165 163 165 164 164
 175 175 174 174 175 175 176 176 175 175 173 174 172 137  36  34  33  35  49  59  57  53  46  42  44  44  28  20  24  33  46  48  41  28  22  15  13  12  17  15  15  22  39  40  43  48  54  56  59  63  65  64  53  40  38  34  28  23  22  24  24  24  23  21  19  16  16  19  20  23  28  38 141 162 165 166 167 167 167 167 167 166 167 166 166 164 164 164 164 163 163 164
 175 175 175 175 174 175 176 174 175 175 174 174 172 165  52  36  37  35  51  56  56  52  44  40  35  26  19  28  45  48  53  56  49  30  15  13  12  13  18  21  26  29  37  38  44  51  54  56  62  73  74  68  59  46  38  35  32  28  24  24  23  21  19  19  18  18  18  19  20  28  39  41 135 163 166 167 168 166 164 168 167 167 167 166 166 165 164 166 164 164 164 164
 175 174 174 175 175 174 174 175 175 176 174 174 173 169  71  37  37  36  50  54  54  52  46  40  39  35  23  27  41  49  48  48  42  34  22  17  18  19  20  24  30  33  36  41  47  52  52  58  73  90  92  75  66  53  43  35  34  30  28  26  24  24  21  20  18  18  18  19  24  32  47  46 110 163 165 165 166 167 165 165 165 167 167 164 166 166 166 164 164 163 162 164
 174 175 175 175 176 175 175 174 175 175 174 175 175 170  99  38  38  35  50  53  53  51  47  43  44  43  34  27  26  28  28  27  26  24  22  20  17  18  25  32  37  37  42  46  50  51  52  66  79  92  96  87  70  60  48  41  35  33  30  29  27  26  24  24  22  22  21  22  26  34  46  50  90 160 164 165 166 166 167 167 166 166 166 165 166 165 164 162 163 164 161 163
 175 175 175 176 176 175 176 176 176 175 174 175 175 172 159  68  42  36  45  54  54  54  50  49  49  50  43  33  30  28  26  24  24  21  19  18  21  27  31  37  39  43  48  50  52  51  54  67  78  95 100  94  80  71  56  45  42  35  32  31  30  29  26  25  25  25  25  26  29  34  41  51  64 158 164 164 165 165 167 166 165 164 165 165 165 164 164 163 163 162 160 161
 176 176 176 175 177 176 177 177 176 177 175 175 166 119  92  63  47  36  45  55  54  55  55  55  57  54  45  37  31  27  25  23  21  22  25  26  31  34  37  43  46  50  50  52  51  52  59  76  92  98  98  88  87  79  64  52  48  45  37  33  33  34  30  29  28  27  27  28  30  34  41  48  54 143 162 164 164 165 165 164 164 164 164 166 165 164 164 163 162 162 158 158
 176 176 176 176 176 176 176 176 176 176 175 168  89  60  53  55  48  37  45  56  55  58  60  65  63  57  50  43  38  37  36  35  34  33  33  34  36  40  46  48  52  52  51  50  50  59  70  90  96  88  83  78  77  68  58  52  50  50  45  40  37  35  34  33  30  29  29  30  32  38  42  47  51 124 162 164 163 165 164 163 162 164 165 165 165 164 164 162 160 161 161 159
 176 175 177 177 176 176 176 176 177 175 174 130  54  31  28  38  45  40  47  56  56  59  64  67  67  64  60  52  48  46  44  41  41  41  39  39  42  48  51  52  54  55  51  49  58  70  81  83  79  77  72  69  64  56  49  45  45  43  44  45  46  43  37  35  36  34  31  32  34  38  40  45  50 102 160 164 164 165 163 164 164 164 163 163 161 163 162 162 160 160 160 159
 177 175 176 176 175 177 177 177 176 176 174  92  42  27  24  33  40  37  47  55  57  58  62  67  69  68  65  59  55  53  52  48  46  44  43  48  52  57  58  57  55  52  49  56  70  81  75  68  65  62  58  53  50  46  43  39  37  34  33  36  39  42  44  38  35  37  35  35  36  38  41  42  45  78 158 163 162 164 163 163 162 163 161 163 162 161 160 160 160 159 159 157
 176 175 176 175 176 177 176 175 176 175 173  68  33  26  28  40  40  36  48  54  58  58  60  66  70  72  73  71  65  59  56  50  50  49  52  55  59  62  60  56  53  49  54  71  74  70  60  51  48  48  47  44  45  41  35  32  31  27  26  27  28  30  35  39  36  39  36  37  38  39  40  39  43  67 157 161 163 163 163 163 162 163 161 162 162 161 161 160 158 159 158 158
 176 176 175 176 176 176 176 176 175 175 171  59  30  27  38  45  43  37  49  56  57  57  57  64  69  70  72  72  68  64  60  56  55  58  60  61  63  63  59  55  48  47  58  65  63  50  41  37  35  36  39  39  39  36  31  29  26  24  22  17  16  18  24  33  35  36  36  36  38  39  36  37  41  53 154 160 162 161 160 163 162 161 162 161 161 159 158 158 158 159 158 158
 176 175 175 176 176 175 175 175 176 175 173  67  31  32  50  50  38  29  48  57  55  55  57  59  62  62  64  66  62  65  62  60  59  59  64  65  62  59  54  50  44  48  53  49  38  25  18  21  25  28  32  33  33  30  28  25  24  20  13  10  10  12  17  27  32  36  36  33  36  36  36  37  40  52 149 160 160 162 160 161 162 159 161 161 159 159 158 157 156 157 155 156
 175 176 175 175 175 177 176 175 175 176 173  87  35  43  53  41  27  28  46  58  56  55  53  55  56  56  58  61  64  63  61  61  62  63  64  63  59  55  52  47  40  47  42  30  19  11  10  10  13  19  24  27  27  27  24  23  19  11   9  10  11  12  16  24  29  32  34  33  35  35  35  36  39  52 151 161 162 161 161 160 160 160 159 161 159 157 158 156 156 156 157 156
 175 175 174 174 176 178 176 176 177 176 171 104  39  50  46  33  27  36  45  56  57  54  53  52  52  53  54  57  60  60  62  62  63  65  66  61  57  51  48  41  38  42  32  22  13   9   9   9   9  11  15  22  23  22  20  18  12   8   9  11  13  14  17  25  28  30  32  31  32  34  34  36  37  54 152 160 162 159 159 158 160 159 158 159 157 156 157 156 156 156 155 156
 173 175 176 175 176 177 176 176 175 175 170 138  46  52  42  35  32  44  46  56  56  52  52  50  47  51  52  54  56  56  61  60  63  64  62  56  53  49  45  41  42  37  24  18  12   9   8   8   8  10  14  18  19  19  17  15  10  10  10  14  15  16  19  26  29  29  30  29  31  33  34  34  39  61 153 159 159 158 158 158 159 156 156 158 158 156 156 156 155 154 155 154
 175 174 176 176 175 176 177 175 176 176 174 169  61  58  48  40  39  42  41  54  53  52  50  47  47  48  48  51  54  54  56  58  61  58  56  56  50  46  44  42  44  34  24  18  15  12  11  10  12  17  19  19  18  16  15  15  15  16  16  16  14  16  22  28  28  29  30  29  29  31  32  34  40  70 152 157 158 158 159 158 157 156 156 156 156 155 155 154 154 154 154 154
 175 176 176 176 176 176 175 175 175 175 175 174 121  60  57  44  41  45  41  53  53  50  47  45  46  47  47  48  51  52  55  58  57  54  52  51  47  46  45  46  49  36  24  19  16  17  20  22  24  25  22  21  19  17  17  16  17  17  17  15  16  20  25  28  29  29  30  29  29  30  31  33  41  74 152 158 159 159 156 158 156 156 156 154 155 154 155 155 154 154 153 152
 175 175 175 175 175 176 175 175 175 175 174 172 165  66  67  53  44  56  41  53  53  49  46  46  45  46  46  47  50  50  51  52  50  51  47  46  46  44  47  50  51  41  26  19  17  18  21  26  29  28  28  31  28  26  23  20  18  18  18  20  23  24  27  30  29  29  30  29  28  29  28  32  41  82 153 157 157 158 157 157 157 155 156 155 155 154 154 154 154 153 153 153
 174 174 175 174 174 176 174 176 174 173 174 173 168 102  66  70  70  67  44  51  52  48  46  45  45  45  45  47  46  44  47  46  48  47  45  45  46  47  50  52  54  48  40  32  28  27  29  31  31  29  31  33  32  30  27  24  20  21  21  24  25  25  28  31  32  30  30  30  29  27  29  31  39  98 152 156 157 157 157 157 157 155 155 154 154 154 154 153 152 151 152 152
 174 173 175 174 175 175 176 175 174 173 173 172 171 139  62  55  72  68  48  49  50  47  45  44  44  43  44  43  44  42  44  43  44  44  44  45  46  49  54  55  55  54  50  47  43  38  37  35  34  34  34  33  32  31  28  25  24  23  23  21  25  26  28  31  33  33  32  31  30  30  29  31  40 112 153 158 156 156 155 155 157 156 155 154 154 155 154 153 152 150 151 149
 174 174 174 174 174 175 175 174 174 174 170 170 170 167  93  67  73  62  46  47  50  47  45  42  42  41  42  40  40  40  41  40  41  44  45  46  50  53  54  57  57  55  55  53  48  40  39  38  35  35  33  32  31  28  28  26  25  24  24  24  25  25  28  30  33  33  34  33  31  31  31  33  39 116 153 156 156 155 155 155 155 155 154 153 154 153 154 150 150 152 150 148
 173 174 174 174 174 175 175 174 174 174 174 174 171 169 156  80  74  61  51  48  45  46  41  40  40  40  40  38  38  39  38  39  40  42  46  46  51  53  55  58  58  56  54  52  47  40  37  36  34  33  32  30  27  26  28  29  28  26  24  24  24  26  27  29  30  31  34  34  33  32  32  34  38 138 154 155 157 155 155 156 155 155 154 155 153 153 151 150 151 150 148 147
 173 174 174 175 174 174 174 174 173 173 172 173 172 170 167 133  74  55  46  47  46  46  41  38  39  38  36  37  37  37  37  38  40  44  47  49  53  53  56  58  58  56  54  51  47  39  36  35  34  33  31  28  25  27  28  30  33  32  29  27  26  25  26  26  28  30  30  32  31  34  33  33  42 144 153 154 155 154 155 156 155 154 154 153 153 152 151 148 150 150 148 148
 174 173 173 173 174 174 174 174 174 173 173 174 172 171 168 163  80  46  37  41  48  44  40  38  38  38  36  35  35  35  36  37  40  43  48  51  54  54  54  55  54  52  51  47  43  39  34  39  36  34  31  27  26  28  31  32  37  38  34  31  29  28  27  27  28  27  28  29  31  35  34  31  52 147 152 154 154 153 154 154 154 154 154 153 152 153 150 149 148 148 149 148
 173 172 172 173 173 174 173 172 173 172 172 172 171 171 168 165 158 108  96  85  51  40  38  37  37  36  33  32  30  32  34  34  39  44  46  51  52  51  50  47  46  46  46  42  40  39  40  42  42  40  40  35  30  31  33  37  41  41  33  30  31  31  30  28  27  26  25  25  28  34  34  31  68 146 151 153 152 153 152 153 154 154 153 152 152 150 150 149 149 147 146 147
 173 172 172 173 173 173 173 173 173 172 171 172 170 170 168 169 167 162 158 129  50  44  37  36  34  34  34  31  29  32  33  35  39  44  47  48  47  46  43  42  40  42  41  43  42  46  48  48  47  45  46  46  43  44  43  45  40  30  27  26  27  27  30  30  28  26  24  23  25  34  33  34  95 146 150 152 152 152 153 153 154 153 153 151 151 150 150 147 149 147 146 147
 173 174 172 173 172 172 173 173 172 172 171 171 170 170 170 168 167 166 162 144  58  43  38  37  35  34  33  30  30  32  33  37  40  42  42  41  40  40  38  36  38  36  38  42  44  48  48  45  39  36  34  35  36  38  39  33  26  24  24  24  25  24  23  24  26  27  23  22  24  35  33  30 127 149 152 152 152 152 152 153 154 154 152 151 150 150 148 147 147 147 146 145
 172 171 173 172 173 172 174 174 172 172 172 172 170 170 169 167 168 166 162 158  80  48  38  37  33  30  31  31  32  32  33  35  39  39  38  38  35  33  31  32  32  35  40  42  44  42  37  33  31  30  30  27  27  28  28  25  22  20  20  20  21  21  20  21  23  26  23  21  23  33  33  40 140 150 151 152 152 153 153 152 152 153 150 150 150 148 149 148 146 146 145 146
 173 173 174 173 174 173 173 173 173 173 171 171 170 169 168 168 167 164 162 158  91  51  39  33  30  30  30  32  32  31  34  36  38  36  33  32  30  27  26  27  30  35  40  40  34  28  28  27  27  24  23  22  21  22  23  19  18  17  17  17  17  17  17  17  18  21  18  19  22  34  32  68 144 148 150 151 152 153 151 150 151 152 151 150 150 148 147 147 147 146 146 146
 173 175 176 174 176 175 175 174 175 175 172 172 171 170 169 166 165 162 160 158 119  51  42  33  32  28  29  29  30  29  32  36  37  33  28  27  27  25  24  23  26  31  32  28  23  22  21  21  20  19  18  18  17  18  19  17  16  15  15  14  13  13  13  13  14  14  15  18  22  32  30  97 146 149 149 149 150 152 151 151 152 150 149 148 149 149 147 147 146 146 145 144
 175 175 176 177 177 176 175 176 175 174 174 172 171 170 168 166 164 162 160 158 142  52  45  35  32  29  29  27  27  31  31  34  37  32  25  24  24  21  19  16  20  22  20  17  17  16  15  16  15  16  16  16  16  16  16  16  15  12  13  14  13  13  14  15  14  14  17  18  22  34  36 133 147 149 148 149 149 150 151 150 151 150 149 149 148 147 146 146 146 146 145 144
 175 174 176 176 177 175 175 176 175 174 172 170 172 170 167 166 164 162 160 159 150  63  45  38  33  31  30  27  27  28  31  33  36  32  26  23  23  18  13  11  12  14  14  13  14  14  15  18  20  23  21  20  18  16  18  19  19  19  19  19  22  24  24  22  20  21  18  19  26  34  60 141 147 149 149 148 148 149 148 147 148 149 148 148 148 149 148 146 146 146 145 143
 175 176 177 177 176 176 175 174 176 174 171 171 171 170 167 166 164 162 159 157 151  75  44  39  36  30  28  27  27  27  27  31  34  32  27  22  20  17  13  11  11  15  18  21  22  28  30  31  38  40  36  36  33  31  35  32  28  30  31  28  30  32  31  28  24  22  19  20  28  35  86 143 146 145 145 147 147 146 149 149 149 150 149 148 147 148 147 146 145 146 144 143
 176 177 176 175 175 176 176 174 174 173 172 171 170 169 165 165 167 162 158 156 150  83  39  38  35  31  29  28  27  27  28  30  32  30  26  21  20  18  18  19  23  25  30  36  41  48  48  48  51  55  51  47  42  38  48  43  41  41  40  37  35  35  32  29  24  19  20  24  31  36 122 145 147 147 147 148 149 147 148 148 150 149 148 149 148 147 146 146 146 145 143 143
 175 174 174 173 174 172 173 172 172 172 171 169 169 168 166 167 164 161 157 157 152  94  46  35  33  32  27  27  26  25  27  29  31  30  25  21  20  20  20  25  28  32  36  41  48  56  58  58  60  57  55  49  47  41  46  47  42  42  42  38  35  32  29  26  21  18  21  25  34  60 136 143 145 147 147 148 148 149 149 150 150 150 149 147 148 147 146 145 145 145 144 142
 174 173 172 173 174 173 173 172 171 172 172 170 169 168 166 164 163 161 158 155 151  95  50  34  35  32  27  26  25  25  25  28  30  28  25  22  21  24  26  27  26  28  33  38  41  49  56  60  62  58  55  51  46  42  41  43  42  44  43  38  31  27  25  21  18  18  23  26  34  87 140 143 144 146 144 145 148 148 148 149 148 148 150 149 149 148 147 146 145 143 142 142
 171 171 171 173 172 172 171 170 169 172 171 170 167 167 166 164 162 161 158 155 150  96  52  36  32  32  28  26  25  24  24  28  29  27  25  23  22  23  26  26  25  26  25  28  31  35  42  48  48  48  48  44  41  37  33  34  36  37  33  28  23  18  17  15  17  18  22  26  33 110 139 142 144 145 145 146 145 145 146 146 148 146 148 147 148 146 147 146 144 145 144 141
 170 171 171 172 171 169 171 171 169 170 170 168 166 165 164 163 160 157 157 154 148  96  53  41  31  27  26  25  24  23  24  26  27  26  25  24  24  25  26  26  25  23  21  20  21  23  27  28  29  31  30  28  26  24  21  22  23  22  19  16  13  13  14  15  17  17  18  25  39 125 137 141 143 143 144 144 145 144 146 146 147 146 145 146 146 145 146 146 143 143 143 142
 169 170 171 169 170 170 169 167 168 168 167 167 165 163 163 162 160 157 156 153 147  98  56  42  34  26  26  25  23  22  22  24  26  25  24  24  23  23  25  25  25  24  19  18  16  14  14  14  14  13  13  13  12  12  11  11  12  11  10  10  10  12  14  15  16  17  19  25  65 132 139 141 141 142 142 142 143 144 146 144 145 145 146 147 146 146 144 145 144 144 142 141
 168 170 171 170 168 167 166 165 166 165 165 164 163 162 162 161 159 157 155 153 149 100  54  43  36  27  26  24  22  22  21  22  24  24  23  23  20  21  22  22  22  21  20  17  14  12  10  10   9   9   9   9   8   8   9   9  10  10  10  11  12  12  14  15  15  16  20  23  97 134 138 140 141 141 140 143 143 143 144 144 143 145 144 147 146 146 145 143 143 141 141 142
 166 168 166 168 167 164 165 165 166 165 165 162 162 161 159 158 156 155 153 151 147  97  53  44  37  28  24  25  24  20  20  20  22  23  23  21  19  18  19  20  19  18  18  16  15  13  12  11  10  10   9  10  10  10  10  10  11  10  11  11  12  14  13  15  15  16  19  25 102 134 137 137 140 141 141 141 141 142 141 142 144 144 144 144 145 146 145 143 142 140 140 140
 167 165 165 166 165 164 164 164 164 164 163 162 161 159 158 155 154 153 151 150 148  97  53  44  38  31  23  20  20  20  19  20  19  19  22  22  20  19  18  18  16  18  17  17  16  14  13  12  12  11  12  12  12  11  11  11  11  11  11  13  14  15  15  15  16  18  19  28 120 132 134 138 138 138 140 140 139 139 141 142 142 142 143 144 144 145 144 143 142 141 141 142
 165 164 165 166 163 164 164 164 163 163 162 161 158 156 155 153 153 152 150 150 146  95  54  44  37  31  25  19  18  18  19  19  19  18  20  21  21  19  18  16  17  18  18  17  15  15  14  13  12  12  13  13  13  12  11  12  12  13  13  14  16  16  17  18  17  18  21  52 120 133 135 135 136 136 137 138 138 140 141 141 142 142 142 144 143 142 144 142 142 142 141 141
 164 164 163 162 162 162 161 162 160 161 160 158 155 155 152 151 151 151 149 149 145  92  53  43  37  30  25  20  17  17  16  18  19  19  19  20  20  19  19  19  19  18  18  17  16  16  15  17  16  16  17  17  17  16  14  15  15  14  15  15  16  18  19  18  17  17  23  70 123 130 133 134 134 137 138 137 139 140 140 141 140 141 141 142 142 142 142 143 142 142 140 140
 162 161 162 162 161 160 160 160 160 159 158 155 154 152 151 151 149 150 149 147 144  90  52  44  38  31  26  21  18  17  15  14  16  16  18  20  20  21  21  20  19  20  20  20  19  18  19  18  19  20  20  19  19  18  17  16  16  15  15  16  19  18  18  17  17  18  21  87 124 129 130 132 134 134 135 136 135 136 138 137 140 140 139 141 142 141 142 141 140 141 141 141
 161 161 159 160 157 157 157 157 156 154 155 153 151 151 150 148 148 146 145 146 143  82  51  44  38  31  26  23  19  16  14  14  14  13  15  18  18  19  20  22  22  23  23  23  23  23  23  22  22  22  21  20  18  18  17  17  16  14  16  16  17  17  17  18  18  19  46 113 125 128 129 132 132 133 134 133 133 134 136 134 136 139 139 141 141 140 140 141 141 140 141 140
 157 157 157 156 157 155 155 154 154 153 152 151 150 148 148 147 146 145 145 145 140  76  51  43  37  31  27  21  19  17  14  13  15  13  14  15  16  18  20  19  23  23  25  24  25  23  24  24  22  22  20  19  17  18  17  16  16  14  14  15  15  14  16  16  17  17  66 118 123 127 128 130 130 132 134 134 133 132 134 134 135 138 138 139 141 140 141 140 141 141 140 140
 156 156 155 155 154 154 153 153 153 152 151 150 150 148 147 146 145 146 144 142 140  71  50  41  37  32  29  24  20  17  13  12  12  12  12  12  13  15  18  18  20  23  24  24  24  24  23  22  22  20  19  18  17  17  16  14  14  13  13  13  11  12  13  14  16  21  84 118 122 123 126 128 129 130 130 129 131 132 132 133 133 135 136 137 138 139 138 140 139 138 139 140
 154 154 154 153 152 152 151 152 150 149 149 148 147 146 145 145 143 143 143 142 136  61  49  41  36  32  30  24  19  18  13  12  12  11  12  12  11  13  16  19  20  19  22  22  19  20  20  19  18  17  16  16  15  14  14  13  11  11  11  11  10  10  10  12  15  25  82 116 120 122 123 126 128 129 128 130 130 130 132 131 133 134 135 135 135 136 137 138 138 138 140 140
 153 152 153 152 152 150 150 150 149 148 148 147 146 144 144 142 142 142 139 138 126  58  49  41  36  32  30  26  22  19  17  14  12  11  12  12  11  11  13  14  17  17  17  17  17  16  16  15  14  13  14  13  13  13  12  11  10  11   9  10  10  10  10  12  17  28  77 115 120 121 122 123 124 127 127 128 129 129 130 132 131 133 132 134 136 136 135 136 137 139 139 140
 152 152 150 151 149 149 148 147 148 147 146 144 143 144 142 140 139 137 136 131  95  54  47  42  35  33  30  27  25  20  18  16  13  12  12  10  10  10  11  12  12  12  13  12  12  13  12  11  10  12  11  11  11  10  10   9   9   9  10   9   9   9   9  12  20  27  58  82 108 115 119 119 121 124 126 127 127 127 128 129 130 132 133 131 132 134 134 134 136 136 137 139
 151 151 149 149 148 148 146 146 147 147 145 144 142 141 138 133 109  80  43  38  60  51  44  40  37  33  32  29  26  23  21  19  16  12  12  12  10  10  10  10  11  11  12  11  11  11  11  10  10  10   9   8   9   8   9   9   8   8   9   9   8   9  13  17  20  25  28  17  18  37  55  74  89 117 123 124 125 126 127 128 129 129 132 131 132 133 133 133 134 135 136 136
 148 148 147 148 146 146 146 146 144 144 142 142 138 136  99  44  23  23  28  53  59  49  44  39  37  34  32  29  27  24  22  20  18  15  13  13  12  11  10  11   9  11  10  10  10  10  10   9   9   9   8   8   8   7   7   8   7   8   9   9   9  12  14  18  20  24  31  31  17  14  14  17  19  35  93 121 122 124 125 126 127 126 128 130 131 131 132 132 133 133 135 135
 148 149 148 148 146 147 146 144 146 142 139 139 111  53  22  19  21  27  43  65  53  48  43  38  36  36  32  30  29  28  25  23  21  18  18  16  14  12  14  12  11  10   9   9   9   9  10   8   7   7   6   7   6   6   7   6   8   8   8  10  12  14  16  19  22  24  29  33  33  24  14  11  12  16  18  70 117 122 123 126 126 126 128 129 129 132 130 130 132 134 134 134
 149 147 149 149 146 146 146 145 143 136 108  57  27  22  14  22  28  37  64  59  50  45  42  39  35  34  32  29  29  28  26  26  24  20  18  18  18  15  14  14  13  13  11  10   9   8   8   7   5   6   6   6   5   6   7   7   9  10  10  12  14  14  17  18  21  24  27  30  34  36  27  14  12  10  14  18  46 109 120 123 124 124 126 127 126 128 129 129 131 133 132 132
 147 147 148 147 146 145 144 140 105  60  31  27  19  13  22  31  31  62  62  55  48  45  41  39  36  34  32  30  30  27  26  26  25  23  21  19  18  18  17  16  14  14  11  11  11  10  10   8   8   7   7   7   8   8   8   8   9  11  12  12  13  15  17  18  21  24  26  29  32  35  34  30  16  12  10  13  17  28  87 119 120 122 124 126 126 127 128 129 130 131 131 131
 146 146 147 146 144 144 140  83  31  28  24  20  14  19  29  28  57  61  57  52  47  42  41  38  38  35  32  32  31  29  28  26  26  24  23  21  20  19  18  18  17  16  14  13  14  12  11  11  10   9   9  10   9   9   9   9  11  12  13  14  15  14  16  18  20  22  26  29  31  33  35  35  31  20  10  11  14  16  18  58 111 119 122 125 124 126 128 126 130 130 130 129
 147 145 144 145 144 133  57  27  22  20  19  18  13  23  29  37  61  60  54  50  46  41  41  39  37  35  34  31  31  30  28  27  27  25  23  21  21  20  19  18  18  16  16  14  13  12  12  10   9   9   9   9   9   9   9  10  11  12  13  14  15  15  16  17  19  23  25  26  29  30  31  34  35  30  21  11  11  13  15  18  26  89 119 121 124 125 127 126 126 128 128 128
 144 142 141 142 126  54  28  23  20  18  19  17  13  25  26  48  59  56  52  48  46  41  40  39  37  34  34  31  30  28  29  30  28  25  25  23  21  19  19  18  17  16  16  16  14  12  11  11  10  10   8   8   9   9  10  10  12  13  14  14  16  15  16  17  18  22  24  26  29  30  30  32  34  32  28  16  10  11  12  13  16  19  69 116 121 124 124 125 124 126 126 127
 141 142 138 123  44  27  22  20  18  17  17  17  15  24  25  50  58  55  51  47  44  42  42  39  38  34  35  33  31  28  28  27  29  25  25  24  23  21  20  19  18  17  17  15  14  12  12  12  10  10  10  10   9  10  11  11  14  15  14  16  16  16  16  17  18  21  25  27  29  29  31  31  31  32  28  22  10  10  12  12  13  16  17  56 109 119 123 124 125 126 125 125
 135 134  96  30  27  23  19  18  17  15  15  16  13  20  24  49  52  53  50  46  43  42  40  39  38  35  34  32  31  30  29  28  26  25  25  25  24  23  21  20  18  18  18  16  15  14  12  13  11  10  10  10  10  11  12  12  16  14  15  15  16  16  17  18  18  20  24  26  27  30  30  30  31  31  29  26  15   9  10  11  12  12  14  17  28  87 118 121 123 123 123 124
