P2
# Generated by OpenCV 3.4.0
92 112
255
 185 185 186 186 186 184 183 180 180 178 175 174 171 171 171 171 171 170 170 171 171 172 170 170 171 170 170 170 171 171 170 169 169 169 169 169 169 170 169 169 169 169 169 169 168 169 168 168 168 168 168 167 169 169 168 168 169 168 168 168 169 168 168 168 169 169 168 168 168 168 167 166 166 165 165 166 164 164 165 165 165 163 164 164 164 163 164 162 160 160 162 160
 180 179 179 180 181 181 180 180 179 177 174 172 172 172 171 173 172 170 171 171 171 172 170 170 171 171 170 172 172 169 170 171 170 169 169 169 169 170 169 169 169 169 169 169 169 169 168 169 168 169 166 168 169 168 168 169 169 169 169 169 169 170 168 168 169 168 168 169 168 168 169 167 165 166 167 165 165 166 165 165 164 163 165 165 165 164 165 163 162 161 160 160
 177 178 177 176 177 176 177 176 176 175 173 174 174 172 172 172 172 172 171 172 172 170 172 170 170 170 171 171 171 171 171 172 170 170 169 170 170 170 169 168 169 169 169 169 169 170 168 169 168 168 167 168 168 168 169 168 168 169 169 169 169 170 169 169 169 168 168 169 168 168 167 168 167 167 168 166 165 165 165 164 163 164 165 165 163 162 161 163 162 162 160 161
 176 177 176 176 177 177 176 175 175 176 174 172 172 173 173 173 173 172 171 170 170 172 171 170 171 171 172 171 170 170 171 172 171 171 171 169 169 169 170 169 170 169 169 169 169 169 169 170 166 168 168 169 169 169 168 169 169 169 169 169 169 168 168 168 169 169 169 168 168 169 168 168 167 169 166 166 166 165 165 164 164 165 165 165 165 165 165 162 162 161 161 160
 175 176 176 175 176 176 176 176 176 176 175 173 173 171 173 172 172 172 172 171 172 173 172 172 172 172 173 171 171 171 171 173 170 171 171 170 169 168 168 169 169 169 169 169 169 169 169 168 166 167 168 167 168 167 168 168 170 168 169 169 168 169 169 168 168 169 169 169 168 167 167 167 167 168 166 165 166 167 166 164 165 165 165 164 163 163 164 163 163 163 164 161
 175 176 176 178 177 177 175 177 176 175 174 174 173 173 172 173 172 173 172 172 173 174 172 171 172 173 172 171 172 171 172 171 172 171 170 169 169 169 169 170 169 167 165 164 165 164 165 164 161 162 159 158 162 158 163 166 167 167 167 168 167 166 167 167 168 168 169 169 167 166 167 167 166 166 166 166 165 167 165 165 166 164 164 164 164 163 162 164 163 164 163 162
 176 177 177 177 175 176 176 175 175 176 176 175 175 174 172 172 173 174 173 173 173 172 173 172 172 172 172 171 172 171 171 172 173 170 171 170 169 168 166 165 160 155 123 102 106 123 116 118 110 116 102  91 100 108 131 153 158 160 163 167 165 166 167 168 168 168 167 168 169 166 167 165 165 166 166 167 165 165 165 164 165 165 163 163 163 164 162 162 162 162 163 162
 174 175 177 175 176 176 176 176 175 176 175 174 175 173 172 172 173 174 173 174 173 173 173 174 173 172 171 171 171 172 172 172 172 170 170 168 165 163 148 100  66  61  59  44  45  45  46  44  42  45  43  44  45  50  54  77  95 103 113 158 166 168 168 168 168 168 169 168 169 168 168 167 167 168 165 166 166 166 166 165 166 165 165 165 163 164 164 164 162 164 163 162
 173 175 175 174 176 175 174 176 173 175 176 174 174 173 173 171 173 173 173 172 174 174 174 172 173 172 172 172 169 171 172 172 171 170 167 151 131 104  66  45  40  37  34  34  34  32  32  30  32  33  34  32  33  32  35  40  42  48  56  86 140 161 165 167 168 169 169 169 168 168 167 166 167 167 167 166 166 166 166 165 167 165 165 166 164 165 165 165 164 164 162 162
 173 174 174 173 175 174 174 175 173 175 175 175 173 172 172 173 173 173 174 173 175 173 175 173 173 173 172 173 171 171 170 169 168 161 108  67  53  44  40  38  36  31  28  31  32  28  29  27  28  28  28  27  30  26  28  30  32  36  38  40  51 106 145 161 167 169 168 168 167 168 168 166 167 166 166 165 166 166 166 164 165 165 164 164 165 164 164 163 164 163 163 162
 174 173 175 174 174 174 175 174 174 176 175 175 174 173 174 174 174 174 173 174 175 175 174 174 173 172 172 172 171 172 170 160 130  90  55  41  39  33  33  34  31  29  29  28  27  26  26  26  28  29  26  26  26  25  28  29  30  29  30  31  37  48  87 146 163 167 167 169 169 167 166 166 167 168 167 166 165 167 166 166 166 165 165 166 164 164 164 164 162 162 163 163
 173 173 173 172 174 174 174 174 175 173 173 174 175 172 174 174 174 173 174 176 175 176 175 174 174 173 174 172 172 170 168 127  63  46  36  32  30  32  30  26  27  26  24  23  22  26  24  24  24  24  21  21  22  24  26  26  26  26  26  29  32  35  48 117 159 165 165 166 168 169 167 168 167 168 168 166 166 168 166 166 166 166 165 164 164 164 165 164 165 163 164 165
 172 174 173 173 174 174 173 174 174 174 174 174 173 174 174 174 173 172 173 174 175 175 175 175 174 175 174 172 172 169 148  72  46  35  31  31  28  28  25  22  23  22  21  19  19  20  20  20  19  19  20  19  22  22  23  23  23  24  23  24  26  29  31  44  97 136 158 166 168 169 166 166 167 167 166 167 167 166 166 167 166 164 166 164 164 164 166 162 165 166 164 165
 173 174 172 172 172 174 173 172 174 173 174 174 174 174 174 174 174 174 174 176 176 175 176 176 175 175 175 173 170 135  84  48  39  34  29  30  28  25  23  21  20  20  19  18  19  18  19  18  18  18  18  18  18  18  19  19  20  22  21  23  25  24  26  32  39  54 120 161 165 166 167 168 166 166 167 168 165 165 165 165 165 165 165 165 165 162 165 164 164 164 164 165
 173 174 173 171 172 172 172 172 173 174 174 174 172 173 175 174 175 175 176 175 177 175 176 175 177 175 175 172 155  62  44  37  33  31  29  28  24  21  21  22  19  18  18  20  21  22  22  23  22  22  21  21  18  18  19  17  19  19  18  20  21  22  23  25  28  34  71 156 164 168 168 167 166 168 168 167 165 168 166 166 167 165 166 166 166 164 165 165 166 165 164 165
 174 172 174 172 173 172 172 172 172 173 174 172 172 173 173 174 175 175 175 175 176 176 176 176 179 176 175 170 115  43  36  32  28  27  25  24  20  19  20  22  23  24  25  26  31  35  34  32  31  32  31  30  27  22  19  17  18  18  16  18  18  18  19  21  23  28  38 108 160 165 167 168 166 166 167 167 166 165 165 166 166 167 166 165 165 166 166 165 166 163 163 164
 172 173 172 172 173 173 173 172 174 173 174 174 173 173 173 174 174 175 176 176 176 179 181 181 180 179 176 142  59  38  32  29  29  24  23  22  22  24  25  26  29  34  40  41  48  54  50  47  46  48  45  47  42  35  30  25  23  22  20  18  16  16  16  18  19  22  29  52 124 161 166 166 165 165 167 167 167 167 166 166 167 165 165 165 165 164 165 165 165 165 163 164
 173 172 172 171 172 174 172 174 173 173 174 174 174 174 174 174 174 175 177 178 183 183 186 187 187 185 170  86  42  32  30  27  26  24  24  25  26  32  38  40  45  52  58  60  64  67  60  57  54  56  56  54  54  51  48  42  37  35  32  26  22  19  18  18  18  19  23  31  70 134 161 165 166 167 167 165 166 166 166 166 166 167 167 166 166 167 165 166 166 165 165 165
 172 172 171 172 171 173 172 174 172 173 174 174 174 173 174 174 175 175 176 181 185 188 191 191 191 186 126  47  34  30  26  25  24  25  28  32  43  56  64  69  72  73  70  69  73  72  68  62  62  64  62  59  59  54  54  53  50  48  43  38  33  30  28  24  20  18  19  25  31  76 146 161 164 165 166 167 166 167 167 166 164 165 166 168 167 166 165 166 166 165 166 165
 172 171 172 172 173 173 173 173 172 172 174 172 173 173 174 175 173 174 175 180 183 186 188 187 187 174  76  41  31  28  26  25  25  30  41  55  72  83  87  88  86  80  75  74  75  74  71  71  68  69  66  66  64  60  57  54  54  49  44  38  35  34  33  32  27  21  19  20  25  41  89 148 162 164 166 165 166 168 168 167 166 165 167 166 166 166 167 165 167 166 165 165
 172 170 169 170 171 172 172 173 174 174 173 174 174 174 173 173 173 174 175 177 179 180 182 181 171 124  46  38  32  26  25  29  36  50  65  82  92  96  96  95  89  84  76  74  74  71  68  68  67  66  65  63  62  59  57  53  51  48  43  36  34  34  34  36  35  31  20  18  21  28  43 103 150 164 166 167 168 168 166 166 168 167 167 167 165 166 168 166 166 165 165 164
 171 170 172 173 172 173 173 173 174 173 174 174 174 174 174 173 171 173 174 174 176 177 176 175 160  94  42  34  28  25  30  43  59  68  77  88  92  94  92  88  83  78  73  72  71  70  67  66  67  65  65  63  62  62  61  55  52  48  45  41  35  33  32  35  38  38  32  19  18  22  33  83 150 163 165 166 166 166 165 166 168 165 166 167 164 166 166 165 165 165 164 166
 172 172 173 172 174 173 174 174 172 173 174 174 174 175 173 172 173 174 174 173 173 175 175 167 151  76  39  30  26  29  43  54  61  68  74  78  84  91  90  85  80  80  77  76  73  72  70  69  70  68  66  65  64  63  60  55  49  44  37  35  33  33  34  33  35  41  39  30  20  19  28  54 132 160 164 166 164 166 167 167 166 164 166 165 166 166 167 166 166 165 164 164
 173 173 174 174 175 173 173 173 174 175 175 174 174 174 174 172 174 173 173 173 173 174 172 162 132  54  34  27  28  43  54  56  60  63  68  73  82  88  83  81  80  79  77  78  72  73  71  70  69  68  64  63  59  56  54  49  39  36  34  30  29  29  31  33  36  38  38  38  28  21  23  36  82 148 163 165 163 166 167 166 166 164 165 166 165 167 166 165 165 165 164 163
 174 174 174 173 176 174 174 174 175 175 177 174 176 175 175 172 172 172 172 174 172 172 167 146  85  44  31  30  42  53  56  58  58  59  64  70  76  85  79  76  73  69  71  71  73  75  73  70  63  62  62  61  58  52  47  43  40  41  40  36  32  30  28  29  33  37  38  38  37  27  23  27  45 122 161 164 164 166 166 165 166 164 167 166 167 167 167 165 166 166 164 164
 176 176 176 176 175 174 175 176 176 177 176 174 176 175 174 172 172 173 173 173 173 171 164 120  62  36  30  38  52  55  58  58  56  56  61  68  81  89  86  81  80  81  82  78  75  72  70  68  64  59  60  61  55  53  48  46  49  50  46  40  36  36  32  31  29  31  36  38  39  39  28  24  34  96 158 164 166 166 167 166 166 166 166 165 166 167 166 166 164 165 164 164
 176 176 176 176 176 176 177 176 177 177 176 176 175 174 174 174 172 172 173 173 173 172 158  94  43  34  34  49  56  54  57  54  54  60  71  77  82  85  81  78  79  80  81  78  74  72  69  66  62  59  62  58  55  53  50  49  51  48  42  34  31  31  34  34  37  33  32  35  37  41  40  28  29  63 144 162 165 165 167 166 166 164 165 166 167 168 165 165 165 165 165 165
 177 176 175 176 177 178 178 178 178 178 176 176 176 175 176 174 174 174 173 173 173 166 140  64  37  33  45  56  56  56  54  54  64  75  76  78  76  72  70  71  71  72  73  74  70  68  65  63  62  60  62  61  56  53  51  49  46  40  37  32  30  29  32  33  35  38  38  38  38  40  44  39  29  32  89 156 164 166 164 166 166 164 164 165 164 166 166 166 165 163 164 166
 178 177 179 179 178 180 180 179 179 178 180 179 177 175 175 174 174 174 173 172 171 156  77  44  34  36  55  58  55  54  55  64  66  69  72  72  69  62  64  68  69  70  71  68  64  61  58  56  59  59  63  62  57  53  49  44  39  30  27  27  25  26  27  28  33  36  39  40  41  41  44  43  32  30  44 140 163 166 166 165 166 165 166 166 165 165 165 166 165 163 164 165
 184 185 186 185 185 185 186 185 184 183 184 184 181 180 178 176 174 172 171 171 166 124  49  39  35  51  62  58  58  59  61  59  54  56  56  61  61  60  59  63  68  72  69  64  59  56  52  53  56  60  62  62  56  52  45  37  32  27  24  24  24  22  19  20  24  28  30  33  39  43  44  43  38  27  33  92 160 162 164 165 165 165 166 166 166 166 166 166 166 164 165 165
 195 196 196 198 195 198 196 196 196 194 193 190 190 188 184 179 176 174 172 172 165  76  42  37  44  63  62  60  65  62  55  50  48  47  47  47  46  50  54  53  59  65  67  67  64  59  55  56  56  59  56  55  51  48  40  35  30  26  25  25  24  22  18  18  18  20  22  22  25  32  38  42  37  28  28  60 153 163 165 165 164 166 165 166 166 166 165 165 166 165 164 166
 200 201 202 201 203 208 208 208 206 203 200 201 198 192 187 183 177 175 173 172 154  58  41  40  54  64  64  65  61  58  50  41  35  32  32  36  42  42  49  50  50  55  57  63  65  63  60  60  61  59  54  51  48  42  37  32  29  26  27  26  24  21  18  18  18  19  18  18  19  22  26  35  40  32  26  40 139 162 165 167 165 167 166 165 166 166 164 166 167 167 165 164
 199 201 204 203 204 206 207 207 207 206 203 203 200 194 190 185 179 176 175 172 153  52  39  41  55  64  67  64  63  50  42  34  31  29  29  30  30  32  35  36  45  52  53  55  60  63  61  62  59  57  54  50  46  42  36  32  29  29  28  25  25  23  22  22  23  23  22  21  19  19  21  26  36  32  26  32 113 157 163 164 166 167 167 166 166 166 166 165 166 166 164 164
 194 199 201 200 201 202 202 202 203 202 196 196 194 192 189 185 179 176 175 171 139  49  38  42  58  67  66  63  52  38  34  31  31  33  32  30  29  29  37  37  40  47  49  52  55  58  57  55  54  52  51  46  42  38  33  30  29  28  28  26  25  25  24  25  25  25  27  28  26  24  24  24  29  32  26  30  90 157 163 165 168 169 167 167 166 165 166 167 167 166 165 166
 188 188 188 193 195 190 192 194 193 192 191 190 189 188 183 180 178 175 174 171 126  46  37  43  60  66  64  48  36  29  32  36  39  40  38  36  36  32  33  36  41  44  47  48  52  52  54  52  51  48  47  44  41  36  32  28  28  26  26  26  26  25  24  25  26  28  30  34  36  35  32  27  24  29  26  30 100 160 163 166 168 167 167 167 167 167 168 167 168 166 166 165
 182 182 183 185 185 185 185 184 185 184 185 185 182 182 179 178 176 176 174 171 118  45  38  45  61  65  51  31  30  35  41  45  47  45  42  40  41  37  35  38  39  38  40  45  50  52  50  49  47  46  44  39  37  34  31  27  26  25  25  24  25  25  25  26  27  28  30  33  35  38  37  36  30  29  26  29  75 157 165 167 168 168 168 166 168 168 168 168 168 166 167 166
 179 180 182 181 180 181 182 181 182 183 180 182 181 180 177 176 177 176 175 171 119  45  36  43  62  56  38  32  40  53  59  56  55  51  48  43  40  40  39  38  37  36  37  45  49  50  47  46  45  44  43  39  37  34  29  26  24  25  24  24  24  25  24  25  24  24  24  26  30  33  37  40  37  32  27  27  68 157 166 166 166 168 167 165 167 168 168 166 168 167 166 166
 179 179 179 178 179 179 180 180 178 179 179 180 178 178 178 177 177 176 175 171 100  43  35  43  56  42  38  49  66  72  68  63  56  51  48  46  45  42  40  38  38  36  37  41  46  47  46  45  43  42  42  39  37  31  28  26  25  24  25  25  26  24  20  19  24  21  19  18  21  27  30  34  38  36  29  27  78 161 167 168 168 169 169 168 169 169 168 169 168 167 165 166
 177 177 178 179 179 179 179 179 178 179 178 178 179 178 178 178 178 176 176 170  95  43  34  43  49  38  53  70  72  66  60  53  46  41  40  41  44  45  44  40  38  37  36  40  44  46  49  46  46  44  42  38  34  30  27  25  24  24  26  27  24  21  30  35  25  20  19  20  20  22  25  30  33  35  30  27  65 158 166 168 167 168 168 169 169 169 168 167 167 167 168 167
 178 177 177 179 178 177 178 179 178 179 177 178 178 178 178 177 178 177 175 173 100  43  35  40  43  52  68  70  60  46  39  33  31  30  26  26  30  37  42  41  39  35  34  39  44  47  51  52  52  48  45  40  33  30  27  25  23  25  27  24  21  28  28  17  15  14  15  18  18  21  23  26  28  32  37  29  39 151 165 166 166 168 168 168 168 169 169 168 169 167 168 167
 179 177 179 178 178 179 179 177 178 178 178 178 178 178 177 176 177 177 176 174 102  44  35  36  48  61  63  56  50  30  31  30  30  30  33  34  30  26  33  39  40  36  35  38  43  48  54  56  58  57  52  44  36  32  27  26  25  27  27  22  30  27  15  14  20  28  18  22  26  20  21  24  25  31  38  27  33 149 166 167 169 168 168 168 169 168 168 169 169 167 167 168
 178 178 178 177 178 178 179 178 177 178 177 177 177 177 178 178 178 178 176 172 113  43  36  39  55  60  56  47  35  32  27  22  19  17  18  20  27  32  29  34  38  38  36  39  43  50  57  69  70  66  59  49  41  35  30  27  26  28  24  27  30  20  23  24  44  30  21  27  58  38  19  19  21  29  39  30  33 144 166 168 169 169 169 169 169 170 170 169 167 168 167 167
 178 178 179 178 178 178 178 178 178 178 178 177 178 179 179 178 177 178 177 172 121  45  35  46  57  54  47  36  34  25  24  23  42  27  23  19  24  27  35  31  37  38  37  41  49  54  62  72  77  75  67  57  47  40  32  26  28  30  28  34  24  36  85  61  28  22  22  40  68  71  30  18  23  29  39  32  35 141 167 168 170 169 169 169 169 169 169 168 168 167 166 167
 179 179 178 179 178 178 179 177 178 178 178 178 178 178 178 177 178 177 176 170 112  41  37  50  54  50  40  30  25  23  44  32  42  49  30  25  53  34  29  34  37  40  39  45  51  57  67  81  87  84  76  63  50  40  33  27  31  34  34  24  24  81 120  96  54  43  50  67  71  72  48  21  24  28  38  38  32 142 166 168 170 168 169 169 168 169 170 170 169 168 167 167
 179 178 178 180 178 178 178 179 178 178 178 178 178 178 178 178 177 177 178 173 121  40  36  52  53  46  38  27  23  58  65  57  49  33  28  44  90  70  36  29  38  45  46  52  55  64  73  87  91  85  74  61  50  42  35  32  36  41  31  23  52 108 126 104  96  84  78  76  70  66  58  27  27  31  39  40  42 145 168 169 169 170 169 169 168 169 169 169 168 168 167 165
 177 178 177 178 178 177 179 179 177 178 178 178 178 177 177 178 178 178 178 174 135  41  35  58  56  43  34  26  28  98 101  97  43  44  55  95  98  86  59  32  34  49  51  52  62  70  78  80  82  75  68  55  48  43  38  34  35  34  36  41  46  44  51  50  51  55  55  57  55  54  55  38  32  32  38  41  46 147 167 169 168 169 170 169 168 169 169 168 168 166 167 166
 177 176 177 178 177 177 177 178 178 177 178 178 178 178 178 178 179 178 178 175 139  40  37  62  57  44  34  24  52 108 111 119  99  94  97  97  85  69  55  46  38  46  55  59  70  74  75  80  78  73  68  57  48  42  42  39  35  34  34  34  34  34  33  32  30  29  28  26  28  29  29  29  29  31  37  43  47 158 166 169 169 169 170 169 168 169 168 168 167 165 167 167
 177 178 177 176 176 176 177 177 177 178 177 178 178 179 179 178 178 178 178 175 126  44  39  67  63  50  40  28  70 108 108 111 100  86  66  58  46  42  37  36  37  52  59  67  74  72  73  78  81  77  70  59  48  44  43  40  38  36  35  36  37  33  29  26  25  25  24  24  25  25  26  30  38  34  38  44  50 154 169 169 169 169 169 169 169 169 169 167 167 167 168 167
 176 176 176 176 176 177 177 177 178 177 177 177 179 178 178 178 178 179 177 177 150  42  40  69  64  53  49  46  76  81  74  65  55  44  36  33  30  32  36  39  46  61  65  70  68  71  74  84  90  88  75  64  55  50  45  42  42  40  39  37  36  34  30  29  26  25  24  23  23  24  26  34  41  35  38  44  42 154 168 169 168 168 168 166 168 167 168 167 167 166 166 167
 175 177 175 176 174 176 177 178 178 178 179 178 178 178 179 178 178 178 178 177 167  60  44  69  64  53  48  45  41  41  40  39  35  32  31  29  32  34  38  46  59  68  66  67  70  80  91 103 101  96  89  80  68  59  54  48  43  40  37  36  36  34  30  30  28  27  25  23  24  24  26  32  42  39  38  43  43 143 166 167 168 167 167 166 168 167 167 167 167 166 166 166
 175 176 177 177 176 177 178 177 177 178 178 178 179 179 177 178 177 177 178 176 172  60  48  70  64  56  56  56  49  41  35  32  32  31  33  35  35  38  43  54  67  68  66  68  86 100 104  95  88  86  82  80  69  70  59  55  52  44  38  35  38  35  32  31  30  28  27  26  26  26  28  33  43  46  44  45  54 155 166 166 167 168 168 168 167 166 166 165 166 166 166 165
 176 177 177 177 178 177 178 178 178 178 178 178 178 178 177 177 178 177 178 177 170  74  50  67  67  60  62  65  52  42  36  35  38  39  37  38  39  44  53  64  68  65  69  88  85  81  80  81  77  73  67  60  56  50  44  45  50  54  51  45  39  38  36  34  30  30  29  28  29  30  30  34  42  47  46  45  52 147 164 166 168 166 166 166 167 165 166 166 165 166 166 165
 176 177 177 177 178 178 178 178 178 178 177 177 178 177 178 177 177 176 178 176 173  89  53  69  70  66  69  69  54  46  43  42  42  42  42  44  46  55  62  69  69  70  80  77  71  67  69  69  64  60  55  49  42  40  36  35  37  39  40  44  43  41  40  37  36  33  31  31  30  32  35  39  43  47  48  46  47 147 162 165 167 167 167 164 166 167 167 164 166 165 164 165
 175 176 178 178 177 177 177 178 178 176 178 178 178 178 178 177 178 177 177 176 173 116  56  68  71  73  75  73  62  55  50  50  51  50  48  50  55  64  68  70  73  78  69  60  54  50  52  56  52  50  47  42  37  33  29  28  24  23  26  30  36  40  41  41  40  39  35  34  33  35  39  43  46  48  48  45  44 116 161 164 166 166 167 165 164 166 166 166 166 165 164 165
 177 175 177 177 177 178 178 177 178 178 178 178 178 179 179 178 178 178 177 176 174 132  55  70  74  77  79  76  68  60  58  57  55  53  54  60  67  70  71  68  68  58  43  34  34  37  41  46  45  44  41  37  31  28  25  18  12  11  12  19  27  33  38  41  41  41  41  40  38  39  41  42  44  48  47  45  45  44 105 162 164 165 167 166 166 166 165 165 164 163 163 163
 176 175 176 176 177 179 178 177 178 178 177 178 178 178 178 178 176 177 177 175 175 152  56  72  75  80  83  79  74  69  65  61  59  62  66  71  73  73  69  66  52  35  21  14  15  22  31  36  37  37  36  34  29  24  15  11  10  10  11  14  21  26  33  40  41  42  43  42  41  42  41  42  44  43  43  44  44  39  31 133 161 163 165 164 164 164 164 163 163 163 164 161
 176 177 177 178 178 177 178 179 179 179 178 178 179 179 178 178 178 178 177 177 176 163  71  72  73  79  85  86  81  78  73  72  71  73  74  74  74  71  68  59  38  23  14  12  12  13  16  24  30  32  30  28  24  15  10   9  10  10  11  14  19  24  31  35  39  41  41  42  42  42  41  41  41  39  39  40  42  38  25  76 157 162 163 164 165 163 162 162 164 163 162 162
 176 177 178 176 177 178 177 179 178 179 179 178 179 178 176 178 178 177 175 175 138  81  62  72  73  78  80  80  75  77  77  77  74  77  75  75  72  69  63  50  29  19  13  11  12  11  11  13  23  27  26  24  18  11  11   9   9  10  12  16  20  21  29  33  35  40  40  38  41  41  40  38  35  35  36  35  38  37  23  42 156 159 164 163 163 162 162 163 162 162 162 160
 177 176 176 177 175 176 178 178 177 179 179 179 177 178 179 178 178 176 177 162  58  45  55  71  72  73  73  72  71  73  75  76  77  79  77  75  70  65  58  45  27  20  13  11  10  11  10  11  20  24  22  20  16  12  10   9   9  11  16  20  19  22  29  31  34  37  38  34  38  39  36  36  36  34  33  34  36  38  24  28 149 158 161 162 162 162 162 160 162 160 160 159
 176 176 177 177 176 176 178 178 178 180 178 178 177 178 178 178 178 178 175 120  43  31  52  69  69  68  69  69  72  73  74  75  77  79  76  72  68  64  56  47  28  23  17  13  11  11  11  17  23  23  20  19  17  16  14  13  16  20  22  20  18  21  30  32  34  34  35  33  36  36  34  34  33  31  31  32  35  39  24  29 149 157 160 160 161 160 160 160 159 158 157 158
 175 174 176 176 176 175 176 176 177 177 178 178 177 177 177 177 176 176 175  96  38  29  50  67  66  65  68  67  68  69  73  73  74  75  72  70  65  61  59  53  30  24  22  21  22  20  24  29  26  26  22  21  19  20  24  24  24  21  19  18  19  22  30  32  32  32  33  31  32  31  32  32  30  30  29  30  32  38  25  32 148 157 159 157 158 160 160 158 157 158 156 158
 176 175 174 175 175 175 175 176 177 176 177 177 177 176 176 176 175 176 175  81  33  29  52  66  62  61  65  63  65  67  68  71  71  71  71  66  64  64  62  57  33  25  23  26  32  40  40  36  33  38  36  32  26  22  23  23  22  19  17  18  19  25  30  32  33  32  32  31  32  32  30  30  30  29  28  30  31  38  25  31 148 156 159 159 158 160 159 159 156 156 157 157
 174 175 175 175 175 176 175 176 177 176 178 176 176 176 177 176 175 176 173  82  33  31  55  66  62  60  59  58  61  64  68  67  66  65  65  63  63  67  68  62  40  27  24  25  32  40  39  37  39  44  44  42  33  27  24  23  22  23  23  24  25  29  32  35  33  33  33  31  30  29  29  29  28  28  28  29  30  38  29  31 147 156 156 158 157 157 157 157 157 156 156 155
 174 176 175 175 175 176 177 178 176 177 177 177 176 176 176 176 176 175 172  90  36  44  58  63  57  57  57  58  60  59  62  61  61  61  60  64  65  69  71  69  57  42  38  39  39  36  37  37  38  38  39  39  35  34  29  27  26  26  26  26  28  30  34  34  34  32  33  31  30  29  28  27  26  29  28  30  31  39  35  50 150 155 154 156 156 156 156 156 156 154 155 154
 174 174 175 174 175 175 174 175 176 176 176 176 175 175 175 175 174 175 173 106  39  55  55  59  57  56  56  57  54  55  57  58  59  58  60  62  68  72  73  74  72  59  51  44  39  37  37  36  37  35  35  36  36  35  31  30  30  26  28  28  30  32  35  35  35  33  32  31  29  27  26  26  25  27  28  29  32  38  37  74 151 156 154 156 156 156 156 155 155 154 154 153
 174 174 175 175 175 175 174 175 176 176 175 176 175 174 175 175 174 174 173 122  47  58  56  60  56  53  53  54  53  53  52  53  55  56  62  66  70  73  74  74  73  64  54  45  41  38  39  39  38  35  35  37  36  38  35  29  29  28  29  28  31  32  35  36  37  35  34  33  30  27  26  25  24  26  28  28  31  37  38 103 152 155 155 155 155 155 155 155 154 154 154 153
 174 174 174 174 175 175 175 175 175 174 176 176 174 175 175 174 174 175 172 151  56  60  55  59  55  54  53  52  50  51  51  51  54  57  63  67  70  73  74  74  72  64  52  46  43  43  43  42  37  36  37  39  38  39  41  34  30  29  29  29  28  28  32  35  36  35  35  33  31  28  26  24  24  25  27  28  31  36  36 134 154 156 155 155 155 155 154 154 154 154 152 152
 174 173 174 175 174 174 174 175 175 175 174 176 175 175 176 175 174 174 172 171  80  69  56  59  53  53  51  50  47  48  48  49  53  57  62  66  70  71  71  70  66  58  48  45  46  49  49  45  40  37  40  39  39  41  43  39  36  32  30  28  28  27  28  30  33  34  34  35  31  29  26  24  24  25  26  27  30  35  47 146 153 154 155 155 155 154 155 153 154 153 152 151
 173 174 175 175 174 175 175 175 175 176 174 175 175 175 175 174 174 174 173 170 123  78  63  57  52  51  50  47  47  46  46  49  53  59  62  67  68  66  63  61  58  51  48  49  55  57  59  59  52  49  46  44  50  49  44  37  33  34  34  32  28  28  27  29  30  30  32  33  31  29  28  25  24  25  26  28  32  38  74 150 154 154 155 155 155 155 154 153 154 153 151 150
 174 174 174 175 175 175 176 176 176 176 174 175 175 173 174 175 173 173 174 173 156  80  76  57  51  50  49  46  45  46  46  49  52  56  64  64  63  57  54  54  53  50  53  58  60  57  55  54  56  57  61  55  47  37  32  30  30  31  30  32  32  31  28  28  27  28  28  29  30  30  28  25  25  24  25  27  30  35 106 151 155 155 154 155 154 154 153 152 154 153 150 149
 174 174 174 174 175 175 175 176 175 175 175 175 173 174 174 174 173 174 174 172 166  81  72  55  51  48  47  43  42  45  46  48  54  56  58  56  52  49  48  46  50  52  56  55  50  46  46  42  40  40  41  38  33  30  28  26  27  28  26  27  28  30  29  28  27  25  25  26  27  30  28  25  25  24  24  26  31  32 122 152 154 154 155 154 154 154 153 153 153 154 151 149
 175 175 174 174 175 175 174 174 176 176 174 174 174 174 173 173 174 174 173 173 171 106  78  55  48  48  45  42  40  45  46  50  53  54  52  50  47  46  46  46  49  51  48  42  40  40  39  34  32  33  33  30  27  25  24  24  24  23  23  24  23  25  26  28  26  24  23  24  25  27  28  25  24  24  25  27  30  39 140 152 153 154 154 152 155 154 154 153 154 153 150 149
 174 175 173 176 175 174 174 176 175 175 176 174 173 174 175 174 175 175 174 173 172 149  81  54  49  45  45  42  39  44  47  51  52  48  46  44  40  41  43  48  50  42  35  35  33  30  28  26  26  25  26  25  24  22  19  20  19  18  19  20  19  20  20  25  24  23  23  23  24  28  29  27  24  24  24  25  28  94 149 154 155 154 154 155 153 155 154 152 153 152 150 149
 174 175 174 175 174 175 175 176 176 175 175 174 175 175 175 175 174 175 174 174 172 168  86  54  48  47  44  41  42  43  46  51  49  43  42  37  35  38  40  44  38  29  28  27  24  22  21  23  21  22  24  24  21  18  16  17  17  16  16  16  15  16  17  18  19  19  19  20  22  26  29  26  24  24  24  24  28 128 152 154 154 155 156 155 155 155 154 153 153 150 149 147
 174 175 175 175 173 175 175 175 175 175 175 175 174 175 174 175 174 174 173 172 172 169 116  51  52  46  40  42  43  42  46  50  43  37  37  34  33  32  34  36  27  24  20  20  19  19  19  19  20  20  20  20  19  17  16  14  14  14  14  14  14  13  13  14  15  16  17  17  21  26  30  27  25  24  25  26  37 141 151 153 153 154 154 154 154 154 153 152 153 152 149 148
 174 175 174 175 173 174 176 175 176 175 174 174 175 175 175 175 175 173 174 174 172 169 167 112  50  42  39  39  40  41  45  49  41  33  34  31  28  24  25  23  20  18  17  18  20  21  23  24  22  21  18  19  20  21  21  20  20  21  18  15  14  12  11  12  11  13  17  17  20  25  28  27  24  23  24  28  48 138 150 153 152 151 152 154 154 154 154 152 152 151 149 149
 174 174 175 174 174 174 176 175 174 175 174 175 175 175 175 174 174 173 174 170 171 170 166 137  53  42  38  39  39  40  44  47  43  33  32  29  22  16  16  17  16  17  19  25  28  37  41  42  41  40  36  42  39  34  35  37  37  33  30  29  25  19  17  15  15  16  16  17  18  24  31  27  24  23  24  30  72 139 148 151 151 151 152 154 154 154 153 153 153 150 152 149
 174 175 174 174 174 176 174 174 173 174 174 175 175 175 175 174 174 173 173 172 171 170 168 154  54  41  39  39  38  40  44  47  43  34  31  27  20  15  12  15  22  32  41  49  59  69  77  64  62  56  49  50  60  60  66  60  49  44  37  39  36  32  26  23  22  18  18  17  19  26  29  24  23  24  26  29 107 143 150 152 151 151 151 152 153 152 152 153 153 151 150 149
 174 175 174 175 174 175 176 174 174 176 176 176 175 175 175 174 174 173 172 172 171 169 167 162  78  50  42  38  38  38  41  46  43  33  29  26  23  23  25  28  38  51  63  67  73  79  80  80  72  67  59  57  65  61  60  57  51  44  41  37  34  30  28  24  20  18  18  18  21  26  29  24  23  24  26  42 128 147 150 152 151 152 152 151 152 151 151 151 150 149 150 149
 175 176 175 174 174 175 176 176 177 176 175 177 177 176 175 174 174 171 170 172 170 169 166 160 111  52  42  38  36  38  39  44  42  32  29  27  27  28  34  41  48  54  61  66  73  76  75  74  68  61  55  52  54  58  58  55  49  41  36  32  29  25  22  20  18  18  17  18  21  26  28  24  23  26  31  75 143 147 150 150 150 152 152 152 152 153 152 152 150 149 148 146
 176 176 176 176 177 177 176 177 178 178 177 178 178 177 176 174 174 172 170 170 169 169 164 162 140  57  45  40  38  36  39  43  43  34  30  29  30  31  34  37  42  44  47  52  58  62  63  60  55  51  46  42  43  48  48  44  40  33  26  24  21  19  17  16  16  17  18  20  23  25  28  24  24  27  31 112 145 148 150 149 151 151 152 151 152 152 151 150 149 149 149 147
 177 178 177 176 178 178 178 178 179 179 178 179 178 176 176 176 174 172 173 173 169 167 164 162 156  77  48  39  37  36  39  41  41  35  31  30  34  35  32  33  32  33  35  36  36  37  37  35  34  33  30  28  29  31  32  27  24  21  18  16  14  14  15  16  16  17  18  19  22  25  26  26  25  28  59 140 148 150 151 149 152 150 150 151 151 151 152 150 150 149 148 147
 177 177 178 178 177 178 179 179 179 178 178 179 177 176 175 175 173 172 171 171 168 167 165 161 158 105  48  41  36  34  34  39  40  35  31  31  33  34  32  31  27  24  23  22  21  20  19  18  17  17  15  14  15  16  14  14  13  11  11  11  11  13  14  15  17  17  18  18  21  25  26  28  26  29  99 145 147 148 148 148 149 151 150 149 150 149 150 149 150 148 149 147
 175 176 178 177 178 177 177 178 178 178 177 177 178 176 174 174 172 171 170 171 168 167 165 160 158 139  62  45  39  35  33  38  38  35  32  32  31  32  31  30  26  23  18  16  13  11  10  10  10   9  10  10   9  10  10   9   8   9  10  10  11  11  14  14  16  16  17  17  20  24  25  26  25  45 132 146 148 146 147 147 146 148 148 148 149 150 151 150 149 148 148 148
 176 177 177 176 177 178 177 177 177 177 177 176 176 175 175 173 172 171 170 170 169 166 165 160 157 149 106  45  37  34  33  36  37  35  32  31  31  32  31  27  26  21  16  15  13  11  11  12  12  11  10  11  11  10  11  11  11  11  11  11  12  13  14  15  15  15  16  17  20  25  26  26  32 106 142 146 146 147 148 147 148 149 149 150 149 150 150 150 148 149 148 146
 177 176 176 175 176 176 176 176 176 177 177 175 175 174 174 172 171 169 170 169 165 163 162 158 157 155 141  46  36  34  33  32  35  35  31  29  27  28  27  26  26  23  19  17  16  15  14  14  13  14  14  14  13  12  12  12  12  12  12  12  12  14  14  14  14  15  15  16  19  23  26  26  66 136 144 145 147 147 149 150 149 149 149 148 149 150 149 149 149 148 146 146
 176 174 174 174 174 175 175 177 176 175 175 174 174 174 173 172 171 171 170 168 166 164 161 159 158 155 147  61  38  35  34  31  32  32  31  29  26  26  25  24  24  23  19  17  17  15  16  15  16  16  16  15  14  14  13  12  13  12  12  13  14  14  13  14  15  14  16  16  17  23  26  31 116 140 143 143 144 146 145 146 148 148 149 148 150 151 150 150 149 147 147 146
 174 173 173 173 174 174 175 174 174 174 174 173 173 173 173 170 171 169 167 165 164 162 160 157 156 153 142  67  41  33  33  31  31  31  30  30  26  25  23  22  23  22  19  18  17  18  16  17  17  17  17  16  15  16  15  13  14  14  15  14  15  15  15  15  15  15  16  17  17  22  25  56 124 139 142 144 143 144 145 146 145 147 146 148 148 147 150 149 147 147 145 145
 173 172 172 172 172 173 173 174 173 171 172 171 171 171 171 170 168 169 168 166 163 161 159 157 154 152 137  66  47  35  32  30  29  31  31  29  27  24  24  21  22  21  20  19  18  18  19  19  20  20  21  20  18  17  17  16  16  16  16  16  17  17  16  16  16  15  16  16  17  21  26  96 131 137 140 142 142 144 145 147 144 145 146 145 145 147 147 147 147 146 146 145
 172 172 173 172 172 171 171 172 173 172 171 171 171 171 171 170 168 166 166 163 161 160 158 156 153 151 131  65  50  35  29  28  29  28  30  29  26  25  24  24  23  22  20  20  21  21  23  24  24  24  25  24  22  19  20  18  18  18  18  18  19  19  17  18  17  17  16  16  16  20  26 108 133 137 140 141 141 143 144 144 144 144 144 144 145 147 147 148 146 146 146 145
 172 172 171 172 171 172 171 171 171 171 169 170 169 170 169 168 165 166 165 161 160 159 156 156 154 151 127  63  49  38  26  25  28  28  28  30  27  27  26  26  26  26  25  26  26  26  27  26  26  25  25  24  23  20  19  18  18  18  18  19  19  20  19  18  19  17  16  17  19  21  26 112 132 136 137 139 139 140 141 143 143 143 143 144 145 145 146 147 146 145 144 145
 172 169 167 169 171 170 171 171 170 169 168 167 170 168 168 166 164 162 162 161 158 158 154 153 152 150 120  60  50  40  32  22  23  24  26  27  28  27  27  27  29  28  30  30  29  28  28  28  27  24  23  22  21  20  19  17  18  19  18  20  19  19  18  18  19  16  16  16  19  21  28 113 131 134 134 138 138 139 140 140 141 141 142 142 144 143 145 145 143 145 144 144
 171 170 167 170 168 169 167 169 168 167 166 166 166 167 166 164 162 160 158 159 157 156 152 152 151 150 113  60  50  41  33  24  18  19  20  22  25  26  26  30  30  31  31  30  29  29  28  27  26  24  22  22  20  19  19  16  17  18  17  17  17  18  18  18  17  16  15  15  15  22  32 114 129 132 133 135 137 137 139 140 140 140 141 141 141 142 144 144 143 144 144 143
 170 168 168 167 168 167 166 167 168 166 164 164 163 164 163 160 159 158 156 156 155 153 153 151 152 147 106  60  49  41  32  26  20  17  17  20  23  24  24  27  30  31  29  29  28  29  27  26  24  23  22  21  20  19  18  15  16  17  14  15  15  15  16  17  18  16  17  15  14  24  30 113 126 131 133 135 135 136 136 138 138 137 139 139 141 140 142 143 141 143 142 143
 165 165 164 164 164 164 164 164 164 163 163 163 163 161 160 158 157 156 155 153 152 151 150 151 149 145  95  58  48  40  33  27  23  18  16  17  20  22  23  25  28  28  27  26  25  25  23  22  20  19  19  18  18  16  15  13  14  14  13  12  12  12  15  15  17  16  15  14  18  24  32 115 126 128 130 133 133 135 134 135 137 137 136 138 140 141 140 141 141 141 142 142
 164 163 162 163 162 163 163 162 161 162 162 160 159 157 157 157 156 154 152 151 151 151 149 149 148 145  85  56  47  42  34  28  24  20  16  14  18  20  23  24  21  25  23  21  20  20  18  17  16  17  17  17  16  14  13  12  11  12  12  12  10  11  11  12  13  14  12  14  18  24  35 112 125 127 128 131 132 134 134 133 135 136 135 137 137 138 140 140 140 141 140 140
 161 161 160 159 159 161 159 158 158 157 157 155 154 154 154 153 154 151 151 151 150 149 148 146 145 140  77  54  47  40  32  28  22  21  17  14  13  15  18  20  20  20  17  17  16  14  13  13  12  13  13  13  12  11  11  11  11  11   9   9   9  10  10  10  10  12  13  17  19  23  34 116 122 124 127 127 130 132 132 132 133 132 134 133 135 136 138 138 138 139 139 140
 159 158 158 157 157 157 157 156 156 155 154 154 153 152 151 151 152 150 150 149 149 147 146 144 144 136  67  52  45  39  34  30  24  19  17  16  12  12  15  16  17  16  13  12  13  13  12  12  11  11  10  11  10  10   9   9   9  10   9   9   9   9  10   9   9  11  13  17  18  24  33 114 120 122 127 128 128 130 130 131 131 131 133 133 134 133 136 137 136 136 137 138
 157 156 156 156 157 154 153 154 154 153 153 153 153 151 150 152 151 151 151 149 148 146 146 144 140 128  64  50  44  40  36  32  24  21  19  17  13  12  13  13  13  13  12  12  12  11  11  11  10   8   8   9  10  10   8   8   9   9   9   8   9   9  10   9  10  11  14  16  18  24  32 114 118 120 122 126 126 126 128 130 129 130 132 130 130 132 132 133 133 134 136 137
 155 155 154 153 153 153 155 153 152 152 152 152 151 150 149 150 149 148 146 146 145 144 142 141 138 112  60  50  45  38  36  32  26  22  19  17  14  13  13  12  10  12  11  11  11  11  10  11   7   7   9   7   7   7   8   9   8   8   8   8   9   9   8   9  10  13  15  17  19  25  35 112 116 120 120 123 126 123 125 128 127 128 128 128 130 132 132 133 134 134 135 136
 155 152 153 153 152 152 153 151 151 151 151 151 151 149 148 146 145 146 144 143 142 140 139 138 137 102  57  49  43  37  34  32  30  24  20  19  16  12  14  12  11  12  10  10  10  10   9   9   7   8   8   9   8   7   8   8   8   9   8   8   8   8   9  10  11  13  16  17  19  24  32 111 118 118 119 121 122 122 124 125 125 127 127 127 128 129 130 131 132 132 134 133
 154 151 151 151 151 151 149 150 150 147 148 148 147 147 146 144 145 144 142 141 139 137 138 132 115  79  54  47  43  38  35  32  28  26  23  20  19  14  15  13  13  12  12  11   9  10   8   7   7   7   6   8   8   7   8   7   9   8   7   8   9   9  10  11  11  15  15  17  18  23  35 110 114 115 117 118 119 121 121 122 124 124 125 125 126 126 128 130 130 131 131 130
 150 149 150 149 150 148 148 147 147 147 145 146 145 145 144 143 141 141 139 134 121  80  54  36  41  59  50  45  41  38  34  32  30  26  24  22  20  18  17  14  14  14  14  14  12  12  10  10   8   7   8   8   8   8   7   8   8   9   8   9   9  10  10  12  12  14  16  17  19  23  30  70  89 103 112 114 116 118 119 121 122 122 123 124 126 124 125 127 128 129 129 131
 150 149 147 149 149 149 148 147 147 147 144 143 144 145 143 142 142 138 109  61  28  22  26  32  61  56  49  45  39  37  35  31  30  28  26  24  21  19  18  19  18  16  16  17  16  14  13  12  12  11  11  10  10  10   9   9  10   9   9   9  10  11  12  14  14  15  16  18  19  24  27  19  16  19  48  64  70 103 116 118 120 120 121 122 123 124 125 126 126 127 128 130
 148 146 145 148 149 147 148 147 147 146 145 145 143 143 141 140 123  71  23  19  16  26  28  57  61  52  48  44  40  37  36  33  30  30  29  27  24  21  19  19  20  18  18  17  18  15  14  15  14  13  13  13  12  12  10   9  10   9  10  10  12  12  12  14  14  14  16  17  18  22  27  31  19  12  12  14  15  20  56 109 118 118 118 119 120 121 124 125 126 125 127 128
 145 144 146 146 147 148 147 146 146 145 143 144 142 140 116  65  31  25  17  18  28  26  54  63  56  50  45  43  40  37  34  33  29  28  28  26  26  25  22  20  21  19  19  18  18  17  16  16  14  13  14  15  14  13  12  10  10   9  11  10  11  13  12  14  15  15  16  18  18  22  26  31  32  23  12  11  10  13  16  33  99 116 118 118 118 119 123 123 123 124 126 125
 146 145 144 146 145 146 146 146 145 143 142 143 121  61  33  27  21  15  16  30  25  48  63  60  53  48  44  41  39  37  35  32  31  29  28  28  26  25  23  22  21  19  19  19  18  17  18  17  16  14  15  16  16  14  13  10  11  10  10  11  13  12  13  14  14  15  16  17  20  23  24  28  30  32  26  15  12  11  11  16  22  82 115 117 118 119 122 120 121 124 125 125
 144 143 143 145 145 146 146 145 144 143 140  99  33  28  23  21  16  15  26  29  40  59  60  55  49  46  45  41  40  37  34  32  32  30  29  26  26  26  23  23  20  20  19  19  19  18  18  18  16  14  14  15  14  14  10   9   9  11  11  10  11  11  14  14  16  16  16  18  18  21  24  25  30  31  30  29  18  11  10  11  14  17  58 112 117 118 118 120 120 123 123 125
 143 142 143 143 145 144 143 141 142 139  73  30  25  21  21  18  15  19  28  26  56  62  57  52  50  45  43  42  40  38  35  33  32  29  31  29  27  26  24  23  22  19  18  20  18  18  17  17  16  14  15  14  13  10  10   9  10  10  10  11  13  13  14  15  16  16  16  18  18  19  23  25  29  29  30  31  29  20  11  10  12  14  16  31  99 115 119 118 119 120 123 125
 143 141 141 142 144 144 141 141 138  68  28  25  21  18  18  17  14  21  28  32  58  60  55  51  48  45  43  42  39  37  36  33  32  29  30  30  29  26  25  24  24  21  20  19  18  18  17  17  15  15  14  14  11  11  10   9  10  10  11  12  14  14  14  16  16  16  17  17  18  20  24  25  26  28  30  31  31  29  20  10   9  12  12  17  22  66 115 118 119 120 121 122
 138 137 140 142 141 140 141 125  61  30  25  20  19  17  17  16  13  21  28  37  57  57  54  50  46  44  43  42  40  38  36  34  32  30  31  29  28  27  27  26  25  23  20  19  19  20  18  17  16  15  13  12  12  11   9  10  10  11  12  13  14  16  16  15  16  16  16  17  17  22  23  24  26  27  28  31  32  30  26  19   9  10  12  13  15  15  51 111 118 120 120 121
 140 139 138 138 137 135  96  39  28  23  20  18  18  15  16  17  15  19  24  38  55  57  53  50  45  45  44  42  41  38  37  35  32  31  30  29  27  26  25  26  24  24  23  21  19  18  19  18  18  16  15  12  12  13  12  11  12  13  15  16  15  15  15  15  16  16  17  18  17  20  21  23  24  27  28  30  30  30  27  23  13   9  10  12  12  14  18  40 103 116 118 120
