P2
# Generated by OpenCV 3.4.0
92 112
255
 176 176 176 174 176 176 176 176 176 175 174 173 174 172 171 170 172 171 171 171 171 171 170 171 170 171 170 170 170 170 171 171 170 170 170 170 169 170 168 168 169 168 167 167 164 164 168 167 169 168 165 164 167 167 166 167 167 167 168 168 168 168 168 167 168 168 168 167 167 168 166 167 164 165 167 166 165 165 165 164 163 162 164 164 165 164 163 162 162 164 162 161
 175 176 175 176 176 176 176 174 176 175 175 174 173 172 172 171 172 173 172 171 172 170 171 171 171 171 171 171 169 170 169 170 171 170 170 170 169 169 169 168 169 167 167 167 163 161 165 165 164 162 164 160 159 162 164 166 164 165 169 169 169 169 168 167 167 168 168 167 167 168 166 167 165 166 166 165 166 164 164 165 165 164 165 164 164 164 164 160 162 161 162 160
 175 176 176 176 176 176 176 175 175 174 174 174 174 173 172 172 172 171 172 171 171 170 173 173 171 171 171 170 170 170 170 170 170 170 170 169 169 169 168 168 166 166 164 159 149 142 149 141 138 137 136 142 142 137 141 146 147 161 164 164 167 167 166 165 166 167 168 167 167 166 167 166 166 167 166 165 165 166 163 164 164 165 164 164 164 164 163 162 162 161 161 161
 176 174 175 175 175 176 175 175 174 173 173 173 173 172 173 173 172 172 171 173 173 170 172 171 171 172 170 171 171 170 170 170 171 171 170 169 168 169 168 163 156 142 118  88  67  68  76  63  57  58  48  54  65  57  58  80  89 149 151 157 159 160 163 164 166 165 165 167 167 168 166 164 163 165 164 165 164 165 163 163 162 165 164 164 164 165 163 164 162 162 162 159
 173 174 176 175 175 175 175 175 174 173 175 176 174 173 171 172 173 172 171 173 172 172 172 172 171 172 171 170 169 171 171 172 171 170 170 165 162 159 144  93  62  49  45  43  42  39  42  40  40  40  38  38  38  36  37  39  40  50  70  82  87 106 154 163 167 167 168 167 165 168 167 166 165 164 166 166 166 164 164 164 163 165 165 164 164 163 161 162 161 162 160 160
 173 174 173 174 174 174 174 175 175 173 174 175 173 172 172 172 171 172 172 171 173 173 173 172 171 171 170 172 170 170 169 169 170 168 165 156 135  80  51  41  37  37  36  32  31  30  32  33  34  33  29  30  31  30  32  33  31  34  36  39  41  40  68 125 158 164 167 168 166 166 167 166 165 166 166 164 164 164 165 165 163 166 164 164 164 162 164 162 164 163 161 161
 173 175 172 173 172 173 173 173 173 173 173 173 174 173 172 172 173 173 172 171 174 173 173 172 172 171 170 170 170 171 171 167 162 151 108  69  46  41  37  36  33  32  29  26  26  27  25  28  27  25  26  26  27  27  26  26  26  28  28  28  29  31  36  55 110 149 162 165 167 168 167 166 167 167 166 165 166 165 166 165 163 165 164 163 164 162 162 162 163 163 163 163
 172 173 172 173 171 172 173 172 173 173 172 172 174 171 171 172 172 172 172 173 174 174 174 173 173 173 170 170 171 171 170 146 104  58  45  39  35  32  32  30  26  27  24  23  24  25  24  24  22  23  23  23  24  24  24  23  23  25  24  26  28  29  28  32  47 102 153 163 167 166 166 165 166 165 164 165 165 164 165 164 165 164 165 164 164 162 162 163 162 162 161 160
 172 172 173 172 172 172 172 172 171 172 172 172 173 172 172 172 171 172 171 172 173 173 174 173 173 172 171 171 171 170 165  94  48  40  36  32  30  28  26  26  27  28  24  22  24  26  24  23  22  22  22  22  23  22  22  22  22  23  23  24  25  25  24  26  34  41 109 156 165 164 165 165 165 167 164 166 165 164 164 164 165 164 165 163 164 162 161 163 162 162 162 162
 171 171 171 172 171 171 172 172 173 174 172 172 172 172 173 171 173 171 171 172 173 174 173 173 173 173 171 171 169 162 122  52  39  34  30  26  25  27  24  26  27  26  24  23  24  23  22  22  22  21  22  22  22  19  23  21  22  23  23  24  23  23  24  26  26  31  58 116 156 161 163 166 165 164 165 166 166 165 164 163 164 164 163 164 163 161 163 162 163 161 163 162
 171 171 171 171 171 171 171 171 172 172 173 173 173 172 171 171 173 173 175 172 173 174 174 172 172 173 170 169 159  98  51  38  32  29  24  24  23  24  27  26  22  23  23  20  21  20  21  22  19  21  21  22  21  18  19  19  21  23  23  24  23  24  24  26  26  30  31  37  84 143 158 162 165 164 165 164 164 163 163 163 164 164 164 163 163 162 162 163 162 163 164 163
 172 171 170 171 170 171 170 171 171 171 171 171 170 171 172 172 172 173 173 174 173 174 173 174 172 173 172 164  96  51  37  34  32  27  26  24  24  24  25  21  20  21  20  18  17  18  18  20  19  18  18  19  16  16  17  19  21  23  21  22  20  19  20  23  24  24  25  30  37  81 154 163 164 165 163 165 165 166 164 163 164 164 164 165 164 163 164 163 164 162 163 163
 172 170 170 170 170 171 171 170 171 171 169 171 170 170 172 171 171 173 172 173 173 175 175 176 174 175 168 132  56  39  31  32  29  28  25  24  25  23  21  19  17  18  19  18  17  16  15  17  17  16  17  17  16  16  16  17  18  19  18  18  17  18  18  20  20  20  23  27  30  49 134 160 164 165 165 165 164 164 164 163 163 163 163 164 164 164 165 163 163 163 164 163
 170 170 170 170 171 172 172 170 171 172 172 172 171 171 171 172 172 172 172 173 174 176 177 179 177 177 156  58  43  32  28  28  27  26  24  24  24  22  21  18  16  17  17  16  16  16  16  16  16  15  16  16  16  17  16  16  17  17  17  18  17  17  18  20  19  20  21  24  27  35  78 146 159 163 164 164 165 163 164 164 163 165 164 164 164 164 164 162 163 164 163 162
 170 170 171 170 171 171 171 171 170 171 171 171 171 170 172 172 173 171 174 176 179 181 184 185 185 176  75  47  34  28  26  24  23  22  23  21  22  19  17  16  17  16  16  17  17  17  17  17  17  17  18  16  16  17  15  15  15  16  15  17  16  16  18  19  18  17  18  20  23  25  33 101 155 160 164 164 163 163 164 162 163 161 164 165 164 164 165 163 164 162 162 164
 170 170 169 169 170 170 170 171 170 171 171 171 171 170 172 172 172 172 172 176 182 184 187 187 183 125  47  38  31  25  25  23  24  22  22  19  18  17  17  17  17  18  18  19  20  22  24  25  25  23  23  21  19  19  18  17  16  15  15  15  15  15  16  15  15  15  17  17  19  23  28  42  99 154 162 163 163 164 164 164 164 162 163 164 163 163 162 163 162 163 163 164
 170 170 170 171 170 170 171 170 170 171 172 171 171 171 173 173 172 171 173 174 178 180 183 183 170  72  42  33  27  24  25  21  22  20  18  17  19  18  19  21  19  22  24  28  30  30  35  36  34  30  29  29  28  29  27  21  18  17  17  15  15  15  15  15  15  15  16  16  16  20  24  30  42 118 154 162 163 163 165 165 164 163 162 166 164 163 164 164 164 163 163 164
 170 171 169 171 170 171 170 171 171 170 171 172 171 171 173 171 171 171 172 173 175 177 175 165 131  44  37  29  25  23  22  19  19  17  18  19  21  21  24  27  28  32  35  39  42  41  46  47  42  41  41  40  37  37  35  30  26  24  22  21  19  18  17  16  15  15  15  15  15  18  20  23  32  66 132 154 162 164 165 165 164 165 165 165 163 163 164 165 164 164 163 164
 170 170 169 169 170 172 171 171 171 171 172 173 171 171 171 171 170 170 172 172 173 174 172 157  80  42  34  28  24  23  21  20  20  20  23  24  26  31  34  37  39  40  43  49  51  50  51  54  47  47  47  48  44  44  40  36  35  33  29  28  27  27  24  22  21  20  20  16  15  18  18  19  24  32  76 150 163 164 164 164 165 165 164 164 163 163 165 163 163 165 165 163
 171 171 171 172 171 173 171 173 171 172 172 174 171 171 171 171 171 170 171 171 171 171 166 129  54  38  31  28  25  24  23  23  25  24  28  30  34  43  50  52  51  52  53  55  54  55  54  55  53  51  50  49  48  46  44  42  39  36  36  36  35  34  31  29  28  26  26  23  19  17  16  18  22  28  57 131 158 165 166 166 165 163 163 167 164 163 165 164 164 163 164 164
 172 172 171 173 173 174 172 171 172 174 174 173 172 172 171 171 170 169 169 170 171 169 147  73  43  34  29  26  24  22  25  29  31  33  39  44  50  56  59  60  61  58  57  57  57  58  56  57  56  55  52  50  50  48  45  42  40  40  40  42  40  39  33  32  30  32  30  30  27  21  17  17  18  22  31  71 150 162 165 165 164 163 163 166 164 164 164 163 164 164 164 163
 173 173 173 174 174 173 172 174 173 174 175 174 172 172 171 171 171 170 171 170 169 166 113  50  40  32  27  25  24  24  30  37  44  50  54  56  62  65  67  69  68  65  64  64  62  61  61  62  61  57  56  52  51  50  46  46  44  43  42  42  41  39  34  34  33  34  34  34  32  28  21  16  17  19  26  42 134 160 164 165 165 163 163 165 164 164 164 163 164 165 164 162
 174 174 173 174 173 173 175 175 174 174 174 174 174 172 172 172 171 170 172 171 169 160  72  42  34  29  26  26  29  33  42  48  53  57  63  66  67  70  71  72  70  67  66  68  66  66  64  63  63  58  54  52  50  49  48  47  45  44  44  42  39  35  33  32  32  34  35  37  36  36  29  20  17  18  23  30 112 158 164 164 165 165 164 165 166 165 165 165 165 164 164 162
 176 176 174 175 175 176 175 175 176 175 176 175 174 173 173 172 172 172 171 171 166 135  50  39  31  26  27  32  40  46  51  53  53  58  63  66  68  70  70  70  69  68  70  67  67  65  66  62  60  57  56  52  48  47  48  45  43  42  41  38  36  33  32  31  31  34  35  37  37  37  36  27  22  19  22  28  63 150 162 163 164 164 164 165 164 165 166 165 164 164 164 162
 177 178 176 176 177 178 177 177 178 178 177 176 174 174 174 172 174 173 171 170 154  70  44  34  28  27  31  40  49  51  52  52  52  57  63  66  68  68  68  68  67  68  66  64  65  65  64  60  56  53  55  50  48  46  46  44  42  42  39  36  34  34  31  30  31  32  33  36  37  38  38  35  31  24  22  24  37 114 158 163 164 163 163 165 165 163 165 165 164 164 163 163
 178 178 181 181 179 179 182 181 181 179 178 179 177 176 176 172 172 173 171 167 109  49  38  31  26  29  39  48  52  53  51  52  53  55  58  62  62  63  65  66  65  66  65  63  60  62  61  58  55  54  53  51  48  46  45  43  43  42  38  35  35  33  32  31  31  30  30  32  33  38  38  38  37  33  25  24  29  70 150 162 165 164 165 164 166 166 164 165 166 165 164 165
 187 188 189 189 189 187 188 186 186 185 185 185 183 181 179 177 173 172 171 164  83  44  34  30  29  36  49  53  54  52  51  53  52  53  53  56  57  59  63  66  65  63  61  59  61  60  58  57  56  56  56  53  50  49  47  44  44  42  36  34  33  31  30  30  29  30  30  30  32  34  37  38  39  38  29  22  25  40 145 162 164 164 166 164 164 165 165 164 165 165 166 165
 195 196 197 195 195 201 202 199 199 197 194 194 191 189 185 180 176 172 171 156  65  38  31  30  36  47  53  53  53  51  51  51  51  52  53  53  56  58  62  65  64  62  64  63  60  62  61  59  57  56  56  53  50  48  49  47  44  43  38  35  34  32  30  29  29  29  29  29  31  32  35  38  39  42  36  26  26  32 128 160 164 164 166 165 166 166 165 165 164 165 165 165
 198 199 202 202 204 207 208 207 206 203 202 202 200 196 190 184 179 175 171 143  48  35  30  34  48  55  56  55  53  52  52  51  51  52  53  54  55  59  61  62  63  65  66  61  61  60  59  58  59  60  56  54  52  50  50  49  48  46  38  35  34  32  30  28  29  29  28  29  30  32  33  36  38  41  38  29  26  29  93 157 163 164 165 167 165 165 165 165 166 166 166 164
 196 199 201 202 204 206 205 205 207 206 203 200 199 195 191 186 180 177 170 127  52  36  34  41  56  60  61  58  54  52  52  53  52  53  54  56  56  60  65  66  67  66  64  60  59  57  60  62  62  59  56  53  54  52  54  50  47  43  37  40  37  35  32  31  29  28  28  29  30  32  34  36  39  39  38  29  25  30  79 157 164 164 166 166 165 166 166 166 166 166 166 165
 193 194 194 196 199 198 198 199 200 201 199 193 192 192 190 183 178 174 170 118  50  35  36  46  59  65  64  58  55  53  53  53  53  53  54  58  62  65  69  71  73  73  70  69  68  67  64  63  62  58  56  55  55  54  53  49  48  45  42  42  39  36  35  34  33  32  30  30  32  34  37  37  38  39  38  32  25  28  86 154 163 166 167 167 166 166 166 166 165 167 166 166
 185 186 185 187 191 190 190 191 190 191 189 189 187 186 182 179 177 174 169 102  44  34  34  46  58  64  64  60  59  58  56  56  56  59  62  65  66  68  71  78  78  75  74  71  69  66  66  63  60  56  55  54  53  53  51  49  47  44  43  43  42  36  36  36  36  36  35  36  34  36  37  37  38  39  38  34  26  29  94 159 165 166 166 165 166 168 168 167 165 167 167 166
 180 180 181 182 182 185 184 184 184 186 182 184 183 183 180 177 176 175 169  91  42  35  35  46  57  62  65  65  64  63  60  59  63  65  67  70  73  74  75  77  76  75  74  74  70  67  65  64  60  57  54  51  50  50  49  48  46  44  43  43  42  39  38  38  37  37  38  39  37  38  37  38  39  39  41  34  26  28  83 158 166 164 165 167 166 168 169 168 167 166 166 166
 178 178 180 180 180 182 181 180 180 179 179 179 179 178 177 178 176 175 167  77  43  35  37  47  57  64  65  64  65  66  64  63  65  69  70  73  75  74  73  72  72  73  72  70  68  65  63  61  58  52  51  50  49  47  46  44  44  42  43  42  41  39  36  35  37  37  38  40  38  39  38  38  38  40  41  37  28  28  76 157 164 165 167 168 167 167 168 168 167 168 167 167
 177 177 179 177 178 179 180 179 179 179 177 178 178 178 177 176 176 176 169  96  43  36  36  46  59  66  67  66  66  65  64  64  67  67  69  74  74  73  69  68  66  66  66  62  62  60  56  55  52  48  50  48  46  48  46  44  42  40  38  36  35  36  33  31  30  32  34  37  38  38  36  39  39  41  42  42  30  28  82 158 164 166 166 168 167 168 169 169 168 167 166 165
 179 177 178 178 178 178 178 179 179 178 177 178 178 178 178 177 176 176 174  88  41  37  34  46  58  65  66  66  67  67  67  64  65  65  67  68  68  68  62  62  59  61  57  54  55  54  51  48  48  46  45  44  45  46  43  43  39  37  33  29  28  28  27  23  22  21  23  26  29  28  28  30  33  35  38  41  32  29  77 160 167 168 168 168 167 168 168 169 168 168 167 166
 177 177 177 178 178 179 178 177 178 178 177 178 177 177 177 177 176 175 172  95  44  36  32  47  61  64  65  66  68  68  67  65  59  55  55  57  57  53  53  51  50  53  51  51  50  48  48  46  44  44  43  43  44  43  42  37  35  31  26  25  21  21  19  16  16  16  16  18  20  20  20  20  23  27  32  39  35  29  84 159 166 168 168 167 168 168 168 167 168 167 167 168
 177 177 178 178 178 178 178 178 177 177 177 178 177 177 177 177 175 175 171 114  44  34  34  50  64  63  66  67  66  57  53  46  39  36  37  37  38  39  39  41  42  43  44  46  45  47  46  44  42  43  42  41  41  38  37  34  29  28  24  22  18  17  16  15  14  14  13  15  15  16  16  16  18  21  26  35  34  30  84 161 166 167 167 168 168 168 168 166 168 168 168 168
 177 178 178 177 178 177 177 177 178 178 177 176 178 178 176 177 177 175 169 117  47  36  35  51  66  65  66  58  50  42  37  40  37  34  32  30  31  35  35  38  39  36  38  40  42  43  45  43  40  39  40  40  37  35  33  30  28  24  23  19  16  16  15  15  14  15  14  14  16  17  17  18  20  21  25  26  31  31  92 159 167 168 169 168 168 169 169 168 169 167 167 167
 178 177 178 177 177 178 177 178 178 177 178 178 178 177 178 177 177 176 169 115  43  35  33  54  64  63  53  40  34  30  30  31  30  27  27  24  23  22  24  22  28  29  32  33  35  38  40  40  39  39  37  38  36  33  32  28  25  22  19  18  17  15  14  15  14  15  17  17  19  21  22  23  23  24  26  25  28  30  95 163 167 168 169 169 169 170 168 167 169 168 168 166
 177 177 178 177 177 177 178 178 177 179 177 178 177 178 177 178 177 176 173 116  41  33  34  56  62  51  35  31  28  29  30  30  27  27  27  23  19  19  19  20  21  22  27  30  31  33  36  38  36  36  35  35  32  32  30  26  24  21  18  18  18  16  16  16  17  18  21  23  25  27  28  28  27  26  28  27  30  32 114 163 169 169 169 169 169 169 169 169 168 168 168 166
 178 177 178 177 178 178 178 178 178 178 178 177 177 177 177 178 178 177 173 137  38  34  34  57  53  38  34  34  34  39  38  37  34  32  30  26  22  21  18  18  21  20  24  26  28  32  32  35  34  33  33  32  30  29  27  25  23  19  18  17  18  17  18  19  21  24  27  30  34  38  35  35  31  28  27  26  30  30 120 164 169 168 169 169 169 169 169 168 168 169 168 166
 177 178 178 176 177 177 177 177 178 177 177 178 178 178 178 177 177 178 175 137  39  33  36  60  42  36  37  43  47  50  51  50  48  43  38  31  26  24  22  19  19  21  23  24  26  28  31  32  32  31  31  31  29  28  25  23  20  19  18  18  18  18  20  24  28  33  38  39  42  42  41  38  36  31  29  29  34  32 133 165 169 169 170 169 170 169 168 168 168 167 168 167
 177 177 176 176 176 178 177 177 177 177 177 179 178 178 178 178 177 176 175 146  38  35  36  53  42  42  45  48  54  60  63  65  62  56  50  44  35  28  26  25  23  23  23  23  24  29  32  33  33  32  32  31  30  28  25  23  20  18  17  18  19  20  24  30  35  40  44  44  43  43  41  41  38  35  31  30  36  38 133 166 169 168 169 169 168 169 169 169 169 169 168 168
 177 178 177 176 175 175 177 177 178 177 177 177 178 178 178 178 177 177 176 165  58  34  36  50  48  47  48  53  59  65  70  73  70  62  55  51  44  38  31  27  25  24  24  25  26  29  33  34  35  34  35  31  31  30  25  23  20  19  18  18  21  25  30  34  38  43  44  43  41  40  39  41  40  37  34  32  40  41 116 167 168 168 168 169 169 169 168 169 168 166 165 169
 177 175 176 177 175 176 177 178 178 178 178 178 178 178 177 178 178 177 177 174  66  35  41  56  49  48  50  55  60  65  70  73  69  62  54  49  43  39  34  31  29  27  25  26  27  31  34  37  39  38  37  36  33  30  26  24  22  18  18  21  24  27  31  35  38  40  42  40  38  36  36  38  38  38  39  36  43  49 142 163 167 169 169 169 169 167 168 167 166 167 167 167
 176 175 176 176 176 177 178 178 178 177 177 178 178 178 178 177 177 177 177 171  79  38  44  61  48  50  53  56  61  64  67  72  67  58  52  46  39  34  32  30  30  28  26  25  27  33  37  41  45  45  43  40  36  31  27  24  20  19  18  21  24  28  31  32  35  37  36  35  35  34  34  35  36  39  43  40  44  59 151 165 169 168 168 168 168 167 167 167 166 167 167 166
 175 175 176 178 177 177 177 177 178 178 178 178 178 178 178 178 177 176 176 174 101  41  51  65  49  50  55  58  60  58  62  68  62  54  48  42  34  30  29  29  29  28  26  26  30  34  39  45  50  50  48  44  37  32  29  24  21  18  19  22  24  27  30  31  33  34  33  32  31  31  30  29  31  35  45  42  43  55 154 166 166 166 166 167 168 166 168 166 166 165 167 166
 176 178 177 177 178 179 178 177 177 178 176 178 177 176 177 177 176 176 177 173 124  40  55  67  53  51  58  60  58  54  57  59  53  47  42  37  32  28  26  25  25  26  25  27  31  37  41  49  54  57  56  50  42  34  29  26  22  19  19  20  22  26  28  30  33  34  31  32  30  30  29  28  30  34  43  41  41  53 132 163 166 166 165 167 167 165 167 167 166 165 166 166
 177 177 176 176 178 177 176 176 177 177 177 178 178 178 177 176 176 176 176 174 150  50  56  67  56  52  61  60  55  51  51  50  46  42  39  34  29  26  24  23  24  25  26  30  38  41  45  51  60  63  64  56  47  38  30  26  21  19  20  21  20  22  23  25  28  30  30  30  30  31  29  29  30  33  41  36  37  45  93 160 165 166 166 166 167 164 165 166 165 164 164 164
 176 175 177 177 177 176 176 178 178 176 178 177 177 178 177 177 177 176 176 175 153  55  56  67  58  53  63  60  54  46  43  44  45  41  39  34  28  24  23  23  23  24  28  36  41  44  47  51  61  64  66  64  54  44  34  28  24  20  20  18  14  15  16  17  15  17  19  19  20  21  21  21  22  25  28  27  32  44 101 156 163 166 166 164 164 164 165 165 164 164 163 164
 174 175 176 176 176 176 177 176 177 177 178 177 176 178 177 177 177 175 176 174 168  75  59  66  57  52  60  60  53  48  47  47  47  40  32  26  21  19  17  17  17  17  27  39  40  44  48  53  58  64  66  66  56  46  37  31  26  23  20  17  13  13  14  17  12  12  13  16  16  16  18  16  15  17  22  25  32  41  40 111 160 164 164 164 165 165 164 164 165 163 164 164
 174 176 176 177 175 177 176 177 177 177 177 176 177 177 175 177 178 177 176 174 171 111  62  64  55  45  48  54  50  43  38  35  28  23  20  17  15  18  20  17  15  18  30  39  40  44  50  53  59  66  67  68  59  45  38  33  30  26  21  19  17  16  15  14  11  10  11  12  13  16  15  13  14  20  24  28  34  39  32  37 153 163 164 165 164 164 164 163 163 163 165 164
 175 176 175 176 175 177 177 177 177 177 177 176 177 178 176 178 176 174 175 158 104  60  56  61  56  45  36  30  28  25  24  22  17  16  15  15  13  14  16  17  22  32  33  38  43  48  51  53  66  77  73  70  61  47  41  36  36  30  26  23  19  18  16  16  14  14  12  11  12  13  13  14  18  25  32  34  36  38  31  25 117 160 162 163 163 163 163 164 164 162 161 163
 175 176 176 175 176 176 178 175 175 177 177 177 176 177 176 177 176 174 168  79  60  51  54  63  58  51  38  32  27  21  20  19  18  15  14  13  12  15  17  20  30  34  36  40  46  50  52  61  78  94  86  77  66  52  42  38  36  34  29  26  24  22  22  19  14  13  13  12  12  14  16  16  21  26  34  38  37  38  32  27 107 157 162 162 161 163 163 162 162 163 162 161
 176 175 174 176 177 177 177 178 177 177 176 178 176 176 177 177 176 174 138  49  29  36  52  60  61  58  54  45  32  26  20  18  20  18  17  17  16  16  18  30  38  37  41  46  50  49  55  71  82 100  95  81  68  53  44  37  38  35  31  28  27  24  22  24  22  18  14  14  13  15  16  18  22  28  36  42  40  38  33  27 108 157 161 162 160 160 163 163 162 162 161 160
 175 174 175 176 176 175 176 176 176 176 176 177 176 176 177 177 176 174 117  43  26  29  54  62  65  66  66  53  40  30  24  21  19  16  17  16  17  20  30  38  39  44  46  48  51  50  60  72  86 101 101  86  74  58  47  45  38  34  33  29  28  29  26  24  25  25  24  21  21  23  24  26  29  32  37  42  42  39  35  29 111 157 159 161 161 160 161 161 162 160 160 160
 174 174 175 174 175 175 175 176 176 175 177 177 175 175 175 177 176 173 113  37  27  30  54  64  67  70  69  64  53  40  31  25  22  20  21  22  28  32  39  41  45  46  48  49  49  56  71  83  98 104  98  87  82  67  53  49  42  35  34  30  29  30  29  27  26  26  25  26  26  27  26  27  29  34  37  40  43  39  36  28 120 156 159 160 160 160 159 161 159 159 158 158
 175 174 175 174 175 175 176 175 176 175 176 176 176 175 175 176 175 174 116  37  28  37  55  64  68  72  73  70  64  53  45  40  34  34  35  36  38  40  44  46  48  49  48  49  54  65  84  95 100  92  85  83  79  71  60  53  50  41  35  33  30  30  30  30  28  28  28  27  27  28  28  29  30  34  38  41  41  39  39  26 130 156 159 159 159 159 160 161 160 159 158 158
 174 174 174 175 174 175 176 177 176 176 178 175 175 175 176 176 175 173 132  41  34  51  58  65  68  72  73  71  67  60  55  51  46  45  45  45  44  45  50  51  52  50  48  53  64  78  86  87  83  77  78  74  65  59  54  51  51  48  44  43  38  31  30  32  30  30  30  29  27  28  29  29  30  32  36  37  38  37  40  30 147 156 158 158 156 161 159 160 158 157 158 157
 174 174 175 175 174 176 175 176 176 176 176 176 175 174 176 177 174 173 149  41  46  50  59  65  66  71  73  75  72  68  62  56  51  48  48  49  51  53  55  53  52  48  50  64  73  75  72  73  72  69  66  60  55  50  46  46  43  42  45  48  47  40  30  32  33  31  30  29  30  29  30  30  30  30  32  35  34  35  41  61 152 157 158 158 157 158 158 157 156 155 156 156
 175 175 176 174 174 176 175 176 177 178 174 175 174 174 175 176 175 174 169  53  53  43  56  62  65  69  71  73  73  69  65  58  53  52  54  56  58  58  57  54  52  51  64  73  73  66  62  64  62  56  54  49  46  42  40  36  33  32  35  39  40  41  38  29  30  32  32  33  31  32  31  30  31  32  31  31  32  33  42 100 153 158 156 157 159 158 158 157 158 156 156 157
 175 175 174 175 174 174 175 176 176 176 175 175 175 175 174 175 175 174 171  89  57  45  58  62  63  65  64  66  66  64  64  62  58  58  61  61  62  60  56  52  48  61  68  65  58  51  45  45  49  46  47  43  38  35  33  30  26  27  28  27  30  31  33  30  29  31  32  33  32  33  31  32  30  30  29  30  31  33  41 132 154 156 157 156 157 156 156 158 158 156 156 156
 174 175 175 175 175 175 177 175 176 176 175 175 176 176 175 175 175 174 172 136  65  51  57  62  59  59  59  59  60  62  61  61  59  59  60  62  60  57  53  48  50  61  57  47  38  36  33  33  37  38  38  37  36  31  28  25  23  21  17  14  16  21  26  28  27  28  30  31  30  31  31  30  29  29  29  29  30  33  48 144 154 155 156 157 157 155 156 156 158 156 155 155
 174 175 175 175 175 175 175 175 177 176 176 177 175 175 175 174 174 174 174 168  78  61  58  60  56  54  57  55  59  61  60  60  60  62  64  61  58  54  49  45  50  48  35  24  16  17  22  27  30  32  32  31  29  27  24  21  17  12   8   8   9  12  20  25  26  27  29  30  29  30  31  29  29  29  29  29  31  34  50 147 154 155 156 155 155 156 156 156 156 156 156 155
 174 175 175 175 176 176 175 175 178 176 175 176 176 175 175 174 175 174 174 170 106  73  60  59  56  53  55  54  57  57  59  59  60  63  65  61  55  51  44  40  44  33  21  12  11  10  11  16  23  27  27  26  26  24  21  15  10   9   7   8   9  10  16  22  25  27  27  29  29  29  29  29  29  28  26  28  30  33  60 152 155 156 156 156 156 156 157 157 156 156 156 155
 175 175 175 175 175 176 176 175 175 176 175 175 174 175 176 175 175 174 173 171 126  72  66  57  52  52  52  51  52  53  57  58  60  61  61  57  53  48  45  40  39  25  16  12  10   9   9   9  12  19  23  23  21  19  16  10   8   9   9  10  11  12  16  21  25  28  26  28  28  26  26  27  27  28  26  28  29  34  72 149 155 155 155 157 156 156 157 156 156 156 156 155
 175 175 174 175 175 176 176 175 176 177 176 176 175 175 175 175 174 174 174 172 152  65  65  57  52  50  51  50  50  53  54  56  57  57  57  53  49  46  45  43  38  23  16  13  11  10  10   9  10  16  19  19  18  17  12  10   9  10  11  13  13  14  16  22  26  27  26  27  26  25  27  26  26  26  27  28  30  35  83 150 156 155 155 156 157 157 156 156 157 156 155 155
 176 175 174 175 176 175 175 175 176 176 176 175 175 174 174 175 175 175 174 174 171  94  71  57  51  50  50  51  51  51  53  52  52  53  52  50  47  46  46  46  43  26  18  16  15  15  15  16  19  18  19  17  15  14  13  15  16  17  16  14  13  14  18  24  27  27  26  25  26  26  25  25  25  25  26  28  30  35  89 150 156 155 156 156 156 157 156 156 155 156 156 154
 176 175 175 176 176 176 176 176 176 176 175 175 176 176 176 174 175 175 175 174 171 129  69  57  53  50  49  50  51  47  48  50  50  49  46  47  47  46  48  50  46  31  21  17  18  22  25  31  28  23  22  19  16  15  14  17  17  17  15  14  15  17  22  26  27  27  26  26  27  25  24  24  25  25  26  28  30  35 105 152 156 156 156 156 157 157 157 157 156 157 155 154
 176 176 175 175 176 176 176 176 176 175 176 176 176 175 176 176 174 174 175 174 173 142  69  57  51  48  50  48  46  46  47  46  47  45  45  46  47  48  51  52  51  41  28  22  20  22  26  31  29  29  31  28  26  22  18  17  17  17  17  18  20  20  24  28  28  28  27  27  26  25  24  24  23  23  26  28  30  34 114 152 154 156 156 156 156 155 156 157 156 157 155 154
 174 175 175 176 174 175 176 176 177 176 175 176 177 176 176 175 175 174 174 174 172 156  62  56  48  47  48  46  45  45  44  42  43  44  45  45  46  51  54  56  54  51  44  39  35  33  30  30  29  30  33  32  31  28  24  19  19  18  20  23  24  24  26  29  29  29  28  28  26  25  24  24  22  22  25  28  30  36 127 153 155 155 155 155 155 155 157 156 156 156 155 154
 176 176 176 175 175 176 176 176 176 176 176 175 176 175 174 176 175 174 174 174 173 168 133  57  49  46  48  46  45  41  41  41  41  43  45  47  49  54  55  58  56  56  51  46  39  36  34  34  34  32  35  33  31  29  25  22  21  20  20  21  23  24  26  30  31  31  30  30  28  28  24  24  24  23  25  28  31  37 134 154 154 155 155 155 155 156 157 158 155 155 154 154
 175 175 175 174 174 176 176 177 175 175 175 176 176 175 176 175 175 175 174 174 172 171 165  64  50  45  46  44  43  40  41  40  40  44  46  48  53  55  59  59  57  55  53  46  39  36  35  34  35  33  32  32  30  29  27  24  23  22  21  23  23  24  27  29  31  33  32  31  30  28  25  23  23  24  25  27  32  60 145 151 155 154 154 154 154 157 156 157 156 156 155 155
 175 175 175 174 174 176 176 175 175 176 176 176 175 176 176 174 175 174 173 173 172 170 165  72  48  45  45  42  40  40  39  40  40  44  46  51  54  56  59  58  59  57  52  47  40  37  34  34  33  33  30  29  29  28  29  26  23  22  21  23  23  25  27  27  29  32  31  31  29  28  27  25  24  24  25  27  31  85 145 150 154 154 154 155 155 156 155 155 155 155 154 155
 175 175 175 175 174 176 176 176 177 178 176 177 177 175 175 175 174 174 172 173 171 171 164 102  50  44  41  40  38  38  39  40  41  45  48  52  55  56  56  56  54  54  49  43  38  34  34  34  33  30  27  28  29  29  30  30  25  23  22  24  24  24  24  25  27  29  29  30  30  29  28  26  25  25  24  26  29 112 149 152 154 153 154 153 154 154 156 155 154 154 154 154
 176 176 175 176 176 176 177 178 178 178 177 178 177 176 176 175 174 174 173 172 171 169 164 127  50  44  41  39  37  37  38  39  43  46  49  52  53  52  50  49  48  49  44  40  36  36  37  34  32  28  26  28  29  31  31  33  33  29  26  25  24  24  24  24  26  26  25  27  28  27  28  26  24  23  24  25  31 123 149 152 152 153 153 154 153 153 155 155 154 154 154 154
 177 177 177 176 177 180 178 178 179 178 178 179 178 177 177 176 174 174 172 170 170 167 165 143  52  46  39  37  36  37  39  41  44  46  48  49  47  45  45  44  45  44  40  39  39  40  40  38  36  31  27  29  29  32  34  39  39  33  31  29  26  26  24  24  25  24  24  24  25  25  27  28  25  24  24  27  54 138 149 152 153 152 152 154 153 152 154 153 153 154 153 153
 178 177 178 178 178 179 179 180 181 178 179 180 179 179 176 175 175 174 172 172 169 168 166 157  62  42  37  37  37  38  39  42  45  45  42  43  43  39  39  39  39  41  43  45  49  48  45  45  45  39  35  34  33  39  42  41  35  29  28  28  30  28  28  25  24  24  22  21  21  23  26  29  26  24  25  29  84 144 152 152 152 152 153 152 152 152 152 152 153 151 152 153
 178 177 178 177 179 178 179 179 179 179 179 178 177 176 176 175 175 173 172 171 170 168 165 160  92  44  37  34  37  37  38  42  45  40  39  38  36  35  35  36  36  40  43  47  48  46  42  40  41  42  46  48  47  43  37  28  25  25  25  25  25  26  27  25  25  23  18  18  19  22  26  30  26  24  23  30 117 148 151 151 152 153 152 151 151 153 151 152 153 152 152 154
 178 177 178 177 178 179 179 180 180 179 180 178 177 175 176 176 174 172 172 171 170 167 165 160 128  46  38  35  35  35  37  40  43  35  34  32  30  28  31  33  39  43  43  41  38  33  32  32  32  30  32  34  36  31  27  24  24  23  23  22  21  20  22  23  25  21  18  18  17  19  26  30  26  23  26  53 144 150 151 150 150 149 151 150 150 150 152 152 152 150 151 151
 178 178 177 177 177 178 179 178 179 178 179 177 177 177 175 175 173 172 173 172 170 168 165 160 147  53  42  35  32  34  36  41  42  32  28  29  26  26  28  31  37  40  35  28  28  27  26  27  26  25  25  27  26  22  20  19  18  17  18  17  17  16  17  17  20  18  16  16  16  19  26  30  25  24  25  89 144 147 148 148 149 150 149 150 151 149 150 152 152 152 151 151
 178 177 177 177 177 176 179 178 178 178 177 176 176 177 175 173 174 170 172 170 169 167 163 160 153  71  46  36  34  35  35  38  42  32  27  26  24  23  22  26  30  28  23  22  22  21  20  20  20  19  19  21  20  18  16  15  16  15  15  14  13  12  12  13  14  13  13  14  16  18  27  28  24  26  35 130 144 150 150 149 150 149 152 150 150 151 151 151 152 151 150 150
 176 176 175 175 175 177 179 179 178 177 176 175 177 176 176 173 172 173 172 168 168 165 162 160 151 124  43  39  33  33  32  37  41  32  26  25  21  17  15  18  20  18  17  16  17  17  17  17  17  17  16  17  18  16  16  13  13  13  13  11  11  10  11  10  10  10  12  14  15  18  27  28  24  27  72 144 146 149 150 150 149 150 149 149 151 151 151 151 149 151 151 150
 174 175 174 175 175 176 177 177 175 176 176 174 177 176 175 173 172 172 170 168 164 163 162 159 155 141  52  40  33  32  32  36  39  33  25  23  19  14  11  11  14  17  17  15  15  17  20  21  21  18  17  16  15  16  15  14  12  14  15  14  14  14  14  13  14  14  14  15  16  19  28  26  25  29 102 144 148 149 149 149 150 149 149 149 150 150 150 150 150 150 150 150
 175 176 173 175 175 175 175 176 176 174 175 173 173 174 174 171 170 170 169 166 163 163 161 158 155 145  64  42  35  30  31  34  38  33  26  22  19  17  18  20  20  24  26  25  28  27  33  37  33  31  27  23  25  26  23  22  22  22  21  23  23  24  20  18  18  16  15  15  16  21  27  26  25  49 132 145 149 148 150 149 148 146 147 148 150 148 151 151 149 150 148 148
 175 174 173 174 175 173 174 174 175 173 172 172 173 173 172 170 169 168 168 165 162 161 159 158 153 147  74  37  34  30  28  31  36  34  26  24  20  21  23  29  32  35  40  45  44  46  49  51  50  52  45  38  46  40  35  34  36  31  29  29  30  29  26  21  18  16  15  16  17  23  26  28  25  94 140 146 147 148 150 148 148 147 147 147 146 146 149 149 150 149 148 147
 175 173 172 174 172 172 173 172 172 171 171 170 171 171 171 168 167 168 166 165 161 159 158 157 155 146  68  42  33  29  28  30  35  32  27  24  24  25  27  28  36  40  47  54  55  57  61  59  61  58  50  43  48  50  44  45  42  37  34  32  30  28  25  20  16  16  16  18  18  24  26  27  46 124 140 143 145 147 146 147 147 146 147 146 146 145 147 149 149 147 147 147
 173 172 170 172 171 172 171 171 171 170 170 170 170 170 168 166 164 164 161 160 160 158 156 155 152 143  65  47  32  28  27  28  32  31  27  24  24  26  27  27  30  37  42  50  53  59  63  59  57  51  48  42  45  47  42  43  43  38  34  31  28  24  19  16  14  15  16  18  19  24  26  25  74 131 139 142 141 143 145 145 145 144 146 145 146 146 147 147 147 146 146 146
 172 171 171 170 170 171 171 171 169 169 168 167 167 166 166 163 162 160 159 158 156 154 153 152 150 140  64  46  35  29  28  26  29  29  27  26  26  26  26  26  25  27  33  38  46  54  56  56  53  48  45  40  37  40  44  45  44  40  31  27  22  19  15  12  14  15  16  17  19  23  26  26 102 129 136 141 141 142 142 143 143 144 145 144 143 144 146 146 146 145 146 145
 169 169 169 170 169 168 168 167 166 165 165 164 163 163 163 160 160 158 157 156 154 153 152 152 150 134  62  47  35  28  27  25  27  27  26  25  25  25  26  26  23  21  21  25  32  37  39  41  41  38  37  33  30  33  37  38  34  29  24  17  14  12  12  12  12  12  14  14  16  20  24  54 125 133 136 137 137 140 141 141 140 142 141 142 142 141 143 145 146 145 145 145
 168 166 166 167 165 166 165 164 163 162 163 162 162 161 158 158 158 157 155 153 153 151 151 151 149 125  60  46  36  25  24  24  24  25  25  23  22  22  23  23  22  19  17  16  17  18  20  22  22  22  22  20  18  20  23  22  19  16  13  11   9  10  11  11  12  12  12  14  15  21  24  97 127 132 134 135 136 137 140 140 139 140 140 140 140 140 142 142 144 143 143 143
 163 163 164 165 163 163 162 162 161 161 160 160 158 157 155 155 155 154 153 152 150 151 150 148 147 118  60  47  36  27  21  21  23  24  24  23  20  20  20  20  19  18  16  14  11  11  10   9   9  10  10   9   9   9  11  10   9   9   9  10   9  10  11  11  11  11  12  13  15  18  26 114 126 130 133 132 133 134 136 137 138 138 139 138 140 140 140 141 143 142 141 143
 162 161 161 162 160 161 159 160 160 159 157 156 155 154 154 154 152 152 152 151 150 148 148 147 145 109  59  46  36  30  21  18  20  22  23  23  21  19  18  18  18  17  17  15  13  11  10  11  10   9  11  10  10  10   9   9   9   9   9  11   9  10  10  11  11  12  12  14  15  19  26 115 125 128 130 131 134 134 135 133 135 135 135 138 138 138 139 140 139 141 140 140
 160 159 159 158 158 157 157 157 156 156 155 155 154 153 153 152 152 149 150 149 149 146 145 143 144 103  56  44  35  28  24  19  17  19  20  21  21  19  17  16  16  16  15  14  13  12  11  10  11  11  11  11  10  10  10   9  10  10  10  10  10  10  10  12  11  12  12  13  15  19  34 118 122 126 128 130 131 132 132 133 134 133 133 135 134 134 138 137 138 139 140 139
 157 157 156 156 157 155 155 156 155 154 154 153 151 152 152 149 149 148 148 147 145 146 145 143 140  92  55  44  36  30  24  19  15  15  17  20  21  20  18  18  17  16  15  15  14  13  13  13  12  13  12  13  12  12  11  11  11  12  12  12  12  13  12  14  14  12  12  12  15  19  42 114 121 124 126 128 129 132 131 131 131 132 132 132 132 133 134 136 136 138 138 138
 157 156 156 155 154 154 154 154 153 151 151 149 152 150 149 149 147 146 146 146 145 144 141 142 137  83  53  43  37  32  25  20  16  14  13  14  18  19  20  20  19  19  18  17  16  16  16  17  17  17  17  17  15  13  13  12  12  13  13  14  14  15  14  15  14  12  12  13  12  20  44 114 120 123 124 126 127 127 128 129 131 132 132 131 132 132 133 134 134 135 136 136
 156 156 155 154 154 154 153 153 152 152 150 149 150 148 148 146 145 146 143 143 143 141 141 138 135  71  51  41  36  31  26  22  18  13  13  13  16  19  19  20  21  20  21  20  19  18  18  19  19  18  18  17  17  15  14  12  13  14  14  15  16  16  14  14  13  12  11  12  13  22  52 114 118 120 120 123 125 124 125 127 128 128 130 129 130 130 131 133 134 134 134 135
 154 153 154 152 152 150 150 150 150 149 149 147 146 145 146 145 144 143 141 140 141 135 135 123 101  60  49  40  36  32  29  23  19  14  13  11  13  16  18  18  21  22  23  23  20  21  20  20  19  19  18  16  16  15  15  13  12  14  13  15  15  15  14  14  14  13  11  13  17  23  53 111 116 117 120 121 123 124 124 125 127 127 128 127 130 131 130 130 131 132 131 132
 154 153 150 150 151 150 148 147 148 148 148 147 146 145 144 144 142 142 140 125  92  65  32  35  59  55  47  40  36  32  28  25  20  18  15  12  12  13  17  19  19  21  23  21  20  22  21  20  18  17  16  15  16  13  13  12  11  13  13  13  12  12  12  12  13  12  11  13  17  23  52 100 114 114 116 119 122 122 122 124 124 124 126 126 127 130 129 129 130 130 130 131
 152 151 150 150 152 150 148 149 149 147 146 147 146 144 143 142 139 126  75  33  22  21  30  50  62  50  44  39  37  32  28  25  23  20  18  15  11  12  13  16  19  19  20  17  19  19  19  19  16  15  14  14  14  12  11  11  10  11  12  10   9   8  10  10  10  11  11  16  19  23  24  20  42  69  90 109 116 117 119 122 121 122 124 125 126 127 127 129 130 129 129 131
 152 150 148 150 150 151 150 149 149 149 148 145 144 143 140 130  85  37  23  18  23  27  41  63  56  48  43  38  37  32  30  28  25  21  19  17  14  12  12  13  15  16  16  15  15  15  16  14  13  13  13  13  12  11  10  10  10  10   9  10   8   8   9   9  10  10  11  16  18  22  29  22  14  14  15  20  31  74 114 118 119 121 123 123 124 127 125 126 129 128 128 130
 151 149 148 150 151 151 150 149 149 147 145 143 143 128  77  38  27  20  16  26  26  39  64  59  53  46  42  39  35  32  30  29  28  24  21  18  17  15  13  12  12  13  11  11  13  11  12  10  10  10  10  10  11   9   9   8   8   9   9   8   9   8   9   8   9  11  12  15  18  23  28  32  26  13  12  12  14  17  38 104 118 120 120 122 124 124 124 125 126 127 128 128
 149 147 148 151 151 151 150 148 146 146 144 136  70  35  28  23  18  14  26  28  36  61  60  55  48  45  41  39  36  32  29  28  27  25  24  22  19  17  16  14  12  11  11  10  10  11  10  10   9   9   8   8   9   8   9   8   8   9   7   8   8   8   8   8  10  14  15  16  18  22  27  30  33  30  16  11  10  12  15  26  93 118 118 121 122 124 125 124 125 127 126 128
 147 146 148 149 149 149 149 146 145 143 119  44  27  22  21  19  14  20  30  28  58  60  58  51  48  44  41  39  36  33  31  31  28  26  25  23  21  18  17  17  14  13  10   9   9   9   9   9   8   6   7   7   7   6   5   6   6   7   7   7   7   8   9  10  12  14  15  17  19  22  26  28  31  33  31  18  11  11  11  16  19  73 115 117 120 120 122 123 124 126 125 127
 147 145 147 149 147 147 146 145 144 106  34  27  21  20  18  17  14  24  26  38  62  60  53  49  46  42  40  39  37  34  31  31  30  27  26  24  22  20  19  18  18  16  14  11   9   9   9   8   7   6   7   5   5   4   6   6   6   8   7   8   8   9   9  11  12  15  16  18  19  23  24  26  28  31  33  31  22  11  11  11  14  16  43 108 118 118 120 121 122 124 125 126
 145 145 146 147 147 146 146 145  92  32  26  21  18  17  17  16  16  23  26  46  59  55  52  47  44  41  40  39  36  33  32  30  30  28  27  25  23  20  19  19  18  16  16  14  12  12  10   9   7   7   6   8   7   7   6   6   8   8   9   9   9  10  10  12  13  14  16  17  18  23  23  25  28  30  31  32  32  23  12  10  12  13  16  26  84 116 119 121 121 122 124 125
 144 142 144 145 146 144 136  72  29  26  21  18  18  17  17  16  15  24  25  49  57  54  50  46  44  43  41  38  38  34  32  30  29  28  30  28  25  23  21  20  18  18  17  17  15  15  13  13  10  10   9  10   8   9   8   8   9   9   9   9  10  12  13  14  14  16  16  17  18  22  25  25  26  28  30  31  32  28  22  12  11  12  13  16  16  57 117 119 121 122 122 125
 144 143 144 144 136  99  41  30  25  20  18  18  16  14  15  16  14  21  25  50  52  53  50  44  43  42  41  41  38  36  32  30  30  28  27  27  26  25  22  22  18  18  17  17  15  15  14  14  12  12  11  10   9   9   9   8   9   9  10  10  10  13  13  15  14  16  15  16  18  22  24  25  27  27  29  31  30  29  27  18   9  10  11  13  13  16  40 112 118 121 120 122
 143 140 139 107  50  28  27  23  20  19  17  18  16  15  14  13  13  18  23  49  51  51  50  46  43  43  42  39  38  36  33  32  31  28  27  26  24  24  24  22  19  18  18  17  17  16  14  14  12  13  13  10  10  10  10   9  10  10  12  12  14  14  13  14  14  15  16  16  17  21  24  25  26  29  29  29  29  29  26  22  12  10  12  12  12  14  16  33  96 118 119 120
 138 104  54  26  26  22  22  22  19  17  18  16  13  14  13  13  12  14  22  48  51  51  48  45  44  44  41  40  38  35  33  32  30  29  28  28  26  24  24  23  23  21  18  18  17  16  16  15  13  13  12  11  10  11  10  10  10  10  12  14  14  15  15  14  15  15  15  17  17  21  23  24  26  28  29  30  30  30  27  24  14   9  11  10  11  11  14  16  20  70 115 118
  50  31  27  22  19  20  20  19  18  16  14  14  15  13  12  12  14  12  21  45  50  52  49  46  45  44  42  39  36  34  34  33  30  29  28  26  26  24  24  24  23  21  20  19  18  17  16  15  14  12  12  12  10  11  12  13  13  13  14  14  16  16  14  15  14  14  15  16  18  21  22  25  26  29  28  29  30  29  28  26  17  10  10  11  10  11  12  14  17  19  29  79
