P2
# Generated by OpenCV 3.4.0
92 112
255
 172 174 174 173 172 172 172 172 172 172 172 170 169 169 170 170 170 171 170 169 170 169 168 169 168 169 168 168 169 168 169 168 168 167 168 167 166 166 167 165 162 162 164 163 164 164 164 162 161 161 163 164 164 164 164 167 166 167 166 165 165 165 167 166 165 165 166 164 165 165 165 165 165 165 163 163 163 164 162 163 163 163 162 162 161 161 160 159 160 159 160 158
 173 172 172 173 173 173 171 171 172 173 172 171 170 170 170 170 170 169 170 169 170 169 170 170 168 169 170 170 169 169 170 170 169 168 169 168 164 166 164 164 163 156 156 157 150 156 156 158 152 150 153 151 150 156 162 164 166 168 167 167 165 166 167 167 166 165 166 166 166 165 164 165 165 164 164 164 164 163 163 163 164 162 162 162 161 159 160 161 160 160 161 159
 172 173 173 171 173 174 172 172 171 171 172 171 171 171 170 170 170 170 170 170 172 170 170 170 170 170 170 169 170 170 169 170 168 168 167 167 164 161 147 126  92  75  92  98  88  92  84  80  86  75  67  89  96 133 152 154 159 161 163 163 164 163 165 167 165 167 166 165 165 164 165 165 164 164 163 164 165 163 162 164 163 164 163 163 161 161 163 161 162 161 159 160
 173 172 173 174 173 174 172 174 172 171 172 171 171 170 170 171 170 171 171 170 170 171 170 170 169 169 170 170 170 169 169 168 164 162 160 152 112  66  45  49  50  42  44  43  44  44  42  43  44  38  39  42  45  49  79  94  94 104 153 162 165 167 165 165 166 167 165 166 166 164 166 167 164 165 165 164 163 164 162 164 163 163 163 164 160 162 162 162 162 159 160 160
 172 173 172 172 172 173 173 173 173 172 172 172 171 170 171 171 171 171 170 171 170 170 171 171 169 168 168 170 169 169 170 168 154 139 100  65  42  40  37  36  33  31  32  31  33  32  31  32  33  32  31  34  34  34  36  39  46  49  72 125 158 164 166 167 167 168 167 167 166 166 166 166 166 165 162 165 165 163 164 166 164 163 163 163 163 162 161 162 160 162 162 160
 171 172 172 172 172 173 172 174 174 173 171 171 172 172 171 173 172 172 172 171 173 171 171 170 171 170 170 169 168 164 158 111  73  57  41  40  36  32  30  27  27  28  30  26  26  25  25  26  26  28  27  25  25  28  29  31  31  32  37  54 111 148 160 166 167 168 168 167 167 166 166 166 167 164 163 165 166 163 165 164 165 165 164 162 164 164 164 162 162 161 161 159
 171 171 172 172 173 172 172 172 173 172 173 171 171 171 171 172 172 173 172 172 172 172 172 171 170 171 171 168 151 117  74  50  41  35  32  32  28  29  30  24  24  26  28  27  24  24  24  23  25  24  23  24  23  25  25  27  29  30  30  36  53  94 148 164 166 166 166 168 167 167 165 165 167 164 164 164 165 166 163 165 163 164 163 163 162 165 164 164 162 161 160 162
 170 171 172 172 173 171 172 172 171 172 173 172 171 172 172 172 171 173 173 174 173 172 171 171 170 170 170 163  97  52  43  37  31  29  28  28  28  30  28  24  24  25  24  23  24  23  25  24  24  23  25  23  22  24  25  25  25  24  25  29  33  42  98 158 165 165 165 167 167 168 165 165 166 166 166 165 165 165 165 165 165 164 164 165 164 163 163 162 162 164 162 161
 171 170 172 170 171 171 171 172 172 174 172 171 172 172 173 171 173 174 173 173 172 173 171 172 170 169 166 138  59  40  34  28  26  25  27  28  28  22  24  24  23  23  22  23  22  21  23  22  23  21  21  21  22  24  24  24  24  24  24  29  29  34  49 116 157 161 164 167 167 167 166 166 166 167 165 165 164 165 165 166 164 164 163 164 164 163 163 162 164 162 162 162
 171 171 172 171 171 171 171 172 172 172 172 171 171 171 172 172 174 174 174 173 172 173 172 172 170 163 123  61  39  33  28  26  26  25  26  26  22  20  22  22  21  18  18  18  21  20  20  21  20  19  17  19  21  23  23  23  23  23  22  25  27  29  32  40  74 136 159 166 168 168 166 166 166 166 166 166 166 165 165 165 166 164 163 164 164 163 163 165 164 164 162 162
 170 170 171 171 172 172 173 171 173 171 171 171 172 172 171 173 174 173 174 173 174 173 173 171 170 123  58  41  37  32  30  27  25  27  24  23  19  18  19  20  19  18  17  17  19  17  16  19  18  17  18  20  19  19  21  21  20  21  19  22  23  24  26  33  38  64 152 163 166 167 166 167 166 165 166 166 166 167 166 165 165 165 165 164 163 165 165 165 164 162 164 164
 171 171 172 171 171 171 170 170 171 172 171 171 172 172 174 172 174 173 173 174 175 174 174 171 157  70  41  34  32  30  28  25  25  26  23  22  19  17  18  17  18  16  16  17  18  16  17  18  17  17  17  18  19  18  18  18  20  19  18  20  23  23  24  27  31  40 124 162 166 166 167 168 166 168 166 166 165 164 164 166 166 165 166 165 165 165 164 164 164 163 164 165
 171 172 172 172 171 171 173 170 171 172 172 173 172 173 173 173 175 174 176 176 178 176 177 172 104  44  32  29  28  25  24  23  24  23  21  18  17  18  19  18  17  17  18  20  19  19  20  20  19  18  17  16  16  16  16  16  18  19  19  20  20  18  20  22  26  33  68 143 162 166 166 166 166 166 166 166 166 164 165 166 167 164 167 165 166 166 165 166 165 163 165 164
 170 170 172 173 172 172 173 171 172 173 173 172 173 172 173 174 176 177 180 181 184 183 180 139  49  37  30  29  25  24  23  23  22  19  18  18  18  19  19  20  22  23  26  28  28  28  27  26  25  25  22  19  18  17  17  16  16  17  16  17  16  17  18  20  22  27  35  94 155 163 165 165 165 165 164 167 166 165 166 165 166 166 167 165 166 165 164 165 165 164 166 164
 170 170 170 171 171 171 172 172 172 173 174 173 172 173 173 174 178 181 185 187 188 187 174  65  42  32  27  26  24  24  24  20  20  19  19  19  21  22  26  27  32  33  36  43  42  39  36  37  36  35  36  29  23  21  19  18  17  17  16  16  16  15  17  19  19  23  28  44 100 153 164 166 167 166 165 166 166 166 166 164 164 166 167 165 166 166 165 164 165 165 166 164
 171 171 172 170 172 170 171 171 171 171 171 172 171 173 172 173 176 183 184 186 187 181 109  49  36  27  25  24  21  20  19  20  21  22  23  27  30  31  37  39  46  48  48  53  53  48  51  49  49  45  48  41  34  31  28  25  24  22  19  17  16  16  15  17  17  19  22  28  43 118 157 164 166 167 167 166 167 166 165 164 166 167 167 166 166 167 166 166 166 164 165 165
 171 172 171 170 172 172 171 172 171 171 172 173 172 173 173 173 174 176 181 181 178 164  67  41  31  26  24  22  22  22  21  23  25  26  33  40  44  45  48  51  57  60  57  61  61  55  57  53  56  53  51  49  45  41  38  34  33  34  29  25  23  21  20  17  16  17  19  23  29  60 135 155 165 167 167 167 167 166 168 165 166 168 167 166 166 165 167 165 165 164 164 164
 170 170 172 171 171 172 172 172 172 172 173 173 172 172 171 171 173 174 176 177 170 133  46  37  30  26  25  24  24  24  25  28  33  38  51  61  61  63  64  66  66  66  66  67  67  65  62  59  58  54  53  51  47  47  45  45  43  43  36  34  32  30  28  24  18  17  18  20  24  34  73 144 162 166 167 168 167 167 168 167 168 168 167 166 165 166 168 167 167 166 165 164
 170 171 172 171 171 172 171 172 173 172 172 173 171 171 171 171 171 172 174 171 160  91  44  35  29  27  24  23  27  30  34  42  49  58  66  72  75  72  71  74  73  70  72  71  72  68  65  63  59  57  53  51  49  49  47  48  47  47  41  36  35  35  33  32  26  20  17  18  21  27  53 134 160 164 166 166 167 167 167 167 167 169 166 166 167 166 166 166 165 166 165 164
 173 174 174 173 172 171 174 174 173 173 173 174 172 171 172 172 170 171 171 165 142  54  40  31  27  25  23  27  35  45  53  60  64  71  75  79  81  78  77  75  77  74  74  71  72  71  67  64  61  57  54  53  50  49  48  49  46  44  40  39  37  36  36  36  34  27  19  18  19  24  34  77 148 163 164 164 167 167 167 166 166 167 164 166 166 166 168 165 165 164 164 164
 173 173 174 173 173 173 174 174 172 173 173 173 172 172 171 171 171 170 169 156  90  47  35  27  25  25  28  37  49  57  64  70  74  76  79  81  80  79  78  79  79  75  74  73  71  67  65  62  59  55  55  54  50  49  47  45  44  42  39  37  36  36  37  38  38  36  27  19  18  21  27  42 124 161 163 167 168 168 167 166 167 167 167 167 166 167 166 165 165 164 164 164
 174 174 174 173 173 174 175 174 174 172 172 172 172 173 171 171 172 170 166 132  49  38  31  26  26  32  40  51  56  58  64  68  73  76  76  78  77  74  76  75  74  72  72  71  69  62  63  62  56  54  51  51  49  46  44  43  42  40  37  36  34  36  36  37  38  39  37  27  19  19  22  30  94 156 163 166 167 165 166 165 165 166 167 166 166 165 166 166 164 164 164 164
 175 174 174 175 174 174 176 175 174 172 173 171 172 171 170 171 172 170 167  96  41  34  28  27  32  43  50  56  55  55  64  69  70  72  74  72  72  72  71  72  69  67  68  69  67  61  59  58  55  52  49  49  48  46  44  40  38  37  35  34  32  32  34  36  38  40  39  37  27  21  23  28  68 148 162 165 167 166 166 166 166 165 165 166 166 165 166 164 165 165 164 164
 175 174 176 175 175 176 177 176 175 175 173 171 172 172 172 172 171 168 145  60  40  30  28  30  41  51  56  55  54  57  60  61  64  66  69  70  72  72  70  68  67  66  68  66  63  63  62  60  55  54  51  50  49  45  44  39  38  36  33  32  32  30  30  32  34  38  40  42  38  31  24  23  34  99 159 164 166 165 165 164 165 165 165 166 166 166 167 163 164 165 165 164
 177 177 177 177 178 178 177 176 176 176 175 173 173 173 172 171 169 162  78  45  32  27  28  39  50  54  54  54  55  56  57  59  59  63  66  68  71  72  70  69  69  67  68  67  65  65  64  62  58  54  52  51  48  48  44  39  37  33  31  31  30  31  31  31  34  36  40  40  43  41  30  24  29  60 146 162 163 163 164 165 166 165 165 166 165 166 166 163 164 164 164 164
 183 180 180 181 182 180 182 180 179 178 176 174 173 171 169 169 166 131  51  39  32  27  33  49  55  55  53  52  53  55  56  56  57  60  66  68  68  67  71  71  69  70  68  68  65  65  65  63  60  57  53  53  50  51  50  40  37  34  31  31  32  31  30  31  33  35  37  38  42  45  41  29  26  31 115 161 164 164 166 166 165 163 167 166 167 165 164 165 164 164 164 164
 192 194 192 193 189 188 190 188 188 185 184 180 177 173 170 170 166  89  46  34  30  32  48  56  58  56  54  53  52  54  56  57  58  59  65  67  70  71  70  69  67  68  65  67  68  68  66  64  59  60  57  56  53  50  45  40  41  39  34  31  31  31  30  31  31  34  38  38  39  44  45  35  27  31  88 159 163 165 164 165 165 166 165 165 165 165 165 165 165 163 164 165
 198 197 203 206 204 202 200 197 193 195 189 185 179 175 170 170 162  71  39  31  32  46  59  61  59  55  53  54  54  55  55  56  60  64  66  71  75  76  76  74  72  71  70  68  69  69  65  61  59  61  59  58  52  50  47  45  44  42  38  35  34  31  31  31  31  33  35  36  39  43  45  39  27  29  59 151 162 165 164 165 165 165 165 164 165 163 164 166 164 164 164 164
 201 203 205 206 205 206 204 203 198 199 195 188 182 177 173 169 163  64  38  34  39  56  65  64  59  57  55  56  56  55  58  60  64  69  72  75  81  82  81  78  75  73  70  70  69  67  65  63  59  58  58  55  53  50  47  46  46  43  37  35  36  36  34  33  34  35  36  38  39  42  42  40  29  27  43 141 161 164 165 165 166 165 165 165 165 164 166 166 167 165 165 164
 199 199 200 203 202 202 203 202 196 194 192 187 182 178 174 171 151  59  38  36  45  59  67  64  59  59  61  58  58  61  65  70  72  74  77  79  82  82  81  79  78  75  70  69  68  66  63  57  56  54  52  52  50  48  47  46  45  43  40  40  38  38  38  37  37  37  38  38  38  41  43  40  30  26  38 128 158 163 164 165 165 166 166 167 165 165 165 166 164 165 164 164
 191 195 194 190 192 192 195 194 191 188 188 184 178 176 173 170 141  48  36  34  43  56  65  65  66  65  64  62  61  64  67  74  75  78  78  75  76  76  77  75  73  71  68  66  64  61  56  54  52  52  50  48  47  46  44  44  43  42  39  40  37  39  39  40  40  39  39  38  39  41  43  41  33  26  42 144 160 163 164 166 167 167 168 166 167 165 166 166 166 165 166 165
 181 184 186 185 185 185 185 184 184 183 180 179 176 176 174 171 139  46  35  34  44  57  64  68  65  66  66  65  63  66  70  72  77  77  76  73  72  71  71  69  68  66  64  60  57  53  52  50  50  50  50  47  46  44  42  41  39  39  38  35  35  34  35  39  40  41  40  38  39  42  43  44  35  27  40 138 163 166 167 166 165 165 167 167 166 166 166 164 165 165 165 164
 178 179 180 180 178 179 180 180 179 179 178 177 175 174 172 170 128  46  35  37  45  57  65  67  67  66  65  66  66  66  67  68  71  72  72  67  65  64  64  60  60  60  57  53  52  50  50  49  48  48  48  45  43  41  37  34  32  30  30  29  25  25  25  28  32  33  33  34  36  40  41  44  40  28  32 136 162 165 167 166 166 167 166 167 168 166 167 166 166 166 166 164
 176 177 178 178 178 178 176 177 176 177 176 176 175 174 173 170 116  48  36  35  43  57  65  68  67  66  66  66  64  62  62  57  60  59  57  55  54  53  55  55  56  53  51  50  48  44  45  46  45  46  44  42  40  37  31  28  26  22  23  21  17  17  16  19  21  23  23  25  26  28  34  39  42  28  40 138 161 164 165 165 166 165 165 167 168 167 167 166 165 165 165 163
 175 175 176 177 177 176 176 176 176 177 177 176 175 174 173 172 121  48  36  34  42  60  64  66  65  69  64  58  52  45  38  38  38  39  40  43  43  44  46  46  46  49  49  48  47  46  46  46  44  42  40  38  36  31  28  24  21  19  18  17  16  15  14  15  16  16  17  17  19  22  25  32  40  28  33 136 164 166 167 166 168 166 166 165 166 167 167 168 166 165 166 165
 176 175 176 177 177 176 176 177 177 177 177 176 174 175 174 172 127  37  37  32  44  62  63  65  64  57  49  41  41  36  35  33  30  33  35  34  37  42  38  39  41  42  46  45  44  41  42  43  43  39  38  33  31  28  25  22  20  16  16  16  16  15  15  15  16  16  18  17  17  20  23  27  34  31  33 128 163 167 168 167 169 168 168 167 168 167 168 168 167 167 165 166
 176 176 177 177 176 175 177 176 176 176 177 176 176 174 172 171 130  41  35  33  45  64  61  63  48  41  33  32  32  32  27  28  26  24  24  25  24  28  28  31  33  36  38  41  42  40  41  40  39  38  34  33  29  25  22  18  17  17  16  15  15  15  15  16  17  17  19  20  22  24  25  27  26  29  28 135 162 165 167 168 168 168 168 168 168 168 168 167 167 167 164 165
 176 175 176 176 176 175 176 174 175 175 176 176 176 176 174 170 143  47  36  33  44  62  60  46  33  31  28  29  29  27  27  26  23  20  20  20  22  22  23  28  30  32  33  38  39  38  38  36  35  34  31  30  27  25  21  18  18  17  16  16  16  16  17  18  20  21  24  25  25  28  28  28  28  29  32 129 163 167 168 167 168 168 168 168 169 168 168 167 168 169 165 166
 176 175 175 176 176 175 176 175 175 175 176 174 174 174 176 170 151  56  37  33  47  59  47  34  32  32  35  36  34  33  29  29  25  22  20  19  18  21  22  24  27  30  31  35  36  34  35  34  33  32  30  29  25  23  20  19  18  17  17  18  18  19  21  23  26  29  30  30  29  30  29  29  29  30  33 126 164 168 167 168 169 169 169 168 167 168 168 167 168 167 168 166
 176 176 176 176 176 176 175 176 175 175 175 177 176 175 174 170 154  48  35  33  49  51  37  35  39  45  47  46  43  40  37  33  28  25  24  23  20  20  22  24  25  26  30  34  35  33  33  32  32  30  29  26  24  19  18  18  17  18  18  19  22  25  30  36  36  38  37  35  34  33  31  29  30  33  30 140 166 167 169 169 169 168 169 169 169 169 168 167 167 167 168 167
 176 177 176 175 175 176 174 175 177 175 174 175 176 174 175 172 154  45  35  34  50  41  38  41  47  50  54  55  55  51  48  44  38  33  28  25  25  23  24  24  24  24  30  33  35  36  35  35  32  30  29  26  24  20  18  18  18  18  21  24  29  32  35  33  32  33  32  31  32  36  32  29  29  36  38 136 166 168 169 168 169 169 169 169 168 169 168 168 167 167 165 165
 175 176 176 176 175 176 176 176 176 176 176 176 176 176 176 173 167  61  33  34  47  44  46  47  49  54  60  68  72  69  59  51  45  40  35  31  28  26  24  25  24  27  31  35  37  38  37  37  33  33  30  28  24  22  20  18  19  21  26  29  31  30  33  38  42  40  35  33  31  31  31  30  31  39  40 132 165 169 169 169 168 168 169 169 168 168 169 168 167 165 166 166
 175 174 175 176 176 177 177 177 175 176 176 177 176 177 176 176 164  60  34  33  45  49  49  49  51  58  66  71  68  59  50  44  41  37  35  33  30  29  27  25  25  28  31  34  40  43  40  40  39  36  32  28  25  22  19  18  20  24  27  27  25  32  38  41  45  44  40  34  31  35  32  32  32  41  41 144 166 169 169 168 169 168 168 169 170 167 169 168 169 166 166 165
 174 174 175 175 175 176 176 176 176 177 176 174 176 175 176 176 165  60  34  34  51  50  49  51  55  57  48  45  54  54  51  42  35  28  27  28  28  28  29  26  25  28  32  39  43  47  47  47  43  39  32  30  26  22  19  19  22  24  24  25  30  34  38  39  39  38  34  30  35  39  38  35  37  42  48 143 165 168 169 169 169 169 169 168 168 167 168 168 167 167 165 167
 175 174 175 176 175 176 176 176 177 176 176 176 176 176 176 176 170  91  36  35  56  50  50  52  51  40  48  53  55  60  59  52  43  32  26  23  23  26  27  27  27  30  34  40  47  54  55  55  50  44  36  31  27  24  21  20  22  24  25  31  31  27  22  19  16  16  17  17  18  24  33  40  38  42  50 142 166 168 169 168 168 168 169 168 169 167 167 168 169 167 165 165
 175 174 174 176 176 176 177 177 176 176 177 176 174 176 176 175 172 106  38  37  63  52  50  53  42  49  51  64  67  61  49  40  33  26  24  23  21  24  26  27  30  32  37  44  50  59  64  64  60  49  41  34  28  24  20  22  22  24  28  25  18  18  21  14  14  13  14  19  21  18  18  35  37  41  61 154 167 168 168 167 168 169 169 169 167 167 168 167 168 167 167 167
 176 174 174 175 174 175 176 176 177 177 176 176 176 175 175 176 174 118  41  43  66  56  52  49  50  57  48  41  32  24  23  19  16  15  15  18  22  23  26  29  33  40  41  46  52  63  66  68  68  58  46  38  30  24  21  23  24  24  18  17  25  24  14  16  13  13  14  25  30  26  18  20  26  35  57 150 166 169 169 168 167 167 167 167 167 167 166 166 167 165 166 166
 177 175 175 176 176 176 176 177 177 176 176 177 176 176 176 175 173 134  43  46  70  59  52  54  62  43  26  21  23  27  24  17  14  14  15  18  17  19  24  31  40  44  44  46  51  60  66  67  70  64  48  40  33  28  24  24  23  16  15  22  40  38  13  12  13  12  15  31  36  41  22  29  29  35  47 123 165 169 167 166 168 167 167 167 167 165 166 165 166 166 166 165
 176 177 177 176 177 176 177 177 177 176 176 175 176 176 177 174 174 154  46  49  67  58  50  50  43  26  25  35  39  25  18  22  18  16  16  27  24  20  19  30  43  41  44  49  54  61  70  70  70  62  49  41  35  30  25  23  21  22  21  23  28  32  18  13  12  14  22  29  30  29  21  29  31  36  44 103 161 168 167 167 168 165 166 167 166 166 166 166 165 164 166 165
 177 177 176 175 177 175 176 176 177 176 177 176 176 175 177 175 175 168  65  52  68  58  44  36  25  24  46  54  50  34  18  16  15  15  17  29  26  23  27  33  41  39  45  51  58  67  83  81  72  63  50  43  38  35  29  26  22  22  24  25  25  25  20  18  16  16  19  19  19  19  23  30  30  36  45 120 161 165 168 168 167 166 166 167 168 165 166 166 166 165 166 164
 176 176 176 176 176 177 176 177 176 176 176 176 177 175 176 176 175 169  80  54  66  58  46  39  32  29  60  61  56  46  24  16  14  15  21  25  26  30  33  35  39  42  48  56  61  76  93  88  81  70  54  44  39  36  32  29  26  24  25  26  23  20  18  18  18  18  17  18  20  23  30  36  34  37  44  78 154 162 167 167 166 165 167 165 167 168 165 164 167 166 165 164
 176 177 176 177 177 176 177 178 176 176 177 178 177 176 177 175 175 172 107  55  64  58  51  49  41  29  28  33  37  39  34  26  23  23  23  22  27  34  39  37  43  47  51  56  67  78  91  91  79  68  58  46  40  37  33  31  30  29  27  29  28  25  22  18  18  18  17  18  20  25  31  40  39  38  41  41  75 159 165 165 168 166 166 165 164 164 166 164 166 167 165 164
 176 176 177 177 176 176 177 178 176 177 177 176 178 177 178 177 177 174 133  57  63  62  54  51  52  41  32  29  26  27  26  24  20  19  20  29  36  41  40  43  50  51  52  58  70  77  91  99  84  71  60  48  45  40  36  34  32  31  30  28  29  27  26  25  23  22  21  21  23  26  31  38  44  42  40  35  28 132 162 164 166 166 167 164 165 165 165 165 165 164 165 163
 178 177 176 176 176 176 178 178 177 178 177 176 177 177 177 177 172 136  85  54  63  65  61  60  59  47  37  32  26  24  23  21  22  27  33  37  40  43  46  49  51  52  55  64  74  90 104 102  88  82  70  55  49  44  38  37  36  33  30  31  27  28  29  28  26  26  26  26  26  31  33  38  45  44  41  35  27  95 160 164 165 165 166 166 164 167 167 164 164 165 165 162
 177 176 177 178 178 176 178 178 178 177 179 175 177 178 177 173 124  63  59  51  63  66  67  69  63  50  40  34  30  29  30  34  36  38  39  42  45  47  49  51  52  53  60  79  91 101 100  88  86  85  79  68  58  54  46  40  37  35  32  33  32  30  29  29  28  29  29  28  28  30  34  39  45  45  42  39  25  85 158 163 164 164 164 164 164 165 164 164 162 163 161 162
 175 177 176 177 176 176 178 179 178 178 178 177 177 177 176 169  69  35  33  49  63  67  70  72  68  60  50  48  46  44  43  43  44  42  43  47  49  51  52  52  51  58  73  89  94  91  83  82  80  71  66  58  58  57  50  47  44  40  35  34  34  34  31  31  30  29  28  28  30  33  37  40  43  44  42  40  27  84 157 160 163 163 164 164 166 164 163 162 162 162 161 161
 175 176 176 175 176 176 177 177 177 179 178 178 177 176 175 158  52  31  27  44  66  68  71  74  71  65  55  52  50  49  48  48  46  46  50  53  54  54  53  52  58  72  80  76  76  76  72  71  67  61  56  49  48  46  44  46  50  49  43  35  34  35  35  35  32  31  30  30  30  34  35  40  41  41  40  40  31  88 157 160 162 162 161 162 163 162 162 162 162 161 160 160
 175 175 175 174 175 175 175 176 176 178 176 176 177 176 174 149  44  28  29  46  66  67  70  75  72  70  64  60  56  52  50  49  50  54  58  61  57  54  53  59  73  77  70  66  66  67  62  58  52  49  44  42  40  35  34  36  41  41  44  41  34  35  35  35  34  32  34  32  35  33  35  36  37  38  37  40  32  90 156 160 161 162 161 162 162 162 161 160 160 159 158 159
 175 175 176 175 175 175 176 177 176 177 177 177 177 176 174 156  39  29  33  51  65  66  70  74  76  76  71  65  59  55  55  54  58  61  62  62  58  55  57  71  70  64  55  49  47  50  50  49  46  42  37  34  31  28  28  27  28  29  31  35  34  32  34  35  35  34  35  35  36  34  35  35  33  35  36  41  33  97 156 160 159 161 161 162 163 161 160 161 158 158 159 157
 176 175 175 174 175 176 176 177 176 177 176 176 177 175 174 158  45  30  45  56  65  66  68  70  70  72  69  67  65  61  60  62  64  66  64  61  57  54  62  62  54  42  38  35  36  38  40  41  40  37  33  30  26  25  22  16  13  16  21  26  31  31  32  35  35  34  34  35  35  35  33  33  32  33  33  40  34 117 156 159 160 161 161 161 160 160 161 160 158 158 156 157
 175 176 176 176 175 177 176 176 176 176 175 176 176 175 172 168  57  36  54  52  64  64  65  64  63  62  64  65  65  64  62  65  65  65  64  59  54  52  54  41  29  19  17  21  27  30  33  34  32  31  29  26  24  20  13   9   9  10  13  20  26  29  30  32  34  33  32  33  33  32  31  30  30  32  32  38  36 145 156 158 159 159 160 159 159 160 160 158 158 157 157 156
 174 174 174 174 175 175 176 176 174 175 174 174 175 174 173 173  76  44  49  49  65  60  59  58  59  62  62  61  64  64  66  67  65  64  58  55  50  49  41  26  15  11  10  11  15  22  26  28  28  27  26  23  18  11   8   9   8  10  11  16  22  27  28  29  33  32  32  33  32  30  30  30  30  30  32  40  67 152 156 158 157 159 159 158 158 158 156 158 156 156 155 155
 174 174 174 174 174 176 175 174 174 174 175 175 175 174 175 172 107  56  48  51  63  57  57  57  58  58  61  62  64  64  67  68  66  61  54  50  46  43  31  20  12  10   9  10  10  11  17  23  24  22  21  18  10   9   9   8  10  12  14  16  19  25  28  29  30  30  30  31  30  30  28  28  29  29  32  40  97 153 155 155 155 156 156 157 157 157 156 157 156 154 155 154
 175 174 175 175 174 174 175 176 175 175 174 175 174 174 175 172 154  60  58  50  61  57  55  54  55  55  56  60  63  64  67  66  63  59  53  50  46  42  28  18  13  11  10   9   8   9  14  19  19  19  18  14  11   9   9   9  11  14  16  16  20  27  28  29  28  29  27  28  29  28  28  27  28  29  30  37 119 153 156 157 156 156 157 156 156 156 156 156 156 155 154 154
 175 175 175 174 175 175 174 176 175 175 175 174 174 173 173 173 169  92  66  52  58  56  53  53  52  51  56  56  60  61  63  63  60  55  50  48  47  46  29  20  17  14  12  11  11  15  18  19  18  17  16  15  14  15  15  16  16  15  14  15  21  27  28  28  28  28  28  28  28  27  26  26  28  27  32  40 130 154 156 156 157 156 157 156 156 155 156 156 156 154 154 154
 175 174 174 175 175 175 175 175 176 175 173 173 174 174 172 173 171 130  76  62  58  53  51  52  52  53  52  53  56  56  56  56  54  51  50  48  50  49  34  22  18  18  20  26  28  30  24  22  20  18  16  16  16  18  19  16  15  14  14  18  24  28  28  28  27  28  28  26  26  26  26  25  27  30  32  44 142 154 154 156 156 155 157 156 156 156 155 154 155 154 154 153
 174 173 173 175 174 174 175 174 175 174 174 173 174 174 171 173 171 152  72  70  61  53  51  51  52  52  51  52  53  52  53  51  50  52  51  52  54  53  41  25  19  18  20  26  32  31  28  29  29  27  24  20  17  17  18  17  17  18  19  22  26  28  29  28  28  28  27  26  25  26  25  26  26  27  32  49 139 154 156 155 155 156 155 155 156 156 154 154 154 154 153 153
 173 173 172 174 175 174 174 175 174 173 173 174 173 173 173 174 172 167  77  68  58  53  50  50  51  49  47  49  50  50  49  48  48  51  52  56  57  57  50  39  31  27  27  29  31  31  31  34  36  33  30  25  20  19  18  19  23  24  23  25  29  30  30  30  29  29  27  26  25  25  24  26  27  27  32  48 145 155 156 156 155 156 155 155 154 156 155 155 154 154 153 152
 173 174 174 174 175 175 175 175 174 173 174 172 173 174 173 173 173 170 115  76  58  52  49  50  49  46  46  46  46  44  47  48  51  51  54  60  60  60  57  50  45  41  39  36  34  36  36  36  36  36  34  29  25  24  22  23  23  25  25  27  29  31  30  30  29  29  27  26  24  24  24  25  27  28  33  55 145 154 155 155 155 155 155 155 155 154 155 154 154 153 152 151
 174 174 174 174 174 174 175 175 175 174 174 173 175 174 174 174 173 171 156  80  58  51  48  47  48  45  44  44  42  43  46  48  52  54  59  59  62  62  59  55  51  44  39  37  35  37  34  33  33  33  32  29  27  24  24  24  24  25  25  27  29  32  34  32  30  30  29  27  25  24  24  24  26  28  34  64 148 154 154 155 155 155 155 156 154 154 154 154 154 152 151 151
 174 173 173 174 174 175 175 175 176 175 174 174 174 174 173 174 173 171 170  86  59  51  46  46  46  43  41  42  42  42  44  49  52  55  56  62  64  63  61  57  52  44  39  35  34  33  33  31  30  29  31  30  29  25  24  24  24  25  25  28  29  32  34  33  33  32  30  28  25  25  24  25  26  28  32  66 148 153 154 154 154 155 155 155 155 154 154 154 154 152 151 151
 174 174 175 174 175 174 175 174 175 175 174 173 174 174 173 174 172 172 167 102  56  52  45  45  46  42  43  41  41  44  47  50  53  55  58  61  62  61  62  57  50  40  36  36  35  34  31  28  28  30  31  31  34  29  25  24  24  25  24  26  28  30  33  31  32  32  31  28  27  26  25  25  24  27  33  99 151 154 154 155 154 154 154 155 155 155 153 155 154 153 152 150
 174 174 173 173 174 174 174 174 173 174 175 173 173 174 173 172 171 171 170 161  90  49  45  45  43  41  38  40  41  44  46  49  54  56  58  57  57  55  57  51  45  39  35  38  36  35  30  28  28  30  32  32  37  37  30  29  27  24  25  25  25  27  29  29  28  30  30  29  29  27  24  24  24  27  30 129 150 154 153 153 154 154 154 153 154 154 154 154 154 151 150 148
 174 174 174 174 173 174 174 174 175 175 173 174 174 174 174 172 171 170 170 165 116  50  44  41  40  39  37  39  40  43  46  49  54  54  54  52  48  49  50  46  41  40  39  44  41  40  35  29  30  31  35  36  39  40  36  34  30  28  26  26  26  26  26  26  25  27  28  27  29  28  25  24  24  26  41 141 150 152 153 151 153 154 153 154 154 154 154 153 152 152 151 150
 173 174 174 174 174 174 174 174 174 175 174 175 174 174 172 172 170 169 169 167 148  51  46  42  39  38  37  39  41  45  48  48  49  48  46  46  43  45  46  45  45  46  48  49  47  48  45  40  38  38  40  42  43  38  31  29  30  31  29  28  26  26  25  24  24  24  25  26  29  28  25  24  25  26  56 144 150 151 152 152 154 154 154 153 152 153 155 153 153 152 150 149
 173 173 174 174 175 175 175 176 176 177 175 176 174 173 171 172 170 170 169 166 158  64  47  41  38  37  38  39  42  45  46  44  43  43  39  38  40  40  42  44  47  51  50  47  43  44  44  47  50  48  45  39  31  26  26  26  26  26  27  28  28  26  25  23  21  19  23  25  29  29  25  25  26  30  79 142 149 151 150 152 153 152 153 152 153 153 154 152 153 150 149 148
 174 174 175 175 176 177 177 177 176 177 175 175 175 173 171 170 170 168 168 166 160  82  45  37  35  37  37  38  40  45  45  40  38  36  34  34  38  38  43  43  46  43  39  35  33  33  31  34  36  38  32  28  25  24  24  24  24  24  23  24  25  26  24  22  19  18  20  25  29  30  25  24  25  30 119 146 150 150 150 151 152 152 153 153 153 153 154 153 150 150 150 149
 175 175 177 177 177 177 177 177 178 178 177 176 175 173 172 171 170 167 167 165 160 108  48  38  34  36  37  37  40  44  38  34  33  31  28  31  33  38  44  44  37  30  29  28  29  29  27  27  28  27  25  23  20  20  20  19  19  18  18  19  19  22  23  19  17  17  18  24  30  30  25  24  27  45 136 150 151 149 151 151 151 150 152 152 152 151 152 152 150 150 150 148
 176 176 178 177 177 177 178 178 177 178 177 176 174 173 173 171 171 170 167 163 161 139  51  39  35  35  35  36  40  43  37  30  29  28  26  28  31  35  38  30  25  24  23  24  22  22  20  21  22  23  21  18  16  17  17  16  16  16  15  14  15  16  16  15  15  16  18  23  31  29  24  24  27  88 144 148 150 150 150 150 152 150 150 149 152 152 153 150 150 150 148 148
 177 177 179 177 177 178 178 177 176 178 177 174 173 173 171 170 169 168 165 164 161 156  67  46  38  34  34  36  39  42  36  28  26  24  24  22  24  27  25  21  19  19  17  17  18  18  19  19  19  19  18  17  14  15  15  14  14  13  12  12  12  12  12  11  13  16  17  22  30  26  24  26  31 120 146 149 150 150 150 150 149 151 151 149 152 150 152 150 151 149 148 147
 176 177 177 177 177 178 177 176 177 178 176 174 173 172 171 170 169 168 166 164 161 156 103  50  40  35  34  34  37  42  37  28  26  24  20  16  15  17  17  15  16  15  16  17  19  20  19  18  19  20  18  17  15  16  14  16  15  14  12  12  11  12  12  13  14  16  18  23  30  26  25  30  64 142 148 147 148 149 148 149 148 150 150 150 150 150 149 151 150 147 147 148
 175 175 177 177 176 177 176 176 176 176 175 173 171 171 171 171 170 167 166 164 160 157 124  48  40  35  33  33  35  39  38  28  24  21  17  12  11  12  15  17  17  19  21  24  30  34  31  31  27  24  24  23  23  24  23  22  22  23  22  21  18  17  16  16  16  17  18  24  29  26  27  27 109 144 146 148 149 149 147 149 150 150 149 149 151 150 149 149 149 149 148 148
 174 174 175 176 176 175 176 175 176 174 176 174 172 170 170 169 168 165 165 163 160 156 145  78  43  35  34  32  33  38  36  27  24  21  19  18  20  21  25  29  35  38  37  40  46  49  47  50  43  47  48  40  36  38  36  33  29  30  30  29  24  20  17  17  16  16  19  24  29  26  27  43 137 146 147 149 148 148 149 149 149 148 149 149 150 150 151 149 148 148 148 147
 172 172 173 174 175 175 175 173 173 175 175 174 172 170 170 168 168 164 164 162 160 156 150 118  44  37  33  32  33  37  37  28  24  22  22  23  27  32  36  42  49  53  54  58  60  61  66  59  51  46  53  50  48  48  43  39  35  35  32  28  26  22  18  16  17  17  18  24  28  29  27  83 140 146 147 148 147 148 149 147 148 148 150 148 150 149 150 150 148 148 148 147
 172 172 173 173 174 174 172 173 172 173 172 173 172 170 170 169 167 163 163 160 159 156 153 139  48  39  32  28  30  35  36  29  26  23  25  27  28  32  39  44  51  54  58  66  67  64  58  54  50  42  52  50  47  47  43  38  35  32  28  25  21  18  16  16  17  18  20  24  28  29  40 134 143 145 148 147 148 147 147 148 149 149 150 148 149 149 149 149 149 146 148 148
 171 171 172 173 173 173 172 170 172 172 172 171 170 169 169 167 167 164 160 160 158 155 152 133  56  35  33  29  28  35  34  29  26  24  26  29  28  28  32  36  40  48  55  62  60  60  56  49  46  39  45  45  44  46  44  37  32  27  24  20  16  14  14  16  17  18  19  24  28  28  89 136 144 146 146 147 148 147 147 146 147 147 149 150 149 148 149 149 148 148 147 146
 171 172 172 172 172 171 171 171 171 171 171 170 168 168 166 166 165 162 160 158 157 155 152 133  64  40  33  27  28  31  32  30  26  26  27  29  28  26  26  27  32  37  41  44  47  49  46  44  40  36  36  38  41  40  35  30  25  18  16  14  12  13  15  15  16  17  20  24  29  32 122 139 142 143 144 146 146 145 146 146 147 147 148 147 148 148 148 148 148 147 147 147
 171 172 171 171 172 171 171 169 170 169 170 167 167 166 165 164 163 161 158 157 156 155 151 134  61  44  31  30  28  29  31  30  26  25  26  28  27  26  24  20  20  22  24  26  28  28  29  28  27  24  24  27  27  26  21  17  14  11  10  11  11  13  13  14  15  16  19  23  26  61 126 136 140 143 144 144 144 144 144 146 144 147 147 149 148 146 145 146 146 145 146 146
 171 171 171 171 171 168 170 169 168 169 169 168 166 163 161 162 160 159 157 156 154 153 150 127  61  46  34  31  28  27  28  28  26  25  23  24  25  24  22  18  16  14  12  12  13  13  13  14  13  11  12  14  13  12  10   9   9   9   9  10  12  12  12  13  14  15  18  22  25 109 131 136 139 141 141 143 143 143 143 144 144 146 146 147 147 147 146 147 146 146 145 146
 169 169 170 170 169 167 169 167 168 166 167 165 164 162 160 160 157 156 156 153 153 151 149 119  61  47  36  28  27  26  25  27  26  24  22  22  22  22  21  19  17  14  12  10  10   9   9  10   9   9   9  10   9   9  10   9  10  10  10  11  11  12  12  15  14  14  18  22  46 124 134 135 138 140 141 142 143 142 143 143 143 145 144 146 146 146 146 146 147 145 145 143
 169 168 166 166 166 166 166 166 164 164 163 162 161 160 158 157 155 155 154 153 152 150 149 114  57  46  38  25  23  24  25  26  26  24  22  21  19  19  20  18  18  15  14  12  12  12  11  11  11  12  11  10  11  10   9  10  10  11  12  12  11  13  13  13  14  15  18  20  60 124 131 134 134 137 138 140 140 141 142 141 141 143 142 143 144 146 145 146 146 144 144 144
 165 165 164 165 164 165 163 164 163 161 162 160 159 159 156 156 155 152 153 152 151 149 147 108  57  46  36  27  21  21  24  25  25  25  23  20  19  19  20  18  18  16  14  14  13  13  13  13  13  12  12  12  11  11  11  11  11  12  12  14  12  14  14  14  15  15  18  21  64 124 132 134 134 136 137 138 138 140 139 140 140 140 143 142 143 143 145 144 145 144 144 144
 162 163 162 163 162 161 162 160 160 158 158 158 157 157 156 154 153 151 152 150 150 148 145 101  56  47  38  29  23  19  20  23  23  24  24  21  19  19  19  18  18  16  16  15  15  15  16  15  15  13  12  13  12  13  12  12  13  15  15  16  15  15  14  15  15  14  18  22  71 125 130 132 133 134 135 136 137 136 138 139 140 139 140 141 141 142 142 142 143 144 144 143
 161 161 162 161 158 158 157 158 158 157 157 155 154 153 152 153 152 151 150 149 148 147 144  91  55  46  37  31  26  20  17  18  21  22  22  23  21  20  21  21  20  18  17  18  18  19  19  19  19  18  17  16  16  15  14  15  15  15  16  17  16  16  15  14  15  15  17  23  73 123 127 128 132 133 134 134 135 136 136 137 138 137 139 139 140 140 140 141 142 141 142 142
 160 159 157 158 157 156 157 155 155 156 155 154 152 152 151 151 150 148 149 147 147 146 144  87  54  45  37  30  24  20  17  16  15  18  20  22  22  23  23  24  24  23  21  22  21  22  22  21  21  19  17  17  15  15  15  14  17  16  17  17  16  15  14  13  13  14  15  25  77 120 125 128 130 132 131 132 132 133 135 136 136 135 136 137 138 140 139 140 141 141 141 143
 156 156 156 155 157 156 153 154 153 153 153 153 150 151 151 150 149 147 147 146 145 145 140  77  52  43  37  32  26  19  16  14  14  16  18  20  21  23  24  25  24  24  24  25  24  23  22  20  19  19  18  18  16  16  15  15  17  17  16  16  16  15  15  14  14  13  16  25  80 119 123 126 128 129 130 130 130 133 133 133 134 134 135 135 137 138 140 138 139 138 139 142
 155 156 154 155 154 154 152 153 153 152 152 150 149 149 149 148 147 145 144 144 143 142 135  65  50  42  37  32  28  20  18  14  13  13  15  19  18  22  24  25  25  24  23  24  24  22  21  19  18  18  17  16  15  14  13  14  14  14  13  13  14  15  15  13  13  14  19  28  81 118 122 124 126 126 128 127 128 131 132 131 131 132 133 134 134 135 135 137 138 139 140 138
 154 154 155 154 153 153 151 152 151 151 150 149 148 148 148 145 146 143 144 141 140 140 123  60  49  42  36  32  29  23  20  17  14  12  12  17  19  22  22  24  23  22  23  23  21  20  19  18  17  17  16  14  14  14  12  13  13  12  12  11  12  14  14  12  13  15  20  28  81 116 120 122 124 125 126 126 128 130 130 130 130 130 132 133 132 133 134 136 136 138 138 139
 152 153 151 152 151 150 149 149 148 150 149 148 145 143 144 144 141 141 139 139 137 115  92  57  48  41  36  32  30  25  22  18  16  13  12  13  15  18  18  20  19  19  18  18  18  16  17  16  14  13  15  13  12  11  11  11  10  10  10   9  10  10  10  10  13  17  20  28  81 114 117 118 121 123 124 124 126 127 128 128 129 130 130 130 131 132 133 134 135 136 136 137
 152 152 152 150 149 148 149 148 145 147 146 147 144 144 144 141 138 126  85  62  34  37  58  52  46  41  36  33  30  26  23  21  18  14  12  12  12  14  15  16  14  15  14  14  14  11  13  12  12  12  11  11  10  10  10  10   8   9   9   9   9   9   9  11  15  18  21  25  40  57  81 106 115 118 119 121 124 124 127 126 128 128 129 129 129 131 131 132 133 133 134 136
 150 151 150 150 150 149 149 147 147 146 146 144 143 142 140 122  73  29  23  23  29  58  57  49  44  40  37  33  30  26  25  21  18  17  15  12  12  12  11  12  11  11  11  10  11  10   9   9   9   9   9  10   9   9   8   9   8   9   9   8   7   8  10  11  16  18  20  25  26  17  16  24  36  51  72 110 120 123 124 123 125 127 127 127 130 131 131 130 131 132 134 134
 149 150 150 150 150 148 147 148 146 145 145 143 142 131  82  34  22  16  24  28  50  63  54  47  44  39  37  34  31  27  26  24  21  19  18  17  13  12  11  10  10  10  10   9  10  10   9   9   8   8   8   8   8   7   8   8   7   9   9   8   9   8  12  13  17  18  19  24  31  31  18  12  12  15  17  24  83 117 122 122 124 124 125 126 128 128 129 129 129 130 132 134
 149 150 150 150 149 147 146 147 144 145 142 123  76  35  26  18  15  27  24  48  64  58  52  46  42  40  36  34  30  27  28  27  25  21  18  17  18  16  13  12  10   9   9   9  10  10   7   6   7   6   6   5   7   7   7   6   7   9   8   9  10  12  12  13  16  19  20  24  30  34  32  21  13  11  11  14  17  60 116 119 122 123 124 124 125 126 127 127 129 131 132 131
 148 147 148 149 145 146 148 145 144 130  71  37  30  23  16  14  28  26  43  60  60  55  48  45  41  39  36  33  29  28  26  25  26  24  22  19  18  18  16  14  12  11  10   8   9   8   8   8   6   5   6   5   6   6   6   7   7   9   9  10  10  13  13  15  17  18  20  23  28  31  34  34  24  12  10  10  14  19  43 108 118 120 123 124 125 125 126 126 127 128 129 131
 147 147 147 146 146 145 144 142 112  42  28  24  22  17  14  23  29  33  60  61  57  52  46  43  40  39  38  33  31  31  29  27  26  24  23  21  19  19  16  16  16  14  13  10  10   8   7   7   6   6   7   7   7   7   8   8   8  10  10  10  10  12  14  16  17  17  20  24  26  29  30  33  32  28  13  11   9  12  17  26  85 118 120 121 123 124 124 126 127 126 129 130
 146 145 146 145 144 143 140  93  32  26  21  19  19  15  15  25  27  49  60  58  51  49  46  42  40  38  36  33  32  30  31  27  26  25  24  21  19  19  18  17  17  17  14  14  13  12  11  10   9   9   9   9   8   8   9   8   9   9  10  12  12  13  14  15  17  18  19  22  24  27  29  30  31  31  28  17  10  10  13  15  17  58 112 119 121 122 123 124 126 126 126 127
 143 144 145 144 143 140  85  28  26  20  19  18  16  14  17  26  26  56  58  54  51  48  45  40  40  39  36  33  31  29  28  29  29  27  24  22  20  19  19  18  18  17  16  16  15  12  12  11  10  10   9   8   8   8   8   9   9  10  11  11  13  14  14  15  17  17  18  22  24  26  28  29  31  31  33  27  16   9  10  12  14  18  30  97 119 120 121 122 124 126 125 125
 140 141 143 141 130  75  28  24  20  18  17  16  16  14  17  24  30  52  57  52  50  45  44  42  41  39  37  34  33  31  29  29  29  28  25  24  23  22  19  18  18  17  17  15  14  13  12  11  11  10   9  10   9   9   9   9   9  11  13  13  12  15  14  16  16  17  18  21  24  26  27  28  29  31  32  30  25  13  10  11  12  13  16  20  82 118 119 120 121 124 124 124
 142 141 135 108  44  29  24  21  18  18  15  15  15  14  14  23  30  51  53  53  50  44  44  43  42  40  37  36  35  31  30  28  28  26  26  26  24  22  20  18  18  18  18  18  15  14  11  12  11  10  10  11  10   9  10   9  11  12  15  14  14  16  13  15  16  17  18  22  25  26  27  29  29  30  30  30  26  19  10  10  12  11  12  16  18  68 111 117 119 120 122 124
 138 113  58  28  26  22  20  18  18  15  17  15  14  14  14  19  29  50  52  51  49  46  44  43  42  40  39  35  33  32  31  29  29  27  26  24  24  24  22  21  18  18  17  17  17  16  14  14  12  13  12  11  11  11  11  12  13  15  14  15  14  14  14  16  15  17  17  22  24  25  26  28  29  30  31  30  27  24  12  10  11  10  12  13  15  19  36 100 117 119 120 123
  63  28  26  22  22  21  17  17  17  16  14  15  13  13  13  17  28  49  50  50  47  46  44  43  41  39  37  35  32  32  30  29  28  28  26  24  24  23  23  21  20  18  17  17  17  17  16  14  13  12  13  13  12  11  12  12  13  16  15  15  13  14  14  15  16  17  18  19  23  25  26  28  28  30  30  29  26  25  14   9  10  10  12  12  12  15  18  22  55 104 117 119
  27  22  20  19  20  18  17  16  13  14  15  12  12  12  13  14  26  47  52  52  46  45  45  45  42  39  38  34  34  33  31  29  28  28  26  26  24  23  23  20  19  19  20  17  18  16  16  16  15  14  13  13  12  12  14  13  15  16  16  15  14  14  15  16  16  17  17  20  23  25  26  29  29  29  30  29  28  26  15   8  10  10  10  11  12  12  14  17  19  21  58 105
