P2
# Generated by OpenCV 3.4.0
92 112
255
 174 174 173 173 174 175 174 171 172 171 170 172 170 169 170 170 170 168 170 169 170 169 169 170 169 169 168 168 168 168 169 169 167 167 166 168 167 167 167 168 167 167 165 166 168 167 166 167 166 166 165 166 166 166 167 166 166 165 165 165 166 168 166 167 168 165 166 167 166 164 165 164 165 164 163 161 163 164 164 160 162 162 162 163 161 161 161 160 159 159 159 158
 173 173 173 173 174 175 174 172 173 172 172 171 170 170 170 170 169 170 169 170 169 169 170 168 169 169 169 168 169 169 169 169 169 169 168 168 168 166 168 167 167 168 167 168 166 166 168 168 167 167 166 167 167 166 166 166 167 166 166 167 168 168 168 166 168 166 165 167 164 164 166 163 164 165 165 164 164 164 163 161 162 161 161 162 162 159 160 160 160 159 158 159
 173 174 173 173 174 174 173 172 172 172 171 173 170 170 170 169 171 171 170 169 168 169 170 170 169 169 169 168 168 170 169 169 168 169 169 167 168 168 168 168 167 168 167 168 167 166 167 168 167 168 166 167 164 165 165 167 167 166 167 167 168 167 165 168 168 166 166 167 165 165 165 163 165 166 165 166 164 163 163 160 162 162 163 161 162 160 161 160 159 158 160 160
 172 174 173 174 174 173 174 173 173 173 172 172 170 170 169 171 171 171 169 169 170 169 169 169 170 169 170 170 170 170 169 169 169 168 168 167 168 167 167 167 168 166 168 166 166 166 165 168 168 168 166 165 162 167 165 165 168 167 167 165 165 166 165 167 166 167 166 167 165 165 165 165 166 165 163 165 163 163 161 161 162 162 164 161 161 161 159 161 160 160 160 159
 173 174 174 174 172 174 174 173 172 173 172 171 172 171 171 170 171 171 170 170 170 172 170 170 170 170 171 171 170 169 169 169 170 170 168 168 168 168 166 167 166 166 164 163 163 163 161 164 164 165 164 162 159 160 163 165 165 165 165 164 164 164 164 164 165 165 166 166 165 165 164 163 165 164 163 164 163 162 164 163 165 164 164 162 163 162 163 161 160 160 161 159
 172 175 174 174 174 173 174 173 172 172 172 173 172 171 170 170 170 171 170 171 171 172 171 170 170 171 169 169 170 170 170 170 168 169 169 169 168 168 167 167 166 163 161 152 145 123 112 115 128 140 155 156 152 150 158 156 156 162 165 165 164 165 165 165 166 165 164 166 166 165 165 164 164 163 163 164 164 163 163 163 163 163 164 162 161 162 162 160 161 160 159 158
 171 173 172 173 173 172 173 172 172 173 173 172 171 171 172 171 172 171 171 171 171 171 171 170 171 171 169 169 168 169 169 169 169 170 169 169 169 166 161 154 149 120  75  52  47  51  48  50  49  49  67  73  75  80  78  89 108 147 159 160 165 164 167 166 165 167 166 168 166 167 166 165 165 165 165 164 164 165 163 164 164 164 163 162 162 163 163 162 162 160 161 160
 172 172 173 172 171 172 172 172 172 172 173 173 172 171 171 171 172 171 171 172 172 172 171 170 171 170 171 170 170 170 169 169 169 169 167 162 164 138 102  71  50  44  41  37  35  35  34  31  32  33  37  38  36  40  42  41  43  75 106 134 145 161 165 164 165 168 166 168 166 165 165 165 164 166 165 163 164 166 162 164 164 164 164 165 162 164 164 162 159 161 160 161
 171 171 171 171 170 172 171 171 171 172 172 173 173 171 170 171 173 172 173 172 172 173 171 172 170 169 171 171 170 170 169 169 167 162 147 114  76  50  43  38  35  33  34  30  28  30  26  28  29  28  28  28  28  29  32  31  34  38  39  42  59 107 157 162 165 166 165 166 166 167 166 165 164 165 165 164 165 164 164 163 163 163 162 162 162 162 163 163 162 161 160 159
 171 172 171 171 171 172 171 171 172 172 173 172 172 171 172 172 171 171 172 174 174 172 172 173 172 170 171 171 171 170 169 169 166 128  71  43  41  37  33  30  29  27  26  27  29  28  24  25  27  27  27  25  24  26  25  27  28  28  30  34  41  53 103 152 161 164 167 167 168 168 166 164 166 167 166 164 165 165 164 164 164 164 164 164 164 161 163 163 162 161 162 162
 172 170 172 172 171 172 172 170 171 173 173 173 171 171 171 171 172 171 172 174 174 173 172 173 173 172 172 171 171 171 169 167 132  63  42  35  33  29  27  25  25  25  25  27  26  24  26  25  24  24  24  24  23  25  24  24  25  27  26  27  31  36  40  87 139 161 165 167 167 167 166 166 166 166 165 165 166 165 164 164 164 165 164 163 163 164 164 163 163 163 163 164
 171 170 171 171 172 171 171 171 173 171 172 172 171 171 171 172 171 173 173 172 174 174 172 173 172 172 172 170 169 168 155 110  52  42  33  31  28  26  26  24  25  25  25  24  21  22  24  22  20  20  22  23  21  24  23  24  23  24  24  25  29  30  33  44  85 144 163 166 168 167 166 166 167 166 165 166 165 166 165 165 165 165 164 163 163 165 164 164 162 163 164 164
 170 171 171 172 170 170 171 171 172 172 173 172 171 171 173 172 173 172 173 173 175 174 174 174 174 174 173 172 169 153  95  46  39  32  29  29  26  27  27  24  24  24  22  20  17  19  20  19  18  18  17  19  21  19  20  20  19  20  23  25  26  26  28  34  46 108 161 163 166 166 165 166 167 167 166 166 166 166 167 165 165 164 165 166 162 162 165 165 165 164 163 165
 172 170 172 171 171 171 171 172 173 172 173 171 171 172 172 172 174 174 174 175 175 176 175 175 174 175 175 171 159  80  46  39  34  28  27  26  24  26  24  23  24  24  22  19  18  17  17  16  17  17  16  17  17  16  18  18  17  20  20  22  23  24  25  25  31  40 121 154 164 166 166 167 167 168 168 166 166 166 166 165 165 165 165 165 165 165 165 164 165 165 164 163
 171 171 172 172 173 172 171 172 173 172 174 172 172 172 172 174 174 176 176 175 177 179 180 179 180 179 176 146  77  44  39  32  28  26  25  24  23  23  22  22  21  18  18  18  18  17  16  17  17  17  17  18  17  16  17  18  17  18  18  18  19  21  23  22  25  30  48  96 152 165 166 167 165 167 166 166 166 166 167 166 166 166 166 165 165 165 166 166 166 164 165 164
 172 170 172 171 172 173 171 172 172 173 174 174 174 173 174 174 173 175 176 179 184 185 188 187 186 183 161  65  44  38  34  27  26  25  26  23  24  23  20  19  19  17  17  18  19  18  19  20  21  22  25  23  22  21  21  18  18  18  17  17  18  18  19  19  24  26  30  43 111 156 165 165 166 166 166 168 168 165 165 166 167 167 166 165 165 166 167 166 165 165 165 163
 171 171 171 173 172 171 171 173 171 172 174 174 173 175 174 175 175 176 178 183 187 191 191 193 190 159  73  45  39  35  32  25  23  23  22  20  20  19  17  19  18  20  19  21  22  24  27  31  33  34  39  38  34  30  29  27  26  21  18  18  18  17  17  18  19  21  25  32  85 156 165 166 167 167 168 167 167 167 167 167 166 166 167 167 167 166 167 166 166 165 165 165
 171 172 171 171 172 172 172 172 172 172 174 172 173 174 175 174 174 176 178 183 186 189 189 188 183  86  51  38  32  31  27  24  22  23  19  19  18  19  20  21  22  24  26  30  34  36  38  46  50  52  54  55  47  45  41  37  33  30  24  20  19  18  17  17  17  18  22  27  59 149 162 166 169 168 167 168 168 168 167 166 165 167 167 169 168 168 168 168 167 168 165 166
 172 172 171 171 172 173 173 172 172 174 173 172 172 173 174 174 174 173 176 177 181 183 182 178 128  55  40  35  30  30  26  24  23  23  22  20  21  22  24  28  29  35  46  49  49  49  52  58  60  61  60  62  53  50  46  43  41  39  34  30  27  25  22  19  17  18  20  23  35 109 153 164 167 168 168 168 168 169 167 168 166 168 168 168 167 168 167 168 167 168 166 165
 171 172 172 172 173 173 173 171 172 173 174 174 173 174 174 174 172 173 175 177 176 175 172 125  62  44  35  32  30  28  25  25  24  22  23  27  27  30  36  41  44  51  60  62  62  64  62  65  67  64  65  64  60  56  51  45  43  42  39  37  35  33  30  28  24  20  21  20  28  47 134 159 167 167 168 168 168 168 168 168 168 168 168 168 168 168 168 168 168 168 167 166
 172 174 173 173 173 174 174 173 172 173 175 174 173 173 174 173 173 172 173 174 174 172 145  63  47  37  32  30  28  25  23  23  22  24  32  39  46  54  55  57  62  67  68  71  71  69  67  69  67  64  67  68  65  62  55  48  46  43  40  38  39  38  37  35  35  32  26  21  23  32 104 153 164 168 168 168 167 168 169 168 169 168 169 168 168 168 167 168 167 167 168 166
 173 175 175 175 175 175 174 174 174 174 175 175 175 174 173 173 174 172 173 172 173 157  74  48  40  34  32  28  24  24  22  24  26  32  45  54  65  72  70  71  72  71  74  75  73  72  69  69  70  68  68  67  66  60  55  52  48  45  44  42  41  41  38  38  37  39  37  27  23  29  55 140 163 168 168 168 167 168 169 168 168 167 168 168 167 167 168 168 167 167 167 167
 175 177 175 175 175 173 174 176 175 176 176 174 174 173 173 173 173 173 172 172 167  96  45  40  35  30  28  25  23  25  28  32  37  46  57  64  68  70  72  72  73  73  73  71  71  70  69  69  69  69  68  68  64  60  54  52  47  46  46  43  42  40  39  36  37  40  44  39  25  27  53 137 161 167 168 168 169 168 169 168 168 167 168 168 168 169 168 168 167 168 166 164
 177 176 176 176 174 175 176 176 177 175 175 175 175 172 173 172 174 173 172 170 141  55  39  36  31  29  27  23  28  31  37  42  49  53  60  66  65  66  69  70  70  70  71  68  68  67  66  66  65  65  64  63  63  55  52  50  48  44  43  44  43  40  38  36  37  38  41  46  35  30  57 133 160 166 169 168 168 169 168 168 168 168 168 168 168 168 168 166 165 168 166 165
 177 177 177 176 176 177 178 177 177 177 176 176 175 174 174 173 172 172 171 163  84  45  37  36  31  25  26  28  31  38  47  49  53  57  59  63  64  64  66  65  64  65  61  63  64  66  67  63  63  61  62  63  59  54  54  50  50  46  43  43  44  40  37  38  38  38  38  43  45  32  51 120 160 166 169 168 169 169 168 168 167 166 167 168 167 169 168 168 167 167 166 165
 178 178 177 178 178 178 179 178 179 177 177 176 176 175 174 174 174 173 170 130  52  42  37  32  27  24  26  34  40  47  51  54  54  56  57  60  63  65  63  61  60  60  59  61  65  67  66  64  64  64  64  63  62  59  58  53  51  48  45  44  44  41  38  37  38  36  37  38  45  41  50 111 161 167 169 168 167 169 167 167 167 167 168 168 168 168 168 168 167 166 166 165
 179 180 182 183 181 182 181 180 181 180 179 179 176 176 174 173 174 172 163  74  44  38  35  29  26  27  32  42  48  52  55  55  54  54  54  57  59  61  61  62  60  61  63  65  66  65  66  67  70  66  67  65  62  60  60  56  52  50  49  47  45  45  40  39  36  37  38  39  42  46  48 106 159 167 168 166 167 168 168 167 169 168 167 169 168 168 166 166 168 168 167 166
 187 188 187 186 186 186 186 186 185 185 184 181 180 176 175 173 173 169 127  45  41  37  32  27  29  33  44  54  55  56  57  57  56  56  57  58  57  59  62  63  65  66  66  69  69  70  71  70  68  66  64  61  62  64  62  59  53  52  50  49  49  46  42  41  39  38  36  37  41  47  53 102 154 167 169 167 168 168 169 167 168 167 167 168 167 167 166 166 167 166 166 166
 196 198 198 195 200 202 199 199 196 194 191 190 187 182 179 176 174 165  74  45  38  32  30  28  32  43  56  63  63  61  63  62  59  55  57  57  60  62  65  66  67  71  71  73  75  76  78  75  74  71  68  66  64  64  63  58  53  52  52  50  48  47  45  44  43  39  37  36  39  46  51  53 121 161 168 167 168 167 169 167 166 166 168 166 166 166 167 167 167 165 165 164
 200 202 202 203 209 210 208 207 204 201 200 199 194 185 181 177 172 140  47  40  34  33  30  30  35  51  60  67  67  66  64  62  61  59  60  60  61  65  66  70  72  73  74  74  78  81  84  79  76  74  71  67  65  62  60  54  53  50  49  50  48  47  45  45  44  43  40  38  38  43  49  50  95 160 165 168 167 167 168 168 166 168 167 166 166 165 168 166 166 165 165 165
 198 200 204 204 206 207 207 206 205 204 199 197 195 187 183 178 165  82  41  37  33  32  29  31  35  46  56  65  66  65  64  66  66  65  66  65  65  68  72  74  74  75  74  74  76  78  76  75  74  72  68  65  60  60  55  51  49  48  48  47  47  46  46  46  44  43  44  40  41  45  48  52  70 146 163 167 167 165 168 166 168 167 167 166 167 166 167 166 166 166 166 166
 192 196 199 198 200 199 200 199 200 197 193 193 190 186 178 175 152  49  38  36  33  28  27  30  32  43  52  59  64  67  68  70  70  69  70  70  69  71  72  75  76  73  71  71  70  69  67  66  67  65  60  59  55  54  50  47  48  48  48  46  44  43  44  44  43  42  42  40  44  44  47  51  51 113 158 165 166 166 167 167 167 168 168 168 167 168 167 166 166 167 167 166
 186 187 188 192 189 188 191 190 190 189 189 187 184 179 177 174 126  47  37  35  30  26  26  30  33  43  49  55  61  66  69  71  73  71  71  71  71  72  74  73  73  72  71  69  66  61  58  56  58  56  54  51  49  47  44  43  45  45  45  44  43  42  40  38  36  39  38  36  39  44  47  49  52  94 158 167 167 168 166 167 167 168 167 168 167 167 166 167 166 166 167 165
 180 182 182 184 183 183 184 183 184 184 183 180 179 177 176 172 119  44  36  32  29  26  27  30  33  41  46  54  60  67  69  72  71  70  72  73  76  74  71  69  68  69  69  67  65  60  52  51  51  49  48  45  43  42  40  38  42  44  43  42  41  37  31  30  27  30  29  25  26  31  37  40  50  79 151 166 167 166 168 168 167 167 167 167 166 166 168 168 166 167 166 165
 177 178 178 180 178 180 179 179 179 179 177 178 178 175 176 171  96  41  33  30  27  26  26  27  31  36  46  53  58  65  66  68  73  74  77  80  76  74  74  64  56  53  52  53  52  47  45  45  44  43  42  42  41  41  38  39  39  39  40  37  37  32  28  24  22  20  20  19  17  21  25  26  35  56 146 163 166 165 166 167 166 166 167 166 167 168 167 167 166 166 165 165
 178 177 177 177 177 178 178 176 178 177 177 177 177 176 173 165  93  40  31  27  26  26  25  25  29  38  48  54  58  60  64  71  75  72  71  59  54  48  44  38  38  37  33  32  36  34  34  36  35  35  36  37  39  37  36  37  37  38  35  33  31  28  25  22  19  17  17  16  15  17  18  21  24  31 101 158 165 165 164 166 166 166 166 166 166 167 168 167 166 165 164 165
 175 176 175 176 178 178 177 177 176 177 177 176 176 176 174 160  70  38  29  28  25  25  25  24  30  42  51  57  58  58  66  71  66  49  45  37  33  32  32  30  27  28  25  23  23  23  22  27  27  28  30  31  32  34  34  35  35  35  32  30  29  26  23  18  18  16  15  14  16  18  19  22  23  28  56 134 160 166 166 168 167 167 168 167 168 166 168 167 168 166 165 167
 176 176 176 176 177 177 176 177 176 176 176 175 175 175 175 160  66  37  27  27  25  24  25  25  32  46  52  56  54  61  63  53  40  33  31  31  31  30  27  26  24  26  20  19  19  18  20  18  21  24  27  28  29  30  30  32  33  30  30  28  27  24  20  18  18  16  15  15  17  19  23  24  27  30  36  80 155 165 166 168 168 168 167 167 169 168 167 166 167 167 165 167
 177 175 175 176 177 175 177 177 176 174 175 175 177 177 174 147  56  34  27  28  26  25  26  26  36  49  54  54  57  55  45  38  36  38  40  45  44  38  36  30  28  25  23  19  20  17  18  19  19  20  24  25  26  30  30  30  30  29  27  27  25  22  18  18  17  17  17  18  19  21  25  28  32  34  37  62 149 165 167 165 167 168 168 168 168 167 168 167 166 166 167 166
 175 176 175 174 176 176 176 176 175 175 176 175 174 175 174 156  58  35  29  27  25  24  25  28  42  52  55  55  52  38  36  37  46  52  65  72  70  59  49  41  33  27  22  19  19  18  17  18  18  18  21  24  27  29  30  30  30  29  27  25  21  19  18  18  18  19  21  22  24  29  30  34  38  39  38  51 139 166 167 167 166 169 168 167 166 166 168 165 166 165 166 166
 175 176 176 177 175 175 176 176 176 175 174 175 174 175 175 165  74  36  29  26  24  23  27  36  50  57  58  55  40  37  40  46  54  66  72  80  75  64  54  47  40  34  27  22  21  20  18  19  19  20  22  26  29  31  30  31  31  29  27  24  23  20  20  18  19  23  24  24  24  25  28  28  29  35  38  48 134 166 167 167 168 167 167 168 169 168 168 166 168 166 167 164
 176 176 176 176 175 176 176 176 175 176 175 176 175 174 173 169  82  35  27  25  24  24  27  42  55  60  59  47  41  43  46  50  56  64  61  52  42  35  30  27  26  26  26  25  23  23  22  22  23  24  26  30  32  35  35  34  32  31  29  26  24  22  19  20  22  24  21  23  29  37  39  37  38  31  36  51 134 164 168 169 167 167 168 168 168 168 168 166 166 165 165 164
 176 176 176 176 176 175 176 175 175 175 174 175 175 175 174 170  82  35  27  24  23  24  27  43  57  60  57  49  44  43  46  50  49  44  32  31  36  39  40  37  30  25  20  18  20  23  24  24  24  26  32  36  38  42  42  40  39  35  30  27  25  23  20  22  23  20  24  31  35  36  32  29  31  33  34  60 151 164 169 169 169 168 169 168 168 168 168 166 166 165 166 164
 176 175 175 174 176 176 176 173 176 176 175 175 175 175 175 167  66  35  28  26  24  24  27  47  59  62  55  54  42  39  45  45  34  26  43  52  51  36  29  24  23  23  23  21  18  21  23  24  24  28  36  40  45  48  49  51  47  42  35  30  25  22  19  21  19  21  27  26  20  20  20  21  19  20  27  67 145 162 168 168 169 168 168 168 167 166 166 168 167 167 165 163
 175 174 173 175 175 175 176 175 176 175 175 177 175 176 175 170  74  35  29  26  25  25  29  51  61  61  56  52  39  41  43  33  27  45  40  26  19  18  18  18  18  18  16  18  20  20  22  24  25  29  39  45  50  54  59  59  57  46  40  33  27  21  20  19  20  23  19  17  18  22  31  37  38  26  23  69 123 155 166 168 168 168 168 168 168 168 167 167 167 166 165 164
 174 174 173 174 175 174 175 175 175 176 176 177 175 174 175 172 137  35  28  25  25  26  29  52  61  60  57  49  40  41  37  24  36  30  22  23  37  27  23  23  19  30  35  22  18  21  22  24  27  37  44  50  54  56  64  66  62  51  43  37  28  22  21  21  21  20  22  25  22  20  20  40  47  38  22  35  95 151 166 168 166 167 168 167 168 168 166 165 165 167 165 165
 174 173 174 173 175 175 176 177 176 174 175 176 174 175 174 172 137  41  29  27  26  30  34  52  61  59  54  49  42  39  29  32  24  20  30  51  60  57  20  22  16  22  44  39  23  17  20  26  31  42  47  50  54  57  61  66  64  55  46  39  32  24  22  19  17  26  23  22  18  16  18  30  46  50  23  87 133 159 166 167 166 167 167 166 168 167 165 167 166 167 166 164
 174 174 174 174 174 175 176 176 175 175 176 175 175 174 174 172 133  37  31  27  28  32  33  51  58  57  54  49  42  38  29  25  19  23  52  60  44  21  21  17  16  18  39  41  31  20  18  26  36  43  46  49  55  57  58  62  64  54  45  39  32  27  23  17  18  27  19  15  16  16  17  29  44  57  40 124 158 165 168 168 167 168 166 167 165 164 165 165 165 165 165 163
 174 174 174 174 173 176 176 175 176 176 175 175 175 174 174 171 139  44  31  30  28  34  34  49  56  56  53  48  42  38  32  22  19  42  70  60  44  19  18  18  17  18  34  32  25  24  24  30  41  43  47  52  54  56  58  69  70  60  52  43  35  32  25  23  23  25  24  17  15  15  19  33  41  48  47 123 160 165 167 165 165 167 166 165 165 163 165 165 165 165 164 163
 174 174 175 175 175 176 175 176 176 175 174 175 175 174 174 172 166  57  33  32  31  36  35  50  53  54  53  48  42  39  37  31  26  40  55  58  49  27  17  16  19  22  25  25  25  25  27  34  42  44  50  53  53  55  70  86  80  69  61  52  41  34  30  26  24  23  20  21  19  19  21  25  28  31  37  88 149 164 165 165 164 165 165 165 164 164 165 165 165 164 164 163
 175 175 175 176 175 174 175 176 175 175 175 176 174 175 174 173 170  84  37  33  35  36  41  51  53  52  52  49  44  42  40  40  33  29  30  33  35  32  28  29  27  22  21  21  25  28  34  39  45  48  52  53  53  65  80  85  82  79  68  58  49  40  33  31  28  26  23  19  18  18  18  20  23  26  42 100 154 162 165 165 165 165 165 166 166 165 165 164 165 164 164 163
 175 176 175 175 175 176 175 176 174 175 175 176 176 174 175 174 171 121  40  32  36  37  38  51  52  53  54  52  48  46  46  48  42  34  32  31  28  26  24  23  22  20  21  25  30  34  40  47  50  52  55  54  54  70  82  85  89  85  78  72  56  48  43  34  33  30  28  25  21  20  18  18  24  32  46  97 159 164 165 167 165 166 165 165 164 164 164 164 163 164 162 163
 174 175 176 175 176 175 176 177 175 175 176 176 177 174 176 174 172 132  42  36  37  35  34  49  53  54  55  54  55  54  54  52  45  36  32  28  25  23  21  21  24  27  29  32  34  40  47  53  52  54  55  52  59  72  88  89  87  84  83  80  64  52  49  46  37  33  31  28  26  27  25  25  27  32  50  82 158 164 165 165 166 164 164 165 165 163 164 164 164 165 162 161
 175 175 175 175 176 177 177 176 175 176 178 178 179 176 176 174 172 167  76  43  42  32  34  48  54  54  56  58  62  63  62  58  51  45  40  38  37  34  35  36  35  36  35  37  45  49  54  53  56  55  51  58  68  83  89  85  81  75  72  65  53  49  48  49  47  44  40  32  28  28  28  30  33  38  47  67 153 162 163 163 164 165 165 164 164 164 164 163 162 163 162 162
 175 175 177 176 176 177 177 177 176 177 177 177 178 176 176 173 161 129  91  59  49  37  35  49  54  54  57  62  67  71  69  67  65  59  58  53  52  47  46  44  42  39  40  48  53  55  57  56  54  52  58  74  85  78  70  65  61  58  56  51  46  42  42  41  40  40  43  44  36  30  29  31  35  39  46  56 134 162 163 165 164 165 164 164 163 163 163 164 162 162 161 161
 175 175 175 176 178 177 176 177 178 177 177 178 177 176 175 151  76  65  60  60  52  40  37  52  55  57  59  65  68  72  73  71  70  70  65  62  57  53  49  47  45  46  52  58  60  58  56  53  51  61  74  75  62  52  49  46  47  47  45  45  39  36  34  31  28  28  28  32  40  38  31  30  33  38  46  54 106 159 161 163 163 164 164 164 163 162 162 163 164 162 160 161
 175 176 176 177 179 178 177 178 178 178 178 178 178 176 169  80  44  31  33  45  49  42  38  51  55  56  58  61  66  71  75  77  77  74  70  64  59  54  50  50  52  57  61  62  62  57  52  48  54  64  58  42  33  31  32  34  38  41  39  38  36  31  28  26  23  17  15  18  27  38  36  34  35  37  44  51  75 157 161 162 162 163 163 161 163 160 161 161 161 161 160 158
 175 174 176 177 176 177 177 177 178 177 178 176 177 175 142  55  34  26  29  39  44  42  39  53  55  56  59  59  64  70  74  76  79  78  72  66  61  58  55  58  62  61  63  63  59  55  48  47  52  46  31  20  14  14  20  27  33  36  35  35  31  28  25  24  17  10  11  13  20  33  39  36  37  39  43  46  53 154 161 163 161 160 162 161 162 159 160 160 160 160 157 159
 175 175 175 175 174 178 177 177 177 178 177 176 176 175 109  43  28  24  36  45  42  41  42  53  56  56  57  57  62  66  68  67  71  72  69  66  65  64  61  61  64  64  63  60  55  51  41  49  44  31  17  11  10  11  12  16  25  30  30  30  28  25  24  18  11  10  11  12  18  29  38  38  39  40  40  43  44 142 159 161 161 160 160 160 162 160 160 159 160 158 157 158
 176 175 176 175 176 176 177 177 178 177 177 177 175 173  94  36  27  31  44  45  41  41  46  53  56  55  56  56  57  58  59  61  62  64  66  65  64  64  63  63  64  63  61  56  52  47  40  46  33  21  12  10  11  10  10  10  15  23  25  25  24  23  17  11  10  10  12  14  18  29  36  38  37  37  37  40  46 138 158 159 160 158 159 160 160 159 160 160 158 158 158 156
 176 176 176 177 177 177 177 177 176 176 176 176 176 174  90  35  29  45  53  47  30  39  40  52  54  54  55  54  53  54  54  56  57  60  62  62  61  63  66  65  67  63  58  52  48  41  38  38  26  18  12  10  10   9   9   9  11  18  23  22  20  17  11   9  10  11  13  18  20  29  35  35  36  36  38  39  41 134 157 157 157 158 158 159 159 159 158 157 158 156 156 156
 176 175 175 175 176 177 176 177 177 176 176 175 175 172 101  40  35  56  49  33  24  43  42  50  54  55  53  51  51  50  50  53  55  56  58  58  61  63  63  66  63  59  55  51  47  41  41  35  24  19  12  10   8   9  10  11  17  21  20  18  18  15  10   8  11  14  18  20  21  30  33  33  34  36  37  38  40 134 155 157 158 157 158 158 159 156 157 158 157 155 155 156
 175 175 175 175 174 175 178 177 177 177 177 176 175 172 116  43  45  52  37  28  27  51  45  52  55  53  53  50  50  48  47  48  52  52  53  56  57  59  61  61  57  58  52  48  44  44  44  33  25  20  15  12  11  13  16  23  23  20  19  19  16  17  15  15  17  19  20  20  25  30  31  32  31  36  36  38  39 140 155 157 158 158 157 157 155 155 157 156 155 155 156 155
 175 175 175 175 175 175 176 176 177 176 175 175 174 173 142  45  52  47  37  32  36  52  41  49  53  52  51  48  47  45  46  46  47  49  51  53  54  57  55  54  54  52  49  47  46  46  47  34  26  23  22  22  25  31  32  32  28  28  26  22  21  18  19  21  19  18  19  23  29  30  30  30  30  33  34  38  41 142 155 156 156 156 155 156 155 155 156 155 154 155 154 154
 174 174 175 174 175 176 176 175 176 177 175 176 175 174 167  61  56  51  42  40  39  47  41  49  52  53  50  46  46  45  44  46  46  48  51  50  51  52  52  52  49  47  47  47  47  50  50  40  26  24  25  27  30  35  35  33  34  36  35  31  28  24  20  20  22  22  22  25  30  30  30  30  30  31  32  38  47 146 154 156 157 156 155 155 156 154 154 154 153 154 154 153
 176 175 176 175 175 176 176 176 176 176 175 175 174 174 172 107  59  58  46  43  48  51  39  47  51  51  48  44  45  44  43  43  43  46  47  46  46  48  49  48  47  45  46  49  52  54  53  47  37  31  34  38  40  38  35  36  36  36  37  33  33  28  24  24  24  25  27  28  33  32  31  30  30  31  32  38  57 151 154 156 156 156 155 155 155 155 154 154 154 153 152 152
 174 175 175 176 175 176 176 176 175 176 175 174 174 173 173 158  63  69  53  43  61  51  40  47  50  50  48  45  44  42  40  42  43  43  44  44  46  44  45  45  45  47  48  51  55  57  56  54  50  45  46  45  41  38  37  36  35  34  31  30  30  30  28  25  26  26  28  28  34  35  35  32  31  31  31  37  66 150 156 156 155 155 154 154 153 153 154 154 152 152 152 152
 175 175 175 175 176 175 176 176 175 175 174 174 175 174 173 170  92  66  73  69  74  63  42  46  47  48  45  44  41  41  40  40  41  40  40  42  41  39  43  45  45  49  51  55  58  59  61  58  56  52  47  41  38  36  34  33  33  33  29  26  29  29  30  26  27  27  27  30  32  37  37  36  33  31  31  37  79 153 154 155 154 154 153 153 153 154 152 152 152 153 151 152
 174 174 175 174 174 175 175 175 175 175 174 175 174 173 172 170 137  61  57  70  72  60  41  42  47  46  45  43  39  39  40  40  40  39  38  39  40  39  41  43  46  51  53  56  59  65  66  64  63  56  49  41  39  37  36  36  37  32  28  27  30  30  32  31  27  26  26  30  30  37  39  38  38  33  32  37  96 151 155 154 153 154 154 154 154 153 152 152 152 151 150 149
 174 174 174 173 175 176 174 174 175 175 172 174 172 170 172 171 168  86  62  72  67  54  44  44  48  43  45  39  38  37  38  39  38  37  38  38  39  39  40  45  49  52  55  58  61  65  66  63  61  55  50  42  38  38  41  39  38  33  30  30  32  33  36  36  33  30  28  27  28  33  37  38  38  37  35  39 110 150 155 154 154 153 152 154 152 151 151 151 150 151 150 149
 174 174 174 174 174 174 175 176 175 175 174 173 174 173 174 172 171 150  76  74  66  56  45  43  48  42  43  39  38  37  37  38  36  36  36  37  38  39  40  44  48  53  56  61  60  59  57  55  55  52  46  42  42  43  46  44  44  42  33  33  34  35  38  40  37  35  32  30  29  32  32  34  38  38  37  35 128 152 154 154 154 154 154 152 151 149 148 149 149 150 149 148
 174 174 174 173 174 175 174 175 174 174 173 173 174 174 173 172 171 168 144  73  60  48  40  38  46  42  39  38  37  35  36  35  33  33  32  35  37  37  40  45  48  54  57  56  55  53  50  51  51  50  48  47  50  53  52  48  47  47  46  44  43  43  41  34  30  30  32  33  32  30  29  30  34  38  36  42 140 152 152 153 154 152 152 150 150 149 152 149 147 148 147 147
 174 174 173 174 174 175 174 174 174 173 174 173 175 174 173 173 171 170 165 114  47  37  29  47  46  43  37  35  36  34  34  34  35  32  30  33  36  36  40  45  48  51  51  52  49  48  46  45  44  46  51  50  53  51  44  38  34  33  34  37  41  34  29  26  26  28  28  27  31  32  29  28  30  37  32  52 147 152 152 152 152 152 152 148 148 149 150 148 147 148 147 147
 174 170 173 173 173 173 174 174 174 174 174 174 173 173 173 172 171 170 168 164 142 123 142 110  51  43  37  36  35  36  35  34  34  32  32  33  35  37  41  43  46  46  47  47  44  43  44  43  44  49  49  49  43  36  32  31  32  30  28  30  30  26  24  24  24  24  25  24  26  29  30  26  27  34  32  64 146 151 152 151 151 151 152 150 150 149 148 148 148 147 147 147
 173 173 174 172 174 174 174 173 174 174 174 173 174 173 172 172 170 171 168 166 164 160 158 128  50  44  38  37  36  34  32  32  31  31  33  32  34  37  40  44  43  42  41  41  38  39  40  41  46  49  45  36  29  28  27  26  25  24  23  24  25  22  19  18  19  19  19  21  22  24  29  25  26  32  34 102 146 150 151 150 149 150 150 148 149 149 148 148 148 147 146 144
 175 174 173 174 174 174 175 174 173 173 174 174 173 172 170 170 170 169 168 167 164 162 159 149  51  48  40  36  33  29  29  30  32  31  32  32  35  37  38  39  36  36  38  36  35  37  36  38  42  39  29  24  23  21  21  19  19  19  19  20  21  18  17  15  17  17  16  17  18  20  25  24  25  32  31 123 147 150 150 150 149 149 149 148 147 148 148 146 147 147 146 145
 173 173 173 174 173 174 175 174 174 174 174 174 172 171 170 169 170 167 166 167 164 163 160 151  53  47  40  36  32  29  30  29  31  31  31  32  36  37  38  38  33  32  34  33  33  33  29  32  31  25  22  19  18  17  17  16  18  17  18  18  19  17  16  13  15  14  14  15  15  17  19  20  25  32  43 138 147 151 151 150 149 148 149 148 147 147 146 145 146 146 146 145
 176 175 174 173 174 176 176 176 176 176 175 174 172 173 171 171 169 167 168 166 162 161 160 152  62  47  41  37  33  30  28  29  30  30  30  33  35  38  39  38  32  31  32  31  28  23  22  22  20  17  15  15  16  19  20  20  20  18  17  17  17  16  16  15  17  16  13  12  12  14  16  19  25  31  73 143 147 149 150 151 150 148 149 147 146 146 147 147 147 146 145 144
 174 174 175 175 177 177 178 177 177 177 177 176 175 174 172 171 170 169 167 164 162 160 159 151  74  44  43  38  36  33  32  29  29  30  30  32  34  37  39  37  33  30  30  26  22  18  15  14  14  17  18  23  28  30  37  39  38  37  32  30  34  28  26  25  25  26  25  20  16  17  18  20  26  31 105 146 149 150 150 150 149 148 147 147 147 146 146 146 145 145 144 144
 175 174 175 176 177 178 179 177 177 178 177 176 174 173 171 171 170 169 166 164 162 159 158 153  72  43  42  38  36  34  31  29  28  28  30  31  33  36  39  37  33  29  26  24  20  16  15  21  28  32  42  49  50  56  57  60  57  55  45  41  49  42  39  40  38  36  37  35  27  23  21  22  30  40 135 145 147 150 149 150 148 147 148 147 146 147 147 146 145 144 144 143
 176 175 176 176 177 177 177 177 177 177 176 176 175 172 172 170 170 170 165 162 160 158 157 152  76  43  40  37  35  33  30  29  28  28  30  31  32  35  37  36  30  28  26  25  23  25  30  31  38  44  53  58  61  64  66  64  60  52  49  44  51  49  43  42  40  39  36  34  31  26  22  24  33  70 141 147 147 147 146 147 147 148 146 147 146 146 146 145 145 145 143 142
 175 175 176 176 177 176 177 176 176 176 175 176 172 172 172 170 168 169 167 163 161 159 157 152  81  45  34  34  32  32  31  27  28  28  29  31  32  35  37  35  30  28  26  26  25  28  33  38  41  43  47  48  58  58  59  57  53  49  46  41  44  43  42  43  42  36  33  32  28  25  24  27  35 102 142 146 147 148 148 147 147 146 146 146 146 145 144 145 144 143 143 144
 174 175 176 177 176 176 176 176 176 174 175 173 173 172 170 169 169 167 165 163 158 159 155 150  82  51  37  34  34  32  30  28  27  26  26  28  32  34  34  31  29  26  26  27  29  27  27  30  34  35  35  36  41  47  47  47  46  43  40  36  35  36  40  40  37  32  27  27  25  23  24  29  43 130 141 144 145 146 146 147 147 146 147 147 146 146 144 144 145 144 141 141
 175 177 174 176 176 175 176 175 174 174 174 173 175 173 171 169 170 167 165 162 159 157 154 149  84  51  37  31  33  33  31  28  27  26  25  25  29  32  33  30  27  26  26  27  28  26  25  25  26  25  25  28  27  31  30  29  30  28  29  26  25  26  28  28  25  23  20  20  20  21  26  32  62 137 144 144 145 147 147 148 147 148 148 146 146 146 144 144 143 143 143 141
 174 174 172 173 175 174 175 174 174 173 173 172 172 172 170 170 169 166 164 162 159 156 153 148  86  51  41  30  29  28  28  26  26  24  25  26  29  31  31  28  28  27  26  27  26  24  23  23  20  18  18  18  17  17  16  15  15  15  14  14  14  15  15  14  13  13  14  16  18  20  25  32  83 136 142 144 146 146 147 148 147 148 147 146 146 145 145 144 144 143 141 142
 172 172 172 173 173 174 173 172 172 171 171 171 173 170 168 167 167 165 163 160 158 155 154 146  90  53  44  35  27  26  25  26  24  24  24  24  27  28  29  28  26  25  25  27  27  24  22  20  18  16  14  13  10  10   9   9   9   9  10  10  10  10   9   9   9  11  14  16  18  22  24  30 109 138 141 142 144 144 145 146 146 146 146 147 145 145 145 145 143 143 141 140
 172 170 172 172 173 173 173 172 171 172 171 172 171 169 167 167 165 165 163 159 157 156 153 146  88  52  44  36  29  26  25  26  24  23  23  23  26  27  27  26  24  22  21  22  23  22  20  19  16  14  13  12  10  10  11  10  11  10  10  11  11  10  10  10  11  13  15  16  18  21  24  33 124 138 142 143 142 142 144 143 146 145 146 145 146 145 145 142 144 144 142 140
 173 171 171 172 172 172 172 171 170 170 170 171 170 168 167 166 164 164 160 157 156 155 152 144  86  52  44  38  30  25  25  24  22  23  21  21  22  24  25  25  23  21  19  19  19  18  17  17  16  15  13  13  12  11  12  12  12  13  13  12  11  11  11  11  13  14  15  15  16  20  24  58 130 138 140 141 142 143 144 143 145 145 144 144 144 145 146 143 145 143 143 141
 172 171 172 171 172 171 171 168 167 170 169 168 169 166 165 163 162 161 159 156 155 153 152 147  80  53  44  37  31  26  24  25  24  21  20  22  21  21  23  23  22  20  18  17  17  16  16  16  15  15  12  13  12  12  13  13  14  15  12  12  12  12  11  13  14  15  15  15  16  18  25  75 134 138 139 139 140 141 143 143 145 143 143 143 143 144 143 143 143 142 140 140
 170 168 170 169 170 171 168 167 166 167 167 167 167 164 163 160 160 159 158 156 154 152 152 146  81  53  45  38  32  27  21  20  19  19  20  20  22  19  20  22  21  19  18  16  16  15  16  15  13  13  14  14  14  15  17  17  17  16  14  14  14  15  14  15  15  15  16  16  17  19  22  88 132 137 137 140 140 140 142 142 143 142 142 143 144 141 143 144 141 140 140 140
 169 168 169 167 169 170 167 165 168 165 165 164 164 162 161 160 157 157 154 153 151 152 151 147  73  52  44  39  33  27  22  19  18  19  18  19  20  19  19  20  20  19  19  18  17  16  16  15  13  14  15  17  18  21  21  21  21  20  17  16  15  15  15  15  15  16  18  18  19  21  28 114 133 135 137 138 140 139 140 139 142 142 142 142 143 142 143 142 141 142 140 141
 167 166 168 166 166 166 165 164 165 164 163 162 162 162 158 157 155 155 152 152 151 151 149 144  70  51  44  39  34  29  24  20  17  17  16  16  17  17  17  19  19  19  18  18  18  18  18  18  18  18  19  20  21  22  24  22  20  19  18  15  15  14  14  14  15  17  18  17  18  21  43 119 132 134 135 136 137 139 141 140 141 141 142 143 143 142 141 141 142 142 142 141
 165 166 164 166 163 164 164 163 162 163 160 160 160 158 155 154 154 152 152 152 150 149 148 139  65  50  45  38  33  27  24  18  17  17  14  14  13  14  16  17  16  18  20  20  21  21  22  22  22  22  21  24  25  24  24  20  18  18  16  15  15  14  14  15  16  16  18  17  18  22  49 124 131 133 133 136 136 136 138 139 140 139 140 141 141 140 142 142 142 142 141 140
 164 163 164 163 163 163 163 161 160 160 160 157 156 155 155 154 152 152 151 150 148 148 146 137  61  50  44  39  33  27  25  21  17  16  13  14  15  12  13  14  16  17  19  19  21  23  25  25  24  24  24  26  25  24  22  18  16  15  15  14  12  12  12  12  13  15  17  18  19  25  84 125 132 132 134 135 134 134 135 135 136 140 140 140 142 140 140 142 140 141 140 139
 161 162 161 161 161 161 159 158 159 156 156 154 155 153 151 151 150 149 149 148 147 146 144 129  61  49  44  39  32  27  24  21  18  16  13  14  14  12  13  13  14  16  17  18  21  22  24  26  24  22  23  24  22  20  18  15  15  13  13  11  11  10  12  11  12  12  15  17  19  38 110 126 129 132 132 133 133 133 132 134 136 138 137 138 140 140 140 140 140 140 140 139
 159 160 160 159 157 157 158 156 156 156 154 153 153 152 151 151 150 149 149 148 146 146 142 122  60  48  42  37  32  29  24  20  18  14  12  12  12  13  11  12  13  13  16  18  21  22  20  23  20  19  19  19  17  15  14  12  12  11  12  11  10   9  10  10  11  10  13  14  18  80 122 126 127 129 131 133 132 133 133 134 135 135 136 138 139 138 138 139 140 139 139 137
 159 158 158 158 157 156 156 155 155 154 155 153 153 151 151 149 150 147 146 146 146 144 142 112  57  48  41  37  33  31  26  20  18  17  14  12  12  12  12  12  11  11  12  14  16  18  18  17  15  16  15  15  13  12  11  10  11  11  11  10   9   9   8   9  10  11  12  14  34 112 122 122 126 128 129 130 130 132 132 131 132 134 135 136 137 137 138 140 140 140 139 139
 157 158 156 156 155 155 155 154 153 153 152 151 152 149 148 148 147 146 145 144 143 144 141 102  55  46  41  37  33  32  27  22  19  17  13  12  11  11  10  11  10  10  11  12  13  13  14  13  11  12  12  11  11  10   9   9   8   9   9   8   8   9   8   9  10   9  11  16  55 115 121 123 126 126 128 128 128 130 131 132 132 133 134 136 135 136 138 139 138 139 140 139
 156 155 157 155 156 155 155 154 152 152 152 150 149 148 148 147 145 146 143 144 142 141 138  88  53  45  41  36  33  31  29  24  20  18  15  14  12  12   9  11  11  11   9  10  10  11  11  12  11  11  10  10  10  10   7   7   7   9   9   7   7   9   8   9   9  10  12  20  57 114 120 121 122 125 125 127 129 130 129 130 130 132 132 132 134 134 136 136 136 138 137 137
 156 155 155 152 152 153 153 150 148 150 148 147 147 145 146 146 142 142 141 140 137 137 132  74  51  44  41  36  35  32  29  27  25  20  19  15  12  12  11  10  10  11  11  10   9  11  11  11  10  10  10   9   8   8   6   6   6   7   9   8   8   8   9   9  10  10  18  25  53 113 119 121 121 122 124 126 126 128 128 128 130 131 132 131 132 133 134 134 135 136 135 136
 155 154 153 153 154 152 152 150 148 147 148 147 146 146 145 143 141 138 133 117  87  66  58  60  48  43  41  37  34  33  30  27  26  22  19  18  14  14  12  11  10  10   9   9  10  10   9  10   9   9   9   8   8   8   7   6   7   8   9   8   9   8   8   9  11  15  19  25  46  89 113 118 119 120 122 123 124 125 125 127 128 128 128 130 131 132 133 133 134 134 134 134
 152 152 153 152 152 152 150 150 150 147 148 147 147 144 142 140 131  86  44  19  23  37  61  54  47  44  39  37  35  32  30  29  26  25  22  20  18  17  12  12  12  12  11   9   9   9   9   9   9   8   8   8   6   5   7   8   6   7   8   8   8   8   9  12  15  18  21  25  29  19  25  48  72  94 104 119 120 124 124 125 125 127 127 128 128 130 131 131 132 133 132 134
 153 153 153 152 152 151 151 148 149 150 147 145 144 142 135  95  33  22  19  24  29  56  59  51  46  42  38  36  36  33  31  30  31  29  25  23  19  19  18  17  14  15  13  12  11  10   9   9   9   8   6   7   7   7   5   7   7   7   7   8   8  10  12  15  15  18  23  25  30  31  17  15  14  18  21  47 106 120 122 122 125 125 126 126 127 129 128 131 131 132 132 132
 152 151 151 151 152 151 149 150 148 146 145 143 133  97  48  26  19  16  28  24  54  62  55  47  43  40  40  36  34  33  31  31  30  30  28  27  21  20  19  20  17  17  15  15  14  12  10  10   9   8   7   8   7   7   7   7   7   8   8   9  10  10  11  15  16  18  20  24  28  33  32  21  12  11  11  16  25  90 118 119 122 124 124 126 126 127 127 131 130 131 131 131
 150 150 152 151 151 148 149 149 147 145 135  86  42  28  24  16  17  30  26  47  63  57  51  46  43  40  39  37  35  33  32  32  30  30  29  28  26  24  22  22  21  18  18  17  16  13  13  13  10  10   9  10   8   9   8   8   9   9   9  10  11  13  13  15  18  18  22  24  27  31  34  34  24  12  11  11  15  18  68 117 118 123 124 123 125 126 127 128 128 130 132 131
 148 149 151 151 149 149 147 146 146 119  43  30  24  22  16  14  27  29  40  62  59  55  49  44  42  40  39  38  36  34  32  33  32  30  30  28  28  25  25  24  21  20  19  18  19  16  15  14  12  11  10  11   9   9   9   9   9  10  10  11  12  14  13  16  17  18  21  23  26  30  31  34  34  29  15  12  10  13  17  46 106 118 120 122 124 124 124 126 127 129 128 131
 148 148 150 149 148 146 146 143  94  35  27  21  20  19  14  20  29  28  58  62  58  52  47  45  42  39  39  38  35  35  34  33  33  31  31  30  27  26  25  23  24  22  20  19  19  18  16  14  13  11  10  11  10  10   9   9   9  10  10  12  11  14  15  16  17  19  22  23  25  28  30  32  33  34  30  17  11  11  14  17  26  91 118 119 121 122 124 124 125 127 127 128
 148 147 147 147 146 146 142  90  27  26  21  19  18  17  14  21  27  37  60  59  56  49  46  43  40  39  39  36  37  34  32  31  33  33  33  30  30  27  26  25  24  24  22  22  19  18  17  15  13  10  10  10  10   9   9  10   9  10  11  13  13  15  15  17  17  18  20  22  25  28  29  31  32  33  34  28  16  10  10  12  14  17  53 111 119 122 123 123 125 126 125 126
 144 144 145 146 144 135  80  30  24  21  19  16  17  17  14  21  26  41  59  55  52  49  46  42  42  41  38  37  36  33  34  33  32  32  33  31  30  29  26  26  24  24  23  20  20  18  15  14  12  11  11  10   9   9  10   9  10  12  12  14  15  15  16  16  16  17  19  21  24  27  28  29  30  31  32  30  25  14  10  12  12  14  17  34 102 120 123 123 125 124 124 124
 143 143 143 141 117  47  26  24  20  18  18  16  14  16  14  20  25  45  55  56  52  48  44  42  41  40  40  38  36  34  34  33  32  32  32  30  30  30  29  27  25  25  23  22  20  19  15  14  12  12  12  12  12  12  11  10  10  13  13  14  16  16  16  16  17  17  18  21  24  26  29  29  30  31  31  30  28  20  10  10  11  12  14  16  24  96 118 120 123 123 124 124
 142 140 127  67  25  29  23  20  19  16  15  16  15  14  14  17  22  47  54  54  52  47  45  42  43  40  40  37  36  34  34  33  32  33  30  30  29  30  29  29  26  25  24  22  21  18  17  15  13  13  13  13  12  13  12  11  12  14  15  16  16  16  16  17  17  16  19  20  24  26  27  29  30  29  32  31  28  24  12  10  10  11  12  13  16  18  66 114 119 120 122 123
 124  78  31  27  24  22  21  18  18  17  15  14  14  14  14  14  19  47  54  52  50  48  45  42  42  39  38  37  37  36  34  33  32  32  31  31  30  29  29  27  28  26  24  22  20  18  16  15  13  13  12  13  13  14  13  12  13  15  16  17  16  16  15  16  17  17  19  21  23  26  27  28  30  30  31  30  28  26  14   9  10  10  11  10  12  14  18  33  90 117 118 121
