P2
# Generated by OpenCV 3.4.0
92 112
255
 151 152 154 152 153 154 152 154 156 154 154 156 157 156 159 160 161 161 161 160 162 161 162 159 150 141 124 124 129 103  72  63  62  75 100 111  89  73  71  70  89  98 107 143 159 165 168 172 173 175 174 176 178 180 181 181 182 183 183 184 184 184 186 185 187 187 188 187 187 189 189 187 190 190 189 189 190 192 192 192 191 192 194 195 196 195 195 196 196 197 197 198
 151 152 153 152 155 154 152 155 155 155 158 157 157 158 159 160 160 161 162 161 162 161 157 142 107  85  88  82  60  63  58  51  47  49  50  51  58  55  54  53  56  59  67  80 109 131 131 152 162 164 162 170 172 180 180 181 183 184 183 184 185 185 186 186 187 188 188 187 188 191 189 190 191 190 189 191 193 192 195 192 193 192 193 195 195 196 196 195 196 198 197 198
 153 152 153 152 155 154 155 156 156 157 157 158 159 160 160 157 160 162 160 161 158 148 132  98  84  95  95  82  57  51  50  47  36  40  46  46  43  42  46  51  50  47  48  54  69  68  62  75  99 112 104  91 142 163 173 178 181 182 183 184 183 186 186 187 187 188 188 189 189 191 190 189 191 191 192 192 193 194 194 194 194 195 195 196 196 195 196 195 196 197 196 197
 154 154 155 153 155 154 158 156 160 160 160 160 161 159 160 160 161 161 159 149 137  74  64  71  81 101  80  57  49  50  44  43  39  36  41  41  39  39  41  44  50  52  49  45  49  54  55  54  52  60  57  56  60  97 137 161 175 177 177 182 185 186 187 188 187 188 188 190 189 192 191 191 192 192 191 193 193 194 195 194 194 196 196 195 195 196 195 196 196 199 198 199
 155 155 156 154 156 158 158 160 159 160 160 161 161 161 162 163 161 156 146 124  70  59  49  47  63  69  79  71  49  42  41  34  33  34  34  32  36  38  38  43  44  40  40  40  41  47  50  47  42  49  60  56  57  67  84 115 118 128 152 171 181 186 188 186 188 188 189 191 192 191 192 191 192 192 193 194 194 195 195 196 194 196 197 196 195 195 195 198 199 200 200 200
 156 156 158 158 158 158 159 160 160 161 161 161 163 161 163 161 157 151 111  77  69  81  72  51  49  48  51  68  57  41  33  27  25  24  26  30  31  34  36  38  40  40  36  33  32  37  47  51  41  40  43  46  48  51  54  68  83  71  73 119 165 184 188 189 189 189 191 189 190 191 193 194 193 193 194 195 195 195 195 196 196 199 197 196 196 199 199 200 201 201 199 199
 155 158 158 158 158 158 160 160 161 161 162 161 164 162 163 160 144 118  70  57  59  68  69  58  50  46  42  38  44  40  27  25  23  25  26  30  33  37  34  30  32  36  40  38  33  30  33  42  46  48  44  42  43  41  39  49  70  84  66  79 132 182 186 187 188 190 191 191 190 191 192 194 194 194 194 194 196 195 195 195 196 198 198 197 196 196 198 200 200 197 199 199
 158 159 160 158 159 159 159 160 161 160 160 161 163 163 164 155 126  92  55  60  66  58  46  39  59  43  54  35  28  26  21  18  19  17  21  26  30  32  36  32  28  29  35  39  45  33  26  26  28  35  36  39  39  36  30  44  59  72  59  61  84 150 175 181 187 190 190 190 192 194 191 194 192 192 195 196 196 194 195 196 195 199 198 197 198 197 198 200 200 201 199 199
 159 160 159 159 159 160 160 161 162 161 162 162 162 164 162 155 134  80  51  56  83  78  55  34  36  35  40  50  24  22  23  21  22  21  20  22  25  28  28  30  36  36  32  33  34  38  39  36  30  25  24  26  26  30  28  32  39  48  53  50  51  86 143 169 182 190 190 192 191 192 192 193 193 193 194 195 196 195 195 196 194 199 199 198 197 197 199 200 201 201 202 200
 159 159 159 159 158 159 160 161 163 164 163 164 164 163 163 156 145  87  52  50  77  75  59  39  28  29  27  33  27  21  20  19  21  22  26  26  25  26  29  32  32  36  38  34  31  31  38  48  50  47  32  26  25  23  23  29  32  36  36  42  42  64  91 115 167 186 190 192 190 193 193 193 192 194 195 193 195 194 195 195 196 199 199 194 197 198 202 200 200 199 200 200
 160 160 160 159 160 160 161 161 163 163 163 163 164 164 160 159 155 112  69  47  51  50  48  38  26  24  23  26  29  25  17  21  21  19  22  22  23  23  25  28  30  33  37  35  34  31  28  32  40  45  43  34  33  33  29  26  28  32  30  35  33  44  69  80 113 173 182 187 188 192 192 192 194 195 194 194 194 196 194 197 196 198 199 198 197 198 198 198 200 200 199 200
 160 160 160 159 160 161 162 164 163 162 163 165 164 164 163 163 146 111  66  42  43  42  44  37  30  23  23  27  28  22  21  27  30  23  22  21  23  24  25  26  29  27  30  33  32  35  38  36  33  34  41  42  35  36  38  37  28  27  30  32  30  36  48  62  74 127 151 146 171 188 192 193 194 193 195 195 195 195 194 194 195 202 198 195 196 199 200 198 201 201 200 201
 161 162 161 160 160 160 161 163 161 162 161 162 163 164 163 157 120  78  42  29  29  30  34  28  25  23  24  24  21  20  24  27  29  30  24  18  17  18  18  18  20  19  21  23  24  27  29  30  29  29  24  26  29  35  34  40  36  28  26  26  28  30  37  47  64  94 110  98 141 186 192 192 192 195 195 194 195 195 195 195 199 202 198 197 196 197 198 197 201 199 199 200
 161 161 162 160 159 160 161 162 162 162 163 164 164 164 157 136 110  61  32  24  22  23  26  25  25  23  21  20  22  23  25  26  28  27  24  20  16  17  15  15  14  15  16  18  18  22  24  27  30  32  32  31  29  33  28  28  27  26  24  23  26  28  34  36  51  76  73  67 116 178 188 192 192 195 196 195 195 195 196 195 197 200 198 198 197 197 198 197 199 199 199 201
 160 162 162 160 161 161 162 163 164 164 165 164 164 163 151 141  91  45  30  23  22  23  24  23  21  20  23  25  26  29  30  30  26  19  18  18  17  17  16  14  14  14  14  14  15  17  20  26  30  33  38  38  37  36  31  30  31  28  23  19  22  27  37  39  42  52  49  60 103 152 177 190 192 195 196 196 196 195 196 197 199 201 197 198 198 199 198 200 201 200 201 202
 163 162 161 162 162 163 164 164 163 166 165 165 164 155 130  94  47  38  30  26  24  23  21  15  19  22  24  23  24  23  22  20  18  17  14  14  15  17  16  14  14  16  14  14  17  18  20  24  25  26  31  35  34  32  35  40  39  38  28  21  26  34  38  40  40  37  40  55  86 117 175 189 191 194 196 195 196 194 195 194 198 200 197 197 199 197 197 200 199 196 199 200
 164 162 162 163 163 164 165 164 165 166 165 165 150 123 100  47  38  30  29  26  22  20  18  17  20  22  19  16  16  15  14  13  14  13  14  14  14  15  15  15  15  15  14  14  15  15  15  16  16  18  20  26  29  28  34  39  39  33  30  26  32  35  30  31  37  35  33  43  74  88 176 182 190 193 194 195 195 195 194 196 196 199 198 198 197 197 198 200 202 198 199 200
 164 164 163 164 165 165 166 166 165 165 165 161 141 114  57  52  34  28  27  25  23  23  21  21  22  18  16  14  14  12  12  11  13  12  13  13  13  14  14  14  15  15  14  14  14  16  14  16  15  17  23  28  30  30  33  36  41  37  31  27  24  28  33  36  35  34  32  39  61  68 121 160 188 191 193 195 195 196 197 196 197 198 198 200 200 199 197 199 199 198 199 201
 163 164 164 164 164 163 166 166 166 166 165 160 138  56  46  35  31  31  30  25  23  21  22  20  18  17  16  15  12  11  12  11  11  12  12  13  13  14  14  14  14  15  15  14  14  16  16  16  17  18  20  23  22  25  27  28  30  36  36  35  32  28  34  34  31  31  35  43  48  51  78 129 174 189 191 195 195 195 195 195 196 197 196 197 196 200 197 198 198 199 198 199
 163 164 163 163 164 165 166 165 166 165 164 161  72  39  43  58  54  38  25  22  23  22  19  17  19  16  16  15  13  12  12  13  12  14  15  16  16  16  16  17  17  17  17  17  16  16  17  17  18  20  24  24  22  23  23  24  28  30  41  42  41  32  41  31  32  31  32  42  41  42  70 109 157 181 188 193 194 194 195 194 196 197 196 198 200 199 196 197 198 201 197 197
 163 166 163 164 163 164 165 166 166 166 164 115  42  35  43  31  26  24  25  21  21  18  19  20  19  17  16  15  15  14  17  19  20  26  29  30  31  31  33  31  30  29  27  25  24  21  19  22  22  25  30  28  26  25  25  26  29  29  30  33  33  33  41  36  31  30  32  37  34  34  54  77 148 180 178 186 193 194 195 193 195 196 196 195 198 196 198 197 198 198 197 197
 163 164 165 165 164 164 165 165 165 165 159  96  46  32  26  23  21  23  23  21  19  18  18  20  16  17  19  18  22  24  28  32  37  42  48  50  52  54  53  52  50  46  45  45  38  35  31  31  34  38  40  40  39  35  35  33  35  37  32  29  29  29  36  39  34  30  29  30  31  32  41  63 148 157 157 179 191 193 195 194 196 195 196 194 196 196 196 196 197 197 196 197
 162 165 164 162 164 165 165 166 166 164 145 104  57  34  27  23  23  21  22  21  18  16  17  20  17  20  24  25  30  34  41  48  54  60  66  68  67  69  69  68  67  65  64  60  60  56  55  54  58  57  56  59  55  53  55  53  55  60  51  44  34  28  30  42  48  38  31  31  31  32  35  61 114 127 122 168 190 193 195 194 196 196 195 194 196 196 198 196 196 196 198 198
 164 165 164 164 165 164 164 165 165 165 149  98  42  26  24  23  20  19  21  17  17  16  17  17  17  22  29  32  38  46  54  61  71  81  88  91  89  87  84  83  83  85  82  76  76  74  76  78  78  75  73  72  68  69  69  69  75  84  68  65  61  41  33  38  47  43  32  33  33  31  32  50  88 126 133 150 187 192 193 194 196 196 195 195 195 196 198 196 195 197 196 199
 162 164 165 164 166 165 166 165 165 164 148  64  31  20  20  22  20  18  18  18  17  15  19  17  20  28  34  41  49  60  69  78  86  96 103 105 107 106 101  97  99 101  97  93  90  87  88  89  85  84  80  76  75  79  80  82  94  93  77  75  71  54  39  35  38  39  33  25  28  27  28  40  82  90 127 154 179 190 193 193 196 196 194 196 195 196 196 196 197 195 197 197
 165 164 164 164 165 164 165 165 165 164 150  49  26  20  21  20  19  18  16  18  17  18  21  23  26  34  42  51  66  75  82  89  95 104 109 111 113 112 110 108 105 109 107 105 101  97  94  93  90  88  86  84  84  85  87  89 103  85  70  58  58  57  53  40  37  34  33  29  23  24  27  42  68  57  88 155 164 188 191 192 196 196 195 195 195 196 196 197 198 196 197 196
 164 164 165 165 165 166 166 166 166 164 145  38  26  23  23  20  19  17  16  16  18  22  29  30  36  44  56  68  79  88  91  97  99 105 108 109 114 114 110 109 106 109 110 109 108 104 101  99  95  92  90  91  91  92  91  96 112 110  89  83  89  88  83  67  44  31  30  31  26  25  28  37  43  52  87 128 158 187 191 191 195 194 194 196 196 196 195 196 196 197 196 196
 165 164 165 164 165 165 166 167 165 164 141  39  28  23  19  18  19  17  16  18  24  33  39  41  50  60  70  80  88  94  98 100  99 100 103 105 112 111 110 111 110 113 113 114 114 109 107 105 103  99  95  91  92  93  92  97 112 109 100  96 104 107  96  89  66  36  30  29  26  26  28  31  39  45  82 130 175 188 188 191 194 195 195 195 195 194 195 196 196 196 195 196
 163 163 165 164 164 165 165 165 166 164 121  36  28  23  19  17  17  17  18  25  35  50  59  62  68  77  81  87  94  97 102 102 102 103 106 107 110 113 114 113 113 113 115 119 117 117 116 114 110 108 104  99  97  94  97 101 103 105 105 104 107 107  96  96  91  54  34  27  28  26  27  31  37  45  76 145 166 185 190 191 193 192 193 195 194 194 195 194 194 195 194 196
 164 164 164 164 165 165 166 165 164 163  61  31  26  23  22  19  18  20  25  32  48  66  71  75  79  84  88  92  99  99 102 104 103 103 106 109 111 113 114 115 116 117 116 122 122 125 127 123 118 116 112 110 106 103 105 105 101 102 107 106 108 109 102  97  96  81  43  30  25  24  25  28  31  48  99 122 158 187 189 191 195 193 194 194 193 194 196 194 193 194 195 195
 164 163 164 165 166 165 166 166 163 147  33  24  22  21  20  21  22  23  30  40  54  72  79  82  84  87  93  96  98 100 102 105 104 103 108 113 116 116 117 121 123 125 125 125 130 132 130 131 130 128 124 122 119 118 120 116 113 108 112 112 111 113 112 108 107  99  55  30  24  23  21  24  44  61  87 135 170 184 189 191 193 193 195 194 194 194 194 194 193 195 195 195
 164 164 165 166 166 166 166 166 165 103  30  23  22  20  23  23  22  25  33  43  59  74  83  86  89  92  96  98  98 101 104 104 102 110 114 117 122 121 123 127 129 131 132 134 136 137 137 139 137 134 133 129 130 135 136 135 126 119 117 115 114 117 116 116 112 107  78  36  25  25  24  35  50  86 129 150 170 185 190 191 193 194 193 195 194 194 195 195 195 194 195 195
 163 165 164 165 166 166 166 166 164  68  30  23  23  24  24  18  21  23  32  43  58  73  81  86  88  92  95  98 100 103 105 105 108 110 116 122 126 122 126 130 136 136 136 139 137 137 136 139 142 143 142 146 149 151 152 147 140 133 127 125 125 125 125 125 120 113  90  48  34  29  30  40  77 134 153 160 171 179 187 191 193 194 193 193 194 195 195 194 193 194 194 194
 163 164 164 165 167 167 167 167 158  55  29  22  22  23  18  17  19  24  30  42  56  71  81  87  90  94  97 100 103 106 108 107 111 116 120 125 130 129 130 132 134 141 143 142 136 137 137 140 142 145 148 155 163 165 165 159 155 148 142 141 140 139 135 131 127 115  97  63  38  36  36  42  50  61  82 105 116 160 187 192 194 193 193 192 194 195 195 193 192 193 194 192
 165 165 164 165 165 166 167 167 157  40  27  23  21  21  18  17  20  25  31  40  53  69  80  86  92  96 100 100 103 107 108 110 110 112 119 124 127 128 128 134 136 140 140 143 144 143 144 145 144 146 150 156 162 168 167 164 161 159 156 157 158 151 141 136 130 119  99  71  42  36  43  48  58  64  85 106 137 171 187 192 195 193 193 193 193 194 194 193 192 191 193 191
 164 166 165 164 166 166 166 166 140  33  26  22  23  19  18  18  20  26  32  41  55  71  79  86  92  98 100 101 104 105 106 109 109 111 115 117 118 118 121 125 128 131 137 134 142 145 147 144 146 148 150 154 155 156 154 157 161 159 161 162 162 156 147 136 128 124  94  64  42  41  46  46  54  78 115 144 160 179 188 193 193 192 192 192 192 192 193 193 192 191 192 192
 166 166 166 166 166 167 168 167 128  31  24  22  21  17  16  18  18  23  30  37  57  72  81  86  92  95  99  99 100 102 103 102 103 100 100 103 104 106 109 113 114 115 127 135 137 138 137 136 136 134 141 145 144 146 143 140 145 149 153 157 159 154 149 139 131 122  96  56  38  38  41  45  47  58  91 132 168 184 189 192 193 192 192 191 191 192 194 194 192 192 193 193
 166 166 166 166 167 167 167 167 117  31  24  21  20  16  18  17  18  22  27  42  63  75  81  87  94  94  94  90  92  90  88  88  89  89  87  90  94  95  97 103 108 107 107 115 121 126 125 122 124 124 126 131 130 131 135 132 137 141 143 145 145 150 152 143 131 121  95  52  32  30  32  44  47  50  88 116 152 182 189 192 192 192 191 191 192 192 193 193 193 192 193 193
 166 167 165 166 165 167 168 166 105  31  24  20  20  19  18  17  17  22  29  48  66  77  82  89  89  70  66  63  60  66  64  64  64  64  70  74  77  79  86  91  97  93  97 100 108 112 116 117 113 109 107 115 113 112 111 118 121 123 129 131 135 142 148 145 134 120  95  51  28  24  28  35  43  46  88 147 182 186 188 191 192 193 192 191 190 191 194 193 193 192 193 194
 165 166 165 166 166 167 167 166  99  30  25  19  19  18  17  16  17  22  34  55  70  81  81  80  55  41  38  36  33  35  35  34  34  34  40  48  56  61  68  78  85  90  86  88  94 105 107 105 101  89  92  97  97  97  97 100 104 105 109 112 113 123 132 137 132 118  95  49  24  23  26  30  38  53  66 154 184 189 189 190 193 192 192 191 191 192 193 193 193 192 193 193
 166 166 167 167 167 168 169 165 102  29  23  18  19  17  17  16  18  26  43  66  75  80  68  45  34  26  25  25  24  24  24  22  22  23  23  25  32  38  45  55  65  74  81  78  80  99 106  99 101  94  87  81  84  90  78  69  73  75  78  78  77  88  97 112 120 120  93  48  24  22  24  24  30  60  65 162 186 188 189 190 192 192 194 194 194 193 194 194 194 192 192 193
 166 167 167 169 168 169 168 166 112  30  22  16  18  16  17  16  20  31  53  70  77  66  37  31  28  24  24  25  26  25  22  22  20  18  18  17  18  20  24  29  39  46  60  74  80  98 108 106  96  90  68  63  66  55  45  38  33  37  40  42  45  44  54  60  67  87  95  50  25  21  22  24  28  70  95 166 188 189 189 190 191 191 192 193 193 193 192 193 193 194 194 193
 168 168 168 167 167 167 167 166 141  31  20  17  17  16  15  15  20  37  61  78  77  43  30  28  26  26  27  31  33  33  34  30  24  20  19  17  18  16  18  19  24  30  43  52  73  98 111 111 104  84  67  52  42  36  29  26  25  25  25  26  29  29  34  37  37  49  67  53  25  22  20  21  28  74 140 180 189 190 189 190 190 190 192 193 192 193 194 193 193 193 193 191
 168 169 167 168 167 169 168 166 158  33  20  16  17  16  14  15  22  44  66  81  64  38  29  30  31  33  42  46  52  54  52  49  46  39  31  27  25  22  20  21  23  28  36  58  75  96 118 123 112  92  65  43  33  29  25  22  23  23  23  23  25  27  30  31  31  35  43  48  27  21  20  23  29  90 172 187 188 190 190 189 190 190 192 192 191 193 195 192 193 193 192 192
 169 168 170 169 169 169 168 168 153  34  20  17  16  15  14  15  24  51  70  81  59  37  34  37  39  48  57  57  59  64  63  61  55  49  44  37  32  28  29  28  28  30  37  57  84 106 121 139 135 110  67  38  32  28  24  23  25  27  26  28  30  29  28  30  30  32  37  39  26  22  23  25  32 115 184 189 190 191 190 190 190 192 191 192 193 194 193 194 192 194 192 191
 169 168 167 170 169 168 169 169 159  36  20  18  16  15  14  16  30  62  77  69  51  42  44  45  50  56  59  55  57  60  63  66  68  54  43  35  31  29  29  32  33  37  40  62  96 120 125 151 157 152  79  42  37  35  34  32  36  40  43  47  46  47  41  38  35  35  36  36  29  23  24  27  54 154 187 191 190 190 191 189 190 193 193 192 194 192 193 193 194 193 192 192
 168 169 168 170 169 170 171 168 151  28  25  20  17  15  15  17  34  71  82  71  58  50  51  53  57  50  55  68  77  81  86  92  94  68  47  36  31  28  28  31  33  40  46  66 102 130 152 168 177 172  93  45  41  37  35  34  38  45  48  50  53  55  56  51  44  38  40  41  31  22  24  25 131 183 188 190 189 189 190 190 191 194 194 193 192 193 192 193 192 192 192 192
 169 169 171 170 169 171 170 166 135  27  23  18  16  14  17  18  39  78  81  72  59  59  56  54  52  59  68  69  71  69  66  52  49  44  36  33  32  30  31  31  35  42  50  68 104 130 156 176 187 183 120  45  37  35  32  34  41  47  54  63  65  59  52  55  51  44  44  48  33  22  26  55 174 188 189 190 190 191 190 191 192 194 195 193 195 194 192 194 193 192 192 192
 169 170 170 171 171 171 170 166 130  26  19  18  15  16  16  22  54  87  90  81  71  67  64  60  59  60  53  43  37  31  23  19  17  17  17  25  23  25  30  36  41  46  52  70 100 122 148 173 189 195 142  44  39  37  34  36  40  46  62  76  88 101  84  53  49  49  54  59  34  27  26 120 183 189 191 190 191 192 192 192 194 193 194 192 194 194 193 193 193 192 192 193
 169 169 169 171 171 170 171 163 134  32  20  18  17  18  18  26  64  91  91  86  80  75  70  60  47  33  29  28  30  36  24  16  14  16  17  31  30  27  28  34  45  53  66  82  98 113 141 168 187 198 155  53  40  35  32  32  33  33  38  45  64  80  89  75  49  50  59  74  36  30  29 169 186 189 190 190 190 190 191 191 193 194 195 193 191 194 192 192 192 193 192 191
 170 169 170 171 170 169 168 139 102  81  45  24  19  22  19  32  75  97  98  97  91  82  73  64  54  39  34  33  32  37  30  18  16  19  24  35  33  33  39  43  51  70  84  89 101 111 129 156 187 198 156  64  36  32  32  36  35  24  20  23  26  34  54  65  61  57  63  82  36  32  69 177 187 188 190 191 190 189 190 190 191 193 193 192 192 192 192 193 194 192 192 193
 169 169 169 170 169 170 169  81  55  73  54  38  28  25  23  36  90  97 105 105 104  94  87  82  74  59  50  43  40  37  35  37  37  40  44  41  37  38  40  44  67  88  91  94 101 111 127 148 180 190 157  80  48  39  36  38  36  25  19  21  21  32  34  39  51  63  74  97  43  31 140 185 188 189 189 190 189 190 190 190 191 192 192 191 192 192 193 192 195 192 192 191
 169 170 169 169 170 170 168  88  44  54  65  50  37  26  25  54  94  98 107 111 110 107 102  94  86  75  61  51  47  42  40  39  38  38  41  44  45  45  50  66  90  97  95  94 100 109 124 146 178 191 159 107  44  43  41  43  43  32  27  25  30  34  34  38  46  65  85 106  54  40 167 186 188 189 188 189 189 190 189 188 190 191 192 191 192 192 192 192 192 192 191 192
 169 170 170 170 169 170 168  83  45  59  68  65  46  29  29  68  95  98 107 113 113 112 110 105 102  91  77  65  60  54  51  51  52  58  70  71  70  72  79  91  97  97  94  94 101 110 128 144 172 189 165 131  77  54  46  43  43  43  39  38  40  39  41  54  66  84 102 117  76  75 158 183 185 187 189 189 189 190 189 190 191 191 190 190 191 192 192 192 192 193 192 191
 169 170 170 170 170 170 168  75  49  72  67  73  62  30  32  75  96  99 107 113 110 112 113 112 110 105  98  89  87  84  82  86  91  94 100 102  99  99 100 102  96  94  93  96 103 122 139 150 170 194 171 142 113  80  68  59  53  43  43  42  44  45  52  75 104 120 124 128  99  81 128 167 186 188 189 189 188 189 190 189 190 191 191 190 192 191 194 193 192 192 190 190
 168 169 170 171 171 171 166  74  58  80  68  67  62  42  38  83  98 101 107 111 112 115 117 116 113 109 103 100 104 102 102 102 102 105 110 111 108 106 101 102  96  95  94  96 110 132 141 155 168 181 178 156 127 114  95  86  82  74  61  54  55  62  80 111 133 141 142 140 120  93 115 173 187 188 189 190 189 190 190 188 191 190 190 191 192 191 191 192 191 191 190 189
 168 168 169 170 170 171 158  64  73  86  77  63  55  41  42  85  95  99 103 109 111 114 115 116 114 110 105 102 103 101 105 106 107 112 115 110 110 107 101  99  97  96  96  99 120 135 143 157 173 180 181 170 146 127 118 111 104 100  98  96  97 104 121 142 154 157 155 148 132  89 167 184 189 190 189 187 188 188 189 189 190 191 190 191 193 191 191 189 192 190 190 188
 169 169 169 169 169 168 135  72  88  72  50  34  39  39  44  84  94  94  98 100 105 108 112 112 113 111 108 107 105 105 110 110 113 115 115 113 109 107 101 100  99  96  94 105 125 132 142 158 178 185 187 180 157 134 133 131 121 115 112 114 121 133 147 154 162 164 158 150 131 118 182 186 188 188 188 187 188 188 188 187 187 188 189 190 189 191 190 189 191 189 187 187
 169 170 170 169 170 168 126  87  81  63  44  32  47  40  43  76  90  90  93  94  97 102 103 105 108 107 109 109 108 113 116 113 112 115 114 112 112 109 106 101  95  94  92 106 118 125 137 162 174 176 182 175 160 144 139 138 132 122 116 116 115 122 133 145 154 160 154 148 129 130 183 188 189 188 187 187 185 186 187 187 187 188 188 187 189 189 189 190 189 188 187 187
 167 169 170 170 169 168 134  92  72  56  42  37  64  40  49  78  86  88  88  88  91  94  97  98  99  96  99 104 106 114 113 110 109 113 113 112 110 108 105  97  92  95 100 104 108 112 122 142 151 151 155 154 153 142 138 140 135 126 120 123 123 124 129 140 145 144 141 135 126 129 182 188 187 188 188 188 186 186 186 186 186 189 188 188 187 188 188 189 188 185 186 188
 169 169 169 169 169 167 141  94  71  53  42  44  74  40  45  75  85  85  82  81  83  82  85  88  90  91  94  98 105 112 114 114 112 115 117 112 110 106  98  89  97 102  98  91  88  88  99 112 121 124 131 133 127 125 136 139 140 134 128 125 129 128 126 124 121 127 125 120 115 108 179 187 186 187 186 186 186 186 186 185 186 188 187 188 187 186 188 189 187 187 187 187
 168 167 169 168 167 168 137  93  72  60  50  54  73  37  47  72  81  79  78  75  75  79  79  85  85  87  93  97 105 112 115 117 115 114 113 111 108 101  90  93 108 100  84  72  70  73  85  91  95  96 105 104  88  91 125 142 143 141 135 132 132 127 121 111 109 113 113 110 106  92 161 183 186 185 184 185 185 186 184 184 186 186 186 187 187 186 187 186 187 187 186 186
 166 167 169 168 167 167 138 100  84  71  64  59  59  37  42  65  76  76  71  69  69  74  74  78  83  86  88  94 101 110 114 115 113 113 113 108 104  95  87 101 100  89  72  62  64  66  73  72  71  76  78  75  65  71 118 140 142 144 142 137 132 128 120 113 102  96  95  97  97  80 137 179 183 184 182 184 183 183 183 183 184 185 184 184 183 186 187 185 185 183 185 184
 167 167 168 168 166 166 140 105  95  79  77  70  55  42  39  64  73  72  63  64  68  72  69  74  77  81  86  91  99 106 111 112 111 112 111 109  99  87  86  97  82  64  42  29  32  54  62  61  59  61  64  63  57  64 103 131 143 145 147 142 133 128 120 107  86  79  81  83  85  78 125 180 184 184 182 183 182 181 183 183 183 184 186 185 184 184 185 185 186 184 184 183
 166 166 167 166 166 166 159 105 100 101  98  76  51  42  37  58  69  64  61  64  68  67  64  71  75  82  91  97 101 104 107 109 111 107 104 101  92  79  80  78  57  35  18  15  26  36  57  52  49  53  55  42  30  49  79 121 139 145 148 142 128 122 118 105  88  78  80  75  76  86 128 176 182 182 184 182 181 181 182 183 183 184 184 184 184 184 184 184 185 184 185 184
 164 165 166 164 165 166 163 114  87  95 102  92  62  40  32  54  62  66  61  64  65  63  66  71  72  82  90  99 100 105 106 107 107 105 105  99  88  77  68  58  38  25  25  29  43  46  51  48  45  48  42  25  25  36  63 113 135 140 145 146 134 117 111 104  98  80  75  73  68 107 147 176 182 181 181 183 182 181 182 182 183 183 182 183 183 184 183 184 184 183 184 183
 164 166 165 165 165 166 164 137  79  82  80  79  59  37  33  54  63  65  66  63  61  66  65  67  70  84  92  96  98 101 103 103 105 104  97  86  83  82  60  44  32  32  40  44  45  46  48  43  42  42  42  35  32  36  65 119 132 137 140 142 136 119 107 102  93  80  73  74  75 138 150 177 182 181 181 182 181 180 182 183 184 182 182 182 183 183 182 183 184 183 184 183
 164 163 164 165 164 164 165 160  93  85  76  66  51  41  39  55  64  68  66  63  61  62  67  69  81  88  90  93  96 100 101 103  98  95  92  87  87  88  64  45  39  42  45  46  45  46  41  39  38  37  39  37  38  68 122 128 132 134 136 138 134 122 107 103  85  75  72  75 108 147 159 179 182 182 181 182 181 182 182 182 183 181 181 182 180 181 182 181 183 181 182 181
 164 163 165 164 165 167 165 163 119  89  89  81  68  55  48  61  60  64  66  58  55  58  64  68  80  83  89  90  94  98  99  99  97  94  92  93  94  91  68  50  46  42  42  46  43  44  38  36  39  41  41  37  56 113 126 135 134 134 130 131 130 124 112 101  80  75  75  75 100 121 168 180 182 182 180 180 181 181 181 181 181 181 182 181 179 181 181 180 180 181 182 182
 164 164 164 164 164 164 165 164 146  98 100  97  84  59  53  56  59  60  63  55  54  56  62  64  74  79  83  87  91  95  97  94  92  90  94  96  94  92  67  52  47  46  41  41  43  43  38  37  38  39  43  42  56  89 108 140 140 132 127 131 126 121 110  98  80  76  75  73  84 117 172 181 180 181 180 181 181 180 181 181 181 181 180 181 180 178 177 181 181 180 181 182
 163 162 163 162 163 164 163 163 160 101  95  91  77  52  55  55  61  56  58  50  49  53  55  65  70  74  80  82  87  92  92  92  93  92  92  94  92  80  63  52  47  47  46  44  44  41  38  37  38  39  44  41  53  81 115 139 139 138 136 136 126 120 112  96  89  82  84  80  96 128 174 180 181 180 179 180 180 180 181 183 181 180 180 180 182 180 179 179 180 180 179 181
 162 162 161 164 162 163 165 164 162 125  80  72  60  48  66  53  54  52  53  52  48  50  56  64  69  73  75  76  84  87  90  90  90  92  86  82  81  73  65  56  51  50  49  46  43  36  33  33  35  41  45  47  55  73 101 122 129 133 134 131 126 117 105  90  81  79  81  92 117 145 177 178 181 180 180 181 178 181 181 181 179 178 180 179 180 177 178 178 178 177 180 180
 161 162 162 162 162 162 164 162 161 158 122  96 100 130  71  53  51  53  51  53  49  49  52  60  65  67  73  78  84  85  87  86  79  81  79  74  68  66  60  54  52  52  51  44  44  37  33  32  34  39  44  51  65  73  79 102 109 108 116 126 122 109  96  83  75  74  74  82 113 153 177 180 182 181 180 181 181 181 181 179 178 179 181 179 179 176 177 176 176 177 179 178
 162 161 163 162 162 162 162 162 162 162 161 161 158 148  85  52  49  50  46  47  45  48  48  56  63  64  71  78  82  85  81  71  74  70  68  59  55  54  53  55  54  54  51  46  45  40  35  33  38  40  48  59  68  64  72  82  98 102 100 112 116 105  93  83  75  76  71  70  94 168 179 180 181 180 181 180 180 180 180 180 180 179 180 178 178 176 178 178 177 176 177 179
 160 160 161 161 162 162 162 162 161 162 162 163 162 157  88  52  50  52  46  42  44  47  45  51  53  61  66  75  80  78  74  66  65  68  61  55  54  57  61  66  67  68  67  60  53  44  37  37  46  57  69  74  72  67  74  86  83  93  93  91 106 103  87  81  70  69  73 138 164 176 179 179 180 177 178 180 180 178 180 180 179 177 179 178 174 176 179 177 177 176 176 176
 158 160 161 161 161 161 162 163 162 163 162 162 162 159 106  61  53  53  48  41  42  42  41  44  50  61  66  73  74  69  63  65  62  61  57  60  59  59  58  67  68  68  67  67  64  61  56  56  60  66  66  68  74  75  77  83  76  82  91  95  96  94  80  68  59  58  85 169 174 177 179 176 178 179 178 178 178 178 180 180 178 177 177 175 176 177 175 177 177 175 176 177
 157 158 159 160 162 163 161 162 161 162 163 163 161 158 124  64  49  50  47  41  43  41  42  44  50  56  67  69  70  60  63  66  58  56  48  54  53  55  57  53  44  42  41  39  46  51  58  60  51  46  43  41  46  60  74  79  71  76  79  86  84  85  69  56  50  56 118 172 174 175 176 176 177 178 180 177 178 178 180 177 177 176 177 176 176 176 177 176 175 174 176 176
 160 158 159 159 160 160 161 162 162 161 161 162 161 159 132  61  51  49  47  43  42  39  42  45  52  60  66  68  64  56  58  61  55  50  42  43  45  42  40  33  32  33  33  32  32  34  38  38  35  36  37  37  36  37  44  61  60  64  68  72  72  74  61  50  48  49 140 173 175 176 177 176 177 177 176 176 175 177 180 177 177 176 176 175 177 176 176 175 175 174 174 175
 159 157 158 157 159 159 159 162 161 161 162 162 160 158 148  67  48  46  49  45  41  41  40  45  46  54  65  68  62  55  54  50  46  40  36  34  33  29  28  25  24  22  24  27  28  27  28  29  29  27  26  28  30  33  33  42  47  49  54  60  66  67  52  44  44  57 153 173 175 176 176 176 177 177 175 177 176 176 177 175 176 176 176 174 175 175 175 176 176 173 175 173
 158 158 157 156 159 159 158 159 160 162 162 161 160 158 154  87  50  48  47  44  43  43  44  43  46  54  64  67  59  51  48  43  36  29  23  21  19  20  22  23  25  24  23  23  23  19  20  23  20  22  24  27  25  26  26  28  33  38  45  50  59  59  44  44  44  72 163 172 174 175 174 175 176 176 175 176 176 176 174 174 176 175 176 174 174 176 176 175 175 173 175 175
 156 157 157 158 157 158 159 160 161 161 161 161 160 160 157 118  50  46  46  46  43  44  42  40  42  50  61  65  60  51  48  42  34  27  27  26  26  29  38  44  50  50  52  44  40  36  36  37  38  42  49  49  42  33  30  34  37  37  42  46  56  46  38  41  46  88 161 172 175 175 173 175 176 175 174 174 174 175 175 174 174 175 174 174 174 175 176 174 174 173 173 174
 156 155 158 158 157 158 160 160 161 160 161 161 161 160 157 142  56  48  45  42  43  43  42  43  42  48  60  64  59  53  47  42  37  38  44  46  44  47  54  60  64  66  70  72  65  58  58  57  58  62  64  64  60  53  49  51  48  42  46  50  52  42  36  40  50 121 167 171 173 175 174 174 173 174 174 173 175 174 173 173 174 175 175 174 174 174 175 174 173 173 173 174
 155 155 156 158 156 157 157 158 160 159 159 161 161 161 159 154  83  46  45  44  42  41  44  45  43  47  55  62  56  50  44  44  44  50  53  57  62  62  61  67  64  63  66  74  73  68  66  67  67  68  66  70  68  64  66  62  55  48  44  50  45  38  38  45  62 148 168 173 174 174 173 174 174 174 173 172 174 173 173 175 175 174 175 174 173 174 173 174 175 174 171 173
 155 156 156 156 155 155 157 157 156 156 159 159 161 161 159 155 108  40  43  44  40  38  41  42  43  46  52  57  53  48  48  46  48  51  55  61  61  62  64  63  60  57  59  60  64  66  65  69  66  67  69  64  64  66  66  65  57  48  43  45  38  38  42  48  88 163 171 174 174 172 172 173 173 172 173 175 174 173 173 174 173 173 173 172 171 173 173 173 173 172 172 173
 155 155 156 155 156 157 155 156 156 157 157 159 159 160 159 155 144  60  42  46  44  38  40  44  41  45  49  54  52  46  48  47  48  50  51  55  52  50  50  52  51  50  51  51  51  52  52  54  55  55  56  51  52  54  55  56  53  47  41  40  37  43  43  43 129 167 172 173 172 172 172 171 172 172 171 173 172 171 172 172 171 173 173 172 170 171 173 173 171 172 173 172
 156 156 155 155 155 156 155 157 156 157 157 157 158 157 157 156 154  99  39  44  41  40  40  41  38  44  48  50  46  43  44  44  45  46  49  48  44  44  39  40  38  39  38  33  29  32  35  35  37  40  41  40  42  47  49  48  48  43  40  43  40  44  45  62 149 169 172 172 172 173 171 174 172 170 171 172 171 173 171 172 172 170 171 171 170 172 171 172 173 172 172 172
 155 154 155 156 155 156 155 155 156 156 157 157 157 158 157 157 155 142  44  40  38  38  37  38  36  42  46  45  43  38  36  38  39  43  42  44  42  38  36  33  31  29  29  21  16  20  21  22  27  28  32  34  37  43  47  46  46  38  40  48  44  47  44 101 165 169 171 168 169 170 171 172 170 171 171 170 171 170 170 170 170 170 170 171 171 170 170 171 172 172 172 171
 153 152 154 156 155 156 155 154 156 155 154 154 156 156 156 155 154 146  59  36  35  35  35  35  35  38  44  46  39  34  32  33  35  39  41  42  41  39  35  31  28  26  25  18  16  17  19  22  25  28  34  36  38  42  44  44  42  37  41  45  46  51  46 139 166 168 170 169 170 170 170 171 170 170 169 169 170 170 171 170 170 170 170 170 170 172 171 171 171 170 170 170
 152 153 152 155 154 154 154 153 155 155 154 155 157 155 156 154 155 148  84  38  35  34  35  34  35  37  42  40  39  33  30  30  33  38  42  42  43  39  36  33  30  29  25  20  19  18  21  26  27  32  36  38  42  44  45  45  42  35  39  42  47  46  80 159 168 168 169 169 168 169 169 170 170 170 170 170 170 170 169 170 170 171 169 170 170 169 170 169 169 170 170 170
 151 152 153 154 152 153 154 155 155 155 156 155 156 156 155 155 155 152 101  48  30  32  33  32  33  37  39  38  37  37  29  30  34  38  39  39  43  41  39  36  33  28  24  23  25  23  22  24  27  34  41  43  44  43  46  48  44  39  40  42  48  41 141 165 166 166 167 170 169 169 169 170 171 171 170 168 169 169 170 169 170 170 170 170 169 168 170 168 169 170 168 169
 152 152 153 153 153 154 154 154 154 153 155 153 154 154 154 154 156 152 103  56  34  29  32  32  33  35  39  35  37  34  30  30  32  37  38  40  42  44  44  42  42  28  25  24  25  21  23  25  29  36  45  48  48  47  48  50  48  45  42  45  48  74 156 166 166 168 166 169 167 167 168 167 169 167 167 168 168 167 168 168 168 168 169 170 168 168 168 169 169 170 168 170
 150 151 150 151 152 153 152 154 154 154 152 154 153 152 152 154 153 150 107  63  44  31  30  32  33  35  35  37  36  34  31  29  32  33  33  35  37  42  49  41  34  28  24  24  26  24  24  26  28  33  46  48  49  50  51  48  48  47  46  46  56 134 162 165 166 167 166 167 166 167 167 166 168 167 167 166 166 167 166 166 168 168 169 169 168 167 169 167 168 168 168 169
 149 149 150 149 149 150 151 154 152 153 153 152 152 153 152 151 146 130  88  62  50  40  30  27  30  32  36  37  31  29  30  29  30  32  34  33  36  43  45  38  34  30  24  27  30  26  25  26  25  31  42  46  43  46  50  50  49  46  42  42  99 156 163 164 164 165 165 165 166 167 165 165 165 166 164 165 164 164 166 166 167 166 166 166 166 166 166 166 167 166 166 168
 147 148 147 149 151 149 149 152 152 151 151 151 150 150 146 102  82  71  65  63  51  45  38  28  27  29  29  28  26  29  28  29  29  31  37  32  35  37  37  36  36  33  30  28  29  30  28  24  26  33  39  43  39  38  44  45  44  41  34  58 137 158 162 163 163 164 164 164 164 166 166 164 164 165 165 163 163 162 164 165 166 166 166 166 166 165 166 166 165 166 165 168
 144 144 146 148 149 148 149 150 151 153 152 148 140 122  96  69  60  56  61  64  53  44  43  39  34  27  27  27  28  27  27  27  28  33  31  31  36  38  34  31  32  33  28  24  26  26  24  23  26  33  43  39  38  41  42  41  32  31  35  62  90 118 141 155 160 162 162 162 165 165 165 164 164 164 164 165 163 162 164 164 165 162 166 167 164 164 163 166 164 165 165 164
 143 143 146 146 148 148 147 148 150 152 150 125  68  69  66  57  51  48  50  66  55  45  43  41  43  35  29  26  27  24  25  26  26  29  31  40  37  33  30  29  31  30  28  26  28  26  24  24  25  34  36  38  40  42  38  32  28  28  52  48  50  69  83 109 130 146 160 162 162 162 162 162 163 163 163 163 162 162 163 163 163 162 164 165 164 164 164 164 165 163 162 163
 140 141 144 143 144 145 145 146 147 147 124  74  48  55  58  48  42  40  43  66  57  48  41  38  43  43  38  28  22  22  22  26  24  26  27  33  32  30  29  26  28  28  28  29  27  26  24  22  25  29  30  34  37  37  33  28  27  45  65  36  32  42  56  72  82  97 118 146 158 160 162 161 162 163 162 162 161 162 161 162 162 162 163 160 162 161 161 163 162 161 162 162
 138 139 140 141 142 144 144 143 140 116  80  68  47  56  55  43  36  35  41  65  59  53  45  41  42  45  43  40  30  23  19  21  24  22  25  28  29  30  29  25  26  25  24  26  25  25  23  24  27  27  29  30  30  30  28  26  36  57  68  31  25  30  35  46  52  67  87 112 128 148 158 161 161 161 163 162 162 162 162 162 161 161 162 159 160 159 161 162 161 160 160 160
 106 115 115 115 116 120 120 120  93  77  72  61  46  58  58  51  37  30  36  66  60  53  46  43  42  42  43  45  41  36  28  22  19  21  24  27  28  27  25  20  23  24  18  20  21  23  21  23  24  24  25  26  26  25  28  35  46  62  69  37  24  25  27  33  34  42  65  91 114 127 138 152 159 158 161 160 159 159 160 161 160 160 160 159 159 157 159 158 158 158 160 159
  99 106 103  98  92  94  97  91  82  72  72  61  51  62  57  50  41  25  34  68  61  56  47  39  39  39  44  45  46  43  39  30  25  21  24  26  26  25  21  18  17  18  15  16  14  19  19  19  22  22  26  24  25  29  40  44  52  66  77  61  33  27  28  29  30  36  48  74 100 116 121 125 142 157 157 159 156 158 161 158 160 159 158 157 155 155 156 157 156 158 157 158
  84  97  94  97  89  90  88  82  78  81  78  63  52  57  54  50  38  21  30  64  63  54  48  42  40  40  43  45  48  48  42  36  32  30  22  20  21  23  21  16  16  15  15  16  13  15  16  16  18  21  27  32  35  40  45  48  57  70  74  80  89  64  33  30  29  32  37  54  85  97 106 112 113 140 153 157 157 159 158 157 159 160 157 157 156 155 156 155 155 158 157 156
  68  83  84  83  80  83  79  82  77  69  68  56  51  62  55  49  37  19  41  64  62  54  51  43  39  39  43  46  48  43  42  40  34  33  30  26  22  21  19  17  16  16  14  15  14  14  16  18  22  33  42  44  42  43  45  48  60  71  58  49  68  86  87  42  31  30  37  52  80  90  95 112 102 109 146 154 156 158 156 156 156 158 156 156 154 155 156 154 155 155 154 156
  68  69  85  84  88  81  75  77  76  66  63  47  50  63  51  45  36  21  52  64  61  57  52  47  44  39  40  46  46  44  42  39  34  33  32  31  29  25  27  25  23  22  22  20  22  23  25  28  33  44  46  44  45  46  45  50  61  71  55  36  46  69  78  85  43  33  35  56  80 102 107 113 104 100 128 149 154 155 156 155 155 156 155 155 154 155 155 154 154 154 155 155
  78  60  82  80  88  81  73  73  79  76  71  56  58  64  55  49  39  21  55  64  62  58  54  50  45  44  44  45  46  47  43  40  38  33  33  31  33  29  27  26  25  25  27  28  29  31  30  31  35  41  44  41  43  44  44  54  65  73  78  44  33  46  60  79  91  52  34  48  76 108 118 112 102 105 121 131 138 150 156 156 154 154 154 154 154 154 154 153 152 153 154 154
  80  67  61  73  75  80  79  74  76  75  69  51  62  72  58  50  40  25  57  63  62  60  54  49  46  49  49  49  48  45  45  43  39  34  32  32  35  31  28  26  26  28  30  32  32  31  30  32  33  38  41  41  42  44  49  56  68  74 100 116  40  34  45  63  87  94  41  36  67 102 119 114 111 107 118 122 131 136 151 155 154 154 155 152 153 156 154 154 152 153 152 154
  88  73  59  74  75  73  75  74  71  68  61  54  57  65  59  49  36  28  56  63  63  60  56  52  48  48  50  50  49  46  46  44  41  39  35  35  34  32  31  31  30  31  31  32  32  30  31  35  36  37  42  42  39  45  53  59  70  79 109 116 120  34  36  54  68  94  90  31  56 101 112 115 113 116 116 108 117 128 141 152 153 154 154 153 153 153 152 153 154 152 153 153
  83  71  63  72  78  78  75  74  73  66  56  41  56  66  55  49  43  31  57  62  62  60  57  51  48  49  48  49  48  49  46  42  39  38  35  32  32  31  31  31  30  31  31  29  31  32  34  37  40  44  43  43  44  49  57  63  71  80 112 109 156  80  31  39  54  78 102  67  44  92 113 121 116 110 110 114 115 120 123 140 150 152 152 153 153 152 153 152 153 152 152 150
  90  79  64  61  77  83  76  72  67  69  57  49  57  71  58  53  44  35  55  62  60  57  57  51  51  49  49  50  51  50  47  44  44  39  37  36  34  33  33  35  34  34  29  27  31  33  35  40  42  41  41  43  47  54  63  68  73  82 111 114 134 151  47  34  46  68  99 104  43  70 105 121 125 112  93  99 109 117 119 126 124 129 149 153 152 153 153 151 154 153 152 152
  82  79  73  53  75  78  79  71  67  69  61  58  59  65  65  55  45  32  53  61  61  58  55  52  51  48  48  49  49  49  49  46  45  44  40  36  32  32  32  32  33  32  28  30  32  38  42  43  42  41  41  44  51  60  66  72  76  83 107 122 106 169  96  46  52  60  78  92  75  61  98 114 124 114  89  97  90 103 126 126 125 125 134 140 140 146 153 153 153 152 153 153
  87  81  79  63  62  79  78  65  55  58  58  62  58  74  69  62  50  30  48  60  61  57  56  54  52  50  50  51  50  49  51  48  47  44  42  40  36  32  33  31  29  29  27  30  34  40  42  43  43  42  45  46  55  65  67  72  77  84 103 120 100 167 134  65  50  62  73  88 102  54  81 105 125 121  80  89 102 108 112 130 130 127 114  73  81 110 138 150 149 151 151 152
  82  77  80  70  54  75  72  73  65  62  57  63  63  73  68  61  55  32  43  58  59  57  56  53  53  52  50  48  49  50  49  50  48  43  40  38  38  34  33  33  30  30  32  33  36  41  42  45  45  45  49  53  60  65  70  73  76  87 101 120 104 147 165  89  57  69  71  83 113  72  82  97 119 120  80  74  98 104 102 117 126 114 122 119  86  78 116 136 148 151 152 150
  69  76  79  70  52  62  72  80  68  65  58  57  60  68  59  58  54  33  37  52  59  58  52  50  52  51  50  52  49  48  50  49  48  46  44  42  40  37  36  35  37  36  40  38  39  41  43  44  45  48  51  55  63  67  69  73  75  88  98 116 123 132 175 123  65  82  72  78 108  93  81 107 114 115  80  69  92  99  99 118 119 124 115 118 131  98 105 125 140 148 152 152
