P2
# Generated by OpenCV 3.4.0
92 112
255
 150 149 151 151 152 154 154 153 153 153 153 155 156 155 157 156 155 153 154 146 134  76  68  73  55  50  41  43  58  52  60  43  43  36  34  40  48  45  50  47  43  38  40  40  52  67  70  62  63  80 105 135 165 168 171 174 176 176 179 181 182 181 182 183 183 183 185 185 187 187 188 186 187 187 188 189 190 190 190 190 191 191 191 191 192 192 192 190 192 193 192 195
 149 149 150 153 154 154 155 155 155 155 154 156 157 157 157 155 146 118 107 102  70  55  38  36  39  39  37  37  38  38  40  31  31  34  32  35  36  35  37  49  56  44  47  46  48  58  60  54  50  48  63  95 146 148 148 150 168 163 175 181 182 182 184 184 184 185 185 186 187 188 187 187 188 188 189 190 189 189 190 191 192 193 192 193 192 193 192 192 195 193 193 195
 152 151 152 154 154 155 156 156 155 158 157 158 159 158 148 124  88  79  87  69  49  43  32  32  34  36  34  31  31  35  37  37  34  32  35  36  36  35  32  36  47  48  40  40  39  39  46  46  49  48  55  74 113 126 114 110 132 132 156 175 180 181 184 184 184 185 187 187 188 188 187 188 189 190 190 190 190 192 192 192 192 193 194 194 193 193 194 195 194 194 194 196
 152 153 153 156 155 156 155 157 158 158 157 157 158 153 119  91  84 101  75  66  57  48  38  32  29  32  31  29  30  31  31  36  35  32  31  34  34  32  30  30  36  47  40  32  31  29  33  39  41  42  50  63  70 106  89  84  83  95 109 157 171 179 178 173 183 187 189 187 188 189 189 188 190 191 192 192 191 192 193 193 192 195 192 194 195 195 192 196 197 194 196 195
 154 154 155 155 156 158 156 156 159 159 157 155 149 119  85  82 101 119 100  56  63  50  38  37  28  28  30  27  29  30  30  30  30  28  30  31  33  33  28  23  25  31  36  32  24  21  21  29  37  36  37  48  55  75  73  67  62  78  70 108 156 163 147 127 174 186 187 188 189 190 189 189 190 190 192 192 192 192 193 193 194 193 194 193 195 195 196 197 197 196 196 196
 154 156 154 156 156 157 157 157 158 153 153 142 119  55  50  56  67  70  79  79  46  46  34  27  25  21  24  25  26  27  29  30  30  27  26  27  29  33  37  32  32  30  30  32  24  17  17  20  28  38  29  33  42  55  52  50  53  68  58  74 118 140 108  84 161 182 186 189 189 189 190 190 189 190 192 193 193 194 193 194 194 194 194 194 196 195 196 196 198 197 196 196
 155 157 156 156 157 157 157 159 158 151 141 120  76  48  43  40  45  43  47  49  52  33  38  26  24  23  22  25  24  25  25  27  33  31  28  23  23  22  25  30  35  33  34  37  29  17  14  17  19  29  29  25  30  41  43  40  40  53  45  60  92  82  77  63 137 163 180 187 188 189 191 191 190 192 192 192 193 193 192 192 194 196 195 196 195 196 194 198 197 198 197 196
 155 157 157 157 158 160 159 159 157 144 129  90  66  58  45  42  39  44  39  32  30  27  24  23  21  21  25  26  27  26  23  22  25  28  30  30  27  23  20  18  20  23  23  21  25  20  16  15  17  21  28  24  21  29  34  30  32  47  40  49  62  50  54  61 108 135 173 186 188 188 190 192 190 192 194 193 191 193 193 193 194 194 195 194 195 195 195 198 197 196 197 198
 155 159 158 156 156 159 160 159 157 146 105  82  60  54  56  53  34  34  39  32  23  19  18  19  18  18  21  24  25  23  24  24  26  23  28  31  36  35  28  24  22  20  21  21  20  20  17  15  16  17  22  23  19  23  27  25  26  36  33  31  35  33  44  61  93 102 176 186 187 188 191 189 189 192 192 192 193 192 193 193 194 194 194 195 196 196 196 199 198 196 197 196
 157 156 158 159 159 160 159 158 159 148  79  83  70  53  48  53  37  27  28  27  21  18  18  16  16  15  20  21  22  23  25  26  25  21  22  24  28  33  33  35  38  31  24  24  25  31  24  19  17  17  18  22  18  20  23  26  25  25  28  27  29  29  34  42  69  76 171 167 182 189 190 189 190 191 192 191 192 192 193 194 192 194 196 195 196 195 196 199 199 197 197 198
 158 157 160 159 159 160 160 159 157 150  83  74  83  95  44  36  35  26  23  22  21  21  19  17  18  19  20  21  21  22  28  27  24  23  24  22  22  23  26  34  36  37  32  30  31  33  40  40  25  18  16  19  22  24  26  27  27  24  24  27  27  26  28  35  51  64 154 127 178 188 190 190 191 190 192 192 192 193 194 192 193 194 194 194 195 194 196 199 198 196 198 198
 159 159 160 159 159 161 161 160 156 144  73  71  95 112  69  40  32  28  21  19  18  17  17  17  18  16  17  16  17  22  23  24  25  28  28  30  28  28  27  26  23  20  26  28  29  25  25  26  28  21  16  16  17  22  30  35  28  26  24  26  22  22  26  35  48  54  84  96 162 172 184 189 190 192 192 193 195 194 195 193 193 194 194 194 195 194 197 198 198 199 198 198
 157 159 159 161 160 160 162 162 159 139  78  71  79  88  72  46  27  24  20  21  20  19  16  18  19  20  19  20  19  18  17  20  20  21  23  26  28  28  29  27  25  23  22  23  26  27  26  27  24  18  15  17  18  23  31  30  36  29  23  22  21  20  26  32  40  54  63  92 157 128 169 188 191 192 191 192 193 192 193 194 194 194 196 195 195 193 198 198 196 198 197 197
 159 160 160 161 161 161 161 161 160 139  98  72  51  33  31  26  24  21  20  21  22  24  26  21  18  16  16  15  15  14  13  14  16  16  16  19  22  24  26  27  29  32  33  32  31  34  36  38  37  27  20  24  20  21  26  30  33  32  27  27  28  28  28  29  33  44  50  66  73  69 157 187 190 190 191 192 191 192 193 194 194 194 195 193 194 194 197 199 198 196 196 196
 161 160 160 162 160 162 161 162 160 141  92  71  42  28  21  23  22  21  19  20  22  24  25  22  17  14  13  13  13  12  12  12  14  13  14  15  16  21  25  25  27  30  31  33  31  33  37  40  36  26  24  24  25  28  33  28  25  28  28  27  28  26  23  24  29  36  40  57  64  68 133 176 187 189 191 191 191 191 191 194 196 195 194 195 194 196 196 199 197 197 197 197
 158 160 161 161 161 161 161 162 161 142  88  61  35  27  24  22  20  21  19  19  22  20  19  17  16  14  13  13  14  12  12  11  12  13  15  15  15  16  18  20  19  22  25  25  29  33  35  41  40  35  27  26  24  30  34  28  25  25  25  30  32  29  24  21  24  30  40  51  62  77  90 139 183 190 192 191 192 191 192 191 194 195 195 194 194 194 196 198 195 196 195 196
 160 161 160 161 161 162 160 160 157 153 116  56  33  26  23  20  20  20  23  23  24  22  19  14  14  14  14  14  14  12  11  13  13  13  14  14  14  14  14  15  16  20  23  26  30  31  33  35  36  42  42  35  23  27  32  31  27  24  27  30  28  27  22  21  20  26  36  49  59  66  73 116 160 186 191 192 194 192 195 192 195 195 195 194 194 193 196 196 194 196 196 196
 159 160 161 161 160 163 162 162 155 148  89  48  34  26  23  19  19  24  24  22  19  21  18  15  14  13  14  14  14  13  14  13  13  12  13  14  14  14  13  15  18  20  22  24  24  28  27  29  29  40  41  37  28  29  37  36  30  23  26  24  23  24  24  22  22  24  30  38  56  64  88  71 110 175 188 190 191 192 192 193 195 194 194 195 196 194 199 197 197 196 196 196
 161 162 162 160 160 162 160 150 118  83  43  42  30  24  20  19  23  22  17  15  14  13  14  13  12  12  13  12  13  13  13  14  14  13  13  12  13  14  15  15  16  19  21  22  24  25  27  28  31  35  41  41  39  37  40  38  40  35  27  26  29  29  29  24  20  21  25  33  43  50  57  62  94 170 188 190 191 194 192 192 193 193 192 193 195 196 197 197 196 196 196 195
 162 161 161 160 162 161 151 120 126  58  58  44  28  24  24  23  22  17  14  13  11  10  12  10  11  12  12  11  13  12  12  14  14  15  15  14  15  15  16  16  19  22  24  24  28  29  30  31  37  48  54  51  58  56  53  48  49  48  33  30  34  33  26  21  18  17  22  30  36  42  46  64  83 137 181 189 191 191 193 193 194 193 193 194 193 194 195 195 195 196 195 196
 161 161 161 162 162 161 143 144  87  46  37  35  36  31  25  23  20  15  14  12  10  10  10  11  11  11  12  14  15  15  16  18  18  18  20  20  20  19  21  23  27  31  34  34  32  34  38  44  55  67  66  69  74  82  68  49  49  51  42  35  36  32  28  22  19  18  21  27  33  38  45  58  57  98 173 186 190 193 192 192 193 193 193 193 194 194 195 194 195 195 195 194
 161 161 161 163 162 161 153 144  46  37  44  51  32  24  23  19  18  14  14  12  12  12  13  12  14  16  21  23  26  27  30  32  32  32  32  30  29  30  32  37  41  48  47  46  44  49  52  62  77  74  74  88  89  87  58  55  59  59  51  45  37  32  26  22  19  19  22  23  27  33  40  43  42 112 150 181 189 190 191 192 192 191 192 192 192 193 195 194 194 196 194 195
 161 163 162 162 164 163 161 115  34  35  36  27  24  21  21  20  19  14  14  14  14  14  16  18  23  30  36  38  44  45  46  48  47  48  51  48  47  49  52  57  61  62  59  58  58  61  65  76  87  82  83  91  80  50  57  74  74  73  69  57  45  35  29  22  19  20  21  24  28  33  33  35  73 100 155 184 189 188 190 192 194 193 192 193 193 194 195 194 193 196 195 195
 161 162 163 161 162 163 157  88  44  33  24  23  24  19  19  21  17  16  15  18  18  20  24  30  39  45  52  53  55  57  59  60  62  61  62  61  64  67  69  74  75  70  68  68  68  68  75  89  85  67  65  62  52  69  78  88  96  90  81  72  64  48  34  27  21  19  20  22  26  26  28  47  75 145 166 183 187 188 190 191 191 192 191 193 192 194 195 194 194 195 195 193
 161 160 161 162 161 163 152 110  54  32  23  23  23  21  17  20  18  16  18  22  23  27  36  42  50  58  62  63  64  65  66  68  70  70  71  72  74  79  81  82  78  75  74  74  76  74  84  90  86  79  78  92 101 103  98 100 108 100  91  81  76  62  48  31  20  17  18  17  20  28  29  49  80 134 165 183 188 189 189 190 191 192 190 192 190 192 196 194 194 196 195 195
 162 162 161 162 162 163 151 140  84  33  25  19  21  19  16  17  18  17  23  25  29  37  46  56  61  69  71  73  74  75  75  77  80  79  80  79  81  81  82  82  82  79  82  81  81  84  92  91  85  84  88 100 106 104 100 103 104 108 104 102  97  77  62  39  22  18  17  18  22  37  66 100 100 123 148 158 179 188 189 189 193 192 191 192 191 193 195 193 194 193 193 193
 162 162 162 162 163 163 157 143  72  26  25  20  20  19  18  17  17  19  27  30  38  48  54  65  71  77  79  83  85  84  85  85  84  85  84  86  84  83  86  84  85  84  84  81  82  86  94  88  87  90  96 102 106 109 110 108 111 114 116 116 108  87  74  51  30  21  19  19  23  34  44  54  77  86 104 136 176 189 189 189 190 190 190 189 190 194 193 193 194 193 195 193
 162 162 163 162 163 163 158 145  65  24  24  21  19  18  17  17  17  20  31  37  46  56  64  70  77  82  84  87  89  90  88  87  85  88  89  89  86  87  88  90  88  88  86  84  86  91  92  88  90  92  96 100 107 112 117 116 121 123 124 123 115 101  88  70  47  27  25  23  24  30  37  49  60  68 103 148 173 186 188 188 190 189 190 190 188 192 195 194 193 193 193 192
 160 162 164 163 163 163 161 147  49  26  23  21  15  16  16  18  23  25  35  45  56  68  71  78  82  84  83  86  89  90  88  91  89  92  93  92  92  93  94  93  93  93  91  90  95  94  93  92  95 100 100 100 111 117 118 120 123 131 130 128 122 109  98  77  54  36  33  32  24  30  40  67  94 111 134 166 185 188 189 188 189 190 190 190 189 192 194 192 191 193 193 193
 162 163 163 163 164 164 163 140  41  27  21  18  17  16  19  22  31  35  47  58  68  73  78  81  83  84  86  87  90  90  91  92  92  93  93  95  99 100 102  99  99 100 100 104 107 104 102 102 106 108 107 108 113 120 126 128 132 138 136 132 124 111 102  81  56  38  43  46  35  31  41  58  80 132 160 176 186 189 189 190 189 190 191 190 189 192 192 192 192 192 194 195
 162 162 164 162 162 164 161 142  44  24  21  18  16  16  20  31  46  52  63  71  76  80  81  84  85  86  89  91  91  97  96  95  94  94  95 100 104 105 108 108 109 109 113 114 116 113 113 116 116 114 117 119 124 130 137 138 141 142 139 136 125 114 101  80  55  46  45  43  44  37  43  51  64  84 126 170 185 188 189 190 189 189 190 190 190 193 194 191 194 194 194 193
 164 163 165 164 164 165 162 154  47  25  22  17  18  19  25  44  64  70  74  78  80  84  85  88  87  87  88  92  95  96  96 102 102 102 104 107 111 115 116 120 119 119 123 125 125 122 125 130 130 129 132 138 142 146 145 145 147 144 142 136 130 115 100  75  50  41  39  36  41  39  40  42  52  64 136 175 187 188 189 190 190 190 190 190 190 192 192 191 193 193 193 192
 163 163 163 164 165 164 162 149  50  28  25  20  20  20  32  49  69  75  77  82  83  84  86  88  90  90  92  97  99 101 103 109 110 111 114 117 117 121 123 127 128 130 133 139 136 136 140 143 143 142 147 154 159 161 158 151 148 146 141 138 134 120 102  70  45  32  29  30  33  36  36  40  38  49 131 180 188 187 189 189 189 189 189 191 191 192 194 192 193 193 194 193
 163 165 166 165 165 164 161 161  49  29  23  25  22  23  33  51  70  77  79  83  86  85  87  92  92  94 100 102 105 105 108 111 116 115 120 119 120 118 120 125 129 133 137 142 144 146 147 150 150 152 160 164 166 166 162 156 151 147 142 141 136 123 106  74  43  28  25  26  28  30  29  45  37  47 116 182 187 189 189 189 189 190 190 189 191 193 192 191 192 193 194 193
 165 165 165 164 166 166 164 160  60  31  29  24  20  21  32  50  66  76  79  84  84  87  91  94  94  97 102 106 111 108 111 113 117 118 120 122 116 118 119 125 128 131 135 139 142 145 145 149 155 159 158 163 165 163 160 158 156 151 145 141 131 120 106  75  42  26  23  22  24  25  26  32  44  58 105 178 188 189 189 189 189 190 190 189 192 193 193 192 192 193 192 194
 165 164 164 164 165 167 164 158  87  34  26  20  20  21  31  49  66  75  81  84  88  91  96 100 102 104 107 110 113 112 113 113 116 120 122 124 125 124 124 126 128 130 133 136 136 139 135 137 143 144 148 151 154 155 157 161 159 154 149 144 130 119 109  75  39  25  23  22  22  23  23  26  55  80 126 181 189 188 188 188 189 190 190 190 192 192 192 192 191 192 190 191
 164 165 165 164 166 165 165 162 101  32  24  19  19  23  29  45  64  78  82  86  88  92  99 100 102 103 106 107 109 108 110 115 116 118 115 120 122 126 127 127 124 125 127 127 129 135 134 128 132 136 137 137 140 143 151 157 158 158 151 144 134 119 111  81  43  26  22  20  20  20  22  25  56  85 169 185 189 189 188 190 188 191 190 192 191 192 191 191 191 190 191 192
 166 166 166 165 166 165 165 163  94  30  24  20  18  20  28  44  65  75  83  86  91  94  97 100 100 100 102 102 103 102 104 106 107 111 116 119 123 124 123 117 113 111 117 121 120 121 123 119 118 121 121 123 122 126 135 141 148 152 151 145 136 124 116  89  49  28  22  19  19  19  22  24  48 120 183 187 189 188 190 190 189 190 190 189 192 191 191 190 192 190 192 193
 166 167 167 166 166 166 164 164  74  30  24  21  19  18  28  41  63  73  84  88  90  93  93  96  96  93  93  92  94  91  94  97  94  96 104 108 109 112 112 106 106 103 105 109 107 102 101 105 106 103 102 105 101 102 107 114 119 122 130 138 139 128 122 101  59  33  24  21  18  19  22  25  38 136 184 189 190 190 189 189 190 189 189 188 191 192 190 190 190 190 192 192
 166 166 166 166 166 167 167 166  81  30  22  21  16  18  26  44  67  75  83  90  92  92  90  87  87  84  81  80  82  81  84  88  91  91  89  93  99 102 105 102  95  88  89  95  91  89  89  87  87  85  82  78  72  67  69  67  76  73  78  87 118 126 124 108  74  44  28  22  22  20  22  27  81 168 186 189 190 190 189 189 188 189 189 189 192 192 192 192 192 192 192 192
 168 167 168 166 168 168 167 164 105  28  25  20  16  18  24  44  66  75  85  87  83  80  78  76  75  71  68  70  71  71  74  79  83  81  80  80  88  93  95  92  88  77  79  81  81  86  75  63  55  48  44  43  41  39  36  38  42  44  43  50  70  87 113 113  89  62  36  23  21  23  23  28 108 181 189 187 189 189 189 188 190 188 191 190 191 191 190 191 192 192 193 192
 166 168 168 168 169 168 167 165 118  28  26  22  16  17  25  46  65  76  78  61  55  50  52  48  45  43  43  46  52  54  60  68  72  76  70  71  76  86  92  88  87  85  70  61  67  63  48  36  28  26  25  24  24  27  26  29  33  33  35  37  45  55  65 108 102  78  43  25  20  20  23  28 137 186 190 190 190 188 188 189 192 190 190 190 190 190 191 192 192 193 192 191
 168 168 169 167 168 168 168 167 126  28  24  22  16  15  26  50  65  71  44  37  31  28  27  26  25  23  25  27  31  37  41  46  54  61  69  69  67  83  94  92  84  78  60  50  49  39  34  26  24  20  21  22  21  24  24  26  29  32  31  34  41  42  42  84 112  91  52  26  21  21  26  37 167 186 189 190 190 189 189 191 191 190 189 189 190 190 192 191 192 193 194 193
 168 167 168 169 168 169 168 167 138  26  24  22  16  16  27  52  60  43  30  24  22  22  21  19  17  18  17  17  18  19  22  26  31  36  44  55  62  82  93  96  91  74  63  48  38  30  29  24  21  22  22  25  26  31  36  34  35  36  37  38  42  45  47  70 120 103  57  28  22  23  26  45 180 188 189 189 189 190 190 189 191 191 190 190 190 190 193 192 194 194 192 192
 168 168 168 169 168 169 169 168 162  26  23  20  15  16  29  57  45  29  25  22  23  23  21  19  17  17  15  15  16  14  15  16  20  22  30  40  57  75  95 105 101  86  71  46  36  31  29  27  28  29  34  39  44  49  52  51  53  52  49  47  43  46  54  75 115 114  56  31  23  25  31  77 183 189 190 189 189 189 190 192 191 191 190 190 190 190 193 193 193 193 192 194
 169 169 168 169 170 168 171 169 160  43  24  19  15  15  26  54  35  26  26  25  27  31  33  33  31  29  25  23  21  18  18  19  20  22  26  38  59  79  94 110 109 105  85  52  38  38  36  35  35  35  36  40  45  48  52  52  55  57  56  52  50  51  60  83 115 119  58  31  24  27  35 132 186 189 190 188 190 190 190 191 190 190 189 190 191 192 192 193 191 193 193 192
 168 169 169 168 169 170 170 169 161  68  24  18  14  15  27  52  33  28  30  33  43  45  48  50  49  44  40  35  30  27  24  24  24  26  29  37  63  88 101 123 140 145 113  66  46  42  41  37  33  31  35  41  49  62  72  76  80  77  56  47  51  54  64  86 119 127  64  32  24  27  46 162 185 188 190 190 190 190 190 190 189 191 190 190 190 192 192 193 192 192 192 192
 169 169 171 169 169 170 170 169 162  84  27  19  14  16  29  55  34  34  37  45  52  52  50  50  47  46  44  40  33  27  23  20  22  27  32  39  67 101 116 138 156 172 142  78  48  44  39  34  31  32  37  40  46  59  80  85  95  99  83  62  53  56  66  88 113 133  79  32  24  28  72 154 178 188 190 191 190 191 192 191 191 191 191 190 191 192 193 192 192 192 193 193
 168 169 170 170 171 170 171 169 166 105  28  20  14  16  27  51  43  43  46  53  50  46  53  60  61  52  51  46  37  29  25  22  23  25  30  38  67 109 137 155 171 184 161  82  50  45  40  35  33  31  31  32  30  28  32  35  38  61  65  63  60  65  75  95 120 136 104  32  27  33  80 139 133 182 189 190 190 190 190 190 191 190 190 191 192 192 193 193 192 193 192 192
 169 169 169 169 169 169 170 170 167 142  28  22  17  17  29  59  52  50  52  51  47  58  62  60  55  41  34  24  20  17  18  19  23  28  32  39  69 115 144 163 175 188 161  96  57  49  39  32  29  29  33  43  30  20  20  24  25  34  36  43  53  67  86 104 123 138 126  41  33  45  80  92 135 186 190 190 191 189 190 190 190 188 190 189 190 191 192 191 191 192 193 192
 169 169 170 168 169 171 170 169 166 155  54  23  21  17  30  67  61  57  54  54  62  54  43  33  25  21  15  14  14  14  20  22  21  25  34  44  72 112 143 164 177 193 158 118  72  53  45  39  34  32  38  43  36  23  21  24  33  38  42  42  58  80 103 121 133 142 139  58  42  60  81  71 168 187 188 190 191 190 190 190 189 189 189 188 190 190 192 192 191 192 192 193
 169 170 168 170 169 170 171 169 161  97  52  28  23  20  40  79  72  66  62  55  40  27  27  29  34  28  15  13  14  15  23  26  26  30  38  49  77 108 141 157 178 196 157 131  99  66  51  47  42  39  42  43  40  34  32  36  42  47  53  70  93 116 129 136 143 145 139  80  44  69  86  76 178 186 188 189 187 189 190 189 188 190 190 189 190 191 192 191 191 191 191 192
 169 169 169 169 170 169 169 169 151  68  53  36  27  23  51  82  77  71  62  48  32  30  29  32  36  36  21  18  21  28  30  30  34  34  43  63  83 105 132 156 181 192 152 134 120  89  57  47  46  46  44  44  44  43  42  45  47  52  66  99 126 139 150 152 153 146 139  95  52  76 102  96 175 186 189 188 187 190 188 190 190 189 188 189 189 189 189 191 190 191 192 192
 169 168 169 168 170 169 169 169 166  97  46  45  28  22  63  85  80  72  69  61  55  51  39  36  34  34  34  33  32  32  31  31  33  37  59  75  87 103 125 155 182 186 152 135 130 113  85  62  61  63  63  55  52  48  46  48  54  65  95 132 150 155 163 162 157 145 134 106  54  81 120 126 168 185 187 188 187 187 187 191 188 189 189 188 190 188 190 190 189 192 192 191
 169 169 168 169 169 169 169 169 169 113  45  53  24  26  73  87  84  78  76  70  65  57  48  44  38  37  35  33  32  35  37  38  41  58  74  81  88 103 127 154 177 175 150 138 130 122 108  91  81  80  80  79  78  71  68  73  84 106 136 163 165 163 167 164 156 144 130 108  54  61  86 113 160 185 187 188 189 187 187 189 188 189 189 189 190 189 190 190 190 193 191 190
 168 168 167 170 169 169 169 169 169 131  47  66  34  28  84  89  87  85  78  76  72  65  55  51  47  45  45  48  52  54  55  57  64  78  81  83  89 104 126 153 177 173 151 138 132 125 121 115 106  97  92  92  94  95 102 110 125 142 160 168 168 170 164 161 155 144 127 110  54  51  65  85 137 183 187 186 188 189 188 187 188 189 188 188 190 189 189 191 192 190 190 190
 168 168 169 169 168 169 170 170 169 146  54  76  48  31  88  91  91  89  87  82  79  74  71  71  68  69  68  71  70  69  74  77  84  86  82  82  92 110 127 152 178 177 158 141 133 127 127 125 123 118 111 105 102 102 106 111 124 135 142 153 154 156 153 149 143 137 125 103  67  66  60  76 111 174 185 186 186 189 188 186 186 186 187 188 188 189 191 190 191 190 189 187
 169 168 169 168 168 169 170 169 168 134  71  76  50  32  89  93  92  93  97  90  89  84  84  83  79  78  75  73  77  80  84  88  89  88  84  84 102 120 131 152 176 180 170 155 136 128 131 131 132 127 128 118 110 108 108 109 110 118 132 144 142 141 138 132 132 127 120  97  63  87  64  72 104 160 185 188 188 187 187 185 186 185 188 188 188 188 189 188 189 190 188 189
 168 168 166 167 168 168 169 169 169 123  78  64  41  41  87  91  94  96  97  95  92  85  86  83  80  81  81  82  88  90  92  92  90  88  85  90 114 124 134 147 163 174 180 164 143 128 132 135 136 134 130 126 116 111 114 113 114 117 123 125 121 124 123 120 118 117 116  91  65  95  76  86 115 161 185 187 188 185 187 187 186 185 187 186 188 188 188 188 187 188 186 186
 168 167 166 167 168 168 167 168 168 136  74  54  38  43  88  89  93  98 100  99  95  86  87  84  82  87  87  88  93  96  93  93  89  88  86  99 118 124 138 154 159 168 181 171 152 130 129 135 137 136 133 129 123 119 117 118 120 119 114 106 108 112 109 109 106 106 109  87  60  91  91 106 141 167 185 187 185 185 188 185 185 186 186 184 186 188 187 185 186 187 186 187
 166 166 166 166 167 168 167 166 166 133  66  47  38  40  81  85  87  92  95  94  95  92  93  88  92  92  90  92  97  98  97  97  93  88  87 109 114 125 142 158 161 169 176 166 156 140 126 132 138 140 135 135 134 130 124 125 122 118 110 106 101  96  93  93  93  93 101  77  56  92 113 137 159 165 183 184 185 184 185 184 186 184 184 182 184 186 185 185 187 186 184 185
 166 166 165 166 167 167 166 166 165 123  62  46  39  42  78  82  85  86  88  90  88  87  91  89  94  94  92  92  97 100  98  98  93  84  88 105 112 122 141 152 153 157 162 162 151 140 129 121 130 138 138 141 140 138 133 128 123 118 114 107  88  76  85  83  82  86  93  64  60 102 144 161 145 175 182 184 186 183 183 183 183 182 186 183 184 184 184 185 183 185 185 184
 165 164 164 165 166 167 167 166 165 122  59  44  41  38  74  76  77  78  81  82  82  80  85  88  93  95  93  96 102 101  98  96  88  81  91  99 105 116 129 134 133 136 138 141 138 134 140 117 122 132 138 142 143 146 141 132 126 121 114 105  90  78  81  78  79  75  86  60  62 131 147 140 139 179 184 186 186 184 183 182 182 181 183 182 182 183 184 185 184 184 185 184
 164 165 164 165 166 166 165 165 164 127  65  48  42  37  66  71  69  69  70  72  73  77  83  86  93  98 100 101 101  98  97  92  81  87  84  82  85  93 104 109 109 117 119 107 105 114 135 143 115 125 135 143 148 150 143 133 119 116 114 108 102  90  83  79  78  79  86  64  65 111 110 121 151 180 184 184 184 183 182 181 181 180 182 181 181 183 184 183 182 182 182 183
 165 164 163 164 164 165 164 165 165 145  75  59  49  36  56  67  64  66  68  68  72  72  80  83  91  98 102  99  97  95  92  86  84  89  71  63  68  79  81  82  84  91  87  73  71  84 117 140 113 117 128 138 144 149 145 140 126 115 113 110 106  94  86  82  81  81  88  71  66  79  97 116 161 182 182 183 183 183 182 182 181 181 181 181 183 184 182 184 183 183 182 182
 164 165 163 162 163 164 166 165 165 162 104  80  66  37  51  63  58  63  63  66  69  70  74  80  90  95  96  95  96  93  90  82  83  79  63  57  62  67  63  64  67  71  67  61  59  63  84 108 114 111 123 134 137 144 145 142 136 118 108 113 104  90  87  87  87  77  89  78  89  98 116 128 172 182 182 183 183 182 182 181 180 179 181 182 183 183 181 182 183 183 182 182
 163 164 162 163 163 165 165 167 166 165 151  82  69  39  42  57  58  62  58  60  65  69  76  86  90  91  92  93  91  89  86  77  76  64  47  29  36  56  54  51  54  57  57  40  27  31  50  73 108 111 114 128 132 135 139 139 135 126 111 111 102  90  90  90  87  85  80  83 112 127 132 140 176 182 183 182 181 182 182 180 181 181 182 182 181 181 181 182 182 182 181 182
 163 162 163 164 164 164 165 166 166 164 163  96  73  39  38  56  56  62  59  62  66  73  81  89  89  89  91  91  90  87  80  72  67  49  27  19  24  45  48  45  46  51  47  37  31  30  34  56 108 121 118 124 126 129 131 136 134 129 114 109 105  95  99  99  97  91  79  79  92 108 117 151 178 181 181 181 181 181 181 181 181 180 181 181 181 181 182 181 181 181 179 179
 162 162 164 163 163 162 163 163 164 163 161 124  75  49  40  58  59  57  59  61  62  73  82  87  88  90  89  90  89  82  72  73  64  41  28  30  40  44  46  42  43  47  44  44  40  37  42  84 132 133 130 124 124 122 127 128 126 127 119 110 108 111 106  98  93  82  73 106  82  78 109 172 180 180 181 181 181 178 180 181 180 180 181 181 182 182 181 180 181 180 179 180
 161 163 161 162 162 162 163 163 163 162 162 142  78  69  50  61  60  58  57  61  68  80  83  82  85  88  87  84  82  77  72  75  66  46  37  39  41  41  41  40  38  40  39  41  38  38  63 100 106 123 139 135 127 126 129 128 127 122 114 110 100 103  97  92  89  82  75 135 174 172 175 179 182 181 181 180 180 180 179 181 179 181 181 181 181 181 181 181 180 180 179 178
 161 161 161 162 161 162 161 163 164 162 163 154  88  71  57  54  58  54  57  61  68  74  80  82  84  86  85  84  79  77  80  81  68  49  42  36  40  38  37  35  34  37  40  44  47  46  72  97 114 133 137 136 134 130 130 125 127 120 110 103  97  96  94  93  87  80  70 149 178 180 180 181 181 180 181 181 181 180 179 181 180 182 181 181 181 180 180 179 180 179 180 178
 160 159 161 160 161 162 163 163 161 162 162 159 106  69  53  54  57  51  54  54  64  70  74  78  80  84  84  80  78  82  86  83  63  50  43  36  37  37  36  34  32  35  37  43  43  49  72  86 112 128 129 130 128 128 129 124 122 114 105  98  97 100  94  90  82  74  64 154 180 180 179 180 181 179 180 181 181 180 180 180 180 181 181 180 179 180 180 179 178 177 178 177
 161 158 161 160 159 161 162 161 161 162 162 161 146  88  63  61  54  48  51  55  63  67  70  73  80  81  81  80  81  84  85  76  53  43  44  43  39  38  38  32  32  33  37  44  47  58  66  77 100 112 108 108 104 109 116 121 118 113 105 101 103 104  89  80  72  69  77 162 178 179 180 180 180 180 179 180 180 180 180 180 180 180 180 181 179 179 178 179 177 177 179 177
 159 159 159 159 159 161 162 161 161 161 162 162 161 158 155  86  55  50  50  54  62  64  65  69  75  78  80  80  79  76  73  61  47  42  39  42  41  38  35  30  30  32  36  42  51  64  72  78  82  88  90  99  90  95  94 106 114 113 105  99  98  90  78  69  65  67  84 166 178 180 180 179 178 179 179 179 180 179 180 179 179 181 180 179 180 179 179 179 175 177 177 177
 160 160 158 158 158 160 160 160 161 161 162 162 161 161 158 104  52  51  48  51  57  58  63  70  73  76  74  70  71  71  63  54  44  40  38  42  38  37  35  31  30  30  34  40  52  66  72  69  70  76  80  86  86  87  89  93 103 107  99  92  87  84  63  65  60  58  84 160 174 176 176 177 179 178 178 181 181 180 180 180 180 181 181 179 181 180 180 177 178 179 179 180
 159 158 157 157 158 159 160 160 160 162 160 162 161 162 158 119  52  47  48  49  55  56  63  67  73  75  67  61  63  59  49  45  39  41  41  40  37  36  37  32  30  32  38  47  62  78  78  71  69  80  75  70  75  80  87  90  86 100  94  86  85  80  64  62  60  57  90 156 170 175 176 176 175 176 178 178 178 177 178 178 177 180 180 179 180 180 178 177 178 181 177 179
 157 156 156 158 158 159 158 160 160 159 161 161 160 160 160 149  65  43  48  44  50  51  59  65  72  69  62  56  61  53  47  46  45  45  46  47  46  44  43  41  34  39  52  64  78  84  87  83  77  79  70  64  66  68  73  79  77  90  93  84  82  74  58  55  57  53 113 158 173 175 174 175 174 175 176 176 177 178 178 177 176 178 178 178 177 177 177 177 177 179 178 176
 155 155 156 157 156 157 158 159 161 160 159 160 162 160 160 154  77  46  44  42  42  49  55  63  68  59  56  54  52  49  50  49  47  49  50  51  51  49  50  52  54  60  63  58  53  52  50  56  59  66  66  55  52  55  61  70  70  82  90  86  76  67  59  56  55  59 122 163 174 175 176 175 175 175 178 175 177 176 177 176 176 177 178 178 177 178 178 177 176 176 176 176
 156 155 155 156 156 157 159 159 159 158 158 160 161 162 161 157 106  47  45  44  46  52  58  63  62  53  59  53  48  42  45  46  46  46  41  38  37  38  41  45  52  50  42  39  38  40  37  35  36  38  45  43  41  45  48  56  62  76  88  85  72  64  61  54  56  84 148 171 174 175 174 173 174 174 176 177 177 176 178 176 176 178 177 177 177 178 176 176 176 176 176 176
 154 155 155 156 156 157 158 159 157 158 158 157 160 160 160 160 140  46  46  45  46  50  58  62  62  52  51  49  43  36  37  39  36  33  30  31  31  31  31  31  34  34  33  34  30  29  28  29  31  28  27  30  29  32  41  47  55  74  83  82  70  59  53  52  52 118 164 172 175 175 174 174 174 174 176 177 176 177 176 176 175 176 176 175 177 175 176 176 176 176 176 174
 154 155 155 155 156 156 157 158 157 157 158 159 159 159 158 158 154  69  45  46  45  47  56  62  56  47  47  40  33  26  24  24  23  23  23  22  21  23  25  23  21  23  23  24  23  27  30  33  32  28  30  40  41  36  43  50  60  70  77  75  70  60  51  51  52 140 170 173 174 175 173 174 174 174 174 174 176 176 175 176 174 175 174 174 176 175 176 176 175 175 176 176
 153 154 154 155 156 156 156 157 156 156 157 159 158 158 157 158 154  91  45  46  44  44  53  61  57  48  44  35  29  20  22  22  24  28  32  34  33  28  27  25  23  25  30  36  41  52  56  56  51  49  53  56  52  48  47  51  62  69  69  66  61  56  50  48  75 157 173 174 173 174 173 174 174 174 174 174 174 174 174 176 175 174 176 174 176 177 176 175 175 175 176 175
 151 153 154 155 156 155 156 156 155 156 157 157 158 157 157 158 156 133  44  43  42  44  50  58  59  50  40  35  31  31  40  38  38  41  45  45  47  45  44  47  43  42  47  56  64  69  74  74  68  73  73  69  62  57  49  50  56  61  63  61  53  52  50  44 108 165 172 173 173 174 174 173 174 174 175 174 173 174 174 175 174 172 174 174 175 174 175 174 174 174 174 175
 153 152 153 154 155 155 154 155 156 155 156 157 155 156 156 156 156 151  63  43  47  44  49  55  57  48  40  36  36  38  46  52  51  46  48  48  47  48  51  53  52  52  57  64  71  70  73  74  78  74  70  70  66  62  53  49  52  56  55  51  49  50  50  51 154 169 172 173 173 173 173 173 174 173 174 174 174 172 174 173 173 174 172 172 173 174 174 173 174 174 174 173
 150 153 152 154 155 155 155 154 156 156 155 154 156 156 157 155 157 151 106  38  42  43  46  51  52  47  43  41  40  44  47  51  55  52  51  49  46  46  50  51  53  56  61  62  71  71  65  67  65  64  63  60  63  57  53  47  48  52  52  51  49  49  46  94 162 170 170 170 173 174 172 173 173 173 172 173 173 172 172 174 174 173 173 172 171 173 172 171 173 174 174 172
 151 150 152 153 153 154 155 154 155 156 155 155 154 154 156 155 156 154 143  45  39  42  42  44  50  47  45  43  44  43  44  47  48  48  50  47  44  44  44  45  46  49  53  55  58  56  52  52  50  53  54  53  56  54  50  46  45  47  54  50  47  48  43 134 166 169 171 171 171 172 172 173 172 172 172 171 171 172 172 172 173 172 171 172 172 173 172 173 174 173 172 172
 149 149 151 153 153 153 154 154 155 155 155 154 155 155 156 156 156 154 150  73  36  38  39  45  47  41  38  39  38  39  43  43  44  38  39  38  39  39  37  36  36  37  38  38  39  40  38  39  40  44  49  55  53  51  49  43  44  46  49  45  44  41  61 155 165 168 170 169 168 171 170 171 172 172 172 171 171 172 173 172 171 172 172 172 171 172 171 171 171 171 172 171
 147 148 149 150 152 152 153 154 154 154 155 155 155 155 153 155 156 154 153 137  43  36  36  40  40  37  34  33  36  40  40  40  39  35  34  31  29  29  23  18  19  20  22  24  27  31  32  37  41  46  50  52  52  51  47  38  39  40  42  38  39  43  90 157 165 169 169 169 169 171 170 170 170 171 170 171 172 171 170 170 171 172 171 172 171 171 172 171 170 170 170 169
 146 145 149 150 150 149 152 152 152 154 154 154 154 154 154 155 155 153 153 149  93  31  32  34  38  36  31  30  31  34  40  41  41  36  34  30  27  25  19  16  16  16  17  24  25  31  38  41  45  51  54  54  56  54  50  42  38  38  38  35  41  69 118 158 166 168 168 168 169 169 169 170 169 170 168 170 170 170 168 169 171 170 170 171 170 171 172 170 170 170 169 169
 142 144 146 147 148 151 151 151 151 152 153 154 154 154 154 154 154 154 150 150 105  36  30  30  32  33  32  28  30  34  37  40  42  41  37  33  30  26  21  19  21  21  21  24  27  33  40  48  55  61  63  59  60  62  53  44  40  37  36  33  55  86 124 160 165 166 167 167 166 168 170 168 168 167 167 169 170 168 168 169 169 169 169 169 170 170 170 170 170 170 169 169
  94 141 144 146 147 149 148 150 151 150 151 153 152 153 154 153 152 144 108  90  64  46  29  28  30  30  30  27  28  32  36  38  41  42  42  39  35  29  26  26  28  26  25  27  32  37  46  57  67  69  71  67  63  56  49  42  40  38  32  36  63  82 109 124 136 152 162 165 165 167 168 166 168 167 167 167 167 168 166 167 167 167 168 169 169 168 169 168 167 167 168 168
  80 136 140 143 144 145 148 148 148 148 148 150 153 153 150 151 143  80  51  63  53  46  46  26  27  29  30  28  28  30  31  32  35  40  45  44  38  30  29  28  31  28  29  32  35  39  50  65  68  70  69  63  60  53  48  39  36  31  34  52  67  88  78  68  80 100 126 145 157 165 165 166 167 167 166 168 167 167 166 166 165 167 167 168 169 168 169 168 168 166 167 168
  84 133 135 139 141 143 144 147 148 146 148 148 150 150 151 136  88  54  44  55  46  37  52  43  27  25  27  25  26  28  29  30  34  37  42  39  31  29  28  28  31  29  30  32  34  41  50  69  70  65  53  50  48  45  37  34  29  32  48  59  73  88  66  42  45  56  79  96 126 147 156 164 165 166 165 166 167 166 166 166 164 167 167 167 168 168 167 167 165 167 166 166
  92 103 108 112 119 124 127 132 134 138 141 143 146 135 106  75  69  49  42  55  46  37  55  52  39  30  23  23  24  25  27  30  29  34  35  33  36  35  30  29  32  33  30  34  33  37  49  58  60  55  47  44  40  37  28  25  29  44  53  62  79  91  83  43  34  40  52  69  89 103 124 141 157 166 164 165 165 165 164 163 164 165 164 165 166 166 166 165 165 165 165 165
  83  85  87  87  89  90  96  98  96  95  98 100  96  79  70  60  61  45  42  55  48  40  54  54  45  38  29  24  22  23  24  28  28  31  32  30  32  36  32  27  26  29  27  27  28  33  40  52  51  46  45  42  32  29  25  25  40  50  53  62  80  94  76  61  32  30  36  42  60  73 100 114 134 144 157 163 164 164 164 163 163 162 163 163 164 166 164 164 164 164 164 163
  79  80  81  83  84  89  80  89  81  83  78  79  74  63  54  62  58  42  44  51  45  37  46  57  49  44  40  33  24  20  22  25  31  31  29  28  28  30  27  24  24  25  23  25  26  29  35  40  38  38  36  34  27  26  32  40  44  50  59  70  84  91  81  57  37  33  32  33  40  45  71  94 116 132 136 150 160 163 163 163 162 163 162 162 162 161 160 163 163 163 162 163
  78  75  78  83  87  86  68  78  76  70  69  66  56  56  59  58  52  35  46  47  45  34  44  58  50  43  38  37  33  22  19  19  24  25  26  25  25  25  27  24  24  23  21  21  22  24  29  30  29  30  28  26  30  41  43  43  47  55  63  71  84  90  78  90  84  52  36  35  36  40  54  74  95 118 128 126 136 156 161 163 162 162 161 160 162 162 159 160 160 161 160 160
  75  75  79  91  91  79  64  65  73  71  67  59  52  55  50  41  40  28  50  47  41  35  42  57  51  44  38  36  37  36  29  19  19  24  25  24  23  23  25  23  23  20  19  19  20  23  24  25  24  25  27  38  46  49  46  46  53  59  67  73  84  86  54  64  81  92  74  43  38  37  43  56  78 102 107 115 119 126 155 159 160 160 161 159 160 159 161 159 156 157 156 156
  77  79  85  89  86  82  69  57  74  71  74  60  52  51  50  44  38  29  50  40  36  34  42  59  54  48  40  37  36  40  41  36  28  22  22  21  18  20  20  16  16  16  15  16  16  18  18  20  26  29  40  49  52  52  51  52  59  65  68  75  84  86  47  44  55  77 100 101  58  41  39  55  72  97  96 114 112 104 134 154 158 159 159 157 158 158 157 156 154 155 156 155
  88  93  84  87  85  75  69  57  58  66  66  62  52  47  46  42  36  31  55  42  39  34  42  60  54  48  42  37  36  39  41  40  39  34  24  19  17  15  15  13  13  12  12  12  14  17  22  30  34  36  45  49  51  52  52  56  62  62  66  75  85  90  85  53  43  60  78  85 103  63  42  54  80  99 112 114 116 101 117 144 155 156 157 156 158 157 156 156 155 156 154 156
  83  85  89  87  84  87  80  62  56  66  65  56  55  49  40  38  33  32  51  43  38  32  41  59  55  52  46  43  40  37  39  40  38  37  31  28  25  22  19  19  21  19  17  20  24  28  33  37  36  36  45  49  50  51  52  57  61  63  68  77  82  97 118 121  58  43  57  82 103 106  59  44  70 100 126 117 112 102 119 128 136 150 155 156 156 156 155 156 156 156 154 155
  85  84  76  81  82  76  77  63  53  67  67  63  53  48  40  32  29  30  45  44  38  33  40  59  59  53  46  44  43  41  43  42  42  36  35  31  29  28  26  26  25  26  26  28  30  34  37  37  36  36  39  45  46  51  54  59  60  64  72  78  87  99 128 131 139  46  45  67  91 116  95  36  58  98 117 121 114 112 120 120 129 136 148 154 157 155 155 154 154 154 154 152
  75  77  69  83  83  81  83  69  54  58  71  64  53  48  40  33  27  28  46  40  36  34  38  59  58  53  48  44  42  44  45  43  42  41  38  34  31  32  33  26  27  26  28  31  35  41  37  33  36  36  40  45  45  53  56  57  58  69  72  82  88  98 132 124 172 103  38  54  73  90 116  68  44  88 110 121 116 118 117 111 112 129 138 150 154 153 153 154 154 152 153 152
  64  70  70  79  83  80  79  71  60  49  68  63  55  46  38  32  28  34  47  41  38  33  35  55  58  56  50  46  44  42  45  45  44  42  39  36  32  33  33  29  29  29  30  32  38  38  36  34  37  37  43  48  50  57  55  56  64  73  76  83  89  99 129 130 157 173  68  37  59  79 104 111  42  76 111 125 122 113 111 115 114 120 123 136 149 153 152 153 153 152 153 151
  71  65  65  67  83  79  83  79  68  51  63  63  55  40  33  31  29  33  42  44  41  35  30  51  56  54  51  48  45  44  45  47  46  41  37  38  35  32  31  31  31  30  30  32  35  33  35  34  38  38  45  48  52  56  55  60  68  74  81  83  90  99 126 137 131 190 131  49  57  71  91 106  77  56  97 118 128 120  96  97 109 116 121 126 127 124 145 152 152 151 151 152
  76  79  74  61  73  73  73  69  70  56  50  62  54  48  36  30  31  37  49  48  45  41  23  44  53  54  52  50  47  45  46  46  46  44  41  38  34  33  33  33  34  33  32  33  31  31  33  38  41  44  48  49  53  57  58  64  72  75  79  84  87  99 124 141 116 195 169  96  58  72  79  93  98  54  87 112 125 124  92  93 101  97 129 129 127 125 129 140 142 145 149 151
  64  63  59  57  72  74  66  74  68  58  45  56  61  54  40  35  29  34  46  43  40  36  22  36  50  53  50  50  48  46  46  45  47  46  44  39  38  33  34  31  32  33  34  31  30  32  36  40  44  46  47  53  55  57  58  65  72  76  80  84  89 101 121 139 114 196 190 133  72  81  78  87 106  74  76  97 124 128  89  81 103 105 115 125 134 130 122  74  80 106 136 149
  61  63  49  54  63  74  68  62  73  60  43  60  68  57  48  36  28  30  44  37  38  37  26  28  45  51  50  51  50  47  47  46  46  45  44  40  38  36  35  32  31  31  31  30  29  31  37  42  46  48  50  55  57  61  68  71  74  75  77  84  88 102 117 137 136 174 200 160  86  88  81  78 110  93  76  98 115 124  90  70  94 104 102 116 127 119 119 121  84  76 115 132
  54  64  64  61  64  77  67  63  56  64  54  37  59  48  46  36  30  28  45  39  38  43  30  25  39  49  48  50  51  50  48  46  45  47  46  42  42  38  35  34  32  31  30  33  34  38  41  44  47  50  52  56  59  65  70  71  71  74  79  86  92 102 116 135 150 164 207 181  95  84  80  80 102 105  76 104 116 118  89  66  88  98 100 116 118 129 116 119 132 102 103 126
  61  73  74  60  67  80  78  79  69  70  59  36  55  58  53  41  30  28  40  38  45  45  31  22  33  45  49  50  50  50  50  47  46  46  45  45  43  42  39  37  35  36  36  39  40  44  45  46  48  48  52  55  63  67  68  70  71  74  80  89  95 104 116 136 151 156 210 197 114  94  96  93  97 101  73 102 113 121  84  64  79  93 101 112 114 116 120 114 117 103 107 118
  66  78  73  59  57  78  79  66  69  81  77  53  38  58  56  47  31  27  43  48  46  43  32  19  29  41  46  51  50  49  49  49  46  44  44  44  43  42  42  41  41  40  41  38  41  43  45  47  46  50  53  57  63  65  65  70  72  77  82  90  94 105 117 133 148 148 211 202 143  89 103 102 108 112  76 101 111 113  91  62  78  90  99 109 112 105 110 117 116 110 112 123
  68  75  73  64  49  76  81  75  77  73  78  63  32  57  64  46  32  29  43  43  39  43  36  19  28  34  44  46  53  52  51  50  48  45  44  44  43  42  42  41  40  41  41  42  45  46  47  46  51  52  54  60  64  65  67  70  73  77  81  88  96 109 118 131 146 147 205 206 165  89 106 108 109 102  77  87 108 115  95  56  76  95 108 108 109 105  99 114 109 113 119 113
