P2
# Generated by OpenCV 3.4.0
92 112
255
 152 152 152 154 154 153 155 154 154 158 158 157 160 160 160 161 161 161 157 138 133 135 113 140 159 159 155 143 133 130 115 119 126  94  56  60  64  75  60  62  62  64  72  65  50  47  52  50  51  56  71  77 117 120 129 158 163 159 154 170 178 185 187 186 188 188 190 190 190 191 191 191 191 192 192 192 193 192 194 192 194 195 195 198 198 199 198 197 200 199 201 200
 154 154 155 155 156 156 157 155 157 159 158 158 160 161 161 162 162 160 143 132 125  91  80  72 107 145 154 138 122  95  79  74  74  76  63  58  51  55  60  57  55  54  53  52  41  38  38  38  38  42  52  65  86  97  89  93 123 126 111 118 158 178 184 183 187 189 188 190 190 190 192 192 191 193 193 194 193 194 193 194 196 196 196 198 198 197 200 201 198 198 199 200
 153 153 155 155 157 156 156 155 158 159 159 160 162 162 162 163 161 154 138 101  86 102 102  87  65  64  93 105 124  97  95  83  84  70  55  48  45  39  48  49  44  40  46  51  39  32  33  32  32  33  37  55  63  62  71  70  77  85 103  86 115 159 166 171 183 188 189 190 192 191 191 191 192 193 195 195 194 194 193 196 196 196 197 198 197 200 198 199 200 199 199 201
 155 156 157 156 155 159 160 159 159 160 161 161 160 160 162 165 162 161 149 110  66  89 109  93  61  43  51  63  74  79  98  83  64  53  56  50  47  33  34  42  44  46  46  46  38  34  33  38  35  37  35  42  57  53  56  64  70  65  73  75  77 113 117 155 171 182 188 190 193 193 192 192 193 194 195 195 195 194 196 196 196 196 198 197 198 198 198 198 200 201 202 203
 154 156 156 156 158 159 159 159 159 161 162 163 162 161 164 164 164 158 153 150 120  70  75  69  52  45  51  49  46  57  79  96  64  50  49  39  40  37  37  41  42  40  46  53  44  31  31  37  40  40  41  43  44  49  51  51  56  55  51  57  70  78  81 129 153 165 186 188 191 192 193 192 193 194 194 195 194 194 196 197 197 197 197 197 199 200 199 202 201 200 202 203
 155 155 159 160 161 162 160 162 161 161 162 163 163 164 165 165 164 163 164 162 152 103  66  62  71  58  53  46  41  39  47  55  60  50  33  31  29  30  35  38  43  38  34  39  51  48  42  35  33  42  44  43  45  39  41  48  55  46  44  52  66  74  69 100 147 131 173 181 189 192 193 192 194 194 194 194 195 194 196 198 200 197 199 196 198 201 200 199 201 202 201 202
 158 158 160 161 161 161 161 161 162 163 163 163 164 164 166 164 165 166 164 164 160 135  78  54  64  64  46  36  36  36  34  33  39  59  25  25  24  23  24  31  39  33  36  26  27  44  54  50  40  33  45  44  42  38  46  45  52  51  45  42  51  61  58  69 134 118 141 157 173 189 186 191 193 193 193 194 195 196 197 199 197 198 198 197 200 200 202 201 201 201 201 202
 159 160 160 161 159 162 162 162 164 164 163 165 164 164 165 166 165 166 165 165 162 124  71  57  67  63  40  29  29  31  31  34  24  25  18  19  17  21  20  19  23  29  26  26  20  22  36  43  43  37  32  34  38  39  39  43  39  42  43  43  36  40  47  56  80  97 122 132 134 160 173 184 192 193 194 194 196 195 196 197 198 198 197 197 198 199 201 201 202 202 201 200
 159 160 161 160 160 161 162 163 162 162 163 164 165 166 164 166 166 165 164 160 161 110  54  56  52  46  35  26  25  23  25  25  20  16  16  18  16  21  28  28  27  27  27  26  24  19  17  24  30  28  28  27  35  34  36  39  41  40  35  37  35  35  40  46  54  67  87 115  89 111 144 165 187 194 194 195 195 195 198 200 198 196 198 198 201 201 202 199 201 201 199 200
 160 159 160 159 161 162 161 161 164 162 162 164 165 165 164 165 163 152 148 136 129  60  40  36  35  31  28  23  19  17  18  21  19  15  14  14  14  16  18  21  25  27  29  32  32  30  24  18  20  21  22  25  25  26  24  28  35  41  35  27  29  30  32  38  41  51  60  87  67  81 111 128 174 187 194 194 194 195 197 199 197 198 198 201 200 200 198 201 202 200 200 199
 159 158 160 159 161 162 162 164 163 163 164 164 165 165 165 162 149 143 146 138  71  39  35  30  29  28  26  20  14  13  14  14  13  13  12  15  15  16  19  17  18  22  23  25  30  31  35  30  21  20  16  17  19  20  20  23  25  27  29  29  26  24  25  31  34  41  48  58  67  64  82  92 135 180 190 192 194 194 197 198 196 198 199 201 199 198 202 201 201 201 203 202
 158 159 159 160 162 163 162 162 163 164 164 165 166 166 166 165 157 154 147  81  46  35  32  28  25  20  20  17  14  14  12  10  11  12  14  14  17  19  22  24  28  28  26  23  25  28  34  35  28  23  21  14  19  21  23  17  19  25  25  27  27  21  21  26  30  34  42  49  59  59  59  70  69 157 174 171 170 189 197 196 196 197 198 200 199 198 199 199 200 200 201 200
 160 159 161 161 162 163 163 162 163 164 165 165 165 165 165 165 160 149 106  48  36  31  27  23  20  16  19  15  14  13  14  12  13  14  14  13  13  14  14  18  24  28  32  30  28  22  25  37  38  33  24  19  20  30  31  22  16  16  18  22  24  20  20  24  26  31  32  39  49  51  46  58  56 111 141 120 125 182 194 198 196 196 196 196 197 198 199 198 200 200 199 199
 160 160 161 162 163 163 163 161 164 163 165 164 165 165 164 162 153 107  54  40  30  24  24  20  16  14  14  11  11  11  12  15  14  14  14  14  15  13  13  14  17  20  24  26  27  27  24  26  39  43  32  24  18  22  30  42  26  15  14  16  19  20  19  15  20  29  28  27  36  42  46  51  43  68  90  78  93 171 194 196 196 196 197 197 195 198 198 199 199 199 198 199
 159 159 160 160 161 162 164 161 162 164 165 166 165 162 156 146 118  73  47  32  28  21  20  18  16  14  14  11  11  11  13  14  17  17  16  15  17  19  22  15  13  14  15  19  21  24  25  23  24  33  34  30  21  18  23  36  38  33  18  15  17  18  15  15  18  29  33  23  28  36  44  35  35  54  52  52  74 165 189 195 196 195 196 196 197 198 199 198 196 199 202 199
 161 159 160 160 161 161 162 163 162 163 163 165 165 161 149 113  57  43  36  32  27  24  17  14  14  13  11  10  11  12  14  15  16  19  16  13  15  18  22  23  23  17  17  20  20  20  22  25  22  22  22  26  23  18  16  19  26  31  31  26  21  17  14  14  15  18  32  26  25  28  35  31  32  40  40  42  76 158 179 192 195 196 197 197 198 197 196 197 199 198 198 200
 161 159 160 160 162 163 164 164 165 164 163 165 163 160 104  50  42  34  31  26  20  16  15  14  13  13  14  11  13  14  14  15  17  19  16  11  11  13  12  18  23  24  24  28  26  23  25  22  23  23  23  24  27  24  17  14  14  14  20  25  28  24  17  15  14  15  19  24  22  25  31  29  29  33  31  42  79 110 167 191 195 196 196 196 196 197 196 197 199 198 198 201
 162 162 161 163 162 164 165 166 165 165 165 165 162 122  47  40  35  32  29  28  25  18  14  15  15  15  15  16  16  17  18  19  20  16  14  13  13  15  14  16  23  27  25  29  32  31  31  32  25  22  18  19  18  21  23  19  17  14  12  13  14  18  17  14  12  14  16  19  20  20  25  28  29  29  26  40  68  76 172 192 194 194 196 196 195 196 198 197 198 196 197 198
 162 163 164 164 164 165 165 165 165 165 166 164 142  52  39  32  30  28  27  27  23  20  17  17  19  17  18  18  17  16  16  15  15  15  15  19  24  27  20  17  18  22  21  19  21  23  29  32  36  35  29  26  28  32  33  32  23  16  13  14  13  13  14  14  13  14  14  16  17  18  21  24  30  27  31  40  59  67 179 186 191 195 198 197 196 198 195 196 197 196 196 198
 163 162 163 164 165 165 165 164 166 166 166 160  87  41  31  26  25  23  21  20  17  19  16  15  16  16  16  16  16  14  14  13  14  13  16  21  27  33  31  18  18  21  20  18  19  17  19  21  22  22  21  21  23  28  34  38  39  28  21  21  22  20  16  14  13  13  13  14  16  17  19  21  23  28  34  37  36  77 145 167 192 195 195 197 196 195 197 197 197 196 196 197
 163 162 163 163 164 164 165 165 165 165 163 149  45  36  29  24  20  22  18  17  19  20  16  16  15  16  16  15  15  13  15  14  14  14  16  19  25  28  35  27  21  22  21  23  26  23  21  21  22  22  21  16  16  17  20  26  28  31  26  20  15  18  21  19  15  13  14  14  16  16  17  18  22  27  29  27  31  62  77 157 190 193 193 195 197 197 197 197 196 196 195 196
 163 164 163 164 163 163 164 164 165 165 161 113  45  32  28  22  17  15  17  17  17  18  16  16  16  15  16  16  14  15  15  16  16  17  20  21  22  23  21  20  17  15  16  20  23  25  26  26  27  31  32  30  30  24  20  20  22  28  26  22  21  22  23  18  20  18  15  16  16  16  16  17  21  24  28  26  39  45  62 169 191 193 193 194 195 194 196 195 196 195 195 196
 162 162 161 162 164 164 165 165 164 165 160 117  34  30  27  24  18  15  16  16  16  16  16  15  15  16  16  14  15  15  16  16  17  19  22  24  22  20  17  15  14  12  12  12  13  15  13  14  15  16  18  19  19  25  26  23  22  21  24  24  23  29  31  33  27  19  16  16  16  19  18  20  21  23  24  28  37  35  70 140 185 192 194 195 194 193 196 194 195 196 196 197
 161 163 162 164 165 164 165 165 166 164 160 112  32  27  24  23  20  15  15  15  17  16  14  15  16  16  16  15  15  16  16  17  20  23  24  22  21  19  14  12  12  11  10  11  11  11  11  11  10  11  14  16  16  16  16  19  23  21  20  18  13  15  19  24  21  17  14  16  14  17  24  25  29  21  22  29  24  30  75 116 162 188 193 194 194 193 195 195 193 194 196 196
 163 164 164 163 164 165 165 165 165 164 158  79  33  24  18  21  20  16  15  16  18  16  14  15  16  15  15  15  16  16  14  16  16  16  14  13  12  12  11  11  11  11  11  11  11  10  10  10  10  11  12  15  14  16  17  19  20  22  20  21  19  17  17  17  18  16  14  16  17  18  22  24  25  21  22  23  23  30  66  90 150 186 192 195 195 194 194 196 194 194 196 194
 163 163 165 163 163 165 165 165 165 162 136  35  30  22  15  15  20  16  15  16  17  17  15  14  14  15  16  16  16  14  14  12  12  11   9  10  11  10  10  11   9  10  10  11  11  10  10  10  10  10  11  15  13  13  16  18  22  23  27  30  27  26  24  25  26  21  16  19  18  19  21  22  26  23  22  26  25  29  47  61 128 177 186 193 194 195 195 195 195 194 195 196
 164 164 165 164 165 165 165 165 165 158  68  36  27  19  16  14  16  18  16  16  16  16  15  15  14  15  17  16  15  14  12  11  11  10  11  11  11  11  11  11  10  11  11  11  11  11  11  12  11  11  11  13  13  17  18  18  22  24  26  29  28  27  25  30  32  29  24  24  25  34  39  30  27  24  24  24  24  27  36  61 114 163 174 184 192 193 194 195 194 194 194 195
 164 163 165 164 165 166 165 165 164 136  35  30  26  19  16  14  15  16  17  15  15  16  16  14  15  16  16  16  15  13  13  14  13  13  14  15  13  13  14  15  13  12  12  11  11  12  12  11  11  10  10  12  11  13  14  16  17  20  21  21  24  26  25  28  29  32  29  28  39  44  37  29  25  23  25  24  22  27  36  69 100 130 157 178 190 193 195 195 194 195 195 196
 164 163 164 162 164 166 165 164 163 102  33  28  24  21  17  15  16  15  16  14  15  16  14  14  14  15  16  16  15  14  17  17  16  16  18  18  19  19  21  21  21  18  18  18  16  15  15  14  13  12  11  12  12  13  13  15  17  17  17  20  22  22  25  31  41  42  38  38  40  45  42  37  27  24  26  31  27  24  36  53  79 110 112 171 189 193 194 196 195 194 194 194
 164 164 165 164 164 165 165 165 165  60  29  26  23  21  17  15  17  16  15  14  16  16  14  16  15  14  16  16  15  17  21  21  21  23  25  27  28  30  32  32  31  31  29  28  28  25  22  21  17  15  15  14  12  14  14  15  19  22  24  24  24  27  28  34  37  39  39  41  43  43  40  39  30  26  25  29  29  29  37  47  64  96 138 162 188 193 194 194 194 194 194 193
 164 163 165 164 165 165 165 164 144  32  26  23  22  24  21  15  15  14  14  16  15  16  15  17  16  18  18  15  16  20  24  27  28  31  34  36  40  41  44  44  44  42  40  39  38  37  33  30  28  24  22  18  16  17  17  20  22  25  26  27  27  28  30  33  33  35  36  40  40  39  34  38  32  26  24  24  27  26  32  41  57  86 164 150 188 192 192 193 193 195 193 194
 165 166 164 164 165 166 165 164 113  34  26  23  21  24  22  17  14  14  14  15  16  18  19  21  24  24  21  17  22  25  29  32  35  39  43  46  49  51  53  53  54  51  50  50  50  47  44  42  40  34  30  28  26  25  28  29  30  30  31  32  32  35  34  36  38  32  38  47  46  39  34  35  33  26  27  23  26  25  37  51  58  99 152 148 187 192 192 193 194 195 193 194
 164 165 165 165 165 166 166 163 119  32  25  22  21  22  18  18  15  15  15  16  18  22  25  31  33  33  28  25  27  32  36  41  45  48  51  53  54  57  59  61  60  58  57  55  54  54  52  53  51  48  45  42  40  40  40  40  39  38  38  38  41  44  43  38  34  37  50  56  56  46  36  33  33  29  26  26  28  35  50  66  65 101 138 148 188 192 192 193 194 195 193 193
 165 167 166 166 166 167 166 164 109  29  22  20  20  17  17  18  17  16  16  20  23  30  36  46  47  38  34  32  38  44  45  49  54  53  58  58  62  63  65  65  65  65  63  62  60  60  60  59  57  56  54  51  48  50  50  47  45  45  45  44  42  37  34  38  46  48  60  65  63  53  38  31  31  28  27  27  35  49  64  52  67  86 106 168 190 192 191 194 194 192 192 193
 166 166 166 166 167 167 166 166 102  28  22  19  21  18  16  19  18  17  19  21  27  36  45  56  61  58  52  50  50  55  56  58  60  61  62  65  66  68  69  70  69  68  66  64  64  64  65  64  63  58  60  56  56  56  52  50  50  50  51  49  44  44  48  51  53  56  64  70  62  50  39  32  29  25  25  26  34  36  38  49  76 115 143 181 191 192 190 191 193 193 193 193
 166 166 166 166 166 167 166 165  91  26  21  20  18  17  21  22  19  18  20  23  31  40  48  58  64  67  66  64  63  62  63  64  63  64  64  65  67  70  71  72  75  74  71  68  65  65  66  65  66  63  63  61  61  62  57  55  54  56  56  55  52  53  51  50  52  54  61  64  53  43  44  38  31  26  24  26  33  40  52  73 105 130 166 186 192 192 191 191 192 194 192 192
 166 166 167 166 167 167 167 166  84  27  21  18  17  19  21  15  15  16  18  23  32  41  49  59  67  70  69  68  70  67  67  67  67  68  68  69  71  69  71  72  74  73  71  67  66  64  67  66  66  66  64  63  63  63  62  61  57  61  63  59  55  55  58  59  50  45  45  41  44  49  49  43  34  28  26  30  41  62  80 110 134 144 173 187 192 192 192 194 196 193 192 192
 167 168 168 167 168 167 168 165  72  26  22  19  17  21  16  15  16  16  18  23  32  43  53  62  67  72  70  68  68  68  68  68  71  73  73  74  75  74  74  74  77  76  70  67  69  67  68  67  67  67  63  63  64  64  63  61  62  60  59  59  56  55  58  59  55  56  58  59  58  61  63  53  38  30  31  31  36  58  77 104 141 162 170 179 192 193 193 192 194 195 193 193
 168 167 169 168 169 168 168 166  70  28  22  18  18  19  16  15  15  16  21  25  32  44  53  63  69  73  71  68  70  70  70  70  71  72  75  77  78  78  80  82  79  79  77  74  72  70  71  70  68  69  65  66  65  66  65  64  63  61  64  65  61  63  68  70  67  67  71  74  70  69  72  66  46  31  30  33  36  47  69  79 101 111 122 168 191 192 193 194 194 194 194 195
 167 167 168 168 168 168 168 163  91  25  22  17  16  18  14  16  16  18  21  26  32  43  56  66  72  75  75  72  71  68  69  70  72  72  75  76  78  77  79  82  81  79  78  75  74  72  72  72  72  73  72  72  70  71  69  70  70  70  70  68  64  66  69  70  70  73  76  78  76  76  81  69  50  31  32  33  35  39  69 115 122 126 163 185 192 194 194 194 193 195 195 195
 167 167 167 169 169 168 169 163 117  28  20  17  15  16  15  15  16  16  18  25  31  46  59  69  73  77  75  72  71  72  72  71  71  73  72  70  78  82  83  84  84  80  75  75  75  74  72  71  74  75  73  74  73  74  72  73  74  74  71  67  66  69  71  70  69  73  78  86  83  82  79  69  49  33  29  31  36  37  55 119 159 167 185 192 194 194 195 194 194 194 193 192
 168 168 168 168 168 170 168 166 130  27  20  16  15  17  16  15  14  15  18  25  31  46  61  69  73  76  76  74  73  75  75  78  81  78  76  72  74  76  84  87  86  84  84  85  84  82  80  79  78  79  78  81  78  77  75  75  75  73  71  70  68  70  70  71  69  72  77  84  83  80  77  68  49  32  28  30  34  37  39  66 125 168 187 192 193 194 195 196 194 193 192 193
 169 170 170 168 168 169 171 170 130  25  18  13  15  18  16  15  16  15  19  25  34  52  67  69  73  75  76  78  76  75  79  84  90  90  91  90  86  83  82  83  87  85  89  93  92  91  86  87  87  86  87  87  85  83  80  76  73  71  69  67  66  68  68  71  69  73  78  79  79  76  74  67  45  28  24  27  27  41  40  84 121 158 186 193 192 194 195 195 195 192 193 193
 169 170 171 169 170 170 169 166 124  25  18  13  15  16  14  16  16  16  19  26  39  55  66  71  73  77  80  77  78  82  82  86  93  96  98 102 104 106 106 107 100  91  87  93  96  93  90  90  92  93  93  93  90  89  88  85  83  80  76  77  87  92  90  86  79  78  79  82  81  78  75  68  42  24  20  24  28  49  55  81 167 187 189 195 196 195 194 195 195 193 194 193
 169 170 170 169 168 168 170 168 116  26  17  14  16  16  15  16  15  16  22  33  48  59  67  70  72  74  80  80  80  82  84  89  91  96 103 107 108 111 114 114 115 112 105  98  95  95  96  96  91  90  90  93  92  91  91  88  90  92  89  91  92  88  80  77  77  76  76  78  79  81  78  69  40  21  18  22  27  52  79 110 176 191 192 196 195 194 193 194 194 192 193 192
 170 170 170 171 169 170 171 167  99  27  18  16  16  16  15  15  15  17  26  39  55  65  69  74  73  78  79  79  80  82  82  85  90  92  97 103 108 110 112 114 113 110 110 107 103 102  98  96  93  92  92  93  92  94  92  92  94  95  93  91  87  91  92  91  87  82  80  84  84  79  76  68  37  19  18  22  27  65 129 148 188 192 192 192 194 194 194 196 193 192 194 194
 169 170 170 169 170 170 170 167 101  27  20  16  15  17  14  14  14  18  33  49  61  68  72  75  77  79  81  70  59  60  60  66  75  78  82  89  95  97 100 106 110 104 104 104 105 106 100  97 100 101  99  98  96  93  93  94  94  93  90  92 100 105 101  97  97  95  91 100 102  91  76  67  34  19  19  25  30 109 172 182 190 192 191 192 192 194 193 194 195 192 193 192
 169 170 171 170 171 169 169 166  97  30  22  19  17  16  14  14  15  22  41  57  65  70  73  73  77  72  59  36  34  33  33  35  42  51  59  66  70  75  83  93  96  98  97  96  97  98 106  94 100  98 101 101  98  96  96  95  94  93  92  98 100 104 105 103 101 100 103 109 107  94  80  62  30  20  19  24  38 169 187 192 194 192 192 193 193 194 194 194 193 192 192 192
 170 170 170 171 170 169 168 152  96  36  23  20  17  15  14  14  16  26  47  59  68  71  75  72  58  43  32  26  21  20  20  23  25  28  33  39  45  52  62  73  81  86  90  92  92  92  96 101 101  99  97  96  97  96  93  93  94  94  98 105 105 100  99 100 100  99 102 106 103  90  80  62  30  22  24  25 110 185 190 192 194 192 194 192 192 193 193 192 191 193 191 192
 170 171 170 171 170 169 162 116  99  61  29  20  17  15  14  15  18  30  55  66  72  77  78  51  36  26  25  22  19  19  19  21  19  19  21  24  27  31  41  48  58  66  76  85  91  89  86  88  90  90  90  88  85  87  87  87  88  91  94  93  92  89  86  84  84  82  78  79  78  74  70  58  26  24  27  57 171 187 191 192 193 193 193 194 193 193 192 192 192 193 192 193
 170 170 171 171 170 169 152  62  73  69  43  25  16  15  14  15  18  36  62  72  76  78  65  37  28  25  26  24  25  25  23  22  19  17  16  18  19  21  26  33  43  51  60  71  80  77  81  79  82  82  85  85  84  82  82  80  80  79  78  77  75  72  66  64  57  53  50  47  46  44  51  49  26  26  68 160 183 188 191 192 193 192 191 193 192 193 192 193 192 192 192 191
 169 170 170 171 171 168 136  49  48  64  47  28  22  16  16  16  21  43  69  78  78  76  60  32  30  31  32  33  30  30  28  27  22  22  18  16  15  16  15  19  26  34  44  55  66  70  67  68  71  75  77  77  78  75  68  72  71  67  68  65  57  52  47  41  34  32  30  27  27  25  30  36  25  36 143 179 185 188 190 192 192 191 192 191 191 192 192 192 192 192 191 191
 170 170 170 171 171 168 123  47  50  63  50  34  29  20  16  15  24  53  73  81  80  68  44  39  39  38  37  37  37  36  34  33  31  30  26  23  18  17  14  15  16  19  28  40  50  62  64  62  62  69  71  71  68  67  60  67  63  59  61  49  38  30  28  25  24  24  22  23  24  23  23  28  26  96 172 186 188 188 189 191 191 190 192 191 192 192 192 190 192 191 192 191
 169 170 169 171 169 167 114  46  58  68  61  46  34  25  18  16  28  61  79  87  77  67  52  47  43  43  42  38  35  34  31  30  31  31  30  29  28  25  21  17  15  15  17  23  32  42  57  59  55  64  67  66  64  66  63  51  52  48  40  29  22  19  18  17  16  18  18  20  23  26  25  26  30 130 179 186 188 188 189 190 191 190 190 192 192 193 192 190 191 190 189 190
 169 169 169 170 169 166  84  49  72  68  58  59  45  30  16  18  35  73  86  92  78  65  53  50  49  45  42  36  35  38  38  38  39  34  31  31  26  24  24  24  21  19  17  17  22  31  41  53  57  61  62  62  58  58  54  45  42  34  27  22  18  17  17  18  19  23  25  25  26  30  33  32  71 162 181 186 188 188 189 190 191 190 190 192 191 192 192 191 191 189 188 190
 169 169 169 170 167 154  62  55  78  75  65  65  55  31  17  19  47  80  90  90  82  72  60  56  54  48  43  41  46  48  49  50  48  45  38  33  28  24  21  22  27  27  25  23  24  28  36  44  51  58  59  55  50  51  46  40  34  26  22  18  17  20  24  27  30  33  33  35  37  37  39  39  77 178 184 185 188 188 188 189 190 190 190 190 191 190 191 191 190 188 187 190
 170 169 169 168 167 146  65  77  74  67  57  57  55  35  20  21  61  85  92  91  82  74  67  61  56  50  48  54  55  50  42  39  35  30  26  27  26  24  22  19  20  24  27  28  28  30  34  48  55  61  62  56  56  49  46  35  29  25  24  24  25  26  30  32  31  30  30  35  42  44  48  49  99 174 185 185 187 187 189 189 188 189 190 190 189 188 189 190 189 188 187 187
 168 169 169 168 168 149  80  79  61  48  34  29  49  43  22  29  70  88  90  93  86  78  69  64  58  52  49  42  33  24  24  29  27  14  13  15  14  16  19  21  18  20  25  29  32  34  37  48  63  66  69  65  63  60  49  32  29  30  27  25  25  29  31  32  34  35  32  32  40  48  57  56 149 179 184 183 184 187 186 188 188 188 188 190 190 187 188 189 188 187 187 188
 168 168 169 169 167 152  86  68  51  42  32  28  39  42  25  38  77  89  89  93  90  83  76  67  57  49  41  27  25  38  44  49  34  13  12  13  13  15  22  17  20  22  24  28  32  39  41  57  73  78  78  77  76  70  50  32  29  25  23  24  26  28  30  36  42  52  49  38  39  51  65  99 175 183 184 184 184 185 185 187 187 186 188 188 188 188 188 188 187 187 188 188
 166 167 167 169 168 157  89  60  43  37  31  32  54  49  28  43  84  91  91  95  96  88  81  71  62  55  47  43  40  38  43  49  36  15  12  12  13  18  28  23  21  23  28  30  34  39  45  67  85  86  92  98 100  91  43  30  29  26  25  24  21  17  18  18  22  29  39  44  45  55  77 152 178 183 185 186 186 183 185 186 186 186 187 187 186 186 186 185 184 186 185 187
 168 167 167 168 167 154  84  56  44  37  38  44  69  50  32  55  87  90  92  95  98  94  87  76  68  64  59  52  49  42  43  46  45  22  13  14  17  28  29  25  24  25  31  35  39  44  50  73  99 106 102 109 113 104  40  32  28  26  28  27  18  14  16  15  20  30  23  30  44  60  86 156 181 184 184 183 184 183 183 186 185 185 184 184 186 186 186 185 184 186 185 185
 167 168 167 166 166 150  86  61  48  43  45  53  68  47  33  65  89  93  97  99  99  99  92  83  73  68  62  55  50  45  41  40  45  47  36  36  34  34  31  29  31  36  36  42  45  47  52  77 104 118 124 127 128 111  42  30  31  30  33  35  19  13  15  16  21  39  31  27  37  60  92 153 179 183 183 182 183 183 182 182 183 184 184 182 186 184 183 184 184 184 184 184
 166 166 166 167 167 154  92  78  58  49  51  58  69  41  37  62  86  92  97  96 102 101  93  86  80  73  66  61  52  47  44  38  35  36  31  34  33  32  31  29  30  34  37  44  50  53  60  85 108 123 134 139 140 129  49  41  33  29  32  37  24  17  18  20  32  44  44  41  48  67  96 154 179 181 182 182 181 182 182 182 182 183 185 182 185 185 184 184 184 183 183 185
 166 167 166 167 166 164 105  98  73  55  55  57  64  39  40  63  87  89  93  96 102 100  95  92  87  80  73  67  59  52  46  40  36  36  35  34  36  35  35  35  37  38  39  48  55  64  70  88 105 125 145 152 152 139  55  39  33  33  34  37  33  26  25  32  43  50  45  52  64  83  97 149 180 181 181 180 180 181 180 183 183 183 183 182 184 184 184 183 183 184 184 183
 166 165 165 166 166 165 127  94  90  80  67  54  60  36  43  69  86  89  89  94 100 101  99  98  95  89  84  75  70  64  57  52  46  45  44  43  43  44  42  43  42  43  47  58  64  76  79  89 102 118 148 160 159 143  64  39  37  35  33  35  34  34  35  39  39  39  48  61  78  91  98 144 178 179 181 180 178 181 179 180 183 183 182 182 183 182 182 182 182 183 183 182
 166 166 165 166 166 164 149  81  87  98  84  55  50  35  42  69  84  85  84  89  93  98 100 101 100  96  90  83  75  73  71  65  61  59  55  56  52  50  51  51  50  53  61  70  79  84  85  91  99 118 148 161 159 144  82  42  42  40  40  36  37  35  35  35  37  46  60  75  90  98 102 144 175 180 179 179 178 180 180 181 183 183 182 181 182 182 184 182 182 182 180 181
 164 164 165 166 166 164 161  89  80  93  89  64  43  34  40  67  81  82  82  85  88  91  96 100 100 100  94  85  78  73  73  71  67  66  62  62  59  61  65  64  64  67  72  78  87  89  88  95  99 112 142 157 150 140  90  51  46  46  46  45  43  39  38  40  45  60  71  86  99 103 107 152 177 180 180 180 179 181 182 181 181 182 181 181 181 182 183 183 182 182 181 178
 165 165 165 165 165 164 162 116  82  80  76  69  52  37  38  62  77  79  79  81  85  87  90  94  98  98  94  85  80  74  73  70  71  70  67  68  68  69  73  74  75  77  80  84  88  89  89  95  99 108 131 145 140 131  95  61  54  50  51  51  53  52  54  59  65  72  84  98 104 105 107 159 178 180 178 180 181 181 181 181 181 181 181 179 179 181 182 182 182 182 181 179
 164 164 164 163 164 164 164 139  83  76  64  57  42  36  35  57  72  78  77  75  79  84  86  88  91  90  91  89  83  77  75  69  73  73  72  75  79  78  81  80  80  82  86  87  88  87  88  92 100 105 120 138 138 129  97  67  62  59  55  55  59  64  68  70  75  83  96 107 105 104 111 165 176 180 181 181 180 181 181 180 180 180 180 179 179 179 180 179 181 182 181 180
 162 163 163 164 164 163 164 156  95  80  70  56  41  34  32  52  70  72  73  71  71  77  80  81  83  85  85  81  83  79  78  79  76  77  78  84  87  86  84  83  83  85  87  87  87  86  87  92  97 105 118 139 141 130 100  70  66  67  64  62  64  66  69  72  74  84  95 102  99 100 114 166 176 178 179 179 181 180 181 181 181 180 181 181 180 180 181 180 178 180 181 180
 164 164 164 164 164 164 165 163 110  87  81  69  55  33  29  49  66  70  69  66  66  68  69  70  74  76  78  73  76  77  77  83  81  78  80  88  90  87  83  83  83  85  86  88  86  85  87  90  95 103 118 140 136 122  99  71  70  70  71  67  66  67  65  69  73  86  94  95  91  90 117 167 174 178 180 180 180 179 181 180 180 180 179 179 181 180 181 181 180 180 181 179
 162 163 163 163 163 163 164 163 124  90  84  75  59  37  34  51  63  67  64  56  61  62  67  64  67  68  70  72  73  75  80  82  80  78  82  89  88  87  86  88  86  88  87  87  86  87  88  93 100 106 120 134 135 125 102  74  73  72  73  70  67  68  69  68  74  83  83  83  85  87 128 171 178 180 180 180 181 181 180 181 179 179 178 178 180 179 179 178 176 180 179 179
 163 163 163 163 163 164 164 164 154  86  76  66  54  44  46  53  62  61  58  52  53  59  63  62  64  66  70  71  73  75  80  85  86  89  91  93  91  89  87  90  92  91  88  88  85  88  90  99 106 117 123 136 136 126 109  79  76  75  74  71  70  69  71  72  72  71  73  74  72  78 144 175 177 178 178 178 180 181 178 179 180 179 180 178 177 178 177 177 176 178 179 178
 162 161 162 162 162 164 163 163 161 143  90  67  84  96  56  60  59  60  59  56  57  60  61  56  63  64  67  69  72  74  82  88  91  94  94  95  93  89  89  88  87  86  84  85  85  87  93 105 115 125 131 139 138 130 120  94  76  78  77  76  74  72  75  74  71  69  66  65  67  83 163 177 180 179 178 176 179 180 180 179 177 179 180 176 176 177 178 176 176 178 177 177
 162 162 162 162 162 162 163 162 162 161 159 160 158 114  62  59  59  62  62  60  60  61  56  57  61  62  64  69  71  74  85  90  94  96  93  94  91  89  88  84  80  78  82  83  84  87  96 112 121 126 135 138 134 128 130 114  83  81  81  79  75  78  77  75  73  66  56  55  60 106 166 177 180 179 178 178 179 179 178 178 177 178 178 176 176 177 177 177 176 177 177 176
 162 162 162 162 162 163 164 163 163 162 162 164 160 120  66  57  56  60  62  59  60  59  57  59  62  65  70  73  77  82  87  91  93  91  89  91  90  87  84  78  73  74  84  91  93  91 101 114 122 130 136 130 124 125 130 130  87  83  84  83  82  80  78  79  74  65  57  56  64 144 170 176 177 179 179 178 178 180 178 176 177 178 176 176 176 177 176 176 177 176 177 178
 161 161 161 162 162 162 162 163 163 164 164 165 161 126  70  53  54  60  62  59  58  57  60  62  60  63  73  81  87  88  87  89  90  91  91  88  87  84  78  70  70  80 100 103  99  94 103 113 117 124 129 128 122 123 129 130 106  85  85  86  85  83  78  78  72  66  60  60  86 160 172 176 177 177 178 178 180 180 177 177 179 178 176 178 176 176 176 177 177 176 177 176
 161 161 162 161 161 162 161 163 163 162 163 164 160 128  69  52  57  58  62  58  53  55  60  65  64  73  81  86  87  86  88  86  90  88  86  84  84  78  71  65  68  95 106 105 101  99 101 109 111 118 128 126 123 124 127 127 114  86  86  89  89  85  77  74  72  68  64  62 107 166 172 176 177 178 177 176 179 179 177 178 176 178 176 177 176 176 176 176 175 176 177 176
 159 160 162 161 162 161 162 163 164 163 163 162 161 136  73  51  53  54  58  51  51  55  64  62  70  82  83  84  84  84  86  86  87  86  85  83  79  71  62  59  73 101 103 102  97  95  97 102 106 113 123 127 126 126 127 122 114  90  86  88  92  91  88  72  72  69  64  67 132 166 175 176 176 178 176 177 178 177 176 176 175 177 177 176 175 176 177 176 175 175 176 174
 160 160 160 161 162 162 163 163 163 162 162 163 158 141  79  52  50  52  55  50  50  56  60  59  71  76  78  81  79  82  84  85  84  83  80  78  71  66  58  56  79  97  97  92  85  86  88  92  99 107 117 120 118 118 116 116 113 100  86  88  93  93  88  76  74  67  64  79 148 171 175 175 177 176 175 176 177 177 176 176 176 176 176 176 175 176 176 176 175 175 175 174
 160 160 160 159 161 162 161 162 163 162 163 163 158 149  81  50  49  51  52  52  47  54  56  62  70  70  71  76  78  79  82  81  83  76  72  70  62  60  63  58  73  82  79  76  73  66  65  70  79  87  99 103 103 105 103 101  97  98  87  87  91  94  93  86  79  71  71  94 161 173 175 175 177 177 174 174 177 175 175 176 174 175 176 176 176 177 175 176 175 174 175 175
 159 158 158 159 158 159 161 162 163 163 163 162 162 154  91  49  50  49  47  51  48  51  58  63  66  64  68  73  74  76  79  80  76  72  69  64  64  67  71  64  59  59  51  46  45  44  51  57  63  72  79  83  84  87  88  76  76  87  85  86  89  93  92  85  77  74  72 100 161 174 175 175 175 177 175 173 175 174 174 175 175 174 176 176 176 175 175 176 174 175 176 175
 158 158 157 158 160 159 161 162 162 162 161 163 162 155 109  53  47  50  46  47  51  51  55  62  63  62  67  68  70  73  75  75  72  68  67  69  73  75  79  73  51  41  31  30  30  29  39  51  58  65  64  65  66  69  66  57  64  84  85  84  88  90  88  87  79  71  74 114 166 174 174 174 174 173 174 174 174 173 173 174 176 175 174 174 175 173 175 175 176 176 175 175
 157 158 158 159 160 159 158 161 162 161 161 161 162 158 120  54  45  51  44  46  50  48  55  57  59  60  61  62  66  70  72  70  69  69  70  74  78  79  81  77  50  41  35  35  35  35  38  44  51  53  51  50  52  55  56  56  80  92  88  87  92  92  88  81  74  71  72 127 168 174 174 174 174 172 173 172 173 172 174 173 174 174 174 172 174 174 175 174 175 174 176 176
 157 157 158 157 159 158 159 161 161 162 161 161 161 160 142  53  46  45  42  47  46  43  50  51  54  55  58  62  67  68  69  68  68  69  72  77  79  83  79  77  51  43  36  34  34  34  34  41  47  47  45  45  46  46  50  60  85  92  92  89  89  89  84  75  68  72  71 144 170 172 173 173 173 173 173 172 172 173 171 171 171 173 173 174 173 173 174 173 173 174 175 174
 156 156 157 156 158 158 160 158 158 160 157 160 160 158 149  67  44  45  46  44  44  42  44  42  46  52  54  62  65  66  66  67  64  66  70  69  71  73  70  63  44  42  36  33  35  31  30  33  38  39  39  40  40  38  44  59  85  88  91  90  87  85  80  70  71  70  74 162 170 173 172 172 171 172 172 172 171 170 169 172 172 173 173 172 171 173 173 173 173 174 173 173
 156 156 156 156 157 157 158 156 158 159 159 158 158 156 152 123  42  43  45  42  43  42  44  46  46  50  54  60  64  63  61  54  54  58  62  63  61  62  60  58  44  39  36  35  31  31  32  29  29  29  30  32  32  32  42  59  73  81  76  78  79  78  78  67  67  59  88 163 171 172 172 170 171 170 172 171 172 171 170 170 171 171 172 173 172 172 173 171 171 173 171 171
 156 155 155 156 156 157 159 156 155 159 158 157 157 156 155 142  52  41  43  44  44  43  46  49  48  52  54  60  61  53  53  53  51  49  50  51  48  50  53  50  41  39  34  36  33  32  31  29  26  28  30  32  32  32  38  51  65  70  67  66  64  71  72  63  59  50 110 166 170 172 171 170 170 170 170 170 170 170 171 170 170 170 172 172 172 171 171 170 170 171 171 170
 155 155 155 154 155 156 156 156 156 156 156 156 157 157 156 152  73  41  41  44  44  43  44  44  46  50  55  60  53  45  47  51  44  45  45  43  39  40  41  42  40  37  36  34  33  31  29  26  25  26  29  32  31  35  41  46  48  61  62  61  60  60  67  58  55  47 144 166 169 169 170 169 169 170 170 169 170 172 170 170 170 170 171 170 171 172 170 169 170 170 171 172
 155 156 155 155 155 155 155 155 156 156 155 154 156 156 155 152 115  34  39  41  43  42  39  40  44  49  55  57  49  47  48  47  39  38  38  37  39  42  41  41  41  37  36  33  30  30  30  24  24  27  29  30  31  36  38  38  49  52  53  55  57  53  60  55  49  70 158 166 168 169 167 169 169 169 167 168 169 169 170 171 170 170 170 169 170 169 169 169 169 170 169 171
 152 155 154 154 153 154 154 155 154 156 155 155 156 154 155 155 148  46  38  39  43  43  37  37  43  49  53  57  43  39  41  39  34  33  29  34  38  44  41  46  44  44  41  36  32  32  30  26  25  29  30  31  34  38  39  39  46  46  45  43  49  47  54  50  42 103 162 166 166 167 168 169 169 167 167 168 166 166 167 169 169 169 169 168 167 169 169 168 169 170 169 171
 153 152 153 153 155 152 154 155 154 154 155 156 155 153 154 153 150  66  37  37  39  42  38  37  41  48  51  51  41  37  34  28  22  18  20  26  32  36  37  44  46  49  46  45  41  38  35  33  32  35  39  39  40  42  43  43  43  37  36  37  41  46  53  44  46 144 163 166 165 165 165 166 166 165 164 166 165 166 166 168 167 166 168 166 167 169 168 168 168 169 168 170
 151 150 151 152 153 154 153 154 152 154 153 154 154 154 154 153 149  91  35  32  36  38  39  36  40  45  50  50  43  36  30  26  20  22  24  21  23  24  29  30  33  35  37  39  41  43  43  46  47  45  42  39  37  36  38  34  34  26  30  33  38  47  50  44  85 156 163 164 165 164 164 164 165 166 165 164 165 165 166 166 166 165 166 167 167 167 168 166 166 168 167 168
 149 149 151 151 152 152 152 152 150 153 153 150 151 152 150 138 117  76  44  29  32  37  36  34  37  40  47  46  40  35  30  28  27  30  34  35  29  29  29  26  24  23  26  29  30  33  35  43  40  36  34  32  31  30  28  30  33  30  30  35  42  46  43  57 128 159 163 164 164 164 164 165 164 165 162 164 163 166 165 165 166 165 166 164 164 165 167 164 165 166 165 167
 147 148 150 150 150 152 150 151 150 151 151 151 150 132  95  84  68  58  53  28  28  31  30  32  36  37  44  42  37  35  32  32  30  32  37  42  40  35  37  36  34  30  24  22  23  24  23  27  27  27  27  27  30  30  33  37  37  37  35  37  42  42  40  92 154 159 162 163 164 162 163 163 164 164 162 162 162 163 163 164 164 163 164 164 164 164 163 163 162 162 163 164
 146 148 148 149 148 149 148 150 151 150 150 137 118  80  66  60  56  50  55  37  24  27  28  28  34  36  40  40  37  36  36  34  35  34  37  43  46  44  42  42  39  40  38  34  31  31  30  30  29  31  34  37  36  38  43  44  42  41  36  37  37  36  54 118 155 160 160 161 162 162 161 161 162 163 163 161 161 162 161 161 162 162 162 163 162 162 163 163 162 161 162 162
 144 145 145 148 146 146 146 149 147 147 104  67  70  62  56  52  44  41  60  45  30  25  27  27  28  33  35  36  33  31  31  32  35  35  38  38  44  47  47  45  43  41  41  42  43  42  40  37  38  38  39  38  38  43  46  46  45  43  35  33  37  37  59  85 108 129 152 158 160 161 161 161 161 161 160 160 160 160 161 160 160 160 160 160 160 160 161 160 161 161 162 161
 142 142 144 145 145 145 144 147 146 114  61  48  64  54  47  43  35  34  61  48  39  26  22  25  29  30  31  32  30  27  29  30  33  36  37  36  38  39  44  44  43  41  38  42  43  41  41  41  40  39  38  38  41  44  44  42  44  39  31  31  31  32  47  58  76  92 115 131 150 157 159 160 160 160 159 158 159 158 160 158 159 159 158 158 159 158 160 159 160 159 159 160
 139 140 142 141 142 142 142 138 108  80  56  48  56  49  40  37  31  31  62  52  38  34  23  22  25  28  28  31  29  25  25  28  32  34  36  37  36  36  35  37  38  39  37  37  37  37  38  38  36  38  42  41  37  38  40  40  40  34  30  25  24  27  31  34  49  67  91 103 113 138 152 158 158 159 158 159 157 158 159 157 158 156 158 159 156 157 157 156 157 157 159 159
 131 132 132 133 135 137 121  94  78  72  52  46  62  57  48  36  26  25  62  56  45  38  33  27  25  26  28  29  29  25  24  28  31  35  37  38  36  32  29  27  29  31  32  30  32  35  35  36  36  38  35  33  33  35  39  42  38  30  26  23  25  26  27  31  35  49  71  91 103 106 115 144 155 158 156 156 156 156 157 158 156 157 156 156 155 154 156 155 155 156 156 156
 110 102  97  97 102  98  90  80  71  70  54  50  63  58  52  36  21  20  63  54  47  41  40  36  27  23  27  26  28  25  23  27  32  32  35  37  35  33  31  25  24  25  22  18  16  20  22  21  24  27  30  33  38  38  38  39  37  30  31  56  34  26  27  28  31  37  52  74  82  92  98 103 148 155 155 156 155 156 157 156 155 156 155 155 154 155 154 154 154 156 155 155
  98  95  96  92  93  88  78  75  78  69  51  54  53  55  50  32  17  35  63  56  48  40  38  35  33  24  21  20  23  23  23  26  29  30  32  35  37  33  32  28  23  21  16  15  14  16  16  17  22  27  32  38  42  40  38  39  36  29  43  73  88  58  29  27  29  34  47  69  73  88  94  85 114 148 153 154 154 155 155 154 155 154 155 154 155 155 154 154 155 154 153 155
  86  88  84  86  76  75  79  76  69  63  45  59  62  54  49  31  16  45  63  57  50  41  37  35  36  34  21  20  23  22  23  25  25  26  28  32  36  37  35  33  26  21  19  21  22  18  18  21  24  30  38  43  42  39  38  36  30  30  38  54  77  83  63  29  28  34  48  71  83  91  97  85  96 125 147 152 153 155 154 154 155 155 153 152 153 154 153 153 153 153 153 153
  78  80  82  82  74  72  78  71  61  57  38  61  60  48  45  30  19  52  63  58  52  43  36  37  35  37  34  25  18  22  21  22  24  26  26  31  35  38  35  30  26  23  22  25  23  21  22  25  27  35  41  40  38  36  35  31  30  44  30  40  51  62  81  69  32  30  45  66  96  94  95  87 101 110 124 137 151 154 154 153 154 154 153 153 152 153 152 151 152 153 153 153
  70  81  83  87  76  73  75  74  70  60  49  63  61  51  46  30  22  57  64  60  52  47  41  35  34  36  37  33  24  18  20  20  24  26  25  29  32  32  31  29  26  23  20  26  24  24  23  25  29  31  38  35  28  27  27  21  36  87  83  30  36  47  64  86  65  30  36  60  88 100  96  92  95 101 113 123 135 152 152 154 153 154 152 153 152 153 152 151 151 151 153 153
  57  67  76  76  77  75  74  72  69  57  43  70  64  55  46  29  22  57  62  60  55  50  45  40  35  35  35  36  33  22  16  17  21  24  25  29  29  29  29  30  30  25  21  26  25  24  25  24  26  31  33  31  27  24  24  28  53 105 128  63  26  38  49  63  86  54  27  53  85  99  97 100  99  97  94 108 122 142 152 154 153 153 151 152 150 150 152 153 152 151 151 152
  65  65  74  77  71  77  73  69  66  58  51  62  63  55  48  28  27  57  62  60  54  48  44  42  42  38  36  36  40  33  24  16  16  17  26  26  27  27  27  26  28  25  21  19  21  19  20  20  23  29  31  28  26  22  28  44  58 116 113 146  38  28  40  51  68  84  36  40  81  97 103 101  90  93 101 105 110 121 140 150 151 153 152 153 151 149 153 152 152 150 150 151
  68  60  75  78  78  74  73  70  61  50  40  62  62  49  48  34  31  53  62  60  57  51  47  43  43  41  39  38  38  36  32  22  17  16  20  22  23  22  23  24  24  23  18  17  18  17  17  18  22  25  25  23  22  28  39  51  66 119 107 152 105  32  33  42  60  82  77  34  66  92 106 107  88  74  91  97 113 117 125 122 132 149 151 149 152 152 152 152 152 152 153 152
  72  56  71  81  81  72  71  66  63  52  48  64  66  52  50  37  30  50  60  58  55  51  48  45  44  43  44  42  39  40  38  32  28  19  18  20  22  22  21  19  21  22  19  17  17  16  16  17  20  21  20  21  29  37  46  56  76 114 109 124 153  57  32  44  49  63  73  46  54  86 103 110  91  72  88  86 105 122 126 126 125 129 126 134 143 150 151 152 151 152 150 152
  75  67  56  76  80  77  71  65  64  54  54  61  64  61  57  39  30  46  58  59  56  53  47  46  44  44  44  45  42  40  38  34  32  27  25  21  19  17  18  18  17  16  15  15  16  14  15  18  16  23  29  35  38  44  51  63  79 111 121  98 167  92  43  44  46  54  70  75  45  70  98 112  98  64  80  94 104 102 126 126 123 109  73  75 116 136 149 151 150 150 150 149
  80  74  52  71  76  75  61  52  57  60  61  65  69  66  58  45  29  42  58  59  55  52  49  50  44  44  46  45  44  40  36  36  35  31  29  27  23  18  16  16  13  12  13  11  12  14  16  21  27  34  36  37  42  48  59  67  81 104 120  91 160 141  53  46  52  51  69  92  48  74  92 109 101  58  67  90  98  99 119 122 113 120 125  96  84 119 137 150 149 149 151 150
  80  78  62  60  76  73  68  60  60  58  61  65  72  67  58  48  28  38  53  56  56  52  52  51  45  45  45  46  47  43  40  35  31  31  30  27  26  25  24  21  21  20  21  22  21  23  28  32  36  36  38  39  48  52  62  71  82 103 119 109 143 166  74  50  61  51  66  92  61  73  97 103  99  58  61  85  93  98 118 115 123 117 121 125  96 112 124 140 149 150 149 150
