P2
# Generated by OpenCV 3.4.0
92 112
255
  82  81  82  83  84  86  85  88  87  87  88  90  90  89  89  90  91  92  90  92  92  92  92  96 104 102  92  93  92  91  92  93  89  91  94 100 104 101 106 114 135 152 150 121 134 135 140 159 180 165 143 122 112  95  80  70  64  67  65  62  64  63  61  63  68  83  89  93  93  93  92  92  93  92  92  91  91  91  90  90  90  90  89  91  92  90  90  90  91  89  90  90
  84  85  83  85  85  88  88  87  87  89  89  91  91  90  91  90  91  93  92  94  93  94  96 110  99  94  92  99 106  99  91  94  88  91  92  91  91  95  99 116 124 106 101  92  99 113 124 140 155 138 113 110 102  88  78  67  63  64  62  62  64  70  68  64  63  68  80  89  90  92  94  93  92  92  92  93  92  91  93  92  91  92  91  90  91  91  90  91  91  90  92  90
  83  85  85  85  87  85  86  85  89  88  90  91  92  91  89  91  93  91  93  93  94  93 104 104 102 104 101 102  95  87  87  98  84  86  86  85  83  85  95  99  82  70  71  75  86  89  93 107  91  83  89  93  86  82  75  66  64  55  49  49  46  50  48  53  58  59  68  76  89  92  93  92  92  91  93  93  92  91  91  92  91  91  90  89  91  90  92  91  90  90  90  90
  85  84  86  85  85  88  88  88  89  90  90  87  91  92  91  92  92  90  92  93  94  95 102 124 122 119 126 148 140 128 114 102  84  79  74  73  80  84  79  69  57  58  57  62  69  72  68  51  47  47  57  67  76  81  68  66  56  50  48  44  44  41  39  38  43  46  49  58  72  85  92  92  92  92  93  95  92  92  93  91  92  92  93  93  92  91  90  91  92  91  91  91
  84  85  86  87  85  89  89  89  89  90  89  90  92  89  91  91  92  94  94  95  95 101 136 139 118 115 120 142 147 131 111 101  82  66  65  64  68  70  66  53  50  49  49  56  54  51  40  33  35  41  42  48  54  60  63  58  53  49  50  49  47  42  44  45  45  47  46  47  50  61  75  89  93  93  94  93  93  93  92  92  94  92  94  93  91  92  93  92  91  91  92  90
  84  86  88  88  88  90  90  91  91  92  91  91  92  91  91  93  93  95  93  96 107 120 121 112 110 135 153 143 136 119 109  94  78  68  60  60  61  55  56  46  44  44  46  45  40  35  29  30  26  29  44  62  68  65  69  68  76  72  61  49  43  41  41  44  42  43  45  46  48  50  52  60  80  88  92  93  92  94  93  92  92  93  93  93  92  93  93  92  93  93  92  93
  86  86  88  88  89  89  89  91  90  89  90  91  92  92  91  92  93  93  95 102 108 109 121 126 159 162 156 152 142 126 105  87  74  66  63  62  55  56  49  43  41  39  37  35  31  27  24  19  21  27  34  46  50  53  65  70  77  66  56  46  42  38  38  38  39  42  45  46  47  53  55  50  54  77  92  94  94  95  92  92  94  93  92  92  93  93  94  92  92  92  92  93
  85  87  87  89  88  89  90  90  92  90  90  92  92  91  91  93  93  94 104 101 106 122 121 147 145 144 158 143 127 129 107  82  68  62  59  55  49  49  44  41  36  35  31  30  26  21  19  18  21  26  27  30  36  46  54  58  60  59  54  42  35  34  31  32  33  37  42  48  53  54  52  54  52  56  78  93  95  95  94  93  93  95  92  94  93  93  93  92  92  92  93  93
  85  87  86  88  88  89  89  90  91  91  93  91  92  91  91  94  95 102 103 110 114 133 168 178 155 150 150 173 173 119  89  85  76  63  57  51  44  44  40  36  33  32  27  27  21  17  17  19  20  21  21  26  28  29  27  32  40  37  31  27  26  28  27  27  27  30  33  37  38  46  49  52  55  53  58  81  92  94  94  92  92  94  93  94  92  92  93  93  93  94  94  92
  86  86  88  88  89  89  90  91  89  92  92  94  94  91  94  94  93 103 109 109 126 156 159 146 158 158 170 166 127 131 123  98  75  61  49  45  37  37  37  35  32  32  27  23  20  17  20  23  24  21  19  17  17  21  23  24  22  21  22  23  23  24  26  28  28  30  29  28  30  33  35  39  43  48  47  59  87  93  94  94  95  94  94  94  93  94  93  94  94  91  92  93
  87  88  90  89  90  91  90  91  92  92  92  94  93  96  98  99 100 105 114 123 148 147 150 157 149 150 156 154 162 157 123  94  67  51  43  36  34  33  34  32  29  28  27  25  23  21  21  21  20  22  21  22  23  26  25  28  29  28  27  26  25  22  21  20  21  22  25  27  28  34  36  36  36  38  43  49  70  90  93  94  95  95  95  93  95  94  92  95  93  92  94  94
  88  89  92  92  91  91  90  92  92  91  94  94  94  93  94  95 100 110 122 145 131 135 134 122 126 149 163 170 172 149 112  86  66  47  43  37  39  37  36  33  32  30  27  25  23  20  20  24  29  30  29  27  28  29  30  30  28  31  30  26  24  22  20  20  22  23  27  28  29  29  32  34  37  42  38  40  53  84  93  96  96  95  95  94  95  94  94  94  92  93  93  93
  88  90  90  89  90  90  92  92  92  91  94  94  92  94  96 100 103 111 129 132 107 109 102 112 145 156 158 151 145 135 105  78  50  38  33  35  32  35  37  35  36  34  33  29  25  23  24  28  26  28  28  28  27  26  25  25  25  25  24  24  24  24  23  24  23  22  22  20  21  24  26  28  34  41  44  41  46  72  91  95  95  97  96  95  96  93  93  94  93  94  95  94
  89  89  90  91  90  90  92  91  91  91  95  95  93  95  92  95 101 120 121 102  94  90 106 122 122 118 116 115 120 106  71  44  32  31  37  39  34  35  40  41  44  46  44  40  35  28  26  29  30  28  25  24  24  24  22  22  23  22  20  20  18  22  21  21  17  17  18  20  20  21  21  23  29  42  49  45  41  58  86  95  96  95  97  93  94  96  94  94  92  92  94  93
  90  91  91  92  93  92  92  93  94  94  96  96  95  94  94  96 103 112  89  81  86  94  99  97  90  88  95 102  91  55  38  36  35  33  42  38  43  45  51  54  61  62  61  56  48  40  34  32  35  35  32  30  27  26  27  23  23  23  23  21  18  19  20  23  21  21  23  24  24  25  23  22  25  33  50  54  50  51  80  93  95  96  95  94  95  94  93  95  93  92  94  94
  90  91  92  91  91  93  93  93  94  94  94  94  95  96  94  98  95  85  72  76  79  83  84  83  82  90  86  73  43  32  33  33  35  39  48  50  56  60  69  70  75  81  75  70  58  50  45  41  39  35  35  33  32  28  27  28  27  25  24  21  20  20  20  23  26  26  25  24  25  26  27  27  29  29  37  49  54  52  66  90  95  94  95  93  96  95  93  95  95  95  94  93
  90  91  92  92  93  91  93  95  93  95  95  95  93  93  90  90  84  73  77  81  79  78  79  76  78  80  65  36  38  34  38  40  47  53  57  65  72  81  85  82  93  91  84  78  68  59  53  49  47  44  40  38  36  34  30  30  30  28  26  23  21  22  20  22  21  24  28  28  27  25  26  26  30  33  35  43  51  51  55  80  92  94  93  93  93  94  94  96  92  93  92  91
  90  92  91  92  91  91  93  95  94  96  96  95  95  94  83  80  72  75  78  74  73  70  68  73  58  39  46  39  46  41  46  53  58  64  73  83  93  95  92  94 100  96  90  85  76  67  60  59  54  52  47  44  39  38  36  32  32  33  30  28  26  24  23  22  22  22  25  27  30  35  32  30  30  26  29  37  49  50  47  61  89  93  94  94  92  94  93  93  93  93  92  91
  91  92  92  93  94  94  95  93  96  95  96  96  96  89  78  70  73  71  60  60  65  68  55  45  36  40  44  47  47  52  59  66  72  81  91 104 106 105 100 102 103 100  97  93  85  77  68  65  61  58  54  51  49  45  44  40  37  34  33  31  30  28  25  27  26  24  25  28  31  34  40  43  32  28  29  28  33  45  46  46  64  86  91  91  91  90  90  90  90  89  89  88
  91  92  92  94  94  94  95  95  97  95  96  96  95  82  77  71  72  71  70  61  51  36  38  31  34  42  46  47  51  62  69  77  86 100 113 117 114 111 112 109 105 102 101  96  88  84  76  71  67  64  60  58  57  54  50  48  46  43  38  35  34  32  31  29  29  29  30  29  30  35  32  37  42  32  26  29  30  33  42  46  49  66  85  89  87  87  88  89  88  88  91  88
  91  92  93  93  93  96  96  97  97  96  97  97  93  83  81  71  72  62  46  37  34  36  33  32  34  43  43  50  59  71  80  89 106 121 125 120 120 121 117 111 105 104 101  99  93  87  82  77  73  70  67  62  64  63  57  54  54  47  46  42  38  37  37  37  32  33  33  33  33  35  35  34  34  40  34  27  26  27  36  44  46  47  70  99 102 104 106 106 109 111 111 113
  90  92  93  93  93  96  96  95  97  98  96  96  88  75  78  61  54  43  33  32  34  33  30  34  39  45  47  61  74  84  93 106 124 128 126 122 122 122 120 116 109 104 101 100  95  89  87  81  77  73  71  69  69  68  63  61  58  55  52  51  48  44  42  42  42  38  37  37  36  35  34  35  34  34  36  34  29  25  30  35  41  44  48  93 116 118 118 116 116 118 118 116
  91  92  93  93  92  92  93  94  95  96  95  96  93  74  67  53  43  39  32  31  31  33  31  36  45  48  59  72  86  97 104 119 127 130 128 126 126 128 122 118 112 110 105 103  98  92  90  87  84  79  78  74  73  73  70  68  67  64  59  56  54  50  45  43  43  47  45  40  42  40  38  36  32  32  31  30  31  29  27  31  35  40  45  51 114 121 120 119 120 121 120 119
  90  90  91  92  90  93  91  91  91  91  90  90  86  74  61  49  40  32  32  34  33  32  33  41  49  56  72  82  98 110 121 129 131 132 131 129 131 130 123 119 117 112 107 103  98  95  92  92  90  85  82  79  78  78  74  73  73  70  70  67  65  62  56  49  46  47  51  51  47  43  42  40  36  31  28  29  30  29  28  28  31  37  43  46  77 117 120 120 120 120 120 119
  85  83  83  85  86  87  87  87  88  88  88  88  87  77  60  47  37  30  32  35  36  34  38  44  57  68  83  96 110 121 130 133 133 131 131 133 135 132 128 124 119 113 110 106 102 100  98  96  92  88  85  81  78  78  79  77  77  77  76  76  75  73  70  64  61  54  51  49  51  51  50  46  39  32  26  25  25  27  25  24  29  33  38  40  44 107 121 120 121 121 122 120
  95  98 102 104 104 105 108 109 110 112 115 112 110  82  55  42  36  33  37  37  36  36  43  54  70  84  97 108 117 129 134 135 134 132 133 136 136 132 129 125 124 119 111 109 107 104 102  99  98  92  89  84  81  82  83  83  83  84  85  84  84  81  80  77  72  69  68  65  61  60  57  50  45  37  30  23  22  25  25  25  25  32  34  36  45  83 117 121 121 122 121 119
 115 113 116 116 116 117 119 119 122 120 120 118 114  84  53  42  33  37  38  35  36  41  50  69  86  98 105 118 125 134 136 135 136 140 145 144 140 135 133 132 127 121 116 113 112 108 106 104 100  97  94  91  90  89  88  91  91  92  91  93  92  90  88  89  91  86  79  78  79  78  72  61  53  47  36  28  23  21  24  26  26  26  34  38  40  60 114 119 121 122 122 121
 116 116 118 116 118 118 123 120 120 121 122 120 120  75  48  44  40  35  34  37  41  46  65  89  98 105 115 122 125 136 137 139 146 150 153 151 146 142 140 136 130 124 118 115 114 111 111 111 107 105 101 100  96  96  98 100 101 103 104 103 105 104 102 100 103 100  96  92  90  87  87  82  76  68  51  33  26  20  19  25  25  25  29  33  39  56 101 119 123 121 121 122
 116 118 118 116 119 118 120 120 122 122 121 120 117  73  49  40  36  32  34  37  43  56  86 100 107 113 121 126 130 136 142 150 158 160 159 158 149 147 145 138 131 125 118 116 114 114 114 112 108 109 109 108 105 104 105 107 108 112 114 113 115 117 116 115 125 110 104 101 100  95  96  99  95  89  76  49  29  22  18  20  24  26  28  31  36  44  57  96 114 116 120 122
 119 118 121 118 119 121 121 122 122 121 121 121 120  83  47  36  34  35  35  39  48  67  98 107 114 120 124 130 135 143 149 157 160 159 158 155 148 142 134 131 129 124 119 118 118 117 117 115 111 112 114 112 110 111 110 112 113 116 118 120 122 124 125 126 139 130 119 114 111 109 107 108 109 105  94  69  36  27  23  21  21  25  26  28  35  43  46  49  78 113 120 122
 117 119 121 120 121 121 122 122 121 121 122 122 120  71  47  35  34  37  35  43  53  91 109 118 121 126 131 137 142 150 154 156 152 150 149 146 140 136 132 128 123 122 118 115 120 119 118 118 116 116 120 116 112 111 113 113 117 116 118 118 122 124 128 132 141 138 131 125 124 121 118 116 117 115 108  92  51  32  26  23  23  23  25  27  32  44  55  59  63 117 122 122
 120 118 120 121 121 122 122 121 123 122 123 123 115  62  52  42  37  33  40  48  71 102 121 125 128 132 136 143 148 151 153 149 144 142 137 132 130 127 125 124 120 118 116 116 118 119 120 119 118 121 121 116 113 114 111 111 113 114 117 118 119 122 126 131 136 139 134 131 128 125 124 121 120 121 116 101  69  39  29  26  24  20  22  24  29  39  48  85 107 122 123 124
 120 122 122 120 121 122 122 123 123 123 123 124 114  62  56  44  40  37  44  61  93 117 125 127 134 139 145 148 147 145 141 140 135 132 125 124 120 118 116 116 114 113 113 114 113 115 119 121 120 115 117 116 114 111 110 109 108 110 111 115 116 119 124 128 129 132 132 134 130 126 126 122 121 122 120 110  86  49  32  27  27  24  24  23  27  40  63  86 117 123 123 123
 121 121 121 121 122 121 122 123 123 123 123 124 112  66  48  38  36  37  51  76 110 125 131 134 138 147 147 149 148 139 134 130 123 115 116 114 113 113 109 108 109 108 108 106 109 112 117 114 111 111 111 111 108 104 102 102 102 104 106 108 110 113 116 122 124 128 131 133 132 127 126 125 122 120 118 114  96  62  40  31  29  29  28  24  28  52 106 113 119 123 123 124
 121 122 121 120 122 122 124 124 124 124 126 125 107  64  43  32  37  43  60  97 125 130 135 141 148 150 146 144 139 131 125 120 114 108 104 105 104 102 101 102 102 102 103 102 106 109 107 108 106 104 101 103 100 101  98  99 100 103 105 103 105 107 112 115 120 123 127 130 131 129 127 125 123 120 119 118 103  74  48  34  29  29  29  26  28  44 108 122 122 125 123 125
 122 119 123 122 124 124 127 124 125 125 125 124 105  62  41  36  47  50  72 122 135 137 144 151 157 155 142 134 128 120 113 103  92  86  84  85  87  87  89  93  94  95  99  99 104 104 101 102  98  98  96  95  92  92  92  91  96  98  98 100  99 101 107 112 117 118 124 128 128 127 127 125 123 122 119 117 109  81  53  41  31  30  28  29  27  34  89 119 122 123 124 125
 121 123 123 123 126 126 125 126 126 127 126 126 108  63  42  40  49  49  91 136 144 148 152 161 162 148 130 117 108  95  81  70  61  57  62  62  65  70  77  79  86  91  91  96 100 100  98  98  95  94  92  90  81  83  82  80  83  81  83  87  89  91  98 103 105 109 115 124 128 129 128 126 122 121 121 118 112  87  57  46  34  30  30  37  32  31  59 109 120 123 125 127
 123 123 125 124 125 126 127 127 127 128 130 124  91  50  33  35  48  51 108 149 152 159 165 162 137 119 100  87  73  61  54  48  45  41  40  47  51  55  65  71  79  86  88  91  94  94  94  95  93  89  88  83  73  70  67  67  68  62  61  61  61  66  77  81  87  95 104 112 121 125 127 125 124 120 121 118 113  91  61  47  38  32  30  35  53  32  37  88 111 119 123 128
 123 125 126 127 127 126 128 128 128 127 125 122  85  48  32  37  48  58 128 159 161 160 142 116  98  81  65  55  47  46  43  43  40  37  40  43  44  49  55  63  71  81  85  87  90  89  89  91  86  86  82  76  67  61  56  52  54  54  47  41  38  39  42  47  56  64  77  88 102 112 120 124 125 123 122 119 116  96  63  48  40  35  31  31  59  50  46  85  96 109 117 124
 127 128 128 129 128 128 128 130 130 129 127 121  80  47  33  40  50  62 147 164 156 128 106  87  67  57  48  46  42  40  41  41  45  39  42  42  43  48  50  59  66  77  81  84  87  86  87  87  84  83  76  69  60  53  50  46  47  45  40  35  33  32  30  33  36  42  48  60  68  80  93 108 118 123 121 118 115 102  64  47  42  37  32  28  43  89 103 104 110 120 124 127
 129 128 130 132 131 130 133 134 132 133 128 120  86  46  35  41  49  75 160 152 117  99  82  72  63  60  56  56  54  52  48  50  48  47  49  48  49  50  51  58  65  78  81  84  86  85  84  83  81  81  74  66  58  51  46  41  44  40  35  34  32  30  30  31  33  33  37  42  49  59  68  82 100 115 119 119 116 105  72  47  44  39  32  28  30  92 120 126 126 127 128 130
 131 130 130 132 135 134 134 132 134 135 133 125  83  50  37  41  50  84 153 106  99  87  78  76  75  75  76  77  79  78  75  73  67  68  70  63  62  56  54  62  68  79  81  83  86  88  87  83  79  79  73  66  59  54  49  48  45  42  36  38  36  35  39  37  38  37  36  38  43  49  58  67  72  89 108 118 116 110  76  48  44  38  35  29  32  65 125 131 130 131 132 131
 134 136 134 136 136 135 136 138 137 137 138 130  99  53  41  42  50  96 123 106  94  91  92  92  92  92  90  86  82  78  75  74  72  73  76  77  76  75  75  75  77  82  84  87  88  90  89  85  82  79  77  69  64  60  56  56  56  53  52  52  53  55  59  60  59  59  57  53  51  53  53  59  67  73  80  98 116 111  78  44  47  34  37  32  36  48 125 131 131 134 134 133
 136 136 136 138 138 140 140 139 138 140 140 137 101  52  40  41  49  99 121 108 102 103 103 104  99  97  93  89  85  80  76  72  70  70  71  73  75  79  83  84  85  85  89  95  97  95  91  88  85  84  79  70  67  67  67  65  64  63  59  60  61  63  63  65  65  66  68  68  67  65  61  61  62  69  71  74 100 112  80  44  44  33  35  33  42  52 124 133 133 135 136 135
 138 140 140 141 141 142 140 142 143 142 143 141  93  54  40  41  48 112 123 108 109 111 109 108 103  97  92  89  85  81  76  72  69  68  66  69  70  72  78  81  86  90  97 104 107 105  99  97  94  90  82  75  71  68  65  63  59  58  57  57  58  62  62  66  67  69  71  74  78  77  79  77  71  73  73  73  83 108  84  43  43  35  35  37  58  72 127 136 135 134 136 135
 142 143 143 143 144 143 143 144 144 144 146 143  84  51  43  42  51 138 124 113 113 114 111 106 102  96  89  82  73  68  58  54  54  58  64  66  66  67  71  74  81  90 101 110 114 116 114 108 103  97  86  77  69  67  61  59  55  54  54  54  54  58  61  64  65  66  72  79  83  85  85  87  84  83  77  75  80 104  84  44  41  37  34  40  71  87 129 135 137 137 138 137
 144 144 145 145 145 144 144 146 147 146 146 143  75  49  42  42  57 153 124 114 113 115 112 104  94  87  80  71  63  53  49  45  46  45  45  52  58  61  67  72  77  87 103 114 127 134 134 125 115 101  87  75  67  60  57  53  51  49  45  43  43  45  48  53  57  63  74  81  84  86  89  91  90  90  85  82  80  98  84  40  41  37  35  40  63 110 133 138 139 137 139 138
 145 145 147 146 148 148 149 150 149 149 147 144  81  58  44  45  73 153 122 114 114 113 101  88  88  74  55  39  28  27  27  27  34  41  46  46  51  56  62  69  73  85 103 126 156 163 155 148 138 115  88  71  63  58  55  50  44  41  38  39  41  40  37  40  43  52  59  66  78  87  91  94  93  92  91  94  93  98  88  41  41  34  34  42  50 111 138 140 140 138 139 139
 148 149 149 149 151 151 151 151 151 150 150 144  86  61  43  45  85 154 121 113 109 101  87  82  58  53  70  39  28  22  21  26  31  48  45  44  49  54  56  65  72  85 118 163 184 180 169 162 154 143 103  71  63  59  52  45  44  43  41  37  40  32  26  24  23  27  38  53  69  72  78  92  94  92  92  96 103 108  91  41  40  33  34  44  55 105 137 141 143 141 140 141
 151 151 151 153 152 152 153 153 153 152 152 140  94  59  45  47  93 146 121 109 103  85  82  54  62  89  82  39  31  24  20  25  30  46  53  44  42  44  61  67  78  98 148 182 200 190 175 167 160 153 129  75  61  57  51  50  43  39  38  47  48  31  25  19  18  25  30  45  47  64  74  77  90  93  94  98 104 111  95  39  38  33  32  42  67 119 141 141 143 144 142 142
 154 152 152 154 155 154 157 156 155 154 153 140  98  63  49  49 104 142 118 105  95  83  67  51  74  97  95  47  42  31  25  30  34  51  49  43  38  42  62  79  90 124 157 183 202 194 181 172 160 151 133  96  64  57  53  43  38  40  44  51  48  30  25  20  20  28  33  62  60  44  62  69  77  89  94  98 106 114 101  40  38  34  35  40  66 126 142 145 145 145 145 144
 156 155 155 157 158 157 158 158 156 157 157 148 108  94  56  50 118 143 117 104  92  80  72  63  71  94 105  90  46  36  33  33  42  51  49  49  55  68  76  85 109 144 163 189 209 202 188 176 164 154 134 115  78  65  56  42  39  39  41  49  50  32  29  24  25  35  39  74  78  51  45  64  70  81  90  97 106 118 109  43  38  35  36  39  54 128 142 146 146 146 146 145
 156 158 157 157 160 161 160 160 157 158 159 160 169 141  68  54 130 144 121 103  93  90  85  86  77  77  86  88  75  56  53  58  60  59  62  66  71  79  86  98 127 155 173 192 209 209 193 178 165 154 138 123 104  74  62  55  48  46  45  45  47  43  30  29  31  42  71  86  76  50  47  51  66  74  84  93 104 118 112  45  41  37  40  38  61 128 145 147 148 148 147 148
 159 160 160 161 161 163 161 161 159 157 161 175 204 172  64  62 143 148 127 108 100  97 100  95  91  82  81  81  79  71  70  66  65  69  73  76  79  87  98 111 139 162 179 199 218 212 198 182 166 153 140 126 114  92  68  62  56  54  51  48  50  51  47  43  51  64  68  67  60  59  58  58  64  72  81  94 108 120 119  46  40  37  40  39  56 117 147 149 151 150 150 150
 161 162 162 162 161 161 163 163 163 162 160 149 154 123  61  72 159 158 143 124 116 114 113 107 102  96  91  85  81  74  73  75  76  77  81  84  88  98 108 126 148 169 187 208 218 210 199 182 170 154 140 126 117 108  83  72  66  64  61  57  55  55  55  56  58  63  63  65  72  78  78  74  72  74  83  94 109 122 122  50  41  38  40  41  58 104 146 150 152 150 151 149
 163 164 163 165 164 166 165 165 166 166 166 146 116  76  61  74 169 172 166 155 142 136 126 115 108 103  95  90  87  87  84  84  85  84  86  92 102 107 115 134 158 179 195 203 210 203 191 181 167 155 142 128 119 114 101  83  74  71  69  66  66  65  62  64  66  72  74  76  86  93  99  95  87  85  89  97 112 123 124  57  40  37  40  44  64  94 134 151 150 152 152 150
 165 165 165 167 165 167 166 166 168 167 166 157  93  55  58  74 176 183 188 180 169 156 140 130 119 113 105 101  98  93  90  88  88  89  94 103 109 110 121 144 172 189 200 206 213 200 188 178 166 157 146 135 123 117 109  96  85  77  72  70  74  76  77  79  85  86  87  94 103 105 108 109 106  98 101 107 117 123 124  69  40  42  45  55  89  95 112 146 154 153 152 152
 166 168 167 166 166 167 167 168 168 168 168 162  77  48  62  84 183 192 202 201 190 178 165 151 136 126 116 109 103  95  91  91  96  99 106 108 110 115 127 157 185 195 203 215 216 199 188 181 166 156 145 137 128 117 113 104  98  88  79  75  77  80  86  91  99 101 104 109 115 119 120 118 117 112 114 116 122 125 125  77  40  46  56  74  78  78  94 142 153 154 155 154
 168 169 168 169 168 170 169 169 171 170 171 170  88  54  63  86 181 194 206 207 202 190 178 167 153 138 122 109 100  98  99  98 104 106 108 109 112 119 134 176 195 198 210 219 207 187 181 174 165 158 146 138 131 118 116 112 107 102  96  88  81  83  88  94 104 113 117 119 122 123 124 127 124 124 124 123 127 126 125  82  42  47  73  79  67  73  90 142 155 157 154 155
 169 169 169 171 170 172 172 171 172 171 174 166  93  63  68  84 182 194 203 202 200 189 181 166 152 139 125 116 108 104 106 105 106 106 110 112 116 125 148 188 194 201 198 187 174 159 152 152 152 152 142 139 132 124 116 117 114 109 109 104  97  92  92  93 100 107 117 124 130 132 131 131 131 132 132 131 129 128 127  90  45  49  74  85  66  72  86 132 155 158 157 155
 171 170 172 173 173 173 172 173 173 174 174 121  97  83  69  81 183 189 195 193 189 182 170 158 147 136 126 119 114 110 110 110 110 109 112 114 121 129 167 183 183 182 166 154 137 125 121 126 125 128 126 126 125 126 117 118 119 115 115 114 109 103 101 102 102 107 113 118 124 132 134 135 134 134 135 133 131 130 128  95  50  50  73  86  66  63  77 128 155 158 159 159
 174 173 174 173 172 175 173 173 174 174 153 102 101 106  80  75 174 179 180 180 177 169 163 151 141 135 126 122 118 113 113 113 112 113 112 118 124 141 168 163 159 152 137 128 118 110 108 108 107 104 110 110 114 121 117 116 119 121 119 116 111 109 108 107 106 106 112 115 119 124 130 131 132 132 133 133 131 129 127  96  52  52  80  94  72  62  74 130 157 162 161 161
 175 175 175 174 175 175 174 175 175 175 141  93 116 117  99  72 164 170 173 170 166 162 156 145 139 133 130 127 125 121 118 116 115 115 116 120 124 156 156 141 133 126 120 113 106  99 101 102  98  99  99 101 104 112 116 116 119 121 120 120 116 114 113 111 108 105 107 112 117 122 125 125 128 131 131 131 132 128 126  89  57  65  88 103  87  69  79 132 159 161 161 161
 176 176 177 178 176 176 176 177 178 176 143 107 119 115 110  75 155 162 164 161 154 148 145 143 138 137 136 134 133 130 124 122 119 117 119 120 133 162 138 122 116 113 112 106  99  92  93  95  97  98  93  92  97 107 112 117 113 117 118 119 121 121 118 116 114 113 110 110 116 119 120 124 123 125 125 127 130 127 124  83  66  80  99 105 102  72  84 141 161 161 162 161
 178 178 180 177 178 179 178 178 179 176 155 126 108 104 102  83 145 152 151 148 143 142 139 138 141 143 140 138 136 134 130 124 120 119 118 118 143 150 123 111 105 105 110 105  95  91  90  92  93  93  89  90  91 100 107 113 109 110 114 119 119 119 120 121 118 119 116 113 114 115 118 119 123 122 121 125 128 126 123  74  68  84  96 103 112  78  93 152 163 164 164 163
 180 180 180 180 179 181 180 180 180 179 171 135  97  88  90  85 134 145 138 137 136 137 139 142 145 144 143 139 138 136 130 126 124 120 116 113 141 129 112 100  71  49  66 102  95  91  90  92  84  42  41  69  88  94 103 108 104 106 108 110 118 118 116 120 119 119 119 116 116 114 112 116 118 119 120 124 126 127 114  68  65  79  88  96 109  87 110 158 165 164 164 163
 181 181 183 182 181 181 184 181 182 181 176 141  96  80  80  85 127 145 137 133 132 136 139 143 142 142 144 145 142 136 131 128 124 118 113 110 132 116 102  72  35  30  39  93  98  92  91  93  65  39  25  26  69  89  98 105 104  98 102 109 115 118 118 118 118 120 119 119 118 116 111 110 112 115 119 122 126 124 108  69  67  76  82  86 103 103 135 163 167 166 166 166
 183 184 182 182 182 182 184 183 182 181 179 161 121  82  77  87 132 144 137 133 130 135 140 140 140 144 144 141 136 132 131 127 123 116 110 109 116 109  93  62  43  33  65  92  97  90  92  88  73  58  34  28  45  84  94 104 100  94  98 105 111 116 119 120 119 120 118 117 117 117 111 112 110 112 119 121 122 124  98 104  78  72  73  75  92 113 150 166 166 167 168 167
 182 183 184 183 183 184 184 184 183 184 182 169 176 116  77  87 130 144 135 131 129 135 137 139 143 143 148 146 144 138 131 123 121 114 111 112 111 104  88  70  61  66  89  91  91  89  87  81  76  70  57  39  47  77  88  96  95  95  96 100 107 110 115 118 119 119 120 120 119 119 114 112 112 113 118 120 122 122 106 117  87  68  62  65  82 118 159 168 166 168 169 167
 185 184 184 183 185 184 185 185 186 185 183 172 184 197 140 130 126 144 134 129 129 136 137 138 142 144 142 144 144 139 135 125 120 114 116 119 120 109  89  78  76  82  87  85  81  83  78  73  71  70  68  60  57  70  82  92  97  96  98  99 105 109 110 113 117 118 120 119 120 119 117 112 113 113 115 118 121 120 114 117  92  64  58  64  84 124 163 168 168 169 168 168
 184 184 185 185 185 187 185 185 186 187 185 179 152 164 197 188 143 144 137 131 130 132 137 140 142 143 142 143 140 135 129 125 120 115 122 131 131 126 101  77  81  89  89  85  80  75  75  75  73  73  73  71  66  73  90  97 103 103 100  97 104 107 110 110 115 117 118 118 118 119 117 112 116 113 113 114 119 119 119 106  76  60  62  74  98 131 166 168 169 171 168 168
 187 187 187 186 185 187 186 186 187 188 186 183 186 172 198 175 164 152 138 132 133 123 128 138 141 137 139 140 134 129 127 126 127 133 140 144 142 138 122  92  89  93  91  88  83  74  76  80  79  79  78  78  75  90 106 110 112 110 106 101 101 106 109 112 114 116 117 120 120 119 117 113 113 115 116 118 121 120 110  87  74  65  84 102 114 141 167 169 170 170 169 170
 188 187 188 186 186 186 186 188 187 188 188 186 198 211 191 145 153 150 140 135 133 128 126 132 142 138 140 140 136 131 129 131 140 149 152 152 149 147 135 103  98  98  96  89  84  78  78  81  81  82  85  88  92 107 111 113 113 113 113 109 104 104 108 112 115 117 119 119 120 121 116 115 114 118 117 118 121 116  93  92 115 118 106 112 114 152 169 172 171 171 170 170
 188 187 187 189 187 188 188 189 189 188 188 187 186 187 154 130 130 141 141 136 133 131 130 135 140 142 145 142 137 137 137 142 154 158 159 157 153 150 143 121 105 106  97  93  87  78  81  83  82  85  88  98 100 110 112 114 115 114 116 113 106 105 108 111 112 115 117 118 120 120 120 115 112 118 118 118 122 110  91 102 120 120 106 106 128 164 169 170 172 172 171 171
 189 188 188 186 189 188 190 189 188 189 189 188 181 162 140 120 115 132 140 136 136 137 137 141 143 145 144 141 137 140 148 154 160 163 161 158 156 155 149 131 114 107  98  95  88  78  79  81  80  84  87 101 106 110 113 114 116 114 116 119 117 109 109 111 112 112 113 115 118 119 120 117 115 119 119 120 121 112 121 115 117 124 117 118 147 167 171 173 174 171 170 171
 189 188 188 189 189 188 189 189 188 189 190 189 187 165 133 123 118 131 141 137 136 138 140 141 142 145 144 143 144 148 154 162 166 162 162 161 155 157 156 142 127 109 100  94  85  82  82  85  84  89  94 100 104 106 110 111 112 112 111 102 114 115 112 112 111 114 113 115 117 119 121 116 117 118 120 120 118 103 103 104 108 118 125 135 164 171 174 174 172 172 171 173
 188 188 188 189 189 189 190 189 190 190 190 189 189 186 162 126 120 127 142 137 136 141 141 142 142 144 146 147 150 153 159 161 163 159 162 159 155 156 158 145 133 115 104  95  86  84  83  88  89  92  97 100 105 105 106 107 110 111 108 103 114 121 116 111 112 114 115 115 116 118 119 121 118 120 121 120 116  98  96 101 104 112 126 158 171 172 174 175 174 173 173 172
 189 188 189 189 190 189 190 190 190 191 191 190 191 189 189 179 151 135 142 138 140 141 142 144 142 145 147 151 152 156 159 160 155 155 160 156 157 157 158 150 141 126 111  96  88  87  87  97 102 102 100 103 106 103 104 102 110 110 110 110 114 120 119 115 112 115 115 115 117 119 120 121 120 119 120 121 115 107 107 109 110 113 147 170 173 173 174 175 173 173 172 173
 189 189 190 189 189 190 190 190 190 189 190 190 190 190 192 192 189 183 149 139 139 139 139 144 142 141 145 150 152 155 157 154 152 155 156 156 159 162 158 145 131 118 108  99  95  98  98 102 107 108 106 107 107 108 105 104 106 108 109 112 112 118 121 116 112 114 114 115 119 120 120 120 122 120 119 121 113 107 108 109 113 141 168 173 174 174 174 173 173 174 174 174
 188 188 188 188 188 190 191 191 192 192 191 191 193 191 192 192 192 187 154 138 139 142 142 143 140 141 145 149 151 151 150 151 149 148 149 155 158 148 133 115 100  91  90  96 101 101 102  98  93  92  98 105 106 110 110 110 108 110 109 109 111 114 119 118 114 112 115 114 118 119 120 121 122 119 118 122 106  98 102 112 149 170 172 175 174 174 175 175 174 174 174 174
 189 189 189 190 188 190 190 192 192 191 191 191 192 192 193 195 193 189 159 137 138 142 146 143 141 140 144 146 148 144 145 146 141 140 146 144 126 108  91  81  76  76  74  78  84  86  82  77  71  70  77  86  98 109 109 109 106 108 108 107 104 110 113 116 116 113 114 115 116 119 117 121 122 121 121 123 147 141 152 168 174 174 174 175 176 176 176 174 175 175 174 174
 190 190 190 189 189 191 190 191 189 190 192 192 194 192 192 194 193 191 165 139 138 141 142 143 140 137 140 142 144 140 136 131 122 122 120 107  91  81  73  69  71  71  73  71  72  72  69  65  62  63  64  69  78  93 104 106 106 107 107 108 106 108 111 114 114 113 113 113 114 115 114 120 121 120 121 127 168 175 174 175 176 176 176 175 176 175 177 175 175 176 174 176
 190 190 191 189 191 191 190 191 190 191 192 192 194 193 192 194 195 192 171 140 138 137 139 140 137 136 138 143 139 130 121 113 105 102  94  83  76  73  67  66  68  70  73  69  69  68  63  64  59  61  60  60  65  73  85  94 103 104 101 103 105 105 110 114 113 113 112 111 113 116 116 121 119 118 121 137 173 176 177 177 178 175 177 176 176 177 176 174 175 176 177 177
 190 190 190 190 190 190 190 191 192 194 193 193 194 194 196 194 195 193 177 140 136 138 139 138 137 137 136 135 134 119 108  97  87  82  74  69  67  61  55  49  46  51  61  64  63  62  60  62  57  60  59  57  60  62  67  74  86  92  92  94  98 101 107 110 111 110 110 111 113 115 114 118 118 117 124 143 174 177 178 178 178 179 178 177 178 178 177 178 176 177 177 177
 190 190 191 192 191 191 192 191 192 193 194 192 194 193 194 194 195 193 183 141 138 137 136 133 133 134 130 129 123 110  97  83  68  55  52  52  54  53  47  43  39  34  36  42  39  40  43  41  36  34  38  45  52  54  59  63  69  75  78  84  90  95 102 109 111 109 110 110 112 116 114 117 117 120 122 152 175 178 178 177 178 180 177 177 176 176 177 176 176 177 177 175
 191 189 191 191 191 191 191 191 192 192 192 193 194 194 193 195 195 192 187 144 134 135 136 133 134 133 128 123 115 104  92  82  67  61  63  68  74  72  69  64  61  56  49  42  35  33  34  34  33  32  32  35  36  42  51  51  51  57  62  70  78  87  95 104 107 107 109 109 111 114 116 115 117 121 124 160 176 180 178 178 180 180 179 179 179 177 177 179 179 177 176 176
 190 189 190 190 191 191 192 192 191 192 191 195 194 194 194 195 194 194 189 156 135 132 130 128 130 129 123 119 112 103  97  93  91  83  79  82  88  87  82  72  71  70  65  61  55  52  51  50  48  52  54  54  56  53  48  47  42  45  44  57  70  77  89  98 105 108 108 107 107 113 118 117 118 120 127 171 179 179 179 180 179 178 178 180 178 179 178 177 178 176 176 175
 191 190 191 190 191 190 192 193 193 193 193 194 194 196 194 194 194 194 192 171 131 129 128 125 128 125 122 118 112 105 104 106 101  93  86  87  92  94  91  80  72  71  69  68  66  65  65  64  66  68  68  75  79  76  69  66  64  62  60  65  74  79  84  93 102 108 107 108 107 111 117 119 119 121 136 174 179 180 180 179 179 181 180 178 178 178 178 177 177 176 177 176
 190 190 190 190 191 192 191 192 191 191 192 193 193 195 194 194 194 193 192 188 138 130 127 126 125 124 121 115 111 108 108 109 104  98  91  90  90  88  90  84  72  72  70  68  70  69  68  67  69  69  70  74  81  82  79  74  76  75  80  84  83  83  85  91 100 105 104 108 109 112 114 116 119 122 150 177 181 179 180 179 178 180 179 178 179 178 176 177 177 177 177 176
 189 189 190 190 190 191 191 191 191 192 193 192 193 195 195 194 195 193 191 190 158 126 128 124 123 121 118 117 115 112 109 107 107 101  97  94  92  88  85  80  75  74  72  71  69  69  72  70  71  72  72  75  74  75  75  76  77  84  91  94  93  89  89  95 100 105 106 106 110 113 114 116 118 121 161 178 181 179 180 180 181 179 178 178 178 179 177 178 177 177 176 175
 190 189 190 191 191 191 191 192 191 192 192 193 193 193 195 192 192 193 191 191 181 130 125 121 123 117 115 115 114 111 108 105 103 100  98  94  92  88  86  79  75  73  71  70  68  67  68  66  66  68  70  70  70  70  75  76  81  88  92  96  97  95  94  94  99 104 104 106 110 113 114 112 116 127 171 180 181 181 179 180 177 179 178 177 176 176 177 176 176 177 175 176
 189 190 190 190 191 190 192 191 191 191 192 192 194 193 193 193 193 192 191 191 188 156 123 122 121 117 116 111 110 109 106 104 103 101 101  94  92  91  89  84  81  79  73  71  68  67  67  66  66  67  68  70  71  74  76  80  85  88  90  94  96  97  94  96 100 104 105 106 107 111 112 113 118 160 176 178 179 180 178 178 179 180 178 179 177 177 178 176 175 178 175 176
 187 190 189 190 191 190 191 191 191 192 193 192 193 192 193 194 192 191 191 192 190 187 131 121 116 117 116 110  98 104 107 102  99  97  95  92  93  90  91  88  84  81  81  77  76  74  70  73  72  71  72  75  76  78  80  81  86  86  91  92  93  96  96  96  99 104 104 108 109 110 112 114 142 174 178 179 179 179 180 180 178 179 179 177 178 178 176 175 176 175 176 176
 187 188 189 190 190 190 191 190 190 193 192 193 192 192 191 192 191 189 190 190 190 189 168 121 116 114 114 112  99 103 107 103  97  99  96  93  90  88  88  86  84  79  75  71  72  68  64  69  75  78  77  77  76  79  80  82  84  84  87  91  92  94  94  99 100 103 103 106 107 107 109 115 169 178 179 180 179 179 180 181 178 177 177 177 177 177 178 175 177 175 176 176
 189 189 189 190 190 188 190 190 189 191 191 192 193 194 192 192 191 190 189 190 190 191 186 143 119 115 114 113 108 106 107 103 102 101  99  95  93  88  86  82  78  73  69  68  66  62  61  64  68  70  74  76  74  80  80  80  83  86  85  89  92  92  92  96 100 103 104 104 105 108 108 157 177 179 178 180 179 179 178 179 179 176 178 178 178 177 177 178 177 176 175 175
 188 188 188 189 190 190 190 190 190 191 191 191 193 194 191 192 190 190 188 190 188 190 188 179 127 116 115 113 109 107 107 107 104 104 103 102  99  94  88  82  77  74  68  64  64  61  60  61  64  65  68  73  77  82  81  80  82  86  85  88  92  94  95  99 102 104 106 104 104 107 142 176 176 179 181 180 179 179 176 177 179 178 178 178 178 176 176 177 176 176 174 174
 187 188 187 188 189 190 190 190 190 190 191 190 190 192 192 191 190 190 189 190 190 190 188 188 168 115 112 112 111 111 111 108 107 106 106 106 101  97  95  87  81  77  72  68  67  64  63  66  68  69  70  75  79  85  82  83  84  86  87  90  93  94  97 100 102 105 104 102 103 118 165 178 181 179 179 180 179 179 180 178 178 177 178 177 177 177 175 177 176 175 175 175
 187 187 188 187 189 189 189 188 190 189 190 191 192 191 191 190 190 190 190 189 190 190 188 189 185 138 113 110 112 114 112 110 109 110 108 107 106 104  97  95  88  79  73  70  72  70  64  66  69  70  72  76  81  88  89  90  92  91  89  92  94  94 101 100 100 102 101  98 108 132 170 179 178 179 178 178 178 179 179 178 177 177 177 177 177 177 176 176 177 176 175 176
 186 186 187 188 188 189 189 188 191 190 189 190 192 191 190 190 188 189 190 188 189 190 189 190 185 150 116 109 108 113 112 110 110 111 110 110 109 105  99  95  88  81  77  73  74  72  69  71  72  74  76  85  90  91  96  96  96  97  94  96  97  97 100 100 100  98  95 101 115 135 171 178 179 180 178 177 178 178 178 177 178 179 178 177 177 176 177 176 175 176 175 176
 186 186 187 188 188 188 189 189 188 189 189 189 189 190 190 188 189 187 187 188 189 188 189 189 181 145 124 110 105 107 110 110 113 113 113 112 109 104 102  95  86  83  83  81  80  75  74  75  75  78  83  90  94  97  98 100 101 100  99 100  99  95  98  97  94  93  98 105 111 138 175 178 178 178 177 179 178 177 177 178 177 177 176 178 177 177 177 176 176 176 175 175
 185 187 186 186 187 187 188 188 188 189 190 189 190 190 190 189 187 186 186 187 188 187 187 178 100 109 122 113 104 103 108 110 114 112 110 114 109 104 100  96  88  85  85  83  84  83  80  79  84  86  88  93  98 101 102 104 102 104 103 102 100  92  91  92  90  97 105 108 113 141 174 176 177 178 178 180 178 176 176 178 176 176 179 178 177 175 176 176 175 175 176 176
 185 186 186 186 186 186 187 188 188 188 188 188 189 189 188 188 186 187 186 187 186 171 151 118  56 113 123 115 111 102 104 105 110 112 111 111 108 105  99  92  88  86  83  83  84  84  85  86  86  89  93  93  95 100 101 103 103 104 102  98  94  89  87  88  97 102 107 106 111 128 127 134 170 177 178 176 176 177 177 176 176 177 178 177 176 175 176 174 176 176 176 175
 185 184 185 186 185 186 186 186 186 187 188 188 188 188 186 186 186 185 171 152 125 119 110  89 162 160 125 116 112 105  99 100 105 110 112 113 107 103  96  91  87  87  82  83  85  87  86  87  87  89  93  94  95  95  98 101 102 101  95  93  90  85  87  94 102 104 104 107 111 116 112 101  97 128 165 175 175 175 175 175 176 175 176 176 177 176 176 176 176 176 175 174
 185 185 186 185 185 186 185 187 188 188 187 186 189 187 186 179 155 130 118 108 106 102  97 143 197 163 128 116 112 107 105  98  97 103 109 108 105 101  94  90  88  85  82  83  87  87  85  87  86  86  89  92  94  94  98  97  97  95  90  91  84  83  90  96 102 106 104 106 110 115 118 118 116  79  72 107 115 135 162 176 176 176 176 175 175 175 175 176 176 175 175 174
 184 184 185 185 185 185 187 187 186 186 186 186 186 184 163 126 113 110 110 100  95  92  90 191 202 166 129 117 110 109 107 101  94  97  99  98  97  96  91  88  85  84  79  81  83  84  81  81  84  83  85  87  90  94  91  92  92  91  87  85  79  87  93  97 103 104 105 106 108 116 120 120 120  96  52  57  59  70  86 106 135 156 173 174 175 175 175 176 174 172 173 173
 182 185 183 184 184 184 184 186 186 184 184 178 148 117 109 109 105 105  99  92  85  86  98 201 201 159 128 116 111 109 106 101  99  91  92  91  93  91  88  84  82  82  77  76  82  84  80  79  80  78  80  84  81  86  88  88  86  82  76  76  82  92  96  96 100 102 105 106 109 118 121 121 120 103  47  46  47  49  58  72  81  89  99 120 154 175 174 175 176 173 175 175
 181 182 184 184 184 185 184 182 181 166 139 118 109 104 102 102 103 101  92  84  82  84 113 198 197 154 125 116 112 108 105 101 100 100  91  87  88  88  88  83  79  77  78  78  82  82  80  78  81  77  76  79  80  82  84  81  76  74  76  82  88  94 101  97  98 101 105 104 107 120 121 119 119 103  42  41  42  44  50  54  60  66  76  87  96 124 164 170 173 174 173 174
 181 183 183 184 184 183 180 146 116 112 111 104 100 100  97  97  97  95  85  80  77  81 117 194 192 149 123 115 112 107 103  99 100 102 101  91  86  87  85  83  79  76  79  80  81  79  82  79  80  75  74  75  78  79  78  73  74  76  75  89  92  98 100  99  97 102 102 104 106 117 120 119 118  87  38  38  38  39  45  49  51  53  57  63  71  82  91 118 146 164 173 173
 180 181 181 171 156 137 111 108 104 101  99 100  96  92  91  86  86  86  80  78  74  80 110 188 193 150 119 116 112 108 105 100 101 102 103 100  92  84  82  84  78  79  80  79  79  81  82  81  79  80  75  75  76  73  73  74  79  81  85  92  96 101 100  98  98 101 102 104 106 116 120 118 116  70  40  36  35  36  43  47  47  48  48  51  57  61  67  75  83  94 116 146
 179 158 128 108 103 102 102 102  99  97  94  92  87  85  87  82  84  78  76  75  72  75 108 185 187 146 119 113 110 107 105 100 100 101 102 104 102  97  85  82  81  78  81  79  77  74  80  83  78  77  74  72  69  74  78  83  82  88  91  95 100 100  99  96  97  99 102 105 108 118 121 118 112  54  39  35  35  36  42  46  42  43  42  45  50  52  56  60  67  68  75  81
 109 100 101  98  99  98  99  93  92  86  85  85  78  80  80  76  77  76  73  72  69  73 101 185 180 143 120 113 108 106 101  99 101  99 101 104 104 104  99  92  87  83  84  81  79  80  78  79  75  76  74  76  78  82  85  85  87  90  95 100 104 102 101  99  99 100 102 104 108 114 120 118 102  46  38  33  34  36  39  42  42  38  39  40  42  46  47  51  54  56  59  65
  98  97  95  94  94  94  92  86  83  81  81  80  74  75  73  71  72  74  72  68  65  71  86 180 174 142 118 113 107 104 101 101 102 101 101 103 101 101 101  97  95  94  90  90  86  85  83  81  82  82  83  83  84  84  86  86  90  94  96 100 100 101 100  99  97  98 102 103 107 113 119 114  80  40  36  32  33  36  38  42  40  37  38  38  40  41  42  45  51  49  53  54
