P2
# Generated by OpenCV 3.4.0
92 112
255
  85  85  85  86  86  86  90  88  90  92  90  91  91  91  92  92  93  92  93  94  92  95  95  94  94  93  94  98  96  96  96  96  96  96  96  97 100 102 103 101  98  98 100  99 102 105 104 102 100 103 100 100  99  99  98  97  98  97  97  97  97  97  97  96  97  96  96  97  98  99  96  96  96  96  96  94  94  96  93  92  94  93  95  95  94  94  94  95  95  94  94  95
  83  85  85  87  88  87  90  89  90  91  90  92  91  90  93  92  93  92  94  94  95  96  96  97  96  96  96  98  98  96  97  96  95  94  97  98  98 101 104 102 100  99  99  99 103 104 110 109 106 102  98 100  99  99  97  97  98  98 101 101  98  97  96  97  99  97  96  96  96  96  95  96  96  95  97  94  95  94  94  95  95  94  96  96  94  97  96  95  94  93  94  95
  83  86  86  87  87  89  90  90  89  90  92  92  92  92  94  93  95  95  96  94  95  95  95  95  96  98  96  96  96  98  98  95  97  94  98  98 102 102 101 101  99 102 111 119 121 115 109 102 100 100 100 101 100  99  98  99 100 102 102 100  98  98  98  99  98  97  98  99  97  96  96  95  97  96  98  96  97  98  95  96  96  94  96  96  95  94  95  94  94  94  94  93
  86  84  87  88  89  89  90  90  91  93  92  89  93  92  91  93  94  94  96  94  95  96  97  96  96  97  97  93  97  98  98  97  96  96 100 101 103 102 108 109 118 121 123 125 128 117 109 105 105 108 112 110 108 106 113 113 110 100  98  95  97  99  99 100  99  99  99  99  96  97  96  97  98  96  98  97  96  96  95  94  96  95  96  96  94  97  96  95  96  95  95  94
  85  86  87  88  88  88  90  91  91  92  91  91  93  93  93  94  94  94  96  95  95  96  97  97  97  98 100  97  98  98  98  96  95  94  97 104  98  92  96 104 106 106 106 104  99 114 123 130 130 138 130 127 122 119 114 100  86  79  81  82  88  92  94  94  94  96  97  96  98  99  97  96  98  97  97  97  96  98  96  96  96  95  97  97  95  95  98  96  96  95  97  94
  85  86  87  90  89  90  89  92  92  91  92  92  93  94  93  93  94  95  95  95  95  97  96  98  99  99  99 101 102 102 104 100 101  98 100 101  96  93 101  99 103 114 108 111 134 142 144 145 157 141 128 119 109  95  86  79  78  71  68  69  69  72  77  81  82  86  93  93  97  98  96  98  99  97  97  98  98  99  96  98  97  96  98  96  96  95  95  95  95  95  94  93
  88  87  87  90  90  91  91  92  93  92  93  93  93  94  93  96  94  95  95  96  95  98  97  97 100  98 100 109 104 108 108 104 107 100 101  92  78  80  80  78  77  88 102 120 141 156 161 168 149 131 108  97  95  89  85  84  76  70  66  64  61  64  67  67  66  65  68  78  90  97  99  99  99  99  98  99  99  99  98  97  98  96  97  97  97  95  95  94  96  97  94  96
  88  88  89  91  91  91  91  92  91  91  91  95  94  96  94  93  95  96  98  96  97  96  98 100 104 110 114 113 122 144 148 127 108  92  86  79  71  66  66  67  77  92 114 122 145 157 159 134 111 113 112 105 105  95  87  75  64  64  56  56  56  56  63  62  59  60  65  65  69  80  93  99  98  98  98  99  99  99  99  98  98  97  98  97  98  96  95  95  96  96  96  95
  89  89  89  91  90  91  91  92  92  91  92  94  95  95  96  96  96  96  96  97  98  98  98  98 102 112 109 118 130 137 128 111  93  74  80  71  70  62  60  62  68  89 112 154 154 150 134 127 145 152 150 137 118 101  80  68  60  55  52  47  47  48  49  53  54  54  58  62  65  71  78  89  98  98  99  99 100  99  98  98  96  98  99  98  96  97  97  96  95  95  97  96
  90  90  91  91  89  91  92  93  92  93  94  95  93  93  95  96  96  96  98  97  98  98  98  98 104 117 142 155 146 129 117 107  89  75  69  63  63  56  54  53  59 114 142 147 150 120 115 125 153 157 146 129 105  82  68  58  52  47  44  43  40  44  42  41  45  47  51  54  63  67  71  81  91  96  98  98  99  99  97  99  99  99  98  96  96  98  98  98  96  96  99  98
  89  92  90  93  92  89  92  92  92  92  94  96  96  93  97  96  98  97  98  97  99  98 100 106 123 151 148 140 142 128 111  96  80  69  59  53  53  44  47  59  85  97 114 112  85  82  96 123 134 126 106  76  71  72  67  59  51  48  45  43  43  43  44  43  43  43  46  52  59  63  66  69  75  86  96  99  99 100  98 100 101  99  99  98  99  99  99  98  97  98  98  96
  88  90  90  91  92  92  92  92  95  91  93  96  95  96  97  96  96  96  98  97  96 100  95 118 132 152 148 153 149 137 111  91  77  72  58  53  50  45  56  66  62  90  86  61  61  74  81  92  98  71  50  50  54  56  51  49  44  42  38  35  34  33  34  36  37  37  39  44  51  58  64  67  69  68  83  98  99 100  99 100 101 100 100  98 100  99  99  97  99  97  97  97
  90  91  91  92  91  93  95  94  95  92  92  95  96  97  97  95  96  98  98  98  97 100 103 132 157 162 171 164 150 130 107  94  86  77  65  55  53  57  61  69  73  64  49  45  58  58  60  62  43  35  33  38  41  45  43  41  41  39  37  34  34  34  31  31  33  32  34  33  35  38  43  47  57  62  64  81  97  99  98  99  98  98  98  98  99  98  98  97  98  97  97  99
  91  91  92  92  93  92  94  97  95  95  94  97  96  97  97  96  98  99  99  98 100 103 115 135 146 158 158 158 145 127 130 130 108  75  62  54  54  58  66  63  53  47  43  47  51  50  46  30  23  22  24  26  29  35  41  46  45  39  32  33  34  32  30  33  35  32  36  39  39  44  46  49  47  53  61  60  86  96  98  99  98  98  99  98  98  98  98  98 100  98  97  97
  91  93  93  93  92  93  95  96  93  94  93  97  98  98  98  98  98  99  98  98 103 118 126 144 160 166 176 161 148 147 142 111  83  67  58  49  52  59  53  50  43  41  42  43  39  36  26  20  22  24  25  33  37  50  51  51  52  51  51  45  38  34  35  34  36  36  37  36  39  41  44  48  48  49  49  60  71  91  98  99  99  98 100 100  99  97  98  99 100  99  97  97
  92  91  93  93  93  94  94  95  93  96  97  97  98  98  97  99  99 101 102 104 116 120 126 137 149 155 130 124 141 149 132 115  98  81  75  56  54  50  48  43  39  39  36  32  32  26  20  23  24  24  29  32  41  45  48  55  59  51  48  42  38  36  36  35  36  37  39  40  43  46  45  47  46  44  45  50  58  83  95  97  98  99  98  99  99  99  98  98  99  98  98  99
  93  93  92  93  93  94  96  95  97  96  99  96  98  97  98  99 100 100  99 102 109 113 113 111 104  88 105 125 141 161 155 131 120  92  70  59  50  43  41  38  36  36  31  29  28  22  22  20  22  22  26  29  34  36  42  47  52  50  42  37  34  32  31  32  33  34  36  39  43  46  48  48  48  45  44  46  52  73  91  97  98  98  98  99  98  97  99  99  99  97  96  97
  92  94  93  92  96  94  95  97  99  96  97  97  98  98  98  98  99  96  87  90 100  94  91  91  77  85 105 123 143 144 146 150 119  92  64  50  42  39  35  34  33  35  31  28  26  22  19  19  20  22  22  23  25  27  30  31  30  28  26  22  21  23  23  24  26  29  27  27  28  31  33  35  37  39  40  43  47  54  82  96  98  98  99  98  97  96  98  97  98  97  96  95
  93  92  94  94  96  96  97  97  98  98  96  99  98  98  98 100 101  92  87  91  81  76  78  75  77  89 105 120 137 152 156 142  98  71  60  48  37  36  36  36  34  34  33  30  26  22  21  22  21  21  21  22  21  23  23  21  22  21  20  19  20  20  22  24  25  22  24  25  28  32  32  34  36  36  36  36  38  48  68  91  97  96  95  95  95  95  93  92  94  92  92  90
  92  92  92  95  95  95  96  97  98  97  97  98  97  98  99  99  97  83  82  83  78  71  67  77  92  97 109 130 133 141 123  99  91  77  52  40  38  43  41  41  42  38  38  36  34  30  29  28  29  28  26  26  26  24  24  23  24  25  26  26  27  27  23  21  18  19  22  24  25  28  29  31  41  45  43  42  44  45  50  76  88  89  90  91  92  89  90  90  91  91  92  92
  92  93  95  93  96  98  98  96  97  98  98  98  98  99  98  99  93  86  85  79  77  73  78  81  86 105 107 104  96  86  82 104  95  51  42  42  48  46  49  49  51  51  48  46  40  36  34  34  34  34  31  32  31  30  31  30  30  29  28  28  25  24  22  21  23  25  24  23  22  21  23  25  37  51  54  48  54  55  51  57  85  98 101 103 106 106 107 109 109 113 113 116
  92  95  96  95  95  95  97  98  97  98  98  97  98 100  98  96  86  80  74  70  67  68  75  82  92  81  77  72  60  70  82  75  57  43  46  52  58  58  61  63  64  64  63  59  55  49  42  41  41  39  37  32  30  31  31  30  30  27  24  24  24  25  24  22  22  21  22  21  23  24  26  25  28  34  46  52  52  54  53  51  61 110 121 121 119 122 122 122 123 122 123 123
  91  93  96  94  94  95  97  96  97  97  98  98  97  97  97  93  84  78  72  68  70  72  74  74  69  64  63  59  66  73  66  51  52  52  57  61  66  69  72  75  73  72  71  69  66  57  50  48  44  41  37  33  30  31  30  29  26  25  23  23  23  24  23  24  24  22  22  23  25  26  26  28  30  32  36  44  47  48  50  50  51  88 118 122 124 126 125 123 124 124 124 123
  92  93  93  94  93  94  93  92  94  94  95  92  93  92  91  89  87  80  70  79  73  68  63  62  61  59  60  66  66  59  49  49  58  62  68  71  75  78  81  81  78  80  77  72  70  65  57  54  53  49  44  41  36  35  32  30  31  29  26  25  23  24  25  26  25  26  27  27  28  27  27  31  26  26  31  35  43  43  44  46  49  62 112 123 125 125 125 124 124 126 124 123
  88  85  87  88  86  88  90  90  88  88  91  90  93  93  94  91  85  83  70  76  70  61  63  57  59  58  62  63  51  45  52  59  65  71  78  81  86  88  88  85  84  86  84  79  75  70  64  64  61  55  52  48  44  40  37  34  34  32  30  28  27  26  28  28  26  27  28  29  30  34  35  32  30  28  26  28  35  41  43  44  44  50  82 122 125 126 125 125 124 124 124 123
  99  99 102 104 104 107 107 110 113 113 115 119 117 117 118 108  93  75  63  64  62  55  55  53  59  60  52  44  44  51  61  71  78  83  86  90  96  97  95  89  88  88  87  85  81  76  72  68  65  62  56  52  50  47  43  41  38  35  35  32  28  27  27  30  30  31  30  31  33  36  34  38  40  34  29  27  30  33  39  42  40  44  54 108 123 125 125 125 125 125 126 126
 117 117 118 118 119 120 121 122 121 122 122 123 122 123 125 114  92  68  57  54  60  53  59  57  46  40  44  47  51  63  76  83  88  92  96 103 106 105 100  94  92  90  91  90  85  80  75  72  68  66  64  58  56  53  51  46  46  44  40  36  33  28  29  32  33  33  33  33  34  36  32  31  34  36  36  32  29  31  34  38  42  38  43  55 118 125 126 125 125 125 124 126
 119 120 119 121 121 122 122 123 122 122 122 124 124 124 123 119  89  59  54  49  46  40  40  41  36  41  47  52  63  77  89  94  98 102 106 109 109 107 105  99  94  92  92  91  87  83  80  75  75  71  68  64  62  60  57  53  49  49  45  42  36  35  31  33  36  37  38  37  38  36  33  34  33  32  34  34  32  31  31  35  39  40  39  40  83 123 126 125 126 126 125 126
 121 122 122 120 121 123 125 124 122 124 125 125 126 125 126 123  82  57  45  36  34  39  40  38  39  47  55  65  78  90  98 106 108 113 114 113 112 109 109 103 100  93  91  91  89  85  81  80  78  72  70  67  69  67  63  61  54  51  50  47  43  40  38  35  36  41  42  41  43  40  35  33  31  30  27  28  30  31  30  33  37  40  42  43  59 114 125 127 126 127 127 127
 120 120 121 123 122 122 124 125 124 126 126 126 127 126 126 123  84  53  42  35  36  38  39  38  44  54  69  81  92 101 107 112 116 120 119 116 112 113 112 106 100  95  95  93  90  86  83  81  80  79  75  72  71  71  69  68  65  60  57  55  52  49  46  41  38  38  40  43  44  43  43  36  33  28  26  26  27  26  26  28  32  36  39  42  50  98 124 127 126 125 127 127
 120 121 123 123 123 122 124 126 125 125 124 127 128 127 127 123  86  50  46  40  37  37  38  43  49  67  81  95 106 111 114 120 124 123 123 121 117 115 112 106 101  99  97  94  92  90  87  85  85  83  80  77  74  74  72  72  70  69  66  64  61  58  56  51  50  45  41  44  47  48  45  40  36  31  27  23  24  23  26  27  26  31  34  37  51  88 121 127 125 127 126 126
 121 122 122 124 126 121 125 126 126 125 126 126 126 125 127 118  70  50  44  40  36  37  43  46  61  84  98 111 117 120 121 125 126 129 128 122 120 117 115 110 106 101  99  96  93  92  91  90  88  85  81  79  77  77  77  75  73  73  73  72  73  74  69  66  63  62  60  56  54  52  51  51  46  37  28  24  22  21  25  27  27  28  32  38  47  59  84 100 116 124 127 128
 122 122 123 124 124 123 125 127 126 126 127 128 126 127 128 118  75  48  40  36  38  40  47  50  81  96 114 119 121 125 125 127 130 132 130 126 123 120 115 111 108 105 100  96  95  93  91  91  90  87  84  80  78  78  80  78  78  78  79  81  80  80  80  79  76  76  77  74  72  71  69  71  66  57  36  27  24  22  24  24  26  30  31  36  45  49  52  63 116 126 127 128
 122 124 125 124 125 126 125 125 126 126 126 127 128 128 128 121  86  58  41  36  36  42  50  66 101 110 122 123 127 125 123 129 133 134 132 130 126 122 117 115 113 109 103  98  98  92  93  94  91  89  86  83  82  82  82  81  82  83  83  84  83  84  86  87  87  86  84  85  83  82  78  81  83  78  53  31  26  24  23  23  23  26  27  31  39  51  75 109 124 128 129 128
 125 125 124 124 125 124 126 127 127 128 128 127 128 128 128 117  72  54  44  37  35  45  55  89 110 121 126 128 129 124 125 134 136 136 134 134 129 125 122 120 120 112 105 101 101  96  94  94  93  91  88  86  83  84  85  86  86  88  87  86  86  89  91  94  93  91  92  93  89  88  85  87  89  89  70  41  29  26  24  24  23  23  26  31  40  69 107 118 127 129 129 128
 123 124 123 124 127 126 127 127 128 128 127 129 129 129 128 105  54  44  41  38  42  50  75 108 118 127 130 130 129 131 135 139 140 141 140 139 133 129 127 124 118 116 110 103 101  98  97  96  94  94  91  88  86  85  88  89  91  90  90  90  93  94  93 100  94  93  97  98  95  96  95  96  96  95  81  53  35  29  25  28  27  26  27  27  40  96 123 127 130 129 130 130
 125 125 126 125 127 128 127 128 130 128 130 129 129 131 127  90  49  39  36  41  45  63  98 116 127 131 132 132 135 138 142 143 143 143 142 139 135 132 128 122 116 114 110 106 105 101 101  98  96  95  95  94  91  89  93  92  92  95  96  97 101 103 102 108 104 101 100 102 101 103 104 105 104 100  87  63  42  29  25  27  29  29  32  30  34  64 117 124 124 129 130 131
 127 126 128 127 128 128 128 128 128 130 130 130 129 127 120  78  48  34  35  42  51  82 111 125 132 134 136 138 142 142 145 146 145 144 140 137 133 128 125 118 115 110 107 106 106 104 103 101  99 100 101 100  98  96  96  99  99 101 102 105 108 108 112 118 112 108 107 107 107 108 109 110 109 103  91  69  46  34  32  28  30  28  35  41  34  39  91 118 122 126 127 130
 127 129 129 130 129 129 131 132 131 131 130 132 131 124 115  79  48  33  36  48  64  95 121 133 136 137 138 144 146 146 147 146 145 138 135 133 128 124 120 118 112 107 108 107 105 107 106 104 104 106 105 100 101  99 100 103 105 105 105 109 110 113 118 123 120 115 111 110 110 111 111 112 112 108  96  73  51  39  34  30  29  30  38  68  45  43  69  90 109 119 126 130
 129 129 130 131 131 131 133 134 132 134 135 135 133 123 107  86  44  36  39  54  68 109 135 138 139 139 142 148 148 148 145 143 137 132 128 125 121 117 114 116 111 106 106 106 105 104 105 107 107 109 106 101 103 101 102 104 107 105 107 110 110 114 116 121 122 119 117 113 112 114 113 114 115 112  99  79  54  41  36  33  30  31  36  80 105  94 101 115 120 128 130 132
 131 133 132 133 135 135 134 135 135 136 136 135 133 118 110  88  45  35  38  56  67 125 147 144 144 146 149 149 144 145 143 137 131 124 119 116 116 111 112 109 106 104 102 104 103 101 105 108 107 107 108 104 104  99  98  98 102 102 103 105 109 113 114 115 119 120 118 114 115 116 114 113 114 113 103  81  57  44  38  35  32  30  32  49 116 127 129 131 134 134 134 134
 133 134 133 135 134 137 135 138 139 137 136 137 134 121 119  89  48  37  40  56  72 137 154 155 154 156 155 151 142 139 135 132 124 117 111 109 109 106 107 103 103 101 103 101 100 101 104 105 105 103 106 103 101  96  95  93  93  97  99 102 104 108 109 112 115 118 117 119 117 117 113 116 115 113 107  84  61  46  40  37  32  29  30  36  90 130 135 135 134 134 136 137
 135 136 137 138 139 139 141 140 140 140 139 140 136 127 130  89  53  39  39  56  84 150 164 163 160 163 161 150 135 129 124 118 112 102  96  94  97  96  94  95  96  98  97  97 100 100  98 103 102  98  98  97  93  92  92  91  92  94  92  95  98 103 105 106 110 112 115 118 116 117 116 114 113 113 109  90  64  48  42  41  35  31  31  38  64 128 135 135 136 136 137 136
 137 138 139 141 140 141 142 142 143 143 144 144 143 140 137  92  54  39  41  56  97 163 170 173 172 167 157 136 119 108  99  89  78  67  66  68  70  75  80  83  89  92  94  95  96  97  96 100  97  93  92  90  88  89  87  88  90  90  90  92  94 100 103 104 104 111 116 118 118 117 114 115 113 114 109  91  66  50  44  38  36  34  36  47  83 130 137 137 137 139 137 136
 139 140 143 143 143 144 145 144 146 145 145 145 146 146 144  94  48  38  39  56 115 172 178 178 160 141 114 100  87  74  64  56  48  47  43  46  52  56  62  75  78  85  89  92  95  94  97  98  95  90  87  79  79  79  76  79  77  78  82  83  87  92  95  99 104 111 118 120 122 120 118 114 115 116 112  98  70  50  46  37  36  34  40  62 104 135 138 139 139 141 139 139
 144 144 144 146 145 145 146 146 149 146 147 148 148 147 145  95  51  42  40  54 138 178 171 147 120  97  80  69  56  49  46  45  44  44  42  39  43  47  52  64  68  78  85  88  92  92  92  96  92  85  81  72  68  64  64  64  58  56  54  56  66  71  76  82  95 102 110 115 122 122 120 118 117 116 114 104  74  51  47  35  35  36  43  84 114 136 140 141 140 141 141 140
 145 146 146 146 149 148 148 147 148 149 148 149 149 147 143 100  61  48  42  54 151 159 124 105  90  80  67  59  56  50  46  44  42  47  42  42  43  45  48  56  63  72  81  86  89  87  91  91  86  82  76  66  58  53  51  51  51  44  38  36  37  39  46  53  65  76  88 100 110 119 120 119 118 116 117 109  76  49  46  36  34  37  46  66 123 140 142 141 140 142 143 142
 147 146 150 149 150 150 152 150 152 152 151 152 151 151 140  92  70  62  46  59 156 124  98  94  90  86  83  82  80  81  75  73  66  62  58  53  50  51  50  55  62  71  80  86  87  85  85  85  84  78  70  62  54  49  46  45  42  38  33  31  30  31  35  37  42  50  60  67  83  98 112 117 118 118 118 113  78  47  46  38  36  40  54  72 122 143 144 143 144 142 141 142
 150 149 151 151 153 152 154 152 153 154 154 154 153 154 151 124 128 100  51  62 151 119 108 108 111 108 105 103 100  94  91  88  83  78  76  78  73  69  65  64  71  78  83  84  87  86  84  83  82  75  68  62  53  49  49  44  40  35  34  33  32  34  34  34  36  39  45  54  65  75  92 111 119 117 120 117  83  43  41  35  36  41  51  98 130 142 145 144 146 146 144 145
 151 152 153 153 152 154 155 155 156 155 155 156 156 156 155 155 149 109  58  71 147 119 116 126 121 116 110 105 101  95  91  85  79  79  78  79  78  80  83  81  81  84  87  89  89  90  86  80  79  79  71  64  60  55  55  53  46  48  50  53  56  58  55  54  50  48  47  50  57  65  70  85 101 114 119 117  84  40  41  32  35  40  48  93 137 146 145 146 147 147 145 148
 154 154 154 154 156 156 158 158 158 158 157 158 158 158 158 153 130  92  54  75 161 128 128 128 120 111 103  91  80  71  63  59  58  60  64  71  74  75  76  81  85  89  91  98 100  93  88  83  82  80  73  69  67  67  64  63  64  63  64  65  70  70  71  71  71  71  67  62  57  60  67  69  77  96 116 116  81  42  40  32  32  40  50  92 137 147 148 149 148 148 147 147
 156 158 158 157 160 158 160 159 160 159 160 160 160 161 160 152 112  74  55  88 164 134 132 124 108  89  71  53  43  35  29  26  27  29  41  48  56  67  70  73  80  89 102 110 112 103  93  87  86  82  76  70  66  62  59  59  59  59  59  60  63  69  71  72  77  82  82  78  76  71  69  68  69  80 105 117  80  40  38  34  35  37  46  91 141 147 148 150 151 148 148 150
 159 159 160 160 160 161 161 162 161 161 163 163 162 162 160 155  99  62  54 101 166 140 128 111  79  57  41  50  72  42  28  23  21  26  33  44  45  50  59  68  73  84  99 120 118 112 101  96  92  83  73  67  59  56  53  50  43  43  41  36  32  30  35  44  57  77  85  87  88  87  83  76  72  78  97 115  79  42  36  37  40  36  45  73 133 150 154 153 152 151 151 152
 161 161 160 162 162 162 163 163 164 163 163 165 163 163 159 129  69  52  60 121 155 130 116  82  54  46  50  57  68  41  35  27  23  27  34  47  38  39  52  64  72  82  99 121 122 115 109 104  96  84  69  62  58  52  46  44  40  38  42  36  28  23  18  22  26  34  52  75  88  93  93  89  83  81  94 112  84  43  37  38  39  36  45  63 110 148 153 153 153 154 153 153
 162 162 163 162 164 163 164 164 165 166 165 166 166 166 166 133  58  54  68 119 146 120 100  76  79  89  89  79  67  57  47  40  38  37  39  42  40  36  40  66  72  83 104 121 120 116 111 106  98  82  64  58  54  50  45  36  37  42  47  34  28  23  20  26  30  46  34  46  70  90  95  96  94  96 103 117  81  44  38  35  38  40  47  69  89 146 153 155 154 153 153 152
 165 165 166 166 166 168 167 167 167 166 167 168 168 167 168 116  76  79  72 129 148 119  96  87 109 111 110 104  96  89  79  71  64  57  54  51  55  60  67  73  79  90 111 120 124 121 119 113 103  90  64  55  50  50  34  31  34  38  42  34  27  23  22  34  36  49  37  29  42  69  91  98  98 103 113 118  85  44  41  40  44  48  56  69  93 145 154 155 157 155 154 154
 166 165 166 167 167 168 167 168 168 168 168 170 167 169 166 111 106  93  73 130 165 148 138 119 116 114 111 109 105  98  88  77  71  68  66  63  63  65  69  77  90 104 119 130 132 128 125 122 117  99  75  58  55  54  51  45  42  40  42  43  41  40  35  41  43  45  49  44  36  52  79  95 104 110 119 122  89  45  41  45  52  58  63  70  88 141 155 155 156 157 156 155
 167 168 170 168 168 169 168 169 169 170 171 170 170 170 168 114 126  96  72 135 176 174 160 131 115 108 104  97  92  86  80  74  72  68  65  66  68  70  78  88 101 115 129 134 136 133 129 129 126 114  87  66  57  53  51  50  48  47  49  50  54  57  59  61  66  66  69  67  64  53  65  80  90 104 120 121  92  45  40  49  65  75  65  64  81 140 157 157 159 158 159 157
 168 170 170 171 170 170 170 172 172 172 172 172 173 170 170 134 119  96  75 133 182 168 152 136 135 123 107  94  82  75  73  71  69  68  72  75  81  88  98 106 111 123 133 138 138 132 133 131 130 119  98  78  63  53  51  48  50  50  51  55  62  65  72  77  80  82  83  84  76  56  59  73  94 108 120 122  92  48  40  48  66  79  67  64  82 141 158 159 160 161 160 158
 170 172 172 171 172 172 173 174 174 173 173 173 173 173 172 154 108  90  73 131 178 160 163 171 163 145 126 109  98  88  88  87  87  90  92  97 102 104 112 113 120 132 139 143 145 142 138 134 133 124 110  91  75  68  59  56  54  53  51  53  57  62  67  71  76  83  85  86  83  84  84  88  98 108 121 122  95  49  42  48  76  90  77  70  91 150 161 162 161 162 160 160
 172 172 172 173 174 175 174 174 174 175 175 175 174 174 174 161 103  82  73 136 177 170 183 181 172 159 141 121 110 105 103 104 101 102 103 106 108 112 113 119 127 137 144 149 154 148 141 137 133 126 118 102  85  77  75  69  66  60  57  57  55  55  56  61  65  68  73  78  86  98 109 112 113 117 121 124  95  51  43  61  83  97  87  72 105 156 163 162 163 162 162 162
 174 174 175 174 174 174 174 176 175 176 176 176 175 177 176 168 125  80  73 141 180 181 184 178 172 164 150 133 121 111 109 104 104 102 103 107 107 111 115 121 133 145 154 162 161 156 147 141 132 126 121 109  93  81  81  81  80  76  72  69  67  67  69  73  79  89  98 104 107 104 109 112 116 120 125 125  99  58  46  69  85  99  97  78 122 159 166 162 163 165 163 163
 174 175 176 176 176 176 177 177 179 176 179 177 177 177 178 175 161 105  76 150 183 178 181 181 178 167 155 141 126 115 109 103 101 101 104 110 112 115 118 127 140 152 165 173 165 159 148 140 133 125 122 115 103  88  84  82  85  84  82  82  80  80  84  92  99 109 116 117 115 114 111 111 117 121 125 125  98  60  52  70  81  89 103  91 148 165 167 165 166 166 166 165
 176 178 180 179 178 178 180 180 180 179 182 181 179 181 182 177 164 174 108 156 180 178 181 184 182 170 157 141 128 118 111 102 101 103 109 114 117 122 123 134 153 164 169 172 163 152 142 141 132 127 124 119 109  98  89  88  86  85  83  87  89  92  97 105 113 119 123 123 120 118 116 115 118 123 125 124  96  59  58  72  76  81 102 116 160 166 168 167 168 167 168 168
 179 179 180 182 182 181 182 181 181 181 181 182 182 182 182 182 165 158 182 177 178 178 180 184 178 164 150 139 126 116 110 106 104 110 112 119 123 123 124 141 165 166 163 157 152 145 138 134 133 129 123 119 109 104 101  94  89  87  85  90  95 103 106 109 114 118 121 120 121 120 119 120 119 122 126 124  89  66  62  64  64  72  98 134 164 167 169 168 168 168 167 167
 182 181 182 182 181 183 182 182 181 183 183 184 183 183 183 186 189 179 190 176 175 172 181 180 170 156 146 136 125 116 111 107 107 112 113 116 115 115 119 158 169 167 162 155 146 136 131 128 130 127 125 120 111 105 103 100  97  93  91  93  97 105 108 111 113 120 121 119 119 120 122 120 121 123 126 123  78  88  65  58  59  67 100 147 166 170 170 169 169 168 168 168
 183 183 182 183 182 183 183 183 185 184 184 184 183 183 185 187 195 213 187 164 169 173 179 172 164 150 140 130 122 113 110 108 106 107 107 106 108 120 148 172 171 169 165 159 142 133 127 126 125 124 123 124 117 104  97  95  99  96  98  95  94 101 104 108 111 116 120 118 119 120 122 120 122 122 124 118  80 105  68  56  62  78 110 156 168 170 170 171 172 169 170 168
 183 184 184 183 184 184 184 183 185 187 184 184 186 187 183 186 190 190 158 157 168 170 168 164 152 140 133 123 116 108 109 106 100  96  95  96 114 150 166 170 170 173 168 156 139 131 128 125 124 125 122 122 120 115 102  85  88  92  93  96  95  99 104 106 108 113 117 122 121 123 122 122 123 123 125 108  92  90  63  61  79  96 120 163 170 169 170 171 171 170 171 169
 185 185 185 185 184 184 186 185 184 187 187 185 186 188 187 188 187 167 143 147 164 165 154 153 144 134 126 121 114 109 104  98  93  86  85  91 136 154 163 163 167 169 159 140 127 120 120 120 120 118 116 117 120 117 115  84  74  81  89  91  94  96 101 106 108 113 118 123 123 124 122 122 121 119 123 111  95  96 104  94 100 105 138 167 171 169 172 172 171 172 172 170
 185 185 185 186 186 185 187 185 186 187 188 188 188 188 189 190 189 169 140 139 158 158 148 143 134 125 124 117 111 106  98  93  86  82  80  93 147 150 147 141 149 149 137 124 110 106 107 110 110 110 109 112 113 113 116  90  68  71  79  84  90  93  98 104 105 111 115 121 123 123 125 121 121 120 121 109  78  98 118 101  97 114 159 171 173 172 173 171 173 172 172 172
 188 187 187 187 187 186 188 187 188 189 188 189 189 189 190 190 190 187 166 141 151 152 147 137 129 121 119 114 106 100  90  86  80  75  81 102 139 134 128 125 127 127 122 113 104 101 100  99  99  99 100 104 107 107 110  96  65  64  72  81  85  90  94  99 102 106 113 118 122 124 125 121 121 121 119 108  98 106 116 108 109 138 169 173 174 174 173 173 174 174 173 172
 188 188 188 188 188 188 190 189 189 189 188 189 190 189 190 191 190 189 187 170 153 145 145 133 126 123 115 110 102  92  86  78  76  80  89 102 117 112 105 103 109 112 113 107  98  97  97  93  92  92  90  93  97 102 103  94  67  64  66  76  84  88  92  96  99 103 109 116 120 123 124 124 120 121 114 113 115 102 109 121 130 164 172 173 174 174 174 174 174 174 174 173
 187 187 189 190 189 188 189 189 189 189 189 189 191 190 191 193 192 191 190 189 165 141 137 130 126 121 114 107  97  86  79  77  81  89 100 106 109 102  87  78  79 100 110 101  94  94  94  92  85  74  69  81  92  98  98  84  74  69  65  67  80  87  91  93  95 101 107 112 119 121 122 124 120 120 109  99 100  99 103 118 155 171 174 176 176 176 175 176 176 174 174 172
 187 187 187 189 189 189 189 190 189 189 189 190 190 192 192 191 192 192 192 193 174 140 138 129 124 120 111 102  91  82  76  80  87  97 106 107 110 107  97  90  85  91 103 101  95  94  93  86  68  62  59  63  74  86  86  77  77  74  73  64  71  82  90  92  94 100 102 109 114 120 121 122 120 119 113 108 106 103 106 138 169 175 176 175 176 175 174 175 175 175 175 174
 189 189 189 190 189 189 191 191 190 190 190 190 190 191 191 193 193 193 191 194 183 142 135 130 124 118 110  98  88  78  79  84  92 104 110 112 111 108 102 100  97  97 100 102  94  93  91  81  76  74  71  69  74  87  86  79  78  81  77  71  65  78  87  90  91  96  99 106 112 119 121 122 121 120 110 113 110 110 128 167 174 176 176 175 176 175 176 175 175 175 175 175
 187 188 191 190 189 191 190 190 191 190 190 191 190 190 192 193 195 193 194 193 191 150 137 128 124 117 104  92  80  78  84  88  99 112 113 110 111 109 104 102  99 102  98  93  91  87  84  80  78  77  77  77  79  91  87  81  80  83  76  71  60  68  81  88  92  94  98 103 110 118 122 120 121 118 104 102 107 135 169 174 176 177 177 176 176 174 176 176 175 177 177 175
 189 189 190 191 190 192 190 190 190 191 192 192 192 193 193 192 194 193 194 194 192 158 139 130 124 115  99  81  76  86  94 104 114 117 115 113 117 116 110 104 100  97  96  93  88  84  83  81  78  76  73  80  86  90  86  79  81  83  80  72  67  64  74  85  91  94  98 101 107 114 120 118 120 139 153 147 160 172 176 176 176 178 176 177 176 176 177 176 176 177 176 176
 190 190 190 191 192 190 192 191 190 191 192 192 192 193 193 193 194 195 195 194 194 171 139 131 124 113  91  66  81  95 111 118 122 123 123 122 126 123 115 109 100  96  94  92  86  84  84  78  75  73  71  87  94  95  87  78  78  82  80  74  70  64  68  80  88  93  95  99 107 114 118 118 121 153 174 176 177 176 177 178 178 177 178 177 177 176 176 178 177 178 176 176
 191 190 192 190 191 191 190 191 191 191 192 192 194 194 195 192 196 195 195 196 195 181 138 131 123 114  91  71  91 108 116 120 122 125 124 125 129 126 118 108  95  91  84  80  77  78  82  80  78  78  82  90  98 101  93  86  81  83  82  77  67  64  63  74  84  90  94  98 107 112 117 119 124 159 176 178 179 178 180 181 180 177 177 179 177 176 176 177 177 177 176 177
 190 190 191 190 191 191 191 192 190 192 192 193 195 194 195 195 196 195 195 194 195 190 145 132 124 118  95  78 100 105 109 114 118 119 115 118 119 119 114 114  98  89  79  71  69  70  72  74  75  79  86  92  99 103 104  98  92  88  87  83  76  71  65  68  78  87  97 102 107 113 117 120 129 167 178 178 180 179 181 179 180 181 179 180 178 178 178 177 179 178 178 176
 190 190 190 191 189 191 193 193 193 194 194 194 194 194 194 195 196 195 194 194 195 192 154 134 125 121 104  88 104  98  97  90  80  81  90  91  93  92  95  97  95  91  84  78  72  74  75  80  83  88  92  95 100 104 104 102  94  88  87  87  84  77  71  69  80  89  97 103 110 114 113 119 135 171 180 180 181 181 181 180 181 181 179 178 179 179 179 178 177 179 179 177
 189 190 191 190 191 192 194 193 192 192 194 192 194 195 192 195 195 196 195 195 194 193 174 135 128 123 115  94 102 100  96  81  45  34  33  68  87  79  80  84  82  81  82  80  80  78  77  79  77  78  79  84  89  97 101 100  96  90  87  88  86  84  78  70  81  89  97 104 107 112 114 121 140 177 181 181 181 181 180 181 180 180 181 181 181 181 179 179 180 178 177 178
 192 191 191 189 191 193 194 193 193 192 192 192 196 194 196 194 195 195 195 195 195 193 187 136 128 124 119 106 104 105 106 100  77  45  34  57 105  89  91  97  81  81  85  80  76  74  72  70  69  68  68  69  71  73  77  81  86  88  86  87  85  83  83  76  84  90  99 104 109 113 116 123 146 177 181 181 182 182 181 181 181 181 181 182 182 181 179 181 180 177 178 177
 191 191 191 190 191 192 193 193 193 193 193 196 196 196 196 195 195 196 197 195 195 194 191 152 129 124 120 113 108 108 109 110 103  79  54  39 101  99 110 115  93 100 112  99  84  71  77  82  77  66  66  71  65  58  63  65  70  67  68  75  79  81  83  79  87  96 102 104 111 115 117 123 160 177 181 182 182 181 182 181 180 182 182 182 182 179 182 181 181 180 180 178
 190 190 192 191 192 192 192 193 194 196 195 195 194 197 196 195 196 196 196 196 194 195 194 169 132 124 123 119 111 111 112 116 112  96  82  66  83  91 116 120 103 130 126 116 103  78  94  98  96  77  70  84  74  66  72  41  32  31  46  68  75  77  85  86  92  98  99 104 114 117 119 125 169 180 182 182 181 182 182 182 181 182 180 181 180 181 181 181 180 181 181 180
 192 192 192 191 192 191 192 193 194 194 195 194 194 195 195 196 196 196 195 196 195 196 194 186 139 126 124 119 112 113 116 116 115 106  95  92  86  73 102 117 116 139 133 124 115  92 105 107 106  90  79  90  79  67  66  32  30  41  60  76  80  82  86  90  93 100 102 107 114 116 120 134 178 183 182 183 182 183 181 181 180 182 182 182 182 180 180 181 180 179 179 181
 192 193 192 193 192 192 192 192 195 194 194 195 196 196 196 196 196 196 195 194 197 198 195 192 162 128 124 122 117 114 117 117 116 113 100  97  92  84  78  87  75 135 130 124 114  98 108 105 105  94  84  84  65  49  45  42  48  59  76  85  85  86  89  93  93 100 105 110 113 114 119 143 179 182 183 182 183 181 183 182 182 182 184 181 180 180 181 182 180 182 179 178
 192 192 192 192 191 193 193 194 194 193 194 194 195 196 196 196 196 194 196 194 196 196 195 194 185 132 123 120 120 115 114 117 117 117 108  99 102  91  79  72  60  77  91  95  84  75  98  96  94  71  59  55  50  51  56  56  61  75  86  88  86  86  91  96  97 103 106 111 113 114 122 168 181 182 184 184 183 183 182 182 182 182 182 182 183 182 182 181 182 179 180 180
 192 190 192 191 191 193 193 194 193 194 194 195 196 196 195 194 194 194 195 194 195 195 195 194 191 156 126 122 120 114 104 114 117 118 116 104 103 101  91  78  74  73  71  63  51  49  52  55  44  46  49  57  64  68  69  65  76  86  89  90  89  90  94  97 101 103 105 110 112 115 148 180 182 183 182 183 182 181 183 182 183 182 182 180 182 181 182 181 179 179 179 179
 192 191 191 191 192 192 191 193 193 194 194 195 195 196 195 195 193 194 195 194 194 195 194 194 192 182 131 122 119 118 110 116 116 119 120 110  99 101  97  87  80  81  78  75  70  66  59  55  56  61  68  76  81  74  73  78  89  94  93  93  91  91  93  98 102 105 109 109 111 124 174 182 183 181 181 182 182 182 183 182 181 183 182 180 181 180 180 181 179 179 179 178
 190 191 192 191 190 192 192 192 193 193 194 197 194 195 195 196 195 193 192 194 194 193 194 195 194 190 162 124 123 123 120 119 118 118 120 118 106 100  97  90  86  83  81  77  74  72  68  66  68  75  81  82  77  74  80  87  96  96  94  96  95  93  94 101 102 105 106 109 112 159 180 181 184 183 181 182 183 182 182 182 181 181 180 180 181 180 180 180 179 180 179 179
 192 191 191 190 191 191 191 193 192 193 194 195 195 194 195 196 194 194 192 194 193 193 194 195 194 192 181 130 122 122 122 120 119 120 122 120 114 101  93  89  87  84  80  75  76  77  76  73  73  76  76  74  74  78  88  94  98 100  96  98  96  96  98 103 103 106 106 108 131 177 182 184 183 181 181 183 183 182 182 182 180 181 182 181 180 180 179 179 179 178 178 178
 190 190 191 191 191 192 191 191 191 193 195 195 194 195 195 195 192 192 193 193 191 192 192 195 193 193 182 144 125 123 121 121 120 119 121 120 117 110 102  90  86  81  78  74  75  75  74  73  74  73  73  74  80  89  93  98  98  96  98  97  94  96 100 105 105 106 106 108 164 178 182 184 182 182 181 183 183 182 182 182 181 180 182 180 180 181 179 178 180 179 180 179
 191 189 191 192 191 191 191 193 192 193 193 194 194 195 194 195 192 192 192 193 192 193 192 194 193 189 182 153 129 121 122 123 124 122 119 119 116 111 105 100  93  88  84  81  77  74  73  71  72  74  76  83  88  90  94  95  97  94  96  97  98 100 102 104 104 105 106 120 167 181 183 182 181 183 183 182 183 182 182 182 182 180 180 180 180 182 180 179 179 179 179 177
 191 189 189 190 190 192 190 192 192 191 193 195 193 194 194 194 193 192 191 191 191 192 189 192 192 191 183 154 136 121 123 122 125 124 123 119 116 111 107  99  95  91  91  89  86  83  80  80  81  85  87  88  88  90  93  93  94  95  96  98 100 100 100 104 103 102 106 126 171 181 181 181 182 181 182 183 182 182 182 182 183 181 180 181 180 180 181 177 179 179 177 177
 190 189 190 190 190 191 191 191 192 192 193 194 194 193 193 192 191 192 191 191 191 191 190 192 190 191 179 156 141 128 119 120 124 124 123 120 116 112 105  99  93  87  85  82  79  76  79  83  86  87  87  87  90  91  92  93  95  95  96  98 102 104 102 103 100 105 112 128 173 183 182 182 182 182 180 182 181 181 181 182 181 179 180 181 180 180 181 180 178 177 177 178
 188 187 190 190 191 190 190 192 191 191 192 191 193 192 193 192 191 190 191 190 190 191 190 189 188 124 122 155 144 135 120 119 120 123 120 119 116 113 107  98  91  86  79  77  75  74  75  77  81  83  85  86  88  91  91  93  96  97  98 100 102 103 102  99 102 109 113 129 174 182 182 182 181 180 181 182 181 181 181 181 181 180 180 178 178 179 180 181 180 179 179 179
 189 187 187 188 188 189 189 190 190 191 192 192 190 191 193 192 191 190 190 190 190 188 186 163 132  63 117 154 144 135 126 119 121 121 123 119 119 115 111 105  97  90  82  78  75  72  71  73  76  80  82  84  87  91  93  96  98  98  98  99 100 101 100  99 106 109 114 133 177 181 182 182 181 182 181 181 181 182 180 180 179 180 179 179 179 180 178 179 178 178 177 177
 189 187 187 188 189 190 189 190 190 192 192 191 189 191 191 191 189 188 190 185 165 144 125 119 107 142 182 154 143 135 128 119 116 118 120 120 120 113 111 105  99  93  90  86  81  77  74  76  78  77  79  85  88  92  95  94  98 101 100  96  96  96  96 102 108 110 115 134 177 181 182 181 182 182 182 181 181 181 181 180 180 179 181 180 178 179 179 180 179 179 177 177
 188 187 187 187 187 187 189 189 189 190 190 189 190 193 190 188 186 166 139 119 116 114 114 112 151 213 183 152 141 134 128 120 116 116 118 116 116 113 110 106  97  92  90  91  88  84  79  79  81  79  82  89  92  94  97  97 100 100  96  95  94  92  96 104 107 110 113 136 176 180 182 181 180 180 181 180 179 181 180 178 178 179 180 179 179 178 177 180 180 178 177 178
 187 186 186 187 187 188 188 189 189 189 188 190 190 189 190 172 139 119 113 114 107 107 105 107 212 217 180 149 141 134 128 120 114 111 115 118 115 114 110 106  95  92  93  92  90  87  84  86  85  87  87  91  94  97  99  99 101  98  95  92  87  92  99 103 106 108 113 134 169 160 166 179 179 180 180 179 179 181 180 179 180 178 179 178 180 178 178 178 179 176 176 178
 186 186 187 185 186 186 188 187 188 188 189 190 189 173 130 114 110 112 109 112 102  98  97 131 217 212 166 147 141 131 124 116 113 111 113 116 114 110 107 102  96  93  92  90  89  88  86  86  88  90  90  92  92  94  99  97  96  97  90  87  89  94  99 102 105 109 111 120 119  93  77  75 128 175 181 182 181 180 180 179 180 179 179 178 180 178 178 178 179 178 178 178
 185 185 185 185 186 186 185 187 186 186 184 167 141 117 111 108 105 108 108 103  95  93  95 147 212 212 164 146 138 130 122 115 113 112 108 106 108 108 104  97  94  92  89  90  89  88  88  87  88  90  92  92  92  94  95  94  93  92  85  85  90  96  98 101 103 106 110 116 120 120 108  81  68 116 164 177 179 178 179 179 178 178 179 177 178 177 179 177 177 177 177 177
 185 185 185 185 186 185 185 183 183 155 128 116 113 108 105 103 102 100 105  94  89  86  95 160 209 199 162 146 134 128 119 117 112 114 113 105 102 106 104  96  93  89  87  88  90  90  89  88  88  87  89  91  93  93  93  90  88  81  85  90  95  97  99  99 105 107 111 115 119 121 121 119  88  65  81 118 137 166 176 177 177 176 177 177 178 178 178 177 176 177 176 176
 183 184 186 184 184 180 162 144 122 114 111 108 107 104  99  96  98  95  97  88  84  84  94 168 207 190 161 143 134 125 117 117 116 115 115 113 100 100  98  93  88  88  85  86  90  88  86  85  85  83  86  86  88  90  88  82  81  84  87  92  97  99  96 101 103 105 110 115 121 122 122 122 116  67  59  71  73  82 124 168 176 177 176 176 177 177 177 178 177 176 176 177
 183 184 180 161 133 118 109 107 102 106 104 101  99  98  91  92  91  89  89  83  80  84  91 174 202 180 157 141 132 122 118 115 116 115 116 117 107  98  97  92  88  86  87  87  89  89  87  86  86  83  83  84  86  84  80  79  82  88  93  97  99  98  98 101 104 106 110 115 121 124 122 124 119  85  49  53  52  64  76  78 117 161 176 175 176 178 177 177 176 176 177 176
 171 139 113 105 107 100 100 100 103 101 100  93  93  93  86  86  85  87  82  81  80  81  91 174 196 172 152 138 131 122 118 116 115 116 116 117 113 108  96  92  87  87  88  88  89  90  90  85  84  83  81  82  80  77  78  83  89  92  99 101 100  99 100  99 103 106 109 113 121 124 124 123 118  96  50  47  43  49  61  68  70  74 109 159 176 176 177 177 176 175 176 176
 100  97 104 104  91  89  96  99  97  92  90  88  88  89  81  81  75  86  76  76  78  76  90 173 187 166 149 138 130 121 120 117 116 118 119 118 113 115 109  96  89  89  90  90  86  88  90  87  84  83  79  76  77  81  84  86  94  96 100 103 101 101  98 101 102 105 108 111 117 123 123 123 122  92  47  41  40  44  53  56  60  64  62  70 120 175 175 176 178 179 176 177
  96 100  95  84  87  92  96  95  86  88  84  82  89  80  76  77  71  82  71  78  77  75  83 160 178 159 143 134 127 123 119 116 117 120 122 120 119 117 116 113 105  98  92  90  89  86  84  84  81  82  82  83  83  84  89  93  97 100 104 105 105 101  96 102 104 104 108 110 115 121 121 122 119  79  43  39  38  43  49  51  50  55  58  55  55  87 157 174 176 176 178 177
 100  89  81  81  87  87  93  86  80  82  79  80  87  72  70  74  69  82  68  77  76  74  80 141 168 151 137 131 122 123 121 117 118 119 122 126 120 120 115 114 110 106  98  95  93  93  90  90  88  87  86  88  88  89  92  96 102 107 105 104 105  99  98 101 101 104 109 109 113 118 122 122 115  62  41  36  35  42  47  50  44  44  54  55  52  51  61 134 174 175 177 176
  85  78  74  82  87  86  83  77  82  79  79  83  85  73  69  70  68  78  66  73  75  75  75 113 158 146 134 127 123 122 119 118 117 120 122 126 122 117 117 116 112 108 104  97  96  95  94  91  91  90  88  89  88  90  97  99  99 107 105 105 105  99  99 101 103 105 106 109 111 115 119 118 101  44  39  36  34  39  48  47  41  38  42  54  52  49  48  53  90 156 177 176
  73  73  77  86  86  86  74  75  78  76  78  85  83  68  66  67  74  80  61  67  70  72  73  88 148 139 130 124 120 121 120 118 117 122 121 126 123 119 117 115 112 110 106  99  96  95  94  92  93  91  89  88  89  96 100 102 103 105 105 105 100  96  98 100 102 104 105 108 109 113 114 115  80  42  37  34  35  37  47  44  42  38  33  47  51  51  46  42  48  65 112 162
