P2
# Generated by OpenCV 3.4.0
92 112
255
  83  84  85  86  87  88  88  88  89  89  92  92  92  90  92  93  93  92  92  94  93  95  95  96  94  95  97  95  96  98  94  98  96  96 100 101 101 102  98  98  97  96  98 100  99  99  97  98  96  98  97 100  98  98  98  99  97  99  97  99  97  96  98  98  96  95  98  97  96  96  97  97  97  97  97  96  96  96  94  94  97  96  95  94  94  94  94  94  95  95  95  93
  85  86  88  88  86  89  90  88  90  90  92  93  92  91  93  92  95  94  94  94  94  95  95  96  97  96  97  97  97  97  96  97  97  96 100 100  99 101 101  99  98  98  98  99 102 100 100 102 103 103 105 104 100  98  98  98  98  97  99  98  96  99  99 100  96  96  98  98  96  96  97  97  96  97  97  96  94  95  94  94  95  96  94  95  95  96  95  94  95  94  93  96
  86  86  87  86  88  90  89  89  90  90  91  93  92  92  91  93  96  95  93  94  95  95  97  97  97  97  97  96  96  96  98  98  96  97  99  98  99 100 101 102 102 100 103 104 101 102 105 108 108 103 100 100 101  99  99  97  98 100 102 100  98  98  97  99  98  98  99  96  96  98  96  98  97  98  96  95  96  96  96  96  95  95  95  94  95  95  95  95  96  94  95  96
  86  87  86  87  87  90  90  91  91  90  91  92  92  92  92  94  94  94  95  96  97  96  96  96  97  97  96  96  97  98  96  98  97  97  98  99  99 100 101 101 102 108 110 109 111 109 112 110 104 102 102 101 101 100 103 105 106 103  99 100  99 100  97  98  99 100  98  98  98  97  98  96  96  98  97  97  97  96  96  95  98  95  95  96  94  96  96  97  95  95  94  95
  86  86  88  88  90  89  90  92  91  91  92  92  93  93  94  95  94  95  96  94  96  97  97  96  97  97  99  98  99  97  98  96  97 101 101 102 106 106 108 105 109 114 121 120 123 132 124 110 106 105 106 113 114 114 111 106 101  96  97  96 100  95  94  96  96  97  97  97  97  99  98  98  98 100  99  99  98  97  98  95  97  99  97  97  96  96  96  96  95  94  96  95
  86  87  89  89  87  90  90  91  91  92  94  92  94  93  96  95  95  95  95  94  98  96  98  98  98  98  98  99  98  98  99  95 100 103 103 100 105 108 101  98  97  97 102 113 127 128 127 132 138 144 127 118 106 100  86  76  74  76  77  78  80  81  84  82  87  91  93  96  96  99  98  99  97  98  99  98  98  97  97  95  98  98  97  98  98  95  96  96  99  96  95  95
  87  88  89  91  90  90  91  92  92  91  92  94  94  94  96  94  95  97  96  98  96  96  97  97  99 100  98 101 101  99  97  94  98  95  97 102 104  91  94 100 100 110 112 129 147 144 138 132 129 120 112 109  97  81  69  67  62  64  68  70  67  68  69  65  65  62  68  79  89  96  97  98 100  98  98 100 100  98  98  98  98  98  98  97  98  97  96  99  97  97  95  95
  90  89  89  90  89  91  91  92  92  92  93  94  94  93  93  95  97  96  97  97  97  98  98 101  98  98 102 103 101 100 100  94 101 100  98  97  94  84  94  98 105 122 142 151 135 122 119 125 132 127 115  96  81  74  71  69  65  63  62  62  65  64  62  63  65  63  63  62  68  80  90  98 100 100  98 100 100 100  99  99  97  97  98  97  98  98  98  96  97  97  98  98
  89  88  90  90  91  90  91  93  93  94  92  94  94  96  94  96  96  96  96  96  97  98  98  99  98 103 104 100 100 107 108  94 104 110 105  96  84  81  90 109 134 152 148 130 126 139 162 163 146 136 104  96  86  76  69  63  56  54  53  51  52  50  52  53  56  61  61  62  64  73  78  91  96  99  98  98  99  99  99  97  98  96  97  96  96  97  99  98  97  97  96  94
  90  89  90  90  90  91  91  92  93  94  93  94  95  94  97  95  97  95  97  98  99  98  98  98 110 105 101 106 117 130 126  97 114 110  95  81  76  75  93 132 150 138 119 101 111 146 153 137 125 101  87  78  71  65  68  59  55  50  50  46  44  42  42  46  49  53  55  60  63  68  71  78  89  96  99 100  98  98  99 100 100  98  97  97  97 100  98  99  99  96  97  96
  90  91  91  92  90  91  91  94  91  92  94  98  96  96  99  96  97  96  98  99  97 100 100 102 106 107 120 115 119 118 126 103 104 101  81  73  73  87 103 113 102  83  80  83 110 113 110  88  55  56  64  75  76  72  65  56  52  46  44  43  40  40  41  41  44  48  53  58  61  66  67  67  76  88  98  99  99  98 100 100  99  98 100  99  98  99  97  99  99  98  97  97
  90  90  91  92  90  91  93  93  92  93  96  98  96  96  98  97  97  97  98  99  98  99 100 102 117 123  97 114 134 137 133 112  94  91  68  62  74  77  90  86  70  70  67  78  87  79  53  31  38  48  59  68  68  63  54  45  41  37  37  32  32  34  33  33  33  36  40  45  49  60  65  66  67  68  81  95  99 100 100  99  99 100 100  99  98  99  99  99  99  98  97  98
  91  91  90  91  92  92  93  93  95  94  95  97  96  97  98  98  98  97  98  99  98  99 100 110 121 108 119 134 152 159 140 112  82  68  61  66  70  72  70  57  48  51  54  57  60  37  28  29  34  39  44  49  53  52  49  43  35  34  32  32  32  33  32  34  34  34  37  40  42  45  50  54  64  61  62  78  94  99  99 100  98  99  98  98  99  98  98  98  99  97  99  98
  91  91  92  94  93  93  94  96  95  95  96  96  97  98  97  98  99  99  98  98  99  98 101 114 113 113 138 160 177 158 124 108  89  74  70  70  70  64  53  47  46  51  49  44  29  20  22  24  23  30  40  58  62  53  50  54  49  41  36  36  36  36  37  36  34  36  37  41  45  46  47  51  50  54  60  63  81  94  98  98 100 100  99  99  99  98  99  98  98  98  99  98
  91  92  93  93  94  93  94  95  95  98  96  97  97  98  98  98 100  98  99  99 100  99 103 117 114 139 162 161 154 143 136 124  92  74  69  68  59  53  46  43  47  43  36  28  21  21  22  25  34  44  51  49  57  69  71  59  48  47  44  35  35  36  37  37  38  37  39  39  40  44  45  48  50  49  53  60  64  87  96 100 101 100  99  98  99  98  99  99  99  99  99  97
  92  92  93  92  92  93  95  95  97  96  97  96  97  98  97  98  99  99  98 100 101 105 117 121 139 151 158 161 155 150 143 108  83  72  63  54  52  44  41  39  41  35  29  22  21  20  23  26  32  40  43  50  56  65  66  57  47  44  37  34  34  35  36  37  40  40  43  46  47  51  49  45  45  45  48  50  54  70  89  98  99 100 100  99  99  99 101  99  99 100  97  98
  92  94  94  93  94  94  96  96  96  98  97  97  97  96  98 100  99 100 101 102 110 114 112 125 149 148 141 138 145 153 132 114 102  77  61  54  48  42  43  37  36  31  24  24  18  19  22  25  26  28  33  39  46  50  47  40  35  29  28  27  26  30  29  27  25  26  28  31  35  37  39  38  41  43  44  44  49  60  81  95 100  99 101  99 100  98  99 101  98  97  98  97
  93  95  94  94  95  97  96  97  98  98  98  97 100  99  98 100 100 103 105 111 111 106 110 115 112 109 104 125 159 154 149 138  99  76  56  48  43  38  40  36  34  30  26  21  17  20  21  20  21  24  25  26  24  25  24  19  18  20  21  22  26  26  24  23  24  27  29  30  33  35  32  31  29  32  33  37  45  49  71  90  98  98  98  98  97  99  98  99  97  95  96  94
  91  92  93  95  95  96  96  97  98  97  97  99  99  98  98 100 100 101 102 102  98  98  96  90  87  91 108 128 141 160 163 135  94  60  48  41  37  38  38  36  33  29  25  22  20  20  21  22  21  22  24  25  24  23  25  24  26  28  25  22  19  19  20  23  24  23  22  25  28  32  36  37  37  36  37  40  46  50  52  75  91  93  95  94  96  96  94  95  95  92  92  89
  93  96  94  94  96  96  97  97  98  98  99  99  98 100 100  99 101 101  98  97  88  87  81  86  85  92 108 130 146 158 142 103  82  60  46  43  38  39  38  39  37  34  34  32  32  30  30  28  28  28  28  27  29  30  32  31  30  26  23  22  21  23  23  23  21  19  17  19  21  25  33  44  49  46  47  54  54  55  52  51  78  87  90  91  92  90  90  91  91  91  93  91
  92  95  95  96  96  97  96  96  97  98  99 100 100 101 100 101 100  98  99  90  83  74  75  82  84  92 108 115 122 108 107  98  68  49  43  48  43  42  45  49  47  45  42  40  36  35  37  36  35  33  36  36  34  33  29  25  23  25  24  25  22  22  19  20  18  20  20  20  21  24  25  30  41  51  54  53  59  61  55  48  52  85 100 103 105 108 109 110 110 113 115 116
  94  92  95  98  96  98  98  97  98  98  97  98  99 100 100  99 100  96  93  86  81  73  75  71  88  90  93  85  74  95 101  61  38  39  49  50  49  52  58  62  62  61  56  50  45  42  44  44  40  36  33  33  31  29  27  26  24  23  22  23  23  23  22  21  21  22  24  22  24  26  28  29  32  41  49  51  52  52  55  54  50  54 108 121 121 121 122 123 124 125 123 123
  92  92  94  96  96  96  96  96  97  97  97  98  97  99  98  97  97  99  87  76  72  69  72  80  80  74  64  58  72  79  62  42  43  49  53  58  65  68  77  75  76  75  72  65  57  52  48  45  39  37  34  32  31  30  27  25  24  23  23  24  24  25  25  26  25  25  22  21  24  28  26  27  28  33  42  48  48  49  50  51  52  50  76 119 124 124 127 124 123 125 125 126
  92  92  92  92  93  94  94  97  93  94  94  93  92  94  93  92  90  89  81  69  71  73  72  67  66  60  57  60  64  56  47  49  51  57  65  72  76  81  85  85  87  81  79  71  65  62  55  51  48  43  37  34  34  33  30  28  26  24  26  26  26  26  26  26  26  27  29  30  29  29  29  29  27  28  32  42  45  47  47  46  49  51  54 105 124 125 127 126 126 124 125 124
  86  85  87  87  88  88  89  89  89  89  92  91  92  93  95  96  97  90  82  69  69  66  61  62  55  56  59  50  48  45  48  53  62  71  77  84  89  93  91  91  90  86  84  80  72  68  66  62  55  50  47  42  41  37  34  32  31  29  27  27  30  28  26  28  28  30  30  31  32  35  35  32  29  28  27  32  38  43  43  42  43  45  51  73 120 125 126 126 124 124 124 125
  98  99 103 104 105 109 108 109 112 114 115 115 117 118 121 120 118 104  85  76  70  61  59  54  53  56  50  43  42  47  54  63  72  82  91  99 102 101  96  94  94  91  87  86  80  75  69  67  62  57  54  50  46  45  42  38  33  33  29  28  30  30  30  31  30  32  31  31  30  33  36  37  35  32  29  28  32  36  43  44  38  38  43  54 102 124 124 126 127 125 125 125
 116 117 118 120 119 119 120 121 122 122 123 124 122 124 125 123 123 111  84  74  69  60  54  55  51  39  39  40  42  53  66  78  86  95 106 112 110 107 104 100  96  95  92  88  84  79  74  72  68  64  62  58  51  51  49  48  41  37  34  31  31  33  34  35  33  35  34  34  33  36  33  30  33  34  34  30  30  29  35  43  44  40  38  41  57 118 124 126 126 125 127 126
 120 120 120 122 121 122 122 122 123 123 123 127 126 125 127 125 124 114  79  68  62  54  53  45  38  37  44  44  52  66  82  91  99 110 119 117 114 111 107 102  99 100  95  90  87  84  80  78  73  70  68  65  60  55  54  51  47  43  39  36  35  35  36  37  37  40  41  37  35  34  33  29  26  27  28  30  29  28  30  36  44  42  41  41  46  80 123 126 128 127 128 127
 120 121 121 120 123 123 124 124 123 123 126 125 124 127 126 126 127 120  89  62  51  40  38  40  37  41  47  50  64  83  95 105 114 121 121 120 118 116 110 104 100 100  97  94  89  87  85  80  75  74  74  70  68  63  57  56  55  50  46  41  39  38  36  38  40  41  42  40  40  37  35  30  27  24  24  25  26  23  25  29  34  38  41  41  46  62 111 126 127 126 126 126
 121 120 123 122 124 122 123 124 126 125 127 127 127 126 126 127 126 123  86  55  42  37  39  40  39  46  53  63  82  94 108 115 124 126 125 123 124 122 115 106 101 101 101  97  92  91  90  86  84  78  78  75  73  73  67  62  59  58  56  54  50  43  41  40  37  40  42  44  44  40  37  33  27  25  23  23  24  26  24  25  26  32  36  42  51  69 105 122 125 124 126 127
 122 122 122 122 123 124 124 125 125 126 127 128 127 127 127 126 127 126  90  54  39  36  40  40  42  52  64  80  93 106 118 124 132 128 125 125 127 125 115 109 107 105 103  98  94  93  93  90  86  84  82  79  78  77  76  72  67  67  67  66  61  58  54  53  51  49  49  50  49  49  47  45  35  28  25  22  20  22  24  25  26  28  33  41  46  55  72  86 102 125 127 128
 122 122 123 123 125 126 126 124 126 127 127 128 128 128 129 126 127 127  99  56  41  39  38  43  46  58  77  96 108 117 126 133 134 134 130 131 132 128 120 111 109 107 104 100 100  98  97  94  90  87  86  84  80  79  78  77  77  75  75  76  73  69  67  68  70  69  68  65  63  65  66  61  53  35  27  23  21  21  21  23  25  27  30  35  43  46  52  55 100 126 128 126
 122 123 123 123 123 125 125 126 129 127 127 128 127 128 127 127 130 128 102  58  45  37  39  43  49  71  98 112 117 127 135 140 140 138 134 136 137 131 123 116 111 109 107 105 102 101 101  99  93  87  88  87  85  86  84  84  85  83  81  83  84  82  81  78  77  76  76  75  74  77  80  79  76  53  35  27  23  22  22  22  21  23  26  30  34  41  53  95 121 126 129 128
 123 121 122 124 124 126 126 126 128 128 129 128 127 128 128 128 129 128 109  57  43  39  39  43  54  90 113 122 123 134 136 142 142 140 142 143 138 131 125 122 116 111 108 105 103 102 102 103  96  90  92  90  89  91  87  88  88  88  88  91  93  88  86  85  86  84  82  83  83  84  85  87  86  71  47  32  27  24  23  24  23  20  24  28  31  47  89 110 123 129 128 128
 123 123 123 123 125 127 127 127 127 128 130 127 128 129 129 130 131 131 117  68  40  39  39  46  69 106 122 126 128 137 138 146 144 147 149 147 143 136 130 126 121 115 111 107 104 105 106 106 102  96  93  92  95  96  96  94  93  95  94 102 103  95  92  91  89  88  88  91  90  91  92  94  93  82  60  41  30  25  25  26  27  24  25  24  28  44 106 123 126 126 129 129
 125 125 126 123 123 128 127 127 128 128 129 128 129 131 129 130 130 130 117  68  45  37  40  51  93 117 126 128 133 142 148 151 153 153 151 148 142 137 131 127 127 117 111 107 106 107 110 113 110 101  97  99 100 102 102 104 104 101 101 108 103 101  98  96  97  95  96 100 100 101 104 101  97  86  68  51  35  28  24  26  27  25  27  29  28  34  68 115 126 126 127 130
 124 124 125 125 127 128 129 129 128 129 129 129 129 130 130 133 132 129 100  52  46  39  43  62 106 124 130 134 141 147 152 155 155 151 147 144 140 135 129 125 126 119 111 109 110 112 115 117 112 106 101 104 106 108 106 108 107 106 105 108 105 107 106 106 106 104 105 104 105 107 110 108 100  90  73  55  40  32  29  28  28  27  29  32  34  31  38  85 114 121 125 129
 125 126 128 128 129 128 128 128 131 131 132 129 131 130 133 136 136 131  79  50  37  44  52  82 115 129 133 141 148 154 152 151 152 145 142 138 136 130 123 124 123 116 108 113 114 114 120 123 115 106 101 105 106 106 106 106 104 103 104 105 106 109 109 110 112 111 111 112 112 111 112 110 104  94  79  60  46  35  30  27  28  29  29  33  47  48  39  57  83 102 117 124
 126 128 129 129 128 129 132 130 131 133 133 134 134 135 136 138 136 126  73  46  37  48  62 101 125 134 141 148 155 154 152 147 142 138 133 131 133 127 121 120 119 108 103 117 116 112 124 120 112 105 101 104 103 100 101 101 100  99  99 101 103 106 109 111 114 118 117 116 116 114 116 114 107 100  83  61  49  38  33  31  28  28  29  32  46  88  82  87 107 114 125 130
 128 129 132 130 130 133 131 133 132 134 134 136 136 136 137 139 138 120  75  42  38  53  68 122 136 139 146 152 155 148 143 140 135 129 128 128 126 122 114 114 110 102  99 117 117 112 121 118 112 104 104 100  99  98  99 101 100  95  95  96  98 103 109 111 117 119 119 120 118 116 116 115 111 106  89  68  52  41  34  32  30  29  27  30  38  72 117 122 131 132 130 132
 131 131 133 134 135 134 135 135 135 137 136 137 136 138 138 138 135 114  78  39  40  54  71 137 144 145 152 156 150 140 135 135 132 124 123 121 124 120 109 110 106  97  96 120 112 105 113 114 112 106 104  95  94  95  98  98  98  95  93  94  96 100 107 111 113 116 120 121 118 118 117 116 112 109  95  72  54  44  37  33  32  29  27  26  32  50 109 128 135 135 134 133
 134 134 134 136 135 136 137 137 138 138 138 138 139 140 140 138 136 109  78  41  39  57  83 146 148 153 154 156 147 138 134 132 126 123 120 115 124 111 103 103 101  94  89 120 102  97 107 108 108 102 100  92  90  90  95  98  97  91  90  91  95  99 104 108 111 116 118 120 118 120 119 114 115 110 100  77  57  45  38  36  35  33  29  26  32  35  84 124 135 134 136 136
 136 136 135 137 137 138 140 138 140 140 141 141 143 143 143 140 136 114  84  47  42  57  97 154 158 162 160 156 145 131 125 123 122 118 111 111 108  96  91  95  94  88  88 113  97  87  98 100  99  99  94  91  87  85  91  97  95  92  90  91  94  95 101 105 110 116 120 121 119 119 119 116 116 112 104  85  62  47  39  35  35  33  31  29  33  45  77 126 134 135 136 136
 138 140 139 139 141 142 142 143 142 143 144 143 145 145 144 144 141 125  91  54  44  59 110 163 168 165 158 142 123 113 107 101  94  83  78  79  75  74  78  84  86  82  85 109  92  82  90  91  91  93  86  86  85  84  87  90  97  91  90  93  95  97 103 107 111 116 121 122 122 121 118 118 114 115 111  91  67  50  42  34  32  33  32  30  35  52 103 130 136 137 137 136
 142 142 142 143 144 143 144 145 146 145 145 147 146 148 147 147 144 136  98  59  45  58 127 169 161 145 125 104  91  84  75  67  59  52  49  52  52  55  67  73  79  73  80 102  90  77  84  82  78  76  75  75  68  69  70  73  80  82  77  84  88  92  97 103 110 112 117 120 121 120 119 119 118 119 115  98  72  52  41  35  32  32  32  34  40  62 104 132 137 139 138 138
 144 144 145 144 144 146 147 147 149 148 146 148 148 148 149 150 148 145 114  62  45  54 130 136 119 103  90  75  64  59  53  49  48  46  44  43  46  48  55  64  71  69  77  97  89  71  75  78  66  61  57  59  53  48  44  45  51  54  55  60  63  72  76  85  90  98 106 112 119 123 120 119 119 119 117 104  77  52  41  35  32  32  33  38  44  64 118 133 139 140 140 140
 146 145 146 147 147 147 149 147 148 148 150 150 149 150 151 151 152 151 127  59  47  56 120 108  93  84  75  65  58  52  48  44  44  45  45  44  44  49  53  61  68  67  78  92  87  72  64  70  63  55  47  49  47  40  36  32  31  35  38  42  47  49  54  62  67  69  78  88  96 102 108 118 118 119 118 109  84  50  41  31  33  33  34  44  49  56 113 135 140 141 142 141
 147 148 149 149 151 150 152 149 152 152 153 153 152 151 154 153 152 153 142  70  58  61 124 112 106  98  92  87  82  79  75  72  68  63  58  56  57  55  55  63  73  74  87  98  90  78  63  59  63  55  48  47  44  39  37  33  32  32  34  35  37  38  46  51  55  60  64  67  70  77  86  98 113 120 120 114  94  52  40  35  32  33  37  44  43  58 115 139 142 142 143 143
 150 152 150 152 153 153 154 153 154 153 154 155 154 153 154 154 156 156 149  83  71  72 136 120 122 120 115 108 102  95  89  84  78  76  75  77  77  76  75  73  77  82  94 100  91  83  73  66  63  61  54  52  49  42  41  41  42  43  43  41  40  44  45  50  53  56  64  68  67  71  73  83  99 116 120 117  98  55  41  32  29  33  36  42  47  67 123 143 145 144 143 145
 152 153 151 153 153 155 155 156 156 155 154 155 156 156 155 156 158 158 148  93  78  89 140 130 131 125 116 106  97  86  74  65  60  55  55  65  76  77  76  80  85  90 101 101  92  83  79  75  65  65  63  59  57  56  56  56  57  61  60  61  63  67  66  68  69  71  74  79  80  76  77  76  88 109 119 120 104  59  38  33  30  30  34  42  50  68 125 143 146 146 146 145
 156 154 155 155 156 156 157 157 157 159 158 158 160 159 160 161 161 161 155 132 129 114 143 130 128 119  99  75  56  48  39  33  34  37  47  52  59  68  72  77  82  94 110 113 102  90  84  76  69  67  62  57  55  55  50  41  39  44  41  44  47  58  69  76  82  85  88  92  95  90  87  86  93 105 118 121 110  63  40  32  33  35  34  37  48  73 128 144 148 148 148 147
 158 156 159 160 160 158 159 161 160 160 161 161 161 161 163 161 162 162 161 162 158 119 141 129 119  90  62  50  73  72  36  29  26  31  40  50  53  59  66  73  82  94 116 116 108 100  90  77  67  63  59  56  52  49  41  41  44  43  46  41  28  26  25  34  51  68  88  94 100 102  99  94  96 106 116 122 115  72  42  34  33  37  33  33  47  78 132 147 149 150 149 148
 158 159 160 161 160 161 162 161 162 162 162 163 163 164 164 164 164 161 163 173 181 114 140 123 102  70  52  87 108  66  36  27  23  28  34  54  49  54  63  70  84 101 122 118 114 106  96  83  67  62  60  58  48  46  45  43  45  50  56  35  27  21  20  26  38  39  51  77  93 101 102  96 100 109 118 123 119  78  43  36  35  34  36  36  47  69 127 147 151 152 151 150
 161 162 162 162 162 163 163 164 164 164 164 165 165 165 166 166 166 166 164 159 139 111 140 118  92  69  70 108 111  71  41  33  27  31  38  54  48  44  59  78  91 115 127 126 122 114 102  90  74  60  54  53  51  49  41  42  48  54  56  32  29  21  25  33  45  72  49  51  70  88  98  96 101 107 117 122 120  86  43  35  37  32  37  37  44  70 111 138 151 152 152 152
 162 163 164 165 165 163 166 166 166 165 166 166 167 166 167 167 167 167 166 159 111 104 142 118  98  92  85 100 118 112  55  39  35  34  42  48  45  51  71  86 103 135 145 141 134 126 114  97  81  63  54  52  51  39  37  37  44  52  58  41  30  25  30  40  63  85  62  46  53  64  82  90  97 103 117 120 121  94  46  37  35  36  40  44  61  87  92 114 148 152 153 153
 163 165 165 166 167 166 167 168 168 166 167 168 168 169 170 168 169 168 166 160  95 108 149 125 107 101 103  94 100 105  91  65  58  56  56  56  61  73  83  96 125 151 163 156 148 140 126 107  85  71  56  51  51  48  44  38  42  44  50  55  43  34  38  61  86  72  53  51  52  63  69  80  92 102 115 120 121 100  49  36  37  40  45  56  81  80  78  96 143 152 154 155
 166 167 167 168 167 169 168 169 169 169 169 168 170 169 169 169 169 170 170 167 120 115 161 139 123 121 113 105  99  97  90  85  76  72  70  72  72  81  94 113 138 166 177 171 160 147 137 120  97  82  71  56  48  46  46  45  44  48  50  50  52  55  60  63  60  59  63  67  61  63  68  76  88 100 114 120 123 108  50  38  38  49  62  82  83  69  71  88 137 154 155 156
 168 167 167 170 169 170 171 170 170 171 170 170 172 170 172 172 172 172 172 177 128 129 178 166 149 140 130 120 113 104  96  90  85  84  81  82  87  98 112 127 153 176 192 181 165 151 140 128 110  91  81  70  57  48  48  48  48  49  50  54  56  58  62  64  67  75  78  79  78  73  73  79  89 102 112 119 123 116  55  37  40  57  77  85  87  68  65  77 129 155 159 158
 170 170 171 172 171 171 171 172 171 171 171 172 173 172 174 173 175 174 174 162 110 138 190 189 172 152 137 127 121 112 104  98  93  89  88  92 104 115 122 141 166 185 198 188 167 150 141 130 118 101  87  82  75  60  53  52  52  51  54  56  60  65  70  75  79  85  89  92  95  95  90  91  97 107 115 122 125 117  63  39  41  57  68  83  90  71  60  69 123 156 159 159
 172 171 171 173 174 173 173 173 173 174 174 174 175 175 176 175 175 175 175 143 106 146 197 205 190 170 149 137 127 118 111 104  96  94  96 105 118 124 130 154 178 199 198 187 167 149 139 130 122 108  96  86  83  77  65  57  56  56  58  61  64  70  74  79  88  97 104 107 108 107 105 104 108 113 118 123 123 118  69  41  47  57  65  79  89  76  65  73 130 158 161 160
 174 173 174 173 173 176 175 175 174 174 175 175 175 176 176 176 176 177 174 140 118 163 201 208 200 182 165 147 132 122 112 105 100 103 110 118 124 126 135 166 187 201 195 178 163 148 139 128 123 112 100  90  84  85  80  68  62  62  64  66  69  76  82  88  95 103 110 112 114 115 115 116 115 117 120 122 125 119  71  46  48  65  78  83  92  84  68  79 135 160 162 161
 174 174 175 174 174 176 176 175 176 176 177 175 177 178 178 178 179 180 178 152 135 167 199 204 202 189 172 155 136 123 112 109 109 114 116 122 126 128 148 176 184 189 183 170 155 145 140 131 122 117 104  94  88  88  85  82  74  67  66  70  75  82  92  98 105 109 112 117 119 120 120 121 121 121 123 125 124 118  74  50  49  67  89  88  96  96  70  87 149 162 163 163
 175 176 177 176 177 178 178 177 179 178 178 179 180 180 182 181 180 180 182 170 135 158 189 194 191 183 170 155 138 129 120 115 116 117 118 123 126 133 172 183 184 185 173 161 150 142 139 134 124 118 108 102  91  92  88  88  89  81  77  77  80  85  92  99 106 114 117 123 123 122 124 124 122 124 124 124 124 114  70  53  49  58  80  87  91 101  73 104 158 165 164 165
 179 178 178 180 180 180 179 181 181 179 180 180 182 181 184 182 182 183 183 177 138 152 182 183 180 175 163 150 138 130 126 122 120 122 118 124 129 144 186 187 191 185 169 161 149 142 136 132 128 121 111 103  98  95  91  93  92  91  90  88  87  90  92  97 103 108 112 120 120 123 125 123 123 125 125 125 122 109  67  57  51  57  74  82  84  95  93 133 164 167 167 166
 181 181 180 181 181 182 182 182 182 182 183 182 183 184 183 183 184 183 184 182 159 149 173 174 170 166 159 148 141 137 133 126 125 124 121 127 132 174 187 191 190 175 162 155 146 140 136 131 128 126 116  99 101  98  94  94  94  93  95  96  94  94  92  97 101 106 109 114 117 120 120 121 124 124 125 124 122 102  64  79  70  59  70  73  74  90 103 150 165 167 167 168
 181 182 183 182 182 182 183 183 184 183 183 185 186 184 183 184 186 185 184 184 180 174 164 164 159 159 154 151 149 148 142 135 128 126 124 126 150 181 188 185 172 151 138 137 131 127 124 120 122 122 119 108  99 100  98  98  98  98 100 101 103 101  99  98 101 105 108 111 113 115 117 119 120 124 121 123 120  94  69 105 106  64  65  61  64  83 116 160 168 168 168 168
 182 184 183 183 183 183 183 184 185 184 186 185 185 187 186 187 187 188 187 186 182 194 160 153 154 153 153 156 154 152 146 139 133 128 125 127 162 168 172 164 147 128 119 116 114 110 111 110 113 117 117 116 105  97  98  98 101 104 104 107 109 108 106 103 105 105 107 112 112 114 116 115 119 121 123 123 119  88  93 109 107  68  61  56  65  85 124 163 169 169 170 170
 184 184 184 184 185 185 186 186 185 185 185 187 189 189 188 186 187 187 187 188 184 165 159 149 150 156 160 160 157 153 148 142 135 128 124 136 158 145 143 136 126 114 109 107 101  98 101 102 104 109 114 116 114  94  92  96  98 103 104 106 109 109 110 109 108 106 105 104 110 110 113 113 120 121 124 124 117  94 108 108  97  68  60  58  71  99 133 166 170 171 171 169
 185 185 185 186 186 184 184 185 185 186 186 188 188 188 188 187 189 189 188 189 194 201 172 146 147 153 157 156 160 157 150 143 134 127 123 148 143 124 122 122 116 108 103 102  98  95  93  93  96 101 102 107 111  96  89  92  97 103 105 104 108 109 110 110 112 110 108 103 105 106 110 112 115 118 122 122 114 110 110  94  81  70  65  79  95 106 146 169 172 173 172 171
 187 186 187 187 186 185 187 187 188 188 188 189 187 188 189 188 189 190 191 190 197 210 180 147 146 152 157 162 160 155 147 141 133 124 119 140 121 104  86 104 114 104  98  97  98  92  68  60  73  94  97 103 108  97  85  89  96 102 104 107 107 109 109 109 110 111 112 105 109 106 110 113 116 117 118 120 116 114  99  75  93 115 105  95 104 116 163 171 173 172 172 171
 188 186 187 186 187 187 188 188 189 188 189 189 188 190 190 190 189 190 192 191 193 188 162 145 147 154 157 161 161 158 152 143 131 123 115 123 107  79  48  42  98 103  98  98  96  65  46  31  28  46  90  99 106  96  84  88  92  96 101 104 106 107 109 112 113 113 112 109 112 109 109 110 112 117 116 122 117 112  83  79 100 120 107  95 104 139 169 172 171 173 174 172
 188 188 188 188 188 189 189 190 189 188 189 190 190 190 191 189 190 191 193 191 192 175 155 146 143 144 153 156 155 156 148 139 126 120 114 114 104  79  62  54  80 108 100 101  94  74  60  47  31  33  68  91  98  92  83  85  90  93  97 100 104 107 109 110 113 112 112 109 108 110 109 109 112 117 117 120 113 108 112 105 108 121 118 110 122 163 172 173 172 172 173 174
 189 188 188 189 187 188 190 189 189 189 189 189 190 190 191 193 194 192 193 192 192 188 160 148 144 140 148 152 150 149 139 132 122 117 119 126 125 101  82  84  99 104  99  94  88  81  74  68  54  52  61  82  88  87  84  86  89  92  96  98 103 106 108 109 112 113 112 112 108 110 110 112 113 116 119 118 110  98 100 102 100 107 115 124 151 170 174 174 174 174 174 174
 189 187 189 190 189 189 189 190 191 190 190 190 191 191 192 192 194 194 195 195 195 193 188 162 145 143 149 151 150 146 136 128 122 128 136 140 135 121  97 100 102 100  93  89  83  76  72  72  67  63  67  77  91  93  90  90  89  92  93  99 101 104 106 110 112 115 112 112 111 109 112 111 113 117 121 118 107  96  93  95  96 101 111 145 171 175 175 174 173 175 174 174
 188 188 190 188 190 190 190 190 190 190 190 192 192 191 193 192 193 193 194 195 195 194 192 176 150 150 150 152 151 144 134 130 129 143 151 151 146 130 107 106 106 102  93  87  86  81  78  74  72  70  77  91  99  98  96  95  92  92  93  96 100 103 107 108 110 114 114 113 110 111 113 113 115 119 121 118 103 101 103 102 104 106 136 170 175 175 174 175 175 175 175 175
 188 190 190 189 190 192 190 191 191 191 190 192 192 192 194 194 194 195 196 195 195 195 194 184 149 151 152 152 148 141 133 136 144 154 157 154 150 138 114 109 106  98  93  87  89  83  82  80  79  81  93 100 101 102 100 100 101  96  91  95 100 104 104 104 111 112 117 116 111 113 115 117 118 119 121 115  97 100 105 104 110 135 169 175 175 176 177 177 175 175 176 175
 190 191 191 190 191 192 190 191 191 191 192 193 193 194 192 194 194 195 196 196 195 195 195 189 156 151 151 148 146 141 139 142 155 159 158 154 151 145 125 114 110  99  90  84  91  86  81  78  85  91  98 103 105 104 101 101 104 101  94  95  99 101 104 105 110 113 113 115 115 114 116 117 118 119 122 126 127 108 106 121 151 171 176 178 176 176 176 176 176 178 176 175
 190 191 189 188 191 192 192 192 192 192 193 193 195 194 192 192 195 196 196 195 196 196 196 194 162 148 150 148 144 142 141 149 157 158 158 156 151 147 133 120 110 100  89  83  89  88  83  78  88  92  97  99 100 100 101  97  90 102 100  96  96 101 104 106 108 112 113 118 119 118 115 115 118 120 126 156 172 175 173 173 174 176 179 177 176 176 176 177 177 177 176 176
 190 190 191 192 191 192 192 192 194 194 194 192 194 195 194 195 196 196 196 196 196 197 196 194 175 149 148 144 142 139 142 149 149 149 153 151 150 149 136 123 111 101  87  84  90  91  86  86  90  92  96  98  96 100 101 100  96 104 105 100  98  99 103 105 106 111 112 116 118 118 113 117 119 120 132 167 177 180 178 178 176 179 177 176 177 179 176 177 178 179 176 177
 191 192 189 192 192 191 191 191 193 193 194 193 193 194 194 196 196 195 196 196 197 196 196 195 182 147 146 142 137 134 142 145 141 143 148 148 151 151 140 128 115  98  84  83  87  90  87  87  91  95  96  94  90  94  99  99 101 103 105 102  98  99 102 103 106 111 112 114 117 118 116 118 119 123 137 172 179 180 178 179 178 179 177 178 178 180 180 179 178 178 176 176
 192 191 190 190 189 192 193 194 192 193 194 194 196 194 194 195 197 196 196 197 197 195 195 194 190 151 143 138 133 129 132 133 133 137 142 150 153 152 142 128 116 102  88  86  91  94  92  92  95  95  97  97  98  97  98  98 100  98 100 101  98 100 100 104 106 108 111 110 116 118 115 117 121 125 145 175 179 179 181 180 178 178 180 179 182 181 180 178 177 179 176 178
 191 189 190 192 192 193 192 192 193 193 193 193 194 195 195 196 198 196 195 196 196 196 197 195 192 158 140 134 131 124 125 121 124 127 137 148 142 132 117 105  98  98  95  96  98  93  88  88  94  97 102 103 102 100  96  98  95  94  98  99  98 100 103 102 101 106 110 109 115 117 114 117 123 125 154 178 180 181 182 180 180 181 178 180 182 180 180 180 178 178 179 179
 192 191 193 191 192 193 193 193 192 193 194 194 193 195 195 197 197 196 197 196 197 196 196 195 193 168 140 131 130 123 122 117 114 113 123 117 105  93  88  83  82  83  88  89  84  80  73  70  78  86  96 102 101 100  95  94  95  93  95  95  97  98 100 101 102 105 108 109 114 113 114 116 121 126 163 179 181 182 181 181 181 182 182 182 181 180 180 182 180 179 180 180
 191 192 192 192 192 191 192 192 193 193 194 195 195 195 195 196 197 196 196 196 196 196 196 196 197 182 144 130 126 121 117 107  96  86  90  88  86  81  79  80  79  78  76  75  71  69  64  66  67  71  78  87  94  99  94  91  90  92  93  94  94  95  99  99 101 105 110 108 110 111 114 120 120 128 173 180 181 182 181 181 181 180 181 181 180 181 181 181 180 181 180 179
 190 191 191 192 193 191 192 195 194 194 194 195 195 196 197 198 196 197 197 195 196 196 196 196 196 191 152 130 125 120 112  97  88  79  70  74  79  72  65  69  72  75  74  70  67  67  64  68  66  64  66  70  74  80  84  82  82  86  89  91  93  94  98 100 100 103 107 110 112 112 115 118 120 138 175 181 182 182 182 182 183 183 182 181 181 182 183 180 180 181 180 179
 191 191 191 192 191 192 192 194 194 194 194 195 195 195 196 197 198 196 196 196 195 195 196 196 194 194 165 132 125 120 110 100  96  96  93  82  82  76  60  59  50  51  53  51  53  53  47  48  51  57  60  63  65  62  59  59  60  74  82  85  91  93  97 100  97  99 105 109 111 114 116 118 122 153 178 182 182 182 182 182 182 183 182 182 182 181 181 181 181 181 180 180
 193 192 191 192 192 193 192 192 193 194 195 194 194 195 198 198 197 196 195 196 196 196 196 194 196 196 184 136 124 122 112 109 107 109 107  97  90  90  81  74  65  55  48  40  40  40  36  38  38  41  47  51  52  47  47  46  56  66  73  79  88  94  98  98  99 101 105 109 110 114 114 118 114 164 180 182 182 180 181 183 183 182 181 181 182 182 180 180 180 181 181 179
 192 192 193 191 192 193 193 194 193 194 196 195 195 196 196 195 196 194 195 196 196 196 195 196 196 194 191 156 126 122 114 113 116 114 114 105  95  92  87  78  72  68  62  57  52  51  48  50  51  52  56  59  56  54  55  64  74  75  75  77  85  90  95 100  99 101 105 109 111 110 113 117 135 173 181 183 182 182 183 182 182 182 182 181 180 182 182 180 181 180 180 180
 192 191 192 192 192 191 193 194 194 195 195 194 195 196 196 196 196 196 196 196 196 196 196 196 196 195 194 180 131 122 117 115 116 116 115 113 102  93  90  83  77  72  69  68  65  61  60  57  58  64  67  66  63  65  71  80  83  85  84  84  86  91  98 100  99 101 103 105 107 111 113 118 153 174 183 183 183 182 183 183 182 181 182 181 181 180 180 182 179 179 178 177
 192 191 192 192 192 193 194 192 193 194 195 196 196 196 197 197 195 195 194 195 195 194 194 194 194 195 196 193 149 124 119 109 110 116 115 115 108  98  92  86  84  79  74  71  71  69  67  67  67  69  69  67  72  78  85  87  89  89  88  89  88  93  96 101  98  98 103 106 108 110 112 122 163 176 182 181 182 183 183 182 182 182 182 182 182 181 180 179 180 179 179 177
 192 192 192 192 192 194 193 192 194 193 195 194 195 195 195 196 195 194 194 194 194 195 194 194 196 196 195 193 179 129 122 115 113 118 114 114 108 104  96  89  87  81  77  71  71  69  68  71  70  70  72  76  80  87  89  88  89  89  92  93  92  95  97 100  99  99 103 106 106 108 111 128 168 180 182 182 183 181 182 182 182 181 181 180 181 181 181 180 179 178 178 177
 190 192 192 192 191 192 193 193 193 194 194 195 195 195 195 195 196 194 194 194 194 194 193 194 196 196 194 191 191 153 122 120 118 118 116 114 110 104 102  94  90  87  82  76  71  69  69  71  73  75  79  82  84  88  90  90  92  93  93  94  94  98  99 100 100  99 102 106 104 106 116 128 169 180 183 182 183 183 182 181 182 181 181 181 182 181 180 179 179 179 178 179
 191 191 191 192 190 192 192 193 194 194 192 194 194 194 195 194 194 192 194 194 195 193 193 195 195 195 194 194 193 181 129 123 120 117 118 116 111 109 104  97  94  90  86  84  81  77  77  78  81  82  84  84  86  87  89  89  90  92  93  92  95 100 102 100  99 101 101 103 104 110 119 134 172 180 181 181 182 182 182 180 181 181 180 181 181 181 180 181 179 180 179 178
 192 191 191 191 191 192 193 192 194 194 192 194 195 195 194 194 193 193 193 192 191 192 193 193 193 192 192 194 192 190 158 124 121 119 120 119 117 113 107 102  94  90  83  78  76  75  79  82  82  83  85  87  85  87  87  88  89  92  94  94  97 102 104 103 100 101 101  99 105 110 118 137 174 181 182 182 182 181 182 181 181 179 180 180 181 181 179 180 179 179 179 178
 191 190 190 192 191 193 194 192 191 193 194 194 193 194 194 194 192 191 192 192 191 192 191 191 190 191 194 193 193 191 169 127 122 122 118 119 118 116 110 104  97  93  84  78  73  72  73  75  77  81  86  87  86  87  88  87  89  92  94  96 100 101 102 102  99 100 100 103 106 111 117 140 176 182 182 182 182 181 180 181 180 179 180 180 180 180 179 178 179 177 178 178
 189 191 190 190 191 191 192 191 192 192 192 192 193 193 194 192 192 193 191 190 191 192 193 192 190 192 192 191 192 190 169 140 122 121 118 120 120 116 115 108  97  92  86  82  77  75  73  75  75  77  82  85  87  90  87  88  89  93  93  98 101 102 100  99  97  96 101 105 108 110 114 143 178 181 182 183 182 182 181 181 180 180 181 180 181 181 180 179 181 178 177 178
 190 189 190 190 190 189 191 192 192 192 192 192 193 192 194 193 191 192 190 191 191 191 192 191 191 192 191 191 189 141 148 145 127 119 122 122 121 119 115 110 101  89  85  84  81  74  74  75  75  78  84  87  88  88  88  91  90  91  92  96  99 100  98  94  94  98 103 104 109 111 118 145 178 181 180 182 181 180 180 181 180 179 180 178 181 179 179 179 179 178 178 177
 188 189 189 190 190 190 191 191 192 193 191 192 193 192 193 192 191 190 190 190 191 191 191 190 190 190 191 183 126  50 140 144 135 120 119 123 121 120 116 111 101  90  86  83  80  76  76  78  76  81  85  88  88  92  92  94  93  94  93  92  95  95  93  92  96 101 105 107 108 109 117 147 178 181 181 180 180 181 180 179 179 180 179 178 180 179 179 178 178 178 178 178
 189 187 188 190 190 191 190 190 191 191 190 192 193 193 192 191 191 190 191 191 190 190 190 191 186 166 132 114  88  92 156 145 137 123 117 121 119 118 114 109 101  91  88  84  84  83  80  81  80  83  88  89  90  93  95  97  95  93  92  92  92  89  89  94  99 103 106 107 107 109 115 153 179 180 182 182 181 180 178 179 178 179 178 180 178 177 178 178 179 177 178 178
 188 190 187 188 189 189 188 187 190 190 190 191 191 191 191 191 190 189 190 189 189 184 163 140 123 116 115 109 134 206 162 146 138 127 116 116 121 117 111 106  98  91  88  89  88  87  84  82  83  85  88  87  91  96  97  94  93  93  92  89  86  86  91  98 100 101 106 107 108 108 114 152 177 180 180 180 180 180 181 179 178 177 178 177 178 178 177 179 178 178 177 178
 186 187 187 188 188 187 189 190 190 190 191 191 191 191 191 190 189 189 187 188 152 123 114 115 109 109 104 107 205 211 161 146 138 130 116 111 116 113 110 102  94  93  88  91  91  91  89  85  84  86  87  89  91  94  94  94  91  91  88  85  86  90  95 100 101 103 103 104 108 108 115 156 178 180 177 177 179 179 180 179 180 179 178 178 179 179 179 178 177 178 178 177
 187 187 188 188 186 186 188 190 190 191 190 191 191 189 189 189 188 183 148 116 114 111 107 111 102 100  97 143 212 213 159 145 138 128 118 109 109 108 107 102  94  91  89  90  93  90  89  88  85  86  87  91  90  91  92  92  87  85  87  80  88  95 100 102 101 101 101 102 108 109 113 129 111  93 107 143 175 177 180 179 179 179 180 178 178 178 178 177 178 178 177 177
 187 187 188 187 187 188 187 188 188 189 190 191 190 190 189 179 154 119 109 107 106 104 108 103  97  94  93 162 212 203 155 143 136 126 119 112 106 101 102  97  92  90  89  89  91  90  88  87  85  85  84  84  88  88  86  85  84  86  87  89  94 100 103 105 101 101 100 101 104 109 109 119 119 101  75  69 122 173 177 177 177 179 179 177 176 179 178 179 180 178 177 178
 186 186 185 187 186 186 187 187 186 188 187 187 188 174 145 120 111 109 106 105 103 103 106  96  87  87  90 163 209 195 155 142 132 124 118 115 111 100  97  98  93  89  88  88  92  92  88  88  83  83  82  84  86  86  79  80  85  89  92  94 100 103 105 107 103 101 100 103 105 108 110 117 120 119 118  93  66  90 141 163 178 178 177 176 177 177 178 177 178 177 177 178
 186 185 185 186 187 188 186 186 187 187 188 177 137 108 109 110 106 104 103  99  98  98  99  90  84  81  90 168 208 188 153 141 129 120 117 118 116 114  98  95  92  89  88  89  91  91  88  88  84  81  82  80  81  78  78  86  88  92  94  99 102 105 106 103 101  99  99 103 103 108 110 117 121 121 122 119  84  59  74  81  95 146 176 176 179 178 176 177 177 176 176 177
 184 183 186 186 186 185 185 184 166 144 118 109 100 106 106 104 101 101  94  93  92  89  92  83  80  79  88 162 204 179 152 138 128 119 116 116 118 118 116  98  90  89  91  89  86  88  90  86  84  82  78  77  79  84  87  88  90  94  96 101 107 106 105 104 100  99  99 101 103 107 108 117 121 121 121 122 114  54  56  57  64  77 100 146 177 177 177 176 175 177 177 177
 183 184 184 184 183 179 155 125 115 107  97  97 101 103 100  96  96  94  87  88  86  85  84  79  79  79  85 157 198 171 149 136 125 120 117 115 117 119 118 117 110 101  95  93  86  86  88  86  83  82  81  84  86  87  89  91  91  96 101 105 107 107 106 102 100  99  99 102 103 107 109 116 121 123 122 120 115  61  49  48  48  63  71  71  92 137 170 176 176 176 178 177
 181 182 183 174 134 105 105 107  96  87  90  98 103  94  94  85  87  90  81  83  79  86  77  74  76  76  83 154 190 165 146 135 125 119 116 115 116 117 116 116 115 114 113 110 104 100  95  91  91  92  93  92  87  89  90  91  94 100 100 105 105 105 105 103  99  98 101 101 103 105 108 114 121 123 122 120 114  60  44  43  44  50  59  62  65  73  84 145 174 175 176 177
 141 141 121 101  97 102 100  86  81  84  94  99  90  86  85  84  87  83  77  77  73  84  75  74  74  72  82 143 181 161 144 133 126 120 116 114 115 114 116 114 113 115 114 112 110 106 100  98  96  96  94  93  91  89  90  92  97  99 102 104 103 103 103  99  98  98  99 100 102 104 107 113 119 122 122 121 114  52  41  41  40  49  54  50  56  60  61  66 114 170 175 176
 107  93  91  92  97  93  78  78  83  89  96  88  80  85  80  82  87  77  73  74  70  84  67  74  74  71  76 132 173 155 139 129 124 120 116 112 111 111 112 112 111 110 113 112 109 107 101  97  96  97  94  94  92  91  93  95  94  98 100  99  98  99  97  96  96  97  98  98 103 105 107 111 114 121 121 119  99  46  40  38  41  48  51  46  44  53  58  55  55  80 149 179
  87  83  92  99  90  77  73  77  88  91  87  78  78  78  78  82  85  72  73  73  70  81  65  73  72  73  79 117 165 150 135 126 121 120 116 112 110 111 111 110 108 106 109 109 108 107 102  98  97  96  96  93  93  93  94  94  93  97  97  95  94  96  95  94  94  96 100 101 102 105 107 109 111 117 118 118  77  42  37  36  38  45  48  43  40  40  53  56  52  51  58 115
  85  87  96  87  77  70  73  82  88  87  76  72  81  77  80  82  83  71  70  67  71  78  63  69  72  73  76 105 160 143 129 122 120 117 114 111 110 111 110 110 108 108 106 104 106 106 103 100  97  97  96  92  92  93  93  92  92  93  93  93  90  91  93  92  92  96  97  98 100 105 105 107 110 115 116 112  58  40  35  35  37  44  48  42  39  36  44  53  53  47  45  50
