P2
# Generated by OpenCV 3.4.0
92 112
255
  85  84  86  87  87  88  90  89  90  90  92  94  93  93  95  94  94  97  93  93  93  96  99  99  97  95  95  95  99  99 102 108 107 107 107 112 134 135 133 138 129 143 129 109  98  95 100 106 110  98  97  93  84  81  83  89  91  96  96  98  98  98  98  99  99 100  99  99 100 100  99  99  99  98  98 100  99  97  97  97  97  99  98  97  98  98  98  99  96  97  98  96
  87  87  87  88  89  89  91  91  92  90  93  94  93  94  94  96  96  96  95  96  99 102 101  98  98  96  95 101 108 101 104 111 109 116 128 125 119 124 152 165 153 137 130 143 134 122 111 104  97  93  81  72  66  62  63  61  71  78  83  95  97  98  98 100 100 101 100  99  99  99  98 100  99  99 100 100  99  98  99  99  97  99  98  97  99 100 100  98  98  97  96  98
  87  86  88  87  88  89  91  91  93  92  92  94  94  94  94  95  97  96  96  99 101  95 101  99 100  99  96  88  97  98 103 100 103 103 103 113 144 175 176 176 173 165 163 158 165 167 138 120 103  81  75  69  67  64  64  66  67  73  72  74  85  94  98 100  99 100 100 100  99  99  99 100  99 100  99 101 100 100  98 100 100  98  99 100  99  99  99  99  98  99  98  97
  86  88  90  88  88  90  91  89  90  92  93  95  94  94  96  96  96  95 104 108 101  96  98  98  98 100  98  89  99  90  87  92  97 101 113 147 162 160 169 147 155 142 154 187 176 163 137 120 103  87  77  71  68  66  65  63  63  63  66  66  67  80  92 100 101 100  99 100 101  99  99 100 100  99  99 101 100 100  99 100  98  98 100  98 100 100  99  99  99  99  99  96
  89  88  89  88  90  89  92  89  91  92  91  92  94  93  95  95  96 100 114  98  96  98 114 115 101 100  99  88  94  85  91  89  93  87  99 116 129 140 115 117 116 128 154 160 143 134 122 106  90  76  66  64  58  53  51  50  54  55  55  57  60  67  75  86  96 100 101 100 102 100 100 101 102 102 101 102 100 100  99  99  99 100 100  98 101  98 100 100  98 101 101  99
  89  89  89  90  90  90  93  92  92  93  94  91  93  95  96  96  95 110 104 112 116 128 148 126 115 102 106  82  88  78  83  80  79  82  85  98 107  89  82  89  98 109 120 127 102  78  78  85  81  80  70  64  59  53  50  48  48  50  49  52  50  52  58  68  78  90  97 101 101 101 101 101 101 101 102 101 102 101 100 100 100 100  99 100  99  99 102 102  99 100  98  98
  90  89  92  91  90  94  92  91  94  93  95  94  96  95  96  98 101 107 144 136 128 131 148 144 134 115 102  84  79  66  63  67  72  75  79  79  71  65  66  72  73  74  83  60  45  50  66  76  80  74  67  59  51  47  45  42  44  40  37  39  43  43  46  51  64  73  85  96 100 100 100 100 101 102 103 102 103 101 102 102 100 100 100 101 102 100 101 100 100 100 100  99
  90  90  90  92  91  91  90  92  93  93  95  95  95  97  95  98 106 134 124 104 121 136 142 140 131 117  98  78  68  63  60  67  70  77  67  54  56  44  60  63  63  51  39  32  34  42  48  52  53  51  53  53  48  45  39  40  38  38  38  41  44  41  39  41  44  49  58  77  89 100 102 101 102 102 103 102 102 101 100 100 100 101 102 102 102 100 101 100 100 100 100 100
  91  91  91  91  91  92  90  93  93  94  96  95  97  96  98 102 122 114 133 164 175 176 168 147 122 102  88  72  64  58  59  64  68  63  52  50  46  50  54  48  44  31  23  27  29  28  40  48  59  66  61  57  56  57  52  46  43  40  42  41  41  41  43  47  51  51  50  51  65  87  99 102 103 104 103 101 104 103 101 101 100 101 101 101 101 100 101 102 100 101  99 100
  91  90  91  91  91  91  93  94  94  94  95  95  97  96 100 103 117 132 142 150 175 176 156 129 128 124  97  80  70  61  60  65  56  52  46  42  43  44  41  36  31  24  26  23  25  37  43  53  57  63  67  74  66  59  53  46  45  42  43  40  42  44  44  46  45  46  50  55  54  63  85  98 102 102 104 103 102 101 101 103 100 100 102 101 101 101 100 101 100 104 100 100
  90  89  91  92  92  92  92  96  96  94  96  96  99 100 106 107 118 128 150 159 156 140 145 149 147 120  92  70  67  57  58  54  51  48  44  40  36  34  31  29  25  24  20  20  23  28  35  41  46  51  61  72  66  55  47  39  38  36  36  39  42  43  47  50  52  53  54  54  52  53  64  90 100 102 103 103 104 102 103 103 103 102 101 100 102 102 101 101 101 102 103 101
  90  93  91  92  93  93  95  95  96  95  98  98 102 106 107 129 150 177 181 161 160 160 144 159 161 119  92  83  72  60  57  49  48  40  38  39  36  28  28  24  20  18  17  21  23  26  27  31  34  41  44  41  46  42  37  32  30  30  30  30  32  34  34  37  39  45  47  50  53  51  52  73  95 101 104 103 102 103 102 102 101 102 102 102 102 102 101 102 101 100 100 101
  92  93  95  92  91  93  94  96  97  97  99 102 108 118 114 132 157 160 160 148 143 146 168 168 147 125 117  93  72  60  51  44  44  39  38  35  33  27  27  21  18  16  18  19  19  19  21  23  23  23  25  26  22  21  17  18  23  26  27  29  30  29  29  30  31  32  36  40  41  45  46  54  86 100 102 102 103 102 102 102 102 101 101 102 102 101 102 103 101 101 100 100
  92  90  92  96  94  95  95  94  95  94  97 102 101 105 119 130 135 135 133 128 129 144 150 152 154 150 122  95  68  47  43  36  36  34  34  32  31  27  24  20  18  19  21  21  21  20  19  21  21  23  22  25  23  25  27  25  27  27  25  22  23  23  27  28  31  34  37  36  40  38  40  48  66  92 102 103 102 102 102 103 103 102 100 101 103 102 103 104 101 101 100 102
  94  93  93  94  96  95  95  96  97  97  99  99 102 111 119 113 108 107 109 121 133 144 151 162 169 148 110  75  62  48  38  38  38  35  32  31  31  28  26  25  23  27  28  30  27  25  28  27  28  28  28  30  31  32  31  27  23  21  19  20  22  25  26  25  27  28  30  32  39  41  42  40  48  80  98 103 102 103 104 102 102 102 103 103 102 101 102 103 102 101 100 101
  94  93  93  94  94  93  95  96  96  97  98 102 106 106 103  92 103 100 105 106 120 143 154 157 134 109  96  79  56  42  38  38  40  36  34  35  35  32  29  25  25  26  28  30  31  29  28  30  33  31  31  31  29  27  26  24  25  24  23  24  27  24  22  23  22  21  25  30  40  49  49  46  45  69  95 101 103 101 102 104 102 103 102 102 102 102 101 101 102 102 102 101
  92  93  93  93  96  97  96  99  98 100  95 102 104  95  89  81  78  83  90 111 130 126 122 106 101 114  96  56  38  34  42  36  38  38  41  43  43  43  38  32  30  30  29  33  32  29  30  29  27  26  27  24  24  21  21  21  23  24  23  20  21  21  21  23  23  22  24  25  33  46  54  57  53  59  86 100 103 102 102 104 102 102 102 103 101 103 101 102 102 102 100  98
  92  94  95  95  95  96  96  98  98  95  88  91  88  80  77  74  78  87 105  97  96  86  78  82  98  92  55  32  33  38  48  44  46  50  53  59  58  56  53  49  41  36  35  38  34  30  29  27  27  27  28  25  24  24  22  20  20  21  22  23  24  23  23  26  26  28  28  31  32  34  45  54  54  58  68  94 100 100 102 102 102 101 102 101 100 101 102 104 102 101  99  98
  93  94  95  97  96  97  98  96  98  91  87  82  76  73  70  76  80  88  80  75  65  66  76  77  71  47  38  39  40  45  52  55  57  65  68  68  72  67  64  58  51  46  45  44  40  38  33  31  31  30  30  29  26  24  22  21  22  24  24  25  26  27  27  29  26  27  29  29  32  37  40  50  52  52  57  76  96 101 101 100  99  99 100  97  97  98  98  97  96  95  94  93
  94  95  96  96  95  97  98  97  96  83  82  76  69  64  67  75  78  74  68  61  66  73  70  65  44  37  42  46  50  56  62  66  72  76  76  78  82  74  71  65  60  55  52  50  47  46  42  37  33  33  31  31  31  29  26  25  25  24  25  24  24  25  25  28  30  32  33  33  31  29  32  40  48  47  49  56  77  92  94  94  92  94  93  93  92  96  94  94  92  93  93  95
  94  95  95  97  97  96  97  98  92  78  76  71  71  73  75  72  66  67  62  63  64  59  56  44  41  44  51  57  63  67  73  81  84  82  81  88  86  83  80  72  65  64  60  58  54  50  47  46  40  39  37  33  34  34  31  29  27  26  26  27  25  25  26  31  33  34  39  42  40  33  30  30  36  47  45  49  53  79  96 100 102 104 106 105 106 110 111 114 116 117 118 120
  94  96  96  97  97  96  99  96  85  78  70  71  80  73  65  64  62  55  56  62  60  50  43  44  46  52  60  69  74  77  86  90  93  88  87  90  90  88  86  82  72  69  63  63  60  57  52  51  48  46  43  40  37  36  35  31  28  28  30  31  31  30  29  28  32  31  32  33  41  42  36  31  31  36  43  46  46  54  96 121 126 124 125 124 124 125 125 125 125 126 126 125
  94  95  95  97  96  97  97  95  84  79  69  67  70  63  58  61  54  54  57  47  41  44  43  48  54  62  71  80  84  88  97 102 100  93  92  93  93  91  91  85  79  72  70  67  66  64  58  57  54  51  48  47  42  41  40  36  34  32  30  31  33  33  33  33  33  33  33  34  34  37  40  36  32  32  40  42  45  46  56 112 125 127 127 127 128 128 128 129 127 127 128 128
  91  93  94  94  95  97  96  92  83  88  72  66  65  63  55  55  52  46  38  34  40  42  46  57  66  74  81  89  96 105 106 105 104 100  98  96  93  95  91  88  83  79  74  72  71  66  63  63  62  58  55  50  47  46  45  42  41  39  35  32  36  39  36  37  38  35  33  33  34  34  33  35  34  33  35  36  42  45  46  64 123 127 129 130 130 130 131 129 129 128 127 129
  85  87  89  90  88  90  91  95  82  83  75  67  66  52  44  40  38  34  35  38  44  45  54  68  79  85  93  99 109 112 111 109 108 104 101  98  95  94  93  92  85  81  78  76  74  72  69  67  68  66  62  59  52  50  49  48  45  43  40  40  41  42  41  43  43  38  39  33  30  30  29  29  31  31  32  33  38  44  44  49  89 125 128 129 129 131 130 130 129 129 128 128
  98 101 103 105 108 108 110 108  84  79  60  49  40  35  34  32  35  31  35  40  48  52  66  78  90  97 103 108 118 118 119 114 113 111 107 103  98  97  94  94  88  84  81  80  79  75  72  72  70  69  68  66  63  61  55  53  52  51  48  44  44  46  44  45  45  44  43  38  33  31  28  26  28  28  28  29  34  39  42  46  62 118 128 131 131 130 130 129 128 129 130 130
 117 117 119 121 120 121 121 121  95  75  54  44  37  34  34  36  36  34  42  44  54  65  79  89 100 105 110 115 120 122 120 117 118 114 107 103 101 101  99  96  92  88  86  85  84  80  78  76  75  74  73  71  69  67  67  66  65  63  58  55  52  48  44  49  49  48  47  43  37  32  27  22  24  27  26  26  29  35  37  42  45 104 127 130 131 130 129 130 130 129 128 131
 121 120 121 120 121 123 122 121 101  65  51  45  34  33  38  38  35  35  45  51  64  79  91 100 107 112 118 122 123 121 120 121 120 115 112 109 103 102  99  97  94  93  92  90  87  84  82  79  81  79  78  77  75  75  74  74  73  73  71  68  65  62  62  59  56  57  53  50  43  36  29  24  23  24  27  28  28  30  36  38  44  75 122 130 130 130 129 131 130 130 129 129
 122 123 123 123 123 124 124 122 106  62  48  41  33  37  41  37  38  41  52  62  78  92 103 110 113 118 123 127 125 121 120 122 122 118 115 111 108 103 100 100  98  93  94  92  90  87  84  82  82  81  82  80  79  81  82  81  82  81  82  81  82  79  77  74  73  70  65  63  59  51  37  28  22  23  24  27  28  29  32  36  46  58  96 119 125 127 130 131 130 132 131 131
 122 122 123 123 123 123 123 124 102  58  44  41  38  37  38  38  43  47  60  76  96 105 109 114 116 124 128 127 127 125 124 125 123 121 118 119 113 108 105 103 100  96  96  94  93  88  86  86  84  85  84  84  85  86  88  87  87  88  87  89  98  92  90  89  88  87  85  81  80  74  57  33  27  23  23  24  27  30  31  36  44  47  50  68 101 126 130 130 132 131 130 131
 122 122 122 124 124 125 124 122 103  60  46  42  40  36  35  42  45  53  79  95 109 113 114 113 119 129 131 130 132 134 134 134 129 127 126 124 118 112 108 106 105 102  98  97  94  92  90  91  88  88  88  91  93  95  95  95  99  98  98  98 103  97  96  96  97  95  98  96  95  90  79  45  31  28  23  23  23  26  28  33  40  48  60  59 102 129 129 132 131 131 130 130
 123 124 124 124 124 128 126 124 109  61  43  37  34  34  38  44  47  67  96 109 115 115 119 122 128 132 137 140 141 140 142 140 137 134 131 125 121 116 109 108 107 105 102 101  99  98  96  97  96  95  97  97 101 101 104 104 107 109 107 111 121 114 106 104 107 105 106 106 107 102  95  67  39  28  27  26  24  23  26  29  34  45  62 102 125 131 132 131 130 133 131 131
 123 125 126 124 124 126 126 125  94  55  39  35  37  38  40  46  54  86 106 115 117 117 121 128 135 139 141 146 148 148 146 144 139 135 130 123 118 113 111 112 108 107 106 104 102 103 104 104 104 103 104 106 108 109 111 112 116 116 121 123 129 123 117 114 113 113 113 113 115 115 106  84  52  34  30  27  26  24  23  27  34  46  98 109 128 133 132 132 132 132 131 131
 125 124 128 127 126 126 127 125  89  64  44  36  37  36  40  48  68  99 114 120 122 122 128 133 137 142 146 148 148 146 146 141 134 132 124 122 116 111 113 112 111 110 108 107 105 107 110 109 108 109 110 111 112 111 113 114 118 120 124 126 131 131 124 122 117 118 118 118 119 120 113  95  63  40  30  26  30  29  28  27  32  65 123 127 132 132 131 132 133 133 133 131
 125 125 127 125 124 127 127 125  90  67  48  40  37  34  44  56  86 108 120 122 125 128 132 136 142 146 148 149 145 144 140 135 131 129 124 119 113 112 112 110 113 110 110 108 109 113 111 109 110 111 110 111 113 113 114 115 117 122 126 127 128 129 126 125 123 121 120 120 118 120 119 108  78  48  36  33  31  31  31  30  32  52 112 127 131 129 132 134 133 133 134 133
 125 124 126 126 127 127 128 126  94  57  43  37  38  38  48  74 102 118 125 127 130 135 140 144 145 146 145 143 138 135 129 127 123 121 120 117 113 109 110 112 110 110 112 112 112 113 112 112 110 109 109 108 108 108 109 112 114 116 123 124 126 127 129 128 128 125 123 121 121 120 119 113  88  57  42  34  32  30  31  35  32  38  79 120 128 130 132 132 133 132 136 136
 125 127 127 127 127 128 129 126  92  51  38  36  38  41  60  90 115 124 128 130 135 140 142 144 144 141 137 133 125 121 119 119 116 114 113 112 109 107 104 106 106 108 112 112 110 108 111 111 108 107 101 105 104 104 104 104 107 111 117 119 121 123 128 130 130 127 125 121 120 122 120 116 102  68  49  38  34  32  34  49  48  36  49  95 117 124 127 131 132 133 133 135
 127 128 129 127 129 128 129 124  86  49  34  33  41  50  73 105 123 129 132 133 139 143 142 139 137 134 128 123 116 112 110 109 107 106 105 105 104 102 104 101 104 107 109 108 108 104 105 106 102 101  98 100 103 102 100 101 100 105 109 114 118 119 125 130 128 127 125 121 121 119 119 116 106  75  52  44  38  33  32  42  78  52  48  89 103 122 130 132 135 134 133 134
 129 129 130 130 130 131 130 121  77  44  35  43  48  50  89 120 130 130 133 137 142 141 135 130 126 120 113 104  95  90  89  90  93  92  91  97  97  98 100 100 104 106 100 101 101  99  98  99  94  94  93  91  93  94  93  94  94  97 101 104 105 108 115 124 125 128 126 125 119 120 119 118 108  84  56  48  42  37  31  34  87 100 110 114 121 130 133 135 135 134 136 135
 130 131 130 132 132 134 130 123  78  51  37  37  48  54  99 129 134 134 134 137 138 127 115 108  99  90  80  72  62  59  65  67  71  74  79  86  91  94  96  98 102 100  98 100  97  96  94  92  86  84  82  79  82  77  75  79  79  82  85  87  90  94 104 112 116 119 125 125 121 121 120 119 113  90  59  49  45  39  33  31  55 121 126 134 135 136 136 137 136 137 136 137
 133 132 133 132 132 130 130 112  71  41  31  37  48  56 107 136 137 138 138 133 111  94  87  77  66  58  53  46  46  43  43  49  53  55  66  75  81  89  90  92  96  98  95  99  96  93  89  87  75  72  69  64  65  58  55  52  48  49  51  55  60  67  77  85  95 104 115 122 123 121 120 119 116  95  59  49  46  41  35  33  38 100 133 137 137 137 137 138 137 137 137 137
 135 137 137 137 136 133 131 106  76  43  31  38  51  57 122 142 143 139 116  98  79  71  59  50  48  48  47  44  43  41  40  42  46  50  56  68  71  83  87  88  92  94  92  92  92  88  86  82  69  64  55  51  54  52  47  38  36  34  36  36  40  43  49  59  63  73  87 103 117 120 120 118 117 102  68  49  48  42  39  36  41  70 132 138 140 138 139 140 140 139 139 138
 137 138 139 138 138 136 131 106  82  45  35  37  50  59 130 149 138 115  91  78  63  54  50  45  42  43  44  44  48  42  42  44  43  46  49  62  66  76  86  86  89  91  89  90  87  84  80  72  65  57  51  48  46  45  41  37  35  34  33  33  38  37  37  44  49  58  69  74  90 113 119 118 118 107  70  47  49  41  41  40  51  77 136 140 140 140 139 140 141 141 140 139
 139 142 141 141 141 143 137 114  79  49  36  37  49  57 143 146 102  92  81  72  65  67  65  64  62  58  54  55  53  50  48  50  47  49  50  58  64  72  83  85  87  86  86  85  83  82  77  69  62  55  51  47  46  43  38  37  37  36  36  40  39  40  39  40  44  51  59  67  71  81  96 115 118 110  70  45  48  40  42  42  70  99 136 142 143 141 142 141 141 142 142 142
 142 142 143 142 144 144 141 129  80  54  38  38  49  59 149 109  96  90  86  84  84  82  83  86  84  84  83  79  75  70  72  66  63  59  55  62  68  77  84  87  88  85  84  83  80  80  77  71  64  58  53  51  49  49  44  48  49  55  58  62  64  62  60  61  60  58  55  61  66  72  74  90 116 116  71  43  46  40  41  46  88  99 138 143 144 145 145 144 142 143 144 142
 144 144 146 146 146 147 145 138  93  52  39  37  49  64 135 113 107 102 105 102 100  97  93  92  88  85  82  80  78  77  78  80  80  77  75  73  75  83  86  88  90  89  87  84  80  82  79  74  67  65  63  63  64  61  62  62  64  67  66  70  70  69  71  74  75  73  73  72  72  76  76  76  99 114  75  42  45  40  39  46  79 123 140 145 145 146 145 144 144 144 145 145
 145 147 149 147 148 149 149 144 100  49  39  34  47  69 125 114 113 115 114 110 108 102  98  94  88  84  80  79  76  77  75  77  79  82  85  86  86  86  88  93  95  93  90  87  83  83  81  74  70  70  70  69  68  66  64  63  64  64  66  68  70  70  71  79  81  83  85  85  85  86  82  78  88 112  73  40  44  41  39  49  68 123 142 144 144 146 146 145 146 145 144 144
 148 148 150 150 150 150 150 149  95  48  40  36  48  76 128 124 119 120 117 115 110 105 100  94  87  81  78  76  72  73  72  72  74  77  79  85  88  93  96 103 104 102  97  91  89  90  85  79  75  71  70  65  61  61  59  58  59  59  60  64  66  68  72  78  82  85  88  90  92  94  90  85  86 111  71  39  45  37  43  51  80 124 143 147 148 147 147 148 147 147 146 147
 151 152 152 152 152 152 152 150 100  56  41  37  49  95 143 126 123 121 118 115 110 101  90  81  74  68  58  53  49  52  60  68  70  72  71  78  84  92 102 112 118 115 109 103 100  98  89  82  74  71  65  58  57  55  51  47  44  43  44  48  50  56  64  73  81  84  89  93  95  98  97  99  96 107  78  39  44  35  40  50  90 134 147 150 150 149 150 150 150 147 148 148
 153 155 154 153 154 155 154 151  98  58  50  40  50 106 142 125 122 118 117 110  98  95  84  71  58  47  42  41  44  48  49  51  59  66  68  73  82  90 102 117 124 123 117 113 109 104  93  81  71  66  61  57  52  46  42  45  46  42  37  33  34  39  48  57  68  72  84  92  94  99 101 104 107 116  84  38  43  35  36  47  83 137 148 149 151 151 151 150 150 149 149 150
 154 155 156 156 157 158 155 152 107  59  51  40  51 109 142 126 120 117 111  93  92  70  53  56  45  32  30  30  31  47  48  50  51  56  62  72  78  85  98 117 128 128 127 125 120 110  95  77  67  62  58  53  48  47  47  43  48  45  32  28  25  30  37  47  50  66  70  79  89  96 100 106 111 119  89  41  43  39  39  44  77 140 148 150 152 152 153 153 151 154 152 152
 157 158 159 160 160 158 160 150 106  64  62  46  51 115 142 125 117 109  92  86  58  61  94  97  40  31  25  25  30  40  56  48  47  55  59  65  74  85 102 121 130 140 140 138 134 125 104  76  67  63  58  50  51  47  44  49  57  37  31  24  22  29  34  69  62  44  61  70  78  94  97 104 115 123 101  44  44  40  41  42  78 140 152 153 153 153 153 152 152 153 151 152
 160 160 161 161 161 160 161 159 139 132 101  52  50 112 140 123 114 102  88  71  57  90 112  83  36  31  25  23  32  34  59  54  47  44  57  69  79  89 107 129 147 157 151 146 142 140 127  88  65  61  55  54  46  44  47  53  57  34  30  25  22  30  36  72  83  59  48  66  70  85  92 104 116 125 106  45  43  42  41  43  70 133 151 154 154 154 154 154 154 154 154 154
 162 162 162 161 162 162 162 163 164 161 129  63  50 119 141 123 110  96  83  67  67 105 112  90  45  43  30  28  34  40  61  52  46  43  50  75  85  92 117 141 161 169 160 149 147 144 137 111  71  61  62  45  41  41  45  52  58  40  33  27  28  39  42  87  93  66  50  55  70  77  87  99 111 122 116  46  44  40  44  43  65 122 152 156 157 158 156 155 156 156 154 156
 162 165 163 165 165 164 162 166 178 191 121  58  53 132 142 124 108  97  89  87  77  95 112 116  71  45  35  34  37  50  55  49  50  57  72  83  92 107 127 144 162 170 163 155 149 145 140 118  91  69  62  54  49  43  44  47  53  51  38  31  32  45  73  94  87  61  62  63  68  79  85  99 113 123 121  47  44  40  44  50  72 106 144 156 158 158 158 158 156 157 156 156
 165 166 167 167 166 167 165 164 161 159 104  60  62 138 145 127 112 103  97  98  97  90  95 105 103  74  54  53  60  62  63  64  69  74  83  92 104 117 134 148 165 178 171 161 154 147 142 125 110  84  65  60  56  52  50  49  52  52  52  50  55  68  74  74  73  79  78  73  73  80  88  99 112 126 126  56  42  44  46  59  89  95 123 156 160 160 159 160 160 161 158 159
 168 167 167 168 168 168 167 169 145 120  75  55  72 148 151 131 115 107 106 107 104  98  92  90  87  82  75  74  69  70  70  74  78  84  93 105 115 126 141 155 168 183 181 167 154 149 143 130 119 104  81  67  60  58  57  53  55  55  57  61  64  67  72  73  82  88  92  93  86  84  90 102 114 124 127  67  44  48  59  75  77  80 108 153 161 161 162 162 161 161 160 160
 167 169 170 169 170 170 171 170 156  89  57  55  68 156 161 142 126 116 118 115 112 110 103  97  93  87  79  75  77  80  82  83  87  95 110 115 121 133 148 162 177 192 185 172 161 148 141 132 123 116  98  80  69  66  65  64  61  61  62  64  69  73  78  84  92  98 103 107 102  95  98 108 118 125 128  75  43  57  80  78  67  76 101 153 160 162 163 161 162 161 161 161
 169 170 170 170 172 171 172 169 156  83  51  58  72 158 171 162 147 136 129 125 120 117 112 106  99  92  90  89  87  89  87  89  96 107 117 123 126 135 153 168 187 199 187 177 161 150 142 132 124 118 111  96  84  72  71  70  70  72  74  77  81  86  89  97 106 109 111 116 114 111 111 115 123 126 127  84  46  58  83  85  68  70  90 147 163 164 165 163 163 162 163 162
 172 173 173 173 174 172 175 173 169  97  51  65  74 166 179 179 171 156 146 134 126 122 118 112 109 103 102  94  91  90  90  95 108 117 122 126 129 141 159 174 190 191 182 174 162 152 143 135 126 119 116 106  96  88  75  73  72  78  84  90  95  97 104 109 116 119 123 123 121 122 121 121 126 129 128  92  49  54  76  90  64  66  83 142 165 166 166 166 166 165 163 164
 174 174 173 174 174 175 176 175 174 102  63  71  74 165 185 191 189 176 163 150 135 129 124 120 115 111 104  96  92  94 100 110 118 122 122 125 131 150 168 177 176 181 176 166 160 151 146 138 130 122 118 114 107 102  92  79  74  78  85  91 102 109 115 117 120 124 127 129 128 130 129 128 130 129 131  95  53  58  80  96  72  66  82 144 164 166 167 167 167 164 165 165
 175 175 175 175 174 176 175 179 137 100  96  77  74 163 188 197 198 190 179 164 151 140 131 122 114 108 101 100  99 104 110 116 120 123 126 128 138 163 174 179 178 183 172 164 159 152 146 139 132 125 119 118 113 109 107  98  87  82  82  88  97 107 114 122 127 128 132 133 132 134 135 133 132 132 131 103  58  67  90 109  88  71  89 148 166 166 168 167 169 168 168 168
 177 176 176 178 176 177 176 172 112  99 119  91  73 158 187 194 197 192 185 172 158 147 131 121 114 106 104 106 108 113 115 115 118 122 126 128 148 172 177 181 186 184 173 164 160 152 144 137 134 128 118 119 118 115 112 114 107  98  91  91  93  98 105 113 119 128 134 137 137 138 136 134 132 131 130  98  64  81  98 106 105  76  93 158 168 169 170 169 168 168 167 169
 180 179 180 180 178 180 179 165 103 112 126 110  73 150 183 188 191 186 179 171 156 146 132 124 117 112 112 112 113 114 114 118 119 123 128 128 162 176 181 187 187 178 164 159 157 151 147 141 134 131 123 119 122 119 117 116 114 110 104 101 100  99 104 109 112 120 126 131 134 135 133 133 133 132 131  94  68  85  96 100 111  81 111 164 169 170 170 169 169 168 170 170
 181 183 182 181 181 181 180 170 107 123 120 115  81 133 176 179 180 175 168 160 151 139 131 121 118 116 114 114 114 115 116 118 122 124 128 138 169 178 181 181 172 159 144 139 138 139 138 133 130 127 125 117 119 122 121 118 114 111 111 109 106 101 103 106 112 117 122 125 127 131 130 131 132 133 130  88  69  80  88  94 107  94 133 166 171 172 172 172 171 170 170 169
 182 184 182 181 182 183 183 178 127 117 106 106  90 123 167 169 170 166 161 156 147 134 129 124 122 120 117 117 118 115 117 118 124 127 130 155 165 168 172 164 150 134 119 117 119 120 119 120 118 120 123 118 116 120 119 117 117 115 114 113 111 107 105 107 111 116 118 122 124 125 125 130 131 131 125  79  68  76  81  84  98 108 152 169 171 171 172 172 172 172 171 170
 184 185 183 183 183 185 183 181 154 108  90  90  89 118 161 160 159 157 151 146 142 135 128 127 125 124 120 121 121 118 119 119 124 126 137 156 150 148 148 136 130 117 109 106 106 105 105 108 108 112 118 119 114 113 115 116 116 119 117 117 117 114 112 110 111 115 116 119 123 124 125 126 129 129 121  96  81  72  69  71  90 118 162 170 172 172 172 172 173 173 171 171
 184 185 183 186 185 185 185 183 164 113  84  78  85 106 154 149 149 145 141 140 134 134 132 131 127 128 125 123 122 118 116 117 121 124 147 143 134 130 128 123 117 109 100 100 101 100 100  99  98 102 108 115 118 109 109 111 116 116 116 116 119 118 119 116 114 113 112 114 118 118 121 125 129 130 117 115  96  68  63  63  84 124 167 173 174 173 174 172 174 174 172 172
 185 185 186 186 187 187 188 183 171 136  91  77  81 104 151 145 140 140 139 137 136 135 135 135 131 128 126 124 122 119 118 117 116 129 147 133 120 116 115 116 114 105  98  95  97  99 100  93  92  96 103 107 115 105 104 107 113 117 113 113 118 116 119 118 118 116 113 111 113 116 121 125 125 128 119 119 103  64  63  67  89 128 167 174 175 174 176 174 175 175 174 174
 186 185 186 186 187 188 188 184 177 162 135  82  79 100 145 144 137 134 137 138 137 140 139 136 135 134 130 125 122 120 118 115 114 132 136 122 108 103  96 110 114 102  95  95  97  96  82  64  76  91  97 106 110 104 100 107 110 114 115 114 116 115 116 115 115 116 114 111 114 115 119 122 126 127 120 112  86  65  64  81 104 131 171 174 174 175 175 174 174 175 174 173
 188 188 189 188 190 188 189 188 184 163 182 149 114 114 142 142 136 133 135 137 138 139 137 138 137 137 131 126 125 122 117 113 110 126 123 109  93  48  33  41  98 103  97  95  97  86  40  30  27  65  90  99 108 103  95 101 107 112 114 118 118 116 118 119 119 118 118 114 116 118 118 120 125 125 118  94  88  81  89 106 113 145 173 174 176 176 174 175 176 177 176 174
 189 188 189 188 189 187 189 189 187 167 150 167 181 151 136 143 136 135 133 136 138 139 140 141 137 134 128 126 125 121 117 111 110 116 115 102  74  46  37  47  92 107 100  99  98  81  56  34  28  44  82  94 102 100  96  99 106 109 110 113 115 117 117 120 120 121 119 117 116 118 118 120 124 123 105  86 112 122 105 107 116 161 174 176 177 176 176 176 176 177 176 175
 188 187 188 188 189 189 189 189 188 180 170 170 186 160 147 142 135 131 133 135 135 137 140 141 142 139 134 129 126 121 113 112 111 111 109  94  73  60  61  83  98 102  97  94  90  83  73  60  38  46  68  86  93  95  96  99 101 105 109 110 112 116 116 120 117 121 119 114 116 119 118 121 124 123  99  96 118 125 108 108 136 171 175 176 178 178 178 177 176 178 177 176
 190 189 189 190 190 190 191 191 191 186 196 202 172 143 149 143 136 134 134 133 136 137 141 141 138 137 134 130 124 117 114 109 111 113 110  94  83  79  83  90  93  90  92  88  80  76  73  69  63  59  68  84  93  99 101  98 100 105 107 109 111 114 117 119 119 122 119 118 116 119 119 120 124 121 120 115 118 126 123 123 157 175 176 178 177 177 178 177 176 178 179 178
 189 190 189 189 190 191 191 192 192 189 188 184 150 132 135 144 136 134 134 121 134 137 140 136 138 135 130 126 121 117 115 115 118 119 114 105  88  86  94  96  96  88  83  81  77  77  75  77  73  70  76  96 104 106 106 105 103 104 106 111 113 113 117 118 120 123 118 118 117 119 121 120 124 114 105 106 109 115 126 144 173 176 179 180 178 178 178 179 178 177 177 177
 189 190 190 190 189 190 192 190 190 190 182 159 136 124 124 141 140 135 134 128 128 132 137 132 134 134 126 123 119 119 121 123 126 126 125 116 102  98 100 100  95  91  83  80  83  81  83  82  84  87  98 109 111 112 112 111 108 105 107 109 112 113 116 119 120 122 122 120 116 120 124 123 125 107  99 104 106 111 128 167 179 180 180 180 179 180 179 178 178 176 178 177
 190 190 191 191 190 191 191 191 191 190 187 160 133 126 124 139 139 135 133 133 130 132 138 139 139 136 130 126 124 125 130 132 134 132 129 123 112 108 108 104  95  89  84  81  86  83  86  88  96 101 106 113 113 114 114 116 114 110 108 108 110 112 114 115 119 121 123 121 119 120 125 124 124 112 108 109 111 114 155 178 181 180 179 179 179 180 180 179 179 178 179 177
 191 191 191 191 191 191 192 191 192 193 190 187 165 130 125 136 138 137 136 137 137 138 141 141 141 135 131 130 130 134 140 141 140 135 134 131 124 114 114 108  99  90  82  80  89  84  87  88  97 104 109 114 115 116 116 116 118 116 111 109 112 113 114 117 120 122 122 121 121 122 125 126 124 109 110 110 115 149 174 181 181 182 181 182 180 180 180 180 180 180 179 179
 191 191 190 191 191 192 193 192 192 192 193 193 191 183 157 140 140 137 136 138 141 139 140 143 141 137 135 136 139 144 146 143 142 140 139 136 131 121 117 107  99  92  82  80  86  86  86  87  95 106 109 112 115 114 113 110 103 113 116 112 112 113 117 119 120 121 122 124 124 124 126 125 125 103 104 124 159 176 179 180 182 181 180 181 180 179 180 179 179 180 181 182
 191 191 191 190 192 193 193 194 192 193 193 193 195 193 191 184 141 137 135 139 142 141 138 142 142 140 141 141 146 150 150 145 145 141 137 138 136 128 119 110 100  90  82  83  88  86  89  94  98 105 108 109 111 114 113 109 105 113 120 116 113 114 117 119 118 121 123 123 124 124 122 128 141 163 169 175 179 181 181 182 182 181 182 182 181 180 181 181 180 179 181 179
 192 191 192 191 191 192 194 193 194 194 193 194 194 194 195 189 150 139 138 139 142 143 141 143 144 145 146 147 151 152 146 143 145 141 139 143 137 129 120 110 101  88  85  85  88  90  91  94 100 106 108 106 106 110 112 112 114 118 122 122 117 116 117 118 117 122 123 124 125 125 123 127 150 179 181 181 183 181 182 182 183 183 182 183 182 182 182 181 181 181 181 178
 192 190 190 193 192 193 193 194 195 195 194 194 194 195 194 192 158 136 135 140 139 144 142 143 144 146 149 153 154 146 143 144 144 141 144 144 141 134 125 113 103  91  88  88  94 101 103 100 102 105 108 106 103 107 111 111 116 116 119 121 118 116 115 117 117 120 122 123 125 127 124 129 157 181 182 183 183 184 183 183 183 183 181 181 182 182 182 182 182 181 182 181
 192 191 192 193 193 194 193 193 195 194 195 197 196 196 196 194 166 137 137 142 141 143 142 142 145 145 151 154 150 146 144 145 145 146 146 145 138 127 116 106 102 100 100 103 105 105 103 101 107 106 109 109 111 112 112 112 113 110 114 117 118 113 115 118 118 118 120 121 124 126 126 130 165 182 184 185 184 183 183 183 183 184 182 182 183 184 184 183 182 182 183 181
 191 192 192 192 192 193 193 193 195 194 196 197 196 196 197 195 177 139 137 140 144 143 142 142 144 146 149 149 145 147 143 140 142 146 140 129 113  97  90  89  89  96  98  99  99  90  84  85  93  99 106 110 111 112 111 111 113 109 112 116 118 116 117 118 115 120 121 122 125 125 124 131 171 182 184 185 185 183 184 185 183 183 184 183 184 184 184 182 182 181 182 183
 192 192 192 192 193 194 195 194 193 195 195 196 195 196 196 196 181 143 137 137 141 143 141 141 142 144 147 145 143 140 133 132 135 126 110  97  85  77  77  77  75  78  83  82  76  72  67  69  72  81  94 105 107 110 108 109 110 112 111 117 117 119 117 118 118 117 120 120 123 124 125 134 177 181 184 184 184 184 184 184 185 184 184 184 184 185 184 184 182 183 182 183
 193 191 192 192 192 194 193 194 194 195 195 195 197 197 195 196 191 150 136 134 139 142 139 139 141 146 147 141 136 126 118 118 111  98  88  79  74  71  74  74  73  71  71  69  70  67  63  63  63  65  74  86  94 103 105 106 105 110 112 115 117 118 116 115 116 116 122 120 123 124 126 140 180 183 185 185 183 184 184 183 185 183 184 185 185 185 183 183 184 184 182 182
 192 192 193 193 193 192 194 194 195 197 195 194 197 196 196 197 193 156 137 136 139 139 139 142 144 144 143 133 121 108 102  99  90  81  76  70  65  61  61  68  70  69  69  68  66  63  63  64  61  62  61  68  77  87  95  97  99 104 109 113 116 117 115 114 116 119 122 122 122 123 127 149 182 185 185 185 184 184 184 183 185 185 185 184 184 183 184 182 183 182 182 182
 192 192 191 194 193 193 194 194 195 196 195 196 197 196 197 196 193 167 136 137 139 137 136 141 139 139 135 121 108  95  86  82  71  65  63  57  48  42  39  39  48  54  49  54  52  45  43  42  46  52  55  62  64  68  77  80  85  90  98 107 112 116 115 116 114 116 120 122 124 126 130 161 183 186 186 184 184 186 185 184 185 186 184 184 183 183 185 184 184 183 182 183
 193 191 192 193 193 192 194 194 195 194 196 194 196 197 198 195 195 183 140 137 137 136 136 138 136 132 127 113  99  85  67  58  60  65  69  65  59  56  51  51  47  42  38  36  39  36  33  30  32  38  40  48  52  54  57  60  68  78  86  95 106 113 116 114 114 114 118 120 122 126 131 173 183 186 185 185 184 184 185 184 185 184 185 184 184 183 183 183 183 183 184 183
 193 192 193 192 192 193 194 193 194 194 195 195 195 196 196 196 196 191 154 134 133 132 132 135 132 128 119 110 103  96  83  82  85  88  91  85  81  74  73  74  69  62  54  50  50  51  50  49  49  56  55  55  51  52  46  46  52  69  80  87  99 110 114 113 114 115 119 120 123 125 134 178 184 185 184 185 185 184 184 185 184 184 184 183 184 185 184 184 183 182 184 183
 192 190 192 192 193 194 195 193 195 195 195 195 195 196 196 196 195 194 180 134 134 131 128 131 130 125 118 111 111 110 102  94  93  99  99  98  89  79  79  73  71  71  67  65  64  63  60  68  72  81  84  81  75  75  75  69  72  80  85  89  94 105 111 112 113 115 118 120 123 126 156 180 184 185 185 185 185 184 184 184 184 184 184 185 184 182 182 184 183 184 182 181
 192 191 192 192 192 193 194 194 193 194 195 196 195 196 196 196 195 194 191 150 132 130 129 128 127 124 118 114 116 115 106 100  95  95  98  98  91  81  74  74  72  71  67  68  66  68  70  69  74  77  86  84  85  77  80  81  90  95  95  93  95 104 108 110 113 116 118 120 121 136 178 184 185 186 186 184 184 184 184 185 185 184 185 183 184 184 184 183 183 182 184 184
 192 192 191 193 192 192 194 195 193 193 196 196 195 195 196 194 195 194 191 178 132 130 127 128 123 121 119 116 116 113 110 102  96  93  92  88  90  84  74  74  72  71  71  70  71  69  70  72  71  74  80  79  77  76  78  84  92 101 102  96  96 102 106 112 112 115 116 118 123 162 182 184 184 185 184 184 185 184 185 186 186 183 183 183 184 183 182 181 183 181 182 183
 191 193 192 194 192 192 192 193 194 194 194 195 194 194 195 196 194 192 192 190 159 128 126 125 122 118 117 116 115 111 108 104  99  93  90  88  85  81  76  75  73  71  69  68  70  69  68  69  70  71  72  72  71  75  78  86  93  97  98  98  96 100 105 111 114 114 115 116 137 179 184 183 183 185 186 185 185 184 184 185 186 184 183 183 185 183 184 183 182 181 181 181
 191 192 192 192 192 191 192 192 192 194 194 194 196 195 194 196 193 193 190 192 186 134 126 122 123 118 112 113 111 106 106 102 100  94  92  90  84  82  76  74  72  70  68  66  66  67  66  67  67  70  68  71  74  78  82  86  89  92  94  96  98  99 104 109 110 113 114 123 171 183 183 183 183 184 185 185 184 184 184 185 184 184 183 182 183 183 183 183 182 181 181 181
 189 190 192 191 190 191 191 192 193 194 193 194 193 194 196 194 193 192 192 191 189 172 125 122 120 116 105 101 108 106 102 100  98  94  92  91  88  84  81  78  74  72  72  70  69  69  70  70  68  72  74  78  81  81  83  85  89  90  92  95  98 102 105 107 109 111 115 155 180 185 185 183 183 184 184 185 184 184 184 184 184 182 183 182 184 183 182 182 180 182 180 182
 191 191 193 192 191 191 193 193 192 192 193 193 192 194 195 193 193 190 190 191 190 189 145 122 118 117 110 104 109 106 100  98  97  93  91  89  87  80  78  74  68  62  62  62  61  61  63  68  71  77  80  80  81  83  84  86  87  89  92  92  93  99 102 108 108 109 123 169 184 185 185 184 184 184 184 184 185 184 185 184 184 183 184 183 184 180 182 182 181 181 180 180
 190 190 191 192 190 191 190 191 192 193 192 193 193 193 194 192 191 191 191 191 191 190 170 125 119 116 113 110 109 107 103 100  98  96  95  90  87  81  80  78  73  70  65  63  62  63  65  66  66  72  75  79  79  80  83  84  86  88  91  93  96 100 104 107 106 112 130 173 184 185 184 184 184 183 185 184 184 185 184 182 183 183 183 184 183 183 181 182 181 181 183 180
 189 189 190 190 190 191 192 191 192 192 192 192 192 192 194 192 191 191 190 191 190 189 176 136 118 116 113 112 112 108 107 106 106 103  99  95  93  90  87  83  77  74  71  69  66  66  68  68  67  69  74  78  78  82  83  84  86  89  92  93  97  99 104 103 104 114 132 174 182 184 183 183 185 184 185 183 183 184 183 183 183 183 184 183 182 182 183 182 180 182 179 180
 187 189 188 188 190 191 190 190 192 192 193 192 192 193 192 191 191 190 190 189 190 189 176 140 124 115 114 114 115 113 114 112 110 107 107 104  99  95  90  83  77  75  73  71  67  68  68  70  70  73  78  81  82  86  86  87  89  91  93  95 100 101 100 102 108 115 133 175 182 184 184 183 183 183 184 183 184 183 185 183 184 184 184 182 182 180 182 181 179 181 180 179
 187 189 188 188 189 190 190 189 190 191 191 193 191 192 191 190 189 188 190 188 188 151 104 139 128 119 112 113 115 113 114 114 114 114 112 110 106 100  91  82  79  77  74  73  71  73  72  72  76  80  84  87  86  89  92  92  93  96  98  98 101  97  99 107 111 116 134 176 183 183 184 183 182 183 183 182 183 184 183 183 181 184 181 182 183 182 181 180 180 181 180 179
 188 188 190 189 189 191 190 190 191 191 192 190 191 191 192 190 189 188 188 160 142  64  73 138 128 124 116 109 114 112 112 114 114 115 116 113 112 104  96  86  80  79  76  75  74  74  74  76  80  84  88  93  95  96  96  96  97 101  97  96  95  98 105 109 110 112 137 179 183 182 183 182 183 182 183 183 184 184 182 182 182 181 182 184 183 180 180 180 180 180 180 179
 186 187 187 188 188 188 188 188 189 190 191 189 188 190 190 189 181 158 126 112 105  67 149 141 130 125 121 112 109 111 112 112 114 111 115 112 108 106  95  88  85  80  80  79  79  79  77  79  85  88  92  97  99 100 100 101 101  97  94  92  94 104 108 109 111 113 125 121 118 131 156 179 180 182 180 182 182 183 182 181 184 183 182 182 181 182 181 180 180 181 181 180
 186 187 186 186 187 187 189 188 189 189 190 189 188 188 171 146 120 112 109 104  97 171 189 146 131 124 121 117 111 107 110 112 114 111 114 110 106 100  94  89  87  85  85  86  84  84  81  83  87  90  92  94  98 100 101 101  99  94  91  91 101 105 109 108 110 114 119 111  80  72  75 125 177 181 180 183 183 181 182 184 183 182 180 180 181 180 182 180 181 182 181 181
 185 186 185 187 187 188 188 188 189 188 189 188 170 125 109 109 108 105 104 100 124 211 192 144 132 123 120 118 112 107 104 108 110 113 111 108 103  98  94  91  88  88  88  87  86  86  84  85  86  90  94  92  96  99  99  95  94  91  89  95 102 104 106 108 109 113 119 121 124 110  82  75  95 143 168 178 180 180 182 181 182 183 180 182 180 179 179 179 178 180 179 180
 186 187 186 187 187 187 188 187 188 186 170 135 113 109 103 109 102 102  94  95 171 208 190 144 130 125 119 118 114 109 104 101 107 109 108 106  99  97  92  90  89  86  88  88  86  85  84  84  86  88  91  93  93  95  94  90  88  86  91 101 104 103 103 106 108 112 117 124 124 124 123  78  68  82  92 103 143 176 179 179 179 181 179 179 180 181 180 181 180 181 180 181
 185 185 186 186 186 186 186 184 177 138 108 101 103 103 103 105  99  93  90  90 202 209 181 141 130 125 119 118 113 109 110 104 100 100  98  98  98  95  89  87  86  83  83  86  87  83  83  82  84  86  86  91  91  90  87  84  81  90  98 102 103 103 102 104 108 111 117 123 122 122 125 113  58  62  71  76  88 103 143 176 179 181 181 181 180 180 182 179 180 180 180 179
 187 184 186 185 185 186 173 138 113 102 101  99 102 102 106 101  89  86  85  95 206 206 179 137 129 124 119 116 110 108 109 111 105  93  94  96  95  93  87  87  84  83  84  87  87  83  84  81  81  82  84  87  86  86  79  78  88  96 103 106 102 101 104 107 108 109 116 122 122 124 123 120  70  53  55  57  69  81  84  93 123 160 178 180 180 179 179 180 180 180 180 180
 184 183 185 184 169 134 112 105 101 101 101 103  98  97 100  92  86  82  84 100 206 204 176 136 128 122 119 115 110 109 109 112 112 103  91  90  92  90  87  88  82  85  85  86  85  84  83  81  80  79  84  83  82  78  84  87  94  98 104 105 101 100 101 104 106 110 115 122 124 121 121 119  78  47  48  47  55  67  72  75  81  89 114 162 178 180 179 180 180 180 180 180
 183 182 172 140 105 100 100 101 100  98  97  95  92  90  96  85  81  77  82 102 203 201 168 135 125 120 119 114 110 107 107 112 114 113 106  93  90  86  86  85  84  85  83  85  86  86  83  82  82  80  79  77  80  86  90  93  98 103 107 104 101 101 103 106 108 110 115 123 122 122 121 116  77  45  45  41  48  58  61  68  75  75  78  92 152 180 180 179 180 181 181 180
 147 121 108  90  90  97 100  96  95  94  90  88  88  84  87  79  78  75  81 101 198 195 164 137 125 120 115 112 109 110 109 110 113 116 115 112  98  88  84  84  84  84  84  80  83  87  83  79  77  75  76  82  86  91  94  98 101 106 107 106 103 102 104 104 107 109 111 120 124 124 122 119  74  42  41  41  47  52  56  55  64  68  70  67  74 110 168 179 180 179 181 180
 113  97  86  85  94  96  94  90  89  87  80  83  82  78  82  75  76  73  78  99 190 185 158 136 124 120 114 110 109 111 110 110 112 114 113 114 112 106 101  92  87  85  86  83  84  82  82  79  81  83  84  88  88  95  97 101 102 106 106 103 102 101 102 103 107 109 111 118 122 123 122 116  58  42  39  39  44  49  53  49  51  62  64  63  61  68  77 123 161 179 178 179
