P2
# Generated by OpenCV 3.4.0
92 112
255
  89  89  89  92  92  92  96  94  95  96  96  95  98  99  99  99  99  98 100 101 102 102 102 102 103 102 103 102 104 103 104 104 102 108 108 109 110 112 110 111 109 109 108 110 110 110 126 133 121 116 113 112 112 108 109 110 109 109 106 107 106 107 108 108 108 107 109 110 109 110 109 110 109 108 108 107 109 108 108 109 108 108 108 110 108 108 110 109 109 107 107 106
  89  90  90  91  93  95  96  95  94  96  99  98  98  98  98  99 101 102 101 102 102 102 103 102 105 103 104 104 104 104 104 105 103 107 105 107 110 115 118 113 110 112 108 110 119 137 141 125 114 107 106 110 110 112 112 109 104  99 101 103 102 103 104 107 108 109 110 111 108 109 108 109 109 110 110 109 109 109 110 109 108 108 110 109 109 110 109 109 110 108 110 110
  90  91  92  93  94  94  95  97  97  98  97  97  99  99 100 100 101 103 101 101 102 101 104 105 104 103 106 106 105 104 103 102  99 104 105 108 116 113 111 110 115 125 135 155 156 149 129 102 103 108 107 115 109 105  95  87  77  72  71  70  78  85  96  99 107 106 108 110 110 108 110 108 108 110 110 110 110 109 108 108 110 109 109 111 110 108 109 108 111 109 108 110
  92  92  91  94  94  94  95  97  96  98  98  97  98 101 100 100 101 102 102 103 104 101 104 103 103 104 108 109 108 106 105 100  96 111 107 107 111 112 113 115 127 135 164 167 156 146 147 168 159 147 131 114 106  92  77  69  67  67  63  63  67  69  74  77  88 102 107 108 110 110 109 109 109 110 110 110 109 109 108 109 109 109 110 111 108 109 110 109 110 111 110 110
  91  93  91  94  94  95  96  94  99  98  99  97  99 100 100 102 102 102 103 103 104 103 103 104 104 106 106 104 103 105 106 105  95 102 103 107 108 100 105 116 144 175 169 166 162 164 152 157 171 181 150 130 108  90  88  79  70  71  66  66  66  64  69  71  71  79  90 104 108 109 110 108 109 109 110 112 111 110 111 109 110 110 112 110 110 109 111 110 110 112 110 109
  92  94  92  95  95  94  96  97  99  99  98 100 100 100 101 103 102 101 104 103 104 104 103 105 115 111 106 106 107 110 102 102  95 102 102 104  93  91 102 128 132 146 144 121 130 119 133 169 162 151 138 120 108  98  86  71  68  65  59  60  56  59  60  61  64  66  72  81  96 106 108 111 111 110 112 110 110 111 110 110 109 109 111 109 111 111 112 111 111 110 108 109
  93  94  95  94  95  96  98  98 101  98 100 101 101 101 101 102 102 102 104 104 104 104 105 114 112 105 104 108 117 116 106 105  90 102 106 100  87  91 100 101 116 112  89  89  92 108 126 136 128 112  96  90  85  77  73  67  66  62  54  53  52  51  51  52  54  52  56  65  75  83  97 107 111 110 111 112 111 110 111 110 111 110 111 111 112 110 112 112 109 111 112 110
  93  95  96  96  97  98  97  96 100  99  99  99 101 100 100 102 103 102 104 104 102 105 109 112 110 117 117 124 144 136 123 108  91  89  87  84  82  87  91  94  85  75  70  76  82  85  96  98  64  45  53  65  76  84  81  73  65  58  51  47  44  44  42  45  46  46  48  51  63  71  78  89 103 109 110 111 111 111 111 111 110 110 110 112 112 110 113 110 110 111 110 111
  96  95  93  97  97  98  99  99  99  99  99 100 101 101 103 103 104 104 104 103 104 106 109 123 150 126 117 117 126 134 130 119  95  86  78  72  74  81  85  71  60  55  53  63  66  66  60  40  36  38  50  60  66  66  61  57  54  48  45  45  42  40  36  39  40  42  41  40  43  52  58  69  83  98 107 111 110 111 112 113 112 111 110 111 111 112 112 113 110 113 111 112
  95  95  95  98  97  98  99  99 100 101 102 102 100 102 103 103 104 104 104 106 105 106 120 135 116 103 126 147 147 144 132 113  95  74  65  68  73  76  68  55  51  45  51  57  55  49  32  27  29  31  32  37  50  60  64  60  52  54  52  50  43  41  42  42  42  42  43  46  47  50  50  49  56  72  90 106 111 111 110 112 111 112 112 111 111 113 111 112 112 112 112 113
  94  95  98  99  99  98  98 100  98  99 101 104 103 103 102 103 104 104 104 105 105 112 125 122 122 150 158 169 164 143 122 102  88  73  66  67  69  63  59  51  48  46  50  45  43  30  25  28  25  26  43  51  61  65  66  68  74  69  59  49  47  44  47  42  42  42  42  43  44  49  52  55  55  55  67  85 104 109 111 112 113 114 113 114 114 112 112 110 113 114 113 112
  96  98  98  98  97  99  99 100 101 100 102 104 105 103 103 103 104 103 104 105 110 106 128 121 124 148 164 158 149 144 130 108  86  76  68  65  59  56  52  46  45  41  40  37  32  25  26  22  25  28  34  43  50  54  67  72  74  67  59  50  45  43  39  43  44  46  47  49  51  50  49  49  53  54  53  61  80 104 109 112 111 114 112 113 113 113 111 110 112 112 111 112
  98  97  99  97  99 101 100  99 100 101 102 104 103 103 104 103 104 104 106 109 109 124 117 128 157 159 154 157 151 146 140 103  79  71  66  58  53  51  47  44  44  36  32  32  27  23  19  21  23  27  31  34  38  47  56  59  57  56  48  44  37  35  33  33  34  37  38  42  45  50  54  55  55  53  52  51  65  90 105 110 111 111 113 114 111 112 112 113 113 112 111 113
  96  98  98  98  99 101  99 101 102 102 103 103 104 103 105 104 104 106 110 110 120 123 139 168 164 156 160 157 170 164 118 102  94  75  67  54  51  48  43  38  38  33  30  29  23  18  18  21  24  23  24  27  28  30  28  33  37  33  25  24  26  27  28  30  32  31  27  28  30  31  34  37  44  47  48  50  55  68  99 107 110 111 113 112 111 111 113 112 113 114 112 114
  98 100  98 100  99 100 102 101 103 102 104 104 104 104 106 107 107 111 116 120 112 127 147 140 151 149 149 167 156 142 141 131  98  74  57  48  45  42  41  40  36  35  29  25  20  18  19  21  22  22  21  23  21  22  26  26  21  24  25  25  27  28  28  27  26  25  28  30  31  34  36  35  37  39  39  44  50  56  82 105 110 112 113 112 113 112 112 113 113 113 114 113
  98  99  99 100 100 100 101 103 102 102 105 104 104 105 105 104 105 105 111 111 116 130 122 131 128 130 140 150 158 169 155 128  92  63  48  42  42  38  38  36  35  35  31  27  25  26  27  29  27  26  26  26  25  27  28  31  30  32  34  31  28  25  20  20  22  24  24  26  27  30  30  33  36  38  38  37  41  47  61  92 108 112 112 111 115 113 113 114 114 113 113 113
 100 100 100 100 101 102 102 103 103 103 104 104 104 105 105 105 106 106 110 108 117 106 113 115 113 117 138 153 167 167 140  99  79  60  48  42  44  41  38  38  37  38  35  32  30  28  27  30  30  31  30  33  35  37  36  37  37  33  29  28  25  24  23  25  27  27  24  24  20  23  24  28  33  43  46  45  42  39  50  79 104 112 110 111 113 113 113 113 112 112 113 113
  99  98  99 102 103 102 103 104 104 103 104 105 106 104 105 107 106 108 109 104 102  97  96  93  99 120 140 144 146 126 120 108  70  47  42  42  41  43  42  45  46  45  45  39  35  33  32  38  42  37  35  36  34  34  34  32  30  27  27  27  28  27  25  24  21  20  21  21  22  23  23  24  27  36  50  58  55  51  48  60  91 109 113 112 112 112 112 112 113 112 111 110
  99  99  99 100 103 101 105 104 104 103 105 107 108 106 108 108 107 102 100  93  83  84  84  91 106 108 111 100  93 118 108  69  42  37  44  47  43  47  50  56  59  60  59  54  47  41  39  38  37  35  31  32  30  30  27  25  25  24  23  20  22  23  23  24  23  22  23  24  24  26  26  27  27  27  36  50  61  60  62  57  73 102 108 108 109 109 108 108 107 106 104 105
  99 100 100 102 101 102 103 104 105 105 105 106 106 107 108 105 101  94  91  84  82  85  89  96  90  82  77  78  88  91  59  43  38  40  50  52  56  59  69  75  75  81  80  76  67  55  48  49  46  43  36  34  34  32  33  30  29  27  25  25  24  23  23  26  27  26  25  26  27  28  28  28  32  34  33  39  54  54  56  64  64  75  96  98 103  99 100 102 105 102 103 103
  98 100 102 102 104 104 104 103 103 106 104 107 106 107 107 105  94  89  80  73  78  83  85  80  74  70  74  78  76  53  46  43  46  51  57  64  72  78  87  88  91  96  88  84  76  65  60  58  54  51  47  40  38  37  35  34  33  32  29  25  25  25  25  25  26  27  28  28  30  29  28  30  31  28  31  35  45  55  51  52  59  63  88 113 118 120 123 124 126 131 132 131
 100 100 102 102 102 103 105 104 105 105 104 105 105 105 104 103  85  81  75  75  79  77  73  69  67  72  70  68  50  46  44  49  57  65  71  82  88  95 100  97 102 104  98  91  85  76  71  67  64  58  54  48  48  44  39  36  38  35  33  30  27  28  28  27  26  25  28  27  31  34  36  37  36  32  30  29  33  42  50  47  50  54  66 110 132 135 136 139 139 138 140 140
 101 100 102 102 101 104 104 104 104 104 105 105 105 104 103  95  85  81  81  78  75  71  70  63  65  67  53  48  51  49  55  62  71  79  87  96 105 108 106 106 108 108 105  99  92  85  79  73  71  66  61  57  55  51  48  45  43  41  37  34  29  30  30  31  30  30  30  31  33  35  36  36  44  43  35  33  30  33  44  47  49  49  52  75 127 138 140 140 140 139 141 141
  99 100 101 101 100 101 101 103 103 102 102 101 100 100  97  90  82  74  80  70  67  70  62  61  60  43  43  46  49  54  65  72  85  93 104 116 118 119 113 111 112 109 109 106  98  90  84  80  76  72  69  66  60  58  51  50  49  47  44  38  37  33  33  32  33  33  33  33  35  36  37  31  32  40  41  37  35  31  34  42  47  47  47  56  89 135 139 140 141 141 141 141
  92  94  94  93  94  95  97  96  95  95  96  98 100 100 100  92  84  75  73  66  60  55  51  47  37  39  46  44  52  66  78  87  99 111 121 127 125 122 123 120 115 111 112 107 103  96  90  85  83  79  76  71  69  65  62  55  53  51  50  46  42  38  34  34  36  36  36  35  37  37  37  35  35  35  34  37  37  34  32  34  41  45  45  46  51 105 137 140 140 140 140 141
 104 107 107 111 114 113 117 119 119 123 125 127 127 125 123  97  89  73  70  62  53  47  40  38  39  45  46  50  66  82  94 104 114 127 132 129 128 129 126 121 116 114 112 109 106 101  94  91  87  81  80  78  77  72  68  65  59  57  54  50  46  45  42  39  40  41  42  41  40  43  39  33  34  33  31  32  34  34  33  32  33  40  46  44  46  53 125 139 141 141 141 141
 125 125 126 126 127 129 128 129 131 130 131 131 131 133 128  97  80  67  54  42  38  37  40  37  44  51  53  63  83  98 109 117 129 135 134 132 132 133 131 126 120 116 113 112 109 101  97  94  92  87  88  83  82  78  74  71  68  62  61  58  53  49  46  46  48  45  44  45  46  45  44  39  35  32  30  27  27  30  30  31  31  34  41  47  45  47  70 133 140 140 141 142
 127 129 128 128 129 131 132 132 131 132 133 132 133 133 130 103  73  58  47  43  39  41  44  40  48  54  64  81 100 111 121 130 138 139 138 137 138 137 132 128 122 121 117 115 109 105 103 101  98  94  92  87  83  82  80  80  79  71  67  67  66  62  55  50  45  46  47  47  45  46  47  44  38  36  31  28  27  27  28  27  27  30  36  42  45  46  53 113 139 141 140 140
 127 128 129 128 129 130 130 131 133 133 135 133 134 133 132 109  71  55  46  41  45  47  44  44  55  66  82 100 113 126 133 141 143 141 143 141 142 140 133 130 125 122 117 114 110 110 107 107 104  98  94  91  89  89  88  85  85  83  82  78  76  74  69  64  59  55  48  51  55  56  52  47  43  40  32  26  24  23  25  26  26  26  29  36  41  43  50  83 136 141 141 142
 127 129 129 130 130 131 133 133 134 134 133 135 134 134 134 112  68  50  43  42  47  46  45  51  64  82 100 115 125 134 143 147 147 146 143 144 147 143 138 133 127 123 121 118 115 112 110 108 104 101  97  93  92  92  91  90  89  88  88  86  84  83  82  79  74  71  69  64  58  59  58  56  50  46  41  31  26  23  23  25  27  26  26  30  35  39  50  67 123 138 140 141
 129 130 129 131 130 131 133 132 134 133 135 135 135 134 133 116  62  49  41  45  45  46  47  57  78  99 119 127 134 142 148 149 149 147 145 150 148 145 142 136 134 128 123 121 117 113 112 110 108 104  98  94  94  94  94  93  93  93  92  93  92  89  90  89  90  87  86  84  82  76  70  67  66  64  55  40  30  25  24  22  23  26  28  29  33  39  46  52  73 112 127 134
 130 130 131 130 131 134 133 131 134 133 135 135 137 134 135 114  63  51  49  43  43  46  51  68  99 121 129 135 140 146 150 149 152 151 156 154 151 148 146 143 138 131 124 123 122 118 115 113 110 108 103 102 101 101  99 100 100 100  99  99  99  98  99  98 103 100  98  95  93  91  90  87  82  83  77  62  36  29  25  23  23  23  26  28  33  35  46  51  54  57  88 135
 129 130 133 132 131 132 135 134 137 135 136 135 135 136 135 124  65  50  43  40  43  49  55  86 119 132 134 139 140 147 152 152 157 161 162 164 159 153 151 146 142 134 127 126 124 121 121 121 117 117 113 110 108 108 110 107 106 107 107 106 109 108 107 107 113 106 104 103 103 101 101 100  99  96  90  83  57  35  28  25  22  21  23  26  28  30  37  49  63  78 108 141
 130 131 131 132 133 133 133 135 135 135 136 136 136 137 136 117  62  46  42  45  44  50  63 112 129 138 137 143 150 154 157 160 166 168 166 165 159 158 152 146 141 135 129 128 126 124 123 123 122 121 122 119 117 114 115 113 112 113 115 116 118 117 117 118 127 119 112 110 110 110 108 110 111 109 104  96  77  46  31  28  26  24  24  24  26  29  32  44  56 101 135 143
 130 131 132 131 133 134 134 134 135 137 137 135 137 138 137 106  69  46  43  44  46  57  82 122 136 139 142 149 155 160 163 165 168 167 167 164 157 150 144 141 136 131 128 128 128 125 126 126 123 126 126 124 122 119 118 118 118 120 118 119 122 123 125 129 140 130 124 120 120 117 116 114 117 117 114 104  88  59  40  30  27  27  26  26  26  27  32  51 103 121 138 142
 131 131 133 133 135 134 135 134 136 136 137 137 138 137 137 114  74  53  45  43  51  66 110 134 143 146 151 156 158 165 168 168 168 162 162 156 150 147 142 138 132 128 128 127 128 128 126 128 126 128 131 124 120 118 118 120 118 119 119 121 123 123 129 130 139 137 131 125 125 122 120 121 120 119 118 111  97  71  48  35  29  28  30  30  28  29  31  52 123 139 142 142
 132 134 134 134 134 135 136 136 138 137 138 139 139 139 138 113  65  52  46  48  55  88 125 142 148 152 156 161 165 168 167 167 159 155 152 145 141 139 136 134 127 127 126 125 127 129 126 128 129 129 128 123 122 118 117 117 117 117 118 119 119 121 127 125 129 132 132 130 126 125 122 122 119 119 121 115 105  82  57  40  34  31  31  30  31  31  30  38  99 134 141 140
 134 135 136 135 135 136 137 136 138 139 138 138 138 139 139  98  60  45  47  52  66 106 138 146 150 157 164 167 166 166 164 157 152 147 141 138 133 128 130 128 124 121 123 123 124 126 127 131 128 124 125 123 121 116 113 112 111 112 112 113 117 119 121 124 125 127 130 130 129 126 125 123 120 121 120 120 109  88  62  47  37  32  31  30  31  37  36  34  52 119 136 140
 135 137 138 137 137 138 140 138 139 138 138 140 141 141 138  84  59  41  52  60  82 127 149 154 158 164 166 166 166 161 157 148 142 134 133 131 127 125 124 122 119 118 120 116 121 122 123 124 124 120 121 119 115 110 106 109 105 106 107 109 110 113 116 118 120 125 128 129 129 128 125 124 121 120 121 120 114  96  69  52  39  35  31  31  31  40  59  38  37  80 112 128
 138 137 137 138 139 140 142 139 140 143 143 143 143 143 136  86  58  47  55  65  91 144 153 159 165 169 168 162 159 153 147 141 132 126 122 121 119 118 115 113 114 113 115 114 118 119 116 121 116 112 111 113 108 105 103 103 105 104 106 104 105 109 112 113 115 121 125 128 129 128 126 125 122 123 119 122 115 101  74  56  45  36  34  32  32  37  77  67  54  77 107 122
 139 138 140 141 142 142 143 142 143 144 144 145 145 139 130  76  49  41  56  66 113 156 161 166 175 174 167 153 147 142 133 123 110 104 101 100 105 102 103 108 107 108 111 112 114 114 111 114 111 106 106 102 100 101  97  97 101 102  98  99 101 104 108 109 113 117 123 127 128 128 128 125 123 123 120 119 117 106  82  61  48  41  36  33  32  34  59 118 119 124 128 135
 139 142 142 141 143 145 145 144 145 145 145 145 144 140 122  75  45  41  60  69 128 165 170 172 179 172 155 136 123 114 101  90  76  70  70  74  80  82  91  93 101 104 106 106 110 110 108 110 107 103 100  91  90  92  83  88  86  84  85  89  89  91  97  98 102 107 115 125 126 130 130 128 124 121 120 119 118 110  86  61  49  43  38  33  31  31  38 109 139 142 145 146
 142 142 143 145 145 146 148 147 147 148 149 149 146 143 116  78  47  43  63  73 146 171 177 180 169 139 125 105  92  75  66  56  53  47  47  55  60  63  75  84  92  98  99 101 107 106 105 108 103  98  93  84  79  77  69  73  69  65  59  59  57  67  70  76  79  91 100 110 116 124 129 130 128 123 122 121 118 113  90  62  51  45  40  36  32  30  35  69 136 147 149 150
 145 146 147 147 147 148 148 150 150 149 151 149 148 144 116  81  47  44  60  72 162 178 170 144 120  99  85  68  60  56  54  51  50  46  45  49  51  55  63  72  83  90  94  98 102 100 101 102  97  93  87  81  68  66  56  58  57  54  45  42  40  38  38  46  51  60  70  80  92 108 118 124 127 126 122 121 118 115  97  67  52  47  40  39  36  33  39  49 128 149 151 152
 148 148 149 150 150 151 152 153 152 151 150 152 152 148 124  78  53  45  59  73 174 167 132 108  91  73  61  54  52  49  49  48  53  48  50  50  50  55  58  70  76  86  92  96  96  96  97  94  92  88  81  75  65  57  51  49  51  45  40  35  35  34  34  37  41  44  50  56  62  73  87 101 120 125 123 121 120 120 102  72  51  48  39  37  36  34  45  58 122 150 153 153
 151 150 152 152 153 153 153 153 153 154 154 155 156 152 142  79  55  46  59  83 166 119 106  93  84  80  76  74  73  67  67  64  61  60  57  60  56  58  61  68  78  88  92  96  95  93  92  90  90  86  76  69  63  54  51  48  46  40  37  37  34  34  36  36  37  37  39  42  49  60  70  75  90 112 123 123 121 119 107  72  49  48  39  38  39  38  54  74 141 150 153 153
 152 153 153 154 154 156 156 155 155 156 157 157 160 158 151  91  55  46  58  89 117 106 104 100 101  99  98  99  96  93  90  90  84  80  83  80  76  72  68  72  82  91  93  97  99 101  94  88  85  84  77  68  63  56  53  52  50  44  43  45  42  46  52  50  52  49  48  45  49  53  61  66  73  81 100 113 122 120 111  73  46  46  39  36  38  43  65  91 134 153 154 153
 153 154 155 157 158 158 156 156 157 159 159 159 160 160 158  96  56  45  57  96 120 115 116 122 122 119 115 110 104  98  91  89  85  85  86  87  87  88  90  89  91  95  98 105 107 103  97  89  84  83  78  71  69  65  63  64  62  59  57  60  64  65  68  65  69  69  68  66  65  59  57  61  67  72  79  88 114 120 113  76  44  44  38  36  38  43  54 118 144 154 155 155
 156 157 158 158 161 160 162 160 160 161 160 162 162 162 160  94  55  47  54 107 119 122 131 132 130 123 118 111 103  94  90  89  84  81  81  84  84  86  90  94  99 100 109 119 118 111 101  93  88  86  78  73  70  68  67  65  62  62  61  63  64  68  69  72  72  76  78  80  80  77  76  73  70  72  71  75  94 116 116  77  41  43  37  36  39  47  57  97 148 155 156 156
 157 161 161 160 162 162 162 163 162 162 162 165 165 164 158 101  64  50  56 123 130 130 137 136 129 119 105  93  81  73  64  61  60  60  66  77  79  81  82  87  96 108 122 131 130 120 110 102  95  89  82  75  69  66  62  60  58  60  57  59  55  58  59  64  67  70  77  82  85  87  86  85  79  79  73  76  85 106 117  79  42  43  36  36  39  47  59  97 149 156 158 158
 162 161 162 162 162 164 164 164 165 164 165 166 166 164 162  99  70  55  55 141 136 137 140 130 113  90  75  60  53  44  37  37  39  49  52  50  60  73  76  82  91 104 124 137 136 130 121 111 103  92  82  73  67  62  57  56  53  47  39  43  42  41  38  37  39  48  59  71  79  85  88  92  91  88  79  78  81 100 119  80  42  43  34  35  41  48  62 124 152 159 158 160
 165 163 164 165 165 166 166 165 167 166 167 167 167 165 160 110  67  55  58 153 140 138 134 112  89  68  52  69  68  37  32  31  31  39  52  53  55  59  68  79  89 100 123 139 145 141 133 121 110  96  79  69  64  58  54  50  46  44  44  42  45  49  34  28  25  27  34  41  52  69  84  92  95  93  90  87  88 101 117  90  40  41  36  33  36  44  60 123 158 161 161 161
 166 167 167 166 166 168 167 167 168 168 169 169 169 166 160 120  89  71  66 166 142 137 122  93  68  51  90 121  74  38  28  25  30  34  52  52  48  53  65  74  87 103 127 147 164 161 152 140 123 102  80  68  62  58  52  48  50  44  43  48  60  41  32  27  23  26  33  48  40  51  63  81  94  96  95  95 100 108 118  95  44  41  36  35  36  39  53 126 156 161 163 163
 166 167 169 168 168 170 170 171 169 170 170 171 170 169 166 172 178  99  70 166 145 133 106  82  52  63 109 113  54  42  32  27  30  34  50  54  46  42  55  82  93 111 147 173 185 174 164 154 143 123  88  65  59  56  52  49  40  42  48  55  59  34  29  23  22  27  31  58  61  42  52  62  83  97  98  98 102 114 121 100  46  42  37  39  37  38  56 128 159 163 164 163
 168 169 169 168 171 170 171 172 172 172 173 173 174 174 172 173 174 106  79 164 143 125  97  75  77  81  92 103  73  46  38  32  37  40  51  52  51  57  72  94 104 130 170 192 195 184 173 165 155 140 107  70  59  58  56  39  36  40  45  50  54  35  31  25  23  39  38  66  68  46  36  54  69  89  96 100 106 119 126 109  45  43  39  41  38  37  53 106 156 165 165 166
 171 171 172 170 173 173 173 174 174 174 174 174 175 175 176 162 144  83  99 164 141 116  94 104 115 113 102  95  88  78  70  74  74  71  69  71  78  85  95 105 117 149 174 191 198 186 177 165 157 142 116  88  68  62  59  53  49  46  46  48  49  42  36  32  30  41  46  62  55  49  44  45  60  74  89  97 104 119 127 115  50  41  39  37  41  40  53  76 137 164 165 168
 172 172 172 174 174 175 174 175 175 175 176 174 176 175 176 169 107  69 108 163 144 118 109 122 134 131 122 116 109 101  91  84  79  77  76  76  82  90 100 113 135 162 182 201 203 194 184 168 158 140 124 105  84  69  62  59  56  55  54  54  57  58  60  60  60  63  63  62  72  77  72  56  52  66  82  92 104 118 128 121  51  43  39  40  44  45  58  81 108 153 166 168
 174 173 174 175 175 174 176 176 177 177 178 179 179 178 178 156  78  66 120 177 165 147 144 136 131 129 126 119 110  98  89  83  77  72  77  86  93 102 115 126 152 172 188 206 216 201 184 169 158 143 130 117  97  81  71  64  61  59  58  59  62  66  68  71  77  79  84  86  95  97  93  76  60  57  73  89 107 119 128 125  61  41  39  42  45  54  73  78  90 142 166 169
 175 174 175 176 175 176 178 178 181 180 180 180 180 181 173 142  66  67 125 195 198 188 168 150 130 119 110 101  94  87  82  80  84  91  96 102 110 119 126 137 161 179 196 214 219 203 186 167 154 143 132 120 108  89  84  75  70  68  67  63  62  62  64  69  76  82  87  89  94  95  94  90  82  78  84  93 107 119 128 127  70  42  41  49  58  66  69  73  85 133 167 169
 177 180 179 179 177 180 180 180 181 179 182 182 182 182 179 163  66  76 138 205 207 196 185 177 158 137 118 110 106 105 104 105 108 111 112 117 124 128 134 148 170 187 205 223 219 204 184 169 155 144 131 124 116 102  88  86  84  79  77  74  72  67  63  64  65  69  74  78  83  90  99 109 111 111 110 111 116 123 128 128  79  44  43  57  70  82  70  72  81 122 168 170
 180 180 181 181 180 181 181 182 183 181 183 184 183 183 186 141  79  86 146 202 203 199 200 196 179 161 142 130 122 120 120 120 120 123 124 127 129 132 138 156 178 195 209 219 210 196 177 168 155 145 134 125 117 109  96  89  92  90  89  85  85  83  82  80  78  79  82  86  97 108 112 114 118 123 124 123 124 127 128 129  85  46  43  58  73  87  76  64  74 108 167 171
 182 182 182 182 181 182 183 182 183 183 183 183 183 184 178 117 111  95 153 197 201 208 210 206 192 177 162 146 135 128 127 127 125 126 127 128 131 135 145 168 190 201 198 203 195 184 172 162 156 148 138 128 120 115 106  96  93  95  97  97  95  95  96  97  97 103 104 113 119 123 125 125 124 124 126 126 127 130 130 129  92  50  47  55  70  85  80  63  68 106 169 174
 183 182 182 183 184 184 184 184 184 186 184 184 184 184 167 111 135 107 160 193 208 218 216 207 194 181 170 158 144 134 129 125 124 125 129 131 135 141 152 181 198 202 200 198 185 175 164 158 154 146 140 132 121 117 111 104  99  98 100 101 102 102 104 109 112 117 121 125 128 130 132 130 129 127 125 126 128 129 133 129  96  55  49  61  80  94  90  71  72 117 169 174
 184 184 185 184 185 186 186 187 185 185 186 184 187 188 170 129 141 118 162 196 210 212 209 202 192 181 172 161 148 135 129 125 124 127 129 134 140 144 159 194 200 201 204 199 182 173 165 156 149 143 138 136 125 117 116 114 110 106 103 102 104 109 112 113 117 118 123 128 131 134 135 131 130 130 127 126 126 127 132 130  99  58  51  74  90 100 104  78  79 124 171 175
 186 186 186 185 187 186 188 188 187 188 188 187 188 189 182 151 128 120 170 196 203 202 198 191 187 180 170 161 150 138 131 126 125 128 131 137 144 147 178 200 203 206 205 192 178 169 162 158 148 143 138 134 129 118 114 116 115 113 108 106 105 109 112 116 120 122 123 126 131 132 133 132 131 128 128 126 127 128 132 129  94  60  56  81  93  99 112  84  84 140 173 176
 187 187 188 187 187 189 187 188 188 189 190 188 190 190 187 161 114 103 172 190 197 195 192 186 180 177 166 161 150 142 134 130 128 130 135 140 143 157 192 198 201 201 189 174 158 151 150 145 143 138 134 132 129 123 111 108 112 115 111 110 108 109 113 118 121 123 125 126 128 127 127 129 128 127 128 129 127 128 131 126  88  59  60  79  87  94 107  94  93 156 175 177
 188 187 188 188 187 189 189 190 190 190 190 189 191 191 188 170 118  94 166 186 190 190 188 186 180 169 162 151 145 142 136 132 129 132 137 139 145 180 186 186 191 181 167 149 131 129 130 128 126 123 122 122 126 121 118 106 104 108 109 111 110 108 111 115 118 120 124 125 127 126 123 121 126 126 126 128 127 128 132 123  80  58  60  74  83  87  97 106 111 170 177 177
 189 190 190 189 189 190 191 192 192 191 191 189 191 192 191 180 151  98 156 184 185 186 185 179 168 163 158 152 147 141 135 131 132 132 133 132 163 178 169 167 167 156 144 129 119 115 114 111 107 110 108 110 114 117 119 114  94  98 100 102 106 108 108 113 117 119 121 121 125 126 124 120 122 122 127 126 125 128 131 117  74  79  65  72  76  77  89 108 137 175 177 178
 190 191 192 190 189 191 192 192 191 191 191 193 193 195 193 187 187 143 153 180 179 181 176 171 164 159 154 146 142 137 134 131 128 127 126 131 176 167 148 143 142 136 129 121 111 109 104 100 100  97  99 102 107 113 118 117  94  88  92  97 101 107 109 111 114 118 119 118 123 123 125 121 124 123 124 125 126 128 129 110  76 112  79  69  67  65  77 109 155 178 179 179
 192 191 190 190 192 192 192 193 193 193 192 193 194 194 195 189 184 203 176 175 178 176 168 165 159 152 146 141 135 136 131 126 123 120 119 136 170 151 133 126 126 126 121 113 103 101 100  99  97  91  91  94  99 104 111 115  92  81  84  91  97 101 105 110 113 114 118 120 124 126 126 125 125 123 124 124 125 126 127 101  96 117  85  65  61  63  76 111 162 179 179 179
 193 191 191 193 194 194 193 195 195 192 194 194 195 195 196 193 176 177 191 173 174 170 162 157 152 148 143 142 136 130 125 121 117 113 114 134 148 132 119 108 102 118 121 109 100  98  97  94  89  79  81  89  93 100 106 108  90  78  80  85  92  96 100 106 109 113 113 118 120 124 125 125 124 124 121 122 124 123 123 100 108 113  87  62  62  68  88 114 170 179 180 180
 191 192 193 194 194 195 194 195 195 194 194 194 196 195 196 197 205 198 197 169 161 155 155 150 146 141 138 138 131 126 120 118 111 107 114 123 131 118  97  62  47  58 112 107  99  98  97  87  56  40  31  50  87  94 101 103  85  78  78  83  87  92  96 100 103 108 111 112 117 120 122 122 121 123 122 120 121 121 121 114 113  95  77  65  72  88 106 126 175 183 182 181
 193 193 194 194 193 194 194 192 195 196 196 196 196 196 196 198 211 222 180 162 158 146 147 144 134 136 135 131 125 120 114 111 106 108 117 128 127 113  88  74  70  78 104 110 102  98  97  82  64  54  42  44  63  89  94  95  83  82  83  83  84  89  93  96 100 103 107 110 114 120 120 120 122 123 123 120 121 120 121 118 105  93 104  99  98 106 110 143 179 184 183 183
 195 193 194 195 195 195 195 196 196 195 195 197 196 197 198 199 202 195 161 158 154 142 140 141 132 132 131 126 121 114 110 107 107 112 124 134 134 128 100  91  93 100 108 107  99  95  93  84  75  72  65  59  62  74  88  95  92  89  88  86  82  86  91  95  99 102 103 106 112 116 119 117 122 122 124 122 119 122 120 113  82  90 117 120 101  99 115 166 182 183 184 183
 194 193 195 194 196 195 196 197 196 196 197 196 197 198 197 198 194 170 152 152 149 145 141 138 136 134 129 123 119 112 107 105 109 118 128 140 143 138 120 107 106 108 106 100  96  91  84  81  76  74  71  68  65  76 102 104 102  95  92  91  84  83  86  92  98 100 101 106 109 113 116 119 122 121 124 123 121 125 114 112 104 107 118 124 109 111 139 180 182 184 184 183
 193 195 195 194 196 196 196 196 196 196 196 198 197 198 198 198 197 166 149 149 147 145 140 137 135 133 128 120 115 110 105 104 111 124 136 144 143 143 128 115 114 111 109 103  95  88  85  82  79  77  75  75  76  95 108 109 107 100  92  93  89  81  83  89  94  97  97 102 102 110 113 119 123 120 123 122 122 124 108 109 117 112 108 120 125 127 167 182 184 185 187 185
 195 194 193 195 196 196 195 196 198 196 198 199 197 199 200 199 198 191 163 149 145 143 139 136 136 133 127 120 113 105 101 104 117 127 142 150 150 149 135 118 115 112 106 102  94  87  89  86  82  81  80  84  93  98 112 113 111 105  98  93  89  84  80  86  90  93  95  99 103 108 110 115 119 121 123 123 122 123 104  97 101 102 102 109 126 154 181 184 184 185 186 186
 195 196 195 195 197 197 197 197 197 196 197 199 199 198 199 201 198 202 195 173 150 142 142 137 134 132 126 119 109  98  99 110 123 132 149 158 159 157 145 125 120 112 106  98  92  87  91  87  85  85  81  92 100 105 109 112 112 106 101  91  81  81  79  83  87  93  96  97 100 105 109 111 117 121 121 122 123 118 102 101 100 103 102 108 139 175 185 185 185 185 185 185
 194 195 196 194 196 196 197 196 198 198 199 200 200 199 201 202 203 204 201 196 157 144 141 137 134 131 126 113 101 100 108 118 129 142 161 165 164 163 154 140 127 114 105  97  88  85  91  90  85  85  82  93 101 103 107 106 109 111 106  94  89  86  85  84  86  90  93  97  99 104 107 111 116 120 121 121 124 115 105 110 111 109 110 121 172 184 187 186 187 186 185 185
 197 195 196 197 196 196 197 197 197 197 196 197 199 201 201 203 204 203 200 199 169 145 142 137 132 130 121 104  97 109 120 128 137 158 168 169 168 168 154 143 127 115 103  93  86  88  92  95  89  87  89  94 102 106 105 107 105 109 107  99  93  88  85  84  87  89  92  95  97 101 107 110 114 119 119 122 125 111 102 105 107 108 123 168 182 186 187 186 186 186 186 186
 196 196 196 197 195 196 197 198 197 197 197 200 199 200 202 204 203 202 201 201 177 146 143 138 133 129 116  96 104 122 130 136 153 168 175 170 170 166 155 142 129 115 104  90  86  90  90  96  91  88  89  94  98 106 109 107 107 110 110 104  96  89  86  84  84  89  88  93  99 101 107 111 114 118 118 122 127 134 115 104 114 142 177 183 187 188 188 188 187 187 186 186
 194 195 196 197 197 196 198 198 196 198 198 200 199 202 202 202 202 203 203 202 188 147 145 140 132 128 114  94 120 130 137 140 153 166 171 168 167 162 151 142 128 119 108 100  94  93  92  97  95  94  93  98 104 106 109 112 114 114 113 112 103  90  87  87  85  90  91  93  98 102 107 109 115 118 118 122 128 171 182 180 183 184 187 187 188 188 189 188 187 187 186 186
 196 196 196 197 197 199 197 199 198 198 198 199 199 202 202 202 203 203 204 200 196 152 145 138 133 128 116 109 130 132 132 135 144 153 151 145 139 133 124 115 109 106 107 106 103 102 100  96  94  92  94 100 102 104 108 111 113 114 114 111 106  99  92  93  91  91  93  94  97 102 106 109 115 118 120 123 135 180 188 187 188 188 189 188 188 188 189 190 187 187 188 188
 197 197 196 197 196 197 198 197 198 198 200 199 202 203 200 200 203 203 203 202 199 161 145 140 134 133 121 120 129 122 118 116 119 117 113 110 104  97  96  94  90  88  90  92  96  96  90  84  77  76  77  82  89  95 101 107 110 112 113 112 106 101  93  94  92  93  94  96  98 102 106 111 116 115 117 125 144 182 189 188 188 189 189 188 190 188 189 190 190 188 188 188
 198 198 196 196 197 198 199 199 199 200 199 200 201 201 204 204 203 203 201 203 201 168 147 139 134 132 127 120 124 112 105  92  69  58  77  86  88  85  83  88  88  88  84  82  81  78  73  72  69  65  68  69  72  77  82  89  97 100 106 106 101  99  93  93  93  94  95  97  98 106 108 111 113 115 118 124 152 185 189 190 189 190 191 190 189 190 190 189 188 188 188 187
 196 198 197 198 198 199 198 198 198 199 200 202 200 202 204 204 204 201 201 204 201 179 147 143 136 134 130 124 123 114 111 102  75  53  42  47  84  83  89  95  87  92  86  80  78  74  71  70  69  68  70  68  66  67  69  73  75  82  88  90  89  89  88  89  94  94  96  97 100 106 110 110 113 116 120 125 160 186 189 191 190 191 190 189 190 189 190 189 188 189 189 188
 199 196 197 197 198 197 198 198 199 200 199 202 203 204 203 203 203 200 200 203 202 187 150 142 137 134 132 127 124 120 119 120 107  83  66  53  73  78 101 106  96 119 109  91  85  75  70  75  74  75  73  64  64  63  64  66  68  68  69  68  71  79  82  85  92  93  96  99 101 104 112 113 113 116 122 128 170 186 188 189 190 190 190 191 189 190 190 190 187 188 188 189
 198 197 197 197 197 198 199 199 199 199 201 201 203 202 204 201 202 201 200 200 201 196 157 143 136 132 131 128 126 124 125 128 120 104  97  89  79  70  79  92  90 124 115 104  99  85  82  89  87  87  78  63  70  66  57  53  51  38  35  41  59  76  80  84  92  96  99  98 100 104 110 115 116 118 121 131 180 188 190 190 191 190 190 191 190 190 191 191 189 188 188 189
 199 197 197 197 197 199 198 200 200 200 201 202 200 201 202 201 204 201 200 199 199 198 177 145 139 134 133 131 126 126 128 130 127 115 114 113 105  92  79  73  55  80 103 100  95  69  82  88  86  85  78  59  65  56  36  42  38  37  45  59  75  82  85  87  93  96  97  99 102 105 109 114 117 119 122 142 182 189 190 191 191 189 190 190 190 190 189 190 190 188 188 187
 196 196 196 196 196 197 197 198 198 200 199 200 203 202 201 201 200 200 199 197 199 199 193 150 139 135 135 131 129 129 130 129 131 122 120 127 126 109  92  84  77  69  66  64  51  46  49  62  63  61  47  38  38  42  45  49  54  61  68  79  86  88  89  89  93  98  96 100 101 108 111 114 116 120 124 155 185 189 189 190 192 188 191 190 190 190 190 189 191 189 189 188
 194 195 196 196 197 197 196 197 199 200 200 200 200 200 200 201 200 199 198 198 198 199 198 165 141 136 135 131 130 129 131 130 131 128 124 125 129 124 105  92  87  86  84  75  66  68  64  57  60  59  56  58  62  67  69  70  72  74  83  90  94  92  91  92  94  98  99 102 102 108 112 114 116 120 125 161 187 189 190 190 192 190 190 190 190 190 190 190 189 189 188 188
 196 197 196 197 198 197 197 198 199 201 201 202 201 201 201 201 199 199 199 198 198 200 199 186 144 137 135 131 131 128 129 130 128 129 127 122 121 122 107  93  89  88  83  78  80  77  73  68  68  71  72  77  80  85  79  76  78  83  91  95  96  94  94  93  96  97 100 102 105 108 111 114 114 119 124 178 188 190 192 191 190 191 190 190 189 189 188 188 188 188 188 187
 197 197 195 196 196 196 199 198 199 200 202 199 201 201 201 201 200 199 198 198 200 200 198 194 162 135 133 132 130 117 121 128 128 131 126 119 114 110 103  95  91  86  84  79  80  74  73  72  73  72  77  86  84  81  80  79  85  92  96  98  98  99  95  94  96 100 101 102 106 108 111 113 113 121 162 186 191 190 190 189 190 190 189 189 189 188 187 188 187 188 187 188
 196 197 195 196 196 198 198 198 197 199 199 199 200 202 201 199 197 198 198 198 198 198 197 196 183 136 134 131 131 120 121 129 127 130 128 121 115 105  99  95  89  88  84  78  79  83  76  76  75  73  78  77  78  75  78  82  91  95  96  97  98 100  99  95  98 101 103 104 104 111 109 111 116 134 182 189 190 189 190 190 190 190 190 189 188 188 189 189 189 188 187 187
 196 196 195 196 196 197 198 198 198 199 199 199 198 200 200 198 198 198 198 197 198 198 197 198 194 158 134 131 132 129 127 130 128 131 129 124 119 109 102  98  93  87  81  76  77  76  73  74  72  74  74  75  73  79  86  88  94  95  96  97  98  98 100  97  99 103 102 101 106 109 111 111 115 164 186 188 189 189 189 189 189 189 188 190 191 190 189 188 189 188 188 188
 195 194 196 195 196 196 196 197 198 197 200 199 198 199 200 198 197 197 198 198 197 198 197 197 197 184 137 132 134 133 131 132 129 131 130 123 119 114 108 103  97  90  86  82  78  74  72  72  72  70  72  76  80  86  88  90  92  95  96  98  97  96  95 100 101 101 102 104 107 110 111 114 141 182 188 190 190 189 188 190 189 189 190 189 190 190 189 188 187 186 188 188
 195 194 195 195 194 196 195 198 197 197 197 198 198 198 199 198 197 196 196 196 197 197 196 198 198 193 162 132 131 133 133 133 131 132 128 126 119 114 109 104  97  94  93  90  84  83  79  77  78  77  81  84  83  84  88  91  91  93  94  97  98  97  96 100 105 104 103 106 104 107 109 113 165 185 189 190 189 188 190 188 190 188 189 189 186 187 188 188 189 187 186 187
 194 194 194 195 193 195 196 196 196 197 197 196 198 197 199 198 198 196 196 196 197 196 196 197 198 196 188 139 131 134 136 135 133 133 131 130 122 115 110 102  96  93  86  86  84  80  81  84  84  85  86  85  86  87  88  90  92  93  93  95  98 100  99 102 105 106 106 105 105 106 108 119 170 186 189 190 189 188 189 189 189 188 188 188 188 189 188 190 189 187 187 186
 193 193 194 194 194 194 195 194 197 196 196 196 198 197 198 198 197 195 196 197 197 196 197 197 196 196 193 168 132 134 136 137 134 135 133 129 122 119 111 104  97  90  84  80  75  75  77  78  80  82  81  82  85  88  88  90  93  95  93  96  99 101 103 102 103 106 106 105 105 104 113 130 176 188 189 188 187 188 189 189 188 188 189 189 187 187 187 188 188 188 187 188
 194 194 193 193 193 194 196 195 197 197 196 197 196 197 197 196 194 196 194 195 196 196 195 195 196 196 194 174 135 130 136 139 138 136 132 132 126 124 117 110 100  93  85  79  76  74  73  74  74  75  79  84  87  89  89  92  94  95  96  98  99 101 104 106 103 105 102 102 100 107 115 135 178 190 188 188 190 190 190 188 188 188 188 188 188 189 186 188 189 189 188 187
 193 192 192 191 193 193 194 195 196 195 194 196 196 196 193 196 194 194 194 194 194 196 195 194 194 190 131 145 145 130 132 136 137 137 136 133 132 127 119 114 108 102  93  87  81  77  74  75  76  78  80  85  87  89  92  96  96  98 101  99 100 100 104 105 107 106 100  98 104 107 113 136 180 188 188 189 189 188 187 190 190 188 187 189 188 187 188 188 189 189 187 187
 193 192 192 192 192 192 193 194 195 195 196 195 195 194 197 196 194 194 193 193 194 194 195 186 169  91  48 118 147 135 127 132 134 136 137 138 133 128 122 114 107 104 100  95  91  84  78  81  80  82  82  87  89  94  97  98  98 102 102 102 102 100 106 104 103 100  98 102 105 108 115 139 182 187 188 189 189 189 189 188 187 188 188 189 188 189 189 189 188 189 188 189
 192 191 193 193 192 193 193 193 194 195 195 195 195 194 195 193 193 194 192 193 191 176 141 115 113  57 102 164 150 140 130 130 134 136 135 138 135 131 122 113 105 104 101  98  96  89  86  84  83  85  84  92  94  97  97  98 100 102 102 104 104 100  98  99  97  94 100 104 105 108 114 144 182 185 186 189 188 188 188 188 189 187 189 188 188 189 189 189 187 188 188 188
 190 190 192 191 192 192 193 193 193 193 195 195 195 193 194 193 193 191 185 161 133 119 115 111 103 140 206 176 151 142 134 125 128 131 133 136 134 130 126 114 103 104 101 101  97  94  90  91  90  90  92  93  97 100 103 102 103 105 104 102 100  96  97  95  92  96 101 104 106 108 114 130 149 163 184 187 188 188 188 188 188 189 187 187 188 187 189 188 187 186 188 188
 190 190 192 191 192 192 192 192 192 191 193 194 194 193 193 194 179 138 117 114 114 107 108 104 114 210 214 179 150 141 134 126 124 128 133 134 130 127 118 112 106 102 100  99  95  94  91  90  94  96  98  95  98 102 103 105 102 105 105 100  96  94  90  89  93  98 104 104 106 107 111 108  72  76  89 167 185 187 188 188 186 188 187 189 189 188 188 187 188 188 188 187
 191 190 192 191 192 193 192 192 193 192 193 193 192 193 179 142 113 112 107 109 106 107 100 102 160 212 213 170 151 142 135 129 118 120 129 131 128 122 115 109 105 102  98  97  95  96  94  94  91  94  97  95  94  97 100 103 102 102  99  95  95  90  85  87  95  97 101 102 108 108 110 120 118  91  72  88 136 182 184 186 186 187 186 187 188 187 188 187 188 189 188 188
 189 190 191 190 191 192 192 192 193 191 191 193 178 139 108 102 106 108 107 110 102  98  95  95 190 213 204 165 150 141 133 131 122 116 120 122 121 118 113 108 102  96  95  96  96  95  95  93  92  91  94  95  94  96  95  98 100  96  95  94  90  85  87  91  97 101 101 102 106 108 111 120 124 124 112  73  78 100 119 143 180 186 185 187 187 188 188 188 187 188 188 189
 191 189 190 189 190 192 192 190 190 191 172 138 114 105 101 101 106 104 106 102  96  90  88  92 202 211 192 159 147 140 133 130 122 114 111 114 115 113 108 101  96  92  90  94  97  94  91  92  92  90  90  91  94  96  94  95  96  95  90  86  83  86  87  94  98 101  98 100 105 108 110 118 124 124 123 104  60  69  78  84  94 145 182 186 186 186 187 187 188 187 188 188
 188 189 189 190 189 190 189 188 163 127 108 104 103 103 102 104 102 101 103  96  90  87  86  95 204 211 203 156 143 138 134 127 120 114 112 107 108 109 103  95  91  90  87  90  95  94  89  87  87  86  87  88  85  90  92  90  88  86  83  81  82  88  92  97 101 100  98 100 104 108 108 121 125 124 124 121  69  56  59  59  74  86  96 136 175 187 185 187 187 187 187 189
 187 188 187 187 186 189 172 130 101  98 101 100 102 101 100  98  97  91  97  88  85  83  85  97 203 210 192 154 142 136 131 126 120 116 116 111 103 102  99  96  90  88  90  91  92  94  92  88  87  85  83  84  82  87  86  86  82  80  80  79  82  91  93  99  99  98  99 101 106 109 108 121 126 123 123 122  83  50  50  49  58  70  76  81  90 116 165 185 187 189 188 188
 188 188 189 173 144 121 105  89  88  96  98  98  99  99  89  91  91  84  91  82  80  79  83  99 205 206 184 153 140 135 127 122 119 116 116 118 110  99  96  94  89  88  89  90  93  92  90  89  87  83  80  80  79  84  83  77  77  82  84  86  90  95  99 102  99  98  98 100 103 105 108 118 123 121 122 120  85  47  49  46  50  60  65  71  74  79  89 133 186 187 188 188
 180 160 127 113 110  91  84  87  96 100  97  94  92  89  84  85  85  78  85  78  76  75  82  92 202 199 176 152 140 133 125 119 118 117 117 119 123 113  95  92  90  88  90  91  89  90  91  89  87  84  82  81  77  77  77  80  81  83  87  90  92  99 102 101  98  96  98 100 100 105 107 117 123 124 122 118  84  44  46  42  46  52  55  57  69  72  72  74 114 173 186 188
