P2
# Generated by OpenCV 3.4.0
92 112
255
  79  81  82  83  83  84  85  84  86  86  87  88  87  87  88  89  90 100  97 125 132 127 133 156 154 137 120  91  87  81  72  66  70  76  86  85  71  66  62  70  73  73  82  85  53  42  42  55  68  74  72  65  60  54  48  42  40  41  39  38  34  36  35  35  36  40  45  56  63  72  78  84  87  88  88  89  88  86  88  88  88  88  87  87  90  86  88  87  86  85  86  87
  80  82  83  84  83  85  85  85  86  86  87  88  87  88  89  90  95 101 149 137 114 118 127 138 147 143 127 106  82  70  66  67  69  78  74  64  57  51  47  59  61  58  56  35  33  30  37  43  48  51  50  57  55  49  44  41  42  38  38  38  36  39  37  38  40  41  42  44  43  53  62  73  82  88  89  89  89  89  89  88  89  89  89  88  88  88  90  89  87  86  88  88
  81  83  84  83  84  85  85  85  87  87  88  89  88  89  90  92 101 124 121 112 132 157 176 175 159 138 110  93  74  64  62  66  69  68  61  53  50  44  53  56  50  45  31  24  25  28  26  30  44  58  67  63  54  57  64  63  49  43  42  41  38  36  38  37  37  39  44  50  51  51  48  53  69  77  86  91  89  90  88  89  88  90  90  90  90  89  87  88  87  87  91  87
  83  82  85  85  85  85  85  86  86  87  88  87  88  89  90  94 105 119 129 142 161 170 189 181 150 128 115  99  83  71  64  67  61  57  55  50  45  45  47  43  40  30  23  25  25  23  36  48  54  54  55  62  68  73  66  59  51  46  45  38  36  36  36  37  39  39  42  40  44  49  51  51  53  62  76  89  89  91  90  90  89  89  90  89  90  89  89  88  89  86  88  88
  83  83  86  85  84  86  86  86  87  88  89  90  90  92  96  96 111 123 112 129 174 179 163 153 153 152 122  97  81  70  62  58  54  51  47  44  43  40  37  33  31  25  25  22  19  25  25  36  38  43  48  58  67  69  60  52  43  37  37  34  34  35  36  39  41  46  47  49  49  49  50  50  49  50  60  79  87  90  89  90  88  89  91  90  89  90  89  88  87  88  90  88
  84  85  84  86  87  88  86  89  90  88  89  90  91  95  99 109 120 119 155 165 167 166 168 163 155 158 120  88  75  67  62  52  53  48  43  42  42  33  30  30  25  22  19  17  19  22  25  26  29  35  42  44  41  38  47  39  33  30  28  27  27  26  27  28  31  35  34  38  44  47  49  50  48  48  52  66  84  90  89  91  90  91  91  90  89  90  91  90  89  88  90  89
  85  86  86  87  88  87  87  89  89  89  90  90  95 102 112 115 130 153 173 163 161 164 161 172 174 139 110 105  88  74  60  50  50  45  41  38  35  34  28  27  21  16  17  18  20  20  20  23  23  23  24  24  26  27  23  19  17  19  20  23  24  24  26  27  29  29  27  27  28  32  36  40  44  44  48  55  76  87  90  91  91  90  90  90  91  90  91  91  91  91  91  88
  84  86  85  88  88  89  88  89  89  93  91  97 104 115 111 110 137 154 151 155 151 149 177 175 149 145 147 122  88  71  54  44  42  37  37  35  35  33  27  25  18  18  18  18  20  22  22  20  18  18  18  20  20  18  18  21  21  21  22  21  23  23  23  22  25  26  27  30  32  32  35  36  34  36  43  48  60  81  89  90  89  91  91  91  91  91  92  90  90  91  89  90
  85  86  87  86  86  88  89  89  88  89  89  93  96 104 104 120 135 119 130 134 135 150 158 156 168 174 150 124  83  54  45  38  36  36  34  34  31  30  27  26  22  20  25  25  24  21  18  19  20  21  21  23  23  23  24  24  25  24  20  20  18  17  17  19  22  23  26  28  27  31  33  35  35  35  34  37  48  69  87  92  90  92  90  90  91  90  91  91  90  89  91  90
  86  87  88  88  87  89  88  89  90  93  92  92  99 103 110 117 111 123 122 122 119 138 155 165 176 161 130  90  79  55  45  38  40  36  33  32  32  31  29  28  25  24  23  23  25  27  26  28  29  29  28  28  26  28  28  27  26  24  23  21  20  21  22  24  24  24  22  20  23  27  28  37  43  43  41  34  40  54  80  92  93  91  91  90  91  91  90  91  91  90  90  92
  86  87  87  88  88  88  88  89  91  94  94  97 107 103 109 100 105  90  91  98 107 139 150 161 144 119 118 100  62  47  39  35  37  37  34  37  35  36  34  31  27  26  27  27  31  31  30  28  28  29  28  27  26  26  24  23  24  24  24  24  22  22  18  19  19  19  19  17  19  21  23  32  43  52  51  50  46  49  69  88  92  91  91  92  91  92  91  90  90  91  90  92
  87  87  87  88  88  89  90  89  91  91  89  91  93  94  85  80  79  82  86 109 118 125 120 101 108 124 100  63  36  31  39  39  35  38  38  42  43  43  43  40  35  32  30  29  29  29  27  27  25  26  25  24  22  23  24  23  22  21  22  21  21  20  20  21  20  21  20  22  23  23  23  23  30  44  57  54  61  56  55  78  89  91  92  92  92  91  92  90  91  91  89  92
  85  86  90  88  89  88  89  90  90  89  89  87  89  85  76  77  77  81 100  96  91  82  80  83 104  83  57  37  33  34  45  39  42  44  48  50  57  59  56  54  49  41  37  33  34  35  32  30  27  27  26  26  24  24  23  21  20  20  18  22  22  22  21  21  21  22  23  24  25  25  28  30  31  33  45  52  51  56  56  58  82  90  92  93  91  90  92  91  92  91  91  92
  87  87  89  89  90  89  90  89  91  90  90  87  80  73  71  74  81  90  80  78  65  67  73  75  70  49  40  35  34  38  46  49  52  55  61  64  64  66  68  62  59  51  47  43  39  39  36  34  32  30  30  29  27  26  26  24  23  23  21  22  24  24  24  24  25  25  25  21  23  26  26  25  29  32  38  48  49  48  52  55  65  86  91  92  90  90  92  91  91  90  90  91
  88  88  88  89  89  90  90  90  90  91  87  80  70  61  66  73  74  73  69  61  63  70  69  64  46  39  39  39  43  46  51  57  62  66  71  71  70  76  74  67  64  58  52  50  48  46  42  40  37  35  32  32  30  30  28  27  26  24  22  23  23  24  24  25  24  27  28  28  28  26  30  29  24  24  29  39  47  44  44  46  52  72  89  90  93  91  93  91  91  90  91  90
  90  89  89  89  91  91  91  91  90  92  81  74  67  70  72  71  64  65  61  62  61  60  52  38  42  38  43  46  52  56  61  66  73  78  81  77  80  80  78  75  71  63  60  56  54  52  49  45  44  41  38  36  34  32  32  30  29  26  25  24  24  23  23  25  25  26  29  32  35  35  34  25  28  27  25  26  36  43  45  44  45  54  79  91  91  92  91  91  91  90  91  90
  89  87  90  91  89  90  92  93  91  87  78  73  77  76  70  63  63  61  58  61  57  42  38  42  42  43  49  55  60  66  70  77  83  85  85  83  83  85  84  82  78  72  66  60  58  57  51  51  48  48  44  41  38  37  33  33  30  30  27  27  26  25  26  28  27  29  29  31  31  35  40  38  29  26  24  25  27  35  41  43  43  41  56  84  91  91  93  91  92  90  91  89
  90  88  90  89  91  93  90  92  92  82  77  65  72  69  58  64  57  52  56  45  35  37  37  42  44  50  56  62  70  74  82  91  93  92  87  85  85  89  87  86  81  74  72  67  63  63  59  57  53  52  50  47  46  44  42  39  36  33  31  30  30  27  29  30  29  31  30  31  32  32  31  33  35  34  26  24  25  30  33  38  42  38  43  61  87  90  90  91  91  89  89  88
  89  89  91  89  91  92  91  92  92  86  82  68  72  65  58  55  53  42  37  31  33  37  38  43  48  59  66  72  79  86  93 100 102 100  94  92  90  91  92  89  84  80  74  70  67  68  65  63  60  57  56  52  50  47  46  45  41  39  35  36  35  35  31  32  32  34  33  35  33  34  32  33  33  34  33  29  25  23  28  34  38  40  38  42  67  86  87  87  85  84  84  83
  90  89  91  91  90  92  91  93  93  85  90  73  71  67  55  45  38  34  31  31  36  40  41  47  58  70  76  82  88  98 104 105 106 102  99  94  91  91  90  88  86  81  75  71  71  70  65  64  62  63  62  58  55  53  50  49  47  46  41  39  39  40  39  37  35  35  36  38  35  35  31  32  33  29  30  31  30  25  24  29  35  42  41  38  46  76  83  84  84  85  84  85
  90  89  92  91  91  93  91  92  95  85  74  61  53  44  34  32  32  31  30  32  39  42  45  57  71  80  86  91 102 107 110 110 108 105 104 100  95  91  90  91  88  82  78  74  72  70  69  68  66  66  65  63  62  60  57  52  52  52  49  46  42  42  42  43  46  43  42  40  39  38  37  32  29  28  26  28  27  26  26  26  31  36  39  40  40  66  97 102 105 106 109 112
  90  89  90  90  92  91  91  92  91  85  70  54  45  38  32  32  32  32  30  36  44  46  56  68  80  88  94 101 109 113 112 111 110 110 107 103  95  95  94  91  91  86  80  79  77  75  73  72  70  69  68  67  65  65  63  61  59  59  56  54  51  46  44  42  41  43  47  45  44  43  41  36  32  27  22  22  24  25  24  24  26  32  35  38  39  54 102 113 115 115 115 116
  90  90  92  90  90  91  90  92  90  86  70  51  43  36  32  34  36  33  34  40  47  54  66  78  87  96 101 108 114 117 116 115 113 113 108 104  99 100  98  94  92  88  85  83  83  81  78  76  72  70  71  70  69  67  66  68  69  68  65  63  61  58  57  53  52  50  47  49  50  50  48  41  36  30  23  22  20  24  24  25  24  26  32  34  37  46  84 112 116 116 116 116
  89  89  89  89  88  89  90  90  89  84  69  49  39  32  33  36  34  33  37  46  53  63  77  89  98 103 109 114 117 119 119 115 115 114 111 107 103  99  99  93  92  89  88  87  86  83  83  79  74  73  73  74  71  71  72  71  71  72  71  70  71  66  67  66  65  64  65  60  59  58  53  51  47  38  28  23  20  18  22  25  25  25  29  31  39  48  66 101 110 112 114 113
  82  84  83  84  84  84  85  86  86  86  73  46  35  31  36  35  34  37  40  51  64  76  87  96 105 111 114 117 122 121 118 116 119 115 114 108 106 102 100  96  94  92  89  90  88  86  83  81  77  74  75  76  74  75  75  73  76  77  74  75  78  78  78  75  73  70  73  72  71  69  67  67  66  55  37  26  21  19  18  22  25  24  26  30  37  41  45  58  74  97 114 115
  95  97  98 101 102 103 106 107 105 107  75  47  41  35  34  32  34  38  45  57  78  89  96 102 107 111 117 122 123 122 120 120 121 117 115 111 112 108 102  98  95  93  91  90  90  88  85  84  80  78  78  80  78  79  80  81  82  82  82  81  82  84  91  88  85  83  84  83  83  82  77  79  75  72  56  31  26  21  19  20  22  22  26  29  33  43  46  50  50  93 116 117
 111 112 113 114 113 114 114 113 114 114  85  50  39  36  32  32  38  41  51  75  92  98 101 108 110 114 121 124 124 125 127 125 124 120 120 121 117 110 104 100 100  97  93  92  93  88  87  85  84  83  80  80  82  84  85  86  87  85  86  88  87  89  98  91  91  92  92  91  89  92  91  90  87  85  77  45  28  24  22  21  21  21  24  26  29  33  46  66  97 113 117 117
 115 114 115 116 116 116 116 116 119 116  94  50  38  34  33  35  38  42  64  92 100 106 107 112 109 118 126 129 131 132 132 132 132 128 126 126 117 114 109 103 101  99  96  93  91  91  91  92  90  88  88  87  89  90  92  94  93  92  96  97  98 100 108 102  97  97  99 100 100 100 100 100 100  94  84  62  36  28  24  22  23  21  21  24  26  32  47  74 101 117 117 117
 115 116 117 116 116 115 116 117 120 118  82  49  35  32  34  34  38  48  83  98 105 107 109 113 120 125 129 132 136 139 139 137 131 130 127 126 119 115 110 105 104 102 101  97  96  94  93  95  94  94  95  93  94  96  99  99  99 102 104 107 108 112 124 112 110 104 105 105 106 108 108 110 108 102  92  72  47  30  25  24  24  25  22  22  25  39  78 113 110 115 117 116
 115 115 117 118 119 120 119 118 120 118  86  59  37  34  33  34  43  62  94 106 108 110 113 115 124 129 132 135 139 141 140 138 133 129 125 119 115 111 109 106 106 105 105 101 101  96  97 101 100 100 100 100 101 102 102 104 104 106 110 112 113 119 129 122 119 114 112 110 110 111 112 112 112 107  99  83  57  36  27  25  26  27  27  24  24  30  80 112 117 118 118 118
 115 116 117 118 119 119 121 119 118 119  92  63  41  35  33  37  48  77  99 110 110 114 117 122 127 131 134 137 138 138 134 132 130 127 122 116 114 108 109 108 106 108 105 103 102 101 103 105 102 100 100  99 102 102 105 104 104 109 110 113 116 119 123 126 123 122 116 113 112 115 112 113 112 110 104  90  63  43  30  28  28  28  28  27  26  30  56 105 117 118 116 118
 115 117 118 119 119 118 119 120 120 120  95  54  41  36  37  41  61  91 106 113 116 119 126 127 131 134 136 134 133 130 129 125 123 120 118 115 111 105 107 105 106 105 107 106 104 104 105 106 103 103 103  99 101 102 103 103 104 105 108 111 118 118 120 123 122 122 121 117 116 117 114 112 112 112 107  96  74  50  37  31  26  26  28  29  32  29  34  84 111 115 117 119
 116 118 118 118 120 120 120 121 119 118  89  49  31  36  39  47  74 102 114 118 120 126 129 132 133 133 132 129 126 125 123 117 114 111 109 109 106 102 103 104 105 102 104 106 106 106 104 105 104 103 102  98  97  96  96  98  98 102 106 108 111 114 114 119 123 123 122 120 120 114 112 111 113 112 110 103  78  55  42  34  28  26  29  30  42  34  32  52  88 106 112 118
 118 117 120 119 120 119 119 120 121 116  82  45  30  38  43  54  89 111 119 121 123 130 134 135 136 132 128 123 119 114 110 110 109 105 104 103 101  99 100  99  99  98  99 102 104 103  99 101 102  99  97  92  91  93  92  91  94  94  99 102 104 107 110 113 119 121 121 120 119 117 114 112 113 112 110 106  87  59  46  37  32  29  27  29  51  63  46  56  82  92 103 112
 118 115 119 121 121 121 122 122 120 115  72  40  32  40  48  60 103 120 121 125 127 132 134 131 131 126 121 116 113 107 103 103 101 100  98  98  96  95  96  96  93  98  99  98 100  97  93  95  96  95  91  89  88  91  90  90  90  90  92  98 101 104 105 108 115 119 121 120 120 119 116 112 112 112 110 108  92  64  46  38  32  32  28  27  33  86  94 101 103 107 114 118
 119 118 118 120 120 121 122 121 116 114  66  40  37  44  47  71 116 126 127 127 134 137 134 126 124 120 113 109 103  98  93  93  93  92  90  90  90  90  92  94  93  97  96  93  94  93  91  88  89  87  87  86  84  85  87  86  86  85  88  91  95  96 101 103 108 114 120 122 124 119 116 112 113 111 111 108  95  70  47  39  36  32  30  25  29  56 110 116 119 120 120 123
 120 121 122 120 120 124 123 123 120 114  72  41  33  41  46  77 130 132 131 129 140 137 126 116 114 106  98  94  82  76  71  74  74  76  77  79  84  86  88  89  90  92  94  92  92  89  88  86  84  78  80  79  73  77  75  74  74  77  78  78  82  85  88  91  99 106 112 116 122 122 120 115 114 115 112 109 100  74  50  42  34  35  30  26  28  35 103 119 121 122 122 124
 120 121 122 122 122 123 124 124 122 103  65  39  32  44  46  88 135 137 137 141 139 124 113  99  89  81  70  63  56  50  52  55  56  59  63  71  74  81  83  85  88  91  90  91  92  89  86  83  78  71  70  67  60  65  60  57  57  55  54  59  61  64  66  74  81  89  98 103 112 118 119 118 117 115 113 110 104  82  49  43  35  33  34  28  31  34  78 120 123 123 122 124
 122 124 124 123 124 125 123 124 120 102  75  41  32  44  50  91 141 143 139 132 113  93  81  71  64  54  48  43  42  40  38  41  46  49  50  61  66  72  78  83  84  88  90  88  87  86  83  79  76  65  61  53  51  52  49  48  41  36  33  34  36  39  44  46  53  60  68  79  87  99 108 115 116 114 113 110 108  85  53  44  37  32  37  30  34  38  72 118 124 126 124 124
 126 125 125 126 127 126 128 127 124 107  76  46  35  44  50 107 147 143 122  96  80  70  59  48  44  41  43  42  39  38  36  36  41  44  47  53  59  66  73  81  84  86  87  86  84  82  80  75  69  62  54  50  43  45  45  41  37  33  31  30  30  32  32  35  39  45  49  57  66  76  85 102 114 116 113 112 109  90  54  45  40  30  32  32  40  54  98 122 125 127 126 125
 127 127 128 127 129 128 128 129 130 113  85  50  38  43  44 123 138 114  94  82  65  53  48  46  42  38  39  39  42  42  39  41  38  44  47  49  59  62  71  78  83  85  82  82  83  80  77  71  67  59  52  46  41  41  40  35  33  32  32  31  29  31  31  33  32  34  38  46  56  63  65  71  90 103 112 113 111  94  55  43  39  31  31  34  43  69  92 123 128 125 127 128
 127 130 131 127 131 132 130 131 132 125  98  53  40  42  43 123 102  90  82  69  61  59  60  61  62  56  56  54  53  52  48  49  50  48  50  50  56  66  73  79  83  85  80  80  80  77  74  71  64  61  54  48  43  45  40  36  34  36  35  36  40  42  40  42  41  40  43  46  50  55  60  69  69  74  87 111 112  99  58  41  40  32  32  36  46  86 104 126 127 126 129 128
 132 132 132 132 133 133 134 136 135 132 111  54  41  41  49 110  96  90  82  81  82  79  81  81  79  81  79  76  74  70  70  69  66  64  61  57  61  69  79  82  83  85  83  82  80  76  74  73  68  60  58  53  50  52  50  46  48  50  52  56  63  61  61  61  61  61  58  60  55  55  57  65  66  70  69  92 109 101  56  37  38  35  30  35  48  72 119 127 130 129 130 129
 134 135 135 135 136 135 137 138 138 138 109  53  43  39  56 110 102  93  95  99  98  94  93  90  86  83  79  76  75  75  75  76  74  78  78  79  77  78  81  85  88  86  86  85  82  78  76  76  71  66  65  63  61  62  62  59  57  59  61  64  64  65  65  67  68  70  72  71  69  74  68  68  72  72  73  77 103 104  59  38  36  30  31  34  45  60 115 128 131 131 130 131
 136 138 138 138 137 140 140 140 141 140 114  52  45  42  71 117 104 103 108 106 106 101  96  94  88  81  78  77  73  73  72  72  71  74  78  81  83  85  85  88  93  95  93  89  84  83  82  78  71  69  67  67  64  61  58  58  56  58  58  59  61  63  63  66  67  72  77  79  79  82  81  80  82  78  76  78  96 106  63  36  36  30  31  38  47  82 120 131 133 132 132 132
 139 140 141 142 142 143 143 142 143 142 125  66  47  44  74 127 112 111 112 110 107 103  95  87  82  73  66  61  59  58  60  65  70  71  72  73  77  83  88  94 101 106 102  96  92  90  88  82  75  69  67  65  58  55  54  52  49  45  44  46  46  47  49  53  63  71  74  78  81  85  88  88  87  84  85  84  96 106  67  38  36  31  31  38  47  89 126 132 135 134 133 134
 140 142 142 143 144 143 144 143 144 144 127  68  51  45  84 128 115 114 113 109 102  88  76  66  59  50  44  40  40  43  45  45  51  61  66  69  72  77  85  96 107 110 110 106  99  98  92  84  75  69  64  59  54  52  48  41  36  40  42  39  35  31  30  33  42  51  59  67  78  85  87  88  90  88  94  97 102 109  66  38  35  31  32  36  45  87 127 135 136 136 136 135
 144 145 146 146 146 147 147 145 148 145 134  71  57  49  87 131 115 112 110 100  87  72  58  45  46  38  30  26  27  29  41  47  49  48  54  66  71  75  80  92 110 115 114 111 105 102  95  87  72  64  58  55  52  49  42  39  43  40  42  43  31  26  24  24  27  36  40  52  60  70  81  85  92  91  96 100 108 113  70  39  35  33  37  36  44  88 130 135 137 137 136 136
 147 148 147 148 148 149 149 147 148 146 137  90  83  58  88 133 115 110 105  83  71  47  54  84  74  35  28  25  24  29  36  50  44  47  52  57  63  70  77  92 110 115 116 116 112 108 101  88  71  62  57  55  51  45  45  43  40  43  53  39  28  24  20  24  26  43  57  42  47  62  66  81  88  92  94 103 110 116  73  41  36  35  39  32  39  80 128 138 137 138 137 138
 151 150 149 150 150 150 150 151 151 150 148 144 134  77  83 131 114 106  93  75  53  54  90  98  67  33  27  22  20  29  31  52  50  45  46  57  61  68  76  96 113 125 129 126 124 120 110  94  74  60  56  54  49  47  43  41  44  49  54  34  27  23  19  22  29  42  72  62  41  49  61  64  81  88  94 104 113 118  81  39  36  36  36  34  41  63 123 139 140 139 141 139
 152 151 151 152 152 154 153 153 152 153 159 192 168  68  84 132 113 102  84  70  55  68  99 101  71  42  37  26  24  30  33  54  50  42  39  47  66  72  81 107 126 138 141 135 133 129 128 114  86  61  55  51  52  40  37  40  45  50  54  38  29  26  20  29  35  52  81  79  50  41  54  62  72  83  89 101 113 120  86  41  37  36  36  38  40  62 106 133 141 143 143 142
 153 154 154 154 154 154 154 154 154 153 161 166 142  66  94 132 114  99  85  74  74  66  97 109 101  51  42  32  32  31  40  50  43  39  42  55  69  75  93 119 134 151 147 140 138 136 135 129 101  70  56  54  50  41  37  36  39  45  51  50  32  30  28  33  47  76  86  75  50  50  51  60  70  77  87 100 113 119  97  41  38  36  37  39  52  79  94 118 140 143 143 143
 155 156 155 157 157 156 156 158 157 159 152 128 101  60  98 137 116 101  91  87  85  81  82  97 105  94  57  40  36  46  49  48  48  50  58  68  75  89 108 123 136 151 151 144 141 136 136 129 110  87  66  56  52  49  45  40  41  43  45  48  47  39  37  46  68  76  69  58  57  57  60  61  68  76  87 100 112 120 104  44  35  36  42  45  67  85  77  97 137 143 144 143
 156 157 159 159 159 159 160 160 160 159 158 124  78  60 104 141 118 104  95  94  95  92  84  82  83  79  72  68  65  63  59  60  62  66  69  77  87 101 116 128 144 159 159 152 147 140 138 133 116 102  82  67  55  51  50  47  46  46  47  50  51  51  51  55  60  60  62  66  71  72  68  68  69  77  85  99 113 120 114  47  37  40  48  66  70  66  71  90 138 145 145 146
 160 161 160 161 160 160 161 161 162 161 157 118  62  58 106 150 128 111 103 104 104  98  92  86  84  84  78  72  67  65  66  69  72  73  78  91 100 110 122 136 149 164 169 159 149 142 140 135 123 111  96  78  65  56  53  51  50  51  49  49  50  52  57  57  62  63  70  78  86  89  87  81  78  82  90 103 116 120 121  59  38  42  64  78  75  62  68  86 130 147 146 147
 161 162 163 164 162 163 163 163 163 163 159 131  55  63 109 160 147 129 118 115 111 107 102  96  91  86  79  74  75  74  76  76  79  83  93 102 106 115 129 142 158 172 172 164 152 143 138 133 125 117 104  88  79  69  59  55  56  56  56  55  55  56  60  66  69  74  83  89  94 101 104 100  97  95 100 107 117 120 120  64  38  44  61  77  80  58  62  76 121 148 149 149
 164 164 164 164 164 163 165 166 165 166 168 147  62  66 117 167 168 155 138 130 116 109 107 101  96  93  87  84  83  81  81  82  85  92 104 106 113 120 135 148 166 182 177 169 157 145 138 132 123 117 110  99  85  81  70  63  63  64  63  63  65  66  70  74  78  84  92  99 104 109 108 107 106 105 107 115 119 120 121  74  40  42  57  71  83  60  59  74 121 147 150 150
 165 165 164 165 166 166 167 167 165 166 169 115  87  71 123 176 182 176 160 144 128 116 109 107 102  98  94  91  86  83  85  86  94 106 109 110 116 123 139 158 174 181 177 167 154 146 139 132 123 118 114 105  92  85  83  75  68  66  66  69  72  75  81  84  90  94 101 106 110 114 113 113 115 116 116 120 122 122 123  79  46  43  64  77  88  68  63  76 128 150 151 151
 167 166 167 167 167 167 167 168 170 169 147 100 101  85 122 180 190 186 173 159 141 126 117 111 106 104  99  91  88  87  91  96 104 108 110 114 118 129 150 164 172 174 169 162 155 147 141 135 127 120 116 109  97  89  87  86  78  72  69  71  76  81  88  95 103 106 109 111 115 118 120 122 122 122 124 124 125 124 123  87  48  46  72  83  99  78  66  82 134 152 153 152
 168 168 169 168 169 169 169 170 169 168 136  93 112  92 121 182 191 189 181 169 152 139 127 116 108 103  96  95  94  96 100 103 107 108 112 115 123 142 161 166 164 170 165 157 150 144 142 137 129 124 119 113 104  98  92  91  90  86  79  74  77  80  87  96 104 109 115 118 121 124 124 124 125 125 124 124 126 125 122  83  53  57  81  91  99  94  71  87 143 152 154 153
 170 170 170 171 170 171 172 172 172 170 141 102 115 107 118 180 185 186 180 170 156 142 131 118 110 106 101 100 101 103 106 107 109 112 114 114 128 155 166 171 175 175 164 157 151 146 139 136 131 128 120 111 109 103  99  95  97  97  92  90  86  87  89  92  96 105 109 117 123 126 127 126 126 126 125 126 126 126 123  76  57  66  81  91  95 102  74 104 149 153 155 156
 172 172 172 171 172 173 173 173 172 172 154 116 108 106 123 173 179 177 171 162 151 140 130 120 111 108 107 105 106 106 108 107 109 111 117 116 140 164 170 175 181 175 164 157 152 147 139 134 130 129 124 113 110 109 104 103 102 102 101 100  94  94  93  94  97 100 106 112 116 119 123 124 125 126 125 125 125 125 117  71  56  65  77  83  89 102  86 126 153 156 157 158
 174 173 174 174 174 174 173 173 173 174 169 126  98  93 118 166 168 166 162 154 145 138 126 120 114 110 108 107 108 108 108 108 109 112 117 120 158 168 176 181 175 161 152 147 145 144 142 136 130 128 126 118 108 110 109 109 107 106 104 104 102 101  97  96  96  99 106 108 112 116 117 120 121 122 123 122 124 123 112  68  56  64  71  74  78  96 104 145 159 160 159 158
 175 175 175 176 176 176 175 174 174 176 172 136  93  83 100 158 159 157 154 147 143 132 125 122 116 113 113 109 109 109 108 109 109 114 118 137 162 168 174 166 154 138 127 125 126 126 127 125 121 121 121 119 110 109 110 110 109 108 108 107 107 106 106 101  99 100 105 107 109 112 112 115 117 120 121 123 124 123 106  72  80  63  66  63  68  89 118 152 159 160 160 161
 177 177 178 178 178 178 177 177 177 177 175 150 106  79  85 151 149 146 144 136 134 130 124 121 121 118 116 114 110 111 109 108 110 113 121 149 152 157 158 144 132 119 108 107 111 109 108 111 109 109 113 114 114 108 106 109 109 109 110 111 111 112 111 110 106 103 106 106 109 112 112 114 115 117 119 122 124 124  97  94  93  63  60  57  62  86 125 156 161 161 161 161
 177 177 180 180 178 179 179 177 180 179 178 161 137  93  79 141 140 136 136 131 129 125 126 126 124 124 121 115 115 113 109 109 109 115 132 143 135 138 133 124 117 108 103 100 100  98  96  98  97 100 105 111 111 112 100 104 104 105 108 108 110 112 114 112 112 109 109 106 104 107 109 110 112 113 118 120 122 120  92 106  93  64  56  58  68  93 130 159 162 162 162 161
 179 180 181 180 179 180 180 180 181 181 180 169 159 158  93 127 135 129 130 129 130 130 131 130 128 124 122 118 115 112 110 112 109 114 140 133 122 121 116 114 108 101  96  95  95  93  93  91  90  93  98 103 107 115  99  95  98  99 105 108 106 107 111 111 114 113 112 110 107 104 105 106 108 113 115 118 120 120 107 103  83  62  58  63  79 103 136 162 164 163 163 162
 181 181 181 181 181 181 182 183 181 182 181 174 148 160 169 156 136 129 128 128 130 132 135 130 132 129 126 123 117 112 108 110 108 118 137 124 111 106 107 109 104  97  91  90  93  93  92  87  85  88  91  96 101 107  99  91  94 100 104 107 108 107 111 112 111 110 112 112 108 105 106 104 106 110 114 118 119 117 109  86  79  70  73  88 103 110 147 162 163 164 164 164
 182 183 183 182 181 181 183 183 182 183 184 179 164 136 175 169 137 128 125 125 128 132 132 130 134 129 126 122 116 113 109 108 105 119 123 111 102  91  81 102 102  94  90  90  91  90  78  60  59  77  88  93  99 104 102  86  91  97 101 104 108 111 112 112 112 111 113 112 112 107 109 109 110 110 112 117 118 117  95  79 100 118 106  97 103 118 158 164 166 167 167 166
 183 183 183 183 184 183 183 184 184 184 186 183 181 190 186 156 139 127 124 123 128 131 132 136 133 128 126 122 116 112 108 106 102 113 113 101  85  46  35  42  95  97  91  90  92  85  56  37  27  28  70  89  94 101  97  85  88  92  97 102 105 108 109 110 111 113 115 113 113 110 109 109 108 108 111 115 115 112  83  86 106 121 104  96 104 139 165 166 167 168 166 165
 184 184 184 183 184 186 185 183 186 184 186 185 184 195 173 138 137 127 123 125 129 131 135 135 135 132 131 124 118 113 110 104 101 104 105  96  73  50  42  54  89 100  93  92  90  81  66  54  33  31  46  82  89  94  92  85  87  90  95  98 101 104 107 110 111 111 112 112 112 111 108 108 108 110 112 116 117 113 113 108 111 120 116 111 122 160 167 168 168 168 168 167
 184 185 185 184 184 185 185 184 185 184 185 187 184 172 149 128 136 129 125 125 127 130 133 135 133 132 130 125 120 111 107 103 102 103 103  91  78  67  65  81  91  95  91  89  86  80  75  67  56  44  48  69  82  87  89  87  88  89  90  96 100 102 106 109 111 111 112 111 112 111 108 108 109 110 111 114 120 103 101 103 101 108 117 123 148 164 167 169 169 167 168 168
 185 185 186 186 187 186 187 186 187 185 187 188 186 166 134 124 132 131 125 122 117 126 131 131 130 129 125 121 113 108 105 101 105 106 104  93  79  74  80  86  87  86  84  84  77  73  70  70  67  61  60  66  80  91  94  94  91  91  90  93  96 100 105 107 108 110 112 114 112 111 109 108 110 111 111 117 116  93  91  92  95 100 111 138 164 167 168 169 169 168 168 168
 186 185 186 187 187 186 186 187 187 187 186 189 187 181 150 123 130 132 128 125 121 123 130 129 126 128 122 116 111 108 106 107 110 110 109  99  88  81  86  89  89  85  80  76  76  73  71  70  70  68  65  74  90 100 101  99  99  96  93  93  97 100 105 106 110 112 110 114 112 112 108 107 112 113 112 115 113  96  94  97 100 104 123 162 168 170 169 169 169 168 168 169
 185 186 186 186 187 188 188 185 187 187 187 186 187 185 182 161 135 134 128 125 124 125 130 131 133 131 123 117 113 112 115 119 118 115 115 108  97  87  91  90  87  87  80  74  77  75  74  73  73  72  74  91  98 100 103 104 103 104  97  95  96  98 102 105 108 109 108 112 112 115 110 108 113 113 115 117 111 102 102 102 105 114 155 168 170 170 170 171 169 170 169 170
 188 187 188 188 187 188 188 187 187 186 186 188 189 189 187 185 176 139 129 128 128 129 132 133 134 128 123 118 116 118 123 125 126 121 117 113 105  93  92  92  87  83  78  72  76  75  75  75  76  79  82  97  99 102 103 102 105 109 107  99  95  99 102 104 106 105 109 111 113 116 111 111 113 114 113 118 108  95  96 101 124 159 169 170 171 170 170 171 170 170 170 168
 188 186 188 187 188 187 188 187 188 188 188 189 189 189 187 189 185 148 131 127 130 132 131 135 133 127 123 122 122 125 130 130 129 124 121 119 114 104  99  95  88  81  75  71  76  77  75  75  77  88  92  99 101 103 105 103 104 106 109 104  98 100 102 104 107 106 110 110 112 113 115 112 112 113 114 120 130 122 126 149 167 169 171 171 171 171 172 171 173 171 169 169
 187 187 187 188 187 187 188 187 188 188 188 187 190 190 189 190 187 157 130 127 131 134 131 131 132 128 126 127 125 133 134 130 128 126 122 124 120 110 104  99  90  83  74  71  75  76  74  74  79  91  94  97  99 101 100 101 100  94  92 107 105 101 100 104 107 107 109 110 112 114 116 114 115 113 116 121 156 168 170 170 170 173 174 174 172 171 172 171 170 171 169 170
 187 188 187 186 188 187 188 188 187 189 189 188 190 192 191 190 189 168 131 127 132 133 134 132 133 133 131 128 132 134 134 129 130 126 123 125 124 117 110 100  91  83  72  74  77  80  79  82  84  91  94  95  94  97  98  99  96  94  98 109 111 105 102 104 105 106 106 111 112 113 114 115 112 111 115 124 165 172 172 173 174 173 173 173 172 173 172 173 172 172 171 170
 187 187 188 188 188 188 188 189 189 188 189 189 191 190 190 189 189 174 134 128 130 132 136 134 132 133 132 132 133 133 129 126 126 124 125 130 128 121 113 102  93  84  74  73  76  80  81  82  85  89  96  95  94  93  96  97  98  99 103 108 110 108 106 105 105 107 108 111 112 113 116 114 115 114 117 131 168 173 173 172 174 173 173 173 172 173 173 174 173 173 172 173
 188 187 189 189 188 188 188 188 189 188 189 190 191 190 190 192 191 181 137 128 132 133 133 132 133 131 132 135 133 129 126 125 127 128 129 132 130 124 117 104  96  86  77  76  73  82  84  85  87  90  94  94  94  90  92  96  95 100 101 104 110 108 106 104 103 108 109 111 112 112 116 115 115 115 118 136 170 173 175 174 174 174 174 173 174 174 174 174 173 173 172 172
 188 188 189 189 189 190 189 188 191 190 191 190 190 191 190 190 190 186 143 129 131 136 135 130 133 130 131 133 126 125 123 126 126 130 133 134 130 123 113 104  95  89  83  83  83  86  88  90  93  93  97  98  97  98  96  96  97  98  98  99 104 106 105 106 106 107 106 110 110 111 116 116 114 116 121 146 172 174 174 176 174 174 174 174 174 174 175 174 173 174 174 173
 187 188 189 189 190 189 190 189 189 191 191 190 190 192 192 191 192 187 153 132 130 135 135 131 129 129 129 128 122 123 121 122 126 132 132 123 111 101  94  88  88  91  91  92  91  88  85  83  88  92  94  97  99 100  99  95  97  94  92  93 104 104 105 106 106 104 105 108 111 112 116 115 112 115 122 152 175 174 176 176 175 175 176 174 175 175 175 174 174 174 174 173
 189 189 189 189 190 189 189 190 191 191 191 192 191 193 192 194 193 189 163 131 130 134 134 129 126 126 127 124 118 117 114 116 123 124 113  97  85  78  75  74  77  82  87  86  84  76  70  69  72  79  87  96 100  99  98  95  93  93  95  94 100 102 105 106 105 104 105 107 112 112 113 113 115 118 120 161 175 175 176 176 176 176 176 176 176 175 176 175 174 175 174 174
 190 190 188 189 191 190 190 190 191 191 191 191 191 192 193 194 193 191 173 133 132 131 131 128 128 126 125 119 112 108 104 105 106  96  86  76  70  70  70  73  72  71  72  71  69  65  62  61  63  67  73  79  89  95  98  96  93  92  92  93  98 100 104 105 104 103 105 108 111 110 112 111 114 118 125 169 175 175 177 176 175 175 176 175 177 175 176 176 175 175 174 175
 189 189 189 189 190 190 190 190 190 192 192 191 192 191 192 193 192 190 181 135 132 131 128 126 127 123 122 114 104  98  89  89  87  77  73  71  66  67  68  70  71  69  70  67  64  64  63  63  63  60  61  65  69  78  87  92  91  88  88  89  92  97 103 105 104 103 105 107 111 113 113 115 116 119 134 171 177 176 177 176 175 176 177 175 176 175 175 175 176 175 175 175
 189 189 188 189 190 191 190 191 190 191 192 192 193 194 194 192 192 191 186 147 132 130 128 126 126 119 115 107  94  84  73  60  60  60  60  59  54  47  45  47  56  64  62  62  58  59  57  57  56  55  57  57  59  63  70  75  76  76  81  85  88  92  98  99 101 103 102 105 109 114 115 115 118 119 145 173 176 175 176 178 176 176 176 177 176 174 175 175 176 176 175 176
 189 188 190 190 189 190 191 192 190 190 192 191 190 193 194 191 191 190 191 167 130 127 123 123 121 115 111 101  91  82  70  56  54  58  59  62  56  49  45  38  37  41  39  38  38  37  34  32  31  35  40  43  50  59  58  56  56  58  67  73  79  87  92  98 102 103 103 103 107 112 113 117 117 118 155 175 176 176 177 178 177 176 177 176 177 176 176 174 175 174 174 175
 188 188 188 190 190 189 190 190 190 190 191 192 192 192 192 192 191 192 190 184 134 128 124 121 119 115 112 104  97  92  91  85  75  75  77  78  72  66  65  61  55  46  40  36  37  36  34  34  34  39  39  38  40  42  42  41  41  44  57  69  73  81  89  96  99 102 102 103 108 112 114 115 116 120 166 174 176 179 177 176 177 177 176 174 174 175 175 175 175 175 174 174
 188 189 190 189 189 189 189 190 190 191 191 192 191 193 193 193 191 192 190 189 153 127 124 121 119 115 111 107 104 103 106  98  86  81  87  86  81  70  69  70  64  60  55  48  48  47  44  47  49  53  52  53  55  53  51  53  52  62  69  74  75  81  86  93  96 102 103 105 109 111 114 113 116 146 173 177 179 179 178 175 175 176 176 176 176 176 176 174 175 174 175 174
 187 189 189 188 189 191 190 190 191 191 191 191 191 191 192 192 192 191 191 189 178 128 124 120 117 114 112 110 109 107 109 102  93  84  86  87  83  76  68  68  68  66  64  59  57  54  53  54  56  58  61  63  69  65  62  60  67  76  80  82  81  83  86  93  98 100 103 108 108 111 110 113 126 170 176 177 176 178 176 177 176 176 175 177 175 176 176 174 174 175 175 174
 188 188 188 190 190 190 190 191 190 190 191 192 193 191 192 191 191 190 190 190 187 151 124 119 116 113 111 112 111 110 107 106 100  92  86  85  84  81  73  69  68  67  66  66  63  60  62  61  62  64  68  71  69  68  68  72  82  86  88  89  88  87  89  94  99 102 102 105 107 109 111 114 154 174 178 176 176 178 176 177 175 176 177 176 177 178 175 175 176 175 174 174
 188 188 188 190 189 190 190 191 190 190 192 191 192 192 191 191 191 191 190 189 189 180 124 118 114 112 110 111 111 108 107 106 102  97  91  89  82  80  75  73  71  69  67  64  64  65  64  64  65  66  68  68  68  71  74  81  87  90  91  90  91  89  89  94  97 103 104 106 108 108 110 131 173 176 176 176 178 176 176 177 176 175 176 175 175 177 175 176 176 176 175 174
 187 188 189 190 190 190 191 189 192 191 191 190 192 191 191 191 190 189 189 189 190 188 147 117 114 113 111  99 104 106 105 104 105 100  94  92  87  80  76  75  72  68  68  64  64  62  62  63  65  66  66  68  71  73  78  81  86  90  89  89  90  90  90  94  97 101 103 106 108 108 114 164 176 178 178 177 180 178 176 177 177 175 177 177 176 175 176 176 175 174 175 175
 187 188 188 189 189 189 190 190 191 190 190 191 192 191 191 190 191 190 190 190 189 187 176 122 116 113 109  95 101 105 102 104 103  99  96  94  89  85  82  81  75  71  68  65  63  64  63  64  64  66  69  72  71  76  80  83  84  88  88  89  89  90  93  95  98  99 103 103 104 109 135 173 178 178 180 180 177 176 177 176 178 176 177 176 176 175 176 174 174 175 175 175
 185 186 188 186 187 188 189 190 188 189 190 189 191 192 190 190 190 189 189 188 189 189 185 154 116 112 110 105 104 105 102 101 101  96  95  94  92  88  86  83  79  78  76  75  68  69  68  68  68  70  72  74  74  79  80  82  84  85  88  89  87  88  93  97  98 101 102 100 103 111 146 172 177 177 177 178 177 175 176 176 177 176 176 176 176 176 177 174 175 175 176 175
 187 187 187 188 187 188 189 189 189 190 190 190 191 191 190 189 190 188 189 187 188 190 188 186 128 114 113 108 107 104 103 100  99  95  93  91  90  87  86  81  77  74  73  72  68  68  71  74  73  75  76  75  75  77  80  83  83  83  88  88  90  91  95  97 100 101 100 100 104 115 149 173 177 178 176 177 177 177 180 176 177 176 175 176 175 176 176 175 175 175 176 175
 185 186 187 187 186 187 188 188 190 188 190 190 190 190 189 186 188 187 188 188 187 187 186 184 166 113 112 108 108 105 104 101 100  97  97  91  87  86  81  78  74  69  68  66  64  64  69  72  72  72  74  75  77  77  79  80  81  82  87  89  92  93  97  98 100 101  97  99 106 116 153 175 176 176 177 176 176 176 177 176 176 175 175 174 175 175 176 176 176 176 175 174
 186 185 185 184 186 187 188 186 188 189 189 189 187 189 189 188 188 187 188 188 187 187 186 158 125 126 109 109 110 106 105 105 103 100  98  94  92  87  80  75  71  65  63  63  63  61  64  66  68  72  73  75  77  78  79  81  82  83  88  90  93  97  99  98  97  96  95 102 108 116 155 175 176 177 176 176 176 176 177 176 176 176 178 174 175 176 176 176 175 175 174 174
 184 184 185 185 185 186 186 187 187 187 189 189 188 188 189 188 187 187 187 186 185 184 148  59  77 137 113 111 111 109 108 107 107 102 100  98  95  91  85  78  73  69  67  64  60  63  64  65  67  71  73  78  79  80  83  84  85  86  90  92  94  96  97 100  95  94 102 107 107 115 158 175 177 177 176 177 177 175 177 175 176 176 178 176 175 176 176 175 176 174 173 174
 185 186 186 188 186 186 185 186 186 188 188 189 189 189 186 187 186 184 182 175 140 129 100  77 151 136 120 108 108 111 109 109 108 104 103 101  98  94  88  82  75  71  69  68  65  65  66  67  67  70  74  78  80  85  87  86  89  90  91  93  93  97  96  96  93 100 104 106 108 116 163 174 176 177 176 177 175 174 177 175 176 177 176 175 176 175 176 175 176 174 175 173
 185 183 184 184 185 186 185 186 187 187 188 188 188 187 186 187 180 157 130 116 114 106 126 203 184 138 123 110 105 106 108 109 109 108 106 105  98  95  90  81  76  73  71  70  66  67  67  70  70  71  78  83  85  87  90  88  92  93  92  95  94  92  93  90  94 104 107 107 107 116 125 121 153 175 176 176 176 175 175 175 175 175 176 175 176 175 174 174 174 175 175 175
 183 184 184 184 184 184 184 184 186 186 186 186 186 183 166 137 121 115 108 105  99  99 197 206 185 139 124 115 106 105 108 110 108 106 107 104  98  94  88  82  79  76  74  74  72  70  74  72  73  75  81  86  87  90  93  93  95  95  94  90  91  92  88  94 100 102 105 106 107 110 121 114 100 109 144 174 174 174 175 174 176 175 175 175 174 175 174 174 174 175 175 173
 184 182 184 184 183 184 184 185 185 186 186 186 177 145 118 110 111 102 100  94  91 129 206 208 178 139 126 117 110 102 105 107 108 106 106 103  98  92  87  79  80  81  75  76  76  74  74  75  76  79  85  88  89  91  94  95  96  96  93  92  88  87  95  98 101 100 103 105 107 112 122 123 125 105  72 100 128 139 166 173 175 173 175 175 174 174 174 174 174 175 174 173
 182 182 182 184 182 185 184 185 185 184 175 138 114 111 108 109 106  92  89  84  87 153 204 206 168 137 124 116 110 101  99 102 108 107 105 101  96  91  87  81  80  79  77  79  79  77  76  79  82  82  85  88  88  92  94  94  94  90  89  88  85  91  96  97 101 100 103 104 106 109 120 122 123 120  77  59  69  73  91 118 145 166 174 173 174 175 174 173 175 175 172 174
 179 181 181 184 183 182 182 181 165 138 115 105 104 105 102 103  96  88  80  83  86 152 203 198 157 131 125 117 110 105  98  98 105 103 104 101  95  90  86  82  79  79  80  78  80  80  80  80  84  87  87  85  87  89  91  91  90  89  87  84  91  97  98  99  99  99 102 104 106 109 121 121 121 118  88  50  52  52  62  74  88  97 117 145 168 172 174 173 176 175 175 175
 179 179 181 181 181 171 150 122 115 108 104 103 101  96  96  96  89  82  77  79  85 155 200 198 157 131 123 116 110 106 101  94  98 102 101 100  93  91  87  84  78  77  80  80  80  82  80  80  84  83  86  87  88  89  89  90  87  87  83  91  95  99 102  98  97  99 100 104 106 110 119 118 119 116  83  44  45  44  49  60  69  75  86  93 108 148 172 174 175 174 174 173
 179 180 181 170 139 114 108 108 105 103  99  93  92  91  88  89  80  78  74  76  80 155 196 190 152 128 121 115 112 106 101  98  92  93  94  95  92  89  85  82  79  77  79  83  81  79  80  81  81  82  84  88  89  87  86  84  82  78  89  93  97 102 102  98  97  99 100 103 105 110 119 120 118 114  73  42  40  40  45  52  57  58  63  71  81  90 120 156 171 173 174 172
 156 136 113 107 101 103 102  99  96  96  91  83  85  83  82  80  76  74  72  75  78 151 194 181 148 130 120 111 108 105 101 100  97  89  90  90  91  86  80  82  78  76  79  81  78  76  77  76  76  78  80  76  83  83  84  75  79  88  93  94  99 102 102  97  98  97 102 102 105 108 118 119 118 112  63  39  37  35  40  47  51  51  54  57  64  71  77  87 114 148 169 171
 105 104 100  99  99  99  96  91  90  89  84  81  79  78  74  75  73  71  70  72  74 146 189 174 147 129 119 111 106 101 102 102 100  99  88  86  86  84  80  79  77  78  78  81  81  78  76  76  73  76  76  75  78  78  75  78  88  93  97  98 102 100  99 100  99  99  99 102 105 107 117 121 116 109  50  39  34  36  38  45  47  46  48  50  54  58  63  70  77  84 101 132
  96  97  95  95  93  88  87  82  82  82  75  73  73  69  70  75  68  67  67  69  74 132 184 170 143 127 118 111 105 102 101 100 101 101 100  87  83  83  82  78  76  78  79  80  80  79  77  75  75  74  74  75  74  74  80  88  92  97 100 103 103 101 100 101  95  98 101 101 104 107 114 119 118  97  42  37  34  35  36  45  45  44  44  44  48  52  56  59  59  64  69  80
  92  89  90  89  82  83  81  76  76  81  69  70  70  63  68  73  69  67  67  64  71 117 175 161 139 124 115 111 105 104 101 101 101 101 101  97  89  82  79  77  80  80  80  76  80  80  78  76  75  74  71  70  74  82  88  92  96  98 101 100 101 103  99  98  97  97  98 100 103 106 110 115 114  82  41  34  34  33  36  43  46  40  41  40  40  44  49  50  54  53  56  61
