P2
# Generated by OpenCV 3.4.0
92 112
255
 140 141 140 141 140 141 141 141 141 143 142 142 141 140 140 138 133 128 126 123 114  88  67  52  41  38  37  32  29  28  28  26  24  24  24  23  23  17  15  15  18  20  20  18  21  23  24  26  25  25  25  27  25  27  27  26  30  31  40  50  60  59  75  61  54  64  80  72  60  58  67  81 128 103 121 134 131 145 148 149 150 151 151 150 149 149 151 150 151 150 150 148
 140 141 141 142 142 142 141 142 142 142 141 142 142 140 137 129 114  90  80  62  56  47  42  31  29  31  29  25  26  26  24  24  25  25  22  19  22  18  17  15  14  14  15  17  18  18  25  26  24  23  24  21  22  24  26  26  27  27  28  41  45  39  51  46  47  58  65  58  47  52  57  93 107  98 111 123 132 143 145 148 150 150 150 150 150 150 151 150 151 150 149 149
 140 141 142 142 141 142 142 141 141 143 142 142 143 139 134 123 102  83  60  46  40  40  34  28  30  30  24  24  25  25  26  26  26  25  22  23  20  16  13  14  14  15  15  17  18  24  26  23  20  18  17  16  16  20  25  25  26  26  26  30  31  32  35  41  41  51  60  44  40  44  56  89  97  94 101 117 125 136 142 149 149 151 150 149 150 150 151 151 150 152 150 151
 141 142 142 142 142 142 142 141 142 142 142 143 141 138 135 128 113  95  66  40  36  36  29  30  30  28  25  25  22  23  25  25  28  24  21  16  17  20  15  14  12  15  16  16  21  24  22  21  17  15  15  15  15  18  21  22  24  26  28  28  28  31  35  37  36  41  41  38  37  38  50  76  85  84  95 105 122 124 140 149 147 150 150 151 152 152 150 150 151 151 150 148
 141 142 143 143 142 142 142 143 143 143 143 142 143 143 139 127 112  76  48  37  35  30  31  31  27  25  23  21  20  22  24  28  26  21  16  16  15  16  15  15  14  14  15  20  21  21  19  17  17  16  15  16  16  17  19  21  24  27  28  28  29  31  35  36  35  34  33  33  32  35  41  55  79  82  92 105 115 111 137 145 144 148 151 152 151 152 152 151 150 151 151 152
 141 142 143 143 142 142 143 143 143 144 143 143 144 142 134 129 109  56  44  34  30  29  30  31  24  23  18  21  21  25  24  26  20  15  14  16  15  16  14  15  14  15  18  20  18  18  16  14  14  14  15  15  16  18  20  23  30  32  31  31  31  31  34  33  31  29  29  29  30  32  38  53  71  76  95  97 101  93 128 136 143 148 151 151 152 152 152 152 152 152 151 151
 141 143 142 142 142 143 143 143 142 141 144 144 144 138 137 128  89  53  39  32  30  27  28  26  23  23  23  23  22  17  20  22  17  15  14  15  14  15  13  15  16  17  17  16  15  15  13  14  14  14  15  16  18  19  20  23  27  26  27  28  30  32  32  32  32  30  30  29  30  32  36  46  54  67  91  90  90  76 107 125 138 147 150 151 152 153 152 152 151 151 151 151
 142 143 143 142 143 142 142 143 143 144 144 145 144 140 130 106  70  45  35  30  28  27  23  22  22  19  18  17  17  16  20  17  14  14  13  13  13  13  14  16  16  16  15  14  15  12  12  13  14  14  15  18  18  21  23  26  28  28  28  28  28  29  30  30  31  30  30  29  29  31  34  40  44  56  83  83  85  73  95 118 136 147 151 151 151 152 152 152 152 152 152 153
 142 142 143 143 144 143 142 143 143 143 144 145 144 141 126  95  47  36  33  25  24  22  22  25  23  16  17  18  16  16  18  17  15  14  13  13  14  14  14  16  15  15  13  12  12  12  11  12  13  13  15  17  19  21  21  21  26  29  28  29  28  29  31  32  30  31  31  30  30  30  32  35  40  65  82  77  61  70  88 113 131 144 149 150 152 152 152 152 152 152 151 153
 143 143 145 144 144 143 144 145 144 145 144 146 145 140 125  62  39  30  29  29  28  29  28  28  22  23  24  22  21  17  17  21  22  22  15  14  15  15  15  15  14  12  11  11  12  12  12  12  12  14  16  17  18  20  21  20  19  19  20  22  24  25  27  28  28  29  30  32  31  30  32  36  49  63  62  51  55  73  90 111 122 137 148 152 152 153 152 152 152 153 152 152
 143 144 144 144 144 144 144 145 146 145 145 145 144 135  80  41  33  34  33  34  30  27  27  22  17  18  17  17  22  22  20  23  22  25  25  20  15  14  12  12  12  11  11  12  12  12  12  13  13  13  15  16  19  23  24  22  22  22  20  19  18  21  23  23  25  26  27  27  28  29  30  33  43  47  44  43  56  66  83 113 117 137 150 152 152 153 153 152 153 153 152 152
 145 145 146 144 144 144 144 145 148 146 146 145 141 110  42  36  35  34  32  32  28  26  26  17  15  14  13  12  15  16  17  21  24  24  24  26  19  14  14  12  12  12  12  12  12  13  13  14  15  15  17  18  19  19  19  19  20  20  18  19  19  18  19  19  20  24  24  25  27  30  31  33  35  37  33  46  57  61  91 102 105 134 146 148 151 152 153 153 153 154 153 153
 145 144 146 146 144 144 145 145 146 146 146 146 136  62  37  37  33  32  29  29  26  24  17  14  14  13  14  13  14  15  17  17  20  23  23  28  26  20  18  14  13  13  14  13  14  15  15  15  16  17  19  20  20  18  17  16  16  16  15  17  16  18  18  18  18  19  21  23  24  26  26  28  29  30  32  40  43  75  87  82  86 122 138 145 152 153 153 153 154 153 153 153
 146 146 147 147 147 147 148 147 146 147 146 140  91  38  34  35  33  30  30  25  23  19  13  13  12  13  13  13  13  15  16  16  17  18  22  27  28  26  25  22  15  14  15  15  16  16  16  17  19  19  19  20  21  22  22  18  17  17  16  15  14  16  17  19  19  18  19  23  23  26  25  26  26  27  29  37  70  84  69  83  85 109 135 148 153 154 154 154 154 154 154 153
 146 148 146 146 147 147 148 148 148 147 144 124  47  38  35  34  31  30  28  23  18  15  14  12  13  14  15  14  16  16  16  16  22  23  23  25  29  30  30  27  21  18  16  17  16  17  18  18  18  20  21  20  23  23  22  20  19  18  18  17  17  17  17  18  19  19  19  19  22  23  22  25  24  27  33  42  57  50  55  58  80 117 141 151 154 154 154 154 155 156 155 155
 147 148 147 148 147 148 149 148 146 145 135  96  39  41  32  31  29  28  24  20  16  15  14  14  15  16  16  17  19  20  20  21  23  26  26  26  26  27  28  27  26  22  18  17  17  19  19  20  20  19  19  19  19  20  20  19  19  19  18  17  16  17  16  17  19  19  17  16  16  18  18  20  22  24  28  35  43  44  48  61 106 131 144 153 155 155 156 155 156 156 156 154
 148 149 149 148 149 149 149 149 147 145 129  57  43  37  30  29  27  26  21  20  17  15  15  16  18  21  25  25  27  26  26  27  27  28  29  28  28  26  26  25  26  27  22  19  20  21  22  22  22  22  20  20  20  20  19  20  20  19  17  19  16  16  15  16  18  20  18  16  16  18  18  17  17  19  25  29  36  45  60  96 124 138 148 153 155 155 156 156 156 158 156 155
 147 148 149 148 149 149 149 149 150 144 110  55  39  31  29  28  24  22  17  17  15  15  16  20  27  31  33  34  34  35  34  34  35  34  34  34  30  29  26  28  26  25  22  19  20  23  23  24  25  25  24  24  24  23  22  21  20  19  18  18  17  16  15  15  17  19  21  17  16  16  15  17  17  19  24  30  47  66  95 115 125 140 150 154 155 156 157 157 157 157 155 155
 150 149 149 149 150 149 149 149 149 140  77  42  33  30  28  28  24  22  18  17  16  17  21  30  39  42  43  43  43  44  42  42  42  40  39  40  36  31  29  28  26  25  24  20  19  22  24  25  26  28  28  27  27  28  26  24  23  22  21  18  19  17  15  15  17  19  20  20  17  17  18  19  22  22  31  44  63  96 115 132 145 152 155 157 157 157 157 157 157 156 156 156
 150 149 148 150 150 149 149 150 147 127  68  35  30  29  30  28  20  17  15  15  17  25  34  43  51  50  50  51  51  51  49  49  49  46  45  43  40  36  32  30  29  27  24  23  19  19  23  29  30  30  31  29  30  31  32  28  26  24  22  19  20  19  17  18  18  19  21  23  21  20  19  22  25  30  46  63  90 114 130 138 146 153 154 156 157 156 157 158 158 157 156 157
 150 150 151 151 150 150 151 152 147 116  56  32  30  30  30  23  18  16  15  16  23  37  45  56  59  57  58  59  61  61  60  59  56  55  52  48  47  44  39  35  35  32  28  27  21  19  22  29  32  35  35  37  37  38  38  37  35  28  25  23  24  23  22  20  20  20  24  24  24  25  24  24  30  37  71 110 122 131 139 141 150 154 155 156 158 157 158 158 158 158 156 156
 150 149 151 151 151 151 151 151 146 130  54  32  30  32  28  18  15  15  16  22  33  46  55  63  64  63  64  66  67  67  67  66  65  63  59  55  53  49  44  41  39  37  33  31  24  20  22  27  34  38  42  43  45  45  45  47  46  38  32  28  26  24  24  23  21  19  22  23  26  26  25  25  27  32  52  83 115 137 142 145 153 155 157 158 157 158 158 158 158 157 156 156
 150 151 151 152 152 151 151 149 147 132  51  30  30  32  24  16  16  15  18  27  42  55  63  68  68  69  70  70  72  72  71  70  70  68  66  63  59  54  51  47  43  41  38  37  32  24  23  27  34  41  44  45  50  52  52  54  54  52  44  37  32  29  26  24  21  18  18  20  23  26  24  23  25  30  50  81 108 115 127 140 151 156 158 157 158 158 157 157 157 157 156 157
 151 151 150 151 151 152 151 150 147 127  49  29  31  29  22  16  16  17  24  36  54  62  68  71  73  75  75  74  75  74  75  75  74  70  69  69  66  61  58  52  49  45  43  43  40  30  25  30  38  45  47  50  52  55  56  62  68  68  62  52  44  39  36  32  25  18  18  18  20  24  25  25  24  29  49  97 113 122 132 144 152 156 157 158 156 156 157 158 156 158 155 156
 150 151 152 150 150 149 151 151 145 110  40  31  31  26  22  16  17  20  31  48  61  67  74  78  79  78  79  78  78  77  77  77  78  75  74  71  71  69  63  59  56  52  48  47  46  42  34  37  45  47  51  54  54  56  62  66  75  78  77  71  63  56  51  47  34  24  20  19  19  22  23  25  26  30  36  81 117 132 144 150 154 157 159 157 157 156 158 157 157 156 155 155
 150 151 151 152 151 151 152 150 146  92  38  31  30  26  18  16  17  26  42  57  68  74  78  82  80  80  80  80  80  80  81  82  82  80  78  77  75  73  68  65  62  59  54  51  50  49  47  46  50  53  53  54  56  60  63  67  75  82  85  83  81  76  70  62  52  36  25  24  19  21  24  25  26  30  38  74 126 143 147 153 154 158 158 159 156 157 158 157 157 156 156 156
 151 150 150 150 150 151 150 147 132  60  38  30  30  26  18  18  21  36  52  66  75  78  81  84  84  83  82  84  84  85  87  86  85  84  81  79  78  78  73  70  69  66  63  57  55  55  55  55  58  58  59  61  61  63  66  71  78  84  90  90  90  90  86  80  71  52  33  26  23  19  23  26  29  33  39  61 118 143 151 154 157 157 156 157 157 157 157 157 156 156 156 156
 149 150 149 150 150 149 149 145 103  51  36  30  30  24  20  19  28  46  62  71  80  81  84  87  87  87  87  88  89  90  92  90  90  89  88  84  82  80  77  77  76  75  72  66  61  59  62  64  65  66  68  68  67  68  72  75  79  86  90  93  94  95  94  92  86  70  44  32  25  19  20  28  32  36  40  65 114 142 153 154 157 156 157 157 158 158 158 158 157 156 156 157
 149 150 151 150 150 150 148 139  63  42  35  28  30  25  20  22  36  56  68  78  82  84  87  89  90  90  90  93  93  94  93  96  93  93  93  89  87  85  82  82  80  80  76  71  66  64  64  67  70  71  72  73  73  72  74  77  80  85  90  92  95  97  96  96  94  83  63  43  27  21  18  24  35  39  44  70 123 147 155 156 157 156 156 157 156 157 158 158 158 157 157 156
 151 151 150 150 150 150 147 105  50  35  30  25  29  25  22  28  46  63  76  83  84  88  90  90  91  92  91  94  96  96  95  98  96  97  96  92  89  88  86  85  85  86  84  82  78  74  70  73  77  77  78  79  79  82  81  83  86  88  89  91  94  98  99  99  98  94  78  54  33  22  18  22  33  41  45  59 120 142 153 155 155 156 156 157 157 158 157 157 156 157 157 156
 150 152 151 151 149 149 144  84  43  31  29  23  28  26  24  36  54  69  80  83  85  88  91  91  91  93  96  97  97  98  98  97  98  99  99  98  94  90  91  90  92  94  94  92  89  86  84  87  86  85  85  86  86  87  87  89  91  92  93  93  94  95 100 102  99  98  90  65  43  25  20  23  32  39  40  55 111 144 151 155 156 157 157 156 158 158 157 156 155 157 157 156
 151 151 151 151 149 146 136  74  38  30  26  25  28  26  28  44  64  76  83  83  87  90  95  95  97  97  97  99  98  98 100  98  98 100 101 101  98  94  94  94  97  99  97  96  95  94  91  92  90  89  89  89  91  91  91  93  95  96  97  96  96  97  99 102  99  97  96  79  51  32  23  24  33  37  36  51 103 147 152 155 157 157 157 156 157 158 157 157 155 156 157 156
 150 150 150 149 150 148 135  56  38  30  25  25  25  26  32  53  69  80  83  85  90  93  96  96  99 100  98 100 100  99  98  99 100 100 101 100  93  93  97  99 101 101 101  99  98  96  95  92  89  87  88  92  92  92  93  93  96  96  97  98  98  99  99 101 101 101  99  86  62  40  25  26  35  38  37  47  94 146 154 156 156 158 158 158 156 156 156 156 155 156 156 156
 150 150 150 151 150 148 128  49  36  28  24  24  26  28  41  64  79  85  86  87  92  94  96  98 102 100  99 100  98  98  97  96  97  99 101  99  97  99 100  97  99 101 101  99  95  92  92  89  86  86  86  88  91  91  94  94  95  96  96  98  98  98  98 102 101 102 101  92  66  42  30  27  34  37  37  46 102 146 155 156 158 158 156 158 156 156 156 156 156 156 156 156
 149 150 151 150 151 150 130  50  34  26  28  27  28  32  50  74  84  87  88  89  94  96  98  97  99 100  99  98  97  96  96  96  96  97 100  99  97  99  99  98 100 100  97  95  90  91  90  88  85  85  85  86  87  92  94  94  95  96  97  99  99  98 101 100 102 100 100  96  75  48  36  27  29  32  37  48 102 151 155 156 158 158 158 158 158 158 158 155 155 155 155 156
 149 149 151 150 150 149 124  50  33  28  28  28  28  40  63  80  86  89  91  92  96  98  98  97 100  97  97  96  98  97  95  96  94  96  96  97  96  96  97  98  98  95  91  90  88  86  85  86  84  85  85  86  86  89  90  92  94  95  97 100 100  99 102 101 100 100 102  98  81  56  38  28  26  29  36  46  89 149 156 156 157 158 157 159 158 156 156 156 155 155 156 156
 149 150 150 151 152 148 125  48  32  28  28  29  30  49  73  83  88  89  92  96  99 100  98  96  98  95  91  92  93  93  95  91  89  90  92  93  94  91  93  92  89  89  87  86  85  82  82  82  82  82  84  83  85  85  87  89  88  89  89  92  94  96 101 102 102 102 100  99  85  61  43  32  26  27  33  40  88 150 156 157 157 156 156 158 157 157 157 157 155 155 155 156
 149 151 151 152 152 149 128  56  33  29  27  29  31  53  77  86  89  91  94  96  95  94  90  84  83  70  70  74  80  84  85  86  84  86  87  89  88  88  89  87  86  85  83  82  79  81  76  78  76  76  77  76  73  72  75  77  75  77  79  78  81  86  95 101 105 103  99 101  93  61  40  35  27  27  31  41  89 150 155 157 157 156 157 159 157 155 155 155 155 155 155 155
 150 152 151 151 150 148 142  79  38  28  28  29  32  58  82  87  90  92  87  80  74  72  61  48  49  41  36  38  44  56  63  73  74  77  80  82  85  85  83  84  84  81  79  76  75  68  67  69  64  60  57  54  49  47  43  47  50  52  53  52  54  59  71  88 103 102 100 103  96  67  40  35  31  26  31  39  99 150 157 155 157 156 155 156 157 157 156 156 155 156 154 155
 150 150 150 150 149 151 147 110  39  30  29  26  34  66  84  88  88  76  62  54  53  48  39  34  27  25  24  24  26  30  36  43  52  60  68  73  77  79  79  79  79  77  72  70  66  53  51  46  44  40  40  34  31  30  27  28  28  28  32  35  36  39  46  57  78  94  97 101 100  77  40  32  31  28  33  40 118 151 156 156 156 157 156 157 157 156 156 156 155 154 155 155
 150 149 151 151 150 150 149 128  47  32  28  26  37  73  86  84  69  46  46  47  41  31  28  26  25  20  19  20  21  24  25  29  33  41  48  59  69  73  74  76  74  72  66  59  50  40  37  33  32  29  29  25  24  24  24  22  23  23  24  26  30  32  36  42  49  66  82  96 104  88  41  30  30  30  33  48 133 152 155 155 157 157 156 157 156 156 156 156 153 154 155 155
 150 150 149 151 151 150 148 133  68  35  29  25  37  80  86  66  44  41  37  33  28  24  24  24  20  19  18  18  20  20  22  24  27  29  35  43  59  64  70  72  72  68  61  49  40  31  30  28  27  25  25  23  22  25  31  34  36  37  37  37  35  33  34  35  37  41  55  84 104 100  49  31  32  32  35  80 145 153 155 156 157 157 156 157 156 156 157 156 155 155 155 156
 150 149 149 150 152 150 146 137  95  35  30  25  44  83  71  42  38  35  31  28  29  29  28  28  24  23  20  18  19  19  20  23  24  26  30  37  45  57  66  71  71  65  52  43  34  29  26  24  24  22  30  37  38  35  29  26  26  27  28  29  29  31  30  30  32  33  37  66  97 107  56  33  32  32  33 116 149 154 156 156 157 156 155 155 156 156 156 156 156 155 155 156
 149 150 150 150 151 150 147 142 123  44  30  24  45  83  51  40  37  37  37  38  38  38  39  38  40  42  41  40  36  23  20  23  24  25  27  31  40  50  65  72  71  63  49  40  31  26  25  25  32  37  31  24  23  24  25  25  28  30  32  35  34  33  33  35  36  36  35  36  60 107  70  35  32  32  35 123 151 154 156 156 156 155 155 155 156 156 156 156 155 154 154 155
 150 149 150 151 152 151 149 147 139  62  33  26  48  48  39  38  36  33  33  36  39  41  44  43  39  36  33  31  32  40  42  37  32  26  30  30  40  49  66  76  73  65  53  46  39  39  42  39  28  26  27  26  27  29  30  32  35  36  37  38  38  39  41  42  44  44  49  49  36  60  76  38  33  33  41 132 152 154 154 156 156 156 157 157 157 156 156 155 155 154 154 154
 149 149 149 151 151 149 149 149 144  82  37  41  35  37  44  36  35  37  42  46  49  51  51  50  48  42  38  38  36  34  32  34  44  48  52  52  50  48  62  65  57  47  45  45  49  43  33  28  31  32  30  30  30  32  34  36  37  38  38  41  45  46  48  51  52  53  55  65  54  34  39  38  37  38  60 139 153 155 156 155 155 156 157 156 156 156 156 155 154 155 154 154
 149 150 150 150 151 150 150 151 148 109  42  33  42  35  46  43  44  49  52  53  53  52  50  47  42  36  33  33  33  33  35  32  31  37  38  34  32  30  31  29  28  29  31  34  36  32  30  34  32  30  29  28  27  28  29  30  32  36  35  37  40  45  50  53  54  56  60  72  90  38  50  55  63 105  81 143 152 155 154 156 156 155 155 155 157 156 155 155 155 155 155 155
 149 150 151 150 151 150 150 148 132  54  36  85  56  40  57  53  53  55  55  51  45  45  44  42  34  30  32  30  30  30  30  31  31  33  32  40  51  58  63  70  70  64  61  54  44  30  37  33  30  28  26  24  25  27  29  33  36  38  38  38  42  45  42  49  55  60  68  81 100  61  29  26  31  52  90 145 152 155 156 155 156 156 156 156 156 155 156 155 155 155 154 154
 149 150 152 151 152 147 117  95  68  46  45 135  71  48  72  63  58  56  50  45  47  41  34  29  26  25  28  28  29  30  29  31  32  34  34  45  54  59  60  63  67  63  60  58  48  32  36  30  27  26  26  26  26  24  22  22  25  24  23  27  35  52  52  43  55  63  71  83 105  75  32  35  44  39 107 147 153 154 155 155 156 155 156 156 155 154 155 154 155 155 155 156
 150 152 152 150 150 142  62  52  44  41  79 141  71  50  77  65  60  52  43  44  34  30  29  25  26  29  26  25  28  29  29  30  34  37  34  38  48  58  75  84  86  79  69  54  33  35  34  29  27  26  27  25  24  25  20  22  20  19  20  34  30  30  39  41  46  59  70  80 102  87  37  43  39  42 120 152 154 155 154 154 155 156 155 155 156 154 155 153 154 156 155 155
 151 152 150 150 151 145 108  92  47  41  97 143  58  57  79  66  60  48  40  30  29  41  34  26  25  24  25  28  29  36  30  30  35  41  37  32  46  70  92  98  95  88  77  57  31  37  33  29  29  27  25  28  35  30  23  21  19  20  24  36  39  34  30  35  40  56  69  76  88  76  39  41  32  57 139 148 152 155 155 155 156 155 155 155 156 155 154 155 155 156 155 156
 151 150 150 150 151 151 150 148 117  40  75 117  58  64  78  68  60  43  32  30  45  54  49  31  25  25  21  27  32  41  35  30  36  47  41  32  43  70  88  95  92  88  75  56  33  39  36  31  30  26  26  33  43  37  26  22  18  20  25  34  50  50  41  35  41  56  71  81  91  71  46  29  29  89 102 119 136 150 154 155 154 155 155 155 155 156 156 155 155 154 154 155
 150 151 151 151 152 151 151 150 138  52  85  49  43  61  80  71  53  38  36  42  51  60  55  35  28  24  27  30  37  42  35  33  38  53  48  32  45  70  91  99  99  98  85  55  34  36  44  44  35  31  33  36  45  47  35  32  28  29  30  44  51  49  49  51  54  64  79  93 105  81  85  54  59  78  92 110 118 129 151 155 156 155 155 156 155 156 155 154 155 156 156 155
 150 151 152 152 151 152 152 133 106  63  93  93  36  53  84  76  66  55  52  51  49  51  52  45  34  34  36  40  48  49  49  57  59  56  47  31  47  81 100 104 107 109 101  64  38  37  50  51  48  48  48  48  46  45  40  37  37  35  39  43  45  51  63  72  74  81  90 102 110  81 108  85  89  86  93  91  65  80 147 154 156 155 156 156 155 156 155 155 155 154 154 155
 151 151 151 152 150 150 145 104  89  78  69  86  74  73  88  84  80  74  71  60  51  48  49  49  50  49  50  52  53  53  57  62  65  53  40  30  50  93 106 110 110 110 104  77  42  38  45  48  52  51  48  47  46  47  44  41  42  40  43  48  54  61  72  81  88  95 101 108 112  72 117  89  97  91  85  52  50  75 142 153 156 155 155 156 155 155 155 155 155 155 155 155
 150 150 152 151 151 151 137  76  63  71  58  63  70  81  90  86  89  86  80  69  62  54  52  53  52  50  53  54  53  54  58  61  64  62  39  36  58  92 108 111 110 111 102  81  48  38  47  57  51  48  46  45  45  48  50  49  49  49  52  54  58  66  75  85  94 103 108 112 102  80 120  97  94  96  81  48  48  75 145 152 156 154 154 156 156 155 155 154 153 155 156 154
 150 151 151 151 151 149 139  66  44  50  50  50  52  85  98  92  93  90  82  75  68  62  59  59  60  59  59  57  56  60  62  64  66  64  37  51  70  90 107 111 108 108  98  81  53  41  49  63  58  53  51  50  48  47  47  47  48  50  52  55  62  69  76  87  97 106 108 110  85  97 119  96  92 110 100  50  49  78 144 152 154 155 156 156 156 154 155 155 154 155 155 154
 149 150 152 151 151 149 141  69  44  43  46  52  51  96 102 100  95  90  84  79  74  66  62  66  62  59  59  62  67  68  69  71  71  56  47  61  75  90 105 110 113 108  96  83  60  48  42  61  67  62  59  59  58  60  58  56  55  55  57  60  69  77  82  90  96 104 109 108  70 110 117  96 101 135 118  52  48  95 146 153 154 154 154 153 154 154 156 154 154 155 154 154
 151 150 150 151 150 149 145  75  45  47  61  52  58  96 102 103  97  90  85  83  79  73  69  73  70  71  71  73  76  75  76  77  76  46  60  67  78  92 107 114 116 108  98  85  68  53  50  51  70  70  69  71  70  69  68  68  69  72  74  77  80  86  89  93  97 104 108  86  87 115 119  96 104 134 126  54  50 103 144 151 152 153 153 155 154 154 155 153 154 154 155 154
 152 150 152 151 149 149 147  86  47  52  74  53  68 100 103 101 101  95  90  88  86  83  82  84  81  82  82  80  81  82  84  82  59  51  68  70  82  94 108 113 113 105  96  86  73  60  52  47  64  74  75  78  76  76  75  75  77  79  82  84  87  89  92  94  97 103  99  67 109 116 119  93  86 124 130  65  57 112 146 151 151 153 154 153 154 154 153 154 152 154 153 153
 152 149 151 151 150 150 146  98  53  57  87  72  66  96 104 103 102  98  94  92  91  89  89  89  87  86  86  85  86  87  86  78  42  75  71  73  86  96 110 111 113 108  98  88  78  68  60  66  53  67  81  82  83  82  80  79  81  82  84  86  88  89  93  96  99  95  72 100 111 114 119  90  62  87 119  80  64 117 146 148 152 152 152 154 153 152 153 152 152 151 153 153
 151 150 151 150 150 151 147 105  57  64  93  82  86  66  98 104 103  99  96  94  92  90  91  90  89  88  89  90  88  85  80  45  74  78  72  78  88 100 109 115 116 110  99  91  83  74  66  70  76  56  62  81  83  85  83  81  80  80  82  84  86  90  92  95  89  60  93 107 110 113 118  93  66  66  96  90  75 127 147 150 150 150 150 150 151 151 151 152 150 151 151 153
 150 150 150 151 148 149 149 115  65  75  89  77 100  83  68  96  99  96  94  92  90  90  90  90  91  89  90  89  89  81  45  71  81  78  75  84  95 103 108 111 115 109 102  97  89  80  68  67  75  80  69  54  66  79  82  80  79  80  81  83  84  83  81  74  80  92  97 103 109 112 117 101  87  63  82  96  90 135 146 148 149 149 150 149 150 150 150 150 149 150 151 150
 148 149 151 151 150 150 149 128  78  80  86  74 101  99  90  75  82  90  89  89  89  88  89  89  89  89  89  84  69  54  75  82  81  80  78  88  98 104 106 111 109 104 102  97  94  84  73  66  71  78  79  75  66  57  56  58  57  60  62  64  68  72  79  88  91  94  96 100 106 112 114  99  89  64  80 103 109 139 146 148 149 148 148 148 150 150 150 151 149 149 149 150
 150 150 149 150 150 149 149 143  95  84  82  70  98  94  92  90  81  73  69  74  79  83  83  81  79  68  57  60  71  82  82  82  79  78  75  88 100 106 106 104 105 103 100  97  94  87  74  65  69  75  76  72  72  75  78  80  80  81  79  81  84  88  89  90  91  92  95  97 104 110 110  97  76  67  85 109 124 142 146 145 146 148 147 148 147 149 148 149 148 148 148 148
 148 148 149 149 148 150 148 147 112  86  82  72  94  91  90  89  88  85  83  83  78  73  71  72  73  83  85  85  84  80  79  77  75  72  74  93 103 104 103  99 102 102  99  96  94  87  73  61  66  71  71  70  70  72  77  78  78  79  79  83  85  86  90  90  91  93  94  96 101 108 104  90  75  79 102 116 131 140 144 144 145 147 146 146 145 148 148 146 147 145 146 147
 148 148 148 149 148 148 149 147 129  91  89  81  89  90  88  88  90  89  88  89  90  89  86  85  83  86  83  82  80  76  74  72  69  70  83 100 103 102  99  97  97  99  97  92  94  90  78  61  61  62  67  70  70  70  73  72  77  77  76  79  83  85  87  89  91  91  92  95  99 105  95  97 116 113 113 114 134 140 142 142 143 144 143 144 144 146 147 146 146 145 144 145
 146 146 147 147 147 149 148 148 138  96  94  88  88  89  88  89  90  88  88  88  86  88  86  84  82  83  81  78  75  71  70  68  66  75  92  98 100  99  98  96  91  94  93  94  94  91  85  74  63  60  61  64  66  70  69  71  72  73  75  75  77  82  83  88  91  90  91  94  99 106  94 104 130 115 102 118 137 140 141 143 143 142 142 141 144 143 145 145 144 144 144 145
 147 147 147 146 147 149 148 147 144 104  90  94  92  88  86  87  89  86  86  87  87  87  85  82  81  79  77  73  70  68  67  65  67  88  90  92  95  96  97  94  90  92  91  88  90  90  86  81  74  63  62  63  65  66  67  69  71  72  71  72  75  78  80  85  89  89  91  94  97 103  86 111 132 122 119 127 138 140 141 142 141 141 141 140 141 143 144 143 143 143 142 144
 146 146 148 147 147 146 146 147 144 118  92  97  92  88  88  88  88  87  87  87  85  84  84  80  78  74  73  69  67  66  67  67  76  85  87  87  86  84  90  90  87  86  83  84  85  84  82  78  77  66  66  65  63  63  64  66  68  70  71  72  74  74  77  81  85  89  91  94  97 100  83 107 128 136 132 135 139 139 142 141 141 141 141 142 141 144 142 141 140 142 140 142
 146 145 146 146 147 146 146 145 146 135 106 103  87  88  87  85  84  85  84  83  83  82  80  78  77  75  72  69  67  67  70  69  78  77  79  80  78  74  82  84  82  80  77  75  75  75  71  69  73  66  66  70  67  65  64  65  65  69  70  71  73  73  75  76  81  86  89  92  96  97  83 110 122 132 137 139 139 139 139 140 139 139 140 139 140 140 140 140 140 140 139 139
 146 145 145 145 146 147 146 146 145 142 118 101  84  83  86  83  82  83  81  81  82  79  77  79  78  77  75  73  72  71  72  69  73  69  66  69  70  72  74  74  72  69  67  65  63  62  56  59  66  61  64  71  71  70  70  69  69  68  66  70  73  73  75  74  74  80  88  90  93  95  79 103 114 120 134 138 138 139 139 138 138 139 138 139 139 138 139 139 139 139 139 138
 145 145 143 144 145 146 145 146 145 142 112  99  82  79  83  82  81  79  79  80  80  80  80  80  80  79  78  76  74  71  70  68  64  58  54  58  63  64  65  64  64  60  57  54  51  50  48  49  56  60  65  70  70  69  71  72  71  70  69  70  71  73  74  75  75  80  85  88  93  91  70  87 100 108 129 135 138 138 138 139 138 137 138 138 138 137 138 138 137 138 137 136
 145 144 145 146 145 145 145 146 146 142 110  92  78  75  82  81  80  81  79  79  80  81  82  82  80  78  76  73  70  72  72  70  64  52  39  40  52  53  52  53  53  51  47  47  46  33  35  44  54  64  70  71  72  71  70  71  70  70  70  69  70  71  74  74  75  81  86  88  88  86  66  69  85 113 133 138 137 137 137 137 137 136 136 137 137 137 135 135 137 136 137 134
 144 143 144 144 144 144 144 145 146 144 121  83  69  66  81  79  79  80  80  79  80  80  81  80  78  76  74  74  74  78  78  75  70  61  49  37  43  46  43  42  42  41  41  42  39  37  44  52  60  69  73  75  75  74  72  71  71  70  70  67  68  70  72  75  77  80  84  84  82  77  92 102 120 133 135 138 138 137 136 136 135 136 137 135 133 134 134 134 135 134 136 135
 144 143 144 144 144 144 145 145 145 144 141 120  90  68  77  79  79  79  78  78  79  79  78  75  67  70  72  74  78  82  82  80  72  66  58  46  42  42  41  36  36  36  38  38  42  46  51  57  66  72  77  79  79  80  77  75  73  72  70  65  66  68  71  74  78  81  82  82  83  76 108 129 134 135 135 134 134 135 136 135 134 133 135 133 132 133 134 134 134 134 135 133
 143 143 144 143 143 143 144 144 144 144 143 141 137  79  72  76  75  78  80  78  78  76  74  70  61  69  74  76  82  83  84  82  74  65  58  50  43  42  43  39  36  37  37  39  44  47  50  58  68  73  80  82  81  81  81  79  77  74  72  68  66  68  73  76  78  81  82  79  77  77 117 131 134 133 134 133 134 134 134 133 133 133 133 132 132 133 133 133 132 132 132 132
 143 142 143 143 141 144 144 144 145 143 143 144 141  95  69  73  74  76  77  78  76  74  71  70  73  73  75  80  84  85  84  81  76  66  59  49  43  41  41  40  36  36  35  38  42  45  47  55  67  74  78  78  80  81  80  79  78  78  76  71  68  67  73  76  76  78  82  78  75  79 122 131 133 132 133 134 133 132 133 133 132 131 132 131 132 132 132 132 132 130 131 133
 142 142 142 143 142 142 143 143 143 142 143 143 141 111  70  71  73  76  76  75  73  72  72  73  75  78  80  82  83  82  82  81  74  63  54  49  41  38  37  36  33  33  36  37  40  43  42  48  59  70  75  77  77  80  80  80  79  78  77  73  71  70  73  76  75  75  80  82  72  82 122 129 131 132 132 132 132 131 132 131 131 132 132 130 130 130 130 130 129 129 128 129
 139 142 140 142 140 143 143 142 142 141 141 142 140 131  70  68  70  74  73  71  71  73  73  77  80  80  80  80  79  79  80  74  64  59  52  49  43  37  37  35  33  33  36  38  40  39  40  46  53  62  67  73  72  75  75  75  77  76  77  75  75  74  74  76  75  74  78  81  68  91 123 126 130 131 132 130 130 130 130 130 130 129 130 128 127 128 128 128 129 127 126 127
 139 139 140 141 141 140 141 142 142 141 142 141 140 131  72  68  69  72  74  71  70  72  73  76  77  80  75  73  71  70  71  67  57  53  49  48  41  38  35  36  35  31  36  39  38  38  42  49  52  55  58  63  64  67  69  69  74  73  74  74  74  74  74  75  76  74  78  80  64  99 124 126 126 129 130 130 130 129 129 128 127 129 128 127 127 127 127 126 126 126 126 125
 138 139 140 139 141 140 139 141 140 140 140 140 140 135  84  69  70  71  72  69  70  71  72  76  78  75  68  61  62  62  64  65  58  53  50  50  48  41  36  36  34  33  38  39  40  40  45  53  54  53  56  58  58  60  62  63  65  69  71  76  75  75  74  74  73  75  75  74  67 116 122 125 127 127 128 128 128 127 125 127 126 128 127 125 126 125 125 125 126 125 125 124
 138 139 139 139 138 140 139 139 141 140 140 138 139 138 108  66  69  67  70  69  71  72  73  75  73  67  59  51  55  53  60  66  62  57  59  58  57  50  42  39  38  35  38  48  48  50  51  54  55  54  58  58  54  56  57  56  54  60  71  76  77  75  72  71  72  75  76  67  75 117 122 124 125 124 125 124 124 126 126 126 125 126 125 124 124 124 125 123 124 123 123 122
 138 138 137 137 138 139 139 139 140 139 139 139 138 138 127  66  63  67  65  68  70  72  75  74  71  61  52  46  49  49  56  66  68  65  63  62  62  59  51  48  44  42  46  52  52  55  52  55  61  59  60  57  52  47  47  49  51  59  67  73  76  76  73  69  71  70  71  61  86 119 123 123 123 124 124 124 125 125 125 125 125 125 124 124 124 123 124 123 122 121 120 122
 136 136 136 136 138 137 138 137 138 138 139 139 138 138 134  89  61  65  62  64  67  71  75  74  69  54  48  44  46  47  52  60  61  56  53  50  48  49  49  50  48  47  47  47  44  44  45  49  52  54  55  51  44  38  37  42  46  57  67  72  74  76  71  68  68  63  64  55 104 119 122 123 123 123 124 124 125 125 124 123 124 124 124 122 123 122 122 120 122 120 120 122
 137 135 136 137 137 137 136 137 137 138 138 138 139 137 136 114  60  62  62  62  64  67  73  72  66  56  48  41  40  39  46  46  44  38  36  35  34  34  37  41  43  41  35  32  31  32  31  33  35  36  38  36  29  28  35  43  48  55  66  71  73  72  68  66  65  58  58  70 111 118 120 119 119 120 122 121 121 120 120 121 121 121 122 119 118 118 118 118 118 117 118 119
 136 134 136 136 136 135 134 136 133 137 137 137 137 136 135 131  76  58  63  60  62  65  71  73  66  56  46  42  41  35  30  27  26  23  21  21  20  22  26  26  27  26  24  24  22  20  19  20  21  25  29  30  36  44  47  50  54  58  63  68  67  64  64  59  60  53  51  79 111 116 116 117 116 116 119 118 119 118 117 118 119 117 117 117 117 118 117 118 117 117 117 118
 135 135 135 135 134 135 133 134 134 136 136 135 137 137 135 130 107  54  54  56  56  60  65  70  67  58  51  52  52  51  46  35  32  28  26  26  21  20  19  18  19  18  20  23  22  22  23  29  38  43  45  50  56  56  56  55  57  58  59  62  59  58  62  58  52  45  46  98 111 113 115 114 117 117 117 116 117 118 118 118 118 118 118 117 118 118 117 118 119 118 118 118
 133 133 133 133 134 133 133 132 134 134 133 134 135 135 134 131 125  65  51  55  56  61  61  69  67  61  57  59  63  61  56  51  47  43  43  44  42  40  35  32  30  29  31  35  38  40  43  48  52  55  58  59  63  64  61  62  62  59  58  59  57  57  59  55  46  37  67 107 112 114 114 115 116 116 116 116 116 118 117 117 118 119 118 118 118 117 117 117 116 117 117 117
 133 132 132 133 133 133 132 131 136 134 132 132 132 133 133 130 130 104  50  48  53  60  61  66  68  64  63  65  66  67  64  61  58  53  48  48  52  54  53  49  47  46  47  49  50  51  49  50  51  53  58  61  65  65  63  62  60  60  59  59  58  55  53  46  36  37  81  99 104 109 112 113 114 117 116 117 117 117 116 117 117 118 118 117 117 116 116 115 115 115 114 114
 132 133 133 134 132 131 132 132 133 134 132 132 132 133 132 131 130 122  70  46  49  55  60  63  63  63  64  64  66  67  67  65  59  54  52  47  46  48  50  50  50  49  49  48  48  46  44  44  48  51  55  61  64  62  61  60  58  59  61  61  59  53  45  33  30  31  37  52  71  84  88  95 100 105 107 110 111 115 115 115 114 116 117 114 115 114 115 114 113 113 112 111
 130 131 131 133 132 133 132 132 132 133 132 132 131 132 131 130 129 126 109  42  46  52  57  61  62  64  61  62  64  64  63  62  58  53  48  45  42  41  41  42  44  46  46  42  40  41  41  42  45  49  54  57  58  60  58  55  56  58  61  60  58  47  36  30  31  41  21  21  22  53  72  73  78  80  79  81  86  93  97 101 106 107 108 109 111 110 112 112 111 110 112 111
 131 131 131 129 131 131 131 130 131 132 130 130 128 128 129 128 128 126 117  59  37  47  54  61  61  61  61  62  61  62  62  62  58  53  48  43  41  40  37  36  39  43  41  36  36  38  38  40  46  50  52  53  54  54  54  57  58  59  62  59  52  40  32  30  57  40  14  14  16  20  54  68  71  72  77  73  70  75  79  78  82  84  87  90  93  95  98  98  97 100 103 103
 130 131 131 130 131 131 131 131 131 129 129 130 130 129 130 127 126 124 120 104  43  38  45  56  63  62  61  62  61  60  62  62  61  57  50  45  41  37  32  31  31  32  32  29  31  34  33  37  42  46  51  53  54  54  55  59  62  65  65  57  46  36  31  40  91  46  12  12  12  14  30  64  64  68  74  77  70  68  69  70  71  71  74  75  77  77  82  81  84  84  85  84
 131 130 130 130 129 129 131 129 127 126 127 128 127 126 127 125 122 121 117 104  69  35  39  51  59  58  58  58  61  61  62  61  61  58  55  50  42  34  29  29  29  29  26  26  27  31  36  38  41  46  52  54  55  57  59  63  63  62  59  54  42  31  28  72  97  55  16  12  11  13  18  50  62  66  69  76  72  67  66  66  68  67  68  68  69  67  68  69  76  78  76  74
 130 129 129 129 128 129 128 128 126 125 126 125 125 125 123 119 106  92  70  54  49  42  32  41  48  52  53  55  62  62  62  61  59  57  55  52  45  38  36  33  30  30  27  26  29  32  35  39  43  49  53  57  60  62  65  66  66  61  58  49  37  28  47  94 102  67  26  16  14  14  15  38  61  60  65  69  70  69  66  67  66  66  65  63  65  66  67  68  71  69  68  68
 128 128 126 126 126 127 126 125 124 125 125 121 118 111  97  73  61  55  41  21  23  55  33  31  35  46  51  56  62  64  64  62  60  59  58  55  50  46  45  42  40  40  35  37  43  48  50  50  53  54  57  62  65  67  67  68  67  59  54  43  29  35  73  96 104  89  49  29  20  15  14  21  60  61  61  65  67  69  65  64  64  66  63  62  63  65  65  65  64  67  68  67
 126 126 126 125 125 125 124 123 121 120 112  96  85  71  64  52  48  37  15  11  16  60  49  28  30  43  52  52  62  65  67  66  64  61  58  62  64  64  64  63  65  62  61  64  66  69  69  68  67  65  66  66  68  69  68  65  64  55  46  35  31  60  90  98 103 100  83  49  30  20  16  18  54  58  61  63  64  65  65  63  61  62  59  59  61  61  63  64  67  63  64  64
 124 124 124 121 122 113 104  97  89  78  67  61  61  57  51  44  44  20  10  11  19  62  60  45  30  32  44  50  58  63  69  69  67  65  64  69  74  73  73  73  75  73  73  75  74  77  77  76  76  72  72  70  70  70  63  59  58  48  35  27  44  84  95 100 103 101  97  69  42  29  18  15  46  55  57  61  64  65  62  63  61  61  59  58  58  60  61  61  65  62  63  64
 113 104  92  84  75  75  68  67  62  59  59  58  53  47  44  43  39  12  13  23  42  65  66  56  36  29  34  44  51  56  65  68  71  69  72  73  76  76  74  74  76  74  74  72  73  75  77  75  75  75  72  71  68  65  59  50  47  35  25  27  71  88  95  99 103 103  99  85  52  36  20  18  46  53  54  58  62  66  63  60  61  60  60  59  58  60  60  60  62  63  63  64
  72  72  73  68  66  63  64  58  56  58  59  55  48  43  40  43  29  15  25  44  63  67  67  65  57  37  27  39  46  50  59  64  68  70  74  75  74  73  72  73  74  73  70  71  70  71  72  72  73  73  71  69  64  57  50  39  35  27  24  58  84  90  94  98 103 103 101  95  61  43  24  20  49  52  52  56  61  61  63  60  59  59  58  58  58  59  58  57  62  64  62  63
  73  70  68  65  62  57  55  51  55  57  56  48  44  40  39  42  23  21  38  57  71  69  68  66  63  54  32  33  42  45  49  57  65  69  72  73  67  68  68  67  68  67  66  68  65  65  68  69  70  69  64  61  56  50  40  32  30  25  51  79  84  90  93  99 101 104 103  97  69  45  29  23  50  50  53  57  59  59  61  59  58  58  58  57  56  57  56  56  61  65  63  64
  66  60  61  58  54  52  51  54  55  51  49  45  41  38  39  40  19  28  48  65  72  70  68  67  64  57  39  26  35  42  43  50  57  62  66  67  65  65  65  65  63  64  63  62  62  61  62  63  63  60  56  49  41  41  33  26  24  43  74  79  85  90  95  98 101 104 106  97  74  46  31  28  50  52  55  57  59  60  59  58  60  60  58  54  57  57  57  58  60  62  62  64
  59  57  56  55  54  51  50  51  49  47  46  42  37  34  38  40  21  35  52  70  73  68  68  68  65  61  58  35  28  39  39  41  45  50  58  62  62  59  61  62  62  61  58  58  58  57  57  56  52  50  48  38  33  34  29  23  37  65  77  79  84  91  96  97 101 101 103  98  75  47  33  36  52  51  52  59  59  59  58  54  54  57  57  54  56  57  58  58  59  64  60  64
  55  52  51  51  52  53  50  47  45  46  44  40  37  35  38  39  23  39  58  71  71  68  68  68  66  63  62  51  30  29  33  31  38  44  48  54  54  53  54  56  56  54  52  51  51  54  53  51  45  40  36  31  29  27  23  31  60  73  77  80  84  90  96  97  99  98 100  99  73  47  36  45  50  49  54  57  59  58  58  54  52  54  55  51  53  55  58  59  60  65  62  62
  52  50  49  49  49  48  47  46  44  44  42  39  35  33  36  38  27  39  59  72  72  69  68  67  63  63  62  58  43  24  26  26  30  34  37  43  46  48  48  46  46  48  45  46  44  45  44  39  33  33  29  27  25  21  31  57  70  75  77  79  82  90  94  98  99  98  98  96  71  43  40  47  49  48  54  57  60  59  55  53  51  52  50  51  53  53  59  62  63  62  60  60
  48  48  47  46  47  45  45  43  41  43  42  37  37  33  33  36  30  37  57  69  70  68  67  66  65  62  61  60  52  37  23  24  24  27  29  35  38  40  40  39  40  40  40  38  34  35  33  27  25  25  23  22  21  27  54  66  71  75  76  78  83  89  93  96  98  98  97  94  64  42  43  44  48  50  51  57  59  54  52  53  50  48  49  51  55  58  60  62  61  61  60  59
  47  45  46  44  44  45  44  42  41  42  40  36  36  33  33  34  33  32  52  68  68  67  67  66  66  61  60  60  56  53  39  28  20  22  25  30  27  29  32  33  32  32  32  31  27  26  22  20  19  18  18  22  31  48  62  68  71  73  75  78  83  88  91  95  96  97  95  85  55  42  44  45  46  50  54  57  57  53  51  50  48  48  49  53  59  60  62  59  59  59  59  59
  48  45  46  45  44  43  42  39  42  44  39  37  38  35  32  36  37  31  45  66  68  67  67  66  66  63  60  59  57  55  52  43  29  21  21  21  22  22  22  22  24  24  22  21  20  16  15  17  17  20  29  39  50  55  64  67  70  72  74  78  81  86  90  92  94  96  87  73  45  46  45  47  45  52  58  60  55  54  52  49  48  49  50  53  59  58  59  59  59  58  58  60
  46  45  45  44  44  41  42  41  41  42  39  36  39  38  33  34  37  32  38  60  67  67  66  67  64  63  61  59  56  55  55  51  45  39  30  23  19  20  16  17  16  15  14  14  12  13  15  21  28  36  46  51  55  59  63  66  69  69  74  77  80  85  89  91  93  91  80  55  41  47  46  46  49  54  59  60  55  52  48  48  47  50  53  56  59  59  60  59  58  56  55  56
  45  45  45  43  44  43  43  41  40  42  40  38  37  38  35  33  33  34  33  52  64  67  67  65  63  61  59  59  56  56  55  54  50  45  43  38  36  32  26  23  22  23  22  21  21  23  28  34  39  43  48  53  54  59  62  66  68  69  74  75  78  84  87  90  92  90  71  43  44  44  46  47  50  53  56  57  52  48  48  49  50  50  50  56  58  58  61  59  60  55  54  55
  46  45  44  44  44  43  43  42  42  40  39  38  38  37  36  33  34  35  35  37  58  63  66  66  62  60  59  58  58  56  55  54  50  48  46  41  40  37  35  30  29  28  28  28  29  29  33  36  39  45  48  52  55  58  62  66  67  69  71  75  78  83  85  90  90  82  52  46  44  44  43  50  50  54  56  55  50  45  45  46  50  51  52  55  56  59  58  58  57  55  54  53
