P2
# Generated by OpenCV 3.4.0
92 112
255
 138 139 141 142 142 143 144 143 145 144 143 145 146 145 148 147 148 149 148 147 149 150 148 148 145 145 136 141 142 140 126 120  95  75  62  37  31  31  32  32  32  32  30  24  22  21  25  28  28  32  32  30  29  27  27  28  30  30  32  38  35  39  58  49  56  69  82  76  78  81  87 101  91  96 127 124 101  70  82  85 114 129 134 142 146 148 152 151 153 151 150 151
 142 142 143 143 143 144 144 144 146 145 145 146 147 147 148 149 148 148 149 149 149 149 148 148 147 144 140 142 140 131 104  90  58  55  42  32  30  29  32  30  34  29  25  23  20  16  19  24  28  31  27  25  24  25  25  27  25  27  30  32  30  32  33  40  48  50  63  56  57  75  91  96  94  86 133 128  84  64  70  83 124 119 120 139 137 148 151 152 153 152 151 151
 142 142 144 143 144 144 144 145 144 145 145 146 148 147 147 147 148 148 147 147 149 148 148 146 144 140 125 117 107  99  65  47  36  33  32  33  30  30  27  27  27  25  23  19  18  17  19  25  29  29  26  22  20  21  21  24  23  22  27  31  28  28  30  32  35  36  38  39  53  78  97 101  81  70 107 107  63  56  59  86 130 112 110 124 133 148 151 149 151 152 151 153
 143 143 144 143 144 144 143 145 145 146 146 147 147 148 148 148 148 148 147 146 148 149 148 147 141 127  98  81  67  50  39  35  30  31  29  33  30  24  20  22  23  22  20  19  15  19  24  25  26  23  20  18  17  17  15  19  19  19  25  26  25  25  27  29  29  30  30  38  70  80  76  76  70  63  80  64  46  52  60  98 117  97  98 127 132 144 148 150 152 151 152 152
 143 145 144 144 144 144 145 144 146 145 145 147 147 147 147 149 149 149 148 146 147 149 148 146 138 124 107  79  51  39  31  29  29  30  30  30  25  19  16  15  18  17  19  20  21  24  24  22  21  18  17  16  14  15  15  16  19  21  23  23  24  27  28  28  28  27  29  34  53  63  58  53  60  54  48  50  44  46  61 108 109  79 100 111 126 134 140 149 150 153 152 152
 143 144 145 146 145 145 145 144 146 145 145 148 148 148 149 148 149 148 148 147 148 148 148 146 139 124  93  61  47  32  28  29  29  26  27  26  19  15  17  15  18  20  18  23  23  21  19  18  17  16  14  13  14  14  16  15  20  23  22  24  28  32  37  33  32  30  32  33  40  54  51  42  42  40  38  38  40  41  53  91  83  82  95 104 127 121 136 146 149 151 152 152
 145 144 147 145 146 145 145 147 146 145 146 147 147 148 148 147 147 146 146 147 149 149 147 145 140 116  77  51  35  30  28  26  24  23  27  19  16  15  14  14  16  16  16  20  18  18  16  15  14  13  13  13  14  17  17  18  21  24  24  24  25  26  27  28  29  31  32  31  34  39  39  37  31  31  31  35  35  37  54  80  62  74  95  94 118 107 125 138 141 146 149 152
 143 144 147 146 144 145 146 147 146 144 147 148 149 148 146 146 147 146 146 147 149 148 144 143 128  77  48  36  31  27  24  24  23  23  18  15  14  14  13  13  13  16  16  17  16  15  13  12  12  12  12  12  12  14  17  19  22  23  24  25  26  27  29  28  28  29  30  30  34  36  35  34  32  32  33  32  33  36  51  48  54  68  90  81  89  90 106 132 142 148 145 150
 146 144 145 144 144 145 145 145 146 147 147 148 148 147 148 148 147 147 147 147 147 146 142 133  87  50  36  37  33  26  28  23  23  22  17  16  16  21  16  14  15  15  16  16  14  12  12  12  12  12  12  12  13  14  16  16  19  22  22  23  24  26  29  27  29  30  31  34  34  34  34  33  33  32  30  32  33  33  35  40  55  67  70  83  94  84 113 117 137 143 144 150
 145 145 145 145 144 145 144 145 146 146 147 148 147 145 148 147 147 146 148 148 148 146 138  95  53  42  37  33  27  27  28  28  27  26  22  20  17  24  25  20  16  16  13  12  12  13  12  12  12  12  13  13  13  16  15  17  20  23  21  20  21  18  20  22  26  26  27  30  32  33  32  33  36  34  30  30  30  30  32  38  44  57  69  85  84  79 111 106 130 134 144 150
 144 145 144 145 147 146 147 146 145 146 146 147 147 146 148 148 148 148 148 148 148 141  99  56  48  43  35  27  19  16  16  19  26  29  27  21  20  22  27  26  17  16  14  12  13  12  12  12  13  13  14  14  14  15  15  16  19  21  24  23  23  22  19  18  19  24  25  25  26  28  28  30  32  31  30  30  30  30  32  34  39  47  60  54  68  77  99 107 119 139 148 150
 144 145 146 144 146 145 147 146 146 146 147 148 147 147 147 146 147 146 147 146 142 111  56  47  38  35  29  21  16  15  16  16  18  23  27  26  21  25  25  28  22  20  17  14  14  14  14  14  16  15  15  16  15  16  16  18  18  17  17  16  18  20  21  21  20  19  19  23  22  25  24  25  26  27  26  27  28  27  30  32  36  39  43  44  52  90  86  95 128 132 140 146
 144 145 145 146 146 144 145 146 146 147 146 147 148 148 148 147 148 147 148 146 139  68  47  39  33  30  22  17  15  15  15  15  14  18  18  22  25  22  28  28  29  24  22  18  16  17  16  15  16  16  17  18  18  18  18  18  22  22  20  18  16  16  18  16  16  19  19  20  20  20  20  24  24  24  25  27  28  29  30  30  33  32  33  39  64  67  74 108 124 119 136 146
 143 144 147 146 147 146 145 147 145 146 148 149 148 148 149 149 147 148 148 141  89  49  42  36  31  27  21  16  15  14  15  15  15  15  16  17  24  27  27  30  30  29  28  27  21  17  17  16  16  16  16  18  18  19  20  21  22  25  24  24  21  18  15  17  15  15  18  20  23  21  20  22  22  21  22  23  25  26  26  27  28  28  29  41  54  55  90 108  99 106 137 144
 144 145 146 147 146 148 147 148 148 147 147 147 148 147 148 148 149 148 146 108  51  45  38  30  27  23  20  17  15  15  15  15  16  17  20  20  22  26  29  29  32  30  29  28  25  20  19  18  18  19  17  18  18  19  19  20  22  25  25  24  22  19  17  18  17  15  15  17  20  20  21  21  23  24  23  23  24  25  25  24  25  25  27  33  45  73  91  81  79 108 138 143
 144 144 146 146 147 146 145 148 147 147 146 148 149 149 148 148 149 146 132  70  48  40  34  28  27  22  20  16  16  15  15  16  19  22  24  25  28  31  31  32  30  31  29  29  28  23  20  21  22  22  21  21  22  21  22  23  23  24  24  24  24  22  19  18  18  17  16  18  19  21  19  18  18  21  22  20  21  23  24  24  23  24  26  37  53  67  57  60  68 108 125 130
 145 145 146 146 147 146 147 147 148 148 146 146 149 149 148 149 148 144 119  60  43  35  30  26  25  22  19  17  16  17  18  22  29  32  34  35  37  39  38  35  33  31  30  29  28  26  23  23  24  25  25  25  27  28  28  25  26  25  24  25  23  21  23  19  17  17  17  15  18  22  22  18  15  16  18  17  17  20  23  23  23  24  25  36  42  42  48  52  63  86 108 135
 145 145 145 145 145 147 146 147 147 146 147 148 149 149 149 150 148 145  99  63  40  30  27  26  22  19  16  17  16  20  29  37  42  44  44  43  43  43  42  41  37  34  32  29  29  26  24  24  25  25  27  29  30  32  31  30  28  28  25  25  24  23  22  21  18  16  15  17  17  20  22  17  16  16  16  16  16  17  18  19  19  18  23  27  31  36  42  43  68  97 126 143
 145 145 147 147 146 147 146 148 148 146 148 149 148 148 149 149 149 144 109  56  39  30  28  24  18  17  15  15  22  33  46  52  53  55  54  53  51  48  48  46  43  40  35  33  30  28  24  24  23  25  30  32  34  35  35  34  33  33  30  29  26  24  24  23  18  16  16  16  17  21  24  20  15  15  15  15  15  14  15  16  15  16  19  23  27  32  42  69 103 126 139 148
 146 146 147 146 147 147 148 148 148 149 149 151 149 150 149 150 148 142 107  49  39  32  25  19  15  15  16  22  36  49  60  64  64  67  64  62  60  56  55  52  49  45  42  40  36  31  28  22  24  25  33  38  42  43  42  42  42  40  37  37  32  27  25  24  23  18  16  17  17  22  23  22  17  15  15  14  16  16  15  15  17  17  19  24  30  42  66  97 121 130 136 142
 147 146 146 148 147 148 148 148 149 149 149 149 149 150 150 149 149 133  96  50  36  30  20  15  16  16  20  36  51  64  72  72  74  76  72  70  67  65  62  59  57  52  49  46  42  38  34  27  25  24  32  40  48  49  51  51  49  47  45  44  43  37  29  25  24  23  20  18  17  20  23  21  19  16  15  15  14  16  15  15  16  18  23  28  36  58  90 103 111 128 136 144
 147 147 148 148 150 148 147 148 149 149 149 147 149 149 150 149 148 138  87  48  36  24  17  16  15  18  31  52  66  76  79  78  82  81  78  78  74  71  70  69  66  59  56  51  48  47  42  32  26  26  29  44  51  55  54  56  57  55  52  51  50  45  37  31  28  24  24  20  18  20  23  21  19  16  16  17  18  18  17  20  23  23  27  33  55  72 106 124 138 146 148 147
 147 147 148 149 150 148 149 150 149 149 149 149 150 150 150 150 150 143  93  50  35  20  17  16  16  22  47  66  76  80  81  85  87  86  84  82  80  77  77  75  71  65  60  57  53  50  48  42  32  27  32  42  53  59  59  64  64  62  61  61  57  53  49  41  33  28  25  22  20  22  22  19  17  18  18  19  18  18  19  23  29  32  32  38  52  80 108 127 140 145 148 150
 147 147 147 148 150 149 149 149 149 149 149 150 150 150 150 151 151 147 109  45  30  20  17  15  18  37  61  75  81  83  87  89  88  88  87  84  83  82  81  79  76  71  67  65  62  56  53  49  44  35  41  51  58  63  66  67  68  67  68  66  67  67  62  53  44  37  32  27  24  23  23  19  18  18  21  21  19  19  20  24  28  32  34  42  71 108 133 137 149 150 148 149
 148 148 149 148 149 149 149 149 149 149 151 151 151 152 152 151 151 148 110  41  29  20  16  16  30  56  72  82  88  85  88  91  91  90  88  86  87  87  85  82  80  77  74  74  69  64  59  55  54  49  49  60  66  68  70  69  70  71  70  73  74  75  74  69  59  49  42  38  33  29  27  22  18  18  19  24  23  18  21  22  27  27  29  36  60 118 126 140 151 152 152 152
 148 149 149 148 150 150 150 150 151 150 150 151 150 150 152 152 152 148 103  40  28  20  17  21  49  71  81  87  91  93  92  94  95  93  92  91  92  91  90  86  84  82  81  80  77  73  68  64  61  60  61  70  76  80  78  76  78  78  77  78  77  81  85  83  75  67  57  50  46  40  33  26  20  18  17  20  24  22  20  20  21  24  26  31  44  88 120 132 144 152 151 151
 148 149 148 149 150 151 151 151 151 151 151 151 151 150 151 151 153 148  95  40  27  22  19  37  65  79  88  90  92  95  99  96  97  96  95  96  95  94  92  90  87  87  86  88  87  83  79  75  70  69  74  79  83  86  86  86  88  87  87  86  85  87  92  93  91  85  78  70  62  54  45  35  25  21  18  18  19  21  22  20  20  24  25  32  46  86 122 140 148 150 152 152
 149 149 149 149 149 150 150 150 150 151 151 151 153 152 151 153 152 149  90  40  27  23  26  56  76  86  91  92  96  96  98  98  98  99 100  99 100  98  97  94  93  92  94  94  97  95  92  90  89  88  90  92  92  92  93  92  93  92  93  94  92  93  96  98  98  97  95  93  85  75  64  50  33  24  20  17  18  19  23  23  23  25  25  30  41  84 128 143 149 152 151 152
 150 149 150 150 150 151 151 150 151 151 152 152 152 151 151 151 151 145  70  40  28  23  41  70  86  91  95  97  97  98  99 100 102 102 102 102 103 100  99  96  96  98  98  98  99  98  99  99  94  96 100 101 100  98  97  95  96  96  97  98  98  99 100 101 103 106 107 107 104  99  88  70  46  30  23  19  19  22  23  24  24  26  26  31  38  74 125 148 152 152 152 152
 150 149 150 152 150 151 150 152 152 151 151 152 152 150 150 150 149 124  51  39  28  30  61  82  92  96  97 100 102 103 104 106 106 105 105 105 104 102 100  99 100 102 103 104 103 102 101 101 100 102 103 104 107 104 103 101 100 101 101 103 103 104 105 105 107 109 113 113 112 113 106  89  61  38  28  22  19  23  26  26  26  29  29  32  39  57 124 150 153 153 153 153
 149 149 151 150 151 152 151 153 152 151 152 152 152 151 151 152 147  89  45  37  30  42  77  89  95  98 101 102 104 105 106 108 106 107 107 107 104 104  98  98 103 103 104 104 104 105 103 104 104 104 106 107 107 107 106 105 105 103 104 106 107 106 106 106 110 112 115 117 118 118 115 106  84  53  33  25  18  20  28  30  31  33  36  34  38  51 108 145 154 154 154 154
 151 152 152 152 151 152 153 153 153 152 153 153 153 152 151 151 143  66  42  34  31  58  86  95  96  99 101 105 106 108 109 108 107 105 105 107 106 105 103 106 107 104 105 105 105 105 105 105 107 106 107 107 107 108 107 108 105 105 108 108 107 108 108 108 110 113 117 120 121 120 120 115 101  71  43  28  20  18  26  33  34  35  38  37  36  43  98 146 153 154 153 154
 150 151 152 152 152 152 153 153 153 153 153 153 153 153 152 148 128  53  38  31  38  77  93  97 100 100 103 105 106 108 108 105 106 108 105 107 108 105 105 109 109 107 107 105 106 106 106 106 107 106 103 105 104 106 107 105 107 108 108 109 108 109 110 112 113 116 118 121 121 121 122 119 111  86  53  31  22  19  24  34  36  34  37  38  36  44  86 142 152 154 154 154
 151 151 152 152 153 153 154 154 154 154 153 154 154 154 152 149 117  46  38  36  54  90  96  99 102 103 104 105 106 107 108 106 106 106 105 105 104 105 106 107 106 109 108 105 106 107 104 105 106 103 100 101 102 103 106 106 108 108 108 109 109 108 111 112 113 116 117 120 120 123 124 123 116  96  64  42  25  20  24  35  38  34  36  38  38  47  81 135 153 155 154 153
 151 151 152 153 153 154 154 154 155 154 154 154 154 154 153 150 102  47  39  41  71  95 100 102 102 104 102 103 102 101 103 103 103 103 103 103 104 105 104 105 106 105 107 106 106 104 100 101 100 100 100 101 102 102 102 106 106 108 109 111 109 109 110 112 112 114 118 120 122 125 126 123 119 103  74  49  31  24  26  34  37  35  33  32  37  44  64 124 150 154 154 154
 151 152 152 152 152 153 153 155 154 154 155 154 154 154 153 150  97  46  43  48  85  97  99 100  97  89  84  75  74  79  90  91  96  93  96  99 101 101 102 101 102 103 102 103  98  95  94  93  93  93  95  98  97  97 102 103 102 106 106 107 107 108 111 113 113 116 119 120 123 124 123 123 120 108  81  55  40  27  28  35  39  36  35  31  36  43  52 116 140 153 155 154
 152 153 153 152 152 153 153 154 154 154 154 155 154 154 153 147  89  46  43  56  90  91  82  74  66  47  42  40  37  38  42  59  67  79  83  87  91  95  96  96  98  99  98  93  89  88  85  84  86  86  86  86  86  88  88  92  95  98  99  98  98 100 105 110 113 117 119 121 122 122 121 121 120 110  87  58  46  31  27  33  37  37  37  34  37  41  53 106 141 150 154 154
 153 153 152 153 153 152 154 153 153 154 154 154 155 154 153 149  82  46  42  65  78  61  55  50  42  35  30  28  27  29  30  34  41  50  59  71  79  88  89  90  93  92  89  84  83  78  66  72  67  64  59  62  61  56  57  62  67  74  79  79  83  88  90  96 103 112 119 122 122 123 122 120 119 110  90  65  47  36  27  28  31  35  37  36  36  42  52 107 147 152 154 155
 154 154 153 153 153 153 154 154 154 154 153 154 154 155 154 148  82  45  43  63  54  49  45  32  31  30  28  24  25  25  25  27  31  35  41  49  64  82  82  86  89  86  84  79  71  57  49  54  48  44  43  44  39  37  37  36  37  41  44  50  56  58  63  72  79  96 114 125 125 123 122 118 119 112  96  73  54  39  30  26  26  31  34  37  35  44  53  95 147 154 154 155
 153 151 153 153 153 154 153 153 153 153 153 154 154 156 152 149  94  50  46  48  48  44  40  38  36  33  26  22  23  24  25  25  26  29  31  38  47  67  72  82  84  84  77  70  55  46  40  41  36  34  32  31  28  29  28  28  27  27  29  30  34  41  46  48  55  67  84 110 123 126 122 117 118 115  98  75  57  44  35  26  26  28  31  35  36  42  53  98 143 154 155 154
 152 152 153 153 154 154 154 153 152 153 154 155 153 154 129  84  49  43  49  44  39  36  36  35  37  39  41  44  38  25  24  25  26  28  29  33  43  53  67  78  82  82  66  62  46  39  32  32  30  29  27  31  32  40  43  46  50  49  49  48  50  52  50  45  45  53  60  74 104 121 120 118 118 116 103  82  57  46  38  29  25  26  28  34  38  39  53 103 142 153 154 154
 152 152 152 153 154 154 154 153 154 153 153 153 142  71  43  84 123 133  58  39  33  34  36  43  48  46  39  35  34  46  48  36  25  29  30  31  40  50  63  77  84  79  62  53  42  35  30  30  29  37  41  43  40  34  30  30  29  28  29  32  34  31  38  48  56  56  54  56  67  93 108 114 119 116 108  86  58  44  38  32  25  25  26  34  36  36  48  94 147 154 155 155
 153 153 152 152 153 153 153 155 154 153 154 130  50  54 135 152 151 139  45  40  39  45  55  63  62  52  47  43  42  42  41  52  66  57  48  51  46  50  64  79  83  79  66  52  44  38  40  48  42  35  32  36  41  44  45  36  29  30  31  36  37  36  36  36  36  36  39  46  48  58  82 106 118 117 114  97  63  43  34  34  27  25  27  31  33  34  45  89 147 154 155 155
 152 153 153 153 152 153 154 154 153 152 113  52  50 135 152 152 151 124  49  47  51  64  64  53  48  45  42  44  45  48  46  43  50  76  84  75  51  45  52  61  64  59  64  60  62  63  54  35  35  37  41  41  39  36  34  32  30  33  36  39  40  42  39  39  38  36  35  37  37  44  55  93 113 118 118 111  74  42  33  31  28  25  29  28  31  34  48  94 148 154 156 156
 152 153 153 153 152 154 153 149 125  93  59  42 111 150 152 153 152 119  56  56  56  51  44  38  33  30  31  34  37  39  41  46  44  59  51  43  41  38  44  48  44  36  40  40  53  55  36  43  39  40  39  39  37  35  37  37  38  39  40  45  45  48  46  45  44  42  43  43  43  39  44  69 107 117 121 120  89  49  30  27  30  26  28  27  28  33  54 111 147 154 154 155
 152 153 153 152 152 153 152 134  50  48  45  49 144 151 152 153 152 123  67  57  50  39  31  30  30  30  32  34  40  40  39  39  44  44  37  48  61  70  75  78  76  72  66  56  47  39  48  46  41  40  39  37  37  36  35  35  36  37  38  41  44  47  51  50  52  51  51  50  49  47  41  49  74 111 120 121 103  55  32  28  30  27  26  27  27  33  56 125 146 154 155 154
 151 152 153 153 152 152 151 146  93  62  45  66 146 150 154 153 152 140  80  57  41  33  29  30  29  31  38  39  39  40  42  40  40  41  48  45  58  69  76  83  84  74  62  55  43  47  49  44  39  38  36  34  31  28  27  28  32  34  35  33  32  36  42  45  50  52  57  58  57  55  46  47  96  84 101 137 118  66  36  27  31  26  26  26  29  36  65 130 151 153 154 153
 152 152 152 153 152 152 151 152 149 140  46  71 103 149 152 151 148 136  90  58  38  31  29  34  33  32  65  76  68  48  41  43  43  41  42  41  55  78  93 105 110 103  83  46  36  51  46  39  36  34  32  28  26  26  27  26  26  31  31  31  30  35  38  37  40  48  55  59  57  58  53  43  62  56  64 158 121  86  41  27  30  26  26  26  31  40  92 141 152 154 154 153
 151 151 152 152 151 152 153 152 152 148  50 121 106  74 138 149 146 130  84  61  37  30  32  30  34  59  84  98  88  72  55  44  42  42  38  40  56  89 106 109 111 105 100  37  42  49  45  38  34  32  29  29  27  27  25  25  25  33  48  40  32  30  32  36  38  38  47  58  61  65  62  40  38  58  38  58 113  93  46  30  29  26  25  26  31  43 120 147 151 153 153 152
 149 149 151 152 152 152 153 152 151 148  85 124 146 124  68 120 145 139  80  58  38  32  37  30  26  42  76  93  91  75  61  49  42  46  37  44  59 105 117 122 120 103  94  42  43  47  44  38  34  33  34  32  29  26  25  28  30  51  65  62  55  45  33  31  38  48  38  52  62  69  71  40  66 102 107  68 115  97  48  31  28  27  26  25  31  44 131 147 152 153 152 152
 150 150 151 152 151 152 151 152 150 149 108 122 149 147 135  66  96 134  84  61  45  39  45  38  31  48  75  89  92  74  56  46  55  48  34  49  82 119 126 133 134 109  81  46  44  42  45  40  38  39  37  29  27  27  24  27  38  35  53  68  69  61  48  38  28  34  36  44  59  73  75  40  90 110 120  95  98 103  49  32  28  27  27  26  33  66 139 149 153 153 153 153
 149 150 151 150 151 151 151 152 151 148 116 114 148 149 146 139  67  63  88  68  49  45  48  45  43  52  67  68  67  60  56  56  59  45  28  54 117 125 131 141 140 111  76  44  49  44  46  46  49  46  34  27  30  28  25  24  29  33  45  64  70  64  56  58  37  31  36  39  53  66  70  44  93 112 122 115  77 100  51  33  28  26  26  27  35  72 140 150 152 153 152 153
 149 149 150 150 150 152 150 152 151 150 130 100 147 148 149 146 144  86  87  76  63  57  52  50  47  52  55  58  60  57  57  62  65  39  30  71 123 128 134 146 136 107  76  46  46  45  57  49  52  47  39  35  34  32  32  29  30  36  54  62  64  58  57  59  51  48  40  42  52  63  60  62  86 104 118 124  96  88  48  33  29  25  25  26  37  86 141 150 151 152 151 151
 147 150 151 150 151 152 151 151 150 151 144  86 148 149 149 147 148 127  93  83  78  72  67  63  60  61  60  61  57  54  54  56  64  28  39  95 121 121 133 139 122 103  78  48  46  50  43  48  52  53  55  50  44  41  39  38  39  46  59  58  55  54  51  52  56  59  57  52  54  66  52  69  83  93 106 116 114  74  44  31  29  24  25  27  39 107 146 150 151 151 151 152
 148 147 149 149 151 152 151 151 151 151 148  87 139 149 149 149 145 119  99  89  85  78  73  69  66  66  64  60  55  53  59  62  48  35  59 105 119 123 131 124 114  93  75  53  44  64  50  60  54  53  53  51  50  47  49  48  47  50  48  52  53  53  53  61  71  80  83  72  70  73  51  82  90  94  94  93  99  82  43  28  27  24  25  29  45 123 145 150 151 151 151 151
 147 148 150 150 150 150 150 151 151 149 148 108 120 149 149 147 140 115 103  94  85  80  73  68  65  61  60  58  60  63  68  69  37  59  77 107 121 126 131 118 110  92  78  59  50  56  57  64  56  53  55  55  52  52  54  56  55  55  54  57  58  61  64  72  79  92  98  93  90  77  61  94 100 105 105  94  76  54  38  26  25  23  27  32  43 129 145 151 152 150 152 150
 146 146 148 150 148 149 149 150 150 151 150 138  88 145 146 144 131 111 105  98  89  84  78  73  72  70  71  71  73  76  79  48  52  63  92 110 119 126 123 114 107  91  80  66  64  48  66  69  66  60  60  63  62  56  55  57  59  57  59  60  59  63  69  75  82  95 102 104 101  68  85 105 113 118 120 117 105  53  38  30  23  21  26  34  59 138 146 150 150 150 150 148
 147 148 149 148 148 148 149 150 151 150 150 146 103 125 146 143 123 110 105  98  92  88  86  84  83  82  82  82  83  85  65  39  76  74  99 113 118 130 120 112 106  92  83  69  66  57  63  76  76  72  67  66  69  70  68  63  58  54  55  56  57  63  70  76  86  94 102 109 100  63 109 113 117 121 126 127 123  92  48  34  23  19  24  34  82 133 145 147 148 148 149 150
 147 147 147 148 148 148 148 150 150 150 150 147 140  96 136 140 120 110 103 101  98  92  89  89  87  87  88  85  88  71  36  72  79  86 104 115 123 129 119 111 106  93  85  72  69  70  48  83  87  80  75  72  73  74  76  74  71  66  62  62  62  67  73  77  87  93 102 110  68  96 115 117 119 122 127 128 125 101  59  30  33  21  29  56  96 117 133 144 148 147 148 150
 147 147 146 148 148 149 149 148 148 150 150 147 146 132  77 117 113 108 103 101  98  94  91  89  91  90  91  88  67  33  74  84  79  96 107 114 122 124 119 114 110  98  87  74  70  89  74  50  90  86  84  82  81  81  81  79  76  73  77  76  79  81  85  90  93  99 106  91  71 114 117 118 121 122 126 128 128 104  64  58  71  77  76  86  96 102 100 120 143 146 148 149
 147 146 147 147 148 148 150 149 149 149 150 147 148 146 137  72  78  98 102 101  99  96  92  96  94  93  79  50  45  82  85  82  89 105 108 114 116 115 114 113 112 101  91  77  70  92  95  75  52  88  89  87  90  90  87  86  83  83  83  85  85  87  92  96  98 101  92  60 101 113 116 119 120 120 124 125 126 108  71  80  93  90  84  84  81  59  49  67 128 144 147 148
 147 147 147 146 148 149 148 148 150 149 149 146 147 147 140 111  92  70  66  70  77  85  82  72  60  47  54  74  88  85  85  86 101 108 106 110 114 111 108 109 111 106  96  83  71  90  97  94  74  50  77  89  93  94  92  92  89  85  86  88  89  92  95  97 100  80  58  95 109 113 114 118 121 122 121 121 122 100  70  85  94  92  83  71  51  40  41  55 115 144 147 147
 147 147 146 147 147 148 147 149 147 148 148 147 146 146 134 107 103  99  98  94  87  83  80  81  91  95  94  90  86  84  84  95 108 107 106 106 110 111 106 106 111 105  97  86  73  87  94  93  89  83  60  66  82  92  94  94  92  86  86  86  90  92  95  84  61  67  95 104 109 112 114 118 120 121 120 121 120  94  65  74  90  87  73  66  48  39  41  53 117 143 145 147
 147 147 147 147 147 147 147 148 147 148 148 147 146 146 130 106 103 102 103 103 103 102 100  98  98  92  90  89  85  82  84 105 108 104 103 104 106 107 104 100 110 106  94  83  71  82  92  90  84  82  82  80  71  66  66  72  71  73  74  73  63  54  54  69  92 104 107 106 108 111 113 117 118 120 121 120 117  88  61  71  84  84  73  87  65  41  43  58 118 143 144 146
 147 146 147 146 147 147 147 148 147 147 147 147 147 146 125 104 104 103 103 103 104 100  97  95  94  89  88  85  81  78  93 105 106 106 104  98 101 102 102 104 109 107  95  81  67  78  89  89  81  77  77  81  83  86  88  82  77  75  77  80  82  89  89  94  99 101 104 105 107 112 113 114 116 117 120 119 115  84  59  75  88 101 108 121  88  46  45  65 126 143 144 146
 145 145 147 147 147 147 147 146 147 147 146 146 147 145 122 102 103 102 103 104 103  99  97  92  89  83  81  78  76  80  98 100 103 104 100  98 100  98  98 100 106 106 100  89  73  74  80  80  75  74  74  75  77  81  85  86  87  88  89  90  91  91  91  92  94  97  99 100 103 111 114 114 115 116 119 118 113  76  64  78  88 116 136 146 103  50  47  76 129 143 144 145
 144 145 147 147 147 147 147 147 147 147 147 147 147 145 119 102 102 101 101 102 103  97  95  89  86  81  78  75  74  86  95  92  91  99  97  95  95  92  92  94 102 102 101  97  89  81  74  73  67  69  71  74  76  78  82  83  85  85  86  88  90  92  94  94  94  95  94 100 102 106 111 114 114 116 117 117 110  76  78  83  52  77 130 146 113  52  53  88 132 142 142 142
 145 146 146 147 147 147 147 146 147 148 148 147 147 145 120 100  99  97  97  96  95  93  88  86  83  80  77  74  77  86  88  84  85  91  89  89  85  85  87  88  92  97  97  96  92  93  82  70  64  64  68  71  74  76  80  78  80  84  80  85  87  91  93  94  95  95  95  98 100 104 108 114 114 114 116 115 108  77  97  94  44  53  88 124 121  56  58 100 134 140 139 140
 145 144 147 147 146 147 147 147 147 147 147 147 146 144 119  97  96  94  94  94  93  93  89  87  83  78  76  73  77  78  79  80  81  81  81  78  77  76  76  76  79  83  85  87  89  95  87  75  67  64  66  70  72  75  77  77  78  80  82  82  85  88  89  92  94  94  96  96  99 100 105 110 113 113 114 114 106  85 112 126  63  54  68  95 117  65  67 108 135 139 138 139
 145 145 146 147 147 147 147 147 147 148 147 147 146 143 118  96  94  93  93  92  91  89  86  83  80  75  72  70  75  70  70  73  72  71  72  70  68  66  64  65  67  66  68  72  83  90  87  78  71  69  69  71  72  73  73  77  78  79  78  78  79  84  86  88  92  93  93  95  98 102 102 107 109 110 111 111  99  94 112 117  82  61  65  80 109  70  78 116 135 138 138 139
 145 145 145 146 146 147 148 146 147 147 147 147 146 145 118  94  90  89  90  89  88  85  81  77  74  70  68  68  70  61  58  63  62  60  62  61  59  56  54  54  52  52  53  59  69  75  78  74  69  71  73  72  72  73  74  73  76  77  76  78  80  80  83  87  88  92  93  94  95  98  99 103 106 108 109 103  91 100 107 106  78  63  65  75 105  71  92 124 134 138 138 139
 146 146 146 146 146 147 147 147 148 147 147 147 147 145 118  94  91  87  87  86  84  79  75  72  70  66  69  73  75  65  43  51  53  51  53  51  49  48  48  48  43  39  42  46  53  61  68  61  64  71  72  73  72  73  75  73  74  80  78  79  80  81  82  86  86  91  90  92  94  96  99 100 106 111 103  95  87 103 104  93  78  68  68  80 107  80 107 130 136 135 138 138
 144 144 146 146 146 147 146 148 147 148 147 146 147 144 116  94  90  85  82  81  81  75  70  68  68  69  76  83  80  74  58  48  48  44  44  42  41  41  42  37  30  25  27  36  43  52  56  55  66  70  74  73  72  72  74  72  77  79  79  82  82  84  82  84  85  88  90  91  92  94  97 100 106 108 100  92  80 104  98  84  81  69  74  87 105  93 122 133 136 138 138 139
 144 146 145 146 146 146 146 147 146 147 147 147 147 144 117  89  87  84  80  77  74  60  64  65  67  76  85  88  84  74  65  53  48  47  42  39  37  40  32  32  31  30  28  32  41  48  52  63  72  75  75  73  71  71  74  73  73  74  76  81  81  82  85  84  88  90  89  92  93  94  94  98 103 104  97  85  78  96  86  94  92  78  85 100 104 107 129 133 135 137 136 138
 144 145 145 146 146 145 146 146 146 147 146 147 146 144 114  91  87  83  79  74  69  61  64  68  74  84  88  88  80  69  62  55  52  52  48  41  36  33  32  32  34  34  35  40  49  57  66  74  78  81  79  74  72  72  72  72  72  74  76  80  80  81  84  82  79  80  86  90  91  92  93  98 102 100  95  79  78  93  92 111 127 116 103 102 102 118 133 136 137 137 137 137
 143 144 144 146 145 146 146 147 146 146 146 148 146 143 111  89  89  82  77  70  67  69  67  72  83  88  90  88  78  67  58  53  50  50  48  42  35  34  33  34  37  38  44  51  59  68  77  82  84  86  85  81  76  74  74  72  71  73  74  77  78  79  80  79  78  81  84  88  90  92  94  98 100  97  89  75  79  97 111 124 129 105  89  88 106 122 134 136 137 136 136 135
 143 144 144 145 144 146 146 146 146 146 147 147 146 143 117  90  88  80  77  72  71  71  70  77  83  88  88  80  68  63  56  49  46  46  42  39  36  33  32  35  40  40  47  54  65  74  82  87  90  88  87  86  82  79  78  74  74  73  72  74  76  78  79  79  78  82  84  88  89  91  94  97  99  97  86  72  73  89 104 119 131 114 104 108 112 127 133 134 134 133 134 134
 143 144 144 145 145 146 145 146 146 145 146 146 146 145 118  88  85  78  79  78  75  72  73  80  80  82  76  65  63  61  54  52  44  43  41  40  36  34  34  38  43  43  52  59  69  79  86  90  92  92  91  90  87  85  82  77  77  74  73  73  75  78  78  82  80  82  85  89  86  89  94  98  96  90  75  64  72  87 100 113 126 131 126 115 120 131 133 134 133 134 133 135
 142 144 144 144 144 145 145 145 146 145 145 146 145 144 120  88  84  78  78  77  75  72  78  75  71  71  67  60  58  58  51  48  44  42  43  40  37  40  41  44  47  46  51  56  64  76  85  90  92  93  92  89  87  86  86  83  79  77  74  73  77  78  79  81  84  85  86  87  85  87  88  93  90  84  69  59  72  87  99 108 116 127 126 120 128 131 132 133 133 134 133 134
 143 144 143 144 145 145 145 145 145 145 145 146 144 143 120  86  84  78  79  79  73  70  69  63  62  63  64  62  60  60  56  50  45  44  44  41  43  45  48  45  46  48  53  54  61  71  77  85  88  91  91  90  86  86  85  86  83  79  76  74  76  80  83  83  86  85  85  84  82  84  83  86  87  78  70  55  61  78  89  99 103 113 125 127 129 132 132 131 132 133 133 132
 143 143 143 143 143 144 144 145 145 145 145 144 144 140 130  88  82  80  80  80  71  66  59  53  53  57  64  65  66  66  63  56  50  47  45  42  47  50  49  46  47  57  59  59  64  65  70  77  82  86  91  91  89  88  83  85  85  83  77  76  77  81  83  84  84  84  84  85  80  85  85  79  78  74  68  57  53  62  71  81  87 103 125 129 130 131 130 132 132 132 132 133
 142 142 141 141 142 142 142 144 144 143 143 143 144 144 137  90  80  79  80  80  72  65  54  45  48  52  65  68  68  68  67  62  57  51  48  48  56  62  56  55  58  62  63  63  61  60  65  70  75  80  86  88  88  86  83  84  85  83  79  77  76  79  83  85  84  81  85  83  80  83  80  78  77  71  73 105  73  55  53  66  92 120 126 127 127 128 129 131 132 130 133 133
 140 141 141 141 140 142 141 141 142 143 143 142 143 143 134  93  77  77  77  81  76  62  50  43  43  48  59  58  58  58  60  60  60  58  56  60  65  67  63  65  60  57  63  63  59  62  67  69  67  73  78  81  85  83  83  81  82  85  79  80  80  82  84  83  82  76  84  83  78  79  78  79  78  71  82 116 119 111 106 114 122 125 127 126 125 126 128 127 129 131 132 132
 140 140 141 140 141 141 141 141 141 142 142 142 143 142 137 103  74  73  74  81  74  64  52  42  38  38  43  42  41  42  44  47  54  59  59  59  58  55  58  59  55  57  65  64  62  65  72  68  64  69  73  77  78  78  82  81  80  84  80  81  80  83  84  83  80  76  80  80  83  81  75  76  74  72  98 118 122 122 122 124 124 125 126 125 126 126 128 128 129 130 129 130
 139 139 139 139 139 139 140 140 139 140 140 140 141 140 137 112  75  73  72  80  76  67  56  47  42  41  47  46  41  42  36  35  40  44  42  41  39  39  41  43  47  51  56  61  63  67  68  64  62  65  66  71  72  74  76  77  78  81  80  81  80  80  79  82  82  75  77  80  87  81  74  70  72  69 112 121 122 121 120 121 122 123 124 124 124 125 124 127 127 127 128 129
 139 138 138 138 138 139 138 139 139 140 140 139 139 139 138 120  76  67  70  75  78  70  59  53  55  59  63  63  56  60  59  49  41  37  31  31  28  29  28  28  31  35  41  46  50  56  58  58  57  58  58  63  68  67  64  73  77  84  82  81  80  80  77  80  78  77  78  80  84  76  67  66  73  84 113 119 120 119 120 120 119 119 120 121 122 123 124 124 124 126 126 127
 138 136 137 138 138 140 137 139 138 138 138 139 138 137 137 126  80  64  65  69  77  75  67  64  69  74  68  66  63  56  60  60  59  54  47  48  46  45  43  39  37  35  33  31  32  37  42  44  46  46  48  51  59  61  60  70  78  84  84  83  81  78  76  76  75  77  81  77  83  73  64  63  61  98 115 118 119 118 119 119 120 119 120 120 119 121 123 123 123 123 125 126
 138 137 136 137 137 137 135 137 139 138 138 138 138 137 134 132  86  63  65  66  74  75  74  72  75  77  70  63  60  57  56  57  57  58  56  59  58  59  59  57  55  55  55  53  52  46  41  35  31  32  37  44  52  55  60  68  76  81  83  83  81  79  72  73  73  75  77  77  76  69  62  62  72 110 116 117 117 117 119 119 119 119 120 118 119 118 122 121 121 122 123 122
 136 134 136 136 136 135 136 137 138 136 136 137 138 138 135 133 115  60  64  66  70  72  74  75  77  77  73  64  59  58  53  52  54  57  57  54  53  52  52  50  51  52  54  55  60  64  65  64  62  54  48  46  51  52  59  68  75  80  81  81  80  75  73  74  74  71  78  77  71  66  64  60  90 112 115 116 117 116 116 116 118 118 118 118 118 118 121 119 119 120 120 119
 132 133 135 134 137 135 136 136 136 136 136 137 136 135 133 132 129  65  60  62  66  69  71  73  74  78  76  67  58  52  50  48  46  50  50  47  46  48  49  46  48  51  53  55  59  62  63  65  67  67  68  63  58  59  61  69  75  78  78  77  75  73  69  71  72  67  73  71  62  61  64  62 105 112 114 114 116 115 117 117 117 117 118 117 117 117 119 119 119 119 120 120
 132 131 133 134 133 134 135 133 135 136 136 136 133 133 133 132 129  91  53  58  64  68  71  71  71  71  73  70  62  52  45  39  37  39  39  39  39  41  42  42  42  46  47  48  50  53  56  60  64  65  71  70  66  64  66  69  73  74  73  70  72  73  68  68  72  62  67  67  58  58  54  75 108 111 112 113 116 114 115 116 117 117 118 117 118 118 119 117 118 120 120 121
 132 129 132 132 132 132 133 136 133 135 133 133 133 132 130 131 129 117  53  58  63  67  71  73  74  69  70  68  64  56  46  38  35  34  33  33  32  34  36  38  40  42  43  46  46  50  54  60  66  67  71  71  70  68  68  68  69  71  67  62  66  66  62  64  68  57  63  59  55  55  55  99 108 109 108 111 111 111 113 114 114 114 114 115 116 115 116 117 117 117 118 118
 130 131 131 132 133 132 133 132 131 133 132 131 131 131 131 130 127 125  75  52  59  66  71  73  74  71  68  66  63  56  48  42  38  37  33  30  27  29  32  35  37  41  41  42  45  49  51  55  61  66  68  68  68  69  67  65  66  65  62  60  60  66  60  61  61  53  55  55  54  51  81 102 108 110 110 111 110 111 112 112 115 114 114 114 115 115 116 115 115 117 116 116
 131 130 130 132 131 131 132 130 132 130 131 130 130 128 128 127 126 125 104  41  48  62  68  69  72  72  68  65  62  56  50  47  42  39  34  28  24  26  30  35  37  39  41  42  46  52  50  53  56  61  62  63  63  65  66  65  66  61  58  59  57  59  59  56  53  49  48  48  49  54 101 105 109 108 110 111 112 112 112 114 115 115 114 115 114 114 114 115 116 116 116 116
 129 129 129 131 130 130 130 129 130 131 129 129 127 127 126 125 125 123 119  73  45  52  59  61  71  74  70  66  62  58  52  51  46  43  42  37  34  36  39  39  38  40  40  43  46  48  48  49  51  52  54  56  60  62  65  66  64  62  58  54  54  57  54  52  47  41  40  40  43  82 104 106 108 109 108 110 110 110 111 111 111 114 114 113 115 114 116 114 115 115 114 115
 128 128 129 127 129 129 128 129 128 129 127 127 126 124 126 124 123 121 118 101  38  41  49  60  70  73  73  70  65  55  57  60  54  53  54  52  52  51  50  51  49  46  42  43  44  44  45  44  46  50  51  53  56  59  61  64  64  61  60  54  52  53  44  43  35  36  34  32  67 100 105 106 107 107 108 107 107 108 109 109 110 111 110 110 110 111 112 112 111 113 113 113
 128 127 127 127 126 128 126 127 126 125 125 125 125 124 122 121 120 118 117 103  61  35  47  59  67  71  74  72  66  60  62  66  62  60  60  58  57  58  56  57  55  54  49  43  42  42  44  44  45  48  51  55  58  61  62  66  66  60  58  53  46  42  33  32  32  34  30  50  92  98 101 102 102 104 105 105 106 106 105 106 107 107 109 110 110 109 110 111 110 111 113 113
 125 126 125 126 127 126 125 124 125 124 124 123 122 122 121 120 119 118 117 111  78  32  38  52  62  65  72  71  69  66  67  69  66  65  64  61  60  59  59  60  58  60  61  54  46  44  45  49  50  53  55  58  62  65  67  68  64  58  53  47  37  35  28  29  31  28  33  80  76  76  83  88  94  98  99 102 105 104 105 105 109 109 110 110 110 108 109 110 110 111 113 112
 124 125 124 123 124 122 122 122 124 120 122 121 121 119 118 118 117 114 106  72  45  49  35  45  56  57  67  70  70  69  69  67  65  65  64  60  60  60  62  60  62  63  67  64  56  51  50  53  55  57  59  64  66  65  64  66  64  56  49  41  34  32  28  29  29  32  75  82  61  57  56  54  59  64  70  79  87  90  96  99 102 104 106 106 108 108 109 110 109 110 111 111
 122 124 123 121 122 121 119 120 118 118 119 118 118 116 113 107  84  51  28  22  23  60  34  37  54  56  63  64  68  69  69  64  63  63  62  61  59  59  59  62  64  66  68  69  65  57  57  58  62  64  66  67  68  67  63  60  58  52  41  38  31  28  27  28  34  63  87  77  57  51  52  54  49  48  49  54  59  65  69  76  79  83  88  91  96  99 100 102 104 107 109 110
 121 120 121 123 119 121 119 118 116 117 116 114 103  89  76  49  28  19  12  12  21  68  46  34  47  50  56  61  66  66  64  62  59  60  59  59  56  55  54  56  61  63  64  69  69  65  64  64  66  66  68  68  70  66  64  63  55  47  41  34  27  28  27  28  59  82  89  52  47  55  53  54  57  56  48  48  50  52  54  56  61  64  70  70  75  79  80  79  83  86  89  91
 118 118 119 119 118 118 117 114 109  97  83  71  63  50  29  15  12  11  10  10  29  68  63  39  45  48  49  55  61  63  60  59  57  57  55  54  52  50  53  51  52  57  62  68  70  70  65  64  66  62  60  65  68  65  59  55  50  42  36  28  25  27  33  54  78  87  90  28  20  42  51  51  55  60  56  51  52  50  49  51  54  56  59  60  61  63  64  67  69  72  73  72
 115 115 114 110 106 102  95  83  71  62  57  56  39  18   9   9   9   8   8  10  39  67  64  37  39  46  45  46  52  56  57  53  52  52  52  49  47  46  50  46  49  50  56  63  64  67  65  61  63  60  57  57  62  62  55  46  42  35  28  24  24  28  62  75  82  86  87  24  12  18  44  52  54  56  56  54  53  53  52  51  51  54  55  57  57  58  58  61  65  64  63  64
  88  82  78  75  72  69  65  64  60  52  50  41  16  10   8   8   8   9  16  41  66  69  63  46  35  41  40  40  48  53  54  52  51  48  47  46  42  42  46  47  49  47  48  53  56  57  58  58  56  51  51  50  52  51  47  37  34  30  24  25  28  52  71  81  86  88  82  21  11  12  27  53  53  55  56  53  55  53  55  52  54  54  52  53  57  56  59  60  58  59  59  59
  69  66  63  60  58  61  56  56  52  46  45  23  10   8   8   9  17  35  57  69  70  69  67  56  32  36  32  37  44  47  51  51  48  47  44  47  41  41  42  42  43  44  44  47  50  49  47  50  50  46  44  41  42  42  37  29  25  23  23  28  57  75  79  84  87  90  79  19  12  11  13  45  54  54  55  54  54  53  51  54  55  54  55  53  52  53  54  54  56  57  57  58
  62  60  58  58  58  54  51  50  46  45  42  14   9  10  14  28  46  64  73  71  70  68  68  59  34  29  30  31  36  41  44  46  46  43  43  44  42  40  37  38  38  38  37  41  44  41  35  40  43  39  38  35  37  34  30  23  19  20  30  53  76  78  81  85  89  92  79  23  13  11  11  29  52  53  55  57  54  53  52  53  54  52  51  50  51  52  52  56  55  52  54  54
  53  53  57  58  57  50  50  44  42  42  36  10  13  22  35  50  67  75  75  72  69  69  67  62  40  25  27  27  31  37  39  38  37  38  39  40  39  36  32  31  31  30  32  35  34  32  30  36  39  35  34  32  32  30  26  21  20  26  60  74  78  79  83  88  90  92  88  34  15  12  10  20  51  51  54  56  56  53  53  54  54  52  51  48  49  52  52  53  54  52  52  53
  51  54  57  57  54  47  46  42  43  44  29  16  23  40  56  68  77  79  76  73  68  69  69  66  58  28  24  26  29  34  30  28  30  32  32  35  36  32  29  27  29  26  26  32  30  30  29  30  35  31  31  27  24  25  22  20  27  57  77  79  80  82  85  89  92  92  90  57  21  12  11  18  46  48  52  54  57  56  53  51  52  52  51  49  50  51  50  51  54  53  53  54
  56  56  52  51  48  48  43  40  42  42  28  20  37  57  66  74  81  78  74  71  70  69  69  66  64  50  25  24  26  26  25  26  29  32  32  33  33  30  27  25  25  24  22  26  29  29  29  28  27  26  26  22  19  20  18  25  52  75  80  81  80  82  84  88  91  92  90  70  28  15  10  21  44  48  48  53  54  54  54  50  49  49  49  47  50  48  48  48  54  53  53  53
  54  51  48  49  46  45  41  41  43  44  29  31  53  64  70  79  81  78  73  70  71  70  68  65  65  61  48  24  22  24  25  26  24  26  28  28  29  27  27  25  23  21  23  25  24  25  26  24  22  22  20  18  17  18  24  44  72  79  81  82  81  83  85  89  90  92  91  79  34  16  11  26  47  48  47  53  54  53  53  49  48  50  48  47  47  47  47  47  52  52  54  53
  50  48  49  48  45  43  39  39  42  42  34  42  59  66  73  81  80  78  73  71  71  69  66  66  66  63  60  50  32  23  22  22  19  22  23  22  23  21  22  23  20  20  22  22  20  23  24  22  19  18  17  15  15  24  38  64  76  81  83  82  83  85  88  91  92  92  91  81  36  20  13  31  45  45  49  54  55  53  53  48  51  50  48  48  47  48  47  51  52  51  52  53
  48  47  50  48  45  44  37  39  42  43  38  46  60  66  73  81  80  76  73  70  70  68  67  65  63  63  62  57  52  42  26  20  18  17  17  15  15  16  17  16  16  16  19  20  20  19  20  16  15  13  15  18  27  40  54  71  78  79  79  80  83  87  91  91  91  91  93  81  36  21  15  35  44  44  48  53  54  52  49  47  46  47  47  47  48  50  48  52  52  54  51  53
