P2
# Generated by OpenCV 3.4.0
92 112
255
 140 140 142 140 141 142 142 142 141 142 141 142 143 143 144 145 145 145 146 146 147 145 147 149 148 149 148 148 148 150 148 149 148 148 143 144 147 147 145 139 134 128 107  81  64  49  38  36  38  55  54  61  43  36  33  61  77  53  48  44  36  39  39  37  42  46  81  94  89 107 103  99 109 114 115 131 136 131 122 121 140 149 147 150 149 148 148 149 149 147 149 150
 140 140 142 142 143 142 143 143 142 141 143 144 143 145 144 144 146 146 145 146 148 147 148 148 149 148 146 148 148 146 149 149 147 147 142 142 147 144 136 122 103 100  59  55  47  36  32  31  33  36  41  44  33  31  30  56  64  39  40  39  37  34  33  33  35  40  61  71  85  97  88  87  96 120 109 109 115 121 110 102 130 142 147 149 149 148 149 149 150 147 148 149
 142 142 141 142 142 142 142 142 142 143 143 144 144 145 144 145 147 146 147 148 148 148 149 148 149 149 147 149 147 148 148 146 146 140 131 125 134 125  92  58  52  49  42  35  31  28  29  30  30  33  30  28  26  25  26  33  42  32  31  32  32  30  27  28  30  33  46  54  63  62  69  80  87 109  80  83 103 117 101  84 118 130 144 147 147 147 150 150 150 149 148 149
 142 142 142 142 142 143 141 144 144 144 144 143 143 145 145 145 145 146 146 147 147 148 149 150 149 149 149 148 147 149 147 144 138 124 106  90  74  62  47  37  35  36  31  28  27  28  28  28  29  29  27  24  23  22  23  25  29  30  29  28  26  24  24  25  27  27  32  47  42  51  71  70  65  68  68  76 106 118  92  81  96 118 135 141 145 145 148 150 150 149 150 148
 141 141 143 142 140 141 143 144 144 146 145 145 146 146 145 146 145 145 146 148 147 147 147 148 148 149 149 149 148 148 146 139 126  99  83  61  50  46  38  33  30  29  27  27  25  25  25  26  28  26  24  24  22  24  24  26  27  28  25  23  23  20  19  22  24  25  28  31  37  49  55  52  53  68  85  88 112 106  82  75  82 113 120 132 141 139 147 149 149 148 149 150
 142 141 142 141 141 143 143 144 144 145 146 145 145 146 146 146 145 145 146 147 148 149 148 148 147 148 148 147 147 147 144 136 122  99  65  47  43  42  33  29  27  29  28  26  28  27  25  25  27  27  24  22  21  21  23  26  25  23  20  17  16  16  17  22  24  26  28  30  32  36  38  42  53  70  68  79 103  87  60  71  76 126 106 121 128 135 145 147 149 148 148 150
 143 142 140 142 143 142 143 144 144 145 145 146 147 146 146 146 146 146 146 147 147 148 148 148 147 146 146 148 148 146 144 136 123  92  57  44  35  31  29  29  31  30  27  26  25  27  29  25  29  31  30  28  26  23  22  19  18  18  14  15  15  16  16  18  22  26  29  29  31  33  33  38  46  52  57  72  74  52  55  65  86 117  97 111 123 135 142 147 147 150 148 150
 143 142 142 141 143 144 143 144 145 145 145 146 148 146 147 146 147 146 146 147 148 148 149 147 148 146 148 146 147 147 144 135 110  60  44  38  34  36  34  30  30  22  17  15  14  14  18  22  25  30  30  31  28  23  19  16  14  15  13  14  14  16  16  19  23  27  31  32  34  33  32  36  44  45  49  56  52  49  51  63  87  89  87  96 112 127 136 146 147 148 150 149
 142 143 142 142 142 143 144 146 144 145 145 146 146 147 147 147 147 146 148 149 149 150 148 148 148 146 145 146 148 143 142 123  64  47  39  37  36  35  29  26  23  16  15  14  14  14  16  17  19  21  27  29  32  24  17  19  14  16  17  16  17  18  18  19  23  26  30  32  34  32  31  32  34  35  38  43  43  44  46  56  75  73  76  91 105 115 131 144 149 149 150 148
 142 142 142 143 143 144 144 144 146 146 147 146 147 146 147 147 146 147 148 148 149 149 148 149 148 149 148 147 146 141 128  71  43  42  34  34  32  27  22  20  15  14  14  12  13  13  16  16  21  20  25  28  30  33  27  22  18  19  21  21  23  23  23  25  24  25  28  26  26  29  28  27  29  30  32  33  37  40  45  53  61  67  78  91  90  89 112 137 146 147 149 149
 143 142 144 144 144 145 144 144 145 147 147 146 148 148 149 146 148 147 146 148 149 150 148 147 147 149 149 149 145 136  83  42  41  38  33  32  28  17  16  16  14  14  14  12  14  13  13  13  14  17  24  25  27  30  36  31  25  22  23  24  24  23  25  27  26  27  28  27  23  24  25  25  26  25  29  29  31  33  36  41  49  54  65  79  77  80  94 131 142 146 149 149
 143 143 144 143 144 144 146 145 145 146 147 147 149 148 149 148 149 148 147 148 149 149 150 149 149 148 149 149 144  98  41  42  38  34  31  27  23  18  15  15  15  15  16  15  15  14  14  14  15  15  16  21  22  28  29  34  34  26  24  25  23  23  23  24  26  29  28  29  26  27  25  22  24  25  26  25  29  29  31  39  46  54  64  68  70  69  96 126 135 147 148 149
 144 143 143 143 144 144 145 145 145 146 148 149 149 148 148 149 149 149 148 149 149 149 149 149 149 149 149 142 118  49  42  39  32  30  28  23  20  18  15  15  15  16  16  17  18  18  20  20  21  23  21  22  22  23  27  29  32  29  25  26  25  24  22  19  22  25  27  29  28  28  26  26  22  23  26  27  28  28  30  33  37  50  64  74  59  73  95 114 135 146 150 150
 143 143 146 146 144 144 145 145 145 149 148 149 149 148 149 149 150 149 150 151 150 151 150 150 149 149 147 136  71  39  39  32  30  28  26  22  21  17  15  16  17  20  23  26  30  31  33  34  32  32  31  28  26  27  29  28  29  30  29  28  26  25  23  19  17  20  25  27  28  28  27  29  26  23  23  27  28  28  30  31  36  44  56  51  59  75  87 119 129 144 150 150
 144 145 144 146 145 147 145 146 147 148 148 149 149 149 150 149 150 150 150 149 150 150 151 150 150 147 144 109  45  38  36  29  29  27  27  23  18  16  17  21  28  34  40  44  47  48  48  49  46  43  41  40  36  35  34  33  32  31  30  28  29  31  29  25  20  18  20  24  25  28  27  27  25  21  22  25  28  26  27  29  32  34  40  45  54  60  92 117 113 137 148 150
 145 146 147 146 147 148 148 148 148 147 148 149 149 148 149 149 150 151 149 150 151 151 151 151 150 149 142  83  42  32  31  28  26  25  22  18  17  20  28  41  46  52  57  59  60  62  61  60  58  55  53  50  47  45  42  41  40  37  34  31  29  37  38  34  29  24  20  22  23  24  26  28  26  24  22  24  28  26  25  26  27  30  30  36  48  78 100  87  96 131 143 147
 146 146 146 146 148 148 149 148 149 150 150 149 150 150 150 150 150 151 149 149 151 152 152 152 152 150 132  54  33  29  29  25  20  18  17  18  23  33  49  58  62  68  68  70  70  71  70  70  69  68  67  63  60  57  52  48  47  44  42  34  27  36  45  46  42  36  27  24  22  19  20  27  28  28  25  25  28  30  26  25  26  27  30  36  52  69  63  74  86 118 135 146
 147 146 147 147 148 150 150 148 150 150 149 150 151 150 150 150 151 151 151 150 152 153 152 152 151 145 100  39  32  32  30  22  16  17  17  26  41  55  65  71  75  78  80  81  80  81  80  78  77  76  75  73  70  64  59  55  53  51  50  42  30  35  49  60  58  52  45  35  25  20  20  22  28  29  28  26  27  31  27  25  27  29  28  31  38  43  48  55  76 114 140 149
 147 149 149 148 148 149 149 150 150 150 149 151 151 151 150 150 151 152 151 151 152 153 153 151 150 136  64  33  30  36  27  18  17  18  22  40  58  70  79  80  82  87  89  90  89  90  88  86  85  83  83  80  75  71  70  66  61  59  56  51  36  41  54  66  69  69  62  54  41  28  21  19  22  24  25  27  28  31  28  25  26  26  26  27  30  37  52  73 108 131 146 152
 149 149 149 149 149 149 149 149 151 151 151 152 152 152 152 153 153 152 153 153 153 153 153 152 142  86  39  31  33  38  21  17  17  20  36  58  73  83  85  86  89  91  93  95  96  96  95  94  93  92  90  88  85  80  78  75  71  68  62  59  49  52  61  70  77  79  74  71  66  46  28  22  21  18  21  20  26  29  31  28  27  27  28  31  42  61  83 117 131 138 144 150
 149 151 149 147 149 149 150 151 151 151 152 153 152 152 153 153 152 152 153 153 153 154 152 147 101  49  35  30  34  31  20  16  19  30  53  72  86  89  90  93  96  97  97  99  99 100  99  98  97  96  97  95  93  88  86  82  83  78  73  70  64  63  72  82  85  86  83  80  84  77  49  28  22  18  19  18  19  26  28  28  30  32  38  56  77  99 108 117 126 142 147 151
 150 151 151 150 150 150 150 151 153 152 152 152 153 153 153 153 152 152 153 153 154 153 152 140  87  44  30  29  33  27  17  17  27  48  69  87  95  93  95  97  99 100 102 102 102 102 102 103 102 102 103 102 100  96  95  93  92  90  89  84  81  83  88  94  96  98  97  95  93  95  81  50  28  20  17  19  19  25  31  32  34  45  60  76  95 111 120 125 136 149 152 151
 150 151 150 151 151 151 150 151 152 152 152 153 153 153 153 154 153 154 153 154 153 154 152 143  80  37  31  29  30  25  18  21  41  65  83  94  96  96  99 103 104 107 108 109 109 106 105 105 105 104 104 102 103 101 101 102 102 101  98  96  98  98 101 104 107 109 110 108 106 105 101  85  46  26  19  17  20  27  25  31  36  41  55  92 102 120 137 142 147 150 150 152
 150 149 150 150 151 152 153 152 152 152 152 153 153 153 153 154 155 154 154 153 152 152 152 141  63  35  31  28  29  23  20  34  62  79  90  99 103 103 103 105 104 108 110 111 110 109 110 107 108 109 108 108 110 109 110 110 108 108 108 108 108 108 109 113 117 120 123 123 119 116 114 109  89  43  25  18  18  24  27  28  32  36  46  71 111 137 144 147 152 153 152 152
 149 150 151 151 152 152 153 151 152 152 153 154 154 154 154 154 155 155 154 154 153 152 152 135  50  38  28  27  29  23  27  50  78  92 101 105 105 104 102 104 105 104 105 108 110 113 113 113 112 112 112 114 115 115 113 113 113 110 109 110 110 111 113 116 122 126 130 130 129 125 123 119 113  85  31  21  18  18  23  26  28  34  49  73 104 128 137 144 151 152 152 153
 150 150 152 151 152 153 153 153 152 153 152 154 153 155 155 155 156 156 154 154 154 153 150 106  46  35  26  26  26  25  40  69  90 100 106 109 107 104  99  98  89  78  83  89  96 106 111 109 111 111 112 114 114 119 117 115 113 113 109 109 112 114 116 119 124 129 133 134 134 131 129 127 120 113  61  29  22  21  21  25  27  33  46  73  96 108 125 144 152 153 153 154
 150 150 151 151 152 152 153 153 153 152 154 154 154 153 155 157 155 155 154 153 154 151 138  61  44  30  24  27  26  29  56  83  99 106 107 103  98  82  59  49  47  39  42  46  58  71  92 101 106 111 112 115 118 118 117 115 114 112 108 109 110 112 114 119 122 126 127 130 131 131 129 130 128 123 104  41  26  26  22  26  28  34  50  97 112 125 140 146 150 152 154 154
 150 151 151 150 150 153 153 154 153 153 154 154 154 154 156 155 156 156 155 154 153 147  92  49  39  26  24  27  26  42  74  94 103 100  86  70  62  48  42  33  31  30  31  32  38  47  54  78  94 104 110 114 116 120 120 116 112 108 107 104 105 105 101 104 105 108 113 121 121 122 126 128 130 128 119  73  35  32  24  26  32  34  54  90 126 139 147 153 153 154 154 153
 151 152 152 153 150 153 154 154 154 154 154 155 154 154 155 157 154 154 155 154 149 120  56  43  33  26  26  26  32  62  86  96  95  72  53  49  37  32  32  30  28  30  30  30  31  34  42  52  66  88 104 109 110 114 114 110 104 104  96  86  85  75  70  68  67  64  68  76  99 110 112 122 127 129 126 106  59  39  27  26  35  43  67  93 121 140 149 154 154 153 154 155
 152 152 152 152 151 153 153 154 155 154 153 153 153 154 154 155 155 156 156 153 146  73  45  37  30  27  27  30  46  82  93  92  59  44  40  32  30  29  28  29  27  27  28  30  29  32  35  42  50  65  86  96 102 107 104 100  95  84  72  61  60  53  49  47  42  41  42  42  52  66  79  96 115 126 128 119  85  51  29  26  35  48  91 121 133 146 152 154 155 154 154 154
 152 153 153 153 154 153 153 154 154 153 153 154 154 155 154 155 157 155 156 152 105  52  42  35  29  29  29  37  69  89  93  63  45  40  41  43  48  52  52  45  40  32  29  30  30  32  34  38  44  55  68  82  92  98  95  88  82  65  56  49  47  41  39  36  35  32  32  33  34  36  44  58  79 107 124 122 103  61  36  26  33  48  84 135 148 152 154 155 154 153 153 154
 152 153 153 154 153 153 154 153 153 154 154 154 153 155 154 155 154 156 153 146  79  47  38  32  30  30  31  53  81  78  59  48  45  44  42  44  46  48  47  46  47  54  53  55  49  33  38  39  45  51  62  72  87  94  91  76  68  56  48  43  39  35  36  34  38  45  48  46  43  41  40  46  53  67 105 122 113  77  45  26  33  46  70 136 151 153 155 154 154 153 153 154
 151 154 153 154 153 153 154 153 153 154 153 154 155 154 155 155 155 154 152 138  58  43  34  30  30  30  37  57  55  47  53  45  40  38  48  62  67  71  71  66  61  54  49  43  49  63  66  52  51  52  63  70  85  94  88  74  65  54  47  41  37  44  54  54  42  34  32  32  33  36  36  38  39  41  46  74  99  82  48  32  36  44  58 130 150 154 156 154 154 154 154 155
 152 152 153 154 154 153 154 154 154 153 154 154 155 154 155 154 154 154 151 118  48  41  32  30  30  30  44  45  50  79  54  40  42  56  72  76  71  78  89  89  90  86  82  85  89  78  55  86  92  82  85  80  93  98  85  72  72  76  75  79  68  47  48  38  34  33  34  35  41  49  48  50  48  46  45  47  41  52  47  37  38  40  59 116 142 152 154 155 154 154 155 154
 153 153 154 153 153 153 154 154 154 154 154 153 154 154 154 155 156 154 152  99  47  38  31  30  33  52  58  48  73  71  45  48  65  74  72  62  58  64  74  76  79  84  82  81  79  74  64  49 100  59  54  57  47  47  42  41  49  84 116  75  43  61  60  48  41  40  43  47  52  58  64  63  55  47  44  54  84  57  41  40  40  41  50 115 140 150 153 153 155 153 154 154
 153 152 154 154 154 153 153 154 156 154 154 155 154 155 154 155 154 155 151  92  45  37  67 109 106  78  55  47  83  59  54  71  79  66  58  45  42  38  37  42  51  55  63  66  71  71  63  62  58  62  72  86 101 105 102  87  76  65  68  56  76  73  76  68  55  46  46  51  53  59  64  68  70  63  53  49  65  65  52  42  49  44  48  98 139 148 152 153 153 153 153 155
 153 154 154 154 153 154 154 154 155 153 154 154 155 153 153 155 155 154 144  66  46  36  43  26  47  69  50  52  84  55  72  82  69  50  44  37  41  39  44  52  50  49  49  53  57  60  57  62  58  59  68  87 103 113 111 102  90  76  62  64  61  56  56  58  52  39  39  42  43  46  47  57  73  77  72  57  56  65  50  47  45  59  55 102 143 150 153 153 153 153 154 153
 152 154 154 153 153 153 154 153 154 154 154 154 154 154 154 155 153 152 138  66  42  33  33  32  28  60  45  62  81  78  86  84  63  48  48  49  47  37  34  34  36  38  44  44  45  52  56  58  57  56  67 101 114 116 113 106  91  70  58  67  54  47  42  39  33  28  29  30  32  32  31  42  59  73  85  79  54  61  48  45  47  61  84 182 149 152 152 153 153 153 154 154
 152 152 152 152 154 154 154 154 154 154 154 154 154 154 154 153 152 152 134  69  41  32  32  32  27  51  42  80  99 104  97  89  71  67  65 101  56  44  39  37  45  51  44  49  48  49  54  57  61  56  69  93 113 126 124 108  93  66  61  62  50  44  37  30  31  32  30  34  34  34  34  36  44  59  79  88  70  61  44  42  46  50  51  46 136 150 153 153 153 154 153 153
 152 152 152 152 152 153 154 154 154 154 154 153 154 154 154 153 153 150 131  68  41  30  31  27  26  41  47  87  84  85  76  57  52  56  58  63  59  48  48  43  50  77  60  51  54  56  55  61  64  57  62  95 123 130 129 124  94  66  63  60  47  38  36  38  34  30  28  29  30  36  38  43  37  45  64  83  83  66  40  38  43  50  42  44 143 151 152 152 153 154 154 154
 153 151 152 153 153 154 153 152 152 153 154 154 154 154 154 153 153 150 137  67  40  32  33  29  28  49  47  85  82  80  72  54  44  42  68  61  47  39  39  52  67  85  75  57  49  62  66  65  64  49  65 108 129 133 131 128 114  63  53  57  47  43  45  40  36  31  29  33  33  45  51  42  46  40  48  79  89  68  40  38  47  49  43  96 148 153 153 152 152 153 153 153
 152 150 151 152 153 153 153 152 152 153 154 153 154 153 152 152 152 152 135  74  41  31  34  28  32  62  63  91  83  80  67  54  49  51  83  80  59  55  59  67  89  86  71  57  46  55  67  58  61  47  75 112 129 138 134 135 128  75  46  60  56  49  42  49  45  44  44  36  37  79  85  58  43  44  49  75  94  77  40  39  50  45  45 116 148 151 152 152 153 152 153 153
 151 151 151 152 153 153 153 153 152 153 152 153 153 153 153 152 153 152 139  82  40  33  33  28  32  82  66  95  85  82  72  59  51  56  74  73  69  68  74  74  76  72  62  57  58  60  67  60  47  51  86 109 123 137 140 134 125  88  48  66  54  40  43  61  59  49  44  38  45  66 120  89  51  48  50  78  96  83  42  40  50  45  43 124 149 150 152 152 153 152 152 154
 151 151 152 152 153 152 153 152 153 152 153 154 155 154 152 153 153 152 141  86  41  30  32  29  39  94  59  94  87  85  73  65  68  75  78  78  76  75  80  76  72  66  62  61  65  71  76  72  48  66  93 108 118 134 137 132 121  94  50  59  59  46  49  56  62  59  53  51  56  76 100  91  66  58  58  76  96  94  49  42  47  41  45 130 149 150 151 152 152 151 152 152
 152 150 151 152 152 153 152 153 153 153 152 152 154 154 153 152 153 150 145 105  36  30  32  32  50  94  65  84  88  84  76  78  82  82  80  78  76  76  81  78  72  64  61  59  65  71  80  56  70  83  98 108 117 128 135 129 118 102  66  49  77  66  60  59  63  67  68  68  70  75  78  83  79  71  65  78  94  99  55  45  47  42  61 135 148 151 151 151 152 152 152 151
 150 149 152 151 152 151 151 152 153 152 154 153 154 152 153 152 152 152 150 126  39  30  31  32  61  95  84  65  93  91  90  93  89  84  80  79  77  76  77  71  66  63  65  67  72  83  69  63  75  92 100 106 115 125 135 130 118 104  81  54  65  63  57  56  60  66  73  75  76  81  85  93  99  95  83  87  94 104  55  47  45  44  88 140 148 148 148 150 151 152 152 151
 150 150 150 150 151 151 151 152 152 153 153 153 153 153 153 151 152 153 149 131  42  31  31  33  73  92  95  73  91 100 103 100  93  87  81  75  72  69  70  70  71  75  78  79  89  76  50  76  82  97 103 109 115 125 133 128 123 111  91  68  46  66  64  60  57  59  64  66  71  76  82  90 102 111 102  96 102 107  62  48  48  46 122 146 149 149 149 149 148 150 152 152
 150 150 151 151 150 150 151 152 152 152 152 153 151 153 153 152 152 152 150 137  42  31  31  38  75  99 104 102  70  98 108 104  97  91  86  81  79  80  81  81  86  94  96 101  75  49  84  79  90 101 106 112 118 124 125 126 125 118 104  74  67  51  70  71  68  65  64  65  67  72  78  90 103 117 120 113 117 114  68  50  49  55 139 148 149 149 149 150 151 150 150 150
 149 150 150 150 150 150 152 151 151 151 151 152 151 152 152 152 152 151 149 130  37  31  28  33  75 106 109 111 106  75  86 106 106 104  99  96  94  95  96 101 104 108 101  59  60  92  82  82  96 101 111 118 119 120 123 121 121 120 111  85  83  70  47  81  82  80  76  74  76  79  82  91 105 119 129 128 128 120  76  54  47  70 140 148 149 148 149 149 149 150 149 151
 148 150 150 150 150 150 151 151 151 150 151 152 151 152 152 152 153 151 148 121  34  31  32  38  92 107 109 113 116 115  91  67  74  91  99 107 105 103 103  96  83  57  57  90 103  90  83  88  96 104 115 118 117 118 118 114 116 120 118  98  84  95  83  45  69  89  88  87  89  94  97 103 114 122 133 133 118  82 107  54  45  90 142 148 148 148 148 148 150 150 149 148
 149 148 150 150 149 151 150 151 150 150 151 152 152 151 152 151 152 152 147 100  38  30  36  52 106 109 110 117 121 119 118 120 108  87  71  64  63  61  62  74  89 112 114 105  95  86  86  87  98 108 114 113 113 117 114 114 112 114 118 104  82  92 104 107  74  48  61  82  95 107 111 116 122 120 110  83  88 126 128  52  46 111 143 147 148 149 148 149 150 149 148 149
 149 150 149 150 149 151 151 151 150 150 150 151 151 152 152 152 153 152 145  93  40  30  37  59 107 109 114 119 122 119 120 120 120 119 119 119 120 122 124 122 121 116 107  98  89  85  82  87 102 103 108 103 101 111 109 109 105 109 115 109  85  88 100 111 119 119  98  77  62  62  60  66  70  83 103 129 135 134 132  71  50 127 144 146 148 149 148 148 148 148 147 148
 150 151 149 149 151 151 151 152 150 151 150 150 152 152 151 151 152 149 136 106  44  27  38  72 106 110 116 119 118 119 121 120 119 122 123 124 124 124 122 117 113 107 100  91  87  82  80  97  99  96  97  98  98 100 100  98  96  99 104 107  94  85  93 104 115 123 124 121 117 118 120 125 128 133 135 137 138 137 133  93  59 133 145 146 148 148 148 148 150 149 148 148
 149 150 150 150 151 152 150 151 150 151 151 151 151 152 151 151 150 130 110  99  70  60  49  78 106 110 116 116 116 116 118 121 124 126 123 120 117 115 113 109 103 100  91  88  86  77  95  92  84  81  83  88  88  88  88  85  84  85  90  95  95  82  89  97 106 114 122 125 125 126 127 127 128 135 135 135 138 138 136 106  81 138 146 147 147 148 149 148 148 148 149 149
 149 149 150 150 151 150 150 150 150 152 150 151 150 152 151 151 142  87  69  82  86  86  58  89 106 109 109 111 113 117 121 123 124 123 119 114 111 110 107 103  96  93  91  89  83  82 101  84  70  67  70  74  74  71  72  72  69  70  73  77  87  83  85  91  98 106 114 118 123 126 127 132 134 132 132 132 133 138 136 121 108 136 145 147 147 146 148 148 149 149 148 148
 148 149 149 150 150 150 151 152 150 151 150 150 150 151 150 151 124  61  49  52  76  87  64  92 106 106 108 110 114 117 121 123 119 117 116 110 109 107 105 102  97  94  90  85  78  89  88  73  61  58  60  63  61  61  61  60  58  60  61  64  80  90  80  87  92  97 105 109 116 120 123 128 133 135 134 132 132 137 136 126 104 123 139 145 147 146 148 147 147 147 148 148
 148 148 149 149 149 150 151 151 150 152 151 151 150 151 151 150 119  58  48  51  64  80  65  93 104 104 105 109 113 117 118 118 116 114 114 111 110 108 105  99  96  90  88  83  78  82  73  60  48  40  48  55  53  51  51  50  49  54  54  53  69  87  81  82  88  94  99 101 107 112 117 122 130 134 136 133 131 132 134 126 107 120 116 130 145 147 148 148 147 149 149 148
 148 149 149 150 151 151 151 149 152 151 151 151 152 152 152 150 116  59  52  59  76  80  68  94 102 104 104 108 112 115 114 111 108 108 109 108 104 103 102  96  89  87  84  80  74  70  60  45  28  25  32  46  47  46  44  44  47  36  28  42  54  77  80  80  84  89  95 100 105 109 110 115 122 129 133 133 129 130 132 125 103  79  61 103 142 145 146 147 148 148 149 149
 149 149 148 149 152 149 151 151 152 151 152 151 152 150 151 149 115  58  56  76  94  86  69  93 102 102 103 106 108 110 107 106 105 104 104 104 101  99  96  91  87  83  82  77  69  59  50  36  33  40  46  46  46  42  42  44  43  28  24  34  48  67  76  80  81  86  90  94  98 105 110 114 120 126 130 131 129 128 129 122  77  48  53 102 138 143 146 146 146 145 146 149
 148 147 148 149 151 152 151 151 151 152 151 152 152 152 152 148 110  62  64  94 103  95  74  91 100 100 102 101 102 104 103 103 102 100 100  98  95  92  90  86  83  82  83  80  72  58  48  40  41  52  50  47  43  40  43  44  43  40  31  35  51  68  77  81  81  83  86  90  94 101 105 110 115 119 125 128 126 123 126 118  76  47  51 106 137 141 144 144 145 146 146 147
 149 149 148 149 151 152 152 150 152 152 152 152 152 152 153 148 112  67  79 104 101  84  94  87  97  96  97  98  99  99  99  99  99  95  97  93  89  88  86  84  83  84  87  84  80  71  63  55  51  51  52  51  46  41  43  47  47  47  44  52  66  78  86  85  80  80  83  87  89  95  99 105 111 113 118 122 123 120 122 120  93  49  55 109 136 140 141 142 144 145 146 146
 149 149 147 149 150 152 153 151 151 152 151 151 152 152 152 149 111  74  92 105  87  92  99  82  96  93  95  94  97  98  96  94  93  93  94  90  87  84  86  85  87  92  91  90  85  81  74  65  61  53  52  52  49  46  45  46  48  53  56  65  78  89  92  92  85  78  80  83  85  90  94 100 106 110 114 116 118 119 121 125 107  54  58 117 137 138 139 140 142 141 143 144
 148 150 149 148 149 152 152 151 152 151 151 152 152 151 152 150 111  76 106 103  82  94 100  79  94  93  93  93  96  97  94  91  91  91  89  80  75  82  82  86  91  94  93  96  94  86  76  68  61  54  49  48  45  42  43  44  48  55  58  69  82  95  98  98  93  84  81  83  83  86  89  94 101 105 107 106 111 116 118 125 119  60  68 123 135 138 139 139 139 140 141 142
 151 150 150 148 151 151 151 151 151 152 151 152 151 152 152 149 117  84 112  99  78  85  99  74  92  93  91  91  93  91  90  88  88  87  83  78  78  84  84  89  93  95  95 100  98  86  72  67  59  54  46  44  41  41  42  45  50  57  60  67  80  97 103 101  97  92  85  85  84  85  86  89  94 100 103 106 110 113 116 110 129  72  75 128 134 137 137 139 138 140 141 140
 149 152 150 150 150 150 150 150 151 152 152 152 151 151 151 150 127  94 108  98  80  79  93  75  90  94  90  89  89  89  89  89  87  84  81  82  84  83  85  89  90  95 102  98  88  78  69  66  58  54  48  45  43  41  41  46  55  58  56  58  73  92 105 104 101  96  92  88  88  88  86  87  92  98 100 104 109 113 115 107 120 102  84 128 135 136 138 139 137 139 139 139
 149 150 151 151 151 150 151 152 151 150 152 152 152 152 152 152 138 104 112 104  91  93  87  73  83  90  88  87  88  90  89  88  86  85  84  85  85  86  87  88  88  94  98  90  75  69  63  62  60  56  52  47  47  43  45  51  56  56  54  64  70  83  97 105  99  96  92  90  90  90  87  85  90  93  99 104 109 111 111  99 100 112  93 129 135 135 136 137 138 137 139 139
 148 149 150 150 150 151 151 152 151 151 152 152 152 152 152 151 144 112 112 116 116 113  88  69  82  87  88  86  87  89  89  87  86  86  87  87  86  86  84  84  85  87  90  86  77  71  66  71  68  66  60  55  52  49  51  56  63  59  61  70  75  78  83  96  99  98  94  90  90  94  90  85  87  93  99 103 108 107 110  89  92 118 106 131 134 134 136 136 136 137 137 139
 148 149 149 150 148 149 149 149 151 151 151 150 151 150 150 152 147 117 101 115 119 112  93  66  77  83  86  87  89  89  83  84  86  85  86  88  86  86  79  75  79  78  84  85  80  81  80  79  75  73  72  66  62  57  58  64  70  70  74  73  79  78  77  85  91  94  93  91  91  94  93  88  88  92  99 102 107 103 101  83  96 125 121 134 134 135 135 135 136 136 138 137
 147 147 149 148 148 148 148 151 151 150 150 150 150 149 151 152 149 124 114 117 116 112  93  59  76  85  83  84  88  87  81  82  84  84  86  87  81  78  66  69  70  69  78  83  82  78  72  68  61  58  60  66  66  65  65  67  67  68  73  72  82  80  80  85  82  86  87  85  89  92  94  90  90  96 101 103 105 100  96  98 109 128 130 133 133 134 134 134 135 135 136 138
 147 147 146 148 147 147 148 150 150 150 149 148 149 150 151 149 149 133 120 116 114 107  87  60  77  83  81  85  87  86  82  82  85  85  86  84  75  66  59  64  67  66  71  73  68  60  54  51  46  46  44  48  54  57  54  49  46  47  51  61  72  80  83  85  77  80  83  81  85  87  91  93  94  97 100 101 104 100  97 131 130 128 132 133 132 133 133 133 134 136 136 136
 147 146 146 147 148 148 148 149 150 149 148 147 147 149 150 148 148 143 116 106 101  90  75  60  72  79  78  82  85  84  83  86  86  88  87  85  72  59  56  58  57  59  61  55  48  43  41  40  40  40  40  39  37  38  37  39  38  39  40  43  50  60  76  77  73  71  73  74  76  83  90  93  96  96  98  98 101  94  94 131 125 119 134 134 132 133 133 134 133 135 134 136
 146 146 146 147 147 148 147 148 150 148 147 147 147 147 149 149 148 146 120  88  81  72  65  62  72  77  78  82  82  83  83  85  87  89  88  83  67  60  54  52  46  45  43  39  34  32  29  29  29  29  30  30  29  28  30  31  32  33  32  33  35  41  52  63  63  58  60  66  68  81  92  96  97  96  99  98  99  97  93 126 133 134 133 131 132 133 133 133 133 134 134 134
 146 146 147 147 147 147 148 147 148 148 147 147 147 147 147 147 148 148 143 120  97 100 120  86  74  77  80  83  80  80  82  83  86  89  86  82  72  62  56  51  38  33  30  30  32  32  35  33  32  31  31  30  28  26  33  31  30  27  26  27  28  31  35  41  43  43  51  58  67  82  93  97  98  98  99  97  97  97  94 120 131 134 130 129 131 131 130 131 131 132 132 131
 145 146 146 146 147 147 147 147 147 147 147 148 147 147 147 147 147 148 147 146 145 145 144 103  72  77  75  80  76  78  80  80  85  89  88  81  69  62  62  64  62  58  50  51  56  59  60  62  58  56  52  54  50  49  54  52  52  50  50  54  51  46  39  35  33  41  53  59  69  83  92  97  98  95  94  96  98  95  85 106 119 128 129 129 129 129 130 131 131 131 132 131
 146 146 146 146 146 147 147 146 146 146 146 147 147 147 147 147 148 147 147 147 148 146 144 106  66  75  75  78  78  74  79  78  84  87  87  82  72  70  75  76  78  75  71  69  68  66  63  63  66  70  72  69  67  61  65  64  69  68  71  73  76  72  69  66  68  66  67  67  72  83  91  96  99  94  91  95  95  87  69  82 101 123 128 130 130 128 130 131 130 131 133 133
 146 145 146 146 146 146 146 146 146 146 147 147 146 147 147 147 147 147 147 146 146 147 144 135  57  71  73  73  77  73  73  73  78  84  86  83  80  78  82  84  85  82  79  75  72  68  65  61  58  60  64  62  63  62  63  62  62  62  64  68  75  79  82  80  82  80  76  74  76  84  92  93  94  91  91  89  93  82  84  92 116 125 128 128 128 129 130 130 130 130 130 131
 143 144 146 145 145 147 147 147 146 145 146 146 146 147 147 146 146 147 146 146 146 145 144 136  78  67  69  70  76  74  68  73  74  82  85  83  81  81  82  83  84  84  81  77  70  67  62  59  55  54  54  54  56  59  58  53  53  55  56  61  67  73  79  84  86  86  84  80  78  85  89  88  89  90  89  89  91  79 116 122 125 124 125 125 127 127 129 128 128 128 130 130
 144 144 144 145 145 145 145 145 146 145 145 146 147 146 146 146 146 146 145 146 146 145 144 140 109  63  61  65  69  72  69  78  76  80  82  83  82  81  82  81  82  82  81  77  71  67  62  59  57  52  50  50  51  53  50  44  47  52  53  60  68  74  79  85  85  86  85  84  79  83  84  80  84  85  88  84  80  86 118 125 125 125 126 126 125 126 126 125 126 126 128 129
 143 143 143 143 143 144 145 144 145 145 145 145 145 144 145 144 144 145 145 145 145 144 143 142 126  59  61  61  61  67  69  75  76  80  80  82  81  78  80  80  81  82  80  78  74  68  63  58  54  50  46  43  43  42  42  42  46  52  55  65  70  72  78  83  86  85  82  82  82  83  81  78  78  78  82  76  72  98 118 123 124 124 124 125 125 125 126 125 127 128 128 126
 141 143 142 143 142 143 144 144 144 143 144 143 145 143 144 143 144 145 145 145 145 143 143 140 135  78  62  60  61  58  67  70  72  79  79  81  80  79  79  78  78  80  78  80  76  72  68  58  51  44  39  40  39  36  37  37  41  46  51  58  62  70  76  80  83  81  79  81  83  84  79  76  78  77  76  73  70 111 119 120 122 123 124 125 125 124 124 123 125 124 125 124
 142 142 142 142 142 142 142 143 144 142 143 143 143 144 143 143 143 143 143 144 142 140 140 139 137 117  51  54  55  53  59  64  70  76  78  80  78  78  79  78  77  77  76  77  76  73  69  60  52  46  42  41  40  38  35  36  41  49  52  54  61  70  75  77  77  75  76  79  82  83  81  76  77  74  69  68  79 114 118 119 120 120 122 123 124 124 123 123 122 120 122 123
 140 139 140 141 141 140 141 141 143 142 144 142 141 142 142 141 142 141 141 141 139 139 138 137 135 119  53  48  48  50  61  64  69  74  78  79  77  76  77  78  78  76  74  74  73  70  67  60  54  52  48  46  42  36  33  36  43  47  52  59  66  73  74  75  75  78  80  79  79  84  80  75  74  72  62  59 100 115 118 118 119 120 119 122 122 123 123 122 121 120 120 120
 139 138 140 140 141 140 139 139 142 140 141 143 142 141 141 139 140 141 140 139 138 138 137 136 134 128  80  48  45  47  52  59  66  70  77  76  72  72  75  79  78  78  73  72  73  71  68  64  59  58  55  52  50  42  41  45  50  54  57  64  71  74  77  76  77  78  82  82  83  83  80  74  70  60  51  63 109 114 118 117 118 119 120 120 119 120 120 120 119 119 120 120
 139 138 139 139 138 138 140 139 140 140 139 140 139 139 139 140 139 139 138 137 138 136 135 133 134 125  87  55  42  38  45  52  56  65  70  70  67  68  74  81  81  79  76  75  74  71  72  75  73  71  68  68  68  63  64  70  75  77  73  71  72  75  78  80  83  82  84  84  86  81  76  67  54  45  42  82 109 113 115 116 117 117 118 118 118 118 119 118 118 120 121 119
 137 138 136 138 137 138 138 139 139 139 139 139 139 139 139 139 138 137 136 137 137 134 133 134 132 125  92  69  36  36  39  46  53  59  60  63  64  69  76  80  83  84  81  77  73  67  78  82  82  80  76  78  76  75  78  79  85  86  84  81  78  78  82  83  86  86  87  85  86  79  69  54  42  38  49 107 112 113 115 114 114 117 117 116 117 117 116 117 117 118 119 119
 136 136 136 137 136 137 137 137 137 137 137 137 138 137 137 137 136 137 136 137 135 135 133 133 131 125  94  80  47  33  38  41  45  47  50  62  67  68  74  79  83  85  82  82  79  78  81  82  81  79  80  81  80  80  81  82  87  88  88  87  86  85  86  87  89  89  87  80  77  77  59  48  38  36  78 109 112 111 114 114 116 116 116 117 117 117 117 117 117 117 118 118
 136 136 136 135 135 136 137 136 137 136 137 135 136 136 136 137 137 136 134 134 134 133 131 131 131 123  92  82  70  45  34  36  36  39  46  58  64  65  69  73  83  83  84  84  82  83  82  81  80  81  81  81  82  80  80  82  86  89  90  90  88  90  90  91  92  91  87  82  79  71  54  42  35  50 101 108 109 112 112 111 112 111 113 114 114 114 115 114 116 116 116 117
 133 134 132 134 135 135 136 136 136 136 135 134 136 135 134 135 136 132 133 133 133 130 130 129 128 120  91  82  73  59  35  30  30  31  37  45  52  58  66  66  77  79  82  81  83  83  82  80  79  78  77  78  76  78  79  78  80  85  87  90  90  90  91  92  90  85  83  76  72  62  47  35  39  90 104 106 108 108 109 109 110 110 110 111 112 111 114 114 114 115 114 115
 132 130 131 133 132 134 135 134 134 134 134 135 133 134 133 133 134 132 132 132 132 131 129 130 126 121  90  81  75  66  50  34  28  29  36  42  42  55  62  62  69  76  77  82  83  81  81  79  77  77  76  73  73  73  73  74  74  79  83  86  88  88  90  87  85  80  77  73  64  52  38  36  77 101 104 107 109 106 108 108 110 110 111 111 112 113 115 117 116 116 115 116
 131 130 131 131 131 133 133 134 133 133 134 133 135 132 133 131 133 131 130 128 130 127 126 126 124 117  89  81  77  71  63  50  31  28  32  33  38  51  56  58  60  67  72  76  77  76  76  74  71  73  72  70  69  69  70  70  71  73  75  81  83  80  83  81  75  69  65  61  52  40  30  66  96 102 103 106 107 107 108 109 110 110 110 111 112 112 113 115 115 113 116 116
 130 130 131 130 131 131 131 131 132 132 133 133 133 132 132 131 131 131 129 130 129 128 127 126 124 117  86  80  76  71  67  58  43  29  25  26  34  47  54  56  56  58  63  67  68  73  72  70  67  68  66  67  64  62  62  66  66  70  70  71  73  73  72  72  66  56  52  47  41  34  57  96 102 105 105 107 107 108 108 109 109 110 110 110 110 109 111 111 111 112 112 113
 130 130 130 130 131 131 131 130 131 131 131 131 132 131 130 130 131 130 129 128 129 126 126 125 124 115  86  80  75  72  69  63  51  41  27  22  26  39  45  54  51  48  52  60  59  66  69  63  61  61  61  59  58  55  56  58  62  64  66  64  66  66  54  52  55  46  44  36  30  55  84  90  96 102 103 105 105 105 106 106 106 106 107 108 108 108 108 109 108 110 110 110
 130 130 129 130 130 130 130 130 131 131 130 130 131 130 130 130 128 129 126 128 126 125 124 122 122 114  85  78  74  71  68  66  59  50  38  27  23  28  38  45  45  43  46  52  54  57  61  61  58  57  53  53  55  53  52  53  55  58  57  55  56  52  46  49  48  40  36  27  41  93  84  66  69  76  80  84  90  93  97 100 100 102 105 106 107 106 107 109 110 110 111 111
 129 128 128 128 128 129 129 128 129 129 128 129 129 128 129 128 127 126 125 124 123 123 123 120 118 110  84  77  74  70  69  67  63  56  50  34  24  19  29  36  38  37  38  41  43  48  52  53  52  52  50  49  49  48  47  44  48  49  45  48  49  43  40  43  39  32  29  39  84  97  78  59  56  59  62  62  59  60  62  70  78  84  91  95 100  99 103 105 106 109 109 110
 127 128 128 126 127 127 127 128 128 129 128 128 126 126 126 126 125 124 124 123 120 119 118 114  93  74  81  78  75  72  70  68  65  62  57  50  36  22  23  27  30  37  31  34  37  43  44  44  46  48  46  46  44  43  43  38  39  40  36  36  41  38  37  34  31  29  44  81  94  98  53  30  46  57  55  58  61  58  54  54  58  62  64  68  72  78  82  86  88  95  99  98
 128 126 125 125 124 126 126 127 128 127 127 126 125 126 125 124 123 122 118 116 104  92  77  49  29  29  77  76  74  71  68  67  66  63  62  55  46  32  20  18  24  30  26  29  32  38  35  34  37  40  38  40  39  38  36  32  32  33  29  30  32  32  31  27  26  46  85  92  96  96  50  17  17  42  57  54  58  62  60  57  56  55  56  57  60  60  64  65  67  70  75  78
 125 126 125 124 124 125 125 125 124 125 126 125 124 124 122 120 110  98  83  73  62  44  28  17  13  25  77  74  73  71  68  69  67  66  64  60  49  39  31  22  18  20  20  22  28  30  29  29  30  32  32  33  32  30  29  27  26  27  26  26  25  28  26  25  40  79  90  95  95  97  47  15  12  16  42  54  56  60  62  60  58  57  58  57  56  58  59  60  60  63  62  65
 124 124 124 123 123 124 124 124 124 124 123 121 118 112 102  87  73  63  56  55  32  16  13  12  11  24  74  75  72  71  70  69  68  66  64  64  58  46  38  31  23  19  15  16  20  22  26  28  24  25  25  24  24  25  25  22  20  21  23  22  23  24  24  46  75  85  92  95  96  96  46  15  11  12  22  50  55  57  61  59  58  59  60  59  59  58  56  57  60  62  61  63
 124 123 124 122 122 123 122 122 120 117 110  96  83  71  69  64  61  50  49  33  13  11   9   9  11  29  74  74  75  72  70  69  69  67  66  63  62  56  49  43  33  22  16  13  15  16  18  19  17  17  16  17  15  16  16  15  16  17  19  16  16  23  46  82  89  89  92  95  96  97  49  19  12  11  11  35  57  55  58  60  57  60  58  60  60  59  58  58  59  60  59  59
 119 120 120 119 119 116 111 104  94  79  69  61  61  61  58  56  51  47  45  17   9   9  11  19  36  61  75  74  73  74  72  70  69  65  67  65  62  60  54  50  43  30  21  17  14  15  14  14  13  13  14  15  15  15  14  14  15  14  15  17  22  45  83  90  90  91  93  95  96  95  54  24  16  12  11  21  54  53  56  60  59  58  58  59  58  57  56  54  57  57  58  59
 115 108 102  95  88  83  78  72  67  62  60  59  59  60  56  48  46  46  42  11  12  17  27  41  57  69  75  75  76  74  72  69  69  67  66  66  63  61  59  56  50  38  29  26  20  15  14  14  13  13  15  13  13  13  14  14  14  14  17  27  48  76  89  91  89  90  92  94  95  94  67  29  20  15  10  16  48  52  55  58  61  58  57  57  58  57  55  54  52  56  59  57
  72  72  74  77  72  68  64  61  57  54  59  60  59  53  51  45  44  44  33  16  21  31  42  57  68  72  74  74  76  75  72  71  69  67  67  66  65  63  61  60  58  50  43  34  29  23  19  15  15  14  12  12  12  12  13  14  16  23  35  49  70  84  90  90  89  90  91  93  96  94  82  37  24  16  13  16  47  50  54  55  61  60  58  55  56  56  56  54  53  56  54  55
  71  70  64  66  61  59  57  56  57  58  58  55  56  50  48  43  45  46  30  22  32  43  52  66  72  74  73  74  75  75  73  71  70  68  68  66  66  64  62  62  61  57  52  46  38  31  28  24  22  22  20  19  18  18  20  25  32  44  50  61  78  88  89  87  88  89  91  93  94  92  85  48  27  19  13  19  45  48  52  56  59  57  58  54  53  52  53  51  52  53  50  52
  63  61  58  59  61  57  57  54  57  56  53  50  53  49  45  44  45  45  30  28  42  51  60  70  74  74  75  76  77  73  72  72  70  69  68  66  64  63  64  61  60  58  56  50  46  41  37  34  31  28  28  27  28  29  31  38  47  56  59  70  80  85  87  86  88  90  93  93  95  95  87  55  29  20  14  24  47  48  49  54  58  57  59  53  53  54  52  50  51  52  51  51
  60  57  58  58  57  58  58  56  55  51  51  52  51  48  44  42  43  45  33  34  46  54  65  70  74  73  76  77  76  75  70  73  71  69  67  65  63  62  61  61  59  58  56  53  51  47  46  43  38  32  32  32  34  37  45  50  57  66  72  77  80  84  85  84  86  90  93  92  93  93  87  55  30  22  14  29  45  48  51  54  56  58  55  52  53  52  49  49  50  51  52  54
  58  56  57  56  54  56  55  55  54  51  50  51  50  47  43  41  42  44  38  38  49  57  66  73  74  72  72  75  74  74  73  70  71  70  68  65  62  61  60  60  59  56  56  54  54  50  47  45  42  39  38  38  40  44  50  54  64  70  75  76  80  82  83  86  88  91  92  93  93  93  85  52  30  24  18  38  48  47  49  55  56  53  52  49  48  52  51  49  50  52  50  52
  54  54  54  54  53  55  54  52  50  50  49  49  48  45  44  42  40  43  42  42  51  58  68  72  74  70  72  73  74  73  72  70  68  68  66  65  63  62  60  58  58  56  55  52  52  51  48  45  43  43  41  42  45  47  52  56  64  70  71  76  79  80  82  84  86  90  91  93  92  90  83  48  30  25  20  43  46  45  52  55  56  54  52  49  47  50  48  47  48  48  50  53
  54  52  53  53  51  48  53  50  49  49  48  48  48  44  45  42  41  40  42  44  50  56  67  72  71  71  70  75  76  74  73  72  69  68  66  64  63  62  58  55  56  55  54  50  48  47  47  46  44  43  43  44  46  49  53  57  59  65  70  75  77  77  79  82  84  89  90  93  93  89  77  42  30  27  31  44  46  46  51  55  57  54  50  47  46  48  47  47  49  48  54  55
  51  54  52  51  52  49  49  48  47  46  46  46  46  43  45  44  42  39  42  42  48  55  66  73  68  69  71  74  74  73  73  70  68  67  66  63  63  63  61  56  54  54  51  50  49  45  45  44  45  44  44  44  46  50  52  55  61  65  71  74  76  76  80  83  83  88  90  92  92  88  71  38  29  28  38  41  46  47  50  54  56  50  49  48  46  45  47  46  49  51  55  56
  54  52  51  50  48  49  49  46  46  46  47  46  46  43  45  44  42  40  42  43  43  50  61  70  68  69  70  70  72  71  72  68  67  66  66  66  61  62  60  55  54  51  49  48  47  45  43  42  42  41  42  43  45  51  53  55  59  66  68  72  75  77  78  79  81  89  89  92  92  83  61  35  30  33  42  46  47  47  52  54  52  50  48  47  45  44  45  46  54  56  55  58
  51  52  52  50  50  50  51  48  49  46  46  46  45  45  45  42  43  38  40  41  42  46  54  66  67  67  69  70  73  71  68  67  65  66  67  66  63  61  59  56  54  52  48  47  44  43  42  42  41  41  41  43  46  51  53  54  59  63  67  71  74  76  76  78  82  88  89  91  90  77  50  31  31  41  43  44  45  49  56  57  52  50  48  46  44  45  45  47  53  51  56  57
  51  51  50  50  51  49  51  49  50  48  46  45  46  45  44  44  43  43  40  39  39  43  46  59  66  65  68  71  71  71  68  68  67  66  67  64  63  61  59  54  54  51  50  47  44  41  41  41  40  40  39  41  44  48  52  54  58  62  67  70  70  73  74  78  82  86  87  88  86  69  41  30  35  43  43  44  46  52  56  58  52  50  46  44  44  46  45  47  53  57  58  56
