P2
# Generated by OpenCV 3.4.0
92 112
255
 139 137 137 138 139 139 140 140 140 139 138 140 141 136 133 129 129 129 114 106 100  76  59  52  52  49  41  38  33  42  66  43  46  42  30  61  60  71  70  39  35  37  34  34  38  37  46  65  78  74  84  79  88  86 105  95 114 129 119  87  96 123 135 146 150 152 152 152 152 153 152 152 152 152 151 151 151 152 152 152 152 152 151 152 152 152 151 150 152 151 152 152
 136 134 138 139 140 140 139 139 138 135 134 136 133 130 131 119 103  92  84  74  71  62  52  41  35  32  29  28  27  38  44  34  27  27  26  39  49  55  43  33  29  28  28  28  30  33  40  51  53  54  67  70  83  80 106  86 100 114 102  76  89 101 121 140 146 148 151 152 152 152 153 152 153 152 152 152 152 152 153 152 151 152 152 152 151 153 152 152 152 151 152 151
 137 138 140 140 139 139 137 137 139 129 123 125 113  88  86  76  75  69  71  69  62  60  40  33  29  25  24  24  28  29  28  26  25  24  21  31  36  31  28  25  26  26  25  25  28  31  34  41  41  42  54  60  68  77  92  79  82  91  90  71  78  80 110 127 140 147 149 148 152 153 153 152 152 152 152 153 153 152 152 153 153 152 152 153 152 153 152 152 152 152 152 153
 140 140 141 141 138 137 136 133 126 117 102  96  90  60  46  43  40  42  44  44  36  34  30  28  24  24  25  24  26  26  26  28  27  24  22  26  30  29  25  22  24  24  23  24  29  31  32  32  32  37  41  52  58  64  72  65  76  79  74  68  78  80 118 113 129 140 142 148 152 153 153 153 152 154 154 153 152 153 153 153 153 153 153 153 153 152 153 153 153 153 153 153
 141 140 142 141 138 131 119 102  85  68  51  42  33  35  37  35  31  27  28  30  27  28  29  24  24  24  24  25  28  28  29  30  27  24  22  25  25  18  18  18  21  22  21  26  29  30  29  27  29  31  35  53  52  52  54  56  58  63  62  61  73  78 112 113 116 128 138 148 149 153 154 155 153 155 155 153 154 153 154 153 153 154 153 154 153 153 153 152 153 153 155 154
 142 142 141 140 138 128 111  91  65  46  36  30  27  25  32  31  27  24  26  30  25  25  25  24  24  22  24  21  24  25  27  28  24  24  23  23  24  19  21  21  19  18  22  28  28  27  27  26  26  26  30  34  37  37  41  48  67  60  54  62  68  74 109 109 102 124 134 144 148 153 153 155 155 154 154 154 154 155 156 154 154 154 154 154 154 154 153 153 154 154 153 153
 142 142 141 141 137 130 119  95  62  38  31  25  23  27  31  28  23  24  24  28  25  25  24  22  22  21  19  18  21  24  26  28  25  24  22  20  21  20  20  15  16  20  26  27  24  22  22  22  21  26  30  31  33  36  40  55  54  51  51  60  62  76  95  96  91 111 129 133 149 153 152 153 154 154 155 154 154 156 156 156 156 155 155 153 154 153 154 154 154 155 153 153
 142 143 143 142 139 130 108  75  47  34  29  23  24  25  28  28  27  20  21  25  27  27  24  18  17  19  19  20  25  26  26  27  24  24  19  19  18  17  17  18  23  23  24  23  20  21  19  20  22  24  26  28  31  37  43  45  46  45  50  54  53  62  84  88  86 106 114 116 148 151 152 155 156 155 154 157 156 155 156 155 156 155 155 154 155 154 154 156 154 153 153 152
 142 142 142 141 134 120  83  54  40  29  27  20  24  26  29  29  23  18  23  24  24  23  21  21  19  23  23  22  20  22  25  26  19  21  17  17  15  16  18  22  22  22  20  19  16  18  20  22  25  28  29  31  33  37  39  38  40  42  45  50  52  66  77  80  89 110  97  95 141 146 152 153 155 155 155 156 157 156 155 154 155 155 155 155 156 155 153 154 154 154 154 155
 143 142 142 133 126 110  63  44  30  27  25  27  27  27  28  25  19  25  25  20  18  18  17  18  17  17  16  18  18  18  21  21  15  16  15  14  16  16  18  20  18  17  16  15  15  17  19  24  27  29  29  31  32  32  34  35  37  38  41  45  52  60  76  77  89 105  86  80 124 138 148 153 155 156 154 155 156 156 156 156 155 157 156 155 156 156 155 156 156 155 155 154
 142 142 139 136 122  82  55  35  29  27  30  30  28  26  28  22  21  18  17  19  15  18  16  14  15  16  20  17  17  19  20  22  19  16  15  16  18  19  18  18  17  14  13  14  14  15  18  22  25  28  29  30  32  33  33  33  36  37  40  44  51  56  62  65  84  96  75  78 109 129 147 153 156 155 156 156 157 157 156 156 158 157 156 156 157 156 156 156 154 155 155 154
 141 140 127 124  88  58  40  33  29  28  29  28  25  23  23  22  21  20  23  23  23  27  26  21  22  22  26  19  16  18  22  27  29  24  19  19  18  16  17  15  13  12  13  13  15  16  19  22  25  27  30  30  29  26  26  28  31  33  36  39  42  47  54  70  83  79  63  75  96 125 147 154 156 156 155 155 157 157 157 156 156 157 156 157 156 156 158 156 154 155 155 154
 140 133 110  86  55  42  35  31  30  32  29  26  21  20  24  25  28  26  26  19  24  25  21  19  16  19  21  23  25  22  21  26  31  32  27  24  17  16  15  12  12  14  15  15  16  17  20  22  24  27  30  30  30  29  29  29  28  31  33  34  36  40  51  57  59  61  56  73  96 126 139 152 156 156 155 156 155 157 158 158 156 157 156 157 157 157 158 156 156 156 155 155
 141 139 119  73  42  35  33  32  32  29  27  23  25  26  26  29  28  30  25  21  23  22  16  13  15  15  15  15  18  20  21  24  30  32  31  25  18  17  17  15  14  15  16  17  19  21  23  23  26  25  25  25  24  24  25  26  26  26  28  31  32  35  41  48  53  52  59  71 105 120 132 150 155 154 156 156 158 158 158 158 156 157 158 157 157 157 156 156 156 156 156 155
 141 136  83  43  37  34  32  31  29  26  24  25  30  22  25  27  26  25  22  16  19  18  16  13  13  12  14  15  16  17  19  22  24  29  30  32  29  22  18  18  17  17  18  20  20  22  24  27  27  27  27  24  21  20  20  24  27  27  27  30  30  33  37  40  42  48  59  71 115 110 117 146 153 154 156 157 157 156 156 158 159 158 159 157 158 158 156 156 156 156 156 156
 138 119  53  39  38  32  31  31  27  24  26  27  29  24  26  25  24  22  18  17  16  14  15  13  12  12  14  14  15  17  20  23  22  22  27  28  31  30  28  21  19  20  20  22  23  23  24  25  28  29  26  27  25  25  24  23  22  24  25  27  31  33  36  37  37  44  52  91 100  93 106 136 147 156 158 158 158 157 158 158 158 158 158 156 157 157 157 157 157 156 157 155
 139  81  41  37  36  32  32  28  24  26  27  28  27  25  23  24  25  20  15  16  15  14  14  13  14  14  15  15  16  19  20  19  22  22  25  25  28  29  30  29  24  20  20  22  24  22  22  24  24  25  27  27  27  27  25  27  24  24  25  28  28  31  32  34  35  42  64  83  79  87  92 123 146 153 158 158 159 158 159 158 158 157 158 157 158 157 158 158 157 158 157 157
 120  46  36  32  31  34  28  22  23  28  27  26  22  25  21  23  23  17  15  15  16  15  15  16  17  17  20  20  23  27  25  24  23  22  24  25  26  28  29  30  29  25  23  25  25  25  24  21  22  23  26  26  27  26  29  30  28  26  24  27  29  27  28  33  38  44  51  58  61  67  92 132 149 156 158 159 159 159 159 158 158 158 158 159 159 158 157 156 157 158 156 156
  91  35  33  31  30  30  24  23  25  28  24  23  23  23  21  20  19  15  16  17  17  18  20  22  26  25  27  28  31  31  30  29  29  27  26  27  29  30  30  30  31  27  24  25  27  29  29  27  25  24  25  28  27  30  28  29  29  27  25  25  31  30  30  31  31  35  44  50  55  76 115 135 151 158 159 159 160 159 159 159 159 159 158 158 157 158 158 158 157 158 156 155
  41  33  32  30  31  26  17  20  27  28  23  21  19  21  20  16  18  16  20  22  24  27  29  31  33  34  35  37  37  37  37  36  36  34  32  32  33  32  31  32  32  30  26  24  28  31  32  30  30  28  26  27  26  28  30  31  32  29  26  26  32  34  30  29  31  38  41  50  72 112 134 142 153 157 159 159 158 158 158 160 158 159 158 158 158 158 158 157 156 156 156 155
  40  33  34  32  28  21  16  17  26  25  17  20  16  17  16  16  21  22  26  30  34  36  38  40  43  43  42  44  42  42  42  42  41  40  40  37  37  36  36  36  36  33  32  25  25  32  41  38  35  36  32  28  27  25  26  31  33  34  30  29  32  35  34  34  37  39  49  74  99 123 137 148 153 158 159 160 160 159 159 159 159 159 159 158 158 158 158 158 157 156 157 155
  36  34  35  30  24  18  19  21  24  19  16  20  15  16  16  18  25  28  36  41  43  45  46  48  50  50  51  51  50  49  47  46  46  46  46  44  44  41  38  40  43  41  38  32  26  31  49  51  49  46  46  38  30  27  25  26  30  33  33  33  35  37  37  42  50  66  94 120 136 140 146 154 157 159 159 159 160 159 159 160 158 158 158 158 158 158 158 158 158 159 157 155
  31  29  30  28  20  16  18  21  25  19  16  16  14  15  18  25  31  38  45  50  50  52  53  57  60  59  56  57  57  55  54  53  52  51  51  50  48  48  46  46  47  49  48  44  28  27  42  59  62  60  55  53  44  32  28  27  29  31  33  33  35  40  42  52  82 109 123 133 137 143 145 153 157 158 158 159 160 159 159 159 159 158 158 158 158 157 159 158 158 158 157 155
  29  29  29  23  16  16  18  24  26  21  16  15  16  18  24  32  38  45  51  56  57  57  60  61  61  62  63  62  62  62  61  58  56  56  54  54  53  51  50  51  51  51  53  53  36  28  35  58  73  69  67  67  63  49  37  29  27  27  28  30  35  41  44  60  91 132 142 149 148 152 155 157 158 158 160 160 160 160 160 159 158 158 158 158 158 158 158 156 158 158 155 154
  29  26  25  19  16  15  17  24  28  19  15  15  16  22  30  38  47  53  58  63  62  61  62  64  64  67  66  66  67  66  65  64  63  62  61  58  57  56  54  52  52  53  55  61  51  30  38  57  75  77  77  77  78  73  58  40  28  25  26  30  30  34  42  45  65 107 131 143 146 152 155 157 158 158 158 160 158 157 159 159 158 158 157 156 157 158 158 156 157 156 156 154
  28  22  22  18  15  16  19  25  27  19  15  17  21  27  37  47  55  59  63  66  66  66  65  66  69  69  70  71  71  72  72  70  71  70  68  67  65  63  61  58  56  56  57  65  64  46  49  65  75  82  86  86  87  91  84  68  42  28  26  27  30  31  36  55  88 109 117 122 140 151 156 158 158 158 159 160 159 158 158 159 158 159 157 156 156 157 158 157 158 158 156 155
  23  20  20  17  15  16  18  23  23  17  15  18  25  33  46  55  60  63  67  69  68  68  68  71  73  75  76  77  78  78  79  78  78  76  73  71  71  69  69  68  66  64  64  67  70  67  64  79  86  89  92  91  93  97  96  91  73  35  29  28  28  32  35  43  81 118 119 136 146 152 157 157 158 159 159 158 158 159 158 157 159 159 157 156 157 156 156 157 158 156 156 156
  20  19  17  17  17  16  17  24  20  16  18  22  31  42  52  61  66  67  69  71  74  74  74  77  79  81  83  83  85  84  82  79  81  82  81  79  76  76  75  77  76  73  72  72  78  83  84  94  99 102 102 102 101 101 103 101  96  62  33  35  30  32  36  46  69 111 135 143 151 153 156 158 158 159 159 157 158 159 159 158 157 158 158 157 157 158 157 157 158 156 156 156
  20  21  20  19  16  16  17  22  20  16  20  28  39  49  58  64  67  70  74  75  78  80  81  84  86  88  89  91  91  88  87  85  86  87  86  85  82  80  79  79  81  81  80  79  83  87  94 104 107 110 111 109 109 109 109 110 108  94  53  38  34  30  38  54  81 105 134 148 150 156 157 158 160 158 158 158 159 158 158 158 158 157 158 158 158 157 158 157 157 156 155 155
  22  22  22  19  16  16  18  21  17  17  26  36  47  58  64  69  73  76  77  80  81  83  84  86  88  89  90  92  93  91  91  91  92  92  92  93  89  87  85  86  90  94  96  96  94  96 102 108 112 113 114 116 113 115 113 113 113 110  80  50  40  30  34  62  93 111 131 147 151 156 156 159 160 160 157 158 159 157 158 159 159 158 159 157 157 157 157 157 158 157 156 155
  25  23  19  17  15  15  17  22  18  20  31  43  53  64  68  73  77  78  79  80  82  85  85  88  89  90  92  97  98  97  97  95  95  94  96  96  96  97  95  95  97 102 103 103 101 104 109 113 116 116 117 119 120 120 118 117 116 116 108  76  47  28  30  56 105 130 143 151 154 156 158 159 158 160 158 158 159 158 156 157 158 159 158 157 158 157 157 156 158 157 156 156
  26  22  20  15  14  15  17  22  19  24  35  49  62  67  70  72  75  79  80  81  85  85  88  89  90  94  97  98 100  99 101  99  98  99  98  97  92 101 103 101 101 104 105 105 107 108 109 111 118 121 123 123 122 121 121 122 121 122 117  98  67  33  29  51 105 140 151 155 156 157 159 160 160 158 157 159 159 158 156 159 159 157 157 158 158 159 158 157 156 157 157 159
  26  24  20  15  14  14  17  20  22  30  43  58  64  69  75  80  83  86  87  88  89  89  90  90  90  92  93  96  99 101 103 102 102 103 101  97  96 102 106 105 102 104 105 107 109 109 109 112 120 124 125 125 124 125 124 125 125 124 121 113  79  46  34  50 100 146 155 157 160 159 159 160 158 158 157 159 159 159 157 158 159 159 156 158 159 158 157 159 157 156 156 156
  25  21  17  14  14  15  17  19  24  36  48  60  70  78  79  78  81  82  82  83  83  82  84  87  87  87  88  90  94  99 103 104 103 101 100  96  93  95 105 108 105 103 104 106 109 111 111 114 119 124 126 128 126 124 126 126 126 126 126 118  95  60  39  56 111 147 155 159 159 159 158 158 158 158 159 160 158 158 159 159 159 159 158 158 159 158 158 157 157 156 156 156
  23  18  15  13  14  15  17  18  27  42  55  67  76  77  77  80  85  89  89  88  87  86  85  86  87  87  88  88  91  96 100 103 102 100  99  97  95  93  99 107 107 101 103 104 105 112 113 114 119 123 126 127 126 125 124 124 126 128 128 123 104  63  46  54 116 152 154 158 158 158 158 157 158 158 160 159 158 158 157 160 161 158 158 158 158 158 157 158 158 155 156 157
  18  16  14  15  15  16  18  23  32  49  62  70  73  76  86  90  90  92  89  89  89  89  90  89  90  89  89  89  90  91  90  95  96  96  97  99  96  91  95 101 104 100  99  99 100 105 109 113 117 121 123 124 127 123 123 122 124 127 127 127 115  66  50  56 109 149 158 160 159 159 160 158 158 159 160 159 158 159 158 159 160 158 157 158 157 157 157 158 158 157 156 156
  17  16  14  15  15  16  20  28  42  58  66  69  77  84  88  85  81  76  76  78  80  79  77  81  80  75  73  73  73  74  72  76  83  86  89  95  96  91  92  97 100  99  95  93  92  99 104 107 111 114 117 118 123 122 121 122 122 127 128 128 122  84  53  52 103 149 158 159 159 158 158 159 158 158 159 158 158 159 159 159 159 159 158 158 158 157 157 157 158 157 156 156
  18  16  15  15  15  17  23  35  52  66  70  77  80  81  78  65  53  48  52  52  54  53  44  41  40  40  36  35  35  38  43  42  56  66  75  85  91  88  85  90  96  97  92  87  84  85  93  92  95  96  97  98 105 109 107 106 111 116 123 127 125  90  58  53 115 155 158 158 159 160 160 160 159 159 159 158 159 159 158 159 160 159 158 158 157 158 156 157 156 156 156 157
  17  16  17  20  17  21  30  46  63  70  77  80  79  71  58  43  35  36  39  38  36  34  31  28  24  24  25  25  24  26  29  32  37  45  54  65  80  85  82  86  89  91  85  79  66  67  70  72  65  69  62  57  57  62  76  73  77  80  90 113 122  96  55  52 131 155 158 160 159 160 160 160 160 160 160 158 160 159 158 159 160 158 158 159 158 157 158 157 158 156 157 156
  18  18  22  17  19  28  36  54  67  73  79  77  70  53  39  30  30  31  31  28  26  23  24  23  20  20  20  23  21  24  24  25  30  35  40  47  66  78  76  84  83  82  76  66  48  50  49  50  45  45  38  37  34  38  42  50  59  56  59  62  67  65  50  53 124 156 156 158 158 160 161 160 158 160 160 159 158 159 158 158 159 160 158 158 158 159 158 157 158 157 158 157
  15  16  18  16  19  28  42  61  69  74  77  73  56  38  29  28  27  25  22  22  22  20  20  18  19  18  18  19  22  22  22  24  27  29  31  39  51  65  69  76  79  75  67  51  40  39  38  36  34  34  31  28  34  47  46  43  34  35  39  43  44  48  48  44  41  72 119 153 158 158 159 160 159 161 160 161 159 159 159 158 160 159 158 158 159 158 158 156 156 157 157 157
  16  16  16  16  21  32  50  66  72  76  75  60  36  28  27  25  24  23  22  21  21  20  21  18  18  17  17  17  19  23  21  24  26  28  30  37  46  54  64  73  76  72  55  46  35  31  31  29  29  28  36  47  38  30  30  31  33  37  43  46  46  50  54 107 138 105  59  78 144 157 159 159 159 158 160 159 159 161 159 159 159 159 159 158 159 160 158 157 157 157 157 157
  16  16  15  17  23  38  60  69  74  77  66  44  28  24  23  23  23  25  28  31  34  42  38  41  36  35  32  32  30  21  23  24  25  29  31  36  43  51  61  73  75  68  53  43  32  30  29  23  35  44  40  31  28  28  33  33  37  39  43  46  45  48  54 102 150 153 147  77  65 130 157 158 159 159 159 159 158 159 159 158 159 159 158 159 160 158 158 157 158 156 158 158
  15  17  16  18  25  47  65  71  75  74  52  34  26  24  27  28  36  46  50  48  46  40  37  31  29  32  32  34  39  42  42  39  37  33  34  37  43  51  60  73  74  70  56  45  43  48  58  58  50  38  31  27  27  29  34  37  40  44  45  49  60  59  60 102 150 156 155 151  67  80 118 152 162 160 159 160 161 160 159 157 160 159 158 160 159 160 158 157 158 157 158 159
  16  16  16  18  31  58  72  76  76  67  39  29  27  34  44  44  41  40  43  47  50  50  47  44  39  34  33  32  32  32  29  30  33  41  44  48  53  54  63  67  65  62  56  44  42  44  45  44  39  37  34  32  33  35  36  38  38  38  40  52  67  76  75 111 153 155 157 156 122  58  91 165 153 162 161 160 161 160 160 159 160 160 159 159 159 160 159 158 158 158 158 159
  16  16  15  18  36  65  76  79  78  60  35  35  46  43  39  51  62  64  61  57  51  47  42  38  33  31  30  31  32  34  38  38  37  32  35  44  47  45  39  35  30  32  42  39  37  35  35  40  41  39  34  29  29  30  34  34  30  28  30  42  61  76  82 122 153 156 158 158 126  59  76  87 145 160 160 162 161 160 159 158 159 161 159 159 161 159 159 159 158 159 159 158
  20  16  15  22  45  73  79  81  76  50  42  47  39  52  63  67  66  60  51  48  40  34  32  28  23  23  25  26  29  32  35  38  38  37  39  36  42  45  56  63  73  81  78  71  62  50  41  39  42  36  29  28  28  29  33  33  28  26  26  29  43  69  85 122 151 156 157 156 106  59  88 155 157 159 159 161 160 159 158 158 160 161 160 160 161 161 159 160 159 158 157 157
  18  15  16  24  54  76  81  80  72  51  52  37  58  68  70  67  58  52  40  36  34  39  36  29  24  26  26  24  25  30  33  36  39  42  45  42  40  57  63  69  74  79  77  71  68  55  43  40  37  32  32  30  28  31  38  38  30  27  29  32  37  60  76 119 151 155 152  94 108 108  94 154 160 159 160 161 161 160 159 160 160 161 161 160 161 159 159 158 158 157 157 156
  16  15  15  27  59  80  83  80  69  56  38  59  71  70  68  61  50  40  40  48  37  33  32  32  28  27  26  26  27  28  31  35  38  42  46  50  39  44  53  66  82  95  96  89  74  57  37  38  36  35  33  33  40  49  54  52  35  37  42  35  37  50  78 126 146 150  93 115 153 118 109 154 158 160 161 160 162 160 160 160 161 161 161 159 160 160 158 158 158 158 157 157
  17  15  17  31  66  79  80  72  64  51  47  66  72  70  61  53  40  41  39  35  35  44  51  45  28  26  26  27  28  29  32  36  37  41  48  52  49  39  50  81 101 108 107 102  90  60  37  40  38  38  37  43  54  66  68  56  38  28  55  40  41  51  81 119 142  84 115 153 158 125 138 157 158 159 161 161 163 160 160 160 160 160 160 160 160 159 158 158 158 158 158 157
  18  16  19  37  75  86  73  97  68  50  58  71  69  63  52  44  39  40  32  40  60  80  78  43  36  41  25  27  29  31  31  37  43  45  51  54  52  38  48  82 102 113 120 119 103  68  42  40  41  37  40  50  62  73  76  67  49  34  50  55  56  62  91 115  75 111 153 157 161 122 142 158 159 159 159 160 160 159 159 158 160 160 161 161 159 159 158 158 158 158 157 158
  18  16  20  38  66  35  26  33  46  47  62  69  68  59  47  38  42  34  34  58  80  90  82  46  43  25  26  27  30  33  30  37  46  51  57  57  52  41  46  74  99 120 129 134 134  99  54  42  45  39  40  51  65  73  76  75  58  48  52  60  58  69  98  92  98 152 155 156 157 118 147 157 159 160 159 161 160 158 158 160 160 159 159 159 160 160 159 158 158 160 159 159
  18  17  21  38  48  39  62  73  43  44  64  70  68  58  46  38  32  33  50  71  84  85  76  48  40  26  24  30  33  38  30  36  52  62  66  63  44  39  44  68  95 120 142 146 148 141  86  39  55  48  48  53  57  59  63  68  61  55  61  74  86  94 113 133 149 153 155 156 157 112 151 157 158 159 159 158 159 159 161 160 160 160 159 159 160 160 160 159 159 159 158 158
  16  17  22  40  54  77  79  79  63  42  64  67  62  53  46  39  36  42  64  76  76  77  76  66  47  35  33  36  38  44  40  47  57  67  70  55  49  36  43  64  92 123 149 164 158 150 125  43  51  51  54  52  54  61  66  70  70  72  80  93 107 116 128 139 150 155 155 155 154 109 154 157 159 158 158 159 159 157 158 159 160 159 158 158 159 159 159 159 158 158 158 158
  16  18  23  39  57  83  81  77  74  43  63  70  64  57  50  44  45  51  66  68  68  74  74  72  55  41  37  36  41  43  51  64  69  66  65  42  37  36  46  63  87 111 127 147 146 146 133  70  45  62  54  51  53  58  65  67  71  77  88 101 115 126 136 141 149 154 155 154 146 116 154 157 157 158 158 159 157 157 158 158 159 158 159 159 159 158 158 158 158 157 157 157
  17  19  28  50  75  82  82  77  73  56  59  74  67  60  52  47  47  51  59  59  60  63  64  61  58  54  46  47  48  45  49  58  64  64  62  50  44  37  51  66  83 100 116 126 139 138 130 100  48  59  65  59  57  60  63  65  71  79  91 106 117 129 137 142 146 153 154 154 128 134 156 156 156 157 158 158 159 158 158 158 159 159 157 158 157 157 159 160 158 158 158 158
  18  23  45  46  74  82  80  77  76  72  49  77  70  65  59  61  60  58  55  55  54  55  52  53  52  50  50  51  49  49  51  58  62  63  63  54  51  44  60  70  81  95 109 121 137 141 134 118  65  39  71  71  72  72  73  75  80  86  96 110 120 130 138 141 142 148 153 151 109 151 156 158 157 157 157 156 158 158 158 157 157 157 158 159 158 158 158 157 158 157 157 156
  19  28  44  38  69  78  80  82  81  81  48  78  77  75  75  73  71  66  63  61  60  57  58  56  55  56  57  55  52  53  57  63  65  67  64  60  49  57  66  72  81  91 103 115 128 138 130 121  86  64  47  82  79  79  82  86  89  98 106 115 122 132 139 141 142 146 152 132 124 153 156 156 157 157 156 156 158 157 156 156 158 158 158 156 157 157 157 156 157 156 155 155
  18  31  22  31  62  75  80  82  82  82  64  65  85  85  84  84  82  74  67  65  64  63  63  60  61  61  59  56  57  61  66  68  71  72  67  62  46  68  69  74  83  90 100 113 122 134 131 125 103  77  58  54  91  89  87  90  96 101 108 114 124 131 137 140 141 145 136 113 150 155 155 156 156 158 156 156 156 156 156 157 158 157 156 156 156 154 157 157 156 156 154 155
  19  29  17  28  57  72  77  81  80  82  80  46  86  90  91  89  86  80  75  71  69  68  67  63  61  64  65  67  68  71  71  75  78  78  74  57  53  68  69  75  86  91  99 110 118 131 135 126 117  94  91  61  47  94  98  99 100 105 110 118 125 132 138 139 139 116  98 146 154 156 156 155 154 156 156 155 155 155 156 156 155 156 157 156 155 154 155 156 157 155 154 154
  17  23  24  31  58  76  81  82  83  83  84  66  62  90  92  90  86  82  77  74  72  71  70  67  65  68  71  71  74  76  79  81  81  79  75  48  73  71  69  74  86  90  98 110 115 123 129 126 122 112  98 100  83  52  78 101 104 105 110 115 123 130 129 112  87 111 142 152 154 154 154 155 156 155 155 156 156 156 156 156 155 156 155 156 154 154 156 155 156 154 155 155
  22  23  28  34  68  84  88  87  87  86  87  86  50  80  90  89  86  85  82  81  80  79  79  74  74  76  76  78  79  81  84  83  82  79  56  67  72  71  69  79  90  95 101 107 109 116 124 121 122 120 109 102 105 109  84  62  63  66  77  80  82  81  86 111 130 140 147 152 153 154 154 154 154 155 154 155 155 156 155 156 155 155 156 155 156 154 156 156 155 155 153 155
  50  37  29  35  69  84  88  87  89  89  89  89  76  44  88  92  89  89  87  85  84  83  84  81  80  79  81  82  83  84  83  84  82  62  61  76  73  74  73  81  91  96 102 105 109 113 115 118 120 121 121 104 103 110 115 113 113 111 109 118 120 126 128 131 133 138 146 151 152 153 152 153 154 154 154 153 154 154 155 155 155 154 154 155 156 155 154 153 154 154 154 154
  68  63  34  35  68  84  88  89  89  90  91  93  90  72  52  88  92  92  90  90  88  89  89  87  84  83  84  86  87  87  82  81  57  58  78  76  77  76  73  78  84  91 101 105 108 110 109 111 115 119 122 112 102 105 111 114 115 116 121 122 126 131 133 133 133 136 141 148 151 153 153 153 152 153 152 152 153 153 153 153 154 154 155 154 154 154 153 153 153 154 153 153
  71  67  44  35  67  84  88  88  90  90  92  95  94  91  74  45  75  92  92  93  91  93  91  90  89  88  87  88  88  87  65  46  68  78  77  76  77  74  69  75  82  93 102 104 108 106 106 106 108 116 120 120 102 102 104 108 112 116 117 120 125 129 133 133 133 133 138 147 151 151 151 151 152 153 152 152 152 152 151 153 153 154 154 154 153 153 153 153 154 152 152 152
  67  65  50  33  64  83  88  87  90  90  92  94  96  95  92  83  56  54  78  86  89  90  89  88  89  88  85  79  62  51  63  82  79  78  75  75  73  68  64  75  85  93 102 102 105 105 106 104 102 108 115 122 107  97 100 104 108 111 114 117 122 127 131 133 132 132 136 144 149 150 150 150 150 150 150 152 151 150 151 151 153 153 154 153 153 153 153 153 152 152 150 150
  61  61  54  32  61  82  87  87  87  88  90  92  94  94  93  90  88  84  72  63  62  65  63  61  62  60  64  70  85  89  83  83  80  77  73  71  68  67  70  84  89  92  96 100 102 105 105 102 101 105 109 116 112  95  94  99 101 106 108 114 116 119 126 129 131 130 134 145 149 150 150 149 149 149 149 149 150 149 149 150 152 152 152 152 152 152 152 152 152 152 151 150
  59  62  55  37  56  82  86  85  85  87  87  89  90  90  89  87  89  87  87  86  86  86  87  88  85  89  90  89  88  88  84  82  76  73  70  68  64  72  83  89  89  87  90  95  93  96 101  98  97  99 102 111 110  95  91  94  97 102 107 108 114 117 122 126 128 129 133 141 148 147 147 149 148 147 148 148 148 149 149 150 149 149 151 151 149 150 151 151 151 152 149 150
  69  61  56  42  50  81  84  85  85  85  83  87  88  87  87  86  87  84  85  86  87  87  87  87  87  85  88  88  84  85  81  79  75  72  69  64  66  83  87  85  85  84  83  87  84  81  90  90  89  90  92 100 101  94  88  91  95  98 102 109 112 116 119 121 125 128 132 139 145 145 144 146 146 146 146 147 147 147 148 149 148 149 149 148 148 150 149 148 150 150 147 147
  68  39  61  46  50  77  84  85  84  84  82  83  85  86  84  85  87  85  86  87  89  87  87  85  84  85  86  86  84  82  78  74  72  70  68  62  71  82  83  76  76  76  75  77  79  79  82  81  82  80  80  85  88  96  91  90  93  95  99 106 110 114 116 118 120 122 128 136 143 143 144 145 144 146 147 147 146 146 146 145 146 147 147 147 147 148 149 149 149 148 148 146
  40  32  74  60  49  73  82  83  82  82  82  83  84  83  83  85  86  85  85  87  86  88  88  87  84  85  85  84  81  77  73  73  74  71  68  63  70  78  78  68  62  63  64  67  72  73  72  71  72  70  69  74  77  89  95  91  93  94  96 100 105 109 114 116 114 115 122 134 140 142 142 144 143 144 145 145 144 145 145 145 146 145 145 147 146 146 147 146 146 146 146 147
  40  50  87  70  50  70  79  81  81  80  81  82  82  83  84  85  84  84  87  87  87  88  87  86  84  83  83  80  79  78  76  75  76  74  69  64  68  70  70  61  54  50  52  55  60  61  60  60  61  60  60  66  66  84  98  91  88  91  93  96 100 104 109 112 113 117 122 132 139 141 140 141 141 142 142 143 142 143 143 145 144 145 146 145 145 146 146 146 146 145 146 146
  44  57  86  81  52  68  77  80  80  82  81  80  80  82  83  84  84  83  87  85  88  88  88  87  84  83  83  82  82  80  78  76  74  74  69  65  63  62  59  53  47  40  43  46  49  52  49  49  52  52  53  53  60  93  99  94  89  91  91  94  96  97 104 109 112 117 121 129 137 138 139 139 141 140 140 141 141 142 142 142 143 144 144 144 144 144 145 145 146 144 144 145
  50  57  81  81  56  61  71  76  79  81  82  78  80  82  82  83  83  84  85  85  84  85  85  85  86  85  85  85  84  82  78  75  74  74  69  63  56  54  48  38  29  26  32  39  42  43  43  42  44  48  51  59  83 100 106 103  96  94  94  95  95  96 100 107 111 117 117 127 136 139 138 137 139 139 140 139 139 141 140 141 141 143 142 143 143 143 143 143 144 144 144 144
  56  60  73  81  60  57  66  74  77  79  77  78  79  80  82  81  82  83  82  82  83  85  85  86  88  88  87  84  82  82  78  76  77  74  70  61  52  45  39  30  29  34  38  37  38  39  40  41  45  55  62  72  89 100 109 110 106 101 101 100  97  94  98 104 110 116 115 125 135 138 137 138 139 139 138 139 139 140 140 141 140 143 141 142 142 143 141 143 143 142 144 143
  60  64  74  77  68  54  63  67  75  76  76  76  78  79  78  80  82  80  82  82  84  85  84  84  85  84  84  82  80  80  77  76  78  77  76  70  59  49  40  33  32  36  41  39  38  36  40  47  54  57  62  73  89  98 107 110 111 109 107 105 101  96  96 103 111 115 112 127 134 137 138 136 139 139 139 139 139 140 139 140 140 140 142 142 140 142 143 142 142 143 141 144
  68  74  74  66  69  48  57  63  73  78  73  74  76  75  76  78  80  80  82  83  83  82  83  83  83  81  79  78  76  77  76  78  81  81  78  75  68  62  57  48  43  42  41  43  44  40  41  48  53  57  60  69  87  95 102 107 110 109 108 109 108 101  97 106 113 113 110 129 135 135 135 136 138 138 138 138 139 140 139 139 139 139 141 140 140 141 142 140 141 141 139 139
  83  89  82  77  72  48  55  60  67  75  71  71  73  73  73  74  76  77  80  80  80  80  79  79  81  79  76  75  75  77  80  82  83  83  84  78  73  67  63  56  49  43  40  41  42  42  42  44  48  52  60  65  73  89  98 100 105 107 108 109 110 107 103 106 112 110 107 127 133 134 134 134 136 135 136 136 138 138 139 138 138 139 139 139 139 139 140 140 140 140 140 139
  85  91  86  83  75  47  52  58  64  70  70  70  71  72  73  73  75  78  78  76  75  76  76  75  77  73  72  72  74  78  79  84  86  84  84  81  74  69  64  59  50  43  40  37  39  38  37  38  44  51  58  58  64  79  91  95  99 103 104 107 108 107 106 109 111 109 109 125 132 134 133 133 134 134 136 134 135 135 136 137 137 138 138 138 139 139 139 140 139 138 139 139
  87  88  83  82  77  54  49  57  64  66  71  73  72  70  71  72  75  76  75  75  73  73  74  74  73  66  56  71  75  76  81  85  87  84  85  83  79  71  64  58  52  44  42  34  36  36  36  36  41  50  55  54  65  73  81  84  87  93  96 100 103 106 108 109 111 107 108 125 131 133 132 134 133 134 134 134 134 133 134 135 137 137 136 138 138 138 139 139 139 139 137 137
  90  87  82  83  76  56  43  52  60  62  67  70  71  68  68  70  71  70  72  73  71  71  73  70  70  66  67  72  76  79  83  85  83  84  83  81  76  67  60  55  54  45  42  37  38  38  35  34  40  47  53  53  67  78  76  76  78  82  88  90  99 104 108 110 109 109 107 129 133 133 132 134 132 134 133 134 134 134 134 135 134 134 136 137 138 138 138 138 138 137 137 137
  91  87  83  82  73  54  39  49  56  62  64  67  68  67  65  68  67  68  70  70  70  70  70  68  68  68  71  74  77  80  83  81  82  82  80  71  65  58  58  53  52  45  42  40  38  37  34  34  41  47  54  59  72  80  78  79  74  77  82  83  87 103 110 110 106 105 107 128 132 132 132 132 131 131 132 133 132 134 133 133 133 134 135 136 137 137 136 137 136 136 137 138
  86  84  82  74  63  49  38  45  54  59  60  65  67  68  65  66  66  68  70  69  69  70  70  69  70  72  74  76  79  81  81  76  75  74  72  67  55  53  51  49  52  49  49  47  43  42  38  38  45  52  64  72  74  82  82  82  75  71  73  74  82  98 109 111 102 100 110 127 130 131 131 131 131 131 131 132 132 132 132 132 132 133 134 133 133 134 134 136 136 136 135 138
  81  75  71  62  53  46  58  43  50  55  57  63  62  65  64  67  65  67  69  70  67  69  69  69  71  72  74  76  75  74  74  70  65  64  67  64  56  56  52  51  56  56  59  60  55  53  50  47  53  59  67  73  72  76  84  80  72  60  58  65  81  95 107 110 102  96 110 127 130 130 130 130 130 131 130 131 132 131 132 133 133 134 134 133 132 133 134 133 134 133 135 136
  96  68  56  53  61 106  93  42  49  53  58  63  62  63  61  64  66  68  69  67  64  68  70  70  71  71  74  74  74  68  65  62  61  57  61  65  59  60  60  57  61  61  62  64  64  64  61  56  60  59  56  54  55  60  66  70  59  45  51  62  79  94 105 105 100  90 112 128 129 130 129 129 129 130 130 129 130 131 131 131 131 133 132 133 133 133 133 133 133 134 135 134
 129 122 114 118 125 126 111  45  51  56  58  63  62  63  61  64  65  67  69  65  62  67  68  69  69  71  74  72  70  59  55  56  52  52  56  64  63  63  60  57  57  54  50  48  50  54  57  55  51  46  42  42  42  44  46  46  41  46  58  67  78  91 101 100  96  85 116 126 128 129 131 127 127 128 128 129 130 130 130 129 129 128 130 132 131 133 132 132 132 132 132 135
 130 130 129 127 128 128 124  72  49  53  54  58  62  58  60  63  66  67  68  64  63  65  70  70  71  70  72  66  61  54  48  52  51  48  51  60  62  59  52  48  45  40  39  37  35  37  38  39  36  34  35  32  29  31  43  49  63  69  72  75  81  89  96  92  87  89 119 125 126 127 129 129 128 126 126 128 128 129 128 128 128 127 128 129 129 130 131 132 131 132 133 132
 131 130 129 128 128 128 125 102  48  50  57  58  59  55  58  61  64  64  68  66  66  70  69  70  71  72  69  63  52  46  43  46  45  45  46  50  50  46  39  36  34  33  32  32  30  30  28  27  29  28  27  29  32  47  62  68  79  82  81  83  83  86  91  87  82  87 119 124 126 126 126 127 126 125 124 126 126 127 129 127 125 126 129 129 130 129 130 130 131 132 130 130
 130 130 129 128 125 125 124 120  46  46  50  55  60  58  62  63  61  63  65  63  67  70  70  72  72  73  68  59  47  44  42  41  36  36  37  37  33  30  25  23  22  20  21  21  22  22  21  24  30  38  44  48  55  69  78  83  87  89  88  87  86  89  90  84  79  87 121 124 124 125 124 124 124 125 124 124 125 126 126 126 126 127 126 127 128 127 127 128 128 128 129 127
 129 129 127 127 126 124 123 120  68  41  46  55  56  56  62  64  62  62  62  64  67  68  69  72  72  72  68  59  53  46  41  38  31  26  24  23  23  23  23  23  27  27  30  34  34  38  39  41  50  55  56  61  70  76  77  85  90  91  89  87  89  90  92  82  72 101 122 124 124 124 124 123 124 123 123 124 124 125 124 124 124 125 125 125 125 126 126 128 128 127 130 128
 127 126 126 125 125 124 124 121 108  47  42  47  57  54  55  60  62  59  56  61  64  64  64  71  73  70  67  61  54  48  47  46  44  43  39  34  34  37  41  44  49  53  54  58  59  58  59  60  60  60  60  63  64  66  74  79  88  89  89  88  90  92  92  80  62 111 121 124 123 124 124 123 123 122 124 124 124 124 125 125 125 125 125 126 127 126 126 127 128 126 126 127
 126 125 124 125 126 124 123 121 116  68  42  45  50  51  54  56  57  56  55  58  61  62  64  70  74  71  67  62  54  52  55  58  59  59  55  52  52  52  51  49  51  54  58  60  63  60  60  59  56  55  53  53  55  61  70  77  84  88  87  86  88  91  89  74  65 117 118 119 119 122 123 121 120 120 122 122 123 122 123 124 124 125 125 125 126 126 127 125 125 125 125 126
 125 125 124 123 123 122 121 120 117 100  50  43  44  46  52  54  55  58  57  55  56  57  61  65  70  71  69  65  58  60  61  65  67  66  63  60  56  58  56  53  51  48  48  48  52  51  50  52  53  51  48  49  52  59  68  76  83  85  85  87  90  91  84  62  77 116 118 118 117 119 117 119 118 118 118 119 119 119 119 122 123 123 122 122 124 124 124 124 124 125 125 125
 125 124 123 123 122 121 119 118 117 111  63  38  40  38  44  48  52  57  56  56  51  55  57  57  66  70  70  66  63  64  66  66  69  70  68  65  61  56  53  51  50  46  43  43  43  45  45  46  49  47  43  47  52  61  68  74  82  83  85  89  93  92  80  55  92 116 118 118 117 118 116 118 117 118 118 119 119 120 122 121 124 123 123 123 124 123 124 124 124 125 125 125
 124 123 122 120 120 119 119 118 117 114  82  44  35  37  43  44  45  46  53  54  51  58  59  56  64  69  69  67  66  65  67  68  67  67  66  65  61  58  55  50  48  44  43  42  40  39  40  40  42  41  39  44  49  54  63  72  79  84  86  90  93  91  72  58 100 115 117 117 117 117 118 117 117 118 119 119 119 119 121 123 122 123 123 121 124 123 123 124 125 124 124 124
 122 122 120 120 119 118 118 117 117 115  89  57  36  34  41  41  41  42  48  50  51  57  57  58  63  64  65  65  65  64  65  65  66  66  64  64  62  60  56  52  50  47  43  41  37  34  34  34  32  33  36  42  48  55  65  73  82  87  90  93  90  84  64  76 111 116 115 116 118 117 117 117 117 118 118 118 118 119 119 119 121 120 121 120 120 121 122 123 123 122 123 122
 119 121 119 118 118 117 117 115 115 114  97  68  50  31  34  36  39  44  42  42  48  53  55  55  59  62  63  63  64  64  63  63  64  64  64  63  64  63  59  55  52  48  45  38  32  30  31  32  30  30  35  40  49  58  69  76  83  90  92  95  91  81  58  94 114 115 117 116 118 117 116 117 116 117 117 116 117 116 117 118 117 116 117 118 118 118 118 119 118 119 121 120
 121 119 118 118 117 116 115 114 115 111 103  72  60  38  30  31  31  34  34  35  42  46  48  53  58  61  62  62  62  62  62  62  62  61  61  61  61  62  62  58  55  50  42  38  34  34  34  32  30  30  40  49  58  65  72  78  86  90  95  96  89  70  61  98 110 113 114 113 112 114 115 114 113 114 115 116 115 115 116 116 116 116 118 117 118 117 117 117 118 118 119 119
 118 116 117 116 117 116 115 112 113 111 104  75  65  48  30  28  31  31  30  34  41  43  48  50  54  58  59  61  61  62  62  62  63  62  62  60  60  58  58  56  55  51  44  42  42  40  41  42  40  52  66  75  80  83  83  87  89  93  96  92  85  60  60  82  90  97 101 104 106 110 110 111 111 111 115 112 112 113 114 115 116 118 117 117 118 117 117 117 118 118 119 119
 116 114 116 115 114 113 111 109 110 109 104  76  67  58  46  27  27  27  26  28  31  38  43  47  52  57  60  58  55  58  57  59  62  63  62  61  59  57  56  58  55  54  51  52  55  56  60  65  67  71  78  85  87  90  93  94  94  94  91  83  74  47  56  70  75  79  81  80  81  87  88  93 101 106 110 111 113 114 113 115 114 116 117 117 115 117 116 116 118 117 117 117
 115 115 113 111 112 112 109 108 109 108 105  81  67  62  52  35  22  23  24  24  28  31  33  38  44  49  54  54  53  52  53  57  63  63  62  61  58  58  61  62  60  64  67  68  69  72  73  75  76  80  82  88  92  95  96  95  95  91  88  77  56  30  22  34  64  73  75  76  77  72  72  71  78  82  86  91  97 100 105 109 111 114 116 116 116 117 118 117 116 118 117 117
 115 113 112 110 111 110 109 108 105 104 100  80  65  64  57  48  34  23  23  25  25  25  31  35  40  44  45  46  47  48  52  57  61  63  65  65  62  62  61  57  62  68  72  73  72  73  76  78  78  80  81  86  92  95  95  96  92  88  80  65  42  23  15  18  24  53  74  74  75  80  78  72  71  72  73  76  77  77  83  87  89  95 101 102 104 106 111 112 113 114 114 115
 111 111 110 111 109 108 103  96  87  73  55  61  65  62  59  55  46  34  23  21  25  25  28  28  31  33  32  43  47  49  51  56  62  62  66  69  65  64  64  63  67  70  73  73  73  71  76  76  74  77  78  82  87  91  92  91  88  85  74  52  32  15  12  13  16  17  53  69  71  77  80  78  74  74  68  69  69  68  73  72  74  74  76  80  82  87  89  89  92  94  96  98
 110 109 107 105  99  81  65  54  48  41  30  40  62  60  59  56  52  43  30  21  19  21  22  24  24  26  31  39  46  49  48  53  57  59  66  68  66  67  67  69  70  69  70  71  72  71  71  73  72  74  75  77  80  86  88  87  82  73  60  47  31  15  12  12  12  14  22  59  66  74  76  78  75  75  72  71  69  67  68  69  70  69  68  67  71  76  79  79  78  78  78  76
 105  97  89  69  53  48  41  41  37  21  12  25  61  59  58  56  54  49  39  30  24  19  19  18  21  24  25  30  36  42  43  52  50  54  61  64  65  67  66  70  70  70  68  68  67  68  66  68  68  68  71  75  75  79  80  79  73  57  48  47  46  26  17  13  12  13  15  36  67  70  72  72  72  77  73  75  72  70  68  65  67  69  69  67  68  69  69  68  70  67  66  66
  64  56  50  46  44  38  35  33  18   8   7  14  59  59  58  57  55  52  48  38  30  23  19  19  18  21  24  29  31  34  37  46  46  48  55  59  60  62  66  67  67  68  67  65  63  65  64  63  64  67  70  71  72  74  73  68  62  48  43  49  74  44  27  19  14  14  14  17  55  68  66  72  73  70  71  66  69  71  68  67  67  66  67  65  64  66  66  68  66  67  64  65
  45  42  44  42  37  33  32  28   8   7   7  13  58  58  58  57  58  54  50  46  40  30  23  19  16  17  21  24  24  26  35  45  43  44  47  50  55  59  64  63  64  66  63  62  62  62  61  63  62  62  63  66  69  71  66  57  50  41  39  72  90  62  42  30  20  17  15  13  40  66  66  70  72  69  69  69  70  69  66  64  64  64  66  66  67  66  64  66  64  63  63  64
  40  43  37  36  32  32  32  21   7   8  10  22  56  57  58  57  55  55  53  50  45  39  29  20  18  16  15  16  19  25  32  38  40  40  43  45  49  50  55  54  60  59  59  59  56  57  56  58  56  55  56  58  62  62  55  49  42  38  48  95  98  79  56  43  28  20  17  16  34  63  63  67  68  71  68  66  66  68  66  62  63  61  64  64  66  66  63  62  63  62  64  61
  42  39  36  31  29  32  32  14   8  11  18  35  57  58  59  58  55  55  54  54  50  48  39  29  22  18  15  16  17  19  25  33  34  40  42  40  40  42  48  46  51  56  55  53  52  53  51  52  53  53  52  52  54  50  40  36  35  39  75 101 102  88  64  54  39  24  17  14  33  58  58  62  66  70  69  66  65  65  64  64  63  62  64  62  61  63  62  63  61  62  62  63
  43  37  35  29  29  30  31  11  10  16  28  49  59  58  59  57  56  54  55  54  53  50  46  39  30  23  15  16  15  15  18  23  29  37  36  35  34  36  42  41  45  49  50  50  49  48  44  44  48  47  46  43  43  37  29  27  30  61  93 105 105  93  68  59  48  29  19  16  34  56  57  60  64  66  66  65  63  62  61  62  59  59  61  59  60  62  61  60  58  60  59  59
  41  34  34  29  28  31  30  10  15  26  39  57  60  60  58  58  58  55  55  56  55  53  50  44  36  29  21  16  15  13  12  16  23  28  29  29  29  29  34  33  37  40  41  42  44  43  39  40  40  40  39  36  32  28  25  31  58  90  98 102 104  96  70  60  56  38  21  16  41  55  55  58  63  64  66  65  61  61  60  61  59  59  58  57  58  60  60  61  60  57  58  59
  36  33  32  29  29  32  28  12  22  32  49  59  61  60  59  60  59  58  56  54  54  53  51  48  43  34  28  24  19  15  13  14  18  19  21  24  26  24  26  28  31  33  34  34  35  36  34  34  33  32  29  24  23  25  32  65  87  96  99 103 102  96  73  60  58  46  25  18  45  54  53  58  61  65  65  63  62  64  64  60  59  58  57  58  60  61  61  61  60  59  59  58
