P2
# Generated by OpenCV 3.4.0
92 112
255
 141 140 141 140 141 142 142 142 143 143 143 145 145 144 146 146 146 146 146 147 146 146 146 146 143 143 144 144 142 135 134 135 134 115 109  68  48  43  51  66  95  63  58  83 102 102  69  69  51  54  51  46  49  64  97  98 116 131 122 114 118  92 100 127 125 122 131 140 144 136 124 126 139 150 151 151 152 152 151 151 152 152 152 152 151 151 152 152 152 152 152 152
 142 141 141 142 140 142 143 143 144 144 145 146 145 144 146 146 147 146 146 146 146 146 146 146 146 142 142 143 138 131 125 109  97  90  64  41  36  72 102  52  55  44  44  72  84  84  64  77  51  43  42  40  42  52  60  73 111 112  97 111 108  98  88 124 126 109 118 132 136 133 112 107 134 147 152 152 152 152 152 151 152 152 153 153 152 152 153 152 153 152 152 151
 141 140 141 141 142 143 144 144 144 145 145 146 146 147 147 147 147 146 147 146 145 146 147 146 146 143 130 128 122 110 104  82  62  47  38  31  38  76  85  61  38  30  35  66  75  71  49  54  45  34  32  36  35  42  48  53  73  74  88 106 102  93  90 107 127 118 100 114 122 127 103  94 125 137 146 152 152 154 152 153 152 152 153 153 153 152 152 153 153 152 151 151
 139 140 142 142 144 143 143 143 144 144 144 147 147 147 146 148 147 144 146 146 141 143 144 143 140 134 130 109  99  85  71  52  47  35  30  30  31  37  39  40  30  25  25  37  63  51  37  40  32  29  30  32  32  35  36  46  60  69  64  80  80  80  87  98 128 113  87  98 106 124  84  84 109 122 137 149 148 152 152 152 154 153 153 154 153 152 152 153 154 152 152 153
 142 142 143 142 143 145 144 145 145 144 145 146 147 148 148 148 148 147 145 145 141 139 142 137 132 101  93  79  68  56  54  44  33  30  29  28  30  31  31  30  27  24  21  26  33  27  28  29  27  30  31  31  29  29  30  32  40  56  60  54  62  76  77  85 103  86  75  94 112 114  81  87  85 105 127 138 142 151 148 152 154 153 153 153 153 153 152 152 152 153 154 153
 143 144 144 144 144 145 146 145 144 145 145 146 146 148 149 149 146 145 143 139 131 120 114 115 100  73  44  39  41  36  34  31  29  29  29  29  30  31  29  26  25  22  16  16  22  21  25  25  27  30  29  27  25  25  27  29  32  39  43  41  50  64  77  63  75  72  66 103 114  97  68  74  79 119 122 117 139 139 148 152 153 152 152 154 154 153 154 153 153 154 154 153
 143 144 145 144 145 146 146 145 145 146 146 147 148 149 149 148 148 144 134 116  88  80  63  50  50  45  34  34  34  31  29  28  26  26  28  29  30  28  25  22  22  24  19  18  17  21  24  26  29  28  27  24  22  24  23  24  26  30  33  36  40  51  39  45  54  55  62 102  89  67  57  71  76 123 114 110 126 136 146 153 153 153 153 154 152 153 153 154 153 152 153 154
 144 144 145 144 144 145 146 144 145 146 148 147 147 147 148 148 144 140 129 110  89  63  46  44  40  33  33  33  30  28  27  25  22  25  27  30  28  24  22  21  18  17  18  17  18  22  26  27  27  23  20  20  18  19  20  23  25  28  29  30  32  36  38  46  59  57  60  77  62  56  55  61  79 113 107  96 124 130 144 149 152 152 152 154 154 154 153 154 153 153 153 152
 145 146 145 144 145 146 146 146 145 146 147 149 147 147 148 148 146 140 131 120  92  59  41  38  37  32  32  31  27  25  24  25  26  28  27  29  23  16  19  18  18  19  19  19  19  23  25  23  20  17  18  18  15  16  19  22  25  26  26  30  35  37  38  41  46  51  50  59  50  48  49  62  85  93  94  91 107 126 132 143 152 151 154 154 154 154 153 153 155 153 153 154
 146 146 146 145 145 146 146 145 144 145 147 148 147 148 149 148 145 142 131 121  80  51  41  35  34  30  30  28  25  24  23  25  24  18  22  23  20  15  18  17  18  18  16  21  21  22  19  16  17  16  15  16  16  17  18  20  26  26  30  35  40  39  39  41  44  44  46  44  40  43  46  58  66  77  87  86 107 113 117 136 150 152 153 154 156 155 153 154 154 154 154 153
 145 146 145 146 146 147 147 147 147 146 146 148 148 149 148 147 145 137 131 102  62  49  39  34  29  29  25  23  23  20  19  20  20  20  23  21  17  15  16  14  15  16  16  19  19  17  17  16  14  12  14  16  17  19  22  24  26  28  29  30  30  31  33  36  37  38  37  37  40  39  42  50  59  68  72  84  97  94 100 124 142 151 152 153 154 155 155 154 154 155 153 154
 146 147 146 147 146 148 147 147 149 149 148 149 148 149 149 146 140 140 127  85  53  40  34  29  26  25  26  27  25  19  20  21  20  20  20  19  19  18  16  16  16  16  17  18  17  14  13  12  13  13  14  15  16  19  22  26  28  29  32  32  33  34  35  35  36  38  38  37  37  36  39  44  57  69  70  89  98  89  90 104 135 146 149 154 154 154 154 154 155 154 153 154
 147 147 146 147 148 147 147 147 148 148 148 149 149 149 148 147 142 130 104  57  42  33  30  28  29  29  30  29  25  24  26  25  24  18  22  26  22  24  26  22  19  15  15  15  13  13  13  13  12  13  14  16  16  19  22  23  27  26  27  27  28  30  30  32  32  36  37  38  38  39  37  41  51  53  64  89  95  84  83 103 130 139 146 154 155 155 156 154 155 154 154 156
 145 147 146 147 147 148 147 146 147 146 149 147 148 148 148 146 140 114  75  44  35  35  34  35  32  26  28  23  18  16  16  17  22  22  24  27  28  25  27  27  20  16  15  14  13  13  12  12  14  15  14  16  18  18  21  24  27  29  30  29  26  25  25  28  30  29  31  34  36  37  36  38  44  51  64  84  81  64  78  98 123 130 146 153 155 154 153 153 154 153 153 155
 146 148 148 147 147 147 147 148 147 147 149 149 149 148 146 144 134  92  45  37  37  36  35  32  28  25  26  18  15  14  13  15  16  18  21  25  29  25  26  30  26  18  17  16  14  15  15  14  17  17  18  19  18  20  22  23  22  23  23  26  25  24  24  22  25  27  26  29  33  32  32  34  38  45  55  56  60  62  78  90 114 130 142 154 154 154 154 154 154 153 153 154
 146 147 147 148 147 148 148 148 148 148 147 148 150 148 146 144 115  47  37  37  34  33  30  28  25  20  17  14  13  13  15  14  15  16  18  21  21  25  25  32  30  27  25  20  16  16  18  18  18  18  19  21  22  24  25  25  24  21  20  18  21  22  24  23  23  24  25  26  28  29  31  32  36  40  46  51  51  58  75  81 111 127 137 151 155 155 156 154 153 153 155 154
 146 146 147 147 147 148 148 148 149 149 149 150 150 149 147 137  66  40  36  35  32  32  30  24  20  17  14  13  12  13  13  13  15  16  16  18  21  24  25  26  30  32  33  29  20  18  19  19  19  19  21  22  23  25  25  26  26  25  24  22  19  19  18  20  21  25  24  24  25  28  28  29  32  36  41  44  46  57  62  93 114 112 127 149 154 156 155 155 155 154 154 154
 146 148 148 148 148 147 148 147 147 148 149 150 150 149 145  92  39  36  35  33  30  31  27  20  17  15  14  14  15  15  15  15  16  17  17  19  23  25  26  27  28  30  31  30  29  21  19  20  21  23  21  21  22  23  24  25  27  26  25  25  21  22  20  21  21  24  25  26  26  28  29  29  30  31  33  35  40  48  75 104  97  93 120 145 150 154 155 154 155 155 155 154
 146 147 149 147 147 148 147 147 148 148 149 149 149 145 121  46  38  36  33  30  30  29  22  18  15  15  16  15  16  16  17  19  19  21  22  25  25  26  27  28  28  28  29  30  32  28  22  22  22  24  24  23  20  20  22  24  25  27  27  24  24  26  23  23  20  21  24  25  23  23  25  25  27  29  30  31  38  57  82  70  81  82 116 132 145 153 154 154 154 154 154 153
 148 148 148 147 149 147 148 148 150 149 149 149 147 140  94  37  36  33  30  30  28  27  21  20  16  16  16  17  20  23  25  28  28  29  32  32  33  31  32  32  28  29  29  29  31  29  24  23  24  26  26  28  26  25  23  24  25  26  27  25  24  26  25  22  22  19  21  26  23  22  21  21  22  26  30  33  42  54  54  56  68  70 101 128 149 153 153 154 155 154 154 154
 146 147 147 148 147 148 149 149 149 148 148 148 146 136  61  38  35  31  29  28  23  22  18  18  15  16  19  24  28  32  36  39  38  40  40  41  40  39  39  37  34  31  31  29  29  29  27  24  24  28  31  30  30  30  29  26  27  25  24  26  25  25  26  22  22  21  20  26  27  24  21  22  24  24  26  27  33  41  45  47  54  87 122 141 151 154 154 154 155 155 152 152
 148 147 149 147 148 149 149 149 148 149 148 149 145 113  53  35  32  26  28  25  23  21  17  16  17  20  31  38  41  46  47  48  49  48  48  48  46  45  45  44  40  36  34  34  32  30  30  26  23  27  35  37  35  34  31  31  32  29  26  25  24  26  25  24  23  21  22  25  29  26  20  20  21  21  24  24  28  33  43  57  85 118 133 144 151 154 154 155 155 155 154 152
 148 147 147 148 149 149 149 150 148 149 149 149 143  89  38  30  31  29  26  23  20  16  16  18  22  33  44  47  52  58  61  60  59  58  57  56  54  52  51  50  48  44  40  40  38  36  34  31  27  26  37  45  45  44  42  41  41  39  32  28  24  25  28  27  26  24  23  25  28  28  24  23  23  26  25  25  30  41  61  89 117 126 138 145 152 154 155 156 154 155 153 152
 148 148 149 148 148 149 149 150 149 149 148 144 109  50  31  29  30  30  23  21  16  15  17  22  33  45  53  57  64  70  68  67  68  67  66  64  63  61  60  57  55  51  48  46  45  42  39  38  28  25  31  43  50  53  53  52  52  49  46  38  30  26  27  29  28  26  25  27  29  29  28  24  24  25  27  34  49  68  91 107 122 134 146 150 152 155 155 154 154 154 154 152
 148 147 149 149 149 147 148 148 148 149 146 133  71  40  30  29  29  28  19  16  15  17  23  32  45  56  63  66  71  76  76  74  74  74  75  70  70  68  66  65  62  59  54  53  51  47  47  46  36  28  31  43  55  61  61  61  61  63  61  53  42  33  28  27  26  25  26  26  30  30  30  28  28  31  38  49  60  84 114 128 134 141 150 153 155 155 155 154 155 154 154 154
 149 149 148 149 149 149 149 150 149 149 147 123  74  36  28  29  32  24  17  15  16  21  29  43  56  67  71  74  78  78  79  79  79  79  80  80  77  74  72  72  70  66  62  60  55  52  51  51  47  33  34  49  57  66  69  69  70  74  78  71  62  48  36  30  25  24  24  22  26  32  32  27  30  34  42  65 100 113 129 138 138 146 151 152 154 156 154 156 154 153 153 153
 148 149 149 149 149 150 149 150 150 149 148 135  69  33  27  30  31  21  16  16  19  27  39  55  66  76  78  79  82  80  82  83  83  84  83  84  83  81  78  77  76  72  68  68  65  60  56  55  55  49  43  56  62  70  75  76  76  80  89  93  85  72  56  41  33  27  22  21  25  27  32  32  27  30  37  60  94 125 139 144 146 151 152 152 154 155 154 154 155 154 154 154
 149 149 149 149 149 150 150 150 149 149 147 138  61  31  29  30  27  21  18  18  22  35  50  64  74  80  81  82  82  83  87  88  88  88  88  87  87  84  82  81  81  77  76  74  72  70  66  60  62  61  56  66  75  79  82  84  84  86  94 103 104  95  82  67  52  38  25  20  22  25  26  29  30  26  31  50  74 101 117 131 141 150 152 153 154 155 154 155 155 153 153 153
 147 148 149 149 151 150 150 150 150 147 146 132  48  32  30  29  26  21  19  21  30  45  58  71  81  84  85  87  83  86  89  90  90  90  91  90  90  90  87  85  85  82  81  81  80  77  72  70  68  70  71  79  87  90  91  91  93  95  98 106 112 110 103  92  78  61  39  25  23  23  24  25  27  28  33  58 102 112 118 129 144 152 153 154 155 155 156 154 155 154 152 152
 149 149 150 149 150 150 151 151 151 149 145 105  39  33  28  31  25  20  19  24  40  56  66  79  85  87  87  88  89  92  93  94  95  94  94  94  93  94  91  92  90  86  86  87  87  87  87  84  81  82  83  90  96 101 102 103 105 105 110 114 118 117 115 110 100  89  64  34  26  25  24  26  27  29  34  48  91 119 134 148 150 154 155 154 154 154 155 154 154 155 153 154
 148 150 150 149 150 150 151 151 150 149 140  71  40  34  27  30  23  22  21  33  50  65  74  86  88  87  88  91  93  96  96  99  98  98  97  96  95  96  96  95  94  93  91  94  96  96  97  98  96  96  99 103 107 109 111 112 114 116 117 120 122 122 120 118 115 108  95  57  33  29  24  26  28  32  34  49  83 127 141 148 153 154 154 154 155 154 153 155 155 156 154 154
 150 150 149 149 150 150 151 150 149 147 124  54  38  31  25  29  24  22  28  44  60  71  79  89  90  92  91  94  97  97  98  98  98 100  99  99  98 100 100  99  97  97  98  98 100 104 104 105 103 103 107 111 114 115 116 119 120 120 120 123 128 128 126 124 122 117 110  83  47  35  26  24  30  34  37  48  83 123 146 151 153 154 154 156 157 155 155 155 156 156 155 155
 149 150 150 150 152 151 149 149 147 137  76  48  36  28  25  28  24  24  36  53  68  78  85  90  93  95  93  96  98  98  99 101 100 103 103 102 100 102 103 103 103 102  99 103 104 109 107 107 106 105 110 114 118 120 124 125 126 127 125 126 128 130 132 129 126 122 117 105  70  47  32  23  28  38  41  51  91 128 146 153 153 153 154 155 155 156 155 155 154 155 155 155
 149 149 151 151 150 151 151 152 148 119  50  37  32  24  25  27  26  28  45  63  76  82  88  94  96  96  97  99 100 101 101 103 104 104 104 104 103 104 105 107 102 105 102 106 108 111 110 109 109 108 108 112 121 124 128 130 131 131 129 127 129 130 132 131 130 127 124 114  91  63  40  24  25  38  47  49  96 138 150 154 155 156 155 155 155 157 156 156 156 155 154 154
 151 150 151 150 151 151 152 151 146  75  44  33  30  24  24  27  27  34  54  70  81  86  91  96  96  98  99  99 102 102 103 102 104 106 107 107 106 106 107 109 109 107 102 108 109 111 111 109 109 112 111 115 124 130 131 133 134 134 132 133 132 131 132 133 133 129 127 120 106  78  53  27  26  34  47  50  89 136 152 156 156 157 156 156 156 157 156 156 155 155 154 155
 151 150 151 151 151 152 152 151 121  52  36  31  28  23  26  24  27  40  62  77  82  88  93  95  96  97  98  97  98 100 100 100 102 105 108 110 110 108 110 111 110 103 103 110 111 114 112 107 108 112 114 119 124 128 126 130 131 131 131 131 132 133 132 132 133 132 128 124 115  91  63  33  28  36  46  49  84 132 146 156 157 155 155 156 155 155 156 156 156 156 154 155
 150 150 151 151 152 151 149 145 107  49  38  32  26  25  25  26  32  49  72  82  87  91  93  92  95  96  97  96  96  98  97  97 100 103 105 110 111 110 110 110 111  97  98 110 112 110 110 100 105 112 115 118 126 127 126 127 127 127 127 126 129 131 130 131 133 133 131 126 117 101  71  44  32  39  42  42  76 129 148 152 155 154 156 156 155 156 156 156 156 155 155 156
 151 150 151 151 152 152 150 146  91  42  37  30  27  27  27  29  40  60  79  86  89  91  93  93  96  97  95  94  96  96  97  97  99 103 105 109 108 106 104 107 105  90  95 107 111 108 105  95 103 108 110 114 124 126 125 123 127 126 123 124 125 127 127 131 131 132 130 127 120 105  71  49  35  40  45  42  62 122 149 154 154 156 157 158 156 156 156 156 157 155 155 157
 153 152 152 150 153 152 152 143  71  42  36  30  29  29  30  34  51  72  84  88  90  93  97  97  97  98 100  99  98  98  97  96  97 101 101 101  99  98  98 100  96  82  88 105 105 102  94  89  96 100 102 107 114 118 119 116 119 120 120 123 126 127 127 130 132 129 129 127 124 112  84  52  38  37  42  44  55 125 152 156 156 157 157 157 156 155 156 156 156 154 156 157
 152 153 152 152 154 152 151 140  65  38  33  27  29  29  30  40  62  80  87  89  91  95  97  97  96  96  97  94  90  82  69  67  69  74  80  75  85  85  86  90  87  74  84  98 100  92  86  81  80  86  87  91  96  99  98 100 109 111 108 110 115 119 122 129 133 130 128 127 124 116  89  61  43  34  36  43  55 125 151 156 157 157 156 157 158 157 156 157 157 155 156 157
 152 152 152 153 152 152 151 140  55  37  32  28  28  29  30  46  68  83  88  91  94  94  90  80  78  76  76  62  48  42  40  35  35  41  46  49  55  62  70  74  75  68  79  90  90  86  72  59  63  63  66  63  70  62  62  60  68  78  85  84  86  91  98 110 125 130 129 127 125 120  94  63  48  34  35  41  54 134 154 157 158 157 157 158 159 157 157 158 156 156 156 156
 152 152 152 153 153 152 150 129  56  35  30  29  28  27  32  52  76  87  88  91  89  75  60  56  56  56  50  40  34  28  27  27  28  29  31  33  37  43  51  57  61  60  74  84  84  75  56  40  48  44  44  43  44  38  39  38  38  41  45  57  61  66  69  77  84 106 125 125 123 120 102  62  47  37  33  41  48 127 153 155 157 158 157 157 158 158 157 156 156 156 157 157
 152 152 152 153 153 153 151 132  62  36  29  29  27  26  33  63  84  89  89  84  65  53  48  49  51  42  36  30  25  26  22  25  25  25  26  28  30  33  37  46  50  54  68  80  78  64  44  34  36  34  33  32  31  27  34  46  47  47  55  48  43  40  41  41  42  39  53  72  85 115 108  63  41  39  33  37  49 127 154 156 157 156 157 158 158 157 157 156 157 156 157 157
 153 153 153 153 153 154 152 133  77  40  29  29  27  26  37  74  88  87  75  51  49  46  45  46  45  46  47  52  50  50  48  47  28  24  25  25  26  29  32  39  45  46  68  79  74  54  40  30  30  29  30  26  42  43  39  24  28  28  28  30  32  36  40  44  47  51  48  46  42  40  71  64  38  38  33  37  46 129 154 156 158 158 158 158 157 157 157 157 157 158 157 157
 153 152 153 153 154 153 150 144  98  43  30  28  29  24  42  76  66  46  44  41  38  38  39  38  35  34  33  34  33  31  28  28  42  49  48  33  21  27  31  37  44  51  70  79  73  54  39  27  28  38  49  52  30  27  27  26  27  29  28  30  33  34  38  43  42  43  47  54  74  78  40  43  38  35  33  37  46 128 154 156 157 157 158 158 159 158 157 157 158 158 158 158
 153 153 153 153 151 151 152 148 114  45  32  29  25  26  51  44  44  68  56  43  36  33  32  33  36  37  39  40  42  34  32  32  34  31  32  62  76  71  75  65  57  61  73  74  70  56  66  84  80  64  42  30  29  27  26  26  27  28  30  34  36  38  38  39  40  43  46  51  57  93  91  47  39  42  37  37  52 135 155 158 157 158 157 157 159 158 158 158 158 157 157 157
 151 152 153 153 154 152 153 150 132  46  34  29  28  45  37  40  84  70  47  36  37  36  38  50  58  59  61  55  48  40  37  36  36  36  35  35  51  61  55  46  44  40  39  34  35  34  40  49  55  45  35  35  35  34  31  31  31  34  36  38  41  44  44  47  53  56  54  55  60  81  93  50  40  41  50  50  71 145 154 155 157 158 157 158 159 159 158 156 158 156 156 157
 151 152 153 153 152 152 153 152 133  63  37  36  48  37  36  32  86  56  46  42  44  48  52  56  59  54  51  47  44  40  38  37  36  37  38  38  38  49  39  43  53  61  66  70  63  64  56  45  42  39  40  37  37  37  35  35  37  38  39  41  46  49  53  60  66  71  71  67  69  81 105  47  43  40  66  54 168 153 156 156 156 157 158 159 158 157 157 156 157 156 155 156
 152 152 154 152 152 152 152 146 134  83  56  59  47  39  29  39  83  51  51  52  56  60  60  57  59  60  56  53  45  40  37  34  35  36  37  38  39  39  45  52  58  62  68  74  72  71  67  60  46  44  40  38  36  35  33  33  35  37  40  45  49  52  58  68  76  80  78  74  76  88 112  58  44  39  39  42  50 150 156 156 157 157 157 157 158 157 156 156 157 156 156 157
 152 153 153 153 152 152 149 147 113  70  59  57  44  41  30  43  81  62  59  59  63  63  61  60  60  57  56  51  38  37  36  34  34  34  36  38  39  39  42  49  57  75  93 102 100  87  74  55  40  45  38  37  34  32  32  33  34  38  46  52  59  57  58  64  77  84  88  83  85  99 113  69  46  43  44  52 117 152 155 156 157 157 158 157 157 157 156 156 156 158 156 157
 152 152 152 152 152 152 150 150  89  37  39  41  44  42  32  50  81  67  64  64  66  64  60  61  61  45  38  32  28  30  31  31  33  33  35  38  39  40  38  45  70  99 107 109 107 101  89  49  42  43  37  33  32  31  31  32  33  35  41  42  44  50  64  75  79  80  91  90  92 106 120  76  47  46  46  58 143 153 155 156 156 156 157 156 157 157 156 155 157 156 155 156
 151 151 151 152 152 152 152 151 143  88  40  35  46  44  36  62  79  69  66  66  64  59  61  53  32  29  26  27  23  25  26  31  29  32  36  40  43  43  39  44  71  95 115 124 120 104  86  52  43  44  36  33  33  31  30  29  27  26  27  25  25  26  32  50  72  79  80  88  90 106 122  89  47  48  47  72 146 154 155 156 156 155 156 157 156 156 156 156 157 156 156 155
 151 152 150 151 151 152 151 151 149 140  52  32  50  49  36  69  82  69  68  66  54  58  41  34  31  26  26  26  25  28  27  39  38  31  33  40  46  46  39  46  70 108 130 135 141 133  92  54  42  43  37  35  32  29  30  37  28  26  26  22  22  29  34  31  37  58  73  81  86 100 118  90  51  50  55  92 144 154 156 157 157 156 156 156 156 157 156 156 156 156 156 155
 150 150 151 151 151 151 151 151 149 142  65  32  45  45  37  75  83  73  70  62  51  37  34  41  47  35  27  26  24  28  31  44  44  34  32  41  51  48  36  45  80 119 138 146 150 145 118  58  40  45  45  36  28  29  37  44  32  27  26  20  22  26  36  43  40  38  58  73  87  97 104  88  53  51  47 104 147 151 155 156 155 156 156 156 156 157 156 156 156 155 155 156
 149 150 151 151 151 151 151 151 150 144  62  34  38  40  39  82  83  73  66  53  41  33  41  49  53  39  32  28  29  32  35  44  40  38  42  49  46  50  30  46  88 120 138 153 149 143 129  73  41  51  54  40  34  32  36  40  37  32  29  28  28  31  48  55  51  50  48  69  89 103 105  81  51  48  44 115 149 152 154 154 154 155 155 156 155 156 155 155 154 156 155 156
 149 148 148 151 150 150 151 151 150 141  46  32  33  38  40  84  82  75  63  49  44  44  43  46  50  50  37  35  37  38  44  47  49  52  56  58  52  39  31  51  91 115 128 137 144 137 129  88  40  40  44  50  46  44  43  43  42  41  41  40  39  43  47  50  57  73  78  85 101 115 120  82  45  37  41 129 150 153 154 153 155 155 156 155 154 154 155 156 155 155 156 155
 148 148 150 150 150 151 151 150 149 123  40  30  29  35  37  83  86  83  76  71  68  61  53  47  46  45  45  47  48  47  49  49  49  51  54  55  57  38  42  65  91 111 122 132 137 131 126 100  49  42  62  55  49  46  46  49  51  50  47  47  46  48  53  63  76  91 102 110 117 126 130 116  57  38  51 136 149 152 152 153 154 154 155 154 154 155 154 155 153 154 154 154
 147 148 148 149 148 150 149 149 145 114  46  30  23  36  35  87  88  88  86  85  80  69  62  57  54  53  53  51  51  56  56  54  56  57  59  62  61  38  60  75  92 109 121 136 140 130 126 107  66  50  63  66  56  55  53  52  54  53  52  50  52  55  61  74  85 100 114 124 130 134 134 123  77  61  81 122 134 146 151 151 154 154 154 153 153 154 153 153 154 154 154 153
 146 146 147 148 147 147 149 147 140 115  56  32  35  45  59  97  94  92  91  88  82  74  68  60  60  60  60  61  63  64  64  64  64  65  67  70  50  54  64  81  93 107 118 129 136 127 123 108  83  61  45  76  69  65  64  64  65  62  58  58  60  63  74  81  91 105 118 128 134 137 136 103 104  84  88 101 123 132 143 151 154 152 154 153 153 153 153 154 152 154 153 152
 148 147 147 149 147 147 147 136 109  93  62  38  41  72  62 100 100  98  95  90  84  80  77  75  72  73  73  70  72  75  74  73  72  74  78  70  40  58  70  85  94 105 116 126 136 125 119 110  98  66  56  54  82  75  75  73  76  75  76  77  77  82  87  93 101 110 120 130 134 137 132  86 126 101  95 104 107  82 108 149 153 152 154 153 152 152 152 152 152 153 152 151
 147 147 147 148 148 148 146 109  87  84  75  60  46  86  55  89 103 103  98  94  89  85  85  86  85  85  85  83  84  83  81  81  81  84  82  39  63  66  76  88  95 106 115 126 137 126 118 110 105  77  70  51  65  90  88  82  84  84  86  88  93  97 100 105 111 118 125 130 133 133  92 115 130 107 100  96  63  54  94 147 150 154 153 152 152 151 152 152 152 153 153 152
 147 147 147 147 147 146 142  74  52  60  73  72  47  94  89  55 100 104 102  99  95  93  91  91  92  92  90  88  89  88  86  88  89  89  58  53  72  67  79  91  99 107 113 122 129 124 121 115 107  89  75  87  51  64  94  94  91  88  90  93  96 103 107 109 113 120 124 128 131  94 100 134 133 107  95  69  47  49  93 146 150 151 151 150 151 151 151 150 151 151 152 152
 145 147 147 147 147 146 140  65  43  43  53  65  46  98 101  78  67 100 103 100  98  96  95  94  94  93  91  91  90  93  92  92  92  58  57  82  72  72  87  96 102 107 109 118 120 120 120 118 111 100  77  89  99  68  50  88  98  95  93  94  98 104 108 112 114 120 124 112  84 108 133 136 134 108  99  80  46  49  97 144 148 149 149 149 151 151 151 150 150 150 151 151
 146 145 145 147 147 147 140  69  43  44  50  58  52  98 102 102  84  69  92  99  99  98  92  91  94  93  95  93  92  94  92  82  50  66  87  79  74  76  88  97 104 109 110 111 115 116 119 120 116 105  82  87 100 105  92  56  50  71  83  92  94  98 101 102  96  85  80  93 122 132 132 134 134 109 118  97  49  50 104 143 147 147 149 150 149 149 149 149 150 151 149 150
 146 146 146 146 146 146 139  72  43  45  62  67  59  98 100 103 104  94  68  66  78  89  90  90  89  90  93  89  90  75  55  56  81  85  84  77  75  78  87 100 106 108 108 109 112 114 116 120 119 107  87  82  96 104 104 102  96  82  65  55  63  60  62  66  79 102 116 123 125 128 134 134 134 110 122 112  51  56 113 142 146 147 146 147 148 150 149 149 149 150 148 149
 145 147 145 146 145 144 138  76  47  51  76  81  64  97 100 100 100  99  96  91  73  60  62  65  66  61  66  59  62  70  86  89  88  84  81  76  75  73  92 103 108 108 106 106 107 110 110 116 122 110  89  81  94  99  98  97 100 103  99  97  98 100 104 106 108 112 116 118 119 123 130 133 131 109 127 123  58  59 116 140 145 147 146 148 147 146 149 149 147 147 146 147
 145 146 146 146 145 145 140  83  51  58  88  91  74  99  98  97  96  96  94  93  88  88  88  86  85  88  87  89  88  89  90  87  84  83  78  75  70  81  97 103 107 107 106 105 101 105 104 113 121 113  94  77  89  96  96  95  94  97 100 102 101 102 104 109 112 113 112 113 115 120 125 129 130 101 102 128  75  70 120 138 142 143 144 146 145 146 147 147 147 147 146 145
 144 145 144 145 144 145 142  91  53  67  93  88  70  96  95  91  92  93  90  88  86  89  89  88  87  89  88  87  88  85  86  84  82  78  75  72  72  93  95  99 100 102 104 102 100 101 100 105 115 115 106  78  81  91  94  93  94  95  96  98 101 100 104 106 111 114 113 114 115 119 121 128 129 100  78 108  96  76 122 137 140 142 142 144 143 145 146 144 145 146 146 145
 143 144 144 144 145 144 140  94  58  78  90  73  66  94  92  92  90  89  88  88  89  90  91  89  89  87  86  86  87  86  83  83  79  76  76  69  89  93  90  94  90  90  98  98  96  96  92  99 109 111 108 102  81  83  87  89  90  92  93  95  98 100 102 106 109 112 113 113 114 115 119 124 126 112  76  87 100  86 126 137 140 140 141 142 142 142 143 141 144 144 143 140
 143 143 144 144 145 143 142  99  65  87  85  68  76  91  90  89  89  88  89  89  90  90  89  90  90  88  86  87  86  83  81  77  76  75  74  79  88  84  83  84  83  82  90  90  88  86  86  89  95  99  98 104  95  82  82  86  86  87  89  94  94  99  98 101 107 110 112 112 112 114 117 121 121 108  77  80 109  99 131 137 139 139 139 139 140 140 140 141 142 141 141 141
 143 144 144 144 145 145 142 112  75  86  82  66  76  88  89  88  88  87  90  86  88  91  92  92  92  89  88  87  84  83  79  78  78  77  73  83  82  72  73  74  76  79  79  79  78  75  74  77  80  82  82  93 100  84  82  85  85  86  88  93  94  95  97  99 104 106 110 112 112 112 114 119 118  94  73  82 113 114 132 138 138 139 138 139 138 139 139 140 140 140 140 140
 143 143 144 145 144 144 144 129  86  86  80  67  70  83  88  85  86  87  88  89  88  89  90  90  91  89  87  87  83  83  81  82  81  80  77  79  72  64  61  62  66  70  69  69  68  65  63  64  66  67  68  82  91  87  85  84  86  87  88  90  94  97  98 101 105 108 110 112 111 112 113 118 114  84  76  91 116 122 134 136 136 138 138 138 139 138 138 139 140 139 139 140
 143 142 143 144 143 144 144 139  95  87  84  70  65  77  85  84  86  87  86  88  87  88  88  88  87  89  88  88  88  85  81  82  82  81  76  70  62  53  49  54  57  58  57  56  57  54  53  56  60  55  53  64  79  86  88  87  85  87  89  90  95 100 102 104 105 106 108 112 112 113 115 117 110 101  99 114 124 128 133 134 135 138 138 137 137 138 139 139 139 139 138 139
 143 142 142 143 143 144 143 142 108  90  90  77  78  74  87  83  86  84  85  88  88  87  88  90  90  92  91  89  88  84  82  82  83  81  72  64  52  39  28  36  49  49  47  46  46  47  46  52  40  30  41  54  74  85  90  92  87  86  90  92  93  94 100 106 107 110 107 108 110 113 114 115 107 113 132 116 114 131 133 135 135 138 138 138 137 138 140 139 138 139 138 139
 142 143 144 143 142 143 143 142 118  92  92  95  92  72  83  81  84  84  84  85  86  90  90  92  90  90  89  87  84  82  82  81  82  80  70  59  46  33  29  35  42  43  40  41  41  41  44  44  35  30  41  60  80  92  96  95  91  87  89  92  93  95  98 104 106 108 106 101 107 111 113 114 102 121 134 110 121 131 133 134 136 136 136 136 137 138 137 139 139 139 139 139
 141 141 142 144 143 144 143 143 129  95  83 100  94  68  82  82  84  82  84  85  87  89  89  90  88  88  87  85  83  82  81  83  85  81  75  62  50  39  36  40  44  41  41  40  39  42  44  44  45  49  60  72  90 100 103 103  97  91  91  92  91  93  95  99 104 105 106 107 108 109 112 112 103 118 134 134 131 131 133 136 137 136 138 138 137 137 137 138 139 139 138 139
 142 141 142 143 143 144 143 141 138 107 100  99  90  67  82  82  82  82  83  86  87  87  86  87  88  87  84  83  82  84  83  87  88  85  78  68  60  58  50  45  48  46  42  37  39  44  46  49  54  63  70  81  94 105 110 109 107  99  96  97  94  94  94  95 100 104 105 107 109 111 109 111  95 112 129 136 134 133 134 134 135 134 136 136 135 137 138 137 137 138 138 137
 143 144 143 141 142 142 143 142 141 124 107  99  89  63  77  84  80  82  83  86  86  86  86  85  85  83  78  80  82  84  88  91  91  87  81  73  69  64  56  48  47  48  44  41  41  42  45  51  58  64  71  83  95 104 110 113 112 108 102 102 101  98  94  94  99 103 106 109 110 111 106 104  92 109 122 129 133 133 133 132 134 134 134 134 134 136 138 136 137 137 135 137
 140 141 143 142 143 144 142 143 142 127 104  97  89  62  72  82  79  80  82  83  84  83  83  82  83  79  66  79  82  86  90  91  91  89  82  76  70  65  55  48  44  45  43  39  38  38  41  49  57  63  69  79  93 100 106 110 113 112 108 106 105 102  97  94  97 102 105 108 110 109 102  97  85  94 108 114 128 132 132 132 132 133 133 134 135 134 134 134 135 134 133 138
 140 142 141 142 143 143 143 143 143 128  98  89  81  58  68  78  78  79  81  83  85  83  83  83  80  78  78  82  84  89  94  94  90  88  84  76  67  62  54  48  44  38  39  37  37  37  42  49  56  58  60  71  84  94 100 103 108 110 109 106 107 107 100  96  98 103 106 107 110 107 102  95  75  74  89 110 126 130 130 132 131 132 133 135 134 134 134 134 135 135 134 134
 142 142 143 142 142 143 143 142 143 136  92  76  69  55  62  73  78  78  81  82  84  84  83  81  79  80  83  84  87  91  93  91  89  85  79  69  63  59  55  49  43  38  38  38  37  39  45  53  54  53  58  67  74  84  91  96  98 104 108 108 106 107 105  97  97 102 108 107 108 108 100  89  82  82 105 124 128 131 131 132 132 132 133 134 135 135 134 132 135 135 135 136
 140 140 141 140 142 142 142 142 141 141 127  98  88  74  62  71  77  78  78  82  82  83  81  81  82  83  84  85  88  88  87  86  84  72  67  64  59  57  54  49  44  40  39  39  36  41  47  53  52  53  64  71  74  76  78  83  89  96 101 105 105 105 104  98  98 101 108 105 100 107  96  86 100 122 125 127 130 131 131 130 131 131 132 133 135 134 133 133 134 133 133 136
 140 140 140 141 141 140 142 141 141 142 140 139 137 108  66  70  73  75  79  81  78  79  81  81  82  81  82  83  85  84  78  74  76  68  63  59  55  57  55  53  49  43  42  39  37  44  50  55  53  58  70  76  77  72  73  74  77  83  90  94  98  99 103 101 100 100 104 101 100 103 100  84 108 125 127 127 128 129 130 128 129 130 132 133 132 131 131 133 134 133 133 135
 140 141 140 141 139 140 140 140 141 142 141 141 139 126  65  67  69  75  79  81  79  76  81  81  82  82  81  82  75  71  68  66  68  67  65  62  60  62  62  63  58  51  49  48  46  50  59  66  65  70  70  74  74  71  75  72  70  75  80  85  93  95  98  99 101 103 101 103  97 100  98  78 112 126 128 128 128 127 128 130 129 130 130 131 130 130 130 130 134 131 133 134
 140 140 139 140 140 140 140 140 140 140 140 139 139 136  75  67  68  73  79  80  76  76  79  80  80  81  78  76  64  62  60  57  63  66  64  67  65  66  65  66  67  62  63  59  58  61  64  66  68  70  68  74  77  73  74  68  64  66  70  76  81  89  95  99  99  99  99 102 100  98  97  76 117 125 126 128 128 127 127 127 127 127 130 129 130 130 130 131 132 132 132 133
 139 139 140 140 139 140 139 139 140 140 139 139 139 135  79  64  67  72  76  78  78  78  81  80  81  80  74  66  54  54  52  50  58  65  65  64  60  61  56  55  56  56  59  60  59  58  56  54  55  57  58  65  72  71  70  59  52  52  57  68  70  81  93  99 100  99  97  97  97  96  94  79 118 124 124 126 127 126 126 125 125 125 126 127 126 128 128 128 130 129 130 131
 139 139 139 139 140 139 139 139 139 139 138 139 139 135 103  63  68  74  70  74  75  78  81  81  81  78  71  58  48  48  49  48  52  56  54  51  48  46  43  42  41  41  45  48  47  42  38  37  38  39  42  45  50  54  56  51  40  39  45  55  66  79  91  99 100  98  94  93  92  93  81  93 119 124 124 123 125 123 124 124 124 123 123 124 125 124 128 127 128 129 128 129
 138 140 138 138 139 139 139 139 137 139 138 138 136 134 123  62  63  68  70  70  74  75  78  80  81  77  66  53  48  44  42  39  42  40  36  33  31  31  31  31  31  31  31  32  30  30  29  30  31  36  39  44  49  49  45  37  33  32  40  49  60  77  87  96  99  98  92  91  87  91  75 100 118 122 125 123 122 123 124 124 123 123 124 125 124 125 126 125 126 126 126 126
 138 139 138 138 138 137 138 137 137 136 137 136 134 133 130  79  61  66  68  67  69  72  74  79  79  76  65  54  47  42  36  33  35  35  39  41  44  46  53  53  51  47  45  42  41  45  49  54  58  60  66  72  75  78  78  74  66  51  48  51  58  75  86  91  94  93  87  89  82  83  70 114 118 120 121 122 122 122 122 121 123 124 124 124 123 124 122 122 124 123 124 124
 137 137 138 138 138 138 137 136 136 136 135 134 132 132 130 109  58  63  64  66  67  71  71  77  79  74  67  57  48  46  44  51  56  63  65  61  59  55  53  55  59  58  59  55  53  56  57  58  57  58  60  69  81  88  87  83  77  71  65  61  63  72  83  87  88  88  87  87  78  74  76 113 118 118 119 121 120 120 119 120 121 120 123 122 122 122 121 122 124 123 123 124
 135 136 138 135 136 138 136 134 136 135 134 132 131 132 130 124  61  56  63  65  64  67  68  73  77  73  65  55  53  58  64  66  67  67  65  64  62  60  56  53  51  52  50  51  54  53  50  50  52  54  56  64  69  73  77  80  83  82  77  71  69  74  77  82  78  80  78  79  73  66  96 115 117 117 118 120 121 120 119 120 119 119 120 121 120 120 120 123 123 123 123 123
 134 134 134 134 134 136 135 135 134 134 133 132 131 132 130 127  94  52  56  61  61  61  62  67  73  73  68  60  65  68  74  75  70  66  64  58  56  53  53  51  47  45  45  45  49  46  42  43  45  48  51  56  63  68  73  78  85  85  83  79  74  73  75  75  72  74  75  72  60  62 106 115 116 117 117 118 118 118 117 119 119 119 120 121 120 122 121 120 119 122 121 123
 133 133 133 132 133 134 134 132 134 133 132 131 131 130 130 126 117  56  49  54  58  60  61  62  70  72  71  68  71  72  75  76  72  66  61  56  54  50  48  45  41  38  38  37  38  36  35  36  41  42  48  57  58  65  71  76  83  83  81  78  75  74  74  72  70  72  72  65  53  73 107 114 113 113 114 115 115 116 116 117 117 118 117 117 117 119 118 119 118 120 119 119
 135 134 133 132 131 132 131 132 132 131 131 131 129 128 127 125 122  84  47  50  52  59  63  64  67  69  67  69  70  71  74  74  73  69  66  60  54  49  44  39  34  31  30  30  29  30  28  30  34  37  40  49  53  61  69  73  79  78  76  75  76  75  75  71  67  67  67  54  45  96 110 111 112 112 115 114 117 116 117 117 115 117 117 116 117 118 119 119 118 119 120 119
 132 130 132 132 131 131 131 130 131 130 130 130 128 128 127 125 124 116  58  46  46  55  58  61  64  67  65  66  68  68  71  70  71  70  67  62  56  52  44  37  32  30  30  30  29  26  25  29  32  37  40  44  52  61  67  69  71  70  70  73  74  75  75  72  66  63  53  45  56 106 110 111 112 113 113 116 116 116 117 118 118 118 119 118 118 119 119 118 119 119 119 119
 131 131 131 129 131 130 130 129 128 128 128 126 126 125 124 123 122 116  76  45  40  47  51  55  61  65  65  67  66  66  66  65  65  64  63  62  56  51  44  37  35  34  33  31  30  28  29  32  34  37  39  45  50  57  60  64  65  66  68  72  72  74  74  72  63  52  39  35  74 107 111 110 111 114 113 112 115 115 116 117 116 116 117 116 118 118 118 118 118 117 117 118
 130 130 131 130 130 128 129 128 127 127 127 125 125 125 125 122 119 117  98  52  37  43  50  53  60  64  66  66  65  65  64  62  62  60  57  56  53  49  45  43  42  44  45  44  45  43  45  50  52  50  47  48  51  55  58  60  61  65  71  74  74  77  71  66  52  40  34  45 100 111 111 111 111 111 112 112 113 111 112 112 112 111 112 112 113 114 115 114 116 116 117 117
 128 128 129 128 129 127 126 127 126 125 125 125 124 124 122 119 119 116 102  64  31  33  43  49  55  62  66  64  65  63  62  61  60  56  54  54  52  52  55  54  54  54  56  55  55  57  57  61  63  64  64  56  52  54  58  62  66  70  74  76  80  77  69  57  46  35  32  77 102 109 108 108 108 108 110 110 110 111 110 111 112 111 111 112 111 112 114 114 115 116 117 116
 127 128 128 126 128 125 124 124 125 124 123 122 123 121 119 118 117 115  99  73  49  31  34  39  47  56  61  60  60  61  64  62  60  56  54  54  51  57  63  63  61  60  62  59  60  62  62  66  69  71  72  69  60  57  62  66  71  74  77  78  74  74  65  48  38  33  50  88  96 102 103 105 107 107 108 108 109 107 108 111 110 112 111 113 112 113 113 114 114 115 114 116
 128 126 126 126 126 124 124 124 122 121 119 118 118 118 118 117 116 114 100  74  63  41  31  35  42  49  50  54  54  60  64  64  62  60  56  55  53  61  66  66  64  63  63  61  60  62  64  68  72  71  75  76  72  66  69  72  77  79  81  80  75  71  57  44  31  39  63  68  73  75  80  85  91  95  99 104 106 107 109 109 109 110 109 110 110 112 112 112 113 113 115 113
 125 125 124 125 124 123 122 122 119 118 117 118 118 118 117 116 115 112  98  77  70  58  32  30  33  36  43  49  53  57  64  65  64  64  62  61  59  64  66  62  60  61  60  59  60  62  62  66  71  72  75  77  76  74  76  79  82  81  81  78  72  65  49  37  27  72  70  62  62  64  64  59  62  65  70  78  85  89  94  98  99 102 104 107 110 110 110 111 112 112 113 112
 123 122 123 124 122 121 120 119 117 116 115 117 116 115 116 114 112 109  92  74  69  60  44  28  26  29  39  50  54  54  59  61  66  66  64  64  62  64  61  60  58  59  57  59  59  58  59  60  65  70  72  76  80  76  77  79  77  74  76  76  65  56  42  29  46  89  49  57  63  61  63  65  60  59  58  61  66  67  70  74  79  83  85  87  90  92  95  94  99 103 105 106
 122 120 120 119 120 118 118 118 117 115 114 114 113 111 109 100  76  46  55  71  69  66  59  40  24  24  30  38  46  52  54  52  61  64  64  66  65  63  61  58  57  59  56  56  54  55  56  58  57  60  67  75  77  78  75  74  73  72  68  69  54  45  32  41  73  93  28  23  48  62  62  62  67  66  61  59  60  60  60  62  64  67  69  70  71  76  78  78  80  82  81  81
 119 118 118 117 117 117 117 116 113 113 111 108 100  83  68  45  27  18  35  70  68  67  63  55  35  24  27  33  37  46  51  50  56  60  62  64  65  60  58  56  55  55  53  52  50  51  53  55  54  55  59  67  71  71  71  68  63  62  56  53  43  31  26  66  90  98  26  15  18  44  58  58  64  67  66  62  61  60  59  59  59  62  64  64  63  65  65  69  71  72  71  70
 117 115 115 115 115 113 112 113 108  96  80  68  59  45  28  14  12  11  34  68  66  67  64  57  45  31  25  26  29  43  44  47  49  51  56  62  61  61  56  54  51  52  52  49  45  44  49  53  52  52  52  58  62  59  57  60  57  51  46  44  32  25  43  88  95  98  27  14  11  22  51  56  60  62  65  61  63  62  63  60  59  61  60  60  63  64  63  66  64  66  64  65
 113 111 104  98  93  86  84  76  67  59  52  49  39  17  10   8   8   8  37  66  67  65  62  60  55  48  31  21  27  38  43  43  45  46  48  50  52  55  54  51  50  51  48  48  46  43  45  48  49  48  46  50  54  48  43  48  49  46  40  37  26  33  78  92  97  99  29  14  12  13  32  58  58  61  62  59  63  61  62  61  61  61  60  60  60  61  62  60  60  63  62  62
  79  71  69  68  67  65  62  59  54  46  45  37  14   9   8   7   8  11  38  67  65  63  64  61  60  56  47  26  23  32  38  43  44  41  40  46  47  50  52  51  47  48  44  47  45  44  40  40  42  40  38  43  43  39  38  43  44  41  34  30  31  68  86  93  97  97  40  18  12  12  15  51  57  57  61  61  60  60  58  60  60  58  59  58  59  61  61  62  60  60  60  61
  66  64  63  56  56  56  55  52  47  40  40  23   8   7   8   9  17  35  59  66  66  64  62  63  62  61  53  38  21  24  31  39  39  38  33  43  43  44  46  45  44  42  42  43  41  40  35  33  35  33  31  37  35  33  36  39  37  34  27  25  66  81  88  94  96  95  57  26  15  12   9  36  57  56  59  61  58  59  59  59  60  55  54  56  57  59  58  61  59  58  59  59
  60  57  52  51  50  51  46  43  40  40  39  15   7  10  15  26  41  59  65  67  67  65  64  62  62  61  57  51  33  20  26  33  32  31  29  35  36  38  38  37  36  36  34  37  38  36  31  29  29  28  27  29  33  31  34  30  30  27  25  50  78  86  90  93  96  95  76  34  18  14  10  28  53  53  58  60  63  59  56  58  58  58  58  54  54  59  59  58  59  58  59  59
  52  49  51  50  52  46  43  39  37  39  34  10  11  18  29  41  57  66  66  66  66  67  64  61  61  61  59  54  48  28  22  25  26  29  27  28  31  34  33  29  29  33  30  32  32  31  29  26  25  25  24  26  26  28  29  26  25  24  45  73  83  86  89  92  96  95  89  45  25  16  12  26  50  51  55  57  62  59  58  56  55  55  57  53  56  57  54  56  59  59  58  56
  45  46  51  50  52  44  42  37  37  36  28  11  19  30  40  54  64  68  66  66  69  68  66  62  61  60  60  57  52  43  23  19  21  26  25  27  28  30  26  25  25  28  29  30  29  27  26  25  21  20  24  24  23  25  24  23  23  45  72  80  83  86  89  93  97  96  91  57  30  17  13  28  49  51  53  58  60  58  57  53  53  51  53  53  56  53  51  52  58  58  58  57
  48  49  49  51  49  44  42  36  34  38  28  17  26  36  47  63  67  69  67  66  67  68  66  63  61  61  60  58  54  51  42  26  19  20  19  22  24  23  23  24  23  22  24  22  22  21  20  22  19  19  21  21  21  19  20  20  34  74  80  82  83  89  92  96  96  95  92  65  33  21  13  32  50  48  52  57  59  58  58  53  53  55  53  52  52  53  53  54  58  59  59  58
