P2
# Generated by OpenCV 3.4.0
92 112
255
 181 180 184 186 186 185 185 182 180 175 182 176 172 172 165 162 153 145 132 113 102  96  90  83  82  74  66  64  56  54  56  59  58  53  48  51  50  49  51  49  50  52  55  50  52  58  60  65  59  61  55  51  50  49  48  52  57  53  57  62  68  87 102 104 115 111 113 120 122 118 121 129 135 136 141 143 145 146 146 145 148 151 152 152 150 150 151 150 149 148 150 149
 180 182 184 186 185 186 187 185 185 182 182 178 182 175 169 170 162 149 126 116 106  99  88  80  74  71  65  58  56  52  55  52  51  49  47  46  48  50  52  54  56  58  55  61  65  65  66  68  70  65  62  58  51  49  46  48  50  47  49  51  57  68  84 107 104 102 115 118 122 127 128 121 116 123 136 142 142 146 149 149 147 150 150 150 152 149 152 150 150 147 151 150
 177 179 181 181 182 182 183 184 184 181 179 176 180 175 172 168 156 141 124 121  99  89  77  73  70  68  61  55  50  49  49  49  47  48  49  48  52  64  68  70  70  71  76  77  81  86  94  90  91  86  78  73  60  52  48  49  48  47  45  47  51  52  69  79  92  91 107 110 119 126 133 138 130 120 119 133 142 141 148 150 149 150 152 152 151 151 151 151 151 149 150 150
 166 173 175 170 172 178 177 179 180 177 173 170 173 167 161 157 135 130 116  96  83  74  70  68  64  60  54  50  47  47  46  47  48  51  56  61  69  80  88  91  94  94 101 102 103 105 110 110 109 114 107 101  87  76  69  61  54  51  48  48  49  50  52  63  70  77  97 110 117 124 124 130 132 129 125 118 138 139 143 148 148 150 152 152 152 151 151 151 152 150 151 150
 162 165 167 165 166 166 166 167 167 166 166 162 157 155 151 137 132 121 108  94  80  78  73  69  62  59  51  49  48  49  48  49  57  67  72  84  92 100 108 111 115 118 121 122 124 123 123 124 124 124 121 119 113 107 101  92  76  66  63  58  51  49  49  55  62  69  89 104 113 116 114 116 128 132 128 121 121 136 138 146 149 148 153 152 151 151 152 152 150 151 152 151
 160 161 161 162 161 162 164 161 160 162 160 154 149 145 138 130 114 103  96  89  83  79  75  67  57  50  48  52  58  57  61  68  84  91  96 104 115 121 126 129 131 129 133 132 132 131 130 130 130 130 128 126 123 120 118 110 100  91  85  76  66  54  51  54  55  64  92 114 124 134 131 110 113 118 134 132 119 120 135 146 152 150 152 152 152 152 152 151 151 151 152 151
 158 160 159 159 159 160 159 155 157 156 152 149 147 132 124 115 107  99  90  84  81  76  65  55  52  50  55  63  66  79  81  92 103 114 117 125 130 134 139 139 141 142 141 139 140 135 132 135 134 134 130 129 128 125 122 117 114 107 100  94  86  71  60  54  52  58  79  92 106 114 121 118 110 103 111 132 132 116 128 139 149 150 152 151 151 152 152 151 152 151 152 152
 158 158 160 159 158 159 156 155 155 151 147 144 124 114 108 108 102  90  83  86  84  70  61  56  57  64  72  80  91 102 108 116 125 132 135 137 144 148 151 150 152 149 148 146 144 140 139 139 138 136 133 132 130 127 125 122 119 117 111 104 100  91  80  66  52  51  59  75  88  97 100 106 107 106 110 124 132 125 115 135 145 145 149 151 151 152 152 151 152 151 151 151
 156 155 157 156 158 157 153 152 150 141 140 129 117 109 116 128 106  89  86  88  79  67  63  65  74  81  92 102 108 117 125 131 138 139 139 145 152 157 157 159 158 153 149 145 143 143 141 140 138 134 134 132 131 128 125 123 121 118 113 108 106 102  96  85  69  54  50  59  73  83  96  97  95  99  95 112 129 128 127 131 140 143 146 151 151 150 151 151 152 152 151 151
 155 156 156 156 157 155 154 150 147 145 132 127 118 120 122 100  84  85  87  79  63  67  75  81  94  99 111 117 122 128 132 138 143 144 146 154 159 164 161 162 158 152 149 146 146 145 144 143 140 135 134 132 131 128 126 125 122 120 116 110 105 104 101  95  87  69  53  51  66  80  84  96  99  99  93  92 115 130 133 132 141 145 144 149 151 151 152 153 152 151 152 152
 156 156 156 158 157 155 154 150 148 145 127 126 130 132 110  82  81  85  79  66  68  80  92 101 110 120 122 128 131 134 138 146 150 153 157 160 159 162 159 159 156 151 149 147 146 146 146 146 142 138 134 131 130 128 127 123 122 120 117 114 109 105 104 101  97  87  69  51  61  79  87  85  86  97 104  88  99 120 130 141 136 147 147 145 152 152 152 152 151 150 152 152
 157 156 157 156 155 154 153 149 149 140 128 139 124 112  83  82  84  85  70  68  81  98 110 115 122 128 128 132 135 140 146 152 153 156 159 156 157 157 156 152 152 153 151 149 148 146 148 146 142 139 135 132 131 129 126 126 123 123 119 114 112 109 106 102 100  96  87  66  53  64  76  84  82  88  94 104  92 100 121 133 135 146 149 146 147 151 152 151 151 151 152 152
 156 155 156 157 156 152 153 153 149 138 136 133 116  89  79  85  83  77  69  79 101 113 119 121 126 128 132 135 139 144 148 151 152 154 155 153 154 153 151 150 150 150 149 150 149 147 147 145 142 137 136 132 130 127 126 126 126 123 119 114 113 108 106 104 102 100  94  85  63  55  63  75  74  80  85 106 103  89 106 128 137 148 148 150 146 149 151 151 151 150 152 152
 154 156 157 155 154 153 155 154 147 146 141 129 101  80  74  81  82  76  75  98 114 119 123 124 127 130 134 136 142 146 150 151 149 150 150 150 148 149 148 146 146 146 145 144 142 142 141 140 140 137 134 131 128 125 124 124 123 120 116 112 109 107 105 104 101 101  95  90  80  60  59  82  88  78  86 103 109 101  95 116 137 146 149 151 148 151 152 152 152 152 152 152
 156 156 157 153 152 155 154 151 154 152 145 115  84  74  70  77  80  74  94 113 119 122 124 127 129 130 132 136 141 145 146 147 147 145 146 148 149 145 144 144 141 143 140 143 140 139 137 138 136 134 132 129 123 122 122 121 120 119 114 109 105 105 104 103 101 100  98  94  89  71  59  64  75  80  90  95 101 106  94 105 138 144 149 150 148 151 152 153 153 152 152 153
 157 155 154 153 154 153 153 154 154 152 134  96  78  65  68  72  74  86 109 117 119 122 124 128 128 129 130 134 139 142 143 142 143 142 143 143 142 142 141 139 140 138 138 140 138 136 136 134 132 128 126 122 115 119 119 120 116 116 112 108 104 102 101 102  99  98  96  95  90  82  60  52  56  62  70  84  88  98  97  92 133 144 149 149 150 152 151 152 153 151 153 153
 154 155 153 155 153 152 155 155 154 152 124  80  64  61  66  68  75 101 111 120 119 123 125 125 126 129 130 133 136 135 136 139 140 142 143 140 137 139 137 135 135 137 137 137 136 134 134 134 131 127 122 118 114 115 115 117 114 112 108 106 104 101  98  98  98  97  95  96  94  88  74  53  48  54  67  74  76  79  96  93 121 145 150 149 151 151 151 152 151 152 152 152
 153 153 154 155 153 154 155 155 154 154 103  72  57  56  63  67  89 107 115 121 122 124 125 124 126 126 129 130 132 134 134 135 137 137 137 136 135 135 131 131 134 133 133 134 136 134 133 130 126 123 118 115 114 114 114 112 112 107 104 104  99  99  98  96  98  98  94  95  93  90  82  62  48  49  64  71  79  71  74  93 114 144 150 151 150 153 152 152 152 152 152 152
 153 152 154 155 153 153 154 154 155 153 100  70  52  54  60  69 101 112 118 121 122 124 123 122 124 124 125 128 130 132 132 131 133 133 134 134 132 130 128 128 130 130 132 133 134 132 128 121 120 117 115 113 108 106 106 108 106 103 102 101  98  97  96  97  97  96  95  94  92  92  88  74  51  47  51  60  63  71  76  83 110 142 151 151 151 154 151 152 153 153 152 151
 152 152 154 154 154 154 154 154 154 147  88  52  52  52  57  80 105 116 121 122 123 123 122 122 122 123 125 127 129 131 130 129 131 131 131 131 128 128 128 123 127 128 130 131 129 128 124 121 117 114 110 111 108 104 104 103 101 101  98  97  94  94  94  96  96  95  94  92  91  92  90  84  62  47  49  55  75  71  97  90 104 139 149 150 151 151 151 152 152 152 152 153
 153 151 153 154 155 155 153 153 153 148  79  47  50  53  63  89 108 117 123 122 121 119 120 123 121 124 124 126 128 128 132 131 129 128 125 126 126 127 124 122 125 125 125 125 124 124 121 118 114 108 106 105 102 100 101  99  98  95  94  94  95  93  93  94  92  93  93  92  90  92  93  89  75  51  48  49  59  75  91 118 112 137 147 150 153 151 152 152 152 152 152 152
 153 152 152 154 155 155 153 153 154 150  85  49  51  56  67  98 109 118 122 120 120 119 119 121 120 119 122 125 127 129 128 128 128 125 125 124 125 123 121 121 122 122 121 121 121 118 114 113 110 105 104 102 101  99 100  99  96  95  92  91  92  90  89  90  90  92  90  90  89  91  92  91  81  63  50  47  48  64  77  95 121 129 147 151 152 150 152 152 152 152 151 152
 154 153 154 154 154 154 153 154 155 152  96  52  56  58  81 104 112 118 121 120 121 118 120 119 118 120 120 123 125 124 122 125 124 122 123 123 123 121 121 121 120 119 119 118 117 113 109 109 105 101 101 100  97  97  98  98  96  94  90  87  88  88  87  87  88  90  89  89  88  90  92  91  85  71  52  48  45  52  81  84 109 122 143 148 149 152 152 151 152 152 152 151
 154 154 153 153 154 154 155 153 153 149 100  66  59  65  91 108 114 120 120 119 117 116 115 116 116 117 119 120 121 120 122 124 121 120 121 120 118 117 117 114 116 117 117 116 115 115 111 108 104 102 101  99  97  98  96  95  95  93  91  90  88  89  88  89  88  88  88  88  88  87  89  89  86  78  60  49  48  50  65  98  95 117 133 149 152 152 152 152 151 152 152 152
 153 154 155 154 154 155 154 154 151 147  84  67  59  68  98 109 115 118 119 118 116 114 115 116 114 116 117 117 118 119 119 118 118 119 120 118 119 118 115 116 116 116 116 114 112 111 107 105 101 100 100  98  95  97  96  94  94  92  93  92  89  88  87  87  88  88  88  86  87  87  87  87  85  80  65  49  48  46  52  79 102  97 123 144 152 152 151 151 152 151 151 151
 154 154 154 155 154 154 153 153 152 145  78  61  61  76 100 111 116 117 116 116 117 113 115 118 115 116 115 116 115 120 119 117 118 118 120 120 119 119 116 117 116 116 114 109 107 103 103 100 100 102 100  97 100  98  97  94  94  94  93  94  90  86  87  89  89  91  90  87  86  87  86  85  83  80  69  48  47  43  44  56 108  90 117 141 150 151 152 151 152 152 151 152
 153 153 154 154 154 154 153 153 150 130  83  60  65  73 103 113 114 115 114 115 114 113 113 115 115 114 114 116 119 121 123 121 119 119 120 117 118 116 116 118 117 115 110 109 107 106 105 102 104 101 100 100 100  99  97  95  95  97  97  96  94  91  91  92  91  90  88  87  86  87  84  81  81  79  70  51  42  42  40  52  96 101 112 142 149 150 152 152 151 152 152 151
 153 154 154 154 153 154 154 154 148 117  76  58  57  77 104 112 113 115 114 113 110 113 113 115 120 117 117 121 125 125 124 124 123 122 122 121 119 117 116 116 113 115 111 110 109 106 105 103 101 101 100 101 101  98 100  98 100  98  98  98  97  94  94  94  92  89  87  87  87  86  82  81  80  76  69  52  41  39  40  55  80 103 117 138 147 149 151 150 151 150 150 151
 154 154 155 155 154 154 155 154 147 108  73  52  55  80 101 111 113 116 113 109 111 113 112 115 119 118 119 123 126 126 126 126 126 126 126 122 118 118 118 113 111 111 108 107 104 105 102 102 104 103 102 103 102 100 102 103 104 102 102  99  95  96  95  94  93  89  88  87  86  85  82  79  78  77  71  54  41  36  40  49  77 102 121 138 146 147 150 151 151 151 150 150
 153 155 155 154 156 156 154 153 151  93  68  49  58  79 101 111 114 112 110 109 110 112 115 119 121 122 123 124 125 127 127 128 129 128 127 126 121 118 118 114 114 112 108 104 103 104 102 101 103 104 106 105 104 106 106 107 106 105 104 103 100  99  97  94  94  93  89  87  86  84  80  79  76  77  68  54  37  36  38  47  67  89 118 139 143 148 149 151 150 151 151 151
 153 153 155 155 155 155 153 152 144  88  60  50  57  78 101 111 112 111 111 110 111 113 116 118 122 125 125 125 126 128 132 134 131 131 130 128 125 123 118 114 112 111 109 109 107 105 105 102 103 104 104 104 108 107 108 108 109 107 105 103 101 100  98  96  96  94  92  88  87  84  80  78  74  74  69  55  35  33  35  46  57  94 112 141 144 148 150 150 150 150 150 151
 153 155 155 155 154 153 154 153 138  89  60  56  53  76  98 110 110 111 111 111 113 115 116 121 125 126 128 128 131 133 133 133 131 132 131 129 126 122 119 118 113 112 109 108 108 105 105 105 105 103 100 102 106 109 110 109 107 104 104 103 101  99  97 100  99  96  93  88  86  83  80  77  73  71  69  56  35  31  35  42  59  83 104 136 144 149 149 149 149 149 148 150
 153 154 154 153 154 153 154 153 139 103  69  54  51  70  99 108 109 111 108 110 113 115 117 124 127 128 130 133 132 131 131 132 134 133 131 130 127 123 122 120 118 113 111 110 108 107 106 105 105 106 106 107 110 110 109 107 104 103 102 101  98  98 100  98  99  99  96  90  87  84  81  77  71  71  67  58  36  31  34  40  56  70 101 135 143 148 148 149 148 148 148 148
 154 154 152 154 153 154 154 154 145  97  69  55  48  66  96 106 108 107 107 109 112 116 120 125 127 129 131 131 129 131 130 131 132 131 131 129 126 125 121 118 118 115 113 111 112 111 109 108 110 109 109 110 110 110 107 103 101  99  98  97  99  99 101 100 101 101 100  94  89  87  82  79  73  70  68  60  35  30  33  45  56  76 108 129 144 147 149 149 149 149 148 148
 154 155 154 156 155 156 156 153 147  90  64  51  46  62  96 105 107 106 108 111 114 120 124 128 130 132 131 129 130 130 126 128 129 130 127 126 123 122 119 117 118 118 112 112 111 110 112 110 109 108 109 109 105 108 106 105 103 100  99 100  99  98 100 100 100 101 100  98  94  87  83  80  74  69  69  60  37  30  34  48  67  84 116 138 144 144 146 147 146 145 148 147
 155 153 154 156 156 154 156 155 150  89  63  49  45  60  93 104 106 108 110 115 119 123 128 134 132 133 132 130 128 127 124 125 124 124 122 121 120 117 117 117 116 116 115 116 113 112 113 108 107 108 107 109 105 106 104 102  99  99  98  98 100  99  99  96  96  97  96  94  91  84  82  81  78  71  69  63  36  29  38  52  79  92 123 135 142 143 145 146 147 148 147 145
 155 155 154 155 157 156 156 155 153 108  64  49  43  58  92 103 104 108 110 118 121 125 130 135 134 132 131 130 128 122 121 122 121 120 117 115 113 110 111 111 109 112 114 113 112 108 107 105 105 104 101 102  99  98  98  98  97  96  98  97  94  91  91  88  86  87  84  81  81  75  73  77  76  72  70  66  37  30  48  57  83  97 122 133 143 143 147 147 147 147 146 147
 155 155 156 156 159 158 157 156 151 105  63  48  40  55  96 104 106 107 112 118 121 125 129 132 132 126 127 126 123 118 118 118 117 116 111 109 107 104 105 101 103 107 109 111 107 103 100 100  98  97  96  94  90  88  88  84  82  81  81  80  79  79  71  68  68  70  67  68  69  64  65  67  69  68  69  69  40  28  54  58  84 105 127 140 142 142 144 144 145 145 146 146
 154 156 156 156 158 158 158 155 146  89  60  46  38  52  97 104 104 108 115 118 119 113 115 117 116 116 116 110 107 106 109 111 109 107 104 102 101 100 102 100 102 106 105 104 100 100  98  97  93  91  89  87  84  76  70  65  56  55  51  50  51  51  50  50  52  52  51  52  53  55  55  58  57  59  65  68  44  26  50  60  84 104 127 139 142 142 144 142 143 144 144 145
 154 156 156 156 157 158 156 154 140  79  55  51  37  49  98 105 105 108 114 110 105  97  99  98  94  92  91  87  86  92  94  87  82  80  80  82  86  90  93  95  96  99  97  98  97  94  92  90  90  85  82  76  70  62  54  47  42  40  34  32  31  30  32  34  36  38  39  43  44  43  48  49  47  52  55  67  48  26  53  60  85 110 130 135 137 135 141 141 144 144 144 146
 156 156 158 158 159 160 158 152 136  70  51  70  40  43 101 105 107 104  95  89  89  85  79  75  74  68  72  80  74  64  58  55  53  48  50  59  66  70  77  83  88  91  91  90  92  89  88  86  80  76  73  58  53  47  42  38  33  29  29  26  25  26  26  26  27  28  33  37  40  41  42  45  43  44  47  55  55  26  46  59  86 102 133 132 134 137 142 142 145 146 145 147
 156 158 158 158 158 159 157 146 117  66  53  64  42  44 102 102 100  86  80  77  72  70  69  67  66  67  67  58  52  46  44  42  38  35  38  41  45  52  58  69  77  82  84  86  85  82  81  80  73  65  61  48  42  40  35  30  28  25  24  23  24  25  26  28  32  33  33  34  34  34  34  34  32  35  35  38  40  28  39  58  78  91 116 130 134 138 142 144 144 143 144 146
 155 157 158 156 156 156 148 134 115  72  55  64  60  53  81  70  59  48  46  47  40  39  39  37  37  39  37  36  35  35  35  34  35  34  34  34  35  40  44  51  61  67  75  79  77  78  75  71  67  59  52  41  35  32  30  28  27  33  31  27  25  22  22  20  18  16  16  16  16  16  17  16  18  16  17  17  17  17  18  20  22  28  45  89 134 138 139 142 143 143 145 144
 156 156 156 158 159 156 144 140 117  61  52  47  35  30  22  22  22  22  22  24  28  31  35  35  35  33  33  29  26  25  24  24  22  20  22  24  26  30  33  40  44  53  63  71  75  73  69  64  57  51  40  34  31  31  38  35  30  23  18  18  19  22  25  28  32  34  33  40  38  39  39  41  40  41  40  36  30  21  17  16  16  18  22  40 130 138 143 143 140 142 143 144
 157 156 157 160 158 152 146 143 114  27  22  19  21  20  20  21  36  50  59  67  66  67  62  59  58  57  54  50  48  44  44  45  43  32  25  25  22  20  18  21  27  37  45  56  64  66  62  56  49  46  39  36  36  30  21  17  22  27  29  30  29  27  27  29  30  30  29  33  31  31  34  38  41  43  46  46  44  35  25  17  35  58  50  44 131 138 142 143 142 140 143 144
 157 156 156 158 155 152 146 135  98  27 117  97  57  20  32  61  65  65  67  67  69  66  61  57  58  55  54  52  50  48  47  47  46  38  32  31  33  33  35  27  20  20  22  28  34  37  41  40  35  29  24  20  18  17  23  28  31  32  28  24  23  23  22  22  22  22  22  27  25  27  26  30  35  41  44  46  48  39  30  22  17  22  22  44 125 135 139 141 143 142 142 143
 157 155 156 157 155 153 147 130  95  32  26  34  21  25  57  61  60  60  59  57  56  50  46  44  41  41  40  38  39  38  39  39  39  32  30  32  33  37  39  40  37  22  20  20  20  22  20  18  17  18  17  17  17  26  28  28  28  26  25  23  23  26  19  19  20  23  27  27  21  24  26  25  30  37  42  46  51  52  47  30  18  17  18  72 128 133 135 139 142 142 142 142
 157 157 157 154 155 153 151 133  90  36  22  20  20  34  63  60  54  50  48  44  42  38  35  34  33  35  36  33  32  33  37  39  36  30  25  28  32  35  38  40  44  37  19  20  18  19  18  18  16  16  16  16  24  28  28  24  24  25  23  26  32  22  19  22  22  20  31  41  31  24  23  24  28  34  41  46  53  61  46  33  17  18  23 119 132 135 135 135 139 140 141 142
 157 155 156 158 154 156 154 126  86  66  20  19  19  42  69  62  55  49  42  34  32  35  32  37  47  53  37  35  33  30  32  42  44  30  26  27  29  33  38  40  47  49  19  19  18  19  18  18  16  16  16  16  29  32  29  27  25  25  27  35  31  23  19  18  17  20  25  41  41  33  24  23  27  35  43  48  55  63  50  33  18  18  62 130 136 135 137 137 139 140 140 140
 157 155 158 159 156 154 151 120  87  92  40  20  19  48  73  67  59  49  41  35  33  31  36  50  56  47  34  37  30  26  30  37  50  42  34  33  36  40  44  48  53  55  21  18  17  18  18  18  16  16  16  17  30  38  36  31  30  32  35  43  35  26  22  22  20  24  26  37  40  40  29  28  29  37  45  49  56  65  52  32  19  15  97 129 135 137 136 139 139 140 139 138
 156 160 158 158 157 157 149 124  96 110  80  22  20  45  78  74  64  54  46  35  29  34  44  55  58  43  31  27  30  24  29  35  49  46  40  37  38  46  52  56  57  53  20  18  18  28  38  40  30  18  16  15  30  38  35  34  34  35  39  49  44  31  28  23  24  26  31  42  43  39  32  35  37  42  48  54  61  67  56  33  19  25 116 122 131 134 137 138 136 140 139 140
 159 159 160 162 159 158 151 127  92 115  86  21  20  42  85  79  69  62  52  41  39  40  48  55  57  47  32  29  26  25  30  37  52  47  39  41  44  46  58  61  60  46  20  19  26  62  87  90  72  32  17  16  26  37  38  37  37  36  35  40  43  38  29  25  27  29  40  44  40  38  38  40  44  48  55  59  62  66  61  35  21  44 121 129 129 132 133 135 135 138 139 139
 158 161 163 162 161 162 153 130 101 113 110  39  21  34  90  85  76  67  58  53  49  49  50  54  56  54  40  30  30  29  33  45  46  40  40  45  51  56  60  62  60  38  20  17  77 120 123 125 114  83  21  17  22  40  41  43  42  40  38  37  40  42  39  37  38  43  44  43  41  40  43  48  50  57  60  62  63  66  65  39  19  77 127 133 132 135 133 134 135 138 140 140
 158 161 162 163 164 162 153 138 106 123 105  54  22  30  93  91  86  77  69  66  56  54  51  52  54  55  53  47  41  42  49  50  47  43  45  52  59  61  64  68  63  27  18  44 119 128 132 130 121 105  55  16  18  42  43  38  38  38  34  34  36  40  41  40  42  43  40  40  39  42  48  52  56  61  63  64  65  71  72  34  16 110 126 132 131 132 138 134 136 138 139 138
 161 162 163 164 164 161 155 142 115 132 109  64  23  25  88  94  92  88  82  75  67  60  53  51  52  54  54  55  54  49  48  45  42  44  50  55  61  67  74  76  57  20  18  90 123 131 135 133 125 107  85  27  18  32  48  45  42  40  39  40  40  41  41  42  41  40  39  40  41  44  49  56  61  65  66  67  68  72  65  25  30 119 128 126 130 134 136 134 134 138 136 137
 163 164 162 164 162 161 156 142 115 138  96  72  29  22  68  97  96  92  90  83  73  66  60  54  51  48  49  48  48  47  45  47  51  59  61  66  74  80  83  78  36  20  39 108 123 133 141 140 132 111  91  54  15  22  46  49  50  50  48  48  50  48  43  42  41  39  41  42  43  46  52  59  64  67  70  69  70  72  54  21  60 122 131 132 130 133 136 134 133 136 137 135
 162 163 162 164 161 161 154 134 127 130  91  64  41  20  43  97  98  98  93  89  80  72  67  60  57  53  50  50  51  54  56  62  66  71  75  83  87  86  87  67  21  17  84 113 124 139 149 147 141 118  96  77  26  16  40  52  51  53  53  53  53  54  54  51  50  47  47  47  50  54  57  62  68  71  71  71  71  70  36  23 100 124 127 132 130 134 136 135 134 137 136 138
 163 161 162 162 160 158 150 125 137 132  95  81  50  25  24  84 100 103  99  93  86  79  73  69  66  62  62  62  66  68  70  69  74  79  85  89  91  91  86  33  18  45 104 117 128 144 151 147 138 121 101  84  54  15  17  50  60  57  56  56  55  55  57  56  56  58  58  58  60  64  64  69  74  75  76  74  69  56  23  56 122 132 134 136 133 135 137 135 136 137 138 137
 162 161 162 160 161 157 148 126 143 139 101  86  52  52  20  47  98 105 104  99  92  85  78  74  75  74  71  71  71  71  72  73  79  83  88  90  95  92  46  20  22  85 109 118 132 145 154 149 138 121 103  85  72  32  16  22  58  65  63  63  61  60  59  57  55  56  58  62  65  68  71  76  79  79  78  75  59  35  20  94 125 132 134 137 133 135 135 135 137 138 138 138
 161 162 161 159 159 156 143 129 147 145 111  79  51  77  31  24  57 106 107 105  99  94  88  81  80  78  72  72  74  74  77  82  86  90  93  98  91  46  25  20  64  98 107 118 134 145 148 150 140 118 100  86  74  59  27  16  19  49  69  70  70  67  64  62  59  58  61  65  68  75  78  80  81  79  68  52  31  23  48 114 130 131 133 134 133 134 136 135 137 137 138 137
 159 158 159 160 159 156 140 136 144 146  99  67  52  75  80  22  24  50  90 105 103 100  92  85  82  76  70  72  76  81  87  91  93  95  88  62  35  23  25  44  92 100 110 121 135 144 146 148 138 118 103  90  77  66  50  28  18  15  22  41  58  68  71  70  68  66  65  67  68  72  72  69  57  41  31  21  21  52  69 110 124 132 135 135 132 136 137 136 136 136 137 137
 157 158 159 159 158 155 132 143 142 129 105  81  61  67  95  80  28  26  37  53  71  86  84  80  78  73  68  74  77  80  73  68  57  41  29  25  24  35  50  81  94 102 112 122 132 141 144 141 133 116 104  93  81  67  58  42  36  32  17  14  16  19  27  35  36  38  37  35  32  26  26  20  19  15  26  42  63  67  69  94 117 130 134 135 135 136 135 135 136 136 136 136
 156 157 158 157 157 151 126 142 144 132 113  82  69  64  93 100  96  65  35  22  25  29  32  39  42  42  40  36  34  32  30  25  18  20  33  43  48  52  72  87  96 104 119 126 131 136 141 139 132 114 105  97  85  68  60  49  44  47  54  49  43  35  31  27  23  23  21  25  31  34  36  44  51  61  65  66  68  63  64  86 111 130 134 134 134 135 135 135 135 136 136 135
 156 156 158 158 155 134 142 145 144 142 122  78  64  61  85  98  99 100  99  96  81  63  54  46  43  40  41  41  48  48  54  60  69  67  60  57  61  70  81  86  92 106 118 122 127 135 145 143 135 116 106  97  86  74  59  48  48  50  53  58  63  64  66  70  72  73  74  75  76  77  75  73  69  67  66  64  67  58  67  90 105 127 131 132 133 133 135 133 135 135 135 135
 157 156 156 155 153 131 148 145 143 136 120  84  56  56  75  95  99  98  98  98  97  96  96 100  97  96  93  90  91  86  81  76  71  69  68  72  76  77  78  82  94 107 116 118 126 136 146 146 135 121 108 100  88  77  63  51  48  54  55  58  61  63  65  67  68  68  71  74  76  76  72  70  69  68  66  62  66  51  68  99 114 122 129 132 132 133 133 134 135 135 135 134
 155 155 154 154 139 144 143 145 137 131 128  92  57  50  65  93  96  95  96  96  97  97 101 106 103 101  97  90  87  85  81  77  79  80  82  85  81  76  74  81  96 107 116 120 126 134 142 140 134 122 107  98  87  78  69  59  47  55  59  60  60  62  65  66  68  68  69  71  72  70  67  67  66  64  62  61  61  43  56  93 108 121 127 132 133 133 132 131 134 134 134 134
 152 153 152 147 133 145 138 142 134 131 132  94  63  49  57  88  93  93  95  95  95  97 101 103 106 100  97  92  90  88  89  88  85  88  88  84  78  73  76  88  99 109 115 118 124 135 136 135 126 113 105  97  85  79  71  67  49  50  58  63  65  64  65  67  69  69  72  71  71  67  66  65  63  61  61  59  56  41  67  90 105 123 129 132 133 133 134 131 133 133 133 133
 147 147 146 132 139 140 133 136 134 129 120  94  64  47  49  80  91  91  93  94  97  98 100  99 102 100  96  96  94  94  94  92  90  91  89  83  74  72  84  96 101 110 113 114 123 133 128 125 119 108 102  93  81  77  72  71  54  48  54  63  66  67  68  66  66  70  69  69  68  68  66  62  61  59  58  58  50  40  66  90 106 124 130 130 131 131 132 131 132 131 132 132
 147 145 140 122 138 137 138 135 135 126 120  92  59  44  48  71  90  92  96  96  97 100 100  98  97  96  95  95  97  96  98  95  92  90  85  77  71  71  91  99 101 106 109 112 120 127 119 111 107 100  93  82  76  69  68  70  64  47  52  60  64  66  69  67  68  68  68  68  67  67  64  61  60  57  55  54  42  37  72 102 118 126 127 129 131 131 131 131 131 132 132 132
 146 143 124 137 140 142 140 140 136 126 113  85  57  46  43  61  85  89  91  93  95  96  98  95  95  96  97  98  99  97  94  93  93  86  82  76  71  71  96 100  96  97  99 103 112 114 107  98  94  91  82  71  62  60  62  68  69  48  54  60  64  67  67  67  67  68  67  66  65  61  61  58  57  53  53  49  38  36  59  98 122 127 129 129 130 130 131 131 132 132 133 132
 144 140 125 140 141 143 139 137 137 127  96  76  54  36  37  50  78  87  90  92  91  92  93  95  96  99 101 100  99  94  91  90  87  83  81  76  72  72  95  99  91  83  79  79  87  94  92  86  81  76  65  56  49  50  56  64  66  52  56  61  63  66  66  66  66  66  65  66  63  58  56  53  53  54  52  43  34  32  53  98 118 125 128 128 129 128 129 128 131 131 131 130
 144 129 135 140 144 143 142 137 136 131 109  84  47  32  34  42  67  82  88  88  83  88  91  95 100  98  98  98  95  92  89  88  85  84  84  84  77  73  90  92  86  75  65  60  66  74  76  72  67  58  48  42  40  43  48  55  58  51  57  62  63  64  63  64  64  64  64  64  61  57  54  53  51  49  47  41  32  32  46 104 119 124 127 129 131 130 130 130 130 129 130 130
 141 127 137 140 141 140 140 137 135 127 115  87  49  34  31  39  56  77  83  80  76  85  92  88  93  95  92  92  92  92  90  89  86  88  87  88  84  77  82  78  68  60  53  54  58  62  66  62  54  46  42  38  31  33  37  42  47  51  60  64  65  65  64  62  63  63  61  59  60  55  51  50  48  44  41  35  32  31  42  95 120 125 127 128 129 129 128 130 131 130 128 128
 141 126 138 139 139 140 140 138 138 129 118  86  50  40  37  38  48  68  77  81  80  86  89  88  90  92  91  90  89  90  90  91  92  94  94  94  92  83  76  59  46  34  28  35  52  53  52  51  46  41  39  32  25  28  31  37  49  57  62  65  67  67  65  64  62  57  58  54  55  53  48  46  46  43  38  32  30  32  47  78 118 126 128 128 128 128 128 129 130 128 129 128
 136 132 139 139 139 139 140 138 136 128 125  89  50  41  37  39  50  62  76  82  79  82  82  85  89  90  89  87  90  91  92  94  99  99 100 100  96  88  77  55  41  33  31  37  44  50  46  46  42  38  34  30  29  29  31  43  54  61  65  67  68  68  67  66  60  53  53  52  50  50  46  45  42  40  32  30  28  30  46  83 109 121 126 126 128 128 128 128 131 129 130 130
 136 137 133 135 139 140 139 139 137 134 121  90  59  42  33  37  42  56  69  77  72  77  77  82  84  87  88  86  89  93  94 101 101 101 104 103  95  89  75  57  49  40  37  42  46  46  44  39  37  36  33  32  29  29  32  40  52  63  68  72  70  68  67  67  63  59  56  50  48  47  47  42  39  35  30  26  28  30  42  78 102 119 123 127 127 128 129 128 130 128 129 129
 137 139 140 141 141 141 142 142 140 135 118  93  80  39  39  41  43  47  62  72  72  76  75  80  81  83  85  89  93  96 101 102 104 105 105 104  93  85  69  50  45  40  40  43  41  44  41  37  36  37  34  32  29  28  28  35  47  59  64  70  71  67  67  66  65  61  56  50  47  43  43  40  36  29  28  25  26  29  38  77 103 121 124 126 127 127 130 128 128 128 128 128
 138 139 140 143 146 144 143 141 138 130 116  93  83  50  38  31  31  37  54  67  71  75  76  78  80  82  85  90  95 102 102 100 104 104 105 100  89  75  63  52  38  36  36  36  36  38  35  35  37  38  36  31  29  26  26  35  45  50  60  62  66  65  65  67  63  60  55  49  46  42  39  35  31  27  24  22  22  25  42  76 109 121 125 128 127 128 128 128 129 129 128 128
 139 140 144 144 143 143 143 144 142 135 124  91  79  53  33  32  29  34  49  59  66  70  72  73  76  81  88  93  96  97  98  96  98  96  97  94  84  70  57  49  38  35  34  34  35  35  30  30  32  36  35  30  28  27  26  34  40  46  52  58  59  57  61  63  62  58  52  49  46  42  36  31  28  22  21  22  22  26  41  81 105 117 124 128 128 128 128 128 128 128 128 128
 139 140 141 143 145 147 143 144 142 132 119 102  80  52  36  34  32  34  40  50  60  63  66  69  73  79  86  92  95  92  91  88  87  89  89  83  75  64  52  44  39  36  32  32  34  32  28  31  31  33  33  30  27  27  27  32  39  47  47  50  57  52  53  59  59  55  50  46  42  40  35  28  23  18  18  18  20  27  42  74 102 120 124 126 128 128 128 127 127 127 127 128
 140 141 141 142 145 146 145 144 141 135 119 106  86  64  47  35  34  34  35  41  51  54  60  68  71  79  87  91  89  85  84  85  82  81  80  74  68  56  49  44  39  36  34  33  32  31  28  33  34  34  33  31  29  28  29  29  37  46  45  48  51  52  47  46  49  49  47  40  38  34  30  26  20  16  16  18  20  31  55  82 106 118 122 126 126 127 126 127 127 126 128 128
 140 140 141 143 142 143 142 143 141 138 122 111  92  68  48  33  30  30  30  34  41  49  54  62  69  77  83  82  80  79  82  82  70  72  67  64  63  52  47  42  36  36  36  35  32  34  31  33  40  43  37  32  31  28  27  30  34  38  41  39  38  42  46  39  42  41  40  39  34  32  28  21  18  16  15  16  20  41  74  92 110 120 121 126 126 126 128 127 128 127 127 128
 139 139 142 144 144 143 142 141 140 135 122 109 110  86  46  32  30  30  29  29  34  44  48  58  67  76  74  71  75  76  80  71  64  59  54  56  56  50  47  43  38  36  44  39  38  46  48  49  52  57  54  39  34  30  28  30  32  32  32  29  28  30  33  35  34  38  36  36  34  30  26  21  16  16  16  16  18  33  84  98 114 122 124 125 126 127 127 125 128 128 127 128
 139 139 141 142 142 142 142 141 139 137 128 114 114  95  62  35  27  25  26  27  30  35  44  53  63  66  64  64  69  69  65  59  60  49  43  47  53  51  44  38  35  32  44  41  43  55  63  65  62  57  47  36  32  29  28  32  32  30  28  24  22  23  26  27  31  31  34  35  33  29  22  19  16  13  16  17  19  22  75 108 118 122 124 124 127 126 127 125 127 126 127 126
 136 138 139 141 142 140 141 139 137 138 127 115 118 101  71  40  26  21  21  23  25  28  41  48  58  62  56  59  59  58  48  51  51  35  34  40  48  47  43  37  33  33  36  37  37  40  43  47  44  36  35  34  31  28  26  26  26  26  22  20  19  20  24  25  28  29  32  33  32  29  22  16  15  14  15  15  18  17  43 110 119 123 124 124 124 125 126 124 126 125 127 126
 134 137 139 140 140 139 138 138 136 135 124 114 116 115  88  42  25  22  18  22  21  27  34  41  58  55  50  54  55  46  39  42  36  29  27  29  29  30  31  28  30  32  35  37  38  36  36  35  34  33  34  34  31  26  20  19  20  21  21  19  22  26  27  29  29  28  29  30  31  31  27  20  16  15  16  16  17  16  27 104 118 123 123 121 123 124 126 125 125 126 125 126
 132 135 136 137 136 138 136 136 134 132 122 122 111 103  85  51  28  25  21  19  21  23  31  39  50  51  49  47  44  39  34  33  31  30  27  27  30  35  34  33  30  27  29  32  32  31  31  31  30  29  29  26  23  20  22  25  26  27  23  25  27  30  30  29  29  28  29  30  30  27  28  25  22  18  16  18  16  15  17  90 118 121 121 122 123 124 124 124 125 125 124 125
 131 134 134 135 135 136 135 133 132 130 120 124 116 108  85  54  27  20  17  16  21  25  28  35  43  43  41  37  37  40  33  32  33  35  38  37  42  48  50  50  49  43  44  41  38  38  37  36  35  36  36  36  35  33  32  31  30  28  28  31  34  33  31  30  29  28  29  29  31  28  27  26  24  17  17  17  11  12  15  67 115 120 122 122 123 122 124 124 122 123 123 124
 130 130 133 134 134 134 133 130 130 129 121 124 122 110  87  53  26  20  19  18  18  21  25  35  38  41  40  36  37  38  38  39  41  46  49  48  48  51  53  54  56  60  61  62  58  54  54  53  54  51  51  49  44  40  36  32  29  31  34  35  35  34  33  32  28  25  25  24  24  23  24  25  25  22  17  14  11  10  13  57 113 119 120 122 122 122 122 122 122 123 123 123
 129 129 132 133 131 131 131 130 129 127 122 118 117 112 104  77  30  24  20  16  16  20  26  34  37  39  35  36  42  40  41  45  50  54  57  59  59  57  54  53  55  59  63  64  61  61  56  54  57  55  53  50  47  40  34  31  33  37  36  38  37  38  35  33  31  29  24  24  19  16  16  15  18  22  17  14   9   9  13  37 112 118 119 119 120 122 120 121 123 122 121 121
 126 128 130 129 129 129 128 127 127 126 119 113 115 111 104  92  34  20  22  20  19  21  28  32  35  31  33  35  38  40  44  50  56  57  59  62  63  64  58  56  51  52  55  57  56  55  52  53  53  53  49  45  38  34  32  34  38  38  37  36  38  39  36  32  31  29  26  22  19  16  15  16  16  19  18  12   9  10  14  29 108 115 117 118 117 120 120 120 120 120 120 121
 126 128 127 128 127 127 126 122 120 119 116 109 112 110 108  94  36  22  20  18  20  22  30  33  31  36  37  35  37  40  44  51  60  61  60  62  62  64  60  60  58  53  49  45  44  44  44  46  43  40  38  34  32  34  34  36  36  36  36  37  39  38  36  33  30  27  25  22  20  20  14  14  16  14  12  11   9   9  11  30 107 114 114 117 118 120 120 120 120 119 120 120
 123 124 124 124 121 121 119 117 114 115 114 109 108 107 106  97  41  22  19  20  26  31  29  25  29  34  33  34  31  36  46  53  62  67  68  65  62  59  58  54  51  49  48  42  39  36  36  35  34  33  32  33  33  32  34  35  35  35  36  38  38  36  34  31  29  26  20  16  14  24  17  15  18  14  10   9   8   9  10  16  97 112 114 114 116 117 117 117 117 118 119 119
 122 121 121 119 119 118 116 114 112 114 112 108 106 102 100  93  39  20  19  20  26  24  21  22  27  29  31  32  32  38  45  50  60  66  70  67  62  58  56  50  46  41  40  34  29  27  22  18  22  24  25  29  30  31  33  34  37  39  41  39  40  38  34  30  29  24  23  15  12  20  14  12  16  14  11   9  10   8   9  15  88 111 113 113 115 115 115 116 116 116 117 117
 119 119 118 118 116 116 114 113 112 111 109 107 104  98  63  60  41  18  19  19  20  18  18  20  23  26  30  30  33  38  40  46  59  67  70  71  67  62  55  52  48  43  38  34  31  28  22  17  19  23  22  27  28  29  33  37  40  40  42  44  41  40  34  30  25  23  21  22  18  18  12  11  12  13  10   8   9   9   9  13  93 109 112 113 114 114 114 114 114 115 116 115
 119 118 118 115 114 113 113 112 110 109 101  86  66  52  18  17  17  18  16  16  17  16  15  16  22  24  29  29  30  34  39  47  58  66  71  70  70  67  63  58  52  48  41  36  32  28  24  19  20  23  22  25  30  31  33  39  42  42  43  45  41  38  34  29  27  21  17  15  20  17  14  12  11  10   8   9   9   8   8  13  88 107 111 111 113 112 113 113 113 114 114 115
 117 117 116 114 114 112 109 107 100  55  29  17  15  15  13  12  13  13  13  15  16  13  15  19  24  24  29  28  26  30  37  47  52  55  54  49  58  63  69  67  59  53  46  39  31  29  25  25  22  25  26  29  32  38  38  39  44  46  45  44  43  44  35  29  25  22  20  16  17  17  14  14  12  12   8   7   8   8   9  21  33  98 108 111 110 110 112 113 113 114 112 112
 115 115 113 113 111 107  84  45  30  18  14  12  11   9   8   9  10  11  12  14  15  14  18  23  25  25  25  27  27  31  38  47  48  46  43  37  46  56  73  73  65  59  51  42  34  28  26  28  23  21  24  30  30  37  45  44  46  50  47  46  38  36  39  26  22  22  20  17  16  13  11  12  12  11   8   7   8   8   9  13  36  81 105 108 110 110 111 112 111 111 113 113
 114 112 112 108 100  67  28  17  15  12  10   9   8   8   8   9   9  10   9  14  15  20  23  24  20  22  22  24  26  30  45  47  46  41  35  36  45  53  70  71  70  61  53  42  33  27  28  26  24  20  20  26  32  35  42  49  49  48  51  48  43  30  25  29  24  19  16  16  14  12  12  13  11   9   6   7   7   8   9  10  12  12  57  98 107 108 109 110 111 110 110 111
 112 110 106  77  27  20  14  13  13  12  10   9   9   9   7   8   7   8  10  13  17  23  18  17  17  21  22  24  26  37  38  40  38  36  36  39  45  52  64  66  65  57  50  41  34  27  29  27  26  26  22  26  30  36  39  44  46  51  49  47  43  35  24  25  24  18  15  15  12  12  13  13   9   8   7   7   7   8   9   9   9  10  13  19  43  86 106 109 109 109 110 110
 107 100  54  25  14  13  14  13  11  10  10  10   9   9   6   6   7   8   9   9  14  18  17  16  17  20  22  22  22  36  37  36  39  37  38  39  49  50  56  58  58  52  44  41  34  28  30  29  26  28  26  30  30  36  44  42  44  42  51  46  41  33  25  23  22  19  18  13  11  12  13  10   9   8   7   6   6   8   8   8   8  10  11  12  16  28  49  96 108 109 107 109
  99  57  21  16  14  13  12  12  12  10   9   8   8   7   6   7   8   8   8  10  10  15  14  12  12  14  17  20  28  34  31  32  33  35  40  41  44  46  48  53  51  44  44  39  31  28  32  31  27  32  30  30  32  30  40  44  48  44  43  49  40  32  29  20  19  17  19  16  14  12  10   7   8   7   5   6   8   8   8   7   8   9  10  11  11  12  16  37  78  96 106 107
  28  18  15  14  13  12  12  11  11  10   9   9   7   6   6   8   8   8   9   8  10  13  16  14  11  12  15  21  28  28  29  28  33  33  33  37  41  45  42  46  43  38  42  36  31  29  30  28  28  31  31  32  31  30  35  38  42  39  36  35  40  32  26  18  17  16  16  13  13  13  11   7   7   5   5   6   7   8   7   6   8   8   9   9  10  10  12  14  16  49  96 103
  16  14  14  13  11  11  11  10  10   9   9   8   6   6   7   8   8   7   6   8   9  14  15  15  14  15  16  20  27  24  24  27  30  28  28  35  35  39  36  42  38  36  37  35  30  28  27  28  26  27  28  30  29  32  34  36  39  40  31  29  28  32  19  20  18  17  14  12   9  10   8   6   4   4   5   6   6   6   6   5   6   7   8   8  10  11  11  12  13  14  21  50
  13  12  12  11  10  10   9   8   8  10   9   7   5   6   8   7   5   5   7   8   9  12  11  11  10  11  15  17  21  16  17  23  28  25  27  33  34  32  31  39  33  34  36  34  31  27  26  26  24  25  25  29  28  30  32  37  36  37  30  29  21  25  18  19  16  16  12   9   7   5   5   4   4   4   4   5   6   6   5   5   6   6   8   8   8   9  10   9  11  13  14  14
  12  11  12  12  11  10   9   9   9   8   7   6   6   5   7   6   6   7   7   7   9   8  10   9  11  10  14  15  18  14  16  19  23  22  27  30  29  26  31  34  32  31  34  30  27  27  24  22  22  24  24  27  24  26  27  40  36  31  31  27  20  19  17  17  13  12  10   6   4   5   4   5   4   5   5   6   5   6   5   5   5   6   7   9   8   8   9   9   9  11  12  14
  11  11  12  11  11   9  10   9   9   7   5   4   6   8   7   5   6   7   6   8   8   8   7   8   9  11  13  11  15  16  15  15  19  21  22  28  24  24  34  35  29  30  28  25  24  24  20  18  22  23  26  23  23  25  29  40  39  26  29  26  18  17  15  15  11  12  10   4   4   4   4   4   5   4   5   4   5   6   6   6   6   5   8   8   7   8   8   7   9  10  11  12
  11  12  11  11   9   9  10   9  10   8   4   4   4   5   5   6   6   6   7   6   8   8   6   8   7   9   9  10  10  10  14  14  17  20  21  21  22  25  30  29  24  28  24  21  26  24  19  20  23  20  20  18  24  27  32  36  33  26  25  20  17  16  13  13  10  10   9   6   4   4   4   4   4   5   4   4   4   5   5   6   6   7   6   7   7   8   8   8   9  10  11  11
  11  11  10   8   9  10  10  10   9   6   5   4   6   6   6   7   6   6   5   4   5   5   7   7   5   6   6   8  11  11  11  12  16  15  19  16  22  22  24  25  19  24  19  22  21  19  17  20  19  16  17  15  21  28  24  31  25  24  20  17  14  14  12  11   9   7   6   5   5   4   4   4   4   5   4   4   4   5   5   5   5   5   6   6   7   8   7   8   9   9   9   9
  11  11  11   8   8  10   9  10   7   5   5   5   6   5   5   6   6   5   5   5   5   4   5   5   5   5   4   7   9   8  10  15  16  13  14  14  19  16  19  19  17  21  17  18  15  16  15  15  14  15  16  19  16  21  23  24  22  22  18  14  12  15  10   9   7   6   4   3   4   6   4   4   4   4   4   4   4   4   4   4   4   5   5   5   8   7   6   8   8   9   9  10
   9  11  11   9   6   8  10   8   6   6   6   5   5   5   5   5   6   5   4   6   6   4   4   4   4   4   4   4   6   9  13  13  14  10  12  14  16  17  17  13  16  16  16  14  13  12  13  10  14  15  14  13  16  20  21  19  20  17  18  12  13  14   9   7   5   4   4   4   4   5   4   4   4   4   4   4   4   4   4   4   5   4   4   4   6   6   6   8   7   8   9  10
   9  11   8   8   6   7   9   7   6   6   5   4   5   4   5   5   5   4   4   4   5   4   4   4   4   4   5   5   5   7   8   6   9  10  13  13  12  14  15  13  15  14  15  11  10   8  11  10  11  11  11  13  14  18  15  17  18  14  14  13  14  10   7   6   4   4   4   4   4   4   5   3   2   4   4   4   4   4   4   4   4   5   6   5   5   6   7   7   7   6   8   7
