P2
# Generated by OpenCV 3.4.0
92 112
255
 188 188 188 188 189 189 188 189 191 191 191 192 193 190 192 189 190 190 190 188 187 187 185 186 183 175 178 177 177 177 173 174 175 175 179 177 174 176 180 176 170 158 170 173 178 177 178 177 173 165 170 164 171 177 175 182 180 182 182 184 184 170 164 170 174 175 175 178 181 183 185 184 184 185 186 185 186 185 185 185 186 186 184 183 184 184 185 185 184 184 184 182
 187 187 189 188 188 188 189 188 189 191 190 191 190 190 191 190 189 188 189 189 190 185 184 184 178 173 176 177 164 160 150 151 158 162 175 164 161 162 165 164 159 153 154 161 169 166 168 174 159 155 161 149 153 162 162 177 174 182 183 182 172 162 174 173 175 173 170 165 163 175 183 183 185 186 186 185 186 186 186 186 187 186 185 185 185 185 185 185 184 184 184 182
 186 186 188 188 186 188 188 189 188 188 189 188 189 189 190 190 188 189 188 188 186 185 185 183 177 174 167 162 150 140 133 131 129 135 142 142 128 113 119 131 117 112 131 140 143 146 147 160 141 127 137 136 142 149 148 169 167 174 178 174 169 173 164 165 162 162 166 171 173 170 176 182 185 186 186 186 186 186 187 186 187 187 186 185 185 185 185 185 184 184 185 184
 186 186 187 188 188 188 187 188 187 189 187 188 189 189 190 189 188 187 187 185 185 183 184 182 179 178 175 157 133 130 115 112 106 111 113 111 100  94  88  94  97  93  92 100  99 101 105 101  97  91  95 109 130 122 128 147 146 149 164 167 171 157 152 157 163 166 170 174 176 175 174 176 182 185 186 187 184 185 186 186 186 185 185 185 185 185 184 184 184 185 184 182
 186 185 187 186 187 187 187 188 188 187 187 187 188 190 190 187 186 186 184 181 180 178 177 181 177 175 159 129 105  91  88  89  91  88  96  96  90  82  83  81  85  90  86  88  91  86  90  89  84  77  81  80  95  97 102 112 126 140 148 157 154 149 153 166 169 176 179 177 176 178 179 176 180 184 185 186 186 185 186 186 184 185 184 185 185 183 183 183 182 183 183 184
 186 187 187 187 186 186 185 187 187 187 186 187 188 188 186 187 185 182 178 177 175 171 163 152 156 160 124  84  80  78  82  83  86  84  83  81  83  77  72  76  81  76  84  83  86  80  84  85  82  71  76  73  80  85  89  94 114 128 140 152 147 142 154 161 160 158 168 171 173 175 175 179 180 184 185 187 187 187 186 187 185 187 186 185 186 185 184 186 183 183 183 183
 185 186 186 187 187 187 184 186 185 187 187 188 186 186 186 184 181 179 180 176 172 158 143 131 127 129 113  88  76  71  82  85  84  79  77  75  71  74  70  70  76  76  72  77  81  86  82  83  76  71  73  70  74  81  78  83  97 105 127 136 140 147 144 153 156 152 161 166 167 173 175 180 182 182 185 186 187 188 187 189 186 187 187 185 185 185 185 186 183 184 185 185
 185 185 187 185 186 186 187 186 185 185 185 188 186 185 184 181 182 177 174 171 159 142 129 124 111 106  99  89  81  78  79  77  78  75  68  68  71  72  73  74  74  77  79  84  88  93  90  86  82  78  71  69  68  72  70  71  75  86 103 121 137 132 144 154 154 157 156 152 153 166 173 176 180 182 180 184 185 184 185 184 186 185 186 186 185 185 186 184 183 185 184 185
 186 186 185 185 186 186 185 186 186 185 185 186 186 184 181 184 176 178 174 170 153 146 133 122 106 100  95  87  81  71  72  72  69  68  70  70  75  85  89  93  92  98 102 110 114 118 118 114 104  97  80  72  69  69  67  64  69  72  81 100 118 122 135 142 151 160 167 165 158 148 162 174 179 184 183 185 187 186 187 186 186 185 186 184 184 184 184 182 181 182 185 184
 185 185 187 186 187 185 184 186 187 186 186 188 187 186 182 183 174 170 165 151 142 128 111  98  90  88  82  78  71  66  66  66  68  72  77  86  95 109 118 122 124 132 135 137 142 145 143 147 139 134 116 104  95  82  75  69  70  68  69  79  91 101 118 134 146 152 155 163 167 155 148 167 172 179 184 184 186 186 187 186 186 187 186 185 186 185 185 185 184 186 185 185
 186 184 186 186 186 185 186 185 187 186 187 186 185 185 179 179 173 168 153 152 143 124 105  99  96  90  83  74  70  70  69  67  78  92 101 114 125 135 145 150 153 160 160 160 160 160 161 162 158 156 150 145 135 116 101  96  86  76  70  74  79  87 109 134 149 150 142 147 164 163 156 149 164 177 186 185 186 185 186 187 186 186 185 186 185 185 185 186 186 186 186 185
 185 185 185 186 186 186 186 187 188 186 186 183 185 184 180 175 166 160 145 133 124 116 107 101  94  82  68  66  76  77  81  91 110 123 129 142 153 162 167 171 170 173 173 169 169 169 168 167 164 164 160 158 153 144 133 124 114 100  82  74  73  81 111 136 149 159 160 146 144 149 167 152 151 172 182 185 188 188 189 188 186 186 186 185 185 184 187 186 186 186 185 186
 186 184 185 185 185 185 185 187 188 188 184 184 185 181 177 171 154 145 134 124 119 112 105  92  78  71  71  80  88 102 121 126 140 153 160 165 172 177 180 181 180 179 178 175 175 174 174 171 169 167 165 161 159 154 149 139 134 125 108  91  76  72  83 104 123 140 145 147 136 141 155 161 151 157 178 180 186 189 189 187 187 187 185 185 185 185 186 187 186 186 186 185
 185 185 185 185 186 187 186 188 187 187 184 185 181 176 169 149 138 141 141 122 110 113 105  89  80  80  90 103 117 132 142 152 162 166 170 177 184 186 186 188 188 184 183 181 181 178 176 173 170 168 166 162 159 157 152 144 139 137 129 118  96  76  72  85 103 119 125 126 132 127 144 159 157 158 172 177 182 186 188 188 188 187 188 187 187 187 186 187 187 185 185 185
 186 186 185 184 184 186 187 188 187 187 185 181 174 170 155 141 141 158 140 117 113 110  92  86  87 102 117 130 140 150 158 165 170 176 183 188 190 192 192 195 190 190 186 183 182 181 177 172 170 166 164 161 160 156 154 150 143 139 136 131 121 100  76  71  84 103 117 132 127 127 123 144 161 165 171 179 180 182 188 189 189 186 187 186 188 187 187 188 186 187 186 186
 185 185 184 183 184 185 186 188 188 188 184 181 176 161 150 152 155 133 107 107 110  94  86  99 114 128 142 150 156 163 168 175 182 189 190 191 196 199 201 201 196 189 185 185 186 182 179 175 168 166 164 161 160 159 154 152 148 143 139 137 131 123 104  77  82 104 118 114 117 132 120 121 147 165 171 177 186 181 184 187 189 188 188 188 187 187 187 186 185 187 188 186
 185 186 186 185 184 187 189 188 188 186 186 179 176 157 166 158 144 112 105 108 100  90 100 121 136 147 158 159 164 171 177 183 188 192 194 197 199 199 198 197 195 190 187 186 184 183 179 175 170 165 165 163 161 159 159 153 151 146 142 139 137 131 121 100  76  85 107 112 115 124 131 120 129 153 167 177 186 186 180 187 189 187 186 186 187 187 187 187 187 186 187 186
 186 185 186 186 185 188 188 189 188 186 186 182 173 164 167 148 118 109 114 108  92  99 124 143 152 157 159 163 170 179 184 186 189 191 192 194 195 193 194 193 190 187 185 182 183 182 179 177 173 167 164 163 163 161 159 154 148 145 143 141 138 134 127 121  94  77  85 101 104 109 116 139 123 127 163 176 184 188 184 186 188 187 186 188 188 188 188 189 188 188 187 188
 186 187 187 187 187 187 188 189 186 185 187 185 178 173 162 121 104 108 108 101  96 121 141 150 156 160 163 166 174 180 184 184 188 188 190 191 190 186 186 185 184 183 182 181 180 181 176 175 173 166 163 162 161 160 155 150 146 142 142 138 136 134 130 125 115  87  83 100 106 113 120 135 135 120 154 173 182 186 186 185 186 186 185 188 188 188 188 189 188 187 187 188
 188 187 186 188 189 187 189 189 186 188 185 187 187 180 148 112 100  99 106 101 115 142 148 151 156 161 164 166 171 177 180 181 181 183 185 186 183 183 183 179 180 180 180 178 177 177 175 170 167 158 159 161 160 158 154 148 143 140 137 136 132 131 131 127 123 105  80  82  91 104 113 121 132 124 137 170 181 187 187 186 184 182 185 185 185 186 187 187 187 188 186 188
 186 187 188 188 188 190 188 188 186 187 188 187 187 172 122  98  89  94  98 108 135 148 149 153 157 159 162 165 169 171 172 174 179 182 182 182 179 180 178 176 177 178 176 176 175 175 171 168 163 159 157 158 158 155 150 144 140 138 135 131 131 130 130 130 126 117  96  74  72  81  93 107 111 123 128 162 180 186 188 187 187 186 187 187 188 188 187 189 189 188 187 187
 187 188 188 189 188 190 189 188 186 188 190 189 188 161 102  82  82  87  94 127 141 151 151 156 158 158 162 164 167 169 169 171 175 176 176 175 175 174 172 173 173 174 175 176 173 168 165 163 157 154 151 150 151 147 144 140 139 136 133 132 133 131 129 128 126 122 112  80  68  76  91 100  98 101 124 151 179 186 188 188 189 188 189 188 190 189 189 189 188 188 188 187
 188 188 189 188 188 190 189 189 187 187 189 190 188 140  92  74  79  87 108 138 148 151 155 156 157 157 160 162 164 165 168 170 170 173 174 173 170 170 167 168 170 171 174 171 169 165 162 157 153 150 147 143 146 142 141 138 133 132 131 132 133 131 129 128 126 125 120  96  72  72  79  88  97 100 109 144 178 185 187 188 187 189 187 188 189 190 189 190 189 190 189 187
 188 187 189 190 189 190 190 190 189 189 189 189 186 139  80  70  77  87 120 142 152 154 154 155 156 154 158 159 163 164 167 170 169 169 168 168 169 168 165 166 167 169 167 166 165 160 156 150 148 148 143 142 140 137 134 133 131 131 130 129 129 130 128 128 127 126 124 112  84  73  72  86  95 118 122 140 177 186 187 189 186 188 189 190 190 190 190 189 189 189 189 189
 190 189 189 188 190 191 190 191 191 190 190 190 186 122  66  71  75  95 129 145 153 154 153 154 156 156 155 155 160 163 165 168 167 167 165 166 167 165 162 162 164 163 163 162 159 156 152 146 144 144 139 140 137 135 132 128 128 127 126 126 127 126 126 128 125 126 126 120  99  74  71  71  97 107 144 148 173 184 186 188 188 188 189 189 190 190 189 188 188 188 187 185
 188 190 190 189 191 191 191 190 192 190 190 191 185 118  69  72  83 106 136 147 154 152 154 154 152 152 154 154 158 159 160 159 162 163 164 165 165 162 162 161 161 159 158 156 154 150 148 142 142 140 138 139 136 134 132 126 125 125 124 124 124 125 126 125 124 125 127 123 109  85  72  66  74 103 110 143 164 182 185 187 188 189 189 188 188 188 189 187 188 188 187 188
 191 190 191 190 190 192 191 191 192 191 190 190 186 130  70  79  87 123 142 148 152 151 151 150 150 150 151 155 153 154 155 158 161 158 162 161 161 159 154 157 159 157 158 157 154 150 145 142 141 140 140 139 136 133 131 130 128 127 125 126 125 125 125 123 123 123 124 124 114  96  75  72  67  82 121 127 151 176 186 187 189 187 188 189 187 188 188 188 188 189 189 188
 189 189 191 190 190 191 191 191 190 191 191 190 185 133  84  81  96 132 143 151 151 152 151 148 151 150 149 151 152 152 154 155 153 157 161 160 161 158 156 158 157 158 150 147 146 144 142 143 141 139 141 138 136 135 132 131 129 124 125 126 126 126 126 123 123 123 123 120 117 103  79  73  66  73 109 127 137 163 183 186 189 188 188 187 189 188 189 188 189 188 189 188
 188 191 191 191 190 190 191 191 191 191 192 190 186 120  88  82 103 136 145 151 148 150 151 149 150 150 149 150 150 152 155 157 158 159 160 159 160 158 158 156 155 153 150 147 147 144 143 145 141 141 142 139 136 136 134 132 132 130 127 129 129 126 127 121 122 122 119 118 114 105  84  72  66  64  79 138 125 153 177 186 187 187 189 187 188 189 187 190 188 188 188 189
 190 190 191 189 188 190 191 191 192 192 191 190 184 115  82  88 107 140 147 149 148 148 147 148 148 151 152 151 152 158 160 160 161 161 162 160 159 156 157 154 154 150 149 148 147 144 142 143 142 143 141 138 140 140 140 138 136 134 131 133 129 128 126 124 121 121 117 114 110 106  88  68  65  61  68 118 132 145 175 184 185 186 186 185 189 187 187 188 187 187 189 187
 190 190 191 190 190 191 191 191 191 190 192 188 170 110  82  86 112 142 145 147 147 146 147 149 148 152 154 155 159 162 162 163 165 165 165 163 159 159 155 151 151 147 144 144 142 143 145 145 144 146 145 146 146 145 144 141 138 137 137 136 132 127 124 124 121 118 114 112 109 105  88  68  58  58  65 105 138 146 173 183 184 186 186 186 187 187 185 186 187 187 187 188
 189 190 191 190 191 191 191 192 192 192 193 187 157  98  75  80 115 138 145 146 147 143 146 148 151 154 156 157 160 162 164 166 168 168 170 166 161 159 156 155 152 150 146 144 142 142 143 146 147 147 151 151 148 148 147 144 143 139 137 134 132 131 126 124 122 119 112 110 108 103  89  65  57  55  61  96 132 155 173 182 183 185 185 185 186 185 186 186 185 186 187 186
 188 190 192 191 192 193 191 192 192 192 190 188 141  97  69  82 114 137 143 145 144 144 148 149 152 156 162 162 161 164 169 172 173 172 171 171 168 163 157 152 152 149 147 147 145 146 146 145 142 145 151 154 152 150 148 143 140 139 136 135 136 133 129 126 122 117 111 110 106 103  89  63  54  53  62  76 121 151 170 177 182 183 184 184 184 184 184 184 185 185 185 185
 190 190 191 190 192 191 191 192 192 191 190 186 131  86  73  83 110 134 142 143 145 146 147 149 152 157 164 166 166 167 170 171 172 170 172 172 168 165 162 158 155 151 148 147 144 146 144 147 144 148 154 153 150 146 145 141 138 136 137 137 137 136 132 126 122 118 113 109 105 102  90  62  49  52  57  73 113 140 172 178 182 182 184 183 182 184 185 185 184 184 185 185
 191 190 190 190 191 192 192 192 191 191 189 181 130  83  77  79 107 133 140 142 142 142 147 150 155 162 165 168 168 168 170 170 171 172 171 171 169 166 161 160 155 154 151 151 147 147 148 151 150 154 154 152 146 141 141 138 139 138 139 140 138 138 137 128 123 121 114 109 101 100  93  66  49  50  52  74  94 129 168 175 179 177 179 180 180 181 182 183 182 184 184 184
 189 190 191 190 192 192 192 191 189 190 190 178 140  91  74  73 102 131 138 141 142 144 148 152 158 164 166 168 166 167 169 166 168 168 170 166 164 164 159 159 158 155 153 152 150 152 150 149 149 149 147 148 146 143 140 139 139 138 137 138 140 138 137 132 127 119 117 109 102 101  93  66  47  48  61  71  93 136 162 174 175 178 178 181 181 179 178 182 182 182 184 183
 190 191 190 190 191 190 191 192 191 192 190 183 140  95  72  71  98 131 138 138 141 145 152 158 163 168 169 167 166 164 163 161 162 162 160 161 158 159 159 155 154 156 154 152 149 150 145 146 146 144 143 142 139 138 137 138 137 137 136 133 133 134 133 127 122 116 116 111 102 100  97  68  44  47  61  84 105 145 168 173 172 175 176 177 177 178 179 180 181 182 182 182
 190 191 191 190 190 190 191 191 191 191 191 184 124  87  70  66  92 130 135 137 143 148 152 160 168 171 168 166 166 164 160 157 156 157 154 152 149 144 147 144 148 151 150 147 143 142 138 138 139 134 131 132 130 129 127 126 128 125 121 114 114 114 113 113 110 104 106 109 104 101  99  73  41  46  64  90 112 151 163 170 173 175 176 176 178 176 175 178 178 181 180 182
 189 191 191 190 190 191 190 191 190 191 190 188 145  85  66  63  92 128 135 137 142 149 154 159 166 167 164 163 159 156 153 151 152 150 145 143 140 138 137 136 141 144 144 140 134 136 133 128 127 125 121 114 106  97  93  91  89  93  91  86  87  89  88  91  90  89  93  96  96  97  98  80  41  48  70 106 124 150 163 172 173 175 176 176 176 178 175 176 178 180 179 179
 190 190 190 188 190 190 190 190 190 191 189 187 151  91  66  56  88 131 136 138 143 150 150 144 145 147 146 144 136 132 136 141 135 131 128 126 125 131 131 132 136 136 134 132 132 130 125 121 116 112 102  92  78  71  64  55  54  53  54  59  62  66  64  70  69  73  77  74  80  85  95  84  41  50  73 111 130 155 168 170 173 172 173 174 175 175 175 175 177 178 179 178
 190 190 190 192 191 190 190 189 191 191 191 185 140  85  62  51  85 129 135 135 141 137 130 125 123 119 110 109 112 112 107 101  92  87  85  90 101 110 116 121 125 126 125 125 123 122 115 110 104  88  76  71  61  53  45  43  38  40  41  41  42  47  51  57  63  62  68  66  68  74  84  88  41  45  73 101 130 150 160 168 172 170 169 173 175 175 176 176 175 178 177 178
 191 190 191 190 191 191 190 191 191 188 188 180 126  74  67  50  86 131 134 134 123 114 108 103  96  92  91  95  93  83  74  67  62  56  60  64  71  79  92 103 111 116 115 115 114 113 106  95  88  68  59  59  50  43  39  35  36  36  40  43  43  44  44  44  45  43  46  44  46  48  50  52  40  41  62 110 124 153 162 163 164 169 171 173 174 174 176 174 174 175 177 177
 192 190 191 190 191 191 191 190 191 191 187 173 120  72  89  50  80 118 106  84  76  65  60  58  56  53  50  50  54  52  49  49  49  49  49  50  52  61  68  81  93 102 107 107 106 102  96  89  74  58  52  48  44  46  50  43  38  32  29  26  27  30  31  33  34  35  35  35  34  30  27  26  26  27  28  26  41 110 156 161 166 167 172 174 173 174 176 174 174 177 176 175
 191 191 191 190 191 192 193 192 191 192 185 163 105  65  74  55  47  36  32  33  31  33  45  48  53  53  52  47  47  45  42  43  41  38  33  32  35  41  49  58  70  85  98 103 100  96  86  74  59  52  51  52  45  35  29  32  38  42  44  46  48  50  51  56  52  52  58  62  65  68  62  52  36  26  35  60  44  88 149 160 166 167 172 172 172 173 174 174 173 176 175 176
 192 192 192 193 193 194 194 194 195 190 176 155 103  36  33  26  32  32  43  59  76  83  78  78  78  76  77  72  69  66  64  64  64  60  44  40  38  38  36  31  37  48  63  73  82  79  73  62  49  43  38  29  33  39  50  51  48  41  38  38  40  39  35  39  37  40  47  52  60  65  64  64  61  36  34  47  39  80 138 155 167 170 170 170 172 172 174 172 173 174 175 175
 193 192 194 192 195 195 195 193 193 184 172 161  99  59 146 104  30  54  89  89  86  82  78  78  78  73  69  67  64  62  64  64  66  66  52  48  50  55  60  51  33  33  36  37  39  37  33  29  27  28  30  41  45  46  51  48  44  41  40  36  40  37  37  39  31  33  35  42  53  60  63  66  62  43  26  27  27  98 144 155 165 170 171 170 170 172 172 173 173 173 174 175
 194 194 195 194 196 195 196 196 193 184 178 160  98  38  34  33  35  82  84  82  79  75  64  59  56  52  50  51  52  52  55  61  60  57  42  45  51  58  63  65  56  31  33  33  34  29  27  26  25  26  46  47  42  40  43  48  48  51  35  34  43  38  40  64  47  32  32  36  48  58  64  68  70  57  30  28  39 141 150 155 164 167 170 172 169 171 172 173 173 173 173 173
 194 196 197 195 198 197 198 196 193 187 176 148  92  43  31  31  44  83  78  74  68  60  50  45  46  52  60  51  52  50  53  66  74  60  42  39  45  56  63  65  68  39  32  30  32  28  26  25  24  26  53  50  40  39  43  49  60  55  39  34  34  34  36  54  58  41  33  34  44  55  64  70  78  68  33  28  86 152 158 160 162 166 167 171 171 169 172 172 172 173 172 173
 195 194 196 197 199 198 200 196 194 192 177 143  94  93  26  30  54  84  78  71  61  52  44  40  52  70  59  57  61  50  53  62  84  69  50  43  47  55  61  64  70  43  31  28  29  29  26  25  26  27  55  55  46  40  44  53  64  60  36  38  35  37  42  61  64  54  39  35  44  55  67  73  81  71  33  23 122 152 160 164 162 165 164 168 171 170 172 172 172 172 172 172
 196 195 196 197 198 198 198 195 193 194 176 136 106 128  33  30  55  91  84  72  61  52  38  40  61  80  62  53  49  52  53  63  88  79  66  56  58  67  77  77  80  35  30  30  47  64  56  34  27  27  51  63  57  53  56  57  68  79  58  48  46  48  60  71  68  59  48  45  50  60  71  78  84  75  33  34 140 156 159 166 164 166 168 169 170 169 172 171 170 171 173 172
 195 197 196 196 198 197 196 195 192 191 168 125 116 141  45  31  48 101  93  79  70  55  45  47  70  82  74  56  55  56  60  84  93  82  71  65  69  75  89  84  79  33  29  56 122 138 129  95  30  28  46  63  62  63  64  62  65  73  86  76  70  73  79  74  67  61  58  60  64  72  79  83  88  81  32  55 139 153 156 161 164 166 169 171 169 172 172 171 172 171 172 173
 196 196 196 198 197 196 196 193 193 192 170 130 122 135  60  32  41 107 101  88  77  67  60  58  71  84  86  80  67  67  85  97  88  76  71  77  81  87  92  91  65  34  37 137 159 165 159 141  75  28  37  71  70  72  72  68  68  75  80  80  80  78  77  71  66  64  69  76  78  84  87  88  90  77  31  81 134 153 155 156 161 165 166 170 169 170 171 172 172 171 172 172
 195 195 196 195 194 193 196 193 192 186 168 128 128 128  82  36  37 111 110 102  90  83  76  72  72  80  82  86  91  92  88  85  81  74  77  88  93  98 103  97  52  31  86 152 174 180 169 148 116  37  29  65  74  74  74  72  72  69  68  68  69  68  65  62  64  68  75  84  89  92  92  92  93  67  30  93 126 150 160 165 164 164 167 169 169 168 171 171 171 172 173 171
 194 193 194 195 195 194 195 192 192 188 169 134 136 137  78  45  33 104 119 114 105  98  92  87  78  74  72  72  73  75  72  70  71  75  81  88  95 103 106  92  35  34 127 163 181 185 177 160 128  73  27  44  80  71  70  70  69  72  69  66  65  64  63  65  67  72  79  87  93  97  96  94  98  53  39  99 126 147 157 163 162 165 168 169 168 168 170 169 170 172 172 171
 195 193 192 195 193 194 192 194 194 187 170 135 144 132  80  61  30  82 124 123 118 110 100  95  85  79  77  74  73  72  75  75  78  83  86  94 103 110 113  65  32  77 146 168 184 185 181 163 137 106  34  26  82  87  81  77  76  76  77  75  72  71  70  72  76  81  87  91  98 102  99  98  91  34  46  99 127 154 155 156 164 164 166 167 168 169 170 171 172 172 171 169
 193 192 193 193 193 194 193 194 193 185 175 134 163 120  82  77  42  48 124 126 126 118 108  99  93  87  82  79  79  85  87  88  89  91  98 109 115 119 104  36  33 120 153 166 186 190 180 165 140 116  70  25  41  97 102  98  95  89  88  85  82  83  83  83  86  90  93  99 104 106 104 101  64  33  59  96 133 150 160 159 162 164 165 164 167 168 171 172 170 172 172 170
 193 192 193 193 192 194 194 195 188 186 176 146 158 113  74  81  85  32  95 130 133 123 117 108 100  95  91  87  91  94  96  98 102 108 116 122 125 117  54  28  78 133 153 167 184 187 180 160 134 118  96  43  25  53 107 114 112 110 104  97  92  90  87  89  91  93  99 105 111 109 104  74  34  52  72 120 145 154 160 163 162 165 165 166 167 168 169 169 170 171 169 171
 191 191 192 192 194 194 194 194 188 188 176 150 155 112  89  79 122  41  42 112 136 135 126 115 104  97  96  94  98 104 109 112 119 124 125 126 112  58  31  46 115 137 154 169 182 187 179 156 134 119 101  82  32  26  42  85 116 119 116 111 106 100  99 100 101 101 103 106 106  90  65  34  41  88  72 127 150 158 162 164 162 164 167 165 169 170 170 169 169 171 169 169
 191 190 191 192 194 192 191 191 186 184 174 153 163 125  96  74 121 109  30  43  99 135 132 121 109 106 103 101 107 113 118 120 123 122 105  75  39  31  47  97 122 142 151 165 178 184 178 154 135 123 109  89  70  44  31  23  36  61  77  85  91  91  87  87  84  80  71  59  44  36  30  57  96  91  79 138 151 156 159 162 163 165 167 167 170 170 169 169 168 170 169 170
 189 189 190 191 191 191 191 190 184 181 163 167 170 126  81  72 117 130 111  46  33  54  73  89  96  99  99  98  98  98  95  85  68  48  32  31  46  63  86 115 129 148 154 162 174 184 177 156 139 126 112  91  80  64  57  53  40  35  26  26  30  30  28  26  24  28  33  44  51  69  86  94  97  87  80 129 148 155 161 162 165 163 165 166 167 168 169 168 170 170 169 170
 189 189 189 190 189 189 190 189 183 179 157 167 159 118  82  75 108 130 133 131 107  70  47  41  36  33  37  35  32  32  35  41  57  71  86  87  79  86 105 112 131 145 150 159 177 188 179 159 141 127 113  97  81  71  69  66  66  69  73  76  81  87  94  99 105 108 101 100  97  94  90  91  96  82  81 114 142 155 162 162 163 162 166 165 168 167 168 168 169 170 170 169
 185 186 188 187 186 187 187 184 180 175 155 167 148 126  99  80 103 127 132 132 130 126 128 131 133 128 114 110 115 118 125 129 116 101  95  93 101 104 105 110 134 143 149 160 174 182 178 164 142 128 116 102  87  73  76  78  78  74  74  74  78  79  87  96 102 104 102  98  97  95  89  88  92  78  81 103 128 154 160 158 160 162 165 164 166 165 167 167 168 168 169 168
 184 182 184 184 184 183 183 182 178 160 162 164 157 138 103  74  90 122 130 130 127 129 130 134 136 133 128 127 127 126 122 112 106 106 108 111 111 104 103 115 138 143 148 161 174 174 170 153 140 129 117 104  96  78  76  87  91  87  86  83  83  82  83  87  92  95  99  98  95  90  88  86  89  68  78 113 134 153 160 161 161 162 164 163 165 166 166 167 168 168 167 168
 184 183 184 183 182 183 183 182 175 156 167 167 163 147  86  76  82 114 127 127 125 128 131 132 136 138 140 134 133 125 121 119 116 117 122 118 110 100 106 126 139 142 144 157 168 164 160 147 137 124 110 105 101  87  72  84  95  98  98  97  92  90  88  88  89  87  92  95  94  89  85  85  81  59  69 118 138 147 160 161 160 163 165 164 166 166 167 168 167 167 166 167
 183 183 183 182 181 182 182 181 164 163 169 169 162 138  89  72  74 105 121 122 126 128 132 133 137 136 135 132 132 128 129 129 127 125 123 117 106 100 118 134 137 139 140 152 159 147 139 133 125 111 101  98  98  98  74  79  92  97  99 100  98  96  94  92  90  86  88  90  90  88  84  82  74  54  60  98 128 149 157 158 158 163 164 163 165 165 166 166 167 168 167 167
 181 182 182 181 180 181 181 178 162 170 166 167 159 134  97  68  70  92 119 120 126 131 133 134 134 132 130 131 132 132 133 132 128 124 121 111 103  99 130 137 129 123 121 131 140 133 123 118 108  92  86  86  92 103  81  77  88  97  98 101  99  98  98  98  92  87  84  86  88  87  85  79  65  49  71 104 129 149 156 158 160 160 162 161 164 164 165 166 167 167 168 169
 181 181 179 180 181 181 178 170 171 169 167 163 146 136 101  68  64  81 114 119 125 126 128 128 128 130 133 134 136 134 132 129 127 125 120 112 107 102 130 132 115 101  93 102 112 112 106  95  80  70  66  74  84  95  86  80  89  95  98  99  99  99  98  95  92  83  81  83  84  82  80  74  57  49  72 116 140 151 156 159 162 161 162 161 161 161 163 166 166 167 167 167
 181 179 180 180 180 180 174 156 172 169 166 159 151 134  95  68  63  71 106 114 123 124 123 126 129 133 135 134 136 132 131 125 122 121 120 117 112 104 122 116 103  88  78  83  91  94  87  75  66  62  57  62  70  79  84  89  95  99 101 101  99  97  97  96  92  86  82  82  82  81  75  66  53  49  66 109 144 152 156 160 162 162 162 161 163 164 162 163 165 167 166 167
 179 178 179 179 178 176 161 165 171 168 161 157 145 120  94  63  52  60  92 105 119 122 113 120 128 128 132 130 130 130 128 127 125 123 125 126 121 106 105  94  73  56  55  78  78  78  74  68  62  54  37  44  52  62  84  99 106 107 106 103 102 101  96  92  88  83  79  79  74  73  70  63  50  44  54 100 139 152 155 159 161 161 161 160 161 164 165 164 164 166 165 165
 180 179 179 180 180 177 160 176 177 172 167 163 145 118  84  50  48  55  75 102 112 114 111 122 125 117 126 128 125 127 125 128 131 134 135 136 130 114  95  71  54  43  43  60  72  70  66  61  55  46  42  48  53  70  88 101 111 114 113 110 106 100  93  87  84  82  80  77  72  70  67  59  49  44  48 103 140 150 155 158 161 161 161 161 162 163 163 165 165 166 165 163
 179 180 180 181 181 169 170 178 178 176 172 169 157 121  76  53  51  58  71  89 104 114 116 118 115 116 123 125 124 127 130 134 138 143 141 140 130 115  96  70  56  49  56  66  67  62  57  54  52  49  47  46  54  74  89 101 108 114 113 113 108 101  90  86  81  79  75  70  67  67  60  51  45  45  53  85 137 149 154 157 159 160 161 161 162 162 164 162 164 163 164 163
 178 178 181 181 181 163 176 177 180 180 175 168 157 123  80  53  51  55  65  85 103 112 110 110 109 114 118 119 121 126 133 138 144 144 144 139 127 112  98  73  63  56  60  65  65  59  54  53  53  51  47  47  49  65  84  96 107 110 109 111 111 108  98  88  78  74  74  68  66  60  52  46  42  41  52  89 124 148 152 157 158 160 160 161 161 161 162 162 162 163 164 163
 176 176 179 181 179 165 178 179 180 179 171 165 159 124  80  54  51  55  65  73  92 103 102 106 108 111 114 114 121 131 139 144 144 144 141 135 119 105  87  69  53  52  54  52  57  52  53  58  56  50  45  43  44  57  73  87  97 103 104 105 107 106 101  89  77  70  68  66  63  56  48  40  40  42  47  83 117 140 150 153 155 158 159 160 162 162 161 162 162 162 162 163
 175 175 179 180 176 178 173 174 175 172 172 168 154 126  92  56  52  52  60  61  79  98 104 104 106 108 111 115 122 133 141 139 136 134 130 125 115  98  79  67  52  48  48  52  52  44  47  50  52  48  44  43  44  59  67  74  87  88  88  94 101 102  99  90  74  67  62  58  54  50  42  37  36  35  43  74 120 132 147 152 154 156 158 161 161 160 161 161 162 163 162 163
 175 175 177 178 176 178 178 181 176 175 172 165 143 129  95  57  54  46  45  49  68  87  93  97  98 102 106 116 126 134 133 129 120 117 116 114 104  86  72  63  52  48  47  51  49  44  46  46  50  48  42  45  47  52  62  68  77  81  78  84  93  94  92  87  76  68  61  55  47  42  36  35  33  36  43  74 119 133 144 149 153 156 155 159 160 160 161 160 162 163 162 164
 174 174 175 178 177 178 178 178 176 174 174 166 144 129  96  65  53  44  47  49  61  76  85  88  89  95 101 114 128 128 119 112 109 105 104 101  94  79  68  60  52  50  50  49  49  42  52  50  50  47  47  47  45  50  63  69  70  73  78  74  77  80  81  78  69  60  56  50  40  34  31  31  32  36  46  81 123 137 145 149 151 155 157 159 160 158 160 161 160 161 160 161
 172 173 175 176 177 176 176 176 174 177 173 162 140 127 114  79  53  46  46  51  55  62  73  76  84  90  99 111 118 114 110 107 102  93  89  86  82  72  67  62  50  56  55  50  54  53  53  62  65  56  50  47  43  50  52  58  59  56  62  69  60  67  68  66  64  55  50  45  38  31  28  28  28  32  43  80 120 139 145 149 151 152 154 156 155 158 161 159 159 161 161 161
 172 174 175 175 175 176 175 175 176 176 173 159 146 128 126  91  64  49  44  45  44  48  58  68  75  85  95 101 102 104 100  99  89  84  73  70  74  70  64  59  50  64  62  63  80  88  82  85  84  67  54  48  44  51  49  48  43  41  41  46  53  56  60  59  59  55  48  42  32  29  27  24  26  31  50  81 115 135 144 148 151 152 154 155 157 158 158 159 160 160 160 161
 171 172 175 176 175 177 176 176 175 173 170 158 144 128 128 108  64  45  40  41  43  43  51  59  66  83  90  93  89  90  87  80  75  74  55  58  69  71  65  53  49  55  58  58  66  77  79  70  58  52  48  44  42  46  44  42  37  34  32  35  42  46  49  56  56  51  44  37  31  26  27  24  24  30  55  89 117 135 141 145 149 151 153 153 154 155 156 159 159 159 158 159
 169 171 173 175 175 176 175 175 176 172 170 161 142 138 135 127  71  45  39  36  36  38  43  47  64  74  86  85  80  82  74  60  65  57  42  48  55  56  54  49  46  52  58  60  58  57  57  51  52  53  49  43  36  32  30  34  29  27  30  33  39  43  45  50  52  51  42  30  27  25  24  24  25  33  62  93 121 136 142 144 148 150 150 152 154 154 157 158 157 158 158 158
 170 170 172 173 175 175 175 174 173 172 169 161 147 146 144 130  92  44  34  30  30  34  35  42  59  69  81  74  72  76  58  51  49  43  37  35  35  42  45  42  42  46  50  53  49  50  50  48  47  46  43  37  34  34  36  38  34  35  39  39  42  43  44  46  47  48  48  39  31  26  24  22  25  33  79 101 123 132 141 144 148 149 151 152 153 154 155 155 156 157 158 157
 169 169 171 174 175 174 173 172 171 170 168 163 148 148 137 139 107  50  32  34  31  33  32  37  51  63  73  69  62  57  56  48  45  43  48  49  57  65  71  70  67  63  62  59  59  57  56  60  63  63  64  58  56  54  49  45  44  46  47  47  46  44  44  47  48  47  40  42  37  32  25  24  28  32  73 116 124 131 139 143 147 147 150 152 152 152 154 154 154 155 156 157
 166 167 169 171 171 171 171 171 169 168 165 159 142 149 135 132 109  53  34  31  28  28  32  38  45  58  62  63  56  53  57  50  49  56  64  69  72  73  78  81  86  88  87  85  84  83  81  84  84  83  82  73  66  58  50  49  51  55  52  55  52  46  43  43  44  47  50  44  39  32  26  26  26  29  27 105 126 134 140 143 146 146 147 149 151 151 152 153 154 154 155 156
 165 167 167 169 169 168 169 169 168 167 164 155 142 152 142 126  99  52  34  28  28  29  30  35  44  58  63  63  52  58  58  57  62  70  74  82  84  81  80  76  79  86  90  88  88  84  82  85  85  84  78  71  60  52  54  58  55  55  57  57  55  51  46  40  38  34  31  33  35  35  29  25  25  26  26  80 125 135 139 143 144 145 146 147 151 150 152 151 153 154 154 154
 164 166 167 167 167 167 167 167 166 164 163 154 149 142 144 131 103  52  33  29  32  30  28  35  47  56  58  50  54  60  57  62  71  80  83  87  90  90  84  79  75  74  73  75  78  76  75  77  74  71  61  56  51  57  60  57  56  57  63  61  54  51  48  40  37  32  27  26  27  31  28  24  24  27  24  52 124 134 138 142 144 144 144 146 147 149 150 151 153 153 154 153
 162 163 164 166 166 166 164 164 163 160 159 154 147 137 134 131  99  41  30  25  27  30  31  37  50  53  52  56  53  54  58  65  75  87  89  88  87  88  85  81  77  73  69  62  59  60  60  58  55  54  53  54  54  56  55  56  58  60  63  60  56  51  43  41  34  35  25  25  27  28  26  24  24  25  20  29 119 136 137 139 142 142 143 146 146 146 149 150 151 151 152 153
 160 160 161 164 164 162 161 161 159 158 157 149 143 138 131 126 108  38  29  27  30  31  33  47  50  42  50  54  51  51  55  67  79  92  95  93  89  84  79  75  68  65  59  52  45  43  41  42  41  44  47  50  51  53  56  59  63  62  62  60  54  51  46  36  32  35  29  25  25  25  23  21  25  22  18  22 108 132 135 138 140 142 144 145 145 148 148 149 149 150 152 152
 158 158 158 159 160 158 156 155 154 152 150 146 139 139 134 126 100  32  30  28  27  32  43  41  34  40  45  48  50  50  52  65  76  89  94  97  91  85  79  71  64  59  55  46  41  36  27  32  36  35  42  45  49  57  57  61  68  67  64  60  55  48  42  41  33  29  23  23  22  25  21  19  23  17  17  20  82 130 133 135 140 140 140 143 144 144 144 146 148 148 149 150
 155 156 156 155 154 152 150 150 148 145 144 142 134 135 132 127 101  32  29  30  27  30  34  31  30  33  41  39  48  47  52  60  69  86  95 100  95  89  82  77  69  66  55  48  42  36  28  32  35  35  42  45  48  58  65  65  69  71  67  63  54  47  40  37  34  38  25  20  21  23  21  20  23  17  17  21  65 126 133 136 137 138 139 141 142 144 144 145 146 147 149 149
 155 154 153 152 150 150 147 146 146 142 142 140 135 134 133 129 102  30  29  27  26  28  29  26  24  29  38  42  52  45  48  55  68  77  83  82  81  86  90  82  75  68  56  47  40  37  35  33  38  40  42  56  55  59  67  71  72  70  69  64  52  48  39  36  31  32  26  21  17  20  22  22  24  18  16  19  62 124 131 136 135 137 138 139 141 142 142 144 146 145 147 147
 152 152 149 148 147 146 146 143 141 140 139 135 133 130 128 128 108  30  26  25  25  25  24  24  26  32  42  39  44  44  48  59  74  72  68  58  61  73  92  92  84  75  63  50  39  42  39  33  32  39  47  52  65  69  75  80  76  70  59  63  54  43  39  35  31  23  26  26  21  23  20  17  17  16  13  16  38 122 131 133 135 135 137 138 138 140 142 144 145 144 145 146
 150 150 146 147 145 144 141 141 139 139 135 133 132 128 124 125 100  29  23  22  24  25  25  26  36  38  37  36  39  41  48  64  66  63  56  49  60  68  88  90  90  74  62  48  43  44  38  36  31  33  41  51  59  70  75  77  78  79  67  52  51  48  35  32  28  26  24  22  21  23  23  19  18  15  13  14  26 117 129 132 134 134 136 137 136 140 141 141 143 143 143 145
 147 148 146 143 141 140 140 139 137 137 135 132 129 127 122 118 106  35  21  21  22  25  29  39  37  38  33  35  35  34  50  56  58  58  54  50  61  68  81  83  81  68  59  49  42  45  40  38  42  36  45  51  62  67  70  69  78  70  67  59  47  47  38  32  24  24  22  22  22  24  21  18  18  13  13  14  26 118 128 131 131 133 135 135 137 137 140 140 142 141 143 143
 144 145 143 142 140 140 138 137 134 133 130 121 120 108 104  85  58  32  20  17  22  24  27  34  31  32  33  37  38  34  53  54  53  57  58  56  61  66  70  75  72  61  61  50  43  47  45  40  46  44  46  51  54  64  68  67  66  76  69  59  44  43  35  36  25  23  22  23  23  23  22  18  15  12  13  15  22 104 124 128 130 131 134 136 137 138 139 140 140 142 142 142
 143 144 143 140 138 139 135 133 124 117  89  42  44  29  22  22  21  22  16  18  22  24  24  28  24  26  26  27  31  39  51  50  52  54  54  54  60  63  63  70  64  59  61  52  45  44  42  42  46  44  47  48  50  57  63  58  56  54  63  54  48  35  33  34  30  24  24  21  22  24  23  16  12  12  12  14  19  29 104 124 129 131 132 134 135 136 136 138 139 142 142 141
 142 142 140 139 137 134 131 111  42  26  22  22  18  17  16  13  14  16  15  17  17  20  24  25  25  20  22  25  31  44  46  45  46  47  48  52  56  61  56  63  57  61  54  52  47  42  44  41  43  43  47  48  48  55  58  58  51  49  47  46  43  36  34  30  26  23  23  20  21  22  17  12  11  10  12  12  17  17  18  53 117 125 129 133 134 135 135 137 138 139 141 140
 140 138 137 135 130 104  54  34  23  19  18  15  14  12  12  11  12  16  14  12  14  19  23  24  24  22  26  28  29  38  31  35  39  46  46  52  53  49  52  62  54  58  58  50  48  45  39  39  40  44  43  45  48  58  58  51  53  49  40  44  34  34  32  32  25  23  16  17  17  18  13  11  10   9  11  14  14  13  16  17  26  53 115 128 132 134 135 136 137 139 139 139
 138 135 133 121  90  30  23  19  18  18  16  15  15  13  13  13  13  12  14  12  13  18  22  21  18  18  23  29  29  34  26  30  36  38  44  48  49  45  60  60  52  54  52  44  43  38  36  40  39  44  43  45  50  63  65  49  52  48  36  36  37  31  27  30  24  21  17  18  17  15  14  11  10  10  10  13  14  12  14  16  17  19  32  40  71 124 130 134 137 138 138 138
 135 132 124  52  27  22  19  18  19  17  16  13  14  13  11   8  11  10  12  12  14  16  17  20  17  18  20  25  25  28  26  30  31  37  43  48  43  48  60  57  48  56  43  47  44  37  34  37  38  41  38  50  51  59  56  49  50  44  35  36  34  27  24  23  22  20  16  15  16  16  15  10  10  10  10  13  12  10  11  14  16  16  16  19  19  40  55 119 133 134 136 138
 109  79  52  24  21  19  19  18  18  16  15  12  13  11  11   8  10  10  12  15  16  17  19  21  18  17  18  17  20  24  26  26  29  38  41  41  45  49  47  48  46  46  44  44  39  33  35  36  36  34  39  43  45  57  46  47  41  38  31  35  30  27  23  20  24  20  13  11  11  13  11   9   9  10  11  13  11   9   9  12  12  14  15  15  16  19  23  36  63 115 135 136
  40  30  25  20  20  18  18  17  17  15  14  12  11  10   9   9  10  11  11  14  12  15  17  18  18  19  20  17  16  18  22  24  30  36  33  33  40  40  42  40  41  45  43  35  33  31  29  29  35  32  31  38  43  48  45  44  40  34  26  36  27  26  20  19  21  17  12   8   8  10   8   8   9  10  11   9   9   8   9  10  11  12  14  14  15  15  16  18  23  42  74 105
  23  22  22  19  17  17  15  15  16  14  13  11  12   9   9  10  11  11  11  11  11  12  11  16  14  15  14  14  15  18  21  24  26  28  27  33  36  37  40  32  42  37  36  30  28  27  24  28  30  29  30  38  47  39  42  40  38  32  28  37  26  22  16  16  17  16  10   8   7  10   9   8  10   9   9   9   8   9   9  10  11  11  13  13  14  14  16  16  19  21  23  27
  20  19  18  17  16  16  16  15  14  15  13  12  11   9   8  12  11  11   8   9  10   9  12  13  11  11  13  14  17  18  20  21  20  20  22  30  30  32  36  30  33  34  31  25  21  25  25  26  28  26  30  38  39  35  35  34  26  29  29  33  24  21  15  13  12  12  11   9  10   9   8   8   8   9   8   9   9   9   9   8  10  12  12  12  13  13  14  13  15  16  19  21
  18  17  18  17  16  15  14  14  14  14  13  12  11  10   8  11  11   8   8  10  11  10  11   9   9   9  10  15  18  16  16  18  17  17  21  27  27  27  30  36  27  27  25  25  22  23  20  22  25  25  32  36  33  29  31  29  26  27  25  31  22  18  15  13  11  13  12   8  12  11   8   9   9   8   8   9   9   9   9   9  10  12  13  13  13  14  12  12  14  15  15  18
  18  19  18  18  15  14  14  13  14  13  14  12  10   7   9  11  11  10  10  11  11  10  10  10   9   9   9   9  14  12  16  15  17  16  20  24  25  25  26  27  21  23  24  19  18  18  19  22  22  24  29  30  28  25  26  26  23  24  26  27  17  16  15  11  10  10  11  10  10  11   8  10   8   8   8   8   8   9   9  10  10  10  12  13  13  12  12  13  14  16  15  17
  17  18  17  17  14  12  12  14  13  14  12  10   8   7   9  10  11   9  11  11  10  10  11   9   8   9   9   9   9  10  15  14  16  16  19  20  24  24  19  18  20  19  17  19  17  18  18  19  19  19  22  28  21  22  22  24  19  22  26  18  13  11  14   9   9   8   7   8   9  10   8   8   8   6   8  10   9   9   8   9  11  10  11  12  13  12  11  13  14  13  15  17
  16  18  17  15  17  13  12  14  13  13  12   7   7   8   8   9   9   9  10  10   9   9   9   8   9  10   9   8   8   8   9   9  14  14  19  24  21  16  16  13  16  15  11  14  16  17  17  18  16  19  17  21  21  16  16  22  17  22  20  14  11  11  11   8   8   8   7   7   8   9   8   8   6   6   8   9   9   9   9  10  11  10  10  11  11  11  11  12  13  12  13  16
  16  16  15  14  16  13  12  12  13  13  10   9   9   9   8   9  10   9  10   8  11   9   8   9   9   9   9   8   8   8   8   8   9  12  17  17  12  14  14  11  12  12   9  11  12  15  15  15  14  12  12  14  16  15  17  18  16  19  16  10  10  11   9   8   9   8   8   7   8   8   8   8   7   7   8   8   9   8   8   9  11  11   9  10  11  10  11  11  12  13  13  13
  16  16  15  15  13  12  11  11  12  11   9  10   9   8   7   9   9   9   8   8  10   9   8   8   9   9   8   7   8   7   8   7   8  13  12  14  10  12  12   9   8   9   9  10  13  13  11  12  14   9   8  14  11  14  15  13  15  15  13   9   8   9   8   8   8   8   7   7   7   8   7   6   6   6   8   8   9   8   8   9  10  10   8   9  11  10  12  12  12  12  12  13
  13  14  13  15  13  13  13  12  12   8  10  10   8   9   7   9   8   9   8   9  10   6   8   6   7   7   8   8   7   8   7   6   9   8   8   9  10   9  10   9   8   9  10  10  13   9  10  12  13  10   9  11   8  11  15  15  11  13  10   9   6   7   8   7   8   7   6   6   6   7   6   5   6   6   9   7   9   8   8   9   8  10   9   9  10  11  11  11  12  11  12  12
  15  15  15  13  13  13  13  11  10   9  11  11   9   9   8   6   9   9  10   8   9   7   7   6   6   6   7   8   8   9   7   7   8   7   7   8   7   8   8   8   8   8   7   9  10   9  10  11  10   9  11   9   9  11  13  10   9  10   7   6   5   7   7   7   7   6   7   6   5   5   5   4   5   7   8   7   9   8   7   8  10   9   9   9   9  11  11  12  12  11  12  12
  15  13  13  12  13  13  13  12  10  10  12  11  10   7   8   8   9   8   9   8   8   7   7   6   5   5   5   7   8   8   6   8   7   6   6   8   7   6   8   6   8   8   6   7   7   8  10  10  11   9   8  10  10   8   7   7   9   8   5   6   6   7   6   7   6   5   5   5   4   6   5   5   5   6   6   7   8   8   8   7   9   9  10  10   9  11  12  12  13  11  12  12
