P2
# Generated by OpenCV 3.4.0
92 112
255
 171 171 173 171 169 168 167 165 167 167 168 167 165 164 163 163 160 156 150 143 146 143 132 107  84  78  75  72  66  73  75  75  74  59  64  66  62  68  68  64  65  58  67  75  70  68  65  62  61  71  69  70  74  76  80  91 107 118 137 132 128 122 124 130 131 131 138 144 145 141 142 151 148 149 151 154 156 157 156 156 156 155 156 155 156 155 156 155 156 154 155 154
 177 176 178 176 182 179 178 177 176 175 175 172 172 173 171 169 166 161 151 139 143 128  89  74  69  70  71  75  63  63  71  71  64  60  51  64  66  64  70  69  60  65  65  69  64  63  59  56  56  58  60  69  72  71  69  74  83  93 106 117 129 121 117 121 128 136 146 148 150 148 138 144 150 151 153 153 155 156 157 157 156 157 157 156 156 156 156 157 155 155 155 155
 181 187 186 187 190 189 190 188 184 183 178 187 183 180 176 174 174 164 152 145 143 112  78  68  62  65  67  69  70  65  67  70  63  65  53  57  66  65  64  67  58  62  62  61  63  62  59  55  54  50  55  61  67  67  66  69  78  71  76 111 116 108 111 121 130 127 125 132 133 137 140 143 148 151 152 154 156 157 156 155 156 158 157 157 156 156 156 155 155 153 153 154
 183 186 188 189 192 192 191 192 190 189 187 189 187 186 185 185 180 167 149 144 129 104  69  64  63  64  71  67  69  69  69  69  62  58  61  54  59  62  61  65  66  55  55  64  60  59  53  53  54  51  54  58  62  61  58  69  66  63  71 100  98 101 114 120 124 129 128 128 124 122 124 147 147 148 151 151 156 158 157 156 156 156 158 156 155 156 156 156 155 154 154 154
 181 183 185 185 187 188 185 188 188 188 186 185 185 184 186 184 173 150 117 116 117 100  76  64  57  55  64  67  64  61  59  59  59  53  52  55  56  53  60  59  64  62  58  64  61  59  52  49  53  48  53  55  54  53  55  58  52  56  64  66  72  77  88 112 116 124 136 141 143 137 126 126 138 150 150 153 153 156 157 154 156 156 158 156 156 157 157 157 155 155 154 155
 170 173 178 181 178 177 182 179 182 180 178 174 175 177 176 154 142 134 116  89  80  62  57  56  59  58  52  57  62  58  58  54  55  53  52  50  57  53  51  55  57  64  67  66  62  59  51  47  52  46  50  51  52  49  49  50  49  53  54  56  65  72  80 104 115 127 131 136 138 140 137 137 126 137 144 153 154 156 157 156 154 156 157 157 156 156 156 156 156 155 154 155
 166 167 170 169 171 172 171 170 171 170 168 161 164 152 143 118 104 104  98  88  73  63  52  49  52  60  60  54  52  54  55  53  50  51  50  51  52  56  52  52  57  59  67  71  64  63  55  50  51  47  46  48  50  47  48  48  49  49  51  54  63  68  73  88 105 116 124 125 128 132 130 132 135 133 136 146 154 155 157 157 156 157 157 157 156 156 156 156 154 156 155 156
 164 166 165 166 165 166 165 167 166 161 156 160 156 144 130 125 101  88  83  81  77  69  61  51  49  56  58  54  53  49  50  50  50  51  52  53  52  56  58  58  61  64  67  71  68  69  64  58  52  48  47  47  49  50  49  52  52  50  49  50  57  59  66  75  95 106 116 120 117 116 123 126 127 135 135 141 146 152 156 156 157 157 156 156 157 156 156 156 155 156 156 155
 162 163 163 162 162 162 164 160 156 156 152 150 144 136 126 116  86  76  76  74  72  70  64  53  53  51  50  50  50  47  45  49  52  55  58  63  58  63  66  73  76  78  83  84  84  78  78  74  61  55  60  57  57  56  58  62  58  56  52  49  54  57  56  63  78 101 103 109 116 116 121 124 127 130 135 138 142 144 148 154 157 156 158 157 157 156 156 156 155 156 155 155
 161 162 162 162 163 161 159 156 159 152 147 146 131 136 122 100  82  74  72  72  69  66  61  55  52  51  48  46  47  48  47  50  62  69  74  73  74  76  86  88  95  97 104 100 104 102  99  95  87  80  81  82  73  69  72  73  71  66  61  58  53  54  58  63  69  83  98 101  97 101 114 131 127 125 129 141 143 144 144 148 155 155 154 154 155 155 155 156 156 156 155 155
 161 162 161 160 161 159 156 156 158 151 143 135 131 117  95  86  81  74  71  70  68  65  60  52  48  48  49  48  47  50  54  61  71  84  92  94  94  97 110 107 110 112 117 115 120 123 121 121 115 109 107 102  91  86  88  88  85  79  72  68  60  54  58  62  66  76  94 100 111  96  94 108 127 130 124 139 146 149 152 148 152 157 156 156 157 156 156 156 157 157 154 155
 161 159 160 160 160 158 155 155 155 148 139 140 127 106  92  88  81  74  73  74  73  64  58  51  49  50  49  50  56  63  69  79  84  95 107 112 119 125 125 128 128 128 126 129 132 132 130 130 127 125 123 117 108 103 100  99  98  88  81  76  72  62  54  57  62  70  77  85  87  96  92  95 108 115 126 131 144 149 153 154 149 153 157 157 156 156 157 156 156 156 156 156
 159 159 159 158 158 157 157 155 152 141 136 121 122 104  91  84  84  84  81  75  65  54  50  50  51  53  57  65  71  77  82  93 105 114 122 127 133 135 140 145 143 139 136 135 135 136 135 134 133 131 128 124 119 114 108 104 105  99  92  88  84  77  63  54  52  61  67  70  77  82  80  80  97 101 115 129 134 144 152 154 154 150 155 155 155 156 156 156 157 156 156 156
 160 159 159 157 158 156 154 150 148 144 136 118 103  96  90  89  92  87  80  73  66  59  58  59  66  68  69  78  91  99 101 111 123 127 134 142 144 140 151 150 143 140 138 139 138 139 139 139 137 135 132 130 124 119 114 110 107 105 101  98  92  89  77  65  54  52  62  65  73  80  78  83  83  92 102 121 135 139 150 154 154 151 153 153 154 155 154 154 156 156 156 155
 159 159 159 154 157 155 151 151 141 118 103 104 103  92  89  88  84  80  73  68  67  68  70  78  84  91  95 102 106 111 117 122 128 136 141 144 148 148 149 146 140 138 138 139 140 140 138 138 136 133 130 128 124 119 115 108 106 105 104 104 101  96  89  81  67  53  54  58  62  69  82  92  92  93  90  98 129 139 147 155 155 153 154 155 155 156 156 156 156 155 157 156
 158 159 160 155 155 151 149 137 112 112 125 125 104  87  83  85  83  82  78  76  78  82  86  93 101 106 111 116 121 124 126 128 135 141 144 147 148 146 144 142 141 140 140 140 139 136 136 133 132 129 126 124 122 118 114 109 108 106 105 104 102 102  96  92  81  65  55  53  56  57  67  90 101  96  98  96 115 133 146 152 155 153 154 155 155 157 156 156 156 156 157 156
 158 160 158 155 154 146 144 127 131 121 114 103  88  78  83  85  80  81  86  88  93  95 104 109 114 120 120 126 131 131 131 136 140 144 145 149 147 142 143 142 144 142 138 135 132 129 127 124 121 118 118 117 117 115 112 110 111 110 108 107 105 102  98  94  89  76  63  54  58  54  57  75  88  90  94 100  99 127 147 150 154 153 154 155 155 156 155 156 157 156 156 155
 158 158 156 155 149 149 143 132 126 111 103  84  74  77  83  74  77  90  97 100 105 111 116 119 123 124 124 128 131 133 134 138 142 146 149 149 148 147 146 143 140 135 132 131 129 126 123 122 123 123 122 121 120 113 109 105 108 108 107 106 104 102  98  94  91  87  73  57  51  55  52  57  65  69  78  96  97 114 145 150 154 155 155 156 154 155 154 155 155 156 157 157
 157 158 156 156 151 149 147 133 127 114  84  72  73  80  79  75  89 102 106 108 114 119 120 123 124 122 126 133 137 136 137 139 141 142 145 143 143 143 138 135 133 134 134 133 131 130 129 128 127 125 126 125 123 118 115 109 108 108 105 104 102  97  97  94  91  89  82  67  50  50  48  46  52  69  65  70  90 108 140 149 154 154 156 155 154 154 156 154 155 154 155 155
 157 158 155 156 153 152 135 140 129  92  68  62  69  78  77  82 101 109 112 113 115 119 119 123 122 125 130 135 133 132 132 134 135 135 135 135 135 135 133 133 132 137 131 125 119 114 109 108 106 107 109 111 110 111 108 104 103 103 103 103  99  96  93  94  92  90  84  77  57  48  48  47  49  74  88  75  84 110 133 150 153 155 156 155 153 155 156 155 156 157 156 155
 156 156 154 156 155 146 140 141 114  74  62  59  66  72  78  95 109 112 112 113 114 118 120 122 123 126 130 131 132 129 130 132 135 135 136 133 130 130 131 125 121 113 105 100  97  94  93  99 101 105 111 110 107 102 100  99  99  97  94  91  92  92  93  92  92  89  87  81  69  51  50  48  50  70  97  99  91 106 133 146 154 155 157 155 155 156 156 155 156 155 156 155
 156 156 154 154 151 148 150 140 102  78  54  58  62  70  90 106 112 111 114 118 118 119 119 121 122 125 127 130 129 131 133 135 135 134 133 127 124 120 110 102  96  94  97 104 113 122 128 129 128 128 124 118 110 101  93  88  87  86  84  83  82  84  85  87  89  88  89  85  75  61  50  49  49  51  69  96 105 104 124 147 154 153 155 154 155 156 156 156 156 156 155 155
 157 157 154 151 152 156 155 143  87  75  60  56  60  73  98 108 110 112 112 114 114 112 113 115 119 126 128 128 129 130 132 131 130 126 119 114 109 101  99  95  97 117 133 142 136 130 126 125 122 122 120 118 113 108 102  97  93  93  94  94  93  89  85  84  84  83  87  87  78  71  53  48  48  47  50  74 102 111 121 142 152 154 155 156 155 154 156 155 156 156 154 155
 156 157 152 153 154 156 156 150  80  76  57  57  61  82 102 110 110 113 109 109 109 106 111 117 121 124 123 118 113 110 105 104  99  98  94  93  95  98 108 126 140 141 134 126 120 113 109 107 105 101 103 103 102  99  99  99  98 100  98  95  94  93  93  94  94  89  88  86  81  74  62  48  46  45  45  65  82  97 117 130 149 150 153 156 155 155 156 156 156 156 156 155
 158 156 155 154 156 156 156 146  80  55  52  55  62  91 105 108 111 108 108 106 104 109 115 115 112 108 104 105 106 106 108 108 108 110 109 116 124 132 144 142 135 128 118 108  97  89  84  82  82  80  79  79  78  79  78  78  78  78  77  76  77  79  84  88  90  89  90  87  84  76  68  52  45  43  43  48  67  81  97 117 140 148 153 153 155 156 155 156 157 154 154 155
 157 155 156 157 156 156 155 152  84  47  48  50  68  97 105 111 111 109 104  99 106 108 104 100 107 118 128 136 138 136 138 137 136 135 132 133 130 130 126 119 110 102  90  84  77  72  74  89  96 100  98  97  91  85  81  78  77  75  72  73  73  73  73  74  77  82  84  85  85  79  71  58  46  44  41  41  52  78  87 108 128 149 156 157 156 156 155 156 155 154 155 155
 155 156 158 158 156 156 156 153  98  45  46  53  73 100 108 110 112 104  97 101 104 100 104 113 120 123 123 121 116 115 112 112 111 104 100  97  95  94  91  86  83  77  76  90 104 115 124 125 122 119 114 110 108 104 100 100  95  92  89  93  94  94  95  94  88  84  83  83  81  78  72  61  46  41  40  39  39  68 102  91 124 144 152 154 155 154 154 155 155 154 155 155
 156 157 157 158 157 157 156 151 117  62  53  54  81 102 110 108 103 101 106 106 103 107 111 108 106 105 112 113 113 110 103  98  95  92  88  87  86  84  90  99 110 122 129 128 123 118 113 106 102  94  90  89  85  85  83  82  80  81  84  85  88  90  92  92  93  90  85  83  81  76  71  64  47  37  38  36  40  54  90 111 120 144 151 153 155 155 154 155 156 155 155 155
 157 156 158 157 157 157 156 152 108  70  58  59  89 105 110 104 109 113 109 110 108 104 103 106 113 119 123 123 124 128 132 133 132 131 127 130 131 137 137 136 130 122 114 108 102  95  90  85  79  76  72  70  68  70  71  78  82  86  89  93  94  93  91  88  85  83  85  82  80  75  68  62  48  38  35  36  39  49  74 107 119 136 148 153 155 155 155 155 155 154 152 154
 157 158 158 158 158 159 156 156  98  64  54  61  92 107 107 109 108 106 105 102 104 109 110 111 110 110 112 116 123 124 121 119 117 118 118 119 116 114 112 108 104  99  94  90  86  79  75  74  76  84  92  98 106 109 111 108 103 102  95  93  90  87  86  86  89  89  83  78  78  74  69  61  48  38  35  33  37  43  71  96 119 142 145 150 152 153 152 154 153 152 154 154
 158 158 158 159 159 158 158 154  99  61  55  68  97 106 108 108 105 107 110 112 111 107 101 100 101 100 101 101 101 102  97  92  91  90  88  90  91  92  92  91  88  86  85  83  82  79  88  96 105 107 105 104 105 102  94  85  79  75  70  68  67  68  70  71  75  79  88  88  79  73  69  61  48  35  32  34  36  43  51  83 109 138 146 148 151 150 151 152 151 151 154 153
 158 158 158 159 160 159 157 142  83  54  52  64 100 106 107 108 109 111 109 104  97  94  93  94  94  92  94  94  93  92  92  87  84  84  82  82  84  84  84  82  83  82  82  79  82  84  85  90 100  98  94  87  81  73  69  67  69  72  83  91  98 104 105 102 100  95  90  89  88  74  70  63  50  34  30  32  35  40  55  75  97 118 143 148 152 152 153 154 153 150 152 152
 158 157 158 160 159 159 156 124  79  54  48  70 101 106 108 108  99  91  88  92 103 113 115 118 122 124 128 129 131 135 132 128 120 112 105 104 100  94  92  90  88  87  85  81  79  77  81  89  94  89  77  73  70  80  90 100 106 107 107 107 106 104 101  98  97  94  91  89  89  81  70  63  51  35  30  30  35  41  49  63  96 115 142 150 151 152 153 153 153 154 150 153
 159 159 158 158 159 158 152 110  67  47  46  72 100 106 108  99  97 107 119 124 118 113 112 114 119 120 120 118 119 118 118 118 113 110 105 102  98  95  93  90  90  87  86  84  82  85  88  92  84  78  80  86  93 100 103 103 103 101 100  96  91  84  78  73  72  72  77  78  83  81  73  64  53  36  30  29  35  50  56  69 104 129 143 149 149 150 151 152 152 153 150 153
 159 158 159 157 157 157 150  89  60  52  47  71 101 110 106 112 120 115 107  99  95  91  92  91  92  90  91  90  94  98  99 105 106 104  97  91  87  86  88  89  92  90  90  87  87  86  86  85  84  92  96  93  87  84  85  85  85  81  76  73  66  62  54  50  49  47  55  66  71  74  74  66  56  37  29  31  35  51  78  73 101 128 144 147 148 149 151 150 151 149 149 152
 158 158 158 159 159 159 143  84  70  54  47  70 100 111 108 114 112 108 110 109 113 110 109  99  94  86  85  88  86  89  87  90  94  96  93  88  85  84  83  86  88  88  90  87  84  85  87  88  96  95  86  75  69  67  68  67  70  64  55  54  52  45  41  39  40  38  40  46  57  62  67  67  60  40  27  31  40  54  84  83 107 130 140 145 147 149 153 153 151 150 148 152
 159 158 159 160 160 159 143 102  75  50  44  64  97 105 107 113 115 117 122 125 123 125 126 125 120 115 111 112 112 108 100  91  87  86  88  91  87  86  86  88  90  92  89  86  86  88  91  93  92  86  70  63  60  51  45  40  39  38  37  39  37  38  34  35  33  33  34  36  45  51  60  64  62  41  27  30  45  62  86  92 103 129 140 144 148 150 151 150 149 150 149 149
 159 161 161 160 158 159 150  93  67  48  44  60  90 101 112 110 107 106 109 112 112 114 113 111 108 108 107 100  93  88  86  84  86  84  88  91  91  90  91  94  95  91  89  88  90  92  94  95  90  76  63  53  44  39  36  32  31  30  28  27  27  30  33  34  35  34  35  33  37  46  51  60  65  45  27  26  38  58  83  93 103 134 144 144 147 147 148 150 148 150 152 150
 159 159 160 160 160 158 152  86  63  46  40  54  86 104 107 100  90  83  81  81  84  87  88  86  86  93  91  82  76  71  71  71  77  84  91  93  93  95  99 100  97  93  92  95  93  94  96  98  82  70  54  49  41  37  35  31  30  26  28  28  29  34  37  40  42  41  40  34  33  39  44  52  64  50  26  25  38  56  76  93 113 132 137 141 144 144 146 146 149 150 150 150
 160 159 159 161 161 162 157 113  65  45  40  49  83 102  97  87  76  64  58  60  56  58  62  72  73  67  61  57  57  52  54  59  71  83  94  98  97 102 104 106 100  97  98  99  97  96  93  88  74  64  55  48  38  35  34  33  29  30  34  39  42  45  49  50  50  48  48  43  37  35  40  49  63  56  25  23  36  55  76  88 117 132 139 142 144 145 145 148 150 150 150 148
 160 158 160 161 162 162 159 118  63  48  40  47  80  94  87  76  61  50  46  43  44  47  51  48  45  44  43  41  41  43  46  50  60  70  82  91  98 104 107 105 104 101 102 101  98  95  91  73  61  59  54  47  38  35  32  31  35  39  44  49  51  54  55  56  57  56  57  51  44  40  40  48  60  63  25  21  32  51  83  88 115 122 135 142 145 146 147 148 148 148 148 148
 161 160 161 160 161 162 157 116  74  55  43  41  80  90  78  65  49  40  38  38  42  40  36  36  35  35  38  35  38  41  42  45  50  60  67  80  93 103 106 104 103 103 102  98  93  88  87  65  58  52  52  44  39  37  35  36  40  45  49  53  55  55  54  54  56  60  61  62  54  47  44  49  58  63  25  23  30  55  73  83  99 114 126 135 143 145 146 147 147 148 148 147
 160 161 161 161 160 160 155 114  77  50  47  37  75  86  72  55  43  36  36  40  43  43  39  38  36  38  37  38  37  43  43  46  50  48  59  69  84  94 101 101  98  94  95  95  92  85  75  63  56  46  45  43  43  38  40  39  42  46  49  49  50  49  47  48  51  54  58  63  58  52  48  50  54  57  26  19  37  55  96 101 116 129 136 142 142 145 143 146 146 148 147 146
 162 161 160 161 161 159 152 114  70  54  51  37  72  86  63  49  40  40  47  54  58  62  62  57  51  47  43  45  42  43  45  46  51  50  58  68  76  84  93  94  91  90  90  88  86  77  71  58  53  46  44  42  43  39  40  38  40  42  42  41  40  40  41  43  45  47  50  54  56  57  53  52  54  53  32  21  45  54  96 110 119 128 134 140 144 145 146 145 146 148 146 147
 159 161 161 160 160 159 150 103  57  68  49  32  63  83  60  48  43  51  65  72  74  75  74  70  66  59  53  50  47  44  46  48  53  54  58  63  69  77  86  89  89  88  84  84  78  74  60  54  52  48  43  42  41  38  36  37  36  36  34  35  36  35  38  41  39  36  35  31  30  27  26  26  22  24  23  23  26  30  32  96 131 127 133 140 144 144 145 146 145 147 146 146
 160 160 159 159 159 157 140  98  58  85  63  36  53  83  58  49  50  64  77  80  79  76  73  70  67  65  58  53  48  48  48  47  51  52  58  59  68  73  80  84  85  85  81  79  74  70  63  53  48  44  42  39  36  35  36  37  37  34  31  25  24  22  19  17  15  17  18  19  20  22  21  20  17  15  16  16  15  16  22  78 130 134 136 135 141 143 144 146 146 145 147 146
 160 160 159 159 160 156 141  97  58  92  91  49  48  83  66  54  61  76  82  84  81  75  69  65  61  59  56  52  48  46  47  48  51  52  55  60  62  68  75  77  80  79  75  76  73  70  63  53  45  38  37  37  36  38  34  28  20  17  16  15  16  18  21  23  28  37  36  33  36  40  43  46  47  42  24  17  51  57  36  71 132 136 139 136 139 140 141 144 145 144 145 146
 159 160 161 160 161 155 145 104  61  83  65  54  30  78  65  59  71  79  79  81  75  66  61  56  53  52  48  43  42  41  42  43  46  50  51  53  55  58  66  72  75  78  74  73  71  67  59  48  41  39  34  30  23  18  18  18  17  18  15  15  18  20  26  25  24  26  32  34  32  36  40  46  49  56  53  22  20  20  19  78 139 137 139 139 139 145 144 143 144 143 144 145
 161 161 162 160 161 154 146 107  60  60  60  38  28  68  66  61  58  51  43  41  39  37  34  30  29  27  26  25  24  25  26  24  28  28  33  38  42  47  52  59  67  73  71  71  67  59  52  46  36  26  20  18  24  29  26  20  18  16  16  26  27  24  41  50  42  29  23  25  28  36  41  47  52  60  62  32  17  17  18 108 133 131 138 141 139 143 144 144 143 144 144 144
 160 159 161 160 158 154 150 104  80  71  52  44  40  33  26  20  19  18  20  27  29  30  32  31  29  25  22  24  25  25  28  29  26  24  19  17  20  24  29  35  42  52  52  52  48  39  27  22  18  15  24  34  35  30  25  23  22  24  33  24  30  36  64  71  60  43  26  23  26  33  41  50  56  62  65  43  18  17  41 122 127 131 132 138 141 140 143 142 143 143 143 143
 163 161 160 159 159 157 156  80  35  31  22  19  19  18  24  35  50  59  59  48  45  43  35  30  29  27  27  26  27  29  33  36  41  41  40  34  28  19  16  17  19  22  25  24  21  16  16  16  15  26  36  37  34  31  31  40  45  35  37  40  42  62  81  78  68  50  40  37  35  40  47  56  60  63  66  48  19  17  60 121 136 141 138 134 137 138 142 142 142 143 143 143
 162 161 159 160 160 162 157  69  36  61  26  19  20  49  55  54  58  57  52  46  41  31  34  44  34  37  39  31  28  32  39  34  36  37  40  42  42  44  27  16  15  14  14  14  14  13  13  15  15  36  37  36  32  30  35  46  59  60  56  59  69  79  78  72  62  53  52  54  54  60  66  68  67  65  67  50  19  14  91 119 130 137 139 138 137 138 142 140 142 143 142 143
 161 160 162 164 161 159 155  72  42  69  50  20  50  69  59  55  54  50  45  40  29  30  58  64  39  52  31  31  33  37  51  45  38  37  40  43  45  48  47  16  14  13  14  13  13  13  13  13  17  36  37  32  30  32  35  41  48  56  64  66  68  64  66  59  56  56  58  60  62  65  73  75  68  66  69  53  19  16  85 121 133 133 133 136 140 140 141 141 143 142 142 141
 163 163 163 163 162 162 158 107  25  22  19  23  61  78  70  60  53  46  40  32  27  42  73  79  53  41  42  43  41  57  65  57  46  40  41  46  54  51  51  20  14  14  14  14  13  13  14  13  15  37  39  41  41  43  44  43  45  52  54  56  58  57  57  57  56  55  56  56  57  66  74  75  68  66  70  57  18  30  91 123 135 139 134 137 136 138 139 141 142 143 143 142
 162 162 165 165 163 163 160 143  30  22  18  25  62  84  77  68  56  47  36  29  31  51  75  88  81  66  58  64  76  89  76  62  46  46  45  49  62  62  58  20  14  15  21  32  36  30  17  13  13  35  42  44  45  46  46  45  46  49  50  54  55  54  53  52  51  51  52  51  58  70  73  73  70  68  70  55  20  43  95 123 134 138 138 135 140 139 137 141 142 142 143 142
 161 164 165 165 165 166 161 151  86  20  19  24  62  87  83  74  64  54  44  40  40  59  75  84  88  94  97  99  90  82  67  55  48  52  55  61  66  65  62  17  14  22  42  69  74  63  34  16  14  28  45  46  46  48  45  45  48  50  51  51  52  51  49  49  48  48  49  51  61  70  74  75  72  71  71  46  19  60 118 132 136 140 139 137 139 140 135 139 141 141 143 141
 162 165 166 169 168 167 163 155 117  51  20  23  64  91  87  82  74  65  58  50  51  58  68  73  79  81  80  74  67  63  56  49  50  59  66  67  71  71  63  14  15  32  89 111 114 104  75  24  14  20  48  54  54  54  54  53  52  54  53  52  51  50  49  48  48  47  48  53  60  69  72  73  72  71  73  32  23  66 119 134 138 142 141 137 138 137 140 140 139 140 141 141
 163 166 168 167 167 165 163 155 118 117  21  23  61  96  91  88  82  76  71  64  59  56  58  59  59  61  61  57  54  49  46  46  51  57  63  72  81  84  52  15  16  80 120 130 133 126 115  57  16  16  39  62  64  64  62  60  59  58  58  56  52  52  50  49  50  55  65  76  83  85  83  75  71  70  67  24  29  83 124 131 135 136 138 136 137 139 140 140 141 140 141 140
 163 163 166 167 166 163 162 154 116 148  39  21  53  98  94  92  89  85  80  75  68  59  55  54  53  54  54  51  50  48  48  49  56  64  74  84  92  90  38  16  35 113 130 136 137 132 122 100  43  14  21  56  65  70  71  69  65  62  62  60  57  56  56  60  69  79  90  94  93  93  87  78  71  69  51  19  47  78 118 127 136 138 138 136 140 139 140 139 140 140 140 140
 163 163 165 165 164 162 160 153 122 149  76  21  41  96  96  95  94  91  88  82  72  62  56  53  54  54  52  51  49  48  54  61  70  76  87  95  96  82  23  16  75 121 133 137 135 132 122 105  80  23  16  34  63  69  73  77  75  73  70  67  67  68  71  79  88  95 100  98  97  94  88  80  74  65  28  25  64  71 108 124 136 139 139 139 139 139 139 140 140 140 140 139
 163 164 164 164 163 164 162 151 126 148 119  23  26  86  98  97  98  96  90  83  72  63  55  52  52  52  53  54  55  60  68  75  81  92  97  99  93  60  17  26 103 121 131 138 140 138 123 107  91  57  17  16  49  72  80  82  86  87  87  86  86  86  91  93  96  98 100  98  93  89  85  78  61  38  17  55  65  66  88 110 135 139 139 138 139 138 139 139 141 140 140 140
 163 164 164 162 162 164 159 143 132 150 143  61  24  53  99  98 100 102  91  84  75  69  62  57  55  57  60  65  68  73  78  84  90  95  96  96  86  27  16  63 111 122 133 142 144 141 127 109  94  83  49  17  17  46  79  86  89  95  97  99 101 101 102 102 105 102 100  96  91  83  69  52  33  18  45  70  64  67  96 119 130 138 137 138 139 137 138 139 139 138 139 139
 161 161 161 162 161 163 160 140 135 150 143  82  21  26  88  99 103 107  99  88  79  75  73  71  70  71  73  77  78  83  87  91  93  96 100  96  42  16  30  90 111 121 136 147 152 144 129 113  95  84  71  44  19  15  29  58  78  93  96  97  99  99  98  98  97  90  81  62  50  36  25  20  27  55  68  69  60  59  95 113 122 133 137 138 138 138 139 139 138 138 138 138
 160 161 160 161 161 161 158 136 140 144 133  92  46  21  48  98 103 107 105  96  89  83  81  81  78  79  81  85  84  90  93  97 102 106  96  46  17  20  68  95 107 118 137 147 150 143 126 109  91  85  77  62  43  26  17  15  16  26  41  46  49  51  47  40  30  25  23  22  20  26  35  55  67  69  69  67  54  46  81 102 123 132 137 138 137 137 138 138 138 138 138 137
 160 159 160 159 160 161 156 135 142 143 126 103  76  30  20  57  97 105 106 104  98  91  88  87  82  82  85  90  94 100 105 105 103  72  40  22  23  50  90  97 106 118 137 146 147 144 125 111  97  88  77  68  53  44  38  34  29  25  22  20  20  20  20  22  26  30  36  43  51  59  63  66  68  68  68  65  50  53  86 102 120 133 135 136 136 136 137 138 139 138 138 137
 160 159 160 158 158 158 149 143 146 143 141 110  80  51  23  23  44  78  96 109 106 100  97  89  85  89  97 106 100  92  77  55  32  22  20  30  50  80  89  97 106 116 133 141 145 140 124 112 100  94  80  64  50  45  43  45  47  51  50  46  49  53  56  56  58  60  60  62  60  64  63  64  65  64  65  60  47  48  82 108 128 133 133 135 134 135 136 136 137 137 137 137
 157 156 158 159 158 157 136 152 146 144 130 108  73  53  62  38  23  34  49  56  68  70  69  66  63  61  54  44  37  33  25  21  23  34  43  52  72  81  88  98 108 117 130 138 141 137 123 113 103  98  84  68  55  46  44  44  48  54  61  63  70  73  76  78  79  77  76  73  68  66  63  63  62  62  61  55  44  47  85 116 129 133 135 135 135 134 135 136 136 137 136 136
 155 157 157 157 157 153 135 150 142 143 128 122  78  55  60  91  80  55  41  26  22  22  23  20  19  20  22  26  30  34  40  47  49  56  60  66  74  77  83  96 106 117 128 134 139 137 124 112 106  98  88  75  66  56  44  41  43  50  56  66  71  75  81  82  82  82  80  75  72  64  61  62  59  60  58  51  38  38  61 110 126 130 133 136 135 134 136 136 136 137 135 135
 153 154 155 154 153 141 143 144 140 139 135 127  86  57  56  89  96  96 100 101  99  94  93  87  85  79  70  66  63  64  65  68  71  70  68  68  71  76  84  95 101 110 124 133 141 138 125 116 106 101  91  80  73  73  54  39  40  43  48  55  62  70  73  75  77  77  74  72  67  62  60  59  57  54  51  47  38  34  47 100 124 130 131 133 134 132 134 135 136 136 136 136
 151 151 151 150 146 135 146 144 144 139 131 116  88  58  48  78  94  98 101 100  98 101 102  93  88  85  82  83  85  84  80  79  76  71  64  65  70  80  87  94 100 108 119 132 137 136 128 119 107 100  91  82  76  77  71  44  36  41  44  48  52  59  65  68  71  71  68  67  62  59  55  55  52  49  46  42  36  35  47  89 123 129 132 132 133 131 135 136 136 137 136 136
 152 151 150 148 141 136 143 141 143 138 130 121  84  58  44  64  90  96  97 100  99 104 101  94  92  91  94  96  94  91  86  80  73  64  58  61  71  86  91  94  98 107 118 129 132 129 124 115 103  96  91  83  77  79  79  63  43  47  47  48  48  52  55  58  60  62  61  60  56  54  51  49  47  44  43  39  33  35  44  80 123 130 132 132 132 133 135 135 135 135 134 137
 151 149 148 146 129 144 145 146 145 140 130 115  83  58  47  51  85  93  97  98 101  99  96  96  96  96 100  99  95  89  84  75  67  58  56  59  72  94  93  96  99 107 114 127 125 120 114 105 100  92  83  78  74  75  80  70  53  53  55  53  50  47  47  48  51  53  52  51  47  49  47  44  42  39  38  31  30  33  43  70 110 127 133 133 132 132 133 135 135 135 135 135
 149 149 147 144 130 147 149 149 147 142 132 101  78  55  40  41  73  88  90  94  97  97  96  96  99 102 100  98  92  87  80  72  63  59  62  60  77  98  93  95  98 101 107 120 118 114 110 103  98  86  78  71  66  69  74  67  53  54  56  54  54  50  46  44  42  42  42  43  41  42  41  40  38  37  33  29  27  31  40  62 106 124 132 133 134 132 134 133 135 134 135 134
 150 149 147 138 137 146 149 149 146 143 134 114  90  48  34  35  55  80  88  89  92  93  95  99  98 100  99  95  90  85  78  71  65  69  78  78  84  94  93  91  93  98 103 110 109 104  99  95  88  80  68  63  59  61  61  54  48  52  54  51  50  47  46  43  40  37  36  35  36  34  33  34  32  31  28  26  27  28  33  61 106 122 131 132 133 132 134 134 134 135 133 132
 149 149 146 129 141 145 146 148 144 140 135 121  92  49  34  32  40  69  84  80  83  90  91  95  95  94  94  93  90  87  81  77  78  84  90  90  85  89  90  83  81  87  93  99 100  93  87  85  78  68  56  47  46  45  41  37  42  51  52  53  49  46  45  45  43  37  29  26  28  30  28  29  29  27  26  22  24  25  35  58 111 122 129 131 132 133 133 134 135 134 134 134
 147 148 145 131 142 144 145 146 144 142 135 122  90  54  36  30  36  54  72  74  77  84  82  89  91  90  91  90  89  88  86  85  92  92  96  93  84  83  80  72  69  67  71  80  84  79  74  70  61  50  41  36  29  25  25  29  36  45  49  48  48  47  48  47  43  38  32  26  22  26  26  25  23  22  20  21  22  24  32  64 112 125 131 132 133 133 133 133 133 133 133 134
 147 146 145 132 142 144 145 145 144 142 137 130 102  62  41  36  37  46  64  73  75  77  80  82  86  87  88  89  90  91  91  93  96  95  97  94  85  75  64  55  49  48  49  56  66  66  59  54  45  40  34  27  21  22  24  30  39  46  46  48  46  45  47  50  48  41  34  29  24  23  24  23  22  19  17  18  20  25  34  66 105 124 132 133 132 133 133 134 133 133 133 133
 147 146 143 140 141 144 146 146 144 143 142 129 105  65  44  36  34  39  55  69  68  68  72  77  80  82  82  86  90  90  90  94  94  95  96  96  88  73  53  35  26  24  33  44  48  51  48  44  39  37  29  24  20  19  25  33  44  48  48  47  48  45  44  48  45  40  36  32  28  25  23  21  18  18  15  16  17  23  41  78 113 125 132 132 132 133 132 132 133 132 133 132
 147 147 144 143 145 146 145 144 144 142 139 126 104  89  48  34  37  38  43  58  61  62  66  69  72  73  78  83  87  86  86  88  91  94  95  95  85  67  49  37  25  19  23  31  37  41  41  38  38  29  24  21  18  21  27  34  41  48  55  55  50  47  47  42  37  34  31  29  29  29  26  24  18  18  17  16  17  24  48  88 117 127 131 132 132 132 132 131 131 132 132 131
 146 145 144 143 144 147 149 146 146 145 141 126 105  78  59  38  36  34  35  48  59  61  64  64  67  66  71  76  80  82  81  83  90  91  94  92  85  68  50  37  26  20  18  21  23  28  31  28  25  20  20  19  19  23  29  30  41  46  52  54  50  43  39  40  35  32  32  31  28  29  27  28  24  18  16  17  18  28  52  93 118 128 131 132 131 132 132 132 131 131 132 131
 145 143 143 143 146 146 145 145 146 143 140 128 114  82  72  38  30  26  28  38  49  54  58  56  57  56  57  67  77  82  82  87  90  87  88  89  77  64  50  39  30  25  19  18  17  20  21  18  22  23  20  23  23  26  30  30  38  46  48  47  41  34  28  28  28  28  28  26  29  30  27  25  24  24  18  17  20  32  51  94 121 125 130 131 131 131 131 131 131 130 131 132
 143 144 144 144 145 147 147 146 145 145 143 134 119  90  81  45  34  31  28  33  39  48  51  51  52  51  50  58  75  84  86  87  83  82  87  83  74  62  53  43  34  29  25  23  19  18  18  18  22  24  28  31  31  33  36  33  37  44  45  43  33  27  23  22  24  26  26  24  25  29  29  25  27  24  19  17  19  32  71 114 127 127 130 130 131 132 132 131 130 131 131 131
 143 142 143 145 144 144 146 145 145 145 140 134 115 110  86  54  39  30  30  32  31  39  43  47  50  51  54  56  67  79  85  85  86  78  80  75  72  65  53  50  39  36  28  27  26  22  23  29  32  35  45  50  46  42  41  34  33  39  38  36  29  24  25  25  27  28  24  24  20  22  24  17  16  16  19  17  21  31  83 117 126 128 130 129 130 130 131 131 130 130 130 130
 141 141 141 143 144 143 143 143 144 143 139 135 115 114 101  66  40  31  29  27  28  32  36  42  46  52  56  54  62  74  79  80  78  73  71  66  67  64  55  48  42  36  33  33  40  35  36  44  50  52  52  45  38  36  34  31  28  27  26  25  26  28  29  31  32  29  28  24  22  19  22  16  16  17  21  18  21  20  66 113 122 127 129 128 130 129 130 129 130 130 131 130
 140 140 138 141 142 144 144 142 141 140 137 131 114 117 112  79  44  29  26  26  24  24  30  33  41  49  54  54  60  67  71  73  69  67  62  56  57  59  57  49  41  33  34  32  40  36  33  34  36  35  34  31  29  28  27  24  22  24  24  24  29  31  33  37  35  30  27  26  23  20  21  17  16  16  19  18  18  15  27  96 123 127 129 127 128 129 130 130 129 130 130 129
 138 138 138 141 143 143 141 141 142 140 139 134 120 118 118  99  53  30  24  23  22  23  24  26  37  45  52  50  54  57  60  54  57  63  52  45  49  53  53  49  43  37  31  31  31  30  28  28  25  23  22  24  22  26  27  30  29  28  27  31  34  34  36  40  36  31  27  22  21  19  22  19  12  15  17  15  16  13  16  57 120 124 125 126 127 128 128 127 128 129 129 129
 138 137 138 138 141 140 141 140 138 137 135 133 125 120 114 110  80  36  22  18  18  21  21  22  31  39  46  47  50  51  47  44  53  49  40  35  41  43  46  41  37  31  26  25  23  23  24  25  27  31  30  34  36  38  37  35  33  30  33  39  36  36  41  38  34  30  26  24  18  16  16  22  15  15  15  16  17  14  14  35 117 124 125 125 126 128 125 128 127 128 128 128
 134 135 137 138 138 140 140 140 138 136 135 131 125 126 117 110  90  36  22  20  18  18  19  21  27  32  40  43  44  38  38  39  41  36  31  32  32  31  30  28  29  30  29  32  31  36  38  39  41  40  40  38  39  44  41  36  33  37  40  38  35  37  39  35  32  28  26  23  18  20  15  20  14  17  15  17  16  12  12  16 103 122 123 126 126 126 127 126 127 127 125 126
 134 135 136 137 137 137 137 138 138 135 134 131 124 127 118 108  87  41  24  21  17  16  14  17  24  27  35  37  36  35  38  36  36  33  35  37  39  38  35  35  37  38  38  41  42  42  44  43  42  41  42  39  40  42  39  36  38  40  37  35  35  38  40  36  32  29  25  21  17  19  21  18  13  14  14  15  12  11  11  15  84 120 123 124 124 125 125 125 126 125 125 126
 134 134 133 136 135 137 137 135 136 134 132 131 124 126 119 112  92  39  24  18  14  16  15  15  21  29  33  32  30  34  37  36  35  37  44  49  51  54  54  52  47  45  43  39  38  38  39  38  39  38  37  37  37  37  33  34  35  32  33  35  36  38  41  35  32  27  24  21  18  15  21  17  13  12  13  15  11   9   9  12  74 118 120 123 122 123 125 125 125 125 125 125
 131 131 134 135 136 135 135 132 132 130 130 130 122 121 120 113  93  38  23  18  16  15  14  15  22  30  32  28  32  36  34  34  39  43  52  56  58  60  63  64  61  59  54  48  45  42  41  40  39  37  36  35  33  30  28  28  29  31  31  34  40  41  39  33  27  25  25  23  16  17  20  15  14  13  14  13  10   9   9  13  47 114 119 119 122 123 123 123 124 124 124 124
 130 131 132 132 134 131 134 133 131 130 130 126 118 117 114 113 102  38  19  17  16  17  19  19  24  28  26  31  33  30  30  36  37  42  50  54  58  60  63  60  63  62  60  57  56  56  52  48  47  39  32  29  23  21  25  26  27  32  34  36  40  40  35  31  32  26  25  25  21  18  16  14  14  15  12  12  10   8  10  13  40 113 118 120 120 120 121 120 121 123 122 123
 128 129 129 131 132 131 131 130 128 126 126 122 117 112 111 110 100  44  20  17  15  17  18  24  28  21  26  29  28  28  31  32  38  42  46  53  53  55  56  55  55  54  54  53  52  48  46  42  38  32  27  26  18  17  25  24  26  32  39  40  43  39  34  29  30  30  18  20  17  18  16  12  12  13  12  11   9   9   9  10  33 110 117 119 118 120 120 119 119 122 123 122
 127 129 129 129 128 126 126 123 122 121 119 118 113 109 109 105 101  45  21  18  19  17  19  24  19  19  21  24  24  26  29  34  38  38  44  50  53  54  54  54  51  49  46  45  43  39  34  34  32  29  25  24  17  17  23  24  31  32  42  43  43  41  38  36  23  24  27  18  17  16  17  13  14  13  11  10   9   9   9  10  22 101 115 117 118 118 119 119 118 119 119 119
 126 126 124 122 122 122 120 119 118 117 115 112 111 109 106 106  98  40  17  17  18  15  16  18  16  17  18  21  23  27  27  32  36  39  45  50  54  53  54  51  49  46  45  42  40  36  32  31  27  26  24  23  18  18  21  24  31  32  37  45  44  44  40  38  30  20  26  21  17  15  13  13  14  14   8   9   8   9   8   9  20  99 114 116 116 117 118 118 118 118 119 119
 122 122 122 121 120 118 118 117 114 113 112 110 110 108 104  94  76  59  15  17  16  15  15  15  13  12  14  20  25  27  27  26  31  37  44  48  55  54  53  50  48  46  45  43  40  37  36  33  26  25  24  24  25  21  19  23  28  32  33  41  41  43  42  37  31  24  26  24  20  16  12  14  14  10   9   8   8   9   9   9  17 102 112 114 115 116 116 116 115 117 117 118
 120 121 121 120 118 117 116 114 112 110 110 107 104  92  76  35  19  17  16  14  13  12  13  13  11  14  20  22  24  25  23  23  28  35  39  44  47  44  39  40  44  47  49  52  45  42  38  32  30  25  21  25  22  23  19  22  28  30  35  40  38  45  45  40  33  27  24  21  24  16  12  11  14   9   8   8   8   8   9   9  19  68 107 112 114 114 115 114 116 116 116 116
 118 118 118 118 117 116 114 110 110 107  94  44  38  18  15  16  11  12  13  11  11  12  13  13  12  19  22  22  22  22  22  23  28  34  39  42  40  37  32  32  42  47  51  54  48  44  38  35  30  26  22  27  22  24  23  24  28  29  36  42  45  40  46  43  34  30  21  21  19  16  14  11  12   8   8   8   6   8   8   9  27  63 107 111 112 114 114 114 113 116 116 116
 117 115 117 114 114 112 111 105  79  54  23  18  13  12  11   7   9  10  11  10   9  11  12  15  18  21  21  18  21  19  23  25  29  32  38  42  38  34  30  32  41  45  53  53  49  44  39  34  28  24  22  28  23  25  25  26  26  27  33  41  42  39  36  39  36  26  24  22  16  13  13  13  14  10   7   5   5   6   8   9  13  36  84 106 110 111 112 114 115 113 113 114
 116 114 115 113 111 108  96  68  19  18  13  10   9   8   8   8   8   9  10  10   8  12  13  15  20  16  15  17  18  18  23  18  23  34  37  40  36  34  31  32  44  42  49  49  46  42  38  37  31  22  24  25  25  25  25  26  26  28  32  36  39  34  31  28  34  24  23  22  15  13  10  10   8   8   5   4   6   6   8   9  10  10  13  52  98 108 110 110 112 112 113 113
 114 114 112 110 105  67  27  17  14  13  12  11  10  10   9   8   7   8   7   8   8   9  10  13  17  16  14  16  17  19  15  17  27  35  32  34  32  34  32  35  42  38  46  46  46  41  36  40  31  23  26  24  24  23  26  26  27  29  33  37  38  36  34  26  26  26  21  16  15  12   9   9   8   5   4   5   6   6   7   9   9   9  11  13  20  39  84 108 109 111 111 112
 112 111 109  94  54  18  14  13  13  12  12  10   9   8   9   6   6   8   8   9   7   8   9  13  14  11  13  11  10  13  19  23  30  32  29  28  30  32  32  33  39  38  40  39  41  36  34  36  30  24  25  25  25  22  26  25  27  29  37  42  34  34  35  24  24  24  18  13  15  12   9   8   4   4   4   6   7   7   8   9   8   9  10  11  13  15  26  48  93 109 109 110
 110 105 100  40  19  14  12  12  12  12  10   9   8   8   7   4   6   8   8   8   8   7   8  10  10  13  14  13  15  14  19  22  24  23  24  25  26  32  28  34  35  36  32  39  35  32  34  35  27  25  25  21  23  24  28  25  28  31  38  41  29  31  28  25  23  18  18  13  10   9   5   5   4   4   5   5   5   7   8   7   6   8   9  10  11  12  12  15  29  77  95 109
  94  54  32  19  15  14  12  12  12  10   9   9   9   8   6   5   7   8   8   8   8   8  10  10  13  12  11   9  12  16  16  14  23  20  21  24  26  27  29  32  34  31  27  39  33  31  34  32  25  24  24  21  25  24  24  22  30  32  34  35  29  30  25  22  20  16  14  14   8   8   5   4   4   4   4   5   6   6   7   7   5   7   8   9   9  10  11  11  13  16  41  99
  30  21  15  15  14  12  11  11  11   9   8   8   8   7   5   7   7   7   7   6   6   7   7   9  12  12   9   9  10  11  15  16  20  15  18  20  22  24  29  27  30  24  30  36  30  30  32  25  26  24  23  22  23  23  20  21  27  28  32  31  26  28  24  17  20  16  12   9   7   4   4   5   4   4   4   4   4   6   5   4   5   5   6   8   9   9  10  10  11  13  13  19
  15  14  14  12  11  10   9  10   9   9   9   8   8   5   4   7   7   6   5   5   6   8   7   8  10  12  11   8  10   9  11  14  18  16  16  17  18  25  24  28  25  27  31  30  28  30  27  25  24  20  22  20  19  21  19  22  24  26  29  27  25  27  22  16  19  16  10   7   6   5   4   5   5   4   4   4   5   6   4   5   5   4   6   7   8   9   9   9   9  10  12  13
  12  13  11  11  10  11   9  10   9   9   9   7   7   4   5   6   8   6   6   6   7   6   6   7   9  12   8  10  11  10  12  11  13  13  12  15  17  23  21  22  22  27  27  25  23  27  24  23  19  17  18  16  17  18  17  19  22  29  22  24  24  21  20  16  19  13   7   5   6   7   4   4   6   4   4   5   5   4   4   4   4   5   6   5   8   8   8   9   9   9  10  11
  12  11  12  10  10  10   9   9   9   9   8   7   5   4   7   7   7   7   7   6   8   7   6   6   8   9   9   8   8   9  10  10  10  10   9  11  15  19  18  17  20  22  26  24  19  23  23  22  15  15  14  15  15  16  13  18  21  24  19  23  20  17  14  16  19  11   7   4   5   5   4   4   6   4   4   4   4   4   5   5   4   5   5   6   7   8   9   9   8   8   9   9
  10  11  12  11  10  10  10   9   8   8   9   6   5   5   5   5   6   6   6   6   6   6   5   5   7   4   6   7   8   8   9   9   9  10   8  10  15  17  15  17  20  23  21  19  20  20  21  18  12  12  15  12  12  14  13  19  19  20  17  17  17  16  14  16  17   8   7   4   4   4   4   4   4   4   4   5   4   4   4   4   4   4   7   5   8   7   8   8   9  10  10  10
  10  12  10  10   9   9   8   9   8   9   7   5   5   5   5   4   7   6   5   5   5   5   5   4   5   4   4   6   5   7  11   9   9  10  10  11  13  12  12  17  16  18  15  18  20  17  15  14  12  10  12   9   9  11  12  17  19  16  15  14  16  12  11  15  10   7   5   5   4   3   4   4   4   4   4   5   4   4   4   4   5   4   5   5   6   5   6   7   7  10   8   9
  10  11  10  10  10   8   8   9   9   9   5   5   5   5   5   5   7   6   5   5   5   5   5   4   4   5   4   4   6   6   8   9   8  10  10  10  11   9  12  15  15  15  14  15  17  12  11  14   9   9   9  10   9   9  11  12  18  12  12  11  12   9  11  12   7   7   5   4   4   4   4   5   5   4   5   4   4   4   4   4   4   4   5   5   4   6   5   7   9   8   9   9
  11  10  10  10   9   7   7   8   9   7   5   6   5   4   5   6   5   6   5   5   4   5   5   4   5   4   4   4   5   6   5   7   7  10   8   8  10  10  12  13  12  14  12  10  12   9   9  10  10   8   8   9   8  10  10  10  13  12  10  10  11   8  11   7   4   4   4   5   4   4   4   4   4   4   4   4   4   4   4   4   4   4   4   4   4   5   6   7   8   8   8   7
