P2
# Generated by OpenCV 3.4.0
92 112
255
 182 182 184 185 185 185 186 184 185 182 177 174 172 176 174 151 118 113 101  93  96  97  65  50  47  54  61  60  56  54  53  52  50  50  50  50  49  50  54  51  51  58  61  66  62  60  58  50  50  49  46  47  49  49  47  46  51  53  54  65  84  86  89 104 113 117 127 136 136 132 118 120 130 143 145 148 153 151 154 153 154 154 155 155 153 154 152 152 150 149 152 151
 172 178 180 176 176 181 178 181 177 173 170 174 171 167 149 132 113 104  96  87  81  77  70  60  55  51  54  56  55  51  49  48  50  49  52  53  54  53  54  60  61  65  69  72  71  70  68  62  56  50  46  48  46  49  46  45  48  48  49  54  66  70  76 104 116 120 125 124 132 140 134 122 119 133 139 146 154 151 154 151 152 154 154 154 155 154 154 153 152 153 152 151
 165 169 170 170 170 173 170 168 167 169 162 160 155 154 146 133 122  96  81  77  72  69  65  58  52  51  52  49  47  49  46  47  51  56  61  66  67  65  68  75  81  87  91  94  94  93  86  80  73  62  59  56  51  52  51  51  52  47  48  51  57  61  68  93 107 114 119 122 116 121 126 133 123 124 130 139 151 154 152 153 152 154 154 153 154 154 153 153 151 153 151 150
 162 164 162 163 164 164 163 159 163 162 151 155 148 145 134 127  98  83  76  74  73  70  65  59  51  47  49  48  47  47  49  52  59  72  82  82  85  83  93  98  99 105 108 114 110 114 112 110 103  93  88  84  74  64  63  65  61  54  50  49  52  57  61  92 111 122 124 115 114 116 119 121 125 121 128 138 143 150 152 153 154 154 154 154 153 154 153 152 153 151 152 152
 160 160 162 161 161 160 158 156 159 155 147 142 131 123 119 108  89  78  74  73  68  63  56  51  46  47  44  46  49  53  57  65  76  85  96 105 107 114 116 119 123 123 124 125 125 125 124 123 123 118 115 109  98  89  84  84  78  69  61  54  53  55  61  70  81  98 110 114 107 106 108 120 131 127 119 128 141 149 149 153 154 155 154 153 154 153 155 153 152 154 152 152
 158 158 159 160 160 161 156 154 153 150 146 138 127 119 109  96  90  80  73  71  66  58  52  51  47  46  48  50  57  67  76  87 100 110 117 124 127 129 132 135 138 135 133 133 131 132 130 128 127 124 124 120 114 108 102  99  94  84  75  66  59  52  55  63  71  84  96 100 101 100  95 116 127 130 124 126 137 142 143 150 154 154 154 154 153 153 154 154 153 155 153 153
 157 157 158 158 156 156 156 154 148 144 134 128 122 112  98  93  89  84  79  73  66  56  52  49  53  59  61  66  79  92 100 106 122 128 138 142 143 142 145 145 145 140 138 138 137 137 136 132 132 129 126 124 122 118 113 106 104 101  88  81  74  61  51  53  63  71  82  95 103  99  94  95 120 127 129 131 137 145 144 147 151 154 154 153 152 152 151 151 153 154 154 154
 157 157 158 156 155 155 155 152 148 145 136 130 119 107  98  88  87  83  77  67  55  50  51  61  68  74  82  89 101 114 120 125 133 141 151 154 156 155 152 149 149 144 141 140 141 140 139 138 133 132 130 127 125 123 119 114 110 106 101  95  87  79  63  52  55  65  74  83  86  98  99  89  89 113 125 132 134 143 150 152 145 152 156 156 154 154 154 154 152 156 154 154
 156 157 158 155 155 154 148 149 148 132 113 108 104  99  91  84  84  81  68  59  57  60  68  77  85  97 107 113 123 132 136 140 146 155 159 163 161 155 151 149 147 143 141 141 142 141 139 139 136 134 131 129 125 123 121 114 110 107 103 102  96  91  81  64  51  53  66  75  78  89  96 100  86  92 114 126 139 138 148 154 150 146 154 155 154 153 154 154 154 155 155 154
 157 157 158 154 155 151 146 143 130 110 103 107 106  91  80  84  87  77  66  67  71  77  86  97 106 114 121 126 136 142 141 145 152 159 162 161 158 153 149 146 144 144 143 143 141 139 137 135 135 134 130 129 126 123 120 115 111 109 106 103  98  97  91  82  65  50  54  66  74  79  80  86  90  88  89 110 132 138 146 152 154 148 151 154 154 153 153 154 155 155 155 154
 157 158 157 155 154 149 142 132 127 118 120 127 101  82  84  85  77  66  71  80  87  96 104 112 118 124 127 133 140 143 145 146 155 158 158 160 157 151 148 147 144 144 144 144 142 140 137 133 133 131 129 129 126 124 119 118 114 110 107 105 103  99  96  92  82  62  52  60  72  80  86  82  96 101  96  95 123 137 148 150 154 150 151 151 153 152 152 154 154 155 155 154
 158 158 158 155 152 147 145 127 123 124 127 106  83  85  85  80  67  72  86  95 105 111 118 123 124 126 129 136 144 146 148 152 156 154 156 156 153 149 147 145 144 145 146 144 142 141 137 132 131 131 127 125 124 124 120 118 116 113 108 106 103 103  98  95  90  80  62  57  66  78  79  89  95 105 101  99 110 130 147 151 154 154 154 154 156 156 155 155 156 156 155 155
 158 158 156 156 151 149 146 122 132 130 116  84  79  82  84  70  70  86 101 109 115 120 123 125 127 130 133 140 144 146 151 153 150 149 152 148 147 145 146 145 144 144 145 143 142 140 136 132 130 129 127 126 124 123 121 116 113 113 111 108 104 104 100  96  91  87  72  59  57  63  65  73  81  96 101 103  97 124 148 151 153 153 153 154 155 156 154 156 156 156 155 156
 158 158 156 154 152 149 139 138 135 121  92  74  76  80  78  71  83 101 111 113 116 121 122 127 130 134 140 142 144 146 149 148 150 148 148 145 146 144 145 144 142 140 142 142 139 135 131 132 129 126 124 125 124 122 118 114 111 108 108 107 103 102  98  97  93  91  82  66  52  52  53  68  74  77  86  95  95 113 144 151 154 154 153 156 154 155 156 156 157 156 155 156
 157 158 154 154 156 148 144 141 134 111  73  72  74  78  78  75  99 110 116 118 121 123 125 127 131 136 140 140 141 143 144 147 146 143 143 143 144 142 141 140 139 136 137 137 134 134 131 128 124 122 120 123 121 120 118 113 110 108 106 105 102 100 100  99  96  93  88  78  60  50  49  55  71  73  67  72  96 105 136 150 154 156 155 155 153 154 154 154 155 155 155 156
 157 157 154 156 156 152 151 147 128  84  72  66  73  74  75  91 109 114 119 119 122 124 125 127 132 135 138 140 139 140 141 144 146 143 140 141 142 139 137 137 138 137 134 134 133 128 126 126 120 118 118 119 119 117 114 112 110 106 103 102 100  99  98  98  97  95  90  82  70  52  48  50  51  60  67  69  74 106 129 150 156 155 156 155 155 156 156 155 157 156 155 155
 156 156 155 156 156 158 155 143 110  77  61  64  70  70  83 103 111 115 116 119 123 124 125 126 129 134 135 134 135 137 139 141 142 140 139 139 137 136 135 137 136 132 132 132 130 126 123 121 113 113 115 118 119 114 112 109 107 103 100  97  97  98  98  97  97  95  91  88  79  58  49  50  50  63  81  92  85 102 124 149 154 154 156 155 155 157 156 157 157 156 156 157
 155 156 155 155 158 158 157 144  96  73  56  59  66  71  95 106 114 115 118 120 122 123 123 123 127 131 132 133 135 136 137 138 135 136 135 134 132 133 132 133 132 132 132 131 129 125 120 118 116 113 114 115 114 113 107 105 103 101  98  98  97  98  97  97  96  97  94  91  85  71  52  50  50  64  77  93 114 100 119 148 155 156 157 155 156 157 156 156 156 157 157 156
 156 155 155 156 158 158 157 151  76  78  53  57  63  77 101 108 114 117 119 120 120 122 121 123 126 127 128 131 133 133 134 134 133 133 129 127 129 130 129 129 132 132 131 128 124 120 116 113 111 110 108 108 108 107 103 101 100  97  96  97  96  98  96  95  95  93  93  93  89  80  62  49  48  49  61  79  97 116 121 144 154 155 156 155 157 157 157 157 157 156 157 155
 157 155 155 154 157 158 156 148  78  64  51  54  61  85 105 112 117 118 118 117 118 122 120 120 124 126 129 130 129 129 129 129 129 128 126 125 126 128 128 130 129 128 127 122 119 117 113 112 111 106 104 106 105 101  99  98  95  96  95  95  94  94  94  93  95  93  94  95  93  84  72  53  51  45  50  76  85 101 122 136 153 156 156 157 157 157 156 157 156 157 157 157
 158 157 158 157 155 157 155 144  70  50  53  52  65  93 108 115 117 115 119 117 115 116 116 118 122 123 125 127 126 129 128 127 127 124 125 122 121 125 126 126 127 125 124 121 115 113 108 107 108 103 102 102 100  98  96  95  95  96  93  91  90  91  91  91  92  92  92  93  93  88  80  62  50  46  46  54  89  88 108 124 145 151 156 156 156 156 157 157 158 157 158 156
 159 159 158 157 157 158 156 153  63  46  51  56  67  99 111 115 118 115 115 116 115 113 117 118 121 123 124 127 128 126 124 123 124 123 123 120 119 122 121 123 122 121 118 115 113 108 106 104 104 100 100 100  96  96  93  91  90  92  90  89  88  91  91  91  90  88  90  92  93  89  83  70  52  50  46  48  66  95  94 115 131 150 155 156 156 158 157 157 157 157 157 157
 158 159 158 158 158 157 158 154  83  49  51  55  76 102 113 117 117 116 114 114 115 112 114 116 120 122 124 126 126 125 121 121 122 122 121 116 116 119 118 119 117 116 113 110 110 104 101  99 101  99  98  98  97  95  93  89  88  89  88  88  88  88  89  89  89  89  88  89  89  88  84  74  56  50  46  44  56  85 109 103 127 147 155 158 158 157 157 156 158 157 156 157
 158 158 157 159 158 158 156 152 100  58  58  58  86 107 113 116 115 115 113 114 113 112 112 114 118 119 119 119 120 120 120 120 120 120 118 118 118 116 115 115 113 112 107 107 106 101  98  99  98  97  99  97  94  94  93  90  91  89  89  89  89  90  90  89  88  88  87  88  86  88  83  76  59  46  45  43  44  68 119 101 121 147 155 156 157 157 157 156 156 156 156 157
 158 157 158 158 158 158 157 151 100  71  60  64  91 108 113 116 114 115 110 111 112 113 114 114 114 114 112 115 117 116 116 117 117 116 115 114 112 113 114 112 113 113 110 108 106 102  99 100  98  97  98  96  95  95  93  91  92  89  87  89  89  89  89  91  90  87  86  86  84  85  83  75  61  46  43  42  43  57  96 115 122 146 154 153 157 158 156 157 156 156 156 157
 159 159 158 158 159 158 157 155  94  65  60  66  93 108 116 116 114 113 110 110 109 108 109 111 110 112 112 111 112 112 114 115 114 115 113 112 113 112 113 113 111 109 105 104 101  99 100 100  98  99  98  97  94  93  92  91  92  90  89  90  92  92  90  89  87  87  86  84  81  84  80  73  64  46  39  39  42  59  84 114 125 142 154 155 156 156 156 157 156 156 155 155
 158 158 160 157 158 158 156 152  99  65  59  69  94 109 114 115 113 111 109 110 110 108 109 109 109 109 110 111 109 111 113 114 115 114 114 111 111 112 111 110 106 104 102 100 100 100 102  98  96 100  96  95  94  93  94  96  97  95  94  93  95  92  89  89  88  88  87  84  80  81  80  75  64  46  41  37  41  47  79 112 130 142 149 154 155 155 156 154 154 156 155 155
 158 158 159 159 159 159 157 143  96  61  58  64  98 110 113 112 111 110 110 109 109 108 109 107 109 111 111 113 113 113 113 113 111 112 110 110 111 111 110 109 104 103 104 104 102 100  99  97  98  98  96  96  97  98  98  97  96  96  94  96  96  93  89  88  87  86  85  84  81  80  78  74  66  46  38  36  37  42  63  98 125 146 146 152 151 154 155 154 154 154 155 155
 159 158 158 159 158 159 157 137  89  57  51  64  98 109 112 109 111 109 108 109 110 110 110 110 111 114 117 116 116 116 115 116 115 111 109 110 110 110 110 108 104 104 102 101 101 100 100  99 100  99  97 100 102 104 102 101 101 100  98  98  96  94  91  89  87  86  85  82  82  79  77  74  67  47  35  34  36  42  52  84 101 141 149 152 151 152 153 154 153 154 154 154
 158 158 159 159 159 159 157 129  87  55  49  66  97 108 110 110 109 105 108 105 109 112 111 110 114 117 117 118 119 118 117 118 115 112 112 110 108 105 106 103 102 101  99  98 100 102 100 101 102 104 104 104 105 106 105 105 102 102 100  96  95  94  94  91  89  88  84  83  80  78  74  73  69  49  34  33  35  41  54  72 100 132 147 149 150 154 152 153 153 153 152 153
 158 158 159 160 158 158 155 121  83  51  48  65  95 107 110 108 106 104 106 108 110 112 112 113 115 117 118 118 120 122 122 121 119 114 111 111 109 109 107 105 102 100 101  98  96  98 101 102 101 104 105 106 107 109 109 106 104 102 100  98  98  96  96  93  90  87  84  83  80  79  74  72  68  52  33  31  35  46  58  65 111 127 145 150 150 152 151 150 152 153 151 152
 158 158 157 158 158 158 156 125  76  56  50  63  94 107 109 108 105 106 106 110 111 114 115 116 118 118 120 124 127 128 125 125 123 120 116 113 110 109 107 105 106 104 102 102 101 102 100  98  98 104 107 108 108 107 106 105 105 100 100 101 100 100 100 100  95  90  88  84  82  79  76  72  68  54  34  31  35  48  61  81 114 134 145 148 147 150 149 149 149 150 149 151
 158 158 156 158 158 158 154 124  74  61  50  60  90 106 109 107 105 106 108 110 112 116 119 119 118 120 123 126 128 127 125 126 125 124 118 114 113 110 109 107 106 103 102 103 103 101 102 100 100 105 109 110 106 105 105 103 104 104 104 106 105 107 107 105 100  96  90  86  82  80  75  73  70  58  34  30  36  50  70  83 112 134 143 145 147 148 150 150 149 149 147 149
 158 158 158 160 158 158 153 131  86  58  48  57  90 103 107 105 103 105 108 110 114 119 120 123 124 124 125 126 128 128 128 128 126 125 121 120 116 114 110 109 108 108 105 105 104 105 106 106 107 108 110 108 104 102 102 102 104 106 106 105 105 106 107 104 100  97  90  86  83  81  75  71  71  60  35  27  38  57  82  87 113 130 142 146 146 146 147 148 148 148 148 148
 158 158 159 158 159 158 157 130  80  55  46  53  85 102 106 104 102 105 108 112 115 121 123 126 126 124 125 124 125 127 128 128 126 123 122 117 115 114 111 111 109 110 108 107 107 108 108 107 108 106 108 107 107 106 104 102 102 105 104 104 104 101 100  96  91  86  82  78  80  82  75  72  72  66  38  27  38  54  85 101 116 137 144 146 147 146 147 146 148 148 147 149
 157 158 158 158 158 158 157 135  70  53  45  50  80 101 103 101 100 107 109 114 120 123 127 128 127 125 124 122 122 123 124 125 123 120 120 116 115 114 114 112 112 110 110 110 109 106 105 106 107 106 106 103 103  99  98 100 100 100  96  94  91  85  83  80  74  75  72  69  73  73  74  71  72  70  42  26  33  48  84  96 111 131 141 144 144 144 144 146 147 147 149 148
 157 157 158 159 158 158 158 152  78  52  44  47  78 100 101 102 104 108 112 118 125 128 128 128 127 127 123 124 123 121 120 118 116 114 113 113 114 113 112 112 113 112 110 108 107 105 105 102 104 101  99  96  95  93  91  89  88  85  85  78  68  67  64  60  59  61  57  57  62  64  63  65  69  71  51  24  30  47  73  94 118 134 136 137 138 141 143 146 146 146 148 148
 158 158 159 158 159 159 158 150  82  53  45  44  75  99 101 103 106 108 114 122 129 129 128 128 126 127 124 119 118 117 116 114 110 109 106 105 107 106 107 112 111 110 107 103 102  99  98  96  96  92  90  88  82  76  70  66  65  62  61  57  51  49  48  45  46  45  45  49  48  50  53  56  60  70  58  25  28  51  74  90 115 132 134 139 143 142 146 146 146 146 147 148
 158 158 158 158 159 158 157 145  74  62  44  41  72 100 101 102 107 110 114 119 124 123 123 123 122 122 118 114 114 113 111 109 103 101 100 100  99  98 103 106 108 104 100  96  98  95  91  90  90  86  77  70  61  53  50  44  38  37  35  34  34  35  34  34  37  41  40  42  45  45  46  48  51  62  63  25  28  40  72  86 108 118 133 138 141 142 145 146 144 146 146 147
 158 158 158 158 158 158 156 137  72  58  48  36  67 100 101 102 110 110 108 104 105 106 107 109 106 101 101 104 106 102  98  95  93  92  93  94  95  97 100 102 100 100  96  94  93  91  86  83  78  75  65  55  45  41  35  29  27  26  25  25  25  26  27  29  32  35  38  40  43  44  44  44  48  56  61  23  24  41  59  78 103 112 124 135 137 141 143 144 145 146 145 146
 159 158 158 158 158 158 154 133  70  50  54  35  67  98  99 101 106 102  93  87  88  86  81  85  82  80  85  89  87  78  75  72  72  73  80  83  87  88  91  91  92  93  91  89  88  83  78  77  65  58  49  44  38  34  29  25  24  23  22  23  23  24  27  30  33  36  38  39  44  45  46  49  51  52  53  26  20  36  58  85  99 118 128 136 140 143 143 142 144 145 144 146
 158 158 158 159 159 159 150 118  61  52  57  34  55 102 102  99  90  82  76  74  69  65  63  61  67  71  64  57  52  50  46  46  47  55  60  66  73  78  85  86  85  88  86  82  83  77  70  65  56  44  39  38  33  28  24  23  22  22  23  27  30  33  34  36  35  33  33  31  28  28  27  26  24  23  22  25  24  26  32  37  55 113 130 137 140 142 143 142 142 144 145 145
 158 158 158 158 158 156 141 113  64  58  67  39  52 100  97  82  76  68  60  58  58  57  57  57  50  42  40  37  36  34  32  32  34  36  44  49  56  66  72  76  79  78  75  74  74  71  64  56  48  37  33  31  28  25  25  26  30  31  30  26  24  22  19  18  17  17  18  19  21  22  22  21  21  19  15  16  16  17  16  18  16 114 124 135 138 139 141 144 143 142 144 144
 158 159 158 158 158 150 137 113  60  68  76  54  44  95  84  68  64  57  52  51  52  51  49  46  42  37  35  31  28  28  28  28  29  30  32  37  41  49  57  65  71  72  72  71  68  62  57  48  39  34  30  29  30  34  36  31  24  18  16  19  23  26  30  34  37  39  37  36  38  37  39  43  44  46  47  31  18  19  52  51  24 116 131 131 135 138 139 141 142 142 142 142
 158 158 158 160 156 148 144 118  61  65  69  47  29  84  75  66  67  61  52  54  52  48  47  45  39  38  35  36  33  31  31  29  31  31  33  34  36  39  44  52  60  69  69  67  63  56  51  42  33  34  34  37  30  21  17  20  24  30  34  35  35  36  38  39  39  40  38  35  36  36  37  41  44  48  51  52  32  18  25  21  17 111 134 136 136 137 137 140 142 142 144 145
 159 159 159 159 156 152 143 116  71  64  60  48  44  44  40  27  24  21  21  22  24  24  25  30  28  27  28  27  24  24  23  22  19  18  21  22  25  28  34  40  47  57  60  59  56  52  48  43  41  35  26  19  17  23  28  30  30  30  31  31  32  38  40  42  42  46  43  39  35  32  33  36  43  48  54  59  49  19  17  18  30 124 135 138 138 141 142 140 142 142 142 143
 159 158 158 159 156 153 140  82  44  38  27  22  19  18  19  21  34  43  48  53  60  60  59  59  57  55  54  52  48  46  43  42  34  28  27  25  21  17  18  22  26  31  38  40  39  37  27  23  19  18  16  24  30  31  32  30  28  29  34  38  40  42  42  41  42  42  41  41  39  34  33  38  44  49  56  62  59  23  17  17  76 128 133 139 135 138 141 140 142 142 142 143
 158 159 160 158 157 156 150  66  25  22  18  19  19  27  50  60  58  57  55  56  57  58  58  56  56  54  53  50  46  44  40  40  34  31  32  34  35  37  28  18  18  18  19  20  18  18  18  15  16  16  25  35  35  34  33  32  36  39  40  36  32  31  28  26  25  24  27  28  30  35  37  40  48  50  57  65  61  26  17  17 114 125 129 135 136 137 140 140 140 141 142 143
 160 160 159 159 158 159 153  79  48 117  70  18  29  62  58  54  52  50  49  51  54  56  57  56  56  54  51  46  42  38  35  34  32  33  35  38  40  42  44  31  17  16  15  17  17  16  14  15  16  15  33  36  34  31  31  33  34  33  36  36  28  29  23  21  21  23  30  30  27  31  35  42  50  53  59  65  66  28  17  31 122 132 134 132 134 135 139 141 140 140 143 143
 161 160 162 161 160 160 152  78  27  27  23  19  53  69  59  52  47  43  41  43  51  57  61  58  56  48  41  36  34  32  31  31  31  31  33  36  41  43  46  45  17  15  14  16  15  16  14  14  16  16  35  36  34  29  30  30  31  37  46  44  30  27  23  22  22  29  37  31  33  37  41  47  53  58  62  67  68  27  18  50 122 131 137 136 136 136 139 141 140 140 142 142
 162 163 165 163 161 160 149 100  24  21  19  20  62  76  64  55  47  39  34  42  52  51  47  39  39  36  29  27  25  23  22  25  31  30  31  37  41  46  49  50  18  15  14  15  17  17  15  15  14  15  32  36  32  28  29  29  30  36  44  47  33  24  22  21  24  32  32  33  36  43  51  58  61  63  65  69  68  31  17  71 125 129 134 133 135 139 138 140 140 140 140 142
 162 164 164 164 165 160 152 116  71  19  18  21  67  83  75  63  52  43  36  38  36  34  34  38  44  42  27  29  26  20  23  24  34  31  28  32  42  51  50  50  18  14  16  27  39  44  37  23  15  14  28  34  35  36  36  34  31  31  34  37  36  31  27  27  32  35  35  37  44  50  55  61  64  65  66  71  72  30  17  93 129 132 132 134 136 138 137 139 139 140 141 142
 161 166 168 166 164 165 156 127 107  40  20  21  66  86  80  71  59  50  41  35  34  35  40  43  50  47  26  24  21  21  23  22  29  28  30  33  46  52  52  46  16  16  22  61  91  95  84  48  16  15  23  39  38  38  38  35  32  32  33  35  37  36  35  35  34  35  38  43  49  54  63  66  69  68  67  72  72  24  32 102 130 136 137 132 137 138 137 137 140 141 140 141
 164 167 168 167 166 166 157 133 107  87  20  21  63  91  87  78  70  60  52  48  41  37  42  44  48  52  40  24  22  23  24  29  33  36  47  51  54  55  54  41  17  14  66 114 122 125 118  99  34  17  17  42  45  40  38  35  35  34  35  36  37  37  38  36  37  39  42  45  50  57  64  70  71  72  70  73  61  22  48 114 128 132 138 135 139 140 136 138 139 140 141 142
 164 165 165 167 166 162 157 137 113 124  29  20  48  94  91  86  79  71  68  58  47  43  43  45  46  50  51  45  40  38  38  36  34  41  49  56  59  63  64  35  16  26 110 126 132 132 124 112  79  20  15  34  50  50  47  45  43  43  43  42  41  40  40  42  41  44  44  48  55  63  67  72  73  76  73  74  46  16  92 127 136 137 141 137 138 139 136 141 141 142 141 141
 164 164 165 168 165 161 158 137 128 133  46  20  36  96  94  92  89  82  77  69  58  49  44  44  43  45  48  45  42  40  38  37  43  48  53  60  68  75  69  24  15  64 118 128 132 132 126 115  92  49  16  20  46  53  55  54  54  52  53  52  52  50  50  50  48  49  53  57  60  67  70  74  76  75  74  70  30  22 101 128 135 136 139 139 138 138 138 141 142 142 141 140
 165 166 164 166 163 162 156 141 135 134  75  19  24  86  96  94  94  90  84  74  65  58  51  46  44  43  44  43  40  40  44  52  58  62  67  75  81  79  57  17  22  96 118 127 136 136 133 118  99  79  23  16  35  55  56  57  61  63  59  59  59  58  57  59  60  63  64  65  67  71  75  77  77  77  75  54  21  43 120 134 134 137 138 139 139 140 140 141 140 142 142 141
 165 165 164 165 164 162 155 134 140 136  93  32  22  67  96  97 100  95  89  78  69  63  57  50  49  48  48  48  49  54  61  68  73  79  84  88  85  80  33  16  50 107 118 131 142 144 140 121 101  85  55  16  17  48  61  61  63  62  64  66  67  65  66  65  66  69  71  73  76  80  81  82  78  75  61  32  26  65 108 123 134 138 138 139 139 141 140 140 140 141 141 142
 164 164 164 163 163 163 154 133 148 144 103  69  20  37  96  98 102 101  91  82  74  70  66  62  60  59  60  63  68  71  75  81  86  90  89  88  90  66  18  19  86 110 117 134 146 148 141 125 106  89  76  36  14  21  52  67  69  68  68  69  68  66  69  69  70  73  77  81  81  83  84  81  71  52  32  18  53  65  94 118 132 139 140 139 140 141 140 141 142 140 140 140
 162 163 163 164 163 160 149 131 150 148 120  72  28  23  70 100 106 106  99  90  79  76  74  74  74  74  75  76  78  83  86  88  89  89  91  94  80  24  17  49  96 109 119 137 148 150 141 127 104  90  78  66  34  16  15  39  66  72  74  75  74  72  72  73  72  72  80  81  80  74  63  48  34  24  22  54  64  61  81 106 129 138 141 139 140 141 139 141 141 142 141 140
 161 161 164 163 163 162 152 132 145 146 104  72  51  22  35  93 105 106 104  97  90  85  82  81  84  80  81  86  86  88  89  89  89  97 101  78  30  18  26  83  98 106 125 139 145 147 147 126 105  91  81  71  54  33  20  15  17  28  44  54  65  66  66  66  60  54  49  38  34  27  22  17  23  43  64  70  61  56  91 108 126 136 137 138 141 140 139 140 141 141 140 141
 161 162 163 161 162 162 146 135 147 133 106  83  61  38  20  42  86 105 107 104 101  91  87  88  87  81  79  82  87  89  90  94 100  92  53  29  20  28  63  90  99 109 125 137 144 145 142 124 108  97  85  73  63  47  37  33  29  21  15  15  17  18  19  19  17  15  16  19  31  39  46  65  70  70  67  68  55  60  95 112 118 132 135 137 139 140 138 139 140 140 142 140
 160 161 162 160 161 159 135 141 150 139 125  86  66  62  40  21  37  66  89  98 104  97  94  88  80  76  80  85  89  85  75  62  41  25  20  24  37  51  82  91 100 111 123 134 142 142 135 120 109  99  91  76  62  50  44  43  48  54  56  51  52  49  49  52  57  64  71  76  74  73  72  71  72  70  67  68  50  48  80 104 118 129 134 136 137 137 137 139 138 139 141 140
 161 160 160 160 160 154 139 147 146 143 128  84  62  62  84  56  23  26  37  51  60  65  65  65  59  53  50  46  39  31  26  21  22  29  41  45  50  67  81  90 103 115 124 131 138 142 138 120 109 103  95  80  64  52  45  48  50  54  56  58  62  64  64  65  66  71  73  74  74  71  71  69  68  67  64  63  46  51  85 106 118 133 136 138 138 137 138 139 139 138 140 139
 160 160 160 158 158 143 143 146 146 134 124  90  55  56  79  94  90  64  50  35  23  22  20  19  19  18  20  26  32  38  42  49  53  52  53  56  62  71  77  89 103 114 120 126 139 143 138 124 112 103  93  82  69  59  46  49  51  57  59  58  62  64  66  68  67  69  71  70  69  69  69  68  66  64  63  58  40  57  86 109 124 133 137 136 138 138 137 137 138 139 139 139
 155 157 158 156 154 134 149 145 145 132 129 103  60  53  66  94  96  96  97  96  95  92  91  87  85  89  85  77  71  65  62  60  61  64  67  67  67  70  75  91 104 113 119 129 141 144 139 127 114 105  94  85  75  69  53  46  50  55  61  62  64  67  67  70  70  71  71  71  69  68  67  66  63  62  60  51  37  48  92 113 130 135 136 137 135 137 136 138 138 138 139 139
 153 155 154 152 144 137 142 138 137 135 130 103  68  50  56  89  93  96  98  96  96  98  99 100  93  87  84  77  73  70  71  73  74  74  71  66  66  70  81  94 103 113 119 129 137 139 136 126 113 102  93  84  76  73  66  46  48  54  62  65  66  66  65  69  69  72  72  70  69  67  65  64  60  59  56  43  36  42  72 112 129 133 135 137 135 136 136 137 137 139 138 139
 152 151 151 148 134 143 140 142 140 131 122  96  69  48  48  80  90  95  95  96  96  98  98  98  95  88  86  82  81  81  81  78  79  74  70  66  67  74  89  96 105 113 116 132 135 133 129 114 106  99  90  83  78  75  73  54  46  51  59  64  67  70  70  69  68  70  70  68  68  65  62  60  57  55  50  39  33  39  77 113 123 131 132 133 136 136 136 136 137 138 138 138
 150 150 149 144 130 143 141 143 140 133 129  97  64  46  46  66  89  94  96  96  96  99  99  98  96  91  89  89  89  88  85  82  79  74  69  66  67  86  94  99 107 109 114 128 128 124 120 111 104  94  84  76  72  71  75  64  43  50  56  62  66  69  68  69  68  68  67  63  58  61  58  58  57  53  45  36  30  32  89 116 124 129 132 132 133 134 135 135 137 137 137 137
 150 150 147 132 140 146 148 144 141 130 115  88  65  46  42  52  83  89  91  94  95  98  97  94  92  91  89  88  90  89  88  84  78  72  69  67  69  96  96  96 102 106 111 121 118 113 106  99  92  85  72  69  64  67  75  68  48  49  56  60  64  65  66  66  67  67  66  63  56  56  56  55  51  48  40  32  31  44  76 119 128 131 131 134 135 133 134 136 135 135 135 136
 148 147 144 127 145 147 148 145 142 137 111  85  63  40  35  42  70  85  88  90  93  94  94  93  92  92  92  92  91  86  82  77  73  71  68  66  72  95  96  91  90  93  99 106 106  99  91  90  82  70  59  55  55  61  67  66  50  53  57  60  62  63  64  64  65  65  64  62  56  54  52  50  48  43  35  32  32  44  72 112 127 130 130 133 132 134 135 136 136 133 133 133
 148 146 138 135 144 146 147 144 142 136 120  93  56  33  33  37  54  77  87  87  87  90  92  92  92  93  93  90  88  82  77  73  71  70  70  69  73  90  92  82  74  70  74  84  89  86  79  74  63  53  44  45  46  51  54  54  50  56  61  62  64  62  62  63  63  61  56  57  54  51  48  47  43  37  31  29  30  39  71 101 121 128 130 131 132 133 133 134 135 135 133 132
 146 145 129 141 143 144 146 144 138 133 123  98  54  37  30  31  42  68  80  79  77  86  86  86  90  90  89  86  85  80  78  74  72  74  77  77  75  81  77  70  65  56  56  61  68  67  64  56  48  42  38  34  35  36  39  43  49  57  61  63  63  62  62  58  53  53  52  53  51  48  44  43  37  31  28  26  27  34  72  96 113 123 130 131 130 131 132 132 132 134 132 134
 145 145 130 141 144 145 144 144 142 135 128  96  64  40  32  34  38  54  71  76  78  81  83  78  86  86  83  83  81  78  76  77  80  86  86  86  78  71  58  47  41  38  45  53  56  55  51  45  41  38  32  27  28  30  36  42  48  56  60  62  62  62  60  57  53  52  50  49  49  46  42  39  34  30  25  25  25  31  47  99 112 124 130 130 130 130 131 132 132 131 132 133
 144 144 132 143 146 146 147 146 140 136 133 105  67  43  39  35  37  47  65  74  76  77  77  78  83  83  82  82  80  80  79  84  87  89  91  88  80  69  51  39  30  28  34  45  47  45  44  40  37  33  29  28  28  30  36  43  49  53  60  59  59  59  61  59  57  54  50  46  43  44  39  35  28  26  24  24  26  32  56  96 117 125 129 131 130 130 131 132 132 132 132 131
 144 140 140 138 140 143 144 142 141 138 130 103  80  44  35  30  34  39  54  68  66  69  70  75  78  79  79  78  79  83  84  88  89  90  93  90  80  71  49  43  36  32  34  40  41  40  38  36  33  31  28  27  27  27  32  42  48  51  57  56  55  54  56  58  57  53  50  47  42  38  34  28  25  22  21  21  23  32  62  98 117 124 129 131 130 129 131 132 132 130 131 129
 144 140 142 144 143 144 142 142 141 138 125 108  92  58  32  34  40  39  45  58  62  66  68  72  74  76  76  78  83  84  85  86  88  93  92  89  79  68  48  37  32  32  33  32  37  33  32  32  31  29  26  25  24  25  33  43  47  51  51  54  52  54  55  53  53  53  50  47  42  36  30  25  22  20  19  22  25  35  64  95 115 120 127 130 130 130 130 131 130 129 129 129
 143 141 141 143 146 146 143 142 142 137 124 103  87  66  39  33  31  29  36  49  58  64  68  69  72  74  75  78  84  87  83  81  86  89  90  88  76  59  50  35  30  29  30  28  31  28  26  27  30  28  25  24  23  25  34  38  45  50  52  49  48  50  54  54  51  50  50  46  40  34  26  20  18  17  17  21  25  35  60  92 113 122 126 129 130 130 131 130 129 129 130 129
 142 142 143 144 144 145 145 144 144 141 129 115  83  71  43  31  28  26  32  41  51  58  64  67  68  72  77  83  84  81  80  79  84  85  89  87  72  54  47  37  31  30  25  26  28  24  24  25  27  27  24  23  24  27  32  38  45  47  50  52  48  48  51  50  50  47  44  42  36  31  24  18  16  16  17  18  25  50  81 101 114 122 125 127 128 129 129 130 129 130 129 130
 142 142 143 144 145 145 144 143 143 139 126 118  95  89  51  36  31  29  30  37  43  52  56  60  67  69  76  84  84  79  76  76  76  83  87  79  63  50  46  38  32  29  26  26  27  23  25  28  28  28  26  24  27  28  30  37  47  45  48  50  50  46  44  44  44  42  40  38  33  28  20  17  15  14  15  16  22  52  88 102 119 123 125 127 128 127 128 128 129 128 129 129
 141 142 142 142 143 145 145 144 143 138 132 118 108  94  64  42  31  30  31  32  35  42  49  57  61  70  78  81  80  75  77  80  74  78  77  72  62  49  42  39  33  33  32  28  28  25  26  31  35  33  30  29  27  27  31  37  40  44  41  40  44  46  39  39  42  36  36  36  30  25  21  16  15  15  15  17  21  38  85 109 123 125 126 126 126 128 127 128 129 128 128 128
 140 140 143 143 143 144 143 142 142 140 136 114 110 106  76  42  32  29  28  28  30  35  44  50  58  69  74  74  72  75  78  77  69  69  66  64  56  48  41  41  34  38  37  32  34  37  38  44  54  50  38  33  30  29  33  35  35  35  31  30  30  32  34  36  37  36  37  36  28  21  19  15  13  15  14  16  20  18  80 115 123 126 125 126 126 127 127 127 128 129 130 128
 137 139 142 144 143 143 143 139 140 139 134 112 118 113  93  50  30  25  25  26  24  31  37  44  56  66  67  65  69  73  76  67  67  58  54  56  53  47  41  40  35  43  48  40  46  57  58  57  56  46  39  33  31  31  35  36  35  30  26  27  24  25  26  30  30  33  35  35  29  24  16  15  13  14  16  17  17  17  32  98 120 122 126 125 125 126 127 127 127 128 129 129
 136 139 140 142 141 142 141 140 141 139 134 120 120 121 100  63  33  25  24  23  24  27  29  41  51  58  61  57  61  65  59  59  59  45  45  51  54  52  44  38  35  35  40  36  36  39  43  41  35  32  32  31  28  27  29  29  30  26  25  24  23  24  27  28  29  29  32  33  31  30  25  19  16  15  17  18  16  14  16  76 117 122 124 126 125 125 126 125 126 127 126 126
 137 136 138 139 141 141 139 138 139 136 133 123 119 116 111  80  36  22  19  17  20  21  26  37  46  55  54  52  57  53  49  53  47  35  42  48  50  48  40  35  31  30  32  32  32  31  30  30  31  30  29  26  22  20  18  18  20  22  22  21  24  26  29  29  29  30  30  32  29  27  27  24  21  15  16  17  15  11  15  51 117 123 124 125 125 125 125 126 127 125 127 125
 135 137 137 140 140 138 137 137 138 135 132 125 121 114 108  86  36  23  22  19  20  20  24  31  41  51  49  52  51  42  42  44  34  34  34  35  34  31  27  22  21  19  25  32  36  36  32  30  31  28  22  16  12  13  15  18  23  25  25  27  30  30  32  30  29  30  30  32  31  27  26  26  22  16  14  16  14  11  12  28 113 121 124 123 124 125 125 125 126 125 125 125
 134 134 136 137 138 137 136 136 135 135 131 124 125 114 107  85  42  26  22  19  22  17  22  30  38  46  44  42  40  40  36  34  32  29  28  27  27  24  18  14  12  12  16  23  24  25  23  22  20  18  20  21  20  22  25  29  31  31  30  33  34  35  34  31  29  28  27  28  26  26  24  24  24  19  15  15  12  10  11  16 101 117 122 121 123 125 124 125 124 125 126 125
 131 132 135 136 136 137 136 134 133 134 131 123 123 118 107  84  38  24  18  16  18  20  22  24  35  39  38  39  39  40  38  35  37  38  37  37  38  40  34  27  22  23  25  26  30  31  29  30  30  30  30  31  33  35  36  38  38  34  32  34  36  37  37  34  31  29  25  26  19  18  16  16  20  18  17  13  11  10  10  13  93 117 119 122 123 124 123 123 123 124 123 123
 130 132 134 133 134 134 133 132 131 129 128 122 122 117 111  92  38  23  19  18  16  18  20  23  35  38  39  38  38  39  40  42  48  51  51  48  48  51  51  47  41  37  37  36  39  40  37  38  39  38  40  42  43  44  43  41  37  36  37  36  37  39  38  36  33  29  25  25  20  16  15  16  17  15  14  11   8   9  10  13  65 115 118 119 121 120 119 121 120 124 124 123
 130 130 131 132 133 131 131 130 130 129 123 119 115 116 112  98  41  22  18  20  14  14  20  26  34  38  35  38  41  40  43  48  56  58  59  54  51  52  55  58  56  53  51  52  50  51  47  47  50  50  52  53  50  46  44  39  38  39  39  38  40  41  40  36  33  30  27  21  22  18  15  15  16  14  14  10   9   8  11  13  60 113 117 118 119 119 121 120 120 121 121 120
 128 130 130 130 130 127 127 126 122 122 120 116 111 111 111 102  44  20  18  19  21  21  23  30  35  34  35  37  37  38  45  51  60  63  62  58  53  50  53  55  57  57  60  60  57  56  54  53  56  56  55  54  50  43  40  38  40  40  36  38  42  41  38  36  29  26  24  20  21  22  15  16  16  15  13  10  10   9   9  11  54 111 116 117 118 118 119 119 120 119 120 119
 126 127 127 126 123 123 120 120 119 116 115 114 108 109 106 102  50  22  22  20  19  21  27  31  27  29  35  33  34  40  45  52  60  62  63  59  54  52  50  51  52  54  55  58  55  56  53  52  53  53  50  46  44  41  38  38  38  39  38  39  41  38  38  36  31  27  22  15  14  19  14  13  13  14  12  10   9   9   9  11  38 108 115 116 116 117 118 119 118 118 120 118
 124 123 123 122 119 119 118 117 115 116 113 113 109 107 104  95  45  20  21  19  22  28  28  21  25  30  32  31  34  38  43  52  59  62  60  58  55  54  51  48  48  48  48  50  49  50  47  47  46  46  43  41  39  36  36  36  37  36  40  42  39  39  37  33  30  27  25  18  16  21  13  11  12  12  10   9   9   9   8  11  34 107 114 114 115 116 117 117 116 118 118 119
 122 121 121 119 119 119 118 115 113 112 111 110 107 103  93  58  53  20  19  18  19  24  20  18  24  26  29  31  33  37  44  51  57  61  61  58  53  53  51  48  47  46  45  43  41  41  39  40  37  36  34  33  34  34  34  36  35  37  43  43  41  41  39  32  27  24  22  21  21  22  16  13  14  12  11   8   8   8   9  10  32 107 113 114 115 115 116 116 116 117 118 118
 121 120 120 119 117 116 115 113 112 110 106 103  84  65  36  18  20  17  17  18  18  20  17  17  17  24  26  30  30  36  41  45  53  59  60  58  54  52  49  46  45  42  40  36  34  31  29  28  26  28  27  28  30  30  33  36  37  38  42  43  43  42  36  33  28  23  21  16  19  21  14  15  14  12  10   9   8   8   9  10  29  86 111 112 113 114 114 115 116 116 117 117
 119 119 118 117 116 116 113 110 109  92  44  30  17  15  14  11  14  13  12  13  15  16  13  15  17  24  26  29  30  34  38  42  52  58  62  60  55  52  49  45  43  39  37  34  29  27  23  19  18  24  23  25  29  30  33  35  41  41  42  45  43  41  34  30  29  24  20  18  17  18  12  12  15  12   9   9   8   9   9  10  28  66 108 112 112 114 114 114 115 116 115 115
 119 119 116 115 114 113 107  72  41  23  18  13  11  10  10   9  11  12  11  12  15  15  15  16  21  24  26  28  28  29  34  43  52  58  65  63  58  52  52  48  45  40  36  33  28  25  22  16  16  24  22  24  28  32  34  36  40  43  44  46  44  46  40  29  25  23  17  18  17  16  12  12  15  10   9   6   6   8   9  10  11  37  74 108 111 113 113 113 113 114 115 115
 118 116 115 114 111  91  65  18  16  14  10  10   9   8   9   8  10  10  11  12  16  15  17  22  24  25  23  26  25  25  31  40  46  52  52  50  48  50  54  54  49  45  39  36  31  25  23  22  20  22  24  27  28  34  38  40  41  46  48  49  43  37  40  33  23  21  18  16  15  13  13  13  13   8   8   7   6   7   8   9  10  12  15  61  92 109 112 113 113 113 115 114
 114 113 112 105  62  24  17  14  13  12  11  10   8   9   9   7   7   8   9  12  15  17  22  23  24  23  24  24  25  27  34  40  47  46  42  37  39  45  56  61  56  52  45  41  32  27  26  27  24  21  24  28  31  35  41  45  45  48  50  49  48  37  28  28  26  18  18  14  13  13  14  15  13  10   8   6   6   6   7   8   9  10  11  13  16  31  96 108 111 112 114 113
 112 109  91  50  19  13  13  13  12  11  10   8   8   9   6   5   6   7  10   9  12  19  20  18  19  19  22  23  25  28  33  44  46  42  38  33  39  45  57  61  61  56  47  41  34  28  28  27  25  22  21  26  31  35  40  44  48  48  50  50  45  39  29  26  26  24  21  18  10  13  13  11  10   8   6   6   7   7   7   8   8   8   9   9  11  13  20  43 102 109 112 112
 107  98  40  19  14  12  13  12  11  10   9   9   8   8   6   5   7   8   9   9  11  17  18  16  17  20  22  24  22  24  35  40  40  37  38  35  41  45  54  57  60  56  48  40  33  29  28  28  25  26  23  26  29  33  41  43  46  46  49  50  46  38  30  27  24  21  22  20  15  15  14  11  10   9   7   5   7   8   8   8   7   8   8  10  11  11  12  15  36  67 100 111
  46  26  18  15  13  12  11  11  11  10   8   9   8   6   7   7   8   8   8   9  10  15  16  14  16  15  19  18  19  28  36  34  36  37  38  38  42  46  50  53  55  51  43  40  33  27  28  29  27  29  27  28  30  31  39  42  46  44  43  48  46  38  32  25  22  21  20  18  14  14  14  12   9   6   5   6   6   8   7   7   6   7   9   9  10  10  12  12  12  14  54  90
  22  16  15  15  12  11  11  11  10   9   9   8   7   5   7   8   7   6   6   7   9  11  15  15  12  12  15  21  22  32  31  30  31  33  36  37  43  42  47  47  49  47  40  40  32  26  29  28  27  29  29  30  29  29  34  41  44  43  40  39  38  37  27  25  20  21  19  15  13  10   8   6   4   4   4   5   6   7   6   5   5   6   8   8   9  10  11  11  11  13  15  15
  14  14  12  12  11  10  10  10   9   8   9   8   6   5   8   9   7   5   5   9  10  11  14  15  14  15  17  18  22  28  26  28  29  31  32  32  40  38  43  41  45  41  39  37  31  26  29  26  28  26  30  30  29  29  31  37  39  42  36  35  28  30  25  21  19  18  16  10  10   6   5   4   4   4   4   4   5   7   4   7   5   4   8   9   9  10   9   9   9  12  12  12
  13  13  12  11  10  10  10   9   9   8   8   8   6   5   6   8   7   5   7   8  10  12  13  12  10  10  16  17  17  26  21  24  24  29  26  31  37  36  36  38  40  35  36  35  30  27  26  25  25  23  26  28  28  29  30  37  38  40  35  33  25  25  22  22  16  14  14  12   9   6   4   4   4   4   4   5   5   5   5   4   5   7   6   7   8   9   8   8   9  10  10  11
  11  12  11  10   9  10   8   9   9   9   9   6   6   7   8   8   9   7   8   8   8   9  12  12  11  11  13  16  19  21  16  21  24  26  24  31  34  32  30  36  36  33  35  33  28  29  26  23  23  24  24  28  26  27  29  38  40  35  33  33  25  22  20  22  14  11  12  12   7   7   5   4   4   5   5   4   5   4   5   5   5   6   6   7   7   9   8   9   8   9  10  11
  12  12  12  10  10  10   8   9   8   9   7   4   4   5   5   7   7   6   7   8   8   7  10  11   9  10  11  11  15  17  16  17  21  22  24  28  31  27  27  36  32  31  32  31  26  27  24  21  20  23  24  26  23  25  30  37  38  32  30  28  22  19  18  17  12  10   9  10   8   6   5   4   3   5   4   4   4   4   5   4   5   7   8   6   8   8   9   8   8  10  10  10
  12  11  11  10   8   8   9   9   9   8   5   6   6   6   5   7   6   6   6   5   6   5   9   7   7   9  10  11  12  12  14  15  17  18  23  24  26  23  27  36  31  28  29  26  23  25  23  18  22  24  23  21  20  25  31  36  37  28  27  24  18  17  18  15  11   9   8   6   5   6   4   4   3   4   4   4   4   4   4   5   5   4   5   5   6   6   8   6   8   8  10   8
  12  11  10  10   7   7  10   9   9   6   5   5   6   5   4   6   6   5   5   5   6   6   6   4   6   5   8   8  11   9  11  12  15  17  19  22  20  24  27  29  28  24  26  21  22  23  21  18  20  19  18  18  19  25  28  33  29  26  25  20  16  17  18  12  11   8   6   5   4   5   5   4   4   5   5   4   4   4   4   4   4   4   7   4   6   6   7   7   9   8   9   9
  11  10  11  10   9   7   9   9   9   5   6   5   5   5   6   5   6   5   4   6   6   5   4   4   4   6   5   6  10  10  10  11  13  18  15  18  16  23  24  23  21  20  23  17  21  17  17  16  16  16  17  17  18  21  24  28  26  24  23  17  13  15  15   9   8   5   4   4   4   4   4   5   4   4   4   5   4   4   4   4   4   5   6   5   5   5   5   6   8   8   8   8
  10  10  10  10   8   9   8   9   7   6   6   6   5   5   4   5   5   6   5   5   4   5   4   4   5   5   4   6   8   8  10  12  12  14  13  15  15  19  18  21  16  19  19  17  16  15  12  13  13  15  16  15  16  19  22  21  23  22  19  16  11  14  13   9   7   4   4   4   4   4   4   5   4   4   4   4   4   4   4   4   4   4   4   5   4   4   5   8   7   7   6   8
   9   8   9   9  10   7   8   6   5   7   6   5   6   5   4   5   7   5   5   4   5   4   4   4   4   4   5   5   5   7   9  12  11  12  10  13  14  15  16  17  14  17  15  17  13  11   9  11  10  12  13  14  15  18  18  15  20  16  15  15  14  15  10   6   7   5   4   4   4   4   4   4   4   3   3   5   4   4   4   4   4   4   4   4   5   4   5   6   6   7   6   8
