P2
# Generated by OpenCV 3.4.0
92 112
255
 183 187 189 189 190 192 188 190 188 186 188 180 179 171 171 160 147 131 115 101  90  85  84  76  69  67  65  63  61  63  61  55  53  62  67  72  76  77  77  80  84  92  99 105 112 108 106 100  94  88  74  70  65  62  61  60  60  63  57  58  62  69  74  79 102 119 128 133 140 136 142 150 147 142 138 149 152 170 170 170 170 172 172 171 172 171 172 173 172 172 173 171
 182 183 184 184 184 183 184 184 181 184 181 171 175 170 168 151 147 120 101  90  90  88  85  79  70  62  56  61  60  57  56  61  63  72  83  95  98  99  98 107 111 113 119 123 129 128 132 129 124 117 106  98  95  84  76  71  75  73  65  61  60  63  68  73 100 125 140 146 135 135 136 140 142 144 139 142 151 162 168 170 170 172 173 174 173 172 172 173 173 171 171 171
 178 179 181 180 179 181 181 179 176 179 173 167 161 150 143 137 125 104  92  87  88  83  75  67  63  58  58  55  56  61  65  67  77  86  99 110 119 124 132 133 134 139 138 142 142 144 144 143 142 139 135 130 126 112 100  93  94  90  80  73  66  65  63  72  89 104 118 133 140 133 122 125 131 147 146 134 145 156 166 169 172 173 174 173 173 172 173 174 172 172 170 170
 177 178 178 178 178 178 177 174 173 175 168 163 156 145 139 121 115 104  90  83  84  77  69  64  63  59  58  58  60  68  79  88 100 114 124 134 141 144 146 150 154 156 153 154 152 152 153 150 148 145 143 141 136 129 121 113 112 107  98  86  79  70  63  66  75  86  98 115 119 123 119 114 131 141 150 144 136 149 161 165 166 173 173 173 173 173 172 173 172 172 173 170
 177 177 178 177 177 175 176 176 173 169 163 152 144 139 126 118 108 105  99  93  86  79  69  62  59  65  70  71  76  92 107 113 119 136 145 155 160 161 160 164 164 164 160 160 159 159 159 156 153 151 148 146 143 137 132 128 123 119 116 102  95  87  70  62  66  76  85  97 110 116 111 110 113 138 142 145 142 148 160 160 163 168 171 171 173 170 171 172 172 172 173 172
 176 177 177 176 175 175 176 174 170 166 158 154 149 135 122 110 102 101  96  90  79  66  59  60  70  80  85  94 102 116 129 134 142 153 161 170 172 172 174 170 169 171 165 163 162 164 162 159 156 153 151 147 145 141 138 135 128 125 122 118 110 101  93  75  59  67  75  90  97 108 118 112 111 108 131 142 152 151 157 166 170 164 172 175 173 175 174 172 173 174 173 172
 177 178 177 177 173 174 176 169 167 167 151 137 126 123 116 105  98  98  94  78  68  67  70  80  88  96 110 120 129 139 150 156 160 166 175 182 182 182 179 174 176 171 165 163 162 162 161 159 157 155 153 148 147 145 141 137 131 128 124 122 118 113 107  96  75  64  66  81  94  98 102 110 117 100 101 126 145 155 154 162 173 170 166 172 174 174 174 173 172 173 172 174
 176 177 177 176 174 175 170 167 162 148 125 119 120 116 107  97  98 100  92  77  74  80  87  98 109 121 129 139 146 158 161 163 169 174 183 186 185 183 178 173 171 168 166 164 165 165 160 157 156 154 153 149 147 144 144 140 136 131 126 124 120 117 114 107  97  74  63  66  84  90  93 102 109 112  98 101 132 151 155 160 169 171 168 169 173 173 174 172 173 174 173 173
 175 175 176 176 172 172 166 158 148 140 126 130 144 115  94  98 102  92  78  81  89 101 108 117 127 136 141 146 154 162 167 166 170 179 184 185 186 182 178 171 170 169 168 167 166 165 162 159 157 153 149 148 150 147 145 140 138 134 130 125 123 120 119 115 109  96  74  62  70  84  90  94  92 101 118 106 108 128 152 165 169 170 171 167 171 172 172 171 172 173 174 173
 176 176 177 175 172 170 166 159 145 141 139 151 126  99  96 100  95  77  86  96 105 117 126 133 138 142 147 151 155 167 169 171 177 179 181 179 179 177 172 170 168 168 168 168 166 164 164 161 156 154 151 148 147 146 145 142 139 135 131 128 125 122 118 117 111 106  94  73  66  78 100  93 108 109 123 121 118 120 143 162 168 172 174 170 173 172 174 173 175 174 174 172
 177 177 176 174 173 169 169 161 141 150 146 133  98  94  96  98  83  82 100 112 123 130 139 139 142 148 149 155 162 168 170 174 179 173 173 174 172 168 168 169 169 169 169 167 167 164 162 160 157 154 152 148 146 146 144 142 137 134 131 128 124 122 122 120 114 109 104  87  72  72  80  85  94  98 117 122 124 109 137 163 168 173 173 172 172 171 174 174 175 174 174 174
 177 177 175 173 174 170 167 154 148 150 136 106  90  91  96  90  83  94 114 126 130 134 140 143 144 149 154 160 163 165 168 171 171 170 170 170 168 167 166 168 168 166 166 166 166 164 161 157 157 152 149 147 146 146 143 138 136 131 128 127 124 123 121 120 116 112 109 100  79  67  67  68  77  86  97 108 118 109 119 151 170 171 172 173 173 172 174 175 175 174 175 175
 177 176 176 172 174 173 163 157 161 150 126  88  88  90  94  89  88 114 124 133 135 139 141 144 147 151 157 160 163 164 165 168 167 169 167 166 166 166 164 164 164 162 162 161 161 159 157 157 152 149 145 142 142 142 140 136 133 129 124 125 124 121 118 118 116 113 110 105  94  72  62  62  67  91  86  88  93 109 114 145 168 171 174 173 174 172 174 174 174 173 174 176
 176 177 174 173 174 175 166 166 166 139  96  84  82  87  93  90 105 126 131 135 137 142 143 144 146 151 156 159 160 162 163 164 165 166 165 162 162 162 161 161 161 160 157 156 156 154 152 151 148 145 140 139 140 138 136 135 131 126 122 122 121 119 115 116 116 113 112 107 101  87  64  58  60  68  80  84  78  85 111 134 168 171 173 172 175 174 175 174 174 173 174 174
 174 176 174 173 174 174 174 173 160 121  93  77  80  85  87  98 120 129 133 136 138 142 143 144 145 152 157 158 157 158 159 159 162 163 162 160 160 159 159 157 157 157 156 153 153 152 148 145 141 135 132 136 136 137 134 132 127 126 123 120 117 115 115 115 115 114 112 110 104  98  74  60  61  63  66  80  82  86 108 130 164 172 174 174 176 174 175 176 176 176 175 175
 175 172 176 174 173 176 176 174 150 106  83  71  75  81  84 111 125 131 133 137 140 142 141 142 143 148 153 152 154 154 157 158 158 158 159 158 156 154 155 153 155 153 151 151 154 151 148 142 138 136 132 133 132 131 130 127 123 123 118 115 116 113 116 115 113 113 112 109 109 102  85  65  61  60  69  87  99 116 104 124 159 171 174 175 175 174 176 176 176 175 175 175
 173 173 175 173 176 176 176 175 147  95  80  67  73  77  94 120 128 133 135 138 138 137 140 141 143 146 149 146 150 153 154 156 156 155 153 153 151 151 151 149 150 152 151 152 149 148 143 139 134 133 132 131 130 128 126 123 121 119 116 115 115 115 115 115 112 112 110 110 109 106  95  77  62  61  63  80  93 119 137 123 156 171 175 175 174 174 176 175 175 176 174 174
 176 174 174 174 176 178 176 176 147  93  75  64  71  77 104 122 129 134 136 138 138 138 138 138 142 145 146 148 148 150 150 150 150 150 149 147 146 148 149 149 149 149 149 150 145 138 137 136 131 130 126 123 123 124 122 120 117 114 111 111 112 112 113 113 114 111 111 110 112 110 102  90  68  63  56  60  82  90 118 138 150 171 175 175 175 176 176 177 176 176 175 175
 177 176 175 175 174 178 178 174 145  80  65  64  66  82 114 127 135 135 137 137 137 136 136 136 139 143 144 146 147 146 149 148 151 147 144 145 143 143 145 144 146 145 145 144 140 138 133 130 127 127 126 123 122 123 118 116 114 113 113 112 110 110 111 110 112 111 110 110 111 112 106  96  78  64  59  55  66 102 102 123 146 163 173 173 175 177 176 176 177 176 176 175
 178 177 177 178 175 176 176 174 146  65  59  64  69  90 119 129 135 135 135 135 136 134 133 135 137 141 143 145 145 145 144 144 145 144 143 144 140 140 142 142 143 144 142 142 139 133 129 125 125 125 122 120 119 114 114 111 110 110 110 109 107 107 108 109 109 110 108 109 110 111 109 100  86  67  62  56  58  75 107 102 128 145 166 172 175 176 177 178 177 176 176 175
 178 178 178 178 179 176 178 177 156  60  59  62  70  96 122 132 136 135 135 132 134 135 133 136 137 139 142 143 145 145 145 142 139 141 142 142 138 136 140 140 139 138 138 136 133 131 126 123 122 122 118 117 119 115 112 111 110 107 106 105 104 104 104 109 108 107 106 106 110 111 109 103  93  75  64  61  53  62  88 125 114 142 162 175 176 176 177 176 176 177 177 177
 178 178 178 177 178 178 178 177 169  76  62  68  75 106 126 134 136 136 134 134 134 133 132 132 133 137 138 141 142 142 142 139 139 140 140 137 136 136 136 136 136 134 134 129 126 127 122 120 118 120 116 116 118 113 112 110 106 105 105 106 103 104 105 106 105 107 106 106 108 108 106 104  97  80  63  59  51  55  72 123 112 134 158 172 176 176 177 176 177 177 176 176
 178 177 179 177 178 178 177 177 162  97  75  71  85 114 126 134 135 133 134 132 130 131 130 130 131 134 136 135 134 139 139 137 137 137 138 135 134 133 134 133 131 130 130 128 126 125 121 120 119 117 115 116 114 112 113 110 109 109 108 105 106 106 106 109 108 105 105 104 106 107 106 104  97  84  63  56  53  51  58 110 133 123 157 172 174 176 176 177 177 177 176 177
 178 178 179 178 178 177 176 177 158  90  80  75  88 120 128 135 135 132 132 129 128 129 129 132 132 131 132 133 135 138 136 133 135 134 134 132 130 129 131 131 132 134 133 129 127 123 120 118 119 116 114 115 113 111 114 111 110 110 107 104 104 105 106 107 109 106 105 105 104 104 103 101  96  85  65  51  51  50  60  86 130 134 155 171 173 175 175 175 176 174 176 175
 178 179 178 177 177 178 177 176 162  83  74  74  96 121 130 134 133 132 131 129 129 128 125 128 130 128 129 132 130 131 131 133 134 135 135 133 130 129 131 131 130 128 125 123 121 120 119 120 119 116 117 117 115 114 112 112 111 111 109 107 107 108 110 108 108 106 104 104 102 101 102  99  93  86  66  53  47  50  55  90 117 146 153 170 174 175 175 174 174 175 175 174
 179 178 178 177 178 178 178 174 149  89  75  75  96 123 131 132 130 131 128 127 128 128 126 127 126 127 127 131 133 131 132 132 136 136 135 133 131 131 131 131 128 124 123 122 120 121 121 122 119 116 118 116 115 115 113 112 112 114 112 112 111 111 111 108 107 105 105 104 101  99  98  95  91  85  68  52  46  48  54  72 116 146 157 164 172 172 173 175 174 174 175 175
 179 178 178 178 179 179 179 173 139  83  71  70  98 125 130 131 127 128 128 127 126 128 128 126 126 128 131 134 136 134 135 134 134 133 133 131 132 133 130 130 128 126 123 122 122 121 120 120 117 118 119 115 116 118 118 117 117 114 113 112 113 115 110 108 107 106 104 104 100  99  95  96  94  87  70  50  46  45  52  62 104 122 161 167 171 173 170 172 174 175 174 173
 179 179 180 178 178 179 179 171 126  81  65  66 100 122 129 130 127 125 124 126 126 128 130 129 129 130 136 138 138 136 137 136 137 137 133 132 131 129 127 129 126 124 123 120 120 120 120 121 120 119 120 117 119 122 122 121 119 119 118 117 115 115 112 111 108 106 105 103  98  97  93  91  92  89  71  49  43  45  48  66  91 114 145 168 170 172 168 171 173 171 171 173
 178 179 179 179 178 179 177 172 114  84  60  69  96 120 129 130 128 125 123 125 125 127 132 131 131 136 138 139 138 140 139 140 141 139 133 132 130 127 125 125 123 122 119 118 118 120 122 121 120 123 123 126 125 124 124 124 122 122 120 119 117 115 114 113 108 106 108 103 100  97  93  90  90  85  73  48  40  44  49  61  76 112 134 166 169 170 170 171 172 172 172 171
 178 177 177 179 178 177 176 171 107  79  59  70  95 119 129 127 126 124 122 125 127 131 132 133 134 137 139 139 140 140 143 144 145 142 136 133 131 129 129 127 123 122 121 121 119 119 119 121 123 121 125 125 125 125 127 125 123 121 119 119 116 114 117 116 113 109 107 104 101  98  94  90  87  86  75  50  39  41  54  65  79 114 140 162 168 170 170 171 170 171 172 172
 177 178 177 177 178 177 176 168 110  74  67  67  92 117 127 126 126 122 125 125 129 131 133 138 137 139 139 141 145 146 147 147 146 145 142 139 133 128 127 126 123 125 122 121 122 121 121 121 116 117 120 126 126 126 124 123 122 121 119 117 116 117 117 116 116 112 107 105 104 100  96  90  87  86  78  50  39  40  52  72  84 120 149 164 168 168 170 169 170 170 170 170
 177 178 177 177 178 177 178 163 122  83  70  63  85 115 125 124 125 124 126 126 130 132 136 139 140 140 142 143 146 146 146 145 146 147 144 138 136 133 130 127 124 124 123 122 121 122 120 121 121 122 126 128 128 125 121 121 119 119 116 118 119 119 119 121 121 118 111 109 105 102  99  92  88  87  81  53  37  42  55  82  95 124 151 161 166 167 168 169 170 171 170 168
 178 177 177 178 179 177 176 167 128  89  66  59  80 115 123 124 122 121 125 127 130 134 139 141 143 143 146 145 145 144 145 145 146 147 143 142 140 136 132 128 126 126 126 125 124 124 124 124 125 126 127 129 126 122 121 116 116 117 118 119 120 120 120 123 122 118 118 112 107 105 100  95  87  86  82  56  37  43  60  91 106 128 146 158 165 166 167 168 170 169 168 168
 178 177 178 177 178 178 177 174 122  82  65  55  74 111 120 124 123 122 125 127 132 137 140 144 146 145 145 144 142 141 142 145 146 143 141 140 138 133 134 130 129 126 127 126 126 126 126 125 125 126 126 125 124 124 122 118 119 118 119 118 117 120 118 120 120 120 117 112 104 104 102  98  90  88  85  58  34  43  58  92 111 133 153 164 165 166 166 167 166 168 168 169
 178 176 178 178 178 179 178 176 133  80  64  53  67 106 120 120 121 123 126 130 135 139 141 146 146 146 143 140 140 136 139 140 142 140 138 137 136 133 133 133 130 129 128 128 129 128 124 123 123 123 122 124 123 120 119 116 116 117 118 117 115 116 112 112 112 107 104 100  93  93  97  95  90  88  85  65  35  41  59  87 106 126 147 158 163 163 163 163 165 165 166 167
 177 178 179 178 178 178 179 177 155  87  61  53  65 104 118 119 120 125 129 134 139 144 147 147 146 146 146 140 138 136 135 139 138 135 134 132 133 134 130 130 131 132 130 130 126 124 124 122 117 119 118 118 115 114 113 110 112 114 112 108 103  97  93  91  92  88  87  87  82  83  84  86  85  86  86  74  34  35  58  79 104 136 153 156 153 156 160 162 166 167 168 168
 177 178 178 179 179 179 178 176 150  94  64  53  57 103 117 117 123 129 132 136 142 150 151 149 147 147 148 142 137 138 136 138 135 130 128 125 124 124 122 125 129 128 127 124 119 119 117 115 113 113 110 108 105 103  97  95  92  92  89  89  85  76  75  75  70  70  69  70  68  69  71  71  71  74  84  78  34  34  59  82  98 130 148 154 157 160 161 163 166 165 167 168
 178 178 178 178 178 180 179 176 144  85  70  51  50 101 118 118 123 130 134 139 144 149 151 148 145 146 146 143 139 138 137 136 132 125 122 119 116 116 116 120 123 125 122 118 113 116 114 109 106 106 102  96  88  79  71  67  64  57  54  55  53  52  54  55  54  54  56  53  57  63  62  58  62  65  72  81  41  31  48  80  98 117 131 147 157 161 161 164 165 164 166 167
 180 179 178 178 179 178 178 173 134  77  61  56  47 101 118 118 123 131 135 133 132 136 137 137 139 137 133 132 132 134 132 127 121 116 114 113 113 113 114 116 120 118 118 115 115 112 108 103 100  94  93  83  73  62  54  49  43  38  37  34  37  36  35  38  39  43  48  50  51  53  54  54  54  57  64  74  42  25  48  65  95 111 126 141 151 155 159 162 163 163 166 166
 178 178 178 179 179 179 179 171 129  70  59  63  45  94 118 118 123 129 128 119 113 117 116 113 115 110 106 111 122 119 106 101  98  96  93  99 103 106 105 109 111 110 111 109 109 106 100  95  90  80  72  63  56  48  43  37  33  32  28  29  29  29  30  31  35  40  43  48  49  51  55  57  57  58  60  64  44  27  34  58  93 109 134 143 154 160 163 164 162 163 164 165
 178 178 178 179 179 179 177 156 116  66  66  62  42  88 117 119 118 111 104 104 102  97  92  88  84  88  97  93  86  80  70  67  63  64  72  76  84  88  91  98 102 102 103 101 101 100  94  86  78  71  55  50  49  44  36  31  30  28  29  30  32  35  38  40  40  39  37  35  32  31  30  28  27  27  26  26  26  26  29  32  34  50  90 144 156 160 161 162 161 162 162 163
 178 178 179 178 178 178 167 150 120  68  74  75  54  85 115 113 102  93  87  85  81  77  76  75  77  78  69  63  58  54  50  47  47  47  49  55  60  68  78  85  91  94  95  93  91  90  87  77  70  60  47  43  40  36  33  32  38  45  39  32  28  27  23  20  18  21  22  24  24  28  29  30  32  32  30  24  21  20  19  22  19  25  57 137 152 157 158 158 162 162 162 164
 178 178 178 178 177 174 162 158 117  68  82  82  49  67 108  91  84  81  77  78  78  82  79  76  69  66  64  61  53  50  46  43  43  41  43  44  48  49  59  67  77  84  88  89  87  83  77  71  62  49  43  38  39  41  48  41  34  24  21  20  20  21  21  25  27  25  27  31  29  35  41  43  48  53  54  57  53  31  23  39  72  54  61 144 149 153 156 156 160 162 161 162
 179 178 178 178 178 173 167 164 118  73  73  68  47  64  81  63  58  47  40  40  35  30  30  25  30  30  30  31  31  30  30  31  33  32  35  36  42  44  47  54  62  70  79  82  82  75  70  61  51  43  46  46  41  34  23  21  27  30  28  27  28  30  31  34  36  33  31  27  23  26  30  36  46  51  54  59  67  61  27  23  29  27  57 148 154 152 156 156 159 161 161 161
 180 178 179 179 178 176 167 159 100  76  61  48  41  31  27  27  25  24  32  37  43  45  47  49  50  47  44  42  39  40  39  40  37  27  24  23  22  24  30  35  41  51  62  65  73  72  62  57  50  45  37  28  20  23  30  34  32  30  32  32  25  22  24  32  50  50  47  40  30  26  26  32  41  49  54  62  70  71  38  23  23  24  84 150 157 153 157 160 160 161 160 161
 180 179 180 180 177 174 169 148  37  33  29  26  25  24  27  45  59  69  70  66  61  58  53  49  46  45  45  45  44  45  43  45  45  39  38  39  38  34  29  21  23  28  32  36  37  37  32  27  24  21  21  20  31  38  35  32  29  32  35  24  24  27  44  32  43  68  68  54  41  30  27  29  38  48  56  62  70  78  48  23  23  26 139 148 155 155 155 160 161 161 161 161
 179 179 180 180 178 175 175 153  46 104  90  52  25  33  72  73  72  70  63  53  46  39  34  37  41  47  46  39  38  40  46  46  40  33  35  39  42  45  47  43  23  20  21  21  23  22  21  19  19  20  19  30  44  42  39  38  35  41  40  32  37  30  34  37  39  62  69  58  52  38  31  32  42  51  57  64  71  82  52  25  24  63 140 140 151 156 156 157 160 159 160 161
 180 181 182 181 180 181 179 157  58  36  45  33  24  66  76  69  64  58  50  41  35  32  38  54  67  67  42  37  36  35  38  47  47  38  40  41  44  49  52  56  42  20  20  19  20  20  19  19  19  19  19  39  43  42  41  37  40  48  44  34  34  35  34  39  40  63  68  58  55  43  39  40  47  55  60  66  74  82  54  26  22  90 145 150 151 152 155 155 161 158 160 161
 183 182 182 182 181 181 180 152  61  30  26  25  32  88  80  69  62  51  44  34  29  34  52  76  85  60  58  45  37  34  36  41  51  46  42  44  47  49  53  57  58  20  19  20  20  20  19  19  19  19  19  40  43  41  37  37  41  47  50  37  35  33  35  38  48  68  67  61  56  50  49  50  55  61  67  72  77  83  60  26  20 120 148 156 154 153 155 155 161 158 161 161
 182 182 184 183 182 182 177 156  94  28  26  24  35  95  85  73  64  51  42  31  29  38  64  80  82  49  42  39  33  33  35  40  54  47  46  45  52  57  59  59  61  22  20  18  19  24  26  21  18  18  19  36  43  43  40  41  41  40  43  40  35  34  34  44  63  65  62  59  55  56  60  63  68  70  72  76  81  84  63  25  30 133 145 152 152 152 157 157 160 159 161 160
 182 184 183 183 184 183 176 163 119  75  27  24  37 103  94  84  71  59  46  34  33  40  70  75  79  58  41  36  35  36  37  45  56  47  44  50  52  63  67  63  60  21  19  22  39  55  65  51  28  20  19  31  43  45  48  49  47  42  39  44  46  48  52  54  56  61  58  58  55  58  65  70  72  77  77  79  82  87  60  26  56 136 149 147 149 154 157 157 156 158 160 159
 183 184 185 188 184 183 180 165 123 121  27  25  33 100 100  89  77  66  54  48  45  47  66  70  76  71  45  36  34  33  35  46  45  42  47  53  58  63  69  67  55  21  20  35  96 120 123 113  69  23  19  26  47  48  46  46  44  43  40  43  47  50  51  51  52  54  52  54  56  61  64  71  77  80  80  80  83  89  55  25  76 139 152 154 152 155 158 158 154 158 161 160
 183 185 187 185 185 185 180 167 129 141  70  26  30  99 108  98  87  77  72  66  60  57  59  67  71  75  72  58  50  50  52  51  47  47  56  64  68  72  73  70  47  21  18  99 140 146 150 140 122  53  19  20  47  57  51  48  47  46  48  47  50  51  50  53  53  53  51  54  55  58  65  73  80  83  85  83  86  89  40  24 106 139 148 156 154 156 160 156 154 160 160 158
 184 185 184 185 185 185 178 169 136 153 115  25  29  88 111 106  99  90  85  79  74  68  62  63  63  68  68  67  62  58  55  49  48  51  55  61  69  77  82  77  35  20  48 129 148 154 152 144 132  97  28  20  36  60  63  61  59  59  58  59  60  57  53  52  51  50  49  51  52  59  68  76  81  86  87  87  88  83  29  55 133 150 152 157 158 154 158 156 158 161 161 161
 184 184 183 184 184 184 178 174 135 163 123  36  28  73 112 112 108 103  96  90  84  76  67  63  60  63  62  60  57  53  53  54  58  62  68  76  85  90  92  78  22  17  93 134 148 155 155 146 131 109  64  18  23  55  64  66  69  70  71  69  70  67  62  60  59  57  54  58  64  72  74  80  86  88  88  88  86  61  25  83 144 154 155 158 155 154 157 158 159 160 161 161
 184 185 185 184 183 182 178 174 135 165 114  63  25  49 116 113 112 110 103  95  88  80  71  67  64  62  61  59  58  58  62  69  75  81  87  96  99  99  94  55  22  37 117 137 149 159 160 157 136 114  92  32  19  35  67  69  70  73  73  75  73  74  72  70  70  70  69  76  81  84  86  89  92  91  90  89  83  37  28 118 147 152 154 155 157 156 160 161 160 160 161 161
 184 184 184 184 183 182 176 175 135 166 125  98  24  30 101 115 115 116 110 100  92  82  75  70  66  64  65  68  72  75  78  87  95 101 106 107 105 103  94  30  19  75 123 137 155 165 167 163 139 117  98  70  20  19  52  78  82  84  83  83  80  81  79  80  79  80  84  89  93  96  97  99  99  94  90  85  56  27  51 111 145 150 157 157 160 159 160 160 159 161 160 161
 184 184 184 184 183 184 176 171 148 168 143 107  49  28  68 117 118 122 116 107  94  89  85  82  78  76  78  83  85  90  95 100 104 105 108 108 113 111  60  22  32 108 124 135 155 169 170 162 141 122  99  85  46  19  21  62  89  93  96  98  97  96  93  91  90  89  90  94 100 102 101 102 100  94  77  51  28  39  74 105 135 147 158 159 158 159 161 161 159 160 161 161
 183 183 182 183 181 182 175 158 159 167 162 102  63  30  34 105 120 124 122 116 107  99  94  93  94  91  93  95  97  99 104 106 106 111 117 123 122  76  23  20  69 111 123 138 158 171 171 160 141 121 102  87  72  41  19  19  46  78  95 101 107 108 106 104 103 101  97  98 100  99  96  83  66  45  37  24  39  78  72  92 124 144 157 159 158 160 161 160 158 161 161 160
 182 183 183 183 183 182 177 152 159 167 146  97  74  48  26  53 114 124 127 123 119 112 105 104 100  96  95  99 104 107 111 115 120 126 129 123  76  29  23  43  97 111 121 141 156 166 170 161 140 117 102  89  77  58  41  28  20  22  34  54  70  83  92  91  89  81  75  68  56  48  33  29  27  22  33  63  83  78  70  99 115 142 157 156 158 160 161 160 159 161 160 160
 180 181 182 183 184 183 176 154 165 160 137 102  85  70  41  27  49 104 123 126 125 119 112 105  99  97 102 108 115 119 124 128 126 116  85  46  31  27  44  75  98 110 122 143 158 164 169 162 138 122 109  92  76  64  52  45  43  33  25  21  22  22  22  25  25  24  24  20  20  26  33  43  59  78  84  81  83  73  70 106 130 138 151 154 157 160 160 159 158 161 161 161
 181 181 181 182 182 181 171 147 164 160 150 117  96  70  89  45  27  43  71  97 110 109 105 100  99 105 111 115 115 107  92  78  56  35  26  24  38  52  61  87 103 113 125 143 156 165 167 153 136 125 113  99  79  64  53  50  52  55  58  57  49  48  45  49  50  55  64  76  83  90  90  85  87  85  83  81  82  60  59  95 122 135 146 152 154 157 158 156 157 159 160 161
 180 180 178 178 180 176 155 163 164 163 159 116  86  65  85 113  78  39  27  38  49  64  66  63  62  57  50  44  40  38  32  28  28  32  41  53  58  61  74  90 103 117 131 142 151 157 162 151 133 124 118 105  83  66  53  50  53  56  61  63  64  68  67  68  68  70  79  83  86  83  82  83  84  81  78  78  75  54  56  92 122 136 150 154 156 158 157 158 156 158 160 159
 176 177 177 177 176 173 152 166 164 157 145 131  78  68  75 110 117 116 105  78  62  56  49  42  40  38  36  36  38  43  45  53  58  61  62  66  67  70  76  86 102 117 131 140 148 160 161 152 133 124 120 105  91  76  56  49  52  55  63  71  74  80  82  82  80  80  81  84  85  83  81  81  78  78  74  72  68  47  68 100 125 136 152 154 157 155 156 156 157 159 159 160
 175 175 175 174 172 164 156 160 162 152 148 140  90  64  65 101 115 117 119 119 117 122 124 119 108  97  92  83  77  76  72  73  71  72  72  70  68  70  76  87 106 116 126 137 149 161 160 149 134 124 119 108  93  83  74  48  50  57  65  76  82  86  90  89  89  90  86  83  83  83  79  77  76  74  72  70  60  43  58 106 128 145 152 154 155 155 156 154 156 157 159 158
 175 175 173 172 170 153 163 156 155 154 150 142  99  65  61  86 111 117 116 119 119 120 122 117 107 102  98  94  94  94  89  85  79  78  75  71  69  70  78  96 109 116 127 136 148 157 154 150 138 126 118 106  93  84  82  63  53  61  72  83  90  94  95  94  94  93  91  85  82  78  77  74  73  69  70  65  50  42  56  96 132 147 153 154 153 155 155 154 155 156 158 157
 169 170 170 166 164 152 163 158 160 152 144 131  97  71  54  71 106 112 115 117 118 120 115 112 110 109 106 106 107 102  99  93  85  79  73  71  69  70  89 104 111 118 128 135 150 152 146 143 132 122 112 103  93  87  86  79  60  68  80  86  92  93  92  91  90  89  88  84  79  72  73  72  70  67  64  53  41  40  47  81 132 147 152 152 153 154 154 153 156 158 157 157
 169 168 168 168 148 160 160 160 158 156 148 134  94  64  54  57  94 108 111 114 117 115 111 110 112 113 113 114 112 107 102  95  90  83  77  72  71  71 105 109 113 122 125 132 150 145 138 135 123 116 107  94  89  86  86  86  70  72  80  86  88  89  88  87  88  86  83  83  77  71  70  70  68  64  60  47  38  36  43  97 132 140 150 152 153 153 153 153 154 155 156 155
 171 169 168 162 144 165 165 163 159 157 139 118  94  60  51  50  76 101 106 110 111 111 111 112 114 115 117 115 113 105  98  93  90  85  85  81  76  84 111 111 112 118 123 130 145 138 130 126 118 112  99  88  82  78  82  86  78  75  82  87  88  86  84  84  83  84  82  81  74  69  67  65  62  58  49  43  38  38  46 106 135 145 150 153 153 152 153 153 153 153 154 154
 167 166 166 156 152 166 166 164 160 158 147 104  94  59  44  43  57  88 101 103 102 105 108 112 113 112 112 112 110 107 103  99  95  94  93  95  87  92 111 109 106 110 116 123 130 126 119 115 111 101  90  77  74  70  76  81  75  78  83  88  90  87  84  82  80  77  76  70  70  67  64  60  56  50  43  39  36  39  61  91 138 146 147 150 151 151 152 153 153 153 152 152
 167 167 165 146 160 165 165 164 160 158 149 126  94  51  41  38  45  71  93  92  91  99 104 103 109 109 105 109 109 108 105 105 103 106 105 100  92  90 105 102  94  91  98 107 113 112 103 101  99  89  76  65  59  61  65  67  65  74  81  86  88  86  82  77  71  68  69  66  66  63  58  53  50  44  40  35  34  37  56  94 127 142 147 148 150 151 152 152 153 152 151 153
 165 165 162 147 161 164 165 165 159 155 147 134  89  56  42  36  42  55  75  85  88  95  98  96 103 106 106 107 109 109 109 111 112 114 111 106  96  88  92  87  81  75  69  80  90  94  89  84  80  69  56  50  47  44  43  48  58  74  80  82  82  84  81  74  67  64  62  62  60  60  54  49  45  38  34  31  30  32  51  94 120 138 142 148 151 151 150 152 152 152 152 153
 165 164 160 148 162 165 166 164 162 158 150 134 102  60  44  44  44  49  64  78  85  88  90  91  97 102 103 103 105 109 111 115 118 116 114 108  97  82  71  58  44  40  46  56  68  75  73  68  61  51  46  35  22  20  25  37  64  80  87  86  82  82  84  82  70  62  58  56  52  53  51  44  39  35  30  31  28  32  41  76 123 134 140 145 147 148 147 150 151 150 152 151
 163 163 161 154 164 168 166 165 164 156 153 141 113  62  52  43  41  45  55  72  76  76  78  84  88  94  98  97 106 109 111 113 116 118 119 111  98  79  57  37  23  17  20  32  52  59  60  54  50  47  35  23  17  24  28  42  58  78  87  89  84  83  87  82  70  56  52  52  49  47  42  39  33  30  29  28  29  31  40  76 113 136 144 147 149 149 148 150 149 150 151 151
 164 163 157 158 159 160 162 161 162 158 154 138 114  79  51  40  45  46  47  56  66  69  70  78  82  85  85  92  99 106 110 109 111 116 117 112  98  76  56  42  31  23  22  22  29  47  51  49  46  38  24  19  22  28  33  44  54  62  72  78  86  88  93  87  74  58  49  51  48  43  39  32  30  27  25  25  26  30  43  86 120 138 142 148 149 147 150 151 150 149 150 150
 163 161 159 163 165 165 162 162 161 158 152 135 118 100  54  41  42  42  39  45  59  65  69  73  75  76  77  83  91  98 104 106 109 111 105 103  87  69  65  51  45  29  26  26  24  23  28  32  28  22  20  22  26  37  42  49  55  58  66  68  78  84  92  90  82  64  51  49  46  40  33  28  25  24  24  25  28  34  50  91 116 135 140 146 147 147 149 149 148 148 148 148
 162 161 159 162 164 167 167 163 163 159 152 136 117 104  68  45  38  33  32  39  48  57  63  68  67  69  69  70  82  95 102 104 105 100  97  93  78  70  68  57  52  42  33  31  26  21  18  19  21  24  26  28  37  50  52  53  53  64  69  67  69  73  79  79  77  66  53  46  42  37  29  24  21  21  22  25  27  34  52  85 114 133 142 144 146 147 148 148 147 147 149 147
 161 161 161 162 165 166 164 166 164 162 156 142 121  99  78  52  40  38  36  38  42  48  56  60  64  67  64  63  76  96 102 102 100  91  88  83  79  74  65  60  56  48  50  50  41  27  18  19  21  34  48  53  55  58  59  65  62  63  63  59  63  61  64  64  61  57  50  48  41  35  26  24  21  19  19  20  26  36  69  97 121 132 141 144 148 147 147 147 148 147 147 147
 160 160 164 163 165 167 166 165 164 161 157 139 122 117  99  63  45  35  34  37  37  40  45  49  57  63  66  71  73  87  99 102  97  86  83  85  86  80  69  62  59  57  76  81  70  63  53  49  51  63  73  79  74  70  72  78  74  67  60  55  56  54  49  49  48  52  46  46  41  31  24  21  21  18  17  20  25  34  85 111 121 137 141 143 146 147 147 147 148 147 147 147
 160 160 163 162 162 164 161 164 164 161 158 141 127 124 114  78  50  39  36  35  33  34  37  45  48  57  68  73  75  87  94  90  89  76  80  85  90  87  85  77  68  68  71  73  72  78  81  85  77  73  73  74  72  67  65  68  69  69  65  58  53  46  42  45  42  43  47  48  38  29  25  20  17  20  18  20  24  28  64 108 126 141 143 143 145 145 146 147 146 147 146 147
 158 158 160 162 163 161 160 162 161 160 157 140 133 133 127  90  49  37  32  31  30  28  32  38  42  55  63  68  74  82  79  83  79  66  78  86  86  82  75  68  64  65  69  69  68  67  66  63  62  61  64  69  70  66  59  57  55  52  51  52  49  42  34  34  38  39  41  45  40  32  24  19  16  20  17  20  24  24  30 110 132 140 142 144 145 145 146 146 146 146 146 146
 157 157 159 162 163 162 161 160 160 159 155 141 135 140 125 112  57  34  31  27  27  27  31  30  37  51  58  67  68  71  65  73  60  61  69  74  68  60  59  59  57  57  56  54  52  48  47  47  45  44  48  51  53  49  46  46  47  44  38  35  38  37  31  30  36  37  38  36  40  38  29  23  20  17  20  20  21  19  19  64 131 140 141 143 144 144 146 146 146 146 145 146
 155 157 158 161 160 161 159 159 159 158 155 144 135 144 135 111  77  37  29  24  22  22  25  28  33  44  53  58  64  59  54  65  48  54  54  51  44  47  48  46  40  38  36  37  35  33  32  33  31  29  31  34  31  33  35  34  37  36  33  27  28  31  32  35  34  36  36  36  37  35  30  28  22  19  21  22  21  19  19  21 111 139 140 141 142 144 144 144 144 144 145 144
 153 156 157 158 158 159 159 157 156 157 154 143 140 140 134 124  89  39  27  25  25  24  23  26  31  34  46  51  53  49  50  51  43  42  40  35  32  36  41  41  43  50  45  47  43  42  41  37  34  39  39  42  40  40  38  34  31  27  28  27  30  34  34  34  32  32  34  34  37  36  33  28  24  19  18  18  20  16  14  19  89 137 140 141 140 142 143 143 143 145 143 142
 152 152 156 156 158 158 157 156 154 153 152 141 145 137 134 123  77  38  28  26  23  22  20  23  27  30  40  45  45  48  46  44  42  41  41  43  46  42  48  52  57  65  58  66  71  74  66  64  59  71  68  63  63  60  46  43  34  31  31  35  35  36  36  33  31  29  28  28  27  25  22  25  25  17  16  19  21  16  14  18  60 134 139 140 141 141 142 143 144 143 141 142
 152 151 154 157 155 156 155 154 153 153 151 138 146 137 132 122 100  36  29  23  20  23  20  21  25  34  47  44  39  43  43  45  42  47  51  54  60  63  50  44  50  55  55  61  66  67  65  69  62  69  69  64  66  58  46  42  32  33  35  36  41  41  38  36  32  29  28  27  22  23  22  22  22  19  19  19  17  14  13  16  39 128 137 139 139 140 140 142 142 142 141 141
 150 150 153 153 154 154 154 153 152 151 150 140 142 137 133 122  90  35  29  23  21  21  23  25  29  37  43  42  41  41  43  41  43  50  59  59  60  62  60  52  45  44  48  53  57  56  57  57  55  60  60  59  56  46  36  31  33  35  36  38  38  38  37  36  32  30  26  27  22  18  18  21  19  17  18  16  13  13  11  14  28 125 136 138 139 139 140 139 139 142 140 141
 150 150 152 152 154 152 154 151 149 148 147 142 138 134 131 129  89  30  24  21  19  22  22  23  33  39  36  39  41  40  36  40  48  49  54  58  58  55  55  55  53  49  47  45  45  46  50  50  48  51  50  46  42  35  31  32  34  35  37  37  37  40  36  34  31  28  25  26  24  20  20  18  16  16  16  15  11  10  11  13  16 106 136 136 138 139 139 140 140 141 141 139
 148 148 150 152 151 149 149 148 147 145 142 136 131 133 130 127  89  25  23  22  18  23  25  35  34  27  31  35  38  33  34  40  44  48  49  52  52  51  48  45  46  51  53  49  46  44  46  44  46  46  43  38  33  33  33  33  34  36  35  37  38  41  37  35  30  26  19  17  23  17  16  17  16  15  17  15  13  12  11  16  18  94 134 136 136 136 138 138 138 138 139 138
 146 146 147 148 145 142 144 139 139 138 137 133 128 127 129 124 100  22  24  23  24  20  23  27  24  24  26  29  32  33  36  41  46  46  47  48  49  50  48  42  40  40  41  43  46  42  39  37  38  36  33  33  32  31  31  33  36  36  38  40  40  37  34  30  28  27  23  19  23  15  15  17  20  16  15  16  13  11  10  14  16  96 132 134 135 136 138 137 137 138 138 138
 143 144 143 143 140 140 138 136 138 133 132 131 126 123 122 122 101  25  21  23  23  20  22  24  21  20  23  27  32  32  33  39  43  46  48  53  53  52  48  45  41  42  39  38  36  32  28  22  18  22  22  26  26  28  32  33  38  41  42  40  38  35  33  27  25  22  25  21  24  19  15  15  18  17  15  13  10   9  10  11  14  73 128 133 134 135 136 136 136 136 136 135
 142 140 141 140 139 137 137 134 135 132 131 129 126 122 120 119  93  20  19  21  19  20  19  17  17  16  21  27  37  33  33  31  40  45  49  53  60  55  53  49  47  47  44  40  36  30  27  22  17  21  19  24  25  27  31  33  38  39  41  37  35  32  30  26  25  23  20  21  24  18  17  16  18  16  16  10  10  12   9  11  14  55 127 132 134 133 136 135 135 135 137 136
 141 139 141 138 137 137 136 133 133 132 129 128 126 120 116  85  75  29  20  17  19  18  20  19  18  22  26  30  32  31  29  30  37  41  46  52  52  47  41  46  46  50  47  42  35  32  29  25  21  22  22  25  27  31  33  35  38  41  41  39  37  37  31  25  23  23  22  22  20  15  16  16  18  19  15  11   9  10  10  12  12  65 127 130 132 132 132 132 134 134 134 136
 141 138 139 137 137 134 132 131 132 128 125 118 106  82  63  22  21  22  18  16  17  17  22  20  23  29  30  26  28  30  30  34  42  46  50  47  46  39  37  43  45  50  51  46  40  31  28  26  24  19  21  26  28  30  36  37  39  41  42  39  33  33  33  28  24  22  19  22  20  16  16  18  20  16  10   8   9  10  10  10  14  62 121 130 131 133 132 132 133 135 134 133
 140 137 137 136 134 133 130 128 125 118  71  43  24  19  18  16  16  16  15  13  14  18  20  26  27  26  26  26  25  29  30  32  36  47  48  48  44  38  40  46  47  49  51  47  41  31  25  26  24  20  18  22  26  28  32  35  36  35  39  40  35  31  28  29  24  22  17  18  15  18  18  19  18  14   9   8   8   9  10  11  16  32  80 127 131 131 132 132 131 134 134 133
 138 137 138 132 133 130 128  99  59  36  24  19  17  13  12  11  13  15  12  12  14  18  20  24  25  23  24  27  26  27  25  27  44  46  49  44  42  37  47  47  48  50  51  46  35  31  25  28  24  25  18  24  26  29  31  34  34  37  44  43  36  33  29  30  27  23  21  14  14  17  18  20  16  13  10   9   8   8   9   9  15  22  79 118 127 130 130 132 131 132 133 132
 136 135 134 131 128 115  87  34  23  20  16  12  12  12  12  11  12  12  13  11  14  15  19  20  21  19  22  23  26  29  25  38  42  42  40  41  43  37  51  45  50  52  51  41  36  31  24  28  25  27  23  25  26  29  36  36  40  37  42  46  40  33  30  28  25  27  24  20  17  19  15  16  13  14   9   9   9   9   9  11  13  14  18  33 107 124 128 130 131 131 133 131
 134 134 130 127  92  40  25  20  17  14  15  13  11  11  12  10  10  10  10  10  10  12  17  19  19  18  14  16  19  22  29  38  36  32  36  39  39  43  46  47  47  51  48  39  40  32  25  27  27  26  25  25  26  26  35  38  41  39  39  46  44  34  34  24  26  25  20  20  19  19  20  17  17  11   9   8   8   8   9  10  12  12  14  15  21  34  79 126 128 130 131 130
 130 129 116  69  26  20  17  17  16  14  12  13  11  11  11   7   9   9  10  10   8  11  17  15  20  20  18  21  21  23  24  34  29  31  30  38  37  43  44  41  42  47  40  39  43  29  28  23  27  28  27  26  25  27  30  38  37  40  37  36  36  36  29  29  24  24  18  20  15  14  16  15  11  10   9   8   8   8   8  10   9   9  11  14  15  17  23  48  86 124 129 128
 127 116  67  26  19  18  17  16  15  13  12  11  11  10   9   7   9  10  12  11  12  12  17  20  19  15  16  18  22  22  28  24  25  31  34  33  37  40  38  34  41  40  35  39  37  29  27  24  26  26  25  28  26  27  32  38  40  42  36  34  28  33  29  28  23  22  19  17  13  13  15  12   9   8   8   8   9   8   8  10   9   8  12  11  13  14  15  19  22  79  99 126
  64  38  25  21  18  17  15  16  14  13  12  12  10   9   9   9  10  11  11  12  10  11  15  19  17  15  15  17  20  21  26  21  22  27  29  32  34  38  33  30  42  34  34  38  33  30  27  25  24  25  25  28  27  27  30  43  47  39  42  38  27  29  27  30  21  20  19  16  14  11  11   9   7   7   7   8   8   8   9   9   8   8  10  11  12  13  13  14  17  19  31 106
  28  22  19  18  16  14  13  15  13  13  11  11  11   9   9  10  10  10  10   9   9  10  13  15  18  17  14  15  15  17  24  22  22  23  25  30  32  32  30  34  44  33  34  37  30  28  27  22  22  24  29  25  28  27  34  49  48  35  37  32  27  28  23  25  17  17  18  15  10   8   7   8   6   5   7   8   8   8   9   8   7   6  10  11  11  12  13  13  13  16  18  18
  19  18  18  17  16  13  13  12  12  12  12  12  10   8   9  11  10   9   8   9  10  10  10  12  20  16  18  16  13  16  17  18  19  20  25  29  30  28  32  37  42  29  35  33  26  30  26  23  24  25  24  21  30  32  40  44  44  32  33  29  20  28  24  25  19  13  15  16  11   8   6   7   6   6   8   8   8   9   9   9   9   8   9  10  12  12  12  12  13  14  16  17
  18  16  15  16  14  12  12  12  12  13  12  11  10   8   9  10   9   9   9  10  10   9   9  13  16  13  13  10  10  12  16  17  18  18  25  28  25  25  31  33  32  28  36  30  28  24  24  24  24  22  22  20  30  36  35  41  33  32  28  27  19  26  27  20  18  13  14  10   9   9   7   7   8   7   7   8   8   8   8   8   8   8   9   9  11  11  11  12  12  12  14  13
  16  15  15  14  13  13  11  12  12  11  11  10   8   8  11  11  10   9   9  10  10   9  11  10   9  10   9  12  14  16  16  16  16  19  24  23  21  24  28  27  29  23  27  26  24  19  21  20  19  21  22  25  26  30  30  33  32  34  31  24  18  24  25  17  15  11  10   9   8   8   8   6   6   6   7   8   7   8   8   8   8   9   9   9  10  11  11  12  12  11  12  14
  16  14  15  13  12  13  12  12  11  12  10   8   7   7   8   7  10   8   9   9   8   9   8   7   8   8   8   8  16  16  13  17  16  16  18  17  23  25  26  24  22  24  23  25  21  18  17  18  17  20  21  23  23  32  29  29  30  27  25  23  18  25  22  16  12  11   9   9   8   8   8   7   6   6   6   7   7   7   7   8   6   7  10   9  10  10  11  11  11  12  12  13
  16  14  13  13  11  11  12  11  12  12   9   6   8   9   9  10  11   9   8   8   8   8   5   7   7   7   8   8  11  11  10  16  12  15  12  17  23  21  22  22  23  24  21  21  17  15  16  18  14  18  19  21  23  28  24  25  28  24  18  22  20  22  21  15  10   9   8   7   6   7   8   8   7   6   7   5   5   7   6   7   7   8  10   7   8   9  11  11  10  11  11  11
  14  13  15  14  11  10  12  11  11   9   6   8   8   8   7   8  10  10   8   8   9   9   6   6   7   8   9   9   8   9  10  14  12  14  12  16  19  18  18  18  20  19  19  14  17  13  14  15  12  15  17  23  20  24  25  21  22  22  18  19  18  24  15  11   9   8   8   5   5   6   6   8   6   7   7   5   6   5   5   6   6   7   7  10   7   9  10  10  10  10  11  11
  15  12  13  13  12  10  11  12  10   9   9   9   8   8   9   9   9   8   7   6   8   9   6   7   6   7   6   9   6   7   8   9  10  13  14  16  16  17  17  16  16  16  14  14  16  11  13  13  11  13  16  21  23  18  19  16  17  18  14  17  15  21  11   9   9   8   7   5   5   5   4   5   5   6   5   4   5   6   6   7   7   7   7   8   7   7   8   9  10  11  10  12
  14  14  13  12  11  11  11  11  10   8  10   9   8   7   6   8   7   8   8   7   8   8   5   6   6   6   5   6   6   6   6   7   7  12  14  14  16  17  16  12  11  10  13  10  12  12  10  13  10  12  15  14  17  14  14  14  13  16  13  14  17  14   9   8   7   8   7   6   5   5   4   5   6   5   5   5   5   5   6   7   6   7   7   8   7   8   8   9  10  10  10  10
  12  11  12  12  12  10  10   9   8  10   8   8   9   7   6   6   9   9   8   7   5   7   5   6   5   4   5   5   5   5   4   5   7   7   9  13  15  14   9  10   8   9  10   9   8   9  11  10   8   9  11  13  14  11  11   9  10  13  11  15  13  10   6   6   6   4   5   6   5   6   5   5   4   4   4   4   5   4   4   5   6   5   6   6   8   9   7   9  10  10  10   9
  13  13  12  11  11  11  10   8   9  11  10   9   8   7   7   8   8   7   7   8   6   6   5   5   5   4   5   5   5   5   5   5   5   6  10  10  13   8   9   9   8   8   7   8   8   8  11   9   9   8   9   8   8  11  10  10  10  11  12  13  10   8   5   4   4   4   4   4   4   6   4   4   4   4   4   4   5   4   5   6   6   5   6   6   7   7   7   9  10  10  10   9
