P2
# Generated by OpenCV 3.4.0
92 112
255
 175 176 177 178 178 179 178 178 179 179 178 180 180 180 179 174 175 175 170 162 161 158 156 152 143 130 116 104  95  89  81  72  70  64  61  66  64  65  74  89  96 100 101 106 110 113 119 126 129 132 134 130 122 114 104  97  90  84  77  74  71  74  73  71  69  69  64  64  58  55  53  58  66  75  76  75  72  79 110 130 136 131 146 150 154 144 150 148 151 161 167 169
 176 174 176 177 178 179 177 176 176 177 179 178 178 178 178 174 173 170 166 159 148 146 141 134 130 118 103  95  88  85  75  70  65  63  65  71  79  85  93 110 122 125 131 138 138 138 139 146 149 148 151 148 146 139 134 127 118 107 100  95  89  91  88  85  80  76  72  73  66  62  58  58  59  63  65  71  74  70  83  95 109 122 137 145 138 139 151 146 152 162 160 166
 175 175 177 176 178 178 176 176 176 176 177 177 178 177 175 172 168 166 161 154 147 148 141 135 130 113  97  89  86  83  76  69  66  69  74  88  98 112 123 136 143 148 154 156 157 155 156 157 156 159 158 155 152 152 148 144 138 128 120 114 109 106 102  96  89  85  81  79  76  72  65  59  61  64  67  67  73  76  77  80  93 103 125 135 145 136 147 150 149 158 163 160
 176 176 176 175 177 176 176 176 178 177 176 177 177 174 171 173 170 160 152 151 149 139 131 126 126 121 104  90  85  80  73  71  73  84 104 115 123 140 152 160 163 162 165 167 166 165 164 163 163 163 159 159 156 153 151 148 145 139 131 125 120 117 115 106 102  98  90  85  85  83  71  64  60  60  62  74  71  71  72  74  79  95 112 130 151 148 148 152 158 162 163 162
 175 175 175 176 176 176 175 176 177 176 177 177 176 173 174 170 163 154 150 141 136 128 128 132 132 118 105  93  85  78  80  85  99 117 135 140 151 159 169 172 172 174 174 175 173 171 172 172 170 167 164 163 161 158 157 151 148 142 139 133 129 124 122 120 113 106 100  94  92  91  80  72  72  65  63  64  71  76  75  72  72 105 108 103 112 138 158 152 159 166 166 169
 175 176 178 175 176 177 176 177 174 175 175 176 174 174 172 166 153 146 136 132 137 137 138 135 120 110 105  96  86  91 102 119 135 147 154 157 165 175 178 179 180 182 183 182 179 179 177 176 175 170 167 165 164 160 155 154 150 146 141 137 133 130 126 125 118 114 107 102 101  97  89  81  76  71  66  64  60  68  70  69  70  79  97  98 101 116 148 154 158 165 168 169
 175 176 176 176 176 176 176 176 175 176 176 175 173 174 168 157 147 140 143 139 146 139 131 119 111 111 103  96 100 116 130 141 152 159 162 168 177 182 185 187 185 184 183 184 184 182 179 174 172 170 167 165 162 158 158 155 152 149 145 139 136 134 129 126 121 118 115 110 105 101  95  90  82  76  72  65  65  61  66  67  64  66  72  79  93  92 124 150 157 154 167 167
 174 175 177 177 176 177 177 177 177 176 176 176 173 171 168 149 144 152 150 148 144 137 120 113 116 118 111 112 127 141 146 152 159 165 170 175 182 187 188 189 189 187 185 184 183 183 177 171 171 170 167 165 162 160 162 158 154 152 147 142 138 135 131 128 125 120 116 111 107 104 101  96  89  84  77  69  64  62  59  63  61  61  63  69  75  80  89 135 156 154 161 163
 176 176 176 175 176 176 176 176 174 174 177 176 175 174 163 144 163 162 142 145 142 130 113 115 117 122 132 136 145 150 152 161 169 176 177 180 183 188 189 189 187 184 184 184 183 180 176 173 168 167 164 164 165 164 161 160 156 152 148 146 141 137 133 129 126 121 118 114 109 106 102  99  94  88  80  73  68  60  63  63  59  59  58  60  69  83  78 110 137 156 160 167
 176 176 177 174 176 176 177 176 175 178 178 176 177 174 159 153 166 164 150 149 137 118 113 114 120 130 139 145 150 154 161 168 172 179 178 179 184 186 187 185 184 183 184 182 181 178 172 170 167 165 166 163 162 162 161 160 157 153 151 145 141 138 135 130 127 124 119 115 110 107 103 100  97  93  85  79  72  64  64  61  59  59  56  60  66  91 109 100 127 140 154 163
 176 176 176 176 177 177 176 175 177 176 176 176 177 174 161 163 163 154 155 154 139 118 118 118 126 136 146 149 156 161 166 169 173 178 179 181 181 182 182 180 181 181 181 180 177 172 169 165 165 165 164 161 162 161 160 159 157 150 148 147 141 138 135 131 128 125 121 117 111 109 105 100  95  96  90  81  76  68  64  61  62  60  57  56  58  57  83 101 100 138 144 159
 175 175 175 176 176 176 177 177 176 177 176 176 177 175 164 165 162 158 157 155 126 113 119 122 124 143 150 152 159 162 164 167 174 176 179 176 177 176 176 175 176 174 175 172 170 167 164 163 162 160 159 160 158 157 155 152 152 147 145 143 140 136 133 131 128 124 121 116 113 109 106 100  96  96  93  86  79  70  62  62  61  58  60  54  52  52  63 102 107 113 136 154
 175 175 176 175 177 176 177 177 176 177 177 178 177 176 173 168 167 156 157 154 114 102 128 113 129 147 149 155 160 160 163 166 171 174 173 171 171 171 170 169 168 165 165 168 163 165 164 161 158 156 155 157 157 152 153 148 146 142 139 139 138 134 128 128 125 123 120 118 113 110 107 102  98  96  95  90  85  75  66  59  57  55  53  50  49  51  57  90 115  97 128 143
 175 174 175 175 175 175 177 177 177 178 178 179 176 177 175 171 173 171 165 157 112 113 110 112 142 147 150 155 158 159 161 164 168 169 169 167 166 167 167 167 167 165 164 164 162 160 159 155 153 152 152 150 152 150 148 144 142 139 137 134 133 132 125 122 121 120 119 118 112 110 111 106 101  98  94  91  88  81  70  60  54  51  51  46  48  47  50  55  71  95 110 137
 175 175 175 176 176 177 177 176 177 177 177 178 177 177 177 175 175 175 174 160 116  93  97 125 146 147 150 153 154 157 160 162 164 164 164 162 161 163 163 164 161 161 163 161 159 157 155 148 143 149 150 150 148 146 145 140 138 135 134 131 125 124 124 121 123 120 118 118 115 112 109 106 103  98  97  93  90  83  71  59  54  51  50  48  47  43  46  47  54  73  90 121
 176 176 175 174 176 178 177 177 177 178 178 178 177 176 178 177 177 177 175 166 121  87 102 139 145 148 149 150 150 155 159 160 160 160 160 159 159 159 160 161 162 161 161 161 158 154 150 148 145 147 147 145 146 143 140 136 134 132 128 125 123 121 123 122 121 119 116 116 115 113 109 107 107 102  96  91  90  84  73  65  57  56  50  48  47  42  38  43  52  85 120 123
 176 177 175 177 177 177 178 177 177 177 179 179 178 177 178 178 175 178 178 171 132  82 109 144 145 145 148 147 148 153 154 157 156 158 157 155 158 158 159 159 161 160 157 154 152 149 144 145 143 145 142 142 141 138 135 132 131 128 125 123 122 122 124 122 120 118 118 115 112 112 110 108 106 104  97  92  89  86  79  68  63  55  53  51  47  44  38  39  47  71 106 136
 178 177 177 177 177 178 177 179 178 178 178 179 180 178 178 178 177 178 178 175 147  84 129 145 144 144 145 147 147 151 154 155 154 152 151 151 155 155 157 158 158 155 150 147 147 144 142 142 138 134 137 138 133 131 131 130 125 124 122 121 121 121 122 122 119 117 117 114 111 111 111 110 107 104  97  95  90  88  81  71  64  57  53  52  47  42  40  41  45  63 120 145
 177 177 178 177 177 178 177 179 178 179 179 179 179 180 179 179 178 177 177 178 152 105 143 144 142 144 143 145 146 147 150 150 150 150 149 149 151 151 154 155 153 153 151 147 143 140 140 140 138 135 137 133 130 127 127 125 124 123 120 118 119 119 118 119 120 118 118 113 110 112 112 111 111 105 101  98  93  89  84  74  66  58  54  51  48  41  38  37  43  57 115 145
 177 177 177 178 177 178 179 178 178 179 178 179 179 178 179 178 178 178 177 176 151 133 144 144 141 142 143 144 146 147 146 146 149 149 147 147 149 149 150 149 149 148 146 144 139 136 137 134 130 132 128 127 126 123 121 121 122 121 117 115 114 116 118 117 115 113 116 113 110 110 111 110 109 105 102  97  92  93  86  77  68  58  52  51  47  42  39  37  40  55 105 140
 177 177 178 177 178 178 179 178 179 180 179 180 179 178 180 180 179 178 180 176 151 141 144 141 138 139 140 141 141 145 146 147 150 148 146 144 146 146 147 147 145 142 142 140 134 134 132 131 128 131 128 126 126 121 119 118 118 115 113 114 113 114 114 116 115 112 113 108 111 111 111 110 108 106 100  96  93  92  87  81  72  62  53  47  44  39  37  38  38  50  76 119
 178 178 179 177 177 179 179 179 179 180 181 182 178 179 181 181 179 180 180 173 145 145 143 141 138 138 136 136 137 140 144 144 146 146 143 144 143 143 144 143 139 136 137 134 131 131 130 126 128 127 126 126 125 121 115 116 116 114 112 111 110 112 112 112 111 110 109 107 110 109 108 107 107 104  99  97  96  91  88  81  71  67  54  49  44  40  36  36  37  41  60 101
 178 178 178 179 178 179 181 180 180 181 182 182 181 180 181 180 180 179 178 169 134 144 141 136 136 135 134 135 137 139 142 143 142 142 139 140 142 142 144 142 141 139 137 133 131 129 128 128 128 126 124 126 124 120 119 118 116 113 114 114 113 113 113 112 112 108 109 109 107 107 106 104 103 103  96  95  95  90  87  81  72  67  58  49  43  39  38  33  33  37  53 109
 178 178 178 179 179 178 180 181 180 181 181 181 182 182 182 180 181 181 178 159 133 142 140 136 135 134 134 134 132 138 141 143 143 141 140 142 141 142 140 139 138 135 133 130 130 130 128 129 128 126 125 124 122 119 121 119 117 113 115 113 114 115 116 115 112 108 108 106 108 107 105 102 103 100  96  95  92  90  84  78  71  63  57  48  42  37  35  34  31  33  50 103
 179 177 179 180 178 180 181 181 179 179 181 181 180 181 181 182 181 181 176 146 135 140 138 135 135 134 134 135 136 137 140 141 143 142 140 140 141 139 135 134 131 130 129 132 130 129 128 131 130 127 124 125 126 121 121 119 118 112 114 116 117 117 116 116 113 108 108 108 107 105 102 100  99  96  91  90  91  90  84  74  69  60  54  48  42  36  33  31  34  32  53  92
 178 177 179 179 180 179 180 180 180 182 182 181 181 180 181 180 182 182 176 131 138 138 137 138 136 136 139 139 139 139 140 141 141 141 142 140 140 138 134 135 134 132 133 133 130 130 131 130 129 127 126 126 125 123 124 122 122 120 120 121 120 117 116 114 111 111 108 106 105 102 100  98  93  91  89  86  87  86  80  72  67  58  50  46  41  36  32  31  33  36  51 103
 178 178 178 181 179 181 179 180 182 180 180 180 182 181 183 181 180 180 175 128 140 137 137 137 137 140 142 142 145 143 145 142 142 139 139 140 140 137 136 133 134 132 131 129 129 132 132 129 128 129 130 129 127 126 126 126 124 124 122 122 119 115 115 112 111 109 108 106 102  99  97  94  91  88  88  84  84  84  78  71  61  56  48  44  38  33  31  31  33  38  56 105
 178 178 178 177 179 180 182 181 180 182 180 182 181 182 183 181 181 181 175 123 140 138 139 141 141 142 143 144 146 146 149 143 143 140 138 137 135 134 133 131 130 132 132 130 131 132 134 131 131 133 135 132 131 129 127 125 124 124 125 123 120 114 112 111 109 107 107 104 102  98  95  90  88  88  87  83  83  82  77  69  59  50  46  42  38  31  29  31  31  36  49  91
 178 178 177 177 178 179 180 180 182 181 182 182 181 181 181 182 181 179 169 122 140 139 141 142 142 143 146 149 151 150 150 146 143 141 140 139 136 132 131 130 128 130 133 134 135 136 137 139 138 138 136 136 134 132 131 131 129 125 126 122 122 118 113 111 108 107 106 102  99  95  92  89  87  88  84  83  82  81  77  68  55  47  43  38  36  32  30  30  30  34  45  76
 179 179 179 178 179 180 179 180 182 180 179 180 181 183 181 180 181 178 161 128 140 141 144 146 145 147 150 152 151 153 153 150 148 141 138 139 137 136 136 133 133 132 132 133 135 136 139 140 139 139 141 140 134 134 131 130 129 125 124 124 124 120 116 113 112 109 106 102  98  95  93  88  85  84  83  82  83  80  76  68  54  44  41  37  34  31  30  29  30  35  47  57
 179 178 179 179 179 180 179 180 182 181 180 180 180 182 181 181 182 176 153 129 138 141 145 146 150 150 150 150 151 153 157 152 147 145 141 138 137 134 134 134 133 134 134 131 127 131 140 140 141 139 139 136 135 133 131 128 125 124 125 126 124 122 119 115 110 109 105 100  98  95  91  88  85  82  80  80  81  78  75  66  54  42  35  35  32  31  30  29  31  33  47  63
 177 178 178 179 180 180 180 183 181 180 179 181 180 181 182 181 180 175 143 127 139 145 148 150 151 149 148 149 152 152 153 153 150 148 144 140 138 136 136 134 135 134 134 135 134 136 140 141 139 135 134 135 131 131 127 125 125 126 126 125 124 124 118 113 109 108 104 100  98  95  91  88  86  81  80  78  79  77  75  65  53  41  35  35  31  29  28  30  29  36  52  77
 178 178 178 179 180 181 181 180 181 180 182 180 182 180 179 180 181 172 136 125 142 148 150 149 149 148 146 148 149 152 152 149 146 145 144 141 139 138 139 136 137 136 137 138 138 140 142 139 136 131 129 129 127 126 126 124 127 127 127 127 126 125 122 116 111 109 105 100  98  97  91  88  85  80  78  78  79  75  72  65  51  40  34  31  30  27  26  30  31  36  54  95
 177 177 179 179 179 180 181 180 180 180 180 180 180 182 180 179 179 170 127 124 144 151 152 149 148 146 144 145 146 146 147 148 145 144 144 143 138 139 138 139 138 137 136 136 138 137 134 136 135 132 127 126 125 127 126 125 127 127 127 128 128 126 122 120 113 110 105 100  99  96  93  88  84  80  79  80  79  77  72  65  52  38  31  29  30  29  25  28  31  39  64 112
 177 177 179 180 181 181 181 180 181 180 179 180 180 179 180 181 179 168 113 124 146 153 149 147 147 140 140 141 143 140 141 140 142 143 141 142 142 140 141 138 138 136 134 135 134 134 134 134 134 130 127 127 126 126 126 124 125 126 123 125 124 123 121 119 116 108 104 102 101  98  94  88  84  80  80  78  78  77  72  65  52  37  28  29  30  29  26  27  33  40  80 105
 178 178 179 179 178 180 179 180 181 180 180 180 179 180 181 180 177 167 115 126 141 147 144 143 143 140 138 140 139 137 136 133 132 133 134 139 139 139 138 133 132 132 132 129 129 129 129 126 125 123 122 125 126 124 123 123 122 120 119 119 118 116 113 112 105 103 102 103 101  99  95  89  84  81  81  79  80  80  73  68  55  39  28  26  29  30  27  27  32  39  62  82
 178 178 179 179 181 180 180 180 181 180 181 180 180 180 180 178 177 159 116 115 120 125 132 130 130 130 134 134 133 130 129 127 124 124 128 132 135 133 131 125 124 124 123 124 122 120 117 118 113 112 112 111 114 114 113 108 106 104 102 104 104 100 101 100  93  91  92  96  99  97  93  91  86  82  80  79  79  79  76  71  58  42  30  25  27  29  29  28  29  38  67  88
 179 180 179 179 180 180 182 183 181 182 180 180 179 178 179 178 177 159 112 101 104 103 106 105 107 117 120 119 117 118 118 118 119 122 126 129 128 127 124 123 123 120 114 114 114 110 102  98  92  85  84  86  86  89  92  86  82  87  85  87  85  84  87  86  83  81  84  86  89  88  87  85  84  82  81  80  78  79  79  74  63  45  30  23  25  28  29  28  30  38  65 112
 178 178 179 180 181 180 180 180 180 182 180 181 179 180 177 176 173 148  92  86  81  78  81  87  88  88  88  83  84  90  97 105 110 115 117 118 118 118 116 118 115 111 108 102 103  96  85  79  68  67  62  54  54  54  59  56  61  65  66  68  62  68  68  71  68  69  70  70  73  76  77  78  79  82  80  80  79  80  80  76  69  51  31  22  23  26  28  29  34  43  68 106
 179 179 180 179 180 181 181 180 178 177 177 178 178 165 155 128 113  91  86  77  76  78  75  66  62  61  59  56  56  62  71  82  91  99 108 110 110 112 112 113 108 103  99  88  83  74  68  60  52  46  41  38  37  36  38  40  40  44  46  51  49  54  58  54  54  60  63  60  57  61  65  64  68  72  76  76  76  77  78  77  70  54  33  21  19  24  27  31  34  50  65  79
 179 179 180 180 180 180 178 166 136 111  94  77  59  56  54  58  63  70  70  72  74  76  76  72  64  56  52  46  42  46  49  60  70  82  94  99 103 104 102 104 103  95  87  78  65  57  56  54  46  39  37  34  31  31  32  31  32  34  34  38  45  45  50  52  50  50  53  52  52  51  53  54  57  62  69  73  73  74  76  74  68  51  32  23  24  27  27  30  32  39  50  68
 180 179 180 181 181 179 177  53  35  33  32  32  33  38  42  46  47  45  47  39  32  31  30  34  38  44  49  54  52  48  47  48  52  63  77  88  95  97  97  98  96  90  80  71  58  49  48  46  42  34  32  32  32  32  33  35  37  37  39  42  46  46  49  49  49  52  53  55  54  51  51  51  50  54  64  68  69  69  71  71  59  43  43  46  45  39  32  26  35  50  54  77
 179 180 179 181 181 180 179  59  85  42  32  47  59  51  65  92  90  83  86  82  77  68  62  50  43  35  30  26  27  35  38  46  51  55  58  72  85  93  94  93  88  82  71  58  50  42  39  39  42  44  44  45  42  41  39  40  39  36  35  35  35  35  36  37  38  40  43  47  49  51  52  54  50  53  56  61  62  69  62  50  49  55  53  53  53  48  26  24  39  47  62  80
 181 181 181 181 181 181 182  71  54  43  34  82 123 161 175 175 175 159 114  89  80  73  67  61  56  52  49  44  38  31  25  25  33  40  50  58  73  79  87  88  82  75  66  52  47  44  41  37  31  26  23  22  24  27  28  31  34  36  38  39  37  35  35  31  25  21  19  19  19  21  22  26  28  31  36  43  47  46  45  56  60  59  56  59  60  40  24  24  38  53  63  70
 182 182 182 182 182 183 181  81  36  31  37 162 178 180 178 178 176 168 142  93  81  70  64  59  54  53  52  47  46  42  40  36  26  22  28  38  52  69  74  73  71  66  54  44  35  28  23  25  30  33  35  39  43  47  51  54  60  64  67  68  66  69  66  66  55  50  45  43  37  27  19  17  17  18  19  18  20  21  45  58  64  61  59  61  60  30  23  26  45  54  53  47
 184 183 184 184 186 184 183 138  30  31  45 174 178 180 178 180 179 174 168 106  85  72  61  59  58  56  53  49  45  40  39  38  38  31  23  21  21  27  31  31  30  29  26  22  20  27  36  41  40  38  38  40  44  49  51  54  57  59  60  59  61  60  60  58  49  42  43  46  47  46  44  31  17  23  77  91  33  18  46  57  58  54  46  36  29  25  24  28  44  47  44  42
 188 186 186 187 189 189 188 186  46  32  41 176 179 180 182 182 179 175 164 118  86  82  70  68  70  61  57  51  44  42  36  33  32  33  25  21  19  20  22  20  20  20  20  19  26  42  43  41  39  38  37  38  39  42  43  47  54  56  59  65  67  68  66  60  55  44  40  40  40  40  40  40  27  22  33  36  31  18  46  54  55  57  49  37  29  24  25  30  42  47  49  44
 187 187 188 190 190 188 187 186  98  36  38 167 182 181 183 183 180 178 155 118  84  61  55  51  48  42  38  34  31  26  23  25  29  31  29  19  19  20  20  19  18  19  19  19  34  45  45  45  42  40  35  32  34  39  43  51  58  61  66  75  81  82  80  75  72  66  56  43  35  32  35  37  36  19  17  18  17  19  49  60  64  63  56  41  32  24  25  35  46  51  48  45
 185 186 189 189 188 191 191 187 154  32  40 152 181 183 182 182 182 177 156 119  64  48  50  47  50  53  36  33  32  30  20  24  25  30  28  20  19  19  20  19  19  18  19  19  34  46  47  47  45  42  36  35  35  39  42  44  46  47  50  50  46  46  46  49  52  53  50  46  42  39  37  39  40  24  17  17  16  38  56  66  67  66  60  45  34  28  28  36  48  54  48  48
 185 189 189 190 190 192 190 191 186  46  38 135 181 182 182 183 182 172 154 105  75  68  55  64  63  64  49  34  29  22  23  25  26  32  28  19  19  24  36  38  30  20  18  18  30  49  49  49  47  45  34  31  31  32  34  38  44  46  50  37  33  32  28  30  33  35  36  35  34  34  35  40  41  29  17  17  25  57  62  67  68  68  60  46  38  32  33  42  50  58  50  51
 188 189 189 190 190 190 189 189 185 102  40 113 182 183 181 183 182 171 153 123 100  83  61  60  65  65  58  35  31  29  33  36  41  49  35  20  21  51  92 100  76  38  20  19  27  43  53  51  47  43  40  35  36  33  39  48  55  59  61  39  28  24  22  23  28  33  34  34  34  35  38  41  42  30  16  16  42  66  69  70  70  69  64  48  37  33  37  45  50  61  54  54
 189 189 189 188 190 190 188 188 185 160  36  72 179 180 182 182 182 174 152 128 109  89  68  61  62  66  66  67  58  52  53  47  53  66  31  20  40 115 133 133 124  95  29  20  23  39  53  56  53  50  50  51  49  42  41  45  54  63  65  46  27  24  22  23  26  33  34  35  36  38  41  46  49  32  16  16  58  72  73  74  71  73  67  49  37  34  36  43  48  57  58  60
 187 188 189 188 188 187 187 187 188 187  64  46 163 179 180 182 181 175 147 131 118  99  77  66  59  61  61  56  53  51  48  52  62  68  24  19 100 138 151 147 140 118  59  20  20  37  45  61  62  56  54  53  51  47  44  49  54  58  61  58  41  30  28  28  32  34  35  37  39  44  47  50  53  34  16  20  72  76  75  76  75  73  68  50  36  32  33  40  46  58  64  70
 187 187 185 188 186 184 186 184 186 184 128  38 110 179 182 179 178 174 152 135 122 103  84  73  69  64  60  58  59  60  69  76  84  63  22  47 132 156 163 158 146 122  87  29  19  30  43  60  64  65  62  59  58  55  50  48  52  55  54  54  55  52  47  44  39  39  41  44  46  53  55  60  63  33  16  39  80  79  79  77  75  72  67  48  34  30  35  41  47  60  71  93
 184 185 186 186 185 185 185 185 185 186 183  54  58 163 180 180 179 168 150 136 125 107  93  89  83  82  81  85  86  89  90  93  94  39  21 102 150 165 168 163 146 122  96  57  19  23  42  52  67  66  69  70  70  68  64  61  57  53  53  51  50  47  46  45  42  46  48  50  52  61  67  69  72  26  14  64  83  83  80  78  75  74  66  46  33  30  34  43  51  66  75 122
 184 185 185 185 187 185 185 185 183 185 183 132  40  94 177 179 177 167 140 136 127 113 103 100  99  98  95  92  95  98  97  98  86  22  50 138 158 169 169 166 145 124 102  77  27  20  34  50  72  71  70  73  75  77  73  75  73  66  60  55  52  49  49  49  50  52  56  59  64  68  74  79  75  21  19  84  84  85  81  78  77  72  65  44  33  30  36  43  56  71  82 143
 182 183 184 184 186 185 186 185 186 186 185 183  80  45 104 175 176 156 135 136 128 118 109 107 104 103 100  99 101 102 103 102  43  22 109 147 164 172 168 159 140 123 106  86  56  20  22  41  69  78  77  78  77  80  81  78  80  79  74  72  69  68  64  64  66  67  69  71  73  77  82  87  59  19  46  89  89  85  81  77  75  72  61  40  33  33  39  47  62  72 106 148
 182 182 184 186 185 185 186 185 185 185 184 183 174  72  53  86 144 134 134 133 126 116 111 109 105 104 106 106 109 109 106  56  23  40 132 153 168 174 167 154 136 118 105  94  77  38  20  30  52  76  82  85  83  83  86  84  86  85  82  81  81  79  78  77  77  79  82  82  85  87  91  93  40  15  72  90  87  83  80  76  73  70  57  39  33  38  44  57  70  78 133 153
 182 182 184 184 184 184 184 184 185 184 185 183 181 177 109  50  64  88 108 112 110 105 107 109 110 109 113 107  95  68  32  23  35  86 143 158 169 171 163 146 125 114 105  95  82  68  29  20  34  63  80  87  91  91  91  91  88  88  86  85  85  82  83  85  86  86  86  89  92  94  99  85  19  27  89  90  86  83  79  74  73  66  54  38  32  37  52  67  71 100 140 154
 182 182 183 182 183 184 184 184 184 184 184 183 182 180 176 167 111  69  37  47  56  65  67  71  68  63  51  38  27  24  32  53  69 123 149 161 169 169 157 138 117 109 102  94  85  75  59  31  21  33  64  80  89  93  95  95  94  91  90  87  86  86  87  90  91  91  92  95  98 101  96  37  18  62  90  87  84  80  76  72  71  64  49  36  37  53  62  61  74 128 146 148
 178 180 181 181 181 182 182 182 182 183 183 181 181 181 177 163 167 159 130 105  83  66  52  48  49  48  52  54  64  76  76  75 104 140 152 161 167 162 149 132 118 112 103  95  84  76  70  58  36  23  28  46  65  85  93  93  97  95  93  92  91  91  91  94  94  94  93  98  98  81  43  20  36  87  89  84  81  77  74  72  68  58  44  36  43  56  53  60  99 142 146 148
 177 178 178 178 179 179 179 180 179 179 177 178 178 177 167 161 172 154 136 127 125 120 117 120 117 114 105  96  90  86  86  90 122 145 150 160 167 155 142 128 118 114 102  95  83  74  70  63  56  47  34  24  28  38  53  65  72  82  87  90  90  90  87  89  86  80  74  66  47  35  20  29  80  87  84  81  78  74  70  69  64  50  41  35  40  53  59  76 129 141 150 153
 176 176 177 176 177 175 177 176 177 177 177 176 174 168 157 172 167 158 136 130 130 125 124 125 118 110 105 102 100  99  96  95 131 143 155 168 166 153 139 127 116 112 103  95  85  72  66  63  62  62  59  59  49  37  25  21  27  31  34  38  38  41  38  36  36  32  29  24  17  26  55  84  85  83  82  77  73  72  70  67  58  48  39  35  37  53  67 106 134 141 152 152
 176 176 176 176 175 175 175 175 177 176 175 173 172 156 170 173 170 154 127 132 131 124 122 120 117 114 112 107 106 103  95 105 135 147 160 170 164 152 137 124 113 106 103  95  86  74  67  62  63  64  68  72  72  75  77  73  68  59  54  47  46  41  44  41  45  54  58  64  77  85  84  82  81  80  76  72  71  69  69  63  52  41  36  35  38  54  73 122 138 142 150 152
 175 175 174 173 173 174 174 175 175 174 174 172 161 165 172 171 168 158 112 129 125 119 117 116 119 118 113 111 109 102  96 119 140 150 160 165 163 153 135 123 112 106 101  95  88  82  74  66  59  63  71  76  80  83  81  83  83  86  86  87  84  88  89  90  90  92  90  88  85  84  83  79  75  76  71  70  68  68  64  56  43  35  34  34  38  57  98 130 136 141 150 153
 174 174 174 174 173 174 174 175 174 175 174 164 166 170 171 169 162 142 105 126 123 120 122 121 121 118 114 111 107  97  98 132 143 152 157 159 153 142 125 116 108 102  98  92  93  91  84  73  60  61  70  77  84  86  85  90  89  90  88  86  89  90  91  91  90  91  88  88  85  84  80  76  73  70  69  69  68  67  62  48  38  31  33  34  42  68 103 114 133 139 147 150
 172 172 172 173 173 174 173 174 174 171 168 157 168 170 170 170 157 127 103 118 124 124 123 123 120 114 109 108 103  96 116 135 143 147 153 150 142 133 121 109 101  99  96  94  91  93  86  74  61  54  62  74  85  90  94  96  95  94  92  92  91  91  91  91  87  85  84  83  81  82  79  75  71  67  66  65  65  64  54  42  33  31  29  32  55  82  95 118 138 141 146 149
 171 171 172 172 173 172 173 173 172 169 161 164 171 172 168 163 139 108  92 112 119 120 118 116 115 109 106 104 100 102 127 134 139 146 146 139 134 127 114 101  94  91  91  90  89  93  87  78  63  50  59  69  80  90  94  96  98  98  96  95  92  92  92  91  88  84  82  80  79  77  76  73  67  63  64  63  62  57  45  35  29  28  30  34  51  94 106 125 144 141 144 146
 171 171 171 171 170 172 172 172 171 166 168 167 165 167 164 158 136  96  88 111 114 114 113 111 109 108 105 102 100 112 122 122 129 132 127 126 124 111 100  89  86  82  79  82  85  92  87  80  65  47  56  68  79  87  93  98 102 102 101  98  96  92  92  88  87  82  80  77  76  74  71  71  67  63  63  61  58  50  41  30  28  27  28  32  49  86 115 126 141 137 142 145
 169 169 168 171 173 173 172 172 170 168 170 171 171 168 166 154 126  96  81 101 106 110 109 107 106 106 107 107 107 110 110 102 110 114 107 107 106  96  83  75  70  68  72  76  83  88  86  80  63  46  58  70  77  85  88  92  96  99  99 100  99  94  90  85  82  79  74  74  72  70  68  69  62  62  61  55  52  47  37  28  27  26  26  30  45  82 118 128 138 140 145 147
 168 167 169 172 173 174 174 174 172 173 172 171 171 171 168 149 116  82  74  85  98 105 106 104 106 106 109 113 112 109  92  80  89  94  93  88  83  72  63  56  54  57  64  69  77  81  79  74  57  52  66  73  80  85  88  92  93  95  94  97  95  93  89  81  72  72  71  70  70  69  64  63  59  58  55  55  50  40  34  28  25  24  25  28  40  69 102 120 138 139 145 147
 168 168 169 172 173 174 174 174 173 173 174 172 171 170 167 140 109  78  67  82  93  97 102 103 107 108 113 113 112 109  90  64  62  79  79  75  66  56  49  46  47  49  51  55  61  67  65  60  48  58  71  77  83  87  89  89  90  92  92  93  93  92  87  84  74  70  68  69  66  65  63  62  58  56  51  48  46  33  29  24  24  24  24  27  41  59  85 105 132 136 138 146
 167 168 169 171 172 173 173 174 172 171 172 171 171 170 157 124 103  77  61  72  89  94  98 104 111 112 113 112 111 107  96  84  62  67  66  63  56  50  47  43  37  34  35  31  38  44  49  47  47  59  71  80  84  89  90  89  91  89  89  90  89  87  84  81  72  68  64  65  64  59  57  54  53  52  48  42  38  32  26  24  22  25  26  31  45  64  77 101 122 133 136 145
 166 167 168 170 172 172 173 173 173 170 169 171 170 168 163 115 104  74  64  66  82  87  97 108 112 111 110 109 107 102  90  75  56  54  57  54  52  48  46  38  36  37  38  34  34  37  38  43  51  60  72  80  84  88  91  92  91  90  88  82  81  79  74  75  70  67  64  61  60  56  54  50  49  50  44  38  31  30  24  22  22  26  31  45  52  77  78  86 122 127 135 143
 164 166 167 168 170 172 173 172 172 171 169 170 170 169 161 128 101  81  58  58  70  82  94 108 109 104 102  99 100  96  83  67  51  44  48  51  49  46  43  37  38  38  35  32  32  35  38  44  53  64  71  81  84  87  88  91  92  89  84  74  75  73  71  70  67  64  60  56  52  52  51  49  46  45  40  35  28  28  24  24  23  28  38  56  66  74  86  86 107 131 134 140
 164 165 166 167 168 169 172 171 172 170 171 170 169 167 160 138  96  68  54  49  58  74  89 105 100  92  90  91  94  90  74  64  47  43  41  43  46  43  41  42  41  39  36  34  32  34  37  42  51  63  71  76  83  83  83  86  88  89  87  80  75  72  68  64  63  61  55  53  49  50  48  45  41  36  33  28  27  26  21  25  23  23  35  57  79  81  82  86  93 122 132 138
 163 164 165 167 168 167 169 171 171 171 170 169 170 168 165 151 106  70  50  45  52  63  82  94  92  92  90  90  90  79  68  59  45  38  37  41  41  39  39  41  43  38  37  33  31  31  36  41  50  60  69  72  75  79  78  81  85  87  86  84  76  71  66  59  57  56  55  51  46  47  44  43  38  32  31  26  25  23  18  21  24  22  28  58  89  91  83  92  92 113 131 137
 162 162 164 166 168 168 171 169 169 169 168 169 170 168 164 159 131  74  49  45  44  58  77  87  88  87  85  85  77  70  65  56  47  37  39  41  39  35  37  38  42  38  34  32  31  34  42  44  50  56  67  68  65  70  70  72  80  80  81  83  80  72  65  59  54  51  50  49  43  44  41  35  34  31  28  26  24  24  21  18  24  23  29  52  89  92  88  90  91 106 126 134
 161 160 164 166 167 168 169 169 169 169 168 167 167 165 165 162 144  91  53  41  46  54  74  78  84  80  73  67  67  60  58  47  46  42  40  41  39  33  40  40  40  38  34  35  33  40  45  45  51  52  59  63  59  60  57  65  74  76  75  77  74  71  64  61  56  52  48  45  43  38  35  32  30  28  26  23  20  20  21  18  21  23  26  56 100 105  98  96  92 101 116 131
 162 160 164 166 168 169 168 168 167 167 168 166 166 167 167 161 133 101  56  40  48  49  67  70  68  64  63  49  49  56  55  45  44  45  40  43  42  40  46  46  40  40  39  40  40  42  42  49  61  56  58  62  61  58  52  60  65  66  68  68  66  65  63  58  53  51  46  42  37  34  30  27  26  26  21  19  18  20  20  18  21  21  24  32  97 105  99 104 105  97 112 131
 160 161 162 165 166 166 167 167 166 166 166 166 166 165 164 158 131 101  58  39  40  50  58  64  55  53  53  35  42  52  51  43  42  49  46  56  67  66  59  66  57  41  39  39  34  40  43  45  58  56  56  54  56  54  52  50  54  58  59  56  55  54  53  51  49  48  44  40  34  29  25  24  21  22  23  24  23  23  18  17  21  21  23  20  74 102 103 109 109 102 112 128
 158 158 160 162 166 167 166 165 165 164 165 165 163 162 162 156 142  97  69  39  36  48  54  53  48  48  44  33  36  42  47  39  38  43  45  54  70  78  77  82  74  52  45  39  34  39  43  45  47  47  44  42  44  49  49  43  42  49  48  52  47  48  47  49  48  43  39  37  31  28  22  20  21  19  20  20  22  20  16  18  22  22  19  18  34  94 109 112 107 105 116 131
 157 158 160 160 162 165 165 164 165 163 164 162 163 163 162 160 148 116  72  40  39  47  47  47  50  47  41  38  41  43  46  44  37  35  43  46  49  54  60  58  51  46  43  37  34  38  41  43  44  39  36  34  32  35  38  41  40  43  48  42  45  46  43  43  46  42  38  33  28  26  23  18  17  17  16  16  16  15  16  19  18  19  16  14  18  76 115 119 112 114 124 133
 158 158 158 160 160 163 162 163 164 162 162 162 161 161 160 158 148 133  76  47  44  51  48  45  48  48  44  48  54  54  52  55  50  43  40  42  42  42  43  41  40  44  43  40  35  34  33  34  33  31  29  26  26  24  27  30  34  38  42  44  42  43  44  40  38  35  33  32  26  23  19  18  16  13  14  12  13  14  16  18  14  13  13  12  15  61 118 117 118 124 125 131
 156 157 158 160 160 160 160 160 162 161 161 160 159 158 157 151 145 135  80  54  48  47  43  47  48  47  50  55  64  65  62  62  62  64  60  57  56  47  41  38  38  39  38  36  30  30  26  28  29  29  28  28  26  27  30  32  32  34  36  38  39  42  41  41  37  32  27  24  21  18  18  14  15  13  12  11  13  11  15  16  14  12  11  10  15  43 120 122 121 124 132 135
 155 154 158 159 160 159 159 158 160 159 158 158 156 155 153 146 137 120  85  52  46  40  43  46  45  47  51  61  71  71  73  65  67  69  74  74  74  72  66  64  61  61  58  54  48  44  44  41  38  36  36  34  34  37  38  39  38  38  38  35  38  38  39  40  39  32  25  21  18  18  16  14  11  11  11  10  12  13  13  16  13  11  10  11  13  32 118 123 124 130 135 137
 153 153 155 157 158 158 159 158 158 156 156 155 152 149 147 144 136 127  87  51  37  43  48  45  41  44  50  65  74  74  75  72  65  67  72  75  77  74  73  75  74  78  75  73  62  55  48  45  42  41  41  44  43  43  45  45  44  42  39  39  37  38  36  36  40  38  30  25  22  17  15  15  13  10  11  10  11  12  11  13  12   8   9   9  12  21 106 122 125 132 135 136
 152 152 153 155 156 155 154 154 151 151 149 148 148 145 143 141 134 120  82  41  33  37  42  40  41  44  52  66  75  76  74  75  73  63  63  68  72  70  69  72  73  75  70  68  60  53  45  44  46  48  50  48  48  49  48  49  49  47  39  37  36  38  38  35  32  32  30  25  25  23  15  14  13  11  11  11  11  11  11  13  13   9   9   8  12  16  98 119 126 131 134 136
 151 150 152 152 151 150 150 150 148 150 147 146 145 144 143 140 134 127  75  43  35  34  40  36  33  43  50  61  76  79  75  70  69  67  60  55  59  61  64  64  65  62  58  54  47  45  46  50  53  53  52  50  50  51  52  53  52  49  43  39  34  34  35  39  41  37  31  26  23  20  16  13  11  11  10  11  11  12  11  11  10   9   8  10  15  18  86 123 130 131 133 135
 149 148 150 149 148 149 146 146 146 145 143 144 143 142 141 139 136 130  70  44  37  35  40  37  40  42  46  58  74  82  80  71  63  57  57  53  51  52  52  52  51  51  48  48  50  50  52  54  51  51  51  50  50  55  56  56  54  50  47  41  36  32  30  27  27  28  29  28  23  17  13  12  10  10   9   9  10  12  11  10   9   9   9  10  12  16  95 124 129 132 133 135
 148 148 147 147 146 146 144 143 143 143 143 141 142 140 139 137 133 127  78  45  38  39  42  35  35  34  43  58  75  83  82  75  67  60  54  47  43  40  35  35  39  42  45  46  47  46  46  48  48  50  51  52  54  55  55  53  52  50  45  41  38  32  31  25  24  23  18  23  23  20  14  10  10   9   9  10  11  11  11  10   8   9   9   9  10  14  87 124 129 131 133 133
 147 146 146 145 145 144 144 143 142 142 141 140 140 138 139 134 130 118  82  43  40  39  37  39  33  39  48  59  68  68  73  77  74  66  58  52  46  38  28  26  31  31  32  36  38  41  43  46  49  51  52  56  56  55  55  53  51  50  46  40  34  31  31  27  21  19  20  22  20  17  14  11  10   9   9  12  12  11   9   8   8   9   9   9  11  15  74 125 130 130 132 132
 143 145 143 145 143 143 142 143 139 140 140 137 137 134 126  87  71  39  42  36  36  36  32  37  41  54  60  58  55  51  58  73  77  73  64  53  44  37  29  25  30  30  31  35  35  38  42  49  49  52  54  60  60  60  56  55  51  47  44  41  34  29  28  26  23  17  16  16  14  14  12  10   9   9   9  10  10  11   9   8   8   8   9  10  10  13  89 123 128 130 131 132
 144 143 143 142 141 141 140 140 139 138 135 132 115  95  47  26  22  20  26  30  30  33  34  37  51  56  52  47  49  52  52  67  80  75  68  59  44  40  33  28  30  29  32  31  37  37  43  49  55  55  57  62  63  63  59  56  54  45  39  36  37  29  25  21  20  16  16  14  15  12  11   9   9   9   9   8   8   9  10   8   8   8   8   9  10  14  89 122 126 130 130 131
 142 141 142 142 139 139 137 139 137 134 129  93  33  26  20  16  14  13  17  27  29  32  29  38  46  49  49  50  49  51  55  69  77  76  69  58  47  40  35  32  30  30  35  35  39  46  47  50  55  61  64  64  63  62  56  53  50  45  37  32  28  32  28  22  19  14  12  12  18  11  12  10   9   9   9   8   9   9   8   9   7   8   8   9   9  14  26  82 123 128 129 130
 140 140 140 141 140 139 136 134 128  85  42  26  22  18  16  16  14  13  16  25  25  26  31  41  44  45  49  49  49  55  57  68  74  76  66  53  45  38  34  30  27  27  32  39  39  47  52  57  60  64  66  63  61  60  57  51  46  40  35  32  29  28  26  23  18  15  12  10  12  12  12  10  13  10   9   8   8   7   8   7   6   7   8   9  10  12  14  17  75 116 127 127
 140 139 140 136 136 134 130 101  60  23  21  18  18  17  14  12  13  13  16  24  25  27  32  42  42  42  47  47  48  58  59  64  70  66  56  48  41  36  33  33  29  26  30  35  44  44  51  60  60  60  62  60  63  55  49  53  46  36  32  29  30  24  20  16  16  16  16  14  12  13  14  10   9   9   9   8   7   6   4   6   6   7   8   8  11  12  11  14  15  27  56 110
 138 137 137 135 132 126  98  31  25  18  17  17  17  15  14  13  12  12  20  17  17  24  34  39  35  37  38  39  48  49  57  63  64  57  55  46  39  38  35  38  34  28  33  38  44  46  52  52  53  55  51  57  57  56  45  40  44  38  29  25  24  20  19  19  16  12  12  15  14  14  15  12   9  11   7   5   6   5   5   6   7   7   8   8   8   9  10  12  12  14  16  37
 135 135 136 123  78  42  29  22  19  18  18  16  15  14  13  12  12  12  14  12  17  24  31  33  28  35  33  37  46  48  54  54  53  52  51  45  42  40  37  38  38  34  37  40  43  55  52  53  49  53  59  52  51  52  44  41  36  40  25  25  22  17  15  16  14  11  11  14  13  12  16  10  11  11   5   4   4   5   4   6   7   8   8   8   9   8  10   9  11  13  12  15
 103 106  68  37  30  23  20  19  19  17  16  15  15  14  12  12  11  12  10  13  21  24  28  28  28  29  31  35  40  45  44  50  48  48  47  43  42  39  38  37  38  37  38  40  39  56  51  56  53  49  59  58  49  42  43  36  37  34  28  23  18  18  13  12  14  16  11  12  14  15  11   9  11   9   5   4   4   4   5   7   7   7   8   8   9   8   8   8  10  12  11  12
  28  24  24  21  21  17  18  17  17  15  14  15  14  12  12  12  12   9   9  11  13  19  25  25  27  26  26  35  37  32  40  50  47  49  44  42  39  39  37  32  35  36  41  38  40  51  54  54  48  45  46  61  50  40  45  35  31  32  28  22  22  20  12  11  15  15  13  14  15  15  10  10   9   8   4   4   4   4   4   6   7   7   8   9   8   6   8   9  10  11  12  11
  19  19  19  18  18  17  17  16  14  15  14  14  13  12  12  12  10   8   8  10  12  16  15  18  23  24  28  34  33  30  46  47  50  48  42  38  41  35  30  32  32  33  40  38  38  52  54  58  41  42  46  49  42  36  35  37  23  30  27  24  18  23  20  15  15  14  13  14  16  13  11  10   8   8   5   5   5   6   5   6   7   8  10   8   7   7   7   8   9  10  11  10
  18  18  17  18  16  15  16  15  14  14  13  13  12  12  11  11   8   8   9  10  12  10  11  15  20  20  28  32  30  37  42  41  43  39  33  35  33  28  30  34  35  36  33  34  36  53  54  56  38  38  44  38  38  32  32  33  29  23  26  21  16  17  15  17  16  16  15  15  15  11  11   8   7   5   4   4   5   6   6   7   7   8   8   8   8   6   6   9   9   9  10  10
  17  17  16  17  16  15  16  15  13  13  13  13  13  13  11   9   8   8   9   9   9  10   9  13  21  22  26  26  31  33  34  34  40  34  31  33  34  30  32  32  35  36  32  36  37  55  54  51  41  38  40  32  32  28  27  32  26  22  21  22  16  16  14  12  10  12  12  11  10   9   9  10   6   4   4   4   6   6   5   8   9   8   8   6   6   6   6   7   7   9   9  10
  17  16  14  16  16  15  15  12  13  12  13  13  12  13  12   7   9   8   9   8  10  10  10  11  16  21  23  22  26  28  30  30  33  29  30  28  26  26  28  30  28  31  31  38  48  49  52  44  38  43  34  28  27  25  24  31  22  20  17  21  17  13  13   9   9  10   9   9   9  10   9   6   4   4   4   6   5   6   6   8   6   7   7   7   7   6   6   6   9   9   9  10
  16  16  15  14  14  15  15  14  13  10  11  13  13  12   9   8   9  10   8   9  10   9   8   8  11  18  18  20  23  25  28  25  28  28  25  21  21  22  25  18  24  25  31  37  40  40  39  39  38  37  28  27  23  25  25  26  20  16  15  16  16  15  10  10   9   9   7   5   5   7   5   4   4   4   4   5   6   5   6   6   5   5   7   6   4   5   8   9   8   8   9   9
  15  15  15  14  16  14  14  14  11   9  10  12  11  10   8   9   9   8   9  10   9   9   7   9  10  13  12  14  20  20  23  24  25  26  20  18  19  18  19  19  25  25  22  31  36  35  31  34  34  27  27  22  19  24  25  21  18  14  10  14  15  14   9   9   8   8   5   4   4   5   4   4   4   4   5   5   6   6   7   5   5   5   6   5   6   5   7   8   6   8   8   9
  16  13  14  13  13  11  13  14  11  11  11  12  11   9  10   9   8   8   8   9   8   9   9   8   9  10   9  10  17  18  21  22  21  22  16  15  15  16  19  17  21  22  21  28  35  28  29  32  32  24  24  17  16  24  21  16  15  13  11  10  12  13  10   9   7   7   7   6   5   5   4   4   5   5   5   4   5   6   6   5   5   5   5   5   4   4   6  11   6   7   8   7
  15  12  15  13  12  11  11  11  12  12  10  11  10   9  10   9   9   8   8   8   8  10   8   6   8   9   6   9  14  17  18  15  15  13  19  14  13  13  15  15  17  19  19  27  29  21  27  28  27  23  19  16  18  23  17  16  13  11  11  10   9   8   8  10   8   7   7   6   5   5   4   4   5   4   4   5   4   5   4   4   4   4   6   4   5   5   5   6   6   5   6   6
  11  12  14  12  11  12  12  12  12  12  10  10   9   9  10  10   8   8   8   8  10   9   9   8   7   9   6   8  13  13  15  13  14  10  15  15  12   9  11  11  16  20  18  24  24  22  23  23  21  21  18  16  17  23  16  11  11  10  10  10   8   7   7   9   9   7   4   5   4   4   5   4   5   5   5   5   4   4   4   4   5   5   5   5   4   4   6   7   9   7   6   7
  10  13  13  12  12  11  11  12  12  12   9   7   7   9   9   7   8   8   8   8   9   8   9   7   6   6   9  10   9   9  10  10  11  10  10  12  10  10  10  10  14  18  16  19  19  18  17  20  19  18  21  13  16  19  13   7   8   8   8   8   6   6   4   5   7   6   5   4   5   4   4   4   4   4   4   4   4   4   3   4   4   4   4   4   4   4   5   5   6   7   6   6
  10  10  11  13  11  10  12  11  12  11  10  10  10  10  10   8   8   7   8   9   9   8   8   7   5   4   6   6   8   7   8   9   8   9   9   8   9   9  12   8  12  14  19  12  16  13  13  16  14  15  15  14  19  15  10   6   8   8   7   8   7   6   4   4   7   6   4   4   4   4   4   4   4   4   5   4   4   4   4   5   4   4   4   4   5   4   5   5   6   7   7   9
