P2
# Generated by OpenCV 3.4.0
92 112
255
 161 147 127 102  84  72  65  66  69  73  73  73  75  73  72  69  67  61  57  55  54  52  53  50  48  50  54  57  62  66  73  81  86  87  83  82  92  95 100 100 104 106  99  98  92  83  72  66  66  66  67  69  79  96 106 114 123 134 139 143 152 148 146 156 162 154 161 170 172 172 174 174 174 174 176 174 174 175 176 174 175 174 175 174 174 174 173 172 173 174 173 172
 156 120  94  78  74  70  72  71  73  76  76  74  72  72  68  63  61  61  62  63  60  52  50  48  50  56  63  63  68  77  82  91  96 103 101 105 109 114 114 116 117 118 118 120 120 112  99  88  80  74  68  70  82 104 116 120 124 133 133 131 132 146 145 144 152 161 154 164 171 169 171 172 173 174 174 173 174 173 173 174 174 174 174 173 173 173 173 173 173 173 174 174
 140 106  79  68  72  75  74  73  75  76  77  76  73  69  66  65  65  68  66  63  54  52  55  58  60  69  77  78  80  86  98 105 109 117 120 123 126 129 129 132 132 130 131 131 130 130 125 118 113 100  86  79  82  92 106 110 124 129 136 145 133 128 135 145 155 155 155 154 168 172 174 172 173 176 177 176 176 177 176 176 174 175 174 174 175 174 173 172 172 173 173 174
 121  91  72  66  71  75  79  82  85  84  82  79  76  76  75  77  75  74  71  62  62  65  71  71  71  81  89  95 101 101 110 122 127 132 134 135 137 139 142 143 142 140 139 138 137 135 134 131 129 121 112 102  89  87  98 102 110 118 123 134 142 140 131 132 146 159 158 154 157 170 176 174 176 175 176 177 176 175 177 177 175 174 177 176 176 176 174 174 174 174 174 174
  90  74  73  79  83  86  87  87  91  88  86  84  82  79  75  72  79  81  74  70  75  79  84  90  93  98 106 114 118 120 127 131 137 140 142 144 146 145 150 147 146 143 142 142 141 142 139 137 135 132 128 120 112  98  92  96 103 110 112 117 128 142 148 128 134 148 157 159 151 164 174 172 174 175 176 176 176 177 177 176 175 176 176 176 174 175 175 174 173 174 174 174
  77  74  76  78  78  79  82  86  88  85  79  81  83  80  79  83  85  85  84  87  92  96 100 103 111 119 123 125 131 132 135 137 143 147 150 152 153 152 149 148 148 144 144 144 145 144 144 141 140 138 134 129 123 119 107 105 107 108 109 112 117 121 137 152 129 145 149 160 155 163 172 173 176 175 174 175 174 175 175 174 174 175 174 175 174 174 176 174 175 174 174 174
  66  68  70  70  71  78  85  87  86  83  86  90  92  88  89  94  94  96  98 104 109 114 118 117 126 130 132 138 139 142 140 143 148 152 155 156 157 158 154 152 149 149 145 147 145 145 145 144 143 140 136 133 127 124 121 114 114 118 110 104 115 125 116 137 142 138 152 154 154 161 170 172 176 176 177 177 177 177 177 176 176 176 175 174 175 174 173 173 174 174 173 174
  65  66  70  78  82  84  82  85  88  90  94  95  94  95 100 104 108 108 113 117 124 127 126 128 133 134 141 146 148 147 147 150 154 156 158 157 159 158 157 153 151 151 150 149 148 148 146 145 142 141 135 135 130 127 122 121 118 121 121 116 104 121 123 116 140 142 149 152 152 158 168 172 176 177 175 175 176 178 177 177 176 176 174 175 176 175 176 175 175 175 176 175
  68  69  70  77  81  81  82  87  93 100 100 100 102 105 107 112 116 118 122 125 129 130 130 136 139 141 143 147 150 153 153 154 154 157 158 160 160 160 158 155 155 153 154 153 151 148 144 142 141 139 135 132 131 128 126 123 121 113 105 113 124 111 120 122 119 142 154 159 154 155 169 175 177 178 178 178 178 177 176 176 176 176 176 175 176 177 177 176 177 177 176 176
  73  69  71  74  79  79  85  91 100 102 103 108 110 110 115 121 122 125 127 130 133 134 135 140 142 142 144 148 155 159 158 158 157 158 158 159 162 163 161 156 156 154 152 154 152 150 148 144 140 135 133 132 129 131 128 125 123 123 123 124 125 133 112 129 116 131 151 160 154 155 167 175 176 178 178 178 178 178 178 177 177 176 175 176 175 175 177 177 177 176 176 175
  70  71  72  75  80  83  87  95 106 106 109 113 115 119 122 122 127 128 132 136 140 138 141 143 144 144 149 152 159 159 157 159 159 157 159 160 162 162 165 161 158 155 153 153 155 152 149 144 139 135 133 131 130 129 127 126 124 123 124 129 121 119 125 119 126 131 139 161 156 158 169 175 177 179 179 178 179 178 178 178 178 177 175 177 176 177 177 176 175 174 175 176
  69  74  77  76  84  89  97 109 115 114 116 113 121 124 122 125 128 130 131 134 138 141 143 146 147 149 151 153 156 157 157 156 156 156 157 158 159 161 162 160 157 154 154 154 154 153 148 142 136 134 131 130 129 130 127 124 124 124 124 121 112 111 118 114 118 130 128 164 162 160 174 176 177 177 178 181 180 179 178 178 178 176 176 177 177 177 178 177 177 176 177 175
  67  73  74  78  86  96 110 115 120 120 119 120 125 124 127 128 132 135 135 138 140 144 146 147 148 149 151 152 156 156 156 154 155 155 157 156 157 157 157 155 154 153 151 150 151 150 146 139 135 133 130 130 128 128 127 122 122 124 124 122 112 100  98 104 113 123 126 156 160 164 176 177 177 178 179 180 181 178 179 178 177 177 178 178 178 177 177 177 177 177 177 176
  63  70  72  81  94 108 118 120 122 121 121 122 126 127 129 131 134 136 138 141 144 145 146 146 148 148 150 154 153 152 153 153 153 154 155 153 153 153 152 149 148 146 146 143 143 143 140 138 136 132 128 126 125 126 123 121 120 121 122 122 121 106  96  89 110 120 131 144 160 169 176 177 177 179 179 178 179 179 178 178 177 177 178 178 177 178 177 176 178 176 178 177
  61  71  78  88 104 115 120 122 121 119 121 123 127 124 128 131 135 137 140 141 143 146 145 143 144 148 149 151 150 150 150 149 150 152 154 152 148 147 147 145 142 141 141 141 139 138 138 135 132 129 126 123 122 122 120 120 119 118 119 120 118 113  96  93  98 116 130 148 169 173 176 176 176 180 180 180 178 177 179 179 178 178 177 177 177 177 178 178 178 177 177 176
  62  74  83  96 106 114 117 119 121 121 123 126 127 126 130 134 138 138 139 141 142 143 142 142 143 145 148 149 149 147 145 146 147 148 148 148 148 145 143 141 139 139 139 139 138 137 134 131 128 126 124 118 120 121 119 119 119 119 117 116 118 119 108  99 112 116 128 148 170 175 176 178 176 179 178 178 178 178 178 177 178 179 178 178 178 177 177 177 178 178 176 176
  64  74  86  99 109 115 117 118 120 123 125 128 127 130 134 137 137 137 137 137 139 141 142 140 141 143 144 142 145 143 144 145 146 145 144 142 140 139 138 136 135 135 136 135 136 135 133 132 126 123 121 115 116 117 120 118 118 117 115 113 115 119 120 104  99 126 127 146 168 176 178 176 176 178 176 177 179 180 178 176 176 177 177 177 178 177 178 177 178 176 175 176
  68  78  90 103 111 114 118 122 127 126 126 130 130 132 135 134 135 138 138 139 141 141 139 139 140 142 142 140 142 141 142 143 143 141 139 140 138 135 133 132 132 131 132 134 135 132 131 129 124 121 118 118 118 115 116 116 114 115 112 112 113 118 117 113  97  99 144 145 167 176 176 175 176 177 177 178 178 177 178 177 175 176 176 175 175 177 177 178 178 177 177 176
  68  82  94 106 112 114 119 123 127 128 128 134 134 135 135 134 135 138 138 139 137 139 138 137 135 137 138 138 139 138 138 138 136 135 133 135 133 132 130 131 131 131 129 132 132 131 128 123 121 118 116 113 111 112 114 112 111 112 111 110 113 116 116 117 108  92 111 148 167 176 175 176 177 178 178 180 179 180 179 177 178 178 178 178 178 178 178 178 177 177 177 176
  70  82  99 109 112 112 117 124 127 129 130 136 136 137 134 133 134 140 139 137 136 135 136 136 134 134 137 136 134 134 134 134 134 133 134 132 128 126 125 124 126 126 128 129 131 130 126 119 119 115 112 111 108 109 109 108 108 108 108 109 111 111 112 115 116  96  92 128 161 174 176 177 178 178 177 178 179 178 179 178 179 178 178 178 177 178 178 177 177 178 176 177
  72  88 104 111 112 112 118 123 127 131 132 135 134 134 135 134 133 134 137 138 135 131 133 135 134 134 134 135 134 133 132 133 131 129 128 127 126 125 124 122 125 126 125 127 127 124 121 121 118 113 109 110 110 107 107 106 105 106 108 107 106 108 110 113 117 100  96 113 150 173 177 177 178 178 177 178 178 178 178 178 178 178 178 178 179 177 178 177 178 177 176 176
  75  94 106 114 113 112 117 123 126 127 130 133 133 134 135 134 134 135 136 137 134 131 131 130 131 132 131 132 132 132 133 131 129 125 123 123 123 122 122 121 122 122 121 124 121 121 119 116 114 110 107 107 106 104 105 105 104 104 104 103 104 106 107 110 112 107  94 102 140 172 177 178 178 178 178 178 178 177 178 178 177 178 178 178 178 178 178 177 177 176 176 176
  78  95 106 114 115 112 117 121 122 125 131 133 134 133 134 136 135 134 134 133 130 131 128 128 128 128 130 130 130 127 127 126 126 124 123 121 122 121 120 118 118 120 118 119 120 118 115 112 111 107 104 103 104 102 104 104 103 101 101 102 102 103 105 107 109 111  89  93 134 168 174 177 176 178 178 177 177 178 179 178 178 178 178 177 177 176 175 176 177 176 176 176
  80  93 108 113 116 115 118 120 123 127 130 130 131 132 132 133 133 131 132 130 131 130 128 129 125 126 126 125 125 122 121 122 122 122 121 121 122 119 117 118 119 117 116 118 117 113 110 110 110 105 103 101 100 102 104 102 103 101  99 101 103 104 105 105 108 110  92  95 125 162 174 176 176 178 176 176 176 177 177 178 178 178 177 175 176 176 175 176 176 176 175 176
  80  90 100 110 114 114 115 118 122 127 128 127 130 132 131 131 132 127 126 127 126 125 125 126 125 125 125 119 118 120 120 120 120 119 119 118 119 117 116 114 114 113 113 115 115 115 113 112 109 106 103 102 100 102 102 102 102 102 102 101 103 104 105 105 106 108  98  88 122 154 172 174 177 176 177 177 177 178 177 177 177 177 178 176 177 176 177 176 175 177 176 174
  74  86  97 110 116 116 116 117 121 125 126 125 126 130 129 130 130 128 127 128 125 122 120 123 122 123 119 117 118 120 120 117 118 118 118 116 117 116 114 112 111 112 112 112 113 111 109 106 104 103 103 102 102 101 102 101 101 103 103 100 100 102 106 105 106 106 102  81 100 153 171 174 176 176 176 177 177 176 176 176 177 176 177 175 176 176 176 177 176 176 174 174
  73  86  97 110 115 116 116 116 120 120 124 126 124 124 126 129 129 127 125 126 126 125 123 125 119 119 117 118 116 119 117 114 114 116 117 119 117 118 117 113 112 112 112 111 111 106 103 102 103 103 104 102 102 102 101 102 102 103 103 104 104 105 107 105 106 105 105  80  81 146 168 172 174 176 176 176 176 176 176 176 177 176 175 175 176 176 176 176 176 176 175 175
  69  80  95 104 111 114 115 115 116 118 122 123 122 124 126 125 126 125 124 125 123 124 120 119 119 118 117 119 119 121 120 119 119 118 119 117 115 115 114 112 112 112 113 110 107 106 105 107 104 104 104 102 103 102 102 103 104 105 107 106 107 106 106 105 103 104 104  85  80 127 167 171 174 174 175 175 174 175 176 176 176 175 176 176 177 177 176 176 176 175 175 174
  69  80  93 100 108 110 113 116 116 117 119 124 124 122 123 122 120 123 123 124 124 123 124 124 122 121 121 124 124 123 123 122 121 119 119 119 117 115 115 113 114 113 112 111 110 107 106 107 104 103 103 104 105 104 101 104 106 105 107 105 105 108 106 105 104 103 103  88  80 116 166 171 173 175 174 175 175 175 175 175 176 175 176 176 177 175 175 175 175 176 175 174
  69  79  89  97 104 111 113 113 117 117 118 122 124 123 122 121 119 124 124 123 122 123 127 125 124 124 124 127 128 126 125 125 125 124 124 122 120 117 116 113 112 112 111 110 107 106 105 104 103 104 105 104 105 106 107 108 107 110 110 110 109 109 109 108 107 104 103  89  82 120 164 172 173 173 173 173 173 173 175 175 175 175 175 174 174 174 175 175 174 174 175 174
  69  76  84  93 103 109 112 113 115 118 118 118 119 119 118 118 118 123 124 124 125 126 126 127 125 126 128 128 128 127 127 129 126 126 125 125 122 120 115 114 113 110 110 108 105 103 103 102 101 103 107 107 108 109 109 111 111 112 112 110 108 109 108 108 108 105 103  93  82 128 157 169 172 171 169 172 173 174 175 174 174 175 173 174 174 173 174 174 173 172 173 174
  64  70  81  90  99 106 109 113 116 117 118 115 117 119 118 120 122 125 124 125 125 130 129 129 129 129 129 128 128 129 129 131 132 129 128 127 125 121 119 117 115 113 112 110 107 104 105 104 102 102 106 106 107 110 109 109 110 113 113 110 110 109 111 110 110 105 104 100  84 131 155 169 172 171 171 170 171 173 174 174 175 173 175 173 174 175 174 172 172 172 172 174
  54  66  77  84  96 104 110 111 114 115 116 115 116 120 119 120 123 123 123 126 127 126 129 133 132 132 132 131 132 133 135 135 137 134 130 129 129 126 125 120 115 112 110 111 109 107 106 106 106 106 105 104 105 109 111 113 113 113 110 110 109 109 112 112 111 108 105 102  91 134 157 169 169 171 169 172 170 170 172 172 174 172 174 174 174 173 173 172 173 173 171 173
  48  60  70  80  93 103 108 110 112 112 114 116 117 118 118 119 123 123 124 127 127 131 133 134 136 136 135 134 136 136 136 137 136 133 131 131 132 128 124 121 120 116 114 111 109 108 106 105 106 107 105 107 107 111 114 114 112 107 109 108 106 109 110 111 114 112 108 106 102 137 161 168 169 169 169 171 170 170 171 172 172 174 173 173 174 173 172 170 173 172 172 173
  46  53  66  76  90 101 106 108 108 111 113 113 114 114 116 116 119 120 125 127 127 131 135 137 137 139 138 138 138 136 136 136 135 134 133 133 130 129 126 123 123 120 116 113 111 110 110 110 107 109 109 110 109 113 113 112 111 106 105 106 108 110 111 111 112 111 109 107 101 135 157 166 168 167 168 169 170 169 171 170 170 171 171 171 174 173 173 171 172 171 171 173
  41  48  60  72  87  98 104 108 109 109 110 112 111 114 116 116 120 125 126 128 131 135 138 139 138 138 140 140 138 135 136 134 135 134 133 132 129 128 126 125 121 119 118 116 113 112 112 111 110 109 110 111 111 110 110 112 111 109 106 106 108 108 106 105 107 105 102  96 104 137 157 166 168 166 168 171 171 170 171 170 171 171 170 170 171 172 172 171 171 172 171 172
  39  46  56  72  88  97 104 108 108 109 110 110 112 114 116 117 121 125 128 131 135 138 139 140 139 138 139 138 136 134 135 131 128 130 130 131 128 126 123 122 120 119 117 118 112 112 111 112 113 110 108 108 110 109 108 108 108 105 105 104 105 103 102  96  94  87  86  82  87 125 157 164 167 167 169 170 171 169 170 171 172 171 172 170 172 172 172 170 171 172 171 171
  39  45  55  69  87  98 103 109 108 108 109 111 113 116 117 120 125 128 132 135 138 140 145 143 139 139 138 136 135 133 130 128 125 127 125 125 124 121 121 120 119 120 116 115 113 113 113 110 109 107 106 106 104 105 104 103 104 104 101 102  98  92  84  76  75  69  69  69  74  88 146 163 165 166 168 169 169 168 169 171 170 171 172 171 171 170 170 170 170 171 171 171
  38  45  49  67  87 100 106 108 109 109 109 110 112 116 119 122 127 130 132 135 137 142 147 144 140 139 136 134 134 131 125 124 123 122 122 121 120 117 116 113 112 114 111 112 113 112 111 108 105 104 102 102  99 100  96  96  96  90  84  81  75  74  69  61  59  56  56  58  61  73 113 153 162 163 167 167 169 169 169 170 170 170 170 171 171 171 170 170 170 171 171 170
  36  35  46  67  88 100 106 109 110 110 109 111 113 114 120 123 127 131 132 136 137 141 146 144 142 136 134 132 131 129 124 121 119 119 120 118 114 112 110 107 106 103 101 106 109 109 106 102  99 100  98  94  92  92  86  80  75  69  60  54  49  46  45  43  45  45  47  50  57  63  50  52  81 120 151 163 166 168 168 169 170 169 169 170 171 170 169 170 170 170 169 169
  29  30  45  71  90 101 106 108 108 108 109 111 114 115 120 125 128 133 135 133 134 135 138 137 135 131 129 130 126 123 120 117 116 117 115 110 108 105 104 102 101 102 101 103 104 103 102  98  97  95  93  89  86  83  77  68  59  49  43  40  35  34  31  32  34  39  45  50  56  60  42  30  29  32  54  84 129 155 164 164 168 167 168 168 168 169 170 169 168 169 169 169
  25  29  46  74  93 100 107 107 107 109 109 110 112 116 119 123 127 132 132 124 119 119 120 117 117 116 115 114 107 103 104 107 108 104 101  98  95  95  93  92  94  95  96  97  96  95  95  94  90  88  86  81  77  68  58  51  44  38  32  31  28  27  29  31  35  43  50  55  66  74  65  62  63  67  61  64  62  66  76  96 119 164 167 168 170 169 170 167 167 167 168 169
  24  26  49  79  94 101 108 109 109 108 111 113 114 117 121 122 123 123 119 112 105 101 102  99  95  91  89  91  88  87  88  90  88  81  73  71  68  69  73  78  79  82  86  89  89  90  88  88  86  84  78  72  66  54  46  42  37  33  29  28  27  29  36  42  47  48  47  45  39  36  31  26  24  25  31  29  28  28  29  33  40 149 165 167 167 166 167 166 168 168 168 167
  22  23  47  76  92 101 104 107 109 108 111 116 117 118 114 110 112 106  98  96  94  90  85  81  80  73  69  72  79  77  69  63  55  51  48  46  47  46  51  59  60  67  74  78  80  82  82  80  77  75  72  64  54  45  38  34  31  28  28  33  40  41  37  31  27  25  24  30  34  60  91 106 121 122  95  61  48  33  31  56  74 146 164 166 168 167 167 168 168 167 168 167
  46  34  40  65  86  97 104 105 109 107 108 110 107 107 100  95  93  89  86  79  77  75  72  68  66  64  63  63  58  50  46  43  39  35  35  33  32  34  38  41  47  51  59  64  69  74  75  74  72  70  64  56  48  39  33  30  34  41  39  35  29  24  21  26  30  38  46  59  79 140 159 158 157 159 158 160 124  48  28  40  55 153 165 166 167 167 167 167 168 168 168 167
  52  47  45  45  55  84  98 102 104 105 104  95  90  90  82  81  78  74  71  66  64  63  65  64  64  63  62  57  55  51  49  46  44  39  37  36  36  36  36  38  40  42  47  49  57  66  70  71  67  61  56  47  39  36  42  43  39  32  25  20  22  27  32  36  40  44  48  63  99 148 157 162 159 159 161 160 158  70  30  30  57 160 166 167 167 166 166 167 167 168 166 167
  44  50  51  56  59  52  68  89  94  96  95  88  81  80  76  72  67  65  69  69  72  69  68  66  58  52  44  39  34  31  28  26  26  24  24  23  24  23  23  24  24  28  32  36  46  53  60  61  60  56  51  47  47  47  38  30  23  21  22  28  31  33  36  38  41  46  52  67 102 143 151 154 158 157 161 160 160  86  33  28 101 161 165 166 167 166 167 167 167 166 166 166
  32  50  52  55  60  62  61  54  70  90  88  83  78  74  73  72  74  72  61  51  39  31  25  22  20  18  19  20  22  23  24  25  24  25  26  25  26  25  26  26  25  22  18  19  22  25  32  39  43  46  43  40  32  26  22  19  21  26  28  26  24  23  23  24  28  30  36  46  82 135 148 154 156 157 161 160 159  78  32  33 138 163 163 164 165 166 166 165 166 167 166 166
  28  43  52  54  57  58  57  55  53  50  67  72  73  65  48  39  27  24  20  20  20  25  32  40  46  50  50  50  47  44  42  39  38  37  39  38  38  37  39  40  40  40  37  31  21  19  19  19  19  21  21  21  18  17  17  19  25  25  25  22  21  19  21  24  32  50  50  46  49  82 130 148 155 156 158 161 156  68  32  52 154 163 165 166 164 166 166 165 164 166 166 166
  26  34  48  56  57  57  57  60  53  49  36  32  30  25  21  19  18  19  27  40  56  63  63  59  57  55  53  49  45  43  38  35  32  34  36  38  37  37  38  40  42  45  46  47  43  22  19  18  17  18  18  18  17  16  17  23  26  31  29  24  23  19  21  26  44  60  56  67  84 109 137 146 152 155 154 158 150  62  31  88 159 163 166 166 163 165 165 166 165 165 165 167
  30  36  56  71  71  67  64  60  57  47  28  24  45  59  34  18  20  38  53  54  53  54  51  50  49  46  46  43  38  37  33  30  28  28  28  27  30  34  37  39  43  48  52  54  54  31  18  17  17  18  18  16  15  16  17  26  29  37  35  25  24  23  24  32  52  50  55  70  84 122 142 152 152 157 155 156 144  53  30 124 161 164 164 164 165 164 163 164 165 165 166 166
  33  40  64  82  83  83  77  69  58  46  30  27  67  68  36  22  31  41  41  39  42  50  57  57  51  46  39  33  28  24  24  25  24  27  29  29  31  36  40  43  47  53  58  62  59  33  19  17  18  18  18  16  17  16  18  28  32  35  37  32  27  25  28  39  48  50  63  82  88 115 138 155 156 158 157 155 127  46  46 147 161 163 162 162 162 162 163 164 166 165 164 165
  36  41  74  89  91  89  86  79  74  63  36  20  21  19  18  21  32  34  37  41  42  43  42  38  32  27  23  22  17  18  21  28  33  29  28  29  32  40  46  50  53  58  63  64  58  30  19  18  20  29  34  30  20  17  19  33  37  36  38  39  37  35  39  43  46  50  66  82  92 114 146 154 155 157 158 152 102  42  83 159 160 163 162 162 164 163 164 164 163 164 164 165
  35  48  75  92  98  95  93  88  83  78  56  21  19  16  16  24  35  32  34  33  33  34  34  36  33  24  24  24  16  17  22  29  40  33  32  33  32  38  50  55  59  64  68  66  52  27  19  23  39  67  77  72  37  18  19  33  40  36  36  37  38  39  39  41  46  56  69  83  93 106 144 155 159 159 157 151  76  35 126 161 163 164 163 164 163 163 163 164 163 162 164 164
  39  51  78  96 103 100  98  93  90  86  78  52  19  16  15  28  36  32  32  32  33  35  41  48  43  27  23  18  16  21  25  33  38  31  33  38  42  50  54  59  65  67  71  66  51  23  20  37  97 123 127 119 105  35  19  30  41  41  39  40  41  42  43  48  52  61  72  85  93 104 140 157 157 158 158 131  49  52 149 161 164 163 164 164 163 163 162 164 163 163 163 162
  40  49  78  98 107 106 102 100  98  93  88  76  32  16  16  36  47  43  41  40  39  43  48  53  52  34  25  22  23  24  29  38  38  36  40  49  54  58  62  66  70  74  76  69  48  21  24  83 135 140 142 132 123  89  21  28  47  48  48  48  50  50  52  56  60  70  76  85  92 101 130 154 157 158 154  94  38 103 159 162 162 163 162 163 163 163 163 163 163 162 162 163
  40  46  80  96 106 108 106 105 102 100  96  93  49  18  16  44  64  59  53  47  50  52  54  55  55  54  42  34  30  32  38  40  39  37  44  50  53  60  67  73  78  84  80  65  36  21  42 123 142 145 145 137 126 115  47  24  53  59  58  58  59  62  64  66  70  74  81  86  92  95 118 151 156 156 122  54  51 145 160 162 161 162 163 164 163 162 163 162 163 161 162 162
  38  45  76  97 107 109 108 107 108 105 103 102  77  21  17  48  78  74  65  57  54  54  57  64  64  59  56  54  48  44  42  39  38  40  46  49  54  64  75  82  90  95  76  57  27  24  79 134 144 146 147 142 134 122  91  23  45  69  70  69  69  68  69  70  73  80  84  90  96  94 112 145 154 130  57  37 108 156 160 162 163 162 163 162 162 162 162 161 162 162 161 162
  36  44  67  93 103 109 109 109 110 109 108 106  96  31  18  48  84  82  76  70  63  57  58  56  54  50  47  46  43  41  41  42  46  48  52  60  68  77  86  94 100  94  68  43  23  42 113 138 142 148 150 145 138 128 113  49  21  68  76  76  78  76  75  75  79  84  88  92  95  94 103 138 106  53  39  84 151 159 162 161 160 161 162 162 162 161 161 162 162 161 162 161
  32  43  64  88 100 107 110 111 110 111 108 110 109  56  19  43  88  87  82  78  72  69  65  58  54  53  49  47  48  50  52  55  58  64  69  79  88  96 103 104 102  83  60  30  26  81 126 141 144 146 151 149 143 130 120  88  23  31  73  78  82  82  82  84  84  89  90  94  91  88  79  58  41  41  97 149 155 159 159 158 158 161 160 161 161 161 161 162 161 163 162 162
  33  41  58  83  96 104 109 110 111 111 110 111 112  88  21  31  88  94  89  83  80  77  73  69  64  64  64  63  66  67  69  69  72  80  89  97 104 106 107 102  93  65  41  26  45 110 130 139 143 146 152 154 150 136 124 108  41  22  28  58  73  78  82  85  85  81  80  66  55  41  30  37  82 135 152 155 158 159 161 161 160 160 161 160 160 161 161 161 161 161 162 161
  33  40  55  76  92 103 106 109 110 109 112 111 114 110  38  24  78 101  95  92  89  87  86  86  84  83  80  81  79  78  78  79  86  93  98 103 108 106 100  93  72  43  29  32  93 114 130 135 141 145 153 159 155 141 126 110  74  40  24  22  24  29  37  38  34  31  29  24  28  47  89 140 152 154 158 157 155 158 159 159 161 160 161 160 160 162 161 160 161 161 161 161
  36  38  48  72  87  98 103 108 110 111 111 111 115 114  68  22  56 103 100  96  93  94  93  96  95  93  91  89  88  87  87  90  97 104 106 106 104  96  89  71  40  26  28  68 115 119 127 130 138 144 153 158 154 149 133 117  98  57  48  46  40  37  37  39  38  49  63  76  86  90 122 149 151 156 157 158 157 157 157 157 158 159 161 160 161 160 161 160 161 160 161 161
  42  40  50  67  82  93 100 104 109 109 111 111 116 116 100  26  30  96 106 103 101  99 101 102 101  96  95  92  94  95  98 103 106 105 101  95  91  84  65  37  26  28  53 102 117 119 125 130 135 142 152 159 157 151 135 123 109  74  52  51  54  56  61  65  70  75  82  84  88  93 119 146 151 154 156 155 156 157 159 158 157 156 158 159 160 159 160 160 160 160 160 160
  53  43  47  58  76  88  95 101 105 108 110 111 113 114 113  61  19  51 102 107 105 104 105 108 105 101  98  97 100 105 108 107 101  95  86  79  65  49  33  25  33  50  83 106 113 117 122 129 134 140 147 155 156 150 138 125 114  90  58  56  54  55  58  65  69  74  78  82  86  90 112 145 150 153 155 154 156 157 157 158 158 157 155 156 156 157 158 157 159 160 160 158
  54  45  44  52  68  84  93  96 103 105 106 109 111 111 112 100  30  21  46  90 109 108 109 109 105 103 103 107 110 106  99  87  72  57  45  34  27  25  31  47  53  70  90 102 109 112 117 130 138 142 148 150 152 150 143 129 118 103  69  61  62  62  66  68  71  74  77  79  84  87  96 139 151 151 152 152 155 157 158 158 156 156 156 158 157 156 156 158 158 158 159 158
  57  44  44  47  60  77  87  93 100 102 107 108 109 109 109 107  88  24  19  28  43  65  74  81  81  78  72  61  46  36  31  30  26  23  23  30  39  50  58  60  65  76  88  94 100 108 116 128 132 137 143 147 148 154 149 135 123 113  84  61  63  63  67  68  70  74  78  79  82  82  80 130 149 151 152 153 154 155 156 156 156 156 156 157 157 158 157 158 157 158 156 157
  58  47  42  46  55  68  81  90  96 100 102 106 106 108 109 108 106  98  55  23  16  20  22  24  25  23  23  21  19  18  21  26  39  46  58  64  62  64  66  66  68  75  85  90  97 107 115 121 126 130 139 147 148 155 151 140 126 118 102  68  62  65  68  69  70  70  73  73  82  77  68 111 144 150 153 154 155 154 154 155 155 155 155 156 157 157 159 159 158 159 158 155
  66  48  41  43  48  58  74  84  93  97 102 104 105 105 105 104 106 108 108 106  95  78  67  59  51  54  56  60  62  68  73  72  70  69  66  68  67  70  68  66  68  77  88  94  99 107 116 119 123 131 136 144 149 149 147 138 128 120 105  84  65  68  69  70  71  71  70  74  76  71  64  80 142 151 152 152 154 155 154 154 154 155 155 155 157 155 157 158 157 158 157 157
  70  50  41  38  42  48  68  78  89  96  99 102 104 103 102 103 106 108 107 110 108 108 106 101  97  91  88  85  83  80  78  76  74  72  71  74  73  71  67  67  72  83  96 100 104 109 115 117 120 129 134 141 149 146 139 130 120 114 108  94  71  68  70  71  71  73  72  71  73  62  59  69 119 146 152 151 153 153 153 154 153 154 154 154 154 154 157 156 157 157 155 156
  79  51  41  38  35  42  58  70  83  94  97  98 100  98 102 104 104 106 106 107 107 106 103  98  97  95  91  90  90  87  84  83  80  77  75  76  75  71  65  66  75  87 103 108 109 109 115 120 123 124 128 135 145 139 130 123 116 110 104  94  81  70  70  70  71  71  70  72  68  55  53  66 104 141 152 153 154 153 154 154 152 153 154 154 156 154 157 154 155 156 156 155
  69  51  42  36  33  39  53  61  75  84  92  98  97  97 101 104 105 103 105 107 106 101 101  99  97  97  96  94  93  91  90  89  86  82  78  74  73  68  64  65  71  86 104 111 114 110 112 116 118 120 123 132 137 131 122 112 107 100  93  88  82  75  73  73  71  68  69  70  64  50  51  72  91 134 149 151 151 152 152 154 153 154 153 153 154 154 155 155 155 155 156 155
  64  46  40  33  31  39  42  50  66  79  90  96  96  98  99 102 106 105 105 105 103 101 101  98  98  97  99  98  96  92  90  89  86  83  81  78  73  70  66  64  68  84 103 112 119 117 108 106 106 108 110 115 124 121 111 100  93  88  82  77  77  77  77  76  71  67  67  68  58  42  48  67  95 133 147 151 152 152 151 153 152 153 154 153 153 154 155 154 156 155 154 155
  59  47  37  31  29  35  36  45  57  69  81  91  94  96  97 101 102 101 104 102 101 100 100 100 102 102 102 100  98  95  92  89  87  83  81  76  73  71  69  64  63  82  98 106 114 115 104  96  92  89  90  94  98 103 100  88  81  73  69  66  72  76  79  78  73  69  66  59  48  36  43  58  86 128 146 151 151 151 150 151 153 153 153 153 153 154 154 154 154 153 153 154
  60  48  38  31  30  29  30  37  46  59  73  86  90  92  96 100  99 100  99  98  99 100 100 101 103 103 101  98  97  95  91  88  86  84  78  76  77  76  73  70  61  74  92  98 103 103  96  85  78  71  67  69  75  80  79  74  65  59  64  68  74  76  76  77  77  73  67  53  40  35  36  46  77 119 144 148 150 151 152 152 152 152 152 152 152 153 154 154 154 154 154 154
  66  47  37  31  26  25  25  30  40  49  64  77  84  86  90  96  98  98  94  91  95  98  99 101 102 101  99  95  94  93  92  90  86  82  81  82  82  84  84  80  74  68  80  88  89  81  71  62  57  55  58  61  62  68  68  61  54  54  62  68  74  72  71  73  74  74  65  49  33  31  36  53  83 129 146 148 150 150 150 150 150 151 152 152 153 153 154 153 154 154 153 154
  80  58  38  33  30  26  25  27  33  42  53  69  77  81  86  91  93  93  86  80  92  95  96  95  90  95  95  94  93  92  91  88  85  86  86  90  89  91  92  88  84  74  62  66  64  52  39  36  40  41  45  57  57  56  53  50  47  44  52  63  66  68  66  70  71  71  64  45  31  29  36  58 110 136 146 146 150 149 150 151 151 151 152 150 151 152 153 152 152 153 153 153
  92  63  42  38  31  25  24  25  30  37  49  58  67  74  82  80  88  87  85  87  91  93  95  90  87  91  92  95  93  92  92  91  89  89  93  93  93  94  93  89  86  79  63  55  49  42  35  38  41  43  43  50  52  50  47  44  39  36  46  57  63  61  62  65  66  68  58  42  31  29  36  61 124 137 143 146 148 147 149 150 151 151 150 151 150 152 153 153 153 152 152 152
 107  77  56  40  32  26  25  26  30  39  46  50  60  69  76  79  87  90  85  86  88  89  87  84  87  91  92  95  92  92  93  93  92  95  98  96  98  96  94  89  86  80  63  53  49  47  42  42  42  43  42  40  41  42  39  35  34  33  40  53  57  61  58  57  59  60  55  38  31  28  32  67 119 141 145 148 149 148 148 150 150 150 149 150 151 152 151 152 151 151 152 153
 115  91  70  50  33  25  24  26  27  30  32  40  49  61  66  76  82  87  85  80  82  79  78  80  84  88  91  91  90  91  96  96  97 100  98 102 101  97  94  88  82  74  65  51  41  37  39  40  39  38  38  34  33  35  36  32  30  32  36  49  53  56  58  50  48  50  46  39  31  29  30  48 119 139 144 147 146 148 148 148 147 150 149 149 151 151 149 151 151 150 151 151
 114  96  94  75  39  28  23  24  26  27  28  37  48  52  56  68  74  79  78  75  78  79  77  78  81  84  86  87  91  96 101 102 102  98  96  96  93  94  93  87  76  73  64  52  41  36  36  38  36  36  34  29  29  30  31  30  28  31  34  42  49  46  44  47  46  47  47  42  33  30  29  29  82 139 144 146 147 146 147 148 147 148 147 148 150 148 149 149 151 150 151 150
 110  98  88  89  59  28  23  21  22  27  32  39  42  42  48  55  66  71  78  74  77  78  77  77  79  81  85  89  94  97 101 102  98  94  91  90  88  90  88  84  73  71  58  51  42  38  34  32  31  34  31  30  30  30  31  29  29  30  34  37  39  36  32  35  37  41  42  41  35  34  32  30  57 134 143 144 146 144 145 146 148 148 147 147 148 148 149 150 148 149 150 150
 108 103  94  98  86  38  26  24  20  24  32  27  30  32  40  48  56  63  71  69  73  74  74  74  75  78  84  91  96 101 100  95  90  85  81  81  86  86  85  78  71  71  57  50  47  39  36  35  32  32  29  28  32  34  33  30  30  31  29  34  33  29  29  31  32  34  36  37  40  40  37  27  37 126 140 143 143 144 146 146 146 146 145 147 146 147 148 149 148 148 148 150
 108 104  99 105  87  64  40  23  20  27  32  26  26  29  36  44  50  52  59  64  69  67  65  68  71  76  84  91  97 100  96  89  82  79  78  81  81  81  77  73  69  64  52  47  45  38  39  40  35  32  31  32  36  47  47  39  32  31  29  34  32  29  30  33  32  33  33  35  36  38  38  25  27 108 138 141 143 142 144 144 144 145 146 147 146 146 146 146 147 148 148 148
 103  95 105 112  96  85  56  30  21  26  28  27  28  32  34  38  41  45  50  55  60  59  58  64  67  76  86  92  94  92  83  78  80  78  77  79  74  74  64  63  60  55  51  46  43  39  40  41  38  37  43  47  49  52  48  38  31  28  28  31  31  32  33  31  29  30  30  33  38  38  39  28  19  90 136 140 140 140 142 144 143 144 145 144 144 145 146 146 146 145 146 146
 115  96 102 107 113  94  45  31  23  22  24  27  31  33  33  33  33  37  44  47  49  51  53  59  66  75  84  86  83  77  74  74  74  73  74  69  68  62  52  55  56  52  47  41  39  37  36  42  38  40  45  48  47  40  35  31  29  26  29  32  35  36  36  32  29  26  25  28  28  29  30  26  20  73 132 138 140 140 142 142 142 142 145 145 145 145 146 145 147 147 146 146
 115 107 114 107 108  91  43  27  24  22  23  25  26  28  28  26  29  32  34  38  45  45  49  56  66  75  78  76  70  68  70  72  69  70  66  57  61  48  42  46  51  52  46  38  36  32  30  36  36  35  34  33  33  31  30  29  28  32  38  38  41  40  37  34  31  27  25  27  26  26  28  22  20  46 130 136 138 138 140 141 142 141 144 143 144 144 144 144 145 143 146 145
 116 106 110 112 106  96  63  26  21  22  21  24  24  25  25  24  26  27  28  31  36  39  46  52  62  69  70  67  57  56  66  67  66  62  54  51  47  36  35  37  39  38  36  32  29  28  30  32  32  30  28  28  28  32  35  37  39  42  43  44  44  42  39  32  29  28  25  27  25  25  25  17  18  46 129 136 136 138 140 139 141 140 142 142 142 143 143 143 143 144 144 145
 117 102 107 112 107 105  69  24  21  22  22  20  20  22  24  24  24  25  26  29  28  35  42  48  58  63  66  59  52  51  59  60  58  50  38  40  33  31  28  30  34  37  39  38  34  34  33  33  35  36  37  38  44  45  47  47  46  45  43  46  45  44  40  31  27  23  25  25  28  25  25  16  18  39 130 135 136 138 138 138 140 140 140 141 141 143 143 142 143 143 142 144
 122 109 110 107 104 100  61  25  23  18  19  18  20  23  23  19  20  22  22  23  26  32  36  42  56  60  60  56  47  50  48  57  49  40  34  37  36  37  36  39  46  50  56  57  57  54  55  57  57  54  55  50  55  55  53  51  46  44  43  46  44  44  37  31  28  27  21  23  29  24  20  16  16  29 122 135 136 137 138 138 138 138 140 140 141 141 142 142 142 142 143 143
 121 110 114 108 102 101  69  24  22  20  19  17  18  17  19  18  20  19  20  22  24  28  33  44  53  59  54  51  45  48  48  47  45  38  37  40  43  47  48  50  53  57  58  59  61  62  65  64  64  60  59  54  53  55  51  46  41  42  46  46  46  43  36  31  28  24  27  28  29  23  18  15  16  23 108 132 135 136 138 137 138 138 138 139 139 140 140 142 141 142 142 143
 120 110  96  80  42  39  29  23  20  21  18  18  17  17  19  18  20  19  19  22  25  27  34  42  48  49  45  42  43  43  42  43  46  43  45  48  51  56  58  63  66  65  60  57  55  59  59  61  60  58  56  53  50  49  43  38  37  44  44  45  48  42  34  28  27  25  23  25  31  24  19  16  13  18  72 125 132 136 137 138 137 137 138 138 138 139 139 139 139 140 140 141
 107  38  22  20  20  15  15  18  16  20  19  17  18  17  17  16  16  17  18  18  21  28  35  41  43  43  39  39  41  39  40  48  46  49  52  56  56  60  63  69  72  72  69  65  62  57  53  52  50  47  46  44  43  39  36  37  38  42  44  47  49  44  34  28  29  26  25  24  27  24  18  18  13  15  18  35  99 129 133 134 135 136 137 138 139 138 138 139 139 140 140 142
  37  20  16  15  13  11  11  15  14  17  17  17  17  16  15  13  15  17  17  17  20  26  28  34  37  41  38  40  40  38  42  46  47  52  58  61  61  64  67  69  70  70  68  67  65  60  56  50  45  40  36  35  33  31  31  32  35  42  47  48  47  44  36  29  30  28  27  25  25  22  19  17  13  15  16  18  24  40 110 129 132 134 136 136 138 136 139 138 137 139 139 141
  15  14  12  12  11  10  11  13  12  13  16  16  16  14  14  13  14  15  18  17  18  20  24  28  33  39  36  34  36  38  46  44  47  52  60  67  67  69  70  69  67  67  61  57  54  50  47  43  36  31  27  22  23  28  30  33  36  41  47  49  45  40  43  40  30  27  25  24  23  22  16  17  14  16  17  17  18  20  28  63  81 122 133 135 136 136 137 138 137 137 138 139
  13  13  13  11  10   9  10  12  11  12  13  13  13  12  13  13  14  13  17  22  22  21  22  24  32  37  37  35  41  41  42  43  46  52  61  68  70  73  73  69  65  63  58  51  49  44  41  38  31  30  25  19  22  27  28  31  43  46  48  51  49  42  29  28  32  29  24  21  22  23  18  15  15  13  13  16  16  17  16  20  24  41  81 108 133 135 136 137 138 137 138 138
  14  12  12  11   9   9   9  12  12  14  11  11  11  12  11  13  14  14  15  16  19  21  23  30  37  35  32  36  39  37  38  42  44  49  55  65  70  76  76  72  68  62  57  54  47  45  43  35  33  29  28  22  23  28  30  36  41  49  51  55  54  50  42  31  30  32  28  24  23  22  16  16  13  11   9  13  15  16  15  16  17  20  24  38  96 121 132 135 135 137 137 137
  13  13  12  11   8   9   9  10  12  10  10  10  12  12  14  15  15  13  14  17  22  27  31  34  29  26  30  32  31  36  39  39  40  44  54  65  74  78  75  70  67  65  63  58  51  49  45  37  33  30  29  28  26  25  27  33  41  44  49  52  54  51  47  36  28  30  27  26  23  20  12  11  12  10   9  10  12  13  14  16  16  15  17  21  24  39 119 132 134 136 136 136
  12  13  10   9   9   8   8   7  11   9   9  10  12  13  13  14  13  11  12  19  24  27  25  22  21  22  28  29  29  36  39  38  42  46  53  61  66  64  55  54  60  65  68  67  61  56  48  43  37  32  27  32  31  28  26  30  36  45  47  52  51  53  51  44  35  28  26  24  17  15  12   9  10   9   9   9  10  11  14  14  15  15  15  15  18  21  30  48 108 124 133 135
  11  11  10  10   8   7   6   5   8  11  11  10  13  13  15  13  11  12  14  17  18  18  16  17  19  20  21  25  28  30  34  31  42  43  48  52  53  49  42  41  53  65  72  71  66  62  54  47  38  33  28  35  29  32  32  32  36  40  49  53  54  48  46  47  35  29  28  23  16  14  11   9  10   9   8   9   9  10  11  12  14  14  13  13  16  18  18  21  27  40 103 130
  11  11   9   9   8   6   5   6   8  10  10  10  11  10  10  10  10  13  14  15  14  16  15  15  17  17  20  27  30  26  29  31  37  41  47  50  50  44  40  40  51  60  71  69  67  62  55  48  40  33  28  34  32  31  36  34  37  37  41  45  48  46  37  37  31  31  29  23  15  14  11  11  11   9   8   8   9   9  11  11  12  13  13  14  14  16  17  18  19  23  26  84
  10  11  10   9   6   6   5   6   8   9  12   8   9   9  10  10  10  10  11  15  15  13  13  15  19  22  26  29  25  23  28  31  36  40  47  49  48  41  40  39  51  56  63  62  60  56  52  47  42  35  28  33  35  31  37  36  34  35  43  40  46  49  37  30  30  26  25  20  11   9  10   8   8   8   8   8   9   9   9  11  12  12  13  12  13  14  15  16  17  18  19  22
  11  10   9   9   7   6   5   6   7   8   9   9   8   9  10  10  12  11  11  13  12  15  16  20  24  29  25  19  22  20  30  30  29  40  45  45  44  43  43  41  51  54  54  58  56  55  49  46  43  34  29  33  31  32  35  35  35  35  36  47  46  45  42  31  29  25  23  18  10   8   8   7   8   8   8   8   9   9  10  12  11  11  12  12  13  14  15  15  15  16  16  17
  10  10   9   9   7   4   4   5   6   5   6   9   7   9   9  10  11  11  11  11  12  15  18  25  25  23  19  20  21  24  25  22  28  42  41  42  39  43  41  44  49  51  51  54  54  52  43  44  46  36  30  31  30  33  30  32  32  34  31  44  52  44  40  30  27  25  19  14  10  10   8   7   8   8   8   7   8  10  10  12  12  12  12  12  13  14  14  15  15  14  15  15
  10  10   9   7   4   4   5   6   6   5   6   8   5   6   7  10   9  10  10  10  12  13  14  22  19  18  19  18  23  24  24  28  32  43  37  37  36  38  43  41  45  46  45  46  48  47  38  41  41  35  30  31  29  32  28  28  29  30  30  40  51  44  35  25  26  22  16   8   8   8   7   7   8   7   8   8   8   8   7   9  10  11  11  11  13  12  12  14  14  14  13  13
  10  10   8   5   4   4   4   4   5   6   5   6   6   7   6   8   9   8   9  11  12  14  15  16  16  16  16  15  16  19  25  27  33  35  33  33  33  34  41  35  43  45  42  37  47  42  37  41  42  32  28  31  26  25  30  30  28  31  32  38  45  39  31  23  24  20  15   8   8   8   8   8   8   7   7   8   9  10   9  10  10  11  10  11  12  12  13  13  13  14  13  13
  10  10   8   6   6   4   5   5   6   5   5   6   6   6   7   6   8   9  11  12  13  14  14  13  15  15  14  16  17  21  23  23  26  31  29  31  33  33  32  37  40  41  34  36  46  39  38  39  37  30  28  26  25  27  30  26  23  31  35  35  36  34  29  23  22  17  11   7   8   7   5   8   7   8   7   8   9   9   9   8  10  10  10  12  11  12  12  12  12  13  15  13
   9   9   7   8   6   5   5   5   5   6   5   4   5   6   6   5   8   6   9  11  11  10  12  12  14  17  17  18  18  16  16  17  26  22  24  27  31  28  32  35  35  33  31  37  44  36  37  35  30  31  26  23  24  25  28  25  22  29  31  30  32  29  30  23  19  14   8   5   5   5   6   9   9   7   7   8   9   7   9   7   8   9  10  11  11  11  12  12  12  12  13  11
   8   5   7   7   5   5   4   5   5   5   5   4   5   5   5   6   8   6   6  11  10  12  15  13  12  11  13  13  16  16  16  19  23  23  22  19  25  24  30  28  33  31  30  37  39  33  37  34  27  29  24  20  24  25  24  22  24  26  28  28  30  27  23  23  19  11   8   5   4   5   7   6   7   7   8   7   8   8   9   8   9   9  10  10  10   9  11  12  11  12  10   9
   5   6   8   7   6   6   5   4   5   6   4   5   5   5   5   5   7   8   9  11  12  15  14  13  14  11  13  13  11  10  14  20  22  22  20  18  21  24  27  31  27  30  32  32  29  29  31  30  27  26  18  21  23  21  23  20  20  24  27  25  28  23  18  16  14  11   7   4   4   6   6   6   7   7   7   7   7   8   9   9   9   9  10  10  11  10  11  11  10  11  11  10
   5   5   7   7   5   5   4   4   4   6   5   5   4   4   4   4   5   5   5   8   8  11  12  13  13  11  11  12  13  14  13  13  17  17  16  16  16  22  22  26  22  24  28  28  28  24  27  27  24  21  17  17  17  18  18  15  18  21  25  24  24  21  17  14   9   7   4   4   5   6   6   5   6   7   7   7   6   7   6   8   6   7  10  10  10  10  10  10   9   9  10  10
   7   8   8   7   8   5   4   4   4   6   5   5   4   4   3   4   5   4   5   5   8  10  10  10   9  12  11  12  10  12  13  15  15  15  14  13  15  20  20  22  19  23  26  26  23  23  24  24  22  16  14  16  15  14  14  14  20  20  23  20  19  15  15  11   6   6   4   4   5   5   5   5   4   6   5   7   7   8   7   8   7   8   9  10  10  10  10  10  10  10  10  10
