P2
# Generated by OpenCV 3.4.0
92 112
255
 177 178 178 178 179 179 179 180 180 179 179 179 180 181 182 180 180 181 180 178 177 177 176 176 177 177 177 174 176 175 175 175 176 177 178 177 177 176 180 178 179 179 179 178 180 178 174 176 178 181 180 178 179 181 183 183 180 180 179 180 180 180 179 179 179 178 178 179 178 178 177 176 177 177 177 178 177 176 175 176 176 176 176 175 175 175 174 175 174 174 173 174
 176 176 178 178 178 179 179 178 179 179 180 178 179 180 180 179 179 179 180 177 175 174 176 174 177 176 176 176 174 172 173 176 176 175 175 176 176 173 175 176 178 178 179 177 175 173 177 177 178 178 179 178 179 179 181 180 180 179 179 180 179 179 179 178 179 179 180 178 178 176 177 177 177 178 176 177 177 176 177 176 176 176 176 174 175 175 174 174 174 172 172 173
 177 177 177 178 179 179 179 179 179 178 178 178 180 181 180 179 180 178 178 178 176 175 173 170 173 177 176 175 173 175 176 177 171 176 174 173 172 173 177 174 176 180 180 178 171 169 180 178 177 180 179 178 179 178 176 177 178 179 178 177 178 178 179 179 178 178 180 179 180 178 178 178 178 177 178 179 178 179 179 177 177 178 177 177 178 176 176 175 176 174 173 174
 176 177 177 177 178 178 179 178 178 179 178 178 179 179 179 180 179 178 178 178 176 170 174 171 170 170 170 173 173 175 174 171 173 178 174 170 170 174 175 173 177 180 182 180 168 167 174 179 176 179 179 179 182 181 179 176 178 177 176 176 179 179 180 180 178 178 179 179 178 179 180 179 178 179 179 179 179 178 179 178 177 178 179 178 177 177 177 176 176 176 173 174
 176 177 178 178 179 178 178 178 178 179 178 179 179 180 179 179 178 175 177 173 169 169 170 171 170 168 166 165 171 172 169 170 173 178 174 169 163 177 170 173 177 180 182 176 172 170 166 174 176 178 178 178 179 180 182 174 172 174 176 177 179 180 182 178 177 178 178 179 179 178 178 177 177 177 178 178 178 176 177 177 177 177 177 177 178 177 177 177 176 178 174 175
 178 178 178 178 178 178 180 179 179 178 177 177 178 178 178 177 176 175 173 172 172 171 161 159 157 152 151 159 170 176 170 169 171 173 170 167 149 174 175 170 171 176 180 172 172 169 165 168 173 177 177 178 179 184 182 173 170 175 176 176 177 177 178 177 180 178 178 180 179 180 180 180 178 179 178 180 179 178 178 179 177 177 178 176 176 175 175 175 174 174 174 174
 177 177 177 178 179 179 178 178 179 178 178 177 177 177 176 174 172 167 167 166 168 172 165 150 152 140 138 148 148 160 161 158 158 163 164 153 150 157 178 170 168 171 176 167 170 163 160 157 168 173 176 181 183 184 176 166 169 172 174 168 162 162 168 175 177 178 181 180 181 180 179 178 180 178 179 179 179 179 178 178 178 179 179 178 177 177 177 177 176 176 176 175
 177 178 178 179 177 178 177 178 179 178 177 177 176 174 171 167 164 163 161 161 164 163 156 149 132 124 125 119 124 128 131 128 124 128 136 133 137 144 157 170 161 167 165 139 156 148 147 146 148 167 180 188 188 181 177 176 171 167 163 164 164 166 165 171 177 178 181 182 181 181 181 180 180 181 179 179 179 178 178 179 178 178 178 178 178 177 176 175 177 177 177 176
 178 177 179 177 178 178 177 177 178 177 179 174 174 174 169 171 169 169 164 155 154 152 141 119 106 110 124 117 109 107  99 104  94  92  98 108 105 121 132 140 141 140 147 105 112 122 133 143 137 159 175 179 175 174 180 170 162 165 174 176 175 171 171 171 172 175 178 182 180 181 181 181 181 181 181 181 180 180 181 180 179 179 178 177 176 177 175 177 177 177 177 176
 177 176 177 178 177 177 178 176 177 178 175 175 173 167 166 166 160 149 146 150 149 134 112  95  87  90  95  91  87  85  85  82  82  78  77  86  86  89  96 106 105  99 106  86  84  93 111 117 120 137 157 150 155 167 161 151 151 166 166 170 172 171 170 172 173 174 177 181 180 182 180 182 182 183 184 182 180 180 181 180 181 180 179 179 178 177 177 177 176 176 177 176
 177 177 178 178 177 178 178 178 178 176 175 173 167 167 168 159 149 134 124 118 113 111 101  84  79  81  81  80  80  81  76  76  72  74  72  75  78  80  84  87  87  85  86  81  77  78  83  96 102 107 128 126 137 147 148 151 152 165 166 169 171 172 170 168 169 175 178 179 180 181 182 181 180 182 183 182 182 182 180 182 181 179 180 179 177 178 177 178 177 178 177 176
 176 176 176 176 176 177 177 178 177 173 174 168 167 168 156 149 135 120 116 104  98  90  82  75  70  67  71  70  72  69  70  72  78  82  91  90  96  99 104 105 105  98  92  83  79  74  73  83  87  90 106 111 129 142 141 135 151 155 160 159 163 170 174 174 169 171 175 177 180 181 182 180 179 182 180 180 182 182 181 180 180 179 179 178 178 178 179 178 177 179 178 178
 177 177 176 175 176 177 177 176 174 169 174 167 163 153 142 136 126 126 108  93  87  83  78  76  67  63  59  63  72  78  90 104 118 125 133 136 142 143 143 148 149 147 143 131 111  85  76  76  78  76  86 114 130 131 128 132 150 158 156 161 162 160 163 170 173 173 177 178 177 181 181 183 181 182 180 183 182 181 181 180 180 179 179 179 178 179 179 179 178 178 177 177
 177 176 177 175 177 178 176 175 174 173 167 159 152 144 139 125 117 110  99  85  80  76  71  65  62  63  68  87 109 119 132 143 151 157 161 162 165 165 165 166 167 167 164 160 156 149 132 100  79  76  82 107 120 111 127 139 149 151 147 147 152 156 160 162 165 173 175 179 178 179 181 182 181 180 181 181 181 181 183 180 180 179 178 178 178 179 179 178 178 177 178 178
 177 176 177 175 177 176 172 175 176 169 164 155 144 135 134 125 115 102  89  79  73  66  63  63  77  94 112 133 145 151 157 164 169 172 174 176 176 174 174 173 173 173 170 169 166 163 159 152 134 103  87  90  92 108 132 127 130 136 137 145 151 146 158 159 154 161 171 178 178 180 180 182 181 182 183 182 180 180 179 180 180 179 179 178 179 179 178 177 178 177 178 178
 175 176 177 176 175 173 173 173 168 166 154 146 140 131 129 125 110  95  86  76  69  64  63  78 116 135 146 153 161 166 170 175 179 181 181 179 176 175 175 174 175 171 168 166 165 162 159 159 154 149 128  99  87  96 108 117 123 134 139 145 143 145 145 153 160 155 163 176 180 180 181 182 181 180 182 179 179 178 179 180 178 178 179 179 178 178 179 178 177 179 178 176
 177 177 177 176 176 173 174 168 168 151 143 140 136 136 122 116 110  94  81  62  65  68 101 133 148 157 164 172 176 179 180 182 183 182 183 181 179 178 177 178 175 173 167 165 164 161 160 159 157 155 150 138 116  90  92 102 121 134 136 151 152 145 142 147 151 158 154 170 178 179 180 180 180 180 182 179 179 178 178 180 179 176 175 176 176 176 176 177 177 177 177 177
 177 176 177 176 176 175 171 166 157 144 147 144 145 133 117 115 108  87  70  68  84 127 145 154 167 173 178 182 184 184 185 187 187 188 184 181 181 181 177 177 174 169 166 164 160 160 157 158 158 154 152 147 141 126  97  86 101 118 129 143 154 155 146 143 146 149 152 162 176 178 180 181 181 182 180 178 179 180 179 181 179 178 177 177 177 177 177 178 178 179 178 176
 176 176 178 176 176 173 171 166 144 151 151 150 144 127 113 114  93  77  67  86 139 156 161 171 176 181 184 186 187 189 191 190 187 188 183 181 180 181 177 175 175 168 165 160 157 154 156 155 154 152 148 148 145 141 131  99  98 118 126 126 139 143 147 143 145 150 148 156 170 177 180 179 179 180 179 179 179 179 181 181 180 179 178 178 178 179 179 177 178 178 178 177
 176 176 177 177 176 172 170 164 147 160 144 152 129 117 108  94  87  77  99 145 158 163 169 173 179 182 184 188 191 191 191 188 186 183 182 180 179 177 177 176 174 169 165 160 155 154 153 152 151 149 146 142 142 141 138 134 116 112 117 119 121 130 127 137 140 143 143 157 164 174 178 179 180 180 178 179 181 181 182 180 180 178 178 178 178 178 179 178 178 178 177 176
 176 176 177 177 175 176 169 166 152 164 137 120 112 110 101  90  87 105 143 156 163 166 169 171 176 180 182 185 187 185 185 181 178 178 180 178 175 176 177 176 170 168 164 161 157 154 153 153 150 145 143 139 138 137 136 133 130 113 107 116 114 113 131 126 125 144 152 151 162 171 175 177 179 180 179 180 179 182 180 179 180 178 178 179 178 177 177 177 178 178 176 177
 176 177 176 176 176 175 173 170 158 156 125 113 108 109 103  88 104 141 153 160 162 165 167 170 172 175 178 180 183 181 181 177 175 173 174 174 174 174 172 172 169 166 160 159 157 151 149 147 143 140 139 137 133 132 132 133 131 126 109 114 125 127 110 133 122 124 155 155 161 170 172 176 179 178 180 180 179 179 179 180 179 178 178 177 178 178 178 178 177 177 176 176
 176 176 177 175 176 177 177 176 165 146 111 106 116 111  97  98 138 149 158 161 161 163 164 168 171 173 177 177 177 176 175 176 175 170 171 173 170 170 168 167 163 162 156 154 152 146 146 144 141 139 135 132 133 131 132 134 130 129 124 119 125 124 116 117 134 125 130 145 164 172 171 173 179 178 178 180 178 177 180 179 179 179 179 178 178 178 179 178 178 178 177 176
 177 178 177 174 177 177 177 176 163 123 101 106 122 115  96 129 148 155 158 159 158 160 162 165 168 169 171 173 173 174 173 173 171 169 167 169 167 166 165 160 158 157 151 148 148 144 143 140 138 134 132 132 131 130 130 129 129 128 127 121 110 118 120 114 122 139 122 134 162 172 176 175 175 179 178 178 177 178 177 179 179 178 178 178 178 177 178 177 177 177 177 177
 176 176 176 175 177 177 176 175 147 113  94 110 109  97 115 147 152 154 157 158 158 158 159 162 165 165 165 167 167 170 170 168 168 165 163 165 165 163 162 160 158 155 150 146 146 144 142 139 138 134 130 128 128 127 126 126 128 129 126 125 114 104 109 107 111 126 127 117 151 171 176 177 176 177 179 178 180 180 179 179 178 178 177 178 177 178 177 177 178 178 177 177
 177 178 177 176 178 178 177 174 131  92  97  99  96 105 138 151 153 156 157 158 156 158 158 159 162 162 162 163 166 169 167 169 166 165 164 165 164 160 157 155 153 150 150 147 146 145 143 139 139 135 132 130 128 126 125 125 126 125 125 125 124 106 104  98 104 116 124 117 135 169 176 177 177 178 180 179 179 179 178 179 178 178 178 179 179 179 178 178 177 177 177 177
 175 177 178 176 176 177 177 173 102  85  93  92  92 120 145 151 154 154 152 155 153 155 157 157 159 160 163 163 166 169 166 165 164 164 164 164 160 158 155 154 152 152 151 149 147 148 145 140 138 135 132 131 127 126 126 126 126 123 122 125 125 117  93 105 103 101 110 113 121 163 175 177 178 178 178 178 178 179 179 178 178 178 178 178 178 177 177 177 177 177 177 177
 176 177 177 177 176 177 177 170  89  74  80  84  97 135 147 152 155 154 152 154 154 155 156 157 161 164 166 167 168 170 169 166 164 164 162 163 160 158 156 154 154 151 151 149 148 147 144 141 139 139 135 133 130 127 129 129 128 126 123 124 123 123  91  80 105 107  95 105 116 153 174 177 179 178 177 179 178 178 179 178 178 177 177 178 178 178 177 178 179 178 178 178
 176 177 177 176 176 178 177 158  75  69  73  79 113 137 147 152 155 152 151 153 154 156 158 162 165 169 169 170 172 174 170 167 165 163 160 161 157 155 154 150 150 153 153 151 150 149 148 146 146 142 139 136 133 132 133 130 128 126 124 122 122 120 110  79  84  91 104  98 108 139 172 177 177 177 177 178 179 178 179 179 178 178 178 178 178 178 177 176 179 178 177 177
 176 177 177 176 176 177 176 136  67  69  75  87 127 142 148 151 151 149 151 153 158 160 160 165 169 169 173 176 178 178 175 170 167 164 163 161 157 157 155 154 153 150 153 155 153 154 155 154 152 148 144 141 136 135 135 132 128 126 124 122 120 119 117  94  78  86  87  94 116 127 171 177 177 178 179 178 179 178 178 179 179 178 178 178 178 177 179 177 177 178 177 176
 177 178 178 177 177 178 174 131  66  74  79 107 135 144 147 149 147 149 152 155 158 162 163 166 168 172 178 180 178 178 177 174 170 167 164 161 158 156 154 155 156 154 153 150 152 157 158 154 153 150 146 143 138 136 133 133 130 127 122 121 118 115 114 105  78  77  77  81 102 141 163 176 175 176 177 178 178 178 177 178 178 178 179 177 178 177 176 177 178 177 177 177
 177 178 177 176 177 177 175 128  70  78  88 120 140 143 147 147 146 149 152 156 160 166 167 169 170 171 174 179 179 178 178 176 171 170 167 163 161 160 159 155 157 156 157 157 159 161 159 154 150 145 144 142 138 137 136 136 133 130 124 121 116 112 110 108  86  70  76  83  99 122 152 172 175 178 177 179 178 178 178 178 178 177 178 177 178 177 176 177 176 176 177 176
 177 177 176 177 177 177 175 127  80  79  94 128 140 145 146 147 149 151 156 159 164 166 170 171 170 172 173 176 177 176 175 171 169 166 166 164 162 162 160 159 159 158 158 159 161 158 157 154 149 143 142 141 139 142 139 137 138 133 125 120 116 111 109 106  94  69  69  79  94 112 135 163 175 177 176 177 178 178 177 178 178 178 177 178 178 177 177 178 177 176 176 176
 177 177 177 177 177 177 173 115  79  83  95 129 138 142 144 148 149 149 154 160 165 167 171 171 171 170 168 170 171 170 168 166 166 166 164 163 163 163 163 161 159 156 156 156 160 155 154 151 147 144 144 143 141 141 142 141 141 138 129 123 118 112 108 105  98  71  66  68  80 108 116 153 171 175 176 177 177 178 177 177 177 177 177 177 177 177 177 177 178 177 177 176
 177 179 178 177 178 177 171  96  78  79 101 128 140 141 144 144 146 151 156 164 166 169 169 169 167 164 165 166 166 162 160 159 156 158 154 160 162 160 159 155 152 151 149 150 149 144 142 144 141 138 139 139 139 136 136 136 137 135 133 127 120 114 107 104 100  74  63  62  70 108 118 140 170 176 176 176 177 177 176 177 176 176 177 175 177 177 177 177 177 177 176 175
 178 178 177 178 178 174 154  97  74  78 105 129 136 140 140 142 148 154 161 169 169 167 167 166 163 158 160 160 158 154 150 148 147 147 147 154 155 156 150 146 145 146 139 140 138 132 125 120 113 110 109 112 116 118 115 117 120 121 120 119 113 115 109 103  99  74  59  57  60  88 113 132 165 173 176 177 177 177 177 177 177 176 177 176 176 177 177 176 177 176 175 176
 179 178 179 178 178 175 138  91  69  80 103 128 135 136 138 142 150 156 162 166 166 160 159 151 146 147 146 141 136 133 128 133 137 140 142 145 146 145 142 142 140 137 131 128 122 114 101  89  80  78  68  66  67  75  78  84  91  92 100 103 100 104 105 102  98  78  52  52  55  74 102 133 162 172 173 175 176 176 176 176 177 176 177 177 176 176 176 177 176 175 175 176
 179 178 179 178 179 172 116  76  71  77  99 126 134 135 138 143 149 148 147 145 139 134 128 123 125 116 106  97  91  88  94 107 112 122 127 133 135 134 134 133 132 126 120 116  96  88  78  70  62  54  49  46  48  50  53  57  64  67  74  79  82  88  92  98  98  81  51  48  55  66  95 129 161 170 173 174 176 176 176 176 176 175 175 175 177 176 175 176 175 176 175 175
 179 178 179 180 178 172 110  73  69  72  96 122 124 113  99  90  86  71  63  60  55  55  53  59  54  54  58  61  60  63  66  77  84  97 109 118 122 125 123 120 122 119 107  98  79  69  67  59  49  45  43  41  44  44  44  41  41  39  41  40  41  43  42  45  50  51  46  45  51  66  82 117 158 169 172 173 174 176 176 175 175 174 175 175 175 176 175 175 174 174 174 175
 180 180 178 178 178 166 110  76  66  65  60  48  34  36  36  33  34  42  46  49  52  51  48  45  39  38  38  36  33  33  37  43  50  61  80  99 108 115 114 113 113 107  98  84  66  59  54  57  51  43  33  30  29  29  32  34  37  40  42  44  44  43  38  35  27  26  27  26  30  37  43  71 147 170 172 171 174 175 174 174 174 175 174 175 175 175 174 173 175 174 173 173
 178 180 179 179 178 163 107  59  46  34  36  34  32  44  64  81  86  91  92  88  79  68  58  54  50  46  45  42  42  43  43  42  37  31  39  48  64  85 101 106 104  94  84  66  56  50  45  35  29  34  39  43  44  47  49  50  53  56  59  61  62  66  70  68  69  66  49  34  27  28  28  32  75 164 170 171 174 175 174 174 174 174 175 174 175 174 175 174 174 174 171 172
 181 179 178 180 178 169  96  75 188 155  37  36  92 111  94  89  83  79  78  73  69  70  78  75  72  70  68  58  45  45  48  51  52  53  42  32  33  38  39  44  44  46  40  34  29  26  29  47  54  49  51  51  50  51  50  48  49  51  51  56  59  65  73  70  68  72  71  44  35  32  89  72  65 162 166 167 170 172 172 171 174 174 174 174 173 173 174 173 174 173 171 174
 180 179 180 179 177 166  84  50  49  45  32  79 121  92  88  87  82  78  73  69  70  81  90  92  88  85  81  73  58  55  54  57  57  59  59  52  31  31  29  30  29  27  25  25  25  28  64  69  62  54  51  46  41  36  34  31  34  32  35  41  47  55  65  67  72  75  77  42  44  31  28  32  54 157 165 168 171 173 172 170 170 172 173 172 172 174 173 173 174 173 173 174
 181 182 182 181 180 171  91  39  36  33  33 117 103  89  89  87  83  78  67  60  56  62  68  67  66  72  68  63  56  56  58  61  62  63  66  67  36  30  28  29  27  25  25  25  25  40  66  64  58  51  41  34  33  34  37  36  34  32  31  31  34  42  54  60  67  72  80  48  40  38  28  30  66 158 166 169 171 171 171 171 170 170 173 173 173 172 173 173 172 171 173 172
 182 183 182 182 181 171  99  51  32  32  44 122  95  88  84  78  72  65  51  41  32  33  38  42  45  49  46  40  41  46  53  58  62  64  69  74  46  31  30  28  28  26  24  24  25  38  49  49  48  42  34  35  43  44  34  34  34  42  43  35  31  34  41  53  63  66  76  57  40  42  29  25 129 164 165 167 169 168 169 170 170 170 172 172 173 172 173 173 171 171 172 173
 184 184 184 185 182 165  78  64  31  30  51 110  90  79  73  68  60  47  37  32  34  35  33  33  35  48  55  48  41  39  45  52  56  60  69  77  46  31  32  38  51  48  31  24  25  37  49  47  41  38  38  44  50  34  38  39  46  39  58  53  36  31  35  46  58  62  67  61  35  38  30  41 153 161 165 166 168 170 169 169 170 172 170 172 172 172 171 172 171 170 170 171
 185 186 185 184 182 153  70  63  32  28  54  91  80  74  68  58  49  35  34  40  47  36  43  53  35  40  66  59  50  46  46  49  56  62  71  78  42  30  31  70 102 100  61  27  27  34  49  46  41  41  41  51  53  40  40  41  35  42  67  81  49  33  33  42  52  61  63  58  32  36  28  52 146 158 162 165 165 167 168 168 170 171 170 170 170 171 169 171 171 170 170 170
 186 185 186 185 181 141  72  71  33  27  49  81  74  71  63  52  41  34  37  59  50  38  43  36  37  43  76  76  61  55  50  60  67  75  78  79  34  28  88 174 178 165 141  71  30  30  48  46  40  40  46  62  74  46  49  43  42  45  69  84  64  39  33  39  49  59  63  62  31  41  28  72 146 154 158 161 164 166 168 168 169 170 167 170 170 170 170 170 170 170 170 170
 186 186 186 186 176 122  73  79  34  27  45  78  75  70  63  49  38  39  48  80  64  47  44  49  51  61  94  95  78  70  62  68  86  93  91  75  33  45 159 181 183 172 157 132  43  29  52  56  50  50  57  69  81  73  56  50  53  65  85  84  73  48  37  42  50  61  67  68  38  52  27  95 142 153 155 161 165 168 167 168 169 169 168 168 168 168 170 169 170 168 167 169
 184 186 184 183 162 109  74  77  42  27  42  82  78  73  63  51  46  54  75  97  92  74  63  66  76 100 106  94  81  76  83  82  91  98  98  55  31 101 164 179 182 169 159 138  86  29  44  76  78  80  75  74  83  92  92  90  87  86  84  74  68  59  50  48  55  66  72  74  55  61  29 120 137 149 156 160 163 165 165 167 169 168 168 169 169 169 169 167 169 168 168 168
 184 184 183 173 150 112  78  76  61  29  32  84  83  75  67  56  56  65  81  97  98  98  99 100 102 102 101  91  73  77  89  95 102 110  97  37  39 144 163 179 186 172 160 139 118  41  27  75  77  77  78  77  74  79  83  83  83  82  78  71  69  70  68  62  65  72  78  82  83  55  43 110 120 141 156 160 164 163 164 166 168 167 168 168 168 168 167 168 168 168 167 168
 184 184 178 166 156  99  83  96  90  48  30  75  88  79  71  68  71  79  84  90  94  99 105 107 105 102  98  91  81  87  96 108 117 118  71  32  96 153 164 182 194 176 160 143 123  81  29  49  88  95  97  94  92  88  86  84  81  78  76  73  73  76  80  78  80  84  85  87  93  41  75 131 140 137 146 158 162 164 165 164 166 166 166 166 167 166 166 165 167 165 167 168
 183 181 174 167 150  87 106 109  76  72  29  58  93  89  83  83  87  94  94  99  99 100 102 104 104 102 104 103  96  98 104 118 121 106  38  38 139 151 164 182 191 178 158 138 120 105  40  30  81  95  99  97  94  93  92  87  80  77  75  72  74  77  81  88  88  92  90  91  78  32 120 142 151 140 145 150 160 164 164 163 163 165 164 165 166 166 166 164 165 166 166 166
 182 178 172 168 132 101 118 101  87  97  47  36 100 102  99  99 101  97  95  99  99  98 100 107 110 112 116 115 110 112 118 121 120  54  31  91 142 147 162 180 188 178 155 140 123 107  79  26  36  97 100  96  91  90  92  88  83  84  82  78  80  82  85  91  95  97  95  94  49  40 128 137 147 145 152 152 156 163 164 164 162 164 165 165 165 166 164 164 165 166 165 165
 180 175 174 166 117 105 109 103  85 109  98  31  62 112 112 111 104 101 101 103 104 104 110 116 120 121 121 120 116 117 122 121  58  31  52 126 142 151 162 172 190 179 160 141 128 114  96  50  28  37  89 108 103  98  96  92  88  86  86  86  90  94  95  95  98  99  97  66  30  57 115 127 140 146 155 156 153 159 163 162 161 164 164 164 163 164 166 163 164 164 165 164
 177 176 174 158 119 106 102 100  76 114 128  62  34  76 114 114 110 108 112 114 117 117 120 124 124 125 128 127 124 122  87  42  30  47 104 132 145 152 158 171 189 183 162 146 131 116  98  80  44  32  24  51  81 104 108 104  99  94  89  88  90  96  98 101  97  79  50  27  53  72 103 121 138 142 152 156 158 155 162 161 163 162 163 166 165 164 164 164 162 163 163 163
 176 178 176 148 117 102 101  74  69 125 132 128  58  33  56  83  96 106 117 125 127 124 126 127 123 120 109  89  62  36  27  52  69  90 119 132 144 148 156 173 188 177 163 149 132 117 103  84  72  52  45  33  22  23  37  49  57  61  60  60  56  54  48  43  30  24  36  68 100  74  89 114 137 139 145 149 154 153 159 161 163 161 162 163 163 163 164 163 162 162 161 162
 176 175 172 147 114 107 106  65  71 128 135 135 134 107  62  38  34  38  40  45  49  50  46  43  38  31  31  48  65  86 108  87  92 110 118 133 142 147 152 173 176 172 166 145 132 116 106  89  78  68  62  67  71  63  57  55  47  44  39  40  46  44  47  60  75  96 103 102 105  76  84 103 135 145 151 151 154 156 158 162 161 161 161 161 162 162 162 162 162 161 161 161
 174 172 169 151 110 120 108  66  70 128 136 137 140 143 141 137 130 116 109 100  90  92  98 108 121 130 140 138 124 115 102 104 112 109 117 135 141 143 152 166 167 159 149 138 127 111 104  95  82  74  76  72  71  72  76  84  89  97 102 104 106 105 103  99 102 104 104 103 104  78  75 100 131 145 151 149 152 155 154 160 160 159 161 161 162 162 162 161 162 162 161 161
 174 175 169 149 111 128 111  64  75 125 136 139 144 145 145 144 146 147 145 141 139 141 141 143 140 135 128 124 119 116 118 120 113 107 123 136 140 138 147 157 153 139 133 125 114  99  96  96  91  80  83  86  88  82  78  78  82  84  89  96 100 103 105 101  99 101 102 102 103  80  71 104 134 141 146 151 153 155 153 156 157 158 160 159 160 160 161 161 160 160 160 160
 172 171 166 143 123 128  92  58  76 126 135 140 142 144 145 144 144 142 144 140 141 140 138 136 135 131 128 125 125 126 124 119 109 118 132 132 128 121 119 128 131 124 114 105  93  84  82  87  95  88  83  90  98  97  94  92  91  89  89  92  98  96 100  99  99  99 101 101 101  81  81 122 144 146 145 149 152 155 153 153 155 157 159 160 160 161 160 161 161 160 161 160
 170 170 163 139 124 121  78  65  73 120 133 138 143 144 143 140 140 140 140 140 140 140 141 139 138 134 131 128 131 130 124 114 109 132 136 127 112  98  93 102 111 109  98  87  71  66  69  81  92  94  84  93 102 108 106 104  99 100 101  97  96  95  94  96  99  97  97  98  99  82  90 124 144 148 151 147 151 153 152 153 156 159 159 160 160 161 161 160 160 160 161 161
 170 168 160 140 131 122  87  68  74 116 131 136 139 141 142 136 136 136 136 138 140 142 142 141 137 135 136 135 134 129 118 108 112 135 138 123 103  89  84  87  93  93  84  73  63  59  62  75  88  95  86  89 101 108 110 112 112 112 108 104 101  97  96  93  95  99  96  95  97  78  83 126 143 150 151 150 152 153 152 153 155 157 157 160 161 160 161 160 160 160 160 161
 169 162 157 141 139 126  92  63  70 108 127 135 138 138 136 135 136 138 140 141 142 142 141 141 139 138 139 136 131 124 114 106 112 129 124 110  93  83  84  82  79  82  76  66  63  53  52  62  73  83  81  86  98 106 109 112 112 116 115 111 106 101  97  92  90  93  91  90  93  78  80 117 133 146 149 151 152 152 154 154 154 155 156 156 160 160 161 161 160 160 159 160
 168 163 156 135 140 121  76  60  70 103 126 132 135 138 136 137 139 142 141 142 142 143 142 142 138 134 135 133 126 122 115 105 107 116 102  74  45  37  49  77  75  74  69  62  56  30  27  36  54  68  76  88  98 102 106 108 109 109 110 112 108 100  91  89  88  88  89  88  90  74  77 102 127 145 150 151 153 152 152 153 154 156 155 157 157 157 158 159 160 160 160 160
 167 163 157 134 137 121  85  72  71  94 120 130 133 136 137 137 140 141 142 142 141 141 138 138 133 130 129 127 126 124 117 106  97  96  78  46  30  27  44  63  71  68  62  55  44  33  31  42  50  61  77  89  98 102 104 104 106 108 107 109 107 102  91  86  87  88  85  86  86  66  69  99 122 145 151 152 153 151 152 153 154 156 156 158 158 157 155 155 157 157 159 159
 164 158 148 144 144 125 102  78  70  87 114 128 130 132 133 134 136 137 138 138 137 134 134 133 133 130 128 128 128 126 121 110  93  81  66  52  43  47  66  68  66  56  53  51  48  46  41  49  51  66  81  95 102 105 105 104 105 105 106 105 102 101  94  87  85  83  83  80  78  59  62  95 127 140 150 151 151 150 152 153 153 154 155 155 156 156 157 157 156 157 157 158
 163 157 144 143 149 140 118  74  69  73 107 121 126 131 129 123 129 130 124 133 132 130 130 129 128 129 129 133 133 132 129 117 103  83  60  51  50  59  71  69  62  53  50  50  51  49  44  43  49  67  82  94 103 107 109 108 105 102  98  97  91  95  90  86  83  80  79  77  72  57  56  91 121 132 147 149 151 150 150 152 154 154 155 156 156 157 156 156 157 157 157 157
 161 148 148 147 146 145 104  67  67  69  98 115 120 127 120 114 126 126 121 127 128 127 125 128 129 131 135 138 137 136 130 121 112  92  70  55  51  61  62  66  60  54  54  55  53  49  44  45  51  66  80  92 101 105 108 108 106 102  89  90  88  88  86  82  78  74  72  72  65  56  54  81 102 126 143 148 151 151 151 152 151 152 154 153 154 155 155 154 155 156 157 159
 159 142 154 152 147 146 107  68  60  70  92 107 114 118 117 117 122 116 119 123 124 124 124 128 131 133 138 138 139 136 129 119 110  86  68  55  54  55  55  59  54  50  55  57  51  47  43  41  45  56  74  86  97 104 102 105 106 104  99  91  87  80  81  77  72  69  70  69  62  51  54  80 110 132 145 149 150 149 150 152 151 152 155 153 155 158 155 156 155 155 156 158
 148 147 151 151 144 139 106  68  58  62  75  97 105 113 115 113 110 109 113 115 116 119 123 129 131 136 137 137 138 135 128 114 100  87  66  54  49  51  53  56  48  47  51  53  51  47  43  44  44  58  68  78  91  95  97 100 104 103 100  91  85  78  75  74  67  66  65  63  56  52  48  72 117 136 144 149 150 149 150 153 152 151 154 152 153 155 155 154 155 155 156 156
 147 154 151 149 144 124  98  64  55  57  74  86 104 112 111 104 106 108 111 112 113 116 123 130 135 132 130 131 130 132 124 109  89  78  66  54  49  50  52  52  44  48  51  51  51  50  46  48  48  52  63  70  81  86  86  90  97  97  96  92  81  75  69  68  66  66  59  55  50  48  46  55 108 134 141 145 147 148 150 151 151 150 152 153 154 153 153 154 155 155 154 157
 157 153 153 150 140 116  84  56  51  60  66  81  94 101 103 104 107 107 108 110 112 115 124 131 127 125 121 122 122 125 117 102  84  70  63  55  55  52  49  49  41  51  57  54  57  53  51  49  44  51  63  70  75  78  82  80  88  87  90  87  80  73  65  62  60  60  55  50  42  43  43  51  91 132 142 145 144 147 150 150 152 150 152 152 153 153 154 154 154 155 155 155
 157 149 151 150 134 110  83  49  47  50  62  73  81  94 104 101 104 103 104 104 110 115 124 126 120 114 116 112 113 114 108  94  84  69  65  54  58  57  51  54  52  56  67  76  75  60  53  49  46  51  55  64  67  70  74  75  75  76  78  77  75  69  65  61  55  50  48  46  42  40  39  47  81 121 138 143 145 148 150 149 150 150 151 153 153 153 154 153 154 154 154 154
 156 146 147 141 130  98  83  47  51  50  54  57  68  79  93  92  96  94  96 101 110 116 120 115 114 113 110 103 100  97  96  88  77  69  67  54  72  70  64  77  87  93  94 100  90  73  62  53  49  54  53  56  54  54  56  62  66  63  67  68  67  63  62  59  52  45  43  40  37  34  35  43  72 109 133 142 145 148 149 150 150 150 151 152 152 152 153 153 152 153 154 154
 154 150 149 144 132 103  72  46  47  45  46  50  60  75  85  89  90  90  94  98 109 111 106 111 113 110  99  97  86  83  89  86  78  67  61  53  64  64  59  70  80  87  84  74  62  58  50  48  50  53  54  53  46  42  41  43  49  54  61  63  61  62  57  52  48  40  34  33  34  35  37  42  63 108 128 140 142 146 147 148 150 149 149 151 151 151 153 152 152 153 154 153
 152 151 144 138 128 102  73  45  47  39  44  47  54  69  73  74  78  86  89  97 103  99  97 100 100  87  83  84  62  68  81  80  75  65  57  51  53  61  61  63  61  61  57  54  57  56  53  46  44  44  46  45  43  39  36  34  40  45  50  57  61  58  58  51  43  36  30  26  29  30  31  42  63 108 120 135 139 144 146 147 148 148 150 151 151 151 153 152 152 153 154 153
 151 147 138 136 133 115  69  48  45  42  46  46  49  53  60  66  76  79  88  96  99  89  88  91  82  71  73  66  51  59  69  66  58  50  46  46  51  57  59  55  54  56  53  51  55  54  47  40  34  33  32  34  32  28  26  31  38  43  47  51  56  60  54  49  40  33  29  25  24  27  28  37  70 104 119 130 136 143 144 147 148 148 150 151 150 152 153 153 153 154 154 153
 153 149 144 147 134 120  79  47  38  41  38  43  45  45  50  60  67  72  81  89  91  82  84  77  66  57  60  47  44  41  41  41  46  49  46  47  48  53  56  53  53  50  50  58  59  56  54  47  45  43  37  34  29  28  30  32  40  43  46  47  49  55  52  46  36  30  28  27  24  23  26  32  54  99 122 132 135 137 142 145 146 146 147 149 149 149 152 153 151 152 152 150
 154 152 148 147 136 119  93  60  37  35  37  38  40  41  45  48  56  69  78  87  82  73  71  61  58  49  46  39  34  35  45  61  75  81  82  86  86  85  85  83  83  85  91  89  91  92  90  75  69  67  57  49  43  41  44  42  44  46  45  47  49  53  50  50  39  31  24  26  24  23  26  34  65 105 120 134 135 137 140 142 144 145 147 148 148 150 151 150 150 150 151 152
 156 152 150 146 139 131 112  68  40  37  36  35  35  38  42  43  50  63  72  81  74  65  61  58  58  46  44  47  55  63  69  77  85  85  87  95  99 104 102 102  99  94  99  97  98  95  89  78  72  63  60  57  58  55  55  53  50  50  46  49  47  50  48  40  40  36  29  26  23  20  24  41  80 107 121 131 134 138 140 140 143 145 146 147 146 149 148 149 149 151 150 152
 153 150 147 142 135 132 111  77  47  37  34  32  32  38  40  40  51  56  65  71  67  64  53  60  54  51  54  65  77  88  89  92  92  87  82  85  90  96  96  97  95  91  92  93  89  84  75  68  59  63  68  70  67  64  62  59  59  54  46  42  44  47  47  49  44  39  31  25  24  23  25  38  74  97 116 126 133 136 139 140 142 143 145 147 148 148 148 148 149 149 149 150
 153 150 146 140 132 121 109  88  58  37  31  31  35  32  33  36  44  49  63  68  69  55  55  62  61  62  68  81  90  99 103 104 101  98  98  89  84  81  78  77  77  80  79  76  72  66  62  60  65  69  71  71  69  68  66  66  64  58  52  45  41  42  38  33  30  35  32  24  21  23  26  37  74  98 118 128 133 135 138 140 140 143 144 146 146 146 148 148 149 149 149 150
 151 147 148 142 130 116 112  89  61  36  27  30  31  27  29  33  42  51  65  64  60  51  64  66  66  73  87  96  99 100 102 105 106 102  99  95  92  88  78  74  71  73  71  70  68  69  68  68  66  69  69  70  70  69  74  71  66  60  54  50  43  42  33  31  28  27  31  29  21  23  26  30  75  97 111 127 130 135 136 139 140 141 143 144 145 147 146 146 148 148 150 149
 149 147 145 136 123 116 116 104  65  37  30  27  29  34  35  39  43  52  62  64  53  65  62  65  66  81  94 105 105 104 102 103 100  95  91  86  80  74  65  56  54  51  50  50  51  55  56  58  59  63  65  69  71  73  76  72  68  63  55  48  44  40  38  29  28  29  28  26  22  23  24  26  35  97 110 124 131 133 134 138 139 142 142 141 143 145 145 144 147 147 146 148
 148 146 144 136 118 113 115 101  69  37  31  28  26  28  31  31  42  63  60  54  64  59  60  59  69  82  95 110 110 107 103 101  97  92  86  80  74  67  57  52  48  36  38  46  46  48  53  56  58  63  66  73  76  75  74  72  66  65  60  52  45  36  37  30  24  25  25  24  24  23  24  25  23  90 108 121 130 133 134 135 138 139 140 141 142 144 144 145 146 146 145 147
 149 146 143 138 117 109 117 103  76  41  30  27  26  31  31  37  54  51  46  55  58  58  58  60  68  82  94 111 111 112 108 103  97  90  86  79  72  66  57  53  46  36  31  45  45  47  53  52  60  68  70  73  77  82  78  74  68  58  52  43  46  35  30  26  25  24  23  23  23  22  24  25  21  67 109 116 127 129 133 135 136 138 138 139 142 143 142 144 144 145 146 146
 146 143 142 136 121 109 114 106  87  40  27  26  28  31  34  44  44  38  45  52  52  60  49  55  67  78  91 103 110 110 110 104  97  92  87  80  75  61  58  47  45  36  34  42  43  47  54  55  58  64  73  76  82  86  78  76  69  61  53  49  43  41  33  24  21  19  23  23  22  25  23  25  23  49 109 114 125 129 133 134 136 137 138 138 139 142 143 142 144 144 144 144
 144 143 140 135 120 113 110 109  91  38  27  27  29  27  31  37  35  39  42  49  46  57  55  60  69  73  86  99 104 101 103 101 101  99  90  84  76  66  53  46  44  36  34  37  43  46  55  64  68  67  72  80  82  83  83  79  72  60  52  47  45  39  33  27  21  23  23  25  20  23  23  22  19  32 110 110 124 130 131 133 135 135 136 138 139 139 140 142 142 142 143 144
 142 141 139 135 117 117 115 112  98  46  29  23  25  27  32  34  32  29  35  48  51  55  57  62  70  80  89  89  85  76  78  91 101 100  94  87  77  68  55  45  42  40  35  31  34  40  46  57  68  77  85  85  82  78  73  75  68  56  53  47  43  32  29  29  24  21  23  18  21  21  22  18  18  18  98 105 120 125 128 131 132 134 136 136 138 137 139 139 141 142 143 142
 140 139 138 134 117 118 117 109  95  48  29  26  25  25  30  29  26  25  39  50  49  47  52  54  69  82  81  81  71  60  70  78  99 102 100  95  78  67  53  46  41  44  38  38  34  36  42  50  61  70  78  84  83  81  76  66  61  56  51  44  40  28  27  28  27  24  23  20  18  19  20  18  19  20  83 111 120 124 129 131 131 132 136 137 137 138 137 137 139 140 141 141
 137 138 135 131 120 110 119 110  87  49  31  25  23  26  26  24  26  36  43  44  38  45  48  53  71  74  76  73  67  60  71  78 100 106 101  95  77  72  55  47  51  47  49  40  42  43  48  51  58  66  74  76  77  79  74  68  53  49  51  44  36  30  28  27  25  23  23  24  19  18  20  18  18  20  79 113 119 125 126 129 130 132 134 136 135 137 137 137 138 138 140 140
 136 135 134 129 120 113 113 111  93  58  24  23  25  25  26  27  38  42  45  43  43  46  45  60  68  68  67  70  67  68  78  85  98 102  94  86  76  72  58  51  56  48  52  45  47  48  48  54  53  57  69  69  66  70  75  67  57  44  49  45  42  30  28  26  23  24  24  23  19  17  19  17  17  17  58 111 120 125 126 128 129 129 132 134 135 136 136 137 138 139 140 141
 134 134 132 129 117 120 109 106  94  61  25  26  24  24  26  30  36  41  43  39  42  44  46  58  64  65  73  74  71  72  78  81  91  91  90  78  74  70  64  57  52  47  52  45  48  48  50  50  51  54  63  64  57  54  60  61  59  45  41  40  45  29  25  24  24  24  24  24  20  20  20  14  13  15  47 109 119 123 125 126 128 130 132 132 133 134 135 136 136 138 138 138
 132 130 130 127 116 120 112 105  92  57  26  25  22  24  24  28  37  35  34  34  35  36  45  63  61  61  63  66  65  63  78  78  81  82  82  73  73  67  63  60  56  53  45  44  47  48  50  52  48  51  62  55  54  55  48  54  48  54  43  42  41  29  27  26  26  24  23  26  20  19  18  13  12  15  48 112 118 121 125 125 127 128 130 131 132 133 135 135 136 137 136 137
 129 130 125 123 117 113 112  93  65  49  22  20  18  22  26  27  30  30  27  25  28  38  48  56  43  47  56  60  57  61  67  74  64  79  70  67  71  68  57  52  51  46  44  46  44  47  46  51  52  59  60  49  49  53  48  45  45  44  43  42  39  27  27  25  25  25  24  23  17  16  15  12  12  14  35 103 115 119 122 123 125 128 128 130 132 132 132 134 134 136 136 136
 127 126 123 121  94  63  57  29  22  23  19  17  18  21  24  27  26  26  23  26  32  38  44  39  38  48  54  56  55  61  67  54  60  78  67  66  68  61  55  47  46  38  43  46  42  48  45  51  58  61  55  47  53  51  47  38  38  45  40  36  40  27  25  22  20  18  18  18  19  15  15  13  13  14  19  29  80 112 117 121 124 126 126 127 129 128 131 133 133 135 135 136
 124 123 109  83  26  20  18  16  14  15  18  15  18  22  22  27  26  24  23  28  31  30  36  34  34  43  46  48  53  56  55  56  67  73  68  67  62  51  54  49  45  38  42  47  43  43  42  49  49  56  56  49  49  49  46  31  37  40  31  32  36  32  27  17  17  15  14  17  18  13  12  12  11  13  17  17  17  38  53  90 116 121 124 126 127 127 131 131 132 133 135 133
 121  98  34  20  17  13  13  12  12  13  16  16  20  18  22  27  26  28  26  29  33  29  33  31  33  38  42  49  54  57  53  63  60  64  56  59  54  51  54  47  42  43  41  41  45  43  44  46  51  59  51  53  54  43  39  31  38  35  33  29  25  30  27  23  16  18  17  17  14  12  11  10  12  13  15  13  14  15  18  20  57  68 112 123 125 127 128 129 130 132 133 133
 103  29  17  13  12  12  12  10   9  10  13  14  15  17  25  18  18  18  22  23  28  29  29  30  32  34  38  51  54  50  53  55  54  59  46  55  52  55  45  42  41  40  35  31  41  33  36  44  53  52  48  50  49  47  36  34  40  31  29  27  25  26  28  24  18  16  18  15  13  14  10   9  10  14  13  12  11  13  12  13  18  19  44  67  74 120 126 128 129 130 131 131
  38  19  15  13  12  13  12  11  10  10  11  13  14  17  17  16  22  16  19  22  25  23  24  27  32  32  38  47  45  44  49  50  49  52  41  49  49  47  38  36  36  32  29  32  37  29  35  43  55  44  51  52  40  45  38  31  42  29  27  26  22  23  24  22  18  15  16  16  12  13  10   9   9  11  10  10   9  10  11  13  13  14  16  21  21  38  67  97 119 127 130 130
  20  15  15  13  13  13  11   9   8   7   8  12  13  17  16  21  21  18  19  23  20  19  23  23  33  31  33  36  38  42  45  45  47  37  45  40  51  37  31  28  30  29  31  29  34  32  34  47  52  43  49  44  40  34  31  36  39  32  27  24  21  23  22  17  14  15  14  13  10  11   9   9  10  13   8   9  10   9   9  11  11  13  12  15  16  18  22  26  72 113 121 128
  17  16  14  13  13  12  11  10   8   7  10  13  14  17  22  22  20  22  24  20  18  17  22  26  28  28  31  29  31  40  39  40  44  38  44  38  38  36  32  27  29  29  22  27  31  30  37  46  42  42  40  39  35  29  29  30  39  31  26  19  15  22  20  17  12  11  13  10   8   9   8   9   9   9   8   9   8   9  10  11  12  13  12  13  12  13  15  18  21  27  72 108
  17  14  13  12  12  12   9   9   8   7   6  10  12  13  16  16  19  20  18  19  15  17  23  24  24  25  26  24  30  37  34  37  35  41  41  32  31  29  28  26  26  28  22  27  30  31  38  43  33  35  33  37  32  27  28  27  36  26  24  19  13  17  18  15  10   8   9  10   9   9   8   8   8   9   9  10   8   8   9  10  12  12  13  13  12  13  12  15  16  18  21  27
  15  15  12  12  13  12  10   8   7   6   4   8  12  11  14  17  16  13  18  13  13  18  24  19  22  22  23  23  27  33  32  30  31  34  31  25  30  29  25  24  23  23  23  26  27  30  32  44  31  33  27  35  30  26  28  25  32  22  20  18  16  14  13  15  10   8   7   9   8   9   8   8   8   8   9   9   8   7   9   9  12  11  12  13  12  12  13  13  13  16  17  19
  13  12  13  11  12  12  10   8   7   6   5   8   9  11  12  15  12  14  13  11  16  21  15  15  20  17  21  19  28  27  29  31  29  27  25  25  22  26  26  23  20  24  22  25  24  27  26  32  34  29  25  28  29  24  25  29  30  18  17  17  16  11  12  14  12   8   8   7   8   8   8   8   8   8   7   8   9   8   9   9  10  11  11  12  12  13  13  12  13  14  16  16
  12  12  12  12  11  12   9   9   6   5   6   9   9  10  11  13  10  10  12  14  14  17  15  16  19  15  19  21  25  25  32  28  26  20  21  25  19  20  21  20  20  25  21  23  24  24  26  24  27  23  23  25  27  20  24  29  24  17  15  17  16  11  13  13  15   9   8   9   8  10   8   9   6   6   7   9   9   8   9  10   9  12  12  12  12  12  11  12  12  13  14  14
  13  11  12  12  13  10  10   8   7   5   8   9   9   9  11  10   9   8  10  11  14  16  13  14  15  16  18  19  24  33  28  22  22  16  16  23  18  15  16  18  21  22  21  22  20  19  21  20  24  20  19  22  24  19  24  24  17  16  14  14  15  11  11  13  13  10   8   8   8   8   7   8   8   7   8   8   9  10   8   8   9  10  11  12  12  11  12  11  12  12  13  13
  12  11  12  12  11  10  11   9   4   4   7   8   6   7   9   9   9   8   7  11  12  12  10  11  13  14  15  20  29  25  17  19  18  13  16  18  15  12  15  13  22  19  19  19  18  13  15  16  17  18  18  19  21  22  20  20  16  14  12  14  13   9   9   8   8   8   9   8   8   8   7   8   7   8   9   9   8   9   8   9   9  10  11  11  11  11  11  11  11  11  13  13
  12  11  10  14  13  11  10   6   4   5   9   8   6   9   9   8   9  10  10  10  11   8  11  14  14  13  16  19  18  16  17  17  15  13  13  14  16  11  13  12  21  16  16  21  18  12  11  16  17  17  17  18  17  20  19  16  15  13  14  13  13  10   8   7   7   7   9   8   8   8   7   7   7   8   9   9   9   8   8   7   9  11  11  11  11  11  13  12  12  12  13  13
  12  10  10  12  11  11   6   5   4   5   7   8   8   9   8   7   8   9   9   9   9   7   8   8  10  11  16  17  16  13  13  16  14  11  11   9  12  12  14  19  16  18  13  19  17  12  11  16  14  13  15  18  15  20  18  14  13  12  12  14  11   9   8   7   7   6   7   7   8   7   7   6   7   7   8   9   9   8   7   8   9  11   9  12  10  10  12  11  12  12  12  11
  14  11  10  12  12   8   7   6   5   4   6   6   7   9   8   5   8   7   8   7   8   7   6   5   8   8  12  14  13  13  11  14  13   9  11   9  11  12  13  16  12  13  14  14  13  12  16  14  12  13  13  18  17  15  15  12  11  10  10   9  10   8   9   6   5   5   6   6   4   7   6   5   5   6   6   7   8   7   8   7   9  10  10  10  10  10  10  10  12  12  12  13
