P2
# Generated by OpenCV 3.4.0
92 112
255
 185 184 185 186 185 185 185 185 184 184 185 185 185 186 185 180 175 164 136 106  88  87  87  87  77  74  76  83  89  83  81  78  67  63  62  62  65  65  59  57  52  56  56  54  55  59  57  55  58  62  52  57  62  70  80  72  70  69  62  58  67  62  58  63  70  63  63  64  63  72  79  85  97 119 139 141 149 158 166 167 159 145 162 170 173 175 176 179 180 182 181 183
 185 184 186 186 185 184 185 185 185 185 185 185 186 185 185 179 160 132 106  89  81  82  84  92  91  84  83  79  81  83  81  81  71  60  55  60  54  57  61  56  52  50  53  55  56  61  63  60  62  63  61  59  65  68  73  75  69  73  66  61  58  58  54  58  66  60  58  58  62  70  75  78  95 119 129 130 137 144 155 165 164 163 156 165 170 174 175 179 179 180 179 180
 184 185 184 185 184 184 185 185 184 184 184 184 184 184 183 167 130 104  91  86  84  84  85  89  87  86  84  85  85  79  73  72  70  69  58  54  54  51  52  54  52  53  56  63  66  68  70  68  67  71  74  73  70  74  78  81  77  76  70  65  58  56  52  56  62  60  61  63  62  66  71  78  89 103 130 129 140 140 139 152 161 164 161 158 164 176 177 179 181 182 182 181
 184 184 184 185 185 184 184 184 184 184 184 182 179 180 169 133 104  86  81  83  81  82  89  92  91  88  84  82  83  78  72  67  60  56  57  53  52  57  51  52  55  61  65  70  80  83  79  78  77  80  82  86  89  92  94  95  91  85  79  73  62  56  56  59  64  64  64  64  65  62  68  72  82  94 105 126 144 148 153 153 148 155 158 165 165 168 177 180 178 181 181 182
 184 185 185 184 184 184 184 184 184 184 182 178 177 168 129 110  89  83  83  85  86  89  93  95  99  96  89  82  78  74  70  67  61  58  57  57  54  52  56  63  64  68  71  81  93 100  95  93  91  93 101 100 104 105 117 107 107  98  92  87  73  68  69  68  67  65  67  68  69  64  65  64  72  81  94 108 117 131 145 154 159 152 157 155 160 163 170 178 179 181 182 183
 183 184 185 184 184 184 183 184 184 183 178 177 172 139 107  89  81  85  88  93  97 102 104 102  98  93  88  84  80  74  71  70  69  71  65  64  63  60  66  71  73  83  86  88 101 110 115 110 111 115 118 113 114 120 125 120 125 122 117 108  93  86  83  80  76  75  78  80  78  72  68  66  73  78  87 100 116 111 114 129 149 162 156 162 161 159 168 173 176 179 180 181
 183 183 185 184 184 184 183 183 182 179 179 180 161 118  90  76  75  81  88  92  94 102 104 103 101  98  94  92  88  82  84  83  82  76  71  73  73  74  81  84  89  89  97 106 110 117 125 130 131 133 134 134 130 130 135 139 139 137 132 126 115 108 102  95  88  87  90  88  83  79  72  68  73  79  86  95 102 111 107 110 119 150 162 158 162 167 175 173 176 181 181 183
 184 183 184 184 184 183 184 183 181 183 184 178 155 101  75  71  74  77  79  85  92 100 102 104 105 107 105 105 101 100 100  95  90  84  86  89  86  86  98 102 104 104 110 120 125 136 138 138 141 145 144 145 143 143 144 151 149 147 140 140 131 129 122 110 103  99 100  96  90  87  82  75  73  69  80  87  97  99  97 103 115 135 148 159 153 169 177 177 170 181 182 182
 182 185 184 183 183 183 183 184 182 184 184 177 157  94  74  69  73  74  81  88  97 101 105 113 115 115 113 112 110 112 108 102 100 100 105 103 102 103 109 110 119 121 125 130 138 144 148 148 148 149 152 156 156 157 157 155 158 153 149 147 141 140 134 123 114 107 108 106  99  94  90  86  76  73  71  79  84  95 101 105 108 116 142 151 153 163 175 180 174 177 183 183
 184 184 184 182 182 183 182 183 184 185 182 177 163 100  70  70  70  73  79  91  97 103 107 116 114 120 119 117 120 123 119 114 115 114 117 119 118 120 124 125 128 131 134 139 146 148 153 157 159 161 163 163 163 165 164 160 160 157 155 151 147 142 136 128 121 116 111 111 108  99  96  95  84  72  70  75  78  93  99 104 106 110 118 148 154 155 174 178 176 174 182 183
 182 181 182 181 183 183 182 179 183 184 182 180 165 119  77  68  72  72  82  85  96 106 115 120 118 122 121 123 126 128 126 124 124 127 125 125 127 130 132 137 136 138 141 144 147 154 158 160 163 165 168 167 166 166 166 164 163 159 157 153 148 143 138 133 126 119 115 112 109 104 104 101  95  79  70  70  72  90 104 112 117 107 116 130 151 155 173 181 178 174 178 183
 181 182 182 179 182 183 183 179 182 183 182 180 159  91  75  67  69  70  78  88 101 115 124 121 119 127 125 130 130 133 130 132 133 131 130 135 135 138 140 141 144 145 143 148 151 157 161 163 166 167 164 164 164 164 162 162 162 160 158 152 146 143 139 133 127 122 117 116 112 109 107 105 101  89  74  70  70  75  93 102 133 117 115 127 138 160 166 178 180 178 180 183
 183 183 183 181 182 182 183 182 183 185 181 176 138  78  60  58  71  68  79  91 106 120 123 122 126 130 129 133 134 134 133 137 134 134 139 140 140 140 142 146 148 149 148 152 157 160 161 162 163 162 160 160 158 158 158 158 160 159 153 146 144 139 136 133 127 123 120 117 114 112 110 105 104  99  80  68  66  67  74  90 105 124 109 117 141 161 165 175 178 179 181 182
 184 184 185 183 182 183 184 183 180 180 180 175 128  70  52  54  69  70  80  98 116 123 122 123 127 134 130 132 135 134 136 140 140 142 140 144 144 141 142 146 151 154 153 155 158 162 162 163 162 159 159 157 156 156 156 156 155 153 150 144 140 136 132 130 127 125 121 117 115 112 111 106 104 103  88  70  64  64  66  77  84  94 108 109 131 154 166 176 176 183 183 182
 182 183 184 183 182 183 185 183 180 175 181 179 126  63  50  51  67  78  91 109 117 123 123 122 131 134 130 133 136 134 137 139 139 139 143 145 142 146 149 154 157 157 157 156 158 160 165 163 160 158 156 154 155 153 152 154 149 146 143 141 139 134 132 128 127 125 121 120 116 116 111 109 106 105  96  77  61  59  62  79  85  82  92 108 118 153 173 175 178 183 184 182
 184 184 184 184 184 184 184 184 182 180 184 175 129  63  49  53  66  81  99 112 118 122 125 128 134 133 131 134 139 139 139 137 141 144 149 148 148 149 153 157 157 158 158 159 159 160 160 162 160 157 151 151 151 150 152 149 146 145 140 139 134 130 130 129 127 125 123 119 118 116 113 111 108 104 101  88  64  62  63  86  98  99  99 106 119 154 169 181 181 184 183 182
 184 183 184 185 185 185 185 185 185 181 182 176 104  69  53  57  66  85 104 114 120 123 128 127 132 133 133 136 142 143 145 143 144 148 150 150 149 150 154 156 158 159 157 158 158 158 160 161 159 156 151 148 148 152 153 147 144 144 137 133 131 131 130 128 128 125 126 122 121 118 116 114 110 105 102  93  70  63  60  74 107 121 113 109 122 149 172 180 180 183 183 181
 184 185 184 184 184 185 186 185 184 179 183 176  86  72  58  64  73  91 110 118 123 125 129 128 134 134 136 138 140 143 144 144 146 149 150 150 151 150 152 156 158 159 158 157 158 158 154 156 155 154 150 150 149 152 148 146 142 141 133 133 131 129 128 127 127 125 122 122 121 120 118 116 112 108 103  96  78  59  60  61  76 114 131 118 118 158 177 182 181 183 183 182
 184 184 185 184 183 185 183 184 184 180 180 175  95  69  60  68  78  98 113 120 123 130 133 130 135 135 139 141 142 141 142 145 149 149 148 149 150 151 152 156 156 158 155 156 157 155 153 155 152 150 150 149 148 147 147 145 142 138 132 130 128 125 126 127 125 125 122 122 121 118 117 116 112 108 105  98  86  62  56  57  73  92 129 133 130 162 182 181 181 184 182 183
 185 185 184 185 184 185 185 184 185 182 179 164  93  62  59  68  81 101 116 122 126 133 133 134 138 139 141 141 140 142 142 145 147 145 145 148 149 152 153 154 151 152 151 152 151 151 150 150 148 147 148 148 147 146 146 141 137 133 129 126 125 125 123 123 123 123 122 120 120 118 117 117 114 110 107 102  92  71  57  55  68  97 114 139 135 162 178 181 182 182 182 184
 185 185 186 186 186 186 185 185 185 183 174 148  80  61  60  68  87 105 120 124 127 133 135 139 140 139 139 139 140 139 140 145 146 145 145 148 149 151 149 150 147 148 152 150 149 145 146 146 142 142 142 140 141 141 139 137 134 132 127 125 123 122 122 122 121 120 118 116 117 118 116 113 113 111 109 104  95  79  61  54  62  88 108 124 144 156 177 180 182 180 184 183
 185 185 186 184 185 185 186 186 186 180 168 138  85  60  57  74  87 109 120 126 128 134 137 140 135 138 138 140 139 139 142 143 144 144 145 147 146 146 146 147 146 147 147 145 145 143 144 141 139 139 138 139 136 134 135 132 128 129 126 123 119 119 120 118 118 118 116 114 112 116 114 113 112 110 109 107 101  86  61  53  58  69 103 112 135 150 173 178 180 179 182 182
 186 186 186 184 185 185 185 184 185 180 167 128  78  59  56  69  83 106 121 128 131 133 137 139 136 137 138 139 139 137 138 140 140 142 143 142 142 143 144 146 144 143 143 141 142 140 140 136 136 135 134 136 137 134 132 130 127 125 124 122 116 117 117 118 116 114 116 113 112 112 111 110 111 110 108 108 105  92  70  56  53  58  85 121 128 146 171 178 182 183 181 181
 186 186 186 186 186 187 186 185 185 178 164 106  76  58  55  64  85 109 125 130 133 131 136 138 139 137 136 136 134 137 135 137 137 138 140 139 139 141 142 142 144 142 140 140 138 137 135 133 134 132 132 132 131 132 131 128 123 122 119 112 111 114 116 116 113 113 113 112 110 108 109 109 108 107 107 108 107  98  78  62  53  52  87 120 116 146 169 177 180 180 181 181
 185 185 187 186 186 186 188 187 185 178 155 101  76  55  53  66  87 112 127 132 132 134 137 137 138 137 137 133 134 138 134 135 135 136 138 138 138 139 139 139 137 135 135 136 135 132 131 131 130 128 130 130 132 129 128 126 122 120 117 111 111 113 113 113 112 109 109 107 107 107 108 109 106 105 105 107 110 100  83  61  56  56  86 134 134 150 174 176 180 179 179 179
 184 185 186 185 185 187 187 185 186 179 148 110  76  57  53  67  89 110 124 132 132 136 135 133 135 137 135 132 132 131 131 131 135 135 135 138 137 135 134 135 135 133 134 132 128 127 128 128 128 127 128 128 130 129 126 124 119 114 111 112 110 110 112 110 109 106 106 105 103 105 107 107 104 105 104 106 109 103  86  60  56  58  84 121 145 149 174 177 179 181 181 180
 185 186 186 185 185 187 188 186 184 180 140 120  80  56  52  67  88 107 122 129 130 134 132 135 135 134 133 129 128 128 129 128 128 132 133 136 132 134 132 134 133 129 129 126 123 125 123 124 124 124 126 127 127 126 119 117 114 112 109 108 106 105 106 106 104 104 103 100 101 102 103 102 103 104 105 107 108 106  88  60  54  54  85 104 149 157 169 178 181 178 178 178
 185 186 187 186 187 186 186 187 186 176 145 114  79  55  54  67  83 104 119 128 131 131 132 132 133 133 131 126 126 127 128 127 127 126 127 130 132 133 133 132 129 124 123 125 124 123 121 121 121 121 123 125 122 120 117 115 112 111 108 109 104 105 105 103 100 101  98  99  99  98 100 100 101 100 100 104 105 105  89  60  51  55  69 106 139 162 168 175 177 177 176 177
 187 186 184 186 186 187 186 187 184 174 154 109  73  56  54  59  78 101 120 127 130 131 132 129 130 129 128 124 127 125 122 125 124 125 126 126 128 128 127 126 126 123 122 123 123 120 116 118 121 120 121 120 120 117 114 111 109 105 106 105 101 102 100  98  97  96  97  97  95  96  97  98 100 100  98 101 103 102  89  63  51  54  68  94 131 163 172 176 174 177 178 177
 185 187 186 186 186 188 187 187 183 174 161 124  80  58  51  54  75 100 116 128 132 129 131 129 127 128 126 125 124 125 123 120 124 124 122 121 120 119 123 123 121 123 121 123 120 116 115 118 117 118 115 116 116 114 110 108 105 103 103 101  99  98  97  98  96  95  93  92  91  93  93  95  98  98  98  99 100  99  92  61  52  53  67  88 122 158 172 176 174 176 177 179
 187 187 186 186 187 189 188 187 182 174 165 140  94  62  48  54  72  95 117 126 132 131 131 130 126 124 123 124 122 123 121 119 121 120 117 118 119 121 120 119 119 118 118 118 118 116 117 115 114 113 114 113 113 106 107 105 102 100 100 102  98  99  97  98  95  93  91  91  90  94  94  96  97  95  96  98  97  97  88  57  53  63  65  86 125 149 170 175 175 176 178 178
 187 187 187 187 188 189 189 188 181 174 168 141  96  61  50  52  69  94 118 125 131 130 128 128 122 120 123 124 120 119 122 119 119 118 118 116 118 116 116 116 119 118 117 118 116 114 112 112 112 112 114 112 111 108 108 103 101 100  99  97  98  97  96  96  96  94  94  93  92  95  95  97  97  95  95  96  96  96  90  57  51  64  69  94 135 155 175 176 174 176 178 176
 186 187 187 187 188 188 189 184 170 163 150 117  83  62  50  48  62  91 116 124 128 128 125 125 123 119 123 122 120 121 124 124 121 119 119 120 122 119 117 116 117 118 119 118 115 114 112 114 112 113 114 114 113 109 107 103 102 100  98  98  98  97  95  96  94  96  96  90  92  93  96  98  98  95  94  94  93  94  88  58  56  71  71  98 140 163 173 173 175 174 175 174
 187 188 187 188 188 188 184 172 166 164 136  93  68  55  48  47  61  91 115 123 125 126 125 125 124 121 124 122 124 123 124 125 123 123 126 126 124 122 119 119 118 121 117 116 117 114 114 115 113 113 112 108 105 103 102  99 100 101  98  98  98  97  97  97  96  96  97  93  93  96  97  96  96  96  93  90  89  93  88  57  58  68  75 105 138 160 170 173 174 174 175 175
 188 188 188 188 188 187 177 170 162 152 123  98  70  53  51  48  57  90 115 123 124 126 125 124 124 123 124 124 124 128 129 126 127 128 129 130 130 125 125 123 120 120 117 116 115 114 115 114 113 110 108 106 104 103 102 102 101 101  99 101  98  99  96  96  97  98  97  98  98 100  98  98  96  94  90  90  88  91  88  54  58  72  82 113 151 163 171 174 173 172 174 174
 188 188 188 187 188 183 179 173 163 150 126 110  78  61  54  45  56  97 118 123 123 125 123 122 119 122 124 125 124 126 128 130 130 130 130 132 128 130 129 126 125 123 120 117 115 115 114 113 112 110 108 105 105 104 104 103 102 100 101 100  99  97  97  97 100 100 101 100 100 100  97  96  94  91  90  88  87  92  88  52  59  71  94 139 157 163 169 170 171 171 173 174
 188 188 189 188 186 184 184 168 162 143 136 103  75  65  64  42  58 101 120 123 122 122 119 120 119 120 124 125 126 130 133 134 133 134 132 133 132 130 131 128 127 126 124 118 118 115 113 112 112 109 107 107 104 104 102 102 103 102 103 101  99 101 103 101 102 102 100 100 103 102 101  97  96  94  90  88  87  90  87  49  64  70 105 143 157 167 170 172 172 172 173 173
 188 188 189 188 187 186 182 166 152 142 135  85  68  78  68  39  59 106 120 123 121 119 121 120 119 124 125 126 129 132 134 135 137 137 135 136 136 136 135 135 132 129 125 121 117 115 113 112 110 107 104 103 102 101 103 105 102 105 104 105 105 105 106 106 105 105 106 104 103 103 101  97  97  96  92  88  88  90  85  47  72  75 115 144 157 168 171 172 170 172 173 173
 188 189 188 188 186 185 178 165 149 144 135  77  60  81  78  36  50 107 120 121 121 119 121 123 125 125 128 131 132 134 138 138 139 138 137 141 139 138 137 134 131 132 129 126 122 116 114 112 112 108 106 105 103 103 101 105 105 108 106 109 110 109 107 107 107 105 103 103 102 103 102 100 100  96  91  88  88  90  84  59  84  89 118 144 158 166 171 172 171 172 172 172
 188 188 188 186 185 186 180 163 153 149 128  84  59  78  77  46  44 105 120 122 119 123 122 124 126 128 132 133 135 137 138 139 136 140 139 138 137 137 136 134 134 131 131 128 122 118 113 111 111 109 108 107 105 105 105 105 105 104 108 111 112 110 110 110 107 104 104 103 104 105 103 102  99  96  92  89  89  89  80  81 105 106 133 145 161 164 167 170 171 169 170 172
 189 188 188 187 186 185 183 166 156 148 133  78  65  78  73  46  54  95 117 122 120 119 123 125 128 130 132 134 138 142 140 140 139 139 137 135 134 136 136 134 131 130 130 126 122 121 117 115 112 109 107 105 105 106 105 105 103 102 106 111 111 110 110 107 105 103 103 102 104 105 105 105 101  98  95  90  89  89  79  38 100 124 143 150 162 167 167 168 171 169 172 171
 192 189 190 190 189 186 182 164 162 144 128  76  68  82  78  46  66  87 115 121 120 123 124 126 130 133 132 137 140 143 141 138 137 136 135 134 133 130 132 132 131 131 129 126 124 120 118 113 111 110 109 110 107 106 106 107 108 108 109 114 112 108 105 105 104 102 101 102 103 105 106 105 104 100  94  93  91  90  73  34  43 133 140 149 162 167 167 171 169 170 170 172
 189 190 191 191 190 187 184 168 158 138 118  86  76  88  85  44  73  73 109 118 119 125 126 129 129 134 135 137 139 144 143 136 135 133 133 129 128 128 127 129 128 127 125 123 123 118 117 116 114 110 110 111 108 108 111 111 110 111 111 112 109 108 104 101 100 102 103 102 103 105 104 103 102  98  92  92  91  87  74  29  43  83 145 154 162 168 167 168 170 168 170 169
 191 190 191 192 188 184 179 177 159 146 128 111  83  96  82  49  77  61  96 112 117 122 125 123 128 131 128 125 130 134 137 134 133 131 132 127 123 122 122 123 122 120 119 118 118 116 115 114 112 112 110 112 111 111 108 107 107 109 107 106 108 107 105 102 103 103 102 101 101 100  98  96  93  86  83  85  86  84  68  31  31  47 135 160 160 166 166 167 170 170 169 169
 190 192 193 190 191 186 183 183 169 150 150 128  92  92  73  63  80  66  86 100 105 104 107 107 109 109 111 108 109 115 119 123 125 126 126 125 120 119 118 119 117 114 113 113 111 114 112 110 112 112 110 110 110 108 105 106 104 109 105 106 104 105 101 101 102 100  99  96  95  91  88  83  81  74  70  73  73  72  64  37  33  48  78 153 162 165 165 166 169 169 168 169
 191 190 189 192 195 188 182 184 175 146 174 148  96  84  64  70  79  71  78  88  98  93  91  89  92  90  92  94  99  98  97  99 105 105 106 109 113 114 114 114 112 110 108 107 105 104 101 106 110 110 108 106 103 100 101 102 101 100  99  99  97  97  97  98  95  92  87  82  76  74  70  66  64  60  59  60  63  60  67  77  46  40  50 133 162 164 167 165 167 168 167 168
 191 191 190 193 193 186 185 184 172 145 176 156 103  79  61  79  84  71  74  80  86  87  79  75  75  74  75  78  77  77  77  77  80  84  90  94 101 102 100 102 102 100 100  99 100  98  99 103 104 106 100  97  95  98  94  93  93  94  90  88  88  83  81  78  74  72  71  64  56  58  52  49  50  50  50  51  52  53  64 122  71  41  53  87 162 163 164 166 168 165 166 167
 192 190 190 194 193 186 184 186 170 150 176 160 108  83  61  82  78  82  79  73  74  79  80  74  68  66  61  63  68  67  68  69  72  75  75  71  70  73  70  72  77  79  84  90  91  92  94  98  98  97  96  94  93  92  90  86  85  86  81  73  68  60  54  50  49  47  48  46  43  43  42  42  43  42  46  49  51  57  73 113 135  46  43  70 137 162 162 166 168 168 169 167
 191 191 191 191 191 185 184 183 163 158 170 145 117  79  56  75  79  87  88  73  67  69  75  74  71  67  61  56  56  55  55  54  52  47  46  46  45  43  44  44  47  51  61  70  75  81  85  88  89  88  90  88  87  86  82  77  75  71  64  54  49  42  38  35  30  30  29  30  30  30  32  36  41  43  47  52  57  69  80 108 145  90  46  65 100 157 158 167 166 167 168 169
 190 191 193 191 189 182 180 181 152 164 165 133 120  73  52  79  77 104 105  84  75  72  76  79  84  84  82  72  62  50  46  38  33  32  30  30  31  32  32  31  33  37  43  50  57  65  72  78  81  82  83  82  80  78  70  66  62  50  45  43  36  32  27  27  24  24  25  26  27  31  34  40  44  47  55  60  65  70  85 108 138 135  71  74 100 133 160 166 168 167 167 169
 189 190 191 191 188 182 180 178 148 168 157 146 122  73  52  73  61  87  84  77  81  77  73  71  70  69  67  64  66  73  70  73  63  62  62  59  52  47  43  40  32  30  32  36  42  50  58  67  72  75  75  76  73  71  63  56  49  41  38  34  29  26  25  25  26  27  31  34  38  43  45  49  53  62  65  66  73  83  96 121 128 143 128  88 100 105 153 164 167 167 168 167
 190 187 190 190 188 184 180 171 157 162 167 156 114  76  50  67  24  28  25  24  21  23  22  21  24  21  21  23  24  23  26  27  26  27  31  33  33  34  38  38  44  46  42  41  43  42  44  52  64  71  72  72  68  61  54  46  37  33  30  28  28  32  42  45  52  43  50  55  55  54  50  46  41  36  35  35  32  33  33  33  36  43  48  56  63  75  92 161 167 167 168 168
 188 189 189 190 189 185 178 159 157 172 178 164 106  82  52  67  22  50  79  30  20  21  37  40  37  44  53  53  54  55  54  50  48  43  38  33  29  24  23  20  20  22  23  24  26  35  40  47  50  56  64  64  61  53  46  38  31  33  44  42  43  39  33  27  28  27  27  25  22  23  21  20  22  24  22  21  23  21  21  20  21  24  23  23  25  28  59 162 167 167 169 167
 188 188 189 190 191 182 171 150 168 174 178 156 121  80  59  72  24  28  38  28  24  76  75  64  49  46  53  55  55  55  58  56  54  51  48  45  42  38  37  34  31  29  26  23  18  20  21  24  33  41  52  62  64  62  54  46  39  47  27  28  27  21  18  18  23  27  30  35  38  41  41  45  50  54  47  53  64  75  84  87  98  64  23  25  42  46  82 161 166 168 169 169
 185 186 186 185 182 181 172 159 171 172 165 150 127  95  69  77  34  21  21  21  64  98  88  76  60  46  43  52  60  61  64  62  57  52  48  42  38  36  32  31  30  32  36  39  42  38  26  17  18  22  29  33  40  36  32  29  26  21  17  17  19  24  27  31  36  39  43  47  48  49  49  49  51  50  49  61  71  81  93 118 143 144  46  24  30  29 117 163 166 167 168 169
 184 182 184 185 186 184 164 170 176 176 175 152 134 108  70  76  86  17  20  19  96 107 100  89  73  55  40  34  41  47  52  59  54  48  42  38  36  33  30  28  29  30  39  47  50  52  52  24  18  16  16  16  17  18  18  16  16  17  18  19  21  24  25  28  35  41  45  49  50  50  49  48  44  40  49  66  76  84  94 117 143 150  55  24  23  45 157 165 168 168 167 168
 183 184 185 185 185 184 163 175 177 179 176 164 133  83  68  72 100  36  21  20 104 112 107  99  88  70  50  40  35  36  34  35  33  26  27  28  33  30  26  27  30  37  47  55  60  60  60  44  17  16  15  15  14  15  13  15  16  23  27  26  24  23  20  19  19  20  27  31  34  36  34  32  33  39  53  69  78  84  97 127 143 150  43  24  21 129 161 166 167 166 166 168
 186 182 183 182 182 178 169 174 176 175 171 160 129  74  67  64  96  65  22  23 109 118 116 110 103  87  68  50  43  39  37  31  28  24  25  28  32  32  32  35  43  52  59  64  68  68  65  40  16  16  16  16  16  14  14  14  15  31  33  32  28  28  26  22  19  19  22  25  28  27  29  33  39  50  62  76  82  87  93 123 145 131  35  24  69 158 163 167 167 167 167 168
 180 181 182 181 179 163 174 174 176 172 168 155 136  81  63  61  86  91  20  26 110 122 123 114 112 101  86  72  60  48  40  37  36  35  35  37  34  34  34  40  46  58  68  76  76  72  56  30  17  17  25  34  34  27  18  14  14  37  38  34  29  27  29  33  31  27  28  29  30  30  32  42  47  60  74  82  83  87  93 115 137  94  32  23 135 161 162 166 166 167 167 166
 180 181 180 181 179 161 172 173 172 170 165 149 118  83  60  57  77 104  32  22 102 124 125 122 118 109 100  88  79  63  50  41  38  36  36  35  34  39  46  51  58  67  75  81  80  68  57  20  17  29  70  91  86  71  41  16  15  39  44  42  37  35  32  29  30  31  32  33  34  38  42  52  60  71  81  85  83  88  95 104 126  59  28  70 157 162 162 164 163 166 166 166
 179 180 180 179 166 168 172 173 173 170 162 142 113  81  56  53  63 102  62  22  84 122 124 125 122 115 110 101  93  81  73  59  53  48  48  50  52  54  59  62  70  76  82  84  84  63  37  19  25 102 129 125 115 102  73  20  16  36  49  49  47  46  44  41  37  36  37  40  43  49  54  61  70  75  82  84  83  87  97 116 107  36  25 140 161 163 165 166 166 166 167 167
 180 179 180 178 156 174 175 175 172 170 162 123 108  72  54  49  54  92  96  21  53 121 123 122 123 122 116 110 104  95  86  79  76  72  67  67  68  70  75  82  86  88  90  91  79  60  19  18  72 133 136 134 126 112  98  40  16  30  51  53  54  53  51  50  50  49  51  51  53  61  65  68  75  81  83  81  81  85  96 120  65  28  87 159 164 163 164 164 166 168 166 166
 179 179 179 173 155 174 176 175 171 166 147 118  96  75  56  44  49  82 110  40  26  99 118 122 122 121 117 113 107 103  96  92  91  91  86  84  87  90  91  94  96  97  98  94  70  29  20  44 115 133 138 139 130 121 104  70  19  22  51  59  58  57  58  56  55  56  58  58  59  64  69  72  78  83  82  79  79  86  91  93  37  40 152 161 163 163 165 164 164 166 166 167
 177 177 175 165 160 172 174 174 171 164 146 115  91  73  54  46  49  65 107  90  20  46 106 115 118 120 119 114 111 107 103 102 102 101 102  99 100 101 102 104 102 103 104  71  37  19  31 104 124 137 145 144 138 129 112  87  34  17  39  60  64  64  63  62  62  62  61  62  63  66  68  70  76  81  81  77  79  82  80  49  26 125 160 161 162 162 164 165 164 166 166 167
 177 176 175 159 168 172 175 174 169 161 144 124 105  72  51  45  44  55  95 112  50  23  48  91 115 118 120 116 112 108 109 108 107 106 105 105 104 105 107 109 108 103  63  38  22  24  87 118 130 141 149 146 138 132 116  98  61  18  21  51  66  65  67  67  67  64  65  64  64  67  67  70  75  76  76  74  75  65  50  26  96 158 162 164 161 162 163 163 164 165 164 165
 176 175 175 159 171 173 174 175 170 159 141 133 119  83  56  46  41  51  85 109 102  42  23  36  58  85 101 108 107 103 106 103 102 103 102 102 102 105 102  92  68  42  33  22  27  85 109 121 132 143 149 149 141 130 117 100  77  43  17  22  48  61  66  68  67  67  66  68  65  68  71  70  73  74  70  68  55  39  27  86 155 161 163 163 163 164 163 162 162 165 163 166
 177 175 177 164 172 174 174 174 172 160 143 130 110  75  52  43  37  44  73 103 108 108  72  35  25  38  52  57  58  58  60  57  58  61  63  61  56  48  39  34  29  24  29  42  80 110 112 122 133 144 152 147 142 130 118 102  81  59  36  22  18  26  40  51  59  61  61  63  64  63  62  59  57  54  49  38  28  33 100 142 156 161 161 162 164 164 162 165 163 164 165 165
 175 174 176 170 171 175 174 175 173 158 146 131 116  88  67  48  39  43  59  96 106 109 112 111  97  71  54  39  28  25  28  27  28  27  27  25  27  25  26  31  38  47  55  77 103 110 115 122 131 143 154 150 143 128 114 100  86  63  50  42  36  28  22  18  21  23  28  30  31  33  30  26  25  25  34  42  46  81 141 154 159 161 162 162 161 162 163 163 164 164 163 163
 174 175 176 172 171 173 174 174 172 161 149 128 126 101  72  44  37  38  50  84  99 108 112 113 116 118 114 116 109 106  81  70  61  59  55  56  57  60  62  64  63  64  71  88 101 111 117 126 132 147 154 148 145 131 115 100  90  67  52  48  49  47  47  47  45  43  45  47  49  55  58  63  68  70  67  59  56  72 142 157 157 161 162 162 162 163 163 163 162 162 162 164
 173 175 175 173 173 172 171 172 170 162 152 136 129 120  63  41  37  36  47  72  92 104 108 110 113 117 114 111 108 104  95  91  83  76  76  73  71  70  73  72  71  71  74  86  95 107 119 125 130 143 150 148 143 131 116 104  94  71  53  49  52  54  53  53  58  61  63  67  72  76  78  77  72  70  65  48  50  79 127 151 157 156 160 161 162 162 162 162 162 162 162 162
 172 174 175 174 175 174 175 173 170 163 146 142 134 126  93  46  44  46  47  59  81  98 105 103 104 109 107 105 102  99  96  92  88  86  84  81  79  77  76  76  73  72  76  87  94 106 120 126 129 142 148 145 141 125 116 106  98  78  56  48  54  58  62  62  64  66  67  69  70  74  76  72  71  68  57  44  44  73 117 149 158 159 161 161 161 162 162 161 163 163 163 162
 171 174 175 173 174 173 175 175 175 168 143 150 139 130  99  46  43  44  44  54  74  87  95  96  90 101 104 104 101 100  99  98  93  93  92  89  87  82  78  74  69  71  84  95  98 110 119 122 125 141 146 144 140 127 116 109 101  86  66  48  51  60  63  65  68  69  70  70  71  72  70  68  66  64  48  43  42  64 119 147 155 159 161 161 161 162 162 162 162 162 162 162
 172 173 174 175 174 174 173 174 174 168 149 159 148 124 112  63  46  39  38  50  62  81  92  92  92  97  99 100 100 101 100 100  97  95  90  89  87  83  77  73  69  69  86 101 104 115 116 121 123 136 142 148 144 131 116 111 101  91  76  52  52  57  62  65  68  70  71  72  71  67  65  66  63  54  41  40  42  54 122 147 154 157 158 160 161 161 161 161 161 162 161 161
 170 172 174 175 175 175 174 174 172 169 146 156 156 139 119  75  43  42  51  52  57  74  87  90  91  95  95  92  91  98  97  97  94  90  87  85  82  78  76  76  71  69  88 105 110 114 117 122 126 135 146 148 144 131 121 111 101  92  83  59  55  58  62  65  65  66  69  70  69  67  64  60  56  46  36  35  43  80 128 149 154 156 158 158 158 159 159 160 160 159 160 161
 170 172 174 175 174 173 175 175 174 170 156 153 152 151 130  76  45  48  39  39  43  61  77  84  81  86  84  88  90  95  94  93  92  91  89  88  84  83  84  85  78  72  96 112 112 114 117 120 126 136 145 146 140 130 120 107  98  92  85  72  59  63  65  65  64  65  67  67  66  65  60  54  47  39  31  35  52  82 139 149 152 153 156 158 157 158 159 159 160 160 160 158
 168 171 174 173 174 172 171 172 173 170 160 157 152 148 138  84  52  41  36  32  37  52  67  78  78  81  78  82  87  91  92  91  92  92  91  90  92  93  94  94  92  82  98 112 112 111 116 117 122 132 143 137 132 124 114 104  94  88  84  79  66  68  71  69  68  65  64  62  60  60  54  50  39  32  32  37  50  80 131 146 150 152 154 156 156 159 158 157 158 157 160 160
 167 170 172 173 172 172 172 170 168 167 160 157 154 146 143  95  48  44  38  37  40  46  58  69  72  79  77  79  82  85  89  90  93  95  95  96  99 101 102 102  97  90  96 110 111 105 109 113 119 129 136 130 125 118 110 100  88  80  79  78  68  69  72  72  69  65  60  59  55  52  49  40  32  28  29  32  42  77 128 146 151 153 153 155 154 155 157 157 158 157 159 159
 167 168 169 171 170 170 169 169 167 166 163 159 159 150 139  85  45  40  40  40  40  40  45  53  68  71  74  74  76  81  88  94 100  99 102 104 103 103 104 103  96  91  90  99 100  95  92 100 110 121 125 121 114 109 101  91  79  69  68  68  69  70  70  70  71  66  62  58  53  46  39  31  27  25  26  31  49 101 135 146 150 151 153 153 154 153 157 154 155 156 158 156
 164 167 169 170 167 168 168 167 166 166 163 158 159 155 136  59  45  39  36  34  35  36  39  47  55  60  63  70  75  83  92  98 104 106 104 100 102 102 103 100  92  90  77  75  76  74  72  72  84 102 110 107  95  94  87  74  59  52  54  58  67  68  66  66  66  66  63  60  51  43  33  25  23  23  26  31  49 117 139 147 150 149 151 151 152 153 154 154 154 156 155 155
 161 165 168 168 166 166 166 165 165 164 161 156 153 152 140  50  43  36  33  30  29  33  35  38  44  50  56  66  74  85  96 103 103 101  98  95  95  94  98  95  87  82  70  55  51  48  44  51  62  75  87  87  79  73  64  49  39  38  47  53  59  62  59  62  63  60  59  56  47  38  28  23  21  22  24  29  49 125 139 144 146 148 148 150 151 152 152 153 154 154 155 155
 160 162 164 167 163 166 165 162 161 161 159 157 151 149 122  37  38  34  29  31  29  28  30  33  37  44  52  61  76  88  96  98  96  90  88  87  84  88  90  89  83  74  68  48  40  39  42  45  49  59  66  67  60  53  45  34  30  34  42  47  51  51  49  55  58  54  54  49  42  33  25  19  21  23  22  28  26 120 139 142 145 147 148 149 151 150 150 151 152 153 154 154
 160 162 162 164 162 160 161 160 160 158 158 154 150 144 109  34  35  34  29  28  24  24  26  28  29  37  48  60  72  80  81  80  81  83  82  79  82  82  87  86  76  70  59  48  39  37  39  38  41  46  49  50  47  42  35  29  29  34  38  42  48  49  44  49  50  51  47  43  34  26  24  19  18  21  24  24  22 117 139 141 144 145 145 146 149 149 150 150 151 151 153 153
 158 159 160 160 159 159 159 159 157 156 154 150 144 139  95  32  30  31  27  25  27  24  24  25  29  32  40  55  67  68  66  69  72  75  74  78  72  75  73  75  69  66  57  48  38  35  35  33  37  34  33  36  37  33  29  27  28  34  40  41  41  47  43  39  42  41  43  39  30  22  20  18  17  21  24  22  18  92 137 140 143 144 144 145 147 146 148 149 150 150 151 152
 154 158 158 158 158 158 156 156 154 151 147 143 142 136  99  27  27  28  28  24  22  21  23  24  23  27  40  53  63  63  59  60  68  70  72  68  61  68  59  65  64  55  50  46  38  34  31  33  34  29  31  30  32  31  29  26  27  32  37  39  35  36  39  36  35  38  37  39  32  24  19  19  19  23  25  23  19  75 134 138 140 142 142 143 145 146 147 147 149 148 150 151
 156 155 155 156 154 151 150 149 146 144 143 141 137 134 106  24  25  24  26  20  20  20  20  24  21  29  40  50  58  53  51  57  58  64  60  54  59  45  44  53  55  50  44  43  37  38  37  32  31  28  31  34  33  30  30  28  29  31  31  32  28  28  31  32  31  32  34  34  34  31  25  25  25  23  24  19  18  70 131 137 138 139 142 141 144 144 146 145 146 149 148 149
 150 151 150 150 148 147 145 144 142 141 139 138 137 132  87  24  19  20  22  19  22  21  19  18  25  32  37  42  47  47  50  47  58  50  41  44  42  35  34  43  48  45  41  38  35  40  37  33  39  41  40  49  46  35  31  28  26  29  28  26  25  29  29  30  29  29  29  30  29  33  30  29  25  21  21  16  20  61 131 136 138 139 141 142 142 143 144 145 144 144 147 147
 148 147 147 146 144 144 143 141 139 138 136 134 134 130  99  18  18  20  21  19  20  20  19  20  22  26  32  38  38  47  46  48  48  43  39  39  40  38  37  38  41  41  36  33  30  37  35  38  47  55  53  52  46  37  30  27  26  28  28  28  30  32  34  30  27  27  28  29  33  32  32  31  25  22  17  16  16  42 127 132 136 137 140 139 141 142 143 143 144 144 146 146
 148 146 146 144 142 143 141 139 138 134 134 132 131 109  60  24  21  19  20  23  23  24  23  22  20  24  31  37  41  41  38  39  45  42  44  44  46  46  46  46  48  51  44  35  32  35  35  35  35  38  38  32  32  31  27  23  26  30  28  31  34  35  33  30  26  24  23  25  26  26  25  28  25  19  14  12  14  44 126 133 135 136 138 138 140 140 142 141 142 143 144 146
 145 144 145 143 141 139 139 138 135 131 130 117  96  61  23  21  20  20  22  24  23  22  25  27  27  31  36  37  35  35  36  45  42  46  47  52  54  55  57  56  55  56  58  53  45  42  36  32  31  31  34  32  32  34  29  30  32  31  32  35  36  34  32  29  26  23  20  23  19  19  22  22  20  17  13  11  12  38 124 131 135 136 137 137 138 138 140 140 140 142 142 142
 144 143 142 142 140 139 138 135 126  81  51  23  21  20  16  17  16  17  16  20  18  20  28  36  37  40  36  33  38  41  40  38  39  44  49  57  59  59  63  67  61  57  57  60  63  61  57  49  48  43  50  48  49  48  42  37  33  32  35  36  37  34  30  29  26  23  21  24  20  18  20  18  18  14  11  11  12  17  44 111 131 134 136 135 135 138 139 138 140 142 143 142
 142 143 140 139 138 134 115  75  47  24  20  17  17  15  14  17  16  13  14  17  19  21  24  28  28  25  25  28  33  34  33  37  38  44  49  59  62  65  62  64  66  61  56  54  61  62  61  57  52  48  54  52  50  47  42  36  34  37  36  36  36  33  30  28  24  21  17  22  17  16  16  18  16  12  12  10  12  17  21  31  65 127 132 134 136 136 138 138 140 141 141 142
 142 139 139 137 132 110  42  24  22  18  16  15  16  13  12  13  14  11  14  17  20  18  21  22  21  24  24  26  27  26  36  35  36  42  48  59  66  68  62  59  60  61  58  56  52  53  54  53  51  48  50  48  43  40  36  33  36  36  38  39  35  33  27  24  21  22  22  23  19  16  15  18  15  13  15  10  12  14  18  17  20  47  78 111 132 134 137 138 137 139 141 142
 140 137 137 111  48  23  22  21  19  18  17  15  14  10   9  12  13  12  12  14  17  17  20  19  18  20  21  23  28  31  34  30  33  42  48  56  67  69  64  60  55  52  49  49  49  44  40  40  39  38  39  36  33  31  34  34  35  35  40  39  35  31  26  24  23  21  18  24  18  18  17  19  17  13  12  10  13  11  13  14  17  18  23  26  89 113 134 135 136 138 138 140
 137 132  84  36  22  20  20  18  17  15  16  15  13  10   9  12  13  11  11  13  17  16  18  20  20  24  27  30  32  30  29  26  33  39  46  51  54  55  53  53  54  52  47  42  41  38  32  30  25  24  27  26  28  29  30  33  37  39  41  39  35  29  26  23  22  22  22  21  17  17  17  18  12  11  10  10  10   9  10  13  15  15  17  17  23  29  99 127 133 137 137 138
 126  84  29  24  21  19  18  17  16  15  14  12  10  10  11  12  12  13  12  11  14  15  18  23  27  30  31  27  27  25  27  30  34  42  45  47  46  41  43  51  58  62  53  48  41  36  31  29  21  18  24  24  25  31  30  34  40  42  41  38  31  31  29  24  22  19  20  18  14  16  17  17  11  11   9  10   9   9   9  10  13  13  15  16  16  20  24  36 108 134 135 137
  37  24  22  22  19  18  18  16  15  14  13  11   8  11  12  11   9  11  11  10  13  17  17  22  27  25  23  24  24  25  31  28  28  42  46  46  41  38  44  52  65  62  61  52  44  39  30  27  25  22  25  24  28  32  36  36  37  37  40  41  32  26  28  28  24  21  15  15  15  16  21  17  15  10   9  11  10   9   9   9  10  11  11  14  15  16  17  22  29  46  97 123
  24  22  20  19  16  16  15  15  15  14  12   9   8  11  11  10   9  10  11  11  10  15  18  21  20  19  20  22  24  25  24  26  39  47  44  41  43  39  46  55  63  61  62  53  47  38  29  28  30  27  24  25  31  32  34  38  37  41  38  37  35  28  25  28  25  24  17  16  17  18  17  19  14  10  10  10   9   8   8   8  10  10  11  13  14  13  14  17  19  22  25  39
  20  19  17  16  16  15  15  14  13  14  11   9   9   9  10   9   9  10  11  10   9  13  14  18  19  21  17  18  22  25  28  31  45  41  39  39  42  40  48  50  59  57  58  52  45  38  30  32  31  29  25  24  28  29  33  36  39  37  43  39  36  30  24  26  26  21  21  19  18  20  17  14   9   9   9   8   8   8   8   8   9  10  11  11  12  12  12  15  16  18  21  22
  18  17  17  16  15  13  15  14  13  13  10   8  10  12  11   9   9   9  11  12  12  15  15  22  17  17  19  22  23  25  29  32  34  34  36  36  41  43  47  49  54  53  55  50  48  40  31  33  32  29  30  26  27  28  31  36  40  34  35  40  40  30  25  25  25  20  20  14  14  14  12   9   9   9   9   8   8   8   8   8   9  10  12  12  12  12  12  14  16  16  18  19
  18  17  15  15  15  15  15  14  14  11   9   9   9   9   9   9   9   9   9  10  10  12  14  18  17  15  16  17  21  23  22  31  30  31  33  38  40  39  45  47  44  51  47  44  47  38  32  32  31  30  31  27  28  28  29  34  39  37  34  29  35  25  27  24  25  20  16  12   9   9   8   9   9   8   8   8   8   8   9   9   9   8  11  10  12  11  12  13  13  15  16  16
  16  16  14  13  12  14  14  14  12  10  10  10  10   9   9   9   9   8   8   9   8  10  13  14  17  14  16  16  16  19  24  29  24  27  32  32  36  41  45  41  38  46  41  41  42  36  32  32  29  30  30  28  29  30  31  37  43  39  36  29  30  27  25  21  21  20  16  13   7   7   7   8   7   7   7   8   7   7   8   8   8   9  11  10  11  10  12  13  13  14  15  16
  16  16  16  13  11  13  13  13  10  10  11  11  11  10  10  10   9   7   9   9   7   8  11  11  12  14  14  17  17  19  23  27  23  24  26  28  35  37  38  32  40  44  36  43  40  34  32  31  28  28  28  29  29  29  29  42  44  40  38  29  27  24  24  19  16  17  17  12   8   7   8   8   6   6   8   8   8   8   8   9   8   8   9   9  10  12  12  13  13  13  14  14
  15  15  16  12  11  12  12  12  10  12  10   9   9   9   9   9  10   8   8   8   7   8   8   8   8   9  12  15  14  15  18  21  18  19  24  29  31  34  33  34  44  42  36  43  35  29  30  28  26  28  28  30  26  31  35  48  47  35  35  28  25  23  23  17  13  14  16  11   7   7   7   6   5   6   7   7   8   8   8   8   9  11   8   9  11  12  11  12  12  12  12  12
  16  14  14  13  12  11  11  10  10  10  10  10   9   9   9  11   9   8   7   8   6   5   7   7   8   8  11  16  17  16  17  16  15  17  22  27  30  27  32  36  40  35  37  37  28  32  27  24  24  27  26  25  25  34  41  45  39  35  28  26  24  23  18  15  12  12   9  10   8   8   6   4   5   8   7   6   8   9   8   7   9  10   9   9  11  12  11  11  11  11  12  11
  13  14  14  13  11  10   9   9  11  10  10  10   9   9  10  10   8   9   9   7   6   6   6   6   8   8   9   9  14  13  14  15  13  17  21  25  24  24  30  31  30  28  33  32  29  26  25  25  25  24  25  22  26  31  32  40  33  37  28  22  23  22  15  14   9   8   8   9   8   9   6   4   4   7   6   6   8   9   8   8   8   9  10   9  11  11  11  11  11  11  11  12
  12  13  13  12  12  10   9   9  10  11   9   8  10   9  10   8   8   8   9   6   6   6   5   4   6   7   8   6   8   8  10  18  16  18  18  16  23  24  28  28  26  24  27  28  26  20  22  24  21  23  25  23  25  26  31  32  32  32  27  19  22  18  12  11   8   6   6   6   6   8   7   4   5   6   7   6   9   8   8   8   8   9   9   8  11  12  11  10  10  11  11  11
  12  14  14  12  11  12  12  12  10   7  10   9  11  10  10   8   7   8   9   7   6   6   4   4   6   6   8   5   6   6   9  14  14  15  16  15  22  23  22  22  24  25  24  26  22  18  18  18  16  21  19  19  21  26  31  26  29  24  19  20  21  18  10  10   8   6   6   5   4   5   6   5   6   6   7   6   8   8   8   8   9   9   9   8   9   9  11  10  10  11  10  10
  12  12  11  11  12  11  10  10   9  10   8   8   9  11  10   8   7   9   9   8   6   5   5   5   5   5   5   4   5   5   7   8  10  13  15  16  18  20  17  18  22  23  19  20  18  14  15  16  14  16  17  19  20  24  26  23  23  20  18  15  24  13   8   9   6   5   4   3   4   5   4   6   6   6   4   4   7   8   8   7   9   9   9   8   8  10  11  10  10  10  10   8
  12  11  11  11  10  10  10   9   9   9   9  10  10  11   9   7   7   9   9   7   7   6   4   4   5   4   4   4   5   5   5   7   9  11  14  16  17  18  18  16  16  18  15  15  15  13  14  12  12  14  15  18  21  21  19  16  18  15  13  15  16   9   7   6   7   6   4   4   4   5   5   4   6   7   6   6   8   8   9   8   8   9   9  10  10   9  10  10   9  10   9   9
  11  12  11  10  10  10   8  10  10  10  10  10  10  11   9   6   8   8   8   9   7   7   6   4   4   5   4   5   4   5   5   5   7  11  10  13  18  17  14  11  10  12  11  10  12  12  10  10  11  12  13  12  21  14  13  14  15  12  13  15  10   8   4   4   4   4   4   4   4   5   5   4   6   5   5   5   7   9   9   8   9   8   9  10   9  10  11   9  10   9  10  10
  11  11   8   9  10   9   9  10  10   9  10   9  11  11   9   5   8   8   8   8   8   7   5   5   4   4   5   4   4   4   4   5   8   6   9  12  12   9  11   8   8   9   9   8   9  10  10  11   9   8  10  11  13  14  11   9  14  10  12  11   6   5   4   4   4   4   4   3   4   5   5   5   5   5   6   6   7   8   8   8   8   7   9  10   7   8  10  10   9   9  10   9
   9   8   9   9   9   9   8  10   7   8   8  10  11  10  10   8   9   8   8   8   8   8   6   6   4   4   5   5   5   5   5   4   4   5   7   7   7   8   9   8   7   7   7   8   7   9   9  10  10  10   8   8   8  13  10  11  13  12   9   8   4   4   4   4   4   4   4   4   4   6   4   4   4   5   6   5   6   8   9   9   8   7   8   6   7   9   9   9  10  10   8  10
