P2
# Generated by OpenCV 3.4.0
92 112
255
 185 184 185 185 187 186 186 185 186 185 185 187 185 181 178 176 168 154 122 107  99  85  87  90  87  86  86  79  80  78  70  64  64  56  59  62  59  57  56  62  65  68  70  71  68  69  75  75  77  79  83  85  78  77  73  66  62  55  58  63  66  60  60  65  68  72  81  91 108 122 140 147 148 158 155 163 159 152 162 172 175 179 180 179 181 184 184 183 183 180 180 182
 185 184 185 185 185 186 185 185 185 186 185 186 184 176 175 173 168 137 120 104  93  87  81  78  83  86  82  79  71  71  66  61  61  60  55  56  64  58  61  67  79  82  85  82  79  82  88  94  95 101 103 100  94  89  84  76  66  60  61  63  66  63  63  65  63  68  75  84 103 120 137 148 152 144 151 162 156 160 153 161 169 177 180 177 180 180 179 180 181 180 180 180
 185 185 185 185 185 185 186 185 185 185 184 184 183 177 171 167 151 124 108  94  94  96  95  87  84  84  81  79  73  71  63  57  55  53  61  65  62  66  70  79  93 105 102 100  95 102 109 107 110 114 123 116 116 109 101  93  79  76  74  71  68  69  70  69  64  64  69  79  84 106 129 132 142 140 136 148 156 150 150 161 162 174 182 181 183 184 183 182 180 179 180 180
 185 185 185 185 186 186 187 185 185 184 184 184 183 177 167 151 134 110  88  89  94  95  92  86  84  82  79  82  79  75  63  63  61  62  66  69  71  80  89  94 105 113 121 120 120 125 129 128 127 129 133 133 137 134 132 119 106  99  97  86  80  82  83  77  71  64  67  71  81  92 115 129 127 134 141 144 148 158 156 155 161 171 176 182 181 183 183 184 183 181 180 180
 185 186 185 186 186 186 185 185 185 181 180 178 176 169 147 153 121 101  99 101 102 102  97  92  96  92  89  86  73  66  63  66  72  72  76  84  90  93 103 117 122 130 135 138 143 148 144 147 145 145 145 146 144 144 142 140 131 128 122 108  99  97  97  90  84  78  72  66  76  87 103 113 122 122 120 140 146 152 159 154 155 163 171 177 180 183 183 184 183 181 181 182
 184 185 185 185 185 186 185 185 184 181 181 178 172 152 131 123 105  99 100 105 108 106 106 107 102  98  90  86  83  77  79  83  86  84  93 106 113 116 120 132 144 149 153 150 153 153 157 160 158 157 156 152 152 148 148 145 143 141 135 125 115 112 109 104  93  88  78  70  75  82  94 106 129 130 131 113 123 152 160 153 153 166 173 172 175 181 183 180 180 180 182 183
 184 185 185 185 186 185 185 183 181 184 181 166 149 130 123 107  90  89  98 102 105 105 101 106 102  98  94  93  93  92 100 106 110 113 118 123 130 136 140 147 157 162 164 166 166 164 168 168 161 159 160 158 156 154 151 148 147 144 138 132 127 122 118 115 105  97  93  81  69  76  81  92  98 112 121 127 112 129 150 159 150 166 182 180 171 182 183 184 182 182 182 183
 186 185 186 185 185 185 184 183 184 183 174 161 146 128 102  87  86  96 102 102 100 104 108 111 106 104 106 108 109 114 116 120 125 134 137 139 145 147 151 156 160 167 170 172 172 171 168 168 164 163 161 161 160 159 156 153 149 148 142 139 135 128 122 120 115 107 105  98  77  69  74  84  94  96 107 113 106 116 143 153 156 160 179 184 174 178 183 184 183 184 184 182
 186 186 186 185 185 184 183 184 185 178 176 171 144 108  87  85  89  96 102  98 101 109 113 116 112 118 123 120 123 126 132 136 139 148 150 156 159 158 159 164 168 172 173 175 178 174 170 170 167 165 165 163 164 161 161 158 155 152 147 143 138 134 128 124 122 119 113 107  96  76  70  78  93  96 104 102 126 108 122 148 151 160 170 179 178 177 182 184 184 184 186 185
 186 185 185 185 185 185 182 185 185 179 178 166 116  93  81  79  84  93  97  99 105 113 122 123 124 131 133 130 136 138 145 146 149 149 155 160 166 162 164 167 168 174 172 174 175 173 172 171 170 168 167 167 166 165 164 160 160 154 150 147 140 136 128 124 123 120 117 111 106  93  72  73  79  88 102 109 126 126 111 125 148 166 166 176 182 177 181 183 183 184 185 185
 184 185 185 185 185 184 183 184 184 183 177 148  96  81  74  74  83  93  95 100 115 121 126 129 134 139 136 139 144 144 149 150 152 150 154 159 162 164 165 167 171 173 175 176 175 172 172 170 171 169 168 168 167 164 162 159 158 152 148 144 141 137 132 126 122 120 117 115 112 105  86  73  72  76  93 107 127 139 121 116 134 164 166 175 182 180 184 184 184 184 182 184
 185 185 185 183 185 184 183 185 185 184 174 139  82  71  68  72  84  90  97 113 128 130 132 135 136 139 142 146 150 149 150 153 152 152 157 165 169 168 168 166 168 170 172 174 174 173 171 169 167 167 169 167 165 161 158 155 150 145 145 143 140 137 133 126 122 122 120 117 114 110  99  79  72  76  86  99 107 128 131 118 124 149 169 179 181 179 185 182 185 185 184 185
 185 184 185 184 183 183 183 186 186 183 179 130  77  65  70  72  79  88 105 124 132 135 135 135 137 141 142 142 147 148 153 154 156 157 163 168 169 167 166 166 166 168 170 170 170 171 168 166 165 168 168 166 163 160 153 150 145 145 143 142 141 136 135 130 126 124 122 119 115 113 107  87  67  68  72  81  91  98 122 122 118 147 172 180 179 180 185 184 185 185 185 184
 185 185 186 184 184 184 182 185 183 183 182 120  85  64  70  72  80  96 114 131 133 134 138 137 140 143 144 148 147 151 153 157 158 160 164 166 165 164 164 165 166 166 167 166 167 167 165 165 167 167 165 165 161 157 150 148 146 143 141 141 139 137 132 129 127 125 122 122 120 114 109  98  75  67  65  68  78  84  85 113 118 138 169 180 181 184 186 184 185 185 185 185
 184 184 186 185 184 185 182 183 184 183 170 106  78  56  64  73  81 103 123 128 129 134 139 136 141 143 146 149 151 151 154 158 158 160 164 165 164 164 165 164 166 167 167 167 167 164 162 164 166 163 164 161 158 151 147 143 143 140 140 141 137 135 132 129 127 125 124 123 121 117 113 106  89  67  65  65  89 106  95  89 114 134 171 181 181 184 185 184 186 186 186 184
 186 185 187 186 185 184 184 184 185 184 171 100  62  54  63  71  91 110 124 126 130 139 139 138 142 143 146 148 151 152 153 154 157 161 163 163 163 162 164 165 165 165 165 165 164 160 161 160 161 160 160 156 150 147 144 141 140 137 137 136 135 131 127 125 126 124 122 122 119 119 113 109  98  71  66  68  86 109 116 112 115 136 169 182 183 186 187 184 186 186 185 185
 185 186 187 187 186 187 185 185 185 185 179  88  56  54  57  75  96 116 125 130 133 138 140 142 143 145 146 147 150 150 150 153 157 160 161 161 159 160 163 164 164 161 160 161 159 157 154 154 153 152 153 150 146 146 142 138 135 134 132 133 132 130 124 122 122 124 122 119 118 119 115 111 102  82  65  65  79  96 119 134 119 134 163 179 181 182 186 184 185 186 184 185
 185 185 186 185 186 188 186 184 185 184 180 106  59  54  63  81 102 121 129 136 138 141 142 143 143 144 145 145 149 150 150 152 157 157 156 157 157 157 159 161 161 159 158 157 156 153 150 153 151 149 149 148 144 141 139 137 132 131 129 129 127 128 123 122 122 121 120 118 118 119 117 112 107  93  69  63  64  72  94 126 141 132 167 182 180 184 185 184 186 186 186 186
 186 186 187 186 186 186 185 186 184 181 174 108  68  63  71  85 111 121 130 136 141 144 142 142 142 144 144 146 149 148 149 152 154 151 153 153 155 157 158 156 155 155 155 150 150 149 148 149 147 147 146 144 140 138 136 128 127 128 129 127 125 124 123 121 119 118 116 118 118 116 115 115 112 101  79  63  60  67  90  98 137 146 167 182 183 185 185 185 186 186 186 186
 187 187 187 187 186 187 186 187 184 185 172  86  71  71  71  96 118 126 131 138 144 143 142 142 143 145 143 144 147 147 147 147 149 149 150 153 154 156 155 152 151 150 148 146 146 146 146 147 147 145 145 142 138 134 131 126 123 125 125 124 123 121 120 118 117 115 114 115 116 115 116 115 113 108  91  67  61  64  80 107 112 145 158 181 184 184 186 186 186 185 185 185
 186 186 186 186 187 187 187 186 184 185 175  86  72  70  78 100 122 128 133 139 143 143 143 142 142 141 141 139 143 145 145 146 146 148 149 149 148 146 147 148 148 146 143 142 142 142 142 144 145 144 142 139 135 130 128 124 124 124 123 122 121 117 117 117 113 113 114 115 114 112 111 114 113 114 101  73  62  59  67  91 122 127 150 172 181 184 187 186 185 185 185 185
 187 188 188 188 187 188 186 186 185 184 165  95  68  69  83 106 125 132 136 136 141 144 144 143 139 138 141 140 141 143 145 145 144 146 144 144 146 146 146 145 142 141 139 138 141 140 141 144 143 142 139 132 128 127 124 122 118 120 118 118 117 116 114 110 111 111 113 114 116 114 113 113 116 115 106  83  65  58  61  75 120 119 143 165 182 184 185 185 185 185 184 184
 188 188 188 188 187 187 187 186 185 179 152  88  66  71  86 106 124 134 136 138 142 143 141 144 140 138 138 139 137 141 141 144 146 146 146 146 145 142 140 140 138 138 137 135 138 138 139 142 141 138 135 130 127 124 123 122 119 117 116 114 113 112 110 109 109 109 111 110 112 112 112 111 113 116 108  91  68  63  55  66 117 126 128 167 179 184 184 184 185 185 184 183
 189 188 188 188 187 188 190 188 186 174 149  80  68  68  82 104 127 135 136 141 141 141 141 141 136 135 134 137 135 136 136 140 141 145 145 146 143 139 136 134 136 137 134 133 135 134 137 138 136 134 131 128 124 120 118 119 116 115 115 113 109 108 108 109 107 108 108 108 111 109 109 110 112 113 109  95  68  59  55  65 106 133 133 168 177 182 183 183 183 182 182 185
 188 188 189 188 187 190 189 189 185 177 126  79  63  63  79 107 128 136 136 141 139 139 139 137 134 133 133 136 135 136 135 139 139 141 138 139 138 136 135 134 134 134 132 130 133 133 132 132 130 130 127 124 121 117 116 115 112 113 111 109 106 105 106 104 103 103 104 107 108 107 107 107 110 111 109  96  69  56  57  66  96 139 151 162 177 180 183 184 183 183 182 183
 188 187 188 187 187 188 189 187 184 171 101  75  59  59  80 106 126 134 135 138 137 137 136 134 132 133 133 131 132 132 133 135 134 132 132 136 136 133 133 133 133 133 130 132 129 130 129 129 128 126 120 122 117 114 114 114 111 110 111 109 106 104 103 102 101 101 104 104 104 105 105 106 108 107 108  98  74  55  55  63 101 121 148 162 175 180 182 183 184 182 183 182
 188 191 188 188 186 188 189 187 182 161 105  81  60  60  84 105 122 133 136 137 137 133 132 132 131 131 131 132 130 131 131 127 130 130 132 133 130 131 131 131 130 128 127 126 125 126 125 125 124 123 121 120 116 113 112 111 110 112 108 108 107 104 103 103 104 104 105 105 106 106 104 104 107 105 107  99  75  56  54  61  77 113 153 170 173 177 180 182 182 183 180 182
 187 188 188 189 187 189 190 189 183 158 122  85  61  63  79 101 119 132 135 136 135 133 133 131 129 131 131 130 128 130 130 127 125 127 128 126 128 130 130 129 131 127 126 125 127 126 127 128 127 124 121 116 113 114 111 111 111 109 108 108 106 104 105 105 104 104 105 106 106 107 105 104 104 103 103  97  73  54  51  58  71 106 136 170 174 178 177 178 178 179 180 181
 186 189 189 188 189 190 188 188 184 161 130  80  60  64  73  97 119 129 135 135 135 132 131 127 128 129 130 130 130 130 127 128 129 130 132 128 129 129 129 129 129 129 126 125 125 125 125 125 121 117 116 113 112 112 112 110 110 109 109 108 106 105 107 105 101 102 106 107 107 107 104 104 102 100 100  96  76  51  50  55  76 103 129 162 174 177 176 177 180 179 178 180
 188 188 188 188 189 189 189 189 186 167 114  77  64  57  68  94 117 129 134 133 133 131 127 127 130 128 129 133 133 133 132 135 135 137 134 132 131 129 130 126 127 128 126 126 125 126 122 121 121 116 114 113 114 114 114 108 113 111 109 108 108 107 109 110 107 106 108 109 108 105 104 103 100  97  97  97  77  48  51  60  71  85 129 159 173 176 177 177 178 177 179 178
 187 188 188 189 190 190 190 189 186 170 110  79  63  54  64  88 114 128 130 130 130 129 126 128 128 129 131 133 134 133 134 137 138 139 136 135 136 133 132 132 128 126 126 128 125 124 122 120 117 118 115 115 114 112 111 111 113 111 110 111 110 110 111 110 110 109 109 107 105 105 104 101  99  96  94  95  77  51  50  68  73  98 139 162 173 176 176 176 177 177 177 177
 188 188 188 188 190 190 190 189 184 171 128  94  60  52  59  85 115 127 130 130 129 130 128 129 130 131 133 137 137 137 138 138 138 138 139 138 138 138 135 132 127 129 127 125 123 124 120 121 118 115 115 114 115 113 114 115 112 111 114 114 113 113 113 110 108 109 110 109 106 105 103 100  96  96  94  94  79  51  56  68  76 100 141 166 172 172 174 175 174 174 175 175
 188 186 188 188 189 188 190 188 184 171 141  89  63  52  56  79 113 125 128 128 129 129 127 129 129 132 133 135 140 140 139 140 140 142 142 142 142 140 138 134 130 128 127 124 122 120 117 116 113 112 112 115 119 114 117 118 119 120 117 118 118 116 116 114 112 111 110 110 109 106 105 101  96  94  92  92  81  51  58  71  85 109 148 160 169 173 174 174 175 173 174 174
 187 189 189 187 188 188 189 187 185 172 140  86  63  51  54  78 110 126 127 127 127 125 125 127 129 131 136 140 144 144 144 142 142 144 147 150 147 143 142 140 135 131 128 125 125 123 118 116 116 113 112 112 116 117 118 117 120 119 119 121 119 117 117 112 113 112 112 111 111 107 106 101  97  94  92  92  82  46  60  70  87 122 148 162 170 173 174 175 174 173 175 174
 187 188 189 189 188 189 189 186 182 169 125  93  60  52  52  72 110 124 126 126 124 125 125 129 131 133 136 143 146 145 147 148 146 147 147 148 145 142 143 139 137 134 128 124 122 121 120 119 117 115 115 114 115 115 112 119 120 120 121 120 121 119 116 114 112 110 111 111 110 107 105 102  98  94  91  92  84  44  58  68  94 134 154 165 169 173 173 173 174 172 174 175
 189 190 188 189 187 188 188 181 166 151 109  71  57  52  47  74 113 124 125 124 124 127 128 132 133 137 141 144 146 147 150 149 146 147 146 147 145 144 142 141 137 132 131 128 125 122 119 118 117 116 115 118 117 113 111 114 120 121 122 119 117 116 114 109 110 113 112 114 115 111 107 105 100  96  93  93  85  44  57  68  99 142 159 165 166 170 170 171 172 172 174 174
 188 189 188 188 187 186 179 171 166 149 107  68  56  52  44  74 115 125 124 124 128 128 131 134 138 141 145 148 147 148 148 146 143 144 145 145 144 145 142 140 140 139 132 129 125 121 119 121 120 117 116 119 120 121 120 122 124 123 119 116 115 112 111 111 111 114 114 115 116 113 109 104 103  98  93  91  84  44  59  74 108 137 158 164 168 171 170 171 172 172 173 173
 188 188 189 187 187 184 174 174 162 136 108  70  64  65  44  75 116 124 125 125 127 129 132 136 139 143 148 152 149 149 146 145 143 141 138 140 140 142 142 138 135 135 130 129 127 124 121 121 121 120 120 120 120 120 120 120 120 120 118 115 111 111 112 112 112 112 112 114 116 114 110 104 101 100  96  92  86  41  62  76 108 126 143 162 169 172 170 172 172 172 173 173
 188 188 187 187 187 183 179 174 155 139  92  73  94  85  45  74 119 125 125 125 127 131 136 137 142 146 151 155 152 146 146 144 141 137 136 134 136 136 135 132 131 132 130 128 126 125 121 121 121 122 121 119 118 118 118 119 118 119 117 115 112 112 112 111 109 112 109 111 109 108 102  95  94  95  97  93  89  44  73  87 115 130 150 160 166 169 170 172 171 171 172 172
 188 188 187 189 187 185 181 169 157 133  92  69  98  92  43  60 116 124 124 125 127 134 136 141 142 144 147 152 151 145 143 143 140 132 129 130 132 131 128 126 125 124 126 125 123 123 123 121 122 120 120 118 115 113 114 114 115 114 114 113 110 111 109 109 105 104 101 101  97  91  90  84  83  86  86  87  88  33  45  80 141 142 157 163 166 167 168 170 169 170 171 171
 189 190 189 190 187 186 182 163 148 126  95  75 101  77  66  42 112 124 124 129 131 132 134 138 131 129 133 137 139 138 139 137 134 130 129 129 128 127 124 123 119 116 117 115 116 122 123 121 117 114 113 111 112 110 111 109 109 108 108 106 103 102 101  97  93  86  80  80  77  75  73  69  71  74  73  74  76  38  29  50 122 134 153 161 166 168 170 168 168 170 171 169
 190 190 189 188 186 186 185 164 147 122 101  71  90  72  70  37  99 119 118 125 124 119 122 114 114 112 116 115 114 117 120 117 114 117 120 123 120 121 117 115 113 113 111 110 113 116 115 115 111 107 109 108 106 104 104 101  98  95  91  84  78  76  75  73  74  67  60  61  56  59  57  59  59  58  59  63  65  43  28  43  61 133 150 161 167 167 167 168 168 170 170 170
 192 191 190 188 188 191 184 164 158 124  98  75  71  73  69  41  82 109 112 103 101 100 100  97  98  98  97  94  89  90  92  95  97 102 107 102  98 102 102 104 103 105 108 108 111 112 112 110 108 107 104 103  98  94  96  93  84  77  68  58  56  50  47  45  44  44  45  46  46  48  48  47  53  54  54  55  60  45  36  34  54  80 157 157 166 166 167 170 170 170 171 171
 192 191 191 191 189 191 183 165 151 128 105  85  70  83  65  54  72  94 102  94  87  85  84  79  77  80  77  76  74  75  79  85  81  76  69  67  65  61  67  74  83  90  95  97 102 103 102 102 101 100  97  96  90  88  78  75  66  55  50  43  38  33  33  31  31  32  31  34  37  42  46  47  51  54  56  57  62  73  63  43  37  65 116 158 164 166 167 170 171 169 170 170
 193 191 192 192 192 193 182 164 144 116 125  97  71  85  67  79  73  83  91  90  83  79  73  72  68  70  71  71  69  64  62  53  50  49  46  46  43  45  45  50  60  64  75  84  90  93  95  97  93  93  92  89  80  76  63  54  50  47  40  34  30  29  25  26  25  28  31  34  39  45  47  47  54  57  61  66  70  83 132  89  48  57 101 137 164 168 167 169 168 168 169 169
 192 193 193 195 194 191 185 171 153 125 147  99  75  85  80  81  81  81  86  91  90  85  89  91  89  87  84  82  79  79  74  72  54  46  45  47  39  36  35  37  42  48  57  66  76  83  87  88  87  85  85  81  71  63  52  45  41  39  33  29  26  26  30  38  41  48  58  54  53  53  59  59  56  53  57  61  64  57  67  81  62  73  90 112 140 164 167 170 168 168 169 168
 194 194 193 193 193 192 189 183 160 131 153 108  76  84  73  88  74  60  59  57  52  44  45  45  44  41  42  44  42  41  40  39  38  40  39  40  48  48  49  48  45  46  48  49  59  68  76  85  85  81  76  70  62  52  44  38  33  32  37  44  42  46  47  37  34  31  31  28  26  26  24  24  23  23  22  22  23  24  24  26  26  26  25  30  41 155 165 169 169 169 171 169
 193 195 193 195 196 192 190 181 161 143 167 112  79  67  30  26  26  25  25  25  25  26  29  31  35  36  35  35  35  34  32  28  26  24  24  23  22  22  23  27  30  31  37  43  51  56  63  73  78  75  70  62  52  43  39  47  43  46  43  34  31  25  21  20  22  22  23  26  28  32  34  39  37  42  52  59  59  60  48  36  24  23  27  41  42 153 164 168 170 169 170 169
 193 193 193 196 196 190 192 178 162 155 172 128  84  67  27  80  77  27  24  32  49  51  48  43  45  44  41  39  35  37  34  29  26  24  25  27  28  30  32  32  30  25  22  23  25  32  44  52  64  64  74  64  53  48  49  31  32  26  20  21  24  25  28  29  27  24  23  23  24  27  30  36  41  45  55  64  73  84  73 112  44  24  48  46  55 155 164 169 171 170 169 169
 193 194 193 196 196 189 188 180 158 160 174 142  88  67  29  37  52  33  32  70  61  51  42  42  44  38  35  34  38  42  47  33  24  21  21  22  26  27  30  32  38  40  44  37  21  20  22  29  35  33  35  33  36  29  23  20  21  24  26  28  27  30  46  55  34  27  24  25  24  33  40  32  32  41  55  67  77  88  83 115  77  27  24  26  80 158 165 170 170 169 168 169
 195 193 194 194 195 187 185 182 155 171 172 138 102  59  29  24  24  24  62  78  69  57  47  39  39  39  45  55  63  70  49  33  31  21  22  24  30  32  29  34  38  44  47  50  52  24  20  19  20  19  19  19  20  20  19  20  30  31  30  32  35  42  61  63  38  32  22  22  27  43  52  41  43  44  55  70  79  87  84 109  87  31  24  24 141 161 164 168 169 168 169 169
 193 194 195 195 193 188 183 183 154 175 166 135  93  58  43  22  22  20  86  90  82  71  62  54  48  46  62  61  69  71  43  33  32  20  23  27  32  37  34  37  41  49  50  54  59  42  19  18  18  18  17  18  20  20  19  27  35  30  33  36  41  48  60  57  33  28  24  25  30  50  48  46  49  57  68  76  83  90  80 107  79  29  23  80 159 164 163 168 169 168 170 171
 192 194 195 194 193 188 181 178 151 176 170 131  97  57  68  28  22  23  97 102  96  84  78  69  58  54  58  61  66  70  54  34  30  27  29  30  36  35  34  36  46  58  62  61  66  47  19  18  18  18  18  19  19  18  20  31  38  37  35  35  37  45  53  57  42  29  27  28  39  47  46  51  56  65  78  80  83  91  84 110  72  28  19 133 164 167 166 168 168 168 170 172
 194 193 193 194 193 188 180 175 162 176 171 135 102  60  71  58  24  22 102 111 107  97  89  78  68  62  65  64  64  67  63  46  33  30  30  37  40  41  49  55  62  67  69  69  70  41  19  19  21  27  30  28  20  18  18  36  44  48  46  46  43  43  45  50  49  43  38  42  48  48  50  59  67  74  81  83  86  92 100 127  63  28  51 156 167 167 168 169 169 169 169 169
 190 190 192 192 193 188 178 164 170 179 167 143 101  68  70  87  20  22  96 115 114 107  98  87  78  69  64  68  67  67  67  65  57  51  48  47  46  47  58  68  73  74  76  74  64  33  19  18  47  75  83  70  39  20  18  35  49  50  47  45  42  41  42  43  45  46  44  46  47  50  54  61  71  80  85  86  89  94  95 125  46  24 103 163 168 169 167 169 169 169 168 170
 189 189 191 192 191 187 178 160 179 173 160 136 104  71  69 100  30  27  88 118 120 113 105  95  85  78  71  62  57  57  59  56  56  48  46  45  47  52  58  65  74  79  80  77  62  20  18  51 122 130 125 111  88  25  19  30  51  50  49  47  47  46  44  44  46  45  48  47  49  53  59  65  75  85  87  90  89  94 100 110  37  35 154 166 167 168 168 168 169 169 170 170
 188 190 188 189 190 189 175 158 173 163 160 139 127  94  71  98  60  25  75 119 125 121 110 102  92  85  77  65  60  56  54  52  51  49  52  54  58  62  66  74  80  84  87  79  47  20  26 114 142 145 145 134 118  60  19  23  58  55  53  51  50  50  50  50  50  48  49  50  52  58  65  73  80  86  89  89  90  96  99  84  31  86 160 166 168 167 167 167 168 169 168 169
 189 188 189 190 189 187 162 169 166 173 171 156 135  88  70  92  96  21  51 123 129 126 119 113 100  94  88  80  74  70  65  66  67  68  69  70  72  76  81  88  90  95  98  74  26  19  70 135 151 156 153 140 125 100  24  20  50  65  62  59  57  56  56  57  54  56  57  60  60  65  70  77  83  88  90  90  91  93  87  50  30 146 164 166 167 166 167 168 168 167 168 169
 187 187 187 185 184 180 152 167 169 171 172 166 131  78  75  84 110  41  32 110 127 129 128 120 110 101  97  93  91  90  86  84  81  80  79  80  85  91  98 101 107 110  91  49  22  34 115 143 155 157 153 142 128 109  55  19  31  65  71  71  67  65  64  65  64  62  65  65  68  72  74  80  86  88  88  89  90  89  71  31  83 160 163 166 166 165 166 168 168 167 168 168
 183 183 181 180 179 173 161 171 174 171 171 162 124  76  70  75 106  89  25  69 125 128 127 122 117 111 106 100  98  96  95  92  90  90  92  98 103 107 113 117 117 106  68  25  21  88 128 145 156 158 154 148 132 114  90  25  18  51  69  76  78  78  77  74  70  71  70  71  74  77  80  85  89  90  86  84  88  81  46  31 137 159 163 165 165 164 165 168 166 167 168 169
 180 181 182 182 180 163 177 174 173 173 172 158 134  81  65  67  97 116  39  31  92 124 124 125 124 117 109 106 101  99  97  96  98 101 107 113 117 120 123 117 106  68  33  20  58 118 135 145 154 160 157 147 131 117 101  56  20  24  57  70  76  82  84  82  79  78  77  78  82  85  87  89  92  88  84  81  72  47  28 105 154 163 164 165 166 166 166 168 167 167 166 168
 182 183 182 181 177 164 175 175 172 171 170 156 125  83  64  62  81 115  97  24  35  83 118 121 124 121 113 109 106 104 103 104 108 114 119 121 121 121 114  95  55  37  24  43 105 124 135 143 154 161 162 150 132 119 103  82  41  20  26  48  67  73  78  82  82  84  84  84  85  89  90  95  90  82  70  56  40  25  77 140 160 163 165 164 165 165 166 165 167 168 167 168
 182 181 181 180 164 171 173 172 171 168 161 146 119  76  59  53  69 107 117  82  25  28  56  86 108 112 116 111 112 113 112 112 113 119 112 105  96  78  56  37  32  29  41  95 115 126 132 141 153 163 165 152 135 118 105  88  65  41  26  19  24  42  56  65  75  77  81  81  83  76  69  62  50  42  33  24  33  74 122 144 160 162 163 165 165 166 166 166 168 168 168 167
 181 181 181 180 156 175 176 175 175 172 162 151 108  72  57  49  64 100 116 115  97  45  27  36  48  59  64  62  65  61  58  59  56  50  45  44  38  31  25  27  43  57  86 109 120 129 133 142 155 163 165 158 137 121 106  91  72  56  48  45  31  24  19  21  23  23  32  31  29  26  23  23  27  37  49  70  65  94 130 150 162 163 162 163 164 162 166 166 167 168 167 167
 180 181 179 171 160 176 176 174 172 168 156 126  93  78  54  51  56  83 111 113 114 112 106  81  61  51  36  29  27  27  29  30  26  26  28  32  37  46  59  63  66  80  96 109 119 130 130 138 155 163 166 156 136 124 111  97  74  59  54  56  58  62  61  55  53  54  52  56  57  69  77  82  83  80  77  76  57  86 132 151 163 164 163 162 162 161 164 165 164 165 166 167
 179 180 176 163 168 178 177 174 173 167 159 120  99  71  54  48  50  71 108 113 114 116 117 118 118 114 112 108  99  85  82  78  83  84  78  77  77  75  74  76  79  88  95 104 119 130 133 138 155 163 163 154 136 125 113 101  79  58  56  60  64  65  67  70  72  74  75  82  83  86  83  83  83  80  77  70  50  79 130 150 163 162 163 162 163 163 163 163 161 164 164 167
 179 178 177 159 172 176 175 174 173 165 152 124 107  79  51  43  45  59  97 111 112 115 118 121 118 115 114 113 111 103  98  92  89  86  84  83  82  86  87  82  80  87  92 102 119 128 131 138 154 160 164 157 138 127 118 104  87  64  56  61  65  69  71  74  76  77  79  83  85  85  82  80  78  77  74  59  51  84 127 148 161 161 163 162 162 162 162 163 162 164 164 163
 179 177 176 161 174 178 178 177 174 167 153 131 118  79  48  41  43  53  82 105 110 115 116 117 116 113 114 112 110 106 102  97  94  93  93  91  91  91  87  81  81  87  97 106 120 124 129 136 151 162 169 160 139 130 120 105  94  79  56  56  65  71  73  76  78  80  84  84  85  84  80  77  73  73  69  53  54  74 140 150 155 158 161 162 163 161 161 162 164 164 164 164
 178 177 176 162 175 176 175 177 175 166 152 141 117  80  54  45  39  46  69  96 105 112 112 111 114 112 110 111 112 110 107 102 103 100  99  96  94  90  84  77  82  92 104 112 122 125 129 138 153 163 167 159 143 131 121 107  96  90  63  56  64  70  72  76  75  81  84  84  83  81  78  73  71  71  64  50  51  74 124 152 156 157 161 162 162 161 162 162 163 162 162 164
 176 176 177 171 174 178 178 178 175 164 154 137 134  88  62  45  42  42  60  85  99 110 110 106 108 110 111 113 114 113 111 107 104 101  99  99  94  90  85  81  80  96 114 116 121 124 129 138 154 161 160 154 140 128 117 106  97  91  75  60  66  73  75  75  77  78  82  82  81  74  73  71  69  65  53  46  45  61 117 151 157 158 160 161 162 160 162 161 163 162 162 162
 174 174 174 174 174 173 174 175 174 163 154 141 124  97  60  45  48  49  55  71  93 101 102  95 103 109 110 113 112 111 108 107 108 102 101  98  94  92  89  84  77 101 119 117 123 124 128 134 152 158 150 143 130 121 114 101  94  90  86  66  68  74  74  75  77  76  78  80  79  73  71  69  66  56  46  44  43  60 114 141 154 157 159 160 161 160 160 161 161 162 161 161
 174 174 173 175 176 175 175 174 174 163 150 129 121 118  79  46  46  44  48  68  84  97 102  99 103 107 105  99 108 106 106 108 107 102  99  96  94  95  94  87  80 104 121 118 117 117 123 132 144 147 140 134 124 117 106  93  86  84  87  71  72  76  75  74  74  75  76  78  75  69  67  64  59  50  41  41  42  49 106 139 154 157 157 160 161 161 161 162 161 162 162 162
 174 174 174 175 173 175 176 176 173 164 150 135 126 111  86  46  44  38  47  56  72  94 100  97  97 100  98  98 105 107 105 105 103 102  99  98  98  99 100  96  88 103 117 115 109 106 113 122 133 134 126 119 112 105  93  81  74  77  81  73  76  78  79  78  74  73  71  70  68  69  61  56  52  45  35  36  39  58 110 141 153 157 158 159 159 160 160 160 161 161 161 160
 173 173 173 173 175 175 175 175 174 169 156 143 139 122 104  51  43  53  54  56  64  83  91  87  90  89  91  98 102 105 106 103 102 102 102 105 107 107 108 105  98  98 105 104  95  87  87  96 112 117 112 101  96  91  75  64  61  65  70  70  76  80  79  78  75  70  64  65  63  64  58  53  46  38  34  34  42  68 126 145 152 154 155 157 157 159 159 159 160 159 159 159
 170 171 173 172 174 175 174 174 174 168 151 144 144 134 113  72  52  40  41  40  53  69  84  86  90  86  88  94  98 101 103 102 105 104 107 109 109 110 110 104  98  92  85  79  73  69  66  71  82  93  91  84  76  65  54  48  49  53  59  69  76  79  77  78  76  70  68  65  60  54  51  46  39  32  32  34  45  72 125 145 150 153 155 154 155 157 158 158 158 159 159 159
 170 170 173 173 172 174 174 174 172 169 154 148 145 143 128  81  58  38  39  34  46  63  76  80  86  86  87  91  93  95 101 107 108 109 111 111 111 110 109 101  95  86  70  61  47  41  47  59  68  73  73  67  57  51  44  40  42  48  57  65  74  74  73  76  75  73  69  63  57  50  44  39  31  30  29  31  38  69 119 145 151 153 154 154 154 155 155 156 155 158 158 159
 168 168 173 173 173 172 169 172 172 169 153 150 152 139 127  83  53  46  42  38  46  51  62  71  78  79  82  86  90  96 104 109 111 111 109 110 110 108 106  97  92  83  64  57  53  47  48  52  58  58  57  53  48  47  39  35  36  44  53  60  65  70  68  70  70  70  68  63  56  48  41  32  27  26  26  30  44  82 125 143 148 151 152 153 153 156 157 157 154 155 156 158
 166 168 170 168 171 170 170 168 167 164 151 143 148 143 132  99  54  44  41  41  43  45  51  63  68  70  76  81  88  98 107 111 110 108 106 103 101 101 101  94  87  77  62  46  41  44  45  46  51  50  48  47  45  39  35  30  33  43  49  55  59  58  58  63  66  66  65  62  52  45  36  28  24  23  25  30  47 108 135 146 149 150 152 152 152 152 153 156 156 156 156 155
 166 166 168 168 169 170 169 168 168 165 156 148 147 148 138 115  59  42  37  37  38  38  45  51  56  63  73  77  90 102 109 108 103  96  93  91  93  94  95  91  82  71  58  45  40  42  42  41  41  38  39  40  41  34  33  30  32  42  46  50  55  57  52  58  61  60  57  54  46  40  31  26  24  22  24  27  34 108 136 145 149 150 150 150 151 152 153 153 153 154 155 154
 164 165 167 168 169 168 168 167 166 166 160 151 150 146 137 115  57  40  34  32  31  36  35  40  51  56  65  76  90  96 100  98  92  90  88  88  85  91  88  80  77  64  57  46  42  38  37  39  36  32  32  36  37  33  30  30  31  42  48  49  49  55  52  48  49  49  51  46  41  34  30  24  22  24  24  27  29  94 137 144 146 148 148 148 150 151 153 153 153 153 154 154
 163 161 165 167 167 168 168 166 166 162 160 154 153 149 144 111  50  38  36  31  30  31  34  38  41  50  63  74  87  85  83  85  88  86  86  83  79  76  76  75  66  59  52  45  41  38  37  38  34  32  35  35  34  34  32  33  33  39  46  47  43  44  49  45  42  46  43  44  38  28  24  24  18  22  24  27  27  74 137 144 145 147 148 150 150 151 151 152 152 152 153 153
 163 164 164 165 165 164 166 164 162 163 161 153 155 150 143 104  43  37  29  26  24  26  30  30  34  46  56  70  77  75  72  80  83  80  82  65  71  61  65  68  59  54  49  43  42  44  38  36  35  34  37  42  39  36  36  33  31  36  36  40  33  31  32  40  39  39  43  42  40  30  22  18  19  21  25  26  22  44 135 141 144 144 147 148 149 150 151 151 151 152 153 153
 159 160 162 164 165 163 164 163 162 161 159 153 153 148 141  87  40  35  29  29  29  26  26  26  32  36  52  68  72  68  64  72  71  73  67  61  58  45  52  60  57  49  48  42  43  47  40  42  50  50  54  63  60  42  36  32  30  36  34  30  29  28  28  31  33  31  36  38  38  34  26  24  24  24  26  24  20  30 130 140 142 144 145 146 148 148 149 149 150 152 153 152
 159 160 162 162 162 162 161 162 159 159 158 153 145 142 139  77  38  36  30  27  25  23  26  26  25  34  50  63  65  57  56  60  63  54  47  50  42  35  42  49  52  48  42  38  39  43  40  47  57  65  65  61  50  41  34  31  31  31  29  28  28  32  33  34  34  33  32  34  35  34  35  33  29  25  24  23  18  19 118 138 142 143 144 146 147 147 148 148 149 150 151 152
 158 159 159 161 160 161 159 158 156 155 152 148 142 139 136  75  32  30  30  24  21  21  23  26  28  39  48  54  55  54  52  58  53  43  40  40  41  37  37  40  42  41  38  36  39  42  44  43  44  44  45  40  39  38  34  28  26  30  30  30  33  38  37  36  32  30  33  35  35  33  32  34  27  25  24  20  17  18  88 136 141 142 142 143 144 145 146 147 148 149 151 152
 156 157 157 158 158 156 154 152 151 149 147 143 142 137 132  69  28  25  26  22  23  23  20  22  27  35  41  46  47  51  47  49  49  45  45  44  46  49  47  51  56  57  51  43  36  37  38  38  36  37  36  35  35  33  30  31  33  36  34  36  41  41  41  39  33  31  29  30  32  31  32  32  29  25  23  14  16  19  86 135 140 140 141 143 143 144 145 146 146 148 150 150
 156 154 154 153 152 150 148 148 146 144 143 141 140 137 130  79  24  22  24  23  22  26  21  21  25  30  39  43  48  47  42  47  50  48  51  54  56  62  62  62  62  64  66  66  60  57  56  50  47  47  49  50  49  49  46  42  42  39  38  42  44  43  43  39  36  33  26  27  24  23  25  25  27  24  19  14  16  19  77 133 136 140 141 141 142 142 144 145 146 148 148 147
 153 152 152 151 148 149 147 146 146 140 141 139 139 136 126  54  22  20  23  23  24  25  25  24  26  31  42  43  40  40  43  50  46  52  56  64  65  69  72  72  66  65  64  71  73  74  71  66  65  59  64  60  59  56  51  45  41  40  44  43  44  44  43  37  34  31  27  27  26  20  22  23  25  23  18  12  12  18  62 131 135 138 140 140 140 142 142 144 145 147 146 146
 150 151 150 149 148 146 144 146 142 140 139 138 135 133 120  70  21  21  22  26  27  23  25  27  30  39  42  39  40  44  47  46  46  52  60  68  70  72  75  74  73  69  65  64  69  74  71  69  64  60  63  61  59  53  48  42  40  44  44  43  45  45  42  38  34  26  24  23  26  23  22  23  20  19  14  13  12  15  50 129 136 138 138 138 141 140 142 143 143 144 144 146
 150 150 148 146 146 145 144 142 140 139 136 131 120 108  51  25  22  23  25  25  23  22  28  38  43  38  35  34  42  44  40  41  44  54  61  71  74  76  72  71  73  72  70  64  60  59  58  59  59  55  54  52  49  45  39  40  42  43  45  46  46  43  38  34  31  30  24  18  25  19  19  20  21  15  12  13  12  13  59 129 135 135 136 138 139 139 141 143 144 141 145 145
 149 150 147 145 144 141 141 138 136 122  65  54  27  22  21  18  17  19  18  21  20  23  26  28  27  25  25  29  34  34  39  43  45  47  57  72  77  78  74  70  68  65  60  58  58  52  46  43  43  44  43  39  37  38  40  39  41  44  46  48  46  43  38  33  27  26  27  24  26  21  16  17  19  14  13  12  12  14  33 100 128 135 135 137 139 139 140 141 141 142 142 144
 146 146 145 143 142 139 134  98  68  40  25  21  18  17  14  14  16  17  14  16  19  21  23  25  22  23  23  25  28  34  41  41  41  47  55  69  80  81  78  71  67  60  54  50  48  45  38  34  31  28  29  30  30  34  35  37  44  44  47  50  45  42  37  31  28  25  24  23  26  21  19  19  21  17  16  11  11  14  19  22  73 112 132 136 137 138 138 139 141 140 140 143
 145 144 143 141 137 126  93  29  25  21  17  16  16  14  14  14  17  14  13  15  19  18  20  20  19  20  24  27  31  36  40  33  37  46  54  65  74  75  72  69  68  65  56  50  48  43  36  33  26  22  25  27  27  33  34  38  45  48  47  47  45  44  35  30  28  26  25  25  22  19  17  20  21  15  15  10  11  14  16  19  21  24  93 127 134 136 138 139 140 141 139 142
 144 142 140 132  83  33  23  22  19  19  16  16  14  15  10  12  11  13  11  12  17  18  19  20  23  26  28  33  33  32  33  30  36  46  53  57  56  50  50  62  71  73  66  58  52  45  37  32  27  24  26  27  30  32  40  42  46  48  48  49  43  40  42  31  26  25  23  24  20  18  18  21  17  10  10  11  10  12  12  14  16  17  20  28  54 121 132 136 139 139 140 142
 140 137 119  65  23  21  20  19  18  17  15  15  13  13   9  10  11  13  12  13  16  18  18  22  28  30  32  28  25  27  32  34  38  48  53  55  49  44  46  56  73  76  72  65  55  48  39  33  32  32  26  28  31  36  39  48  46  47  49  50  50  36  28  34  27  24  23  20  17  18  18  19  14  14   9   8  11  12   9  11  15  15  17  19  22  39  61 124 134 136 138 140
 131 126  54  28  22  20  19  19  17  16  14  12  11  11  10  10  13  13  13  13  12  14  18  20  29  24  23  24  26  27  31  28  35  52  53  49  45  44  49  57  70  75  72  68  57  48  38  32  36  31  28  25  29  35  40  43  50  51  56  47  48  43  31  31  31  26  23  15  16  19  18  19  18  11  10   9  10   9  10  10  12  13  15  16  15  17  22  44  76 124 135 137
  56  33  24  23  21  19  18  18  15  14  13  12  10   8  11  12  13  12  13  11  11  15  18  22  23  20  21  23  24  28  26  27  44  45  44  45  47  46  51  60  65  69  70  67  55  48  38  34  38  32  32  29  28  35  39  47  48  48  50  58  49  44  35  30  28  28  26  20  19  20  19  17  16   8   9   9  12  10   9   9   9  10  12  14  14  16  18  20  24  60  99 124
  28  24  23  20  18  17  16  17  14  14  14  12   9   9  11  10  11   9  11  11  10  10  16  17  20  21  17  16  20  25  29  36  47  39  40  43  44  45  51  55  59  61  63  59  52  48  38  34  37  36  32  36  32  35  33  48  50  54  47  52  58  45  40  29  28  27  22  20  16  18  18  14  12   9   9   9  11  10   9   8   9  11  12  13  14  15  15  16  19  21  21  44
  22  21  18  17  17  15  16  15  14  14  12  13   9   9  10  10   9   9  11  11  10  12  14  17  18  19  19  20  23  25  28  34  35  32  39  35  48  45  48  48  58  55  57  50  52  48  36  37  34  35  35  39  36  36  34  38  50  50  47  44  40  45  29  32  26  27  20  19  14  13  15  10   9   9   9   9   8   8   8   8   8   9  10  12  13  13  15  14  14  17  20  23
  17  17  17  17  15  16  15  14  14  13  13  10   8  10  10  11  10   9  10  11  12  15  15  19  19  15  15  18  21  23  23  33  29  31  35  38  37  42  46  47  47  48  51  45  46  44  37  36  31  33  34  35  35  36  37  42  49  54  48  42  34  39  29  29  26  25  19  16  12  10   8   6   7   8   9   9   9   8   9   9   9   8  10  12  12  13  13  12  14  16  17  20
  17  17  18  16  15  14  14  15  15  14  12   8   8  10  11  11  10   9  11  11  10  11  12  16  19  16  16  14  17  20  24  27  22  24  31  33  37  41  45  41  38  50  43  42  46  40  38  33  32  33  30  33  35  36  35  38  55  50  48  43  34  32  29  28  23  20  20  15   9   9   8   8   7   8   9   8   8   8   8   8   8   9  10  12  12  13  13  12  13  15  16  17
  17  17  17  15  14  13  14  14  14  13   9   9  10   9   9  11   9  10  10   8   9  10  10  15  16  14  15  16  18  17  21  26  24  24  26  28  36  34  39  34  36  51  40  42  46  37  35  34  29  28  31  32  36  32  35  40  61  50  42  44  33  29  24  24  17  17  19  16   9   9   8   8   8   8   7   8   8   8   8   9   9   9  10  11  12  12  13  13  13  13  14  15
  16  16  17  16  11  11  15  14  13  10  10  10  11  10   9  10  10   9   8   8   8   9  10  11  10  13  10  12  14  13  16  17  20  21  23  28  31  35  33  35  43  47  35  42  39  32  34  30  25  28  31  30  27  34  37  46  56  44  39  35  30  28  25  23  16  15  15  14   9   8   8   8   8   7   7   8   8   8   9   9   9   9   9  10  11  11  12  11  12  13  14  14
  17  16  16  17  13  11  12  13  12  10  11  10  10  11  10  10  10   8   7   9   8   8   9   9   9   6   8  11  15  15  16  17  17  15  22  26  28  29  31  35  36  37  32  39  31  32  31  27  25  27  27  26  23  31  39  37  48  36  35  29  25  27  24  18  16  12  12  10   8   8   8   8   6   6   6   7   8   8   7   9   9   9   9   9  10  10  12  12  12  12  13  13
  17  13  15  14  13  11  12  13  10  11  11  10   9   9   9   9  11  10   9   8   9   7   8   8   8   9   8   9  11  16  15  14  16  16  20  25  24  24  28  31  30  28  27  33  30  29  25  26  24  25  24  27  27  29  32  33  41  35  37  28  22  26  21  17  13   9   9  10   9   8   8   6   5   5   6   8   8   8   8   8  10   9  10   9   9  11  11  12  11  11  13  13
  15  14  14  14  13  11  12  10   8  11  10  10  10   9   9  10  12   9   9   8   7   6   8   7   7   9   8   8  10  10  11  13  20  19  19  19  18  24  28  28  28  23  28  26  27  25  22  23  22  22  23  23  23  26  30  31  30  31  27  27  19  24  19  14  11   8   8   6   7   8   9   7   4   6   8   7   9   8   8   8   9   8   9  11   9  11  11  12  11  11  12  11
  16  16  14  14  15  12   9   9  10  11  10  10   9   9   9  11  10  10   9   7   8   7   6   5   6   8   9   8   8   7   7  12  15  13  17  14  18  25  22  23  24  22  24  25  26  19  16  17  18  18  20  20  21  24  29  26  27  27  21  19  22  24  15  10  10   8   7   6   5   7   7   8   4   5   6   6   8   9   9   8   9   9  10   9   9  11  11  11  11  11  12  11
  14  13  14  15  14  13  11   8  11  12  11   9   9   9   9   9   9   9   9   7   5   6   7   5   4   6   7   7   7   8   6   7   8   9  14  14  18  19  18  17  21  22  20  19  18  18  15  15  15  14  16  18  20  23  25  23  21  23  22  19  19  22  10  10  10   7   6   5   5   5   4   4   5   7   6   8   7   8   8   8   8   9   9   9   9  10  10  11  11  11  12  11
  12  11  12  11  12  11  11  11  11   9   7   9  11  11  11   9   6   8   8   7   6   5   7   5   5   6   6   6   5   6   4   6   8   7  11  14  16  16  18  19  16  17  15  14  15  13  14  13  11  13  14  15  19  23  19  17  16  20  15  16  20  13   8   8   8   7   7   5   4   4   4   5   6   6   6   5   7   8   9   8   8   8   9   9   9  10  10  11  11  10  11  11
  12  12  11  10  12  11  10  11  11  10  10   9  10   9  10   9   9   7  10   8   7   7   5   5   6   6   6   5   5   5   4   5   6   6  12  10  13  17  17  14  11  10  11  12  10  12  11  10  10  10  11  11  12  19  15  14  13  16  11  16  13   7   6   5   5   4   4   4   4   5   4   5   5   6   5   6   7   7   8   8   8   9   8   9   8   9  11  10  10  11  10  10
  12  11  11   9  11  11  10  10  11  10  11  10  10  10  11   8   7   7   8   9   7   7   5   5   5   6   5   4   5   5   5   5   6   8   9  10  12  13  10  11   9   9   9   9   8   8  10  10  10  10   9  10  10  14  14  10  11  13  12  11   9   6   5   4   4   5   4   4   4   5   4   5   6   5   6   5   6   8   8   8   9   8   9   9  10   8  10  10  11  10   9  10
  10  10  11  10  10  10   9   8  10  11  10  10  10  11  10  10   7   8   9   9   8   7   6   5   5   5   5   5   5   5   5   6   6   5   8   7   8   7   8   9   9   8   8   8   8   8  10   8   9  10   9   8   7   9  11  10  12  13  10  10   6   5   5   4   4   4   4   4   4   4   4   4   5   5   6   5   7   8   8   8   8   9   8  10  11   8  10  10   9   9  10  10
