P2
# Generated by OpenCV 3.4.0
92 112
255
 208 217 224 225 222 215 211 207 205 204 204 202 204 203 202 203 203 203 203 202 202 202 202 203 200 200 201 201 203 201 197 198 195 186 160 121  74  63  61  52  53  46  40  41  43  42  51  54  64  87 144 169 185 186 186 187 188 188 186 189 185 184 184 183 183 183 181 182 179 178 178 176 177 176 176 174 173 170 169 159 130 123 122 122 122 118 120 119 121 118 118 116
 208 222 239 243 241 232 218 210 205 206 205 204 204 200 201 201 201 202 201 203 204 202 204 202 201 200 200 198 200 197 189 164 145  73  61  48  37  33  34  32  29  28  27  25  28  27  29  29  33  42  46  54  85 126 165 181 186 188 186 186 185 186 185 185 184 182 183 182 179 179 177 177 175 176 176 175 173 171 170 162 136 125 123 122 121 120 120 122 121 120 120 119
 211 232 248 251 251 243 232 218 210 205 205 205 205 203 202 201 200 201 201 201 202 200 202 203 201 198 198 196 195 176 108  56  45  39  32  29  26  25  23  24  22  22  22  22  23  22  23  25  26  28  27  30  33  42  67 139 178 183 183 185 184 184 184 184 183 182 182 182 179 178 178 178 177 176 175 176 173 172 170 166 139 126 123 123 123 121 122 122 121 118 120 118
 214 238 250 252 252 251 242 231 216 208 206 205 205 203 203 203 202 201 201 201 203 201 203 202 202 199 194 188 153  73  45  35  32  26  26  22  23  23  22  20  22  23  22  22  22  21  19  22  21  22  24  26  27  29  32  48  70 128 173 182 184 184 183 182 183 183 184 181 181 180 178 180 177 179 176 175 173 172 173 166 145 126 124 124 124 123 122 122 122 119 120 119
 216 238 250 252 252 252 244 236 220 211 206 206 205 204 203 203 202 202 202 202 200 203 202 201 200 197 167  98  52  41  33  26  24  23  24  21  22  19  22  18  21  20  17  19  22  20  19  22  23  20  22  24  22  24  24  27  36  48  88 161 181 185 185 184 183 183 184 181 180 181 178 181 179 178 175 175 174 173 171 168 151 131 127 123 125 122 123 122 122 120 121 118
 212 233 247 252 252 252 242 235 220 212 208 204 203 203 204 202 201 202 201 200 201 202 202 200 192 155  66  46  36  31  27  25  24  20  21  20  20  20  22  20  21  20  17  19  21  19  19  18  19  17  22  22  21  20  21  23  27  30  36  62 151 180 184 185 184 183 183 183 181 179 178 177 178 177 174 175 174 173 170 170 154 130 125 125 124 122 122 124 121 120 119 120
 210 225 241 249 251 247 239 228 217 212 209 205 204 204 204 201 202 202 201 199 202 202 200 189 139  71  48  35  31  29  27  24  23  20  19  19  20  20  24  21  22  21  19  20  22  22  20  18  19  18  19  19  18  20  19  21  23  24  28  36  65 144 178 181 183 184 182 182 181 180 179 179 177 175 176 175 174 175 171 173 160 133 126 125 123 123 123 121 121 120 121 121
 210 219 234 243 242 240 236 224 214 206 208 208 207 205 205 203 206 204 205 204 203 201 187 130  57  48  42  34  31  29  28  23  21  21  19  19  22  24  26  24  23  23  25  21  22  22  21  20  20  20  17  20  18  22  19  21  21  24  26  31  37  63 131 174 180 181 180 182 180 180 179 178 176 175 176 175 174 174 171 172 166 136 126 123 124 123 123 122 122 120 121 119
 208 212 226 241 238 233 225 219 210 205 209 206 205 204 204 203 205 204 203 202 198 185 128  67  64  56  48  41  36  29  25  24  23  22  23  24  25  26  28  27  26  30  28  25  24  24  24  24  22  20  18  20  16  21  22  22  23  23  24  26  28  32  52 134 178 181 183 184 183 183 182 179 178 179 177 176 175 174 172 172 167 138 128 122 124 123 121 124 120 121 122 119
 207 212 223 234 228 221 218 212 208 207 205 205 205 205 206 204 204 206 204 196 177 111  72  62  62  63  58  52  41  33  27  27  24  23  26  26  28  30  30  31  30  32  32  28  28  28  28  27  25  22  22  21  20  21  22  21  24  24  23  25  26  29  33  59 141 176 183 183 184 183 181 181 180 179 177 176 176 175 174 173 169 144 128 125 124 123 120 122 121 118 121 120
 207 210 220 231 228 218 215 209 206 206 207 203 202 204 205 203 202 203 198 172  99  71  62  62  65  63  63  62  49  39  31  27  28  25  29  28  34  34  33  36  34  37  34  30  32  34  32  29  27  24  23  19  22  19  23  22  23  24  24  25  28  27  30  38  61 147 177 182 183 183 180 180 180 179 179 177 175 175 174 172 170 148 128 126 123 122 122 122 121 120 122 120
 203 208 215 231 240 222 212 208 207 205 204 203 204 202 203 203 203 201 194 128  71  64  62  62  57  56  53  55  56  48  44  36  31  31  36  37  44  41  40  43  40  44  35  30  35  37  34  29  28  28  25  24  23  25  26  25  26  28  26  27  30  31  31  32  40  65 153 177 181 181 180 180 180 178 179 176 176 176 174 173 171 152 130 125 122 124 123 122 123 120 122 121
 202 204 211 224 241 224 211 209 208 206 206 204 204 205 203 204 203 201 179  95  65  59  57  58  54  51  49  49  46  44  42  37  37  40  44  46  49  50  47  45  47  48  43  36  34  42  39  36  34  31  30  31  29  28  27  31  32  33  31  30  31  34  33  37  40  44  75 162 180 180 179 179 177 179 177 176 176 174 173 173 170 156 132 126 124 124 125 124 124 123 122 119
 203 207 210 216 237 224 211 209 210 208 206 206 206 209 210 209 208 204 158  80  63  56  52  51  51  50  50  50  49  50  44  47  51  49  54  61  67  62  55  49  51  57  59  50  45  46  47  45  39  36  36  37  36  35  37  41  40  46  47  45  45  47  47  47  46  44  49 102 175 180 181 181 180 179 178 177 177 174 174 171 170 160 134 126 124 125 124 122 123 125 123 120
 206 206 210 218 239 228 211 209 209 208 208 208 208 210 211 211 210 202 105  74  66  58  55  54  54  55  52  56  57  56  59  64  66  69  72  77  83  79  69  63  58  66  72  65  53  52  53  61  51  50  51  47  50  53  55  62  68  69  72  71  68  61  64  60  58  54  52  64 140 178 181 180 180 180 180 179 177 175 176 174 173 165 139 126 126 126 123 123 124 120 122 123
 208 208 210 220 240 228 213 211 211 209 209 208 209 210 211 208 207 178  90  74  65  61  57  61  63  62  61  64  72  74  82  85  85  91  95  95 102  93  86  77  76  82  87  78  69  67  70  77  72  69  70  76  84  86  89  94  95  99 103  94  82  77  76  72  66  63  60  58  79 166 182 181 184 182 181 181 180 176 176 177 174 168 141 128 127 125 124 124 122 123 123 119
 207 208 208 217 239 229 215 210 212 211 211 210 210 210 209 207 205 158  89  73  68  66  67  73  69  73  80  86  97 101 105 102 104 115 113 112 118 109 103  94  96 101 107 103  91  88  89  92  92  88  91  96 105 109 113 113 118 121 123 121 110 101  92  86  80  75  66  64  64 132 177 184 184 183 182 181 180 178 176 178 177 171 147 129 125 127 126 125 122 123 123 123
 207 208 210 214 232 226 216 212 210 211 209 209 210 209 207 207 200 121  85  75  75  80  82  83  91  98 105 113 118 119 118 125 135 136 126 127 131 122 116 108 110 119 127 120 111 106 106 110 115 109 109 118 124 129 128 130 132 136 138 138 132 122 113 100  93  85  76  65  61  77 165 180 183 183 182 180 181 180 177 177 176 171 153 132 127 125 124 126 125 124 122 125
 205 209 208 210 219 226 221 214 210 210 210 208 209 207 206 206 173  91  78  81  87  91  92 108 118 121 127 125 128 134 139 146 151 146 144 146 147 134 129 127 126 131 143 138 127 131 131 131 135 131 130 138 145 149 144 141 145 153 153 149 146 142 129 118 108  97  84  70  63  63 127 178 183 183 183 184 181 180 179 177 176 173 158 133 128 125 125 125 125 124 124 124
 206 209 210 210 213 225 225 216 213 212 210 210 210 209 208 205 130  83  77  93  98 105 115 128 134 135 135 135 140 146 150 154 156 156 160 160 158 146 139 134 138 149 158 154 149 152 156 152 152 153 152 157 162 161 156 153 155 160 159 156 152 150 146 136 128 116  98  82  70  67  73 167 181 184 182 182 183 183 179 180 177 176 162 135 129 124 126 125 125 124 124 124
 207 209 209 210 213 225 225 217 216 213 211 211 211 210 209 195  98  80  86 101 110 124 128 133 139 140 145 149 150 150 154 155 158 162 168 167 163 159 154 146 150 160 166 165 160 162 166 162 162 166 167 167 165 166 162 159 159 160 161 157 159 156 150 148 144 132 114  93  74  68  70 122 180 186 184 184 183 181 181 181 177 176 167 139 131 126 128 127 126 123 121 122
 208 207 213 214 214 222 225 219 215 213 211 210 211 209 208 160  90  78  97 112 126 130 131 135 140 144 151 150 152 153 155 155 158 163 170 170 167 164 161 157 160 173 172 170 172 171 170 170 170 171 169 169 169 167 163 161 159 163 160 158 157 154 152 151 147 143 130 107  82  68  71  87 170 184 187 185 184 182 182 182 179 176 170 141 129 128 126 126 126 125 124 123
 210 210 213 212 215 222 225 220 214 213 213 212 213 213 209 122  81  84 107 123 129 131 132 133 144 147 151 153 148 148 154 156 159 165 168 168 166 167 167 170 172 175 176 175 179 177 174 172 174 173 169 167 164 162 160 161 161 158 157 156 154 154 153 152 149 146 142 122  96  73  70  74 134 182 187 187 184 183 184 183 181 180 173 146 130 130 126 125 126 126 126 124
 211 212 213 212 216 222 225 217 216 216 215 214 215 214 193  96  81  92 113 126 131 129 132 134 140 145 150 155 152 155 155 156 155 155 163 165 166 169 171 169 169 172 176 177 178 176 175 172 174 170 168 162 160 159 155 156 155 155 156 156 152 151 149 150 148 146 143 133 109  79  66  70 101 177 186 187 183 185 186 185 181 182 178 153 133 128 127 124 125 126 124 123
 213 214 214 216 215 221 223 219 215 215 215 215 214 212 164  83  82 104 123 128 129 132 131 134 139 143 147 148 150 152 152 153 156 156 159 162 163 165 169 167 164 165 167 171 176 177 175 171 169 168 165 160 158 157 155 154 152 156 154 154 151 148 149 149 149 144 144 139 118  89  69  63  75 160 186 188 187 186 186 186 183 183 179 158 135 129 128 127 126 124 126 124
 214 214 214 217 214 220 224 219 216 218 217 218 216 212 132  76  83 110 121 129 127 128 129 133 135 141 144 147 150 148 149 150 154 154 156 159 163 160 159 161 161 160 160 166 170 171 170 169 168 166 164 162 160 156 155 151 153 157 153 153 151 151 149 149 146 144 145 141 129 104  76  62  68 124 182 188 188 187 187 186 186 186 183 163 138 129 127 127 126 125 126 125
 214 217 215 216 217 221 225 222 220 219 218 218 216 213 101  76  89 111 123 127 126 128 129 132 132 136 139 142 144 143 144 147 147 154 155 158 160 157 156 156 160 161 158 160 159 167 167 165 163 166 164 161 161 157 156 155 155 156 152 153 150 152 150 148 145 144 142 141 133 110  84  68  64  93 179 188 189 191 188 187 186 184 183 169 142 130 126 126 125 126 124 125
 215 217 217 218 219 220 224 220 220 219 220 220 216 184  86  78  97 113 122 124 125 128 129 129 133 135 136 138 141 143 145 148 147 152 155 159 161 161 160 157 159 159 156 155 156 160 162 156 154 164 164 162 160 159 157 156 157 155 153 154 151 152 149 146 146 145 145 143 136 121  96  74  68  75 162 187 190 192 188 188 186 185 184 173 144 132 129 126 127 127 125 127
 216 219 219 220 219 221 222 223 222 221 221 220 215 146  78  79  97 115 124 122 123 125 126 130 131 134 134 135 142 143 145 147 146 151 154 154 158 160 158 158 157 156 152 153 155 159 159 159 160 164 165 163 161 160 160 159 158 158 156 153 149 151 149 144 144 144 144 142 138 126 104  83  69  68 139 189 193 191 192 189 187 188 186 176 150 131 130 127 127 124 125 125
 218 220 221 220 221 222 223 226 225 223 221 220 215 113  75  80 101 116 122 122 122 124 126 128 130 132 134 138 141 145 145 146 147 151 154 156 157 158 156 157 156 155 152 153 154 157 161 163 164 165 166 166 164 164 165 163 160 159 157 154 151 150 147 144 144 142 143 141 138 130 111  88  71  66 117 187 192 192 193 191 190 186 186 180 155 134 131 130 127 127 127 126
 222 222 221 221 222 222 223 226 226 223 223 221 204  90  75  81 102 117 120 118 120 120 119 120 126 131 133 135 139 144 147 148 148 151 155 157 159 158 157 158 158 158 156 155 157 157 162 163 166 168 167 166 165 166 164 165 163 162 159 157 154 149 150 148 149 144 142 141 136 133 116  91  73  67 103 186 192 193 195 193 190 188 187 183 159 134 128 128 127 127 126 126
 222 222 222 222 223 223 224 225 227 224 225 221 186  84  73  80 102 118 121 118 117 119 121 122 126 128 131 135 141 142 146 148 153 154 158 160 160 161 160 158 158 157 156 155 159 160 160 164 167 168 168 166 166 168 166 164 167 167 161 159 157 155 152 150 146 144 143 139 136 135 118  94  75  68  93 185 193 193 194 193 193 189 188 187 164 135 130 130 130 127 127 126
 222 223 223 222 223 223 224 225 227 226 224 222 168  77  74  82 103 116 118 116 117 120 122 125 129 135 134 140 144 148 149 153 152 156 158 160 160 164 163 161 160 160 159 160 161 160 161 162 166 165 167 169 168 167 165 166 166 166 164 162 158 155 152 150 145 144 141 138 135 130 123 100  75  66  85 184 195 196 195 195 195 192 189 186 170 140 133 131 129 129 128 127
 221 222 224 224 224 223 224 225 227 226 225 221 147  74  71  90 111 118 116 115 117 119 122 127 133 136 137 139 147 149 152 152 154 154 156 159 160 162 164 163 163 166 160 159 159 158 157 161 166 166 168 167 170 166 164 167 163 162 162 161 159 157 154 152 147 141 137 134 129 125 125 105  78  65  78 181 194 195 194 194 194 191 191 186 174 142 133 131 130 129 127 128
 221 222 222 222 222 223 223 224 225 226 224 220 142  74  72  86 114 115 114 113 117 120 124 127 132 136 137 140 147 149 151 155 152 151 154 158 159 159 162 161 161 164 163 160 160 158 156 158 161 160 164 166 164 162 159 158 158 158 159 159 158 155 156 152 144 139 134 128 124 122 125 110  84  69  73 173 195 195 194 194 192 191 189 186 178 146 134 129 128 128 126 126
 221 221 222 221 221 223 223 223 224 226 224 218 143  70  70  94 111 111 112 115 117 118 122 129 135 139 140 141 144 147 149 148 147 145 147 148 150 153 156 160 161 162 159 157 159 158 157 157 157 156 153 154 155 154 150 149 148 148 147 148 148 146 146 146 142 136 129 123 118 120 122 110  82  63  69 168 191 195 193 191 190 192 190 186 180 146 133 129 129 130 128 126
 220 220 222 222 221 222 222 223 225 226 223 219 155  72  72  95 108 106 106 108 111 117 121 128 134 134 136 138 139 136 133 134 134 135 135 138 141 148 153 154 157 159 156 153 153 154 152 154 151 149 145 140 141 137 132 133 129 128 130 134 129 129 128 126 125 117 110 114 115 116 118 109  84  64  68 150 190 192 193 192 192 190 189 187 182 153 135 130 129 128 127 128
 221 221 221 221 221 222 222 222 224 225 223 218 154  71  73  97 104 102 104 104 110 115 118 122 126 124 125 123 122 120 121 122 124 126 124 125 130 136 139 144 148 150 148 148 146 145 149 148 146 142 135 131 129 122 117 114 110 105 105 103 104 101 100  97  95  95  88  89 104 109 111 110  83  65  65 140 188 192 193 192 191 187 190 186 184 157 136 128 128 128 128 127
 220 220 221 221 221 221 222 222 223 223 223 217 154  73  73  99 103 101 100 104 104  99 104 105 108 108 111 104 104 103 106 107 106 109 112 116 120 126 128 133 140 143 140 139 139 141 139 142 140 134 128 120 110 103  92  85  78  70  68  73  77  76  75  70  74  75  71  67  72  91 103 104  85  62  62 125 187 194 193 192 191 188 188 187 184 162 136 128 128 127 127 126
 221 220 220 220 221 222 220 222 223 222 221 217 170  70  72 100 104 101 100 100  89  77  76  85  85  85  80  76  82  82  83  85  88  91  98 109 110 114 121 126 129 133 133 129 129 130 133 135 132 128 118 107  91  80  67  57  52  48  45  46  48  47  51  55  60  65  69  64  57  63  92 102  87  63  65 117 185 194 191 194 191 190 188 187 185 166 137 132 130 127 127 126
 219 219 221 222 222 221 221 222 223 222 221 218 175  71  71 102 103  97  98  87  68  61  60  62  62  59  52  48  49  50  55  56  61  64  73  85  96 106 111 115 120 123 125 123 125 128 128 124 123 118 105  96  79  69  57  48  43  38  34  35  36  38  42  43  45  52  68  71  73  71  86 102  90  64  61 115 186 192 192 192 190 189 188 184 184 170 141 131 127 127 126 125
 220 216 218 220 221 220 221 221 223 222 220 218 191  80  68 100 101  96  90  66  55  52  51  48  45  39  39  40  39  38  39  40  44  49  55  68  80  95 100 108 113 115 117 119 122 123 120 116 114 108 100  87  71  61  48  44  41  37  35  34  36  41  45  47  52  55  64  77  82  86  89 100  87  64  61 106 184 192 191 191 189 188 187 184 184 175 142 129 128 130 126 127
 218 219 218 221 220 219 220 221 223 221 220 218 202  84  67  98 100  96  74  56  54  50  44  43  40  38  35  36  33  32  33  34  34  40  47  56  67  81  90  96 103 104 108 113 118 120 114 111 108 105  94  87  70  57  51  49  47  48  53  63  66  68  66  67  66  68  71  78  84  85  88  97  90  66  61  98 185 191 192 192 190 189 187 185 184 176 148 130 128 130 126 125
 217 220 219 220 220 218 218 219 220 220 218 217 207  89  70  97 103  91  77  67  61  57  52  45  43  42  38  38  40  38  35  35  34  36  42  49  61  71  84  88  94  98 101 107 114 116 110 103 102 103  91  83  72  66  65  65  64  62  61  64  67  70  72  76  82  85  85  83  82  84  86  99  97  67  61 101 182 190 192 190 188 187 186 184 182 178 151 134 131 128 125 125
 216 217 219 219 217 219 217 217 219 218 218 216 209 111  69  96 101  92  79  71  65  64  54  48  50  54  57  55  52  49  49  50  48  46  47  49  56  68  79  84  89  90  95 103 113 113 108 103 100  97  92  84  78  76  75  66  54  49  51  49  54  57  61  69  81  87  87  86  84  83  87  99  96  68  62 106 183 190 189 189 186 186 184 182 182 180 157 133 131 126 124 127
 216 216 215 218 217 218 215 216 218 218 215 216 207 129  69  92 103  97  84  74  69  62  59  62  64  65  63  57  50  48  47  45  48  55  59  62  63  66  74  82  84  86  94 102 111 112 111 105  99  93  88  83  78  73  64  52  50  50  49  48  51  56  59  63  67  77  87  93  96  92  92 103 100  68  63 119 184 188 190 189 188 189 187 182 181 180 160 136 129 129 127 127
 216 216 217 217 216 218 216 216 218 217 216 217 210 150  72  91 106  95  81  71  70  70  70  71  66  56  49  48  44  44  44  44  43  43  51  56  62  68  72  77  83  88  96 106 115 117 112 103  97  92  88  81  74  63  50  47  45  44  44  46  46  54  60  68  72  70  75  90  98  99 100 105 106  70  68 139 185 190 189 189 188 189 188 183 182 181 164 136 128 128 127 127
 217 217 218 219 217 217 219 218 217 216 217 216 214 174  76  89 106  93  82  76  72  73  74  68  54  48  50  47  43  42  42  42  41  43  45  48  53  62  67  71  78  88 102 119 130 134 125 109  96  90  83  74  63  54  48  47  46  41  32  30  27  32  40  52  70  76  67  72  91  99 108 110 107  78  79 154 188 192 190 189 189 187 186 182 182 181 168 139 130 128 130 127
 217 217 219 220 219 218 220 218 218 219 218 217 214 194  88  85 108  91  85  81  79  73  66  54  54  52  51  43  41  39  36  39  42  41  44  47  48  55  63  69  74  90 118 144 152 158 147 121  97  89  80  69  58  50  48  48  53  42  27  24  25  32  41  59  51  58  68  67  86  98 111 115 111  82 100 178 185 183 185 187 188 188 185 185 184 182 174 145 131 130 127 126
 218 218 219 220 219 220 219 218 219 221 219 218 216 206 101  88 106  95  87  85  80  68  55  55  57  49  39  32  31  27  26  33  45  43  45  45  50  50  58  65  70  91 133 160 172 174 164 138  98  87  78  67  57  52  52  68  79  43  32  39  37  58  62  88  85  57  52  67  77  96 110 114 114  86 102 154 159 162 162 174 186 188 188 186 183 182 179 147 133 130 127 126
 218 218 220 220 218 219 218 218 219 220 218 219 215 205 134  85 107 101  93  86  78  60  56  50  44  56  49  32  24  25  27  32  65  70  49  46  47  48  56  63  70  94 144 168 184 187 175 149 101  82  80  69  62  57  63  81  88  49  38  44  40  39  47 103 105  75  59  61  78  97 109 113 115  88 106 129 142 142 133 142 180 187 187 185 184 183 180 150 135 129 127 127
 216 219 219 220 219 220 217 216 218 216 217 208 189 187 152  84 108  98  91  86  73  57  50  42  67  78  50  31  36  49  33  34  66  84  67  56  50  50  57  62  68 102 151 174 191 193 178 156 112  82  81  78  70  67  60  74  95  80  45  35  36  40  78 114  95  71  66  71  85  99 110 116 118  89 107 121 116 103  92 109 175 184 186 185 184 181 179 153 134 130 127 128
 217 218 220 220 220 220 220 220 218 217 205 155 142 130 105  85 106  99  94  85  75  63  49  54  81  88  62  33  34  32  34  35  78  84  66  50  49  52  60  61  74 120 157 175 191 196 179 160 132  95  84  78  67  55  50  51  61  73  70  57  54  72  87  82  74  75  81  91  95 105 113 119 125  97 108 111 106  95  89 117 179 186 189 185 184 182 180 160 137 128 126 126
 218 218 221 220 221 220 220 220 219 215 176 121 115 107 100  90 104  99  93  84  72  64  58  60  74  87  94  62  38  35  44  67  78  61  45  43  48  55  60  63  96 134 157 174 191 195 179 163 145 113  87  78  70  66  55  56  55  56  59  62  64  69  73  79  85  90 100 106 109 114 119 122 130 104 100 116 114  99  90 134 180 186 187 183 185 184 181 167 138 130 126 125
 219 220 221 220 220 221 221 219 218 214 166  97  90  89  90  90 101 101  95  89  80  78  76  64  64  67  73  79  72  63  63  58  51  50  49  53  56  57  61  78 113 132 156 173 185 188 176 166 149 129 100  86  73  67  62  58  59  66  68  72  79  81  87  93  97 104 106 111 115 120 122 126 131 108  95 122 118  98  91 143 182 188 187 186 187 184 183 171 138 133 129 126
 220 220 220 221 218 220 221 219 219 218 172  91  83  80  85  86 102 104 102  96  92  92  90  78  71  66  64  62  62  59  58  61  54  50  52  56  56  58  69 101 121 136 155 175 184 186 177 168 147 136 119  98  85  76  70  66  64  67  72  81  86  88  93  99 102 102 108 117 121 123 126 130 133 114 104 126 120  93  89 155 186 189 187 185 186 185 184 174 143 132 128 127
 221 221 221 220 219 221 219 221 220 218 176  94  83  84  90  85  98 109 105 104 101 101  98  88  80  76  74  70  72  71  66  62  60  55  61  59  59  69  92 117 125 133 156 172 187 186 177 171 150 138 130 114 101  90  82  75  72  74  76  80  83  85  87  92  94  99 113 123 124 125 130 131 132 118 101 124 124  86  98 164 186 189 188 186 186 186 185 179 147 133 128 128
 221 221 221 222 221 221 221 221 220 218 180  92  82  88  95  92  99 111 108 105 106 107 102  96  88  83  81  78  75  74  72  68  67  63  65  65  71  86 109 125 126 134 154 171 182 183 178 170 150 134 133 125 114 104  98  93  89  88  91  94  94  95 101 106 111 118 124 132 133 131 133 135 131 119  97 111 123  81 104 174 191 192 187 189 188 187 185 180 152 135 129 128
 222 220 220 222 221 220 221 221 220 219 196  97  83  89 103  98 100 111 109 105 107 110 106  99  96  89  86  81  79  76  74  74  73  72  74  80  88 103 118 126 129 138 149 165 180 182 178 170 151 135 133 131 125 122 118 112 109 104 104 106 110 111 114 118 122 128 130 132 138 134 132 135 130 115  87  98 122  91 127 181 192 192 190 189 188 186 186 182 157 133 131 129
 222 220 220 220 221 220 220 221 220 221 212 113  87  89 100  88  98 112 112 109 115 113 111 107 103 102  98  97  92  89  86  83  83  85  88  96 102 114 122 127 132 141 151 164 178 184 181 173 155 139 132 130 128 128 127 127 125 121 117 119 120 120 121 126 130 132 135 138 139 138 135 134 129 112  90 105 126 102 144 187 192 191 189 190 188 187 187 185 162 136 129 127
 222 221 221 220 222 221 221 222 222 220 217 146  88  91  96  87  94 112 116 115 113 116 118 114 111 108 104 103 100  98  95  92  94  97 100 106 113 118 120 126 132 143 154 166 183 192 183 175 158 142 136 131 130 131 130 130 131 132 131 132 132 129 130 131 135 139 139 140 141 140 138 134 129 110 104 110 120 112 166 190 194 193 191 192 190 190 188 186 166 138 129 127
 221 222 221 220 221 221 222 222 221 220 219 189 102  93  99  89  92 112 116 118 118 119 120 120 117 114 108 106 104 103 100 102 106 109 113 114 116 119 120 128 134 147 161 173 187 195 189 179 164 151 140 132 131 130 131 131 130 136 138 140 137 140 139 141 141 143 144 145 144 142 140 134 125 107 106 115 123 124 180 192 193 194 192 190 191 187 187 187 174 139 129 126
 222 222 221 221 222 222 222 222 221 221 221 215 149  98  99  88  93 113 120 122 121 122 122 118 115 112 111 107 107 109 110 114 120 119 120 116 116 120 122 129 140 154 169 179 191 198 193 184 174 159 144 131 129 131 133 132 133 137 145 149 149 153 153 153 149 146 146 145 143 143 140 136 124 106  96 116 127 144 186 195 196 194 194 192 191 189 186 186 177 144 130 127
 222 222 222 222 222 221 221 222 222 222 222 221 207 117 102  92  95 111 120 123 125 124 125 121 119 117 115 115 117 119 123 128 127 122 122 120 116 114 114 123 141 160 176 182 190 200 199 191 181 168 150 131 122 127 133 135 137 142 146 154 158 160 160 159 157 148 146 143 143 142 139 134 120  97  95 126 130 160 190 196 195 195 193 192 192 188 187 187 179 146 133 128
 223 222 223 222 222 222 222 224 223 222 224 224 219 158 105  98  87 108 117 125 126 127 128 125 126 125 122 123 128 131 135 137 134 128 127 123 115 112 107 119 147 165 180 183 189 192 189 192 188 176 158 138 123 121 129 131 136 144 146 150 153 156 159 159 158 152 145 142 141 140 136 131 116  96 119 136 136 174 194 195 196 195 193 194 191 190 188 188 182 153 133 128
 224 221 222 223 223 222 224 225 224 225 224 224 222 204 116 105  89 105 119 127 129 130 130 130 133 133 132 136 137 140 140 142 141 135 129 122 114 105 109 125 147 166 176 179 180 174 176 180 186 178 161 149 135 118 120 125 129 134 141 143 144 148 153 154 153 153 147 144 142 140 130 126 115 106 127 129 141 185 196 196 197 196 195 195 191 190 190 189 184 157 134 129
 224 223 224 223 223 223 223 223 223 223 223 224 223 219 147 108 105 111 118 123 127 130 134 134 136 140 138 142 144 144 144 144 141 133 127 116 104 103 132 134 144 159 165 168 168 164 167 173 175 172 158 147 144 124 112 113 123 130 132 136 140 144 146 149 148 149 144 143 141 138 129 122 106 113 129 134 163 191 197 195 195 196 192 193 192 191 192 188 185 166 135 128
 223 222 223 223 223 223 224 222 223 222 224 223 222 220 196 111 103 112 115 120 125 130 133 134 141 142 141 143 145 144 141 140 135 132 121 106  98 112 139 131 136 147 154 159 161 159 161 165 165 164 156 143 134 133 111 109 114 123 127 131 132 142 142 146 145 142 140 141 139 134 127 118 104 119 134 140 175 191 195 194 194 193 192 192 191 188 190 188 184 170 138 128
 220 221 221 222 221 221 221 221 221 221 222 222 222 221 213 153 109 112 116 118 122 129 134 136 139 140 143 144 143 141 140 134 125 121 112 100  95 116 129 128 128 134 143 150 154 153 154 156 159 161 152 134 123 128 115 114 108 113 120 123 126 136 138 138 138 136 137 136 135 130 125 115 101 121 130 154 185 193 196 194 192 192 190 189 190 187 187 188 184 171 138 127
 220 221 222 222 221 221 221 222 222 221 222 221 220 221 217 197 128 115 116 118 123 127 130 135 136 136 138 140 137 134 133 128 118 109 103  96  94 110 118 114 116 122 129 142 143 145 146 147 149 150 135 116 110 112 116 119 110 108 111 115 122 127 131 130 131 134 135 133 129 124 119 112  99 120 139 177 191 195 195 194 193 190 188 189 188 187 186 184 185 174 144 128
 217 219 220 221 221 221 220 221 222 221 220 221 220 221 220 212 185 125 114 115 122 127 128 131 129 131 138 137 131 130 125 120 110 100 101 103 100  97 101  96  97 106 114 125 127 129 130 134 131 126 107  98  98 104 119 127 120 109 106 110 118 123 123 127 130 129 130 127 126 123 116 105  98 130 172 188 193 194 194 194 192 189 190 191 188 187 185 184 183 179 144 128
 218 217 219 219 220 219 219 220 221 220 220 219 219 221 220 216 208 160 113 114 116 122 125 126 128 126 127 127 126 124 118 109 104 102 106 111 107  94  88  85  79  85  91 104 107 107 111 114 112 103  88  80  89 108 128 138 132 120 108 109 112 120 123 126 124 125 125 125 121 119 113 104 128 181 188 192 196 194 193 194 193 190 189 187 188 187 185 185 182 177 150 126
 217 215 219 219 218 219 217 218 216 218 218 218 218 217 218 219 216 210 157 118 114 119 120 120 123 121 123 120 121 118 111 105 103 109 118 121 116  97  82  73  64  70  82  88  95  96 100 105 102  93  82  78  91 111 134 141 140 134 121 112 112 117 122 122 123 125 122 121 119 115 109 105 143 185 192 192 195 192 191 192 192 188 188 186 186 185 185 183 180 177 152 128
 215 218 218 217 217 216 217 216 217 217 216 217 217 217 216 216 216 214 207 133 113 113 116 118 120 118 117 115 115 110 109 107 107 118 128 130 124 106  83  71  58  62  71  78  88  88  91  93  90  80  73  76  87 107 133 142 144 143 136 124 118 114 115 118 119 121 120 116 116 114 106 106 148 185 189 191 193 190 189 187 189 189 188 186 185 185 182 182 178 178 155 129
 213 214 216 216 215 214 215 216 218 218 216 216 215 212 216 215 216 214 200 136 116 112 111 114 112 114 111 108 109 106 109 112 121 134 136 134 129 106  81  65  52  50  53  61  75  82  84  79  72  66  63  68  68  91 122 133 140 139 138 132 123 115 113 118 119 120 117 114 110 109 105  98 116 169 185 187 187 188 189 188 187 186 186 186 184 183 182 180 179 178 163 132
 213 213 213 211 212 214 214 214 214 214 213 212 213 212 215 213 214 212 206 144 113 107 106 105 107 106 107 108 107 108 112 119 126 129 129 127 123  95  69  52  45  40  40  49  59  72  70  59  55  52  48  52  55  78 106 115 120 123 124 125 124 123 121 118 118 118 117 116 111 110 104  92  53  43  87 147 183 186 186 185 185 185 185 184 183 180 181 179 179 176 164 133
 210 209 210 211 211 211 212 211 213 213 213 210 212 211 212 212 213 211 205 138 106 101 106 106 107 102 102 104 105 107 111 120 118 112 111 106 100  80  62  46  40  36  34  39  48  58  56  47  43  42  37  43  50  69  91  97  95  95  92 102 121 126 126 120 117 118 118 114 112 110 106  84  41  28  30  40  89 162 182 185 185 183 183 182 181 179 180 180 178 177 168 136
 209 209 209 209 210 211 212 210 209 210 212 210 211 210 210 211 210 208 201 151 105  97 101 105 105 104 103 103 105 109 110 102  94  96  94  88  89  70  53  47  43  39  35  34  39  51  49  41  41  39  33  42  52  65  74  84  78  79  75  77  91 119 124 123 118 117 118 112 110 106 101  70  34  27  22  23  34  46 121 179 182 183 182 180 182 179 179 181 177 174 167 138
 206 208 209 208 206 208 207 209 208 209 208 209 208 208 210 208 210 207 205 166 103 102 100 104 106 103 107 106 106 107 100  78  78  75  82  82  79  59  51  49  44  44  39  37  36  47  46  38  42  40  41  49  58  66  72  82  73  70  64  67  77 103 116 121 116 111 114 113 108 106  96  59  24  21  23  19  18  25  36  90 173 182 180 179 179 180 177 178 177 173 168 141
 206 205 206 207 207 206 207 208 208 208 208 209 208 207 207 208 208 209 206 188 102  98 101 103 104 103 105 106 108 107  81  67  60  62  70  76  72  62  60  56  48  45  44  37  35  43  40  39  44  45  48  56  60  72  78  85  71  66  66  65  69  88 113 119 114 112 110 110 108 104  90  46  20  17  19  21  17  17  24  34  85 170 177 178 178 178 175 174 175 173 170 146
 207 207 206 206 208 207 208 208 208 208 208 209 208 206 207 208 208 207 206 196 113  99  96 100 102 101 104 106 106  94  71  63  59  63  62  75  71  72  71  62  55  48  58  49  48  49  49  54  62  64  68  77  71  81  88  89  82  74  70  69  69  82 106 115 116 111 108 108 106  99  80  34  19  15  16  18  19  16  16  19  30  82 171 176 178 175 176 176 176 173 171 153
 205 207 205 206 206 207 209 208 205 207 208 207 207 206 208 206 208 207 205 199 140  95  97  98  99 101 101 103 105  90  70  66  66  64  69  80  82  85  85  73  70  67  74  79  82  83  84  86  84  80  84  90  84  89  94  92  83  67  64  68  75  84 100 111 111 107 104 107 103  91  64  28  18  13  12  16  18  20  15  15  21  33  91 169 175 177 176 176 175 175 173 155
 205 206 206 204 205 206 206 205 208 207 207 207 209 207 207 206 208 206 205 200 151  92  92  95  99  97 100 100 100  79  73  73  65  55  62  76  79  75  73  71  69  70  68  71  76  82  84  79  81  74  74  79  73  75  70  65  58  61  59  65  80  87  99 110 110 107 106 105  99  84  50  17  14  12  13  14  19  24  18  13  15  19  34 106 170 177 176 174 177 174 173 159
 203 205 204 205 204 205 206 206 205 205 205 204 205 207 205 204 204 204 203 194  93  76  89  94  95  96  97  99  96  81  78  71  57  54  51  54  54  56  58  60  63  66  66  66  64  68  68  69  71  67  65  61  60  64  68  67  72  80  72  74  84  90 102 106 106 106 104  99  89  71  33  14  11  11  13  13  17  23  23  19  13  15  24  37 120 170 175 174 174 173 172 162
 202 203 204 201 203 203 204 205 203 204 204 204 204 203 204 202 201 199 194 102  44  50  82  90  94  94  98  98  95  86  81  73  65  68  67  66  69  64  59  56  54  54  53  53  50  52  51  54  57  56  60  66  71  80  84  85  94  92  86  86  90  97 104 104 104 104 103  96  79  59  22  12  11  10  11  12  15  23  24  22  15  12  18  27  40 119 171 171 172 171 169 166
 202 201 202 201 203 204 204 204 204 203 204 204 203 204 203 203 201 192 102  49  30  32  67  84  92  94  95  95  92  90  83  77  77  78  84  82  79  76  72  71  68  67  59  55  50  49  50  57  63  68  76  80  79  82  90  98 104 101  98  99  98 102 105 106 104 104 100  89  68  39  15  10   8   9  10  12  17  23  24  25  17  12  15  20  28  37  83 161 171 172 171 167
 203 202 202 204 203 204 203 204 204 203 204 203 203 203 202 201 192  88  41  30  25  25  44  77  89  92  89  91  91  90  88  85  85  86  86  89  87  82  73  69  68  71  73  73  70  70  73  75  77  77  77  78  82  92 102 104 106 106 108 106 104 103 106 103 101 100  93  74  56  25  12   9   9  10   9  12  16  21  23  24  22  12  13  17  23  32  41  82 163 169 170 169
 200 201 204 202 202 202 201 202 202 202 202 201 202 202 202 199 118  46  32  24  21  20  29  61  83  88  86  90  92  92  92  86  87  90  91  91  90  87  84  74  67  71  76  77  76  80  77  75  72  72  78  84  96 102 102 103 106 108 111 108 102 104 107 101  99  96  86  69  50  18  12  10   9  10   9  11  15  21  23  23  22  14  13  16  20  26  32  38 107 162 163 162
 201 201 201 200 202 202 200 201 200 202 202 202 202 201 199 184  53  36  26  21  19  14  18  40  67  80  85  90  90  89  87  87  90  94  95  92  86  86  88  81  72  69  70  72  72  77  77  76  75  79  86  90  94  96  94  97 105 109 109 106  99  99 102 100  98  92  77  64  65  19  12  11   9   9   7  11  16  19  20  22  24  16  12  12  19  24  29  33  45 145 154 156
 199 199 202 199 199 199 202 202 201 201 201 202 201 199 194  92  38  27  21  20  17  12  14  22  46  69  81  85  86  82  78  80  91  93  93  89  85  81  81  76  79  76  75  77  74  77  82  81  81  82  83  84  87  88  96 103 105 105 102 100  94  91  98  97  96  84  71  80  91  24  11   9   9   8   8  10  16  20  21  23  23  18  12  12  17  21  25  30  40  96 155 159
 198 199 201 200 200 199 202 201 202 199 200 201 200 198 115  52  31  24  23  18  13  13  12  13  31  51  71  77  83  79  77  82  88  90  90  90  90  87  79  72  69  67  65  61  61  61  63  62  65  71  73  76  82  94 102 105 108 101  92  90  90  88  95  98  90  76  70  93 101  37  14  10   9   8   8   9  14  20  21  22  25  23  14  11  12  20  25  31  32  44 119 128
 195 195 196 196 196 194 195 196 194 196 194 193 192 172  49  40  29  24  21  19  13  13  12  12  19  30  55  69  80  75  72  81  83  88  90  91  92  89  84  80  73  69  56  49  42  39  42  42  48  56  64  77  85  94 102 106 103  98  92  87  85  85  90  92  83  70  82 103 101  51  18  11   8   6   6  11  17  21  21  21  22  25  18  12  11  16  22  28  29  31  91 114
 160 158 158 157 155 154 151 149 150 151 147 145 143  86  39  32  26  22  20  16  13  12  13  12  12  20  40  63  71  69  71  75  80  89  93  98  94  90  94  88  82  75  62  54  42  37  43  39  49  63  77  86  93  99 107 110 108 103  92  88  75  79  89  87  75  78  99 106 102  61  22  11  10   8   4  10  17  22  21  21  20  23  20  12  10  13  19  26  28  28  51 105
 129 128 130 129 128 130 132 129 132 129 129 128 122  47  33  30  25  23  19  15  14  12  12  12  12  13  25  47  65  68  69  74  83  89  92  97 101  97  97  92  87  86  79  74  63  61  62  63  67  79  90  94 102 105 106 111 110 107  90  86  76  75  87  77  71  92 103 106 101  74  26  12  10   8   5  11  15  20  21  21  23  21  20  15  11  11  17  24  29  26  33  38
 122 125 125 124 124 126 127 128 124 124 123 122 109  30  30  28  24  20  19  14  12  12  11  11  11  14  16  31  54  65  63  66  74  85  94 102 103 103 100  94  90  88  79  77  78  76  68  73  75  75  89  96 104 108 104 107 106 103  91  76  72  62  72  66  79  98 104 106 103  85  31  16  11   9   6  11  16  19  20  20  24  24  19  13   9  12  19  24  27  24  24  24
 120 122 122 122 120 121 123 122 121 124 122 105  56  30  27  26  21  20  17  13  10  12  12  10  11  13  13  26  49  54  56  54  68  79  94 101 102 107 103 102  95  88  82  85  82  75  61  76  78  78  86  95 100 103  92  98  95  85  80  69  69  58  60  66  90 101 103 105 103  90  36  18  10   8   6  11  15  19  19  20  20  19  17  15  10  12  17  20  27  19  21  18
 120 119 120 119 120 122 118 120 120 116  79  43  35  26  28  23  20  20  17  13  10  11  11  10  11  12  14  23  58  49  48  52  58  74  84  91  94  99 103  99  88  85  87  87  76  72  74  78  79  79  82  86  91  95  74  82  78  65  68  59  55  50  55  83  96 102 104 105 102  88  49  20  11  10   8  11  17  19  17  19  20  18  17  13  10  10  17  20  26  22  21  20
 118 119 117 116 117 120 119 119  99  58  39  30  26  24  27  22  21  18  15  13   9  11  11  10  10  10  12  22  61  56  39  39  50  62  71  77  80  81  91  93  82  78  85  82  68  71  71  75  78  74  76  82  82  79  61  60  63  51  55  50  42  46  72  89  98 105 105 102  98  86  49  23  11  10   5  11  17  18  19  16  19  18  18  12  11  10  15  18  23  22  20  19
 116 116 117 116 117 119 114  78  43  35  26  22  21  23  26  20  21  17  18  13  13  12  13  11  10  10  12  22  61  67  50  33  38  53  57  67  65  62  68  75  78  76  82  74  66  65  70  69  71  70  70  70  66  68  57  48  51  44  47  38  37  57  84  94  97 105 102 102  94  84  47  26  11  10   8  12  16  18  18  19  20  19  17  12  11  11  13  18  21  18  17  17
 116 117 116 116 114  94  53  33  32  25  19  19  20  23  24  20  21  18  16  12  13  14  12  10  11   9  11  20  58  70  70  49  34  41  47  57  52  51  53  65  69  71  76  71  65  59  62  60  67  66  61  57  59  57  47  42  39  44  38  33  54  77  87  92  98 103 106 103  97  79  40  30  12  10   8  12  17  18  19  18  18  15  16  10   8   9  15  18  20  16  15  18
 115 116 113 104  66  39  34  28  25  21  20  18  17  22  25  20  21  17  15  10  10  12  11   9  11  10  10  23  58  70  72  70  56  40  36  41  46  48  50  55  64  68  65  63  58  55  54  53  57  56  53  51  53  46  40  36  34  37  30  45  74  83  87  93 100 105 106 104  94  71  39  29  12  10   7  12  17  17  16  16  17  16  15  10   7  10  15  17  18  16  14  16
 112 108  77  40  37  28  25  23  22  22  22  18  16  20  24  20  18  18  14   8  12  11  10  10  12  10  11  29  52  63  69  73  71  49  27  26  40  41  44  48  49  54  55  49  46  49  46  42  43  41  43  45  44  39  33  30  30  35  49  78  87  87  91  93  97 103 107 102  90  66  42  31  12  10   7  13  17  19  17  16  18  18  18  11  11  11  16  16  13  14  12  12
  88  45  34  29  25  23  21  20  21  20  19  19  15  20  20  18  18  19  13   9  12  10   9   9  10  12  11  38  48  62  67  71  74  64  40  26  28  30  33  38  39  42  39  35  31  33  34  33  29  29  30  34  34  31  28  32  48  69  77  86  86  86  90  94  98 100 101  98  88  55  44  28  10   8   6  13  17  19  19  18  21  19  17  12  11  11  14  17  14  12  12  12
  34  29  26  22  20  22  18  18  18  20  18  16  15  21  19  17  19  16  12   7  10  10   9  10  10  10  13  44  48  63  67  71  75  70  66  48  33  24  26  27  30  31  28  26  24  22  19  23  23  21  22  27  27  39  54  64  77  81  85  85  85  84  86  95  97 100 101  94  79  52  49  22   9   9   6  12  16  19  19  17  18  18  17  12  11  10  16  18  14  10  13  13
  29  23  21  20  20  22  18  19  18  16  17  18  16  21  19  19  20  16   9   8  10   9   8   8  12  12  13  42  51  62  66  70  72  70  70  65  52  38  35  28  26  26  22  22  24  23  23  23  31  34  38  51  63  74  82  84  84  84  88  84  82  84  86  93  98  94  95  89  72  48  50  18  11   7   7  13  16  18  17  17  18  17  18  14  10  10  14  16  10   9  12  12
  21  19  18  18  20  18  16  17  16  17  16  18  15  19  17  19  19  15  11   8  11  10   8   7  11  12  10  28  58  59  67  68  71  71  72  68  61  56  52  49  52  51  53  51  55  50  54  59  61  65  67  78  83  83  91  91  89  87  88  83  81  85  86  92  96  94  90  81  61  47  48  14   9   7   7  13  18  20  16  17  16  17  14  13  11  11  13  15  10   9  12  11
  17  18  19  18  16  18  14  17  14  16  16  15  16  18  17  20  19  15  12   9  10  11   7   8  10  11  11  17  61  55  65  69  69  70  69  68  64  58  56  59  65  67  68  72  72  71  69  73  76  79  78  88  90  91  93  92  87  85  84  77  79  84  85  90  92  91  86  75  55  49  43  12   9   6   4  11  18  20  18  19  19  20  19  13  11  11  12  13   8   6  11  11
  17  19  19  16  16  17  15  15  17  16  14  11  14  17  19  20  19  17  12  10  11   9   7   6   8  11  12  16  53  54  62  68  67  68  68  69  68  59  54  60  61  67  70  75  75  73  77  80  84  82  86  89  93  93  93  88  85  85  80  77  80  82  88  90  90  86  79  67  53  58  38  10   9   4   5  11  17  16  16  15  17  18  16  13  11  11  12  12   8   7   9   9
  19  16  17  16  15  13  14  14  18  16  13  12  11  16  17  20  19  16  11   8  10   9   8   7  10  10  10  13  33  64  59  67  68  66  65  70  69  63  55  56  61  63  68  71  77  76  79  82  85  88  89  89  95  92  90  86  79  78  73  74  78  82  87  88  86  80  72  61  53  65  19   9   7   6   6  13  18  20  18  18  19  18  19  14  10  10  12  12   9   8   9   9
  17  16  15  14  17  15  15  16  17  16  13  12  12  14  19  19  20  17  11   7   8   8   9   6   9   9   9  10  16  62  53  63  68  66  65  69  70  66  59  53  54  57  57  64  73  76  80  85  87  89  88  90  93  90  84  80  73  74  77  76  76  87  87  87  82  74  65  59  64  48  13   8   7   4   5  12  19  18  17  19  19  20  17  14   9  10  12  11  11   8   7   9
  15  15  17  14  16  16  14  17  16  14  11   9  10  12  16  18  18  16  12   9   9  10   6   7   7   8  11  11  14  36  71  55  68  68  69  69  71  68  63  56  54  53  56  58  67  71  77  81  85  86  89  87  87  84  75  75  73  74  73  74  80  87  87  83  76  68  61  61  76  26  12   9   6   4   6  14  18  19  16  18  20  17  16  14  10   9  11  10  12   7   7   9
  15  18  17  17  14  14  14  13  14  11  12   9   8  10  16  18  19  15  13  10   8  10   7   7   8  10   9  10  12  23  61  68  59  67  68  69  70  68  69  64  54  53  55  55  59  63  73  75  79  83  86  84  77  76  72  72  70  74  74  75  81  84  84  78  71  65  60  66  57  19   8   6   6   4   6  13  18  19  17  18  19  19  17  16  10  12  10  10  13   9   7  10
