P2
# Generated by OpenCV 3.4.0
92 112
255
 183 191 202 210 205 193 187 182 180 179 179 177 179 178 179 177 177 178 178 180 180 178 176 178 177 175 176 176 176 177 176 176 174 176 175 175 174 174 175 173 173 175 175 172 172 172 171 172 170 164 165 169 168 168 167 167 167 165 163 165 164 164 162 161 160 159 159 157 158 157 156 155 154 153 152 151 150 150 147 139 114 106 106 108 107 104 101 103 104 102 100 102
 185 203 236 248 243 224 195 187 182 180 180 179 180 179 177 178 178 179 178 177 178 178 178 177 176 177 176 176 176 177 177 177 178 177 176 174 175 176 176 176 175 172 173 172 173 173 172 174 172 165 165 169 169 168 167 167 167 166 164 166 165 163 162 162 162 160 158 158 158 157 156 155 154 156 152 152 150 147 148 143 117 105 105 106 105 104 106 104 103 102 102 102
 189 224 251 253 253 245 222 197 186 181 181 179 179 179 177 178 178 178 176 177 178 178 176 176 177 176 175 176 176 176 175 177 176 175 175 176 175 175 175 175 175 174 174 173 173 173 172 172 169 167 165 169 169 168 166 166 167 166 165 164 164 164 164 163 162 161 160 158 156 157 157 155 154 154 151 151 151 150 148 145 122 108 105 106 105 104 104 103 103 103 104 103
 188 229 252 253 253 251 240 214 188 183 180 181 180 181 179 177 177 176 178 177 179 178 177 177 177 177 178 176 176 177 176 178 177 176 175 176 174 174 176 173 173 173 173 172 171 172 170 169 168 167 161 167 167 168 167 165 165 167 166 166 164 163 162 163 162 160 159 158 157 157 156 155 153 154 153 153 153 151 149 146 127 110 108 106 106 106 107 104 103 104 103 102
 188 226 251 253 253 252 241 220 194 184 181 180 180 180 178 179 177 175 176 177 178 178 178 177 176 178 177 177 177 176 174 176 176 176 177 176 175 174 173 173 171 170 168 167 167 165 156 155 155 149 149 157 163 164 167 165 166 164 164 163 163 162 163 159 161 161 157 158 156 154 157 156 156 155 153 154 153 151 148 146 131 111 108 107 106 104 105 104 105 103 102  99
 187 209 246 253 253 250 238 215 196 186 183 180 181 179 178 179 178 178 177 178 177 180 179 177 179 179 178 176 177 174 176 177 175 176 176 175 175 174 172 170 152 125 124 113  90  87  62  60  56  53  69  86 116 146 159 160 163 165 163 164 163 162 163 162 161 162 160 159 157 158 157 155 156 155 154 155 151 150 149 147 135 113 108 108 109 105 105 104 105 103 104 102
 189 201 230 248 249 243 230 205 192 188 186 183 181 180 180 181 181 181 180 180 181 181 181 181 181 181 181 181 178 178 180 178 180 180 178 178 175 166 139 108  55  42  38  40  35  37  32  31  29  29  32  35  34  50  70  87 133 158 165 164 164 162 162 161 160 163 160 161 159 158 157 155 157 156 155 154 154 153 149 149 141 117 109 106 107 106 106 106 104 104 106 103
 189 196 216 237 238 233 214 200 191 188 184 186 185 185 186 184 183 184 183 184 182 183 181 182 184 182 182 181 181 181 181 180 181 179 174 165 124  75  44  35  32  27  25  26  24  24  24  23  23  21  24  23  23  26  28  32  41  88 144 159 163 164 165 164 163 165 164 164 164 160 158 159 158 158 156 156 156 156 153 152 146 118 111 109 107 106 105 103 103 105 103 104
 189 194 207 225 219 210 202 194 190 190 185 186 186 186 188 186 186 185 185 183 184 183 183 183 185 186 183 182 182 181 181 182 180 174 146  82  39  34  28  25  22  19  20  19  19  19  18  18  18  19  18  16  20  19  18  20  25  30  40  79 125 159 164 166 166 166 165 164 165 162 163 161 161 160 160 157 157 157 154 154 148 122 110 107 109 107 106 106 107 105 103 105
 189 194 204 218 209 200 196 192 190 188 188 185 185 187 188 186 188 187 184 184 184 184 183 184 185 182 183 182 183 182 180 180 164 112  58  32  27  24  22  20  17  18  16  16  19  17  17  16  17  17  14  15  16  17  17  18  20  21  22  30  40  80 143 162 166 166 165 164 164 165 164 162 162 158 159 158 156 156 155 154 148 126 109 108 109 105 108 107 107 105 103 104
 189 192 201 220 221 202 194 189 188 188 186 188 186 186 189 184 186 188 186 188 185 185 184 183 182 183 184 184 184 184 178 164  89  42  33  25  21  19  19  17  16  17  16  17  18  17  18  16  18  16  16  17  15  17  16  17  17  19  18  21  25  32  55 118 148 161 165 165 165 166 164 164 162 161 160 159 157 157 157 155 151 132 114 109 108 106 107 107 108 105 106 104
 189 192 196 218 242 207 194 190 188 189 187 189 188 187 189 187 187 187 186 187 184 185 185 184 185 183 183 182 183 179 140  76  44  32  26  21  18  19  16  19  17  17  16  17  16  18  16  16  18  16  15  16  14  17  16  15  15  17  19  17  19  22  28  36  67 135 162 166 166 166 163 166 162 162 161 161 160 158 156 155 154 138 117 111 107 106 107 109 108 104 106 107
 188 190 192 207 225 205 196 194 191 191 189 190 191 189 190 190 191 190 189 189 188 187 188 188 187 185 184 181 170 129  62  45  33  25  23  20  19  18  17  18  18  19  20  19  18  19  18  17  18  17  16  16  14  14  16  16  15  16  18  16  17  18  19  26  31  56 133 162 166 164 164 164 162 164 162 162 160 157 158 155 155 144 119 112 109 107 108 109 108 106 107 107
 188 191 192 202 226 208 196 195 192 191 190 192 193 194 194 193 195 195 194 192 191 190 190 188 187 185 182 163 106  70  51  41  31  25  22  21  17  19  20  18  22  23  23  25  22  20  22  20  20  18  18  16  15  16  17  15  16  18  18  18  18  16  15  19  23  29  55 135 162 165 167 166 166 165 163 164 161 161 157 159 157 149 121 112 109 108 107 104 106 107 108 107
 190 191 193 204 229 212 197 195 194 194 192 194 194 196 198 195 197 195 194 192 192 190 190 189 191 182 150  96  73  65  51  40  31  26  24  22  21  24  22  21  24  26  26  26  27  27  28  25  24  21  21  20  18  17  18  19  16  19  18  18  16  18  16  17  19  23  28  59 144 164 168 168 167 166 165 164 162 161 160 158 157 151 123 110 110 109 108 104 104 107 105 105
 192 192 196 206 231 212 199 195 193 194 196 194 195 194 195 193 194 193 194 193 192 193 191 192 190 170 104  69  58  54  54  47  39  31  26  25  26  26  28  30  30  29  32  31  29  30  31  27  25  24  23  22  20  22  22  22  23  21  20  21  20  20  17  17  20  23  22  29  67 156 164 166 166 167 166 167 164 163 161 160 159 154 129 112 110 108 111 108 106 110 107 106
 193 192 195 203 225 212 199 197 195 197 198 196 195 193 193 198 195 194 194 194 194 192 193 193 189 153  92  55  47  44  46  44  44  36  29  30  34  35  34  34  34  38  38  32  33  35  34  31  28  29  28  26  24  24  26  28  28  29  26  25  26  25  25  23  23  21  24  25  30  80 160 166 169 166 168 166 166 164 162 162 161 157 136 115 110 110 109 109 108 108 106 107
 192 194 198 201 216 211 202 200 198 198 198 196 198 195 195 195 196 195 195 196 197 195 195 194 189 146  77  51  45  43  42  42  42  40  40  42  48  53  49  40  38  46  50  42  41  42  43  39  33  32  34  35  30  32  35  40  42  43  37  34  37  36  33  28  26  26  23  23  27  33 127 166 169 168 169 168 167 165 166 164 162 160 142 117 110 112 111 109 109 109 108 106
 195 195 195 198 205 216 209 204 200 198 200 199 198 198 198 197 196 198 196 197 197 196 196 196 190 127  68  49  47  44  46  46  49  52  54  60  63  69  66  56  50  54  60  55  47  49  52  49  44  45  44  49  50  52  54  58  64  66  62  56  52  51  47  40  35  32  28  25  25  28  46 148 167 170 170 169 169 166 167 165 166 160 147 120 111 111 109 109 108 109 107 106
 196 198 199 198 203 217 213 204 201 201 201 200 199 199 197 199 199 199 198 199 198 199 197 196 180  99  61  50  53  52  56  66  71  74  76  82  81  86  77  75  65  68  73  69  64  63  66  66  63  65  71  79  81  81  82  84  92  89  80  73  69  66  60  58  48  43  35  29  25  25  31  77 161 169 172 170 170 168 166 167 167 162 151 122 114 111 109 110 108 108 108 107
 197 198 198 199 203 215 213 204 203 202 201 199 199 200 199 199 199 199 200 200 199 199 198 194 161  81  64  65  64  73  83  87  92  96 102  98  98  98  92  86  82  86  92  88  84  85  87  88  86  87  90 102 102 103 103 108 113 110 107  96  88  82  77  72  66  58  46  35  28  25  25  32 108 165 169 172 172 170 168 166 166 164 158 126 114 111 110 109 109 107 107 109
 198 198 200 199 202 213 214 204 203 202 202 201 201 200 201 200 201 200 199 199 200 200 200 195 134  77  75  78  90  97 100 104 112 116 116 112 110 105 100  98  98 105 111 106 106 110 107 111 104 111 117 122 119 120 122 125 127 124 122 118 108  99  90  82  78  71  60  45  35  29  26  30  49 145 169 173 173 171 170 168 167 168 160 127 116 111 110 109 110 108 107 107
 199 201 200 200 202 210 214 206 203 203 202 202 201 202 202 201 202 201 201 203 200 201 200 183 106  83  91 103 106 107 113 120 124 123 125 123 121 117 111 106 113 123 131 127 132 131 126 132 129 133 146 144 137 133 133 135 133 131 128 128 124 115 109  97  88  78  71  58  47  37  31  28  32  77 164 173 174 173 172 170 169 166 162 134 117 112 112 110 109 109 109 110
 200 202 202 201 201 209 214 206 204 204 201 202 203 203 205 203 204 203 203 202 203 203 200 159  92  98 108 111 113 120 122 125 127 128 127 129 128 126 124 119 126 134 141 141 145 145 141 143 145 146 151 151 146 138 138 135 137 134 134 133 129 126 121 113  99  90  78  66  54  45  38  32  33  38 126 170 174 173 173 172 169 167 165 142 118 115 113 112 111 111 110 110
 200 201 202 204 203 210 216 206 204 205 204 203 204 204 206 204 204 202 203 203 203 205 192 127  95 109 110 113 117 119 123 129 126 127 129 132 134 131 131 133 137 142 148 150 152 149 150 150 147 148 151 149 146 136 137 137 135 134 134 132 130 128 127 122 112  98  87  72  59  50  47  38  34  38  64 161 173 174 174 171 169 168 168 146 119 112 112 111 110 112 110 111
 200 200 200 202 204 207 213 206 205 205 204 203 204 205 206 204 204 204 202 204 204 202 185 101 103 110 109 113 117 121 124 130 128 127 131 133 133 135 137 136 138 143 149 152 152 152 152 150 146 144 144 141 136 135 135 134 135 135 132 130 129 129 128 124 120 109  94  75  56  49  47  42  37  36  42 117 168 173 173 172 170 169 168 150 120 113 112 110 110 110 111 110
 200 201 201 201 203 204 211 205 204 203 202 203 202 201 204 203 203 202 204 202 202 198 155  94 109 109 110 114 118 121 126 127 128 129 130 129 134 137 136 135 135 144 147 150 152 151 150 149 145 141 138 135 132 133 132 132 133 131 130 130 129 127 127 126 122 114  97  78  62  51  48  45  41  39  44  79 164 171 172 172 171 170 167 155 124 115 114 111 112 112 111 108
 198 201 200 200 200 202 206 205 201 201 202 201 201 200 203 202 202 201 201 200 201 193 125 102 106 108 110 113 118 120 127 127 129 127 126 127 131 134 135 133 133 135 142 148 149 149 148 146 142 139 136 132 132 130 131 128 130 129 129 129 128 129 124 122 119 116 103  84  67  52  48  47  43  42  42  60 148 170 171 170 169 168 167 158 126 114 116 112 111 110 110 111
 199 200 199 198 199 200 201 209 207 204 203 202 203 203 203 202 203 201 201 201 201 187 103 103 104 108 110 112 113 118 122 125 126 126 130 128 130 130 130 131 131 131 135 142 144 145 143 145 141 140 136 133 132 132 131 130 128 129 128 129 127 125 123 122 121 117 107  89  72  58  48  45  44  44  41  52 132 168 171 170 171 168 166 161 130 116 113 111 113 113 110 109
 199 199 200 199 199 200 205 209 206 204 202 202 201 201 203 202 202 203 201 202 201 172  94 105 104 106 108 109 112 117 119 123 126 126 128 128 129 131 130 130 131 130 131 134 138 135 141 147 144 142 137 133 131 133 132 133 129 130 128 130 128 126 125 125 123 119 109  94  78  65  53  46  42  44  43  48 106 165 171 171 171 169 167 162 135 117 114 113 113 114 110 109
 196 198 200 199 199 201 201 204 205 204 200 202 200 202 202 201 201 201 200 201 196 133  96 105 103 105 108 111 115 118 119 122 126 125 127 128 129 131 129 128 127 125 130 133 134 137 143 146 146 142 138 136 134 133 132 132 130 129 127 129 130 127 125 124 121 119 112  98  80  70  58  49  46  42  41  45  81 164 171 171 170 169 168 165 143 119 114 114 112 111 111 110
 197 198 199 198 200 199 200 203 205 204 201 201 201 202 202 200 201 201 201 200 193 102  98 103 101 102 103 108 114 118 120 123 125 125 128 128 129 130 128 130 127 127 130 134 138 139 145 147 149 146 143 143 141 136 133 130 130 128 126 128 126 125 124 121 120 118 115 103  84  70  60  48  44  42  41  41  64 160 170 169 169 169 169 164 146 122 115 113 111 111 110 109
 196 197 200 200 200 199 200 202 203 203 202 200 202 201 200 200 201 199 199 200 181  85 103 102 100 102 101 109 113 118 120 124 124 127 130 129 130 131 130 128 130 129 131 134 137 141 143 148 152 148 145 143 144 140 135 133 132 131 128 128 128 126 124 123 120 120 116 104  88  73  61  52  45  40  36  36  47 154 171 171 170 170 168 165 147 121 114 112 112 112 110 110
 197 197 199 199 199 198 199 202 204 203 200 201 200 200 199 200 201 200 200 198 164  82 101  99 101 101 106 111 114 119 123 126 129 129 129 132 134 135 133 133 132 133 134 135 135 139 143 150 152 151 147 143 141 144 141 136 134 133 130 129 126 123 123 124 121 118 114 104  89  75  64  53  45  40  35  33  41 138 167 169 170 168 169 165 153 124 115 113 111 113 113 111
 197 199 197 198 198 199 200 200 204 204 201 201 201 200 200 200 200 199 199 196 149  88  99  99 100 105 111 111 115 121 124 128 127 128 131 130 137 137 136 137 133 131 132 131 138 141 145 149 150 149 143 143 140 141 139 138 135 133 132 130 128 124 121 120 119 117 114 106  93  77  62  53  47  41  37  35  45 131 167 170 168 168 168 165 157 128 117 116 113 113 114 110
 193 196 196 196 198 198 199 199 202 205 201 201 201 199 199 199 198 199 198 194 144  90  96  98  98 105 111 113 118 121 123 125 125 127 130 130 131 135 134 135 134 133 132 131 132 136 140 145 144 143 140 136 136 135 137 136 132 135 132 128 128 125 118 114 114 111 110 106  96  80  64  54  48  39  35  35  44 126 166 171 169 169 167 165 159 130 118 114 113 113 113 112
 193 193 196 196 197 198 198 199 201 201 200 199 200 198 196 197 197 196 198 194 132  93  93  94  99 106 111 115 116 119 116 116 117 119 121 125 130 132 136 135 132 130 132 132 130 132 128 129 131 130 129 126 124 126 126 127 125 130 129 127 127 122 115 112 108 104 104 104  97  85  65  55  48  43  38  37  41 118 165 168 168 168 168 165 159 133 116 113 112 111 109 110
 193 193 194 194 196 197 197 197 198 200 198 197 196 196 196 197 197 197 195 192 144  95  89  92  92  99 103 103 104 102 105 106 109 111 112 118 124 128 130 132 128 126 128 128 129 129 124 121 117 113 111 111 107 110 114 113 112 113 110 113 109 104 103 108 103 101 102 103  96  86  67  51  48  42  39  37  42 110 164 168 167 168 166 164 160 137 119 116 112 112 110 109
 193 195 195 195 195 197 199 198 198 200 198 198 196 197 198 198 197 196 197 194 155  98  88  83  78  83  87  85  86  85  88  92  94 100 100 108 112 117 122 122 122 121 123 123 124 122 116 110 102  96  88  91  82  80  83  84  85  84  84  80  81  79  78  91  99  97  97  96  93  86  68  54  49  43  40  40  44 106 163 168 169 167 165 164 161 142 121 114 113 112 110 109
 198 197 197 196 196 198 199 199 201 200 199 198 198 198 198 199 198 199 198 195 172 103  84  62  56  62  62  58  59  62  66  71  71  83  92  97 104 110 114 115 113 115 116 115 116 112 104  95  84  73  62  57  50  50  50  56  54  57  57  60  62  62  62  63  70  86  93  91  92  86  70  56  50  42  39  38  40 103 164 169 169 168 168 165 163 148 120 114 112 112 111 110
 199 197 198 198 198 199 199 199 204 202 200 198 198 198 199 199 199 198 201 199 190 108  70  46  44  44  41  38  36  37  42  46  50  58  74  84  94 100 105 107 106 108 111 106 107 105  93  80  67  57  46  39  36  34  34  34  34  36  42  46  50  57  56  51  50  62  83  88  87  84  75  58  51  44  41  40  42  97 165 170 170 171 167 167 167 155 124 116 113 111 112 111
 199 197 198 199 199 200 199 200 203 202 200 199 200 199 201 200 201 198 200 200 195 109  57  47  40  34  33  31  30  30  31  32  38  41  55  70  82  89  95  97 101 106 105  99 100  94  83  74  59  51  39  36  31  30  27  27  28  33  36  38  40  50  60  65  65  65  80  87  88  85  76  59  55  47  42  42  46  96 164 169 169 170 168 168 166 157 126 116 114 112 110 110
 197 199 199 199 200 200 199 199 201 202 201 200 200 198 200 199 199 199 199 199 193 120  65  53  45  38  34  32  30  28  28  29  33  36  45  57  73  81  84  89  96 102 100  94  92  88  79  69  58  48  44  44  39  38  39  44  46  50  49  50  49  55  63  70  74  75  82  85  87  84  79  63  56  49  43  40  46  90 162 170 171 170 169 167 167 159 130 116 112 112 111 112
 198 199 200 200 199 199 200 199 197 199 201 201 200 198 199 199 200 199 199 199 194 122  71  58  46  42  45  48  43  42  38  39  37  37  41  50  66  73  78  81  88  96  95  90  85  86  81  70  66  59  59  59  53  54  52  53  58  60  59  61  64  67  67  69  72  74  83  85  88  86  80  65  57  48  45  43  46  91 163 170 170 169 168 167 165 163 136 118 115 111 114 112
 198 199 201 202 200 200 200 200 200 199 199 200 200 200 199 200 199 199 199 199 195 125  72  60  54  53  53  54  49  43  40  40  41  46  48  49  60  69  74  78  85  92  94  89  86  82  79  75  69  67  66  59  49  39  36  40  42  48  52  60  66  72  72  71  70  68  78  84  88  86  80  68  54  49  47  45  45  88 166 170 169 168 168 167 168 163 141 119 116 113 114 113
 199 199 202 201 200 200 200 201 199 200 200 199 201 201 199 202 201 200 200 199 197 131  78  67  61  57  52  40  39  38  36  36  37  37  45  51  57  63  73  77  89  97  96  91  85  80  78  74  70  67  57  47  37  35  35  38  39  45  44  48  54  65  73  79  77  75  77  85  88  89  81  68  53  50  49  46  46  96 167 171 170 169 169 166 166 165 145 121 114 112 115 114
 200 200 202 202 200 200 200 201 202 200 201 200 202 201 202 201 201 201 201 201 197 128  80  69  62  48  39  39  40  39  40  40  38  38  38  43  51  58  68  83  98 109 109 100  86  83  78  73  64  55  46  37  33  31  30  35  40  44  48  54  57  56  62  77  81  83  83  86  89  91  82  68  54  51  47  47  48 108 168 172 170 170 169 167 167 165 149 120 114 111 112 112
 200 202 203 204 203 201 201 202 203 201 202 202 202 203 203 202 203 202 203 202 197 141  87  70  56  42  39  30  34  46  47  44  42  40  41  40  45  52  63  90 120 134 131 118  90  84  81  68  58  49  41  34  29  25  25  40  64  61  50  45  53  62  57  61  78  86  88  91  91  91  82  67  57  52  50  50  50 125 169 173 172 171 170 170 168 167 157 122 116 114 111 111
 200 201 203 204 204 203 203 204 204 204 203 203 203 205 204 204 205 204 203 203 201 153  93  70  51  34  30  26  32  67  88  86  69  54  43  40  44  48  57 101 136 153 151 135 101  80  76  70  59  49  40  34  26  23  23  29  68  96 101  81  50  45  52  55  66  83  91  95  93  91  85  74  54  49  53  57  56 150 171 173 173 173 173 169 167 165 159 126 115 111 113 109
 201 204 205 206 204 206 203 203 204 205 205 205 207 205 204 204 204 204 205 205 200 160  93  68  46  36  33  27  27  55 102 119 102  85  58  47  45  45  56 113 149 163 158 140 110  81  72  73  66  55  43  37  27  24  24  42  69 110 117 119 102  64  45  53  63  76  88  95  95  92  89  79  57  49  54  63  92 155 157 155 163 169 172 169 169 169 162 132 118 113 112 109
 203 204 206 206 206 206 204 206 205 205 205 206 206 206 206 204 206 206 206 204 191 131  93  74  54  45  42  27  30  55 106 120 106  91  61  57  46  48  62 129 152 169 159 141 121  85  69  72  70  60  38  34  30  26  26  35  76 109 109 101  90  70  53  52  63  75  88  94  95  95  93  76  54  53  62  78  97 122 129 124 126 150 169 172 171 169 164 135 118 115 114 112
 205 206 207 208 206 206 207 206 206 207 206 206 206 207 207 206 207 208 207 202 156 106  91  73  60  53  47  35  33  66  96  96  84  63  45  44  44  53  86 133 156 169 153 141 125 100  75  67  65  59  44  33  31  28  28  42  81  90  80  71  62  66  67  70  73  81  88  96  97 102  95  77  52  58  77  89 100 105 104  96  90 114 163 172 171 168 166 141 119 114 111 112
 205 207 210 208 208 208 206 205 207 209 208 206 206 206 209 208 208 206 206 203 145  92  92  80  74  66  55  50  49  60  65  64  54  49  46  48  49  57 113 139 155 169 152 140 126 116  89  69  64  58  51  44  39  38  41  49  57  60  61  68  72  76  82  84  83  88  94 100 104 106  98  79  51  61  86  93  95  94  89  81  73  91 161 171 174 171 168 149 123 112 111 110
 205 207 208 208 207 208 209 209 209 207 207 208 208 207 209 208 210 207 208 204 156  88  96  88  85  79  69  58  55  55  54  54  51  46  48  49  54  84 120 143 157 162 148 137 125 119 108  89  69  59  54  48  44  47  51  57  64  68  72  78  82  88  90  92  94  96 101 106 109 111 101  84  54  65  85  88  88  99  94  85  73 102 166 172 174 172 168 154 123 114 110 111
 208 208 208 207 208 208 207 208 208 207 209 207 207 209 210 208 210 208 206 205 163  90  97  90  88  84  76  68  63  60  59  56  53  51  56  59  77 104 123 147 164 162 151 138 125 117 118 109  91  75  62  55  51  51  54  61  68  71  75  80  84  84  86  96 104 105 109 115 115 112 103  91  61  66  85  86  89 103  96  86  72 107 167 173 175 174 171 159 125 114 113 111
 206 207 208 209 208 209 205 208 208 210 210 210 211 211 210 210 210 207 209 206 168  89  96  96  94  87  82  74  68  64  60  61  62  64  66  73  98 109 126 145 158 157 150 133 122 118 120 115 108  97  82  73  65  63  63  64  64  66  71  74  81  91 101 110 115 113 115 115 115 113 102  93  66  66  81  92  95 105  95  79  71 115 167 174 174 172 171 162 129 117 110 112
 207 207 208 209 210 209 206 210 209 211 210 211 212 210 211 211 209 210 211 208 180  95 103  99 100  96  91  85  83  77  76  74  74  74  80  92 103 114 128 147 160 157 147 133 122 118 118 116 114 113 108 100  91  83  80  84  86  88  92  98 103 106 114 120 122 121 119 117 114 107  97  91  69  62  63  86  99 106  93  72  75 131 170 174 175 174 173 166 130 114 111 112
 208 207 209 211 210 209 208 210 210 211 211 211 212 211 212 212 211 211 210 209 202 106 106 103 104 102  97  90  88  85  83  81  82  88  98 102 105 120 136 156 166 160 150 134 124 120 119 115 117 119 117 118 112 108 103 102 104 105 105 111 115 119 120 124 127 124 121 121 117 107  95  88  68  67  57  62  82  97  92  64  82 149 173 175 176 174 173 168 141 117 112 110
 209 207 210 211 208 208 210 208 209 211 211 211 211 212 210 210 209 209 209 209 204 139 110 107 111 109 104  99  95  93  93  96 101 104 103 103 110 128 146 160 172 164 151 138 128 119 117 117 121 122 120 120 119 124 125 124 126 127 126 126 129 130 130 131 128 126 121 119 115 106  92  84  66  74  83  59  69  91  93  65  99 164 174 174 174 173 173 170 145 119 112 112
 208 207 208 208 207 206 209 209 209 210 210 208 208 208 208 209 210 209 210 208 204 166 117 116 117 117 114 110 107 109 114 115 115 111 103 104 118 137 153 167 175 171 156 144 130 120 116 117 120 123 123 124 123 128 138 140 141 144 144 141 139 138 137 134 130 128 125 118 111 102  88  80  64  84 107  65  69  97  94  78 126 169 174 174 172 171 171 168 148 120 110 110
 205 205 205 206 206 205 207 207 207 208 208 206 208 208 205 206 208 208 207 206 204 156 123 119 122 122 122 120 121 122 127 125 118 111 100 103 127 145 155 162 177 182 163 150 135 122 114 115 113 119 122 124 125 127 135 144 149 152 151 148 143 138 136 133 129 129 124 118 110  98  84  76  57  88 108  71  73 100  91  95 151 173 174 173 173 172 170 167 150 121 112 109
 204 204 203 205 205 203 203 204 206 206 205 207 207 205 206 206 208 206 207 206 204 157 123 124 125 128 127 127 129 131 128 125 118 111  98 104 133 149 152 150 158 169 161 154 136 125 115 114 108 111 118 122 125 127 132 135 139 146 147 147 144 137 134 134 131 129 126 118 109  93  85  73  65  95 103  68  79 105  97 113 165 172 173 174 172 170 169 166 156 125 114 111
 202 203 204 204 204 204 203 206 205 205 206 205 207 205 204 206 206 205 206 207 202 158 124 123 125 129 128 128 129 126 124 119 114 104  89 108 128 143 142 140 143 150 151 148 135 126 121 124 111 104 110 116 118 122 124 126 128 136 139 140 139 137 133 131 131 129 121 116 106  89  80  67  70 103  85  64  87 107 104 140 170 172 175 173 170 171 169 168 162 124 115 110
 202 204 202 204 204 204 204 205 203 206 204 204 206 205 204 206 204 206 206 205 203 164 123 122 123 124 126 126 124 122 118 108 102  91  91 113 121 129 131 132 133 140 140 144 135 122 120 126 114 100 102 104 109 115 118 123 125 129 132 134 134 134 131 132 129 124 116 114  98  84  75  62  79 100  69  70 106 108 114 156 171 172 172 172 171 169 169 166 162 132 115 111
 200 200 201 203 201 202 203 203 203 203 203 202 204 204 203 204 203 205 205 204 200 168 122 120 120 120 122 122 118 113 106 100  91  81  93 107 110 119 124 125 128 133 132 136 123 111 109 120 111  95 101  98 100 107 108 113 119 124 125 128 129 129 128 130 128 124 117 106  95  79  74  60  79  89  88 106 109 105 128 164 170 172 172 171 169 169 168 166 162 132 115 110
 201 200 201 202 203 200 201 200 202 203 204 204 202 201 203 202 203 204 205 203 199 173 122 116 116 114 115 114 108 102  97  89  83  83  89  90  97 106 110 114 119 124 121 118 101  96  97 102  99  92 100  99  94  93  98 104 113 118 120 121 124 124 123 123 124 119 112 101  87  76  68  61  85  96 100 105 105 116 153 171 173 173 169 170 168 166 167 166 163 141 117 110
 200 199 201 199 200 201 201 200 200 201 202 203 202 202 201 200 202 203 203 200 199 187 116 106 106 103 104 101  99  92  88  82  82  85  84  77  76  86  91  93 100 102  99  88  79  81  81  84  86  91 101 101  91  84  89  96 102 106 111 113 116 118 120 120 118 112 104  95  85  76  63  65  88  99 103 107 111 133 163 171 172 171 172 169 168 167 166 164 162 145 119 112
 199 198 200 200 200 199 201 202 200 200 200 200 200 201 200 198 201 202 202 201 199 195 120 101 101  97  96  93  89  85  81  79  87  93  89  73  59  69  78  83  83  85  84  75  67  65  62  75  81  96 104 110  99  87  85  89  97 102 106 109 109 113 113 112 112 104  99  90  82  73  59  70  94 104 107 107 116 157 169 170 170 169 168 167 167 165 165 163 162 148 120 113
 199 198 197 197 198 198 199 198 199 200 198 200 200 201 200 200 200 200 200 200 199 196 136  98  94  89  88  86  87  81  79  84  97 100  96  79  58  53  67  71  76  78  75  71  72  71  63  71  83 100 111 117 109  96  87  84  90  95  98 102 105 106 107 108 107 101  95  86  80  76  58  68  95 102 105 117 149 167 170 170 168 168 168 168 166 165 164 162 162 151 121 113
 196 195 195 198 196 196 198 198 197 199 196 198 197 199 197 199 198 198 198 198 197 192 150  96  89  84  84  82  81  78  79  91  97  97  93  70  50  44  42  50  63  68  64  59  57  54  62  70  78 100 116 118 114 106  95  84  85  89  92  99 101 103 102 102 101  97  90  86  81  73  64  96  92 100 122 154 166 169 170 168 169 168 168 168 165 164 163 162 159 152 122 112
 193 192 193 195 194 194 196 196 196 196 194 195 194 195 195 197 197 198 198 196 196 193 167  97  90  82  81  80  76  74  75  79  83  81  74  56  40  33  28  36  45  55  50  46  45  42  47  52  64  95 103 106 107 102 100  88  86  87  88  96  98 101  97  96  94  93  88  85  81  73  76 146 155 162 162 167 168 167 167 168 169 168 168 166 162 163 163 162 158 153 124 110
 191 193 193 197 195 194 194 194 195 194 195 195 194 196 195 194 196 196 195 193 194 193 187 112  90  86  82  80  75  64  59  58  65  66  63  43  37  34  30  29  35  44  35  36  35  31  37  45  58  81  91  85  82  85  84  84  84  87  89  93  97  98  95  94  94  90  85  85  81  70  86 158 167 169 168 169 168 168 166 167 167 167 164 164 162 162 162 160 158 153 130 111
 194 192 194 194 195 195 194 195 195 196 198 196 197 196 195 194 196 198 195 194 194 194 191 141  93  86  82  83  73  54  46  46  55  59  52  45  37  34  33  29  32  40  32  30  30  30  34  47  56  65  75  73  63  64  62  67  82  88  89  92  95  97  96  95  94  90  88  86  80  69  99 162 172 170 169 170 170 168 167 168 166 165 164 164 164 162 162 160 158 156 134 110
 194 195 194 194 194 195 194 195 196 197 198 196 198 196 196 196 197 196 196 196 195 196 193 172  96  87  85  82  68  51  47  45  52  57  54  52  44  36  35  30  30  34  31  32  34  34  38  51  59  62  73  68  58  54  50  54  70  83  92  95  96  97  97  93  91  90  87  87  78  69 115 161 168 170 168 170 170 169 167 167 167 165 164 164 164 162 162 161 158 156 136 111
 193 193 196 195 195 196 195 196 194 196 197 197 198 196 197 195 196 196 198 196 195 193 194 182 103  89  85  80  66  53  52  52  57  64  68  64  54  47  50  41  43  42  42  44  45  42  51  55  61  68  75  68  59  55  52  49  60  78  91  99  96  95  94  94  91  89  86  82  74  60  50  84 135 165 167 169 169 167 167 166 165 165 164 164 163 162 163 162 158 155 142 114
 193 192 193 194 196 195 194 193 193 193 193 194 195 197 195 194 194 197 193 194 195 193 193 185 121  88  82  80  65  58  51  44  44  55  61  61  58  57  56  57  64  65  66  62  61  63  73  67  73  78  79  80  69  62  56  51  56  75  90  97  99  97  95  92  89  88  85  78  68  46  23  26  29  49 110 160 164 167 166 165 166 163 162 166 164 161 162 160 158 154 146 116
 192 193 192 192 191 194 192 193 192 192 194 192 193 194 195 193 193 192 192 192 193 193 192 187 140  88  81  80  69  61  55  48  51  47  44  42  48  52  54  54  56  60  58  59  60  64  67  66  67  65  65  65  56  43  45  52  64  73  88  95  94  91  90  89  90  86  82  75  63  36  16  15  18  22  23  55 127 161 163 164 164 163 162 164 162 158 160 160 158 158 149 118
 192 191 192 193 192 193 192 191 192 192 195 194 193 193 194 193 192 192 193 190 192 193 191 188 155  88  84  80  73  64  60  58  66  62  63  56  46  44  42  41  46  44  48  48  52  54  53  51  50  50  55  51  51  57  51  55  68  79  88  92  91  89  89  92  90  84  78  70  56  25  12  12  13  15  15  21  27  88 152 162 163 162 163 163 163 162 159 159 158 158 152 121
 190 193 192 192 191 193 194 192 194 194 195 193 193 193 194 194 194 194 193 193 192 191 190 187 167  85  81  78  76  69  69  71  73  72  69  65  60  60  56  48  40  33  32  39  44  45  50  59  67  68  68  71  74  72  63  64  74  82  91  90  88  90  89  89  85  82  70  60  43  16  11  12  11  12  14  15  17  24  62 144 161 164 163 162 161 162 160 158 159 158 151 126
 191 191 189 189 192 192 194 192 191 193 194 192 193 193 193 193 192 193 192 193 193 190 188 175  92  67  80  79  77  78  72  76  78  75  72  64  58  60  60  56  56  53  55  57  61  61  66  71  72  76  80  87  87  84  79  77  80  86  88  88  90  89  88  88  84  74  64  54  29  13  10  11  11  10  13  16  14  14  22  50 139 158 161 161 161 159 159 158 158 156 153 132
 192 192 192 192 191 193 194 193 193 194 193 194 193 194 193 192 192 193 193 193 192 190 152  53  38  43  68  76  78  77  73  79  81  76  69  67  57  55  58  61  65  65  65  66  66  66  66  72  80  85  89  92  89  90  88  86  85  87  89  88  87  88  87  87  75  67  59  44  20   9   8   8   9  10  11  14  15  12  13  24  50 144 160 162 161 161 159 159 160 157 152 134
 192 193 194 193 192 193 192 193 192 194 194 194 193 193 194 194 193 192 191 190 186 161  53  35  27  26  50  71  72  67  70  81  83  80  71  65  64  58  57  58  58  63  64  61  62  65  73  80  85  85  88  90  92  95  94  87  88  87  89  88  87  87  83  76  66  59  52  43  16  10   7   7   9  10  10  12  14  13  11  14  22  57 147 158 159 160 160 159 158 157 155 139
 190 190 192 194 191 192 191 191 193 193 191 193 194 192 192 192 192 190 191 186 150  53  34  27  18  17  32  59  69  63  69  79  82  80  72  66  62  59  58  59  58  61  65  66  66  70  74  76  81  82  85  88  93  95  94  85  87  88  88  86  89  87  79  70  63  59  46  52  17   9   8   8   8   8  10  12  15  13  10  11  16  25  64 147 158 159 160 160 158 156 154 142
 188 192 193 192 193 192 194 191 194 190 191 194 193 191 192 192 191 192 190 158  58  37  26  19  14  14  24  41  59  64  68  76  80  83  79  70  64  59  53  47  45  47  52  56  60  63  64  71  78  85  88  92  93  94  89  84  82  87  87  87  87  82  75  65  61  49  55  61  16   8   8   8   6   8   9  10  12  12  12  10  11  18  30  79 153 159 160 160 158 158 157 146
 190 191 192 190 192 193 193 192 189 193 194 194 194 193 193 190 191 191 176  64  41  26  22  18  14  13  16  29  51  61  65  76  81  85  84  79  71  65  56  44  35  33  33  38  47  55  59  71  79  85  89  95  91  86  85  82  80  84  90  88  84  75  69  62  52  41  71  66  16   9   7   5   6   8   9  10  12  12  12  10   9  11  21  32 103 155 160 159 159 158 156 151
 187 189 190 190 189 190 191 191 190 189 191 191 192 192 191 190 189 186 120  45  30  23  18  15  11  11  12  19  39  58  61  72  83  90  92  83  79  72  66  58  44  35  36  34  46  52  63  71  78  86  93  95  90  85  80  76  79  85  88  86  80  69  66  58  47  65  78  69  15   8   7   8   6   6   8  10  11  11  12  10   9  10  16  25  42 135 158 160 159 158 156 152
 190 186 190 189 187 189 189 190 192 188 192 191 189 190 191 188 187 146  58  35  27  24  18  13  12  12  10  12  23  45  51  64  79  89  95  89  81  73  69  66  61  57  56  54  58  66  78  83  91  96 100 103  98  88  82  70  75  85  83  81  73  66  59  47  58  75  78  67  20  10   8   5   5   7   8  10  12  12  14  11   9   9  14  20  30  69 154 157 156 155 156 153
 191 190 192 189 189 189 191 190 189 189 191 190 188 189 192 186 166  55  39  30  25  22  18  12  12  12  10  11  18  30  43  54  73  84  89  89  85  76  67  65  65  58  57  63  64  73  83  94 101 101 104 104 101  89  78  68  70  81  79  76  66  63  52  55  71  78  78  69  27  11   8   6   5   6   8  10  12  13  15  14   9   8  11  15  26  31 134 153 150 150 148 146
 189 188 188 188 190 189 191 190 189 189 188 190 189 189 188 183  96  43  35  28  25  21  18  11  12  12  11  10  12  19  31  44  59  67  72  80  79  66  66  68  62  58  61  66  68  76  81  93  97  88  98  89  86  82  69  67  60  74  73  67  60  52  55  66  75  78  79  68  33  13   8   7   4   6   8  11  12  12  13  13   9   6  10  12  22  28  86 151 149 148 140 144
 187 186 188 187 188 188 190 189 187 188 190 187 187 187 187 176  46  36  30  25  22  20  14  11  12  11  11  11  12  14  24  34  45  58  54  61  66  61  66  64  58  60  60  64  65  64  74  82  80  66  75  67  66  68  62  60  55  60  59  53  52  53  62  70  77  81  78  67  34  18   9   7   4   5   8  10  12  12  15  13  12   7   9  13  20  24  45 132 136 135 136 136
 185 185 186 186 186 186 186 187 186 186 189 187 187 186 184 149  37  31  30  24  20  16  11  10  12  11  11  10  11  12  28  30  37  42  41  48  58  59  65  58  54  55  55  57  62  63  62  64  61  52  53  51  48  57  50  46  47  46  49  47  51  59  68  76  81  81  77  64  36  23  10   8   5   6   8  11  12  11  13  14  10   7   9  13  15  20  23  84 106 106 107 105
 176 177 175 175 176 177 173 176 173 169 169 169 165 165 159  97  37  31  28  22  18  14  11  12  13  11   9  10  10  12  40  40  30  34  39  43  48  54  58  54  52  49  48  52  56  52  55  59  54  47  42  40  39  44  37  37  34  38  42  49  58  65  70  76  82  82  78  66  38  28  14   8   7   6   9  11  11  11  11  10  10   8   7  10  13  19  21  28  57  95  99 101
 124 124 122 123 120 121 123 123 120 124 122 119 119 104  55  37  30  28  24  22  18  16  11  10  12  11  10   9   9  12  46  55  32  29  35  36  41  47  45  41  42  42  40  44  44  44  46  49  41  37  32  33  38  37  30  30  31  36  46  58  64  70  73  78  82  83  75  67  41  29  16   8   5   6   8  10  11  12  12  11  11   8   8  10  14  17  17  19  20  23  56  86
 108 112 109 110 110 111 111 112 111 110 109 105  67  38  30  25  24  26  22  22  18  14  10  10  11  11  10  10  10  15  46  59  45  28  26  28  33  36  36  34  32  34  33  32  33  34  39  42  34  31  28  32  32  28  22  28  33  46  60  65  67  71  74  78  81  80  73  65  40  29  16   8   5   5  10  12  12  13  15  10  11   9   7   9  12  15  15  15  14  14  19  24
 103 106 107 105 105 107 106 107 109 107  85  45  31  23  20  19  20  24  22  19  16  13  10   9  11  10   9  10  10  14  50  59  57  47  26  25  25  28  29  27  22  22  25  23  23  25  30  31  28  27  24  28  24  23  25  36  48  59  64  68  69  70  73  77  82  80  72  61  39  33  18   7   4   5   9  10  12  13  12  12  11   8   7  10  11  15  12  12  11  10  13  15
 103 104 103 105 105 105 104 105  96  55  34  29  22  20  18  16  20  25  21  16  17  14  10   9   9  10  10  10   9  19  46  58  63  63  49  33  22  23  19  20  16  14  15  16  15  17  18  20  20  19  17  18  18  26  38  55  64  66  70  70  69  69  74  80  80  81  71  59  34  32  17   7   5   5   9  10  10  12  11  11   9   6   7   8  10  12  11  10   9  12   9  14
 103 102 102 103 104 103  98  66  35  30  25  21  18  18  17  14  19  22  19  18  18  13  10  11  10   9  10   9  10  24  42  58  64  64  64  57  45  34  25  24  19  15  14  14  14  16  15  18  17  18  21  23  31  48  61  65  68  67  70  68  68  70  73  80  82  79  70  57  35  34  15   7   4   5   9  11  11  12  10   9  10   7   7   8  11  10   9   9  10  10  11  12
  99  95 102 100  96  70  39  31  22  21  19  18  17  17  15  16  19  20  17  18  15  11   9  10   9   8   9   9  11  33  40  56  63  64  66  64  57  49  46  49  46  40  32  27  26  25  23  28  30  34  39  48  56  65  67  70  70  72  71  68  68  70  72  80  79  77  68  56  33  36  14   5   5   6   9  11  13  12  12  10  10   8   8   8  11  10  10   9  10   9   9  11
 100  98  94  72  43  30  25  21  20  18  18  17  16  17  13  13  16  18  19  18  14   9   8  10   8   8  10   9  10  36  41  54  60  63  64  65  62  57  52  53  53  55  48  46  45  46  45  50  55  57  61  66  68  71  74  72  73  72  70  68  67  68  74  79  79  75  68  50  32  36  12   6   4   6   8  11   9   9  11  11  11   8   9   9  10  10   9  10  10  10   8   9
  94  78  40  30  25  23  19  18  19  16  17  15  12  14  12  13  16  18  18  18  13  11   9  10   9   8  10  11  10  31  46  53  58  61  63  65  66  60  55  53  54  57  53  56  56  54  55  62  65  65  68  72  70  74  77  78  77  74  71  69  69  66  68  77  75  72  63  48  34  35   8   6   4   6   9  14  11  10  12  13  10   7   8   9   9   8   8   9   9  10  10   9
  52  30  27  23  21  18  17  16  17  17  16  15  13  13  13  15  15  16  16  17  16  11  10  11   8   7   9   9  10  18  48  50  58  60  65  64  62  62  58  51  54  57  58  61  58  59  63  65  67  69  72  73  75  78  82  78  74  73  68  67  67  67  71  75  73  70  56  42  36  30   8   5   4   5   8  14  11  13  11  12  10   7   8   8   9   6   8   8   8   9   9   9
  27  20  20  20  21  16  16  15  15  14  14  16  14  14  15  14  14  17  16  18  15  10   8   9   9   8   8   8  10  13  46  48  55  60  62  61  62  62  57  51  52  54  57  60  61  61  64  68  68  71  72  74  79  82  79  77  74  71  67  65  66  67  71  74  72  68  54  40  42  22   8   7   4   5   8  13  13  12  12  12  11   8   8   8   9   5   7   9   8  10   9  10
  17  18  16  17  15  14  12  13  12  15  14  12  12  11  13  14  13  16  17  18  15  10  10   9   7   7   8   8   8  11  33  52  54  58  62  62  62  61  61  54  49  49  52  54  60  61  66  69  71  71  74  77  80  83  79  74  70  66  64  66  63  68  72  72  70  64  52  44  50  16   7   5   4   6   9  12  13  15  13  11  12   8   8   9  10   8   7   7  10   8  10   9
  16  16  16  13  14  12  13  14  15  16  16  14  13  10  11  13  13  16  18  16  13  11  10   9   8   7   8   7   8   9  17  60  52  56  59  62  61  64  62  56  51  47  49  52  51  59  62  64  70  72  76  78  80  82  75  72  66  64  63  62  65  69  70  69  66  56  49  52  41  10   7   4   3   7  10  14  14  13  16  13  12   9   8   8   8   7  10  10  10   8  10   9
  14  14  14  10  12  13  12  13  13  13  12  11  12  10  11  13  13  13  15  16  12  12   9   8   7   7   8   8   7   8  12  39  67  56  61  61  59  60  62  60  54  47  47  49  50  54  56  61  67  70  72  76  76  76  70  66  62  64  62  62  68  68  68  65  61  54  53  58  22   8   5   4   3   6  12  15  13  13  14  15  11   9   7   9   8   7   8   8   8   9   9  10
  12  12  13  11  11  13  12  12  12  13  12  11  11  11  12  16  14  12  16  15  15  11  10   6   7   6   8   7   8   8  12  24  61  66  58  63  59  61  59  62  58  52  50  48  52  50  50  53  63  67  69  72  72  67  63  62  63  63  60  61  68  69  67  65  58  54  64  45  14   6   5   3   4   7  12  16  15  14  14  13  12  10   9   9   9   8   7  10   7  10   9  10
  12  13  15  13  12  13  12  13  13  11  13  12  12  12  13  13  13  12  15  16  15  11  11   8   5   6   6   7   8   8   9  15  40  73  63  58  58  60  59  64  63  55  51  51  50  52  50  48  53  60  65  67  68  62  60  63  64  63  64  65  68  70  65  60  54  63  57  30  10   7   5   4   5   7  12  16  14  12  13  13  12  11   8   9   7   8   9   9   8   7   8  10
  12  12  16  15  12  12  11  12   9  10  12  12  12  12  12  12  10  10  15  14  16  15  10   8   7   5   7   7   7   8   9  11  25  53  78  70  55  58  61  62  62  61  54  51  52  54  52  53  49  51  60  61  62  60  60  62  62  63  67  68  71  66  62  57  56  67  47  19   9   6   4   3   4   8  12  14  15  12  13  14  13  10  10   8   7   9  10   9  10   7   7   8
  13  12  13  12  12  13  11  12  12  12  12  12  12  10  11  11  11   8  14  17  16  15  13  10   7   4   5   6   6   6   7  10  20  41  59  78  72  53  58  62  63  63  56  54  52  50  53  55  56  50  53  55  56  60  60  62  63  66  68  69  69  63  53  48  70  58  31  10   6   5   4   3   6   9  11  13  14  14  14  14  12  11  11  10   7   8  10   8   6   8   9   9
  11  13  12  11  11  11   9  11  12  12  12  11  11  10  12   9   9   8  10  14  14  13  13  10   5   4   5   7   7   5   7   9  13  30  51  65  75  77  50  59  66  65  59  56  54  50  51  55  60  59  57  58  57  60  60  63  63  64  65  67  64  56  40  71  64  42  17   7   6   4   4   3   5  11  14  14  15  14  14  13  11  10  10   9   6   7  10   7   5   6   8   8
  12  14  15  12  11  11   9  10  11  11  11  10   8  10  11  11  10  10   8  13  14  15  13  10   6   4   5   6   6   4   7   8  11  25  44  56  67  76  84  60  60  66  65  60  56  52  52  54  58  61  61  62  59  61  59  60  65  68  70  65  57  46  70  68  50  30  12   6   5   4   3   4   8  12  15  14  13  14  14  14  12   9   9   7   5   8  10   8   6   8   8   7
  12  12  11  12  12  12  10   9   9  13  11   9  10  10  10  11  10   7   6  11  13  14  13  11   8   4   5   6   7   5   6   6   8  22  41  54  61  67  72  81  69  54  59  61  57  54  51  52  53  54  59  58  55  55  58  60  63  66  62  54  65  78  71  57  40  16   6   5   4   4   4   4   6  12  14  14  13  14  14  12  11  13  10   6   4   6   9   9   7   5   8   8
