P2
# Generated by OpenCV 3.4.0
92 112
255
 207 215 222 226 223 215 209 207 206 205 206 202 204 203 203 205 202 203 202 203 204 205 203 202 202 202 202 203 202 202 201 201 200 200 198 200 199 196 191 178 149 147 130 141 144 142 139 145 138 146 168 182 188 189 192 190 192 190 189 190 189 188 187 185 185 184 184 184 182 180 182 179 179 178 176 175 172 172 171 160 132 126 122 122 124 122 121 119 122 119 117 120
 209 222 239 244 242 231 219 211 208 206 206 205 205 204 204 203 203 202 201 201 204 203 202 201 200 202 202 203 201 200 200 199 198 199 195 189 184 155 103  82  56  52  42  48  54  48  51  52  50  62  84 125 139 171 184 187 189 191 190 187 189 189 186 187 184 184 183 184 181 181 181 181 179 180 178 176 175 174 172 166 138 125 124 124 123 122 121 122 122 119 119 118
 212 232 249 253 252 245 233 218 210 207 207 205 205 203 202 202 203 202 201 201 203 202 203 202 201 201 201 199 201 200 199 197 193 176 122  75  66  54  41  38  34  32  31  31  32  32  32  33  34  35  41  44  44  74 127 172 180 184 187 188 189 188 185 184 185 184 186 182 182 180 180 179 178 177 175 175 177 174 172 168 141 124 125 123 122 123 123 120 120 121 122 120
 214 239 252 253 253 252 244 232 216 211 207 207 205 205 203 202 201 202 204 204 203 200 203 204 202 204 202 200 198 199 191 174 119  71  46  36  34  32  29  28  27  25  25  24  23  23  24  25  28  27  29  29  30  36  45  60  94 156 178 184 186 188 186 187 185 185 184 183 183 181 182 179 179 178 177 178 175 175 173 170 144 127 125 124 123 124 122 122 120 121 120 120
 213 239 252 253 253 253 247 238 222 212 209 206 206 207 205 204 205 204 202 203 204 204 202 204 204 204 201 199 196 180 117  60  41  37  33  28  27  26  24  24  22  22  22  23  23  24  26  27  25  24  26  25  24  27  28  34  40  53 100 170 184 186 188 188 186 184 184 183 183 181 181 180 181 180 177 178 176 176 174 171 151 129 127 125 125 123 123 123 121 122 120 120
 211 235 250 253 253 253 245 239 224 214 209 206 205 204 202 204 203 203 203 201 203 204 201 200 201 202 198 190 148  66  45  37  33  30  29  26  24  23  23  23  23  21  18  19  21  21  24  25  24  23  24  24  24  23  23  26  29  32  42  69 133 175 182 183 185 185 184 182 183 180 179 180 178 178 178 178 176 175 174 171 157 130 129 126 126 125 123 122 122 122 122 120
 213 226 244 252 253 250 243 232 220 214 208 206 206 205 204 205 204 203 203 203 202 203 202 200 200 199 179 100  59  41  33  30  28  26  27  27  26  25  23  23  23  23  19  19  23  24  24  22  24  23  22  21  19  21  23  23  24  27  30  38  51  88 156 179 185 183 184 181 182 180 180 179 179 178 178 178 178 176 174 173 161 132 128 125 125 125 124 124 124 120 121 121
 211 219 236 245 246 243 240 228 216 211 208 207 206 207 206 206 206 205 206 206 203 203 204 202 198 162  79  46  38  33  31  29  30  30  33  29  28  24  24  23  22  22  19  21  25  26  25  22  25  24  18  20  18  19  22  21  21  24  26  29  34  44  85 159 180 183 182 182 182 182 182 180 179 179 179 180 176 172 172 173 163 135 128 125 124 123 123 124 122 122 119 122
 208 212 226 243 241 236 227 221 210 209 207 206 205 203 205 205 206 206 205 205 203 202 201 193 155  69  48  38  38  37  34  37  37  41  40  39  38  29  23  25  26  24  22  25  24  26  27  27  26  23  21  23  21  20  23  22  22  21  23  27  27  32  38  71 149 180 184 183 182 181 182 180 181 181 178 178 177 176 174 174 167 138 128 125 126 124 123 122 122 122 123 121
 208 212 222 238 231 225 221 216 209 210 207 207 205 204 206 205 206 206 205 204 204 202 193 123  61  48  44  40  43  42  40  44  39  42  48  47  45  40  33  28  25  26  26  29  29  30  32  28  28  29  26  25  24  22  22  23  23  24  21  24  26  30  31  42  66 154 178 183 182 184 182 180 182 180 179 180 178 178 175 175 168 145 128 125 124 125 124 124 124 123 121 120
 207 211 222 234 232 220 214 209 207 207 208 207 205 204 205 206 205 205 204 204 203 193 109  61  46  42  42  43  48  50  52  52  48  49  48  45  42  44  44  36  32  31  33  33  33  36  42  35  35  33  32  27  24  27  24  24  25  25  24  25  29  27  27  33  43  74 151 179 182 183 182 182 180 180 180 179 178 177 176 174 171 153 131 126 126 124 124 124 125 125 122 122
 205 210 217 233 242 223 212 208 207 207 205 204 205 205 204 204 205 203 205 203 199 142  58  47  43  40  40  42  48  55  59  59  52  45  42  38  39  38  38  37  41  38  39  44  40  45  47  45  42  38  35  34  30  32  29  27  26  25  24  26  27  29  28  30  35  47  86 162 181 183 183 182 181 181 179 180 179 179 177 175 173 156 135 129 125 124 124 123 125 124 123 123
 204 207 211 224 242 227 213 208 207 206 205 205 206 205 205 204 203 202 202 202 173  69  42  45  46  43  43  48  49  52  54  55  58  54  46  44  44  42  41  42  42  45  47  52  56  59  55  49  46  42  41  38  35  33  31  32  32  29  25  28  26  27  25  29  37  39  49  96 156 179 180 182 180 181 181 180 178 176 176 176 173 158 135 129 124 125 125 126 124 125 123 122
 205 207 210 218 236 225 214 210 209 208 207 208 208 208 211 211 209 208 207 193  86  48  44  45  44  44  51  56  58  59  55  55  61  60  53  50  51  52  54  53  56  58  62  68  72  78  71  62  54  51  51  53  47  45  43  38  32  32  32  33  30  29  29  31  35  38  43  58  99 172 180 182 182 181 181 179 178 178 177 178 175 164 140 130 126 125 124 125 125 125 125 123
 207 206 208 218 241 229 214 210 210 210 210 208 208 208 212 213 215 211 203 131  54  45  40  46  48  54  64  68  64  61  60  64  68  63  59  57  60  66  69  76  80  83  86  92  89  99  96  85  72  64  58  64  61  55  52  48  45  44  42  40  40  39  42  40  45  46  54  62  77 140 176 183 182 182 182 181 181 179 179 177 176 170 141 129 127 126 126 123 124 125 126 124
 207 207 208 219 242 230 215 212 211 212 211 209 209 212 212 209 209 206 180  67  46  41  45  48  57  70  76  75  68  68  76  76  75  73  73  74  81  89 102 105 110 107 114 124 117 118 118 103  91  82  79  84  82  75  69  68  72  68  64  63  69  69  71  70  71  67  63  69  76 113 168 182 185 185 183 184 181 179 179 177 177 171 144 131 128 128 128 125 126 124 126 126
 205 207 208 219 239 231 215 213 212 212 212 212 212 209 212 212 210 204 122  54  44  43  51  60  72  82  83  80  81  85  84  84  86  94 100 105 112 122 123 132 134 140 151 152 141 140 138 118 105  99  99 104 107 100  92  91  88  91  87  87  94  99 100 103 101  90  76  71  72  85 131 178 185 184 185 182 182 180 178 179 176 175 148 131 129 127 127 125 125 124 124 124
 206 207 208 215 234 227 216 213 213 209 211 212 213 209 211 210 207 196  77  50  46  56  65  73  87  94  93  96  97  94  95 111 121 129 130 133 131 131 140 151 164 173 178 170 160 155 155 140 125 118 115 122 127 119 113 110 109 114 110 106 112 122 121 120 122 118 108  89  73  76 102 174 184 182 183 182 182 179 181 179 177 177 156 134 128 127 128 126 126 124 125 125
 207 207 208 212 221 227 221 213 213 209 211 209 211 210 211 209 206 135  61  50  51  62  72  85  92  99 104 104 102 112 122 136 144 147 146 145 145 145 158 170 184 190 186 179 171 169 171 155 144 135 131 136 141 136 129 130 132 131 132 127 132 137 137 135 133 135 132 118  91  79  95 157 184 185 186 185 184 179 181 178 178 176 160 133 130 128 125 124 124 124 125 126
 207 207 208 209 214 228 226 218 216 213 213 212 209 210 209 207 191  80  53  57  61  67  83  91 101 108 114 114 122 139 137 144 148 150 152 152 155 159 167 177 187 197 193 191 182 178 177 167 159 148 144 150 154 155 150 150 152 147 148 147 147 150 152 151 148 146 145 134 120  91  91 144 181 187 186 186 184 184 181 180 180 178 166 137 130 128 126 126 127 126 125 125
 209 208 210 210 215 225 226 218 216 212 214 210 212 210 209 205 132  70  60  63  69  75  87  99 106 115 120 127 136 141 145 146 149 149 153 153 157 160 166 175 183 189 189 190 186 180 177 173 168 165 157 160 161 163 163 160 161 160 158 159 159 158 159 158 156 154 152 145 138 121  95 123 176 184 185 187 186 185 183 180 180 179 170 143 130 129 129 126 126 126 123 124
 210 212 214 215 215 223 227 221 216 214 215 212 212 212 211 183  84  72  66  71  74  76  83  96 111 121 130 137 139 144 145 146 149 151 152 154 155 157 160 164 183 186 184 187 182 179 175 174 169 170 172 171 168 166 168 166 166 166 166 169 166 163 162 163 158 156 152 148 145 135 109 105 163 186 188 189 189 186 183 181 181 178 173 143 132 128 129 127 128 126 123 124
 213 212 212 214 214 221 227 220 217 216 216 214 216 214 210 143  77  71  68  68  73  79  89 100 115 128 135 138 141 141 143 144 146 150 152 152 155 156 160 162 173 181 185 177 170 174 176 174 174 177 178 175 167 167 169 171 170 168 167 165 164 163 162 162 158 155 154 151 146 140 130 109 143 185 190 189 188 185 186 184 183 180 176 147 133 128 127 128 127 126 125 125
 212 212 212 214 217 222 227 220 218 217 216 215 216 215 204 100  78  70  70  66  70  77  87 104 121 133 135 138 138 140 141 143 147 149 149 151 151 153 155 161 166 170 176 180 176 174 174 173 176 175 175 169 166 169 168 169 170 169 166 164 168 163 161 160 159 156 151 150 144 141 138 122 116 172 188 189 188 188 183 186 184 181 178 154 135 130 129 127 127 126 127 127
 214 215 215 216 217 222 226 220 217 217 217 218 217 215 187  90  73  68  67  65  69  78  94 108 124 131 132 137 139 138 142 141 144 145 147 151 150 153 154 154 159 165 168 173 174 173 171 173 170 171 171 166 165 165 164 167 167 168 166 165 164 162 160 160 159 154 151 150 146 143 140 132 111 148 186 191 189 189 187 186 184 184 181 161 137 130 128 129 128 128 125 128
 217 216 217 218 218 224 226 223 219 218 219 217 217 216 155  81  70  68  67  63  72  80  96 109 121 129 130 132 134 135 138 138 141 144 145 148 147 151 154 152 155 158 164 164 174 173 170 172 168 166 165 162 162 163 162 163 166 168 166 167 164 163 160 161 159 156 152 149 146 142 138 133 122 115 176 191 191 189 188 188 189 186 183 164 138 131 127 127 127 127 126 127
 218 218 218 218 219 221 227 224 222 220 220 218 218 214 135  76  72  69  66  68  71  83 100 113 120 126 130 131 131 135 139 137 141 141 143 144 143 145 147 150 155 158 159 161 167 170 166 169 170 167 163 162 162 160 159 159 162 164 161 163 168 166 162 161 160 156 153 149 145 142 138 133 130 115 146 188 193 194 190 192 189 187 186 173 142 132 129 129 131 128 125 126
 220 218 218 219 221 223 225 224 222 221 223 221 219 214 107  76  69  69  69  69  74  86  99 112 119 128 130 131 129 131 136 136 139 138 140 142 142 144 146 149 153 156 158 161 161 165 167 168 167 164 163 162 161 158 154 156 161 164 158 160 167 165 164 163 161 158 155 149 146 142 139 135 133 122 121 177 192 193 194 192 191 188 186 177 147 136 133 130 128 130 127 126
 220 220 219 220 221 222 224 226 224 223 223 221 220 198  85  71  68  68  68  71  76  84  96 109 122 125 128 130 128 127 130 136 135 134 134 137 139 141 148 148 151 152 155 157 162 164 167 169 164 162 161 159 160 160 156 157 158 162 163 164 167 166 166 165 164 161 157 153 150 144 140 137 133 128 109 161 190 193 194 192 190 188 187 181 149 132 130 131 130 129 129 127
 220 220 221 220 221 221 224 228 225 223 223 221 219 175  77  68  66  63  65  72  79  86  95 110 118 125 129 129 126 124 128 128 130 128 129 134 140 140 148 147 151 155 158 160 160 166 166 170 167 164 161 161 161 160 158 159 160 163 163 166 166 166 167 167 166 162 160 154 150 145 139 135 134 130 114 149 189 193 192 193 193 191 190 184 154 136 133 132 129 129 127 127
 223 223 223 225 221 223 225 227 227 225 224 222 219 147  70  66  64  63  67  74  82  88  98 107 118 124 130 127 125 124 124 126 128 130 133 138 141 140 144 149 153 155 158 162 163 166 170 172 167 162 162 162 161 160 160 160 162 164 166 165 165 168 168 168 168 166 161 158 153 147 144 140 134 130 121 129 188 194 196 193 194 190 190 185 161 138 133 130 128 129 129 128
 224 223 222 223 225 226 225 226 229 228 226 226 219 128  69  66  65  64  68  73  79  86  98 110 120 125 128 126 124 126 128 127 131 136 136 141 146 145 149 151 155 161 161 163 166 168 172 171 171 164 162 164 163 162 162 162 164 163 163 167 166 168 168 171 169 167 164 160 156 150 146 138 134 130 126 124 187 196 197 194 196 192 191 188 168 138 131 130 130 129 128 129
 222 224 224 225 225 226 227 227 229 229 227 226 218 110  71  64  65  68  70  74  80  89 101 112 120 123 125 126 125 128 126 128 132 135 142 142 146 146 147 154 160 162 163 165 164 167 171 173 168 164 163 166 164 166 162 160 162 161 162 167 170 167 167 169 169 166 162 162 156 151 147 142 136 129 127 119 185 197 197 196 195 195 192 190 170 139 133 129 130 129 128 129
 224 224 223 224 225 225 226 227 229 230 228 226 211 102  68  62  66  67  71  74  80  88 100 114 119 120 121 123 124 125 125 128 130 135 141 143 145 144 149 154 157 158 161 163 161 162 166 167 162 162 162 162 162 164 165 162 165 162 162 164 163 165 165 169 165 162 159 157 155 151 150 145 136 127 121 119 178 197 198 195 196 196 194 190 178 146 134 131 131 131 129 128
 224 223 224 225 224 225 226 227 228 229 227 226 211  95  66  61  63  68  67  71  80  89 103 116 119 120 118 119 121 124 122 125 127 135 142 146 148 149 148 151 150 157 158 155 156 157 156 156 153 157 157 159 160 163 162 159 162 160 162 161 161 160 158 156 158 154 153 148 145 144 142 138 133 125 117 114 172 195 196 194 194 195 192 189 181 148 136 133 132 132 130 131
 221 221 221 222 223 223 225 225 227 227 226 222 208  86  64  63  63  64  68  73  81  97 105 112 114 117 116 112 117 120 121 125 126 134 138 141 146 143 143 144 143 142 138 140 141 144 142 142 144 151 153 153 156 160 159 157 156 159 158 159 159 157 149 146 143 138 136 129 130 130 129 123 122 114 107 110 167 193 194 193 193 193 193 190 183 152 136 132 131 131 128 128
 221 221 223 222 225 224 225 226 226 228 227 223 195  77  65  62  61  65  67  71  83  96 107 110 110 109 108 109 111 116 122 122 124 129 132 131 133 132 131 128 125 124 126 126 127 129 128 130 131 140 144 145 149 153 153 152 152 151 153 154 153 148 140 134 128 123 118 114 110 105 102 104 100  96  86  95 168 193 195 194 192 192 191 189 185 154 137 132 130 129 129 129
 221 222 222 222 224 224 225 225 224 227 226 223 192  74  64  64  61  64  63  71  84  93 106 109 108 104 105 105 108 114 116 111 107 114 116 115 115 113 115 110 108 106 106 108 112 114 115 122 122 128 134 137 140 145 146 145 143 145 145 144 145 141 130 121 114  98  88  81  76  75  79  74  72  72  74  74 166 194 195 194 194 192 191 190 184 157 138 131 130 129 128 128
 220 222 222 221 222 224 224 224 225 226 225 222 182  74  64  64  65  63  65  69  83  95 108 108 109 105 104 106 110 112 105  93  87  80  88  93  91  86  81  78  80  83  81  88  90  89  94 105 111 118 123 130 133 136 137 138 137 137 138 139 138 130 119 105  88  71  58  53  50  48  47  52  55  60  61  61 112 190 195 192 191 191 191 190 186 165 139 132 130 128 127 127
 221 220 220 221 222 223 223 222 224 225 223 221 182  76  61  58  60  66  63  71  86  97 104 107 107 102 103 104 108 102  84  72  66  61  64  66  63  60  52  54  50  50  52  56  61  61  69  84  92 105 115 121 124 127 127 127 132 133 132 129 126 122 109  91  76  62  48  43  38  34  35  38  44  48  57  64  90 185 193 195 194 192 193 190 186 171 142 134 132 130 129 129
 221 219 221 219 222 222 224 225 226 224 222 221 183  72  60  59  59  62  63  71  85  97 101 105 102 103 102 107 100  76  59  57  52  54  54  49  47  43  41  41  40  40  43  43  42  48  50  63  76  90 104 110 116 118 119 124 128 130 126 121 117 111  98  80  63  48  43  39  38  33  36  40  46  47  54  70 100 183 192 193 192 192 190 189 186 173 143 135 130 128 131 128
 219 220 219 219 221 220 221 222 224 224 223 217 189  72  63  58  59  56  62  69  87 100 102 100  98 101 104  94  66  57  56  56  54  50  45  44  44  41  40  39  36  37  35  37  34  41  46  57  70  77  93 100 106 107 110 118 124 125 120 117 109 104  90  74  55  49  45  48  51  59  67  69  67  66  68  74  92 172 190 193 192 192 189 188 188 178 148 133 131 131 130 126
 219 219 219 220 220 222 220 221 224 222 220 217 192  75  65  61  58  62  63  71  91 100 104 103 101 102 101  89  70  68  67  65  62  58  52  47  47  45  44  47  44  46  44  42  42  45  47  51  59  74  88  94  96  99 102 110 118 118 115 109 104  99  84  69  59  60  61  64  68  73  77  82  81  85  84  79  87 168 191 192 193 190 188 188 186 178 151 135 131 131 130 128
 218 217 219 220 220 218 218 219 221 219 220 217 197  80  67  57  59  62  63  71  91 100 104 105 102 105 104  87  79  77  70  68  64  54  52  52  64  66  68  65  62  58  60  59  57  58  59  58  61  72  84  91  94  95  99 106 114 117 114 105 101  94  81  72  67  61  57  53  55  60  66  77  85  90  88  86  90 164 188 191 191 191 190 187 185 181 151 136 132 130 129 126
 217 216 219 219 219 219 219 219 219 221 218 216 193  79  66  58  58  62  66  75  94 101 104 104 102 103 100  92  84  80  73  69  62  63  67  67  66  64  60  56  50  49  49  54  62  65  68  70  68  72  82  87  89  92  96 103 114 119 111 101  93  84  75  66  53  52  51  52  56  61  61  63  70  85  90  90  98 171 190 190 190 190 187 188 186 181 157 138 132 128 128 127
 216 215 217 219 218 217 217 216 218 218 219 217 200  80  64  62  57  63  67  79  92 101 105 103 104 107  97  84  84  76  73  76  73  73  72  61  54  52  50  48  50  48  45  47  51  54  61  69  71  70  76  80  86  91 100 108 120 123 114 100  88  76  62  51  46  46  48  49  52  59  68  73  71  72  85  94 111 181 190 193 189 187 189 186 185 181 165 137 132 130 129 128
 217 216 217 218 218 215 216 217 218 217 218 218 205  89  65  65  62  58  63  75  95 104 104 103 106 100  90  83  81  79  80  78  77  67  56  51  49  50  48  47  48  48  50  48  49  50  56  63  68  69  72  76  81  92 108 128 139 142 128 101  80  66  50  46  46  41  32  32  39  52  51  54  63  70  79  92 124 182 189 192 190 189 187 187 186 181 166 139 130 130 129 127
 218 218 220 219 218 217 217 218 217 218 217 218 210 104  68  66  58  60  61  72  97 106 107 107 105  95  86  83  82  84  83  80  64  50  51  53  49  45  42  43  43  45  49  49  49  50  52  56  62  66  70  73  79  94 124 152 164 163 149 101  71  55  48  47  39  29  25  29  36  64  95  79  48  54  73  94 136 184 190 190 190 189 188 189 188 184 170 142 131 129 128 128
 218 219 221 222 220 221 219 219 220 219 219 217 212 128  68  66  62  61  61  72  97 107 106 105 100  93  87  85  86  85  80  61  53  55  51  40  33  32  31  40  78  71  53  50  51  48  51  52  58  64  69  73  77  96 135 165 178 181 165 110  70  56  52  57  37  30  29  31  58  57 109 112  80  51  63  93 141 185 191 191 190 189 190 189 187 186 175 144 133 126 129 129
 220 219 220 220 220 220 219 219 220 220 218 219 215 157  77  68  64  62  64  74  95 106 104 102  97  92  94  90  89  85  67  54  53  43  43  36  29  26  27  39  67 115  92  64  49  48  50  52  58  62  66  73  78 105 143 168 188 189 176 137  72  61  55  64  41  32  42  38  44  54 105 111  89  65  69  94 141 188 191 192 192 189 189 187 189 184 183 148 132 129 127 127
 217 217 220 219 218 219 219 219 219 219 218 219 215 198  93  75  68  62  64  74  94 105 103 102  99  95  91  90  88  78  60  52  46  55  59  35  30  44  35  52  59 117 101  76  60  51  53  53  58  61  64  71  83 120 147 167 185 195 182 159  96  66  52  62  54  38  33  34  43  79 114 102  80  69  78  97 135 184 192 191 192 190 188 188 185 184 180 152 135 132 130 130
 217 219 220 221 219 218 218 218 219 218 216 215 213 208 154  86  75  66  64  69  91 105 106 105  99  96  92  88  87  73  58  51  53  81  75  36  35  38  36  40  61 113  98  72  55  58  51  58  61  65  66  72  95 130 145 167 182 193 187 170 129  71  55  51  54  47  42  47  67  96  93  82  73  79  93 104 136 185 192 191 190 191 190 188 186 182 180 157 136 133 129 130
 217 219 220 220 218 218 218 219 220 215 195 177 175 172 151 100  84  69  66  66  84 102 107 106 100  95  92  90  82  70  59  54  57  65  83  65  37  34  38  46 100 108  79  52  45  47  52  57  61  62  65  82 114 133 143 161 178 192 186 177 150  89  63  55  53  56  54  59  68  74  81  86  87  95 103 109 132 183 191 191 191 191 188 188 186 184 182 163 138 130 127 128
 219 218 218 220 220 220 220 221 218 185 144 139 138 133 121 104  93  83  69  68  82 101 105 107 101  98  94  87  80  77  69  69  65  64  69  76  70  60  64  78  82  69  55  49  50  55  55  60  61  61  74 107 127 135 144 159 172 194 187 180 161 118  74  59  54  59  64  73  80  88  93  95 103 103 109 115 131 182 190 192 191 190 190 189 187 186 184 169 138 132 128 128
 218 219 219 220 221 220 220 218 211 139 119 112 108 110 106 103  99  91  76  67  81 104 110 110 105 106 100  97  89  87  86  86  78  73  69  69  66  64  66  64  63  64  57  52  53  57  55  57  62  71  98 129 131 132 141 154 169 189 188 179 166 138  89  75  66  61  68  75  83  91  94  97  99 104 113 116 124 176 190 192 192 190 189 189 189 188 187 174 142 134 131 128
 219 220 220 220 220 221 220 218 200 110  96  85  88  89  88  94  97  96  85  66  83 106 110 110 109 109 104 103 101  99 101  96  91  84  82  81  79  76  75  72  71  67  58  58  58  56  57  62  76  97 124 134 135 134 136 149 163 178 189 178 170 146 111  90  85  82  80  79  81  88  90  95 104 114 121 122 122 168 190 192 191 193 191 188 190 190 187 178 146 134 131 130
 219 219 222 222 222 222 221 218 190 103  89  81  84  91  93  88  93  94  88  66  84 106 110 109 112 116 110 108 108 106 106 101  96  90  85  86  85  83  81  75  72  65  64  62  62  60  66  76  99 120 132 133 138 139 138 145 159 172 183 181 173 153 126 109 103 100  99  99 103 105 107 112 119 122 126 126 122 162 191 193 192 194 192 191 191 188 186 181 151 133 130 129
 223 220 221 222 222 222 221 220 193 102  88  83  85  97  96  87  89  92  92  69  85 106 110 111 116 119 119 115 116 116 117 111 105  99  94  89  87  83  80  77  74  70  71  71  70  75  85 103 118 129 131 133 136 138 140 150 159 168 181 186 178 162 136 121 117 114 112 109 114 117 118 124 125 128 130 127 125 155 188 194 194 194 194 192 189 188 189 183 156 135 131 130
 221 221 223 223 223 221 223 220 192 105  86  83  88 102 100  96  93  81  93  72  80 106 111 110 117 123 121 122 122 126 126 121 116 108 106 101  97  94  89  87  83  78  81  82  87  94 108 118 129 130 129 131 136 138 144 151 158 169 184 194 184 171 148 126 123 123 122 121 119 125 125 129 129 131 133 130 126 149 188 194 196 193 193 193 191 188 187 182 160 135 131 129
 224 223 222 222 224 223 223 219 203 110  84  85  93 108 103  98  79  71  98  78  79 103 110 111 119 127 127 127 127 131 133 131 127 120 119 111 110 107 102  99  95  93  96 101 106 117 122 126 130 128 125 130 137 139 145 152 161 174 186 196 188 178 161 135 128 128 129 132 130 129 133 135 136 136 134 132 128 142 187 192 194 194 193 192 191 190 190 185 163 136 130 127
 222 221 223 223 224 224 224 223 217 130  87  84  94 105 100  87  71  83 105  80  77 101 108 113 118 127 132 135 131 132 135 140 138 131 127 122 119 115 114 113 108 109 110 116 122 126 126 130 130 125 127 133 138 141 148 156 166 180 195 200 195 187 174 153 135 134 136 140 142 141 146 145 143 140 135 133 130 140 187 193 195 196 197 195 193 193 190 187 171 140 131 130
 223 221 221 223 223 224 222 222 218 167  96  81  96 105  93  79  72 105 112  86  74  93 105 112 119 125 132 136 135 135 140 141 139 135 134 132 126 121 120 118 122 127 129 131 130 130 128 126 124 123 123 129 130 136 146 156 172 184 202 203 194 187 183 171 150 134 139 142 151 152 156 154 152 142 133 134 132 142 186 194 195 195 195 193 193 194 189 187 176 142 131 129
 224 223 223 222 222 223 224 222 222 203 114  86  96 105  90  72  75 115 116  91  68  84 102 110 118 123 132 136 138 140 142 144 142 139 137 137 134 131 133 134 137 140 143 141 137 134 129 128 124 120 118 117 116 130 143 156 175 183 198 201 188 180 184 179 160 141 140 146 151 150 154 157 153 146 137 136 133 144 186 195 195 197 197 195 194 193 191 188 181 147 131 130
 225 223 224 225 223 223 224 225 224 218 164 100  94 106  93  76  78 110 113 103  69  80  99 109 117 124 130 136 142 144 142 145 148 146 147 148 147 145 147 150 152 157 154 152 146 139 133 124 118 114 112 111 117 126 141 153 172 178 183 185 178 172 175 177 167 148 139 142 145 146 149 153 150 146 140 137 132 148 190 197 197 195 196 197 193 192 190 188 183 150 133 129
 225 225 225 224 223 225 226 225 225 223 216 132  98 103  96  80  81 106 106 100  72  74  93 105 113 124 127 136 142 145 145 148 150 151 154 158 158 160 159 160 160 160 154 154 145 138 130 122 111 106 118 128 132 130 141 149 159 164 164 169 166 166 170 171 165 148 133 136 140 145 147 147 146 144 140 138 135 155 193 196 197 194 194 194 194 193 191 189 184 155 136 128
 225 226 225 226 225 227 226 226 224 223 223 192 112 104 100  81  79  97 103 102  83  70  88 101 110 120 127 135 138 142 145 147 152 155 158 161 160 161 162 161 157 154 152 149 139 131 123 112 103 102 130 145 140 132 135 139 146 150 156 161 159 159 161 164 160 148 134 130 135 141 143 144 144 140 138 136 131 159 194 198 196 196 197 194 194 193 192 190 186 162 136 129
 226 225 225 225 225 225 226 225 225 225 225 219 144 107 108  90  75  83  90 102  96  73  79  96 108 116 125 127 134 137 145 147 153 155 157 161 159 158 162 161 155 149 145 140 133 124 114 103  94 100 132 141 135 124 125 126 128 134 146 152 148 151 154 159 157 140 125 124 130 132 138 137 138 135 135 131 128 170 194 198 198 197 195 193 194 193 193 189 187 167 134 131
 223 225 224 224 224 224 224 226 225 225 224 219 195 118 107 110  97  91  95  96  97  74  73  90 105 110 118 124 130 135 142 144 149 153 155 155 154 157 158 154 148 145 136 128 121 112 103  99  92  95 121 128 126 112 110 111 114 122 132 140 136 137 140 145 143 123 116 117 122 130 132 131 129 131 129 128 128 183 195 197 197 195 193 195 194 191 191 189 187 172 140 130
 222 222 221 221 222 221 222 223 223 223 221 221 214 161 112 107 108 109 110 102  95  81  70  85  98 104 112 121 127 133 136 141 143 150 148 150 153 153 152 147 145 140 133 124 115 104 103 101  91  86 101 108 108 100  96  93  95 103 109 119 120 120 122 125 120 115 120 116 114 124 127 129 129 128 127 122 136 187 194 193 195 194 191 192 193 190 191 187 184 174 139 131
 222 222 220 221 221 221 221 222 221 222 222 222 218 207 136 113 105 112 112 108  98  85  69  83  96  99 107 114 123 131 136 140 140 142 143 141 146 148 144 142 139 133 127 117 106 103 110 111  94  80  89  92  92  88  81  77  79  86  92 101 104 106 108 111 110 130 129 118 116 119 123 126 126 122 123 122 154 191 195 194 194 191 192 192 192 190 187 186 183 175 141 130
 221 220 221 222 220 221 221 221 221 221 220 222 221 217 193 128 122 119 114 108 105  89  70  83  96 101 106 111 118 126 132 135 139 140 139 138 139 141 138 136 132 126 116 110 108 114 121 119 106  86  81  80  76  66  67  68  71  74  84  93  95  94  98 100 115 132 135 129 124 120 119 122 122 121 120 120 173 192 195 194 192 191 192 190 190 190 187 185 183 179 147 127
 218 218 219 222 221 220 220 220 221 219 219 221 221 219 213 184 136 123 119 111 106  91  69  79  90 101 101 108 113 121 126 129 133 132 133 132 133 136 135 131 123 121 114 110 116 126 127 127 118  98  82  71  62  61  67  69  70  70  76  85  84  86  85  82 112 132 137 139 131 121 118 118 119 118 116 126 184 193 193 193 191 190 190 190 188 189 188 184 183 180 151 128
 217 217 218 219 218 219 221 219 219 219 220 221 220 219 218 212 198 149 116 109  99  90  93  76  90 100 103 105 109 115 119 124 124 124 127 126 128 126 124 124 120 120 115 117 126 136 136 133 128 108  84  71  62  57  58  59  61  70  77  81  73  68  64  61  79 123 134 134 134 125 121 116 119 118 111 135 185 190 191 192 191 190 188 189 188 185 187 184 183 178 152 129
 215 214 217 215 217 218 217 218 219 218 218 216 218 218 218 216 213 206 158 111 102 151 161  80  89  98 103 101 106 112 113 114 119 119 122 122 119 116 118 119 118 117 119 125 135 140 138 136 128 108  80  65  56  48  45  43  51  65  77  66  57  54  49  48  64 100 114 117 120 121 122 120 117 114 110 140 185 189 189 190 189 189 188 188 187 186 186 182 181 178 157 132
 214 215 214 215 214 215 217 216 217 217 218 218 216 216 217 214 216 212 208 210 207 206 193  99  91  98 100 101 105 109 108 109 112 115 116 116 116 114 115 115 118 120 120 131 135 132 128 125 115 101  75  55  46  41  36  35  42  54  63  53  45  45  37  43  56  78  88  83  89 104 119 121 115 111 108 144 180 189 189 188 187 188 187 186 185 184 184 183 182 178 161 132
 213 212 212 212 212 212 214 213 212 212 212 213 214 214 212 213 214 211 211 211 211 210 207 114  87  95  98 100 102 102 105 107 110 112 113 110 109 110 110 114 113 116 121 122 115 113 108 106 100  86  67  53  43  42  38  37  37  45  54  45  40  39  34  43  54  65  74  73  68  80 104 118 113 107 102 123 176 186 186 186 187 188 185 183 182 183 182 182 181 177 167 135
 211 210 210 211 211 211 212 211 212 212 212 211 212 211 214 212 213 210 210 209 208 210 204 151  83  85  93  98  99  96 101 104 106 108 111 111 108 109 108 111 114 115 103  94  99  97  91  91  93  76  62  55  45  44  43  39  37  41  48  39  39  44  42  50  59  66  69  64  61  64  89 110 108 104  88  50  96 172 182 185 186 184 183 182 182 180 180 180 179 177 170 136
 210 209 208 208 209 210 209 209 210 209 210 210 210 211 212 209 209 210 209 209 208 210 208 168  85  85  89  92  95  94  98 103 103 106 107 110 111 110 110 112 114 107  83  81  76  85  84  85  80  66  65  59  50  46  47  41  34  38  43  39  44  47  47  57  60  68  71  61  65  64  80 103 108 102  76  38  35  52 138 179 183 183 182 182 183 180 179 178 178 176 171 138
 208 206 208 209 208 208 207 207 210 210 208 207 207 208 210 208 208 208 207 206 207 208 204 182  85  82  88  90  96  97 102 104 105 107 109 110 109 111 111 115 110  88  74  66  64  72  78  86  76  72  73  69  56  48  50  53  45  45  47  51  61  68  64  77  70  75  79  70  68  73  80 101 107 100  61  27  23  30  39 112 176 180 180 180 180 180 180 177 177 175 170 143
 205 205 205 208 207 209 208 208 207 209 207 207 209 208 207 207 208 207 206 206 207 206 202 190  91  81  88  93  93  99 100 104 105 106 106 108 108 111 114 112 101  76  71  66  67  71  75  84  84  91  95  88  72  68  68  78  77  84  82  85  87  82  80  83  81  83  81  65  67  78  84  96 102  94  56  29  18  18  24  38 109 175 179 180 180 179 179 177 175 176 170 148
 207 206 206 206 207 207 208 209 207 207 207 207 208 206 206 207 207 207 206 206 204 205 200 161  72  79  88  90  93  95  99 102 102 105 104 107 109 110 112 107  89  74  70  69  72  74  80  88  92  96  95  90  76  73  72  72  75  80  85  86  80  79  75  74  68  63  66  65  71  81  91  98  98  85  44  27  21  17  18  26  32 108 173 179 178 178 179 176 176 176 172 153
 206 205 206 206 207 206 207 207 205 206 207 207 210 208 207 207 207 207 205 206 205 200 124  52  50  75  83  88  92  95  97  97 100 103 104 104 109 110 111 102  79  79  76  66  58  62  69  76  75  72  72  70  68  69  69  68  67  69  71  70  69  69  64  64  67  75  87  80  78  91  96  97  96  74  32  20  23  21  16  18  22  34 112 176 177 178 178 176 175 174 172 157
 205 205 207 206 207 207 207 207 206 207 206 206 207 207 204 205 205 207 206 203 201 133  44  33  31  60  77  84  87  94  94  95  98 102  99 102 105 107 107  93  85  82  70  59  56  50  52  55  57  54  51  50  53  59  60  58  54  53  52  56  57  61  67  72  80  86  96  92  94  97  98  99  92  59  25  18  22  22  19  16  17  25  40 127 174 178 177 176 175 173 173 159
 203 202 202 205 205 204 203 204 203 207 204 205 206 206 206 205 205 203 204 191  88  41  32  24  22  47  67  81  86  90  91  97  98  97  97  99 102 104 103  95  88  82  71  69  72  70  67  72  72  70  66  63  58  59  59  57  51  48  54  66  78  84  80  77  84  96 100 103 102 101 102  97  86  38  20  16  21  24  22  19  15  20  29  43 139 170 174 174 174 173 172 160
 202 201 201 202 201 202 200 203 203 205 205 203 203 204 204 203 203 202 195  84  40  28  23  18  18  25  56  69  79  89  88  91  96  96  96  98 100 104 103  94  87  86  75  77  82  84  83  84  83  80  77  76  75  74  71  69  66  75  78  81  83  83  80  81  92  98 101 108 104 103 101  92  72  30  16  15  18  23  23  21  15  15  19  29  47 116 170 172 172 170 171 164
 200 202 202 202 200 202 202 203 204 202 204 203 202 201 204 202 200 193  94  40  28  21  19  15  13  16  36  61  70  80  85  91  94  96  96  96  98 100  99  98  93  86  88  89  88  87  90  87  90  88  85  81  78  82  81  79  79  82  84  82  81  81  82  89  93  92 102 105 101  99  97  90  59  21  12  15  18  22  23  22  18  13  15  22  30  36  86 164 171 173 172 166
 202 202 201 201 203 201 201 202 203 202 202 202 203 201 201 199 188  87  43  31  25  19  15  13  13  15  25  52  64  70  82  88  92  94  93  91  96  98 101 100  98  89  90  97  98  96  92  90  90  90  94  85  78  73  75  76  76  79  81  79  80  83  86  90  88  93 103 104  97  91  89  84  43  15  11  12  16  21  23  22  20  13  16  18  26  30  37  97 165 170 169 169
 200 201 200 199 200 202 202 202 201 201 200 200 202 200 200 196  99  48  32  26  22  16  15  12  13  12  21  47  55  61  71  85  92  92  92  93  95  95  97  99  95  91  92  96 103 103  97  89  89  86  86  85  84  83  81  79  80  81  82  81  82  81  80  86  94 102 103  99  93  86  83  75  32  11   9  12  16  21  22  22  20  13  15  18  22  29  34  41 126 160 163 162
 201 200 201 201 201 200 200 202 200 200 201 201 201 201 197 157  53  35  26  24  19  16  12  15  14  14  19  48  49  50  61  76  82  85  90  90  95  93  94  91  88  87  95 101 103 103  97  90  88  83  79  77  74  72  73  68  65  65  68  66  71  73  77  87  99 103 100  91  88  82  80  61  23  11   8  12  17  20  20  18  21  14  12  14  19  26  28  33  64 152 152 153
 201 200 201 200 200 200 202 202 202 200 200 200 200 199 189  88  43  29  22  19  16  12  12  12  12  13  17  43  65  42  47  56  70  74  89  86  91  92  92  84  85  86  95 101 103 100  98  96  93  89  81  77  74  67  58  48  44  44  44  52  59  71  85  93 100 103  99  88  80  73  73  46  16   9   7  11  15  19  20  21  22  16  12  12  16  20  27  29  37 119 154 158
 199 199 200 198 200 200 201 201 201 200 200 200 198 192 101  49  31  26  19  18  14  12  12  12  13  11  18  35  75  59  45  46  58  67  80  83  88  89  88  81  78  88  93  95 102 102 102 100  96  88  82  80  74  61  49  40  36  40  39  52  66  82  91  96  98 101 102  88  78  66  62  30  12   8   8  10  15  19  18  19  22  16  14  11  12  17  23  29  32  56 123 124
 194 194 194 194 193 193 192 195 192 192 193 190 190 142  51  36  27  25  21  18  14  14  13  12  12  12  14  24  80  82  63  40  49  61  69  75  82  85  86  80  81  83  86  91 100 104 106 103 100  95  89  83  82  74  68  60  57  62  64  66  74  87  94  97  98 101 100  90  72  61  49  19  12   9   9  10  15  18  18  18  20  17  17  12  12  17  21  27  26  34 108 113
 152 151 150 149 149 147 144 143 148 143 141 140 133  60  40  32  24  23  18  16  12  13  14  12  11  12  15  20  75  81  80  52  40  53  62  70  76  82  83  79  80  84  91  95 106 109 114 117 113 105  96  93  86  83  83  78  76  69  72  75  73  80  90  95  92  89  88  82  66  56  36  14  10   9   7  11  17  19  16  18  18  17  18  12  13  14  19  25  23  31  72 107
 129 127 126 127 129 128 127 128 130 130 127 126 107  37  35  26  24  20  16  14  11  12  12  11  13  12  12  18  67  80  81  80  52  44  51  58  68  75  83  84  79  79  89  95 107 114 118 126 121 121 112 106 100  92  89  89  84  73  66  78  79  83  82  87  85  76  78  64  55  50  35  12  10   9   8  11  14  18  19  18  19  19  18  13  11  11  17  25  23  25  31  43
 123 121 121 121 121 124 122 124 124 123 121 122  85  32  30  24  22  19  15  12  10  12  12  11  11  13  12  15  60  76  78  78  72  54  48  54  64  69  74  77  69  67  80  88 102 116 120 124 122 122 125 120 104 100  96  90  76  76  75  79  77  74  77  81  72  57  60  52  46  45  42  13   9  10   8  12  14  16  16  18  20  19  15  11  11  14  18  21  22  22  23  24
 117 117 120 118 118 119 118 122 120 120 120 104  50  33  29  23  21  19  17  12  11  12  12  11  12  12  13  16  56  73  79  81  78  69  58  45  52  56  62  65  63  64  72  82  98 100 104 105 110 117 121 115 100  92  94  88  72  78  73  79  75  72  70  71  56  51  46  41  36  50  52  14   9   9   8  12  15  17  16  19  19  17  17  12  10  12  17  19  22  18  19  18
 117 116 117 117 118 118 117 119 118 115  80  43  35  30  29  22  21  19  17  11  12  12  13  12  13  10  11  18  54  73  79  79  78  75  70  57  45  45  53  55  54  55  62  71  78  81  87  90  88  96 101 100  95  88  92  80  68  69  72  69  71  70  66  63  55  46  38  35  38  63  56  12  10  10   8  13  15  18  15  16  17  14  14  13  11  12  18  18  22  17  17  18
 115 114 115 118 118 118 116 117 105  62  41  32  29  26  24  20  20  17  15  13  11  12  12  10  12  10  12  20  50  71  78  82  79  75  71  68  56  42  36  44  37  41  47  61  66  66  78  76  69  70  77  83  83  82  88  80  68  63  65  64  67  65  55  53  46  36  32  32  50  72  52  16  10  10   8  10  13  16  17  16  17  14  14  12   9  11  15  17  21  18  15  19
 113 113 114 116 116 113 111  80  41  40  30  22  23  22  22  21  22  16  13  11  10  12  12  14  12  11  11  18  46  69  77  81  80  79  75  68  61  57  46  38  33  32  33  50  54  58  63  64  58  56  60  69  77  76  70  68  64  60  56  54  56  54  48  50  39  32  31  47  76  76  49  16   9   8   9  11  13  15  16  15  17  16  14  11   9  14  15  18  18  16  14  15
 114 111 114 113 113  95  56  35  33  25  22  20  20  22  24  21  24  19  15  11  11  12  11  10  11  10  12  24  48  70  76  81  81  81  76  69  66  64  57  47  37  30  27  35  41  41  47  55  59  53  55  57  62  63  60  51  50  53  46  39  38  39  40  37  31  30  47  81  87  75  48  17  10   9   8  12  16  16  17  18  16  14  15   9  10  12  14  17  17  14  14  14
 112 111 110 104  70  41  36  29  28  23  23  18  18  23  24  24  21  17  13   9  10  12  11  11  12  11  14  26  46  65  73  80  81  82  81  74  70  66  66  63  57  45  31  30  29  29  34  45  48  46  48  48  54  52  49  41  35  39  34  29  29  30  30  30  33  57  80  91  89  72  42  19  10   8   8  12  15  16  16  16  13  12  13   9  10  12  14  17  17  15  13  11
 109 108  84  47  37  29  26  26  24  21  20  18  18  23  27  21  20  19  13  11  12  10  10  11  13  13  18  32  43  62  72  77  77  79  79  72  69  68  68  66  62  58  45  35  28  25  27  36  35  32  37  40  45  34  32  27  22  25  25  24  22  24  32  51  62  82  92  94  87  67  38  18   9   8   7  12  15  17  14  15  18  16  15  10  12  11  13  15  15  12  11  11
  94  53  34  30  25  22  23  22  21  20  20  19  16  24  21  18  19  19  11   9  11  10   9  11  13  12  17  40  42  56  67  72  74  77  75  74  67  66  66  68  66  62  57  53  39  27  24  27  27  25  31  31  26  26  21  22  20  23  29  35  42  50  64  69  77  85  94  92  81  59  32  16   9   7   7  11  14  16  18  16  19  17  12  11  13  12  13  16  11  11  12  12
  40  32  29  25  22  20  19  20  20  19  19  18  16  25  20  19  20  18  12   9  10  11  10  12  10  12  17  49  39  58  65  70  75  75  75  75  71  68  65  66  71  69  67  62  59  51  40  32  27  27  25  27  27  28  29  34  36  60  69  71  77  73  71  73  82  87  94  88  74  50  34  16   8   8   7  10  14  16  16  15  17  15  15  12  13  13  16  17  12  11  13  12
  29  25  23  21  22  20  18  19  18  17  16  17  17  22  20  20  19  16   9   9  10  10   9  12  10  12  14  49  46  58  65  70  70  72  73  74  73  68  63  65  71  69  66  70  67  64  61  58  58  49  49  52  58  58  63  69  74  81  85  79  80  78  73  76  82  85  88  83  67  46  38  14   8   7   6  10  12  13  14  14  13  14  16  12  12  11  12  12   9  10  12  11
  22  23  22  20  18  19  19  18  18  17  16  16  16  21  19  20  20  17  11   9  10  10  10  11  12  12  11  36  48  54  64  66  66  71  74  75  73  67  65  66  65  66  68  74  75  72  71  74  73  67  69  73  75  79  77  81  86  88  86  84  78  75  73  76  82  86  84  77  60  44  38  13   8   6   7  12  13  15  15  15  15  16  16  13  11  12  12  11   8  11  13  11
  20  20  20  19  18  18  17  17  15  17  18  14  14  18  17  22  22  17  12  12  13  10   8   9  10  10  12  20  57  51  64  66  66  68  72  71  71  68  64  62  65  68  68  70  76  75  76  81  81  79  76  83  83  80  83  88  92  93  84  84  74  72  72  74  83  85  80  72  56  48  35  10   8   5   5  10  15  15  16  13  15  18  18  11  11  11  12   9   7   9  12  12
  22  21  19  18  20  16  16  17  16  18  15  14  14  17  18  21  21  19  14  12  11  11   9   8  11  12  12  14  55  45  61  66  67  67  68  71  73  70  64  63  62  64  68  70  76  80  83  84  82  79  82  87  86  88  88  90  90  87  82  77  71  70  74  79  83  81  74  64  54  55  30  10   7   6   6  12  14  13  13  14  17  17  17  12  11  11  12   9   7   8  11  11
  18  18  18  15  18  16  16  19  15  17  15  13  11  17  21  22  22  18  12   8  11   9   9   9  11  12  11  13  38  61  56  67  68  66  68  66  70  67  64  63  63  62  64  66  72  75  82  87  84  84  87  88  89  92  91  90  86  81  74  70  69  72  76  78  78  75  68  58  55  63  20   8   8   6   7  11  16  15  14  16  17  16  15  12  11  11  13  10   8   8  10  10
  19  16  15  15  17  18  18  17  18  16  14  13  10  15  21  22  20  18  13  11  13  11  10  10   9  11  12  12  19  70  46  66  67  66  69  68  71  70  68  62  60  59  59  62  68  71  73  82  84  83  87  89  92  93  92  86  78  72  71  68  72  74  76  78  76  71  66  58  65  46  17   9   7   4   6  11  17  17  15  18  18  15  17  13  11  11  12  11   9   9  10  10
  16  14  15  16  15  16  16  18  17  13  11   9  10  14  19  18  19  18  15  11  11  10   9   8  10  11  14  11  14  40  69  54  66  67  67  68  68  68  69  67  61  60  58  59  59  61  66  72  80  82  87  88  88  89  88  80  73  68  65  70  69  73  76  76  70  66  63  61  69  28  11   8   5   4   6  10  16  14  15  16  20  17  16  13  11  12  14  12   9   8   9  10
  16  17  15  15  16  17  17  18  14  13  12  10   9  11  17  19  19  18  16  11  10  12   8   8  10   9  12  11  16  24  64  65  59  67  69  67  64  66  70  71  61  59  57  55  57  57  59  64  72  80  85  85  89  86  77  71  69  68  68  70  72  75  75  73  70  63  56  68  54  16   8   7   6   5   7  12  16  14  16  18  17  17  15  15  10  11  12  11  12   9   9  10
