P2
# Generated by OpenCV 3.4.0
92 112
255
 197 204 212 214 212 205 199 196 192 193 193 191 191 193 192 194 193 193 189 193 193 191 190 190 189 190 190 190 191 190 189 188 189 188 189 187 181 171 168 164 154 155 162 176 178 180 181 181 183 181 179 181 181 182 182 181 181 180 177 179 178 177 177 177 175 176 175 175 173 172 172 170 171 170 170 169 165 166 162 152 129 124 122 120 122 121 119 119 121 119 119 117
 200 208 231 244 240 224 208 200 196 195 197 195 196 194 193 193 194 193 193 194 194 192 192 192 192 191 190 192 193 189 188 183 182 178 160 124 116  77  69  62  69  59  64  82 103 121 135 146 158 171 178 181 181 182 182 181 181 182 181 180 178 180 178 179 177 178 177 177 174 174 173 174 172 171 170 168 167 167 166 160 133 126 124 122 121 121 121 119 121 119 119 118
 203 226 250 253 252 245 230 212 202 199 198 196 195 196 196 194 193 194 193 194 195 194 193 192 192 192 188 190 185 171 147 108 103  92  65  50  49  42  36  35  37  33  32  37  38  41  40  44  59  93 137 173 178 178 182 182 180 182 180 181 181 180 179 179 180 178 178 177 176 175 175 173 172 171 171 171 170 168 169 162 137 126 124 121 122 122 123 120 120 119 118 120
 207 236 252 253 253 252 244 230 211 202 199 198 197 196 197 195 195 196 196 195 198 195 195 196 194 188 173 161 129  78  54  46  43  39  37  31  29  26  28  28  27  25  24  26  28  28  28  30  34  39  44  65 105 126 173 175 178 182 183 183 181 180 180 181 182 180 179 178 178 177 175 174 174 172 172 172 171 171 169 164 143 127 125 124 122 123 123 122 120 120 119 118
 208 237 252 253 253 253 247 236 217 208 203 199 200 201 199 198 197 197 198 197 198 197 196 195 186 136  76  60  48  37  33  30  28  26  27  25  25  24  24  24  24  26  24  25  24  23  22  27  27  28  29  34  38  41  68  95 142 178 180 182 182 183 181 181 180 180 179 178 179 178 177 176 177 176 174 174 172 171 169 167 149 128 125 124 123 124 123 124 123 121 121 121
 206 231 250 253 253 253 245 235 218 209 202 200 202 199 198 197 196 198 197 196 197 195 194 177 120  58  45  36  33  30  28  26  25  24  23  21  21  21  20  21  22  20  20  21  23  22  22  25  25  23  23  28  30  31  34  40  47  90 133 155 174 177 180 181 181 180 180 179 178 177 176 176 177 173 171 173 174 172 170 166 152 129 126 123 124 124 123 125 124 122 119 121
 206 221 243 251 253 250 243 227 214 208 205 201 202 202 199 201 198 197 198 198 192 189 166  95  52  38  34  30  26  24  24  24  25  21  19  20  20  20  21  19  22  19  19  19  20  21  20  23  21  22  22  23  23  24  26  29  33  41  46  71 102 162 176 179 180 179 179 178 180 177 177 177 175 174 175 173 172 172 171 168 159 132 127 123 123 125 124 124 121 123 119 120
 208 216 234 246 246 244 237 224 213 208 206 205 203 203 203 204 202 201 199 193 171 129  65  42  34  30  30  25  25  24  24  22  23  19  19  20  18  18  18  19  17  20  19  19  22  24  22  20  23  23  21  22  19  21  24  26  27  30  33  36  46  80 137 166 176 179 179 179 179 179 178 175 175 175 175 174 172 172 171 172 162 134 128 125 125 124 124 123 122 123 121 121
 207 213 226 240 238 233 226 217 208 207 205 204 204 204 204 202 202 200 193 162 105  59  44  32  30  26  26  23  23  23  22  24  21  19  18  19  22  21  21  20  19  22  19  20  20  22  22  23  24  24  23  23  22  23  23  24  21  23  25  30  33  39  59 114 170 180 182 182 182 181 181 179 178 178 179 177 175 175 175 173 168 140 127 124 126 124 124 125 124 123 122 120
 211 213 225 234 230 224 220 216 210 208 207 207 207 206 206 205 199 186 142  79  52  43  34  28  30  25  22  21  25  23  22  26  23  24  22  20  21  20  23  21  21  20  21  22  22  24  24  23  23  23  25  24  23  22  23  22  23  21  21  24  25  29  36  51 117 170 181 184 184 183 181 182 181 180 180 179 177 176 177 174 171 144 130 127 125 125 124 124 120 121 123 120
 210 215 225 234 232 224 219 212 210 210 209 208 209 208 205 203 186 126  74  57  41  34  30  28  29  26  25  24  25  26  26  25  28  26  26  26  24  25  25  23  22  24  25  26  26  29  27  27  26  26  27  29  28  26  23  26  23  25  23  24  23  23  26  34  46 102 173 183 184 184 183 182 183 183 181 179 179 176 178 177 174 150 131 127 126 125 124 122 122 124 124 122
 211 214 221 236 244 227 221 217 213 211 209 210 210 208 205 189 131  85  62  49  36  33  30  28  28  26  27  27  28  28  28  28  32  30  29  29  27  24  28  26  25  27  26  30  32  31  33  32  31  34  32  35  37  33  29  28  26  28  26  26  24  24  25  27  33  42 125 178 185 186 185 184 187 185 180 180 180 181 180 176 175 158 133 129 125 125 125 123 123 127 126 124
 210 215 217 229 243 230 220 216 217 213 213 212 213 212 195 144  94  70  56  48  38  30  30  26  27  28  31  31  32  34  32  33  37  32  32  33  32  32  31  31  32  35  36  40  43  43  44  38  38  39  37  42  42  39  37  34  33  32  28  25  25  26  24  25  28  33  55 154 184 189 188 187 186 186 183 181 182 182 179 178 176 163 136 130 127 125 125 124 122 124 125 123
 215 216 218 224 240 231 221 219 218 215 214 215 216 212 184 116  85  69  62  50  43  36  31  30  31  33  34  35  34  35  36  42  42  42  36  35  34  39  39  38  42  46  46  53  56  57  56  52  49  51  52  55  50  49  48  40  36  36  32  29  29  24  24  25  26  29  34  61 155 185 190 187 187 185 183 184 182 182 180 180 177 168 141 130 127 127 125 124 123 123 124 123
 214 217 219 225 243 232 223 222 220 220 219 216 218 216 197 117  76  66  68  63  52  42  38  36  36  38  42  49  48  42  41  45  51  50  44  42  43  50  48  51  59  61  66  71  76  79  79  77  70  72  69  71  69  63  57  52  49  45  40  33  31  28  28  26  24  26  30  37  86 178 186 189 189 188 187 185 183 186 182 181 180 172 142 131 126 126 126 125 125 123 123 124
 214 215 218 226 242 232 222 220 221 219 220 219 218 216 198 118  73  60  62  60  56  52  52  53  53  47  45  53  62  54  50  52  59  61  53  53  55  66  69  77  82  87  96 100 107 109  97  97  93  93  96  91  83  81  75  73  68  61  51  43  36  34  31  30  26  26  28  31  38 109 181 186 189 187 189 188 185 183 183 183 180 175 150 131 128 129 127 122 123 124 124 125
 214 217 219 225 241 235 223 221 220 219 220 221 219 211 183 102  71  58  57  57  58  68  69  76  78  67  63  64  67  64  66  67  73  69  71  75  81  96  98 109 109 119 124 133 134 135 131 119 116 112 109 110 105  99  99  95  89  82  67  56  47  42  36  36  30  27  30  31  34  45 143 182 188 189 188 187 186 184 183 182 181 178 156 131 132 130 130 126 125 127 121 124
 217 219 220 224 238 231 223 222 221 218 220 220 219 212 170 106  74  62  60  69  75  82  89  97  89  85  82  87  84  82  86  86  90  90  88  99 106 118 121 130 137 147 149 157 153 151 153 141 129 127 126 122 115 110 113 109 104  95  84  73  61  52  44  42  37  34  34  32  32  37  57 166 187 189 190 186 189 188 186 182 182 179 161 135 131 128 128 128 125 125 124 124
 218 219 218 222 227 232 228 225 224 221 222 221 218 214 164  97  79  73  77  92  97 104 106 104  99  99  98 100  99  99 106 111 111 110 111 122 130 139 144 155 161 168 169 170 166 160 160 157 150 144 142 139 130 124 121 118 116 113 104  85  72  65  56  48  43  41  38  35  32  35  43  89 181 190 191 190 191 187 188 186 184 183 165 138 131 128 128 126 126 125 124 124
 219 221 219 223 226 234 233 226 225 224 224 223 219 208 143 110  94  96 102 112 119 118 119 115 111 111 115 116 113 123 129 131 130 128 130 144 154 159 162 172 175 176 176 176 170 166 164 161 159 158 157 158 151 142 131 123 122 120 116 100  83  72  68  58  51  46  43  44  40  38  38  48 146 188 195 192 191 191 188 188 187 184 172 139 130 125 127 127 125 125 126 126
 220 221 220 222 226 234 234 228 227 226 224 223 222 203 150 119 109 114 121 130 130 132 128 121 119 125 129 134 130 141 146 144 149 147 148 158 164 170 173 178 179 177 173 173 170 168 164 162 164 161 160 160 158 153 146 132 130 125 117 106  90  82  76  72  62  53  48  47  45  48  42  42  67 175 190 191 192 191 189 188 189 184 176 144 130 127 127 127 128 128 127 126
 220 222 221 221 224 231 233 228 224 225 224 224 219 200 157 130 121 130 137 136 136 136 133 128 127 134 143 148 149 154 155 159 159 158 157 160 166 171 179 178 177 174 169 170 166 164 161 162 162 166 163 162 160 159 155 144 131 127 120 107  96  84  80  73  64  55  53  50  47  47  46  44  49 117 186 193 190 190 191 189 189 185 179 148 132 131 128 128 126 128 126 124
 218 219 220 219 223 229 233 226 224 223 222 222 217 199 158 132 130 138 140 140 146 143 139 136 139 150 152 150 156 159 165 165 164 159 160 161 162 169 170 168 169 167 165 162 161 156 157 161 161 160 162 160 161 161 158 153 136 127 118 110  98  84  84  78  69  62  58  52  49  48  50  46  46  65 170 189 192 191 190 188 188 186 181 151 136 130 128 129 128 128 125 124
 217 218 220 220 221 227 229 223 221 221 222 220 216 194 147 137 138 142 141 147 148 148 146 147 150 154 154 157 162 164 164 163 162 159 158 158 156 163 164 161 161 162 160 161 155 151 155 157 158 159 159 160 158 160 160 152 142 130 123 111 100  87  85  82  74  67  60  51  49  48  50  50  50  55 128 182 189 189 190 186 188 186 182 157 136 131 129 128 128 128 129 126
 216 217 219 219 220 224 228 222 220 222 220 220 216 180 140 132 134 142 144 146 148 149 151 151 152 153 154 158 163 168 167 165 160 162 155 154 156 159 161 158 154 158 156 156 156 155 155 154 157 158 155 158 157 157 156 154 147 132 123 114 103  92  86  82  77  70  61  56  52  51  52  50  50  57  85 176 188 189 189 189 188 187 183 164 134 131 129 131 127 130 126 126
 218 217 218 219 220 224 228 225 222 220 219 220 208 164 136 133 137 141 147 145 147 148 151 153 150 152 151 158 162 167 165 164 161 159 155 157 158 156 154 153 154 155 154 151 152 154 155 154 156 155 154 155 158 156 155 157 148 128 122 113 105  97  88  84  82  73  67  64  58  55  60  54  55  54  67 158 186 188 189 189 186 186 184 169 140 134 129 130 126 127 127 124
 218 217 215 218 220 224 227 223 219 220 220 218 194 139 134 134 135 139 143 145 147 147 147 148 149 149 149 154 160 160 163 162 162 161 159 158 156 158 155 155 158 155 153 152 154 154 154 155 154 153 154 153 156 158 155 154 149 133 122 119 108 102  95  88  84  76  72  70  61  58  61  54  51  54  61 139 185 189 189 188 189 186 184 173 142 131 130 131 127 128 127 127
 216 218 216 216 218 220 224 223 219 221 220 212 170 133 131 132 133 135 140 147 148 147 142 147 148 147 147 150 156 156 156 159 163 162 160 159 159 158 156 158 155 155 154 150 152 153 151 154 154 153 153 156 154 156 154 154 148 135 126 118 110 102 100  93  88  80  78  75  66  62  59  55  56  54  55 117 184 190 189 189 186 183 184 176 144 133 131 133 131 126 128 129
 214 216 216 216 218 219 220 224 223 220 219 207 151 130 127 130 131 133 137 144 145 147 147 145 147 145 145 146 153 151 151 159 164 162 163 161 163 162 161 160 159 158 155 153 153 153 152 150 153 154 152 155 153 154 155 152 148 138 130 117 109 103 103  97  88  84  77  73  72  67  56  57  57  51  53  92 180 187 187 189 186 184 181 177 148 134 131 131 131 128 129 128
 215 216 214 216 218 217 221 227 222 217 218 198 135 125 125 129 130 134 140 143 149 147 147 148 148 144 145 149 153 155 159 162 165 163 166 170 172 169 166 163 162 158 154 154 152 152 153 151 154 153 152 155 154 153 154 152 150 137 129 120 107 103  97  94  88  86  75  71  72  65  57  57  51  49  49  69 169 188 188 189 188 184 185 178 151 135 132 130 129 128 128 128
 216 215 214 216 216 218 219 222 222 218 216 184 128 124 126 131 133 133 137 142 144 147 147 148 146 145 146 151 153 157 159 162 163 166 171 171 173 172 169 167 164 159 160 159 155 153 152 153 154 153 151 154 153 149 151 150 147 139 128 123 114 105 101  91  86  81  74  71  70  64  55  55  50  47  46  60 155 184 188 188 188 185 185 180 157 135 130 130 128 129 128 128
 214 215 216 215 216 216 216 218 221 219 213 168 123 121 126 131 134 136 141 144 147 146 147 147 146 145 148 151 154 157 159 165 167 170 170 173 171 173 172 172 167 163 162 159 159 156 153 152 151 151 152 152 153 149 148 146 143 139 128 122 113 106 102  89  84  79  74  70  68  62  57  54  50  46  45  52 138 184 188 188 188 185 185 181 162 137 131 131 128 125 129 126
 213 213 216 215 214 214 215 216 219 218 213 153 120 123 124 128 134 138 144 146 150 150 151 151 151 148 151 152 154 155 156 163 166 167 171 170 171 170 171 170 169 166 165 161 160 160 158 156 151 148 148 148 149 147 144 144 141 140 134 124 115 107  98  93  86  77  74  69  65  64  55  55  52  48  45  51 133 185 188 186 186 186 185 181 164 138 132 131 130 127 128 127
 211 214 214 214 213 214 215 216 218 219 207 140 120 123 127 132 139 140 143 148 152 151 151 150 151 148 152 152 151 156 157 163 164 166 168 168 170 168 165 168 166 166 163 164 166 163 158 154 149 144 139 140 141 140 138 140 139 140 133 130 120 107  97  90  83  79  74  70  65  64  60  54  51  49  46  52 119 181 189 187 186 185 183 181 170 141 132 130 130 126 126 130
 212 213 214 214 215 215 215 218 219 219 206 134 123 126 132 137 138 139 146 148 150 152 153 152 149 150 152 149 152 154 155 157 160 163 164 162 158 157 159 158 160 159 159 163 165 161 159 157 153 145 141 138 135 133 131 134 138 138 132 130 122 112  95  86  84  81  72  68  63  63  61  58  54  47  46  49 106 179 189 187 186 184 182 182 173 146 133 130 130 129 129 129
 216 214 214 215 214 215 217 218 221 221 202 127 123 126 134 136 140 140 144 145 149 151 153 153 151 149 154 153 150 151 151 150 150 150 150 148 145 143 143 143 148 146 147 149 150 150 148 145 140 140 140 140 135 129 129 134 136 134 130 128 122 110  98  85  82  81  75  67  64  63  64  59  53  49  48  48  93 179 189 188 187 185 183 183 175 148 132 130 131 129 126 127
 217 215 215 216 215 218 218 219 221 221 193 122 123 128 132 132 135 133 135 138 144 146 151 151 151 147 147 149 148 148 145 140 135 132 127 130 128 123 124 125 129 126 123 126 127 123 123 119 117 116 124 138 137 130 129 128 129 128 126 129 122 115 102  87  86  82  73  69  66  62  62  59  54  50  49  48  92 177 188 190 189 188 187 185 178 151 137 130 130 129 128 129
 216 217 219 217 217 218 220 219 220 222 184 119 120 121 123 122 126 125 125 129 134 138 145 147 145 143 142 143 144 141 135 130 123 115 109 106 102  97  94  98  96  98  95  91  92  85  87  91  87  89  94 109 117 127 125 125 125 125 126 127 125 117 102  90  87  85  78  71  66  66  63  60  58  52  49  53  96 179 188 188 186 186 187 184 180 156 136 131 130 128 127 129
 216 217 216 216 218 218 219 219 221 218 182 110 107 107 106 108 109 113 115 119 125 129 135 138 137 134 137 135 134 132 126 119 108  94  84  76  70  66  65  61  66  68  66  65  68  69  71  74  74  74  75  75  80  92 111 121 122 124 124 125 123 120 109  94  89  85  81  73  68  64  65  61  61  56  51  53  93 178 188 189 188 188 189 186 180 160 134 131 129 130 128 128
 215 216 215 216 219 217 219 217 221 216 155  94  91  87  87  88  90  93 103 112 118 123 126 128 125 126 128 128 125 125 119 105  90  78  66  56  51  50  47  44  42  43  42  46  51  53  57  64  72  72  70  74  70  78  96 116 120 124 123 123 122 121 112  97  86  86  84  76  70  64  63  63  61  58  53  54  90 181 189 190 190 189 187 185 182 166 140 133 131 129 131 129
 216 218 217 219 219 218 218 219 221 212  96  72  64  57  59  64  64  73  82  97 106 112 116 120 119 120 121 122 121 117 109  98  81  68  64  51  46  43  39  33  32  35  36  40  42  45  48  52  63  77  85  89  95  95 102 117 121 120 124 122 124 122 115 106  92  86  86  81  72  66  61  63  63  58  54  53  88 180 189 189 190 188 187 186 184 171 142 131 131 129 130 128
 218 219 220 220 220 219 218 222 223 178  67  54  47  42  42  43  48  50  64  78  88 100 107 111 112 116 118 115 112 109 101  90  80  66  58  50  46  46  44  39  40  46  50  55  57  61  59  59  64  71  84  90  92  99 112 122 125 123 122 123 124 122 120 110  98  92  88  83  76  70  68  64  66  64  55  52  84 183 190 191 190 189 187 186 183 174 147 132 132 129 129 128
 219 221 221 222 220 220 220 222 223 157  64  49  42  38  36  35  38  42  50  62  77  91  98 101 104 111 115 112 102 103  99  88  80  70  65  59  64  60  59  63  64  66  66  69  69  69  70  74  81  81  83  86  91  99 102 117 125 126 125 125 122 122 119 112 105  93  89  80  78  74  72  69  68  63  58  55  91 182 192 191 189 190 188 186 185 179 148 134 131 129 130 129
 221 222 222 224 222 223 220 222 221 170  72  51  44  41  38  36  37  39  45  52  66  85  91  92  97 103 108 108 100  98  96  91  80  79  79  74  80  76  71  68  57  54  52  55  59  65  72  78  86  83  85  86  84  89  94 106 117 125 126 123 121 120 120 116 107  96  88  79  80  78  73  70  68  61  60  57  97 185 192 195 192 191 190 188 188 182 154 134 131 129 128 127
 220 222 223 226 224 223 222 222 218 191  82  58  52  54  55  54  50  49  50  49  58  76  84  84  91  98 105 109 102  95  94  92  88  86  87  84  82  76  67  56  44  45  46  46  48  51  53  61  75  82  87  93  91  93  98 101 110 124 126 124 125 128 124 117 110  96  89  83  79  78  76  72  68  59  62  59  96 184 193 194 194 193 192 190 188 185 159 137 131 129 128 128
 223 223 224 225 224 223 224 224 222 201  90  68  63  66  63  57  49  46  49  51  55  68  81  88  90 100 106 110 103  99  94  91  90  88  86  80  76  66  58  49  44  43  43  44  48  53  55  57  61  66  80  91  97  99 102 105 112 120 125 126 128 130 124 119 111  98  91  85  81  78  73  73  70  66  63  58  99 186 193 194 194 194 190 191 190 186 167 139 133 129 129 130
 223 223 226 225 224 222 224 225 223 207 101  77  72  67  56  44  43  42  44  44  49  56  70  81  91 106 115 113 106 101  98  95  93  90  82  74  67  59  52  45  45  40  38  35  34  41  49  60  67  70  66  74  89 100 107 111 115 119 124 130 128 127 126 117 107 103  94  85  82  74  72  71  72  68  62  56 102 188 197 196 194 194 193 192 191 188 169 142 132 131 130 127
 225 224 226 226 225 224 225 224 223 222 129  85  74  63  50  46  45  42  43  45  45  47  53  69  92 119 134 134 124 108 101 100  95  88  80  70  65  56  48  46  40  60  48  31  29  30  35  50  54  60  69  72  66  90 104 110 120 123 126 129 127 124 124 124 120 105  95  84  82  77  73  75  80  74  65  59 119 189 196 195 196 196 192 193 192 188 174 144 133 130 128 129
 225 226 226 225 225 224 226 224 223 222 175  96  76  55  46  40  39  34  34  43  48  46  48  57  85 142 156 157 145 118 103  97  96  87  81  75  66  55  48  46  59  77  38  38  29  31  37  64  85  78  57  64  71  75  89 104 115 121 127 128 129 130 128 129 125 107  96  84  80  77  73  81  87  88  76  63 129 179 179 185 191 195 193 193 190 188 181 147 136 130 129 129
 225 224 225 225 226 224 224 225 224 223 213 116  72  51  46  54  37  35  32  40  65  62  52  51  86 158 174 173 158 131 105  95  94  92  84  80  66  57  50  53  76  80  41  33  47  52  42  78 142 132  79  57  61  71  79  98 111 118 127 128 130 132 135 137 128 106  96  84  77  77  81  90 101 109 113 128 151 161 155 157 163 184 191 193 192 192 185 154 137 132 129 127
 225 224 226 227 225 225 225 225 225 225 220 160  78  49  58  60  38  34  36  41  73  89  74  58 125 172 187 183 168 142 107  92  91  86  86  85  67  63  55  56  77  93  45  39  36  40  43  93 118  98  75  69  66  70  76  91 107 115 121 128 133 137 138 136 130 108  92  77  76  79  92 104 115 126 134 138 135 134 129 130 132 160 188 193 192 191 186 159 138 133 134 132
 226 228 227 229 227 228 227 225 227 226 224 194  85  61  72  72  39  32  50  55  73  97  82  78 161 178 189 177 168 152 126  95  85  83  83  81  71  59  49  47  56  80  82  52  40  45  70  97  82  75  79  83  86  84  85  92 106 118 125 132 139 142 143 138 133 110  90  79  75  83 105 115 120 124 121 115 113 111 102  92  93 126 182 192 195 191 187 160 136 132 132 132
 227 228 228 228 229 227 226 227 226 227 226 222 120  76  70  82  42  39  38  47  88  90  77 120 166 182 190 177 167 156 138 111  90  83  82  77  69  64  55  51  51  54  59  58  58  64  70  76  79  85  90  99 103  99 100 106 116 125 131 137 144 147 148 139 136 118  94  83  74  93 110 119 122 120 109 106 117 117 106  94  85 110 182 193 193 193 189 168 141 131 129 129
 228 229 231 230 230 227 228 228 228 226 226 223 165  87  71  75  71  53  53  68  74  68  72 148 169 179 187 174 166 158 148 131 104  88  80  78  70  65  60  56  55  59  62  66  73  78  83  88  90  97 101 108 111 109 109 117 131 136 141 147 151 149 148 141 136 124 101  85  76  97 111 116 118 113  93 102 120 120 109  98  86 112 183 193 194 195 192 172 141 132 131 130
 228 227 229 230 228 228 228 228 228 228 227 226 190 105  82  66  67  63  60  67  62  61  98 157 174 176 177 168 161 156 150 143 128 104  88  81  75  69  64  63  61  64  72  78  86  86  89  94  98 105 107 110 114 119 123 128 140 142 150 152 151 154 149 142 138 129 107  90  81  98 111 112 111 108  95 102 119 120 107  96  85 116 186 194 193 193 191 178 143 134 134 129
 227 227 227 227 227 227 228 228 227 226 226 226 200 113  98  82  73  72  67  67  62  61 120 164 176 178 173 166 160 154 152 151 144 128 108  94  84  76  71  71  71  66  70  75  84  86  89  92  96  98  96 106 119 130 136 142 149 149 152 154 152 151 149 141 141 138 114  97  89 101 111 108 104 111 105 111 124 124 106  88  80 120 187 192 193 193 192 182 146 132 131 131
 227 225 226 225 226 226 226 226 226 225 226 224 205 117 103  91  83  75  72  68  66  71 139 163 180 180 173 163 159 150 148 149 149 142 127 113 102  89  79  79  80  78  80  82  84  84  88  91  96 102 110 124 134 142 143 151 154 157 155 154 152 149 146 138 136 135 117  96  89 101 116 106  76  92 113 119 124 123 102  81  84 134 186 193 193 192 191 184 150 136 132 131
 226 225 225 225 225 225 226 225 225 225 225 226 208 119 107  97  86  79  75  76  78  98 150 169 181 180 170 163 156 147 147 152 149 143 138 129 123 113 106  94  92  91  91  94  97  97 101 108 114 122 131 141 149 154 156 155 159 157 158 156 148 146 141 135 131 130 108  90  85 104 125 113  71  67  88 104 117 123  99  72  95 151 188 192 191 190 188 183 155 135 132 130
 224 224 224 226 225 225 226 224 225 226 226 224 197 122 111 104 104  96  90  91  90 113 156 173 185 179 171 162 154 152 148 151 147 143 140 138 130 126 128 122 117 112 112 113 118 117 117 124 131 137 145 150 156 158 160 159 158 159 158 156 148 144 139 130 126 122 103  86  82 104 132 142 102  64  72  82 106 124  94  74 110 167 189 192 191 190 188 183 162 137 132 128
 224 225 225 224 225 225 224 223 225 225 224 223 189 121 113 108 105 101  97  96  99 136 167 182 188 183 173 163 157 153 149 148 144 140 140 141 137 132 134 136 138 136 138 137 137 136 134 139 142 148 152 154 157 157 161 162 159 158 157 156 150 143 135 126 124 119 103  86  85 107 140 152 142  72  66  79 107 125 100  88 125 182 191 192 189 190 189 184 164 137 127 128
 222 222 222 222 222 223 224 223 223 224 224 221 171 119 114 109 104 102  99  98 108 157 176 187 193 188 176 168 161 155 148 146 143 142 143 143 140 138 136 140 145 153 156 156 156 152 150 151 153 156 156 158 157 158 161 160 161 159 156 154 148 140 133 122 121 115 100  86  84 107 139 151 149  81  68  81 116 128  97 105 147 188 192 190 186 189 188 184 168 138 132 129
 220 219 222 222 221 220 222 221 221 222 222 219 160 119 111 107 103 104 103 106 138 168 182 191 197 194 182 173 162 154 149 144 145 142 142 144 144 144 142 142 151 160 165 167 167 167 168 164 162 158 159 159 161 160 161 158 159 159 157 151 146 137 127 118 118 112  95  88  83 113 133 143 138  83  71  90 120 121 107 122 173 190 190 189 187 187 185 183 173 144 134 129
 220 222 220 218 220 219 219 222 222 220 222 217 146 119 112 109 106 107 112 126 161 172 181 186 199 198 185 174 164 155 145 138 141 138 136 140 140 142 142 145 149 156 162 170 176 178 175 174 171 165 163 161 162 161 162 159 158 158 153 148 140 130 121 117 118 112  94  86  90 117 130 141 123  84  74  92 127 126 120 140 183 188 189 189 188 187 186 185 177 144 133 128
 219 221 220 218 219 219 220 220 220 220 219 209 139 121 118 114 115 120 126 146 165 173 176 180 194 197 186 181 165 154 146 138 138 135 130 128 132 137 143 144 150 155 159 162 170 173 176 175 172 164 161 159 158 161 160 158 158 159 150 144 134 123 116 114 114 103  90  82  91 118 136 129  93  78  80 107 137 127 131 161 185 189 188 188 186 184 186 184 177 147 130 129
 218 218 219 218 218 218 220 218 217 219 219 210 138 126 120 122 126 128 133 151 165 166 167 171 180 182 178 183 164 154 147 148 151 145 133 126 124 126 131 136 140 149 152 152 156 163 168 170 171 166 161 159 158 162 160 157 153 152 146 140 126 118 110 110 109 100  90  78  93 120 134 103  85  75 104 144 140 133 139 176 185 187 186 186 184 185 185 183 177 152 131 130
 217 217 216 216 216 218 216 217 219 218 217 208 138 129 127 126 132 132 138 146 157 158 161 166 170 169 168 169 162 154 149 150 157 153 142 126 117 119 122 126 130 138 146 148 152 156 158 160 164 162 162 158 159 157 158 157 147 143 141 132 121 115 106 108 109  99  85  79 101 116 119  99 113 132 144 144 132 133 155 183 189 188 188 188 183 182 182 182 178 154 135 129
 215 216 215 215 215 217 214 215 218 217 216 206 139 131 129 129 133 133 134 136 148 149 151 156 157 158 160 162 155 143 136 143 151 150 141 122 112 116 115 117 120 127 136 141 148 152 154 157 157 158 158 155 154 156 156 152 146 140 133 126 117 108 106 107 108  98  85  80 102 112 119 122 128 138 141 130 132 140 177 186 187 185 184 185 183 182 180 178 178 160 135 129
 214 216 214 214 215 215 217 215 216 217 215 206 142 132 130 132 132 129 129 128 137 139 142 147 153 151 150 149 133 122 122 136 142 136 131 117 112 115 114 110 112 121 127 133 140 145 149 148 150 149 151 154 153 153 152 146 141 135 127 122 112 108 106 108 104  95  83  79 101 112 120 127 134 144 146 140 137 164 182 186 188 184 183 184 183 184 182 178 178 164 135 126
 215 214 216 214 215 215 216 215 216 216 215 208 146 131 129 129 129 126 120 117 121 126 128 136 144 136 124 115 110 108 115 118 114 118 119 106 108 115 116 111 106 111 117 124 131 137 139 140 142 142 146 144 143 144 147 141 136 131 124 118 113 107 107 107 101  89  76  76  94 115 120 135 139 143 145 136 152 180 187 187 187 185 186 185 185 184 182 180 178 169 139 130
 214 215 214 216 215 217 216 216 215 216 218 208 154 127 124 124 122 120 110 107 105 108 110 118 119 110 101  94  97  94  83  88  96 101 105  99 111 119 120 117 108 103 106 114 122 126 130 132 133 135 138 140 138 139 137 133 127 124 119 115 112 108 106 105  98  89  77  70  88 117 130 138 140 144 137 147 177 187 189 189 188 190 188 184 185 181 182 180 179 172 140 129
 215 217 216 215 216 216 215 216 216 216 216 211 165 123 118 116 116 111 106 103 102  99 101 101 102  98  92  85  85  81  75  75  80  89  90  97 118 125 127 123 114 106 100 110 114 119 122 127 129 131 130 129 132 132 130 130 123 121 116 114 111 108 107 103  97  88  75  70  86 109 125 133 133 137 155 180 188 189 188 189 189 188 188 185 183 182 181 179 180 174 146 128
 212 214 216 216 215 215 217 216 216 216 215 214 182 125 112 109 111 107 103 105 112 101  90  90  96  94  84  85  85  89  86  80  77  82  89 103 122 129 133 131 126 115 105 106 108 115 120 121 121 122 125 125 127 126 124 123 120 121 117 112 111 108 106 104  97  86  69  79 123 121 109 120 141 167 184 190 190 188 189 188 187 185 186 185 183 183 182 179 178 175 149 130
 212 211 215 216 215 216 215 215 214 215 215 214 201 127 111 108 105 104 106 114 122 119  94  76  78  80  77  77  77  72  70  68  75  81  88 107 128 134 136 136 134 126 116 107 108 109 116 116 119 118 122 121 121 122 120 118 118 119 115 114 108 110 109 105  96  86  68  89 162 181 178 180 182 185 186 190 188 187 188 188 187 185 186 183 183 182 180 179 177 176 152 130
 212 212 213 215 211 215 214 214 213 213 212 213 207 157 111 105 103 104 107 115 121 115  78  53  47  54  67  72  62  56  58  57  60  69  76 103 126 130 137 133 130 132 126 116 110 108 110 113 114 120 117 118 116 116 116 117 117 116 113 114 110 111 110 103  93  83  71  88  80 148 180 183 184 188 188 188 185 186 184 184 183 183 184 183 180 179 180 179 177 177 156 130
 211 212 212 215 214 216 215 213 215 216 213 213 209 187 118 104 103 100 102 100  96  86  64  46  39  42  53  58  48  46  46  41  49  53  67 104 118 118 123 125 125 122 121 119 116 114 113 115 117 119 117 116 113 114 117 116 115 117 113 110 112 109 109 103  92  81  72  79  34  32  55  97 141 178 184 185 186 187 187 185 183 183 183 184 181 179 181 180 178 177 163 133
 213 212 213 214 214 217 216 215 215 216 213 215 211 206 146 108 104  99  89  78  79  68  52  44  40  36  41  50  40  38  36  34  43  49  63  90 104 109 102  99 105  99 105 115 117 119 116 116 114 117 117 117 116 117 117 114 117 116 115 112 114 115 109 101  92  77  73  79  25  22  25  34  38  48  95 154 181 186 187 185 184 184 183 183 183 181 184 178 178 177 166 135
 217 213 212 214 214 216 214 214 213 215 215 214 212 211 181 115 104  96  70  64  68  59  51  45  43  36  38  43  37  34  34  34  43  54  66  83  89  96  96  85  86  79  82  95 112 118 119 118 117 119 119 118 113 116 117 117 118 115 115 112 114 114 108 102  91  71  79  79  25  18  17  19  26  30  33  41  79 157 181 186 185 186 185 183 182 181 184 181 178 177 169 139
 217 214 213 211 214 213 213 213 217 214 215 215 214 213 208 133 108  88  67  55  58  59  54  50  45  39  36  39  37  39  43  41  48  61  69  82  88  98  87  76  72  71  71  76  93 108 118 121 121 120 117 116 114 115 116 118 115 114 112 111 114 106 105  99  87  68  84  86  25  17  15  16  19  23  22  23  32  42 113 176 183 184 185 182 182 182 183 181 180 178 170 141
 213 213 214 215 215 214 215 215 215 215 215 216 213 214 211 168 110  88  64  59  64  61  60  49  50  43  44  42  46  46  51  47  57  69  72  88  85  97  87  74  74  75  68  65  79 100 114 122 122 120 117 118 117 119 119 116 113 113 113 114 113 103  99  91  83  67  93  87  23  16  14  15  16  16  21  22  20  25  36  73 166 181 183 184 183 182 181 182 180 180 174 146
 214 212 214 213 213 213 216 216 214 214 215 216 213 213 212 192 117  85  71  68  64  73  72  69  74  72  76  73  71  74  71  73  85  84  88 100 100 101  99  87  81  80  75  69  68  91 112 119 120 120 118 117 116 116 114 117 118 117 117 114 112 104  96  86  78  75  97  86  22  14  14  14  14  14  18  22  21  15  20  31  60 161 182 185 184 183 182 182 180 177 173 151
 212 212 214 214 214 212 215 214 213 215 215 215 215 215 213 209 138  92  77  71  63  68  72  70  74  72  77  84  81  76  76  78  83  84  95 102 101 106  98  93  85  71  60  66  76  89 103 116 121 119 116 114 114 114 114 116 118 117 115 111 108 100  90  84  67  85  98  87  26  17  14  13  14  14  14  16  23  18  15  18  27  59 162 184 184 185 182 180 180 179 175 154
 213 213 213 213 212 212 213 214 214 215 214 213 213 214 214 211 169 100  81  73  67  68  68  60  63  64  65  68  69  65  68  69  70  68  70  72  73  70  70  64  57  56  57  59  73  87  99 114 118 118 115 113 112 113 115 115 114 116 111 106 101  91  83  78  65  96 100  89  27  16  13  12  13  13  14  15  20  24  18  15  21  32  59 163 181 184 182 181 180 180 176 160
 211 212 212 212 214 213 212 214 214 215 214 213 215 212 214 211 191 111  87  77  82  83  78  66  57  54  53  55  54  54  54  53  53  54  52  59  67  70  68  68  70  80  76  70  77  86  98 110 114 116 114 112 113 114 118 114 111 112 110 100  95  86  78  64  66 106 103  87  29  16  13  12  12  12  13  15  20  24  22  15  16  20  33  70 170 181 183 180 180 178 174 165
 212 212 213 214 211 213 213 213 213 214 214 213 214 214 212 211 203 130  97  84  88  88  82  71  68  73  68  61  52  54  57  61  62  64  69  75  78  81  84  88  92  93  88  85  87  92 101 107 109 109 110 113 112 114 114 112 105 106 101  93  89  85  69  59  86 105 101  88  30  15  13  12  11  12  12  13  16  21  25  23  15  16  22  31  91 173 179 181 180 177 175 168
 212 211 214 213 212 212 213 214 213 215 212 212 213 212 211 211 208 163 104  92  90  89  86  74  69  70  73  74  73  69  70  76  79  76  80  84  88  95  99 102 103  98  97  97  97  97 104 108 110 111 111 112 113 113 110 110 106  99  92  89  82  74  56  70  98 106  99  87  28  14  12  12  12  11  10  12  15  18  22  25  20  16  18  23  39 101 173 180 181 176 177 171
 210 209 211 212 213 212 212 211 214 214 211 212 213 212 211 209 207 175 103  88  88  89  84  78  69  67  71  73  75  76  74  74  76  79  89  96 101 103 108 103 103 103 106 104 103 102 104 110 111 111 110 111 110 112 110 109 101  91  87  88  79  64  54  89 103 105 102  89  26  14  11  11  11  11  10  13  13  18  20  22  21  15  17  20  26  38  88 169 178 177 178 173
 212 211 211 211 212 212 212 211 214 212 213 212 213 213 212 209 207 118  87  81  88  93  84  76  76  72  71  73  76  78  78  78  83  87  94  97 100  97 100 102 103 108 110 111 104 104 106 110 111 109 109 110 111 112 107  99  88  87  83  82  73  52  70  99 103 107 103  90  28  15  12  10   8  10  11  11  13  18  20  20  21  15  14  17  20  28  34  72 165 177 178 175
 210 209 210 210 210 210 210 211 211 211 212 212 211 211 211 205 160  62  68  76  87  91  88  80  71  67  71  69  71  75  79  78  81  83  87  90  90  91  98 103 106 111 112 112 103 100 101 108 109 107 109 108 109 109 101  94  86  85  83  77  57  58  88 102 103 106 101  90  37  15  12  10   9  10   9   9  13  16  17  20  20  18  15  14  17  23  29  38  91 166 171 170
 210 208 209 209 207 207 209 209 210 210 210 210 210 209 206 195  85  44  52  71  80  87  89  85  77  66  63  52  54  54  61  65  69  71  76  79  89  93 100 105 106 110 110 106 103  98 101 104 108 108 110 107 107 106 100  94  84  79  78  65  48  72  96 102 103 107 104  90  53  19  12  11  10   9   9  10  14  15  17  17  19  17  15  13  17  22  26  33  42 125 155 161
 205 205 203 206 204 204 208 206 206 207 207 204 205 206 196  99  49  36  41  58  75  83  89  86  83  77  68  54  44  38  38  42  53  58  69  76  87  93 100 104 107 107 102  99 100  98  96 101 108 110 109 106 102  98  95  87  83  78  68  55  58  87  96 103 104 106 103  92  56  28  13  11   9   9   9   9  13  14  15  17  20  19  16  12  14  20  24  28  34  63 154 160
 202 202 202 203 203 204 203 202 203 204 203 202 203 200 141  53  37  28  34  46  68  83  85  90  89  85  80  68  52  41  40  38  53  58  69  75  84  92 103 108 110 106 101  99  97  94  94 103 106 108 109 102  99  92  91  85  80  71  59  58  81  91  97 102 106 103 102  92  60  33  16  12  11   9   8   9  10  13  16  17  21  20  15  13  12  15  22  27  33  32  99 125
 201 198 200 196 198 197 198 197 199 201 198 197 195 194  72  41  30  27  26  33  57  75  84  88  86  85  79  76  70  64  64  61  68  77  87  93 102 107 112 118 117 113 109 103  96  89  92 104 107 104 104 101  93  90  87  79  71  64  63  75  89  94  98 101 106 105 101  91  64  38  24  13  12   8   9   9  12  14  17  18  18  19  19  14  13  18  20  25  29  28  61 111
 155 158 155 155 153 150 153 151 149 151 148 143 141 118  40  36  28  24  23  26  44  69  81  82  84  81  77  76  76  67  70  72  73  88 102 110 117 123 126 128 125 122 112  98  98  87  87 100 104 102  98  92  86  83  78  69  68  71  77  81  91  96  97  98 104 105 102  92  67  38  30  16  11  10   8   9  12  14  17  18  18  19  16  14  12  14  17  24  27  24  35  98
 128 128 128 129 128 128 129 128 130 129 125 126 122  67  36  32  26  23  20  22  33  58  69  72  82  72  76  75  68  62  69  75  83  97 108 125 130 123 120 126 119 115 109  93  91  84  74  90  96  96  92  86  82  75  66  67  71  79  83  89  94  97 100 102 102 107 100  93  72  40  32  20  11  10   8   8  10  14  16  16  20  19  18  16  11  12  16  21  26  22  28  35
 123 121 123 120 120 123 124 123 123 125 123 122 116  54  32  30  23  19  16  17  30  46  55  62  69  67  76  74  67  67  71  80  83  95 108 121 122 104 105 114  99  91  96  82  81  83  75  81  82  82  80  74  70  66  68  73  78  83  85  89  95  99  98 105 102 102 100  92  73  42  34  26  12  10   8   8  11  16  17  16  20  18  16  13  11  11  17  18  22  21  24  23
 120 119 119 121 119 119 122 121 120 119 120 112  71  35  31  27  22  20  16  17  22  35  45  49  60  65  72  66  64  69  71  75  78  86  94 102 101  79  82  88  77  72  79  70  72  70  67  73  71  68  68  60  57  65  76  80  82  85  89  93  99  96  98 100 102 100  98  92  75  47  38  33  13  10   7   8  11  17  17  17  18  18  17  13  11  10  14  17  23  20  20  20
 117 118 116 119 116 118 120 119 121 118  94  49  37  30  28  26  23  19  15  14  15  29  34  43  53  59  68  61  60  62  62  68  76  76  76  78  79  71  59  68  61  56  68  59  58  58  56  53  53  62  57  55  61  74  81  81  85  87  90  95 100  99 100 101 102  97  97  91  79  50  36  35  16  10   7   9  13  17  17  18  18  17  18  15  12  10  16  18  23  21  18  16
 116 118 120 119 115 116 117 120 110  70  44  34  25  25  27  23  22  18  17  15  14  24  32  39  47  52  60  56  54  55  56  66  65  58  64  70  68  59  53  52  46  49  56  50  43  51  45  41  46  50  53  58  73  79  85  86  89  92  96  98 102  99 102 102 102  98  93  90  77  52  39  40  15  10   8  10  13  19  18  18  19  18  17  14  12  10  15  16  22  22  18  15
 115 115 115 115 115 114 113  92  50  41  31  24  21  22  24  22  21  17  15  14  11  15  22  31  38  48  50  47  46  47  46  49  53  50  56  57  54  43  44  40  40  50  47  43  37  41  37  38  43  44  61  72  81  84  87  89  94  95  93  95  97  97 102 102 100  97  93  89  78  51  39  41  15  10   8   9  14  17  20  19  19  19  17  14  12  11  13  16  18  19  18  15
 113 115 113 113 113 104  63  37  32  28  24  21  18  19  22  22  20  18  16  13  11  12  19  23  29  34  40  38  35  38  39  37  39  42  44  47  48  37  38  36  39  40  35  35  30  29  31  35  43  59  74  78  86  90  90  92  96  98  97  97  96  97  99 102  98  98  93  86  75  50  37  42  15  10   7  10  16  18  20  18  18  17  16  13   9  10  12  19  18  15  14  14
 113 112 114 109  77  47  38  28  25  23  21  19  19  20  24  21  20  19  14  10  11  14  14  18  19  24  28  27  25  26  27  27  27  31  30  33  37  32  34  31  30  30  28  30  29  27  30  42  62  78  84  85  88  94  93  96  97  97  94  94  92  95  96 100  98  99  93  85  74  50  37  43  14  11   7  11  18  19  20  17  17  13  16  12  10   9  13  16  16  16  14  12
 112 110  88  53  34  31  28  25  22  22  21  18  18  20  25  18  16  18  13  10  10  10  11  13  16  17  19  22  23  21  21  20  20  20  19  23  23  23  22  24  24  23  25  27  29  32  49  61  75  82  88  90  91  95  97  99  97  96  92  93  94  92  96 101  98 100  91  89  72  43  33  42  15  10   7  10  17  18  19  18  17  14  14  11  10  11  14  16  16  15  11  12
 100  60  37  32  27  24  24  23  22  19  18  19  17  18  22  17  17  16  11  10   9  10  11  10  12  12  15  30  40  40  36  36  38  31  26  32  25  26  26  27  27  30  32  35  43  57  68  80  82  85  92  91  91  93  95  96  96  94  93  89  93  94  97  98  98  94  90  84  66  40  32  36  13   9   7  10  17  19  19  19  17  18  18  12  10  12  14  15  13  13  10  11
  38  35  28  24  20  20  20  19  20  18  18  16  15  16  20  18  18  15  10   9   9   9   9  10  11  11  14  34  51  64  68  66  66  55  48  51  49  47  40  41  46  50  54  62  68  75  80  85  84  88  91  93  91  95  95  91  92  88  86  86  91  93  93  95  97  94  89  80  61  42  42  33  10   9   8  11  16  19  20  20  19  18  17  16  16  14  14  17  15   9  11  13
  28  26  25  25  23  20  20  18  18  18  16  15  17  19  18  18  17  16  13  10   9  10  10   8  11  11  12  28  50  67  71  73  73  69  60  56  59  59  62  61  65  64  68  71  76  79  82  86  88  88  91  96  93  93  93  91  91  88  86  86  88  91  91  94  96  91  88  72  59  43  47  26  11   8   8  13  18  17  17  18  18  15  15  14  13  12  12  16  14   8  10  11
  21  21  22  22  22  19  18  20  18  17  17  19  18  20  18  18  20  16  11  11   9  11  11   8  11  12  13  22  51  62  68  73  70  72  66  58  60  64  64  65  65  68  73  75  77  83  84  90  90  90  95  96  95  95  95  92  91  89  88  86  90  88  88  91  92  90  84  72  55  45  54  21   9   9   8  15  19  19  18  16  17  17  17  14  12  14  14  17  11   9  11  12
  20  25  21  18  18  19  16  16  16  19  19  16  13  15  16  17  15  15  10   9   9   9   9   8  10  11  11  13  50  56  68  72  71  72  69  59  56  62  66  67  67  70  75  78  78  84  87  90  92  92  98  96  93  90  91  89  85  85  85  84  86  88  89  91  90  87  76  70  56  44  48  14   9   8   6  13  21  24  20  18  19  19  18  14  11  12  11  13   9   8  12  13
  19  19  19  18  16  16  14  14  14  16  17  12  12  12  18  17  15  15  11   8   8   8   9   7   8  11  11  15  37  54  63  68  71  72  70  68  58  57  62  64  69  72  78  80  84  86  86  91  98  98  96  94  94  93  90  85  84  83  82  84  85  88  88  89  85  82  73  62  52  52  48  14  10   9   5  12  19  20  19  17  18  18  18  15  10  12  12  13   7   9  10  10
  19  18  18  16  14  16  15  16  16  17  16  14  12  13  17  18  18  15  11   9  10  10   8   8   9   9  11  13  23  66  58  68  72  70  72  72  62  57  59  60  67  70  76  84  87  87  87  91  94  96  96  94  92  92  87  82  83  82  79  79  85  89  88  85  82  78  70  60  57  71  31  13  10   7   6  14  19  20  20  19  19  17  17  14  12  12  14  12   9   9  10   9
  17  18  16  15  15  18  17  18  18  19  16  12  11  12  16  17  16  13  12   9   8  10   9   8   9   9  11  10  15  47  58  62  71  69  70  72  69  59  55  55  58  63  69  77  84  84  90  90  94  96  93  90  84  84  83  79  79  78  76  80  85  89  85  80  78  70  69  59  71  67  20  12   9   7   7  15  20  21  18  19  18  17  18  14  12  10  12  11   8   9  10  11
  16  17  18  17  16  14  15  17  17  16  13  10  11  11  15  17  17  15  12  10   8   8   8   8   9  10  12  10  14  27  70  55  70  70  70  72  72  66  57  54  55  55  64  72  78  80  84  90  92  92  90  86  80  81  80  77  78  81  79  81  85  83  82  78  74  69  68  66  82  43  14  12   9   5   6  16  20  22  19  19  18  18  18  15  11  12  13  12  10  10   8   9
  16  17  16  18  15  16  15  17  16  16  13  10  11  10  14  19  18  15  13  11   6   8  10   7   8   8  10  10  11  17  40  77  50  66  70  71  72  72  64  57  57  56  53  63  70  78  82  89  88  85  83  76  74  77  79  77  76  78  80  84  86  85  77  76  72  69  61  78  73  30  12   9   6   4   6  15  21  21  19  21  19  20  18  13  11  11  14  11  11   9   9  10
