P2
# Generated by OpenCV 3.4.0
92 112
255
 200 206 214 219 215 207 201 199 197 196 196 194 194 195 194 194 193 194 196 195 194 193 194 192 192 191 194 194 194 193 194 194 191 191 191 190 190 190 190 190 190 186 179 166 130 133 112 135 136 125 121 127 132 142 166 169 177 178 180 179 178 178 177 176 176 176 176 174 173 175 172 170 170 171 169 167 167 166 161 152 130 123 122 122 119 118 119 120 119 118 118 118
 203 217 239 246 242 231 210 203 199 199 198 195 196 196 195 194 195 195 197 196 197 195 194 196 196 194 195 193 194 194 196 195 195 195 193 194 192 191 185 180 172 134  92  68  49  42  45  53  50  48  43  50  46  57  83 115 130 169 178 180 180 179 180 178 179 179 178 177 176 175 174 173 171 172 169 170 170 168 166 159 136 124 123 122 120 122 120 121 118 118 118 116
 207 231 251 253 253 246 231 216 207 201 200 199 198 198 198 197 198 199 198 199 200 197 197 197 198 198 196 196 195 198 196 196 197 196 197 196 189 183 122  74  68  43  39  36  31  30  29  30  31  31  30  29  32  33  35  39  47  90 139 171 177 178 181 180 182 182 179 177 176 177 177 176 175 174 174 172 171 170 167 163 140 124 122 122 122 122 120 122 119 119 117 118
 211 239 253 253 253 252 245 231 215 206 203 203 202 202 200 199 200 201 199 199 202 200 199 199 199 198 198 198 198 197 198 197 197 197 194 180 139  78  48  38  36  32  28  29  25  26  26  28  26  25  26  28  28  26  27  28  31  34  44  68 104 160 178 180 181 181 178 178 177 177 179 175 177 176 174 172 172 170 168 165 144 127 125 124 122 122 121 120 121 120 118 119
 213 240 252 253 253 253 247 238 220 208 206 207 204 204 202 202 201 201 201 200 201 204 200 201 199 200 200 200 200 200 199 199 197 188 149  82  46  38  36  29  27  27  24  24  22  23  22  24  24  24  25  25  23  23  24  21  27  28  29  34  41  69 133 174 179 180 178 181 179 178 177 177 176 177 174 174 173 171 170 166 149 126 124 122 120 121 122 120 119 120 120 120
 213 233 251 253 253 253 245 237 222 212 208 208 207 205 204 202 204 202 202 205 204 204 206 205 203 203 203 201 200 198 199 196 182 104  51  43  37  30  29  27  27  24  22  24  21  23  24  23  24  22  21  23  21  23  23  22  20  23  23  28  31  37  44  88 149 174 182 183 181 179 180 178 179 178 177 177 174 173 173 170 156 128 124 121 122 124 125 120 121 123 120 121
 214 227 244 252 253 249 244 232 222 216 210 208 207 208 206 205 205 207 205 208 207 206 205 206 205 204 204 205 203 202 194 150  79  49  41  37  33  31  30  28  28  25  22  24  23  22  24  26  25  23  22  21  18  21  20  20  17  18  22  23  25  28  33  38  64 111 170 181 182 179 180 178 179 179 179 178 178 177 173 172 162 132 128 125 125 123 123 120 122 120 122 120
 215 224 238 246 246 245 239 228 220 214 213 212 212 211 209 209 210 208 208 208 208 209 207 207 208 207 205 206 205 193 139  66  53  45  46  49  45  42  34  29  25  24  23  23  23  25  25  24  26  24  24  24  19  21  21  18  20  20  21  21  23  24  25  31  34  47 116 173 181 182 180 179 181 180 181 178 178 178 176 175 165 134 128 124 123 123 121 120 123 120 119 119
 213 219 231 244 242 235 229 222 217 213 213 213 211 210 211 210 210 210 211 209 209 209 209 208 209 209 208 205 198 130  70  56  49  49  49  49  54  56  45  36  27  25  24  26  26  25  26  29  30  28  26  28  25  24  23  21  20  22  22  20  22  24  26  29  29  35  49 122 178 185 186 183 182 182 181 182 181 179 178 176 168 140 127 126 124 125 122 122 123 121 120 119
 215 222 231 240 234 228 226 221 218 216 217 215 215 214 215 214 214 214 215 212 209 209 211 210 210 208 210 193 112  70  59  54  54  56  54  53  53  50  47  46  38  32  28  28  31  30  35  38  32  32  33  31  28  26  26  25  26  24  24  21  22  23  25  23  26  29  34  54 142 179 186 184 184 183 182 182 182 179 179 177 171 145 128 127 125 124 123 122 122 123 121 119
 216 222 231 240 237 229 225 219 217 219 217 216 215 214 216 216 217 216 216 215 214 213 214 214 212 209 207 130  66  57  52  56  62  62  56  48  45  46  43  40  40  42  35  33  37  36  40  46  40  40  38  36  31  28  30  31  28  26  24  26  23  23  24  24  26  28  30  39  64 131 180 187 185 185 183 184 183 181 180 180 176 151 129 125 125 124 121 124 122 121 123 121
 217 223 227 240 244 233 224 220 219 217 218 217 216 215 216 217 215 215 216 216 215 215 214 214 212 209 164  78  61  52  53  55  55  57  56  53  47  45  44  42  42  42  42  40  49  51  51  50  49  43  43  44  39  36  35  32  32  28  26  25  26  26  27  27  27  29  28  32  42  71 156 181 186 188 189 186 184 183 183 180 176 159 133 129 125 125 122 124 124 121 121 121
 217 221 226 234 244 235 225 222 222 221 221 221 221 219 218 219 219 217 218 217 217 214 217 216 213 188  88  70  60  55  56  56  56  56  61  60  53  49  53  52  51  51  54  53  59  66  74  69  58  51  50  51  50  46  39  39  38  33  30  28  30  27  27  30  28  29  29  32  38  49  84 146 179 188 189 187 187 184 183 182 179 164 136 128 124 124 124 124 124 123 120 122
 218 220 224 230 244 235 227 223 223 221 220 221 224 223 223 223 224 223 222 219 218 217 218 216 206 115  68  63  62  65  62  64  59  59  63  61  56  58  63  65  69  77  78  79  84  85  95  89  77  66  59  59  64  59  49  47  45  43  38  36  34  34  33  36  34  33  32  34  37  44  60  88 167 186 188 186 185 183 182 180 179 170 140 128 126 126 126 123 122 122 122 123
 217 216 222 230 244 236 225 222 222 219 221 221 222 222 223 221 224 223 221 217 218 218 217 211 166  70  62  70  72  71  69  64  72  73  75  75  73  75  82  89  95 103  96 103 112 113 120 113  99  86  78  77  81  77  65  60  62  63  54  52  52  53  49  50  51  53  49  48  51  52  59  65 122 178 187 187 184 183 182 180 180 172 143 130 128 125 126 123 122 122 122 123
 215 216 218 228 244 235 225 222 220 219 220 218 219 220 220 218 219 218 218 215 217 215 213 205  98  65  66  73  78  78  75  78  82  82  87  93 100 106 113 116 122 125 129 140 144 137 141 132 117 104  99  98 102 100  88  85  81  82  77  74  74  83  87  88  88  85  84  74  66  61  64  69  91 160 184 186 183 184 182 181 179 174 145 131 127 125 124 124 125 124 125 123
 214 216 218 226 244 234 223 219 219 220 220 219 217 218 218 216 217 215 217 216 217 215 212 174  66  68  72  78  86  90  92  92  94 109 121 125 130 128 127 133 141 154 159 166 159 157 158 156 136 124 116 117 123 121 111 106 102 101 106 100  99 102 110 111 110 112 109 100  90  74  66  68  75 115 177 187 186 184 183 181 179 176 154 132 126 126 127 124 123 125 123 123
 214 216 218 224 238 233 223 222 219 220 217 219 218 219 219 217 219 217 219 217 217 216 210 106  66  68  76  87  96 101  99 109 121 133 140 139 141 142 146 149 158 168 172 172 171 170 173 167 151 139 135 133 139 140 130 123 124 120 125 123 121 125 128 127 126 129 127 125 113  97  81  73  74  95 166 187 184 186 186 183 181 177 156 133 127 128 127 126 125 123 124 124
 215 217 216 218 226 232 227 222 220 220 219 218 218 218 218 218 218 215 216 217 216 214 160  79  71  77  86  97 109 108 120 132 131 138 143 145 147 150 154 157 163 173 177 181 188 186 183 179 166 155 148 150 155 156 151 144 149 144 143 145 139 144 148 146 140 139 144 141 133 124 101  82  76  84 149 182 184 183 184 182 181 179 161 134 128 128 126 127 125 126 124 123
 210 215 215 218 220 232 229 224 219 218 218 219 217 218 216 214 217 215 215 216 215 200 106  78  75  82  93 105 118 127 133 135 139 140 146 149 150 151 152 156 164 170 174 183 190 186 183 181 177 172 165 164 167 164 162 160 161 160 156 160 158 156 158 156 154 151 153 150 142 138 124 106  84  76 127 180 184 183 184 183 181 181 167 138 131 126 126 125 126 124 127 124
 213 213 217 216 219 229 230 223 220 220 218 217 217 216 216 216 216 215 216 215 209 156  88  76  74  79  95 113 126 132 133 135 139 142 147 150 150 152 151 148 160 172 178 180 185 184 179 177 174 176 173 174 174 167 166 167 165 164 166 169 166 163 164 162 159 155 154 155 150 145 139 128 105  78 101 174 182 184 183 184 180 179 172 142 131 127 128 126 126 126 123 123
 213 214 212 214 217 225 229 220 218 218 217 216 216 217 214 213 215 215 215 212 208 113  78  70  74  82 101 121 129 133 134 136 140 139 144 149 152 154 152 154 162 170 178 174 173 180 179 179 179 179 178 178 173 169 170 169 165 167 166 168 166 166 162 160 159 156 155 156 152 150 144 137 124  93  85 151 180 184 184 184 181 178 172 146 129 129 126 126 127 126 122 123
 211 211 212 214 215 223 227 219 219 217 215 217 215 216 215 214 216 214 211 209 172  92  73  67  73  88 112 127 131 133 135 138 138 141 143 146 150 150 152 154 156 163 166 172 173 176 178 178 177 176 175 174 175 173 169 170 168 168 167 166 164 159 158 156 157 158 156 156 152 149 144 139 133 114  84 123 178 182 184 183 182 180 174 147 132 127 128 125 127 125 122 124
 210 210 212 212 214 221 224 217 216 213 214 215 213 215 215 214 214 213 211 206 140  82  68  65  77  98 116 127 130 134 131 131 133 139 141 146 146 148 150 150 150 155 159 162 168 169 172 173 170 173 170 167 168 167 167 169 169 167 165 163 163 161 158 154 156 156 154 153 149 146 143 140 136 130  98  97 165 181 183 182 180 179 176 153 134 126 127 127 127 124 124 124
 209 210 212 211 213 218 222 218 214 214 214 215 214 214 212 214 214 212 213 207  98  73  63  65  79 102 117 123 127 130 129 132 134 136 139 145 143 144 147 150 151 152 157 157 167 170 168 169 168 166 165 163 167 164 166 165 165 166 165 164 163 161 158 156 155 154 155 151 149 144 141 138 137 134 115  87 143 177 182 181 180 180 178 158 136 128 128 126 124 125 125 126
 210 210 209 211 212 215 221 215 215 214 215 214 215 214 214 213 213 211 211 188  87  68  61  69  86 103 117 126 125 126 129 135 135 137 138 143 143 142 144 148 150 153 155 158 164 168 167 168 170 167 165 163 161 159 158 158 165 165 160 163 162 160 160 160 159 156 153 151 149 146 143 138 135 131 126 100 113 176 181 181 179 178 177 161 136 130 128 126 126 126 126 126
 208 209 211 210 212 216 222 215 214 212 212 212 213 214 213 211 212 211 208 153  78  66  63  73  89 101 119 122 128 122 128 130 135 135 136 137 141 140 144 148 148 151 153 156 160 163 163 165 168 166 162 160 158 154 156 157 160 160 154 160 163 160 160 160 160 157 156 151 149 144 144 140 136 132 130 112  92 159 181 182 179 179 178 168 138 128 126 126 126 127 127 124
 210 210 212 213 213 215 219 216 215 216 216 214 215 216 216 214 215 214 206 112  72  64  68  74  93 104 117 123 126 124 125 129 133 131 132 135 139 141 145 146 149 153 153 155 157 160 166 163 164 162 161 160 158 154 155 155 158 161 161 163 164 161 160 160 160 158 155 153 149 145 142 138 137 134 130 121  88 122 177 182 180 180 179 173 141 130 127 126 127 127 127 125
 210 212 213 212 214 214 217 223 219 216 217 217 217 215 215 215 215 212 193  89  67  64  71  81  92 106 118 125 127 124 124 125 128 127 128 134 137 138 145 149 149 150 156 157 160 162 167 166 162 159 159 159 159 155 155 155 157 162 164 165 163 164 163 166 163 163 158 156 150 147 143 141 137 133 132 127  98 101 174 182 182 181 180 173 144 131 128 128 128 126 126 126
 213 215 215 215 214 217 219 223 220 218 216 217 215 215 217 217 217 214 164  78  65  66  71  81  93 108 120 124 124 122 121 124 127 129 130 134 139 141 144 151 151 154 158 160 161 167 170 168 165 160 159 161 159 157 157 160 161 162 163 164 164 164 165 164 163 164 161 156 154 148 143 136 137 133 133 128 106  87 160 181 184 184 181 176 148 131 127 129 129 125 124 126
 212 215 215 213 214 218 217 219 222 217 217 216 216 215 218 217 215 212 141  71  64  67  73  83  98 110 120 124 120 123 123 123 128 131 134 138 140 145 148 150 156 159 160 159 162 168 170 169 170 163 162 164 163 161 158 162 161 162 166 166 167 165 166 168 165 163 162 158 156 152 148 142 140 133 132 129 116  86 144 181 184 183 182 178 156 134 129 128 128 129 126 126
 211 214 214 214 215 216 217 218 222 220 217 216 217 216 217 218 218 212 116  70  64  68  74  85 102 117 119 122 119 121 120 122 125 132 137 140 144 143 148 152 157 159 160 159 160 167 170 168 164 163 163 163 164 159 160 160 158 161 166 168 167 166 165 167 166 164 162 160 156 152 147 142 137 135 131 128 121  88 128 178 183 184 181 177 161 133 129 129 128 128 128 126
 213 215 214 215 216 216 217 217 220 220 219 218 217 217 217 219 218 206 100  68  64  66  72  84 104 116 118 118 118 120 122 122 128 134 137 141 144 145 147 151 153 156 159 158 158 162 165 161 162 160 160 163 164 160 158 160 159 162 163 168 164 163 166 165 164 162 158 157 156 152 149 145 139 134 129 128 123  93 117 178 185 186 183 179 164 134 129 128 129 128 127 128
 215 215 215 215 217 216 218 221 222 221 219 218 217 218 217 217 218 208  95  66  64  66  74  91 106 112 113 114 113 116 117 121 125 133 138 144 144 143 147 148 147 146 146 149 149 147 151 155 157 156 159 163 160 159 156 158 161 161 160 160 157 156 157 156 154 153 153 153 151 148 149 144 136 132 126 123 119  96 105 178 186 186 184 182 168 139 134 131 128 126 128 126
 217 216 216 216 217 219 221 221 222 223 221 220 217 219 221 220 217 202  85  65  62  65  74  92 105 111 110 108 110 115 116 119 122 128 133 139 135 133 134 131 133 134 135 136 136 136 137 144 146 148 154 155 157 158 152 154 157 156 156 158 155 148 147 144 143 141 139 137 140 140 138 137 134 130 124 116 114  98 101 178 184 185 185 182 174 143 133 129 127 125 128 126
 216 217 218 219 220 220 222 222 224 226 222 221 222 222 220 221 220 198  80  66  63  63  75  94 108 106 103 104 107 110 116 111 110 116 116 116 120 118 116 114 112 115 118 117 119 125 123 129 136 136 142 146 151 151 146 145 150 151 151 148 141 137 133 129 126 124 119 118 120 118 118 120 119 113 106 108 108 100 104 182 188 187 187 183 178 146 134 128 128 128 127 127
 219 218 220 220 222 222 221 222 225 227 223 222 223 223 223 222 221 196  80  68  65  64  76  97 107 106 107 103 105 109 100  88  83  89  95  96  92  88  86  93  91  96  97 102 101 110 116 119 126 130 133 138 142 142 141 140 143 143 143 140 136 126 120 111 100  95  93  88  88  90  92  89  88  90  84  83  99  96 100 180 190 190 188 184 180 151 134 131 127 127 128 127
 220 220 221 223 223 221 223 224 225 227 224 224 224 224 223 223 221 192  80  66  62  65  83 100 107 106 103 103 105 101  79  66  62  67  68  67  65  58  57  56  55  59  67  70  76  89  99 110 116 121 126 132 136 133 129 134 135 136 135 131 127 112 100  86  73  65  60  58  57  62  64  66  66  70  70  65  74  96 111 183 190 189 190 189 185 157 135 132 130 129 129 127
 221 223 223 224 224 223 224 224 227 226 225 225 224 223 223 224 223 188  74  66  62  64  82 101 106 104 100 102  96  74  60  57  53  57  53  47  44  43  41  42  40  46  45  51  54  62  78  94 102 110 118 123 126 126 126 130 130 128 126 124 115 101  85  75  58  49  44  40  40  41  45  50  54  59  63  59  57  77 114 184 191 192 189 189 185 164 138 132 129 126 128 127
 222 223 223 222 224 225 225 224 228 226 225 225 225 224 224 224 222 191  80  66  62  64  83 104 105 100 100  98  69  60  61  57  53  47  43  42  41  40  38  35  36  34  33  40  46  53  64  78  94 101 105 112 115 118 127 130 127 122 117 112 105  91  76  61  49  43  40  35  34  33  36  38  44  50  59  66  62  71 126 186 192 191 191 190 186 169 141 131 130 129 127 128
 225 223 224 225 225 226 225 225 230 226 227 227 225 223 225 225 223 195  78  68  61  67  86 104 106 102 100  91  75  71  71  64  60  50  46  46  46  42  42  41  40  38  36  38  44  48  56  67  85  92  99 104 103 111 119 126 120 115 110 106  96  85  71  54  49  45  44  43  46  48  52  54  56  54  60  75  78  74 131 187 192 194 192 190 185 172 142 131 129 129 129 128
 226 224 225 226 227 226 225 226 230 228 226 227 226 225 225 225 225 201  83  67  64  68  88 106 107 104 101  92  84  75  70  64  59  51  54  61  62  59  58  56  53  54  51  51  49  51  54  62  79  87  91  95  96 104 112 117 114 110 105 104  95  81  72  62  61  60  62  65  71  73  73  75  71  72  70  77  78  74 138 189 193 192 192 192 189 179 145 131 129 127 130 127
 227 226 227 230 227 227 226 227 229 228 228 226 227 227 228 225 225 202  81  68  65  71  92 107 110 106 102  92  83  77  72  65  64  65  68  72  69  64  57  51  50  53  55  60  61  63  64  66  74  83  89  91  92  98 108 112 115 107 101  98  93  82  78  76  66  57  56  56  60  64  72  76  81  89  86  84  80  78 142 190 194 193 194 192 191 183 151 135 129 128 129 126
 228 227 228 228 228 228 228 228 228 228 229 227 228 228 229 228 227 202  86  71  64  70  93 107 108 109 102  87  81  77  75  74  73  72  68  59  52  49  46  44  44  40  42  51  58  65  68  69  72  77  87  87  92  99 112 115 115 108 100  92  86  82  79  65  52  50  51  54  55  53  53  61  75  86  88  87  81  81 146 190 194 196 194 191 191 185 155 135 128 130 130 128
 228 229 229 230 230 228 228 229 228 229 230 229 229 229 228 229 228 208  89  72  66  67  94 109 109 104  95  84  81  79  80  78  75  63  53  50  49  48  47  46  44  44  42  45  49  56  62  68  72  74  80  86  93 111 122 126 120 110  96  90  84  75  64  55  49  49  49  49  53  53  61  62  65  77  89  93  91  89 159 192 194 196 196 191 192 189 161 137 132 130 128 128
 228 230 229 232 231 229 229 229 229 230 231 229 229 230 230 230 229 218  92  71  64  67  94 111 110 105  92  86  84  83  81  72  57  53  51  51  48  45  46  40  39  45  46  45  47  51  54  62  70  73  75  88 108 132 146 148 140 117  94  84  76  66  52  51  51  50  48  43  38  35  43  54  63  64  79  92  99  98 161 193 196 197 196 194 194 189 168 138 133 130 127 130
 229 227 229 232 230 230 230 229 229 231 232 231 230 230 229 230 229 223 108  75  69  68  96 114 110 103  93  87  85  83  77  56  58  54  49  52  54  40  32  30  38  48  43  44  45  48  49  55  65  71  74  88 125 152 166 169 158 129  93  78  67  55  48  51  54  66  70  43  31  31  32  39  45  61  66  88 102 115 175 194 198 197 195 192 190 189 173 142 133 130 127 128
 226 228 230 231 228 228 230 230 229 229 230 228 229 228 229 228 228 224 119  82  68  70  98 111 108 101  97  94  86  81  64  57  49  45  67  90  60  35  29  28  31  47  65  44  45  49  49  52  59  67  74  92 133 162 178 182 170 137  90  76  65  51  52  60  79  94  72  36  30  38  43  47  54  48  64  84 104 118 176 194 197 194 195 193 190 190 176 142 129 129 128 129
 227 228 229 230 228 229 229 227 227 227 228 228 227 227 228 227 226 220 171  87  72  68  91 109 108 101  96  91  86  75  60  52  50  77  99  96  50  37  38  34  47  38  74  57  46  49  49  52  59  62  74 102 142 168 183 187 176 152  89  80  69  62  71  81 100 118  81  59  39  44  52  46  76  50  58  80 102 120 171 191 193 193 191 192 192 190 178 144 130 128 128 128
 227 226 227 229 228 228 227 227 227 226 228 227 226 227 224 210 193 195 189  99  75  68  85 108 108 101  99  91  82  72  59  53  59  82 101 102  56  42  44  35  37  40  77  59  50  50  52  57  61  63  77 117 146 168 183 192 178 158 109  84  75  70  70  77  98 123 104  52  38  34  37  62  73  58  59  81 103 114 146 161 179 190 190 191 191 187 183 148 133 130 129 129
 227 226 228 227 227 227 226 226 226 226 228 227 227 223 194 151 146 147 125 101  83  74  87 111 109 102  98  90  79  70  66  64  62  68  86 104  92  49  36  36  41  64  64  47  44  47  53  58  61  71 100 130 146 166 182 194 182 164 128  87  73  60  58  55  72  83 100  71  49  45  57  77  70  67  76  90 104 112 120 131 138 178 189 190 190 190 184 152 134 130 129 128
 227 226 227 227 225 226 227 227 226 227 227 227 226 216 141 121 116 114 109  99  92  76  84 110 110 104  97  92  84  79  84  80  73  70  71  70  78  75  54  46  52  52  49  49  49  55  57  58  66  94 120 133 146 165 184 194 181 167 144 102  79  67  60  58  59  60  65  69  65  69  74  78  81  87  98 102 110 114 107 105  99 158 187 191 191 188 182 158 135 129 128 127
 224 224 227 227 224 224 224 224 225 225 224 226 223 199 110  94  88  92  93  98  96  81  84 109 112 110 106  97  98  93  94  91  82  80  81  76  70  70  63  60  59  53  52  53  54  56  55  62  86 116 127 134 145 164 183 196 181 170 148 122  87  73  62  60  60  65  71  75  80  86  88  95  97  98 107 111 114 118 100  87  88 169 188 191 188 188 184 163 137 129 126 126
 223 225 226 226 225 226 224 224 223 223 224 225 223 187 102  89  80  88  92  93  93  82  86 112 115 115 111 107 105 102 102  96  90  87  84  82  77  76  72  69  65  58  57  57  56  58  65  83 114 126 128 131 140 162 179 194 183 174 154 130 108  88  76  68  65  64  71  83  87  91  95 101 102 104 113 117 118 121 106  86 111 180 190 190 188 187 185 166 140 132 127 127
 223 223 224 225 224 223 223 223 224 224 224 225 221 182 102  88  82  96  97  90  89  83  86 109 113 119 119 115 114 114 110 103  93  88  87  85  78  78  75  70  67  63  63  60  58  69  89 116 128 131 134 135 141 160 175 187 181 173 154 130 121 105  92  84  77  73  76  82  83  86  88  93  96 107 117 117 119 123 112  86 127 181 190 189 188 186 187 172 139 132 128 127
 223 221 223 223 222 222 222 223 224 223 222 224 221 181  98  85  86 100 102  98  91  88  88 110 113 123 122 122 123 124 121 113 103  94  90  85  80  75  74  72  71  69  66  70  78  97 114 127 130 134 136 136 146 159 171 185 183 174 158 136 127 117 108 100  97  93  92  92  92  95  98 104 112 119 122 124 122 123 107  84 134 184 189 188 186 185 184 174 142 131 127 126
 220 221 222 221 223 221 220 221 222 222 222 222 218 180  96  82  85 103 106 103  82  83  88 110 116 124 129 128 128 129 131 129 121 111 106 103  96  91  89  84  82  83  85  91 106 119 127 128 128 135 134 137 147 158 170 185 187 179 166 140 129 124 123 122 117 111 108 110 112 111 114 120 123 127 127 129 126 126 106  82 143 184 190 186 186 184 184 179 146 132 126 126
 220 219 220 222 221 221 220 219 221 222 221 222 220 200 111  84  90 102  98  88  73  93  88 109 116 124 132 132 132 131 136 135 133 125 120 115 109 105 104  97  98 101 110 119 124 128 128 127 126 133 138 139 150 162 172 191 193 183 170 146 130 125 126 131 129 127 122 122 124 125 125 125 130 133 133 133 131 124 106  92 156 182 189 187 186 184 182 178 150 131 128 126
 218 218 218 220 218 217 218 220 219 220 221 221 219 213 130  83  92 102  96  82  88 106  82 106 116 125 133 138 137 139 142 144 140 135 134 128 124 123 121 124 129 133 133 134 134 132 128 126 128 134 140 146 152 163 177 194 196 186 175 158 139 130 129 134 136 138 139 138 137 135 138 136 139 138 138 137 135 128 109 103 168 184 185 184 186 182 180 177 156 133 129 129
 218 216 218 218 217 216 217 217 218 218 220 220 219 214 162  95  91 102  91  75  96 113  85 102 116 125 132 141 146 150 153 157 156 156 151 144 143 147 148 152 156 154 148 141 135 128 127 127 127 132 137 146 158 173 185 194 197 188 181 169 151 132 132 135 140 146 150 150 150 152 152 153 150 147 145 141 140 132 113 120 174 184 185 185 184 180 182 179 160 134 128 128
 218 216 217 219 219 219 219 218 218 219 219 221 217 218 205 120  92 105  90  74  97 111  86  95 117 128 137 144 150 154 160 161 163 165 162 158 162 164 163 170 164 158 148 141 134 129 122 120 119 120 129 147 161 175 188 199 194 186 185 179 161 139 128 136 141 147 151 155 160 163 165 162 160 153 149 146 144 136 121 141 180 186 185 184 186 182 183 180 165 136 130 128
 218 218 217 219 220 218 220 220 220 218 218 219 220 220 216 173 105 107  96  80  93 103  84  88 116 127 137 143 152 154 160 162 167 167 168 166 168 168 167 164 160 156 146 141 132 125 116 113 114 116 129 148 164 179 182 191 182 173 177 183 168 146 124 133 142 147 155 156 160 160 165 166 164 160 151 148 145 136 124 162 183 186 186 186 186 183 182 180 171 140 130 128
 220 219 220 220 219 220 221 220 221 220 221 221 221 222 218 208 125 106 101  77  87 101  90  85 115 126 137 144 152 155 160 164 166 169 166 165 166 166 162 157 153 147 138 134 125 113 107 120 133 132 133 146 158 166 170 174 169 167 170 174 170 152 127 124 132 139 146 152 154 157 160 161 160 159 155 150 145 136 131 172 186 187 187 185 186 182 183 179 173 139 129 127
 220 219 218 219 218 220 219 221 220 219 222 222 220 221 219 215 166 112 108  87  78  94  99  80 110 123 134 143 149 154 159 161 163 163 163 164 162 158 152 151 142 138 130 120 108  99 107 136 149 140 133 138 145 152 157 160 159 160 163 170 166 150 133 116 120 130 137 142 148 155 156 158 159 154 154 151 144 135 140 178 186 188 188 185 183 181 184 180 174 145 130 126
 217 217 218 218 217 217 219 220 217 218 219 220 218 219 219 216 200 123 111 112  93  99  97  80 101 119 132 140 147 150 156 158 158 158 156 156 152 149 145 138 128 121 112 101  96  94 102 136 144 133 129 128 132 140 147 153 153 155 154 160 161 145 131 119 115 119 128 133 139 146 149 153 153 154 153 151 143 134 152 182 187 186 186 185 183 182 182 180 174 149 130 127
 217 216 218 219 217 216 216 219 216 217 216 220 220 220 217 216 211 160 112 108 112 111 100  85  94 116 125 136 144 147 151 150 148 151 151 149 145 141 136 126 116 105  99  97  98  92  97 119 127 120 113 115 119 128 140 146 141 144 146 154 156 135 120 120 114 110 115 121 131 136 141 144 142 144 142 142 137 132 161 183 187 186 187 185 182 181 181 180 176 154 130 127
 218 219 218 219 218 218 218 220 218 219 218 218 220 221 217 218 216 201 132 117 115 112 105  89  89 111 121 131 139 139 144 143 138 139 141 140 136 132 124 114 104  98  93  98 102  90  86 100 107 104  94  94  97 107 122 128 126 127 132 135 128 112 107 115 117 108 103 110 119 127 131 137 138 138 138 135 129 133 174 188 185 187 185 183 185 181 183 182 177 159 134 127
 218 218 219 218 220 218 219 218 218 221 219 220 220 220 220 220 220 215 180 129 122 114 109  98  88 108 118 125 131 134 129 136 134 134 135 132 128 120 115 106  96  95  96 103 103  93  82  87  88  88  83  78  82  87  96 104 106 111 118 114 104  94  99 116 122 111 101 102 110 119 125 128 131 133 133 130 126 147 181 189 188 187 187 186 185 184 183 180 178 163 136 128
 218 217 219 217 219 218 220 221 220 221 223 221 222 222 220 222 222 219 210 174 131 120 113 102  85 105 114 120 121 124 126 130 126 122 122 123 116 110 103  98  92  97 106 111 108  99  84  80  73  64  63  65  69  78  89  94  96  96 101 101  86  87 106 120 128 119 105 100 103 112 119 123 125 125 124 124 124 161 184 190 189 189 187 187 186 185 183 182 180 167 137 129
 219 218 220 219 220 221 220 219 220 220 220 222 221 222 222 221 223 218 219 215 173 120 112  97  84 105 110 118 116 117 119 120 119 113 112 114 108 104  99  98  98 107 114 118 116 106  94  79  70  59  58  65  65  67  78  85  86  90  91  84  77  88 109 125 131 126 114 102 100 107 112 115 119 123 122 118 128 178 189 188 188 189 187 188 188 185 183 182 181 174 141 127
 220 218 220 219 220 222 221 222 221 220 222 222 221 221 222 221 222 222 221 220 213 175 130 127 122 105 111 110 109 109 111 112 113 108 108 108 106 103  98  97 103 111 114 117 119 107  96  70  65  57  51  52  56  63  73  78  79  78  74  68  68  76  97 122 128 126 122 111 100 105 108 109 116 118 118 114 133 179 189 190 190 190 188 187 188 186 185 182 181 176 145 127
 222 219 219 219 221 222 223 223 223 222 221 223 221 222 224 222 223 221 221 220 220 216 216 212 157 108 108 104 104 107 107 106 104 105 106 104 103 100  93  94  93 103 103 105 107  99  91  62  53  46  42  41  44  53  67  71  62  55  54  54  54  58  80 109 113 117 111 108 104 103 106 108 115 116 110 108 136 182 189 191 192 189 188 188 188 186 185 182 183 178 150 130
 219 220 221 220 221 221 222 221 221 222 223 222 223 223 224 223 222 222 222 222 221 222 219 217 174 106 106  95 104 104 106 105 104 104 100 103  98  89  79  75  81  85  87  89  93  89  77  56  48  43  40  35  37  46  55  56  45  44  45  40  47  51  70  89  92  87  89  87  94 102 107 109 114 113 111 109 137 183 190 191 191 189 190 185 186 185 187 182 181 178 155 131
 220 221 222 221 221 221 222 222 223 222 222 223 223 223 224 222 222 222 222 222 221 221 220 219 184  99 101 101 101 103 106 105 101 102 100 102  95  81  65  64  64  74  75  81  83  74  65  57  49  47  44  39  37  40  49  47  40  37  38  36  43  51  65  75  82  73  72  70  77  96 106 108 112 113 109 109 145 182 190 190 192 190 190 187 186 186 185 184 182 178 156 130
 220 220 221 219 221 223 222 222 223 222 224 222 221 221 222 222 222 221 222 221 222 223 221 219 190 102 101 100 103 103 103 106 100 103 104 102  88  69  60  51  52  67  72  78  73  68  70  65  50  48  45  40  35  37  44  41  36  40  42  41  47  59  67  73  76  68  61  60  68  82 101 107 110 106 107 107 151 181 188 190 190 189 191 189 186 186 183 184 181 179 162 132
 221 220 222 221 220 222 222 223 223 222 223 222 223 223 222 222 223 222 222 222 221 221 219 219 205 106 102 102  99 102 103 104 103 106 106  99  79  65  59  57  60  65  72  81  77  82  83  77  57  49  49  48  39  40  42  43  42  46  47  47  57  64  72  77  79  67  63  62  61  75  98 107 107 106 103  91 101 172 184 189 189 188 189 189 189 187 183 183 183 180 168 132
 220 221 221 221 221 222 222 223 222 222 222 223 223 222 222 222 222 223 222 222 222 221 222 220 211 122  98  99 100 102 101 104 103 106 105  97  79  70  68  65  66  68  80  88  89  99 102  91  75  69  71  74  69  75  72  75  77  76  72  75  86  76  82  86  87  77  70  67  68  78  97 108 109 107  99  70  44  53 126 185 187 189 188 189 189 187 184 183 182 181 172 136
 221 220 222 220 221 222 222 223 223 223 223 223 223 224 223 223 224 223 223 222 221 222 222 220 214 138  97  94  96  97 100 101 101 102 103  94  77  75  65  49  48  56  67  74  75  81  79  78  74  73  74  75  74  80  85  88  84  80  80  84  87  84  82  86  83  66  61  67  78  83  96 105 106 104  96  61  28  28  34  71 164 184 187 189 189 186 184 184 183 182 174 140
 222 222 222 221 221 223 223 224 222 224 223 224 223 225 223 224 224 223 222 223 223 221 221 222 217 160  94  94  96  98 100  99 100 100 102  93  84  78  65  61  66  58  54  57  53  53  59  62  62  67  70  72  70  71  76  79  75  76  81  80  77  72  66  63  61  70  64  70  82  90 104 106 102 100  86  43  25  20  21  33  51 148 185 187 188 184 186 184 182 182 176 146
 221 221 220 219 221 222 221 221 221 224 223 222 224 223 222 223 223 222 222 222 221 220 220 220 216 174  89  90  92  94  98  99  98  97  98  94  88  80  74  73  80  81  75  75  75  74  69  62  55  55  53  57  55  55  54  62  64  67  70  67  65  74  79  80  85  87  77  80  89  96 106 105 101  98  75  33  23  21  16  19  28  44 143 182 183 187 184 185 183 181 177 152
 219 219 218 217 217 220 219 220 220 221 222 219 222 221 220 222 222 220 220 219 217 217 218 215 171  88  70  81  87  90  98  98  99  94  95  94  88  86  84  85  87  89  89  89  85  88  90  88  82  74  70  63  54  50  49  54  59  72  80  88  82  80  85  92 101 101  96  94  98 102 102 100  99  88  57  25  19  20  19  17  16  25  40 138 181 183 184 181 182 179 177 157
 217 216 216 217 217 218 216 216 217 218 218 217 217 218 218 217 220 218 218 216 215 214 213 178  59  38  42  65  76  87  91  94  95  93  94  96  95  90  89  92  94  95  94  94  96  96  96  89  84  82  80  76  76  73  78  81  81  84  90  90  81  83  92 102 107 110 107 101 103 104 102  99  96  76  40  18  16  20  23  19  13  17  28  40 148 178 181 182 180 178 176 162
 213 213 215 215 213 215 216 216 214 216 216 216 217 216 216 215 217 216 216 214 212 210 129  54  38  26  28  57  72  84  92  92  93  94  97  98  99  94  93  94 100 100  98  93  95  96  93  87  84  83  86  83  85  85  86  85  83  84  85  84  87  94 102 104 108 114 110 107 106 103  99  98  89  61  25  14  14  15  23  24  16  14  22  28  50 150 177 180 176 175 177 162
 211 212 216 211 212 212 215 214 213 214 213 216 213 214 214 213 214 215 211 212 210 119  53  36  25  20  21  40  58  73  88  91  93  95  96  95  97  93  91  97 103 104 104  94  89  90  91  88  84  80  77  80  80  82  83  82  80  81  85  88  98  98  96 104 108 108 109 106 106 101  99  94  73  43  19  13  14  14  19  23  23  14  16  21  32  57 161 177 177 174 174 165
 211 210 211 211 208 210 212 210 211 214 213 213 215 212 214 212 212 212 211 206 131  49  37  26  19  17  16  24  46  60  76  80  89  90  94  96  93  88  89 100 106 106 104  96  89  85  85  84  86  85  84  82  79  83  85  84  86  86  90  91  94  93  95 102 106 111 105 101 100  97  95  82  61  27  13  12  14  15  19  23  24  18  14  15  20  34  57 146 173 174 172 166
 211 208 208 210 209 209 209 208 209 211 211 210 212 211 210 208 209 210 201 107  47  35  28  19  18  14  14  16  29  46  61  73  82  88  91  97  89  84  88 101 106 108 104  99  97  90  83  80  79  74  73  72  72  77  76  80  81  83  82  82  88  96 104 108 109 106 100  96  94  97  92  74  45  16  12  12  12  16  18  22  22  20  14  13  17  25  34  47 137 171 172 168
 206 206 208 209 209 207 206 207 208 207 208 211 210 208 210 206 207 205 115  49  35  27  25  16  15  14  15  16  18  32  46  60  74  80  86  91  87  82  89  98 104 112 109 107 101  96  91  87  83  72  65  59  55  53  56  62  69  78  78  86  94 102 108 110 105  96  92  91  91  96  86  62  28  13  10  10  10  14  18  20  19  21  18  12  14  22  26  35  54 149 171 170
 204 203 204 205 205 207 205 204 206 206 207 206 206 206 206 202 203 166  51  36  28  23  17  14  13  13  14  14  16  39  41  52  65  72  83  85  81  82  88  93 105 113 114 116 109 100  94  89  83  73  62  50  41  39  40  44  53  65  77  88  96 104 110 108 101  95  86  84  92  91  75  45  18  11   8   7   9  14  16  20  20  22  18  13  13  16  24  30  38  67 159 164
 204 203 202 202 202 202 203 203 203 202 203 204 203 203 203 201 191  94  43  31  25  20  17  13  13  13  16  14  17  36  50  43  54  68  77  80  85  85  89  99 108 114 118 123 120 111 105  98  91  86  76  65  54  51  53  51  63  76  89  94  98 104 107 109 107  92  83  80  88  85  63  34  13  10   9   9   9  14  17  17  20  21  18  13  12  14  19  26  33  38 113 154
 200 200 200 201 200 201 200 202 202 201 202 201 202 202 199 195  98  51  33  29  25  18  17  14  13  13  12  12  15  34  73  49  46  59  73  80  84  81  81  93 105 118 119 128 131 121 114 104  95  91  86  82  72  73  71  70  73  82  96  99 102 103 103 107 108  88  82  78  84  75  65  34  14   9   8   8   9  14  17  18  17  19  20  14  11  12  17  24  32  35  67 154
 199 198 198 198 197 199 198 200 200 197 198 200 200 199 195 144  50  38  29  28  23  18  15  13  14  13  11  13  17  30  80  71  50  50  64  76  77  71  70  84  95 109 119 128 130 130 124 118 107  98  90  90  87  79  70  75  76  78  90  98 100  94  94  97  98  83  75  67  74  69  81  42  13   8   8   6   9  12  16  16  18  18  22  17  11   9  14  22  27  31  36 102
 194 192 192 192 192 192 192 192 193 190 191 189 187 188 186  78  40  33  29  27  22  16  12  11  12  12  10  13  14  28  76  78  75  52  55  63  64  65  70  77  85 102 109 113 119 122 124 125 111 104  98  95  83  78  74  80  81  79  85  90  91  84  78  85  78  72  68  62  64  75  89  54  16   9   8   7   9  14  17  18  18  19  23  18  11  10  14  19  25  28  30  73
 153 154 153 149 151 148 147 146 146 145 145 145 140 139 113  40  36  33  28  28  22  17  13  10  10  12  11  14  15  25  75  81  83  72  51  51  58  57  56  65  76  86  90 100  96 105 114 119 102  97 100  93  81  80  80  79  80  79  76  84  81  68  64  66  62  61  57  54  62  88  89  65  17  11   8   7  10  12  17  18  18  16  20  17  13   9  11  17  24  26  26  52
 129 129 129 130 129 128 129 129 131 130 129 127 127 126  84  35  35  30  27  25  20  15  12  12  12  12  12  13  13  20  75  81  81  77  65  47  46  44  45  51  64  71  76  88  77  82  90  98  97  91  96  87  75  76  75  78  74  72  73  74  68  60  54  53  47  53  44  46  72  92  91  77  19  12   8   6   7  14  17  17  16  18  20  17  14  11  11  15  20  27  22  28
 123 122 124 123 125 128 126 126 124 127 125 124 122 117  60  31  31  29  27  24  18  14  12  12  13  11  11  12  13  26  75  82  83  81  78  62  44  39  35  37  50  60  64  78  62  62  70  85  84  84  90  82  71  70  72  69  69  74  69  66  62  57  52  44  43  43  35  60  89  96  97  82  31  11   8   7   9  14  17  17  17  19  17  13  12  11  10  16  19  26  22  26
 120 122 122 123 122 123 123 124 122 124 121 120 103  56  37  26  31  28  27  25  17  15  12  11  12  11  12  13  15  30  72  80  83  82  80  72  59  45  34  33  40  48  50  61  64  61  64  70  79  80  77  75  66  63  66  64  67  63  58  57  58  43  41  40  41  35  37  75  96  99  96  86  39  12   9   9   9  14  18  17  18  16  18  16  14  13  10  14  19  24  20  23
 120 121 121 121 120 120 120 121 120 117 114  76  43  33  30  28  30  27  26  22  18  13  13  13  12  10  11  12  13  29  66  81  85  84  81  72  68  61  52  32  32  35  36  48  60  57  59  60  66  70  68  59  55  58  53  50  55  49  52  52  53  41  34  35  35  33  66  91  98  98  95  85  44  14  10   7   9  14  18  17  17  18  18  17  12   8  10  13  18  22  19  20
 118 116 119 121 120 120 119 120 119  99  53  39  31  22  23  26  28  24  26  23  18  12  13  13  12   9  11  10  12  28  66  80  83  84  83  78  69  66  63  46  32  31  31  37  47  46  48  52  54  54  55  49  43  48  46  42  39  42  45  44  43  35  32  31  36  57  82  96 100  99  94  80  43  14   9   7  10  14  16  18  19  18  19  17  11   9  10  13  17  21  18  18
 115 114 115 114 117 119 120 110  70  39  36  27  21  21  19  25  27  25  24  21  19  14  14  15  12  11  11   9  12  28  65  76  80  82  83  80  71  72  65  58  43  29  24  32  37  34  43  45  48  43  42  38  29  34  34  30  32  30  33  33  33  29  30  39  60  79  88  95 101 100  90  78  40  11   8   8   8  14  18  17  17  17  19  16  11   9  10  14  14  18  17  16
 114 110 114 114 115 114  86  51  38  33  27  22  19  17  16  24  26  25  24  19  17  13  11  12  10  10  13  11  12  29  64  76  80  80  84  81  75  69  67  64  56  49  30  26  28  28  33  36  36  34  32  26  22  24  24  23  26  23  23  25  28  31  53  78  81  86  90  97 101 101  90  71  35  13   8   8  10  15  17  15  18  17  17  16  11   8  10  14  16  18  15  13
 112 113 113 112  98  60  36  33  28  26  23  20  20  19  17  24  27  24  21  20  15  11  13  13  10  12  12  11  16  28  59  72  79  81  82  83  79  73  68  67  67  58  48  38  27  24  25  27  27  25  24  20  18  19  18  20  22  25  24  38  57  67  80  86  87  89  90  98 106 102  89  65  35  13   8   8   9  16  15  15  17  17  17  14  11   9  10  12  14  15  15  11
 112 112 107  71  38  34  30  25  23  23  21  20  20  19  16  25  26  20  20  24  15  12  11  10  10  11  12  11  21  36  58  68  75  82  82  82  80  73  67  69  67  68  69  64  51  40  29  26  27  27  25  27  26  24  29  32  36  48  60  74  80  84  87  85  87  89  91  98 101  96  85  54  32  13   8   8   9  13  17  18  18  17  18  16  13  11  10  12  15  15  14  11
 109  80  42  37  30  27  24  22  22  21  20  19  20  16  17  24  22  20  22  21  16  12  12  11  12  14  11  13  24  39  55  66  74  76  79  81  78  75  70  68  68  72  69  69  67  58  56  54  50  45  46  47  44  49  54  67  73  80  82  86  87  88  89  85  86  85  90 100 102  95  76  47  33  11   8   8  10  16  18  17  18  17  18  15  14  13  12  14  15  15  12  12
  52  34  28  27  22  23  22  20  21  20  20  18  18  16  17  24  24  23  21  19  12  11  13  13  11  14  13  14  20  52  50  66  72  74  77  79  78  74  71  64  69  71  70  70  72  72  68  69  64  61  68  72  72  74  78  82  84  89  86  89  91  91  88  85  84  85  94  98  94  84  68  42  34  12   8   8   9  14  16  16  18  17  16  13  13  13  15  14  16  12  10  12
  35  28  24  20  19  20  21  20  20  17  18  17  17  17  17  23  23  22  23  19  15  11  12  12  11  14  14  12  16  52  49  63  69  73  75  78  78  82  73  68  69  71  69  73  76  76  75  78  73  71  76  78  80  84  83  87  90  92  92  91  90  90  84  82  83  84  90  91  90  79  59  44  34  12   7   7   9  13  16  17  17  16  19  17  14  13  11  14  18  10   8  11
  23  21  20  22  20  18  20  18  19  18  18  19  20  18  16  22  21  23  22  20  15  13  14  10  10  12  13  12  16  44  54  61  66  68  72  74  76  75  73  65  65  67  69  74  77  79  81  82  81  83  83  81  82  86  86  92  95  96  94  93  91  86  80  79  83  89  93  89  85  72  52  46  30  11   8   6  10  15  18  18  19  20  19  16  16  10  10  14  16  10   9  11
  21  21  25  21  19  19  20  19  17  17  18  19  18  18  14  20  21  22  22  21  15  11  12  10  11  11  13  12  16  27  66  56  65  66  70  73  73  75  71  67  62  61  65  73  77  78  82  83  84  83  87  89  88  92  92  94  96  97  93  93  88  82  80  77  84  90  88  88  80  66  48  49  24   9   7   6  10  15  18  16  17  19  20  17  17  12  12  15  14   8   9  12
  19  20  22  19  17  19  17  18  18  18  19  17  14  12  15  18  23  27  24  23  14  10  13  11  10  12  13  13  13  18  57  52  66  69  65  70  71  73  72  70  62  62  66  68  72  77  80  87  86  88  88  90  91  94  94  98  98  96  88  86  83  75  76  78  87  87  84  81  74  62  52  54  16   9   8   4  10  14  16  17  17  14  19  17  16  10  12  13  12   8   8   9
  18  18  18  16  14  16  17  18  18  19  17  16  14  14  13  17  21  23  23  19  16  11  14  12  11  11  12  12  12  14  36  60  60  70  70  70  71  71  73  71  64  59  63  61  64  70  70  79  84  86  90  89  92  93  95  96  94  91  83  80  78  78  75  82  86  84  78  73  65  56  61  43  12   8   5   5  10  16  17  15  16  16  18  17  17  11  12  14  12   8   8   9
  19  17  17  15  17  17  17  17  19  18  18  16  14  12  12  16  20  21  19  17  15  13  13  12  10  11  12  11  10   9  19  66  53  62  70  70  72  72  73  74  67  63  61  61  63  64  66  68  78  83  87  90  92  96  94  93  89  84  77  76  76  78  76  82  84  81  78  70  60  61  72  23  11   8   5   5  10  17  15  17  18  17  18  16  15  10  10  14  15  10   9  11
  18  16  16  18  17  18  16  16  18  16  14  14  12  11  10  12  19  21  21  20  18  15  12  11  10  11  11  11  12  10  17  32  80  54  68  69  70  70  72  74  70  62  60  60  58  63  61  64  68  81  84  88  88  91  90  84  80  78  74  77  76  77  79  83  82  77  73  66  60  71  57  15   9   7   6   5  10  14  16  15  18  18  18  18  16  12  11  14  14  12  10  10
  15  15  16  18  15  16  17  16  16  17  15  14  13  12  11  12  19  19  22  20  18  17  13  11  10  10  12  11  11  11  15  26  48  83  56  66  72  71  70  74  72  66  62  56  56  59  59  59  61  71  78  82  86  89  85  76  74  75  73  75  72  76  81  83  84  76  70  61  64  72  32  10   9   5   4   5  10  16  17  16  18  17  18  16  19  13  13  12  14  11  10   9
