P2
# Generated by OpenCV 3.4.0
92 112
255
 181 187 198 203 199 192 186 180 176 178 177 178 176 177 178 176 176 176 176 176 176 178 177 178 176 175 175 175 176 175 177 176 175 175 174 173 174 173 174 173 172 173 171 171 170 171 170 170 170 165 164 168 168 166 167 167 167 163 164 165 162 160 160 162 161 160 160 160 157 157 155 154 155 152 150 151 150 148 147 140 116 110 108 105 106 103 105 103 105 103 103 104
 185 199 230 243 238 219 196 186 181 181 180 180 177 176 180 178 177 177 178 178 178 179 178 179 178 177 177 178 177 177 176 177 178 177 174 174 176 174 173 174 174 172 171 167 169 171 170 169 170 165 164 170 170 167 167 166 167 167 168 166 165 166 162 163 163 160 161 159 160 158 156 157 157 157 156 154 151 151 148 142 119 109 108 107 108 104 107 105 105 105 104 103
 189 222 250 253 252 246 221 198 187 183 182 181 180 180 181 176 178 179 178 178 179 180 179 179 180 180 178 178 178 176 177 177 178 178 176 176 176 175 174 173 165 159 157 141 131 145 145 155 152 152 158 165 166 168 169 169 168 165 167 166 166 165 164 165 161 161 162 159 162 159 158 157 157 157 158 156 153 153 153 145 124 110 109 108 104 107 106 107 106 104 104 103
 193 228 252 253 253 251 240 215 194 185 182 182 183 182 181 180 179 181 182 180 181 181 179 180 181 179 180 181 180 178 177 179 178 177 176 174 172 151 147 131  75  67  71  58  46  56  54  60  71  63  90 111 141 159 167 168 169 167 168 169 167 168 168 165 165 163 163 162 162 161 160 158 158 157 157 156 155 155 153 150 127 111 110 106 106 109 106 108 107 103 105 102
 195 228 252 253 253 253 243 223 199 192 185 185 185 184 183 182 182 183 183 183 182 184 183 183 182 182 183 182 183 180 179 180 179 173 168 144 116  78  62  52  37  34  33  30  28  29  28  30  33  29  36  38  51  91 137 162 166 169 170 171 169 168 167 168 166 166 165 162 163 162 160 159 160 160 158 158 157 154 154 152 133 114 111 106 108 109 108 107 105 106 105 103
 194 217 247 253 253 251 241 220 202 193 189 186 189 187 184 183 184 184 184 185 184 185 184 185 184 182 183 183 184 182 181 180 171 132 114  90  55  43  34  32  27  27  25  25  23  22  22  24  23  22  24  27  28  40  55 107 136 162 170 170 170 169 169 167 166 168 165 166 164 164 161 162 161 162 160 159 158 156 156 154 139 116 111 108 109 109 109 110 106 104 103 104
 197 210 235 249 250 245 234 213 200 194 193 189 190 190 188 189 188 188 187 187 186 187 186 185 187 186 186 187 187 185 183 178 131  81  66  54  40  32  28  25  23  22  25  24  20  20  19  22  22  20  22  24  25  25  32  38  55 108 160 167 171 170 170 168 166 166 166 166 168 165 163 162 160 161 163 160 158 157 156 156 144 120 113 110 109 109 109 109 107 105 107 105
 196 204 222 239 240 236 221 209 198 193 194 191 190 191 189 192 191 191 190 190 189 190 188 191 187 189 190 186 187 187 178 140  78  55  47  41  36  32  29  24  22  22  23  23  23  23  22  22  22  21  19  19  20  23  26  28  32  43  89 143 165 170 169 169 169 168 168 168 168 166 165 164 164 164 162 161 162 160 158 157 149 121 110 109 110 111 107 106 106 107 106 105
 194 200 214 228 224 218 211 203 197 195 197 193 193 192 193 194 192 191 189 192 191 191 189 190 189 190 190 190 188 183 156 100  60  42  41  36  32  33  34  29  26  27  29  29  31  32  30  29  26  26  25  24  22  22  24  25  26  31  42  49 121 167 171 173 173 171 172 172 169 169 169 169 166 166 165 164 162 162 161 158 152 124 114 110 110 109 110 109 108 106 106 104
 196 202 214 224 217 211 205 200 199 195 196 194 193 194 194 195 194 195 194 192 193 191 193 193 193 193 194 190 185 156  96  66  51  40  36  34  32  36  41  47  54  62  55  49  49  53  53  48  43  43  39  33  29  28  24  24  26  29  28  34  50 109 160 172 174 172 173 174 172 170 170 169 169 168 163 162 164 162 162 161 156 132 116 111 110 111 110 108 108 105 106 107
 198 203 211 225 224 210 203 200 198 196 198 196 195 195 195 195 195 195 196 194 194 195 194 193 194 192 194 188 153  93  57  51  46  45  43  41  45  62  79  90  95  99  91  86  86  91  90  80  79  76  75  67  63  62  51  41  36  32  31  34  37  47 104 160 172 174 173 175 173 174 172 170 170 168 166 167 167 166 163 161 159 138 118 112 111 110 110 109 109 107 106 109
 198 201 207 225 244 215 203 201 199 197 198 198 196 197 197 196 197 197 196 196 196 196 197 195 194 193 193 173 106  65  49  46  46  47  60  74  97 110 112 114 119 122 120 117 120 126 130 127 122 118 114 114 110 111 106 100  86  62  42  38  41  45  56 101 154 172 175 174 176 174 173 172 173 171 168 167 169 167 164 163 160 141 119 112 111 111 112 108 108 109 109 108
 198 201 205 217 232 216 207 202 199 200 200 201 200 200 201 199 199 198 198 198 199 198 197 197 195 195 192 151  83  53  46  47  51  82 105 115 117 121 123 127 131 135 134 134 136 140 138 138 135 136 136 132 132 130 127 124 122 117 107  74  47  46  48  55  98 166 174 174 174 176 174 172 173 173 168 170 170 167 164 164 162 146 122 112 111 111 110 110 110 108 107 109
 199 201 205 214 232 218 209 205 204 202 202 202 203 205 205 205 205 204 203 202 201 200 198 198 197 197 188 113  69  55  52  74 106 117 118 123 125 129 130 132 135 137 139 141 140 146 144 143 140 137 135 137 136 136 130 128 127 127 125 122 106  68  48  53  66 117 170 175 176 177 177 173 174 173 172 170 169 167 168 165 162 153 121 113 111 112 111 110 109 110 107 108
 199 202 203 214 236 220 206 205 204 204 205 204 203 205 206 204 206 206 204 202 202 200 200 198 198 194 178  95  67  66  85 111 119 122 124 125 126 129 131 132 136 137 138 139 141 143 143 144 145 140 136 137 138 137 136 133 134 134 128 129 123 116  84  55  54  62 132 173 178 178 177 175 175 174 172 171 171 170 168 166 164 158 127 114 112 109 110 110 109 108 108 108
 200 200 203 213 237 221 205 204 203 203 206 204 204 204 202 202 204 201 201 201 202 200 201 200 198 195 142  81  75  95 108 115 120 124 126 128 128 130 134 136 136 142 144 147 145 142 144 142 146 145 137 139 138 134 132 131 130 135 134 131 127 123 117  91  58  61  92 166 176 176 177 176 177 175 175 175 172 171 168 167 168 162 132 117 113 112 112 111 110 110 110 108
 198 199 203 212 233 220 207 203 203 204 203 202 202 201 202 202 202 201 200 200 199 200 199 201 199 192 105  80  97 108 110 115 122 125 127 127 125 125 130 133 133 137 143 144 141 140 143 141 146 143 141 137 134 131 133 132 130 129 126 127 124 123 121 117  96  66  67 131 173 176 176 176 174 175 175 175 173 171 170 168 166 162 141 118 112 113 111 110 111 108 109 109
 196 197 200 204 221 216 206 204 202 201 201 200 201 202 200 200 199 199 200 200 199 199 200 199 197 166  91 101 108 110 114 115 118 116 121 122 126 128 130 132 136 138 145 143 144 144 145 145 147 145 147 142 139 138 138 136 137 137 136 132 127 122 121 120 116  96  71 105 170 176 176 176 174 174 173 171 171 170 168 167 166 163 146 118 113 112 111 109 110 109 108 109
 197 196 199 202 206 219 213 207 203 201 202 202 202 201 200 200 201 200 200 198 200 199 199 196 186 117  96 106 107 107 110 114 119 121 126 126 131 132 134 134 139 145 147 149 149 149 147 148 149 150 151 143 141 140 138 136 132 131 126 125 125 124 125 120 116 114  87  76 145 174 176 175 174 175 175 173 172 169 167 167 167 163 148 120 115 113 111 112 110 110 110 107
 196 199 199 200 203 218 214 206 203 200 201 201 199 200 200 199 200 199 199 199 199 200 201 195 157  91 104 103 105 109 113 118 113 116 119 119 122 126 130 133 141 148 144 147 153 152 149 153 153 151 153 148 141 138 130 123 120 117 116 117 116 117 122 119 117 116 106  80  98 166 176 176 175 174 174 173 172 171 169 169 167 164 154 124 116 114 113 111 110 110 110 108
 197 198 197 200 200 213 214 206 204 202 201 201 200 199 201 200 201 199 199 200 200 201 200 192 114  96 105 101 104 109 111 108 107 104 107 107 112 117 125 130 137 146 145 147 151 149 153 160 156 155 156 148 138 131 118 102  91  82  80  84  90 100 104 108 110 114 111  98  80 145 172 174 174 172 173 171 171 170 170 167 168 166 157 127 117 111 112 111 111 110 108 109
 197 198 200 199 199 211 213 204 201 199 200 199 199 199 201 199 199 199 198 198 199 199 195 174  94 100 104 102  98 100  96  87  80  71  72  74  84  90 106 116 126 136 143 145 149 145 148 155 154 155 153 144 130 113  95  79  59  54  45  42  53  62  69  76  90  95 109 109  82  96 160 175 174 174 175 172 172 170 170 169 169 165 161 131 115 111 111 110 112 111 110 111
 196 195 195 197 199 207 208 201 200 198 199 197 200 199 201 200 200 197 198 199 198 198 193 141  90 100 100  94  87  76  62  52  42  39  41  46  50  55  67  86 107 121 132 139 140 138 142 148 149 146 143 136 119 100  86  71  57  52  40  34  36  39  44  50  58  72  93 109  97  78 139 172 175 175 174 172 171 171 169 169 168 166 160 134 119 116 111 111 111 112 110 111
 194 195 196 196 198 204 206 200 199 198 199 199 198 197 199 198 198 198 198 196 197 196 189  94  94 101  98  81  58  45  43  35  33  35  32  35  36  44  55  71  90 110 123 131 134 135 138 142 140 137 136 128 114  97  79  62  55  53  48  42  44  41  41  42  46  54  68  98 105  81 100 164 174 173 172 173 171 170 170 168 168 165 162 141 120 112 114 112 110 110 109 110
 195 195 195 197 199 203 205 200 199 196 195 199 198 199 198 197 197 197 198 198 195 195 155  81  94  95  88  58  42  35  36  37  40  40  38  40  39  44  53  63  83 100 114 122 128 130 129 135 135 133 131 123 108  91  79  65  63  63  64  66  77  75  68  55  50  50  50  72  99  88  76 142 171 173 172 173 172 171 170 168 168 166 161 138 121 114 114 113 113 111 111 110
 192 194 195 195 196 200 204 200 197 196 195 196 198 198 199 198 197 194 197 196 196 194 113  80  97  92  68  46  42  42  49  53  54  55  54  50  50  50  52  63  76  95 106 112 119 123 125 128 131 126 120 118 106  90  84  77  76  74  82  89  96 107 108  98  74  65  53  53  85  95  75 106 165 172 172 173 172 171 170 169 167 164 162 148 119 116 118 113 113 110 110 110
 194 194 194 194 195 199 203 198 196 196 198 197 199 198 197 197 197 196 196 196 195 171  79  85  93  80  51  46  53  57  70  77  73  68  66  63  62  62  61  63  70  85  97 103 111 116 122 126 126 120 116 111 102  93  85  83  81  84  86  91 102 115 120 120 112  94  76  61  71  98  73  70 154 171 171 170 173 170 170 167 168 165 164 153 123 118 116 113 112 111 110 110
 193 193 195 193 194 196 199 199 197 196 196 196 198 197 199 198 196 195 196 196 193 130  72  88  88  64  51  59  67  77  89  88  86  76  70  66  65  65  65  67  70  79  86  97 103 111 119 124 120 113 104  98  91  88  88  86  82  75  77  83  89  99 112 119 124 117  94  75  71  92  80  60 118 170 171 170 168 171 170 170 168 166 165 156 127 116 117 116 113 112 111 109
 190 192 193 194 195 196 197 202 198 196 196 197 197 196 196 196 197 194 196 195 188  92  71  93  83  62  65  73  86  91  92  88  79  72  65  61  61  62  65  66  69  72  77  84  92 107 119 127 120 109 101  95  86  85  84  82  75  67  65  68  66  72  84  98 114 121 105  84  76  90  84  59  83 162 173 171 171 168 167 168 168 166 165 158 132 119 116 114 112 115 111 111
 193 194 195 194 193 196 199 203 200 196 197 196 197 197 199 198 198 196 195 197 180  73  73  92  79  69  77  89  96  92  82  75  65  57  54  48  47  52  57  61  65  68  72  76  87 111 133 142 130 108  95  89  84  81  78  72  58  47  40  41  40  42  55  73  95 115 117 101  83  87  86  57  64 151 172 172 172 170 170 168 167 167 165 161 136 116 117 117 112 112 111 111
 194 194 196 196 195 196 198 200 202 199 199 198 200 199 199 200 200 199 198 196 165  71  77  90  80  76  87  93  91  79  63  51  39  35  31  32  34  41  49  53  58  64  68  73  89 123 146 153 139 112  94  88  81  76  72  60  45  36  30  29  27  28  33  46  70  94 109 110  96  89  89  59  56 129 171 173 172 171 171 170 169 170 166 163 141 118 116 116 114 112 111 112
 194 197 197 196 198 199 197 200 202 201 199 200 198 200 200 200 200 199 200 198 146  68  75  90  82  82  91  88  78  60  42  32  28  26  25  25  28  33  42  49  54  59  63  72  90 129 147 154 142 115  92  85  79  72  64  50  35  31  31  37  39  40  35  35  45  71  92 108 100  88  88  60  52 114 172 173 173 173 172 171 171 170 168 165 145 122 116 115 115 113 111 112
 196 195 196 198 199 197 200 200 202 202 200 201 201 199 200 203 200 200 200 197 124  64  78  91  84  88  87  81  65  42  30  33  36  40  37  31  30  34  38  44  51  56  62  71  97 132 146 153 145 124  94  82  75  68  56  40  35  34  30  27  36  55  54  48  44  50  75  98 101  92  89  65  51 104 168 173 173 172 172 171 172 170 167 165 148 126 119 114 117 115 112 110
 196 197 197 195 196 196 199 201 202 203 200 199 200 199 199 200 200 200 199 193 120  65  78  92  83  86  84  71  53  33  37  40  32  31  41  52  43  38  36  41  49  54  61  73 108 136 149 156 148 132  95  83  77  66  47  42  39  29  27  62  39  70 110  74  51  45  64  91 100  98  92  65  47  92 165 175 174 173 172 172 172 170 167 165 155 126 118 116 116 114 114 112
 197 196 196 196 196 199 198 200 202 203 200 199 200 200 201 202 202 201 199 195 113  62  76  92  84  85  78  61  41  37  38  35  32  70  40  83  75  51  43  40  46  53  60  85 119 138 154 156 152 141 112  83  76  64  50  47  55  38  36  33  42  86 157 130  71  55  58  84  97  99  94  68  49  79 167 175 174 174 172 172 171 171 168 168 159 127 118 117 113 112 113 114
 198 197 198 199 200 200 200 201 203 206 203 201 200 201 202 201 203 202 201 196 110  63  78  92  87  85  76  57  44  47  46  43  33  38  67 129 110  71  51  44  48  57  68  99 120 139 154 158 154 142 121  98  84  67  48  50  84  85  68  64  89 142 154 137 107  64  62  78  96 104  98  69  50  70 165 174 174 174 173 172 171 172 171 166 162 132 118 119 116 114 114 115
 198 200 199 200 200 201 201 202 204 206 203 203 202 201 200 202 202 200 200 194  99  62  77  92  89  85  74  53  48  69  80  61  54  73 124 136 122  85  59  50  52  63  87 109 122 140 155 158 153 144 123 114  91  77  63  61  88 101 103 105 118 123 128 118  98  74  63  81  98 106 102  71  50  58 154 173 174 174 174 174 172 173 171 169 163 137 119 115 114 114 112 114
 201 200 201 202 202 202 202 202 205 207 204 204 204 203 203 203 205 203 202 197 106  65  83  94  88  83  73  55  55  79 104 108 106 106 112 115 107  88  73  72  69  79 104 114 127 146 158 160 155 145 125 116 106  82  79  80  79  83  90  93  97 102 107 105  98  84  75  83  98 109 101  74  50  52 140 173 177 176 175 175 174 174 171 169 168 141 122 115 115 115 111 110
 200 202 202 203 204 204 203 203 205 207 205 205 204 205 206 206 204 204 204 200 104  68  86  92  90  83  73  64  69  89  91  91  94  92  92  92  83  80  75  78  85 100 111 119 135 152 166 166 162 155 137 120 116 108  98  80  70  72  81  89  93  99 101 102 100  92  93  97 104 110 104  78  52  52 132 175 178 177 177 175 175 175 174 173 169 146 122 118 115 112 113 112
 203 203 204 205 204 206 204 206 208 209 207 206 206 207 206 206 204 205 205 199 101  68  85  94  92  84  77  81  81  84  85  86  88  82  81  76  71  72  83 103 106 110 116 126 146 160 180 183 177 162 151 127 116 120 120 111  95  77  75  80  84  90  97 102 105 102 110 115 117 115 111  87  52  50 118 173 179 176 177 177 176 174 175 173 168 151 123 116 116 115 115 114
 204 205 205 203 204 206 208 208 210 208 207 209 207 206 207 208 207 205 207 200 102  65  84  97  96  94  95 100  94  88  86  83  81  76  75  74  81  99 113 117 113 110 117 130 146 157 184 185 178 166 156 137 119 120 128 128 126 114 102  94  88  88  91  96 102 108 121 128 126 123 117  93  57  52 108 173 179 180 177 177 176 175 174 173 171 157 127 117 115 115 114 113
 205 205 208 207 208 208 208 208 211 211 210 210 208 208 210 210 208 208 207 200 106  69  86 100 102 108 113 115 106  95  88  83  84  82  92 103 115 121 122 120 112 111 118 126 145 149 155 159 162 159 156 138 124 121 130 137 140 136 136 132 124 119 117 114 118 125 132 136 134 129 124 104  62  51  99 174 180 181 180 178 177 176 176 175 173 162 132 120 117 116 111 111
 207 208 208 211 210 208 209 210 211 211 211 210 211 207 211 207 208 209 208 203 112  70  88 104 110 119 127 131 124 114 109 109 116 118 126 129 129 128 126 118 110 105 111 116 126 133 132 134 139 139 139 127 116 120 130 140 144 146 146 144 144 141 141 145 147 146 144 141 137 133 126 109  63  54  94 175 180 183 181 179 178 176 176 175 173 164 134 121 117 115 116 114
 207 208 208 211 211 209 208 210 210 210 209 210 211 210 210 209 210 209 209 205 114  70  87 107 117 125 134 137 136 135 134 134 135 134 134 134 132 130 127 117 107 102  97  93  98 109 113 117 122 118 113  99  99 112 127 138 142 145 150 149 150 147 149 150 151 151 146 145 139 135 129 116  65  56  92 172 181 181 181 182 180 178 177 175 172 167 138 121 116 115 114 115
 208 208 210 212 210 209 209 211 211 211 210 211 211 209 210 212 211 211 211 206 119  73  87 107 118 127 132 141 144 141 140 137 135 133 133 135 135 134 127 115 106 101  83  78  80  89  95  97 105 103  92  87  93 107 121 136 141 147 149 150 150 149 151 151 151 149 145 142 138 133 129 118  70  58 107 176 182 183 181 182 179 179 177 176 175 171 143 123 115 116 116 115
 209 209 210 213 212 212 209 210 212 212 212 211 211 212 211 212 212 211 211 205 132  76  91 109 120 126 130 137 138 140 140 137 136 135 140 143 140 133 126 112 103  96  81  69  68  81  84  85  91  92  74  69  90 100 117 133 141 147 149 151 149 152 152 152 148 145 145 144 140 134 130 119  85  66 117 180 184 184 183 180 181 178 177 177 175 173 151 124 120 116 117 113
 210 210 211 213 213 211 211 212 212 212 213 212 212 213 212 211 211 213 212 206 147  81  92 112 121 126 131 134 137 140 140 138 138 140 144 144 139 132 124 107  95  83  70  32  26  58  75  79  83  78  38  29  69  90 107 130 138 142 145 148 148 148 153 154 151 146 145 144 142 136 129 119  92  79 148 180 183 184 182 182 181 179 177 176 175 174 154 125 119 116 116 112
 212 212 213 214 212 212 212 214 212 212 214 213 212 211 212 212 212 212 212 210 194  92  97 112 123 130 132 136 138 138 137 139 139 140 143 139 134 129 116 103  87  76  56  28  30  49  65  73  77  69  54  32  59  87 105 127 135 138 141 145 147 148 151 149 151 147 142 141 140 136 128 119  99  94 131 150 158 174 180 183 182 178 178 178 177 175 159 126 119 116 113 112
 211 211 214 213 212 213 214 211 214 214 213 213 213 212 213 212 213 210 202 180 154 102 102 112 122 129 132 135 137 141 140 142 141 141 140 133 125 124 113 104  84  75  53  38  50  59  63  69  74  75  76  56  62  84 106 125 129 134 136 142 143 148 148 148 147 146 143 140 138 135 127 117 101  95 112 115 119 128 163 180 182 180 178 175 177 175 165 132 119 118 115 116
 210 210 211 212 212 211 212 210 212 212 212 212 212 212 211 211 212 197 140 120 112  98  99 114 122 127 132 135 138 139 140 141 140 140 136 130 122 118 116 105  83  68  54  52  62  61  62  71  72  73  78  77  70  80 106 125 128 129 130 134 141 142 144 143 144 144 141 139 138 131 124 112  94  88  99  96  87  86 123 174 179 178 176 177 176 174 168 135 120 116 115 113
 208 208 211 211 210 210 210 211 209 210 210 211 210 210 210 210 206 146 101  90  90  89  95 112 120 128 131 132 134 134 138 140 137 135 131 126 118 117 118 110  86  64  52  51  54  55  62  72  69  64  64  64  68  81 103 123 129 129 126 129 135 139 141 140 136 139 140 141 137 129 122 108  93  82  94  95  85  76 100 172 178 180 177 176 175 174 170 137 120 116 113 114
 210 210 211 210 211 210 210 210 209 209 210 208 209 210 210 208 201 103  77  69  78  79  88 112 120 127 129 130 128 131 133 135 130 129 126 121 119 121 122 116  91  67  53  44  43  48  57  62  54  50  52  52  62  74 100 125 131 134 125 125 131 132 135 134 133 134 136 134 132 128 117 105  86  74  89  99  92  81 105 170 176 178 178 175 174 175 170 142 120 117 117 116
 208 209 211 209 211 209 209 207 209 209 211 209 209 210 209 208 198  96  76  75  85  75  83 108 116 124 126 126 128 129 127 127 126 123 122 119 123 127 127 118  90  59  44  35  34  38  48  52  44  41  40  41  49  62  98 127 133 135 132 128 130 132 134 135 134 132 133 130 128 122 111  99  81  76  91  98  91  81 117 173 177 178 179 176 176 175 171 151 122 117 117 114
 208 209 209 209 208 210 209 210 209 210 208 207 209 208 206 208 198  92  78  83  94  89  82 102 112 118 121 122 126 124 122 122 122 120 122 124 129 126 122 107  84  52  42  36  34  35  41  48  40  38  36  37  44  53  86 112 127 136 134 132 130 131 132 132 129 132 129 128 122 117 108  93  77  89 106 109  94  77 124 174 178 178 176 176 174 174 172 155 123 117 117 114
 204 206 207 206 207 206 207 207 207 208 207 208 208 209 208 207 190  98  77  87  99  94  86  97 106 113 115 118 119 121 118 119 120 120 123 124 120 109 100  84  71  56  43  42  38  36  38  44  37  36  39  40  44  56  76  93 106 123 128 133 131 130 126 128 128 128 125 123 119 110 102  91  76  97 112 120  95  79 132 173 177 179 176 174 173 174 172 157 124 117 116 115
 203 204 204 207 206 206 206 206 205 206 205 205 208 207 208 205 185  99  80 100 101  97 101  91 102 110 112 113 113 115 116 116 119 117 119 106  98  92  84  70  69  65  52  45  43  36  37  42  40  40  43  45  53  65  74  82  88  89 102 114 125 131 127 126 125 123 121 118 115 107  98  89  78 106  99 121  94  86 140 173 176 176 175 176 175 173 172 161 128 119 115 112
 203 204 205 206 203 204 205 205 205 207 205 205 206 206 206 205 192 114  85 107 102  91 100  88  98 105 105 109 109 108 113 115 117 111  92  84  85  81  80  75  80  80  71  67  72  65  61  62  68  70  62  66  75  70  82  83  78  76  76  81 103 130 131 129 125 119 112 110 111 105  96  85  83 112 107 121 103 109 155 174 174 175 175 174 174 173 170 164 131 118 113 112
 203 202 203 205 205 203 204 202 204 205 205 206 205 205 204 204 195 130  94 112 105  87  98  86  96 100 102 104 106 108 112 115 115  92  70  63  71  80  80  89 102  95  84  78  75  73  75  79  77  75  74  84  90  90  94  89  82  70  67  70  85 118 130 127 124 119 114 112 106 100  95  81  86 103 104 124 110 123 165 174 176 175 174 173 171 170 168 164 138 118 114 113
 201 201 202 202 201 202 203 203 203 205 205 204 204 203 205 202 198 152 113 114 114  87  94  90  97  94  98 101 106 107 113 118 108  78  70  63  70  82  94  91  83  74  70  71  68  66  66  71  70  69  71  74  77  86  95  99  95  79  68  68  74 100 125 126 125 120 113 110 104  98  95  80  87  91 107 126 113 132 167 174 174 174 174 171 171 169 168 163 140 119 114 114
 200 200 201 200 201 201 201 202 203 203 202 204 204 202 203 203 201 183 127 107 111  88  87  89  92  86  93 100 105 108 115 114  95  74  71  72  74  79  75  65  62  58  61  61  58  56  55  58  61  61  65  69  66  67  71  80  91  86  79  73  72  89 115 125 119 117 110 108 104 100  94  80  83  87 107 125 118 146 170 173 173 172 173 171 169 169 167 165 143 120 116 111
 199 199 200 200 202 202 199 200 201 201 201 202 202 201 201 200 200 195 154 114 120  97  92  87  89  87  93 100 105 111 112 112  86  77  73  68  63  59  54  45  43  44  45  50  51  50  43  39  48  54  54  55  51  54  56  58  68  75  72  70  75  85 111 120 118 115 110 107 105 101  93  82  92  99 120 123 122 154 170 172 173 172 171 171 171 169 167 165 148 120 116 111
 200 198 198 199 200 199 198 199 198 200 200 201 201 200 200 201 200 198 176 120 121 116  99  86  87  89  93  99 105 109 111 108  84  80  66  51  41  42  54  65  82  90  96 105 108  86  66  64  76  84  85  84  83  79  72  58  50  46  47  62  76  89 102 118 117 114 111 108 103 102  95  83  96 108 117 115 127 164 173 173 171 172 171 169 170 169 167 162 152 124 113 111
 200 199 199 199 200 200 201 200 199 199 199 202 201 202 200 201 200 199 194 142 111 111 105  85  87  89  92  96 100 107 111 105  88  80  67  56  68  79  91 103  96  91  94  99 103 107 104  96  92  91  90  92  92  93  96  92  79  76  64  68  82  92 104 117 116 111 110 108 101  99  96  83  96 110 116 120 141 169 172 173 172 170 171 170 171 167 166 166 156 127 114 111
 198 198 200 200 201 200 200 201 201 203 201 201 200 201 201 201 202 201 198 170 122 113 107  84  83  87  88  94  98 104 106 102  91  86  81  87  98  99  99 100  95  88  82  84  86  89  92  91  88  85  85  90  95 101 104 106 104 104  95  87  92  99 109 116 113 107 108 108 101  99  96  83  96 109 116 121 158 174 173 174 173 172 171 170 168 168 167 167 159 128 116 112
 198 199 200 199 200 200 201 201 201 204 201 201 202 202 202 202 201 201 201 193 142 118 100  85  82  86  87  92  96 100 104 103  94  89  96 110 112 105  94  89  86  82  79  78  80  82  82  84  84  82  83  90  96 101 101 107 110 116 116 113 106 106 107 110 107 107 108 106 104  99  92  81  92 103 110 148 171 175 173 173 173 173 170 169 168 169 168 166 162 133 118 114
 199 198 199 200 200 201 201 200 201 202 201 202 202 202 201 200 201 203 202 201 186 150 104  83  84  84  89  91  95  97 100 101  99  95 106 119 119 111  97  88  80  77  74  73  72  69  73  74  76  76  81  86  87  94  96 102 113 124 130 125 117 111 109 108 105 106 109 107 103 101  91  82 109 132 154 170 174 175 173 174 173 172 170 170 170 169 170 166 163 138 119 113
 198 199 199 199 199 200 200 200 201 200 199 200 201 200 201 202 202 201 200 201 200 195 187 141  89  86  87  92  93  92  95 101 101 101 109 117 118 114 101  91  80  73  68  66  59  56  57  59  60  66  73  78  80  88  97 103 116 125 130 126 121 114 109 107 106 106 108 106 102  97  91 103 163 170 171 173 174 174 172 171 174 172 168 170 169 168 167 164 163 144 118 113
 197 198 198 199 198 199 199 200 201 200 200 199 200 201 202 200 200 202 201 202 201 199 196 164  90  87  86  89  91  90  94  99  99  98 108 113 114 109 104  96  86  78  73  65  58  49  46  49  52  61  69  73  80  90  99 111 118 123 128 123 117 112 109 106 103 104 105 103  99  90  86 119 168 174 175 174 174 174 172 172 172 170 169 170 169 168 166 164 163 150 120 112
 198 198 199 198 197 200 199 200 200 200 200 201 201 200 200 202 200 204 203 201 201 201 200 187  97  82  85  90  91  93  92  95  94  96 107 113 113 112 109 104  91  84  72  65  54  39  36  36  38  46  55  67  82  95 107 116 123 123 122 118 112 106 108 105 104 102 104 102  92  84  80 135 171 175 175 176 175 174 174 173 172 173 172 170 167 167 168 166 164 154 123 114
 199 199 200 200 199 198 199 200 200 200 200 201 201 201 202 202 202 203 201 200 200 200 200 192 120  80  81  89  90  90  92  94  87  90 106 110 114 117 118 117 118 104  98  94  87  78  73  75  80  87  89  96 104 114 125 128 129 122 112 109 108 103 104 105 104 103 104  95  84  78  78 154 174 176 175 175 174 175 175 175 173 172 170 169 169 167 168 165 164 157 125 114
 197 200 199 200 200 201 200 200 200 200 200 201 201 201 201 202 202 202 201 200 198 200 200 195 159  79  72  81  86  88  90  92  82  89  99 109 117 123 129 128 130 127 128 123 128 128 123 105 113 116 115 125 131 134 137 135 133 126 114 106 101  96 102 106 104 102  96  85  76  74  94 164 173 175 176 174 175 174 176 175 172 171 172 169 169 168 168 166 165 159 130 115
 198 200 199 200 200 201 200 200 201 201 202 201 203 202 203 204 204 202 201 201 201 201 201 200 188 100  69  71  80  86  86  86  82  92 101 111 118 123 128 128 130 128 121 121 131 120 113 111 118 119 119 124 122 134 129 122 125 126 118 104  93  94 102 106 104  98  90  79  72  64 118 169 175 175 174 174 176 176 174 173 173 172 171 169 169 170 168 167 164 160 133 113
 199 199 198 201 202 201 202 201 201 202 202 202 202 202 203 204 202 201 201 200 200 202 203 201 198 148  70  62  72  79  83  88  85  89  94 103 114 115 112 116 122 117 107 116 120 103 107 108 113 111 107 108 114 116 109  95 108 104 107  98  90  87 100 103  99  92  84  75  67  44  38  99 164 174 172 174 176 174 173 174 174 173 171 170 168 170 167 167 165 161 138 113
 200 201 201 201 202 202 200 201 201 202 202 202 202 203 202 203 201 202 202 201 203 204 202 201 199 187  93  59  63  73  80  86  83  76  88  95  97  97  84  93 101 102 100 108 106  96  95  97  96  97 101  94  96  94  84  75  88  80  86  83  85  79  95  98  96  87  76  65  50  26  21  24  51  86 117 157 172 172 174 174 175 173 171 171 169 169 166 165 165 162 140 115
 200 201 202 201 202 202 201 202 202 203 203 203 203 204 202 203 202 203 203 204 202 201 202 201 200 195 163  64  59  68  71  79  74  67  72  80  80  84  68  69  82  89  93  95  96  86  83  85  87  88  86  76  82  82  78  65  67  63  66  72  76  74  84  92  88  78  72  58  38  19  15  16  21  28  34  39  75 140 168 170 173 173 171 172 171 168 168 168 166 164 147 117
 200 201 201 202 201 202 203 204 203 203 201 204 204 205 203 202 202 204 203 203 203 202 204 202 200 199 191 144  53  58  65  68  63  59  61  68  65  78  67  66  67  78  84  85  77  70  73  68  66  75  71  68  67  72  61  57  54  51  56  60  62  66  76  83  78  70  62  54  46  17  13  12  16  17  21  25  26  35  71 146 168 172 172 172 172 171 169 168 165 164 154 123
 201 201 201 201 202 202 201 203 203 202 202 202 202 202 202 202 201 204 202 202 202 202 203 202 201 200 194 172  54  45  55  58  56  46  47  52  50  56  64  63  57  64  70  70  62  56  58  55  50  53  56  60  61  60  50  47  42  45  53  48  51  58  69  73  68  60  49  67  59  18  12  12  13  13  14  18  21  19  28  43 113 167 171 171 171 171 171 166 165 163 157 124
 201 200 201 201 201 201 202 203 202 202 203 202 202 202 202 201 203 202 202 202 202 203 202 201 200 193 151  53  34  34  45  55  52  41  38  42  35  40  51  50  50  55  54  53  49  41  43  45  41  40  44  50  49  47  42  43  40  47  46  41  44  50  56  63  57  51  61  79  65  22  12  11  11  12  14  15  22  20  16  19  34  77 157 168 168 170 170 166 166 164 158 124
 202 200 202 202 202 202 201 204 203 202 203 201 202 203 204 203 204 203 202 202 202 202 201 198 191  91  40  29  20  32  52  41  41  39  35  32  31  31  37  36  46  44  45  42  39  33  32  37  35  35  34  37  40  40  40  38  36  40  39  36  39  45  53  53  53  62  79  85  77  22  12  11  11  11  13  14  20  23  18  15  19  29  69 155 169 171 168 167 167 165 160 129
 202 202 200 202 202 201 202 203 202 204 205 202 202 202 204 203 203 203 202 203 203 200 199 150  66  35  26  19  14  20  68  59  38  36  33  29  28  29  33  31  36  35  35  33  32  28  28  30  29  29  28  28  30  32  31  32  33  34  31  29  38  45  50  52  59  69  82  88  82  30  13  10  11  11  13  14  18  22  23  16  14  19  30  66 156 169 167 166 167 166 162 134
 200 199 200 201 201 202 202 201 203 203 204 202 201 203 202 202 202 202 202 202 202 198 147  48  35  23  17  16  14  19  70  71  60  43  36  32  29  26  28  28  32  31  30  29  29  24  26  24  25  24  24  26  24  25  28  26  27  31  30  33  42  48  56  62  68  78  83  90  85  40  13   9  10   9  11  13  18  22  21  20  13  14  19  28  69 158 167 168 165 166 161 142
 200 200 202 200 201 201 200 200 200 202 202 200 200 201 201 202 202 200 201 201 200 135  48  32  23  18  14  13  13  17  69  81  72  59  47  41  33  28  25  23  24  25  26  26  24  20  21  22  23  21  24  21  23  23  24  25  29  32  32  38  45  60  66  70  76  82  85  90  85  52  14   8  10  10  10  14  18  20  20  20  15  11  14  20  32  72 157 165 166 166 161 145
 196 199 200 198 200 201 200 200 199 199 199 199 199 198 198 201 200 198 199 196 155  54  35  27  19  15  12  13  12  18  64  79  77  65  59  50  39  32  28  24  23  23  22  23  22  23  28  28  27  30  29  29  29  33  34  33  33  30  36  45  59  70  72  73  81  84  85  91  87  59  18   9   9   9   9  12  16  20  20  20  16  12  13  15  21  34  84 159 164 164 161 150
 196 196 197 195 196 197 195 196 198 196 196 197 197 197 196 197 197 196 193 169  64  40  25  21  15  12  13  13  12  21  63  78  80  69  64  60  52  41  34  26  25  24  25  28  31  34  40  43  37  39  34  31  33  36  37  35  32  39  48  59  67  71  74  75  85  85  87  91  90  70  16   9   8   9   9  11  16  19  19  21  18  13  11  12  19  26  34 107 157 162 161 152
 192 194 194 194 196 193 193 196 197 195 196 196 196 195 195 194 193 192 189  79  43  31  22  18  14  11  13  13  12  19  59  77  80  71  65  60  57  55  40  30  27  30  29  31  34  42  44  44  42  43  43  40  38  38  40  38  40  51  65  69  71  74  75  83  87  86  88  92  91  79  23  10   9   9   9  11  16  18  19  20  19  15  13  11  16  22  31  41 130 158 159 154
 190 192 191 192 192 193 194 194 193 195 194 194 195 193 193 193 193 189 150  49  34  27  22  17  12  11  12  11  12  18  60  79  80  74  68  64  58  57  52  41  35  31  29  32  33  41  43  49  47  40  41  39  37  37  30  40  51  62  72  74  75  80  80  86  86  87  90  91  90  79  30  12   8   8   9  13  16  19  19  19  19  17  13  10  13  18  24  33  63 155 160 154
 192 191 190 191 191 191 191 192 192 192 193 190 193 192 191 191 188 164  64  39  28  26  20  16  13  12  11  11  10  16  56  76  77  74  68  65  61  59  56  52  46  40  35  33  32  34  41  45  41  39  42  39  38  34  39  53  66  72  74  78  78  81  83  87  85  87  91  91  91  83  42  12   9   7   9  11  16  16  18  17  18  16  14  11  11  15  20  29  33 121 156 155
 190 188 189 190 189 189 190 190 189 190 188 188 190 189 189 187 176  68  47  32  28  26  18  14  13  12  11   9  11  15  55  74  77  75  72  66  63  59  57  59  58  49  39  36  35  37  40  45  44  41  41  44  46  45  54  65  72  76  76  80  80  85  87  88  86  89  94  95  92  86  48  15  10   9   8  12  16  17  19  19  18  16  15  10  12  14  19  26  29  68 146 147
 186 186 186 187 185 186 186 187 186 187 186 186 188 186 185 183 121  42  37  30  28  24  17  12  12  13  11   9  12  15  58  74  78  73  70  66  65  62  61  61  60  60  50  45  44  46  46  48  47  50  52  57  65  65  69  73  80  81  81  82  84  87  88  90  86  88  93  92  92  85  63  16  11   9   8  12  17  18  18  19  18  18  15  12   9  11  16  23  25  38 130 142
 183 184 186 185 184 185 186 186 184 183 184 184 185 185 186 180  60  37  33  27  25  19  17  12  12  13  11  11  13  14  54  74  76  76  73  69  66  63  61  60  64  62  60  59  56  53  56  56  58  66  68  69  69  75  80  81  81  82  82  83  88  87  89  90  87  87  92  94  93  87  75  23  12  10   8  12  16  16  14  16  17  15  14  11   8  11  15  22  24  25 108 136
 182 182 182 180 181 183 184 183 183 181 182 184 183 181 182 158  38  34  30  26  24  19  16  12  13  12  11  12  12  13  55  73  76  76  73  70  67  63  62  60  63  65  63  63  63  63  62  66  67  69  73  72  76  82  83  80  83  83  80  82  88  86  89  88  86  87  92  94  91  88  78  34  12   9   8  11  16  16  14  14  15  13  14  12   9  10  14  19  22  24  52  97
 176 175 175 173 172 173 172 171 171 170 171 169 166 162 163 122  37  32  27  24  22  17  16  13  13  11  12  11  11  15  57  72  78  76  76  72  67  64  61  62  63  65  64  64  66  67  64  70  70  71  76  79  78  79  85  85  84  82  82  87  88  86  87  85  85  88  92  95  91  88  78  46  17  10   8  12  16  16  17  14  15  14  12  12  10  10  15  19  21  20  23  34
 125 124 125 126 125 126 124 121 126 124 125 123 121 119 115  74  29  28  24  22  20  18  15  11  12  12  12  10  11  13  58  71  75  77  77  75  69  66  62  64  65  65  67  66  67  70  68  72  73  75  75  78  85  85  85  87  85  85  85  86  88  90  85  84  85  89  93  96  91  89  79  48  19  11   8  12  16  17  16  15  16  13  12  10   9  10  16  18  17  15  16  18
 113 112 114 112 112 111 112 112 113 113 114 112 112 102  63  34  27  27  26  24  21  16  12  11  12  11  11  10  11  18  57  68  73  78  78  77  67  62  61  63  67  66  70  70  71  73  72  72  76  78  78  79  84  87  87  88  87  85  86  84  87  86  85  84  83  86  96  99  93  88  74  44  24  10   9  12  15  16  17  14  15  14  13   9   9   9  13  16  15  14  12  16
 108 108 108 109 110 109 112 109 109 111 110 109  87  46  29  23  22  27  26  22  21  17  12  12  12  11  11  11   9  17  54  67  74  77  78  76  72  63  62  61  63  64  69  71  74  74  71  74  77  78  77  80  87  89  89  91  89  85  87  87  86  82  81  83  83  90  95  98  94  87  70  42  27  11   9  13  16  15  15  15  16  13  14   9   9  10  13  16  16  13  12  13
 106 105 106 105 107 107 106 109 107 106  99  62  34  25  20  18  22  28  20  18  20  15  11  11  12   9  10  11   9  18  50  64  72  75  78  75  73  65  62  63  65  64  67  71  74  75  72  75  82  82  82  86  86  91  92  93  89  87  88  87  85  82  82  83  85  93  95  95  93  85  65  39  31  12   8  11  15  18  15  16  17  15  13   9  10   8  12  14  13  12  11  12
 106 105 106 105 106 106 108 107 106  86  44  33  25  19  19  17  22  24  20  19  21  14   9  11  11   9  11  12  12  19  47  62  69  76  75  76  74  66  63  63  64  67  70  69  74  78  78  82  83  84  88  88  88  93  92  94  90  88  86  84  84  83  82  83  87  93  93  95  92  80  59  38  31  11   9  11  15  16  17  17  15  14  13  10  12  10  13  13  13  11  10  11
 105 105 103 106 104 104 106  97  60  33  29  22  20  17  17  14  21  22  21  20  19  12  10  11  11  10  11  10  11  22  45  60  68  72  73  75  74  69  62  61  62  62  68  70  74  75  79  83  88  87  89  89  92  93  95  91  88  89  85  83  81  80  82  83  85  91  92  90  86  75  51  42  27  12   9  12  15  16  14  16  16  12  14  11  10  10  13  13  12  10  10  12
 104 101 101 103 100 102  79  39  33  26  21  19  16  17  16  15  18  20  19  21  17  12  11  11  10   8  11  11  11  26  43  57  66  69  73  74  74  71  63  60  60  62  63  69  70  75  81  85  86  86  89  90  91  94  92  88  87  84  81  76  78  82  78  80  85  89  90  90  81  66  45  49  21  11   8  12  17  18  16  15  18  16  13  11  10  10  12  13  10   8   9  10
 102  99 100  99  89  53  32  25  22  19  18  15  14  15  14  16  19  17  20  22  20  14  12  10  10   8   9  10  11  26  39  54  65  67  70  72  74  70  64  60  58  60  58  61  66  68  73  81  85  85  88  90  90  92  90  87  84  81  80  73  76  79  77  79  84  87  89  84  73  57  45  54  17   9   7  13  18  19  20  18  18  18  16  10   9  10  13  13   8  10  11  10
 100  99  96  59  32  27  24  20  20  18  18  16  16  16  12  15  18  19  20  20  19  14  10  11  10   8   9  11  10  18  35  50  61  65  70  70  72  71  66  58  57  55  56  60  62  61  69  80  84  85  88  87  91  88  84  80  77  76  80  75  78  76  76  82  86  88  87  80  68  53  43  52  13   9   8  13  18  18  18  18  17  17  16  12   9  10  12  11   7   8  10   9
  95  74  38  31  24  21  20  19  17  18  16  15  14  17  16  15  17  19  20  20  20  14  10  10  11  10  10  11  11  12  39  45  58  62  68  68  70  73  72  62  58  56  56  59  59  60  62  71  79  81  85  86  84  84  76  75  74  75  74  74  76  75  76  82  83  85  82  74  62  50  52  46  14  10   8  14  18  17  16  18  18  16  16  12   9  10  13  10   7   9   8  10
  47  26  25  21  20  18  18  19  17  16  15  14  16  14  15  12  15  18  21  20  18  14  11  10  10   9   9  10  11  11  30  48  55  63  66  68  69  72  73  68  59  57  54  56  61  60  59  65  70  76  80  84  84  80  74  74  73  74  74  76  76  76  78  82  82  81  77  68  56  50  63  31  12   9   9  14  18  17  16  16  18  16  15  13   9  10  12  11   7   8  11  11
  26  23  20  21  18  18  17  19  16  15  14  17  18  13  16  12  13  18  18  19  19  18  13  12  12   9  10  10  10  11  18  52  53  62  65  70  67  71  72  71  61  59  55  55  60  61  58  57  60  66  76  81  79  73  73  73  74  75  75  76  75  76  77  80  81  75  70  61  54  54  67  19  10   8   6  13  19  19  17  17  17  17  16  12  10  11  12  12  10   8  11   9
  22  19  20  19  16  18  16  16  14  14  17  16  17  14  15  12  11  16  19  19  19  19  12  10  10   9   9   9  10  11  15  34  58  56  64  66  67  66  68  69  67  60  55  56  58  59  61  59  57  58  69  73  72  70  71  73  74  73  75  74  78  78  78  77  75  71  62  56  55  74  42  14   9   7   7  14  20  19  18  18  19  17  17  15  11  11  13  11  12  11   9  10
  18  19  18  15  13  16  15  16  15  16  15  15  16  15  12   9  10  15  18  18  19  16  15  11  10   9   9   9  10  10  13  19  53  60  60  66  66  64  67  69  70  65  58  56  56  61  60  63  59  57  60  64  65  70  70  71  74  73  73  77  76  76  75  76  72  68  60  53  66  73  26  12   8   6   6  14  20  19  17  17  18  17  14  14  10  11  14  10  12   9   8  10
  16  13  15  14  12  15  15  16  14  16  14  13  13  12  10   9  12  14  16  19  19  17  14  12   9   7   9   8   8  10  10  13  33  70  58  61  66  65  67  68  69  66  61  57  58  58  62  64  63  63  62  64  67  70  72  72  72  75  75  75  77  77  75  71  70  62  57  57  71  48  15  10   8   4   5  13  19  18  18  18  19  17  16  15  11  11  11   9  12  10   8   8
  16  14  14  16  16  18  17  16  13  16  17  15  12  13  10  11  12  14  18  19  18  16  13  13  11   8   9  10   8  10   9  11  21  52  80  58  62  65  67  69  70  67  60  60  60  59  64  67  66  67  68  69  69  71  73  74  73  76  74  74  76  75  74  72  65  57  52  73  60  32  12   9   7   6   8  16  20  18  17  19  19  19  16  16  10  11   9  11  12  11   9   7
  12  12  14  15  12  15  16  15  12  15  17  15  14  12  10  11  12  12  18  17  18  18  16  11   8   7   8   9  10   9  10  10  14  34  62  85  61  58  65  69  69  68  64  61  57  59  62  67  67  67  70  73  74  73  73  76  73  74  73  75  73  74  71  65  57  46  67  65  46  18  10   7   7   5   9  18  19  19  19  18  18  17  17  16  13  12  11  10  10  11  10   7
  13  15  14  14  15  13  14  13  13  15  16  14  12  11   8  10  12  12  16  16  18  17  18  13   8   6   8   8   8   8  10  10  11  23  45  68  89  66  57  67  68  72  69  66  61  56  59  63  66  68  70  70  71  71  70  70  70  69  71  73  72  71  68  56  44  65  71  52  32  12  10   8   6   6  12  16  17  17  19  19  17  15  15  16  12  10   8   8  11  11   9   9
  15  14  15  14  13  13  15  13  13  15  15  12  11  12   9  10  10  10  14  16  17  18  17  13  10   6   9   9   9   9   9  10  10  19  36  58  72  87  73  52  62  71  70  69  62  58  55  58  61  68  70  68  67  68  66  68  68  70  71  70  68  66  53  45  68  78  56  40  20  10   8   8   6   6  11  19  18  16  17  19  16  16  14  14  14  13   7   8  10  13  10   9
  14  14  14  16  13  12  14  12  12  14  13  12  11  10   8  10  12  11   9  12  14  18  16  14  14   8   7   9   9   9   9   8   9  14  30  48  61  71  83  82  55  62  68  68  66  63  61  57  57  60  65  64  66  66  64  65  66  70  70  70  62  54  55  84  75  61  47  27  12   9   8   6   5   8  11  17  19  17  17  18  18  16  13  15  14  12   6   8  10  11   9   9
