P2
# Generated by OpenCV 3.4.0
92 112
255
 179 186 199 207 200 189 180 177 177 176 176 176 174 175 174 173 174 174 176 174 175 174 174 173 175 174 172 173 173 173 172 173 168 163 149 113  62  38  31  27  25  21  18  16  17  19  20  18  18  18  19  21  21  23  27  32  35  71  92 138 151 154 156 155 156 156 155 156 154 154 154 153 153 151 151 150 148 149 147 136 112 105 104 104 105 104 103 101 102 102 101 102
 185 201 238 246 243 220 196 185 181 178 178 177 176 177 176 176 176 176 177 177 178 176 175 174 174 174 175 175 174 174 173 171 149  95  56  38  28  24  20  18  17  16  15  15  14  17  14  16  16  16  16  16  16  17  16  18  21  25  26  48  70 115 148 156 158 156 155 157 155 156 154 154 155 154 152 152 150 149 147 140 117 105 105 104 105 103 104 102 102 103 102 101
 187 222 251 253 253 244 222 198 185 183 180 181 180 179 178 175 176 177 178 179 178 177 178 178 177 177 177 175 175 171 156 102  55  32  28  22  21  18  16  15  14  13  11  13  13  14  15  14  13  12  12  14  15  16  13  16  16  17  18  23  30  40  73 112 140 152 157 157 160 156 157 156 153 154 154 153 151 152 149 145 121 108 106 104 103 104 102 100 103 102 101 103
 191 230 252 253 253 251 240 216 193 184 184 181 181 180 179 178 179 178 179 179 176 178 179 177 179 178 176 175 169 142  72  44  28  20  19  18  18  15  14  12  12  12  10  12  13  14  12  12  13  10  12  11  12  13  11  11  13  14  15  16  19  23  29  42  67 118 154 156 158 158 157 156 156 155 154 155 153 153 149 143 124 109 106 104 107 104 103 102 104 102 101 102
 191 227 251 253 253 252 242 221 197 185 183 181 182 180 179 179 178 178 179 179 178 180 180 179 178 178 176 169 134  72  37  27  20  16  16  14  14  12  12  12  12  12  13  11  13  15  13  14  13  12  12  10  11  12  10  11  12  13  14  13  16  16  18  24  25  46 105 147 157 158 155 155 157 156 154 153 154 151 150 147 131 112 109 104 105 105 104 105 104 102 104 100
 189 214 246 253 253 250 239 216 198 189 184 183 182 180 179 181 181 180 180 179 180 178 178 178 176 176 166 124  54  32  21  19  18  14  14  12  12  11  12  13  12  14  14  15  15  16  15  15  18  16  16  13  10  11  12  11   9  10  11  12  14  14  14  16  16  26  37  98 153 156 155 156 157 157 154 154 154 154 151 149 136 112 108 104 106 105 103 105 104 102 102 102
 192 203 230 247 248 242 230 207 193 189 188 185 184 183 182 182 182 182 181 182 182 180 180 180 176 157  80  42  34  23  19  16  15  15  13  12  12  12  13  13  14  14  14  16  18  18  16  17  18  16  16  14  12  10  11  11  10  11  11  11  11  11  13  15  16  16  21  38 112 153 155 155 157 156 154 153 153 154 151 150 141 115 110 107 107 106 103 104 103 104 103 102
 190 197 216 236 236 230 215 200 191 189 186 185 185 186 183 184 183 184 182 183 182 183 181 181 162  77  42  29  22  17  17  15  12  12  12  13  12  14  14  14  15  17  16  17  19  17  19  17  18  17  17  16  14  12  12  11  10  12  10  11  10  12  11  13  14  13  16  24  55 140 157 157 158 159 159 158 157 155 155 153 146 118 110 104 106 108 105 103 103 103 104 103
 189 195 207 226 220 211 205 196 190 189 188 188 188 185 186 185 185 185 184 184 183 183 182 170  88  43  33  24  18  16  15  14  14  13  12  13  14  13  16  16  14  15  16  17  16  17  17  15  17  16  16  17  15  15  15  13  12  12  11  13  12  13  13  14  13  12  15  19  28  81 153 160 160 159 160 159 159 159 156 155 149 121 109 106 106 107 105 105 105 104 106 104
 192 197 208 221 212 201 200 193 190 192 192 191 189 189 188 191 190 188 188 187 185 188 181 106  44  32  26  19  17  13  16  17  15  13  15  16  15  15  14  15  15  17  16  17  17  17  17  16  17  17  16  16  14  15  18  14  13  12  12  12  11  12  12  13  13  13  15  16  21  35 115 157 161 161 160 160 159 159 157 155 154 127 111 107 108 108 107 106 106 105 106 102
 192 195 208 223 223 204 198 194 192 192 193 192 192 193 192 192 191 191 189 188 187 186 169  68  35  26  24  19  17  16  17  15  14  15  16  15  15  15  13  15  16  17  16  17  18  18  19  16  16  15  16  17  14  14  18  15  15  15  14  15  12  12  11  12  14  12  15  14  17  25  45 142 161 162 162 162 162 159 159 158 155 134 112 109 107 109 108 104 106 106 103 104
 194 197 203 223 244 209 199 196 195 194 193 192 192 193 194 194 192 192 191 191 189 181  88  40  30  26  21  20  17  15  17  16  15  16  16  15  17  14  14  15  17  18  15  15  18  19  18  17  17  16  16  16  13  14  16  14  15  15  15  17  16  14  12  14  14  13  14  14  15  19  30  81 156 162 164 165 164 162 162 160 158 138 116 111 107 106 107 104 106 105 107 104
 196 196 198 212 227 211 202 198 198 195 197 196 195 195 197 196 195 192 192 191 191 141  53  37  29  25  20  21  17  16  17  19  17  15  15  16  16  16  16  16  20  21  18  20  23  22  22  19  18  16  16  16  14  16  15  14  15  16  14  15  15  14  13  13  14  15  16  12  14  17  21  33 114 161 166 164 163 161 161 161 158 145 116 110 108 108 108 109 108 105 105 103
 195 196 199 211 229 214 204 201 197 198 197 198 198 198 200 201 201 199 198 194 186  80  45  34  28  26  25  21  18  18  20  22  18  16  16  15  16  16  16  17  20  19  17  20  26  22  18  16  21  17  16  17  14  15  16  16  13  15  15  16  16  16  14  16  16  15  14  13  15  17  17  28  47 140 164 164 164 162 164 160 158 150 122 111 109 109 109 107 107 105 105 104
 195 195 199 211 231 214 203 201 199 200 199 199 199 199 202 202 199 198 196 195 146  52  43  35  33  30  29  25  22  22  22  22  18  19  16  16  16  15  16  18  22  19  18  21  25  22  19  19  20  18  18  16  16  15  17  19  15  16  17  15  16  16  16  17  17  16  15  16  16  17  16  25  32  75 158 164 164 165 162 162 160 152 125 112 111 108 109 109 109 104 105 106
 194 197 200 212 230 215 202 200 199 200 200 201 201 200 199 199 199 197 197 192  98  56  44  38  37  33  31  28  25  24  22  22  21  16  16  17  17  16  17  20  23  23  20  22  26  23  22  20  18  18  16  18  17  17  18  18  16  16  15  16  17  18  18  21  18  18  17  19  17  17  19  22  27  34 126 163 166 166 167 164 162 158 130 115 112 109 110 107 109 108 108 105
 195 197 202 209 230 215 203 202 201 200 200 202 202 200 198 200 200 198 198 181  73  55  49  45  44  39  37  35  30  24  25  22  21  20  16  16  17  18  18  20  24  23  22  24  26  21  22  21  18  18  19  16  15  17  16  17  18  16  14  16  19  19  19  22  21  23  21  21  20  21  22  22  25  32  64 157 167 168 167 165 162 159 136 112 110 109 107 108 109 109 109 106
 197 199 202 206 220 217 206 202 203 203 202 202 202 200 200 199 199 199 198 137  70  60  49  49  53  45  42  36  31  27  23  23  24  19  16  17  19  19  22  23  23  26  23  24  20  21  21  22  20  19  20  17  15  16  15  17  16  16  16  16  19  20  21  22  22  25  23  22  24  22  23  23  24  30  40 111 165 168 166 167 164 162 141 114 110 110 110 109 107 106 109 106
 200 201 201 204 208 219 213 205 204 204 203 202 202 203 200 200 200 199 189  93  68  56  47  44  44  47  45  41  33  29  25  24  23  19  19  18  20  22  24  26  24  24  22  25  23  22  22  23  20  18  17  18  17  20  17  16  17  18  18  19  22  21  21  24  26  27  27  25  26  28  27  28  26  28  36  65 152 167 169 168 166 162 148 118 113 111 109 110 108 108 108 108
 200 200 200 202 208 222 218 209 206 203 204 202 202 202 201 199 201 200 158  76  66  58  49  46  50  52  48  41  34  33  29  24  19  19  18  19  21  22  24  24  24  24  26  28  28  23  22  23  23  22  21  20  18  17  16  17  20  20  19  21  21  22  22  27  28  28  31  31  34  34  34  36  34  30  38  46 104 165 168 168 168 167 152 121 115 110 109 110 110 109 110 108
 198 201 201 202 205 218 218 208 205 203 203 202 201 202 202 201 200 198 120  73  61  53  53  53  57  56  55  47  39  31  26  25  22  22  21  22  21  23  24  25  25  25  24  24  25  23  20  22  22  23  20  19  18  16  18  19  21  21  21  23  23  24  23  27  29  34  39  38  42  43  41  41  41  37  39  44  66 158 169 169 169 167 157 125 115 111 110 110 108 108 111 109
 198 198 200 201 204 212 215 205 203 202 201 200 200 202 201 200 199 188  86  68  61  56  59  56  60  59  62  54  46  36  29  24  23  22  20  22  21  25  27  29  28  24  23  25  24  22  21  23  22  20  21  20  17  16  18  18  20  22  21  23  26  27  27  32  38  39  45  46  50  52  48  49  48  43  41  43  55 140 166 170 168 166 158 130 117 111 110 110 108 109 109 107
 198 200 199 199 202 208 211 203 202 201 200 200 199 199 199 200 196 160  75  67  60  60  60  55  53  51  51  56  54  44  34  31  25  23  22  24  24  27  30  30  27  26  26  24  26  23  19  21  24  20  20  22  21  19  20  20  21  21  23  26  30  32  31  39  45  50  55  60  59  62  55  50  48  45  44  46  54 111 164 168 170 165 158 135 118 112 111 111 109 110 108 108
 197 200 198 197 199 205 210 203 202 200 200 199 201 201 199 198 196 134  67  59  62  63  60  56  48  46  48  49  51  50  44  34  28  23  25  26  28  29  31  28  26  29  27  27  25  23  22  23  23  22  21  22  20  22  22  23  23  25  26  29  35  43  42  46  55  62  65  62  64  64  59  52  47  47  45  47  45  91 163 170 168 166 161 141 116 110 112 112 110 110 110 109
 197 199 199 199 199 205 209 204 200 202 198 199 199 201 200 200 195 110  62  58  61  63  57  53  48  49  48  47  42  44  43  36  32  29  29  29  28  31  33  29  28  29  28  30  27  23  25  25  24  24  22  21  22  22  24  24  25  27  30  38  44  54  56  59  66  74  70  70  65  67  64  51  48  47  46  43  40  68 158 169 168 168 164 143 116 114 114 111 110 111 110 108
 196 196 196 197 198 204 207 202 200 201 198 199 199 200 201 200 192  93  60  57  64  67  62  57  54  55  52  47  45  46  47  46  43  38  34  36  37  40  38  36  31  28  30  34  33  25  26  27  26  24  24  26  26  27  28  27  30  33  37  51  64  73  72  71  72  72  72  73  74  71  67  58  48  45  43  41  40  50 147 167 169 166 166 147 121 112 111 109 110 109 110 110
 196 198 197 197 199 204 207 203 200 200 200 198 200 200 200 198 181  70  57  58  66  71  70  68  65  62  61  58  61  56  56  57  57  52  50  47  46  46  48  42  34  30  30  34  42  37  31  30  28  28  28  28  28  30  32  34  40  47  57  69  82  88  84  83  82  80  79  77  78  77  74  67  52  46  44  42  39  47 123 165 167 166 164 154 124 114 110 110 111 109 109 109
 194 195 195 195 198 199 203 201 199 201 199 199 201 199 199 197 162  65  56  60  73  78  76  72  73  72  74  76  76  69  70  73  72  68  64  58  59  58  57  55  45  34  35  34  42  41  38  33  34  33  39  36  37  43  45  50  58  64  73  84  94  99  97  96  93  91  90  87  86  82  80  72  58  48  43  40  40  46 105 163 166 165 164 157 128 115 111 111 110 110 110 110
 195 195 195 194 196 198 200 204 200 200 197 197 197 196 196 193 128  66  57  64  75  82  82  79  79  81  84  85  84  82  81  84  83  78  72  68  68  65  66  64  56  50  46  49  46  46  48  47  44  45  47  50  50  58  65  69  75  82  86  91  99 108 106 106 103 102 101  98  94  87  82  74  61  49  44  40  40  43 103 160 165 166 164 158 130 117 111 112 110 110 111 111
 194 195 193 196 196 196 199 203 202 198 198 195 197 197 197 191 107  61  58  65  76  85  86  87  81  86  90  90  86  90  93  91  86  81  81  77  75  70  75  70  66  64  61  60  57  58  60  60  61  60  61  63  63  68  76  81  86  92  99 100 106 113 113 115 110 106 109 108 101  94  88  80  67  53  45  42  40  45  92 160 165 166 165 160 132 118 115 113 111 109 110 110
 194 193 194 197 196 197 197 200 201 199 196 194 197 197 197 186  83  55  55  66  81  89  91  92  93  92  96  95  95  99  99  96  90  85  85  86  81  78  82  74  74  70  71  68  71  67  68  68  69  73  71  71  70  74  81  89  92  99 103 110 116 119 115 119 118 114 116 115 112 101  92  84  72  55  48  44  41  46  91 161 167 165 165 160 137 118 113 112 112 109 110 109
 192 193 194 194 195 195 196 198 198 198 195 198 198 196 194 174  70  54  55  68  85  93  98  99  96 100 100  97 101 102 104  99  93  86  91  92  87  81  85  79  78  76  74  74  76  75  77  78  77  80  77  76  76  81  90  96  99 102 111 116 121 124 120 126 123 120 118 120 116 108  96  85  72  62  51  46  42  45  89 161 166 165 164 163 145 117 114 111 111 110 110 108
 192 193 193 193 193 196 196 198 198 199 198 197 197 195 193 169  70  54  56  75  91 100 101 101 100 100 101 101 105 105 102 100  94  93  97  96  92  86  84  81  79  79  79  80  79  78  80  83  84  84  84  83  79  87  97 104 104 108 113 117 122 125 126 127 123 120 121 120 122 116 105  89  77  63  55  49  45  45  88 160 164 165 164 162 145 121 116 114 113 110 111 109
 193 194 194 196 194 196 196 198 201 202 198 197 196 196 192 150  62  52  58  79  94 101 102 100 101 101 105 103 105 103 101  98  96  98 100  95  93  90  89  84  81  84  81  83  84  84  86  85  86  88  88  88  85  91 101 105 107 113 115 119 123 124 125 124 121 122 123 123 121 116 109  97  83  67  58  51  49  47  92 161 166 166 166 164 153 123 115 116 114 109 110 110
 193 196 196 197 197 198 198 198 202 202 199 196 198 197 195 150  60  54  61  80  93  98 100 100 100 102 105 103 102  99  99  98  98 102 101  97  97  95  92  90  86  85  84  86  87  88  89  91  90  91  94  95  91  97 106 108 110 112 115 120 122 124 123 123 122 122 122 120 120 115 114 101  83  72  63  55  51  49  96 160 168 168 167 165 156 126 117 114 110 111 109 109
 196 198 198 197 198 198 199 200 203 205 200 199 199 198 197 155  63  53  66  82  94 100 101  99 103 104 104 105 103 101  97  96 101 102 102 100 100  98  97  93  87  87  86  88  92  95  94  98  94  97  99 100  97  98 104 107 112 112 114 118 118 119 122 120 119 119 118 116 117 115 114 102  85  75  63  59  53  48  92 160 168 169 168 166 160 131 118 113 112 113 111 111
 197 197 197 197 198 198 200 201 202 204 199 199 199 199 197 157  63  54  68  82  92  97  99  98  98  99 101 103 101 100  98 101 104 106 106 103  98  98  97  95  92  90  91  95  98  98  98 100 100 102 100 103  98  98 104 107 111 111 113 116 117 119 118 116 115 115 116 116 115 114 110 105  90  78  64  59  52  49  84 162 170 169 168 167 162 135 118 116 115 112 110 112
 197 198 198 197 197 197 200 198 201 203 200 199 200 198 195 173  68  55  66  81  92  96  97  98  96  98  99 100  99  98 100 101 101 104 101 100 101 100  99  97  93  92  92  96 101 102 101 102 103 103 104 103  99  99 101 105 108 108 112 112 113 117 116 112 113 116 114 114 113 114 111 106  92  80  65  58  48  46  75 161 168 168 167 167 164 138 120 113 113 111 110 110
 198 199 198 199 199 199 196 199 202 199 202 201 199 197 195 176  67  57  67  81  92  95  92  95  98  96  98  97  96  97  99 100 100 100 103 101 101 102 100 100  96  94  94  96 104 105 106 105 107 107 106 104 104 101 102 104 103 106 108 109 110 113 111 111 113 114 112 111 113 114 112 106  95  81  68  57  50  47  69 159 168 170 168 167 165 144 120 115 112 114 110 109
 199 198 199 198 200 199 199 201 203 202 202 202 200 199 198 185  74  57  70  84  93  91  90  92  96  95  97  95  93  96  98  98 100 102 100  99 100 105 103 102 101  97  95  98 103 105 107 110 114 111 107 108 105 104 104 106 106 106 108 110 108 112 109 112 112 113 115 114 115 114 110 108  94  80  65  54  44  45  68 158 167 169 169 167 164 147 122 117 112 112 111 112
 201 198 198 200 200 200 200 202 206 203 203 201 200 199 198 191  99  58  70  84  94  91  89  92  93  92  92  93  92  95  98  98  98 100 101  99 102 102 104 100  99  98  96  99 104 107 108 114 114 115 110 109 106 106 104 106 108 109 109 109 111 113 111 112 113 114 111 112 112 114 110 105  95  81  64  50  42  44  81 161 171 170 170 171 165 153 124 117 114 112 109 111
 199 200 200 201 201 201 203 202 206 204 202 202 202 201 201 196 127  62  73  85  91  90  88  89  91  90  89  90  94  93  95  98  98  97  99 101 104 100 104 104  98  95  98 103 102 105 106 111 113 113 112 113 112 110 108 107 109 109 111 108 110 112 109 112 112 111 113 110 111 109 107 104  94  82  67  48  41  44  82 162 172 171 169 168 167 159 127 117 116 114 113 110
 201 202 202 204 204 203 204 203 205 205 204 203 202 202 202 199 157  67  80  87  88  88  86  86  86  87  86  87  90  93  96  98  98  98  99 100 103 104 103 102 101  98 100 101 103 103 103 108 110 102 110 113 115 114 111 112 110 112 113 111 110 111 111 111 111 110 113 112 109 107 106 100  96  90  73  49  43  45  78 166 171 172 171 169 167 163 133 118 114 114 113 110
 202 202 204 204 204 205 205 204 204 204 204 206 204 203 204 203 185  75  82  88  87  87  88  85  85  84  87  87  89  95  96  97  98  98  98 100 101 102 105 103 105 101 100 102 100 101 102 106 106 104 111 116 115 113 113 116 115 114 116 115 115 114 114 111 110 112 112 111 111 109 103  96  96  90  73  47  41  46  92 166 173 172 173 170 168 164 134 119 115 112 112 111
 204 204 204 206 206 205 205 205 207 204 203 203 207 206 206 205 195  93  86  91  86  86  86  85  85  85  86  90  91  93  94  98  98 102 101 100 100 104 105 105 101 102 101 100 102 101 103 106 109 110 115 116 117 118 120 118 119 120 119 116 119 116 116 114 113 113 112 108 105 104 100  98  96  87  72  48  42  52 116 169 173 173 173 172 170 167 144 120 115 113 113 112
 203 205 207 209 208 206 205 206 208 208 207 207 205 205 205 205 202 130  89  91  86  86  84  84  86  90  91  92  93  95  97 100  99 101 102 104 105 105 105 106 106 106 104 100 102 102 103 106 111 115 117 116 117 120 120 119 121 125 124 120 118 117 116 115 114 113 111 108 104  98  94  92  91  88  74  46  42  54 143 173 174 174 174 174 169 168 148 123 116 113 114 113
 204 205 208 209 208 208 206 207 207 208 208 207 208 206 207 206 204 169  88  91  86  83  85  83  86  90  93  92  92  95  97 103 101 103 105 106 107 108 107 106 107 105 105 104 104 107 108 108 111 113 114 118 117 120 120 119 122 124 123 124 121 121 119 117 116 114 110 106 100  94  91  89  86  86  74  48  45  70 159 168 163 164 170 174 173 169 153 124 114 112 113 111
 205 207 208 211 208 207 207 206 208 209 208 210 209 208 207 203 194 186  88  92  85  82  80  82  84  89  95  95  96  98 102 105 108 106 107 108 109 111 110 109 107 107 106 107 107 108 108 109 109 113 112 118 117 120 120 118 120 123 125 121 121 120 120 121 119 116 112 107 100  93  88  87  84  84  73  50  47 103 140 126 128 128 158 170 172 171 159 126 117 114 112 111
 208 208 209 208 209 210 207 207 206 208 208 210 208 208 204 162 135 129  89  93  84  79  78  81  85  89  95  98  96  96 102 105 106 106 106 109 106 108 109 108 108 111 110 111 107 106 108 107 108 114 114 117 118 120 119 121 118 119 118 120 118 120 118 120 118 116 114 106  98  95  88  85  82  84  74  48  47  75  97 116 113 110 128 168 173 170 161 128 117 113 112 115
 207 207 210 210 209 208 210 208 210 210 209 208 209 209 204 127 111 102  80  91  82  81  78  80  82  87  91  98  97 102 102 105 105 104 104 106 106 106 104 107 109 112 111 110 108 109 108 102 106 109 114 116 115 119 116 118 113 113 113 114 113 112 110 109 108 108  99  88  83  87  86  81  79  83  76  51  59  80  91  98  85  78 134 169 172 172 165 134 119 112 113 113
 208 208 210 211 210 210 210 209 211 210 209 210 209 210 203 126  90  85  79  88  83  77  78  73  71  82  84  89  90  93  94  96  96  94  98 102 100 102 105 104 107 108 111 111 108 107 108 106 107 106 112 110 108 110 110 109 107 105 104 105 104  98  95  95  90  88  77  69  66  66  62  69  76  82  75  54  73  84  85  82  70  79 152 171 173 174 167 138 121 114 114 113
 210 211 212 212 212 212 211 209 210 210 211 211 212 211 205 139  77  75  75  87  86  78  67  55  56  62  69  75  77  81  80  83  86  88  90  90  90  92  98 103 105 106 109 109 106 105 104 103 105 104 105 103 100  98  97  97  95  93  90  91  88  81  76  72  66  58  56  53  49  44  45  65  80  83  76  59  81  86  89  78  66  94 166 174 175 173 172 144 121 114 114 112
 209 210 213 212 212 210 211 211 211 211 211 211 213 212 208 148  75  71  75  88  86  62  48  42  41  44  52  57  60  66  65  67  75  77  79  84  83  84  90  93  98 100 104 106 103 100 102 103 102 104 100  98  89  89  87  81  78  77  71  69  63  59  53  50  48  47  47  48  45  48  57  74  81  84  79  61  82  93  93  75  66 110 172 174 176 175 172 150 123 115 113 112
 208 209 212 213 212 210 211 212 212 211 211 211 210 211 210 172  82  71  78  90  87  66  47  41  38  37  38  40  42  43  46  50  60  63  65  71  75  76  82  88  88  94  98 102  99  96  97  98  99  98  95  89  84  81  73  64  59  54  45  41  37  35  33  33  36  36  37  47  53  59  64  68  84  87  80  64  90  96  99  69  72 132 173 175 175 175 172 156 123 115 114 111
 208 208 208 210 210 210 210 210 210 211 210 210 209 210 209 195  97  71  81  88  88  73  57  48  40  33  30  29  30  30  28  30  35  42  44  53  60  69  75  83  84  87  91  94  90  89  91  92  90  90  89  84  74  67  59  47  40  35  31  29  28  25  25  27  30  30  32  41  52  63  63  64  80  86  83  55  74  86  91  66  83 153 175 175 175 174 171 159 127 117 116 114
 206 206 207 208 207 207 209 207 207 208 208 208 207 207 207 199 140  77  81  82  88  69  59  49  46  38  32  29  28  27  25  25  27  27  30  35  41  53  61  70  77  83  84  87  84  84  86  87  86  84  83  77  68  56  48  39  30  29  28  26  24  30  34  41  46  46  50  53  55  59  59  64  79  89  84  53  58  74  87  69 106 170 174 175 174 173 172 162 127 117 114 114
 205 207 207 207 209 207 206 206 209 208 207 208 208 207 207 205 192 101  82  79  88  72  60  51  46  41  37  37  36  35  32  30  27  26  25  27  32  40  49  61  68  76  79  81  80  82  83  83  82  80  78  73  63  52  43  35  31  36  40  44  52  55  58  65  65  63  65  66  66  66  69  79  86  89  86  56  54  76  89  81 133 171 176 175 175 173 171 164 130 117 115 110
 206 204 206 207 208 206 206 207 206 208 208 208 210 207 208 206 203 172  90  82  92  82  69  60  54  52  52  51  51  50  50  50  48  43  35  32  30  34  44  54  63  69  74  75  78  80  80  81  78  78  76  70  59  51  44  41  44  46  50  53  62  64  70  73  74  73  73  72  67  69  76  86  90  91  89  62  58  80  86  92 159 173 174 174 172 173 170 166 137 118 113 111
 205 204 203 206 207 204 206 208 206 207 206 207 207 205 206 206 206 198 123  85  89  86  75  65  57  53  54  55  56  57  58  58  56  50  46  41  40  36  38  48  58  65  68  70  72  76  80  83  79  79  77  72  62  49  46  42  42  46  50  54  63  69  72  76  78  79  76  71  67  68  76  87  91  96  90  69  67  87  91 116 168 173 174 171 172 170 170 167 143 120 113 114
 205 204 203 202 204 203 204 204 205 206 205 207 206 206 205 205 204 202 173  91  89  86  76  65  58  54  57  58  59  59  59  61  59  53  49  44  41  39  38  43  51  61  65  67  71  74  75  80  80  75  72  67  55  46  42  40  42  47  50  57  62  67  68  73  75  76  77  69  64  67  73  85  93  98  92  72  72  88  93 140 170 173 173 171 171 172 170 166 146 119 113 110
 204 205 203 204 204 204 205 205 204 205 205 205 205 204 204 204 204 203 195 118  91  88  77  64  57  54  59  59  60  59  62  61  58  52  47  42  39  37  37  40  43  50  59  62  66  73  78  81  81  74  69  62  55  47  40  37  41  44  47  51  59  66  70  70  77  79  75  70  59  68  80  88  98 100  94  73  75  90 103 161 172 172 172 172 173 170 170 167 151 121 112 110
 202 203 202 203 202 203 202 204 203 203 203 204 204 204 204 204 203 203 200 166  94  90  82  70  62  55  58  56  56  56  58  55  53  48  43  39  37  34  34  38  43  45  56  61  69  76  80  84  83  76  67  61  61  52  37  32  35  39  42  45  52  57  60  67  69  70  67  60  68  80  89  96  99 102  93  74  87  91 123 170 172 172 171 171 171 168 166 167 156 123 111 111
 200 202 202 201 201 200 202 202 202 202 204 204 204 202 202 202 204 203 202 192 119  94  88  81  77  66  53  46  51  52  51  52  48  40  38  39  35  28  28  33  44  45  51  62  73  81  85  87  86  79  68  62  65  53  34  28  29  32  28  33  38  45  52  55  56  55  44  55  76  88  97  98 100 100  90  78  89  95 149 170 171 171 170 168 169 167 167 166 157 124 113 110
 199 199 200 200 200 200 200 202 201 202 200 200 202 201 200 201 202 202 201 197 169 100  91  84  84  76  60  37  35  34  31  28  25  21  26  33  34  29  30  36  41  44  48  59  78  88  92  95  89  75  65  63  61  52  43  37  31  30  25  23  24  27  32  39  40  39  48  65  88  97 101  99 100  98  88  85  91 117 164 171 170 169 169 168 169 166 165 163 158 129 115 112
 198 198 198 197 197 198 198 200 199 200 200 198 199 202 199 200 201 198 201 198 191 111  90  88  87  83  64  49  38  31  29  31  27  27  32  32  31  30  31  39  43  45  51  64  84 100 105 105  91  77  66  62  59  52  46  40  32  31  31  31  30  31  33  36  39  47  59  78  96  99 102 101 100  95  82  85  98 146 167 170 170 170 170 168 167 167 165 162 159 132 115 111
 197 197 198 196 197 196 196 196 198 197 197 198 198 199 198 200 199 200 198 196 192 129  91  88  89  88  81  68  53  40  36  34  34  30  30  31  32  32  38  41  42  49  54  70  93 115 121 118 103  83  68  62  59  54  51  48  43  38  34  36  35  37  41  45  53  62  76  91 103 101 103 101 100  95  81  88 120 163 167 170 169 169 168 167 166 166 165 164 160 136 114 110
 196 194 198 197 197 197 197 198 198 198 198 198 199 198 198 200 199 199 198 198 194 139  93  87  89  89  89  81  71  61  54  46  42  38  38  40  40  41  43  43  47  53  62  80 108 127 137 132 116  95  74  68  66  63  62  60  57  53  50  51  50  50  56  63  72  81  90 100 105 104 102 101 102  94  81  95 145 167 171 169 168 168 168 169 165 165 164 163 159 140 118 110
 196 196 196 198 197 198 199 196 196 198 198 198 199 199 200 200 200 199 199 198 195 154  97  90  89  87  90  87  82  75  68  64  56  50  50  50  49  48  48  50  54  60  71  91 119 131 139 135 128 108  85  74  73  72  69  67  67  65  66  66  65  70  74  82  88  95 100 101 104 104 102  99  99  93  81 132 165 170 172 171 170 167 168 168 168 166 164 163 162 146 119 111
 195 197 198 198 198 198 199 200 199 197 199 198 199 199 199 200 202 201 200 199 196 160  97  88  87  86  91  90  87  84  80  73  71  66  63  62  59  57  60  66  67  70  80 102 122 125 131 133 128 112  96  83  78  79  83  80  79  81  78  78  81  85  90  91  97  98 102 102 104 105 102 101  97  90 122 164 170 173 173 172 170 169 169 167 167 165 164 164 164 151 121 113
 198 198 198 200 201 198 198 199 199 199 199 199 200 200 199 199 200 200 199 199 196 168 100  89  89  88  88  88  87  85  83  81  79  72  70  69  67  69  69  70  71  74  89 105 121 124 128 128 129 117 100  91  85  87  91  90  90  89  88  86  90  94  95  95  97 100  99 100 102 103 102 100  97  99 154 170 171 172 172 172 170 170 170 168 168 167 166 165 163 153 123 110
 196 198 198 198 198 197 196 196 198 198 198 199 197 199 198 198 199 198 198 197 195 180 102  92  88  86  87  85  85  85  82  79  78  76  76  76  75  77  77  75  74  79  89 103 117 124 128 126 127 116 101  95  90  92  90  93  92  90  91  94  95  96  96  96  97  99 100 100 101  99  99  99  97 107 167 171 169 171 171 169 169 168 168 167 166 164 165 162 164 158 127 112
 194 195 197 197 196 198 197 196 197 197 197 198 197 198 199 197 196 197 197 196 196 187 110  94  88  87  86  85  85  84  80  79  79  81  82  79  80  76  76  76  77  85  93 103 116 123 126 127 130 117 101  97  94  92  92  93  92  92  95  97  96  96  97 100 101  98  99 100  99 100  99  97  95 118 164 170 168 169 170 170 169 166 168 167 167 166 164 163 159 156 131 111
 195 194 197 195 195 195 196 197 195 197 196 197 196 198 200 197 196 197 198 197 196 191 134  94  87  87  88  88  87  85  83  83  82  83  82  77  79  78  74  76  76  85  96 106 115 124 126 127 128 116 101  96  93  92  93  90  89  91  91  97  97 100 100 102 102 102  99  99 101 100  98  95  92 127 162 169 168 169 168 167 167 166 167 167 165 166 162 161 160 156 134 112
 196 195 198 195 195 195 195 197 195 196 197 198 200 197 198 198 196 197 199 197 197 194 160  99  90  88  89  86  86  86  84  84  86  83  83  83  80  75  74  77  81  89 102 107 115 123 130 129 127 118 105  98  93  91  90  89  90  90  90  95  96 100  99 102 102 104 102 101 101 102  98  94  79  61  90 145 165 169 169 169 169 168 167 166 166 164 162 161 160 158 139 115
 195 194 196 195 194 197 197 197 199 198 198 198 199 196 198 198 197 197 197 196 198 195 185 108  93  89  88  88  88  86  84  85  84  83  83  83  79  75  76  76  81  91 103 110 117 127 133 132 129 121 113 103  93  87  85  86  88  89  89  91  92  95  95 100 102 104 103 101 104 101  96  86  63  33  34  32  68 137 165 167 166 167 167 165 165 165 163 162 161 158 143 116
 196 196 196 196 198 198 199 198 197 198 198 196 198 198 198 198 199 198 197 198 197 195 191 132  97  91  86  86  88  86  86  86  83  84  83  82  79  76  73  73  78  94 110 114 119 129 135 136 132 126 121 106  89  85  83  82  82  86  87  90  91  94  94  99 101 103 102 101 102  98  92  79  51  22  21  23  25  32  76 151 166 169 168 167 165 165 164 163 166 160 148 117
 195 195 196 195 198 196 199 196 197 200 197 197 198 198 199 197 199 197 198 198 198 198 192 152  98  91  87  86  86  86  85  87  84  83  80  78  75  71  66  65  74  97 114 120 125 133 139 142 138 135 126 112  87  82  76  78  77  80  84  86  87  90  96  98  98  98  99  99  96  93  86  75  42  16  14  18  19  19  27  45 132 163 169 169 167 166 164 162 162 160 151 120
 197 198 197 196 197 196 195 196 197 199 198 199 199 200 201 197 198 198 198 199 199 199 196 181 103  91  88  86  83  87  88  87  86  83  81  74  72  68  64  63  78  98 121 131 134 138 140 142 146 143 134 120  98  86  74  76  76  76  79  84  87  88  92  95  96  98  98  99  96  89  79  66  33  12  12  13  18  15  15  20  33 107 162 166 164 166 163 164 164 160 154 123
 196 197 197 196 196 197 195 197 198 198 200 199 198 200 198 201 197 197 198 198 198 197 197 189 126  90  87  86  84  84  83  83  83  81  80  73  70  65  65  69  90 104 125 134 137 139 139 144 149 150 139 124 108  96  77  76  80  74  75  77  84  86  88  92  93  95  96  94  90  84  76  57  24  11  11  13  13  17  14  12  20  31  95 158 164 166 165 163 163 160 155 128
 197 195 197 195 194 197 197 197 197 199 199 198 198 199 198 198 198 198 197 199 197 196 194 158  87  84  85  85  85  82  79  79  78  78  73  68  69  69  66  76  97 110 123 131 138 137 140 140 145 146 140 126 113 101  83  79  82  77  77  76  82  85  89  90  91  93  90  87  85  82  69  44  16   9   9  10  10  13  14  12  13  21  28  98 159 163 165 162 162 162 158 133
 197 195 197 195 197 199 199 198 197 198 196 198 198 198 199 198 197 197 198 198 194 194 132  46  41  70  82  83  82  80  78  80  76  74  74  71  71  70  72  80 100 108 118 126 130 135 131 135 140 141 137 126 112 103  85  80  81  79  80  81  81  83  86  89  89  89  88  87  84  78  62  31  12   8   8   8  10  11  13  13  11  13  19  28 109 156 163 162 162 161 158 137
 196 196 195 195 196 198 198 197 198 198 196 196 197 198 198 198 197 197 198 196 192 146  46  32  26  43  76  80  78  77  75  74  73  71  71  73  73  73  72  76  94 102 109 117 123 127 124 128 131 133 133 121 106  90  81  82  82  83  83  83  81  81  83  87  91  89  88  85  79  72  50  18  10   8   6   8   9  11  12  12  11  10  12  17  36 117 161 161 162 162 159 142
 194 194 196 196 195 196 198 196 196 198 198 198 198 195 196 196 197 196 197 193 137  43  30  23  17  21  72  78  76  74  70  71  72  73  70  66  66  70  68  67  76  91  95 105 112 119 120 121 123 123 123 113  96  78  79  81  82  79  78  81  83  86  84  89  89  87  84  83  76  60  34  11   7   8   6   7   9  10  12  11  13  10  10  13  23  35 117 157 161 158 158 146
 192 195 197 196 196 196 198 196 196 195 196 197 196 196 196 194 196 197 193 165  53  31  22  17  13  17  50  74  76  72  75  73  69  69  58  57  56  55  54  53  56  70  86  94  99 103 107 111 113 113 110  98  72  58  68  68  64  67  65  66  73  83  88  88  86  85  84  81  68  49  24   9   7   7   7   6   8  11  12  12  14  10   9  11  17  25  38 136 159 160 158 150
 195 194 195 196 197 196 196 197 197 196 197 195 197 196 195 196 196 195 184  66  37  23  18  14  11  14  33  69  76  77  76  77  70  55  41  44  44  46  43  42  43  39  56  84  89  89  94  97 103 101  96  61  45  44  58  59  51  49  48  49  59  76  86  88  86  83  81  75  58  41  19   8   7   5   5   6   9  10  12  12  14  13  10   9  12  20  30  59 150 161 160 154
 196 193 193 194 194 195 196 195 198 196 196 196 196 197 193 194 195 191 130  42  28  20  17  12  11  12  20  55  74  75  75  75  67  46  39  36  39  43  42  38  37  34  30  51  80  82  83  86  90  86  55  37  35  40  46  46  44  43  41  41  44  66  80  84  83  81  77  65  48  40  21   9   6   6   6   7   7  11  12  15  16  13  10   9  11  16  24  34 100 158 161 155
 193 193 195 194 193 194 195 195 197 195 195 195 196 193 193 193 193 174  59  31  23  19  14  12  11  12  15  36  64  73  74  73  63  42  40  35  37  40  42  37  39  35  31  33  44  64  69  77  76  51  28  28  35  44  48  48  44  42  40  39  43  56  75  82  82  79  71  50  43  52  26  11   8   7   6   6   8  11  14  14  16  14  10   8   9  14  20  30  45 146 157 156
 193 191 190 190 192 193 191 191 192 193 191 191 192 191 190 189 186  76  40  28  23  17  13  11  11  11  11  19  49  69  71  70  56  49  46  39  40  44  47  47  46  43  37  34  30  34  40  48  40  33  28  29  41  46  53  51  50  46  44  43  47  56  69  79  80  77  63  45  42  62  36  11   6   6   5   5   9  12  15  12  13  16  11   8  10  12  18  25  30 110 147 148
 189 189 187 186 188 189 189 190 189 188 190 188 188 188 186 185 122  47  33  26  19  15  12  10  10  11  10  13  28  56  68  66  61  53  48  47  52  49  50  51  50  47  40  39  35  29  31  34  33  36  40  42  48  49  57  59  53  59  55  51  52  63  71  75  75  67  51  46  56  71  38  17   9   7   6   5   8  11  13  12  13  16  12   8   8  10  15  23  26  72 138 145
 186 187 186 185 185 188 188 188 186 188 186 186 186 186 184 180  64  37  29  24  19  15  11   9  10  10   9  10  19  36  57  65  62  56  55  56  58  56  51  49  46  45  46  50  51  49  52  49  52  51  50  55  56  56  56  58  62  69  65  65  62  66  71  74  69  57  50  50  65  72  44  21  10   7   5   4   8  12  12  13  13  14  13   9   8  10  14  20  22  38 127 135
 182 184 184 184 184 184 184 184 184 185 185 184 183 184 181 155  38  33  26  23  18  13  12  10  11  10  11  10  12  22  42  60  62  60  58  56  61  60  59  55  48  43  42  44  46  50  54  62  60  54  53  52  51  54  57  61  68  73  74  70  69  68  70  68  62  52  51  60  74  72  46  25  10   8   4   4   9  11  12  12  13  13  11   9   8  10  14  18  19  22  59  93
 174 176 174 173 173 173 170 170 169 167 167 164 161 160 156 106  33  32  21  19  16  12  11   9   9   9   9  10  10  14  30  46  57  56  53  58  62  60  58  56  52  48  47  47  45  44  42  47  51  48  51  57  58  56  60  66  69  74  73  68  67  68  70  64  54  53  59  70  78  70  48  25  12   7   4   5   9  11  11  10  10  12  10   8   8   9  12  18  19  19  24  29
 124 125 121 123 122 121 121 121 120 124 120 123 119 118 115  60  30  28  19  19  16  14  10  10  10   8  10   9  11  13  34  38  49  47  50  57  61  59  58  53  53  48  48  51  54  56  51  49  53  54  55  55  55  60  66  69  70  69  72  65  61  65  68  60  49  57  66  77  75  70  47  29  15   7   5   5   9  11  12  11  12  12  11   9   9   8  11  16  18  17  15  16
 111 112 109 111 112 113 114 113 114 114 112 111 109  95  50  33  26  23  20  18  12  12  10  10   9   9   9  10  10  14  40  35  40  45  50  50  53  58  60  57  50  47  42  44  45  49  51  53  48  48  46  51  56  61  63  67  70  65  60  58  59  64  59  50  50  60  72  80  76  72  45  27  15   8   5   5   8  11  12  13  12  12  10   9   8   7  10  15  15  13  14  15
 107 107 106 108 108 108 108 108 109 107 108 104  71  34  27  22  21  19  17  16  12  10   9  10  10  10  10  10  10  13  43  44  37  44  48  48  52  56  63  61  55  49  44  42  42  43  45  46  45  47  46  49  52  58  65  68  67  63  55  50  53  59  54  47  53  64  77  80  78  68  42  29  14   8   6   5   8  11  12  11  11  11  10   8   8   7  10  14  12  14  11  12
 105 105 105 107 106 106 104 104 106 104  93  47  35  23  18  19  20  20  16  13  12   8   9  10   8   8   9   9   9  16  42  51  40  33  38  46  50  54  61  64  63  62  53  47  40  34  31  31  29  34  41  51  59  65  69  71  68  60  52  49  47  47  45  45  57  70  78  79  78  68  40  29  15   6   4   5   8  10  10   9  11  11  10   9   6   7  10  11  11   9   8  11
 106 103 104 103 102 104 105 103 100  69  34  28  21  17  17  14  20  19  15  16  12   8   8   8   7   7   9  10   9  21  38  52  46  33  30  36  41  48  58  62  67  67  64  55  53  47  43  42  40  42  52  64  68  72  73  70  64  57  48  47  42  36  42  49  64  72  76  81  78  66  37  30  12   7   5   5   9  10  11  11  11  12  11   7   8   7  11  11  11   8   8   9
 102 101 103 103 102 100 101  86  43  29  25  21  19  15  17  11  17  17  14  16  13   8   8   9   7   7   8   8  10  28  37  52  53  40  28  29  34  42  48  54  59  64  64  56  55  52  48  44  47  49  54  66  69  73  64  61  53  47  43  41  36  32  40  56  67  73  77  81  74  61  35  31  11   6   5   5   8  10  12  10  12  11  12  10  10   8  12  13  11   8   8  10
 100 100 101 100 100  96  52  34  26  22  19  17  14  15  13  14  19  16  16  14  10   8   9   6   6   7   9   8  10  37  34  52  56  54  42  25  30  33  38  42  49  59  54  58  60  53  46  44  50  50  54  64  65  66  50  44  40  35  37  30  26  29  49  63  70  73  80  80  72  53  33  32   9   6   4   5   9  10  10   9  11  11  11   9   9   9  11  11  10   8   8   9
 102  98  98  96  69  37  27  20  19  16  16  16  16  15  12  13  16  12  15  14   9   7   7   7   7   7  10   8  10  33  39  52  58  56  56  37  24  29  33  34  35  48  49  50  58  53  49  48  52  52  51  56  58  52  36  33  30  27  28  22  27  41  58  67  70  74  77  74  67  50  38  30   8   5   4   6  10  12  11   9  11  11  11   8   8   8  10  11   7   9   9   9
  98  96  77  42  28  24  19  17  18  17  16  16  14  12  12  14  18  13  15  15  10   8   8   7   6   7   8   9  10  22  42  48  57  60  61  50  31  21  26  26  28  37  44  48  53  48  43  46  47  48  48  48  43  44  33  28  24  26  23  21  43  56  61  66  70  73  74  72  61  45  40  27   8   4   3   6  10  12  12  11  11  10  11   8   8   8  11  11   6   8  10   9
  90  52  32  26  20  18  18  17  16  17  15  14  13  12  13  13  15  15  15  14  11   8   7   7   6   6   9   8   9  15  42  44  55  57  60  56  43  21  19  26  27  30  35  42  46  41  38  40  40  43  42  39  33  32  26  22  20  22  21  41  58  61  62  69  73  72  71  68  59  45  42  18   8   5   3   5  10  11  12  12  11  10  11   9   6   7  10   9   5   8   9  10
  33  27  21  19  19  17  17  16  15  15  14  14  15  14  12  10  16  17  17  14  12   6   7   8   6   7   8   8   8  10  34  44  52  57  61  58  55  39  26  22  21  24  28  29  29  27  29  29  26  28  29  27  27  25  22  18  18  27  40  57  62  61  65  70  73  71  67  63  54  45  45  14   6   4   3   6  10  13  12  12  11  12  12   9   7   8  10   8   5   8   8   9
  22  18  18  15  16  17  14  16  12  12  13  14  14  13  12  10  14  15  16  13  10   8   7   8   7   6   6   7   7   8  19  53  45  56  60  58  58  55  46  25  18  19  20  19  18  17  16  16  14  15  16  18  16  17  20  25  37  52  57  61  63  63  66  74  72  67  64  60  51  58  41  11   5   4   4   6  11  14  11  10  12  13  13  10   8   9  11  10   7   6  10   9
  16  15  17  15  14  15  13  15  14  14  13  14  13  12  11   8  14  15  14  14  11   9   6   5   5   6   7   7   8   8  12  42  46  49  59  60  57  60  59  50  37  27  21  19  19  17  18  17  19  18  18  20  28  40  52  58  66  65  64  62  61  64  69  73  69  65  60  54  52  58  18   7   5   4   2   6  12  13  12  12  13  13  13  10   9  10  10   9   6   7   8   9
  16  17  15  13  13  12  12  15  15  14  14  13  12  11  10   9  11  14  15  14  12   9   6   6   6   5   7   7   7   8  10  20  62  47  53  59  60  59  62  60  52  43  41  40  40  37  39  42  44  46  49  50  58  64  66  64  61  60  60  61  62  68  70  70  65  60  56  50  61  42  12   5   5   3   3   6  12  12  13  12  13  13  13  11   9   9  10   9   6   8   7   6
  14  15  12  11  11  12  13  12  13  13  12  11  11  12  10   8   9  12  14  16  14  10   7   5   6   5   6   7   7   7   9  15  37  71  47  54  58  60  61  63  58  54  49  47  48  42  46  47  52  58  58  63  64  66  64  64  61  61  62  61  64  70  72  67  61  57  48  58  60  26   7   6   5   2   2   6  12  12  13  12  12  13  13  11  11   9   9   8   8   7   6   6
  11  11  13  14  14  13  12  12  10  11  14  12  12  10   9   8   9  13  12  14  12  11   8   5   5   6   7   7   6   6   8  11  25  54  72  44  51  58  60  62  66  59  54  49  49  48  47  47  48  53  57  64  64  65  65  58  59  61  59  62  65  69  70  65  59  50  50  68  46  18   6   5   5   3   3   7  11  13  12  12  15  16  15  11   8  10   9   8  10   7   6   7
  12  10  11  13  10  12  13  13  12  13  13  12  12  11   8   8   9  12  12  13  12  10   9   7   5   4   5   6   5   6   8   9  18  37  62  76  46  49  59  62  65  64  59  53  50  49  50  50  46  48  54  58  59  58  60  56  56  58  62  68  68  69  64  57  47  37  65  55  31  10   7   5   3   3   4   8  12  14  15  14  15  15  13  13   8   9   9   6  10   6   6   5
  12  13  12  12  12  12  11  12  12  15  13  12  11   9   7   8   8   9  13  12  14  11   9   9   5   4   6   6   6   7   6   8  14  28  49  66  82  51  47  55  64  67  63  59  56  51  53  52  50  48  47  53  52  53  57  58  57  62  66  69  70  68  60  46  36  60  61  44  17   6   5   4   3   4   5  10  12  14  13  13  13  13  12  12   9  10   8   7   7   9   5   6
  13  13  11  12  12  12  10  11  12  12  12  12   9   9   6   9   8  10  13  13  12  11   9   7   4   3   5   6   6   8   6   6   9  19  36  55  68  82  61  43  58  66  65  61  61  57  53  54  54  51  52  54  55  57  57  61  61  63  64  67  69  60  46  34  64  70  49  28  10   5   4   4   2   3   5  11  12  12  11  13  12  11  11  11   8   8   6   6   8   8   6   7
  12  11  12  10  11  11  11  10  11  12  12   9   8   7   6   7   9   9  11  11  12  11  10   7   4   3   4   7   6   5   6   7   9  17  32  48  59  67  80  75  50  55  63  64  61  57  56  57  57  57  59  57  58  62  60  56  62  61  62  62  55  45  43  73  71  56  37  16   7   5   4   2   2   3   5   9  11  11  12  14  13  11  11  11  11   8   5   6   8   9   8   5
