P2
# Generated by OpenCV 3.4.0
92 112
255
 185 193 200 204 199 193 189 185 184 184 181 181 182 181 182 181 181 181 182 182 181 183 182 181 180 182 180 179 180 181 181 182 179 180 180 179 178 179 178 179 179 180 179 177 177 176 176 178 176 172 170 174 175 174 173 174 172 172 172 172 170 170 168 167 166 164 165 165 162 161 161 160 160 159 159 157 155 155 152 141 116 109 109 107 106 108 106 107 102 103 105 104
 188 200 224 237 235 216 196 186 186 184 183 180 182 182 181 181 181 182 183 183 182 181 181 182 180 178 180 180 180 179 180 180 179 179 181 180 179 179 178 179 177 178 176 178 176 176 175 176 176 173 171 174 174 172 173 171 172 169 172 171 170 168 167 166 168 165 166 164 160 163 162 160 160 157 158 156 157 155 154 146 122 109 107 106 107 110 107 107 104 104 104 104
 189 213 246 253 251 243 218 197 188 184 183 182 184 184 182 179 181 181 182 182 182 180 181 180 180 180 181 180 180 178 181 180 181 180 178 177 180 178 178 179 178 178 176 177 178 177 176 177 175 172 169 171 172 172 171 172 174 172 170 170 170 169 168 168 165 167 166 164 164 162 159 160 158 159 157 157 157 156 154 149 128 111 108 108 108 109 105 106 104 102 104 103
 192 224 251 253 253 250 240 217 194 187 184 184 182 184 182 182 181 181 181 179 181 181 181 182 183 181 180 180 178 179 180 182 180 179 182 181 179 180 180 181 178 177 177 177 178 176 177 176 176 173 168 172 173 173 173 173 173 173 171 172 171 170 168 168 167 168 165 164 164 161 161 161 159 159 157 158 157 156 155 149 131 112 110 109 108 106 106 108 105 103 106 103
 191 224 251 253 253 253 243 226 202 188 185 184 183 184 184 182 182 181 182 181 182 181 183 181 181 182 182 181 180 180 179 181 181 181 181 179 180 180 181 178 177 178 178 176 178 176 176 176 175 174 168 173 172 174 174 173 174 171 170 171 170 168 168 167 167 168 165 164 163 162 162 161 161 160 157 157 156 155 155 151 135 111 110 107 106 107 108 108 105 104 103 102
 189 213 247 253 253 252 242 224 203 192 186 184 184 183 181 181 182 183 181 181 181 181 181 181 179 182 180 179 178 178 179 179 178 180 181 179 180 180 178 179 179 179 180 176 178 176 177 176 176 172 169 173 174 172 174 173 173 171 170 171 171 168 167 168 166 167 165 164 162 162 161 160 161 159 157 157 158 156 153 154 140 114 109 108 107 108 109 108 106 105 106 105
 189 203 234 248 252 245 236 212 197 191 188 183 183 182 183 182 183 180 182 181 180 180 178 181 180 181 181 178 179 176 176 174 177 177 178 178 179 180 180 181 181 179 179 177 177 177 176 176 176 173 170 174 175 173 172 172 171 172 170 171 170 169 167 165 165 164 164 166 164 161 161 158 160 158 158 157 158 158 153 152 145 116 110 106 106 109 108 107 105 107 106 106
 189 196 215 238 242 237 223 204 193 185 187 184 186 182 182 184 183 181 183 184 182 182 180 182 178 178 173 167 160 123 139 145 144 147 169 174 174 171 177 177 178 180 180 179 180 178 177 177 176 175 171 175 174 173 172 171 172 172 170 168 167 168 167 166 166 165 163 164 164 163 161 159 160 160 159 158 158 157 153 151 146 121 111 110 107 107 108 106 105 105 107 107
 184 191 203 224 222 214 204 193 187 184 185 181 183 183 183 183 182 182 182 182 182 180 174 170 137 108  90  64  49  46  45  47  41  48  66  82  82 113 146 163 169 173 176 177 178 179 176 176 175 175 170 174 174 174 173 173 170 173 170 170 171 170 169 168 167 167 165 166 163 164 164 163 160 160 157 158 159 158 155 153 149 126 113 110 110 110 108 107 108 104 104 105
 185 189 200 215 211 200 196 191 185 184 184 183 183 184 183 183 182 182 182 180 175 149 109  65  44  44  34  30  28  26  26  27  29  27  31  31  35  40  42  64  89 115 148 168 173 177 177 177 177 176 172 175 174 174 173 172 172 172 172 171 172 169 168 168 169 167 167 166 163 166 164 163 162 163 158 159 157 157 155 154 152 130 112 109 110 109 110 108 107 105 104 103
 188 192 198 213 213 199 194 190 187 188 186 186 186 184 184 183 183 183 178 160 107  55  36  31  28  26  26  24  23  21  23  22  23  21  24  22  21  25  26  30  38  45  58 109 158 172 174 177 177 175 167 174 176 176 174 173 176 173 172 171 172 169 170 170 171 169 169 168 166 168 165 162 164 163 159 160 158 157 156 156 152 134 113 109 112 111 109 107 107 108 108 105
 188 191 198 217 243 206 194 192 190 188 187 187 187 186 184 183 180 171 121  61  39  32  27  25  22  20  19  18  17  17  18  18  19  19  20  20  18  16  20  24  24  26  32  38  69 113 161 174 177 174 168 174 177 175 175 175 174 174 173 173 173 173 172 170 170 169 169 170 168 168 166 164 164 164 162 162 161 159 157 157 156 140 119 111 112 111 109 107 107 108 109 108
 187 190 194 207 232 209 196 194 190 190 189 189 188 188 185 174 112  56  40  33  27  24  20  21  18  16  19  17  16  16  17  15  17  16  19  16  17  17  18  18  18  20  23  26  32  41  66 120 161 172 172 175 176 176 176 176 175 175 175 173 173 173 174 171 171 172 170 172 170 169 168 165 164 166 164 162 162 162 159 159 156 146 120 114 112 109 108 107 107 108 107 108
 187 189 192 198 222 210 196 192 192 190 188 190 189 184 150  79  38  28  27  25  20  19  18  18  18  17  15  16  17  18  18  17  18  16  16  17  16  16  17  16  16  19  22  24  27  29  36  47  89 148 162 174 176 177 177 178 174 175 176 176 174 175 173 172 173 172 172 172 170 170 168 165 166 165 166 164 162 161 161 157 156 151 124 114 109 108 109 109 107 109 108 107
 186 188 191 197 224 212 196 192 191 188 190 186 167 107  50  36  27  23  20  18  19  19  18  17  16  18  16  17  18  17  18  17  19  17  18  15  14  17  17  17  19  17  19  20  24  25  28  32  44  61 101 160 174 176 176 176 175 177 176 175 175 175 174 174 172 171 171 172 171 169 170 168 167 167 166 167 163 162 160 158 157 152 127 111 110 110 111 108 108 107 109 107
 188 187 190 200 226 214 194 191 193 189 186 175  88  40  32  25  22  19  19  17  16  17  18  16  17  15  16  15  17  18  19  20  21  18  20  19  17  18  16  20  21  18  19  22  23  24  26  28  32  41  53  98 155 174 175 176 176 175 176 176 175 175 175 176 175 172 172 172 171 171 170 169 166 167 166 167 164 163 161 158 160 153 131 116 113 109 111 109 108 107 108 107
 187 189 191 198 222 210 195 191 192 189 162  78  42  29  24  19  19  16  18  18  16  16  17  17  17  16  16  16  22  21  22  21  21  21  22  20  20  23  21  21  20  19  21  23  23  24  25  29  32  38  45  63 111 159 175 179 177 177 176 178 177 176 177 175 175 174 174 172 171 172 172 169 169 167 167 167 166 164 162 162 162 156 138 118 114 110 110 109 109 109 108 107
 190 189 190 196 215 207 198 194 189 167  74  40  29  22  18  17  18  16  17  17  18  18  16  18  19  17  18  17  20  24  25  24  24  23  25  23  24  24  26  25  24  22  23  23  24  25  28  31  34  42  51  67  84 119 172 179 181 177 178 176 177 178 176 176 175 175 175 174 172 173 172 171 172 169 168 170 166 167 164 163 162 160 143 121 114 110 112 111 109 110 107 108
 191 189 191 192 203 208 205 195 174  92  42  30  26  20  20  17  18  16  18  20  20  20  19  18  22  18  18  21  21  24  28  26  27  27  28  28  27  27  27  28  25  25  26  26  26  29  32  39  50  62  66  73  76  93 149 175 182 181 180 178 180 179 179 178 176 175 176 175 174 174 174 173 170 171 170 169 168 166 166 165 162 159 147 123 112 112 113 110 111 110 111 109
 192 192 193 193 197 210 210 193 131  49  31  25  21  18  17  17  20  18  18  23  24  27  26  25  24  21  22  23  24  25  29  31  33  32  38  36  31  29  28  34  32  34  34  31  34  38  48  60  80  91  98  95  85  89 124 170 179 181 181 179 179 180 182 181 178 177 178 177 175 175 175 174 174 172 171 169 170 167 167 167 163 162 152 123 114 111 111 111 111 110 109 110
 192 193 195 195 197 209 208 175  70  35  25  22  19  18  17  22  23  21  24  25  31  35  34  36  35  30  28  26  30  30  36  40  40  39  41  37  36  36  39  43  46  45  45  48  54  62  80  94 103 112 117 119 114 101 102 141 178 181 180 181 182 183 181 180 180 179 178 178 176 174 174 174 176 174 173 173 169 170 170 167 167 165 158 126 117 110 113 110 111 110 108 109
 193 193 195 196 199 205 182  67  42  27  24  20  18  20  23  26  26  29  31  32  32  34  37  42  39  38  40  34  34  36  38  43  53  54  50  49  48  48  52  52  57  60  66  74  80  84  98 108 113 121 126 131 128 124 111 120 163 180 182 183 183 183 182 182 182 181 181 182 181 177 177 177 175 173 173 174 172 170 172 169 170 165 159 131 118 112 113 109 110 110 109 108
 195 196 197 198 197 193 105  41  32  25  24  22  21  28  29  30  32  38  41  42  42  39  36  36  36  35  32  32  38  42  46  49  60  74  69  66  68  68  81  76  76  84  86  95  98 104 108 118 124 130 134 136 134 134 128 121 133 169 182 186 186 185 184 183 183 183 182 181 181 181 180 180 176 174 174 174 173 172 173 170 170 168 162 136 120 114 114 110 113 110 110 109
 197 195 196 196 193 121  46  33  26  23  24  24  26  29  30  32  35  42  44  45  43  36  37  37  37  37  39  41  46  53  62  62  73  96  85  83  83  83  96 101  97 102 110 110 117 120 123 129 138 141 139 140 137 137 133 128 125 136 173 185 185 185 184 183 183 183 182 182 181 181 181 181 178 177 176 176 175 174 171 173 171 169 166 143 119 115 115 114 114 111 113 109
 198 197 198 196 188  75  38  28  24  23  23  26  28  30  33  35  36  40  44  42  43  40  41  41  43  43  47  53  58  71  78  85  89 108 111 100  98  97 105 115 117 117 122 129 131 135 138 142 144 145 146 144 139 137 136 132 129 125 138 175 184 187 186 185 185 183 183 184 182 181 181 178 179 176 176 175 176 175 173 173 171 168 167 147 123 116 116 115 112 114 110 111
 199 199 199 197 165  55  34  26  22  24  28  34  31  34  37  41  45  44  43  42  42  44  46  45  46  50  57  67  78  89  97 109 109 120 126 113 115 112 116 125 133 136 131 139 142 145 147 149 147 146 144 143 144 139 136 132 129 130 121 140 176 186 188 185 186 184 184 183 183 183 183 181 180 181 177 177 175 176 175 175 174 171 168 152 124 117 116 115 113 112 110 110
 200 200 201 196 124  42  28  26  26  26  29  38  34  38  45  52  51  48  47  45  47  49  49  54  59  66  76  82  93 104 124 129 127 134 138 132 132 123 121 134 142 149 145 146 150 150 151 150 148 145 143 142 143 141 139 134 131 129 126 118 154 183 188 187 187 187 184 183 185 183 182 182 181 182 181 179 176 176 175 175 173 172 169 157 129 117 116 113 110 112 110 113
 200 200 201 192  73  37  28  27  26  27  31  35  36  45  56  59  54  49  48  54  58  56  59  70  77  92  96  99 108 123 136 141 140 146 152 150 143 138 133 141 150 149 149 148 151 149 149 151 148 147 145 144 139 137 139 137 131 131 128 127 128 172 186 188 188 187 188 186 185 185 184 183 182 182 182 179 176 177 176 175 175 173 172 164 130 118 117 116 113 114 110 112
 200 201 200 168  51  34  27  28  25  30  33  38  44  54  62  66  58  56  58  62  62  66  75  83  96 106 108 113 122 132 138 147 150 155 162 159 153 148 148 149 151 152 153 150 150 151 151 152 149 147 147 145 142 140 140 136 135 133 131 128 124 153 185 191 190 191 189 185 185 187 185 183 185 182 181 180 180 177 179 177 175 174 172 168 136 121 118 116 115 113 112 110
 202 201 199 146  42  30  26  28  27  31  35  43  48  59  64  64  62  65  69  67  73  89  98 106 114 113 114 120 130 134 138 146 149 153 159 158 154 149 153 156 154 153 150 151 151 150 149 150 149 144 146 147 143 145 144 141 139 133 133 129 126 133 176 189 189 189 189 188 185 186 184 185 185 182 182 181 180 180 179 177 176 173 173 169 142 121 117 115 116 112 111 111
 201 202 199 119  41  32  27  27  29  34  44  48  53  60  66  68  70  76  74  75  89 105 113 116 116 115 121 127 130 133 135 138 146 151 154 149 151 150 152 155 155 152 146 145 143 147 147 147 145 143 145 147 145 146 144 144 141 135 133 132 128 127 160 186 187 188 187 189 186 188 186 185 184 184 183 181 180 178 177 177 175 174 173 170 144 121 117 116 114 112 111 112
 201 202 198  95  39  31  30  30  32  38  46  50  56  64  69  74  80  78  79  91 103 112 115 117 118 122 124 127 128 128 125 130 142 148 150 144 146 150 149 149 147 147 144 141 141 139 139 144 145 140 144 151 146 148 148 145 145 140 138 134 128 124 141 179 186 188 187 185 185 187 184 186 185 182 182 182 181 178 177 177 176 174 173 170 150 124 117 115 113 111 110 112
 199 199 194  77  40  32  31  32  41  46  47  54  59  68  71  76  86  84  91 103 110 113 115 114 118 121 124 125 125 126 129 129 134 137 140 142 145 146 148 148 145 144 142 144 143 139 139 139 144 143 146 148 148 150 150 148 148 143 139 137 131 127 124 165 184 187 186 185 184 185 184 184 184 185 182 180 177 177 178 176 174 174 174 169 154 124 121 116 117 112 110 111
 200 198 182  69  42  36  32  38  45  45  48  54  62  70  76  81  89  94 103 108 110 112 112 113 116 119 122 122 124 124 124 129 129 129 132 136 140 144 145 143 145 147 144 140 143 139 139 138 142 144 146 147 149 151 151 152 149 148 142 139 130 128 121 143 180 186 186 186 186 184 184 183 183 183 182 181 181 177 177 176 174 174 172 170 160 129 118 116 115 114 113 112
 200 197 164  58  45  39  39  46  48  45  54  58  60  69  74  82  89  97 105 108 109 110 112 111 113 114 115 115 119 122 123 125 126 126 127 132 133 138 141 141 142 143 140 139 142 141 141 139 144 146 148 149 148 151 150 152 151 147 141 136 129 126 113 105 149 182 185 187 184 185 185 183 183 182 182 182 180 177 177 175 175 174 173 171 164 131 117 116 115 113 113 112
 200 195 131  59  45  43  46  49  48  47  52  52  59  65  73  81  94 101 106 107 108 108 109 108 111 112 113 112 116 119 119 123 124 125 128 130 131 133 135 139 143 142 142 142 143 142 141 142 144 146 146 148 148 149 149 151 151 144 136 126 119 111  98  83  77 126 180 184 185 184 184 182 181 181 182 181 180 178 178 176 176 175 174 170 165 134 120 117 115 115 112 110
 198 197 125  57  47  45  48  47  43  45  48  52  59  63  71  79  94 100 106 103 103 103 105 104 107 110 112 113 114 115 116 118 121 125 127 129 129 133 134 135 142 146 142 142 142 145 145 144 141 143 141 144 146 148 146 143 140 134 125 114 103  88  74  61  59  60 161 183 185 183 183 184 182 181 181 179 177 176 177 175 176 174 172 169 166 134 120 116 115 112 110 110
 199 195 113  55  45  46  48  46  46  46  47  53  53  60  70  80  89  97  99 101 102 104 103 103 106 107 108 109 110 114 115 117 120 123 125 126 130 133 133 139 142 148 146 147 145 146 147 146 142 143 142 141 141 143 141 136 130 120 110  92  74  65  55  49  48  63 131 179 183 183 183 182 181 180 180 178 178 175 176 174 174 172 172 172 166 141 120 118 115 113 113 111
 197 193 106  53  45  44  44  43  46  45  46  50  53  57  67  77  83  93  97  99  99 100 102 102 105 105 104 106 107 111 113 116 119 120 124 125 126 131 136 137 142 147 149 147 147 145 146 148 143 141 145 142 139 138 135 127 122 108  86  65  48  38  36  39  44  59  95 172 182 183 182 183 180 179 180 178 179 176 174 173 172 172 170 169 166 148 125 118 115 114 113 111
 195 192 118  53  44  43  41  43  44  43  46  48  50  59  68  77  82  87  93  98  97  96  97  97 101 101 102 101 102 107 110 114 115 119 123 127 128 133 137 136 139 143 144 141 143 141 144 145 141 140 137 138 134 134 131 121 110  91  66  48  37  30  33  45  56  66  83 158 180 182 180 181 182 178 178 178 178 176 176 173 172 171 170 170 167 151 124 117 116 116 114 110
 195 194 135  51  43  40  42  44  46  45  47  50  51  56  61  70  78  85  92  95  96  96  95  94  98  99 101 100 102 106 109 115 117 120 123 126 128 132 134 134 132 137 137 139 138 139 138 141 141 137 135 134 130 130 128 118  99  80  58  42  35  37  58  69  76  80  84 145 178 179 179 180 179 178 178 176 176 175 175 175 172 172 171 171 166 155 126 118 116 114 112 111
 195 193 153  54  43  40  42  45  46  46  47  49  51  55  61  68  73  80  86  92  97  95  95  91  92  95  97  97 101 106 111 115 116 116 120 127 130 129 132 132 130 129 128 130 132 131 131 132 137 132 128 129 125 126 121 115  92  70  47  41  47  66  75  77  83  85  90 148 177 181 178 178 179 177 178 178 175 174 174 174 172 171 169 168 166 159 131 118 116 114 116 113
 195 194 179  60  43  39  44  46  45  46  48  48  50  54  58  64  69  75  84  88  94  94  93  91  92  93  96 100 102 105 111 115 116 116 119 123 126 126 125 124 122 118 117 116 120 123 123 126 130 128 120 123 123 119 115 108  92  71  47  54  65  69  73  74  74  81  95 150 176 182 180 179 179 176 175 176 176 175 174 171 172 170 169 169 165 161 133 119 115 114 112 114
 194 194 193  75  45  39  41  44  46  43  43  48  48  53  57  62  70  75  80  86  94  93  92  93  92  94  95  96 101 105 112 114 117 118 118 118 119 118 113 114 110 110 109 107 108 111 114 117 119 121 116 116 120 114 109 101  86  68  59  60  71  80  84  85  84  77  93 148 175 180 181 179 180 177 177 178 175 175 175 174 173 173 171 170 168 165 137 119 116 115 115 115
 197 197 195 102  46  43  41  44  46  44  46  49  51  50  57  61  68  74  81  84  88  91  89  92  91  91  92  94  98 103 107 115 114 116 114 113 108 101 101  99  96  92  90  93  96  99 103 107 108 111 110 114 118 110 102  96  86  70  58  63  75  82  83  85  84  84  88 140 178 183 183 181 180 181 180 178 176 175 176 174 174 172 171 169 169 165 142 121 117 114 114 113
 196 198 196 132  48  44  42  42  42  45  45  46  48  50  57  60  67  71  81  85  84  87  86  89  88  90  94  92  95  98 105 108 108 107 103 100  96  88  86  81  78  73  65  68  76  82  92  95  99  99 102 104 110 110 100  92  80  63  56  66  66  67  69  77  80  81  86 134 177 182 183 181 180 180 178 177 176 175 174 175 174 173 173 171 171 168 150 121 117 115 112 113
 198 197 197 161  53  45  42  41  43  44  45  46  48  50  54  58  63  68  78  83  84  84  84  82  82  84  86  88  90  93  96  96  94  89  85  77  69  65  56  51  49  48  47  49  56  66  76  85  89  92  92  95 102 108 101  88  70  58  53  56  55  56  55  47  46  50  63 113 174 178 182 181 182 180 178 177 177 177 174 175 174 172 172 171 169 168 152 124 117 117 112 112
 197 198 198 184  65  46  45  44  43  42  46  48  49  49  51  54  60  69  73  78  80  80  82  79  80  80  81  84  82  79  83  77  75  73  64  52  44  41  37  35  33  34  36  42  46  56  68  80  84  85  87  89  98 108 105  85  64  50  49  52  50  37  34  35  40  48  60  95 163 177 180 182 182 178 177 177 177 175 174 175 174 172 171 170 169 167 154 125 116 116 114 115
 197 199 199 195  92  48  43  41  40  42  44  47  47  47  49  55  61  69  74  78  78  75  77  78  75  79  82  84  75  61  56  53  52  51  46  38  35  33  30  30  30  32  35  40  46  53  63  73  80  84  82  87  96 115 122  89  59  47  50  62  57  35  30  30  47  61  79 108 145 176 179 178 178 176 178 176 175 175 175 175 174 173 170 170 169 165 159 130 116 114 113 116
 196 199 200 195 118  50  45  43  43  44  43  44  48  48  48  54  60  66  73  77  77  75  74  75  73  76  77  77  62  48  42  43  42  38  35  32  32  34  35  37  41  45  49  53  57  61  65  71  75  74  76  86 102 126 138 119  60  53  62  76  78  43  34  38  59  68  94 120 135 168 177 180 179 179 177 177 178 176 176 174 175 174 173 171 169 167 161 134 117 116 114 113
 199 198 202 199 150  51  44  42  42  43  45  44  47  47  47  51  59  66  72  76  75  75  74  72  71  75  78  63  44  42  41  40  35  33  35  34  39  46  51  53  53  53  55  56  58  62  63  64  65  66  70  85 109 133 150 148 100  56  48  58  66  58  49  57  66  79  99 124 134 152 176 180 181 180 180 180 179 176 178 176 175 175 173 171 169 168 164 136 119 115 113 112
 201 202 202 201 184  56  45  43  44  44  42  44  48  47  46  51  62  68  72  76  75  72  72  68  72  75  65  45  40  43  44  43  43  41  44  53  59  60  54  52  52  49  48  48  51  54  56  57  60  62  64  78 105 133 155 161 149  84  51  51  55  56  58  69  78  86 103 127 137 139 169 180 180 180 178 179 179 178 178 176 174 175 175 174 171 170 166 141 121 115 116 113
 200 202 202 202 195  82  47  44  43  44  43  45  47  46  46  52  60  66  73  75  74  68  69  69  72  68  48  44  48  53  53  52  45  47  57  63  60  59  57  57  53  50  48  46  46  46  49  52  55  59  61  74 100 125 148 164 163 147  89  55  54  58  64  72  77  89 110 130 140 136 150 176 180 181 180 180 179 178 178 177 176 176 176 174 172 171 168 146 122 115 111 114
 202 202 203 205 198 120  52  44  44  43  43  44  44  44  45  50  56  68  74  76  73  71  71  69  71  66  59  56  56  53  50  51  56  62  64  60  63  63  63  61  53  46  44  43  44  45  48  50  53  55  58  71  94 117 140 153 165 158 145  85  63  67  70  81  90 104 123 137 140 136 138 169 181 182 180 181 181 180 180 179 176 175 176 175 172 170 167 154 126 117 117 113
 204 205 203 203 199 162  59  47  46  42  42  44  43  44  47  49  55  69  72  75  77  75  72  70  70  67  63  61  59  57  63  67  67  67  60  63  66  65  60  52  50  44  39  38  41  43  48  50  49  53  61  76  93 109 127 140 155 160 154 132  89  89  92  98 106 117 130 138 140 137 133 156 181 183 182 179 181 180 181 180 176 175 176 175 172 172 170 160 127 119 115 112
 205 204 202 204 203 190  81  51  46  44  42  43  45  47  47  49  57  67  71  72  75  77  75  73  69  66  62  61  59  59  67  69  66  59  63  64  64  59  55  55  41  35  30  33  40  43  49  50  48  52  63  82  93 105 118 129 144 158 158 150 129 114 114 115 118 125 132 138 141 134 133 145 174 183 183 181 180 180 180 178 177 177 176 175 174 172 169 161 130 118 115 115
 207 205 205 206 203 199 122  55  46  45  42  43  45  48  48  49  58  67  72  73  75  74  75  74  72  68  61  62  64  66  71  69  55  58  61  62  58  58  47  36  24  46  41  38  37  42  49  48  47  53  72  87  96 100 107 117 132 149 158 153 144 132 130 131 130 131 133 139 138 134 132 136 172 182 182 182 181 182 179 179 179 178 177 176 175 173 172 164 133 117 114 113
 208 206 205 206 205 202 164  62  47  49  45  44  44  47  49  48  53  62  72  76  78  75  75  75  70  69  62  62  70  73  70  51  51  58  58  57  54  39  26  39  28  46  40  34  42  46  47  47  49  58  80  90  93  95 100 108 121 134 152 158 155 145 130 133 139 138 139 143 142 137 132 133 161 181 184 182 182 181 181 178 179 178 178 176 175 173 172 167 141 120 115 113
 204 205 206 205 204 204 194  89  51  47  47  46  45  46  47  47  49  60  72  77  79  77  74  71  74  68  66  70  73  73  61  49  51  53  52  47  37  27  24  26  27  42  40  41  44  44  43  47  56  70  84  92  95  97  98 104 117 126 140 156 164 156 143 137 138 140 141 144 144 139 134 133 154 179 182 181 182 182 180 179 177 176 178 175 174 173 172 169 146 122 115 114
 206 207 207 207 206 206 200 152  60  49  48  48  47  46  47  48  50  61  68  78  80  79  77  73  70  72  71  73  74  69  56  50  46  44  44  46  50  32  29  26  33  44  44  44  43  44  45  52  63  78  90  93  95  98  98 105 115 123 134 152 167 165 157 147 137 140 138 137 137 137 132 134 151 178 182 182 182 182 181 180 178 177 178 176 176 175 173 170 150 124 116 111
 208 208 207 207 207 208 205 196  90  50  49  50  47  46  48  48  50  58  66  77  80  79  77  76  72  72  73  75  75  68  56  45  39  37  38  49  62  58  42  43  46  47  46  46  46  48  50  58  71  83  87  86  93  95  98 103 112 121 132 151 166 172 166 160 152 140 134 134 134 136 131 130 146 178 184 184 182 183 182 182 179 178 177 177 175 175 174 171 154 124 115 111
 208 208 209 207 207 206 206 204 164  63  50  48  48  49  47  49  51  54  60  74  79  77  76  76  74  75  75  75  71  65  56  46  43  42  42  52  55  53  52  55  54  52  51  50  50  55  59  69  80  85  85  84  90  96  98 104 113 122 135 153 165 170 170 164 161 149 137 130 131 133 130 127 141 179 183 185 182 183 180 182 180 181 180 178 176 174 174 172 159 127 114 111
 207 207 209 207 207 207 209 205 201 122  62  53  51  50  49  48  47  51  54  64  76  80  80  80  76  76  78  78  73  65  63  63  61  57  58  63  66  67  65  65  59  55  56  57  62  63  73  83  86  86  85  82  89  94  98 100 111 122 138 150 162 171 163 157 160 158 145 130 127 127 126 126 140 179 182 184 182 183 181 181 180 179 178 177 176 178 175 173 165 131 115 110
 207 206 205 205 204 205 206 204 205 194 105  69  61  57  54  51  50  49  54  59  71  79  80  80  81  79  79  80  78  77  76  78  74  70  70  70  70  72  67  64  62  64  62  68  72  77  83  91  91  88  83  82  82  88  88  92 102 113 129 141 149 156 155 150 153 155 147 130 121 123 124 122 137 177 183 184 182 183 182 180 177 179 177 176 177 175 173 173 166 133 116 113
 204 204 204 204 204 204 204 203 196 182 132  82  75  69  64  59  52  47  50  54  65  77  78  80  80  82  84  85  85  86  85  86  85  78  77  75  74  75  74  73  72  75  73  76  77  85  91  96  92  88  81  79  79  79  78  81  95 105 117 130 135 141 144 145 144 144 145 128 118 120 121 120 134 176 181 181 181 182 179 179 178 179 176 174 176 173 171 172 168 138 119 113
 203 204 204 203 203 203 200 163 119 101  91  80  78  73  74  70  60  50  46  52  63  77  78  81  82  83  86  88  86  88  88  90  94  92  88  84  86  84  86  85  83  82  81  84  86  93 100 103  96  91  81  77  74  74  76  83  90  99 107 117 123 132 134 137 138 139 138 123 115 117 117 116 132 175 179 179 180 180 178 178 177 177 175 175 175 174 173 170 167 144 119 114
 202 202 202 201 202 200 161 105  94  84  81  77  72  72  74  74  72  61  44  48  60  75  79  82  81  83  86  87  86  87  88  94  97  97 100  98  99  96  94  91  87  86  87  93 100 104 106 105 101  94  82  74  70  84  97 100  93  95  97 101 109 119 126 126 125 123 119 115 117 118 114 115 134 175 181 181 180 179 180 180 177 176 175 174 174 171 171 170 168 151 121 116
 202 202 201 202 203 197 126  89  81  71  70  70  68  68  69  69  72  72  53  46  55  71  78  80  80  79  83  87  86  87  89  94  95  99 100 104 101 100  98  97  94  96  96 100 112 119 118 113 105  94  79  70  66  91 108 106  90  87  88  92  95 103 111 111 108 105 103 115 124 121 118 117 132 173 178 180 180 178 177 178 176 174 174 173 173 172 170 170 170 153 122 112
 201 201 202 203 201 196 118  77  69  63  68  76  81  72  67  64  65  71  65  48  50  64  74  80  82  79  82  86  87  88  89  93  96  98 101 104 105  99  99  98 101 102 109 114 119 123 124 116 106  92  80  68  64  83  95  96  88  81  77  77  80  80  86  93  94  91  95 115 115 112 115 119 129 169 177 177 179 177 177 176 175 174 174 174 171 171 170 168 167 155 125 116
 200 200 200 200 200 196 128  71  68  62  64  77  81  76  77  59  60  76  75  56  48  56  70  77  79  80  81  84  85  88  93  94  94  99 101 101 105 101 101 105 105 111 120 124 126 126 123 115 104  90  77  68  62  71  79  78  79  77  74  66  63  67  77  81  84  77  88  94  86  82  97 115 126 169 177 178 178 175 175 173 174 174 174 172 171 170 170 168 166 160 127 115
 198 199 198 198 198 197 154  76  68  66  62  72  83  82  73  53  63  80  81  66  46  54  62  72  78  80  81  82  85  88  90  92  96  98  99 101 106 104 106 107 110 118 124 127 125 124 121 108 100  86  79  71  63  60  69  70  67  64  64  63  59  62  70  68  56  48  58  75  67  63  66  97 122 163 175 175 176 175 174 175 174 173 172 170 169 169 168 167 166 162 130 114
 197 197 197 196 196 196 183  87  68  72  64  70  82  77  63  55  72  86  85  77  51  48  54  67  72  75  78  84  84  87  89  94  96  99 101 102 108 107 111 116 118 121 127 129 126 121 118 109 100  90  83  79  69  61  60  61  54  51  54  54  56  63  67  50  39  35  48  66  65  58  61  83 109 154 172 174 174 174 173 173 173 172 170 170 170 168 166 166 163 160 136 112
 195 196 198 197 195 195 192 128  75  64  67  71  80  72  58  58  74  84  88  85  67  45  49  56  67  72  76  81  82  86  88  94  97  98 101 106 107 110 112 118 121 123 126 127 121 120 116 109 101  95  95  86  77  69  65  58  51  45  42  40  42  54  57  42  35  32  48  69  64  58  66  80 101 142 168 172 174 172 172 170 170 172 170 168 168 165 166 164 161 160 138 113
 193 193 196 196 194 196 193 184 100  67  63  69  81  73  58  54  74  79  85  81  76  54  44  49  60  67  74  78  80  84  87  91  95  97 100 106 107 110 113 118 119 123 123 121 119 116 112 104 100  99 103 100  86  76  67  58  48  39  32  31  32  41  46  37  36  39  48  65  74  64  67  83  95  76  86 142 169 169 170 168 169 168 168 167 167 166 165 164 162 160 141 112
 192 194 196 193 191 194 194 191 171  96  71  66  78  79  64  57  70  76  80  79  75  66  47  44  51  61  69  74  78  80  85  89  91  94 100 103 105 109 112 115 114 116 119 119 114 111 106 104 101 107 111 106  94  76  60  51  42  35  30  30  31  37  41  36  37  43  61  78  82  63  68  82  93  66  37  35  71 140 165 167 166 168 166 165 164 165 164 162 161 157 142 117
 190 191 191 192 192 192 191 190 188 169 106  74  71  78  73  61  64  75  72  71  78  75  62  48  48  53  62  68  71  77  82  86  90  92  98 101 106 108 109 112 109 112 113 111 109 106 105 103 105 110 113 107  93  70  52  47  42  35  34  34  31  31  34  38  52  64  77  80  73  76  76  89  93  61  31  28  29  35  88 151 164 165 166 165 165 164 164 161 160 158 147 117
 191 192 190 191 191 192 192 192 189 186 180 122  78  73  79  67  58  61  65  67  70  76  71  52  45  46  56  63  68  72  78  81  85  89  94  98 103 104 107 107 107 106 105 105 106 102 103 104 106 107 103  96  81  64  49  44  44  40  35  40  36  36  46  59  75  76  72  69  74  86  92  93  93  63  26  23  24  25  30  50 133 160 164 164 164 161 162 160 160 157 150 121
 192 190 188 190 192 192 193 193 191 189 189 182 129  83  78  79  76  74  74  82  80  78  74  65  47  46  51  58  64  66  73  78  79  85  89  94  98 101 100  99 101 101  99  99 101  98 101 104 105  98  88  80  67  60  47  43  47  46  42  42  54  62  71  78  73  69  63  65  76  92  98  96  93  58  25  18  24  24  19  26  36 116 162 164 164 164 164 160 158 158 152 125
 191 190 192 192 191 192 192 191 191 193 192 190 184 143  87  79  80  78  76  86  85  81  76  66  51  43  48  55  61  67  69  75  77  80  85  89  94  94  95  97  97  98  97  98  98  97  99  97  91  77  71  68  62  57  51  49  53  55  56  59  63  64  64  64  63  60  68  70  79  91 101  96  90  66  23  18  20  26  21  17  22  34 106 157 163 162 162 163 160 160 152 129
 191 191 190 190 191 192 191 191 191 193 191 190 189 184 156  93  82  78  78  83  86  84  79  66  49  40  42  48  56  64  66  71  73  78  82  87  90  90  91  92  93  92  93  94  97  94  96  94  75  60  53  54  54  57  52  58  64  66  61  59  58  56  51  47  50  64  77  77  84  90 100  97  88  68  26  18  18  24  23  15  16  22  33 106 157 160 161 162 161 159 154 132
 188 190 188 189 188 190 190 188 190 192 190 190 189 188 184 168 115  84  83  83  84  81  75  65  54  46  38  43  52  62  67  69  71  74  80  82  84  85  88  88  92  93  91  91  91  90  93  86  65  52  46  49  52  60  64  63  62  57  51  50  49  45  45  46  60  72  76  75  85  89  99  95  84  63  25  16  17  22  23  20  12  14  22  36 114 157 161 159 157 157 155 138
 185 187 187 188 187 189 189 189 188 189 188 190 187 187 187 185 179 156 133 110  83  77  69  55  56  58  46  39  46  54  65  68  70  73  75  77  78  82  85  84  88  92  92  89  89  89  91  79  59  53  54  54  57  60  58  49  44  40  40  43  50  56  64  70  72  72  72  75  81  97 102  94  81  57  23  13  15  21  22  20  15  10  15  26  46 138 157 158 157 158 156 142
 186 186 188 188 186 186 187 187 186 188 188 188 188 186 187 187 186 184 180 177 158  85  37  24  41  59  56  43  43  47  59  64  68  69  72  73  70  77  82  85  87  89  89  88  88  88  85  74  59  58  54  43  44  44  47  48  50  51  52  56  61  64  68  69  70  70  72  74  82  97 104  98  83  55  22  15  15  19  20  23  17  12  12  18  30  71 151 155 157 157 155 147
 185 183 187 186 186 186 187 187 186 187 188 188 186 187 186 187 185 186 185 183 128  31  22  17  18  56  61  52  41  43  50  58  64  67  67  69  71  73  78  83  84  86  88  89  88  87  86  73  61  63  51  52  50  51  56  56  58  58  58  56  61  62  63  64  68  64  62  67  83 102 113 109  82  52  25  12  14  17  19  20  19  13  11  13  21  37 106 153 156 157 153 148
 186 186 187 186 186 185 188 187 188 187 185 187 187 189 188 187 186 186 185 162  37  22  16  13  14  43  60  61  47  39  44  50  60  63  65  68  71  73  76  80  80  84  85  83  84  86  84  73  68  64  59  62  66  68  65  64  65  66  63  60  59  60  61  59  54  44  51  71  86 108 118 105  83  52  23  10  12  18  19  19  19  14  10  10  14  26  47 146 154 157 156 151
 185 186 186 186 185 186 186 187 189 188 188 186 188 188 186 187 186 186 175  61  29  16  13  10  13  31  60  64  57  40  43  47  57  62  65  67  71  72  74  74  79  80  80  80  84  84  85  79  71  67  67  71  70  72  71  69  67  71  70  67  63  58  48  36  32  37  55  73  92 113 113  96  71  46  21  12  14  18  19  18  20  16  11  10  13  19  32 104 157 157 156 153
 188 186 186 186 187 186 186 188 188 188 188 188 187 187 187 187 186 182 100  32  21  15  12  10  11  21  54  61  62  56  39  43  56  59  61  69  69  69  71  72  77  75  78  77  80  82  84  81  75  72  74  80  78  74  75  70  68  67  62  60  55  46  36  34  42  52  60  69  96 111 106  79  59  42  18   9  12  16  19  17  19  16  13   8  12  16  25  55 150 157 156 154
 187 186 186 186 186 187 186 187 186 186 187 186 188 187 186 185 184 175  46  27  20  14  11   9   9  15  43  60  64  62  53  39  47  52  57  66  66  68  71  73  76  75  76  77  75  79  82  84  77  76  76  79  81  79  76  75  76  74  67  62  56  51  54  53  57  57  64  75  92  97  93  65  48  35  20   9  12  17  16  17  18  18  14   9  10  13  20  32 111 146 148 150
 187 186 185 186 188 188 187 187 187 188 185 186 187 186 186 184 183 101  37  21  17  12  11   8   8  12  30  57  61  62  64  46  40  46  51  59  64  66  67  70  71  74  74  74  74  75  79  81  77  75  74  77  78  80  80  76  78  76  71  68  65  65  67  69  63  62  64  78  84  83  79  59  42  32  16   8  13  16  16  15  16  16  13   9   9  11  18  27  31  56  92 131
 186 184 187 187 187 186 186 186 185 186 186 186 185 186 184 183 127  39  28  18  14  11  11   8   9  10  19  53  62  63  65  63  46  35  41  50  53  60  62  65  70  74  72  70  73  75  74  78  73  68  71  75  74  74  77  78  78  77  74  72  72  70  65  70  61  63  70  76  74  72  63  50  37  26  12   8  12  15  17  15  16  17  13  10   8  10  15  22  24  23  29  37
 183 184 187 185 183 186 186 185 186 186 185 185 183 185 183 176  53  30  24  17  13  12  10   9   9   9  12  39  60  63  67  68  60  42  36  41  45  50  56  63  67  68  70  70  71  71  72  71  69  62  65  69  68  72  73  74  76  75  76  76  75  70  70  72  66  62  66  66  66  61  51  41  30  21  11   8  10  15  18  17  16  17  15  11   8   9  14  19  17  17  17  21
 181 182 180 180 179 179 179 179 181 179 179 176 178 177 174 142  28  27  21  15  13  10   8   8   9   9   9  27  56  61  67  70  65  60  39  35  37  41  44  49  58  60  62  68  68  68  71  71  66  57  63  63  64  69  71  70  72  70  74  72  74  67  64  69  66  58  56  59  58  49  44  35  25  18   9   8  11  15  16  16  16  15  14   9   6   8  13  17  15  12  15  14
 143 142 136 136 136 136 136 136 134 129 127 130 128 124 122  72  30  25  18  12  12  10  10   9   9  10   8  15  51  64  71  71  68  65  58  42  31  30  36  38  40  48  51  58  60  64  66  67  64  60  61  59  63  64  64  68  68  64  62  64  67  65  64  68  68  57  51  47  41  34  34  34  23  12   9   6  11  15  18  16  16  14  14   9   6   9  13  17  12  12  13  12
 113 113 112 113 115 113 114 114 114 114 116 113 114 110 106  46  22  19  16  13  11   9   9   6   6   8   8  11  41  62  67  72  71  70  66  60  46  33  30  33  31  39  44  46  54  54  58  62  60  61  58  51  53  57  60  60  58  53  48  47  52  57  63  60  60  48  45  38  28  25  22  54  28  13   9   6   9  15  17  15  16  16  14   9   8   9  11  15  11  10  11  11
 109 108 108 109 108 111 108 110 108 110 107 108 107  98  43  28  18  16  16  14  12   9   9   6   8   8   8   9  25  57  66  69  72  73  70  65  62  53  37  30  27  31  35  40  44  48  54  58  57  56  52  46  48  53  54  52  48  52  41  34  39  46  55  54  51  40  29  25  23  26  33  67  31  12   8   6  10  16  18  17  19  18  18  10  10  10  11  12  10  11  10  12
 106 106 107 107 108 106 106 108 106 108 106 104  85  35  24  18  16  16  14  12  10  10   9   7   8   7   8   9  14  48  63  67  69  68  70  69  68  60  53  46  29  25  31  35  36  40  45  47  49  49  45  42  39  43  44  43  41  43  41  42  36  37  40  43  39  28  20  20  34  59  50  70  23  12   9   6   8  14  16  14  15  17  15  11  10   9  12  14  11  11  11  11
 105 103 104 104 104 106 104 106 105 106 102  66  31  20  15  13  13  16  14  13  10  11   8   6   7   7   8   8  10  34  59  65  67  67  70  70  69  68  62  57  45  37  32  32  31  32  35  36  37  38  37  28  28  31  36  35  34  35  39  44  36  33  33  35  28  22  22  53  70  73  58  73  21  11   7   5   8  12  16  17  15  13  18  14   9  10  12  11  10  12  11  11
 103 104 102 101 104 105 104 105 101  96  48  26  21  12  11  11  14  17  14  11  10  10   7   6   7   7   7   8   8  20  55  60  66  68  68  68  69  69  67  62  53  47  39  37  36  33  30  31  34  31  28  25  24  26  26  26  25  26  30  31  28  28  28  24  24  31  55  83  82  73  59  67  19  11   8   4   7  10  18  16  16  16  17  13  10   9  11  12   9  10  11  11
 102 103 101 101 103 100 101 101  80  34  24  21  14  10  10  10  12  16  13  11  10  10   7   5   8   6   8   8   9  12  47  57  65  67  70  70  71  70  69  67  56  51  48  46  45  43  39  37  36  31  29  28  23  25  24  21  20  19  22  22  22  23  26  28  45  68  77  81  80  70  56  63  17   9   6   4   6  11  17  17  17  17  16  12   7   7  11  11  10   9  10  11
 100 100  99 101 101 101  98  58  29  21  18  16  12  11  10  10  10  16  13  12  12  10   6   6   7   5   7   9   9  11  36  54  61  64  66  72  71  71  69  68  64  57  53  53  49  48  48  44  44  36  30  26  24  24  22  19  16  16  15  21  26  35  48  59  62  78  82  79  77  67  61  47  15   9   6   5   6  12  15  14  17  16  16  14   8   7  10  11   9   9   9  10
  98  99  98 101  98  85  44  26  21  17  17  15  10  10  10   9   9  14  11  11  11  10   7   6   7   8   7   8   9   8  25  50  59  62  67  71  69  69  71  67  64  60  57  57  53  52  50  49  50  49  48  46  36  34  34  28  26  35  36  49  59  64  64  66  72  79  79  77  71  62  72  25  12   9   6   6   7  12  17  17  16  16  16  14  10   8  12  14   9  11  11  10
  96  97  98  95  63  31  24  18  14  16  15  12   9   9   9   8   9  10  10  10  10   8   7   5   6   6   7   8   6   9  15  44  56  57  62  65  66  67  69  68  64  59  56  57  54  55  55  53  54  57  56  59  56  54  60  55  54  60  64  71  69  70  67  65  76  79  76  72  68  70  66  18  11   8   5   6   6   8  16  17  15  15  16  14  11   8  11  12  10  10  11  10
  98  97  86  42  26  20  17  15  16  15  11  10  10   9   8   8   8  11  10   9   9   9   7   5   8   6   6   7   7   8  10  30  50  56  60  64  64  68  68  68  62  57  57  58  55  54  55  55  56  61  62  62  63  65  69  68  68  73  76  75  72  66  67  67  76  76  74  70  60  75  48  13   9   7   5   5   5   9  17  17  15  14  15  13  13   8  11  11   9   8  10  10
  93  59  30  24  18  16  15  14  14  14  12  10   9   8  10   7   6  11  11  11   9   9   7   5   6   6   6   6   7   8  12  20  42  53  60  62  63  65  64  66  65  62  56  55  55  55  55  57  56  62  66  68  69  70  71  70  75  80  80  75  66  65  64  70  78  73  70  58  63  69  33  10   7   6   4   6   6   9  15  17  17  16  16  13  14   9  11  12  11  12  11  10
  48  24  23  18  18  16  14  12  13  10  10  10   9   8   6   6   7   8  10  10   9  10   8   5   6   5   5   5   7   8   8  14  35  50  58  63  64  64  62  61  66  65  57  53  54  54  52  55  57  58  65  66  69  73  75  75  78  82  81  70  66  64  64  72  74  71  59  50  80  51  20   9   7   5   4   6   7   9  15  17  14  16  15  15  16  10  11  11  13  10  10  10
  24  19  17  15  17  14  13  12  11   8   9   8   9   8   8   6   6   7  11  11  10  10   8   6   5   5   6   5   7   8   8  11  35  49  57  62  62  63  59  61  61  63  61  56  53  50  51  55  54  54  63  64  66  72  74  76  80  80  72  63  63  64  67  73  75  64  44  76  69  38  12   7   6   5   3   5   8  10  15  17  14  16  17  16  14  10  11   9  11  11   9   8
  19  16  15  14  10  10  12  10  10  10  10   8   8   8   6   5   6   6  10  10  10  10   8   6   5   5   6   5   6   7   7   8  16  57  59  62  62  64  62  60  60  64  63  58  53  52  53  52  52  50  56  57  61  66  70  73  78  76  63  60  60  64  71  72  69  44  59  79  54  23   9   7   6   4   3   6   8  13  14  16  14  15  18  16  12  12  12   8   9  11   8   6
  16  14  14  13  11  10  10  10  10   9   8  10   9   7   6   6   5   6   9  12  10  10   8   7   5   6   5   5   7   7   8   7  10  27  68  68  66  65  65  61  62  61  64  61  56  54  52  50  51  50  54  55  57  61  66  71  72  68  62  62  62  69  72  70  55  54  89  66  38  15   7   5   5   5   4   6   8  11  14  16  14  14  16  15  12  12  11   8   9  10  10   7
  13  14  13  11  10  10  11  10   8  10   9   9  10   6   6   6   5   7   9  12  12  12  10   7   6   7   5   4   5   5   6   7   8  15  45  79  78  63  64  64  63  61  63  64  59  56  55  52  51  50  52  54  53  56  59  65  65  62  61  62  65  66  62  51  67  90  75  50  26   8   7   5   4   4   5   7   7  10  16  17  15  12  14  14  13  13  11   7   8  11   9   7
  11  12  11   9  10  10  11  10   9   9   9  10   8   6   5   5   4   6   8  11  12  11  12   9   7   5   3   2   4   6   6   7   7  10  26  54  76  85  70  52  59  62  62  64  62  60  56  51  52  52  53  53  52  53  58  63  61  62  65  64  58  49  41  80  84  75  60  39  16   7   6   5   5   5   6   6   6   9  15  18  15  14  16  12  12  11   9   6   9  12  10   8
  12  12  11   9  10  11  11  10  10  10   8   9   8   5   5   4   4   6   7  11   9  10  10   8   7   6   3   3   4   5   6   6   6   8  15  36  59  70  82  85  67  51  60  65  67  66  61  58  53  54  54  56  56  58  59  61  62  63  57  44  34  38  83  88  78  69  51  28   9   7   5   6   5   5   5   5   5  10  15  18  13  13  16  14  10   9   5   7   8   8  11   8
  12  11  11  12  10  10  10   8   8  10  10   9   7   5   4   5   4   7   6   8  11   9  10   8   7   6   3   3   4   5   6   6   6   7  10  24  48  64  74  80  83  86  83  71  66  70  67  62  56  60  64  62  62  64  63  64  54  44  49  55  65  88  88  79  75  60  41  18   7   6   4   4   3   4   6   5   6  11  15  17  14  13  15  12   8   6   4   4   6   8  11   9
