P2
# Generated by OpenCV 3.4.0
92 112
255
 180 189 199 207 203 192 184 179 176 178 178 178 176 175 174 175 176 176 177 178 177 176 176 175 174 174 175 176 174 174 174 174 174 174 175 174 174 174 173 171 174 173 173 172 172 172 170 171 168 165 164 167 167 166 165 165 164 165 165 164 162 161 160 159 160 159 160 158 156 156 155 152 154 154 150 149 148 150 146 139 116 106 105 104 106 103 106 102 103 101 101 101
 185 201 235 246 244 226 195 185 180 180 181 181 179 177 178 178 178 179 177 178 178 176 176 177 177 175 177 177 179 179 178 176 176 175 176 176 175 175 174 173 175 174 174 174 175 172 173 171 171 167 165 167 168 166 166 167 167 167 165 165 163 164 162 162 164 162 160 159 159 156 155 155 155 155 154 153 151 152 149 143 119 108 107 104 105 104 103 102 103 101 102 102
 188 219 251 253 253 246 224 199 188 184 181 182 181 180 180 179 179 179 177 181 179 179 180 179 178 176 176 178 180 178 178 178 179 176 176 179 175 177 177 177 176 175 174 173 175 171 171 170 171 167 165 168 167 166 166 166 166 167 166 165 164 165 164 163 163 161 158 161 158 158 157 156 155 155 156 155 154 152 150 146 123 108 107 105 104 105 103 104 105 101 103 102
 191 227 252 253 253 252 242 217 194 185 185 183 183 182 181 180 181 180 181 180 181 181 182 181 181 181 180 182 181 180 179 178 180 180 179 178 179 178 178 177 176 176 175 175 173 173 170 169 161 155 151 148 140 150 155 152 160 163 166 166 166 166 164 164 165 164 163 163 161 159 158 157 157 157 156 156 156 155 151 149 128 111 108 106 104 106 104 103 102 102 105 102
 192 225 251 253 253 253 243 224 202 192 189 184 184 184 184 182 182 182 181 181 181 182 182 182 182 182 183 182 183 180 182 182 181 181 182 179 181 180 180 178 179 177 174 173 168 152 115  86  70  64  56  53  47  50  62  62  86 126 151 159 163 164 165 167 166 165 163 163 163 161 159 159 158 158 156 157 156 155 154 152 135 113 108 106 104 105 105 104 103 103 104 102
 193 214 246 253 253 251 240 219 205 194 189 185 186 186 184 183 182 184 183 184 183 183 184 184 183 183 183 183 181 181 182 182 180 180 182 182 183 180 180 178 175 163 130  93  72  52  38  32  33  29  28  28  28  26  28  30  35  38  50  79 123 157 165 165 165 165 164 163 164 163 162 161 160 161 158 158 156 155 153 152 142 115 109 108 108 107 108 108 104 103 105 106
 195 207 231 247 250 244 231 213 198 196 191 190 189 187 186 187 186 184 185 186 184 185 186 185 186 187 186 186 186 185 185 185 184 184 185 186 185 180 176 155 102  57  38  35  31  29  26  24  24  22  23  23  21  20  22  21  22  24  26  29  40  67 103 151 161 165 164 164 166 165 161 161 161 160 159 158 157 157 154 155 145 116 111 110 107 106 109 107 104 102 105 103
 194 200 220 236 238 232 219 208 198 194 194 193 193 190 191 191 189 189 189 187 186 189 187 187 187 186 192 188 188 187 186 185 186 185 186 183 184 166 115  53  37  30  26  27  24  22  21  19  19  18  16  18  16  18  19  18  20  22  22  22  25  29  35  73 126 158 163 165 167 167 166 163 163 161 161 161 157 158 156 156 149 124 111 110 109 107 108 105 104 105 105 105
 195 199 212 226 222 218 209 201 196 193 192 193 193 192 194 192 191 192 192 190 191 191 188 189 190 192 191 191 190 189 189 190 191 187 186 180 138  66  35  33  26  24  20  20  19  18  18  17  16  16  16  16  16  16  16  17  17  18  17  17  19  20  22  32  37  88 150 164 169 168 169 167 165 166 166 166 163 161 158 155 152 126 111 109 108 107 108 108 105 104 103 104
 195 201 212 224 215 207 204 200 195 196 195 194 194 194 194 194 194 194 194 192 192 191 193 192 190 192 191 193 192 191 191 192 190 186 172 107  51  38  27  26  22  21  20  19  17  18  16  16  17  18  16  17  16  16  15  16  16  16  16  16  17  17  19  21  24  31  54 128 162 169 168 167 167 166 166 166 165 163 163 158 155 130 112 110 107 106 109 107 107 106 106 101
 197 202 211 226 225 209 204 199 196 198 195 195 195 194 195 194 194 193 195 194 194 193 194 194 192 192 193 193 194 193 193 191 189 169  86  44  34  28  25  22  20  18  18  17  17  18  16  16  18  20  18  16  15  17  17  16  15  18  18  16  18  16  15  17  18  23  30  50 137 166 168 169 168 165 166 165 166 162 161 159 157 140 114 110 108 110 109 108 107 105 107 107
 197 200 206 226 244 216 203 200 197 198 197 199 198 196 197 194 196 195 196 197 196 195 196 193 193 196 194 196 194 194 194 189 162  66  40  32  28  24  25  22  21  18  18  17  16  18  16  17  20  19  19  17  17  18  16  16  14  15  16  16  16  15  15  16  18  19  21  29  53 133 166 169 169 170 168 168 167 165 161 162 159 144 118 109 109 108 110 109 108 106 107 105
 198 200 202 216 232 217 204 203 201 200 198 198 200 200 200 200 199 200 199 197 197 198 197 195 196 195 196 196 195 194 194 154  71  40  33  32  29  28  27  24  24  23  21  18  18  18  19  20  23  22  22  18  17  18  17  18  15  16  15  15  15  16  15  16  16  18  18  22  29  51 141 165 170 172 170 169 167 166 163 164 161 149 118 113 110 109 109 108 106 106 107 105
 198 200 203 214 233 220 206 204 202 201 201 202 203 204 204 206 206 204 204 200 200 200 198 198 196 196 198 198 197 193 183  76  49  37  37  34  34  35  35  31  28  23  22  18  18  19  20  22  24  23  22  22  22  22  18  19  16  18  15  16  17  17  15  17  17  17  17  18  23  30  59 143 167 170 169 169 170 168 167 164 161 153 123 116 111 110 110 108 108 107 108 107
 198 199 203 216 236 221 207 202 202 201 203 202 204 205 205 205 203 203 203 200 201 201 200 200 199 198 200 199 198 190 113  55  47  41  41  42  42  42  43  40  35  28  25  23  20  21  22  25  27  26  26  25  27  26  24  22  20  22  20  18  18  17  15  16  18  18  19  19  21  24  31  76 157 170 169 170 169 168 168 166 163 156 128 116 111 109 110 108 109 110 105 105
 197 200 200 211 236 221 205 202 202 202 203 202 203 203 201 201 201 200 201 202 201 200 199 199 200 200 200 199 196 145  57  48  42  42  42  47  48  48  47  47  45  35  28  24  23  25  27  28  31  31  26  29  28  30  26  24  23  21  21  18  18  17  16  17  17  17  18  19  18  22  25  34  95 162 170 170 170 170 167 167 166 160 133 116 111 108 109 108 110 109 107 105
 196 198 201 209 232 220 206 201 201 200 201 203 200 201 200 201 201 199 200 201 201 199 199 198 200 200 197 196 184  70  58  49  43  44  44  51  50  48  44  43  43  42  32  28  27  29  31  33  39  38  33  32  32  31  26  25  26  24  22  22  20  20  17  16  18  20  19  23  22  23  25  30  41 111 164 170 169 167 166 167 165 158 139 117 111 111 110 110 110 109 107 108
 194 197 199 204 216 216 206 201 202 200 201 200 201 200 199 200 201 199 199 200 200 198 199 197 198 197 195 194 118  55  52  48  45  49  49  48  48  47  44  41  40  37  34  33  31  30  37  43  45  43  39  37  38  35  29  28  28  28  24  22  23  23  22  19  22  23  26  24  25  26  30  33  36  51 139 164 169 168 165 166 165 160 142 120 112 110 110 108 107 108 107 108
 193 195 200 200 205 216 209 203 202 200 200 199 200 199 197 198 199 199 198 199 198 199 200 199 198 199 197 183  72  49  49  49  56  56  51  50  49  49  43  42  44  42  42  41  40  40  45  50  57  50  41  40  41  42  37  32  30  32  27  25  26  26  28  24  26  26  30  30  34  34  38  40  40  47  90 162 168 168 168 166 165 161 147 122 112 111 111 109 109 108 108 106
 196 196 199 199 202 218 214 204 202 200 200 199 200 199 197 199 200 199 198 199 200 200 200 200 199 199 195 142  55  51  54  60  61  57  52  51  54  53  50  47  51  53  56  57  58  60  62  65  73  64  56  46  46  49  50  44  39  38  38  34  32  34  32  35  38  39  46  48  52  50  49  52  49  51  63 142 167 169 168 168 166 162 153 123 112 111 110 108 107 108 106 106
 194 196 197 198 202 212 212 205 201 199 200 199 199 197 198 199 200 199 199 199 199 199 199 199 199 197 182  82  53  59  62  65  64  60  60  63  61  64  61  63  67  72  78  81  79  77  79  84  89  81  72  64  57  61  60  54  50  48  51  50  48  50  53  59  62  67  70  75  70  64  59  58  57  54  59 106 162 167 167 166 167 163 155 128 116 112 110 109 111 110 109 108
 194 195 196 198 201 210 211 203 200 201 200 201 199 198 199 198 197 198 198 198 198 199 197 198 198 193 135  64  59  62  67  70  71  74  76  73  78  82  83  85  90  95  98  96  94 101 105  99 102  94  85  79  74  77  77  73  69  68  69  66  65  70  77  84  88  92  94  98  92  84  76  69  63  59  58  77 155 166 169 168 167 165 158 132 116 111 109 109 108 110 107 109
 194 193 195 195 198 204 208 201 199 199 199 198 198 199 199 198 197 198 199 198 198 199 198 197 197 184  83  64  58  63  71  77  83  82  84  88  99 104 107 107 105 105 108 111 119 123 120 114 115 108  98  91  90  95  96  89  86  84  84  86  85  87  95 101 106 108 108 111 112 105  93  85  74  65  58  60 121 164 167 167 166 164 160 136 120 111 111 109 109 110 107 107
 192 195 194 195 196 203 206 200 197 197 197 196 197 198 198 198 197 197 198 197 196 195 197 199 195 142  74  63  61  68  78  86  88  89 101 109 115 120 122 115 112 115 122 129 134 135 131 127 128 117 107 103 103 108 109 102 101 101 101 105 102 103 108 115 118 116 120 123 121 119 111 100  90  80  61  56  87 159 168 167 165 164 160 140 116 112 112 109 109 110 108 106
 194 192 194 193 196 199 205 198 198 196 197 198 197 196 198 197 198 196 197 197 197 197 197 197 187 101  66  59  61  72  84  93 100 109 114 115 120 126 125 122 122 125 128 138 143 145 143 139 138 127 117 112 112 117 122 119 116 118 116 118 119 117 122 127 126 127 126 130 128 125 120 113 107  93  71  56  66 141 164 165 164 162 162 145 120 115 111 111 111 108 109 108
 194 193 192 195 194 200 202 197 195 195 197 197 197 195 197 195 196 196 196 196 196 194 196 195 171  78  57  55  62  72  87 102 110 114 114 116 121 124 126 127 127 128 131 138 141 146 150 147 144 135 129 122 122 127 130 129 127 131 130 128 130 129 132 133 134 132 131 132 133 130 125 120 117 107  86  65  60 106 161 165 165 164 164 148 121 117 114 112 109 108 109 109
 192 193 193 192 193 197 204 200 197 198 194 196 195 196 195 195 197 194 196 196 195 196 195 192 147  66  54  53  62  75  94 107 110 114 115 117 120 126 128 131 128 125 128 136 137 146 150 148 145 138 134 130 131 135 136 137 138 138 137 135 138 133 135 138 137 135 133 132 132 128 125 122 121 115 100  74  58  77 157 163 164 164 161 152 123 115 113 114 112 110 108 109
 192 191 193 192 192 196 200 198 195 195 195 196 197 195 197 194 195 195 196 195 195 196 193 191 120  62  55  54  64  84 101 111 112 111 113 116 117 124 125 128 126 124 130 138 140 139 142 142 142 141 141 141 142 141 140 144 141 139 139 138 140 135 135 134 133 136 133 134 130 127 124 123 122 120 111  86  61  61 136 161 164 161 161 156 127 116 113 113 110 111 107 109
 191 191 193 193 193 195 199 202 198 194 195 195 196 194 194 194 196 197 196 196 194 192 193 187  89  56  52  55  69  87 101 109 111 109 112 111 116 120 124 126 126 129 132 134 135 134 138 139 136 137 140 141 141 140 139 144 144 143 141 141 140 135 132 130 129 133 132 130 128 126 123 122 122 117 114  97  69  57 100 160 165 163 161 158 129 116 112 112 112 110 110 110
 192 194 194 194 194 195 198 202 199 197 197 196 196 196 197 195 196 198 196 198 196 194 193 172  71  57  54  59  73  88 100 108 109 108 110 110 114 118 122 124 123 127 124 128 130 133 137 138 136 136 137 136 134 136 136 140 140 141 141 138 138 132 131 130 131 131 129 128 127 123 123 123 121 117 115 104  81  59  79 157 165 165 162 160 136 117 112 112 113 109 109 109
 194 195 196 195 196 198 199 200 200 199 199 199 198 199 199 199 199 198 197 197 198 197 194 142  68  57  54  60  78  90 100 103 111 109 112 112 113 116 119 119 122 122 124 123 127 129 134 136 137 135 134 134 134 133 132 137 139 137 141 137 137 133 131 132 131 129 128 126 124 124 122 120 119 116 116 109  88  65  65 144 163 167 167 161 141 118 114 114 113 111 108 110
 195 195 197 196 196 197 198 199 201 200 200 198 198 199 199 200 200 198 199 197 199 198 193 117  62  54  54  62  77  89 101 103 104 107 109 112 113 114 117 117 117 121 123 124 125 128 132 134 135 133 133 133 132 132 130 130 133 136 136 136 138 135 136 135 132 131 131 128 128 125 121 119 118 116 117 114  97  68  62 122 163 166 166 162 145 122 115 113 111 111 108 109
 195 196 196 196 196 197 198 198 202 200 200 198 199 198 198 200 200 200 199 199 198 197 190 100  60  52  57  65  78  92 101 103 104 102 106 109 111 110 114 115 117 121 122 124 124 128 130 133 134 132 131 132 131 131 125 126 129 133 130 128 136 136 133 134 132 131 131 128 128 125 123 122 120 118 117 115 102  75  62 109 161 165 165 162 151 122 115 113 112 113 110 110
 195 195 195 197 196 197 200 199 203 202 200 198 200 199 198 199 199 199 197 199 199 196 189  84  54  52  60  65  76  92 101 104 102 101 104 107 105 107 111 116 117 120 123 123 124 126 128 132 131 131 131 128 129 128 126 128 129 131 132 134 136 135 137 137 136 134 132 130 130 124 122 120 120 118 115 115 107  84  61  93 159 166 166 165 156 125 117 111 111 112 110 111
 196 195 196 196 196 197 199 200 201 203 200 197 198 199 199 200 199 200 198 199 200 198 181  72  54  50  59  66  80  91 100 102 101 100 102 105 104 105 112 114 117 119 122 125 127 126 128 132 134 134 131 131 128 129 128 125 128 132 135 138 139 137 137 139 140 137 135 132 130 126 124 121 119 118 115 114 106  85  64  80 156 164 166 165 158 127 117 112 113 113 111 111
 199 197 199 198 199 200 201 201 202 206 201 200 200 201 201 201 200 199 201 200 200 198 179  71  57  54  58  68  85  96 101 102 100 100 101 104 109 109 113 115 117 121 122 126 128 129 132 135 136 136 132 131 132 129 130 129 131 134 135 135 138 137 138 139 138 139 139 134 133 129 124 122 120 118 117 114 109  89  66  77 161 169 169 166 161 131 117 113 114 112 109 110
 198 199 200 200 200 202 201 202 204 206 201 201 202 202 203 201 200 200 201 201 200 200 173  71  56  53  58  70  86  98  99  98  99 101 103 105 109 113 116 116 119 123 125 127 129 130 131 133 136 137 137 132 131 133 132 132 133 133 134 135 136 137 139 140 139 138 137 137 135 130 126 123 122 118 114 111 103  92  64  72 159 169 170 169 163 135 118 113 111 113 111 110
 199 200 199 199 200 202 202 202 205 208 204 203 204 202 201 202 202 202 202 202 202 201 171  67  54  52  57  74  89  95  96  96  96 100 102 106 112 114 116 117 120 124 127 126 128 130 131 135 134 136 136 134 133 135 131 132 130 131 133 136 138 139 140 140 140 140 137 137 135 133 130 127 122 116 111 106 100  95  67  82 162 168 169 167 164 143 121 116 113 110 111 108
 200 200 201 200 201 203 202 202 206 207 205 206 205 203 203 205 204 203 205 203 202 202 167  68  55  51  61  78  89  93  93  92  95  98  99 104 108 114 114 118 121 124 125 126 129 128 129 132 133 131 132 131 131 133 131 130 128 129 131 133 136 135 139 138 137 135 132 131 131 131 129 126 121 115 109 102  95  93  67  77 161 171 170 167 166 148 121 113 111 109 111 112
 204 202 202 203 203 203 204 206 208 207 205 205 205 205 204 204 207 206 206 205 203 203 171  64  54  51  59  80  88  91  88  89  93  95  98 105 111 115 116 119 117 120 120 119 123 123 121 122 126 127 128 129 131 131 129 129 130 130 129 131 130 129 129 129 128 126 123 122 120 122 118 116 115 106 100  97  91  90  66  78 163 171 171 169 168 152 121 114 112 112 110 111
 203 203 204 203 206 204 205 207 209 208 207 206 206 206 205 205 205 203 205 206 204 203 173  68  54  53  63  81  88  89  87  86  90  92  93  95 102 106 104 106 107 108 108 109 112 111 110 113 114 120 122 126 128 127 128 126 126 128 128 128 126 122 121 118 115 114 108 104 106 104 103 100  96  87  82  87  83  87  65  78 164 172 173 170 169 158 128 116 112 113 111 111
 204 205 206 205 207 206 206 207 211 210 208 208 207 207 208 208 209 207 208 208 206 204 182  70  54  52  64  84  85  87  86  84  87  86  78  81  85  89  90  93  91  92  90  94  94  98  98 102 107 111 116 118 123 124 122 122 123 123 123 121 118 114 110 102  98  94  89  84  81  78  78  74  71  68  62  61  70  79  62  88 166 173 173 172 170 161 130 118 113 111 111 110
 205 207 208 209 208 207 207 207 210 211 208 207 207 207 209 210 211 210 209 208 208 205 189  70  53  49  64  84  86  84  83  84  84  68  58  59  63  66  68  65  65  68  69  74  78  79  82  91  96 100 106 111 115 118 116 116 117 116 117 118 112 102  94  82  72  62  59  52  50  52  51  51  51  53  52  46  49  71  59  84 166 173 173 173 171 165 134 118 115 113 112 113
 205 205 209 211 208 208 208 208 209 211 208 209 210 209 211 211 211 210 209 210 208 206 189  75  55  53  68  87  87  81  84  80  65  50  46  43  46  48  47  42  42  42  44  49  52  54  62  75  83  90  98 102 106 110 106 107 111 110 111 108 103  89  75  65  52  41  39  35  33  33  32  36  40  45  51  49  49  65  58  84 167 174 174 173 173 166 138 119 113 114 112 114
 207 207 209 210 209 208 209 209 209 210 210 210 210 210 210 211 211 211 210 210 209 208 198  80  55  54  69  88  87  84  82  65  47  48  43  42  38  35  35  33  32  32  31  34  33  39  44  55  66  79  86  95  98 100  99 101 106 104 103  99  92  80  63  51  41  34  32  28  28  27  31  33  36  39  50  61  64  70  58  92 170 175 175 173 173 170 146 122 117 115 112 110
 209 208 209 214 211 208 209 210 212 211 212 211 211 211 211 211 212 211 212 211 210 209 199  92  60  58  71  91  88  85  80  64  55  51  49  45  38  34  34  31  32  31  30  30  30  33  36  43  55  69  80  86  88  90  93  98 100  95  92  87  84  72  59  47  38  35  35  37  41  44  49  53  51  51  57  65  66  68  59 106 171 175 175 174 175 172 151 123 117 115 114 113
 209 208 212 214 213 210 210 211 211 212 212 212 212 211 212 212 212 213 212 212 212 211 202 116  62  56  72  91  90  88  83  68  60  54  51  48  40  41  45  43  42  41  37  37  36  35  36  41  50  59  70  78  81  81  86  92  94  91  86  87  81  70  57  48  50  50  49  50  55  58  61  60  64  68  69  66  67  66  60 128 172 176 176 174 173 171 157 124 118 112 112 111
 211 212 213 214 212 210 214 211 211 211 212 212 212 212 212 213 213 213 213 212 213 212 205 134  67  55  69  93  91  89  80  68  62  57  56  53  51  54  56  54  50  47  44  43  45  44  44  44  48  58  68  74  74  77  81  88  91  87  85  84  79  67  61  58  56  46  49  51  57  57  62  63  66  72  74  71  69  69  68 145 175 178 178 175 174 172 161 127 117 115 112 112
 210 209 211 213 213 212 212 210 212 211 211 210 212 211 212 212 212 212 211 212 212 211 208 155  73  56  66  95  93  85  76  68  63  61  65  61  59  53  52  52  52  49  46  43  39  42  44  49  52  56  64  68  72  74  81  89  92  89  86  80  71  65  61  52  44  44  49  53  60  65  68  67  66  68  74  80  76  79  80 155 171 173 175 174 174 172 165 131 117 116 110 114
 208 208 210 210 210 210 210 211 212 212 211 211 211 212 211 211 212 211 211 210 208 208 206 183  92  60  67  95  94  83  73  68  69  63  64  55  52  54  58  56  55  54  50  46  42  38  41  45  49  52  58  62  66  75  85  95  98  93  85  77  68  60  51  46  42  42  44  48  53  59  68  71  71  68  69  77  82  89  85 130 134 139 162 174 173 174 168 138 119 116 112 112
 208 207 209 209 209 209 209 209 209 210 210 211 210 211 210 211 211 210 211 207 188 161 163 164  94  62  62  92  93  84  76  71  70  64  53  49  54  59  58  54  51  49  47  43  42  38  38  40  44  49  53  58  66  80  97 109 115 104  86  72  60  54  45  41  42  41  41  39  44  51  62  66  70  69  65  73  83  92  80  96 110 107 129 168 172 172 167 139 120 115 115 111
 208 206 209 210 208 208 210 207 208 209 209 209 210 210 210 209 210 208 209 194 128 120 119 106  85  67  62  88  90  83  82  76  66  55  50  54  56  57  55  50  45  42  39  36  38  36  36  39  41  44  50  56  67  93 118 131 136 120  89  70  59  50  43  41  42  43  33  27  27  28  34  44  53  59  63  71  85  92  79  86  83  75 111 166 172 171 167 143 120 115 114 112
 207 207 209 210 209 207 207 209 208 208 209 211 210 209 210 211 210 208 206 170 103  90  91  89  84  78  62  86  92  85  81  74  65  54  54  53  50  48  41  32  33  32  33  29  41  39  37  39  40  46  49  53  67 104 134 149 152 136  96  69  62  51  46  51  61  66  37  30  26  24  26  36  41  42  56  70  85  93  77  83  76  71 133 168 173 172 168 150 122 113 110 113
 206 208 207 208 207 206 207 206 207 207 207 210 210 209 208 207 207 208 205 160  83  72  72  74  79  80  65  83  92  86  82  72  63  55  46  42  41  46  46  32  34  30  27  27  51  47  40  38  43  48  48  54  74 116 141 158 160 144 106  72  65  55  50  52  66  74  49  28  22  23  28  59  49  47  57  75  90  96  83  85  75  80 150 169 172 172 168 156 124 114 112 113
 205 205 204 206 205 205 204 205 207 206 207 208 208 208 209 207 207 204 203 158  79  71  71  78  76  75  66  85  91  86  83  75  64  56  47  43  48  59  64  42  28  25  25  34  48  37  34  36  43  45  49  59  95 121 146 162 164 148 121  79  64  56  49  44  47  57  53  36  28  32  54  60  58  65  77  85  94 100  88  85  68  87 158 171 172 171 168 158 126 116 113 111
 203 202 202 204 204 205 205 204 204 206 205 204 208 206 207 206 206 205 202 157  83  72  70  83  80  72  65  85  95  90  86  80  75  70  65  54  52  55  63  58  41  32  33  40  37  36  39  42  46  46  53  73 105 125 147 158 159 149 126  97  72  59  50  47  44  46  46  45  47  50  56  62  71  83  90  96 100 104  89  86  64  99 162 171 174 170 169 160 129 117 113 112
 203 201 201 203 203 203 204 205 203 204 204 204 204 204 203 204 204 204 203 169  85  74  75  86  85  71  64  88  96  93  90  85  84  82  80  71  58  52  52  53  48  40  42  42  39  39  40  42  46  51  67  92 110 123 144 152 156 149 130 109  81  64  55  50  46  49  51  54  58  64  68  73  82  90  98 100 105 105  92  85  66 114 165 172 172 168 168 162 133 116 113 111
 202 201 202 202 203 202 202 202 203 204 204 202 204 204 205 203 203 203 203 191  92  71  78  82  76  59  62  85  95  94  90  89  88  86  85  79  70  62  58  54  51  47  46  43  42  42  42  45  52  64  85 104 112 123 141 150 151 145 132 115  95  79  69  61  56  54  58  61  67  69  73  80  83  91 102 102 103 106  92  83  76 129 166 170 170 167 167 164 136 117 113 112
 201 200 200 202 200 201 202 201 201 201 203 203 204 204 204 203 203 203 201 198 124  74  80  81  70  62  78  85  96  96  94  92  92  92  89  85  80  71  65  61  56  52  50  47  48  48  50  55  65  81  99 109 109 121 138 149 150 148 133 116 102  88  81  74  72  69  74  71  74  76  82  85  92 101 106 104 106 106  94  87  88 148 166 169 169 168 166 164 141 117 113 112
 199 199 200 200 201 200 199 200 201 201 201 200 201 201 201 201 204 204 202 199 172  84  79  81  68  70  83  81  95  96  96  97  98  96  92  91  85  80  77  70  63  61  61  59  60  62  64  70  80  91 104 109 111 118 134 148 152 150 138 114 107  99  94  90  87  89  87  88  89  91  93  97 103 106 107 108 107 105  94  84 106 161 167 170 168 166 166 164 144 119 113 110
 199 198 200 200 200 199 199 199 200 200 201 200 201 201 201 200 201 200 199 200 193 130  85  84  68  71  83  77  93  98 101 102 101 100  98  96  92  87  85  83  77  74  71  71  73  73  76  79  88  97 106 110 112 122 133 145 153 150 137 119 110 104 100 101 100  97  96  98  99  98 103 105 107 107 109 110 106 103  96  87 124 164 167 168 168 166 166 164 149 119 112 110
 199 199 199 197 198 201 197 198 200 199 200 200 199 199 200 201 200 200 199 200 198 179  94  85  71  69  83  71  92  99 101 107 103 104 104 101  96  91  88  88  84  80  77  80  81  83  84  86  93 100 107 110 117 124 133 147 156 153 141 123 111 105 100 105 105 104 104 104 103 102 104 106 105 107 109 111 110 104  97  92 140 166 168 166 165 164 163 162 153 120 114 113
 199 197 198 199 199 198 198 198 200 200 200 200 200 200 200 200 200 201 200 200 199 194 131  89  78  65  78  72  88  98 103 107 104 104 105 102  97  92  88  85  84  83  85  89  90  91  90  90  96  98 106 110 118 125 138 153 163 156 146 130 115 105 101 105 106 105 109 107 105 104 108 109 110 110 115 110 111 107  95 101 156 166 169 167 166 166 163 162 155 126 113 111
 199 197 199 198 200 199 199 200 201 199 200 199 201 201 203 204 202 202 201 203 202 199 173  93  88  73  68  76  83  99 102 107 109 107 108 104  99  95  92  86  88  90  90  94  92  94  89  91  93  97 105 112 121 131 147 157 166 161 154 139 119 103 100 101 104 106 111 112 110 114 115 113 113 114 114 114 111 106  94 120 164 169 169 166 167 168 166 164 157 129 116 111
 200 199 199 200 199 199 200 201 201 202 202 200 200 202 203 202 201 200 202 201 203 202 194 122  89  85  84  80  80  98 100 105 108 106 110 107 102 101  97  95  97  96 100 100  97  95  93  93  92  91  98 108 125 139 152 160 168 165 158 148 131 106  96 101 106 107 108 111 114 117 118 119 118 114 114 114 115 106  98 139 167 168 168 169 170 169 166 163 161 134 115 109
 198 201 199 198 199 198 199 201 201 200 200 201 201 201 201 202 202 201 201 201 200 201 196 171 100  88  93  87  78  96 100 106 108 109 110 111 112 108 104 102 104 106 103 105 102  98  94  92  85  83  90 107 125 144 154 160 163 160 159 157 140 113  95 101 102 106 107 109 113 119 121 122 119 116 115 115 108 102 105 156 168 169 168 167 168 167 166 163 163 139 117 111
 196 197 198 198 199 198 199 199 199 199 199 200 200 200 201 200 200 201 200 202 202 200 198 192 143  98  97  90  76  89  95 103 106 109 113 116 116 113 111 110 112 110 107 106 102  98  92  84  78  88 100 111 127 144 149 154 152 147 152 157 143 120  98  97  98 102 105 108 112 117 120 123 120 117 116 113 108 103 130 163 168 170 169 167 166 166 165 162 162 145 117 112
 196 195 197 197 199 198 199 198 200 200 201 201 200 199 200 199 201 200 200 201 200 201 200 198 187 136 100  90  81  84  94 100 105 107 114 115 116 116 115 114 112 112 110 106 101  95  86  77  74 107 114 114 122 133 139 143 141 139 143 150 140 124 103  93  96  99 103 108 112 119 119 120 118 116 115 111 107 107 155 168 170 168 169 167 167 166 165 164 162 147 120 110
 197 200 198 197 198 199 198 199 199 200 201 200 200 200 200 201 202 201 201 200 201 201 199 200 199 186 121  91  79  80  92  98 104 108 110 113 114 115 116 115 115 112 110 102  99  87  80  75  77 111 111 111 115 123 128 134 134 132 137 143 135 122 107  96  95  98 100 103 109 114 117 115 112 111 112 110 104 131 165 171 171 167 168 168 168 167 164 165 162 150 121 114
 198 200 198 199 200 199 198 200 200 200 201 200 201 201 201 200 200 200 200 200 200 201 200 200 199 196 178 121 102  90  90  92  99 107 108 109 109 110 114 113 110 109 104  98  90  83  79  75  76  98  99 101 103 108 120 126 124 126 128 138 132 117 101  99  96  94  98 100 108 109 113 110 112 111 109 106 105 152 167 170 170 169 169 169 168 167 166 166 162 154 124 112
 199 198 199 199 201 201 200 201 200 201 202 201 200 200 202 200 201 202 201 200 201 199 201 200 200 200 197 192 188 123  96  91  97 103 105 106 107 106 109 109 107 104 100  92  84  85  87  82  76  82  83  84  88  95 108 115 115 116 120 125 120 101  95 104 104  95  94  97 101 106 107 106 107 107 106 102 107 160 169 173 171 168 169 168 168 167 165 165 163 159 130 114
 201 201 200 199 199 200 202 202 201 201 200 202 202 200 200 201 201 202 202 201 202 201 201 201 201 201 199 199 194 139  95  91  92  98 101  98 103 101 102 103 101  96  92  86  85  90  97  92  79  71  66  66  69  78  89  96  97 100 104 104  94  84  98 112 110 103  96  96  99 103 104 104 105 102  98  95 110 163 171 171 172 170 170 168 169 169 167 166 165 158 134 113
 201 201 199 200 200 201 201 202 202 202 202 201 202 201 201 200 204 201 202 201 202 202 202 202 201 201 200 199 195 155  92  93  91  95  97  98  98  99  99  98  95  93  87  86  94 103 105 104  89  69  56  50  54  62  71  81  81  84  91  87  75  81 103 118 116 110 102  99  98  99 100 101 102  98  94  91 114 166 171 170 171 171 170 168 169 169 166 166 164 161 140 112
 200 200 201 200 200 201 202 201 201 201 201 200 201 201 202 201 202 202 203 201 202 203 203 203 202 201 202 199 198 171  88  89  89  90  89  90  94  93  92  90  90  92  89  93 104 110 109 109  95  67  53  48  45  51  59  70  72  74  77  71  64  76  99 116 118 116 109 101  98  96  95  98  98  96  90  88 125 165 172 173 172 169 170 171 169 168 167 166 165 161 140 113
 200 201 201 201 201 201 200 201 201 201 201 201 201 202 203 203 202 201 203 203 203 204 202 202 200 202 200 200 199 174  89  85  83  84  88  89  88  88  86  88  90  92  92 101 110 109 106 105  87  60  46  41  37  39  49  62  64  62  60  53  54  61  84 105 111 108 106 101  99  97  97  98  95  92  89  88 102 163 167 170 172 171 168 168 167 167 168 165 165 161 145 116
 200 201 200 200 200 201 200 202 202 203 202 201 200 202 203 201 202 203 204 204 202 201 202 202 201 200 202 199 198 186  95  83  81  81  85  87  88  86  85  87  88  88  93  97  93  93  91  88  75  53  40  35  31  33  42  54  54  44  43  41  42  49  71  87  88  87  88  93  95  99  95  96  95  92  89  73  44  60 128 166 169 170 170 167 169 168 168 165 165 164 153 120
 199 199 199 201 201 200 199 200 201 200 201 201 201 204 202 201 201 201 203 203 202 202 201 201 200 200 200 200 198 191 100  80  82  80  83  87  85  87  87  86  88  86  80  75  74  78  75  74  59  45  39  34  30  31  36  46  44  35  34  31  34  43  59  67  66  62  64  76  88  96  96  95  91  90  85  60  33  26  34  85 156 167 169 169 169 170 168 168 165 163 155 121
 199 200 198 200 200 201 201 200 200 203 201 202 201 202 202 202 203 202 202 201 202 201 201 202 201 200 198 197 187  99  61  73  80  82  83  84  85  82  83  85  86  79  61  55  56  65  65  64  50  46  39  37  33  32  32  42  37  31  32  30  37  45  51  58  57  53  52  55  76  89  94  91  91  88  84  47  22  18  19  26  50 138 166 167 169 169 167 167 166 162 158 124
 200 200 200 201 200 201 201 202 201 201 202 203 201 202 202 201 203 204 201 201 202 201 201 201 200 201 199 184  91  42  38  63  75  78  81  83  85  84  85  85  81  65  52  46  48  54  60  55  47  47  44  40  35  32  30  37  34  34  36  35  41  49  54  58  54  50  47  49  67  86  91  90  88  85  74  37  16  17  16  18  23  35 118 164 167 168 167 165 165 164 158 132
 200 201 201 200 200 200 200 201 202 202 202 203 201 202 201 201 202 203 202 203 204 202 202 201 200 197 174  58  35  24  26  51  70  75  77  81  83  82  84  83  75  60  50  48  52  53  57  51  52  53  46  42  40  35  33  36  38  40  45  46  52  52  59  60  58  53  53  55  65  84  90  88  85  80  61  25  13  12  14  14  15  20  32 116 163 166 165 165 166 161 159 135
 201 200 200 200 201 202 199 201 204 203 202 203 201 202 202 201 202 201 201 201 203 200 200 199 199 144  58  33  22  17  19  38  65  73  74  82  78  81  83  82  70  56  56  53  54  56  58  59  59  58  52  52  54  55  56  56  59  58  53  61  63  64  63  64  54  53  52  61  70  83  90  85  82  74  47  18  11  11  14  16  13  11  17  35 122 164 165 167 165 164 159 140
 198 200 200 199 200 199 200 200 201 199 201 201 201 202 201 201 202 201 200 202 200 200 199 197 139  45  33  21  16  16  16  25  52  66  71  77  80  82  83  80  68  63  59  52  49  47  47  49  51  52  51  51  53  56  57  64  63  59  60  63  62  59  53  51  59  57  57  64  73  84  85  84  80  64  32  13  10  12  14  16  14  10  12  22  38 125 163 166 164 166 160 144
 196 198 197 196 196 195 199 197 199 197 200 199 198 200 200 199 199 197 199 198 197 196 197 144  46  32  22  16  14  13  13  18  41  58  69  73  80  80  80  80  73  65  59  52  52  52  49  50  45  42  45  45  45  45  48  52  54  54  55  57  58  58  60  65  76  71  67  72  79  86  86  82  75  52  21   9   9  10  13  17  17  12  10  13  23  42 140 161 162 160 160 147
 194 192 195 197 195 194 198 196 195 196 196 196 197 196 196 195 195 194 195 195 195 190 136  42  32  22  18  13  12  11  12  15  27  45  60  70  73  75  77  78  73  67  62  60  64  63  62  64  59  53  49  49  44  41  40  40  45  49  54  62  64  67  72  80  85  83  80  79  83  87  85  78  61  37  14   8   8   9  13  14  18  13   9  11  18  29  62 151 160 159 160 151
 190 192 194 194 192 193 196 195 194 194 194 193 192 195 195 194 195 195 193 192 191 130  49  33  26  18  14  12  11  11  11  12  17  30  47  62  68  71  73  77  76  70  64  66  68  68  68  67  61  52  52  56  56  53  51  50  58  58  64  63  63  71  79  85  87  87  85  80  84  85  79  69  49  23   9   6   7   9  12  14  14  15  11   9  13  20  32  93 155 160 159 151
 190 191 190 193 192 193 190 193 193 192 194 192 192 192 191 192 195 193 191 190 177  58  37  25  21  17  14  11  11  11  10  12  14  30  37  51  61  68  70  75  75  71  67  67  72  70  69  71  69  64  55  54  52  54  54  55  55  55  60  64  76  82  83  83  86  88  83  80  81  81  77  62  36  13   6   6   6   9  12  13  14  13  12   8  10  14  23  38 135 159 158 154
 188 188 189 190 189 190 188 192 190 192 191 193 189 188 188 190 193 192 188 187 108  43  31  26  21  16  12  11  11  11  10  11  13  39  37  38  52  60  67  69  68  64  67  71  72  73  69  68  68  67  66  61  57  56  54  55  58  60  68  72  80  78  79  81  83  86  79  76  78  78  71  52  24   9   6   5   6   8  11  14  14  15  14   9   9  13  18  33  80 151 156 154
 188 187 187 188 187 188 188 188 188 190 189 188 189 186 188 188 188 187 185 109  49  35  25  23  21  15  11  10  11  10  10  11  11  42  47  31  42  53  60  66  62  62  65  68  72  70  67  65  62  59  62  60  59  56  55  58  58  60  63  66  68  74  79  83  83  76  72  70  73  74  63  41  14   8   7   4   5   9  11  12  12  13  14  10   9  10  15  23  36 138 147 146
 185 186 186 185 186 186 187 187 186 187 188 187 187 186 186 187 187 184 153  45  38  27  25  22  17  14  12  12  10   9  11  11  13  46  58  40  36  45  55  60  57  61  62  65  68  70  67  68  62  57  52  48  40  36  34  35  36  42  48  54  63  74  80  84  78  70  62  64  71  67  53  43  16   8   7   6   4   7  11  13  12  13  14  10   8   9  13  22  26 102 139 144
 182 182 183 183 185 184 185 185 184 183 183 184 184 185 183 184 182 179  93  35  31  26  25  20  16  12  11  12   8   7  10  10  14  43  62  55  37  38  48  56  58  59  59  64  68  70  70  71  69  63  57  48  41  34  28  32  33  41  50  63  73  80  82  81  75  64  61  61  64  58  54  51  20   9   6   5   4   8  11  13  11  13  15  12   8   9  11  18  25  60 131 134
 180 181 179 179 181 183 183 182 182 181 181 181 181 182 179 181 178 173  55  32  27  24  21  17  16  12  11  10   8   7   9  10  14  43  63  62  54  42  42  49  57  53  56  63  68  69  73  74  71  69  66  61  58  52  50  47  47  51  64  75  81  81  77  76  75  63  60  53  53  53  64  59  26  10   6   5   4   8  10  10  10  11  14  14   8   7  10  15  19  26  47  84
 173 171 172 168 169 171 171 170 168 167 164 163 162 162 157 156 154 136  37  27  26  24  19  18  15  11  10  12  10   9  10  10  16  46  63  64  63  49  35  40  47  45  52  56  63  70  72  74  74  72  71  64  60  61  57  50  57  62  67  77  80  79  67  69  62  56  51  48  45  56  71  63  30  14   8   4   6   8   9  10   9  11  11  10   8   8   9  13  16  19  21  23
 125 124 119 118 123 120 121 120 122 121 120 121 124 122 118 119 116  69  32  25  27  25  22  17  12  11  10  11  11   9   9  10  16  46  62  66  66  63  49  36  35  40  46  50  61  65  66  70  73  74  68  64  65  62  57  59  60  64  64  69  68  70  57  56  47  49  45  38  46  67  73  64  33  16   6   5   6   8  12  12  13  12  13  11   8   7  11  15  16  15  15  15
 109 107 108 111 110 111 111 112 112 111 110 111 112 110 107  95  47  32  26  24  25  19  19  16  11  10  10  10  10  10  10  10  17  46  62  66  68  67  57  42  32  29  34  45  50  52  61  59  67  68  63  61  64  59  55  57  59  59  57  60  63  54  43  43  40  39  32  32  59  71  74  63  35  18   8   5   5   8  10  11  14  12  11  10   7   6   9  12  17  12  10  12
 108 108 106 106 104 106 106 107 107 108 109 109 107 105  75  39  30  22  22  21  23  19  18  17  13   9  10  10  10  10  10  10  17  44  59  66  68  66  64  52  38  27  24  33  41  47  54  45  49  55  56  57  60  54  51  54  53  53  55  52  49  46  39  33  32  30  28  42  74  79  76  63  36  17   7   5   6   8  10  11  11  12  11   8   8   7   8  11  14  11  10  10
 105 104 104 103 103 104 106 106 104 103 106 105 100  53  31  25  20  18  17  20  20  20  18  17  13  10  10  11   9   9   8  10  16  42  59  62  65  68  65  58  52  40  26  27  30  38  42  41  42  46  50  53  54  50  48  45  48  51  48  42  41  37  30  30  29  27  35  63  77  80  77  61  34  20   9   4   4   8  10  11  11  11  11  10   7   7   9  11  11   9   9  11
 104 102 104 104 104 103 103 105 107 104 103  78  35  30  22  18  16  15  17  19  20  20  17  14  12   8  10  10   9  10  10  10  19  43  56  61  65  67  66  64  58  51  38  29  26  27  35  40  38  40  44  47  45  41  41  40  39  39  37  34  35  29  25  23  25  33  56  74  79  81  76  55  34  20   8   4   4   7  10  11  11  12  11  12   8   6   9  11  11   8   8   9
 104 100 102 102 104 104 104 104 104  92  53  34  27  22  19  17  16  17  15  19  20  18  15  16  13   7  10   9   9  10   9  11  28  39  56  59  63  64  68  66  60  55  47  36  24  18  26  31  30  32  35  36  33  31  30  32  28  26  26  27  27  26  22  23  33  50  66  76  81  80  71  50  34  17   7   5   5   8  10   9  11  10  10   9   9   7   9  11  10   8   9   9
 105 100 101  98 100 101 103  98  69  33  29  21  18  18  17  17  18  15  13  18  20  16  17  18  12   8  10   8   9   9   9  10  34  36  52  59  61  61  65  66  63  57  48  43  37  24  20  21  22  25  27  24  25  21  18  17  18  18  14  18  20  28  30  48  58  65  72  75  81  77  68  46  35  14   7   4   4   9  10   9  10  10  11  11   8   8   8  10   8   8  10   9
 101  99  98  98 100  97  78  40  29  24  19  19  18  15  16  17  15  12  13  17  19  16  19  17  10   8  10   9   9   9   9  10  39  33  48  57  60  60  63  68  65  61  49  48  47  42  33  23  22  17  20  17  15  15  13  13  14  18  21  30  43  56  58  63  63  69  73  78  80  76  65  42  37  12   6   4   5   7  11  11  12  10  12  12   8   7   9  10   7   8   8  10
  98  96  96  98  90  52  33  25  21  19  18  18  17  16  16  14  13  12  12  16  18  17  18  16  12   8   9   8   9  10   9  10  32  37  46  53  58  63  63  64  64  62  55  51  48  50  48  45  38  34  35  31  29  32  28  33  41  47  53  62  67  68  64  65  63  67  74  80  78  72  61  40  34   9   5   4   4   7   9  12  12  11  12  12   8   6   8  10   8   8   8   8
  97  97  95  66  31  27  24  19  18  18  16  14  15  14  14  13  15  13  12  14  16  17  17  16  15   9  11   8   9   8  10  11  17  45  45  52  57  60  61  62  62  62  59  53  50  48  50  53  53  52  54  51  51  55  57  56  61  67  68  72  74  69  65  64  64  70  74  79  75  68  52  42  33   8   4   4   3   8  10  11  12  11  12  12  10   7   9  10   7   8   8   9
  96  89  48  23  23  20  19  18  17  18  16  13  14  12  14  15  15  12  10  12  15  15  17  15  14  10  10   8   8   7   9   9  12  40  42  51  59  59  59  62  62  61  62  54  52  50  51  53  55  55  58  58  59  64  66  65  66  72  75  74  70  69  63  63  66  71  75  78  70  61  48  50  28   9   4   4   2   9  11  11  11  10  13  12  10   7   9   9   6   8   8   9
  85  40  25  18  16  17  19  17  17  17  16  14  12  13  12  14  15  12  10  11  15  16  17  18  14   9   9   8   7   7   8   8  10  20  49  47  58  59  60  60  60  61  60  58  53  49  48  51  53  52  55  59  63  67  68  70  72  73  71  70  65  64  63  64  67  75  77  73  67  58  51  53  15   7   4   4   3   6   9  11  12  13  15  12  12   8   9   8   8   6   8   8
  29  21  20  16  13  16  16  18  14  14  12  12  13  12  15  13  11  10   8   8  15  15  17  17  15  11   9   8   8   8   8   9  10  14  45  51  54  58  61  62  60  61  61  58  55  51  49  49  50  49  48  55  58  62  65  70  70  74  69  66  61  63  64  66  70  73  73  68  62  55  59  38  10   5   5   3   3   7  10  10  12  12  13  13  12   9   8  12   9   9   7   7
  21  18  16  17  14  12  14  14  15  14  12  14  13  13  12  14  14  10  10   9  12  16  18  16  15  12   9   8   7   8   8  10  10   9  21  62  51  54  61  60  59  60  61  62  57  52  50  50  50  50  48  51  54  59  64  69  70  68  63  62  60  64  63  70  70  71  69  65  60  62  57  23   7   4   3   4   3   8  13  12  12  12  14  13  11   9  11   9   9   7   8   8
  16  15  15  13  13  13  14  13  13  14  13  14  13  15  12  12  14  10   9  10  11  15  16  16  14  12  10   7   6   8   8   8   8   9  13  29  70  55  57  61  60  62  61  62  61  57  51  49  47  48  48  49  50  54  59  62  62  57  60  62  60  62  65  71  68  70  68  63  58  67  41  12   7   5   3   3   3   6  10  14  12  15  16  13  12   8  10   8   8   9   8   7
  15  15  13  13  12  12  12  13  14  14  14  12  12  13  12   9   9   9  10  10  10  12  14  14  13  13  13   8   6   7   7   7   8   8  11  22  50  75  56  57  62  61  62  64  63  59  52  49  50  51  50  51  50  49  49  54  56  60  59  60  62  62  67  72  71  69  63  52  72  58  28   8   5   4   4   4   5   8  10  13  14  14  14  14  12   9   9   8   9   8   8   7
  15  13  12  10  10  11  13  12  12  12  14  12  12  12  12   9   8   8  11  11  10  11  13  14  14  13  11   9   5   7   9   8   8   6   7  14  34  57  78  64  56  58  58  60  61  58  55  51  50  52  55  55  53  53  54  55  58  62  61  60  63  65  67  69  69  60  48  58  67  43  14   6   5   5   2   4   4   9  11  14  13  12  13  14  13   9   8   6   7   9   7   6
  13  13  10  12  11  12  12  12  12  12  14  12  14  13  11  10  10   8   9  10   9   9  15  15  14  12  13   8   5   5   7   8   6   6   8  12  23  47  63  79  71  52  58  63  63  62  60  54  51  52  55  57  58  60  62  61  63  63  63  62  64  67  69  70  66  47  55  74  52  29   9   5   4   4   2   3   6  10  11  12  12  11  14  13  12   9  10   6   8  10   7   6
  13  12  12  13  12  13  14  12  12  10  12  12  13  12  11   9   9   8  10  11   8   8  12  12  14  11  12  10   5   4   7   6   5   5   7   9  17  36  53  65  76  80  54  55  64  66  60  58  55  50  50  54  57  61  59  62  60  59  58  59  64  66  68  62  51  65  77  58  38  16   7   4   4   3   2   3   5  10  11  10  12  10  14  11  12  11   9   5   8  10   9   6
  14  14  13  11  12  13  15  13  11  11  12  12  12  12  12  10  10   9  10  11  11   7  11  12  15  12  15  12   6   4   6   8   7   5   8   9  14  29  45  57  64  72  82  70  55  62  61  60  58  54  53  55  54  56  56  53  54  57  60  62  62  60  51  51  81  77  62  48  27  10   6   5   4   3   3   5   5   8  12  12  12  13  13  11  12  14  10   5   8   8   9   7
