P2
# Generated by OpenCV 3.4.0
92 112
255
 181 191 200 207 204 192 184 180 178 178 180 177 177 176 176 175 176 178 176 178 178 177 177 177 176 176 175 175 178 177 177 175 175 175 175 175 175 175 174 172 173 174 172 172 173 171 170 171 171 166 165 169 168 168 170 170 166 166 167 164 164 163 162 162 161 160 160 158 156 156 158 154 155 156 153 153 151 148 146 140 113 105 106 104 103 102 104 101 102 101 102 101
 187 205 237 247 243 224 196 187 184 182 182 180 180 178 179 179 180 179 179 179 179 178 178 178 178 178 179 177 179 177 178 179 177 178 176 177 176 177 177 174 175 175 173 174 173 172 172 173 172 169 166 170 169 170 170 170 168 168 168 166 165 165 163 164 162 161 161 159 157 160 157 157 155 156 154 154 153 151 148 144 120 108 106 105 103 104 103 103 105 103 101 102
 193 224 250 253 253 246 223 202 191 185 182 181 183 182 180 178 180 179 180 181 181 181 180 181 182 179 179 179 179 179 180 180 180 181 180 179 179 179 177 177 178 178 176 177 176 175 175 175 174 170 164 170 169 170 170 170 170 170 168 168 168 166 166 165 164 165 166 162 161 161 160 158 158 160 157 156 154 153 152 149 122 106 105 104 103 107 106 104 103 103 102 103
 195 230 253 253 253 252 242 217 196 189 185 184 183 184 183 182 182 182 184 183 183 184 183 183 183 181 181 181 181 181 182 182 180 180 180 181 179 178 178 179 178 178 177 177 176 172 171 174 172 167 163 170 169 169 170 170 171 171 171 170 170 168 169 168 166 166 166 164 162 160 162 160 158 160 159 158 156 156 153 151 131 111 106 107 107 104 105 106 106 107 105 103
 195 228 252 253 253 253 244 226 203 192 189 188 188 186 186 185 185 184 183 182 185 184 186 185 184 183 185 185 182 183 183 183 182 181 182 180 182 180 181 180 178 176 174 157 132 118 106 117 105  96 104 116 115 142 156 167 169 171 171 172 169 170 169 169 169 170 167 166 163 164 162 162 161 159 157 159 159 158 155 154 135 113 108 107 106 106 105 105 105 104 105 104
 194 218 248 253 253 251 241 220 204 195 190 190 188 185 188 186 186 185 184 184 186 185 187 186 184 184 184 186 182 183 183 183 182 184 182 181 183 182 178 168 156 120  86  60  41  42  40  41  39  40  38  37  42  53  81 100 141 166 171 172 171 171 170 169 170 170 167 166 166 164 164 163 163 161 162 157 159 157 156 154 139 114 110 109 108 108 106 105 107 103 102 103
 196 209 234 249 250 245 234 214 200 196 192 192 191 189 189 190 188 187 186 188 189 187 189 190 187 187 187 188 187 186 185 185 185 187 185 182 179 162 110  60  47  38  33  32  31  27  27  27  26  26  28  25  26  29  33  36  43  90 135 156 162 166 167 168 169 169 165 166 168 165 162 160 161 162 163 159 159 158 155 154 142 117 113 108 107 108 107 106 105 106 105 103
 196 204 223 240 239 234 221 207 197 194 194 193 192 191 190 191 190 190 190 190 190 190 189 190 190 190 189 190 188 188 188 188 186 185 180 167  96  50  36  32  28  26  22  22  21  22  22  20  20  19  20  21  20  21  22  24  28  35  40  54 122 157 166 169 168 170 168 168 169 167 166 164 165 164 162 162 159 161 159 157 149 122 112 110 109 107 105 107 104 104 102 101
 196 199 217 230 226 219 211 202 197 196 196 194 193 191 192 191 191 191 190 191 192 191 189 190 190 189 191 191 190 189 189 187 186 174 114  60  36  31  26  26  21  21  18  19  19  19  20  17  17  17  19  19  16  16  17  18  21  24  28  32  41  91 141 164 170 173 171 170 170 170 170 170 168 167 167 165 162 162 162 160 156 125 112 107 108 107 106 106 106 104 103 103
 198 202 215 226 220 209 206 199 197 197 195 195 195 194 193 194 194 192 195 193 195 192 194 192 193 192 192 193 193 191 190 186 157  88  42  33  27  25  22  21  19  18  17  17  18  16  17  18  18  16  18  18  16  16  17  17  19  19  22  25  28  31  52 109 158 169 171 172 173 172 171 168 169 168 167 165 164 164 165 162 159 132 112 108 107 109 108 108 106 104 106 103
 198 201 212 229 230 211 205 200 198 197 197 198 196 197 196 195 194 195 196 196 195 194 195 194 194 194 194 194 194 192 185 137  59  40  31  26  25  24  21  19  20  20  16  19  17  17  19  19  19  16  17  16  15  16  18  17  16  19  19  21  23  24  30  40  86 156 172 175 171 173 172 170 170 169 169 168 165 164 165 161 158 137 115 107 110 109 107 108 107 105 107 106
 196 200 205 227 245 215 204 200 198 197 196 196 196 196 195 195 195 196 194 195 194 195 194 193 194 193 194 193 192 184 122  53  41  31  27  25  27  25  23  21  20  17  17  16  17  17  21  20  20  18  20  17  16  17  18  15  15  16  17  18  19  21  22  27  36  98 159 172 172 171 172 172 170 170 169 168 165 163 163 162 160 143 116 111 110 106 106 108 105 104 105 103
 194 197 201 215 232 214 202 199 198 198 198 196 197 198 198 196 198 197 196 194 194 195 195 193 193 195 193 192 174 108  50  42  37  32  34  35  36  33  26  23  21  19  20  21  20  20  22  24  22  21  22  19  15  16  17  15  15  15  16  16  17  19  17  23  27  35 101 164 172 172 172 171 169 170 170 170 166 163 163 164 161 146 118 110 109 110 106 107 106 105 105 104
 193 196 198 208 231 215 200 198 199 197 196 197 198 199 201 199 200 201 198 196 195 194 194 193 191 192 192 186 106  59  45  41  40  38  40  40  40  41  36  28  23  22  19  22  21  22  25  27  26  23  23  22  18  19  21  18  16  16  15  17  16  21  18  21  22  30  35 110 161 170 171 170 170 169 169 168 166 165 164 162 160 152 122 110 107 107 106 105 108 106 104 103
 191 194 196 207 234 217 202 199 198 197 195 197 197 200 200 199 199 197 196 196 195 193 195 193 192 192 190 142  56  44  41  40  43  47  46  44  43  45  41  37  28  25  23  24  25  27  29  30  29  28  27  25  22  23  23  22  18  18  18  17  16  18  18  19  20  24  29  38 117 162 169 169 171 170 169 166 164 164 166 165 161 155 124 111 111 109 107 109 109 109 107 107
 193 194 196 206 232 216 199 198 197 198 196 197 197 198 196 197 196 194 197 195 195 193 193 196 194 192 164  64  51  43  41  40  42  47  49  43  39  38  38  39  33  31  26  29  32  30  37  38  35  34  31  27  25  25  26  23  22  19  19  17  16  16  19  19  22  22  24  32  51 140 166 170 170 170 169 167 167 166 164 164 162 157 131 113 112 110 110 111 109 107 108 108
 192 193 194 203 228 212 198 196 196 196 196 196 196 196 194 198 196 194 194 194 196 196 195 195 192 187  82  52  51  45  45  45  46  46  46  48  42  38  38  37  36  36  33  32  39  44  45  44  41  39  35  32  29  27  27  25  23  22  21  21  21  21  21  21  24  22  26  30  36  58 133 164 170 171 169 169 167 164 163 162 163 160 136 115 112 110 110 109 110 108 108 108
 191 192 194 199 213 208 200 198 196 194 196 195 194 193 193 196 194 195 193 192 195 195 192 193 189 129  53  48  48  48  52  52  48  46  47  48  44  42  46  45  43  43  45  46  50  56  60  53  47  41  43  44  38  33  33  33  29  25  23  24  23  23  24  25  27  25  26  29  38  45  76 156 167 170 169 170 167 165 162 162 164 160 142 116 113 109 109 110 109 108 106 105
 190 189 194 196 200 213 206 199 196 196 196 194 193 193 194 193 194 195 194 194 194 194 193 193 181  72  45  47  52  58  59  55  51  54  58  53  51  50  54  58  62  63  65  64  70  73  80  72  63  52  50  53  54  46  42  36  36  35  31  29  32  33  33  38  38  36  38  39  43  44  50 124 167 168 169 168 169 166 164 163 162 161 145 119 111 107 111 110 109 110 106 105
 189 190 193 191 198 212 208 199 198 197 193 195 194 193 193 192 192 193 195 194 194 194 193 190 147  49  48  53  62  64  65  58  63  66  65  65  66  68  75  82  87  91  84  88  97  96 103  92  82  68  63  65  64  59  53  50  53  52  50  51  53  54  58  59  58  59  55  55  49  54  55  76 153 168 168 168 168 166 166 164 162 159 150 120 114 111 110 108 108 108 107 106
 192 192 190 191 196 208 205 198 197 195 195 194 192 192 193 192 191 191 194 192 193 193 191 180  78  50  55  60  69  72  73  75  75  76  84  89  92  95 100 102 106 108 110 122 120 114 116 108  95  85  80  86  88  81  74  71  70  71  67  73  82  87  86  86  86  86  76  66  58  56  53  60 121 164 168 168 165 165 167 164 162 162 154 124 112 110 110 111 107 108 106 106
 190 189 188 189 193 203 203 197 195 194 194 193 192 192 191 191 190 192 194 193 191 193 189 130  60  58  57  66  77  82  84  85  85  98 109 117 114 112 111 113 119 131 141 145 137 129 131 121 108  99  97 102 106  99  92  88  89  92  89  89  97 104 104 105 104 105 100  88  74  62  57  58 103 162 167 167 166 165 163 164 163 161 157 128 114 112 111 110 109 108 108 108
 187 189 188 190 192 201 204 195 194 192 193 193 192 192 192 192 193 191 192 191 190 191 176  81  60  58  62  73  84  90  90 102 107 113 120 124 122 122 121 127 132 142 149 148 149 145 147 133 122 115 112 116 119 116 110 110 109 112 110 108 114 118 117 118 116 119 116 108  93  77  63  56  73 154 167 168 169 166 164 165 163 160 156 131 116 111 111 113 110 109 106 108
 186 188 188 190 191 198 201 193 192 191 190 190 191 191 188 191 191 190 191 189 190 189 129  72  63  61  64  77  89  99 107 114 114 118 122 126 127 131 133 134 139 147 152 157 161 156 154 145 135 125 122 129 131 129 125 130 125 125 128 123 128 130 128 127 126 130 124 120 112  98  82  63  64 134 163 166 169 164 163 164 164 160 158 135 117 111 112 110 111 110 108 108
 187 187 189 188 189 194 198 193 191 191 192 190 191 191 192 191 189 191 191 190 189 183  89  64  59  59  68  80  96 108 113 115 116 117 122 126 129 131 130 133 137 145 147 156 161 156 153 150 146 139 134 141 137 138 140 140 139 134 136 136 135 137 137 132 132 133 132 127 122 114 100  77  60  95 159 166 166 164 164 164 163 161 159 141 116 110 110 110 109 110 108 110
 188 188 190 191 190 194 200 195 194 192 191 192 193 193 193 194 193 192 193 193 190 155  75  60  55  60  73  89 101 110 114 116 118 118 123 127 130 130 133 125 134 146 148 152 155 154 149 150 148 147 147 149 145 144 145 143 143 143 142 140 139 140 139 136 134 134 130 128 122 118 114  96  70  71 150 166 167 167 167 164 164 162 159 144 119 113 113 112 112 109 107 108
 189 190 192 191 192 195 200 196 195 194 192 193 193 193 195 195 194 194 194 193 190 128  66  55  53  57  77  96 106 112 115 116 115 115 119 126 127 129 130 129 134 141 147 144 146 151 149 151 155 151 151 148 148 147 146 144 144 143 142 139 138 135 136 135 135 133 130 128 126 123 119 110  81  64 121 164 169 168 167 165 163 163 161 150 123 114 113 112 113 112 108 106
 191 192 192 193 194 196 197 197 194 194 195 194 194 195 196 195 194 195 194 192 190 103  61  51  55  59  80  97 105 112 114 113 113 116 120 122 125 127 126 128 130 134 136 140 143 148 146 148 150 148 146 146 147 145 145 146 144 142 144 139 138 134 132 133 133 131 128 125 123 120 119 114  96  65  91 163 170 170 169 166 164 164 162 155 125 114 113 111 113 111 110 110
 192 194 191 192 193 195 195 201 196 194 194 194 194 196 196 195 196 196 194 194 180  75  59  50  56  67  83  96 106 111 110 113 113 115 118 118 122 123 126 126 125 129 131 135 139 140 143 144 145 142 139 140 138 142 143 144 143 142 141 139 136 136 134 133 132 130 128 125 122 121 117 114 105  73  69 152 166 167 168 168 165 164 162 158 128 115 113 111 112 110 108 109
 192 192 192 192 192 195 196 199 196 195 192 194 194 194 195 195 195 193 194 193 149  68  56  53  57  70  86  96 104 108 110 113 115 115 116 119 120 119 123 125 127 127 129 132 138 139 140 141 142 135 136 136 136 137 140 141 141 141 142 142 140 138 133 133 130 129 127 124 121 120 117 114 108  90  67 123 162 168 169 167 165 164 163 161 133 116 112 111 112 110 107 106
 190 192 193 191 194 194 194 198 199 195 193 195 195 195 196 195 195 195 194 189 115  62  53  54  59  71  86  99 105 107 107 109 113 113 114 115 118 119 119 123 125 129 128 130 134 138 137 140 142 137 135 133 132 132 132 139 134 131 140 141 140 137 134 134 133 129 128 125 123 122 117 115 112 100  69  82 161 168 168 169 168 167 167 163 140 118 113 111 111 110 110 110
 192 194 194 193 195 195 195 197 199 197 196 196 196 196 197 196 196 195 196 190  86  59  52  57  63  74  86  99 105 106 101 108 112 112 112 113 116 118 119 122 126 128 128 129 133 135 136 137 136 134 134 134 132 130 133 134 132 134 139 142 138 137 134 134 135 132 127 124 123 121 117 114 114 104  79  70 147 168 168 169 169 168 166 164 144 120 115 113 112 111 113 113
 193 195 194 194 197 197 197 198 198 197 197 196 196 197 197 197 197 197 197 178  72  59  54  57  64  74  88 100 105 105 102 102 108 109 107 114 116 119 122 123 126 127 129 129 133 135 138 136 136 135 134 133 133 130 133 135 138 141 138 141 141 140 140 137 137 133 128 127 124 120 118 115 112 106  86  60 123 166 170 170 167 166 165 164 150 123 118 115 113 113 111 112
 198 196 196 196 197 198 198 198 200 201 201 199 198 198 197 199 199 197 198 162  65  55  54  59  66  77  89  95 105 104 104 103 104 107 109 114 116 117 120 123 128 127 130 133 135 141 140 139 137 135 134 131 132 132 132 136 137 141 140 139 141 142 141 142 139 134 131 128 124 120 118 116 114 109  95  66 106 165 171 170 170 169 168 164 155 125 116 112 113 112 112 112
 198 195 197 198 198 198 201 202 202 204 203 201 200 200 200 201 200 199 196 147  65  54  56  59  68  80  94 100 102 102 102 101 102 108 111 116 117 120 121 126 130 132 132 134 138 142 144 142 142 136 134 135 134 135 136 138 137 140 142 141 142 145 143 140 139 138 133 130 127 122 120 117 115 109  99  68  92 166 172 171 171 170 168 167 159 127 117 113 112 113 113 113
 198 197 198 197 199 199 203 203 205 206 202 202 203 202 202 201 200 200 197 141  65  55  56  58  66  81  94 100 100  99 101 100 103 108 116 115 118 119 126 130 132 134 133 134 139 140 143 141 141 138 139 138 135 132 137 136 136 138 140 143 143 146 143 142 141 137 135 131 126 123 120 116 114 108  99  72  83 164 173 173 171 169 169 169 162 133 118 113 113 113 113 112
 198 200 200 201 203 201 202 202 206 208 202 203 202 202 202 203 202 201 198 127  63  54  53  58  69  86  95  96  97  96 100 101 103 107 113 117 120 121 125 127 128 131 130 131 134 140 136 136 137 138 138 139 136 134 136 132 136 139 143 141 143 144 144 140 138 136 132 131 128 125 120 114 110 102  96  75  78 166 172 174 173 173 172 169 163 135 119 114 112 112 112 112
 202 202 201 202 205 204 203 204 207 208 203 205 205 202 203 204 202 202 199 125  62  53  54  60  76  87  91  93  93  92  96  97 104 107 114 118 120 121 124 123 126 127 125 126 126 128 129 132 133 134 138 138 136 132 137 135 134 137 135 135 136 135 134 132 131 129 128 127 126 125 118 111 103  99  96  80  81 167 175 175 173 172 171 171 166 142 120 115 113 111 112 110
 202 204 204 203 201 203 204 204 206 206 206 206 205 203 207 204 204 202 201 122  58  54  51  59  72  89  94  88  89  90  92  97  97 102 108 113 113 111 114 113 113 114 114 115 116 117 119 124 126 129 132 136 134 129 130 130 132 133 131 130 124 126 123 120 117 115 117 114 113 114 109 101  96  93  91  77  81 168 175 176 175 174 173 170 169 148 124 115 114 112 112 112
 204 202 203 204 205 205 206 206 209 209 207 206 205 205 206 203 206 204 201 121  59  54  54  62  77  89  88  88  86  87  95  94  86  88  93  96  97  99  97  96  94  96 100 100 102 105 107 114 118 120 124 130 126 124 125 127 127 128 124 121 115 111 109 105 100  95  96  91  89  90  88  82  78  81  82  76  91 169 176 176 175 176 173 172 170 153 123 115 114 114 113 112
 204 205 203 203 205 206 207 209 208 208 207 206 207 206 206 206 207 205 202 116  59  53  54  64  81  90  90  87  84  90  88  74  64  64  71  75  74  72  70  75  75  79  82  83  85  94  99 103 110 115 118 122 122 121 121 122 122 122 120 115 103  93  86  77  70  63  64  67  66  63  58  61  59  61  72  72  89 170 177 177 176 173 173 172 171 157 126 118 114 114 113 113
 205 206 205 206 207 206 207 209 210 210 208 208 207 207 206 207 208 207 202 125  60  51  51  61  82  87  88  85  84  88  70  54  48  46  49  52  49  44  44  42  44  50  55  56  63  77  86  96 102 106 110 116 114 113 114 113 116 117 112 100  89  75  61  50  44  42  37  39  42  43  47  52  53  48  52  66  96 169 177 177 176 177 176 175 172 164 129 119 115 112 113 111
 205 208 208 210 209 208 208 210 211 210 208 210 210 207 208 208 209 208 202 130  62  52  51  63  84  87  84  83  83  62  47  45  44  40  38  39  33  34  32  31  32  35  38  39  44  56  66  79  90  97 100 106 105 107 112 111 108 105 103  90  74  58  52  40  34  30  28  28  30  34  37  38  50  53  53  61 105 174 178 178 177 179 176 175 173 167 133 118 114 114 111 111
 207 207 209 212 209 208 209 208 211 208 208 209 209 207 209 208 210 209 205 132  63  53  54  65  86  88  87  83  75  56  52  50  46  39  36  34  31  31  31  30  28  29  30  30  35  43  54  66  80  86  91  95  99 105 109 106 100  94  91  82  66  53  41  35  32  30  29  32  36  41  41  43  52  63  65  63 106 175 179 178 179 178 176 175 174 169 139 119 114 113 113 113
 204 208 209 212 210 209 209 210 212 210 209 208 209 208 209 209 208 210 205 132  63  55  56  68  86  91  85  85  75  64  59  56  55  47  40  41  42  40  37  38  38  34  31  34  35  39  49  61  74  81  84  87  90  98 104 101  94  92  88  76  64  51  44  44  46  47  55  59  58  59  60  58  59  63  66  64 104 174 179 180 180 178 177 176 173 171 145 120 116 115 114 112
 205 207 207 208 208 208 207 208 209 209 209 207 209 209 210 208 208 209 205 138  64  56  56  71  89  91  87  85  77  66  61  56  51  48  48  51  58  56  52  50  49  48  47  45  43  45  49  57  69  75  78  81  82  90  97  96  90  88  85  76  64  59  55  54  54  52  56  61  66  67  70  73  72  66  66  64 116 174 178 178 179 178 177 176 172 173 149 120 114 116 112 112
 206 205 207 209 206 207 206 208 207 206 207 206 208 206 207 207 207 208 205 150  66  57  51  67  90  90  87  85  70  63  61  62  59  59  60  58  55  51  49  45  43  39  39  46  49  51  53  58  63  70  74  77  83  91  94  94  89  83  78  68  65  61  52  47  48  50  52  56  60  61  69  74  75  73  71  67 122 174 177 178 177 177 178 176 174 172 152 123 116 114 113 109
 203 205 208 207 207 207 207 207 207 208 206 206 206 206 205 206 208 206 203 166  71  56  52  67  93  91  86  78  69  63  64  63  66  61  52  51  55  53  52  49  47  44  36  39  42  47  53  57  58  64  68  77  84  94  99  95  89  77  73  64  60  50  45  45  46  49  52  56  61  61  62  68  76  78  78  76 141 172 176 177 178 177 173 174 172 170 158 123 116 113 111 112
 204 207 207 208 207 206 205 207 207 205 205 207 205 206 206 205 205 204 204 183  76  59  54  67  94  92  87  77  69  68  67  65  56  47  49  54  54  51  48  46  44  42  40  39  39  41  47  53  57  61  66  78  95 107 113 108  93  76  70  59  50  42  41  43  43  42  47  53  60  65  65  61  67  78  83  86 152 176 177 177 177 176 172 173 172 169 162 128 119 114 112 112
 204 206 204 206 206 204 205 206 206 206 206 205 204 206 207 206 204 204 203 192 106  63  55  68  91  92  85  80  74  69  67  56  46  52  56  53  51  48  44  39  38  39  40  37  37  40  43  47  54  59  66  91 117 128 135 125  96  72  62  53  45  40  41  44  41  31  26  25  28  41  56  64  60  77  87  97 157 171 173 175 175 174 174 174 173 168 163 134 118 117 114 113
 203 203 205 205 205 204 204 202 203 204 204 205 203 204 203 202 198 187 179 179 139  70  55  60  91  90  85  81  78  70  62  50  51  52  50  46  41  32  27  24  26  33  40  35  35  38  42  46  50  56  64  98 130 147 154 140 105  70  60  49  44  45  53  69  52  27  24  33  30  41  39  44  60  72  86  93 116 127 138 167 175 174 173 171 171 168 164 134 116 114 113 113
 202 202 203 205 204 204 202 202 203 204 203 204 203 204 203 200 157 130 127 122  93  74  59  60  89  92  84  80  77  69  61  53  45  35  41  55  54  32  42  31  43  31  56  45  37  40  41  45  48  54  70 112 138 157 162 148 112  69  63  55  55  60  73  85  51  38  28  34  33  56  57  42  56  72  84  87  95 103 103 143 171 175 173 171 171 169 164 141 121 114 113 113
 199 202 203 204 204 204 202 203 204 204 202 203 202 202 201 187 115 100  99  97  88  81  67  60  85  93  85  80  74  67  58  49  41  40  60  74  64  34  31  27  26  32  53  43  38  38  41  45  47  58  85 118 142 160 167 153 128  80  67  59  56  53  66  83  55  30  26  28  29  64  58  53  60  75  86  86  81  78  74 138 170 171 172 171 170 170 166 147 123 115 113 112
 198 202 203 202 200 203 202 201 203 202 202 202 202 202 198 167  89  77  73  76  79  80  74  61  85  92  86  80  74  67  58  58  51  46  56  70  73  38  28  26  26  40  42  33  36  40  44  44  51  70 101 119 139 156 165 156 137  98  68  59  50  45  46  53  58  40  32  36  52  64  61  67  78  83  90  91  79  73  85 158 170 172 172 170 171 168 166 150 123 117 113 112
 200 198 200 200 201 200 200 199 201 200 201 201 200 200 200 163  81  72  66  76  78  76  76  63  85  92  91  85  81  77  74  72  67  56  54  52  58  58  42  33  39  41  37  39  43  41  45  47  64  91 107 120 139 156 164 155 138 115  81  63  54  48  44  48  49  48  51  57  61  68  74  82  88  91  93  95  80  74  96 163 171 171 171 170 170 169 166 155 123 114 112 111
 197 197 199 198 198 198 199 199 200 199 199 200 199 199 198 160  79  71  68  82  78  72  74  61  90  94  94  94  87  86  83  80  72  65  63  60  56  54  52  48  46  44  41  42  44  42  45  60  86 104 112 121 137 156 162 153 140 120  99  73  58  53  45  48  57  60  66  70  76  81  84  88  96  96  96  98  80  68 106 163 171 170 170 169 169 167 164 156 126 113 112 111
 196 197 196 196 197 197 198 198 199 199 199 200 198 198 197 160  80  69  72  85  87  80  71  64  87  94  94  98  92  92  90  86  77  72  67  65  64  59  58  53  50  45  43  44  43  50  63  84 104 109 113 118 137 154 162 154 145 123 107  90  75  65  60  55  57  60  66  70  74  77  82  92 100  99  99  99  81  65 116 165 170 170 169 169 168 166 164 159 130 114 112 110
 197 196 198 196 196 196 197 197 198 197 197 198 198 197 197 171  86  71  75  86  83  71  62  67  88  94 100  99  99  98  98  93  87  79  70  66  63  58  58  54  51  48  48  52  55  67  84 101 108 112 114 115 131 144 157 153 145 125 108 100  90  83  79  74  73  71  72  75  80  88  95 101 108 103 104  99  80  68 130 168 170 168 169 168 167 166 164 162 134 116 114 113
 196 196 197 197 196 196 197 197 197 198 198 198 199 198 197 190 101  69  75  82  76  62  69  71  87  96 102 104 105 105 102 100  98  93  87  81  77  71  67  63  62  61  61  64  74  87  99 107 112 114 114 120 132 143 157 155 147 128 110 105  99  97  95  90  89  91  91  95  97 102 103 107 111 110 104  99  81  82 149 169 170 169 168 166 167 166 165 160 138 116 112 109
 196 196 198 198 197 199 198 197 198 200 201 198 200 199 198 196 132  75  77  83  72  62  88  71  80  93  99 105 107 108 106 110 109 101  94  90  86  80  79  76  73  75  78  85  92  98 104 107 111 116 116 124 129 143 160 160 151 134 116 108 102 105 106 104 104 102 101 104 106 108 110 113 114 111 105  99  84  97 160 170 170 171 169 169 169 166 164 164 143 117 112 109
 198 197 197 199 199 200 199 199 200 199 201 199 199 199 198 197 180  92  78  85  70  62  93  78  77  91  99 108 112 112 113 117 113 109 103 102  94  90  87  87  91  94  97 100 104 104 104 105 112 114 120 126 135 148 164 167 154 137 121 111 109 108 109 110 114 114 110 113 114 115 118 115 116 116 109 102  86 120 164 170 171 172 170 170 169 166 166 163 148 121 114 112
 197 196 197 199 198 200 198 199 199 201 200 200 199 198 198 200 193 142  86  85  75  63  92  79  69  90 100 110 114 118 119 121 124 119 115 113 106 103 105 108 112 113 110 111 107 105 105 108 112 113 120 129 142 157 170 169 159 147 130 113 107 110 113 113 116 121 122 125 126 128 124 123 121 120 114 103  91 138 166 170 170 171 170 166 168 167 166 163 154 122 115 112
 197 197 197 197 197 197 198 198 197 198 198 197 199 197 198 198 195 187  97  88  78  63  80  80  66  87 102 111 118 122 123 128 130 127 128 124 121 123 124 128 126 121 118 115 108 106 102 101 104 110 122 139 151 161 168 170 165 156 141 120 104 109 113 116 117 125 133 135 136 138 132 126 121 121 118 106 101 155 168 171 171 170 169 170 168 167 165 164 156 126 113 110
 198 196 196 197 196 198 197 197 198 200 197 199 198 198 198 198 195 192 136  92  85  64  68  81  68  84 101 110 117 121 126 129 133 136 135 133 134 134 136 134 131 127 118 115 109 101  96  94  93 104 121 140 152 163 171 163 158 160 151 134 106 106 114 118 121 125 130 132 137 139 134 128 124 123 118 109 111 164 171 171 170 170 169 170 167 166 164 164 157 127 115 111
 197 197 196 197 197 197 197 198 198 197 197 197 198 198 199 198 197 196 175 100  91  85  70  77  69  78 100 109 115 120 127 131 134 135 136 136 136 138 134 131 128 125 116 111 102  92  89 100 106 109 121 140 150 153 158 149 148 153 153 137 116  99 106 110 116 121 124 129 133 134 131 130 128 126 119 108 130 168 172 172 171 170 170 169 168 165 165 165 160 132 116 112
 197 198 197 196 197 198 198 196 199 198 198 198 200 199 199 198 197 198 193 136  92  87  89  88  75  72  94 105 113 119 124 129 132 134 132 131 132 132 128 124 118 115 108  97  88  78  91 119 119 113 119 129 134 141 142 140 142 146 148 136 120 100  95 101 111 114 119 124 130 130 131 128 126 123 117 108 148 170 171 172 171 170 169 166 169 166 168 164 161 136 116 112
 198 198 197 198 198 198 198 199 199 199 199 198 198 200 201 198 199 198 198 180 109  96  96  93  81  69  89 101 112 119 122 126 129 128 129 128 127 124 121 115 106  97  91  80  77  75  93 118 119 112 113 119 123 128 131 130 133 138 140 131 118 106  93  95 102 107 114 119 122 126 124 122 121 118 113 117 163 174 172 171 171 171 170 169 169 168 168 166 163 144 118 111
 198 198 198 198 198 199 200 200 201 200 199 199 198 201 201 201 201 201 199 193 150 110 104  95  84  68  85  96 106 116 120 122 125 121 123 123 120 119 118 106  97  87  80  78  74  72  86 107 108  99 102 103 112 122 124 125 127 129 134 126 108 101  96  90  90  95 103 111 117 120 120 117 118 114 108 135 169 174 174 173 172 171 171 171 170 166 168 168 164 148 118 113
 199 199 199 199 198 202 200 200 200 200 200 199 202 202 202 201 201 202 201 199 193 157 108  94  87  69  85  94 102 112 115 116 119 115 116 116 114 110 106  95  85  79  76  79  80  69  74  85  88  81  81  88  96 111 114 114 116 121 121 110  91  95  98  93  86  88  96 101 107 111 111 112 112 108 106 153 171 174 172 173 173 170 170 170 170 167 169 168 165 150 121 112
 200 198 200 202 200 200 200 201 201 202 202 202 202 202 203 203 202 202 201 202 200 194 144  97  86  70  82  92  98 103 108 108 110 108 108 105 105 100  95  86  77  76  77  83  83  76  64  68  72  71  67  68  77  87  94  94  98 100  98  84  81  95 105  99  88  85  91  98 102 106 107 107 106 106 115 163 174 173 174 175 174 171 170 170 171 170 170 168 165 156 126 112
 200 199 201 201 200 202 201 200 202 202 202 203 202 202 201 203 203 201 202 203 202 199 195 158 131 134  86  92  93  95  99 100 101 102 100  97  96  92  88  81  77  81  85  90  89  83  70  65  56  48  55  59  63  73  80  82  87  87  80  71  86 103 109 106  95  86  86  91  98 102 100 101 102 100 124 170 174 175 176 175 173 172 172 171 172 171 168 166 166 160 128 112
 200 201 202 202 202 201 201 202 202 202 202 203 203 203 203 205 202 202 202 203 202 202 200 199 196 176  93  91  91  91  93  94  94  96  93  91  90  89  85  82  78  86  94  99  99  89  73  59  52  44  50  53  54  61  71  75  75  75  63  64  77 102 110 107 101  90  86  87  92  97 100  99  98  94 131 169 176 175 175 174 172 173 172 171 171 171 170 167 168 161 133 115
 200 201 201 202 202 201 201 203 205 204 202 204 203 203 202 203 202 202 201 200 202 203 202 200 200 185 101  89  89  86  89  90  89  87  86  86  87  85  83  79  79  84  91  93  95  85  70  48  44  39  36  40  43  55  60  61  57  53  49  51  60  89  97  99  93  89  87  87  93  95  98  97  94  89 132 170 174 174 175 176 174 172 172 171 171 170 169 165 166 162 140 112
 200 201 202 202 200 204 203 203 203 203 202 201 203 205 203 202 202 202 201 200 203 202 201 202 200 192 106  85  83  80  86  86  87  86  86  86  86  82  79  68  68  73  75  76  80  70  64  44  37  32  31  30  35  47  49  42  41  39  36  42  52  74  80  75  75  73  80  87  93  94  97  96  92  91 139 171 174 174 175 173 174 171 172 173 171 170 167 168 166 164 143 114
 201 201 202 201 201 202 202 201 201 203 202 201 201 202 203 202 202 202 203 202 202 203 202 202 201 190 115  82  84  82  84  86  86  86  86  85  83  79  67  56  55  58  64  68  73  62  53  45  36  34  32  30  30  36  39  32  34  30  31  40  44  60  68  62  57  52  64  81  91  95  95  95  92  89 143 170 175 175 176 174 173 172 171 170 172 170 171 168 166 164 147 116
 201 200 201 202 202 202 202 202 204 204 202 201 203 205 201 202 204 202 203 203 202 203 200 203 202 196 128  81  81  82  84  86  89  85  87  86  82  74  57  48  43  48  58  62  61  52  52  50  39  37  33  31  28  35  35  30  31  30  33  42  50  57  63  56  49  43  52  71  88  95  92  92  86  72  98 164 172 175 174 174 173 171 171 172 171 170 170 168 167 163 152 121
 200 199 201 200 202 202 202 201 202 204 202 202 202 202 202 202 203 202 204 202 202 201 202 201 200 196 144  81  80  80  82  84  87  86  87  87  83  66  52  45  46  48  55  61  59  61  61  56  43  39  40  33  29  35  36  34  38  39  41  49  52  61  64  57  51  50  50  66  87  95  92  89  82  51  32  54 132 171 174 174 173 171 172 171 172 170 170 169 167 164 156 123
 200 200 200 200 201 203 201 202 202 201 201 202 201 203 203 203 202 201 202 202 202 201 201 200 198 194 101  74  75  78  82  84  85  86  86  86  83  63  55  52  51  51  58  68  67  77  76  65  56  53  57  54  55  57  53  56  58  55  61  62  61  70  69  66  58  57  56  68  87  93  89  85  75  40  23  24  34  95 164 172 173 174 172 172 170 169 170 170 168 166 160 126
 200 198 200 200 199 199 198 200 200 200 200 200 202 203 203 201 201 201 201 200 201 200 200 196 171  90  43  59  70  75  79  82  82  81  82  86  77  59  61  50  42  42  48  56  59  62  61  59  58  57  57  59  62  67  70  66  65  62  65  64  64  64  60  54  49  54  66  72  89  91  84  80  58  28  18  16  18  28  65 153 169 173 171 171 169 170 169 167 165 165 160 132
 194 197 197 196 196 198 197 198 199 199 199 198 198 199 199 199 198 199 198 198 199 198 194 164  50  36  27  43  63  72  79  81  82  78  81  86  78  68  63  51  48  47  43  44  44  42  42  45  50  52  54  55  53  58  62  60  60  62  61  58  54  50  54  62  56  61  69  82  89  88  86  75  46  20  16  17  15  16  23  51 149 166 168 169 168 169 166 166 166 163 158 136
 194 194 196 196 195 195 196 197 197 196 197 197 197 195 197 199 198 196 195 196 194 190 109  46  30  20  17  27  53  67  72  75  79  77  78  82  78  73  66  57  60  64  62  60  60  58  52  46  46  41  40  44  41  39  40  44  49  50  49  59  67  66  74  77  70  70  76  84  87  86  83  62  35  16  12  14  16  13  15  25  50 146 165 167 166 166 165 165 162 162 159 139
 194 194 195 196 196 194 194 195 197 195 196 195 197 196 197 195 196 195 196 193 189  97  42  31  20  17  13  16  40  56  67  77  77  74  76  80  80  78  71  68  70  71  70  70  71  66  68  68  59  57  50  48  41  36  40  47  58  68  72  68  71  76  86  87  84  81  84  86  85  86  76  50  23  12   9  12  17  15  11  15  25  56 151 163 164 163 164 162 162 160 157 142
 193 192 192 193 194 191 192 194 192 193 195 194 196 194 193 192 194 194 194 183 100  39  31  19  16  13  12  12  26  48  63  72  76  75  76  77  82  80  76  72  77  76  75  76  75  74  71  67  64  63  62  62  59  62  66  64  69  78  72  68  75  84  90  93  92  88  86  87  85  81  66  35  14  10  10  13  15  14  12  12  15  26  65 150 163 162 161 158 160 158 157 144
 189 190 189 190 190 191 191 190 191 192 194 193 193 193 192 189 193 192 182 102  37  28  20  15  10  12  12  12  17  35  50  65  72  71  72  75  80  79  78  75  76  81  80  74  74  75  71  63  59  64  69  66  67  70  69  66  64  67  69  73  82  84  88  92  90  87  87  88  82  73  51  23  11   9  10  13  15  16  14  11  12  18  30  73 155 159 161 158 158 158 156 149
 186 188 187 189 191 190 190 188 188 191 191 190 188 190 188 189 189 185 113  43  28  19  17  13  10  11  12  11  12  21  39  50  62  66  72  75  74  74  72  75  82  86  84  78  72  67  68  68  63  59  61  59  61  62  61  61  64  68  73  79  79  81  88  92  86  84  81  83  80  65  39  13   9   7  10  12  16  16  14  11  11  13  22  31  96 155 159 159 158 157 155 150
 185 186 186 186 187 187 187 187 187 190 188 189 189 188 188 186 186 161  47  31  23  18  14  11  10  12  11  11  12  14  29  40  51  63  67  71  72  69  68  76  86  85  82  79  77  67  62  61  63  60  61  59  61  62  63  65  66  67  71  76  82  89  91  88  83  80  79  80  75  52  23  10   7   7  11  12  13  14  16  11  10  11  17  26  39 130 157 159 159 158 155 150
 185 184 182 184 185 185 184 185 186 186 187 186 185 186 186 184 177  90  38  27  20  18  13   9  11  12  11  10  10  11  43  34  43  53  59  67  69  63  65  76  82  84  88  85  78  75  68  62  59  54  48  47  47  50  54  57  63  63  70  80  89  93  89  82  76  78  76  76  64  38  15   7   6   6  10  12  13  13  15  13  10   9  14  20  31  67 150 155 155 153 155 150
 181 183 182 182 183 182 182 183 184 184 182 184 183 184 185 181  98  45  30  24  20  16  12   9  11  11   9  11  11  11  44  42  34  43  56  65  66  63  65  70  78  87  91  91  85  79  75  68  64  53  44  35  30  32  37  43  53  65  77  82  88  93  85  78  72  66  72  69  53  27  11   6   6   7  10  11  12  14  13  14  10   9  12  15  27  31 128 150 148 145 145 144
 180 178 179 182 182 181 182 182 182 182 181 181 182 181 179 139  41  34  26  24  20  14  11  10  11  10   8  10  10  12  41  60  36  35  49  53  59  62  64  72  80  92  97  99  97  90  80  74  70  61  53  40  35  39  37  49  62  75  80  86  90  91  88  78  72  64  66  62  40  17   8   6   5   7   9  12  12  13  13  14  10   8  10  14  21  28  79 147 143 144 141 142
 178 177 178 178 178 178 179 182 181 178 180 179 178 178 175  83  36  29  25  23  19  13  10  10  10   9   8   9  11  13  43  65  58  38  40  49  58  62  58  65  77  89  96 106 109 102  91  80  76  71  69  63  60  58  57  61  69  79  81  87  87  88  88  80  68  58  59  53  38  18   8   6   5   5   8  11  13  12  13  13  11   8   8  12  16  23  40 131 132 132 132 133
 174 174 175 175 176 174 176 178 176 174 176 177 175 173 162  40  31  26  22  22  16  13  10  10  11   8   9   9  10  16  44  63  65  58  39  42  49  53  49  56  70  82  95 102 108 110 104  95  88  76  76  74  68  55  62  64  67  77  83  83  76  79  74  70  55  53  48  51  44  21   9   6   5   5   7  11  11  11  12  14  11   8   8  11  15  18  23  74 100 103 106 105
 170 169 167 169 169 168 168 168 166 160 162 163 158 154 117  32  29  27  21  20  17  13  11  10  10   8   9  10  10  17  43  62  65  63  53  37  39  44  46  48  58  75  82  86  94 100 102  99  85  78  80  71  65  62  63  67  66  70  73  75  61  63  58  55  49  44  44  58  47  24  11   7   5   5   8  10  11  11  12  13  11   8   8  11  13  18  20  25  42  79  96 100
 124 123 120 120 120 122 119 122 119 122 120 119 112  71  35  28  26  27  21  21  15  12  11   9  11   9   9   9  10  20  42  63  66  66  66  51  38  35  34  39  51  59  61  72  72  81  89  89  76  77  74  66  61  63  62  64  62  63  69  64  49  49  45  45  39  33  54  61  53  27  13   6   7   5   8  10  11  10  11  12  11   9   9  10  14  19  20  18  18  20  36  72
 109 109 107 107 110 111 111 111 110 109 108  83  45  30  25  23  24  22  20  19  17  12  10  10  10  10   9   9  10  20  40  60  66  67  68  60  47  34  29  27  39  47  48  63  55  58  63  71  70  74  70  61  54  59  58  58  59  58  56  53  46  38  35  35  29  40  63  66  51  28  16   8   6   6   9  10  12  11  13  11  11   8   6   8  12  16  16  17  13  15  17  20
 104 105 105 105 105 107 108 106 104  96  58  34  26  22  18  18  23  21  20  17  15  11  10   9  10  10   9   8  10  21  40  60  65  65  66  64  56  43  32  25  30  35  40  47  47  45  50  57  64  65  64  52  50  51  51  52  53  49  49  45  36  32  30  29  34  56  71  66  49  29  17   6   6   6   8  10  10  11  10  11  11   9   7   8  11  12  13  12  11  11  12  12
 102 102 102 103 104 106 103  99  70  36  32  22  19  18  16  19  22  22  20  17  15  10  10  10  10   9   9   9  12  20  40  57  62  65  67  65  61  55  48  34  24  26  29  34  45  43  42  47  55  55  52  46  46  45  42  46  42  40  42  37  28  25  26  27  50  70  73  67  48  30  18   6   5   6   7  10   9  11  11  10  10   7   6   7  11  12  10  10  11  10  11  12
 101  99 101 103 102 101  76  43  32  26  22  18  18  15  14  17  21  21  16  17  16   9  10   9   8   9  11   8  15  24  38  56  61  65  67  67  66  60  56  46  32  22  19  26  34  33  35  40  44  44  41  36  36  36  31  32  31  35  35  30  25  25  26  44  64  72  73  65  42  31  16   6   5   5   7   9  11  11  11  10   8   6   8   7   9  10  10  10  12  10  11  10
 101  99  99  97  83  48  31  26  22  21  18  17  16  16  13  17  20  18  16  19  15   9  10  10   8   9  12   9  22  27  38  55  60  62  67  67  65  61  56  50  41  29  20  20  25  26  26  31  35  33  29  25  22  24  20  21  23  26  25  24  25  32  47  59  69  72  72  61  40  33  15   6   6   5   8   9  11  10  11  12  10   8   9   8  10  10   9   8  10  11  11  12
  98  96  83  50  31  27  24  19  19  17  15  16  16  15  12  13  19  18  18  17  12   9  10  10   9  10  10  10  22  36  39  54  59  61  65  66  65  62  56  51  50  47  36  25  19  20  20  22  22  20  19  17  15  15  13  15  15  17  27  36  46  60  59  65  68  70  68  57  37  35  12   6   5   5   9   9  10  11  10  11  10   8   9   9  10  10   7   8   9   9   8  10
  85  50  30  28  25  21  19  17  18  15  15  13  14  15  14  13  18  17  17  17  12   8   9  10   8  10  10  10  17  45  39  51  58  61  64  62  64  63  60  54  53  52  47  42  34  26  19  20  19  16  16  16  14  18  20  24  33  44  55  59  63  62  61  63  70  72  65  52  35  36  11   6   5   4   6   9  10  10  11  10   9   8   8   8  10   8   8   9   9   9   9  11
  29  28  24  22  21  18  18  18  16  14  13  11  14  14  12  13  16  16  18  18  13   8  10  10   7   9  11  10  13  47  35  51  58  60  61  63  64  65  61  56  53  55  55  52  49  46  45  42  37  34  36  36  33  42  52  56  59  64  68  67  66  61  60  65  68  69  61  48  39  35  10   6   4   4   6  10  11  11  11  12  10   9   9   9  10   7   7   9   8  10  10   9
  23  19  20  22  19  16  17  16  14  14  13  14  16  14  14  13  15  17  18  18  13   9  10   9   8   9  12  10  11  33  44  48  55  58  59  63  62  64  60  57  53  55  56  54  52  55  58  57  53  54  56  57  56  58  63  66  70  70  69  68  65  62  62  66  68  65  58  44  41  27   9   5   5   3   7   9  10  10  12  13  12   9   8   8  11   7   8   9  10  12   9   9
  20  18  18  18  15  15  14  15  14  15  13  15  15  14  14  14  16  19  18  18  14   9   9   8   8   8  10  10  10  16  58  49  55  57  59  61  62  61  59  58  54  50  53  59  59  60  62  61  58  60  65  64  67  65  68  72  75  74  72  68  61  60  61  65  66  61  53  43  47  19   8   4   4   4   7   9  10  10  11  11  11   9   8   8  10   6   8  10   9  10  11  10
  16  17  16  17  14  12  13  14  12  14  13  12  14  12  12  14  16  17  18  16  12   9  11  11   7   8   9  10  11  13  42  55  55  56  58  58  60  59  59  57  56  51  53  55  59  63  63  64  64  67  69  69  70  68  72  76  74  70  71  64  60  60  63  66  67  60  52  47  49  13   6   4   4   5   7   8  13  10  12  12  12  10   8   8  10   9   9  11  10   9  10  11
  17  15  12  12  12  14  12  14  13  13  13  14  13  11  13  13  16  18  17  16  14  11  10  10   7   8   9   9  10  12  25  63  53  58  58  58  60  59  60  59  57  52  51  50  54  57  60  66  67  68  70  72  74  73  76  77  76  72  65  60  59  61  66  64  61  57  51  57  32   9   7   4   4   4   7   9  10  13  16  16  11   9   8   8  10   7   7   9   9  10  10  11
  14  12  14  14  11  11  12  12  13  14  13  12  12  13  15  11  13  17  17  17  15  12  10   8   7   9   8   8   9  10  16  39  72  55  59  59  59  61  59  59  58  52  49  49  52  52  54  60  64  69  68  70  73  72  75  74  75  65  61  59  60  63  68  63  58  52  57  53  19   8   5   4   3   4   7  11  12  13  12  13  11  13   8   9   9   8   9   8   9   8  10   9
  12  12  14  11  11  13  12  10  12  13  12  11  12  11  12  14  11  15  17  14  16  14  11   8   7   7   6   7   7   8  12  26  56  74  57  60  60  61  61  61  58  52  49  47  48  47  49  53  56  62  67  71  72  70  74  70  63  59  58  57  60  64  64  58  56  54  62  37  12   5   4   3   3   3   7  10  12  11  10  11  10  11   8   8   8   8   9   8   7   6   7   9
  13  14  15  15  12  11  12  12  11  12  12  10  11  12  11  12  10  14  14  17  15  13  12   9   6   6   8   7   7   8   9  18  42  67  76  55  60  60  60  59  58  56  49  50  50  47  48  50  53  57  62  69  69  70  69  63  60  58  58  58  63  66  62  55  49  68  53  23  10   5   3   3   3   4   8  11  12  12  12  13  13  12  10  10   8   8   9   8   8   9   9  10
  14  13  14  12  12  12  11  11  10  12  12  12  11  12  12  11   7  13  16  16  16  13  12   8   6   6   8   8   7   9   9  13  31  54  75  79  57  60  60  60  58  58  52  49  48  50  51  50  49  52  58  64  65  66  63  57  56  58  59  63  66  65  57  47  57  64  38  13   7   5   4   3   3   5   8  11  11  11  13  14  12  12   9   8   7   8   9   8   8   8   8   8
  13  13  12  12  12  11  12  11  10  13  13  12  12  12  10  10   9   9  16  14  16  14  14   9   6   6   9   9   7   8   9  11  23  42  61  72  86  64  55  59  58  59  55  53  51  50  52  52  50  50  52  57  60  58  55  53  57  60  63  68  66  62  45  45  72  52  25   9   6   5   4   4   4   7   9  10  12  13  12  14  12  11  10   9   7   7   9   9   7   7   8   9
  14  14  12  13  11  10  12  11  11  13  12  10  10  11  11  12   9   8  15  14  15  12  12   8   5   6   7   7   7   7   8   9  16  34  52  66  74  83  65  52  63  64  62  57  54  52  52  54  51  50  49  52  52  54  57  57  60  61  66  65  62  47  41  74  60  35  14   8   6   3   4   3   4   6   9  11  11  12  11  14  13  11  10   7   6   7   8   8   8   5   6   6
  12  13  12  11   9  10  11  11  12  11  10  10  12  11  11  11   7   6  10  13  13  13  14  10   6   5   7   8   8   6   6   8  13  30  46  56  66  73  83  73  52  60  65  60  57  52  52  55  53  54  53  57  56  58  60  58  61  62  65  58  45  63  80  64  46  24   9   5   5   4   2   3   5   6  10  12  14  13  12  11  12  12  11   6   6   6  10  10   7   5   6   7
