P2
# Generated by OpenCV 3.4.0
92 112
255
 178 177 176 178 179 179 179 179 179 181 181 178 180 178 179 179 180 179 180 179 168  95  53  45  40  34  34  33  32  30  28  31  32  31  30  29  31  35  41  44  46  42  40  41  41  40  39  39  35  28  26  24  24  24  23  23  23  25  28  26  24  25  26  26  31  33  35  34  35  39  42  71 135 156 167 170 174 174 170 167 172 173 175 174 174 173 173 173 173 172 171 172
 178 178 177 178 178 179 179 178 178 180 181 182 179 179 181 179 180 179 180 149  68  44  38  32  33  34  31  33  30  29  29  28  26  26  28  34  35  39  41  40  33  30  30  29  28  27  28  28  30  30  30  29  25  23  20  20  21  22  23  24  24  24  24  27  28  30  32  32  34  35  36  41  77 127 140 159 168 172 161 155 172 173 174 175 176 174 173 173 173 172 173 173
 178 178 178 178 178 178 178 178 179 178 179 181 178 180 180 179 179 160 117  53  47  39  33  32  30  28  31  29  37  41  36  38  42  43  43  42  41  37  30  27  25  23  23  21  21  21  21  22  24  25  25  24  24  25  23  22  19  20  21  21  22  24  23  24  25  27  29  31  34  35  34  38  48  51  93 134 152 160 146 141 161 174 174 175 173 173 173 172 174 173 173 173
 177 178 179 177 178 178 178 178 180 182 179 180 179 179 172 160 142  90  54  41  34  29  26  27  30  28  28  30  33  39  44  45  45  42  36  32  31  28  27  30  27  24  23  23  22  21  20  20  20  22  24  25  25  25  24  23  22  21  19  19  19  22  24  22  22  24  24  28  30  32  32  33  37  42  41  96 131 149 128 128 145 170 174 172 173 174 172 173 173 173 174 175
 178 178 179 179 180 179 178 178 178 179 179 179 178 174 171 168 119  46  33  30  30  33  32  32  32  31  27  26  29  36  36  35  32  29  27  26  25  26  30  30  27  27  27  29  29  29  29  27  26  28  30  33  32  34  30  26  25  21  19  19  19  20  22  24  22  20  23  25  27  30  30  31  33  38  39  60 103 126 102 111 134 167 172 173 176 174 174 175 174 174 174 174
 180 179 179 180 181 179 179 178 178 179 179 179 178 177 174 151  69  37  32  32  33  31  29  27  24  23  22  22  25  28  30  29  33  37  41  38  35  36  34  33  33  32  31  29  29  28  25  22  24  24  23  22  19  19  21  22  24  26  23  21  19  18  20  23  25  21  21  24  24  26  27  27  30  34  37  42  83 115  85 100 108 152 164 170 173 175 175 174 175 174 174 174
 180 181 180 182 180 180 179 178 179 181 178 179 178 178 165  97  42  40  36  32  27  26  27  28  26  25  28  29  30  32  35  38  41  40  37  34  31  29  29  28  26  26  24  21  22  21  21  22  24  25  25  24  21  19  19  18  18  21  24  24  21  19  19  22  24  25  20  19  23  25  26  26  28  31  34  35  55  96  69  90  85 118 150 162 171 173 174 173 174 175 173 173
 182 182 181 182 182 181 180 180 181 181 180 180 179 176 117  47  42  37  32  28  26  29  32  33  32  36  44  42  43  43  40  37  34  31  29  27  27  26  26  25  23  22  20  20  20  19  19  18  18  20  20  22  22  24  24  21  20  20  21  23  24  21  19  20  24  24  24  20  22  24  24  25  28  29  30  31  40  71  54  85  83  87 121 151 169 174 176 173 175 174 174 173
 180 182 182 180 179 181 182 182 183 179 181 179 178 146  70  43  34  32  30  28  27  27  29  31  30  33  35  38  33  31  31  30  29  29  25  24  22  23  23  24  24  24  24  24  22  22  20  20  20  19  18  19  19  19  22  24  24  24  23  23  23  24  23  21  21  24  23  21  21  21  23  24  26  26  27  29  32  46  51  64  71  84 104 136 164 173 176 174 176 175 174 174
 183 183 182 181 182 183 182 180 182 180 179 178 168 122  68  34  32  33  33  33  29  25  25  25  27  26  29  33  36  32  31  27  25  24  24  21  21  23  22  23  23  22  22  23  23  23  24  22  23  22  22  22  22  22  23  25  27  28  26  27  25  26  26  24  23  24  24  24  22  22  23  24  24  25  25  26  28  34  45  46  59  71  94 127 159 169 174 175 176 174 174 175
 183 181 183 184 184 184 184 183 181 182 180 179 164  98  42  36  35  36  32  28  25  28  28  27  31  34  33  28  25  22  21  21  20  20  23  24  24  25  25  26  24  24  23  23  24  22  23  24  22  22  24  24  24  26  28  31  34  34  35  35  35  33  30  28  26  26  26  26  23  22  23  23  24  24  24  25  27  31  35  42  49  57  80 133 149 157 167 175 176 176 176 176
 184 184 185 183 184 185 184 184 184 182 179 176 136  50  39  37  33  31  30  33  31  26  23  25  26  24  25  28  27  28  26  25  24  24  24  23  25  26  26  26  28  29  28  27  26  26  27  27  26  26  26  27  30  34  39  45  47  50  49  47  47  45  40  36  34  33  31  30  27  25  25  24  23  24  24  24  26  31  34  37  43  55  90 128 139 148 161 173 177 176 177 177
 188 187 187 185 184 183 185 184 184 183 180 171  85  44  39  38  35  34  34  32  34  36  35  35  37  39  39  35  31  28  25  25  24  25  26  28  29  32  35  37  40  42  42  42  37  37  38  37  35  35  35  38  41  47  52  58  59  62  63  60  60  57  53  50  46  43  44  38  34  32  28  25  24  24  24  25  25  28  32  35  42  64  91 113 121 145 171 176 178 175 175 175
 188 189 190 188 186 185 185 185 185 183 180 160  63  44  40  36  36  34  33  29  33  38  41  46  41  37  33  30  27  26  26  28  29  31  34  38  41  48  54  57  57  58  57  58  57  55  53  53  50  50  50  53  56  61  67  70  73  76  76  75  73  73  66  63  59  54  53  51  46  42  35  31  27  27  26  25  26  28  32  34  48  72  92  99 126 155 171 176 178 177 177 176
 193 194 193 194 190 190 189 189 189 185 182 150  70  50  42  36  30  24  24  29  36  37  38  36  32  31  33  31  30  30  33  34  38  43  50  54  59  67  72  75  73  74  75  75  74  71  71  70  69  66  68  69  73  79  82  87  88  89  90  89  85  83  81  76  72  68  66  63  59  55  48  44  36  30  30  28  28  29  31  35  47  59  74  95 139 161 172 175 178 177 177 176
 202 201 202 205 199 200 198 195 194 190 183 140  75  48  34  27  24  28  37  36  33  35  32  31  32  36  37  33  34  38  45  48  54  61  71  79  84  87  87  90  89  88  87  88  85  87  87  84  83  82  82  85  88  91  94  94  95  96  94  94  91  89  88  85  84  79  75  72  69  65  60  57  52  40  32  30  29  29  31  35  42  53  74 125 167 173 177 177 178 178 176 176
 208 208 211 211 212 210 209 206 202 200 190 165  76  47  34  32  33  36  35  32  33  36  36  38  40  40  39  41  47  53  58  66  72  80  88  94  98  99  98  97  98  96  94  94  93  93  93  94  92  93  95  96  96  96  97  97  99  99  98  99  99  95  91  89  91  89  84  80  78  74  69  66  65  55  40  35  30  29  31  34  41  64 111 148 171 176 178 177 179 178 177 176
 210 207 212 215 215 215 213 213 210 204 196 154  60  46  43  37  32  31  30  30  30  32  34  39  43  42  46  52  61  68  75  82  92  97 104 109 112 111 109 108 106 103 101 102 100 100 100 101 101 101  98  99 100  99 101 103 104 106 108 108 105 102  98  95  92  94  91  88  86  83  77  75  73  68  50  36  30  30  30  32  41  75 126 158 170 174 178 178 178 178 176 176
 205 205 207 208 210 212 210 212 210 206 195 142  61  46  42  35  30  29  29  30  32  36  39  43  49  52  59  68  76  85  92 100 107 113 119 121 120 117 118 116 115 113 111 109 109 110 110 111 106 101 104 106 106 107 108 110 110 111 112 113 109 107 103  98  96  96  96  94  90  88  84  83  83  78  63  42  33  29  30  31  38  56 129 159 172 175 177 177 177 178 178 178
 196 198 200 199 201 202 204 204 202 198 191 135  60  43  33  30  28  31  32  37  38  40  44  48  58  65  72  81  91 101 107 112 118 123 128 129 127 124 124 122 122 118 116 116 116 115 116 116 112 105 105 109 110 112 114 115 115 115 114 112 108 106 106 100  99  99 101  98  95  92  91  90  90  87  76  53  37  32  30  30  33  44 114 161 171 174 174 176 178 179 179 178
 190 192 192 194 195 198 199 195 193 191 184 116  50  37  31  30  31  32  37  40  40  44  49  57  71  80  87  94 102 110 114 119 121 127 131 132 130 127 126 124 123 119 120 121 118 118 118 116 115 114 111 110 113 115 116 113 115 113 112 109 108 108 107 104 104 102 100 103 102  98  96  93  92  91  84  65  43  34  32  30  31  36  73 162 173 174 176 177 178 179 179 178
 190 190 190 191 190 192 192 192 190 189 177  89  46  36  34  33  32  34  37  39  41  47  55  70  82  94 101 108 115 118 123 127 130 131 131 131 128 127 126 126 123 119 119 121 119 120 117 117 118 118 113 115 116 115 114 113 114 113 111 108 112 112 111 107 105 105 102 103 105 101  99  98  96  95  89  75  54  36  30  31  31  34  42 108 168 176 176 176 178 179 178 178
 188 188 189 189 189 189 191 189 190 187 172  78  46  39  36  34  34  35  36  39  44  50  62  80  95 104 108 117 123 123 125 130 132 133 131 131 128 124 126 125 120 121 122 122 122 120 118 119 119 120 116 117 118 118 116 115 114 115 114 113 114 114 115 110 105 107 108 106 105 102  98 100 100  97  90  84  65  42  33  30  32  32  46  72 155 175 178 178 178 179 179 178
 188 188 188 190 189 188 188 189 187 187 160  64  47  40  34  33  36  37  37  40  48  55  73  90 104 109 114 121 124 127 130 132 133 134 132 131 129 125 124 124 122 122 124 125 123 121 123 124 121 118 116 116 117 120 120 118 118 116 112 113 117 120 119 115 110 109 112 110 108 105 100 102 104 101  92  85  72  49  35  31  33  32  45 103 138 172 177 179 179 179 180 178
 187 187 187 188 187 187 188 188 187 186 163  64  45  39  40  38  36  35  37  43  51  61  80  96 107 110 114 121 125 127 130 132 132 133 133 132 131 127 125 128 126 127 126 125 126 126 126 125 123 122 118 119 122 122 124 121 121 120 115 117 121 122 122 120 116 112 114 114 112 109 104 102 104 101  95  89  78  55  36  31  31  32  47 111 162 174 178 180 180 180 179 179
 187 187 189 188 189 188 187 188 188 186 167  73  46  43  40  37  36  36  39  45  52  66  85  97 108 112 112 119 124 128 131 132 133 133 133 134 133 132 130 131 131 130 130 130 131 133 129 127 124 124 123 121 124 125 126 125 126 127 127 128 128 128 128 125 122 120 119 115 114 109 107 105 103 100  97  92  83  63  41  31  30  32  40 113 164 176 178 180 180 180 178 178
 186 187 189 187 187 188 188 188 187 185 164  69  44  43  36  34  36  38  40  46  56  70  86  99 111 115 112 116 122 128 129 131 134 136 137 139 138 135 129 122 127 130 132 132 136 136 132 129 127 128 127 127 128 129 129 132 134 135 134 134 134 133 132 127 125 123 121 119 117 111 109 105 104 100  96  93  85  70  44  32  29  33  45 128 164 176 179 180 180 179 180 180
 187 188 189 188 187 188 188 187 186 185 157  66  45  39  34  36  38  38  41  50  59  74  92 102 110 116 118 120 123 128 132 133 135 132 135 138 138 138 125 108 117 129 136 136 135 133 134 132 132 133 133 132 134 136 137 138 138 139 136 136 135 133 133 131 127 125 125 120 117 112 110 108 105 101  94  92  87  77  51  33  31  32  46 119 168 177 179 182 179 180 179 179
 186 187 187 186 187 188 187 186 186 183 163  77  46  39  37  37  36  40  44  50  64  82  98 107 114 119 123 128 129 133 133 134 134 133 134 138 140 143 138 133 133 139 139 136 136 133 137 138 138 135 134 133 133 134 137 140 135 134 136 134 132 133 134 129 125 124 121 115 112 110 106 109 108 104  95  91  87  80  60  35  31  34  53 118 169 178 180 181 180 180 180 180
 186 186 187 187 187 188 186 187 187 183 173  90  49  41  37  38  37  38  44  54  71  85 100 110 115 121 127 130 133 132 135 134 137 138 140 141 142 144 146 146 145 144 141 141 137 138 139 136 137 134 135 134 135 138 136 137 135 132 132 135 133 131 127 121 120 118 115 108 106 108 106 106 108 109 103  91  86  82  67  38  30  32  55 133 169 178 181 181 182 181 180 179
 185 186 186 187 188 186 186 187 187 185 173 101  49  41  37  36  36  38  45  60  74  89 106 113 117 121 128 128 130 131 133 135 137 139 140 142 145 147 146 146 146 145 142 141 138 140 137 134 133 134 133 134 134 133 133 131 129 129 129 130 128 126 121 115 110 110 107 101 101 103 105 106 107 103 101  94  88  85  72  43  30  32  46 149 174 179 181 180 180 182 180 180
 186 185 185 187 187 187 186 186 186 186 178 120  53  42  35  33  34  38  45  60  76  93 106 113 118 121 125 128 132 133 131 131 135 139 140 141 140 146 144 142 141 139 137 138 137 134 132 132 131 132 131 130 129 128 126 124 124 122 122 117 116 116 110 106 101  99  95  89  85  85  85  89  88  86  85  87  86  83  72  45  29  31  49 148 175 179 181 180 181 182 180 181
 185 186 185 186 187 187 187 187 187 186 183 146  65  45  36  32  33  38  44  57  76  93 110 113 118 120 124 128 133 136 137 136 137 136 138 137 134 132 132 134 133 130 129 129 127 126 126 128 127 127 126 124 124 123 121 122 117 113 108 101  99 100  95  90  81  78  75  71  67  62  57  58  59  58  61  64  75  82  78  47  28  32  52 155 177 182 182 180 181 181 179 180
 186 187 185 185 186 187 186 186 187 186 185 171  75  49  37  32  34  38  43  52  77  96 111 115 118 121 126 129 136 136 137 134 126 127 127 126 126 123 122 123 121 121 123 120 118 119 114 118 119 118 118 120 120 118 117 116 112 105  98  92  85  75  69  63  58  51  48  42  40  42  42  38  38  40  42  46  53  61  73  48  27  32  78 163 178 179 180 179 180 180 179 179
 187 187 186 185 186 186 187 185 186 186 185 177  91  49  37  33  36  39  43  56  82 103 113 117 117 119 127 132 131 126 116 109 113 115 112 111 114 109 107 109 109 109 105 106 106 103 100 106 104 108 112 111 111 111 109 110 108  95  82  78  65  52  42  37  35  34  33  30  29  32  32  32  31  31  33  37  43  45  55  52  29  33  89 170 179 181 183 182 180 180 179 179
 186 186 186 186 187 187 187 186 186 185 185 179 104  54  39  34  36  38  41  60  87 107 115 117 116 123 125 118  98  80  78  78  86  85  80  85  85  76  72  71  64  65  68  74  74  79  82  89  93  95  98 102 101  98  98  98  96  85  67  61  48  36  29  25  24  23  22  22  24  25  25  27  25  25  28  28  33  39  45  49  31  32 107 169 178 182 181 180 180 180 179 179
 186 186 186 186 186 187 185 185 186 186 186 181 119  53  41  37  34  36  42  66  97 109 116 114 114 116 103  76  68  64  65  61  58  53  52  54  51  44  41  41  41  40  37  42  48  52  59  72  80  85  89  97  99  94  90  91  87  74  57  46  36  28  23  20  18  18  19  18  18  20  21  24  24  24  25  25  28  34  45  48  35  36 131 173 179 181 180 180 180 179 178 180
 185 186 186 186 186 186 186 186 185 185 185 180 139  54  42  37  36  37  44  71 101 111 113 112 109  98  86  70  55  52  52  48  43  40  38  34  31  31  29  29  28  28  26  29  31  35  42  58  65  76  82  88  91  92  88  81  77  65  50  41  31  26  23  20  19  18  19  20  23  26  27  28  27  28  27  27  28  29  32  39  34  38 133 177 178 178 177 177 178 180 179 180
 185 187 186 186 186 186 186 186 185 186 186 184 159  61  43  38  36  35  47  77 102 112 114 112 100  85  68  51  45  42  41  40  39  40  40  37  33  31  29  28  26  24  23  24  26  30  32  41  50  60  74  80  84  86  81  78  70  55  42  34  27  26  25  24  25  26  29  31  29  29  27  27  28  29  31  32  34  35  33  30  23  27  30  39  55  75  94 162 177 179 180 178
 185 186 187 186 186 186 186 187 186 186 186 186 175  84  46  38  36  36  50  86 106 114 115 102  87  75  64  52  46  44  41  41  40  39  36  34  34  35  35  34  36  36  35  36  34  35  35  37  44  51  63  74  78  76  72  67  58  45  37  31  30  30  30  29  27  26  25  25  28  33  35  38  38  39  41  44  44  46  50  62 125 108  54  30  29  29  32 105 176 179 179 178
 185 185 187 187 186 186 187 187 186 186 186 185 178 123  45  38  36  38  53  77  76  67  61  47  41  35  34  37  40  41  41  40  39  41  41  43  42  41  40  38  37  35  33  33  31  31  29  28  32  36  40  51  59  59  57  50  43  33  30  28  25  24  23  26  25  27  29  31  34  33  34  33  35  38  41  43  45  46  52  72 156 143  84  46  27  25  28  94 176 178 178 177
 186 186 187 187 187 185 186 187 188 186 187 186 183 163  57  40  37  37  59  40  29  27  28  29  39  52  56  52  51  52  51  51  48  50  51  51  50  49  48  44  43  42  41  42  42  42  41  38  29  24  24  26  24  24  24  21  21  21  20  20  23  29  30  28  27  28  30  33  36  38  41  40  39  34  33  40  45  50  52  51  48  32  36  40  33  25  28  92 174 177 177 178
 186 186 186 186 187 186 187 186 187 187 186 186 186 182  83  42  38  40  62  33  26  25  30  57  78  68  56  55  59  60  59  60  59  54  51  48  45  44  42  40  39  39  41  44  45  46  46  47  48  35  23  24  22  22  20  20  19  21  21  25  31  30  27  26  26  27  28  27  30  32  35  41  45  46  35  35  43  48  52  47  28  30  32  38  43  26  27  88 173 178 179 179
 186 185 185 184 186 186 187 187 187 187 186 186 186 183 123  46  38  40  61  31  26  26  42  87  75  67  59  59  61  61  58  55  48  44  48  52  54  51  46  39  36  34  33  35  41  44  45  46  50  51  26  23  22  24  20  20  18  20  23  29  30  27  26  24  21  20  17  18  18  19  24  26  32  39  41  36  41  48  51  50  29  28  31  34  49  30  38 136 175 177 178 178
 185 185 185 186 186 185 187 187 188 186 186 186 186 184 154  48  36  42  71  32  24  26  62  93  75  63  60  60  58  55  49  43  47  57  60  59  52  44  40  34  35  32  32  32  34  40  44  46  50  55  34  24  24  26  22  20  19  19  23  30  30  26  24  23  19  18  17  18  17  21  28  32  24  24  30  36  41  49  55  58  51  87 123 147  87  34  98 172 178 179 179 178
 186 186 186 186 186 186 187 186 187 186 186 186 186 185 174  56  35  50  74  35  26  30  63  85  72  63  61  56  54  48  42  49  57  54  42  32  26  24  22  22  24  26  28  31  35  39  45  49  52  56  36  26  25  32  34  30  22  20  23  32  32  27  26  29  26  19  19  18  20  24  31  36  29  26  26  29  39  50  61  67  73 162 171 171 109  40 140 175 178 178 179 177
 185 186 187 187 187 186 186 187 186 187 186 186 186 185 180  89  37  54  73  47  31  30  62  83  72  65  60  56  51  44  46  55  46  36  29  27  29  33  28  28  33  39  33  31  32  42  52  56  61  60  37  26  34  54  70  58  29  23  24  39  36  27  28  31  32  26  23  21  23  27  33  34  32  34  36  40  45  52  62  75  75 150 173 172 119  52 159 176 179 179 177 176
 186 184 187 187 187 188 188 187 186 186 186 187 185 174 163 118  37  46  58  51  50  29  65  86  77  70  63  56  50  45  45  40  31  35  37  29  29  32  30  32  38  40  37  33  34  36  53  65  66  63  34  27  60 112 125 119  76  25  23  41  42  37  33  32  32  34  35  35  37  35  37  38  43  44  46  48  54  63  72  81  81 138 173 171 116  71 172 177 178 177 177 177
 186 185 186 188 188 188 188 185 186 187 187 187 176 149 137 115  65  47  59  76  72  33  72  94  88  82  73  61  51  44  38  36  39  41  46  46  45  47  46  44  43  39  41  43  48  50  56  65  66  60  30  43 119 140 146 145 132  55  24  36  46  43  39  35  36  37  39  40  45  47  49  49  50  50  49  53  63  69  77  84  88 136 171 171 110 104 172 177 178 176 178 178
 186 186 187 187 188 188 187 187 188 187 187 186 149  95 108 101  74  56  70 100 109  43  60 106  98  88  81  72  61  53  52  58  62  65  64  66  60  62  64  57  55  49  47  45  48  50  56  63  70  55  27  97 147 155 158 154 143  99  26  30  43  42  38  35  37  39  43  46  50  54  54  54  50  48  50  60  70  80  83  86  91 136 168 171  96 136 175 177 178 177 178 176
 188 188 187 188 188 189 188 187 189 188 186 186 136  78  74  95  74  59  74 112 121  62  45 110 107  99  96  94  86  76  65  65  75  78  77  78  73  75  71  68  62  52  46  45  48  50  57  68  73  46  37 118 151 159 160 155 145 117  47  27  46  45  41  38  38  35  34  38  40  43  43  43  45  47  53  63  72  82  87  89  94 132 166 158  83 162 176 177 177 177 176 178
 188 188 188 186 187 188 189 188 188 188 188 185 140  83  76 100  95  69  74 119 124  93  38  97 111 110 109 104  96  91  80  70  64  68  73  75  73  69  63  56  52  46  48  55  58  63  72  80  70  36  57 125 152 158 158 157 146 122  84  26  40  57  53  48  47  46  44  43  44  45  45  48  51  59  72  82  83  80  82  85  89 124 162 117  97 171 176 177 177 176 177 178
 188 188 188 187 188 188 189 188 188 188 187 185 144  83  84 108 100  78  80 125 132 117  44  76 117 116 116 114 112 105  96  87  73  64  63  59  57  57  56  59  61  62  66  70  76  85  90  84  56  33  88 131 151 157 159 161 146 122 100  46  28  54  62  65  64  62  60  58  59  61  60  63  73  86  93  96  93  87  81  82  86 111 139  73 136 175 176 177 178 177 177 177
 188 188 188 187 189 189 188 188 188 187 187 185 150  85  96 119 112  82  84 130 136 130  68  45 112 118 118 117 115 107  97  91  84  77  74  71  70  70  71  76  80  83  84  90  97  99  95  79  44  43 110 136 149 160 160 160 144 123 107  85  26  42  64  66  70  73  77  78  80  80  82  86  90  98 100 102 100  94  85  83  85 103  82  86 166 175 177 178 176 177 176 177
 188 187 188 187 189 188 188 188 187 187 186 185 153  90 110 128 125  97  88 129 137 133 108  35  78 117 119 117 114 108 108 109 103  95  92  89  86  86  91  96  96  99  99 103 104 101  94  60  36  75 123 136 144 156 162 162 142 123 108 102  57  28  57  70  69  72  74  77  82  83  89  95  96 100 102 103 104 101  93  86  74  63  52 138 174 177 177 177 177 176 177 176
 189 187 188 188 188 188 188 187 186 187 186 183 162  99 124 123 115  94  89 129 136 133 123  64  43 108 121 116 109 114 117 114 108 105  99  97  95  97 100 102 102 102 101 105 107  98  71  44  44 104 126 133 138 150 163 161 144 125 112 103  97  32  27  59  79  81  83  87  88  93 100 105 106 108 109 106 107  94  76  61  44  40  75 153 174 177 177 176 176 176 176 175
 189 187 188 189 188 188 189 188 187 188 187 187 172 112 119 102  95  81  89 127 136 133 128 118  53  53 102 113 119 122 122 115 115 115 113 111 109 107 107 107 108 110 111 110  86  60  46  47  77 119 125 132 138 150 161 163 148 126 115 104  98  83  26  28  39  57  71  82  88  95  96  98  91  82  73  60  51  43  33  35  56  80  93 153 175 176 176 176 176 177 176 176
 189 188 189 190 189 190 190 189 189 188 188 189 182 140 117  88  81  79  90 126 136 137 133 129 118  62  35  66  95 113 116 116 122 120 120 119 116 111 108 102  97  85  73  53  45  38  60  67 105 121 125 133 138 144 158 162 152 131 118 109  99  91  64  35  25  25  35  37  40  43  41  38  40  35  30  30  37  54  73  93  97  96  96 148 173 176 177 177 177 177 177 175
 189 188 189 188 189 190 189 189 189 189 189 187 187 166 114  78  73  84 100 123 137 138 139 130 124 123 106  69  44  34  48  54  62  65  67  64  62  58  52  50  46  41  34  38  59  79  72  82 113 122 127 139 143 148 156 161 153 133 122 113  98  85  74  54  52  54  45  46  46  43  48  49  56  64  73  84  92  95  95  97  99  99  95 141 172 176 175 177 177 177 176 175
 189 188 189 189 189 188 189 188 189 190 188 188 188 178 127  87  77  91 113 122 136 141 138 131 126 126 123 134 141 131 100  81  68  56  51  46  46  45  47  53  63  73  87  93  85  76  72  95 112 116 127 138 142 148 156 157 151 135 124 115  97  80  68  58  50  52  56  61  68  72  74  74  73  76  79  80  83  85  89  89  97 100  97 135 171 175 176 175 175 175 175 175
 188 187 190 189 189 189 188 188 190 189 189 188 188 183 152 112  84  93 120 119 131 139 135 132 129 128 129 143 145 142 132 122 114 109 105  99  95  94  91  89  89  90  89  83  77  73  78  99 107 111 124 134 139 146 154 153 147 133 124 114  98  87  75  62  53  49  50  53  58  61  64  66  68  70  71  72  75  79  83  85  89  97 102 128 168 175 176 175 175 175 175 175
 188 188 189 189 188 189 190 189 190 188 189 188 188 185 164 136 104  91 117 126 132 134 135 132 130 130 135 141 140 137 134 127 118 112 108 104  97  93  90  88  89  87  88  84  79  76  87  99 102 108 120 129 137 146 154 149 142 131 121 116  98  92  97  86  63  50  49  52  55  58  62  63  67  70  72  74  77  80  81  84  86  94 103 118 155 172 175 175 175 175 175 174
 189 189 189 189 188 189 189 189 190 190 188 188 187 186 169 133 135 134 133 124 129 132 134 134 131 134 144 139 136 132 129 125 118 112 110 105  99  95  94  94  93  91  91  90  85  82  94 109 112 114 122 130 136 144 148 140 134 125 119 114 104  95 100 104  91  52  51  50  52  56  60  63  67  71  74  75  77  79  79  81  82  88 102 109 135 170 174 175 175 175 175 173
 189 188 190 189 190 190 190 188 189 189 189 188 187 186 173 137 130 156 147 129 127 129 133 132 130 139 145 137 133 130 127 123 119 117 111 105 102  98  97  97  94  93  92  89  88  90 107 124 122 124 128 130 137 143 138 129 123 117 113 110 105  98 101 104 105  74  52  52  51  50  54  59  65  70  74  75  78  78  77  76  78  84  97 102 130 170 173 174 175 175 174 172
 190 190 190 190 189 190 190 189 189 189 188 188 189 185 175 147 139 148 140 133 126 127 131 129 129 142 142 135 128 126 125 124 122 119 115 106 104  99  98  92  90  89  88  88  90  96 119 132 129 127 131 133 138 135 130 121 114 110 106 104 101  98  98 101 104  93  58  54  57  56  53  53  57  63  69  73  75  78  77  76  77  81  96  98 148 170 173 174 173 173 173 173
 192 192 192 192 191 191 191 191 190 190 189 188 188 186 180 158 154 135 122 124 122 127 128 124 130 142 137 133 129 127 124 126 124 121 118 113 105  98  92  87  85  86  92  93  93 105 126 132 130 128 130 131 132 131 124 117 108 104 103  98  95  95  93  94  92  82  60  57  59  62  58  52  52  57  61  68  72  75  76  77  77  82  89 114 166 172 173 175 174 173 174 172
 194 194 194 194 194 193 194 193 190 189 189 190 189 189 182 168 161 146 137 133 123 126 124 120 128 140 133 129 126 126 128 123 121 118 116 110 101  91  83  78  82  90  97  98  98 105 123 128 128 124 123 123 124 123 118 112 106 102 100  91  86  83  82  79  74  62  56  56  56  57  56  53  49  49  49  56  64  70  72  76  74  82 104 158 171 171 174 174 173 172 172 172
 193 194 194 195 195 195 196 194 194 190 190 189 190 188 183 171 158 153 152 146 132 128 123 119 128 135 133 126 122 122 122 119 117 115 110 103  94  83  74  73  84  95 103 104 102 102 108 116 113 111 107 107 110 110 108 104  98  96  95  87  78  69  61  57  50  47  48  54  55  55  54  50  46  46  46  51  58  63  68  73  73  88 152 170 172 171 174 174 174 173 172 172
 195 196 195 196 196 196 196 195 193 191 190 190 189 188 187 170 152 153 150 147 134 129 123 118 126 130 130 122 120 118 117 116 114 108 100  92  82  71  64  73  88 101 108 108 106 100  94  89  84  84  83  81  83  92  97  93  88  87  87  81  67  55  45  42  42  43  43  52  54  54  51  47  43  44  43  46  51  56  63  72  71  94 160 170 172 173 172 173 172 173 171 172
 194 194 196 196 197 197 195 196 194 192 191 190 189 189 188 178 142 138 137 137 129 124 125 119 122 128 124 116 113 112 112 111 107 102  93  81  70  62  60  77  94 102 104 102 101 101  93  76  60  57  54  53  62  74  84  82  75  74  75  69  56  44  37  34  34  34  36  45  50  50  47  41  38  38  40  42  46  50  58  70  70 104 164 171 172 173 173 171 174 173 171 172
 193 194 194 194 197 197 197 195 194 193 191 191 189 188 187 182 170 130 117 114 110 116 124 121 120 125 119 111 112 111 108 102  99  92  81  68  58  54  63  80  94 101  99  97  99  97  89  81  72  68  69  65  60  61  74  76  67  64  62  57  45  35  28  28  28  30  33  35  42  43  40  36  31  32  34  38  41  45  54  66  70 111 165 171 172 173 172 172 173 173 173 171
 192 193 193 193 194 195 196 196 194 193 191 191 190 189 188 182 181 168 115  95  89 101 123 119 121 122 114 106 107 107 102  98  90  78  67  53  49  51  63  78  88  96  93  88  88  89  75  68  62  61  66  71  67  59  57  67  62  56  52  41  33  29  25  25  24  26  32  32  35  38  32  30  26  24  26  30  36  42  56  66  75 125 166 171 172 172 171 172 173 171 171 170
 192 193 193 192 193 194 194 194 193 193 192 192 190 187 186 183 181 179 176 157 152 157 126 121 121 120 109  99 106 104  99  91  80  66  49  44  48  53  64  77  85  89  88  78  72  74  65  53  45  42  47  52  59  59  56  59  57  50  42  30  26  25  21  22  23  26  32  32  34  35  30  27  25  24  24  25  32  45  59  66  79 140 166 170 171 171 173 171 172 171 171 170
 192 192 193 191 192 193 193 193 192 191 191 191 189 187 186 183 181 180 180 177 176 166 129 123 121 120 109  91 102 105  95  83  67  47  36  39  45  52  62  70  81  77  76  68  64  65  58  47  36  34  35  38  38  41  44  44  43  42  34  25  20  20  22  22  23  25  30  32  33  32  27  24  23  24  24  23  29  45  60  67  86 154 168 169 170 170 172 171 170 171 171 170
 190 191 192 191 192 193 193 192 190 191 190 189 187 185 185 182 180 179 178 176 175 171 137 123 120 119 110  89  95 101  90  76  55  35  31  36  40  46  46  56  63  61  60  57  53  55  51  41  31  28  28  30  29  26  26  29  32  31  27  21  19  20  24  27  27  26  30  36  35  35  30  25  27  28  29  32  33  49  59  68 106 159 169 170 170 171 170 170 170 170 170 170
 190 189 190 190 191 190 190 190 189 191 189 187 185 184 182 180 180 178 177 176 175 174 149 122 118 114 110  90  84  96  86  71  46  29  27  31  32  36  36  48  50  50  51  55  53  50  48  41  33  30  26  26  24  22  21  23  25  27  26  22  21  24  28  33  33  31  37  41  39  31  26  29  36  35  40  45  47  55  64  72 136 165 168 168 169 169 170 170 170 170 171 170
 186 186 186 188 188 190 189 188 187 187 187 184 184 181 181 180 179 176 175 175 175 174 163 124 115 113 107  92  79  91  85  71  43  28  28  27  29  28  31  37  37  45  50  50  49  48  49  43  36  31  27  29  26  24  22  22  25  28  30  29  25  28  33  36  40  36  36  31  24  22  28  40  46  44  47  54  54  60  68  88 155 166 168 168 168 169 170 169 170 169 169 168
 185 185 185 184 185 186 185 185 185 184 184 183 182 180 181 178 176 176 175 176 174 175 168 128 114 113 106  94  77  80  84  74  50  30  29  27  25  25  27  31  34  44  45  46  50  47  49  48  38  32  32  35  28  27  27  27  32  32  37  44  36  37  36  38  40  41  33  19  22  28  41  54  56  50  52  57  58  63  72 122 162 166 168 168 169 169 168 168 170 170 169 168
 185 185 185 186 185 186 186 184 183 182 182 182 181 179 180 177 176 176 174 173 174 173 169 141 112 110 107  97  81  72  80  73  57  44  40  36  33  32  31  29  28  30  34  40  46  47  48  47  43  39  36  40  33  32  36  37  41  42  40  39  38  39  45  47  53  44  29  23  28  39  54  62  59  54  55  61  60  67  79 143 162 165 168 168 167 168 168 167 169 168 168 166
 184 182 183 184 184 184 183 182 181 180 181 180 179 178 177 176 175 174 174 173 174 170 168 154 112 102 102  98  88  75  75  76  67  58  54  48  46  46  49  47  39  30  24  28  49  53  51  52  48  46  44  40  37  38  39  38  39  41  44  54  52  58  60  53  53  34  28  32  39  51  61  65  59  53  60  61  62  69  94 156 164 166 166 166 167 165 167 166 166 166 168 168
 181 181 181 182 181 181 181 179 179 179 178 176 176 175 176 175 174 174 173 171 171 168 167 163 123 102  99  96  88  80  71  73  72  66  62  60  57  63  72  74  67  51  44  37  44  53  59  71  66  73  81  70  62  74  76  66  55  64  74  76  71  65  58  46  41  31  37  42  48  60  63  64  58  55  61  59  63  70 126 160 163 165 164 163 164 163 167 165 165 167 166 166
 179 178 177 177 178 179 178 177 177 174 176 175 176 174 175 174 172 173 171 170 170 169 168 165 138 100  95  92  89  87  76  68  75  73  69  66  61  71  82  85  84  77  68  59  58  49  44  70  69  78  90  87  80  90  88  80  69  78  82  84  73  55  38  29  36  39  43  48  54  62  65  63  57  56  61  57  64  81 156 161 162 164 163 163 162 162 164 163 165 166 164 164
 175 176 175 176 175 175 174 175 175 174 174 174 174 174 173 174 172 172 169 168 168 167 167 166 152 106  95  90  88  86  79  70  73  80  76  70  66  73  83  89  91  87  86  81  75  66  61  60  53  55  78  81  75  85  84  76  64  73  78  73  57  37  32  36  43  47  49  53  57  62  63  61  56  58  62  60  67 121 159 162 162 163 162 163 164 162 164 164 163 164 163 163
 174 175 175 174 174 173 174 174 173 172 173 172 173 174 172 172 172 170 170 169 168 167 166 165 158 123  96  88  86  85  82  80  72  77  84  79  75  75  80  88  91  90  92  92  88  80  76  70  59  47  43  45  42  55  57  53  46  51  50  43  45  45  47  48  51  50  54  59  62  61  60  56  56  60  59  63  83 150 159 162 162 162 162 162 163 162 163 164 163 163 164 162
 173 174 174 172 173 174 174 174 173 172 172 170 170 170 172 171 170 170 168 168 167 167 166 164 161 146 103  91  84  81  81  82  78  74  82  88  81  79  78  85  91  92  94  96  95  87  81  81  76  66  59  52  47  46  45  48  50  55  56  58  58  61  58  54  53  54  59  62  61  62  59  56  61  62  58  66 124 156 160 163 161 161 162 161 163 162 163 162 161 161 162 162
 174 173 172 172 171 174 173 171 171 171 171 169 170 168 169 168 168 169 168 167 167 165 165 163 162 156 122  95  87  80  79  80  79  73  74  87  89  86  77  82  90  89  92  95  97  94  84  80  79  79  77  72  66  64  62  63  65  68  69  68  66  62  55  52  54  59  63  63  62  61  56  55  59  61  58  79 150 157 159 160 160 161 162 160 160 160 159 159 161 160 161 161
 173 170 171 174 173 170 170 172 169 170 170 169 169 168 167 168 167 167 166 164 166 165 164 161 162 159 145  98  90  84  80  78  76  74  71  78  91  94  88  85  83  88  90  94  94  91  91  84  78  74  72  72  76  74  71  69  66  64  64  63  58  52  49  50  56  64  62  63  63  62  56  55  62  61  60 122 155 159 159 161 161 161 160 161 159 158 158 158 160 160 158 161
 171 169 171 170 169 169 169 170 168 169 168 167 167 168 167 167 168 164 164 163 165 163 161 161 160 159 155 125  89  86  84  78  75  72  72  74  87  97  92  90  87  89  89  90  91  90  89  88  83  76  68  65  63  64  62  58  57  55  56  55  51  50  52  54  56  61  61  60  62  62  63  64  65  57  77 148 157 159 159 159 161 161 161 160 160 159 159 158 158 158 158 160
 169 170 169 170 169 167 167 167 168 168 166 167 167 166 165 165 163 164 164 163 164 162 163 161 160 158 157 150  98  82  86  85  78  75  74  75  78  88  96  93  88  86  85  86  90  89  87  87  84  80  75  67  62  60  58  55  57  56  57  57  53  53  51  52  52  54  56  55  59  63  68  67  65  63 113 155 158 158 159 160 159 159 160 159 158 158 156 158 158 157 158 157
 169 167 168 167 168 167 167 167 164 165 166 164 165 166 165 164 163 163 161 163 160 161 161 161 160 159 157 155 123  85  84  86  83  79  75  76  78  84  91  92  92  91  87  84  86  88  88  84  81  77  76  73  69  66  61  58  59  57  56  54  52  50  46  44  45  50  51  54  58  66  72  71  66  60 138 157 158 158 159 159 158 160 158 158 158 158 158 158 158 158 157 157
 167 167 169 168 166 167 167 167 167 166 166 165 164 164 164 164 163 163 163 162 162 161 160 160 159 157 156 154 135  99  83  83  84  84  81  80  81  85  87  95 100 100  92  88  82  82  87  83  78  75  71  69  67  57  52  51  52  51  48  44  41  38  37  39  39  50  55  58  64  68  74  72  62  79 149 157 158 158 158 158 160 158 160 158 156 156 155 156 156 157 157 156
 167 167 168 167 168 168 168 168 166 165 167 166 164 165 164 165 165 163 163 163 162 160 159 158 158 157 154 152 137 109  94  82  82  84  87  87  86  88  88  96 100 101  97  94  88  83  85  82  79  76  72  70  64  51  40  38  42  38  37  34  35  35  35  35  41  52  58  65  70  75  79  72  65 106 153 155 155 156 158 157 157 157 158 156 157 156 155 156 156 156 156 156
 168 167 168 165 168 166 167 166 166 166 165 166 165 166 165 164 162 161 161 160 158 158 157 157 157 155 153 153 136 111 101  91  80  80  84  87  88  89  90  88  97 104 105 101  97  91  87  82  80  80  77  70  61  51  39  36  36  33  29  29  33  36  38  40  42  54  63  69  72  76  75  69  66 122 151 154 155 157 157 157 157 156 158 156 156 157 157 155 155 154 156 156
 169 167 167 166 167 167 166 166 164 167 167 166 164 163 163 162 160 158 157 156 154 154 152 149 145 138 135 131 125 111 103  97  87  79  80  84  88  86  85  79  89 102 110 106 109  98  93  91  86  85  85  77  65  56  43  36  34  31  26  27  31  34  40  48  53  60  70  74  76  79  80  65  62 119 149 153 155 155 156 156 156 155 156 157 156 156 156 156 155 156 155 156
 166 165 167 166 166 166 166 165 165 164 164 163 164 161 162 158 157 156 154 137 119  99  88  84  73  70  70  68  88 111 100  94  94  85  78  80  84  88  85  75  77  93 102 101 109 109  97  93  91  88  88  81  70  62  49  40  39  34  31  28  36  39  45  49  57  68  77  82  81  79  75  62  47  69 104 124 143 152 152 154 155 155 155 154 155 155 155 155 156 155 156 155
 166 164 166 166 164 167 165 165 164 163 163 163 161 159 158 155 145 116  82  75  71  62  59  54  50  48  52  51  85 111 101  90  93  93  85  79  78  82  85  76  75  87  90 102 108 113 107 100  99  96  95  87  76  71  58  48  44  44  40  36  49  50  49  49  58  71  76  83  81  80  71  47  34  43  48  49  52  69  91 122 147 152 152 153 154 155 154 155 155 154 155 155
 165 164 166 165 164 164 163 163 163 159 159 159 156 154 142 106  78  71  65  56  50  47  44  42  39  36  52  84  95 111 107  97  92  96  90  83  79  76  76  75  71  75  86  97  97 102 108 104  97 100  95  94  82  82  66  56  46  47  45  48  52  57  59  57  58  62  71  69  70  68  60  39  27  31  35  36  40  43  46  51  59  91 129 151 152 152 152 154 154 154 155 154
 164 164 163 163 162 162 163 162 160 157 156 155 148 119  88  75  69  65  55  44  41  35  32  30  45  69  94  65  92 113 110 101  98  96  94  90  83  78  74  69  63  68  73  78  86  92 100  94  83  89  81  84  88  91  77  68  54  48  50  55  62  60  60  64  56  51  55  54  56  53  49  33  26  28  30  31  34  36  37  37  42  45  48  78 126 150 152 153 154 154 152 154
 159 160 160 162 161 160 159 157 155 154 154 138 102  78  70  65  61  52  43  34  29  33  41  69  80  89  87  61 117 113 110 103 102 100  97  92  88  85  78  68  62  57  52  62  70  79  86  77  64  64  70  76  86  94  84  71  62  50  55  55  61  65  56  61  58  48  51  53  49  44  34  29  32  27  25  27  29  29  31  33  36  38  39  49  47  87 141 148 150 152 152 153
 158 156 156 157 156 157 154 153 152 150 124  89  76  72  67  52  41  37  34  42  48  57  78  79  89  91  69  96 119 115 111 105 104 102 100  96  94  92  84  76  58  46  42  47  58  67  76  63  49  52  57  63  76  88  77  75  66  56  53  50  54  56  52  51  47  43  46  44  40  34  27  31  45  44  34  20  18  21  23  27  30  31  35  39  42  46  60 125 147 150 149 150
 155 155 154 153 153 154 152 152 150 112  83  78  71  63  52  36  34  50  57  53  58  80  82  85  91  88  53 124 118 115 111 109 108 104 102 100  97  95  90  85  69  53  38  38  44  54  60  52  43  49  49  53  67  72  69  71  62  55  46  44  45  44  42  43  41  38  38  36  33  28  26  37  47  46  37  48  46  37  25  23  25  27  32  35  38  42  46  50 108 146 148 150
 154 153 152 151 151 152 147 124  94  79  75  65  59  54  38  40  62  65  62  60  76  83  77  84  87  78  67 132 119 114 112 110 108 105 104 103  99  97  96  95  87  75  46  36  33  43  45  47  41  45  44  44  49  60  54  57  50  44  39  38  39  36  36  36  36  32  32  30  25  26  30  52  45  49  43  33  43  48  51  48  32  23  26  31  35  37  41  44  48  75 120 147
 152 151 150 150 134 111  89  83  73  71  74  62  57  45  51  69  66  60  51  69  79  81  80  83  86  69  84 130 116 112 110 110 110 107 106 101 101 101 102  98  94  90  70  43  31  34  34  39  41  45  43  39  40  46  42  37  34  31  31  29  29  30  30  28  30  27  24  23  24  29  51  66  40  46  48  40  31  40  59  65  64  56  37  27  30  32  39  43  45  48  51  65
 151 148 134 105  86  78  76  74  72  64  71  64  43  50  88  73  51  41  62  68  84  81  91  88  81  58 105 127 115 113 109 110 110 111 108 104 103 102 102 101  98  93  82  69  53  34  30  34  34  36  38  32  33  33  30  25  25  24  24  21  20  22  21  21  24  20  20  23  33  45  64  67  38  44  47  46  36  30  39  56  74  83  72  56  29  28  34  38  39  41  41  44
 135 102  86  79  83  72  70  69  66  67  68  49  51  98 102  60  35  55  63  75  83  80  86  83  76  53 118 124 115 112 113 114 113 111 109 105 102 103 103 101 100  96  95  90  66  42  31  30  28  30  30  26  27  24  21  18  19  20  18  17  17  18  18  20  22  20  27  38  54  62  68  69  47  40  42  42  49  32  32  42  43  52  85  83  71  39  28  33  35  40  42  40
  81  79  78  73  67  66  69  66  71  66  50  43 119 105 101  60  39  65  51  82  84  81  82  77  70  53 125 123 113 110 114 116 112 112 110 106 104 102 102 101  96  92  95  94  85  67  52  38  28  29  28  23  23  21  19  17  17  18  19  16  17  20  20  31  32  34  47  57  64  68  68  68  54  34  43  40  47  50  30  29  40  38  47  81  88  78  57  26  36  37  40  42
  72  72  72  69  62  64  66  68  69  57  41 120 122 122  99  56  61  54  59  87  75  79  73  74  71  54 126 122 115 111 113 114 114 116 112 106 106 104 104 101  97  91  94  94  92  84  67  52  47  46  35  29  32  26  21  19  24  26  29  23  25  32  37  44  50  56  59  63  65  69  68  68  61  31  41  39  37  45  45  27  30  39  36  50  76 100  96  81  28  32  35  39
  72  72  68  69  62  66  68  69  66  48  97 137 158 118 104  49  56  44  69  79  72  79  70  76  71  53 125 119 115 112 114 116 117 115 112 109 110 105 103 100  98  94  94  92  89  87  84  83  76  71  61  53  44  40  41  33  40  44  45  46  47  51  52  55  58  59  65  65  69  70  69  67  65  35  40  40  37  42  46  40  23  30  37  36  62  88 119 114 102  32  31  37
  65  66  63  66  69  72  70  65  51  69 150 158 155 144 103  52  50  41  75  79  71  76  68  74  70  52 122 118 116 114 113 115 117 114 114 111 113 105 100  96  96  94  92  91  90  87  84  82  82  79  78  74  67  63  62  58  52  52  51  52  54  55  57  56  59  61  66  67  68  69  71  68  67  35  38  39  35  36  35  40  28  22  34  40  33  90 109 129 127 110  33  31
  63  60  67  64  68  70  70  60  51 152 159 177 164 157 106  48  39  49  79  77  73  74  66  70  66  48 113 116 116 115 115 117 116 115 113 110 111 106 101  97  95  93  93  90  90  86  83  80  80  78  77  78  74  72  66  58  54  54  53  54  54  55  56  58  59  63  68  68  68  69  70  69  66  39  38  39  34  34  32  40  36  20  29  43  38  70 116 120 137 135 112  33
  60  62  66  59  62  65  62  54 132 164 184 171 176 154  87  41  34  62  74  78  79  70  66  69  67  51 105 114 114 114 114 117 116 115 110 110 107 104 102  99  96  92  89  89  88  88  82  82  79  78  81  80  77  73  66  58  53  54  52  54  55  56  56  58  60  65  67  69  67  69  68  68  68  42  38  40  36  39  29  37  45  30  22  31  44  59 113 132 129 144 139 103
  62  59  60  62  65  59  57  78 178 190 176 185 179 149  61  34  44  76  77  81  71  67  68  65  66  53  95 114 112 114 115 114 113 112 112 110 104 102 101  98  96  95  92  91  87  84  81  80  79  76  78  77  75  70  61  56  52  54  53  55  56  55  58  60  62  64  66  67  67  66  66  68  68  44  37  41  38  38  34  24  43  41  29  27  38  38  93 129 143 139 148 141
