P2
# Generated by OpenCV 3.4.0
92 112
255
 174 174 176 174 174 170 128  48  36  32  30  34  34  35  43  43  38  37  38  34  31  27  27  26  26  26  26  26  25  25  22  21  23  22  21  18  18  19  19  20  21  24  24  25  23  21  20  20  22  24  24  19  19  22  21  23  24  19  18  20  22  22  24  26  26  27  29  26  28  32  32  34  79  56  65  79  97 122 136 164 172 172 174 173 173 172 172 172 170 171 171 172
 174 174 174 176 174 163  76  47  35  33  36  33  32  36  38  39  38  36  38  38  33  31  26  25  25  24  24  24  25  26  27  24  24  23  23  23  21  20  19  20  19  19  23  24  24  24  24  23  23  23  25  24  21  23  23  22  24  22  19  19  21  20  23  24  25  24  28  26  25  28  31  30  46  45  57  66  79 108 107 157 169 172 173 173 172 174 174 172 172 173 173 173
 174 175 176 175 175 129  75  44  36  36  30  31  33  35  42  45  43  35  29  27  25  24  24  23  24  23  23  22  24  23  22  23  21  23  22  20  23  23  23  21  20  20  22  24  25  27  27  26  25  27  27  27  24  25  24  23  23  24  19  18  20  22  21  24  24  23  24  25  24  25  28  29  34  39  47  57  73  86 101 153 164 169 171 172 173 174 173 172 173 172 172 172
 176 175 175 175 174 118  68  40  39  30  29  34  42  46  41  35  29  28  25  24  23  24  25  27  25  25  21  20  21  24  23  24  22  22  24  22  22  23  24  23  24  25  28  31  33  34  35  35  35  35  36  33  29  28  26  26  24  25  23  21  20  22  19  23  23  23  24  23  22  24  25  26  31  31  36  56  68  75  87 146 156 162 167 170 173 174 173 172 172 172 172 172
 174 175 176 175 172 124  63  39  37  32  37  38  32  30  30  29  28  28  24  24  22  21  20  19  23  23  25  24  25  25  27  27  26  25  25  27  26  25  25  26  28  32  36  41  46  49  50  48  47  46  47  46  39  35  34  32  32  29  29  26  24  24  22  23  21  23  23  21  20  22  24  26  27  28  34  47  44  53  90 135 142 154 157 169 172 172 173 174 174 174 173 173
 175 176 176 176 174 137  76  48  40  27  26  27  34  43  49  41  36  32  26  24  23  23  24  25  25  27  30  32  36  38  39  37  32  33  36  35  36  34  35  37  38  45  51  57  62  64  66  64  63  61  59  57  52  48  44  42  40  39  35  32  29  27  25  23  23  23  20  19  19  20  23  25  24  25  36  39  40  53  96 130 129 141 153 162 170 174 172 174 173 173 174 173
 176 176 177 176 172 138  54  40  29  29  35  43  44  44  42  34  29  26  25  25  24  25  28  31  34  39  45  50  52  54  56  56  54  54  53  52  51  50  51  53  58  61  70  75  80  80  80  79  78  77  78  72  66  59  56  53  50  48  46  42  36  35  30  27  26  23  20  20  22  25  24  24  23  25  31  34  38  52  98 113 117 131 151 168 171 173 173 173 173 173 173 174
 176 178 178 175 166  94  48  38  37  40  45  47  44  41  36  28  26  24  25  27  30  34  38  43  51  60  67  70  71  71  73  73  74  70  70  70  68  69  70  72  76  83  86  90  92  91  92  92  92  89  85  84  81  75  69  66  63  62  58  53  47  44  40  34  32  27  24  23  24  24  24  23  24  27  28  34  38  57  83  93 115 131 157 172 172 173 174 173 173 174 172 172
 178 177 177 173 170  54  45  36  38  42  46  43  42  36  32  30  28  28  31  33  39  46  55  66  74  80  82  85  86  85  86  85  86  87  87  86  84  83  84  88  92  94  96  99 101 101 102  99  99  93  90  93  89  87  82  76  74  70  69  64  57  54  48  45  41  36  31  27  26  24  25  24  25  27  28  32  39  62  72  84 106 135 161 169 173 174 174 173 173 174 173 173
 177 176 176 174 124  52  40  36  37  43  40  39  38  34  32  31  31  34  41  46  56  67  80  89  93  94  95  94  95  94  94  93  95  95  95  95  97  95  94  97  99 100 100  99  99 103 104 105 106 104 100  96  94  93  89  86  85  80  77  73  68  63  57  55  53  52  40  31  27  25  25  24  25  26  29  31  37  48  56  80 104 156 167 172 172 174 174 173 174 175 173 173
 176 177 177 170 110  44  45  37  39  41  37  38  35  32  32  33  38  46  55  62  74  86  95 104 106 103 105 105 104 104 102 103 103 105 104 104 104 103 105 107 106 106 107 107 110 110 112 114 112 110 106 102  97  97  92  92  91  88  86  81  77  72  66  65  64  60  51  41  33  29  28  25  26  28  28  29  34  40  55  84 148 168 172 173 173 175 175 174 174 174 175 174
 178 178 178 168  75  43  36  31  32  33  36  36  35  35  36  40  49  64  72  83  94 103 110 116 117 116 118 119 115 113 112 114 113 112 113 112 111 109 111 113 112 113 114 116 115 114 116 117 114 111 110 105 104 100  96  97  98  96  91  88  82  80  77  73  70  70  62  52  41  34  29  27  26  26  26  29  31  36  49 102 157 171 173 172 173 175 173 173 174 173 173 174
 178 179 178 173  89  47  33  30  31  35  38  39  39  38  44  56  66  78  89 100 107 115 120 123 123 124 123 122 122 120 120 118 119 119 120 117 108 107 111 112 115 115 117 119 118 117 117 118 115 112 110 106 104  98 100  99 101  98  95  90  87  85  83  82  81  77  72  62  48  39  30  26  26  25  26  27  30  34  58 115 157 167 170 174 173 173 174 174 175 174 173 173
 179 179 179 170  94  46  33  29  33  38  40  40  39  46  56  71  84  94 105 112 118 124 128 128 128 127 124 126 125 123 124 124 123 122 122 120 115 110 113 116 120 121 120 121 121 122 120 115 113 113 112 110 106 103 103 104 103 101  98  94  92  89  88  87  89  86  80  70  57  42  32  25  26  26  25  25  28  29  44 114 153 167 170 172 174 174 173 174 173 174 174 172
 183 181 183 167  73  44  32  32  40  42  40  40  46  60  73  85  96 106 114 117 124 127 128 129 130 129 126 127 123 124 126 124 123 124 122 122 121 118 118 120 122 121 121 121 120 120 115 113 114 114 111 109 110 106 107 104 102 103 102  99  97  95  92  92  92  90  87  79  65  50  36  29  26  25  25  25  26  28  36  70 144 166 170 169 170 172 172 174 174 174 175 175
 186 187 186 168  57  36  33  36  41  43  39  46  59  74  89 102 108 114 120 123 126 130 128 128 130 131 128 126 124 123 124 124 123 123 123 123 123 120 121 121 122 122 121 117 120 117 115 113 113 114 114 114 111 106 107 107 105 104 105 102  97  97  98  98  94  92  89  84  73  56  39  30  29  27  24  24  24  28  33  61 131 156 165 168 171 172 174 174 174 174 175 174
 196 197 190 160  61  42  36  39  40  44  41  53  73  88 104 113 114 119 126 127 129 130 129 127 129 130 127 124 126 126 125 125 124 124 126 125 125 122 123 124 123 123 121 119 120 120 117 116 115 118 116 118 114 109 108 110 110 109 106 103  98  99 101 102  98  94  90  86  78  65  48  34  30  29  26  25  24  26  32  44 120 165 166 170 171 173 174 174 174 173 173 174
 204 205 198 168  89  46  42  38  39  42  43  65  85  96 113 117 120 126 129 130 131 130 131 131 130 128 128 126 127 128 128 124 124 127 127 126 123 121 121 123 122 124 123 123 122 118 113 114 118 121 123 122 118 111 111 112 113 111 110 105 102 101 103 105 100  93  89  86  81  74  57  41  32  27  27  28  25  24  26  37  79 153 167 170 169 173 174 174 173 173 174 173
 203 204 199 182  98  49  42  38  38  41  52  74  90 106 112 118 125 126 128 129 131 132 132 133 130 132 130 128 130 129 128 128 130 129 130 130 127 123 122 126 126 126 127 125 126 119 113 119 122 124 124 124 121 117 116 118 117 116 112 110 106 102 104 102  98  93  91  85  80  74  65  45  34  28  28  27  27  24  24  31  59 138 167 171 171 172 174 174 174 173 174 174
 197 197 192 177  90  46  39  36  37  43  59  81  97 108 114 121 125 127 129 130 132 133 135 134 135 134 133 133 132 131 132 134 131 132 130 130 127 125 124 125 128 128 129 128 128 127 126 128 129 130 129 128 124 124 124 123 121 119 116 113 104 105 104 100  97  97  93  86  79  76  67  49  36  29  27  26  28  25  25  29  55 109 162 172 174 173 174 174 175 174 173 173
 189 190 189 171  76  50  35  36  39  45  66  86 101 110 112 122 128 127 130 133 137 138 140 140 137 129 130 132 136 135 137 139 136 133 130 129 129 129 129 129 132 132 130 134 135 135 135 133 135 134 132 133 130 127 126 124 124 120 119 116 111 108 106 103 100  96  93  88  82  78  69  56  39  30  28  26  26  25  25  29  61 139 158 173 173 174 174 176 175 175 173 172
 184 184 185 173  77  45  38  38  39  50  67  88 106 112 113 121 128 133 133 133 136 140 141 142 133 110 119 132 139 141 138 133 134 133 132 133 134 134 132 135 139 138 139 139 140 138 136 136 136 137 134 134 132 129 126 127 126 123 120 118 112 108 105 102  96  90  91  90  85  80  73  59  43  31  26  26  26  25  25  31  56 134 165 173 175 174 174 174 174 174 173 171
 182 183 183 175  66  40  39  38  40  52  73  93 108 117 122 126 132 132 133 133 135 141 143 144 140 130 135 141 143 142 138 133 136 137 137 136 137 135 136 136 137 140 142 138 137 139 136 135 136 138 136 134 130 128 128 126 124 124 120 114 111 110 108 104  97  85  89  89  84  81  72  63  46  31  26  25  25  26  26  32  49 125 166 170 172 173 174 175 175 175 173 174
 182 182 179 157  61  42  40  39  42  57  84 101 113 119 125 129 132 134 137 140 141 146 146 147 149 148 149 147 147 143 141 142 143 140 141 137 137 139 136 137 140 141 141 137 134 134 135 135 136 137 134 128 127 127 125 121 118 117 118 113 110 110 109 106 100  92  89  87  84  82  79  70  54  35  28  25  24  25  24  34  54 131 166 172 174 174 174 174 174 174 174 174
 181 181 177 154  69  44  39  38  44  60  89 104 113 120 126 128 131 135 138 143 144 146 147 150 151 152 151 150 148 144 141 144 141 139 136 134 137 137 138 138 137 136 137 134 134 133 135 137 135 131 127 123 122 121 121 116 109 108 112 111 108 107 104 102 101  94  89  82  84  83  78  70  58  39  26  26  26  26  24  30  47 133 166 170 173 174 174 173 174 174 175 175
 180 179 178 164  86  46  40  39  48  66  94 106 116 121 126 129 131 134 138 144 144 146 148 152 150 150 148 149 145 146 144 141 138 137 136 137 136 136 136 136 138 134 134 130 130 132 130 129 130 126 118 114 112 111 109 103 100  99 100 100 102 102 102  98  95  93  90  86  85  84  80  73  62  43  29  25  25  28  26  29  47 128 167 174 174 174 176 174 175 174 174 173
 181 182 180 163  80  44  38  40  50  72  93 108 118 122 126 130 133 136 141 143 142 142 140 145 145 145 141 139 138 140 140 138 137 135 133 134 134 132 135 133 130 128 130 126 122 122 113 111 116 110 108 104  99  97  93  88  86  79  78  80  81  81  79  77  77  83  86  86  82  80  78  72  66  49  31  24  24  27  28  29  41 122 169 174 175 174 176 174 176 176 175 175
 179 182 179 166  83  41  38  39  48  74  98 110 117 122 128 134 137 138 135 134 132 130 128 128 131 133 132 133 132 128 129 126 126 130 129 129 131 128 128 128 128 127 126 119 114 109 101 101  99  95  92  86  76  71  72  68  63  62  57  54  54  55  55  57  61  63  68  82  83  80  76  73  67  52  32  25  24  26  27  30  43 133 169 174 174 176 175 175 176 177 176 176
 180 181 179 171  92  43  38  38  45  75 100 112 117 120 128 128 127 120 121 118 119 121 118 120 121 119 121 120 121 120 120 117 116 119 119 123 125 124 124 126 127 123 122 111 106  99  94  89  83  70  60  58  55  50  48  45  39  39  42  41  41  38  39  42  43  46  51  56  68  74  76  76  71  55  35  25  24  28  28  31  46 151 170 174 174 174 175 176 176 176 176 176
 179 178 179 174 126  45  38  37  44  80 101 111 116 118 118 101  96  99 105 102  98 104 102  95 103 104 102 102  99 102 103 102 104 108 108 114 116 113 116 117 114 115 115 108  93  85  78  66  50  43  37  33  32  33  29  29  31  32  33  34  32  31  32  34  34  36  39  44  47  58  68  71  73  62  38  25  23  28  30  33  48 161 172 175 175 176 176 176 176 175 176 176
 178 178 179 175 138  45  40  35  45  82 104 111 112  95  73  73  72  74  71  69  72  72  68  65  62  57  55  57  62  65  71  78  85  92  97 101 102 107 109 105 104 103 106  99  80  71  64  51  37  29  28  26  24  23  22  22  23  23  23  24  26  25  26  27  28  29  30  37  38  41  58  69  73  67  42  26  22  28  31  36  68 168 174 176 176 176 176 176 176 177 176 175
 177 177 177 176 143  50  40  34  45  86 106 100  75  66  61  63  62  55  52  53  51  47  42  38  38  40  38  35  39  43  51  55  67  79  87  92  95 102 104  99  97  96  97  91  73  61  49  38  28  25  22  20  18  18  19  18  17  18  18  19  21  23  23  24  24  24  26  28  34  41  48  64  71  70  49  27  23  26  32  39 101 167 175 176 177 177 177 177 176 177 176 176
 178 177 177 177 160  58  40  33  43  87  99  86  77  62  53  52  47  44  39  37  36  32  32  30  28  28  26  25  27  31  32  37  52  63  74  84  89  94  97  98  93  89  88  81  63  53  44  34  25  24  20  19  17  16  17  16  16  18  19  20  23  22  23  24  24  26  27  28  32  38  44  53  70  71  56  30  23  26  30  38 101 167 176 177 177 177 177 177 178 177 177 176
 179 180 178 177 168 119  43  38  45  86  96  76  61  53  57  58  53  49  50  52  49  49  48  44  40  35  27  23  22  24  26  28  36  47  56  71  82  88  90  96  89  89  82  76  57  48  40  29  25  24  22  19  18  18  20  22  30  31  34  35  36  37  36  33  32  32  31  31  34  36  37  50  64  72  62  34  22  26  31  41 112 167 177 177 178 176 176 177 177 177 178 177
 178 179 178 178 175 148  52  48  55  79  78  68  60  53  48  42  44  40  40  39  38  34  32  33  34  35  36  37  36  38  38  38  35  38  48  59  74  83  88  88  82  79  75  66  49  39  33  29  26  28  31  31  30  30  28  28  26  24  24  24  25  25  24  23  25  25  24  23  20  22  23  24  28  33  43  31  25  26  32  44 138 173 177 176 177 176 177 177 176 177 175 176
 179 179 165 109  89  68  57  55  54  42  44  53  54  58  71  69  50  57  56  51  45  40  37  36  35  33  32  32  29  28  26  27  32  34  40  47  62  74  81  77  75  68  66  51  43  38  34  33  32  29  23  22  21  22  24  24  27  29  31  33  34  35  35  35  36  40  43  44  45  43  39  31  22  21  19  19  21  23  34  57 157 175 177 177 178 176 177 178 178 178 176 176
 179 178 109  49  41  38  34  32  82  71  87  95  64  59  92  72  52  62  59  60  52  46  45  44  42  41  40  39  37  37  36  34  29  24  24  25  46  56  41  36  32  31  26  24  25  24  22  22  22  25  28  30  30  29  29  28  30  31  31  34  34  33  36  37  38  41  43  44  44  45  47  54  63  34  20  17  18  19  25  93 163 176 177 177 178 178 177 177 176 176 177 178
 179 177  96  42  37  33  31 127 171  95  79 107  68  63  83  74  60  67  58  59  54  47  45  42  41  41  42  41  40  40  42  44  43  40  25  24  37  45  30  25  23  20  19  20  23  22  24  32  34  35  34  32  30  29  30  32  35  38  39  41  41  39  36  32  35  36  40  42  45  50  50  56  71  71  41  19  18  21  22 120 170 177 177 178 178 177 177 177 177 176 177 177
 180 177  92  40  36  32  53 165 170 117  75 109  71  61  69  68  58  56  52  47  48  45  48  45  41  39  37  34  34  36  41  45  46  46  42  23  30  35  27  24  21  19  19  22  23  26  36  35  35  34  33  31  30  31  33  35  38  38  38  38  40  44  46  43  35  29  35  41  46  50  50  53  69  76  51  29  19  22  21 128 171 176 177 178 177 177 177 176 177 178 177 178
 182 178  90  38  35  33  55 107 172 138  73  99  71  62  60  56  50  45  44  54  60  62  58  52  46  40  37  34  32  32  36  42  46  47  50  26  27  28  25  23  20  19  19  21  22  37  37  34  35  32  30  30  30  30  30  28  23  21  20  21  24  30  34  42  44  36  31  37  43  50  52  53  66  74  52  39  20  22  21 130 172 175 176 178 178 176 177 176 178 177 177 177
 181 178  96  39  36  36  51  53  89 151  84  92  70  61  57  50  41  45  59  61  57  50  43  32  30  28  29  30  31  31  33  38  45  47  50  31  25  25  24  25  23  20  20  21  23  38  36  32  32  31  30  30  28  25  25  20  21  20  18  18  20  28  25  26  33  40  36  36  43  49  51  53  60  65  46  51  22  22  27 140 173 176 176 177 178 177 177 177 178 176 177 177
 180 180 175  76  36  40  43  48  54  71  92  82  68  61  54  45  42  52  54  41  29  30  26  23  26  21  20  22  26  30  32  36  43  50  52  32  24  24  31  37  36  30  21  22  24  37  35  35  34  31  31  27  25  30  34  22  21  18  16  19  20  29  33  28  25  29  35  37  42  47  51  54  57  58  39  52  23  23  30 161 174 176 176 176 178 177 177 177 176 177 177 177
 183 182 181 165  34  43  48  44  42  40  55  75  71  59  50  45  45  48  33  33  47  47  34  35  23  20  21  23  32  33  33  39  44  49  53  30  25  28  52  82  77  50  30  24  25  38  38  37  36  35  29  27  32  39  40  21  20  21  18  18  24  29  41  35  29  24  27  34  42  48  51  55  58  62  41  59  26  24  62 148 153 172 176 177 177 177 178 178 178 176 178 177
 183 182 180 178  65  41 106  51  39  34  49  75  71  60  51  45  42  34  33  46  60  47  28  24  27  22  22  25  38  43  37  35  45  54  56  29  25  70 125 134 126 105  44  26  24  41  40  42  42  34  27  28  34  41  44  27  23  20  18  22  24  35  43  35  31  30  30  34  40  48  54  60  63  65  52  74  29  32  74 103 108 129 170 177 177 177 177 178 177 177 176 177
 181 181 181 177 100  39 150 170  97  31  54  83  76  63  53  45  37  35  42  55  69  58  28  25  24  21  23  25  41  42  39  35  43  62  57  29  53 143 164 162 156 139  93  28  24  40  42  44  43  31  30  30  30  36  42  38  25  24  24  24  29  38  38  36  34  35  37  40  44  49  58  66  69  71  68  82  29  38  74  89  91  80 140 174 177 177 177 176 176 176 176 176
 182 182 182 180 128  40 134 174 175 147  95  94  87  71  55  47  44  44  46  54  66  66  40  30  28  27  29  34  46  44  41  43  49  62  48  29 134 174 175 170 165 152 115  46  26  35  44  45  43  41  41  38  37  37  39  41  38  34  32  33  38  41  40  38  37  40  42  47  51  56  63  71  77  81  85  77  31  38  64  77  65  64 129 174 176 176 176 177 177 176 176 177
 182 181 181 182 168  34 108 175 175 167 106 107  96  81  66  59  57  56  52  55  63  71  65  51  45  45  45  51  51  52  53  59  66  67  39  44 150 175 179 170 163 150 115  78  26  31  48  49  47  46  46  44  40  40  41  43  41  43  46  45  41  44  46  44  42  42  46  50  58  65  70  78  82  84  97  55  42  43  58  68  56  62 123 170 175 176 176 177 177 177 176 176
 181 182 182 181 180  60  75 176 175 153 113 115 106  98  84  76  70  66  62  64  61  59  57  65  61  58  54  53  53  53  57  65  72  64  34  70 153 174 176 168 162 140 112  90  37  27  48  55  55  49  45  43  40  41  44  45  47  46  51  51  49  49  49  47  46  47  52  58  65  71  75  82  85  85 109  36  64  51  56  70  59  62 102 170 176 176 176 176 176 176 175 175
 178 181 183 184 179 102  51 162 175 151 118 117 115 110  99  88  80  74  71  74  70  65  66  65  59  58  56  55  53  56  64  73  77  50  28 108 157 176 177 170 163 138 108  90  65  24  38  55  57  54  46  42  39  39  42  45  46  50  52  52  53  52  52  50  52  55  60  66  71  76  81  86  86  86  98  33  80  59  54  72  67  63  78 166 174 175 173 176 175 175 174 175
 180 183 184 184 180 153  40 123 173 152 121 117 118 116 110 100  88  80  74  75  73  70  70  69  66  62  57  56  61  71  76  80  78  39  36 128 158 176 175 169 160 133 105  89  83  32  28  57  59  58  58  51  51  48  49  48  48  49  50  53  52  52  54  56  59  65  68  74  77  80  84  87  87  90  65  46  86  65  56  75  80  62  73 146 172 175 175 176 176 175 173 174
 182 181 183 184 182 180  68  70 170 150 126 117 120 121 118 107  97  91  80  74  71  69  64  64  64  63  67  74  80  84  89  93  57  34  65 134 159 177 176 164 149 131 107  91  85  58  23  33  69  62  59  58  60  60  60  57  55  55  59  61  62  62  63  67  69  74  78  82  85  84  87  89  86  86  29  66  85  71  57  76  88  66  68 131 171 173 173 174 174 174 174 174
 181 181 182 182 183 179 137  42 126 152 128 119 122 123 119 111 104  96  87  82  77  77  77  78  78  79  80  85  88  93  98  83  45  33  99 135 157 174 172 164 144 124 107  93  85  82  30  25  52  69  65  61  61  62  64  63  62  63  65  69  72  72  76  80  83  84  88  89  91  91  90  88  85  44  36  78  84  75  62  74  83  77  67 124 169 173 174 173 173 174 173 173
 179 180 181 181 182 181 175  62  54 131 126 118 120 118 118 110 104  99  91  89  89  86  86  89  91  90  88  93  98 106  97  50  42  60 119 139 159 174 172 160 139 121 108  95  86  85  61  22  29  62  71  69  70  69  67  68  68  67  69  73  73  74  80  84  86  89  93  97  98  95  90  84  58  28  70  82  85  73  58  65  72  83  79 134 169 172 173 173 173 172 173 173
 179 179 180 179 182 180 176 106  52  52  89 117 116 118 118 112 106 100  93  97  98  93  93  95  98  98 104 106 105  87  53  37  76  81 126 141 160 171 169 160 136 117 106  93  87  84  80  41  23  32  53  71  75  77  79  78  76  75  75  76  78  77  80  83  84  89  94  95  96  86  68  48  28  58  79  81  85  74  55  56  62  78  89 146 169 171 173 173 171 172 172 172
 179 180 180 178 180 180 177 127 121  72  42  56  76  94 103 104 107 105 103 106 103  99 102 102 100  94  87  76  55  40  40  91  80  97 132 149 164 170 166 152 136 122 108  98  89  85  81  69  35  24  29  38  52  63  78  86  89  89  90  88  92  91  90  87  82  74  70  62  47  41  28  30  67  80  81  82  84  74  62  54  58  72  90 160 171 170 171 170 170 172 170 171
 180 179 180 179 179 178 174 129 124 124 117  80  53  35  40  49  55  58  61  60  68  66  62  58  55  47  38  29  46  77 102  96  75 119 138 155 169 168 160 152 138 124 109 103  92  86  85  79  52  44  36  20  29  42  44  47  53  57  54  55  53  45  42  38  39  36  31  24  26  45  63  81  82  83  82  82  83  77  68  52  55  71  96 166 169 171 171 170 171 172 170 169
 179 179 180 181 179 180 176 144 125 130 127 121 115 119 112  95  78  67  56  53  48  46  49  56  66  78  91 113 115 108  97  81  90 126 140 158 169 164 158 150 142 123 110  98  89  85  82  80  67  51  54  72  56  42  29  23  18  20  18  20  20  25  30  36  44  57  68  86  92  87  82  80  82  81  81  82  82  75  72  54  59  80 114 166 171 171 171 171 169 171 169 168
 179 178 180 179 180 179 176 148 121 130 125 120 121 125 127 128 125 120 119 118 119 116 114 112 112 112 111 109 105  95  87  82 103 127 144 161 166 163 159 149 142 123 105  96  90  85  80  79  73  60  55  65  80  89  93  96  95  94 100  98 103 105 104 103 102 102  99  98  93  90  83  81  78  77  79  79  82  77  72  56  66  86 128 166 170 170 170 170 170 170 170 169
 179 178 178 180 179 178 179 153 121 130 126 123 125 128 130 131 128 125 122 119 118 116 114 112 111 111 109 101  96  89  86  91 108 131 147 161 161 160 156 147 139 123 104  92  87  87  79  73  71  66  62  60  70  82  90  91  96  99 103 105 106 106 104 104 103 100  97  97  92  89  84  82  79  76  76  80  78  78  66  57  74  94 128 166 169 170 169 169 169 169 169 169
 179 180 180 182 180 180 179 167 133 131 124 125 126 127 130 128 130 128 125 123 119 115 114 112 110 108 107 102  98  92  88  96 112 136 148 155 154 153 149 144 131 121 108  95  88  90  84  78  72  69  66  62  63  69  78  86  91  97  99 100 101 104 103 103 102 100  98  95  91  88  84  77  76  73  77  81  78  78  82  86  96  93 124 165 169 170 170 170 169 168 170 169
 178 179 180 179 179 179 179 177 144 130 121 120 127 126 125 127 128 128 125 123 123 120 119 115 113 111 109 107 105  98  94 101 120 140 143 154 150 146 144 137 126 116 108  99  92  91  90  88  81  72  68  68  65  65  72  76  82  87  90  91  94  96  97  96  95  94  91  88  87  84  83  78  74  75  74  78  76  78  91 103  94  82 126 166 168 168 168 170 168 169 168 168
 178 179 179 179 179 179 180 177 152 129 120 122 130 128 125 128 126 123 123 124 126 126 127 123 120 119 115 114 110 102  99 108 131 141 142 151 146 139 135 131 120 112 105 101  95  96  97  95  90  80  68  68  68  68  70  73  77  82  85  88  88  91  91  90  90  90  88  84  82  80  79  76  73  73  74  79  74  81  94  96  92  93 130 165 168 168 169 169 169 168 168 169
 178 178 179 179 179 179 179 177 152 128 122 121 126 125 125 128 125 125 125 126 129 129 127 126 123 120 116 113 111 108 105 118 133 139 144 148 142 136 130 125 115 106 101 101  95  99  97  97  96  86  68  70  71  70  73  76  74  79  82  85  87  90  90  90  90  91  86  84  78  77  77  75  72  73  72  76  71  74  84  88 103 109 137 165 168 168 168 170 168 168 168 168
 179 178 178 178 179 179 178 177 153 132 119 121 122 120 124 125 123 123 122 124 128 127 125 123 123 120 119 114 115 113 113 128 130 131 137 137 130 126 124 118 108  99  93  89  90  94  94  94 100  97  76  68  72  78  82  81  79  80  83  87  84  84  88  90  88  89  85  82  80  78  74  72  71  72  73  75  73  76  84  87  98 111 134 164 169 169 169 169 168 168 167 168
 178 178 178 177 177 178 178 176 157 140 119 120 122 120 120 120 120 120 119 122 126 129 130 128 126 124 123 121 118 114 122 127 116 110 117 118 116 118 117 111 101  89  78  70  69  77  80  87  95  96  84  68  71  80  84  86  86  85  87  87  85  83  85  85  85  84  83  78  78  76  74  72  71  71  74  78  78  84  90  94 101 108 123 163 167 168 168 168 167 167 168 168
 176 177 177 177 178 179 177 175 164 144 118 118 119 120 120 117 119 121 122 126 129 130 134 132 131 127 125 121 119 115 124 119 101  90  96 103 103 104 106 103  93  74  63  54  54  62  68  74  82  85  83  64  71  79  83  87  85  85  86  87  90  86  83  84  82  81  78  77  76  76  73  72  72  73  75  77  78  88  93  97 101 101 109 162 168 168 166 168 168 167 167 167
 176 177 178 176 177 177 176 173 160 146 121 115 117 119 118 116 119 120 123 128 133 134 136 133 130 124 122 119 119 118 115 102  88  78  86  92  92  92  93  90  78  63  53  47  46  49  55  61  67  69  71  63  71  77  83  86  88  87  90  90  91  90  88  84  80  79  75  75  73  73  72  71  72  72  72  70  75  85  89  92  96  94 121 164 166 168 168 168 167 168 167 166
 176 177 177 176 177 177 176 171 153 152 126 114 115 116 116 117 118 119 125 127 128 132 130 127 127 122 120 121 121 118 104  85  66  47  52  88  85  80  79  75  66  59  49  31  21  23  31  41  53  58  62  64  73  80  83  85  88  87  88  88  87  88  88  85  82  75  72  70  71  71  70  71  71  71  76  70  69  76  83  87  85  94 155 165 167 168 168 168 168 168 167 165
 175 176 175 176 176 175 175 171 138 142 128 115 116 115 113 115 117 121 119 123 126 128 127 126 124 118 119 122 120 117 104  77  52  46  45  66  75  70  66  61  59  53  34  32  26  28  32  34  41  50  57  68  76  82  85  84  87  88  86  85  84  87  86  84  81  77  73  71  70  69  69  71  70  73  77  69  63  66  70  74  80 146 164 165 167 167 167 168 167 167 167 167
 174 174 174 174 175 174 174 173 146 125 121 114 115 113 114 113 115 118 119 121 124 126 125 125 121 117 119 123 120 118 108  93  67  58  65  69  69  67  57  52  52  47  39  40  37  37  37  35  39  46  60  76  82  82  84  83  85  86  87  84  80  83  84  83  82  78  73  70  70  69  71  70  71  74  78  90  88  65  69  94 148 163 166 167 168 168 167 166 168 167 168 166
 174 174 174 174 174 174 175 174 169 127 108 112 115 112 113 113 115 117 119 121 121 124 122 122 119 115 118 121 120 117 111  97  84  70  70  73  71  69  56  48  48  45  43  43  40  39  38  39  40  45  60  74  86  86  84  84  85  84  85  83  71  76  81  83  82  76  74  71  68  69  69  69  70  73  78 112 161 160 158 164 165 167 167 165 166 167 168 167 167 166 165 165
 173 174 174 174 174 173 175 174 173 164 116 112 114 111 111 105 112 114 116 118 121 122 121 119 116 115 117 120 120 115 107  96  84  75  69  72  71  66  57  48  46  44  43  41  39  37  39  40  41  47  58  67  81  87  86  86  83  85  85  83  77  78  80  82  79  77  72  70  69  70  68  70  70  73  82 130 164 168 167 168 168 168 165 167 167 167 167 166 166 167 167 166
 174 174 174 173 174 174 173 174 174 173 168 139 114 111 111 108 109 112 114 116 119 121 121 120 113 113 115 118 115 107 101  88  73  63  57  59  60  60  58  51  47  44  37  35  31  31  31  31  34  44  53  63  76  83  87  86  84  85  85  84  82  80  80  78  74  74  71  69  68  69  68  70  71  71  80 137 165 167 166 167 167 167 166 166 168 167 168 167 166 166 168 165
 172 174 173 173 173 173 174 174 174 175 172 147 115 112 109 106 109 110 113 118 119 120 119 113 111 110 111 113 106  99  91  76  57  46  41  48  47  47  49  51  49  42  32  29  27  25  26  26  28  36  42  59  69  74  81  78  79  78  82  81  81  80  77  77  72  72  70  69  65  66  69  71  71  73  83 144 166 168 169 168 167 168 167 166 167 166 166 165 167 168 168 165
 173 173 173 172 173 173 173 174 173 173 172 160 118 112 105 103 106 110 113 117 119 119 116 108 106  98  99  99  93  84  71  63  44  37  35  36  35  33  36  42  44  36  26  27  26  23  24  24  24  28  38  50  61  64  67  66  63  62  68  74  75  75  73  72  71  70  69  68  68  67  68  71  71  74  82 149 166 169 169 169 168 168 168 166 166 165 165 166 167 167 166 167
 173 173 174 172 173 172 174 173 173 172 171 165 127 113 105 102 105 109 113 113 115 113 107 100  94  85  83  85  80  68  58  50  36  31  31  29  25  25  27  30  34  31  22  23  24  21  20  22  22  26  34  40  50  47  52  53  46  45  50  59  66  68  68  69  67  69  66  66  64  67  68  70  72  75  87 157 168 169 168 168 168 168 167 166 167 166 166 166 167 167 166 166
 172 172 172 172 173 172 172 173 172 172 171 168 138 113 105 101 102 107 110 111 110 104  92  80  75  66  69  74  70  55  51  43  32  29  29  25  25  25  24  26  27  24  20  20  24  20  19  19  22  26  30  30  37  42  37  37  36  31  38  41  53  58  59  66  66  68  65  62  65  66  68  70  72  76  92 161 168 169 167 168 168 167 167 166 167 167 168 166 167 165 164 164
 171 171 170 171 173 172 171 171 171 170 170 169 152 113 103 101  99 106 106 105 108  94  73  57  54  51  51  56  51  45  41  37  31  29  28  28  26  23  21  22  25  21  20  21  24  23  22  19  23  27  29  26  32  35  33  29  30  26  27  30  39  46  51  60  63  68  64  63  66  68  66  70  73  78 105 162 168 167 167 167 167 167 166 166 165 165 164 166 168 165 166 164
 171 170 170 170 169 170 170 170 169 170 167 169 161 116 106 102  99 104 104 102 100  78  52  41  40  37  38  42  40  40  38  36  32  27  27  30  25  24  19  21  24  23  22  23  24  26  27  24  25  25  26  26  28  29  29  25  24  24  23  27  32  34  44  53  62  66  65  65  67  69  68  71  73  78 122 163 167 167 168 166 166 165 166 164 166 166 167 165 165 166 164 164
 171 169 169 170 169 170 170 169 169 168 167 168 165 126 107 100 100 102 101  98  89  61  40  32  33  29  31  36  38  37  36  37  33  28  32  31  25  25  22  24  26  31  26  24  30  29  32  28  26  27  28  27  28  28  27  24  21  23  24  26  26  30  36  48  58  64  65  64  66  68  68  70  73  77 131 162 165 167 165 167 166 165 163 163 164 163 166 164 163 163 163 163
 170 168 168 170 169 168 170 169 169 168 168 166 166 136 108 101 100  96  97  94  81  49  37  28  30  25  27  28  32  34  37  39  38  32  32  35  28  28  28  33  35  44  37  34  36  33  36  34  30  34  36  32  33  30  28  26  22  22  22  24  27  29  32  40  56  63  63  64  67  68  68  70  73  77 150 162 164 165 164 165 164 166 164 163 164 162 162 162 162 162 162 161
 168 169 169 168 167 168 167 168 168 167 166 166 166 156 107 102  99  96  93  92  80  41  35  30  25  24  26  27  31  35  39  45  44  38  36  39  34  37  40  46  46  55  45  38  36  35  35  34  31  34  34  31  31  27  23  22  23  24  26  28  31  33  33  43  55  64  64  65  67  69  67  69  71  94 156 162 163 164 163 163 164 164 163 163 162 162 162 162 162 162 162 163
 167 167 166 166 167 168 166 166 168 168 167 166 165 162 118 101  97  95  96  93  78  57  40  33  27  27  29  29  31  33  39  41  43  40  39  38  36  38  43  49  49  43  38  35  36  36  35  34  32  30  28  26  23  22  22  24  30  33  34  36  38  39  45  53  58  63  66  67  69  71  69  68  68 120 158 162 163 164 163 163 164 163 163 163 161 162 162 161 161 161 160 162
 167 165 166 166 166 166 166 166 166 166 165 165 166 163 136 100  94  93  92  91  86  74  54  45  37  38  41  45  43  40  41  42  40  36  31  32  33  33  35  39  36  34  32  34  33  30  25  22  25  26  28  29  28  30  31  36  43  46  47  43  43  46  54  58  58  62  66  68  68  69  70  69  72 143 160 160 163 162 164 163 163 163 162 161 162 161 161 160 162 161 161 159
 165 166 166 165 166 166 166 165 165 165 165 164 164 162 153 104  95  94  93  90  88  83  72  60  51  52  62  69  68  59  53  53  50  42  30  23  19  19  23  26  27  27  22  23  22  22  23  28  31  36  37  37  37  39  44  48  53  56  55  50  49  49  55  58  61  63  64  68  67  67  66  67  97 153 158 159 161 160 162 162 161 163 163 162 161 161 160 161 160 160 159 159
 164 163 166 165 166 165 165 164 165 164 163 163 161 162 158 123  98  94  90  88  87  83  76  69  62  67  77  82  82  77  67  62  60  61  52  42  35  31  31  28  28  29  29  30  34  36  40  43  43  44  45  44  44  47  51  56  57  61  56  54  52  52  55  61  62  62  65  66  67  66  65  67 139 155 156 159 158 159 161 161 161 161 162 162 160 161 160 158 159 159 157 158
 165 163 164 164 165 163 164 163 161 162 163 162 163 161 158 144  98  92  89  90  88  86  81  76  67  75  82  86  87  86  74  68  67  69  71  64  54  49  48  48  47  44  52  56  63  63  59  53  48  48  46  48  50  53  54  58  60  59  58  54  51  51  55  59  62  61  63  64  65  65  64  99 153 155 157 158 159 159 160 159 161 161 161 160 159 159 158 157 157 156 156 155
 164 162 163 163 162 162 162 163 162 163 160 159 161 160 160 156 116  93  91  90  88  85  84  78  73  77  81  88  90  91  84  74  68  68  74  75  73  72  65  66  63  61  69  71  69  65  58  51  50  48  50  54  56  57  56  59  57  55  55  54  49  50  54  59  60  61  63  63  63  64  78 143 156 155 156 156 158 158 157 159 159 160 159 159 158 158 156 157 158 156 156 155
 162 160 162 161 160 160 161 160 160 160 159 159 158 159 157 157 141  92  88  89  87  85  86  84  75  76  80  87  87  91  89  81  72  66  65  68  70  72  68  68  64  63  66  66  61  57  52  47  48  48  51  55  55  54  56  56  54  52  53  51  51  52  54  60  62  60  64  63  62  66 124 153 155 156 156 156 157 157 156 158 158 158 157 157 158 158 156 156 156 156 154 155
 160 159 159 159 158 158 160 159 159 158 157 157 156 156 157 155 153 115  90  88  84  81  84  85  80  77  80  86  86  88  86  83  78  70  60  56  59  60  61  61  59  57  58  55  51  48  46  45  49  52  51  52  53  55  54  54  50  48  49  49  49  52  54  56  60  63  62  63  63 113 151 154 155 155 156 155 155 156 156 156 157 156 156 156 156 156 156 154 154 155 154 154
 157 158 158 158 156 158 158 158 157 157 157 156 157 156 156 155 155 146  96  86  79  79  82  83  85  75  76  80  87  86  86  82  79  74  65  57  52  51  49  49  50  49  49  46  45  45  45  46  48  50  50  49  51  53  53  50  47  48  47  49  50  52  54  54  59  62  58  63  84 146 154 154 155 155 154 155 154 154 156 155 157 156 157 156 156 155 155 155 154 154 154 154
 157 157 158 156 158 158 158 157 156 156 156 156 154 155 155 154 155 153 138  91  81  79  80  80  87  87  86  85  86  83  84  82  75  71  65  58  54  50  46  44  44  45  43  40  38  37  37  38  40  42  44  49  49  52  50  52  50  50  47  48  52  55  51  52  59  58  56  61 125 151 153 154 154 154 154 154 154 155 155 155 155 155 155 155 155 155 154 154 153 153 153 151
 155 156 157 158 158 159 158 158 157 157 157 156 156 155 156 156 156 154 152 134  86  80  80  79  83  84  86  83  85  82  77  79  79  71  62  56  52  47  39  34  34  34  32  31  30  30  29  30  34  41  44  48  49  52  54  53  51  54  51  48  52  55  52  55  59  54  58  69 133 151 150 154 153 153 152 152 154 154 154 154 154 153 154 154 154 154 153 153 153 151 153 152
 154 156 157 158 157 158 158 157 157 157 157 157 156 155 154 155 156 154 152 149 129  87  78  82  84  83  80  76  86  87  80  78  78  74  65  58  53  44  34  26  25  24  23  22  24  25  24  28  33  44  50  53  53  57  56  55  55  57  54  53  58  54  53  55  54  54  61  70 135 148 149 149 150 152 152 152 153 154 153 154 153 152 153 153 154 154 152 152 151 152 150 151
 153 154 156 156 156 157 157 154 156 156 155 156 154 154 153 153 152 151 149 146 146 121  79  80  83  82  89  90  86  86  87  82  80  75  72  67  61  49  36  26  25  21  18  19  20  24  26  28  34  45  53  56  60  61  62  61  64  59  55  53  58  53  52  52  52  53  62  69 126 145 148 148 148 148 149 149 149 150 153 150 152 151 152 152 154 153 152 152 151 150 148 150
 150 150 155 155 155 156 154 155 154 155 154 154 153 154 151 149 146 146 145 143 146 141  99  79  80  84  90  91  87  89  92  88  86  83  78  76  69  59  44  30  26  23  18  19  22  23  29  36  42  48  57  62  66  68  69  68  69  63  59  57  56  50  46  50  51  56  62  66  65  76  90 102 118 134 145 146 147 149 149 148 151 150 149 151 151 152 152 150 149 149 149 149
 150 151 151 154 153 155 156 156 153 153 152 153 150 146 131 114 105  97  90  79  72  72  94  83  78  84  90  94  93  94 100  96  88  85  84  82  77  62  51  38  33  28  23  19  26  27  32  36  44  48  64  70  73  74  71  65  70  64  61  59  52  48  46  46  51  57  63  65  46  45  48  50  55  53  63  77 102 126 146 147 149 149 148 150 150 148 151 149 149 147 148 148
 148 151 153 153 156 153 153 153 152 152 149 130 104  85  74  64  61  54  54  49  50  53  88  86  76  72  81  94  97  94 103 103  94  96  93  91  83  70  57  46  38  34  34  29  33  41  38  38  41  53  65  74  79  76  72  67  70  62  57  55  51  47  43  47  54  60  62  63  40  34  33  37  37  39  41  44  49  50  67  99 138 148 148 147 149 148 149 148 147 147 148 148
 149 150 152 153 152 152 152 151 144 111  78  67  63  58  51  49  44  43  40  36  37  55  93  92  82  71  71  86  91  89 101 106 102  98  99  94  88  70  68  53  48  43  38  38  40  50  47  47  43  54  65  70  73  71  68  62  64  62  51  46  45  45  41  51  56  60  61  63  32  30  29  32  32  34  34  37  36  38  42  47  51  87 134 144 146 147 147 147 147 146 147 147
 148 149 152 151 151 150 145 116  80  69  65  58  51  44  39  38  35  30  27  34  69  85  96  96  89  81  70  77  84  94  93 105 101  92  92  84  81  81  78  62  55  43  42  45  51  52  50  55  48  48  57  59  61  58  61  62  58  53  49  44  37  38  41  54  57  60  61  63  41  26  23  24  26  29  31  31  32  33  36  37  39  47  52  99 142 146 146 147 146 146 146 146
 145 148 150 149 149 126  89  70  64  62  56  49  40  34  29  27  26  28  47  78  89  51  93  97  89  89  73  66  78  83  88  95  90  76  79  71  76  87  85  70  57  42  52  48  55  59  48  58  54  43  50  48  50  51  51  57  53  45  36  31  28  28  46  54  59  62  62  62  45  51  35  24  18  20  20  23  25  29  30  31  35  38  41  46  65 129 144 146 146 146 146 145
 144 143 144 142  99  75  65  63  52  47  40  32  26  29  44  50  56  73  77  88  77  58 101  97  92  89  75  60  61  64  72  78  70  57  55  68  71  83  85  69  60  48  53  50  52  59  49  57  53  45  46  45  48  42  40  46  44  39  31  26  22  30  51  57  60  62  64  62  39  51  53  52  49  44  35  26  19  22  25  28  31  33  38  43  48  54 116 143 144 144 144 144
 142 141 126  88  65  66  63  49  32  31  31  43  53  58  55  61  79  74  87  85  52  98 104  98  94  86  78  54  45  54  63  72  59  46  48  53  62  74  71  71  58  53  50  46  48  52  46  46  43  37  41  41  45  39  32  34  31  29  26  22  22  37  53  59  61  63  63  62  31  46  46  52  47  51  47  46  48  34  24  22  26  30  32  36  41  44  47  91 126 141 142 143
 139 113  79  68  65  59  46  33  28  46  63  66  65  59  67  82  75  79  85  75  50 128 105  99  96  91  71  45  40  43  50  56  46  37  46  45  52  63  63  65  59  54  46  45  42  40  36  38  36  32  35  33  38  33  26  28  26  26  20  21  29  44  55  61  63  63  63  63  27  41  48  50  42  42  50  54  58  56  56  40  25  24  29  32  39  40  43  47  52  78 117 140
  87  70  71  59  57  52  33  40  64  69  74  70  54  63  79  81  75  80  82  62  78 125 103  99  99  95  80  60  38  35  35  42  40  38  43  41  45  51  52  53  55  44  38  36  37  36  31  34  34  29  31  30  31  29  23  24  20  18  19  27  43  54  56  63  62  64  64  62  31  36  45  44  50  38  39  47  55  78  80  70  61  36  25  28  33  38  40  42  43  45  50  71
  66  64  69  58  52  37  56  80  70  70  60  48  58  68  80  71  83  82  80  52 103 120 104 100  99  98  92  87  57  29  28  35  35  35  37  38  35  41  42  41  38  33  32  31  31  29  28  28  30  28  26  24  23  24  20  19  17  19  24  40  52  55  60  63  64  65  65  62  40  30  42  45  46  46  36  38  45  48  56  77  86  72  57  26  28  34  34  38  41  40  42  46
  63  59  71  50  33  62  91  89  67  54  39  52  66  76  87  78  88  81  75  42 119 119 102 103 102 100  99  97  77  43  29  30  30  32  36  36  31  34  30  30  29  25  24  25  24  22  22  22  25  25  21  20  19  19  18  16  20  22  38  49  55  55  60  65  64  66  65  63  53  27  42  40  38  48  43  34  37  47  41  39  57  89  78  67  32  28  33  37  39  40  40  42
  62  69  54  36  80 101 108  92  56  32  47  70  66  81  75  83  81  77  66  51 126 114 103 104 104 102 100  97  82  72  56  30  29  26  27  28  26  30  24  22  19  19  19  20  18  16  17  17  19  20  18  16  17  18  19  22  36  37  50  54  57  57  61  65  66  65  64  63  60  24  38  39  37  43  50  40  33  37  42  38  39  61  83  87  83  42  29  35  37  39  41  40
  63  55  39  85 112 113 105  96  44  34  68  64  69  86  74  82  79  70  61  62 127 113 102 103 106 103 102  97  92  90  66  38  37  26  26  26  24  26  21  18  16  16  17  17  14  13  16  15  16  18  16  17  18  20  26  32  46  52  55  56  58  59  62  64  65  66  64  64  64  34  31  39  36  40  44  48  38  31  36  42  37  39  70  90 107 103  62  27  32  36  39  39
  57  45  70 135 132 120 104  97  36  59  63  56  84  80  66  74  71  72  60  72 125 112 103 104 106 105 102  98  96  95  82  72  63  33  30  33  27  28  26  17  16  17  21  23  17  14  17  15  21  23  20  26  28  34  41  44  51  53  54  55  56  59  64  64  66  65  66  66  65  48  29  40  37  33  40  45  48  32  28  33  40  34  42  87 113 125 116  66  27  33  35  40
  51  54 149 150 153 118 118  73  45  63  50  59  84  71  68  71  72  75  59  78 123 112 104 104 104 104 103 100  96  95  91  82  64  53  57  51  40  34  37  29  22  21  36  39  29  21  26  32  31  37  38  42  44  48  50  52  52  53  54  57  56  58  60  63  66  67  64  64  65  53  27  38  38  33  36  40  43  41  28  27  34  42  33  82 111 126 135 124  56  27  33  38
  43 148 150 171 147 149 127  52  56  56  48  67  80  74  67  66  74  74  57  82 122 110 105 104 104 104 101  98 100  98  92  86  83  81  80  76  66  57  53  48  46  43  56  60  60  52  54  54  51  48  47  50  50  52  53  53  54  53  54  58  57  59  60  64  65  64  65  63  64  60  29  36  38  33  34  34  34  41  31  26  28  42  44  61 118 123 138 141 130  55  30  36
