P2
# Generated by OpenCV 3.4.0
92 112
255
 181 182 183 182 182 183 182 183 184 185 184 182 183 184 185 184 184 183 184 183 184 183 182 184 184 183 182 179 179 162 134 113  88  65  67  67  68  60  54  49  46  42  42  46  47  47  47  45  45  43  39  38  43  54  61  69  72  92 122 138 150 156 175 180 181 180 179 179 178 177 178 179 179 179 179 179 179 177 178 178 178 177 178 177 176 177 175 175 175 176 176 174
 183 183 181 182 182 182 183 182 182 184 185 183 183 183 184 184 184 183 183 183 183 182 183 183 183 179 176 155 133 107  76  69  65  59  63  51  42  38  36  36  34  37  37  38  38  41  43  43  39  39  40  38  35  36  42  48  57  63  79  87 111 136 142 169 177 177 178 179 179 178 178 179 178 178 179 180 178 178 177 177 177 177 178 178 177 176 177 177 175 176 176 174
 180 183 182 182 181 181 183 181 181 182 182 182 183 183 183 182 184 182 181 183 182 182 183 183 179 177 136  98  67  57  54  55  52  47  41  37  39  43  47  43  40  36  30  28  29  29  29  31  34  36  35  36  36  34  34  36  43  45  49  61  79  77  99 121 161 174 176 178 178 180 179 179 179 178 179 179 179 177 177 177 178 178 177 177 177 177 177 176 176 175 175 173
 181 182 181 180 179 180 180 179 179 179 181 181 183 181 182 182 182 182 183 182 183 183 183 180 172 127  62  50  48  56  52  49  47  48  49  45  46  44  38  36  35  35  33  32  32  33  32  30  28  30  32  33  34  34  30  31  34  40  42  43  46  52  66  99 106 145 162 172 175 179 179 178 178 178 178 178 176 177 178 178 177 177 176 177 176 177 176 176 175 175 175 176
 182 181 184 182 180 180 180 181 181 180 181 183 181 181 182 180 180 182 180 182 180 182 180 161  97  50  44  55  57  46  50  52  52  46  41  38  33  31  30  28  28  28  28  30  31  31  31  32  31  30  29  29  30  31  32  28  29  31  38  38  40  44  50  69  75  78 139 146 157 177 179 178 177 176 178 178 178 178 178 177 177 178 177 176 176 176 178 177 175 176 175 174
 179 181 182 182 178 181 180 182 183 181 180 182 182 180 181 182 180 179 180 182 182 182 164  66  43  43  48  49  50  52  47  38  28  27  29  29  28  27  29  29  27  26  26  25  26  27  27  28  29  27  27  28  27  26  28  30  27  28  32  37  36  38  49  49  55  55 108 129 134 168 177 176 173 174 178 179 178 177 178 178 177 178 176 177 176 175 177 177 177 176 176 176
 181 181 180 179 179 177 179 178 178 180 180 181 180 179 181 180 179 181 179 179 179 163  58  42  38  38  44  45  42  38  36  35  32  29  28  28  29  29  30  31  32  31  29  27  27  25  24  24  25  25  25  25  27  25  25  26  29  27  28  32  33  33  36  40  43  50  65 121 110 147 170 175 162 162 174 176 178 178 178 177 177 177 176 176 175 175 176 176 176 176 176 177
 178 180 178 179 177 178 177 177 179 179 180 182 181 181 182 179 180 181 179 177 143  47  40  39  36  39  42  39  41  39  38  32  30  30  32  28  27  26  27  26  25  26  27  26  25  25  24  24  24  24  24  23  25  26  24  24  27  27  26  29  32  30  31  33  38  51  54  66  91 112 146 169 150 144 164 175 177 178 178 177 176 176 177 177 175 175 176 176 176 175 175 175
 178 178 176 177 178 177 178 177 181 178 178 179 178 180 181 178 181 179 177 129  42  42  44  45  45  45  45  43  34  31  31  30  28  25  25  25  25  25  26  26  25  24  24  25  25  25  25  24  24  24  24  25  24  25  25  24  26  25  25  26  28  28  28  30  33  38  47  49  76  93 106 160 141 126 152 175 176 176 178 177 176 176 175 178 177 176 176 176 176 176 177 177
 177 177 178 178 178 177 177 177 180 180 179 180 182 180 181 181 178 168 117  52  47  49  48  41  41  46  47  38  31  28  25  26  24  23  23  23  24  24  24  25  25  25  26  27  27  27  28  30  31  32  36  38  34  33  32  28  27  27  26  26  27  28  25  26  31  33  36  48  53  71  83 126 135 113 128 167 169 174 176 177 177 177 176 177 177 176 175 175 176 176 175 176
 178 177 177 178 178 177 177 178 180 180 180 180 180 181 182 176 159 141  81  51  46  40  36  42  44  42  38  33  29  27  25  24  24  24  24  23  24  26  27  30  31  32  35  37  38  40  41  48  56  67  74  79  77  73  68  62  53  40  33  29  27  27  25  25  28  31  33  42  51  51  65 105 122  94 107 134 150 165 174 176 176 176 176 177 177 175 177 176 176 177 177 177
 178 178 178 178 179 178 179 180 180 179 178 179 179 182 177 174 164 134  52  42  35  36  41  46  48  48  43  34  29  27  25  25  25  25  27  30  34  41  49  55  50  59  65  68  71  76  81  91 100 106 110 111 113 115 113 107  96  82  66  47  34  28  25  26  26  28  28  34  44  46  48  86 104  80 104 106 129 151 171 177 177 178 178 178 177 177 178 177 177 177 176 176
 178 179 179 178 179 181 181 182 182 181 182 182 181 182 178 176 173  75  42  35  36  46  50  50  52  44  32  28  27  26  26  27  28  33  42  57  72  82  88  92  96  99 105 106 106 110 113 116 118 122 125 130 135 135 132 125 122 113 100  87  70  45  30  27  25  25  25  29  35  41  38  70  85  71  91  90 114 146 171 175 178 177 178 178 178 177 178 177 177 177 176 176
 178 181 182 181 183 182 182 182 181 180 182 182 182 182 180 179 133  51  42  38  40  47  52  54  45  37  29  26  26  26  27  35  48  66  86 100 108 113 116 117 120 121 123 123 125 125 128 131 131 137 137 140 141 140 136 133 127 122 118 111 101  87  56  36  28  27  26  27  30  35  36  50  64  60  80  77 101 145 163 174 176 177 178 177 178 176 176 176 179 178 177 177
 182 182 180 182 184 183 182 182 182 184 183 182 184 183 182 175  73  45  40  38  46  54  54  49  39  32  29  29  31  34  46  66  88 110 118 121 125 126 127 127 129 130 133 135 132 135 138 138 138 141 142 145 146 144 140 137 131 126 122 118 115 107  98  76  50  34  28  28  30  32  34  41  50  56  64  74  85 132 156 167 169 175 177 178 177 177 177 176 178 177 177 177
 184 183 183 184 184 182 182 183 184 184 185 184 184 184 182 144  72  46  39  47  55  54  45  36  31  30  29  31  38  59  86 108 122 130 131 131 132 135 136 138 138 142 142 142 140 139 140 141 143 146 147 149 146 141 138 135 132 131 126 124 121 116 111 103  89  62  40  32  30  33  34  35  43  52  55  72  84 135 148 151 158 172 177 178 178 178 178 177 179 178 178 178
 184 184 183 184 184 183 184 183 183 184 184 184 184 184 181 118  66  43  42  42  45  42  35  33  32  32  38  43  68 101 118 132 140 143 144 145 146 147 146 147 146 147 145 145 145 142 144 144 146 148 146 144 140 137 132 132 134 133 125 123 122 120 118 113 106  96  71  48  39  36  34  33  42  46  55  66  89 130 126 136 160 173 177 177 178 180 179 178 179 178 178 178
 184 184 184 184 184 184 184 185 184 185 184 185 185 184 171 126  40  41  39  44  40  38  37  35  32  38  44  71 107 124 138 150 156 157 158 158 152 151 152 151 149 149 149 149 147 144 145 149 151 150 145 142 132 128 131 134 137 137 132 129 126 122 121 118 112 108 104  85  56  43  40  37  38  42  54  58  88 105 117 138 151 172 177 178 177 178 178 178 178 178 179 178
 184 185 183 184 186 185 185 185 184 185 185 185 184 183 170  75  45  41  45  44  43  44  38  33  38  44  73 113 130 139 154 160 162 164 162 162 158 159 158 157 155 155 155 154 154 150 150 154 153 151 152 151 148 147 147 149 150 150 146 142 138 134 130 127 120 114 109 103  87  57  44  38  36  42  46  55  69  87 107 119 168 175 178 177 178 177 178 178 178 179 179 179
 186 185 187 186 186 189 187 186 187 187 187 187 186 185 162  61  40  40  44  43  47  43  35  35  52  80 115 134 146 157 164 164 166 167 167 166 166 167 167 169 169 168 168 166 164 160 159 161 164 163 164 157 151 152 149 153 153 147 141 138 136 131 130 130 126 123 115 108  99  81  53  43  38  37  40  47  58  86  95 151 173 177 179 178 179 178 178 178 179 179 179 179
 187 188 190 188 188 189 189 189 186 186 188 188 188 183 152  45  41  37  42  45  46  41  38  51  83 114 133 147 158 164 168 168 172 175 170 159 168 174 176 175 173 173 172 170 167 167 164 164 166 168 163 154 149 152 149 149 138 135 132 129 127 120 117 118 118 117 116 112 104  95  69  45  38  36  39  52  74  88  96 165 178 180 180 180 180 179 178 178 178 178 178 179
 195 193 193 194 196 194 196 196 192 194 193 192 192 182  87  47  39  37  46  48  45  42  46  80 116 133 147 156 164 169 173 174 178 179 177 169 176 179 178 171 171 172 169 167 166 168 168 168 167 166 163 151 149 138 131 125 118 106 100  94  90  90  88  91  94 102 104 108 102  99  88  58  41  37  42  50  57  79 127 171 178 179 180 178 180 178 177 177 179 179 179 178
 203 203 203 202 202 202 207 205 202 204 204 202 200 180  57  45  39  43  49  49  46  49  78 113 131 145 157 163 168 169 171 175 179 181 182 182 180 178 174 172 169 168 166 165 165 167 166 167 168 165 164 154 142 122 114  98  77  62  55  49  45  43  42  45  51  62  69  80  91  96  92  76  52  40  39  39  46  92 147 171 177 178 179 180 181 180 180 179 180 179 180 179
 212 211 209 209 211 211 212 215 216 214 212 212 210 163  48  42  40  47  50  49  49  66 102 128 136 145 160 167 167 171 174 176 174 174 173 174 170 168 165 161 159 153 154 157 159 164 164 166 166 164 162 152 130 108  93  71  52  44  38  34  33  35  33  33  35  41  45  52  67  78  89  86  63  45  39  37  42  99 163 173 177 178 180 177 180 179 179 179 180 179 179 180
 208 209 207 207 208 210 214 215 216 216 216 215 211 146  54  36  44  48  47  50  55  86 118 135 143 154 166 168 168 171 170 166 159 158 156 148 138 131 124 128 124 128 134 140 143 152 155 156 153 148 146 140 122  94  77  56  44  37  33  30  30  31  30  30  27  29  34  37  44  54  70  88  79  51  40  38  42  63 136 165 171 173 175 177 179 178 180 179 179 180 180 179
 197 198 203 203 204 208 208 208 209 211 211 211 204 123  48  38  47  44  48  51  69 100 123 139 148 159 161 162 164 157 148 141 141 119  99  85  75  66  69  69  77  93 109 119 129 137 146 146 141 135 136 133 113  87  75  54  45  38  32  30  30  29  27  27  27  29  32  33  34  38  48  69  81  61  43  38  38  44  58 120 166 175 177 179 179 181 180 182 180 180 179 179
 193 193 196 196 196 196 198 199 203 203 203 198 190  77  44  44  45  46  51  59  84 112 130 144 151 157 162 148 133 128 118 106  73  59  54  51  50  45  45  47  48  56  82  98 116 129 135 136 134 131 129 127 108  86  68  51  45  42  36  31  30  31  34  39  41  44  44  40  36  35  38  46  64  71  48  37  37  38  45  77 143 175 177 177 179 180 181 182 181 179 179 180
 189 190 191 190 191 191 192 192 194 193 193 193 174  58  45  46  45  46  52  66  93 118 134 144 146 147 130 107  97  83  72  60  53  48  45  42  40  39  37  37  39  45  60  84  95 114 125 127 127 125 128 121  99  77  62  53  48  44  51  49  47  47  44  42  43  42  40  41  36  34  33  34  40  53  47  35  36  35  38  62 128 164 176 177 179 178 179 181 180 181 180 179
 187 188 187 189 188 190 190 190 191 191 191 188 150  58  47  44  46  48  54  70 103 124 137 141 136 109  96  88  89  78  70  62  61  59  56  49  45  43  44  45  49  56  60  70  78  92 108 104  99  91  89  78  69  67  56  52  51  45  39  29  29  32  33  34  40  41  44  45  39  41  42  41  41  38  31  28  30  31  36  62 135 171 176 181 178 179 179 181 180 180 180 180
 186 186 187 188 188 189 189 190 189 190 188 185 145  62  48  43  48  52  58  80 108 127 135 122  82  71  58  59  48  48  63  49  52  59  48  41  41  40  37  37  35  37  39  44  53  60  68  62  66  52  44  34  35  45  43  35  28  29  34  39  46  52  62  65  68  65  68  70  75  83  88  69  50  47  46  44  39  30  29  29  31  78 170 179 179 181 181 183 183 182 181 181
 187 187 187 186 186 189 189 190 190 189 187 182 147  61  46  45  51  54  62  84  95  81  57  43  44  51  59  52  43  45  48  74  83  66  54  48  48  51  55  56  55  49  44  41  44  49  59  58  54  51  49  31  34  43  36  38  47  55  55  57  61  62  65  63  62  61  58  60  62  71  80  88  72  54  45  40  49  74  36  32  32  35 142 177 183 180 182 182 182 180 182 181
 185 187 187 186 188 189 189 190 189 189 187 185 137  57  42  47  59  62  63  56  47  43  58  74  74  64  62  59  56  57  61  70  71  70  68  63  59  58  58  60  61  63  63  64  63  52  55  58  50  43  37  30  35  43  61  68  68  77  82  83  87  88  91  81  69  64  57  55  53  59  66  78  82  67  49  40  46 119 115  44  33  32 121 175 180 179 180 179 181 182 182 181
 186 188 187 186 187 186 187 186 188 189 188 183 116  53  45  50  53  53  52  43  52  94 111  98  80  74  70  71  71  72  79  77  75  75  74  70  65  64  62  66  75  79  88  92  91  63  53  54  38  45  36  28  37  45  50  47  48  47  50  54  63  80  97 103  98  91  78  64  53  54  56  66  77  74  57  39  41  94 161 114  39  33  96 176 182 179 180 182 182 180 182 181
 185 185 187 187 188 187 188 188 187 188 186 181 108  52  48  50  53  53  47  54  81 115 100  80  76  80  83  85  98 100  93  90  85  82  80  77  72  69  65  66  69  73  77  83  84  66  54  43  52  56  52  37  37  42  49  50  50  48  48  55  71  87 100 109 109 108 103  91  72  57  54  57  69  78  64  40  40  79 155 132  46  38  87 175 182 181 182 181 184 184 182 181
 185 185 187 185 186 186 188 187 187 188 186 179  96  54  48  51  55  52  46  57  86 111  83  76  79  90 102 103  90  90  98  95  95  97  97  95  93  96  91  88  81  70  72  73  76  67  44  60 131 148 127  68  37  41  63  64  57  47  50  64  73  82  93  91  91  88  89  94  90  73  57  55  61  72  71  45  37  67 141 121  52  41 112 176 182 180 184 184 183 182 183 182
 185 185 186 186 185 186 188 188 187 188 187 176  91  53  43  49  57  52  50  55  84 102  85  78  82  90  84  78  80  83  92 102 104 105 110 113 105  91  79  75  71  70  72  74  76  57  55 167 177 169 159 151  73  40  48  48  48  46  54  61  62  59  56  46  47  44  50  67  78  78  63  55  58  70  77  56  37  54 143 140  60  40 123 176 181 182 185 183 184 184 183 183
 185 186 185 185 184 185 186 186 186 185 184 174  99  54  42  43  55  56  54  54  87 108  99  92  92  79  74  70  72  89 100 105 105  99  89  84  78  71  66  63  66  71  79  88  82  45 117 166 174 171 162 150 118  41  45  51  50  55  62  53  47  46  39  39  29  33  39  37  43  51  64  58  59  67  77  69  38  46 119 134  64  38 137 179 183 182 184 182 183 183 180 183
 185 184 185 186 185 184 184 185 185 186 184 174 102  56  42  41  41  57  63  78  93 110 101 106 110  75  71  66  83  92 104  94  89  75  56  51  50  53  54  55  60  65  75  85  79  42 137 166 175 173 162 149 126  70  39  56  55  52  38  38  45  42  33  31  29  27  40  46  38  36  44  55  57  63  76  79  43  43 107 109  62  43 153 180 182 183 184 182 184 182 181 182
 185 185 185 185 185 185 183 184 184 185 185 176 116  60  43  50  45  54  70  83  99 113 104 108  97  87  71  70  92  93  75  52  43  36  34  32  40  40  37  43  55  71  78  91  61  61 144 162 173 177 164 146 130 104  40  52  56  34  33  42  50  35  31  25  23  27  32  49  45  37  33  37  52  62  71  82  56  43  92  78  58  55 170 181 182 184 183 183 182 183 183 180
 184 185 184 184 185 185 184 185 184 185 185 179 131  62  44  40  38  50  64  66 105 120 104 105  89  88  73  69  89  62  46  44  37  34  34  30  33  52  52  45  42  57  88  90  42  93 145 156 167 170 163 147 132 112  72  36  51  37  37  47  52  35  28  24  24  26  30  48  46  39  38  42  49  59  69  77  67  41  97  69  52  83 176 181 182 183 182 181 182 181 182 182
 184 184 184 184 184 185 185 185 185 185 185 182 148  68  45  40  40  49  61  66 114 127 102 106  87  88  76  72  70  44  52  52  44  34  30  28  31  50  62  52  46  51  66  67  35 125 143 159 175 177 168 157 144 122 102  41  42  59  52  51  49  40  31  28  27  29  36  48  48  45  46  52  60  67  71  76  76  51  66  65  44 109 176 180 182 182 182 181 182 181 181 180
 184 184 185 184 185 185 185 184 185 185 185 185 164  74  46  42  50  54  65  72 121 124 103 108  91  94  81  64  55  48  67  55  32  30  30  29  35  50  62  56  56  67  69  50  50 141 142 167 185 181 172 165 152 134 108  80  29  47  56  52  49  49  50  47  45  48  50  54  52  51  51  62  74  77  79  82  77  60  50  52  37 144 177 182 180 181 182 181 181 179 180 180
 183 184 184 184 185 185 185 185 185 185 184 183 173  82  50  44  59  60  81  74 123 118 105 111  98 100  79  56  63  54  66  64  38  33  32  36  40  59  67  68  71  79  61  42  77 136 147 171 184 179 169 164 157 138 118  99  48  30  46  54  50  45  45  46  49  52  52  52  54  56  59  68  78  88  90  92  86  60  51  41  44 167 179 181 179 179 181 179 180 179 180 179
 182 184 184 184 183 184 184 185 185 185 184 183 180  91  49  44  56  68 106  68 100 112 110 120 106  99  78  66  73  60  63  71  61  53  56  61  68  69  70  73  78  67  39  70 108 136 157 171 179 172 166 163 155 135 122 106  85  32  29  45  61  63  59  54  56  57  57  60  62  69  78  84  86  90  94 100  94  62  42  35  61 169 178 178 179 179 181 179 178 179 179 180
 183 182 184 184 184 184 183 186 185 185 184 184 179 101  49  42  51  68 119  78  77 113 121 129 112 108  92  82  88  74  75  73  68  65  67  63  64  67  69  70  52  39  99  84 131 138 157 164 165 162 158 155 144 130 118 110  96  74  55  31  31  54  73  80  95  91  88  87  88  88  88  88  82  84  73  55  30  44  63  41  89 173 180 179 180 179 180 180 178 180 179 180
 184 183 184 183 184 184 185 185 185 184 185 184 177 124  46  40  47  70 101  92  67  79 107 128 119 118 104  96 100  86  81  75  73  68  65  63  61  58  47  38  72 126 114  97 134 138 143 144 144 141 138 141 134 122 104  96  99  91  67  89  79  57  42  26  24  26  26  26  27  26  29  29  35  45  56  65  81  94  93  68 126 172 178 179 180 179 178 178 178 179 179 179
 183 184 184 184 183 184 183 184 185 185 184 185 178 142  46  40  43  62  83 102 114  82  54  65  74  79  80  74  70  66  65  61  59  48  41  37  51  66  92 128 139 134 103 115 134 136 120 116 124 124 121 121 117 103  85  73  83  97  78  75  94 102 107 109 107  99  98  97  98 102  99 101 102 102 102 101  98  90  93  91 108 172 177 179 178 179 178 178 178 178 177 179
 183 183 184 184 183 184 183 185 185 184 184 184 182 156  55  42  40  46  77 115 127 128 129 105  88  80  76  75  78  77  82  83  87  96 111 117 122 133 144 147 141 120 101 125 134 123 100  99 110 113 107 106 101  89  73  63  70  89  92  73  82  98 106 107 110 116 113 114 114 112 110 111 113 110 102  99  99  94  92  98  89 166 176 178 178 178 178 178 178 178 178 177
 183 184 183 184 183 184 185 184 184 184 185 185 183 179  81  45  39  36  88 124 130 135 139 138 141 144 144 141 139 138 136 135 133 134 137 141 145 150 150 145 130 112 114 129 131 109  92  92 100 102  95  88  85  75  70  61  62  77  95  86  77  86  97 106 106 109 112 117 118 115 115 117 116 114 107 100  94  96  94  97  89 155 176 178 178 177 178 177 177 179 178 177
 180 181 183 182 183 184 184 184 184 185 185 184 185 178 123  48  41  56 119 131 133 137 142 146 151 152 150 150 148 146 148 146 144 147 148 150 150 150 145 136 122 117 122 135 128 102  84  83  89  92  86  77  72  69  58  46  55  67  85  97  83  84  90  97 102 105 108 110 113 113 113 113 112 109 109 101  97  97  98  96  96 144 173 178 177 177 177 178 177 177 178 178
 181 184 183 184 182 183 184 182 184 185 185 184 185 181 152  48  46  87 139 139 139 141 143 150 154 156 157 159 154 153 157 157 154 152 153 149 149 146 139 132 122 121 127 139 118  95  67  44  45  77  79  70  66  64  34  23  34  55  71  90  93  84  88  96 101 104 103 106 108 109 109 110 109 108 105 102  99  97  97  96  99 123 170 176 177 176 176 178 177 177 177 177
 181 181 182 184 184 184 184 184 185 184 184 185 185 183 174  67  58 110 145 143 140 143 142 150 152 155 157 156 155 157 155 157 154 152 150 148 144 143 141 135 128 129 135 130 105  80  35  26  38  57  76  66  59  56  32  22  25  36  58  75  90  92  91  97 100 103 107 106 106 108 108 108 108 109 108 104 102  98  94  97  97 100 139 172 176 177 176 177 177 177 176 177
 181 182 184 183 184 184 184 185 185 185 185 185 185 184 179  99  69 122 150 147 142 144 145 147 149 152 155 150 151 154 154 154 150 150 146 145 145 143 141 138 137 132 133 116  89  53  31  36  66  68  77  64  55  54  44  26  23  31  46  64  80  99 105 108 105 104 105 106 108 109 106 104 104 104 103 104 102  96  95  95  97  83  91 169 175 177 176 178 176 177 177 177
 179 181 182 184 184 184 185 185 185 186 186 185 186 185 184 134  79 129 149 146 147 151 148 144 146 149 151 148 148 148 147 146 145 147 147 150 151 148 144 144 142 132 123 104  75  41  30  48  84  83  74  61  54  55  54  39  31  35  43  57  72  96 109 118 119 115 115 114 111 109 107 105 105 102  97  98  99  98  93  93  94  80  83 166 176 176 176 176 176 176 176 176
 181 183 183 184 183 184 184 185 185 187 186 187 186 186 184 159  89 132 145 145 148 147 144 144 146 148 146 144 145 145 148 148 153 154 155 153 150 152 151 149 142 130 115  94  68  44  50  72  85  76  66  59  55  55  57  54  49  45  46  53  69  94 108 117 121 121 120 122 121 118 111 108 104 101  97  94  94  93  93  91  93  81  86 164 175 176 175 175 175 176 176 176
 184 184 184 183 184 184 185 185 185 188 186 186 185 184 182 166 100 129 144 146 146 145 143 145 144 145 142 148 148 150 152 154 157 155 153 152 154 154 155 150 142 130 113  88  72  70  86  93  91  82  73  66  60  57  58  56  53  48  47  50  70  92 106 115 120 120 118 120 122 122 119 114 104  99  96  94  91  91  90  91  92  77  80 157 175 176 176 176 177 176 176 176
 182 182 183 184 183 183 185 185 186 186 186 187 186 182 170 150 104 132 143 147 148 144 143 142 144 141 145 150 151 153 151 155 156 153 155 155 156 154 154 150 144 135 119  86  71  75  84  91  94  86  80  73  68  63  54  48  46  47  48  53  73  91 104 113 118 120 120 119 120 121 119 117 110 100  95  93  91  88  88  89  90  90  83 132 172 176 175 175 176 175 175 176
 183 182 184 184 184 185 186 185 185 186 187 187 184 169 144 126  98 129 143 146 144 140 139 142 146 145 147 148 149 151 150 150 153 155 156 154 155 155 154 149 145 140 125  97  81  80  81  81  79  71  70  71  69  62  48  42  40  39  43  49  66  85 102 110 116 117 119 119 117 116 118 116 110 103  94  91  89  88  88  88  90  96  97 109 167 174 175 175 175 174 175 176
 182 184 184 184 184 186 186 185 186 186 186 185 185 127  94 113 103 122 141 143 142 139 138 140 142 140 144 145 145 146 148 149 153 156 155 153 156 154 155 154 152 150 135 124 103  87  68  61  65  54  50  58  62  58  41  40  40  36  35  38  55  74  93 108 114 118 118 119 116 110 112 112 110 100  91  90  91  87  87  87  89  96 103  99 145 171 175 175 175 174 174 175
 185 184 186 184 184 186 185 185 186 186 186 186 181 110  79  88 109 113 137 140 140 138 139 140 138 137 140 141 142 143 146 148 152 154 154 154 156 156 159 160 159 152 141 131 105  73  53  49  47  40  39  42  46  46  39  33  35  33  32  34  37  55  80  99 109 114 116 118 118 108 107 110 111 106  96  90  86  86  87  87  91  94  93 101 132 172 176 175 175 175 174 174
 183 182 183 184 185 185 186 186 187 185 185 186 182 110  81  91 108 106 135 137 138 138 138 139 137 139 138 137 139 141 143 147 151 151 152 156 160 160 161 161 157 144 134 119  96  58  41  44  40  36  37  36  39  38  33  33  35  34  31  30  33  44  59  83  94 101 107 110 114 113 110 111 109 106  97  89  86  84  85  86  91  94  85  99 130 170 174 174 173 173 173 172
 185 185 185 184 184 184 184 184 186 185 186 185 181 127  91 108 123 101 130 135 139 139 136 137 136 136 137 138 139 143 143 147 150 151 154 159 160 161 161 160 152 135 112  99  75  54  43  40  39  39  34  32  34  36  34  33  36  38  36  31  31  35  38  53  65  74  82  86  99 109 112 110 106 102  98  91  88  86  84  86  90  94  84  92 130 168 172 173 174 174 174 173
 184 184 183 185 184 185 185 184 186 185 186 185 182 132  95 126 132 104 128 132 134 137 136 136 133 134 132 137 137 141 144 147 148 153 157 161 159 159 156 151 138 115  91  81  66  49  41  39  40  37  34  29  31  36  36  35  39  45  44  40  35  33  33  38  46  51  57  58  67  88 102 107 104 101  98  91  88  86  85  86  88  86  83  98 132 168 174 174 174 171 172 173
 185 184 185 185 184 186 185 186 186 186 187 186 182 138 108 145 140 132 128 130 132 136 134 130 132 134 133 135 137 140 145 144 150 156 159 158 156 146 135 127 118  91  74  64  57  50  44  42  44  39  37  33  33  41  50  48  53  58  60  54  45  42  37  35  41  43  44  47  47  64  89 100 101  99  94  91  88  85  85  85  88  89  92 100 125 168 173 175 174 173 172 171
 184 183 183 183 184 184 185 185 186 186 186 186 183 138 130 142 131 143 133 129 132 134 134 132 132 132 133 133 135 138 142 143 148 152 154 152 146 127 112 105  96  75  66  56  56  56  46  42  51  50  42  44  45  52  71  74  63  58  55  56  55  55  50  42  41  39  37  37  39  46  61  80  91  93  94  91  88  84  84  85  89  95 112 113 121 164 172 173 173 172 171 171
 183 183 184 184 184 184 184 184 185 185 184 186 182 148 138 124 115 142 141 131 129 132 133 133 131 131 134 131 132 138 140 145 148 152 150 142 123 103  84  84  76  68  59  58  64  66  60  56  57  56  54  62  68  73  82  66  53  50  47  47  45  52  55  51  46  38  33  31  31  38  46  60  83  90  91  90  86  84  83  85  88  90 103 111 116 158 170 171 173 173 172 171
 182 182 184 184 184 183 183 186 186 185 184 184 182 158 136 110 105 132 146 132 128 130 133 132 131 130 133 133 134 136 139 142 145 145 138 111  92  80  58  64  63  61  59  66  74  72  63  57  53  51  49  53  61  65  55  47  46  47  46  44  43  42  44  47  48  42  35  31  31  34  38  46  67  84  89  87  84  84  84  84  86  89  98 107 119 148 168 170 172 172 171 170
 181 184 184 182 185 182 185 184 183 184 185 186 184 160 131 101  97 122 143 132 129 128 133 133 130 133 133 133 134 137 139 140 140 137 117  82  67  62  51  55  50  54  62  72  73  61  52  51  51  51  47  43  44  46  43  41  44  44  44  41  41  42  41  38  40  41  39  33  33  36  39  41  52  76  85  86  86  84  85  84  86  92 103 108 118 132 160 168 170 170 170 170
 181 182 182 185 184 182 185 186 184 186 183 186 184 173 145 109 103 120 129 131 130 129 131 133 125 133 133 131 133 136 139 138 138 130  94  68  52  52  45  44  45  54  65  65  58  51  48  48  47  47  42  37  36  37  34  35  40  41  45  49  45  46  40  33  32  32  33  33  35  38  42  44  45  66  82  82  84  83  83  86  85  93 104 106 112 115 136 167 170 170 169 170
 183 184 184 184 183 185 185 185 185 187 186 186 186 180 163 144 145 157 143 128 131 129 130 132 134 132 128 130 132 133 134 134 133 115  74  53  49  46  41  39  47  57  60  52  48  47  42  45  52  53  48  51  50  50  52  60  74  82  88  85  79  76  69  55  40  30  27  30  39  43  44  46  44  57  80  82  84  84  84  86  87  88  94 102 104 104 129 166 168 170 169 169
 184 184 184 183 185 185 185 184 185 186 185 186 187 185 162 156 159 151 138 124 131 127 128 133 134 132 130 127 131 132 132 130 125  96  65  49  46  42  38  42  48  53  47  44  51  62  74  82  88  88  84  82  78  77  78  84  94  94  93  86  80  80  76  72  69  58  52  49  49  51  52  52  54  61  80  85  86  86  85  84  86  81  83  89  92  99 155 168 169 170 168 168
 185 187 185 186 187 187 187 189 189 188 189 189 189 188 167 150 146 131 138 127 129 127 128 133 133 130 129 126 129 131 131 127 116  83  67  54  47  39  40  40  39  38  42  61  76  81  86  89  90  88  90  90  90  89  88  91  92  86  80  75  74  78  77  82  84  79  75  71  71  69  61  62  66  73  80  81  85  87  86  84  86  74  71  75  84 146 168 169 170 170 169 168
 189 189 189 187 188 190 191 190 190 190 191 189 190 189 171 159 151 149 150 138 128 129 130 132 132 130 129 127 126 130 129 122 115  82  65  61  48  43  40  37  42  57  74  82  87  88  89  88  86  85  84  82  80  80  80  78  76  70  72  71  70  74  75  79  81  81  85  86  84  79  70  67  73  79  82  83  84  85  83  86  88 104 108 120 153 167 169 169 170 169 169 169
 189 188 189 188 189 190 192 191 190 190 190 191 191 189 176 170 166 167 163 148 127 128 128 131 130 127 129 128 126 126 125 120 115  94  74  64  56  52  54  66  82  98 104 105 104  98  97  96  93  84  78  74  70  70  69  68  66  63  63  64  66  70  72  72  74  80  88  90  89  85  79  74  75  80  82  84  84  86  85  84  87 132 163 165 167 169 170 170 169 170 170 169
 187 188 189 189 190 190 190 192 191 192 192 193 193 190 174 166 162 162 159 150 131 126 128 128 129 126 126 127 126 125 126 126 121 108  84  82  70  71  84 101 109 113 116 117 112 106 101  97  91  84  73  70  62  58  59  58  57  56  56  59  59  63  65  69  72  80  83  86  88  87  81  76  75  79  81  84  85  84  84  86  88 138 166 168 168 169 168 169 169 169 168 168
 187 189 190 189 190 190 191 192 191 192 193 191 191 191 168 146 146 146 142 133 121 126 128 127 129 122 122 125 122 122 121 123 120 114 103  93  86  90 107 115 117 116 117 115 109 103  98  93  87  79  74  67  56  49  50  50  48  48  47  47  48  53  59  67  72  78  80  81  82  83  79  73  76  80  82  85  85  84  83  85  90 135 164 167 168 169 169 169 169 169 169 168
 187 189 187 189 187 189 190 191 191 190 191 190 191 189 182 147 125 121 117 110 107 123 126 127 127 127 123 124 123 123 124 122 119 117 109  99  91  99 113 117 116 115 113 108 106  99  97  90  82  75  69  62  46  41  40  39  39  40  39  41  43  52  58  68  72  76  79  78  73  76  75  69  75  79  83  82  84  84  84  85  89 136 161 163 166 167 168 167 168 168 168 167
 186 188 185 186 186 189 190 190 190 189 189 189 189 188 186 182 158 108  95  87 101 125 125 124 127 125 123 124 121 122 119 118 118 115 109 105  96 104 111 111 112 107 111 109 107 100  97  91  81  74  72  60  44  38  38  35  35  37  40  39  42  58  68  72  73  77  79  72  70  71  72  73  73  74  78  79  84  82  81  84  88 139 163 165 167 168 168 167 168 166 168 166
 187 186 187 186 187 189 190 190 189 189 189 188 187 186 186 185 182 176 156 159 177 135 121 122 121 121 122 120 119 120 119 115 113 113 112 108  98 101 105 110 109 107 107 108 105 102 100  96  89  84  78  66  52  42  38  31  33  35  41  46  49  63  72  77  81  82  81  74  72  69  71  71  70  76  76  78  83  83  81  82  86 143 162 164 164 166 168 167 167 167 167 166
 185 187 185 185 186 189 191 189 188 187 186 187 186 184 185 185 184 184 184 183 179 144 121 121 118 121 120 120 120 119 116 114 112 111 110 108 104 101 104 108 104 108 101  96  95 100  98  96  95  93  87  76  56  45  38  33  31  33  35  48  56  68  80  85  87  87  81  77  76  72  70  72  72  74  77  79  81  81  81  80  86 150 161 164 165 163 165 167 167 165 166 165
 185 183 184 184 185 187 188 187 187 186 184 187 185 185 185 184 184 183 184 184 182 154 118 119 118 116 115 116 117 115 113 112 111 111 111 110 104 102  97 100  99 106  99  93  92 101 101 102 104 102  93  79  60  51  44  38  35  38  40  49  60  72  90  96  97  93  86  85  82  74  70  73  73  73  74  77  77  77  77  78  94 154 160 161 164 163 166 164 166 164 164 163
 182 182 184 183 184 184 186 185 185 184 184 184 185 183 184 184 182 182 182 182 180 162 119 116 116 113 112 114 114 114 113 110 105 107 110 106 100  97  95 101 103 103 102 102 101 105 106 106 104 105  93  77  67  59  50  48  45  46  56  50  56  71  92 104 103 102  96  92  85  79  74  74  74  70  73  77  76  75  73  74 109 157 161 161 163 162 162 164 165 164 164 164
 182 182 183 184 183 183 184 183 183 183 183 182 183 182 182 183 182 181 181 180 180 171 126 115 116 115 113 112 112 114 113 108 106 106 104 104 108 106 102  98  92  99 102 106 105 110 108 109 108 104  97  78  73  70  56  55  53  53  68  66  63  65  87  98 106 102  93  90  90  81  78  83  76  68  71  74  75  72  72  73 129 158 160 162 162 164 163 161 163 164 163 163
 180 180 181 181 182 181 181 182 181 182 182 181 180 180 181 181 181 179 179 179 177 173 143 113 113 113 112 109 108 111 110 106 104 103  99 104 109 104  98  98  96  99 101 110 113 114 115 116 115 100  97  92  84  77  63  55  66  68  73  67  72  66  71  87  95  96  92  88  88  84  82  83  75  69  75  74  72  71  71  83 149 159 162 161 163 162 163 161 162 164 163 160
 180 179 179 179 180 180 180 181 179 180 179 181 181 180 179 179 180 178 177 177 175 173 155 113 111 110 108 109 107 110 107 100 102  98  96 103 106 102  98 102 105 102 106 115 118 116 114 110 107  89  96 108  99  83  67  62  73  72  80  66  70  69  60  68  73  74  79  83  85  83  81  78  71  70  69  68  70  71  70 115 153 160 160 161 164 162 161 162 162 162 162 161
 178 176 176 177 178 178 178 180 179 177 178 178 179 180 179 176 178 177 175 175 172 171 166 120 108 103 104 105 105 105 100  96 100  99  90  97 104 101 107 109 108 108 107 114 120 114 100  90  87  88  93 109 101  88  71  67  69  69  74  69  70  65  55  61  61  61  64  77  81  74  67  68  63  62  64  64  66  65  78 141 156 158 159 160 160 160 160 162 161 162 159 160
 177 175 176 175 176 175 176 176 175 177 175 175 176 176 176 176 174 174 173 171 172 168 167 139 105 102 102 100 103 100  98  94  97 100  98  99 104 103 110 112 115 109 109 109 114 110  91  74  75  79  86 100  94  90  79  73  67  68  70  61  61  58  48  54  57  62  53  64  71  65  64  59  63  59  62  64  65  66 112 153 157 157 158 159 159 158 160 160 159 160 159 158
 174 174 173 172 172 174 173 173 173 174 173 173 173 174 173 173 172 172 170 170 168 167 166 156 109  99  98 100  99  96  94  93  94  98 103 105 108 108 112 113 117 112 115 104 108 105  73  62  70  67  82  89  83  84  78  71  64  61  60  57  52  54  47  51  50  57  49  44  58  56  48  51  59  52  57  62  63  86 146 155 157 157 158 158 159 158 158 158 158 159 159 158
 172 170 171 171 170 172 171 169 170 170 170 171 170 171 169 171 170 169 168 167 167 165 166 161 129  99  96  96  96  93  93  93  91  96 101 103 108 105 102 108 112 111 109  96 100  90  66  64  65  58  68  76  71  76  70  63  58  55  54  54  50  49  44  44  42  49  41  40  46  46  42  38  47  50  56  63  77 136 152 155 156 157 156 158 157 158 158 158 157 158 158 157
 169 169 168 168 169 169 170 168 168 169 169 168 168 167 167 167 167 166 167 165 167 166 165 161 153 106  96  92  90  88  90  89  91  93  98  97 100  97  92  97  98  95  85  89  88  82  60  57  56  50  59  70  64  62  60  50  51  51  49  50  46  47  46  42  37  42  38  35  39  38  37  33  37  48  55  73 131 148 154 155 156 156 157 156 157 157 157 157 158 156 157 156
 168 167 167 167 167 167 169 168 167 166 167 167 167 166 166 167 166 166 167 165 165 166 164 163 160 128  91  88  90  85  87  84  86  89  92  95  91  90  90  92  84  73  76  73  72  67  55  53  56  48  49  55  52  48  45  41  44  46  44  42  39  40  42  38  34  35  32  31  32  30  30  28  35  49  63 104 145 150 152 154 154 155 156 156 157 156 157 157 157 156 155 156
 167 168 167 167 169 167 166 167 168 166 167 167 167 167 165 166 166 166 165 165 165 163 163 162 160 154 108  86  86  83  83  86  85  86  86  88  81  82  85  83  65  66  65  62  58  55  54  53  56  44  46  45  44  36  37  34  36  39  34  34  31  34  37  31  30  31  31  28  28  28  25  24  33  57  70 112 146 150 150 151 153 153 154 155 156 154 157 156 156 156 156 156
 167 167 167 167 166 166 167 167 166 167 167 166 167 167 165 165 164 166 164 161 163 161 160 161 161 158 149  97  80  79  78  77  78  79  77  78  76  72  74  67  60  56  54  49  49  50  49  49  52  39  44  35  33  28  29  31  32  29  28  28  26  28  30  28  25  28  28  26  24  24  24  25  42  65  72 107 144 148 153 151 153 153 154 154 154 155 156 155 156 156 155 154
 166 166 167 166 165 166 165 166 166 166 166 165 164 164 165 166 163 162 162 162 160 159 160 160 159 157 155 144  97  77  74  73  73  73  74  73  73  68  62  56  54  46  44  47  41  42  39  44  45  38  41  35  26  25  23  28  26  22  23  24  23  24  25  25  24  24  23  24  20  23  23  30  52  65  72  99 142 148 149 149 149 150 152 152 154 153 154 154 155 155 154 155
 166 166 164 166 166 165 164 164 165 164 164 164 163 162 162 163 161 160 161 160 161 159 158 158 157 157 156 154 137  91  78  69  69  65  65  68  66  63  57  46  43  37  38  44  36  39  37  38  38  34  35  34  25  22  22  23  22  20  19  21  20  22  23  23  23  24  22  18  20  21  28  47  59  67  74 100 140 147 148 148 149 147 149 150 153 152 154 153 154 154 154 154
 165 165 164 164 165 164 163 163 163 163 166 163 164 163 162 161 160 160 160 160 159 158 157 159 158 157 158 157 150 111  91  81  71  64  61  62  59  58  53  45  36  34  30  36  34  38  32  32  34  31  31  27  24  20  20  19  20  16  16  19  19  20  20  22  20  19  20  19  22  32  45  57  63  68  74  96 138 145 146 148 147 146 148 148 151 150 152 152 152 154 153 153
 164 165 165 164 166 163 162 163 165 166 165 163 165 164 164 162 162 160 161 161 160 159 159 160 159 158 158 156 151 120 104  93  80  70  65  65  59  55  53  49  39  36  28  31  30  31  29  29  30  27  25  25  21  18  18  17  19  16  17  17  18  18  18  19  19  20  22  35  42  50  54  60  64  68  75  88 136 144 145 145 146 148 147 149 150 149 150 151 152 153 153 153
 162 163 165 163 164 160 161 163 164 165 166 166 164 163 165 162 163 163 161 161 161 160 161 159 159 160 159 157 153 123 107 100  90  80  74  70  70  67  64  60  55  50  32  29  31  26  25  26  27  25  24  23  19  18  18  17  18  17  18  19  22  21  25  26  30  37  44  48  54  56  60  62  65  69  74  85 133 143 144 146 146 146 147 146 148 148 149 149 150 152 151 152
 160 162 162 161 161 159 160 162 164 165 164 164 163 162 162 162 162 161 161 161 161 161 161 159 158 159 159 157 153 126 105 101  95  87  80  75  75  73  71  69  67  61  56  52  40  30  30  32  30  28  27  25  24  24  24  25  28  32  31  35  40  41  44  47  50  51  52  57  57  61  62  64  66  71  74  83 130 142 145 144 145 146 146 148 148 148 149 150 150 151 151 151
 158 160 160 159 160 158 160 160 163 163 163 162 162 162 161 160 161 162 161 160 160 161 160 158 157 155 153 153 150 128 106 101  97  89  85  80  80  77  76  76  75  74  70  69  57  49  49  45  42  45  44  42  42  45  49  52  50  51  50  50  52  54  53  53  55  56  54  58  61  63  63  64  67  69  73  79 119 140 141 142 141 144 144 146 147 147 147 149 149 149 149 149
 160 158 158 157 158 158 158 160 161 164 163 162 162 161 161 159 160 160 160 160 159 158 158 154 153 152 151 152 148 132 106  99  98  94  87  85  82  81  80  80  79  78  77  77  76  76  73  68  69  70  69  65  62  63  63  63  61  58  54  55  56  56  56  55  56  57  56  59  61  62  63  63  68  70  74  77  75  76  86 101 115 131 139 144 144 145 146 148 148 149 148 149
 159 158 158 157 157 156 158 160 160 162 163 162 161 161 160 159 159 159 160 159 158 155 153 151 152 149 148 148 144 127 105  98  96  95  92  86  84  84  83  83  83  84  83  83  84  82  81  80  79  77  77  77  74  73  70  70  66  63  60  58  59  60  57  56  58  56  58  60  59  64  64  64  68  71  73  74  60  40  42  47  48  50  55  76  94 122 141 144 145 146 147 147
 155 157 157 157 156 156 157 159 160 161 160 160 161 160 158 159 158 158 157 155 153 150 147 135 118 106  97  80  73  84 104  97  88  92  92  87  82  85  85  83  85  86  87  87  88  87  87  86  85  85  83  79  78  75  74  72  70  69  65  62  61  60  58  57  56  56  58  60  63  65  64  63  65  71  72  76  62  34  32  33  36  37  37  41  42  43  51  80 116 142 146 145
 154 156 156 156 155 155 156 158 160 160 160 159 159 159 157 157 158 156 154 150 138 111  90  72  63  61  56  51  49  67 106  99  90  91  95  92  90  88  89  87  86  88  87  87  90  90  90  87  88  89  87  83  81  79  80  76  73  71  69  66  62  61  61  57  56  58  58  60  64  64  65  65  67  71  71  75  63  30  28  29  31  32  32  35  36  36  39  42  47  58 100 139
 153 154 155 157 154 154 154 155 158 158 158 159 159 157 158 156 153 152 127  95  71  65  62  52  47  44  41  38  35  52 102 102  99  96  95  95  92  91  91  87  86  91  88  86  89  91  90  89  90  89  88  85  84  81  80  77  76  73  70  66  60  59  58  54  56  58  58  59  62  64  62  64  69  70  71  73  70  29  24  26  27  29  31  33  32  33  35  37  37  40  43  55
 156 154 154 154 153 154 153 155 158 157 157 157 158 157 155 152 133  93  72  67  60  53  45  43  39  34  30  28  47  80 106 104 101  99  98  96  94  93  92  89  89  91  89  88  89  91  90  92  92  90  88  85  82  81  81  79  78  73  70  66  62  60  58  58  58  58  60  62  64  63  63  66  69  70  71  74  72  50  37  25  20  21  24  24  26  27  29  30  31  34  40  41
 153 154 155 154 154 152 154 154 154 155 154 155 156 151 145 112  80  71  65  61  52  43  35  30  29  26  37  69  81  91 108 107 103 102 101 100  96  95  94  92  92  92  92  88  89  90  90  90  90  89  88  86  84  84  82  82  79  72  68  64  60  58  59  59  59  59  58  61  63  63  65  69  71  72  73  73  72  54  49  45  44  38  32  23  19  20  26  28  29  33  34  37
 154 153 153 153 150 152 152 151 150 151 150 152 149 134  94  73  65  60  58  48  38  29  27  37  44  60  78  79  86  79 108 106 104 102 102 102 100  98  96  94  93  91  91  91  90  89  88  86  88  86  88  86  84  83  81  80  79  72  68  62  58  57  57  57  58  57  58  60  62  65  66  67  70  71  72  74  71  56  46  46  44  46  50  49  46  37  25  25  25  28  31  34
 151 153 150 151 151 149 151 150 150 150 148 147 125  81  73  70  59  46  37  34  35  45  54  48  66  80  74  90  82  58 108 106 107 104 105 103 100  99  97  97  94  90  90  87  88  85  85  85  83  82  86  86  85  83  82  82  75  68  64  60  57  57  57  57  58  59  59  61  64  65  66  69  70  71  72  72  72  56  48  45  46  36  43  50  54  52  52  43  28  23  26  30
 152 151 151 150 150 149 148 150 148 148 145 114  81  72  70  58  45  32  33  52  61  56  53  66  85  72  86  86  69  65 109 109 107 106 106 104 103 101  99  98  95  92  89  87  86  84  84  84  83  84  84  84  84  83  83  80  73  65  61  59  59  58  59  59  59  57  60  63  63  63  65  69  70  70  72  72  70  55  47  47  45  42  34  39  48  57  70  64  62  50  26  27
 151 151 151 149 149 149 150 148 147 133 100  78  72  66  58  45  31  46  62  70  69  58  64  78  79  75  83  81  56  93 108 107 108 108 108 107 103 103 101 100  95  94  90  88  88  85  83  84  83  81  85  86  84  82  80  77  70  61  60  61  60  61  60  59  59  59  62  64  66  66  68  70  71  70  70  72  72  53  44  45  42  47  36  33  38  46  52  69  85  75  65  40
 149 149 151 150 148 148 144 125 100  82  75  74  63  60  52  35  60  68  73  70  53  62  74  84  72  80  85  80  48 114 109 105 107 105 108 107 103 104 103  99  97  92  87  87  86  86  87  85  84  83  82  84  83  82  79  73  67  63  60  59  60  62  61  61  61  59  61  63  63  67  71  71  71  72  70  71  72  57  38  44  45  41  49  35  34  39  47  40  44  69  86  74
