P2
# Generated by OpenCV 3.4.0
92 112
255
 173 175 175 173 175 175 175 175 174 166 101  40  33  28  27  29  30  33  34  30  31  30  24  25  29  32  34  44  40  40  43  44  40  41  39  35  34  31  28  26  25  26  26  25  22  23  23  23  24  26  28  28  24  22  19  18  16  17  17  17  17  17  18  20  19  18  16  18  22  23  22  25  28  27  28  29  25  27  26  30  36  43  77 121 126 138 112 105 147 163 172 172
 174 175 174 175 177 176 175 173 171 116  41  40  37  32  30  30  29  29  26  24  26  30  27  26  29  28  32  41  41  44  45  44  41  36  33  32  28  25  20  19  20  20  19  20  20  18  17  17  19  19  18  19  20  21  23  22  19  18  16  16  17  16  15  17  20  20  17  16  18  20  20  23  25  26  26  27  28  27  28  29  30  33  42  77 122 113  82  99 131 154 166 172
 175 176 175 175 175 176 174 168 118  51  46  39  34  32  30  27  25  23  23  24  23  22  21  20  24  25  32  36  37  36  36  30  25  22  22  24  22  22  20  22  21  21  19  18  17  15  14  14  14  16  19  20  18  18  18  19  19  18  18  16  15  15  15  16  17  19  19  17  16  18  18  20  21  24  25  25  25  26  25  29  31  32  32  53 101  94  67 107 115 141 163 170
 175 176 174 174 176 176 176 165 116  54  38  32  32  30  27  25  24  26  24  24  22  22  25  24  24  26  29  33  27  25  25  24  23  21  20  21  20  22  23  22  21  19  19  19  20  20  20  19  17  16  18  17  18  17  17  17  17  17  18  18  18  16  15  16  14  16  18  18  17  17  16  17  19  22  24  24  25  24  24  26  29  30  31  42  88  76  58  97  92 105 150 165
 174 175 176 177 178 176 174 156  67  38  31  30  31  30  26  24  24  29  32  33  30  26  27  29  32  30  28  29  28  28  31  32  31  27  26  30  31  33  30  27  25  24  25  23  22  22  22  25  26  26  28  28  28  31  28  26  26  22  18  18  18  17  17  16  16  15  17  17  20  18  16  17  18  20  21  22  23  23  25  26  26  26  29  40  66  63  53  89  78  99 143 157
 176 178 178 177 179 176 172 103  43  31  33  34  35  33  34  34  32  32  32  35  36  41  46  42  40  35  33  36  37  36  35  37  34  30  29  28  28  28  28  28  27  29  29  26  27  24  23  23  21  20  20  20  20  22  22  24  26  25  25  23  20  18  18  15  16  17  17  17  20  21  17  16  16  18  20  20  22  21  23  25  25  25  28  31  61  48  54  60  64  99 126 135
 178 179 178 178 177 176 162  77  36  34  39  37  37  34  36  30  26  23  23  26  28  36  34  34  35  37  36  36  35  34  31  29  27  27  27  27  24  23  24  24  22  21  20  19  19  18  19  21  22  19  18  17  16  16  17  15  16  18  19  21  23  22  19  18  17  15  17  18  18  22  20  17  16  17  18  19  22  20  24  24  25  24  25  28  38  34  42  55  56  96 105 115
 178 179 178 178 176 177 163  60  38  37  32  32  31  28  27  26  24  23  24  24  25  25  25  29  35  29  26  26  26  24  25  25  24  24  24  23  23  24  22  21  20  18  18  16  16  16  15  15  17  19  21  21  20  22  18  18  17  17  17  19  18  20  22  20  19  17  17  18  20  19  21  19  17  17  18  18  20  21  23  23  24  23  23  24  30  33  40  42  54  81  87 108
 179 178 178 177 178 177 141  56  45  44  37  32  29  27  30  28  27  28  27  28  30  32  31  29  31  32  30  27  25  24  24  24  24  23  22  20  19  20  19  21  19  18  18  18  17  16  16  16  15  15  17  16  17  18  18  21  22  20  18  19  20  20  20  21  21  19  18  18  19  20  20  19  17  17  17  19  19  21  21  22  22  21  23  22  28  32  33  40  51  58  89 109
 179 178 177 180 178 174 138  78  52  39  34  32  36  37  36  33  32  30  24  23  21  23  28  29  28  25  23  21  22  22  21  20  20  19  19  19  19  19  19  21  22  22  21  20  19  18  17  18  18  17  16  16  16  16  17  19  20  22  23  22  23  24  23  22  23  23  22  21  20  23  20  21  21  18  18  18  19  18  20  21  20  20  21  22  26  29  33  36  45  52  69 118
 178 180 180 180 178 178 160  80  45  43  40  37  36  33  32  34  34  28  26  27  29  27  29  25  26  24  22  21  20  20  19  20  19  21  20  19  20  20  19  20  23  23  21  22  21  19  18  18  18  18  18  17  18  18  18  20  24  24  25  25  25  25  24  26  26  26  26  23  23  24  25  23  24  22  19  19  20  19  20  20  21  20  21  22  25  26  28  35  38  57  84 110
 182 181 178 180 179 174 153  74  48  33  27  23  21  23  25  28  30  33  37  38  40  43  38  37  35  33  30  25  23  23  23  24  26  26  26  25  26  27  30  29  26  26  24  23  23  22  22  23  20  19  19  18  19  19  21  24  27  30  31  32  35  33  31  32  33  33  30  28  26  26  28  26  26  26  24  24  22  22  21  22  23  22  21  22  24  24  27  32  43  61  94 113
 181 181 182 181 181 174 155  67  44  28  24  24  24  28  34  38  39  39  42  43  40  36  34  29  27  26  26  25  26  25  25  27  28  31  31  32  33  34  35  34  33  35  33  29  26  25  26  25  25  23  23  22  22  24  27  28  30  37  39  40  40  41  40  40  41  39  37  34  34  32  31  30  30  28  27  26  26  24  24  23  24  22  23  23  24  26  27  32  46  71  78  93
 182 183 183 183 179 176 117  52  48  37  35  32  33  38  38  34  32  33  33  32  28  28  28  30  33  30  29  30  32  33  34  34  36  38  38  41  43  47  47  46  45  46  44  43  38  36  34  32  31  30  29  29  30  30  32  37  42  45  46  47  48  49  48  48  47  48  43  39  40  39  39  39  37  34  32  30  30  28  26  25  25  24  23  24  24  26  29  33  45  62  77 104
 184 186 185 185 183 176 123  60  53  41  34  31  36  41  33  32  34  33  31  30  31  32  36  38  34  34  34  35  37  38  40  43  46  46  51  55  59  63  61  57  56  57  56  53  53  50  48  45  43  41  39  38  40  42  44  49  52  53  54  53  59  57  58  57  58  54  51  49  47  47  47  46  46  43  42  39  36  35  30  28  26  25  24  24  25  28  31  35  42  53  80 135
 190 188 189 188 185 179  99  56  45  39  34  30  30  31  35  34  34  33  35  35  38  41  39  36  39  42  45  47  48  50  53  56  64  68  68  72  74  74  72  72  70  69  68  66  64  61  58  56  55  52  50  50  49  52  54  58  59  61  61  62  65  65  65  66  65  64  62  59  54  53  54  52  53  51  51  49  45  44  42  32  28  26  25  25  27  29  32  38  47  95 121 160
 201 200 196 192 197 182  89  49  37  32  29  25  28  28  28  30  34  39  40  40  43  43  42  42  47  51  55  55  59  64  67  72  76  80  84  85  83  81  79  78  78  75  76  73  71  71  70  66  66  63  60  60  60  61  64  66  68  70  70  71  73  74  76  70  69  69  69  67  64  62  60  62  61  60  59  55  54  52  49  40  32  28  27  26  28  30  31  35  46  98 145 160
 207 205 208 208 205 182  77  40  33  32  30  30  30  28  30  34  34  38  39  41  47  48  48  52  56  61  66  69  71  74  77  81  89  89  90  91  88  86  84  83  81  81  81  80  79  76  76  76  73  72  70  69  70  70  69  71  71  74  74  79  81  83  83  77  74  73  74  72  70  70  68  68  67  66  64  64  61  61  58  48  37  30  27  25  25  27  30  35  54  99 146 163
 208 208 209 209 209 186  70  43  34  32  29  30  28  30  34  38  38  42  40  44  51  53  59  65  70  74  76  81  84  87  91  93  97  97  97  97  95  93  92  90  88  85  87  84  84  84  81  82  78  77  74  74  75  75  74  76  77  80  83  87  87  87  86  83  80  77  76  73  72  72  72  71  72  70  70  67  66  67  65  57  44  33  26  26  27  28  29  34  45 102 154 162
 199 200 200 203 204 190  62  46  37  32  30  30  29  33  34  37  39  44  45  50  61  65  71  75  78  84  90  92  94  97 100 103 104 104 105 104 100  97  97  96  93  92  89  90  89  87  86  84  84  83  80  79  82  81  82  83  86  86  89  90  88  88  86  83  83  79  78  78  74  74  74  74  74  72  72  71  71  72  73  67  53  35  29  26  27  26  26  30  38  69 155 169
 190 192 195 196 195 180  74  44  37  32  32  30  31  32  34  37  40  47  50  60  71  77  81  83  86  92  95 100 100 103 108 110 112 111 108 107 105 101 100  98  97  93  92  94  92  89  89  90  88  87  84  84  85  86  86  86  89  92  88  89  91  87  86  84  82  82  82  80  77  77  76  75  76  75  74  74  73  76  78  72  59  42  31  28  27  26  24  26  33  54 136 167
 186 187 188 188 187 177  75  45  36  34  32  31  32  31  34  37  42  48  54  68  77  87  89  90  95  98 102 102 107 108 112 116 116 116 114 112 107 102 102  99  98  95  95  94  93  94  93  95  92  85  82  86  87  87  87  88  91  92  90  91  90  88  88  85  82  81  80  77  77  78  79  78  76  75  77  78  77  77  78  79  68  49  37  28  28  28  27  25  33  40  90 162
 184 186 185 186 184 166  65  43  40  39  37  34  32  32  34  39  45  49  63  75  88  92  95  99 104 106 107 110 113 115 116 120 122 118 116 117 112 109 106 103 100  96  97  97  95  97  97  98  94  88  85  85  89  90  92  91  93  95  95  93  91  89  86  83  81  81  80  79  80  82  82  81  79  77  77  77  78  76  79  80  70  54  42  30  27  28  29  29  28  52  71 153
 181 183 183 183 180 148  69  40  43  40  34  32  30  32  34  41  46  56  69  81  94  97  98 106 108 111 109 112 118 121 122 121 122 120 118 116 114 111 108 105 103 101 102 100  97  96  97  96  95  92  89  90  92  95  97  97  97  96  95  94  90  87  85  84  83  81  82  82  82  82  82  83  84  81  77  78  78  80  78  78  73  63  47  33  28  27  28  29  28  62  98 125
 179 182 183 182 177 154  89  47  40  32  34  32  30  31  35  43  47  61  75  88  96 102  96 107 112 116 116 118 122 124 125 124 125 121 118 117 116 114 112 109 106 104 104 104 102 100  99  97  97  97  96  95  95  97  96  96  96  94  95  93  90  86  87  86  83  84  84  81  83  82  82  83  84  84  80  79  82  81  81  80  74  67  53  36  29  27  28  28  30  56 114 153
 179 180 182 181 178 170  91  51  35  31  32  33  33  33  38  44  51  65  78  91  98  98 100 110 112 116 123 122 122 126 127 126 126 123 120 114 116 116 112 109 111 109 108 108 108 106 105 103 101 102  97  94  98  98  96  95  95  93  94  93  91  89  89  87  89  88  85  81  81  84  84  83  85  83  80  80  85  82  81  78  74  68  57  39  28  28  28  28  30  52 132 165
 179 179 181 181 178 165 104  48  37  37  34  31  32  35  38  46  54  66  82  92  97 103 103 109 112 117 120 121 122 124 125 125 124 123 121 116 112 116 114 112 112 112 112 109 107 108 107 108 107 106 103 102 103 102 104 101 101  97  97  98  95  92  93  92  93  92  90  87  83  87  86  86  85  84  84  82  85  85  81  80  73  69  59  42  30  27  27  28  31  75 152 164
 179 180 180 181 180 171 127  46  39  35  32  30  31  34  41  48  54  69  82  92 100 106 103 105 111 116 118 122 123 124 125 125 125 124 121 118 114 117 117 115 116 116 116 113 110 111 113 112 111 106 104 103 104 104 105 106 105 100  98  98  92  92  93  96  97  96  92  89  88  90  89  89  88  86  87  86  86  86  84  82  75  69  61  44  31  26  26  28  33  79 157 169
 179 178 180 179 178 175 141  59  39  35  32  31  32  35  41  49  59  78  89  95 101 106 106 102 108 118 120 121 124 127 128 126 126 124 122 122 121 123 120 119 120 117 117 115 116 117 115 113 110 109 107 104 107 109 108 108 106 102 101  92  89  91  95  98  99  98  97  92  91  94  95  93  92  90  86  89  88  88  87  86  78  71  64  48  31  26  25  29  38  78 154 172
 177 176 179 177 178 178 163  83  41  36  31  32  32  34  41  52  64  84  94 101 105 108 110 110 113 117 122 125 125 127 130 130 130 131 130 128 125 123 121 123 124 121 122 122 121 118 117 115 113 111 107 107 108 110 110 110 105 102 101  99  94  97 101 102 103 102 102  98  99 100  99  98  97  96  93  92  90  89  88  83  81  75  66  54  33  28  25  27  46 107 157 174
 176 176 177 179 178 177 173 110  43  34  31  30  31  35  45  58  69  84  96 103 108 113 113 116 117 122 127 126 127 127 124 126 130 130 132 128 124 114 116 122 124 125 124 126 126 122 119 116 114 112 111 108 108 110 110 107 109 109 106 106 107 106 106 108 108 108 106 106 106 104 102 100  99  99  94  92  90  88  84  83  82  75  69  58  36  27  26  32  47 148 165 175
 177 176 176 178 178 176 173 126  45  34  31  30  31  34  46  58  74  89 100 103 109 111 112 116 121 124 126 127 126 126 122 125 131 130 131 130 120  95 102 115 124 123 125 126 126 123 122 118 116 115 111 111 111 110 112 110 112 113 110 111 112 112 111 112 113 112 112 110 106 107 106 105 103 100  97  94  92  90  81  78  78  76  73  60  40  27  24  31  55 159 171 176
 176 177 175 175 177 177 173 124  52  35  30  30  32  36  44  58  75  91  99 106 113 112 115 118 119 121 123 127 127 127 129 129 132 131 131 133 129 118 114 120 123 125 124 125 120 121 123 117 115 113 113 114 113 115 115 117 119 117 115 115 115 113 115 119 115 116 113 112 111 111 109 105 105  99  97  97  95  90  85  78  77  75  74  65  43  29  25  30  55 161 175 177
 177 178 176 176 178 178 174 137  59  37  30  31  32  35  42  60  76  91 102 109 114 114 116 116 119 119 120 127 128 130 131 132 133 134 133 133 132 130 130 128 127 127 124 123 119 120 121 118 117 115 114 113 113 114 117 119 120 118 116 115 115 114 118 118 118 118 116 111 111 110 105 104 102  97  93  96  97  92  88  81  77  77  75  67  47  29  25  32  76 171 176 177
 178 178 179 177 178 178 176 160  86  42  32  33  34  35  43  64  81  94 104 108 111 113 114 116 119 122 122 123 126 127 130 131 133 132 134 133 133 134 133 130 128 127 125 121 119 122 118 120 120 116 115 116 111 115 118 121 123 119 113 114 114 116 118 117 120 116 112 109 107 106  97  99  98  98  93  92  91  90  89  83  78  76  73  67  45  28  26  31 112 171 177 178
 177 178 178 177 178 177 178 170 116  46  37  36  35  33  46  66  86  97 108 111 111 112 114 116 119 123 125 124 124 129 132 133 134 133 132 134 133 134 132 130 128 126 123 119 124 122 119 116 115 115 118 116 116 118 118 120 121 118 114 113 114 119 119 120 116 109 109 108 105 104  93  92  94  93  92  91  90  88  86  82  81  73  70  72  50  27  26  35 134 172 177 176
 176 176 177 177 177 178 177 174 138  53  39  35  34  33  47  74  92 102 110 111 112 112 114 116 120 125 127 129 130 132 130 131 132 130 129 132 130 131 129 126 126 123 123 121 122 119 115 115 116 115 114 116 115 117 119 118 116 115 115 113 115 114 115 113 110 107  98  96  96  93  87  86  85  83  84  84  86  79  80  80  83  78  74  74  54  28  26  46 146 174 176 177
 178 178 179 178 177 178 178 175 163  77  42  34  34  33  52  82  95 104 110 110 107 112 112 117 122 126 129 129 128 122 123 125 125 121 118 122 123 127 122 118 118 119 121 120 117 117 115 114 115 114 115 113 112 114 115 111 110 111 110 112 111 109 110 109 104  94  93  90  88  82  77  72  66  67  66  64  61  61  62  61  75  75  73  74  56  29  31  74 155 176 178 178
 178 178 178 178 177 178 179 176 172 126  47  37  33  36  59  87  98 106 108 107 110 114 116 119 123 121 118 117 106 108 112 111 111 113 113 112 108 114 115 112 111 113 112 114 114 114 113 111 113 113 113 111 111 110 110 108 111 109 106 104 100  94  97  97  92  90  84  78  74  69  64  57  52  49  47  46  44  44  46  47  48  56  63  71  57  30  32 123 166 177 178 178
 179 180 179 179 179 178 178 178 178 163  64  39  33  38  67  90 100 108 106 107 109 113 115 115 112 101  92  89  90  98 100  95  96 101 101 101 103 105 106 104 106 109 105 105 105 104 106 112 108 109 110 107 107 107 107 105 110 103 101  98  91  86  88  86  81  74  66  59  56  51  41  39  36  35  33  30  30  31  35  35  39  42  47  62  61  35  45 154 173 176 176 177
 179 179 179 179 178 179 179 179 179 169 100  40  36  41  73  96 105 108 110 110 108 105 103  86  72  62  60  57  67  78  78  76  78  86  88  85  87  89  91  96  95  96  98 101 101  97  95  98 100 101 104 105 105 104 106 102 105  99  93  91  83  76  72  64  57  53  51  42  39  34  32  28  28  28  28  26  27  28  29  31  34  36  40  52  60  39  88 169 176 177 178 177
 180 179 179 179 179 180 181 182 180 177 127  42  38  40  77 101 107 111 110 107  96  84  70  55  58  51  52  52  54  55  51  52  59  68  62  62  62  69  71  72  78  79  84  86  81  83  89  90  90  97  97  96  98 100  97  96  99  95  87  81  71  65  52  48  36  34  33  32  31  28  26  25  25  25  25  24  25  24  25  25  27  30  36  45  55  39 137 173 177 178 178 177
 180 178 180 182 181 180 182 183 181 178 152  47  41  40  81 107 111 111 109 104  87  75  64  55  49  47  46  46  42  39  38  39  40  42  40  42  42  41  42  39  44  50  57  63  68  72  74  81  82  87  88  90  89  90  88  89  93  90  80  62  61  50  40  31  26  24  24  21  21  23  22  21  22  21  21  20  22  21  24  23  25  29  36  46  56  57 156 175 177 179 178 178
 180 179 178 179 181 181 182 182 180 180 172  72  44  45  86 112 111 109 102  89  77  64  52  43  39  38  40  38  36  34  32  31  30  29  29  28  28  27  29  28  29  30  35  42  46  53  62  70  75  80  81  87  88  85  84  83  86  81  75  55  48  40  32  24  21  20  18  17  17  18  17  16  17  18  19  19  21  20  22  26  29  32  37  46  57  54 145 175 178 179 179 178
 179 179 179 181 183 183 181 181 182 179 173 107  41  47  89 112 109 103  96  78  64  55  48  42  35  32  30  30  30  30  28  27  27  25  24  23  23  21  21  23  22  24  26  27  32  39  52  58  69  72  78  82  83  82  78  75  77  74  62  49  40  31  25  21  20  18  17  15  16  16  19  19  22  24  26  28  29  28  29  30  32  34  39  49  58  41  72 166 174 177 177 178
 180 181 181 181 181 181 182 181 181 180 172 154  42  45  81 108 109 101  82  69  58  49  46  42  40  36  34  29  28  26  25  24  23  21  20  18  19  19  19  19  20  21  23  23  25  30  38  48  57  64  74  75  78  80  77  74  71  66  51  42  38  28  23  22  18  18  17  18  19  20  22  22  23  25  26  28  32  32  36  37  39  42  45  47  53  30  22  30  84 130 173 176
 179 180 181 180 183 182 182 180 174 156 161 138  71  47  53  86  88  86  77  70  63  55  56  54  49  44  44  41  38  35  34  32  32  32  31  28  25  21  19  20  20  23  22  21  27  27  31  39  44  56  66  72  75  76  72  71  67  59  44  36  30  25  24  23  23  22  19  19  18  19  20  21  22  23  25  24  29  29  28  30  31  31  32  34  38  30  37  42  46  49  53 106
 182 180 183 180 184 181 184 180 154 134 134 122  86  48  43  43  40  40  38  34  29  27  23  24  27  35  39  39  40  37  36  37  35  31  30  29  30  32  32  34  31  31  31  30  30  29  30  35  43  47  61  70  74  71  66  62  60  49  38  31  28  27  28  26  22  19  21  25  27  29  27  26  23  22  21  22  24  26  28  29  27  31  29  24  23  21  22  23  27  29  36  41
 179 181 182 181 183 183 183 179 132  91 110 101  72  25  27  26  26  26  25  33  47  58  72  70  66  63  58  52  45  42  41  42  47  46  41  40  40  40  40  37  33  30  26  25  27  29  30  33  38  42  53  66  71  67  62  58  51  42  35  30  29  28  29  28  26  27  26  21  20  22  26  26  31  35  32  31  35  33  34  38  43  54  59  58  48  43  40  33  24  24  23  23
 179 182 182 183 182 184 182 181 140  80  86  88  64  27  26  25  24  26  57  73  68  72  69  65  56  50  43  34  37  44  36  32  31  29  28  27  29  30  31  28  27  28  34  38  36  29  21  21  22  25  32  39  50  52  52  47  40  33  27  25  25  23  22  19  20  22  23  22  21  20  17  18  27  37  32  24  22  25  27  32  40  50  55  55  51  52  28  36  40  24  22  23
 180 180 182 183 182 184 183 183 148  82  72  93  68  29  25  24  24  48  72  73  71  72  65  57  50  42  32  39  38  31  36  51  37  30  27  27  27  30  35  24  26  28  29  35  39  41  41  30  20  20  23  22  25  27  24  23  20  18  18  18  18  17  20  25  25  26  20  16  16  19  17  18  21  38  39  32  27  20  24  29  38  49  57  62  65 165 145  86  44  38  23  24
 183 184 182 184 183 183 183 182 151  82  73  99  73  28  26  25  27  68  76  75  72  70  61  52  44  36  35  35  28  39  59  59  36  50  28  27  26  28  35  38  30  29  32  33  37  40  40  45  34  21  22  21  26  24  19  17  17  16  17  18  18  25  27  25  26  32  22  17  16  18  16  18  20  35  42  37  34  27  24  26  36  49  57  68  67 159 171 171 162  48  25  24
 181 182 182 183 183 182 183 181 155  85  83 105  81  26  26  25  28  89  86  78  73  67  57  49  42  36  35  31  37  52  65  52  29  30  29  27  25  27  33  43  39  36  32  36  37  39  40  44  49  24  22  21  26  23  18  16  17  16  16  18  26  28  25  25  29  35  26  18  19  19  16  21  22  39  45  41  35  31  28  31  38  48  59  73  74 159 173 171 170  82  30  25
 180 181 180 183 184 182 182 180 161  92 100 111  99  49  27  26  32 107  98  88  77  69  57  48  41  33  33  39  46  62  72  56  30  28  31  28  27  29  38  48  41  38  33  37  41  41  44  48  52  35  22  21  25  22  18  17  17  16  18  21  30  29  25  25  29  35  34  21  20  20  19  20  28  43  46  41  35  34  34  37  44  52  65  77  87 157 171 173 170  90  33  21
 182 182 181 184 182 180 183 181 166 104 116 110  97  59  53  27  37 113 107  98  87  75  62  49  42  38  39  45  49  58  67  64  35  30  29  29  30  31  49  51  43  37  36  42  40  49  52  52  55  37  22  21  20  20  20  17  17  16  17  25  34  27  24  24  27  30  37  34  23  22  20  29  43  46  43  40  36  39  41  43  49  58  68  78  99 158 172 172 170  88  33  61
 179 181 183 183 182 182 181 180 175 116 112  96  87  64  95  25  37 114 109 105  95  87  74  60  53  49  48  48  50  53  59  68  62  36  31  29  32  48  58  47  39  34  36  39  45  55  60  58  58  37  20  20  28  37  37  30  21  17  17  27  34  32  30  30  30  30  33  37  38  38  39  43  45  46  45  40  38  40  43  49  56  63  72  78 102 154 170 171 171  77  32 110
 178 178 181 183 182 181 182 179 177 155 104  82  73  74 114  36  32 112 112 109 105  97  89  76  69  61  58  56  52  51  59  68  68  63  54  48  53  55  53  51  46  43  45  50  53  58  66  62  63  32  20  28  51  72  72  58  36  19  17  28  37  36  35  34  32  32  33  35  36  37  38  40  38  34  34  41  41  42  48  53  60  67  75  79 102 157 169 171 166  66  29 154
 180 179 180 180 181 180 181 180 179 160 100  72  68  74 119  59  31 103 114 111 108 106  97  88  77  73  68  64  59  51  52  56  56  58  56  54  52  49  48  47  46  44  46  51  56  66  69  65  59  25  19  50 108 118 110  96  67  24  19  28  40  39  36  36  34  33  34  34  35  36  35  39  40  41  39  42  45  46  51  57  64  70  74  79  96 154 169 170 159  56  55 169
 179 179 180 180 182 182 181 180 179 160 102  72  64  74 120  87  30  82 113 111 110 109 104  98  87  80  75  71  64  61  57  55  49  51  51  47  46  45  45  42  41  44  49  54  62  71  70  65  50  23  33 115 133 136 132 126 106  37  18  26  42  41  38  38  37  36  36  37  38  40  42  45  45  44  45  45  48  50  54  61  65  72  77  78  92 149 168 169 146  46 100 170
 178 180 180 180 180 179 180 180 179 173 114  84  70  81 115 108  28  60 114 111 113 114 112 107 100  91  82  76  70  66  63  63  58  60  58  55  54  49  47  44  45  48  52  59  70  74  71  67  40  19  92 141 147 149 145 142 131  77  18  21  41  44  44  42  40  38  38  38  40  42  43  44  45  47  47  49  49  53  59  63  67  73  78  81  91 146 167 168 132  40 153 171
 178 180 179 179 179 177 178 179 180 177 137 105  77  81 112 120  47  38 110 111 113 116 114 111 108  98  88  81  74  69  67  66  67  66  61  58  52  51  50  49  51  53  56  64  74  77  76  64  28  27 117 145 151 151 148 142 135 101  31  18  40  48  47  44  42  41  40  38  39  42  44  46  48  48  49  49  52  57  63  69  72  76  79  78  90 150 167 167 113  72 168 172
 178 179 180 179 180 179 179 179 179 177 160 128  94  78 106 119  77  30  83 109 112 113 112 111 108 103  93  87  80  76  73  70  69  67  65  60  56  56  58  57  59  63  70  77  82  82  79  47  23  54 122 142 149 153 146 139 128 103  58  18  30  54  50  48  44  43  43  40  41  43  46  48  50  50  51  51  55  59  64  70  72  76  76  75  90 152 167 164  70 125 170 172
 179 180 178 178 180 180 180 179 180 177 163 127 124 101 108 118 109  31  49 109 110 110 109 112 110 107 102  95  91  87  81  77  79  80  76  71  69  67  66  67  72  78  85  91  91  89  59  33  23  94 125 141 147 148 146 138 123 104  80  23  21  51  57  55  50  48  45  45  44  44  47  50  50  53  55  56  60  64  70  73  76  75  76  74  94 157 162 122  60 163 170 172
 179 179 179 179 179 179 180 180 179 178 165 126 123 135 120 119 117  62  33  82 112 109 113 117 116 114 106  98  96  96  87  83  84  85  82  81  78  75  74  79  87  96  98 101  98  79  42  25  44 112 128 140 146 148 148 141 125 106  84  45  18  39  57  62  58  58  56  54  51  50  52  54  53  56  59  61  64  68  73  76  78  77  76  75 101 158 127  55 122 167 170 172
 179 179 180 180 180 180 179 179 178 179 166 134 128 144 130 119 118 109  33  40 102 111 114 117 119 118 112 106 100 101  95  90  89  88  86  86  86  84  87  91 101 107 108 106  94  51  32  24  77 114 124 138 147 150 147 140 125 107  84  65  22  22  52  60  64  64  63  61  60  60  60  59  60  61  63  66  70  76  79  80  78  76  75  73 105 117  61  70 165 169 171 171
 180 180 180 180 180 181 180 181 180 179 173 146 142 134 128 123 118 117  92  33  52 100 112 117 119 117 113 112 109 106 102  98  98  95  96  98  97  99 104 107 111 111 105  97  56  42  29  43 107 118 123 137 149 152 148 136 124 109  88  73  45  15  36  55  63  64  66  66  67  67  66  65  67  69  69  73  78  80  81  81  78  75  70  68  60  55  34 135 167 169 169 170
 182 183 182 183 182 181 181 182 181 180 176 154 148 122 108 115 118 118 115  90  34  43  72 102 110 116 115 112 109 105 102 103 101 102 102 105 106 107 109 110 109 105  80  49  48  32  41  74 114 120 123 135 148 152 147 131 124 110  92  81  60  26  18  41  54  63  68  69  68  70  70  70  72  75  76  78  80  80  78  78  70  60  45  37  32  35  79 136 167 170 169 170
 185 184 183 184 182 183 184 183 183 181 178 158 147 122 111 115 119 119 117 112 101  62  32  39  59  69  78  84  92  91  91  99 100 101 102 104 104 100  93  80  65  44  42  44  32  52  57  99 117 120 121 131 146 152 148 134 123 109  95  83  69  45  24  21  37  40  49  59  69  72  70  72  74  76  74  72  60  58  50  45  39  31  26  25  47  80  90 136 167 169 169 169
 184 184 184 185 184 185 186 184 186 184 178 154 143 132 127 124 118 116 115 108 112 111 104  78  48  34  33  44  49  54  54  55  52  54  54  51  44  38  39  41  40  33  27  45  73  63  80 110 118 120 123 131 144 152 147 136 120 109  95  85  74  57  42  36  19  26  34  40  45  47  48  47  46  42  41  39  36  33  29  25  26  39  52  69  79  83  90 160 168 170 170 169
 185 185 185 185 185 187 185 187 187 184 179 149 143 141 135 129 117 114 114 111 113 112 111 109 110 107  94  70  58  48  37  35  29  30  29  29  31  29  29  39  48  65  87  86  71  71  96 114 119 121 126 134 145 152 146 136 120 108  97  88  80  65  52  49  52  39  30  24  23  26  26  27  28  24  24  29  35  43  51  64  71  69  69  75  78  79 131 166 168 169 169 168
 184 183 184 185 188 187 187 186 187 184 182 159 130 134 133 132 120 112 113 111 110 110 112 109 112 110 109 109 107 103 100  97  90  88  84  86  89  93  98  96  93  92  87  78  70  82 106 115 119 123 128 135 142 146 142 137 123 111 102  94  83  68  57  54  54  59  60  60  58  59  59  60  61  67  71  77  76  78  77  75  73  72  70  76  72 106 164 168 169 168 168 168
 184 185 184 186 185 186 185 185 184 184 183 181 134 122 125 123 118 112 112 111 106 108 112 111 110 107 110 113 111 109 104 102  99  97  99  97  98  97  97  97  93  88  77  72  76  93 108 112 118 126 132 139 145 146 144 136 123 116 107  97  83  69  60  58  56  58  58  61  63  67  69  71  71  74  74  75  74  76  74  73  71  71  71  83 119 161 167 168 169 168 168 168
 183 184 183 183 184 185 184 184 184 184 184 181 174 119 107 108 107 111 111 111 108 108 109 112 106 104 110 112 112 112 109 107 105 105 106 101 101 102  98  95  91  86  78  75  83  97 107 110 116 123 130 140 146 147 141 133 123 120 109  97  83  67  60  59  58  56  57  61  64  68  70  70  74  75  76  73  76  74  73  71  70  70  75 110 162 168 168 168 169 169 169 168
 184 183 183 182 184 183 183 182 182 182 183 184 182 165 107  89  90 113 108 110 109 109 107 105 103 106 109 110 109 111 112 111 110 108 108 106 100 102  99  95  92  90  84  83  88  98 104 108 114 123 130 135 145 144 140 132 126 121 109  96  82  71  60  61  61  56  57  62  63  65  70  70  72  75  76  74  74  74  72  70  70  71  77 131 164 168 168 168 168 169 169 168
 183 182 182 182 182 184 182 181 183 183 183 182 182 180 174 152 142 124 108 106 107 106 106 102 100 103 105 105 107 108 107 110 111 110 106 105 104 100 100  97  95  92  91  90  92 101 101 105 112 122 130 136 143 144 137 133 127 121 110  94  84  79  62  61  61  58  60  64  64  65  69  72  74  75  74  74  73  70  66  68  70  73  82 154 167 168 169 168 167 168 169 169
 182 183 183 182 181 182 182 180 181 182 182 181 182 181 180 179 172 135 109 106 105 104 104 101 100 100 102 101 102 105 106 109 111 112 109 107 105 105 104  99  98  98  94  91  94 105 108 108 112 123 131 139 145 141 136 130 127 121 110  94  86  86  80  62  63  62  63  67  69  69  71  73  75  75  74  74  72  68  65  66  70  73  99 162 168 168 169 169 168 168 168 169
 180 181 181 181 180 181 182 180 181 181 181 180 181 181 180 179 177 149 114 105 103 102 100 101 101 102 101 101 103 106 107 109 112 113 110 110 106 107 103 101 100  99  96  90  96 111 112 112 116 125 132 138 143 138 135 131 125 120 110  98  87  89  88  75  63  64  65  69  69  71  72  76  80  79  78  75  72  68  66  68  71  76 120 165 168 168 170 169 168 169 169 169
 180 179 180 181 181 181 180 179 180 180 180 181 180 179 179 178 177 159 114 106 103 101 100 100 101 103 100 102 105 108 109 110 113 112 111 109 108 108 102 101 102  98  94  91  97 114 116 114 118 127 133 136 136 135 129 125 122 116 108 101  92  90  90  89  70  63  66  69  72  71  71  73  77  81  79  76  73  66  65  67  71  79 134 169 169 168 169 169 168 168 168 168
 178 177 178 179 178 180 179 178 179 180 179 180 178 177 176 176 174 164 119 106 102 103 101 101 100  99 101 100 102 105 107 109 112 112 111 110 108 105 104 101 100  99  97  94 101 118 114 116 120 129 129 132 130 130 126 121 117 112 105  97  92  92  94  94  81  68  70  71  72  72  72  75  79  82  79  78  73  70  66  68  73  84 151 168 169 169 170 169 167 169 168 168
 177 178 177 179 179 180 178 178 179 178 178 178 176 175 174 174 174 166 130 108 103 102 102  99  99  98 101 102 103 104 106 109 108 108 112 109 108 107 106 103 102 103 100  95 105 117 115 115 122 126 129 129 127 126 118 116 113 107 100  93  92  92  92  91  88  72  74  75  73  73  74  74  77  79  76  75  73  69  68  70  74  98 158 167 169 169 168 169 168 167 168 166
 178 176 177 178 179 177 177 177 178 177 179 176 174 173 172 171 173 168 141 110 106 102 101  99  98 100 101 100 102 104 104 106 108 109 110 110 109 109 107 109 110 108 104  98 108 114 112 110 117 122 126 127 123 121 114 112 108 104  93  90  88  88  87  84  82  74  78  81  82  80  78  75  74  77  77  77  74  72  72  72  75 121 165 169 169 168 168 167 168 168 167 166
 175 175 176 176 175 176 176 176 177 176 176 175 174 173 170 170 168 169 150 111 104 100 101  96 100 102 101  99 101 103 106 107 111 112 112 114 112 112 110 111 112 110 106 100 103 108 106 101 104 112 116 116 118 115 111 107 104  99  89  84  78  76  75  74  71  72  79  82  82  83  82  80  74  73  76  78  76  73  72  73  79 137 165 168 168 168 167 166 166 167 168 167
 173 172 173 172 173 173 174 174 174 174 173 174 171 170 169 170 168 167 159 116 104 104 103  99 101 100  99  99 101 104 107 112 113 114 114 115 114 110 112 112 115 113 109 100  94  92  88  85  86  87  97 103 104 105 104 103  99  93  86  74  65  60  62  61  62  69  72  79  83  82  81  82  72  70  74  76  74  73  72  72  84 155 166 167 168 169 168 168 167 165 165 164
 170 170 171 170 170 170 172 170 172 171 171 169 169 169 168 169 169 168 164 126 105 100 101 102 102 101 101 100 100 103 106 109 114 116 116 116 115 113 112 112 114 114 113 104  95  86  71  59  59  63  73  85  90  91  91  91  92  86  77  64  50  43  44  46  52  64  71  74  78  79  81  79  75  74  76  75  73  73  71  73 101 161 166 168 169 168 168 166 167 165 165 165
 169 169 169 170 171 170 170 170 169 169 169 168 167 167 167 166 167 167 164 138 106 103 102 100  99  97 100 101 102 105 108 110 115 118 116 115 114 112 112 112 113 113 110 108  98  90  78  66  58  58  60  74  81  79  80  82  81  76  67  54  40  39  39  42  49  59  68  70  73  74  77  77  76  76  74  73  73  72  70  74 114 161 166 166 167 168 167 165 167 164 165 164
 167 168 169 169 170 169 169 170 169 168 167 168 168 166 167 165 166 166 164 149 104 101 102 102  98  98  99 101 102 104 108 112 114 116 116 115 115 112 112 112 112 111 109 102  97  87  78  73  62  63  65  66  75  73  70  69  67  65  59  44  37  37  35  38  43  51  61  67  66  67  67  71  72  74  72  70  72  71  71  77 137 163 165 167 165 166 166 166 165 164 164 164
 170 168 168 168 168 167 168 168 169 167 167 166 167 166 167 166 165 163 163 159 115 100 102  99  96  99  97 100 102 105 107 112 114 114 114 114 111 110 110 110 108 109 104  95  94  85  70  65  59  60  63  62  63  66  61  57  55  52  46  37  29  28  28  32  37  48  52  57  55  52  52  57  65  69  68  68  70  71  71  88 154 163 165 167 166 165 166 164 164 164 163 163
 168 167 166 167 166 168 167 166 166 166 167 166 166 166 165 165 163 163 162 159 132  99  99  99  96  97  95  97 101 105 107 110 112 113 114 109 102 104  98  97  99  99  94  85  82  78  60  47  43  43  51  55  55  56  53  48  44  38  32  28  24  22  21  25  29  40  45  45  43  36  37  40  49  57  60  65  68  71  73 110 156 162 164 165 165 164 165 164 164 163 162 162
 167 167 167 166 166 167 166 167 166 165 165 164 164 164 163 162 162 162 161 159 147  99  97  96  95  94  97  96 100 102 104 107 108 108 106 103  97  92  85  81  81  85  82  72  63  62  51  37  33  33  38  41  40  43  42  41  37  28  26  23  19  20  20  20  25  28  33  32  31  28  26  29  35  44  51  61  68  71  76 141 158 160 165 165 164 165 164 162 162 163 163 164
 164 166 166 165 166 165 164 164 164 164 163 164 162 163 163 160 159 159 159 158 155 115  95  94  95  95  97  97  96  99 101 103 104 102  96  87  78  72  64  63  69  73  70  60  51  49  43  31  26  26  29  30  27  29  32  31  30  21  22  22  18  17  18  18  23  23  27  26  23  23  21  24  28  35  45  59  67  71  99 157 160 163 162 164 163 162 162 161 163 162 161 161
 165 163 163 163 163 163 162 163 162 162 163 162 159 160 160 161 159 159 158 158 156 137  96  93  92  93  95  93  94  97  99 100 101  97  84  66  54  50  47  43  53  56  56  46  44  41  37  26  22  22  24  23  19  22  22  23  22  18  16  19  18  17  17  19  24  21  24  24  20  19  19  20  24  28  38  54  68  75 136 157 159 162 162 162 161 163 163 160 163 160 159 159
 163 162 164 163 162 161 161 161 162 163 161 160 160 159 160 158 159 158 158 157 156 151 105  92  90  90  92  92  95  94  96  95  94  86  68  48  39  34  36  31  38  42  40  39  36  35  29  25  23  23  21  20  19  18  18  18  18  16  16  19  19  19  18  18  22  22  22  23  20  18  19  20  23  27  36  50  69  90 150 158 159 159 162 161 162 162 162 161 161 161 159 159
 162 162 164 164 163 163 164 164 162 162 163 161 160 161 159 159 159 159 158 159 158 156 129  90  87  89  90  90  94  92  92  92  87  71  49  36  30  29  28  26  28  31  33  36  34  34  30  25  24  22  21  20  19  17  14  16  16  17  19  20  22  23  22  23  23  22  25  24  24  24  23  24  27  31  40  56  71 126 154 158 159 158 159 159 160 159 161 160 160 160 158 158
 161 164 165 164 162 163 164 163 161 163 161 160 160 160 159 159 160 159 157 159 158 156 151  96  87  86  87  89  90  89  90  86  83  59  40  33  26  24  21  23  24  28  32  36  35  34  33  28  24  22  22  20  17  16  16  17  19  19  19  24  25  28  28  26  27  27  26  26  34  37  35  34  36  43  53  64  85 152 156 157 158 158 159 158 159 160 159 158 158 158 158 157
 161 162 164 164 163 162 161 162 161 161 161 162 160 160 159 159 159 159 159 157 156 153 151 129  82  82  82  85  88  86  86  84  81  57  39  30  26  21  19  22  23  26  28  33  36  34  37  33  25  24  26  21  18  19  19  21  27  33  25  28  29  30  31  28  28  27  30  38  43  45  44  40  43  49  58  68 114 153 156 156 157 158 159 158 159 158 158 157 158 158 158 156
 160 161 161 161 162 161 161 160 160 160 159 160 159 158 158 159 158 155 155 152 151 152 150 147 105  81  82  82  85  84  84  85  78  69  49  36  30  28  29  35  37  36  32  33  38  35  38  36  32  28  30  27  24  27  28  31  37  40  32  29  29  28  28  30  30  33  38  45  49  51  49  48  48  52  59  79 144 155 156 156 156 157 158 158 158 158 157 156 157 156 157 157
 159 159 158 160 160 160 160 160 158 158 159 159 159 158 157 154 152 152 151 149 148 146 147 144 141  97  80  80  82  85  83  80  78  74  61  50  40  42  46  53  56  55  50  43  41  41  38  34  33  33  30  28  27  32  34  37  36  33  29  30  28  30  32  35  37  40  44  50  53  52  50  46  48  53  61 101 148 153 154 155 155 156 157 157 157 157 157 156 156 156 155 154
 160 160 160 159 158 158 159 159 158 158 158 157 156 156 152 151 150 148 139 124 113 108  94  87  81  87  83  77  78  78  79  79  78  76  70  62  52  54  63  67  70  70  69  60  51  49  47  46  46  45  38  34  32  31  34  34  32  33  34  37  38  37  38  40  40  47  49  52  51  51  49  45  48  52  58  72 102 116 139 151 152 153 155 156 156 154 156 156 156 155 154 154
 157 157 158 158 158 159 158 158 158 157 155 155 152 151 145 131 106  87  70  63  64  62  54  54  56  75  89  78  74  71  73  75  77  76  72  69  58  62  69  73  75  75  77  74  64  56  52  50  51  53  50  45  44  42  42  40  39  41  42  41  41  39  39  42  45  50  48  50  48  48  46  47  49  51  49  48  53  53  57  63  86 119 145 152 153 153 155 155 154 154 154 152
 157 156 157 158 158 158 157 156 155 153 152 149 140 113  87  72  66  62  56  50  47  46  40  39  42  65  92  79  77  73  71  72  76  75  74  69  63  65  68  71  75  74  75  77  74  67  58  53  50  50  49  48  47  47  48  44  45  47  45  42  40  37  40  45  46  47  48  46  44  44  44  44  47  50  40  39  39  38  43  45  48  50  53  87 123 151 153 154 154 153 153 152
 156 157 154 156 157 156 156 155 152 148 145 116  83  70  63  58  53  46  44  40  37  33  31  33  66  94  97  86  80  78  73  71  73  72  72  70  63  66  66  70  72  72  73  75  74  71  64  60  56  50  48  46  46  46  45  44  43  45  40  39  38  37  42  44  45  47  49  44  43  43  45  48  48  46  33  33  34  36  36  40  39  39  42  48  48  71 117 150 152 151 151 150
 154 152 151 151 153 154 151 149 144 125  94  75  66  63  60  52  41  38  32  31  27  25  42  77  87  69 101  93  85  85  76  71  70  69  70  70  68  62  60  64  66  70  69  70  70  68  62  60  58  52  47  42  41  38  38  38  37  38  35  35  35  36  36  39  43  46  49  44  45  44  45  47  49  40  24  26  27  31  32  33  34  34  38  39  41  45  48  75 135 148 148 150
 149 149 149 146 147 149 147 142 106  77  67  62  59  54  47  38  29  27  37  50  55  73  79  90  68  71 101  95  92  90  84  75  69  71  70  73  71  66  64  63  64  68  66  65  65  66  61  56  51  49  44  41  36  31  28  28  26  27  26  26  27  30  38  42  46  48  47  47  47  46  47  48  48  53  46  29  20  19  21  22  25  29  31  33  36  39  42  46  49 111 147 147
 146 146 145 146 146 146 132  93  71  68  65  54  42  37  31  33  49  60  59  63  80  76  88  84  50 114 103  98  94  93  87  82  75  72  72  74  68  68  64  60  60  65  66  61  59  64  63  57  53  46  41  38  28  21  19  18  18  19  20  20  24  30  42  47  50  51  49  49  46  47  49  45  45  47  50  49  53  46  38  28  19  23  27  30  31  33  38  42  45  47  89 143
 145 146 146 144 144 123  81  73  68  63  53  39  28  35  57  67  65  64  70  85  76  87  89  72  77 124 108  99  96  95  92  86  80  71  73  75  69  70  70  63  65  65  66  66  65  66  63  58  58  53  47  41  29  23  18  16  15  16  19  24  24  33  47  52  53  54  53  52  50  50  46  42  49  43  47  48  41  52  53  51  52  37  22  23  27  28  32  37  39  44  44  74
 143 144 142 123  96  78  72  64  58  54  40  30  53  69  73  73  62  63  81  78  76  83  82  57 105 122 107 100  99  96  94  92  85  80  73  72  75  75  74  73  69  65  70  72  70  70  66  64  61  59  54  45  34  27  19  17  15  18  19  24  30  35  50  53  55  53  50  50  50  51  46  42  53  39  50  46  45  38  44  59  63  59  58  43  26  24  28  33  36  40  44  43
 137 116  94  79  74  67  69  58  55  44  37  72  70  75  71  51  60  77  84  73  78  84  78  48 125 117 106 103 101  99  96  93  90  85  75  64  66  71  75  77  79  72  73  80  78  74  71  70  67  61  56  48  36  30  25  23  17  22  25  24  28  38  49  54  54  51  49  50  44  41  42  47  59  32  43  42  48  38  36  42  59  83  86  73  66  41  26  28  34  36  40  42
  86  76  79  70  66  64  67  54  48  38  90  81  69  62  44  55  69  78  83  82  87  83  73  54 130 118 105 100 101 101  97  94  91  89  85  69  59  65  66  79  82  74  75  82  83  79  78  76  76  65  58  47  40  34  28  25  25  27  35  32  29  37  45  50  50  47  44  47  44  38  33  51  61  31  42  43  45  47  33  33  41  51  63  89  93  77  62  28  27  31  37  36
  77  68  61  66  59  67  66  42  41  97  98  92  53  37  43  71  73  84  79  88  84  80  63  70 129 115 106 104 103 103  99  96  92  89  87  79  64  62  68  78  76  79  82  80  86  82  77  73  73  61  59  57  43  40  32  26  30  32  37  36  34  31  38  40  40  41  44  39  35  30  28  53  62  32  34  39  37  45  44  32  35  41  45  43  54  90  84  73  38  25  31  34
  65  61  65  65  65  65  45  41 115 101 114  87  36  35  64  67  79  82  73  83  82  75  54  84 127 115 106 106 105 104 100  98  92  89  88  82  66  60  61  70  70  77  70  72  80  81  65  62  60  52  58  67  50  44  31  30  36  38  37  38  35  30  32  33  34  32  40  33  28  23  29  56  63  44  29  40  38  42  48  41  30  32  37  43  39  57  85  91  81  56  23  33
  59  64  64  67  59  47  40 129 112 123 101  91  33  54  69  62  85  80  79  77  75  70  55  94 126 114 105 105 107 104 102  97  94  90  85  79  69  61  58  57  56  58  62  65  67  61  45  47  46  50  58  68  57  46  34  34  39  39  39  35  36  31  31  32  29  26  28  27  24  22  39  54  63  55  24  39  36  37  42  48  37  28  31  38  38  40  63  81 105  94  77  26
  60  60  69  65  56  40 120 128 148 109 112  72  42  69  55  71  84  72  76  72  74  74  54 100 124 114 107 105 107 104 103  98  95  92  89  84  68  55  50  39  40  50  50  56  61  52  39  36  42  45  57  59  54  48  37  35  37  35  37  33  31  28  28  27  28  23  21  23  18  26  46  55  63  62  26  36  39  33  34  42  47  31  26  28  36  36  38  82  97 120 111  93
