P2
# Generated by OpenCV 3.4.0
92 112
255
 158 157 159 160 160 161 160 159 157 147 127 106  78  59  43  36  35  34  32  30  30  29  28  27  28  30  28  24  25  27  27  29  30  31  29  26  23  21  20  21  24  27  30  29  26  27  25  24  25  24  27  28  28  26  24  26  27  27  29  30  35  42  44  39  38  38  37  38  44  51  57  56  88 160 168 169 169 169 168 168 168 169 169 169 168 170 168 168 168 170 167 168
 158 158 160 159 160 162 160 158 153 137 135 109  75  49  42  36  37  34  30  29  29  27  26  25  26  27  28  28  28  30  32  30  28  28  29  29  28  26  25  29  29  29  31  31  30  31  31  30  26  25  26  26  26  27  24  25  26  25  25  27  30  38  42  41  40  39  37  38  41  47  56  52  56 119 163 168 170 168 170 169 169 168 169 170 170 170 169 169 167 168 168 168
 159 160 161 159 160 160 159 154 154 139 126 106  58  48  40  37  36  33  31  28  28  29  26  26  27  28  28  27  28  27  27  26  25  27  25  29  32  31  29  28  30  28  27  27  29  29  30  31  28  26  24  24  23  24  24  25  26  26  26  26  26  29  34  39  38  41  40  33  33  44  52  52  55  60 121 162 168 168 168 169 170 170 171 169 170 170 169 168 169 168 168 168
 159 160 160 159 161 160 160 159 156 141 123 102  62  48  39  39  35  32  28  26  29  32  30  30  29  29  28  28  26  25  23  22  22  23  27  28  28  28  28  28  29  27  26  25  24  28  28  25  24  23  19  21  24  25  25  24  25  24  26  25  25  25  27  34  35  36  40  34  31  36  46  51  49  50  60 133 163 168 169 168 170 169 170 170 170 169 169 169 168 169 169 169
 160 161 160 160 160 163 162 161 150 142 124  91  60  47  40  37  31  29  29  30  29  29  28  27  26  26  25  28  29  32  28  27  25  24  25  26  25  25  25  24  27  34  34  33  32  31  27  25  26  25  23  23  23  23  23  25  28  27  29  29  27  26  26  28  32  36  36  38  32  33  39  46  45  43  48  83 154 168 169 168 169 169 168 170 169 169 170 170 168 168 168 168
 160 161 160 160 161 162 161 160 150 146 124  87  59  44  40  36  31  29  29  30  29  29  29  28  25  24  25  26  27  30  31  28  25  25  25  25  26  24  24  24  28  31  31  30  28  29  28  27  28  24  20  16  18  22  20  23  25  28  27  27  26  26  26  27  31  33  36  37  37  33  32  43  41  40  41  55 134 164 168 167 170 170 170 169 171 171 170 170 170 170 168 169
 160 161 160 161 160 161 161 158 157 145 130  74  53  45  38  35  33  29  28  31  29  29  30  28  26  27  27  26  28  30  32  37  32  29  29  26  27  27  27  28  29  30  29  30  29  28  25  22  19  18  16  16  16  17  19  18  21  26  26  25  26  25  25  26  27  31  36  37  37  38  33  38  39  41  38  45  74 150 163 166 169 169 169 171 170 169 170 169 168 168 168 169
 159 159 160 162 162 162 162 160 159 150 113  70  48  43  35  32  30  27  28  29  27  28  29  25  26  25  25  25  27  29  30  32  34  32  30  26  26  23  21  22  24  25  20  22  25  26  23  21  21  20  20  18  18  18  16  15  17  21  23  23  23  25  24  25  26  30  32  34  30  35  33  35  36  40  37  35  43  80 149 167 168 170 169 168 169 170 169 170 168 168 168 169
 159 160 160 161 163 162 161 160 157 149 104  59  48  41  34  30  30  28  29  29  29  27  25  24  24  26  26  23  24  26  26  29  30  34  36  34  28  21  22  20  16  17  16  18  17  20  23  23  23  21  18  22  21  20  18  19  19  20  22  24  23  25  25  23  25  28  30  31  34  35  35  35  34  38  36  34  37  45 103 159 168 168 169 167 170 170 170 170 169 169 169 168
 159 159 160 159 161 161 161 162 157 134  95  57  44  37  30  29  29  29  29  27  28  26  24  23  21  21  23  24  24  19  18  22  25  25  29  30  32  33  26  19  19  20  21  23  24  22  22  20  18  18  20  19  19  21  22  19  18  18  21  22  25  28  25  23  24  26  28  31  33  30  33  33  32  30  34  39  40  38  71 156 167 167 167 168 168 168 170 170 170 168 169 168
 159 159 159 161 162 162 161 162 155 110  80  46  38  34  31  30  29  29  27  24  27  26  24  20  21  19  21  20  20  19  20  22  19  20  22  23  23  24  26  27  28  26  24  23  23  22  20  20  21  19  18  18  18  20  20  17  18  18  18  23  26  26  25  26  26  27  28  32  33  35  36  34  31  29  34  40  34  36  57 132 163 165 166 167 167 167 169 168 169 169 169 169
 158 157 161 161 161 160 160 161 156 130  58  42  37  34  30  28  28  27  24  24  24  25  24  18  18  21  21  22  22  21  21  20  19  18  16  16  17  17  18  22  20  20  19  20  22  22  18  17  19  19  20  20  21  23  20  19  17  18  18  20  27  24  25  28  29  30  30  34  38  40  37  36  31  29  34  39  37  42  64 106 160 166 168 167 168 169 169 167 168 168 169 168
 159 157 161 162 162 160 159 160 158 124  52  38  33  32  29  28  28  27  25  25  24  24  25  22  17  17  20  22  22  21  21  20  19  19  18  18  17  16  14  15  15  15  16  18  21  22  16  18  22  21  21  21  23  21  20  18  17  18  19  21  24  28  28  30  30  30  36  44  50  51  47  41  32  32  36  34  35  36  45  96 161 167 167 168 168 168 169 170 168 167 167 168
 162 159 160 162 161 163 159 161 155 108  47  36  33  30  29  29  29  27  25  24  23  23  24  22  18  17  18  19  17  20  21  21  20  19  19  20  18  18  18  17  18  19  22  20  18  17  18  23  21  21  20  18  20  20  19  19  18  18  19  24  27  31  32  35  40  45  57  61  62  58  51  43  33  34  33  35  34  36  46  70 153 165 168 168 168 169 168 167 168 166 168 168
 162 161 159 162 161 162 160 160 147  80  45  35  30  29  29  28  28  29  26  24  22  23  24  23  23  20  18  18  16  16  17  16  16  17  18  19  20  22  21  21  21  20  18  18  16  19  22  22  20  16  15  16  17  21  22  23  20  20  24  28  29  31  40  45  53  64  69  74  77  75  58  46  36  31  31  33  36  35  38  41 122 162 166 167 170 168 168 169 168 169 170 169
 162 163 163 161 162 163 162 154 138  59  44  34  30  29  29  29  26  28  27  23  23  23  22  22  23  23  22  20  17  15  17  18  18  19  21  22  22  22  20  17  16  15  16  15  19  21  20  18  16  14  15  17  18  21  24  25  24  26  31  32  36  41  52  63  63  77  86  92  93  91  81  59  44  36  32  32  32  32  36  44  91 158 166 168 170 168 169 169 168 170 168 168
 161 163 163 163 163 162 161 153 132  48  42  36  31  29  28  29  28  27  26  24  23  22  24  21  24  24  23  22  18  19  21  20  20  22  21  19  18  19  17  16  17  16  16  21  21  18  16  17  17  17  18  19  22  26  27  29  31  33  35  39  42  51  65  74  79  89 100 109 111 104 100  85  65  47  39  32  31  33  38  42  70 155 166 169 170 168 169 170 169 171 170 169
 162 164 163 163 163 164 160 155 118  47  40  33  33  30  29  28  29  29  24  24  23  24  26  27  21  22  23  24  23  22  21  22  21  19  17  18  17  17  16  15  16  18  24  22  18  16  17  20  20  20  21  22  26  29  30  32  36  36  40  45  49  56  74  85  96 102 117 122 123 117 113 105  92  74  51  36  36  35  38  41  60 141 161 168 169 169 170 171 172 171 170 170
 162 162 164 164 164 164 164 157 104  51  40  36  33  31  29  28  28  25  26  27  26  27  24  23  23  24  24  24  22  22  21  21  21  18  17  18  17  16  19  18  21  25  22  18  17  19  19  24  23  24  25  28  29  30  33  35  40  41  45  50  55  64  78  91  99 108 120 123 124 128 125 118 107  86  61  39  31  34  37  39  44  62 141 164 168 169 171 170 171 172 170 170
 163 164 164 164 164 165 163 155  91  44  35  38  33  31  29  27  28  26  27  27  27  27  24  22  23  23  22  21  21  21  20  21  21  17  18  16  17  20  22  23  24  23  20  18  18  20  22  24  25  27  28  30  30  36  37  38  43  47  49  53  59  68  81  90 104 115 120 120 128 134 132 127 123 112  83  45  35  36  35  37  39  49 102 160 167 170 171 170 170 172 169 170
 164 165 164 164 165 164 164 160  81  42  37  36  30  30  29  28  27  24  27  27  28  28  26  24  22  21  21  20  21  20  19  19  18  17  18  18  19  21  23  22  20  20  21  21  22  25  26  27  29  30  30  33  34  39  39  41  46  52  53  59  67  72  81  92 103 115 123 124 132 137 135 134 133 130 102  58  39  35  35  36  36  46 108 163 168 170 170 172 171 172 171 170
 165 165 164 164 165 165 164 159  82  42  39  34  31  30  28  29  27  24  24  28  29  28  26  23  22  22  22  22  22  20  20  18  19  18  19  21  22  23  21  21  21  22  23  25  27  28  29  30  30  30  33  34  37  40  45  46  49  52  55  61  69  76  86  94 102 111 118 125 131 136 138 141 141 135 113  72  45  35  35  38  39  44  84 156 167 170 172 173 172 172 172 170
 165 165 165 165 166 165 164 156  84  46  40  35  33  30  30  28  29  28  26  30  32  27  26  24  23  24  23  23  22  22  20  18  19  20  23  22  23  24  25  24  25  26  26  28  29  30  30  31  32  32  35  38  40  44  48  51  52  54  57  64  70  78  90  93  99 108 115 121 129 135 139 142 142 139 124  91  56  37  34  44  46  44  66 149 163 169 172 172 172 172 172 172
 166 165 164 165 166 165 164 159 104  50  39  33  31  31  29  29  29  30  30  31  29  25  23  25  28  26  25  24  21  20  22  21  21  23  22  22  24  25  26  27  28  29  29  30  31  32  33  35  34  37  41  41  41  45  48  52  54  56  62  68  71  78  90  92  96 107 117 122 129 136 140 143 145 139 128 102  63  42  38  48  47  45  56 116 160 167 170 171 171 173 172 171
 165 165 165 165 165 165 165 163 119  48  39  33  28  26  26  27  29  30  33  32  27  26  26  28  28  27  24  23  24  23  23  24  25  26  24  26  27  28  29  29  29  30  30  31  31  35  35  36  38  43  43  44  45  47  50  52  54  60  66  70  72  78  87  93 100 109 117 123 129 134 141 144 146 143 131 107  70  46  41  47  48  46  56 125 159 168 171 172 173 173 171 171
 165 165 165 166 165 164 165 162 127  49  40  34  29  26  22  24  31  33  34  32  29  29  30  30  30  28  26  27  29  26  26  28  28  28  27  30  30  30  31  31  31  32  33  33  33  36  37  39  41  44  45  47  48  50  52  53  58  62  67  71  75  81  86  93 101 112 115 120 126 135 141 146 147 140 131 108  76  50  43  47  46  45  59 121 159 168 173 173 172 172 173 172
 166 166 166 166 165 167 165 161 124  54  40  34  30  28  25  27  32  35  35  30  34  34  34  33  32  30  31  33  30  28  29  29  29  28  30  31  31  33  34  35  35  35  35  37  38  40  42  42  45  49  51  51  52  56  54  55  60  65  70  72  76  83  89  94  99 110 115 124 128 135 139 146 146 142 129 108  81  56  43  49  44  46  61 113 153 168 171 173 174 172 173 173
 166 168 167 167 166 168 168 162 113  53  38  30  32  32  29  30  32  36  37  37  36  36  35  36  36  34  36  34  31  31  32  30  30  30  33  33  34  34  35  35  36  40  41  40  41  42  42  46  49  50  54  54  58  58  58  59  60  66  71  77  80  87  94  98 101 107 116 126 131 135 140 144 144 140 128 108  85  60  47  46  45  46  56 122 160 170 173 173 173 173 174 173
 166 168 167 166 168 169 167 163 105  58  36  30  29  32  30  30  33  38  42  43  45  44  43  42  42  40  38  36  36  36  35  35  33  36  38  38  39  38  39  41  40  41  44  42  42  45  47  51  52  54  57  58  60  62  62  64  68  70  74  80  84  89  96 101 105 111 118 128 134 137 141 146 143 138 127 108  80  56  48  45  44  42  55 118 159 169 174 174 173 173 173 173
 165 167 167 168 170 170 168 163 124  64  36  32  29  24  24  29  34  42  45  48  51  53  48  45  44  43  42  43  41  40  40  37  40  40  42  42  43  43  43  42  43  45  47  45  46  49  49  52  54  55  59  59  62  65  64  67  70  74  78  86  87  92 100 106 109 112 120 127 130 133 141 143 140 135 123 108  84  53  43  45  42  40  58 119 162 171 173 173 173 173 173 173
 166 167 170 171 170 168 169 159 145  58  36  32  29  22  21  26  35  44  52  56  59  59  55  53  50  47  45  45  44  43  42  42  44  46  49  49  47  48  47  48  48  48  49  48  51  51  53  55  55  56  61  63  64  66  66  70  74  76  82  88  89  95 102 105 110 114 121 128 131 135 138 141 140 132 122 105  82  60  43  43  43  42  63 120 162 172 174 174 174 174 174 174
 170 168 170 170 170 170 169 163 139  70  37  34  27  23  20  24  33  44  51  58  60  62  60  56  53  50  48  51  47  47  49  50  50  53  51  50  49  50  50  50  52  53  52  55  55  54  57  57  62  62  62  65  67  70  70  74  78  80  85  92  93  99 104 108 114 117 122 128 133 134 138 139 137 130 120 103  81  58  45  39  42  41  63 119 163 173 174 175 174 175 174 174
 168 169 169 170 170 171 170 168 146  70  38  34  27  23  21  25  33  43  53  59  64  63  61  57  60  59  55  51  54  58  57  58  57  57  54  54  51  54  56  55  56  56  56  58  60  60  62  63  64  65  68  69  71  73  75  77  82  85  88  93  96 102 106 111 118 124 129 133 134 134 137 138 135 128 118 101  83  56  41  38  39  40  68 127 163 172 174 174 175 175 174 175
 169 170 170 170 170 170 171 169 160  83  40  36  29  21  22  24  32  44  55  61  66  66  64  63  62  61  59  59  64  62  65  64  62  61  60  59  59  60  60  59  60  60  60  61  63  66  68  66  67  68  70  72  76  78  79  83  85  88  93  97  99 101 105 112 119 123 131 134 136 136 137 136 133 128 116 102  77  54  41  37  40  44  74 140 168 173 175 174 175 175 174 174
 170 171 171 170 170 171 170 169 161  87  40  37  30  24  24  28  36  49  61  68  74  77  72  70  71  68  66  68  65  65  66  66  66  66  66  65  64  64  64  65  64  64  66  66  69  69  70  72  69  70  71  72  76  80  84  86  90  92  94  98 101 102 108 113 121 126 131 136 139 138 140 136 135 128 118 106  79  50  40  36  41  50  93 154 172 174 175 175 175 175 175 175
 171 171 171 170 171 170 171 171 164 120  41  36  32  25  26  29  37  51  66  75  78  78  75  73  69  66  67  66  67  66  67  68  68  67  66  66  67  68  68  68  67  69  69  69  71  72  73  73  73  72  73  72  73  80  81  85  89  92  95  97  98 103 105 111 116 120 128 135 139 136 139 136 134 126 121 110  84  48  38  37  41  52 105 158 172 174 175 175 175 175 173 174
 170 171 171 169 170 171 171 172 170 148  57  38  34  28  25  27  41  56  73  78  81  80  77  70  70  70  68  64  66  67  68  68  67  68  67  68  70  70  68  67  68  70  71  71  73  72  74  74  74  73  73  74  75  79  81  83  86  87  89  92  95  98 101 105 111 113 123 132 136 136 139 139 134 127 124 117  91  51  34  36  43  58 128 161 174 175 175 175 174 175 175 174
 170 170 170 169 171 170 171 172 171 161 105  40  36  28  24  28  47  63  77  81  82  81  77  71  74  70  69  68  67  66  66  67  67  68  66  66  68  68  68  67  69  71  72  70  72  72  71  73  72  72  73  74  73  74  77  79  82  83  86  87  89  93  94  97 103 109 112 122 132 136 139 138 133 130 127 121 105  56  33  36  46  69 137 166 174 176 175 175 175 174 174 174
 168 171 170 170 171 171 172 171 171 168 134  40  36  27  24  33  56  71  81  85  85  85  82  78  74  73  72  70  68  63  63  65  66  67  66  67  66  66  67  69  69  69  71  70  69  71  69  72  71  70  71  70  72  71  75  77  78  82  82  81  83  87  88  90  92  99 101 110 118 126 135 136 135 133 131 125 113  67  36  36  47  94 155 172 174 175 176 174 174 174 174 175
 169 171 171 170 171 172 172 171 170 167 151  63  37  30  27  39  60  77  85  88  85  85  83  80  75  71  69  68  65  64  64  64  64  64  65  66  66  66  65  65  67  67  67  67  69  70  70  70  70  69  68  70  68  70  70  71  72  73  73  73  76  79  80  79  81  82  85  94 108 114 120 124 128 133 132 129 121  81  39  39  53 114 165 174 175 174 174 174 174 174 174 174
 168 169 170 172 171 171 171 171 169 168 153  95  40  32  30  44  69  81  88  88  86  86  82  78  71  68  64  60  60  61  60  61  61  62  64  63  63  61  63  62  61  62  63  63  65  66  66  68  67  65  65  65  65  65  64  64  63  62  62  64  64  66  65  61  66  68  70  73  80  88  91  97 112 128 132 129 124  82  43  44  69 146 169 173 175 175 176 175 175 174 174 174
 168 169 171 170 171 170 172 172 171 166 159 123  43  34  34  52  77  88  90  89  88  86  80  74  64  57  56  56  52  51  52  52  55  54  55  54  54  54  56  54  54  56  57  56  57  60  63  64  65  63  62  62  60  57  57  55  52  51  50  52  50  48  48  46  47  52  48  49  53  61  68  78  93 116 131 133 127  84  51  47  89 159 172 174 175 175 175 176 174 175 173 174
 168 170 170 170 170 172 171 170 171 168 159 132  43  36  34  60  82  89  90  91  89  84  75  59  47  42  38  38  37  35  39  38  39  36  37  38  39  42  43  42  45  46  49  50  52  57  63  64  63  57  56  53  53  50  47  42  37  35  35  33  32  31  30  30  32  35  34  35  40  44  50  57  67  81 120 131 126  93  53  50 121 165 174 174 175 174 175 174 175 175 174 174
 167 168 169 169 169 171 172 171 171 170 165 150  44  38  36  68  87  90  92  88  86  72  52  41  34  31  29  27  28  27  28  27  27  27  27  27  28  28  30  31  33  38  41  45  49  53  59  61  62  55  52  47  45  41  37  32  30  29  25  25  24  23  23  23  24  26  26  28  30  33  34  39  47  61  94 128 128  97  54  51 138 170 173 174 174 174 175 174 174 174 174 173
 167 167 169 171 169 170 170 171 172 170 165 147  58  38  38  72  88  93  93  81  78  53  39  31  28  26  24  23  23  20  21  21  19  21  20  22  22  24  24  24  27  30  33  40  45  51  57  61  58  53  48  42  39  37  31  29  26  24  23  22  22  20  19  20  21  24  25  25  27  31  32  36  44  52  83 121 131 102  53  48 135 169 172 173 174 174 174 175 174 174 173 173
 168 168 170 170 170 171 170 171 170 164 131 106  64  39  42  78  92  95  94  86  72  50  38  29  26  24  24  23  20  21  23  22  21  23  21  19  20  20  23  25  27  29  30  36  42  51  55  57  56  51  46  42  38  35  32  30  29  27  26  27  27  27  29  29  32  31  33  34  37  41  41  46  52  66  93 116 130 102  55  56 117 166 173 174 173 174 174 174 175 174 174 173
 167 167 168 169 169 170 170 170 169 131  76  86  64  39  45  81  94  96  94  87  71  50  39  32  29  28  28  27  28  31  31  32  31  29  29  28  27  27  28  30  30  31  32  36  44  51  56  56  55  52  46  44  40  38  36  35  32  32  32  31  32  32  34  35  38  40  44  49  56  62  67  73  80  95 108 120 132 107  52  53 110 162 168 174 174 174 172 174 173 173 171 172
 166 168 168 170 170 169 170 170 167 108  58  54  49  38  46  86  95  96  91  83  67  53  45  43  40  39  40  38  35  37  34  35  36  32  30  29  28  30  31  31  32  34  36  40  46  54  59  64  64  61  54  50  46  43  39  34  33  31  29  29  29  29  29  29  30  32  37  43  52  68  78  88  95 103 118 130 137 117  60  52 143 166 170 172 173 173 173 172 172 173 172 172
 166 167 168 168 168 170 170 169 167 101  58  52  44  37  52  91  95  97  91  81  70  62  54  52  48  41  35  34  35  35  32  30  29  26  24  24  25  24  26  29  33  34  36  42  49  61  69  73  75  77  70  60  51  43  37  32  29  28  29  29  29  27  21  21  21  23  30  33  42  53  54  81  95 105 117 130 137 129  71  66 148 168 171 172 172 172 173 171 172 171 172 171
 166 167 166 167 168 169 170 170 165  87  61  58  57  42  55  93  98  98  92  83  75  67  59  50  39  32  35  35  33  32  31  29  21  19  17  17  18  23  25  26  31  35  37  40  49  64  77  81  89  89  85  69  51  40  35  31  29  28  31  36  40  31  24  21  19  21  34  54  40  46  46  57  84 100 116 129 139 136  87  89 162 169 169 171 172 172 173 173 173 172 171 171
 166 165 166 168 169 168 168 168 158  77  63  61  66  52  65  95  99  97  93  84  76  65  53  42  35  34  30  29  33  41  46  34  22  24  19  17  17  23  28  26  30  37  40  41  48  68  83  90  95 102  97  74  53  43  38  30  26  28  36  47  52  35  24  20  17  21  37  87  74  61  54  65  82 101 118 133 140 139  90 104 163 168 170 171 171 172 172 173 171 172 170 172
 166 165 166 167 168 168 167 167 145  76  64  63  70  55  74  99 101  99  95  89  80  64  53  45  42  38  35  37  46  53  56  41  22  18  16  18  19  26  29  25  28  39  43  43  50  69  86  95 104 111 106  78  58  49  42  31  28  28  31  42  48  40  24  22  21  25  50  79  84  87  80  84  95 110 126 136 141 139  97 103 163 168 171 171 171 171 170 171 170 169 170 170
 164 166 165 167 168 168 166 165 135  78  70  68  76  53  81 101 102 100  98  93  86  75  66  62  60  55  51  49  49  51  57  49  23  18  18  19  21  29  30  30  33  41  46  48  53  70  90 103 110 118 110  85  68  55  46  39  36  34  34  38  39  40  30  25  26  36  54  72  92  99 103 104 112 121 132 138 140 138  97  91 163 168 170 170 171 170 171 173 172 169 170 170
 164 165 165 166 168 168 166 165 137  84  75  70  81  57  87 102 103 102 101  98  92  88  83  80  75  66  62  60  54  50  52  54  46  31  29  34  36  36  36  40  44  46  51  53  60  73  92 107 112 119 111  92  80  67  55  43  38  37  37  42  41  43  45  47  49  50  62  82 102 107 112 115 122 129 136 141 143 139  98  91 159 168 170 170 172 170 171 168 169 170 170 169
 164 165 165 166 168 168 167 166 146  85  76  75  81  58  92 104 104 104 100 100  99  96  92  89  84  76  69  63  61  50  49  46  47  44  41  41  40  36  36  44  47  53  59  65  68  75  90 107 113 119 113  98  92  82  68  52  42  39  38  42  44  47  48  48  52  61  74  89 104 113 117 122 130 135 140 144 143 139  98 100 160 168 169 170 170 171 170 169 170 170 170 170
 164 165 165 166 167 168 168 167 159  89  78  76  82  59  91 103 104 102 100 101 103 102  98  96  90  86  80  70  62  54  51  49  49  46  43  41  40  39  43  50  56  62  71  75  72  76  92 107 113 119 117 104 102  96  86  69  55  47  43  44  45  46  48  51  56  66  80  90 106 115 121 129 135 141 143 145 144 140 101 107 162 168 170 170 170 169 169 170 170 169 169 170
 164 164 166 166 167 168 169 168 164 115  79  77  85  58  83 101 103 102 104 105 106 104 101 102  99  94  88  79  70  62  54  52  49  48  45  43  45  48  53  63  70  76  79  79  75  80  92 109 114 120 118 107 106 108 107  95  78  64  57  53  53  52  53  56  64  74  87  99 109 116 125 133 139 140 142 143 144 136  90 127 163 167 170 170 170 169 169 170 170 169 168 169
 164 165 166 166 167 166 166 167 167 146  92  84  91  56  83 103 102 104 104 105 106 107 106 100 101 101  96  90  84  78  69  66  60  60  60  59  58  61  72  81  84  82  81  79  77  81  92 107 113 118 120 111 110 115 116 113 103  93  81  73  69  68  68  72  79  87  95 104 113 121 128 134 139 139 140 143 143 132  89 142 165 169 168 170 169 169 168 170 170 169 169 170
 164 165 165 166 167 166 167 167 167 163 115  92  95  63  75 102 102 103 103 105 105 104 103 103 102 102  99  94  88  84  82  79  76  72  73  73  76  83  91  92  90  84  83  81  80  83  93 106 112 116 122 113 115 119 122 122 118 115 110  98  88  86  85  84  89  93 100 107 115 122 129 134 137 138 139 140 140 129  99 155 165 167 167 168 167 169 168 168 169 168 168 167
 164 166 166 166 165 166 167 166 166 166 142  99  95  70  70  99 101 102 100 100 101 101 101 105 104 102 102 100  95  91  90  87  85  85  87  90  93  96  97  95  89  85  85  84  82  86  93 103 109 116 124 115 117 121 122 123 123 123 122 120 113 107 103  98  98 102 107 112 119 125 127 133 134 135 137 137 136 120 114 158 164 167 167 167 167 168 168 167 168 169 168 167
 164 165 166 166 166 166 167 167 168 168 162 109  94  82  61  96 100  98  98  97 100 100 100 102 101 101 102 103 102 100  97  98  97  98  99 100 102 100  97  92  88  85  84  83  84  89  97 104 110 115 123 118 118 120 121 121 121 118 118 119 122 118 113 109 108 111 114 115 120 128 125 128 130 133 135 134 133 112 134 159 165 166 167 166 167 168 168 167 167 167 166 168
 164 165 165 166 166 167 167 165 168 169 165 139  93  82  57  93  98  97  96  95  96  96  98 100 102 104 105 106 105 106 106 107 105 105 107 104 102  97  95  90  86  85  85  85  87  93 100 103 105 111 126 118 118 119 119 120 118 116 112 113 115 116 115 114 112 116 115 116 114 124 129 128 127 129 130 132 128 107 150 161 164 164 165 166 167 168 168 166 167 167 167 167
 164 165 164 165 165 166 167 167 166 167 166 162 108  84  57  89  97  97  94  92  92  94  96  96  98 101 104 104 103 105 108 107 104 104 104 101  97  97  92  88  85  85  84  86  89  96 100 103 109 110 121 121 117 117 116 117 115 111 108 108 110 110 113 114 116 116 115 114 114 114 122 123 126 125 126 128 125 110 154 161 164 164 165 167 165 165 167 166 165 166 165 164
 164 165 164 165 164 166 166 167 167 168 168 166 150  95  73  76  95  95  90  89  89  90  91  93  93  96  96  96  99 100 102 104 102 101 102  98  96  96  94  88  84  85  84  86  93  99 102 104 108 112 123 120 116 113 113 112 110 108 105 105 108 108 109 108 115 115 112 113 115 117 121 120 121 123 125 123 114 118 156 161 162 163 163 164 164 163 164 165 164 166 166 165
 163 164 166 166 166 167 167 167 168 167 167 167 163 130  84  70  93  92  89  89  89  89  90  89  91  92  93  93  96  97  97 100  99 100  98  96  94  93  91  87  83  81  82  89  98 102 103 104 108 112 122 123 115 107 106 106 104 102 102 102 104 103 104 103 108 109 112 116 118 118 119 119 121 121 122 121 100 127 156 160 161 162 163 163 164 164 163 164 164 164 164 164
 164 164 165 165 166 167 167 166 166 166 167 167 166 161  93  61  87  88  89  90  89  88  89  89  89  90  91  92  94  94  99  98  98  96  96  95  94  93  88  83  80  76  80  91 100 103 105 107 110 113 120 122 117 101  94  93  94  93  94  98 100 102 105 105 106 109 113 116 117 118 121 118 118 118 119 119  85 139 156 159 161 162 162 163 164 164 165 165 164 164 164 164
 164 164 165 166 166 166 166 166 166 166 167 168 167 164 114  54  79  87  87  87  86  90  90  88  87  87  89  91  95  96  98  97  96  95  95  94  89  87  82  75  67  72  85  99 103 105 106 107 113 113 118 124 122 106  81  80  83  85  89  92  96 100 102 102 104 108 111 115 115 118 119 119 121 119 118 109  84 146 156 157 160 159 162 163 162 162 163 164 163 164 162 163
 164 164 165 166 165 166 166 166 166 166 167 168 167 165 151  68  69  88  87  86  86  88  88  87  88  86  88  91  94  90  95  95  92  92  91  89  85  81  74  65  61  81  98 104 108 109 109 112 112 107 114 125 127 121  77  68  75  80  85  88  92  97 102 102 105 107 111 114 114 117 119 120 120 118 117  96  95 150 155 158 157 157 158 159 160 160 161 163 161 161 162 161
 164 166 166 166 165 166 166 166 166 167 167 166 167 167 164 114  63  87  88  85  84  87  87  87  89  87  87  89  88  89  92  92  93  91  87  84  81  75  67  58  66  92 101 105 108 108 111 113 108 103 110 125 131 127  95  62  68  75  80  85  91  97 101 104 107 106 106 110 114 118 117 119 119 118 114  82 106 140 152 156 157 158 158 158 159 159 160 162 162 161 161 161
 162 165 165 165 166 166 167 166 166 167 168 167 167 167 165 142  55  82  86  86  86  85  86  87  88  85  86  88  89  89  90  90  89  88  84  79  72  66  61  57  82  91  96 101 103 103 104 102  97  95 105 120 134 127 116  76  66  70  74  79  87  93  97 100 106 109 109 109 112 115 119 120 120 118 103  73 131 151 153 157 157 157 157 158 158 158 158 160 162 161 161 162
 162 164 164 165 165 166 165 166 167 167 167 167 167 167 165 145  50  72  85  83  85  88  88  87  86  86  86  89  90  89  88  88  86  84  79  71  65  61  63  67  91  86  84  89  92  92  93  93  89  91  96 106 120 114 107  94  71  70  73  77  82  87  91  98 103 106 107 111 113 114 116 118 119 112  89  70 142 154 154 155 157 157 156 158 159 159 160 161 160 161 161 162
 164 165 164 164 166 165 165 165 166 166 166 167 168 168 167 154  66  63  79  82  86  88  88  87  85  87  86  88  89  86  86  84  79  79  73  67  60  62  68  70  76  69  62  66  74  78  78  81  81  81  83  93  99  92  91  89  83  78  75  77  80  87  88  94  98 105 106 110 110 114 115 118 116 108  75  74 147 153 155 155 156 156 156 156 158 158 157 159 158 159 160 159
 164 165 165 165 164 165 165 166 166 165 168 167 168 167 167 159  90  55  70  82  86  86  89  87  85  86  86  86  86  86  83  81  79  75  69  61  64  70  74  73  60  44  38  41  54  61  63  66  67  69  72  77  80  65  76  91  94  90  83  79  82  85  89  94  98 102 106 108 110 112 114 116 112  95  66  93 147 151 154 155 156 155 154 155 157 157 158 158 158 159 158 158
 162 164 164 164 164 164 165 165 165 165 167 166 166 167 167 163 102  54  63  79  87  88  88  87  84  83  83  84  85  84  82  80  76  71  66  64  71  78  80  75  63  47  39  37  36  48  51  51  53  55  58  70  77  75  83  95  99  99  95  87  83  84  88  94  96 102 106 107 113 113 114 112 103  80  58 123 144 150 152 154 155 154 153 154 156 156 157 157 157 157 156 156
 161 162 162 163 163 165 164 166 166 165 165 166 166 166 167 164 127  54  56  70  82  85  87  83  83  83  81  82  82  81  79  76  71  67  64  69  78  82  81  74  62  52  47  43  41  41  43  42  43  48  55  66  78  76  85  97 103 105 103  97  90  86  85  89  95 100 103 107 113 115 112 107  94  68  64 138 149 153 152 155 154 153 154 154 155 156 157 155 155 156 155 156
 162 162 161 162 162 163 163 162 165 165 165 166 166 165 166 163 153  61  54  62  72  81  83  83  82  80  79  81  80  78  75  73  69  67  69  76  83  83  79  69  56  52  48  43  39  38  38  39  38  44  48  50  59  67  78  94 101 104 107 104 100  93  88  87  92  95 101 105 109 112 110  99  85  59  79 142 150 153 153 154 154 153 153 154 154 154 155 154 155 156 156 156
 162 162 162 162 162 162 162 162 163 164 164 165 164 165 165 162 160 105  50  54  64  74  78  79  78  79  77  77  76  75  73  67  67  67  71  76  77  77  69  57  47  47  41  35  33  34  35  37  35  35  33  33  37  43  59  78  88  95  99 100 101  98  91  86  86  92 100 102 105 108 101  89  71  54  81 139 150 151 152 154 153 152 152 152 153 152 154 154 154 154 155 155
 161 162 161 162 162 161 161 161 162 162 162 165 163 163 163 162 161 143  55  48  53  62  73  78  74  76  74  73  71  71  68  64  62  65  65  61  61  64  56  42  40  37  35  30  30  32  36  35  35  31  28  29  33  38  41  57  69  81  88  90  92  95  92  84  84  90  97 101 101 102  88  70  58  51  97 138 146 151 150 151 152 150 151 152 151 150 151 153 152 153 152 153
 161 161 160 161 161 160 161 161 160 161 162 162 162 162 162 161 159 153  77  46  45  54  67  71  75  74  72  71  70  69  63  59  58  54  50  45  47  49  43  33  33  34  33  31  30  32  35  35  34  30  28  26  30  38  36  41  52  58  67  70  73  78  85  84  78  87  93  98  98  92  73  57  56  57 123 144 149 151 152 151 150 150 151 150 150 150 151 151 151 150 151 152
 160 160 160 161 161 161 161 160 160 161 161 161 161 161 161 159 158 154 118  47  43  47  62  67  70  71  70  71  67  63  59  53  48  40  37  35  38  41  37  32  32  31  30  28  31  32  31  35  34  30  28  28  30  34  35  36  42  48  50  52  56  59  69  78  75  80  90  95  94  78  62  53  53  88 137 145 150 149 149 150 149 150 150 150 149 149 149 150 149 149 149 149
 158 158 159 160 160 159 158 158 160 160 159 160 160 160 161 160 159 156 146  59  46  46  49  61  66  67  68  67  64  58  53  42  36  29  30  33  35  36  32  29  30  31  28  28  31  33  33  36  38  34  30  30  32  32  37  36  41  46  45  43  48  51  55  64  71  76  85  89  85  69  54  48  51 111 138 146 149 149 149 148 148 146 147 147 148 149 147 147 148 146 147 147
 156 156 158 158 158 158 159 157 158 159 159 159 158 158 159 158 158 156 147  78  47  42  42  48  58  62  65  65  61  56  46  35  29  26  28  32  34  34  31  30  31  32  31  32  34  39  39  42  41  39  34  32  32  34  38  40  44  44  39  36  40  45  51  55  67  76  83  86  74  57  50  47  60 128 140 146 147 148 147 146 145 145 146 146 148 148 147 145 146 146 146 145
 156 155 156 156 156 155 156 157 156 156 155 154 155 157 159 156 156 154 150 101  46  38  37  41  47  54  59  63  60  54  40  29  26  26  29  29  31  31  30  31  31  31  32  33  36  41  42  44  43  39  33  31  32  36  38  42  42  39  32  29  38  39  43  54  66  76  80  78  62  53  52  47  82 137 143 144 143 144 147 145 144 145 145 145 144 144 145 145 144 144 146 144
 154 155 156 155 154 153 155 155 154 155 155 154 156 156 156 155 155 155 150 131  53  39  37  36  42  48  52  56  56  52  40  27  27  28  30  30  28  27  26  26  27  26  26  28  28  28  28  31  28  26  28  28  29  31  34  37  36  29  29  29  33  36  40  56  68  72  72  71  55  51  48  50 114 139 143 143 145 146 147 145 145 145 145 144 143 142 143 141 141 141 142 142
 153 152 153 153 153 154 154 154 153 153 153 153 153 153 154 152 153 152 149 143  92  38  36  34  38  43  47  48  50  49  39  28  30  32  36  38  39  35  32  30  29  28  26  26  26  23  23  23  24  24  25  27  34  44  48  49  45  44  40  36  32  32  37  50  64  66  62  59  48  44  45  66  87 101 119 134 142 144 143 144 143 143 142 142 141 140 140 140 140 141 141 140
 153 151 152 153 152 153 152 153 152 152 153 153 153 152 153 153 152 152 150 146 120  53  36  31  36  41  42  43  44  46  41  33  36  40  44  46  49  49  45  39  37  37  39  40  42  37  33  35  36  38  39  47  62  61  54  58  63  62  51  43  39  37  38  53  60  57  58  54  42  38  39  77  46  46  50  62  93 135 140 139 139 141 140 139 138 140 138 139 139 139 139 139
 152 150 152 152 151 152 153 152 152 152 152 152 152 152 152 152 150 151 148 147 130  73  39  35  36  37  36  36  41  47  43  39  38  45  51  55  56  57  55  50  46  42  47  49  48  46  43  42  44  49  51  56  61  62  65  73  78  73  59  52  45  43  46  55  56  55  54  50  40  38  39  98  36  31  38  47  53  79 121 134 138 138 137 138 138 136 136 137 136 138 138 138
 150 149 150 149 150 151 151 151 149 151 151 150 150 151 148 150 148 148 147 144 134  79  33  34  34  31  34  35  39  45  44  38  41  52  58  60  60  61  61  59  54  51  49  51  52  48  47  47  47  51  52  55  59  69  77  83  88  82  73  63  51  46  52  57  53  50  46  41  34  35  62 115  41  27  33  41  44  46  51  93 128 134 136 135 136 136 137 138 138 138 139 138
 151 148 149 149 149 150 150 150 150 149 151 150 149 149 147 147 146 146 146 143 136 102  36  26  27  30  30  33  37  42  41  41  44  53  62  63  65  64  63  62  61  58  53  53  48  48  49  47  49  51  56  64  70  76  81  85  88  85  76  67  55  51  54  56  52  47  43  35  27  41  93 117  60  22  28  35  41  42  40  54  82 109 124 130 133 134 136 136 136 136 139 139
 147 148 146 148 148 150 149 148 149 149 149 147 147 146 145 145 144 142 142 122  77  50  32  21  20  27  28  29  37  38  40  39  45  51  60  64  65  63  60  59  57  60  56  52  48  48  49  49  49  52  56  65  69  73  75  78  81  81  73  63  57  53  56  57  44  36  35  28  30  66 106 118 107  38  20  28  39  42  38  43  57  66  72  93 115 129 132 133 134 134 135 134
 147 147 148 148 148 146 146 147 147 148 146 145 144 142 142 142 140 129  87  51  36  32  30  24  21  23  23  30  33  36  34  38  42  50  59  66  68  66  61  55  50  49  49  46  43  41  42  41  40  45  51  55  58  61  70  74  75  75  69  57  54  53  61  52  35  32  30  26  37  89 111 119 121  89  25  25  35  40  40  39  47  53  54  63  68  78 101 115 124 127 129 130
 145 144 145 147 147 146 146 146 146 145 143 143 142 139 137 125  95  61  43  37  28  24  28  24  21  19  18  26  31  31  29  32  35  46  56  64  67  68  64  58  52  48  42  36  33  33  32  32  31  36  41  48  50  56  68  75  74  67  59  52  49  53  56  41  28  26  26  27  66  99 113 119 123 114  53  25  32  36  39  38  40  47  50  49  48  56  58  66  77  98 119 127
 144 143 145 145 144 145 143 142 141 141 140 127 118 105  88  63  49  37  31  28  26  23  23  23  23  18  17  23  26  26  25  26  31  41  49  56  66  69  67  63  57  50  42  38  31  27  28  28  32  37  40  46  54  59  66  69  66  56  49  46  42  51  45  30  25  21  26  52  92 105 114 119 123 120  76  32  33  36  37  35  37  45  48  45  43  46  48  52  55  66  68  84
 142 143 143 142 141 141 137 135 116  96  74  56  54  55  52  43  33  29  26  23  21  23  24  24  24  20  15  16  19  21  23  28  29  34  42  54  66  72  72  68  61  57  47  40  32  26  26  28  32  37  46  52  60  67  67  63  56  49  39  40  36  42  35  24  23  23  48  82  95 108 114 120 124 120  82  36  28  33  36  34  38  42  45  42  38  39  43  44  44  49  56  61
 140 139 138 134 119 105  80  65  52  49  44  45  46  40  32  29  27  25  23  19  19  20  22  21  21  16  14  16  15  16  17  22  23  31  40  50  62  67  72  71  68  66  57  50  41  34  33  34  40  48  61  61  57  56  62  56  51  42  34  31  31  30  25  20  21  39  74  88  97 104 116 120 121 118  80  42  29  32  37  36  35  42  44  42  38  37  40  42  37  40  47  53
 133 117  93  66  60  54  47  44  40  37  37  41  36  30  27  26  24  24  21  19  16  20  19  20  19  16  14  27  24  15  14  15  17  26  33  41  52  60  65  69  68  65  62  57  50  45  41  42  47  60  70  63  45  40  48  49  42  38  31  27  26  23  16  19  34  67  77  89  98 109 116 120 120 112  75  42  29  31  30  32  33  39  38  38  37  36  37  37  36  36  39  46
  66  55  48  44  42  40  38  38  35  35  36  36  31  28  26  24  24  21  18  16  17  19  16  20  19  16  14  31  45  29  16  14  15  19  25  32  39  48  59  60  61  61  59  58  53  50  46  45  50  57  60  55  44  40  37  38  38  37  30  22  20  16  17  28  55  74  83  92  98 109 115 120 118 108  66  37  29  30  33  31  35  36  37  38  36  37  35  35  33  36  37  41
  43  37  36  36  37  36  33  32  32  32  33  30  27  24  24  24  23  19  17  17  16  16  17  15  16  16  15  28  50  41  30  16  13  14  17  25  31  36  45  46  50  51  51  54  54  53  50  50  48  50  52  48  41  35  33  35  34  31  26  25  18  16  27  47  65  78  82  92 100 106 115 117 115  96  55  33  29  31  30  32  31  33  36  38  37  37  33  33  33  31  37  42
  34  35  34  34  33  30  30  30  27  31  32  28  25  23  22  21  22  18  17  17  15  16  17  15  17  15  14  20  47  51  49  33  20  12  16  18  25  28  35  35  41  42  44  49  48  51  50  44  44  44  40  37  34  31  29  32  31  28  22  18  19  36  51  58  69  78  83  91  97 107 113 114 111  80  48  30  29  30  31  30  31  33  35  36  37  36  34  33  32  32  36  40
  31  32  31  31  30  27  28  29  28  29  29  27  24  22  22  19  17  16  15  17  15  15  16  15  16  15  15  16  40  52  53  46  38  20  16  15  20  26  23  26  31  33  39  43  41  41  43  39  36  35  33  29  28  29  29  31  29  23  19  22  36  52  58  61  71  76  81  89  95 104 109 113 104  56  37  30  27  28  28  32  33  30  32  31  33  32  32  28  28  30  32  35
  30  30  31  31  28  25  25  26  27  27  24  24  22  21  20  18  17  15  13  16  15  16  16  15  15  16  15  15  27  49  53  50  46  36  20  12  15  19  16  21  26  29  31  32  34  33  33  31  32  30  26  25  22  21  29  25  21  15  16  34  51  56  60  65  71  75  79  86  95 102 104 106  85  46  29  26  28  25  28  28  32  30  32  33  32  30  29  27  28  29  32  33
  32  30  30  28  25  25  27  26  29  26  24  23  22  21  18  15  15  15  14  14  15  16  17  17  15  16  15  14  16  39  52  54  51  48  34  19  15  14  13  15  17  20  23  25  27  27  26  24  27  26  17  20  16  16  20  17  16  17  26  49  56  58  60  66  70  75  79  84  91  99 102  96  60  35  25  26  26  27  26  29  29  29  32  33  32  31  28  27  28  29  30  32
  27  27  26  26  27  25  25  24  25  23  24  23  19  19  18  16  18  15  13  13  14  14  15  16  15  13  12  13  13  21  45  52  54  50  44  28  19  12  12  12  12  14  16  21  19  20  18  16  21  20  15  17  13  14  15  15  20  36  43  54  56  58  61  68  70  74  78  83  90  96  95  71  42  27  25  22  25  23  27  27  29  30  31  33  32  31  29  25  26  29  31  32
  27  27  26  22  23  25  25  24  22  23  22  20  18  17  18  17  17  15  13  12  14  14  14  15  12  13  13  11  14  13  27  45  50  51  49  41  31  20  13  12  10  13  13  14  13  14  13  12  15  13  13  14  12  15  17  24  46  54  55  54  57  59  62  68  70  73  76  80  84  88  74  46  29  26  24  24  23  25  25  28  27  28  31  31  30  28  26  25  24  28  32  32
  27  25  24  23  23  24  24  23  21  23  23  20  18  17  17  16  15  15  13  12  12  13  16  15  13  11  13  12  13  12  14  26  44  49  50  47  42  31  19  18  13  12  12  11  11  11  12  12  12  12  12  15  19  28  31  45  53  54  54  54  56  59  60  66  69  70  73  77  76  70  48  31  24  21  24  22  24  24  26  25  27  27  28  29  31  28  27  25  25  26  31  32
  25  24  25  23  23  22  21  20  20  22  20  19  18  17  16  15  13  14  14  13  13  13  15  13  13  13  11  12  10  11  10  13  23  40  45  47  45  41  38  34  28  25  22  17  16  15  15  16  15  17  21  24  31  40  46  49  53  52  53  53  54  56  60  61  66  68  68  68  59  43  30  21  20  22  23  20  24  26  26  25  28  28  28  29  28  28  27  25  25  25  29  30
  24  23  23  22  22  21  19  19  20  21  20  18  16  16  15  15  13  14  15  14  13  14  14  13  14  12  13  11  12  10  11  11  12  21  34  41  43  43  42  41  38  38  35  31  31  30  27  27  26  28  31  35  38  44  48  49  50  49  50  51  53  55  58  62  61  60  56  50  39  29  22  21  19  23  19  23  21  26  24  26  26  26  28  28  29  27  26  25  24  26  27  27
  20  20  21  21  20  19  17  18  19  22  19  18  16  16  16  15  15  15  13  12  13  13  13  12  14  13  13  10  11  10  11  10  12   9  16  26  35  38  39  40  40  39  38  37  35  37  37  33  32  33  36  37  39  44  45  44  47  46  47  48  50  53  55  56  54  48  40  32  25  22  22  19  19  20  20  21  23  23  25  25  26  27  27  29  28  27  26  25  24  26  27  27
  21  20  20  20  17  17  17  18  19  19  19  19  16  16  15  14  14  14  13  14  12  14  13  12  12  11  12  12  11  10  10  11  10   9  12  12  18  24  32  35  37  38  37  38  37  36  37  35  34  34  36  37  37  39  40  41  41  41  43  43  46  48  48  46  40  32  27  20  20  18  20  17  19  17  24  20  23  23  26  24  25  28  27  27  27  25  23  23  25  25  26  28
  21  20  21  20  18  17  17  17  20  20  18  18  17  17  16  15  16  14  14  13  14  14  14  13  12  11  12  12  10   9   8   9   8   9   8  11  12  12  16  23  27  32  33  34  34  33  32  31  32  32  31  32  32  34  36  36  37  37  37  38  40  39  37  32  27  22  20  18  17  18  18  18  19  21  20  23  20  22  25  25  25  26  30  26  27  24  23  23  24  25  26  29
  20  19  19  19  19  16  19  19  19  18  17  16  18  16  16  15  14  13  13  14  14  14  13  14  12  11  11  10  12  10  10   8   9   8   8  10   9  10  10  12  14  19  22  25  26  27  26  27  26  27  26  25  26  26  28  28  30  31  30  30  29  28  23  19  16  17  16  17  15  18  16  19  18  20  21  21  21  24  24  26  26  26  27  28  27  23  24  25  23  25  26  28
  18  17  18  17  17  16  17  17  18  16  16  15  16  14  14  13  14  13  13  12  12  14  14  13  12  11  10  11  11  10   9   9   9   8   8   9  10   9   9  11  10  12  13  14  17  19  18  18  19  18  16  17  17  18  19  20  22  20  19  19  18  18  13  14  14  15  14  16  13  17  14  17  18  18  19  21  23  22  24  27  28  28  27  25  26  26  24  21  22  24  25  27
