P2
# Generated by OpenCV 3.4.0
92 112
255
  75  50  41  34  36  34  34  31  31  34  32  32  30  29  30  30  30  26  24  25  24  24  26  28  29  29  30  29  30  30  32  30  30  29  30  30  32  31  30  30  29  31  32  33  33  34  35  42  48  51  51  49  47  50  60  60  66 114 161 172 172 173 173 174 174 174 174 174 175 175 174 174 174 174 175 174 174 174 174 173 173 174 173 174 174 173 174 173 173 174 173 173
  58  44  38  35  34  34  34  31  32  31  30  29  28  24  24  23  23  23  21  22  22  23  22  27  29  32  34  31  35  34  37  33  29  27  27  29  30  31  29  31  33  35  34  32  32  31  30  33  41  45  52  52  47  47  52  53  56  62 102 160 172 174 173 174 175 175 174 174 175 175 175 176 175 175 175 175 175 175 175 175 175 174 173 174 174 174 174 174 174 174 174 174
  50  43  37  32  30  32  34  33  29  29  29  25  23  24  23  24  24  26  26  26  22  23  28  29  28  28  29  30  30  31  29  30  30  28  27  27  27  28  28  27  29  31  29  28  29  29  29  29  33  38  43  44  42  48  49  50  52  52  59 106 167 173 172 174 174 175 175 175 175 177 175 175 175 175 175 175 175 175 174 175 175 174 174 174 175 173 174 174 174 174 174 173
  43  38  33  30  30  33  33  31  28  27  26  23  23  23  26  28  31  31  30  30  27  29  29  29  29  27  26  28  30  32  30  29  32  31  30  28  26  26  27  26  26  27  29  29  30  29  29  29  29  32  36  39  42  43  46  50  49  51  48  55  95 148 170 173 174 175 176 175 176 175 175 176 176 175 175 175 175 176 175 175 175 175 175 175 175 175 174 175 173 175 174 174
  40  34  32  34  33  31  29  29  29  28  26  24  27  28  30  29  29  29  31  32  32  30  29  30  30  35  36  35  33  30  30  30  28  24  23  23  22  24  23  22  24  25  27  28  30  31  31  26  27  30  32  34  36  36  38  45  44  45  43  43  48  69 148 170 174 174 175 175 175 175 176 175 176 176 175 176 175 176 175 175 174 175 175 175 175 175 175 175 174 175 174 173
  37  34  34  35  30  30  28  28  29  28  29  27  29  29  28  27  24  24  26  28  29  27  27  28  28  31  33  30  29  29  30  28  27  25  28  25  26  25  24  24  25  25  26  27  30  32  31  28  27  28  31  34  35  34  35  42  42  38  40  49  50  51  88 162 172 173 175 175 175 176 175 176 176 176 175 176 175 175 174 174 175 175 175 175 175 175 174 175 175 175 175 175
  41  35  34  31  29  29  28  26  25  26  28  27  27  27  22  22  22  24  26  27  26  25  27  29  31  30  30  31  30  30  29  29  29  30  29  30  29  28  27  27  27  26  26  28  31  32  31  32  29  29  30  33  36  40  37  41  44  38  38  46  45  44  63 129 168 172 175 175 175 175 177 176 177 176 176 175 174 175 176 176 175 176 175 176 176 176 175 174 175 174 175 174
  35  34  32  30  30  30  26  25  26  28  27  27  26  28  27  26  27  26  26  26  25  26  27  28  28  30  27  24  25  26  29  28  28  28  29  28  25  27  29  28  26  25  25  22  27  32  30  28  30  32  32  36  43  45  42  38  40  38  38  44  46  47  55  97 145 172 175 174 175 176 175 176 176 175 176 176 175 175 176 175 175 175 175 175 175 175 175 175 175 175 174 174
  35  32  31  29  29  30  29  29  29  28  26  23  25  28  32  30  29  29  28  27  28  28  25  22  24  25  23  20  22  24  26  28  28  27  29  28  28  26  30  28  27  24  22  25  26  30  31  33  30  33  38  50  45  46  48  42  40  37  43  44  41  43  47  60 131 169 174 176 176 176 175 176 175 176 175 175 174 176 175 175 176 175 175 176 175 174 175 175 175 174 174 175
  35  32  30  27  26  28  29  28  25  25  23  24  24  26  29  30  33  34  32  32  30  29  25  25  23  22  25  26  27  28  27  27  28  28  27  28  28  31  28  26  24  21  21  24  24  26  32  31  33  37  47  48  54  60  57  56  50  41  40  39  41  43  44  54  93 162 171 173 174 175 175 175 175 175 175 175 175 175 175 175 176 175 175 176 176 175 175 175 176 174 175 175
  35  33  28  27  29  28  28  28  26  24  25  26  25  26  29  29  29  30  32  32  34  35  34  31  28  29  29  29  27  24  25  26  25  26  28  28  30  29  28  26  26  25  22  20  22  28  29  32  37  47  52  57  66  71  72  67  58  48  41  37  38  41  42  43  49 100 163 171 173 174 175 175 176 176 176 175 176 175 177 175 177 175 175 176 176 175 175 175 175 174 174 175
  32  28  26  28  28  28  28  27  25  25  26  25  25  26  26  25  26  27  27  27  28  28  28  27  26  28  25  23  22  24  27  24  24  27  28  28  26  25  25  26  27  24  21  22  28  33  32  38  45  52  57  68  75  84  89  86  76  63  51  41  38  38  37  42  50  58 138 169 173 174 174 175 175 175 175 176 176 175 175 175 176 175 176 176 176 175 176 175 175 175 174 174
  30  28  28  27  27  28  30  28  24  23  25  25  23  24  23  22  24  24  23  24  23  23  22  24  22  21  18  18  20  23  24  20  24  27  24  21  18  20  24  24  26  27  26  31  33  34  35  43  54  65  69  80  90  99 104 104 103  88  70  56  44  41  42  42  46  52  93 161 169 173 174 175 175 175 176 176 176 175 175 176 175 176 175 176 176 176 175 175 174 175 174 174
  32  30  28  24  26  28  29  25  23  22  22  21  24  23  23  22  24  23  22  19  17  19  21  19  19  18  20  23  22  21  20  21  28  24  19  15  16  21  21  25  30  32  30  34  35  39  44  52  63  73  78  87  98 109 115 119 120 112 100  83  62  48  40  43  45  47  54  82 149 168 173 175 175 175 174 175 176 176 175 177 175 174 175 176 176 176 175 174 175 174 175 174
  30  31  26  27  27  29  27  23  21  19  19  20  18  22  24  25  24  24  24  24  22  22  20  21  23  22  22  20  21  19  21  26  23  22  18  17  20  19  23  28  30  34  35  38  41  46  51  60  70  77  85  93 103 115 119 124 131 132 124 111  92  60  40  41  42  41  47  51  90 158 172 175 176 174 174 176 175 175 175 175 175 174 175 176 177 177 175 175 175 174 175 175
  30  29  29  27  24  26  28  23  20  19  18  18  20  22  22  22  23  24  22  21  20  19  22  24  24  23  19  16  18  18  27  23  20  19  21  22  20  22  25  30  33  34  39  43  46  52  57  67  73  80  88  97 109 118 125 132 139 139 137 134 121  88  53  41  40  42  45  48  73 147 169 172 175 174 175 175 176 175 176 176 176 176 176 176 176 175 175 174 175 175 175 174
  29  27  28  28  24  24  26  25  24  22  17  16  19  19  18  17  22  22  19  20  20  22  24  23  20  18  18  17  19  26  26  21  19  19  23  23  24  26  31  36  37  41  46  48  52  55  62  70  74  81  89 102 112 120 128 136 142 144 145 144 140 118  75  48  43  40  48  51  54 104 164 167 173 176 175 176 176 177 175 176 175 175 175 174 177 176 175 175 175 175 175 174
  30  27  26  24  24  22  24  24  24  23  20  16  16  16  16  15  15  19  19  20  23  23  21  19  18  16  16  16  22  28  22  20  19  19  24  25  26  28  35  38  41  45  47  51  54  60  66  72  78  85  93 104 115 127 133 138 144 150 151 149 150 139 101  66  47  42  50  52  51  65 122 160 171 173 175 176 176 176 176 175 175 175 175 175 175 176 176 176 175 175 175 173
  29  28  24  24  23  22  23  23  23  24  23  23  18  17  16  16  15  20  20  22  21  19  19  17  16  17  17  23  28  21  20  19  21  24  25  28  30  33  37  39  44  48  49  52  57  62  68  76  80  86  97 107 116 126 133 139 147 150 150 152 152 148 131  87  58  48  52  52  51  55 104 158 173 175 175 175 175 176 175 176 176 175 175 175 176 176 175 176 175 175 175 173
  30  26  25  24  25  23  24  22  22  23  22  23  23  20  19  17  20  20  21  20  20  19  16  16  16  19  22  26  23  20  21  24  24  27  29  31  33  37  39  43  46  51  52  56  59  66  70  77  80  90 100 106 112 124 132 138 145 148 150 152 153 152 142 110  72  50  48  51  51  54  91 157 170 176 176 175 176 176 177 176 176 176 176 176 176 176 175 175 174 174 174 174
  29  27  28  25  26  22  22  24  23  24  22  23  23  22  23  23  22  20  22  20  21  17  17  16  21  22  25  23  22  21  23  26  29  30  33  34  36  40  43  46  48  53  55  58  62  66  71  78  83  92 100 106 113 124 131 136 141 145 150 153 155 156 148 124  86  56  46  49  49  53  70 126 163 174 175 175 176 176 176 176 177 176 176 174 175 175 175 174 175 175 174 174
  28  29  27  26  26  25  23  23  22  22  23  22  24  24  25  24  22  20  20  22  19  17  18  18  22  23  23  23  23  23  27  29  31  35  37  37  41  43  46  49  50  54  56  60  64  69  75  84  86  95 100 107 113 124 128 132 138 143 146 151 156 158 152 132 102  67  48  51  51  53  60 124 164 173 175 175 177 177 177 176 177 176 176 175 175 175 175 175 175 174 172 173
  29  28  27  27  25  24  23  22  21  22  23  23  23  24  22  21  19  18  17  19  17  16  17  22  23  23  23  25  26  27  30  30  33  37  36  42  42  45  49  52  52  55  59  64  70  74  81  87  90  99 103 107 112 120 128 133 140 142 147 148 154 158 154 139 111  76  53  49  52  54  57  97 158 171 175 176 175 179 178 176 176 175 175 176 176 177 176 176 175 174 172 174
  30  27  27  26  25  25  24  24  23  23  21  22  23  20  19  17  19  18  18  16  16  17  20  23  21  23  24  26  28  29  30  33  34  38  41  43  43  48  51  52  54  59  64  68  72  79  84  89  92  97 104 108 112 117 125 131 140 143 146 150 154 157 155 144 119  82  55  50  52  52  54  88 149 171 175 176 176 177 178 177 176 177 176 176 177 176 176 176 175 174 173 173
  29  29  29  25  24  23  24  25  24  22  22  22  21  20  20  19  20  19  19  18  16  20  23  21  24  25  28  28  30  31  33  36  38  39  42  43  47  51  54  56  60  63  68  71  73  81  85  91  94 100 104 109 113 117 124 128 137 139 142 147 155 158 155 147 127  97  62  49  52  52  53  78 139 169 175 176 176 177 176 176 176 176 175 175 176 176 176 176 176 174 173 175
  29  27  26  25  24  23  25  27  27  26  24  24  21  21  21  21  21  21  20  18  21  22  22  22  27  27  30  30  32  32  36  39  41  41  43  45  50  54  58  61  63  67  71  73  77  81  85  91  96 101 104 107 115 119 124 128 134 138 140 146 155 157 156 148 132 101  70  55  49  52  52  72 129 165 176 175 177 179 176 176 176 176 176 176 176 177 176 176 176 174 175 175
  29  28  26  24  23  23  25  27  27  27  24  23  22  22  23  23  21  21  20  21  22  24  25  26  29  29  30  32  33  35  39  42  42  45  47  49  52  56  61  64  66  70  73  77  79  84  89  94  99 104 106 112 115 120 126 129 134 138 142 146 154 157 156 150 134 110  80  54  50  53  50  63 106 162 175 176 177 176 177 177 176 176 176 176 176 176 176 176 176 174 175 175
  31  29  29  23  24  24  24  24  27  27  23  22  23  23  23  23  20  22  22  24  24  28  28  28  29  31  33  34  35  39  41  43  46  47  48  51  55  60  64  68  71  74  76  82  83  88  90  95 101 105 108 116 120 124 128 131 136 140 142 147 153 155 157 151 137 117  88  61  51  51  50  60 105 160 175 177 177 176 177 176 178 178 177 176 176 176 177 177 177 174 174 175
  29  28  29  26  26  27  24  23  28  26  23  22  23  25  24  21  22  24  26  26  26  29  28  30  30  33  37  36  39  41  43  44  46  47  50  57  60  62  67  70  71  75  81  84  84  90  94  98 103 108 111 119 124 127 131 134 138 141 145 148 154 156 158 153 142 126  95  65  52  47  50  56 110 160 175 178 180 178 178 176 178 178 178 177 176 176 176 177 177 175 175 175
  30  29  30  28  28  28  27  28  28  25  22  24  24  26  26  23  26  28  28  28  28  30  29  32  32  37  40  40  42  43  45  47  50  50  54  58  62  67  70  73  75  80  85  88  91  94 100 104 107 111 115 118 121 124 130 137 139 145 149 149 154 156 157 152 145 134 107  68  48  45  50  61 103 163 175 178 177 176 177 178 178 176 180 177 176 175 178 178 176 176 175 176
  32  29  30  29  29  29  29  29  29  25  24  28  27  27  27  27  30  31  28  30  32  32  30  35  38  40  42  43  44  46  48  49  52  55  59  62  66  71  77  81  82  85  87  90  93  98 102 105 109 112 115 119 120 124 130 137 141 144 149 151 153 157 158 154 145 138 122  84  49  41  46  57 101 156 174 177 179 177 179 177 177 178 179 179 180 177 178 176 179 178 176 176
  31  29  28  27  27  29  29  29  29  27  28  29  30  29  30  31  32  32  32  34  36  33  36  41  41  44  45  46  47  48  50  52  57  62  67  70  74  79  80  83  87  89  89  95  97  99 102 107 109 111 113 117 118 122 126 133 136 144 149 152 151 156 159 156 148 142 133 100  51  39  45  58 102 157 173 177 180 178 181 180 178 177 180 180 180 181 179 177 179 179 178 179
  29  28  26  24  23  26  30  31  28  29  32  31  31  33  35  35  35  36  37  36  35  38  41  43  45  47  49  48  51  53  55  58  62  68  73  78  83  83  83  87  88  89  89  93  98 101 104 106 105 107 108 112 113 117 120 126 133 138 142 149 150 152 158 156 151 144 140 125  64  41  45  58 111 164 176 181 181 180 181 181 180 178 180 178 179 180 180 178 176 177 177 180
  31  27  24  22  22  28  30  32  34  34  34  36  39  40  40  37  40  41  41  40  40  44  46  47  49  50  49  50  54  56  61  65  69  75  79  82  86  90  87  88  91  89  90  89  96  99 100 102 100 103 105 108 111 111 114 117 121 126 127 135 138 145 153 153 152 149 147 138  94  50  44  61 116 167 179 181 180 181 180 179 181 181 182 180 179 181 179 177 179 177 179 180
  32  29  26  25  24  28  30  32  35  37  41  42  42  44  45  43  43  44  43  45  46  49  52  52  53  51  52  56  61  66  68  73  80  83  85  86  89  92  93  90  90  90  88  89  91  95  94  96  95 101 100 102 102 105 107 106 107 108 108 113 122 127 128 128 138 148 148 144 118  57  48  62 122 168 178 181 181 179 180 181 181 181 181 181 180 180 181 180 177 178 179 179
  31  30  29  28  27  27  30  32  36  40  46  48  47  47  48  44  47  49  48  50  52  53  53  55  56  57  60  63  67  71  75  79  82  83  85  87  87  88  92  88  87  86  86  87  87  87  88  91  91  94  92  91  95  97  95  92  93  88  89  87  90  89  96 100 114 138 148 148 136  71  53  63 117 170 178 182 181 182 182 182 181 181 181 180 181 181 181 179 181 178 178 179
  31  28  28  29  28  28  29  33  40  46  51  53  54  51  49  50  49  49  50  55  57  58  58  60  60  64  66  70  71  75  80  82  82  84  85  84  85  85  86  85  85  85  83  83  84  86  86  85  85  84  82  80  82  84  78  72  71  74  67  60  61  69  71  79  86  98 128 146 141  85  60  64 124 172 181 180 182 182 180 181 182 181 182 182 182 180 181 181 180 179 181 181
  31  28  26  24  22  24  29  36  44  49  54  54  56  52  52  52  54  55  59  59  60  63  65  65  64  69  73  75  76  78  80  79  81  82  83  82  83  85  85  84  83  83  82  82  81  83  82  78  74  74  72  70  69  65  58  53  49  49  46  43  47  46  49  51  58  69  93 138 146 114  66  65 132 174 180 182 181 180 182 183 183 182 182 182 181 180 179 180 178 180 181 178
  33  29  30  23  19  23  26  36  44  47  53  55  58  59  57  58  61  58  62  59  62  66  66  66  69  72  74  76  77  77  79  79  81  80  81  81  80  82  82  81  82  81  80  77  75  76  75  71  66  61  55  51  45  40  36  33  36  37  36  33  36  36  37  39  47  57  73 113 146 130  77  64 116 174 180 181 181 181 182 183 183 182 182 181 182 181 182 181 181 180 181 179
  35  29  29  23  21  21  26  33  40  46  54  62  66  66  63  64  62  62  63  61  65  67  66  67  69  73  73  73  74  75  76  77  78  76  76  76  78  78  78  80  80  77  74  72  72  69  67  61  50  44  39  34  32  30  27  27  27  27  28  29  32  35  40  44  53  59  76 110 137 143  90  62  95 166 178 181 181 181 182 182 182 182 182 180 181 181 181 178 179 181 181 180
  38  30  28  24  21  18  25  29  37  47  58  64  68  68  67  64  61  64  61  62  64  64  66  67  69  72  75  74  74  75  73  74  74  72  72  72  72  72  73  75  75  75  71  69  66  62  55  50  39  35  32  29  27  27  26  26  27  30  35  39  45  54  61  68  74  84  99 121 142 148 107  64  79 162 173 178 181 181 181 181 182 182 182 181 181 180 180 179 180 181 181 181
  45  31  29  26  21  19  23  29  38  48  59  66  69  70  68  62  64  64  63  64  63  61  63  66  69  71  73  73  71  70  68  68  66  65  66  66  64  64  70  71  71  73  69  64  56  53  48  42  35  31  30  28  27  30  31  34  38  43  47  53  64  78  87  92  99 103 113 128 142 153 135  67  68 144 175 178 180 181 181 182 182 182 182 182 182 180 180 180 180 181 181 181
  52  35  33  30  23  19  24  30  38  49  62  67  70  71  67  61  64  64  64  66  64  62  64  67  69  69  69  67  67  62  60  58  56  55  56  57  58  59  63  68  70  71  67  57  52  49  45  41  35  35  35  37  37  37  39  41  46  52  61  65  79  94 105 110 109 111 117 129 143 154 154  97  66 131 174 181 181 180 180 181 183 183 182 182 181 181 181 181 182 183 182 182
  76  38  34  29  24  22  24  28  37  50  65  68  71  72  72  68  69  68  66  64  62  63  63  65  63  63  61  58  54  51  49  46  43  44  46  46  51  54  57  62  69  68  65  59  53  49  45  42  43  44  44  42  42  40  40  38  40  47  55  66  75  93  95  90  98 110 114 127 142 153 159 135  86 143 174 178 182 180 180 181 182 182 182 183 182 181 182 181 182 181 180 182
 108  39  32  30  25  23  23  26  39  54  67  73  75  77  76  74  71  67  63  57  56  58  57  54  51  49  42  38  36  33  32  32  32  33  36  36  43  48  52  56  63  65  64  63  57  56  53  50  51  47  44  40  37  35  36  38  37  39  41  43  49  58  73  83  70  83 101 120 140 154 162 153 105 144 177 181 180 179 180 181 182 181 182 182 182 182 180 181 181 180 180 180
 135  55  33  30  28  23  18  24  40  57  69  76  77  78  77  73  68  63  56  53  51  46  41  41  35  31  29  28  27  24  26  24  25  26  29  30  35  42  47  54  61  65  68  68  66  65  64  58  52  44  39  36  34  36  35  30  27  25  25  32  54  67  60  61  71  84  98 119 142 155 162 162 117 136 174 180 181 179 181 181 181 181 182 182 181 180 180 180 178 177 180 181
 161 107  34  30  30  25  18  25  43  59  70  78  78  78  78  72  66  54  45  40  34  33  31  28  25  22  21  21  21  20  20  22  24  26  29  30  34  40  47  54  61  72  80  85  87  85  73  60  46  39  36  34  34  36  37  28  28  25  23  27  50 100  81  85  85  97 110 126 148 158 162 163 138 126 174 178 182 181 178 182 181 181 180 180 180 179 178 179 180 179 178 179
 168 151  78  32  31  25  21  25  43  63  73  77  78  80  78  71  54  40  33  29  27  26  23  22  21  20  21  23  19  20  23  26  28  31  31  32  35  40  46  55  65  77  88  98 107 102  81  59  46  39  36  31  35  46  52  35  28  25  24  27  50  72  86 105 114 118 126 136 149 161 164 165 150 111 171 178 180 178 179 180 180 181 181 179 178 178 180 179 178 177 177 177
 170 166 130  40  31  27  23  27  45  66  75  80  80  81  77  59  39  31  26  24  21  20  18  18  23  24  26  27  28  30  30  32  33  34  35  36  36  40  45  56  69  80  93 106 116 115  90  64  50  44  32  30  34  40  48  46  31  27  27  35  57  72  98 117 122 128 134 143 151 163 167 166 160 114 153 175 179 178 178 178 181 179 180 179 177 177 178 178 177 177 177 178
 170 170 152  88  34  30  27  29  45  68  78  83  83  80  70  44  31  26  24  21  20  21  22  26  32  35  37  38  37  35  32  32  33  34  35  36  36  40  42  53  69  84  96 108 122 121  96  77  56  48  38  36  38  43  48  48  50  53  57  58  67  82  98 114 122 132 137 149 156 164 167 167 161 128 141 173 177 178 178 180 179 177 178 178 178 178 177 178 177 177 177 178
 171 167 160 127  46  33  31  31  46  70  80  82  83  77  61  39  30  26  23  23  25  28  33  37  40  41  39  38  34  32  30  30  28  29  31  34  37  38  42  48  65  83  97 110 123 126 104  94  73  58  50  48  46  47  50  52  54  56  56  62  75  87  98 111 124 131 142 154 158 164 167 168 164 132 130 172 176 177 178 179 179 177 178 180 179 177 177 178 178 177 177 177
 170 168 165 150  89  38  34  31  46  72  81  84  81  70  59  40  32  29  28  31  36  37  39  39  37  39  42  38  31  26  24  26  29  29  29  33  40  41  43  47  60  82  98 114 123 130 113 104  94  81  66  56  51  49  50  52  56  56  60  68  77  90 101 112 122 132 141 152 159 163 165 165 161 132 124 170 175 176 176 178 178 177 176 177 178 176 177 178 177 177 176 177
 169 170 166 160 114  40  34  31  46  76  81  86  85  79  64  44  35  36  36  40  40  36  35  39  39  36  27  22  20  19  17  21  32  29  27  29  41  45  46  51  58  80  99 115 125 131 120 111 110 103  93  77  66  59  54  53  54  57  61  69  82  93 102 112 124 134 142 151 160 162 164 163 160 142 124 167 174 175 176 177 176 176 177 177 177 177 176 176 177 176 176 177
 169 169 168 160 144  57  37  33  43  75  85  88  87  77  61  49  45  45  48  45  36  35  39  35  31  28  20  22  23  18  18  22  35  31  27  30  42  52  52  56  59  76  96 114 127 135 130 118 117 114 110 107  96  84  78  75  75  78  81  88  95 102 105 114 125 135 143 152 157 160 162 160 155 142 127 169 174 174 175 176 174 175 176 176 177 177 176 176 176 176 176 176
 169 169 168 165 159  84  37  34  40  74  85  88  88  77  66  58  53  53  48  36  33  35  30  30  33  39  24  19  19  18  20  25  34  34  37  45  48  54  57  63  63  73  92 109 125 134 136 124 121 124 122 120 116 110 106 101  98  96  94  97 102 110 113 121 130 137 144 147 153 156 159 156 154 143 134 170 174 174 174 176 176 176 176 175 176 175 176 175 176 175 175 175
 169 168 168 164 131  90  43  34  38  70  86  88  88  79  68  64  58  52  42  33  33  28  28  33  48  53  33  21  18  19  24  36  40  40  42  47  52  61  66  72  67  71  86 105 124 132 139 132 127 128 131 129 128 127 126 121 117 111 110 112 112 115 120 126 130 136 146 151 154 154 154 152 151 141 137 171 174 174 174 176 176 175 175 174 176 175 175 175 175 175 175 175
 169 166 165 136  88  83  53  35  36  67  86  90  90  82  71  66  57  49  41  38  36  35  38  42  46  50  48  40  34  41  46  47  44  43  45  54  64  71  76  76  70  72  81  97 120 130 137 138 129 132 136 137 136 135 134 131 130 126 124 123 121 122 125 129 131 131 141 149 151 150 150 148 147 140 138 169 172 173 175 174 176 175 174 174 174 174 174 174 174 174 174 174
 168 167 166 121  57  51  47  33  36  67  89  91  89  84  78  71  60  53  49  51  52  47  52  50  51  49  48  48  48  46  44  49  46  47  55  69  78  80  77  76  74  73  81  91 110 123 133 143 135 134 137 139 139 132 131 130 128 125 126 127 127 130 130 131 132 132 134 143 146 148 146 143 142 133 140 169 174 174 174 174 175 176 174 173 174 174 174 174 174 173 173 174
 167 167 166 128  60  48  44  35  37  62  88  91  90  87  84  78  70  65  64  66  64  60  59  55  54  47  49  48  49  49  48  47  50  60  69  81  86  84  79  77  76  76  81  87 103 120 128 142 141 138 137 139 138 132 129 126 123 122 125 128 130 131 134 135 130 134 136 141 141 142 143 140 139 129 130 170 174 175 173 175 174 174 174 172 173 173 174 174 174 173 174 174
 166 166 166 140  67  51  51  52  43  63  90  92  92  89  88  85  82  79  78  79  73  70  67  60  57  52  50  49  50  50  51  59  67  74  83  90  89  85  80  80  78  78  80  87 100 114 124 140 143 139 137 137 136 132 126 121 120 121 122 123 123 126 132 133 130 135 136 140 140 139 137 136 136 124 132 169 171 173 171 173 173 173 173 173 173 173 173 172 173 173 173 174
 165 167 166 141  72  59  57  63  49  57  89  95  96  94  94  94  89  88  88  87  85  84  80  73  69  64  59  60  61  66  71  75  79  85  92  95  90  83  81  80  79  79  81  90 100 110 122 131 144 141 139 136 134 131 124 118 117 117 116 118 120 119 126 128 132 136 137 136 140 136 136 134 133 113 127 166 170 171 171 173 172 173 172 172 172 173 173 173 172 173 173 173
 165 166 165 150  73  60  58  64  60  53  92  97  96  97  97  97  99  96  97  98  98  95  90  87  83  81  76  77  78  79  82  85  92  95  97  93  89  83  79  78  77  79  82  89  99 107 122 130 144 142 138 134 132 130 123 115 112 112 114 115 118 118 121 125 128 136 134 135 136 137 136 133 130 104 129 165 168 169 171 172 173 170 171 171 173 172 173 172 170 170 170 172
 166 166 166 151  73  62  61  66  74  50  90  95  96  98  97  99 102 103 102 101  98 101  99  97  92  87  89  90  90  88  92  95  97  99  97  93  88  81  78  76  76  80  83  89  97 106 119 128 137 141 137 128 122 122 116 108 104 107 110 112 114 115 117 122 129 134 133 135 136 135 134 133 127 100 122 161 167 168 171 170 171 170 171 169 171 171 172 171 171 171 169 170
 166 166 166 153  78  65  66  66  74  53  86  97  97  98  99 102 102 104 104 104 101 102 104 101 101  96  97  96  97  98 100 103 101  99  94  89  87  81  77  77  75  80  85  95 100 108 117 127 134 139 138 134 111 103 102  99  96 100 104 107 112 114 115 120 122 129 132 134 135 135 135 132 123  91 120 151 160 167 168 169 170 170 170 170 171 169 170 170 169 171 170 169
 166 166 166 163  97  71  66  68  77  56  75  95  96  97 100 102 102 102 101 101 104 105 105 105 106 105 104 103 104 105 103 105 102  99  93  89  85  81  77  74  74  80  87  95 102 109 115 125 130 135 141 142 130  89  87  89  90  92  96 100 108 113 117 120 119 124 127 133 135 136 136 131 116  87 126 162 164 167 169 168 171 170 169 169 168 169 169 170 168 169 168 169
 165 166 166 164 126  78  69  70  80  58  65  92  94  95  98  98  99  99 101  99 102 103 103 106 107 108 108 110 110 109 103 102 100  96  91  89  86  82  75  70  68  79  93  99 105 108 116 122 123 129 139 143 143 119  75  77  81  87  91  98 103 107 108 118 121 125 128 133 134 136 136 130 108  79 119 162 165 167 167 167 169 168 167 168 168 168 168 168 167 168 169 169
 164 166 166 166 155  89  72  70  79  67  50  87  96  96  97  93  93  94  98  97  99 100 102 107 108 104 105 104 106 106 103 101  99  96  90  88  84  79  72  66  66  86  97 104 108 112 118 119 117 121 130 146 148 140 110  70  74  78  82  87  95 101 107 112 115 123 129 131 135 136 135 128 104  72 121 160 164 166 166 165 165 167 167 167 167 167 168 168 168 167 167 168
 165 164 165 166 162 134  81  75  84  77  47  77  91  93  92  91  90  90  91  92  96  97 100 100 100  98 102 100 100 100  97  97  96  91  88  89  85  78  68  59  70  92  99 102 107 111 111 107 102 109 120 136 141 131 127  87  72  74  78  84  88  95 101 108 116 122 127 130 134 137 135 127  96  72 127 159 162 162 165 165 165 166 165 167 167 166 166 167 168 167 167 167
 164 164 165 166 164 160 119  87  85  85  54  66  87  91  90  88  88  88  88  90  90  93  94  94  93  93  96  95  96  98  98  96  95  92  88  86  81  75  64  57  79  94  98  98 100 101 100  97  96  98 104 117 122 107 105  96  85  79  76  80  86  92  99 107 111 120 125 132 136 137 133 117  88  72 124 155 161 162 164 166 165 166 166 166 165 166 166 166 167 166 166 166
 165 165 165 166 166 163 157 105  87  87  67  51  80  88  89  87  84  85  86  86  89  89  88  89  90  90  93  92  95  95  95  93  91  90  88  83  79  72  60  60  82  88  89  91  88  87  89  88  85  83  87  97 101  71  79  95  98  92  84  82  84  90  97 104 112 118 126 132 138 139 130 113  85  71 134 156 160 163 163 164 165 165 163 166 165 165 165 166 167 165 165 166
 164 165 165 165 166 165 163 150  95  88  88  50  69  84  85  84  83  84  86  85  86  85  85  86  87  89  91  93  91  91  94  91  89  87  84  80  75  68  60  69  81  74  71  71  72  70  71  74  72  71  74  82  84  72  82  98 107 106 101  93  87  90  92  98 110 116 122 129 137 139 132 107  81  77 132 158 161 162 163 163 164 164 164 163 165 165 164 166 166 166 164 163
 164 165 164 165 164 166 164 163 136  90  79  63  57  80  84  83  80  83  83  82  84  85  84  82  85  87  87  90  88  89  91  89  88  86  83  79  72  67  62  73  75  61  52  50  53  55  55  57  57  58  63  73  79  87  84  99 108 111 112 107  96  92  92  96 104 112 121 126 131 134 123 100  78  76 128 154 159 161 163 163 163 163 162 161 163 163 164 164 167 164 165 165
 164 164 165 165 164 165 164 164 161 124  87  76  52  64  78  80  76  80  78  79  82  82  82  81  82  83  83  86  88  88  88  87  87  84  79  73  68  65  66  64  58  43  34  30  27  39  45  46  46  49  58  64  66  74  76  94 106 110 116 118 113 105  98  95  99 107 119 125 129 131 116  87  72  65 120 153 158 159 159 161 161 161 161 161 162 160 163 162 163 162 162 164
 165 164 166 167 164 166 164 165 164 160 120  93  67  52  70  76  75  77  76  78  79  78  77  81  80  79  84  83  86  87  88  87  85  82  77  71  67  69  70  64  51  39  33  33  33  35  36  39  43  44  48  45  43  49  58  72  91 100 110 118 118 116 110 100  96 102 115 125 125 124 108  81  72  70 121 149 155 157 158 157 159 159 160 162 162 162 162 160 161 160 162 163
 166 166 166 164 166 165 166 164 166 164 161 127  89  48  55  69  72  73  73  73  75  74  76  79  80  78  82  84  86  84  85  84  80  79  74  70  68  74  73  67  58  47  37  36  39  36  35  37  36  36  35  31  30  37  46  51  65  78  93 105 109 110 112 110 101  98 108 118 125 122  99  75  67  78 134 149 155 156 155 156 157 158 158 159 159 159 160 160 160 161 161 162
 165 166 166 165 165 164 164 164 164 165 163 156 103  61  45  58  72  70  71  71  72  73  77  78  79  80  81  82  85  84  84  80  77  79  74  71  73  79  78  69  64  54  43  37  32  30  30  32  34  34  31  30  30  32  43  47  50  58  70  81  89  90  95 102 103  96 103 112 119 115  93  72  63  78 139 150 155 155 156 157 158 157 157 157 158 157 159 159 158 160 160 160
 163 164 164 164 165 164 164 164 163 163 162 159 141  81  49  48  64  69  71  69  72  75  77  78  78  82  83  83  83  84  84  81  81  78  73  72  77  82  79  72  65  55  46  40  32  29  29  32  31  34  31  30  29  30  39  43  46  48  54  62  66  70  72  75  87  92  98 108 114 109  87  67  62  86 139 152 154 154 154 156 155 154 156 156 157 157 158 156 158 159 160 159
 163 162 162 163 163 164 162 163 162 162 161 161 157 130  62  43  50  63  68  67  71  72  75  78  78  79  80  82  83  84  82  80  80  75  73  75  80  82  80  73  62  50  42  38  32  30  29  33  34  32  32  32  31  32  40  42  48  48  52  60  61  59  62  66  68  78  92 104 111 106  79  70  68  91 146 152 152 152 152 154 154 153 154 154 155 156 156 157 157 158 157 157
 162 162 163 162 161 162 161 162 161 161 159 158 158 154 123  41  42  53  60  65  69  72  76  76  77  79  78  79  81  82  82  80  79  75  76  79  83  81  77  69  56  40  36  31  30  30  31  34  33  35  37  36  34  36  42  44  51  55  60  65  61  54  54  55  63  72  87 102 108 100  79  71  68 102 146 150 151 153 153 153 153 152 153 152 155 155 155 155 156 156 157 157
 162 162 161 161 161 161 161 161 161 160 159 158 156 153 145  85  38  44  49  60  67  73  75  77  75  78  78  77  79  81  80  80  76  75  77  80  80  76  70  63  48  34  30  31  30  28  31  36  36  40  46  46  45  42  45  52  56  62  67  71  65  55  54  51  57  68  84  96 102  96  76  67  68 110 145 149 150 150 150 151 153 152 153 153 154 154 155 155 154 154 156 157
 161 160 162 161 161 160 161 160 160 160 158 157 155 155 149 125  38  38  44  51  62  66  71  75  74  75  74  75  76  77  78  77  75  74  76  77  69  61  60  53  41  31  30  29  30  28  31  36  43  49  56  60  54  49  48  50  52  54  59  63  61  52  47  50  54  64  81  92  92  84  71  60  66 117 145 148 150 149 147 147 149 149 151 151 152 153 153 153 154 154 154 155
 160 160 161 162 160 160 160 158 158 157 156 155 155 154 152 140  60  37  42  43  50  56  66  70  72  72  74  73  72  73  74  75  73  73  71  68  58  50  48  43  36  30  30  32  30  32  38  46  54  57  61  56  42  36  34  34  35  38  41  42  39  38  40  45  50  58  76  88  84  80  69  57  57 122 144 148 148 148 146 147 148 148 148 149 151 151 151 152 152 152 153 153
 160 160 160 160 158 158 158 156 157 153 153 154 154 153 153 147 108  39  39  42  45  47  55  62  66  70  71  71  70  72  72  72  70  68  63  52  44  41  40  38  37  31  32  34  35  40  44  42  42  39  39  38  35  33  26  22  21  26  42  48  55  55  50  47  52  56  73  86  83  77  67  55  61 129 144 145 146 148 146 148 147 147 146 147 148 149 149 149 150 150 152 150
 158 158 159 158 156 155 155 154 154 154 153 153 153 152 151 148 143  74  36  37  39  40  45  53  62  66  70  71  71  71  70  69  68  64  53  41  34  37  38  39  38  32  35  37  39  38  34  33  30  34  35  38  37  32  20  18  25  42  71  74  81  74  68  58  56  58  76  81  80  75  64  51  65 133 142 143 143 144 144 146 145 146 146 145 147 146 147 146 146 146 148 147
 158 156 156 155 156 154 154 153 152 154 154 153 152 152 151 148 147 132  58  36  38  34  36  44  54  60  66  66  68  69  69  66  63  54  43  34  31  33  35  42  42  38  35  33  30  28  29  34  35  36  31  29  26  22  23  29  45  63  77  86  88  84  86  73  66  66  79  85  74  71  56  46  81 137 141 141 141 141 142 146 145 146 145 144 145 146 148 147 148 148 147 148
 155 155 154 154 154 154 154 153 153 152 151 150 149 150 149 148 148 143 110  38  36  34  34  38  46  54  61  63  66  66  67  64  61  47  36  29  29  35  37  40  37  30  28  26  21  18  19  28  27  25  23  24  28  31  39  46  61  73  75  85  92  91  91  85  71  69  78  82  68  62  50  46 105 136 140 142 141 141 141 144 145 144 146 145 145 144 144 146 146 147 147 148
 154 155 154 152 153 152 152 152 150 150 150 150 150 150 148 147 145 140 132  85  33  35  35  36  38  44  52  57  59  62  64  63  56  42  30  28  31  34  33  28  24  24  25  26  25  23  24  26  28  28  32  40  52  60  58  60  62  71  76  90  96  95  92  86  76  72  77  78  59  50  43  48 119 132 137 139 139 139 140 140 140 140 142 143 142 141 143 142 144 144 146 145
 152 153 153 152 152 153 152 151 150 149 149 148 148 148 147 145 143 141 139 128  60  37  35  34  31  33  39  47  52  57  62  62  55  42  28  27  30  31  29  27  29  31  33  33  40  38  41  45  56  53  49  55  62  64  61  66  67  68  78  90  90  90  89  83  73  74  76  75  53  41  39  42  81 123 136 139 139 139 140 141 140 139 140 141 142 141 143 142 141 143 144 143
 151 152 151 151 151 150 150 149 148 149 146 147 146 148 146 144 144 144 142 138 108  38  33  31  28  29  32  39  46  50  55  57  53  40  29  31  33  36  38  37  39  41  42  41  42  46  50  55  58  60  54  54  54  59  61  60  62  70  80  83  84  86  86  78  69  69  74  69  42  36  38  45  53  74 120 133 138 138 139 140 141 140 140 140 142 143 142 140 141 140 141 142
 150 151 149 149 150 150 148 148 147 147 146 146 146 144 144 144 143 141 140 138 130  64  30  29  30  30  29  34  39  43  46  50  48  42  35  34  38  41  46  46  47  46  47  47  46  45  49  53  55  57  55  53  52  53  54  54  61  69  72  79  80  81  78  71  62  58  66  56  38  33  36  42  45  48  50  83 123 134 136 138 139 138 138 138 140 140 140 141 141 140 142 141
 150 149 148 148 147 148 147 147 145 145 145 144 144 144 142 142 140 139 138 134 117  64  30  27  29  28  27  31  34  36  40  42  46  44  39  36  43  47  50  52  53  50  48  45  46  47  46  47  50  52  48  48  46  44  45  49  56  58  64  71  81  78  75  64  58  51  54  46  33  52  36  40  43  40  42  54  78  94 113 127 131 132 132 135 136 138 139 138 139 138 139 139
 148 146 147 146 147 146 145 146 144 144 143 142 142 139 140 137 135 123 115  98  47  34  29  27  23  27  27  31  33  32  33  37  42  42  40  37  43  50  53  54  55  56  52  47  44  45  44  43  43  42  39  39  38  36  38  42  48  53  60  68  79  72  69  58  49  46  47  39  33  77  41  34  42  42  38  45  57  63  68  84 103 121 130 132 131 134 136 137 138 138 138 140
 145 146 146 145 145 143 143 142 143 143 141 141 139 138 134 116  82  56  41  42  31  29  27  23  23  24  28  30  29  29  30  35  39  42  40  38  47  52  57  56  55  55  53  48  45  42  42  41  38  35  33  31  31  30  33  38  41  51  63  73  75  70  63  51  43  39  38  32  45 104  73  33  39  41  39  40  48  53  55  59  63  67  91 110 125 131 134 135 135 136 137 138
 144 146 145 144 143 142 141 140 142 141 140 138 136 124  85  49  37  31  31  29  28  26  23  18  19  19  20  25  26  28  29  30  34  37  38  37  43  50  54  55  56  57  55  50  48  44  40  38  32  30  28  26  26  29  31  36  46  57  66  69  72  67  59  47  38  34  31  29  79 116 107  34  36  38  39  37  43  48  51  50  48  53  57  64  75  91 114 132 132 134 135 134
 143 142 143 143 140 139 140 138 138 137 133 122  91  62  42  33  27  24  29  26  24  24  19  15  17  19  15  16  22  25  26  29  33  33  33  33  40  44  49  54  59  62  58  54  51  47  44  39  32  30  27  25  26  30  35  43  57  64  52  48  56  59  52  48  41  29  30  40 106 119 123  46  36  37  38  37  41  46  48  45  43  45  47  50  54  64  73  82 109 126 132 133
 142 140 139 139 138 138 136 134 130 115  88  60  50  36  29  27  25  23  23  24  23  20  15  12  19  36  21  15  16  19  23  27  30  31  29  31  34  39  46  51  55  62  63  59  55  53  50  44  40  34  31  31  34  40  46  54  64  64  48  41  44  50  48  48  40  30  39  73 107 118 120  54  34  37  37  34  37  43  47  43  39  39  42  44  43  47  56  63  69  74  85 115
 139 138 138 135 132 129 100  78  62  54  51  41  33  27  24  22  20  21  24  24  24  19  14  11  25  52  40  26  17  15  16  23  27  27  26  25  29  32  40  44  50  62  65  68  64  59  56  54  52  47  45  46  47  48  52  58  62  58  49  42  41  43  44  42  34  28  50  93 108 118 119  51  34  33  36  35  36  44  46  42  38  37  39  42  39  39  46  50  60  64  61  62
 132 127 119  96  74  57  51  48  46  39  32  28  24  24  21  19  19  21  23  21  22  19  13  12  30  54  52  45  31  20  16  17  20  21  20  20  25  26  31  37  48  59  67  70  72  68  67  64  63  61  58  56  53  53  54  53  56  53  46  42  38  39  43  36  30  29  65  98 109 115 114  44  31  32  34  34  36  39  42  39  37  37  36  38  37  34  40  45  52  58  58  57
  88  62  53  46  42  39  39  40  35  29  26  24  22  21  19  17  20  21  21  20  21  18  14  13  32  55  60  51  43  34  18  14  15  15  16  17  21  22  28  33  42  54  59  62  68  70  68  67  64  61  60  58  57  55  51  48  50  47  40  37  35  32  41  33  27  40  86 102 112 116 106  36  30  33  29  33  34  39  37  38  36  35  34  34  33  34  37  39  46  52  53  53
  47  43  40  37  34  32  36  33  27  26  23  22  20  20  17  14  18  19  19  20  19  17  15  14  33  56  61  57  50  45  35  21  16  14  13  13  14  15  22  27  32  42  48  54  62  60  59  59  56  56  60  58  57  53  49  46  43  39  35  31  32  34  35  27  26  56  91 104 110 112  81  33  31  32  30  29  33  35  38  38  34  35  33  32  32  32  35  38  44  47  48  49
  36  34  32  31  30  30  33  28  24  22  21  22  21  17  15  15  18  17  19  19  18  17  15  15  31  54  60  60  57  49  44  39  30  20  15  12  13  13  17  19  27  31  36  42  48  48  50  48  48  50  52  49  48  48  43  38  33  30  30  27  26  29  27  24  39  73  94 104 108 110  56  29  28  31  27  30  32  32  35  38  35  34  32  33  32  32  33  38  40  41  45  46
  32  29  28  26  27  31  30  27  22  20  20  20  18  17  16  15  17  17  19  16  18  16  16  14  28  54  60  62  60  56  48  43  41  34  25  19  16  12  12  14  18  24  27  31  36  35  40  41  40  45  44  42  41  38  35  31  35  28  24  24  22  23  23  39  72  85  96 102 106  95  41  28  29  27  31  29  32  33  30  32  33  31  32  28  29  30  32  34  36  38  37  38
  28  26  28  26  25  28  26  24  21  19  19  19  17  15  14  12  15  18  16  17  17  15  16  12  23  50  60  61  61  59  55  50  44  40  35  33  29  21  15  12  14  17  22  24  29  25  30  33  32  33  33  32  32  30  26  26  32  23  21  22  18  21  37  65  79  90  95 100 101  63  31  28  26  27  28  31  33  31  32  30  30  32  29  26  27  31  32  33  33  34  35  36
  26  23  24  24  26  25  23  21  19  18  18  16  16  14  13  14  15  16  16  16  14  15  13  14  18  44  59  61  62  60  60  53  51  46  41  39  35  31  28  18  15  15  16  19  20  20  23  25  26  27  25  28  25  25  20  18  26  19  18  17  20  35  59  73  84  90  95  99  86  39  27  26  28  24  30  28  30  32  33  33  32  29  29  27  28  27  30  31  33  33  35  33
  25  24  24  26  23  23  22  19  19  16  16  16  16  13  14  14  14  14  18  16  15  17  16  13  17  37  57  65  63  62  61  57  54  50  44  42  38  36  30  27  23  14  13  14  15  14  15  16  18  18  18  22  18  16  15  14  19  17  18  23  35  53  66  74  80  87  91  91  56  28  22  27  25  27  26  29  28  30  32  33  32  30  26  25  26  27  30  32  33  33  32  31
  24  23  23  24  22  22  22  19  18  17  16  16  17  14  14  15  14  14  16  15  16  14  16  15  14  24  51  62  65  63  61  58  54  50  46  44  41  38  36  35  32  25  16  15  12  10  11  12  13  13  15  14  12  12  13  14  17  24  27  35  48  56  66  72  78  84  85  66  33  23  23  22  24  23  26  27  29  29  30  31  29  28  25  24  24  29  31  33  31  32  31  32
  22  21  23  22  20  21  21  18  16  16  16  16  15  15  14  15  16  16  16  15  13  14  14  12  14  15  37  57  63  62  63  57  53  49  45  43  40  38  37  38  36  33  27  21  17  13  10  11  12  12  14  14  14  17  18  22  24  33  40  45  50  55  63  70  75  78  68  38  25  21  23  21  23  23  26  26  26  28  29  31  28  27  25  25  24  27  30  32  33  33  31  30
  21  21  22  18  18  20  21  17  16  16  16  14  14  14  13  14  14  14  15  15  14  13  13  12  14  12  21  45  58  60  61  57  54  49  46  43  40  38  38  38  37  36  33  30  26  21  20  19  18  20  24  24  28  32  31  34  34  39  44  48  51  56  60  66  66  60  36  24  20  23  21  23  21  25  25  25  26  27  29  29  26  25  25  24  24  25  28  29  29  31  29  30
  19  20  20  17  16  20  20  16  15  16  14  13  15  15  14  13  13  14  14  14  13  14  12  12  12  12  13  21  42  54  54  53  51  49  44  43  42  40  39  39  40  39  36  33  31  28  28  26  28  29  30  33  37  37  38  38  38  40  44  48  52  54  57  55  49  33  20  18  20  20  22  19  24  24  25  24  25  27  28  27  26  26  24  24  24  26  27  29  29  30  31  29
  21  17  18  15  18  20  19  17  13  15  14  11  14  15  13  13  14  14  13  16  15  13  13  12  13  10  13  13  19  36  45  48  47  45  42  43  42  42  42  42  42  41  38  37  35  33  31  32  31  31  34  36  37  38  38  38  39  42  44  47  53  54  51  42  29  21  20  17  19  19  21  20  23  25  21  24  26  26  28  28  26  25  25  24  24  25  28  27  29  31  32  31
  22  17  16  17  17  19  18  15  14  15  14  13  13  13  12  12  14  13  14  15  14  14  14  10  12  12  13  10  12  16  28  36  39  41  42  42  42  42  42  42  42  43  39  38  37  36  34  36  36  35  36  34  35  36  37  37  39  43  46  50  50  46  37  26  18  18  18  19  17  20  18  22  22  22  24  26  27  26  26  27  26  25  23  25  25  25  27  28  30  31  32  31
  15  15  17  18  18  18  18  16  16  15  14  13  13  12  11  13  14  15  14  14  13  13  12  12  13  13  12  13  10  11  14  19  28  31  37  40  42  43  43  44  43  43  41  38  38  37  37  36  35  34  33  32  32  34  34  35  38  38  43  44  41  32  22  18  17  18  17  18  15  20  20  19  23  23  24  24  26  26  26  25  25  24  21  21  24  24  26  28  27  27  28  28
