P2
# Generated by OpenCV 3.4.0
92 112
255
 151 146 140 126 108  75  48  39  34  34  32  29  28  27  27  24  24  24  24  27  26  26  25  30  29  28  27  27  29  28  26  25  25  28  27  27  27  28  29  30  29  29  28  26  24  22  21  23  23  20  24  23  23  23  24  25  31  34  35  35  37  34  30  32  39  46  49  49  52  65 138 159 165 167 166 166 166 166 166 166 167 167 166 166 167 167 167 167 167 166 167 166
 147 149 133 126 102  59  45  39  35  34  31  29  27  25  27  24  25  25  26  26  25  26  26  25  24  22  22  24  24  27  31  30  27  27  28  25  24  23  25  26  29  28  21  18  19  21  23  24  23  24  25  22  22  24  23  23  25  27  32  32  35  37  31  29  32  41  48  45  44  51  84 150 165 167 168 167 168 168 167 168 167 167 167 167 169 167 167 167 167 167 167 167
 154 151 140 123 103  67  48  39  35  36  31  27  24  24  30  29  28  28  27  27  26  25  26  21  20  22  23  23  27  27  26  26  26  26  28  28  26  23  26  29  28  24  24  23  22  22  21  22  23  24  24  24  24  26  25  24  24  25  28  30  34  36  36  31  30  35  43  42  41  45  49 116 161 167 168 166 168 168 169 168 168 168 170 168 168 168 168 167 167 168 167 166
 157 149 138 124  96  66  48  40  35  31  28  28  27  27  28  27  25  24  24  25  26  26  30  30  28  25  24  24  24  24  24  23  24  24  26  32  33  33  31  29  26  24  26  25  22  22  17  18  20  20  23  27  26  26  25  24  25  25  25  30  32  33  34  33  30  30  38  39  39  35  47  80 146 165 166 168 168 168 169 168 168 168 168 168 168 168 168 168 168 168 168 167
 156 145 148 123  98  62  46  40  35  31  29  29  29  28  29  28  26  26  24  23  24  26  27  30  30  26  25  25  24  22  23  23  23  23  29  31  29  29  28  28  27  28  24  19  16  15  15  17  18  18  20  22  24  22  19  21  21  24  24  27  30  36  36  35  32  31  34  37  40  35  38  48  92 148 163 168 168 169 170 168 169 169 170 170 169 168 168 168 169 168 169 168
 156 153 149 136  87  59  46  39  35  32  29  27  29  28  28  28  28  25  24  25  24  25  28  29  33  34  28  29  27  24  26  26  25  27  28  29  28  28  25  25  24  20  18  15  15  16  14  15  16  14  16  18  21  22  20  21  21  22  23  26  30  32  33  31  32  32  33  36  37  38  34  36  47  86 155 166 168 169 170 169 170 168 170 169 168 169 169 169 169 168 168 168
 157 158 152 126  85  51  45  37  33  32  27  26  29  28  29  28  25  25  25  25  25  26  28  28  29  33  32  31  28  23  23  21  19  22  22  23  18  18  23  24  22  18  19  22  19  18  17  17  16  15  15  16  18  18  20  18  20  23  24  25  27  28  30  33  34  32  33  32  34  35  33  36  36  48 123 165 168 167 168 169 170 170 169 168 169 170 171 169 169 169 168 168
 158 158 155 120  73  49  43  35  30  31  27  27  29  27  26  25  24  24  25  25  27  25  24  27  27  29  30  34  35  33  27  20  21  20  16  16  15  17  18  18  19  20  20  18  19  20  18  16  16  17  16  17  17  18  20  20  23  23  20  23  26  27  29  35  30  31  32  33  31  30  37  42  36  42 103 160 166 166 168 168 169 169 169 170 170 169 170 171 170 170 170 168
 159 159 148 109  68  46  39  31  29  30  27  27  27  28  24  23  23  22  24  23  23  24  24  18  21  21  25  27  29  32  33  32  27  19  18  20  20  20  20  20  19  19  16  17  19  16  16  17  18  18  16  17  16  21  22  24  25  24  22  25  25  28  31  34  31  34  34  32  29  30  40  36  30  41  74 148 165 168 168 168 170 170 170 170 169 169 171 172 170 169 170 167
 159 157 132  96  58  41  37  32  29  29  29  26  24  26  25  21  21  21  21  21  22  22  22  17  22  21  17  20  22  23  24  25  27  26  29  27  26  23  21  22  21  19  17  19  18  18  18  18  18  17  16  17  17  17  20  23  22  22  26  27  27  28  31  33  36  37  37  33  28  30  38  39  37  43  66 120 164 169 170 171 172 171 171 169 169 170 171 171 171 169 170 167
 161 157 131  81  46  41  37  33  29  27  27  25  24  24  26  24  22  21  20  21  22  23  23  21  19  19  18  19  16  18  18  16  19  22  21  18  19  19  20  23  19  18  17  19  19  18  20  21  19  18  16  16  16  17  21  24  23  26  26  28  29  30  35  41  44  44  41  35  30  37  36  34  35  39  50 116 164 168 168 171 172 170 171 168 169 171 171 171 171 171 169 169
 161 161 144  65  44  37  34  30  29  27  26  24  24  24  26  24  23  19  16  18  22  23  23  23  21  19  20  19  16  16  17  15  16  15  15  15  15  16  18  20  17  15  20  19  19  18  20  18  17  18  16  16  17  19  22  25  29  27  30  33  35  44  52  55  54  50  46  38  31  35  33  32  36  37  49  72 158 164 168 170 170 169 168 171 169 170 172 171 169 172 172 171
 163 162 140  63  40  34  30  28  28  27  26  25  24  23  24  25  24  21  16  17  19  18  17  20  19  22  22  22  21  18  17  17  16  16  17  18  20  19  18  16  17  20  20  19  18  16  16  17  18  18  18  17  16  19  22  25  29  33  37  42  53  59  65  69  68  59  50  42  32  30  31  33  36  36  38  43 122 163 167 170 170 172 171 172 170 171 171 172 172 171 171 172
 161 158 134  49  39  33  30  29  29  30  28  27  24  24  23  25  25  23  22  16  18  18  16  17  17  16  17  18  17  19  20  20  22  20  21  19  18  17  15  15  21  22  19  18  16  15  15  17  19  19  21  19  20  25  26  28  31  39  47  54  60  74  77  84  84  74  61  48  38  33  32  33  32  32  37  45  92 162 170 171 171 172 172 171 172 172 172 171 172 172 172 170
 158 154 105  47  39  30  29  29  28  27  28  27  22  24  25  23  24  24  25  24  23  19  16  14  17  18  17  17  19  20  20  22  20  17  16  15  17  16  16  20  18  18  15  15  16  16  16  19  20  22  24  23  26  30  30  34  41  50  62  64  75  84  98 102  98  96  85  66  49  40  33  32  32  34  41  44  73 155 168 171 172 171 172 172 173 172 172 172 172 172 171 172
 159 147  95  48  39  33  30  29  29  26  26  26  25  25  24  24  23  22  24  25  25  20  17  16  20  19  18  20  22  19  18  18  17  15  15  15  15  18  21  19  16  16  16  16  16  17  18  22  24  26  28  30  32  32  34  39  45  59  70  80  88  97 109 112 110 107 101  91  77  61  43  35  35  36  40  42  57 131 161 168 171 172 172 173 172 173 173 172 172 172 172 172
 157 149  83  46  38  32  31  29  27  27  27  27  26  25  24  23  25  22  21  21  23  23  22  20  20  20  22  19  18  17  16  17  16  15  15  15  20  22  19  16  15  15  18  18  18  19  24  26  27  28  29  31  33  37  40  46  52  64  75  87  95 105 117 118 116 118 115 106  93  72  49  35  32  36  37  38  44  63 134 165 169 171 173 173 173 172 172 172 172 172 171 172
 162 150  74  46  39  35  30  29  27  27  26  26  26  27  23  24  24  25  24  23  25  23  22  22  21  22  19  17  16  15  15  15  15  16  16  22  24  18  16  15  16  18  18  20  23  24  25  27  29  30  33  35  37  40  45  50  55  68  80  91  99 107 113 117 125 127 125 120 111  95  65  36  34  36  35  37  41  48  92 161 169 170 173 173 173 172 173 172 172 172 172 172
 160 144  76  43  39  36  32  29  28  26  26  25  26  26  26  23  24  23  24  24  26  22  22  22  21  20  20  18  16  16  17  18  19  20  24  25  19  18  16  17  19  19  21  23  25  26  28  29  31  34  35  38  42  45  48  53  58  70  81  90 102 108 114 116 127 128 130 131 127 117  84  45  36  34  35  36  36  47 101 161 169 171 172 173 174 173 174 173 171 172 172 172
 160 143  59  38  39  35  31  29  28  24  27  26  25  28  28  27  26  22  23  20  21  22  19  20  19  18  18  17  16  18  18  19  20  23  20  20  18  19  19  21  22  24  25  26  26  29  30  31  34  37  36  41  45  49  52  56  62  70  79  89  98 108 110 118 125 131 133 135 136 131  97  58  41  36  34  38  38  41  75 155 167 170 172 173 173 173 174 172 173 174 172 172
 163 146  51  38  36  31  29  29  29  26  26  24  24  27  28  28  27  23  22  22  20  19  21  18  18  17  17  16  16  18  19  21  22  19  19  19  19  21  23  25  26  27  28  30  30  31  31  35  37  40  44  44  46  49  53  60  68  72  77  85  94 100 108 116 121 128 135 140 140 136 113  74  47  34  34  44  45  40  62 142 164 170 172 171 173 172 174 172 173 173 171 172
 163 144  56  43  38  35  30  30  29  27  27  27  25  29  28  26  26  23  22  23  23  22  19  20  19  16  18  18  21  22  21  22  22  22  24  24  24  24  26  27  28  30  30  30  30  33  34  38  39  44  46  47  49  52  56  59  66  74  78  84  91  99 107 113 120 130 135 139 142 139 124  91  55  39  39  49  46  43  57 113 156 167 170 172 172 172 172 172 173 173 171 171
 162 146  72  47  37  33  31  30  29  29  28  28  27  31  31  24  23  24  24  23  23  23  21  20  19  16  19  20  22  19  22  23  23  25  26  26  26  26  28  28  29  30  31  31  34  35  37  38  42  43  46  48  49  53  57  59  65  74  77  85  91 100 109 112 118 127 132 137 140 136 127  99  61  43  40  47  46  44  53 119 158 168 170 172 173 172 172 172 172 173 172 172
 163 155  92  47  37  32  30  28  29  30  30  30  30  31  27  24  23  25  28  27  25  23  22  21  20  21  21  23  23  24  26  26  29  28  29  29  29  30  29  30  31  32  32  35  37  37  41  41  43  44  48  48  52  57  60  61  68  71  77  85  93 100 106 110 117 123 131 136 139 136 127 103  70  47  41  46  47  45  55 116 156 168 171 172 172 172 172 172 173 172 172 171
 163 159 113  46  38  32  28  25  24  26  29  30  32  30  24  25  26  29  28  26  23  23  24  24  23  23  25  27  25  27  28  28  29  30  29  30  30  31  30  30  32  34  36  38  40  42  43  44  44  46  48  51  54  57  60  64  70  74  76  85  93  99 103 108 116 124 132 138 139 135 126 104  77  51  41  47  46  45  56 102 148 167 171 171 173 172 173 173 172 173 171 171
 163 158 125  49  38  32  29  24  23  26  30  32  32  29  28  28  29  30  31  28  26  29  30  27  28  26  27  26  27  28  29  30  30  31  31  32  34  34  33  34  34  35  37  41  43  45  45  48  48  48  50  52  56  60  63  66  70  76  78  83  93  98 105 111 116 122 126 134 137 134 123 106  82  56  43  46  45  44  53 113 156 167 172 171 172 171 173 171 173 172 170 172
 162 159 120  54  36  31  29  28  26  30  31  33  32  30  34  33  33  32  31  31  31  34  31  29  29  29  27  28  30  32  32  33  33  34  34  34  36  37  36  38  38  39  41  43  45  48  50  50  50  50  52  55  56  61  65  68  73  78  83  86  92  99 105 114 118 121 127 130 131 131 123 103  81  60  47  42  45  42  52 109 157 167 172 172 172 172 173 172 172 171 172 172
 163 156 123  53  35  30  30  31  29  28  32  34  35  36  35  35  34  35  36  36  38  35  34  31  30  31  29  29  32  34  35  36  35  37  34  37  36  37  38  40  40  43  44  47  48  49  50  51  52  54  56  58  60  66  67  71  76  81  86  89  94  99 108 115 118 122 128 131 129 126 121 103  78  54  46  45  42  39  52 111 159 168 172 172 171 173 173 172 172 172 171 170
 163 160 117  60  36  30  29  30  30  30  31  36  40  42  43  44  44  42  41  39  37  38  37  35  35  37  33  34  37  37  40  40  40  40  39  40  40  41  41  42  42  45  48  50  50  53  54  53  55  57  59  63  64  66  72  75  77  85  89  93  96 102 109 112 117 119 126 127 126 121 117 101  84  56  42  45  42  40  55 112 159 171 172 173 172 171 172 172 172 171 171 170
 165 158 128  68  32  29  28  21  24  28  32  40  44  46  52  52  48  44  43  42  42  41  40  40  40  34  36  38  42  42  43  42  42  41  42  42  42  43  42  43  45  47  49  50  50  54  52  54  57  57  60  63  64  69  72  77  80  86  89  91  97 102 108 112 118 120 125 124 124 120 114  99  78  58  46  39  42  38  58 112 159 171 171 171 172 173 172 172 172 172 172 171
 164 157 148  79  36  29  26  19  20  24  32  41  50  53  58  58  53  50  48  46  43  43  44  41  42  40  42  44  45  46  46  45  44  43  45  46  46  45  46  48  48  50  50  51  52  55  55  58  61  61  63  67  68  71  77  80  83  88  91  94  98 102 107 115 118 118 122 124 122 118 109  95  76  54  42  37  42  38  62 120 159 170 171 172 174 173 171 173 172 172 172 170
 163 159 144  91  42  30  26  21  20  21  30  41  49  56  60  60  59  53  51  48  45  49  45  45  46  47  48  50  50  49  49  48  47  47  48  49  49  49  48  51  52  52  54  56  56  58  58  60  63  64  67  71  73  77  80  82  85  90  93  96 101 107 111 117 119 119 124 123 122 118 108  92  75  52  38  37  38  38  65 121 163 170 171 172 173 172 172 172 171 172 171 169
 164 164 154 102  44  34  26  21  16  22  27  40  47  55  62  61  60  56  57  57  53  50  49  54  52  55  52  54  53  51  50  49  50  51  50  51  51  50  51  53  55  56  55  57  59  63  64  65  66  68  71  73  76  81  82  85  86  89  92  97 103 106 112 116 120 121 123 121 124 122 113  96  76  53  39  34  38  42  77 142 168 173 172 172 172 172 171 172 171 170 170 170
 164 163 157 134  45  35  29  22  21  24  28  39  49  57  64  65  63  60  58  56  56  54  60  59  60  61  60  57  57  55  55  55  54  54  54  55  56  54  54  56  60  60  57  58  60  63  63  67  70  71  74  77  80  82  84  86  87  89  94 100 103 106 109 115 119 120 124 120 122 121 113 102  77  48  38  33  37  47  84 148 168 172 173 172 172 172 170 172 171 170 171 170
 165 165 161 131  49  35  29  23  21  24  29  41  54  64  69  72  70  66  65  65  61  64  61  60  60  61  62  61  62  61  59  59  57  60  59  60  59  59  61  59  61  62  63  61  63  63  65  65  70  72  74  79  80  82  84  84  85  87  92  97 101 104 110 114 118 119 125 125 122 117 113 104  84  50  35  36  38  50  99 151 169 174 173 173 172 173 171 171 171 171 172 173
 165 165 164 152  65  35  30  26  24  26  29  42  56  67  73  75  73  69  66  64  63  64  61  62  63  62  63  63  63  62  61  62  62  64  63  62  61  62  64  64  64  66  66  65  65  65  66  65  68  73  73  76  78  79  81  81  83  84  87  91  97 100 106 112 116 118 123 130 126 117 114 108  94  53  32  33  40  55 112 154 169 173 174 173 174 174 172 170 170 172 172 172
 166 165 166 162 103  34  32  28  24  24  29  45  61  70  75  76  75  69  68  68  67  64  62  63  62  61  62  63  64  64  64  63  64  63  63  62  64  64  64  64  64  65  65  65  65  66  66  66  68  70  71  73  72  74  77  77  78  80  81  86  89  92  97 103 110 115 122 129 129 123 115 112 105  60  32  34  41  62 125 164 171 171 174 174 173 172 172 171 171 173 172 172
 166 166 166 164 144  54  35  30  22  22  31  51  68  75  76  77  75  70  71  69  68  65  64  63  61  61  62  62  63  62  62  60  62  63  62  64  66  65  65  64  64  64  63  65  65  65  66  66  65  65  68  69  71  72  72  72  72  74  76  77  77  80  82  87  96  99 110 124 125 126 119 115 112  69  36  34  44  68 142 166 171 173 174 172 173 171 173 171 171 171 171 172
 167 167 167 166 153  75  35  30  21  23  36  56  72  80  82  81  79  77  74  73  72  68  66  62  62  61  61  61  61  62  63  62  61  62  64  65  62  64  63  62  64  65  65  64  64  65  64  64  63  63  64  64  64  68  65  64  65  67  68  68  69  65  66  69  76  83  88  95 105 114 119 119 119  90  40  36  46  86 154 169 172 173 174 173 172 173 172 173 171 171 170 171
 166 166 165 163 157 104  36  30  28  27  40  60  76  81  81  82  81  77  72  69  65  65  63  63  62  61  61  60  61  62  62  62  60  60  62  60  60  62  63  62  64  64  64  62  62  63  62  60  60  61  59  58  58  60  59  55  56  59  56  54  55  54  53  50  52  55  61  68  78  98 117 119 123  94  47  40  48 114 164 171 173 174 174 173 174 173 172 173 172 171 172 173
 166 167 166 166 158 131  46  33  29  31  47  67  80  82  83  83  79  73  69  63  59  55  56  58  56  56  58  60  59  60  58  57  57  60  59  56  55  58  59  58  59  60  62  62  61  60  56  57  56  56  53  52  52  52  48  48  46  45  41  39  37  40  36  34  36  40  42  49  57  75  99 118 126 104  56  47  59 141 167 173 172 174 174 174 174 173 174 174 173 171 173 174
 166 167 167 166 158 140  63  36  31  35  55  74  83  85  85  84  78  69  58  54  50  49  48  44  44  47  49  50  51  50  50  53  53  52  49  50  52  52  52  53  55  57  59  58  56  55  55  53  52  50  49  43  40  39  36  33  32  30  28  27  26  28  27  26  29  30  31  34  41  52  69 115 128 113  58  47  68 155 170 172 173 173 173 172 174 172 173 172 171 173 174 173
 167 167 167 167 160 148  72  37  32  39  64  80  85  86  87  82  70  55  44  36  33  32  32  31  32  34  35  34  33  36  35  37  39  39  39  41  43  45  48  49  52  58  58  56  54  52  50  48  46  43  39  34  30  28  26  24  24  23  21  21  22  22  23  24  25  26  26  27  32  42  57  97 127 115  63  49  63 156 169 172 174 174 174 174 173 174 174 172 172 173 173 173
 167 167 167 168 164 153  77  38  34  40  71  86  87  88  86  74  52  41  33  28  26  24  24  24  24  24  24  25  26  27  26  27  27  28  27  32  35  40  44  46  49  54  56  56  53  48  46  44  40  37  32  28  26  24  23  21  20  21  20  21  21  23  24  25  26  27  29  31  36  42  53  96 128 126  66  50  61 138 168 171 173 174 174 174 174 174 175 174 173 172 174 174
 167 168 167 167 151 116  75  40  32  44  78  88  90  88  80  62  40  32  26  23  22  19  19  19  18  20  18  20  21  19  20  21  23  22  24  26  29  32  37  42  45  52  54  54  51  45  43  40  36  34  30  27  26  24  23  23  25  26  27  28  31  32  34  36  40  42  43  46  48  56  70 100 121 125  70  48  78 157 167 173 174 174 174 174 174 174 174 173 172 172 173 173
 169 169 168 166 120  72  75  42  35  46  82  92  94  90  80  60  40  29  24  22  19  20  20  21  22  23  22  22  22  18  19  19  19  22  24  25  28  30  33  39  44  50  51  52  49  45  41  39  37  34  31  31  29  30  30  30  32  33  34  35  38  40  44  49  54  58  60  65  71  77  86 108 128 128  72  49  83 160 168 170 174 174 175 173 174 174 174 173 172 173 173 174
 169 169 169 167 122  58  50  39  36  50  86  96  98  95  84  60  41  33  30  28  30  30  30  33  34  33  32  32  30  28  28  26  27  27  29  29  30  33  35  40  45  50  55  53  50  47  42  42  39  37  35  34  31  32  31  31  31  31  31  33  35  39  43  50  56  66  74  77  78  81  91 112 134 135  94  55  87 157 169 173 174 174 174 174 174 175 172 172 172 173 172 173
 170 170 168 166 119  59  48  38  35  51  91  99 100  94  78  56  46  42  41  40  40  39  39  39  38  37  38  36  33  30  29  29  30  31  30  30  32  34  37  44  50  54  60  60  59  55  50  47  43  39  34  31  30  29  27  28  29  29  28  27  30  33  35  45  58  64  53  68  81  88  92 108 133 139 112  74 120 165 170 173 174 174 173 174 174 174 173 172 173 173 173 173
 168 169 168 166 109  63  55  44  38  56  94  99 101  93  74  62  54  51  50  48  42  38  38  39  39  40  39  36  32  29  28  26  24  26  28  29  31  33  38  45  55  64  70  74  72  69  63  54  45  36  31  30  27  26  28  29  29  24  20  18  19  22  28  34  43  52  47  48  62  80  92 111 130 142 117  79 127 167 171 171 173 172 173 174 173 172 172 172 173 172 172 172
 168 168 167 166 102  63  59  55  39  59  97 103 103  90  76  68  62  56  49  41  32  40  43  42  40  36  30  26  23  19  19  20  23  25  24  27  31  34  37  43  56  74  80  82  82  81  76  58  44  34  32  29  26  25  30  34  36  24  22  20  17  19  31  60  51  45  49  52  58  73  93 113 132 143 126  79 136 168 172 172 172 172 172 171 172 173 173 173 173 172 173 172
 169 168 167 165  92  64  62  59  44  64  99 104 102  88  75  68  61  51  44  36  34  37  32  32  33  33  26  18  23  18  14  16  22  26  24  26  32  36  38  43  54  76  85  90  86  90  85  60  45  36  34  26  23  24  29  39  42  26  20  18  18  22  37  63  62  72  67  63  67  77  98 119 134 143 127  78 134 168 171 172 172 173 174 173 173 172 172 172 172 172 173 172
 168 167 166 160  91  70  66  65  48  69 101 104 100  91  83  73  60  50  43  39  37  31  29  32  41  46  28  20  21  16  16  18  24  29  23  24  31  39  40  45  54  76  89  92  93  97  90  62  51  43  37  32  29  28  29  32  37  31  22  21  22  27  42  53  74  89  82  78  88 102 115 123 134 141 130  84 136 168 169 171 172 173 173 172 173 173 172 172 170 173 172 172
 167 168 167 166  97  74  70  70  47  72 104 104  99  93  89  81  71  62  56  53  48  43  43  43  47  52  39  20  17  16  18  19  27  27  26  28  33  40  43  49  56  77  93 100  99 103  91  70  60  50  44  38  33  33  32  35  38  38  39  40  44  44  52  63  81  89  84  91 105 114 125 135 139 140 134  92 140 170 171 172 171 172 173 173 172 172 171 172 171 172 173 172
 167 166 166 164 112  77  72  78  52  76 105 106 105 102  99  92  86  78  73  68  62  58  56  51  46  49  46  28  22  20  24  29  31  31  34  39  42  47  50  56  61  78  95 105 104 104  92  76  73  60  49  43  35  35  36  38  41  45  47  46  48  54  60  68  79  89  87  95 112 125 126 131 139 144 137 104 150 169 171 172 172 172 171 172 173 172 171 171 170 172 173 172
 166 166 167 166 130  80  74  76  59  80 108 109 106 103 100  97  95  92  88  80  71  65  60  59  50  47  47  45  43  38  38  36  34  32  35  42  48  53  60  67  67  79  95 105 106 105  95  83  82  78  65  55  48  42  39  38  41  47  49  49  51  57  63  72  78  87  95  99 112 125 130 131 137 144 139  95 157 169 171 171 171 171 172 172 171 172 171 171 173 172 172 171
 167 167 167 166 157  90  77  78  54  84 109 110 108 104 107 109 102  96  92  89  88  80  71  62  52  51  46  45  42  41  40  37  35  37  45  52  58  63  71  76  70  79  96 105 107 107  99  89  89  90  86  77  68  59  54  48  44  42  44  47  51  54  62  75  86  93 104 114 122 129 133 134 135 140 142 100 156 167 170 170 171 172 171 170 171 171 170 171 172 171 171 171
 166 166 167 167 166 124  87  86  53  84 110 111 110 112 111 109 107 102  95  95  92  86  74  66  57  52  48  46  43  42  40  41  42  49  57  64  74  75  77  79  72  81  94 106 108 107 102  92  93  96  94  91  88  81  78  73  71  66  62  62  61  68  77  84  92 100 106 116 125 135 138 139 135 138 138 105 158 168 168 170 170 170 170 169 169 170 171 170 171 171 171 171
 167 167 168 167 167 154  98  89  54  87 110 110 111 111 111 111 108 106 101 102  99  94  87  78  66  60  55  52  52  52  54  55  59  68  77  83  84  80  80  78  76  81  94 108 108 108 105  96  95  99 100  96  95  94  91  91  92  94  92  93  93  93  96  98 103 109 112 121 130 142 143 144 141 139 135 116 161 167 168 169 169 169 169 169 168 170 169 169 170 169 170 170
 165 165 167 167 167 162 118  93  60  88 110 109 109 105 108 110 109 109 108 104 103  98  91  86  84  82  79  74  72  73  75  80  84  89  89  88  85  82  81  78  77  83  96 105 109 108 108  97  99 101 100  99  95  93  90  92  94  97  99 103 106 106 107 110 112 114 115 121 136 142 142 144 143 140 134 125 161 164 167 167 167 168 168 170 169 168 169 167 169 170 170 169
 165 165 166 168 168 166 147  97  69  92 106 105 104 101 104 108 109 115 110 107 106 104 100  94  94  92  91  89  89  92  92  94  96  94  90  88  83  83  82  80  79  84  94 103 105 107 109  99 101 101 102 103  96  90  92  94  91  94  99 104 106 111 113 114 116 115 123 125 134 141 141 142 144 143 133 134 161 165 166 166 166 167 168 168 168 168 167 168 168 169 170 169
 165 167 166 167 167 167 163 109  70  92 103 102 102 101 101 106 108 113 115 116 113 109 104 106 104 105 101  99 102 103  99  97  96  92  90  85  84  82  83  82  82  86  96 103 107 106 109 103 102 104 105 107 101  93  93  92  93  94  97 102 105 107 108 112 114 116 120 127 135 140 138 140 142 142 130 134 161 165 166 166 167 167 168 167 166 167 167 167 167 167 168 168
 165 165 166 167 167 167 165 140  81  86 100 100  98  97  99 101 105 106 109 111 110 106 106 108 108 109 104 104 102 101  96  90  92  89  88  84  84  84  81  83  85  90  97 101 104 103 111 104 103 105 107 109 108  95  92  90  92  93  94  98 101 101 101 108 110 115 124 132 135 138 136 137 139 139 128 132 160 164 163 165 166 166 165 165 164 166 167 166 167 167 166 167
 164 165 165 166 166 166 165 158 102  85  97  96  95  96 100 101 102 101 102 104 103 106 108 107 104 106 105 102  99  98  94  92  93  92  87  85  85  85  82  83  86  91  98 102 102 100 107 104 104 105 107 110 112  99  88  85  86  88  90  94  95  98 101 104 108 115 123 128 134 136 136 136 139 137 125 140 158 161 164 164 164 164 165 165 166 164 164 165 166 166 164 166
 165 164 164 165 166 166 166 163 134  80  97  96  98  99  98  98  98  97  98  99 101 103 104 104 104 102 100  99  97  95  93  90  91  92  91  89  87  86  84  85  89  93  99 100 103 101 108 105 102 103 102 102  98  90  78  74  76  83  87  90  91  94  96  99 105 110 119 124 131 135 134 136 137 136 124 140 157 160 162 163 163 162 163 165 165 164 164 164 165 164 162 163
 163 163 164 165 165 166 166 164 143  76  95  95  97  97  98  99  97  96  94  97 101 102 103 103 105 101  99  98  96  92  91  91  89  86  84  84  82  82  82  89  94  98  99 100 103 102 108 108 101  99  92  82  70  66  67  68  72  75  78  82  85  88  91  93  98 104 113 120 124 125 129 132 133 132 120 141 156 159 160 161 161 162 162 161 162 163 163 164 165 164 163 162
 162 164 164 164 165 166 165 164 143  70  89  93  95  97  98  96  95  93  91  95  98 102 101 102 101  97  95  93  91  89  86  84  78  76  70  68  71  76  82  92  97  98 100 101 105 103 105 108 104 101  92  86  66  45  49  57  66  67  69  73  77  80  84  87  89  94  98 106 114 116 120 124 130 129 112 132 153 156 156 158 158 160 160 161 161 160 161 162 162 162 162 162
 163 162 163 165 164 165 164 162 157  84  88  93  95  96  96  95  93  95  92  92  93  96  95  94  96  93  90  87  85  79  77  73  66  58  51  61  76  82  88  98 101 101 100 102 105 104 105 110 110 109 100  98  82  48  42  44  51  57  61  65  68  72  77  79  83  88  93  95  99 107 112 116 124 125 107 136 149 155 156 156 158 156 158 159 159 159 159 161 160 160 161 162
 163 163 163 162 163 163 162 164 160  98  84  92  93  96  94  93  92  92  89  89  91  90  90  89  90  88  85  80  76  71  65  59  51  46  50  74  88  90  98 103 105 104 101 104 105 100 101 108 113 114 107 103 102  60  51  45  45  48  52  56  61  66  68  70  74  76  84  88  92  98 102 109 116 120 100 145 154 156 156 156 156 156 158 158 159 159 159 159 160 160 160 162
 161 162 162 162 162 162 161 163 161 105  79  92  93  93  94  92  92  89  87  86  88  86  86  84  85  82  79  74  67  62  55  50  49  52  62  89  95  96 101 102 103 101 104 106 102  94  99 104 113 114 113 108 108  82  59  56  49  44  47  51  53  55  58  62  67  70  76  83  86  91  96  99 108 111  93 146 153 155 156 155 155 155 157 157 158 158 158 158 158 158 160 161
 162 162 161 162 162 164 162 161 159 106  67  87  90  91  92  91  88  86  84  83  84  82  81  81  78  73  68  66  59  52  46  49  57  61  75  97  99  95  97  99 100 100 103  98  92  87  94 100 112 115 110 105 105  81  60  58  54  48  42  45  46  49  51  54  58  64  71  76  86  91  91  95  98 101  91 146 154 154 155 154 154 155 156 157 157 157 158 156 157 157 158 158
 160 161 161 160 161 162 161 161 160 116  62  77  86  90  90  88  85  82  81  80  79  79  75  72  70  65  60  55  49  43  45  56  64  68  73  88  91  85  86  90  93  94  92  88  84  82  86  93 102 106  95  88  83  66  63  61  59  55  45  38  38  42  45  48  51  55  64  70  81  90  88  84  91  84 101 147 151 151 152 153 155 154 156 156 156 157 156 156 156 155 156 156
 161 160 160 161 161 162 161 161 161 147  64  71  85  89  88  87  83  81  80  78  74  73  69  68  63  58  53  46  39  40  50  61  64  68  63  61  66  68  67  73  80  81  81  82  81  78  75  81  85  85  73  68  58  60  63  61  62  56  49  38  35  36  37  41  45  50  54  59  67  79  82  76  81  79 114 145 151 151 151 152 152 152 153 154 154 154 156 155 155 154 155 155
 160 160 160 161 161 160 160 161 161 156  83  61  80  85  85  83  79  76  73  71  69  66  65  60  54  50  42  34  34  43  54  57  60  63  54  46  38  38  45  52  59  64  66  68  68  66  64  69  73  66  60  54  50  55  57  55  58  55  49  42  39  37  32  34  38  45  50  47  54  68  69  65  72  72 133 148 150 150 151 150 151 152 151 152 152 152 153 153 155 153 153 154
 159 160 160 160 160 161 160 160 160 158 101  56  65  76  81  78  74  73  69  66  63  60  57  53  47  40  32  30  36  44  51  53  55  57  47  43  40  34  34  36  41  48  51  55  54  54  55  56  57  42  38  35  35  45  50  52  52  51  47  40  39  38  34  30  36  48  52  42  46  55  55  54  64  71 138 148 149 150 149 150 150 151 149 152 151 152 152 152 153 154 153 154
 159 159 159 160 159 159 160 161 160 156 124  60  56  64  76  73  70  68  63  61  58  54  51  46  39  32  29  29  32  38  46  49  46  45  40  36  35  32  30  30  30  34  39  43  43  42  43  42  31  28  29  28  30  37  39  45  48  42  37  34  34  37  33  31  40  52  53  39  39  44  44  48  55  95 140 147 150 149 149 150 151 149 149 150 150 149 151 150 151 149 151 152
 158 159 156 158 159 158 160 161 160 156 147  74  49  52  60  66  66  63  61  56  50  48  43  37  30  27  27  26  26  30  37  39  37  33  32  32  29  29  26  25  25  27  27  31  34  32  29  25  23  24  28  31  29  30  33  40  39  34  32  30  29  35  33  33  45  61  51  37  35  39  41  50  64 124 143 148 148 148 148 148 148 149 148 148 151 148 149 149 150 150 150 151
 156 156 155 157 157 160 159 158 158 159 155 117  50  44  48  59  60  60  56  52  48  43  38  30  24  22  21  21  22  24  29  31  29  27  27  29  26  25  24  24  24  26  25  27  29  27  23  23  23  23  28  30  29  30  32  37  33  29  29  29  29  30  35  35  50  66  46  35  32  35  45  48  88 139 145 148 148 149 148 148 148 148 148 149 149 148 148 147 148 148 149 148
 155 156 156 155 156 158 159 158 159 157 156 142  71  41  42  48  54  55  53  49  46  41  34  25  18  16  20  18  21  23  26  28  25  24  27  27  24  24  24  26  27  28  28  28  29  29  27  25  23  23  26  28  29  32  31  32  29  27  27  26  27  28  33  41  53  62  41  32  34  38  45  49 105 141 145 147 148 147 147 146 147 146 146 146 148 146 147 147 146 146 146 146
 155 155 156 156 157 157 157 155 156 158 156 148 123  50  42  40  45  50  49  48  43  41  35  25  16  17  20  23  22  24  26  26  24  23  25  24  23  24  24  26  29  30  30  30  30  28  29  25  24  26  28  29  35  39  40  40  39  34  30  27  26  25  31  46  57  51  38  35  39  45  46  62 124 140 145 147 147 147 146 146 146 146 146 144 146 146 146 144 144 143 144 144
 156 154 154 154 154 155 155 157 156 156 155 152 149 103  42  34  35  40  42  43  43  42  36  26  18  19  22  27  27  29  29  27  25  24  24  24  24  27  27  28  30  32  34  35  32  30  29  27  28  28  34  50  64  72  66  64  59  46  39  33  29  27  38  50  55  41  38  35  42  48  47 101 135 143 144 145 144 145 145 145 145 145 146 144 145 145 146 144 142 142 144 143
 154 154 153 154 152 152 154 154 156 155 156 154 152 133  51  34  31  33  36  38  39  38  36  30  22  22  28  32  36  37  38  38  36  33  30  29  29  30  31  32  33  34  34  34  34  36  36  39  45  53  60  76  86  87  88  83  75  62  50  39  32  35  43  52  50  40  38  37  42  46  65 128 140 142 140 144 144 144 143 144 143 142 142 143 142 143 144 144 144 142 143 142
 154 154 154 155 154 153 154 155 154 154 154 153 153 143  68  40  33  30  32  34  35  35  35  35  32  29  32  37  41  46  49  50  52  51  45  44  40  41  45  48  47  46  45  43  44  46  49  51  53  59  68  86  95  98  98  93  87  75  62  45  37  44  47  48  44  41  37  38  38  44 108 137 143 144 146 145 144 145 142 142 142 141 140 141 142 141 142 141 141 141 141 143
 152 152 152 154 154 153 154 153 154 153 153 152 151 144 116  42  35  30  31  34  32  31  32  37  38  35  34  43  48  51  53  57  59  61  63  60  55  54  54  52  50  49  51  51  51  52  52  55  61  70  83  92  97  99  97  95  89  75  61  47  44  48  45  42  40  40  38  37  36  68 127 136 141 143 144 142 143 143 142 142 140 140 141 142 141 141 141 140 142 142 142 142
 152 154 152 152 152 153 152 153 152 151 152 153 149 149 146 103  42  32  32  36  32  30  33  36  40  39  39  46  53  56  59  63  63  62  66  67  69  69  69  65  65  64  63  64  64  63  64  70  74  79  88  92  92  92  93  91  83  69  58  50  49  49  41  38  38  38  36  34  41  62  75  93 113 127 137 139 140 138 140 140 138 138 138 138 138 138 138 139 139 139 139 141
 152 153 152 152 152 152 152 152 152 152 153 152 151 151 148 135  69  40  36  34  30  31  34  36  39  41  42  45  52  57  61  64  63  60  60  64  68  68  67  69  70  67  66  65  65  67  70  73  75  78  81  83  79  85  89  88  76  59  53  53  53  45  35  36  36  36  30  31  54  62  37  44  49  63 101 134 137 137 138 138 137 137 137 136 137 139 138 138 138 140 139 139
 152 152 152 153 152 152 152 152 152 153 152 151 150 148 147 136 100  49  37  33  32  33  32  34  41  43  41  44  50  57  62  66  64  62  58  58  57  55  54  56  57  58  56  57  59  59  59  67  66  66  65  69  74  81  87  79  65  55  54  55  50  38  32  33  33  30  28  38  94  67  30  33  41  47  52  82 117 135 136 137 136 138 139 139 139 139 138 140 140 141 140 139
 152 151 152 152 152 152 153 152 153 150 152 151 149 148 146 142 126  57  37  32  30  29  31  34  39  39  38  40  44  52  61  66  67  64  61  54  51  48  45  45  44  44  44  48  48  44  47  53  53  57  56  62  76  82  81  71  55  48  54  56  46  33  31  32  31  28  28  62 117  79  28  27  36  42  43  46  55  95 125 135 136 136 138 138 137 136 136 138 138 138 139 139
 151 150 151 151 150 150 151 150 150 148 148 147 149 148 147 144 138  99  34  26  28  29  31  34  37  36  33  34  37  46  56  63  67  68  64  59  53  48  42  41  40  37  36  38  37  38  41  46  49  53  55  69  76  84  75  58  49  45  52  47  37  28  29  32  30  25  49  90 116 107  33  23  30  36  42  41  43  59  71  91 112 126 133 134 135 134 134 135 134 134 136 135
 149 149 149 149 151 151 149 149 149 148 146 147 145 146 146 145 143 129  74  28  28  27  28  30  34  33  30  30  31  40  49  55  62  68  68  64  57  53  46  42  38  34  32  33  36  38  43  46  52  58  64  76  77  72  59  45  43  42  48  41  31  29  28  26  25  26  71 102 116 121  93  25  22  32  39  39  38  46  55  63  69  82  96 117 128 129 130 133 133 133 133 133
 149 149 149 147 147 150 148 148 146 144 144 144 145 145 144 142 129  92  57  32  25  23  22  30  31  28  26  26  31  35  39  48  57  66  68  65  60  56  51  47  41  36  33  33  36  40  47  54  59  68  73  75  70  59  47  37  34  37  41  32  25  27  28  24  23  50  90 107 116 123 121  61  22  27  36  39  40  41  50  52  52  58  60  69  78  92 106 126 130 132 135 132
 149 149 148 147 148 148 148 146 146 144 143 144 143 142 137 107  62  40  35  28  25  23  21  28  28  29  29  30  32  30  38  46  56  64  68  69  61  55  54  53  48  41  37  36  39  46  59  69  69  69  69  65  58  48  38  31  29  32  31  26  23  27  24  22  34  80 100 109 118 124 126 100  35  28  34  38  39  37  43  47  49  46  47  52  54  59  65  73  92 114 126 128
 147 147 147 146 147 146 146 146 145 142 142 142 135 118  83  49  37  28  25  27  24  23  18  18  23  23  24  27  28  27  34  41  49  57  63  63  61  55  56  54  51  44  41  39  41  47  62  72  65  49  46  48  45  39  34  29  28  27  26  20  23  23  17  28  59  91 103 110 118 124 126 110  57  29  32  36  37  34  39  45  47  41  41  43  47  47  52  59  64  67  75  88
 146 145 146 146 145 146 143 142 139 140 134 113  81  56  44  33  29  25  23  24  23  23  17  15  17  16  16  19  20  23  30  34  40  48  53  56  57  56  55  54  51  43  43  42  43  49  60  64  56  39  37  37  38  38  35  30  27  25  24  20  21  18  22  51  78  95 103 111 119 123 125 114  69  29  31  35  36  33  40  45  43  38  37  39  44  40  42  45  51  60  62  57
 144 143 144 143 142 139 133 110  84  71  59  57  50  39  30  26  25  24  23  24  23  23  17  16  15  14  14  15  16  18  27  30  32  37  44  48  52  49  48  50  47  45  45  44  43  42  47  53  49  43  36  31  33  32  32  30  28  25  24  20  20  18  38  72  85  93 103 111 117 123 124 112  67  32  30  35  34  35  36  43  43  40  38  38  41  40  37  40  46  50  56  56
 139 138 134 124 102  77  58  50  49  50  46  41  33  28  26  23  20  20  21  23  21  22  18  15  26  19  15  16  15  16  22  23  25  31  34  36  42  42  41  43  44  45  46  47  42  41  43  42  40  39  32  30  30  31  30  24  26  25  19  15  20  33  63  77  85  94 103 111 117 121 120 108  64  34  30  31  31  32  34  38  39  38  37  37  37  37  34  37  39  45  52  53
 112  99  72  53  48  47  42  42  43  42  34  29  27  24  24  20  18  17  21  20  20  20  16  12  34  35  18  15  15  15  16  20  22  26  28  30  31  37  35  36  40  41  41  45  40  38  35  34  33  31  30  32  30  31  25  24  25  20  16  16  32  49  70  79  87  94 101 111 118 119 117 100  59  33  30  33  32  32  36  36  38  37  36  37  34  33  33  35  38  42  48  50
  58  53  44  46  39  36  34  36  38  34  29  26  24  23  22  19  17  17  18  19  18  18  16  12  25  43  37  22  16  14  15  19  16  18  24  25  24  28  30  33  33  34  36  37  33  33  30  29  27  24  27  31  28  27  23  22  22  18  17  34  50  62  73  79  86  96 102 109 115 118 114  86  53  29  30  31  30  33  31  34  37  39  37  37  34  33  33  32  38  41  45  46
  41  39  38  37  33  34  32  35  31  28  25  24  23  20  19  18  16  16  18  18  18  17  15  13  21  49  51  45  25  14  14  15  16  17  18  16  18  22  26  26  26  28  29  30  25  28  27  22  21  20  25  26  24  21  19  16  18  23  35  52  60  66  73  78  87  94 102 109 112 116 110  70  44  28  29  27  29  29  34  32  34  36  36  34  33  32  32  32  34  38  41  42
  35  35  34  31  30  28  29  32  29  26  24  23  20  20  18  16  15  15  15  17  15  16  14  13  16  47  52  51  42  24  16  14  16  17  16  15  15  18  22  18  21  24  24  26  23  23  24  16  20  16  22  23  19  18  15  14  23  45  57  60  63  67  74  77  84  91  99 107 111 113 100  55  37  29  25  27  29  32  32  32  31  30  32  32  31  28  27  30  32  36  38  37
  32  30  28  28  26  25  28  30  27  24  20  21  20  18  15  14  15  13  14  17  14  15  15  14  12  38  51  51  49  47  33  19  15  15  14  15  14  14  16  16  17  18  17  17  16  18  18  13  15  15  17  17  14  15  14  19  43  56  59  59  63  68  72  78  82  92  96 103 108 109  79  44  28  27  29  26  29  29  31  30  32  32  32  31  28  27  28  30  31  33  34  36
  30  29  26  28  24  26  29  28  24  22  20  18  19  16  14  13  14  13  14  15  16  15  14  13  12  25  47  52  52  50  47  33  20  13  14  14  13  13  14  14  13  13  15  14  13  14  13  12  12  15  16  17  13  14  23  42  56  58  60  61  66  69  73  76  82  89  94  99 106  96  60  34  24  27  27  27  27  30  28  29  32  33  32  31  28  26  26  28  29  32  34  37
  29  26  25  26  24  27  25  24  21  19  19  17  16  14  14  12  13  14  13  14  14  14  14  13  13  15  38  50  54  52  50  44  28  14  12  12  11  11  10  10   9  10  12  12  12   9  10  13  14  15  19  19  18  28  50  56  59  58  60  62  64  69  72  77  82  87  92  97  99  75  42  27  25  23  25  25  27  28  29  31  32  32  30  32  29  24  24  28  31  32  33  36
  27  26  26  25  26  26  25  23  19  19  18  16  16  16  14  13  13  12  14  13  15  14  14  13  12  14  22  44  50  53  51  47  40  30  18  13  12  11   9   8   7   9   9  10  12  11  11  13  14  19  24  31  38  49  57  58  55  55  58  64  67  72  74  75  80  85  89  92  82  49  33  24  24  24  23  23  26  28  26  28  29  31  30  27  26  26  23  27  31  32  32  33
  24  26  24  24  23  23  23  23  20  19  18  17  16  16  14  12  13  13  12  14  14  14  12  12  13  12  14  27  46  49  54  51  48  41  37  32  27  23  18  16  12  12  11  12  13  13  16  18  24  32  38  47  49  54  57  57  57  57  60  64  67  70  73  75  77  82  85  78  54  33  24  24  22  24  22  26  26  27  26  27  30  30  30  25  27  25  24  25  28  30  31  32
  20  24  25  25  24  22  20  21  19  16  16  15  16  16  15  14  14  13  13  15  14  12  14  12  11  12  11  13  29  44  49  52  49  49  48  44  40  39  32  28  26  28  25  24  24  25  27  29  36  39  45  49  52  54  56  56  56  56  57  60  63  67  71  72  75  76  70  53  34  22  22  22  24  21  24  25  27  25  27  28  30  29  28  27  25  25  24  25  26  31  31  32
  21  25  25  24  21  19  19  20  17  17  16  15  13  14  13  14  12  14  14  12  12  13  11  13  10  12  11  12  15  30  43  48  51  49  49  47  43  43  40  39  34  33  33  32  30  32  31  34  37  40  44  47  51  54  54  52  53  54  56  60  64  67  68  68  68  62  49  34  26  22  19  22  21  22  21  26  24  25  26  27  27  27  28  25  24  22  22  25  26  28  30  31
  22  21  21  20  17  18  22  21  18  16  15  13  13  13  13  13  12  13  12  12  13  12  11  12  12  10  11  10  13  14  27  39  47  47  48  47  43  43  43  42  38  37  37  35  33  32  32  34  36  39  43  46  48  51  49  50  51  53  54  58  61  64  64  59  54  42  32  24  21  23  18  21  19  23  22  23  24  26  26  27  27  28  28  25  24  23  20  24  27  27  30  32
  19  20  19  17  17  17  19  19  16  15  13  14  13  13  11  13  11  13  11  12  11  12  12  11  12  10  10   9  10   9  12  21  34  41  43  44  43  41  42  42  42  40  38  38  35  36  35  36  37  39  41  43  45  46  46  47  48  51  53  54  58  56  53  46  37  28  24  19  21  19  18  17  20  19  24  21  24  24  25  26  25  25  26  24  21  21  21  23  26  29  28  30
  20  19  17  16  15  16  18  17  16  13  14  14  13  12  13  10  10  10  10  12  12  11  12  13  10  11   9  10   9   9  10  11  16  25  33  39  43  42  41  42  42  39  38  37  36  36  35  35  36  37  37  38  39  39  40  42  45  48  50  52  52  48  38  30  26  20  19  16  19  18  19  18  20  21  20  21  24  24  24  26  28  26  26  23  22  20  20  21  24  28  27  29
  17  15  15  15  17  17  18  18  16  14  15  12  11  12  12  10  10  12  11  11  11  11  11  10  10  11   8   9   9  10   7   9   9  13  17  25  30  36  39  39  38  37  37  37  34  34  33  33  31  33  32  34  35  36  37  37  39  42  43  42  38  33  26  21  19  16  15  17  15  18  19  20  19  22  19  21  23  25  24  25  27  27  26  23  22  20  21  23  25  27  30  28
  16  16  15  15  14  18  17  16  16  14  14  13  13  12  12  11  11  11  12  13  11  11  11   9  10   8  10   9  10   8   8   8   8   9  10  12  16  22  25  28  30  31  32  31  30  29  28  27  27  27  27  27  29  28  31  31  34  34  33  29  23  19  15  15  15  17  14  16  14  18  17  19  18  19  21  22  23  25  26  26  26  26  25  23  23  20  21  24  24  27  28  29
  17  16  15  16  16  18  17  15  14  15  14  13  12  12  10  10  11  11  11  11  10  10  11   9   8   8   9   8  10   8   8   7   9   8   8   9   9  11  12  16  17  19  22  22  21  20  20  20  19  17  18  20  20  22  24  22  23  22  17  17  13  15  13  15  13  15  12  16  16  17  19  17  18  21  22  20  21  25  26  25  26  22  23  22  22  19  19  23  24  25  26  28
