P2
# Generated by OpenCV 3.4.0
92 112
255
  46  40  44  34  30  30  31  30  28  29  26  27  27  25  23  23  23  25  27  30  29  27  25  26  23  24  29  27  26  28  28  29  29  30  31  28  26  23  24  25  26  28  26  26  26  28  28  29  28  28  29  31  36  40  40  39  38  40  50  52  54  69 140 163 165 166 167 166 166 167 167 167 166 166 166 167 167 167 167 167 167 166 167 166 166 166 166 166 166 166 165 165
  44  44  43  30  30  32  29  28  27  27  27  27  28  23  22  27  28  28  28  28  27  29  29  29  30  27  27  29  27  25  24  24  26  29  27  25  26  25  24  24  24  25  24  25  30  30  28  27  27  26  27  28  33  36  40  44  40  38  42  47  49  50  82 151 164 166 166 167 166 167 168 167 166 167 167 167 167 168 168 167 167 165 166 167 166 166 166 167 167 167 165 165
  44  41  34  31  32  30  28  29  25  26  24  24  27  27  25  25  29  28  25  25  25  24  25  29  28  28  27  29  31  31  29  31  31  30  27  27  27  27  25  23  23  23  24  24  26  28  26  26  25  25  26  25  28  31  39  38  39  41  39  44  44  43  51  96 158 165 164 166 166 167 167 168 167 166 167 168 168 168 168 167 167 168 168 168 167 166 167 167 166 166 166 165
  47  36  31  32  30  29  27  28  23  24  25  24  26  24  24  25  24  21  19  20  21  25  25  25  25  25  23  26  29  32  31  26  28  28  28  26  23  19  16  17  17  19  19  18  22  25  26  25  25  24  24  25  28  30  32  33  32  38  40  42  42  44  40  50 105 149 162 166 166 168 168 168 168 168 167 169 168 168 169 167 166 169 168 168 168 168 166 168 167 165 167 166
  37  32  32  31  28  28  27  26  26  26  27  26  27  25  25  25  28  24  25  25  23  23  24  23  21  24  23  28  29  29  28  29  27  28  26  24  20  19  22  19  18  19  16  17  19  22  23  25  24  25  27  24  25  27  30  30  35  33  35  40  38  40  38  41  44  84 157 166 167 168 168 168 169 169 169 170 168 169 169 168 168 169 169 169 168 167 167 168 167 167 166 166
  38  34  33  31  28  26  24  27  28  27  26  25  25  23  22  25  30  30  26  26  25  24  24  22  24  25  25  28  28  28  27  25  27  27  26  25  25  27  24  25  25  22  20  21  19  22  24  23  24  27  26  25  24  28  29  30  32  30  33  37  36  32  38  43  45  50 128 164 168 167 168 169 169 167 168 168 168 168 170 168 169 168 168 168 167 168 168 168 167 168 166 166
  38  34  33  30  27  25  26  26  27  24  25  23  23  24  24  25  26  29  32  33  30  27  25  25  25  23  23  22  23  24  18  20  21  23  23  25  24  22  23  22  22  20  22  22  19  20  21  25  26  27  26  27  25  27  29  30  34  33  34  35  34  31  36  44  38  41  86 154 165 167 168 169 169 169 170 170 170 170 170 168 168 168 168 168 168 168 168 168 168 168 166 168
  38  34  30  26  25  27  27  25  27  27  26  23  22  23  24  24  28  29  30  31  30  33  32  28  26  22  23  20  17  18  18  19  22  23  24  23  22  24  24  21  23  24  24  21  18  20  20  19  25  27  25  27  29  29  30  31  37  37  38  38  34  33  36  42  37  46  79 127 162 168 167 169 168 169 171 168 168 169 168 168 168 168 170 169 169 169 168 168 167 168 168 168
  39  33  30  28  26  25  28  26  26  26  25  24  24  24  25  26  26  25  26  27  29  31  32  34  35  32  28  22  22  23  26  26  26  24  23  23  24  22  23  22  21  24  22  21  18  18  17  18  24  26  26  27  28  30  32  37  47  46  40  39  35  32  36  37  38  40  52  94 159 167 167 168 168 168 168 168 168 169 168 168 170 168 168 169 169 168 168 168 168 168 168 168
  40  34  32  29  24  24  26  25  26  26  24  21  23  24  23  22  22  18  20  23  25  25  27  27  26  28  28  28  28  28  25  24  24  23  23  21  22  23  24  25  27  24  21  21  18  18  19  20  22  27  30  29  30  33  44  52  52  52  50  48  38  35  40  36  36  39  47  79 154 165 168 168 169 170 168 168 169 168 169 168 170 171 169 170 172 169 171 169 168 169 168 169
  40  33  29  29  25  25  26  27  25  22  23  19  20  20  22  23  20  19  22  23  21  20  21  21  21  19  19  20  20  19  17  17  21  23  22  19  23  25  25  23  22  23  20  20  19  18  17  18  23  27  29  32  38  45  52  57  66  67  62  52  43  35  32  33  36  38  41  47 110 160 166 167 169 170 169 170 171 170 169 170 170 171 170 168 169 170 169 169 169 168 168 170
  39  32  28  30  26  25  25  26  25  21  19  18  20  20  20  21  22  23  24  20  18  19  18  15  17  18  16  16  15  15  16  20  21  19  17  21  23  22  23  19  18  18  21  22  22  22  19  22  28  27  33  42  49  54  60  69  74  79  79  64  52  43  35  33  36  37  36  44  61 147 164 168 169 169 169 169 169 170 170 170 170 170 168 168 168 169 168 169 169 170 169 170
  37  28  28  29  28  25  24  24  25  24  20  18  19  16  19  22  23  23  23  20  20  20  19  21  19  17  16  17  17  21  22  20  18  16  20  23  21  18  14  15  17  19  20  23  25  23  25  30  31  34  41  49  60  62  72  78  89  93  91  88  72  54  44  36  34  33  36  44  49 110 164 168 170 169 170 171 171 170 171 170 170 170 170 169 169 171 171 169 171 169 171 170
  34  30  29  26  26  26  23  22  24  23  21  18  17  16  18  20  20  21  22  23  20  18  18  18  19  21  23  21  20  19  16  17  17  17  21  20  17  15  14  16  18  19  21  27  29  30  32  33  36  39  47  56  68  74  84  96 105 109 108 107  95  83  65  48  39  37  37  39  47  76 153 163 169 169 170 172 172 172 172 171 171 170 169 170 171 171 172 171 170 171 170 168
  34  30  29  26  25  24  23  24  23  22  23  23  19  16  17  16  16  18  19  18  16  17  17  19  20  22  22  18  17  16  15  16  19  22  18  16  16  16  16  18  18  23  26  28  29  32  35  38  43  47  53  66  76  85  92 104 116 117 118 121 116 105  88  63  43  35  36  39  42  51  69 143 166 167 169 172 171 172 172 172 172 170 171 172 172 172 171 170 171 171 170 170
  32  28  27  26  24  24  23  23  23  23  23  22  23  19  16  16  16  16  14  15  17  16  20  21  20  19  18  17  14  15  16  21  24  20  17  16  18  20  18  19  23  25  28  31  32  37  39  42  47  52  59  71  80  89  96 107 116 119 126 130 129 123 112  91  55  37  37  35  38  42  47  93 160 170 171 172 172 172 172 173 172 172 173 172 173 172 173 171 171 171 172 171
  31  27  27  26  25  24  23  23  24  20  24  22  23  22  21  19  17  15  16  21  20  19  21  19  17  17  17  15  14  15  20  25  18  16  16  17  19  20  21  24  26  29  31  34  37  42  45  48  52  55  64  71  82  90 103 114 119 123 132 136 135 134 131 118  77  47  39  36  37  39  47  87 156 168 170 172 172 172 172 172 173 173 172 172 173 173 172 172 173 171 172 171
  31  27  27  27  26  27  24  22  23  23  23  20  23  23  23  22  19  20  22  20  21  21  18  16  16  15  16  16  17  19  26  22  18  18  17  19  21  23  25  26  30  32  35  39  40  45  48  52  54  60  69  74  86  94 104 114 122 129 134 138 140 140 140 135 102  62  39  36  36  45  46  58 134 163 168 171 172 172 172 172 171 174 173 172 174 173 173 172 173 173 172 172
  29  28  28  25  24  25  25  23  24  24  23  24  22  22  23  22  24  23  23  21  21  19  19  16  16  16  17  19  21  25  21  18  19  19  20  23  24  25  28  31  33  36  39  43  45  46  50  53  57  64  72  79  89  96 107 115 123 129 134 140 143 145 145 142 123  84  53  38  39  49  50  51  91 150 165 171 172 173 174 174 174 174 174 173 174 173 173 172 174 173 173 172
  26  27  28  27  25  24  25  24  23  24  23  22  24  22  21  24  22  21  21  19  19  20  16  16  18  17  18  21  23  20  19  18  20  21  25  26  28  29  29  33  34  38  41  44  48  50  52  55  60  68  73  81  92  96 102 113 121 127 134 139 142 144 145 144 135 106  65  46  44  51  50  49  69 136 163 171 172 171 174 173 173 173 174 174 174 174 174 173 173 173 173 172
  30  28  27  26  25  25  24  24  23  21  23  20  23  25  24  23  19  20  19  16  17  16  17  16  17  18  21  22  19  20  21  20  23  25  29  30  30  32  33  37  37  40  44  46  51  53  55  57  63  70  73  80  91  93 100 111 120 127 133 140 144 146 149 147 141 118  77  51  44  47  50  48  62 143 162 172 174 172 172 173 174 174 174 174 173 173 174 173 173 174 174 173
  30  28  27  25  26  25  22  23  24  24  23  24  22  22  19  19  16  17  17  16  16  16  16  16  18  19  19  21  22  24  25  25  27  28  30  32  34  36  36  38  42  44  47  49  51  52  55  59  65  72  74  82  90  93 102 112 118 126 132 136 142 148 150 148 143 123  91  57  45  45  50  48  57 112 158 171 173 174 174 174 175 174 173 174 173 173 173 173 173 175 174 172
  31  29  26  25  23  24  24  24  25  27  26  23  23  22  18  18  18  18  16  16  17  16  16  20  21  17  22  23  25  26  27  28  30  29  30  34  38  36  38  42  44  46  46  50  53  53  59  63  68  74  77  86  89  94 100 111 120 122 130 136 140 147 150 149 143 127 100  67  46  48  51  49  58 109 154 169 173 173 173 173 174 174 174 173 173 174 173 174 174 174 174 173
  34  30  27  25  25  23  24  24  25  28  27  23  22  22  21  21  22  21  19  20  17  17  18  21  21  21  24  25  29  29  28  29  32  32  35  37  37  37  40  43  48  48  51  52  55  57  63  65  72  74  80  85  90  95 100 109 118 126 132 136 140 144 146 148 144 132 107  79  53  50  51  50  53  89 161 169 172 172 173 173 173 174 174 173 175 174 174 174 173 173 173 171
  29  28  27  25  25  25  24  23  25  27  27  25  22  22  22  22  22  21  20  18  18  20  22  23  22  24  26  29  29  30  30  31  34  34  37  39  39  41  43  48  50  52  54  55  60  60  64  68  73  78  80  86  91 100 104 109 116 123 133 138 140 144 148 147 143 133 110  79  53  49  50  49  49  86 152 167 172 173 172 172 173 173 175 174 175 174 175 174 175 174 172 172
  31  28  28  29  26  27  26  25  28  29  26  22  22  24  26  25  23  21  20  21  23  24  24  26  25  27  29  31  32  31  32  34  38  38  39  41  40  43  46  51  53  55  55  58  61  64  65  69  73  79  84  90  93  99 105 109 115 123 132 136 139 142 147 145 142 132 113  86  53  48  48  46  49  81 142 168 171 171 172 171 173 174 174 175 174 175 174 174 174 173 172 173
  33  29  29  28  28  29  27  26  29  28  24  22  24  26  26  25  21  21  25  26  27  27  28  26  28  30  31  32  32  34  35  36  39  41  42  43  42  48  51  54  55  58  56  61  65  65  68  73  77  82  90  93  94 101 108 110 116 124 129 132 136 139 147 147 143 132 115  88  61  49  47  48  48  75 139 165 172 171 172 173 173 174 175 174 174 174 175 174 174 173 173 172
  31  29  28  29  29  29  30  29  30  28  23  24  26  27  28  24  24  28  29  29  29  29  30  28  30  32  34  35  35  36  36  39  41  42  43  42  47  50  53  55  56  59  62  63  67  70  71  76  80  85  92  92  96 104 107 111 117 122 128 135 137 140 144 143 140 132 114  92  65  51  45  49  46  70 129 162 170 171 172 173 174 174 175 174 173 173 173 174 174 174 174 174
  30  28  25  25  24  26  29  29  30  29  27  27  28  28  28  27  28  31  29  28  30  30  29  28  32  35  36  38  36  39  40  41  43  45  43  45  47  52  55  55  57  60  63  66  69  70  73  79  82  85  92  93  98 105 110 113 121 123 129 135 137 138 143 142 139 131 114  96  69  49  44  46  44  69 124 162 170 172 172 174 174 174 174 172 174 173 174 174 175 173 172 172
  30  27  24  20  20  26  29  31  30  29  32  30  30  30  30  31  33  33  32  30  32  34  30  32  34  39  40  41  42  42  42  43  46  46  44  49  52  55  56  59  61  63  66  69  73  75  79  85  89  90  93  96 100 106 109 115 121 126 132 135 137 139 141 141 140 130 116  98  68  51  43  45  47  72 132 168 172 173 173 173 174 174 173 174 174 175 174 173 173 173 172 172
  30  28  23  20  21  28  31  32  32  32  32  32  33  34  39  36  36  37  37  37  37  38  34  37  42  42  43  44  45  45  46  48  48  50  50  53  55  56  61  64  68  70  70  72  76  79  84  86  92  94  95 100 102 105 109 114 122 124 130 137 138 138 140 139 139 131 120 105  71  48  42  40  49  72 136 167 174 174 173 174 174 174 173 174 174 173 173 172 172 173 173 174
  30  29  27  25  25  28  30  31  34  35  37  39  40  40  40  38  39  41  41  39  40  38  39  42  46  46  47  47  47  47  48  49  52  53  55  58  59  62  64  68  70  74  77  78  80  82  85  89  92  94  96 100 102 105 107 116 122 125 129 134 138 137 139 140 138 131 124 111  81  48  39  39  49  72 142 166 173 174 174 174 175 174 173 173 174 173 173 173 173 174 173 173
  28  28  29  29  28  29  29  32  35  39  44  45  45  42  44  43  42  42  43  41  42  43  46  47  51  50  49  49  50  50  52  51  55  56  60  62  64  67  68  69  71  74  78  79  82  86  89  89  93  95  96 100 101 103 106 110 117 121 128 135 138 135 140 141 139 132 128 121  95  54  35  38  49  69 144 164 172 174 175 174 174 174 173 174 173 173 174 173 174 173 172 172
  30  26  27  23  23  26  30  35  40  45  49  51  49  49  48  46  42  46  46  45  47  49  51  52  54  51  50  51  53  54  56  56  60  62  65  67  70  72  74  75  75  79  78  79  81  85  89  88  91  91  92  93  96 100 102 105 111 116 122 131 134 135 137 141 137 132 130 125 111  60  35  37  50  78 151 169 173 174 174 174 174 173 174 173 174 174 174 173 174 174 173 172
  29  27  26  17  16  23  31  38  44  49  52  55  56  53  50  50  50  49  46  51  53  56  56  54  55  55  57  57  58  60  61  64  67  68  68  73  74  74  79  79  77  79  79  79  80  84  87  86  87  87  88  90  91  94  96  97 101 108 112 117 125 129 132 138 137 134 131 129 121  80  41  38  52  95 157 172 174 174 174 174 174 173 174 174 173 172 173 172 174 173 172 173
  29  27  25  18  18  19  28  36  44  50  56  56  55  52  52  52  52  52  52  58  57  60  60  61  60  61  62  60  62  64  67  69  70  73  70  72  75  74  76  77  75  76  77  76  76  79  79  81  83  85  86  87  85  86  90  92  90  93  98 100 109 115 122 129 129 130 132 133 131 100  48  40  56 111 160 172 174 173 174 174 174 173 175 173 173 173 173 173 174 173 173 172
  28  29  24  20  17  18  26  33  40  47  53  58  60  60  57  57  58  57  59  58  59  62  63  64  63  63  64  65  66  67  70  70  70  73  73  72  73  72  73  74  74  73  74  73  72  73  74  76  78  78  80  78  76  78  82  81  81  81  78  83  88  96 100 100 102 117 129 133 130 114  53  44  57 121 163 171 174 173 173 174 174 174 174 173 173 172 172 172 172 172 173 172
  31  28  24  22  16  18  24  32  41  50  59  65  66  65  62  62  59  59  60  59  60  63  65  64  63  65  65  66  67  68  70  68  70  71  70  69  71  72  72  73  71  72  73  71  70  71  72  71  72  71  69  69  67  69  70  68  63  64  67  63  62  64  70  73  78  94 116 130 133 122  60  49  65 126 167 171 173 173 174 174 174 174 173 173 173 173 173 172 172 172 171 170
  34  30  27  22  17  19  24  32  44  54  61  67  67  66  63  61  59  61  60  59  61  61  63  62  63  65  66  65  66  67  67  68  67  67  68  70  68  70  71  70  69  67  70  69  67  66  66  66  63  61  60  58  58  59  55  50  47  47  48  45  42  46  51  54  59  68  80 115 132 129  73  57  62 144 167 172 173 173 174 173 173 174 174 173 172 173 172 171 171 172 173 172
  34  30  26  21  17  21  25  33  45  56  63  67  68  65  64  61  62  61  60  60  60  59  61  61  62  63  65  66  66  67  66  66  66  65  65  66  66  64  65  66  68  66  65  65  63  63  60  59  54  51  47  44  40  37  33  34  32  32  35  34  32  34  36  37  40  46  60  87 129 133  93  56  61 157 169 173 172 173 173 173 172 174 174 173 172 172 172 172 171 171 172 172
  42  30  29  25  20  21  23  33  46  60  66  68  69  68  65  61  64  65  62  63  60  58  58  59  62  63  64  64  65  64  62  63  63  62  63  62  60  60  61  63  65  65  61  60  58  57  53  51  45  38  34  32  28  27  26  24  24  25  26  26  27  28  30  33  34  41  51  68 114 133 102  60  55 144 170 173 173 173 173 174 173 173 174 173 173 173 172 172 170 172 172 173
  51  30  28  28  21  18  24  34  51  64  70  71  73  73  71  68  67  66  63  61  60  58  59  61  63  62  62  63  61  58  58  57  53  56  56  56  55  54  59  61  64  64  59  56  51  50  44  42  34  30  28  26  22  23  23  22  21  21  24  26  27  30  33  35  39  47  56  75 109 129 116  64  60 123 164 172 173 174 174 174 173 172 173 172 172 173 173 171 171 172 171 172
  96  34  29  29  21  17  23  39  55  66  74  75  76  74  73  69  66  64  59  54  56  56  55  56  57  58  56  54  51  50  49  47  45  46  47  46  50  51  54  59  64  62  57  52  48  45  41  37  30  28  26  25  21  22  23  25  27  29  32  34  37  44  49  56  62  69  80  97 117 133 128  62  54 113 161 168 170 173 173 173 173 173 174 173 173 174 172 171 172 173 172 172
 142  62  31  29  22  17  24  41  59  68  75  76  76  75  72  67  64  59  53  52  50  47  46  46  45  42  38  36  34  35  34  34  32  34  38  40  44  48  50  55  63  62  56  49  47  41  38  36  30  30  29  29  30  30  31  32  34  37  39  40  45  52  61  69  80  89  97 108 121 136 140  82  53 114 163 168 170 172 173 174 173 173 174 171 173 173 171 171 171 171 172 171
 156  97  32  28  24  21  27  45  64  75  78  79  79  78  74  64  55  49  42  40  36  35  33  31  30  28  28  27  26  25  25  25  26  28  30  31  37  43  49  54  59  59  55  50  47  44  40  37  37  35  34  34  32  29  29  29  30  32  34  35  38  44  52  61  76  90  98 109 123 137 142 109  61 106 159 168 169 171 173 173 173 174 173 173 173 173 172 171 171 171 171 171
 159 133  50  31  26  22  29  50  66  75  80  80  78  77  69  53  39  33  29  27  26  26  25  23  20  19  20  19  19  19  20  19  23  23  27  29  31  40  45  52  57  58  55  52  51  48  45  44  40  36  32  28  26  24  22  22  28  41  37  37  38  39  44  53  49  73  96 108 121 135 146 133  85 128 167 170 171 173 173 174 173 173 174 174 173 173 172 172 172 173 173 172
 161 146  80  33  28  28  32  52  71  79  82  83  81  72  52  36  29  27  25  22  20  19  17  18  18  18  22  16  17  17  19  22  25  26  28  31  35  40  46  51  58  60  64  63  58  54  52  46  37  32  27  25  20  18  20  21  27  53  59  66  76  74  55  47  53  60  82 102 120 136 147 144  95 128 166 172 173 173 174 173 173 173 173 174 173 172 170 170 172 173 173 173
 163 150 125  36  30  29  34  56  74  81  83  82  78  61  38  30  24  24  21  19  19  18  18  22  23  23  24  23  25  27  27  29  29  32  31  33  36  41  48  56  63  71  76  78  76  69  55  43  34  29  26  22  18  20  24  24  23  38  61  70  76  84  69  71  66  75  88 105 124 137 146 148 108 131 166 172 173 173 173 173 174 174 174 173 173 172 171 171 172 171 171 172
 162 156 135  48  31  30  34  59  80  83  84  77  69  52  37  28  23  21  20  22  22  26  28  30  32  31  31  31  31  30  31  32  33  34  34  34  37  42  49  60  72  80  87  91  91  78  58  46  36  30  25  25  18  20  20  20  22  41  65  72  71  66  80  93 100 101 106 114 131 140 147 150 122 122 168 172 174 173 173 173 173 174 173 171 173 172 172 171 172 172 171 172
 165 161 149  71  35  31  33  63  79  84  84  80  70  52  39  31  28  27  29  29  30  32  32  31  30  30  30  29  29  28  27  28  30  33  34  35  36  40  48  61  76  85  91  98 102  88  63  50  41  30  24  25  22  21  21  21  28  50  57  57  58  65  95 107 113 118 120 124 138 146 149 151 130 111 166 171 171 173 172 173 172 173 172 174 173 172 172 172 173 172 172 173
 165 163 157  89  34  32  34  63  81  86  88  82  74  56  40  35  35  35  36  35  30  29  28  26  24  24  28  29  29  29  29  28  27  29  32  36  38  40  44  60  78  87  98 104 108  92  69  59  49  35  31  31  32  34  38  40  47  51  53  56  66  76  94 109 116 122 128 134 142 150 153 151 137 110 165 172 171 172 171 172 172 172 171 173 172 171 172 172 171 170 171 171
 165 154 113  86  41  31  34  63  85  88  89  82  70  55  49  45  46  44  36  28  29  22  19  16  18  17  27  38  40  37  36  32  28  27  31  38  40  42  47  57  78  92 102 108 114  97  81  72  59  46  39  37  36  41  45  47  52  52  52  63  72  80  92 109 120 126 133 139 145 150 154 152 143 110 163 171 171 171 173 172 172 174 173 172 172 172 172 172 171 172 170 170
 161 115  75  75  48  31  34  63  86  88  87  80  69  60  57  52  48  40  28  28  22  20  21  16  24  24  25  49  56  52  46  36  27  24  26  38  43  44  50  57  79  95 108 112 115 102  89  84  73  61  45  40  39  41  45  49  51  53  55  62  69  79  92 108 120 128 137 145 146 150 152 152 145 111 162 171 172 171 172 173 174 174 172 171 171 171 172 171 172 172 172 172
 162 104  53  47  41  32  34  64  88  89  89  84  74  66  60  54  43  32  29  26  26  27  21  18  18  21  25  53  57  53  44  33  29  31  35  40  46  51  56  58  78  95 108 116 115 107  92  95  93  82  66  55  49  47  46  47  49  50  53  59  70  83  97 108 119 128 136 147 147 148 151 151 142 105 162 171 171 171 172 173 172 172 172 172 172 171 172 171 172 171 172 170
 163 107  55  47  41  31  34  63  89  93  90  84  76  66  61  50  41  35  31  28  30  31  26  19  16  18  36  54  51  46  38  35  36  41  42  46  53  57  63  66  75  93 109 117 116 112 100 101 102  98  91  81  67  62  59  57  60  61  67  72  82  90  99 113 120 129 135 143 148 149 149 150 146 114 164 171 171 171 171 172 172 172 172 171 171 170 171 171 170 172 171 172
 162 112  60  52  52  47  38  65  90  93  91  87  81  72  62  52  46  46  44  42  44  46  40  33  29  34  46  46  44  43  40  39  38  41  46  51  60  67  73  70  74  89 106 116 116 119 105 104 108 108 108 104  96  86  81  76  74  74  77  81  89  93 100 111 119 128 135 140 143 145 146 147 142 120 166 169 170 171 170 172 171 171 171 171 171 172 171 173 172 171 170 170
 162 110  63  57  59  64  47  69  92  94  92  90  84  78  72  63  60  61  57  55  53  53  50  47  47  47  45  43  43  42  41  40  40  46  55  64  73  78  78  73  77  86 104 118 118 121 110 107 111 115 114 115 112 111 104  96  92  88  90  91  97  99 106 117 124 131 131 137 140 144 142 144 139 130 164 170 170 171 170 170 171 170 170 170 171 172 171 172 171 170 172 169
 161 109  63  58  60  70  48  69  94  97  94  92  90  87  84  79  77  75  69  64  61  56  53  45  48  46  46  46  44  42  41  43  49  58  69  79  81  79  79  76  76  84  98 114 116 120 115 110 114 119 120 120 118 119 118 114 111 106 105 103 106 108 113 118 123 131 134 138 138 142 140 140 135 137 166 170 170 170 171 171 171 171 171 169 171 171 171 170 171 170 171 170
 163 106  65  62  62  76  51  67  94  97  96  96  94  94  90  88  87  86  80  76  71  64  59  52  47  47  46  46  45  47  50  56  62  73  84  86  83  80  78  76  76  83  93 106 112 117 119 111 116 120 120 121 118 117 116 117 117 115 113 111 111 115 117 118 119 127 134 136 135 136 135 138 133 143 165 169 170 170 171 170 170 170 169 169 170 170 171 171 171 170 170 171
 162 111  72  68  66  78  63  66  96  98  98  97  95  97  98  96  95  96  93  90  84  78  73  66  60  57  57  57  59  64  65  68  75  88  89  89  85  83  81  79  79  83  91 104 114 116 122 117 117 118 120 119 114 114 112 110 113 116 114 116 116 118 118 118 120 120 130 133 133 131 132 133 126 146 166 168 168 169 169 170 170 170 170 171 170 168 169 169 170 171 170 171
 161 127  79  70  68  79  64  62  95  98  98  97  97 101 103 100  99  99  98  97  94  91  86  82  76  74  74  71  73  73  76  80  90  94  92  88  82  82  82  80  80  83  91 102 111 113 123 119 116 118 117 116 113 111 106 106 108 110 114 114 116 118 119 117 120 124 129 127 128 130 130 130 119 142 164 167 169 168 167 169 169 169 169 169 170 170 168 168 169 170 169 169
 163 150  83  74  70  81  68  50  94  98  99  98 100 101 102 105 104 100  98 100 100  98  93  87  84  84  84  81  83  85  90  93  95  94  90  85  82  81  80  80  81  85  94 101 107 110 117 120 116 116 113 111 110 107 102 102 105 107 109 107 112 116 116 117 122 124 128 128 128 129 127 127 112 145 162 167 167 167 168 168 168 168 169 168 168 168 169 168 168 169 168 170
 163 161 104  77  70  82  75  48  90  97  98  99  99 100 100 101 100 102 103 104 103  99  99  94  92  90  91  91  94  96  98  99  98  92  88  83  81  80  79  80  81  85  93 100 109 113 118 120 117 113 110 109 108 101  99  98 101 102 104 106 106 110 112 119 122 126 126 127 127 129 125 124 103 148 162 165 166 167 167 167 167 166 168 168 168 167 168 167 168 167 169 168
 164 162 146  86  78  84  80  48  80  95  97  96  98  97  99  98  98  99 103 103 102 104 104 100 100  98  99 100  99 103 101  98  92  88  87  82  79  79  78  79  82  88  93 100 108 112 117 122 117 110 104 104 102  95  93  94  98 101 102 104 104 106 112 117 122 124 126 126 127 128 126 123  99 150 163 163 165 166 166 167 167 168 168 167 167 167 167 168 167 167 167 167
 164 162 160 123  88  88  87  53  67  93  96  96  95  93  93  97  97  97 100  99  99 104 106 103 105 106 105 104 101 102 100  96  90  88  87  81  77  77  76  78  86  92  97 101 107 115 116 120 118 112  94  94  92  88  87  89  94  97  98 100 100 105 110 117 121 121 123 126 125 125 126 119  97 141 161 163 163 164 165 166 166 167 167 167 167 167 166 166 167 167 164 166
 162 162 162 155 101  90  90  67  59  89  95  93  93  91  89  92  94  96  98  99 102 105 105 102 104 104 106 102  99  98  97  92  89  88  86  82  77  74  71  79  90  95 100 104 108 116 117 120 121 121  99  79  81  80  82  84  87  90  95  98  99 104 107 111 116 120 121 123 126 126 124 112  92 142 152 161 163 163 164 164 165 165 164 164 166 165 166 166 166 167 166 167
 162 163 164 161 139  94  93  82  52  81  92  90  90  90  88  88  90  93  93  95  97  98  97  98  99  99 100 100  97  97  92  91  88  86  83  80  74  68  66  80  95  99 102 105 108 115 111 115 122 125 122  81  72  74  76  80  84  87  93  96 101 105 105 109 111 116 120 123 124 126 126 103  92 153 159 160 161 161 160 163 161 162 163 163 163 164 165 165 164 164 164 165
 163 163 162 161 160 120  91  86  60  67  89  89  89  84  85  87  85  88  89  91  94  93  91  92  96  94  94  95  94  93  92  86  87  85  81  74  66  61  66  88  98 104 105 107 112 113 108 111 117 125 125 109  66  68  72  75  79  84  89  93  94 101 106 108 112 116 119 121 126 126 120  92  83 152 158 159 159 159 160 160 161 162 162 163 162 163 164 163 163 164 164 164
 163 163 163 161 160 150  97  83  68  57  85  87  84  83  83  86  85  85  87  87  87  88  88  90  91  90  96  94  93  90  91  88  86  82  78  71  61  59  76  93  99 102 105 109 109 105 100 105 111 124 126 118  91  68  69  71  72  77  84  87  92  96 103 105 110 114 117 120 124 124 116  84  93 152 156 157 157 158 159 159 160 160 160 162 160 161 161 162 163 164 163 163
 163 162 162 161 161 160 139  92  87  55  75  86  84  80  83  84  84  84  86  85  84  84  87  88  90  90  93  92  88  87  88  87  84  79  72  66  55  61  82  94  97  98 100 101  99  94  91  96 103 114 117 106 105  78  71  71  72  74  80  84  87  93  98 106 108 113 114 119 120 121 109  77 101 150 155 157 159 158 158 158 158 157 160 161 162 160 161 162 161 161 163 162
 162 162 161 162 161 162 159 131 102  66  62  82  81  79  82  82  82  84  84  83  82  82  86  87  89  86  87  89  86  86  84  83  79  75  68  62  54  71  84  85  89  90  90  88  91  88  86  84  88  97 100  87  86  84  82  77  73  73  78  82  87  92  95 102 107 112 116 119 120 117  96  69 109 146 153 156 157 156 156 158 158 158 159 158 159 160 160 159 159 160 161 161
 160 161 161 161 161 161 161 158 129  78  50  73  78  78  78  78  79  81  80  81  81  80  81  83  85  84  85  86  85  85  83  80  75  69  65  60  58  81  79  70  69  73  75  74  77  77  75  74  75  81  78  62  78  91  92  90  82  78  78  80  85  90  95 101 108 112 117 120 117 112  92  66 124 148 153 155 153 155 157 157 157 157 157 157 158 158 159 158 157 158 158 157
 159 160 160 162 160 161 162 160 151  87  51  59  75  77  76  77  76  80  78  79  79  78  80  80  82  82  82  83  82  82  81  77  69  64  60  62  63  71  64  53  49  53  57  57  58  60  62  62  63  69  67  66  75  92  97  97  94  86  81  80  82  87  95  98 103 110 117 120 117 105  85  72 124 148 152 152 152 155 155 155 156 155 154 156 155 155 156 155 155 156 157 156
 161 161 160 160 161 162 161 161 157 127  68  49  73  75  74  73  75  75  77  78  78  78  76  78  80  82  81  81  79  78  75  71  64  60  62  66  65  59  45  33  31  29  37  47  49  48  48  51  55  66  75  68  75  91  97 101 104  98  91  86  81  84  90  95 102 106 109 116 111  98  78  65 122 146 150 152 152 153 154 153 155 155 154 154 155 154 154 155 153 154 156 156
 158 160 159 159 160 160 160 160 159 154 116  48  62  72  73  74  75  74  75  78  77  77  76  77  80  82  78  77  75  71  71  67  60  58  66  69  69  59  46  35  33  31  31  35  39  41  42  47  55  58  63  63  71  88  93 101 104 104 102  96  86  82  85  91  99 104 106 112 102  84  66  61 121 143 150 151 150 152 152 153 152 152 153 153 153 154 155 154 153 154 155 155
 157 156 158 158 159 158 159 161 160 157 151  68  49  67  73  71  72  76  78  78  75  74  77  76  78  78  76  75  71  69  68  63  59  63  71  73  70  61  52  44  37  35  36  36  35  35  36  41  43  39  41  48  54  72  82  89  96 101  97  97  93  83  78  85  97 103 102 104  92  73  63  65 128 143 149 151 151 150 150 151 151 151 151 150 150 152 153 153 153 154 153 153
 157 155 157 158 158 159 158 157 157 156 152  98  44  57  67  70  73  73  77  77  76  75  75  77  74  76  75  72  70  68  63  60  58  66  73  74  69  62  52  47  42  36  33  31  33  35  33  32  31  27  31  37  37  53  63  74  82  87  87  87  88  86  77  80  90 101 101  99  80  63  60  84 138 145 147 148 149 148 148 150 150 150 149 149 149 150 151 150 150 150 151 150
 155 156 156 156 156 156 156 155 156 155 153 132  48  46  57  67  71  73  76  78  75  75  72  71  74  75  74  69  68  66  60  57  61  70  75  74  68  60  50  46  42  34  30  29  31  32  32  30  28  24  27  32  38  39  45  54  60  66  65  65  70  80  77  76  86  95  96  89  73  58  56  93 141 145 146 148 148 146 147 148 149 148 148 148 149 150 150 149 149 149 148 149
 153 153 154 155 155 155 156 156 155 154 153 143  75  42  50  62  68  74  75  76  72  72  74  71  70  72  72  69  66  61  58  59  65  72  74  70  61  51  45  42  36  31  28  30  32  31  30  29  28  25  25  30  36  36  38  41  48  50  51  53  55  60  67  73  81  91  92  81  66  54  57 112 137 144 147 146 145 145 146 146 146 146 146 148 147 148 147 146 145 146 147 147
 153 152 153 153 154 154 155 153 154 155 153 148  99  41  44  49  62  68  72  72  71  72  69  67  70  71  71  68  62  58  58  62  67  68  65  62  55  41  37  33  29  30  28  29  31  29  30  30  28  26  26  30  32  35  36  39  44  46  44  44  50  52  57  67  80  89  89  72  60  56  56 123 142 146 146 146 144 145 145 145 145 145 144 145 146 146 144 144 141 143 144 144
 153 152 152 152 152 153 153 153 153 153 152 151 137  49  42  46  53  61  68  70  70  68  69  66  67  68  68  65  62  56  59  62  61  53  53  54  44  34  30  31  29  28  28  29  29  31  31  31  31  28  29  34  33  38  40  42  47  43  36  39  44  48  56  67  80  87  87  70  58  60  65 134 143 145 144 143 142 142 144 143 144 145 144 144 144 144 145 143 143 144 142 143
 152 150 152 152 152 153 152 152 152 152 152 151 147  94  38  42  46  50  61  64  67  66  68  66  63  65  62  62  59  54  55  54  49  41  42  42  37  30  30  29  28  25  26  29  29  31  34  35  36  32  31  33  35  37  44  47  46  38  31  35  39  45  51  68  76  80  80  63  54  55  83 132 140 140 141 141 143 142 142 142 142 142 142 141 141 142 143 143 142 143 143 143
 151 151 151 152 152 152 152 152 152 151 152 150 147 140  68  40  42  43  50  58  65  65  66  65  64  63  63  60  55  52  49  39  36  33  33  34  33  29  28  28  30  26  27  30  34  36  39  42  41  35  33  32  34  38  41  41  36  28  27  30  35  40  50  66  73  74  69  57  48  54  95 135 141 142 143 144 144 142 141 141 140 139 141 141 141 140 140 140 140 140 142 140
 150 150 151 151 151 151 150 148 151 150 151 150 148 144 122  39  38  36  42  52  60  62  64  64  63  62  60  56  51  44  38  29  28  28  31  33  32  27  27  28  28  29  31  32  37  37  40  40  35  31  31  31  34  37  46  45  40  40  36  33  35  38  49  67  71  67  66  55  47  46 110 137 141 141 141 141 142 140 140 139 139 140 140 140 140 140 140 139 140 140 141 140
 149 149 150 150 149 149 148 147 147 148 148 148 146 144 135  69  36  35  39  45  53  60  62  61  63  62  58  56  49  38  29  24  26  29  32  32  31  28  28  28  29  28  30  27  29  28  28  28  27  26  28  30  41  47  58  57  60  60  49  42  39  39  53  66  67  64  62  54  43  48  98 128 133 138 137 137 138 139 139 138 137 138 138 138 139 138 139 138 139 139 140 139
 147 149 149 148 148 148 146 147 147 147 147 147 145 143 141 120  46  36  37  40  44  52  55  58  61  61  58  55  46  33  26  23  26  31  28  28  25  26  27  27  27  27  26  25  25  22  21  22  25  28  35  46  64  62  58  69  76  71  62  53  49  49  60  68  63  61  56  47  38  43  50  56  73 110 132 134 134 135 135 135 134 135 136 135 136 136 138 136 138 137 135 138
 147 148 149 149 149 149 146 147 147 147 147 146 146 145 144 139  84  36  36  33  35  41  48  53  55  57  58  54  43  31  23  27  24  28  25  23  23  24  24  25  25  26  26  30  30  28  29  36  40  47  51  63  62  65  70  82  89  82  75  66  54  54  67  71  61  57  53  39  35  35  32  43  49  56  95 126 134 135 135 134 134 135 136 137 137 136 138 138 137 139 138 137
 148 149 148 149 148 148 148 147 147 146 146 145 145 144 143 139 116  40  34  30  31  35  40  44  47  53  55  50  44  29  24  28  31  32  34  34  32  31  30  31  31  35  38  42  46  41  41  44  48  56  57  60  62  72  80  89  92  89  82  73  63  59  67  69  58  48  44  34  42  28  27  36  43  46  48  60 100 126 133 133 133 133 135 136 135 135 137 138 137 138 137 138
 146 146 147 147 145 146 146 145 146 144 144 144 144 143 142 139 130  67  32  32  30  31  34  40  43  46  49  48  43  30  28  31  36  40  42  44  44  45  42  40  37  41  43  48  49  48  48  48  51  55  57  66  73  79  86  89  92  90  83  74  65  65  68  68  50  41  37  32  63  30  23  32  39  42  42  43  58  84 103 121 128 131 133 134 132 134 134 133 133 133 134 135
 146 147 146 147 146 146 144 145 145 144 142 143 143 142 142 138 133 111  47  29  29  29  32  35  38  41  43  42  43  35  32  37  43  47  50  51  52  53  52  49  49  48  45  47  48  48  49  50  51  58  64  70  75  81  85  84  87  85  80  68  63  63  71  64  42  34  35  32  94  93  25  25  34  41  40  40  47  59  65  70  89 106 124 130 128 131 131 132 132 132 133 133
 146 145 146 147 146 145 145 144 143 140 139 142 141 140 140 136 129 112  62  30  28  29  32  34  34  34  36  42  43  40  34  39  47  51  54  56  56  56  55  57  57  57  54  52  50  51  51  52  53  55  60  68  73  73  75  77  79  77  73  63  57  60  67  56  34  30  34  66 113 121  76  23  29  40  41  39  41  48  53  55  61  63  72  90 103 114 126 129 131 131 132 132
 145 146 145 145 145 144 144 142 140 139 139 141 138 138 136 120  71  48  34  27  25  29  30  31  31  30  33  38  42  41  36  42  52  56  60  59  58  56  54  57  59  59  56  53  48  48  46  48  48  48  56  58  58  61  69  74  77  73  67  57  49  51  57  42  30  28  42 104 120 127 113  45  28  35  39  40  39  45  49  50  48  48  54  56  64  67  83 101 120 126 129 130
 145 145 143 143 143 142 140 140 138 139 139 138 135 128  89  47  35  30  27  26  22  22  26  29  29  29  32  36  39  38  38  44  52  58  61  61  60  57  55  52  52  50  49  47  44  42  40  42  40  38  46  50  54  56  64  72  72  67  55  49  46  45  48  34  27  30  88 113 120 127 126  74  31  33  37  38  37  42  47  48  44  43  46  49  50  53  62  66  70  84  98 118
 143 143 142 141 140 140 139 139 138 138 134 124  93  62  44  35  26  21  25  25  20  16  18  24  27  29  30  33  36  36  35  42  48  52  57  62  62  57  54  50  46  43  41  37  34  33  32  32  33  37  41  46  52  61  68  70  65  58  50  41  38  38  37  30  28  64 101 116 122 127 128  86  37  30  38  38  35  38  44  47  41  38  40  44  44  42  46  52  59  63  58  60
 141 140 141 139 139 137 136 125 115 102  85  64  50  38  29  25  23  19  22  24  23  17  16  18  24  24  29  31  33  32  33  38  43  52  57  62  63  62  58  53  49  46  43  34  32  29  27  29  32  36  39  48  56  64  66  66  59  53  44  37  31  31  29  23  41  88 107 117 121 125 124  86  42  31  34  36  36  36  44  45  41  38  38  39  42  38  40  47  52  57  57  57
 137 138 136 133 124 102  79  55  48  51  49  44  35  28  24  21  19  20  23  24  23  18  15  18  20  20  26  29  29  28  30  30  36  45  53  55  63  63  60  57  54  50  46  40  32  29  28  30  32  41  47  60  59  54  50  54  53  46  40  34  29  26  25  22  63  98 109 117 120 123 119  80  43  28  31  34  32  35  41  41  40  38  37  37  37  36  36  39  46  51  53  54
 124 118  89  72  50  47  43  42  44  41  35  29  25  24  23  19  18  18  22  20  19  20  14  13  21  15  22  27  26  24  23  27  31  38  43  50  61  65  65  62  57  57  53  49  44  36  34  33  35  44  55  67  59  44  40  44  47  42  41  34  27  26  25  42  86  99 110 116 120 120 112  72  41  30  32  32  33  36  38  38  39  37  38  36  34  32  36  38  40  49  51  49
  67  55  48  44  39  34  34  37  37  32  28  24  23  21  19  17  15  18  19  18  20  17  14  12  27  22  16  17  18  17  21  26  26  31  36  48  57  61  65  65  65  66  60  55  51  45  42  40  42  48  58  61  54  45  40  37  38  38  39  31  27  27  38  65  87 100 108 115 117 118 105  62  37  32  33  31  33  33  36  38  39  38  38  35  35  32  32  36  40  44  48  47
  43  41  39  37  34  31  32  36  32  25  25  23  22  19  19  17  14  17  18  18  19  20  15  10  30  35  18  15  14  16  17  21  22  28  33  40  50  55  56  62  61  59  61  58  55  51  48  47  45  48  48  52  46  45  36  33  36  36  33  29  23  28  61  75  89  99 108 113 115 115  88  53  33  31  29  30  31  34  33  35  38  38  37  36  36  35  32  35  40  41  44  42
  35  34  33  32  30  28  31  32  25  24  22  21  19  18  16  15  14  14  18  18  17  18  15  10  23  46  40  20  14  12  11  13  17  20  26  31  38  43  48  56  54  53  51  52  52  50  50  48  47  42  43  44  40  36  34  29  32  32  30  25  24  50  70  76  87  96 106 112 114 112  71  45  30  27  29  30  33  32  31  33  32  34  33  33  30  30  30  32  35  38  40  37
  31  30  28  28  26  26  29  29  24  21  19  20  19  17  15  14  14  14  17  17  17  15  13  10  16  44  48  40  29  18  12  12  12  16  20  24  30  34  36  42  40  45  43  45  47  49  47  47  43  40  38  36  32  30  28  29  33  30  26  22  29  63  74  80  86  95 102 110 110  97  56  36  27  29  26  30  30  33  31  33  33  32  32  32  29  30  31  33  34  36  37  36
  30  26  25  25  24  26  28  26  23  20  18  18  18  16  15  14  15  14  16  15  16  16  14  11  11  36  47  47  42  31  23  16  11  12  15  17  25  27  28  31  34  37  36  39  41  42  40  40  40  34  31  31  28  26  23  25  28  24  19  23  43  67  75  78  86  93 100 106 105  78  44  28  28  27  26  28  31  30  31  33  33  34  32  30  30  28  30  31  31  33  38  37
  28  24  23  25  24  25  25  22  20  19  19  17  15  14  12  13  14  12  13  16  14  14  14  11  10  22  42  47  47  45  41  32  20  13  11  14  17  19  25  24  25  30  29  32  32  34  31  31  30  28  30  28  22  23  17  20  19  18  18  39  54  68  72  80  87  91  97 102  90  54  34  25  24  26  28  28  28  32  31  32  33  33  32  31  27  26  29  32  32  34  34  35
  27  23  23  24  25  25  23  22  19  19  16  16  14  14  12  13  14  13  13  14  14  15  14  13  11  14  33  45  47  47  46  40  37  26  15  13  13  15  20  16  20  24  25  26  26  29  26  25  26  22  27  25  16  21  14  14  16  21  40  59  64  71  73  77  84  90  93  92  64  40  27  26  24  24  24  26  29  29  30  32  32  31  30  30  28  24  28  32  34  33  35  33
  24  24  24  23  23  21  22  20  18  17  16  16  15  14  14  13  13  13  13  15  14  14  14  12  12  11  20  37  47  49  46  45  41  37  31  15  13  12  15  14  15  15  19  18  20  24  20  21  20  17  22  17  15  15  13  16  22  41  56  65  67  70  72  75  80  86  88  72  43  29  26  23  24  22  26  26  27  27  28  29  30  31  29  28  27  25  27  31  32  33  36  33
  23  25  23  23  20  22  22  22  18  16  15  15  16  16  14  14  13  14  14  15  14  12  12  14  12  13  13  26  40  46  48  47  44  42  41  30  19  15  12  11  12  10  13  14  15  17  15  14  14  13  16  16  12  17  21  33  41  53  58  60  65  67  70  74  76  77  67  44  29  25  24  25  22  25  26  28  26  27  28  31  30  30  30  28  27  26  26  27  31  32  32  32
  18  22  24  23  18  19  19  19  17  14  14  15  15  15  14  12  13  14  14  14  14  13  11  11  12  12  12  14  26  38  44  47  47  46  42  40  30  23  15  12  12  10  10  12  12  12  11  12  11  12  13  16  19  25  36  47  52  55  56  60  61  66  66  69  68  59  41  28  22  20  22  22  21  22  26  25  25  26  27  29  29  29  28  27  25  24  26  27  28  30  30  33
  20  20  20  20  18  19  21  18  16  16  15  15  15  13  13  12  14  13  12  14  13  12  13   9  11  11  12  11  15  26  37  42  46  46  45  42  39  35  28  19  15  12  12  11  12  11  12  14  14  17  18  30  37  42  46  49  51  53  53  56  61  61  61  57  50  37  27  23  22  19  22  18  24  22  25  24  26  26  25  28  29  29  28  26  25  24  26  28  28  30  32  34
  20  17  17  16  16  18  18  18  16  14  14  14  12  13  14  13  13  12  14  12  12  13  12  11   9  10   9  12  12  14  25  34  40  42  43  43  42  41  38  30  31  29  27  26  25  22  24  26  26  29  33  41  44  45  46  46  49  51  52  54  55  53  48  39  32  24  20  21  18  20  18  21  20  26  22  25  26  25  27  26  26  27  26  25  24  25  26  26  28  28  31  32
  19  19  16  15  16  16  17  15  14  14  14  13  13  13  12  12  12  12  13  12  14  12  13  12  10  10  10  10  10  10  11  19  29  36  40  40  41  42  39  37  38  37  36  35  32  32  33  35  35  36  38  40  41  42  40  41  44  48  49  50  47  42  32  24  20  19  18  20  16  19  18  21  19  21  23  25  26  24  26  28  26  25  26  25  22  22  25  25  30  30  31  29
  16  17  14  15  16  18  16  16  15  14  14  13  13  12  12  12  13  13  12  13  12  11  12  11  11   9  11  10  10   9   9  10  14  21  28  32  37  38  38  38  38  38  37  37  36  35  35  36  33  36  34  36  37  37  37  38  39  39  40  38  32  27  20  18  17  16  16  17  17  19  21  18  23  20  21  23  25  25  25  28  27  27  26  25  24  25  24  25  29  28  30  31
  15  15  15  15  14  17  16  18  15  14  13  12  13  11  12  12  13  13  14  13  10  12  12  12  11  10  11   9  10   8   9   8  11  12  16  18  25  31  32  34  35  35  35  35  33  32  32  31  29  30  30  31  32  32  34  34  32  30  29  25  20  15  15  16  16  14  15  13  17  18  19  20  19  20  22  23  26  27  27  27  27  26  25  25  21  25  25  26  27  29  30  32
