P2
# Generated by OpenCV 3.4.0
92 112
255
 176 174 165 108  80  63  53  41  38  39  42  39  36  33  35  35  35  31  31  31  38  39  33  33  35  37  37  34  29  28  28  28  28  26  28  29  28  27  24  24  24  23  23  22  23  24  24  23  21  23  22  19  22  21  20  19  18  20  23  23  27  28  29  29  28  26  28  28  25  26  25  25  27  31  36  42  35  36  38  44  42  43  49  53  84  85 110 118 120 168 171 186
 175 171 127  67  63  55  44  38  37  38  37  35  36  34  39  39  34  27  29  32  36  34  32  32  30  32  31  30  28  27  26  28  29  27  27  26  27  27  26  24  25  25  24  23  24  24  24  23  22  21  23  19  21  19  21  20  20  20  24  25  27  28  27  26  26  25  28  27  25  26  26  27  26  28  32  32  32  32  36  43  42  41  49  53  71  86 139 118 132 167 179 189
 171 150  72  56  52  49  39  34  37  36  34  35  33  37  40  36  28  27  30  35  34  31  30  29  31  28  28  28  28  25  27  28  28  26  26  27  27  28  25  25  26  27  24  25  23  24  24  20  19  18  22  18  18  17  18  17  22  23  22  19  22  23  26  27  28  29  27  27  29  29  26  25  27  27  25  26  34  38  39  37  38  45  49  59  85 104 112 110 146 166 182 186
 165  99  56  54  46  46  37  35  40  37  34  37  31  38  39  30  27  30  35  36  34  30  28  27  27  26  25  28  26  26  26  25  25  26  27  28  29  27  26  25  26  25  25  22  22  24  23  17  19  19  17  18  16  18  18  17  21  24  20  21  24  22  23  23  24  23  24  26  27  27  27  29  30  29  29  33  38  39  40  37  48  51  63  70  91 102 106 119 159 172 185 187
 133  68  54  51  44  42  32  38  40  37  39  33  32  36  32  29  31  33  36  34  31  28  28  26  25  25  27  27  26  28  29  28  28  28  29  31  28  27  26  28  26  25  24  24  22  22  21  21  19  19  17  19  17  16  17  18  22  20  22  21  20  21  19  23  24  27  28  28  28  29  31  31  33  31  32  35  37  36  39  46  49  55  72  74  86  98 138 137 166 184 185 189
 113  61  49  46  40  41  34  41  40  37  41  29  31  31  32  29  34  34  34  30  25  25  26  21  24  27  29  28  27  27  28  28  29  28  29  31  31  28  28  29  28  27  26  24  22  22  20  20  18  18  18  20  20  19  16  16  20  17  19  24  24  22  21  26  28  27  26  28  31  38  33  30  30  30  33  31  32  35  44  50  48  54  63  90 107 136 139 155 170 174 179 189
  80  56  51  44  39  38  36  37  36  38  35  29  31  30  30  30  31  31  31  28  27  26  23  22  24  27  24  28  30  29  30  30  29  29  30  31  30  29  30  30  26  27  26  25  24  24  22  18  19  19  19  21  21  22  22  22  21  25  25  27  29  30  30  29  28  28  30  30  30  29  28  29  31  31  29  32  33  43  51  45  50  62  84 118 122 135 143 170 177 180 176 190
  62  52  50  42  41  36  37  34  36  36  28  28  29  31  29  29  30  30  27  24  30  30  27  29  27  28  28  29  30  30  31  30  29  29  30  30  30  30  32  30  29  28  28  27  23  24  23  21  20  16  19  19  18  17  23  22  23  24  27  30  29  31  28  27  29  28  27  26  26  28  28  29  30  32  33  39  46  52  47  49  64  94 113 132 139 159 170 183 183 181 179 189
  60  49  45  41  40  35  36  35  34  35  26  28  29  29  25  28  28  26  27  29  30  30  30  29  29  28  30  30  29  30  31  32  30  30  30  30  31  32  32  29  29  28  30  29  27  27  24  21  22  19  21  21  18  19  23  23  23  27  28  26  25  28  28  29  27  24  25  28  28  28  31  33  37  42  48  56  65  59  50  81 102 101 132 146 163 167 171 181 180 178 186 190
  54  45  39  38  39  36  36  33  35  33  28  28  29  27  27  29  22  24  24  28  30  29  30  27  25  26  28  30  30  30  29  30  29  29  29  30  34  33  32  32  31  30  29  28  30  27  26  24  23  23  22  19  18  19  23  21  20  21  22  21  23  24  24  27  26  26  28  30  30  31  34  39  48  53  62  72  82  86  63 102 136 128 136 145 164 171 175 177 181 182 188 190
  48  41  41  40  42  41  40  35  36  36  29  29  30  30  29  23  21  24  25  29  29  29  30  30  26  27  28  28  29  30  30  26  28  29  30  33  34  32  31  34  31  30  31  30  29  27  24  23  24  24  22  23  19  21  23  22  23  20  20  20  20  22  24  26  26  27  30  31  33  37  43  49  59  66  77  86  92 105  93 130 158 149 153 165 179 180 180 186 186 186 187 189
  46  38  41  41  42  42  44  36  37  32  28  28  30  29  24  19  25  26  27  29  29  28  29  29  29  24  26  25  29  30  28  29  30  34  34  34  33  34  34  30  33  32  31  30  29  26  24  26  25  24  22  24  23  22  23  22  23  23  23  24  24  25  27  28  27  29  31  35  38  47  55  59  68  81  94  98 103 114 115 121 152 161 158 177 183 185 188 188 185 190 191 190
  40  40  40  39  40  39  38  32  35  30  26  29  29  24  22  20  28  28  29  29  29  26  26  26  26  26  28  28  28  27  29  30  32  37  39  34  33  34  33  32  34  31  29  30  28  26  26  27  24  24  24  24  25  23  24  24  25  24  25  25  28  29  30  30  32  37  44  48  54  61  65  78  84  93 100 107 113 122 123 106 137 168 165 182 187 186 190 189 188 188 189 190
  37  37  38  38  37  33  33  32  34  28  28  26  26  24  23  29  32  29  28  30  28  28  28  22  24  24  27  28  26  28  28  30  35  40  38  36  33  30  33  32  34  31  29  30  29  29  28  27  26  25  25  27  24  26  24  25  25  24  26  29  29  30  29  31  37  47  54  62  69  76  78  82  92 104 111 118 121 127 130 126 153 168 175 184 187 184 188 190 191 190 190 191
  38  36  38  39  32  31  32  33  30  29  28  28  27  23  26  29  30  28  27  29  29  28  27  23  25  24  27  28  28  29  32  33  37  37  41  40  40  33  32  35  33  30  30  31  31  28  27  28  28  27  26  26  25  24  23  24  24  25  28  29  29  32  33  37  45  55  63  72  79  80  86  91 100 111 116 122 129 132 134 134 161 175 182 189 192 188 188 190 191 191 192 190
  37  37  36  39  34  29  32  35  31  29  27  27  24  21  21  28  25  24  25  26  25  23  25  22  19  21  24  24  26  29  30  37  42  43  42  43  41  40  36  36  33  32  28  31  29  28  28  27  28  28  28  27  25  25  26  27  29  30  31  32  35  38  38  44  52  60  68  74  77  84  93  95 105 113 114 124 132 135 133 139 162 179 185 189 191 191 190 192 192 190 192 193
  33  37  36  38  38  30  32  36  32  23  26  26  24  23  25  27  24  24  24  28  28  26  27  27  22  21  22  23  27  30  36  41  43  44  43  41  42  42  40  35  33  33  31  30  30  30  29  30  30  29  28  29  30  30  29  30  30  33  35  37  38  41  44  51  56  65  71  78  81  86  93  96 102 114 118 127 129 129 128 136 156 178 188 191 194 192 190 192 193 193 192 192
  34  36  37  37  34  28  32  32  29  27  26  26  25  26  25  24  23  28  26  28  23  18  23  24  23  23  23  26  29  34  36  39  43  44  42  44  46  43  40  34  32  34  33  33  35  33  32  31  30  30  30  32  33  33  32  33  34  36  37  39  42  43  48  55  64  69  74  81  87  97 104 109 115 116 120 129 134 130 129 136 140 176 192 193 192 192 192 193 193 194 190 192
  35  37  35  31  31  29  29  30  30  29  27  23  27  27  25  24  23  26  24  22  19  17  20  21  22  24  28  30  35  36  38  43  43  44  47  48  46  43  40  38  39  34  34  35  33  36  33  33  32  34  34  35  34  33  34  35  36  38  41  41  43  46  52  55  64  74  80  86  94 101 109 114 114 116 119 124 129 135 137 145 152 169 190 192 193 193 194 192 192 192 192 191
  38  37  30  30  30  30  29  30  30  30  28  24  26  25  25  25  22  23  22  20  18  18  20  19  20  25  29  31  35  35  40  42  44  46  47  44  42  44  46  44  42  40  40  41  39  39  37  40  40  40  38  36  37  37  38  37  39  41  43  45  47  52  54  59  70  77  82  90  96 102 108 111 115 116 115 123 133 136 142 147 154 160 182 192 193 192 194 192 194 192 191 191
  39  35  29  31  30  29  29  31  34  31  26  24  26  27  26  24  17  21  22  19  19  18  19  21  24  26  26  31  34  35  38  40  43  44  45  46  46  48  46  44  47  47  46  46  44  42  41  42  42  42  42  42  41  42  45  42  44  46  48  49  53  57  58  64  72  78  85  91  97 103 107 111 116 117 119 124 134 139 145 148 155 165 181 190 193 194 194 192 193 192 191 193
  40  32  30  30  29  30  30  31  34  32  24  24  25  28  24  22  17  19  20  18  19  20  23  22  23  24  26  30  33  41  42  45  46  44  47  52  52  51  50  50  53  55  54  53  50  50  48  50  48  48  49  49  48  47  50  48  48  50  51  53  56  62  64  68  75  80  83  90  97 104 106 113 114 118 123 130 136 142 146 149 155 164 183 189 193 193 194 192 191 191 192 193
  41  31  29  31  29  29  28  31  32  30  25  23  22  26  21  17  17  19  19  19  20  24  24  20  22  23  25  30  33  38  42  45  48  53  54  57  56  55  56  59  61  60  60  58  57  55  53  53  50  52  52  50  51  53  52  51  52  53  54  57  60  66  71  72  79  85  86  88  97 105 108 107 114 120 124 132 136 144 147 152 155 165 182 189 192 193 193 192 190 190 192 191
  39  35  30  33  29  29  28  30  31  28  28  26  21  22  21  16  16  19  20  18  20  22  20  20  20  23  28  31  32  36  41  45  51  53  55  58  58  58  61  62  65  64  64  63  61  62  59  52  54  55  58  59  60  58  56  55  54  57  60  62  65  68  72  75  81  86  92  95  99 106 111 112 117 125 123 132 137 142 146 152 157 163 178 189 192 192 193 191 190 193 191 191
  36  37  32  32  29  28  30  31  30  28  28  26  21  22  22  17  17  18  18  18  21  21  18  19  21  24  27  29  34  40  42  46  51  50  53  58  61  62  65  64  66  67  66  66  65  62  61  58  60  61  62  62  60  57  58  59  62  63  63  65  67  71  75  79  80  85  93  97 106 106 113 115 119 121 126 135 138 143 146 152 158 163 174 186 190 192 192 191 191 191 191 192
  40  36  34  32  29  29  30  30  28  30  28  21  20  23  22  19  18  19  18  18  19  18  17  18  21  23  25  28  35  41  42  45  51  55  58  62  60  65  67  68  68  70  70  68  67  69  68  68  66  64  64  61  61  65  66  65  67  68  68  70  70  73  76  80  83  86  93 100 107 111 110 115 122 123 126 131 137 144 148 154 159 163 171 187 190 192 193 192 192 193 191 192
  43  37  30  30  29  28  30  29  28  30  27  20  19  21  21  22  18  22  18  18  18  18  19  18  19  22  25  30  36  41  45  47  52  59  63  65  67  71  73  73  75  77  76  73  74  80  78  76  75  74  67  66  68  70  68  70  70  72  73  72  73  73  77  82  85  90  95 100 108 117 111 114 117 119 125 130 137 143 150 155 159 163 169 185 188 191 192 192 192 193 192 192
  44  36  30  29  28  28  30  29  28  30  24  19  19  18  19  20  18  17  18  19  18  19  18  19  19  21  25  32  38  43  45  49  55  63  66  66  72  75  78  79  79  80  79  77  78  80  81  79  79  76  74  75  75  72  71  72  73  72  74  75  76  76  82  85  85  92  96 103 111 116 113 113 116 117 123 132 138 145 152 156 161 164 167 183 190 191 193 191 192 191 191 191
  42  37  31  30  29  29  27  29  30  30  25  21  20  19  17  17  18  19  17  19  18  19  18  19  20  21  28  34  40  42  46  52  58  63  68  72  78  80  81  81  78  81  83  81  80  80  80  81  80  77  80  79  76  76  74  74  74  74  76  77  80  79  83  86  87  93  98 102 109 113 114 112 115 117 118 131 138 143 150 157 159 163 165 181 190 192 193 192 192 192 192 191
  43  35  34  29  30  29  27  28  28  29  25  23  19  17  17  17  16  17  20  17  18  19  20  19  20  24  29  34  39  44  50  56  64  70  75  78  79  81  82  81  81  83  82  82  80  81  82  83  83  84  80  79  80  78  75  75  74  74  76  75  78  79  82  84  88  92  98 101 106 110 114 109 112 114 117 126 134 140 147 153 154 157 163 178 190 191 192 192 194 193 192 191
  44  36  34  30  31  30  26  25  27  28  25  21  21  18  17  16  18  17  18  18  19  19  19  18  21  25  29  39  46  52  58  66  72  77  79  82  81  81  83  82  84  85  84  81  77  83  85  85  82  81  80  79  74  73  76  74  76  77  78  75  77  77  83  85  87  91  94  98 101 105 110 108 108 111 113 119 129 136 141 144 145 150 154 168 188 192 192 192 193 192 192 193
  47  37  35  30  30  30  25  23  27  25  25  22  19  18  15  15  18  19  19  19  18  19  18  19  22  27  37  48  56  61  65  69  78  80  81  85  83  85  86  87  86  87  88  84  83  83  83  84  83  80  77  72  70  72  72  71  73  77  76  79  78  81  81  82  83  86  89  94  95 102 104 104 104 105 107 114 118 123 128 130 135 138 141 155 186 191 191 191 192 191 193 192
  65  39  34  28  30  29  25  22  25  25  25  25  19  19  16  17  18  18  20  18  19  19  18  22  26  34  43  56  64  69  73  76  79  81  84  86  87  86  87  89  88  86  88  89  88  84  84  81  81  78  75  74  74  72  72  73  74  73  75  77  76  76  76  77  80  80  85  88  93  96  97 101 101  98  99 105 109 111 113 116 120 120 124 136 179 192 191 192 193 193 193 193
  78  39  32  28  30  30  24  23  25  22  23  23  20  19  16  17  18  16  18  18  17  18  21  25  31  42  50  61  69  74  78  80  81  82  86  88  87  86  86  88  90  89  86  86  86  84  82  81  76  71  67  69  71  70  70  71  70  70  70  70  71  67  70  71  71  72  78  81  84  86  90  95  93  92  92  94  94  97  97 100 102 102 106 112 148 188 192 193 195 192 192 194
  85  41  32  30  30  28  24  23  22  21  22  23  22  21  18  20  18  18  18  19  19  21  27  29  37  49  61  68  75  81  82  84  85  86  88  89  88  88  88  91  90  89  86  82  80  80  75  68  65  63  63  60  58  56  59  58  59  60  60  57  60  60  60  61  63  66  72  74  76  81  85  89  87  83  81  83  81  76  73  76  78  79  84  88 123 188 193 192 193 193 194 193
  78  45  34  33  32  28  26  24  23  20  21  22  22  21  20  22  19  19  19  20  21  26  30  35  46  59  70  76  81  84  85  85  88  87  89  88  89  90  90  90  91  87  86  83  74  68  59  53  48  48  46  43  42  42  45  44  44  40  41  42  43  45  48  50  53  56  62  69  72  76  82  86  82  74  72  68  61  52  48  55  59  62  62  70  95 184 192 192 194 193 192 192
 120  65  36  35  34  29  25  22  24  20  21  23  23  21  22  22  19  19  22  21  24  28  35  46  56  67  77  84  86  85  87  89  90  89  92  91  91  93  91  90  86  85  79  64  55  49  42  40  38  35  32  33  32  32  31  30  29  28  29  29  31  32  36  40  42  49  54  63  66  71  81  85  76  68  60  55  47  40  37  39  43  49  55  62  94 186 193 195 193 193 193 194
 146  72  41  36  34  31  22  23  25  22  23  23  24  21  23  22  19  21  23  22  28  35  43  55  66  76  82  87  88  88  88  90  92  91  93  95  92  88  88  86  79  63  52  48  42  38  32  32  30  30  29  28  27  26  26  25  23  23  23  25  26  30  31  35  35  40  48  52  60  70  82  83  71  62  53  49  40  35  32  35  37  44  50  63 121 186 193 194 194 194 194 192
 167  85  45  37  34  30  24  23  25  23  24  24  21  22  24  19  19  22  23  22  30  39  50  64  75  83  88  90  92  93  91  92  91  94  91  84  87  86  82  68  56  45  37  36  33  30  29  28  28  27  25  25  23  24  24  24  23  28  24  24  27  29  30  30  34  37  44  48  60  71  80  83  73  59  53  44  40  41  46  55  59  71  74  77 162 189 194 195 195 195 193 192
 179 130  45  39  32  30  27  25  24  23  24  23  23  22  22  19  19  24  25  25  30  44  60  78  85  90  95  94  98  99  97  98  96  94  87  71  79  81  69  55  48  42  37  33  30  28  28  28  26  26  26  27  29  31  32  30  28  29  31  32  32  32  34  33  33  39  46  52  60  71  81  83  75  64  53  50  52  55  62  76  87 100 113 148 180 192 195 196 196 195 194 193
 183 149  54  42  33  31  28  25  22  23  24  23  23  24  22  19  22  24  27  29  30  48  67  81  88  92  96  98  99 101 101 103 100  95  90  85  84  76  64  53  48  42  38  36  32  31  32  32  32  33  36  38  38  40  41  40  38  37  36  37  38  37  38  40  38  42  50  58  64  75  89  92  78  60  51  45  44  47  54  65  77 100 148 178 188 194 196 195 196 196 196 196
 184 166  67  44  33  31  30  25  22  24  25  23  24  23  23  19  22  25  27  28  36  52  69  81  90  98 100 101 103 102 103 103  98  95  92  86  82  72  62  52  45  41  41  41  39  37  39  43  42  39  38  38  37  39  39  40  36  32  35  37  37  38  39  41  43  48  55  66  74  83 100 106  74  48  43  43  41  35  41  46  51  68 140 168 185 194 196 196 196 196 196 196
 185 176 100  50  36  36  33  24  24  24  24  23  24  24  23  20  21  25  25  30  40  52  73  84  97 103 103 104 104 104 104 103 101  94  89  86  77  65  62  55  52  49  48  49  47  44  41  39  39  39  40  38  36  32  30  28  30  29  29  35  39  39  40  41  46  51  60  72  84  92 109 120  56  46  46  45  40  33  49  74  79 106 139 162 184 195 196 195 196 196 195 193
 180 154 128 120 106  76  37  28  26  23  24  24  25  23  23  22  23  25  26  35  45  54  74  92  98 104 105 105 106 108 105 103 100  92  88  82  71  68  64  59  55  55  53  50  42  37  37  40  41  38  37  38  32  26  23  27  24  26  26  33  39  41  42  45  46  51  63  79  89 100 114 124  59  50  53  54  43  31  34  71 113 155 157 176 189 194 196 196 196 196 194 195
 137  98  82  80  94 107  88  44  29  25  23  24  24  23  22  23  23  24  29  40  47  57  82  99 102 104 105 106 108 110 107 105 102  96  87  82  75  72  68  63  59  52  44  36  37  39  38  37  42  41  47  50  34  26  23  46  26  26  29  35  42  45  46  48  50  55  66  78  94 105 113 127  70  58  60  61  47  34  41  85 145 169 178 186 193 196 196 196 196 196 194 195
  78  59  54  55  55  64  75  62  37  29  24  24  23  22  20  21  25  27  30  41  46  56  82  98 106 108 107 107 108 109 109 106 103  94  88  82  78  71  65  58  50  44  40  38  38  36  43  47  62  68  64  61  37  24  21  24  26  26  27  35  44  49  51  52  54  60  69  78  93 109 118 131  98  64  61  62  57  44  55 108 154 182 188 191 194 196 196 197 196 196 196 196
  65  56  54  56  61  63  59  57  37  29  25  24  23  23  22  22  26  27  32  45  49  60  85 103 108 108 109 108 111 110 108 108 104  98  94  87  82  72  60  52  47  46  44  45  43  43  48  53  64  71  69  63  40  26  26  27  25  27  28  37  47  51  54  58  63  69  74  79  94 111 123 132 129  78  73  77  83  86  89 111 149 180 190 192 196 196 196 196 196 196 195 195
  62  59  59  64  70  72  70  64  52  37  28  24  26  24  24  23  27  29  33  48  52  66  91 105 106 108 108 107 112 111 111 111 108 103 101  96  85  75  66  59  57  59  60  58  56  57  55  60  62  68  69  67  55  33  27  29  33  33  36  42  47  54  58  66  76  78  78  82  93 111 123 127 142  92  70  73  79  87  92 127 150 185 193 193 195 196 196 196 197 197 195 194
  67  65  65  73  83  85  81  71  60  59  52  37  28  28  26  25  26  29  37  51  51  74  95 103 109 110 110 110 112 110 110 110 110 106 105 101  96  91  84  82  83  79  77  71  68  66  65  66  66  66  68  69  65  52  49  49  43  39  42  48  54  64  70  79  85  84  82  85  95 106 118 128 136 127  72  75  86 102 123 147 163 186 192 193 195 195 195 196 196 195 196 197
  70  68  70  80  92  96  92  81  72  64  65  61  54  45  34  28  28  31  43  52  50  78  96 104 109 115 112 112 112 114 112 114 113 113 111 109 108 105 103 102 103  98  92  86  80  75  71  69  66  63  57  60  57  56  51  49  44  42  46  53  63  76  83  89  92  90  88  88  94 103 112 124 128 144  94  83  93 113 144 159 170 187 193 195 196 196 195 194 195 195 196 195
  74  74  76  85 100 108 104  95  87  80  80  70  67  64  51  34  31  33  47  51  53  79  94 105 106 111 113 111 114 113 115 116 118 117 118 118 116 114 113 111 109 106 100  93  90  83  75  71  66  62  56  56  55  55  51  48  45  48  55  65  79  87  93  96  95  96  94  94  97 103 106 115 126 144 137 112 117 134 155 166 174 187 192 193 194 195 194 195 195 195 196 195
  80  83  82  85 100 112 112 109 105  96  78  58  67  72  66  47  31  36  47  51  58  83  98 108 111 110 112 114 116 117 117 118 118 121 120 121 120 119 119 117 115 110 104 101  99  91  83  73  68  62  58  55  52  51  48  50  52  60  71  84  95 100  99  96 100  99  99 100  98 101 102 108 118 132 152 135 140 150 162 168 174 185 192 193 194 194 193 194 194 194 195 194
  82  87  83  88 103 117 117 111  96  70  46  46  63  76  76  60  33  39  44  50  62  85 101 107 110 111 109 112 116 117 117 119 119 117 120 124 125 122 122 119 120 117 115 111 105  98  91  84  77  68  63  60  58  56  57  60  64  76  90 101 106 105 103 102 103 104 103 104 100 101 102 107 115 124 146 147 149 156 164 169 175 183 192 193 194 194 194 194 194 193 194 193
  86  89  83  87 105 119 112 101  79  54  43  46  55  85  89  77  38  39  43  52  65  85 100 103 108 110 109 111 115 116 116 119 120 120 125 126 128 126 124 122 122 119 117 115 113 107 102  97  92  83  78  76  70  70  68  70  78  93 103 108 110 108 108 106 108 108 106 102 101 102 104 106 114 121 137 152 156 163 168 172 174 178 189 194 194 193 194 191 190 190 192 193
  86  88  86  92 109 117 107  91  70  51  42  46  53 101  99  88  43  43  45  50  58  82  98 102 105 106 107 113 115 114 116 116 121 123 125 124 124 125 126 125 125 114 117 119 120 116 113 106  97  91  89  86  80  77  78  85  94 104 109 110 110 110 108 107 108 108 105 102 102 104 104 107 114 120 129 151 164 168 172 172 172 175 188 193 193 194 194 193 191 190 192 191
  89  90  90  94 109 117 105  87  67  49  45  47  78 112 104  93  51  42  38  47  54  78  93 101 105 106 106 109 111 111 113 116 118 120 122 122 122 123 124 123 122 119 120 121 120 118 112 108 103 100  96  91  87  88  94  99 108 110 110 110 108 108 104 104 105 104 103 100 103 102 103 106 114 120 124 145 164 173 173 171 169 175 188 192 193 192 193 193 192 189 191 190
  90  87  90  93 107 113 101  84  66  53  51  58  90 110 106  92  57  42  37  39  51  73  90 100 102 105 105 110 111 111 113 111 116 118 118 119 120 117 117 116 116 118 120 121 120 118 115 109 104 102  98  96  95  98 103 106 108 110 109 108 104 104 104 104 104 101 100 100 101 101 102 105 110 118 121 137 159 173 173 169 164 174 188 190 191 190 192 191 192 191 190 190
  98  90  93  95 108 113 101  88  72  59  63  70  86 104 104  97  65  43  38  38  49  69  84  94  98 100 104 109 112 110 107 112 114 111 108 110 114 113 113 116 113 116 117 118 116 116 114 111 108 106 101 101 102 105 108 107 105 104 105 106 105 104 103 102 102  98  99  99  98 101 104 108 112 116 121 128 152 168 170 165 162 173 187 190 191 192 191 190 191 190 191 189
 106 100  98  98 112 115 102  89  82  68  79  86  87  94  99  99  64  46  43  37  50  69  78  88  96  98  99 105 106 106 107 109 110 107 108 106 105 106 110 109 107 110 112 110 111 113 114 112 107 108 106 106 104 103 105 103 103 102 103 104 103 102 100 100 100  97  95  96  98 102 105 110 114 117 121 126 144 157 164 163 162 176 188 188 190 191 190 190 190 190 190 189
 146 108 105 100 109 118 104  91  87  79  92 101  96  90  93  97  69  46  43  37  50  63  72  84  90  94  98 104 103 104 103 103 102 105 106 104 100 102 103 105 105 108 109 107 112 112 113 110 106 105 105 106 100 100 101 102 101 100 102 104 103 102  99  97  94  90  92  92  98 103 108 107 112 115 122 125 135 150 158 159 162 179 186 188 190 190 191 190 190 191 190 189
 179 133 109 103 104 116 109  95  86  86 101 110 103  95  92  95  76  43  41  39  47  61  64  79  86  94  99 100  99 100 101 103 101 100  99 102  99  99 100 101 101 103 102 103 106 108 108 105 104 103 101 101  98  99 100 101  99  98  99 100 100  98  93  90  87  84  85  90  97 104 110 111 116 117 123 127 131 144 154 158 164 181 187 188 188 189 190 189 189 188 189 188
 184 175 120 108 103 112 118 111  99  91  98 106 103  97  87  91  72  44  46  43  43  52  61  79  87  95  96  96  95  97 102 102 100  96  95  92  95  97  96  94  94  99  99 100 101 101  99  98 100 100  98  98  97  97  99  97  96  97  98  99  94  89  86  81  80  83  86  92  99 107 112 114 118 119 123 130 130 140 153 158 167 181 186 186 186 187 189 188 188 188 188 188
 186 183 165 117 108 100 105 114 115 116 118 118 106  99 102 100  73  48  49  46  43  53  65  78  86  89  90  91  88  93  96  96  95  93  92  91  94  94  95  96  92  96  96  95  97  98  98  95  94  96  94  97  97  98  97  97  96  96  96  94  90  82  76  75  83  88  88  95 102 109 114 116 118 122 125 127 125 133 150 159 168 182 185 186 185 187 187 186 186 188 187 186
 182 184 180 159 110 105  93  89  95 105 113 117 115 112 107  89  72  49  45  45  41  51  64  75  80  84  87  89  90  91  92  91  92  91  89  92  93  94  93  92  93  94  93  92  94  93  93  94  94  96  94  97  97  97  96  95  95  92  89  86  81  72  71  79  87  92  92  93 101 109 113 116 117 119 120 116 116 125 145 156 168 182 184 185 185 184 185 183 185 185 186 185
 183 183 182 178 153 110 108 103  99 100 107 105  95  92  87  79  77  53  40  44  39  48  57  65  72  78  78  85  85  88  88  90  89  88  87  92  90  91  90  90  92  93  94  92  92  90  91  95  94  97  96  96  96  96  95  91  91  90  86  81  72  65  67  81  90  95  96  94  94  98 100 101 103 104 103 102 108 115 127 138 163 181 183 185 183 183 184 185 183 185 184 184
 182 182 182 182 180 159 109 107 113 115 118 109  93  91  87  88  84  68  43  43  39  46  51  59  66  70  79  83  83  84  88  87  86  85  87  87  88  86  86  90  92  89  90  91  89  89  90  92  92  94  91  91  95  94  91  91  88  84  80  74  67  60  69  85  93  97  96  93  83  81  78  76  77  82  83  84  88  97 104 118 161 177 181 182 183 183 183 182 182 183 183 184
 183 183 181 182 182 180 164 115 111 119 117 110 103 101  96 100  94  75  47  42  38  42  43  52  62  66  76  80  84  82  82  83  83  85  86  85  84  86  86  88  91  89  87  89  90  90  89  89  91  91  90  92  93  92  91  89  86  80  74  68  64  59  69  85  89  88  82  75  66  59  57  58  62  64  66  69  74  81  91 112 169 180 182 182 181 182 183 182 183 183 182 182
 180 183 183 184 183 182 181 175 139 113 109 106 106 102  99 100  95  77  53  39  39  41  41  48  57  62  70  72  83  81  80  81  81  83  82  83  83  85  85  86  88  88  87  90  90  90  89  90  92  93  92  92  93  90  88  86  82  74  69  68  67  59  59  71  71  64  46  32  30  31  34  34  40  48  57  60  63  69  85 139 173 178 180 182 182 183 183 184 183 184 182 183
 182 181 183 182 182 182 182 181 176 146 102  98  97  96  94  97  91  75  55  38  40  41  41  45  51  59  65  67  77  81  81  81  82  81  82  83  83  84  85  84  86  86  87  89  91  90  90  91  94  94  91  92  92  89  85  82  78  70  70  72  71  64  51  51  50  42  30  27  33  37  38  38  39  45  52  53  63  92 141 159 175 177 178 179 181 182 183 181 182 182 182 182
 182 181 181 182 182 183 182 182 181 177 144  94  90  88  86  86  80  66  54  41  34  35  39  43  48  52  60  66  75  78  78  78  80  81  81  82  80  85  86  86  89  91  90  90  91  91  92  91  91  93  92  90  89  87  83  80  74  70  74  78  82  77  60  45  42  42  43  45  45  46  45  45  52  72  92 124 135 142 152 162 172 177 176 177 178 180 180 181 181 181 181 180
 181 181 180 181 182 181 182 183 181 181 176 153 100  80  77  72  66  59  61  44  34  34  37  40  43  48  54  58  67  72  75  74  79  81  83  81  79  83  86  86  90  90  91  90  88  90  92  94  93  93  93  90  88  85  84  80  73  73  81  84  87  86  75  61  52  50  49  50  48  48  52  57  67  73  69 114 143 147 152 161 171 176 175 176 176 177 177 178 179 178 179 178
 180 181 180 181 181 182 181 182 181 182 181 178 174 138 105  93 109  89  73  50  33  32  34  36  39  46  55  58  62  68  69  70  74  79  79  79  82  84  84  86  90  91  91  91  89  91  94  93  93  93  91  92  89  85  83  78  75  80  87  90  93  92  85  68  62  55  53  48  44  48  61  63  59  57  52  62 105 139 147 157 171 175 175 174 175 176 178 176 176 177 178 177
 180 180 178 181 181 181 181 180 182 182 181 181 180 177 175 173 171 117  79  59  41  32  32  30  40  43  51  54  57  61  61  65  68  74  79  80  81  84  84  88  89  90  92  91  91  94  91  91  92  92  92  88  86  84  81  77  79  86  90  95  95  94  88  72  65  58  48  44  42  52  63  61  53  52  46  48  71 111 140 149 169 174 175 174 174 175 176 176 175 176 176 176
 179 179 179 180 181 180 180 180 180 181 180 180 181 180 181 180 174 133  85  63  47  37  30  29  40  39  44  53  54  58  59  65  65  72  78  80  82  84  88  89  89  91  92  90  90  94  93  91  90  91  92  90  87  87  83  81  84  89  92  94  94  87  77  67  59  58  46  43  48  56  67  58  52  49  44  47  57 101 128 145 171 173 173 174 174 175 175 175 175 175 176 176
 177 179 178 177 178 178 180 179 179 181 179 180 180 178 177 178 176 145  91  66  48  38  28  31  41  42  44  49  55  58  58  64  62  65  76  80  80  82  85  86  87  90  91  88  91  90  89  88  90  89  90  89  87  85  83  84  88  92  92  87  86  78  63  51  47  47  41  45  51  56  64  57  49  46  46  49  57  79 107 146 168 172 172 173 173 173 174 173 174 174 174 173
 175 177 177 176 177 178 179 177 179 179 179 178 180 178 178 176 175 157  98  72  46  40  29  31  41  42  42  48  52  53  56  61  59  62  68  72  75  80  82  84  86  88  89  87  88  88  87  89  90  87  88  88  87  86  84  84  85  84  79  73  74  66  53  41  38  44  42  44  51  62  63  58  50  50  53  55  63  71  86 134 163 169 171 172 171 173 173 171 172 173 173 172
 175 176 176 176 176 177 179 178 178 176 178 178 179 177 176 175 173 164 109  81  49  40  33  32  41  41  42  49  50  50  57  61  57  58  62  64  70  77  81  83  82  84  85  86  85  87  88  87  86  87  85  85  85  84  83  81  78  71  59  61  63  53  42  39  36  41  41  44  49  62  68  63  55  57  58  62  64  72  86 134 160 168 170 168 170 170 170 170 170 171 173 172
 175 175 176 176 176 176 176 177 177 176 176 175 176 175 176 175 174 168 118  87  53  38  32  30  37  42  39  43  48  46  54  57  53  53  55  58  66  73  77  74  77  80  83  84  84  87  86  85  84  84  86  84  82  81  77  72  67  55  47  44  49  41  36  37  38  38  45  47  53  71  79  84  73  70  71  72  69  79  85 144 164 168 169 167 167 168 168 169 170 169 171 171
 174 174 176 175 175 176 176 176 176 176 176 176 176 174 174 172 172 171 129  91  67  36  32  29  33  41  38  42  52  47  50  55  51  46  49  54  58  66  69  70  76  81  82  84  86  86  84  84  84  85  83  81  79  75  69  64  50  39  39  40  42  42  40  38  39  42  44  50  56  68  81  88  76  62  62  64  70  77 110 147 164 167 168 165 165 167 166 167 168 170 169 169
 173 175 175 175 176 175 175 176 175 174 174 174 174 174 174 172 174 171 140  96  78  46  34  29  32  36  39  44  50  50  49  51  47  42  48  52  56  59  63  69  73  75  77  83  84  82  80  83  84  82  80  78  74  66  55  47  40  39  38  43  43  45  47  43  45  46  47  46  45  45  49  56  55  60  54  58  74  78 129 156 163 165 167 164 165 166 167 167 166 168 168 168
 173 174 175 174 175 175 175 174 176 174 173 172 172 173 173 172 171 169 148  95  80  59  33  31  31  33  38  39  50  54  48  49  46  39  44  52  52  54  59  65  71  70  74  77  79  80  79  82  81  80  79  74  64  54  44  40  37  38  40  43  44  47  46  44  40  40  41  40  39  38  42  50  72  92  76  71  77  97 147 160 162 166 164 164 166 165 166 166 166 165 166 166
 172 171 172 174 174 175 174 174 173 173 172 171 171 171 171 170 169 168 154  99  82  63  41  30  28  33  36  44  49  54  51  51  48  41  45  49  50  52  58  58  62  64  72  70  74  75  78  81  80  77  75  68  55  45  37  35  38  37  39  43  36  34  34  34  32  31  33  36  39  48  66  84 100 102  94  82  81 117 154 160 162 162 162 162 164 163 165 165 165 163 164 166
 171 171 171 171 172 172 171 172 172 171 171 170 169 168 169 167 167 167 154 106  83  72  45  29  29  30  34  44  48  50  48  51  49  42  46  48  48  48  50  51  53  58  64  65  69  71  74  78  77  75  69  58  48  34  37  35  33  31  28  28  28  29  31  34  38  40  48  64  65  73  88 101 110 106  98  88  93 140 157 161 163 161 161 164 164 164 164 166 165 163 163 166
 169 170 171 170 169 169 169 170 169 168 170 169 168 167 167 167 167 165 153 108  84  79  55  31  27  29  36  40  46  44  45  49  47  41  45  50  46  43  43  45  49  56  58  58  64  67  70  76  74  68  62  52  41  35  39  34  34  34  34  35  36  37  42  43  48  56  63  78  84  90  92 105 110 109 101  85 116 148 155 158 158 159 161 161 161 161 161 164 163 163 163 163
 169 170 170 170 169 169 167 167 168 168 168 168 167 166 166 164 162 160 144 102  88  80  68  46  30  26  27  34  37  35  39  46  43  41  44  50  40  38  41  44  48  52  54  56  58  62  66  68  67  64  58  47  39  38  41  41  43  46  47  51  51  50  48  50  51  61  70  78  85  91  92  97 102 111  97  85 125 150 155 158 157 159 159 160 159 160 158 159 160 163 161 162
 169 170 169 169 167 166 166 167 167 167 166 166 165 164 162 158 136  91  69  88  85  81  74  51  34  24  23  26  29  28  37  42  43  44  48  49  45  37  40  42  47  51  51  54  55  59  58  62  63  61  55  46  42  44  47  50  52  56  58  62  62  60  60  60  60  60  64  70  76  82  85  89 100 110  89  88 145 151 156 158 158 160 161 160 161 161 159 159 160 161 162 160
 167 167 167 166 167 165 166 166 164 163 164 164 162 161 151  83  55  46  42  78  85  77  71  59  40  26  20  21  25  27  36  40  42  43  44  48  43  37  41  42  48  51  50  51  50  53  55  55  57  60  54  47  46  49  55  58  63  68  68  66  65  63  64  63  64  62  63  64  67  70  72  78  97  98  79 103 151 155 156 156 156 157 158 158 158 157 158 158 159 159 161 160
 167 165 165 165 164 166 163 163 160 161 160 160 155 128  71  45  40  31  29  66  83  75  66  63  51  33  21  18  20  25  30  36  40  37  41  47  42  39  43  48  53  50  47  48  48  46  48  53  56  57  54  46  50  51  60  65  69  71  70  68  65  64  63  63  63  60  56  53  55  59  63  75  87  84  67 107 145 151 153 153 153 154 154 154 154 154 155 156 155 156 158 158
 167 165 162 161 162 162 161 161 158 149 127 112  89  49  45  36  31  24  22  58  87  78  65  56  52  44  29  20  19  23  25  32  37  33  38  43  43  42  44  46  49  46  43  44  44  45  49  53  55  53  47  47  50  58  64  70  71  71  71  67  62  58  56  55  55  51  46  44  47  52  57  75  81  65  55  74  94 121 140 149 150 152 151 151 152 154 153 154 153 155 155 156
 164 163 161 161 162 161 158 152 111  79  60  54  49  37  37  31  28  20  15  52  83  80  68  56  54  43  32  23  19  22  20  28  29  30  32  41  42  41  40  42  44  44  44  43  44  45  48  52  52  49  45  48  55  63  67  68  70  70  69  64  60  56  51  47  46  41  37  38  41  53  68  91  78  57  52  60  68  72  83  99 123 142 149 151 153 155 155 155 154 153 154 155
 162 160 160 159 160 155 123  78  50  45  40  38  34  33  33  28  23  16  18  77  81  77  71  61  52  42  36  29  23  21  17  20  24  25  28  31  36  34  35  39  40  42  46  43  43  46  48  50  50  45  42  48  54  60  63  69  70  70  66  65  62  56  54  49  42  37  36  37  49  70  81  84  68  53  49  49  54  57  64  72  78  91 112 136 144 148 150 152 152 151 153 155
 160 157 155 145 120  95  66  50  37  33  32  36  30  30  30  25  19  18  52  86  82  77  72  65  57  47  37  32  29  21  15  16  18  19  21  26  28  29  34  36  36  37  39  42  46  46  46  46  43  40  41  47  56  62  66  70  70  71  70  68  63  62  55  52  48  44  42  44  65  87  77  69  62  48  47  47  48  52  52  54  64  73  79  82  90 117 146 149 151 150 151 153
 150 131 106  76  67  55  44  37  34  28  30  29  29  29  29  25  16  28  73  84  81  75  70  66  61  56  47  41  29  25  19  15  15  15  16  23  25  28  33  32  35  36  39  43  41  45  43  36  37  38  40  47  53  60  64  68  73  74  74  72  69  67  67  67  62  57  54  53  72  93  72  64  56  52  51  47  44  47  48  47  49  56  67  72  76  72  83 107 131 145 148 151
  69  63  66  57  48  41  34  31  31  29  29  30  29  28  26  21  17  43  82  84  79  74  71  65  62  59  50  47  42  33  29  20  16  16  15  17  20  24  27  28  30  34  38  38  39  38  36  33  32  33  38  44  50  53  58  69  77  80  80  78  78  79  76  76  72  67  62  59  73  83  74  61  54  52  51  46  43  44  47  45  44  50  54  63  69  71  72  78  81  90 107 127
  56  52  51  45  36  34  30  28  26  25  28  29  27  27  25  21  17  46  79  81  79  74  71  66  62  59  53  50  48  45  37  30  22  17  15  14  15  18  23  27  29  31  33  33  31  30  29  30  31  34  34  38  47  49  59  70  77  75  78  81  80  79  82  78  75  70  70  66  70  72  69  59  57  54  48  44  41  42  43  39  40  44  49  56  63  65  67  62  64  70  79  83
  48  43  36  34  32  31  28  25  24  24  27  26  26  25  25  20  18  47  76  81  76  75  69  68  62  63  57  51  52  50  48  37  32  25  18  15  15  14  15  17  22  22  25  28  28  28  29  30  31  31  31  39  44  48  53  63  69  70  71  75  73  72  71  70  70  70  71  65  65  66  59  54  52  49  46  41  41  40  37  35  38  42  46  51  57  58  57  55  57  59  63  63
  41  35  34  30  29  27  26  24  23  25  24  25  25  27  25  21  18  44  71  78  77  75  69  67  65  64  60  55  52  49  51  47  38  34  29  19  17  14  15  14  16  16  18  17  18  20  24  24  26  25  29  33  36  40  45  52  54  58  63  64  61  63  62  64  64  70  64  61  57  55  52  45  42  49  45  42  40  38  37  35  36  39  45  50  53  53  54  53  55  51  52  54
  36  33  32  29  27  27  25  22  21  24  24  22  25  25  23  20  19  39  68  75  76  72  68  67  66  66  64  58  53  51  50  50  45  41  39  31  26  21  16  13  13  13  15  15  15  16  17  18  20  22  26  30  31  33  38  41  46  47  49  52  49  53  53  54  57  61  54  51  50  48  49  42  42  44  42  42  39  37  35  37  37  36  42  45  49  49  50  50  50  48  50  52
  30  30  29  27  26  25  22  21  20  21  23  24  24  24  24  20  17  30  61  70  76  72  68  65  68  65  63  61  57  54  52  50  50  49  47  42  37  34  23  19  16  14  14  14  15  15  15  16  16  18  22  25  26  28  30  34  33  34  40  39  40  44  45  46  50  49  44  41  40  39  45  39  38  37  34  36  36  34  32  30  32  35  39  42  45  44  46  47  48  47  50  48
  31  28  28  28  25  24  21  22  21  21  21  24  22  22  20  21  18  27  49  64  73  72  69  66  64  65  64  63  62  58  55  53  50  51  52  49  47  44  34  27  24  20  15  16  16  13  14  14  13  16  16  19  18  23  24  28  27  28  33  30  32  37  38  36  39  39  35  30  30  35  35  37  37  36  35  34  34  32  31  31  32  35  37  38  39  40  43  43  46  47  45  45
  29  27  26  27  25  23  19  21  20  19  22  23  22  22  23  20  19  22  40  60  68  72  68  66  65  64  62  63  63  62  57  56  55  52  51  50  48  47  44  33  30  29  26  26  22  20  19  17  14  14  14  16  15  17  18  21  21  22  25  26  27  29  28  29  31  31  30  24  26  32  32  33  35  35  36  36  36  31  30  29  31  32  34  37  40  39  40  42  39  40  42  44
  26  27  25  24  21  19  19  19  20  19  22  23  22  21  21  22  19  19  31  51  64  71  70  67  67  66  64  63  63  63  61  59  57  54  54  52  50  50  48  41  37  35  32  31  31  32  32  32  26  18  14  15  14  15  16  15  17  18  18  18  20  21  23  24  28  24  23  18  22  29  31  34  33  34  36  36  35  32  28  28  30  33  35  37  38  38  39  36  36  37  42  45
  26  26  25  23  20  20  19  19  19  20  20  21  21  22  21  20  20  22  25  42  59  63  68  67  68  67  66  63  62  61  60  61  60  58  56  55  54  50  49  46  42  39  36  37  37  38  41  46  46  43  30  21  18  17  15  14  16  15  14  15  16  16  16  21  22  17  19  22  26  28  32  34  32  34  34  35  33  31  29  25  30  33  37  36  40  38  37  37  34  34  39  39
  26  25  25  23  21  19  19  18  19  18  18  22  23  22  21  21  21  18  22  33  53  62  66  68  68  68  66  63  64  60  59  59  58  58  56  55  54  51  51  47  44  41  39  37  37  37  42  50  55  58  56  41  30  23  18  18  16  16  16  17  16  17  17  20  21  18  21  23  26  27  31  30  31  32  34  33  30  28  28  26  29  33  36  38  38  38  39  34  32  31  32  34
  26  22  24  21  22  21  20  19  19  19  19  22  21  22  19  19  19  20  21  24  40  57  62  65  67  66  64  63  61  62  62  62  58  56  55  55  53  54  52  50  46  43  41  38  38  42  47  52  56  59  62  56  48  42  38  31  22  28  26  24  30  35  21  19  20  23  23  26  25  29  30  27  29  32  33  32  30  29  26  25  26  31  34  34  35  36  36  33  33  32  32  34
  22  21  22  21  22  20  19  19  19  20  20  22  20  18  19  18  19  18  20  21  28  45  58  62  63  63  64  63  63  62  61  61  60  58  58  56  54  54  51  48  45  43  41  40  42  45  51  52  58  62  63  60  59  59  56  56  53  62  61  59  58  34  20  18  20  23  24  24  26  28  29  27  29  30  32  32  32  27  26  24  26  27  32  34  35  38  35  31  31  31  32  32
  22  21  20  19  18  19  20  18  19  19  21  19  18  18  19  17  18  18  17  18  23  31  46  56  59  61  60  61  63  62  62  60  56  57  57  55  54  54  54  49  48  45  44  44  46  49  51  55  60  63  63  60  61  63  64  65  70  73  72  60  39  23  20  17  20  20  24  21  26  27  26  27  27  29  31  31  29  26  25  24  27  28  30  33  35  38  35  33  31  29  31  31
  20  19  19  19  18  20  20  18  18  19  19  18  18  17  18  19  16  18  16  19  18  22  30  44  52  56  56  57  61  62  61  58  58  56  54  54  55  54  53  52  52  51  48  51  51  54  55  55  57  58  58  59  58  62  64  66  69  66  55  37  20  18  19  19  19  21  19  25  26  28  26  26  28  28  29  31  28  26  25  26  25  28  30  33  35  37  34  35  31  29  30  30
  21  20  18  19  17  17  17  18  17  17  18  17  19  19  18  18  18  17  18  16  16  19  20  32  40  48  53  56  56  56  58  56  57  55  55  54  55  53  51  51  51  51  51  51  53  52  52  53  53  54  54  52  54  57  60  61  57  50  34  21  17  18  18  19  16  21  19  23  25  27  26  25  30  28  29  30  26  24  23  24  27  27  30  32  33  33  34  32  30  30  32  32
  19  19  19  19  17  19  16  16  16  17  17  17  18  19  15  18  18  15  16  15  17  16  17  19  27  36  45  47  50  51  52  54  56  54  54  54  54  52  53  51  49  47  45  47  50  49  50  50  50  50  51  54  54  54  53  50  41  29  20  16  17  16  18  16  18  18  23  22  23  25  26  25  27  32  30  27  25  24  24  24  26  25  31  31  33  34  35  32  31  29  30  31
  22  21  19  17  17  18  17  16  17  17  17  17  17  18  16  18  17  16  17  17  15  15  17  17  19  21  30  35  40  43  48  50  52  51  52  53  51  49  50  50  49  46  45  44  44  46  41  41  41  44  48  49  49  47  40  33  24  17  16  16  17  15  18  17  21  20  23  21  21  24  25  27  27  29  31  29  25  25  24  24  25  27  31  33  33  34  35  33  31  30  27  30
  19  19  18  16  18  17  16  17  18  16  17  18  17  17  17  16  18  17  17  15  14  17  16  14  17  16  20  24  28  31  37  41  44  47  49  49  48  49  45  47  45  43  39  41  39  39  37  36  38  41  41  41  36  30  26  20  17  15  16  15  16  16  16  18  18  21  20  21  22  24  25  28  28  28  28  27  27  26  23  24  27  27  29  31  33  34  35  34  29  28  27  29
