P2
# Generated by OpenCV 3.4.0
92 112
255
 164 165 165 165 166 166 168 169 166 167 166 169 168 169 170 171 170 170 170 170 170 170 170 172 171 172 172 172 173 172 172 173 173 173 173 175 174 175 175 174 174 176 175 175 176 176 176 176 175 175 176 177 177 176 176 177 177 177 176 175 175 177 177 177 176 175 176 177 178 178 177 176 177 177 177 176 175 176 176 176 175 175 175 174 175 176 175 175 176 176 175 175
 164 165 166 165 166 166 167 167 167 166 168 169 168 169 170 170 171 172 171 171 172 171 172 172 172 172 172 172 173 172 173 173 174 174 175 174 174 174 176 175 176 175 175 175 175 178 177 178 179 176 177 177 177 176 176 177 178 177 178 176 176 177 180 178 177 177 179 178 180 179 178 178 176 176 175 176 176 175 176 176 176 175 174 175 175 175 175 175 176 175 175 175
 164 164 167 168 166 166 167 168 169 168 167 168 170 170 170 171 171 171 172 170 171 172 172 172 172 173 173 172 172 172 173 174 174 174 174 174 176 176 177 174 177 178 175 176 174 176 176 176 175 176 176 177 178 176 176 176 175 177 178 177 178 179 178 176 177 180 179 178 180 179 179 178 179 177 176 175 176 177 177 176 177 176 175 174 175 176 176 176 175 175 174 175
 166 167 167 168 166 167 167 169 170 168 168 170 170 169 170 171 171 171 171 170 172 172 172 170 173 173 172 173 173 173 174 174 174 176 175 174 175 176 175 175 174 174 176 175 175 175 174 175 175 176 176 176 175 178 177 178 179 178 179 178 178 178 179 179 178 178 180 179 179 180 177 178 176 177 178 175 176 176 176 178 176 176 177 176 175 176 175 175 175 175 175 174
 165 166 166 166 166 167 167 168 168 170 170 171 170 171 172 172 172 170 171 172 172 173 171 171 172 173 173 173 173 173 174 174 174 175 176 175 174 175 175 175 175 174 172 170 171 174 174 172 171 171 174 176 175 175 176 176 176 178 178 177 178 179 176 179 178 179 180 180 179 177 177 175 176 176 178 176 177 176 177 178 177 176 177 176 176 175 175 176 176 175 175 175
 166 166 168 167 168 168 168 169 169 170 170 170 171 171 170 170 171 172 171 171 172 173 172 173 173 174 173 174 173 173 173 173 173 174 174 174 175 174 171 168 165 163 159 156 154 155 166 169 170 165 163 168 170 172 175 174 176 176 176 176 178 179 179 178 176 179 179 176 177 179 178 177 176 176 179 177 177 177 179 177 178 176 177 176 176 175 176 176 175 177 175 175
 167 167 166 168 168 167 169 168 168 170 170 170 170 171 170 170 170 171 172 171 172 172 173 173 173 173 172 174 172 172 172 172 173 174 174 173 171 166 160 155 140 127 119 111 109 108 107 123 139 148 140 131 127 133 153 170 167 175 176 175 177 178 178 179 179 179 179 178 179 180 180 178 177 178 179 177 178 177 178 176 175 176 178 177 177 178 177 177 176 179 176 176
 166 167 169 169 168 168 167 167 169 169 170 170 171 170 171 170 171 171 171 171 171 172 172 173 172 173 174 173 172 174 172 172 172 171 168 162 158 139 118 101  91  80  79  73  76  77  78  76  78  82  89  96  95  95  99 101 129 151 169 174 175 175 176 178 178 179 179 179 180 180 178 178 175 179 178 177 178 180 177 178 177 176 178 176 177 178 178 176 176 176 176 176
 167 167 168 168 168 166 167 169 170 171 171 171 171 170 171 170 172 171 172 171 171 172 171 172 172 174 173 171 171 170 166 158 156 143 113  97  80  72  67  65  64  63  62  60  62  66  65  64  65  69  77  80  84  84  83  82  81  91 121 164 170 173 174 176 178 180 177 177 176 177 176 179 177 177 178 178 178 179 178 176 178 177 176 176 176 176 176 177 176 175 176 175
 167 167 168 168 169 169 169 170 170 170 171 170 171 170 171 172 172 172 172 170 170 171 171 172 172 171 172 170 168 163 128 105  90  81  70  69  67  63  62  60  54  52  54  55  60  63  66  66  63  64  66  69  73  73  77  76  74  76  79  96 140 164 172 176 179 178 175 176 176 176 176 179 179 177 177 178 178 178 178 176 176 177 176 177 176 176 177 176 176 176 176 176
 167 168 167 167 168 169 168 169 169 170 170 170 171 171 171 171 172 171 171 171 171 172 172 172 172 171 171 162 138 107  90  76  66  58  59  59  57  56  55  53  50  47  43  45  50  53  54  50  44  46  48  56  56  55  53  55  62  69  73  76  88 140 165 171 176 177 177 178 176 176 176 177 178 177 177 176 177 178 175 175 175 176 175 176 176 176 178 176 176 176 176 175
 166 168 167 167 169 168 169 168 169 170 169 170 171 171 172 172 172 171 172 172 173 172 172 170 170 167 157 138 127 106  80  65  55  51  49  49  46  44  44  46  41  43  44  47  51  53  54  50  48  45  44  47  51  49  47  46  47  52  59  67  74  84 118 155 167 175 177 177 177 178 179 176 178 177 176 176 176 179 177 176 176 176 176 176 176 176 177 179 176 176 176 176
 165 166 166 167 168 168 170 169 170 171 170 170 169 170 171 172 172 173 172 172 173 173 173 171 170 162 151 131  83  65  58  53  50  48  48  49  50  50  48  50  50  48  47  49  47  51  53  54  50  43  40  40  42  47  48  46  46  47  51  57  66  75  82 105 132 164 173 177 177 179 176 177 177 176 177 177 178 176 178 176 176 176 175 176 176 180 179 176 178 176 175 176
 165 165 166 168 167 167 168 169 170 171 171 170 170 170 171 172 172 173 173 172 173 172 173 171 168 159 135  80  60  54  50  47  46  47  50  49  45  46  45  47  48  48  45  50  52  53  56  52  49  44  41  36  36  38  42  45  47  47  46  49  54  64  70  78  98 124 163 173 177 180 179 180 178 177 176 178 178 176 176 176 177 177 176 176 178 177 178 176 176 176 175 175
 167 166 166 168 166 168 167 167 168 168 169 170 169 170 171 171 171 171 172 172 172 172 172 171 165 125  66  55  49  48  45  42  41  43  46  49  48  46  45  46  44  45  46  48  47  49  49  48  46  41  36  35  35  36  38  37  43  45  43  43  46  51  64  71  76  91 118 165 175 178 176 176 177 178 176 179 176 176 176 177 175 176 178 177 177 176 179 178 177 177 175 176
 167 166 166 168 167 168 168 168 168 167 168 169 170 172 170 172 172 171 172 172 172 172 171 167 133  72  56  49  45  44  43  41  42  42  44  48  50  50  52  49  48  45  43  46  45  45  47  47  42  41  38  30  28  28  31  33  35  40  40  40  43  44  53  64  69  71  85 132 170 175 176 177 178 179 179 179 177 177 178 176 178 179 176 177 178 177 179 176 178 177 176 178
 167 166 167 168 166 169 169 169 168 169 168 170 170 171 169 171 172 171 171 172 173 171 165 146  80  58  47  47  47  44  42  41  41  41  42  45  46  46  48  50  52  48  45  44  44  41  46  46  45  41  37  34  30  30  29  30  33  34  38  40  41  41  45  52  63  65  68  88 154 174 175 175 176 178 178 178 178 179 179 175 178 177 177 177 180 177 179 178 177 176 176 175
 167 166 166 167 168 168 167 166 168 169 168 169 170 171 170 171 173 171 172 172 173 172 163 120  61  53  47  45  44  41  38  37  36  39  38  40  43  40  40  40  42  41  42  40  37  36  37  38  38  36  37  35  34  33  34  32  31  31  36  40  37  35  37  43  54  61  61  72 112 167 174 177 177 178 179 177 177 179 177 177 178 177 177 177 178 177 177 177 176 176 176 174
 166 166 166 167 168 167 166 168 170 169 170 170 171 170 170 171 172 172 173 172 173 170 150  77  57  52  45  42  45  38  34  33  35  36  38  38  39  40  38  37  36  35  35  35  36  39  36  38  36  38  37  33  32  30  32  30  30  33  36  36  38  33  34  37  44  51  57  66  82 152 170 176 175 178 179 179 176 179 177 176 180 178 177 176 178 179 176 175 176 177 177 176
 167 166 167 167 168 168 170 170 170 170 170 171 170 170 170 172 173 172 172 172 169 153 110  69  55  49  43  40  43  41  35  30  33  34  35  35  35  34  33  36  40  40  41  39  37  36  39  38  36  33  31  29  29  31  29  26  27  28  34  35  35  36  32  34  38  46  50  57  68 110 158 173 176 177 179 178 177 178 177 180 179 178 178 176 177 177 176 176 177 176 176 176
 167 167 166 167 169 171 171 172 171 172 171 171 170 171 171 171 173 174 173 172 157 134  89  62  45  43  42  37  40  42  40  31  30  29  30  32  33  34  36  35  34  30  30  30  32  36  33  27  25  24  24  27  28  31  29  27  27  29  30  33  34  35  35  36  38  43  45  49  58  81 134 165 176 175 178 177 178 177 178 178 178 180 178 177 178 176 177 177 176 176 176 177
 167 166 168 170 169 170 170 172 172 172 171 172 172 172 171 172 173 172 172 169 161 133  79  52  42  39  40  39  36  36  38  35  30  28  29  34  33  31  32  30  30  29  30  34  35  29  24  24  22  23  24  26  27  28  30  29  26  26  26  29  33  38  38  32  34  37  41  46  54  67  91 164 172 175 178 178 179 177 178 178 178 178 179 178 177 176 177 176 177 177 177 179
 166 168 169 170 170 171 171 171 172 172 172 172 171 172 172 173 173 174 173 171 165 120  67  57  46  42  36  38  34  33  32  34  33  34  33  30  28  27  26  26  27  28  32  30  26  24  24  24  23  21  21  22  24  28  29  25  26  25  25  26  30  27  29  30  30  31  34  38  48  56  63 136 168 175 177 178 178 176 178 179 180 179 180 180 179 177 176 176 177 177 178 176
 169 169 169 170 170 171 172 172 171 172 172 172 172 172 171 174 173 174 173 172 155  92  66  55  44  40  35  32  32  34  33  35  34  32  30  29  27  27  28  28  30  33  30  28  27  24  25  24  24  24  23  24  24  26  27  26  25  25  26  26  25  24  26  31  30  30  33  35  42  51  54  77 156 174 176 177 179 180 179 180 180 178 179 180 180 179 179 178 179 178 177 177
 170 170 170 170 170 171 172 172 171 173 173 172 172 173 173 173 174 172 173 169 120  77  68  51  44  40  34  31  30  31  34  30  29  30  29  29  29  29  31  32  30  30  25  24  23  23  23  24  23  26  26  22  21  26  27  25  24  24  26  28  27  26  26  30  35  34  34  35  36  43  46  58  84 162 175 176 178 178 180 180 179 179 178 179 180 178 179 178 178 178 177 178
 171 171 170 170 171 171 172 172 173 173 174 173 172 172 173 173 174 173 173 167 109  66  54  47  43  38  36  35  32  30  30  30  30  29  28  28  27  29  30  28  29  28  26  23  23  23  23  25  26  25  24  24  24  26  26  24  24  25  27  28  29  28  29  30  32  32  32  32  33  38  40  47  53  94 171 177 177 175 179 181 180 181 180 180 178 177 179 179 178 179 178 176
 171 171 172 172 172 173 173 173 173 174 173 174 175 174 173 174 175 174 173 168 122  79  54  46  41  36  36  36  33  31  31  30  29  29  29  28  26  26  29  28  29  28  29  26  25  26  26  24  24  24  25  27  27  27  29  29  28  29  33  33  35  37  36  37  40  40  39  36  33  34  37  38  45  49 128 174 177 178 180 180 182 180 180 181 179 178 179 180 180 179 178 177
 170 172 171 171 173 173 173 174 175 174 174 176 175 175 174 174 174 173 174 167 116  62  48  45  39  38  36  34  34  34  33  32  30  30  30  28  28  28  29  30  30  29  29  29  30  30  28  30  29  30  30  30  31  33  36  38  39  42  46  47  50  56  58  60  63  60  52  48  37  31  36  37  44  49  63 151 174 177 181 181 180 180 180 182 180 178 181 180 180 177 180 178
 172 172 171 170 172 172 173 174 175 174 175 175 175 175 176 174 175 173 172 162  97  58  48  42  41  37  36  35  34  35  34  34  33  29  29  29  29  29  30  32  32  33  33  32  35  34  34  35  37  36  37  38  42  45  48  50  53  56  58  65  69  76  81  87  89  91  84  71  53  37  36  39  42  46  52  73 161 173 178 181 181 182 181 181 180 180 181 180 179 179 178 179
 171 172 171 172 173 173 175 175 174 175 176 176 175 176 176 175 175 174 166 142  69  57  48  42  41  37  38  35  35  34  35  35  31  31  32  31  33  35  36  35  37  38  38  39  40  41  42  44  45  45  48  50  53  56  61  61  64  67  73  77  84  89  95 102 108 115 121 112  82  56  40  39  41  42  47  49  98 164 176 180 180 181 181 178 181 181 181 179 178 178 179 178
 172 172 173 172 172 174 176 178 175 175 175 176 174 175 177 176 178 175 164 109  75  54  47  43  40  37  36  34  34  37  38  38  37  38  35  36  39  41  40  40  42  42  42  44  45  47  48  47  49  52  55  59  60  62  64  67  73  75  83  88  93  98 104 109 120 128 137 139 120  84  54  40  41  47  45  47  60 138 173 176 180 180 181 181 180 181 181 179 180 179 179 178
 173 174 173 173 173 174 174 175 178 177 176 178 178 178 176 179 179 173 150 117  80  51  43  41  40  36  35  36  38  41  42  42  43  43  42  43  43  44  42  44  44  45  48  50  50  50  52  53  56  61  64  66  65  68  73  79  83  84  89  93  98 104 108 117 128 134 142 148 143 118  70  51  40  46  46  44  52  92 171 176 182 181 181 182 181 181 181 181 180 179 179 178
 173 174 175 174 174 174 174 176 179 176 177 177 176 177 176 178 178 174 166 126  64  51  44  42  39  36  37  41  43  46  47  48  48  45  47  46  47  50  48  48  49  51  54  56  57  57  62  65  70  75  78  78  81  84  88  92  94  97 100 103 105 108 111 118 132 141 145 150 151 146 112  66  46  41  44  43  48  63 160 178 182 182 182 182 182 182 181 181 181 181 181 180
 174 175 174 173 175 177 178 178 178 177 177 178 178 177 177 178 178 176 171 111  56  48  43  40  37  39  40  44  48  54  53  52  52  50  50  53  55  55  55  56  59  61  63  65  66  68  75  77  81  83  83  85  87  89  90  93  96 100 104 108 112 114 115 124 135 141 143 148 155 154 147 109  62  47  44  43  46  58 160 179 181 182 182 181 181 181 181 181 181 181 181 181
 174 174 174 175 174 175 176 178 178 179 179 178 179 179 178 179 178 176 158  76  52  48  41  37  37  42  47  52  60  58  55  56  56  55  59  62  62  63  64  65  69  72  74  76  80  81  85  86  86  88  87  88  89  90  89  92  94  98 103 107 111 115 115 122 136 139 142 147 154 157 158 146  98  53  40  44  45  56 125 174 181 182 181 182 182 182 181 178 181 181 181 180
 175 174 174 175 175 176 179 179 179 179 178 178 178 179 179 178 177 170 126  63  52  44  39  36  39  46  57  66  66  64  63  64  65  69  72  71  71  71  73  76  82  84  86  89  94  97  98 100 102 100  99  98  99  99  97  97  97  98 102 105 108 114 118 124 132 139 145 147 153 157 162 160 134  67  46  44  44  50  72 167 180 181 182 182 181 182 180 179 181 181 181 182
 176 174 175 176 175 179 178 178 179 179 178 179 178 180 180 176 178 171 116  60  50  43  38  39  44  56  72  72  73  78  78  76  77  80  81  80  82  83  87  89  90  92  94  95 101 105 106 109 106 105 105 107 106 106 108 108 108 108 108 110 112 115 115 123 130 138 141 145 149 156 163 161 148  92  56  44  43  46  57 148 173 180 182 182 182 181 180 181 182 181 181 180
 177 177 178 176 176 177 179 179 179 180 179 180 180 180 179 176 176 175 115  56  46  41  38  41  52  66  72  76  80  88  88  92  90  93  92  91  96  96  99  99  99  99 100 102 102 106 107 110 108 105 104 105 105 107 108 110 113 115 118 121 124 124 126 129 132 135 140 144 148 154 162 162 150 115  68  46  44  48  44 101 165 178 182 181 183 181 181 181 181 181 179 181
 174 175 178 177 177 177 178 179 180 180 180 181 180 179 181 179 177 171 100  53  44  37  33  41  56  70  83  87  91  95  94  97  99 100  98 100 103 104 104 104 106 106 106 107 106 105 105 107 106 106 105 104 106 109 109 111 113 116 119 122 123 126 131 138 140 141 143 142 148 155 160 157 148 125  81  51  44  51  49  58 137 174 181 182 182 182 182 181 182 182 180 180
 175 176 177 176 178 177 179 179 177 180 180 181 180 180 181 180 178 168 104  53  41  34  32  43  58  76  92  96  95  94  97 101  98  98 100 101 102 104 104 106 108 109 107 109 109 107 110 109 109 109 110 110 109 110 110 112 114 118 120 123 124 127 132 139 142 146 147 148 152 156 160 154 146 122  89  59  50  52  53  52 101 170 177 181 182 181 182 182 182 182 181 180
 175 176 176 176 176 176 179 179 178 180 181 180 180 180 181 180 177 174 100  51  41  32  34  45  64  86  97  94  91  97  98  97  96  97  98  98  98  98 100 102 102 104 106 109 108 107 111 114 115 119 116 113 109 111 108 110 109 111 110 113 118 124 128 136 144 147 149 150 157 157 157 152 140 122  93  63  52  53  53  52  78 154 174 181 182 181 181 181 181 182 182 182
 175 174 175 178 179 179 178 179 179 179 179 180 180 180 180 179 179 168  74  49  40  32  35  50  72  91  97  96  95  93  88  85  80  78  79  76  74  73  81  83  84  87  92  96  96  99 101 107 110 111 110 109 108 106 100  94  94  92  93  97 103 105 110 121 130 140 150 151 156 159 156 151 136 120  92  64  56  56  52  52  66 148 174 178 182 182 182 180 182 182 182 180
 175 174 176 178 179 179 179 180 180 180 180 180 180 180 181 180 175 140  58  47  37  32  38  55  81  96 101  98  89  76  67  58  55  49  45  42  42  43  45  52  60  66  75  80  86  89  95  96 100  99  98  97  95  90  86  73  68  64  64  66  70  77  82  96 107 120 137 146 154 159 155 148 135 116  94  63  56  55  54  55  68 144 174 181 182 182 183 182 182 182 181 180
 175 178 180 180 180 180 179 180 179 180 179 179 180 181 179 179 172 128  63  46  35  34  38  62  90 102 102  85  61  50  42  39  37  33  35  34  32  33  34  36  42  50  63  71  79  84  88  91  94  90  89  83  80  76  66  54  45  40  40  41  40  42  50  62  78  86 103 126 141 154 153 144 132 114  88  62  52  54  52  51  63 123 173 180 182 182 183 183 182 182 182 181
 177 178 178 178 179 180 180 179 180 179 180 180 179 180 181 181 175 143  65  48  37  32  38  70  97 101  93  62  43  36  32  30  30  29  29  30  30  30  31  33  38  43  50  62  70  78  86  90  91  87  81  76  69  66  54  46  38  34  32  32  32  31  33  42  49  55  68  90 107 131 145 140 133 117  86  64  53  52  51  49  65 129 169 178 182 181 182 182 182 182 182 182
 178 178 176 177 178 179 179 179 178 179 180 181 180 181 182 181 174 144  61  47  34  30  41  81  99  99  57  42  36  35  31  32  35  39  38  34  33  33  35  39  43  45  52  59  67  78  81  83  84  81  73  69  62  58  48  43  38  33  31  29  28  27  27  30  34  39  48  61  78 101 129 138 132 118  87  63  53  51  49  50  63 122 169 178 181 181 182 182 182 182 183 183
 178 177 177 178 178 176 178 179 180 179 180 180 180 180 181 179 175 143  51  44  32  30  52  92 101  83  51  39  36  37  42  47  48  46  46  45  44  45  46  48  50  50  54  60  69  76  79  80  79  75  71  69  63  55  50  45  41  39  36  34  31  31  31  31  31  31  35  40  51  74 103 134 134 122  87  57  50  48  49  48  62 105 162 174 180 180 180 181 182 182 182 182
 177 179 179 178 178 178 178 178 177 178 180 181 180 180 181 180 174 120  47  42  31  34  66 100 104  72  50  45  50  54  52  48  44  40  39  37  41  47  51  55  55  56  58  60  68  77  80  85  80  75  70  68  60  55  51  49  47  46  45  41  41  44  43  44  42  40  38  38  38  45  70 112 132 126  92  55  44  42  47  47  58  87 149 172 178 180 180 182 182 182 182 181
 175 178 177 178 176 179 176 176 178 179 179 180 180 180 180 180 173 128  47  40  31  39  83 104  96  70  55  58  58  53  45  37  34  34  36  36  35  35  43  53  58  60  59  62  68  80  89  95  93  86  73  67  59  54  51  50  50  48  46  41  39  42  42  45  49  50  48  44  41  43  52  85 130 127 100  57  39  39  46  49  56  87 151 173 177 179 179 181 181 182 181 180
 175 175 176 178 176 177 177 178 178 177 176 179 179 179 180 179 175 151  54  42  34  51  95 105  96  75  67  71  63  48  35  37  35  29  27  29  34  38  40  46  56  60  61  63  69  84  98 105 110 103  86  70  57  52  51  50  49  45  37  31  29  31  31  36  39  46  52  54  53  49  53  69 118 129 110  60  36  36  44  53  54  88 161 174 178 179 179 180 181 179 180 180
 175 176 177 177 176 179 179 179 176 176 176 178 179 178 179 178 176 159  68  44  41  60 106 109  93  81  78  74  58  42  42  43  35  34  42  39  30  49  47  44  50  60  62  65  70  88 103 112 120 116  96  71  56  53  50  47  43  33  31  33  30  31  33  34  34  37  47  54  62  66  59  63 103 130 123  68  36  32  43  52  53  92 163 174 178 178 179 181 181 179 180 181
 174 175 177 175 176 176 177 177 178 176 176 177 176 178 179 177 176 168  88  49  45  76 109 108  93  87  82  68  49  42  45  59  39  45  46  35  42  79  70  51  48  58  65  67  70  90 112 123 132 127 103  73  57  51  46  41  36  40  37  28  25  21  28  36  43  38  40  49  63  77  75  74  97 130 127  80  40  32  39  47  55  84 152 173 177 177 178 180 180 179 178 179
 173 175 175 175 176 174 175 175 177 177 176 176 176 177 176 177 174 165 110  53  48  91 115 108  99  92  81  60  46  48  58  95  52  38  43  45  95 112  95  65  52  63  72  73  76  93 118 132 136 129 102  78  62  52  45  42  44  48  46  36  43  48  34  64  76  44  42  43  56  75  92  94 109 132 132  98  48  36  39  47  56  93 161 173 176 177 178 178 180 179 178 176
 172 174 174 175 173 174 177 175 176 176 179 176 175 176 177 177 172 168 125  54  54 107 116 109 102  93  75  59  52  55  75 105 107  88 101 106 113 114  91  72  51  68  85  82  84 101 122 138 138 128 109  93  72  61  58  48  46  75  75  38  42  35  42  71 168  96  48  43  50  71  93 106 113 128 136 108  50  37  38  45  55 104 159 173 176 177 179 179 180 179 178 178
 172 174 172 172 173 174 174 174 176 175 175 177 178 177 177 176 175 171 121  55  65 115 118 111 103  91  74  69  73  81  86  81  83  84  81  84  84  80  71  69  69  74  93  89  91 111 131 149 142 130 115 107  86  80  60  46  57  82  96  91  64  53  66 106 157 140  62  48  47  69  92 109 119 133 139 116  57  44  42  46  59 114 162 174 176 176 178 177 177 179 178 177
 172 173 172 172 173 172 174 174 173 173 174 176 175 176 175 177 176 171 114  55  84 120 120 116 108  96  88  93  94  93  91  87  84  83  81  78  75  72  64  66  76  84  91  94  99 118 141 158 147 133 121 112 100  86  74  66  67  72  81  88  95  95  99 108 126 128  88  58  50  66  92 111 123 136 141 125  64  51  46  49  65 129 168 176 176 178 179 177 176 178 178 176
 171 172 172 172 173 171 173 174 174 174 175 174 176 175 175 176 176 170 104  56 105 121 121 120 117 113 114 112 108  99  93  89  86  82  81  74  70  65  63  68  79  88  98 100 104 122 141 156 149 134 124 119 108  92  80  69  66  69  75  82  83  82  84  86  95  99 107  86  67  68  87 111 125 137 145 130  73  52  51  51  70 142 168 174 175 176 177 175 176 177 177 176
 171 172 170 171 173 172 173 174 174 174 174 174 175 174 175 175 176 171 105  65 119 125 126 129 125 123 123 118 114 107  97  88  82  79  76  71  68  67  73  83  92 100 101 102 110 128 146 156 151 133 125 123 116 103  85  73  66  64  69  76  78  79  80  87  98 105 116 111  97  84  93 113 129 140 147 136  74  52  53  54  78 149 172 175 174 175 175 175 176 176 177 175
 171 171 170 171 172 172 173 173 174 173 174 173 175 175 175 174 172 164 108  88 126 128 128 133 130 127 125 122 119 113 104  98  87  84  84  82  82  84  86  95 103 104 105 106 114 134 149 156 151 137 129 129 126 114  97  81  74  70  67  70  72  75  79  87  97 111 121 128 123 110 108 120 134 145 148 140  82  52  51  52  77 150 169 175 175 175 175 174 176 175 175 176
 171 172 172 172 171 171 172 173 173 172 172 172 174 174 174 174 173 167 108 109 128 129 132 136 135 130 126 128 125 121 114 108 105 102  99  97  97  95 101 108 109 108 108 108 121 139 156 160 152 140 133 134 136 129 114  97  85  81  79  74  70  70  73  84  94 110 126 137 141 136 132 136 144 150 152 146  80  50  49  56  91 160 169 173 174 176 174 174 175 176 175 176
 171 171 171 171 171 171 172 172 172 173 173 173 173 172 172 173 167 141  86 117 128 131 134 136 136 133 129 130 126 123 118 117 115 112 108 106 109 111 116 115 111 109 108 114 129 143 158 161 155 141 134 136 139 138 129 116 103  92  88  86  84  78  78  88  99 113 130 140 144 143 143 147 154 153 154 149  98  52  50  61 123 166 172 173 173 175 176 175 176 176 175 177
 171 171 172 171 171 172 172 171 172 172 172 173 172 172 172 170 131  78  82 122 128 131 133 135 134 134 133 130 128 126 122 120 117 117 117 116 118 120 119 117 112 109 110 123 133 147 162 161 155 143 134 138 140 142 141 133 124 113 101  96  93  95 101 109 116 127 135 143 146 149 149 154 159 158 157 152 115  56  51  72 146 169 174 174 174 175 175 174 174 175 176 176
 171 172 172 171 171 172 172 172 171 173 173 172 174 173 172 171 109  68  82 121 127 127 127 130 131 134 132 132 130 127 125 125 122 120 121 121 120 120 119 115 110 108 120 132 143 155 161 160 157 151 140 137 137 140 142 141 135 130 122 111 108 106 110 118 124 134 141 146 149 154 158 159 163 163 157 152 127  71  52  93 163 170 172 174 175 174 175 174 174 176 175 176
 169 171 171 171 171 171 171 172 171 173 173 173 173 172 172 167  98  70  89 123 124 122 120 123 126 128 131 134 130 126 126 126 124 122 122 121 120 119 118 112 107 117 128 137 141 146 147 149 153 153 145 134 135 139 140 140 137 134 136 131 125 122 121 124 128 136 144 148 152 157 163 163 165 165 159 151 130  72  54  92 163 170 173 173 174 174 174 175 175 175 174 174
 171 172 171 171 171 171 171 171 172 173 172 172 172 172 172 158  96  70  93 119 120 119 117 119 120 124 125 127 126 125 125 124 124 122 124 120 119 116 115 110 112 126 126 128 130 132 133 135 138 151 150 138 129 136 138 137 131 128 132 135 133 130 127 131 133 139 144 150 156 162 163 162 163 164 158 151 134  76  55 105 157 169 173 173 173 174 173 174 175 175 174 174
 170 171 171 171 171 171 171 171 171 171 173 172 172 172 170 139  93  73  92 118 117 113 114 115 116 118 121 122 123 123 123 123 122 122 122 119 116 115 113 105 109 107 104 103 105 110 111 112 119 131 138 137 125 130 133 130 128 128 131 132 132 135 136 136 139 141 144 150 151 158 160 161 160 161 156 149 136  78  60 102 147 166 171 172 172 173 173 173 174 175 173 173
 170 171 170 171 171 171 170 170 172 171 172 172 172 172 168 120  92  76  93 114 114 112 113 114 116 116 117 118 121 121 123 124 122 121 121 119 117 114 108 106  99  87  84  86  89  90  93  95  96 102 105 112 116 115 123 122 124 125 126 128 131 132 137 138 139 141 140 147 149 154 156 156 156 154 152 146 133  78  69  64  87 161 170 171 171 173 172 172 172 173 174 174
 170 170 169 169 170 169 169 170 171 171 172 173 172 173 157 111 100  80  88 112 111 111 111 112 115 114 114 116 119 122 119 122 121 120 117 116 114 108 103 103  83  62  55  60  75  75  76  76  77  84  83  93 116 104 110 114 118 122 123 124 127 126 135 138 137 137 136 138 148 149 149 151 150 148 148 144 129  80  63  54  94 161 169 170 170 171 172 171 172 173 173 172
 168 168 169 169 170 169 171 171 171 172 171 172 172 171 150 115 104  82  85 109 108 108 108 111 111 111 112 113 116 117 119 121 121 119 116 113 110 104  98  89  57  35  27  23  44  62  60  60  60  49  51  73 106 100 103 108 113 119 122 124 127 127 129 131 135 136 137 139 142 143 143 144 143 142 143 139 118  86  80  62 117 161 168 170 170 170 171 172 174 172 172 172
 168 168 169 169 169 169 171 171 171 171 171 172 172 170 148 116 108  93  83 101 105 106 107 108 108 110 111 112 117 117 118 120 119 118 114 107 102  98  91  73  48  34  26  25  40  58  55  59  34  24  31  52  85  94  95 104 111 114 119 124 123 124 124 128 133 137 138 138 136 136 138 138 137 140 137 134 108  86  98  79 137 163 168 168 169 169 171 172 171 173 172 172
 168 168 169 170 170 170 170 171 172 171 171 172 171 169 150 118 110 104  79  99 104 105 105 106 108 111 111 112 118 117 118 119 117 113 109 102  97  94  90  72  54  45  34  36  54  56  55  63  46  25  30  47  77  86  91 101 107 112 116 122 123 124 125 128 133 134 136 136 133 134 134 133 133 134 133 128  98 102 108  91 150 165 168 168 168 169 172 170 171 172 172 172
 168 168 168 170 170 170 170 172 169 170 171 171 171 170 160 123 118 107  70  98 103 104 107 109 110 111 114 116 119 119 116 115 110 110 104  98  96  98  95  77  60  57  57  64  62  54  51  60  66  35  38  54  83  90  91  98 103 107 113 121 124 126 126 126 130 131 132 133 132 129 128 128 128 127 129 123  86 123 118  97 152 165 168 168 168 169 170 170 169 172 172 172
 169 169 168 170 169 170 170 170 171 170 170 172 171 171 165 136 128 105  68  96 103 102 106 108 110 112 114 118 117 117 116 113 112 108 102  98 102 103  98  85  68  67  69  65  64  58  53  60  70  69  65  68  86 100  99 100 103 106 111 117 121 124 125 124 125 128 129 130 130 128 127 122 122 125 121 113  79 129 129  94 142 161 164 166 168 167 166 168 169 169 169 170
 168 168 168 168 169 169 169 171 171 170 170 171 170 170 168 142 127 109  66  94 101 101 104 109 110 110 112 114 117 118 114 113 109 104 101 103 107 107 102  88  72  63  56  52  57  58  57  58  53  55  73  81  96 111 113 109 105 107 111 114 116 123 125 125 124 126 127 127 129 127 124 120 119 120 118 102  78 126 135  96 133 160 163 164 165 166 166 168 168 168 168 168
 167 168 168 168 168 169 169 169 170 170 169 170 171 171 169 152 124 113  64  85  98 101 106 109 111 109 112 113 115 116 115 112 108 106 105 110 111 107 100  80  63  51  48  51  55  54  57  51  45  45  50  76 105 120 124 120 112 110 112 114 116 120 123 125 126 125 126 127 127 127 122 120 120 119 113  90  79 120 136  96 135 159 162 163 164 166 166 166 167 168 167 167
 167 168 168 168 168 168 168 169 168 170 169 170 169 169 168 160 125 109  66  77  91 101 105 108 109 110 110 111 114 113 112 111 109 109 110 110 106  92  68  59  51  47  46  55  60  58  59  55  43  41  45  55  84 120 128 128 122 117 114 116 117 122 122 126 127 125 126 125 126 125 121 118 116 116 105  77  78 114 134 104 139 158 160 164 163 163 163 163 164 166 165 165
 167 169 167 168 169 168 168 168 168 170 169 169 170 171 170 166 138 121  59  68  86 100 103 105 107 109 109 108 109 110 110 108 108 106 101  92  88  63  49  49  46  43  50  56  56  61  62  58  46  39  42  46  65 101 123 132 131 125 118 117 119 122 124 124 126 125 124 125 126 126 122 118 115 110  88  70  75 106 135 116 144 156 158 158 159 161 160 160 162 163 164 165
 166 167 168 167 167 167 168 168 169 169 168 171 169 170 169 168 159 126  58  66  80  92  99 102 106 106 104 105 106 108 107 104  97  89  77  76  65  46  41  48  44  43  53  56  62  64  64  59  49  43  43  44  54  71 101 118 130 128 124 119 119 121 123 126 125 125 123 122 123 120 119 115 109  97  80  72  99 116 138 136 151 156 157 158 159 159 161 159 160 162 161 162
 165 167 166 168 166 167 167 167 168 169 168 169 169 168 171 170 167 129  66  63  73  82  92  96 104 104 106 104 104 107 102  93  79  64  60  59  52  47  46  47  47  54  61  69  69  71  68  66  57  52  47  48  49  53  71  93 113 122 126 122 121 119 120 121 125 126 125 122 121 118 115 109  99  92  72  78 132 138 139 147 153 154 156 156 156 157 157 158 159 159 159 161
 166 166 166 167 167 168 168 168 168 167 168 168 168 169 168 169 167 144  64  62  70  75  86  94 100 104 103 104 104 102  93  75  58  55  54  59  55  51  52  53  60  67  69  79  79  82  82  73  63  56  57  53  52  49  56  71  84 100 118 121 118 118 118 121 121 123 124 120 118 116 113 104  94  81  69  83 125 119 136 149 154 154 155 156 156 156 156 157 157 158 158 160
 165 165 166 165 166 167 167 168 168 167 168 168 167 168 169 168 168 160  78  59  65  67  75  90  97  99 101 102 100  95  79  60  47  46  49  58  60  59  59  56  56  54  52  52  56  63  59  52  51  54  60  60  59  57  62  62  66  76  91 110 114 114 118 122 118 117 121 117 115 112 106  98  84  69  68  96 132 130 144 152 154 154 153 155 156 156 157 157 157 158 158 157
 166 165 165 165 166 167 166 167 166 167 167 167 167 167 169 169 169 164  93  56  58  64  73  85  92  96  99  98  96  87  70  48  41  50  54  58  59  55  49  48  48  46  46  42  43  43  42  41  42  43  47  51  60  65  62  56  56  63  74  87 109 112 114 118 118 118 118 116 113 104  94  85  73  60  65 107 135 136 148 151 153 152 153 154 156 156 157 156 157 157 156 156
 165 166 166 166 166 167 165 166 166 166 167 167 166 167 167 167 168 164 123  58  56  62  70  73  85  90  95  98  92  81  59  45  48  53  52  49  42  41  43  41  38  37  38  35  31  29  31  34  37  39  40  43  45  52  54  53  51  55  62  72  91 106 109 113 115 113 114 111 104  97  90  80  64  55  66 117 133 144 151 152 151 152 153 154 153 155 155 155 156 155 156 157
 163 163 165 163 164 165 164 164 165 166 166 166 167 167 167 167 167 167 144  59  56  60  60  67  74  84  90  93  87  73  51  47  49  48  40  33  33  38  41  43  44  45  44  39  34  30  30  30  30  29  32  35  39  39  44  49  50  52  55  67  81  98 104 111 112 111 107 100  92  88  85  74  60  56  66 102 135 149 151 152 151 152 152 153 154 154 154 151 154 154 155 155
 162 165 163 164 162 164 164 163 164 166 165 166 166 167 167 166 167 166 158  71  59  58  55  62  72  78  85  88  84  66  50  52  52  49  47  47  51  56  62  66  68  71  72  62  59  60  62  59  54  53  48  40  34  32  31  37  45  49  52  62  76  94 103 105 106 104  97  87  78  82  78  66  63  59  81 118 144 148 150 149 150 152 152 153 152 152 153 152 152 155 155 155
 162 162 162 163 162 162 163 163 165 164 165 165 167 166 166 167 167 164 158  89  59  55  53  60  68  74  80  84  78  64  55  55  62  67  71  71  72  75  72  75  78  81  83  76  75  76  81  81  82  80  80  73  62  41  30  29  41  48  53  60  74  92  98 102 102  96  88  78  71  74  72  67  62  56 123 142 147 148 147 147 147 150 151 152 151 150 151 153 154 155 154 155
 162 161 161 162 162 162 161 163 163 164 162 163 166 166 164 165 165 162 158 105  59  53  54  55  65  68  75  77  79  69  62  66  80  83  84  84  86  83  82  81  78  78  80  78  77  78  81  83  84  84  83  81  78  69  58  50  50  51  54  59  72  89  95  98  99  91  79  71  67  72  71  63  56  70 132 145 148 149 149 148 149 148 151 150 151 150 150 151 153 153 154 154
 162 162 161 161 161 162 162 161 162 163 162 163 165 163 163 164 165 162 159 115  54  53  53  56  63  66  66  71  76  68  65  76  86  91  93  93  90  88  88  84  81  77  73  74  75  75  76  79  84  85  88  86  87  84  79  71  65  58  55  56  72  89  92  93  94  82  68  69  68  68  72  60  54  99 134 144 145 147 148 147 148 147 148 147 148 148 150 150 153 152 152 152
 161 161 161 160 161 161 162 162 161 161 161 163 163 162 163 162 162 161 161 138  56  52  50  59  63  60  64  70  72  68  67  79  87  90  94  92  90  87  88  85  81  74  67  63  63  64  66  72  76  81  86  86  90  89  85  82  76  64  58  55  74  85  86  87  85  74  65  65  63  63  61  54  54 114 138 141 142 144 146 146 146 145 146 147 147 147 148 151 150 151 151 152
 160 159 160 160 161 160 160 160 161 161 161 162 163 162 161 161 162 161 160 148  67  50  53  58  57  55  62  68  72  64  71  80  87  89  89  90  87  82  80  74  70  65  60  57  55  54  59  65  72  78  82  86  91  91  86  84  78  69  62  62  75  81  77  78  79  71  64  68  63  64  56  52  66 126 141 144 143 144 145 145 143 142 144 146 146 147 147 149 150 149 150 149
 159 158 157 158 159 158 159 160 160 160 159 160 161 161 162 161 160 160 157 148 103  48  51  54  59  60  61  67  68  65  72  81  86  87  87  89  84  79  71  65  56  50  47  46  47  45  50  55  60  67  72  79  86  89  89  87  81  72  67  69  74  77  75  74  71  68  61  68  64  65  54  52  89 127 138 142 142 143 145 144 143 142 145 145 145 145 146 147 148 148 149 149
 157 156 157 157 159 159 159 159 159 160 161 160 159 161 161 160 159 158 156 152 118  53  48  54  57  54  59  64  64  62  68  76  82  86  87  87  86  80  73  68  56  48  42  40  39  41  47  47  55  57  67  76  81  86  87  85  80  72  66  72  76  74  71  72  71  65  57  65  61  56  52  62 111 131 137 139 140 141 142 141 141 141 142 142 144 143 146 146 146 147 149 147
 154 155 156 158 157 159 156 156 157 159 159 158 158 159 159 157 157 155 156 153 132  64  41  46  47  50  60  60  55  58  63  73  82  88  89  88  84  81  78  70  59  50  42  36  37  41  44  50  56  58  66  74  78  82  84  80  78  71  68  73  78  72  72  73  69  63  54  58  55  51  54  95 127 133 137 139 139 139 140 139 139 140 140 141 143 142 143 144 145 145 145 146
 155 154 155 156 155 156 157 156 156 156 157 157 158 156 156 154 153 154 153 152 142  71  42  38  42  52  55  57  50  52  58  70  79  81  88  89  89  85  82  77  70  58  46  40  41  44  47  54  61  66  70  83  84  79  78  75  68  67  68  75  76  74  68  67  65  60  55  52  51  51  60 121 132 135 137 138 138 138 138 138 139 139 138 139 140 141 140 141 142 143 144 144
 152 152 154 154 154 153 156 155 154 156 154 155 156 154 154 154 153 153 153 151 147 100  37  35  38  48  53  50  46  46  54  63  70  81  89  94  92  89  89  85  80  69  60  53  51  56  64  72  74  78  82  84  79  77  75  70  64  66  68  73  75  70  65  59  60  56  50  47  47  49  85 128 133 135 136 136 138 138 139 138 138 138 138 136 137 138 137 137 139 139 141 141
 151 151 152 152 153 152 153 152 153 153 154 153 153 153 153 153 152 152 153 148 148 136  57  35  34  41  43  39  38  44  47  55  65  81  86  89  92  92  89  85  78  72  66  58  57  63  75  87  78  80  79  79  74  70  67  62  57  58  64  73  75  66  58  53  51  49  47  46  42  58 118 128 133 134 133 132 134 134 135 135 135 136 135 138 135 138 138 137 138 138 141 140
 151 152 152 152 153 152 152 153 152 152 153 153 153 152 152 152 151 150 150 150 147 141 112  69  48  36  38  40  41  38  42  54  62  72  76  82  86  82  80  74  71  68  66  60  59  64  77  80  65  49  56  69  65  61  56  49  49  51  63  74  74  62  47  49  48  45  39  37  40  89 123 128 132 133 132 132 133 134 134 135 135 137 136 136 134 136 138 136 138 139 139 139
 151 151 150 151 152 151 151 151 151 152 151 152 152 151 152 150 151 149 148 147 146 142 128 114  68  34  32  33  32  33  39  46  53  59  67  73  68  69  65  67  72  68  66  62  57  60  68  64  58  46  48  57  57  55  46  44  45  49  57  66  65  49  38  44  42  37  32  37  61 107 122 126 128 129 131 130 132 133 133 134 134 135 134 133 133 134 136 135 137 137 137 138
 150 150 151 152 151 151 150 151 150 152 150 150 150 149 150 149 148 147 147 146 145 143 139 128  66  36  29  27  27  28  30  36  42  48  50  56  56  57  56  63  62  62  64  58  54  56  57  54  49  44  41  46  47  49  46  40  37  41  49  57  48  39  35  37  35  30  32  44  94 112 120 125 125 125 127 129 128 130 131 132 132 132 134 134 132 133 133 132 134 134 135 134
 149 148 149 149 148 151 150 150 151 151 149 150 149 150 148 148 147 146 147 145 144 143 141 127  78  42  25  24  23  24  28  31  37  39  45  44  45  48  50  55  54  56  59  54  50  46  47  42  40  39  36  41  42  46  43  33  32  36  38  48  37  31  31  31  31  26  35  77 106 115 120 122 126 126 129 131 133 130 134 132 131 131 131 131 132 132 132 130 132 134 132 132
 147 148 148 148 149 149 149 149 148 148 147 148 147 147 147 146 146 144 144 142 142 142 138 130  85  56  34  24  22  21  25  29  29  34  36  33  37  44  43  43  45  48  48  45  43  40  36  34  35  34  33  38  40  41  38  33  31  30  31  32  27  27  27  25  26  30  60  90 108 113 119 120 124 126 127 128 128 131 132 132 132 131 130 132 132 131 132 130 131 133 133 132
 146 146 147 147 147 148 148 148 149 147 147 146 146 147 146 144 144 144 142 141 139 138 136 127  84  60  42  30  25  23  23  24  24  27  27  29  31  35  34  33  38  38  38  32  36  36  30  31  30  30  33  38  39  38  35  31  27  26  27  25  24  25  25  22  26  41  72  95 111  90  75 111 122 121 123 123 124 124 126 126 126 127 129 128 128 129 130 129 130 131 129 132
 145 146 146 147 147 147 149 146 147 147 147 146 144 146 144 144 142 142 141 139 136 133 114  83  82  70  54  35  28  23  21  20  23  25  24  26  27  29  28  32  31  32  32  28  30  27  26  29  25  26  31  35  33  32  30  26  27  24  24  18  20  20  20  25  44  63  82 100 111  78  46  56 104 117 119 120 123 122 123 125 126 124 124 124 126 127 128 127 130 129 130 130
 145 145 146 147 146 146 146 146 147 147 145 145 142 143 142 142 141 141 139 138 130  77  49  43  77  70  62  47  36  28  24  20  25  22  23  22  22  24  26  27  28  27  24  23  27  26  24  24  21  23  28  29  27  26  24  23  25  23  19  19  18  21  23  35  63  74  89 103 110  72  40  38  41  72 102 116 119 123 125 125 126 125 124 125 125 125 126 126 128 128 130 131
 143 143 145 144 143 145 144 145 144 144 144 143 141 140 141 142 138 140 137 116  63  39  35  30  77  72  64  53  46  36  28  24  23  18  19  19  19  19  22  21  21  20  19  21  21  20  17  18  18  19  22  24  21  21  21  23  22  18  16  20  20  24  29  46  67  80  95 104 108  68  37  34  34  43  58  69  93 112 120 122 120 123 124 124 124 125 125 126 127 127 128 128
 144 143 143 144 144 144 145 144 143 142 141 142 140 139 136 132 118  96  82  46  38  33  26  24  75  69  66  56  55  47  36  27  22  18  17  17  16  15  16  15  16  16  18  16  15  16  17  17  17  17  17  18  18  18  17  19  17  18  16  22  23  32  42  59  76  89  96 102 106  63  36  35  32  37  47  50  51  63  86 111 121 121 124 125 124 125 124 124 124 127 129 129
 143 142 142 143 143 142 143 142 140 141 140 138 137 134 110  71  52  45  43  34  33  28  22  20  72  69  67  59  57  55  44  39  27  22  18  16  16  13  12  12  13  15  16  13  14  15  17  15  16  16  16  15  16  16  16  18  17  18  22  26  31  41  53  69  85  93  94 101 106  60  35  34  31  33  40  45  46  50  50  56  82 101 117 119 121 123 124 124 124 127 125 126
 143 140 141 141 142 141 141 140 140 139 137 132 115  75  51  42  38  36  33  30  29  23  19  17  72  71  68  62  57  55  53  46  38  28  24  19  18  17  14  13  15  14  14  14  14  16  16  15  18  18  16  15  14  13  15  18  20  21  26  30  38  50  67  78  91  93  96 102 106  58  32  33  31  32  37  40  41  40  40  44  49  55  66  85 106 113 116 119 121 121 124 126
 140 140 139 139 140 138 138 136 133 124  99  73  61  47  41  32  31  33  30  27  26  19  16  26  70  70  70  66  60  55  55  51  46  39  31  27  23  23  20  19  18  18  15  15  18  17  16  15  15  16  16  14  16  17  19  23  23  26  32  41  51  65  80  86  90  93  97 103 106  57  31  32  32  30  34  38  41  34  34  39  39  44  50  60  65  75  85  90  92  98 101 100
 139 137 138 137 136 136 125 109  92  69  58  50  40  34  32  29  28  27  28  26  25  18  17  46  67  69  71  68  62  57  55  55  52  47  44  33  25  24  23  22  23  23  23  23  19  19  18  17  16  19  18  18  20  20  24  26  33  37  42  50  67  77  80  84  89  96  99 103 106  57  31  32  32  29  32  37  38  35  32  35  37  34  39  46  54  60  62  69  80  83  84  85
 136 135 132 121 103  77  58  54  53  51  46  38  32  30  29  27  28  27  28  27  22  17  24  54  68  68  70  68  66  62  59  55  55  54  49  40  34  32  29  26  25  25  24  23  22  20  20  21  20  22  20  25  25  28  35  37  42  47  53  64  73  76  79  89  91  97 100 103 105  57  28  32  32  28  35  37  37  34  30  32  33  32  33  37  43  52  57  53  55  66  76  79
 113  94  75  57  51  49  47  48  43  38  33  31  30  27  26  25  27  26  25  26  22  17  29  58  68  66  67  67  66  65  63  61  55  53  52  48  38  37  36  33  28  25  25  25  25  23  24  26  25  25  25  27  30  36  40  45  55  62  64  71  74  75  81  88  94  98 101 103 103  52  27  31  30  31  32  36  37  32  30  31  31  31  30  33  39  46  53  53  52  54  58  65
