P2
# Generated by OpenCV 3.4.0
92 112
255
 159 159 160 159 158 158 154 141 121  69  50  49  41  35  32  30  29  26  26  26  27  29  28  27  28  28  28  28  27  29  32  30  29  28  29  29  27  25  28  28  30  30  29  26  24  23  25  25  25  24  23  26  22  25  25  24  25  24  25  29  31  34  35  35  35  31  29  29  36  45  43  43  36  37  44  48  70 132 162 169 168 170 169 170 169 169 168 168 171 171 171 171
 159 160 161 160 160 155 152 130 119  58  53  46  37  33  30  29  31  27  28  29  27  27  26  28  25  24  24  24  25  28  30  29  29  28  28  28  26  25  27  29  30  28  28  28  26  24  24  22  20  21  23  26  26  27  28  26  26  25  25  26  29  31  33  36  35  33  30  29  32  39  40  38  37  32  38  43  54  97 155 166 165 170 170 170 170 169 170 171 171 170 171 170
 159 159 161 160 159 154 149 135 101  68  56  45  36  32  28  30  34  30  29  28  28  28  28  28  24  24  24  25  26  27  26  25  26  26  26  32  34  33  33  31  30  27  27  29  26  24  21  18  17  17  20  22  26  24  22  23  24  24  23  25  27  28  31  39  33  34  33  32  31  37  38  36  40  33  32  37  46  63 114 159 166 170 169 168 171 171 172 171 172 172 170 170
 159 158 160 159 160 158 145 136  97  79  55  42  31  29  29  30  30  28  28  27  27  26  27  31  32  27  26  25  25  24  24  25  25  25  28  29  31  30  29  28  29  28  26  23  18  17  14  15  15  16  16  19  22  23  22  20  23  23  20  23  25  27  29  31  31  31  35  30  29  32  36  33  37  34  32  32  36  44  65 122 166 170 170 170 170 170 171 171 171 170 170 170
 159 161 160 159 161 156 142 131 107  80  61  38  32  30  30  29  31  29  29  25  25  25  26  29  32  31  29  27  27  26  26  27  28  27  29  29  29  29  30  29  27  24  22  18  18  17  16  16  15  17  16  16  18  19  19  20  22  21  24  23  22  25  27  28  30  32  33  33  32  31  35  32  33  32  33  32  35  35  47  73 149 166 169 169 170 170 169 171 171 170 170 171
 162 162 160 161 162 153 149 136 102  66  44  38  34  31  30  29  30  29  28  25  26  25  25  28  31  33  33  29  29  27  27  27  25  24  23  24  25  22  23  26  24  24  23  23  25  22  22  19  16  15  16  16  15  18  17  20  23  24  22  23  22  23  25  26  28  32  30  31  36  32  31  30  30  27  37  39  41  35  34  48 137 166 167 169 171 170 171 172 171 171 171 171
 160 163 162 159 160 159 155 134  99  57  42  38  32  29  30  30  30  29  26  27  25  25  26  26  29  29  31  32  33  28  27  23  23  22  21  20  18  16  18  20  22  22  24  22  22  22  18  17  15  15  15  16  15  17  18  19  24  24  23  24  24  22  25  26  28  30  31  34  36  36  33  28  29  29  37  42  35  30  34  44 113 160 167 171 171 170 171 171 172 171 170 170
 160 162 160 159 162 163 157 131  88  52  40  36  30  29  30  29  28  27  24  25  26  24  25  24  25  25  28  29  32  34  34  31  28  23  19  16  21  20  21  23  22  23  19  18  21  19  17  17  15  15  15  17  16  16  18  20  23  22  22  23  24  23  26  26  29  32  34  37  38  40  36  32  29  31  39  40  38  37  36  43  71 141 168 170 171 171 172 172 170 170 170 171
 161 161 161 160 163 163 155 120  89  53  37  34  31  30  30  30  27  25  23  24  22  23  24  24  22  23  23  23  25  27  29  30  31  29  27  26  24  26  23  22  23  20  21  21  19  20  18  18  16  15  15  18  16  16  16  17  21  20  22  24  25  25  27  27  30  36  40  47  47  46  41  37  30  34  37  36  37  37  37  45  59 123 164 168 171 171 171 170 171 170 169 171
 162 162 162 162 162 163 148 114  72  48  37  33  32  28  27  29  28  25  23  23  21  22  22  23  23  22  19  19  22  22  23  23  23  24  26  26  22  21  21  23  23  19  19  18  19  19  19  19  16  16  15  16  15  16  18  18  20  26  25  26  25  27  29  35  40  46  49  52  52  53  49  40  31  33  34  36  35  36  39  46  49  74 151 164 171 171 171 172 172 171 171 172
 163 162 162 162 162 161 145  94  56  45  37  31  30  29  27  28  29  25  23  23  23  22  22  24  24  22  21  19  20  16  17  19  17  19  19  16  16  18  20  22  22  18  20  19  19  20  18  18  16  16  16  16  16  18  16  17  21  25  26  25  29  34  41  42  46  54  62  69  65  60  52  42  34  32  32  36  37  38  38  37  39  48 122 161 166 170 171 172 172 172 171 170
 162 163 163 162 163 163 155  87  53  42  35  31  29  29  26  29  29  27  23  21  20  23  23  23  25  22  22  24  22  19  18  18  16  16  16  16  18  20  22  19  18  19  20  22  20  17  15  15  16  15  16  18  18  18  19  22  23  23  25  30  35  40  43  47  55  66  80  88  90  84  61  49  41  35  33  33  36  34  34  36  40  51  98 160 170 171 171 171 172 172 171 172
 163 164 163 162 163 163 153  79  50  40  35  33  30  29  28  28  27  28  25  21  19  20  21  21  22  22  21  21  22  18  19  19  19  19  19  21  20  18  17  16  19  21  21  19  15  15  15  15  16  15  17  21  19  21  24  25  26  29  31  35  41  46  50  55  64  80  98  99 107 113  94  69  53  41  37  33  31  32  37  39  40  46  94 156 169 172 172 171 172 172 172 172
 162 164 164 163 162 163 152 100  53  38  35  33  30  29  28  28  25  27  28  26  23  20  23  20  18  18  18  19  18  20  21  22  21  21  18  17  17  18  16  17  19  18  16  15  14  15  17  16  16  18  21  24  25  28  28  28  30  32  36  41  46  51  58  60  72  89 102 109 117 124 117 101  86  66  52  37  35  36  39  39  42  46  67 134 165 170 172 172 172 172 172 172
 163 164 163 163 163 163 153 103  58  41  36  31  31  30  28  27  26  26  27  27  27  24  22  20  17  19  19  21  21  22  23  22  20  19  17  16  15  15  19  19  17  16  16  17  16  17  15  17  19  23  27  28  29  29  28  30  33  37  41  46  51  55  63  69  80  95 106 113 122 130 128 121 109  89  64  43  35  33  37  37  40  41  54  74 144 166 169 171 171 172 172 172
 165 163 164 164 164 158 151 100  63  43  36  31  30  29  29  26  26  26  26  26  27  25  25  23  22  22  20  21  21  21  19  19  18  17  16  16  17  21  20  18  16  15  16  18  18  18  18  21  24  25  25  26  29  30  30  33  36  40  44  48  54  60  67  73  82  95 105 112 124 129 133 131 125 109  86  53  32  34  39  37  37  38  40  51 113 162 169 171 172 174 174 172
 164 165 165 165 164 160 155 122  64  41  35  30  30  29  29  29  27  26  28  26  25  26  28  26  23  22  22  21  19  19  18  16  16  17  16  18  22  22  19  18  16  17  18  19  19  21  22  24  24  25  27  30  30  32  33  36  40  43  47  51  58  62  68  75  85  92 102 113 126 128 134 136 135 128 108  70  40  36  37  37  37  36  36  48 102 163 171 171 174 173 174 173
 165 164 167 166 165 163 154 124  58  42  36  31  30  28  28  29  28  28  29  29  28  28  28  26  22  22  22  22  19  19  16  16  17  19  20  24  23  20  19  19  18  19  20  21  24  24  24  27  27  27  30  33  31  34  36  39  43  46  50  54  58  63  69  75  88  94 102 114 121 130 132 136 138 138 120  81  50  40  35  35  37  39  37  46  81 156 169 172 173 173 172 172
 166 166 166 166 167 163 145 120  53  44  38  31  29  28  28  29  29  27  29  28  28  26  24  22  22  22  22  20  18  19  17  19  20  20  23  22  19  18  19  19  21  23  23  25  25  26  28  28  28  29  32  33  34  36  39  40  46  49  54  55  59  64  68  75  86  92  99 111 117 128 134 140 141 141 126  94  62  42  35  32  44  46  41  43  66 147 166 171 173 174 173 173
 167 168 167 167 168 163 149 121  58  44  37  32  29  30  28  28  30  29  28  27  25  23  23  23  20  21  22  19  18  19  18  20  20  22  21  20  18  20  21  23  24  25  27  26  27  29  29  30  30  31  34  35  36  38  40  43  47  51  54  56  61  63  68  74  84  90  96 108 116 125 130 140 143 142 133 110  76  49  36  36  49  49  46  44  56 116 163 171 171 173 174 173
 166 168 167 166 167 167 160 123  58  46  39  32  31  29  30  29  29  30  30  26  24  25  26  25  21  21  22  18  20  20  22  23  23  23  22  23  24  25  24  24  26  26  28  28  28  29  29  32  32  33  36  38  38  40  43  44  47  52  52  58  63  64  70  74  85  91  96 104 113 122 127 133 140 141 135 115  85  54  41  38  46  49  45  47  58 107 157 170 173 173 174 173
 169 170 169 168 168 168 165 137  62  48  42  36  31  31  30  29  30  31  29  25  26  26  27  27  22  22  21  20  23  22  23  22  24  24  25  25  27  27  27  27  30  29  29  29  30  29  30  33  34  34  35  39  39  41  43  46  51  53  56  61  62  65  70  78  85  90  97 102 112 118 127 133 138 140 134 117  89  59  42  37  42  47  40  48  61 110 152 167 174 173 172 174
 168 169 170 169 169 168 164 147  65  45  42  37  36  34  30  30  30  29  27  26  29  28  28  26  24  23  22  23  24  23  24  24  26  26  27  28  29  29  29  29  28  31  31  31  30  32  35  35  36  36  39  41  41  43  47  48  53  55  57  61  63  66  70  77  87  90  96 101 110 117 124 133 139 140 131 115  92  62  45  36  40  46  39  47  61 105 150 166 171 172 172 174
 170 169 169 169 170 168 165 148  70  46  37  34  34  32  31  32  32  29  28  29  29  30  28  25  24  24  25  25  25  25  26  28  27  28  30  30  30  30  30  31  29  31  32  33  34  36  38  39  39  40  41  42  43  46  47  50  54  55  59  62  65  68  70  77  85  91  99 103 108 115 120 131 137 139 129 112  93  67  48  38  40  44  40  46  61  94 155 167 172 173 171 172
 170 170 170 171 170 169 169 162  95  50  38  33  30  30  32  34  32  30  30  32  32  32  28  28  30  29  29  28  28  28  28  30  30  30  31  32  34  33  35  35  34  35  34  34  36  38  41  41  42  43  43  46  46  47  51  52  55  57  61  64  68  71  74  77  85  91  97 104 107 113 120 128 131 133 129 112  88  68  50  42  40  45  39  42  55  92 150 167 171 174 173 174
 169 170 170 170 168 168 169 166 111  51  39  32  29  30  31  34  33  35  36  36  36  32  32  33  33  31  30  30  29  29  31  32  32  34  34  35  37  35  37  37  38  36  38  38  41  42  43  43  43  46  46  48  48  50  51  53  57  62  65  68  70  74  78  81  87  93  98 102 106 112 122 129 131 130 123 112  89  66  48  45  44  44  38  37  52  89 143 170 173 174 174 174
 170 170 171 171 171 169 166 161 109  52  43  36  31  32  33  35  37  41  40  38  39  40  39  39  36  34  31  33  30  31  35  34  34  36  37  38  36  37  38  40  41  39  41  43  42  45  48  47  47  48  49  51  50  53  55  58  63  67  70  69  73  78  81  84  90  96 102 101 106 113 119 127 128 127 119 108  90  70  47  39  42  42  38  40  54  80 134 169 175 174 174 175
 170 171 170 171 170 170 168 161 112  55  40  39  36  32  32  37  42  44  47  46  45  44  40  40  39  38  37  37  33  37  40  40  38  40  41  41  39  42  42  42  42  41  42  44  46  48  48  49  48  49  50  52  53  57  60  60  67  70  72  75  81  81  82  89  94  97 103 105 108 111 119 125 129 127 117 106  88  69  50  40  39  43  37  42  54  77 137 166 173 174 174 175
 170 170 169 172 172 172 171 166 121  53  39  35  33  33  32  39  45  52  54  52  46  45  44  43  42  42  40  37  39  42  43  42  43  42  43  44  43  44  43  43  43  44  46  48  49  51  51  51  51  54  55  57  57  62  66  66  71  76  77  80  86  87  87  94  96 100 104 105 107 112 116 124 127 124 116 103  86  67  49  41  38  40  36  40  55  78 136 166 173 174 174 174
 170 170 170 171 171 172 171 165 139  54  43  31  28  29  30  41  50  60  64  59  55  52  49  46  46  44  42  43  45  46  47  47  45  47  47  46  47  46  48  48  48  48  50  50  52  55  55  55  56  59  61  62  65  68  72  74  78  82  85  85  89  89  91  98 102 106 106 106 110 111 116 123 127 122 115 102  86  68  51  40  38  38  37  39  54  77 142 169 174 174 175 175
 171 172 172 172 172 170 169 165 146  61  41  31  28  26  27  40  51  62  66  64  60  53  52  50  48  48  49  50  50  50  49  49  48  47  48  50  49  49  49  51  51  53  53  55  56  57  60  61  64  63  64  66  67  72  76  80  82  86  89  90  91  93  95 102 104 110 110 112 111 117 120 123 127 124 112 100  89  67  50  41  36  37  38  40  55  83 153 173 176 176 175 175
 172 173 173 173 172 172 170 166 154  88  46  32  27  24  29  40  50  61  65  66  62  58  58  55  51  53  54  56  54  52  52  52  52  53  54  52  51  53  54  54  56  55  58  59  60  60  61  65  64  64  67  69  71  78  80  83  86  87  91  91  92  94  97 102 104 108 110 113 112 120 121 124 126 122 112 104  92  67  48  40  34  35  38  44  59 103 154 173 176 176 176 176
 172 173 173 173 172 172 172 169 161 113  45  36  28  27  28  38  50  61  67  68  65  62  61  58  60  60  59  62  61  59  58  57  56  56  59  57  57  57  58  59  61  61  62  63  64  64  63  67  68  69  68  74  77  79  83  86  87  88  88  90  92  93  95  99 102 105 109 114 113 119 124 126 126 119 113 109  96  72  47  38  36  34  39  46  62 123 156 172 175 175 176 175
 172 173 173 172 173 172 173 170 165 130  46  37  26  28  30  40  55  68  76  78  72  71  70  66  67  63  66  65  64  64  63  63  61  61  60  62  62  62  61  62  63  65  66  65  68  67  66  67  67  67  69  76  79  79  83  84  84  84  87  88  88  89  92  95  97 101 107 113 113 118 126 129 126 120 116 112 104  83  53  35  34  34  40  48  64 130 156 172 175 176 177 176
 173 173 173 172 173 173 173 172 168 138  53  36  28  29  30  41  57  74  81  81  76  74  68  68  68  66  68  68  68  66  66  66  65  65  66  65  67  65  65  64  65  64  64  65  67  67  68  68  68  69  71  76  78  79  79  79  80  83  84  85  83  84  87  90  91  92 100 106 111 117 124 130 127 123 118 114 111  97  63  36  31  35  38  49  74 139 165 172 174 175 176 175
 172 173 172 172 172 172 173 173 171 159  73  42  33  28  29  41  62  79  82  81  78  71  71  70  66  68  68  67  67  67  67  66  66  67  67  66  67  66  68  66  65  64  64  65  66  68  68  70  70  70  70  72  73  73  75  75  78  80  79  78  79  80  81  81  83  82  88  94 100 109 121 129 130 127 121 120 116 110  80  44  31  35  38  48  88 148 171 173 174 176 175 176
 171 172 173 173 172 173 173 172 172 165 118  47  36  27  28  42  69  82  83  82  77  70  72  69  69  68  67  65  67  66  67  68  66  65  65  66  67  68  68  65  66  65  66  67  68  69  70  69  70  70  70  70  70  69  71  71  72  70  69  71  72  70  69  70  70  71  74  80  84  96 106 120 125 125 123 121 120 116 100  58  34  35  39  51  90 156 172 175 175 175 175 175
 172 173 173 173 173 172 173 172 172 169 154  67  40  27  28  50  73  86  87  86  81  76  72  73  70  67  64  63  63  64  66  64  64  66  66  64  65  67  66  65  66  64  67  68  70  70  68  70  70  67  67  68  66  66  66  64  63  62  61  61  61  59  59  58  58  57  59  63  67  75  81  93 109 123 126 123 121 120 111  66  36  38  40  61 110 163 171 174 174 175 175 174
 172 171 173 174 172 172 172 172 172 171 161 102  45  31  31  52  78  86  89  89  84  78  74  71  68  66  65  64  63  64  63  62  63  63  63  62  63  65  64  64  65  66  65  65  68  68  68  68  66  66  64  65  62  59  58  57  54  52  51  50  48  44  44  43  48  44  41  44  48  53  61  70  90 109 125 127 126 126 116  74  43  41  44  75 143 169 173 173 174 175 174 175
 172 171 172 173 172 172 174 173 172 171 165 142  64  37  35  57  82  90  91  89  83  76  72  65  59  59  58  57  61  61  60  59  58  58  58  59  58  57  58  60  61  60  60  62  62  65  65  63  63  62  61  58  54  53  49  46  42  39  38  35  33  32  29  30  32  30  30  32  35  41  44  52  63  79 109 126 128 127 119  84  48  44  51  99 162 172 174 173 175 175 175 175
 171 172 172 171 171 172 173 172 173 171 165 157 115  41  36  64  86  92  93  91  83  72  63  56  52  52  49  48  49  51  50  49  47  48  48  50  49  48  51  52  53  54  54  57  60  64  62  59  58  56  54  50  47  41  35  32  31  29  27  27  24  23  24  22  25  25  25  25  28  30  31  35  44  57  82 119 128 129 123  93  50  45  50 115 167 172 173 174 174 174 175 175
 172 171 171 170 171 172 172 172 172 170 166 168 120  42  41  68  91  94  93  88  79  59  46  41  38  36  35  34  34  35  32  32  34  34  34  36  37  38  40  42  45  50  51  54  58  60  58  54  53  49  47  43  38  32  29  26  25  23  23  22  20  19  20  19  22  22  23  23  25  26  26  30  36  46  62 100 125 132 128  98  52  43  51 116 165 172 173 173 174 175 174 173
 172 171 171 172 171 171 171 173 172 172 170 165 136  46  42  71  92  96  93  83  59  43  35  30  27  27  27  26  25  25  25  26  25  26  26  27  28  29  33  34  39  46  46  50  56  59  56  51  47  43  42  38  34  30  26  24  23  21  22  22  21  22  23  24  26  26  26  28  28  29  30  33  39  45  63  93 118 132 131 106  54  42  52 102 153 170 172 172 174 174 174 174
 172 171 172 172 171 172 172 172 173 172 171 169 147  51  41  76  92  96  85  69  46  33  29  27  25  23  23  22  22  21  22  23  21  19  22  21  23  24  27  29  31  38  42  49  52  56  54  50  45  42  38  34  31  29  29  27  26  27  28  28  29  31  32  33  33  35  35  37  39  43  41  44  50  62  78  96 115 130 133 114  58  43  55  98 116 166 171 173 174 174 174 175
 172 172 172 172 172 172 173 172 172 171 172 166 134  54  44  79  94  96  84  62  42  31  29  24  24  23  21  23  24  24  25  24  21  20  20  20  23  25  27  29  31  35  42  47  51  53  51  49  44  41  39  36  32  32  31  31  31  32  31  33  34  37  38  40  42  43  45  49  52  53  52  55  65  76  91 104 116 129 136 122  62  41  53  62 120 165 171 172 174 174 175 174
 171 172 173 172 172 173 172 173 172 174 174 160  90  59  46  84  96  97  89  65  43  33  29  27  28  28  30  32  32  34  34  32  31  29  29  29  30  30  31  32  33  36  43  47  52  54  54  50  46  42  41  38  35  34  33  32  32  31  33  35  36  38  40  43  46  51  55  62  72  73  61  58  66  77  92 109 119 133 139 132  78  46  55  66 139 167 172 173 173 173 173 173
 171 171 172 171 172 173 173 172 172 173 173 156  65  50  46  87  98  96  83  64  47  40  37  38  39  39  39  41  42  43  44  42  39  37  34  34  34  34  35  35  36  40  45  51  57  61  60  59  53  48  43  40  36  33  32  31  31  31  33  36  38  42  43  47  52  58  66  81  94  93  79  63  64  78  93 106 120 133 140 137  99  54  60  70 150 167 170 172 173 172 173 173
 171 172 172 172 172 173 172 172 173 173 173 156  70  50  49  89  97  93  82  70  57  50  50  48  48  49  51  51  52  53  52  49  46  42  37  35  35  33  35  35  35  41  45  56  64  68  71  70  66  57  49  40  34  32  32  30  30  30  32  35  38  42  45  49  53  56  65  82  93  95  87  70  66  74  86 103 121 134 142 141 111  65  63  71 155 168 171 172 170 171 172 173
 171 172 171 171 172 173 172 172 173 174 172 146  73  53  48  94  98  95  84  75  66  58  52  50  55  58  61  60  57  54  54  51  46  41  37  36  32  32  34  35  38  39  44  58  71  75  81  82  76  68  52  39  34  34  33  31  29  30  31  34  38  44  49  54  56  61  69  84  94  98  84  68  67  73  84 104 124 136 142 142 117  71  65  70 146 168 171 172 172 171 173 172
 171 172 172 172 172 172 172 172 173 173 171 136  72  57  56  99 100  95  86  78  69  60  51  49  55  61  60  58  53  53  51  50  46  41  37  34  32  32  31  34  39  42  45  58  75  84  85  87  86  76  53  40  35  38  33  26  24  27  30  32  35  41  49  54  58  61  70  76  86  81  61  58  70  78  90 110 126 135 142 141 122  72  68  69 134 167 171 172 173 173 173 173
 172 171 171 172 173 172 172 172 172 173 169 132  71  58  60 100 101  96  89  81  68  56  48  45  51  65  65  63  59  58  57  54  48  42  38  33  30  29  28  33  42  43  45  56  80  90  95  97  97  79  55  44  38  38  29  23  23  24  27  24  27  29  33  39  42  45  51  54  57  61  63  71  84  95 103 119 130 137 141 142 123  78  73  67 120 165 170 171 173 171 173 173
 172 171 172 173 173 172 171 172 173 173 171 118  73  62  66 102 101  96  91  84  72  60  53  48  45  52  59  60  59  55  55  50  41  34  32  32  30  26  24  28  43  47  50  62  86  98 104 105 104  86  65  49  40  40  35  31  29  28  28  24  24  24  26  29  31  36  39  46  54  62  70  84  96 107 114 127 134 140 142 141 122  86  83  71 120 167 171 172 172 172 173 172
 172 172 172 172 173 172 172 171 172 172 170 122  78  67  71 103 102  98  95  91  82  74  68  63  51  42  39  42  41  37  33  30  26  23  23  28  29  27  30  36  45  49  55  63  90 103 109 106 112  93  75  61  48  45  41  34  31  30  30  31  27  24  23  26  28  34  41  50  55  65  79  93 104 115 123 131 139 141 142 141 127  88  88  76 125 166 170 171 172 171 171 171
 172 172 171 172 172 172 172 173 173 173 171 138  82  69  76 104 104 102  99  97  90  87  83  73  61  51  40  35  34  30  27  23  23  22  24  28  30  30  36  44  52  58  63  69  94 108 113 109 115  98  87  76  62  54  50  42  37  33  32  30  31  32  32  31  34  38  45  51  57  76  93 106 112 122 130 135 140 142 142 138 126  93  99  86 135 168 171 172 172 171 172 171
 171 172 172 171 172 172 171 172 172 172 171 157  87  71  76 105 105 103 101 102  98  94  90  83  73  58  45  41  38  34  30  28  26  29  32  30  30  34  43  52  60  66  68  75  98 110 115 113 119 104  94  88  78  71  64  55  48  43  40  39  37  37  35  39  42  47  51  61  73  91 102 112 121 128 133 138 140 142 141 137 113  87 111 102 153 168 170 171 170 171 170 170
 171 171 172 171 172 172 172 171 172 173 172 168 104  73  71 105 106 104 102 104 102  98  97  90  84  71  61  52  43  38  35  34  32  31  32  33  38  43  54  63  69  73  74  80  98 110 117 114 122 109 101  96  91  87  84  76  63  54  51  50  50  49  49  54  56  62  68  80  89 100 109 115 125 133 133 135 138 141 140 134  99  91 113 126 164 170 169 170 170 171 169 171
 171 172 171 171 172 172 172 172 174 173 171 170 142  83  61 105 105 105 105 105 105 101 101  98  95  89  81  71  59  49  43  39  38  39  42  45  49  55  66  73  77  76  76  83  97 111 118 114 122 111 105 105 101  99  98  95  84  75  70  64  59  59  61  67  72  77  82  91  99 107 113 117 122 130 134 134 135 137 136 133  92 100 119 147 167 170 170 169 169 170 170 170
 171 170 172 171 171 172 172 172 172 172 174 172 166 105  67 103 107 106 107 104 105 104  98 100 102  99  94  85  77  71  62  58  58  57  57  58  62  72  80  82  82  80  82  86  97 108 116 113 121 112 109 111 110 109 107 106 101  95  89  79  73  71  71  75  78  83  87  90  98 107 113 117 123 128 130 130 132 132 134 131  87 112 129 159 167 170 171 170 171 171 171 171
 170 171 171 172 171 172 173 172 173 174 173 173 171 137  76  99 106 105 105 106 105 103 102 101 103 104 100  92  88  85  78  75  72  69  70  72  80  85  86  85  82  84  86  89  98 107 111 111 121 115 112 113 112 112 110 109 108 103 102  98  90  81  78  81  82  85  88  93  99 106 110 113 118 122 122 127 126 129 130 126  84 107 145 164 169 169 171 170 171 170 170 171
 171 171 171 171 173 172 173 173 172 172 173 173 173 165  87  93 106 106 103 102 103 101 102 103 104 102  99  95  91  87  86  83  81  83  85  87  90  89  88  85  84  87  89  92  97 106 114 112 119 118 116 116 114 114 113 109 105 101 102 104 103  98  92  88  87  89  93  95  98 101 107 108 111 115 118 121 123 125 125 110  87 121 160 167 168 169 170 170 170 170 169 171
 168 170 171 172 173 172 173 174 173 173 173 173 173 170 116  87 104 103 101  99 101 100 101 102 100 101 100  96  94  91  91  90  92  94  97  96  95  90  88  86  86  88  90  95 102 107 110 111 122 122 118 117 116 113 111 109 105 102  99  98 101 103  99  96  94  94  97  98  98  97 104 108 109 111 114 117 121 122 124 102 104 142 164 167 168 169 169 169 168 169 169 169
 170 170 171 172 172 173 171 172 173 173 174 174 174 171 156  84 105 103  99  96  96  96  98  98  98 101  99 100  99 102 100  99  98 102 101  97  91  90  88  86  87  89  92  96 104 107 110 108 115 121 117 115 115 113 112 108 102  98  94  93  95  97  98  99  99  99  99  97  96  94  95 103 106 108 111 112 117 120 120  93 129 157 166 166 168 169 168 168 167 168 169 169
 171 171 172 172 172 171 172 172 173 173 172 174 174 173 167 118  99 102  97  94  92  94  95  96  98 100 101  98 101 103 103 100 100 101  97  94  91  90  88  86  87  89  92  98 104 106 110 110 116 121 119 117 113 110 108 106 100  96  93  93  94  95  97  97  98  99  96  94  96  96  95  98 101 105 109 112 114 117 111  84 143 163 164 166 167 168 168 168 167 167 167 169
 170 171 172 172 172 170 171 172 173 174 173 174 174 174 170 146  98 100  94  90  89  88  89  92  95  95  94  96  98 100 102 101 101 101  97  93  92  90  88  86  86  90  96 103 105 108 112 111 117 122 118 114 107 105 105 104  96  93  92  91  93  93  94  92  92  95  94  94  94  96  98 100 103 106 110 111 113 116  97  83 152 162 163 165 166 166 166 167 167 168 167 168
 170 171 171 172 171 171 172 172 172 173 173 174 174 174 173 158  91  98  92  89  89  88  89  89  91  91  91  92  96  97  99  98  98  98  96  94  91  90  87  84  82  88 100 105 107 109 111 112 115 119 118 115 103  94  95  95  90  89  89  88  91  91  91  89  90  91  92  95  97  98 100 102 104 105 106 110 112 114  82  98 155 162 162 162 165 166 167 166 165 166 167 167
 169 170 170 172 172 171 172 172 172 173 174 174 174 174 172 164  85  94  91  90  87  88  89  87  89  89  90  91  93  95  97 100  98  97  94  93  92  88  82  80  79  90 105 108 111 111 113 114 115 119 122 118 105  86  79  80  83  83  84  86  90  90  90  91  90  91  95  95  97  98 100 103 105 106 108 110 112 109  77 117 156 161 162 163 162 164 164 164 164 163 165 167
 169 169 170 171 172 170 172 172 172 172 173 173 174 173 174 168 120  88  90  89  87  88  89  88  86  88  90  90  93  95  97  98  97  97  94  91  89  86  80  71  79 102 108 111 114 113 116 112 113 117 126 124 116  92  68  70  75  77  81  84  87  90  90  90  90  92  94  97  97 100 103 103 107 109 109 110 111  96  72 124 155 159 160 162 163 163 163 164 164 162 164 164
 168 169 171 172 172 171 171 172 172 172 172 172 173 174 173 171 153  80  91  88  86  87  88  86  88  86  89  91  94  94  97  96  93  92  90  89  86  81  73  66  91 106 109 114 116 116 113 108 110 114 128 131 126 107  64  60  68  73  77  81  82  88  90  91  93  94  94  96  99 103 102 105 108 109 109 111 107  83  76 133 147 155 160 159 160 161 161 161 164 163 163 162
 168 169 171 171 172 172 171 171 171 171 172 173 172 173 173 171 165  80  90  88  87  85  86  85  87  87  86  89  91  92  92  92  92  89  89  86  83  78  67  71  99 106 109 110 113 110 106 102 106 110 120 132 128 116  91  58  65  70  75  77  81  87  91  92  94  94  94  94  97 102 105 106 109 111 111 111  99  72 100 150 155 158 159 159 159 160 161 161 162 163 162 162
 168 169 170 170 170 172 171 171 172 170 170 171 171 172 173 172 166  85  82  87  87  85  85  85  87  85  87  90  89  91  90  92  91  89  86  83  77  72  67  88  97 102 104 101 102 100  96  95  99 104 111 121 115 109 110  67  67  71  72  72  77  84  87  88  92  95  97  97  98 101 105 108 110 112 111 104  84  63 102 152 156 157 157 158 159 159 160 161 162 160 160 160
 167 168 170 170 169 170 170 170 170 169 170 170 171 172 172 172 167 101  70  87  86  86  86  87  88  86  87  90  91  91  91  90  89  87  85  78  74  68  71  88  81  83  89  88  90  92  88  86  85  91  97  99  91  89  92  75  72  72  73  74  77  82  84  85  91  94  95  98 100 102 105 108 110 112 108  98  72  57 121 153 156 156 157 157 158 159 160 160 161 160 160 158
 168 168 169 168 168 168 170 168 171 170 170 170 170 171 172 172 168 132  64  80  86  87  88  88  88  86  88  89  90  89  88  88  84  83  82  75  71  71  75  72  61  60  68  73  76  78  75  76  75  79  84  80  60  59  73  74  79  78  74  74  78  81  84  85  88  92  96  96 102 100 105 108 108 109 102  89  63  60 132 150 156 156 155 156 157 156 157 159 159 157 158 158
 168 167 167 169 168 167 168 168 168 170 170 169 171 170 171 170 169 160  68  68  84  87  88  89  88  88  89  90  90  88  87  84  82  82  76  73  73  76  76  66  49  40  47  56  60  63  63  64  65  65  70  56  50  62  73  82  86  84  81  77  78  80  82  85  90  92  94  96  99 102 105 107 109 105  93  77  61  76 140 147 153 155 154 154 154 155 156 156 155 154 156 157
 167 167 166 167 167 167 168 168 168 168 168 169 169 170 169 169 168 164  86  63  79  88  89  89  87  89  87  88  88  87  85  83  85  79  74  74  80  81  80  71  60  49  42  43  49  51  48  49  51  56  63  70  74  71  80  89  94  93  91  85  80  79  81  84  89  90  94  97  98 106 107 106 105  99  83  67  54  98 144 148 151 153 153 153 153 155 154 154 154 155 154 156
 166 168 167 166 167 167 167 167 168 168 168 168 168 168 167 168 167 164 115  59  69  83  87  89  86  87  86  85  87  86  83  83  81  78  75  78  83  84  82  75  66  56  46  43  44  44  43  44  44  50  53  59  67  68  82  92  98 101  99  93  87  82  80  82  86  89  92  96  99 108 108 105 101  93  82  60  63 111 145 149 150 151 152 152 152 154 154 153 153 155 154 155
 164 166 167 167 168 166 166 167 168 166 167 167 168 168 166 167 168 165 144  69  62  73  83  86  86  85  84  84  83  85  84  82  79  78  78  82  86  87  83  76  62  56  48  43  39  39  38  37  37  38  35  38  45  53  71  84  93  99 100  98  96  88  82  82  84  86  90  95  96 102 105 103  94  85  73  56  64 120 145 150 150 151 152 150 152 152 153 153 153 153 155 155
 165 165 165 165 165 165 167 166 166 166 166 166 167 167 166 165 166 165 160  93  53  62  77  82  83  83  83  83  83  82  82  80  78  78  81  86  87  86  79  65  56  50  43  39  34  35  34  34  34  30  28  30  33  36  53  69  76  86  93  94  96  94  88  81  81  84  89  92  94  98 100  95  82  72  60  50  69 130 141 147 149 150 150 149 149 150 150 150 152 153 154 154
 164 164 163 164 163 164 164 166 165 165 165 165 164 166 165 165 164 162 160 127  56  53  64  76  81  80  82  78  79  78  79  77  75  78  80  83  80  77  66  50  43  40  36  32  32  33  34  34  31  29  27  27  31  36  37  49  60  71  80  81  85  89  88  84  78  81  86  91  92  95  94  83  69  63  57  48  92 136 142 145 148 149 148 146 148 148 150 148 149 150 151 151
 162 162 162 164 164 164 165 165 165 163 164 164 163 164 165 163 163 161 156 152  73  48  53  70  77  79  78  76  76  75  76  75  73  73  73  69  62  65  54  38  33  32  31  30  30  35  33  31  30  29  28  26  30  34  33  36  44  52  59  65  67  72  80  85  79  77  83  88  89  91  85  69  56  57  55  58 122 140 145 146 146 145 145 144 146 147 148 147 148 150 149 150
 161 162 161 162 162 164 163 162 164 162 163 162 162 162 162 161 162 161 160 156 120  48  48  62  70  76  76  76  73  73  73  71  68  63  59  52  50  49  41  31  29  30  31  29  32  33  31  33  32  30  28  28  32  31  34  34  38  43  48  49  53  56  64  75  77  75  78  82  84  84  72  61  52  51  53  75 134 141 142 144 145 145 145 143 144 145 145 146 147 147 147 147
 161 161 161 161 161 162 162 162 162 161 161 162 161 161 162 161 160 160 158 155 138  57  47  52  64  71  71  71  70  68  67  64  59  48  43  41  38  41  33  31  28  29  27  28  32  31  35  38  37  35  30  30  34  33  37  35  38  43  42  42  45  50  52  58  67  72  73  78  82  77  63  56  49  48  49 103 134 139 140 140 141 141 142 142 144 144 144 145 146 145 146 148
 160 161 160 161 161 161 161 161 161 161 160 161 161 159 158 157 158 156 158 155 143  70  46  43  52  62  66  68  68  66  64  57  46  37  33  35  36  37  33  30  31  30  28  29  33  37  41  44  43  42  37  34  31  34  36  42  40  42  39  35  40  43  49  53  59  68  73  77  77  69  55  52  51  50  58 128 138 141 139 139 140 139 139 140 142 142 143 144 143 145 146 146
 158 159 159 160 161 160 160 160 159 161 160 158 158 159 158 157 157 156 155 154 147  99  43  36  43  51  60  64  66  63  59  48  38  30  29  32  34  37  33  32  30  32  33  36  38  44  44  49  51  45  36  32  31  32  35  39  38  37  34  29  38  39  43  48  56  64  70  73  74  62  52  53  53  49  89 136 139 139 140 140 139 140 140 139 140 140 140 141 141 141 142 142
 157 158 158 158 156 157 156 157 158 159 159 157 158 157 158 156 157 154 154 152 148 128  61  40  38  45  54  59  63  61  54  41  31  28  29  32  32  32  30  31  31  30  30  30  30  31  32  35  33  29  27  27  28  28  28  29  29  25  24  24  30  33  38  44  57  64  66  66  69  57  50  49  46  53 115 136 136 137 138 139 139 138 138 138 140 139 139 139 138 138 139 139
 156 156 157 156 157 157 157 155 157 156 158 156 156 156 156 155 155 154 153 152 151 145 101  43  37  41  46  52  55  55  50  38  28  30  30  30  28  27  26  25  25  26  25  25  25  24  23  23  22  21  22  23  24  28  32  34  31  29  30  30  32  32  36  39  51  60  58  55  60  53  46  43  41  69 128 136 137 136 138 138 137 137 138 137 138 138 139 139 139 139 140 140
 154 156 154 155 156 156 155 154 154 154 155 154 153 154 153 153 153 153 152 151 147 144 116  47  35  37  41  46  48  51  47  36  30  33  33  34  36  36  33  33  30  29  30  31  34  30  27  26  28  29  30  33  36  43  43  42  44  45  42  40  38  37  36  38  51  57  54  54  59  51  43  39  39  78 122 133 134 135 136 138 137 138 137 136 137 136 137 138 139 139 139 139
 154 153 154 155 155 153 154 154 153 154 152 153 153 155 154 153 152 152 150 148 147 145 126  55  33  37  39  40  42  44  47  37  36  35  41  44  47  47  48  44  40  38  39  42  43  44  39  40  39  43  45  48  50  51  50  52  56  57  51  46  43  40  38  40  50  53  52  53  52  46  37  33  38  47  64 112 131 134 134 134 134 133 135 134 133 136 137 134 135 136 137 137
 152 153 152 154 153 154 154 154 153 153 152 152 153 152 152 149 149 150 147 145 144 137 107  48  30  32  34  34  37  43  45  43  39  41  47  52  54  56  56  54  49  46  45  46  47  47  45  44  47  50  51  52  52  54  59  63  68  68  57  52  47  44  40  44  51  53  49  47  45  39  32  30  37  39  45  58 104 129 134 135 134 133 133 133 136 135 136 134 134 134 135 136
 152 153 151 152 153 152 152 153 152 152 150 151 152 150 151 149 148 146 140 134 123  86  43  38  28  24  29  32  37  39  43  43  37  41  48  53  59  60  59  58  56  53  52  47  48  46  46  46  46  48  51  53  58  64  65  70  74  70  63  58  51  46  43  48  52  51  45  44  39  32  30  30  32  37  40  44  48  80 120 134 133 133 133 133 133 134 135 133 133 133 133 135
 152 151 151 152 152 152 152 152 152 151 150 150 149 148 148 147 144 125  88  64  53  43  36  31  25  21  25  30  32  37  41  41  40  43  48  54  59  59  60  56  55  55  53  51  48  46  46  46  46  48  50  54  58  63  66  67  68  66  63  58  52  48  46  50  53  51  40  37  33  28  41  64  29  32  37  38  39  52  76  97 118 127 130 131 132 133 132 132 131 131 133 132
 150 150 151 150 151 151 151 151 150 148 148 149 146 146 142 130  88  52  45  41  38  33  31  28  23  17  24  29  30  36  38  38  36  43  46  54  56  58  58  54  50  50  51  48  44  41  41  40  40  39  41  46  50  52  55  60  59  62  61  56  50  49  48  51  54  45  33  31  29  33  77 113  36  32  38  37  35  44  55  63  69  91 113 125 128 129 130 130 130 132 132 132
 148 148 149 148 148 150 150 150 148 147 146 145 139 126  95  64  52  40  32  32  32  29  28  25  17  17  45  42  30  32  33  32  34  38  45  51  56  58  56  52  48  45  43  40  35  33  31  31  29  30  35  38  42  45  51  57  60  57  56  52  48  44  49  53  51  38  28  26  30  69 107 123  65  32  36  37  37  39  47  52  53  62  65  83 111 122 126 128 131 132 130 131
 147 149 148 149 148 147 146 146 145 143 138 122  89  68  54  42  36  33  30  29  28  29  26  21  16  29  63  66  40  27  28  28  29  33  42  52  55  60  59  55  51  49  45  39  31  29  26  24  25  28  30  36  40  46  50  57  58  54  51  47  43  39  41  47  38  30  24  32  67 102 113 124  81  34  33  34  35  35  43  47  48  49  48  58  65  85 104 120 127 127 129 132
 145 147 146 147 147 145 142 139 116  98  74  63  57  46  38  31  29  28  28  29  29  27  25  21  16  37  69  71  55  25  23  24  27  30  36  43  50  59  62  60  57  53  49  44  36  29  25  23  26  29  31  40  45  52  56  58  54  49  45  38  37  36  37  45  30  24  27  64  95 107 116 123  87  34  32  34  34  34  41  45  46  42  40  46  49  54  63  79 103 121 127 129
 145 146 145 142 137 120  93  77  60  59  53  46  38  32  31  30  27  25  27  27  25  24  25  17  16  42  67  71  66  39  23  19  23  26  31  38  47  60  64  63  63  60  57  52  44  35  30  29  30  34  42  53  53  55  56  56  50  44  40  31  31  31  32  30  25  23  49  89 101 109 115 119  76  31  31  36  32  32  37  40  42  38  37  39  42  41  46  56  67  81 104 119
 137 122 108  87  68  56  51  47  49  46  41  36  32  30  29  28  25  24  27  24  23  23  23  18  16  40  66  71  66  58  39  19  16  17  26  35  42  54  60  62  64  63  61  56  50  44  39  36  36  43  52  61  54  42  39  46  46  38  35  30  27  26  24  22  20  46  79  95 100 107 111 114  61  31  31  34  33  32  38  40  39  37  33  35  38  38  39  42  50  60  67  74
  74  62  57  52  49  44  42  41  42  37  33  32  29  29  28  26  24  23  24  24  23  24  22  17  17  36  63  69  66  61  57  40  24  15  19  26  34  42  50  57  62  59  60  58  55  50  44  42  45  48  55  58  55  41  41  39  37  33  32  28  23  22  18  18  29  73  88  95 101 105 108 101  46  27  27  31  31  31  37  38  38  35  34  35  35  36  34  36  43  50  60  62
  49  47  45  41  38  37  36  38  37  33  29  28  29  28  25  23  24  22  20  22  23  19  20  18  18  30  58  66  66  64  58  52  38  18  15  20  28  33  40  48  50  52  54  54  53  50  48  46  44  44  51  50  48  42  37  32  31  32  31  26  22  20  21  33  62  80  90  95 100 103 104  78  38  27  28  30  29  32  36  36  39  35  32  33  32  31  32  34  36  43  51  55
  42  38  37  35  35  33  34  35  34  31  27  26  27  25  24  23  23  23  21  23  20  18  19  17  17  20  49  61  66  65  64  60  49  38  18  17  22  26  30  37  38  42  44  48  49  50  48  47  42  43  46  41  36  35  30  28  31  29  28  21  17  19  34  58  69  79  90  93  97 101  94  51  30  27  31  29  28  29  34  35  38  35  33  31  28  29  29  32  35  39  45  50
  36  35  32  32  33  31  32  32  30  28  25  25  25  23  22  20  21  21  20  21  20  18  17  17  16  18  40  60  65  65  65  61  56  48  34  19  15  20  26  26  29  33  34  41  42  40  42  43  36  35  35  32  28  28  29  26  31  25  24  18  17  30  53  66  71  81  88  91  95  98  77  40  27  26  26  28  28  29  32  33  36  34  33  31  30  31  29  31  33  37  38  44
  34  32  30  30  30  32  31  28  28  26  24  24  23  23  20  19  20  19  19  19  19  18  17  16  16  15  30  53  63  65  64  61  59  52  46  29  18  16  20  16  22  28  29  32  33  34  32  33  31  29  29  25  21  20  22  25  26  20  17  16  25  49  58  68  74  80  87  89  94  86  52  32  25  24  26  27  28  28  30  31  30  33  30  28  26  28  28  29  31  33  36  37
  33  31  30  30  29  32  30  28  24  26  25  23  22  22  20  19  19  19  19  19  19  18  17  17  16  16  21  44  57  62  62  62  59  54  52  47  28  17  15  15  16  18  22  24  28  27  26  24  22  27  23  16  16  15  17  20  18  15  15  22  39  57  63  70  74  79  84  90  82  61  36  25  24  25  24  25  27  32  27  30  29  30  28  26  23  24  26  28  29  31  30  32
  30  29  31  30  28  28  26  27  26  24  23  22  21  23  22  19  18  19  19  19  19  18  16  15  17  16  17  28  48  57  58  60  59  55  54  51  40  26  18  13  13  14  15  17  19  19  20  18  15  22  17  14  16  12  13  14  14  15  27  37  50  59  65  69  75  78  81  80  64  39  27  20  25  25  22  25  27  28  28  31  31  30  27  25  24  24  26  27  28  31  30  30
  28  27  30  29  27  26  25  26  25  21  21  20  22  22  20  19  18  19  18  18  18  16  16  14  14  14  16  19  34  49  54  55  57  57  54  51  46  37  30  19  13  12  14  14  15  12  13  13  14  17  13  13  14  12  13  16  19  31  39  46  53  56  62  68  74  76  74  63  42  29  22  19  20  24  25  24  27  26  28  29  31  29  27  24  24  23  26  27  27  29  30  30
  27  27  27  27  25  25  24  26  25  22  21  20  19  19  19  19  18  17  17  18  16  16  14  15  14  15  15  15  21  37  48  51  54  54  53  50  48  43  40  26  23  18  15  15  12  13  11  11  13  14  13  13  14  15  23  25  30  36  42  47  52  56  60  64  70  70  58  41  28  24  19  21  21  22  19  24  27  25  26  28  30  26  27  24  22  20  25  27  28  29  30  30
  27  26  25  21  23  22  25  26  25  23  20  19  18  19  18  19  18  18  15  16  16  14  16  14  14  14  13  13  13  21  37  45  49  49  48  47  48  45  44  40  39  33  32  31  26  21  23  19  18  18  22  23  22  26  31  31  34  37  40  47  52  54  57  63  62  56  41  28  22  19  19  18  21  20  23  23  25  25  25  26  27  26  25  23  21  20  23  27  30  29  30  27
  28  27  27  21  20  23  25  25  21  19  19  19  17  17  17  18  17  16  15  16  17  16  17  15  15  12  12  12  13  14  23  36  42  44  44  46  47  46  46  44  42  40  37  36  34  33  30  28  27  27  28  29  29  31  32  33  36  38  40  46  50  53  54  52  48  37  25  20  17  18  18  19  20  20  22  24  25  26  26  28  26  26  24  23  20  21  23  26  27  28  27  28
  25  21  21  20  24  24  25  24  21  20  20  19  18  18  17  16  16  15  15  15  17  15  16  15  11  14  12  13  12  13  12  20  30  37  40  41  42  43  44  43  41  40  39  37  36  36  33  31  31  29  29  30  29  32  31  32  34  37  40  44  46  48  44  40  33  24  19  18  16  20  17  18  17  23  21  22  22  24  26  26  26  25  23  22  20  20  21  25  27  26  28  28
  22  20  21  22  20  21  22  23  23  19  19  17  17  17  17  16  16  15  16  16  14  14  16  14  13  13  12  12  13  13  10  14  17  26  32  36  40  41  42  41  41  38  38  37  34  35  31  31  29  28  30  29  29  31  32  33  33  36  38  39  38  37  33  27  21  17  17  18  16  16  18  18  20  20  23  20  23  23  24  26  27  24  23  21  20  19  23  24  25  26  27  28
  23  22  19  22  20  22  21  20  20  19  19  17  18  15  16  16  15  16  16  14  14  15  14  14  14  13  13  12  12  10  11  11  11  16  21  26  30  35  38  38  38  38  38  37  36  35  31  29  28  27  26  27  27  30  31  32  32  34  34  34  32  29  22  18  16  15  17  16  18  16  18  16  19  20  20  20  23  25  24  24  25  24  22  19  21  19  23  25  25  27  29  28
  23  22  21  21  20  21  20  21  19  20  20  17  16  15  14  15  15  16  15  16  15  14  13  12  13  12  12  12   9  10  10  10  10  12  14  16  20  26  30  33  33  34  34  35  34  34  32  30  27  28  25  25  26  28  29  29  30  29  28  27  22  18  16  14  14  16  14  16  16  17  16  18  18  19  20  20  20  22  24  23  24  22  19  17  18  21  19  23  26  25  26  26
  20  19  20  19  21  22  20  19  18  19  17  17  16  16  17  12  14  14  15  15  15  15  14  13  12  13  12  12  11  11   8  10  10  11  12  11  12  14  19  23  25  27  27  28  29  28  28  26  24  24  23  22  22  24  25  24  22  20  20  17  14  14  13  14  11  14  12  16  15  18  16  20  19  18  19  19  22  22  26  25  24  20  19  18  18  19  21  24  26  25  26  26
