P2
# Generated by OpenCV 3.4.0
92 112
255
 161 161 161 161 157 149 130  96  52  42  38  38  38  36  36  35  37  35  35  35  33  37  37  35  31  28  28  26  26  30  33  33  33  31  28  27  28  27  30  34  34  35  31  30  35  30  31  35  41  48  52  53  53  47  48  48  54  67  75 130 165 170 171 173 172 174 173 174 173 173 172 172 173 173 173 174 173 173 173 172 172 173 172 173 173 173 172 172 173 173 172 172
 161 161 159 158 151 138 103  59  49  42  35  34  35  36  35  33  32  34  31  28  26  27  25  26  24  24  24  24  27  29  29  31  31  29  29  29  29  28  29  31  33  32  30  30  32  31  31  32  32  35  42  48  50  51  51  47  48  54  72  78 137 164 172 173 172 173 174 173 173 174 173 174 173 173 174 174 173 173 172 172 172 173 172 172 172 173 173 173 173 172 172 173
 158 161 162 162 149 103  59  49  42  37  33  32  34  35  35  30  29  30  26  26  28  25  27  26  28  24  24  22  24  30  31  35  35  33  35  37  37  34  30  29  28  30  30  30  31  30  30  31  30  30  33  39  47  49  52  44  41  50  60  64  70 134 168 172 173 173 174 174 174 175 173 174 174 173 173 173 174 173 173 172 172 173 173 173 173 173 173 174 173 172 172 172
 161 162 162 150 127  69  48  43  38  36  36  36  34  30  31  31  30  27  25  26  29  31  33  33  32  28  29  27  31  32  30  29  31  33  34  36  31  30  28  26  28  28  30  30  29  32  33  35  36  33  33  34  40  49  49  48  43  45  49  62  60  75 133 165 171 174 173 173 174 173 173 173 174 174 174 174 173 173 173 174 173 174 174 173 173 174 172 173 174 174 173 173
 161 161 158 145  83  55  47  45  39  38  36  33  30  30  31  30  30  27  29  31  35  32  33  31  34  37  36  33  30  31  30  30  29  29  33  33  30  30  30  27  26  27  27  28  28  32  32  30  31  30  30  29  31  38  42  50  49  46  43  51  54  56  62 119 164 171 173 174 174 173 174 172 174 173 173 173 174 173 172 174 173 173 175 172 173 174 173 173 173 173 174 171
 161 154 149 108  65  51  57  45  39  35  32  30  29  30  28  28  30  30  29  31  29  29  28  28  30  29  30  30  29  30  33  37  37  35  32  31  30  33  30  27  24  23  26  25  26  27  28  30  30  29  28  29  29  33  36  45  43  46  46  46  51  52  52  62 119 168 173 173 172 174 172 172 173 174 175 174 174 173 173 173 173 173 173 174 173 174 172 173 173 173 173 171
 160 157 145  82  57  50  46  38  35  32  30  31  29  27  29  28  29  29  29  30  26  27  26  27  29  29  29  28  28  28  32  33  32  31  31  32  30  28  24  23  21  20  19  21  21  24  24  27  30  30  29  29  27  28  32  34  38  40  43  45  46  47  50  47  64 141 169 171 172 174 173 173 173 173 174 174 173 173 173 173 174 174 173 173 174 174 173 172 173 173 172 171
 161 157 122  73  58  45  37  37  34  34  30  30  31  30  30  29  29  29  28  32  32  30  28  28  28  26  27  28  30  31  32  32  31  31  31  30  29  29  30  27  28  26  26  25  24  24  24  25  27  30  32  28  26  26  28  32  34  37  36  40  43  45  47  41  44  65 141 164 170 174 173 174 173 172 174 174 174 173 174 174 174 173 174 174 174 173 174 172 172 174 172 172
 156 141 112  91  54  46  40  41  35  30  27  30  30  29  27  28  28  25  28  30  36  34  33  31  30  29  30  29  26  27  29  28  25  25  26  29  29  28  29  29  28  25  26  26  28  26  25  26  28  30  31  30  28  28  28  31  33  35  34  36  40  40  39  38  40  44  57 127 166 173 174 174 173 173 173 174 173 173 174 174 175 174 174 173 173 173 174 172 172 173 172 171
 152 135 129  84  50  47  40  34  31  29  30  30  30  29  29  26  28  29  29  30  33  33  36  34  37  32  31  28  25  25  23  23  24  23  25  28  29  27  27  29  27  27  27  28  27  26  24  23  26  31  30  28  30  29  29  30  33  38  35  37  38  38  33  37  43  47  46  71 155 171 172 172 172 173 173 173 174 173 174 174 173 174 174 173 174 173 174 173 172 174 173 174
 151 132 120  91  62  45  38  32  30  30  30  30  30  29  28  28  28  28  28  30  29  30  31  32  35  38  39  36  33  26  25  26  29  27  29  28  26  29  28  26  27  25  29  29  26  25  22  23  24  27  30  29  29  30  30  33  40  44  42  40  43  37  34  37  44  39  38  46 126 168 171 173 173 174 174 173 173 174 173 173 174 173 174 174 174 173 174 173 173 173 173 174
 152 138 115  94  64  48  37  35  30  28  29  29  30  29  27  26  28  27  26  27  24  25  27  28  28  29  29  30  30  30  33  30  28  26  26  28  25  25  27  26  27  30  29  27  26  23  20  22  22  25  29  31  30  31  35  44  41  42  45  40  40  36  35  38  41  43  45  49  94 150 170 172 174 174 173 173 174 173 173 172 173 173 173 173 174 173 174 173 173 172 173 172
 148 143 119  91  60  44  37  36  30  27  29  30  28  26  25  24  23  24  25  24  22  27  27  25  25  23  25  24  24  25  22  21  21  22  28  28  23  25  26  26  27  25  26  26  25  25  22  21  21  26  28  30  31  37  44  41  48  54  55  51  48  43  36  43  38  38  40  46  66 138 169 171 174 174 174 173 172 172 174 174 174 174 174 174 173 173 173 173 172 172 172 173
 151 151 131  83  55  44  35  32  29  28  28  30  28  24  23  23  22  22  23  25  25  25  25  23  22  21  21  24  21  18  18  17  23  25  27  21  22  26  26  24  21  23  23  27  26  25  24  22  25  29  28  32  37  45  48  55  63  69  72  67  58  48  39  37  37  39  40  43  54 123 167 172 173 174 173 175 173 173 174 174 174 174 173 173 174 173 173 173 174 173 173 173
 159 154 126  84  49  42  33  30  30  29  27  28  28  25  22  20  19  23  25  26  27  23  24  24  24  24  22  21  22  22  22  24  23  21  22  21  25  22  19  16  16  19  23  24  26  29  26  30  30  29  30  36  46  55  60  67  77  88  92  89  77  58  46  39  36  38  40  38  43  57 144 166 168 172 173 174 173 175 175 174 174 173 173 173 174 173 173 173 174 174 173 174
 162 158 125  77  46  38  33  30  29  29  26  25  27  26  25  21  17  21  22  22  24  25  25  21  21  20  21  24  25  24  22  19  20  19  21  25  21  20  18  16  18  18  21  26  29  30  29  31  32  35  41  47  57  69  73  83  97 110 114 110 107  82  61  48  41  37  36  37  44  50  87 159 170 173 172 174 174 174 173 174 174 174 174 173 173 172 174 173 174 173 173 173
 162 159 109  70  44  38  32  29  27  28  26  26  25  25  26  25  20  20  19  18  19  18  20  23  20  23  26  24  24  20  19  18  18  22  27  21  19  20  22  20  19  19  21  26  29  31  35  35  37  43  50  56  65  77  87  93 108 121 126 127 124 113  93  73  53  41  41  40  42  48  66 149 168 172 175 174 173 175 175 174 175 174 175 174 174 173 174 174 174 175 174 172
 159 142  97  55  41  37  31  30  28  28  27  28  24  24  25  26  25  21  22  19  16  17  22  22  24  24  23  21  21  18  16  17  19  28  23  19  19  21  22  23  22  25  27  31  33  34  39  42  46  50  56  63  72  83  90  98 115 127 131 135 138 133 120 102  76  52  39  40  41  46  53  96 152 170 174 174 176 175 175 175 175 175 175 175 174 173 175 174 174 174 173 173
 162 152 101  48  39  36  31  30  28  29  27  26  26  24  25  26  26  25  24  22  22  22  23  23  22  20  22  18  17  18  19  21  28  25  20  21  19  20  25  25  25  27  32  33  36  42  44  48  51  56  59  70  76  86  93 107 122 129 135 142 146 143 140 127 107  67  42  40  40  40  46  52  92 158 172 174 175 176 173 175 175 175 175 175 175 175 174 174 172 173 173 173
 164 157 102  47  35  32  31  30  29  28  27  25  25  25  25  23  25  26  23  25  24  23  22  22  22  21  19  18  20  21  23  28  26  20  21  20  22  24  24  27  28  32  33  37  42  47  47  52  55  61  68  74  79  89  96 109 125 133 139 146 150 150 149 146 136  91  54  43  39  41  43  43  72 152 172 175 174 174 175 176 175 175 175 175 175 174 174 174 173 174 173 173
 165 156 111  52  36  31  31  28  29  29  28  27  24  23  26  27  24  26  26  27  24  23  22  22  22  19  20  22  22  24  26  23  23  20  23  24  26  27  30  31  32  35  39  42  46  50  50  53  58  63  69  78  85  93 100 113 126 133 137 144 151 156 155 154 150 121  75  47  39  40  46  45  56 128 167 173 174 175 175 175 174 175 175 176 175 174 175 174 174 175 174 175
 163 155 107  49  36  32  29  29  28  29  29  28  26  25  25  25  28  28  26  24  23  22  22  21  20  19  22  22  24  24  23  24  23  23  26  29  29  31  33  35  37  38  41  43  49  54  54  56  61  67  71  78  86  95 101 108 122 131 136 144 153 155 156 156 155 140  98  63  44  41  50  52  51  91 155 168 173 175 175 176 175 175 174 175 176 175 175 174 174 174 174 174
 161 152  79  46  38  33  30  29  28  28  27  28  29  27  28  26  24  26  22  20  21  21  21  20  19  19  22  23  23  24  24  26  26  28  28  30  32  35  36  39  41  43  46  49  51  55  56  60  63  69  73  78  86  96  99 110 122 131 138 143 150 155 157 159 156 148 121  75  49  48  53  52  49  64 132 166 171 174 175 177 177 175 176 175 174 175 174 174 173 174 174 174
 159 148  74  44  40  35  30  30  29  29  28  28  29  28  29  25  24  24  22  23  22  22  21  21  20  22  25  22  23  25  25  26  29  30  31  32  36  38  38  42  43  46  49  51  53  54  57  64  69  73  81  86  90  95 102 109 123 132 133 142 147 152 157 161 159 153 130  89  56  48  48  52  49  62 138 167 174 176 176 176 176 176 176 176 176 176 175 173 174 174 176 175
 160 154  73  47  41  37  32  29  28  27  27  28  28  28  29  26  24  24  23  24  23  22  21  20  22  22  24  24  26  27  29  30  30  32  35  36  38  40  42  42  47  51  52  53  55  59  64  69  71  79  85  90  94  98 104 109 122 130 136 143 147 150 155 162 163 154 134 101  63  50  49  53  48  59 104 158 173 175 176 176 176 177 176 177 176 175 175 174 174 175 175 176
 165 150  75  45  40  34  32  29  28  29  29  28  29  29  29  25  26  26  28  28  24  22  22  23  23  25  28  28  29  30  31  32  34  36  36  39  42  42  43  45  52  56  58  57  60  64  68  72  74  82  87  91  94 102 108 111 117 130 137 145 146 150 154 159 161 155 138 108  75  52  51  53  52  55 101 153 171 176 177 177 176 176 179 176 177 176 176 175 174 175 175 175
 165 145  70  41  37  33  31  31  29  30  29  28  29  31  26  24  26  29  28  26  23  25  26  28  27  28  27  31  30  33  34  35  37  40  42  43  43  46  46  50  56  58  62  63  65  70  71  72  77  84  90  93  99 105 111 114 120 127 132 143 148 150 154 160 159 154 139 112  78  55  51  52  52  53  86 157 171 175 176 176 177 176 178 176 177 177 176 175 176 175 175 174
 167 161  70  41  39  36  32  31  30  30  29  29  31  29  27  25  28  28  29  26  27  30  30  29  31  30  31  33  35  36  39  40  41  42  45  45  48  48  49  54  57  62  65  68  69  73  74  77  83  87  92  99 103 104 112 118 122 128 135 140 142 145 152 160 159 153 139 116  81  53  52  52  50  51  78 144 169 175 176 176 176 176 176 178 179 178 175 176 176 176 176 176
 169 160  67  40  39  37  32  31  30  30  30  30  32  29  28  29  30  30  30  29  32  32  31  30  32  31  34  36  37  40  42  43  43  44  46  48  49  51  55  57  61  65  68  72  72  77  80  82  87  90  96 102 104 107 114 117 124 130 134 139 144 147 152 159 160 153 139 119  88  59  49  52  49  50  75 131 170 175 176 176 176 177 177 177 179 178 175 176 176 176 176 176
 169 159  75  46  39  34  31  30  30  30  30  32  32  30  31  33  33  33  33  35  36  34  32  33  35  34  37  41  44  45  46  47  45  46  48  54  51  55  57  61  64  67  71  75  79  80  84  86  91  93  96 103 105 110 118 119 124 130 134 141 144 146 152 156 158 153 141 117  89  66  52  48  49  50  68 129 166 175 178 178 176 176 176 177 177 177 176 175 176 176 176 176
 168 161  95  48  38  32  28  27  26  29  31  35  34  33  36  36  37  38  41  41  40  39  38  39  37  39  42  45  47  47  47  48  49  51  53  55  53  58  62  66  70  73  77  81  84  87  89  92  97 101 101 106 109 113 120 122 129 135 139 144 146 149 155 158 158 153 139 119  96  67  50  48  49  45  64 117 165 175 177 178 180 178 178 177 179 178 178 176 176 177 176 175
 167 166 128  46  39  35  30  28  26  30  33  38  40  40  40  42  45  44  44  43  44  44  42  41  41  45  48  48  49  49  49  51  54  54  56  58  61  65  70  73  76  81  85  88  89  91  94  98 102 103 107 109 113 117 119 122 131 136 141 147 150 150 156 157 158 153 139 123  98  69  53  48  49  48  63 112 163 176 177 180 178 177 178 179 180 180 178 177 178 178 178 177
 168 167 158  51  43  36  34  31  29  30  33  35  41  44  46  48  47  46  47  47  46  49  46  46  47  50  53  52  51  52  54  55  56  59  62  66  72  75  78  82  85  86  88  92  92  94  98  98 102 106 107 112 114 117 119 122 130 138 143 147 154 154 157 160 158 152 139 126 102  69  51  45  45  50  66 119 169 177 176 177 178 180 179 177 177 178 180 180 178 179 178 178
 169 169 159  60  43  32  32  33  32  31  33  36  41  50  55  54  52  52  49  50  50  51  51  53  56  57  57  55  56  57  61  62  64  68  69  74  80  82  85  88  89  89  90  94  94  95 100 102 104 107 109 111 112 115 117 119 127 135 138 148 155 157 158 160 159 153 142 131 111  75  47  42  41  52  65 121 167 178 177 179 180 180 180 179 180 178 179 180 178 179 178 178
 171 169 160  72  44  33  30  28  26  29  32  42  50  57  60  59  58  55  54  56  52  53  60  62  62  61  63  62  64  65  68  70  73  75  79  82  85  87  90  93  96  92  93  93  94  90  96 101 103 104 105 107 108 111 114 116 120 127 134 140 149 157 158 159 160 153 144 136 122  87  47  37  41  51  68 130 168 178 178 180 180 179 178 180 179 179 179 179 179 179 179 179
 172 168 161  71  45  34  31  26  22  27  32  42  52  59  61  60  61  60  59  60  60  63  64  65  68  68  67  68  69  72  75  77  80  82  84  86  87  89  90  91  96  92  90  91  91  91  94  97  97  98  99 102 103 106 108 110 113 114 123 124 132 143 150 155 157 153 147 139 131 101  51  37  41  50  66 137 167 178 179 179 179 180 179 180 179 178 177 179 181 180 181 180
 171 170 158  82  48  35  30  26  24  24  29  40  48  56  62  66  68  66  67  67  67  68  66  68  70  71  69  72  76  77  78  81  83  85  86  88  89  88  88  88  90  90  88  88  89  89  87  90  91  93  97  98  96  96  99 104 104 100 102 104 109 124 134 142 146 147 147 144 136 120  64  39  39  49  73 141 172 177 179 178 181 178 180 177 179 178 179 178 179 181 180 178
 172 171 156 117  47  34  30  26  24  23  28  37  47  58  68  75  75  72  72  67  69  69  68  70  71  73  73  76  79  79  81  84  83  83  85  86  86  86  86  88  88  88  87  88  85  85  85  87  88  87  87  88  84  86  89  88  85  84  84  85  87  94 101 107 111 123 140 145 138 132  87  44  40  50  77 153 174 180 180 180 180 178 179 179 180 180 177 178 181 179 179 179
 172 172 165 134  54  36  33  28  24  24  28  36  47  62  72  78  78  76  72  69  71  68  71  70  70  71  74  78  80  78  81  83  83  83  82  80  83  83  82  86  86  84  83  83  82  83  83  83  81  77  77  75  75  75  76  71  66  64  69  66  59  61  70  77  87  99 118 140 139 135 106  54  46  52  86 156 174 178 179 180 181 178 177 176 177 179 179 178 180 177 177 178
 173 171 168 148  67  38  35  30  23  25  28  38  50  63  75  80  80  75  72  73  72  69  72  70  70  72  74  79  81  80  81  80  80  79  80  77  79  78  80  80  81  82  82  79  77  76  76  73  73  67  64  59  57  55  49  47  45  43  43  45  42  44  50  56  61  68  82 109 139 140 121  58  50  53  93 161 174 179 177 179 177 179 180 178 178 179 178 177 177 178 178 178
 173 172 170 153  83  40  35  30  23  25  28  36  50  67  78  81  80  76  72  74  76  75  75  69  68  72  75  76  78  77  77  76  74  75  75  72  73  73  72  72  75  78  77  72  72  71  69  66  64  54  46  43  40  35  34  31  28  31  32  33  33  34  36  38  40  47  57  78 121 141 131  70  58  60 115 167 175 177 178 177 177 177 177 178 178 177 177 178 179 178 177 177
 172 172 170 164  99  43  35  32  25  25  25  37  54  72  80  83  84  83  78  77  76  74  71  70  68  70  73  73  73  71  69  66  66  66  63  64  65  66  65  66  71  75  75  71  69  64  62  55  51  41  36  31  29  28  27  26  26  26  26  26  28  29  32  36  38  46  53  64  99 140 141  93  57  60 136 171 177 177 178 181 178 178 178 177 177 177 176 178 177 176 176 178
 170 172 171 166 128  50  33  34  28  23  26  38  58  74  83  87  86  83  79  75  71  65  64  64  63  65  63  65  61  57  55  56  55  52  52  53  53  56  60  62  68  71  72  67  62  56  52  47  42  36  31  29  27  27  26  26  27  29  32  33  35  40  43  46  49  56  61  73 104 133 142 104  61  58 140 173 175 175 177 178 176 178 178 176 176 177 177 177 178 178 178 177
 172 171 171 167 159  71  34  34  30  22  24  43  63  77  83  86  86  81  76  72  63  59  57  51  48  48  47  43  38  39  36  37  36  36  36  40  43  48  53  55  63  68  72  66  58  53  48  43  40  36  34  32  31  32  33  35  37  39  43  45  50  55  65  71  74  80  86  98 116 135 144 121  67  58 119 169 173 175 177 176 176 178 177 176 176 178 176 176 178 177 177 177
 171 172 170 169 165 134  44  34  30  24  25  45  68  81  86  88  86  83  73  56  48  42  37  37  35  33  30  28  28  28  27  27  28  27  28  30  32  38  45  50  60  63  67  64  60  53  49  46  41  40  40  40  40  39  39  42  42  43  46  51  56  66  82  94  95  95  98 109 124 139 149 139  66  56 107 164 171 174 176 177 176 177 178 175 177 178 176 177 176 176 177 176
 171 172 170 170 168 156  75  34  31  26  30  50  73  83  87  89  87  77  54  41  34  30  28  28  27  25  23  23  26  22  21  21  21  24  26  28  30  35  40  48  58  63  67  65  62  58  55  52  49  48  44  42  39  38  36  36  37  38  41  49  56  63  78  82  85  98 100 110 126 141 152 149  85  55  92 159 170 174 175 177 178 178 177 177 177 177 176 176 175 177 176 176
 172 171 171 171 171 161 122  39  32  30  33  55  78  86  90  90  83  57  41  32  28  27  24  23  21  22  22  23  25  22  22  23  24  27  29  31  32  37  41  50  60  64  72  76  75  70  66  60  53  47  41  39  34  34  36  36  34  30  28  28  30  41  52  69  67  68  92 107 120 139 151 154 115  60  73 140 170 175 176 176 176 177 176 176 177 176 176 175 176 176 176 176
 171 170 170 170 168 164 143  66  37  33  37  59  81  88  91  87  68  43  33  29  25  24  24  25  25  27  32  33  33  33  32  32  33  34  35  35  36  39  42  52  63  72  81  90  92  91  83  66  50  42  38  37  34  37  37  40  36  27  25  24  32  60  80  53  58  61  77  99 115 138 151 157 140  80  77 161 171 175 176 176 175 176 176 175 175 175 175 175 175 175 176 176
 170 171 171 170 170 165 158 111  38  35  36  66  86  91  91  80  64  43  32  29  27  28  29  32  37  40  41  41  41  39  36  33  34  35  36  36  37  40  42  52  64  77  86 101 108 109  94  69  49  41  38  36  34  38  49  56  42  29  25  21  26  47 105  94  75  69  82  98 120 141 153 156 152  96  88 164 174 175 175 174 176 175 176 175 175 175 174 175 175 175 175 174
 171 171 172 171 171 168 163 125  35  35  36  68  87  93  94  83  67  45  36  34  35  39  40  40  41  40  41  42  42  38  34  31  29  30  30  34  37  40  42  48  63  81  91 103 116 119 104  74  52  46  41  32  34  42  56  64  50  29  26  24  30  54  93  95  97  94 101 112 130 147 155 158 156 108  92 164 172 174 176 176 176 175 175 175 175 174 175 174 174 175 174 174
 170 169 171 170 170 171 164 142  45  37  39  71  90  94  95  87  64  49  46  46  46  45  41  37  40  44  41  37  33  27  22  22  24  29  30  30  35  42  43  47  59  80  94 106 120 130 110  83  62  52  42  32  34  39  49  57  58  35  27  27  34  65  83 101 106 114 122 131 138 153 157 159 156 120  90 163 172 174 174 176 175 175 176 175 174 174 174 174 174 175 174 175
 172 172 172 170 170 170 167 160  69  40  39  72  93  95  94  82  67  59  54  54  50  40  37  43  40  36  34  33  25  23  20  20  19  29  31  29  35  44  48  49  57  80  98 114 125 135 115  95  78  61  50  46  44  45  51  53  55  54  50  53  56  70  87 110 116 126 133 141 147 156 160 160 157 128  82 149 171 173 174 174 174 174 174 175 175 174 174 173 173 175 174 174
 171 171 171 170 170 168 167 152  87  40  40  74  94  96  93  82  73  66  61  54  43  34  39  34  32  40  52  40  23  27  20  19  20  29  32  29  33  48  52  53  59  80 102 118 126 136 120 104  95  80  64  53  49  47  50  52  53  55  54  56  64  79  92 110 123 132 136 146 155 160 164 162 157 136  88 127 168 173 174 173 173 174 174 174 174 175 174 173 173 174 175 173
 170 170 170 171 170 167 146 111  85  43  40  78  96  97  96  85  78  70  60  49  41  38  33  32  48  59  61  47  23  21  19  22  24  31  32  36  42  50  56  62  65  79 105 119 130 139 125 111 108 101  88  67  57  52  51  52  54  56  56  63  72  84  95 114 127 136 143 152 159 163 165 161 154 142  92 114 166 171 172 173 172 174 174 174 175 174 173 174 174 173 173 172
 170 170 170 170 170 166 100  65  72  45  40  78  96  99  96  89  81  73  60  52  44  43  41  44  50  57  61  52  29  23  21  24  34  40  42  44  51  57  64  70  69  79 105 120 132 140 136 118 115 114 110  95  79  67  63  60  62  63  67  73  84  98 111 120 130 138 145 156 160 162 162 161 156 137  86 109 163 170 172 171 172 172 173 173 173 174 172 174 173 173 173 173
 170 168 169 171 168 165  97  55  51  41  42  81  97  99  98  92  87  77  64  58  59  59  56  55  54  56  59  60  56  44  43  51  47  42  42  47  58  68  75  77  73  81 102 120 135 139 142 124 120 125 124 116 104  88  80  75  78  80  86  90 102 108 116 126 133 139 146 156 161 160 160 157 153 134  85 113 162 171 172 171 173 172 173 173 173 172 172 172 172 173 174 172
 168 169 169 168 170 165  98  58  53  50  45  85  99 101  97  98  92  87  78  76  75  72  68  65  61  57  52  53  51  49  48  48  46  46  49  61  72  81  80  80  77  81  94 115 131 136 145 129 127 128 134 131 125 114 104  95  92  91  94 100 107 111 117 127 136 140 148 152 156 158 157 154 150 137  97 124 165 170 172 171 172 171 172 173 171 171 173 172 172 173 172 172
 167 169 170 167 168 165  96  64  60  61  51  87 101 101 101 101  99  96  92  89  88  83  77  73  66  60  56  52  49  50  49  49  51  56  63  74  84  86  81  79  80  84  92 108 127 135 149 133 131 136 143 141 137 132 128 115 106 104 102 104 110 115 116 123 130 137 144 149 150 151 150 149 148 130 106 144 166 173 172 171 170 170 170 171 172 172 171 170 171 172 173 172
 167 168 168 169 169 164  92  65  61  68  50  88 101 102 102 102 102 102 100 100  97  93  90  85  79  70  64  59  58  57  60  61  66  69  75  84  90  88  82  81  83  86  92 104 122 132 147 137 134 136 140 142 142 140 140 133 123 114 110 110 110 112 116 120 126 132 135 140 141 145 143 143 142 128 111 156 168 170 172 171 170 169 170 170 170 170 171 171 172 172 170 172
 169 168 168 168 168 165  88  66  65  70  59  88 102 104 103 102 104 107 106 108 108 106 102  96  89  86  81  76  76  76  77  79  80  81  86  94  95  89  85  84  86  88  94 104 118 127 146 140 134 135 135 140 140 140 138 136 136 127 120 114 112 114 117 118 120 126 128 131 135 138 139 137 137 117 118 158 168 169 170 170 170 171 171 170 170 170 170 172 172 172 171 171
 167 169 167 169 168 158  90  71  70  72  62  83 103 105 104 105 108 109 110 110 110 109 107 104 100  99  93  90  90  89  86  87  88  89  94  98  95  89  84  86  86  88  95 104 116 124 136 142 136 133 133 135 137 138 135 131 132 129 124 120 117 117 116 115 114 121 124 126 128 130 131 133 134 112 125 162 168 169 170 170 170 170 171 170 171 170 171 171 171 171 171 171
 167 168 168 168 168 164  97  76  74  73  66  77 101 103 105 109 109 108 109 111 109 108 109 108 106 104 101  99 100  96  93  96 100 100  99  98  95  89  85  84  85  88  94 104 113 122 130 145 137 132 129 129 132 134 132 128 128 129 125 124 122 120 118 115 113 112 118 119 124 126 126 128 128 103 135 162 167 167 168 169 169 169 169 170 169 170 169 170 170 170 169 169
 168 168 168 167 168 165 117  81  76  78  71  65  99 102 104 106 108 107 107 108 109 109 109 110 107 104 103 103 101 100  99 102 102 104 101  99  94  86  86  84  83  86  96 105 111 124 132 145 139 130 124 120 124 127 124 127 129 125 125 123 124 121 117 113 113 114 116 116 121 123 123 125 123  92 138 161 166 168 169 168 169 167 169 170 170 170 168 169 169 168 168 169
 168 169 167 168 167 167 138  86  78  81  76  56  96 101 102 105 104 104 102 103 104 108 108 108 108 107 104 103 102 103 103 106 108 105 100  96  92  87  84  82  83  90  99 103 112 125 131 142 141 134 118 114 117 119 120 122 125 123 125 118 118 119 117 116 115 115 116 115 118 120 120 122 113  85 150 160 165 166 167 166 168 168 169 169 169 169 168 167 167 168 168 168
 168 169 169 169 169 167 160 101  81  84  86  50  88 100 102 101  98 100 102 103 100 104 103 101 104 104 103 104 105 106 106 106 108 105 100  96  91  87  82  81  82  94 100 106 112 122 127 135 143 140 122 105 108 109 112 116 122 124 124 122 122 119 119 119 118 116 117 116 116 116 118 118 103  81 147 161 165 166 167 167 166 168 167 168 168 168 168 167 168 168 167 167
 168 167 168 168 168 168 166 145  94  90  94  53  79  97  99  98  97  95  97  96  96  98  98  99 101 103 102 103 105 106 106 107 107 103  99  98  93  86  79  75  83  99 107 109 111 116 119 126 140 146 141 101  95  99 103 109 117 125 124 123 121 121 122 122 118 120 118 115 116 114 114 113  92  82 152 162 164 165 166 165 166 165 166 166 166 166 166 166 167 168 167 167
 168 169 168 169 168 169 168 166 119  96  95  63  65  92  96  97  95  92  91  90  94  93  94  97  97  96  98 100 103 105 105 105 106 101  98  95  91  83  75  69  92 104 110 110 114 112 109 115 130 148 148 131  86  91  97 106 114 121 124 125 126 125 127 126 121 120 119 116 115 114 111 102  80  94 152 160 162 163 164 165 165 164 166 165 166 166 166 166 166 167 167 166
 168 168 169 169 168 169 169 168 154 101  95  78  52  87  91  94  90  88  88  88  88  89  89  91  92  92  94  98  98 101 103 103 104 100  96  94  88  81  70  74 100 105 109 110 112 107 102 109 122 141 149 141  95  86  92 102 109 116 123 129 130 129 125 126 126 124 120 118 115 112 105  90  73  99 142 155 162 162 162 164 163 163 165 164 164 165 167 165 166 168 167 167
 168 168 169 170 169 169 168 169 167 131  97  88  53  77  89  90  87  85  84  85  84  86  86  88  90  91  91  96  97 102 103 103 102  99  95  92  87  79  68  82 101 104 105 105 104 101  95 102 111 126 135 130 121  82  90  99 107 116 124 128 130 131 129 127 125 126 121 119 115 107  93  78  70 113 154 157 159 161 161 162 162 162 164 162 163 163 166 164 165 166 164 165
 167 168 168 169 168 168 168 169 167 163 107  87  60  64  85  89  86  82  82  82  82  85  85  86  86  88  91  95  98 102 103 102  99  98  95  90  85  77  66  89  94  96  96  93  95  93  91  90  96 106 112 106 112  84  89  95 102 111 121 126 129 133 132 130 128 127 122 119 112  97  81  68  63 131 156 159 159 160 161 162 161 162 162 161 162 161 161 164 165 164 164 162
 167 168 168 167 168 167 168 168 169 168 149 100  76  53  74  84  84  81  82  81  81  82  85  85  84  88  91  94  96  97 102 101  99  98  95  92  86  79  76  86  77  76  81  81  80  82  80  79  84  91  91  73  88  84  86  94 103 110 118 123 127 130 132 130 127 126 122 116 104  90  68  57  69 142 156 159 158 160 161 160 160 160 160 161 162 162 162 162 162 162 162 161
 167 167 168 168 167 168 167 168 168 168 165 139  95  48  59  79  78  79  78  77  78  81  80  83  82  86  89  93  95  97 100 101  98  98  94  89  86  79  79  76  59  52  62  61  64  67  68  67  70  79  57  62  86  90  94  95 102 108 114 122 126 129 133 132 128 125 121 112  92  77  62  59  76 145 156 157 158 159 160 159 159 158 158 158 160 162 162 162 161 160 160 162
 166 168 168 168 168 167 166 167 168 167 167 165 120  58  49  64  74  75  76  75  75  77  80  82  84  86  89  91  93  96  97  99  98  96  93  87  85  80  75  62  42  33  31  42  51  52  52  54  61  61  58  73  83 100 104 102 103 107 114 121 128 130 132 132 130 126 119 102  76  67  60  58 100 144 152 155 156 157 157 158 158 157 158 159 159 159 159 158 158 159 160 160
 167 167 168 167 167 167 167 167 167 167 167 165 140  84  49  53  68  74  74  72  72  74  76  81  84  85  87  91  95  97  97  98  97  94  92  87  83  82  75  59  46  39  33  31  42  46  48  55  69  74  89  89  88 105 111 108 107 108 113 121 126 131 132 133 130 124 113  93  72  62  59  53 117 148 151 152 154 156 156 157 157 157 157 156 157 157 156 155 156 159 159 159
 166 166 167 167 168 167 167 167 167 168 167 165 162 100  55  45  56  68  70  69  70  72  76  79  82  84  88  91  94  96  96  96  91  94  91  86  85  85  80  66  53  47  45  46  44  42  44  50  55  56  71  83  92 109 114 115 112 112 114 117 125 131 129 129 128 121 105  80  68  64  60  56 123 149 153 153 153 154 154 155 156 154 155 155 156 154 156 156 156 157 158 158
 165 165 166 166 166 166 167 167 167 167 167 166 164 148  66  44  45  57  64  66  66  70  74  78  82  85  87  91  94  95  95  94  92  93  90  87  87  88  85  75  68  58  55  48  43  43  43  43  40  38  46  61  85 107 116 119 119 115 115 117 126 127 128 124 122 113  91  70  61  57  55  62 131 148 151 152 152 152 154 154 154 154 154 155 155 153 155 157 156 157 156 158
 166 166 166 165 166 166 166 167 166 165 166 166 163 161 129  47  42  48  54  57  62  67  72  76  82  83  86  89  94  93  94  92  93  93  89  88  89  90  88  80  69  61  50  42  40  46  43  43  36  32  38  46  60  88 110 119 121 120 118 118 123 127 126 122 118 105  77  66  61  53  53  82 131 146 149 150 150 151 152 154 154 152 153 153 154 153 156 156 156 155 156 156
 165 165 165 165 164 166 165 165 166 165 165 164 162 160 149  97  39  40  47  50  56  63  70  75  79  80  83  85  90  92  92  91  92  93  90  90  91  92  88  81  67  58  43  37  40  47  46  47  40  35  37  41  48  65  91 109 120 123 124 122 121 125 124 119 112  91  65  64  58  53  55 101 138 143 149 148 150 151 152 152 152 152 153 152 152 152 154 154 155 155 154 155
 164 163 165 165 164 166 165 164 165 164 163 164 164 161 156 123  38  36  42  47  48  53  65  71  77  78  83  83  88  88  90  92  92  92  90  92  91  92  88  75  60  48  39  38  41  51  47  47  44  39  34  38  43  51  67  91 108 114 120 124 123 121 119 114 101  75  57  57  57  53  61 124 142 146 146 148 149 149 150 150 149 148 150 151 152 153 153 153 153 153 154 153
 164 162 161 163 164 164 164 163 164 164 161 161 162 161 157 145  57  38  40  44  45  48  52  63  71  75  79  81  83  86  89  89  89  90  92  93  92  90  84  65  48  40  40  38  40  45  46  46  46  42  38  40  38  43  51  67  84  97 110 116 119 117 114 108  92  69  53  58  56  52  87 137 146 148 147 148 147 148 149 148 147 147 148 149 152 150 152 152 152 152 154 153
 163 161 162 162 164 163 163 163 163 162 161 161 160 158 158 154 119  35  35  37  40  42  44  51  62  69  73  77  79  83  85  86  87  88  90  91  89  81  74  53  36  34  35  34  45  47  47  48  50  46  43  43  42  43  44  53  64  72  80  97 110 113 111 104  80  62  57  56  51  51 104 139 145 146 145 143 144 144 146 146 147 146 147 149 148 148 150 151 152 151 151 152
 161 161 162 162 162 163 161 162 161 162 160 159 157 158 157 154 150  75  38  34  38  40  38  41  50  63  69  75  75  76  80  82  84  85  87  84  77  65  62  42  31  31  34  32  43  48  51  52  55  52  47  45  44  44  45  51  55  58  68  73  91 108 107  98  76  64  61  55  52  53 120 139 142 144 142 143 142 139 140 142 143 145 146 146 146 146 148 148 149 149 149 150
 160 160 161 161 160 160 161 160 160 159 158 156 156 156 155 153 151 128  52  34  36  40  34  35  40  53  65  71  73  74  76  79  79  80  77  72  60  53  48  35  31  32  32  34  44  49  54  57  60  56  51  47  47  50  51  52  52  54  57  68  77  96 102  92  70  56  56  53  53  64 133 140 143 142 143 142 141 140 140 143 141 142 145 144 144 146 147 145 147 147 148 147
 159 158 159 159 160 158 159 158 158 156 156 155 156 154 154 152 150 147 104  38  35  40  36  33  39  46  58  66  67  69  72  72  72  72  66  54  45  42  42  35  33  32  34  39  50  58  63  70  72  58  56  54  54  58  54  52  50  49  53  58  75  89  94  84  65  52  52  52  53  95 136 141 141 140 141 141 140 140 140 140 141 142 141 142 142 143 142 142 144 144 145 146
 158 160 159 159 157 155 158 158 156 154 154 154 155 154 152 152 151 146 134  69  35  38  38  37  37  39  44  58  63  66  68  68  68  62  52  41  39  40  40  39  34  37  39  47  53  54  56  61  56  47  47  50  54  55  53  51  46  48  54  53  67  87  84  78  63  53  50  46  45 118 138 139 139 139 139 139 138 138 139 140 139 139 140 141 140 140 141 140 140 142 144 144
 156 156 156 156 154 154 155 153 154 154 153 153 152 152 152 152 151 148 144 119  41  37  35  36  35  33  36  45  54  61  63  66  64  56  44  35  35  37  40  41  41  45  43  46  45  44  43  46  45  41  41  47  52  51  45  41  41  45  51  52  67  81  78  76  60  49  45  46  49 125 138 138 138 139 137 139 139 139 138 140 138 138 140 140 139 140 141 141 141 143 144 144
 155 156 155 155 154 153 153 154 153 154 153 153 152 152 151 151 148 148 146 137  66  34  30  33  34  33  32  38  48  55  63  62  59  50  36  30  29  39  41  41  39  39  41  39  41  39  38  40  34  33  34  34  38  44  40  38  48  53  50  51  68  79  79  73  58  47  39  43  70 127 134 135 136 137 136 137 138 137 138 138 139 138 140 138 138 139 139 139 140 141 141 141
 156 154 154 155 153 154 153 151 153 152 152 151 151 152 151 150 147 148 146 142 118  42  30  32  33  35  33  32  41  49  56  59  55  44  32  30  32  38  39  35  30  30  35  33  30  30  26  25  20  23  25  26  30  49  55  56  64  63  54  55  72  81  73  67  54  42  37  40  88 127 132 132 132 134 133 133 134 135 134 133 133 136 138 138 137 137 139 139 139 138 139 140
 152 153 154 154 153 153 152 152 151 151 151 149 149 149 148 147 147 146 145 142 137  76  31  30  31  33  33  33  39  44  49  54  54  44  31  32  35  37  37  31  27  29  29  27  23  24  24  22  23  28  33  36  45  61  65  69  74  71  61  55  74  80  69  56  47  38  37  49  84 110 127 130 133 135 134 135 134 136 135 133 133 135 137 137 136 136 136 135 137 136 136 138
 152 153 152 151 152 152 152 151 149 149 149 148 148 147 146 145 145 143 142 142 139 110  35  30  30  33  31  34  38  41  44  46  48  44  34  36  37  38  41  36  36  36  38  37  33  37  36  34  42  46  50  50  53  54  67  70  66  73  65  62  69  74  61  45  42  37  34  63  54  50  65 107 130 133 133 135 134 134 135 134 133 134 135 135 136 136 135 135 136 135 138 136
 152 151 151 151 150 150 149 148 149 145 146 148 147 146 146 145 144 143 141 140 136 125  65  30  28  26  32  34  34  36  38  41  47  44  39  38  40  45  46  45  42  41  40  42  42  51  49  42  52  51  57  54  54  56  69  68  66  69  65  61  63  72  51  38  38  33  32  86  46  45  48  55  98 123 130 131 131 130 130 130 130 132 132 131 134 133 133 133 136 134 133 136
 150 149 150 150 151 150 149 147 147 148 146 146 146 146 145 144 142 140 140 139 131  75  43  29  23  21  26  28  32  34  36  41  44  44  40  40  42  46  49  48  45  42  41  40  42  48  48  44  47  48  50  55  50  65  69  60  63  65  56  56  59  64  43  32  31  30  46 104  47  40  42  42  47  66 103 122 126 126 127 125 129 128 128 130 131 131 131 132 133 132 132 132
 148 148 149 149 147 147 146 147 146 146 145 144 144 143 142 141 138 138 137 118  59  37  32  35  21  17  19  25  30  31  34  38  42  42  37  40  46  47  50  49  45  42  42  42  42  44  45  46  46  46  48  52  56  62  61  53  54  54  50  48  52  49  35  29  27  28  85 111  50  38  39  38  38  45  65  73  94 115 124 126 129 127 127 128 129 129 130 130 130 132 133 133
 146 146 145 146 146 146 146 146 144 144 142 141 141 140 139 135 120 104  86  44  35  29  26  40  26  16  17  24  29  30  32  37  39  40  37  40  46  49  48  48  45  42  41  42  41  40  40  41  41  40  44  43  47  49  52  52  51  44  39  37  42  43  30  27  27  48  99 115  66  35  38  38  36  40  52  57  59  69  88 109 122 124 125 126 127 127 129 129 129 130 131 132
 146 145 146 145 145 145 144 144 143 142 140 139 139 134 117  77  53  45  42  32  31  25  21  35  38  22  17  20  23  27  31  33  37  34  34  38  41  45  48  48  46  41  37  36  36  35  28  28  27  24  28  32  36  41  48  52  46  40  33  33  34  32  25  25  28  81 105 116  99  34  37  38  37  37  44  50  50  55  57  60  76  98 116 123 125 127 129 127 129 131 130 130
 145 145 144 143 141 143 143 141 141 139 139 135 126  86  52  37  35  33  31  28  27  22  17  31  56  32  19  17  23  29  30  30  29  28  30  32  37  42  46  49  49  42  39  38  33  28  23  19  18  20  24  32  34  38  45  48  44  37  31  28  29  26  22  25  49  95 109 116 120  40  34  35  38  35  41  46  47  46  46  49  53  60  65  85 106 121 125 126 129 127 128 130
 142 143 142 141 140 140 140 138 137 133 118  90  62  48  37  28  26  30  27  25  24  18  14  29  60  46  28  18  16  21  24  25  26  26  26  28  29  35  41  48  48  45  42  40  36  32  28  23  22  27  29  37  34  32  36  42  41  34  28  27  26  23  21  37  77  99 110 115 118  51  35  34  37  35  39  43  45  42  40  43  45  48  51  62  69  79 102 115 120 125 125 127
 142 140 139 138 139 138 134 128 110  85  60  52  39  31  30  27  25  25  25  25  22  17  14  42  62  57  42  21  16  15  18  18  19  22  24  24  28  32  40  49  50  49  46  45  42  39  32  29  27  29  34  37  32  30  32  35  37  36  31  25  26  23  27  54  90 101 111 114 117  53  34  37  36  33  35  40  43  40  37  38  40  39  42  47  53  62  67  69  80  94  98 100
 140 136 136 134 130 106  72  61  54  53  46  36  31  26  25  24  25  25  25  23  21  16  18  49  64  61  51  39  24  15  13  15  15  16  17  17  26  30  37  48  48  51  48  47  48  44  39  35  31  32  33  37  35  35  34  33  34  34  30  24  27  27  59  73  94 104 110 114 116  44  32  32  36  32  37  40  41  38  35  35  38  38  37  40  45  52  60  59  57  62  73  80
 131 120 102  74  55  51  49  49  42  36  32  27  26  25  22  22  24  24  22  22  20  16  20  53  65  64  58  51  41  28  16  14  14  14  15  16  20  26  32  40  45  48  46  46  43  42  40  41  38  35  39  39  38  32  31  31  34  31  28  23  24  49  74  81  95 103 110 111 105  38  28  32  32  34  36  39  39  37  35  35  34  35  34  34  39  45  52  55  55  56  58  62
  72  60  51  44  39  40  43  40  34  31  27  25  24  22  20  21  23  22  22  22  19  14  22  55  63  65  63  54  45  38  26  16  14  14  12  14  17  23  27  31  36  43  43  42  41  42  41  42  41  38  37  37  32  31  31  28  34  30  24  22  38  68  79  89  98 103 108 110  92  35  30  31  28  33  35  36  36  36  34  34  34  32  31  34  36  40  47  52  53  52  50  52
  44  43  40  36  34  35  38  33  29  27  25  24  23  20  19  20  21  21  21  21  19  14  22  52  62  63  64  61  52  44  39  31  23  15  13  13  14  16  24  26  30  33  37  38  39  42  40  40  42  38  33  31  29  28  26  29  30  25  20  25  51  75  82  90  96 103 106 106  64  32  31  30  29  29  33  33  36  36  33  35  32  29  30  31  34  37  42  48  48  48  47  49
  38  34  31  32  32  35  31  29  24  25  24  23  21  19  18  18  19  19  18  19  19  14  18  49  63  61  63  61  58  53  47  41  38  26  16  13  13  15  18  21  27  24  29  33  32  34  34  33  33  30  32  29  25  24  21  24  24  20  19  37  62  77  83  90  96 102 104  99  43  27  28  29  27  31  32  31  34  36  33  33  32  32  32  30  34  37  38  42  43  47  47  44
  33  30  30  29  30  33  29  26  24  25  24  21  20  19  18  18  18  19  18  19  18  14  17  45  61  63  63  62  61  58  55  50  45  37  29  21  14  13  16  17  20  20  24  27  27  28  29  28  28  24  30  25  20  23  16  18  17  20  37  60  70  76  80  89  95 100 101  76  31  27  28  26  31  29  32  31  31  33  32  29  28  28  28  28  30  33  36  36  36  39  43  42
  29  30  29  30  30  30  29  25  22  23  22  19  18  17  17  17  18  18  17  17  17  17  16  35  58  65  64  64  62  62  59  55  51  46  41  37  26  16  15  16  14  15  18  20  21  22  25  24  22  20  24  20  19  19  15  17  20  34  55  63  71  76  82  89  93  97  92  45  28  28  25  26  28  33  29  31  30  30  29  29  26  26  27  28  31  33  32  34  34  36  40  40
  27  28  27  28  28  26  26  23  21  21  19  18  16  17  18  18  17  18  17  15  15  16  16  26  55  64  66  66  65  61  60  57  54  51  47  42  36  27  18  14  12  12  12  14  15  18  19  17  15  14  18  18  14  16  18  26  32  48  56  65  71  77  83  89  93  94  68  33  26  27  28  25  29  27  30  30  32  32  29  26  25  25  27  27  28  30  33  33  33  34  34  35
  28  27  28  29  27  26  25  23  21  20  19  18  16  17  18  17  16  19  17  18  15  16  15  19  45  61  66  66  64  64  59  55  54  51  49  44  41  37  29  20  15  13  11  12  13  16  12  14  11  14  13  13  15  21  27  39  47  55  58  67  73  78  82  86  90  76  41  25  22  26  26  28  26  30  28  30  31  31  30  26  25  24  26  27  30  31  32  32  31  30  31  32
  26  27  26  27  26  26  25  23  18  19  18  19  16  16  16  16  17  18  17  17  16  17  17  15  29  56  64  65  63  63  62  59  55  50  48  46  43  42  41  31  22  18  16  13  12  12  11  12  13  14  16  22  27  34  40  46  50  54  58  67  72  76  82  84  76  50  28  23  22  24  23  25  27  27  28  29  30  30  27  26  24  23  24  28  30  29  32  31  30  30  28  28
  28  26  24  25  25  26  23  20  18  19  19  19  16  15  17  17  18  17  16  16  17  16  14  15  18  40  58  61  63  61  60  56  54  53  52  49  48  46  43  39  34  32  28  26  24  22  20  23  26  25  28  34  39  42  46  49  52  55  58  66  72  75  76  71  51  30  24  22  24  23  24  24  26  26  27  28  29  29  26  25  25  24  25  28  30  31  31  31  30  29  28  26
  28  25  23  20  22  25  21  19  18  18  17  17  17  16  16  16  16  17  17  16  16  16  17  15  16  20  42  54  56  58  56  55  53  53  51  51  50  48  48  45  41  38  36  34  33  31  31  32  34  34  36  38  39  44  46  49  52  58  62  66  67  71  66  49  30  23  20  24  20  25  22  26  25  25  26  28  28  28  26  26  24  24  25  26  29  28  29  29  28  28  29  27
  25  22  22  21  22  23  20  19  18  17  16  17  16  15  16  15  15  15  16  16  17  15  16  15  15  16  22  38  48  52  52  51  51  50  48  48  51  49  46  46  43  42  39  38  38  37  37  36  36  35  37  38  38  41  45  48  53  58  63  65  64  57  43  28  21  18  20  22  21  22  25  25  24  24  25  26  27  26  27  25  25  21  22  25  28  29  30  31  29  27  26  26
  21  21  21  23  22  22  19  18  18  16  16  16  15  15  14  15  15  16  18  16  16  16  15  15  13  15  15  20  31  42  45  47  48  51  51  50  52  51  50  48  46  42  40  39  39  38  37  37  36  34  35  37  38  39  43  48  51  57  58  58  52  38  26  20  21  17  21  19  22  21  24  24  24  25  25  26  27  27  24  25  24  21  23  26  26  30  30  32  30  29  26  24
