P2
# Generated by OpenCV 3.4.0
92 112
255
 151 151 152 153 153 153 154 155 154 157 158 156 158 160 159 160 159 154 144 135  88  75  86  79  62  54  48  38  35  43  47  44  45  49  59  44  35  33  36  47  48  44  48  47  45  53  58  63  59  48  45  48  58  66  61  67 108 126 105 135 148 156 165 182 178 192 192 194 195 195 197 196 196 198 199 198 198 200 202 201 203 202 203 204 204 204 204 204 204 204 205 204
 151 150 152 153 154 155 155 154 155 159 158 157 156 150 153 156 154 150 136  95  82  86  87  77  65  61  64  39  33  37  42  42  38  42  46  45  45  41  37  34  40  49  46  45  44  50  55  51  51  43  52  45  41  42  51  50  56  68  77 112 127 111 118 153 155 178 188 192 193 195 195 194 196 199 200 202 202 202 200 201 202 203 203 204 205 204 204 205 205 205 205 205
 151 152 155 154 155 155 156 158 158 156 155 151 145 136 115 110 124 107  92  82  97 120  88  57  56  59  43  40  37  37  39  41  40  32  32  36  43  51  52  50  44  36  39  45  43  44  45  50  48  44  36  37  37  34  41  44  44  50  55  71 100  87  83  99 130 145 177 188 192 194 195 194 197 198 200 202 202 202 201 202 203 203 204 202 203 204 203 204 206 205 204 205
 152 153 153 155 156 157 159 159 158 158 155 140 120 101  74  61  52  55  58  61  66 103  99  76  48  55  40  31  28  28  31  38  31  31  30  24  24  33  44  41  40  36  31  37  38  31  31  34  40  49  36  32  27  29  28  34  34  37  46  52  66  72  59  65  98  91 138 178 187 186 180 188 195 197 198 202 201 202 202 202 204 204 203 203 205 204 204 204 205 205 204 205
 152 155 155 156 156 158 157 161 158 159 151 122 107  86  86  51  43  48  45  40  47  53  57  82  57  38  37  28  27  24  21  27  31  28  29  28  22  20  23  28  27  26  28  28  28  25  25  23  28  29  32  32  25  21  23  28  31  31  35  43  58  59  50  53  71  65  70 148 165 154 129 171 193 197 199 198 201 204 202 202 203 203 204 202 203 204 205 204 204 204 204 206
 153 156 154 156 158 160 160 160 160 154 146 127  78  71  71  59  70  52  43  43  41  40  41  44  53  37  28  24  25  27  28  28  29  30  31  31  32  32  26  21  23  21  19  25  28  29  23  18  18  21  24  28  26  23  22  22  26  31  33  32  34  45  46  64  60  67  50  89 129 115  85 139 189 195 196 199 203 202 202 203 203 203 203 202 203 204 204 204 204 205 204 205
 154 154 153 158 156 159 160 159 160 158 155 144 119  77  55  63  86  66  40  34  34  43  36  32  26  29  22  20  20  17  19  20  21  22  27  31  32  33  34  32  27  26  21  20  35  42  38  30  19  17  17  21  23  23  18  18  19  25  40  29  26  31  36  46  44  46  42  72  71  79  57 106 178 191 196 200 201 198 202 202 203 204 203 203 204 204 204 207 205 204 204 204
 153 154 156 155 156 159 159 159 158 156 150 151 141  92  60  56  73  61  42  33  30  31  33  31  25  19  17  16  17  17  18  21  26  24  23  23  26  26  34  44  39  31  25  23  24  32  43  51  43  28  19  20  20  19  16  15  16  20  34  37  24  26  29  37  35  35  35  43  46  54  44 104 159 178 193 197 201 201 201 203 203 203 202 204 204 204 204 204 205 205 204 205
 152 155 154 155 157 158 157 158 157 157 157 158 146  74  67  83  69  64  37  32  27  22  25  26  24  16  17  19  18  19  22  25  27  31  29  28  26  22  24  31  35  38  41  30  22  20  26  32  40  41  37  35  28  24  19  15  15  18  18  22  26  23  25  31  31  30  28  34  33  36  46  85 133 160 190 197 199 199 201 203 203 203 203 203 204 202 204 204 205 205 205 205
 153 154 156 155 157 156 157 158 159 159 157 157 155  72  69  74  77  50  36  26  22  18  18  18  21  17  15  13  15  15  16  19  22  24  25  25  27  28  28  23  26  30  37  36  28  20  17  18  16  18  22  25  24  26  23  17  16  16  17  17  21  22  20  24  28  27  30  34  34  29  41  70  84 138 190 197 198 202 203 201 203 203 203 203 203 203 204 205 204 206 205 205
 155 155 154 157 158 158 159 161 161 160 161 155 146  60  52  54  59  51  35  23  19  17  15  15  17  14  14  14  13  15  14  13  15  16  19  20  22  25  27  25  24  24  25  26  29  28  22  18  16  15  14  15  13  15  16  16  14  14  15  16  17  21  16  20  25  22  26  30  33  29  38  59  54 128 179 188 197 201 203 201 203 203 202 203 204 203 204 204 204 204 206 204
 156 157 158 158 160 161 161 161 161 161 159 148 120  50  43  38  40  40  27  20  15  16  15  16  16  15  16  17  17  18  19  18  17  17  19  22  23  24  26  24  24  23  21  23  24  29  30  28  23  18  14  16  18  16  14  12  14  14  14  15  15  18  17  19  21  20  24  28  32  30  32  39  49  97 137 182 195 197 199 201 202 203 202 202 203 202 203 203 204 204 204 204
 155 156 158 159 160 160 163 162 161 161 148 137 108  55  35  29  27  23  20  17  13  12  13  15  16  17  17  16  16  15  18  24  24  25  25  27  27  28  29  30  30  31  26  26  27  35  34  39  44  39  28  23  24  26  27  24  18  17  15  15  16  17  18  18  19  21  21  23  26  29  29  33  46  72 103 156 183 195 197 200 202 201 203 203 201 201 202 204 204 205 203 205
 158 159 161 160 159 162 162 159 162 159 144 145 105  45  33  26  22  18  16  15  13  13  15  15  15  17  20  15  11  12  14  17  20  22  23  23  26  28  28  28  31  30  27  22  21  23  26  32  34  35  31  27  22  20  21  18  20  23  18  17  15  17  18  17  17  20  19  23  24  26  25  28  33  47  72 106 182 195 198 199 202 202 202 201 202 203 203 202 203 203 203 203
 158 160 160 159 160 163 162 161 162 160 155 145  71  37  28  24  21  19  15  15  14  14  14  14  16  19  17  13  12  13  13  15  17  18  18  17  18  20  21  18  18  20  20  21  19  18  18  20  25  29  30  33  26  25  32  37  37  34  26  17  16  16  19  20  24  23  22  18  18  23  27  27  28  38  61  81 168 193 198 200 200 201 202 201 202 201 202 202 203 203 202 202
 158 159 159 159 160 162 162 162 163 162 159 143  64  31  23  22  23  23  18  15  15  15  16  18  18  16  15  16  18  25  21  16  17  18  19  20  22  23  22  24  27  31  30  32  29  26  29  26  22  22  20  21  23  22  20  22  27  24  18  16  16  15  14  18  24  28  26  23  21  25  28  27  25  32  46  69 132 179 195 199 198 199 199 199 203 202 202 202 203 201 202 203
 156 160 162 161 161 162 163 163 162 159 152  98  33  26  23  30  21  18  17  17  18  16  17  15  16  14  16  18  24  27  32  22  18  17  18  21  23  23  22  23  19  20  20  20  19  20  21  21  21  22  21  21  20  20  19  17  17  19  17  14  15  15  15  16  18  23  24  25  26  30  31  28  26  30  37  62 110 172 183 188 196 198 199 200 201 200 202 201 202 202 202 203
 159 161 163 162 162 162 163 162 163 159 111  45  35  32  30  28  25  22  20  17  16  18  15  13  14  14  16  17  21  27  28  28  19  15  14  14  14  14  12  12  12  12  13  15  16  18  17  17  18  19  22  22  21  21  23  26  24  28  25  20  17  16  14  18  33  31  28  26  26  28  29  27  24  28  36  54 113 132 161 176 193 198 198 198 200 200 200 201 203 202 200 201
 162 161 163 164 163 165 164 164 158 118  51  39  34  31  25  22  23  23  19  16  16  15  14  14  16  15  16  19  17  19  22  17  16  13  12  12  11  10  10  10  10  10  11  14  14  14  14  16  18  21  25  27  29  30  30  28  26  31  32  28  22  20  27  32  29  26  23  26  24  25  26  23  24  26  33  52  79  81 119 152 186 195 198 197 200 199 199 202 203 202 200 200
 161 163 163 164 163 163 164 159 134  55  39  34  31  26  25  23  20  20  19  15  14  14  16  15  16  16  16  18  20  18  15  14  13  11  11  10  11  10  10   9  10   9  10  13  12  12  13  18  20  21  23  25  25  26  27  24  25  27  30  32  29  27  30  37  43  36  35  26  23  26  32  29  24  23  27  44  55  71  86 125 175 194 198 196 199 200 199 200 200 203 199 201
 161 162 163 162 164 164 163 153  94  36  33  27  25  23  23  21  19  17  16  15  16  15  16  16  17  17  21  23  22  20  16  12  11  11  12  11  10  10  10  10  11  10   9  11  12  13  14  16  18  18  16  20  19  22  23  19  23  26  36  37  37  37  40  36  43  39  35  28  25  25  27  27  23  23  29  39  56  59  82 135 143 191 195 198 198 199 198 198 199 199 198 199
 160 160 160 164 162 162 163 148  49  32  27  23  22  22  20  17  16  17  17  17  16  16  16  17  19  20  19  17  15  13  12  10  10   9  10  10  10  11  11  11  11  10  10  10  11  12  13  13  14  14  14  16  18  19  17  21  24  28  32  32  35  38  42  40  39  36  36  32  26  26  24  25  25  24  27  31  44  40  48 128 140 179 195 199 196 198 198 200 199 202 199 200
 161 161 160 162 163 163 161 113  48  29  25  21  21  18  19  17  15  15  16  16  17  17  17  16  14  12  11  10  10   9  10  10   9   9   9   9   9  10  12  12  11  11  11  11  11  11  12  12  14  14  15  17  22  22  21  22  23  25  28  28  27  33  34  36  42  33  38  37  28  24  26  21  25  22  25  32  35  35  41 110 144 168 194 196 196 196 198 197 198 200 200 199
 162 162 163 163 164 165 159 117  46  28  22  17  15  17  16  17  15  15  17  16  15  18  16  15  11  10  11   9   8  10  10   9   9  10   9   9  10   9  11  11  12  12  12  12  11  12  12  12  13  14  16  19  21  20  20  20  24  25  28  29  24  32  35  39  39  35  35  34  28  29  28  24  23  24  23  28  35  40  57 115 126 166 193 196 198 196 197 196 196 198 198 198
 161 162 164 163 164 163 153 123  42  32  25  18  15  17  16  17  15  15  15  16  16  17  15  14  10  10  12  10   9  10  11  11  12  12  13  12  13  13  14  15  15  14  15  14  14  14  13  15  16  17  19  23  24  24  25  26  29  28  29  27  32  40  47  52  49  39  32  31  29  27  25  23  22  21  22  29  40  45  70  90 111 160 191 195 195 195 196 196 196 197 197 199
 161 163 164 164 163 163 154 120  42  31  25  21  17  17  18  17  14  14  16  16  16  16  16  12  12  12  14  13  12  13  12  15  17  17  19  19  22  22  23  23  24  23  23  21  20  18  18  18  21  21  26  28  27  31  31  30  30  29  28  38  41  48  59  64  63  49  33  31  31  27  24  24  21  22  31  37  42  46  73  96 124 171 192 195 195 196 197 196 198 198 198 198
 161 162 164 162 161 162 156 134  38  27  25  23  19  16  17  16  16  15  14  16  16  16  15  12  14  16  15  15  16  16  19  22  24  27  29  31  33  34  32  32  34  31  31  32  29  27  28  29  30  33  34  35  34  36  33  30  30  36  40  48  51  51  66  72  68  47  38  35  32  27  23  24  24  28  35  52  40  49  77 115 155 176 189 195 197 195 196 195 196 196 199 197
 160 161 162 162 162 164 161 145  39  24  17  21  21  15  16  16  15  15  14  14  15  16  13  14  17  18  17  20  23  25  29  34  37  41  42  43  44  46  46  45  45  45  46  44  42  41  40  42  42  42  43  44  43  43  39  36  38  44  48  53  54  55  71  71  58  39  45  43  38  33  24  20  22  25  28  31  42  70 106 125 141 168 188 194 195 196 196 195 196 196 198 196
 160 161 161 162 165 166 165 146  40  22  16  16  20  19  15  16  16  15  15  15  15  16  14  15  19  21  22  27  30  33  38  43  48  51  54  54  53  54  54  54  54  54  55  53  52  52  50  50  50  50  48  48  46  48  46  45  47  51  50  51  54  54  54  45  39  47  49  48  43  38  28  22  20  22  26  36  47  55  86 113 139 171 185 193 195 196 196 195 196 196 198 197
 161 163 164 164 165 165 165 140  35  24  17  16  16  17  16  17  16  16  15  15  17  16  15  17  22  25  28  31  37  42  48  52  54  55  59  61  61  58  58  58  59  60  59  58  58  56  56  56  56  55  52  51  50  50  49  46  50  53  56  54  49  43  44  48  51  53  64  62  53  42  33  25  24  23  25  38  60  84 100 132 153 155 161 190 195 196 195 196 196 196 195 197
 164 165 166 166 165 165 164 112  34  26  21  16  16  17  15  15  16  15  16  18  19  16  16  22  27  31  35  42  46  48  54  57  61  61  64  64  65  63  61  61  63  62  64  64  62  60  59  61  60  57  55  54  52  52  51  51  53  55  56  56  55  53  58  65  65  66  67  68  62  54  42  29  24  26  27  35  48  64  74  79  94 112 160 189 195 195 195 196 196 196 195 197
 165 165 165 166 167 166 165  88  33  26  20  15  16  15  15  15  14  15  19  21  23  22  22  28  32  36  42  49  53  56  58  61  64  66  66  67  69  67  64  63  64  66  67  66  65  61  61  62  61  61  58  58  58  57  55  57  58  59  60  58  57  54  57  66  68  66  68  73  68  62  48  34  30  32  31  36  41  62  91 124 131 159 187 193 195 196 195 196 195 196 195 196
 165 165 166 167 167 166 166  66  30  28  22  15  15  15  15  15  15  16  22  28  33  31  29  35  42  47  52  57  60  62  63  67  68  70  70  70  70  69  68  64  63  65  67  66  66  63  63  63  64  63  64  62  61  58  59  60  61  60  67  64  63  57  59  68  71  67  69  75  70  65  51  39  31  32  30  36  38  43  72 135 167 173 191 194 195 195 195 196 196 196 196 195
 165 165 165 166 166 167 160  40  30  27  24  22  14  14  16  15  18  23  30  41  43  39  41  46  52  58  60  63  64  66  68  68  69  70  70  70  70  70  68  66  64  65  65  67  66  66  64  64  66  66  66  65  65  64  65  64  63  65  66  65  65  62  63  69  72  69  69  71  69  65  55  41  31  30  30  35  35  41  50  98 155 174 190 194 195 195 196 196 194 195 197 195
 166 166 167 166 166 166 148  38  29  25  24  22  18  16  16  17  22  29  39  52  60  61  57  58  63  65  66  67  68  71  69  68  70  71  70  71  72  70  68  66  68  67  69  71  68  69  69  67  69  68  67  68  67  67  66  66  66  66  68  68  65  64  64  70  71  68  67  69  69  66  59  45  30  26  29  33  37  42  43  62 106 159 188 195 196 196 196 196 195 195 196 197
 165 166 167 166 166 165 149  40  27  23  22  19  18  17  17  18  24  33  45  54  65  68  70  70  70  69  69  70  68  70  70  71  71  71  72  73  73  71  70  71  70  68  69  70  71  72  72  72  71  69  70  69  69  69  67  66  69  70  70  69  64  64  64  68  73  70  69  69  71  67  57  42  28  24  25  27  43  38  39  69 153 187 191 195 194 196 197 195 196 195 196 196
 167 166 166 166 169 168 159  39  28  24  23  18  19  20  18  20  25  33  46  56  66  70  71  71  71  69  71  72  71  73  72  71  75  74  77  74  74  73  74  73  72  70  72  72  74  76  75  74  73  72  73  72  71  72  71  70  72  73  73  72  68  67  69  70  72  73  71  70  72  67  57  39  25  22  22  24  38  43  61  54 154 189 195 195 196 196 196 194 196 195 195 198
 167 167 166 167 168 168 161  38  28  24  25  22  24  19  18  19  24  32  44  55  66  73  72  71  70  72  72  69  70  73  73  74  75  74  76  75  78  77  76  75  76  76  77  79  80  82  81  82  81  79  76  74  73  72  71  73  76  79  77  74  71  70  70  71  73  75  72  71  73  70  59  38  24  19  19  23  30  45  90  72 169 192 195 193 195 195 196 196 197 196 194 196
 168 168 167 169 168 168 164  41  27  23  21  24  19  16  17  19  22  30  43  56  65  72  76  73  72  72  73  73  73  74  77  78  79  79  79  82  82  83  82  83  83  86  86  87  87  88  90  88  87  88  84  81  80  77  77  73  80  86  83  78  76  76  74  77  79  78  76  72  74  71  58  37  22  18  19  22  25  45  86 131 177 195 196 193 195 196 197 197 195 197 196 196
 169 168 169 168 169 169 164  47  26  23  19  23  16  16  17  18  23  30  41  52  66  73  77  72  72  73  73  75  74  78  83  84  82  85  88  88  89  88  87  90  91  93  93  93  94  92  95  92  91  92  88  87  85  85  81  81  90  90  86  82  81  82  81  83  85  84  82  78  74  72  60  40  22  18  19  20  24  46 106 183 192 195 197 196 196 196 195 196 196 196 197 197
 168 168 170 170 169 169 167  53  26  24  22  21  16  16  16  19  22  28  36  49  63  72  75  74  73  73  73  76  79  84  85  86  82  87  91  95  95  95  92  96  97  98  97  95  95  93  92  90  91  91  90  88  88  91  91  96  97  95  90  85  85  87  85  89  91  91  88  81  74  71  60  39  22  18  18  21  25  48 141 189 194 194 196 197 196 196 197 198 197 196 197 195
 167 168 169 170 168 168 166  72  28  23  22  22  16  16  18  17  23  28  37  49  63  70  73  75  72  74  76  80  84  86  88  90  91  93  96 100 102 100  95 101 102 100 100 100  96  92  91  90  91  92  91  92  92  93  95  96  98  95  94  89  89  87  88  93  94  95  92  85  78  74  67  41  23  18  18  19  27  62 167 191 193 196 196 197 196 196 199 197 198 196 196 196
 167 168 170 170 169 168 166  87  29  24  20  20  16  16  16  17  18  25  33  50  64  70  74  76  76  78  79  80  86  89  92  92  96  99 102 102 102 105 103 104 101  97 102 102  98  97  96  95  94  94  94  95  94  94  96  94  94  92  89  90  85  86  87  92  92  94  96  89  82  75  67  42  23  20  19  20  26 108 185 192 194 196 198 197 198 198 198 197 196 197 196 198
 168 169 171 170 172 170 167 112  26  23  18  20  17  17  16  16  19  23  33  51  66  70  73  75  78  79  79  84  86  91  91  91  93  95  95  96  99 103 100  99 102 103 102  98  98  99  97  98  96  93  94  97  95  94  91  90  87  84  82  80  79  81  82  84  90  94  95  94  86  78  68  49  27  21  22  25  37 172 192 194 195 196 199 200 198 198 198 198 195 196 196 196
 169 169 170 170 172 171 169 145  37  23  18  20  18  17  16  14  18  23  35  52  66  74  74  75  78  79  83  84  87  88  89  91  93  91  92  92  93  94  92  93  94  94  95  97  91  95  97  97  96  95  94  91  89  89  88  89  87  83  79  78  76  76  78  81  86  91  95  95  90  84  74  57  34  20  23  27 109 189 194 197 196 195 196 196 198 198 197 196 196 195 196 196
 170 170 170 170 172 173 172 163  59  23  16  17  18  17  17  15  17  26  38  57  67  72  75  79  81  83  84  84  87  87  84  88  86  85  83  85  85  84  84  84  85  84  82  88  93  94  95  91  91  87  84  83  83  85  82  79  81  76  72  71  71  71  74  76  80  82  85  87  91  86  77  60  38  22  23  51 178 188 194 196 196 197 196 197 198 196 196 195 196 196 196 196
 170 170 171 172 172 172 173 168  85  24  15  16  16  17  16  16  18  29  45  61  69  74  76  82  83  84  86  86  85  85  82  80  77  76  74  73  72  73  74  76  75  76  78  78  81  83  82  83  83  78  80  79  77  77  75  71  68  68  66  65  63  65  65  65  63  66  68  64  62  70  72  61  42  23  24  90 181 191 195 194 197 196 195 196 198 198 197 195 194 196 194 194
 171 169 172 171 172 173 174 169  90  25  17  16  17  18  16  15  19  35  52  65  72  77  79  84  85  83  77  75  74  74  72  68  67  68  66  64  64  67  68  68  68  74  74  70  70  72  74  76  76  75  72  69  66  69  68  62  61  61  58  56  54  54  51  45  42  39  41  38  34  37  48  52  40  23  27 125 182 191 194 195 198 195 195 196 197 197 198 196 196 194 195 195
 168 169 172 172 172 173 173 167 117  23  18  16  18  17  14  15  22  39  57  67  74  78  83  82  74  56  51  48  49  49  51  51  49  48  50  50  54  56  55  58  62  66  64  65  63  65  66  70  69  68  68  59  54  59  57  57  57  51  46  44  40  34  31  29  25  24  26  25  23  25  29  35  36  25  29 126 185 191 193 196 196 197 196 197 197 196 196 195 196 196 194 195
 169 172 171 172 173 173 172 168 107  26  18  17  19  15  13  15  23  42  61  71  75  76  73  64  41  34  33  31  28  28  28  29  27  28  29  33  36  40  45  46  53  57  58  60  54  56  58  66  68  65  63  61  56  47  50  50  46  36  27  23  22  22  21  21  19  18  19  20  21  21  24  26  29  24  43 173 187 195 196 195 196 196 195 196 195 195 195 194 195 194 193 193
 172 171 173 173 173 171 172 169 115  32  22  20  17  14  12  16  24  47  63  72  75  66  46  36  28  22  20  20  19  19  19  19  17  18  19  20  22  24  28  31  38  43  48  51  54  50  51  64  70  68  65  62  54  39  40  35  32  24  19  17  16  16  16  17  17  17  19  21  21  23  26  26  30  25  52 141 180 192 196 196 196 195 195 195 195 195 194 194 194 195 195 195
 170 170 172 173 173 172 172 168 131  33  26  23  17  15  14  16  26  50  65  78  75  45  32  25  24  18  20  21  20  18  17  16  15  16  14  14  14  15  17  18  21  28  30  33  41  50  53  65  71  68  64  56  50  37  32  27  24  19  16  15  16  17  17  20  23  24  24  24  26  27  31  32  37  29  50 115 170 193 196 196 195 195 196 195 196 196 194 195 195 195 195 195
 169 168 172 172 173 171 171 166 133  45  27  21  16  13  15  16  26  55  71  77  60  37  27  24  24  21  23  23  21  20  19  17  16  15  14  15  14  13  14  14  16  17  20  23  31  36  47  61  78  72  71  59  48  32  29  23  18  18  16  18  22  24  27  31  34  34  33  34  35  34  35  38  49  31  53 140 187 194 195 195 194 195 196 195 194 195 194 193 195 195 194 195
 169 169 169 171 172 171 171 156 109  70  36  22  16  14  16  17  27  61  75  72  61  35  28  28  29  29  29  29  30  31  31  30  28  24  24  21  21  19  17  16  16  16  18  21  26  38  49  62  77  78  71  66  53  36  25  22  23  22  20  20  20  24  28  34  35  34  32  33  35  42  43  48  65  36  69 176 187 193 193 195 194 194 195 194 194 194 194 193 194 192 193 193
 171 171 169 169 172 171 170 127  86  78  49  26  20  17  16  16  32  64  76  68  51  37  34  34  35  39  41  39  36  35  34  33  30  27  24  21  18  17  17  19  21  21  22  24  26  37  54  69  73  82  79  74  63  39  28  28  24  19  18  20  22  25  31  41  44  40  39  35  32  38  44  53  76  48 106 180 187 189 193 194 194 193 194 193 194 195 193 192 192 193 195 193
 171 170 169 170 170 171 170 132  51  54  51  30  28  24  17  17  34  67  82  70  58  47  42  41  44  45  41  38  36  39  40  39  38  35  30  24  19  17  16  16  16  22  24  28  30  40  62  77  82  95  98  92  80  45  31  26  23  22  22  22  20  18  18  19  21  25  30  34  36  41  47  56  77  64 113 182 190 190 192 192 192 193 192 193 193 194 194 192 192 193 192 191
 171 170 169 171 170 170 171 138  52  45  53  41  34  26  17  17  41  74  83  73  60  51  48  47  46  37  43  47  46  45  40  33  27  21  19  16  15  15  18  18  19  20  24  29  34  45  66  88  89 102 111 111 102  53  32  28  25  22  22  24  18  13  12  16  14  19  19  19  26  38  48  58  79  77  90 181 188 189 190 190 191 192 193 193 193 193 193 191 191 191 191 191
 170 171 170 171 170 170 170 149  46  49  63  54  41  28  16  19  47  81  88  79  69  61  53  50  45  47  50  45  35  26  22  16  12  10  12  12  13  19  16  15  17  21  26  30  35  46  71  96 112 123 127 127 116  63  35  28  25  23  25  28  24  15  14  17  17  29  29  25  23  34  50  66  83  87  70 166 186 188 190 190 190 191 192 193 193 193 192 191 190 190 191 191
 170 170 169 170 170 170 168 153  49  58  70  56  54  32  18  21  53  83  88  82  74  65  59  54  48  40  30  22  20  23  33  23  12  11  12  12  15  24  19  16  16  21  28  34  38  45  73 102 117 133 141 143 128  82  40  34  31  26  25  29  29  19  15  18  26  30  30  31  38  46  59  75  88  91  65 116 184 187 188 189 190 190 192 192 191 190 192 191 190 189 190 191
 169 170 169 170 169 169 169 142  51  66  73  65  62  39  20  21  63  86  88  85  76  68  62  55  48  38  28  24  25  29  37  33  15  12  12  13  22  24  23  23  25  28  31  37  42  49  74  99 117 140 151 151 141 103  44  37  33  30  29  30  32  31  30  30  32  31  33  38  48  56  73  87  95  93  63  83 184 187 188 189 189 190 192 190 189 190 190 189 188 186 187 188
 169 168 170 170 170 168 167 121  59  77  70  59  45  43  22  26  67  86  89  90  81  74  65  60  57  50  43  41  33  30  30  30  28  22  23  25  28  28  25  26  28  30  34  43  48  60  79  95 111 138 154 154 148 110  58  38  35  34  34  33  33  33  32  32  32  36  37  45  56  67  85  95  99  93  60  74 168 187 188 188 189 191 190 190 189 189 190 188 189 187 188 188
 169 168 169 169 171 169 167 135  72  73  58  41  30  30  28  28  67  88  88  92  89  82  73  66  62  59  51  50  41  36  32  29  30  29  28  28  29  27  28  31  32  31  40  50  57  71  81  90 107 133 155 156 148 116  71  47  40  41  41  41  38  37  36  36  37  40  44  54  64  76  92 100 102  95  61  78 162 184 186 188 187 188 189 190 188 188 188 186 188 188 188 188
 167 169 169 169 170 167 167 155  82  66  50  38  29  28  32  29  73  87  89  93  92  87  79  70  66  63  57  52  46  42  36  32  31  30  30  31  32  35  38  35  34  38  48  58  71  78  84  90 101 122 148 153 140 118  80  53  47  46  46  49  47  49  47  47  49  51  57  62  70  88  98 101 100  95  69 105 159 183 187 188 186 187 187 189 188 188 188 185 186 186 188 187
 169 169 170 169 169 168 168 163  89  58  44  35  31  37  48  34  72  87  91  92  94  91  84  76  69  66  60  56  52  47  42  40  37  38  40  44  44  44  45  43  43  49  58  67  78  82  87  91 100 113 134 142 133 118  87  62  52  52  51  51  53  53  54  57  60  62  65  68  76  92  99  96  95  92  89 128 163 181 186 187 186 187 187 187 187 187 187 187 185 185 186 187
 168 167 169 170 169 168 167 163  92  58  42  35  35  44  46  33  72  87  91  92  98  92  86  83  77  74  72  66  64  61  58  56  54  54  53  54  51  50  51  51  54  59  68  74  83  84  85  90  99 106 125 142 138 120  94  66  54  55  55  56  54  55  57  61  62  64  65  68  78  90  91  90  88  87 102 124 176 181 183 185 186 186 186 187 186 185 185 186 183 185 184 185
 168 167 169 168 168 168 167 165  97  60  46  39  41  48  46  34  64  84  86  91  95  94  91  88  86  82  78  72  70  68  67  64  61  58  55  54  53  55  60  63  66  70  74  78  82  82  85  90  96 106 123 143 136 119 100  72  60  59  59  62  61  62  61  62  62  61  64  67  80  85  85  81  78  81  97 142 176 181 182 183 186 186 185 185 186 186 187 186 185 184 185 184
 167 169 168 167 167 167 168 165 110  72  53  46  45  52  47  36  60  84  85  86  90  93  92  90  89  84  80  72  70  67  66  63  61  58  57  60  62  65  69  70  70  74  78  81  83  82  82  88  94 104 121 140 135 120 102  78  63  63  63  64  65  64  62  64  63  62  63  69  74  72  73  72  72  75  89 146 180 183 182 182 185 184 185 184 186 187 185 185 184 184 186 184
 166 167 166 168 167 169 169 167 127  89  73  53  46  50  44  37  58  83  84  82  84  89  90  91  89  88  82  73  71  63  64  63  65  64  63  68  68  72  74  74  74  75  79  82  83  83  84  90  96 102 116 133 138 124 110  84  68  67  67  68  68  66  66  66  66  66  66  69  67  68  68  66  65  69  77 152 180 184 182 182 183 184 185 185 183 184 186 185 184 184 184 183
 167 167 168 167 167 169 168 168 159 101  87  75  66  51  39  34  53  79  80  79  79  83  84  86  87  85  84  80  73  69  68  67  66  66  69  73  78  80  77  75  74  78  80  83  82  82  84  91 103 113 119 134 140 131 122 108  70  68  69  70  70  70  70  70  69  71  69  66  62  62  60  56  57  63  80 166 181 182 181 181 183 183 185 185 183 183 185 186 184 183 183 182
 167 167 168 167 167 168 168 165 164 132  84  88  81  56  37  33  49  73  76  75  76  77  80  78  79  79  80  76  75  70  70  72  73  71  73  78  82  81  79  80  81  82  84  83  82  83  86  98 112 123 127 138 141 133 127 126  85  71  71  72  73  73  73  71  72  71  71  69  65  57  52  52  54  61  91 170 180 181 183 182 184 184 183 184 183 182 184 184 183 184 183 181
 168 168 167 168 169 167 168 168 167 160  88  85  80  68  47  35  43  66  75  72  71  73  72  72  73  74  73  69  68  70  70  75  74  71  72  78  84  82  79  83  83  85  86  82  83  83  87 104 114 121 129 132 129 129 132 131 116  73  72  75  75  76  74  74  73  72  72  71  65  56  51  53  54  66 100 174 179 183 183 183 184 183 183 185 183 183 183 182 182 184 184 183
 168 166 167 168 168 168 168 168 167 163 119  84  74  64  48  34  35  60  71  68  65  64  66  64  65  66  68  67  65  69  72  76  75  79  81  85  88  85  84  84  84  83  78  77  80  81  89 106 115 121 126 129 122 123 128 130 126  89  72  74  76  78  77  78  77  76  76  72  66  59  54  52  56  64 115 175 180 182 184 184 184 184 183 183 183 183 182 182 183 184 184 183
 166 167 167 167 167 168 168 168 168 166 157  87  74  61  46  32  31  55  69  67  61  62  61  62  62  62  63  67  66  68  73  77  82  86  90  88  88  86  85  85  82  75  71  76  83  86  94 109 113 116 122 128 125 123 128 130 127 111  75  77  80  81  82  83  78  72  73  73  67  64  54  52  56  67 152 178 182 182 183 184 183 183 182 183 183 181 182 183 182 182 184 185
 168 167 169 168 168 168 167 168 168 167 164 115  82  72  54  36  30  50  67  66  56  56  56  59  59  60  61  65  64  65  71  77  84  88  89  88  87  84  84  81  75  68  68  86  97  92  96 105 107 110 121 128 128 129 131 129 123 118  82  76  80  81  83  86  83  80  73  72  70  64  56  56  62 130 172 181 181 181 184 181 183 184 183 184 181 182 183 182 182 182 183 184
 167 165 167 169 167 168 168 168 169 168 168 142  88  78  64  46  33  46  62  60  51  56  56  60  53  57  58  59  63  65  71  80  83  88  86  85  86  84  82  75  67  64  75  97  98  94  94  99 100 106 115 124 123 123 124 124 121 112 105  82  79  79  82  87  91  88  79  69  70  63  57  60  81 154 177 181 182 182 183 182 183 183 182 183 182 183 183 182 182 182 183 183
 168 166 167 166 165 168 168 167 168 169 169 162  95  80  69  57  42  49  57  58  53  58  59  56  52  56  56  60  67  70  77  81  82  85  84  84  85  82  79  71  62  62  85 100  96  93  89  91  96 100 110 113 113 110 110 112 109 103 100  99  79  82  80  86  90  89  85  77  72  63  61  61  86 162 177 182 182 183 184 183 182 184 182 182 182 181 182 181 182 182 182 182
 166 166 167 167 167 168 168 168 168 169 167 165 137  75  64  54  47  58  60  64  61  61  57  53  54  60  59  66  71  78  84  81  83  84  84  85  80  77  74  63  55  59  90  97  93  82  77  78  80  83  90  95  95  95  95  97  89  80  84  90  76  82  83  84  92  94  89  79  73  69  65  60  93 167 180 182 181 182 183 183 183 184 183 184 183 183 183 182 183 180 181 181
 165 166 165 166 166 167 167 167 167 168 166 168 166 142 105 107 132  66  58  62  64  58  57  55  57  59  54  65  75  78  82  84  82  84  84  82  79  75  69  59  52  56  85  86  80  70  61  56  58  64  73  76  78  75  77  78  67  59  65  77  77  81  82  84  89  92  86  82  73  67  62  58  89 163 180 182 182 183 184 184 182 183 184 183 182 182 183 182 182 181 181 181
 166 166 167 167 166 168 169 168 169 168 168 169 167 166 165 165 155  76  55  61  63  55  54  53  58  60  65  74  78  78  77  79  82  80  80  79  76  69  58  54  55  56  74  68  59  53  43  47  53  59  65  59  60  59  61  62  53  42  50  74  81  82  83  80  87  89  85  81  73  64  60  60  99 176 182 183 183 183 183 182 182 182 183 182 182 182 182 182 183 183 182 183
 168 167 167 168 166 167 169 168 167 168 168 169 168 168 168 167 160 100  56  60  60  54  50  51  59  57  67  73  76  76  75  76  79  79  77  72  69  62  54  55  61  57  56  47  33  29  26  30  46  53  55  50  49  48  52  52  41  46  55  73  87  87  85  87  92  90  86  78  69  63  58  56 128 176 182 182 182 183 182 184 183 182 182 181 182 182 183 182 181 182 181 180
 166 165 166 167 167 168 168 168 169 168 168 168 168 169 169 169 165 118  56  55  54  52  50  51  56  54  65  69  70  72  73  77  78  76  74  70  64  58  59  66  69  69  48  39  32  33  33  35  38  46  49  46  44  44  47  40  31  45  54  76  87  89  89  88  89  88  82  74  66  63  58  53 129 178 182 183 182 182 183 182 183 184 182 183 183 182 183 182 183 182 181 180
 165 166 166 167 167 170 167 167 168 168 168 169 168 168 168 168 167 134  58  52  53  52  46  48  52  53  61  64  64  68  71  72  72  74  71  65  62  62  66  72  73  73  52  42  37  35  34  35  34  38  46  42  41  41  40  32  32  42  53  80  86  87  88  89  88  86  82  71  66  64  54  45 156 179 181 182 181 182 183 182 182 183 183 183 183 183 184 182 183 181 182 182
 165 167 166 166 166 167 167 167 168 168 168 169 167 167 168 169 165 148  75  49  50  51  50  49  48  56  61  62  62  64  67  72  70  69  67  63  65  69  74  78  76  77  55  43  36  31  32  34  31  32  34  33  34  35  34  31  31  40  52  68  76  78  73  75  79  81  77  70  61  60  47  50 165 179 182 181 182 181 183 184 184 182 183 182 184 183 181 181 181 181 182 182
 163 165 165 166 166 166 164 167 167 168 168 168 168 168 168 167 167 160  95  52  49  47  49  46  48  54  57  58  61  59  61  66  66  65  64  65  68  71  74  76  75  67  49  39  38  34  31  30  30  29  28  25  28  30  32  31  32  36  46  59  68  70  63  67  64  70  73  68  59  53  43  60 173 179 181 180 180 180 180 182 182 182 183 182 181 182 181 181 180 180 180 180
 164 164 165 165 166 165 165 165 166 166 165 166 167 168 167 167 168 164 126  52  51  46  44  49  48  50  53  55  54  58  60  63  64  64  65  67  68  71  67  68  67  61  48  38  36  34  35  29  29  28  26  25  26  29  32  33  32  35  43  46  55  62  62  59  60  60  66  64  54  51  40  91 172 179 180 181 181 178 180 182 182 181 180 182 182 181 181 179 182 181 181 179
 163 164 164 163 165 166 166 166 166 165 165 165 167 168 166 168 166 164 151  60  52  46  44  48  44  49  50  51  52  54  60  63  65  65  60  58  61  65  61  57  56  54  45  36  34  36  34  34  30  28  25  24  25  28  31  31  33  39  38  40  51  53  56  56  60  57  55  59  52  48  39 110 174 177 178 180 180 180 181 180 178 180 181 182 180 178 178 180 182 180 178 178
 163 163 164 164 164 166 164 166 166 166 167 166 166 168 167 168 166 165 163  90  49  45  43  44  42  43  44  48  50  52  58  63  62  60  53  54  55  52  51  45  44  45  40  36  33  35  33  30  30  28  23  21  22  26  31  32  37  40  37  42  53  49  49  47  51  49  48  54  50  43  38 148 175 179 178 178 178 179 179 177 180 180 179 180 178 178 179 179 179 179 177 177
 165 164 164 164 165 164 164 164 164 165 166 164 165 167 165 166 165 165 162 137  45  48  45  45  42  40  43  43  49  52  56  61  55  53  52  51  49  47  44  37  39  39  38  38  35  33  32  30  31  29  24  23  24  30  31  35  40  46  43  43  50  45  45  45  45  46  45  53  48  40  47 156 175 177 176 177 178 177 178 177 176 177 176 177 178 178 178 178 177 176 177 176
 163 162 163 161 163 164 164 165 163 164 164 165 165 165 165 164 166 165 166 161  64  48  46  44  43  42  48  48  50  53  56  57  48  47  51  46  43  44  39  39  40  41  42  44  43  41  38  34  34  31  30  28  30  36  40  45  45  47  45  46  47  42  40  38  39  39  46  50  45  40  70 169 175 176 176 176 176 176 176 177 177 176 176 175 176 176 176 177 176 177 176 176
 162 162 162 161 161 162 163 163 164 164 164 164 165 163 165 164 164 164 163 161 104  43  46  44  43  42  47  45  49  50  55  54  44  44  49  44  39  38  33  38  39  40  41  45  46  45  44  43  41  42  43  42  43  44  42  39  38  35  33  34  36  32  30  32  35  39  48  50  46  43 106 170 174 176 175 175 175 175 175 176 175 176 177 176 176 176 176 176 175 176 175 175
 159 161 161 163 160 162 161 162 163 164 162 163 162 163 163 164 162 163 163 163 150  50  45  44  44  44  44  45  49  50  54  52  42  42  42  40  34  31  30  33  34  36  37  38  37  37  35  36  39  40  46  47  42  38  35  32  30  30  29  25  28  33  30  33  40  43  48  49  39  43 137 172 173 174 174 175 174 176 175 176 175 175 175 174 175 175 176 174 174 176 175 175
 158 158 160 161 160 160 161 161 159 161 161 163 162 163 163 163 163 163 163 163 157  89  46  43  44  43  38  38  46  50  54  52  41  38  35  31  26  19  19  20  24  25  27  28  26  28  27  28  29  29  33  36  33  30  26  22  25  27  28  30  37  41  40  37  39  41  45  43  38  54 156 169 172 173 172 173 174 175 175 174 174 176 175 175 174 175 175 175 174 173 173 174
 159 158 159 159 159 159 158 160 159 159 161 161 161 162 162 163 163 160 162 161 160 139  40  40  40  43  39  37  44  50  52  52  42  37  33  29  21  18  22  21  20  20  24  24  21  18  18  18  21  20  19  21  21  22  25  30  34  36  35  36  45  47  44  41  37  39  42  38  39  70 138 155 167 173 172 172 173 174 172 172 174 175 174 174 174 174 174 173 173 172 172 173
 156 156 157 158 160 159 158 157 157 158 160 160 161 159 161 162 162 160 161 159 160 158  77  43  38  41  41  40  43  48  50  51  44  36  32  28  24  26  30  33  29  30  32  33  33  33  28  25  22  21  21  23  26  31  37  40  40  40  38  42  46  45  45  44  36  36  40  36  36  69  88  97 114 131 152 164 170 170 171 171 172 173 172 172 172 173 174 172 172 170 171 171
 155 155 156 157 158 156 156 158 157 157 157 156 159 159 160 159 160 158 159 158 160 157 120  46  37  36  40  38  40  44  48  49  42  35  31  31  30  31  36  40  39  37  34  37  37  38  39  36  34  36  36  37  35  37  43  39  38  41  43  47  46  43  44  40  34  32  39  34  31  44  56  64  77  91 108 118 136 156 167 168 168 170 170 172 170 171 171 171 172 171 171 171
 156 154 155 156 156 156 155 157 158 157 157 156 156 157 158 156 158 157 156 157 157 145 118  56  34  34  39  36  38  40  44  47  42  35  33  32  30  33  35  41  43  45  40  40  42  42  38  37  42  44  42  42  40  41  41  42  40  40  44  45  43  44  44  40  33  30  33  27  26  31  35  35  48  66  84 102 111 116 129 154 166 168 170 169 170 170 170 169 170 169 169 169
 155 153 155 155 154 156 155 155 155 155 156 155 155 156 157 156 156 156 156 156 134  77  66  53  33  30  32  31  35  37  42  43  38  35  34  32  33  34  36  38  41  44  43  44  43  41  37  36  38  42  42  42  40  38  40  43  42  43  42  40  42  44  41  36  29  28  27  25  26  28  29  31  38  46  60  80  90  96 100 105 145 166 167 168 168 169 167 168 169 168 169 166
 153 153 152 154 154 155 155 155 154 154 155 156 156 155 155 155 155 153 139 106  78  63  54  44  38  28  29  29  32  34  37  37  33  31  30  31  31  33  36  36  35  36  37  42  43  40  36  35  36  36  37  38  38  38  42  43  40  37  35  38  43  43  40  33  27  26  33  48  26  29  27  27  32  35  48  70  74  83  95  93  98 144 165 167 167 166 167 167 167 166 168 168
 152 153 152 151 154 153 153 154 153 154 154 154 154 154 155 156 154 144  63  62  64  52  45  41  42  40  26  28  28  30  35  34  34  30  28  28  29  30  34  33  34  36  34  34  35  36  35  34  35  35  35  35  33  34  34  32  31  34  36  40  41  42  38  35  28  26  47  81  85  59  32  29  29  33  44  67  78  84  97  93  87 108 141 157 164 167 166 165 164 166 166 166
 152 151 151 150 153 152 153 154 152 150 152 153 153 152 153 153 150 105  49  52  57  49  38  35  34  55  33  24  26  29  30  31  30  26  26  25  27  30  35  35  36  35  32  30  28  28  27  27  21  18  18  19  20  21  24  26  31  36  40  41  38  38  39  33  28  28  40  61  80  88  75  35  30  30  43  61  85  93  94  91  84 105 120 136 143 159 164 162 163 165 163 163
 149 149 149 150 150 150 153 152 152 151 152 154 152 152 150 148 114  75  47  55  58  53  43  34  27  53  47  30  24  27  28  27  28  28  25  23  27  30  35  36  34  36  31  30  26  24  23  20  14  14  15  16  17  19  22  28  36  39  41  42  41  38  34  31  28  36  33  43  55  64  76  88  51  28  34  52  81  96  95  94  90 102 113 124 130 137 157 161 162 162 162 161
 148 149 150 149 147 148 151 151 150 149 149 152 152 149 131  96  74  62  47  51  56  49  44  32  21  47  52  42  31  27  26  26  29  27  23  23  24  29  30  32  36  35  34  31  29  25  21  17  15  17  18  18  17  20  25  28  38  41  43  41  39  36  34  28  30  81  67  30  35  46  61  77  91  49  27  39  77  89  98  95  99 105 104 102 114 125 140 156 160 159 160 159
 147 148 148 149 148 147 150 148 143 140 146 148 142 112  87  71  66  61  44  50  49  49  42  29  16  46  54  46  38  34  26  24  26  23  25  23  24  27  27  29  32  35  35  34  30  28  22  19  19  22  20  19  20  24  28  30  37  38  38  34  31  32  27  24  44 110 130  80  27  34  46  56  71  91  48  31  54  86 100  98 100  97  99 106 110 114 120 132 145 150 153 158
 148 148 147 147 146 148 147 128 113 108 113 104  97  84  68  69  67  53  37  50  50  43  41  29  16  47  55  49  39  36  32  28  21  21  22  23  24  24  24  24  28  30  34  35  33  29  23  22  21  24  23  22  23  25  26  28  33  37  35  28  25  28  21  32  49 116 113 148  69  28  33  43  54  75  87  40  44  78  94 105 106  91  80  93  92 113 123 126 126 122 132 149
 145 144 144 144 147 146 138  96  97  93  87  82  76  65  67  61  48  44  32  51  47  39  40  26  19  51  54  50  42  36  34  32  28  23  22  23  21  22  26  24  26  29  34  33  29  26  24  21  18  25  24  23  23  26  23  29  32  33  32  27  24  21  25  42  57 109 121 122 158  56  27  36  44  61  76  74  33  63  83 101 108  99  76  88  91 106 115 128 131 127 127 105
 141 143 143 144 144 142 117  78  81  83  80  79  71  61  62  58  54  46  36  50  50  44  41  28  19  50  56  51  44  39  34  35  35  31  22  20  18  18  23  25  24  27  28  28  28  28  28  25  21  26  26  23  24  22  22  24  30  32  29  27  24  25  33  46  63  99 121  98 154 123  43  33  43  48  60  72  58  46  69  97 109 105  65  76  92  97  99 116 123 122 116 126
 135 129 126 123 126 121 102  76  69  84  81  85  70  61  59  58  55  47  36  52  52  43  38  27  18  46  57  52  49  43  37  36  34  35  31  22  18  19  20  23  23  27  29  26  26  27  29  26  21  19  20  20  18  17  19  22  27  28  24  23  24  34  42  50  64  93 115 112 131 162  76  43  45  48  51  68  85  42  70  86 105 107  66  57  85  97  95 115 112 127 113 115
  85  86  87  91 106 102  96  83  62  69  75  74  71  68  63  57  54  47  37  49  50  43  38  29  17  45  56  55  52  45  40  37  36  36  35  32  27  19  18  21  25  26  24  23  24  25  26  21  19  18  20  17  17  18  17  21  24  23  21  22  34  41  46  53  65  91 109 124 101 166 125  53  45  53  49  63  89  58  68  91 100 103  71  52  76  88  97 108 113 109 122 117
  83  86  94  92  98  94  88  87  73  66  74  73  67  63  61  60  49  40  32  46  51  38  37  32  18  43  55  55  52  45  42  40  38  37  37  38  35  29  19  16  19  20  22  22  22  23  22  22  21  17  17  17  15  18  18  19  18  23  26  35  39  45  48  55  68  87 106 118 104 156 161  78  48  61  52  61  81  72  56  89  98 105  77  50  68  85  95 101 108 103 100 109
 100  99  98  97  94  90  92  87  80  62  69  74  75  68  65  56  54  41  38  50  56  43  40  33  19  39  51  56  52  47  43  40  40  40  40  40  38  37  33  27  22  21  22  22  20  19  19  20  16  17  14  17  15  14  17  17  25  30  34  38  43  47  50  58  70  88 104 116 120 136 171 130  49  62  65  67  76  82  52  84  99 101  90  51  61  83 101 103 101 106  96 100
 106  95 103  92  87  87  87  89  77  67  58  76  79  69  63  59  54  44  44  46  51  48  44  36  22  32  49  53  52  49  45  42  38  40  40  41  40  36  35  33  32  26  23  19  18  16  16  16  13  12  13  14  13  16  21  28  34  35  37  39  45  47  51  59  69  87 104 115 125 118 174 167  68  62  76  79  84  88  56  71  90 103  97  53  57  80  95 106 100 104  94  97
  94  85  92  81  83  91  84  86  80  72  56  69  75  74  59  48  47  45  50  53  61  54  48  39  21  24  43  52  52  50  46  44  41  39  40  41  41  37  35  33  32  30  26  24  23  19  16  17  16  15  15  20  21  28  33  34  37  38  42  44  46  49  52  62  72  89 100 111 122 115 161 172 113  56  76  82  88  88  62  71  95 104 101  60  59  82  89 100 102 100  90  95
