P2
# Generated by OpenCV 3.4.0
92 112
255
 154 154 154 154 155 155 156 157 154 146 128  80  56  54  72  83  55  38  33  32  43  48  33  28  30  22  18  17  18  20  22  24  26  24  26  25  29  36  40  36  29  24  20  26  37  47  51  36  24  22  24  24  21  18  20  24  41  42  30  36  42  58  66  67  65 139 144 126 124 182 192 191 192 193 194 194 195 196 196 196 197 196 198 196 197 199 196 198 199 198 197 199
 154 154 154 154 155 158 160 156 155 146 144 128  60  46  57  76  70  38  30  26  25  38  49  22  18  18  17  18  19  22  25  28  33  29  29  27  23  24  32  34  39  40  26  22  22  25  30  39  39  38  34  27  22  17  18  21  27  41  31  31  33  46  54  48  62  92  94  91  84 172 189 191 192 194 194 195 196 196 195 195 197 197 197 197 196 198 199 199 199 200 196 198
 154 155 153 156 156 158 158 158 154 156 154 154  57  56  49  59  52  35  26  24  19  24  36  30  17  15  14  15  16  16  19  22  26  27  27  29  29  26  22  24  32  38  36  26  18  18  17  18  21  25  27  29  26  20  16  18  19  21  28  26  26  33  39  38  45  72  62  61  57 158 174 189 192 193 193 194 195 197 195 196 196 197 196 198 197 197 196 197 198 197 199 200
 154 154 155 158 157 158 159 159 159 158 153 143  54  52  61  54  44  34  24  21  16  18  25  24  17  15  15  15  16  14  13  14  15  19  22  27  28  27  28  25  25  26  28  31  28  22  18  18  15  16  16  17  18  19  17  16  17  19  20  26  21  26  30  31  36  50  46  45  63 133 153 180 191 192 193 194 195 196 195 196 195 195 197 198 195 197 199 199 198 199 197 200
 155 155 158 156 157 158 159 160 161 159 156 122  51  50  58  65  45  39  24  18  17  16  19  19  16  16  17  18  19  21  21  20  17  21  22  21  24  27  28  26  26  24  26  30  35  35  32  25  20  19  18  18  16  16  17  15  15  17  16  21  20  23  29  28  31  35  45  36  54 113 114 184 190 193 194 193 195 196 195 195 194 196 196 199 196 196 197 199 197 200 201 198
 155 157 158 155 156 158 160 161 161 154 148 100  55  36  37  46  40  26  20  16  14  15  16  18  21  18  14  14  16  16  21  24  26  25  25  29  30  29  32  34  34  28  25  27  31  37  41  47  39  28  25  27  29  29  21  16  16  16  17  20  22  21  24  24  26  30  35  34  46  95  95 178 187 191 194 196 195 195 195 196 197 196 196 198 195 195 196 196 197 200 197 199
 158 159 158 158 158 161 162 160 156 143 130  89  39  31  26  23  20  16  16  15  14  14  15  17  19  17  13  13  13  15  16  18  20  20  19  21  24  24  26  26  26  25  23  23  20  24  31  34  34  33  29  24  23  24  27  25  20  18  16  20  22  19  22  22  23  25  31  33  40  60  80 157 171 192 194 195 195 195 196 195 196 195 196 196 196 198 195 196 196 197 197 197
 159 159 160 159 159 160 161 159 149 142 121  73  37  26  24  19  18  16  13  13  14  15  18  20  20  15  13  16  19  16  16  18  19  20  20  20  23  21  25  27  31  29  29  28  27  24  23  24  27  35  34  28  32  39  37  37  29  21  17  18  20  21  22  22  23  26  28  30  30  42  64 118 166 187 192 194 194 196 195 195 195 195 196 198 199 198 197 196 197 198 198 199
 160 161 160 160 159 160 161 160 156 151 120  56  29  21  23  21  19  17  15  16  18  19  20  19  17  15  17  23  30  25  18  18  19  20  23  27  26  25  25  23  25  25  26  26  30  34  29  26  25  22  20  22  22  23  26  26  23  20  18  16  16  19  27  29  28  24  24  28  31  38  51  75 123 170 189 192 195 196 195 194 195 196 197 197 198 196 198 196 197 198 198 200
 160 161 160 160 161 161 162 161 160 150 100  37  26  18  19  18  21  19  18  18  18  18  18  15  16  16  20  24  26  34  26  20  16  16  16  17  17  17  14  14  14  17  18  20  20  20  21  22  22  22  20  20  20  22  20  22  22  18  16  19  16  18  23  26  29  25  21  23  27  30  37  56  90 144 186 193 194 194 194 194 196 196 195 195 197 197 197 198 200 196 199 200
 159 160 160 160 162 162 161 162 160 136  45  29  24  20  21  20  18  18  18  17  18  16  15  14  15  16  19  19  24  26  25  19  15  12  12  12  12  11  10  10  12  13  15  16  17  19  19  22  24  29  29  30  31  34  30  27  27  24  18  17  17  18  30  30  29  29  28  27  32  31  32  46  66 131 183 189 194 194 195 195 196 196 196 197 197 196 197 197 199 196 198 198
 160 160 161 160 162 163 162 158 129  48  38  35  35  28  24  25  21  18  16  15  16  16  16  15  16  18  20  21  20  19  16  13  14  11  11  10  10  11  11  10  12  12  16  14  15  16  22  24  27  29  32  32  30  30  29  35  35  32  27  23  25  30  27  25  26  28  31  31  31  30  28  38  51 105 163 182 184 192 196 198 195 195 196 196 197 197 197 196 198 197 198 200
 160 159 162 162 161 163 155 113  51  39  34  28  25  26  23  20  18  17  14  15  16  15  16  19  19  20  24  24  23  18  13  11  13  13  11  10  10  10  10   9  11  11  12  14  14  16  22  22  22  25  27  28  29  28  25  30  34  34  30  25  26  33  35  31  30  28  26  27  27  27  27  33  50  91 154 167 172 186 195 196 195 197 198 197 197 198 199 198 198 197 197 201
 161 160 161 163 162 161 140  78  42  34  30  28  27  26  21  19  17  16  17  15  16  18  22  19  23  22  21  17  15  13  13  11  10  11  12  11  12  10  11  11  11  11  12  14  14  14  17  16  16  18  20  23  22  20  27  29  38  39  37  33  32  33  40  38  36  28  27  27  35  30  27  30  43  94 115 140 148 182 195 197 196 196 195 198 199 199 199 197 201 199 199 200
 161 162 162 162 162 158 124  42  32  32  28  28  24  21  19  16  17  19  18  16  18  19  19  16  14  13  12  11  11  11  10  10  10   9  10  11  12  13  12  11  11  12  12  13  13  12  13  14  16  17  22  25  22  25  27  28  34  36  36  42  45  39  39  38  33  30  27  28  29  31  25  28  42  74  77  92 114 158 193 196 196 197 197 199 200 197 199 198 200 202 200 200
 160 161 163 162 162 155  71  36  28  28  22  21  20  20  18  16  17  17  18  18  18  19  15  13  11  10   9  10  10   9  10  10  11  10  11   9  10  11  12  12  12  13  12  12  12  13  13  14  16  18  22  24  23  24  24  25  28  31  32  43  40  38  43  38  37  32  27  26  25  29  26  29  35  44  63  88 143 147 187 196 196 197 198 197 198 198 198 200 201 200 199 201
 161 162 164 164 164 146  62  33  25  22  18  19  19  20  16  16  18  19  17  17  16  16  14  11  11  11  10   9   8   9  10  11  11  11  11  12  12  13  13  13  14  14  14  14  13  14  14  16  18  22  23  21  23  25  27  26  30  32  30  34  35  34  36  37  43  36  29  26  27  28  28  26  29  48  50  62 128 156 174 194 196 197 199 197 198 198 199 200 200 200 198 200
 163 163 164 165 162 134  72  33  27  20  16  17  19  18  17  14  16  17  18  18  16  17  12  11  11  11  11  11  12  12  12  15  16  16  16  18  19  19  20  18  18  18  17  16  16  16  18  18  23  25  28  27  28  31  35  33  34  32  37  42  44  46  39  35  37  37  34  32  30  29  24  24  28  42  40  50  99 148 161 194 197 198 199 197 198 198 199 199 198 197 197 200
 164 164 165 165 162 136  63  34  27  21  17  16  17  18  19  14  17  16  17  16  17  15  13  14  15  14  14  15  16  18  21  25  27  28  28  29  31  32  31  32  30  28  27  26  25  23  24  28  31  32  33  38  37  39  37  32  37  48  51  57  65  63  54  42  35  34  34  31  28  27  25  24  30  36  38  47  97 126 164 193 196 197 197 198 200 199 198 199 200 200 201 200
 165 165 165 165 163 138  54  32  26  25  20  18  16  18  18  18  15  16  16  16  17  15  15  16  16  17  20  21  25  28  32  38  40  40  44  44  46  45  43  43  42  41  40  38  35  36  38  41  44  43  45  47  46  44  44  49  52  60  62  63  76  79  75  48  35  33  32  30  29  24  24  25  28  31  38  62  90 121 164 193 197 198 198 198 198 199 200 199 199 197 200 199
 165 165 166 167 163 148  48  28  20  21  23  18  16  17  17  15  14  15  14  16  16  16  17  20  21  22  27  30  35  40  46  50  49  52  53  56  57  54  55  54  55  53  54  51  50  50  50  53  52  51  51  56  53  52  51  54  61  68  64  65  81  84  71  44  43  38  33  25  29  26  25  26  29  43  43  67 109 121 167 194 196 197 197 199 196 198 198 198 200 200 198 200
 166 166 165 166 165 154  53  28  18  16  19  20  17  18  18  16  16  13  14  17  17  15  20  24  26  29  35  40  45  49  55  59  61  62  62  64  64  62  63  63  63  63  61  60  60  60  59  61  59  57  60  64  58  56  55  59  65  67  62  65  67  58  46  54  53  47  38  27  25  27  24  28  35  42  50  77 103 148 176 193 196 196 198 198 200 197 199 200 200 197 200 200
 165 166 166 166 165 157  54  26  19  17  16  17  17  16  16  15  16  15  16  18  15  17  23  27  30  36  44  48  54  59  63  67  68  70  70  69  67  66  66  66  68  67  67  67  66  67  68  66  66  63  66  65  60  59  59  63  67  64  59  55  55  56  61  62  68  63  48  33  25  26  25  28  30  36  71 110 140 151 178 191 196 196 199 197 198 198 199 199 199 198 199 198
 167 166 167 167 166 148  46  27  21  18  19  16  16  15  16  16  16  17  20  20  17  21  27  32  38  46  51  54  60  65  69  74  77  76  78  76  75  72  71  73  73  72  71  71  69  70  70  70  70  68  70  68  66  65  66  67  70  72  70  68  79  88  86  83  85  78  59  42  29  27  24  26  36  64  87 110 129 144 173 188 194 197 199 197 198 200 198 198 197 198 197 196
 166 167 165 166 166 128  36  27  22  17  18  18  16  16  14  15  18  20  24  25  25  26  34  40  47  52  56  62  66  70  75  79  82  82  83  83  82  78  75  74  76  76  75  73  71  70  71  70  72  72  71  71  69  69  68  68  72  75  73  71  80  89  90  84  86  84  76  55  36  26  26  33  40  48  63  84 122 141 159 168 190 196 199 196 198 197 197 198 197 198 197 197
 166 166 165 166 166  98  34  28  22  16  18  15  17  15  16  17  22  27  33  35  33  35  42  50  57  62  67  70  73  78  78  83  84  84  85  85  82  78  78  74  78  78  78  77  74  73  73  72  72  73  73  72  70  71  70  69  76  77  76  73  76  91  91  84  85  91  85  68  43  30  32  31  34  47  62  72  94 109 118 162 190 196 197 197 197 197 199 198 197 198 198 197
 169 166 167 167 165  68  32  27  25  19  16  14  14  16  18  20  27  38  45  44  44  49  54  61  65  69  72  75  77  78  79  81  83  81  84  84  81  78  82  80  81  82  80  80  80  77  77  77  76  77  77  74  74  71  72  72  76  74  75  76  80  89  92  88  88  93  88  77  52  38  38  35  40  50  79  98 112 120 150 181 193 196 196 197 198 197 197 197 197 199 198 197
 167 168 166 166 164  42  28  23  24  23  21  16  17  16  21  27  35  48  60  66  64  66  67  69  71  71  77  80  79  81  81  82  84  82  84  85  83  80  82  83  83  84  83  83  84  82  82  81  83  80  78  77  74  71  73  75  75  77  76  76  79  88  87  84  89  90  89  79  60  42  35  35  38  44  53  96 156 165 172 191 194 196 196 198 196 196 197 198 197 197 198 199
 166 166 166 166 147  34  26  21  22  20  18  18  16  17  23  30  40  52  64  70  71  72  73  71  73  77  79  82  85  84  83  85  85  85  85  85  86  87  87  85  85  85  86  88  88  89  88  86  85  83  82  82  78  76  76  78  81  79  75  78  81  87  86  86  88  90  91  81  65  43  33  35  39  40  41  59 109 155 175 190 195 194 194 195 197 196 196 198 196 196 196 198
 165 165 165 165 147  31  26  21  19  18  19  22  19  20  26  32  42  52  65  72  73  74  72  74  75  78  79  81  85  83  85  86  85  86  88  87  88  87  88  87  90  89  90  92  95  95  94  94  91  90  87  85  82  82  85  85  86  85  83  82  83  85  90  91  90  92  90  80  63  42  33  34  35  39  39  47  77 109 154 187 193 195 192 196 198 194 196 198 198 197 195 196
 166 166 165 164 146  28  26  21  18  17  20  19  18  18  24  31  40  52  66  72  74  74  73  77  78  81  79  83  85  87  88  88  86  92  92  93  93  92  96  96  96  99 100 101 103 103 101 101  97  94  94  90  88  88  93  96  95  90  89  87  87  87  91  93  91  93  89  80  60  37  29  28  29  37  39  45  69 152 186 187 191 195 195 194 195 194 195 195 197 195 195 196
 166 168 167 166 146  28  26  21  20  21  22  16  16  17  21  30  39  54  64  71  77  77  75  77  80  84  82  84  86  91  92  91  95  99  99  99  99 102 104 105 105 107 108 108 109 109 108 106 105 102 100  99  99  97 103 109 103 100  96  93  95  96  97  97  95  94  89  81  59  33  24  23  25  36  39  53  57 156 190 193 192 194 194 194 195 194 196 195 194 193 196 197
 167 167 168 167 152  31  24  21  18  21  18  14  15  17  23  28  37  50  65  73  75  79  77  79  80  82  84  87  92  96  91  96 101 105 106 106 105 106 111 112 111 111 112 111 110 109 107 107 107 106 103 106 107 112 116 115 110 105 104 102 104 107 108 105  99  93  90  84  59  31  21  19  22  32  31  89  73 168 189 193 194 194 196 196 195 194 194 195 194 194 194 194
 169 167 167 166 159  29  24  19  20  20  17  16  14  16  23  28  36  47  63  72  77  79  79  78  82  84  87  92  97 100 100 103 102 106 110 114 108 111 114 116 115 114 114 108 106 106 104 107 107 107 109 108 112 119 124 120 115 110 110 111 111 114 117 113 106  98  92  82  61  31  20  18  21  24  35  89 110 174 192 195 194 194 195 194 194 193 194 195 195 193 196 195
 167 168 169 168 158  31  23  22  20  19  16  16  16  15  21  28  35  47  63  70  76  77  78  81  84  86  90  96 100 100 102 106 109 110 113 115 115 115 116 111 116 117 114 110 110 108 108 109 108 109 108 112 113 116 118 115 115 114 110 113 114 117 116 115 110  99  91  80  60  29  19  18  22  25  45  92 160 186 192 194 195 193 195 194 194 193 194 194 194 194 195 194
 167 167 168 167 163  39  24  22  17  19  15  16  16  16  19  26  32  45  63  70  75  79  81  84  85  87  91  96  99  99 101 101 104 106 108 112 113 112 113 113 116 113 112 112 113 114 112 108 110 110 112 111 111 111 108 108 106 108 106 107 111 114 114 116 114 105  96  82  62  31  19  18  21  24  45 127 185 191 194 193 195 192 194 194 192 192 192 192 194 194 193 192
 168 167 167 167 162  49  25  19  15  18  15  15  15  15  17  22  31  46  65  71  74  77  80  84  86  90  92  92  95  98  98  97  98 101 102 103 102 104 105 106 107 110 102 106 109 112 110 109 109 109 108 108 107 106 105  98  97  94  96  97 102 104 111 115 116 108  99  84  66  32  20  19  19  25  47 159 188 191 193 193 194 194 195 192 191 193 194 192 192 193 193 192
 168 168 167 168 164  70  26  20  16  17  16  16  15  14  17  22  33  51  66  72  76  79  83  85  88  89  92  93  91  94  93  92  91  92  92  94  91  93  95  96  96  98 107 107 109 106 105 102 100  97  98 104 101  96  98  98  92  90  90  92  94  98 104 110 114 111 103  89  69  34  22  19  19  25  82 178 190 191 192 193 192 193 192 191 191 192 192 192 191 192 191 190
 168 168 168 168 163 105  26  20  14  17  17  15  15  14  15  25  36  54  66  72  75  79  85  88  92  90  91  90  88  85  84  84  81  78  79  81  81  84  84  86  87  88  88  92  94  95  95  90  89  92  91  91  90  88  87  84  83  80  82  86  89  89  93  96 101 106 106  96  75  40  23  20  24  24 155 186 189 191 191 192 192 192 191 191 190 189 189 191 191 189 191 191
 167 167 168 166 162 142  31  16  14  18  16  15  14  14  16  27  42  58  68  75  77  84  86  87  87  85  80  80  79  75  72  72  73  69  70  72  72  73  75  79  84  81  80  83  84  87  88  87  84  80  80  81  80  76  73  71  74  72  70  74  75  73  74  75  78  78  83  86  77  48  24  21  26  80 183 189 190 192 191 191 192 191 191 188 190 189 190 190 191 191 192 191
 168 167 168 167 164 164  44  19  15  16  15  15  14  14  19  31  50  64  69  75  77  84  84  73  62  58  56  55  59  56  55  55  54  56  58  60  61  62  66  72  74  72  72  71  76  81  80  79  79  72  64  71  68  68  66  65  63  62  59  55  53  48  45  44  47  44  45  56  63  50  24  23  35 157 184 189 191 190 190 192 191 190 191 189 190 189 190 190 189 189 190 190
 169 167 167 169 168 162  48  18  16  16  15  15  14  15  19  34  53  66  73  76  77  76  58  38  38  35  32  30  31  31  32  32  31  33  38  43  47  51  55  62  67  70  63  64  66  73  76  75  72  73  64  60  58  60  60  49  42  37  36  35  31  31  28  26  29  28  27  33  39  46  25  24  73 177 188 190 190 190 191 191 191 190 190 189 190 190 190 188 189 187 188 188
 167 167 166 168 168 159  64  20  15  16  15  14  12  14  21  41  60  69  75  75  62  46  35  26  22  21  21  20  21  21  21  20  20  22  23  25  29  33  38  45  52  56  61  59  58  68  78  76  73  72  68  49  48  46  39  31  25  20  21  21  20  20  20  19  22  24  25  27  29  31  25  25 124 180 189 190 191 191 190 189 191 190 189 188 188 190 188 187 190 187 187 187
 168 169 168 168 168 160  69  23  17  16  16  13  12  14  22  44  59  70  75  62  37  29  26  22  19  20  22  19  18  17  16  17  16  14  15  16  16  19  22  28  32  36  45  54  60  69  80  79  74  66  60  43  38  34  28  24  19  17  18  18  18  18  19  21  21  24  24  26  28  29  27  29 118 182 189 191 190 190 189 192 191 189 190 189 189 189 190 188 189 188 188 187
 169 168 170 169 168 161  59  27  20  17  14  13  12  14  25  50  63  75  75  43  30  25  24  22  22  23  22  23  20  18  18  16  16  15  14  14  14  15  15  17  20  24  32  37  51  65  84  82  80  71  58  41  32  27  22  19  17  16  19  20  22  25  28  28  26  27  28  30  31  35  28  42 169 187 188 189 189 190 189 189 189 188 188 189 190 190 190 189 190 189 189 187
 168 168 167 168 167 161  72  28  22  17  15  14  13  14  27  54  68  75  64  41  28  26  26  27  27  30  31  33  32  31  29  27  25  21  21  19  18  16  16  16  18  23  26  37  52  64  85  89  87  79  62  45  30  24  22  21  23  25  27  30  34  36  40  39  39  37  37  34  36  41  32  53 168 186 189 190 189 190 190 190 188 189 189 188 189 189 189 189 189 189 188 188
 167 168 168 167 166 160  93  22  18  17  14  14  14  15  28  59  75  71  62  40  32  32  32  35  38  40  42  42  40  38  36  35  32  28  27  23  23  22  23  23  23  26  27  37  56  72  83  92  94  88  75  49  31  30  28  26  25  25  26  30  35  39  38  38  38  38  40  44  45  60  37  60 130 177 189 190 189 190 191 190 190 189 189 187 188 188 189 188 189 189 187 187
 168 169 169 168 166 141  93  50  26  17  14  14  15  17  31  63  76  71  57  44  39  40  42  43  45  42  41  39  43  42  42  40  36  30  23  21  18  19  22  25  27  30  31  40  61  81  91 107 114 113 100  54  35  31  26  24  24  25  28  32  39  45  44  48  46  40  38  45  49  72  38  57 122 179 187 189 189 190 190 189 191 190 190 188 190 190 190 186 189 187 188 187
 168 167 168 168 166  96  89  70  38  22  16  15  16  16  36  69  85  72  59  49  46  47  49  45  37  42  45  50  51  50  47  41  35  30  28  24  22  21  20  22  25  29  35  44  68  91 104 111 128 130 130  62  36  30  27  25  25  24  23  23  24  28  32  37  41  44  44  46  55  79  55  70 170 185 188 190 189 189 190 190 190 189 189 188 187 188 188 188 187 188 189 187
 169 168 168 166 168  71  50  61  42  30  24  22  16  18  42  75  89  78  66  55  52  50  46  40  49  53  48  41  35  28  20  16  14  13  16  17  18  20  23  24  28  30  36  45  71  98 119 137 147 147 142  89  40  33  28  25  24  25  18  16  17  17  17  24  25  30  40  51  60  81  77 119 176 186 188 189 187 189 190 190 190 188 190 188 186 189 189 187 188 188 187 187
 167 168 169 168 168  74  42  50  48  39  32  25  16  20  52  83  89  83  72  63  59  53  50  47  43  32  25  24  27  22  14  12  12  13  15  27  22  18  21  26  31  36  40  47  72 104 122 145 159 161 153 117  40  30  27  25  28  30  20  15  16  20  19  35  28  27  34  47  64  87  93 136 181 188 188 188 189 189 190 189 190 189 189 188 186 188 188 188 188 188 188 187
 168 168 170 168 168  76  43  56  59  50  38  25  16  21  60  86  92  89  80  68  64  58  48  40  29  24  25  30  40  30  15  12  12  13  18  28  25  23  25  29  35  41  45  51  71 101 119 144 165 168 166 131  49  40  34  30  31  33  25  18  18  21  28  32  36  36  41  52  76  96 103 127 182 188 188 188 189 190 190 189 189 189 189 188 187 186 188 188 188 188 187 188
 167 168 170 169 168  88  45  67  61  60  50  32  18  24  68  88  92  92  84  75  69  63  56  48  39  36  33  32  36  34  20  13  14  15  26  30  28  29  32  34  36  46  52  63  78  95 111 135 164 174 175 141  68  42  37  33  34  36  37  34  32  32  36  36  36  45  57  74  93 104 109 118 180 187 188 188 190 189 189 189 188 188 187 188 187 187 188 188 189 187 187 186
 168 167 168 169 169  84  51  78  67  62  58  42  23  29  72  89  92  94  90  85  74  68  66  61  53  50  41  34  35  35  32  31  33  31  31  31  29  30  32  34  40  52  64  76  85  94 104 130 162 175 173 144  86  46  38  36  35  34  35  37  36  36  37  39  43  53  71  92 108 113 112  91 172 186 186 186 189 188 187 188 188 189 188 187 186 189 188 189 189 188 187 187
 169 168 168 169 165  72  61  80  73  60  49  44  26  34  77  90  93  98 100  95  85  76  71  66  59  52  48  43  40  34  33  33  32  30  30  33  34  35  35  39  51  66  80  86  89  98 103 120 146 166 162 143 104  61  44  42  42  40  38  37  37  38  38  45  55  70  82 102 114 118 115  82 132 182 185 187 189 188 187 189 189 188 186 186 187 188 188 188 187 188 186 186
 169 170 170 170 161  69  74  71  55  36  28  38  30  35  80  89  93  96  99  98  92  83  79  72  67  60  53  46  41  38  35  36  35  40  42  44  44  43  46  52  65  77  88  88  91  96 104 112 135 160 162 144 112  77  56  49  48  49  49  50  48  50  53  61  68  80  98 109 114 121 116  77 113 182 184 188 188 189 188 188 189 186 189 188 187 187 187 186 186 188 184 186
 171 170 171 171 168  90  80  62  48  35  27  34  38  38  80  92  94  94 102  99  97  92  88  83  78  74  69  62  61  58  56  57  57  59  57  58  58  58  63  70  79  86  91  89  92  95 103 113 126 159 164 145 118  87  69  63  59  59  60  59  62  68  70  72  77  88 104 114 118 119 114  77 103 180 186 187 187 188 187 187 188 185 187 186 186 187 187 185 187 187 186 187
 169 170 170 170 166 113  76  53  44  34  30  53  40  40  80  90  93  96 102 100 102  99  98  92  88  84  80  76  75  72  70  72  69  68  67  70  71  75  78  81  86  87  89  89  90  94  98 108 125 152 161 141 122  95  76  73  73  71  70  70  73  75  73  75  81  89 108 113 113 110 107  86 111 178 184 186 186 186 188 188 187 187 188 186 187 187 187 187 187 188 187 186
 170 169 170 172 169 128  79  52  41  37  36  59  38  40  75  89  91  95  98 101 104 101 102  99  95  86  84  80  80  78  76  75  73  78  79  80  82  86  85  87  90  89  90  89  89  93  98 108 124 145 162 147 128 103  85  79  80  81  82  79  77  79  77  79  85 100 108 110 106 101  98 105 133 174 184 186 186 186 186 186 188 187 187 186 187 188 187 188 187 187 187 185
 170 169 170 171 170 134  77  54  45  42  46  64  40  39  68  87  88  91  93  97 102 102 104 103  97  89  88  79  78  78  81  81  81  84  88  91  92  91  88  89  90  89  91  89  90  96 103 116 125 145 163 151 138 114  92  87  87  88  90  88  82  84  84  89  88  95  95  97  96  93  94 108 134 175 182 185 187 187 186 186 188 187 188 186 188 187 186 187 186 187 185 185
 169 170 170 170 170 140  87  66  52  49  50  64  40  41  68  84  85  87  88  91  93  97 101 100 100  96  90  85  83  85  86  87  91  95  97  96  93  92  89  90  91  93  91  91  89  98 112 124 131 143 160 152 142 136 106  94  94  94  92  93  93  93  92  97  96  93  85  87  85  82  85 110 155 178 182 187 188 186 186 187 186 187 187 185 186 186 184 185 187 186 186 186
 170 170 170 170 169 151  97  85  65  54  54  57  40  38  62  82  81  81  84  86  90  91  90  94  95  91  90  89  88  92  92  93  94  97 100  99  98  96  96  98  96  93  89  90  92 103 119 127 135 143 145 142 141 143 131 102  99 100  99 100 101  98 101 102 102  96  90  78  73  70  74 106 164 185 185 187 187 187 187 186 186 187 186 185 185 185 184 183 184 186 186 184
 170 169 170 170 170 163 112 100  84  73  63  53  35  37  57  77  81  80  77  80  82  81  86  88  88  84  85  88  90  96  94  94  96 104 104 104 101 100 103  99  95  89  88  86  92 109 123 129 133 140 133 134 135 141 139 114 103 107 107 105 102 103 103 105 107 105  91  69  65  66  71  92 170 184 186 186 185 185 186 187 185 186 185 184 185 185 185 183 184 184 184 186
 170 170 171 170 170 167 148  93  92  97  76  53  37  36  52  72  78  77  70  72  73  73  76  76  80  80  85  87  92  95  99 104 106 108 110 107 103 103 100  91  84  86  86  91  97 112 121 125 130 140 136 132 134 138 138 124  99 105 108 107 107 107 106 107 108 106  96  78  67  66  72  99 174 184 186 185 185 185 184 186 186 182 184 184 185 186 186 184 183 182 185 184
 170 170 170 169 169 169 166 100  84  94  83  69  45  36  43  67  72  72  67  66  68  69  70  73  77  79  83  88  93  99 103 108 107 107 108 106 103  99  90  77  81  89 100 100 101 110 115 117 126 138 138 137 139 140 133 125  95  94 103 106 110 110 108 104  97 104  98  93  76  70  77 120 176 184 185 185 185 184 184 184 182 183 183 183 185 185 185 184 184 184 183 183
 169 170 170 169 170 171 169 138  81  82  74  66  43  32  37  64  72  69  64  62  64  66  69  72  77  80  82  86  92 103 104 106 102 105 103 101  97  88  78  76  90 105 107 104 100 102 107 112 123 135 136 131 131 131 129 124 118  87  93 102 107 109 111 111 102  96  97  96  82  72  80 128 179 184 185 185 184 185 186 183 184 182 183 182 184 185 185 185 184 184 183 183
 168 169 170 170 170 170 170 165  94  82  70  61  40  31  33  58  67  64  60  59  66  64  66  69  71  77  83  88  97  99 103 102  98 101 100  97  88  76  70  77  99 108 107  99  95  94  98 104 113 124 123 121 119 119 116 111 111 117  81  89  97 104 111 111 107  91  89  96  82  73  75 139 178 183 185 183 185 183 184 182 183 182 183 182 182 184 185 185 183 184 183 183
 168 168 168 168 168 169 169 168 132  87  81  71  50  35  34  57  63  62  60  65  67  64  67  70  72  81  89  96  97  95  95  96  95  95  90  86  73  62  62  75 102 107 103  89  81  78  79  85  90  99 103 102 102 104  96  83  90 110  76  79  90  96 104 109 106  97  89  92  82  77  78 162 181 183 184 184 183 183 183 181 181 183 181 181 182 183 184 183 182 183 182 181
 168 168 169 169 169 168 168 170 159  93  89  78  68  48  43  54  63  66  65  64  66  63  68  70  77  86  94  94  93  94  94  93  91  87  80  73  60  54  54  74  98  96  91  79  66  62  60  66  75  77  82  82  84  84  71  60  71  87  75  70  81  86  91 103 103  96  87  87  84  88 134 174 182 182 183 182 182 184 183 181 181 182 182 181 183 181 182 182 181 180 180 180
 168 167 168 168 167 168 167 168 166 115  92  82  72  54  48  58  65  69  68  65  65  67  69  69  79  89  91  91  91  89  89  88  84  77  68  58  52  54  55  65  82  75  65  56  46  45  54  59  65  67  65  64  68  66  55  46  51  70  79  70  72  80  84  92  94  93  86  83  87  86 142 176 182 183 182 182 181 182 182 181 181 182 181 181 181 181 180 181 180 179 179 179
 166 166 167 168 168 167 169 169 168 148  86  74  63  50  59  56  59  68  67  63  63  67  69  74  86  89  87  85  86  86  84  80  72  65  59  51  52  62  63  54  58  47  33  28  25  27  40  53  58  54  54  54  56  55  42  42  58  67  84  78  71  71  82  92  91  88  81  79  79  85 137 175 183 185 182 183 182 182 180 180 181 180 181 180 181 181 181 181 180 180 180 176
 166 165 166 166 167 168 168 169 169 166 145 101  89 121  95  56  61  66  64  59  61  68  68  76  83  82  82  79  83  80  77  72  65  57  48  52  60  68  72  58  43  35  33  35  36  38  42  45  52  50  48  49  50  42  32  42  58  73  90  86  76  70  77  87  91  86  75  71  74  79 138 176 181 183 183 182 181 182 179 181 182 181 180 182 181 181 179 179 177 177 177 177
 166 164 167 167 167 168 167 168 169 168 166 164 165 162 119  60  62  63  60  55  60  65  67  71  73  72  77  75  77  75  72  66  57  49  51  61  71  74  76  63  45  39  35  36  36  36  38  41  47  47  43  44  41  35  33  42  56  76  94  86  79  72  71  77  84  81  69  68  72  79 148 177 180 183 183 182 181 181 181 181 181 178 178 180 178 178 178 176 178 178 177 176
 165 167 166 167 165 167 167 167 168 167 167 167 166 165 138  69  54  56  57  50  56  58  61  68  67  67  69  68  69  68  64  56  50  50  59  70  77  78  74  63  44  40  33  32  33  32  32  35  35  34  34  36  35  35  32  39  53  72  84  82  72  65  63  70  78  79  68  70  73  72 152 176 180 182 180 181 180 180 180 179 181 179 179 179 176 177 177 176 177 176 176 175
 165 165 166 164 165 167 166 165 167 168 167 168 166 166 143  70  52  52  55  51  52  59  62  66  63  64  61  62  64  62  56  52  51  56  65  70  75  71  67  54  42  41  36  32  30  30  30  30  30  30  30  31  32  34  34  37  48  60  77  75  69  59  52  57  67  75  68  65  64  67 164 176 179 181 180 179 179 179 180 178 178 180 179 177 175 175 176 177 175 177 174 174
 163 164 165 163 163 164 165 165 165 164 164 166 166 164 158  80  51  50  52  52  51  55  57  58  58  56  57  59  58  55  53  50  52  61  64  65  63  64  60  52  41  37  34  33  32  31  31  30  29  27  27  29  32  34  34  44  48  53  59  65  70  59  50  49  58  67  62  58  54  72 169 176 177 178 178 178 178 178 178 177 175 176 177 176 175 174 175 175 173 174 175 174
 164 164 163 162 163 163 163 164 164 165 164 165 165 166 159 106  54  49  48  49  52  48  54  56  54  52  53  58  58  54  50  48  52  57  58  58  53  55  54  48  41  37  35  35  34  31  30  28  28  27  27  30  31  32  35  43  48  45  60  64  60  57  55  51  50  62  57  55  50  92 172 175 176 176 176 176 176 178 175 176 174 174 173 176 175 175 174 174 174 174 174 173
 163 163 163 162 162 162 163 164 164 165 163 164 165 164 161 128  56  51  46  47  50  48  50  49  49  49  50  58  58  50  48  47  50  51  51  48  43  44  44  43  40  35  34  34  31  30  31  29  28  26  28  29  31  35  39  47  50  47  54  55  49  45  47  47  45  56  56  52  44 107 170 174 174 174 174 174 174 175 173 174 174 174 174 173 173 174 172 172 172 172 172 172
 161 160 162 162 163 163 163 163 163 164 163 164 164 163 162 152  62  51  46  44  45  44  46  42  44  45  49  56  54  44  44  49  47  49  45  43  43  44  42  44  44  41  38  35  31  32  34  32  29  28  30  35  38  43  48  55  54  51  53  49  40  39  41  44  44  53  51  48  44 142 171 174 174 173 173 173 173 174 173 173 172 173 173 172 172 172 171 171 171 172 170 170
 160 160 161 161 161 161 162 162 162 163 162 163 162 162 162 157  92  48  45  45  45  43  40  42  41  42  50  55  54  40  41  49  41  40  38  39  43  46  44  48  49  48  48  45  42  39  40  41  40  40  42  45  46  44  44  43  41  41  40  39  29  31  35  37  44  52  49  43  55 160 172 172 174 173 172 172 172 171 172 172 171 171 172 171 171 170 171 170 170 171 169 169
 158 159 159 159 161 161 162 161 161 161 163 162 163 163 162 160 138  52  46  44  42  42  42  45  42  45  50  56  50  38  44  45  38  33  29  33  39  42  44  48  46  46  46  44  42  42  43  45  48  49  45  42  40  39  38  36  35  33  30  31  25  28  33  38  47  50  46  42  77 164 171 171 172 172 170 171 172 170 170 169 170 171 172 170 170 172 171 170 169 170 170 170
 157 157 159 159 162 162 161 160 162 161 161 161 159 162 161 160 152  73  46  43  42  41  41  41  39  43  49  55  50  40  41  37  30  22  20  22  30  33  35  35  35  33  33  33  31  31  32  32  36  37  34  33  31  28  22  21  24  29  35  39  35  34  38  42  48  48  43  42 121 166 169 171 169 171 170 170 169 169 170 169 168 169 170 169 169 170 168 169 170 170 168 168
 157 157 158 157 159 160 161 160 160 160 160 160 160 160 160 160 158 104  43  43  43  42  39  38  37  43  47  54  50  39  36  31  24  15  17  17  20  25  27  26  25  24  22  24  25  24  24  21  22  23  24  22  22  26  29  30  34  37  44  43  39  37  38  45  49  43  41  54 158 168 169 170 169 169 171 168 168 169 169 169 169 169 168 169 168 168 169 169 169 168 167 168
 156 156 156 157 158 159 159 158 158 160 161 159 160 160 159 160 160 147  52  42  43  41  39  35  33  37  45  51  49  40  34  29  23  20  28  32  30  29  31  31  32  29  25  24  24  23  23  23  23  26  29  30  30  38  41  39  41  48  50  46  45  39  38  44  45  39  39  90 165 168 168 168 168 168 168 168 168 167 168 168 166 168 168 168 168 167 167 168 169 168 168 169
 155 156 156 156 156 157 158 159 159 160 159 157 160 159 159 160 159 156 104  42  39  41  42  36  34  36  43  50  52  44  35  32  28  30  34  38  44  41  39  39  41  41  40  40  39  39  40  42  40  40  40  41  44  45  43  42  44  50  50  49  50  41  36  40  37  37  47 138 165 167 168 166 166 166 166 168 168 168 168 168 167 168 167 167 166 167 168 167 168 167 168 167
 156 154 155 156 156 158 157 157 160 159 156 156 159 160 159 158 159 157 144  46  38  39  41  37  34  35  39  46  50  43  36  35  34  35  37  42  48  48  49  46  44  43  44  45  45  45  48  48  47  45  44  44  43  43  42  43  49  51  49  50  48  38  34  38  37  42  76 155 165 166 166 165 165 165 166 167 167 167 166 168 168 167 167 166 167 166 167 167 167 166 166 167
 155 155 155 156 156 155 156 158 156 157 157 156 156 157 157 156 158 156 153  92  40  38  37  36  37  34  37  41  46  41  38  40  39  40  40  42  49  49  52  53  51  46  43  42  41  43  46  45  45  46  46  41  42  46  46  49  48  48  48  49  47  38  32  38  37  53 134 161 165 165 166 164 164 164 165 166 166 164 166 166 166 165 166 165 165 164 166 166 166 165 166 164
 154 155 155 156 156 155 155 155 155 155 156 154 154 156 155 155 155 156 155 136  47  36  35  39  35  34  35  36  42  42  37  42  41  38  42  45  44  46  49  50  53  51  45  42  41  40  40  41  43  43  43  43  45  50  48  45  43  46  49  49  44  35  31  34  33  57 126 148 157 162 163 162 162 162 164 165 165 165 164 163 164 165 165 164 164 164 165 163 165 164 165 163
 153 155 154 155 155 154 154 155 154 156 155 154 154 155 155 156 155 156 155 150 105  29  32  36  32  32  34  35  37  35  34  36  38  38  44  44  44  46  45  42  45  45  44  42  43  42  40  39  42  41  42  45  44  43  41  39  42  46  50  50  41  31  30  31  33  56  84  90 103 122 140 152 158 161 162 164 164 164 164 163 164 163 164 164 163 165 164 162 163 164 163 163
 153 153 154 153 153 153 153 154 154 155 155 154 156 154 156 156 155 155 153 150 120  41  30  28  29  30  30  32  35  35  31  31  34  37  44  46  45  45  42  39  38  38  36  34  36  33  30  29  30  30  31  30  32  33  35  41  44  48  48  48  41  31  28  28  31  40  52  59  71  86 101 111 127 146 159 162 163 163 165 163 163 163 164 162 164 164 163 162 163 162 161 161
 153 154 153 152 152 154 154 154 153 153 154 155 153 154 155 155 153 152 120  92  67  52  31  26  29  29  29  33  34  34  32  29  30  33  40  49  48  49  44  40  36  32  30  28  28  21  18  16  20  18  20  24  28  32  39  42  47  49  46  45  41  31  26  22  26  28  32  34  40  58  74  95 111 115 126 147 160 161 162 161 162 161 162 162 163 163 162 162 162 162 161 162
 152 151 153 151 153 154 153 153 154 152 153 154 154 154 154 153 149  99  71  63  54  58  44  28  25  27  28  31  30  31  33  31  30  35  41  46  47  49  45  42  37  33  30  28  24  18  17  17  17  19  23  26  28  36  43  46  50  49  46  45  39  31  26  23  24  26  27  29  34  42  55  75  93  99 107 112 133 158 160 161 160 160 160 160 161 161 161 160 160 160 161 160
 152 151 151 152 153 153 153 153 152 154 154 153 153 153 149 106  82  70  56  52  44  49  57  40  24  25  26  29  30  29  31  30  28  31  38  42  43  47  46  45  38  35  33  27  24  21  21  22  23  22  24  28  29  37  44  48  50  50  46  41  33  29  44  60  34  26  26  27  30  34  40  61  76  80 100  98  98 132 156 159 159 159 160 159 160 159 160 160 159 160 161 157
 149 150 153 153 153 151 150 152 153 154 152 150 152 151 105  52  64  60  48  41  39  40  61  46  35  27  25  28  29  30  30  30  30  30  35  39  41  42  46  47  46  40  36  29  26  25  28  28  26  27  25  31  33  40  47  47  48  44  43  40  30  28  58  79  90  69  37  31  29  31  38  56  79  86  99 101  94 105 139 155 157 158 156 155 157 155 157 157 159 159 158 156
 148 148 150 151 153 152 152 151 149 151 151 152 150 130  70  46  57  55  46  37  35  30  62  52  41  35  29  26  26  28  27  26  29  29  32  32  32  35  39  44  48  43  37  31  28  28  29  30  26  28  29  31  32  36  46  43  37  33  34  30  24  37  43  51  73  87  88  52  30  30  35  57  76  99  99 101  94 105 124 135 144 153 154 155 154 155 155 158 160 159 157 156
 149 148 150 150 149 149 150 150 149 150 149 146 123  81  64  44  58  58  55  42  30  25  61  56  48  42  40  36  27  24  22  24  25  26  27  30  32  32  35  42  45  40  33  32  29  26  28  29  28  28  28  29  28  34  40  41  36  29  30  25  26  46  35  36  50  62  72  90  67  32  31  47  73 103 109 104 102 104 119 124 134 139 149 154 155 154 156 157 156 157 156 155
 147 146 147 150 149 148 149 148 150 149 138  99  78  69  57  46  57  56  50  42  26  19  53  57  50  44  41  41  37  30  24  24  21  23  24  26  31  29  31  35  36  36  37  35  32  26  27  32  29  26  30  27  26  33  37  36  32  31  26  25  39  58  86  34  31  42  54  71  90  77  30  34  70  95 107 102 106 110 115 109 118 128 138 153 154 154 154 154 154 155 155 155
 146 148 148 148 137 132 134 142 139 123  90  79  69  71  56  42  53  52  49  40  25  19  56  57  51  44  39  38  39  42  34  25  19  19  22  24  27  27  31  33  33  31  33  36  32  30  25  26  26  26  24  24  24  30  36  32  32  28  24  32  47  63 110 128  40  30  41  54  66  88  76  29  48  85 106 112 110 107 106 116 119 119 123 137 146 151 152 155 155 156 155 155
 146 144 146 126 107 106 102  95  91  86  76  72  75  66  52  39  60  51  47  41  23  21  59  61  53  48  38  37  37  40  42  34  27  19  19  21  23  29  31  29  30  29  29  31  29  26  22  22  24  22  20  22  24  28  29  29  26  26  32  41  53  69 124 130 132  34  27  44  52  74  92  65  36  77 100 114 119 109  92  97 101 115 131 132 131 123 137 148 146 149 151 154
 119 120 120  98  90  91  93  83  83  73  70  72  58  54  46  37  60  47  40  39  23  25  61  61  54  50  41  37  37  40  42  43  38  29  22  19  19  22  26  24  26  25  26  26  26  26  22  24  22  20  20  22  23  28  25  24  23  32  38  47  55  69 120 112 163 113  35  29  42  56  76  88  47  58  90 110 120 112  87  93  99 103 124 137 135 133 129 105  90  96 130 144
  89  93 104  90  70  83  87  88  82  73  71  70  67  59  51  42  63  52  46  41  25  26  59  62  56  51  45  40  38  38  40  42  40  39  34  22  17  21  22  24  25  24  23  24  24  24  23  21  18  20  19  20  23  23  23  27  34  38  42  50  58  72 113 118 125 167  74  38  44  50  62  75  81  44  71  98 119 121  84  82 102 104 109 115 131 127 123 128 108  80  94 127
  92 105 102  91  73  80  80  85  86  73  70  68  66  62  48  43  65  52  44  38  23  25  57  62  60  54  46  44  41  40  39  41  42  41  37  33  28  23  22  23  22  22  20  22  21  17  17  16  17  17  16  18  18  22  31  35  38  40  46  52  62  75 107 123  98 169 135  56  43  52  56  70  95  61  70  90 112 120  91  66  89 104 100 116 120 130 116 122 132 132  97 118
 100  93  95  86  77  62  72  80  81  77  78  70  64  59  52  45  59  54  46  40  26  25  54  62  60  56  48  46  44  43  42  44  43  42  39  37  34  31  29  24  24  19  17  17  15  15  14  13  14  15  16  21  26  34  38  37  40  45  50  56  64  75 101 119 111 144 170  85  48  58  55  62  92  86  62  97 110 113  95  61  82  94 103 111 120 115 126 124 120 117 106 120
  94  96  93  91  85  69  69  77  76  76  70  70  62  52  47  35  57  55  44  43  32  22  52  59  59  57  50  47  44  43  46  44  43  41  42  42  36  32  30  32  30  25  20  18  19  18  21  23  23  23  28  33  35  39  39  37  42  47  53  61  68  78  96 116 125 119 174 141  53  60  62  62  84  93  59  93 107 112  98  61  70  87  98 106 114 111 108 115 123 113 113 118
  94  92  94  87  85  74  63  77  83  81  75  68  64  60  50  47  59  58  50  46  33  23  44  56  58  56  54  46  46  44  46  45  44  44  42  40  39  37  33  33  30  30  27  25  27  28  28  28  28  30  32  35  36  38  39  40  44  51  55  64  69  79  93 112 124 117 171 173  80  63  70  75  80  99  69  86 105 111 106  63  67  88 102 110 108 112 103 105 116 113 118 125
  84  88  87  92  92  78  61  64  79  84  74  71  64  59  56  51  49  61  56  49  36  22  38  53  57  56  51  50  49  46  46  46  45  45  42  36  37  35  34  30  31  29  30  29  28  29  27  26  29  31  35  37  38  40  40  45  45  52  56  64  70  76  91 109 123 125 150 178 133  61  79  86  90  97  77  72  96 109 114  66  60  83 100 114 105 110  99 101 113 106 118 124
  78  90  92  86  84  82  74  52  75  79  77  60  55  53  52  56  63  69  58  53  42  20  31  48  58  54  53  51  50  47  46  46  46  46  44  41  38  35  34  33  29  30  32  31  30  30  27  27  30  34  38  38  39  40  42  47  50  53  56  63  74  82  92 106 120 127 127 178 169  68  79  90  92 101  87  69 106 113 111  77  62  89  94 103 109 106  93 101 109  99 116 121
  81  82  85  87  87  87  80  70  66  82  73  66  61  59  51  56  57  61  55  50  41  21  25  43  53  54  52  51  52  48  45  47  46  45  45  44  40  37  36  34  32  30  31  29  29  27  25  28  32  37  37  38  40  44  45  49  52  54  60  69  76  83  92 105 115 124 117 168 175  98  75  86  90 104  96  66  98 113 119  84  62  84  86  98 108 102  90  97  89 110 118 116
  80  70  87  81  85  79  78  71  50  67  71  76  65  62  54  52  53  59  50  51  48  25  22  36  47  50  47  49  51  50  48  46  46  45  46  46  43  38  36  34  34  32  30  30  28  29  30  33  36  38  41  43  42  45  48  49  53  55  62  71  76  84  94 102 113 122 120 149 176 128  70  84  98 103 101  59  90 107 116  96  60  78  92 106 115 108  94 106  95 106 109 109
  81  72  79  80  71  75  78  68  56  62  83  81  74  65  57  42  46  62  50  52  53  30  20  29  42  49  50  49  50  50  51  49  47  44  45  45  44  40  39  37  35  34  33  34  33  34  36  37  38  38  41  42  42  45  48  48  52  56  64  71  75  84  93 102 111 118 126 129 176 152  67  74  94 111 103  57  85 104 108 100  60  78  91 105 109 108  96  96  85  94  93 108
  57  62  72  78  75  69  79  74  67  47  72  72  66  63  55  49  50  58  52  58  55  35  19  25  34  44  48  50  50  50  50  50  46  45  45  43  44  42  39  38  38  38  36  38  37  36  37  38  38  39  42  46  46  48  49  50  52  58  62  70  76  83  91  98 106 114 124 117 171 166  72  71  82  92 105  70  79  96  96 101  62  80  97  92 112 108 101  98  80  93  91 115
  64  64  66  79  78  67  65  67  74  49  52  73  71  68  61  51  47  58  63  59  50  40  20  21  30  37  44  48  51  50  50  49  47  45  45  43  42  41  41  37  36  36  37  36  37  37  40  41  42  41  44  46  47  51  53  52  54  57  64  71  76  83  89  96 106 113 122 107 173 174  89  65  77  88 104  77  87  94 108 106  69  77  97 106 109 102  92  92  92 104 113 116
