P2
# Generated by OpenCV 3.4.0
92 112
255
 154 155 157 157 156 158 158 158 160 160 160 160 162 161 163 163 162 154 145 132  88  77  86  78  58  52  52  44  36  42  49  48  49  53  59  42  37  36  43  50  50  47  58  58  58  58  65  58  53  51  65  90  95 132 151 155 179 180 189 188 190 192 192 193 193 194 195 196 197 197 198 197 200 198 198 199 203 203 202 203 203 204 204 204 204 204 204 204 205 205 204 204
 153 153 155 156 157 159 159 158 159 159 160 159 159 157 159 161 155 147 130  97  85  99  92  76  57  55  52  48  38  38  45  46  41  45  46  48  49  48  45  40  48  54  49  48  58  58  59  62  52  51  53  64  68  85 133 120 153 160 178 185 188 189 191 191 192 193 195 196 197 197 198 200 202 201 199 203 203 201 203 203 203 204 203 203 204 203 203 204 205 204 204 204
 153 155 155 157 157 157 159 159 157 158 156 149 146 131 113 121  92  69  78  68  81 112  92  76  58  53  39  36  33  36  39  42  40  36  33  34  42  52  55  49  39  41  45  47  50  52  52  52  50  53  48  46  49  61  67  81  84 121 142 166 182 182 190 193 193 194 195 196 196 198 198 198 201 201 202 202 203 203 204 203 203 203 204 203 203 204 204 204 203 203 205 204
 153 157 157 157 159 159 160 159 158 159 153 134 114  90  80  65  41  42  48  50  59  70  79  96  52  51  36  31  31  29  27  38  34  30  30  27  26  35  40  39  36  32  33  43  35  36  35  43  50  42  40  36  37  47  54  61  70  71  94 114 156 163 182 191 193 194 194 194 196 197 198 200 199 201 201 203 203 203 204 202 202 204 203 203 204 204 204 204 205 204 204 204
 155 157 160 159 161 161 161 162 162 160 147 116  92  92  79  60  51  45  49  44  48  46  46  56  59  38  31  28  28  29  30  32  34  33  34  33  30  30  26  27  27  27  28  31  29  29  28  31  32  35  35  32  30  33  43  49  59  58  72  80  95 132 148 180 190 194 194 194 195 196 198 201 201 202 202 203 204 203 203 204 204 203 205 204 204 204 205 206 205 205 206 206
 158 159 160 160 160 160 161 162 164 158 146 114  67  78  69  64  71  55  43  35  43  54  42  37  43  42  25  24  20  20  22  24  24  25  31  33  35  39  36  30  28  24  21  32  41  36  24  23  26  27  32  30  26  30  31  40  44  51  52  65  72  90  93 143 185 189 190 191 195 197 199 199 202 203 203 203 203 203 204 203 204 204 205 205 205 206 206 206 207 203 205 207
 156 160 162 161 161 162 163 161 162 161 155 146 120  71  50  60  87  64  44  31  32  35  54  38  28  27  20  19  18  20  20  24  26  27  27  28  29  33  41  42  36  29  23  23  33  46  50  36  23  20  25  26  26  21  22  32  45  39  35  49  55  79  71  77 159 164 153 162 190 197 200 202 200 203 201 202 202 203 203 203 204 204 205 205 205 205 205 206 206 206 206 205
 158 161 163 162 162 163 164 163 164 161 157 155 154 101  48  50  65  73  45  29  28  27  33  53  21  17  17  17  20  21  24  26  30  33  31  29  26  24  28  38  41  41  33  24  25  32  40  45  46  37  31  27  23  18  20  25  40  48  31  35  42  56  60  63 104 123 107 117 182 198 199 201 202 202 203 203 202 204 203 203 204 205 204 204 204 204 206 206 207 206 206 206
 162 162 161 162 163 163 162 165 165 164 166 163 157 103  58  47  55  52  39  28  24  23  22  40  32  17  18  14  16  17  17  19  22  27  28  30  32  32  26  25  31  36  44  33  21  19  20  21  26  30  35  33  29  23  19  20  25  30  32  29  33  45  47  48  83  73  73  74 172 190 199 201 199 202 202 203 203 204 203 203 205 204 206 203 204 205 204 204 206 205 205 204
 160 161 162 163 164 164 165 166 165 166 167 165 156  89  56  53  58  52  44  27  21  20  18  23  26  18  18  17  16  17  16  15  17  17  20  24  28  30  30  28  28  28  30  31  28  25  20  19  16  18  19  18  20  23  19  18  19  21  26  27  26  32  39  37  58  56  52  66 152 167 190 195 198 202 202 203 204 203 203 202 203 204 206 204 204 205 204 205 206 205 205 205
 161 160 161 164 164 164 166 166 166 166 164 159 140  76  44  46  56  45  30  24  17  16  16  17  19  18  18  17  19  21  23  24  24  21  23  25  24  23  30  30  30  28  24  29  32  34  33  28  20  17  19  19  16  16  19  18  18  19  20  25  24  27  31  32  40  47  46  69 126 142 189 196 201 203 203 203 203 203 203 203 204 205 205 205 204 206 206 205 206 205 205 205
 162 164 164 165 165 166 166 166 166 163 152 144 108  57  36  30  28  27  22  17  16  14  14  16  19  20  20  14  14  16  15  20  25  28  27  28  32  32  31  34  35  36  28  27  30  38  41  49  49  34  27  28  29  26  20  16  16  17  18  20  20  25  26  28  33  37  41  55  92 123 190 197 200 203 203 204 203 204 203 204 204 202 203 205 204 206 206 205 206 206 205 206
 164 162 166 165 165 165 166 166 166 152 147 146  87  44  29  26  22  19  17  15  13  15  16  15  19  19  20  13  14  15  14  16  20  23  21  21  23  24  26  28  29  27  26  24  24  24  30  38  36  36  32  28  23  28  30  25  20  20  19  23  20  22  23  28  30  34  37  48  58 111 178 187 201 203 203 203 202 203 204 203 203 204 204 204 204 203 205 205 205 204 204 205
 164 163 165 165 166 166 166 167 165 160 157 139  60  37  25  23  21  19  17  15  14  16  18  19  22  20  17  15  16  23  22  18  19  21  22  24  25  24  25  27  30  33  33  31  29  27  23  25  28  35  38  31  30  39  39  40  29  22  18  21  21  23  23  25  26  28  32  38  47  96 144 194 196 201 201 201 202 203 204 204 203 205 204 203 204 205 205 205 205 205 205 204
 164 165 166 165 165 166 168 166 166 165 162 120  41  29  21  20  20  19  17  15  18  19  20  22  17  16  17  20  23  28  34  26  20  21  19  23  27  27  28  26  25  27  28  28  29  32  33  28  29  25  24  26  25  27  29  31  28  23  19  18  19  22  27  28  28  29  29  36  44  59  89 171 191 198 202 201 203 202 203 204 203 205 203 204 205 204 205 204 205 205 206 204
 165 165 165 165 166 166 166 168 167 164 148  52  31  26  20  21  18  19  17  20  19  20  19  15  14  16  17  19  20  27  32  32  22  18  15  16  15  17  15  15  16  16  19  20  21  23  23  23  24  24  23  22  21  22  24  21  21  18  16  21  18  22  26  30  31  26  25  28  31  41  66 114 173 194 199 200 202 203 203 202 204 205 205 203 203 203 205 205 205 204 205 204
 165 165 166 166 166 168 168 168 164 145  64  40  38  44  29  25  26  22  20  19  19  18  16  15  17  15  17  20  22  23  26  23  18  15  13  15  13  12  12  12  12  13  14  17  18  19  21  23  26  29  30  31  32  33  32  31  30  25  19  19  17  20  32  30  32  28  27  32  31  34  50  91 159 191 198 199 201 202 201 203 203 203 205 204 203 202 204 204 203 203 204 205
 165 164 165 167 168 167 168 164 128  60  44  35  32  32  29  24  23  23  19  17  16  16  15  18  19  19  21  24  27  24  21  17  14  13  13  13  12  12  12  12  12  12  13  16  16  16  20  26  26  30  32  34  34  31  27  35  35  32  28  23  26  32  30  28  29  30  31  33  31  32  43  72 131 182 191 194 200 201 203 203 204 204 203 203 203 203 204 204 204 203 203 203
 164 164 165 166 166 166 164 154  87  39  36  31  29  29  27  24  20  20  18  16  16  16  17  20  19  20  24  26  24  21  17  14  13  13  12  13  13  13  11  12  13  12  12  15  15  16  21  24  23  23  26  27  28  28  28  31  34  37  31  28  31  36  35  31  31  29  29  28  28  30  37  60 126 172 176 179 198 200 202 202 201 204 203 203 203 204 204 203 204 203 203 202
 164 165 166 166 167 167 163 136  45  34  31  29  28  24  19  18  17  19  18  17  16  17  19  19  18  19  18  16  14  13  12  12  12  11  12  12  12  12  12  12  12  11  12  14  14  14  16  18  16  17  18  22  23  21  26  31  39  40  37  34  35  37  44  38  36  29  27  34  30  30  33  51 108 138 153 170 191 202 202 202 202 202 203 204 204 204 204 202 203 203 203 204
 165 166 166 166 166 167 162  68  37  28  26  24  22  18  19  19  18  18  18  18  18  19  18  16  14  14  14  11  10  10  10  10  11  10  11  12  11  12  13  14  13  13  12  13  13  14  14  15  16  17  22  25  23  25  30  30  36  38  37  44  45  38  45  37  35  31  28  30  32  28  29  48  69  90 106 128 190 199 202 202 200 203 202 203 203 203 204 203 204 203 203 203
 165 166 166 166 166 168 139  57  32  26  21  19  20  19  20  18  16  17  19  18  17  17  17  15  13  12  12  10  10  12  12  11  11  11  11  11  12  12  14  14  15  14  14  14  12  14  14  15  17  18  23  23  23  25  26  26  29  32  32  43  39  42  45  39  39  30  27  25  30  28  30  40  54  71 117 147 169 195 200 202 202 203 202 203 201 201 202 204 203 205 203 203
 165 166 166 166 166 163 130  56  33  27  22  18  18  19  18  17  15  16  16  16  16  16  16  14  13  13  12  11  12  12  12  13  14  14  14  14  15  15  17  16  16  17  16  14  15  16  16  18  19  22  24  24  24  27  29  31  33  32  31  36  37  35  36  37  41  33  29  29  27  30  27  33  53  54  80 170 155 193 197 199 202 201 203 202 202 202 203 203 203 203 203 203
 166 166 166 167 167 162 120  39  31  28  23  17  17  17  18  19  16  16  16  15  16  17  16  14  15  14  14  14  15  15  17  19  21  24  24  26  26  26  27  27  27  26  23  22  21  22  22  23  25  28  31  32  33  36  39  36  34  34  40  49  47  46  38  36  38  39  32  29  28  26  25  32  40  45  65 140 147 189 197 200 199 198 199 201 202 201 202 200 203 202 202 202
 165 167 168 168 168 162 104  41  28  24  24  20  17  15  17  18  18  15  15  16  15  17  15  14  16  16  16  18  21  24  28  31  36  39  40  40  41  42  42  42  38  38  36  35  32  30  30  35  39  39  39  42  44  42  41  39  42  52  54  65  68  63  53  38  33  34  33  27  24  25  26  30  38  43  68 115 141 187 196 198 199 198 202 200 201 201 202 201 200 201 201 202
 167 167 168 166 166 163 129  36  25  18  19  21  19  16  15  19  16  14  16  15  16  16  15  17  21  21  22  26  29  34  39  45  48  49  51  52  54  54  52  52  52  52  50  50  47  47  46  48  49  47  49  52  53  48  49  52  55  65  63  66  83  79  65  40  35  34  30  29  24  24  24  29  37  46  82 110 140 184 196 198 198 201 202 202 201 201 202 202 200 200 200 200
 166 168 167 168 167 167 137  36  23  16  16  18  18  16  16  16  15  15  14  14  15  16  16  19  24  24  30  33  40  45  50  54  59  60  62  63  62  63  62  64  64  64  61  60  60  59  57  58  56  56  56  60  58  56  55  56  63  68  64  70  84  74  51  46  43  36  28  27  26  28  28  37  48  59  91 116 152 187 196 197 200 198 198 199 200 201 201 201 201 200 198 197
 165 167 166 166 168 167 129  32  22  16  16  17  16  15  16  16  15  15  16  15  17  16  17  23  28  31  36  43  48  52  58  63  66  68  70  70  67  66  66  67  67  68  67  66  65  65  65  67  65  63  63  64  60  57  56  59  63  61  54  56  51  46  51  56  51  44  30  25  25  28  35  38  45  60  99 144 173 188 196 196 199 200 198 199 199 199 199 199 200 196 198 197
 165 166 166 166 167 165  92  35  25  19  17  17  16  15  15  14  15  15  17  20  20  18  21  28  32  39  45  51  55  60  64  70  74  75  76  75  74  72  71  71  72  73  71  70  69  70  70  70  69  68  69  68  63  60  61  65  66  68  66  64  72  73  71  76  71  55  37  26  25  26  27  37  62  97 129 139 166 186 195 196 198 197 197 196 196 197 197 198 197 196 197 196
 166 165 165 166 166 164  48  31  24  19  16  16  16  16  15  15  16  17  21  25  29  28  28  35  42  48  54  57  62  67  70  75  80  80  82  82  82  79  76  74  73  76  76  74  72  71  72  72  71  72  70  70  67  64  66  68  70  75  70  72  84  90  82  83  83  68  48  31  28  28  34  43  73  92 117 140 162 183 192 197 197 197 197 197 196 196 197 196 194 195 196 196
 165 166 165 167 167 141  29  30  26  23  16  15  14  15  16  15  18  22  29  35  37  34  36  44  51  57  63  66  69  71  75  78  81  84  84  85  85  81  77  74  75  79  76  77  76  73  73  72  72  73  71  71  67  68  68  68  74  77  72  72  83  91  84  83  88  81  62  38  29  29  32  38  57  76 108 134 145 153 187 194 195 196 196 195 195 195 197 196 195 194 196 196
 165 167 166 166 165 104  33  25  24  23  21  17  15  14  15  16  23  30  42  49  49  49  54  57  63  66  68  71  76  77  77  77  80  82  83  84  84  80  79  79  77  81  83  80  80  75  75  74  75  75  76  72  70  70  70  72  74  75  74  73  81  93  89  86  90  88  76  46  34  40  36  41  62  74  78  96 114 152 187 195 195 194 196 196 195 196 196 195 194 193 194 195
 166 166 166 165 164  86  31  23  21  21  20  18  17  17  17  22  28  38  50  60  66  66  68  68  70  70  71  74  78  79  79  79  82  84  83  84  85  83  82  83  82  83  82  82  84  81  80  79  79  79  75  73  71  70  71  72  74  76  74  74  83  88  87  86  89  89  78  56  38  38  37  44  54  97 144 145 159 184 194 195 195 195 196 196 195 196 196 196 194 195 194 195
 166 166 168 166 162  64  29  22  20  18  16  16  17  16  18  23  32  40  53  64  70  72  73  72  72  71  74  77  80  81  80  82  84  86  86  86  85  86  86  86  84  83  84  85  87  86  89  86  86  84  80  75  74  73  75  77  77  76  75  77  80  86  86  84  88  88  81  63  42  34  35  39  41  55 106 161 172 188 194 194 195 196 196 195 196 194 196 196 196 195 197 195
 165 167 167 167 162  52  28  23  20  19  17  20  21  17  20  25  33  44  55  66  73  73  73  72  73  76  78  78  81  83  85  86  85  84  86  90  90  90  88  88  88  88  88  92  94  94  94  92  92  88  84  83  79  79  82  86  84  82  81  81  83  86  89  87  90  89  80  63  38  33  35  38  41  45  59 107 147 184 192 193 195 196 195 196 195 196 197 198 196 196 197 195
 166 166 168 166 161  53  28  24  21  19  20  21  17  16  19  24  31  44  54  63  72  76  74  74  77  77  80  80  83  84  87  88  88  89  93  94  93  93  95  97  96  96  97 101 102 104 102 100  97  93  90  89  86  87  90  96  93  88  87  85  87  88  92  91  90  89  79  59  36  29  31  33  41  42  55 129 162 183 190 194 195 195 194 195 196 196 195 195 195 196 194 195
 167 167 168 168 165  59  26  21  19  17  21  16  15  15  18  22  30  42  51  64  72  76  77  76  78  80  82  81  85  87  91  90  93 100 101 102 102 101 106 105 104 105 107 108 108 108 108 107 106 102 101  98  96  96 102 106 104  95  93  93  94  94  96  93  93  90  83  58  32  24  25  29  40  43  45 126 179 191 193 194 193 194 195 196 198 194 197 196 195 194 194 195
 168 168 168 169 167  65  27  23  19  18  20  16  16  15  18  24  29  38  48  65  73  76  78  80  79  80  83  85  88  91  95  93  99 100 106 109 107 105 109 113 111 111 110 111 109 108 107 108 105 105 102 105 106 109 115 113 109 103 102 101 102 105 106  99  95  91  86  57  29  24  23  26  35  62  66 136 184 194 194 195 195 193 195 195 195 194 195 197 196 194 195 195
 167 166 166 168 167  66  28  21  19  20  19  16  16  16  19  23  28  38  49  62  71  76  78  78  80  82  84  89  93  97  99 102 105 106 109 113 113 110 113 115 114 114 117 112 105 106 106 106 107 107 107 108 112 119 123 117 113 108 110 109 111 116 114 109 100  92  86  59  29  22  22  24  31  76 100 146 190 194 195 195 195 194 195 194 194 194 196 194 194 195 195 195
 168 167 168 167 167  80  26  22  19  19  18  15  16  15  18  21  28  34  48  64  69  75  77  79  84  84  87  90  95 100 100 103 107 110 109 112 115 115 115 114 112 116 115 112 110 113 110 109 108 109 109 109 112 117 116 114 114 113 109 112 114 117 114 113 104  94  82  59  27  20  22  24  27  78 144 179 192 194 195 196 196 196 195 195 194 195 195 195 193 194 194 194
 168 169 168 169 167  88  27  22  18  17  18  15  16  16  16  19  27  34  49  64  69  78  78  81  85  86  90  92  95 100  99 100 100 102 105 107 111 109 108 113 114 112 109 109 113 112 115 112 109 108 112 110 110 110 107 104 104 105 103 107 113 115 115 116 109  98  86  62  28  20  20  24  24 102 185 191 194 195 195 195 195 196 196 196 195 196 196 195 194 194 194 195
 169 167 169 171 167 105  24  22  17  16  17  16  16  15  15  19  25  37  54  68  73  78  79  82  86  88  90  92  95  94  94  98  98  98 100 100 100  98 102 101 103 104 108 103 110 112 112 108 107 106 106 106 106 106 104  99  96  96  97  99 102 107 114 115 112 103  88  63  30  21  19  22  29 130 189 195 196 196 194 195 194 195 194 194 195 195 194 195 194 194 194 193
 170 169 170 171 167 135  33  23  15  15  16  15  15  15  16  18  26  38  59  68  75  78  82  84  89  91  93  93  93  93  92  90  91  86  86  88  90  88  89  91  91  90  97 102 103 104 102 100  97  94  94 102  99  96  97  94  91  89  90  92  95 102 108 112 114 107  94  69  32  22  22  22  47 166 191 195 196 194 194 195 195 195 196 194 195 195 196 195 195 193 194 194
 170 169 170 170 168 162  50  23  16  14  17  16  16  16  16  19  32  46  63  70  76  78  84  86  89  90  89  87  87  87  84  81  80  77  75  78  78  77  80  82  86  90  84  87  89  91  94  93  90  90  89  90  90  87  83  82  81  79  81  87  88  89  96  99 103 106  97  76  37  24  25  27 118 186 192 194 194 195 195 194 194 193 196 194 194 193 194 194 194 194 192 192
 169 168 170 172 168 168  71  24  15  14  15  15  17  14  16  22  37  54  67  72  78  81  85  86  81  70  66  65  66  67  66  64  65  63  65  69  69  68  71  74  80  78  77  78  80  84  84  86  85  81  76  79  79  71  72  71  72  72  71  72  70  68  67  72  74  74  81  75  40  24  26  53 178 191 193 195 194 195 196 194 193 194 194 193 195 195 194 194 193 193 194 193
 170 169 169 173 170 170  77  22  15  15  16  17  16  14  16  26  44  61  69  76  78  83  79  64  39  42  41  38  35  39  39  39  40  40  43  48  53  53  58  64  71  72  72  68  69  75  79  77  76  74  60  70  67  66  67  61  57  55  54  47  44  40  37  39  40  37  42  53  43  25  26 136 187 193 194 195 195 196 195 194 194 194 194 193 194 195 195 193 194 194 196 194
 170 170 170 172 173 166  95  24  17  14  17  16  14  14  18  30  49  64  73  77  77  68  52  37  29  27  24  22  22  24  25  22  24  24  26  30  34  39  42  49  56  62  64  62  62  68  77  76  73  74  71  58  55  57  52  40  33  29  30  30  28  26  23  26  28  28  30  35  34  26  38 170 191 194 193 194 196 195 195 194 193 193 192 191 193 194 194 192 194 195 194 192
 171 172 170 171 172 168  92  26  17  16  17  15  14  14  18  32  54  67  72  78  60  40  29  28  23  22  22  22  20  20  18  16  16  16  17  18  19  21  24  30  38  43  49  60  61  65  79  82  76  70  64  49  46  43  35  28  22  19  18  18  19  21  19  21  25  25  26  30  29  28  81 178 192 194 195 195 196 195 195 195 194 192 192 192 194 192 193 192 192 193 191 192
 172 170 171 172 172 168  87  29  21  19  15  16  13  14  19  38  57  68  79  73  42  30  26  24  22  23  24  24  23  19  19  17  16  15  16  15  15  15  16  17  22  26  32  41  50  61  82  81  78  70  60  42  36  30  25  20  18  17  16  18  18  20  22  22  24  26  27  30  31  32  76 182 191 194 193 195 196 195 194 195 194 192 194 192 194 192 193 192 194 193 192 192
 173 171 170 172 173 170  91  29  25  21  15  15  14  15  19  39  64  73  78  61  39  28  27  27  28  28  30  30  31  31  29  27  23  22  19  18  17  16  16  17  18  20  26  34  50  59  80  86  87  80  64  46  31  27  23  18  19  20  22  24  28  32  32  30  32  32  33  35  36  30 151 187 192 194 193 193 195 194 194 195 194 194 194 193 194 191 192 194 194 192 192 193
 172 170 170 172 172 167 109  29  21  19  15  14  14  15  21  46  69  77  73  58  38  32  33  33  37  39  37  35  32  31  31  30  27  24  20  19  22  22  23  22  23  24  26  34  50  67  82  92  93  86  74  49  30  28  27  23  23  22  24  26  31  33  33  33  34  40  39  41  46  41 128 187 193 193 194 195 195 194 195 195 194 194 194 193 193 193 192 193 193 193 191 192
 173 171 173 171 173 146 101  61  30  21  15  14  14  16  23  51  73  80  71  53  43  41  42  42  42  37  32  35  40  42  38  32  28  26  21  20  17  17  20  24  27  30  31  36  53  74  88  99 110 107  95  56  34  32  26  22  23  26  26  26  28  31  33  38  36  35  46  51  63  48 110 164 191 194 192 193 195 195 196 193 193 194 194 195 194 194 193 192 192 192 191 191
 174 173 174 173 171  92  86  76  47  25  19  15  16  16  27  59  80  85  70  57  50  48  47  44  33  38  47  40  30  26  21  17  16  16  16  18  18  19  19  23  25  31  36  41  59  83 100 102 122 124 125  60  35  30  27  26  25  27  21  17  17  18  23  25  30  37  46  54  77  52 121 185 190 192 194 194 195 193 192 192 194 195 195 195 194 192 192 192 192 192 192 190
 171 172 172 174 170  71  48  60  49  32  28  21  19  17  30  66  88  87  76  64  56  52  49  40  42  45  29  25  27  38  32  15  13  14  14  22  22  18  22  25  28  31  36  45  60  91 115 131 144 147 143  85  39  33  29  29  31  34  19  16  17  18  28  34  24  29  44  59  88  73 164 187 190 191 192 193 194 194 194 193 192 193 193 191 192 192 193 192 194 193 194 192
 170 172 173 174 172  68  43  54  56  44  35  28  19  19  36  78  91  88  80  72  63  59  51  50  41  25  26  42  49  51  30  13  12  13  14  22  27  22  20  24  31  35  38  46  62  94 118 137 156 160 157 120  39  33  30  29  36  37  20  16  19  21  31  37  31  30  42  61  90 120 182 189 190 190 193 193 194 193 191 192 192 194 193 192 191 190 191 190 193 191 191 191
 172 173 174 173 170  70  46  63  62  56  43  32  18  19  40  82  91  92  84  76  68  64  55  46  39  36  36  39  45  50  35  15  12  14  14  27  27  25  26  28  33  37  43  50  64  94 113 136 162 170 169 138  53  41  35  31  35  38  25  20  20  24  38  41  38  44  53  75  99 118 179 190 190 192 192 193 193 194 191 192 192 191 194 193 191 190 191 190 190 192 192 191
 173 173 173 174 169  77  48  72  63  59  55  42  22  20  53  85  91  92  90  82  75  67  62  54  54  49  46  41  41  46  42  25  21  21  28  34  33  30  34  36  37  44  49  60  72  92 106 129 159 175 177 150  72  45  38  37  38  40  38  34  34  40  42  41  47  57  70  88 106 121 182 189 192 194 194 193 193 192 192 191 190 191 191 191 191 191 192 191 190 190 190 190
 172 172 172 173 170  66  54  78  72  66  60  52  26  25  57  87  90  93  94  89  82  75  70  66  62  56  52  44  42  41  39  40  39  36  33  32  31  33  36  36  38  50  62  75  82  92 100 120 153 175 177 152  86  45  41  39  38  38  38  40  40  41  43  45  54  67  86 106 114 114 171 188 191 192 192 190 192 190 190 190 190 189 191 191 190 189 189 190 190 189 190 191
 172 172 173 171 152  61  69  78  69  54  45  49  33  28  63  90  91  95 101  99  91  82  74  70  68  61  56  48  45  41  38  37  35  35  33  36  40  41  39  40  47  63  76  85  86  94  99 113 138 164 165 148 108  56  46  46  46  46  42  44  44  43  45  52  66  80 103 115 118 111 139 187 191 189 190 191 190 189 190 189 190 190 190 190 192 190 191 189 189 188 189 190
 171 172 172 172 153  66  80  68  51  36  28  40  36  29  65  89  91  98  99 102  98  90  83  78  74  69  64  54  52  46  42  43  43  46  50  50  50  47  47  51  62  73  85  90  90  94 100 110 124 153 163 149 119  72  54  50  50  52  53  54  54  57  60  70  77  94 113 121 120 111 109 183 189 188 189 190 190 190 188 188 189 190 190 190 191 190 191 190 189 188 188 190
 172 172 171 171 166  81  77  58  46  34  28  41  44  32  66  88  93  94 100 103 100  95  93  87  84  79  76  71  68  67  63  65  63  65  61  59  60  58  61  68  75  83  89  89  89  92  99 106 119 148 165 148 124  86  67  62  60  61  63  66  68  73  75  79  91 111 123 122 120 112  98 179 186 188 188 189 190 189 188 186 188 188 189 188 188 189 188 189 188 188 190 190
 170 171 170 171 168  99  72  51  41  34  32  59  45  33  66  87  93  94 100 103 101 102 101  98  93  90  83  78  78  76  71  71  69  68  68  69  72  73  77  80  85  86  88  88  87  91  97 102 117 142 162 147 126  95  73  71  70  68  68  71  72  74  80  84  92 108 119 117 113 107 103 177 186 189 188 187 186 188 187 189 188 187 188 187 188 187 187 189 187 188 189 188
 169 170 170 171 167 115  73  51  41  37  39  63  43  35  57  84  90  92  96  98 102 103 102 102  97  91  84  81  81  79  75  75  73  72  77  80  82  84  85  86  87  88  88  88  86  90  97 104 114 134 157 152 131 104  81  78  79  78  75  76  76  74  74  80  94 106 110 108 104 103 122 170 185 186 187 187 186 187 188 186 187 185 186 186 186 187 187 189 187 187 190 188
 170 171 172 169 168 115  74  54  46  43  49  63  44  38  59  81  86  86  88  91  98  99 101 102 100  91  85  81  77  76  76  80  81  81  86  89  88  88  89  86  88  88  88  86  86  92 101 111 124 136 157 154 141 122  89  83  84  84  82  77  77  78  78  84  92  94  95  95  92  96 124 174 185 184 186 185 187 187 187 186 184 186 187 186 187 187 187 187 186 187 187 187
 170 169 169 169 168 129  85  66  53  47  53  61  45  38  59  81  84  82  84  86  87  91  96  97  96  94  90  87  82  83  82  84  85  88  92  94  93  90  91  88  90  89  87  85  87  94 106 120 132 142 154 154 143 140 110  88  89  87  84  82  80  81  85  87  85  82  85  85  84  91 127 176 184 186 185 185 185 186 186 185 186 186 186 186 188 187 188 187 187 187 186 185
 168 168 170 170 168 142  98  87  63  54  55  56  45  35  53  77  80  79  80  81  84  85  86  87  89  89  87  85  84  86  88  89  88  88  92  95  92  93  93  93  93  90  87  85  87  95 112 124 131 143 143 139 142 143 132  95  91  87  88  87  87  87  91  89  84  78  74  72  72  84 145 180 184 186 184 184 185 185 185 185 184 185 185 183 185 186 186 186 186 184 183 182
 167 168 169 169 169 164 110  97  88  81  66  49  38  34  48  70  78  77  74  74  76  77  78  80  83  82  76  80  81  83  88  86  86  87  95  98  95  94  96  93  92  87  84  84  87 100 115 122 130 142 143 134 135 142 140 116  95  94  92  90  90  92  92  91  88  76  64  65  65  78 146 180 186 185 185 185 186 185 185 185 183 183 184 182 183 184 184 183 184 182 181 180
 168 168 168 168 169 166 135  80  88  94  74  53  39  36  43  63  72  73  70  68  70  70  70  69  71  74  73  75  78  85  89  90  94  96  99 102  96  94  92  90  84  81  83  88  90 101 113 118 123 142 142 139 139 142 135 125  97  95  95  97  95  94  93  93  90  76  64  65  64  79 157 182 183 183 182 183 183 185 185 185 184 184 182 182 182 183 183 183 183 182 180 179
 166 167 167 169 170 167 164  88  80  85  78  68  44  35  36  57  67  70  66  62  63  65  65  67  68  68  71  76  79  84  92  97 100  99 100  98  95  92  88  83  76  79  94  99  97 101 107 109 117 132 140 138 138 136 129 124 104  95  97 101  98  97  94  93  89  84  73  67  67  94 167 182 182 182 181 181 184 183 183 183 183 182 183 182 182 181 182 182 180 180 178 179
 166 167 168 169 169 169 167 123  82  77  66  59  40  33  32  54  65  68  60  57  57  61  63  64  66  68  69  71  76  83  92  96 100  99  97  94  92  87  81  72  75  91 102  99  98  97 101 104 112 130 131 127 126 123 124 119 107  96 100 102 104 100  93  88  87  85  78  67  69  99 171 182 182 183 182 182 181 181 182 181 183 182 183 181 181 181 181 181 180 179 180 177
 167 166 166 167 167 168 168 159  91  79  69  57  40  34  30  50  64  61  54  55  56  62  58  59  62  64  67  70  74  83  91  94  96  95  93  93  91  83  73  67  75 100 103  97  89  86  86  89  95 103 108 111 109 110 108  99 104 102  99 100 106 108 105  90  85  86  78  70  69 108 174 182 182 182 182 183 182 181 181 181 180 182 184 182 180 180 179 180 180 180 178 177
 166 166 167 168 167 168 168 166 125  86  82  67  55  40  35  49  59  60  56  57  58  59  55  59  62  63  69  75  81  88  86  91  93  93  91  89  86  79  68  64  76  98  98  88  76  67  64  65  73  81  86  88  88  92  86  69  85 103  96 100 106 108 103  95  84  86  76  71  71 129 176 182 183 182 182 182 181 181 181 181 180 181 181 181 180 180 179 178 177 178 177 177
 164 164 167 166 167 168 167 166 153  89  87  77  67  48  44  53  59  60  62  60  57  58  57  59  62  64  71  81  86  88  88  89  91  90  89  84  80  70  63  56  78  89  81  73  60  54  55  57  65  70  69  68  71  72  64  56  69  88  95  99 100 106 107  99  88  84  75  73 100 166 178 182 181 181 181 181 181 181 180 179 179 180 181 180 180 178 178 177 176 177 177 176
 165 164 165 165 166 166 164 166 163 104  84  73  62  48  52  59  58  62  63  59  59  56  58  61  61  64  76  84  85  85  86  85  88  88  87  82  76  65  62  58  68  70  58  45  34  26  36  50  59  58  56  56  57  61  51  38  56  86  93  96  98 102 104  98  88  84  80  75 109 174 180 180 180 181 180 181 180 179 180 179 179 178 178 178 179 176 176 176 175 178 178 176
 165 165 165 164 165 166 166 166 165 151  84  59  51  72  72  56  55  56  61  61  54  52  57  63  64  74  81  81  82  82  85  86  85  84  81  77  67  60  63  62  53  51  34  27  27  28  35  42  49  51  49  49  51  51  40  49  79  96  96  97  95 100 100  93  90  81  74  72 108 170 180 179 179 180 180 179 180 179 179 179 177 176 177 178 177 175 176 175 176 177 175 176
 164 166 166 166 165 165 166 166 165 163 162 148 147 159  96  57  53  58  58  58  49  52  57  62  63  72  73  78  80  80  81  84  83  81  73  69  67  67  72  74  54  40  31  31  34  36  39  41  47  48  44  42  45  39  44  63  73 100 108 103 102 106 103  95  83  76  68  71 111 175 181 181 181 180 179 179 180 179 179 180 178 176 177 177 175 176 176 175 176 175 174 176
 163 164 165 165 166 165 165 166 165 166 166 164 166 162 112  62  55  56  55  54  46  51  56  56  60  70  67  73  76  79  83  82  81  76  70  68  71  77  81  80  59  42  38  35  35  35  35  37  41  41  40  39  36  34  37  57  79 104 106 107 107 105 102  91  79  68  67  67 127 176 180 182 180 180 179 178 180 178 178 179 178 176 176 177 176 177 176 176 175 176 176 175
 164 163 164 163 164 165 166 166 167 166 167 166 167 166 131  66  52  53  51  52  48  47  54  53  60  65  66  70  73  76  78  79  77  73  71  72  78  83  84  81  62  43  40  36  34  35  31  33  34  32  33  36  37  35  35  51  72  97 100 102  99 102  98  89  76  71  69  61 142 177 181 179 178 178 179 178 178 176 177 177 177 175 175 174 175 175 177 175 174 175 174 174
 163 163 166 165 164 165 167 166 165 166 166 165 166 166 141  71  52  50  51  50  50  47  51  54  60  63  64  68  66  71  74  76  75  71  73  78  81  83  86  75  56  40  39  36  35  32  33  32  31  30  31  31  35  35  36  46  64  82  86  83  86  88  90  88  76  70  63  56 156 177 181 179 177 177 179 178 178 177 177 176 175 174 173 174 175 175 176 174 174 173 173 174
 162 164 164 163 163 163 165 165 166 166 165 165 166 165 154  80  54  50  49  44  48  45  49  52  57  59  59  62  64  70  70  72  73  71  74  78  74  73  71  65  55  42  38  35  37  33  34  35  30  28  28  30  33  33  36  44  53  67  75  82  72  72  78  83  72  64  54  57 169 177 179 179 179 177 178 178 177 176 174 175 175 174 174 175 176 176 175 174 174 174 176 174
 163 162 164 162 163 164 165 164 164 164 165 165 167 165 158 107  56  52  50  44  42  48  46  50  54  56  58  61  63  67  70  72  72  66  67  69  68  66  60  60  52  40  38  38  37  36  32  32  28  26  26  30  33  35  38  47  45  54  63  70  72  73  71  75  68  61  50  76 170 177 178 177 178 177 176 175 176 177 175 174 174 175 174 175 175 174 176 174 172 173 174 173
 163 162 162 163 163 164 164 163 165 163 165 164 166 165 160 125  56  50  51  44  39  46  45  47  52  50  52  54  62  68  71  69  63  58  61  61  57  51  48  48  45  39  36  36  36  33  32  33  29  27  26  30  31  37  44  46  45  59  62  61  62  66  61  65  65  56  46  98 171 175 177 175 176 176 175 176 176 176 175 174 174 174 175 175 174 174 174 173 174 173 175 174
 163 161 162 165 163 164 163 164 164 164 164 164 165 166 164 151  62  50  51  44  41  43  41  43  46  44  49  54  62  66  66  60  59  57  54  56  51  45  44  44  43  42  40  39  37  33  36  34  31  28  29  34  37  43  50  50  49  56  55  54  53  54  54  58  62  52  41 126 171 174 175 175 175 176 176 175 174 175 175 175 174 174 173 174 172 173 174 174 174 173 173 173
 161 162 164 162 162 164 164 163 163 164 163 164 164 163 164 161  94  50  49  47  43  44  43  41  48  51  51  57  63  66  62  53  56  55  51  51  46  44  45  48  46  49  49  49  47  42  43  39  38  34  39  45  45  50  50  51  51  53  53  47  47  47  48  55  58  47  44 147 174 174 173 175 174 174 173 173 172 173 175 174 174 174 174 174 173 172 175 173 173 172 171 172
 163 163 163 164 162 163 163 162 161 163 164 164 165 164 163 162 131  47  49  49  44  43  42  43  49  51  54  60  64  66  53  52  57  52  47  45  38  43  44  45  45  50  48  49  47  46  46  47  48  49  49  48  43  39  38  36  35  38  41  36  38  41  44  55  56  44  53 161 174 175 172 173 173 174 174 173 172 173 173 173 174 173 175 173 173 175 174 172 170 173 172 171
 161 161 162 162 162 164 162 162 162 164 162 162 163 163 163 163 158  65  49  48  44  44  44  44  47  48  53  57  63  63  53  51  49  46  43  38  34  35  39  38  40  39  34  35  34  34  36  37  40  48  43  37  35  33  30  28  28  29  33  33  36  41  47  53  53  45  91 167 173 174 174 173 173 173 171 172 171 172 174 174 174 174 173 172 172 173 173 172 171 172 171 170
 161 162 162 162 162 161 161 162 162 163 163 164 163 163 164 163 162  99  42  44  42  45  44  46  47  47  52  59  63  59  49  45  45  39  32  27  23  24  28  26  26  25  23  24  26  27  28  28  28  31  29  28  27  29  30  30  29  36  41  40  40  44  49  53  48  46 119 169 173 172 173 171 172 172 172 173 172 173 174 173 172 173 173 171 172 172 172 173 172 170 170 170
 160 161 160 162 159 162 162 162 162 162 163 162 162 162 164 163 162 154  56  43  44  44  43  45  41  42  47  55  60  57  49  43  38  32  26  19  21  21  23  25  27  29  30  28  26  25  24  22  20  23  27  30  33  41  40  38  39  48  48  47  42  41  45  47  43  49 151 169 173 171 171 170 171 172 171 172 173 172 172 173 171 170 171 170 170 171 172 173 172 172 170 169
 159 161 162 160 160 163 161 162 162 162 162 162 162 162 164 164 164 158  96  43  43  43  44  47  42  43  47  54  59  56  50  42  37  32  28  30  35  36  32  34  38  42  43  46  44  41  38  40  38  39  40  43  45  45  43  43  47  52  50  48  44  40  44  44  39  78 163 169 171 170 171 172 172 170 170 171 172 170 171 172 172 170 170 170 171 171 172 171 171 171 169 169
 159 159 161 162 161 162 160 160 160 160 161 162 162 162 162 163 162 161 140  40  43  39  43  43  43  43  46  50  54  54  48  39  37  33  35  38  43  47  48  47  46  50  51  50  51  50  49  50  46  47  45  45  44  44  44  45  50  51  50  50  45  39  45  41  44 120 166 170 170 170 170 170 172 171 170 172 170 170 170 171 169 169 170 170 171 171 170 171 171 170 168 168
 157 158 158 158 159 160 161 158 161 160 162 163 161 162 161 162 161 159 157  78  43  38  37  40  43  40  44  47  51  51  45  40  37  36  36  39  44  49  52  54  53  53  51  49  47  47  48  48  47  47  45  42  45  47  46  47  47  47  48  48  41  35  39  40  75 156 166 169 168 169 169 169 169 171 169 171 171 171 170 171 169 169 170 170 171 169 169 169 170 169 168 167
 156 157 157 157 158 157 160 158 157 158 159 159 160 159 160 160 159 161 159 124  45  36  37  38  42  37  41  43  46  46  44  41  38  38  39  42  43  46  49  48  49  50  49  48  45  44  43  42  45  43  44  44  47  46  42  39  42  47  47  46  39  33  34  38  86 149 158 165 166 167 168 169 168 169 167 170 169 168 168 170 169 169 169 169 170 170 169 169 168 167 166 166
 156 156 157 158 156 157 156 156 156 157 156 157 158 159 158 158 157 160 158 151  60  33  34  35  34  35  39  42  42  43  38  37  36  37  36  37  41  41  40  41  38  40  40  39  41  39  39  37  39  37  38  39  36  35  35  37  42  46  47  40  33  30  30  39  71  89 103 121 140 155 164 166 167 169 166 166 166 167 167 167 167 168 166 166 167 167 167 168 169 168 167 167
 156 155 156 156 156 156 156 154 156 156 156 156 156 158 157 155 156 155 143 119  68  37  29  30  31  31  35  38  39  38  35  32  32  33  32  38  37  36  36  37  34  32  31  29  31  28  23  21  21  24  23  26  29  34  37  40  44  44  45  40  32  29  27  34  48  54  67  82 101 112 126 147 164 165 167 166 166 166 166 166 166 166 167 165 166 166 165 167 167 166 165 165
 155 154 155 155 154 156 156 155 156 155 156 156 157 157 156 154 140 101  82  67  59  51  28  28  30  30  30  36  36  36  33  30  29  27  31  34  35  36  36  34  32  30  28  26  25  20  16  16  16  19  22  25  30  37  40  44  43  44  44  39  31  27  22  26  30  34  39  56  73  93 111 117 127 150 165 165 166 165 164 165 166 166 165 164 164 163 165 164 164 164 165 162
 153 154 154 155 155 155 154 155 156 155 157 156 155 156 155 134  80  70  61  54  56  57  42  28  25  28  28  33  31  34  31  30  28  25  30  33  35  35  37  35  33  32  28  26  23  19  20  19  20  20  23  27  32  42  47  46  45  43  42  37  31  27  24  27  28  28  33  41  54  75  90  95 106 110 137 164 164 163 164 164 165 164 165 164 164 163 163 164 162 163 162 162
 154 154 154 153 154 153 154 155 155 154 155 156 153 134  88  77  65  55  49  41  40  62  49  36  25  26  27  30  29  30  29  30  24  25  27  31  31  34  37  35  35  34  32  29  24  22  24  24  23  24  26  30  35  44  45  45  41  42  38  32  32  52  52  29  26  27  32  31  39  60  78  82 102 100 100 140 159 161 162 161 163 163 163 162 162 162 162 162 162 161 160 161
 154 152 152 152 153 154 154 154 152 153 154 153 150  74  50  64  55  44  43  39  31  61  53  43  37  26  26  26  29  32  29  28  25  25  27  29  29  30  32  34  37  37  36  29  23  23  26  26  23  25  27  29  30  39  38  35  34  35  35  29  31  62  84  85  54  32  29  30  39  58  81  89 100 101  93 112 144 154 159 160 162 161 160 161 161 161 162 160 160 159 157 156
 154 150 150 151 152 154 153 152 153 152 151 148 105  61  48  59  55  46  38  30  27  62  56  46  40  36  36  28  25  27  26  25  24  25  26  27  27  28  30  30  38  34  31  28  24  22  25  28  25  25  26  26  31  34  36  32  29  30  28  21  37  43  64  80  85  71  35  29  35  55  78 102 100 102  92 110 124 137 146 154 159 158 158 158 158 159 161 158 158 156 156 159
 150 149 150 150 150 151 150 150 150 149 139  98  75  55  44  60  57  51  42  27  22  58  57  49  44  40  42  39  30  23  24  24  23  23  24  26  28  27  27  30  31  31  30  30  28  25  26  29  26  27  26  23  28  34  32  30  28  28  24  32  39  32  41  53  64  84  83  38  29  44  72  98 106 101 102 108 116 123 134 138 151 156 158 157 159 159 158 157 156 155 156 157
 148 149 148 148 149 148 150 150 147 119  86  71  68  54  44  57  53  49  41  26  17  56  60  52  43  41  40  40  41  32  23  22  22  23  22  23  28  28  28  31  31  30  29  30  29  27  23  23  24  23  20  22  27  32  30  29  30  25  28  47  86  62  24  34  50  65  85  87  38  34  62  93 104 105 108 112 110 109 120 127 140 151 157 157 157 156 156 156 156 154 155 156
 148 147 143 128 123 130 137 128 105  86  71  69  68  52  42  54  52  49  39  21  23  60  62  52  46  39  38  39  40  42  37  25  19  21  22  22  24  26  29  30  30  29  25  26  27  24  22  24  23  20  21  22  24  25  27  25  25  26  39  55  90 135  64  26  35  49  58  78  89  34  43  86 104 114 111 105 106 114 116 119 125 136 144 147 154 154 154 156 155 154 155 155
 145 143 108 104  99 100  94  88  79  70  70  70  61  46  41  59  48  45  39  23  28  61  62  57  50  42  37  36  39  41  42  40  32  19  19  20  22  22  28  26  25  23  23  23  24  24  22  23  22  20  19  21  22  24  23  20  26  36  49  58 102 114 153  57  26  37  47  63  89  80  36  67  94 112 117 105  87  97  92 114 129 132 128 124 141 141 140 142 152 152 154 153
 128 120  80  90  86  85  80  80  69  69  70  55  56  43  38  58  49  42  40  22  28  59  62  58  49  44  37  36  37  42  44  42  39  30  25  17  18  19  23  24  25  25  21  20  24  22  22  20  19  19  18  20  20  22  24  31  37  42  50  64 100 112 140 145  45  30  42  50  65  80  58  51  82 105 118 111  80  88  98 109 114 131 133 131 128  89  74  98 126 142 150 150
  99 100  73  70  83  84  88  82  72  69  67  64  60  48  43  63  52  44  39  22  29  58  62  59  52  46  43  39  37  38  42  41  40  40  33  25  21  20  20  23  24  21  19  18  20  18  17  16  17  16  15  17  19  29  35  36  39  46  54  66  97 120 102 166 102  41  42  45  57  71  85  48  69  90 115 116  76  76  98 104 103 121 125 121 119 126 117  91 110 128 142 150
 103  96  84  66  77  77  81  80  70  68  67  63  58  44  43  62  52  45  38  23  29  55  62  58  56  48  44  41  43  40  44  42  41  38  35  34  29  26  24  19  20  19  16  15  16  15  14  13  13  14  18  23  31  35  37  40  44  49  59  70  92 117 104 155 153  66  43  50  54  64  93  70  69  92 108 115  83  61  87  96 100 117 118 126 120 119 124 106 105 119 126 146
  93  92  82  75  56  72  77  78  73  74  65  60  54  49  44  57  53  43  41  26  28  54  61  58  53  50  46  41  42  43  44  42  42  40  38  34  29  31  29  28  26  22  19  16  19  18  23  23  20  23  26  32  35  36  38  42  47  54  62  70  86 112 118 122 171 104  49  56  58  59  87  92  60  94 106 111  88  58  77  91  99 108 115 111 121 117 117 110 114 123 128 139
  94  94  92  83  66  62  74  74  75  67  67  61  53  44  38  57  53  46  41  31  28  48  57  57  54  52  46  45  43  42  44  42  43  42  38  37  34  31  31  30  28  24  23  23  27  27  29  31  30  30  31  36  39  37  39  43  50  54  64  71  86 106 121 112 168 155  58  54  59  63  77  88  62  86 103 108  93  58  70  88  99 105 112 106 103 113 117 110 116 117 121 132
  88  89  85  81  72  58  74  80  79  70  67  65  56  48  44  57  55  51  46  33  24  42  54  56  53  52  47  46  43  42  44  42  44  42  37  36  36  33  31  30  29  28  26  27  28  29  29  29  30  32  34  37  38  39  42  45  52  56  65  72  87 103 118 118 151 176 103  59  75  80  82  99  71  79  99 109 105  60  63  88 101 109 104 110  99 108 107 110 116 122 117 111
  88  85  88  90  74  60  60  79  82  73  67  61  60  55  51  51  59  56  50  39  21  37  51  54  52  52  50  46  44  45  45  44  45  42  39  37  34  33  33  30  29  30  30  30  30  29  25  28  31  35  37  39  38  42  46  50  54  59  66  71  87  99 116 125 127 177 150  56  74  84  90  93  81  66  97 108 110  66  62  83 100 107 105 104  94 104 104 109 118 121 115 116
  87  85  84  81  80  71  50  70  77  74  57  49  48  52  59  57  64  55  53  42  21  30  44  52  53  52  49  48  45  45  45  44  45  45  44  39  37  35  31  30  29  31  31  31  31  28  26  30  34  36  38  40  43  45  48  51  53  61  67  77  86  98 112 123 114 169 170  77  74  85  84 101  92  64  99 110 113  75  63  88  81  98 104  98  94  99  95 109 116 116 115 113
  77  84  82  90  84  78  65  57  76  72  69  60  63  52  51  55  57  51  48  43  24  26  38  49  53  50  48  49  48  47  45  44  43  43  43  41  36  36  34  32  30  30  31  31  28  26  26  33  37  38  40  41  44  47  50  51  56  63  70  77  85  96 108 121 120 146 172 112  68  83  91 100  96  61  93 111 117  79  60  79  88 108 115  94  92 100  90 114 113 107 107 103
