P2
# Generated by OpenCV 3.4.0
92 112
255
 151 153 154 157 157 155 155 156 159 160 161 161 161 162 164 164 164 165 165 165 166 165 166 167 167 168 168 169 169 166 165 161 150 122  84 115 118  98  70  69  77  71  59  50  79  96  80  75  74  71  72  75  73  71  67  65  66  56  61  87 112 134 150 167 182 190 190 191 191 194 193 193 194 194 196 195 197 196 196 197 196 198 197 198 198 202 198 201 201 201 201 199
 153 155 155 156 156 157 158 159 160 160 160 162 160 160 162 163 164 165 166 166 166 167 167 166 168 169 170 170 171 170 172 170 167 154 106  91 112 112  73  54  60  69  83  58  59  79  65  62  62  55  56  58  62  71  66  59  58  54  53  61  72  83 106 143 173 188 189 192 192 193 193 194 194 195 194 195 195 195 195 197 199 199 200 200 201 201 201 201 201 200 202 201
 154 155 155 158 159 159 160 161 161 160 161 161 162 162 164 165 166 166 166 166 167 166 168 168 169 170 171 172 172 172 171 170 170 164 133  89  93 103  78  56  52  67  98 104  70  54  47  47  48  42  44  42  45  51  54  50  45  44  51  50  48  52  66 105 152 179 188 189 192 194 194 193 194 194 194 195 196 197 197 199 197 199 199 198 200 202 201 202 202 201 201 202
 156 156 155 159 160 157 161 161 162 160 162 164 163 164 165 165 165 166 167 168 168 167 168 169 169 171 171 171 172 173 173 173 173 172 160 113  86  94  80  49  44  64  80 101  72  49  32  34  33  31  32  29  30  35  42  48  42  42  50  44  38  38  45  65  99 145 172 185 192 193 193 193 193 194 196 196 196 196 197 198 198 197 199 198 198 199 200 202 200 198 200 201
 156 156 158 158 159 159 159 161 162 163 164 164 164 166 166 165 166 167 169 167 167 168 170 169 170 169 171 171 172 169 164 161 162 165 165 132  84  77  63  40  40  54  67  76  56  38  28  26  26  27  25  23  25  27  29  39  43  40  41  44  45  39  38  47  71 107 133 164 181 187 191 192 193 193 195 195 196 195 196 195 196 197 198 200 198 200 200 198 196 198 199 202
 155 158 159 160 160 161 162 161 164 164 164 163 163 165 165 166 168 167 168 168 167 171 169 169 170 172 169 170 165 155 151 150 141 138 134 102  66  58  45  36  37  45  51  50  36  28  25  22  22  24  20  20  21  23  21  23  30  35  34  36  47  44  44  47  55  72  78  97 121 152 176 188 191 193 194 196 195 196 196 196 195 197 197 197 199 199 199 200 198 199 202 201
 157 158 160 161 161 162 163 163 162 164 165 165 165 164 165 167 168 168 167 169 167 167 169 169 170 170 169 171 167 162 160 147 101  69  52  48  44  40  32  33  36  31  36  34  26  24  20  17  17  18  22  20  19  21  24  25  23  28  28  29  30  39  43  47  48  53  59  67  77 110 150 178 189 191 195 195 196 196 196 196 195 196 198 197 198 198 197 198 199 197 200 202
 159 160 159 160 161 162 163 164 163 165 166 165 165 165 166 168 167 168 168 168 168 169 168 168 170 169 169 169 168 164 135  59  51  46  42  36  35  30  27  31  27  24  20  21  23  20  18  14  14  14  15  16  18  19  25  34  40  36  34  28  27  26  33  36  43  48  54  52  58  75 110 147 171 182 192 196 196 195 196 197 196 197 198 197 198 198 201 201 198 197 197 200
 160 160 160 160 162 164 164 163 164 164 166 165 166 167 167 167 168 169 169 168 170 171 168 170 170 168 162 155 129 111  58  39  46  46  42  31  27  23  21  24  21  17  14  17  18  17  17  16  13  13  14  16  20  22  23  23  27  29  37  36  32  28  26  26  31  35  41  47  53  65  74  94 120 162 183 192 195 196 196 196 196 197 196 198 198 197 198 198 200 199 199 200
 160 162 161 161 163 163 164 165 165 165 165 166 166 166 167 166 169 168 169 170 170 171 170 169 165 158 147 123  99  67  46  48  46  39  30  21  17  18  16  18  18  15  14  14  15  14  15  18  16  16  18  22  23  24  29  31  32  31  29  25  27  31  29  21  22  25  28  35  43  49  58  61  67 102 162 188 195 196 196 196 196 198 198 197 196 196 199 199 201 201 202 200
 162 162 162 162 162 165 164 165 165 167 166 165 166 166 167 166 169 168 170 171 172 170 168 168 158 136  94  78  63  55  51  45  37  27  19  15  14  15  14  14  15  14  13  14  12  14  14  14  16  19  22  24  22  20  20  25  32  42  41  31  25  26  29  28  24  22  23  26  30  35  46  52  52  56 100 169 190 193 195 196 196 198 200 197 197 198 200 200 201 202 201 200
 162 162 163 164 164 164 165 166 166 166 165 166 166 168 167 168 170 171 171 171 172 172 170 156 102  58  58  51  50  47  44  41  38  28  19  17  13  12  12  13  13  13  14  13  11  13  16  18  22  24  20  22  25  26  23  18  21  27  33  32  30  25  25  29  28  26  21  22  24  27  33  39  42  45  59 133 176 189 193 195 196 199 202 198 198 199 200 201 202 202 200 201
 164 164 165 165 164 165 165 166 166 166 166 167 165 166 167 169 171 171 172 172 172 168 127  59  49  43  41  39  39  35  34  32  30  31  32  24  16  14  13  13  14  15  15  14  16  16  18  22  25  24  21  17  20  27  34  26  18  18  22  24  26  26  19  22  34  32  27  20  22  28  28  30  31  36  45  83 135 160 182 192 196 199 200 197 201 200 199 198 201 200 198 199
 162 163 164 165 164 166 166 166 168 166 166 167 167 167 168 169 171 172 172 172 171 107  48  43  37  33  36  34  30  30  29  27  23  24  22  19  17  18  18  18  15  16  17  20  23  24  23  25  25  23  20  16  14  15  22  29  26  20  16  17  19  23  22  20  24  31  27  21  22  29  30  28  29  29  37  61  90  94 148 183 194 198 200 198 200 198 202 201 202 201 201 200
 163 164 164 165 166 165 166 167 168 166 167 168 170 170 168 169 170 172 172 168 114  75  46  34  31  29  31  30  27  27  24  23  21  20  17  18  18  18  18  21  25  25  23  25  28  27  25  25  23  20  17  16  18  13  16  20  25  32  26  24  24  20  25  25  18  22  26  24  20  27  32  30  29  25  31  47  78  73  86 148 184 194 198 198 200 201 202 202 200 200 202 201
 164 164 165 165 166 167 167 167 168 168 167 169 169 170 170 171 172 171 167 144 113  61  35  30  29  28  28  27  26  21  18  18  18  20  20  17  19  21  22  21  25  26  28  26  22  21  19  17  19  20  20  22  26  26  22  26  26  34  34  34  41  35  26  30  25  21  18  23  21  22  26  28  26  21  26  38  60  58  64  94 157 189 197 199 198 199 201 202 202 202 203 201
 164 166 166 165 166 168 169 167 168 169 170 170 171 170 169 172 172 172 168 159  72  37  30  28  28  26  25  25  27  23  17  16  18  18  19  19  21  20  22  22  23  27  26  22  17  16  17  18  23  26  24  25  32  40  40  44  32  33  32  29  37  44  36  32  28  24  18  20  22  18  19  22  25  22  25  38  58  49  42  61 122 179 196 198 201 200 203 203 203 202 202 200
 165 165 166 165 165 167 167 167 169 169 170 170 170 169 171 172 172 172 159  95  43  32  28  27  27  23  20  22  26  23  21  21  21  22  21  21  22  20  22  22  23  23  21  19  17  17  18  20  25  29  30  28  31  41  44  46  38  31  33  30  29  30  33  32  30  27  23  22  26  21  16  16  17  23  25  34  49  39  36  44  76 170 192 197 200 199 201 202 203 203 203 202
 165 166 164 165 166 167 166 168 170 171 169 169 170 171 172 171 168 154  71  41  36  31  27  28  24  20  18  17  21  24  24  23  19  21  21  23  22  22  21  19  20  20  18  18  19  20  21  21  24  30  37  34  34  34  33  31  34  30  33  36  37  33  28  26  24  24  26  28  32  34  25  17  16  17  24  30  38  30  34  38  49 142 186 198 200 200 202 202 203 203 202 203
 164 164 165 167 167 168 168 169 170 168 169 169 170 169 169 167 156  80  43  38  33  30  28  23  21  18  15  14  15  20  21  21  18  19  20  24  22  22  20  19  18  18  18  19  18  22  24  26  29  32  37  38  36  32  26  22  21  25  28  32  36  39  36  31  28  26  26  24  25  31  31  24  17  16  21  26  28  25  26  30  42 102 177 192 198 201 200 202 201 200 202 202
 165 166 166 168 169 168 169 169 169 168 167 168 169 170 167 160 111  45  37  35  30  26  26  24  21  15  16  14  15  17  18  18  17  17  21  21  25  23  18  17  17  17  18  19  19  22  23  25  28  30  29  28  27  25  20  16  15  17  19  19  22  28  33  32  32  30  29  25  18  18  23  22  22  19  20  20  21  22  24  27  36  93 167 189 199 200 200 200 201 202 200 202
 167 168 169 169 169 168 171 170 168 170 169 170 170 172 171 155  47  36  32  30  24  25  24  24  19  16  17  16  15  14  15  18  20  20  22  22  22  19  17  17  17  17  17  17  18  20  19  19  20  20  17  16  15  15  15  13  13  13  15  14  15  16  18  18  20  20  22  24  21  17  17  19  20  21  22  18  18  19  22  25  38  90 156 183 197 200 201 201 201 200 199 200
 169 168 169 168 169 169 169 169 168 170 171 170 172 173 170  86  34  32  28  26  23  22  19  19  20  17  18  17  18  15  16  17  20  19  21  20  17  17  17  17  18  17  16  17  18  18  16  16  15  14  12  11  10  11  11  12  11  12  14  13  12  13  12  12  13  15  14  16  17  18  17  17  18  18  20  20  19  19  20  24  45  96 136 175 195 199 202 200 201 201 201 198
 167 168 169 168 169 170 170 168 168 169 172 173 172 171 137  38  32  28  26  22  22  18  16  15  21  22  18  17  16  17  16  16  19  19  20  21  17  16  16  16  18  17  16  17  18  16  16  16  15  13  12  12  11  12  11  10  12  12  11  12  12  12  12  12  11  13  14  14  18  17  17  16  18  17  17  20  21  19  23  25  46  82 125 167 191 197 200 201 200 199 200 199
 167 168 168 168 168 170 170 171 168 168 170 172 168 162  66  35  28  26  23  21  17  16  17  17  19  23  22  18  17  18  17  18  18  21  18  19  18  19  16  17  17  18  16  17  16  17  19  18  17  16  16  15  15  13  12  12  12  11  11  12  12  12  12  12  12  13  14  14  17  16  17  16  17  16  17  17  21  22  22  28  42  72 137 169 187 194 197 198 198 198 199 200
 168 168 168 168 169 169 170 170 168 169 172 172 168 144  48  29  28  24  24  21  18  18  17  16  18  19  21  21  20  18  17  17  17  21  21  23  23  22  20  21  21  19  17  17  18  21  25  22  21  21  22  21  21  20  17  15  14  13  13  12  13  13  13  12  12  13  14  15  17  18  18  18  17  18  16  17  19  21  24  30  50  92 142 163 183 194 196 197 197 198 198 197
 168 168 169 169 168 170 170 170 169 169 170 172 169 142  39  31  27  22  20  18  17  16  16  17  17  15  17  20  23  21  19  18  21  23  25  25  25  27  28  26  24  22  19  20  23  26  30  30  30  31  32  32  31  30  28  24  21  17  15  14  13  14  12  12  12  12  13  16  17  18  18  17  18  20  20  18  19  20  22  30  62  92 120 154 183 194 196 197 198 196 195 196
 169 167 168 167 169 170 171 172 172 169 169 172 167 137  34  30  25  23  20  17  15  16  17  16  16  16  16  16  19  21  23  24  28  30  31  33  37  38  35  33  29  25  24  25  29  34  36  40  41  42  44  46  44  41  39  36  31  28  25  21  16  16  14  15  13  13  13  14  15  16  16  16  17  18  18  19  18  21  22  33  60  69  71 126 183 194 195 196 197 199 195 196
 169 167 169 168 168 171 171 172 173 171 172 172 169 132  33  28  22  21  17  16  16  15  16  16  16  17  17  17  18  20  25  30  37  43  46  49  54  53  45  41  33  30  32  34  38  42  47  50  51  53  55  53  53  52  50  46  44  40  37  31  26  22  19  16  14  14  13  14  14  15  15  15  16  18  18  20  18  22  24  33  51  48  52 108 169 192 196 195 198 196 196 198
 167 168 167 168 169 171 171 170 172 172 172 170 168 114  35  24  20  20  16  18  16  16  17  16  15  17  20  19  21  24  30  37  44  49  57  62  70  72  67  54  46  44  45  48  50  53  57  57  58  60  63  62  62  60  57  55  52  50  46  43  38  33  28  21  18  15  14  14  15  16  16  15  17  18  21  23  23  25  27  34  45  44  49 104 150 185 195 197 198 196 198 197
 166 167 169 170 168 169 171 171 170 172 172 170 164  80  34  22  21  18  16  16  16  17  16  15  17  17  17  17  19  25  30  37  48  54  62  71  81  87  85  78  68  62  60  60  63  64  64  65  66  67  69  68  68  67  63  63  59  57  53  51  47  46  37  31  26  19  18  17  18  19  18  18  18  19  19  22  24  27  30  33  35  40  56  75 132 179 192 194 197 197 198 197
 168 168 169 169 169 169 171 172 169 171 172 170 167  65  31  23  19  18  18  16  17  17  16  18  17  16  16  16  19  23  28  35  45  56  66  78  86  94  95  94  87  78  73  72  71  72  72  72  72  73  74  75  74  71  70  69  67  61  57  56  53  52  48  42  35  30  26  25  24  25  23  22  20  21  20  20  22  28  35  36  34  40  50  63 128 169 186 194 195 196 195 196
 168 168 168 170 170 168 172 170 169 170 172 170 160  49  28  22  18  18  19  14  16  15  15  17  16  15  16  17  19  22  29  37  47  57  70  81  87  96 100 100  97  90  84  78  77  76  74  75  78  78  78  77  79  77  75  72  72  68  62  60  57  54  52  50  47  41  36  33  32  31  30  28  27  25  22  20  22  27  34  37  36  36  41  76 138 164 179 191 195 196 195 195
 168 170 168 169 170 169 170 171 172 172 172 170 145  35  28  23  17  18  16  14  14  13  16  17  15  14  16  16  20  24  30  38  48  59  69  78  85  94 100 101 101  96  90  83  83  84  80  79  82  81  79  79  79  78  78  75  74  71  66  64  62  58  54  53  51  49  45  42  38  35  34  34  31  30  28  22  21  24  31  33  36  32  46  91 137 144 168 185 195 196 195 195
 167 168 168 168 168 169 170 171 171 173 173 168 111  30  26  23  19  19  15  15  13  13  16  17  15  14  16  18  22  26  31  38  47  53  65  76  87  92  98 100 100  98  94  90  89  86  83  83  84  82  81  79  80  78  77  77  76  72  68  66  65  62  57  54  55  52  51  47  42  42  38  40  37  32  31  26  22  23  27  30  35  37  57  82 103 105 152 187 193 195 194 193
 168 169 168 169 168 169 170 170 172 173 170 165  88  28  25  21  18  17  14  13  12  13  16  15  15  15  15  18  21  25  30  36  44  54  68  78  85  92  98  99 100 100  97  95  92  88  85  85  85  84  83  83  83  79  78  75  75  72  68  67  66  62  58  56  55  55  51  49  46  45  42  44  44  38  36  35  26  22  25  29  33  40  61  79 118 129 166 190 195 194 195 193
 168 168 168 171 170 171 170 172 171 172 169 165  77  27  24  19  17  15  14  12  12  14  15  15  16  15  16  18  21  24  28  34  42  58  73  82  87  92  96  99 100  99  97  95  94  90  90  88  88  88  86  85  84  83  78  78  75  73  70  68  66  64  60  57  54  54  52  49  49  47  46  48  46  40  39  45  28  23  25  29  32  40  56  77 118 145 166 191 193 193 193 193
 168 168 170 169 170 170 169 170 171 171 172 166  55  27  21  17  16  14  12  12  12  15  15  14  14  15  16  16  19  24  28  38  50  68  80  83  86  92  96  99  98  98  98  95  96  95  94  94  93  92  89  86  86  85  82  78  76  76  72  70  71  66  62  60  56  53  51  51  50  50  48  50  45  38  37  44  33  28  28  30  36  50  61  82 125 147 172 191 194 193 192 193
 168 169 169 169 170 169 169 171 172 172 170 162  40  27  21  18  14  14  12  13  15  15  14  14  15  16  15  17  20  27  34  45  60  76  84  86  88  91  96  97 100 100 101  98  99  99 100 100  98  92  92  93  91  89  86  83  80  78  74  72  70  67  63  63  60  56  54  54  51  50  49  49  47  41  37  38  34  28  32  35  40  54  66  90 112 141 176 190 192 192 192 191
 169 168 169 170 169 170 170 173 173 172 168 157  39  24  22  18  14  14  13  14  14  15  15  14  16  15  16  21  28  38  47  56  71  80  84  87  90  94  95  98  99 101 100  99 101 103 105 105 103  99  99  98  95  94  92  86  85  83  80  77  72  70  68  65  62  60  55  53  51  53  52  49  49  43  41  45  40  29  32  36  43  61  83 117 151 158 182 190 191 191 191 192
 169 169 169 170 168 170 171 171 172 169 166 150  28  26  21  21  18  17  17  16  15  15  16  15  16  17  21  28  39  49  59  70  78  84  89  90  91  93  96  99 102 101 101 101 102 103 106 106 106 107 105 101  99  97  94  92  92  90  86  83  78  75  72  69  67  63  57  56  54  55  52  50  50  46  43  47  46  37  46  60  85 108 127 150 168 180 189 190 191 191 191 193
 167 169 169 170 171 169 170 171 172 169 159 113  61  28  16  16  18  18  16  15  15  15  15  15  16  17  27  39  52  62  70  77  84  87  90  91  92  95  99 101 102 104 102 101 101 104 105 107 107 108 109 108 103 104  99 100 101  94  90  88  83  81  78  74  71  65  63  60  56  54  52  52  49  48  47  51  48  35  43  89 123 142 154 168 181 188 190 192 192 191 190 192
 168 169 167 168 169 170 171 172 171 163 116 106 109  95  32  15  14  16  17  15  14  14  14  14  17  23  37  49  61  71  80  84  88  90  92  93  94  99 100 102 104 105 106 105 105 103 100 103 103 105 105 106 105 106 103 105 103  97  94  90  87  85  82  78  73  69  67  63  60  58  52  51  49  50  50  54  51  37  46  56 114 146 165 175 184 189 189 189 191 190 190 192
 169 167 168 168 169 170 171 172 170 118  52  48  72 101  84  29  16  16  16  15  14  14  15  17  21  31  49  61  68  77  85  87  90  91  92  94  96  99  98  99  98  98 101 101 100  99  95  98  97  97  98  98 102 105 105 105 103  98  94  91  88  85  84  81  77  74  71  66  63  60  54  51  51  51  53  55  52  34  60  81  73  94 126 159 184 188 188 188 189 190 191 191
 168 168 169 169 169 170 172 172 159  67  45  49  55  76  84  61  27  18  14  14  14  14  17  18  26  40  61  73  79  82  90  93  94  93  91  89  87  86  83  82  76  72  77  81  83  86  86  86  87  89  90  92  95  98 100 100  98  98  97  92  87  82  82  83  79  74  72  70  67  64  61  53  52  54  56  55  51  32  45 108 137 131 137 172 187 188 190 188 189 188 189 191
 169 168 169 169 169 170 172 171 126  52  47  58  62  58  66  56  34  24  16  15  15  16  18  21  33  55  71  85  88  90  94  94  95  90  80  68  61  58  55  51  43  43  45  50  55  61  68  72  75  77  79  80  85  90  90  91  94  94  94  89  84  83  84  83  81  77  77  76  72  70  68  60  59  60  57  57  47  31  33  75 135 174 179 187 189 189 190 189 189 190 189 189
 168 169 170 168 168 169 170 166  86  49  56  71  68  52  55  64  46  31  21  16  16  17  18  27  46  69  82  90  92  92  94  91  86  75  56  45  39  36  34  31  28  28  29  30  33  39  45  52  57  63  66  68  73  80  79  82  86  87  87  86  84  83  85  85  84  80  80  79  76  76  70  65  64  66  61  59  42  30  36  83 111 167 184 190 191 190 189 189 189 189 189 189
 170 170 172 169 168 169 171 133  61  51  75  79  67  53  52  72  53  35  23  17  18  20  23  35  63  83  90  98  97  93  92  84  72  56  41  34  29  30  28  26  23  23  23  23  23  27  29  32  37  43  48  55  64  71  71  74  77  79  82  84  82  84  84  84  84  83  81  79  78  75  72  68  68  70  64  59  39  29  45  95 156 173 186 189 189 192 191 190 190 188 190 188
 169 170 170 170 170 171 169  85  55  63  96  93  77  63  54  74  60  48  31  19  22  20  27  51  82  93  99 107 102  95  87  74  62  51  41  34  32  31  30  28  27  25  24  24  23  21  21  22  24  27  30  40  50  57  63  67  72  74  72  77  79  80  80  79  80  81  79  77  74  72  70  69  69  70  67  57  33  32  85 127 180 188 188 190 190 192 190 189 189 188 188 189
 169 170 170 171 171 173 157  77  61  95  94  87  85  79  69  67  62  62  44  21  23  23  36  69  93 102 105 107 101  96  81  69  58  52  45  40  39  37  36  37  35  33  31  29  26  23  20  17  18  19  20  26  33  45  50  58  65  68  68  70  71  72  73  73  74  75  73  72  72  69  66  65  65  67  66  57  32  74 136 170 187 189 190 191 191 190 189 188 189 189 189 190
 170 170 169 171 172 172 148  78  88  91  76  62  49  39  36  51  59  65  58  28  24  25  49  86  98 102 105 106 100  95  85  72  60  53  50  47  47  45  44  44  42  42  39  36  34  31  26  21  18  16  16  16  21  29  37  47  56  62  61  62  64  68  69  68  71  71  70  67  66  65  61  61  62  65  64  53  67 157 169 184 190 190 190 190 191 189 189 189 190 190 189 189
 170 169 168 172 172 171 142  91  94  72  57  48  38  30  29  39  55  64  67  31  24  31  63  89 101 103 105 106 103  98  90  79  66  59  52  49  46  44  46  45  43  44  43  43  41  37  33  29  24  20  18  16  16  20  25  35  46  52  53  56  60  64  62  63  63  64  63  60  60  59  58  57  60  63  64  70 155 185 187 190 191 190 189 191 191 190 191 190 192 190 190 190
 169 169 170 172 172 171 140  95  86  60  47  41  34  32  33  38  64  70  69  35  24  37  74  94 101 103 104 106 106 102  96  84  73  63  55  49  42  44  48  50  48  49  49  48  46  39  33  29  28  25  22  19  17  18  18  26  34  42  50  52  58  62  58  58  54  56  53  52  52  52  51  52  54  56  60 109 181 190 190 191 191 190 189 190 192 190 191 190 191 189 190 190
 168 172 171 174 173 171 148 100  78  52  44  41  40  41  42  65  96  83  70  40  27  44  78  96 102 100 100 106 109 106 101  94  82  70  57  48  39  38  41  44  43  42  43  43  43  38  31  28  26  24  25  25  22  20  19  22  27  36  44  52  59  65  58  55  52  49  48  47  46  46  44  44  45  48  53 111 184 189 190 189 190 190 189 189 190 190 189 190 191 190 190 190
 169 171 171 173 173 172 152 103  78  57  48  46  49  50  51  88  98  93  61  42  33  55  83  98 102 100 103 106 111 108 105 103  96  84  70  54  42  34  30  29  30  29  23  22  23  24  25  26  25  23  24  25  26  26  24  24  28  33  44  54  62  68  56  54  48  38  38  37  34  32  34  33  35  35  41  89 183 188 189 189 189 189 190 190 190 190 191 191 190 190 189 188
 170 170 171 173 174 172 159 101  88  70  58  54  60  57  60  97  96  94  49  40  40  61  89  99 103 102 106 110 109 113 112 111 108  98  87  71  53  42  35  30  32  31  17  13  14  16  18  24  20  23  24  25  28  29  29  30  31  36  51  61  69  70  58  51  40  30  28  26  23  23  24  23  23  24  28  48 182 188 188 190 188 189 191 192 192 191 192 190 189 190 190 188
 171 171 172 174 174 172 162 101 104  94  74  70  74  65  60  91  92  79  46  44  48  63  91  99 101 106 108 110 110 115 114 114 111 107  98  86  67  53  45  35  34  33  21  15  16  18  26  28  20  21  24  26  28  30  34  37  38  47  62  73  76  75  63  50  32  24  20  17  17  18  18  19  18  19  23  24 165 188 187 188 189 188 189 189 191 189 190 191 190 190 189 189
 172 172 172 173 172 173 171 100  96  98  97  87  86  71  63  83  91  67  45  44  56  67  87  98 101 103 105 105 111 115 113 112 112 111 108  97  80  64  52  42  37  34  29  25  24  27  30  27  24  22  25  30  32  36  38  41  47  61  77  89  87  82  73  52  29  19  17  16  19  21  20  20  18  18  22  26 163 187 188 188 190 190 189 189 189 190 189 188 189 189 189 190
 173 172 172 171 172 173 169 117  82  87 106 114 103  79  78  80  89  54  43  46  62  79  88  97 101 103 102 105 110 114 112 113 115 114 112 106  91  75  61  49  42  35  33  32  31  30  30  29  28  29  31  34  38  42  43  46  53  72  92 107 105  98  86  59  24  19  19  22  24  27  29  28  25  22  26  53 174 188 189 188 189 188 189 189 189 189 189 187 190 191 190 190
 173 172 171 172 174 173 172 141  83  83  95 114 107  90  80  82  87  50  42  45  65  83  91  98  98 101  99 102 107 109 110 112 114 115 115 112 104  92  79  61  50  44  39  37  35  34  33  32  31  34  38  38  43  47  49  51  60  82 103 118 123 114  99  67  26  20  20  26  30  31  33  35  35  35  41 133 183 189 189 190 188 188 189 189 189 188 187 188 190 188 190 190
 173 172 172 173 173 174 173 168  92  88  90  89  98  98  92  82  80  50  42  43  64  80  92  96  96  96  94  98 101 104 107 110 112 113 114 113 109 102  90  76  67  57  52  48  47  44  41  40  39  40  41  43  50  54  59  64  70  91 109 121 132 128 113  82  30  16  17  21  26  30  32  33  43  60 111 170 185 186 188 189 188 188 189 190 188 189 189 189 189 189 189 189
 170 171 172 172 173 174 174 172 121  95  88  79  73  77  81  73  75  51  40  40  64  80  89  92  92  93  90  94  95  98 100 104 108 111 110 111 106 100  96  87  79  70  64  63  59  53  49  49  48  47  48  52  62  66  72  80  85  99 109 120 133 136 121 100  33  16  15  17  17  23  28  36  59 137 174 185 187 187 189 190 190 187 188 188 188 189 189 190 188 188 188 189
 170 170 171 172 173 175 174 172 150 102  94  83  71  65  54  60  71  46  36  39  58  78  86  87  90  89  90  88  90  92  94  97 101 106 105 105 101  96  92  87  79  72  69  67  63  59  55  60  60  61  62  71  76  80  88  94  97 106 111 117 130 137 126 112  42  20  15  19  22  28  25  32 118 178 185 186 188 187 187 188 190 188 188 189 187 187 185 188 187 187 187 188
 171 170 170 172 172 173 173 172 166 108 104 100  87  69  66  68  62  44  33  36  54  75  83  83  86  85  83  82  82  87  88  91  92  94  96  96  96  91  88  82  73  71  69  67  67  67  68  73  76  80  80  88  90  93 100 101 103 110 112 114 125 139 130 117  61  30  22  24  31  31  29  27 125 178 187 188 188 189 188 186 188 189 187 187 188 186 186 189 187 186 187 187
 170 170 172 170 170 172 174 173 170 120 102 101  97  89  84  64  62  43  34  37  58  74  81  80  82  81  80  75  74  79  80  81  84  85  88  90  90  89  87  80  76  74  72  73  74  79  81  85  90  92  92  97  96 101 104 104 106 110 113 114 124 139 130 116  70  36  30  30  30  31  39  41 110 172 182 186 187 188 188 186 186 187 188 188 187 187 188 188 188 187 187 186
 170 170 170 170 170 173 173 171 171 144  95  94  90  86  73  58  63  43  41  44  65  75  79  79  79  75  74  70  71  71  73  74  76  75  79  82  82  85  84  81  83  80  77  80  84  90  93  93  93  93  96 100 100 104 105 102 106 111 112 116 122 133 129 115  78  39  35  32  33  38  50  71 151 176 184 188 188 187 186 185 186 187 187 186 188 187 186 187 187 186 186 186
 171 170 169 172 170 172 172 171 173 169 121  78  73  68  55  67  70  55  54  56  68  77  78  75  74  70  65  64  66  68  72  72  70  71  73  76  76  81  83  83  86  81  81  88  92  94  95  94  95  95  98 102 102 103 104 101 105 108 112 114 121 131 130 115  81  45  40  38  39  46  58  98 175 183 186 187 186 186 185 185 186 185 186 186 188 186 186 185 185 186 184 183
 169 169 169 170 170 171 172 171 171 171 169 145 114 112 129  91  77  66  64  67  71  75  76  71  70  67  63  67  65  67  69  68  69  70  72  72  75  79  83  86  87  84  86  94  95  95  96  94  99  98 101 101 102 102 104 102 105 107 111 114 119 129 132 118  87  47  46  45  47  53  62 107 178 185 187 186 186 185 183 185 186 184 185 186 187 188 186 185 186 185 183 184
 170 169 169 170 169 169 171 171 170 170 172 170 168 163 148  93  79  70  67  70  71  72  70  71  73  69  70  70  68  68  68  63  68  70  72  72  75  80  85  89  92  92  98 100  99  98  99 100 103 102 104 101 101 101 101 102 106 107 112 116 122 132 134 120  90  53  52  53  57  63  65 115 180 184 186 184 184 184 183 185 185 184 183 184 185 186 184 184 185 185 184 183
 167 169 169 170 169 169 170 170 171 171 171 172 171 167 152  91  79  71  63  70  69  69  69  71  74  71  71  68  68  68  66  66  69  69  70  74  77  81  86  93  96  99 102 102 101 100  99 104 103 100 100  98  99 100  99 104 104 109 116 121 130 140 137 121  93  58  53  55  60  65  66 115 178 184 184 185 185 184 183 183 183 184 183 184 186 185 183 185 185 183 183 184
 168 169 168 169 169 168 169 169 172 171 170 171 172 170 153  90  76  72  64  68  64  68  68  72  72  73  69  70  66  67  67  69  70  69  73  78  82  86  91  95  99 101 101  99  98  98  99 102  97  94  94  94  94  97  98 102 103 110 120 130 140 145 138 124  99  63  54  54  56  63  64 122 179 185 184 186 186 185 183 183 184 184 183 184 184 184 182 182 182 182 183 184
 166 166 168 168 169 169 169 168 170 170 170 170 170 171 150  86  76  68  62  63  63  68  69  67  69  70  68  66  64  68  69  71  69  70  80  84  90  94  95  94  95  96  96  95  95  94  94  92  90  86  86  93  96 100 101 103 105 111 123 134 147 147 136 122 102  70  55  53  57  59  62 142 180 184 185 184 185 184 183 183 184 184 182 183 183 184 183 183 184 184 182 183
 167 167 167 168 167 167 169 169 169 169 169 170 170 167 145  85  74  66  62  59  60  64  64  61  69  65  59  60  62  66  71  71  70  80  85  90  93  93  93  91  92  93  93  93  93  90  88  83  78  80  88  99 105 109 108 106 107 114 123 138 148 142 131 116 101  83  60  56  55  59  70 161 181 184 184 184 182 183 182 182 182 181 182 181 182 182 182 181 184 182 182 181
 168 167 166 166 166 167 168 167 168 168 169 168 167 163 145  83  72  68  63  59  61  63  61  61  63  61  52  59  61  66  71  70  76  84  86  89  91  90  91  91  91  93  91  89  86  85  80  72  71  80  96 109 115 115 114 110 110 116 123 134 140 134 125 112 105  91  66  56  54  56 104 174 182 184 182 182 181 182 183 184 184 182 182 181 182 181 181 181 182 182 181 181
 166 167 166 168 166 167 168 169 168 167 168 168 166 162 139  79  70  61  63  61  61  61  59  55  59  58  52  56  59  67  66  68  77  84  83  86  87  86  90  91  89  89  88  85  82  77  70  66  67  83 103 113 117 117 112 108 109 113 118 124 129 126 120 110 106  99  72  54  52  59 155 180 182 182 182 182 181 182 181 182 182 181 181 181 181 181 181 180 181 181 181 181
 165 165 165 166 166 166 167 168 167 167 167 167 166 163 142  83  64  54  59  60  57  62  58  48  52  59  54  52  59  66  66  68  76  76  78  83  85  84  87  86  85  86  82  78  73  68  63  63  66  88 105 110 109 110 105 103 101 103 106 112 120 121 117 110 107 102  74  54  49 102 167 181 182 181 182 182 182 182 181 180 182 181 180 181 181 180 180 180 181 180 179 181
 164 164 164 165 166 166 167 168 167 166 167 166 166 164 144  74  64  55  58  56  57  58  58  49  51  54  53  52  57  64  67  70  72  71  74  79  82  83  84  85  82  80  76  71  68  64  67  63  61  83  96  97  96  95  91  88  86  88  91  97 105 111 112 105 105  99  76  54  65 154 172 181 180 181 183 182 182 181 181 181 181 180 179 180 180 181 180 180 180 179 178 180
 164 163 163 165 163 164 166 164 166 165 166 166 165 163 144  67  62  57  52  55  55  57  56  48  46  51  56  51  56  62  66  68  71  70  72  73  75  80  81  82  77  74  70  68  68  69  71  66  57  69  76  71  67  66  66  65  64  68  76  80  90  98  98  95  96  92  73  56 114 170 175 179 181 180 181 181 180 180 181 180 181 181 179 180 179 179 179 180 180 178 178 178
 162 164 164 166 163 164 164 164 165 166 166 165 164 163 142  67  57  54  53  54  55  54  52  45  45  48  52  51  55  61  63  64  66  65  70  70  73  76  78  78  74  71  70  71  75  78  80  75  62  52  52  46  41  44  42  44  47  52  59  68  74  81  82  81  82  79  64  64 156 175 175 177 180 179 178 180 179 179 180 179 180 180 180 178 179 177 177 180 178 177 177 176
 160 162 162 163 163 163 163 163 165 165 165 165 164 164 146  65  54  52  53  53  53  51  52  47  47  49  48  48  51  55  57  62  63  63  68  70  72  74  75  74  71  72  72  77  83  84  83  82  69  49  39  35  34  35  34  36  40  45  50  62  66  67  67  67  68  66  59  99 170 176 177 177 177 179 178 177 179 178 177 178 179 178 178 176 177 179 177 177 178 178 178 176
 162 161 164 163 162 164 163 163 163 163 163 162 164 163 148  72  49  53  52  53  56  51  51  46  48  49  47  48  48  52  50  55  60  60  67  70  72  73  73  72  71  72  78  81  84  88  85  84  72  52  40  37  37  37  36  37  39  42  49  56  57  56  56  56  60  57  56 132 171 175 174 175 176 176 178 177 176 175 175 176 177 177 177 177 177 178 178 176 177 177 176 175
 159 160 162 161 163 163 163 162 163 162 161 162 163 162 154  80  49  50  51  51  51  49  47  45  49  46  48  46  48  52  51  54  57  60  67  71  73  71  70  69  68  70  74  74  77  79  78  76  68  56  43  37  34  36  36  36  40  41  47  50  47  49  50  53  56  54  63 149 173 178 175 174 176 175 175 175 175 174 175 175 176 176 176 176 177 178 176 177 176 177 175 174
 160 160 161 160 161 162 163 163 162 162 162 162 161 163 154  99  52  46  47  50  48  47  46  45  48  48  48  49  51  57  55  56  61  65  69  70  70  65  66  62  64  64  67  67  67  68  70  68  60  56  44  38  36  34  35  34  35  36  40  38  40  45  48  53  54  52  81 162 173 174 176 175 175 174 176 175 175 173 176 176 175 175 175 174 176 175 176 175 176 176 175 176
 159 159 160 160 160 160 162 160 162 162 160 162 160 162 157  92  51  43  41  45  48  45  44  45  48  46  48  48  52  54  54  60  63  65  68  69  59  56  59  56  55  57  58  57  54  55  59  57  54  51  46  43  38  35  33  31  29  31  31  30  33  43  48  51  52  52 110 167 174 174 174 174 174 173 173 175 175 173 175 174 176 174 174 175 175 174 174 175 174 174 174 175
 157 158 159 160 159 160 161 159 158 161 158 159 159 161 156  99  57  41  37  45  49  45  45  45  46  46  47  46  48  48  52  61  62  66  68  62  52  54  56  55  51  53  50  47  45  49  50  49  50  48  46  45  39  34  32  29  26  28  27  26  29  38  42  48  52  55 139 170 172 173 174 173 174 174 173 174 174 173 175 175 174 176 175 173 173 174 174 174 174 174 175 175
 157 157 157 159 159 159 158 159 161 161 160 159 161 160 153 106  63  45  37  47  45  45  44  42  42  48  48  46  46  46  53  59  63  66  64  53  51  52  53  51  45  46  42  43  45  48  49  49  48  46  45  43  36  31  28  25  26  28  29  27  28  34  37  44  52  68 163 171 172 174 174 171 173 173 173 173 174 174 174 174 174 174 174 174 174 174 175 174 174 174 174 174
 157 157 156 156 159 158 160 159 158 160 159 158 159 158 152 104  66  50  39  41  44  42  41  40  43  45  50  48  44  47  51  59  63  65  59  49  48  46  46  43  40  37  35  40  45  46  45  51  52  52  49  44  37  31  27  25  27  29  31  29  29  33  35  39  50 103 167 172 171 173 171 170 173 174 173 174 174 173 173 174 173 173 174 174 173 174 175 174 174 173 173 172
 155 157 156 157 157 156 160 158 158 158 156 158 158 156 151 100  67  52  42  37  38  38  38  38  41  44  47  44  44  48  52  56  63  63  56  48  42  39  37  30  29  26  30  36  38  41  44  50  52  55  53  50  41  35  29  26  31  32  32  30  30  33  36  39  47 143 168 172 171 171 170 171 172 173 172 172 172 173 174 172 172 173 173 173 172 174 174 172 173 173 171 170
 156 156 155 156 155 156 158 156 156 157 156 158 157 156 150  94  67  56  48  36  37  38  37  40  39  43  42  41  43  48  52  54  59  61  51  44  39  34  30  24  23  22  22  27  29  32  35  39  42  47  49  48  45  41  37  34  38  38  36  34  33  33  36  40  67 161 168 170 171 169 170 169 170 170 170 172 171 172 171 171 170 172 171 171 171 172 172 172 172 171 170 170
 155 155 157 155 156 156 156 156 156 154 155 154 156 155 148  89  69  56  51  41  33  34  36  35  36  40  36  39  42  46  47  50  55  53  47  39  35  32  28  29  30  27  24  23  24  23  23  24  25  30  36  38  40  42  44  43  42  40  37  34  35  33  36  40 116 163 168 169 169 169 168 168 168 168 170 170 171 171 171 171 171 171 170 170 169 169 170 170 171 171 170 170
 155 155 156 155 155 155 154 155 155 155 156 156 155 154 144  87  69  57  50  44  32  32  36  34  35  34  36  37  42  43  44  48  51  48  42  38  36  34  34  35  38  37  33  30  31  28  24  22  17  18  22  26  29  33  39  36  34  32  31  31  32  35  37  57 151 167 167 169 168 167 167 168 169 168 171 170 171 171 170 169 169 170 169 170 169 171 170 168 169 169 169 169
 154 154 155 155 155 154 155 155 156 152 147 135 111 129 136  84  70  57  49  48  41  32  31  32  31  32  34  36  39  41  45  45  44  43  41  38  37  37  37  38  45  48  44  41  41  41  37  32  25  19  19  18  19  24  25  24  25  25  28  30  31  34  42 104 160 166 166 168 167 169 169 167 167 168 169 170 169 171 170 169 170 168 171 170 168 169 170 168 170 169 170 170
 153 154 154 154 154 155 155 153 143 118 110  94  77  79  97  84  72  59  49  49  45  35  30  30  30  31  32  35  36  38  40  41  42  38  37  38  36  37  38  40  48  49  50  49  48  48  48  46  40  30  24  20  20  21  22  22  24  27  31  32  33  36  54 115 154 165 166 168 167 168 168 167 166 166 168 168 167 169 169 168 168 167 168 168 168 168 168 167 166 168 168 168
 153 155 154 154 152 151 150 134 110 102  95  81  59  68  77  81  72  62  49  48  45  43  34  28  29  30  32  34  35  36  37  39  37  33  33  33  35  37  41  41  44  47  50  48  49  50  49  51  48  41  34  30  28  28  29  30  31  30  34  35  32  37  67  95 105 130 163 166 166 166 167 167 166 167 168 166 167 169 168 168 167 166 166 166 166 167 167 168 165 167 167 165
 153 153 153 154 151 136 106 102  96  90  83  62  53  63  70  80  73  64  52  47  46  47  39  33  28  29  31  33  33  31  36  34  33  30  30  31  34  35  38  38  42  41  43  45  47  48  48  49  47  44  41  35  34  34  34  34  34  34  37  35  32  40  66  80  90  91 114 161 165 167 166 167 166 165 168 166 166 167 168 168 166 166 167 165 165 168 168 166 166 164 163 164
 151 152 154 152 146  98  78  92  88  76  74  53  50  52  70  78  74  65  55  50  46  46  44  43  34  29  29  30  31  33  34  33  34  28  27  30  32  35  38  40  39  37  36  38  41  44  43  42  41  42  42  40  38  36  35  35  36  37  35  32  31  49  66  74  90  82  79 119 160 164 167 167 166 167 167 167 166 166 165 165 166 164 165 166 164 166 166 166 166 164 164 164
 150 153 151 146 119  87  85  91  91  77  66  49  45  39  74  79  76  68  56  50  48  46  45  44  43  36  25  26  30  32  31  30  32  28  26  28  31  34  37  41  40  36  33  32  32  33  35  34  36  40  41  39  38  38  36  36  36  36  33  27  32  52  73  80  87  86  75  94 119 146 163 164 164 166 165 165 165 167 167 164 164 163 164 165 164 166 165 165 166 164 164 163
 150 148 136 117 105  85  84  94 100  88  70  39  32  39  79  81  75  65  54  49  45  44  44  44  43  41  30  22  26  26  26  28  28  26  26  30  32  33  37  41  39  36  32  29  27  27  29  28  28  30  33  34  35  34  35  34  35  35  28  22  29  48  76  91  89  87  77  94 102 114 130 160 163 165 165 163 164 166 164 165 164 164 166 164 164 164 163 164 163 164 164 163
 137 118 107  99  96  88  87  91  92  83  65  32  30  60  79  79  76  69  61  51  45  46  45  46  44  45  41  30  22  23  26  25  25  25  27  29  29  31  36  39  43  39  33  30  26  22  21  19  18  20  24  25  28  31  31  32  35  31  40  31  23  37  68  87  87  87  84  92  90 100 110 130 161 164 165 164 165 166 167 163 163 164 166 164 164 163 163 164 163 165 163 163
 110 101  97 103  96  84  85  85  91  82  61  30  43  67  82  80  76  69  60  53  44  46  47  48  45  47  45  42  27  23  21  24  24  24  26  27  29  29  35  39  45  43  38  33  25  19  18  18  17  18  17  21  26  30  34  32  32  31  52  76  30  30  59  80  91  89  93  91  90  93  98 104 137 156 163 163 164 165 166 164 164 165 164 163 162 162 162 164 164 164 164 163
  93  93  95  91  89  72  82  87  82  80  63  33  47  68  80  80  76  72  64  56  48  47  45  47  47  46  46  43  35  25  19  20  21  24  23  26  29  30  32  36  42  43  38  34  26  22  22  23  19  18  20  23  29  34  35  32  28  29  41  63  66  26  50  78  94  98  90  81  81  89  94  98 110 117 123 132 157 162 162 162 163 164 165 164 162 161 163 163 163 163 164 162
  82  91  88  76  82  64  74  83  77  74  64  34  45  70  80  78  77  72  66  56  52  49  46  44  46  45  45  45  41  35  26  18  18  21  21  25  28  28  30  35  37  39  36  32  27  22  22  25  22  20  23  25  30  33  31  28  21  23  30  51  70  50  34  64  85  99  95  73  70  76  78 102 110 110 111 111 119 114 117 134 159 162 163 163 163 162 161 162 163 163 162 161
  83  84  87  89  84  73  80  89  82  76  66  35  45  70  82  79  76  73  67  59  53  51  48  49  47  47  47  44  40  35  30  24  18  16  19  23  26  30  30  33  33  34  33  34  29  23  23  25  23  23  22  25  29  30  26  31  31  24  29  35  52  67  31  51  78  97 100  73  58  76  80  86  98 110 107 105  98  63  58  98 126 157 163 163 164 164 162 163 163 162 162 161
  82  79  83  85  81  67  76  86  83  75  63  34  45  73  79  78  76  74  66  58  52  51  50  48  47  47  45  45  41  37  32  29  24  18  17  19  23  28  27  29  28  30  30  31  29  25  22  23  21  22  22  26  28  26  20  76  68  28  30  32  44  64  51  46  67  91 100  75  50  68  76  76  91  99 105  91  98 108  91  84 110 129 159 162 164 163 164 164 163 164 162 162
  82  82  78  78  73  71  71  82  78  75  71  34  48  74  80  76  76  72  70  60  56  52  51  52  48  47  45  47  45  39  34  32  29  24  19  18  20  21  25  25  25  26  26  27  24  20  18  19  18  19  20  24  27  24  38  90 113  35  33  35  36  62  66  44  70  86  93  74  41  60  71  79  90  91 100 104  96  97  94  90 104 113 141 161 163 163 161 162 162 162 161 160
  81  77  81  76  67  53  66  82  75  77  76  40  50  74  79  80  77  72  71  65  61  54  52  51  50  47  47  45  45  39  38  31  30  29  26  24  21  20  22  24  23  23  21  21  21  19  16  17  16  18  20  22  23  36  68  79 132  64  36  41  37  56  69  44  69  84  93  76  41  54  67  74  82  90  88  94  93  97  92  96 106 112 128 158 162 161 163 162 161 162 161 160
  79  80  75  78  66  66  70  80  81  78  70  48  53  70  78  81  79  73  72  66  60  53  52  51  49  50  46  43  41  39  38  32  32  31  29  26  24  23  19  18  18  17  18  18  17  16  16  16  16  17  18  22  29  46  69  75 123 113  37  46  48  53  66  46  62  80  90  79  41  49  64  75  81  88  86  79  89  94  90 101  96 101 117 157 162 162 161 160 161 162 160 160
  82  75  72  75  72  73  69  79  85  80  74  51  54  68  77  80  79  73  70  68  60  56  54  50  47  48  46  44  42  41  35  35  30  29  28  28  24  24  21  18  16  15  15  14  13  13  14  15  16  21  28  34  40  45  65  77 108 138  51  56  58  61  72  53  54  73  88  85  44  45  65  79  82  81  89  77  85  85  92  99 103 101  97 136 152 155 159 160 160 161 161 161
  82  68  60  59  61  76  76  86  83  79  78  52  55  67  73  77  80  75  68  68  64  58  54  49  47  46  46  47  46  44  41  36  31  30  29  28  26  24  23  21  17  17  14  16  17  18  19  24  26  33  38  40  41  46  62  80  94 134  77  53  62  65  69  55  51  79  87  84  47  47  65  76  82  85  81  76  82  83  93  97 100 100 103 116 125 133 144 152 157 159 159 162
  78  77  69  73  69  67  72  77  77  76  74  56  54  64  71  74  78  74  68  68  64  61  55  50  47  45  46  47  47  43  39  36  31  28  29  29  26  24  23  18  16  20  21  24  26  27  29  33  35  36  39  40  39  44  59  76  82 131  93  52  57  61  75  60  47  73  86  89  50  47  61  62  79  85  72  76  73  76  94  97  94  94 101 120 123 123 127 124 144 155 159 158
  75  85  76  68  70  64  64  71  66  71  80  64  55  64  70  74  77  73  71  67  66  62  58  51  47  45  46  49  48  44  40  36  33  30  30  27  25  22  18  16  20  22  25  26  30  31  34  36  38  40  38  40  40  45  56  74  72 127 113  47  56  69  76  66  46  67  86  93  52  43  58  74  90  91  76  78  78  78  88  92  93  88  97 110 120 121 120 114 120 125 146 156
  82  84  81  79  66  58  54  70  68  72  81  67  56  62  65  72  72  71  68  69  66  62  58  54  48  46  46  46  43  45  42  37  35  31  29  27  24  21  23  24  23  25  28  31  30  33  38  38  38  39  41  43  41  47  54  68  71 121 122  41  50  70  78  68  39  64  78  89  53  39  61  73  83  89  80  75  69  71  76  86  97  84 108 117 112 103 107 108 111 117 121 144
