P2
# Generated by OpenCV 3.4.0
92 112
255
 158 158 159 159 160 162 162 161 162 163 164 165 165 163 165 166 167 166 167 166 167 169 167 160 139 102  85  93  78  54  47  79 109 123 100  59  40  34  29  34  37  36  31  26  26  29  32  34  40  45  41  42  48  51  56  59  57  51  53  54  56  56  54  58 105 152 177 184 190 192 196 196 195 195 193 196 196 199 199 199 199 198 198 199 201 200 200 201 201 202 202 201
 157 158 158 160 161 161 162 162 162 163 163 165 165 164 164 167 167 167 167 168 168 168 167 164 150 111  79  98  99  57  40  52  66 104 102  66  52  38  35  37  39  38  33  26  25  31  38  39  35  39  38  40  42  49  52  54  58  58  54  55  62  67  58  48  65  98 145 175 174 187 191 196 195 195 196 196 196 199 197 197 199 197 198 198 203 201 200 200 202 203 202 202
 156 157 160 161 160 161 162 163 164 164 164 164 165 166 165 166 166 166 168 169 168 167 164 157 141 134 112  65  76  43  37  44  49  73  74  51  43  38  35  36  34  31  29  30  35  40  48  53  44  34  32  32  32  38  38  45  46  48  52  53  53  52  50  48  49  68  83  89 115 147 176 186 194 195 196 196 196 196 198 198 198 198 199 199 202 199 198 198 200 202 200 200
 158 159 159 158 159 160 162 164 165 164 165 166 165 165 166 167 168 168 166 168 168 167 167 166 159 153 120  66  49  38  30  35  34  42  49  43  37  36  31  30  30  34  38  43  45  48  45  47  40  33  29  26  25  26  26  28  28  29  31  33  40  42  44  50  48  58  97  97  74 101 115 169 192 195 195 196 195 196 197 197 198 199 198 199 200 200 200 199 198 200 199 200
 159 159 160 160 161 161 162 164 164 165 165 166 165 166 166 166 167 168 168 169 169 169 166 162 146 121  73  50  37  31  28  28  30  30  34  41  38  32  26  29  32  34  36  36  41  37  35  30  27  25  26  23  21  21  21  22  21  24  27  30  35  38  36  33  42  47  68 109  79  74  93 116 181 191 194 196 197 196 196 197 198 196 197 201 200 200 199 197 199 200 201 201
 160 161 161 162 164 162 163 163 164 164 164 165 165 166 167 166 167 168 168 167 169 167 145 118 121  91  53  34  32  30  26  25  24  26  24  30  28  26  26  26  27  26  21  18  21  21  21  20  18  19  21  21  19  19  20  17  18  20  22  26  31  36  40  36  37  39  42  63  59  62  70  78 152 182 192 195 195 196 196 197 196 196 197 198 198 201 200 198 201 198 200 201
 160 160 161 161 163 164 164 165 163 164 165 166 164 165 166 166 168 168 168 168 169 160 138 130  99  58  45  30  27  22  20  19  19  21  24  24  24  23  23  23  23  18  16  14  15  15  15  16  16  17  16  19  17  17  18  17  18  20  20  24  30  37  39  39  38  42  43  50  43  49  63  58 129 168 184 192 194 195 195 196 198 196 196 196 197 198 199 197 198 196 197 198
 160 159 161 162 163 163 164 165 164 164 166 166 165 164 165 166 167 168 168 168 166 156 129  74  54  41  36  26  26  23  20  19  21  22  21  23  23  22  23  22  18  14  14  14  13  14  14  14  16  16  15  15  15  16  18  16  16  18  21  24  24  28  33  35  33  32  35  39  34  37  41  43 110 157 175 189 195 196 195 194 195 196 196 196 198 198 198 196 196 196 196 198
 160 160 160 160 164 162 164 164 164 165 166 166 165 166 166 167 168 169 168 168 165 124  66  56  41  32  28  26  24  24  20  21  21  21  21  22  23  24  22  21  17  12  10  13  14  13  14  14  14  13  14  14  14  16  18  17  15  16  16  18  16  18  21  25  25  30  36  37  35  36  35  46 115 154 172 183 192 194 195 196 196 195 196 196 196 197 198 196 198 196 196 198
 159 159 159 160 161 162 163 163 164 165 166 165 166 166 166 168 167 167 168 166 121  58  50  41  35  32  28  28  26  24  20  20  21  20  20  21  23  22  21  21  15  14  12  14  15  14  15  14  14  15  15  14  13  14  14  15  16  17  15  16  16  15  18  23  28  33  37  37  40  38  35  42 128 144 169 175 187 193 196 195 196 196 195 194 196 197 196 197 198 197 198 197
 160 160 161 160 160 163 164 164 164 165 164 166 166 166 166 168 168 167 169 117  56  41  42  40  33  29  27  27  26  25  24  22  22  19  18  19  22  20  23  18  14  15  15  17  18  19  21  23  21  19  18  17  17  16  16  16  18  17  15  18  16  17  18  22  25  30  34  34  36  33  32  43 135 136 139 166 179 192 194 194 195 195 195 196 196 197 196 196 197 196 198 197
 159 160 161 161 162 164 165 165 165 164 166 166 166 165 166 166 167 167 142  77  54  37  30  28  26  26  25  24  24  23  21  20  20  18  18  20  19  19  23  22  22  26  28  33  35  39  42  42  40  38  36  30  27  25  22  20  20  17  17  17  17  16  15  17  18  22  26  29  31  33  32  45 119 136 141 122 169 191 194 194 195 194 193 196 196 197 195 196 198 196 197 197
 160 160 162 162 163 162 164 163 164 166 164 165 166 167 167 167 167 162 102  69  62  34  27  27  26  24  22  23  24  21  20  20  18  18  20  19  20  25  28  32  35  41  47  54  61  65  73  74  71  70  62  56  52  46  38  31  28  25  23  22  18  18  16  17  16  18  21  22  25  31  31  43  67 114 141 119 146 188 192 194 194 194 195 195 196 195 195 196 198 198 195 197
 159 160 160 162 163 161 164 164 165 165 166 166 167 166 168 167 165 150  90  65  36  26  21  22  25  24  22  22  24  20  18  18  19  20  20  20  24  30  36  42  49  58  70  80  94 102 106 108 104 100  93  86  78  70  62  56  46  39  32  28  25  24  23  19  17  20  22  27  29  28  31  41  55  72 110 117 117 187 191 194 194 193 194 195 195 195 194 196 196 196 195 197
 159 160 163 162 164 164 165 164 164 166 166 166 166 166 166 165 162 133  56  38  26  21  20  19  21  20  20  19  20  22  20  17  22  26  26  26  31  38  46  56  68  84  96 107 114 121 124 125 121 118 114 110 105 101  92  83  77  67  55  47  40  37  36  28  21  22  24  27  25  24  28  42  55  63  84 110  86 184 188 191 192 193 194 195 196 195 195 196 196 196 196 196
 161 162 162 163 164 164 165 164 164 165 166 165 165 165 165 164 157  70  44  30  24  21  21  22  22  19  21  22  21  20  24  22  28  32  31  33  43  53  65  78  93 108 115 118 123 126 132 131 127 128 124 121 119 117 112 108 101  95  84  77  72  65  55  47  38  28  22  21  21  23  26  36  46  56  65  92  72 170 186 191 191 194 195 195 195 194 196 195 195 196 196 196
 164 164 165 164 164 164 165 165 165 166 165 164 166 166 166 164 105  40  36  29  25  24  22  23  22  21  22  22  22  21  26  32  39  41  43  52  63  76  88  99 108 117 123 125 128 129 131 132 130 133 130 127 121 122 120 116 113 110 103  97  90  84  80  68  60  47  33  21  20  22  25  30  38  48  50  60  70 150 181 189 193 195 195 196 195 194 195 195 195 195 194 196
 164 162 164 164 163 166 165 167 166 165 165 166 166 167 166 157  62  37  34  30  27  25  23  22  22  22  22  23  24  27  35  51  64  69  73  83  93 101 104 109 115 122 127 130 131 130 131 134 134 135 131 127 126 122 123 122 118 115 112 109 104  99  87  76  75  70  62  45  26  25  26  29  33  42  46  44  57 118 172 189 194 195 194 195 195 194 196 196 196 195 195 196
 163 164 164 164 165 165 167 167 166 165 165 167 166 167 165 126  65  36  29  26  26  25  24  22  23  24  27  31  34  43  62  82  93  96 103 104 108 109 111 114 119 123 126 131 134 134 135 136 135 135 134 133 131 130 129 127 123 120 116 116 113 104  92  87  84  80  81  69  43  29  30  32  35  43  50  47  50  86 132 181 192 194 194 196 196 194 194 195 196 196 195 195
 164 163 164 164 165 165 166 166 165 165 164 165 167 168 164 133  42  32  23  18  19  21  21  21  24  31  37  41  49  64  80  95 102 104 108 108 110 112 114 117 119 124 128 132 134 134 135 139 140 140 139 138 134 133 132 130 127 126 122 119 115 109 100  95  91  89  88  83  68  45  35  36  36  40  47  49  49  82 118 161 184 191 193 196 196 196 195 194 195 197 195 195
 165 164 165 164 166 165 166 166 167 166 166 166 167 168 167  73  34  26  20  21  19  19  21  25  26  31  36  47  60  71  85  94 102 106 108 109 110 115 115 120 122 128 132 135 132 136 142 147 146 147 145 146 146 143 141 139 138 137 132 130 124 119 111 101  97  95  92  89  88  73  43  36  33  34  39  40  43  66 117 155 170 177 192 196 195 195 194 195 194 196 194 195
 165 163 165 165 166 165 166 166 166 168 167 167 168 167 133  34  29  20  20  22  19  22  25  22  26  29  36  47  60  73  84  92 100 104 107 110 113 114 119 123 126 132 135 137 139 142 144 150 156 155 153 155 157 155 153 151 151 150 147 146 138 131 124 116 111 104  94  88  95  98  68  38  33  35  34  37  38  58 110 129 135 154 189 196 194 194 195 196 195 196 196 195
 165 166 164 165 167 167 167 167 167 168 167 165 166 156  54  34  26  21  19  21  19  24  21  24  28  31  39  50  60  72  84  93  98 102 106 109 115 120 122 125 129 134 138 141 145 149 154 156 164 166 161 162 164 164 163 161 162 160 160 158 151 142 135 128 120 113 104  94  89  94  84  51  32  30  33  33  39  58 108 132 127 152 188 196 195 195 195 195 195 195 196 196
 166 166 166 166 167 167 169 168 169 169 168 166 165  89  38  30  25  21  22  20  22  24  21  24  27  30  39  50  58  68  82  91  96 101 106 110 118 121 124 126 130 134 138 144 146 151 154 160 161 164 164 168 168 167 169 167 165 161 162 161 157 152 144 135 128 122 114 107  99  96  94  77  34  30  31  34  51  62 117 133 137 149 189 195 196 195 195 198 198 195 196 195
 166 166 166 166 166 167 168 168 168 169 169 169 153  44  32  25  21  22  21  22  22  19  21  22  26  32  39  48  56  70  85  90  97 100 105 110 115 120 124 124 129 130 133 137 141 144 143 147 149 152 155 158 162 167 170 168 166 165 165 165 161 156 152 147 139 131 127 121 113 103  97  86  52  30  30  34  41  64 102 112 142 149 181 192 196 197 198 198 196 196 196 198
 166 167 167 167 166 168 169 169 169 169 169 168 110  35  29  25  21  23  23  24  20  17  21  21  26  32  38  46  56  76  90  93  98 101 106 112 114 113 108 107 112 119 120 120 125 127 127 130 133 136 138 142 145 150 151 160 164 167 168 169 165 162 161 156 150 146 144 138 127 116 105  91  72  32  28  31  42  76  90  87 113 148 175 194 196 196 196 198 197 197 196 197
 167 166 167 168 168 168 168 169 170 171 170 166  49  33  30  26  23  24  22  22  18  18  21  20  26  30  36  43  60  80  90  94  99 101 107 106  87  73  70  70  68  72  79  79  84  90  96 102 113 118 120 126 130 139 141 140 150 157 159 162 162 164 162 158 158 157 154 150 144 132 115  98  87  43  30  33  47  86  90  84 118 124 169 192 195 196 195 196 198 198 198 196
 167 166 167 168 169 170 170 169 169 171 169 126  36  33  28  24  23  23  18  21  18  20  21  21  24  28  34  48  71  85  93  95  97  97  89  70  52  41  40  38  38  42  44  44  44  49  51  64  76  88  96 106 116 125 121 125 129 134 141 145 144 149 147 152 151 151 150 153 153 147 130 109  94  63  34  32  47  64  67  87 140 171 187 195 196 195 196 197 196 198 197 196
 167 166 169 168 169 170 169 168 169 169 166  92  33  31  26  23  23  21  17  20  18  18  21  22  23  29  41  60  79  89  94  97  93  71  52  42  34  32  32  35  34  35  33  33  33  31  31  34  39  51  68  81  95 107 113 111 113 118 127 131 135 136 137 140 140 141 144 146 146 149 142 123 104  86  31  32  40  50  61 129 166 182 192 195 196 195 196 196 197 196 196 197
 168 167 168 167 168 169 170 170 171 171 166  73  34  29  24  23  19  18  16  19  18  18  19  21  24  35  54  75  89  93  96  89  60  45  38  34  31  30  34  37  37  35  32  29  26  25  25  25  24  26  31  37  62  80  91  98 100 104 116 121 118 118 114 120 123 124 128 133 134 141 145 137 118 101  40  32  35  48 106 145 161 181 194 195 196 195 195 197 197 195 195 196
 168 169 168 168 169 169 170 170 170 170 167  80  32  26  26  23  19  16  17  17  18  22  18  22  28  45  68  85  93  98  93  66  44  37  38  38  36  40  46  51  56  54  52  43  33  27  25  23  23  22  23  27  33  50  58  82  91  94 111 120 112 109 101 104  99 100 108 115 119 129 135 137 129 108  53  35  44 101 111 126 156 185 195 196 196 196 195 196 194 195 196 196
 169 170 169 171 170 171 170 172 171 169 167  93  33  26  29  22  17  15  18  17  20  17  18  22  33  59  81  93  96  95  81  52  37  38  41  45  47  57  64  69  76  79  78  72  61  49  37  29  25  22  23  24  26  33  41  63  76  97 109 123 112 106 105  86  81  86  88  92 100 111 120 127 129 113  64  43  54  81 122 152 173 186 193 196 196 196 197 196 194 197 197 197
 169 170 169 170 170 171 172 172 173 172 168 109  32  27  25  19  15  16  17  17  17  17  20  26  43  73  88  97 100  89  66  49  50  52  49  51  58  69  73  76  83  87  87  82  75  67  56  45  34  29  27  28  27  32  37  51  76  99 115 128 114 102  83  62  62  66  62  60  70  86  97 105 119 111  69  41  55  81 115 142 168 186 194 196 196 196 195 196 197 197 197 196
 169 170 171 171 173 173 172 172 173 173 169 104  35  28  22  16  15  16  18  16  15  17  21  32  57  83  91  98  92  74  59  55  56  56  56  60  66  71  71  74  74  80  84  74  71  67  61  54  45  38  34  32  32  34  41  53  80 107 123 137 126 107  81  59  47  38  38  37  37  44  56  68  84 102  66  44  58  87 101  96 114 157 191 196 195 195 196 196 195 197 197 196
 170 169 171 172 172 170 173 173 173 174 169  94  36  27  19  15  16  17  17  17  16  19  24  42  74  91  94  94  86  75  68  67  64  63  64  62  64  70  84  93 108 118 115 101  82  68  55  48  46  44  41  40  39  41  46  59  88 115 136 144 150 124  83  50  37  30  28  26  27  30  31  35  43  68  60  40  46  79 137 161 147 172 192 194 195 195 195 195 193 197 196 195
 170 170 172 170 172 173 173 173 173 174 168  83  33  25  18  16  17  18  16  16  16  21  28  54  83  98 100  93  84  77  74  74  71  64  63  62  76  86  86  89  94 100  95  87  76  68  57  45  38  39  43  43  43  48  51  66  96 126 145 160 171 162 102  44  31  27  24  23  23  25  24  25  28  37  40  34  37  54 105 141 165 181 193 194 194 193 193 194 194 196 194 195
 170 171 171 172 173 172 172 173 172 172 167  65  31  24  20  20  20  17  16  15  19  22  34  69  90 102 102  96  91  88  86  83  80  75  72  74  74  67  54  47  44  35  33  35  39  42  44  45  38  36  39  42  44  51  61  74 100 125 141 156 173 183 167  59  38  30  25  23  25  24  25  24  26  29  32  32  35  61  82 134 168 187 194 195 195 192 194 195 195 196 195 196
 170 172 172 173 172 171 173 172 171 170 159  41  29  23  19  20  18  15  16  16  23  26  43  82  94 108 105 106 104 104 100  95  88  78  63  48  36  33  36  37  30  20  19  19  24  33  32  33  38  39  42  44  48  54  67  80  98 120 131 142 157 178 180 139  48  40  35  35  34  34  32  30  28  27  28  30  38  75 104 117 163 188 194 194 194 195 193 193 194 195 194 194
 170 170 171 173 170 170 173 172 172 169 149  33  26  19  15  17  18  15  17  22  24  29  59  94 103 108 109 114 115 114 110 103  93  84  71  46  35  32  43  49  30  16  16  17  21  38  40  29  29  39  46  51  56  66  80  88 106 121 127 134 144 164 185 172  93  47  44  48  48  50  50  46  37  31  28  29  36  95  86 158 184 192 194 195 193 194 194 193 192 193 194 193
 172 169 170 171 172 172 172 172 173 171 142  27  23  17  15  19  17  17  18  25  24  39  75 101 109 111 117 120 121 125 119 117 112 110  94  73  54  45  40  44  30  19  16  18  21  36  40  36  34  38  48  60  71  85  99 104 114 122 126 131 139 152 175 185 138  42  43  47  51  52  55  52  49  41  32  30  39  88 102 165 189 193 194 193 194 192 194 195 194 193 190 192
 170 170 169 170 172 173 170 172 172 170 145  74  50  20  18  20  18  17  22  24  25  49  89 104 109 113 121 125 126 127 124 124 123 119 112  97  72  54  47  46  44  40  36  36  36  42  42  44  55  66  64  74  93 104 114 114 117 120 123 128 134 146 165 186 168  69  48  48  52  55  54  52  52  48  36  32  43  84 139 183 189 193 194 192 195 192 193 193 192 192 192 192
 169 169 171 170 172 173 172 173 172 138  93  96 108  82  37  23  19  18  22  24  26  59  98 108 108 112 122 127 127 127 126 126 125 123 123 111  93  73  59  50  45  47  45  45  44  46  49  53  66  74  78  96 110 119 122 119 118 118 122 126 139 151 162 182 182 109  50  49  52  67  73  59  51  50  41  34  43  96 163 186 191 193 193 192 194 192 193 194 192 192 192 193
 170 171 172 171 171 172 171 171 168  75  50  51  73  91  79  51  31  23  23  26  34  75 101 110 108 115 122 127 127 127 130 132 132 130 129 126 116 106  91  76  63  57  55  55  60  64  70  76  82  91 104 115 118 119 121 114 112 115 122 132 144 153 166 184 183 148  48  33  33  49  64  70  53  49  45  38  65 147 182 190 192 192 193 191 192 193 192 193 192 193 192 191
 170 170 170 170 172 172 169 171 153  57  48  52  61  79  88  69  47  31  24  27  41  82 105 110 108 115 121 126 127 130 134 137 138 135 137 134 128 128 124 121 118 113 105 105 104 102 104 112 112 118 120 125 119 117 119 114 110 113 122 136 148 156 168 190 183 161 117  33  25  28  33  49  55  50  48  42  93 180 188 191 192 193 193 190 192 192 191 192 194 193 191 191
 168 169 172 172 172 172 172 170 125  53  52  64  66  65  92  82  71  46  27  28  48  87 104 108 110 111 117 120 123 128 133 136 140 141 141 136 135 135 135 129 131 127 121 123 126 128 128 130 130 129 126 126 119 119 116 112 112 111 122 134 143 149 164 192 190 167 155  81  26  26  33  32  42  49  51  45 147 187 191 190 192 194 192 191 191 191 192 193 192 192 190 190
 169 170 169 171 172 173 170 170  97  56  62  77  70  60  86  85  82  70  33  29  55  90 102 107 108 108 112 115 117 120 123 130 135 136 140 142 140 140 136 131 134 133 130 133 137 140 137 136 138 130 126 122 119 120 114 109 110 112 118 126 132 135 150 176 181 161 161 142  44  31  40  29  32  47  54  79 181 189 192 190 191 191 192 190 190 190 193 192 191 189 190 189
 170 169 170 171 170 172 171 166  76  60  80  93  78  67  79  78  80  74  44  31  57  86  99 104 106 107 108 109 113 113 118 121 123 129 133 133 139 142 138 140 143 143 142 143 146 146 145 145 144 129 126 124 121 117 112 112 118 117 115 113 112 113 119 138 142 138 142 138  87  39  35  28  32  47  62 149 183 188 191 191 192 192 191 191 190 190 191 192 191 189 189 189
 170 169 170 168 168 171 171 152  74  76 105 109 112  98  70  67  72  73  45  44  57  81  97 100 103 104 105 105 106 108 107 111 114 118 122 123 126 137 138 144 146 146 143 146 152 150 150 148 142 134 129 124 117 111 120 124 118 108  98  89  87  92 101 113 115 117 122 122 106  45  36  33  39  54 104 180 186 188 192 192 193 191 191 190 189 189 189 189 190 190 190 189
 169 169 169 170 171 172 170 125  77  99 105  91  66  42  33  61  79  72  47  49  68  84  94  99 100 101  98  96  97 101  99 102 103 106 110 116 124 127 135 144 149 147 143 145 151 155 150 148 139 133 123 116 114 125 131 123 109  94  78  74  75  81  89  92  91  94  99  96  86  51  41  47  54  64 132 184 189 188 190 191 189 190 191 188 189 188 188 188 188 189 190 189
 169 168 167 171 170 170 160 102  92 105  94  71  48  32  30  78 100  68  48  50  71  88  92  95  96  95  93  92  92  93  98  96  98 103 108 113 118 124 135 144 151 149 154 150 152 154 150 144 139 131 115 109 121 129 123 111  93  74  60  62  68  72  76  76  75  77  79  71  66  62  56  61  70  78 143 184 188 190 191 190 188 187 190 188 188 188 187 189 189 189 188 189
 168 167 168 169 170 170 156  99 103  97  79  62  46  38  42 106 104  60  46  49  70  83  88  89  92  92  87  83  89  88  92  92  97 102 108 109 114 120 128 139 147 150 152 149 151 151 146 142 137 123 109 111 121 118 101  82  61  40  28  29  41  63  64  63  64  65  65  58  72  95  87  85  86  96 145 185 188 187 187 188 188 189 189 188 189 188 188 189 189 189 188 188
 169 167 167 169 170 169 154 108 107  86  67  54  44  45  63 104 100  47  43  48  69  82  86  88  90  86  78  82  81  90  91  85  90  96 100 107 115 121 130 137 142 146 150 146 148 150 149 142 132 114 102 108 108  92  67  42  24  18  23  27  28  56  58  54  53  57  55  54  85 104 103 107 111 120 140 180 187 188 188 188 187 190 188 186 187 188 188 187 187 187 187 186
 170 167 167 168 170 170 156 111 102  81  67  56  52  59  74  99  89  48  41  46  65  81  87  86  86  79  79  84  84  90  88  86  93  98 104 111 120 127 130 135 139 142 144 147 145 142 144 136 122 104  90  93  87  64  38  21  19  26  42  45  43  55  53  50  49  46  40  52  96 110 104 109 119 129 140 176 186 187 188 188 188 188 189 187 186 187 187 187 188 186 187 187
 168 168 170 170 169 171 157 114 104  84  77  75  81  82  76  94  83  51  43  45  60  80  84  81  83  81  81  86  87  87  85  87  95  94 104 113 122 127 129 132 136 138 140 143 144 143 137 127 118 101  82  74  60  43  33  36  39  49  54  54  55  53  47  47  40  27  32  54 105 115 113 112 120 126 132 171 185 186 187 188 186 187 188 187 187 187 187 187 187 188 187 188
 168 170 168 170 169 169 163 113 110  94  88  92 105  99  80  87  89  51  39  39  57  78  81  79  82  86  86  84  83  86  90  91  92  95 110 115 120 124 124 131 134 134 135 137 139 133 123 122 120 104  77  61  49  42  44  50  54  54  51  50  49  46  43  36  27  24  34  54 112 120 116 111 108 113 119 165 183 186 187 187 187 187 185 186 186 188 188 187 187 185 186 186
 168 169 168 169 170 169 167 111 106 110 103 111 108  96  85  82  85  47  38  38  58  80  78  80  86  89  81  84  83  84  90  92  93 107 114 112 118 120 121 127 130 132 133 133 129 126 124 128 131 115  86  56  49  48  50  53  57  56  54  52  44  43  40  37  32  29  40  72 124 124 116 107  98 100 104 148 181 185 185 186 186 186 186 187 188 188 189 186 187 186 185 184
 168 170 170 170 169 170 168 120  89 100 102 109 113 108  97  86  74  48  37  41  62  77  78  80  85  88  81  79  80  81  90  88  91 103 103 105 112 114 119 126 128 129 129 128 128 131 134 137 138 120  97  71  60  54  56  58  65  60  56  49  42  44  38  36  38  36  53 111 129 125 116 106  96  90  93 144 182 186 184 184 185 186 186 187 186 187 188 187 186 186 188 185
 168 169 170 169 170 171 170 143  84  85  91  93  90  90  89  69  68  53  43  52  68  75  73  76  81  86  79  74  77  81  89  84  89  98  99 104 108 112 114 119 125 126 126 127 130 135 138 139 132 112  97  84  77  69  72  69  66  66  62  48  44  43  40  35  50  73 110 124 129 122 112 103  85  75  81 144 181 186 185 185 185 186 186 186 186 187 186 185 184 187 186 186
 168 169 168 169 169 169 169 168 108  95  99  92  84  80  66  54  66  58  52  66  75  73  77  75  78  81  76  70  73  84  86  84  91  95  95 100 101 104 113 116 120 121 124 128 130 130 131 134 118  98  89  83  82  74  74  75  71  69  57  47  44  44  39  35  52 103 118 125 129 124 110  99  80  67  74 155 182 184 184 185 184 185 187 187 187 187 185 182 182 186 187 187
 168 168 169 169 169 169 170 169 143 107 104 101 103  95  80  77  69  63  58  69  78  74  78  70  73  79  73  71  71  80  85  87  91  94  92  97  97 102 109 111 115 120 118 117 123 120 116 114 104  91  84  79  78  76  80  74  70  63  49  44  42  43  42  38  38  80 118 124 125 125 113  96  81  69  82 172 183 185 186 186 185 185 186 188 186 185 185 184 184 184 185 185
 168 168 169 170 169 169 168 170 166 124 110 109 113 111 104 100  71  71  68  69  71  71  76  69  72  75  73  72  71  76  83  87  86  92  90  95  99 104 108 112 113 110 104 107 106 106 100  94  86  80  74  76  73  73  74  70  66  58  48  45  42  42  43  41  36  63 112 124 121 121 112  93  83  71  99 174 185 183 185 183 185 182 185 184 184 184 187 185 185 185 184 185
 169 169 169 169 169 169 169 171 169 151 112 108 108 109 106  92  67  70  69  68  70  69  73  70  68  73  73  71  73  76  79  85  86  89  88  91  97 105 108 106 106  94  91  96  97  89  86  77  75  73  73  79  79  79  78  74  70  60  49  48  45  44  43  39  37  53 100 121 119 119 111  96  79  70 126 175 183 185 187 184 186 184 184 184 184 186 186 186 186 186 183 184
 170 168 170 169 170 170 169 171 171 168 121 100  94  88  81  68  55  68  70  68  67  66  68  66  57  66  68  75  76  71  81  80  77  83  84  90  99 101 100  94  92  91  87  89  91  84  79  75  80  76  77  86  88  93  93  93  84  75  60  52  51  52  48  42  41  56  79 107 121 120 108  96  77  75 155 177 183 185 186 184 185 184 183 184 183 185 184 187 187 186 185 183
 170 170 170 170 170 170 169 172 171 170 160 106  73  66  57  42  38  68  70  65  67  68  71  69  63  59  66  72  67  67  73  74  70  82  87  94  97  99  93  84  82  89  81  82  80  69  77  76  77  76  78  84  78  79  76  76  83  83  84  76  72  67  59  53  49  56  66  83 108 116 107  95  76  91 174 182 184 184 184 185 184 185 185 184 184 183 184 185 187 187 186 185
 169 169 170 170 170 169 170 170 170 170 170 167 159 137  38  26  32  65  68  63  68  71  72  70  60  59  65  66  66  66  66  75  70  81  89  94  94  92  82  80  83  87  82  72  66  60  64  68  67  66  64  59  52  52  50  45  51  60  74  88  83  71  58  52  56  58  64  75  91 110 107  93  76 121 179 186 184 183 184 184 185 185 184 183 183 183 184 185 186 185 184 185
 168 169 170 170 170 169 171 170 170 170 170 171 169 167  58  26  29  58  69  67  67  66  71  68  57  61  65  67  67  65  73  82  77  86  88  93  93  89  81  78  77  72  67  59  53  50  51  53  50  46  43  42  40  43  45  43  42  42  44  56  54  50  47  43  50  62  66  71  80  97 100  86  80 136 179 184 185 185 183 186 184 183 183 184 183 184 185 185 185 184 184 182
 169 169 170 169 168 170 171 169 170 171 170 171 170 168 102  28  29  51  68  68  65  67  68  63  60  62  63  61  66  70  73  75  75  84  90  94  91  80  73  69  68  60  48  41  39  36  37  37  33  33  33  32  32  33  36  37  36  36  36  38  40  40  42  43  41  52  66  63  72  82  91  79  76 146 176 183 184 186 186 185 184 184 185 185 184 182 184 186 183 184 182 184
 168 168 168 169 169 169 170 170 170 171 170 170 169 168 143  33  29  48  67  63  66  65  66  67  63  62  64  61  66  67  71  73  78  87  90  91  86  78  70  65  59  51  38  28  26  26  26  28  30  32  33  34  32  28  28  29  29  28  30  32  35  36  38  40  40  40  56  57  64  80  88  78  83 154 179 185 185 186 184 184 184 183 184 186 183 183 184 184 184 185 185 184
 169 169 169 170 168 169 169 169 170 170 170 170 170 171 168  67  31  40  58  60  67  64  64  69  62  62  65  65  68  68  70  62  77  86  90  90  85  78  72  63  56  49  37  38  38  36  40  43  53  64  67  75  72  68  55  39  29  24  26  27  27  27  29  34  39  38  49  52  57  66  78  78  89 160 184 186 185 185 185 185 184 184 184 185 183 184 185 185 185 184 184 183
 168 170 169 169 169 169 170 170 171 171 170 170 171 170 167 100  41  38  54  57  63  63  64  64  57  64  64  63  66  62  63  62  73  83  89  91  85  77  68  64  55  54  56  66  74  76  75  76  78  83  87  89  89  94  89  71  60  51  42  38  32  32  30  29  33  36  46  51  53  61  71  69  86 164 182 186 184 184 184 184 184 185 184 185 183 183 184 183 184 184 184 184
 169 169 169 169 170 170 170 171 169 171 172 169 170 171 168 133  72  32  53  56  62  64  61  60  60  62  63  64  66  64  62  67  76  80  84  86  81  71  64  65  64  68  74  80  87  91  91  91  87  85  87  86  84  84  84  85  82  80  72  65  56  51  44  30  28  32  40  45  50  53  64  63  89 173 186 186 184 185 184 185 184 184 185 184 184 185 184 183 184 183 184 184
 169 169 170 169 169 169 168 169 170 171 170 170 170 170 169 158  83  33  47  54  56  56  58  56  55  60  63  66  67  64  62  68  76  77  80  80  72  67  67  66  69  70  77  78  85  86  84  83  85  85  84  83  79  76  80  81  83  84  83  79  69  62  56  44  31  32  35  42  47  52  63  55 115 177 184 185 184 183 184 184 183 184 185 182 183 183 184 183 183 182 182 182
 167 168 168 169 168 168 168 169 170 171 170 171 170 170 167 160 110  33  42  52  57  56  58  51  54  55  59  62  64  63  59  68  70  71  73  74  69  64  69  67  67  71  75  74  77  75  74  69  66  68  70  70  67  69  69  70  75  76  77  73  70  69  61  51  41  43  42  45  48  54  62  47 153 178 182 183 183 185 184 184 182 183 182 182 182 181 182 181 183 183 183 182
 167 168 167 169 166 169 167 168 169 169 170 169 170 172 169 166 137  41  45  52  54  54  59  50  51  52  55  53  64  59  56  63  66  67  71  69  62  59  62  63  60  65  70  72  71  69  66  62  55  56  56  52  50  50  51  50  52  58  62  64  65  65  59  54  52  51  45  48  50  56  61  54 164 179 182 182 182 182 183 182 182 182 181 183 182 181 182 182 183 182 182 183
 166 167 167 168 169 167 168 168 169 169 170 169 169 169 169 169 158  99  43  55  50  50  61  57  53  51  53  54  60  51  56  64  63  65  62  59  56  51  54  55  55  61  66  66  68  66  64  58  52  49  46  43  40  37  32  28  31  35  41  46  52  54  53  53  54  52  50  50  51  58  55  78 175 180 181 179 180 182 180 181 180 181 181 183 183 181 181 181 182 182 182 182
 167 165 166 167 167 168 167 168 169 169 167 168 168 169 169 169 163 151  72  64  46  47  54  56  53  48  52  53  50  52  52  59  60  59  55  56  50  46  47  49  52  60  61  64  64  65  61  55  49  44  36  36  34  27  22  19  23  25  28  34  39  42  44  47  51  52  53  47  49  56  50 116 175 179 178 180 181 180 180 181 180 179 181 182 181 181 182 180 181 181 181 181
 166 165 166 166 166 168 167 167 167 168 167 169 168 168 167 168 167 159 105  71  43  46  50  49  47  48  50  50  48  50  51  51  55  53  53  52  47  43  42  44  49  56  65  66  70  68  62  56  51  47  42  36  30  26  23  21  20  24  25  30  32  36  39  44  49  52  51  47  48  52  46 147 174 177 177 179 179 179 179 180 179 177 181 178 181 179 180 180 180 182 179 181
 165 164 164 166 166 165 166 167 167 168 167 167 168 168 166 169 168 164 130  77  54  40  45  44  44  43  45  47  46  46  48  50  52  51  51  49  48  41  42  45  51  56  62  65  70  69  67  61  55  53  46  36  30  28  26  24  23  26  29  31  36  39  42  45  50  52  49  45  47  50  64 165 176 176 176 178 178 177 176 179 178 178 179 178 180 180 180 179 179 179 180 179
 163 163 165 163 164 165 166 166 166 167 166 167 167 166 167 166 166 163 137  81  62  40  43  42  40  39  39  42  45  43  46  50  48  47  49  49  51  39  40  43  51  60  60  67  72  74  76  72  66  65  55  42  36  35  34  32  29  29  31  35  42  44  46  48  50  51  47  43  47  45 101 171 176 176 178 177 178 177 177 176 178 178 180 178 179 177 178 178 177 179 179 177
 164 162 164 163 164 164 165 165 164 167 166 166 166 165 166 167 166 163 135  79  67  47  39  40  41  38  40  40  40  39  44  47  44  45  46  46  50  41  43  43  51  58  56  61  69  74  81  84  82  81  68  47  43  40  38  33  31  31  31  37  44  48  49  49  50  50  44  38  44  45 144 172 175 175 176 176 175 174 176 176 177 177 177 176 176 175 177 176 176 176 177 177
 163 162 161 162 163 163 164 163 164 164 165 164 165 164 164 164 166 161 134  80  67  53  39  35  35  36  38  34  36  38  41  44  40  44  45  45  46  43  43  46  48  49  51  56  68  68  79  85  79  69  63  49  45  45  45  38  36  34  35  37  47  50  52  49  49  47  40  37  43  69 162 172 175 175 175 174 175 174 175 175 176 178 175 176 176 176 175 176 176 177 178 178
 161 161 160 160 162 162 164 164 164 163 164 165 162 162 162 162 165 160 133  80  68  60  47  33  31  32  36  36  35  37  39  38  38  44  44  39  36  39  41  43  45  50  50  50  56  64  65  67  68  66  65  50  42  45  46  37  39  38  39  42  50  54  53  49  48  45  36  39  46 114 168 172 174 173 174 174 175 174 174 174 175 175 174 175 174 174 174 176 176 176 176 176
 158 159 161 161 160 162 161 163 163 164 163 163 162 161 162 162 163 161 134  75  68  61  52  42  31  30  31  33  32  34  36  36  40  40  32  33  32  34  35  39  40  46  49  46  52  57  55  54  57  62  68  57  49  46  49  40  41  39  37  41  50  53  53  51  50  43  34  37  71 156 170 171 173 172 172 172 172 174 174 174 175 173 173 174 174 174 174 174 174 174 174 173
 159 159 160 159 160 160 160 162 162 162 163 162 162 161 163 162 163 157 132  80  68  62  54  48  46  38  27  26  28  30  32  32  32  32  29  33  31  33  31  32  36  42  43  45  49  55  54  49  47  50  59  52  46  37  44  44  42  38  37  45  48  51  49  50  46  40  34  41 134 166 172 172 170 172 171 172 173 172 171 172 173 173 173 173 172 173 173 172 173 173 174 174
 158 158 157 156 158 158 158 160 160 160 161 159 159 160 160 160 160 158 135  79  70  62  54  51  51  50  43  34  28  29  26  27  27  28  29  29  29  30  30  30  32  34  39  50  48  48  46  44  39  45  46  42  36  29  32  36  34  34  36  43  48  51  43  45  43  36  32  74 157 168 170 170 169 169 169 170 171 171 171 171 171 171 170 169 172 171 170 171 171 172 173 171
 156 156 156 156 156 156 157 156 158 159 158 158 160 158 158 160 160 156 130  79  67  60  57  50  51  51  49  48  41  39  32  30  27  26  26  26  23  26  29  28  29  29  31  43  40  38  39  35  36  38  37  37  34  30  31  31  30  32  35  38  47  45  39  35  36  36  41 142 165 168 168 168 167 168 169 168 170 171 171 171 169 169 171 170 168 169 170 170 169 170 171 170
 156 156 155 156 156 156 157 157 156 157 158 156 157 157 157 157 157 153 126  78  69  61  55  51  50  50  53  49  47  43  43  40  36  30  27  23  23  24  25  25  27  25  27  29  31  34  34  33  30  29  31  33  30  30  31  29  29  29  30  35  42  40  36  31  31  40 126 160 166 168 168 168 167 168 168 167 170 169 171 170 170 169 169 170 170 168 169 168 168 168 168 169
 154 155 155 154 154 155 155 155 156 155 156 156 156 156 158 150 152 153 116  79  69  62  56  49  47  49  50  49  47  44  45  44  39  34  30  29  27  22  22  21  21  25  26  27  28  31  31  29  27  28  28  26  27  26  27  28  26  26  29  30  33  35  34  28  28  85 157 164 166 166 167 168 168 168 168 167 169 168 168 169 169 170 168 168 168 168 169 168 169 167 167 167
 154 153 155 153 154 153 154 154 156 154 155 154 150 140 115  73  75 110 101  78  70  63  55  50  47  47  45  48  47  46  46  45  40  37  33  31  31  27  24  20  17  24  27  29  26  27  25  23  22  26  24  20  19  20  23  23  23  25  26  27  29  29  27  25  51 134 160 165 164 166 166 164 166 166 166 166 166 167 166 166 166 167 166 166 166 166 166 166 166 166 167 166
 153 153 155 154 153 153 154 154 156 155 153 141 107  91  70  52  45  60  78  73  70  63  58  51  45  45  47  48  49  49  48  48  42  40  35  30  30  28  27  26  22  18  18  23  23  22  20  20  18  18  16  15  16  15  18  18  21  23  24  25  23  21  21  39  76  97 116 144 160 162 165 162 165 164 164 165 165 165 164 165 165 165 165 164 164 165 165 166 165 165 165 165
 151 152 151 152 152 154 154 152 152 147 133 103  84  71  58  42  38  46  72  75  71  63  58  54  50  44  47  49  48  47  48  49  45  42  38  36  35  34  31  29  27  25  20  19  18  18  16  15  15  15  14  14  12  13  14  16  17  18  19  21  18  17  23  39  62  86 102 107 120 149 161 163 165 163 164 166 164 165 164 164 165 164 163 162 163 163 163 164 163 164 164 163
 150 151 151 151 152 151 152 151 131 103  98  87  70  59  46  31  35  40  74  75  72  64  58  54  49  46  51  49  48  49  49  50  48  45  38  36  35  36  32  30  28  28  25  27  27  22  20  17  14  14  15  14  13  14  13  14  20  26  21  20  19  20  24  31  44  66  80  89  94 100 135 161 163 165 164 164 164 165 164 163 165 164 162 160 162 162 164 164 164 164 164 164
 150 148 150 150 151 152 151 141  97  78  87  78  59  50  41  28  31  34  74  74  71  65  58  53  49  45  46  47  47  49  49  51  50  45  37  39  36  36  35  31  30  29  30  29  29  25  23  23  23  20  22  24  27  25  21  26  37  54  58  29  20  20  21  25  34  56  68  74  89  86  88 136 161 162 162 162 162 163 163 163 165 163 162 161 161 162 162 162 163 164 162 161
 149 149 148 149 149 150 140 110  88  79  80  72  54  44  37  25  25  35  72  72  70  65  61  54  48  44  44  45  47  50  51  51  48  46  41  36  35  36  35  34  31  30  31  30  28  24  24  25  23  23  24  29  31  26  29  35  41  51  67  81  51  24  20  24  32  54  70  77  89  86  80  99 134 155 160 162 162 162 162 163 164 161 161 161 161 163 162 162 160 160 162 162
 147 147 147 148 144 129 106  98  82  78  82  78  66  47  31  20  16  51  73  72  69  66  61  54  52  47  44  46  47  49  54  50  48  43  43  43  37  35  34  33  31  28  29  28  27  25  26  26  24  25  25  31  31  31  34  37  45  37  48  63  71  60  22  21  31  51  73  85  88  87  77  98 105 124 146 161 161 162 161 162 163 162 161 161 161 162 162 160 160 161 161 161
 142 146 143 134 111 101  97  92  84  78  84  78  65  51  26  16  31  67  72  73  69  65  61  53  50  50  46  43  46  48  52  50  49  45  42  43  37  36  34  35  32  31  28  26  26  26  28  28  27  27  30  34  32  34  38  41  45  29  28  39  58  79  65  22  25  44  73  89  91  90  84  92  97 109 119 145 158 161 161 162 163 162 161 160 161 161 160 159 159 160 161 161
 106 114 112 107  98  94  95  95  85  79  75  73  67  49  24  20  49  69  72  73  71  65  62  58  54  50  49  47  46  47  48  49  48  45  46  42  42  38  36  34  31  31  28  27  24  27  28  27  28  29  30  33  33  36  38  42  53  58  22  28  40  59  82  58  21  33  70  81  90  91  92  92  88  94 108 120 148 159 161 160 161 160 160 160 161 161 159 159 159 160 160 160
  97  94  92  91  91  94  97  90  74  74  82  74  68  54  23  27  56  70  71  73  71  65  59  59  57  49  48  50  50  51  51  48  48  48  47  47  43  38  38  34  31  30  28  26  26  29  29  27  27  28  28  32  32  33  40  43  59 107  53  22  30  39  58  83  47  27  54  78  94  93  91  84  90  94 101 104 118 130 138 148 160 159 158 159 160 159 161 161 159 159 161 160
  84  81  84  81  89  87  72  79  64  68  78  67  64  53  27  33  57  71  70  70  70  66  62  60  57  52  49  48  52  53  52  51  47  48  45  45  47  40  35  33  34  32  31  28  27  24  28  31  30  31  32  32  32  36  41  45  72  88 127  39  22  30  41  68  81  33  44  74  92  99  96  77  72  85  94 106 114 116 112 121 148 147 151 153 159 160 160 161 159 161 160 161
  87  88  84  78  80  85  85  81  70  70  78  72  68  57  28  36  59  70  72  72  70  66  63  60  56  52  50  52  53  54  52  51  48  44  44  44  41  40  38  35  36  34  30  29  27  27  31  31  32  34  34  33  35  40  42  46  76  86 115 104  26  25  34  48  69  65  30  61  83 100  98  74  67  79  80 105 120 120 120 121  90  79  93 127 148 158 160 162 160 160 160 160
  82  91  83  75  75  82  84  79  65  72  87  75  68  57  30  37  57  71  74  71  70  65  64  61  58  53  52  52  51  54  52  51  48  49  45  46  41  39  38  37  37  35  32  30  29  32  32  32  33  34  36  35  39  43  45  49  73  90  93 143  54  30  32  40  56  72  42  50  72  99 103  74  56  75  83  94 101 121 116 111 119  93  70  96 125 148 160 161 159 158 160 159
  75  81  79  82  82  78  79  77  68  71  79  77  70  61  29  36  56  73  74  72  71  67  63  58  58  55  52  51  51  52  51  52  51  48  48  47  44  42  37  38  38  37  35  35  35  33  35  34  34  36  36  37  42  44  46  49  67  85  81 144 102  36  36  39  49  68  60  43  66  89 101  78  47  65  81  86 102 113 120 108 114 125 119  99 118 127 151 159 156 158 158 161
  76  79  76  76  77  80  71  65  55  62  78  70  68  68  35  38  59  74  77  74  73  69  62  58  56  54  53  50  50  51  50  49  50  49  47  46  44  41  40  41  42  40  37  37  39  37  35  34  35  37  36  40  44  45  46  50  64  78  84 120 144  49  43  47  43  66  77  46  72  88  95  80  43  59  76  85 100 111 111 119 114 113 111 104 117 122 138 157 156 158 156 158
  68  81  82  80  78  73  74  67  60  67  80  75  72  68  43  40  60  73  76  73  72  67  62  59  54  55  54  51  50  51  51  50  50  49  49  46  44  42  41  40  40  41  39  39  38  33  32  35  35  37  38  42  44  46  46  50  58  76  91 102 156  94  46  50  46  61  74  45  69  88  94  83  43  50  68  83  96 107 103 108 111 116 110 111 120 124 133 155 156 158 157 159
  57  79  87  80  74  75  78  66  66  69  75  80  76  68  50  44  61  72  75  74  72  67  63  60  54  56  54  52  52  52  50  50  50  50  51  48  43  42  41  38  39  40  38  35  32  31  34  35  38  38  42  45  45  47  48  50  56  72  91  95 154 141  51  59  60  61  72  53  61  81  91  88  45  47  67  87  95 105 104  94 104 113 109 120 118 115 125 149 156 158 158 158
  65  68  80  82  73  65  67  70  71  71  78  83  81  75  52  46  61  72  74  74  73  70  64  62  54  55  54  54  52  50  50  49  48  47  47  46  45  42  38  36  37  35  34  33  32  33  35  36  38  40  44  46  46  45  46  48  54  67  87  93 148 161  68  64  71  69  76  61  53  76  90  92  50  43  69  87 102  97 105  94 101 105 108 117 122 119 105 133 148 148 155 157
  76  59  82  82  71  62  58  60  69  75  82  82  80  78  56  46  60  71  74  74  74  69  66  63  58  57  56  51  52  52  50  50  49  46  47  44  43  41  38  36  36  32  31  33  33  35  38  38  39  43  44  46  47  47  46  49  53  65  87  97 133 163  92  67  74  75  78  66  52  81  89  93  54  46  68  85  98 101 100  91  99 103 107 117 122 114 109 125 129 137 140 142
  77  56  70  76  78  74  71  68  62  68  76  73  72  74  61  50  59  69  73  73  72  69  66  61  58  57  56  52  52  53  51  53  50  48  46  42  41  39  37  36  36  35  34  34  37  37  38  39  43  42  44  46  48  49  49  51  53  65  86 102 113 161 113  66  71  74  83  73  47  78  90  96  58  49  70  70  92 101  92  88  90  91 113 117 114 109 108 132 133 134 128 125
  74  66  57  75  88  80  70  69  63  57  70  68  67  80  73  54  57  67  70  74  72  72  64  58  56  57  55  55  52  50  52  53  52  47  46  44  43  40  37  39  37  37  36  38  37  39  41  40  44  44  44  48  48  50  49  51  55  67  87 104 106 160 132  63  70  80  84  79  47  73  90 100  62  45  64  81  99 109  92  90 100  98 112 112 108 103 101 125 134 131 126 120
  78  72  52  78  85  80  77  67  64  56  70  70  68  80  73  56  58  66  69  72  73  69  60  57  55  57  58  57  54  52  52  51  52  48  45  44  40  38  40  38  37  36  39  38  39  41  42  43  45  45  46  48  49  50  50  51  55  69  88 106 102 158 147  58  63  78  86  79  44  68  83  94  70  43  68  82  95 107  96  88  91  86  96 101 108 101 108 133 128 111 117 116
  68  74  62  51  74  70  71  70  64  60  64  68  76  82  74  56  61  63  68  70  69  65  61  53  57  56  57  55  53  53  53  51  50  46  46  43  42  40  38  39  38  40  40  40  41  42  43  45  47  45  46  48  49  51  51  53  59  69  88 106  99 154 156  57  58  72  80  83  42  62  79  84  74  45  75  76  99 102  99  99  85  90  94 101 111 101 116 138 112 118 120 114
  73  78  65  47  70  83  78  75  65  59  59  79  74  73  70  58  58  63  67  67  64  59  55  54  55  57  58  55  55  52  53  50  48  45  44  40  39  39  40  37  38  38  40  40  42  44  46  48  47  46  48  48  51  51  51  54  58  73  89 107 100 148 156  63  59  65  70  83  51  67  76  87  77  49  72  89  96 106  96  89  86 104 106 112 110  96 115 135 126 116 119 114
