P2
# Generated by OpenCV 3.4.0
92 112
255
 153 154 156 154 156 156 155 157 157 159 158 158 161 161 159 158 159 155 157 152 136 116  95  89 109  91  79  65  56  51  49  35  36  40  44  38  41  45  44  42  37  40  43  46  47  52  52  56  58  60  53  49  49  63  87 108 137 157 161 177 181 186 186 188 188 189 190 190 190 190 191 191 192 193 194 194 195 193 194 194 195 197 197 195 196 196 198 198 199 199 199 198
 155 155 155 155 158 158 158 159 159 160 160 161 160 160 159 152 143 134 107  79  52  59  64  70  97 100  81  66  67  46  37  34  33  38  38  38  34  36  39  47  48  46  40  44  44  45  44  53  54  56  56  49  48  52  71  75  90 137 126 164 173 184 186 188 188 188 189 191 190 191 192 191 193 191 192 196 195 194 194 196 194 199 196 197 197 197 198 199 198 198 198 198
 156 158 156 156 158 158 160 160 160 160 160 161 160 161 157 133 118  91  74  48  44  46  45  46  64  73  93  60  52  45  33  30  28  30  36  31  30  30  30  31  40  41  41  36  37  45  42  43  43  45  54  49  49  48  48  58  59  78  82  97 147 169 182 185 188 188 189 188 191 192 192 192 193 194 194 194 195 196 195 195 195 197 198 198 197 199 198 196 199 200 200 199
 157 157 158 158 159 161 162 162 162 162 162 162 162 159 151 118  90  71  61  64  54  43  42  49  49  43  46  63  43  37  29  28  27  30  29  31  33  32  30  29  25  30  31  28  31  34  33  33  31  36  46  42  38  40  38  39  50  59  65  62  88 116 154 179 175 186 188 189 191 190 193 193 194 195 192 193 194 195 196 195 196 198 200 196 197 198 198 197 200 200 199 199
 156 157 159 159 159 160 161 160 161 163 161 162 162 160 153 129  81  58  62  86  73  44  37  37  48  50  37  37  42  27  22  19  18  19  21  24  28  31  33  36  36  29  30  25  25  31  33  32  26  26  30  34  34  32  29  31  39  46  53  56  65  86 103 130 151 175 187 190 190 191 192 192 193 195 194 195 194 196 195 196 195 199 198 196 197 197 198 198 198 198 198 198
 157 159 158 158 159 161 161 160 161 161 161 161 162 161 153 147 103  53  53  71  89  53  35  29  32  50  45  24  26  21  21  21  20  23  26  27  27  27  27  31  36  39  34  28  25  25  36  44  39  25  22  26  30  30  28  25  28  36  44  49  51  70  71  80 114 132 176 187 190 192 191 191 192 192 193 194 194 194 195 194 194 198 198 197 198 197 200 198 198 200 199 201
 158 159 158 158 159 160 161 161 161 160 161 161 162 160 157 156 113  62  52  56  59  49  31  28  24  30  50  30  20  17  18  17  19  22  26  29  31  30  28  25  26  33  36  38  30  24  27  35  43  46  35  29  26  26  24  18  21  29  42  43  37  51  60  73  84  82 131 180 184 186 186 190 193 193 193 194 195 195 196 195 196 197 198 196 197 199 200 197 199 199 200 199
 160 159 157 158 159 160 162 162 162 161 163 163 164 164 161 154  91  58  61  62  46  40  28  23  23  21  29  28  19  16  15  17  15  17  18  23  28  30  31  31  27  24  29  36  42  32  22  20  22  25  32  36  36  30  24  18  19  23  32  45  32  35  44  62  71  71  76 156 157 148 154 186 192 192 192 193 195 194 195 195 196 198 200 197 198 198 199 198 198 199 199 198
 160 160 159 158 156 159 161 162 161 161 162 160 163 164 161 147  83  58  61  67  58  48  32  20  20  18  21  23  20  17  17  19  18  17  15  17  20  22  27  30  30  28  26  28  31  33  30  24  20  18  17  20  21  23  26  19  18  20  23  29  31  30  37  48  55  58  68 102 120 103 114 179 190 191 192 194 196 194 195 197 196 199 201 196 196 196 197 198 196 198 198 197
 159 160 159 160 158 160 161 161 162 161 161 160 163 160 152 124  80  47  37  45  40  31  23  16  15  17  17  21  20  17  16  17  19  24  26  23  25  25  27  28  31  31  29  27  29  31  34  37  31  24  18  16  17  15  18  18  16  17  18  23  27  26  27  36  41  45  58  79  76  72  85 170 186 190 193 193 195 194 194 194 196 197 199 195 196 197 196 196 197 197 197 198
 159 160 159 159 157 160 161 160 161 162 162 160 162 150 140 102  57  34  29  24  23  19  16  16  16  15  18  21  22  17  15  15  15  18  20  22  21  21  27  29  30  34  33  31  25  27  31  37  43  45  36  25  22  22  22  17  16  16  15  21  21  24  23  28  32  31  43  54  50  52  80 159 171 188 192 194 194 195 193 194 196 197 197 196 196 196 196 196 197 197 197 197
 161 160 160 157 158 159 160 160 161 161 162 161 159 151 142  88  40  27  24  20  19  17  15  14  17  18  21  22  18  15  17  20  17  18  18  20  20  21  23  23  23  24  26  26  26  24  22  27  31  35  36  33  26  22  30  29  21  18  17  18  19  21  19  24  28  28  34  43  38  45  70 127 156 187 191 192 194 194 192 193 195 196 196 195 196 195 196 194 198 198 197 197
 160 160 160 159 158 158 160 160 160 162 164 162 162 156 139  62  34  23  24  22  21  18  17  18  19  22  21  19  16  19  25  30  24  20  21  19  21  25  26  25  25  27  32  33  34  32  32  30  26  26  31  36  33  27  32  30  34  28  19  18  19  20  19  24  24  25  29  33  31  43  66  88 149 187 190 192 194 194 194 195 193 196 195 196 195 194 197 196 197 199 200 198
 161 161 161 160 159 160 161 162 162 165 165 164 162 158 103  36  27  23  18  21  22  22  19  19  19  17  15  16  16  19  23  27  34  25  18  16  16  17  18  19  20  18  20  22  23  25  26  30  28  27  24  22  22  25  27  29  31  31  25  19  17  19  21  24  25  24  25  29  32  38  57  56 143 170 187 191 193 193 194 194 195 196 196 195 194 196 195 196 196 196 199 196
 160 162 160 161 162 162 163 163 164 164 164 162 157  91  40  34  33  29  25  23  22  19  19  17  16  17  18  17  19  20  22  24  26  23  17  15  14  13  12  13  14  13  14  16  18  20  21  23  24  25  23  22  18  20  20  22  20  20  20  18  15  16  17  25  28  27  24  26  30  33  40  56 104 148 184 191 193 192 194 194 194 196 195 194 194 196 196 197 196 196 196 197
 160 161 161 162 162 162 162 163 164 164 158 126  71  47  35  31  27  25  23  22  19  18  16  14  17  18  19  22  21  23  26  23  17  16  14  14  13  12  11  12  11  11  13  14  17  16  17  19  23  26  31  32  30  31  31  28  29  26  21  18  17  16  18  24  27  30  26  23  27  29  36  44  67 114 170 188 193 192 192 193 195 195 195 194 196 198 196 196 196 196 196 197
 160 160 162 162 162 162 164 163 163 164 150 107  52  40  31  30  28  28  25  22  19  17  17  16  17  21  21  23  25  25  23  20  16  13  13  14  14  14  11  10  12  12  12  13  14  15  17  21  26  25  30  33  33  31  30  30  33  32  29  23  18  17  22  30  28  29  29  24  25  29  31  37  57  91 130 180 190 192 191 192 194 196 194 194 195 194 195 197 196 196 196 195
 160 162 160 162 161 161 163 164 164 160 140  50  37  37  34  31  29  24  22  22  18  18  17  17  19  19  17  16  14  14  14  14  13  11  11  12  12  14  14  13  12  12  12  12  15  15  15  19  22  20  22  26  28  29  28  30  33  34  31  27  20  27  30  26  24  26  29  28  30  34  32  32  46  60 118 177 187 190 193 192 192 195 193 194 194 193 194 196 196 195 195 195
 160 160 161 161 160 163 162 162 164 159  88  38  32  30  24  24  23  22  17  18  18  18  19  19  16  15  14  12  11  10  10  11  11  11  11  11  11  11  13  14  14  11  11  12  13  14  13  15  15  16  17  18  22  23  22  29  32  38  35  32  26  27  28  32  32  29  27  28  31  31  29  29  39  52 112 165 178 183 191 191 191 196 195 193 194 194 195 196 195 196 194 195
 161 161 162 161 161 161 162 162 162 146  70  39  27  21  19  21  22  22  16  18  19  19  18  16  16  14  13  11  11   9   9   9   9  11  11  11  11  12  11  12  13  14  12  13  14  13  12  13  14  16  17  23  25  24  26  27  30  37  37  35  36  35  29  40  37  31  26  26  31  31  27  25  34  50  92 138 162 168 187 193 193 194 195 192 194 193 195 195 195 195 194 194
 161 161 162 161 164 162 162 164 161 133  88  38  27  22  17  18  20  20  17  15  16  17  16  16  16  13  13  12  11  11  11  11  10  12  13  14  14  14  14  13  14  14  14  15  14  13  14  15  15  16  17  22  23  23  23  24  26  29  34  40  46  39  35  40  36  31  27  25  29  30  26  24  28  47  88 122 124 158 185 189 193 195 194 193 195 195 196 194 193 194 194 194
 161 163 161 162 163 162 161 163 162 139  70  35  28  23  21  17  18  20  16  17  18  16  16  16  14  15  15  14  14  15  15  16  17  21  22  23  22  23  23  22  21  20  20  19  16  16  16  17  19  18  23  24  22  24  26  28  27  32  32  32  37  36  34  40  37  34  29  25  24  27  25  23  29  46  68  76  94 120 181 189 192 193 192 194 193 193 195 194 194 194 195 195
 162 162 162 161 163 163 163 163 158 137  55  30  24  25  21  16  18  20  18  15  16  16  16  16  15  17  17  17  20  22  24  26  31  36  37  38  39  39  39  39  36  34  33  29  27  25  22  23  25  27  30  31  32  32  33  36  33  32  36  40  45  43  37  35  36  37  34  27  26  26  29  24  27  39  51  55  81 142 160 186 192 194 193 194 193 194 195 194 195 195 194 194
 163 161 162 163 164 163 164 163 161 145  41  26  20  19  23  17  18  18  16  15  15  15  16  16  18  21  22  22  28  30  35  40  45  49  52  52  52  56  54  52  50  49  48  46  44  39  37  37  39  42  42  43  44  44  40  37  41  46  54  53  58  60  54  44  38  38  41  33  31  31  26  23  23  30  39  44  61 150 146 185 191 193 194 193 194 193 193 193 193 195 195 194
 161 163 163 162 163 163 164 163 163 144  40  24  17  17  19  18  16  16  15  16  14  17  16  14  20  24  26  29  35  42  46  51  58  62  62  62  63  63  61  62  62  61  60  56  54  55  53  52  55  53  54  54  54  52  50  51  56  62  68  65  69  80  73  59  40  36  37  31  29  26  24  21  23  29  39  39  58 120 140 182 191 192 192 193 192 193 193 192 193 193 193 194
 162 162 162 163 163 162 163 165 163 136  40  24  19  18  16  16  16  15  16  16  16  17  17  16  22  28  32  37  45  51  55  62  70  71  74  74  74  69  68  69  68  69  68  66  64  66  67  67  66  64  65  64  63  63  59  60  64  75  74  68  75  84  82  56  44  42  37  30  30  26  21  21  24  32  35  40  62 100 142 180 191 194 192 191 191 193 195 194 195 193 193 194
 161 162 162 164 163 163 164 163 162 106  33  26  21  19  18  17  16  15  15  17  19  22  21  22  28  33  40  48  54  59  67  71  75  81  83  84  84  81  79  76  80  78  76  72  71  72  74  75  73  72  71  71  68  66  67  71  74  78  71  68  68  65  47  50  57  52  42  32  28  28  24  23  24  28  32  44  78 111 146 176 190 194 192 192 192 192 193 195 193 192 194 193
 163 163 162 162 163 165 165 164 162  64  33  26  20  15  16  17  16  17  18  21  25  31  29  29  37  44  50  57  63  68  72  77  83  87  89  90  91  88  85  84  84  84  84  82  78  76  76  77  76  76  74  73  73  72  74  77  78  83  76  62  59  62  67  67  70  67  50  37  28  26  24  23  27  30  37  59  88 111 145 180 190 194 194 193 193 193 193 193 193 194 193 194
 162 162 162 163 164 164 165 165 156  34  31  27  19  16  16  16  16  17  21  28  36  40  38  40  47  58  60  67  73  76  79  82  86  89  90  92  93  91  89  85  83  86  87  87  84  81  79  77  77  78  78  77  76  77  79  77  81  87  83  75  79  96  98  90  88  81  65  47  31  26  24  22  27  30  41  58  98 131 165 181 191 192 194 193 193 194 193 193 192 193 194 193
 164 163 164 165 164 165 165 163 119  30  26  25  23  20  17  15  17  22  29  37  52  60  58  59  62  66  70  75  79  83  83  84  86  90  88  90  91  91  88  88  88  90  90  89  88  86  83  82  83  82  80  79  77  79  80  77  84  91  86  83  84  97  99  90  89  91  77  61  38  28  24  22  25  40  54  97 133 145 164 180 191 193 191 192 192 193 195 193 192 192 193 194
 164 165 164 165 166 165 166 164  86  31  24  23  21  20  17  18  19  24  34  45  58  68  70  72  71  72  76  79  82  86  87  85  86  89  89  92  93  93  91  90  92  93  93  93  92  92  88  87  89  86  85  85  82  83  81  82  85  88  89  87  91 100 101  94  93  95  91  75  49  30  25  23  28  43  66  84 120 129 152 176 189 193 192 192 192 193 195 192 192 192 193 193
 165 164 164 165 166 165 166 162  77  30  24  22  18  20  21  20  22  28  37  48  63  71  75  75  76  76  80  84  86  87  89  89  89  93  94  93  93  95  96  94  93  94  95  97  98  99  99  97  95  94  91  89  85  85  85  87  86  86  89  91  94 101 102  99  98 101  97  86  59  35  32  26  30  37  48  58  86 114 134 153 188 192 191 193 194 195 194 193 192 191 191 192
 164 165 166 165 165 166 166 163  60  30  23  23  22  23  20  18  22  28  37  50  65  76  78  77  78  81  85  86  87  90  92  92  92  90  94  98  97  99 100 100  99 100 101 103 106 105 107 107 103 101  98  97  94  94  94  94  93  91  90  93  95 102 103 100 101 102 100  90  68  44  38  34  35  42  62  77  80  91 109 157 188 191 192 193 192 194 194 192 192 191 192 193
 166 166 166 166 167 166 167 160  49  28  24  20  22  19  16  18  20  26  36  51  66  74  79  79  80  83  87  87  88  92  94  97  96  98 102 104 104 103 104 108 110 111 111 112 115 115 114 115 113 109 107 103 104 106 106 107 104 100  96  99 101 102 109 107 105 107 104  91  74  50  36  36  38  45  56  95 139 143 159 182 192 192 193 191 193 192 195 195 192 192 193 194
 167 167 167 167 167 168 167 163  41  26  22  18  21  16  17  18  22  27  36  50  66  75  78  81  83  86  86  90  92  98  99  97 101 105 109 110 112 110 112 116 119 121 121 122 121 122 124 123 121 118 117 114 113 114 116 118 116 110 107 104 105 109 112 113 112 108 102  90  72  50  37  36  40  40  44  61 112 163 171 187 194 193 193 192 192 192 194 195 194 193 195 194
 167 166 167 168 167 168 167 164  39  26  23  24  19  16  15  18  23  28  37  48  63  75  79  83  82  86  90  92  97 100 102 103 105 106 112 115 117 113 117 120 124 124 122 125 124 122 122 124 124 123 122 123 125 125 132 132 127 122 117 113 117 117 117 115 112 112 104  90  66  42  35  35  37  41  39  45  73 109 157 188 193 193 193 193 192 192 194 195 194 193 195 197
 167 167 168 168 167 168 169 161  33  24  23  21  17  16  17  18  23  29  37  51  66  74  79  82  85  89  92  96 101 103 104 107 109 112 114 119 122 118 121 122 125 127 127 122 119 121 117 119 123 124 125 132 138 146 144 140 137 132 129 129 131 133 131 123 117 111 107  92  63  37  29  27  31  42  39  43  78 144 171 186 192 192 193 193 192 194 195 196 194 194 195 196
 167 168 169 167 167 169 169 155  37  26  23  18  15  18  18  17  20  26  36  50  66  73  80  85  89  92  94  98  99 104 103 106 107 109 111 114 121 121 121 121 123 128 126 124 125 124 122 123 122 125 128 136 142 149 148 143 139 137 139 140 140 145 141 132 123 113 108  93  59  34  24  23  26  41  40  44  55 155 185 190 194 193 194 192 193 193 194 195 195 195 195 196
 168 168 169 168 169 169 169 158  34  26  20  19  18  18  17  17  19  25  36  56  71  77  80  86  89  92  97  96 100 100 103 104 102 102 107 109 111 110 115 119 120 122 118 123 126 125 126 126 124 127 130 135 139 140 137 137 137 139 137 142 144 144 139 135 125 116 108  92  59  30  22  20  23  31  37  72  74 166 186 189 191 191 192 193 194 193 192 194 194 194 195 196
 167 167 168 171 168 168 168 157  51  25  19  18  18  16  16  16  18  26  40  60  70  79  83  88  93  95  97  97  99  95  96  97  98  97 100 101 102 102 105 108 107 115 120 119 125 124 124 123 123 124 128 129 129 128 125 122 123 124 128 132 141 140 139 137 130 117 109  91  59  29  22  21  23  25  34  83  98 179 189 189 191 191 193 191 194 194 195 194 193 196 196 194
 168 167 168 170 169 169 168 159  73  24  17  17  18  16  17  15  19  30  46  63  73  79  84  89  91  95  93  94  94  91  89  88  88  84  87  88  89  92  93  96  97  98 109 115 115 116 115 113 111 110 117 121 120 117 123 119 116 116 117 123 125 131 137 137 133 123 108  93  59  27  20  20  22  24  41  91 152 183 190 190 191 191 194 192 193 195 196 195 194 194 194 191
 170 169 168 169 168 170 168 164  94  25  17  18  16  16  16  16  21  36  55  68  75  80  88  90  83  78  73  74  77  77  74  75  76  74  75  79  83  82  84  89  95  92  93  98 102 106 106 103 104 104 106 109 107 104 104 105 105 106 111 114 117 122 129 134 133 127 113  94  59  28  20  19  21  26  58 134 184 189 190 191 190 191 193 196 195 195 195 195 195 194 193 192
 168 169 172 170 169 170 170 167  97  23  18  16  17  16  15  16  24  42  62  71  78  82  81  67  43  46  45  42  44  44  47  50  50  54  58  64  66  69  75  80  84  81  85  86  92  94  96  98  95  88  91  94  93  88  89  90  94  92  96 102 101 103 110 116 122 127 117  97  62  29  22  19  21  28  58 160 188 189 190 190 192 192 193 194 194 192 194 194 195 194 195 193
 168 169 169 170 169 170 172 168 102  22  18  18  18  15  14  16  26  48  67  73  78  71  53  38  30  27  25  25  25  28  28  27  29  31  37  43  50  54  61  70  75  79  72  75  82  88  90  89  85  75  76  82  78  79  77  75  77  77  78  76  72  76  78  87  91  98 108  98  67  32  22  22  22  26 108 182 189 190 190 191 193 194 194 192 192 192 193 191 192 194 193 191
 169 169 169 169 170 170 171 166 106  26  18  17  17  14  13  17  32  54  71  75  67  42  32  28  22  20  21  23  21  22  19  19  20  19  22  24  31  36  42  52  60  68  71  69  71  84  88  84  85  80  74  67  69  76  63  52  50  50  50  47  46  42  42  49  51  54  67  86  70  37  23  24  26  47 174 186 190 190 190 191 192 193 192 192 194 193 191 192 192 195 193 192
 169 170 170 170 169 170 170 165  89  29  21  18  16  13  14  19  37  60  73  78  44  32  27  26  23  24  24  24  23  20  18  17  16  16  16  15  18  21  24  33  38  45  59  67  70  87  92  89  81  78  59  51  55  47  38  30  26  25  25  27  26  27  27  30  31  31  39  52  65  40  22  23  27 130 185 189 191 190 190 192 191 193 194 193 194 192 193 194 194 193 193 193
 169 169 170 169 170 169 170 166  84  31  24  18  15  14  15  20  42  68  77  68  43  29  28  28  27  30  31  33  33  30  29  25  20  18  17  16  15  15  16  20  24  31  42  50  65  89  93  94  82  74  55  45  36  31  26  22  20  19  18  19  19  22  23  26  28  27  30  35  47  40  24  26  71 173 187 189 190 190 190 191 192 192 193 193 193 192 194 194 193 192 192 192
 169 170 169 170 171 171 171 164 104  24  21  17  14  15  16  22  49  75  74  60  38  33  33  35  38  43  44  45  47  46  43  40  36  31  27  23  20  20  20  20  23  25  35  53  69  89 100 105  96  76  56  37  30  25  21  19  18  18  18  19  22  24  22  23  26  28  30  30  38  35  23  28 114 181 188 189 190 190 190 189 190 190 192 193 193 192 193 192 192 193 192 191
 169 169 170 170 170 171 170 149  96  39  22  17  14  15  17  23  59  81  73  57  46  42  43  45  47  51  49  45  44  46  44  44  39  34  28  25  24  26  27  27  26  29  35  52  74  91 103 109 102  85  57  32  28  26  25  23  24  28  33  35  38  39  35  33  32  31  33  34  40  32  26  31 164 183 188 189 191 189 190 190 190 190 190 192 192 191 191 193 192 193 191 191
 169 169 169 169 170 169 162 105  95  65  32  20  17  18  16  31  70  89  74  60  50  49  49  52  46  43  48  55  59  61  59  59  48  39  30  25  22  21  24  28  30  32  39  59  84 100 113 126 126 109  62  37  32  31  30  26  28  32  36  39  42  44  44  43  42  40  34  38  50  35  28  63 173 186 188 190 189 188 188 188 188 187 191 192 191 191 191 193 192 191 190 189
 169 169 168 169 169 169 162  60  62  64  36  28  24  18  18  35  78  92  80  69  59  55  53  46  48  57  54  56  54  49  41  35  31  26  25  25  24  23  24  27  30  37  43  65  97 114 123 141 146 144  65  38  33  30  29  27  28  33  38  45  46  50  51  44  42  45  45  49  65  37  30 122 180 185 188 188 190 188 188 190 189 189 190 191 190 192 192 193 190 190 190 190
 168 169 169 171 170 169 163  57  44  55  46  36  29  20  20  47  89  91  83  74  66  61  54  52  50  45  36  30  27  24  17  13  14  14  15  22  20  21  26  30  33  38  46  68 102 129 147 160 165 157  85  40  34  32  29  28  30  34  35  42  51  58  68  62  48  42  48  57  85  38  29 126 172 184 186 187 189 187 188 188 189 190 190 190 191 191 191 191 191 191 190 190
 169 170 168 170 170 170 160  57  47  63  60  46  30  19  23  63  90  93  87  81  71  65  56  47  36  27  26  28  35  35  17  13  13  14  17  28  25  23  24  31  38  42  47  69 106 132 156 170 177 168 102  43  36  29  28  26  27  22  18  18  22  28  40  48  52  48  50  63  93  47  44 110 140 183 188 189 187 188 189 189 190 190 189 190 190 190 190 190 191 191 189 188
 168 168 168 169 168 168 161  58  54  72  63  58  36  23  23  74  92  95  93  87  80  68  61  53  41  34  33  31  35  39  24  15  15  15  25  29  28  29  31  35  41  46  55  74 103 125 153 175 182 177 121  39  32  30  29  31  37  24  17  16  18  19  27  28  35  46  54  69  98  60  57 117 174 185 187 186 188 187 187 188 187 188 189 190 190 189 188 188 188 188 188 188
 168 168 168 169 168 168 152  57  63  76  63  61  43  25  34  83  91  97  98  94  88  78  72  67  58  51  45  36  36  37  34  31  32  34  36  34  31  34  36  38  45  56  74  84 100 118 148 175 188 186 136  48  44  38  32  33  37  28  18  17  20  27  32  30  31  40  58  78 104  82  68 156 182 186 186 186 185 185 188 188 187 188 189 188 190 190 188 189 188 188 187 186
 168 168 168 168 168 166 127  61  80  79  69  56  44  28  42  85  90  96 103 102  96  87  82  75  69  57  50  45  41  35  35  35  35  33  34  34  35  34  35  43  58  76  84  89  98 112 143 169 186 180 141  67  42  39  37  36  38  36  32  27  31  36  37  38  45  51  74  93 113  95  83 177 183 185 186 185 185 183 185 185 186 188 187 188 188 188 187 188 187 186 187 186
 168 168 168 167 167 165 116  73  80  62  44  30  39  29  46  88  91  95 102 104  99  95  91  84  77  69  59  50  45  42  41  39  41  43  46  48  42  41  45  60  77  89  88  94 100 112 131 162 181 172 136  88  52  40  40  39  37  38  37  35  37  38  40  45  58  80  99 110 120 109  95 178 184 185 184 185 184 182 184 185 186 186 187 186 187 187 187 188 188 184 184 186
 168 168 166 167 167 167 126  84  70  53  38  28  34  34  55  88  93  99 105 103 102 101 100  94  88  81  74  68  66  61  62  61  67  65  67  63  59  59  67  80  86  93  89  93 100 110 124 153 178 169 137 108  71  50  47  47  46  43  41  41  39  42  46  59  79 102 118 123 127 113  95 178 182 184 186 185 184 183 183 183 185 185 186 185 186 187 186 186 186 184 184 184
 166 167 166 168 168 166 138  85  62  45  36  32  53  35  59  88  93  97 103 105 106 107 108 102  96  91  83  84  83  79  78  78  78  74  75  77  77  80  83  90  91  91  88  94  99 108 125 150 176 164 140 114  86  69  60  58  60  61  57  52  54  55  65  82 105 123 131 132 131 113  80 164 182 183 183 183 184 182 183 182 184 185 184 184 185 184 187 185 184 183 184 184
 166 166 166 166 167 165 139  83  59  44  37  40  56  36  51  85  88  92  96 102 104 107 107 104 100  91  86  88  86  84  84  80  78  82  86  88  89  89  91  92  90  90  88  92  98 105 122 148 173 164 138 115  95  83  76  72  71  71  74  75  77  82  90 109 130 135 137 136 133 108  73 128 178 182 181 182 182 182 182 181 182 183 184 183 183 184 185 185 184 183 182 183
 165 166 166 166 167 165 133  83  62  49  45  50  58  37  56  83  85  88  91  94  99 104 105 107 100  93  86  86  84  83  87  86  87  92  93  95  95  93  94  92  89  87  86  94 102 116 125 146 170 165 142 117 102  93  88  85  82  81  81  85  88  98 106 121 132 140 139 134 127 101  66 103 177 181 182 181 182 181 181 182 181 182 183 182 182 183 183 184 184 183 183 183
 165 165 166 166 166 164 136  92  73  58  52  56  55  36  58  80  82  84  85  87  92  96  99 100 102  96  92  91  88  90  91  91  95 100 101  98  95  94  94  89  89  88  88  94 108 126 136 150 168 167 150 130 107 102  98  97  94  89  87  86  84  89  98 112 126 129 130 125 118  94  69 102 172 181 181 181 181 179 182 181 180 181 181 183 183 181 182 182 183 184 183 184
 165 163 164 164 164 165 144  99  87  67  59  56  48  34  55  76  82  80  82  85  86  89  89  94  95  94  95  93  93  95  96  95 100 103 102 100  97  96  93  93  90  89  90 101 119 130 138 148 156 160 158 146 120 109 108 105 103  93  88  89  90  91  95 110 117 116 117 112 106  89  78 110 171 181 180 180 181 180 180 181 179 182 183 182 183 181 183 183 182 182 181 182
 164 165 165 164 164 165 159 107  95  85  77  59  39  35  51  73  80  77  75  79  79  80  82  84  86  81  88  89  93  96  94  92  98 102 100 100  99  99  97  92  88  86  89 107 124 131 139 154 150 149 159 152 134 115 110 107 104  98  94  94  96  98  95 100  96  99 101  97  96  84  99 136 172 181 180 181 181 180 181 181 181 181 183 182 182 182 182 181 183 184 181 181
 163 165 165 166 163 164 162 127  85  95  94  70  42  37  44  68  73  71  70  70  68  72  73  76  79  80  84  88  93  94  98 100 101 106 101 101  99  96  90  86  86  86  93 113 123 128 141 154 153 151 156 152 142 119 112 109 110 106 101  98 101 102  95  89  85  89  89  87  87  84 118 141 174 180 181 181 181 181 181 181 182 182 182 182 181 181 182 182 182 182 181 182
 163 164 164 164 164 164 164 158  79  86  88  80  52  36  39  66  71  69  64  64  66  67  69  70  77  76  83  89  93  98 103 106 104 105 102  99  96  90  83  82  90  95  97 109 116 124 140 153 157 155 158 150 141 122 111 114 115 112 109 106 107 102  96  91  83  76  71  73  76  83 138 155 178 181 181 181 181 181 180 181 182 181 181 181 181 180 181 181 181 180 182 181
 163 163 164 164 166 166 164 162 103  84  75  65  43  32  35  61  69  62  57  59  65  63  68  69  73  75  80  85  92 100 105 106 103 101  98  97  91  84  79  87 101 100 100 104 109 118 134 148 144 145 144 142 138 121 109 113 116 117 117 115 109 104  96  89  71  62  65  65  69  98 130 169 178 180 180 180 180 180 181 181 181 182 181 181 181 180 181 180 180 179 179 180
 164 164 163 164 164 165 164 164 134  86  77  65  42  32  35  59  63  56  60  62  64  59  64  68  68  73  79  87  94  97 103 101  99  99  97  92  85  78  78 100 103  94  90  91  96 103 116 125 126 127 128 126 124 116 109 111 116 121 121 120 110 107  99  89  74  66  66  65  67  85 120 173 180 180 181 179 180 180 181 180 181 182 180 180 182 178 180 181 178 177 180 181
 163 162 163 164 165 165 164 164 155  94  87  75  60  41  41  58  63  61  61  63  62  59  64  68  74  79  86  93  94  95  98 100  98  97  95  88  81  72  81 101  98  83  72  68  71  80  91 102 104 104 111 105  93  99 120 111 116 122 125 122 107  99  96  89  83  71  66  66  66  83 134 174 180 180 178 180 181 179 181 182 181 180 181 180 179 178 180 180 180 179 179 180
 162 162 163 164 163 164 164 164 161 107  93  84  74  51  48  57  63  67  62  60  62  61  64  65  73  82  91  92  93  93  96  95  96  92  89  81  72  66  86  92  81  72  60  60  61  72  77  79  80  85  86  76  64  76 114 108 113 119 125 127 122 104  95  90  84  71  66  69  76 101 148 177 180 180 180 181 180 179 181 181 180 178 179 179 179 181 179 179 178 176 178 178
 163 163 162 162 162 163 164 163 161 127  88  81  69  50  54  56  61  65  62  60  61  63  66  68  81  87  89  90  91  93  94  93  93  91  85  78  70  65  77  72  58  42  30  36  56  64  64  61  62  67  66  57  53  63  90 102 111 117 125 128 119 108  93  92  83  73  69  69  90 112 161 178 180 179 178 179 181 180 181 181 178 179 180 179 179 180 177 178 176 177 177 179
 162 160 163 164 164 164 164 163 164 157  96  65  56  57  60  56  59  66  60  55  59  66  66  75  85  86  86  87  90  93  92  91  89  85  77  71  71  67  60  50  31  24  22  29  42  55  52  51  51  54  55  43  31  47  79 100 110 115 118 122 121 114 100  92  79  73  72  73  79 113 172 180 180 180 181 180 181 181 181 181 179 181 180 179 180 180 178 179 178 178 177 177
 163 161 163 164 163 163 165 164 163 163 162 142 141 144  71  56  60  60  56  52  55  63  64  73  80  83  86  87  89  91  90  89  84  78  74  74  79  76  52  36  28  33  38  40  44  50  48  44  46  48  45  33  33  55  99 108 110 113 112 117 118 112 100  92  83  80  80  78  79 149 175 180 180 180 180 180 179 180 181 181 180 179 180 179 177 177 178 178 179 177 177 176
 161 162 162 163 162 163 163 162 163 163 165 163 163 149  84  54  56  56  53  50  53  60  60  70  73  78  82  83  86  88  87  84  81  78  81  84  85  81  52  42  37  37  39  39  41  44  45  42  41  39  35  38  68  96 106 117 114 113 109 115 112 110 104  93  90  84  79 104 162 173 177 178 180 180 178 179 181 180 181 181 179 179 180 177 177 178 178 178 177 177 178 177
 160 161 160 163 162 163 163 163 164 163 163 163 164 156  93  51  53  53  54  49  52  58  64  69  70  73  77  81  85  85  83  81  79  83  86  88  87  81  54  46  39  37  39  37  38  37  35  37  37  35  34  37  66  80 103 122 123 116 117 119 114 108 100  89  83  77  77 112 168 176 177 178 179 179 178 178 178 178 181 180 178 177 178 178 178 178 178 178 177 177 176 177
 161 161 161 162 162 162 162 163 162 162 163 163 164 160  94  52  51  51  52  49  50  56  62  66  67  70  71  76  81  83  81  83  84  84  86  90  85  74  48  44  42  38  37  37  36  33  31  33  34  37  36  38  58  78 111 121 122 121 121 115 113 106  93  83  78  75  76 122 170 176 175 176 177 178 177 176 178 177 179 181 181 179 176 177 178 178 178 177 177 176 175 176
 159 160 161 161 161 162 163 162 163 162 164 163 162 160 113  56  51  48  46  48  52  53  58  64  64  69  72  75  77  79  80  82  82  83  77  79  73  67  49  43  40  40  37  37  38  33  31  32  31  35  36  39  54  78  98 108 112 114 115 114 110 100  89  81  82  73  76 141 173 177 176 177 176 178 178 177 177 178 178 179 178 177 177 176 176 176 177 176 176 176 176 175
 160 161 161 158 161 161 162 162 163 162 164 164 164 160 135  62  50  51  44  47  49  51  57  62  62  66  70  76  78  80  75  73  71  74  73  69  66  58  49  44  43  41  37  37  34  30  29  30  32  36  37  43  52  67  88  94  95  95 101 106 107  97  87  86  79  66  77 163 174 175 176 176 176 176 178 178 177 176 177 177 176 176 178 175 176 177 178 176 175 177 176 177
 158 161 160 159 159 161 162 162 163 163 163 162 161 160 144  57  49  49  43  45  45  47  52  52  59  62  69  73  77  74  64  64  65  64  59  54  54  52  47  43  41  43  37  34  34  29  29  29  33  36  37  47  57  58  65  77  89  81  84  87  99  97  85  80  71  57  86 168 174 174 175 176 176 176 178 176 176 175 175 174 176 175 175 175 175 175 177 175 175 177 175 175
 158 158 159 161 159 160 160 160 162 162 163 162 162 162 156  80  50  48  44  45  46  46  48  49  57  64  70  72  69  65  62  58  63  56  51  48  48  48  48  47  44  42  35  36  34  30  28  32  33  36  42  52  54  51  64  70  74  77  80  81  86  88  78  69  59  52  98 165 173 175 175 176 176 175 174 174 175 174 175 175 176 176 176 175 175 175 174 176 176 175 174 175
 157 157 158 158 159 160 159 162 163 161 162 163 164 163 158 111  48  48  47  45  44  46  51  54  58  62  69  69  59  56  60  55  55  53  50  49  52  50  55  53  54  51  43  43  36  32  30  36  43  46  55  63  58  55  66  66  64  67  74  77  75  82  72  69  55  51 125 171 173 175 174 175 175 173 175 175 174 174 174 174 174 174 174 174 174 174 175 176 175 175 175 176
 156 156 158 158 159 158 158 160 159 160 161 162 161 162 159 135  44  47  48  45  45  46  50  52  58  63  67  61  53  56  59  52  51  43  45  48  50  51  57  57  61  58  53  48  46  44  42  46  50  54  59  62  60  59  66  60  57  58  62  68  66  76  71  63  49  49 145 172 174 176 173 174 174 174 175 175 174 174 174 172 172 172 173 172 172 174 174 175 174 175 173 175
 156 156 157 157 158 157 157 156 158 159 159 161 161 161 161 152  62  45  45  45  45  45  49  51  58  62  66  59  53  52  52  47  41  35  39  43  44  46  46  41  42  41  42  47  48  51  52  52  48  41  40  40  40  45  52  51  47  48  51  56  60  71  68  57  48  71 165 173 172 173 173 173 174 173 173 172 173 173 172 170 172 172 173 174 172 174 174 173 174 173 174 174
 156 156 156 157 157 157 157 156 158 160 158 160 159 160 159 154  88  42  43  45  47  46  44  47  56  63  65  55  48  46  41  35  30  26  28  31  31  30  30  29  31  33  32  33  34  40  42  38  36  36  34  34  34  33  35  38  36  40  44  48  56  70  62  52  45  99 167 172 172 173 173 172 172 172 172 172 172 170 172 173 171 171 173 172 172 172 173 173 173 173 173 174
 155 155 156 155 155 156 156 157 156 157 157 158 158 159 157 155 141  46  43  44  46  47  44  46  53  61  64  57  48  41  35  30  21  20  18  18  23  24  24  23  20  21  26  26  25  28  29  28  28  25  24  26  26  26  27  30  29  34  38  45  56  65  60  47  44 143 169 170 170 172 171 169 171 170 171 171 171 170 169 170 170 171 172 172 172 172 171 171 171 172 173 173
 155 154 154 155 155 156 156 156 155 156 157 158 158 158 156 155 153  70  43  41  43  48  47  46  51  57  60  55  47  40  34  31  28  34  35  32  32  34  37  37  34  29  26  24  21  18  21  24  25  28  33  36  34  31  33  38  36  37  43  47  56  60  54  49  62 154 168 169 169 171 171 171 171 170 169 170 170 169 170 172 172 171 170 173 171 172 171 172 170 170 172 172
 154 154 154 155 154 155 155 155 155 156 155 156 157 156 156 156 153 109  41  39  40  42  44  45  51  55  58  54  44  38  36  35  39  43  47  48  45  45  49  49  50  47  43  40  39  36  36  38  41  45  44  44  45  44  48  46  43  43  42  48  55  56  47  46  94 163 166 168 169 169 171 170 170 169 169 170 169 169 170 169 170 170 170 171 171 170 171 171 170 170 171 170
 153 154 154 154 154 155 154 153 155 155 155 156 155 155 156 156 154 139  41  37  38  42  43  43  48  50  53  49  44  43  42  42  45  46  54  58  58  54  56  57  55  55  54  55  50  47  47  47  48  47  49  50  50  54  54  51  50  44  41  46  52  50  44  43 139 165 167 169 169 170 169 167 168 168 168 167 168 168 168 169 169 169 168 170 170 169 171 170 169 170 170 170
 151 151 152 152 153 154 154 155 154 155 155 155 155 155 156 154 154 148  88  35  36  38  38  41  44  46  49  45  43  45  45  45  45  46  51  55  54  58  59  57  53  51  53  58  53  49  51  49  49  50  50  52  52  54  52  50  50  47  40  42  47  43  40  69 154 165 167 167 167 167 167 167 167 167 166 166 166 166 165 168 169 167 168 169 169 168 168 166 167 168 168 169
 149 150 151 151 151 154 153 155 155 152 153 153 153 154 154 153 153 150 109  35  32  33  34  37  41  43  44  39  37  40  40  41  43  44  43  44  45  47  51  52  47  47  45  48  48  48  47  45  47  51  49  48  48  49  47  47  47  44  38  39  45  41  48 116 160 165 164 166 166 166 166 165 166 166 165 165 165 164 166 168 167 168 168 168 167 166 167 167 167 166 168 167
 148 149 149 149 150 151 153 152 152 152 153 153 153 151 153 153 150 142 104  50  31  30  32  33  36  37  38  34  32  34  35  35  42  41  41  40  38  36  41  39  39  40  39  40  40  40  40  42  43  43  41  38  39  42  45  44  44  40  37  36  42  40  79 151 159 162 163 164 164 164 164 164 165 165 164 165 165 163 164 166 166 165 166 164 166 166 166 166 164 165 166 166
 145 147 147 148 148 150 151 150 152 150 152 152 153 152 150 136 104  85  67  58  35  28  29  31  34  36  36  34  30  27  29  34  39  39  40  39  36  33  31  30  30  29  25  21  22  25  26  28  31  31  31  33  36  39  43  42  42  36  34  34  36  43 121 156 161 161 161 162 162 165 164 163 163 165 165 164 163 162 162 164 165 165 164 164 164 163 166 165 164 164 164 163
 143 144 145 148 147 148 150 149 150 151 151 150 150 148 124  72  64  59  57  61  45  29  25  28  31  31  31  31  30  26  29  33  36  40  41  39  34  33  29  26  25  24  17  15  15  16  18  21  25  29  32  35  39  43  45  44  42  34  30  31  35  68 128 149 157 160 161 162 162 164 163 162 162 162 162 162 162 162 160 163 162 164 164 163 164 163 163 163 166 165 164 163
 140 143 143 144 144 146 146 147 148 150 147 143 100  72  72  61  53  50  47  61  50  39  26  24  29  30  30  31  29  25  27  32  35  34  40  40  38  35  32  29  25  20  18  17  18  17  19  23  25  31  37  42  45  42  43  45  42  35  30  29  32  54  77  94 120 140 156 160 161 162 162 160 162 162 162 161 161 163 161 161 161 160 161 161 161 160 160 161 162 163 161 162
 137 140 141 142 143 142 144 143 144 145 142 101  53  53  60  50  43  42  37  63  52  43  35  25  26  28  31  30  29  27  27  30  33  33  39  43  45  40  36  34  27  24  24  26  24  23  21  24  29  35  43  48  49  45  46  46  41  35  31  29  28  35  49  64  81  90 110 134 154 158 160 160 160 161 161 160 159 162 160 160 159 158 160 161 160 158 160 159 161 162 162 160
 131 134 138 140 141 142 141 143 142 132  98  71  44  51  54  44  35  37  34  65  55  43  39  34  29  25  26  25  24  26  26  29  30  30  34  38  44  46  43  36  27  25  26  28  25  24  27  29  31  40  47  50  49  48  48  43  36  32  29  43  25  28  33  40  52  61  81  99 119 137 155 158 158 158 159 159 160 160 159 160 158 157 159 157 159 159 158 160 157 158 158 159
 112 118 120 121 124 125 127 130 112  86  74  65  46  55  57  48  37  33  29  62  56  48  42  37  39  33  24  20  24  23  25  25  30  30  32  36  43  42  38  31  27  26  27  29  27  26  27  30  32  35  47  47  43  42  42  40  32  29  42  53  26  24  26  28  33  37  57  76  99 116 123 146 156 157 158 159 156 156 157 157 156 156 157 157 155 154 153 156 155 156 156 156
  93 105 106  98  91  93  96  93  86  76  69  61  47  56  56  50  40  30  26  63  59  50  44  40  42  41  33  22  21  21  23  24  27  29  30  33  37  36  37  36  31  28  26  30  28  26  29  29  31  38  43  44  38  33  33  30  25  34  58  66  40  27  26  28  29  32  40  58  84 108 116 118 132 151 156 156 156 156 158 158 156 157 157 157 155 153 155 154 155 155 155 155
  88  94  98  96  90  91  92  83  77  72  76  63  52  58  53  48  38  25  17  64  59  52  45  38  40  39  42  36  23  17  20  22  23  26  28  32  34  32  32  38  35  31  26  26  27  26  27  25  29  34  39  37  35  30  29  23  28  46  65  76  90  76  34  29  28  29  34  44  66  90  98 105 110 117 151 154 156 155 156 155 154 154 156 154 153 155 156 156 154 154 155 154
  74  84  84  87  84  85  80  78  79  81  72  61  47  57  53  48  35  21  24  62  61  53  44  37  36  38  42  41  36  25  19  18  21  22  31  30  29  27  27  30  29  27  23  22  23  21  21  24  26  32  37  34  32  30  24  27  41  54  66  51  59  78  90  54  31  28  32  43  64  81  81 104 100  96 128 152 154 154 153 155 154 154 155 153 152 154 153 154 154 154 153 152
  76  68  78  78  77  81  73  77  78  59  61  53  48  63  51  46  37  19  33  62  59  52  48  39  37  35  41  44  44  40  29  20  17  18  23  24  25  25  25  26  24  24  21  22  20  18  19  20  24  29  28  29  26  24  29  40  48  57  69  38  41  60  79  85  57  29  31  41  63  86  96 103 106  95 109 138 151 154 153 154 153 153 155 153 153 154 154 154 153 153 152 152
  79  59  82  81  85  81  75  75  75  74  68  54  46  61  48  43  36  18  41  64  62  52  48  42  35  37  41  43  45  45  37  27  20  18  19  22  24  24  24  21  21  21  20  20  18  18  18  19  22  23  24  21  22  33  43  45  50  61  73  64  30  41  55  70  86  57  32  36  62  88 109 106 103  96 112 123 136 146 152 153 154 153 153 153 154 152 153 153 152 152 151 151
  78  65  63  75  77  79  68  69  75  71  66  49  54  64  53  48  37  18  49  63  61  55  52  47  42  38  39  40  43  43  41  36  30  25  19  19  20  19  19  19  19  15  17  16  17  16  16  18  19  20  25  30  37  42  43  44  53  67  84 109  72  28  42  57  75  94  46  33  51  85 110 112 106 102 113 116 127 131 145 152 153 154 153 152 152 152 153 152 152 152 152 152
  84  71  58  73  75  76  76  77  72  72  67  49  58  64  54  46  36  19  53  61  61  59  53  46  46  43  40  42  42  43  40  36  34  28  27  22  20  17  16  16  14  14  13  12  14  13  13  17  19  29  39  39  37  41  41  46  57  68  86 108 137  52  31  45  60  81  96  35  41  86 102 113 104 113 115 108 113 124 131 148 153 152 152 153 153 150 152 154 153 152 152 152
  81  76  61  69  73  73  69  70  72  64  57  52  54  61  57  48  38  21  54  61  61  57  52  48  46  45  45  45  43  44  40  36  33  30  30  28  25  24  21  19  17  15  17  17  19  18  22  24  28  36  38  39  38  38  44  50  61  71  95 118 129 124  35  34  49  64  88  79  31  71 102 116 111 108 103 109 112 118 118 133 144 150 152 152 154 152 152 152 152 153 152 152
  86  73  66  63  77  76  72  72  67  67  57  41  53  63  51  50  42  25  52  59  57  57  52  48  46  44  46  46  46  44  44  42  36  32  31  29  28  28  26  26  25  22  24  25  27  27  25  28  30  34  37  40  40  39  49  54  64  73  95 119 110 164  75  33  39  53  84 102  55  58 100 113 120 115  98  93 109 115 116 121 126 121 138 150 152 153 150 151 152 152 152 153
  86  78  70  56  72  81  75  69  66  67  54  50  57  68  56  50  41  29  49  57  58  56  53  50  46  48  46  46  47  45  42  42  37  32  30  30  31  30  27  28  26  27  28  30  31  28  28  31  33  34  40  39  41  46  52  60  68  76  94 118  99 156 128  52  41  52  66  86  80  47  86 108 120 116  93  89 101  92 122 124 126 124 125 139 136 143 147 151 151 151 150 149
  82  77  72  61  64  73  78  67  59  61  60  57  55  60  61  54  41  28  44  58  59  56  52  49  50  48  46  47  49  47  43  39  39  38  33  32  31  29  28  29  29  31  30  31  31  31  31  32  35  38  39  38  41  48  57  64  71  78  93 115 110 139 156  73  44  54  65  76  94  57  72  95 121 123  91  80  98 103 115 128 128 130 126  82  76  94 129 147 150 150 150 151
  89  84  81  72  56  78  78  68  56  49  50  60  60  73  67  59  48  27  38  56  57  56  53  49  48  47  46  48  48  49  46  40  38  35  35  32  30  28  28  30  30  30  27  26  28  31  32  33  38  38  39  41  44  54  62  67  73  79  91 113 119 115 170 101  53  60  64  72 100  78  72  90 114 124  98  71  94 105 105 107 129 122 116 125  96  72  98 124 147 151 150 149
  78  75  74  68  50  71  67  73  65  66  59  56  61  70  64  58  51  26  35  51  55  57  54  52  51  48  47  47  49  48  49  43  43  39  33  33  30  30  29  28  28  26  24  25  30  33  37  38  40  42  40  45  45  57  64  69  72  80  90 110 124 110 173 141  58  70  70  68  98  99  70  98 112 117  98  64  85  99  98 112 119 127 114 117 129 117  94 121 133 150 152 150
  71  72  78  66  56  58  77  83  68  62  59  57  58  64  56  56  50  30  32  46  53  54  51  50  50  49  48  47  48  47  47  47  43  40  36  34  32  31  30  29  28  26  26  27  32  35  38  38  41  41  44  48  52  62  66  71  74  76  93 108 122 112 166 169  74  65  67  72  93  98  68 101 112 118  95  66  78  94 102 111 116 114 124 119 114 109 100 114 121 142 151 150
  72  65  76  72  63  50  78  79  73  70  61  45  51  65  55  57  61  35  28  40  48  52  50  49  52  51  52  48  49  48  47  50  47  43  36  36  36  32  30  30  28  27  30  30  34  37  39  43  43  44  46  51  56  63  67  72  77  82  94 108 120 120 155 176 107  74  90  89  91 104  72  97 108 114  97  64  73  89  98 104 112 109 110 114 117 107 110 123 124 136 152 150
