P2
# Generated by OpenCV 3.4.0
92 112
255
 151 150 152 154 153 151 152 153 154 154 155 156 155 157 158 160 161 160 161 161 161 162 163 164 162 164 165 163 166 165 165 166 166 164 166 164 168 167 169 170 166 169 173 173 174 174 174 174 176 175 177 178 181 181 180 182 182 184 183 183 185 185 185 187 186 186 188 188 189 188 189 190 190 189 189 191 191 191 192 190 190 192 193 193 194 194 194 195 196 196 196 195
 151 152 153 154 154 151 153 155 155 156 155 156 158 159 159 159 161 161 162 163 163 162 164 163 162 163 161 161 162 158 150 151 158 159 162 156 159 160 158 161 156 150 166 172 172 174 173 174 176 175 177 179 180 181 181 181 181 182 183 184 184 185 186 187 187 186 187 187 188 190 191 189 190 191 191 191 192 192 191 191 192 194 194 195 194 195 194 195 196 195 196 196
 152 154 152 154 153 154 154 158 159 156 158 158 160 161 157 159 162 163 162 164 162 164 164 162 153 132 121 107 111 100  80  63  59  75 102 120 127 141 126 117 112 114 139 167 168 168 171 171 173 175 177 176 181 181 182 182 182 184 184 184 185 183 185 187 188 188 188 188 189 189 190 190 190 191 192 193 193 193 192 192 193 194 194 193 194 196 194 197 198 196 196 196
 154 153 152 154 155 155 158 159 159 158 160 160 160 160 161 162 162 162 163 163 163 161 161 150 115  96  87  94  80  60  53  57  43  43  51  58  59  60  56  62  72  76  82 103 135 130 142 162 157 167 170 170 177 180 181 181 182 184 184 185 186 185 187 187 188 188 188 189 189 191 191 191 191 192 192 193 194 193 194 193 195 194 195 194 195 195 196 196 196 197 196 197
 154 156 155 155 155 155 158 160 160 160 160 162 161 160 162 162 162 164 163 163 159 155 126 100  90  87 106  98  65  50  50  51  41  37  43  46  46  48  47  48  55  57  57  55  67  69  67  71  85 108 103 112 146 165 175 178 181 182 184 185 185 186 187 187 188 188 190 190 188 190 191 191 191 192 192 193 193 194 193 192 194 195 195 196 195 195 196 196 197 197 197 196
 153 155 157 157 158 159 158 159 160 160 162 162 162 164 163 161 163 163 160 153 136  97  59  56  69  88  90  91  71  56  51  39  37  37  38  36  38  42  42  47  49  49  47  46  51  53  54  55  52  60  66  67  81 118 155 169 178 171 179 183 186 187 188 188 188 189 189 192 190 191 191 193 193 192 193 193 193 193 194 193 195 196 196 196 196 195 197 196 198 198 196 196
 155 156 157 157 159 159 159 160 159 161 160 160 161 162 164 163 162 161 152 134  91  63  60  49  52  65  73  65  62  45  44  34  30  29  29  30  34  36  38  39  42  41  42  40  39  40  48  55  52  55  54  59  66  80 102 113 103 114 148 171 185 187 187 188 188 188 190 191 191 191 192 192 193 192 193 193 194 195 194 193 196 196 196 195 195 195 195 196 197 198 197 196
 156 158 159 156 157 160 159 159 160 159 160 161 162 163 163 164 163 160 149  96  68  87  85  62  55  48  45  47  48  46  33  28  25  24  26  30  34  37  38  37  35  34  38  43  45  37  35  38  41  49  48  48  54  55  60  85  99  69  77 133 180 186 186 188 188 191 190 191 191 191 191 191 191 192 193 194 193 194 194 194 195 198 195 196 196 197 197 198 197 200 197 196
 156 156 157 158 158 160 160 159 161 161 160 161 162 161 163 164 162 152 131  63  75 104 104  75  57  50  39  33  32  31  25  24  23  22  22  24  27  32  32  36  38  37  37  39  38  39  38  36  36  32  33  32  38  42  45  71  87  79  70  90 157 181 185 188 187 190 190 190 190 191 192 191 192 193 194 193 193 194 194 194 196 197 195 194 197 197 197 199 199 200 198 198
 159 159 159 159 159 159 161 161 161 161 162 164 164 163 163 161 148 123  88  54  55  59  73  71  45  58  36  34  27  24  23  24  24  24  26  27  27  27  29  33  34  38  43  39  34  35  38  48  53  48  35  30  29  31  36  53  63  69  63  66  97 169 181 185 189 191 190 190 191 192 191 191 193 193 193 194 193 194 195 195 196 197 196 197 197 197 199 198 199 198 197 199
 159 159 158 159 159 160 163 163 162 161 161 163 164 164 163 159 142 100  56  52  68  72  57  53  40  44  40  33  29  27  23  19  23  23  24  24  24  24  26  30  32  34  38  40  37  36  36  37  41  48  44  36  35  35  32  39  47  44  46  50  59 130 175 181 187 190 192 191 192 193 192 192 192 193 193 194 195 194 193 194 196 197 196 196 197 196 198 198 198 198 197 198
 160 160 160 160 161 161 162 162 161 161 161 164 163 164 165 160 152 115  62  48  71  89  57  49  44  31  33  29  30  28  22  22  28  26  24  23  23  23  24  25  26  26  26  29  32  36  39  41  36  36  39  41  37  41  43  38  44  37  37  41  45  84 137 172 182 189 189 190 192 193 192 192 192 194 194 194 195 195 195 196 198 198 197 195 196 196 196 198 198 197 197 198
 160 161 160 158 160 160 163 160 162 161 162 164 164 165 164 157 152 126  81  50  47  54  52  42  32  28  29  30  28  24  25  26  29  30  29  24  22  18  20  20  23  21  22  23  25  29  30  32  32  32  30  29  30  32  36  41  37  31  37  34  38  62  76 148 169 183 188 190 192 193 192 191 193 194 194 195 195 196 195 194 198 198 196 196 196 196 197 199 198 197 198 197
 162 162 160 158 159 160 161 162 164 163 163 163 164 164 163 161 159 122  93  47  32  43  47  37  29  24  26  26  23  25  29  28  29  29  27  23  21  19  18  18  17  17  17  18  17  21  24  28  33  38  41  40  37  38  33  33  30  29  28  29  35  50  64  92 144 167 172 186 192 193 192 194 194 196 195 196 194 194 195 194 198 201 197 196 197 197 198 200 200 198 201 199
 162 162 161 161 159 160 163 162 164 165 164 164 165 165 167 164 150 117  61  35  27  26  29  28  27  25  24  26  25  29  31  30  30  25  20  20  21  21  18  17  17  16  15  16  16  18  22  26  30  34  39  39  35  34  35  35  36  32  27  26  30  41  52  76 108 110 116 176 192 192 192 193 194 195 195 195 194 196 195 195 197 198 197 197 197 200 199 198 199 199 201 200
 163 163 162 160 162 161 164 165 166 166 165 166 166 166 164 152 132  76  43  28  24  25  25  23  22  23  25  24  22  22  20  19  19  18  16  15  15  18  19  18  16  16  15  16  17  18  18  18  18  22  24  29  34  35  39  45  43  35  29  27  38  47  46  61  85  78  78 160 186 191 193 194 193 194 195 195 196 196 196 195 196 200 197 197 198 197 199 200 200 199 199 199
 163 162 164 163 164 163 165 165 166 166 166 167 167 164 143 102  80  46  37  30  26  23  20  18  21  24  23  20  16  16  14  14  15  14  15  14  14  14  15  16  17  17  16  16  15  16  16  16  15  17  22  28  31  34  41  42  39  33  30  29  34  44  42  52  59  56  72 131 164 186 190 192 194 195 196 195 195 196 195 196 199 198 197 196 201 198 198 199 198 198 201 199
 164 163 163 164 165 164 165 165 166 166 166 166 165 145 139 126  71  47  36  27  22  20  19  22  24  21  20  16  14  15  12  12  13  13  13  14  14  14  14  14  16  17  15  16  16  16  16  16  18  18  21  24  27  29  31  34  40  38  31  28  28  33  37  50  46  47  66 114 137 182 188 192 193 194 195 196 196 194 198 196 199 197 197 198 200 200 200 202 202 199 200 200
 163 163 164 164 164 166 165 166 166 165 165 166 158 142 120  58  53  34  29  25  22  23  24  22  20  19  18  15  14  12  11  13  14  13  13  14  14  14  14  15  15  15  16  16  17  17  17  18  18  19  19  21  21  26  25  26  33  35  41  37  32  33  36  38  36  40  54  90 112 173 184 191 193 192 195 196 195 195 197 196 199 199 196 196 198 200 199 200 202 199 198 201
 162 164 163 164 165 165 167 165 166 166 166 166 158 130  69  53  42  40  33  25  24  25  23  20  19  20  18  17  14  13  13  13  14  15  17  19  18  18  20  21  20  20  20  20  20  21  19  19  21  23  26  24  23  22  22  26  32  35  37  44  36  34  38  34  37  36  47  67  70 112 157 189 195 193 193 196 194 195 195 197 198 198 196 198 197 198 198 197 201 200 200 200
 161 164 164 164 165 165 166 166 166 168 166 166 157  73  47  44  36  36  31  28  26  23  21  19  21  19  19  17  15  15  16  19  22  27  35  39  39  40  41  42  41  39  37  33  31  28  26  26  26  32  34  32  29  28  30  28  27  25  28  30  31  35  41  31  32  35  43  50  55  92 132 171 189 192 192 194 195 195 196 195 199 198 197 198 198 197 200 199 197 197 200 199
 163 164 164 165 165 164 166 166 166 166 166 162  98  42  39  45  30  30  26  25  23  20  18  17  22  18  21  19  20  23  28  34  43  50  57  60  65  66  67  67  65  63  62  58  53  49  46  45  49  50  49  50  46  42  42  37  34  30  26  27  26  30  41  39  33  33  38  42  41  77 105 170 183 183 192 196 195 195 196 196 198 198 197 199 197 197 202 200 198 200 201 200
 164 165 165 165 165 166 167 167 166 166 167 149  70  41  33  28  25  23  24  24  20  18  17  19  21  18  23  26  28  35  43  53  64  74  87  91  96  95  95  94  91  92  90  86  80  78  79  80  81  77  74  73  67  68  66  63  62  58  38  28  27  30  40  50  49  35  37  34  36  57  98 158 158 161 186 195 195 196 195 196 199 196 198 197 197 196 199 197 196 199 198 198
 165 165 165 164 166 166 166 166 167 166 165 132  78  52  30  28  24  22  23  20  20  17  15  18  20  20  27  32  39  50  63  73  86 101 110 117 120 120 116 112 113 114 114 110 105 101  99 100  96  91  89  82  82  83  83  82  89  87  67  52  34  32  40  47  48  37  37  38  37  44  84 125 133 138 177 193 194 193 194 194 198 196 197 198 199 198 197 196 196 200 198 199
 165 165 164 165 166 165 166 166 167 166 162 137  75  36  26  25  23  22  23  19  18  18  17  19  21  25  33  38  52  68  83  92 102 108 117 124 127 129 128 126 124 126 127 126 121 117 114 110 107 101  96  90  94  96  95  98 109  87  69  61  47  38  36  37  41  36  29  31  33  37  72 128 146 136 165 190 192 193 195 194 197 197 196 196 196 197 199 197 199 200 199 198
 165 165 165 166 166 165 166 167 165 166 160 132  46  26  22  21  23  21  18  18  18  18  20  23  25  31  41  52  74  88  97 103 108 111 116 120 124 128 126 124 123 124 129 130 129 125 121 115 113 108 100 104 104 103 101 107 131 115  86  79  75  55  38  37  38  37  30  26  28  32  57 111 124 153 151 187 191 192 193 194 197 195 196 197 198 198 196 196 197 200 198 197
 165 165 166 165 165 166 167 167 167 165 160 112  37  24  22  22  20  21  21  17  19  20  24  29  32  42  56  74  90  99 108 108 108 110 114 115 120 125 123 122 125 124 127 128 129 128 123 124 122 116 111 110 106 107 104 110 129 125 107  98 106  98  57  36  31  32  33  27  27  29  43  88  83 121 148 178 190 193 192 195 196 195 196 197 199 197 196 196 197 198 199 197
 165 166 166 165 166 165 168 167 166 167 163  88  33  25  23  22  21  21  17  17  21  26  36  41  49  63  75  89  99 103 107 109 110 111 114 117 120 126 126 127 127 126 127 128 131 131 132 132 130 124 124 117 112 110 110 112 119 121 116 110 112 109  94  53  33  29  32  30  26  30  54  58  64  98 128 171 190 193 192 194 197 195 194 196 196 196 196 196 198 196 196 196
 165 165 167 165 165 166 166 167 166 166 162  70  35  26  20  20  19  22  19  19  26  39  57  68  72  82  89  99 103 105 108 111 112 112 113 119 123 126 128 128 129 129 128 131 136 136 139 137 134 133 132 128 124 119 122 121 116 119 120 115 112 111 102  92  36  32  31  31  27  32  46  45  54 119 160 183 189 191 191 193 196 195 195 195 195 195 198 196 196 195 198 196
 165 165 166 166 166 166 166 166 165 166 163  72  34  27  22  21  21  22  22  28  38  57  76  82  87  92  99 104 105 106 109 110 112 113 115 122 129 132 130 131 136 138 138 140 142 146 146 146 145 143 141 141 138 136 140 138 131 126 125 120 118 119 114 103  82  39  31  30  28  30  33  38  69 109 167 181 190 192 191 194 195 194 195 196 194 196 196 195 194 195 196 197
 165 165 166 166 166 168 167 167 166 165 145  37  26  23  22  22  21  23  26  35  47  67  84  90  94  95 103 104 105 103 110 112 113 114 122 129 135 135 134 139 142 144 147 150 150 152 153 152 154 153 152 153 153 158 158 157 146 138 132 129 126 125 124 118 108  59  32  26  23  26  27  32  54 114 140 170 189 193 192 194 195 194 194 195 195 195 195 195 195 196 195 195
 165 166 165 165 166 168 168 169 166 166  98  31  22  21  20  22  23  24  31  43  53  71  85  92  95  99 103 104 106 108 112 115 117 123 125 132 137 142 136 142 146 149 153 153 154 152 152 153 159 160 163 167 169 170 171 170 160 151 145 141 137 136 135 131 119  87  35  26  23  24  28  35  60  97 141 173 188 192 193 195 194 194 194 194 196 195 194 194 194 196 196 196
 165 165 165 165 166 167 168 169 167 166  59  28  23  22  23  23  21  23  31  39  55  70  83  91  95  99 103 105 105 110 116 118 122 126 129 133 138 143 141 144 150 150 155 158 159 156 156 157 159 160 165 170 177 180 181 178 173 168 162 160 155 151 146 139 130 110  44  29  25  27  28  42  74 124 158 175 187 189 190 194 195 194 194 195 194 194 196 194 195 196 194 194
 166 165 165 166 166 168 167 168 167 141  32  26  24  23  23  19  21  24  30  41  51  67  81  89  95  98 104 106 106 110 116 117 121 120 123 129 131 134 137 139 145 147 152 149 156 159 163 162 160 162 166 169 175 177 179 178 177 177 174 170 168 160 151 144 137 118  74  40  33  31  42  69 106 144 158 173 183 189 190 194 194 194 195 195 195 195 194 194 192 195 193 193
 165 165 165 166 166 167 167 167 166 105  32  26  23  22  21  20  21  24  30  39  50  66  82  88  92  98 104 106 107 111 112 114 117 117 117 115 118 122 123 126 131 132 136 148 154 159 157 159 157 155 158 165 164 168 165 164 168 169 171 170 171 164 155 147 139 122  90  48  38  38  45  57  75  86 105 121 171 187 190 194 194 192 194 194 194 194 194 193 190 193 194 193
 165 165 165 166 166 167 167 166 162  84  31  24  22  22  21  18  19  24  31  38  50  68  80  86  92  96 100 105 105 106 107 106 106 107 105 101 105 108 110 114 118 122 119 126 136 140 143 142 141 144 143 149 153 151 156 150 153 156 158 163 165 160 156 149 140 124  88  56  42  46  48  55  77 107 122 152 182 189 191 195 194 192 194 194 193 193 194 193 192 193 192 193
 166 165 166 166 168 168 168 167 166  65  31  25  23  22  18  19  20  23  28  36  51  74  82  86  92  99  98  96  89  90  88  87  87  86  86  84  88  93  93 101 108 108 106 111 117 125 130 133 132 128 127 132 134 134 132 138 139 141 147 152 153 158 156 148 139 124  87  51  45  44  48  54  73 105 128 158 181 188 191 193 192 191 193 192 192 194 195 192 191 192 193 193
 166 165 166 166 168 166 167 167 161  39  29  23  23  20  18  18  20  22  26  34  55  74  82  87  93  85  60  57  54  49  52  53  49  50  50  56  62  70  75  82  92 100 101  96 102 112 121 119 118 112 101 113 114 110 114 120 122 124 129 135 140 146 151 147 137 120  85  46  35  37  44  49  63  90 133 167 186 188 189 193 193 193 192 191 191 192 192 193 194 192 194 192
 165 165 166 165 167 167 168 167 152  34  28  24  20  19  21  19  18  19  26  39  63  76  82  84  75  46  38  32  30  31  31  30  29  28  28  30  35  42  50  57  69  77  86  92  88  97 117 118 112 113  98  94  96 102 100  91  96 102 107 108 113 125 136 139 135 117  88  42  29  32  41  49  59  97 115 153 183 187 189 190 191 191 192 190 190 191 193 194 194 192 193 193
 165 166 165 165 166 167 167 166 146  28  25  22  18  21  18  18  16  19  28  47  68  77  80  62  43  32  27  25  26  28  27  25  24  22  23  21  21  21  25  30  40  45  53  70  89  93 116 123 116 107  95  70  76  70  68  54  51  49  61  69  72  82  98 116 122 116  89  37  26  28  34  44  54  76 148 181 186 188 189 192 190 191 191 192 193 192 194 193 194 193 193 192
 165 166 166 167 165 167 168 167 144  27  27  21  17  20  17  19  18  21  36  58  73  79  58  36  30  27  26  28  29  30  30  28  26  22  20  20  19  17  18  21  22  27  36  49  66  85 117 123 122 108  91  62  52  45  40  33  28  31  32  33  38  40  52  60  71  95  88  38  24  26  27  37  47  57 150 184 188 188 189 190 190 192 192 192 193 191 192 193 193 192 193 191
 166 166 166 166 166 167 168 168 140  27  27  18  16  17  17  18  17  23  44  66  77  74  42  30  29  28  31  36  44  49  54  53  51  44  36  30  26  22  21  21  22  25  32  41  69  88 111 132 133 115  91  57  39  31  29  26  25  24  25  27  27  30  34  40  42  51  72  38  24  23  24  31  57  63 160 186 189 188 188 190 189 189 191 191 193 193 192 193 193 192 192 190
 166 168 168 166 167 166 168 167 138  31  26  17  17  18  17  15  18  28  51  74  78  63  36  29  32  36  45  55  59  67  73  73  71  65  56  47  40  32  29  29  28  30  33  44  68 100 114 129 150 140 103  56  36  30  27  24  24  25  25  25  26  28  30  34  34  37  46  36  24  22  23  28  64  96 163 187 190 189 187 188 190 190 192 192 190 191 193 192 192 191 192 189
 168 167 167 167 167 167 166 167 151  44  24  16  16  18  16  15  17  31  59  75  81  55  37  38  40  44  56  64  67  74  76  71  70  66  59  51  45  37  34  33  34  36  39  45  74 107 129 147 164 166 139  58  40  34  32  31  33  34  36  39  40  37  32  32  31  35  36  31  24  23  23  31  80 126 176 187 188 189 189 189 190 190 191 191 192 191 192 194 192 191 190 190
 168 166 167 168 169 169 166 167 163  55  24  15  16  17  14  15  19  37  66  78  67  50  46  46  50  54  62  60  60  65  74  82  95  95  73  58  43  34  33  33  34  38  44  52  76 109 138 162 179 186 172  65  45  42  41  40  43  48  51  56  59  58  52  45  39  36  36  29  24  23  23  28  88 159 185 188 189 188 190 189 190 191 192 192 193 193 193 193 192 192 191 192
 168 168 169 167 169 169 169 168 166  58  22  17  17  16  14  15  23  47  75  78  69  57  55  55  56  57  57  65  80  85  89  91 103 101  78  57  43  37  31  32  35  39  44  56  73 106 129 156 177 187 183  96  46  41  38  38  42  48  51  60  65  72  73  61  50  40  40  34  24  25  25  31 107 182 188 189 189 189 190 189 190 192 192 191 192 190 191 192 192 193 192 191
 167 168 168 168 168 168 169 168 162  66  25  20  17  15  14  16  24  52  82  79  71  63  61  61  59  58  67  72  69  68  63  57  50  43  42  36  33  33  33  36  41  42  49  61  78 103 116 147 168 181 186 123  46  41  38  40  46  54  67  79  79  71  62  65  56  47  45  40  26  24  26  42 140 185 188 189 190 190 188 189 192 191 191 191 192 191 192 193 192 191 191 190
 168 168 170 168 168 169 168 166 157  49  27  23  17  15  16  17  26  62  88  85  80  74  70  68  66  60  54  46  41  36  30  23  18  18  18  21  30  24  25  29  43  50  61  76  88 103 114 133 156 182 187 144  48  42  38  39  45  54  75  93 107 113  91  62  53  51  54  50  27  24  26  90 176 189 189 189 190 190 190 190 192 192 192 192 192 191 193 192 192 191 191 191
 168 169 170 170 170 169 169 166 157  34  23  20  16  15  19  19  30  78  92  92  90  86  81  72  63  46  33  30  29  30  31  20  15  16  18  25  33  31  31  36  42  61  79  89  94 103 112 127 150 177 187 154  50  34  33  33  33  35  43  60  76  93 100  83  56  53  59  62  30  26  29 160 186 189 190 190 190 190 190 190 192 192 192 192 192 190 192 192 191 192 191 192
 169 168 170 170 170 169 168 166 142  33  20  19  17  18  20  21  42  88  98 101 103 100  91  84  79  63  44  39  34  33  33  27  24  27  32  40  41  41  46  46  52  80  92  92  95 103 110 125 144 170 188 158  69  39  35  37  35  26  22  26  33  45  65  76  65  59  66  70  32  29  57 176 186 188 189 190 189 188 188 188 191 194 191 191 191 191 191 191 192 193 191 192
 169 169 170 170 169 168 168 164 146  44  25  21  17  22  22  25  61  93 101 107 110 110 106 101  98  89  71  55  47  43  38  36  38  38  39  43  45  48  51  57  79  94  92  93  95 102 114 134 146 167 188 167  96  49  41  38  36  24  21  24  24  32  39  45  59  68  76  76  34  31 122 182 188 188 189 189 190 188 188 189 190 192 192 191 192 191 194 192 192 191 191 192
 169 170 169 170 170 170 169 145 106  91  56  29  21  23  24  29  72  95 103 112 114 114 113 113 109 105  89  74  60  51  47  42  42  44  51  64  74  75  79  88  97  96  94  93  94 106 128 140 152 167 187 177 137  55  47  46  48  41  31  27  30  34  34  39  49  72  89  90  40  35 155 184 188 188 189 189 188 188 188 190 189 192 192 191 192 192 192 194 192 191 191 193
 169 169 167 169 170 171 167  94  50  65  69  46  34  26  24  31  85  97 103 110 113 112 115 115 114 113 106  98  88  85  80  79  86  94 100 111 115 105 104 103 104  96  95  94  95 116 135 144 157 175 191 190 172 118  78  59  47  45  42  38  38  40  41  57  65  89 107 114  42  76 180 187 187 188 189 190 188 189 187 189 190 190 192 191 193 193 192 192 192 191 191 191
 168 169 167 169 170 170 168  97  47  50  68  61  42  31  26  43  92  98 105 110 113 112 115 118 116 117 113 108 107 112 109 108 112 116 117 120 118 114 109 107 102  98  97  95 100 125 133 139 157 178 194 194 185 157 122 101  90  63  43  42  41  47  56  86 119 130 130 131  63 118 183 186 186 188 190 190 189 189 189 190 190 190 191 189 192 193 190 192 193 191 190 191
 169 170 169 170 170 170 168  89  48  58  65  71  59  44  29  54  93 100 104 108 111 114 114 117 119 118 114 111 112 114 114 118 117 119 122 123 117 114 112 106 102 101  96  93 103 120 126 137 158 178 184 189 188 165 142 128 122 111  98  77  70  76  95 126 149 152 149 145 104 142 180 188 188 188 189 190 188 188 189 190 190 191 191 190 192 192 192 192 192 192 190 189
 170 169 169 170 171 170 167  81  52  69  66  67  67  56  30  60  92  97  99 103 106 110 111 117 117 119 120 118 119 120 118 122 124 124 124 122 119 118 114 109 105  99  95  96 106 111 114 118 134 152 159 163 163 160 147 143 137 128 126 125 130 135 145 158 165 165 161 152 122 118 167 186 189 188 190 190 189 189 189 190 189 190 191 192 192 191 189 192 192 191 190 188
 169 169 170 170 170 170 169  76  58  81  70  67  64  55  34  62  90  92  94  99 101 104 108 109 113 114 112 119 121 119 125 129 126 122 124 122 120 118 114 110 104  96  99 101  95  89  89  96 111 122 125 131 136 130 130 144 148 140 134 130 130 136 150 157 165 167 163 154 132 106 128 183 190 188 188 188 188 188 189 189 191 191 190 191 192 192 189 189 190 190 188 189
 170 168 170 170 171 170 163  74  77  92  78  56  50  48  34  58  88  91  91  93  96 100  99 103 106 106 104 109 115 118 125 127 123 119 124 127 121 118 113 105  97 102 105  93  78  72  75  85  93  93  96 105 107  92  96 134 150 146 136 136 137 137 141 151 159 159 159 151 132 111 179 187 189 188 188 188 188 187 188 189 189 189 189 190 191 192 190 189 190 189 188 188
 171 169 169 169 170 169 142  78  96  80  54  35  33  48  40  62  85  89  89  89  88  90  88  90  93  95  99 107 109 117 123 125 127 124 125 125 121 117 109  98  98 111 101  82  66  65  70  74  74  74  76  81  80  70  73 121 150 152 146 142 142 143 142 142 141 144 142 139 130 149 184 188 188 188 189 188 186 187 187 188 188 188 189 189 190 190 190 189 189 188 189 189
 170 170 169 169 169 169 127  92  92  72  48  34  57  56  41  64  84  89  85  83  82  83  85  84  90  93  94 101 106 114 122 125 128 126 125 123 119 112 106  94 102 101  81  62  37  32  45  64  63  62  63  68  66  61  68 114 150 155 151 148 144 142 138 128 122 127 127 125 123 162 186 188 186 187 189 188 187 185 186 186 187 187 189 189 189 188 189 189 188 186 188 187
 168 169 168 168 169 167 130  99  83  66  45  40  73  54  43  60  79  83  81  75  76  77  80  81  87  89  92  96 102 110 117 124 124 122 122 121 118 110  97  89  94  78  54  23  17  20  29  52  57  52  53  56  42  33  56  95 142 153 156 154 147 142 133 124 116 114 116 114 116 161 185 188 187 187 186 188 187 185 185 185 187 188 188 188 188 188 189 187 187 187 187 186
 169 168 168 168 168 167 136 100  81  62  48  46  81  46  40  59  75  81  77  68  70  77  75  74  81  84  89  97 103 113 115 119 123 122 120 117 117 107  90  82  77  56  31  22  19  35  45  52  52  48  48  43  25  25  42  74 137 156 159 157 151 141 132 124 107  95  97 101 107 157 184 184 187 186 184 185 186 186 186 185 186 187 186 187 188 188 187 187 188 187 187 187
 168 167 167 168 169 167 140 100  83  72  60  58  72  42  38  51  73  76  70  66  72  77  73  76  80  87  94 104 109 111 114 118 118 119 120 117 112 103  88  72  60  39  29  36  43  49  50  52  48  45  45  38  30  28  36  64 137 152 156 157 147 134 131 122 102  85  89  88  95 131 180 183 185 185 185 184 185 184 186 182 185 185 186 186 186 186 187 187 187 185 187 187
 167 167 168 168 168 166 142 106  92  84  78  73  65  49  39  49  71  71  68  69  72  72  71  76  78  82  95 103 108 109 113 114 114 118 118 110 100 100  92  69  50  38  40  49  51  49  50  46  42  42  43  42  40  38  38  78 140 149 152 154 152 136 127 118 108  93  88  82  83 111 177 184 184 185 183 184 183 183 184 183 183 186 186 184 184 186 187 187 186 185 186 186
 165 166 167 168 168 167 145 109 102  94  95  82  68  49  37  45  65  68  73  73  69  71  74  75  76  90  99 102 106 107 111 112 114 112 111 107 101  98  98  74  50  46  44  47  50  49  50  45  41  42  42  41  38  43  84 133 140 148 148 151 150 141 123 115 112  97  84  80  74 102 163 183 185 183 183 183 183 184 184 181 184 186 185 186 185 185 185 185 185 185 186 184
 166 166 168 168 167 168 159 101 101 105 107  96  70  44  34  43  67  70  76  71  69  70  72  75  80  94  97 101 102 106 109 110 111 109 109 106 105 103 101  77  55  51  44  46  47  48  48  44  41  42  46  46  39  62 121 142 147 147 143 142 148 141 124 116 107  92  83  81  68 109 158 182 184 183 182 182 182 184 184 184 184 183 184 186 184 184 183 184 184 184 184 184
 166 166 167 167 166 168 164 110  84  91  92  91  76  45  37  46  65  71  75  72  66  67  72  72  79  88  88  95  99 101 107 109 108 107 106 107 107 102  95  76  57  56  54  53  49  51  48  43  43  41  43  47  44  57  98 115 150 147 142 138 143 138 129 118 102  91  86  83  83 138 165 180 184 182 183 181 183 183 185 185 185 183 184 183 182 184 183 184 184 184 184 183
 166 164 166 166 165 166 166 142  82  87  77  72  58  47  44  52  61  65  69  69  63  65  72  69  77  83  86  89  93  98 103 104 104 105 105 103  98  96  84  72  62  59  57  57  56  50  42  38  38  40  46  51  48  57  87 120 147 148 144 142 141 133 128 118  99  89  90  81 114 151 166 180 183 182 182 181 182 183 184 185 184 183 183 182 182 182 182 184 184 182 183 181
 165 165 167 166 165 166 166 161 100  90  86  80  70  58  50  57  61  65  68  66  55  61  69  69  77  79  84  84  87  93  98 102 102  99 101  92  83  82  77  68  65  65  65  60  54  49  42  38  37  38  45  51  53  66  78 104 130 139 143 143 139 133 128 116 105  98  92  85 134 148 165 180 182 182 181 182 182 182 183 181 182 182 182 181 181 182 181 181 182 181 183 182
 162 163 164 166 166 165 166 163 135  99 100 100  89  70  56  56  62  60  61  63  55  58  66  71  74  75  79  83  89  92  96  98  92  89  87  82  74  70  67  64  61  60  63  59  52  52  43  37  36  40  43  51  60  72  79  90 111 118 120 133 135 129 123 110 100 101  97  88  98 129 176 181 181 180 182 181 180 181 182 182 182 183 182 184 182 181 181 181 181 180 180 181
 164 164 163 164 164 165 165 164 157 104 101  99  89  62  54  57  58  58  58  62  61  56  62  68  72  74  77  82  88  92  93  87  76  79  74  70  63  61  59  62  66  67  68  69  63  59  48  37  37  47  54  64  70  74  73  76  83 102 105 113 128 125 117 103  94  92  90  82  92 135 176 180 181 181 181 182 180 180 182 182 181 181 181 181 179 180 180 181 180 178 181 181
 163 161 163 164 164 164 166 165 161 115  88  81  71  54  57  56  53  57  52  55  58  60  59  67  67  68  71  80  85  88  83  77  72  70  72  64  61  63  64  65  72  77  82  82  80  75  68  55  55  63  77  86  86  81  76  77  92  91  94  96 102 118 113 101  93  90  88  83 112 149 178 181 182 182 180 181 180 181 182 181 181 180 181 180 179 181 181 180 178 178 180 180
 161 162 163 164 164 164 164 164 161 151  92  67  63  98  97  57  51  55  49  50  55  58  55  62  59  65  71  79  82  81  70  71  70  66  65  57  64  62  62  64  67  63  58  56  56  66  70  74  74  72  66  58  60  71  79  83  86  82  88  96  96 112 111 101  98  90  85  95 125 159 177 181 180 181 179 180 181 181 180 180 181 178 180 181 180 179 179 179 177 177 180 180
 160 161 162 163 163 163 164 163 163 161 158 158 160 160 115  56  53  59  54  47  52  50  52  52  56  62  71  77  79  70  67  69  69  62  55  48  53  54  54  51  45  41  41  40  39  41  42  52  51  45  43  42  44  45  58  77  80  74  77  88  94  97 103  93  92  82  78  83 114 166 178 180 180 181 179 179 180 181 180 181 180 180 181 180 178 176 176 176 176 176 178 177
 161 162 161 162 160 162 163 163 163 164 164 163 163 162 124  68  55  56  54  48  52  52  50  54  63  67  73  77  77  67  66  62  59  53  47  40  43  42  38  32  32  31  33  36  36  34  32  35  35  37  38  39  40  40  37  43  65  62  64  73  80  85  96  88  80  68  65  73 128 173 178 179 179 180 181 180 180 180 178 179 179 180 179 177 175 178 176 177 176 176 175 175
 161 160 161 162 161 162 163 162 162 163 163 162 164 164 138  71  55  54  50  50  48  48  54  56  61  66  71  76  74  63  58  56  47  39  32  29  29  28  27  26  25  23  22  25  27  27  25  27  28  31  28  27  29  33  36  35  44  49  53  60  70  75  88  83  77  59  69 163 171 175 178 178 178 177 179 179 178 180 178 178 178 178 177 177 176 177 176 177 176 177 175 176
 160 160 160 161 161 161 161 162 162 162 163 162 162 161 148  80  54  52  51  48  48  51  54  57  57  67  71  75  71  60  54  49  41  31  23  21  20  24  27  33  37  43  41  36  34  28  24  24  26  27  27  29  30  28  28  29  33  37  41  49  60  71  85  78  69  58  86 168 174 175 176 176 176 177 179 177 176 179 178 177 174 176 176 175 178 175 176 175 175 174 176 174
 158 159 160 160 160 160 160 160 160 161 161 162 162 162 155  85  52  52  52  48  50  52  52  55  53  64  71  73  70  64  56  47  44  34  37  42  39  41  49  59  66  70  73  78  70  60  53  50  52  56  59  63  61  48  32  28  30  33  38  44  53  67  83  76  62  56  98 170 173 174 173 174 176 177 176 175 175 177 177 178 176 175 176 175 177 174 175 174 175 174 174 174
 158 157 158 157 159 158 160 161 161 162 160 160 162 160 153 106  54  51  48  48  50  51  51  49  51  62  71  73  70  62  54  48  48  49  56  63  66  69  67  70  75  74  76  82  87  83  76  75  75  76  75  74  77  72  56  49  50  45  43  49  53  68  80  70  57  52 119 170 173 175 175 174 175 174 175 174 174 176 176 175 176 175 175 174 174 175 175 174 175 174 173 174
 156 155 156 157 158 158 159 160 161 161 162 162 162 160 159 129  60  49  47  47  50  50  49  49  53  61  67  69  68  58  53  54  56  62  66  69  71  73  75  74  74  73  70  70  78  83  81  83  84  84  84  80  77  77  77  76  67  58  53  55  60  69  76  66  56  52 144 169 173 174 175 174 176 174 175 174 174 174 174 174 174 175 174 175 174 174 175 174 174 173 174 173
 155 156 156 156 156 157 158 160 160 161 160 161 161 161 159 151  71  49  46  44  49  51  53  49  51  59  61  66  63  56  56  57  58  61  62  67  68  66  63  64  67  67  62  63  64  68  70  73  75  74  76  77  69  75  78  78  76  70  58  53  60  66  68  65  50  58 160 171 172 173 173 174 173 174 174 174 174 173 172 174 173 174 174 174 174 173 173 173 175 174 174 173
 155 155 157 157 156 157 159 160 158 161 160 160 161 160 160 154 101  50  46  43  44  46  48  50  47  52  55  60  58  54  55  57  54  60  62  62  58  54  50  48  48  47  46  46  46  46  46  48  51  55  56  58  57  57  63  68  70  71  62  53  56  60  65  61  52  78 164 169 172 173 172 171 172 173 172 173 172 173 172 172 173 173 174 173 174 173 175 174 174 174 172 173
 155 154 156 155 155 157 157 155 158 160 160 160 160 159 160 159 143  49  47  43  43  44  47  47  46  51  53  54  50  47  48  51  50  54  59  57  56  52  47  41  36  36  34  33  26  23  25  28  30  33  39  43  43  45  53  58  63  65  59  52  52  57  58  51  48 114 167 171 172 173 171 171 172 173 171 172 172 171 171 172 173 173 173 172 171 172 173 172 173 173 172 172
 153 154 155 155 155 156 157 155 156 157 158 158 157 159 158 156 153  73  44  48  42  43  45  42  45  50  51  48  46  43  43  42  46  52  53  51  52  50  45  39  32  30  29  26  19  18  19  20  23  25  28  34  37  44  48  55  59  62  55  50  52  53  50  49  47 140 169 172 172 171 170 173 170 172 171 172 171 170 170 171 170 170 172 171 170 172 173 172 171 171 172 172
 154 154 154 154 154 155 154 156 156 157 156 158 158 157 156 156 154 120  38  42  40  41  42  38  42  45  45  45  44  39  37  37  42  50  54  55  55  51  46  42  35  31  30  26  20  20  19  23  26  28  31  37  42  45  49  53  56  58  54  48  46  49  48  47  64 159 169 171 171 171 169 171 169 170 169 170 170 170 170 171 170 171 171 170 169 171 172 172 172 171 171 171
 153 152 154 154 155 156 155 155 155 156 155 156 157 157 155 156 155 148  48  39  38  37  38  36  38  42  45  44  41  36  34  36  42  49  50  53  58  54  50  44  41  35  30  26  26  25  26  25  28  28  35  43  46  50  53  55  58  60  52  45  46  52  48  46 104 164 169 169 170 171 169 169 170 170 170 168 169 171 170 170 169 170 170 169 170 170 170 171 172 171 171 170
 153 153 154 155 154 155 154 155 155 155 155 156 156 156 156 156 155 150  69  37  34  33  34  36  37  42  40  41  39  37  32  35  43  49  49  55  58  60  60  53  49  43  34  33  34  33  31  29  29  32  38  46  51  60  63  63  62  61  49  41  43  46  47  54 140 165 169 170 169 168 170 169 167 169 169 170 169 170 170 170 170 170 171 169 170 169 169 170 169 170 170 169
 152 153 155 154 153 154 154 155 154 155 156 156 155 155 156 155 153 149  89  43  34  33  32  33  35  38  37  35  36  37  35  35  39  47  49  51  55  63  70  67  66  52  40  38  40  38  32  34  35  39  44  56  65  73  74  68  67  63  50  38  37  39  45 104 158 167 168 168 167 168 168 169 169 169 170 169 169 168 169 170 170 170 170 170 170 169 169 170 169 170 169 170
 152 152 152 154 155 155 154 154 154 155 156 155 155 155 155 154 153 146  97  57  33  29  30  32  34  35  35  35  37  35  34  35  39  41  43  49  53  59  71  66  55  50  41  39  43  45  37  37  42  43  53  69  76  82  78  74  69  65  51  38  37  39  54 147 163 166 167 167 166 167 166 168 169 168 168 167 167 168 169 169 169 169 170 170 170 169 170 168 169 168 169 171
 150 151 152 153 153 153 155 152 154 153 154 154 155 154 155 153 154 150 100  63  43  30  28  30  32  33  34  36  34  31  32  33  35  38  42  42  47  56  55  54  57  58  48  39  43  48  39  40  44  45  55  70  75  77  71  74  67  55  47  40  38  39 109 161 165 165 166 167 168 168 166 168 168 167 166 166 166 167 169 169 169 169 168 169 169 169 170 168 168 168 169 170
 150 149 152 152 152 152 155 153 154 153 155 154 154 154 153 154 154 150 105  65  51  36  29  27  29  30  33  33  29  28  28  30  31  35  40  39  43  50  48  47  51  56  52  48  40  41  42  41  42  41  54  67  72  70  57  55  56  50  42  39  38  94 153 163 166 165 165 166 166 166 166 166 166 165 165 165 164 164 167 166 168 167 168 168 167 168 168 168 166 167 170 170
 149 150 150 153 152 151 153 153 152 153 152 154 154 154 152 153 154 150 105  66  55  48  42  34  26  26  27  28  25  28  27  29  28  31  34  36  39  43  45  40  39  46  44  36  32  32  34  35  34  37  46  56  61  54  50  47  44  38  36  36  64 149 161 162 164 164 164 165 165 166 166 165 165 164 164 165 166 164 166 167 167 166 166 165 166 166 166 167 166 167 168 168
 148 148 150 151 150 151 149 150 153 153 154 152 151 154 152 152 150 148 102  65  59  49  46  44  37  33  25  24  26  26  25  26  26  30  29  39  41  38  38  34  34  37  36  34  30  31  31  31  31  35  38  49  54  50  46  41  37  30  31  51 135 159 162 162 161 162 164 162 164 165 164 164 163 163 163 162 163 164 167 167 166 166 165 166 167 165 165 165 167 165 166 167
 147 147 148 149 150 149 152 152 151 152 152 150 152 151 149 131 109  83  70  67  57  51  48  45  46  45  39  30  26  21  21  23  24  26  25  29  32  31  31  30  29  30  31  30  30  30  29  28  28  29  34  36  36  39  38  34  28  24  35 100 155 160 160 162 161 162 162 162 163 163 164 164 164 164 164 164 162 163 164 165 166 164 164 166 165 164 164 165 166 164 163 165
 145 146 146 146 149 149 150 151 152 151 151 151 149 149 104  72  66  57  62  67  59  51  46  45  46  46  43  42  37  28  20  20  20  22  23  26  26  30  31  29  27  26  27  26  27  26  26  25  25  26  29  30  30  31  30  26  25  35  58  88 124 145 158 159 161 161 162 163 162 163 162 164 163 163 164 163 163 162 164 162 164 163 164 165 164 164 164 164 165 165 164 164
 143 143 144 146 148 147 147 148 150 149 150 133 100  80  67  56  54  47  56  69  61  53  45  45  44  46  44  44  43  37  31  27  24  16  20  25  26  27  25  24  23  26  23  20  21  20  22  19  21  25  26  27  25  23  25  28  38  49  70  66  68  89 102 133 150 158 161 163 163 163 163 162 161 162 164 161 162 162 162 160 161 161 163 161 163 164 164 163 163 163 163 162
 141 140 141 144 145 145 144 147 147 146 134  67  52  67  56  48  45  37  51  68  61  55  47  44  45  47  48  48  47  42  37  32  30  25  23  20  21  22  21  18  18  20  17  15  15  15  17  18  18  21  22  25  23  24  33  43  47  57  72  45  39  51  70  87  98 117 139 159 159 161 162 161 161 160 162 161 160 161 160 161 162 160 161 160 160 160 161 161 162 160 161 161
 137 138 141 140 143 143 144 143 141 130  87  57  47  60  52  41  38  33  49  69  62  58  52  46  46  46  48  48  50  46  41  38  34  33  32  26  23  20  20  18  15  15  14  14  13  12  14  16  17  20  26  34  33  37  43  44  49  65  74  31  29  35  44  58  72  86 102 126 148 159 160 160 162 160 162 160 161 162 163 162 161 161 161 160 160 159 160 161 160 161 160 163
 126 130 131 134 135 142 140 137 112  86  79  56  53  66  59  41  35  29  47  70  64  58  53  47  44  45  46  51  50  50  47  43  37  35  33  29  28  26  24  23  24  20  19  19  20  19  19  21  25  33  42  45  41  40  42  46  53  67  76  33  24  26  29  34  38  52  76 107 121 135 152 159 160 160 160 160 159 158 162 161 161 159 160 159 158 156 158 158 158 158 158 160
 103 106  96  93  95  96 100  94  84  74  71  55  54  67  63  49  35  22  39  68  65  60  52  48  43  44  47  51  52  52  50  44  41  37  36  32  31  29  28  27  27  25  23  25  26  26  26  29  33  41  48  47  42  41  45  49  58  74  76  32  24  27  27  30  33  40  59  87 115 130 129 139 155 158 156 159 158 159 160 159 158 160 159 158 157 157 157 156 157 156 157 159
  99 100  98  95  92 100  94  90  80  79  75  60  59  66  59  51  33  20  42  68  65  61  53  50  44  45  46  51  53  52  50  48  43  37  36  35  34  30  30  29  29  26  25  25  27  29  31  32  39  47  51  50  45  46  48  52  61  74  80  89  64  32  28  29  30  34  46  71  98 110 115 117 128 151 155 157 160 157 157 158 157 158 158 156 157 158 157 156 156 156 158 156
  88  92  94  92  91  87  84  82  86  84  72  57  63  63  63  49  31  17  50  68  64  61  54  50  46  44  48  53  54  50  48  47  43  38  36  36  35  32  31  31  30  29  29  29  32  31  33  35  44  49  51  49  46  49  50  53  64  75  70  63  80  87  50  32  31  32  39  61  89  94 104 111 105 128 152 155 157 157 156 156 156 157 158 155 155 156 158 155 155 156 156 157
  70  80  83  78  83  77  82  89  72  65  67  47  70  67  58  51  29  16  57  70  65  61  55  51  49  46  44  50  51  50  51  44  42  42  38  38  38  37  32  31  31  32  32  36  36  38  39  41  43  47  51  48  49  50  48  54  68  75  61  42  59  82  94  60  31  30  38  59  90 101 109 116 101 105 141 154 156 156 158 155 154 156 156 155 156 155 156 155 154 155 155 155
  64  79  83  91  86  81  80  80  78  75  65  48  68  62  52  50  28  20  64  68  66  64  58  53  50  50  50  50  52  51  52  49  46  41  39  37  38  36  32  31  31  33  34  38  42  36  36  38  38  42  47  44  45  46  49  58  71  77  60  31  44  58  69  87  66  34  33  61  86 113 114 113 101 107 130 141 148 154 157 155 155 156 155 155 155 155 156 155 153 154 154 155
  73  63  73  82  86  73  73  80  79  78  65  55  75  67  62  52  29  28  63  66  66  64  60  57  50  50  51  53  52  52  52  52  49  45  40  38  39  38  38  34  33  36  36  38  40  38  37  38  40  44  44  46  43  46  52  63  72  77  93  71  30  41  55  74  97  63  37  48  83 117 123 114 106 110 119 132 133 148 155 156 155 156 156 155 155 156 155 155 154 152 153 154
  76  60  71  80  79  77  83  76  78  77  61  56  78  68  60  51  28  34  64  66  64  64  61  56  53  50  51  54  54  53  51  50  48  47  46  39  37  38  37  37  36  36  37  37  37  38  38  41  43  44  46  45  43  49  55  66  73  79 105 130  58  33  45  58  83 102  52  36  77 112 119 114 116 114 118 113 128 133 148 155 155 156 154 155 153 153 153 154 154 152 153 154
  81  67  68  76  77  73  74  75  74  66  63  58  71  71  62  53  28  41  62  66  63  63  61  56  53  51  50  54  54  53  51  49  47  45  43  42  40  40  41  41  40  39  40  32  33  36  37  39  45  48  46  45  48  52  60  67  75  82 112 115 138  42  32  50  64  88 101  40  57 102 118 118 114 115 110 112 117 124 134 148 154 154 154 153 153 152 153 154 153 153 153 154
  78  69  61  78  82  79  77  75  72  66  52  47  72  68  60  56  30  43  61  65  65  60  61  57  53  51  51  53  54  52  49  49  48  46  43  40  38  37  41  42  45  42  38  36  35  37  39  43  45  44  45  46  51  59  66  70  78  84 113 110 160 102  34  38  53  80 107  80  44  96 114 126 123 109 102 113 117 117 119 130 135 144 152 153 153 152 153 154 154 153 152 155
  83  72  55  69  82  84  74  71  72  65  57  60  75  72  62  55  38  44  63  64  64  60  59  57  55  52  49  52  54  55  53  51  48  49  48  44  40  40  40  44  44  41  37  34  36  40  44  45  44  44  45  48  54  61  69  73  79  86 114 111 133 156  60  39  52  67  90 102  52  78 103 123 124 106  91 101  94 117 126 126 123 126 148 150 151 151 152 154 154 153 152 153
  81  77  66  59  75  80  75  65  67  69  66  61  64  72  70  61  42  42  60  65  64  60  57  55  55  54  51  54  54  52  55  53  51  48  45  44  43  39  37  40  39  38  33  34  35  42  44  45  46  44  46  48  59  66  71  74  79  86 113 125 108 171  99  51  53  61  81  92  82  63  93 118 126 113  80  98 102 111 123 134 133 129 106  89 107 130 147 151 152 153 153 151
  91  84  79  57  75  81  73  60  53  55  65  67  77  80  71  67  43  38  57  65  65  62  58  58  56  55  52  53  51  53  51  52  51  48  46  42  42  41  37  38  35  33  33  36  40  46  45  47  45  47  51  53  63  69  74  76  77  87 107 123  98 169 140  67  60  66  72  92 106  61  89 103 124 117  74  89 103 107 102 123 126 117 125  93  63  95 127 145 152 151 153 152
  76  77  75  54  64  69  75  72  68  69  62  66  72  74  72  64  46  36  53  63  64  62  56  52  56  54  55  53  52  51  50  51  52  50  48  46  43  38  38  37  36  38  41  44  43  45  46  47  47  51  54  57  64  69  74  76  79  86 103 121 106 151 167  88  60  78  69  89 116  72  91 108 118 117  72  71  98 105 102 121 121 120 117 125 119  90 116 131 149 151 150 152
