P2
# Generated by OpenCV 3.4.0
92 112
255
  93 111 121 124 116 121 124 126 126 125 127 126 127 127 129 130 127 125 119 109  87  73  65  54  49  52  58  61  60  51  46  44  42  41  39  39  40  39  41  40  40  39  35  41  45  44  41  44  49  54  58  53  51  62  76  77  56  43  33  35  32  27  29  29  32  30  30  26  25  32  47  45  51  51  51  45  51  62  71  72  75  83  96 108 115 113 112 112 116 116 123 118
 100 114 123 124 114 123 126 126 127 127 127 127 128 128 129 128 122 118 112  90  71  57  48  51  60  65  62  59  52  45  42  41  40  36  39  39  37  37  39  40  40  38  39  38  38  38  39  41  38  43  49  50  50  46  42  47  41  38  32  32  29  26  24  23  26  30  29  26  27  32  37  41  48  50  58  61  63  66  69  75  83  92  96 108 112 110 116 107 107 109 107 109
 106 118 122 124 112 125 127 126 128 127 126 127 129 128 128 125 123 117 102  66  53  53  62  66  64  58  58  50  52  47  40  36  38  37  41  38  35  34  35  33  33  34  34  33  35  34  33  39  42  46  47  45  41  40  35  34  33  30  29  26  27  23  22  22  22  26  28  28  29  34  36  44  51  54  61  62  60  60  64  71  77  77  82  91 100  99 107  96  85  86  90  95
 108 119 124 125 112 126 127 127 128 127 127 129 131 128 128 126 120 107  73  57  62  58  61  62  58  54  52  50  48  43  39  34  34  35  35  32  32  32  31  32  33  33  33  32  37  38  41  43  47  46  50  52  50  42  32  25  24  26  26  26  20  18  20  19  19  24  26  26  28  34  39  49  56  60  55  52  56  62  65  63  66  77  84  89  95  95  86  75  77  89 100 114
 109 122 125 125 110 125 128 127 129 128 129 130 129 130 129 123 115  86  67  64  52  55  52  54  51  52  57  59  52  45  42  36  35  34  32  32  29  30  34  30  33  35  35  38  35  37  37  41  42  44  49  54  60  56  53  48  41  28  22  24  24  18  20  20  19  25  27  25  27  34  42  49  55  49  46  48  54  56  58  63  70  76  85  99  97  90  83  81  95 111 117 117
 114 122 124 125 113 127 129 129 129 130 127 128 127 127 124 115  99  73  60  50  50  49  55  51  49  53  54  55  52  47  41  37  34  36  33  34  33  33  34  34  34  34  34  36  37  38  39  41  44  45  50  52  53  55  56  48  38  30  27  23  24  18  18  17  21  24  28  28  32  35  42  45  39  37  40  42  45  50  54  64  72  73  76  83  85  86  87  92  98 103 106 110
 116 123 126 124 114 130 130 131 128 128 129 128 125 123 120 104  67  56  49  48  49  48  44  48  51  52  57  55  48  42  37  39  37  38  34  35  33  33  33  32  32  33  35  36  37  39  43  41  49  58  64  67  54  47  41  33  32  32  30  25  24  22  18  18  24  24  26  26  29  35  35  30  30  34  33  36  42  50  55  60  63  69  71  70  67  70  71  85 104 105 110 116
 118 122 127 125 114 127 128 129 129 128 129 127 125 123 113  75  52  48  48  44  44  41  42  47  51  54  62  52  44  39  38  40  37  33  32  31  30  30  31  32  32  35  34  33  32  33  35  36  41  48  50  48  46  43  40  35  31  28  26  26  24  24  25  24  22  22  20  25  27  27  24  24  28  28  32  35  43  42  45  48  55  62  65  59  56  60  71  83  91 104 111 118
 119 124 127 124 116 129 128 131 131 132 132 129 128 123  96  58  48  44  41  36  38  41  42  47  56  61  54  42  34  30  28  28  29  28  29  30  29  32  33  31  27  26  28  29  30  31  32  38  45  49  50  49  47  42  32  28  26  25  21  26  30  32  24  18  21  22  23  23  22  20  22  24  26  27  28  32  37  38  39  46  47  45  49  51  51  59  67  80  96 111 122 129
 122 125 128 120 118 130 129 130 130 131 130 130 128 116  81  53  46  39  34  39  44  46  45  47  49  46  45  36  32  31  29  29  28  28  30  31  30  25  26  25  25  28  30  32  35  39  41  44  49  52  53  52  45  37  30  27  25  25  21  24  23  23  21  19  21  20  21  18  19  23  22  24  24  28  32  34  40  42  47  51  51  49  49  52  65  72  81  92 106 122 127 132
 123 127 127 115 120 129 130 129 130 130 130 130 124 116  74  53  41  35  35  38  41  38  41  43  45  48  41  31  25  28  29  30  31  30  28  26  25  26  30  31  33  34  32  34  35  34  37  41  45  46  38  35  29  24  27  27  27  27  25  25  24  24  24  24  22  22  22  22  19  20  22  24  26  32  35  39  47  52  53  51  48  46  47  62  80  92 105 115 124 133 138 136
 125 128 128 114 124 130 131 131 129 130 130 131 122 110  71  43  35  37  34  34  34  34  38  40  42  36  25  19  21  24  27  28  30  28  30  30  29  29  30  31  30  31  32  33  32  32  32  29  30  30  27  27  28  26  26  28  29  28  28  28  29  28  27  30  29  25  25  25  24  26  25  27  28  28  32  39  48  56  62  59  56  52  54  58  79 104 115 124 128 133 133 138
 125 129 129 113 127 128 132 130 131 131 131 130 123 101  59  37  31  29  28  35  34  34  34  33  33  25  20  18  18  17  19  19  19  20  23  24  24  24  26  28  31  32  28  26  26  26  25  24  24  24  25  29  29  30  32  34  35  36  37  37  35  34  35  42  38  37  32  33  32  31  28  27  29  31  33  38  43  48  51  52  55  55  54  57  66  85 103 122 131 139 142 143
 126 128 129 110 128 129 133 132 130 130 130 131 122  91  52  37  28  26  29  35  31  30  30  30  27  20  16  15  16  16  17  17  19  19  22  23  25  26  29  26  27  27  27  27  26  25  24  26  26  29  31  32  32  33  38  41  42  46  46  47  48  47  51  53  49  49  47  42  41  35  32  28  29  30  35  38  39  39  40  43  47  50  54  56  58  62  81 115 135 139 142 142
 127 130 127 111 130 130 131 132 133 132 133 132 123  72  45  31  24  27  30  30  29  30  30  30  23  18  15  16  17  19  20  21  22  24  27  27  27  30  31  30  32  30  31  31  30  30  30  31  33  34  36  38  38  40  43  48  49  53  54  59  58  61  64  64  63  64  63  56  51  48  42  36  30  27  32  29  32  38  39  41  42  48  53  49  54  59  69 103 132 142 145 145
 127 129 128 113 131 132 132 132 134 133 133 132 113  68  41  32  27  29  30  30  28  29  30  28  19  15  16  18  20  23  25  27  29  29  31  33  33  32  31  33  33  32  33  33  33  34  33  36  36  38  40  42  45  47  46  50  54  59  62  65  66  71  75  77  78  75  74  70  63  56  51  45  36  26  25  27  28  28  30  32  36  45  54  50  49  60  80 102 130 144 145 146
 129 131 129 114 131 133 133 132 133 133 133 130 104  70  43  34  29  30  30  32  33  29  29  25  18  17  21  24  24  28  30  32  33  33  36  37  38  36  36  35  36  35  34  36  38  38  38  40  40  40  41  44  47  50  52  56  62  66  72  74  73  82  85  87  88  84  82  81  75  67  61  55  45  32  28  26  26  25  28  30  34  42  55  54  49  53  72 110 133 141 145 146
 129 130 130 106 133 134 134 132 133 133 134 132 115  75  42  40  31  30  37  37  30  30  29  23  19  21  23  26  28  32  34  35  36  39  42  42  42  41  41  41  41  41  40  41  41  42  42  44  44  45  47  50  53  54  59  63  70  73  79  77  79  88  93  94  95  92  88  87  83  74  70  65  56  44  31  25  26  28  30  29  33  42  49  51  52  56  69 106 140 144 146 147
 130 130 129 110 130 132 135 133 133 134 134 134 126  78  46  38  28  28  32  31  29  29  27  21  23  25  28  30  35  36  40  42  44  44  46  47  48  46  45  45  45  44  45  44  46  48  48  47  51  50  54  55  56  61  66  70  76  80  83  83  83  90  96  97  97  96  94  91  87  82  75  75  65  55  38  28  27  28  30  31  33  37  44  48  51  55  67 108 138 145 148 151
 130 131 127 118 133 133 134 133 134 136 135 135 122  78  47  36  27  26  30  31  30  30  25  24  25  28  33  36  40  40  43  46  48  50  51  51  51  50  48  48  48  49  49  49  51  52  53  55  54  57  59  60  63  67  73  78  82  87  88  86  88  94  99  99 102  97  97  96  91  86  80  78  75  63  50  28  26  28  29  31  34  36  41  49  56  59  74 107 142 148 152 154
 131 133 125 123 134 134 134 135 135 134 136 134 126  67  46  35  27  24  27  27  28  31  23  25  30  33  37  40  44  45  49  50  52  54  57  56  57  53  51  54  53  56  56  55  56  57  57  61  62  61  65  66  70  72  80  83  88  92  90  89  90  97 102 103 102 100  99  96  95  92  85  82  84  76  59  37  26  25  29  31  33  35  39  50  61  71  80 110 141 152 156 157
 136 138 123 128 137 135 134 136 135 135 135 132 114  59  46  34  25  22  28  26  25  30  25  29  34  38  40  43  47  49  54  57  60  58  59  61  61  60  59  60  59  61  61  62  61  62  63  65  65  65  69  68  73  77  80  86  88  92  90  90  90  95 101  94  94  99 100 100 100  97  90  83  86  83  71  48  30  26  27  30  31  33  35  44  59  74  92 119 139 151 155 158
 138 144 124 146 144 136 137 136 136 137 136 134 108  53  42  31  22  22  26  24  25  28  26  34  40  42  45  48  50  54  58  60  64  63  62  65  64  64  65  63  64  65  65  65  66  66  66  68  68  68  72  74  79  82  85  89  92  90  89  87  89  93  98  96  90 100 102 101  99  97  93  88  88  87  79  58  34  28  26  27  30  33  36  40  56  74  99 125 144 152 155 159
 142 146 123 149 148 142 137 137 137 135 135 136 118  48  40  28  23  23  25  25  22  28  29  38  46  47  49  52  56  59  62  64  66  67  66  66  67  67  65  66  67  68  68  68  68  68  68  70  70  70  73  76  79  83  86  90  90  90  89  88  88  89  93  93  90  99 102 100  99  97  93  93  91  91  86  69  40  30  27  26  28  31  34  38  51  80 109 129 148 154 158 160
 143 144 121 148 150 144 139 136 138 138 137 137 124  46  39  26  24  23  24  22  23  27  32  44  51  54  54  57  60  64  66  67  66  66  67  67  66  67  68  68  68  69  68  68  70  71  71  71  71  71  75  76  78  82  84  87  87  86  86  85  86  88  94 101  96  95  98  98 100  97  94  94  94  95  90  76  48  31  25  26  26  30  34  38  52  87 124 141 147 155 160 162
 143 143 120 147 150 148 143 141 140 138 139 138 127  43  37  28  26  21  22  24  24  27  36  54  60  59  61  61  64  66  68  67  66  66  68  71  72  72  68  70  69  68  69  69  72  70  69  70  71  73  75  77  81  83  84  87  87  85  86  86  88  88  93  96  95  95  98  97  99  98  95  92  96  98  95  83  56  31  28  27  28  30  33  38  52  99 143 153 156 157 160 163
 144 143 117 146 149 150 146 141 140 140 140 139 124  45  37  30  23  22  24  27  28  31  43  62  64  65  64  64  65  66  69  69  70  69  72  73  75  75  73  74  71  68  68  71  71  70  72  73  75  77  80  79  81  82  83  86  84  84  85  84  86  88  90  93  93  92  96  98  99  98  96  96  93  96  99  89  63  38  27  26  28  29  33  40  50 106 148 157 160 161 161 165
 146 143 114 146 150 152 150 145 141 140 140 140 123  41  39  33  22  22  23  26  28  34  50  65  71  72  72  68  68  67  72  73  74  71  74  75  74  75  75  74  72  70  70  73  72  74  75  77  78  78  80  81  81  82  83  84  84  84  85  84  84  87  90  90  91  94  94  94  97  97  97  96  96  96 100  92  65  42  30  27  28  29  34  43  63 109 153 160 160 164 165 165
 147 145 124 147 150 153 153 150 144 142 142 141 122  40  40  32  24  24  23  24  30  39  57  70  79  78  79  76  74  73  73  74  74  70  75  76  76  75  74  74  74  75  72  75  76  77  77  80  80  79  80  83  86  84  84  84  84  84  85  86  89  89  91  93  95  95  96  94  96  98  96  96  99  98 102  96  72  43  32  29  29  30  36  48  84 131 156 163 165 165 164 167
 149 144 124 148 149 150 152 151 149 143 142 141 126  43  42  30  24  24  24  28  33  46  63  78  84  84  83  81  78  76  75  77  76  75  76  76  76  75  78  78  78  76  75  77  78  77  78  80  80  81  82  84  85  84  84  85  84  86  88  88  92  94  95  94  98  99  97  97  97  98  98 100 102 103 103  98  74  47  32  31  29  29  36  53  95 149 162 166 166 165 168 169
 148 143 125 149 151 151 151 152 151 148 144 142 133  56  42  28  26  25  25  30  36  48  65  77  88  91  86  88  86  82  82  78  80  80  79  80  80  81  80  80  81  82  80  80  80  80  81  80  82  82  82  86  88  86  87  84  84  86  90  93  97  96  99  97 100 103 103 102 102 103 101 104 104 105 104  99  76  49  33  31  32  31  40  57 100 154 165 166 168 167 168 169
 147 137 132 148 150 150 149 152 152 150 147 143 137  68  37  30  26  26  30  33  36  49  68  81  91  92  93  94  94  92  89  86  86  83  83  85  86  84  82  82  84  82  82  82  82  83  81  81  81  82  84  85  88  88  85  84  88  88  94  99 100 100 101 104 102 104 104 106 107 107 105 105 107 105 108 102  76  53  34  32  36  36  43  62 114 154 165 168 168 168 168 170
 146 128 136 146 146 147 149 152 150 150 147 145 136  73  37  30  27  28  31  32  37  49  70  86  94  94  96  98  99  98  97  94  90  91  88  87  86  87  87  86  86  85  87  85  84  83  85  82  83  84  85  86  88  87  84  85  88  90  94  98 102 102 104 104 105 107 109 111 112 111 114 110 110 111 112 106  81  50  37  34  42  40  46  70 122 161 169 170 170 170 170 170
 143 120 143 147 147 145 147 148 148 149 147 145 137  67  37  30  29  30  31  32  36  51  74  87  94  97 100 104 105 106 105 100  99  97  95  90  88  88  87  85  86  85  85  84  83  85  84  82  82  82  88  88  88  87  86  88  90  91  97  99 102 102 101 105 106 106 112 112 116 116 112 113 114 117 118 112  87  52  39  37  45  44  46  71 136 165 171 171 171 172 172 171
 144 113 145 146 147 148 146 147 147 147 147 146 129  60  37  30  30  30  33  34  38  55  80  91  98 102 106 109 109 109 106 104 100  99  97  92  88  87  86  86  87  85  85  83  83  84  84  82  82  84  86  88  87  88  89  88  89  93  95  97 100  99 100 101 104 106 110 113 117 119 119 118 119 121 120 116  90  56  43  43  50  48  52  84 153 169 171 172 172 173 175 174
 144 113 143 146 147 148 148 148 147 148 148 145 125  53  36  30  29  29  31  32  42  59  83  94 102 108 110 114 115 111 108 102  99  97  94  90  86  87  85  84  82  83  83  83  84  84  83  83  81  83  86  88  87  87  86  87  87  90  90  92  95  96  95  95 100 102 107 111 114 118 120 123 123 125 126 122 100  56  46  49  51  58  74  91 157 170 172 173 174 175 175 176
 146 115 147 147 149 148 148 149 149 150 147 144 132  50  36  32  29  29  32  33  47  67  88 100 109 116 116 118 116 111 106  91  93  91  89  85  85  82  80  80  81  82  83  82  82  85  84  82  82  84  86  86  85  85  85  85  86  87  87  88  90  91  91  92  97 101 102 107 113 118 119 124 125 127 129 127 108  58  46  49  47  63 105 133 163 172 174 176 176 177 177 178
 144 122 148 150 150 149 150 150 151 151 149 146 139  59  35  32  31  29  31  38  53  77  94 105 113 118 118 116 113 107 101  92  91  88  86  84  83  81  78  79  79  81  82  82  81  84  83  82  81  82  83  84  85  84  84  84  85  86  86  86  83  86  89  88  90  95  99 104 109 113 117 124 125 128 130 130 116  61  45  49  50  64 116 157 170 175 177 177 177 177 178 180
 147 122 148 150 151 152 151 152 151 152 151 150 143  74  35  33  32  28  30  40  66  88 100 109 114 118 115 110 105 104 102  90  86  83  82  81  78  78  74  75  75  77  78  77  80  82  82  81  81  80  84  84  84  84  83  82  81  82  81  82  78  82  84  84  86  90  95  99 103 109 113 120 125 128 131 131 123  57  41  48  54  88 136 168 176 177 178 178 177 179 180 179
 148 125 150 152 153 153 153 151 152 152 152 151 147  89  35  32  33  27  26  45  77  94 101 111 118 116 103  94  88  86  80  77  73  72  71  71  72  73  71  71  73  75  75  78  81  81  79  77  77  78  80  83  82  82  82  81  81  81  80  76  75  78  81  82  84  84  89  89  93  95  98 102 109 114 129 136 128  55  41  47  58 110 159 173 176 178 178 179 179 180 181 182
 145 123 152 153 152 154 153 154 152 153 153 152 149 107  35  33  33  27  26  54  88  98 103 110 112  96  78  67  60  55  54  52  49  50  54  56  61  62  63  63  66  68  71  76  79  80  79  77  79  80  80  82  81  83  81  80  80  75  73  71  68  70  71  72  74  74  72  71  70  72  73  78  86  94 101 128 129  54  39  48  62 112 164 176 177 180 180 179 181 183 184 184
 144 131 153 152 154 154 156 153 153 154 154 154 150 112  40  32  33  29  28  58  91  96  93  91  74  59  53  43  43  38  37  36  37  36  34  39  44  46  46  48  52  61  65  70  76  81  78  75  79  76  79  80  80  82  78  77  76  72  68  67  58  55  56  54  55  56  53  51  51  52  53  58  62  69  70  90 106  57  40  52  74 134 161 176 179 183 184 183 183 186 185 185
 138 140 155 154 154 155 155 156 155 156 155 153 150 122  41  31  33  29  26  64  94  92  70  60  54  49  40  35  32  30  29  28  28  26  27  26  30  32  31  35  42  48  54  64  70  74  74  74  74  75  75  77  78  77  76  72  69  68  61  55  47  42  36  36  37  37  37  38  40  42  45  48  51  55  58  66  72  60  43  51  88 149 170 178 181 184 183 184 184 185 186 186
 134 145 156 156 157 156 155 157 157 157 158 156 152 124  50  33  28  29  28  71  92  77  66  55  52  49  44  40  36  32  29  28  24  25  24  24  24  25  27  31  37  43  50  58  66  69  71  73  72  73  75  77  78  75  74  69  66  63  58  49  41  34  28  27  28  29  27  29  29  33  37  44  52  59  64  68  77  69  54  58 114 155 176 182 183 185 184 186 187 187 188 187
 125 152 157 157 158 159 158 158 160 158 160 158 155 143  79  36  30  30  31  72  90  69  70  67  63  58  56  56  54  51  45  42  42  37  33  31  27  28  28  28  32  38  47  54  63  68  69  69  69  70  72  75  76  75  72  68  65  63  55  45  41  37  31  29  27  28  33  36  40  47  51  59  66  73  79  89  99  79  63  77 144 172 180 184 185 187 186 186 188 188 190 189
 127 158 160 160 160 161 159 158 160 159 161 160 158 151 113  43  35  32  33  80  90  88  87  72  68  68  67  65  64  60  57  53  52  48  48  46  44  40  39  41  42  44  48  54  59  60  63  67  70  69  72  74  76  75  72  68  64  63  55  50  46  44  41  40  39  42  46  50  54  58  65  70  80  87  94 103 111  96  61 100 162 178 183 185 187 188 188 187 188 191 190 190
 125 159 160 161 161 161 162 161 162 161 161 159 155 130 105  55  36  34  32  86  98  98  94  80  75  70  66  60  51  48  45  43  39  37  34  35  36  36  39  46  48  49  51  53  54  56  60  66  68  69  70  72  74  77  75  69  65  63  58  54  50  46  38  36  33  35  34  37  43  48  52  61  75  87 102 112 122 102  60 136 176 180 185 186 187 188 189 191 191 192 193 191
 128 162 161 162 163 162 163 163 162 162 162 161 148 121 107  69  42  38  35  92  99  99  93  84  78  66  53  44  44  38  36  32  27  26  27  29  31  34  33  33  43  49  50  52  53  56  61  66  69  71  73  76  78  79  76  70  66  61  54  49  39  32  32  28  25  24  27  34  41  37  41  54  65  74  97 117 132 116  63 152 171 170 183 189 190 189 191 190 192 194 193 193
 128 164 164 164 162 164 168 163 164 164 162 162 136  70  94  89  60  41  42  95 102  98  94  84  74  55  46  46  29  30  41  33  24  19  20  23  28  38  35  35  32  40  48  49  52  56  61  67  71  75  78  81  80  80  77  70  65  56  48  34  31  34  33  22  20  21  25  30  56  67  54  41  60  67  89 115 136 133  68 133 112 110 180 189 190 192 192 192 195 195 195 197
 130 163 166 166 165 165 166 165 166 167 164 163 127  68  68  87  72  43  52  99 104 101  96  85  70  52  45  31  45  54  53  28  25  20  22  25  29  52  51  35  34  32  39  46  52  54  61  68  73  80  82  82  81  81  78  72  63  53  39  33  35  43  29  24  23  25  25  30  34  76  88  72  47  56  85 115 138 142  75 106  93  93 180 190 191 193 195 195 196 196 199 199
 133 166 167 168 168 166 165 165 165 167 167 164 128  66  60  80  77  46  54  98 105 106 102  90  72  52  39  48  71  68  53  29  25  23  24  26  28  49  63  47  35  34  36  44  47  54  60  68  74  81  84  84  81  83  79  69  60  45  40  34  43  50  30  25  23  24  26  27  33  87 103  94  77  57  77 111 139 145  78  99  90 100 186 192 195 198 198 197 197 199 200 202
 136 167 168 168 167 168 168 167 167 167 167 166 142  65  61  92  84  52  65  99 107 109 104  95  73  62  59  58  60  70  59  24  26  22  19  26  27  57  65  51  42  34  40  42  47  54  60  69  75  80  86  84  81  79  81  70  58  47  36  36  42  50  36  26  23  21  27  36  56  93  99  69  73  74  84 116 144 151  89 101  77 119 186 194 198 200 199 200 202 203 202 203
 146 168 169 170 170 170 169 168 168 167 168 165 161  77  66 108  84  47  68  99 106 110 109 104  97  92  81  68  65  61  65  45  29  25  24  26  40  66  57  43  39  34  38  43  48  55  63  70  77  84  92  92  86  83  81  72  60  50  42  38  36  40  44  31  26  26  30  52  85  86  73  70  94  91 104 129 149 156  89  91  73 144 188 197 199 199 200 201 203 204 204 204
 157 173 171 172 172 172 170 169 169 169 168 168 166 119  74 105  77  46  72 100 102 113 114 113 111 107  99  81  61  57  55  56  44  31  32  41  55  51  45  42  44  43  44  46  50  60  64  71  80  91  99 105 101  90  84  77  65  53  50  47  44  44  43  43  40  41  45  61  67  65  64  81 100 112 131 146 156 157  96  74  81 173 192 198 198 199 201 203 204 205 206 205
 169 173 172 175 174 174 173 172 171 171 171 170 169 162  88  94  69  44  70 101 107 115 116 119 120 116 105  90  75  61  54  52  49  48  49  51  51  50  48  47  46  45  44  50  57  63  66  74  87 101 111 121 116  99  87  81  71  61  53  49  48  46  45  47  52  55  54  55  62  67  81  97 106 130 152 156 160 159  98  74 103 187 195 200 200 199 203 203 204 204 204 204
 176 175 174 176 175 174 175 175 173 172 171 172 172 166 122  92  66  44  73 104 114 115 118 123 123 119 113 100  82  68  60  57  52  53  54  51  49  48  49  47  47  49  52  60  63  65  67  77  94 106 117 129 130 111  92  83  78  71  60  57  54  51  48  50  52  56  58  64  72  80  91 100 120 143 161 165 165 161 100  78 152 191 198 198 200 201 201 201 202 204 205 205
 178 175 176 177 177 175 176 176 174 173 172 172 170 169 143  92  64  44  69 103 112 116 120 124 124 122 114 103  89  74  64  60  58  53  53  51  51  51  52  53  55  57  64  65  67  66  67  82 104 114 124 137 141 123  99  84  83  80  73  66  63  61  57  57  59  59  62  66  74  81  90 107 129 150 164 170 166 160 100  91 187 194 199 199 200 200 202 203 201 204 203 204
 177 175 176 176 176 176 176 175 174 174 173 172 173 171 160  96  64  43  71 105 113 115 119 123 121 120 114 107  96  85  73  66  62  60  59  56  57  57  60  61  62  67  69  72  69  68  71  88 113 123 132 150 152 130 110  89  85  84  82  79  72  70  68  66  67  67  68  73  78  88  97 119 134 155 166 170 167 156 100 114 190 196 199 199 199 200 204 202 203 204 205 204
 175 175 177 177 175 175 175 174 175 174 174 175 174 173 169 108  69  48  65 103 110 114 120 119 120 116 113 107 100  93  80  72  67  65  64  62  63  62  65  68  71  72  72  72  69  70  78  93 119 127 137 151 148 133 120  97  87  86  85  86  85  79  76  73  72  72  76  79  84  93 110 128 146 158 165 169 167 158  97 125 191 197 201 203 202 202 203 202 205 205 206 206
 174 175 176 176 174 176 174 174 176 175 174 175 174 173 170 121  98  52  62 103 110 113 116 115 116 114 110 105  98  94  85  78  71  69  67  67  67  69  73  76  77  74  73  72  68  75  84 101 124 131 139 154 147 136 130 106  92  90  89  89  91  87  85  82  78  76  80  84  90 103 118 133 149 159 161 164 165 159  98 144 193 198 201 201 203 203 204 204 205 204 205 206
 175 175 176 176 177 176 177 177 175 175 175 175 175 174 173 150 109  74  59 101 107 108 112 113 113 112 111 107 103  98  92  83  78  74  74  72  76  77  81  78  76  75  73  72  72  80  93 107 128 135 144 155 149 139 135 116 102  95  91  88  91  92  91  88  86  85  84  88  98 108 122 138 146 152 156 156 160 153 103 174 196 200 201 203 204 204 204 204 206 205 206 206
 176 176 178 176 177 178 177 176 176 175 175 175 175 175 175 171 123  86  53  95 107 109 106 106 107 106 106 105 102 102  97  92  89  87  84  82  82  83  81  77  75  77  75  76  79  87  99 108 128 133 143 156 152 145 141 125 108  99  93  90  90  92  93  94  94  92  94  99 104 116 125 133 138 140 143 148 156 149 129 190 200 200 201 202 203 204 205 205 206 206 207 208
 176 179 178 178 178 178 178 179 179 177 176 176 176 176 176 173 144 102  56  94 107 108 105 103 101 101 101  99  98  96  96  95  93  93  89  87  86  85  81  77  77  80  80  80  85  95 107 114 126 130 140 154 149 147 145 134 117 103  95  91  90  92  93  96  98 101 101 106 110 118 124 128 131 138 141 143 154 146 181 196 201 203 204 204 205 205 206 206 207 206 208 208
 178 179 179 179 177 180 178 179 178 176 178 176 177 177 177 174 158 123  85  95 108 108  99  98  98  94  97  94  92  95  95  94  96 101 100  98  91  88  85  81  81  81  83  85  94 104 111 116 125 129 135 144 150 149 148 140 125 110 101  94  92  93  94  98 100 106 108 113 115 117 121 124 124 130 136 137 146 164 193 199 200 204 205 205 206 205 206 207 207 208 208 208
 178 179 179 179 180 181 179 179 178 179 179 178 178 178 179 175 157 120 109  96 106 106  96  96  95  94  95  88  92  97  99 102 104 106 106 104  95  95  90  85  83  82  84  89  99 111 116 124 132 130 134 146 151 150 153 146 130 114 103  96  93  93  97 100 107 109 117 122 125 127 124 125 126 129 133 132 139 177 198 202 203 203 204 206 207 207 207 207 208 209 209 210
 180 181 180 180 180 181 181 181 181 178 181 180 178 178 180 177 162 112  95  91 103 106  96  94  90  90  93  94  98 100 102 106 106 108 104 105 103 100  93  89  85  84  83  90 102 113 122 132 136 131 137 152 157 154 154 150 137 120 103  98  96  98 103 108 109 113 119 126 128 133 135 132 132 133 132 131 148 183 201 204 206 205 207 207 208 208 210 209 210 209 211 209
 180 181 182 182 181 181 181 180 181 180 180 181 181 181 178 179 177 148  95  90 100 106 100  96  94  91  92  99 101 102 106 106 111 113 111 110 103 101  93  87  83  79  82  94 107 118 129 134 137 132 140 155 157 159 158 156 143 123 101  95  95  98 104 108 113 118 122 129 131 135 136 139 137 138 132 134 154 187 202 203 206 207 208 207 209 209 210 210 209 210 211 211
 182 182 182 182 182 182 183 182 184 182 182 180 182 181 180 180 181 179 174 137 102 104 101  97  93  92  93 100 103 101 105 104 106 106 107 104 106  98  91  84  78  76  85 103 116 127 138 137 135 133 140 153 161 164 165 163 149 134 102  91  94  99 105 109 115 121 128 132 134 135 137 134 134 137 138 139 158 190 203 205 206 207 207 208 208 208 210 211 212 212 211 211
 183 183 183 182 182 181 182 182 182 182 183 182 182 182 182 181 180 181 180 152 102 102 101  98  94  98  98  99 101 102 104 103 103 106 102 101 100  91  87  79  70  76  98 114 121 132 144 147 138 135 139 151 159 164 166 164 156 147 115  89  88  93 104 110 117 121 125 131 133 134 135 137 138 140 138 141 165 195 204 205 206 208 208 209 209 209 212 211 213 212 211 212
 182 183 183 182 182 182 182 183 183 183 183 182 182 182 182 181 182 181 181 168  98 100 100  99  98  98  99 101 103 101 103 103 105 100 100  98  91  87  82  75  69  83 109 122 129 134 140 138 132 133 135 144 151 159 166 166 164 159 134  94  84  90  98 107 115 119 123 126 134 135 137 137 137 141 138 142 174 200 204 206 206 207 208 209 209 210 212 211 212 212 211 212
 185 184 184 183 184 184 184 184 184 183 184 183 183 182 182 182 184 181 180 174 105  97 100  98  99 100 100 100 103 101 102 103 103 101  98  89  72  81  77  72  72  95 116 122 129 133 133 129 126 125 128 134 142 150 156 162 167 164 154 107  87  87  97 105 113 120 123 126 134 135 137 132 136 139 137 144 184 201 205 206 206 206 208 209 208 209 210 209 210 212 212 212
 183 183 184 184 183 184 184 184 184 184 184 183 184 184 183 183 183 183 182 178 113  96  98  98  99  99 100  99  99 100 103 103 102 100  97  88  80  78  73  75  75 102 113 114 121 126 121 118 114 114 120 126 133 139 146 153 162 165 156 124  91  88  92 101 110 118 124 120 128 135 136 134 135 137 135 148 190 204 205 206 206 208 208 208 210 210 210 212 212 212 213 213
 184 184 185 186 184 184 185 184 184 184 185 184 183 183 184 185 184 184 183 177 132  97  98 100 101 101 101 102 101 101 101 101 100  96  94  87  82  78  77  77  74 100 103 104 109 111 110 110 107 106 110 114 124 130 135 141 153 154 148 124  97  94  92  96 104 111 121 121 125 130 134 135 134 138 137 153 196 204 205 207 207 208 208 209 210 210 212 212 212 213 213 213
 186 186 187 185 185 186 185 185 184 184 186 185 184 186 184 184 185 184 184 180 150  92  93  99 100 101 101 103 100  99 100 100  97  96  92  86  81  80  84  84  73  83  89  89  93  97  99 102 100  96  96 103 110 119 123 129 139 134 130 113 104 105  99 100 103 111 118 124 124 128 132 137 138 138 136 159 196 205 207 206 208 208 209 209 209 211 211 211 213 212 214 214
 187 186 186 186 187 186 186 184 185 186 185 186 185 185 184 184 185 184 184 182 170  92  92  98 100 101 100  98  98  96  97  97  97  94  89  86  84  84  91  90  79  72  74  66  65  73  79  85  85  85  85  89  94 101 105 110 110 100 104 108 113 115 107 102 105 110 116 122 122 125 133 138 138 137 134 171 198 206 207 207 209 208 209 210 212 212 212 212 213 214 215 214
 188 185 188 187 186 187 186 186 184 185 184 185 185 185 186 186 187 184 183 182 176 104  89  95  99  99 101  98  98  96  95  96  94  89  91  86  86  91  98 100  91  82  68  57  50  52  62  69  74  75  76  79  82  85  89  84  68  81 111 118 122 121 119 110 109 111 114 119 122 122 131 135 134 137 139 187 204 208 208 208 209 209 211 212 212 211 213 213 214 214 215 214
 188 185 188 186 188 187 187 188 187 184 185 183 184 185 185 185 185 184 184 184 178 130  93  93  94  97  98  96  96  95  93  92  92  93  90  89  93  99 102 103  99  93  85  66  51  52  52  62  66  70  73  75  76  83  81  62  61  91 120 124 127 126 125 119 114 115 119 119 124 122 128 133 135 137 139 195 207 207 209 210 211 210 211 212 212 212 213 213 215 215 215 214
 188 190 189 187 187 188 188 188 187 184 184 185 183 184 183 184 185 183 183 184 180 143  95  90  91  96  97  95  93  92  93  92  95  94  92  94 103 104 104 100  98  94  94  91  70  52  52  53  60  67  72  74  73  73  63  62  71 105 124 129 131 130 129 124 119 119 118 119 122 123 127 132 132 131 154 198 207 207 209 210 210 211 211 211 213 214 214 213 215 215 215 215
 188 188 189 187 188 188 188 189 187 186 185 185 185 184 185 184 185 184 185 184 181 165  98  88  88  96  94  93  90  93  94  94  96  95  95 101 104 104 103 100  97  93  95  98  92  68  51  53  57  57  63  64  64  63  65  70  86 113 123 128 129 132 132 131 125 120 120 120 120 123 124 128 125 125 165 202 206 207 208 209 210 211 211 212 212 211 213 213 214 216 214 214
 190 188 188 187 187 188 189 188 187 185 186 186 185 186 185 185 186 183 182 182 184 178 103  88  88  94  95  91  89  91  90  95  97  94  97 100 101 100 102  98  94  92  94  97  96  84  68  61  60  57  58  58  63  64  67  76 102 122 126 126 128 128 130 131 126 122 120 122 123 123 121 123 122 126 179 206 207 208 208 208 210 209 210 212 212 211 212 213 214 214 214 214
 188 188 188 188 186 187 188 187 185 185 186 185 184 186 185 184 185 184 183 183 183 179 120  89  85  92  94  90  89  88  88  94  96  94  95  96  96  96  97  92  90  91  91  93  90  85  73  63  65  62  57  57  63  65  70  86 110 125 128 127 125 126 126 127 124 121 119 122 124 122 120 119 117 129 192 206 206 208 209 208 209 210 211 211 212 212 213 214 214 215 213 214
 189 189 187 188 187 186 187 187 185 185 185 185 184 184 183 184 185 184 185 184 183 181 148  89  87  89  88  89  87  88  91  94  92  91  93  92  94  92  92  88  89  88  87  85  82  79  70  66  65  61  55  57  64  67  79  96 108 122 128 127 124 123 119 116 118 118 119 122 121 120 119 117 111 143 195 205 206 209 208 209 209 210 210 210 213 214 214 214 214 215 214 216
 189 188 189 188 186 185 186 185 185 185 185 184 184 184 183 183 184 184 184 184 184 182 171  94  84  82  85  87  86  88  90  90  89  88  89  88  88  88  85  85  87  84  84  81  75  75  70  67  63  55  49  52  63  71  83  92 106 114 119 122 118 111 110 110 109 111 115 121 123 118 117 114 116 158 198 206 208 209 208 209 209 210 211 210 213 213 213 214 214 213 215 214
 188 186 187 186 186 185 185 185 185 184 185 184 184 184 183 184 183 184 184 184 184 182 178 116  82  77  79  84  84  86  86  85  84  83  82  81  82  81  76  80  83  84  80  78  78  77  72  66  63  50  42  48  64  81  94 101 104 104 105 105 101 103 106 102 100 102 105 114 117 116 114 113 120 186 202 207 208 208 209 208 209 210 212 212 214 214 214 214 214 215 214 215
 188 187 186 187 185 185 185 185 185 184 184 185 184 185 184 184 184 184 183 183 182 180 176 110  84  75  76  80  81  82  80  80  79  76  73  72  73  72  68  70  74  77  72  74  76  78  78  71  62  50  38  52  76  91 105 108 105 103  98  89  87  91  96  94  97 100 101 107 111 113 112 109 135 198 204 207 208 208 209 209 210 211 213 213 212 212 213 213 214 215 215 214
 187 186 185 185 185 185 185 184 184 184 185 184 185 184 186 184 184 184 183 183 177 130  69  66  83  73  72  74  78  81  77  75  72  67  64  65  64  63  64  64  66  70  69  72  75  77  78  72  70  67  55  68  83  92 100 104 101 101  98  86  81  81  84  84  89  93  97 102 107 110 111 111 158 201 204 208 207 208 209 209 212 210 211 212 212 213 213 214 214 214 214 215
 186 185 186 186 186 185 184 184 184 184 184 184 185 184 185 184 183 183 164 122  69  56  53  60  84  74  70  74  76  76  73  68  68  63  62  60  59  55  53  57  61  66  68  67  66  61  60  59  60  68  68  66  63  64  69  73  78  87  89  81  72  70  71  76  80  85  89 100 104 106 110 118 191 203 204 207 207 208 209 209 210 210 211 212 213 213 213 214 214 214 215 214
 185 186 185 185 185 184 185 185 186 185 184 183 184 183 182 179 144  96  71  64  49  47  47  52  84  76  69  72  72  71  69  65  64  58  56  54  45  41  39  43  49  57  55  50  50  47  47  47  47  51  55  53  53  53  56  57  59  59  58  53  45  49  58  70  75  80  85  96 102 104 108 130 189 204 206 207 207 208 209 208 209 211 211 213 213 214 215 214 213 215 215 216
 184 185 185 185 185 186 184 184 185 183 183 183 185 166 117  75  61  57  55  42  41  40  42  42  84  75  70  68  70  69  67  64  60  54  52  48  42  39  34  31  33  33  35  35  39  43  45  45  43  43  48  50  50  48  51  50  45  41  36  37  45  52  58  67  71  77  86  93  98 102 105 109 126 155 188 208 206 207 208 208 209 210 212 211 213 214 215 214 215 214 215 215
 185 185 187 185 185 185 184 184 183 183 179 139  89  64  57  52  50  48  45  36  37  39  39  45  85  71  70  66  69  68  62  59  56  51  50  50  48  49  45  38  37  34  32  29  29  29  34  36  35  36  39  40  31  33  34  38  43  43  47  50  60  69  70  70  73  78  86  91  94 100  87  78 110 118 120 132 172 202 206 208 209 211 211 210 213 213 214 214 213 214 215 216
 185 185 184 185 184 184 181 181 153 106  67  59  54  48  48  46  43  43  39  37  37  38  38  41  82  71  64  67  66  65  57  57  55  54  55  56  55  56  56  48  44  42  43  39  42  39  35  34  33  34  34  37  37  42  47  43  47  55  59  65  77  77  76  76  75  79  86  91  96  96  82  58  82 106 108 111 116 124 154 191 209 210 212 212 213 214 214 214 215 215 215 215
 184 185 184 183 184 169 117  75  58  56  50  45  43  41  43  41  40  39  37  34  35  37  33  43  80  71  62  64  66  62  58  55  57  57  56  60  59  59  61  57  56  52  52  54  56  54  48  49  47  44  42  50  44  52  56  57  56  63  73  85  85  82  81  79  80  80  86  90  94  88  79  73  60  90 103 106 106 107 111 120 146 185 208 209 211 213 214 214 214 215 214 215
 184 184 186 151  96  58  52  49  45  43  43  41  39  38  38  39  39  38  32  33  34  34  32  42  79  75  63  58  63  61  59  56  55  54  58  62  62  62  64  62  60  59  56  60  61  56  51  54  52  50  49  50  50  54  64  68  67  70  80  86  86  82  82  82  81  80  85  88  90  80  75  77  58  72  91 102 102 102 104 106 112 118 138 173 205 210 213 214 214 214 214 216
 169 124  73  55  50  46  42  39  40  37  38  38  38  37  37  36  36  35  30  30  31  34  29  50  79  74  66  58  55  59  56  56  55  54  58  59  60  62  61  61  62  61  56  57  56  51  50  52  50  50  47  49  49  52  62  70  70  77  85  84  84  82  80  78  76  82  86  86  76  73  72  72  66  58  81  93  98 100 100 100 100 106 112 119 129 161 198 212 211 214 214 214
  57  53  48  43  39  38  38  38  36  37  37  36  37  37  36  37  36  35  29  30  32  32  27  58  76  74  68  61  52  51  56  55  53  54  54  55  56  58  58  58  58  58  57  55  51  49  49  50  49  49  48  50  53  53  56  64  73  79  81  80  80  78  76  76  79  82  84  80  49  68  71  73  71  55  67  85  93  96  96  94  99 101 103 107 110 118 128 158 193 214 213 214
  41  38  38  36  36  35  35  35  34  35  35  34  36  36  36  35  35  33  28  31  31  31  26  59  75  73  70  63  50  46  51  54  54  51  54  53  54  53  56  58  55  54  52  52  50  51  49  48  49  49  50  51  52  54  61  68  71  72  74  76  76  72  72  74  77  80  84  87  40  60  69  70  68  56  62  76  88  91  92  92  93  95  98 101 103 106 112 119 126 154 193 213
  36  35  34  33  34  33  32  34  33  33  32  34  34  35  36  35  34  31  28  29  30  31  23  60  73  73  68  62  55  45  45  47  50  50  51  52  50  52  53  55  53  53  52  50  49  48  48  46  49  51  53  53  56  61  64  66  69  70  71  69  71  72  72  74  70  78  95 121  38  57  68  68  68  63  58  70  81  87  91  91  93  92  92  98  98 101 106 106 110 115 123 146
  32  34  32  31  32  31  31  31  31  30  30  32  32  34  34  35  34  30  28  27  30  30  26  62  71  72  70  66  62  53  43  42  47  49  49  50  50  49  51  52  51  53  53  50  48  47  49  50  51  53  54  55  59  62  63  64  67  69  68  70  68  71  71  71  72  77 113 127  46  55  68  69  69  65  55  67  81  82  85  88  86  90  90  92  92  95 102 102 104 106 109 115
  32  31  31  30  30  31  30  29  31  32  32  31  33  32  32  33  32  31  29  29  29  29  26  63  68  71  70  67  65  56  46  40  42  46  49  49  49  50  48  50  51  52  54  52  52  51  51  52  52  53  55  56  60  62  65  63  64  67  68  70  70  70  71  74  72  98 126 128  56  53  67  68  67  65  53  63  75  79  83  84  83  87  86  87  90  94  96  98 101 103 105 106
  31  30  30  28  29  28  30  30  30  30  30  32  31  32  32  34  32  31  28  29  28  30  27  64  68  70  68  65  63  59  57  44  37  42  49  49  50  52  52  48  50  53  53  53  54  54  54  54  56  55  58  59  60  62  62  66  68  69  70  73  72  72  72  67  83 116 128 128  70  53  66  66  65  64  53  61  69  75  82  83  83  83  84  82  85  88  90  92  94  96  99 104
  29  29  28  28  30  28  30  30  29  29  29  30  31  32  32  31  31  31  27  29  27  29  26  57  66  68  67  66  61  60  59  53  42  38  43  48  50  52  52  50  53  54  55  54  56  57  60  60  61  60  61  59  62  63  65  68  72  74  73  74  71  71  68  70 109 120 126 129  73  54  64  65  64  61  54  61  68  75  80  83  82  82  80  80  82  84  86  88  89  91  93  97
  28  28  28  27  28  30  28  29  28  29  31  30  29  30  31  30  30  30  27  29  27  27  26  55  63  66  67  65  64  60  58  55  51  42  40  42  49  50  51  52  54  55  54  55  57  55  57  60  59  59  64  64  65  66  70  73  73  74  71  74  71  68  68  97 111 120 126 125  76  55  62  65  63  62  53  61  69  73  75  81  84  81  79  79  78  80  82  84  82  86  91  94
  26  27  28  26  27  28  28  28  29  28  30  30  30  30  31  30  30  29  28  28  28  28  28  48  60  64  65  63  63  61  58  54  53  46  38  39  47  49  50  52  54  56  55  57  58  59  56  56  58  60  66  66  66  68  70  73  74  72  70  69  70  61  85 101 109 116 119 122  70  54  64  63  61  60  57  63  68  73  75  80  81  78  79  77  76  80  81  82  83  81  86  90
  27  27  28  27  26  26  28  27  28  29  29  30  30  30  30  31  30  29  28  26  26  27  27  39  57  60  61  63  60  60  60  55  53  49  46  39  40  45  48  49  54  54  53  56  58  60  56  54  61  63  66  65  69  68  71  72  72  72  68  67  63  79  92 103 107 112 115 117  66  58  63  64  60  56  55  64  69  71  75  77  78  78  79  77  75  77  81  81  81  80  80  85
  27  24  27  25  27  28  26  28  28  27  29  31  29  30  30  30  30  29  28  25  25  25  26  29  52  58  59  61  60  57  57  56  53  52  48  47  40  39  43  45  50  50  51  54  55  56  55  59  59  62  60  64  69  69  70  71  70  68  65  63  75  86  94 100 104 106 111 107  63  58  59  60  61  59  56  64  68  71  74  74  78  77  76  74  76  75  75  78  77  76  78  85
  25  26  27  26  26  27  27  28  27  28  27  29  29  30  30  30  29  29  29  25  22  23  25  24  49  56  58  57  59  56  55  54  54  54  52  50  48  42  39  39  40  46  50  52  54  54  57  60  60  60  60  63  65  68  70  68  62  56  59  68  80  86  92  98  98  99 106  97  58  58  60  59  58  59  60  67  68  69  72  74  75  80  77  76  75  75  72  75  74  76  77  82
  25  26  26  25  24  26  27  26  25  27  25  29  30  28  30  29  30  29  29  27  23  23  24  25  35  52  54  55  57  57  54  54  56  54  53  50  49  47  45  39  36  43  46  49  53  55  56  59  58  58  60  61  63  66  65  59  56  58  68  74  80  85  88  89  90  94  99  76  59  58  57  59  58  59  63  67  66  70  70  72  75  76  76  75  77  73  72  71  73  74  74  78
  24  24  24  23  24  25  25  26  25  25  25  27  25  28  30  28  29  28  26  23  24  22  23  22  24  44  50  53  55  54  55  55  55  53  53  54  50  49  48  48  46  42  39  43  45  49  51  52  55  58  58  57  57  58  54  57  63  70  71  73  78  80  84  83  86  90  86  59  58  58  58  57  56  59  66  68  70  72  74  74  74  72  74  72  75  74  72  74  72  73  72  72
  24  24  25  23  23  24  24  26  23  27  26  26  23  27  29  28  27  24  23  25  24  24  23  20  23  28  45  49  51  53  53  54  53  53  54  54  51  53  51  51  50  50  48  47  44  45  47  47  50  53  54  53  54  60  66  67  69  69  72  72  75  78  77  79  80  82  62  56  54  57  55  55  54  59  64  70  72  73  74  74  74  73  73  73  75  75  72  73  73  73  72  68
  23  23  24  23  23  24  24  24  24  26  26  25  28  26  26  26  24  24  27  27  24  23  23  22  22  24  31  46  49  49  52  54  52  53  54  54  53  52  53  54  54  54  52  53  53  53  53  53  55  57  60  62  65  66  67  70  69  71  70  72  74  74  74  75  73  62  54  53  54  53  53  53  53  62  66  70  71  73  75  71  73  70  72  69  70  73  71  71  72  73  71  70
  22  22  23  23  23  25  24  24  24  25  25  24  27  26  24  22  24  28  28  28  23  22  23  22  21  22  22  33  46  49  50  52  54  54  54  55  54  53  52  54  56  56  56  54  57  57  60  62  62  62  64  64  65  67  70  71  68  72  70  72  74  71  70  70  58  49  50  51  52  53  51  53  53  62  67  69  72  74  75  73  72  73  74  69  69  70  71  70  69  69  70  71
  24  22  22  23  23  22  23  25  24  24  24  25  24  23  22  24  30  30  29  29  25  25  22  22  22  20  21  22  32  46  49  51  53  52  53  54  54  54  53  54  54  54  56  57  57  60  58  62  62  63  63  65  65  66  69  69  71  69  72  71  68  67  64  54  50  49  48  47  50  51  52  51  53  56  65  68  71  71  71  70  71  72  71  71  69  69  69  70  69  69  71  68
