P2
# Generated by OpenCV 3.4.0
92 112
255
  94 113 121 123 117 119 125 124 129 128 126 128 126 128 128 128 128 128 129 125 116  98  80  68  58  50  50  54  59  63  53  47  46  41  41  41  41  40  40  38  40  39  37  36  40  45  44  42  43  47  57  59  56  61  74  84  70  48  40  33  36  31  30  30  33  30  29  31  25  28  37  44  47  51  50  51  43  53  68  74  76  79  94 106 112 116 114 118 119 123 127 129
 104 115 121 122 113 124 127 127 127 127 130 127 128 128 129 129 127 126 120 115 102  77  66  54  47  54  62  62  61  55  49  44  41  39  38  41  37  38  40  39  40  42  43  43  42  40  40  42  45  44  46  50  50  47  46  50  53  44  38  36  35  28  25  25  26  29  29  29  24  29  35  42  46  48  51  52  58  64  68  70  80  87  96 107 111 111 115 110 110 110 112 112
 105 116 123 123 110 126 127 128 128 127 127 126 127 127 128 129 127 124 118 110  80  59  49  54  65  63  58  56  52  49  48  40  36  36  39  40  39  37  35  35  36  35  34  34  35  34  33  34  39  41  46  47  47  45  42  39  38  34  32  30  27  27  23  23  22  24  29  28  30  32  34  37  47  51  56  63  62  62  64  72  78  83  86  92 103 103 110 105  97  96  96  98
 107 120 123 124 113 124 127 128 128 128 129 127 128 127 128 130 127 123 115  90  59  55  59  60  64  60  56  50  49  48  45  40  36  35  36  36  32  33  32  30  31  32  31  33  34  36  38  39  43  49  46  49  49  46  36  28  24  27  26  25  25  20  20  21  19  21  24  26  27  33  37  43  51  59  60  58  54  58  63  69  67  71  79  84  93  96  96  83  75  80  89 105
 110 120 124 125 113 127 128 127 128 129 130 128 130 130 130 128 127 119 100  68  68  56  54  56  55  50  49  51  55  52  47  42  37  34  35  33  30  30  32  31  32  33  34  35  37  36  38  40  42  43  45  54  58  61  52  51  44  33  25  23  26  21  20  22  17  20  24  25  26  31  38  46  54  55  50  48  52  59  61  64  68  75  85  88  95  90  86  76  83 102 113 117
 112 122 126 125 114 128 128 127 130 130 130 131 129 130 130 127 120 107  76  68  53  49  50  54  56  47  50  52  56  55  50  42  37  34  34  32  32  32  33  33  33  34  35  35  38  37  39  39  40  41  46  51  51  54  54  59  47  36  30  25  25  22  17  18  18  22  24  27  27  33  40  47  45  40  41  43  48  52  52  57  76  73  76  86  88  88  88  88  98 104 105 108
 115 125 126 125 115 128 130 128 130 129 130 130 130 126 125 121 112  83  62  52  50  48  50  42  46  49  50  54  54  50  45  39  38  37  38  34  33  33  34  33  33  32  32  34  36  38  41  44  43  48  59  65  61  51  45  37  33  34  31  30  24  23  19  18  20  24  26  26  26  31  38  38  32  32  35  35  40  47  53  61  64  66  70  73  72  73  77  81 101 105 109 115
 118 125 126 126 115 128 129 130 130 131 131 130 128 127 124 119  91  59  48  49  45  45  44  41  44  49  51  61  57  47  39  37  40  37  34  32  31  31  29  32  32  33  35  34  34  34  35  36  38  41  50  53  54  50  42  38  35  30  26  28  25  24  23  26  22  22  24  22  27  29  27  25  25  29  29  33  39  45  46  48  54  64  65  63  58  60  66  80  93 102 108 113
 120 125 128 122 115 126 128 131 130 131 131 131 130 128 128 113  69  52  45  44  40  37  40  42  43  51  59  57  46  34  32  31  28  27  28  29  28  30  32  32  30  31  28  29  30  30  32  33  36  44  48  49  49  46  40  33  28  26  23  22  28  28  29  19  19  20  21  23  24  22  21  22  24  27  28  32  37  37  37  42  48  48  49  53  53  56  65  76  88 101 118 127
 122 126 127 122 120 128 130 129 129 131 131 131 129 130 119  92  58  48  42  38  34  44  47  46  46  51  48  46  38  32  32  31  29  27  28  30  31  31  26  25  25  26  29  31  33  35  38  42  46  50  54  57  50  46  37  29  27  27  23  21  23  23  24  21  19  19  21  21  20  21  23  22  23  26  29  32  37  40  42  47  51  48  48  49  58  66  71  82 100 116 126 130
 123 126 129 115 121 130 131 130 129 131 132 129 129 127 116  88  61  45  36  34  36  41  40  42  44  46  46  44  34  27  27  30  30  30  30  30  26  25  26  27  29  33  34  34  34  34  34  36  42  47  45  42  34  28  26  26  27  28  26  25  24  24  24  24  22  21  23  22  21  22  22  23  24  27  32  36  42  47  50  50  50  48  46  53  77  85  96 104 116 128 135 134
 126 127 128 115 124 131 131 132 129 131 130 132 130 127 119  83  53  37  37  36  34  35  35  34  42  42  41  28  19  19  22  25  28  30  29  29  30  30  29  30  31  33  33  31  33  32  33  32  31  29  29  29  26  26  28  27  28  30  29  28  28  26  28  28  29  26  24  24  24  24  24  25  26  27  30  35  45  56  59  60  53  53  51  56  72 101 114 122 126 133 134 137
 125 127 126 114 126 131 131 130 130 131 130 133 130 126 117  68  42  33  29  29  32  35  34  34  35  34  29  22  18  17  16  19  20  21  22  24  24  25  24  27  28  31  31  28  27  27  25  23  24  24  25  27  27  30  31  33  33  36  35  36  35  34  34  37  42  35  35  33  31  30  29  27  29  30  32  34  39  48  52  52  55  54  54  54  60  83  99 120 129 136 139 142
 126 128 129 109 128 131 131 131 130 131 132 132 131 128 104  60  40  29  27  27  34  33  32  30  30  28  21  18  14  15  16  17  18  17  22  23  24  24  27  28  27  28  27  27  28  27  25  25  26  28  30  31  32  33  36  39  40  43  44  46  48  47  49  51  52  48  49  42  40  35  33  29  30  30  35  38  38  39  41  42  44  49  53  55  59  63  78 107 131 138 142 144
 127 129 131 111 130 131 131 131 131 133 132 133 133 128  90  49  36  26  25  29  32  30  30  29  30  23  17  15  15  17  19  20  22  23  26  25  26  29  29  30  31  30  30  30  30  28  30  29  31  33  34  35  36  38  42  44  46  50  55  53  56  58  62  64  63  64  64  59  53  47  46  36  31  28  29  30  33  38  40  41  41  46  52  50  53  56  64  95 127 140 142 145
 128 129 130 112 129 134 133 132 131 132 133 133 133 126  80  48  36  28  28  31  31  30  29  31  29  20  16  15  18  18  23  25  28  29  30  31  33  33  33  32  33  33  33  33  34  33  33  33  35  35  39  41  43  46  47  48  52  57  61  63  65  67  73  78  78  76  76  74  67  58  54  46  39  30  24  25  28  29  29  33  35  42  52  51  50  56  71  94 124 138 145 146
 128 130 129 113 131 132 132 133 133 133 134 133 132 118  80  47  36  30  29  30  32  37  30  30  28  18  18  19  24  25  28  29  32  35  35  35  36  38  39  36  35  37  35  36  37  39  39  36  40  41  42  44  47  49  51  53  59  64  68  73  74  74  84  85  89  86  86  85  79  70  64  58  50  39  27  25  26  27  27  29  32  39  53  54  49  50  63  96 129 140 144 147
 129 130 131 114 132 133 134 133 134 133 134 135 133 123  89  51  41  32  31  33  38  32  30  29  25  18  23  23  28  30  33  34  36  38  42  42  42  42  41  40  41  42  41  42  41  43  43  44  44  45  46  48  51  52  56  60  65  71  76  79  77  82  90  95  94  94  93  90  88  79  70  70  60  50  36  27  25  26  29  31  32  39  46  52  52  55  63  93 136 145 144 146
 130 133 131 113 131 135 134 134 133 135 134 134 134 128  93  52  43  29  28  29  32  30  32  28  25  22  27  28  30  33  36  41  43  44  47  47  48  46  47  46  46  46  45  47  46  48  49  50  51  51  52  54  56  59  64  70  73  79  83  86  83  87  95  98  99  98  96  94  92  84  77  74  72  61  45  30  27  27  28  31  30  37  42  48  51  54  62  92 133 146 149 150
 131 132 128 115 132 134 133 136 134 137 135 134 135 130  89  52  40  29  26  27  30  31  30  26  24  26  30  33  36  38  41  44  47  49  50  53  53  50  50  51  50  50  51  51  52  53  54  56  55  56  59  60  63  66  71  76  81  86  89  87  87  90  97 103 101 100 100  98  94  89  84  78  76  70  58  37  27  29  28  31  33  35  39  46  54  55  66  98 136 146 151 154
 132 133 126 120 132 135 134 136 136 137 136 136 136 130  80  48  38  27  24  26  28  28  30  24  25  30  34  35  39  42  46  49  52  54  58  58  58  58  56  53  56  57  58  57  58  59  59  61  61  62  62  66  68  69  77  82  88  89  92  90  89  92  99 105 104 106 103 101  98  95  89  83  83  80  67  49  28  26  28  30  32  34  36  46  56  67  75  99 132 148 153 158
 135 140 127 130 136 135 135 136 136 137 136 136 134 125  63  49  37  26  21  26  26  24  29  26  30  33  38  39  44  46  50  55  58  59  60  63  63  64  62  60  62  61  62  63  63  64  65  66  66  66  68  69  72  74  81  86  89  92  94  93  90  93  98 101  94  96 102 103 102 101  94  87  86  86  78  60  34  27  25  28  32  33  35  42  54  69  85 108 133 149 155 159
 140 146 124 148 145 136 136 136 136 137 136 136 135 122  57  47  34  25  23  25  26  24  28  26  31  39  43  44  49  51  54  60  63  65  66  66  66  65  66  66  67  66  66  66  68  67  68  69  69  69  72  73  77  79  83  88  91  94  91  90  90  92  94  99  94  95 104 103 101  98  95  91  88  88  85  70  42  30  27  26  28  31  35  38  49  68  92 115 139 152 156 159
 142 144 123 148 148 142 138 138 138 135 135 136 136 127  59  43  32  23  24  25  24  24  27  27  37  46  47  48  52  56  60  64  64  66  68  69  68  68  67  68  68  70  68  68  68  72  71  72  73  72  74  74  79  81  85  88  88  92  89  89  88  88  89  94  95  96 102 102 102  99  95  90  90  90  89  78  51  32  27  26  27  29  32  38  46  70 101 127 143 154 157 157
 142 144 123 146 148 144 140 137 137 137 138 139 138 133  62  41  30  23  23  22  23  25  26  28  43  52  54  55  58  61  64  66  66  68  67  67  68  68  69  68  70  70  70  69  71  71  74  74  74  74  72  77  78  81  84  84  87  88  86  84  88  87  89  97 101  98  99  99 102 100  96  94  92  95  95  84  62  36  27  26  26  28  32  36  46  71 115 138 146 156 158 159
 143 144 121 146 149 148 142 140 139 141 139 140 138 135  56  39  30  24  22  21  23  24  28  35  53  58  59  61  62  65  66  66  68  68  69  70  73  74  75  73  74  72  70  69  71  73  72  72  72  75  74  78  79  83  83  84  85  88  86  86  90  90  90  93  96  96  98 100  98 100  98  94  94  96  98  90  69  41  29  25  27  28  32  36  46  82 133 149 156 155 158 161
 145 144 125 147 150 151 146 142 140 142 140 140 140 134  54  35  33  26  21  23  23  26  30  40  61  64  67  67  66  65  67  69  71  70  71  73  75  75  75  75  75  69  68  69  72  72  72  73  75  77  79  81  81  83  82  84  85  84  86  85  86  87  90  91  94  94  96  98  99  97  97  97  96  96  99  93  73  44  29  26  27  28  31  39  46  86 143 154 158 160 163 164
 145 144 119 144 150 152 151 144 143 141 141 139 140 135  48  35  38  23  22  24  26  28  32  48  64  70  76  74  72  70  70  72  73  73  72  75  76  76  76  76  74  74  70  72  73  75  75  78  78  81  81  81  82  83  84  84  87  83  86  86  85  86  89  92  94  95  97  98  97  97  98  98  98  97  98  99  80  50  32  28  28  28  31  40  54  97 143 158 160 164 164 166
 147 146 120 146 150 154 154 150 144 142 142 141 142 134  48  39  36  24  22  23  24  29  38  57  72  79  81  80  78  76  73  74  74  73  73  76  78  77  76  76  75  76  74  75  75  77  77  80  81  82  81  83  83  84  84  84  85  87  86  87  88  90  89  92  95  99  98  97  97  97  98  99  99  99 101 100  84  54  33  30  29  29  32  44  68 119 150 160 162 164 165 168
 148 145 124 149 150 152 152 152 148 145 143 142 143 137  56  40  34  24  27  23  27  32  44  60  76  83  86  84  84  81  79  79  78  77  78  77  77  80  81  80  79  79  79  77  77  79  79  79  81  82  83  84  87  87  85  83  84  86  85  90  90  93  96  96  98  99 101 102 102  99 100 101 101 102 104 101  88  55  36  31  31  30  35  48  75 141 158 163 165 164 166 167
 148 142 125 151 151 151 152 153 152 150 145 143 144 136  75  39  33  25  26  26  29  33  44  62  78  86  90  88  91  89  87  85  83  83  81  82  82  82  84  82  81  82  83  81  80  81  81  81  82  82  84  83  87  87  86  85  84  87  89  91  96  97  97  98 101 103 106 107 105 103 105 103 104 106 104 104  87  60  36  31  33  31  37  50  85 143 164 166 168 168 169 169
 146 135 132 150 150 151 150 152 152 150 147 143 143 139  83  38  32  26  26  30  31  34  45  64  79  88  91  93  95  96  94  92  89  88  87  86  84  87  86  85  83  85  87  84  83  81  83  84  83  84  85  86  85  88  86  86  86  88  90  95  99 102 101 102 104 105 107 108 112 110 109 106 107 107 108 107  90  62  39  32  36  35  39  55  94 148 166 168 169 169 169 170
 145 129 137 148 149 148 150 149 150 150 146 145 145 140  89  38  31  28  29  30  32  35  47  70  86  91  93  96 102 102 102 102  97  93  95  92  90  89  89  88  87  87  85  85  84  83  83  85  83  84  86  87  89  90  88  87  88  90  92  95 100 103 105 106 104 106 110 111 114 115 113 111 112 109 111 111  94  62  41  33  39  41  43  59 105 153 167 169 169 168 169 170
 145 115 142 146 147 148 148 147 147 148 147 146 146 139  78  42  31  27  31  31  30  36  49  74  88  93  98 101 104 108 107 107 103 101  99  97  93  92  90  89  87  87  87  84  84  84  86  83  81  84  86  88  89  89  86  88  90  89  94  97  98 102 102 105 107 106 109 112 117 118 117 115 115 115 116 116  98  66  43  36  45  46  45  55 122 160 169 170 169 170 171 174
 145 118 144 146 146 147 147 147 149 148 146 146 146 135  65  40  30  28  29  30  33  37  50  76  90  96 103 108 110 110 111 107 107 101  99  98  95  90  89  87  86  85  85  83  84  83  84  84  82  84  85  88  88  89  89  88  89  88  91  93  97  99  99 100 104 104 108 110 117 119 121 121 121 121 121 119 104  69  46  41  50  50  50  62 143 166 171 170 172 173 173 175
 146 113 145 146 147 147 147 148 148 147 148 147 146 133  61  37  32  29  29  31  32  41  58  81  94 103 111 114 114 116 112 108 103  97  96  92  88  87  88  84  83  82  82  82  85  83  84  84  83  85  84  86  88  87  87  84  86  89  90  90  91  94  95  93  96 102 105 108 112 118 120 121 124 125 125 125 112  74  47  47  50  53  70  84 140 168 172 174 175 173 174 176
 144 117 147 146 149 149 148 148 150 149 148 148 147 137  61  35  33  29  29  32  35  45  67  86  98 108 115 117 118 116 109 104  89  92  91  88  86  85  83  80  81  81  81  83  82  83  82  82  82  83  84  85  86  87  85  84  85  86  88  86  88  89  90  89  92  98 102 106 109 116 119 121 126 127 129 129 120  78  47  50  46  52  90 125 155 171 175 175 175 176 176 178
 147 122 148 149 149 149 149 149 151 149 150 150 148 142  75  34  33  31  29  30  35  53  77  94 103 112 117 117 114 112 105 100  93  89  87  86  84  81  78  78  76  76  78  78  82  82  82  84  82  81  81  84  85  84  86  84  82  83  84  85  83  84  86  86  89  90  97 102 105 110 114 120 127 129 131 132 124  83  42  50  48  56 100 149 170 175 175 178 177 178 178 178
 149 123 148 151 152 152 151 150 150 151 152 152 151 145  90  37  34  31  28  28  39  64  85  99 107 114 114 112 105 102  99  96  89  83  81  80  79  77  76  75  72  74  74  75  78  80  81  82  81  81  80  82  84  84  84  82  82  82  82  82  80  80  82  84  85  86  92  95  99 104 109 114 122 125 130 132 129  85  40  48  52  76 119 163 174 176 176 177 178 179 179 180
 148 123 150 152 152 152 152 152 152 153 153 152 153 149 108  39  32  31  27  27  41  76  94 103 109 115 113  96  86  77  74  70  65  64  65  64  67  70  70  69  69  70  72  73  76  81  81  80  79  78  79  82  81  83  84  81  83  80  78  76  74  74  77  80  80  81  83  85  86  88  90  93 100 105 118 133 133  84  37  44  52  85 148 171 176 177 178 179 181 181 180 181
 147 125 152 153 153 155 153 153 153 155 153 153 152 151 120  36  32  31  27  27  49  84  98 101 105  99  81  64  56  51  47  46  44  44  45  45  49  53  56  58  58  62  65  69  74  81  80  80  78  78  78  80  82  83  81  82  81  78  74  72  69  64  66  67  69  68  68  68  67  65  67  68  73  82  82 108 130  85  38  44  55  88 157 174 179 179 180 180 182 182 182 184
 142 132 154 153 154 154 153 154 154 154 154 155 154 151 124  44  31  32  29  28  53  91  95  89  78  66  59  46  41  37  34  31  33  30  32  31  33  37  40  39  43  50  56  61  68  75  76  80  78  78  76  75  80  80  79  77  77  74  70  67  58  50  48  47  50  51  47  48  48  49  49  52  56  60  61  72  91  75  42  47  63 117 153 173 178 181 184 182 185 184 184 185
 135 139 154 155 156 157 155 156 157 156 157 154 155 151 128  47  32  31  30  29  58  92  87  66  59  51  49  41  34  30  29  29  27  25  24  25  25  27  29  29  34  41  46  52  62  70  73  75  74  75  76  75  77  76  79  74  72  68  64  58  51  42  35  31  32  32  33  34  36  38  39  45  49  56  56  58  68  68  50  47  71 133 166 176 180 181 185 184 185 185 186 187
 129 147 157 157 157 158 157 158 157 156 157 157 158 153 134  58  34  28  30  29  64  91  80  66  59  56  53  49  46  45  42  38  33  30  27  28  26  26  25  26  29  34  42  49  57  65  71  73  72  73  73  75  74  75  76  74  68  66  62  52  42  35  31  28  26  26  28  29  30  33  36  43  51  59  65  69  78  79  61  57  97 142 172 180 182 184 186 186 186 187 187 187
 126 154 158 160 158 158 160 159 159 160 158 159 158 157 149  94  40  32  31  29  67  90  75  77  70  67  66  65  62  61  60  54  52  50  49  44  41  37  34  34  34  36  41  48  55  62  65  68  69  72  70  74  76  77  74  71  68  66  60  53  46  43  35  33  31  33  37  43  47  53  57  64  68  76  84  92  98  98  66  65 128 164 179 183 185 186 186 188 189 188 189 188
 128 159 160 160 161 160 161 160 160 161 162 161 159 159 149 121  50  35  33  33  74  92  90  91  81  72  70  69  68  64  63  60  55  52  51  48  47  47  45  46  47  46  47  51  56  57  60  64  68  70  69  73  74  78  77  70  68  65  63  56  50  48  45  45  46  46  49  52  57  60  66  72  78  87  95 104 109 113  64  74 157 175 184 186 186 186 188 189 190 189 191 191
 120 161 162 161 161 161 162 162 161 161 161 161 162 158 126 103  58  37  35  33  79  96  97  92  85  76  74  66  58  50  47  44  44  40  39  38  36  36  35  38  44  49  50  51  55  55  58  63  68  71  69  74  77  81  79  73  67  64  61  57  51  47  38  37  37  36  37  39  44  49  54  59  68  84 100 113 120 123  62 111 170 179 184 187 187 188 190 189 190 192 190 192
 131 163 162 163 162 161 163 162 162 162 162 161 162 151 106 104  80  45  39  34  89  99  99  94  84  76  66  48  50  47  39  35  32  27  26  26  28  31  34  36  34  40  47  50  52  55  58  63  68  72  75  78  80  83  81  75  70  63  58  53  41  34  32  33  29  25  27  29  37  39  44  51  66  70  89 112 127 138  69 119 170 167 178 187 190 191 191 191 192 192 193 194
 129 162 165 165 163 165 166 165 164 164 164 163 162 133  69  83  87  65  44  46  94 102 101  97  85  73  53  50  48  31  33  42  34  25  24  23  24  29  45  37  36  33  36  45  48  52  56  62  69  74  80  83  82  84  81  76  69  61  53  42  32  34  39  29  24  23  24  31  34  63  58  46  49  76  78 105 130 145  84 111 116  90 162 188 190 193 194 193 194 196 196 196
 129 163 167 165 165 166 166 166 164 165 166 164 164 128  66  61  84  74  47  50  94 103 104  98  87  72  59  45  35  47  55  58  28  24  22  25  25  30  55  56  37  34  34  38  46  51  55  63  70  76  82  87  83  84  83  77  69  59  45  37  34  41  43  26  25  25  26  28  28  57  84  93  54  57  77 101 129 147  96  96 100  82 158 187 192 193 194 196 196 197 198 199
 133 165 167 167 166 168 167 167 167 166 165 168 164 130  66  60  78  80  49  55  98 105 107 101  91  76  55  41  51  64  71  56  30  27  23  24  27  28  50  62  50  35  35  40  43  48  55  62  71  77  82  86  83  81  81  78  67  55  46  38  38  48  47  26  25  21  25  28  31  64  96 105  76  66  68 100 133 147 106  91  97  81 165 191 196 197 198 198 198 201 200 200
 137 166 168 169 168 168 169 168 166 166 167 168 165 148  67  62  93  80  49  64  97 107 108 106  99  84  70  70  66  64  67  66  28  28  24  21  24  28  60  63  49  43  34  39  44  48  56  64  72  79  85  91  88  84  82  79  67  55  44  36  36  40  50  31  25  23  25  32  48  85  96  71  70  79  81 107 139 151 115  94  86  88 178 194 199 198 198 201 203 203 202 201
 147 168 170 168 170 170 169 168 167 168 168 168 166 164  88  68 102  84  46  66  97 103 111 111 108 104  99  89  78  59  58  59  54  31  26  25  25  44  58  47  39  37  37  41  45  50  59  66  73  81  92 100 101  94  87  83  69  58  48  44  40  40  41  40  29  26  28  37  70  77  69  63  89  93 106 126 146 154 123  87  76 103 186 195 200 198 199 200 203 203 203 203
 158 171 172 172 172 172 172 170 170 168 169 168 169 167 131  78  99  74  45  64  98 100 113 115 116 117 112 102  86  71  55  52  53  46  39  38  45  48  48  46  46  46  45  45  48  55  60  66  75  86 102 114 116 106  93  84  76  64  53  50  47  46  44  44  45  47  47  52  61  61  65  82  97 110 132 147 155 158 127  77  74 138 191 196 200 200 200 202 203 205 205 203
 170 174 174 174 174 174 173 172 173 171 169 170 170 169 167  93  90  67  46  67 100 113 114 116 120 122 118 108  95  80  65  58  54  49  50  52  50  50  48  48  47  46  47  50  57  62  65  67  80  98 108 121 129 125 100  87  82  73  62  55  52  50  48  46  50  53  56  57  61  69  79  95 104 123 149 161 161 160 129  73  83 170 194 198 200 200 200 202 202 203 205 204
 176 175 175 175 176 175 174 175 173 172 171 172 171 169 167 128  90  65  43  65 102 110 114 118 122 122 120 113 102  89  72  62  58  55  53  53  50  49  50  52  52  53  54  60  65  67  66  70  87 106 117 126 140 136 114  92  85  79  73  65  60  59  55  52  54  56  57  63  69  76  85  95 111 136 158 169 167 160 131  68 117 190 196 200 200 202 201 200 202 205 205 203
 177 176 176 175 176 176 175 175 174 173 172 173 172 171 170 146  90  64  46  63 102 111 114 119 122 122 121 117 108  96  84  71  64  60  58  55  55  54  56  57  59  60  64  68  69  68  68  75  93 119 125 137 152 147 126  98  87  85  82  76  72  67  65  65  63  64  64  69  72  79  88 102 123 145 164 170 169 161 128  72 164 192 197 199 200 201 201 201 203 204 206 204
 176 175 177 175 176 176 177 176 175 174 174 174 173 172 172 163  98  66  47  65 102 109 115 118 120 121 119 114 109 101  92  81  71  66  65  62  62  62  63  64  66  70  71  70  71  69  70  80 100 124 131 143 157 147 135 112  90  87  85  86  85  77  74  73  71  70  71  78  80  86  97 113 135 153 161 168 168 162 125  73 185 195 199 200 203 201 203 203 205 204 206 205
 174 175 177 175 176 177 176 176 175 174 174 173 173 173 173 168 110  72  47  61 101 109 112 116 116 117 115 112 108 102  93  86  79  70  69  67  66  65  68  70  73  75  75  72  72  71  76  88 106 128 134 144 157 145 137 121 100  91  90  89  91  89  85  80  77  75  77  82  83  92 105 125 142 156 162 167 166 162 125  91 193 195 199 201 202 201 202 203 204 205 205 205
 175 176 178 175 176 177 176 176 175 174 174 175 175 174 174 172 127 107  60  55 100 108 110 113 113 116 113 114 108 104  98  91  83  77  73  72  71  73  75  78  80  75  75  73  71  74  81  97 110 133 138 149 154 146 139 129 110  99  92  90  90  92  90  87  85  84  83  85  89  99 114 130 144 154 160 159 163 161 119 114 192 198 202 202 202 203 202 205 206 206 206 207
 176 177 176 176 175 177 176 176 175 175 175 175 175 175 176 174 160 110  78  56  97 105 107 108 108 109 108 113 109 104 103  97  90  86  84  80  81  83  83  82  78  75  76  75  76  79  89 104 115 134 138 149 161 150 143 137 120 103  96  92  92  93  93  92  92  89  89  91  98 106 119 131 141 146 150 150 156 159 124 150 194 199 201 201 203 203 205 204 204 206 206 206
 177 178 177 176 176 177 177 177 176 176 175 175 174 176 176 174 171 124  93  52  94 106 108 104 105 104 103 103 102 101  99  98  97  93  92  90  87  86  84  82  80  79  78  79  81  86  99 109 119 130 134 145 158 150 146 143 128 111 101  95  92  92  92  95  95  99 101 101 106 115 123 130 133 138 140 143 151 156 129 186 197 200 201 203 204 205 205 206 206 206 207 208
 176 178 177 178 177 178 179 178 178 176 177 176 176 178 177 176 173 147 114  59  92 106 106  98 100  99  99  98  96  97  96  94  92  93  98  96  93  91  87  86  82  82  81  85  86  94 105 113 118 126 132 140 150 151 148 149 136 119 107  96  93  93  92  94  97 102 106 108 110 114 120 125 126 130 137 139 144 154 174 195 198 201 203 204 205 206 205 206 206 207 207 208
 180 180 180 179 178 178 179 177 177 176 177 177 178 180 179 178 175 154 117  99  93 103 105  97  96  94  95  95  91  95  95  97 100 102 105 104 101  95  91  89  85  84  83  86  91 102 112 117 125 131 133 141 149 153 154 152 142 126 111  99  94  95  95  96 102 106 110 118 121 124 121 123 126 128 133 133 132 160 188 197 199 203 204 204 206 206 206 207 208 208 208 208
 179 181 180 180 180 180 180 178 178 178 178 178 179 179 179 177 176 156 112 100  94 103 104  94  92  91  91  93  94  97 100 104 103 104 106 106 104  99  99  94  88  86  85  85  96 105 114 123 133 136 132 141 154 156 155 156 146 133 113 102  97  98  99 103 107 109 116 123 127 133 132 130 129 132 133 133 132 168 195 201 203 205 205 206 207 207 207 208 208 208 209 209
 179 182 179 181 181 182 181 180 179 180 180 180 179 179 178 179 179 171 108  84  88  96 105  98  94  93  90  93  98  98 101 105 107 113 112 109 108 104 101  96  88  85  82  86 101 111 119 131 137 136 134 145 158 156 157 159 154 137 113 100  98 100 102 106 111 117 122 126 134 134 134 138 137 138 132 130 139 173 196 201 205 206 207 208 208 207 209 209 210 209 210 210
 181 183 182 182 182 181 180 180 182 182 181 180 179 180 181 180 180 175 172 140 110  99 103  98  95  92  92  96  99 102 104 107 104 108 107 108 105 108  98  91  86  80  78  90 105 117 127 140 139 136 135 143 159 163 164 164 160 146 124  96  96  98 102 108 115 119 123 130 133 135 136 136 138 140 139 136 145 178 200 205 206 208 207 206 208 208 209 210 210 211 211 211
 181 182 182 182 182 182 183 182 182 181 182 180 181 180 181 181 180 179 179 178 139  97 101 100  97  93  93  98 100 102 104 103 104 105 106 102 102 100  93  86  80  74  78 100 114 123 131 147 147 140 136 143 155 162 165 166 162 155 136 100  89  93 100 107 111 119 124 132 134 134 137 137 139 140 140 140 151 185 203 205 205 208 208 210 210 208 210 209 212 211 210 212
 181 183 183 183 182 183 182 182 181 183 182 181 182 183 181 180 181 181 180 180 155  97 100  98  97  95  98  99 101 103 103 104 103 103 103 100 100  91  89  82  74  69  90 111 125 130 136 143 140 134 135 140 150 155 164 171 166 162 153 113  87  87  96 105 114 119 123 128 135 136 138 138 139 140 140 140 154 189 202 205 206 208 209 209 209 209 211 210 210 211 211 213
 183 183 184 183 184 185 183 183 183 184 182 181 182 183 182 182 183 182 182 180 168  95  96  98  96  98  98 100 101 101 101 102 105 103 101  98  89  76  83  77  71  74 100 115 124 130 133 134 131 126 127 131 139 147 156 161 166 167 161 139  90  86  92 100 109 119 122 125 132 136 138 135 136 140 138 139 166 197 203 206 206 206 207 209 209 211 210 211 211 212 211 213
 184 184 184 184 184 184 184 184 183 184 183 184 184 183 184 183 182 182 181 180 176 100  94  95  96  98  98  99  98 100 101 102 104 102  99  94  90  81  79  74  73  74 103 111 115 121 126 122 118 116 119 124 130 138 143 151 159 166 162 154  97  89  88  98 105 114 123 122 127 135 137 136 135 140 136 141 175 200 205 206 205 208 207 208 209 210 211 210 211 211 212 214
 183 185 185 185 185 186 186 184 184 184 184 184 183 184 185 182 183 183 183 181 177 120  90  92  97  98  99 100  99 101 101 101 103 101  97  92  88  83  77  74  75  76 102 104 104 109 114 114 110 106 110 114 120 128 131 137 147 159 155 148 108  96  92  95 101 107 117 122 123 130 134 138 135 137 137 142 184 202 206 206 207 209 209 209 210 210 212 211 212 212 212 215
 185 184 185 185 185 184 185 184 185 183 185 182 183 183 184 184 184 183 184 183 179 134  91  93  96  98  99  99 100 101 100 100 101 100  96  90  85  81  80  82  82  72  88  91  90  96 100 101 102  98  97 101 105 113 121 127 134 140 134 127 103 103 102  98 100 105 114 123 124 125 132 138 137 139 137 144 187 203 206 206 208 208 209 208 210 210 211 211 212 212 213 214
 185 184 186 185 185 184 186 186 185 185 185 184 185 184 184 185 185 184 183 184 182 162  89  88  94  97 100  99  99  99  97  99  97  97  94  88  86  83  86  92  89  77  75  76  67  68  76  80  85  87  86  87  91  99 106 109 114 110 104 109 109 112 111 103 102 108 116 121 123 124 131 138 140 139 135 154 190 203 207 206 208 209 210 209 211 209 212 212 212 213 214 214
 186 186 185 185 186 186 186 185 185 185 185 185 184 184 184 185 186 185 184 184 183 174  92  87  92  95  98  99  99  98  96  94  95  92  88  88  87  87  94  99  98  89  78  66  57  51  54  67  73  77  77  78  82  85  88  92  81  70  94 115 119 120 120 113 108 108 114 116 122 119 127 135 138 138 137 167 197 206 207 207 207 210 211 210 211 211 213 213 213 214 214 214
 187 187 187 186 187 187 186 186 187 185 186 185 184 184 184 185 186 184 184 185 182 180 114  90  89  92  95  97  96  95  96  94  95  91  94  91  91  95  99 102 101  97  90  85  61  51  52  54  64  69  72  73  75  80  84  78  58  68 106 123 124 125 125 122 114 113 116 117 121 122 128 133 136 135 136 180 203 207 209 208 210 210 210 210 211 211 213 213 214 215 214 215
 187 187 188 187 186 188 186 186 185 185 186 184 184 184 184 185 184 184 183 183 182 181 133  91  88  90  94  95  95  95  93  94  92  94  94  93  96 101 102 102 100  98  95  94  88  63  55  51  54  65  69  72  72  77  71  64  65  82 115 126 128 132 129 127 118 116 116 120 123 124 125 131 133 131 137 191 206 207 208 209 209 210 211 211 213 213 212 212 213 214 215 215
 187 187 187 187 187 186 188 187 187 185 185 185 184 183 184 184 185 184 183 183 182 180 151  95  87  86  93  92  92  92  94  94  95  96  97  96 101 102 103 100  99  96  92  95  98  84  61  50  54  57  61  64  63  65  64  65  72  95 120 127 132 135 133 132 126 122 119 120 122 122 122 128 129 125 146 198 205 207 208 210 211 212 211 211 213 212 214 213 215 214 215 214
 188 188 188 188 188 187 188 188 186 185 185 186 185 184 185 183 183 182 184 185 184 182 170  95  88  86  92  92  89  88  91  91  98  96  92  96 100 102 101  99  96  91  91  92  97  92  78  64  62  62  61  61  62  67  67  70  86 112 126 127 132 133 130 132 128 123 122 123 126 124 122 124 124 121 154 200 207 208 209 208 210 210 210 211 213 212 213 214 214 215 216 215
 188 186 187 189 189 187 188 187 187 187 184 185 185 183 185 184 185 183 183 184 184 182 180 113  87  85  88  91  89  88  88  89  95  96  93  95  96  96  95  95  92  91  92  89  92  90  85  70  65  66  61  58  61  66  68  76  98 119 127 128 129 128 126 123 123 122 120 122 125 122 120 119 118 121 173 203 206 208 210 208 210 210 210 211 212 212 214 213 214 214 214 215
 189 188 187 188 188 188 187 185 186 185 185 185 185 183 183 184 183 183 184 185 184 182 178 135  88  84  86  88  87  87  87  90  94  94  93  92  93  92  92  90  88  89  88  86  84  80  78  69  67  65  60  55  60  67  70  85 104 118 124 128 128 123 122 116 115 117 118 121 123 122 121 117 114 125 186 204 207 208 209 209 210 210 210 212 213 212 214 213 214 215 214 215
 188 188 187 189 188 188 186 185 186 185 185 185 185 184 185 184 184 184 184 184 182 183 181 161  90  81  81  84  85  86  89  89  90  88  90  88  89  87  87  84  87  86  85  83  80  75  74  71  67  63  53  51  58  68  76  88  98 110 117 124 122 116 114 109 107 110 114 120 124 121 118 116 117 132 192 204 207 208 209 209 209 209 209 212 213 212 213 214 213 214 213 214
 189 189 187 188 186 185 185 184 184 186 185 184 184 184 184 184 184 182 184 184 182 183 182 176 101  80  76  79  82  83  85  86  84  84  85  81  80  80  79  73  81  84  84  80  79  79  78  72  66  60  46  43  55  72  89 100 105 107 106 107 105 103 106 106 102 102 103 108 115 115 116 114 116 157 201 205 207 208 208 208 209 210 210 212 212 213 213 214 214 214 213 214
 188 187 188 186 185 186 185 184 185 184 185 185 185 184 185 185 183 184 184 184 183 183 183 181 130  83  74  74  79  82  83  81  81  79  75  74  72  73  71  68  72  74  74  74  76  78  81  79  71  63  48  44  63  85 100 109 111 107 104  97  90  89  96  96  97  99  99 104 108 113 114 111 118 184 203 206 207 208 208 208 210 210 212 210 212 213 214 213 214 214 214 214
 188 188 186 185 186 186 185 185 184 184 185 184 184 184 185 184 183 183 185 183 182 183 171 115  80  83  73  72  76  78  81  77  75  72  68  66  65  64  64  63  64  67  71  72  75  77  79  76  73  70  66  60  76  86  96  98 102 101 101  95  84  84  85  87  90  93  95 101 107 110 114 111 129 199 204 207 208 208 208 209 209 210 211 212 213 213 212 214 215 214 216 216
 188 186 187 185 184 185 185 184 185 184 183 184 185 184 185 184 183 184 182 183 166 119  67  54  68  82  73  70  74  76  76  73  69  67  65  63  62  59  55  54  58  64  71  69  68  66  61  58  60  63  68  69  65  61  66  67  73  81  88  86  78  71  71  76  82  86  88  97 102 107 109 114 163 199 205 207 208 207 208 210 210 210 209 214 214 213 213 214 215 214 215 215
 187 185 186 186 185 184 185 186 185 184 184 184 184 184 184 183 182 184 151 104  68  52  45  46  63  81  74  70  74  75  73  70  67  63  60  57  53  47  41  39  44  52  54  53  49  48  48  48  48  50  52  57  56  55  56  57  59  62  60  58  50  47  56  67  74  79  85  94 103 107 110 116 190 202 206 206 206 208 209 210 209 209 212 213 212 212 212 213 214 214 216 216
 185 186 184 186 184 185 186 185 184 185 184 184 183 182 185 167 127  76  63  60  44  41  39  43  54  81  75  71  70  74  73  69  66  59  55  54  50  41  40  34  32  33  34  33  36  39  45  45  45  44  46  50  49  46  48  50  48  41  38  37  42  50  56  65  72  78  85  94  98 105 107 118 170 199 206 206 208 208 209 210 209 210 213 212 213 213 214 213 214 214 216 216
 184 185 185 186 185 185 184 184 184 183 183 181 183 145  95  62  56  53  51  46  37  36  38  37  52  80  72  71  67  69  68  64  62  54  52  53  51  50  52  46  39  39  35  34  31  30  29  33  33  33  36  38  34  30  34  38  42  44  44  49  55  65  68  71  73  80  85  92  96 102 101  97 117 131 165 193 206 208 209 209 209 210 212 213 212 214 213 214 213 215 216 216
 186 185 185 184 184 186 184 182 182 185 165 113  69  59  54  49  46  46  46  37  36  37  36  35  53  78  67  65  65  66  67  60  57  54  54  56  58  56  59  56  49  46  45  46  44  42  40  38  36  35  37  37  39  42  48  48  47  56  60  64  74  79  77  78  77  77  84  91  97 100  89  60  96 113 115 119 140 179 206 207 210 210 210 212 212 213 214 213 215 214 214 215
 185 185 185 184 184 184 187 164 124  78  60  53  46  45  42  40  41  41  40  33  33  34  35  32  52  75  68  60  64  66  66  61  56  57  57  58  60  61  62  62  60  56  54  54  59  60  54  50  51  47  47  47  50  48  58  59  59  63  72  81  85  86  83  84  80  80  85  89  95  96  83  71  63  98 108 108 110 116 128 164 198 211 209 211 212 214 214 214 214 214 214 216
 185 185 184 184 184 147  94  59  55  48  45  41  39  38  37  37  38  38  36  30  31  33  35  27  55  74  69  61  58  64  62  59  58  57  55  59  61  63  63  63  64  63  61  58  59  62  56  54  56  50  51  51  51  50  60  67  68  70  79  88  85  85  84  84  80  82  86  89  90  87  80  78  62  75  97 104 106 106 109 115 124 156 193 209 210 212 213 213 213 214 215 216
 184 184 173 123  63  53  47  44  41  39  38  36  37  37  35  36  37  37  33  30  32  34  32  25  59  74  70  62  57  56  60  58  57  55  57  58  59  61  62  64  62  62  62  57  58  56  52  52  54  50  50  49  51  52  57  67  70  79  84  87  86  83  83  80  76  81  85  90  86  78  77  76  70  59  84  99 102 101 102 104 106 111 123 141 184 211 213 214 215 214 214 214
 140  93  56  54  46  42  38  38  37  36  35  34  35  36  36  35  36  35  31  28  31  32  33  22  66  73  68  63  56  52  56  59  57  55  53  55  56  56  58  59  60  60  58  57  53  48  49  49  51  49  50  51  52  54  56  63  72  79  81  81  84  83  79  79  79  84  84  86  67  67  73  74  72  57  71  88  97  99 100  98 100 102 108 113 121 133 180 208 212 214 215 214
  55  48  43  40  36  36  35  34  33  33  33  34  32  34  34  35  34  34  30  28  29  31  30  23  68  72  70  64  56  48  50  53  55  52  52  53  53  53  57  57  58  56  54  54  52  53  52  50  49  51  51  51  52  54  61  68  71  74  75  78  78  77  74  77  78  84  84  85  46  59  70  74  72  61  61  79  89  94  97  94  96  98 101 106 108 113 120 133 173 208 213 214
  41  38  37  36  35  35  32  33  33  32  32  31  31  32  33  33  32  31  30  27  29  31  29  30  68  71  68  63  59  49  45  46  50  51  53  52  52  50  51  53  56  57  54  51  49  48  48  48  48  50  54  54  54  60  63  65  69  72  74  74  71  73  74  74  76  76  83 114  56  50  69  69  72  67  57  73  83  90  92  92  95  95  95  99 102 106 110 112 119 131 168 202
  36  35  35  34  33  32  30  30  33  33  31  31  31  31  31  33  33  30  30  28  29  30  29  34  68  68  68  66  64  58  49  42  45  47  51  51  52  52  51  51  52  54  55  53  51  52  50  52  51  54  56  59  60  64  64  67  70  71  71  70  70  70  74  73  72  74  89 127  76  48  67  70  70  70  54  67  80  85  88  90  92  90  92  94  98  99 103 106 111 111 115 128
  33  33  32  32  32  30  30  30  29  30  31  28  30  29  30  33  31  30  28  27  28  27  28  37  65  67  69  66  64  59  53  44  39  41  49  51  52  52  52  50  50  53  53  53  53  52  54  53  55  56  58  59  61  64  65  67  68  71  70  71  71  70  71  73  72  76 116 130  88  46  66  71  69  69  54  63  75  81  85  88  88  87  88  90  93  96 100 101 103 104 106 113
  32  30  31  30  29  29  28  29  30  30  30  29  29  28  30  30  30  29  28  28  27  28  27  35  62  67  68  67  65  60  57  51  41  38  46  50  51  54  53  52  51  53  54  53  56  54  54  55  56  55  58  61  63  62  64  65  69  70  71  73  74  73  73  71  68  99 124 130  95  46  65  67  66  68  54  59  71  79  83  84  84  83  85  86  86  91  92  95 100 102 102 106
  30  30  28  29  29  29  28  29  30  29  27  26  27  29  30  29  29  27  27  26  27  26  30  35  61  65  66  66  63  62  60  55  49  37  39  46  50  53  53  54  52  56  55  56  57  58  56  61  62  59  61  63  63  65  66  68  74  74  73  75  76  72  69  65  86 118 125 128 102  46  63  66  64  63  56  59  66  73  80  84  83  84  82  81  81  85  88  92  94  94  98 101
  30  30  28  29  27  28  28  30  29  29  28  28  27  28  30  28  29  27  28  25  27  28  29  34  59  62  61  62  61  61  59  56  54  45  38  42  46  49  50  52  56  55  57  55  60  56  54  58  62  60  62  65  64  66  69  74  76  75  72  74  78  71  65  78 105 118 124 126 103  45  62  63  64  64  55  60  69  74  78  80  84  83  82  81  81  82  84  85  88  91  93  94
  29  29  30  28  27  28  29  28  28  25  29  27  26  27  26  28  29  28  26  24  27  27  27  29  56  59  62  61  61  61  58  56  55  51  46  39  43  48  49  51  54  56  58  56  58  60  59  55  57  61  63  67  66  69  71  73  77  77  71  72  72  64  66  96 107 115 121 125 102  52  63  65  63  63  56  60  70  73  75  78  82  80  80  79  81  79  81  83  84  85  88  91
  28  27  28  28  28  28  29  29  28  28  29  27  26  28  25  27  28  27  27  24  26  24  26  27  51  56  61  61  59  60  60  57  52  51  50  43  38  43  48  49  50  54  54  55  58  60  58  56  58  63  65  66  66  70  71  72  74  75  71  70  66  67  86 100 107 112 116 120  91  52  62  64  61  60  56  60  68  72  77  78  80  78  80  76  79  78  82  82  83  82  82  88
  28  26  26  27  26  29  28  27  28  28  27  27  28  28  25  27  27  26  25  25  23  23  25  24  44  54  59  58  57  57  58  57  54  54  51  48  45  38  41  44  47  50  50  54  55  56  56  56  59  61  60  64  66  68  70  72  74  72  66  65  66  81  91  99 103 108 111 114  82  54  62  60  61  60  57  61  69  70  74  77  78  77  78  77  77  77  81  80  81  78  78  84
  26  25  27  26  26  27  27  28  26  26  27  28  26  27  28  28  27  28  26  25  23  22  23  23  35  53  54  58  58  56  55  54  55  55  50  51  47  45  39  39  40  43  47  50  53  55  54  59  61  61  59  64  65  68  70  70  69  63  61  64  75  85  90  98 100 102 105 108  74  60  61  59  59  61  60  63  68  69  73  74  77  78  78  78  78  77  74  76  76  75  77  82
  25  25  26  25  25  25  26  23  26  25  26  26  25  26  24  26  28  28  27  24  23  23  23  21  25  44  50  54  55  54  55  55  54  53  53  53  51  48  47  43  38  39  44  47  49  53  53  60  58  60  61  64  62  66  65  64  59  56  62  71  77  83  88  93  93  92 103  97  58  61  59  60  59  59  61  69  68  68  71  74  74  77  75  75  77  76  72  73  74  77  76  80
  25  25  27  25  24  26  26  24  28  27  26  26  27  25  25  26  26  27  27  25  22  22  24  22  24  32  47  50  52  53  54  54  53  53  54  53  53  49  49  48  46  43  39  40  44  45  49  54  56  57  57  59  54  58  57  54  56  65  69  73  76  80  86  87  86  89  91  75  59  59  58  59  58  57  62  66  70  71  74  74  74  72  74  75  76  75  70  72  73  73  74  76
  24  25  24  24  24  26  24  26  26  26  25  24  25  24  26  27  26  26  22  21  22  22  24  22  22  23  37  47  48  53  53  54  55  53  54  54  53  52  50  52  49  49  49  48  43  42  44  47  47  50  50  53  54  55  58  64  65  70  71  73  76  79  82  81  81  86  78  58  56  56  56  54  56  57  63  67  73  71  75  75  75  72  73  72  75  76  75  73  71  72  72  72
  22  24  24  24  23  24  24  25  26  25  24  26  24  24  23  23  24  20  22  24  25  21  23  22  21  22  23  39  47  50  51  53  53  53  55  54  53  50  50  52  52  54  51  52  52  51  52  52  54  55  58  60  61  64  65  69  70  69  71  71  74  76  76  75  76  72  58  53  54  53  54  53  54  59  65  68  72  72  76  75  73  72  72  70  73  74  74  73  74  75  71  69
  22  23  26  24  22  23  24  25  25  25  24  25  24  25  23  22  20  21  25  27  24  21  22  22  21  20  23  24  39  48  50  53  53  54  54  55  54  52  53  53  54  55  54  55  56  57  59  59  60  61  63  65  65  66  66  68  70  70  70  71  74  72  71  71  66  52  50  52  50  52  52  53  54  62  68  69  70  73  73  71  71  74  74  72  71  72  72  71  71  72  71  69
  24  25  24  23  22  26  24  23  24  24  24  24  22  24  22  21  23  26  26  25  24  23  21  21  20  21  22  22  23  42  49  52  53  52  55  55  54  55  53  54  55  55  55  56  59  61  60  62  63  62  65  64  66  66  67  69  69  71  70  73  71  71  67  60  50  50  48  49  51  50  52  54  52  57  67  69  72  70  72  71  72  74  74  71  70  70  69  71  69  67  71  72
  23  24  24  22  22  23  24  23  23  23  24  23  22  22  21  22  26  24  24  26  24  23  20  21  23  21  21  22  25  24  38  49  50  51  53  55  53  53  53  52  52  55  57  55  58  60  62  59  62  62  63  64  65  67  69  69  71  72  70  69  69  62  54  42  47  47  47  50  50  50  51  52  69  55  53  64  67  71  71  70  71  73  74  72  69  70  68  70  70  68  68  69
