P2
# Generated by OpenCV 3.4.0
92 112
255
  81  99 107 109 102 106 110 111 111 113 111 110 113 112 114 112 114 113 114 115 114 115 114 115 116 116 114 114 113 115 115 115 115 115 115 116 117 115 112 110 106  94  84  76  76  70  68  71  73  70  74  75  75  77  82  92 101 106 110 111 113 112 112 109 109 111 113 115 116 118 119 119 121 119 119 119 118 118 119 117 117 115 116 117 116 118 120 120 120 119 122 118
  89 101 108 109  99 108 110 112 111 111 113 111 113 113 114 112 113 113 114 114 115 114 114 115 116 116 116 116 115 117 116 116 116 116 116 116 114 109  97  77  63  53  48  50  48  49  50  51  51  54  58  64  64  66  69  69  73  80  90  95 102 105 106 109 105 100 106 114 114 117 117 119 120 119 121 120 123 119 120 118 117 119 118 117 114 117 119 120 120 119 120 120
  90 103 108 110  99 110 112 113 112 111 111 112 112 114 114 114 114 114 114 115 116 114 116 114 114 116 116 115 115 116 116 115 115 115 109 100  80  64  54  50  46  45  41  43  43  42  46  50  55  57  63  67  64  65  65  66  67  68  66  68  77  80  85  87  91  93  85  99 108 113 113 112 115 118 120 120 120 119 120 118 117 118 118 116 111 116 120 121 121 121 123 121
  92 103 108 110  99 111 112 113 113 113 112 113 113 114 114 114 115 115 115 115 115 116 116 117 116 116 116 116 115 116 116 114 109  92  75  65  52  47  46  44  41  40  39  38  40  41  45  47  52  59  63  67  64  61  59  63  58  53  52  59  64  72  77  73  70  66  67  67  76  84 100 107 108 112 116 115 116 118 117 119 116 118 117 114 109 116 119 119 123 121 122 122
  96 106 110 109 100 112 113 114 113 113 113 113 114 115 114 115 114 114 115 115 117 116 115 116 116 116 117 116 115 114 115 104  77  58  54  52  49  42  41  40  39  38  39  40  42  45  48  49  51  56  62  67  68  64  51  47  45  45  43  43  45  51  54  59  62  61  55  51  51  54  63  84  97  92 100 105 112 115 115 115 114 117 117 112 108 115 119 123 122 122 123 122
  98 108 109 110 100 114 113 112 112 114 114 113 114 115 114 115 115 115 115 114 116 116 116 115 114 116 115 114 113 108  97  67  53  50  49  46  44  46  43  44  43  42  42  43  43  46  45  46  50  57  60  57  58  58  55  61  59  63  61  57  56  45  40  43  46  51  52  50  45  45  46  59  75  80  71  84  98 106 113 111 112 118 115 105 107 117 122 125 124 124 122 122
 100 108 109 109 100 113 113 114 113 114 112 113 114 114 115 115 115 115 116 115 116 116 116 115 115 114 110 106 100  83  64  57  49  48  46  46  43  42  43  41  42  42  40  41  40  39  35  35  35  35  38  38  42  44  47  48  52  60  63  65  64  62  66  67  62  56  45  39  39  40  39  44  51  63  65  59  66  90  99 105 111 114 105 104 110 121 123 124 125 122 122 123
 103 110 112 109 101 112 114 113 115 115 115 115 114 113 114 114 114 116 116 116 116 116 115 113 112 109 104  94  74  59  57  58  52  48  45  42  38  38  41  40  38  39  37  35  39  37  36  38  41  41  40  44  47  46  46  45  45  43  45  51  59  63  57  60  59  51  44  36  31  33  35  38  40  50  62  57  44  57  87  96 103  96 103 109 114 121 122 124 125 121 118 116
 104 108 113 108 104 112 114 114 115 115 115 115 116 116 116 115 116 117 115 115 117 117 114 113 113 110  96  76  64  59  53  49  47  40  42  41  40  42  41  42  40  38  34  34  33  34  35  39  42  40  44  47  47  46  42  46  51  48  44  47  55  62  63  56  49  38  33  36  32  31  31  32  33  39  51  51  40  43  60  83  88  92 106 111 118 117 118 121 115 110 110 114
 107 110 112 108 105 113 114 114 115 115 115 115 115 116 116 117 117 116 116 118 117 117 116 115 108  92  71  65  62  51  44  45  43  48  47  46  42  40  37  36  34  34  33  32  30  31  33  37  42  40  38  40  43  45  42  44  46  46  47  47  45  44  40  35  35  36  31  26  26  29  28  28  29  32  36  38  40  46  49  61  81  89  98 105 111 114 117 109  96 111 118 118
 108 111 112 102 108 113 114 114 114 115 116 114 116 116 116 116 116 116 117 117 117 118 114 107  89  68  63  63  56  51  52  49  47  43  42  40  38  35  35  36  36  35  32  29  30  31  30  32  34  33  34  35  35  36  34  34  35  39  42  44  42  44  38  31  26  24  26  27  24  24  23  23  25  29  30  32  42  48  51  52  68  75  81  86  95  98 106 103 105 116 121 118
 110 113 114  98 109 114 115 114 115 114 115 115 116 117 117 116 117 117 116 118 117 117 111  99  76  62  63  55  52  51  53  50  46  43  41  36  36  41  42  37  36  34  32  30  29  30  30  33  35  35  35  34  33  34  33  34  41  45  50  48  54  52  48  39  27  22  22  22  25  22  20  20  24  26  31  36  42  46  50  56  63  69  77  89 110 109  98  87  97 106 111 106
 111 111 113  98 111 114 116 117 116 116 116 116 116 116 116 117 117 117 117 118 115 114 106  82  63  60  52  47  47  47  49  50  47  44  36  39  46  45  38  35  32  30  29  29  27  30  30  30  32  33  35  35  34  35  37  39  45  50  53  49  48  47  51  53  43  35  25  20  22  22  19  19  22  27  31  36  40  48  53  60  64  71  79  86  98  99  86  80  80  78  79  93
 112 111 114  97 112 115 116 117 117 117 116 116 118 116 116 117 117 120 119 119 118 110  89  64  61  53  45  48  45  46  47  44  41  40  40  37  38  42  43  37  32  28  25  25  24  27  29  29  28  29  30  32  34  34  35  39  48  50  54  58  52  48  42  36  31  28  27  24  21  23  17  18  23  28  30  35  41  47  52  53  59  70  77  79  88  89  83  71  70  73  79  96
 111 113 114  98 113 116 115 116 116 118 116 116 117 116 117 118 118 120 120 118 115 101  72  59  52  48  45  44  38  38  38  34  41  42  42  44  45  45  42  33  28  25  21  23  22  20  21  22  25  28  28  30  31  34  35  35  34  34  37  43  43  40  35  36  33  27  24  22  23  23  20  20  25  29  31  34  40  45  42  48  57  65  72  82  83  79  72  72  80  94 104 115
 112 112 112  98 115 115 116 116 115 116 117 118 118 117 118 120 120 120 118 117 113  79  57  53  49  50  47  34  29  32  33  36  39  39  44  48  48  46  36  31  27  22  20  22  23  22  21  21  23  24  25  25  24  26  27  30  34  40  47  60  65  59  50  35  30  25  20  18  18  18  20  18  24  24  29  33  34  34  37  44  52  65  73  74  71  78  82  81  83  87  97 114
 114 116 113  98 113 117 116 117 117 117 118 118 119 121 121 119 120 120 120 114  92  64  53  48  52  50  36  29  26  28  32  33  34  38  41  42  41  41  36  31  19  16  16  16  20  23  23  24  23  23  22  24  25  33  33  38  41  44  48  50  44  40  35  28  25  23  19  19  16  18  19  17  21  24  26  26  28  32  36  43  50  53  59  62  56  61  73  86  88  92 100 102
 114 116 114  99 116 118 118 117 118 118 120 119 119 120 120 119 119 120 118 100  66  58  44  45  51  40  30  24  20  24  25  28  31  33  31  29  34  35  33  18  15  14  14  15  16  19  21  21  22  23  24  26  25  31  32  33  34  40  44  40  35  31  26  24  22  21  23  20  21  17  17  19  20  21  24  24  27  32  38  40  43  44  46  49  53  57  65  78  92  99 105 118
 115 116 113 101 116 117 118 118 119 119 120 120 120 119 119 121 120 118 114  77  56  52  43  48  41  31  27  18  17  21  24  26  28  26  22  29  31  29  22  15  15  15  15  15  16  18  17  18  18  19  19  22  24  23  24  26  28  28  24  24  27  27  26  27  27  26  26  24  24  22  21  20  20  21  24  24  27  32  42  46  46  43  49  54  63  68  72  91 105 117 126 128
 116 115 113 101 117 118 118 120 119 119 120 120 119 121 121 120 120 118  98  61  48  48  46  48  34  28  24  18  18  23  24  24  24  21  23  27  28  26  17  18  17  17  19  18  18  21  22  22  23  23  22  25  25  25  26  23  22  24  23  27  29  30  31  33  34  36  37  33  32  34  32  27  27  27  29  31  31  34  43  49  49  47  52  70  82  93  93 109 121 128 132 133
 115 116 110 106 118 118 119 119 120 120 119 121 120 122 119 121 120 116  86  54  46  43  46  42  31  28  25  19  20  23  24  23  21  21  24  25  27  22  19  18  19  22  22  23  24  26  26  27  29  29  29  30  29  28  28  27  26  28  30  32  33  34  36  40  44  48  54  52  52  55  48  42  35  29  30  32  36  34  38  45  46  47  50  56  81 107 111 122 127 128 134 140
 119 124 109 115 121 120 120 120 120 122 119 120 122 122 122 122 122 118  92  48  44  43  45  41  32  29  27  22  21  23  24  22  22  21  22  25  22  23  21  22  24  26  27  28  30  32  31  31  34  32  31  31  30  31  32  31  32  32  34  37  38  42  44  46  54  63  69  67  67  72  70  64  52  40  31  28  29  29  32  37  38  40  46  49  60  89 116 121 131 136 138 140
 123 129 112 131 128 122 121 121 121 121 121 121 122 122 122 122 122 120  82  42  38  38  38  41  36  30  22  18  20  20  23  23  21  22  24  24  23  24  24  27  29  28  33  35  36  37  38  37  36  36  36  34  34  34  34  36  36  39  40  42  44  47  50  56  66  79  85  80  77  84  92  79  71  56  38  26  23  23  27  31  35  41  42  48  59  71 116 131 135 139 139 141
 126 129 106 132 131 124 123 122 121 121 122 122 122 121 121 122 122 119  83  42  34  33  37  40  38  28  20  16  17  18  22  21  22  23  25  24  25  25  28  32  32  35  38  40  41  43  43  43  44  43  39  40  39  40  41  41  43  44  45  46  50  52  60  67  78  90  97  90  86  90  99  95  84  72  55  30  24  21  24  28  34  39  39  44  70  90 113 132 136 139 139 142
 125 128 105 131 131 127 124 122 122 122 122 124 123 122 123 122 122 121  86  39  31  33  36  41  34  27  18  14  16  18  20  19  19  22  26  27  28  31  32  36  37  40  43  46  47  48  48  49  49  45  44  46  46  46  46  48  49  49  50  51  55  62  67  78  87  99 105 100  89  92  99 101  94  85  70  45  27  23  25  29  36  38  42  42  57 101 127 136 139 139 140 144
 127 129 107 129 131 131 125 123 123 123 123 122 122 123 123 123 122 121  81  38  31  32  33  34  30  25  16  15  18  19  18  16  21  25  28  32  32  35  36  40  41  45  48  50  51  54  52  52  52  49  50  51  52  51  54  53  54  57  57  58  62  68  73  85  95 102 107 105  95  92  99 104 104  95  80  62  32  24  26  29  34  39  43  45  57 101 133 139 140 142 141 143
 130 130 106 129 132 136 131 127 125 123 124 123 124 124 124 123 124 121  71  36  29  31  29  29  28  21  16  17  17  18  19  19  21  27  33  37  39  40  41  43  48  49  51  53  56  57  56  57  57  55  56  56  56  58  58  59  60  61  63  63  68  72  81  87  96 105 107 105  96  98  98 105 106 101  90  76  43  26  25  30  33  37  42  47  60 115 138 141 143 143 145 145
 131 128 104 129 133 134 135 130 126 124 123 123 123 125 125 124 124 120  65  33  29  28  26  26  25  20  18  18  17  17  18  20  24  30  38  42  45  45  45  50  51  53  56  59  58  60  58  60  59  59  59  58  59  60  60  63  62  65  66  67  70  77  83  91  99 104 107 104  96  96  94 100 106 106  98  85  59  28  25  28  32  40  47  51  67 116 138 143 143 145 145 147
 131 130 109 132 134 135 136 133 127 126 126 123 124 125 126 125 126 121  61  33  27  25  24  26  24  20  18  16  17  18  21  22  27  36  47  49  52  51  53  52  56  58  58  57  58  60  60  60  61  60  60  60  59  61  61  64  64  67  67  68  72  77  84  92  96 101 102  99  93  92  92  98 106 105 102  92  76  29  25  26  31  37  52  68  84 123 142 146 144 146 147 148
 132 129 109 133 134 133 136 134 132 128 125 125 127 127 126 126 126 121  62  32  27  25  23  26  24  21  16  17  18  21  21  24  32  47  57  56  57  55  56  56  58  58  59  60  60  61  62  63  63  61  60  59  59  60  62  63  62  65  68  69  74  79  84  89  92  97  96  93  90  90  98  98 100 106 104  96  89  43  27  26  29  33  48  78 108 134 143 147 147 147 147 149
 131 126 109 135 132 133 134 135 134 131 129 128 127 127 127 128 126 123  60  33  25  24  24  27  26  19  17  17  20  22  23  28  39  55  56  61  63  62  61  60  60  60  61  62  62  62  64  65  65  65  64  62  60  60  63  64  65  68  71  73  76  78  84  87  90  91  96  92  91  91  92  96  99 103 103  99  95  57  29  25  28  33  44  96 123 141 145 148 148 149 151 152
 131 120 116 132 134 133 134 135 135 134 130 128 129 128 127 128 129 124  58  32  22  23  24  27  22  17  18  18  19  21  26  34  47  57  61  67  68  67  67  66  64  62  61  64  64  64  66  64  65  66  64  64  62  63  67  67  69  68  71  73  78  81  82  85  90  90  89  88  88  88  90  92  95 101 103  99  98  71  33  27  30  33  47  91 136 146 149 148 152 152 152 152
 130 111 121 131 132 131 132 132 132 132 130 129 128 128 128 129 126 124  51  29  20  23  24  24  19  18  20  18  21  24  30  38  50  60  68  74  76  74  70  72  68  65  66  65  65  64  66  65  64  67  66  66  66  66  67  68  70  73  74  76  81  84  87  87  88  89  90  89  87  88  89  91  94  97 103 102 100  80  36  28  30  37  51 101 139 149 152 151 153 152 153 154
 130  99 123 131 131 130 131 130 131 131 131 130 128 128 128 131 129 125  44  28  20  22  22  22  19  18  18  21  23  26  32  40  52  62  72  78  79  75  75  76  72  73  71  65  67  66  66  66  67  66  67  66  68  70  70  70  72  74  75  79  82  86  87  88  87  88  90  89  91  90  89  94  96  99 104 103 103  88  40  30  31  43  71 116 144 150 153 153 154 153 155 156
 129 102 129 129 130 131 130 131 128 130 131 130 130 130 131 129 130 121  43  27  23  22  21  21  20  20  19  22  25  27  32  41  54  67  74  78  79  79  78  79  78  79  77  73  69  70  69  70  69  68  68  69  69  70  71  75  76  78  79  83  85  88  89  90  88  88  92  95  94  95  94  97 101 105 106 105 107  95  45  32  32  50  94 138 148 154 155 154 156 156 156 157
 126 101 128 129 130 130 131 132 131 131 131 131 132 131 132 132 130 112  37  28  26  24  21  20  20  19  21  23  26  27  33  42  58  71  79  79  81  82  82  84  84  85  84  81  79  76  73  70  70  70  70  69  71  71  75  76  78  81  79  85  88  89  89  88  89  93  98 101 100  98 101 103 105 109 110 111 111  99  46  36  34  65 128 148 154 154 155 156 155 158 157 158
 129 100 129 131 131 132 131 131 132 131 132 131 132 131 131 131 129  88  33  31  29  24  21  20  20  19  22  26  27  29  34  46  62  73  78  83  85  86  89  89  90  89  87  85  81  80  77  75  72  72  72  72  72  73  76  78  82  81  79  85  89  92  91  90  93  98 102 104 106 105 106 108 112 116 118 118 115 102  51  39  42  69 142 154 156 156 158 157 157 158 159 159
 131 105 131 131 131 133 133 131 133 133 132 133 132 133 132 132 128  67  32  30  27  23  21  21  21  22  23  25  27  31  40  51  70  79  81  90  89  94  97  96  95  90  86  84  81  79  76  74  73  71  71  70  72  74  76  79  82  82  81  86  89  93  92  91  96  99 102 104 106 108 110 111 115 119 124 122 120 106  52  45  53  98 148 155 157 158 158 158 158 158 161 160
 132 109 133 134 133 133 134 134 135 133 134 134 133 134 134 133 128  62  32  27  25  22  18  19  20  22  23  26  30  37  48  61  74  80  86  95  99 102 102 100  95  90  85  74  77  74  73  72  70  68  68  68  70  73  76  79  82  81  80  84  87  90  89  90  92  92  97 101 102 104 106 109 115 122 125 127 123 106  54  54  87 127 153 157 158 159 162 160 162 163 162 164
 132 103 134 135 135 135 136 134 135 135 136 134 134 135 134 134 129  68  32  24  21  21  20  21  20  21  24  29  37  46  59  70  80  84  91  99 102 103 102  97  91  87  82  76  73  72  70  70  67  66  66  67  67  69  72  75  81  80  78  82  82  86  87  86  87  88  93  93  95  98 101 107 110 118 124 129 128 108  59  65 115 146 155 159 159 160 162 163 164 163 163 165
 131 108 134 136 136 137 136 138 136 135 137 135 136 136 135 135 130  63  32  24  20  23  21  21  19  19  26  33  44  56  67  79  83  91  97 100 101  98  92  85  80  80  76  70  66  66  66  64  64  62  61  63  64  67  70  73  75  77  77  77  79  83  85  83  81  83  86  87  87  94  95 100 107 114 120 127 129 111  59  80 130 155 160 158 161 162 164 163 164 164 165 166
 126 118 137 137 136 136 137 137 137 136 137 137 136 136 137 136 133  57  31  24  19  21  21  23  19  20  26  39  56  69  77  83  87  95  99 100 102  85  69  58  52  52  51  50  48  49  52  55  58  59  57  59  61  63  66  70  73  74  72  76  79  82  82  80  76  76  80  81  81  85  89  95 102 108 115 123 127 110  69 114 144 158 162 162 163 165 165 166 166 167 166 168
 120 121 138 138 138 138 137 138 139 140 139 138 137 138 138 139 134  50  27  22  19  19  18  22  20  20  30  52  68  77  81  87  89  91  87  82  67  50  45  37  32  32  31  30  32  33  34  38  43  44  46  49  54  59  64  69  71  70  72  72  73  77  78  76  75  73  72  71  72  79  83  85  88  96 101 108 114 113  85 144 158 164 164 164 166 165 168 167 167 169 168 170
 111 127 139 138 140 141 140 139 138 139 139 139 140 139 140 138 120  38  27  22  20  19  20  22  20  21  33  62  74  80  82  85  87  72  60  50  42  37  30  28  26  24  23  23  25  24  25  25  28  31  33  40  47  53  60  67  68  68  69  69  71  73  70  73  71  68  65  63  55  59  64  68  70  70  72  76  84  97 116 153 162 164 165 165 165 167 168 168 168 169 170 170
 110 135 139 141 141 140 141 141 141 140 141 141 142 141 141 137  93  41  30  23  19  18  20  22  21  22  40  69  77  79  83  85  71  57  48  42  40  38  36  35  33  28  27  25  26  24  24  24  24  25  27  33  41  49  57  64  66  66  66  68  70  70  68  68  64  63  57  47  42  40  40  42  48  51  53  54  57  66  95 151 163 166 167 167 167 167 168 169 169 172 171 171
 107 140 141 141 141 141 143 142 142 143 142 142 142 142 142 140 107  52  31  22  18  17  18  22  23  24  48  74  81  82  85  77  65  55  52  50  51  50  48  48  47  43  43  40  39  36  32  29  29  30  28  32  41  48  56  61  62  63  65  64  66  69  69  67  62  58  50  39  31  29  27  28  30  35  37  43  50  56  57 103 160 166 169 169 170 170 170 170 172 173 173 172
 108 142 143 143 144 143 143 144 141 143 143 143 142 143 143 136 114  94  30  25  19  16  21  23  23  25  59  77  83  82  82  75  70  62  56  55  55  57  57  58  54  53  51  50  48  47  44  41  40  40  39  41  44  49  54  57  59  62  62  63  66  68  68  64  61  56  48  40  33  29  26  30  31  36  43  50  57  66  69 100 154 169 170 170 170 172 171 171 171 174 174 172
 108 144 143 145 143 144 145 145 143 144 144 144 144 143 142 119  98  91  57  30  22  20  25  25  24  29  66  80  84  86  84  79  72  65  60  59  60  60  59  57  58  55  53  53  51  49  46  43  43  42  42  44  45  47  51  54  55  60  61  62  65  69  68  63  60  56  50  45  42  43  45  48  51  55  60  67  78  86  98 122 162 169 170 172 171 172 172 173 174 175 176 178
 107 144 146 145 147 146 148 145 145 146 146 145 145 143 141  73  54  60  72  50  31  25  30  26  25  33  69  83  87  90  85  76  68  63  61  58  56  51  49  48  46  45  44  44  41  41  40  42  43  43  42  42  43  46  48  51  55  59  61  64  68  71  70  62  58  53  49  47  45  48  50  54  59  64  69  79  91 101 124 151 167 169 172 172 172 173 175 175 176 176 178 178
 110 146 145 146 146 148 147 148 146 146 146 147 147 145 126  59  49  52  65  63  39  30  33  29  28  40  76  84  88  89  84  78  70  61  54  46  42  43  44  47  48  48  47  46  45  42  39  36  34  36  40  41  41  43  47  50  55  60  64  69  70  70  70  61  53  48  43  38  37  43  46  50  56  66  73  84 102 116 146 166 170 171 172 174 176 177 176 178 178 177 179 180
 118 147 148 149 147 148 149 148 148 148 148 147 146 146 120  59  48  59  65  65  56  37  33  30  30  47  78  86  93  94  92  85  75  63  52  44  44  50  47  44  40  38  36  38  37  37  38  38  34  31  33  37  40  45  47  51  56  61  67  70  71  72  69  55  46  34  30  31  34  39  42  47  51  54  64  81 108 140 162 171 172 175 175 177 178 179 179 179 181 180 183 183
 122 148 150 150 150 149 151 148 149 148 148 147 147 146 121  59  50  78  84  70  65  52  40  35  32  55  81  89  95  98  97  93  84  69  54  44  34  31  32  30  24  22  20  19  22  30  34  31  30  31  31  33  36  43  46  50  58  64  71  76  72  71  66  49  35  29  26  24  26  28  30  40  50  59  74  90 109 150 170 173 174 175 176 178 178 181 182 181 184 185 184 184
 129 151 151 153 152 152 151 149 148 151 148 149 148 148 139  60  55  90  89  83  66  65  46  34  32  58  78  86  92  99 100  99  90  82  79  69  48  35  30  28  24  22  17  18  23  30  46  40  29  27  28  33  36  41  47  52  58  67  79  97  87  73  63  44  30  29  22  17  20  19  23  28  39  45  55  83 110 150 171 174 174 176 177 180 180 182 182 183 184 185 185 186
 141 153 153 154 153 154 153 151 151 151 151 150 150 151 146  90  62  89  77  62  49  57  51  32  34  60  81  90  87  98 101 104 104 103  93  79  64  50  42  35  29  23  19  20  23  35  47  37  31  29  29  34  37  43  50  55  61  76  98 125 124  91  66  41  29  26  20  18  18  23  30  42  68  54  50  63 112 153 170 175 176 176 178 179 182 184 183 184 185 184 186 187
 151 154 156 155 155 157 156 154 152 153 152 152 152 152 150 130  65  85  64  54  46  48  63  32  35  64  82  91 102 100 103 106 106 104  96  84  76  68  58  47  39  36  34  32  34  37  38  37  38  39  36  37  42  49  52  55  64  85 112 142 151 120  77  50  38  33  28  24  21  24  29  45  52  46  69  70 107 155 172 175 177 177 178 181 181 184 183 184 185 186 185 185
 154 156 156 157 157 158 156 156 155 153 153 152 152 152 152 147  81  83  60  50  47  56  61  33  37  64  82  92  98 101 103 103 104 103  98  91  79  69  57  51  48  44  42  41  43  42  40  40  38  37  39  45  49  53  54  54  67  92 118 142 161 144  85  62  42  33  34  35  36  39  42  45  51  66  86 108 122 156 173 177 178 178 179 181 184 184 183 184 185 186 185 186
 158 156 157 157 158 158 158 157 155 155 154 153 153 153 152 150 107  83  58  50  54  90  67  34  39  67  82  92  98 101 103 105 105 106 102  92  76  69  62  51  48  47  46  43  40  39  40  41  44  47  52  55  56  55  54  57  71 101 126 146 165 155 111  73  59  44  38  36  41  46  51  56  66  79  91 124 149 160 173 178 178 178 180 181 181 182 183 184 185 185 185 186
 158 158 159 159 160 158 158 155 156 156 156 155 153 153 154 153 126  90  59  49  58  87  63  36  42  71  84  94  98  99 101 103 106 106 104 103  93  86  79  66  54  48  45  44  43  46  51  54  56  59  59  60  59  58  57  59  69  99 129 148 171 159 132  82  73  65  56  47  46  45  48  54  60  73 100 128 152 162 172 177 178 178 180 180 182 183 185 185 186 186 186 185
 156 159 158 159 158 156 159 156 156 157 156 155 153 154 155 154 145  98  77  72  72  67  61  40  43  69  85  92  98  98  99 100 103 103 108 107 102 101  93  90  82  72  64  61  61  62  65  66  66  64  60  60  59  58  60  62  71  95 121 144 163 157 142  96  79  75  70  63  59  57  57  61  73  98 124 144 156 161 170 177 179 179 181 182 183 184 184 185 186 187 186 186
 156 160 160 159 159 158 158 159 157 157 156 157 155 154 155 154 152 104  88 115  92  69  62  44  44  65  85  89  95  96  97  97  98 101 105 106 103  98  95  89  85  82  75  70  68  67  69  69  65  66  62  62  59  60  61  63  76  94 115 139 159 155 144 116  87  79  75  75  73  72  76  86  98 120 141 154 156 156 169 176 182 183 183 183 184 184 185 186 185 186 187 187
 158 158 159 157 158 159 158 159 158 159 157 159 158 157 156 155 154 130  86 101  94  99  79  43  42  66  85  91  94  96  92  94  97 100 101 105 105 101 100  98  94  89  84  81  74  73  70  68  67  67  64  62  62  63  65  69  81  94 114 133 157 153 145 130 100  84  82  83  86  92 101 114 124 134 147 155 154 153 169 178 181 184 184 185 186 186 186 187 187 188 188 188
 158 160 160 159 158 159 159 157 157 159 158 158 157 157 158 157 155 150 106 102  88  82  76  48  50  72  86  92  93  91  88  93  92  98 104 109 107 106 103  99  95  94  88  85  79  77  73  71  70  68  66  67  68  69  69  77  84  96 110 124 144 149 146 137 114  99  97  97 100 109 121 133 142 148 151 154 155 154 168 179 180 184 183 184 186 186 186 188 188 187 188 188
 159 160 159 159 161 160 161 159 162 160 160 160 159 158 159 158 157 155 133 116  98  88  83  73  70  78  85  90  93  90  89  92  94  96 102 110 107 106 101  97  98  94  88  87  84  82  80  76  72  69  70  73  76  73  79  85  92  97 106 120 135 141 144 141 125 110 109 111 114 124 135 142 151 154 156 158 158 156 168 180 182 184 185 186 185 186 187 188 188 187 188 188
 162 161 161 160 161 161 160 159 160 161 161 160 161 160 161 160 158 160 142 107  97  90  80  72  79  81  84  90  91  89  91  92  93  99 102 105 102 101  95  93  90  88  87  83  85  82  76  73  70  68  68  72  78  82  85  91  98 107 112 120 131 143 143 143 127 104 101 105 116 125 133 139 143 149 154 157 161 158 169 180 184 185 186 186 186 187 187 188 190 189 189 190
 162 162 162 161 162 161 160 159 160 161 160 161 161 160 161 161 160 160 156 107  81  72  64  61  79  81  82  87  89  88  89  91  93  96  98  99  98  94  90  87  86  84  81  80  76  72  69  65  58  55  65  76  86  92  92  99 108 116 118 120 131 144 142 146 136  97  82  85  98 112 124 130 136 142 143 148 156 161 172 182 185 186 186 188 188 188 190 190 192 191 191 192
 162 162 164 163 162 162 162 161 162 162 161 162 162 161 161 161 161 162 159 153 119  98 109 139  79  80  80  84  87  88  90  94  94  93  91  94  90  87  86  84  80  77  76  71  63  65  62  55  52  58  78  97 107 113 110 111 121 121 114 115 127 138 139 149 148 123  82  69  74  93 107 115 123 129 134 141 149 160 173 184 186 187 187 187 189 189 190 190 191 191 192 191
 162 163 163 163 163 162 162 162 162 162 161 162 161 162 162 163 162 161 162 161 160 157 158 156  88  81  81  81  85  87  90  91  90  91  87  87  84  81  81  78  77  75  71  66  60  61  56  54  51  66  96 123 131 130 125 124 125 124 118 120 124 132 136 147 151 146  99  65  67  74  86  97 106 114 124 133 142 156 175 185 187 187 189 189 191 190 190 192 192 192 192 192
 163 163 164 165 163 163 164 163 163 165 163 163 163 162 162 162 162 161 162 161 160 160 159 157  99  80  79  78  82  84  88  87  85  84  84  81  79  78  76  72  71  72  69  66  61  58  54  53  50  72  98 121 130 136 139 130 124 119 114 115 118 127 130 141 153 155 128  68  63  67  74  83  95 102 113 125 136 151 176 185 188 189 187 190 191 191 192 192 192 193 192 192
 165 163 165 164 165 165 164 163 163 163 165 163 164 163 163 165 163 162 162 162 162 161 160 156 108  77  80  77  79  83  87  85  82  84  80  76  73  71  70  69  70  69  68  63  60  59  60  53  47  68  88  97 103 107 114 116 111 107 106 108 109 114 124 133 144 153 145  76  62  63  67  74  83  89  99 115 129 152 177 186 187 190 190 190 191 190 192 192 193 192 194 194
 165 165 166 167 165 166 164 166 165 163 164 165 165 164 164 165 164 162 162 161 161 160 161 156 123  77  78  75  76  81  82  81  80  78  74  70  67  67  68  68  68  67  64  60  58  59  59  58  50  55  74  80  81  84  91  96  97  97  94  97 101 106 114 121 135 148 138  79  61  60  65  71  77  87  94 109 126 155 180 185 188 187 189 190 190 190 192 192 192 192 192 192
 167 166 165 166 164 165 165 166 167 166 166 165 165 165 165 165 165 162 162 161 161 161 160 158 135  79  80  71  70  77  77  77  77  75  72  68  65  63  65  66  64  63  61  59  58  58  58  58  54  47  53  63  65  69  73  82  84  84  85  85  89  94 102 110 123 138 110  70  60  59  64  68  75  83  91 105 122 165 183 186 187 187 187 191 190 191 191 192 192 193 193 191
 166 167 166 166 166 166 166 167 167 167 166 166 165 166 165 165 163 162 162 162 162 162 161 159 154  85  79  72  69  72  68  73  72  70  66  64  61  62  62  62  62  61  58  57  58  60  58  58  55  49  47  46  45  48  53  60  65  70  74  75  76  81  91 101 110 113  87  71  63  59  63  67  74  81  89 103 126 167 184 187 187 190 190 190 191 191 192 194 193 194 194 194
 166 166 166 168 168 167 168 167 166 168 166 167 165 166 166 165 163 164 162 163 162 161 162 162 155  98  77  77  69  67  65  69  70  67  63  60  60  61  62  60  60  55  54  53  56  59  59  57  54  50  51  49  44  42  44  46  52  58  63  66  68  72  77  87  94  99  86  73  65  60  62  66  73  80  90 106 139 175 185 188 188 189 190 191 191 191 193 193 194 194 194 194
 168 167 168 168 168 168 167 167 167 168 167 166 168 167 167 166 165 165 162 163 163 162 162 162 160 119  83  78  70  67  65  68  69  66  64  62  60  59  60  58  53  51  50  52  56  60  59  58  54  51  51  54  51  45  42  44  46  51  57  61  65  69  73  76  86 110  95  74  64  56  57  63  72  81  92 108 148 182 188 189 188 189 191 192 192 192 193 192 192 193 196 196
 169 168 168 168 169 168 168 167 168 168 168 167 167 168 168 166 165 164 163 164 166 164 162 164 163 141  84  76  72  66  62  67  66  65  65  63  60  60  56  52  47  48  50  53  55  58  58  57  55  54  53  58  59  50  44  45  46  47  55  60  63  66  65  66  97 119 104  73  60  55  51  58  68  83  95 108 159 183 187 190 189 191 192 191 192 192 194 194 194 193 194 195
 169 168 167 168 169 167 169 167 168 168 168 168 167 167 167 165 165 165 165 165 165 165 163 163 164 156  89  79  69  66  63  64  64  64  66  63  58  53  50  47  47  49  51  53  53  55  57  58  55  56  58  56  55  54  47  46  48  48  50  51  53  56  58  70 102 121 111  74  62  56  50  54  66  85  99 116 174 186 190 192 190 191 192 192 193 194 195 194 193 195 195 196
 169 170 169 169 168 168 168 167 166 168 168 167 166 167 166 165 166 165 165 166 164 165 164 164 163 157 100  79  69  64  59  57  58  64  66  63  54  46  45  46  47  46  50  53  53  55  57  59  59  61  59  56  54  52  49  50  49  48  47  48  52  54  60  76 105 117 104  75  67  61  52  49  63  86 100 129 181 188 189 190 191 191 192 193 192 193 195 194 194 195 196 197
 168 169 169 169 169 169 168 168 167 167 166 166 167 167 167 165 166 164 166 166 167 167 166 165 164 158 104  80  71  63  58  51  52  59  66  60  51  40  43  46  47  46  45  47  52  54  57  60  59  59  60  59  56  55  52  49  47  41  38  41  50  56  67  89 109 114 101  72  61  60  47  47  62  90  98 147 184 189 189 190 191 191 193 192 192 192 194 194 195 195 196 197
 170 170 169 170 169 170 168 168 169 167 167 168 166 166 166 166 166 166 166 166 167 166 166 166 166 161 110  79  72  64  56  51  50  55  62  59  51  40  39  43  44  38  29  26  38  48  53  58  57  57  59  59  60  59  56  52  50  46  41  46  51  62  78  96 102 102  69  51  53  51  42  52  69  93 100 169 185 189 189 190 190 191 191 192 193 193 194 194 195 194 194 196
 169 169 169 169 169 169 168 168 167 168 167 166 167 166 166 167 166 167 168 168 167 168 167 166 167 162 120  78  70  63  55  51  50  54  60  58  52  41  36  43  45  40  31  18  13  28  39  46  48  48  52  54  52  54  51  50  51  52  50  49  51  57  67  72  78  58  43  51  54  48  46  58  77  93 121 179 187 188 190 190 191 192 192 192 192 194 195 195 195 195 196 197
 169 170 170 169 169 169 168 168 166 166 167 168 167 166 166 166 167 167 166 168 167 168 167 166 165 162 125  80  70  64  59  51  50  51  58  57  53  44  40  45  50  47  45  30  17  16  22  37  42  40  43  42  43  45  43  44  47  47  48  47  50  51  56  54  39  34  51  60  56  50  52  67  86  92 153 184 187 188 189 189 190 191 192 192 192 193 194 193 193 195 196 195
 170 170 168 168 168 167 167 167 167 168 167 168 167 166 168 167 166 167 167 166 168 168 168 168 167 164 129  85  70  67  61  55  52  50  54  56  53  44  43  48  52  51  50  44  29  19  16  38  48  44  50  47  42  48  50  49  44  48  51  54  59  74  69  29  28  39  62  66  58  52  59  73  88 110 178 185 187 188 188 190 189 191 191 192 193 193 194 193 195 196 197 196
 169 168 169 166 167 168 168 168 168 168 168 167 168 166 168 168 167 167 168 168 167 168 165 166 168 166 131  89  71  65  61  55  52  50  52  55  53  47  46  48  52  54  53  52  40  30  22  30  41  40  57  58  53  61  67  63  53  63  67  67  70  86  53  31  37  51  70  68  58  55  65  79  89 155 182 185 186 188 189 190 189 191 191 192 193 194 194 194 194 195 197 196
 169 169 170 168 168 168 168 168 166 168 168 167 167 167 167 166 167 168 168 166 167 168 165 168 168 166 128  90  75  63  60  58  52  51  52  54  54  49  47  49  51  55  55  54  51  40  35  29  26  28  51  53  53  66  71  69  63  71  74  73  72  54  35  43  60  72  75  70  60  59  71  84 116 177 185 187 189 187 190 190 190 191 193 192 193 193 194 194 194 194 195 195
 169 169 168 168 168 168 168 168 166 167 168 168 167 167 167 168 168 168 168 167 167 167 168 167 168 150 108  86  79  64  59  56  54  51  52  54  53  48  48  49  50  53  56  56  54  49  41  38  34  28  32  32  34  59  68  69  65  66  68  46  32  28  38  71  81  87  76  69  58  63  78  88 164 182 186 187 189 189 190 190 191 192 191 192 193 193 194 194 194 194 196 196
 168 169 168 168 168 168 168 167 166 168 169 167 168 167 167 168 168 168 168 168 168 168 168 160  95  59  75  84  79  65  55  53  52  49  53  54  51  50  50  49  50  53  56  57  56  52  45  41  40  38  34  28  25  27  45  47  35  43  38  28  28  39  73  90  94  91  79  65  62  67  81 128 181 186 186 187 187 189 190 190 191 192 193 193 192 194 194 195 196 194 194 197
 168 168 168 169 168 168 168 168 167 168 168 169 168 167 168 167 167 168 168 168 170 148 103  59  48  48  70  81  75  66  54  49  48  48  52  52  49  49  50  51  50  51  54  55  55  55  54  47  40  42  42  39  36  35  37  37  38  40  40  40  53  80  89  92  98  90  76  66  66  76  96 177 184 186 186 187 188 189 190 190 190 192 194 193 193 195 194 195 194 195 195 196
 168 167 169 169 168 168 168 167 167 168 168 167 167 167 167 165 166 167 153 119  80  65  50  43  42  42  61  78  72  66  58  48  46  46  48  52  51  52  49  51  50  49  52  53  55  55  57  54  46  42  44  45  45  45  48  47  49  50  58  65  77  83  84  90  99  89  72  70  73  80 145 178 184 186 187 186 188 189 191 189 190 192 192 193 193 194 194 194 194 196 197 196
 168 168 169 167 168 167 168 168 166 167 168 167 166 165 166 162 128  90  61  57  56  47  37  38  37  36  54  75  70  66  60  51  45  44  46  48  51  53  51  49  50  51  50  52  53  52  55  54  50  45  43  43  42  45  47  49  49  55  58  61  64  69  78  89  96  83  72  73  76  79 101 131 162 183 186 186 188 190 190 191 191 191 192 191 192 192 193 194 195 197 194 197
 168 169 169 168 168 167 168 168 167 167 166 165 166 140  99  66  58  53  49  48  46  38  35  36  36  32  56  76  69  66  60  51  46  41  42  44  48  50  49  51  51  50  49  51  55  54  54  53  52  50  44  42  42  44  46  45  47  50  54  55  60  64  76  87  85  77  74  75  75  59  68  99 104 114 145 178 188 187 190 192 192 192 192 192 193 193 193 193 193 197 195 195
 168 168 168 168 168 167 167 167 165 163 138 101  66  57  54  49  46  43  44  42  41  34  33  35  34  23  64  74  69  65  61  53  46  40  40  42  43  46  49  50  52  51  48  48  52  54  52  51  49  48  48  47  46  47  46  45  48  47  48  54  58  69  77  82  77  75  75  73  72  63  50  76  94  96  98 105 127 162 186 187 192 191 192 192 192 193 194 194 194 195 195 196
 168 168 168 168 167 166 167 155 110  73  54  50  46  45  42  39  40  39  39  39  37  30  32  35  32  25  70  74  71  66  59  56  47  41  37  39  41  42  46  50  51  52  50  48  48  51  52  51  50  46  47  48  47  48  50  51  53  53  54  59  66  70  77  77  74  76  75  71  66  66  60  55  82  90  92  91  94 101 120 157 186 189 190 192 194 193 193 194 194 195 194 196
 168 167 167 166 164 127  85  54  50  46  42  40  40  39  36  37  37  38  38  37  34  29  30  31  29  30  71  72  70  65  59  55  47  41  39  34  37  38  42  47  52  54  52  48  48  49  50  51  50  49  47  45  47  48  49  54  54  56  58  63  69  72  74  76  79  80  76  65  64  65  64  49  68  81  86  87  87  89  94 101 114 148 178 192 192 193 194 193 193 195 196 196
 166 169 141  95  60  53  47  42  39  38  38  37  36  37  36  36  36  37  38  36  33  29  30  32  28  30  69  71  69  66  60  54  47  41  39  34  34  36  37  45  50  52  55  51  47  50  51  52  50  50  50  50  50  51  50  53  55  57  60  65  68  70  72  80  83  79  65  47  61  64  63  53  54  72  81  85  85  85  87  89  93  99 107 138 173 191 192 193 194 194 196 197
 116  76  51  48  42  40  38  36  36  35  36  34  35  36  34  35  36  36  36  34  30  28  30  30  27  30  67  70  69  66  60  57  51  46  39  35  35  33  36  42  48  51  54  54  51  49  50  52  51  50  50  51  51  52  52  54  54  58  59  66  66  70  78  84  85  75  65  34  57  61  63  56  48  64  76  80  83  82  82  84  86  90  94 100 109 133 171 191 192 195 196 195
  47  42  38  38  35  36  36  35  35  33  34  34  34  34  33  34  34  34  34  33  30  27  29  30  27  30  67  69  68  67  63  60  54  48  45  36  34  34  34  39  43  50  52  53  56  54  52  54  52  52  52  52  50  53  51  52  54  59  60  64  70  80  86  88  84  76 102  33  54  61  61  59  48  59  70  75  80  80  79  80  82  87  88  91  94 100 108 128 166 190 195 195
  38  36  37  34  34  33  30  34  33  31  31  32  32  30  31  33  33  33  33  31  29  27  28  30  27  31  64  68  68  66  64  60  56  50  46  42  34  34  33  36  40  46  50  53  56  59  58  56  55  56  56  56  57  58  58  58  61  61  63  70  82  90  90  83  78 101 117  35  50  60  60  60  50  54  66  72  76  75  76  78  78  81  84  86  90  91  92  97 106 122 162 190
  35  34  33  32  32  31  30  32  31  31  30  31  30  31  31  32  32  31  31  30  30  28  28  28  26  34  66  66  67  65  63  60  57  51  49  45  39  35  33  33  36  43  47  50  53  58  61  61  58  59  57  54  56  60  60  61  63  63  68  78  90  93  89  81  80 117 121  39  49  58  59  59  48  50  63  70  73  75  73  72  73  76  80  82  85  87  90  92  95  99 105 122
  31  31  30  31  29  30  30  31  29  30  31  31  31  30  31  31  32  33  30  30  29  28  29  26  27  34  64  65  65  64  62  59  55  52  51  48  43  38  34  32  32  37  43  49  50  54  60  60  58  59  58  58  54  56  60  64  64  67  73  86  88  90  83  75 101 117 118  57  50  57  57  58  49  51  58  64  72  73  71  71  71  69  73  75  79  82  83  86  91  91  96 100
  30  30  28  28  28  29  29  29  30  30  30  31  30  31  31  30  31  31  30  30  29  26  28  26  27  30  59  62  63  63  61  59  55  52  50  50  45  42  37  31  29  32  38  42  44  48  54  57  58  57  57  55  54  56  58  60  61  68  74  83  84  81  72  84 107 115 116  66  50  57  57  57  49  51  60  64  69  72  72  70  68  68  71  72  74  77  76  82  84  86  91  93
  28  29  28  27  28  28  27  28  29  30  29  30  29  30  30  30  30  30  29  29  28  25  26  26  26  30  58  59  61  62  60  56  56  52  49  49  48  44  42  36  29  29  32  36  38  42  46  48  53  54  55  53  53  55  55  56  56  64  70  75  74  67  69  97 107 112 113  66  51  58  58  56  48  49  58  63  67  71  70  68  68  68  67  68  70  73  72  78  78  84  85  89
  26  27  27  27  24  27  29  28  29  30  30  30  28  29  29  30  30  30  29  28  27  24  24  24  24  23  55  57  58  57  55  54  53  51  50  49  47  43  42  40  34  30  29  30  34  33  39  44  47  49  52  53  53  54  56  55  57  61  65  66  61  62  86  98 102 107 108  59  51  57  56  52  48  52  59  62  66  69  67  66  66  67  66  68  68  71  69  71  75  78  80  82
  24  24  25  24  24  26  27  27  28  30  31  30  30  30  30  29  29  27  29  28  28  25  23  23  23  22  45  54  54  55  54  53  50  50  48  48  47  44  44  40  39  36  32  29  31  31  34  39  42  44  48  51  50  51  53  54  52  54  56  54  62  80  91  96  97 102 101  52  54  52  54  55  48  53  60  62  66  68  69  67  66  67  64  65  67  68  66  68  73  74  77  80
  24  23  23  24  24  26  26  28  27  29  30  29  27  29  30  29  29  28  28  27  27  25  22  23  23  22  31  51  52  51  50  52  49  48  48  48  46  46  42  43  41  40  36  35  33  31  31  32  37  36  40  44  45  45  48  48  48  50  53  63  74  84  90  91  91  96  88  52  53  51  51  52  49  53  59  60  64  67  68  69  68  66  63  62  64  66  64  66  72  73  73  74
  23  23  23  24  24  25  24  27  26  29  29  29  27  28  29  30  30  29  29  28  27  26  21  21  22  21  22  41  49  50  49  52  50  48  49  48  46  47  46  45  42  41  38  38  38  39  36  34  34  33  34  36  38  42  42  48  49  58  62  69  75  82  86  86  85  87  67  51  50  49  49  49  50  57  58  60  64  65  66  65  64  66  64  60  60  61  63  62  69  69  70  72
  23  23  23  24  23  24  26  26  27  27  28  27  28  30  29  29  27  26  26  28  25  22  22  21  22  21  23  29  45  47  48  48  49  49  48  48  47  48  45  45  43  42  43  42  43  41  41  40  42  41  42  44  46  50  52  54  55  60  66  69  74  79  78  80  81  72  50  48  51  49  50  48  53  57  62  64  67  65  65  63  64  64  65  59  59  62  61  62  63  65  68  70
  21  21  23  24  21  22  25  24  26  28  26  28  28  29  29  28  28  25  25  22  20  24  24  22  21  21  20  21  29  44  45  46  49  48  48  48  47  47  47  47  45  48  46  46  46  45  44  43  45  46  46  50  51  53  54  55  60  62  66  67  73  74  76  74  71  52  48  46  49  48  48  48  53  58  64  65  68  67  65  65  62  64  65  62  60  61  63  61  60  62  65  67
  22  21  23  22  22  23  24  24  25  26  28  30  29  27  27  27  27  24  22  21  24  25  25  23  21  21  20  21  22  29  39  45  46  47  47  49  49  48  47  48  47  48  47  48  47  48  47  49  50  51  51  52  53  55  56  55  57  63  64  67  70  69  69  67  50  44  46  45  48  49  47  50  58  61  61  63  67  64  64  64  62  62  61  62  62  61  60  59  58  61  61  64
  22  20  20  23  22  23  24  23  26  28  27  28  27  28  28  25  25  22  25  28  26  23  25  22  20  21  21  20  20  20  29  41  44  46  48  49  49  49  49  48  48  48  47  47  48  49  50  51  50  51  52  55  57  56  56  56  59  61  62  65  68  66  59  48  44  42  44  44  46  46  46  49  57  60  61  64  66  62  64  64  61  61  61  60  60  60  59  59  58  57  59  60
  20  21  20  22  21  23  24  24  26  25  27  27  26  26  26  23  22  23  27  26  26  24  26  22  22  20  21  19  16  18  22  30  42  45  47  48  48  49  47  47  48  48  49  48  50  50  50  53  51  53  53  57  57  57  57  58  58  60  63  63  59  53  40  41  41  42  42  44  44  46  55  49  44  56  60  63  64  62  62  62  62  61  60  60  61  59  58  57  57  56  58  62
  21  21  21  22  22  23  24  24  26  25  27  24  24  24  22  20  26  29  26  25  24  24  26  22  23  21  20  20  18  18  20  21  30  41  45  48  48  48  47  48  48  48  49  49  51  51  53  54  53  56  57  59  57  58  57  58  58  60  61  56  46  35  39  40  39  41  42  43  46  48  66  69  54  42  53  59  64  62  62  63  62  61  60  59  59  59  57  58  56  58  59  58
  20  20  22  22  21  23  23  24  24  24  24  25  23  23  21  23  28  26  24  24  23  24  24  24  23  22  19  20  20  19  17  19  22  26  37  44  46  48  47  47  47  50  48  50  52  52  53  53  54  55  56  58  57  55  57  57  58  58  54  42  31  38  39  38  40  41  42  44  43  58  68  68  67  57  40  54  61  62  62  63  62  60  62  57  56  60  60  61  61  58  57  58
