P2
# Generated by OpenCV 3.4.0
92 112
255
 131 134 133 132 132 133 134 132 134 135 134 133 132 133 134 135 134 133 133 134 134 134 133 134 134 132 135 133 133 131 124 116  92  81  89  95  99 106 111 112 116 123 130 143 137 149 150 152 141 141 127 111 106 101 115 116 113 111 104 108 110 114 113 110 110 105 100 102  96  93  88 105 107 109 109 107 108 107  95  46  29  29  37  32  38  59  97 102 106 108 110 112
 134 133 134 134 131 132 134 134 134 134 136 135 135 134 133 135 135 134 134 134 136 136 133 133 135 136 133 128 116 111  96  84  82  77  87  93 108 113 111 105 100 104 111 118 126 138 147 152 144 132 123 121 106  94  91 114 115 116 110 111 114 116 114 114 113 106 102 103 101  96  86  97 106 110 110 111 111 109 103  36  29  27  31  29  31  38 100 107 109 109 111 114
 133 134 133 135 134 134 135 135 135 133 134 135 135 139 134 135 133 135 134 132 135 135 134 135 133 133 130 129 114  92  80  88  90  93  89  97  98  94  93 102 104 103 105 116 110 113 118 129 131 133 119  99  92  87  81  85 109 105  99  88 110 107 105 113 114 107 101 104 103  98  89  89 105 111 113 114 113 110 105  47  32  25  28  27  30  28  97 109 111 112 112 114
 134 134 134 135 135 136 135 133 134 134 136 135 136 135 136 135 136 137 134 135 134 135 137 135 134 129 124 112  84  75  74  92  89  78  84  91  92  96  98  94 104 112 111 115 111 106  99 112 103  87  88  92  79  79  85  74  86 102  76  67  96 104 110 114 117 114 112 101  92  99  91  83 104 112 113 115 115 114 109  54  31  27  25  25  27  29  92 110 113 116 115 116
 132 135 133 133 135 135 134 136 134 134 133 136 137 136 136 134 135 136 136 136 134 134 134 132 132 124 114  95  70  57  70  86 103  84  75  72  74  90 105 104  94  86  90 102 110 102  94  93  90  78  71  66  72  73  76  73  71  84  87  68  75 109 112 116 117 116 114 104  87  98  92  78 101 112 116 118 118 118 115  71  39  28  26  25  29  41  84 113 114 115 118 119
 134 136 135 137 137 134 135 136 136 134 136 137 137 136 134 136 136 134 134 137 134 134 132 129 128 118  91  76  74  68  72  80  84  73  76  72  73  70  80  88  88  82  81  87  91  91  85  74  72  62  58  55  52  53  61  68  69  69  74  91  81  82 109 115 118 116 114 109 104 101  93  80 102 113 116 118 120 121 116  78  30  27  31  31  31  28  69 114 119 119 121 122
 134 135 135 136 136 137 136 134 136 137 136 138 136 135 134 135 136 134 134 135 136 134 129 127 103  86  73  80  85  85  76  70  77  68  58  53  67  70  69  65  67  78  78  77  76  77  70  64  57  52  47  44  42  39  45  53  60  61  66  88  98  87  81 112 117 116 103 110 111 101  93  76 103 115 120 121 123 122 120  93  28  27  32  31  31  29  54 117 122 122 122 125
 135 135 135 136 136 137 138 135 137 139 138 138 135 137 134 135 135 134 135 133 129 118 105  92  76  70  74  71  79  85  90  78  70  63  67  46  48  64  69  73  54  51  59  71  77  70  63  57  51  44  41  38  37  39  39  46  55  56  61  67  90  99  97  88 112 112  98 108 112 105  81  88 109 117 122 124 125 124 123 107  30  27  28  31  28  30  50 118 123 124 125 126
 138 135 136 136 135 136 135 138 135 137 139 137 136 137 134 134 132 129 128 119  87  68  70  66  67  69  74  82  88  82  78  81  71  59  66  64  48  45  54  63  68  58  46  52  61  63  59  51  48  39  36  32  32  33  36  47  51  49  53  60  66  91  98  95 101 115 110 113 112  99  71  96 113 120 125 124 125 128 124 119  54  32  28  38  31  33  53 120 126 126 125 127
 138 136 136 136 135 136 137 137 135 137 137 137 135 134 135 127 112 101  87  69  56  56  61  58  57  53  59  76  90 102 106 108  96  82  73  62  63  56  49  49  52  61  68  56  48  46  48  43  43  39  36  30  28  32  36  49  46  44  45  52  58  76  88 101 108 117 117 115 107  67  87 109 120 124 128 126 127 129 125 128 101  87  86  91  91  92 103 124 127 129 128 127
 139 136 137 136 136 136 136 138 135 135 134 133 128 116  98  74  66  55  54  62  60  55  56  51  50  48  53  54  58  75  79  94 110  98  95  81  71  67  73  70  69  79  77  74  78  75  68  65  63  49  40  38  33  31  31  38  41  36  40  45  54  57  70  84 107 117 115 106  64  79 106 117 123 126 128 128 128 130 129 130 128 126 128 126 128 127 128 129 129 130 129 130
 137 138 138 140 137 138 137 136 137 134 134 132 113  86  68  63  59  56  58  58  54  54  54  54  53  55  56  59  59  65  63  64  62  66  78  73  84  87  87  83  87  93  96  90  81  79  75  66  64  63  60  62  58  45  40  38  36  31  33  39  46  53  60  68  84 112  88  58  79 102 117 123 127 129 129 131 130 132 132 131 130 129 129 130 130 129 129 131 130 131 130 130
 138 137 138 138 139 138 137 138 135 135 132 127  96  81  69  60  57  55  55  58  53  50  54  55  53  56  57  62  65  67  60  56  54  53  58  56  57  64  75  82  90  82  92  93  86  95  98 105 100 101  84  61  55  48  46  46  43  36  34  37  38  42  49  57  64  71  69  91 109 117 125 128 130 130 131 131 130 130 132 132 131 130 130 132 130 129 132 132 130 131 131 132
 138 137 140 137 137 140 140 137 135 135 126 104  67  61  53  51  48  48  51  52  51  51  48  52  54  57  56  61  76  84  77  71  71  58  54  52  46  47  48  53  58  52  52  55  61  64  75  73  67  68  52  50  45  37  37  36  33  35  35  33  37  40  45  49  58  65  75 106 117 125 127 130 132 132 133 133 132 132 134 133 131 130 130 132 134 133 134 131 130 132 133 132
 138 138 138 135 138 141 138 139 136 131 122  72  52  49  55  48  44  44  44  43  42  47  51  54  55  69  72  68  65  74  86  78  52  41  41  38  36  39  43  43  43  46  41  44  49  49  43  42  48  48  40  41  41  43  44  41  37  30  29  30  31  40  40  44  49  55  59  74 103 117 126 129 132 133 131 134 134 131 133 131 132 131 132 132 131 132 132 132 131 132 133 132
 137 139 136 138 141 140 139 137 136 132  87  58  47  44  47  47  41  37  39  39  38  36  41  47  54  65  77  88  87  89  84  88  98  90  78  64  56  50  51  45  46  48  48  45  44  44  38  39  39  33  36  38  54  37  38  37  37  38  32  26  30  33  36  38  40  48  52  52  70  85 112 128 129 132 132 132 132 131 131 130 129 122 124 130 129 131 131 132 131 130 130 129
 137 136 139 138 141 139 138 137 134 128  76  49  39  39  44  42  38  40  37  35  39  36  36  41  49  53  65  75  98 110 116 110 108 106 113 110  92  81  73  64  62  62  59  53  48  46  43  42  37  29  30  35  41  37  37  36  34  34  36  33  33  31  35  35  38  39  42  43  51  66  76 107 119 119 117 115 114 113 111 107 105  95 100 102  99  99  98  97  94  91  92  92
 134 134 134 134 134 134 134 133 130 108  53  42  38  36  37  35  32  33  35  35  37  38  39  41  45  54  62  71  84  98 117 132 127 110 109 114 110 103  85  73  68  65  59  53  48  49  44  39  42  48  63  57  59  60  61  52  59  48  49  40  34  29  29  33  36  33  33  37  52  53  55  73  86  88  92  92  91  94  93  96  98  98  99  99  98 103 102 105 105 106 107 106
  89  88  89  87  84  82  84  86  85  65  47  36  34  36  31  30  29  28  28  29  31  32  32  38  43  48  57  63  71  82  98 111 130 139 141 128 116 109 104  90  88  82  76  69  62  52  50  50  59  48  37  35  46  53  45  43  36  35  45  38  39  38  38  39  42  38  36  38  36  46  50  57  94 117 124 125 125 126 125 126 128 128 128 130 131 131 131 131 131 132 132 132
 113 112 115 117 117 120 117 118 106  52  42  35  35  33  30  28  29  32  28  29  30  30  32  34  40  41  44  49  58  64  71  80  94 105 115 124 131 130 116 107  92  86  80  71  62  56  55  50  39  38  41  48  43  46  45  40  40  45  49  47  50  43  49  55  43  39  42  32  34  35  39  45  66 119 134 135 137 136 137 136 138 134 136 137 137 137 136 135 135 136 135 134
 134 135 136 136 134 136 136 132 101  49  36  34  30  29  29  28  29  34  32  29  30  30  31  32  34  37  42  41  43  48  55  67  68  70  79  88  95 102 118 116 109 104  95  88  79  80  67  54  44  50  54  49  48  47  48  48  55  56  60  68  66  62  67  68  60  52  42  34  35  36  38  40  55  97 130 136 138 137 137 138 137 138 137 138 137 137 135 135 137 136 137 136
 138 138 139 136 136 138 135 132  80  49  35  36  29  29  29  30  33  32  34  34  32  30  29  27  29  33  40  43  45  45  49  55  62  62  64  67  67  67  64  70  79  78  79  74  70  70  55  54  51  53  51  54  60  60  64  63  58  61  72  77  71  73  80  70  71  61  45  36  37  33  32  35  53  80 128 137 138 137 136 138 139 139 138 139 139 137 138 137 137 137 136 136
 137 140 139 139 137 137 136 122  80  50  34  35  34  36  33  33  33  33  33  31  30  31  30  29  31  32  35  41  46  49  52  55  58  58  60  57  55  53  53  56  60  56  55  57  67  65  57  57  59  63  69  72  72  70  71  72  74  76  73  81  82  82  82  77  78  67  54  45  45  31  26  30  44  74 114 132 138 138 138 138 138 139 139 140 139 137 137 138 139 138 136 137
 139 140 139 138 138 139 132 124  60  36  35  31  32  36  33  31  31  29  29  28  30  32  33  34  35  38  40  41  42  43  47  47  49  52  52  57  57  55  55  55  56  57  58  57  59  60  64  67  70  71  81  81  80  77  77  80  83  84  87  88  96  96  95  94  90  70  59  54  45  39  31  32  41  76 103 121 138 138 140 141 140 140 139 140 139 139 140 138 140 139 138 139
 139 139 138 138 137 137 132 121  59  40  37  32  30  30  30  27  29  29  30  32  34  37  36  38  40  41  44  45  47  49  50  50  51  53  52  55  56  56  58  59  61  62  66  65  64  65  67  70  73  77  82  86  84  85  86  84  87  94  94 102 108 114 110 107 102  83  64  48  52  46  37  40  49  76  93 116 135 138 141 139 139 141 140 141 141 139 138 139 140 140 140 140
 139 138 139 137 139 137 132 122  69  39  33  28  26  25  24  26  27  31  34  37  40  42  42  45  46  51  51  51  53  54  54  57  56  57  57  59  60  62  63  64  64  67  68  69  70  71  73  74  76  81  86  88  90  86  89  92  97 104 104 112 117 121 120 116 112  97  76  52  49  34  41  58  62  86  94 120 134 139 140 140 140 142 141 141 141 142 141 138 140 140 140 139
 138 138 139 138 139 139 134 130  88  41  30  28  26  24  25  21  27  35  40  42  43  45  47  49  52  53  57  57  56  59  60  62  62  60  61  62  63  66  67  68  69  70  71  72  72  75  78  80  81  86  89  88  90  90  92  96 104 110 111 115 124 126 126 124 119 111  92  62  43  36  33  51  70  75  87 118 135 140 140 142 142 142 141 142 141 140 140 140 139 138 139 139
 140 138 140 139 140 139 134 128  88  46  33  28  26  25  24  24  30  40  44  46  48  50  54  55  59  62  62  64  64  64  67  67  67  65  66  64  66  67  71  74  74  75  76  76  74  79  80  81  82  87  90  91  91  93  97 102 106 109 115 122 126 128 130 128 125 121 108  77  47  40  46  48  48  50  78 119 136 140 140 142 144 141 141 142 142 142 142 141 141 140 141 140
 140 137 140 141 140 140 136 134 102  60  29  28  25  24  24  24  33  44  50  51  52  56  60  63  65  67  68  70  71  70  69  72  69  69  71  72  70  71  73  74  78  80  81  79  79  82  83  84  86  88  88  91  94  97  98 105 109 112 118 127 130 130 131 130 129 128 116  86  55  42  43  39  39  45  71 110 131 141 142 143 143 143 142 144 142 143 140 141 141 142 141 140
 141 139 138 143 140 138 137 132 122  64  32  26  26  26  27  28  38  48  54  55  59  63  66  67  69  70  72  74  75  77  76  76  76  73  75  78  76  76  79  78  81  83  80  82  83  86  84  86  88  87  88  90  93  97 101 105 110 114 120 125 130 132 131 134 136 135 123  97  64  46  37  38  39  41  63  93 135 143 143 144 144 142 142 144 141 142 142 143 142 141 142 143
 140 141 143 141 140 140 138 136 130  69  30  24  25  26  27  31  42  54  60  61  63  66  70  71  73  72  76  78  79  78  79  81  80  76  76  79  79  81  81  83  85  84  84  82  84  85  86  87  87  90  92  93  93 100 102 107 111 114 120 125 130 133 132 135 138 140 128 100  72  48  40  36  39  45  63  91 134 143 144 142 144 144 143 143 145 143 144 144 142 143 143 140
 142 142 143 142 141 142 141 140 135  72  33  26  27  27  28  34  47  62  65  66  68  68  71  75  76  75  76  80  82  80  81  81  81  81  80  83  82  83  86  87  86  84  85  84  86  87  85  89  90  92  93  95  97 100 103 108 112 117 125 128 132 133 136 140 142 142 129 102  75  52  43  38  39  48  50  85 128 143 146 145 144 144 144 144 144 145 143 144 145 143 142 141
 142 142 142 141 141 142 140 141 137  84  33  29  28  29  30  36  52  65  74  73  73  74  75  78  81  80  80  84  84  82  82  82  81  82  81  84  84  86  85  88  89  87  84  84  87  87  88  90  91  96  97  99 100 104 106 110 116 123 126 132 135 135 140 144 145 139 128 102  75  54  41  38  37  42  50  83 117 141 144 145 145 145 146 145 144 145 144 144 145 145 143 143
 141 142 142 142 142 142 142 141 140  97  32  30  29  28  30  41  55  68  74  76  79  76  78  80  80  80  81  82  84  84  85  84  83  83  83  84  84  85  87  86  87  88  86  84  87  88  90  94  97  99 101 102 102 107 108 113 120 127 131 134 135 138 144 148 148 138 123  99  76  58  43  36  36  37  49  71 119 140 145 145 147 147 146 145 146 146 146 146 146 145 146 145
 142 142 143 142 141 141 143 144 142 120  40  31  30  29  30  41  59  71  76  79  81  79  79  77  79  80  82  84  84  85  83  83  84  83  84  85  88  88  87  86  88  88  88  86  85  89  92  98  99 100 103 106 108 111 112 116 125 134 138 142 142 145 146 151 147 134 118  99  71  56  45  36  34  32  45  65 116 140 146 146 148 146 146 146 147 146 147 145 146 146 145 145
 143 141 142 141 142 142 142 142 141 136  70  35  31  29  31  39  57  75  81  83  82  80  80  82  83  86  83  85  84  84  82  85  85  86  84  87  89  91  88  91  89  87  88  88  90  91  97 101 102 101 104 107 108 112 116 124 130 138 142 147 151 151 155 154 147 132 120 103  71  52  43  37  34  33  42  61 113 141 148 148 147 147 146 146 146 147 146 146 148 147 146 146
 142 142 142 142 143 142 144 142 142 141  87  33  29  29  29  38  62  78  83  85  84  81  82  85  84  84  85  86  86  83  84  85  85  86  86  90  92  93  91  91  91  91  88  89  93  93  97 101 104 106 108 109 110 114 120 128 136 142 144 151 153 155 156 155 147 134 124 106  72  50  40  35  33  33  41  55 109 143 149 149 147 149 147 147 147 146 148 148 147 146 147 148
 143 142 142 144 143 142 144 142 142 139  88  31  29  29  30  41  65  77  84  85  87  86  85  88  86  87  87  88  86  85  86  86  87  88  89  92  93  94  92  90  91  92  91  90  94  96  99 101 105 108 109 108 110 111 118 128 137 143 145 150 150 152 156 155 151 136 130 112  79  50  38  34  33  31  42  56 110 144 148 149 148 149 149 148 149 150 146 149 147 146 147 148
 143 143 143 144 143 144 145 145 144 140  90  32  30  28  30  41  68  80  84  82  84  86  84  85  86  88  87  88  88  88  88  88  88  88  91  93  93  96  94  94  90  90  92  93  92  92  97 101 104 106 104 108 110 109 113 125 131 139 142 145 149 152 155 156 153 145 135 118  88  52  36  35  33  35  46  54 114 142 148 148 149 150 147 147 149 149 151 151 148 148 148 149
 142 144 143 144 142 143 144 144 144 141  90  33  34  30  31  44  70  79  83  83  81  80  80  77  77  83  87  88  89  91  91  89  88  88  90  93  94  93  93  91  92  90  90  91  93  91  96  97 101 100  99 103 104 106 108 115 123 130 131 137 138 145 147 149 158 151 139 125  95  49  34  35  34  37  47  54 116 145 150 150 150 150 150 151 149 149 149 150 147 148 149 147
 143 143 143 144 143 144 144 143 143 143  97  38  34  30  30  48  74  81  83  77  69  69  72  72  75  80  83  86  88  87  90  90  89  90  91  90  92  92  90  92  90  91  90  88  90  92  93  94  94  93  94  95  97 100 100 103 111 114 115 124 123 126 128 126 142 156 143 124 100  52  32  33  36  39  42  68 129 148 150 150 148 150 151 152 150 151 150 150 148 150 149 150
 143 143 144 144 142 144 143 143 142 142  99  34  31  30  28  51  78  80  74  61  53  54  56  59  63  65  69  74  79  79  81  84  87  90  87  89  88  91  90  91  91  92  91  89  90  92  89  90  87  86  86  87  88  86  83  84  88  93  93  96  93  94  98 104 105 127 140 124 106  54  34  32  35  41  45  94 140 152 152 151 150 150 150 152 151 152 151 150 153 151 151 150
 143 144 143 144 143 146 144 144 144 142 113  30  32  28  27  53  79  67  49  46  46  44  47  54  54  51  48  51  59  66  63  71  77  80  82  88  87  87  90  90  90  93  90  90  92  90  89  87  82  79  73  73  74  66  65  66  59  63  63  68  70  77  84  90  94 112 119 114 109  59  35  31  35  41  56 116 149 159 156 154 153 152 151 152 151 152 152 152 152 151 151 152
 143 144 144 143 144 145 146 146 143 142 121  34  32  26  27  56  74  57  45  43  47  49  47  48  49  46  43  43  44  50  52  57  62  68  77  83  82  82  87  89  89  87  88  90  88  88  86  82  77  72  62  58  59  54  52  50  47  44  42  50  56  64  66  74  84  97 113 114 110  69  38  31  35  40  67 139 157 163 160 155 155 154 154 154 153 153 153 152 152 152 153 153
 144 145 144 144 145 146 146 145 146 143 132  43  32  25  28  56  71  46  46  45  48  53  54  50  46  48  44  46  44  43  47  49  53  65  71  74  74  81  84  88  88  84  84  84  84  81  79  73  63  65  55  56  55  51  45  44  42  41  44  45  49  51  52  60  76  99 116 114 115  80  38  33  36  40  78 153 166 166 163 158 156 155 156 157 155 155 155 155 155 153 155 155
 146 145 146 145 146 147 147 146 147 144 142  54  33  25  28  56  71  51  47  50  51  52  58  63  54  50  53  52  51  50  49  49  49  58  64  68  70  78  79  84  85  84  84  81  78  75  71  69  66  59  55  51  52  51  48  47  47  50  51  55  59  59  57  69  82 102 111 115 117  98  48  34  37  44  99 165 170 167 163 159 156 156 157 158 159 157 159 158 156 156 158 157
 147 146 146 146 147 147 147 147 148 147 145  80  32  28  31  68  70  52  58  55  62  64  65  65  61  61  63  63  58  59  59  60  56  58  60  61  66  71  78  81  84  85  82  81  79  76  71  68  66  60  58  58  60  60  58  60  59  60  61  63  67  69  68  78  90  93 101 116 119 106  51  39  39  42 130 170 170 170 167 162 161 161 160 160 159 162 161 161 160 160 159 160
 148 148 148 147 147 147 149 148 146 145 147 114  31  29  32  76  74  62  66  67  69  69  68  62  55  50  48  46  45  44  45  54  60  63  65  61  62  68  77  80  84  84  84  85  81  76  70  68  66  67  65  64  57  52  49  48  47  47  52  57  66  69  74  84  91  97 107 116 123 114  60  44  42  43 145 171 173 170 166 164 164 163 162 163 165 164 163 162 164 163 163 163
 146 148 149 150 151 150 149 150 149 149 144 114  34  28  34  82  84  66  69  71  66  60  53  47  48  44  38  35  38  36  38  37  45  56  65  67  69  72  76  80  86  87  88  88  87  82  74  70  68  65  59  49  40  40  40  35  33  36  40  46  51  55  61  76  90 100 105 116 126 118  69  46  46  46 161 173 175 173 169 167 167 165 166 165 167 167 165 166 166 165 165 166
 148 149 148 151 150 152 150 152 152 150 147 116  42  31  35  87  88  82  74  69  63  47  46  47  34  27  26  26  24  28  32  39  44  44  53  62  69  74  77  80  86  90  94  96  94  90  79  70  64  57  46  42  44  38  33  29  29  33  40  36  40  56  56  58  77  93 105 117 128 125  72  44  46  75 184 179 177 175 172 171 170 170 169 170 169 169 168 169 169 168 168 168
 151 149 151 151 152 151 151 152 151 150 148 135  50  32  35  93  92  86  79  69  54  48  41  26  46  54  34  28  25  27  36  51  47  48  50  58  64  71  78  81  88  93 103 107 107  97  80  71  63  50  47  47  48  46  37  31  27  37  56  73  44  34  50  59  69  88 102 117 130 128  81  44  45  96 168 193 180 175 173 174 172 171 171 173 171 170 170 170 170 170 170 171
 151 152 151 151 152 151 152 153 155 151 149 148  56  31  37  94  93  87  78  66  54  41  37  48  70  73  41  34  28  32  43  63  54  45  52  59  66  66  73  84  92  99 107 110 111 105  83  73  69  56  46  44  53  54  41  33  32  41  62  91  75  62  59  60  73  89 105 122 133 133  90  50  50  85 109 140 177 177 176 176 176 175 175 174 173 173 172 173 173 172 174 174
 149 153 153 152 153 153 155 155 154 154 154 149  49  31  48  93  94  88  80  69  62  55  52  47  58  79  56  37  34  36  52  56  46  41  46  62  67  67  72  84  90  97 103 108 113 113  90  77  74  62  44  39  45  53  43  37  36  44  72  75  68  75  88  89  87  96 113 130 140 140  98  52  48  61  81 114 173 178 177 177 178 177 177 176 176 176 176 176 176 176 176 175
 150 152 152 152 154 155 155 155 156 155 156 144  39  31  53  94  97  92  82  78  73  71  66  57  52  50  54  46  43  43  50  48  49  53  61  65  68  70  77  87  93  97 103 111 116 118 100  83  76  67  59  52  49  51  51  51  49  54  58  65  83 102 106 112 111 114 130 142 147 145 113  55  47  61  81 144 177 179 178 179 179 179 178 177 180 178 178 178 178 178 177 178
 154 153 154 154 156 157 156 158 157 157 156 129  39  34  56  96  98  96  88  84  83  78  77  69  66  64  58  55  53  53  54  50  49  54  57  64  67  74  81  88  97  99 104 110 118 123 108  94  82  70  60  55  52  52  53  56  57  61  63  79  93 104 116 120 122 128 142 150 154 151 127  57  46  67  88 157 177 180 181 181 181 181 182 181 182 181 179 179 179 179 178 178
 153 154 155 157 155 160 158 160 159 158 155 137  45  33  60  97 102  98  94  90  89  85  83  78  76  72  68  63  59  56  54  50  52  55  60  69  75  78  83  91  99 103 105 108 119 122 114 104  94  82  69  62  56  56  57  60  63  68  74  82  93 102 112 120 126 136 148 155 159 156 137  58  48  76 101 168 180 184 183 184 184 184 185 186 184 184 183 184 182 181 183 181
 155 155 159 159 158 160 160 161 161 160 155 154  66  37  69 100 101  97  96  94  92  90  86  83  81  74  70  69  65  60  60  60  61  63  70  76  81  81  86  91 102 104 108 114 125 123 117 112 108  98  86  76  70  67  65  66  68  74  78  87  96 105 114 122 132 145 153 155 161 158 140  70  51  84 110 175 184 186 187 188 187 186 186 187 186 186 186 186 185 185 185 185
 156 157 160 160 160 160 161 161 164 162 160 160  91  41  71 100 102 101 100  97  96  96  92  89  86  79  77  74  74  69  69  70  74  75  81  84  84  86  87  88 100 107 113 125 130 125 118 117 116 114 108  99  88  82  79  80  81  87  90  97 105 110 121 129 141 153 159 162 162 158 142  72  57  83 118 180 187 188 189 188 189 188 187 187 188 189 188 188 187 189 188 186
 159 160 159 161 161 162 161 164 164 164 163 163 106  48  75 100 102 103 102 101 102  98  97  90  89  85  85  81  78  80  81  79  84  82  87  86  86  89  88  88  99 107 117 125 130 125 119 122 121 122 118 115 108 100  94  92  92  93  95 102 111 115 122 133 147 157 160 161 158 155 145  82  58  79 140 184 189 188 189 190 189 190 191 190 190 190 190 190 188 189 188 187
 159 160 160 163 163 164 164 165 165 166 165 163 119  52  74 102 104 107 106 105 102 102  99  94  89  89  89  86  85  86  87  87  87  88  89  87  88  88  88  89 100 107 121 131 131 125 118 122 125 126 124 117 113 111 106 102  98  99 102 105 114 119 125 136 146 153 158 160 157 155 145  76  55  81 151 187 191 190 192 191 191 191 192 191 191 191 191 191 192 190 190 188
 161 161 161 164 165 165 167 168 167 170 169 168 141  60  75 101 104 105 105 106 104 103  99  96  91  90  91  90  92  92  93  91  89  92  89  87  88  88  89  92  99 110 127 138 135 127 120 120 124 128 122 115 112 112 110 109 106 106 106 109 113 119 126 137 144 146 149 154 153 151 136  76  58  99 168 190 193 192 192 192 191 193 193 195 194 192 193 192 192 190 191 191
 161 162 164 165 166 167 168 167 169 170 170 169 160  79  72 100 103 101 104 104 105 102 101  97  98  97  98  98  98  97  97  96  95  92  88  88  88  88  88  94 101 113 135 148 142 132 126 119 122 125 120 116 112 112 112 114 113 112 110 112 114 119 126 133 139 140 142 144 145 145 132  68  79 131 182 194 195 194 195 194 195 196 194 193 194 195 196 194 193 192 193 193
 164 164 164 168 168 168 167 169 170 172 171 171 166  99  80 100 102 102 103 102 104 103  99  98 102 101 101 102 102  98 100  98  98  93  87  86  85  86  93 100 108 116 139 158 153 146 138 130 119 123 120 117 111 113 116 118 116 116 112 116 116 119 122 128 133 137 138 139 141 138 127  70 130 156 190 196 197 196 196 196 195 196 194 195 197 198 196 197 197 195 194 193
 165 167 167 167 169 168 168 169 170 173 174 172 170 119  93  99  97  98  99  99  99  98 101 102 104 101 105 103 102 100 100  97  98  91  87  82  81  91 100 106 115 122 142 159 159 155 151 143 128 119 117 115 111 111 114 115 113 115 116 117 121 124 126 132 132 132 134 130 133 137 124 118 146 166 193 196 198 199 200 198 199 198 198 199 198 198 198 198 198 199 197 197
 167 167 168 169 169 169 170 171 172 172 174 175 172 131  95  96  95  98  97  97  97  98 100 101 102 103 102 103 101  99 100  99  96  90  82  81  86  96 103 108 112 124 140 159 169 162 159 154 142 120 108 109 109 109 111 113 115 114 115 120 120 125 130 132 131 129 130 126 127 132 119 121 137 174 196 198 201 202 202 202 202 199 199 200 200 200 198 198 200 198 198 197
 168 169 170 170 169 171 172 174 173 173 174 175 173 138  96  93  94  96  96  95  96  96  98 101 102 102 102 103 103 100  99  98  92  85  79  85  92 100 102 105 107 116 133 147 158 164 160 159 152 136 110 100 103 106 106 109 113 114 117 121 124 129 133 134 136 132 124 122 124 127 118 129 141 175 197 203 202 203 203 202 202 200 200 200 202 204 201 201 199 201 201 201
 168 168 169 171 170 171 172 173 174 176 175 176 174 139  99  84  93  94  94  95  95  96 100 102 102 103 102 102 101 100  96  92  87  80  89  90  95  98  99 103 105 108 117 127 145 157 156 153 147 139 126  99  97 101 104 109 112 115 116 124 128 129 134 134 133 128 126 123 121 122 123 159 166 183 202 204 203 204 204 203 202 203 203 203 203 204 203 201 201 200 202 200
 170 171 172 172 174 174 174 175 176 177 176 178 178 147 101  85  92  94  94  94  95  97 100 102 101 102 102 102 100  98  93  89  84  81  89  86  85  85  90  97  97  99 103 104 121 139 130 123 121 124 131 108  94  97 102 108 110 114 116 122 128 132 133 134 132 125 122 121 121 119 110 136 159 189 202 204 204 204 206 204 203 204 205 204 205 205 204 204 203 203 202 202
 170 172 172 174 174 176 175 177 177 180 180 181 181 175 116  90  93  92  92  94  95 101  99 100  98  99 101 101 100  97  91  88  82  83  85  81  79  80  82  87  90  90  90  94 103 111 102  93  96 100 111 108  95  95  97 106 109 115 117 123 127 130 131 131 129 124 121 120 120 116 112 136 173 201 204 207 206 204 206 206 206 205 205 204 204 205 204 204 204 203 204 203
 171 173 173 175 176 178 177 178 178 180 181 183 183 182 177 128  94  93  92  91  96  98 100 100  97  98  97  98  96  96  92  86  81  81  78  73  65  64  67  72  79  80  78  80  88  86  69  69  73  82  93 100  96  95 100 105 108 112 116 119 124 128 131 129 125 121 120 120 121 119 149 198 204 206 206 207 206 208 208 207 206 206 205 206 206 205 205 207 206 205 204 204
 172 174 175 176 178 178 181 181 181 182 182 183 184 184 184 153  99  92  92  86  93  97  98 100  98  98  98  97  96  94  89  87  80  75  72  64  47  35  38  61  69  72  72  72  74  60  41  42  52  69  83  97 100  95  98 105 108 111 115 119 120 124 127 126 125 121 120 119 121 118 174 201 207 208 209 210 209 208 209 210 208 206 208 207 207 208 207 208 207 207 206 205
 176 177 176 177 178 178 180 183 183 185 183 185 186 186 187 167  89  91  91  86  90  94  99 100  98  96  96  98  96  90  87  87  83  74  67  61  56  52  58  67  66  67  68  71  74  70  66  61  60  69  83  98 104 101 100 102 109 110 113 115 117 119 123 124 126 122 122 120 119 121 190 206 208 210 208 210 209 210 211 210 210 209 210 209 210 208 209 209 208 208 207 205
 176 176 178 178 180 182 184 183 184 184 185 187 188 188 189 178  99  89  89  92  93  93  94  97  98  96  96  98  97  91  91  90  86  76  71  62  58  61  65  66  64  67  70  72  73  73  77  76  77  80  88 101 103 102 104 103 109 114 115 115 116 119 119 121 124 124 122 124 126 140 205 209 211 211 210 211 210 209 210 211 211 210 210 210 211 209 208 208 208 208 208 207
 177 178 181 181 182 184 184 184 184 184 187 187 188 189 189 189 120  94  91  91  93  93  95  94  95  96  98  99  95  92  90  91  87  79  76  71  64  59  60  65  68  67  69  70  74  74  78  86  89  90  93 101 103 105 108 106 110 116 117 114 116 117 118 118 120 124 119 121 126 158 206 211 212 212 212 213 212 211 213 212 212 212 212 212 210 210 211 210 210 209 208 209
 179 182 182 181 183 184 186 185 187 188 187 189 189 191 189 190 145  94  85  89  92  93  94  92  94  97  98  99  97  90  89  89  86  80  75  74  67  60  55  58  68  68  66  66  71  73  75  83  85  89  92 100 102 102 107 112 113 116 118 116 116 118 118 119 121 119 117 121 118 163 209 211 213 214 213 214 215 214 214 213 213 214 214 212 212 211 212 211 210 211 210 209
 177 182 183 184 185 186 187 187 188 189 190 191 189 192 190 190 170  98  86  88  90  91  94  92  95  97  96  97  93  89  89  88  83  76  74  69  66  65  63  65  66  62  63  55  68  72  76  78  78  88  92  97  97  96 103 109 116 115 118 119 116 118 118 118 118 119 119 124 115 182 210 213 214 214 213 216 216 214 213 213 215 214 212 212 213 212 212 212 211 210 210 211
 181 183 184 185 186 185 186 187 189 189 190 192 192 192 192 192 189 105  87  85  88  86  88  92  93  95  98  95  91  90  85  84  78  75  69  62  62  68  70  70  65  56  58  50  65  75  81  87  81  90  94  94  97  95  98 102 113 114 116 119 116 117 116 115 114 117 118 126 128 201 213 215 215 215 214 215 214 213 214 214 215 213 213 213 213 212 211 211 212 211 210 210
 183 183 185 186 187 188 187 188 190 191 192 192 193 194 196 196 192 114  90  86  85  87  88  92  93  95  96  92  90  84  80  77  75  70  68  65  65  70  74  69  62  47  48  49  59  74  83  90  92  98  99  96  98  97 101 106 109 114 114 118 117 115 112 111 113 114 114 116 138 211 213 215 214 214 215 216 217 215 213 214 214 214 214 211 212 212 213 211 212 211 211 212
 185 184 186 186 187 187 189 190 191 191 193 192 193 196 197 198 195 145  84  81  84  90  91  92  94  96  96  86  86  83  77  78  77  72  70  70  68  73  76  74  69  59  53  58  69  79  90  95 100 104 102 100  98  95  93  97 106 114 113 118 118 115 112 111 110 111 111 112 157 210 214 215 215 215 215 215 216 217 213 215 216 215 215 215 215 214 213 212 212 210 211 212
 185 187 186 187 188 188 190 190 191 191 194 193 195 196 196 197 197 174  88  82  82  86  89  92  91  88  93  84  83  80  81  81  76  78  78  80  75  72  69  71  69  72  73  70  70  72  75  81  92 102 106 102  97  89  87  87  98 108 112 118 117 114 114 110 109 110 111 113 175 212 216 215 216 217 217 217 214 215 215 215 213 215 216 213 214 214 214 213 213 212 213 213
 186 186 187 187 189 189 192 191 192 193 192 195 197 197 196 198 199 190  95  83  81  84  86  91  90  91  89  85  82  78  77  78  77  81  81  73  64  61  59  57  57  66  68  64  62  58  62  64  62  70  82  86  85  78  72  77  83  99 108 113 117 112 109 108 108 109 108 122 205 212 215 214 218 217 215 216 217 215 217 216 216 216 216 214 214 214 214 214 214 213 212 213
 185 186 189 189 190 191 192 192 194 193 196 196 196 198 197 198 199 198 115  85  84  85  88  90  90  90  89  82  75  70  68  68  69  67  58  53  55  53  53  51  50  52  58  53  51  51  53  53  54  55  57  59  59  52  59  64  74  89 104 110 114 113 112 108 106 111 111 126 208 214 217 216 217 217 215 217 217 215 218 215 217 216 216 214 215 214 214 213 214 213 214 213
 186 187 189 190 191 191 193 193 194 195 195 196 197 196 198 198 201 198 163  85  83  82  83  86  88  91  88  82  71  61  54  46  46  47  47  47  45  44  40  37  38  38  44  38  36  37  38  44  48  53  57  59  55  61  72  72  76  89 101 107 113 110 107 106 101 111 105 171 211 217 217 216 217 217 218 218 216 216 216 215 217 217 216 216 214 215 216 214 214 213 213 213
 186 188 188 190 191 192 194 193 195 196 196 197 199 201 202 201 200 202 182  84  78  80  85  86  86  88  88  80  68  62  59  54  48  48  49  49  46  48  44  43  42  41  42  41  45  44  52  66  64  81  82  82  83  88  89  85  86  93 101 105 105 103 102 102 102 107  97 192 213 217 218 218 219 219 218 217 216 218 217 216 216 216 217 215 216 214 216 214 213 215 214 214
 188 190 190 191 192 192 195 194 196 197 196 198 200 200 201 201 201 203 199 132  74  78  79  84  86  88  87  78  70  69  71  68  60  59  58  60  60  55  49  50  50  47  54  56  56  56  74  78  84  88  88  90  93  97  97  92  91  95  99 103 102  98  97  98  99  98 129 209 214 217 218 218 219 218 218 217 219 219 218 218 217 216 215 215 216 214 215 213 213 214 214 214
 188 190 190 191 192 193 193 194 196 198 198 199 198 200 202 202 203 204 201 172  74  74  77  76  82  84  84  78  72  76  76  76  74  69  65  65  66  64  63  62  59  62  64  65  67  69  75  76  78  80  86  92  97  99  95  89  91  92  96  98 100  90  90  91  92  85 155 211 216 218 220 218 218 219 217 217 217 219 218 218 218 217 217 217 215 215 216 214 216 214 214 214
 190 189 190 191 193 193 194 194 197 198 199 200 199 202 202 203 204 205 203 199  99  68  65  77  82  82  79  79  76  77  79  78  77  72  69  67  63  63  64  62  60  65  63  64  64  66  67  67  74  77  83  91  97  97  96  90  84  89  90  94  97  89  86  83  84  84 190 213 217 218 218 216 219 218 219 218 217 216 219 218 219 217 217 217 216 216 216 215 215 216 214 214
 191 190 192 193 193 194 194 196 197 198 199 200 201 202 203 205 203 205 205 203 176  70  67  75  76  76  74  75  72  71  75  77  75  72  71  69  61  62  61  58  55  55  60  60  58  59  64  66  72  76  83  87  90  91  90  88  80  85  88  95  92  88  84  82  80  90 204 214 217 217 218 219 218 218 218 218 219 218 218 219 219 218 219 218 217 215 216 216 215 215 215 214
 190 191 193 193 193 193 194 196 198 200 199 201 202 202 204 204 205 204 204 204 203 127  65  64  71  74  74  74  73  66  70  76  72  70  67  70  67  64  62  61  56  53  52  53  57  58  63  68  73  75  81  83  85  90  88  87  88  86  89  93  92  87  81  84  80 124 208 217 217 217 218 219 218 218 217 219 219 219 218 218 218 217 218 218 216 216 217 216 214 215 214 214
 192 192 192 194 193 196 197 198 198 200 200 200 201 201 205 203 205 205 205 206 205 200  69  68  68  74  70  67  72  68  68  70  70  71  69  69  66  65  64  59  55  49  46  49  53  57  61  67  73  78  82  87  83  85  87  87  85  86  87  89  85  82  79  73  87 132 210 217 218 218 218 219 218 218 217 219 220 220 219 219 219 218 219 218 217 217 216 215 216 214 214 214
 192 193 194 195 196 197 197 199 199 199 201 201 200 201 203 205 206 206 205 205 207 205 146  55  62  66  70  63  66  70  68  68  71  72  71  71  71  71  71  64  57  48  45  44  53  58  64  72  77  81  82  85  86  85  86  85  89  89  90  87  80  75  71  76 100 144 211 217 219 219 218 219 218 219 218 217 219 220 220 219 218 219 219 218 217 217 215 216 217 213 214 214
 194 194 196 196 198 197 199 200 200 199 201 204 201 202 202 205 206 206 206 207 207 205 188  51  56  65  63  63  64  70  65  66  72  72  73  70  72  73  72  67  62  56  58  56  62  67  71  77  81  84  82  86  89  88  89  87  90  91  89  79  74  72  64  83 104 153 211 217 218 218 218 219 219 218 219 220 221 219 218 218 218 220 218 217 217 218 217 216 217 215 215 215
 193 196 196 197 198 199 200 200 201 202 201 201 202 204 203 206 206 207 208 207 208 206 202  80  50  54  57  61  65  68  69  71  72  73  73  73  71  68  69  65  65  65  68  71  80  78  83  88  92  90  85  88  89  92  94  89  84  85  80  71  72  64  65  94 107 168 213 217 219 220 220 220 219 219 219 219 219 219 219 218 218 219 219 217 218 217 216 216 215 215 215 215
 194 196 197 196 197 199 199 201 201 201 201 202 203 204 205 206 206 207 207 208 209 206 200 103  56  43  48  50  54  58  66  68  69  69  75  74  74  72  71  70  70  71  73  83  85  87  92  96  93  92  89  87  88  87  88  87  85  76  70  66  69  57  80  97 109 182 214 217 216 219 219 219 220 220 220 219 220 219 219 219 218 218 218 217 218 216 216 214 215 215 214 214
 195 196 194 197 196 199 201 200 199 200 200 201 203 204 203 206 205 206 207 208 209 208 202 134  60  42  40  44  47  57  66  69  69  66  75  76  75  76  73  74  70  75  71  80  84  87  87  92  89  90  90  85  80  83  82  82  82  72  62  62  58  68  83  96 111 190 214 217 217 217 217 219 219 220 219 220 219 218 218 218 218 216 217 217 217 216 216 215 216 216 216 215
 194 194 195 198 196 197 198 201 200 200 203 202 203 203 205 205 206 206 206 207 209 208 208 140  64  56  42  39  41  56  59  66  70  68  69  73  77  77  77  77  69  72  74  82  81  83  89  92  88  89  84  78  78  83  78  73  70  58  58  59  63  81  89  95 113 192 214 216 218 220 219 218 219 220 220 218 219 217 218 218 218 218 219 217 217 217 217 216 217 215 214 214
 195 194 195 198 197 198 199 199 199 200 200 200 201 201 204 201 203 209 208 206 190 141  65  66  64  56  48  36  37  43  50  62  65  71  69  75  77  72  73  74  73  72  74  79  82  85  86  86  82  79  80  74  77  82  72  67  58  52  57  60  78  83  86  97 115 121 185 215 215 217 218 217 218 219 219 218 218 217 219 217 217 216 218 218 216 217 216 216 215 216 216 215
 193 194 194 197 196 196 198 199 200 198 204 193 154 119 101 112 109  85  63  56  39  33  40  77  66  55  54  42  34  37  46  56  57  68  70  73  77  62  68  69  70  69  67  68  71  75  72  72  72  72  72  67  74  77  69  58  56  56  59  73  81  86  89 100 114 116  70 102 132 156 199 215 216 218 218 217 217 217 217 218 216 217 217 218 216 216 217 215 215 216 215 215
 192 194 196 195 196 197 198 205 180 132  87  48  41  45  40  36  33  30  28  26  27  26  53  73  68  62  52  51  43  34  36  45  53  57  65  64  69  62  66  58  61  65  62  61  62  64  66  65  68  67  66  64  68  72  61  49  50  57  67  78  84  90  94 106 117 181 101  63  61  58  54 134 192 219 218 216 216 218 218 216 216 216 216 215 217 215 215 215 215 214 216 215
 192 193 193 195 199 188 138  71  47  45  39  35  30  28  27  26  23  20  19  20  19  24  55  72  67  68  61  57  55  43  34  35  46  50  56  52  57  59  59  52  53  61  61  60  58  58  64  63  62  63  63  62  59  54  46  45  47  69  79  78  84  90 101 112 117 178 176  62  53  50  45  58  69  94 124 169 210 216 215 215 215 215 215 216 216 216 217 216 214 216 215 213
 155 142 123  98  77  52  43  38  34  30  28  26  23  24  22  21  17  16  16  17  18  22  61  70  70  69  64  61  57  55  46  34  31  41  46  49  50  53  62  53  51  56  54  55  55  56  57  57  55  54  57  51  50  45  43  51  68  78  79  78  88  96 103 110 121 188 187 105  54  47  39  44  57  60  64  66  87 122 147 184 212 215 213 214 216 216 214 215 214 215 214 213
  42  44  41  36  34  32  28  26  26  24  23  21  20  18  19  19  16  15  17  16  17  22  61  70  69  69  69  68  61  60  55  46  37  30  33  40  40  48  54  48  48  51  48  49  45  45  46  48  47  47  45  41  42  46  57  67  71  78  78  84  96 102 106 113 121 175 193 146  52  43  37  38  52  54  54  54  57  58  66  66  73  95 143 176 206 217 211 212 212 213 212 213
  33  31  31  28  27  26  24  22  21  20  19  18  18  18  17  17  18  15  16  16  16  19  59  70  66  70  71  70  66  63  58  54  52  40  33  30  31  36  40  38  42  47  41  41  43  41  42  43  42  38  36  39  46  58  66  70  73  82  83  91  98 104 112 117 122 162 211 176  52  43  38  36  48  53  50  48  50  49  54  54  57  59  63  65  66  81 119 144 163 179 191 190
  27  27  24  25  23  21  19  16  18  18  17  17  15  16  16  16  15  14  15  14  15  20  59  72  68  70  69  66  69  67  66  60  52  49  46  38  33  31  31  32  35  36  36  34  33  35  36  34  35  37  43  60  63  65  71  77  79  85  88  96 101 106 114 119 124 145 199 184  64  43  37  35  48  51  47  47  46  47  48  49  50  50  51  54  54  56  57  60  64  65  62  64
  24  23  22  21  18  18  18  16  18  18  16  16  16  15  16  16  15  13  15  14  16  20  59  69  65  68  69  66  70  68  67  66  61  52  52  52  48  45  44  38  37  36  38  36  37  43  43  42  47  47  53  66  66  67  73  78  87  94  95  98  99 109 114 119 124 139 174 177  72  42  37  35  44  48  49  48  41  42  46  47  45  47  47  48  49  49  47  49  51  53  51  53
  21  22  19  19  18  17  18  17  15  16  16  15  16  17  16  15  15  12  15  14  15  17  54  70  66  70  72  73  72  71  69  67  64  58  55  59  56  53  51  48  48  50  53  54  51  54  57  58  61  57  57  63  69  75  79  85  92  94  95  98 104 111 112 118 125 137 170 173  73  41  34  34  40  47  44  46  43  42  43  45  43  43  44  46  46  47  46  49  48  45  47  49
  20  17  20  17  16  17  17  14  14  15  15  14  15  14  16  16  14  12  14  14  15  16  52  70  65  68  73  74  74  73  74  68  65  64  57  59  56  54  54  51  51  54  54  52  52  53  59  61  66  62  64  73  77  81  87  90  90  94  96 100 108 115 117 120 125 135 160 171  71  39  35  33  42  46  44  43  43  45  44  44  43  40  41  44  43  42  42  45  42  41  42  47
  18  16  19  16  16  16  16  15  14  12  12  12  14  14  14  15  14  13  13  14  13  16  49  74  64  68  70  75  76  75  73  72  69  65  63  65  58  59  54  57  56  54  55  55  53  56  57  60  66  71  74  81  83  87  89  88  91  96  98 103 108 114 118 120 126 135 162 165  65  38  34  30  39  44  43  42  41  44  43  43  41  41  40  39  40  41  39  42  42  38  40  46
  17  16  16  15  16  14  14  13  12  13  13  15  12  13  13  13  14  12  13  12  13  15  39  71  64  65  70  74  75  78  79  76  73  70  68  66  64  62  59  55  57  58  58  58  58  60  63  66  71  76  81  84  83  81  86  89  94  94  98 102 109 114 118 121 126 136 166 161  52  35  32  29  40  43  42  40  40  40  41  41  41  39  41  41  41  38  40  39  40  37  38  45
  16  16  14  15  14  14  13  14  12  12  13  12  12  14  13  12  12  12  12  12  12  15  35  70  67  65  70  73  74  76  77  78  76  70  69  71  64  62  61  62  62  62  59  62  64  64  69  69  72  75  78  80  82  84  89  90  92  96  98 103 110 114 116 118 123 137 166 148  42  31  29  30  38  40  41  37  40  40  41  41  40  38  38  38  40  38  40  38  37  36  39  39
  15  14  13  15  14  14  15  15  11  12  12  11  13  14  12  13  12  11  12  13  12  14  19  66  63  66  68  72  73  73  76  74  78  76  74  71  70  69  70  66  64  64  65  65  66  67  67  71  73  75  76  78  84  87  87  90  92  97  99 105 111 115 116 119 123 137 163 117  41  31  28  32  38  40  41  39  39  39  39  40  41  37  38  37  38  37  39  38  35  35  38  41
  14  12  14  12  12  14  13  12  12  11  11  12  12  13  13  13  13  11  11  12  13  14  18  56  63  66  66  69  72  71  74  76  74  77  76  73  71  67  64  72  71  68  69  68  67  69  69  73  75  76  80  82  83  86  89  90  92  96 100 106 109 112 114 118 128 137 157  78  34  29  27  31  38  38  37  38  37  36  40  42  38  38  38  37  43  35  36  36  35  33  34  39
