P2
# Generated by OpenCV 3.4.0
92 112
255
 132 132 133 133 129 133 132 132 132 133 132 133 132 133 134 133 134 133 134 135 133 134 133 134 132 133 134 133 131 131 131 127 115  95  81  91  99 105 109 113 112 119 125 129 137 135 146 151 153 145 132 128 118 100 102 118 113 110 105 106 110 112 111 110 111 103 100 101  95  94  86 102 108 107 108 107 108 106  94  46  32  28  34  31  36  56  94 100 103 108 110 111
 132 132 133 132 131 134 133 132 135 135 135 135 134 133 133 134 134 134 134 133 134 134 135 134 134 134 133 132 127 119 108  94  90  86  86  85  95 108 117 117 111  99  98 110 123 125 138 149 150 144 133 120 114 102  94  98 114 111 109 111 114 115 113 113 111 108 100  98  98  96  87  94 106 110 107 108 110 107 102  34  29  27  29  29  31  34  98 105 108 109 110 111
 131 132 132 135 133 131 134 134 134 136 135 133 134 134 134 134 133 134 134 135 135 135 134 134 136 134 129 129 126 114  90  82  89  94  97  98 105 102  97  88  92 109 112 109 114 116 108 110 122 120 123 119  97  88  88  83  93 104  97  95 108 107 108 114 113 105 102 103  99  98  90  87 105 109 111 111 112 110 105  46  31  24  26  27  31  27  96 106 107 112 112 115
 130 134 134 134 134 134 135 136 132 135 134 135 135 135 135 135 134 134 135 134 134 134 134 133 133 133 126 120 109  86  73  76  85  95  82  80  81  87 102 106  97  97 109 104 111 112 105 106 109 104  84  78  79  80  76  82  72  89  79  68  97 105 109 114 114 113 111  99  89  96  91  81 103 111 114 113 115 113 109  58  30  25  26  25  28  29  87 108 111 113 114 116
 134 133 136 132 133 134 134 135 134 135 137 136 133 136 136 134 135 135 134 137 135 133 132 131 131 131 126 116  99  79  65  68  75  95  91  78  77  71  80  94 103  95  84  83  92 105 101  94  86  83  74  67  66  72  70  71  68  72  78  77  86 109 114 116 115 114 112 107  89  97  93  79 100 113 115 116 116 117 113  72  38  27  25  24  28  39  78 109 113 116 116 116
 136 134 134 135 135 135 134 135 137 136 136 137 134 137 134 136 135 135 135 135 135 136 132 130 129 127 117  95  79  73  75  77  74  81  72  70  68  74  71  73  78  85  81  78  81  84  84  82  70  65  59  54  51  49  49  55  61  68  70  80  87  87 107 116 116 116 114 109 104 101  93  78  99 111 117 118 118 119 116  82  29  26  32  31  30  28  63 111 117 118 120 118
 135 134 134 136 137 135 136 135 136 136 134 135 138 135 135 133 133 134 134 133 134 134 132 131 129 109  80  73  79  83  96  86  77  73  71  68  48  56  67  72  70  62  69  77  78  79  74  69  61  52  52  47  40  41  40  43  49  58  61  68  87  84  80 108 116 116 101 111 109 103  94  76 102 113 119 121 121 121 119  93  29  27  30  32  30  29  53 115 117 119 122 120
 135 134 133 135 135 133 135 135 136 134 134 135 136 135 138 136 135 137 135 133 130 128 114  97  77  79  76  76  76  84  79  77  81  75  63  64  60  46  55  64  71  67  49  50  63  73  68  62  54  48  44  38  37  36  39  39  42  54  55  61  69  89  88  85 111 111  97 107 110 103  78  84 107 118 119 121 122 124 121 107  32  27  27  31  27  30  44 117 121 123 122 122
 137 136 136 137 135 135 136 137 134 135 136 137 136 136 138 135 134 131 128 124 111  84  69  70  64  62  62  68  82  93 100 101  92  83  66  64  66  62  50  50  58  63  68  61  50  53  56  58  52  44  41  37  32  33  33  36  46  49  49  51  59  73  89  91  98 114 108 112 112  99  72  97 113 120 122 125 126 125 124 118  56  35  28  39  30  35  51 118 124 125 124 125
 137 137 136 136 135 134 135 135 137 137 137 137 137 135 135 134 124 104  89  78  65  59  54  58  55  52  54  52  57  67  84  97 114 115 103  86  73  69  68  60  57  55  63  78  76  67  58  54  49  45  41  38  33  30  31  33  43  45  42  45  49  54  78  89 106 115 116 114 106  68  86 107 117 121 125 126 127 126 124 126 103  90  89  93  95  97 104 125 125 127 127 126
 137 137 136 137 135 136 134 136 136 136 136 135 132 125 112  84  69  64  57  57  58  59  56  52  53  54  52  54  59  61  65  71  71  80  83  97  82  85  78  79  74  82  88  95  86  75  79  70  67  63  59  50  49  41  32  28  36  39  35  39  44  52  60  71  92 114 116 105  60  80 102 116 124 126 125 127 128 128 125 128 128 127 126 126 126 125 126 126 127 128 127 128
 136 136 136 136 136 136 135 137 137 137 136 134 130 112  84  68  60  55  55  62  64  58  54  56  58  60  61  62  62  70  71  63  58  58  57  63  62  65  76  88  84  94  95  88  88  87  87  86  85  82  76  69  60  59  53  51  45  41  33  34  40  45  52  61  69  95  85  57  81 101 117 123 127 129 129 127 130 130 130 131 129 129 129 129 128 128 127 128 128 128 130 130
 139 139 137 135 137 136 137 138 138 137 135 133 123  89  74  66  55  53  52  51  52  55  54  50  48  56  57  63  65  81  92  84  77  70  64  59  53  52  52  56  63  78  79  76  84  84  89  92 100  97  93  78  57  49  41  38  39  40  37  35  37  40  44  49  58  64  64  87 108 118 125 126 128 130 130 131 131 130 131 130 130 130 130 129 132 128 129 130 130 128 130 129
 136 135 136 137 140 136 137 139 137 136 132 124  97  63  55  58  51  47  48  46  44  45  46  52  56  57  66  72  66  67  71  85  92  71  58  47  45  45  43  46  48  45  33  36  37  44  51  52  52  48  47  41  37  42  40  41  37  32  29  33  32  38  40  44  50  58  66  88 113 122 127 128 130 130 129 131 132 131 131 132 129 130 129 130 131 130 130 130 131 131 130 131
 137 138 136 136 140 140 139 137 136 135 135 113  68  47  47  49  49  46  42  40  41  41  38  41  51  56  64  78  87  88  86  88  87  91  85  67  54  50  42  43  44  46  51  50  50  46  45  39  38  42  43  40  41  44  47  41  40  37  33  29  27  30  38  40  44  50  54  58  83 108 123 128 131 131 132 132 132 133 133 131 131 130 130 130 131 130 129 131 130 130 131 131
 136 138 137 138 137 138 138 137 136 135 134  93  55  45  43  43  45  41  37  38  37  37  37  34  40  46  56  64  75  92 109 113 110 106 107 113 115  94  83  72  58  56  55  55  50  47  44  38  38  35  28  29  28  43  36  38  35  34  32  32  29  29  34  38  37  41  49  51  58  72  99 123 128 129 130 130 130 129 130 130 129 122 124 128 129 129 129 128 129 126 129 128
 137 138 137 139 137 138 139 136 134 133 130  70  47  42  37  38  41  36  36  36  36  35  38  40  39  43  54  61  69  79  98 112 133 137 121 114 118 117 112  92  83  72  65  60  54  50  46  46  41  37  32  34  36  47  44  46  42  43  41  40  37  33  27  34  36  39  38  41  46  56  70  95 115 116 114 114 112 109 109 107 100  98 100  98  97  95  93  94  94  91  88  89
 133 135 132 133 132 134 132 134 132 128 107  54  43  37  36  34  32  29  29  31  32  31  33  32  36  42  47  57  65  72  85  91 113 129 144 142 132 117 111 104  99  86  81  75  66  61  54  47  44  52  59  55  51  51  66  56  50  50  45  45  38  34  31  31  35  37  34  33  42  52  53  64  83  88  89  88  95  93  95  95  96  98 100  99 100 105 103 105 105 105 107 110
  87  86  84  85  85  88  84  85  87  85  64  47  36  36  37  32  30  29  31  29  29  29  28  30  33  39  41  45  50  59  67  71  78  93 110 118 128 134 141 120 110  97  91  84  73  63  58  54  56  44  37  38  40  53  49  51  41  36  38  43  38  42  38  43  44  43  41  38  37  40  45  52  73 110 119 123 124 125 125 128 128 129 129 126 129 129 131 129 129 132 130 130
 113 115 115 114 118 118 119 119 118 106  55  41  36  33  30  29  28  28  32  35  31  30  30  31  32  34  36  38  41  42  50  58  66  69  74  77  90  96 102 116 119 109 104  98  84  78  78  68  54  43  39  53  50  46  46  47  46  50  51  56  53  57  49  56  64  48  45  42  35  33  36  43  57  96 128 136 136 136 135 137 136 134 134 136 135 136 134 134 135 134 134 134
 132 136 134 135 136 134 134 134 132 102  48  38  35  30  27  28  28  30  33  34  33  32  29  27  26  26  30  36  40  43  45  48  53  62  67  67  68  68  67  66  68  80  78  79  76  71  68  57  51  49  53  49  49  53  55  56  57  56  55  67  72  67  68  74  72  67  53  42  35  35  41  38  48  74 123 134 136 136 136 136 136 134 137 137 136 136 135 135 136 135 136 135
 135 135 137 138 137 138 135 134 128  85  54  35  36  34  34  34  32  32  32  32  33  28  29  28  28  29  30  33  35  43  48  52  53  54  58  62  61  57  53  52  53  60  58  54  54  60  68  56  55  58  59  63  67  70  71  69  65  68  73  73  78  73  72  82  71  72  60  43  38  35  32  33  39  65 115 133 137 137 136 137 136 136 136 138 137 136 135 134 134 135 136 137
 137 138 137 139 137 138 137 136 124  84  44  34  33  32  36  33  33  31  30  29  29  30  29  31  34  33  35  36  39  41  43  45  46  49  49  52  53  55  54  53  53  55  55  58  57  56  59  62  64  70  75  82  80  80  78  76  78  82  80  80  86  89  88  87  83  84  60  52  50  39  30  27  31  58  94 125 133 138 138 136 137 139 138 138 138 137 137 136 136 136 136 138
 137 138 137 139 136 137 138 131 126  60  39  36  31  31  31  29  29  29  30  29  30  32  34  35  36  37  41  42  43  45  46  47  50  51  52  52  53  56  57  59  59  61  62  65  64  61  64  68  70  73  78  81  85  86  86  85  83  88  90  92  95 100 105 103  98  92  68  58  48  46  37  29  34  58  82 113 133 139 137 138 138 138 138 138 139 139 138 136 138 138 138 137
 138 138 137 137 138 138 135 130 121  69  37  33  29  27  26  24  26  26  29  32  35  37  38  39  41  44  47  47  49  49  50  51  51  55  57  58  60  60  62  66  66  66  67  69  68  68  71  73  74  76  82  87  89  89  87  88  89  96 100  98 109 113 117 112 110 105  83  60  43  49  36  42  44  62  87 104 132 136 138 139 139 138 139 138 139 139 139 138 137 137 138 139
 138 138 140 138 138 139 135 131 126  79  40  30  27  25  26  24  23  24  32  38  40  42  42  47  48  50  52  53  54  53  56  57  57  59  59  61  66  64  67  70  70  70  68  71  73  72  74  78  80  80  85  90  91  92  91  90  93 101 108 109 116 120 122 121 118 114  96  71  53  41  34  44  55  78  88 105 129 137 139 139 139 139 141 140 139 139 139 139 139 139 139 139
 139 138 138 139 138 139 137 136 127  93  38  31  28  27  26  23  23  28  37  42  44  46  48  50  53  55  57  62  62  61  62  64  63  63  65  65  65  67  68  73  72  75  75  77  77  78  79  82  83  85  87  90  90  92  93  97 100 104 110 115 120 125 128 127 124 121 113  92  61  39  36  40  53  70  68 103 131 139 139 141 139 139 140 139 139 138 140 138 139 139 138 136
 139 139 139 139 139 138 139 137 134  89  55  32  28  26  24  22  26  30  43  47  48  51  54  56  58  63  66  68  68  69  68  69  69  68  69  68  70  73  73  75  75  78  80  80  80  81  83  84  86  86  89  90  91  92  97  99 103 107 112 116 124 131 128 130 128 126 119 104  68  44  43  48  44  44  59 101 131 139 139 140 140 140 141 140 142 140 139 140 139 138 139 138
 141 141 140 140 140 140 138 137 134 108  63  32  28  25  24  25  27  34  44  51  52  56  59  60  66  66  69  71  74  74  76  77  74  73  74  74  77  77  77  78  77  81  82  83  83  84  85  85  86  87  88  90  91  94  97 101 105 108 113 119 125 129 131 130 131 131 128 112  82  51  39  39  39  40  57  85 122 138 140 143 142 140 142 142 140 141 141 140 140 139 139 138
 138 141 140 140 141 140 140 138 135 126  62  31  23  24  23  25  29  41  53  58  60  64  62  66  71  71  72  75  77  79  77  78  80  82  79  79  80  80  83  80  83  83  85  84  83  84  86  86  89  90  90  92  93  95 100 101 105 107 112 120 126 131 130 133 134 135 134 121  92  55  43  38  38  41  49  79 114 140 141 142 142 141 141 143 140 139 140 141 139 143 141 141
 139 141 140 140 141 142 139 138 136 130  63  30  24  26  27  26  32  46  59  64  66  68  68  71  73  74  76  78  82  83  82  83  83  81  82  82  82  82  84  86  87  88  88  88  85  86  88  87  89  90  91  94  96  98 100 103 106 111 115 122 127 132 133 134 136 139 138 126  96  63  46  37  37  41  52  78 113 137 142 142 144 141 143 142 142 142 142 142 140 140 140 140
 141 140 142 141 142 142 142 141 140 135  64  32  25  26  28  28  35  47  61  67  71  72  73  75  79  78  75  80  81  82  83  82  82  82  83  84  84  85  84  88  88  88  88  87  84  85  87  88  90  93  95  98  99 103 105 106 109 113 120 126 130 132 135 137 140 142 138 126  97  65  48  40  36  39  48  63 107 137 143 144 142 142 144 143 143 143 144 142 140 142 141 140
 140 141 140 141 139 140 141 142 142 140  72  31  28  27  28  28  37  56  66  72  74  76  78  76  77  79  78  81  82  82  83  84  84  84  83  84  84  88  89  89  86  88  87  88  86  87  88  88  93  96  99  99 100 104 107 107 111 120 127 131 133 135 134 141 144 146 137 121  96  68  48  39  36  38  44  60 108 132 144 143 144 144 144 144 145 143 144 144 143 142 143 142
 141 141 142 141 141 140 142 141 143 139  82  34  29  29  27  28  39  56  68  75  76  76  80  79  78  79  82  82  83  84  82  82  84  84  85  86  86  91  90  88  90  90  91  89  84  86  90  93  95  97 101 104 104 106 110 113 118 127 136 138 141 141 142 145 147 146 135 117  93  65  51  39  34  35  39  57 104 134 143 145 144 145 145 145 144 145 144 145 144 145 143 142
 142 141 140 141 142 141 142 142 142 141 104  38  32  28  28  31  36  54  71  79  80  81  79  80  81  81  83  82  86  84  82  84  86  83  86  88  89  91  91  90  93  90  91  89  88  89  92  93  99 101 104 105 106 107 112 118 128 137 143 145 151 153 154 154 152 146 133 116  92  63  49  41  35  32  33  52  97 134 145 145 144 144 145 144 145 146 144 144 145 144 145 144
 141 142 141 142 141 142 141 142 142 142 127  50  31  28  28  30  38  56  76  82  82  83  82  82  83  82  81  82  85  84  84  85  85  85  87  90  92  93  94  93  94  89  89  89  90  92  94  97 100 103 107 110 109 109 113 122 135 147 151 153 157 159 161 159 155 146 128 116  96  62  45  38  35  32  34  51  87 136 143 146 145 144 147 145 146 145 146 145 146 145 145 146
 143 142 143 141 141 144 144 144 143 142 136  64  29  30  28  30  42  63  78  84  83  83  85  83  84  85  84  85  86  86  89  87  87  87  90  93  92  95  97  92  91  94  91  91  90  91  96  98 101 105 110 112 110 113 115 123 136 145 155 160 160 160 158 161 154 150 131 122 100  67  44  38  36  34  34  49  88 136 146 146 147 146 146 146 147 147 146 146 147 147 147 147
 142 141 143 142 142 142 144 143 143 144 139  62  30  28  27  31  42  63  78  81  82  82  79  80  78  81  82  86  86  88  89  91  90  88  88  90  91  94  94  94  92  92  93  91  89  92  91  99 100 104 109 109 110 115 119 122 134 141 147 150 153 153 154 156 156 150 139 128 107  74  44  37  33  33  36  50  86 136 146 149 149 146 147 146 147 147 148 146 147 146 146 147
 141 143 143 142 142 144 144 144 143 143 139  56  32  30  30  32  44  68  80  82  82  76  71  73  74  76  81  84  87  89  90  93  93  89  89  91  90  93  92  96  94  94  91  91  93  92  93  97  99 102 104 104 106 110 115 116 120 128 131 134 138 138 137 138 139 150 141 132 116  79  43  36  35  32  38  51  84 140 147 148 148 148 149 148 147 149 147 147 148 148 147 147
 141 143 143 143 142 142 143 143 145 143 138  56  33  31  29  30  46  70  80  81  71  57  52  55  62  62  65  70  77  83  83  87  90  89  90  91  91  92  92  92  91  90  89  89  91  90  93  93  94  94  93  95  98  98 102 101 102 105 110 111 117 117 110 110 112 130 144 134 119  84  42  34  35  34  42  49  91 144 147 149 148 149 148 149 148 148 148 148 148 147 148 149
 143 141 144 143 145 143 144 143 144 142 139  52  33  31  28  30  53  76  82  69  49  48  44  45  53  52  52  50  54  65  71  70  80  84  88  87  89  89  91  92  89  90  90  89  89  89  92  93  91  88  88  85  86  89  86  79  79  77  81  81  83  80  82  84  88  90 115 132 115  93  46  32  34  36  42  51 110 143 148 150 149 148 149 148 148 149 148 149 149 148 149 148
 143 142 144 142 142 144 142 142 144 143 137  56  33  32  29  28  57  79  71  51  43  44  47  44  46  50  47  43  44  49  56  56  62  68  77  80  88  85  87  90  90  91  89  90  90  90  91  92  89  85  78  72  71  72  63  63  63  55  53  51  56  62  69  76  81  88 103 113 112  94  44  32  34  36  43  66 127 147 152 153 149 151 151 148 150 150 151 150 148 150 151 150
 142 142 145 142 143 143 144 143 143 142 137  62  33  32  26  27  57  78  56  44  41  42  48  54  52  48  50  48  46  44  46  52  53  56  70  77  84  79  83  87  90  91  88  85  90  90  90  87  83  78  70  66  57  60  57  54  51  51  46  45  46  53  58  61  70  82 101 118 106  99  46  32  32  37  45  87 143 154 156 154 151 152 150 151 152 153 151 151 152 151 152 149
 143 143 144 143 145 142 141 143 144 143 136  78  32  29  25  26  59  78  53  47  50  51  55  58  64  55  52  53  52  53  48  49  49  52  64  68  72  74  82  85  90  88  85  85  89  84  84  80  75  68  64  61  52  55  54  48  47  47  41  48  49  52  57  56  70  90 110 120 114 108  51  34  32  37  44 100 149 160 158 155 155 153 153 153 153 153 154 153 152 152 152 152
 144 145 144 144 144 144 145 146 146 144 140  89  33  29  26  28  62  76  55  53  55  63  67  70  70  68  68  67  65  62  61  60  53  50  59  65  66  71  78  80  83  84  84  83  85  83  80  75  70  66  63  59  56  52  55  52  52  55  58  60  62  66  71  68  76  92 108 117 115 111  62  35  33  39  43 118 158 164 162 157 155 155 155 155 154 156 154 154 154 154 154 155
 144 143 145 145 144 146 147 145 146 145 143 121  28  32  27  30  64  80  58  65  69  72  75  76  72  68  66  69  67  67  64  65  64  61  61  62  61  64  71  75  78  81  84  82  84  80  78  72  69  65  63  59  60  65  65  62  64  65  64  65  65  69  74  76  85  97 100 108 118 116  68  38  35  40  39 139 166 168 163 160 157 157 157 156 158 156 157 156 156 158 155 155
 144 145 146 147 147 146 147 147 146 145 140 130  32  32  26  31  75  80  66  71  73  75  73  71  65  60  54  50  49  49  48  53  60  65  66  66  62  64  69  75  78  80  81  82  83  82  77  72  69  67  67  67  67  64  60  56  51  51  48  52  57  65  70  77  86  96 101 112 117 119  80  40  36  39  45 157 168 168 165 162 159 158 158 160 160 160 159 159 159 160 159 158
 146 147 147 145 148 147 148 147 149 149 145 133  50  32  27  32  76  87  72  72  76  72  65  58  48  44  43  44  42  42  40  36  37  50  61  66  64  69  74  74  77  82  84  85  84  82  78  75  71  68  67  63  58  51  41  42  38  37  42  45  46  46  54  67  81  96 103 107 118 121  89  46  41  42  52 164 170 171 168 165 163 162 163 163 163 163 163 163 164 165 164 164
 146 146 148 148 148 149 149 149 151 150 150 141  67  33  29  28  78  89  81  76  72  67  53  43  46  44  34  29  26  28  31  35  38  38  47  58  64  69  74  76  76  84  87  89  90  87  85  79  71  66  61  55  46  40  41  36  31  30  30  33  36  45  52  50  65  86 101 107 118 124  94  50  41  46  87 175 173 171 170 168 168 166 166 167 166 165 167 167 166 166 166 166
 146 148 148 149 148 148 150 151 152 150 149 141  90  36  29  32  85  93  85  82  71  60  46  42  33  26  49  40  30  22  26  30  41  43  43  47  57  65  70  78  82  84  89  94 101 102  96  82  71  62  53  45  43  44  42  36  27  27  35  59  56  36  41  51  54  73  96 106 120 124 101  48  39  47 103 185 179 172 172 170 169 168 169 169 170 168 170 170 169 167 169 170
 149 149 149 150 151 151 150 150 152 152 151 147 119  42  29  34  91  95  87  82  69  55  43  30  39  60  78  41  36  27  25  35  51  51  47  49  54  64  68  73  80  90  95 101 108 111 108  83  73  64  53  49  43  48  50  40  33  27  38  51  81  65  44  42  52  67  90 106 121 127 109  53  41  47  83 119 167 173 172 171 170 172 173 171 172 172 172 172 171 170 170 173
 150 149 149 150 152 152 152 152 154 154 153 152 117  42  29  36  90  95  90  81  68  60  49  46  45  51  74  54  37  29  31  38  59  50  41  43  55  66  65  70  82  89  96 103 110 116 114  89  76  70  59  42  39  47  55  40  33  33  40  59  71  59  62  70  68  70  88 107 125 134 124  55  43  47  72  92 163 175 175 175 174 176 176 174 175 175 175 175 175 174 173 172
 148 151 152 154 153 154 154 154 154 155 156 153 110  43  28  45  95  96  94  83  77  72  65  64  59  49  49  52  43  40  39  43  46  44  46  56  62  66  68  73  83  88  96 102 110 117 115 102  81  75  67  54  46  45  48  47  44  45  48  53  61  80  95  95  94  96 104 121 134 138 132  62  44  46  68 111 173 177 178 177 176 177 178 178 177 177 176 176 177 176 177 178
 153 153 152 153 154 156 155 155 155 155 157 154  97  42  31  52  98  98  98  90  88  85  78  77  72  67  66  59  53  52  52  52  51  50  56  61  63  66  70  77  86  95 100 102 110 117 118 107  91  78  70  60  53  50  52  52  54  58  59  63  78  89  99 102 106 109 117 135 141 142 138  71  46  49  74 129 176 178 179 179 180 182 181 181 181 179 180 178 178 180 180 180
 153 153 154 155 155 156 157 155 158 156 157 156  95  51  32  56  98 102  98  94  92  89  85  82  79  77  74  69  66  61  59  52  52  51  56  59  63  72  76  79  89  97 102 104 106 116 121 111 101  92  78  65  59  54  53  55  58  62  67  71  79  87  96 100 108 114 127 139 142 148 144  87  48  52  86 141 176 180 180 181 183 182 183 183 183 182 183 182 181 182 182 183
 153 154 154 155 156 157 156 159 159 159 159 153 112  58  35  62 100 101  97  98  97  91  89  85  80  75  70  65  63  60  57  58  60  59  60  67  76  80  80  85  90 101 105 105 111 118 122 114 106 103  93  82  74  69  62  61  60  63  63  68  78  83  93 103 113 122 136 144 145 151 147 101  50  63 101 145 180 184 182 183 185 185 185 186 186 185 184 186 185 184 184 184
 155 155 155 156 157 159 159 160 160 160 161 155 133  67  37  68 100 103 102 102  99  95  94  88  86  82  78  76  71  69  69  70  67  69  74  79  84  82  84  89  88 100 107 112 118 125 124 112 110 110 109 102  95  88  83  80  80  80  81  83  87  98 104 112 120 133 144 148 151 153 149 104  56  66 100 155 184 186 185 187 187 188 188 187 189 187 186 187 186 187 188 187
 157 157 158 159 160 161 161 161 162 163 163 156 150  64  44  73 101 105 105 104 103 101  99  93  89  86  84  84  82  79  79  78  79  82  87  88  88  84  89  89  88  96 108 116 124 127 127 113 112 114 114 110 105 102 101  98  96  95  95  96  98 107 112 117 126 142 153 155 154 155 152 115  60  64 106 169 186 188 188 189 189 189 191 189 190 189 190 191 189 189 190 189
 158 159 161 160 161 162 162 163 164 164 165 164 161  81  48  78 102 105 108 108 106 105 103  96  94  92  90  88  89  88  90  88  88  90  90  90  88  87  89  87  88  97 104 116 127 131 125 112 113 114 115 111 104 102 103 104 104 104 103 104 107 110 113 120 136 153 158 161 162 158 154 116  57  65 115 183 189 190 190 191 192 192 192 191 191 191 191 192 191 190 191 192
 160 160 161 161 163 163 165 162 164 164 167 166 164  99  53  73 104 106 108 108 110 109 106 101 100 101  99  96  97  97  97  96  94  92  88  88  87  88  90  86  90  96 107 119 137 134 128 116 112 114 114 112 105  99 100 100 104 106 106 109 111 114 119 129 145 161 166 163 163 160 153 110  58  77 139 184 191 192 192 191 192 192 193 193 194 193 192 194 194 194 192 192
 161 161 163 164 164 164 168 166 166 167 166 169 166 114  72  72 102 107 107 107 109 108 106 106 106 103 104 101 100  97  99  97  97  96  94  88  92  89  89  89  89  96 109 124 146 143 128 120 113 112 114 113 107 101 100 100 105 107 107 110 112 120 126 140 152 162 169 167 164 158 150 105  66 106 158 191 193 194 194 195 195 194 195 196 196 195 196 194 195 195 194 194
 162 162 164 165 164 165 168 167 167 167 168 170 167 126  97  77 103 102 103 106 105 106 107 106 107 105 104 104 103 100  98  96  98  98  93  91  90  86  86  88  95 104 109 127 149 153 141 136 127 112 113 115 109 103 100 100 103 106 106 108 113 122 133 147 157 166 170 167 161 153 146 105  94 154 171 193 194 195 197 196 197 199 197 197 197 198 199 198 198 196 197 198
 163 164 165 164 166 168 168 167 168 169 170 170 169 138 102  90 100 102 101 102 103 105 107 106 106 105 103 105 102 100  99  98  99  96  90  84  82  80  85  97 100 109 111 127 149 154 151 148 140 126 111 108 102 102 101  99 100 105 107 111 115 124 136 148 157 166 170 165 157 147 142 114 128 148 186 196 196 197 198 198 200 200 200 200 200 200 199 201 199 200 199 200
 165 166 165 166 168 169 170 168 169 170 170 170 170 154 107  91  99 102 103 103 103 104 107 104 105 104 104 101 102  99  98  95  90  84  76  77  80  82  91 101 106 112 117 130 148 156 159 156 149 141 125 104  92  91  96  98  99 102 104 109 116 124 135 146 154 162 165 162 150 142 138 113 128 149 192 198 199 201 200 199 202 202 203 203 202 201 202 203 201 202 201 202
 166 166 168 169 169 169 170 169 170 173 172 173 173 166 106  91  97 100 101 102 100 103 105 102 103 102 101 100 100  94  91  88  81  75  76  83  85  89  97 101 106 107 113 126 137 157 163 159 157 152 139 123  98  86  87  89  91  98 103 108 114 122 129 140 147 151 153 149 142 136 131 113 131 150 194 199 202 202 202 202 205 203 204 203 202 203 205 204 204 203 202 202
 167 168 169 170 171 170 172 171 172 173 173 173 173 167 109  89  94  98  98 101 101 102 103 102 101 102 100 100  97  93  88  83  81  73  85  91  93  91  98  98 102 101 105 116 132 140 153 156 154 152 143 134 118  91  83  85  87  93  97 104 110 113 118 128 135 139 141 139 135 133 124 137 158 168 198 203 204 204 204 204 204 204 205 205 204 206 205 204 207 205 205 205
 169 169 169 171 172 171 172 172 175 174 174 176 175 173 110  95  93  96  97  98 100  98  97  97  98  98  97  94  93  87  84  80  77  73  86  90  87  86  92  93  98 100 102 107 113 126 142 146 142 135 127 132 126  98  83  80  84  87  91  98 105 108 111 115 121 128 128 131 130 132 122 116 141 171 200 204 205 205 206 204 206 207 206 207 207 207 206 206 207 207 206 206
 170 169 170 171 172 172 174 174 175 174 175 178 178 176 151  97  94  95  92  94  95  97  96  95  95  94  91  90  89  84  79  79  74  72  84  84  81  81  82  82  91  94  94  96  98 104 119 120 108 101 102 106 111  98  85  80  77  81  86  92  98 102 106 109 112 115 120 123 126 130 121 120 159 190 203 205 206 206 207 206 206 208 207 207 208 208 208 209 208 208 208 208
 169 172 171 172 173 175 176 176 177 177 178 179 179 181 180 166 108  95  89  90  91  93  94  94  93  90  90  88  86  80  77  79  78  72  75  77  75  70  70  72  77  88  87  86  86  92  97  98  82  80  80  85  92  88  86  80  74  78  81  88  92  96 102 102 105 107 114 119 122 128 130 180 199 203 206 207 207 208 207 207 208 208 210 208 209 208 209 209 209 209 210 210
 171 173 173 175 175 177 176 176 176 178 180 180 181 182 184 176 117  96  90  89  89  90  91  92  89  89  89  87  82  77  75  78  79  75  71  66  60  54  47  51  64  71  72  73  74  76  79  66  51  52  58  72  82  89  88  83  77  73  76  83  89  95  98 101 104 103 109 118 122 127 129 196 206 207 208 209 209 209 208 209 209 210 210 212 211 211 209 211 212 211 210 210
 172 174 175 175 175 178 178 179 179 180 182 182 183 183 185 182 126  92  90  89  88  89  90  87  89  88  88  83  76  74  77  80  81  76  73  68  60  58  58  59  62  66  68  68  66  70  69  62  64  66  71  83  87  91  89  88  81  72  68  73  84  91  96 101 100 102 106 116 122 130 144 197 208 209 210 212 211 210 210 210 212 212 210 212 213 212 212 212 212 212 212 211
 173 174 176 178 178 178 177 180 182 183 183 184 184 184 187 184 137  95  92  89  87  86  84  85  88  88  84  75  70  72  76  77  78  76  73  72  65  62  60  60  61  62  63  65  65  71  68  68  72  78  83  86  89  91  90  87  81  74  69  62  69  85  97 102 103 104 108 115 119 128 165 204 210 210 212 213 211 212 213 213 212 213 213 213 212 213 214 214 215 213 213 213
 177 177 177 178 178 180 180 182 182 185 186 186 186 186 187 185 146  94  89  90  87  85  85  86  88  88  78  67  70  74  74  76  75  76  72  69  68  63  59  56  60  64  61  63  66  68  70  68  69  75  78  82  89  92  94  90  84  80  74  67  58  74  93 103 106 106 109 115 116 126 179 209 212 213 213 213 213 213 213 213 214 213 213 215 214 213 214 215 215 214 214 213
 176 176 177 178 178 179 181 183 184 186 187 188 188 190 190 187 166  96  89  89  87  84  84  87  87  81  61  67  71  71  70  71  74  73  68  65  62  60  61  55  57  61  63  66  64  62  65  66  68  71  77  76  89  94  92  95  92  90  85  75  65  62  88 104 107 106 107 111 118 124 179 209 213 213 213 213 214 213 214 215 215 215 215 216 216 215 216 215 215 215 215 214
 177 178 178 177 180 182 184 184 186 187 187 188 189 190 190 188 177  96  86  85  83  82  86  91  89  79  58  67  72  72  70  75  71  70  66  63  62  64  66  64  64  59  55  62  59  54  62  67  70  77  82  86  92  99  98 100  96  87  80  75  71  61  83 103 105 101 103 109 118 126 195 211 215 216 215 214 214 215 216 217 215 215 216 216 218 217 216 216 217 216 216 215
 178 178 179 182 183 184 185 187 186 187 188 189 189 190 190 192 183 110  90  85  83  88  91  91  90  71  66  73  72  72  76  76  77  72  71  69  65  67  70  70  64  57  51  51  52  50  58  71  74  78  83  90  95  98 101 102  96  82  70  68  71  61  85 104 107 100 102 107 115 142 204 213 214 215 215 216 217 216 216 217 216 217 217 217 216 216 218 219 218 218 216 217
 178 178 180 184 183 185 185 186 188 189 189 190 191 192 192 192 186 120  83  85  87  88  91  91  91  77  68  69  67  69  74  75  80  80  80  78  70  68  73  71  68  64  60  55  56  58  65  73  75  80  87  91  95  98  92  89  71  65  66  70  73  69  91 103 105 101  99 106 113 161 208 213 215 216 217 217 217 217 216 216 218 215 216 218 216 218 219 219 219 219 217 217
 181 182 183 182 185 186 186 187 188 188 190 192 193 191 193 196 189 139  84  84  82  85  89  91  90  82  74  71  63  59  54  62  68  71  71  70  66  66  67  62  64  64  68  70  69  68  64  64  67  69  70  75  72  74  70  59  53  72  74  77  78  79  95 105 102 100  99 105 112 168 210 216 217 217 215 219 218 218 218 218 216 218 219 220 219 219 219 220 219 219 219 219
 179 183 184 184 186 186 187 188 188 189 191 192 193 192 194 193 195 173  97  83  82  87  89  89  92  90  84  77  66  62  53  45  47  51  52  54  55  58  56  55  57  56  61  63  59  56  57  55  55  58  56  54  56  63  64  67  82  85  84  88  84  86 100 104  99  98 101 105 106 188 213 213 217 215 217 218 218 218 218 219 219 219 218 218 218 220 220 220 220 219 218 218
 182 184 185 184 186 187 188 188 189 190 191 192 192 194 195 195 195 187 106  87  84  87  84  87  88  93  92  84  72  69  69  57  48  46  44  44  43  40  42  40  41  43  45  52  52  45  41  40  42  44  50  59  67  73  78  88  95  93  89  92  86  90  95  99  99  99 100 108 126 207 213 217 216 218 218 218 219 218 217 219 218 220 219 220 218 219 220 220 220 218 218 219
 184 182 185 187 186 187 189 189 190 192 191 192 194 195 196 196 197 192 134  86  84  83  86  88  86  90  94  86  77  73  76  74  62  55  55  51  46  44  43  40  38  37  39  41  40  42  44  47  54  60  66  79  81  86  90  96  97  96  94  91  91  94  92  94  96  95  97 107 145 209 214 217 218 218 218 218 218 221 219 220 219 220 220 220 220 220 220 219 219 220 219 220
 183 184 185 188 187 188 190 190 192 192 193 191 195 195 198 197 197 197 181  90  81  81  85  85  88  91  92  85  81  80  78  78  76  67  63  62  61  53  51  49  52  51  50  56  57  56  58  67  75  76  83  88  85  92 102  98  96  93  92  89  89  93  92  90  91  91 101 105 188 212 216 216 218 218 218 220 219 219 219 220 220 220 220 220 220 221 220 219 219 220 220 221
 186 186 186 186 188 189 190 191 192 192 193 195 196 195 199 198 198 197 192 104  78  83  80  81  83  84  87  86  85  82  81  80  80  77  70  64  66  66  62  58  58  58  60  66  66  68  68  75  81  80  80  86  92  99 104 102  98  89  88  88  86  91  85  85  91  93  99 117 206 214 217 217 217 219 219 220 219 220 219 220 220 220 220 221 220 220 220 219 220 220 220 220
 185 184 188 188 188 189 189 192 192 193 195 194 197 197 197 198 200 199 199 164  81  77  79  80  83  85  87  83  82  78  78  81  82  81  77  71  64  63  65  67  64  65  68  67  66  66  68  71  72  72  80  90  96  99 100  98  94  86  85  88  87  87  80  77  85  87  93 160 210 216 216 218 218 219 219 218 220 220 220 221 219 219 220 220 219 219 220 220 220 220 221 220
 185 187 188 188 190 190 191 192 192 193 195 194 197 198 198 199 202 200 200 191 103  73  71  75  82  82  82  83  81  80  71  81  82  81  79  75  68  66  62  62  59  60  61  62  64  64  62  66  71  77  86  94  97  97  98  98  96  94  90  90  91  83  82  79  80  83  88 204 213 216 216 218 218 220 220 219 220 220 219 218 219 221 220 219 220 220 221 220 220 221 220 220
 188 188 189 189 191 191 192 193 193 194 197 195 196 198 198 199 200 200 199 197 164  75  68  71  78  77  80  80  76  81  76  76  84  80  76  76  72  71  69  67  66  62  61  64  66  67  69  72  76  81  86  91  92  96  95  94  93  94  90  92  91  84  84  78  76  78 134 209 216 217 218 218 218 218 218 219 219 218 218 220 219 220 220 219 219 220 220 221 220 220 220 219
 188 189 190 188 190 191 192 192 195 195 196 196 196 198 199 199 200 202 203 200 198 127  65  65  68  75  81  78  77  79  77  77  81  82  80  76  75  72  68  69  68  67  65  67  66  71  70  71  74  79  87  91  96  97  94  94  93  95  90  91  88  87  83  76  77  78 169 211 216 216 218 217 219 218 219 219 219 219 218 220 220 220 219 220 219 220 220 220 220 219 219 219
 188 188 190 191 190 191 193 193 193 195 197 198 197 197 199 199 200 203 204 204 202 195 105  69  68  70  78  74  71  70  79  75  81  84  85  83  77  73  71  68  66  62  56  57  56  61  65  68  73  81  89  92  94  96  95  94  93  93  94  92  85  79  79  78  75  87 187 214 217 218 217 220 218 218 219 219 218 219 219 220 220 220 219 219 219 218 218 220 220 219 219 219
 187 190 190 192 192 192 193 196 196 194 196 199 200 200 200 202 203 203 204 204 204 202 177  66  64  65  71  72  66  68  77  74  76  82  84  85  81  77  76  72  68  64  56  53  53  59  65  70  77  86  93  94  94  98  98  98  93  92  97  93  82  76  73  75  74  95 203 214 216 218 217 217 219 219 219 218 218 218 219 218 218 220 219 218 220 220 220 220 219 220 219 221
 189 188 191 191 192 193 194 194 193 194 197 198 200 201 200 202 203 203 204 203 204 204 200 109  55  61  70  66  68  74  77  78  80  81  84  83  80  80  81  76  72  64  58  56  57  62  68  75  83  89  93  95  93  96  98  98  94  92  88  82  72  76  74  73  86 107 209 215 217 218 219 218 219 218 218 220 220 219 219 220 218 221 219 220 220 218 220 221 220 220 220 219
 190 191 193 193 192 194 196 197 197 197 198 199 199 201 202 202 202 203 204 202 203 205 202 156  51  56  61  60  60  66  70  74  78  77  82  84  78  77  74  74  71  70  65  68  72  76  81  86  90  94  95  95  90  96  91  95  92  89  82  74  70  74  70  72  93 121 208 213 215 217 216 218 219 218 218 219 221 218 220 220 219 220 220 221 219 219 220 220 219 218 217 218
 192 193 194 194 194 196 197 198 198 199 199 199 201 200 201 203 202 202 205 205 205 205 204 184  65  51  51  55  54  57  65  73  72  73  73  81  78  78  74  75  71  71  66  70  78  87  88  90  93  95  94  95  90  88  89  87  90  88  77  71  72  71  63  80  98 132 209 215 215 217 218 218 218 217 219 218 218 219 220 218 220 219 220 219 219 219 218 219 219 218 218 216
 192 192 194 195 195 196 199 198 200 199 198 200 200 200 203 202 204 204 206 205 206 206 204 194  74  58  41  51  51  51  62  71  71  75  69  78  80  79  76  75  73  72  73  71  81  88  87  89  92  89  94  90  85  81  85  83  81  80  73  66  72  64  66  85  96 148 211 216 216 218 219 218 218 218 219 217 218 219 219 219 218 217 218 219 217 218 219 219 218 219 219 218
 194 194 196 195 197 197 196 198 199 200 201 200 201 201 202 204 204 206 205 206 205 206 205 198  97  62  44  45  46  50  61  65  71  70  71  74  77  78  78  75  74  67  74  74  81  82  85  85  92  91  89  89  83  78  86  81  74  70  63  62  60  60  72  87  97 159 212 216 217 218 217 217 217 217 219 219 219 219 218 218 216 216 219 217 220 218 219 220 217 218 219 217
 193 194 194 196 196 196 198 199 197 199 199 200 201 201 202 203 205 205 205 205 204 204 204 200 128  65  59  45  42  46  52  57  66  68  74  72  77  79  76  75  77  75  73  77  82  86  87  88  89  87  83  84  77  80  81  79  72  63  56  61  57  71  81  89 100 164 210 215 215 218 217 218 216 217 219 219 218 218 217 217 219 217 219 217 219 218 218 219 217 217 219 217
 191 191 193 195 194 197 197 197 199 197 200 200 201 201 202 204 204 204 202 204 204 205 207 189 101  64  58  51  37  38  46  53  58  61  70  75  76  78  70  72  74  74  73  74  74  79  80  80  76  74  75  71  67  74  78  76  64  62  55  58  65  78  79  85 104 171 210 214 214 215 216 218 217 218 218 218 217 220 217 217 219 219 219 216 217 217 216 219 220 218 219 217
 192 193 193 193 194 195 197 198 198 198 199 200 200 200 199 201 203 202 204 207 203 164  96  56  78  66  57  58  47  36  41  46  55  56  61  69  72  75  67  73  69  70  71  69  65  65  70  69  68  70  70  69  65  71  76  68  58  57  53  64  72  79  82  91 103 106 162 211 214 214 217 216 216 216 217 218 217 218 217 217 218 217 217 217 218 217 216 218 218 218 217 216
 193 193 194 193 194 195 196 197 197 197 197 203 191 152 134 134 144 113  92  82  53  33  36  76  80  71  64  54  52  43  35  38  42  52  56  62  56  65  65  67  57  60  66  71  65  62  64  69  65  65  67  67  65  64  64  57  47  48  58  70  76  80  84  94 108 133  69  90 131 152 191 215 212 215 216 217 217 214 216 216 216 218 216 216 216 216 218 217 216 216 217 217
 192 192 192 193 192 194 195 196 204 174 125  71  42  42  42  40  36  32  30  29  28  27  38  76  78  70  67  61  57  55  45  37  36  38  47  53  53  57  57  66  58  55  60  66  60  63  59  63  64  64  58  62  58  60  50  46  44  57  71  74  74  84  89  98 109 162 141  59  60  60  54 100 188 214 214 215 215 215 216 215 217 218 217 215 216 215 217 216 216 216 215 215
 191 192 192 191 193 193 174 115  63  45  43  37  33  31  27  27  26  20  20  20  18  20  43  72  75  70  70  68  62  58  55  50  34  33  39  41  47  49  56  63  56  52  55  54  53  56  53  55  51  54  52  53  51  48  45  45  57  69  75  74  76  85  93 102 109 163 182  88  55  48  44  52  68  90 133 168 210 215 213 215 216 214 215 216 215 215 217 216 216 215 215 215
 182 175 150 125 103  75  47  41  37  32  29  28  25  24  23  23  20  17  17  18  17  18  49  70  74  71  72  71  68  61  59  55  49  37  30  35  39  39  50  52  50  51  50  51  49  48  47  45  48  49  48  45  41  39  45  60  67  73  75  77  82  92  96 100 109 152 187 153  52  47  40  40  54  58  61  66  82 128 154 189 213 216 212 213 214 215 215 216 216 216 215 214
  45  45  43  40  34  35  32  29  25  25  25  20  19  19  20  19  18  17  17  17  17  18  46  71  72  70  71  71  72  67  63  59  54  53  44  33  31  32  35  38  41  43  45  45  41  43  43  41  44  41  40  37  41  49  59  65  71  77  80  80  90  95  98 107 111 142 208 181  65  44  39  35  48  51  54  55  56  57  65  67  78 107 145 179 210 216 215 212 212 213 214 214
  33  32  31  30  27  27  25  25  23  21  21  19  17  17  18  19  17  16  17  16  16  17  48  73  69  71  71  69  68  70  70  65  61  54  51  47  40  35  31  33  32  36  37  37  35  33  33  34  32  34  36  47  62  64  66  71  74  78  80  87  95  96 102 108 113 128 206 181  94  42  37  34  44  51  50  50  48  50  49  53  54  59  60  63  64  83 121 146 165 183 198 201
  28  26  26  24  22  22  22  21  19  18  18  17  18  17  17  18  16  14  16  16  14  17  48  73  70  68  73  70  64  70  70  69  64  58  57  56  53  50  49  47  39  39  38  40  36  36  42  45  47  48  50  58  65  64  65  72  79  87  88  90  93  97 106 108 113 124 177 177 107  44  38  33  42  51  48  49  46  45  46  48  49  50  50  53  53  55  55  57  63  65  65  66
  25  24  22  21  19  19  18  18  17  17  16  16  17  16  17  16  16  14  14  14  16  16  45  75  69  70  72  74  71  72  75  70  67  64  60  60  60  60  52  53  48  52  53  53  51  49  52  57  59  60  55  58  60  68  72  79  86  92  90  91  94  98 104 109 113 120 154 170 109  40  37  33  38  46  44  47  42  42  44  46  48  44  49  46  48  47  49  50  52  50  49  52
  21  21  20  20  18  18  19  17  16  16  16  16  16  16  16  16  15  14  15  15  14  16  35  72  69  68  71  74  75  74  76  72  68  64  66  61  61  57  58  58  54  53  55  52  54  51  54  59  61  63  65  66  73  76  80  83  86  89  90  95  98 101 106 112 114 120 143 166 108  40  34  33  38  42  42  43  44  40  42  45  42  42  45  45  45  44  47  48  47  48  46  47
  19  17  18  17  16  17  16  17  13  14  12  17  16  15  15  16  14  13  14  14  15  14  25  75  68  68  70  72  78  78  75  77  72  68  66  65  59  56  58  56  58  62  56  57  59  56  57  58  63  66  71  77  80  81  86  86  87  89  94  95  98 103 110 113 114 122 145 166 102  37  33  30  38  42  44  42  41  42  43  43  40  41  41  41  41  41  43  45  45  44  42  43
  17  15  16  17  15  16  16  15  14  15  15  14  15  15  16  15  16  13  13  15  15  15  21  75  69  68  69  73  75  80  80  78  74  71  68  67  64  62  60  62  58  63  62  62  62  57  64  67  69  71  75  82  81  81  84  84  88  92  93  96  99 103 107 112 116 124 145 166  96  35  32  30  37  41  41  41  37  40  41  40  38  39  39  40  41  41  42  42  42  39  39  44
  17  16  16  16  15  16  15  15  14  13  13  13  13  15  15  15  15  12  12  14  14  16  20  68  70  66  68  72  76  78  78  79  79  72  70  69  67  63  63  64  62  62  65  64  67  68  70  72  74  76  79  79  77  79  84  86  90  91  93  97 102 106 107 111 112 123 144 167  80  36  33  29  37  41  41  40  37  38  40  41  37  38  38  41  40  40  41  40  40  39  38  42
  16  15  15  15  15  15  15  14  12  12  13  13  13  14  15  14  15  12  13  13  14  13  18  61  69  67  69  72  75  77  77  79  79  78  73  71  70  68  68  65  65  63  63  64  64  69  73  73  71  73  74  77  80  84  86  87  89  91  92  97 102 108 106 108 112 122 144 158  58  32  29  27  37  38  38  36  37  38  38  40  38  38  36  36  37  39  39  39  39  37  37  41
  15  15  14  11  14  14  14  13  13  12  12  13  13  14  12  13  13  13  12  14  12  13  15  46  69  69  68  72  71  73  74  76  78  76  77  75  71  67  65  68  68  66  64  67  64  67  69  70  72  72  78  80  80  84  85  87  88  91  96  99 105 105 105 109 114 123 143 146  40  30  30  30  34  37  38  36  36  37  37  38  40  38  39  36  38  36  38  40  38  35  36  38
  15  14  14  13  12  12  13  12  13  11  11  14  13  12  13  12  14  12  11  12  12  12  14  32  67  68  67  71  71  74  75  76  79  75  79  76  73  72  67  65  68  70  71  71  70  69  68  70  74  76  78  79  81  82  85  86  88  91  94  99 102 100 102 105 115 123 141 110  31  28  26  28  34  35  37  37  36  36  37  36  39  36  37  36  40  34  34  37  35  35  36  38
