P2
# Generated by OpenCV 3.4.0
92 112
255
 133 132 132 133 132 133 135 134 131 133 133 134 133 135 134 135 133 133 135 133 134 136 134 135 135 133 135 135 131 130 129 128 119 103  87  97 101 110 110 109 110 114 117 125 125 137 147 154 151 143 138 128 111 106 118 113 112 113 108 108 111 113 112 110 113 105 100 101  98  93  88 105 109 110 108 109 108 106  98  45  32  27  36  33  38  54  95 103 104 109 111 113
 132 132 133 133 131 132 133 133 133 134 135 134 134 134 135 135 134 135 136 135 135 136 135 134 134 134 134 133 126 116 110 101  96  86  88  88  97 106 105 101  96  93 104 123 121 124 129 139 140 145 131 112 109  94 105 116 115 115 111 111 112 114 115 114 115 110  99 100 102  95  86  97 107 111 109 109 110 109 103  37  29  29  31  31  32  35  99 106 110 110 112 115
 134 134 134 134 135 134 133 134 136 134 134 134 136 136 136 136 134 134 134 134 136 136 135 135 134 134 133 129 126 118  97  85  91  90  93  97 102  98  99 100 109 119 110 112 116 117 114 119 119 107  98  98  86  84  81 104 114 106 101  89 109 105 107 114 116 108 103 102 102  97  89  87 106 111 113 113 113 112 106  46  31  27  28  28  30  26  96 109 109 111 115 117
 134 134 134 135 136 137 135 136 133 135 136 136 138 137 135 135 134 137 135 135 136 134 134 135 135 134 127 125 118  95  79  79  91  99  86  81  82  93 103 106  96  99 100 104 106 105  98  98  99  88  84  88  91  80  79  76  98 105  79  66  98 106 112 115 116 116 112 100  90  99  91  81 105 113 116 116 115 114 109  56  30  27  25  25  29  33  88 110 113 114 116 117
 136 135 136 135 137 136 137 136 138 136 136 137 136 137 135 134 135 135 136 136 136 135 134 133 131 130 128 127 115  89  74  77  84  95  88  84  76  77  86 103 106  91  89  92  98  99  97  77  74  71  64  61  64  64  65  68  74  92  88  63  74 110 114 116 117 117 114 108  90  98  94  80 101 114 113 117 118 117 114  74  41  28  25  25  27  39  76 112 114 117 118 119
 134 133 135 136 137 136 137 136 137 136 137 135 136 136 136 136 135 136 135 136 137 135 133 133 132 127 119 112  91  81  85  79  77  81  76  69  71  75  73  77  80  85  85  82  91  83  80  75  65  58  53  50  46  46  52  54  65  71  78  92  83  81 109 116 117 117 115 110 106 102  94  80  99 113 116 118 120 119 118  81  29  29  31  31  32  31  64 114 116 118 119 119
 136 137 135 136 135 136 136 136 136 135 135 135 136 135 136 137 134 134 136 135 135 134 134 132 128 120  97  79  76  80  88  91  89  83  77  73  53  60  72  73  76  60  63  73  80  77  73  59  54  52  47  42  38  42  44  47  58  60  70  88  99  92  82 112 117 117 103 113 109 100  92  78 105 116 120 121 121 123 120  97  32  29  31  31  31  29  52 116 123 123 123 122
 137 136 136 137 134 135 136 135 137 134 135 136 136 134 136 136 137 135 136 135 133 129 127 129 110  83  72  72  76  87  90  83  91  80  70  75  70  57  59  65  73  71  67  60  63  65  66  58  50  47  45  37  33  32  40  55  54  53  58  71  92 103 100  87 113 113  99 110 110 101  78  85 110 117 122 123 125 125 123 111  31  27  27  33  28  30  48 119 125 125 123 126
 136 135 136 136 137 137 138 136 137 137 137 137 138 136 138 136 134 135 134 129 130 120 100  88  67  64  58  59  71  78  92 107 123 114  99  81  76  73  66  63  65  73  89  91  84  76  69  71  65  58  48  45  41  38  35  46  47  44  52  57  73  94 109  97 100 115 110 114 112 100  74  99 116 122 125 126 128 127 126 123  54  35  30  41  29  32  52 118 127 126 126 127
 137 136 136 137 136 136 136 137 137 137 137 137 136 135 137 138 135 130 124 110  97  72  60  58  56  52  54  56  65  64  68  78  84  93  94 101  90  86  86  86  80  81  86  94  93  91  86  78  72  65  67  60  58  48  39  40  41  37  41  49  56  74  90 105 110 117 117 117 106  70  87 110 120 125 126 128 129 128 126 127 103  88  91  94  96 100 106 127 129 129 128 130
 137 138 138 138 137 138 137 138 136 136 136 138 136 133 132 128 110  89  70  62  59  63  56  53  53  60  58  62  67  71  71  70  65  65  64  71  72  72  77  80  86 100 102 102 104 102 102 101 114 108  93  73  56  50  47  49  45  40  39  47  51  59  71  92 109 116 117 104  67  80 104 118 123 126 128 129 128 131 130 128 128 127 128 126 127 128 131 130 130 130 129 129
 137 136 136 138 137 138 137 137 137 135 134 135 133 130 113  82  65  60  58  58  60  58  58  53  49  53  62  62  64  80  88  91  95  85  68  64  58  55  54  59  67  67  63  58  53  63  70  69  60  58  54  47  47  44  41  40  35  37  36  42  43  49  60  70  93 110  88  59  80 105 116 122 125 129 128 131 130 132 133 130 131 129 131 129 129 130 131 131 131 131 130 130
 137 137 138 140 137 139 137 138 137 137 136 134 131 119  87  70  61  56  56  53  52  48  48  52  52  57  62  69  71  67  64  72  90  81  65  52  48  47  46  52  50  46  44  42  44  44  42  40  41  48  46  42  43  48  46  44  36  32  32  34  40  48  49  58  68  69  71  93 108 120 126 128 130 132 129 131 131 131 132 130 130 130 130 132 131 131 131 134 131 133 132 132
 137 137 139 138 138 138 137 139 139 138 134 135 123  97  66  56  54  49  48  42  41  41  41  40  45  49  58  65  77  82  92  97  86 100 112 105  86  69  64  56  52  54  57  51  44  45  39  35  35  31  29  32  46  38  40  39  36  36  32  30  35  43  46  50  56  67  78 109 120 127 129 131 132 133 134 132 132 133 134 131 131 131 131 131 132 132 132 132 131 133 133 134
 137 137 139 139 138 138 139 140 138 139 136 131 111  61  49  46  53  47  42  40  38  39  44  38  40  43  50  56  66  76  98 110 123 117 113 114 125 119 107  94  83  71  68  60  54  49  41  41  42  33  35  52  56  52  53  42  42  39  36  32  32  35  41  42  45  53  57  76 104 124 129 132 133 133 135 134 133 131 133 131 130 132 130 131 134 130 132 133 132 132 133 134
 137 136 138 140 137 138 137 137 136 137 136 130  80  51  44  42  44  43  40  39  38  38  37  40  40  45  49  55  66  74  82  98 116 135 142 141 132 123 114 106 102  93  81  75  67  58  54  49  49  52  46  42  44  61  52  47  49  45  44  37  33  29  33  39  40  42  46  53  75  96 126 129 132 132 133 132 132 130 132 131 129 121 123 128 130 132 130 130 130 130 129 132
 137 138 137 137 137 137 139 137 136 136 136 125  64  44  40  39  38  34  32  33  32  33  34  32  33  38  41  46  55  62  72  76  90 105 118 125 131 135 135 123 116 110 100  88  75  64  63  56  50  37  34  45  53  46  46  39  32  35  40  35  36  34  34  38  39  37  39  52  55  63  98 118 118 117 115 112 111 109 105 105 106  99 102 101 100  97  95  94  95  93  90  90
 136 135 133 133 133 134 135 136 134 132 129  96  51  44  37  37  32  30  28  30  29  29  30  32  32  33  39  41  44  47  53  64  68  70  80  84  97 104 106 122 120 113 109 102  98  87  75  61  47  39  50  52  44  43  44  40  45  43  47  41  47  39  44  42  41  43  43  37  44  50  66  80  87  91  92  94  94  96  93  95  99  98 101 101 102 103 106 106 108 108 110 110
  86  88  86  87  84  88  83  88  84  83  83  56  44  37  35  34  31  30  30  37  31  29  30  29  32  30  33  37  43  42  43  47  54  63  68  69  77  77  74  70  64  73  69  69  65  68  60  48  46  46  43  46  47  54  57  54  53  57  67  65  58  60  66  62  53  47  38  35  37  42  49  75 116 122 123 124 127 126 128 126 130 129 129 129 131 130 133 132 133 132 130 133
 114 114 116 116 117 117 120 118 119 118 101  50  39  37  32  29  29  30  31  33  34  33  30  28  28  25  27  28  32  37  44  50  53  52  56  57  54  51  48  45  50  54  52  50  50  56  53  53  50  56  59  68  72  71  70  68  69  73  77  81  72  71  84  73  71  54  41  30  33  37  41  58 109 130 136 136 136 134 136 136 138 136 136 136 135 137 136 137 138 137 136 137
 136 136 135 136 135 136 136 136 136 135  96  46  36  34  32  32  33  32  33  34  32  31  27  25  25  27  28  29  32  34  35  38  40  41  44  44  45  44  44  42  45  48  50  51  51  55  59  62  66  72  75  82  83  81  81  79  81  80  78  86  84  85  82  77  77  56  48  45  34  30  32  50  88 127 134 137 137 138 137 139 138 138 138 138 137 136 138 137 137 138 136 137
 139 137 138 137 138 140 137 138 136 129  73  49  36  35  34  36  32  33  32  30  29  25  24  27  30  31  31  34  37  39  38  42  44  47  49  47  51  50  50  48  51  55  58  58  56  57  62  65  67  76  81  86  89  84  86  86  88  91  89  95 101 103  98  93  90  57  50  48  39  30  30  42  68 106 131 136 139 139 139 139 137 138 138 139 137 138 137 137 138 136 138 137
 140 137 137 136 139 140 138 136 135 123  77  42  34  32  33  34  31  31  28  29  28  25  30  31  31  33  37  38  43  43  46  48  49  50  54  53  54  57  58  57  62  61  62  63  65  68  69  72  76  81  88  89  93  91  88  88  93 101 103 110 115 116 112 111 100  71  55  48  48  39  34  41  66  90 124 137 140 138 140 139 140 139 139 139 139 138 139 139 138 138 137 138
 141 137 138 137 139 137 137 139 132 121  55  35  35  32  29  27  26  29  28  29  30  30  34  35  36  39  42  44  46  50  52  53  54  57  57  59  62  62  62  64  66  67  69  69  72  73  78  80  81  85  90  92  94  94  93  92 100 108 112 120 126 127 127 119 114  88  63  49  44  34  51  50  74  90 118 136 140 140 140 139 140 140 139 139 140 139 139 138 138 139 138 138
 140 137 138 139 138 140 141 138 131 119  59  37  33  29  25  25  25  23  26  28  33  35  39  40  42  45  48  51  52  56  56  61  59  62  61  65  65  67  67  72  70  72  73  73  74  78  83  83  83  88  93  95  94  95  98 102 106 114 120 126 131 131 132 126 119 107  79  57  38  35  51  55  83  90 120 135 140 140 139 141 140 141 140 141 141 141 140 140 139 140 141 138
 139 139 137 139 138 139 139 137 134 122  68  38  28  26  26  25  23  22  29  34  42  41  43  46  48  52  56  57  59  63  61  67  68  66  66  69  69  69  72  75  77  79  78  78  78  81  83  83  85  88  90  93  95  97 100 104 110 118 123 132 138 136 136 135 130 121  99  63  42  40  46  57  57  72 119 136 139 139 139 141 140 140 141 141 140 140 140 141 140 139 140 140
 138 140 140 140 138 139 140 137 137 129  82  37  31  27  26  24  22  26  33  40  46  44  48  52  55  57  63  65  68  69  71  72  71  70  71  72  72  77  75  76  78  80  82  82  82  84  85  85  86  88  89  91  95  97 102 106 114 118 126 135 140 139 138 140 140 134 114  75  49  51  47  37  44  73 114 135 140 142 141 141 142 141 142 140 140 141 141 141 140 139 141 140
 137 138 140 139 140 139 140 140 136 133  85  43  29  28  25  24  24  26  36  48  49  52  55  59  61  65  68  69  73  75  78  78  77  79  79  79  78  80  80  80  81  83  83  81  84  85  87  86  87  89  90  92  94  99 102 109 110 118 126 132 139 140 139 143 148 146 126  90  56  43  40  39  41  64  98 129 140 143 142 143 143 144 143 141 141 142 141 141 140 140 140 139
 141 138 140 139 140 141 141 139 138 132 109  54  30  25  25  25  24  29  42  51  54  59  61  63  66  69  73  73  77  78  82  82  82  82  81  81  81  81  83  83  84  85  83  83  84  85  87  86  88  88  92  95  96 100 102 108 113 122 129 135 139 141 144 149 153 152 135 103  64  46  37  36  44  62  85 131 142 143 143 144 145 144 143 144 143 142 142 141 142 141 140 142
 140 140 141 139 141 141 141 138 139 131 124  52  28  24  24  25  25  33  48  57  61  63  65  68  71  75  75  78  80  82  83  83  83  83  82  81  83  81  86  86  86  87  88  83  84  84  85  87  91  94  95  98 102 103 102 107 116 127 136 138 142 144 150 151 154 152 139 108  73  51  40  38  46  56  87 126 143 143 144 144 143 144 143 142 143 144 142 143 142 142 142 142
 143 142 140 141 142 141 141 140 140 138 128  60  29  26  26  26  28  38  55  63  67  69  71  72  74  77  80  81  81  83  82  82  83  80  82  83  82  85  85  87  88  88  87  85  85  85  86  90  93  96  99 100 103 105 107 113 123 132 136 140 144 146 153 153 156 152 142 111  74  51  43  38  42  50  74 116 139 144 144 144 143 144 144 142 143 144 144 144 143 142 142 143
 141 139 140 140 141 143 141 141 142 141 133  58  30  27  28  29  31  40  59  69  71  74  77  76  77  80  80  81  83  82  84  84  85  83  82  83  86  86  87  85  86  88  86  86  84  86  90  95  98  98 104 105 107 110 113 121 130 141 145 152 152 152 155 158 161 154 137 111  75  56  41  40  40  46  68 115 139 144 146 144 145 144 144 144 145 144 145 144 143 144 145 144
 142 140 141 139 142 140 140 140 141 141 139  71  30  29  28  29  31  44  65  71  74  77  78  80  78  81  80  82  83  82  84  83  83  82  84  84  85  87  88  85  89  88  88  88  87  89  93  98 102 104 106 107 109 114 121 133 142 152 154 158 161 161 162 165 163 152 132 107  77  57  44  36  34  39  59 109 137 144 145 144 144 146 147 146 146 145 146 146 144 144 145 144
 142 140 142 142 141 141 141 141 142 142 139  78  32  30  29  28  34  46  65  77  79  79  80  80  80  82  83  83  83  84  82  84  83  82  85  87  86  87  89  89  90  89  88  89  91  91  95 100 103 106 110 111 114 119 129 141 162 165 165 165 165 163 166 169 167 150 132 110  75  53  45  39  35  37  58 100 137 144 146 146 146 144 146 146 145 147 146 145 146 145 145 145
 142 142 143 142 141 141 143 142 142 142 141  93  36  31  29  30  34  46  67  78  81  82  79  80  85  84  83  82  83  85  83  85  85  84  85  88  88  90  92  91  91  90  88  89  91  93  98 101 104 109 112 116 121 123 130 151 168 172 173 171 170 167 171 170 167 151 135 114  75  50  43  38  36  36  54  89 137 145 146 146 147 148 146 146 147 146 145 146 147 146 146 145
 142 142 143 142 142 140 142 142 141 141 141 118  38  32  28  29  33  47  71  81  83  84  85  85  86  86  85  86  86  88  87  87  88  84  86  89  89  92  93  90  90  91  89  88  91  91  93 100 104 108 113 120 125 130 137 150 165 171 176 174 176 176 174 175 168 151 141 120  82  51  40  37  35  36  51  81 134 144 146 147 145 149 147 146 147 147 146 146 145 146 146 146
 142 142 142 142 143 143 144 143 142 143 141 136  54  30  29  29  34  49  74  81  84  84  85  83  82  84  86  87  87  88  89  89  90  87  86  89  88  89  88  89  90  91  88  90  91  94  91  96 103 108 110 113 120 128 133 136 144 150 153 157 163 160 160 157 158 154 143 125  93  53  40  35  34  37  52  74 133 145 147 148 149 148 148 147 147 148 148 146 148 147 146 148
 143 142 141 143 143 141 141 143 143 143 143 138  51  30  29  29  33  52  75  79  83  80  80  77  79  78  84  84  87  89  90  94  90  88  90  90  88  89  87  87  91  90  88  89  89  90  90  96  99 100 103 106 105 108 112 113 115 119 126 127 132 129 118 124 128 147 142 133  99  52  37  36  35  39  52  68 137 144 147 148 149 149 149 149 150 148 150 149 148 148 148 148
 143 143 144 142 143 142 142 142 142 143 143 140  49  31  30  31  34  55  75  81  79  73  66  69  69  68  75  78  82  86  87  88  89  90  90  89  88  88  90  90  89  88  90  88  86  86  91  91  91  89  92  88  92  95  93  82  86  85  87  91  92  89  93  91  90  98 135 130 104  57  37  36  37  43  48  78 138 148 147 149 150 150 151 150 150 149 150 150 149 149 150 148
 143 143 143 144 143 143 143 144 143 142 142 138  50  33  32  30  34  61  79  82  72  55  50  49  53  59  58  57  59  67  75  73  81  83  87  88  88  87  88  90  89  88  89  89  87  88  89  89  89  84  78  73  72  75  67  65  66  59  57  55  64  72  78  81  85  95 115 120 110  56  36  34  36  43  46  88 137 150 150 152 152 151 151 148 148 151 149 148 150 151 149 150
 143 142 143 143 143 145 144 144 144 144 145 137  56  33  30  29  35  67  80  70  50  49  47  44  47  52  50  44  45  49  56  59  62  69  76  77  89  84  83  86  88  86  86  86  89  90  87  88  82  82  74  66  58  65  58  54  54  51  47  49  51  59  64  71  78 100 121 120 113  65  37  33  37  42  50 105 142 151 151 152 150 152 150 150 151 151 150 151 151 150 150 150
 144 144 144 144 143 144 144 144 144 143 144 138  52  33  32  28  34  70  78  55  43  39  45  50  48  47  51  47  46  42  44  50  52  56  66  70  82  77  80  83  86  87  86  83  87  86  83  81  75  67  64  61  56  57  53  50  51  48  50  53  57  63  65  69  92 114 133 126 117  73  39  32  35  42  56 121 148 154 154 153 154 152 152 151 151 150 153 151 151 151 150 151
 142 143 144 143 144 145 145 143 144 145 145 137  52  33  31  26  32  71  72  47  46  46  48  56  61  54  50  50  50  48  49  48  49  49  61  65  69  72  80  82  82  84  82  82  84  82  80  75  72  67  63  57  54  52  55  56  56  59  65  68  69  73  76  79  96 114 127 129 124  85  41  34  36  41  50 135 157 158 156 154 154 153 152 154 152 151 152 152 152 152 152 152
 143 143 144 143 144 146 145 144 144 143 144 138  65  34  29  25  31  72  71  51  51  53  60  63  68  66  63  64  63  58  58  56  55  49  56  61  63  66  73  78  78  78  81  80  82  79  79  73  70  65  63  59  59  62  65  63  68  70  69  72  71  74  79  86  99 109 110 129 128  95  48  36  38  41  54 146 163 163 160 156 155 154 154 153 153 154 154 153 153 154 153 153
 144 145 145 144 143 144 145 145 146 145 145 139  76  35  30  26  32  73  69  55  62  62  70  73  71  68  69  69  67  67  63  63  63  61  62  61  60  62  65  72  76  78  80  78  78  77  77  71  69  65  65  67  67  67  64  64  64  61  60  61  66  71  76  86  98 106 111 121 130 106  52  40  41  41  58 158 167 165 163 159 157 156 156 156 156 155 156 155 156 155 154 154
 145 145 144 144 146 146 146 147 145 146 146 145 102  31  30  26  33  74  74  64  71  73  74  75  71  69  62  58  55  52  50  51  58  60  64  65  63  65  68  70  73  76  79  78  79  79  76  73  70  68  69  67  64  58  50  47  42  45  47  50  50  52  63  75  90 103 109 115 131 113  58  45  43  43  67 166 170 168 164 161 158 157 157 159 157 156 158 156 156 156 158 156
 145 145 146 146 147 146 146 148 147 146 145 143 123  31  32  27  31  80  79  68  74  77  72  68  59  49  42  43  43  42  41  35  37  44  55  62  65  66  70  70  70  77  83  84  84  84  82  77  70  67  63  57  50  44  42  41  36  34  35  41  49  57  50  58  75  94 106 117 136 121  67  45  46  45  99 173 172 170 168 164 161 163 162 163 162 161 160 161 160 161 161 161
 146 146 147 147 149 148 148 147 148 147 146 144 131  47  32  28  34  84  88  74  73  72  64  54  43  46  52  36  33  29  31  32  37  36  41  51  59  63  69  71  74  78  83  86  93  93  93  82  72  65  56  47  43  44  40  34  28  30  37  54  36  36  55  56  63  87 102 118 137 128  70  42  43  48 116 183 174 171 170 166 166 165 166 164 166 165 164 163 163 165 164 165
 148 148 147 149 148 148 151 149 150 149 149 150 143  68  34  30  35  88  91  83  78  70  59  46  50  34  29  42  32  26  24  28  34  40  43  45  50  59  67  70  78  82  86  94 105 107 104  85  71  61  51  47  45  47  49  40  29  27  39  63  75  45  37  46  56  78  99 120 137 137  84  48  44  50  82 131 172 172 170 168 169 168 169 168 167 169 167 167 167 167 165 166
 149 147 148 149 150 150 151 151 150 150 150 150 142  94  35  28  36  90  93  85  77  65  52  40  29  32  61  66  37  31  26  28  38  52  44  44  51  61  64  68  74  86  91  99 106 111 110  90  76  68  56  43  39  50  55  40  32  32  38  57  61  59  70  72  65  78 104 133 145 143  90  52  45  58  80 123 172 174 172 171 171 171 170 170 171 171 170 168 169 170 169 170
 148 149 149 149 151 151 152 152 152 152 152 151 148 131  39  29  34  92  95  87  74  62  50  40  42  39  46  57  41  31  28  31  41  47  39  37  47  62  62  66  75  83  88  97 107 112 114  99  81  70  60  45  41  42  47  45  46  45  47  53  66  87 103  99  97 102 125 151 153 148 104  55  45  60  83 146 174 175 174 175 174 173 174 174 172 173 171 171 172 172 172 171
 151 151 150 151 152 152 152 153 153 153 155 153 152 132  45  30  40  93  97  90  80  76  68  66  68  60  51  47  49  44  44  42  45  45  45  55  59  62  65  68  78  88  95 100 108 116 118 107  91  77  67  57  52  50  52  54  56  58  62  67  83  97 104 101 104 117 138 156 159 155 131  54  46  68  88 160 178 177 177 176 176 176 175 175 176 177 176 175 175 173 173 175
 151 150 151 153 154 153 152 153 155 154 154 155 154 128  45  30  44  94  99  97  89  85  83  78  78  75  70  65  62  56  54  51  50  47  51  56  58  66  70  73  83  92  98 105 112 119 123 112 102  89  76  63  57  53  54  56  60  63  67  74  81  86  93  98 109 131 152 159 157 159 144  63  49  80 100 162 178 178 178 179 178 177 177 177 178 178 178 177 177 178 176 175
 151 152 150 154 154 154 153 157 156 155 158 157 155 119  53  32  52  96 100  99  94  89  84  80  76  74  72  69  66  62  55  52  50  50  55  61  69  78  78  76  85  94 106 111 120 126 128 117 110 100  92  86  77  69  63  61  61  61  64  71  76  86  95 105 122 143 150 154 160 162 152  70  56  90 114 166 179 180 182 181 181 179 180 182 180 180 182 179 179 179 179 178
 153 153 152 154 156 155 156 158 156 156 158 158 156 119  66  34  50  97 103 104  99  94  89  85  80  75  69  63  61  59  59  58  61  62  67  79  80  81  80  84  86  96 109 118 130 137 134 120 114 112 108  97  95  93  89  89  86  86  86  89  92  98 105 120 143 165 172 162 163 166 154  85  60  82 116 171 181 183 182 184 184 183 183 184 183 182 183 183 183 182 180 181
 154 154 154 154 157 156 158 158 159 158 160 160 157 132  76  40  54  97 104 107 105 100  96  90  84  81  78  76  74  71  72  73  75  80  84  86  83  81  84  86  87  93 109 122 140 145 140 119 119 114 113 102  96  93  95  96  96  98  97  98 100 106 119 144 167 182 184 178 175 171 158  92  56  75 125 174 183 185 186 185 186 186 185 187 186 184 186 185 185 185 184 185
 155 154 155 156 156 158 159 159 160 161 161 162 160 153  80  42  60  97 107 108 108 107 102  95  88  88  86  83  85  87  86  87  88  87  86  88  84  83  88  88  88  93 109 123 147 150 140 122 117 117 117 111  98  92  91  92  94  98 100  98 105 116 134 154 170 182 190 188 183 175 164  94  57  84 138 182 186 186 188 188 188 187 189 187 188 189 188 187 187 187 188 186
 155 156 158 158 160 160 159 160 162 163 162 164 164 160  92  49  64 102 105 107 110 109 106 104 100  97  97  95  94  92  92  90  92  87  87  86  86  90  89  88  90  95 108 126 160 156 142 126 114 118 117 112 105  97  94  92  95  98  98 101 109 121 142 159 173 182 191 192 183 174 165  94  57 107 159 185 189 188 189 189 190 191 190 191 191 190 191 189 190 190 189 188
 158 159 158 160 162 160 162 161 164 165 163 166 165 163 109  55  61 102 104 106 106 106 107 105 104 101 100  99  96  93  92  91  93  91  89  89  91  92  90  88  93  97 108 130 164 162 146 134 122 115 119 116 112 106 100  98  99  99 100 104 110 126 141 154 167 181 192 194 185 174 166 101 114 166 167 188 191 190 192 191 192 192 191 192 192 193 192 190 191 190 191 192
 161 161 160 161 161 162 163 165 166 166 166 167 167 166 129  75  66 104 107 105 103 106 107 108 105 103 102 101  99  96  96  96  96  95  92  89  87  86  86  88  94 104 112 128 165 171 158 149 141 124 112 112 107 103 104 104 102 102 103 107 112 123 136 149 161 175 187 191 188 172 162 115 136 171 178 190 194 194 194 193 194 194 194 194 194 194 194 195 192 193 193 192
 160 161 161 162 163 164 166 168 166 169 169 168 169 169 138  96  75 103 106 104 102 104 106 108 105 103 101 101 101  98  97  97  93  86  78  78  79  80  84  96 103 108 112 126 151 158 162 160 154 140 121 106  95  86  89  97 100 100 103 105 115 122 129 141 155 166 175 180 181 171 156 124 150 160 184 193 195 198 195 195 196 196 195 195 196 196 195 195 195 192 194 195
 161 161 163 165 166 166 167 169 167 169 168 168 170 170 148 105  91 105 106 103 102 103 105 104 102 102 101 100  97  94  91  90  84  72  70  79  81  81  89 103 106 113 115 124 139 153 162 163 163 155 142 124 106  91  79  82  86  90  98 101 108 115 119 127 140 152 160 164 170 166 150 119 141 155 192 196 196 198 197 198 197 197 198 197 198 198 198 197 196 196 197 196
 162 161 164 165 167 167 166 168 170 170 170 171 173 172 163 108  96 104 104 102 102 102 101 100 102 101  99  98  95  88  85  79  74  66  77  86  88  89  96 104 107 108 110 118 130 151 160 161 165 163 153 148 133 105  75  73  76  81  86  94  99 106 110 116 125 136 141 147 158 159 149 142 164 171 194 200 200 200 200 199 199 198 200 202 199 200 200 200 200 199 199 198
 164 166 166 165 167 169 169 169 170 171 173 174 175 173 171 114  95 101  99 102 102 100  99  96  98  97  96  91  89  83  77  70  69  69  83  90  94  92  97  99  98  99 101 110 120 134 151 161 163 160 150 149 144 125  80  71  71  72  78  84  90  97 103 108 112 119 125 133 143 149 147 131 166 181 198 203 202 203 201 202 203 201 201 201 202 201 202 201 201 201 201 201
 166 166 167 168 169 170 169 169 171 173 175 174 175 174 172 117  96  99 100  99  98  95  96  95  94  92  90  88  82  75  67  69  67  66  83  87  88  87  90  92  94  96  96 102 108 122 140 149 150 137 124 126 126 116  81  75  71  69  70  77  83  88  94 102 105 110 114 119 130 142 145 122 136 170 199 203 203 202 204 204 203 203 203 202 204 203 203 203 203 203 202 202
 166 167 167 169 170 171 170 171 173 173 176 175 175 176 174 120  99  98  94  94  93  92  93  92  89  88  86  82  76  67  66  69  70  68  76  81  82  81  79  82  86  91  91  92  95 103 119 123 106  99  96  94  94  90  80  77  73  68  66  66  74  81  85  92  99 104 108 114 124 136 139 150 185 198 202 203 206 205 204 205 204 204 204 205 205 204 205 205 204 204 204 204
 167 167 169 170 170 171 171 172 176 176 177 177 177 176 176 146 100  99  89  89  91  91  91  88  87  84  82  74  66  60  67  72  73  74  68  68  67  65  65  70  75  84  86  86  86  91  97  94  81  74  70  76  80  79  81  78  75  70  66  62  64  73  81  87  93 100 106 109 120 135 143 176 199 203 205 206 206 206 207 205 207 206 206 206 206 204 205 207 204 205 204 204
 169 170 170 171 171 174 174 176 176 176 178 178 179 180 181 177 142  97  93  90  89  89  88  85  84  82  76  67  59  64  67  72  74  73  69  65  61  58  60  64  64  69  73  74  73  76  82  74  69  72  77  82  83  82  82  78  76  71  64  60  56  57  71  82  90  99 105 108 118 131 142 178 203 207 207 207 209 206 206 206 208 208 207 208 208 207 207 207 207 206 207 205
 169 171 171 173 173 175 175 178 177 179 179 181 181 182 182 182 166  99  93  90  88  86  84  84  80  77  69  56  58  62  66  69  72  70  64  65  62  61  58  62  64  63  66  66  67  71  74  72  71  74  79  77  76  83  86  84  79  76  71  67  61  57  53  75  88 100 106 108 118 127 141 192 207 209 208 208 209 209 210 209 210 208 209 209 209 208 208 207 208 208 208 208
 170 170 174 173 176 176 176 177 178 180 181 181 182 183 185 184 171 104  91  90  88  85  83  83  80  69  55  51  56  61  65  69  70  65  62  57  58  58  53  53  62  65  64  67  66  71  72  71  67  65  69  74  76  84  92  90  88  91  85  78  72  66  56  55  82  99 109 111 115 125 148 197 207 210 210 211 210 211 212 212 212 211 210 209 210 210 211 211 210 209 209 210
 170 173 175 176 176 177 178 179 182 181 182 184 183 186 186 186 173 101  92  90  87  86  86  84  78  56  51  56  56  61  65  63  67  62  57  57  58  61  56  54  57  62  62  65  64  65  63  68  68  69  74  79  84  95  98  97 101 103  94  85  73  69  65  54  78  97 106 107 111 124 146 203 210 212 211 211 212 212 212 212 212 213 211 212 211 212 212 211 210 209 213 212
 172 174 177 177 177 179 180 182 182 184 185 186 186 187 188 189 182 108  89  87  83  85  88  86  74  49  58  61  67  69  71  72  72  70  69  68  63  68  67  62  61  56  52  57  58  52  52  62  67  70  77  84  91 100 107 110 110 110  98  82  69  65  65  54  81  96 103 106 111 123 153 204 212 212 212 212 212 212 213 213 213 213 213 213 214 214 213 213 212 212 211 212
 175 175 177 177 178 180 182 184 184 185 185 187 188 190 190 190 186 121  91  87  83  88  90  87  72  50  62  64  70  73  72  76  81  81  82  76  70  73  75  72  67  62  58  54  56  60  66  73  75  78  86  90  90  93  90  90  85  79  68  59  70  69  66  60  88  96 106 104 107 118 166 206 212 213 214 214 213 214 215 214 215 214 214 214 214 215 214 214 214 213 213 213
 176 177 179 182 179 181 182 185 183 185 187 187 188 190 190 192 187 135  93  89  85  89  91  88  76  53  62  61  65  67  65  69  73  74  73  70  69  71  70  68  68  70  71  72  72  72  71  66  67  69  71  70  71  69  62  51  41  38  37  59  73  73  70  72  96 103 106 104 108 117 178 211 213 214 215 216 214 216 215 214 215 215 216 214 214 215 216 214 215 214 213 214
 177 177 181 179 182 183 185 186 187 188 188 189 190 190 192 193 191 157  86  85  86  86  91  89  81  59  67  64  62  44  40  46  50  53  53  55  56  58  57  55  58  60  60  64  63  58  60  60  57  61  65  69  79  71  53  35  29  34  50  80  80  80  72  84 100 104 103 103 110 122 189 213 216 216 218 214 215 215 217 216 215 216 216 216 214 216 215 215 217 216 215 215
 179 178 181 181 183 184 185 186 188 189 190 190 191 193 191 194 194 169  92  84  82  85  88  89  88  71  72  68  66  57  35  29  30  30  43  61  64  59  60  58  58  59  59  59  60  59  63  69  68  75  84  87 109  84  58  29  30  52  80  90  85  83  76  89 101 106 103 102 109 124 204 215 216 217 217 219 218 217 218 219 218 216 215 217 216 215 216 216 216 215 215 216
 180 180 183 182 183 185 186 186 187 189 190 191 192 194 193 194 195 186 128  88  84  86  88  86  91  86  77  72  71  70  58  39  29  20  39  68  87  67  72  66  69  85  90  75  70  83 101  98  86 102 108 103 112  78  48  34  55  79  94  95  86  83  85  95  96 100 100 100 111 149 211 215 219 217 218 220 220 218 219 218 219 216 216 218 219 219 219 218 218 216 217 217
 179 181 184 182 185 186 186 187 190 192 190 190 192 193 194 196 198 193 155  88  83  83  82  86  87  89  85  77  73  74  73  57  42  28  26  56  90  79  97  93  83 108 111  95  83 105 119 120 105 121 117  97 105  52  45  66  82  97  98  93  88  83  87  98  99  98  97  96 115 177 212 217 219 219 218 219 220 219 220 219 220 219 217 219 218 219 218 218 218 217 218 216
 182 182 184 185 186 187 188 190 191 192 193 193 193 194 196 198 197 195 184 101  85  83  81  85  88  90  92  81  78  78  76  70  58  45  33  27  70  76  89 100  97 110 107 101  90 110 115 121 114 116  97  74  74  58  74  85  96 100  96  90  87  79  89  96  93  93  96 103 127 208 216 218 219 219 219 220 219 220 220 219 219 219 218 220 219 219 218 218 218 217 217 215
 183 182 185 185 186 188 188 190 190 192 194 193 196 197 197 197 199 197 194 137  83  80  82  79  81  84  88  85  83  81  78  79  69  57  51  46  42  42  60  73  83 100  99  92  76 104 105  99  78  77  58  59  69  82  89  99 105 104  98  89  83  77  93  95  83  91  96 102 148 209 217 219 219 219 220 220 222 221 221 222 220 220 220 220 220 219 218 218 218 219 218 216
 183 184 184 186 186 189 189 190 191 193 195 194 196 197 198 199 200 199 198 173  85  79  79  81  77  83  89  84  79  78  78  81  77  67  60  58  52  48  47  46  54  51  54  59  52  60  58  63  67  71  69  77  84  93  95 105 109 106  97  86  83  86  96  89  82  89  89 102 188 214 219 220 220 220 220 219 221 220 221 220 222 220 221 221 220 220 220 219 218 219 218 216
 185 184 187 186 187 190 189 192 192 194 195 195 196 198 199 198 200 200 202 197 134  78  76  74  78  84  85  86  79  75  75  79  81  77  69  64  62  58  54  52  54  55  54  61  63  62  67  68  79  84  82  85  88  96 101 110 109 105  97  93  87  90  96  85  87  86  87 116 214 218 220 219 220 221 221 222 221 221 221 221 221 221 220 221 220 218 220 220 220 220 218 216
 185 185 187 188 190 190 192 193 192 193 196 196 195 196 198 202 201 201 203 201 182  91  72  69  75  76  79  86  84  77  72  78  81  81  77  70  65  64  64  64  61  62  62  68  70  67  73  75  83  84  81  86  89  99 106 109 107 103  98  94  88  95  94  90  87  85  87 168 214 219 219 219 221 220 221 221 221 222 221 221 221 221 222 221 219 219 220 218 219 220 219 218
 185 188 188 190 189 190 192 194 194 196 196 197 198 197 201 201 201 203 204 203 201 164  75  67  67  71  79  82  79  77  74  75  79  81  83  78  71  66  64  68  67  66  67  70  68  66  68  72  73  70  75  86  96 106 110 103 101  99  95  94  89  93  90  88  87  88  98 206 218 220 221 222 222 221 220 221 221 222 220 221 221 220 222 220 220 220 221 219 218 218 219 218
 187 187 189 190 191 191 192 194 194 196 196 197 199 198 202 202 204 204 203 206 203 202 136  70  66  69  76  78  78  74  76  74  78  78  81  82  76  70  68  68  66  63  66  68  68  69  70  69  73  75  84  88  99 106 105  98  96  99  97  97  99  92  85  83  86  84 124 209 218 221 220 220 220 221 222 221 221 221 220 222 221 220 220 220 220 220 221 221 220 217 218 218
 187 188 190 190 192 192 193 194 196 197 198 199 200 200 202 203 205 205 204 206 203 204 201 131  72  69  70  74  73  68  73  74  75  79  79  81  81  77  75  72  71  70  67  69  73  74  75  79  81  83  88  93  94  98 100 102 100  99  96  96 100  90  82  80  82  87 153 213 219 221 222 220 222 221 220 220 220 220 220 221 221 222 220 221 220 220 219 219 219 219 218 217
 188 190 189 191 191 192 193 193 196 196 198 200 199 201 203 202 204 205 206 205 206 206 204 197  79  64  64  71  69  70  79  75  75  82  80  80  77  75  75  74  77  75  73  73  73  74  78  79  79  79  83  87  91  95 100 100 100 100  97  93  92  79  80  80  76  92 166 215 220 220 220 221 221 221 222 221 222 220 220 220 220 221 221 221 220 220 220 218 220 218 218 218
 189 190 191 190 193 194 194 196 198 199 199 199 199 201 203 201 204 206 206 204 206 207 206 202 132  57  62  68  67  71  78  80  73  80  82  82  77  73  71  71  71  69  67  65  63  66  67  70  72  76  81  84  90  95  98 102 104 105  99  93  86  77  78  76  83 108 176 217 220 220 221 221 221 220 221 220 221 221 222 221 221 221 221 219 220 220 220 219 218 218 218 217
 189 191 191 192 193 194 194 197 198 198 200 199 201 201 204 202 204 204 205 207 209 207 206 205 155  58  55  60  60  58  70  76  80  79  81  84  78  77  76  73  72  69  66  61  59  61  64  68  73  76  82  90  92  96  98 102 100  99  97  92  80  76  81  75  92 107 183 217 221 221 220 221 221 221 220 220 221 220 221 222 222 222 220 220 220 220 220 218 218 218 219 217
 190 190 192 193 195 195 196 198 197 198 198 202 201 205 205 206 205 207 206 207 208 207 208 205 177  70  55  53  57  55  61  70  75  76  82  83  81  78  77  73  71  72  63  61  62  62  69  70  75  80  84  91  93  97  96  98  96  92  90  85  76  77  72  73 101 111 198 218 220 220 220 221 220 221 221 220 220 221 221 221 222 221 220 220 220 219 220 219 220 219 218 216
 191 192 193 192 195 196 198 197 198 199 200 200 201 201 204 206 206 206 208 206 209 208 209 208 203  78  63  43  48  50  51  69  75  76  73  80  82  77  77  75  72  72  69  71  74  75  80  81  83  86  89  95  96 102  96  90  92  88  81  73  68  68  66  84 101 114 205 216 219 220 220 221 221 220 220 221 221 220 221 221 221 221 220 220 218 220 220 220 219 219 216 217
 192 193 194 196 195 195 197 198 201 200 201 201 201 204 205 206 207 207 207 208 209 207 208 208 200  87  66  52  43  46  47  64  70  78  73  76  82  79  78  74  73  73  73  71  77  83  89  90  90  91  94  94  97  98  91  88  92  82  75  64  66  65  72  87 100 124 208 218 220 221 220 219 220 222 220 221 221 220 220 221 221 220 220 217 219 221 220 217 219 219 217 217
 194 193 194 196 194 198 198 200 200 200 201 201 203 205 204 205 206 207 208 210 209 208 208 208 205 108  67  59  40  43  43  47  60  73  71  77  81  79  79  80  80  79  75  78  76  86  89  91  91  91  95  95  97  95  88  87  88  75  70  61  62  69  83  95 102 125 214 220 220 221 221 219 220 220 221 219 221 220 221 219 220 220 220 219 220 219 219 219 218 217 217 217
 192 194 196 195 195 197 199 200 200 199 199 202 202 205 205 206 207 206 208 208 211 210 209 209 205 133  70  61  55  40  37  42  53  66  72  74  74  79  80  82  80  80  74  81  84  86  88  92  91  96  97  94  94  89  83  84  83  69  62  57  69  79  85  90 104 132 214 218 220 220 220 220 219 220 221 220 222 222 221 220 218 218 221 219 220 219 219 217 217 217 216 216
 192 193 195 195 195 196 199 200 201 199 202 203 203 203 205 204 206 207 207 209 211 208 209 208 205 146  72  60  56  46  36  41  45  56  69  75  76  79  80  78  81  82  79  80  84  85  91  92  91  91  88  85  83  78  74  76  75  58  54  61  74  85  88  93 109 138 214 218 219 220 220 220 220 220 221 221 220 220 219 220 220 220 220 219 220 218 219 216 217 218 218 217
 191 191 191 194 196 197 198 199 202 201 201 200 202 202 205 206 206 207 207 208 209 208 207 209 147  99  76  60  55  51  42  34  37  45  55  69  72  79  76  70  76  77  80  78  76  75  78  78  79  76  74  77  75  72  71  65  57  51  56  66  77  86  90  97 116 140 216 216 218 218 217 220 220 220 220 219 219 219 217 219 220 220 218 220 220 217 217 216 215 217 217 215
 192 192 192 194 196 196 198 199 200 200 202 203 203 204 207 204 204 205 204 206 208 203 142  72  74  84  75  66  57  53  52  41  36  36  43  57  67  67  71  68  74  70  68  74  72  69  65  68  69  68  68  72  69  69  64  52  47  50  67  78  80  85  95 103 117 128 129 202 217 217 218 218 219 220 219 219 220 218 219 219 219 218 218 219 219 216 217 217 217 216 216 216
 191 193 193 194 195 195 197 199 199 200 200 200 204 202 173 161 180 157 134 112  92  47  35  63  83  80  75  71  67  60  59  52  44  34  32  45  53  54  61  62  65  57  59  64  68  64  64  60  63  68  66  62  59  56  47  47  57  69  76  82  80  88  97 108 119 133 123  81 131 170 189 217 216 217 219 218 219 218 219 220 218 219 218 218 217 215 218 216 217 216 216 215
 191 191 193 193 195 196 197 198 198 202 187 137  86  46  42  38  38  35  35  33  29  28  28  68  79  77  76  73  72  67  60  57  53  45  36  31  37  45  50  57  63  57  52  56  61  55  59  55  57  55  57  52  49  42  41  51  67  72  79  81  84  95 105 112 120 131 184 106  64  64  63  73 170 220 216 218 219 218 219 218 218 219 218 217 217 217 218 216 216 216 216 214
 190 191 192 192 194 193 196 169 118  74  48  41  37  33  30  30  27  23  22  23  20  22  27  70  75  75  77  75  74  68  66  65  58  51  48  40  34  33  39  49  53  50  51  52  51  49  51  48  46  42  43  41  37  44  54  65  70  76  84  86  93  98 109 117 127 133 186 176  63  52  51  48  65  91 152 188 212 215 216 216 216 218 215 217 217 216 217 216 215 214 216 214
 189 191 190 172 145 120  83  44  39  36  30  29  27  25  23  23  22  17  18  18  17  19  28  70  76  73  74  75  75  70  73  70  65  56  56  52  46  36  31  31  36  39  41  42  43  39  41  40  35  34  34  39  51  66  66  71  78  78  85  88 100 103 109 120 129 134 181 187 114  55  46  41  49  61  65  67  91 140 179 212 219 213 215 217 216 217 215 216 215 214 215 214
  80  61  41  38  38  36  34  30  27  27  24  21  20  21  20  19  19  16  17  16  18  17  27  72  76  72  73  76  72  67  71  70  72  66  57  56  52  49  46  45  39  36  35  34  34  33  34  38  39  39  46  50  60  67  68  71  78  89  93  98 102 104 116 126 132 133 172 199 155  53  44  37  41  53  55  56  58  64  65  74  94 140 173 205 218 214 214 213 214 214 213 213
  36  34  32  30  27  25  25  24  21  21  19  18  17  19  17  17  18  16  16  16  17  17  27  72  75  69  72  76  74  71  72  74  73  70  65  62  60  61  60  52  50  47  46  50  50  46  46  51  55  58  59  58  62  70  76  80  87  95  97  99 103 108 117 124 130 134 154 192 170  53  43  38  39  50  53  51  53  51  52  56  58  62  64  65  85 123 147 170 195 207 214 215
  28  28  26  23  21  22  21  22  19  18  18  17  17  16  18  16  17  15  16  16  16  17  26  69  74  68  72  78  79  81  80  78  75  70  70  66  63  63  63  58  57  54  51  54  54  52  51  58  57  63  67  66  70  79  81  86  92  95  97 102 106 113 121 127 131 134 143 176 170  58  42  35  38  49  51  46  49  47  46  51  52  52  56  55  57  59  60  62  64  74  86  91
  23  22  23  22  18  18  18  16  17  17  17  16  16  16  16  17  17  15  15  16  15  17  22  66  74  69  72  76  80  81  80  79  79  74  71  70  70  61  60  60  57  61  62  59  58  58  56  62  63  67  70  76  85  86  87  92  92  95  99 103 107 114 122 130 130 134 142 165 168  58  40  36  37  47  50  48  46  43  44  46  47  48  50  49  48  50  52  51  52  55  56  56
  22  20  20  19  16  18  18  16  16  17  15  16  15  15  16  18  17  15  16  15  16  17  19  60  76  70  73  76  78  81  81  78  79  77  72  70  67  66  64  64  63  61  64  64  65  65  61  67  68  73  79  83  90  88  89  92  94  96 100 104 108 115 122 130 132 132 142 165 164  59  38  35  34  46  49  46  45  42  44  45  44  45  46  46  44  47  47  49  49  48  46  48
  19  18  18  16  16  18  15  15  15  14  14  16  15  14  15  17  18  15  13  14  14  16  18  58  78  69  71  70  78  80  79  82  81  79  72  71  72  68  66  65  64  64  68  69  67  71  72  73  76  79  85  88  88  86  88  92  94  95  98 103 108 116 124 130 130 129 141 167 161  50  36  34  33  43  48  45  45  42  44  44  44  42  43  42  43  41  43  46  46  45  45  44
  18  16  16  16  16  17  16  14  13  12  15  14  14  15  16  16  16  15  13  14  14  15  17  48  75  68  70  69  76  77  80  81  81  80  76  73  72  70  68  65  64  64  66  69  70  73  78  82  84  82  84  84  85  88  90  92  92  94  98 102 110 116 120 126 123 128 142 178 150  46  35  33  33  42  46  43  43  41  40  42  42  41  42  40  41  41  41  43  45  42  40  42
  16  17  15  15  16  15  16  15  12  14  14  13  13  14  15  15  16  14  13  13  14  15  16  39  72  70  70  70  74  79  80  79  77  78  78  77  74  69  70  71  70  67  66  67  70  71  76  82  84  80  82  83  84  88  88  89  91  94  99 104 110 117 120 124 125 130 141 171 134  37  34  34  33  40  42  40  40  40  40  42  42  41  40  42  40  41  39  42  41  40  37  40
  15  16  15  14  14  15  15  15  14  14  13  12  13  13  13  14  16  14  12  14  12  13  16  27  72  69  71  72  74  79  78  80  80  77  79  79  75  74  71  65  66  70  68  69  71  69  71  75  78  80  81  85  84  88  87  87  91  96  97 106 111 115 117 118 121 131 141 165  99  34  31  30  35  40  39  40  40  40  39  42  40  40  40  39  41  39  41  39  40  38  37  39
  16  15  15  14  12  14  16  15  12  13  12  12  13  14  13  14  15  14  12  13  12  14  15  16  62  65  69  69  72  75  76  78  76  78  77  79  80  78  73  72  71  72  73  71  71  73  71  73  73  75  80  83  86  87  88  89  90  97 101 105 111 113 113 115 120 133 135 167  66  33  27  28  35  38  40  37  38  38  39  40  41  39  40  37  39  38  38  39  37  36  36  37
  14  14  14  12  11  13  14  13  11  12  13  12  13  13  14  14  14  12  12  12  13  15  12  16  44  69  68  71  70  71  73  76  77  77  76  79  80  77  75  75  74  74  76  75  77  76  75  78  80  79  80  83  83  83  85  87  93  97  97 102 104 107 114 114 123 131 133 146  40  29  29  27  36  38  38  37  37  37  39  40  41  39  38  37  40  41  36  39  36  35  35  38
