P2
# Generated by OpenCV 3.4.0
92 112
255
 132 134 135 134 132 132 133 133 133 132 131 133 135 134 135 135 135 134 135 133 133 136 134 133 135 134 135 136 134 134 133 133 133 136 136 135 134 134 134 134 135 132 130 126 117 114 123 142 152 143 127 111 105 102 112 114 114 112 105 106 110 115 112 109 111 107 100 103  99  94  84 103 109 108 109 109 109 107 102  51  31  28  36  31  38  53  97 102 107 107 110 113
 132 133 132 133 132 134 135 134 135 135 135 134 134 135 135 134 136 136 137 136 136 135 134 133 134 135 136 136 135 134 133 135 134 135 135 134 133 131 128 125 124 126 121 118 117 121 131 137 149 152 147 132 108 105 114 117 116 116 114 113 114 115 116 114 112 108 101 103 101  95  87  97 108 110 110 109 111 109 105  39  27  28  30  29  31  36  98 107 109 110 112 114
 132 133 134 136 135 135 136 134 135 135 134 134 136 136 135 134 135 136 136 135 135 135 135 134 137 137 135 137 136 136 134 134 133 134 128 123 117 104  94 104 106 104 104 112 124 126 125 123 136 145 136 127 114 110 118 120 117 108  95  86 109 107 109 115 114 107 105 103 100  98  90  89 105 112 112 112 113 112 108  51  31  26  26  28  30  27  93 107 112 111 115 117
 133 135 134 134 135 134 136 135 135 135 135 135 134 135 135 134 136 136 137 134 136 135 135 133 135 134 134 136 138 136 135 132 127 116  97  88  86  89  99 107 108 113 122 124 133 132 143 144 143 142 138 130 110 101 103 121 117 109  78  63  93 106 110 116 116 115 112 102  90  98  90  83 103 111 114 117 116 115 110  60  30  28  25  26  27  29  82 109 111 113 116 117
 134 134 134 134 136 134 134 135 136 134 135 136 136 136 136 136 135 136 137 134 136 136 138 137 137 136 137 135 135 130 129 123  98  83  71  77  88  94 107 105 103 106 113 116 117 126 133 140 148 144 129 124 120 106  91  93 109 108  84  57  72 107 114 116 116 116 114 106  87  97  93  79 100 112 114 117 120 118 114  75  39  28  25  25  28  40  76 111 115 116 120 118
 136 136 136 135 136 136 134 136 136 138 136 136 135 136 136 136 135 138 137 135 138 138 137 138 135 136 133 133 131 125 103  90  83  84  88  86  93 101 105 105 107  97  95 100 111 115 119 139 137 141 131 118 104  96  85  82  85 108  80  86  85  74 110 117 117 117 116 110 107 103  94  76 101 114 116 121 121 119 116  88  33  28  33  32  31  30  59 114 117 120 121 122
 136 135 135 136 136 135 135 138 137 136 134 136 136 137 134 136 138 136 136 135 138 138 139 136 137 136 134 133 129 112  85  74  74  90  87  90  93 100  97  92  90  99 112 107 107 110 105  98  98  94 103 101  91  81  75  82  72  85  85 104 112  97  77 111 118 116 104 111 111 102  93  76 103 116 119 122 122 122 120 102  26  29  30  31  30  28  49 117 121 122 121 122
 136 136 135 136 134 136 136 136 137 137 139 137 137 138 135 135 136 138 140 137 138 138 136 136 135 133 132 126 110  89  64  65  72  86  90  74  75  75  86  97 102  95  90  91  99 105 104  98  97  98  82  66  65  69  75  78  70  71  81 106 116 115 104  86 110 113 101 110 112 104  82  85 110 118 121 123 125 125 124 113  32  27  28  32  28  28  48 117 124 125 125 126
 136 135 137 136 136 136 138 137 137 138 139 136 138 137 137 138 135 136 138 137 139 138 134 133 133 128 129 113  91  74  63  61  69  81  92  78  76  72  72  80  90  94  86  81  84  92  91  88  78  74  68  62  58  57  52  61  68  71  68  81 105 114 109  98 100 114 111 113 112 101  72  99 113 119 125 126 126 127 126 122  56  34  30  37  30  34  48 116 125 127 128 128
 137 138 137 136 135 136 138 138 139 139 140 138 137 137 138 139 139 136 139 135 136 134 135 132 130 125 100  84  77  66  76  76  71  76  76  66  60  63  69  68  68  68  77  78  69  74  74  72  66  62  55  49  45  43  40  45  54  60  60  66  86 106 108 106 107 118 117 116 106  70  84 109 119 124 126 126 127 128 124 127 110  95  98  99 102 106 113 126 127 129 128 128
 136 139 139 137 136 138 139 138 138 138 137 142 138 138 138 137 138 138 139 136 135 133 132 117 108  80  73  70  72  75  83  91  84  72  70  68  55  46  56  66  68  61  50  62  68  78  72  64  61  49  46  42  39  36  38  39  42  53  55  61  66  91 100 108 113 117 118 105  61  79 104 117 123 127 128 127 129 130 129 129 130 127 129 128 129 129 130 129 129 129 129 129
 138 139 141 140 139 137 139 138 136 139 138 141 136 136 137 137 138 136 136 133 131 119  86  67  73  72  68  69  72  75  81  74  81  79  68  60  65  51  46  52  60  68  56  48  50  58  62  60  51  46  41  38  32  31  33  36  43  49  50  53  59  65  91 108 117 114  88  57  80 105 118 123 128 129 129 129 130 131 131 132 130 129 131 130 130 130 130 131 131 130 131 130
 139 137 140 139 139 140 140 140 139 140 138 139 136 137 138 139 134 134 119 108  84  65  56  54  61  60  55  57  68  84  91  97  96  91  82  63  63  61  56  48  46  51  57  68  57  48  46  50  46  41  39  35  31  26  30  31  43  50  45  44  49  56  71  91  81  57  65  93 109 121 126 127 130 132 132 133 133 131 132 132 131 130 132 131 130 132 132 131 130 131 132 131
 140 136 139 138 139 139 140 139 138 137 139 139 136 135 130 121 106  84  65  54  53  57  56  52  57  49  51  50  53  58  66  83  94 111 108 102  83  70  66  68  63  56  58  63  71  71  69  62  54  48  44  36  35  31  30  30  35  39  37  40  44  49  59  66  65  81 103 116 122 127 130 129 132 131 134 134 133 132 135 133 132 131 131 132 131 131 132 132 133 131 132 130
 139 138 139 140 139 141 139 138 139 138 134 135 136 131 117  89  71  66  58  54  54  56  56  51  51  54  54  53  52  56  62  63  69  68  73  76  87  77  79  78  78  81  85  96  91  73  75  70  71  65  63  56  52  54  47  34  34  38  31  32  39  44  49  54  64  78 112 124 129 132 132 132 132 131 136 133 134 134 134 133 130 131 129 132 131 133 133 132 135 131 131 131
 140 139 138 139 138 139 138 140 139 139 137 135 133 129  96  85  70  62  56  55  58  59  54  49  52  55  56  55  59  61  64  61  57  52  52  52  62  60  61  73  77  82  84  74  71  79  82  90  88  92  87  81  67  56  51  47  46  44  37  33  37  38  41  47  54  64  75 116 129 132 131 131 131 132 132 130 130 130 131 130 130 124 125 132 132 131 129 129 131 131 130 129
 137 138 138 140 141 139 135 137 139 139 137 136 130 105  73  62  54  52  50  48  50  50  51  51  46  46  54  55  58  68  79  83  77  74  68  57  56  51  49  47  52  62  75  70  72  76  75  75  83  83  81  69  53  50  42  37  37  33  32  36  33  34  39  43  47  54  62  72 104 115 118 117 114 115 114 112 107 105 105 102 104  95  98  96  95  94  94  90  91  89  85  86
 134 134 134 133 134 133 133 133 134 133 132 128 113  80  55  51  55  49  45  47  47  46  45  49  55  54  59  64  66  61  64  78  87  72  57  47  45  39  40  40  46  47  42  38  39  41  50  52  48  44  46  40  37  37  40  43  42  36  32  29  28  30  36  40  43  46  50  56  65  77  80  88  90  92  94  95  94  97 100  97  98 100 103 103 106 106 108 106 109 111 113 111
  84  86  86  86  86  88  85  88  87  85  85  82  75  57  48  44  51  48  45  40  39  39  39  37  43  50  56  66  78  86  81  82  87  90  89  71  63  51  47  44  46  43  44  49  47  46  46  41  38  38  38  36  37  41  49  38  39  36  35  34  29  29  31  34  39  38  44  48  50  62  73 100 121 123 125 124 126 126 128 128 130 129 129 130 131 130 132 132 132 133 132 133
 120 116 116 116 119 120 121 120 120 117 118 115  78  50  42  39  40  43  39  37  39  36  38  36  35  39  48  60  65  79  96 110 111 106 100 109 107 101  80  72  65  61  57  58  58  49  47  43  42  40  31  29  29  38  39  37  36  35  34  37  35  32  29  33  34  38  36  37  40  52  62  72 117 132 134 135 135 135 137 137 135 137 137 136 137 136 136 134 134 135 135 136
 135 136 134 135 137 137 137 135 137 137 133 125  59  48  41  35  37  39  36  35  35  35  37  38  38  42  43  51  61  68  78 100 119 132 121 108 106 111 108  99  84  73  67  64  58  51  48  44  40  38  39  39  48  58  56  60  59  52  51  47  44  37  31  31  32  36  34  31  41  45  48  56  78 128 134 138 137 138 139 138 139 137 137 137 137 136 138 135 136 136 136 137
 137 137 139 137 137 140 139 138 140 139 137 103  58  38  35  35  35  30  29  30  31  31  32  34  34  36  42  49  60  66  75  87  99 116 134 139 129 116 110 102  94  85  84  77  72  65  58  48  47  49  54  54  37  34  50  58  49  39  38  44  44  42  39  41  44  41  41  38  34  36  42  46  56  97 131 137 137 138 139 140 137 139 138 138 138 138 138 135 135 136 136 136
 139 139 140 139 137 140 138 140 140 138 134  64  46  35  35  36  33  30  27  30  28  27  28  30  31  33  41  44  46  54  58  66  73  79 100 112 121 124 135 126 108  99  87  83  78  65  58  56  53  47  40  38  42  52  48  50  45  44  50  52  54  53  53  56  65  52  47  44  34  33  36  41  47  70 123 136 138 138 138 139 138 138 140 138 139 139 139 138 137 138 137 137
 140 141 139 139 139 138 140 140 140 137 117  55  41  34  33  29  30  29  30  33  34  30  28  29  31  34  35  38  42  44  46  50  59  66  72  73  82  90  97 107 117 117 111 102  90  86  76  79  63  51  42  49  56  53  54  53  54  55  57  63  74  72  72  75  72  69  56  45  38  36  37  32  41  61 105 135 138 138 139 139 139 139 140 139 138 140 140 139 138 138 137 140
 140 139 140 139 139 139 138 139 138 135  99  58  38  35  30  28  29  29  30  31  34  33  34  30  30  30  29  34  40  44  45  44  48  54  63  62  65  66  68  64  64  74  80  80  79  72  70  66  56  53  53  57  59  60  63  66  67  66  64  72  80  78  72  81  73  74  66  50  42  42  34  30  33  52  92 126 136 138 138 139 138 140 141 140 141 139 140 139 138 138 137 137
 140 139 139 139 141 141 140 140 139 131  92  52  35  36  35  35  33  34  32  34  34  34  32  29  30  29  30  33  35  39  45  48  52  55  57  59  61  61  57  56  54  55  60  56  54  56  70  67  59  57  65  69  74  76  74  76  75  78  84  78  84  91  88  89  89  89  69  58  55  44  35  28  32  51  77 117 134 140 139 140 141 141 140 141 141 141 140 139 139 140 139 140
 139 140 139 138 141 142 140 140 136 129  80  40  32  33  34  35  34  31  33  31  30  29  30  30  34  34  35  38  38  39  41  43  45  46  48  51  52  54  56  56  55  57  58  60  60  59  60  65  65  68  73  77  84  82  84  83  81  86  90  87  95 100 105 104 103  99  78  61  52  52  45  34  40  48  78 102 130 138 139 141 140 140 140 141 141 142 141 140 141 139 138 140
 138 138 141 142 140 142 142 138 133 128  73  38  36  33  32  33  32  30  30  30  30  32  34  36  36  37  39  42  44  44  48  46  49  49  49  52  53  54  57  57  57  60  62  65  69  66  64  68  70  70  76  81  85  87  87  88  88  90  98  99 105 111 116 115 114 110  92  71  47  48  37  44  53  64  88 104 130 138 140 141 141 143 143 142 143 143 142 141 142 142 139 140
 140 140 139 142 140 139 141 139 135 128  85  43  34  31  28  25  26  26  28  31  33  36  39  42  42  42  46  48  49  50  50  52  53  54  54  56  57  57  62  62  66  64  65  68  69  70  70  71  76  75  81  85  88  91  90  89  93  98 105 110 113 120 123 124 121 117 104  85  58  42  36  36  59  73  78  98 123 141 143 142 143 142 143 144 144 144 142 141 141 143 141 140
 140 140 142 141 142 142 141 141 139 131 110  44  32  28  26  26  26  23  28  34  39  42  43  46  48  49  51  52  55  56  58  60  60  62  60  61  62  61  64  67  68  70  69  70  72  73  73  76  80  80  82  90  91  92  94  94  98 103 111 113 118 125 127 128 126 124 118 104  74  46  39  44  50  55  60  97 126 142 141 144 143 143 144 143 144 143 142 142 141 141 142 141
 140 143 142 143 143 143 142 141 139 130 104  56  34  31  27  26  25  24  31  40  45  46  47  51  52  55  59  60  62  64  64  64  65  64  63  64  65  65  66  68  71  74  75  74  76  75  76  79  80  83  87  90  91  91  95  99 101 106 111 116 122 128 130 129 131 129 125 112  82  51  43  44  40  39  50  80 124 136 143 144 142 144 144 143 143 142 142 143 142 142 143 142
 142 142 144 142 142 143 141 142 140 138 110  72  32  30  25  24  24  28  36  46  49  49  52  55  58  60  63  66  68  69  68  71  70  69  70  68  68  68  70  71  73  73  78  80  79  81  82  83  83  84  87  87  89  93  97 100 102 107 113 118 126 133 132 131 132 135 135 118  93  59  44  38  38  38  46  74 111 139 144 144 146 143 144 144 144 144 144 143 142 142 143 142
 142 143 142 141 143 143 144 143 143 137 127  81  34  28  27  27  26  30  39  49  55  57  58  61  63  65  66  68  70  73  74  74  73  73  74  72  73  75  73  76  75  79  80  81  81  83  84  87  85  84  88  88  88  92  96  99 104 107 114 118 125 132 133 132 136 139 142 127 103  67  45  38  35  41  43  70 107 138 144 145 145 146 146 144 144 145 146 143 145 144 144 144
 143 142 143 142 143 143 144 142 142 140 134  80  32  25  25  26  28  30  44  56  60  62  61  63  66  68  70  73  74  74  76  77  75  76  78  78  76  76  77  79  79  81  80  82  84  84  85  89  84  85  88  92  93  94  97 101 104 110 115 121 127 132 133 134 140 142 143 134 103  72  51  42  35  41  50  66  98 137 145 146 146 146 145 145 145 146 145 145 146 145 146 143
 142 142 141 142 143 144 144 142 143 141 138  92  33  27  28  27  29  35  47  61  66  66  66  66  70  72  74  76  78  77  79  80  79  79  76  79  78  78  80  82  82  83  84  84  85  84  85  88  88  87  90  93  95  98 102 103 106 112 119 126 130 133 135 139 144 143 141 132 102  73  52  40  39  38  44  55  95 129 145 146 147 146 147 146 145 146 146 146 146 146 145 144
 143 142 143 144 144 144 144 144 144 143 142  99  33  30  30  29  30  36  52  63  70  70  74  72  75  75  79  79  80  82  81  84  82  81  80  79  80  81  82  84  83  87  84  85  83  85  85  87  88  88  94 100  99 100 107 105 110 115 124 130 131 135 138 144 146 147 142 129 106  75  57  42  36  38  40  53  90 130 145 146 149 147 147 147 147 147 146 146 146 147 146 145
 142 142 143 144 145 145 146 144 144 144 144 118  37  32  30  30  30  38  54  67  75  75  78  77  78  80  79  81  81  81  80  83  83  81  82  80  80  83  83  85  84  85  85  86  86  84  85  89  91  93  97 101 104 105 108 107 113 122 131 138 142 142 142 146 151 150 139 123 102  71  56  43  35  34  34  50  80 127 147 148 148 147 147 147 147 148 146 146 148 148 146 146
 142 144 144 143 145 145 146 146 145 144 145 134  49  34  33  30  31  37  53  70  78  79  79  80  78  74  79  80  81  83  81  81  82  82  82  82  84  85  87  87  88  88  88  88  88  86  87  91  93  95  99 101 105 107 109 112 120 128 139 144 148 153 154 156 155 152 140 123 103  71  52  44  38  35  33  47  71 129 147 148 147 148 148 147 147 148 148 147 148 147 148 146
 143 144 145 144 144 146 146 145 145 146 145 142  81  35  31  29  31  38  54  74  82  81  80  80  79  80  82  84  81  83  84  84  84  82  86  86  85  89  89  90  91  90  89  89  89  89  90  92  98 102 103 104 105 109 111 117 124 134 140 147 151 158 160 157 160 154 137 127 109  75  51  42  40  34  34  45  68 128 146 149 148 147 148 148 149 148 149 150 149 149 149 149
 144 143 145 144 144 146 146 143 144 145 142 143  94  35  31  30  31  38  59  77  83  84  84  83  81  84  82  83  83  87  84  84  86  85  84  86  88  92  90  92  91  91  89  90  90  92  92  96  99 101 106 109 108 108 109 114 128 134 143 146 150 154 156 159 157 156 141 133 116  81  52  39  36  35  33  48  64 127 147 150 151 148 150 151 149 149 150 148 149 149 149 149
 143 143 145 144 146 146 147 145 145 145 144 142  92  34  31  28  32  39  64  78  82  84  86  86  84  85  84  85  86  88  87  87  88  86  89  88  89  92  94  93  92  92  92  92  92  92  90  93 100 100 105 107 108 108 109 112 119 128 139 145 147 149 154 158 159 156 147 137 122  92  53  39  35  34  35  48  61 133 148 149 152 150 150 151 151 149 149 149 151 151 149 150
 144 144 145 146 145 146 145 145 148 146 145 142  96  34  32  30  32  42  66  78  82  82  84  84  81  82  85  86  86  87  88  89  90  88  88  86  89  92  93  93  95  92  91  91  92  91  91  91  96  97 103 102 103 108 108 109 113 123 129 135 139 139 145 151 152 159 156 145 130 102  51  36  35  35  37  49  70 137 151 152 153 150 151 151 152 151 152 151 151 150 150 149
 145 145 147 146 146 146 146 147 147 146 145 144  95  36  35  31  31  45  71  80  83  82  80  78  75  75  76  81  85  87  87  91  93  89  89  88  89  91  93  92  93  95  92  90  90  90  91  90  94  96  97  95  97 100 102 104 106 111 117 118 123 126 127 130 128 141 159 146 128 105  60  35  35  37  42  45  90 146 154 154 153 151 153 153 153 151 152 153 152 153 151 149
 146 146 147 146 148 147 147 148 146 145 146 145  97  38  34  30  30  51  73  81  83  77  69  66  68  70  70  76  79  83  86  87  88  86  90  89  88  89  92  92  93  92  90  92  90  89  89  91  92  90  88  89  89  91  92  92  89  93  95 100  99 100  97  98 102 105 118 144 127 111  62  35  33  37  42  50 115 151 158 155 153 153 154 154 154 153 154 154 153 152 153 152
 146 145 149 145 147 146 147 147 146 150 148 145  96  37  33  30  28  52  78  83  75  60  53  51  52  56  61  59  61  67  73  78  76  83  86  88  85  88  90  90  93  90  91  90  90  89  88  91  88  85  83  80  78  79  80  69  68  67  66  68  72  70  76  82  88  93 106 119 117 113  69  36  32  35  42  64 134 158 161 158 156 155 155 154 156 156 155 155 155 154 154 154
 146 145 146 147 149 146 147 147 146 148 146 148 113  34  34  29  29  55  80  68  50  47  46  44  45  51  52  48  44  46  50  61  59  69  71  78  81  86  84  89  92  90  90  91  91  91  89  88  87  84  78  73  62  63  58  54  55  51  46  44  46  54  61  67  74  83  91 110 118 108  82  39  32  38  41  76 147 162 162 158 157 157 160 158 157 157 159 157 156 156 156 157
 147 147 149 149 150 149 150 149 149 149 150 146 127  37  33  26  27  54  79  63  47  40  43  48  49  47  49  47  43  40  39  44  52  54  56  68  74  80  76  83  87  88  88  85  86  89  86  84  79  74  66  65  54  56  53  49  45  43  40  39  41  44  52  50  54  70  90 115 117 115  91  42  34  36  43  87 159 168 165 163 160 162 162 163 161 159 159 161 162 159 160 159
 150 149 151 152 150 149 152 150 150 152 151 149 138  47  34  26  28  54  78  52  48  49  47  48  53  52  48  44  44  45  44  44  47  48  51  62  65  70  71  79  81  86  85  83  85  81  79  74  71  68  63  60  54  52  51  47  46  45  41  45  51  53  59  57  62  76  93 105 116 118 103  49  35  39  43 112 166 170 166 166 162 162 163 163 165 164 165 164 164 163 163 163
 150 150 151 150 151 153 152 151 152 152 151 148 150  68  35  28  29  59  76  53  49  51  52  54  58  62  59  55  56  58  54  57  53  51  49  55  62  65  67  72  75  81  82  80  83  80  75  72  69  66  64  59  53  54  59  57  56  56  56  61  60  61  67  68  74  86  93  96 110 121 112  56  39  43  42 136 170 171 169 168 167 167 168 165 168 166 167 167 167 166 166 165
 151 151 151 151 151 152 153 154 154 154 153 152 150 101  33  29  28  59  76  58  58  61  60  65  66  64  59  59  59  54  54  55  58  60  59  58  60  61  61  66  74  78  82  81  83  80  78  73  69  66  65  64  62  63  59  52  48  47  47  48  52  60  66  72  79  91  95 102 114 124 118  66  45  44  40 148 173 172 171 169 169 170 170 169 170 169 168 170 170 169 168 167
 151 152 151 153 153 155 154 154 154 155 152 152 147 126  35  29  28  62  83  65  65  67  69  67  62  57  49  46  45  40  40  36  35  39  51  60  61  63  66  69  73  79  83  83  86  84  81  73  71  67  67  66  60  50  41  41  39  34  33  33  37  45  48  56  68  83  96 105 116 125 122  80  47  46  58 169 175 176 175 171 172 172 172 171 174 171 171 171 170 171 172 171
 153 153 152 153 154 154 154 154 157 156 156 154 149 107  45  30  30  70  88  76  71  70  67  58  47  46  45  36  30  26  27  29  33  36  38  46  55  64  67  70  72  78  85  87  90  89  88  81  73  67  62  54  44  43  43  37  33  28  28  35  46  37  38  55  52  68  88 100 116 129 125  80  45  45  81 185 191 177 175 174 174 175 175 175 175 175 174 173 174 173 171 173
 152 153 153 154 153 155 156 156 156 159 158 158 154 121  47  31  34  77  90  85  79  72  62  49  46  38  28  41  36  28  21  23  31  38  42  44  47  56  63  70  76  81  84  89  98 100  99  90  74  65  58  48  46  46  52  49  37  29  28  40  61  76  48  38  46  61  80  97 114 131 135  96  50  46  85 143 175 177 175 177 176 177 177 176 176 176 177 177 177 176 175 176
 153 153 154 156 155 156 158 159 159 159 159 157 153 151  56  32  35  77  91  88  80  71  59  45  35  33  60  81  42  36  29  25  35  51  50  46  49  53  64  68  73  81  85  93 104 107 109  98  78  69  62  52  46  47  62  61  44  33  32  41  67  89  68  70  64  67  82 100 117 133 141 108  54  48  67  91 110 169 177 179 179 179 178 178 179 178 178 177 176 178 178 177
 155 155 156 158 158 157 158 160 160 162 161 161 159 155  63  32  32  79  92  88  82  71  61  49  46  47  60  86  67  38  29  31  40  56  49  38  43  56  63  64  69  81  87  95 103 108 112 107  84  73  72  55  42  41  49  61  46  39  39  49  78  71  72  86  94  92  94 108 129 141 146 122  57  49  56  78 119 174 180 182 183 182 182 184 181 182 183 181 180 180 180 180
 159 156 157 159 161 160 160 161 161 163 162 161 162 159  56  31  31  87  93  89  82  73  67  62  59  54  50  54  59  48  37  37  45  45  45  48  54  60  62  65  72  81  87  95 103 109 113 114  95  80  73  64  56  49  50  53  50  52  52  56  61  69  91 101 110 110 111 124 142 150 151 136  61  46  56  79 146 178 183 184 184 184 185 184 185 184 185 184 185 183 184 184
 158 157 159 159 161 162 162 163 162 163 164 165 162 151  48  32  34  93  96  93  88  80  78  78  76  68  62  56  54  51  49  51  49  50  51  55  59  60  63  69  76  85  94  98 103 111 117 122 107  90  78  67  56  52  52  54  55  56  58  62  68  84  96 108 118 118 120 138 151 161 158 147  68  48  64  90 158 182 186 186 187 187 187 187 186 186 187 187 186 186 186 185
 159 160 161 160 162 163 162 165 164 165 166 167 166 149  51  33  37  93  99  98  91  86  84  81  82  79  75  72  68  63  59  61  55  52  51  54  56  63  68  75  81  88  98 102 106 110 121 123 113 104  90  77  64  59  55  56  62  62  66  72  79  87  98 109 117 122 131 148 155 163 163 152  82  53  72 106 166 187 188 190 189 189 189 188 190 190 189 189 187 188 188 189
 161 161 163 165 161 165 166 166 165 166 167 168 164 161  71  36  40  98 100  99  94  92  89  86  85  83  80  75  70  66  64  60  57  55  56  58  65  70  74  79  84  89 100 105 108 115 127 127 119 113 105  95  83  74  69  66  69  71  72  77  86  94 103 115 120 129 145 156 161 164 164 154  89  57  76 112 175 189 190 191 190 191 192 191 191 192 191 191 190 190 190 188
 163 164 164 163 165 167 166 167 168 168 167 170 166 164  98  42  53  96 100 100  95  95  90  91  90  87  86  79  76  71  67  66  64  64  67  69  76  80  81  84  86  87  98 108 113 123 131 128 120 119 117 114 105  95  88  80  79  83  83  88  92 100 107 116 124 139 152 162 166 168 165 153  93  61  73 120 186 189 192 192 192 192 191 192 193 193 194 192 192 191 192 190
 165 163 166 166 168 168 170 169 171 170 170 169 169 169 121  49  57  99 102 102 100  99  97  95  96  92  88  84  81  79  74  74  73  73  77  79  82  84  86  88  88  86  97 108 118 126 131 130 122 122 123 121 118 111 106  97  91  89  90  92  95 103 110 118 129 142 154 163 164 164 161 153  98  58  71 134 187 193 193 194 192 194 194 194 194 194 193 192 193 194 193 192
 166 166 168 168 169 168 169 170 169 170 170 172 171 172 135  49  50  98 102 102 103 102 102  99  96  93  87  86  84  83  82  82  81  80  84  83  88  86  87  90  88  87  99 106 118 132 135 129 121 123 124 126 122 114 112 108 101  97  94  95  97 105 112 120 130 139 150 156 162 159 153 147  96  56  81 149 190 195 195 195 195 196 196 196 195 195 195 196 196 195 193 196
 168 168 168 169 170 169 170 170 172 172 172 173 173 173 158  63  56 100 103 106 107 104 103 102  99  94  89  88  88  86  87  86  89  87  88  88  89  87  89  88  88  90  97 108 125 141 136 128 121 120 124 125 121 112 109 109 110 108 101 101 103 105 112 118 129 140 147 147 149 151 150 147  86  63 101 168 194 199 197 199 198 198 200 198 197 197 199 199 197 197 195 197
 169 168 169 169 170 171 170 171 173 174 173 175 174 174 174  90  60  97 102 104 105 104 103 102  99  96  92  92  89  89  91  90  91  91  92  89  88  87  88  87  86  92 100 111 132 151 144 133 127 120 121 124 121 112 110 108 111 112 108 109 108 109 111 119 125 134 139 140 141 142 142 143  86  98 145 183 197 199 198 199 198 200 201 202 201 200 199 200 199 199 197 198
 169 170 170 170 171 172 173 172 173 176 175 176 176 176 174 104  68  95 101 101 103 103 102 101 100  96  96  97  95  95  96  96  95  94  92  91  87  88  86  86  89  95 104 114 136 159 157 148 141 131 119 122 118 114 110 109 112 113 111 113 112 114 114 119 124 129 132 133 135 136 137 133 105 142 163 192 199 200 200 202 202 202 203 203 202 202 200 201 202 203 202 200
 170 170 171 172 171 173 174 175 176 176 177 178 178 178 175 129  92  90 100  98  99 101  99  98  97  97  98 100  98  98  98  96  97  94  95  92  87  84  80  86  98 103 111 121 140 162 163 158 154 144 131 116 113 112 107 112 112 112 112 113 115 117 122 124 127 130 128 132 129 128 134 131 124 138 163 195 203 203 203 203 204 204 204 203 203 202 202 203 202 203 203 201
 170 171 172 174 172 174 177 175 177 178 180 178 178 180 179 146 102  94  97  98  97  97  97  96  97 100 101 101 102 100 100  97  96  95  93  90  85  79  81  91 101 104 111 121 138 160 173 167 162 156 147 123 102 106 105 108 111 114 112 114 116 118 123 127 130 132 128 127 125 125 129 124 113 128 164 199 205 204 204 204 204 204 205 205 206 205 205 204 204 204 204 201
 173 174 174 173 172 176 176 176 178 180 180 181 182 183 181 164 101  92  95  95  95  95  95  95  97 100 101 103 102 102 100  98  96  95  91  85  78  80  86  95 100 102 106 115 129 146 164 167 165 161 158 141 107  97 100 104 107 110 111 114 118 122 125 132 133 132 130 125 122 122 127 125 141 152 170 202 205 206 206 205 206 206 206 206 205 206 204 205 206 204 204 204
 172 175 174 176 174 177 177 180 181 181 182 183 183 184 184 166 107  90  95  94  94  96  95  93  97  99 104 105 101 101 102  99  93  92  87  79  79  88  89  95  97 102 103 107 119 128 144 159 158 157 154 144 129  93  91  99 104 109 110 116 122 126 130 132 134 132 124 124 125 123 122 116 140 164 183 204 208 208 208 208 207 207 208 208 207 205 207 205 207 205 206 206
 176 176 176 176 177 178 179 182 182 182 184 184 185 184 186 176 107  89  92  92  93  92  94  94  97  99 101 102 102 100  99  96  91  87  84  76  85  85  85  85  89  96  98 101 102 106 116 136 134 124 121 123 131 108  90  94  98 108 112 118 118 124 131 132 133 131 126 121 125 122 122 112 117 146 194 206 208 208 210 208 209 208 209 208 209 207 208 208 208 206 206 206
 177 178 178 177 178 180 179 181 183 184 186 184 186 185 187 184 136  94  91  91  92  92  94  96  98  99 102 101 102  99  99  98  93  85  83  78  85  84  82  78  81  85  90  90  90  92 100 108 109  94  96 100 111 107  91  92  97 106 111 117 120 123 128 132 132 130 125 122 122 123 123 115 178 202 207 209 211 211 210 211 211 210 210 210 210 209 210 209 210 208 208 207
 176 178 179 180 181 182 182 184 184 186 185 187 187 188 190 189 186 152  94  93  91  92  92  98 100  99 100 100  99  97  97  94  89  87  82  76  80  76  72  69  68  71  78  80  79  80  82  88  72  66  69  82  91 100  94  92  96 105 110 115 118 124 126 130 130 128 126 124 123 122 126 143 199 207 209 211 211 211 210 212 212 212 212 210 212 211 211 209 209 208 210 211
 178 179 180 183 184 184 182 186 185 186 188 189 189 189 189 191 190 185 111  94  90  89  92  96  97  98  99  98  97  95  93  92  88  85  81  73  73  70  57  44  38  56  66  69  70  71  71  69  49  44  51  67  81  96  98  94  94 102 108 114 118 121 123 126 128 129 126 124 121 122 123 155 206 212 212 213 212 213 213 214 213 213 214 213 213 213 211 211 211 211 210 211
 179 182 183 184 184 186 186 186 186 188 188 188 190 192 193 193 195 191 125  91  90  92  84  94  94  95 100  99  97  94  93  91  86  86  82  76  67  62  57  56  56  64  66  68  67  70  73  71  70  63  62  70  80  97 103  98  94 102 109 113 117 119 120 124 129 128 127 126 125 126 124 178 208 212 213 214 215 214 214 213 214 214 214 214 213 213 212 212 211 213 211 212
 179 183 184 184 186 187 188 188 188 190 189 189 193 193 195 193 196 192 135  91  88  91  91  92  94  97  99  99  97  97  95  91  86  84  84  79  70  64  59  58  61  65  63  66  68  70  71  70  75  76  77  84  88  97 100 101 100 103 110 116 118 120 120 123 125 126 129 126 123 127 131 189 211 213 214 214 215 216 214 215 214 216 214 216 214 213 215 214 213 214 213 213
 181 183 185 186 186 187 188 188 189 190 190 190 193 193 195 194 195 193 165  94  89  90  92  92  94  95  96  96  95  96  93  90  88  86  85  80  72  71  68  58  59  60  63  65  66  65  70  71  75  81  84  87  90  98 102 102 102 103 110 118 120 120 120 123 125 126 127 123 121 125 132 202 213 215 215 217 216 216 215 216 216 214 215 216 215 214 215 214 215 214 213 212
 184 184 186 185 187 188 190 190 190 192 194 193 192 194 196 196 197 195 181  98  90  88  90  94  93  93  92  95  97  94  91  87  87  82  82  79  74  72  70  66  58  54  63  63  63  60  64  69  72  75  79  86  90  98 102 100 103 110 111 119 123 125 122 124 123 127 125 120 120 124 122 204 215 215 217 218 216 216 218 216 216 217 217 216 215 216 216 214 215 214 214 213
 185 185 185 185 188 189 190 191 191 193 194 193 195 194 198 198 197 196 196 114  91  87  90  90  91  93  94  94  95  93  89  86  83  81  83  76  73  67  63  63  63  63  65  58  59  55  57  69  76  79  78  86  93  96  97  98 100 109 115 117 124 124 123 125 125 124 120 121 123 127 144 209 215 216 215 216 216 217 217 218 218 216 217 216 215 216 216 216 215 214 214 213
 185 188 188 189 190 190 191 191 192 193 193 195 196 196 200 197 199 199 196 149  88  85  86  86  86  88  92  93  92  92  88  87  82  80  78  76  70  61  60  62  70  69  64  52  52  50  53  66  75  85  87  94  98  95  98  99 102 104 113 116 121 124 124 123 117 117 119 118 121 124 168 211 216 216 217 216 215 215 218 217 219 218 216 216 217 216 216 218 215 214 213 213
 187 187 187 189 189 192 193 193 194 194 195 196 198 199 199 199 201 200 201 168  93  89  86  85  87  88  91  93  94  92  87  84  77  75  76  72  67  66  66  66  71  73  67  54  46  44  55  70  85  93  96 103 104  98 101  99 104 109 110 118 118 124 122 118 115 114 115 114 116 116 186 213 217 219 218 218 218 218 218 218 218 218 218 217 217 216 217 217 214 214 214 215
 187 188 188 190 191 193 194 191 194 195 196 198 197 198 201 200 201 202 201 187 105  85  82  86  90  90  92  94  94  90  85  83  78  76  79  75  73  72  75  71  72  70  70  70  66  65  68  75  81  87  98 111 114 107 104  96  95 102 111 120 119 125 126 120 116 111 114 113 114 117 196 214 218 219 217 216 219 219 218 218 220 218 218 216 216 217 216 216 215 215 215 215
 189 187 189 191 190 193 194 192 195 195 196 197 199 199 204 202 203 203 203 197 125  83  83  86  87  92  94  93  88  91  83  80  82  81  80  80  83  80  75  67  63  62  61  65  67  67  67  66  68  70  74  81  95 107 106  92  88  94 102 115 119 124 121 121 117 112 113 112 110 127 205 215 218 218 217 218 218 218 219 218 219 218 219 217 218 216 215 217 216 216 214 214
 188 190 190 191 190 192 194 194 196 196 197 198 199 201 201 201 202 202 204 200 153  86  80  83  84  87  91  89  89  86  84  81  78  78  77  80  77  68  61  57  58  54  51  54  61  58  57  58  59  62  60  58  64  75  85  81  73  79  85 103 115 117 122 118 112 111 110 110 112 155 212 216 218 219 219 219 218 217 218 220 220 218 219 217 217 216 216 217 216 215 215 215
 190 189 191 191 192 193 194 195 197 196 197 199 201 202 202 203 204 203 204 204 175  85  84  85  87  88  90  93  90  85  80  71  70  69  69  66  56  54  52  48  48  48  49  47  53  51  49  48  46  48  48  48  51  53  58  56  55  66  73  89 110 115 120 117 112 106 107 112 109 173 211 218 219 219 219 220 219 219 219 218 218 220 220 219 219 217 217 216 215 216 215 215
 190 190 192 193 193 193 194 195 198 199 199 198 199 200 202 204 204 204 206 204 202 106  79  80  86  81  88  91  89  84  76  67  58  49  46  45  44  44  41  43  41  39  39  38  42  40  41  45  45  52  60  62  63  63  62  63  74  75  76  88 104 110 112 110 108 104 106 110 100 195 214 218 219 220 219 219 219 219 218 218 218 220 219 218 219 216 218 217 215 215 216 214
 191 191 192 192 193 194 196 195 198 199 200 201 200 202 203 205 205 205 205 206 200 136  73  76  82  83  88  86  90  85  75  66  63  55  49  49  53  58  57  55  52  47  48  48  50  53  54  56  65  74  80  85  92  93  92  93  96  94  88  95 103 106 108 105 102 102 103 103 130 212 216 218 220 219 219 218 219 220 219 219 219 219 220 217 219 216 217 218 218 214 215 215
 190 191 193 192 194 195 195 197 199 201 200 200 200 202 203 205 206 205 205 205 205 192  81  75  79  79  83  87  90  84  76  72  71  72  68  68  70  68  68  68  61  58  58  57  59  63  67  70  74  81  83  86  90  93  95  96  99  98  93  96  99 102 103  98  98  98 100  92 178 214 217 218 218 219 221 219 219 219 219 219 218 218 219 218 218 217 217 217 218 216 216 215
 191 193 193 193 196 198 197 198 199 200 201 203 202 201 203 206 206 207 206 207 207 205 119  74  76  76  78  82  84  80  75  74  76  77  73  70  67  68  66  67  67  66  66  65  65  65  66  68  70  70  71  73  78  83  89  95  95  96  92  92  93  96  99  93  90  90  87  98 204 216 219 219 219 218 219 219 218 219 218 218 219 219 219 219 218 217 218 217 214 215 215 216
 193 194 194 194 197 198 197 198 200 200 201 202 202 204 205 206 207 207 208 209 207 204 176  69  68  70  78  81  83  78  76  74  75  77  72  69  67  64  61  61  59  60  58  57  58  60  58  56  56  59  64  69  71  77  84  90  92  90  85  85  89  91  93  91  87  84  86 136 211 218 218 218 219 219 218 219 219 219 219 219 218 219 217 218 219 216 216 217 216 216 215 216
 193 193 195 195 196 199 199 199 199 200 200 201 203 203 204 206 206 205 207 206 208 207 206 115  66  67  74  74  78  71  75  71  72  73  71  69  67  62  60  58  59  56  53  51  47  48  49  52  54  60  62  66  69  72  77  84  86  85  81  79  89  94  93  90  85  85  84 168 214 219 220 219 219 219 219 219 220 219 220 218 219 219 219 218 219 217 217 215 217 216 215 215
 193 195 197 196 199 199 200 202 199 201 202 202 202 205 206 206 206 208 208 208 208 209 206 193  73  61  65  72  75  73  71  67  65  68  69  68  66  66  62  60  60  55  52  47  40  39  41  47  52  59  65  69  70  74  75  77  82  84  85  85  86  92  91  88  85  80  89 186 216 219 219 219 219 218 219 220 218 219 219 219 220 218 218 219 219 218 216 216 216 215 215 213
 196 197 198 199 198 201 200 200 204 200 202 204 205 206 205 206 207 208 209 208 208 208 209 205 140  65  64  67  71  69  69  68  64  63  64  66  67  64  65  62  64  59  54  48  44  45  46  51  56  62  69  74  72  75  75  74  80  82  79  84  83  88  84  79  81  76 106 195 216 219 218 219 219 219 218 219 218 219 219 219 218 218 218 217 216 218 217 216 216 215 215 213
 197 197 197 199 199 201 201 201 202 203 203 205 205 205 206 206 207 207 208 208 208 209 209 208 196  63  56  60  70  62  61  65  64  62  64  67  69  66  67  66  66  64  56  55  54  58  60  65  69  74  77  75  74  74  78  78  80  80  82  88  89  86  77  75  71  84 108 202 215 216 218 219 218 219 217 219 220 220 219 220 218 218 218 218 216 216 216 215 216 216 215 214
 198 198 199 199 199 200 202 203 203 205 204 203 205 205 207 208 208 209 209 208 209 210 210 209 207  98  47  59  62  62  58  64  64  60  64  63  67  65  64  65  66  63  58  60  60  64  70  74  80  83  89  86  83  76  78  81  87  83  83  82  82  77  70  72  72 100 118 208 214 217 218 219 220 220 220 219 219 218 217 217 218 217 219 217 218 216 216 216 217 215 215 214
 197 197 198 199 199 200 200 201 203 204 204 204 205 205 207 207 209 208 208 209 209 209 209 209 207 129  55  53  56  58  62  64  64  65  64  64  64  66  66  64  65  64  65  62  65  65  71  73  78  85  89  89  89  81  81  82  86  86  85  80  77  70  70  64  83 100 130 212 213 217 218 219 219 220 219 219 218 218 217 218 219 219 218 217 217 217 216 214 214 215 214 214
 195 197 198 200 199 201 199 200 204 203 204 205 206 204 207 207 208 209 209 209 208 208 209 210 205 146  64  45  47  51  52  54  57  64  62  60  60  66  66  68  68  67  67  62  65  66  71  73  74  82  87  84  86  81  77  80  82  83  84  76  72  63  66  69  87  99 143 211 215 218 219 219 218 217 218 218 219 217 218 218 217 217 217 218 217 215 216 215 214 216 215 214
 196 196 199 198 197 199 201 201 203 204 204 204 207 206 207 207 208 207 208 209 208 208 210 210 208 165  64  50  41  46  46  48  60  65  67  64  61  64  69  73  70  69  69  68  62  62  67  70  73  78  80  81  81  80  74  79  80  76  75  70  64  58  65  83  93  98 147 212 216 218 219 218 218 219 219 216 216 216 219 217 217 218 218 216 217 216 216 215 215 215 214 214
 196 197 198 199 199 199 200 200 203 204 206 205 205 205 207 206 207 206 207 208 208 207 211 189 116  69  66  56  47  40  40  48  58  56  62  64  67  62  72  72  64  62  62  62  60  55  55  58  64  64  66  70  71  71  71  78  83  70  66  58  54  63  79  80  86 105 140 210 214 215 217 216 217 217 218 217 216 216 217 218 216 217 217 216 216 216 218 215 215 215 214 214
 196 197 198 198 198 198 200 200 203 204 204 204 205 207 210 190 183 194 179 158 139 130  81  40  65  83  67  56  53  41  34  41  46  52  59  58  67  70  69  70  60  62  54  55  61  62  56  52  57  60  59  63  63  62  68  76  76  66  62  51  57  72  81  85  91 106 106  83 152 188 206 217 213 217 217 215 218 216 217 218 217 218 217 218 216 215 216 215 216 214 214 215
 195 197 197 199 199 200 201 200 201 199 203 178 136  92  58  42  46  44  34  35  35  34  30  29  74  79  69  60  54  51  38  34  42  48  54  55  56  63  59  59  54  56  52  51  58  62  60  54  56  61  60  58  60  61  67  74  73  61  52  53  69  79  84  89  94 110 148 108  66  67  72  90 163 212 212 215 215 216 216 215 215 215 217 215 215 215 215 214 216 215 214 213
 195 196 196 198 199 199 198 203 176 121  75  53  46  39  36  34  32  29  25  24  23  24  22  35  74  75  70  64  55  52  49  39  36  40  46  52  52  55  50  53  51  62  50  51  55  54  58  53  51  50  55  54  55  60  63  63  62  48  46  66  77  77  83  92 102 113 155 181  65  56  52  48  57 103 150 182 211 213 213 216 216 215 216 215 215 214 214 214 213 213 214 213
 192 197 203 193 176 159 132  88  44  45  39  33  30  27  27  25  25  23  18  17  18  19  20  35  70  72  70  70  66  60  54  51  42  32  36  39  47  47  48  49  49  56  51  52  55  53  52  50  46  45  49  48  51  53  59  56  46  47  67  78  77  79  89  98 106 117 152 185 129  55  48  42  45  60  61  68  80 133 180 208 216 212 213 213 215 214 214 214 213 212 212 212
 110  87  62  51  45  43  38  38  32  29  27  26  24  23  20  23  22  20  16  18  18  18  19  36  70  72  70  70  69  63  58  55  53  44  32  33  40  44  46  43  44  50  46  47  53  51  48  52  48  47  49  49  50  54  49  47  48  62  72  78  79  85  95 102 108 118 147 201 175  54  45  41  38  52  54  56  61  61  62  71  92 124 160 192 213 215 213 212 212 212 212 212
  40  40  36  35  32  31  29  28  27  24  20  21  20  20  19  20  21  18  16  16  16  16  19  36  72  74  69  70  71  69  64  62  58  51  47  34  31  35  40  36  39  41  43  46  49  45  41  46  44  44  48  47  45  44  40  52  66  73  76  81  82  91  98 104 114 118 133 210 186  79  45  39  36  46  52  50  53  52  51  56  60  60  65  68  83 117 147 169 194 208 212 213
  31  30  32  28  26  25  25  25  22  18  20  20  18  18  18  17  18  18  16  16  17  17  17  35  71  74  67  70  70  66  68  66  64  57  54  50  41  32  33  32  33  36  37  41  38  39  37  37  39  38  40  38  40  51  63  68  71  77  79  83  89  96  99 108 116 120 130 197 185 104  47  40  34  45  51  49  47  47  47  50  52  52  53  52  55  58  59  62  62  66  75  84
  25  26  27  25  21  21  20  19  19  18  19  18  18  17  17  16  18  17  14  15  15  16  16  31  71  70  65  71  72  62  67  66  68  63  60  52  51  49  42  36  32  35  33  35  33  36  33  34  37  38  38  45  50  62  66  63  73  78  88  92  92  98  99 113 116 122 126 157 180 111  46  38  33  41  48  48  46  42  45  46  49  48  49  48  50  48  49  48  51  54  55  53
  25  22  25  20  19  20  19  17  18  17  16  16  16  16  16  16  17  15  13  14  15  15  16  31  69  72  64  68  72  70  70  69  66  66  64  59  56  56  57  52  47  47  44  45  46  47  42  43  52  54  60  58  60  63  70  74  81  87  91  92  94  98 103 111 117 119 128 148 173 111  42  36  33  39  48  47  44  42  41  42  44  46  44  44  46  45  46  46  47  49  48  46
  22  20  20  19  19  18  17  17  16  16  14  17  16  15  16  16  16  16  14  14  14  16  16  20  69  70  64  69  72  72  72  73  72  68  65  62  58  56  54  53  53  51  48  51  51  51  49  50  56  56  63  65  66  72  77  80  86  90  90  93  97 101 106 114 118 120 127 144 173 107  42  35  33  38  45  44  42  44  41  45  44  45  43  42  43  41  42  45  45  43  44  44
  18  19  19  17  18  17  17  16  15  16  13  15  16  14  14  16  16  16  14  14  14  15  16  20  64  73  68  67  71  74  75  74  73  72  68  66  63  60  56  54  55  52  56  54  54  53  52  54  57  58  63  69  74  80  83  86  86  89  91  95  97 102 107 115 117 120 128 143 172 100  39  35  29  37  44  43  42  40  41  45  42  42  41  40  41  40  41  42  43  41  41  40
  18  18  17  18  16  18  16  16  15  14  13  13  14  13  15  15  16  15  13  12  14  13  15  16  59  73  65  65  70  73  76  76  74  74  71  69  66  63  62  59  59  57  54  58  57  58  56  56  62  63  71  76  80  83  83  86  88  90  92  95  97 100 108 115 117 116 129 144 179  88  38  33  30  36  42  42  40  39  38  41  42  41  40  41  40  39  39  39  41  39  38  37
  16  18  17  17  15  16  16  15  15  13  14  14  12  15  13  14  15  14  14  12  13  13  13  17  50  72  64  65  68  71  72  77  77  76  72  69  70  66  62  61  60  60  58  62  58  63  64  64  66  70  72  78  79  80  83  84  89  90  93  96  96 103 109 113 116 117 126 146 180  66  34  32  32  37  40  41  39  40  40  39  42  40  39  39  37  38  40  40  38  39  36  36
  15  16  16  16  15  14  16  16  14  14  12  12  13  14  12  14  16  14  14  12  13  13  12  16  41  66  66  67  68  72  73  73  75  75  76  72  72  68  68  66  65  62  61  60  62  62  63  66  68  68  72  74  76  80  85  84  88  92  93  97  98 102 109 111 116 117 126 144 162  45  33  30  28  36  38  39  37  37  39  39  41  39  37  35  37  37  37  39  37  36  33  38
