P2
# Generated by OpenCV 3.4.0
92 112
255
 132 132 132 133 133 134 134 134 132 134 134 136 133 135 136 136 134 134 135 134 136 135 136 135 136 135 135 136 135 134 133 134 135 137 135 135 136 135 137 134 135 136 135 134 135 133 128 112  93 114 115 105 106 103 113 115 114 114 108 109 111 115 114 112 110 105 102 102  98  94  89 105 109 111 108 108 108 106  97  49  30  24  35  31  37  58  97 103 106 110 111 111
 134 131 135 132 133 136 135 134 133 134 136 135 136 134 136 136 135 135 137 136 135 134 137 135 137 136 135 136 136 135 134 135 136 136 134 136 137 136 136 135 135 135 135 134 136 130 126  90 113 117 118 102 101 104 114 116 118 115 111 113 114 117 116 115 113 110 100 103 100  97  85  97 108 112 113 111 111 109 105  37  28  26  31  30  33  38  99 107 109 109 112 114
 133 134 136 134 134 137 136 135 135 136 136 137 137 135 135 136 136 134 136 137 135 134 137 136 137 136 136 134 135 135 135 134 136 134 136 135 138 136 136 135 136 137 138 134 133 128 118  94 116 118 115 112 114 113 116 119 117 111 104  93 111 110 104 113 114 106 102 104 103  98  90  89 105 110 113 113 114 111 106  46  31  26  26  28  30  27  98 108 112 114 113 115
 134 135 136 136 136 136 135 136 135 135 136 136 135 138 136 137 136 139 137 136 134 134 137 135 138 137 136 135 135 136 134 135 136 134 135 136 137 137 137 136 138 138 136 133 132 127 114 102 119 116 110 107 118 118 118 118 118 112  78  68  97 104 111 114 114 115 111  99  94  98  91  80 102 112 116 116 116 114 110  55  31  26  24  26  28  30  92 109 112 114 115 117
 135 136 138 138 136 136 135 138 138 138 137 137 137 136 137 135 135 137 136 136 135 136 137 135 136 136 138 136 135 137 135 135 136 136 135 138 138 136 137 136 136 137 137 136 132 126 111 105 118 119 109 106 119 117 114 113 113 111  83  58  82 110 115 116 116 117 113 106  91  99  95  81 101 112 114 116 118 116 112  70  41  27  25  24  28  39  78 111 114 116 118 118
 136 137 136 136 135 135 135 135 138 137 139 137 138 137 136 134 136 138 137 135 136 135 139 138 137 135 137 137 135 136 138 137 136 136 136 138 137 136 138 137 136 137 138 136 134 128 115 116 122 121 116 122 123 121 122 120 121 119  88  84  78  89 111 115 114 114 115 110 102 101  94  76 101 113 117 119 120 119 119  80  28  28  30  30  30  29  68 113 117 121 120 120
 137 136 136 136 136 136 136 137 136 139 137 136 139 138 136 137 139 138 136 138 137 137 139 136 139 137 137 137 136 137 135 138 137 138 139 140 137 138 138 138 138 136 137 137 134 127 112 112 128 132 147 140 128 121 116 120 126 121  86 117 127 113 115 117 109 112 105 112 109 102  92  78 105 116 119 123 122 122 120  94  29  28  30  31  31  29  54 117 121 121 123 123
 137 138 136 138 138 137 136 139 136 137 140 138 137 137 137 137 138 139 138 138 137 139 138 138 139 139 137 138 137 137 136 139 140 138 137 137 139 137 139 138 139 139 132 130 130 122 116 111 116 122 117 101  96 103 108 117 124 121 117 123 117 116 121 128 126 110 102 110 111 102  78  86 109 117 121 124 125 126 125 111  29  26  27  28  28  29  47 119 123 124 126 125
 135 136 134 136 138 136 136 137 136 138 138 140 140 137 138 138 138 138 140 138 137 139 138 139 138 138 138 138 138 134 136 138 140 137 136 136 138 138 138 141 136 133 135 127 123 110 107 106 109  97  92  90  94  89  79  90 110 116 108 113 109 108  98  97 101 116 121 125 117 101  72  98 113 123 124 126 128 129 126 117  51  32  28  39  27  32  49 119 128 127 128 127
 137 137 137 139 139 136 139 138 139 136 139 139 138 138 138 136 137 139 137 138 139 139 139 138 137 138 137 138 138 138 137 137 136 137 135 135 135 133 134 134 129 123 122 116 109 117 110  98  86  87  91  94  93 101 108 114 100  96  90  82  84  84  83  86  88  91 109 102 103  94  89 104 119 125 126 126 128 129 127 126  95  80  80  84  85  87 101 125 127 128 129 129
 137 138 137 141 140 137 138 137 138 138 139 139 138 137 139 139 140 139 138 138 138 138 139 138 138 139 138 137 136 134 137 135 134 129 126 114 109 107 108 104 108 109 100  95 101  97  83  82  85  82  87  97  97  98  97  97  91  81  72  70  70  69  75  86  87  93  97  92  94  95  99  98 113 123 129 128 129 131 128 130 127 129 127 126 127 128 128 128 129 130 128 129
 137 136 137 139 138 137 140 140 139 140 139 139 139 138 138 136 137 140 138 137 138 137 136 137 137 136 138 135 135 129 117  98  82  83  88  86  90 103 102  98 102 107 111 102  94  94 102 107 103  94 100  97  96  87  83  87  77  69  63  60  57  59  56  74  85  90  93  96  91  93  96  92  86 105 129 129 128 131 131 131 130 130 130 129 130 130 130 128 130 131 129 130
 140 138 140 139 139 140 140 138 139 139 139 141 139 139 136 139 139 137 137 138 137 139 136 137 137 135 135 131 122  97  78  67  60  59  65  81  92 108 113 117 114 106  98  92  87  84  97  98 104 106 106 106  97  89  80  87  86  60  57  50  52  52  49  60  60  67  69  69  73  66  82  86  83  76 111 128 129 129 131 132 131 129 132 132 131 132 131 131 130 133 130 132
 140 138 141 140 140 140 138 137 137 139 138 138 140 138 138 140 140 138 138 138 136 138 137 138 138 138 137 125  82  66  58  55  53  55  53  63  72  95 112 106 104 111 116 112 101  92  93  89  86  88  99 104 103 102  88  82  68  62  51  47  47  43  44  42  47  53  51  50  55  58  62  81  85  80  74 121 130 130 133 131 131 130 132 131 132 131 132 131 132 132 131 132
 141 138 140 141 140 138 139 140 139 140 140 140 140 139 138 139 139 140 139 140 138 141 138 136 134 122 113  95  68  56  55  52  52  52  58  66  76  92  98 106 110 110 110 112 113 102  98  98  94  90  86  96  93 100  98  96  97  76  61  46  44  45  47  43  41  41  49  51  49  47  55  82  77  77  70  69 121 131 134 134 131 132 132 131 133 132 132 133 132 132 132 131
 140 139 138 141 140 140 139 138 138 137 140 139 136 136 139 140 138 140 137 138 135 135 127 114 101  84  75  62  54  52  51  52  51  52  51  53  61  66  77  87 104 104 105 107 111 113 110 114 108 106 104 103  90  88  93  87  87  75  66  54  50  45  43  39  39  35  38  41  44  55  59  54  67  67  72  65  83 127 133 132 130 122 127 130 131 131 132 132 132 131 132 128
 140 138 138 140 140 138 139 138 139 138 139 138 136 137 136 136 136 138 136 135 126 112  98  90  77  67  60  58  49  45  47  49  49  46  43  46  49  58  66  73  83  96 104 106 101  98  89  79  83  81  90 100  92  97  97  91  82  68  57  49  43  44  46  44  38  34  35  38  48  38  37  47  57  63  68  62  61 100 112 113 108 100 105 102 105 102 104 101 101  96  97  95
 137 136 136 135 137 137 135 136 137 133 134 132 132 132 132 132 133 133 129 116 107  93  93  83  67  60  57  59  48  48  47  44  44  43  40  39  40  42  46  52  55  76  92  99 107 104 101  90  78  79  82  98 109 120 125 116 111  96  77  59  46  42  43  42  42  36  34  41  39  40  35  34  48  56  56  53  57  76  91  90  94  93  97  95  97  98  97 100 101 102 103 107
  88  93  93  94  91  90  89  89  87  85  88  87  90  88  86  89  87  87  88  81  77  75  79  61  52  53  51  50  55  46  45  40  41  39  38  37  34  34  35  39  44  48  55  77  88  94  92  92  85  80  68  68  78  85  96  99 105 102  98  95  80  60  42  39  40  38  35  36  37  41  40  38  42  48  58  53  64  89 114 124 125 127 129 128 128 128 131 130 131 130 131 131
 111 114 112 114 115 116 117 116 120 119 115 116 115 114 110 109  91  75  81  90  87  78  63  54  52  50  47  43  48  44  40  38  35  32  32  31  30  30  31  34  34  38  40  47  54  67  78  81  79  81  75  75  81  82  74  70  71  83  87  93  88  72  68  49  41  40  40  37  37  45  46  46  47  48  57  51  62  95 122 136 136 136 137 136 137 136 137 136 137 134 135 136
 134 137 138 138 136 138 138 139 135 138 136 136 131 117 121 114  83 100 111 114  98  74  60  54  49  44  41  43  41  36  36  35  34  31  29  29  29  29  28  30  34  35  37  40  46  47  49  64  73  78  80  80  78  78  79  80  66  56  54  64  69  75  73  66  61  48  45  51  57  46  37  41  44  51  55  56  68  89 123 135 137 137 139 138 138 138 136 138 136 137 138 137
 139 137 139 139 139 140 140 139 141 141 138 134 126 130 124 116  98 123 124 103  76  59  64  54  46  38  41  38  37  36  34  33  33  30  28  29  31  29  28  30  30  30  33  40  40  40  41  44  50  51  53  57  63  73  85  86  82  75  61  49  48  56  66  70  60  57  50  42  36  36  37  36  40  50  54  56  66  90 124 136 139 137 137 138 137 138 137 137 137 138 137 137
 137 140 140 138 138 138 139 140 140 140 137 132 134 130 129 116 126 127  94  70  53  63  55  44  39  36  35  35  36  34  31  30  28  26  27  29  27  26  27  30  30  32  30  29  32  35  35  37  43  45  49  50  53  53  54  57  62  62  59  57  52  49  58  60  61  59  51  49  33  28  28  28  33  36  44  56  60  79 116 134 139 139 138 140 139 138 138 139 139 139 137 137
 137 139 139 138 139 140 138 139 138 138 137 135 135 134 128 122 128 102  52  48  54  54  41  34  37  36  35  34  32  31  28  26  25  24  24  24  24  25  27  30  35  42  42  37  38  33  33  34  38  43  47  46  46  51  54  50  43  39  42  38  42  43  46  49  57  64  56  52  49  35  30  30  31  36  43  46  51  74 108 131 138 140 139 138 138 137 140 139 139 139 138 139
 140 142 139 139 139 140 141 139 140 137 138 138 139 138 127 126 101  47  51  50  48  42  33  35  35  32  34  30  29  27  28  24  24  24  24  26  28  28  32  33  34  36  43  52  51  51  49  56  62  61  62  60  52  51  48  39  36  37  32  32  34  36  40  44  46  48  55  57  56  50  39  34  32  38  37  43  57  78 101 128 138 138 141 141 139 139 139 140 140 140 139 141
 142 140 139 140 141 141 140 140 142 142 139 140 140 136 128 101  40  40  60  44  44  36  35  34  31  33  30  27  25  25  25  24  26  25  26  29  32  33  34  35  36  35  38  41  48  51  49  48  50  48  45  42  42  40  40  40  32  31  30  30  31  35  37  37  40  44  46  52  58  61  52  44  39  40  38  43  61  77 106 127 136 140 141 141 140 140 139 139 139 139 140 138
 138 139 141 137 139 141 141 140 141 141 140 141 141 137 119  45  38  46  51  42  38  33  33  32  31  29  26  24  26  25  26  27  27  28  28  28  29  29  30  34  31  31  32  34  34  37  42  42  43  41  38  42  37  41  38  36  35  34  34  33  32  34  41  44  44  41  44  44  48  53  58  56  51  46  42  44  55  70 104 123 136 141 141 140 141 142 140 140 140 140 141 140
 140 140 141 140 139 140 142 141 140 141 142 141 140 134  75  35  45  46  41  35  33  31  32  32  30  27  25  25  26  27  26  23  24  24  25  27  27  29  28  30  30  32  32  33  33  34  35  39  44  44  44  43  43  42  40  42  42  43  42  42  38  36  34  38  45  50  48  46  47  47  54  57  61  59  52  55  62  82 103 114 133 142 142 143 143 142 140 140 141 142 140 139
 142 142 142 140 141 139 141 141 140 140 142 141 140 113  39  44  42  37  35  31  30  29  29  29  26  22  23  24  23  22  19  19  22  25  30  31  34  36  36  37  38  38  37  38  37  39  41  43  44  44  46  48  48  48  47  47  47  47  48  48  47  48  42  45  46  45  45  46  47  48  53  65  64  59  58  61  69  93 118 127 139 143 142 141 143 142 142 142 142 142 140 140
 143 142 143 142 143 141 142 142 142 142 141 140 131  60  45  43  37  33  30  29  27  28  27  25  23  23  26  22  22  19  20  24  26  29  33  36  40  42  44  45  43  43  42  45  44  46  49  51  51  52  51  53  53  54  54  53  54  54  54  54  54  57  54  56  56  57  56  57  60  68  67  73  80  76  70  66  81  96 123 134 140 142 143 144 144 141 144 143 144 141 141 139
 142 142 142 141 142 141 141 142 143 142 143 141  93  44  39  35  32  27  26  26  25  27  24  21  22  22  23  22  20  23  23  24  28  32  34  40  44  48  47  48  48  50  49  49  51  52  54  54  56  57  58  60  60  61  60  61  62  63  63  63  63  65  64  69  70  71  73  81  85  88  86  83  87  81  74  70  78 106 130 136 140 142 144 144 143 143 144 144 143 142 142 143
 141 141 143 143 142 142 142 142 142 142 142 133  60  40  34  30  28  26  27  26  26  25  24  23  23  22  21  22  24  24  25  28  31  33  37  43  50  51  56  56  57  55  54  57  58  60  62  63  63  64  66  68  68  68  69  69  72  71  68  72  71  73  76  78  80  84  91  99  99 104 102  96  97  93  76  78  86 100 130 136 140 143 144 144 145 145 144 144 142 143 144 143
 143 141 143 142 142 142 143 142 142 142 142 108  47  30  28  26  25  25  24  23  23  22  22  21  22  22  22  23  23  25  27  29  33  36  42  48  54  61  64  62  62  63  64  64  63  65  67  67  69  72  73  73  73  72  74  75  78  79  77  78  79  82  84  86  91  95 100 108 110 114 114 110 108 106  77  68  90 110 126 138 143 144 146 146 143 145 145 145 144 144 145 144
 140 142 142 143 143 143 143 142 143 142 138  80  32  28  25  24  24  23  22  24  23  21  22  22  24  23  24  24  26  26  27  29  32  38  44  51  57  63  65  66  67  71  69  68  66  68  70  73  74  75  78  77  77  76  79  81  82  85  85  86  88  92  91  94 101 105 107 113 119 121 121 119 113 114  86  62  81 120 128 139 145 145 145 144 145 145 144 145 145 145 145 144
 143 142 142 142 142 144 141 143 142 142 135  54  32  27  26  24  24  23  22  22  23  23  22  23  25  24  24  24  27  27  28  30  34  41  48  51  60  68  68  72  72  76  74  77  77  74  76  74  79  79  80  78  80  83  84  85  86  90  91  93  97  96  98 101 109 111 112 119 121 124 127 126 123 123 109  74  76 104 128 141 144 146 145 147 146 146 147 146 145 144 145 144
 143 142 143 142 143 145 144 143 143 140 118  43  33  26  25  24  25  26  23  23  26  24  24  26  25  23  23  25  26  27  28  31  35  41  47  52  64  70  73  76  76  77  77  80  79  78  79  81  81  82  81  84  82  88  88  89  91  93  96  99 100 103 107 109 113 114 116 117 123 127 129 130 132 127 126  81  92 101 141 144 146 147 147 147 147 147 145 146 147 146 147 145
 143 143 143 143 144 143 144 144 143 140 123  61  33  28  24  24  27  26  23  25  25  24  25  25  24  24  24  24  26  28  29  33  35  42  48  55  62  69  75  78  79  81  81  81  80  83  82  83  85  82  83  83  85  86  88  91  94  97  98 100 104 109 111 113 117 117 116 117 125 123 127 131 134 131 132 103  97 111 146 148 148 149 149 148 148 148 148 147 147 147 147 147
 143 144 143 143 144 143 144 142 144 142 134  82  34  27  27  25  27  24  23  25  26  27  26  24  24  24  25  25  25  27  30  34  36  42  50  62  67  75  79  80  82  82  83  83  82  85  84  84  83  79  84  85  86  90  89  93  99 103 102 104 108 113 114 115 118 118 115 117 122 128 131 134 133 133 137 118 106 118 139 148 149 149 149 148 148 149 149 147 148 149 148 147
 144 144 145 144 144 143 145 143 142 144 139  86  34  27  25  26  26  24  25  25  26  25  24  24  22  24  25  23  25  26  29  34  40  46  54  67  74  77  79  82  83  84  84  84  86  84  84  85  86  85  86  90  90  91  94  98  98 102 104 106 110 114 114 115 115 118 116 116 121 126 131 136 136 133 136 132 111 133 137 148 149 149 148 150 148 148 150 149 148 147 149 146
 144 144 144 144 144 145 145 145 143 143 137  85  33  28  24  24  27  24  26  25  23  23  25  23  24  24  25  25  26  28  32  39  46  56  63  71  74  79  80  84  83  85  87  85  87  87  85  87  89  87  88  90  90  95  97  98 100 106 106 108 112 116 118 119 118 119 118 116 122 130 136 136 138 136 138 139 121 134 143 148 150 150 149 149 151 150 149 148 148 149 149 148
 144 144 144 144 145 144 147 144 143 144 141  92  36  27  25  26  27  24  24  25  22  23  26  25  24  26  25  25  29  31  41  49  58  63  70  76  78  79  81  82  83  84  84  84  85  88  88  88  87  87  88  90  94  97 101  98 101 106 107 109 115 121 123 121 122 119 118 117 123 131 136 138 142 140 142 142 128 138 147 151 152 151 152 151 150 150 150 150 149 150 150 148
 144 145 146 145 144 144 145 144 145 146 143 103  35  25  26  26  24  23  22  22  21  25  25  25  24  25  25  27  31  39  52  63  70  72  76  80  82  83  81  81  84  85  84  85  84  82  82  82  83  84  87  89  94  99 101 105 106 109 107 110 115 121 126 124 122 119 115 118 121 131 137 141 144 143 149 151 136 147 151 153 153 151 152 149 152 151 151 150 150 150 149 150
 143 145 144 145 145 145 145 145 147 146 144 113  37  27  24  28  24  23  23  21  23  24  24  24  24  27  28  28  35  50  61  71  76  78  82  82  82  82  84  84  83  82  81  81  77  71  72  73  78  78  78  82  87  95 100 104 110 112 111 110 115 118 125 126 123 119 116 116 121 131 140 148 150 150 152 160 155 154 155 154 152 151 152 152 153 153 150 151 152 151 150 151
 144 144 144 145 144 146 147 145 146 146 145 122  38  28  25  26  24  21  22  20  24  24  24  26  25  27  26  27  41  59  72  78  80  83  85  84  82  81  81  81  79  74  67  59  56  56  55  58  62  64  68  74  82  89  97 102 107 110 110 111 113 116 120 125 122 117 117 116 116 125 140 149 152 152 157 164 164 159 158 157 153 153 153 152 153 153 153 153 151 153 150 154
 145 145 147 147 145 146 147 146 146 145 144 124  40  29  27  24  25  22  21  20  22  21  24  25  24  25  25  30  47  68  79  82  84  86  86  83  83  82  82  78  62  59  52  50  50  51  49  48  48  56  61  64  64  69  79  88  99 103 108 112 110 113 118 122 121 115 116 114 112 122 133 147 151 153 157 163 164 162 163 158 156 155 155 155 155 154 154 155 154 154 153 153
 147 147 147 148 146 146 146 147 148 149 147 136  35  29  28  24  24  22  21  20  23  21  25  24  25  24  26  33  52  73  83  86  89  88  88  87  84  82  81  69  56  48  45  45  43  43  47  55  49  47  55  55  51  51  55  66  77  82  93 101 106 105 112 116 114 113 114 107 109 117 123 134 140 148 152 155 158 165 163 160 156 158 158 157 156 156 156 156 156 156 156 155
 147 147 148 148 147 148 148 149 150 150 148 144  36  31  28  25  24  22  21  18  21  22  24  25  24  24  24  35  57  76  86  88  88  89  90  88  84  81  71  61  53  50  50  51  52  46  50  53  55  52  50  52  48  49  46  50  58  63  72  84  91  98 102 110 109 111 108 104 105 108 113 117 124 130 136 138 141 160 165 162 159 160 160 161 160 160 160 161 160 158 160 157
 148 148 148 147 148 150 149 150 150 151 150 141  44  55  61  33  25  24  22  20  22  24  24  26  25  24  27  40  64  81  88  91  90  93  91  88  84  76  68  58  54  58  56  54  57  59  57  60  64  62  53  50  50  51  51  48  51  53  60  71  81  89  90  99 102 102 102 103 102 102 101  99 103 108 105 104 108 136 163 164 164 162 162 162 163 162 163 163 162 162 162 161
 148 149 148 149 150 149 151 151 151 151 151 135  84  90  85  74  35  26  24  22  20  24  25  26  25  25  30  46  68  87  92  94  96  93  92  88  83  75  66  62  67  67  68  68  64  68  67  68  68  65  63  64  63  57  60  57  55  51  55  65  72  76  84  91  96  96  95  97  94  91  88  84  78  74  71  75  83 108 162 167 168 166 167 166 166 167 166 165 166 165 165 164
 149 150 150 151 150 151 152 152 151 152 151 138  94  72  71  70  47  30  26  22  23  25  26  24  24  26  33  51  71  89  93  97  95  92  92  89  86  79  70  68  72  74  72  70  71  68  66  62  60  54  54  57  57  59  61  65  64  58  57  61  64  70  78  86  90  93  92  88  84  79  72  68  63  57  53  55  70  96 158 169 169 169 169 169 169 169 169 168 166 167 168 168
 150 150 151 152 151 151 152 152 154 154 152 132  84  73  73  79  60  47  34  24  22  23  25  24  25  28  37  54  76  92  95  99  99  96  95  94  90  85  80  74  73  70  68  59  53  50  49  52  47  43  43  42  37  41  52  61  68  66  64  62  61  66  76  84  91  92  88  84  78  74  68  62  57  53  49  55  65 106 168 171 170 171 171 170 170 169 171 171 171 170 169 170
 152 152 151 152 152 153 153 153 153 152 152 115  77  76  80  82  65  60  37  25  23  25  25  23  25  29  39  54  78  93  98  98  99  97  97  92  91  85  80  73  67  57  48  50  52  46  40  37  31  27  26  30  35  36  40  52  63  68  69  67  72  74  77  85  91  94  90  81  72  69  64  63  67  67  69  75  80 152 171 174 173 174 173 174 173 172 172 174 173 173 170 171
 152 153 153 152 154 154 155 155 155 154 149  94  76  79  89  83  68  51  35  29  27  26  25  24  26  29  45  60  82  93  98  97  98  96  97  98  91  84  76  67  60  55  50  41  40  39  48  57  36  25  27  34  37  36  41  47  56  64  68  72  75  76  77  88 100 105  94  79  70  63  55  56  59  68  78  92 125 169 175 175 177 177 177 177 176 175 175 176 175 174 172 173
 154 153 154 153 154 156 155 157 157 157 137  82  81  90  92  85  78  67  49  45  34  29  25  24  25  30  48  69  83  94  99  98  99  99  99  98  90  81  73  65  60  54  52  45  54  75  94  86  47  28  29  37  46  40  46  50  58  64  69  72  78  80  84  91 103 113  98  66  54  47  44  42  46  58  84 129 170 176 178 178 178 177 177 177 178 178 177 178 175 175 176 176
 155 154 155 155 157 158 158 160 159 158 128  82  87  94  95  90  88  79  66  62  46  28  27  25  26  32  48  68  86  95 101 100 102 103 101 100  93  83  77  72  68  66  66  63  56  55  65  74  52  37  36  46  43  37  43  56  63  66  68  72  77  83  88  96 106 124  86  55  54  43  34  48  43  37  86 164 177 179 181 178 180 180 179 181 181 178 178 178 179 177 178 178
 154 155 155 157 156 159 159 161 160 159 129  85  91  89  86  83  72  54  52  62  58  33  33  27  28  31  50  71  85  97  99 102 104 104 104 102  97  92  88  83  76  70  71  72  71  62  59  56  54  49  46  47  45  44  50  59  65  68  69  74  79  81  88  94 108 122  96  70  74  51  32  46  56  46  86 155 176 182 182 183 184 184 183 184 183 181 180 181 181 180 180 178
 155 155 158 159 159 161 161 161 162 162 139  86  90  85  76  72  62  55  61  65  63  42  35  28  31  36  53  73  88  96 101 103 106 105 107 105 100  97  94  92  87  81  79  77  74  71  69  67  61  54  54  53  51  54  59  61  65  70  72  76  79  84  90  97 112 126 127  75  71  60  44  58  73 106 139 162 181 185 184 187 185 184 185 184 184 185 185 184 182 185 181 182
 158 157 159 161 161 162 163 163 165 163 154  86  89  76  60  57  59  59  66  70  71  50  35  29  34  42  61  78  91  95 101 105 106 106 105 105 101 100 100  95  95  90  85  81  80  76  73  71  67  63  61  56  52  54  56  60  67  71  76  79  79  84  91  98 117 135 136 109  75  68  64  67  73 121 175 182 186 186 186 188 188 186 189 188 187 187 185 185 185 185 184 185
 158 160 161 162 161 163 162 164 166 165 162  97  88  74  54  51  56  65  68  83  83  60  36  31  38  57  70  86  92  98 100 105 108 109 107 108 105 104 103 100 101  98  96  92  88  82  80  76  73  69  67  65  62  63  66  69  75  81  84  82  83  85  91  96 108 134 142 138  83  73  72  71  89 140 180 187 189 188 188 187 188 188 188 190 189 188 187 186 187 188 187 186
 161 161 162 162 162 164 165 166 167 165 166 113  88  80  56  51  59  66  69  94  89  69  37  32  42  61  79  88  91  95  99 101 107 106 107 108 109 109 106 104 103 101 100  98  94  88  87  86  83  79  80  77  77  78  82  83  85  88  87  86  88  89  90  92 103 126 144 145 114  80  80  92 113 152 184 189 190 190 190 190 190 188 190 190 189 189 189 190 190 188 188 187
 162 163 164 164 165 166 168 168 169 168 168 135  87  89  71  54  53  56  64 100  95  83  44  32  40  59  80  89  89  95  98 101 104 105 107 110 110 109 109 108 105 104 103 101  99  96  93  93  92  88  88  87  87  86  90  87  90  89  89  92  92  94  90  91  97 114 136 152 143 105 101 108 120 147 186 191 191 192 193 193 192 191 191 191 191 190 190 191 190 189 191 189
 162 166 165 166 166 166 168 168 169 168 170 149  88  90  93  96  82  59  59  93  95  89  52  34  43  63  80  88  90  95  98 101 104 106 107 109 109 108 106 106 106 108 106 104  99  96  94  93  94  93  91  91  90  88  89  88  89  89  88  91  93  90  89  93  96 108 134 157 157 125 119 121 129 147 184 193 193 195 195 192 192 192 193 194 191 192 192 190 191 192 190 192
 163 166 166 166 167 168 169 169 171 170 170 166  99  80  91 104  93  65  52  76  96  91  68  42  54  70  84  87  90  93  96  98 100 101 103 106 107 106 105 104 105 105 103 104 100 101 100  96  96  94  93  94  92  91  88  87  87  87  85  89  90  88  92  96 100 107 122 152 167 146 127 128 133 148 182 193 194 196 195 195 193 194 195 196 195 194 194 193 193 192 193 191
 167 168 168 166 168 169 171 171 172 172 172 170 122  88  87 107  98  82  65  72  95  92  85  63  73  75  88  83  90  91  93  96  99 102 102 102 103 103 103 103 102 103 102 103 101 102 102 100  99 101  96  94  94  93  91  90  87  87  87  87  88  89  88  95 101 107 121 146 174 166 138 132 133 146 181 194 196 196 195 196 196 196 196 196 196 195 196 195 195 193 193 192
 168 168 169 168 170 170 171 172 173 174 173 174 151 101 102 109  97  95  91  94  96  94  89  74  77  82  85  84  87  89  89  95 100  98  96 102 102 102 102 101  98  99  98 102 101 103 104 103 103 102 100  95  94  91  93  88  87  86  86  83  81  82  87  95 105 116 131 148 166 173 160 137 134 145 181 195 198 197 197 197 198 198 199 198 197 197 197 196 195 194 195 195
 167 169 171 169 172 171 173 174 173 175 175 174 174 123 112 103  97  94  90  88  93  94  93  75  79  83  87  85  86  89  90  95  98  94  94 102 101 101  99  97 100 100  96  99 102 104 105 105 105 103 101  98  94  94  93  91  89  85  80  79  75  76  86  98 109 121 133 149 169 179 177 153 139 147 179 196 199 201 200 199 199 198 201 199 196 198 198 198 197 197 196 194
 169 169 172 171 172 172 174 175 175 177 178 177 177 163 110 106 104  97  88  86  91  92  89  75  77  83  83  82  83  87  89  92  95  97  96  98 101  99 102 101  98  97  99 101 101 104 105 104 102 102 101  99  95  92  90  88  81  73  73  80  78  82  87  99 109 121 133 144 158 176 178 169 146 151 182 197 203 202 202 201 200 198 200 201 200 200 200 200 197 197 196 197
 170 171 172 174 175 175 176 176 177 178 179 181 179 181 133 107 104  99  95  92  90  92  88  74  79  79  80  81  85  87  88  92  95  96  93  95  98  98  98  97  98  98  97  99 102 103 104 104 104 103 100  99  91  91  88  82  71  71  76  84  88  92  93 100 107 117 122 131 142 155 164 171 166 157 185 200 204 204 202 202 201 202 200 202 201 201 200 200 201 199 198 197
 171 174 175 176 176 176 178 177 181 180 180 182 181 184 179 134 100  99  95  91  89  91  92  83  83  81  84  82  85  87  87  88  90  94  95  96  97  96  94  95  96  98 100 101 102 102 103 103 104 103 100  99  92  88  84  75  72  76  83  93  95  95  93  94  99 107 111 117 128 132 140 158 168 162 192 203 204 204 205 204 203 203 203 203 203 202 201 202 201 201 199 197
 174 175 175 177 177 178 180 180 181 183 184 183 183 185 184 182 166 126  83  84  82  89  90  82  77  81  82  85  84  85  86  86  91  94  93  95  94  94  94  96  99  99 100 101 101 102 102 102 102 102 100  98  94  89  82  73  68  77  84  89  91  90  87  86  85  88  92  96 103 109 116 129 144 159 195 204 205 205 206 204 205 205 205 205 206 203 203 203 204 203 202 201
 174 176 177 178 177 180 183 182 182 184 184 184 186 187 188 187 186 179  73  85  83  85  87  80  73  76  80  89  86  84  88  88  91  93  95  92  92  94  96  91  96  98 100  99 101 101 101 100 102 101  98  96  92  89  80  71  64  73  84  89  85  82  79  76  73  76  78  80  84  95  98 105 118 151 198 206 205 206 207 204 206 205 204 205 205 205 204 204 204 203 202 202
 177 177 178 177 180 182 182 182 185 184 186 187 189 188 190 190 190 186 138  84  86  81  85  77  70  77  75  82  84  87  89  86  87  88  92  94  94  95  97  85  91  96  99  98 101 103 101 100  98  98  97  96  90  89  82  72  59  68  76  78  74  53  44  46  53  57  62  70  75  80  82  87 116 158 202 207 207 207 206 208 207 208 206 206 206 204 205 206 205 204 203 203
 178 177 179 183 182 184 184 186 186 188 189 188 188 190 191 192 190 191 184  96  87  83  82  77  70  72  74  75  77  86  88  89  86  86  89  92  90  94  96  90  94  94  97  99 102 102 101  99  99  97  96  94  89  89  86  78  65  60  66  68  58  47  48  60  59  56  53  66  71  73  85 110 128 161 202 208 209 209 208 209 209 208 207 207 206 206 205 205 204 205 205 204
 177 180 181 185 185 184 186 186 187 188 189 190 190 192 192 192 194 194 192 146  92  84  80  78  72  73  74  82  82  84  87  89  87  88  89  90  89  92  95  94  95  95  95  97  99  98  98 100  99  98  97  94  90  90  88  85  77  63  58  58  61  63  65  67  65  65  69  74  85 105 117 124 130 171 205 210 209 210 210 209 209 208 207 207 208 206 207 208 205 204 205 205
 178 180 182 184 185 186 187 187 189 189 189 190 190 192 194 195 196 196 194 167  95  86  77  73  72  74  75  81  83  79  82  86  88  88  86  89  90  90  89  92  94  93  94  97  97  95  97 100  98  97  95  93  90  90  87  84  82  74  66  59  62  63  63  67  68  65  74  87 106 121 121 124 129 178 207 210 211 210 210 210 210 210 209 207 209 209 209 209 207 207 206 205
 179 181 184 185 184 186 187 188 189 189 189 192 192 193 195 196 198 198 197 190 103  87  79  73  74  73  74  79  80  79  85  87  89  87  87  87  85  90  90  93  94  94  93  94  96  95  97  99  97  97  93  88  88  89  88  85  84  78  70  66  64  64  60  68  71  71  77  85  98 120 126 125 130 191 209 211 212 211 211 211 210 210 211 210 210 208 209 208 209 208 208 207
 183 183 185 186 185 188 188 190 189 192 192 193 194 196 194 197 198 198 197 195 129  89  82  77  70  74  70  80  83  82  86  86  85  80  84  86  84  85  87  90  89  89  91  90  93  94  94  98  97  96  91  89  86  87  84  82  81  78  70  66  66  67  67  73  74  67  76  87  90 115 121 122 134 197 210 212 212 212 211 211 212 210 210 210 210 210 208 211 210 210 207 207
 185 185 186 187 188 189 189 191 189 193 192 195 194 196 196 198 199 198 200 197 146  92  81  74  73  72  70  74  81  80  83  85  85  82  86  89  87  89  85  87  87  86  92  91  93  95  95  96  96  92  91  86  80  78  78  77  77  73  68  66  68  76  80  82  72  64  77  92  95 111 116 120 136 197 211 212 212 212 212 212 212 211 212 211 210 209 211 210 210 210 208 208
 185 185 188 187 186 190 191 192 192 193 194 194 194 196 197 198 200 201 202 201 171  90  79  74  68  62  69  70  78  80  80  83  83  84  82  81  84  86  85  84  88  90  91  93  95  94  94  97  92  85  85  80  76  75  76  72  72  71  71  74  73  82  90  89  70  64  77  97 100 112 114 116 139 202 212 213 213 213 213 213 212 212 212 212 211 210 211 210 209 209 209 208
 185 187 188 188 190 191 192 192 195 193 193 195 198 196 199 201 202 201 199 202 190  95  82  75  71  65  65  73  75  80  83  82  78  80  79  80  80  85  85  86  89  89  91  94  94  93  88  89  88  81  79  76  75  75  73  74  74  76  76  81  76  81  85  90  91  85  90  96 104 106 104 118 155 205 212 213 212 212 213 213 213 212 212 213 212 211 211 212 210 210 211 207
 185 187 187 188 190 189 191 192 194 194 195 197 198 199 200 201 201 201 203 202 197 108  85  78  71  64  64  70  78  80  82  81  80  82  79  82  82  82  81  85  84  86  93  93  90  93  90  89  85  80  74  72  71  73  72  75  77  80  80  75  70  68  67  70  78  86  84  82  91  92  94 118 170 207 213 213 213 213 213 212 212 212 213 213 212 212 211 211 212 210 211 209
 186 186 189 190 191 192 194 194 196 196 197 196 199 200 200 202 202 204 205 202 201 126  86  77  68  65  59  62  68  69  76  73  77  80  78  79  82  83  83  87  88  90  92  91  90  93  89  88  84  74  64  54  56  58  60  63  62  62  59  59  58  58  56  60  65  70  70  77  78  76  94 122 186 211 213 214 215 213 215 215 213 213 213 212 212 212 212 211 212 213 211 210
 186 187 190 190 191 193 194 194 196 196 198 198 199 199 202 201 203 204 204 204 201 145  87  75  71  66  60  60  65  66  71  72  71  74  78  81  79  81  83  86  87  87  85  87  90  92  93  90  81  66  53  45  40  41  45  46  47  48  45  43  42  41  44  47  51  58  67  86  89  88 103 128 203 212 214 214 216 215 215 214 213 214 214 213 214 212 212 212 212 212 211 212
 187 188 190 190 192 193 194 194 197 196 198 200 202 203 204 202 204 206 205 204 202 157  93  77  72  63  60  62  66  67  62  67  70  71  71  70  78  81  77  83  86  86  89  89  88  90  94  87  81  69  66  63  58  54  51  53  55  52  50  49  50  52  59  65  78  82  91  99 100  98 109 143 210 212 215 214 213 214 215 216 214 214 214 213 213 213 213 213 213 212 212 211
 188 191 192 191 193 196 196 194 197 199 199 200 200 202 204 203 205 205 206 205 205 186  92  79  69  66  59  60  59  64  62  62  67  66  71  74  73  72  78  83  82  83  86  86  89  91  90  85  79  75  73  76  73  71  66  66  62  66  70  70  73  80  86  86  97  97 101 103 103 104 113 176 210 215 217 216 216 214 215 215 216 217 217 214 213 212 214 212 213 213 212 211
 189 191 192 190 193 194 196 197 198 199 200 201 202 203 205 204 205 206 206 206 206 199  95  80  74  68  65  55  55  61  63  61  66  62  68  69  70  73  78  79  84  82  81  85  85  87  87  83  82  82  82  82  84  84  78  74  69  68  68  71  80  86  90  90  90  92  96 104 107 103 114 202 211 215 218 216 216 216 216 214 214 217 215 214 214 213 214 213 212 213 211 210
 190 191 192 192 194 194 195 197 198 199 201 201 202 202 203 204 204 205 205 207 207 206 108  82  74  70  66  54  55  54  60  60  60  62  64  65  69  67  68  71  75  80  84  88  88  85  82  83  80  79  83  84  85  85  84  80  77  72  68  69  70  72  75  80  78  80  90 107 101 103 144 207 214 214 218 218 218 216 216 216 216 217 216 216 216 214 213 211 212 213 212 212
 191 192 193 192 193 197 196 198 199 200 199 201 200 202 204 205 204 206 205 206 207 204 131  81  74  71  66  55  52  49  55  60  53  56  64  66  65  58  66  71  74  78  81  81  83  84  79  78  75  71  79  84  83  83  82  80  77  75  70  71  70  68  66  71  73  79  95 104 104 110 190 214 215 214 218 216 217 217 217 216 217 217 214 213 214 213 214 213 213 214 213 213
 193 193 193 194 193 196 198 199 200 201 202 201 203 202 204 206 205 206 207 207 208 204 147  88  74  69  64  58  55  50  53  64  54  54  61  63  63  62  62  63  63  72  81  81  82  81  76  77  76  72  76  79  80  82  81  77  76  72  71  69  67  63  64  68  74  82  97 102 102 137 209 214 214 216 217 218 217 217 216 215 216 216 214 214 215 214 214 214 214 213 213 212
 194 194 194 194 196 198 198 199 199 200 200 202 203 206 206 205 207 206 206 207 209 206 169  89  75  68  66  63  57  52  49  55  49  54  57  59  63  67  67  68  69  70  78  82  82  79  72  78  77  74  75  78  81  85  84  83  78  74  72  69  62  57  61  69  78  91  99 105 107 175 211 215 216 216 216 216 216 216 217 215 216 218 215 216 215 215 214 214 214 214 213 212
 194 193 194 196 198 199 200 199 199 200 202 204 204 205 207 205 205 206 208 208 208 207 188  84  72  70  66  61  60  54  52  52  55  51  51  53  54  55  59  62  64  66  73  76  76  72  66  70  77  72  75  78  81  84  85  84  84  86  81  73  65  60  62  77  87  95 100 105 123 205 212 215 217 216 217 217 215 218 217 216 216 216 215 215 216 215 214 214 213 212 212 213
 195 195 195 198 198 200 200 200 201 202 203 204 204 205 206 207 206 207 209 208 208 208 201  88  73  73  68  66  64  59  53  52  54  52  53  59  50  48  51  59  64  72  70  70  70  71  70  74  78  74  76  78  77  80  82  81  87  90  88  85  84  84  88  93  98 102 103 105 139 211 214 218 217 217 217 217 218 216 218 217 216 215 215 214 215 215 214 214 214 213 212 213
 196 198 198 200 200 200 202 203 202 204 204 205 206 205 205 207 206 206 208 210 209 209 198  98  76  67  69  71  65  62  53  50  52  56  54  56  52  56  57  56  61  62  61  63  62  67  70  72  73  71  75  76  77  81  83  82  86  86  85  87  86  86  98 105 104 105 102 103 168 210 216 218 217 217 218 217 216 217 217 219 218 216 216 215 215 216 215 213 213 213 213 212
 196 197 199 198 200 202 202 202 203 204 204 205 206 205 205 207 207 209 209 209 210 209 206 113  74  65  64  70  68  61  60  55  48  52  56  58  53  52  53  53  56  57  60  55  54  57  63  68  71  73  72  74  73  72  82  83  85  86  87  86  86  87  96 105 104 102 101 103 190 212 217 217 218 217 217 218 217 215 216 217 217 215 216 215 216 216 214 214 214 213 213 212
 195 196 196 198 199 200 200 203 202 204 205 204 207 205 206 207 207 207 208 208 208 209 204 125  80  62  65  64  64  64  58  54  52  46  51  55  54  54  55  53  51  53  55  53  52  56  60  66  72  74  72  79  73  73  76  80  84  82  83  85  78  86  90  97 101 106  98 117 200 213 217 219 217 218 217 217 218 217 216 217 216 216 217 215 216 215 215 213 214 213 214 213
 194 196 198 197 199 200 201 203 203 203 204 204 205 206 206 208 208 208 207 208 210 208 204 131  82  71  69  62  62  62  60  58  52  45  46  49  53  55  52  57  59  53  42  49  50  55  64  63  61  65  72  70  74  71  74  77  82  83  83  87  81  83  90  99 101  97  92 150 211 216 216 217 218 217 216 216 217 216 217 216 215 217 216 215 215 214 214 214 213 212 213 213
 195 197 198 196 200 200 201 201 203 202 202 205 206 206 206 206 208 208 209 209 208 208 207 117  83  74  72  66  63  64  63  63  54  51  45  45  50  51  50  51  50  49  44  48  50  53  56  58  59  63  70  66  71  74  77  78  81  75  77  76  80  77  80  86  86  84  94 189 213 217 217 216 216 217 216 217 218 216 217 217 215 216 216 215 214 217 214 214 214 214 212 212
 195 195 198 198 199 200 199 203 201 203 202 203 205 206 206 207 206 207 207 211 205 182 134  91  78  76  71  66  59  62  62  59  57  54  47  45  42  42  45  48  48  46  44  49  46  50  52  53  54  60  65  62  60  74  73  73  77  73  74  73  74  73  70  73  74  77 138 210 214 218 218 218 216 216 217 216 215 217 216 216 217 216 215 216 214 214 214 214 213 214 213 213
 196 195 199 198 199 200 200 200 200 202 203 204 202 204 206 208 210 196 140  69  89 102  90  82  78  77  76  70  65  61  58  58  59  53  49  47  46  40  42  43  47  45  45  47  53  46  44  45  47  48  54  60  59  68  62  61  67  69  63  63  69  71  68  70  76  91 196 213 215 215 217 217 216 217 218 217 218 217 215 216 217 217 217 215 214 214 214 215 214 213 213 212
 195 197 198 197 200 200 199 199 199 184 157 135 143 155 105  83  66  38  33  63  85  88  78  78  77  79  79  79  70  65  64  63  61  60  52  52  51  47  41  39  42  46  44  46  45  45  44  41  42  41  42  47  54  53  53  57  59  65  60  59  64  63  63  61  70 151 211 213 214 215 217 216 215 218 217 216 216 215 216 216 216 215 215 215 214 214 214 214 214 213 214 213
 197 195 196 197 197 202 181 130  80  44  42  43  40  34  31  31  29  28  31  70  82  81  75  75  75  77  80  79  76  74  70  63  60  60  56  58  50  51  49  44  37  39  40  45  44  44  39  42  38  35  38  41  45  46  46  48  54  57  56  54  53  55  56  52  52  65 100 143 203 213 214 216 215 216 216 216 216 216 216 217 215 214 214 214 216 214 214 214 214 213 214 211
 194 194 197 196 132  69  46  41  35  32  30  28  28  25  23  22  23  24  27  78  80  80  75  74  74  77  77  79  81  78  74  70  62  64  61  58  54  56  53  51  50  41  33  35  38  36  37  43  41  36  35  34  37  39  38  38  44  46  48  45  45  48  82  99  47  50  50  47  68 158 203 214 214 214 215 215 216 216 216 216 214 214 215 213 215 214 214 213 214 212 213 210
 133 111  95  53  38  35  31  28  27  25  23  22  22  20  19  19  19  20  28  74  78  81  74  72  74  77  75  77  79  79  79  74  71  68  63  58  57  57  57  56  51  49  51  41  36  35  36  37  35  36  36  33  35  34  34  34  34  39  49  52  69  92 144 169  58  45  42  41  46  64  72 110 147 196 215 214 213 214 214 213 214 213 214 213 213 213 213 212 212 212 212 211
  38  36  32  33  29  26  25  24  22  21  21  18  20  17  17  19  18  19  25  73  77  82  77  75  72  75  77  79  73  74  75  76  72  69  68  64  57  53  56  56  51  53  52  52  49  46  47  41  40  38  40  40  42  42  51  56  64  78  90  97 105 116 150 174 105  45  41  37  39  51  55  58  59  70  98 140 169 199 214 212 212 212 213 211 213 213 213 212 212 211 212 211
  28  28  26  26  23  22  19  20  18  18  18  17  19  17  15  18  17  18  23  71  80  85  77  74  73  75  78  77  75  68  73  74  73  72  70  67  63  57  55  58  56  56  57  59  56  53  52  51  55  51  52  57  58  66  74  79  89  96  97 104 110 119 142 173 127  46  37  34  36  46  51  52  53  53  54  60  63  64  80 117 142 171 196 212 216 212 210 211 209 209 208 209
  26  24  22  20  21  20  19  18  17  17  18  18  18  17  16  17  17  18  22  63  81  82  76  74  75  76  78  79  78  75  75  77  79  75  72  71  69  64  63  62  63  62  60  58  59  54  59  60  60  55  60  60  69  77  86  91  91  95 101 105 110 120 133 169 142  45  37  32  33  43  47  49  46  46  46  48  51  52  54  54  59  63  60  69  92 113 134 143 141 138 152 163
  23  23  21  19  19  18  18  17  17  17  16  18  18  17  14  17  17  19  21  61  82  82  74  76  75  77  79  79  81  79  79  81  78  77  74  72  73  71  66  64  60  60  60  58  59  59  56  59  61  62  65  73  81  88  88  89  94  99 103 103 112 121 132 172 152  46  36  32  33  42  46  46  45  44  42  43  48  46  48  50  51  53  51  52  54  56  58  58  60  60  62  60
  20  21  22  19  18  18  16  15  15  17  17  16  17  16  15  17  16  17  18  44  80  83  76  76  77  78  76  80  84  82  83  82  78  79  77  76  73  72  72  69  66  66  66  60  59  62  57  64  67  69  74  81  84  86  88  93  99 102 104 107 112 118 132 170 153  44  35  29  32  40  42  43  44  42  42  41  46  43  44  46  44  48  44  46  50  48  47  47  50  52  49  51
  18  20  18  18  16  17  14  13  16  17  17  16  16  15  13  15  16  16  16  28  80  83  76  74  75  74  78  80  83  83  81  85  78  80  78  76  75  74  72  69  67  66  70  67  66  69  67  70  73  77  77  81  83  91  92  95  98 103 103 108 112 116 129 165 150  41  34  30  32  37  41  41  42  42  40  42  43  42  42  42  44  42  42  43  45  43  44  46  48  48  47  46
  18  18  18  17  16  16  15  14  15  16  17  15  17  17  14  13  14  16  16  20  73  82  77  77  75  74  76  79  80  83  82  84  83  82  78  78  77  76  74  71  69  68  69  66  69  69  71  72  74  79  84  89  87  92  92  95  96 102 104 110 112 116 132 154 131  38  32  29  32  38  41  42  40  38  38  41  43  42  41  40  41  42  41  41  42  41  41  44  46  48  44  42
  17  16  17  16  16  15  14  12  15  15  15  15  14  17  13  12  16  15  15  19  59  81  80  75  76  74  76  76  82  80  80  81  82  79  80  80  79  78  73  74  73  74  75  71  75  77  78  81  80  84  88  90  88  93  94  95  98 103 104 107 111 118 134 155 103  34  29  28  31  37  39  40  35  38  37  39  42  41  40  41  41  40  40  40  41  41  39  40  44  44  44  42
  15  14  15  15  15  14  13  12  15  15  14  15  15  15  15  11  15  15  14  17  38  78  81  78  77  77  77  75  78  81  80  79  79  81  81  84  80  81  76  74  69  74  77  78  81  84  84  86  87  89  88  91  90  92  95  97  99 102 102 106 110 118 127 151  69  32  28  26  31  36  38  38  36  39  37  39  40  41  40  38  39  36  38  38  37  38  38  37  43  40  40  39
