P2
# Generated by OpenCV 3.4.0
92 112
255
 132 133 134 132 132 135 134 133 133 134 133 133 134 132 133 136 134 135 132 133 133 135 135 133 134 135 135 134 134 134 135 133 135 134 135 135 136 134 134 134 135 134 134 136 134 133 131 113  96 114 114 108 106 103 111 114 112 116 108 107 110 114 111 107 111 106  99 101  97  94  88 104 109 109 108 108 109 107  94  44  31  27  36  33  39  60  97 101 106 107 110 112
 134 135 136 134 133 134 134 133 134 137 132 132 136 134 134 136 135 135 134 134 133 133 134 134 135 134 134 134 136 135 134 134 135 134 136 134 136 136 136 135 135 134 135 136 132 130 125  93 112 116 117 103  99 101 114 117 117 116 108 110 112 114 113 114 112 108  99 102  98  95  86  98 108 110 110 110 112 109 102  32  27  27  32  30  31  39  99 107 108 109 112 114
 133 135 136 134 134 136 134 134 133 134 132 136 135 136 135 136 137 135 135 135 135 136 133 136 137 134 135 134 134 136 135 134 134 136 135 134 136 135 134 134 136 134 136 136 133 129 117  93 116 117 118 110 111 112 117 116 115 109 104  95 110 109 108 115 114 107  97 102 101  97  88  86 107 111 113 114 115 111 106  42  31  25  26  29  30  29  99 108 110 111 113 115
 134 136 133 135 133 136 134 135 135 135 135 135 136 136 137 136 135 134 134 136 135 137 137 134 136 135 136 135 134 134 135 135 135 136 136 135 135 134 135 134 138 137 136 135 134 128 113 104 117 115 107 108 121 122 119 116 114 108  74  68  98 103 110 115 116 116 113 102  90  98  91  83 104 112 114 115 115 111 110  57  31  27  27  26  28  31  89 109 113 114 115 117
 134 135 134 134 135 136 134 134 137 136 136 136 137 136 135 136 135 134 137 137 137 136 135 135 136 136 135 134 135 136 135 134 134 134 136 136 135 137 137 135 138 137 137 137 134 128 112 112 121 118 108 105 120 126 124 119 117 109  80  55  77 109 113 117 116 117 115 106  88  99  94  79 101 114 116 117 117 115 114  68  40  27  24  25  27  40  76 112 114 117 118 119
 136 135 136 135 136 136 136 137 136 138 136 135 137 136 135 137 138 136 136 137 139 138 138 136 135 136 135 135 134 137 135 136 136 136 138 138 140 138 136 135 136 137 137 135 131 130 127 130 132 132 127 127 127 130 130 129 132 129  85  87  80  86 114 117 117 118 114 106 101 101  95  78 104 114 118 120 120 118 117  79  31  27  30  31  30  30  68 115 118 120 120 122
 138 134 136 135 136 137 137 136 137 135 135 136 137 136 136 136 138 138 136 136 137 137 137 135 137 135 133 136 137 139 138 137 138 137 138 140 139 137 135 132 130 129 124 118 113 109 112 113 123 140 143 139 133 130 133 130 122 129 123 116 110  88  84 113 116 117 104 111 110 101  92  77 103 116 119 121 123 122 120  92  30  30  31  30  31  31  55 117 121 122 122 122
 137 136 138 138 136 138 137 135 136 134 136 137 138 138 134 136 138 138 136 136 136 137 137 136 138 137 135 135 138 136 137 137 139 136 138 137 136 134 133 129 118  98  85  77  88 102 111 113 122 124 128 134 130 126 127 126 124 125 119 126 125 113  90  93 114 112  98 113 114 103  80  84 110 119 123 124 125 124 123 109  30  27  28  30  27  29  50 119 123 126 124 123
 138 136 135 135 136 137 136 137 137 137 138 135 136 137 136 138 138 139 138 136 138 137 136 135 136 137 134 136 136 135 137 138 138 137 137 137 137 133 122 101  90  86  83  84  96 104 109 113 111 103 104 107 115 114 114 121 130 136 139 135 122 110  98  88  93 115 108 110 113  99  72  98 113 122 124 125 126 126 125 121  51  34  28  40  28  34  54 119 125 127 125 126
 135 138 138 138 137 136 136 136 136 138 137 137 136 135 138 139 138 137 138 137 139 136 136 136 138 138 136 138 136 136 137 139 138 136 134 133 131 120  95  84  79  75  81  84  76  89  99 101  92  83  77  83  92  94  99  99 106 100 104  97  97  88  81  80  84 111 116 114 108  70  83 109 118 125 127 124 127 127 126 126  96  77  81  79  83  85  98 124 127 128 129 128
 137 138 138 138 139 140 140 137 137 138 138 138 139 137 137 138 140 138 136 136 136 137 136 136 138 137 138 139 137 134 134 133 133 125 118 105  96  87  77  71  72  75  90  94 107  98  96  85  78  66  67  63  67  79  74  75  78  72  78  82  80  70  60  68  71  84 114 108  72  76 103 116 124 129 129 129 129 129 128 130 127 128 127 127 128 127 128 129 130 129 128 128
 138 139 137 138 138 137 138 137 136 137 138 136 137 138 137 139 138 138 138 135 136 136 136 136 134 133 136 134 130 122 107 100  84  79  78  77  72  71  78  80  87  92 108 108 100  97  88  73  61  54  50  53  59  57  62  55  54  61  74  75  60  58  59  64  68  62  82  58  77 101 116 122 128 128 130 128 130 130 130 131 132 131 129 129 131 130 129 130 130 130 129 130
 138 138 138 138 138 138 139 139 138 139 139 140 138 138 136 139 139 136 136 136 133 134 134 131 125 116 105  93  90  79  72  65  67  70  72  66  66  68  69  78  94  99  98 109 109 100  81  69  59  55  50  43  46  48  47  54  55  59  58  51  48  48  49  53  60  56  59  78 104 118 126 127 129 132 130 132 132 131 133 133 131 132 131 130 131 131 131 132 131 132 131 130
 138 138 139 140 140 139 138 139 137 137 140 138 138 140 138 138 140 138 138 138 137 134 128 112  87  76  68  68  71  75  76  77  76  76  75  70  72  68  69  69  81  87  97 107 115 106 101  86  67  59  49  46  40  46  47  45  46  46  42  44  42  42  45  43  54  53  56  65 109 124 129 130 131 132 131 132 134 131 134 132 131 132 132 132 132 131 133 133 133 131 132 131
 139 141 140 138 138 137 137 139 138 138 141 138 140 139 137 139 137 139 135 136 135 130 118  97  72  63  62  63  67  73  78  78  84  86  80  82  91  86  80  76  80  82  94  98 101  94  78  65  65  66  62  47  43  44  48  46  38  40  42  37  37  37  34  36  41  53  55  56  87 118 131 133 133 134 133 132 131 133 135 134 131 133 133 132 133 131 133 135 132 133 132 132
 140 139 140 139 140 138 140 139 137 139 138 138 136 139 140 138 139 138 136 136 139 130 105  76  61  56  54  56  63  69  76  73  80  85  84  86  90  88  82  83  90 105 119 120 112 104  81  63  52  52  56  52  46  45  41  42  47  47  48  44  43  36  32  31  33  40  51  50  68 103 128 132 133 132 132 133 132 132 132 132 130 123 127 131 132 131 131 132 132 129 130 130
 138 137 137 140 139 140 139 137 137 138 137 138 136 138 137 137 137 139 138 136 133 122  90  62  50  45  47  48  50  55  64  71  71  79  75  68  63  59  62  68  82 106 116 122 121 117 111 106  73  50  46  47  50  51  53  53  58  56  61  64  62  51  39  36  32  37  40  49  63  89 112 121 122 123 122 121 117 118 115 112 113 101 108 108 107 104 102 102 100  99  97  99
 135 133 133 134 135 135 135 134 134 134 134 133 133 133 133 132 134 132 132 131 124  96  69  54  43  38  38  38  43  47  56  62  63  62  63  58  50  53  57  56  64  80  99 113 119 120 113  89  86  82  62  51  47  52  54  53  50  47  49  46  46  48  43  41  38  43  41  48  53  64  79  87  86  87  87  85  87  90  91  90  93  94  98  96  98  99  99  98 101 101 102 104
  92  92  92  92  90  90  89  90  89  88  87  90  88  89  86  87  88  91  86  86  84  69  55  44  38  34  34  33  35  37  43  50  54  52  52  54  55  54  53  52  60  68  81  87  96 105 102 119 106  82  75  62  46  38  33  35  42  47  59  58  53  52  52  54  56  53  46  48  51  66  96 116 121 123 122 123 126 125 123 128 125 126 126 128 128 130 127 129 130 130 132 132
 111 114 111 114 116 116 114 116 117 115 115 114 117 119 119 118 115 117 117 107  77  53  44  38  35  31  31  31  31  30  36  39  37  39  47  52  53  53  58  57  58  71  92  95  92  82  82 103 110 112  94  76  69  58  43  34  34  33  32  31  32  37  48  46  42  42  46  46  48  60  92 127 134 137 136 136 137 137 138 137 137 136 137 135 137 137 134 135 136 136 136 136
 135 136 136 133 136 133 134 135 135 137 134 135 136 137 135 135 135 129 109  82  58  43  37  33  30  29  30  31  31  32  36  33  29  29  32  35  36  38  42  44  52  58  64  73  82  85  81  78  84  96 100  97  82  71  66  47  40  34  31  31  31  36  28  27  32  36  38  43  47  51  86 117 132 136 137 138 138 138 139 139 139 138 138 137 139 137 138 137 139 136 135 135
 136 137 139 137 138 139 139 140 138 139 138 138 136 139 138 135 130  94  68  58  45  37  37  31  31  29  28  30  32  32  30  30  29  28  28  29  34  37  37  37  39  44  52  58  58  57  57  66  64  57  72  80  88  87  76  65  57  43  38  37  33  30  24  24  27  31  38  41  51  47  70 112 127 136 137 138 139 139 138 138 138 140 138 137 138 138 138 138 138 136 137 137
 136 140 139 137 137 140 140 139 137 138 141 140 138 134 131 115  80  71  78  55  42  37  32  30  30  27  29  31  34  28  28  29  28  28  28  31  36  36  37  36  38  41  42  40  43  43  44  44  50  56  57  57  70  72  75  72  61  54  49  41  36  32  28  26  27  33  35  38  48  44  55  93 118 132 140 138 139 139 138 138 140 138 136 137 138 138 139 138 136 138 138 138
 139 138 140 138 138 141 140 139 140 140 139 140 140 122 114 100  83  99  79  49  39  33  30  27  26  28  30  31  33  37  37  38  34  32  35  35  36  36  33  34  35  34  33  30  30  33  40  42  40  43  47  50  52  52  56  60  61  60  57  52  44  40  39  43  43  43  43  44  49  50  51  77 108 123 138 140 138 141 142 140 139 139 140 141 138 139 139 136 137 139 138 139
 139 138 140 140 140 139 140 141 140 140 140 139 127 129 122 100 113 102  65  42  35  30  26  25  27  31  32  30  30  32  35  36  36  33  33  32  33  31  33  32  32  33  35  34  34  34  35  37  40  48  54  59  60  56  50  49  49  52  56  57  54  55  51  50  47  40  35  40  45  47  52  64  91 120 137 140 139 140 140 142 141 141 141 139 140 139 139 138 137 138 138 139
 139 138 140 139 139 142 142 140 139 141 140 134 130 130 122 116 115  85  49  38  31  26  24  26  30  32  31  31  32  31  29  30  32  34  34  32  34  34  35  35  36  37  38  40  40  40  40  42  45  45  45  45  43  47  46  49  51  50  45  49  53  52  53  52  52  59  58  54  41  50  52  55  75 103 132 139 140 140 140 140 140 141 141 141 140 141 140 139 138 138 140 139
 138 139 140 140 139 141 140 142 140 141 139 135 137 131 124 130 102  50  41  33  28  26  26  27  28  27  25  26  29  29  30  30  31  34  35  37  38  39  41  42  42  44  44  45  45  47  48  49  51  50  50  46  47  46  49  47  46  50  47  50  62  66  65  70  77  77  60  53  52  58  59  55  62  89 124 137 141 141 141 141 142 142 143 142 141 141 140 140 140 140 140 139
 140 139 140 141 141 140 141 141 141 140 140 137 139 132 124 130  66  43  35  32  29  28  26  24  25  24  25  27  31  31  36  34  36  40  41  40  42  44  45  47  48  51  52  52  53  52  54  57  56  54  58  60  57  56  56  58  55  57  63  69  77  85  82  80  85  85  78  66  59  66  70  71  57  89 120 137 141 142 142 142 143 141 141 142 142 141 141 141 140 140 138 140
 141 142 144 142 141 142 142 141 140 141 143 141 141 134 128  89  44  37  34  30  27  23  21  20  22  25  29  33  36  39  41  42  43  44  44  47  50  51  54  54  57  58  59  60  59  62  61  62  62  61  63  65  65  68  67  70  71  75  80  85  85  87  87  87  90  93  99  87  74  69  64  78  61  92 119 136 143 142 142 142 142 142 142 141 142 142 142 142 141 141 140 141
 140 143 142 141 141 141 142 142 142 141 142 140 139 133 109  47  39  34  30  27  24  19  19  20  24  29  32  39  44  45  46  49  50  51  54  55  59  59  60  64  64  66  65  66  69  70  69  67  68  70  68  71  74  76  77  81  84  85  86  89  90  94  94  97  98 101 109 105  94  74  58  71  67  78 107 132 140 141 143 142 142 144 145 144 143 143 143 143 142 141 141 140
 142 141 141 142 140 140 142 142 142 141 140 141 141 135  63  41  34  30  24  25  23  22  20  23  25  31  37  43  49  51  53  54  57  57  59  62  65  66  68  68  70  70  75  77  75  76  75  74  73  75  75  77  80  81  84  85  86  89  91  96  99 102 106 108 107 108 114 114 111  95  63  54  54  57  81 121 134 140 144 145 144 143 144 144 143 143 143 144 142 142 142 142
 140 142 141 142 142 141 142 143 143 141 142 142 140  97  40  33  29  25  25  25  23  21  23  25  28  32  40  49  53  56  61  61  64  63  65  67  69  71  71  71  74  75  78  81  81  81  82  82  80  82  82  81  83  85  88  89  89  95  97 101 102 107 112 114 113 117 123 128 125 115  64  47  50  46  60 102 130 138 142 144 145 144 144 144 144 144 146 144 142 145 143 143
 142 142 143 142 142 138 141 142 142 143 143 141 123  50  34  30  26  24  24  23  23  24  26  28  31  35  42  52  59  64  65  66  67  69  71  71  73  76  75  77  79  79  82  84  85  86  86  89  87  89  88  86  86  86  94  93  96  99 104 103 108 110 112 116 119 124 129 134 136 133  77  47  54  54  70 102 136 142 143 145 146 147 145 146 144 144 146 145 144 145 144 145
 141 142 142 141 142 140 142 143 144 144 143 140  86  36  31  28  27  23  22  24  26  26  28  30  33  38  46  56  64  68  71  74  74  77  76  77  77  79  79  81  82  84  86  85  85  86  88  92  92  91  91  92  92  94  97  97  96 101 105 106 111 111 113 117 121 126 130 137 143 140 106  54  54  59  73 104 146 143 146 144 145 146 146 146 146 145 145 145 145 145 145 145
 143 142 143 140 142 141 142 142 144 144 142 137  46  34  30  26  25  24  24  26  24  27  30  29  33  42  49  60  70  74  75  78  77  81  80  80  81  83  84  83  83  84  86  87  87  88  89  90  92  92  94  95  94  98 100 100 100 101 106 107 111 112 116 120 123 128 131 140 148 144 126  61  58  64  76  98 137 145 147 145 146 145 145 146 146 144 146 146 148 144 146 146
 143 141 142 143 142 142 144 144 143 144 142 118  39  32  28  25  25  24  26  26  25  25  27  30  36  43  50  59  69  74  78  80  80  82  83  84  83  83  82  83  84  83  86  87  89  90  90  91  91  93  97  98  98  98 102 103 100 101 105 108 113 116 118 122 127 129 131 140 150 149 142  73  59  68  84 102 126 147 147 147 147 145 147 146 146 147 146 147 147 146 145 145
 141 143 143 143 143 144 144 144 144 144 142 106  35  30  28  28  27  26  25  23  23  24  28  28  34  43  50  62  71  79  82  85  84  86  87  84  84  82  86  85  86  84  88  89  90  90  91  92  95  97  99 100 101 100 101 104 103 102 106 109 115 120 123 126 129 129 134 145 151 154 147  92  56  65  76 109 129 146 148 147 149 147 150 147 146 148 148 148 147 146 146 146
 143 143 144 142 142 143 144 143 144 144 143  90  38  30  30  27  27  27  23  23  23  25  28  29  36  44  55  68  79  81  84  87  90  88  87  84  86  86  86  86  88  88  91  90  91  93  97  94  96 100 102 104 104 105 103 105 104 102 107 112 118 124 124 131 132 132 136 148 155 157 152 108  63  62  72 112 133 148 148 148 148 149 148 146 148 147 148 148 147 146 148 145
 141 142 143 144 144 144 144 143 144 143 143 107  42  33  30  27  29  28  25  24  25  25  26  29  39  48  58  74  81  84  85  88  89  89  89  89  87  88  89  88  88  91  95  96  96  98  98  98 100 102 106 107 106 106 107 106 105 108 109 116 123 129 129 136 136 137 142 154 161 159 154 109  61  52  72 112 136 148 149 149 148 149 148 147 149 148 148 148 148 147 148 148
 143 142 144 143 142 145 145 145 145 142 144 126  39  32  31  28  29  27  24  24  24  25  27  31  43  55  66  76  80  83  85  86  87  87  87  88  88  86  87  90  90  91  97 100 101 102 100 100 102 104 108 111 110 107 107 104 106 108 112 118 126 134 140 142 140 145 151 161 168 169 159 104  56  51  75 118 142 148 150 150 151 150 150 149 149 149 148 150 149 149 148 148
 142 143 143 143 144 144 144 144 143 144 142 123  47  33  31  28  28  26  25  25  25  26  29  39  50  62  71  79  80  82  87  88  87  86  84  81  80  81  81  83  88  92  95  98  99 105 104 102 102 104 106 110 110 107 105 105 104 107 107 117 127 135 143 144 145 149 157 164 172 174 164 104  53  46  86 133 147 149 152 150 150 150 151 150 151 150 150 150 149 149 147 147
 145 145 145 144 145 144 145 145 146 146 144 129  42  34  30  26  26  26  25  25  24  27  32  46  62  71  80  82  82  84  86  85  81  75  66  65  67  73  75  75  83  86  89  93  97 103 102 101 103 104 106 108 111 112 107 104 103 104 105 112 120 128 136 140 143 147 154 165 171 171 164  98  53  50 107 144 151 152 153 153 152 150 151 150 151 151 150 150 151 151 149 149
 143 144 144 144 146 145 145 145 144 146 145 138  51  36  30  27  25  26  26  26  27  28  35  54  69  78  83  82  82  83  78  69  58  55  50  49  49  56  61  64  66  68  75  80  90  93  97 100 103 102 103 106 109 108 106 105 103 102 105 107 113 122 127 130 137 140 151 160 166 167 165  96  54  62 132 155 159 159 156 155 153 152 151 152 151 152 151 150 152 151 152 151
 143 143 146 147 145 145 144 144 145 144 144 142  66  35  30  26  25  25  26  27  25  27  41  65  78  82  85  82  81  77  63  54  51  46  48  50  51  47  56  57  50  50  52  57  67  74  78  87  93  93  99 101 106 105 104 103 103  97 101 102 102 104 112 119 124 131 138 146 149 154 155  98  55  83 146 161 164 161 160 158 154 152 153 152 153 154 154 153 152 152 152 152
 146 144 144 147 146 146 147 146 145 147 147 145  81  36  28  25  26  25  28  27  25  28  45  72  83  85  85  83  78  64  51  47  48  45  45  49  56  53  53  53  50  47  46  47  53  59  59  70  80  84  93  91 100 100 101 101 100  97  99  97  97  93  96 100 105 107 108 112 122 133 127  93  62 124 157 169 167 163 162 160 155 154 154 154 154 154 154 155 155 154 154 154
 146 146 146 146 147 146 148 146 147 148 148 147  98  33  29  24  26  26  27  26  24  28  47  78  86  89  88  84  75  59  54  51  51  55  53  57  60  63  58  51  50  49  52  49  48  51  53  59  71  80  82  85  91  95  96  93  94  94  94  90  88  84  81  74  77  71  75  76  84  90  95  90  81 146 163 172 171 167 163 159 158 158 156 155 156 156 154 155 156 156 157 157
 145 146 147 148 148 147 148 149 149 149 148 147 118  34  29  25  24  27  28  26  25  29  56  84  89  90  89  84  73  60  55  62  59  58  65  64  67  68  66  62  63  63  60  61  58  58  51  55  67  71  73  81  86  91  91  89  90  87  85  81  77  70  66  61  62  56  53  50  56  67  81  89 105 156 171 174 172 168 166 162 159 160 160 160 158 161 158 159 158 158 160 160
 147 147 146 147 149 151 151 151 148 148 148 148 130  39  29  24  22  27  27  26  25  33  64  86  92  93  89  83  70  64  67  69  71  71  71  73  68  68  65  64  63  63  62  63  65  66  63  62  62  66  70  74  81  84  87  86  86  82  78  73  71  65  59  56  54  47  46  47  49  57  69  82 112 156 174 176 173 171 167 165 163 163 162 165 165 164 164 162 163 163 163 163
 148 150 149 150 148 150 151 150 151 150 150 145 131  56  31  24  24  25  28  24  27  37  67  90  93  94  88  86  75  68  72  76  73  70  66  62  55  50  49  46  44  44  40  46  56  65  69  69  66  63  64  72  78  84  87  86  86  82  75  71  68  63  59  59  58  55  57  56  61  67  68  90 132 167 178 177 175 172 168 167 166 165 165 167 168 165 166 166 165 166 166 164
 149 149 151 152 151 150 151 153 151 151 151 149 109  85  41  26  24  25  26  25  27  42  73  92  96  96  91  89  84  77  74  72  66  55  46  48  53  50  45  40  38  40  39  38  38  50  61  68  70  69  72  75  79  85  90  90  88  80  74  71  69  67  64  62  61  63  66  69  70  78  81 100 147 176 179 177 176 174 170 170 169 169 169 168 169 168 168 168 168 168 167 168
 151 150 150 151 152 152 152 153 154 152 153 149  85  69  54  34  26  27  27  26  28  44  78  95  98  98  96  91  89  83  74  65  56  50  54  45  34  39  36  29  27  30  32  38  41  42  52  64  69  70  76  77  79  89  93 100  99  88  75  68  65  57  49  49  48  52  54  61  71  85  98 118 171 181 183 179 177 174 173 172 168 171 171 171 170 169 170 170 171 170 170 171
 152 152 152 152 153 153 154 154 153 153 153 149  79  75  64  47  30  27  26  26  30  48  80  95  98  97  96  94  87  80  69  61  53  46  36  41  56  82  47  36  25  30  36  48  41  45  51  60  67  72  76  81  84  90  98 110 115  98  72  60  47  46  44  39  37  39  46  56  61  83 110 151 180 184 183 182 179 175 176 175 173 174 174 172 174 173 172 172 172 172 171 172
 151 152 153 153 154 153 153 154 155 155 155 138  81  75  76  63  32  28  27  26  30  55  83  97  99 101  99  97  87  77  68  63  58  54  48  52  71  92  57  38  30  33  43  53  43  44  56  64  69  71  72  78  86  92 104 116 122 102  71  53  48  53  44  32  31  47  44  39  54  77 114 158 181 184 182 180 180 176 177 176 176 176 177 176 174 174 174 175 175 173 175 172
 152 153 154 153 154 155 156 158 159 157 158 124  82  81  86  70  34  30  27  25  34  64  87  97 100 103 101 101  92  82  78  74  68  67  66  59  53  58  58  42  37  38  47  44  41  44  58  66  68  70  74  76  86  91 104 117 124 110  74  54  54  62  50  34  30  39  68  55  42  67 114 151 178 183 182 182 178 176 177 178 178 178 176 178 178 177 178 177 176 176 176 176
 153 154 154 155 157 156 155 158 158 157 155 100  81  90  89  85  63  35  28  27  37  67  91  99 104 104 106 106  99  91  86  83  76  76  77  71  66  61  58  52  49  49  50  49  51  58  62  66  68  73  78  81  89  99 115 127 134 125  88  60  51  55  52  42  37  44  81  66  61  75 113 151 178 180 181 182 180 180 181 180 180 180 179 180 180 179 180 176 176 178 177 177
 155 156 155 157 158 158 158 160 160 160 157  92  89  94  93  86  63  35  30  30  38  68  92 101 105 106 108 106 100  97  96  92  85  82  80  78  72  72  69  59  58  53  51  51  52  53  60  68  75  79  80  83  90 100 117 135 138 137 109  82  64  56  55  54  54  61  69  79  93 103 129 148 177 181 183 183 183 183 181 181 180 181 180 181 182 182 182 182 181 181 181 179
 156 156 157 158 158 160 160 160 160 160 160  97  90  88  83  73  55  37  33  31  45  74  94 100 105 107 108 106 104 104 100 101  97  90  87  82  77  73  68  65  63  58  59  58  60  64  73  78  84  82  82  85  90  96 115 138 148 149 128  91  74  61  58  61  67  70  80  98 113 123 142 150 180 184 186 185 185 184 184 183 185 185 183 186 185 186 185 184 184 184 184 183
 157 158 159 161 161 160 161 163 162 162 162 111  90  81  72  65  57  43  33  35  55  79  94  99 105 107 110 108 108 106 105 102 102  98  93  90  86  83  79  75  75  73  73  75  78  83  84  88  84  84  85  87  88  91 109 136 158 163 140 107  95  81  73  69  70  77  91 105 119 132 152 159 182 186 188 188 186 187 188 187 188 186 187 187 186 187 187 186 186 185 184 184
 159 160 161 162 162 162 163 164 166 164 163 131  90  71  59  57  59  51  37  39  63  84  92  99 102 105 108 109 111 109 108 106 104 101  99  94  90  87  88  87  83  83  82  82  85  87  88  90  86  86  88  89  89  89 104 130 162 171 148 119 115 106  98  93  93  96 103 112 125 139 159 166 184 188 189 190 190 189 190 189 188 188 188 188 189 189 187 189 188 187 188 187
 161 161 163 164 163 164 165 166 166 167 166 143  90  70  53  56  64  66  42  37  65  85  92  98 102 105 108 111 109 109 109 107 106 103 100  98  94  94  92  90  89  90  89  88  89  90  89  89  87  87  88  88  91  94 105 124 154 175 160 127 128 122 118 112 110 110 117 124 133 146 164 170 185 188 190 190 190 189 189 190 190 190 191 190 190 191 190 189 190 188 189 189
 161 162 163 165 165 165 165 166 169 168 168 157  92  76  51  51  64  88  44  40  63  86  92  98 100 104 107 108 107 106 107 107 108 103 101 100  99  99  95  94  95  92  92  92  94  90  88  87  86  86  87  89  94 103 106 119 150 177 171 140 128 128 124 121 119 123 123 132 136 152 167 172 188 190 191 190 191 191 191 191 190 189 190 191 191 191 191 189 190 189 190 190
 161 162 165 165 166 168 168 168 168 169 170 165  93  94  81  70  61  88  60  39  65  84  92  96  99 102 103 104 105 104 106 105 105 102 100 100 101  99  99  97  99  96  96  96  95  92  88  86  86  86  88  92  97 106 115 127 146 176 186 164 133 126 126 127 126 126 129 132 141 155 168 175 188 191 193 194 193 193 191 193 193 193 192 192 191 192 193 192 192 192 192 192
 164 166 167 168 167 168 168 170 172 172 172 168 106  87 103  86  60  66  85  53  69  83  89  95  98 100 102 102 104 104 104 102 102 101 100 103 104 101 102 100  99  96  97  96  95  92  88  87  84  83  81  89 103 114 123 135 150 172 193 181 161 131 124 128 125 126 130 135 144 156 163 171 187 191 194 196 195 194 194 195 194 194 195 196 196 196 195 194 194 193 192 193
 166 167 167 168 169 170 169 171 172 172 172 171 130  83 102  94  75  68  94  73  80  83  87  92  96  92 100 103 100 100 100 101 101 101 102 104 104 103 103 103 101  99  98  98  96  94  90  85  80  80  83  93 108 120 129 135 147 173 190 186 174 149 124 125 126 126 131 138 147 156 162 169 190 196 196 197 196 195 196 196 196 195 196 196 197 196 196 197 197 197 196 194
 166 166 169 168 170 171 171 173 173 173 174 173 152 102 104  98  94  93  96  77  81  85  86  90  95  96  99 100 100 101 101  99 101 102 103 106 104 102 102 102 102  98  96  97  94  92  83  78  80  86  92  98 108 116 123 128 135 155 173 182 180 173 131 121 125 127 132 140 152 160 159 164 192 197 199 197 199 198 200 198 197 199 199 198 197 196 198 196 199 197 197 197
 166 168 169 170 170 172 170 172 174 175 176 175 171 117 106  98  93  89  93  79  82  84  82  90  92  96  94  99  99 101 100 101  99 101 103 103 104 104 103 102  99  98  94  93  90  86  77  81  90  97 100 100 105 112 112 119 125 135 150 160 170 173 158 119 119 126 134 144 153 160 158 165 194 198 200 198 199 198 199 199 199 200 199 199 196 200 200 199 198 198 197 198
 169 169 170 171 172 174 174 175 174 177 176 177 176 142 108 102  94  87  91  79  76  80  82  86  90  93  95  97  98  99  97 100 101 102 102 101 104 104 103 102 101  98  95  90  87  77  74  85  93  95  91  88  89  92  95 102 108 112 117 123 139 158 149 121 124 128 136 146 154 159 155 171 198 200 201 201 202 201 202 201 202 201 201 202 201 201 200 201 199 197 199 198
 170 169 170 173 174 176 173 176 176 179 179 180 180 164 110 105  98  92  90  81  78  81  84  87  90  91  94  96  94  96  96 100 101 102 102 102 102 102 102 101  99  96  94  88  84  76  73  84  88  87  86  83  78  79  81  82  90  95  96  99 111 122 124 119 116 126 135 144 152 154 151 174 199 201 203 204 204 203 204 203 203 202 201 202 202 202 202 203 201 200 201 200
 170 172 175 174 176 176 177 178 177 179 181 181 182 178 149 105  99  95  90  92  82  84  86  88  88  92  95  93  94  94  94  98  98 100 102 102 102 102 102 100  98  96  91  88  84  72  67  80  84  79  72  58  53  61  69  69  74  79  79  82  90  97 104 110 115 123 131 139 146 147 148 187 203 203 204 204 203 204 205 204 204 203 203 203 203 203 203 203 201 200 201 201
 172 175 175 176 175 176 178 179 180 181 182 182 186 183 183 178 153 145 141 108  76  80  86  86  90  91  93  93  96  95  82  96  98  98 101 102 103 101  99  99  99  95  90  88  84  77  65  70  72  66  45  33  38  51  54  59  70  71  72  71  64  73 102 107 112 119 126 132 137 141 148 197 205 204 205 206 206 205 204 206 204 205 204 204 204 203 204 205 204 204 203 202
 174 175 175 176 177 179 181 182 182 183 183 183 186 185 187 187 187 187 186 136  78  76  85  87  86  86  90  92  94  95  92  96  97  97 100 102 101  98 100  98  98  94  90  88  85  80  69  59  62  61  58  59  62  67  65  66  69  71  76  73  68  91 112 109 111 116 123 124 130 135 154 199 205 207 208 208 207 205 206 207 204 205 206 205 204 204 205 204 204 203 204 204
 176 175 178 178 179 180 183 183 183 183 184 187 187 187 188 189 189 190 189 169  80  73  79  88  88  88  91  90  91  95  93  95  97  95  96  97  97 100 101 100  97  92  90  89  88  84  79  70  62  60  60  64  67  66  65  63  70  76  79  88  99 112 116 114 112 117 119 120 125 132 160 200 206 207 207 208 208 208 209 208 207 208 207 207 208 206 207 205 205 205 205 205
 176 176 178 180 179 183 184 186 186 184 187 189 189 189 189 192 192 193 193 188  92  76  83  85  86  89  90  89  91  92  91  97  93  94  92  94  96  98  99  99  96  90  89  87  87  83  81  77  71  66  64  61  62  67  69  67  70  79  81  91 100 113 117 116 112 114 115 116 119 129 169 204 208 208 208 209 210 208 208 209 208 209 207 208 208 208 206 205 206 207 207 207
 178 179 178 181 183 184 185 184 186 186 187 190 188 189 191 192 194 194 195 189 119  79  80  84  86  89  85  87  89  89  92  93  91  93  95  92  97  97  98  98  92  90  87  85  87  83  80  75  70  67  64  63  60  67  70  68  66  75  79  82 101 112 115 117 118 112 116 117 117 128 174 206 208 210 210 210 208 208 210 209 208 208 210 210 209 208 207 208 207 207 206 206
 178 181 181 182 186 185 186 187 188 189 189 190 189 191 192 192 194 196 195 192 143  79  80  83  88  85  85  85  84  85  89  88  88  90  91  94  95  96  95  95  91  87  83  81  81  81  80  76  68  64  69  69  69  72  68  66  60  75  86  88  93 110 113 111 110 110 114 116 118 129 178 207 210 212 211 212 210 211 211 211 210 210 210 209 210 210 209 208 208 208 207 208
 180 182 182 181 186 187 188 189 190 191 191 192 193 193 194 196 196 198 196 196 164  76  79  84  85  84  83  85  86  88  87  89  85  89  89  93  95  97  95  92  88  82  77  76  75  75  74  72  70  69  71  75  77  76  65  58  57  75  89  93  97 112 115 113 110 107 108 114 116 126 188 209 211 211 213 211 212 210 209 211 211 210 209 210 210 210 210 210 210 209 209 208
 183 184 185 184 186 187 188 188 190 190 191 192 192 193 194 196 196 199 199 196 184  81  72  78  83  83  82  83  85  84  82  90  91  90  93  92  92  93  94  85  81  76  75  74  77  74  73  73  76  74  75  80  81  78  72  63  64  79  93  96 103 114 111 106 104 106 109 115 114 126 195 208 211 212 210 211 213 211 210 212 211 211 210 211 210 211 210 210 210 210 209 210
 184 185 186 186 187 188 189 188 190 191 191 193 193 197 196 196 197 198 200 199 195  87  70  78  79  81  80  79  81  85  85  88  88  94  95  92  91  87  90  84  79  74  74  74  76  78  79  79  81  78  72  76  75  73  77  79  81  79  81  86  98 112 104  94  94 104 110 114 114 129 190 209 212 212 211 212 212 212 212 213 212 212 213 211 211 211 211 210 210 209 209 210
 183 185 186 188 188 190 190 190 192 192 194 194 195 196 198 198 198 200 202 200 195 103  71  76  82  81  82  81  84  81  83  85  88  91  92  92  90  90  89  79  74  68  68  71  72  73  73  74  72  66  63  63  62  61  66  71  71  70  71  73  73  83  81  74  79  99 109 115 113 138 203 211 212 211 213 213 213 214 214 213 212 211 211 211 211 211 212 209 211 211 210 210
 186 186 186 187 189 188 190 193 192 194 194 194 197 198 199 197 201 200 204 200 199 136  69  72  78  77  80  78  85  85  86  89  91  91  89  92  91  90  89  76  65  54  44  49  53  53  53  55  55  52  52  51  49  50  56  59  55  55  55  58  67  63  65  72  80  99 110 115 112 151 206 211 214 213 212 213 213 212 212 213 212 212 211 212 210 212 212 210 211 210 211 210
 185 186 188 188 188 189 191 191 194 194 194 196 196 199 201 199 201 203 203 202 200 156  69  61  69  71  75  79  80  82  84  87  89  83  89  91  94  92  87  74  63  56  50  44  42  46  49  47  44  40  39  38  36  39  41  42  47  52  64  73  80  84  90  85  92 102 110 114 113 174 209 212 213 212 212 212 213 213 212 212 212 213 211 212 212 210 212 212 212 211 211 211
 186 187 188 188 190 191 193 192 195 195 195 196 197 200 202 202 202 202 204 204 203 179  75  60  65  70  72  76  78  82  81  84  89  89  91  90  92  95  88  76  68  69  73  65  60  59  59  59  61  56  58  55  54  54  64  72  79  79  90  92  94  97 100  97 101 105 107 107 114 191 210 212 213 214 212 214 212 212 213 213 212 213 213 212 212 212 212 212 211 211 212 212
 186 187 189 191 192 191 194 193 195 194 196 196 199 199 200 201 202 202 203 204 204 196  84  64  63  63  66  70  73  76  81  84  83  85  86  89  90  89  85  80  79  79  81  79  77  73  66  66  67  68  72  75  72  75  81  82  86  91  95  96  98 107 106 102 101 104 105 106 129 204 211 214 214 214 215 215 213 213 213 212 214 213 213 213 212 212 212 212 212 210 212 211
 187 188 189 191 192 193 194 195 197 196 197 198 200 200 202 203 203 203 204 205 205 197  97  66  57  63  66  66  70  73  79  82  82  80  86  87  87  86  86  84  84  84  86  85  84  80  76  74  69  68  70  74  72  73  77  76  76  79  82  96 104 111 109 101 101 102 102 105 149 207 214 216 214 213 214 214 213 214 214 214 214 215 214 213 212 213 212 212 211 212 211 211
 189 190 190 190 192 193 194 194 197 198 198 200 199 202 203 205 203 204 204 206 205 201 122  72  59  61  59  63  65  68  70  72  74  81  85  85  86  82  81  82  78  82  84  86  85  81  81  80  75  72  70  70  67  69  70  71  70  77  85  97 106 109 106  96  97  98  96  91 188 210 213 212 214 214 213 215 214 212 213 213 213 214 212 211 212 213 212 213 211 212 213 212
 188 190 191 191 193 192 193 197 198 199 198 200 201 200 202 204 204 204 204 206 205 203 141  74  62  52  56  57  66  63  64  69  76  79  80  80  84  81  80  80  72  76  83  84  84  80  82  80  78  71  72  72  69  69  70  71  74  80  88  95 103 106 104  97  96 103  93 105 205 212 213 212 215 216 214 215 214 215 215 214 213 214 215 215 213 213 213 213 211 212 214 212
 190 191 192 193 194 194 196 197 196 199 200 199 201 203 203 204 204 205 206 205 206 204 165  78  68  50  53  53  63  61  61  64  64  71  78  83  81  76  79  81  74  74  80  82  84  83  79  78  72  69  68  66  64  59  64  68  71  76  88  96 104 103 104 100  97 100  95 166 210 214 214 215 214 214 215 216 214 214 215 213 213 214 214 214 212 214 212 212 213 212 212 212
 191 192 191 193 193 195 196 197 198 199 199 201 201 204 203 203 204 205 206 206 209 206 188  84  67  57  51  52  56  64  68  67  69  68  77  80  78  74  73  79  75  74  78  82  85  85  83  82  80  78  71  67  58  57  59  66  75  83  93 101 106 104 104 100  97  94 112 203 212 215 215 217 216 215 214 216 215 213 214 214 215 214 213 213 213 213 212 212 213 213 212 211
 192 192 192 194 194 196 195 196 198 200 200 201 202 203 203 205 205 205 207 207 208 206 200  94  73  63  49  48  50  52  56  63  64  66  72  77  75  71  67  74  77  72  78  83  83  84  86  86  84  84  79  69  60  61  61  68  78  87  98 104 108 110 102 100 100  90 179 211 214 215 216 217 216 216 217 216 213 215 215 214 215 214 214 213 214 213 212 213 212 212 212 211
 193 193 194 195 195 197 198 199 199 199 201 202 203 204 205 206 206 207 207 206 207 206 203 114  76  64  57  49  50  51  49  52  59  66  69  67  71  70  72  75  80  79  80  82  82  83  83  82  84  85  84  82  78  84  83  87  90  99 103 108 109 110 105  97  89 119 206 212 214 216 216 214 216 215 214 215 214 214 215 216 215 214 213 214 212 212 213 211 213 212 211 211
 193 194 194 195 198 199 198 199 200 199 202 203 201 204 203 204 205 207 208 207 208 207 203 129  78  70  66  53  46  48  51  53  58  60  60  64  62  67  68  70  75  76  78  77  82  84  84  82  84  83  82  80  80  84  93  97 100 105 110 111 107 104 101  90  93 190 211 214 214 216 216 216 215 215 216 216 215 215 216 214 215 214 214 213 213 213 214 213 213 211 212 212
 194 194 196 197 199 199 200 202 202 202 202 202 203 204 206 206 206 206 208 208 209 208 205 152  76  71  68  62  49  49  54  55  52  53  56  57  53  56  63  68  72  74  76  75  73  80  82  82  84  82  81  80  83  81  92  99 101 104 108 111 105  98  94  82 164 211 215 214 215 216 216 217 215 214 215 216 216 216 213 214 214 215 216 213 213 213 214 213 212 212 211 211
 194 198 198 198 198 199 200 201 200 201 203 204 203 205 206 206 206 208 209 209 208 209 206 170  76  68  71  66  56  45  50  50  51  46  50  51  52  54  62  65  72  74  77  76  71  76  80  81  82  82  80  76  77  84  89  92  95 108 109 106  95  93  82 104 208 213 214 214 216 215 217 216 217 218 217 215 215 216 214 215 216 214 214 214 214 213 213 213 211 211 212 211
 195 196 196 198 200 198 200 202 202 204 204 203 203 205 206 206 207 206 208 208 209 209 207 191  77  66  65  65  61  51  44  49  52  54  53  44  46  50  58  60  62  68  71  72  74  73  76  80  79  77  77  78  79  82  87  91  95 100  98  93  87  88  75 172 211 216 215 215 215 218 217 217 217 217 217 216 216 216 215 215 214 214 216 214 214 213 212 213 213 213 212 211
 194 196 198 198 199 200 201 201 201 202 203 204 205 206 206 206 207 206 207 207 207 209 209 199  91  72  63  63  64  55  43  42  49  50  49  45  44  51  55  53  60  64  65  66  74  75  75  81  75  69  75  73  77  74  76  80  81  80  83  81  80  80  84 208 214 214 216 215 217 217 217 216 216 217 217 215 216 216 213 214 215 215 215 214 214 213 212 213 212 213 212 211
 193 196 197 196 198 198 199 201 202 201 203 205 205 206 206 207 206 207 208 209 209 209 208 205 108  75  67  63  64  62  54  44  39  44  45  43  44  47  50  50  51  60  61  59  68  72  70  74  72  71  68  68  70  71  68  70  72  72  76  73  74  75 109 209 213 215 216 216 214 215 217 215 216 216 216 214 216 216 215 215 214 215 214 213 214 212 213 213 212 212 212 212
 194 194 196 198 198 200 200 200 202 201 204 206 206 206 206 206 207 209 207 208 208 209 209 204 125  78  67  58  61  61  58  52  42  34  40  44  43  48  46  41  46  48  54  55  58  64  59  65  65  66  61  61  66  69  65  63  71  71  71  71  66  85 128 208 214 215 216 216 216 216 217 215 217 216 215 216 217 216 216 215 215 215 215 214 214 213 213 213 212 212 212 211
 195 194 195 197 198 199 200 201 201 201 204 204 205 205 206 206 208 209 208 208 208 208 207 208 124  81  72  65  60  57  57  51  47  41  39  43  44  45  46  43  41  39  41  49  55  50  52  58  61  68  55  56  60  58  62  58  61  65  63  61  75  98 131 207 213 213 214 216 214 216 216 216 216 214 216 216 215 216 215 215 214 215 215 214 214 214 213 213 212 213 211 211
 194 195 196 195 198 199 201 203 202 202 203 204 205 206 207 206 206 207 207 207 209 181 134 132  93  80  77  70  64  62  61  57  52  49  45  40  38  42  44  42  38  35  35  39  42  47  44  48  57  58  54  54  51  52  53  51  50  53  52  68  89 105 117 113 210 213 214 215 214 215 216 216 215 215 215 215 214 213 215 215 214 214 215 213 213 213 213 213 213 212 212 211
 195 196 196 196 197 198 201 202 202 202 202 202 204 204 206 205 208 210 198 143  71  75  94  92  82  77  76  74  70  68  62  60  57  56  50  49  46  39  34  38  36  37  34  35  35  40  38  40  45  47  47  48  44  46  47  45  49  49  70  83  96 110 122  70  82 186 212 213 213 214 216 216 214 214 214 215 214 214 215 214 214 214 214 214 213 213 212 212 212 213 212 212
 196 195 197 197 197 199 199 201 200 202 208 195 159 147 156 128  94  76  43  35  44  81  84  84  74  75  77  76  76  71  66  63  61  57  55  54  50  50  42  35  33  35  34  37  35  35  35  36  36  41  42  41  37  37  37  46  60  74  83  90 101 116 132 176 109  67 123 164 190 212 213 213 214 215 215 215 214 214 214 214 213 213 213 214 212 212 212 211 212 212 213 210
 196 196 196 195 196 199 199 205 181 125  64  43  40  42  37  32  30  30  28  26  46  80  81  83  75  76  77  78  76  78  74  70  66  59  57  55  54  51  48  50  41  36  34  35  35  37  36  35  38  38  36  35  35  45  58  68  77  84  90  99 107 122 134 173 175  82  63  62  59  75 163 213 212 212 214 213 214 213 214 214 214 213 211 212 213 213 212 213 212 211 211 211
 193 192 195 194 195 187 128  74  41  41  34  32  27  27  28  22  21  22  20  24  52  79  81  82  72  73  77  75  75  77  76  73  69  64  58  55  54  53  49  52  53  52  48  49  49  44  42  46  51  48  46  45  54  61  67  76  84  96  96 101 111 123 133 170 177 142  55  51  49  47  62 105 154 187 209 213 213 213 213 213 213 212 213 211 212 212 212 212 211 212 210 208
 193 188 153 130 104  51  38  35  32  28  27  23  22  24  23  18  18  19  19  22  54  80  79  76  71  72  76  75  68  70  73  77  73  68  64  60  60  58  56  59  56  59  53  52  55  56  58  56  63  59  62  56  63  73  78  87  93  96  98 103 110 123 131 155 178 177  66  46  42  40  50  59  59  70  91 142 189 210 211 209 212 210 212 211 212 212 212 209 210 211 208 208
  69  40  38  36  35  31  28  24  24  22  22  19  20  19  19  17  18  19  18  20  51  79  79  77  70  73  73  75  74  74  79  79  75  72  70  66  64  61  64  62  56  54  52  55  61  59  58  56  63  63  66  68  78  83  88  93  94  97 102 109 114 123 131 152 177 178  96  43  40  36  42  53  56  56  55  61  63  78 110 143 175 199 214 212 209 209 209 209 208 208 208 207
  36  31  29  28  26  24  21  22  20  18  19  19  19  21  18  16  17  17  18  20  46  80  80  73  71  75  73  78  80  80  81  80  81  73  72  71  66  61  61  58  57  59  58  57  57  55  56  58  63  65  73  81  86  88  91  91  96 100 104 109 116 123 132 146 176 175 110  46  39  36  41  50  53  51  48  50  52  55  60  59  63  68  85 113 137 153 177 189 196 201 197 194
  29  25  24  24  21  23  20  17  17  18  18  18  18  17  19  16  16  17  18  18  41  78  80  72  72  73  73  76  80  82  83  83  81  78  74  71  70  68  64  63  64  60  61  63  60  64  62  64  70  75  80  86  87  87  90  94  99 101 103 108 117 124 129 147 193 173 113  46  38  35  40  48  50  45  45  46  46  50  52  52  53  53  57  56  58  61  62  63  64  68  66  68
  24  22  20  21  19  20  19  17  16  17  18  17  17  17  16  16  16  16  17  17  26  74  80  73  72  72  73  77  79  81  82  83  82  78  76  78  75  70  68  67  67  66  66  68  66  68  69  72  75  76  82  83  88  90  92  96 100 101 104 108 115 120 129 146 193 172 110  42  36  32  39  45  47  48  44  42  44  48  47  46  49  50  49  49  48  47  52  53  51  51  54  53
  22  19  20  21  19  18  17  15  15  16  17  17  16  16  16  16  17  17  17  17  20  68  79  72  72  71  72  75  78  80  82  84  84  80  77  76  78  74  70  69  70  69  69  70  70  71  72  73  75  78  84  87  89  91  92  94  99 101 103 110 116 120 129 147 178 172  98  40  34  32  38  47  44  44  46  42  44  42  44  44  43  44  44  45  46  46  48  47  47  44  50  51
  19  19  18  18  17  17  17  16  16  17  16  17  16  17  16  14  16  15  16  15  18  56  79  74  72  72  71  72  74  76  78  82  83  80  79  80  78  73  73  73  74  74  73  75  74  74  74  75  80  85  85  88  89  90  93  95  98 103 106 113 114 119 130 146 168 167  74  36  34  31  37  43  45  42  42  40  44  42  41  40  41  43  42  42  44  45  45  43  43  43  46  50
  18  18  18  18  17  16  16  14  16  14  16  15  16  17  16  15  14  16  17  16  17  40  76  75  73  70  72  70  74  77  77  78  80  79  80  82  80  77  73  68  74  75  77  81  82  81  82  82  83  86  88  90  89  91  95  96 100 104 105 109 113 121 133 147 166 156  46  35  33  30  37  40  43  40  39  37  41  41  42  41  41  40  41  39  41  42  41  40  39  42  47  47
  18  18  17  16  16  16  16  15  15  15  16  15  16  14  17  16  12  15  15  16  17  29  75  76  74  70  72  71  73  76  77  78  76  77  79  80  81  81  77  74  76  80  81  83  86  84  84  87  88  89  89  90  89  93  95  96  99 103 104 109 112 121 135 145 162 125  38  30  32  30  38  39  39  43  38  38  41  41  43  40  41  41  41  39  40  41  41  39  38  42  45  44
