P2
# Generated by OpenCV 3.4.0
92 112
255
 127 127 128 127 128 128 128 128 127 128 127 128 127 129 129 130 129 127 130 128 129 128 128 131 130 129 129 131 128 129 129 128 127 128 130 129 129 129 129 129 129 130 129 129 127 128 123 108  87 109 109 106 104 101 106 108 105 110 106 108 109 110 109 101 108 101  95  98  95  86  88 101 105 106 105 103 102 101  88  44  30  27  28  33  38  65  91  96 100 103 106 108
 127 127 128 127 124 127 129 129 128 128 130 130 129 129 130 129 129 129 130 130 129 128 129 130 129 129 129 130 131 131 130 128 130 129 130 130 129 129 131 130 129 130 128 129 128 126 120  86 106 112 110 100  97  97 110 113 111 109 103 104 108 111 109 109 109 103  94  98  96  92  81  95 105 109 107 105 106 102  91  28  26  28  34  29  30  41  95 101 103 105 106 109
 129 128 129 129 129 129 129 128 130 128 130 130 130 130 130 130 130 130 131 128 130 129 130 131 129 130 131 130 130 131 130 131 128 132 131 132 131 129 130 130 130 130 131 131 128 126 114  91 112 114 111 104 105 106 113 116 114 106 106  99 108 110 107 109 110 102  95  98  97  93  84  88 102 107 108 107 106 105  99  37  30  25  27  27  29  34  96 104 106 108 109 111
 129 129 129 130 131 131 130 129 130 130 131 131 131 131 130 130 130 131 129 131 132 130 129 131 132 131 131 130 131 132 132 129 129 130 130 130 132 130 132 131 132 132 131 130 129 123 106 100 114 111 105 106 116 114 115 114 114 104  74  70  96  95 105 109 111 111 108  96  91  94  86  82 101 109 109 110 110 110 103  47  29  25  25  25  27  29  91 106 106 109 111 112
 128 130 130 132 131 129 131 131 132 130 131 132 131 130 132 130 131 128 130 130 130 134 132 132 131 132 133 131 134 132 132 131 132 131 131 132 130 130 131 132 132 130 134 131 128 122 104 105 114 110 105  97 114 114 112 111 109 104  77  56  86 107 110 111 112 110 110 103  87  95  90  77 100 109 110 112 113 110 108  62  40  26  25  25  28  40  87 107 110 110 114 114
 129 128 131 132 130 129 130 132 132 131 131 132 133 131 132 131 132 132 132 131 132 132 131 132 133 133 132 130 131 130 130 131 130 132 131 133 131 131 132 132 133 133 133 130 129 122 104 108 117 114 110 114 112 110 111 112 114 110  70  75  72  93 109 113 112 112 110 100  95  95  90  73  99 110 113 115 114 114 112  66  29  27  28  29  27  26  73 110 113 113 114 117
 130 132 130 131 129 130 131 130 130 133 132 130 133 130 130 131 131 129 131 133 131 133 132 132 132 131 130 130 130 131 129 130 131 132 131 133 133 133 134 134 134 134 132 131 130 124 105 106 116 117 116 108 106 114 116 116 115 111  67 101 103  80  92 110 114 113 104 109 105  97  91  74 100 112 115 116 117 116 115  77  30  28  29  29  29  27  63 112 114 116 117 117
 129 131 132 132 131 132 129 131 129 131 131 134 131 132 132 133 132 132 130 133 131 132 132 132 131 133 133 132 132 132 132 132 131 133 132 132 134 134 132 133 133 134 133 134 130 125 107  93 112 117 115 100 101 116 116 117 115 106  79 111 113 107  87  95 110 110  94 108 107  98  79  81 105 114 117 117 118 118 116  94  30  27  28  28  28  29  53 115 118 118 118 118
 130 132 133 132 131 131 131 131 131 131 129 133 132 131 132 130 132 134 132 132 131 132 131 131 132 132 131 131 132 132 131 132 131 131 132 133 133 132 134 133 132 131 132 131 132 126 116  92 104 114 113 109 109 116 110 110 115 108  98 113 115 115 107  87  96 111 101 108 108  97  68  93 110 115 118 119 123 121 121 106  48  31  29  40  28  36  57 114 121 120 121 121
 132 132 132 132 131 130 132 132 132 132 132 135 131 132 132 130 132 132 133 132 133 132 132 133 132 134 133 132 133 132 133 134 130 130 132 132 132 134 132 134 133 133 133 132 131 126 120 104  83 109 115 117 118 117 110 110 116 116 108 107 116 117 106 101 108 112 113 112 106  72  80 103 115 119 121 121 122 123 123 118  72  58  61  64  65  66  80 119 123 122 123 120
 134 130 133 134 131 131 133 132 133 132 132 133 132 132 132 133 133 133 134 133 133 133 134 130 132 133 134 133 134 132 130 132 134 132 132 133 133 132 133 135 134 134 134 133 133 131 126 115  92  80 109 115 116 117 104 114 117 118  96 103 115 117 110 104 108 115 114 108  70  74 100 112 120 121 124 125 124 125 121 124 124 121 120 121 121 121 120 124 124 125 124 124
 132 132 132 134 132 132 133 134 134 133 132 133 132 132 134 133 134 134 133 133 132 132 131 131 131 130 131 133 132 127 112 102 103 112 119 131 131 130 130 134 135 133 134 134 134 134 130 126 115  89  70  96 112 114 116 118 118 118 107 106 115 118 118 114 112 116 100  61  71  98 111 118 122 125 125 124 126 128 128 128 124 126 125 124 124 124 124 126 126 126 125 125
 132 132 132 132 132 133 133 133 133 134 133 133 132 132 133 133 135 131 131 134 133 133 133 135 133 133 131 128 123 109 100  96 105 106 120 124 123 124 122 121 128 131 131 133 134 134 132 131 126 115  96  71  70  94 110 115 117 115 113 113 116 116 115 115  96  71  59  78 101 113 120 123 126 126 127 126 127 127 129 128 126 125 127 124 128 128 126 127 127 127 126 126
 133 133 134 134 133 131 135 134 133 132 133 134 134 132 132 133 134 132 134 132 132 133 132 131 129 127 121 113  98  94 102 109 103 102 115 118 129 132 129 116 101 112 128 130 133 135 134 134 130 127 120 108  88  67  60  70  82  90  95  99  92  88  74  59  56  73  95 107 117 122 126 127 128 127 128 128 127 128 130 128 128 127 126 126 127 128 127 126 127 126 126 128
 134 133 133 133 134 134 134 132 132 132 132 134 133 133 134 134 134 133 132 131 132 128 124 112  91  85  85  86  81  79  78  75  90  92  93 100 108 108  91  92  89  87  97 117 126 134 134 134 132 132 129 125 121 108  97  82  71  59  56  58  60  66  77  90 101 110 119 120 124 126 130 128 129 128 128 130 129 129 129 130 126 127 127 128 129 127 129 126 126 127 127 126
 134 133 133 134 136 134 135 132 134 133 133 133 132 134 134 134 134 134 133 129 126 120  91  62  56  62  69  72  72  70  74  80  85  92  90  92  91  84  81  72  65  66  72  81 108 126 132 137 134 132 132 132 129 126 123 117 114 109 107 108 108 109 115 119 121 123 127 128 128 129 129 128 128 130 130 130 130 128 129 127 125 118 124 127 129 125 126 127 128 125 125 124
 132 134 133 133 133 132 133 132 130 132 132 133 132 133 134 131 131 132 131 125 107  73  58  61  63  63  67  70  73  71  75  78  80  84  82  82  81  68  60  52  49  47  53  56  65  94 116 131 134 131 131 132 130 130 129 127 125 125 123 123 122 122 125 125 123 126 123 125 124 123 125 123 123 124 123 124 122 120 119 119 117 103 111 113 115 110 110 108 109 106 103 102
 130 130 132 131 132 130 131 130 129 130 130 130 130 130 128 127 127 128 124 111  78  54  53  63  70  69  66  64  64  80  82  75  76  78  76  72  66  60  52  42  39  41  42  57  57  57  84 108 113 114 110 108 107 108 102 101 101  96  98  98  96  96  93  90  88  90  88  86  87  86  87  85  83  83  83  82  85  82  82  79  83  84  86  81  84  87  88  88  90  93  91  93
  95  98  97  96  90  91  89  91  91  91  90  90  86  87  89  89  86  83  86  76  61  49  49  59  74  78  77  67  60  60  64  66  69  70  68  64  57  48  41  42  40  38  40  47  52  48  56  71  85  95  95  97 100 101 100 103 104 105 106 107 105 108 109 112 108 112 113 113 112 116 114 114 112 114 115 114 117 117 118 116 118 118 119 121 119 119 119 121 121 122 122 125
  97  98 100 104 102 104 106 105 107 107 108 104 103 108 107 107 106  99  86  68  53  48  54  59  65  73  73  58  63  68  60  59  56  54  52  56  56  52  52  55  51  54  52  48  49  43  50  58  69  96 113 119 120 124 125 123 124 127 125 128 127 126 127 129 130 128 128 130 131 131 132 131 132 131 130 133 133 132 130 131 132 130 131 132 131 130 131 130 131 129 131 130
 124 124 126 125 128 125 127 127 128 128 129 129 128 128 127 125 123 107  68  59  50  49  58  65  77  82  65  67  59  51  61  57  57  64  70  73  66  66  74  81  87  74  55  45  43  37  40  46  53  66  95 123 126 132 135 134 135 135 134 134 134 135 134 134 134 134 133 134 133 133 135 135 135 133 134 134 133 134 132 132 134 133 132 131 132 134 132 131 132 131 132 130
 133 132 133 131 132 133 131 131 134 134 132 132 132 130 128 125 114  78  57  54  50  49  52  64  77  89  82  70  70  72  64  63  66  67  68  72  81  83  84  74  52  44  46  48  45  38  34  34  44  51  62  78 108 122 131 134 133 137 136 135 136 135 136 136 134 135 135 135 136 136 135 134 135 135 135 134 134 133 132 134 134 132 133 132 132 133 134 132 131 132 133 130
 133 134 134 134 133 134 133 132 133 134 132 133 132 132 129 107  67  58  54  49  45  47  48  58  69  80  75  72  72  66  63  59  54  60  63  50  42  49  44  43  41  40  42  49  42  38  37  34  37  44  48  52  64  87 115 131 134 136 137 138 137 137 135 135 135 137 136 136 136 136 136 138 137 135 134 133 134 134 133 134 134 136 134 132 133 133 134 131 132 132 132 132
 132 133 133 132 133 134 134 132 135 135 135 130 129 117  78  49  47  47  48  43  44  42  47  50  58  62  60  58  59  57  48  47  46  45  37  39  39  34  34  32  24  26  37  60  62  50  49  45  38  35  43  43  45  55  59 104 129 134 137 138 138 138 135 136 136 136 136 136 137 137 138 137 136 137 136 137 135 134 135 136 136 134 136 134 135 134 134 133 133 133 132 131
 133 134 133 133 135 132 133 134 134 131 132 127 104  56  49  47  43  41  40  44  46  45  49  56  65  77  85  76  63  53  49  44  51  48  51  51  51  46  44  37  33  40  50  43  57  44  35  41  40  43  47  45  44  44  46  67 114 132 136 138 137 138 136 138 138 138 137 136 138 137 136 137 136 137 137 137 135 136 137 135 134 136 137 135 134 136 136 134 135 134 134 131
 135 135 134 132 135 134 133 133 130 129 121  85  49  44  43  46  47  45  43  42  44  46  51  55  58  61  71  76  87  90  88  92  87  77  76  80  66  56  51  49  47  42  39  64  54  45  47  56  55  57  62  54  49  41  39  51  81 121 133 137 138 137 137 138 139 137 137 137 137 136 138 137 136 136 137 136 135 136 136 137 136 135 136 136 136 137 136 134 133 135 134 131
 134 135 135 133 134 135 134 132 117  84  52  48  42  43  45  44  44  42  41  41  42  45  48  56  61  70  79  88  96 100  99 102  97  90  92  90  88  74  74  71  55  46  55  53  63  65  77  84 100  96  89  82  71  49  42  41  54  86 114 133 135 137 138 138 138 137 139 138 140 139 139 139 138 138 138 137 137 138 136 138 138 136 137 135 137 137 137 137 136 136 135 134
 134 134 135 133 134 132 129 103  67  51  47  43  43  39  39  38  36  36  35  34  34  39  42  47  53  64  73  86  95 105 106 107 112 110 107 102  91  89  77  64  49  54  62  75  88  91 101 111 120 122 111  84  80  65  55  40  42  55  79 123 136 138 137 137 139 139 139 138 137 136 139 138 138 138 138 138 137 138 137 138 137 136 138 136 138 136 136 136 136 136 133 135
 135 134 134 133 134 131 119  85  66  50  44  40  38  36  34  32  33  32  35  35  35  36  39  42  46  53  63  69  72  73  75  84  81  76  72  67  62  58  64  61  69  80  92  91  99 112 120 131 134 134 130 115  91  73  58  50  42  49  72 118 136 139 138 140 139 139 138 138 139 139 140 139 140 139 138 138 138 138 138 139 136 138 138 138 137 136 137 137 138 136 134 135
 134 134 134 134 133 128 114  74  49  40  36  37  36  34  33  32  31  31  32  29  30  32  32  35  35  37  46  50  55  60  65  64  53  48  49  53  52  54  63  74  88  99 100 103 109 117 130 145 159 158 150 138 126  72  52  54  41  60  75 101 135 141 140 141 140 140 139 139 139 138 141 140 140 140 140 140 140 138 139 138 139 138 139 138 138 138 138 138 138 136 136 136
 135 133 134 136 134 129 102  52  38  34  31  32  33  32  31  30  27  26  26  24  28  28  31  32  34  38  41  46  48  52  52  46  45  47  50  55  61  70  74  84  98 110 111 115 115 125 136 160 176 173 166 165 167 126  71  69  44  53  69  89 124 138 140 140 139 140 141 140 140 140 140 139 141 140 141 141 140 138 139 140 139 139 139 139 138 139 137 139 138 138 138 138
 134 134 135 136 134 131  91  52  35  28  26  28  30  26  25  26  25  26  26  26  26  26  25  26  30  33  36  42  44  46  48  50  53  56  60  64  70  74  82  93 102 112 121 121 121 130 144 169 185 187 183 180 193 184 123  74  60  51  66  87 111 136 141 141 142 143 140 141 142 140 142 140 141 141 140 139 139 139 139 140 141 139 141 139 140 139 138 138 138 138 137 138
 133 134 134 136 133 128  86  55  31  27  26  28  26  24  21  24  27  28  29  27  25  25  28  32  36  39  41  44  47  50  53  60  62  65  68  70  75  81  88  99 106 114 123 124 125 132 149 175 187 193 192 188 196 193 173 102  61  50  55  70 104 132 139 140 142 141 141 141 142 143 142 142 142 142 139 140 143 141 139 139 141 140 142 140 141 140 139 138 139 139 138 139
 135 134 137 136 135 128  70  46  29  25  26  27  24  25  23  26  29  28  27  25  26  29  34  37  42  45  47  50  55  57  59  64  68  71  73  78  81  83  90 102 103 116 119 120 126 136 154 175 186 191 193 194 194 192 185 134  72  54  53  70  90 127 139 141 141 142 142 140 144 143 143 143 143 142 142 142 142 141 143 142 140 142 142 142 140 140 142 140 139 140 139 139
 138 135 137 134 134 123  57  36  26  25  28  25  26  27  28  30  30  26  27  27  30  34  39  43  47  49  52  55  61  62  67  68  72  76  80  83  88  89  95 104 111 116 119 122 132 139 159 180 190 198 197 198 197 194 191 165  85  59  54  57  65 123 137 143 142 142 143 143 144 145 144 142 142 143 143 143 143 141 142 142 143 141 142 142 141 141 140 139 140 140 141 140
 136 135 136 137 134 116  45  33  27  26  28  28  29  28  28  28  28  29  30  33  37  42  45  50  54  56  62  65  66  69  72  73  76  79  82  86  90  93  98 106 117 121 121 128 138 150 167 187 198 200 197 199 199 196 191 172 102  67  50  46  59 111 139 142 142 143 143 144 145 144 144 143 144 143 144 144 143 142 143 142 144 143 142 142 143 141 142 142 140 141 141 140
 137 136 138 134 134 113  46  29  25  26  27  26  28  26  25  28  29  30  34  38  43  48  55  59  63  66  67  69  71  72  75  80  82  83  86  90  93  95  98 107 118 124 129 139 150 164 184 199 207 209 206 206 204 200 193 172 121  72  55  47  48  90 136 142 145 144 144 143 144 144 144 144 145 143 144 145 144 144 143 144 143 143 143 144 144 143 142 141 141 142 142 142
 136 138 136 132 133 110  49  29  23  25  26  26  25  22  26  28  32  35  40  45  51  56  61  65  67  73  75  74  75  79  81  85  85  88  89  92  95  99 100 108 119 130 141 154 166 182 202 216 220 218 214 211 209 203 197 179 146  74  56  48  46  79 132 143 144 145 144 144 145 144 144 145 144 144 144 146 145 144 145 143 143 143 143 143 145 142 143 142 142 143 142 141
 138 138 135 133 130  95  52  28  25  25  24  21  20  25  30  31  38  43  46  52  58  64  67  70  72  77  80  80  80  83  85  86  90  91  91  94  96 102 110 112 123 136 150 165 176 187 205 219 225 225 218 211 207 202 198 186 168  89  56  47  45  77 129 143 145 146 145 145 145 145 145 145 145 145 146 146 145 145 144 144 144 145 144 144 144 142 144 143 144 142 143 143
 138 136 136 135 118 108  51  28  26  24  22  21  23  24  31  38  45  48  53  61  64  68  72  73  77  82  81  83  83  84  87  88  91  93  95  98 100 104 113 118 125 136 149 166 184 197 206 211 214 215 214 206 200 196 193 190 178 126  52  46  44  70 126 143 146 147 145 146 145 147 146 145 145 146 145 145 146 146 145 146 146 145 145 145 146 144 144 145 144 145 144 143
 136 136 137 132 120 117  59  29  26  24  23  21  23  28  35  44  50  53  58  63  66  71  73  77  80  82  83  84  85  86  88  89  91  96  98 102 104 107 114 118 127 139 148 165 183 192 198 198 197 194 193 188 184 180 177 171 177 161  56  45  46  61 121 143 147 146 146 146 146 147 145 146 146 146 146 147 147 147 145 146 144 144 145 145 145 145 144 145 144 144 145 144
 137 136 136 134 128 123  60  31  25  19  21  22  24  31  40  48  55  59  64  66  69  74  78  81  80  81  81  83  85  87  89  91  94 101 105 104 108 111 113 116 120 125 137 146 161 166 169 173 170 165 162 161 160 157 143 136 130 149  73  45  47  57 118 145 145 147 148 148 149 149 148 147 149 148 150 149 149 148 147 147 146 146 146 145 145 144 145 145 145 145 144 146
 138 138 137 134 133 126  56  29  23  18  20  20  24  32  42  54  59  65  69  72  75  76  78  81  81  81  83  83  84  89  91  93  97 104 106 110 112 113 114 116 114 116 122 130 135 138 138 137 137 122 116 114 111 108 113 115 118 127  91  47  46  62 118 149 151 151 151 153 154 154 153 154 152 156 156 156 154 152 151 149 149 147 147 147 147 145 147 146 146 146 145 146
 138 136 138 136 135 130  53  28  25  19  21  23  27  33  42  57  61  67  72  74  75  77  77  79  82  81  84  84  84  92  93  95  98 102 107 110 114 113 112 109 108 106 108 109 109 110 106 105  96  84  78  70  62  72  81  88  96 126 128  51  45  63 122 156 159 156 157 161 163 162 164 162 160 162 163 163 160 156 154 153 150 148 150 148 148 148 146 147 146 146 148 147
 138 137 138 138 138 134  48  28  24  22  22  25  29  31  44  57  66  69  73  78  78  78  82  80  81  81  86  89  92  94  95  96  96  97 102 106 110 113 108 107 104  96  96  98  95  90  86  75  72  64  59  54  54  58  66  71  90 122 144  69  45  55 129 163 165 164 167 170 171 171 172 168 164 167 168 169 163 159 155 152 149 149 151 148 149 149 148 149 148 148 149 149
 138 137 140 140 137 134  47  27  22  20  22  25  26  30  40  54  65  69  78  79  78  78  80  82  82  83  86  87  93  98  97  95  96  95  96 100 104 104 101 100 100  95  92  90  87  79  75  67  65  58  56  56  65  72  80  84  94 118 128 124  51  54 118 165 166 165 167 171 174 175 173 170 166 170 170 170 165 162 158 155 153 153 153 153 152 150 152 153 151 150 151 152
 140 139 140 140 139 135  43  28  22  22  22  25  26  30  37  48  65  69  76  78  80  79  79  78  79  80  84  87  91  90  91  92  91  90  89  92  96  96  93  94  90  90  87  84  80  75  70  64  66  69  70  70  72  75  81  88  98 111 124 161  64  58 116 165 168 166 169 173 175 174 171 168 169 170 172 170 167 164 161 155 154 155 154 154 154 154 153 155 153 154 153 152
 142 142 140 140 141 137  39  28  22  24  23  22  25  28  35  51  64  70  76  77  76  74  72  70  71  75  76  76  78  76  73  75  76  78  84  83  86  89  90  90  89  86  83  80  77  74  72  71  77  73  67  62  58  63  70  75  92 106 121 157 110  64 109 165 168 169 179 189 185 177 171 169 171 174 174 171 170 166 161 157 157 157 156 158 158 158 156 156 155 156 156 157
 141 143 143 142 142 136  51  31  26  25  22  22  25  27  34  50  66  71  71  75  72  65  60  61  59  59  56  52  52  54  58  56  61  67  72  74  78  81  84  85  85  86  84  83  79  78  79  80  68  52  48  47  52  58  69  78  70  90 114 154 162  62  90 166 170 177 198 212 200 185 173 171 173 175 175 173 170 168 165 160 162 162 161 161 158 160 160 159 158 160 159 160
 141 141 143 143 142 143  70  32  27  26  22  24  23  26  34  50  66  71  75  70  62  48  45  47  51  53  46  43  41  44  46  50  49  56  62  66  71  75  77  82  85  88  89  88  84  81  78  67  48  45  39  36  42  68  57  44  60  78 109 150 183 102  79 180 174 179 196 206 198 185 177 174 176 176 176 172 172 169 165 162 164 164 163 163 163 163 162 162 161 161 161 162
 142 143 144 144 142 143 105  30  28  26  22  24  22  25  35  54  66  72  72  60  45  46  45  46  46  49  49  44  46  49  49  52  49  53  58  59  63  69  74  82  87  92  99 102  95  81  67  51  50  40  35  32  48  86  95  70  69  84 117 160 184 157  68 127 171 176 182 186 185 180 177 176 177 178 177 175 174 169 166 166 166 165 166 168 167 165 166 165 165 166 164 164
 144 146 145 144 145 144 136  43  31  27  22  22  24  25  37  59  69  69  61  46  41  39  43  50  55  52  49  54  58  57  59  60  63  62  61  62  67  71  72  78  89  95 107 114 102  81  63  52  50  47  41  36  44  75  83  75  97 122 159 181 193 196  84  74 156 176 178 181 181 178 177 177 176 179 177 175 174 170 170 169 169 170 169 169 169 169 169 168 169 167 168 168
 143 144 146 147 146 146 145  76  34  28  24  23  23  23  39  62  71  70  55  43  45  45  48  53  61  62  61  59  57  53  47  46  50  55  59  64  67  71  76  81  88  99 110 113 107  93  77  52  47  49  45  45  49  63  71  96 121 154 183 196 201 202 137  72 155 175 177 180 178 177 177 178 179 179 177 176 173 172 172 171 170 171 170 170 169 170 171 170 170 170 170 169
 144 145 146 146 147 147 146 113  43  28  26  24  24  23  37  62  73  72  53  45  48  50  57  64  62  60  54  46  43  43  41  40  41  42  48  57  63  67  74  80  90 104 127 145 128 102  89  70  57  52  56  60  64  73  84 100 123 167 190 202 203 201 186  73 155 175 178 177 178 176 177 176 179 179 177 176 175 174 172 173 172 172 172 173 173 171 170 173 172 172 171 171
 146 147 146 146 148 149 149 142  48  30  24  26  24  22  33  64  74  74  57  48  58  61  64  63  56  45  45  43  35  33  36  40  45  45  49  54  63  65  70  78  90 113 145 177 192 145 100  83  69  61  62  64  70  78  87 109 150 181 198 206 209 207 203  97 134 175 177 178 178 177 177 177 178 177 177 177 176 176 175 174 175 176 176 175 174 175 175 174 175 173 173 173
 149 149 150 149 149 150 150 146  90  31  25  26  24  22  30  59  75  74  62  56  63  67  62  53  42  46  35  27  25  25  38  62  56  46  47  59  67  66  71  77  93 119 159 189 212 202 127 102  89  84  80  80  83  89 106 135 169 188 198 207 209 206 200 145 122 172 178 178 178 178 178 178 178 176 177 177 177 178 177 177 177 177 177 176 176 176 177 177 176 175 175 175
 148 148 148 150 151 152 152 149 127  33  26  26  25  23  26  54  77  77  68  60  63  64  57  43  47  32  39  33  31  27  37  63  61  45  47  62  65  69  73  77  86 107 153 196 226 225 165 121 107 106 100  98 100 108 122 143 171 186 198 202 201 200 198 171 113 174 178 179 180 181 179 179 180 180 179 181 179 178 178 179 178 180 179 178 178 177 178 178 180 178 178 177
 151 150 151 151 153 154 152 153 148  70  29  26  26  24  25  51  77  79  76  75  68  62  53  46  32  37  71  51  35  33  39  53  49  49  55  58  65  72  75  78  81  90 128 180 224 229 186 155 125 118 114 114 114 126 142 155 171 186 192 195 196 192 192 180 123 175 180 183 182 181 180 182 182 182 181 182 183 182 181 182 183 182 182 181 182 180 181 181 181 182 181 179
 152 152 152 154 153 154 153 154 153 123  27  25  26  24  24  45  77  83  82  78  72  62  55  46  43  42  51  52  47  47  49  51  50  48  52  62  73  77  79  82  80  81 114 154 204 231 201 177 150 130 124 124 132 146 161 175 185 193 194 192 190 188 186 181 151 179 182 185 183 182 184 184 184 182 183 183 184 185 183 183 184 183 184 184 183 183 185 183 183 185 183 182
 152 153 154 155 156 155 155 157 154 142  45  27  27  26  24  37  78  84  86  82  74  64  61  59  58  58  55  57  58  56  56  55  53  56  64  74  78  79  80  81  80  85 101 135 182 227 217 198 179 149 139 139 148 166 176 187 194 201 201 196 193 187 182 176 178 182 183 185 185 185 184 186 185 184 184 184 186 184 184 185 186 186 186 186 186 185 185 185 185 186 185 185
 154 155 156 156 157 155 157 154 154 146  70  31  26  25  24  33  71  85  86  85  80  71  73  69  67  66  69  67  64  63  62  63  65  71  76  80  81  79  79  80  81  87 106 130 160 211 230 213 203 184 157 153 161 173 185 190 197 200 197 198 196 190 180 173 172 185 186 185 185 187 185 186 187 188 186 187 187 187 186 185 187 187 188 188 186 187 187 188 187 185 186 186
 154 155 156 157 156 158 159 159 159 148  81  42  29  29  25  29  68  84  85  88  85  83  83  81  80  76  74  71  72  71  72  73  74  80  82  82  82  79  79  80  80  99 119 134 152 185 223 226 210 199 184 157 158 170 176 184 190 193 197 195 194 186 177 169 157 184 187 188 188 188 189 188 187 187 187 188 188 189 188 188 188 188 188 188 188 189 190 189 188 188 187 187
 156 156 157 158 159 160 160 161 161 155  89  60  40  31  26  27  63  85  89  92  89  86  88  88  89  87  84  82  80  80  81  80  80  83  86  82  81  80  79  76  82 111 121 128 139 159 189 207 207 192 190 173 145 153 164 175 180 184 186 191 190 183 176 170 167 191 189 189 189 189 189 189 190 189 189 191 189 190 189 190 191 190 189 190 190 190 190 190 188 189 187 188
 159 158 158 160 160 161 162 161 161 158 135  69  61  38  27  27  58  82  88  89  91  91  92  95  94  92  89  86  86  85  86  85  85  86  87  86  82  80  76  72  87 108 114 115 120 131 146 159 178 175 160 165 161 135 145 156 165 174 177 180 182 180 174 170 170 203 191 190 191 190 191 191 192 192 191 191 191 191 190 190 192 191 192 191 190 190 191 191 190 190 191 191
 160 160 159 160 162 162 162 163 164 164 154  74  73  53  29  26  49  79  89  92  94  97  97  96  97  95  92  90  88  89  88  90  89  88  87  86  84  80  73  78  89  99 102 101 104 106 109 116 129 138 117 125 150 134 130 140 150 158 164 168 170 175 173 171 158 173 190 191 192 191 193 192 192 192 191 192 193 191 192 192 193 193 192 192 192 191 193 192 191 193 192 192
 159 160 162 162 162 164 163 167 167 166 164  78  79  73  42  29  44  78  88  90  96  99 101  98  98  97  95  92  93  91  92  92  90  89  89  86  85  77  74  90  85  85  83  85  88  90  89  90  97  95  77  90 116 148 132 130 138 147 151 157 159 166 171 169 164 175 191 193 192 193 194 195 194 194 192 193 195 193 192 194 194 194 194 192 194 192 195 193 193 193 192 193
 160 163 162 164 165 165 164 165 167 168 164  84  79  76  51  30  41  73  84  88  94  99  97  98  99  97  94  96  96  95  97  96  92  91  90  88  83  73  78  85  78  76  73  70  68  75  76  78  87  46  53  73 117 161 151 137 137 144 143 147 150 158 166 171 168 179 193 194 194 195 196 196 194 195 195 195 195 196 194 196 195 195 196 195 193 193 194 194 195 194 195 194
 162 162 164 167 167 167 167 168 169 168 168 108  82  71  56  33  38  70  83  88  94  97  95  96  95  93  94  96  98  97  97  95  94  90  86  85  80  70  76  80  77  69  50  47  56  64  70  76  88  78  80  88 147 165 164 156 143 144 147 142 145 150 160 168 165 182 194 195 196 196 196 198 197 197 196 196 198 198 196 197 197 196 198 198 196 196 195 196 196 197 197 195
 163 164 166 167 167 169 168 169 170 171 170 147  85  67  53  38  34  63  81  84  90  91  93  94  91  90  93  94  97  97  96  94  94  92  88  84  79  70  73  76  72  49  30  41  56  62  69  77  86  89  95 100 155 167 168 164 158 146 147 147 145 148 156 163 162 173 196 196 197 196 197 198 198 198 197 197 200 199 197 198 199 196 197 198 198 197 198 199 197 199 199 198
 164 167 168 169 170 170 170 172 174 173 172 170 110  70  51  47  39  54  79  83  86  89  89  89  89  89  90  93  95  96  96  93  94  91  88  87  80  72  65  70  65  52  48  61  65  65  67  75  83  86  91 101 148 162 163 157 155 155 145 145 145 145 149 153 160 164 195 199 200 199 199 199 200 198 201 199 200 201 200 200 198 198 199 201 200 201 199 199 199 198 197 197
 167 166 170 169 170 170 172 174 175 176 176 174 154  82  58  48  50  47  74  81  81  88  88  90  89  89  89  92  93  93  94  94  92  89  89  88  83  76  67  63  57  60  60  63  66  70  71  72  76  79  83 100 141 158 158 151 145 145 143 134 146 143 141 145 152 165 194 201 201 202 200 199 201 201 202 203 201 201 203 203 201 200 202 201 202 202 200 200 199 201 200 196
 168 168 169 170 171 174 173 174 175 176 176 176 174 105  85  80  61  63  72  80  83  84  87  87  87  89  90  91  92  93  94  92  91  90  90  86  84  83  74  70  66  61  62  59  63  70  70  69  65  79  91 119 142 159 151 150 142 131 139 139 143 147 143 142 147 153 192 203 203 203 203 202 203 203 202 203 204 203 203 203 203 201 202 203 203 204 201 203 202 201 201 201
 169 169 171 171 172 174 175 175 177 176 179 177 177 140  87  88  76  70  71  76  81  82  85  87  86  88  90  90  92  92  90  91  90  92  90  87  86  83  78  74  72  68  64  63  66  71  67  67  61  74  98 126 145 154 147 133 116 108 112 127 134 143 139 138 140 146 191 202 203 203 204 203 204 204 204 204 203 203 202 203 203 203 203 203 203 203 203 203 203 203 202 202
 172 170 172 173 174 176 176 176 178 180 181 180 180 174  97  93  88  86  72  71  76  81  83  85  86  82  87  88  89  91  91  91  90  88  88  86  86  83  78  73  70  66  64  68  70  73  65  56  57  75 102 121 130 139 131 115  92  82  84 108 125 138 140 135 137 142 191 204 203 204 204 205 205 205 204 205 204 204 204 204 204 204 203 204 204 204 204 204 205 205 204 204
 171 171 172 173 175 175 177 177 179 183 183 183 182 181 148  97  87  82  74  64  73  79  83  83  86  80  85  86  86  89  89  89  89  89  87  84  81  81  78  75  70  61  63  69  72  73  69  63  70  81  80  81  83  84  85  77  59  70  77  93 115 131 139 131 128 139 194 207 206 206 204 204 204 204 204 205 204 205 204 205 204 205 205 205 204 205 205 204 206 205 204 204
 170 173 176 175 177 175 177 179 180 181 182 182 185 185 179 117  93  88  83  74  70  77  79  82  85  85  85  86  87  85  86  88  89  87  86  82  80  76  72  70  66  64  65  67  73  72  70  72  74  73  70  69  71  69  72  66  75  87  85  96 110 122 124 123 121 138 196 210 207 209 208 206 205 205 206 206 206 205 204 205 204 204 206 205 205 205 207 206 206 206 205 204
 173 173 175 176 178 177 179 181 181 184 185 185 185 185 183 155  94  90  85  74  70  75  78  81  84  86  84  86  84  85  86  87  87  85  84  80  74  71  72  70  68  69  73  67  62  58  59  61  67  62  56  51  53  61  81  88  98 102  98 101 110 117 116 114 116 127 199 209 208 208 208 206 207 207 205 207 206 206 206 207 205 206 207 206 206 205 205 205 207 207 206 205
 175 176 177 178 178 179 181 180 180 182 184 185 186 187 188 185 154 127 134 170  87  75  79  80  81  83  84  86  84  83  85  85  86  84  79  76  72  72  71  69  70  70  64  57  55  54  49  48  53  47  52  59  73  93 105 116 122 120 113 111 112 112 110 102 106 131 202 209 210 208 209 205 206 207 206 207 206 206 206 206 205 207 206 206 207 205 206 207 206 205 206 205
 175 177 178 179 177 178 181 181 185 184 185 187 188 188 190 188 188 186 186 187 155  74  76  76  76  80  81  82  79  82  83  84  85  81  76  72  70  69  67  65  59  55  51  48  45  40  42  44  52  62  68  78  90 101 122 135 142 137 126 109 108 109 108 103 100 130 202 208 208 208 206 208 207 206 205 206 206 208 206 207 206 205 207 208 207 206 206 206 206 205 207 206
 176 176 178 179 180 179 182 182 185 186 185 186 187 188 190 190 190 190 191 192 191  98  77  77  75  78  78  78  81  83  83  82  82  80  77  70  64  58  51  46  45  46  46  43  48  48  55  56  66  70  74  80  86 105 124 136 141 142 132 115 111 113 111 104 100 144 204 208 207 207 206 206 208 206 207 206 208 207 206 206 207 207 206 206 206 206 207 207 206 207 206 206
 177 176 179 180 180 181 184 184 185 187 186 188 189 189 190 190 190 192 191 193 191 162  73  76  77  78  75  76  81  77  84  83  84  82  79  68  58  51  47  45  47  51  52  54  58  63  64  63  68  70  73  77  87  98 111 124 131 137 138 125 113 113 110 104 101 164 204 205 207 206 205 206 207 207 207 207 207 207 209 208 207 206 207 206 209 206 206 207 206 207 206 207
 176 178 178 180 183 184 184 185 186 187 188 189 189 190 191 192 192 192 192 194 195 193 110  76  74  71  73  73  76  76  82  83  83  84  82  72  63  59  62  64  61  63  61  60  60  64  67  66  67  70  74  78  81  91 101 113 126 131 131 126 121 120 114  96 100 183 205 207 206 206 207 205 206 206 207 208 208 207 207 207 207 208 207 208 208 208 208 207 206 207 206 207
 177 179 180 181 183 184 185 185 187 188 188 190 190 192 192 193 194 194 195 195 197 195 172  78  71  71  73  73  76  78  78  79  82  84  83  75  69  70  71  73  74  75  73  74  71  71  72  72  71  69  69  73  74  82  93 106 121 132 135 130 125 127 109  95 112 198 205 206 207 206 207 207 207 208 207 207 208 208 207 208 206 208 209 207 207 207 207 206 207 207 206 207
 176 179 180 183 185 183 186 186 188 189 189 190 191 192 193 192 194 195 196 196 198 197 193 119  75  69  70  72  76  76  76  77  80  81  81  78  73  74  76  74  77  76  76  77  77  72  71  71  65  60  61  67  73  82  96 110 122 133 142 142 128 121  97  92 132 198 206 205 206 207 208 207 205 208 208 207 208 208 209 208 208 208 208 207 208 207 208 207 207 208 208 206
 178 181 182 183 184 185 187 188 189 189 190 190 192 192 194 194 195 194 197 197 197 197 198 186  81  66  68  70  70  71  73  73  74  75  79  78  76  72  72  75  75  73  73  72  72  70  69  69  64  57  57  65  74  88 108 124 131 137 139 142 135 110  92  90 146 200 206 208 208 207 208 208 207 209 209 208 207 207 207 206 206 208 208 207 207 207 206 207 206 207 207 206
 180 182 184 184 185 185 186 186 188 190 190 190 192 192 194 196 196 196 197 197 198 197 199 196 128  62  64  62  66  69  72  69  74  76  76  72  74  72  68  73  74  77  77  75  75  75  75  72  66  63  68  77  94 111 133 144 144 141 137 134 127 105  85  86 152 202 206 209 208 207 209 208 208 208 207 207 210 208 209 207 209 208 208 207 206 207 206 206 205 207 207 205
 182 183 184 184 186 184 187 189 189 189 190 190 192 193 194 194 193 196 198 198 199 200 200 200 181  60  56  58  59  64  63  64  72  70  71  70  70  74  70  70  72  78  77  78  78  78  79  76  76  72  81  97 114 133 143 146 144 135 126 123 108  92  78  90 150 201 209 208 207 208 209 208 208 208 207 207 208 207 208 207 206 206 207 207 207 207 207 205 207 206 206 207
 182 184 185 184 187 188 187 186 190 191 190 191 194 194 196 194 196 197 197 197 199 200 201 201 195  88  51  50  53  55  56  59  62  66  71  68  64  65  71  64  68  73  75  75  74  77  76  74  73  77  82 102 116 122 136 141 139 125 112 114  97  80  75  97 144 201 208 208 208 209 208 208 209 207 210 209 208 209 210 208 208 206 208 207 208 207 208 206 206 205 206 206
 184 183 184 185 187 187 189 190 191 190 192 193 194 194 194 196 197 197 198 198 200 202 202 202 197 140  61  50  49  51  51  53  57  60  68  67  62  60  69  67  70  71  72  74  75  76  78  75  75  75  85  95 108 113 119 121 116 103  96 101  88  72  74 102 142 198 206 209 209 210 209 208 208 208 208 209 208 208 208 208 208 206 208 206 208 207 206 205 206 206 206 206
 185 185 188 187 187 189 190 190 191 190 193 193 193 194 194 197 197 198 199 199 200 200 202 203 201 189  68  49  44  46  51  55  54  54  60  61  59  63  65  68  68  68  65  69  73  75  77  78  77  79  83  86  90  95  92  98  99  91  84  90  81  69  84 112 135 198 207 208 209 208 209 209 208 208 207 210 210 208 208 207 206 207 208 207 207 206 206 206 206 206 206 206
 185 186 188 187 190 191 191 191 191 192 193 193 193 194 195 196 196 200 198 199 199 200 202 202 203 198 111  58  44  42  43  45  47  49  57  56  52  54  57  62  67  69  66  67  70  74  74  72  73  74  76  72  75  77  78  80  82  78  76  77  66  74  91 109 134 195 205 207 207 207 208 210 209 208 208 210 208 207 208 208 207 206 208 209 207 207 207 205 206 206 205 205
 186 186 188 190 190 191 190 193 193 193 194 193 194 196 195 197 198 199 200 201 201 201 201 202 202 202 158  65  50  38  41  44  44  49  49  49  47  46  48  60  62  64  65  69  69  72  75  68  70  65  70  73  72  70  71  74  73  69  69  62  58  77  98 114 136 190 206 209 208 208 209 210 209 207 207 208 209 208 207 209 208 207 208 206 207 206 207 205 206 205 206 205
 188 188 189 188 191 192 193 194 193 194 196 195 194 197 196 197 199 201 199 202 202 201 202 204 204 202 196  76  56  44  40  43  47  47  44  45  46  44  46  51  50  59  57  63  68  68  69  67  65  57  62  69  63  65  63  60  64  65  60  55  68  81 101 117 139 185 204 206 208 210 210 209 209 209 208 209 209 209 207 207 208 207 207 208 207 207 206 206 206 205 205 204
 188 188 190 190 192 192 192 194 193 193 195 195 196 197 198 198 198 199 201 201 203 202 204 203 204 203 199 115  64  55  45  41  45  46  45  49  49  39  44  46  46  50  53  53  58  54  57  58  66  55  54  58  56  55  53  54  57  53  52  63  79  89 106 120 144 175 204 208 208 209 208 207 208 208 208 207 209 209 207 209 208 207 207 207 205 206 206 205 206 204 204 205
 187 189 189 189 189 191 193 194 194 194 195 197 196 195 197 198 200 201 202 201 203 202 202 201 203 204 201 164  66  57  51  44  40  43  46  48  48  42  43  41  41  42  45  46  51  50  51  53  59  55  51  52  49  50  48  51  50  48  63  71  81  91 110 129 144 168 203 207 207 209 209 209 208 207 209 207 208 207 206 208 209 208 207 206 207 207 206 206 206 205 205 205
 186 188 189 189 190 190 192 193 194 194 198 197 197 198 198 199 201 199 200 200 203 202 203 203 203 203 204 196  76  59  56  48  41  37  41  46  45  41  41  44  39  37  35  36  41  43  44  44  50  47  47  48  42  43  44  43  44  61  67  75  87 100 117 135 146 164 199 207 208 209 207 207 208 207 208 208 208 208 207 207 206 207 207 205 206 205 206 206 205 205 205 204
 186 187 189 190 190 191 192 193 195 196 195 197 197 196 198 198 199 199 202 200 202 203 203 202 204 205 203 197 119  64  54  54  48  40  35  38  38  41  42  44  44  40  35  33  34  36  36  37  37  38  43  42  38  40  41  49  61  68  73  77  90 108 124 136 150 165 191 206 208 209 208 207 208 207 207 209 209 207 208 206 206 208 208 207 206 206 205 205 206 205 205 203
 186 187 188 190 191 191 191 193 194 195 195 195 196 197 198 199 200 200 202 204 203 202 203 203 203 203 204 202 166  69  57  54  53  49  41  35  33  38  43  43  42  40  36  36  36  35  35  36  39  39  40  44  38  41  49  62  67  68  76  84 100 114 127 138 156 163 187 205 207 210 209 208 208 206 207 207 206 207 208 207 208 207 206 206 206 207 206 206 206 206 204 203
 187 189 191 192 190 191 192 194 195 196 195 196 197 197 198 198 200 200 200 200 202 202 202 204 203 203 204 201 197  82  63  55  53  50  50  43  37  36  37  38  38  39  36  36  37  39  38  40  41  38  39  47  50  53  54  61  67  76  82  92 107 115 123 144 158 163 178 208 207 208 208 206 206 207 208 208 206 206 207 206 208 207 206 206 206 205 207 205 206 205 204 203
 188 188 190 189 190 192 192 193 194 194 194 196 196 199 199 198 199 201 200 200 200 201 201 203 201 201 199 170 149  80  67  62  57  54  53  54  47  46  41  41  39  38  36  35  35  33  37  40  44  47  55  62  64  64  65  68  79  82  92  97 108 116 134 149 155 162 168 112 114 202 205 206 206 206 207 208 207 207 207 207 207 207 206 206 206 206 206 206 205 205 203 204
 187 188 190 190 190 192 193 193 194 194 198 197 198 197 197 198 199 199 198 199 199 199 201 204 193 134  66  78  84  74  67  65  66  63  58  57  55  52  49  49  45  44  43  45  47  47  50  53  57  60  59  62  65  66  72  78  88  91  93  98 109 127 143 152 157 162 164 176  68 101 194 204 206 207 207 208 208 206 207 207 206 206 206 206 205 205 204 205 205 204 203 204
 186 188 190 189 191 192 193 194 194 195 197 198 199 198 198 200 204 208 184 169 178 116  83  67  36  35  48  72  75  68  67  66  66  66  66  64  62  57  54  51  50  50  49  50  53  54  52  56  58  59  59  62  63  70  79  86  90  92  94 106 121 133 142 148 155 158 162 184 195 130  78 155 205 206 206 206 208 207 206 206 206 205 206 206 205 205 205 205 204 202 202 203
 186 187 188 189 190 192 192 195 194 195 196 196 196 197 164 107  63  45  38  39  37  30  31  28  25  25  48  70  72  64  67  70  69  64  66  68  70  65  62  60  56  57  57  56  55  55  54  58  59  61  63  66  73  79  85  87  89  92  96 109 122 131 141 146 151 155 160 174 202 194 127  72  79 112 140 187 204 205 205 205 205 205 205 204 204 203 204 204 205 204 203 201
 186 186 186 187 189 191 191 192 192 192 194 182 115  66  38  33  30  28  28  26  26  22  20  20  20  22  51  68  70  62  65  72  69  65  66  71  67  67  69  65  62  62  57  56  59  60  60  64  66  67  70  74  78  80  86  87  89  93  99 109 122 132 138 143 149 152 156 168 196 194 191  71  58  56  54  69 163 203 204 204 204 206 203 204 204 204 205 204 203 203 202 200
 186 188 190 192 194 193 194 174 134 104  76  32  33  29  25  24  24  20  22  22  21  17  17  17  19  19  51  70  70  61  66  70  74  74  73  74  74  72  69  65  67  66  67  65  66  67  66  68  72  73  73  77  79  82  83  86  90  92 100 111 121 132 134 142 146 148 153 167 186 194 193 113  54  47  43  50  63  80 132 181 207 204 202 202 203 204 203 202 202 203 202 201
  39  43  48  51  53  48  40  33  33  30  28  26  26  24  20  19  21  20  20  18  17  17  16  17  17  19  43  68  69  64  67  71  74  77  78  78  77  78  74  71  67  65  67  68  68  66  68  70  72  72  74  77  78  88  88  90  91  94 101 111 122 129 135 138 141 145 154 166 189 193 191 132  52  44  41  42  54  56  60  63  88 139 176 202 200 201 203 200 200 201 200 201
  27  24  26  27  26  26  27  26  22  21  22  21  19  20  18  17  19  18  19  17  17  16  15  16  16  16  37  66  71  64  67  69  71  74  78  77  78  80  77  74  72  70  70  70  70  71  72  74  76  77  79  83  83  87  90  92  92  96 105 110 119 126 132 134 137 144 155 168 201 207 193 137  52  44  37  39  52  54  51  52  52  57  62  72 105 134 162 185 197 197 199 198
  20  19  20  21  20  20  22  19  20  18  19  18  17  16  17  16  18  18  16  17  16  16  15  16  16  16  20  64  70  65  65  67  72  73  76  76  79  80  79  80  78  75  72  71  68  72  74  79  80  80  85  85  87  88  90  90  91  95 105 113 120 122 127 132 139 143 158 169 197 207 191 133  48  40  37  37  47  50  48  46  46  49  51  53  54  57  56  55  61  74  88 105
  19  17  18  18  18  17  18  17  18  17  16  17  17  16  15  16  17  17  16  17  16  17  14  14  15  15  18  47  70  68  66  66  70  71  74  76  76  78  80  80  79  79  77  76  75  76  80  83  82  87  86  88  88  89  89  88  92  97 102 111 117 119 123 131 139 144 159 163 192 201 189 115  43  38  35  37  44  47  44  44  44  43  46  45  46  46  48  49  48  50  53  53
  17  17  16  18  18  17  17  18  17  17  16  17  17  17  16  14  16  15  16  16  16  16  13  15  14  16  16  36  69  69  66  67  71  72  73  76  77  76  78  80  80  80  78  79  80  79  82  83  84  85  86  88  87  89  91  92  95  98 106 108 112 116 123 131 140 151 158 163 193 192 189  89  40  37  34  39  44  46  42  44  41  42  43  44  46  44  45  44  44  45  47  47
  15  16  16  17  17  17  17  16  16  16  15  17  17  16  15  14  16  15  16  15  16  16  15  14  14  15  15  20  62  67  66  70  71  72  71  74  77  76  79  80  78  79  79  80  80  82  83  86  86  87  88  87  89  90  92  94  94  99 103 106 113 117 123 133 142 148 157 166 192 185 184  51  39  36  34  38  42  43  42  42  41  43  42  43  42  41  42  42  42  44  42  45
  16  16  16  16  16  15  16  15  14  15  14  16  16  15  15  15  13  14  15  15  14  15  13  13  15  15  15  16  42  68  66  66  67  69  71  72  75  76  79  80  79  78  80  81  83  83  85  86  86  86  87  89  90  90  92  93  94  96 102 109 115 119 125 136 140 149 158 168 187 185 146  41  33  35  35  40  42  42  41  41  40  40  42  41  39  40  40  41  39  39  41  42
