P2
# Generated by OpenCV 3.4.0
92 112
255
  81 101 107 109 100 104 110 111 111 112 112 113 112 112 114 114 115 113 113 113 113 114 113 114 115 114 114 114 115 113 113 112 103  88  78  60  50  47  47  45  46  43  38  36  36  37  36  37  39  36  40  42  50  64  76  75  70  65  65  60  53  56  59  63  71  64  66  68  66  67  63  71  82  98 109 110 112 113 116 117 118 119 117 116 118 117 116 118 119 118 119 120
  89 100 109 110  98 107 110 111 112 112 113 112 112 112 114 113 114 114 114 113 114 114 113 114 116 114 115 113 110 104  95  74  63  49  40  37  36  36  40  42  41  43  38  39  40  39  42  44  50  51  53  52  51  58  61  71  76  79  73  59  47  43  46  43  40  43  48  54  51  54  60  70  65  89 101 104 110 109 111 115 116 115 115 117 118 117 119 120 121 120 120 120
  91 102 108 109  97 109 111 112 111 113 112 112 112 113 113 112 114 115 115 115 115 114 115 114 113 111 110 100  83  61  50  45  40  42  42  43  43  42  42  41  35  32  32  34  35  37  40  45  51  52  60  68  69  71  69  68  73  81  87  84  68  50  43  37  39  41  39  39  43  42  52  62  62  70  83  97 102 106 110 114 114 114 117 119 117 119 120 119 123 120 119 120
  93 102 109 110  96 109 111 111 111 114 112 114 113 114 113 113 113 115 115 115 116 114 113 114 111 104  90  73  54  43  43  44  47  47  46  44  43  47  43  41  40  39  37  36  42  39  41  43  50  57  64  67  73  72  76  81  81  78  73  75  74  67  55  47  42  30  30  31  32  32  41  56  65  70  69  75  86 102 106 109 114 116 118 116 119 123 123 120 122 120 122 120
  96 105 109 110  98 112 111 113 114 113 113 114 115 114 115 114 114 114 115 115 114 113 113 110 102  83  64  51  47  44  48  46  46  47  43  45  43  42  41  41  40  38  41  40  44  46  49  53  59  62  65  66  71  75  81  84  86  90  79  77  77  78  76  66  62  56  50  33  32  32  33  45  54  59  64  66  78  92 102 112 116 118 118 120 119 121 122 122 122 122 122 121
  97 106 109 109  99 112 113 114 115 113 114 112 114 114 114 115 113 114 115 114 114 114 112  97  81  67  52  42  43  45  48  48  49  48  47  44  44  41  39  38  39  38  42  46  42  40  42  47  51  53  55  61  63  68  70  71  79  76  78  75  74  71  68  64  64  57  51  44  33  30  30  41  49  58  60  60  70  83 101 111 115 116 122 121 121 123 122 121 124 123 123 123
 101 108 108 111  99 111 113 114 113 114 113 114 115 113 113 114 113 114 114 114 113 110  92  73  66  56  47  45  48  50  46  46  46  47  47  42  41  43  43  37  38  40  42  40  38  36  37  35  36  41  44  51  56  59  65  58  51  49  52  52  55  53  54  56  52  48  48  44  38  33  31  42  52  60  68  68  74  85  98 109 111 118 121 122 122 122 124 123 124 123 123 123
 103 109 110 112 100 114 114 114 114 114 114 114 114 114 112 113 114 114 115 112 103  90  68  60  51  46  45  49  50  49  47  44  42  42  42  38  37  35  35  34  34  34  35  35  36  39  40  38  37  40  44  48  58  64  64  57  54  46  43  47  49  44  45  47  47  43  39  36  37  34  30  39  47  55  58  67  72  85  94 105 115 117 117 119 121 121 119 122 121 122 122 123
 106 110 113 108 102 113 112 114 115 114 114 114 114 115 113 114 115 114 110 104  90  69  56  56  50  51  54  49  44  41  44  47  47  42  37  35  32  30  30  28  30  30  30  32  33  36  41  42  44  46  49  55  66  72  74  62  55  54  51  40  39  44  46  46  47  41  37  36  31  29  30  30  31  38  49  55  60  67  84  97 107 111 115 116 115 117 118 123 124 125 122 123
 106 111 113 108 105 112 114 113 113 115 115 115 115 114 115 114 111 111 107 103  83  54  55  56  54  54  50  45  43  45  45  42  40  39  37  33  34  32  35  29  30  30  27  30  33  35  42  44  46  50  52  51  48  47  48  44  34  40  50  57  54  46  44  43  44  40  35  35  35  32  30  29  28  29  35  41  47  48  77  93 103 106 108 114 113 119 120 121 123 123 123 125
 107 110 110 102 106 112 114 114 113 115 114 116 115 114 114 114 114 112 108  98  71  54  52  54  55  54  52  47  45  42  40  37  36  34  33  34  33  30  32  30  30  30  30  31  34  35  38  38  43  46  53  56  58  64  61  57  52  52  50  58  59  56  45  38  35  43  40  38  35  34  32  32  31  29  29  43  44  44  54  68  79  92  93 104 111 117 119 119 119 121 123 123
 110 110 112  97 109 114 115 114 116 115 116 114 115 115 116 116 114 113 106  88  62  57  49  52  57  54  54  56  54  42  35  34  34  29  29  30  30  29  30  33  33  29  31  30  30  31  31  34  42  43  50  50  52  59  65  73  81  82  78  76  77  70  63  58  57  60  60  55  52  43  40  37  36  36  36  33  31  38  48  57  71  82  88  91 100 111 114 118 119 119 124 123
 109 112 114  98 114 114 114 114 115 115 115 115 115 115 116 116 115 111  94  65  59  46  44  51  56  54  50  50  47  42  36  39  34  32  29  30  27  27  29  29  29  30  30  32  34  35  37  39  43  42  44  48  47  50  53  62  75  85  84  73  70  65  65  65  66  65  58  56  49  51  47  41  36  32  38  33  29  30  42  50  54  70  90  91  93 101 104 113 117 119 122 123
 112 113 114  96 113 114 115 116 115 115 116 117 116 117 115 115 112 104  73  59  49  47  58  56  49  46  46  45  43  38  37  34  33  30  29  30  28  30  33  29  30  31  33  31  32  33  36  36  41  42  43  44  47  48  49  53  60  69  75  74  68  64  60  55  52  58  59  51  44  40  43  46  37  34  36  31  31  32  35  40  45  57  68  90  97  95  93 105 121 125 125 126
 112 113 115  95 114 114 117 116 115 116 116 117 117 116 113 115 109  80  59  45  44  56  52  47  43  41  46  47  43  40  42  38  36  31  30  30  29  30  32  29  29  30  29  30  31  32  34  33  35  37  38  41  45  46  44  45  46  53  60  68  68  65  59  51  47  48  50  48  46  43  41  40  38  35  34  36  33  33  33  36  36  43  63  76  95  92  95  94 103 123 127 126
 113 112 113  99 113 115 116 115 117 117 117 116 116 116 116 112  94  58  47  43  49  51  51  56  54  51  49  45  42  34  35  35  35  30  27  28  28  29  30  30  30  30  30  30  32  33  34  37  38  34  33  36  34  37  37  39  41  43  43  43  50  58  61  57  51  45  42  43  45  45  45  43  42  38  35  35  35  31  34  33  32  32  45  63  88  92  97 113  98 104 120 123
 113 112 115  98 115 116 116 116 116 116 118 118 118 118 116 112  66  50  42  44  49  51  58  59  58  54  49  42  33  31  33  32  30  29  28  30  25  24  25  26  28  30  31  30  29  28  28  32  34  40  42  38  37  43  43  46  43  44  46  51  53  52  56  57  54  48  40  37  36  43  50  49  47  50  50  39  33  33  34  30  34  32  36  48  66  84  98 114 118 105 113 121
 114 114 113  94 116 116 117 119 118 116 117 119 119 120 118 107  54  45  44  48  48  51  51  55  58  51  45  43  38  35  38  32  29  28  26  28  28  25  24  26  25  26  29  33  29  28  28  31  35  37  37  37  34  35  40  43  47  51  50  49  50  56  58  53  50  48  44  39  40  45  45  42  40  42  45  49  46  41  37  36  43  40  33  37  51  73  95 112 120 118 115 119
 114 114 111  98 117 116 118 119 118 117 119 121 119 119 115  98  56  44  44  44  46  46  46  50  53  49  48  48  47  41  47  34  29  29  29  29  29  29  27  25  26  26  30  32  34  34  36  36  35  29  28  26  30  36  38  46  49  53  56  55  58  55  56  56  48  45  40  35  33  37  39  38  35  34  37  39  38  33  35  36  43  40  39  44  47  57  77 103 119 123 117 119
 115 114 112  97 118 117 117 118 118 117 118 118 119 118 116  96  52  43  38  43  45  42  41  40  44  43  45  44  45  39  42  36  28  29  31  28  29  30  28  27  28  29  28  29  32  31  30  28  25  24  27  25  31  35  42  50  55  60  56  57  62  58  56  52  47  45  38  31  28  28  30  30  26  24  24  24  24  25  28  28  30  31  36  40  45  47  51  67 106 114 113 109
 117 115 110 105 117 119 121 119 118 120 121 119 120 121 115  97  50  42  40  42  35  32  33  36  40  42  44  43  46  41  40  36  32  30  30  27  27  30  29  30  30  30  30  29  32  34  29  26  28  31  39  40  41  48  51  50  52  61  56  59  63  56  50  44  45  42  34  29  30  31  24  24  20  17  15  17  17  19  25  29  28  29  32  39  43  40  38  45  69  81  83  81
 119 122 110 114 120 120 119 120 120 121 120 120 118 120 116  93  48  41  38  34  33  35  36  37  40  36  36  38  40  39  40  37  35  34  31  28  32  30  32  34  35  32  32  32  33  34  35  33  34  42  51  54  54  48  45  44  43  46  47  50  52  53  48  40  35  29  24  22  23  26  17  15  19  20  16  18  22  22  25  27  28  30  37  48  47  46  49  50  53  60  65  70
 123 128 112 131 127 123 120 119 121 120 120 120 122 120 115  80  44  40  36  35  36  36  38  42  42  37  35  35  34  32  32  34  35  34  33  29  32  32  31  32  33  34  34  38  34  33  34  35  35  42  42  38  42  47  48  47  45  43  44  51  46  48  48  52  47  42  37  26  22  18  16  13  12  17  16  20  23  29  33  30  31  40  49  48  49  50  54  57  58  61  67  77
 126 129 106 133 131 123 122 121 122 122 121 122 121 121 113  77  48  42  35  35  34  37  44  44  43  44  47  43  39  34  28  28  31  29  31  29  29  28  29  31  32  35  36  35  34  32  33  34  34  33  32  29  29  35  43  46  44  45  46  44  42  43  46  37  37  37  36  28  26  24  17  11  12  15  18  22  25  31  34  35  44  51  55  52  52  54  62  67  67  70  80  86
 126 129 106 131 131 127 123 122 122 122 121 121 122 121 116  80  50  41  36  33  34  39  43  42  42  43  45  43  43  38  35  31  26  26  26  26  24  25  24  24  27  32  33  34  29  29  28  30  30  31  29  29  29  35  36  41  44  44  44  45  40  41  36  29  24  23  25  24  22  20  14  11  15  16  17  20  26  31  34  39  46  49  50  51  58  62  65  73  83  86  89  90
 128 129 109 131 132 130 127 124 124 124 124 123 123 121 115  80  46  42  37  34  34  39  39  35  35  38  42  40  38  35  36  34  29  26  26  24  23  23  22  21  21  26  33  31  29  29  29  29  29  29  29  31  35  38  40  39  39  44  48  45  52  56  46  36  31  26  20  20  18  16  14  11  14  14  19  25  30  34  38  44  48  49  50  54  61  66  68  70  78  82  88  92
 130 126 102 129 132 133 132 126 124 124 123 124 123 121 111  71  43  44  38  33  32  31  33  32  30  30  35  40  42  40  35  38  35  29  26  25  24  25  23  21  21  21  24  26  28  29  29  30  30  29  30  33  34  34  42  45  47  50  64  59  52  50  45  37  31  27  23  20  17  15  15  13  15  16  24  30  34  36  39  46  46  49  50  56  62  65  67  69  73  78  84  98
 130 128 106 130 132 133 134 130 127 124 123 123 124 122 112  62  43  43  36  30  31  34  33  31  31  33  36  38  38  36  35  35  34  29  26  24  23  23  23  23  21  21  21  23  24  27  28  30  31  32  30  30  31  32  34  37  36  37  43  41  44  38  34  36  36  32  28  23  16  14  15  15  17  22  27  30  32  35  41  44  44  46  49  55  59  61  60  60  61  73  98 115
 131 130 107 132 134 136 137 132 129 125 124 124 125 124 115  64  46  38  33  31  33  31  29  28  31  32  27  29  34  35  34  31  30  27  26  24  24  26  23  24  23  24  24  23  23  23  22  25  27  29  30  31  32  34  36  37  36  41  42  42  41  35  32  32  29  30  26  24  21  16  16  17  17  20  29  28  30  34  39  39  47  49  51  50  50  52  50  51  58  66  82 116
 131 130 106 132 133 134 135 135 132 128 126 125 125 126 117  70  43  34  31  30  29  28  28  27  32  37  39  35  35  33  32  30  29  25  24  25  23  24  23  23  23  22  20  21  20  21  24  23  23  22  25  28  29  31  32  37  42  42  42  40  33  27  25  22  23  19  16  18  22  17  17  18  19  21  25  27  33  37  40  46  50  49  50  50  48  46  48  50  53  58  75 108
 132 125 109 134 133 132 134 134 134 131 129 127 127 126 121  64  41  30  30  32  30  28  26  28  34  41  42  42  41  36  33  32  28  23  22  24  23  22  22  22  22  20  22  24  25  25  25  24  22  20  19  22  24  29  32  33  35  36  34  30  29  24  19  16  17  14  14  15  18  20  19  19  24  26  28  30  34  40  42  47  50  45  44  42  47  48  44  44  48  56  80 120
 130 121 114 132 132 134 133 133 133 133 131 128 127 126 120  76  41  32  29  28  31  30  27  28  29  39  45  45  42  37  35  31  27  23  23  22  23  23  24  23  21  22  24  24  25  24  23  24  23  21  20  21  23  24  26  28  35  35  27  26  24  23  19  20  19  17  14  14  15  19  22  24  26  25  27  32  38  40  45  44  42  42  43  44  45  46  47  49  50  60  90 130
 128 109 124 129 131 132 132 132 133 133 130 129 128 127 124 103  42  32  27  24  26  29  30  28  26  31  35  39  40  37  31  30  28  24  23  22  22  22  23  22  22  21  22  22  22  20  20  20  19  19  22  23  22  22  25  27  25  26  24  25  25  23  24  23  21  18  15  16  17  20  21  22  25  25  29  35  39  39  34  39  43  43  44  43  42  46  50  55  56  58  93 134
 128 101 128 129 131 131 131 130 130 131 131 130 128 128 127 113  41  34  27  24  26  30  29  27  32  35  37  37  41  38  35  32  25  23  23  22  22  21  21  22  22  21  22  20  20  18  19  21  23  22  22  23  26  28  27  25  24  24  22  23  23  24  22  24  23  20  19  19  18  21  22  21  25  30  32  34  31  32  31  33  37  40  42  44  44  47  56  71  81  82 108 137
 128 102 129 129 131 130 129 130 129 131 131 131 128 129 130 109  41  35  30  25  26  32  34  33  34  33  35  35  38  40  37  31  27  24  23  23  23  23  22  20  20  22  20  20  20  22  21  22  24  24  23  25  25  25  24  27  30  29  30  30  29  28  28  29  26  24  23  24  25  25  26  26  29  31  32  35  36  35  33  33  34  34  36  37  38  46  55  69 100 117 134 147
 128 101 130 129 130 130 131 131 131 131 130 130 130 131 131 106  41  36  31  26  28  32  34  30  28  28  31  29  30  30  29  28  25  24  23  25  26  24  23  23  22  22  20  20  21  24  22  24  24  24  24  26  28  28  30  32  32  32  35  36  34  30  29  32  29  29  29  29  30  28  29  33  34  38  42  41  43  40  35  32  32  33  38  36  34  36  41  64 109 134 144 150
 128  99 131 132 131 131 131 132 131 132 132 132 129 132 131 111  43  37  32  25  26  32  30  33  27  24  24  27  27  28  26  25  22  23  24  27  27  26  25  22  24  23  22  23  24  24  22  22  23  25  24  25  26  29  32  34  37  42  45  42  37  35  36  37  35  34  36  38  43  41  39  41  41  44  48  48  47  45  38  31  29  31  35  37  36  36  39  66 112 146 153 155
 131 104 131 133 134 133 133 132 132 132 132 134 132 133 132 118  49  37  31  22  19  27  33  29  25  24  23  25  24  24  24  23  22  24  24  24  25  23  24  23  22  23  24  23  23  24  24  26  25  26  25  26  30  33  33  34  34  34  32  32  33  34  34  35  41  41  42  43  51  46  47  48  48  48  51  51  53  52  43  34  31  32  31  32  32  35  40  64 127 151 157 157
 132 104 132 134 133 134 134 134 133 134 133 133 133 134 133 125  64  36  30  20  18  22  32  28  27  24  24  24  25  26  26  26  28  28  27  27  27  26  25  24  24  24  24  24  24  26  27  27  27  28  29  30  29  30  34  36  35  35  36  35  36  39  38  40  43  46  48  48  53  52  51  51  54  55  57  58  58  56  48  37  31  28  26  30  33  37  46  72 129 153 159 161
 131 106 133 134 134 136 135 134 135 135 135 135 134 134 134 122  58  36  30  22  20  23  34  32  28  27  25  25  30  31  30  29  29  29  31  29  29  29  28  28  27  27  27  26  28  28  27  28  29  29  29  29  29  32  35  36  40  43  41  40  41  42  44  45  46  49  50  51  58  55  55  56  57  60  61  64  65  64  56  39  31  29  30  31  32  42  56 109 143 156 161 163
 126 108 135 134 136 136 135 137 136 136 136 137 134 135 135 124  59  36  33  25  20  22  32  32  32  30  27  28  31  32  31  31  32  32  33  32  33  33  33  32  31  28  28  29  29  29  28  28  29  28  30  32  33  36  39  40  41  40  41  42  44  46  46  49  49  51  52  56  61  56  57  60  60  63  63  68  69  70  65  43  31  27  29  31  34  50  83 144 154 160 162 164
 125 114 136 137 138 137 136 137 138 137 137 138 137 137 136 129  66  34  36  28  18  20  24  27  31  32  28  32  34  34  34  34  34  34  34  34  34  34  32  32  30  29  28  29  30  29  29  29  30  31  32  34  35  34  37  39  41  41  43  45  47  47  49  52  51  52  54  56  64  62  62  64  66  66  68  69  71  73  70  48  32  27  30  36  40  57 114 159 163 164 164 166
 120 125 139 139 138 138 138 139 139 138 140 138 138 139 138 132  76  36  36  25  19  20  22  26  31  32  33  36  39  39  38  38  39  39  40  39  40  39  36  34  32  32  29  29  30  29  30  30  34  34  34  38  37  39  41  42  43  46  47  47  47  49  51  53  53  53  55  58  65  63  63  66  69  69  68  72  76  80  72  50  34  30  33  47  61  76 140 161 166 167 167 167
 112 129 140 140 139 139 141 141 140 140 140 141 139 138 138 134  91  35  32  24  22  22  22  23  26  32  32  40  43  43  41  41  41  40  42  43  44  43  43  41  39  38  36  36  35  34  35  37  39  39  41  39  41  41  43  46  47  48  48  49  49  51  52  52  55  56  59  61  66  64  64  68  71  70  69  74  79  84  77  53  35  30  37  58 101 126 158 165 168 169 169 170
 108 138 141 140 141 141 141 142 142 141 141 142 141 140 140 138 115  39  30  28  23  22  23  23  24  29  34  43  47  45  44  43  44  44  46  46  46  48  48  46  44  42  41  42  41  42  41  39  41  42  42  43  43  45  47  49  50  50  52  52  54  54  56  55  58  59  61  61  62  64  68  69  71  71  72  77  80  85  78  54  34  34  44  81 144 156 166 167 168 169 170 171
 109 141 142 142 142 142 142 142 142 142 142 142 141 142 141 140 124  45  32  27  24  23  23  22  24  30  36  48  52  49  48  47  48  48  49  49  49  50  49  49  49  47  43  44  45  44  45  44  46  47  48  49  48  48  47  49  51  52  54  54  56  57  59  58  60  62  62  60  63  66  67  70  71  73  73  77  78  86  79  54  33  37  54 113 157 165 168 169 171 171 172 173
 108 142 142 143 144 143 143 143 143 142 142 142 142 143 143 142 129  56  32  29  25  23  25  25  26  30  38  50  57  56  51  49  48  51  51  52  52  51  51  50  50  49  49  48  46  48  48  49  49  49  50  51  50  49  50  52  52  55  55  55  58  61  61  63  61  62  64  60  66  67  69  71  74  75  74  75  80  86  79  52  36  40  68 140 162 169 170 171 173 173 173 174
 107 144 144 145 145 146 145 145 145 143 144 144 144 144 143 143 130  64  33  29  27  25  27  28  29  33  42  53  62  60  57  52  53  51  53  52  53  52  53  52  51  51  49  49  50  50  50  51  52  52  52  52  51  52  53  53  54  55  56  57  60  61  61  60  62  62  63  61  66  69  69  71  76  74  74  76  78  87  77  52  42  44  87 150 167 171 172 172 173 174 175 176
 108 144 146 146 145 144 148 146 145 146 145 146 144 145 144 143 128  96  33  30  29  26  28  30  28  35  46  56  63  63  59  55  56  53  54  54  52  51  52  53  52  52  51  50  51  50  51  52  54  53  54  54  54  53  54  55  56  57  57  57  60  62  61  62  61  63  63  65  67  68  69  71  75  74  74  78  81  87  78  52  46  55 108 155 169 171 174 176 175 175 178 178
 113 145 147 147 146 148 148 146 147 146 146 146 146 146 145 143 120 102  48  32  30  26  31  30  31  39  48  58  67  66  60  57  57  55  54  53  54  54  55  54  56  54  54  53  52  51  52  53  54  54  54  54  53  55  54  56  56  59  58  58  59  61  61  63  63  63  62  66  67  68  69  72  74  73  77  81  83  89  81  56  49  72  94 153 170 175 177 177 177 178 178 180
 114 148 147 148 149 149 150 148 148 147 147 148 150 147 148 146  97  84  64  36  31  27  27  31  40  44  53  63  71  69  63  59  57  55  56  55  56  56  56  55  56  56  55  54  53  51  50  54  53  52  54  55  54  54  55  55  58  59  60  58  60  61  61  63  64  63  63  65  67  68  69  71  73  74  77  81  87  92  90  58  52  79  81 165 173 177 178 178 181 180 181 180
 121 148 149 151 151 150 149 149 148 149 149 149 148 148 147 147 103  58  70  46  34  28  24  32  49  52  60  68  74  71  66  62  59  58  58  58  57  55  57  57  56  55  56  55  54  50  51  54  53  54  55  55  57  56  57  59  58  58  59  60  60  61  62  62  60  62  63  65  64  65  68  71  72  73  79  82  87  95  96  51  52  67 102 169 177 179 181 179 183 184 184 184
 131 151 152 152 152 151 150 150 150 149 149 148 149 149 150 147 129  53  62  57  35  28  22  34  57  62  68  76  75  75  70  66  63  58  58  59  57  56  57  59  59  58  56  54  54  54  53  55  56  56  56  55  57  55  58  58  60  58  60  61  60  61  62  62  61  62  63  63  65  67  70  70  72  77  81  85  91  99 105  52  56  60 141 174 179 180 181 183 184 186 184 184
 140 154 153 153 153 153 152 153 151 151 150 151 150 151 150 148 147  90  61  70  44  29  23  37  68  73  76  80  81  80  78  72  66  62  62  60  55  56  58  56  58  59  58  57  56  55  55  54  56  54  57  58  56  56  57  59  61  61  61  61  59  60  60  62  63  63  63  64  66  67  69  72  76  80  84  86  93 104 108  53  57  84 169 177 179 182 180 183 185 185 185 185
 150 156 155 156 155 155 154 154 154 152 151 152 152 151 150 151 151 140  71  82  50  30  25  37  74  80  85  85  84  84  82  77  72  67  65  63  56  57  58  57  57  58  59  58  57  58  57  55  58  56  56  59  58  60  59  61  61  61  61  59  59  60  61  61  61  61  62  63  65  67  72  76  80  83  86  88  95 106 113  58  62 140 174 179 182 182 183 184 185 186 184 185
 154 156 157 157 158 158 156 155 155 154 152 153 152 152 152 150 152 150 107  80  55  33  26  42  76  85  88  89  89  87  87  81  78  74  68  64  60  59  58  60  59  59  59  58  57  58  59  57  58  58  57  57  58  60  59  61  59  61  60  60  59  61  62  63  62  63  63  64  65  70  72  77  80  84  87  90  98 106 113  62  94 169 177 180 181 182 183 184 184 185 185 186
 159 157 159 158 158 159 157 156 157 154 154 154 153 153 152 152 153 152 137  82  55  34  26  47  78  85  89  91  91  89  89  85  80  78  71  66  65  61  61  60  59  59  59  59  59  61  59  59  60  59  60  59  59  60  61  62  61  61  62  61  61  62  62  63  63  63  64  65  69  72  73  78  81  84  87  91  99 107 112  74 137 175 177 179 179 181 183 183 183 185 185 185
 158 159 160 160 158 159 158 157 156 156 155 153 154 154 154 153 154 154 149  90  56  37  27  46  77  85  90  94  92  90  88  87  82  77  70  66  63  61  62  60  60  59  58  58  59  60  60  61  58  59  59  58  58  61  62  62  61  61  62  61  62  62  62  64  63  66  66  67  68  72  75  77  82  83  85  89  98 107 117  79 146 175 177 180 182 183 183 184 185 186 186 185
 156 158 158 158 157 157 157 157 156 157 156 155 156 155 155 155 154 154 150  99  60  40  30  50  79  84  88  91  88  88  85  81  78  74  69  63  56  59  59  59  58  58  58  58  59  61  60  59  60  60  60  60  61  63  63  63  62  62  62  62  64  64  65  66  65  67  65  69  69  71  74  76  76  77  79  80  90  98 102  80 130 174 179 180 182 184 185 183 185 186 186 186
 156 158 159 158 158 158 159 156 156 156 157 157 156 154 155 155 156 155 153 118  64  42  31  55  80  83  86  86  84  84  83  74  71  68  65  61  58  57  58  56  56  55  56  58  59  59  60  60  61  61  63  62  62  62  62  62  63  62  61  62  62  63  65  64  65  65  65  68  69  70  70  71  70  65  61  62  66  72  76  72 123 173 181 182 184 184 184 186 186 186 187 187
 157 159 159 158 157 159 160 158 159 158 158 157 157 158 158 156 156 155 155 141  83  50  32  58  80  81  74  70  66  66  68  61  57  56  55  57  55  53  53  54  55  55  56  55  58  60  60  58  61  62  62  61  61  61  61  61  63  63  61  62  62  62  63  62  62  63  63  65  67  67  66  59  54  46  44  44  47  54  58  67 107 173 181 182 185 185 185 186 186 187 186 188
 158 159 160 159 159 160 159 158 159 159 160 159 159 159 159 158 158 156 156 154 124  59  34  61  81  81  64  52  48  49  44  41  38  38  40  42  44  45  49  50  52  55  53  53  54  56  58  57  58  61  62  61  59  60  60  61  62  62  59  61  60  60  61  59  60  59  61  62  59  56  50  41  38  36  36  38  43  51  76  88 100 174 181 184 184 185 186 185 187 187 187 190
 160 161 161 159 160 160 160 159 159 160 161 160 159 160 158 159 157 157 158 155 146  73  34  59  80  85  78  59  43  37  34  31  29  28  28  29  30  33  36  43  45  50  49  50  54  54  54  56  59  60  60  60  60  56  60  61  60  62  60  61  58  57  57  54  53  52  52  50  45  38  33  30  30  32  38  51  67  91 121  96 103 176 183 184 187 186 186 186 187 187 188 190
 161 161 161 161 160 160 160 159 161 160 161 160 160 160 159 160 160 159 159 157 151  96  36  58  82  85  82  74  64  48  39  32  26  23  24  24  23  25  26  28  31  37  39  41  44  47  51  55  56  61  61  59  58  58  60  62  60  62  60  60  55  53  51  44  39  39  34  32  28  26  25  28  34  46  68  88  88 107 126  93 112 177 185 185 186 186 188 187 188 188 189 190
 161 162 162 162 162 161 160 162 161 161 162 161 161 160 161 159 159 159 160 158 154 106  37  57  83  83  84  77  66  60  61  54  46  36  29  23  20  21  20  19  22  26  27  27  32  39  45  50  55  60  60  57  58  58  58  60  60  61  59  55  51  48  42  33  27  26  22  24  24  28  38  48  61  73  87  82  90 115 129  97 135 179 184 187 186 187 189 189 189 190 190 190
 162 162 162 162 162 161 161 162 161 161 161 161 161 161 160 161 160 161 161 160 159 110  41  57  85  80  86  81  71  58  54  60  57  53  51  46  40  35  30  24  20  19  19  22  25  30  34  42  50  56  59  56  53  56  57  60  61  61  57  52  49  42  34  27  24  22  24  29  38  47  55  63  69  78  83  79 100 121 131 102 156 183 186 187 187 189 191 192 191 191 191 191
 162 164 162 164 163 162 162 162 162 162 162 162 163 162 161 161 162 162 162 161 161 139  53  55  84  90  87  83  77  68  56  55  57  53  51  51  49  46  44  42  37  30  26  24  25  27  30  38  45  50  52  53  55  55  58  61  62  62  58  52  47  35  28  25  26  31  34  39  45  50  53  57  62  72  75  91 112 128 133 119 176 185 186 189 189 190 191 191 191 192 191 192
 162 164 165 163 164 165 164 162 162 163 164 163 164 164 163 163 163 162 162 163 161 157 101  49  87  90  89  87  83  80  67  54  56  49  46  46  46  45  44  42  38  36  33  30  29  29  31  35  39  44  49  52  53  53  59  62  64  65  62  52  41  30  24  26  27  31  32  37  42  45  51  54  64  64  67  98 121 132 135 159 182 187 188 189 190 191 193 191 192 192 192 193
 164 163 166 163 165 164 165 164 164 163 163 163 165 165 164 165 163 163 163 163 162 160 147  70  85  89  91  88  87  85  76  56  42  47  45  44  43  41  40  38  35  33  30  29  26  24  26  31  36  43  46  51  55  56  61  63  65  66  63  49  35  24  22  24  23  20  24  28  33  42  45  45  41  45  63 101 124 134 141 172 186 187 189 189 190 190 191 192 191 191 192 193
 163 165 165 165 166 165 165 165 166 164 164 164 165 165 164 164 164 162 163 163 162 162 158 132  87  91  93  93  91  87  77  54  42  31  33  38  38  40  37  36  30  25  27  22  18  21  25  31  35  41  47  52  56  59  61  62  64  64  60  49  38  31  28  26  24  20  18  19  24  28  33  37  37  49  68 107 128 135 149 177 185 186 188 189 190 190 191 191 191 192 192 193
 165 165 165 165 164 166 167 166 166 166 165 164 164 165 166 166 164 164 163 162 162 161 161 158  94  91  92  93  89  86  76  64  45  34  27  25  24  23  19  18  17  18  23  24  24  28  29  31  34  41  46  52  55  58  60  59  62  64  61  51  43  35  32  30  29  29  28  27  29  35  37  40  49  58  82 106 129 136 155 180 186 187 188 188 190 189 191 191 193 192 193 194
 166 166 166 165 166 166 166 166 166 167 166 166 164 164 166 166 165 166 163 162 162 161 161 158 109  91  90  90  89  86  80  67  51  43  33  30  27  25  20  23  22  24  27  28  30  30  30  33  38  43  47  51  56  59  63  60  66  66  65  58  48  40  35  33  31  33  34  36  37  41  41  49  64  78  96 112 124 133 160 182 187 188 189 191 190 192 192 192 194 193 193 194
 166 167 168 166 165 169 167 167 168 168 167 167 166 165 167 167 165 165 165 162 164 162 162 161 122  89  88  89  87  84  78  70  60  53  48  40  31  29  27  29  28  29  29  31  32  34  35  39  41  46  48  52  58  64  68  66  69  69  66  63  57  49  44  43  41  40  40  41  45  49  53  63  75  87 102 112 118 132 163 185 188 189 190 191 191 191 192 192 193 193 194 195
 168 167 168 168 168 168 168 168 168 167 168 166 168 168 167 165 166 164 163 163 163 162 163 162 139  86  88  86  84  82  77  71  66  60  57  50  42  38  35  34  32  33  37  37  37  39  42  44  46  47  49  56  61  68  72  72  73  74  69  66  63  59  55  53  51  51  50  51  53  56  62  70  80  92 100 109 112 132 170 186 187 190 191 191 191 192 192 192 193 194 194 195
 167 169 168 167 168 168 168 167 167 167 168 166 168 168 168 165 165 164 163 162 163 163 162 163 154  86  89  85  81  78  74  73  68  63  60  55  49  47  44  43  40  40  43  43  43  47  47  47  48  47  50  56  64  70  72  73  74  77  71  69  66  66  65  64  60  56  58  58  60  63  69  75  83  87  97 106 108 130 175 187 189 190 190 192 192 193 192 193 193 194 194 195
 169 169 169 168 168 168 168 167 168 168 169 168 167 168 168 165 166 165 165 165 164 165 164 163 160 103  87  82  75  72  71  69  68  65  63  62  57  52  51  49  47  47  48  50  50  51  50  49  49  50  51  57  64  69  71  73  75  80  76  71  69  70  69  68  66  65  64  64  67  66  71  79  85  87  94 104 109 148 181 188 190 191 191 190 191 192 194 194 194 193 193 195
 169 168 169 169 169 168 168 168 167 166 168 167 167 166 167 165 167 165 165 164 166 166 165 165 161 123  86  81  71  69  67  67  64  63  62  60  60  58  57  54  53  53  53  54  50  53  51  51  49  51  53  59  66  68  70  71  74  81  80  76  71  70  69  69  68  68  68  68  69  70  74  80  82  90  98 105 116 165 186 190 190 191 192 190 191 193 193 193 193 194 195 196
 169 169 168 168 169 170 168 168 169 167 168 167 167 166 167 166 166 164 165 166 166 166 167 166 163 142  82  82  73  70  65  65  59  62  61  61  61  59  60  56  55  55  54  54  53  53  52  51  50  52  55  59  64  68  70  71  73  82  83  82  76  70  70  69  68  68  69  70  73  77  83  86  90  96 106 109 125 171 187 189 190 191 192 192 193 191 192 193 195 195 195 196
 170 170 169 169 169 169 169 168 168 167 168 167 167 166 166 164 165 167 165 166 166 167 167 166 166 155  89  82  76  68  65  61  61  61  61  62  60  61  61  60  59  55  55  53  54  52  52  52  54  55  58  59  65  68  72  72  73  84  85  84  78  73  70  67  68  70  71  71  78  83  89  91  97 101 109 112 135 180 187 189 191 190 191 192 192 193 194 194 193 194 195 195
 169 168 170 168 170 169 169 169 169 168 168 168 167 166 167 166 168 166 167 167 167 166 167 166 165 158 104  78  76  69  65  63  62  63  62  63  63  62  63  61  58  56  57  54  53  54  52  54  56  54  57  58  64  68  70  71  72  84  86  82  76  73  70  67  66  68  70  72  76  86  90  94  99 104 109 114 144 182 189 188 190 191 191 191 191 193 194 193 194 195 196 196
 170 169 169 168 169 168 168 167 168 167 168 167 167 167 167 167 167 167 167 167 167 166 168 166 164 160 121  80  75  70  69  66  65  65  64  67  64  66  66  63  62  60  56  55  53  54  52  53  54  53  57  57  62  67  71  71  72  85  86  82  77  71  66  66  66  68  70  73  80  85  90  95 101 106 111 114 160 183 188 188 189 191 192 191 193 193 194 194 195 194 195 195
 168 168 169 168 168 168 168 168 168 167 167 168 167 166 165 166 166 168 167 167 167 166 167 167 166 163 145  73  73  71  73  68  68  66  66  65  64  65  65  63  61  61  57  54  52  52  51  52  52  56  57  56  62  67  70  71  73  84  86  79  72  66  63  62  65  68  71  73  78  83  89  96 101 105 113 122 169 183 188 188 189 190 191 192 192 193 193 193 194 194 194 195
 169 168 168 168 166 168 168 168 168 167 167 167 168 168 167 168 167 168 166 167 167 167 168 167 167 165 157  83  75  73  72  68  67  67  66  65  63  63  64  60  60  60  56  53  50  49  48  52  52  55  57  59  61  64  70  70  74  83  85  77  68  58  55  56  62  66  70  72  76  82  91  97 102 105 112 134 178 186 188 189 188 190 190 192 192 192 193 194 194 195 195 196
 168 169 169 168 168 169 168 166 168 167 167 167 166 167 167 167 167 167 167 166 166 168 167 167 167 165 157  96  72  74  72  70  67  67  65  65  65  64  64  59  58  54  53  51  47  46  46  50  53  58  58  59  61  64  69  70  74  83  84  74  62  54  52  54  58  64  69  71  73  82  89  96 103 109 114 154 183 186 187 189 190 191 191 192 193 192 193 193 194 194 195 196
 168 168 169 168 168 168 168 168 168 166 167 167 167 167 167 167 167 166 168 166 167 167 166 166 165 116  64  57  66  69  72  71  69  68  67  66  65  64  62  58  52  48  52  48  44  44  46  51  55  56  58  59  60  64  68  72  73  83  85  73  64  55  53  54  57  63  65  70  73  78  85  93 102 109 114 166 186 187 189 190 191 192 192 192 192 192 193 192 193 196 196 196
 169 167 169 168 167 167 169 169 168 167 166 167 167 166 166 166 166 167 168 167 168 169 161 132  80  52  47  48  65  66  68  68  69  67  66  66  64  62  60  58  54  52  50  49  44  43  51  56  58  58  61  61  63  66  69  71  73  81  85  78  70  61  56  57  56  61  65  69  74  78  85  92 103 107 118 173 185 187 188 189 190 190 192 192 193 193 195 193 194 195 195 196
 168 168 168 167 169 168 168 168 168 168 167 167 168 167 167 167 166 167 164 164 144 106  74  60  45  41  42  34  51  63  65  68  68  67  64  63  62  60  59  56  55  52  50  48  44  46  58  62  62  64  66  64  64  64  68  70  71  78  85  79  75  71  58  60  61  62  63  67  73  80  83  90  98 101 132 178 184 186 189 190 190 190 192 192 193 193 193 192 194 196 194 195
 168 168 168 168 168 169 168 168 167 167 166 165 166 165 166 164 166 152 118  80  67  62  54  40  38  38  38  27  53  61  63  66  66  66  64  60  60  60  59  56  54  53  52  52  48  47  65  67  69  69  68  65  65  63  68  70  71  80  85  86  82  82  64  62  61  62  63  68  72  79  85  89  96  94 132 180 185 186 189 190 191 191 193 192 192 193 193 194 195 194 195 196
 168 168 168 168 168 167 167 167 167 167 166 166 166 165 163 136 102  72  65  58  54  51  44  35  35  36  36  24  69  62  61  65  65  63  60  59  58  59  59  56  55  54  52  53  50  49  68  70  73  74  71  70  66  66  69  71  72  77  87  95  92  89  67  64  62  63  63  69  74  81  84  87  89  94 105 121 150 175 189 188 190 191 192 192 192 193 193 193 195 196 197 196
 169 168 168 168 167 168 166 167 167 166 164 163 148 111  78  65  59  54  50  49  46  43  39  33  34  34  33  26  75  64  59  63  62  62  59  59  59  58  57  55  54  52  52  52  51  48  59  71  73  74  72  70  67  69  68  70  73  79  87  97 102  84  66  66  65  64  66  69  73  81  85  86  87  89  95 101 105 112 131 166 188 190 192 192 191 193 195 194 195 195 196 195
 168 168 168 169 168 167 167 167 166 155 120  85  68  62  55  49  46  46  43  42  42  39  34  32  33  33  28  35  73  64  54  54  60  57  58  57  58  59  59  55  53  53  54  53  52  48  48  62  72  73  73  69  68  68  66  68  73  76  84  95  96  71  68  68  68  67  69  70  72  81  85  85  77  67  82  93  96  97 101 108 124 157 184 191 192 192 193 195 194 194 195 196
 168 167 168 167 167 166 166 141 106  70  64  56  51  49  46  43  42  40  40  39  41  37  32  30  31  32  28  37  68  65  54  51  54  55  59  56  57  58  54  54  54  51  54  55  51  48  46  47  60  67  70  66  65  64  65  67  71  74  81  93  77  66  69  68  68  67  68  69  75  82  82  79  70  56  70  83  90  92  93  93  98 106 119 145 177 191 192 193 194 194 195 196
 168 168 167 166 157 122  80  64  58  53  45  46  42  43  40  38  39  40  40  38  37  36  30  30  30  30  25  30  66  66  57  49  48  51  53  58  57  55  53  51  51  52  52  51  51  50  49  49  51  56  66  65  62  60  62  66  69  75  80  80  65  65  69  70  69  64  65  68  72  80  78  76  65  52  61  74  83  87  88  88  90  94 100 104 114 138 173 190 192 194 195 194
 167 166 137  99  66  61  55  50  47  45  41  39  39  38  38  38  37  37  38  37  36  34  29  29  30  30  25  29  65  66  58  49  46  47  51  54  52  50  49  49  48  50  50  51  51  50  50  51  52  50  48  57  61  59  60  63  67  71  69  63  65  69  68  67  66  63  64  66  68  74  72  66  62  58  55  68  76  82  85  84  88  88  92  97 100 105 112 133 168 192 192 195
 119  78  61  58  52  45  45  40  39  39  37  37  37  36  36  37  36  36  37  36  35  31  29  27  28  29  26  26  60  64  60  51  46  47  48  51  48  46  48  46  47  47  48  49  50  49  49  51  51  50  47  48  52  57  59  62  63  62  57  60  67  68  67  64  66  63  62  64  68  71  67  63  62  60  50  64  72  76  81  81  84  84  86  88  92  97  98 103 109 127 161 192
  58  51  47  46  42  40  39  38  37  36  35  33  34  35  35  34  33  35  36  35  33  31  29  27  28  28  25  24  60  62  60  53  45  43  47  47  45  43  44  43  42  46  45  43  47  50  49  49  49  48  45  46  47  47  46  51  55  55  53  61  66  66  61  58  57  57  57  57  67  64  59  60  59  58  49  60  69  72  77  75  77  81  81  83  86  90  92  95  97 102 109 122
  49  44  42  38  36  35  35  34  34  33  33  32  33  34  34  32  35  35  35  35  33  30  29  27  28  28  28  20  57  61  59  56  47  40  43  44  44  42  40  39  39  35  34  35  42  47  48  48  48  46  46  48  44  34  33  40  50  53  57  63  66  67  54  48  49  51  54  60  67  44  53  58  59  58  48  57  63  68  75  75  75  75  75  76  81  83  86  88  91  95  97 103
  39  39  36  37  35  32  31  31  31  31  31  31  31  31  32  32  33  33  35  33  33  31  29  25  26  26  28  21  53  58  57  53  49  40  41  42  40  39  36  36  36  32  34  28  29  41  43  45  48  49  49  47  42  32  29  40  50  57  62  65  65  56  50  57  59  56  57  62  71  38  54  58  57  58  48  57  64  67  72  75  75  73  71  73  76  79  81  82  85  90  91  95
  34  35  34  32  31  31  31  30  30  30  32  31  30  31  32  31  33  33  32  31  32  32  28  25  26  25  25  20  48  58  57  54  49  42  36  39  37  38  37  38  40  41  40  36  29  30  33  39  44  47  48  47  45  41  38  42  49  56  57  58  50  45  60  65  62  57  61  68  86  39  54  58  56  55  49  57  62  66  69  72  73  71  73  70  70  73  77  75  79  84  87  90
  32  33  32  30  30  29  29  30  30  29  30  30  30  30  31  30  31  31  31  31  31  31  29  26  25  23  23  24  41  57  56  56  49  46  38  33  35  37  38  38  41  43  44  43  37  30  29  28  33  36  38  40  40  41  40  40  42  44  46  41  45  52  66  66  59  58  62  88  81  44  54  57  56  52  50  59  62  65  70  72  71  70  70  70  73  74  74  74  74  78  82  86
  30  30  29  28  28  27  27  30  29  29  30  30  30  28  29  31  30  30  31  31  30  30  29  26  23  24  23  24  30  52  52  51  49  46  42  32  30  34  36  36  38  42  43  44  41  34  31  29  29  28  30  32  31  35  38  34  34  37  38  42  49  61  65  61  56  54  68  98  73  47  53  52  54  53  51  57  62  63  67  70  71  70  70  70  69  69  71  69  71  75  77  79
  26  27  27  26  27  27  27  29  29  29  30  29  30  29  27  30  30  30  30  31  30  30  27  24  22  22  23  22  24  46  50  49  50  47  46  40  30  28  32  35  36  39  42  41  42  41  35  33  32  32  30  31  31  31  32  32  34  38  45  50  57  63  58  56  53  57  86  93  65  51  51  52  51  52  55  58  60  64  67  69  70  70  70  69  68  66  68  68  69  70  74  75
  24  25  26  27  25  25  26  28  28  28  28  28  29  29  29  30  30  30  30  30  28  30  29  27  23  22  21  21  22  28  46  47  47  46  46  45  40  30  28  33  35  36  39  40  41  41  39  36  34  33  33  35  33  34  33  36  36  42  48  54  57  56  56  54  51  73  86  79  54  51  50  52  51  52  57  61  62  65  66  68  67  69  70  70  67  64  65  66  68  69  72  71
  25  24  24  24  23  24  27  25  25  26  28  27  28  28  29  30  29  28  28  29  28  28  27  22  22  22  21  20  19  22  32  44  45  45  46  46  44  39  29  29  33  35  36  36  39  40  40  36  34  34  34  36  34  34  35  36  40  45  52  55  54  55  53  50  64  77  76  62  50  50  49  50  51  50  57  62  67  66  66  66  64  64  66  67  64  66  69  66  67  66  67  71
  25  22  22  23  23  26  25  24  24  26  27  28  28  26  29  29  29  27  26  28  28  26  21  23  25  21  21  21  19  20  22  34  43  44  45  44  44  43  40  31  30  33  34  36  37  39  41  37  36  34  35  34  36  37  38  43  47  52  54  55  54  54  50  55  68  69  58  47  48  49  50  49  49  52  59  62  65  66  66  66  64  63  65  67  67  68  67  67  65  64  66  68
  23  22  23  23  23  25  25  24  24  27  25  26  26  27  26  28  28  28  26  25  23  22  26  27  24  22  21  21  19  20  22  22  34  44  45  45  46  44  46  40  30  30  33  34  36  39  40  38  38  37  38  40  42  42  45  49  51  54  57  54  53  51  52  59  61  53  46  43  46  47  49  49  48  54  61  62  66  67  66  66  65  66  65  65  65  64  66  67  65  62  63  64
  20  22  21  22  22  22  22  24  23  25  26  25  26  27  26  26  29  27  24  22  21  25  27  25  26  24  21  20  20  18  20  19  22  32  41  43  44  44  45  43  40  32  31  34  36  39  40  40  41  40  41  42  43  46  47  49  51  54  56  52  49  50  54  50  44  42  43  42  42  45  45  47  48  47  58  61  65  66  65  64  66  64  63  62  64  64  63  62  62  62  61  62
  21  22  21  21  23  22  24  24  24  24  25  27  24  25  24  24  25  23  22  20  25  25  26  26  26  24  22  21  21  20  19  18  22  22  30  42  43  45  46  45  44  43  34  30  33  37  38  40  42  41  41  42  42  47  48  49  50  52  51  46  48  50  42  34  38  41  41  43  42  42  45  48  64  58  45  55  59  66  64  63  66  64  64  62  62  60  62  61  60  60  62  60
  21  21  22  21  22  22  24  23  23  26  26  25  24  23  24  23  21  19  22  28  26  24  24  22  24  22  23  21  21  21  17  18  18  17  19  28  40  43  44  47  47  46  43  39  30  30  34  37  40  42  40  42  42  43  46  49  50  49  46  46  48  36  29  36  40  40  41  44  44  45  45  55  69  70  62  44  54  60  63  64  64  63  64  61  63  63  61  64  64  63  62  62
  21  20  21  21  21  23  23  23  23  25  25  24  24  22  23  21  19  23  26  24  24  25  24  22  24  23  24  21  19  19  20  19  18  17  18  19  22  34  40  43  45  43  45  43  42  38  32  31  35  38  40  42  42  44  43  46  47  45  47  40  30  27  34  39  38  40  40  41  43  43  48  66  70  70  70  62  43  55  62  63  65  66  63  60  63  59  61  65  64  64  63  61
  21  20  21  20  22  21  22  23  25  24  23  24  23  22  20  18  23  25  25  24  23  25  23  24  24  24  25  25  20  20  19  17  19  15  16  18  19  17  23  30  36  40  41  42  44  43  42  42  40  38  38  40  42  42  44  45  44  41  32  25  30  38  39  38  38  41  42  42  41  43  60  64  67  67  68  67  59  45  54  60  63  64  63  63  61  61  63  64  62  63  60  60
  21  21  21  20  21  22  23  25  24  23  22  21  21  18  17  22  25  24  24  23  23  23  23  23  24  24  24  26  22  20  20  17  18  18  18  15  16  17  17  17  18  24  28  32  34  36  37  37  38  38  38  37  36  37  34  34  28  27  27  32  36  38  37  39  41  41  40  41  42  58  62  64  63  67  66  64  65  62  43  54  58  62  63  62  61  61  61  61  62  61  58  58
