P2
# Generated by OpenCV 3.4.0
92 112
255
  93 113 122 124 118 122 125 128 128 126 128 130 129 129 128 128 130 128 129 130 126 124 122 115 106  85  74  75  67  59  57  52  48  44  51  49  48  47  43  42  43  41  41  41  42  41  40  42  42  45  46  47  49  50  53  48  46  50  55  69  82  79  70  58  50  50  47  42  35  36  33  38  36  37  40  46  50  47  46  54  57  70  88 102 103 112 115 123 124 129 129 112
 103 117 125 126 114 124 125 126 128 128 129 129 130 129 129 128 129 129 129 126 125 125 119 111  90  75  72  67  59  51  46  44  48  51  49  49  48  44  42  40  39  38  38  38  42  41  42  45  48  48  51  45  46  55  56  55  56  64  67  61  59  58  63  67  57  41  32  31  32  33  30  34  35  32  34  38  37  41  50  56  58  57  73  94  93  94 101 109 110 118 119 116
 106 120 124 124 111 126 128 128 128 128 130 130 129 130 130 129 131 128 129 129 128 127 114 103  82  67  58  52  48  52  60  60  53  54  48  46  42  45  40  36  33  33  36  38  41  41  40  42  43  45  45  40  40  43  44  45  48  51  49  49  49  48  43  38  39  40  38  30  29  31  26  26  32  31  31  32  33  44  52  60  61  52  62  72  80  85  91 101 108 118 111 111
 108 120 125 125 113 126 128 130 129 128 128 129 130 130 130 131 131 131 130 130 125 113  95  80  73  59  58  55  59  65  63  56  54  50  43  38  40  37  37  34  33  32  33  35  37  36  36  37  36  35  37  37  34  34  36  39  43  47  48  51  51  44  36  32  30  28  28  29  26  25  24  24  28  29  30  33  38  41  47  52  62  65  68  72  77  84  95 118 126 119 108 103
 110 120 126 127 113 127 128 130 130 129 130 130 130 131 131 131 130 130 131 127 113  96  79  69  68  66  66  60  55  54  54  46  45  41  44  46  48  43  38  34  34  32  32  34  34  34  33  33  36  40  37  34  32  38  37  46  47  51  60  58  58  51  38  32  25  24  23  25  26  22  21  22  24  26  31  34  40  45  51  56  63  67  70  71  77  87  93 103 110 108 102  97
 113 121 126 126 115 128 129 128 130 130 131 130 131 131 130 130 131 128 127 123 105  82  73  66  64  65  62  56  52  49  51  46  46  51  52  47  46  42  40  36  34  34  31  32  33  35  35  36  34  34  37  41  40  43  44  47  47  48  51  54  62  67  71  55  45  31  26  24  27  22  21  21  22  26  32  33  36  44  50  56  62  64  67  73  80  83  82  95  98  98  88  80
 116 124 127 127 115 128 129 129 131 132 131 130 131 131 128 128 129 127 124 116  87  75  62  56  53  59  60  57  58  53  43  50  60  52  50  46  39  36  34  32  32  34  32  35  34  36  35  36  36  38  38  38  37  40  43  50  51  57  56  54  55  49  45  43  41  38  30  23  24  25  20  21  23  28  32  34  39  43  50  54  56  55  62  67  75  82  87  95 100  92  85  88
 117 125 127 127 113 130 131 130 130 130 131 131 131 130 132 130 130 127 122 100  78  65  54  55  50  51  53  53  49  46  46  52  52  53  53  49  44  34  32  29  30  33  34  33  32  32  31  32  32  35  35  36  38  43  46  49  51  54  58  65  63  58  44  40  31  28  28  28  25  25  19  22  24  30  32  35  35  43  48  43  45  50  57  67  76  90  89  82  90  98  96  94
 121 127 128 124 115 128 130 130 130 130 130 132 131 132 132 131 132 129 114  86  67  54  52  49  49  48  44  41  46  46  46  47  53  57  56  45  37  30  27  26  27  24  24  26  29  28  30  32  33  33  34  36  33  32  32  33  35  44  49  49  44  41  41  36  33  29  26  25  25  24  20  21  24  28  30  32  35  36  35  36  41  47  52  60  70  78  77  73  73  79  84  99
 122 126 127 123 118 130 130 131 130 131 130 131 131 133 131 130 131 123 101  70  59  54  48  44  38  39  37  39  46  47  49  53  57  55  45  38  33  27  28  27  27  25  23  24  27  27  30  29  29  28  29  29  28  33  35  41  49  60  68  68  63  49  42  37  29  24  22  21  23  23  23  21  23  26  26  27  29  29  30  34  40  47  48  51  58  62  65  63  66  68  79  91
 124 128 129 118 121 129 131 131 131 132 134 132 133 130 131 132 132 122  84  64  65  58  48  34  35  37  38  43  43  46  48  49  52  48  43  41  28  23  23  23  26  26  28  28  28  28  25  24  26  28  32  37  39  39  42  45  51  54  54  53  48  40  34  31  27  24  24  23  24  23  23  19  21  23  24  24  27  29  31  35  42  45  49  50  51  53  59  64  66  71  79  97
 124 129 129 115 125 131 132 131 130 130 133 133 130 131 131 131 131 112  73  60  61  47  34  29  30  34  36  35  37  40  42  40  45  41  41  28  18  17  17  17  25  27  29  29  27  27  28  30  30  31  34  35  36  39  40  40  47  47  46  42  39  31  26  25  26  26  26  27  25  23  23  22  23  22  22  24  25  26  30  37  46  51  52  51  53  55  66  78  87  91  96 112
 127 128 130 115 127 130 131 131 132 132 133 133 131 132 131 131 121  90  64  60  56  38  32  25  26  26  30  33  36  36  34  37  36  34  29  17  16  17  17  16  18  21  22  22  23  26  27  25  26  29  32  33  34  35  36  35  32  30  29  30  31  29  30  30  31  31  30  29  29  29  30  28  26  25  24  26  28  28  31  37  46  56  62  57  54  60  73  86 107 118 118 126
 127 129 129 113 130 131 132 132 132 132 133 133 133 133 133 129 114  74  59  59  43  36  28  24  24  26  30  32  34  30  30  33  31  29  20  16  15  16  18  17  19  20  21  22  23  21  23  26  27  28  25  27  28  30  26  26  26  28  31  30  33  33  36  38  41  41  41  40  40  40  41  40  40  34  32  32  31  32  36  37  41  47  53  59  59  58  61  72  95 117 127 130
 127 130 129 111 131 133 132 133 133 133 132 131 133 135 133 127  88  60  62  52  36  33  25  22  25  27  28  27  26  27  30  29  29  24  17  18  17  18  19  22  22  24  24  26  25  23  27  29  32  30  29  30  29  28  27  28  30  32  34  34  35  40  42  45  47  53  55  55  56  59  58  54  54  43  40  39  36  36  34  36  43  47  50  48  49  53  57  62  68  95 128 132
 126 131 132 114 131 135 135 134 133 134 133 134 134 135 132 122  77  56  58  47  34  32  25  23  27  29  27  27  27  28  28  32  30  22  21  20  21  22  23  27  28  30  30  31  33  31  33  33  33  32  31  31  31  32  33  34  34  36  40  41  42  45  47  50  58  62  67  65  67  74  74  69  68  61  52  47  38  31  31  30  33  38  39  42  48  52  51  56  63  76 118 138
 130 132 131 111 132 132 133 135 133 135 135 134 134 134 133 118  68  57  54  46  36  33  28  24  27  28  28  26  28  32  32  31  27  22  23  22  26  27  29  30  32  34  34  35  36  36  35  35  33  35  35  35  35  37  36  38  40  41  43  45  46  50  53  58  65  74  76  75  78  86  88  86  81  79  69  58  49  31  26  24  26  30  35  39  48  51  52  56  78  91 115 140
 131 130 131 107 132 132 133 133 133 134 136 135 135 136 135 124  69  50  53  49  36  39  29  25  28  28  29  27  26  30  28  29  28  25  25  27  30  31  34  35  36  41  41  39  40  42  40  40  39  39  40  40  40  40  42  41  43  45  46  49  52  56  60  67  75  83  88  85  86  96  99  98  91  87  83  71  62  42  28  26  25  29  32  41  48  48  49  49  61 100 131 143
 130 130 129 112 131 134 135 134 134 134 135 135 135 135 135 119  64  47  47  49  43  36  25  23  25  26  28  27  26  27  30  28  28  27  29  32  34  36  40  41  43  45  46  45  47  46  45  45  43  44  43  44  43  45  47  48  47  51  52  55  58  61  67  75  84  91  95  89  90  99 104 105 102  95  91  81  71  58  34  26  26  31  33  40  47  51  53  53  63  97 136 146
 131 131 127 117 133 134 134 134 135 137 136 136 136 136 134 122  57  42  45  51  42  33  25  21  23  24  26  25  28  28  29  29  29  30  33  35  38  40  42  46  47  50  50  52  53  51  50  49  50  49  49  49  49  51  51  53  54  55  57  60  64  67  77  85  89  98 101  93  94 101 105 107 105 103  99  87  79  70  47  28  28  30  32  38  43  48  51  52  64 105 141 149
 132 132 124 120 134 136 134 134 134 135 134 135 136 135 135 118  50  37  46  48  40  30  22  18  20  23  24  22  23  26  30  31  33  33  36  40  43  44  49  50  54  56  56  57  58  55  53  52  53  56  56  55  57  56  58  59  59  61  63  66  69  72  82  90  96 100 102  96  96 102 109 109 109 107 103  96  85  79  64  32  26  30  32  36  41  45  50  53  65 107 146 154
 136 139 123 128 138 136 137 136 135 135 136 135 136 138 134 104  49  34  42  41  36  30  21  19  23  24  22  19  25  28  32  34  37  40  41  44  46  48  52  57  56  60  62  63  62  63  61  58  60  60  61  63  62  63  63  65  65  65  67  68  73  79  86  93  98 102 101  98  98 104 108 106 109 108 106  99  92  84  82  42  28  29  31  36  38  48  61  70  74 109 147 158
 140 146 130 147 145 139 139 136 136 135 138 138 138 137 135 108  43  35  35  35  33  27  21  21  22  23  22  22  24  29  35  39  43  43  45  48  48  53  57  60  62  65  65  66  65  65  66  65  64  65  65  66  66  66  68  69  69  69  72  73  77  83  87  93  99  98  98  94  93 100 103  98 108 109 108 104  98  90  86  58  30  29  31  33  36  42  59  82  98 122 147 158
 142 145 123 147 149 142 138 138 139 139 138 139 136 137 138 112  45  35  33  33  32  24  20  22  21  22  20  22  24  30  39  44  47  48  49  50  54  58  60  64  66  67  66  68  68  67  67  67  66  67  67  68  68  71  71  70  72  74  76  78  80  86  91  93  97  99  96  94  92  95 103 101 107 112 106 104 100  95  91  72  34  28  29  30  35  39  53  90 110 143 152 158
 142 145 122 146 149 143 140 138 140 139 140 140 138 139 139 118  46  35  31  32  28  22  22  21  20  20  21  21  25  32  44  50  53  53  54  57  61  63  65  66  67  66  67  68  69  67  68  68  67  68  67  67  68  71  71  71  72  74  75  78  80  83  88  91  93  92  91  90  91  93 100 104 105 108 106 105 102  99  96  85  43  29  28  29  32  38  50  94 126 144 157 160
 144 145 124 146 149 147 143 140 139 140 140 139 139 139 139 125  46  35  29  33  28  22  22  18  19  22  23  24  29  38  52  58  60  59  60  60  64  65  66  67  66  66  67  69  72  71  73  69  70  70  69  69  70  72  70  69  72  73  74  80  82  85  88  90  91  91  90  90  92  93 101 105 104 105 105 105 103 101 100  93  53  32  29  29  32  37  51  89 141 150 159 160
 145 144 122 147 147 151 147 141 141 142 141 141 141 139 140 128  43  32  29  31  31  27  20  20  21  24  24  28  31  45  60  63  64  65  65  64  63  66  65  67  67  68  69  71  73  74  74  72  70  69  69  68  69  70  70  72  75  77  78  81  84  84  87  88  90  90  89  89  90  91  97  99 100 103 106 104 105 103 101 100  65  34  30  29  33  38  48  98 147 155 160 164
 147 146 118 146 152 152 152 145 142 142 142 142 141 141 142 128  42  30  30  33  32  24  21  20  23  25  27  31  39  53  64  66  68  68  68  70  66  67  66  70  71  70  69  72  71  73  73  73  73  71  69  70  72  73  74  76  78  81  81  85  87  86  85  88  88  89  89  88  88  89  92  96  99 101 103 104 104 104 102 102  76  36  30  30  33  42  57 102 150 157 162 166
 148 146 123 147 150 154 155 150 145 142 143 141 141 142 142 127  43  30  30  34  29  21  22  21  22  25  27  34  44  60  68  73  77  73  75  73  69  69  68  71  71  70  69  73  75  74  74  73  72  72  73  73  75  76  76  78  79  80  83  85  87  89  88  89  89  89  90  91  91  91  94  99 100 102 103 104 103 105 104 105  79  40  32  31  34  47  74 127 153 162 164 168
 149 146 122 149 153 153 153 153 148 144 142 143 142 141 141 128  42  30  30  33  25  22  23  22  23  26  30  39  50  63  71  79  82  79  77  77  76  73  72  71  72  74  70  74  73  73  76  76  75  76  74  77  77  79  77  77  81  82  84  89  88  88  88  89  89  88  90  91  95  98  98 102 103 103 104 106 103 106 108 108  91  45  34  35  35  51 102 151 162 165 167 169
 148 144 127 150 151 152 151 153 152 148 145 143 143 143 142 130  43  30  29  30  24  23  22  23  27  29  33  42  50  64  74  82  85  85  82  81  81  78  78  76  75  75  74  74  75  75  78  78  78  77  80  81  80  81  80  81  82  83  85  89  92  92  91  91  89  90  94  95  99 101 103 104 106 108 110 109 108 111 112 111  96  50  36  38  39  59 119 161 166 167 168 169
 148 138 126 149 152 152 152 151 153 151 148 145 145 145 143 126  42  31  30  28  25  23  22  24  28  30  34  40  53  66  78  84  87  87  87  86  85  85  84  80  79  77  77  77  76  78  80  80  77  80  80  80  82  82  84  85  83  84  88  89  91  92  90  89  92  93  96 102 104 104 106 107 109 112 116 115 113 114 116 113  97  51  36  43  45  67 136 165 168 168 169 170
 146 124 137 146 148 150 150 149 149 148 148 146 146 145 143 118  39  34  32  26  24  24  25  26  28  30  33  44  54  69  82  86  86  89  92  94  93  92  92  89  85  81  82  81  81  79  80  81  82  82  84  84  84  84  84  88  84  85  87  90  92  93  90  89  92  95 100 102 107 108 108 108 113 118 122 122 122 121 121 118 103  55  42  50  59  88 151 169 170 170 171 171
 146 118 140 146 149 147 147 147 149 149 146 147 146 143 140  97  38  35  31  25  24  22  24  30  30  30  35  44  55  74  83  89  92  96  96 100 100  99 100  97  90  89  88  84  83  81  81  81  81  82  83  82  83  84  86  88  84  83  86  90  93  93  90  88  93  98 103 103 105 108 109 113 115 120 123 124 125 125 125 124 106  58  46  58  89 122 165 170 171 171 172 174
 144 118 144 146 147 147 147 148 148 148 147 148 146 146 141  69  39  35  30  24  24  24  25  29  29  30  36  45  59  78  87  91  97 100 102 106 106 105 102  98  96  90  87  86  84  81  80  82  81  81  83  82  82  83  86  87  83  82  86  90  92  91  93  91  93  97 101 104 104 104 107 111 112 119 124 127 131 130 127 126 111  60  53  67 110 153 168 171 174 172 175 176
 144 118 145 146 148 149 149 149 147 148 148 146 148 148 139  79  38  32  30  27  25  26  27  28  30  32  42  52  67  83  91  99 105 107 110 112 112 108 103 100  94  89  87  84  81  81  79  81  78  80  78  80  83  85  87  86  84  84  85  88  91  90  89  90  91  92  95  99 100 100 104 106 111 114 120 129 132 135 132 132 116  59  62  80 133 167 173 174 174 174 175 177
 146 118 147 147 148 148 150 149 149 150 149 149 149 147 143  85  35  30  28  26  25  25  25  29  31  37  47  59  74  86  93 102 111 115 115 115 112 108 102  96  82  84  83  82  80  80  76  76  76  77  76  79  81  84  84  84  84  81  83  84  88  91  87  86  86  88  91  91  94  96  97 100 106 111 117 123 129 134 137 136 118  55  77 112 144 169 174 175 176 175 177 178
 147 121 147 150 150 150 151 150 151 151 151 151 150 148 146 104  35  28  26  25  28  25  24  28  33  44  56  70  84  92  98 109 114 114 114 112 108 104  98  93  87  85  82  80  80  75  74  76  74  73  75  76  79  81  81  84  80  80  80  83  84  87  86  85  83  85  87  86  88  92  92  95 100 109 113 119 125 132 137 135 119  60  93 147 166 173 175 176 176 177 178 179
 149 125 150 151 151 152 152 151 152 152 152 153 152 151 150 112  35  29  25  26  28  25  24  27  37  53  67  80  93  98 106 111 113 114 112 104 101  97  94  89  83  78  76  74  74  73  70  72  69  70  71  73  76  79  81  81  78  77  78  84  86  86  85  80  80  80  83  83  82  86  89  90  95 103 107 114 121 128 133 135 120  62 112 165 173 175 177 177 178 178 179 180
 150 119 151 151 153 153 152 152 151 153 153 152 152 153 152 120  38  29  24  24  26  27  24  26  44  64  79  88  95 101 111 110 117 114 100  88  79  73  72  67  63  62  62  60  64  67  68  67  67  67  68  70  73  77  79  79  77  77  78  80  82  83  84  79  80  77  78  78  78  83  84  87  88  95  98 100 104 109 116 120 129  86 145 170 176 178 179 178 180 181 181 180
 148 125 153 152 153 154 154 153 154 154 153 153 152 152 153 124  37  29  24  24  24  27  25  29  54  77  87  93 100 102 106 104 103  86  69  57  52  47  44  43  43  43  45  45  48  51  56  55  54  58  62  66  70  72  76  77  74  75  77  78  80  79  82  79  78  76  76  74  68  69  72  76  76  77  79  76  78  80  85  95 111  99 163 176 178 178 178 180 182 182 184 182
 143 132 152 154 154 154 153 156 157 155 155 154 155 154 153 110  37  29  25  24  27  27  24  29  64  83  90  95 100 100  87  76  66  56  51  41  37  34  33  31  30  31  32  32  32  37  40  41  41  47  55  59  64  71  76  75  72  74  74  74  77  78  75  76  73  70  69  66  53  52  53  54  56  55  55  55  60  59  62  66  73  85 138 171 178 180 180 182 184 186 185 185
 136 141 154 155 157 157 156 156 156 156 154 155 155 155 152 105  40  31  26  23  26  26  27  34  71  84  90  96  97  80  64  55  52  44  41  37  33  28  27  26  26  26  24  25  25  25  29  31  34  39  44  51  58  66  71  71  71  73  73  73  76  76  76  73  69  68  63  54  46  39  35  36  38  40  44  46  48  50  54  60  62  65  96 166 179 182 185 184 184 186 186 186
 133 145 157 156 158 157 157 155 157 157 157 158 158 157 154 118  51  34  27  23  25  28  29  34  78  89  91  95  85  70  59  55  52  50  45  44  44  42  37  35  29  29  27  27  27  27  26  28  30  33  42  49  55  64  69  68  69  70  69  72  76  76  73  72  68  64  56  48  38  32  29  29  30  30  32  36  42  47  57  70  76  81 108 165 179 184 186 186 186 187 187 188
 126 158 160 160 159 159 160 160 159 158 158 160 159 157 157 141  82  37  28  24  23  28  27  46  84  91  92  86  78  75  68  63  62  62  62  58  58  57  54  50  50  48  45  43  39  37  35  34  36  38  42  50  57  61  64  65  67  69  69  71  75  76  75  70  67  65  56  49  43  36  32  34  35  41  46  52  63  71  80  91 101 118 141 176 183 185 187 188 188 188 189 188
 130 160 159 160 160 160 160 159 161 162 161 160 160 159 149 129 100  44  28  25  25  31  28  53  87  92  93  91  90  84  75  66  65  66  67  64  64  59  58  53  51  48  48  45  45  45  44  46  46  46  46  51  53  56  59  62  65  68  68  72  74  79  76  69  68  67  59  52  47  45  44  46  50  52  60  65  72  81  94 105 118 139 171 182 187 187 188 189 190 189 190 190
 124 161 160 162 162 162 161 162 161 162 163 163 162 158 130 117 104  65  36  29  29  32  32  59  89  94  97  94  88  82  77  73  68  65  60  52  46  45  44  43  41  39  36  35  36  34  36  43  45  48  48  50  52  53  57  62  64  68  69  74  78  80  77  70  68  61  56  48  40  35  36  36  40  44  48  54  61  74  94 114 128 158 182 186 186 189 189 190 190 191 191 191
 127 161 162 164 163 163 163 162 163 162 162 163 162 155  91  74  93  87  54  36  35  36  32  64  91  96  98  96  88  81  75  70  62  47  44  46  44  39  34  30  28  26  28  32  33  35  36  32  38  46  48  48  50  53  58  60  67  70  74  77  81  83  79  71  64  54  41  32  32  29  27  27  31  41  45  43  53  73  86 114 132 170 185 188 189 190 191 192 192 192 194 193
 127 162 162 163 164 164 164 164 166 164 164 164 163 141  73  58  70  85  76  46  40  35  33  70  94  99 101  98  92  82  72  63  51  45  49  36  28  32  26  24  21  20  24  35  46  39  34  35  32  36  45  46  49  53  58  62  70  75  80  82  83  83  78  68  55  40  32  32  25  24  23  24  36  42  68  68  49  52  83 116 131 170 188 192 191 192 193 194 194 192 196 196
 134 164 164 165 163 166 167 166 167 166 165 164 165 130  67  58  63  80  80  59  42  38  37  76  94 100 104 103  97  85  75  63  52  46  33  35  45  46  24  24  21  24  22  29  57  65  48  33  34  31  39  44  48  51  57  64  69  79  84  84  83  85  77  65  46  37  35  34  25  23  25  25  27  29  74  92 100  62  58 106 139 175 189 192 193 196 196 196 198 196 197 199
 132 166 167 167 166 166 168 166 166 167 166 166 166 137  67  57  74  81  78  75  52  41  41  79  94 104 106 106 102  93  84  69  55  40  38  43  60  52  25  25  20  20  25  29  58  71  58  40  32  35  37  42  46  52  58  66  74  80  84  86  81  82  76  57  45  36  38  36  25  23  20  25  30  36  83 103  97  87  72  96 139 176 188 192 195 198 197 198 202 201 202 201
 138 168 168 169 169 167 169 167 167 167 167 168 166 155  71  60  86  95  84  79  63  42  44  80  92 101 106 108 108 103  96  87  74  67  58  51  50  53  34  25  22  21  26  32  67  69  53  43  37  30  40  43  47  55  62  67  75  83  93 101  92  85  77  60  42  35  35  35  27  25  23  26  37  67  92  94  72  88 101 131 149 176 190 195 198 199 199 199 202 203 204 203
 144 168 168 170 171 170 169 170 170 168 167 167 167 165  97  65  96  93  84  69  53  40  44  79  94  98  96 109 110 109 108 105  99  88  77  60  49  49  47  31  23  23  28  49  58  50  42  39  40  40  42  45  51  59  64  68  79  92 107 122 116  95  84  66  50  47  42  40  41  33  30  31  45  68  69  66  75 106 126 150 161 175 193 197 199 199 200 202 202 205 205 204
 158 171 173 172 173 172 171 169 168 168 169 168 169 167 142  71  97  83  70  57  50  37  43  82  97 104 107 111 112 115 118 116 106  98  84  72  62  52  48  47  45  45  48  49  48  50  46  46  46  41  43  49  55  62  64  72  82 100 119 141 140 117  88  75  56  48  45  45  46  46  48  50  54  59  63  74  99 116 143 163 165 180 196 199 200 202 202 202 203 204 205 206
 169 173 174 175 174 173 172 172 172 170 172 171 171 169 167  94  95  76  62  57  52  38  47  82  98 107 109 112 114 120 121 121 115 103  93  80  65  60  56  52  50  51  50  49  49  48  48  48  46  47  51  57  61  66  65  71  88 107 124 146 156 142 102  83  71  56  51  47  47  49  52  57  63  69  78  92 109 127 154 170 171 180 196 199 200 203 201 203 205 205 204 205
 175 174 175 176 176 175 174 174 173 172 172 171 172 170 169 123  97  73  62  59  56  39  45  77  97 105 111 113 117 121 122 121 117 111 104  90  70  61  57  56  54  51  50  48  50  50  53  54  53  56  62  66  66  66  66  73  92 116 131 149 167 154 120  89  81  73  62  60  57  55  54  58  63  71  79  90 107 135 162 175 174 179 197 200 201 201 201 202 204 203 203 205
 177 175 175 176 177 176 175 175 174 173 172 170 171 172 172 152  96  73  59  61  72  41  48  79  98 104 113 113 118 120 123 123 118 112 106 101  90  75  64  60  58  56  53  52  53  56  58  60  64  68  68  68  67  66  67  72  91 122 136 155 176 163 142  95  88  86  79  73  67  67  66  67  68  73  80  97 122 150 168 177 174 178 197 199 201 200 202 203 204 204 205 205
 176 176 176 176 178 175 175 174 174 174 173 172 173 173 172 167 116  77  58  64  82  43  50  82  99 105 109 111 118 119 121 121 115 110 104  97  87  77  70  64  59  60  60  60  62  64  67  71  72  74  72  72  69  66  68  74  90 118 135 155 172 162 151 115  94  91  90  86  80  76  72  73  76  82  92 112 137 158 173 177 176 178 196 199 200 201 204 203 204 205 204 204
 176 175 176 176 176 175 174 175 175 175 174 175 174 172 172 170 137  92  74  71  69  47  50  78  99 106 108 111 114 117 118 119 120 118 112 109 105  96  87  77  72  72  71  69  73  74  77  79  75  74  72  70  69  69  72  79  90 114 135 153 172 164 155 130 103  94  93  91  88  85  83  82  85  93 109 130 149 166 171 174 173 180 197 200 202 203 203 203 203 205 204 205
 175 177 175 176 176 175 176 176 175 175 174 175 174 175 174 174 158  96 116 110  80  49  50  75 100 102 106 109 107 111 113 113 116 116 113 109 107 101  95  91  84  82  81  80  81  81  81  77  75  72  72  71  69  70  73  81  94 115 131 153 170 162 158 144 113  99  93  92  91  92  92  95 102 112 126 145 161 167 166 166 169 182 198 202 202 203 206 204 206 206 206 205
 175 177 177 175 177 176 176 175 175 175 174 175 175 175 175 174 172 112 104 110 101  56  49  71  99 102 105 106 104 106 106 109 111 109 107 105 102 101  96  94  90  88  86  84  82  81  78  76  76  74  70  73  72  72  76  85  95 112 129 146 167 163 161 155 124 105  95  92  92  95 101 108 119 126 137 146 157 162 162 165 167 182 199 203 204 205 205 205 205 206 207 207
 176 177 176 178 176 179 176 175 177 177 176 176 176 175 175 174 174 147 107 103  96  75  49  75  99 102 105 103 101 103 106 107 107 103 107 108 105 105 105 104 102  96  91  87  82  82  79  79  76  75  72  73  75  75  81  91 102 113 125 140 160 161 162 159 137 114 103  99  98 103 111 121 130 141 151 160 162 162 163 164 163 177 197 203 205 205 205 206 205 207 208 208
 178 178 176 180 177 177 178 177 176 177 177 177 175 176 176 176 175 172 129 113  93  89  77  85  94 105 106 103  97 101 102 105 108 107 113 113 112 114 110 110 108 101  97  90  87  84  81  80  78  75  74  75  76  81  90  97 105 112 122 136 151 158 160 161 145 122 108 103 105 110 119 130 138 152 160 166 170 168 167 169 162 180 199 203 206 206 206 206 206 207 207 208
 179 179 178 177 180 180 177 177 178 178 179 178 178 177 178 178 176 173 134 115 106 103  89  88  93 101 106 102  99 101 102 104 109 112 118 117 118 115 114 112 110 105 104  97  93  87  85  81  79  75  73  76  81  88  97 103 113 120 126 133 149 158 161 163 153 127 112 107 110 112 124 131 140 151 158 165 166 167 171 172 166 185 201 204 205 205 207 207 207 208 208 208
 179 179 180 179 180 179 181 181 180 179 178 177 179 180 178 177 178 176 141 105  95  85  80  89  90  99 104 101 100 100 101 106 109 115 118 116 115 110 110 106 105 104 100  97  93  89  83  79  79  75  73  77  85  93 101 110 122 127 132 136 153 162 162 166 161 131 107 104 107 113 120 128 136 148 159 161 161 164 168 169 171 188 204 206 207 208 208 208 208 208 209 209
 179 179 180 182 181 181 181 179 180 179 180 179 179 178 178 178 180 178 171 118  76  65  84  88  90  97 101 101 102  99  99 106 108 111 115 114 111 107 103 104 102  98  94  92  88  82  80  75  70  69  75  84  95 103 111 125 131 129 132 134 150 163 162 168 168 144 106  93  96 105 116 124 131 139 148 150 155 159 165 169 172 190 205 207 208 209 210 210 210 210 210 212
 182 180 180 182 181 181 181 180 181 180 181 181 180 181 179 180 181 180 177 177 171 170 167  88  91  96  99 100 103 102 102 105 106 108 110 108 105 103 101  98  97  92  92  84  80  77  71  66  66  71  85 100 111 117 123 133 140 134 135 138 149 160 166 170 171 164 118  88  87  95 104 115 121 125 134 140 148 154 157 165 171 191 205 206 209 211 210 211 211 210 211 210
 182 182 182 181 182 182 182 181 182 182 181 182 182 181 181 180 179 181 181 180 180 178 178  97  93  95  97  99  98 100 103 103 102 105 104 103 102 101  98  94  91  89  83  68  76  73  69  64  66  80 101 115 125 129 135 138 142 139 135 139 143 156 162 170 173 169 152  98  85  87  94 103 111 120 124 130 142 148 154 160 169 195 205 208 210 210 212 211 211 211 213 212
 181 182 182 183 183 183 183 182 182 182 182 182 183 182 182 182 182 182 182 181 179 180 177 115  91  90  96  97  98  99  98 100  99  99  99  98  96  96  92  87  87  83  80  74  73  70  68  67  69  91 112 122 129 139 138 133 135 131 130 132 137 147 152 162 172 173 168 125  93  84  88  93 101 109 116 117 125 139 148 155 167 196 206 209 208 210 211 212 210 213 212 212
 183 184 183 183 183 183 183 183 183 182 183 183 183 182 182 183 182 183 183 183 182 182 176 129  88  91  91  92  98  97  98  98  98  96  96  92  90  90  89  86  84  81  79  74  73  71  68  67  72  95 110 114 115 122 126 125 123 120 122 123 129 134 142 149 159 171 171 149 105  92  86  87  91  99 107 110 117 129 141 152 169 199 208 209 208 210 211 211 211 212 212 213
 183 184 184 183 184 186 184 184 184 183 184 183 184 183 183 183 184 183 183 183 181 182 179 148  85  90  88  94  94  94  94  95  95  90  87  88  86  84  85  83  81  80  78  74  73  74  71  68  68  89 100  99 100 105 111 113 111 110 109 111 119 124 134 138 146 162 167 152 115 105  88  86  90  96 104 108 113 122 137 152 169 199 207 209 209 209 210 211 212 213 214 214
 185 185 185 185 186 184 186 183 184 185 184 185 185 184 184 184 183 184 184 184 184 183 176 170  95  87  84  89  90  91  90  91  87  85  83  82  82  79  81  80  81  80  77  73  75  77  77  70  58  75  86  85  84  87  92  98 100 102  99 100 105 110 121 128 136 149 151 137 125 117  97  89  90  95  99 104 109 118 131 146 175 197 207 208 210 211 210 211 213 213 213 214
 185 186 184 185 185 186 186 184 185 185 184 184 184 184 185 184 185 184 183 183 184 182 177 170 111  88  83  86  85  86  85  87  83  81  80  79  76  78  79  78  81  78  75  74  76  80  81  77  68  59  66  67  62  64  72  77  81  85  86  88  89  96 105 112 120 130 128 130 129 124 110  96  94  96 100 103 107 113 126 143 182 203 206 209 209 211 212 211 213 214 214 215
 186 186 187 186 185 185 187 185 184 186 184 185 186 184 184 185 184 185 185 184 182 181 181 173 131  89  84  82  82  80  81  82  77  76  75  76  77  75  78  77  78  74  73  76  78  81  84  83  77  66  58  50  50  50  51  58  64  70  76  79  82  84  89  97 101 104 125 131 132 126 115 101  95  96 101 107 109 111 123 140 190 205 208 209 211 211 212 213 214 214 214 215
 187 184 186 186 187 186 187 186 187 185 185 186 186 185 185 185 186 185 185 184 182 182 181 181 160  96  84  80  76  75  78  76  71  73  71  76  78  79  79  79  76  73  73  75  76  76  80  80  80  76  73  61  49  49  50  49  54  61  66  73  73  77  84  88  81  96 123 129 130 125 114 102  94  97 103 113 113 109 118 140 195 207 209 210 211 212 214 214 214 214 215 216
 186 188 189 187 187 186 186 187 185 185 186 186 184 185 184 184 185 185 184 183 182 183 183 180 175 107  87  81  74  73  75  75  72  73  76  81  79  79  77  71  70  68  68  69  70  73  77  79  78  75  78  78  64  53  49  49  50  58  65  69  70  75  79  76  76 105 122 127 127 119 103  96  89  91 102 116 122 108 112 159 201 209 210 212 212 212 214 214 214 214 216 216
 186 188 189 188 187 187 186 186 185 185 184 184 184 184 184 183 185 185 184 184 182 183 182 180 177 124  88  80  74  71  73  73  71  77  83  86  80  75  70  68  64  61  62  64  66  70  71  76  74  72  76  80  74  64  52  51  54  54  60  65  66  69  69  72  85 116 127 127 121 110  96  86  85  86  95 111 128 113 114 179 206 209 212 212 214 214 213 213 215 215 216 216
 187 188 188 188 188 187 187 187 187 185 184 185 184 184 185 185 185 184 184 184 183 184 183 181 179 140  89  76  74  69  69  72  75  82  87  81  72  68  63  61  56  57  58  61  64  66  68  71  74  74  74  79  77  69  59  56  56  56  60  59  62  66  66  74  91 118 131 128 122 106  90  80  78  81  87 102 128 116 122 191 208 211 211 211 211 213 215 214 214 215 216 217
 188 189 187 187 188 188 189 188 185 186 187 186 185 184 184 184 183 184 184 183 183 183 182 182 178 141  87  75  73  66  65  70  78  82  85  75  65  58  58  54  53  53  57  60  60  61  65  68  71  75  74  72  70  68  61  59  61  63  59  57  60  65  67  78  95 113 126 127 122  99  85  77  77  75  74  90 126 113 142 199 208 211 212 211 214 213 213 214 216 216 216 216
 189 188 189 188 188 188 189 189 188 187 187 184 186 184 185 184 184 185 184 184 184 184 183 183 180 145  89  76  68  63  59  62  73  81  76  66  58  52  54  51  50  48  51  56  55  58  62  68  70  70  70  65  62  62  61  63  61  60  55  53  58  65  69  76  90 103 113 115 105  80  68  70  71  61  66  89 121 110 173 205 208 210 211 212 214 214 214 214 215 215 216 216
 190 188 188 188 189 190 188 186 186 188 186 186 186 185 185 183 185 185 184 183 185 183 184 184 182 156  95  80  71  62  57  59  66  75  70  64  55  47  52  50  44  32  34  40  49  55  61  66  68  68  66  63  62  63  65  62  61  53  46  47  53  64  72  81  90  96  99 101  80  56  50  55  58  53  66  90 114 124 198 207 209 209 212 212 213 213 214 214 214 214 215 216
 189 188 190 189 189 188 187 185 186 186 185 185 185 184 184 184 185 185 184 184 185 185 184 184 184 158  97  79  71  64  60  58  63  70  66  62  55  44  46  46  38  35  41  36  31  47  57  60  63  61  61  61  63  64  63  63  60  56  46  47  57  69  81  89  97  96  93  83  70  66  59  59  55  56  68  95 111 165 203 208 209 209 210 212 213 212 215 215 215 216 216 215
 187 189 188 187 189 187 187 184 185 184 184 184 184 184 184 185 185 185 185 185 183 184 184 184 182 154  98  82  71  63  58  56  61  67  64  60  56  46  46  48  49  45  46  47  41  35  40  51  55  57  58  58  60  63  64  63  62  62  57  53  63  68  76  80  82  84  78  75  81  76  68  62  59  62  75  98 123 200 207 209 211 209 211 212 213 214 215 214 215 215 216 217
 188 190 188 187 186 188 186 183 184 185 184 185 185 185 185 183 184 185 184 184 184 184 183 182 183 136  97  85  70  65  60  58  58  63  64  59  54  48  50  52  55  53  51  54  54  44  39  40  38  43  48  49  49  50  51  51  54  55  56  55  56  58  60  62  69  69  79  89  89  84  74  64  61  67  83 105 172 202 207 209 210 211 212 211 213 214 214 214 214 215 215 216
 188 188 186 186 185 186 185 185 184 184 184 184 185 184 186 184 185 184 185 184 183 183 174 118  71  83  93  84  70  65  61  58  58  59  61  58  52  51  52  54  58  61  58  56  60  56  49  43  43  42  41  39  39  42  44  44  45  46  47  52  52  51  51  54  64  79  93 103  94  86  74  65  64  74  94 139 200 207 209 209 211 212 212 212 214 214 215 214 216 216 217 217
 187 186 186 186 185 186 185 186 186 185 184 185 185 184 184 184 184 184 183 183 172 122  68  53  54  74  90  85  72  61  61  58  56  57  58  57  53  51  51  53  58  61  63  60  61  61  60  55  46  45  48  50  46  43  41  43  42  42  45  47  49  49  55  66  80  89 103 109  95  86  75  68  68  80 107 189 203 209 209 210 211 211 214 213 213 214 215 215 216 216 217 218
 188 186 186 186 186 184 186 184 185 185 184 184 184 184 183 183 184 182 152 101  70  50  47  45  46  61  88  82  72  62  59  58  56  55  57  58  58  52  52  55  56  58  62  62  61  63  64  63  58  51  48  49  49  48  49  52  50  50  52  52  55  56  62  72  81  99 110 106  92  82  76  72  75  92 161 201 207 206 208 209 210 211 213 212 213 214 214 215 214 216 216 217
 187 184 186 185 184 185 186 185 184 185 184 185 183 183 184 166 125  82  65  62  48  41  41  43  37  56  86  78  70  64  53  52  54  54  58  54  52  52  51  51  53  57  58  62  61  62  61  61  60  58  52  48  46  48  50  51  49  48  51  50  56  60  64  71  86 101 102 101  90  83  77  77  88 115 202 204 206 207 207 209 209 211 213 212 213 214 214 214 214 214 216 216
 186 185 186 185 185 185 185 185 184 184 183 182 183 146 101  65  57  54  52  48  36  38  40  39  31  61  83  77  70  64  52  50  49  50  56  54  52  52  53  51  52  54  55  58  60  59  60  61  60  60  57  56  54  51  50  51  51  50  52  51  55  61  67  80  91  96  99  94  84  81  80  81  91  92 122 168 201 208 207 208 209 212 212 214 214 214 214 215 216 216 216 217
 187 186 186 185 185 185 185 184 183 185 164 116  71  60  54  50  48  45  45  40  35  38  38  37  28  74  81  74  72  65  56  50  48  48  51  53  54  54  53  51  53  56  55  56  59  60  62  59  57  55  54  56  55  59  57  57  59  60  60  60  64  70  74  83  89  95  94  88  83  79  81  86  85  87  86  85  99 146 192 211 210 211 211 211 214 214 214 214 215 215 216 217
 185 186 185 185 184 183 185 165 118  75  59  53  50  47  43  43  43  43  41  35  34  35  36  34  36  77  79  73  69  64  56  52  47  47  47  50  53  54  55  52  51  52  54  53  54  57  60  59  58  55  54  53  50  51  52  56  61  60  62  65  66  70  76  83  88  94  90  85  83  79  80  83  50  70  84  82  80  83  89 122 179 209 210 213 214 214 214 215 215 216 215 217
 185 185 183 184 184 148  97  62  54  50  45  41  42  41  39  39  40  39  38  34  33  34  34  31  40  74  76  74  69  64  57  53  50  44  45  44  46  50  50  51  52  52  55  54  53  56  57  58  59  57  56  55  54  53  53  56  57  60  63  66  68  73  78  84  88  92  91  87  84  77  80  74  54  51  72  80  79  76  77  82  89 122 170 207 212 212 215 215 216 215 217 218
 185 188 170 120  66  51  50  45  41  39  38  38  38  37  37  37  37  37  36  30  31  33  35  30  51  74  76  73  69  61  58  52  48  45  42  43  44  44  47  49  52  54  52  53  53  54  57  58  59  60  58  58  60  60  61  62  62  66  66  69  72  76  80  82  87  92  92  87  86  83  77  66  59  43  60  73  78  77  74  74  75  81  87 102 154 200 214 214 215 214 216 217
 138  88  56  52  46  41  39  39  37  36  37  36  36  35  35  36  36  37  34  28  30  32  34  28  50  73  74  71  69  64  60  53  46  44  42  42  41  41  43  46  51  53  53  55  56  54  55  58  57  59  59  58  60  60  59  61  62  63  63  66  71  76  78  82  90  92  90  85  80  75  70  66  61  47  48  65  74  75  73  70  71  73  75  81  88  99 143 192 213 215 215 217
  51  49  44  39  37  37  34  35  36  35  36  36  35  35  36  36  36  33  31  27  29  32  33  27  50  73  74  72  68  65  60  51  47  42  41  39  40  39  41  43  50  54  54  54  58  56  55  59  58  60  60  60  61  60  62  64  62  62  66  69  73  77  81  89  94  88  91  84  76  65  64  65  63  52  43  57  68  72  73  69  69  70  73  73  76  80  85  99 138 194 216 217
  41  39  37  35  35  35  33  31  35  34  32  35  34  34  36  34  34  34  31  27  29  30  31  27  47  71  72  72  69  64  61  56  52  46  42  40  41  38  38  41  44  51  53  56  55  57  58  60  61  60  60  60  61  62  63  67  67  66  70  74  73  79  84  93  93  88  87  81  67  46  60  63  63  58  43  53  64  69  71  69  70  70  69  70  72  74  76  79  86  95 134 192
  37  36  35  32  33  32  32  31  32  32  30  31  33  32  33  34  34  33  31  29  29  29  31  27  47  68  72  72  70  66  64  61  54  50  43  36  38  38  38  37  41  46  50  56  54  54  57  58  59  58  60  64  62  61  63  65  66  68  72  72  74  81  87  93  92  86  84  76  62  39  60  66  63  61  45  48  57  66  69  68  65  68  66  67  67  70  71  74  76  80  86  95
  35  33  32  33  34  31  30  30  31  30  29  29  32  31  32  32  33  30  30  29  29  28  29  26  46  67  72  69  68  67  64  60  56  51  47  40  37  39  38  36  40  43  48  52  53  53  55  59  59  60  60  64  65  63  61  63  66  69  70  72  76  83  86  92  89  84  77  86  87  37  58  65  62  61  48  46  57  65  67  68  67  64  62  64  65  67  70  71  72  75  77  80
  33  31  30  31  30  31  30  30  30  29  30  29  30  30  31  31  31  31  30  28  29  27  29  26  46  65  70  69  67  66  65  60  57  55  50  42  39  38  38  36  37  41  44  50  49  52  52  56  59  59  63  63  63  62  60  62  64  68  68  72  77  85  87  89  83  81  76 119 104  38  58  63  61  61  48  44  54  60  64  67  64  63  61  61  61  64  63  65  66  70  73  73
  33  31  29  28  27  30  29  29  29  29  30  30  30  30  30  31  31  29  30  27  28  27  29  28  44  64  67  68  67  67  66  61  58  57  53  47  42  41  39  37  36  37  41  46  48  49  50  53  55  56  59  62  60  58  61  64  63  67  68  73  79  85  83  77  74  75 104 132 113  41  58  63  61  61  50  44  52  60  65  68  65  63  61  58  59  61  61  65  65  64  67  68
  30  29  29  28  28  28  29  30  29  29  29  29  30  29  30  30  29  29  30  27  25  26  28  27  39  60  62  65  66  66  64  62  60  57  56  50  46  42  40  36  36  36  36  42  44  45  44  46  50  52  55  60  60  61  63  64  64  66  69  73  77  78  75  70  68  92 126 132 118  41  58  63  61  61  50  46  53  59  63  66  66  64  62  58  58  59  60  60  60  63  64  67
  29  28  29  28  26  28  29  29  28  29  29  28  28  30  30  28  28  29  29  25  25  24  26  25  36  58  60  65  65  63  61  62  62  55  54  51  49  45  44  40  35  32  35  37  40  41  39  40  48  50  54  56  59  61  61  62  64  65  68  66  72  72  68  64  82 118 126 127 111  46  60  64  63  60  51  46  53  58  62  64  63  62  61  58  60  59  60  60  61  62  62  63
  28  26  27  29  27  28  28  29  29  28  28  28  29  29  30  29  30  30  29  26  26  24  24  27  29  58  59  62  62  62  60  60  61  57  54  52  50  49  47  45  41  35  33  35  37  43  43  42  42  46  50  52  53  57  58  61  62  65  65  65  64  57  59  81 108 118 122 122 102  47  60  63  61  56  49  48  56  59  62  66  66  64  63  61  59  58  58  60  61  60  60  62
  25  26  27  28  26  28  27  27  28  28  28  28  29  29  29  29  28  28  28  28  25  24  24  24  23  48  56  58  58  60  58  60  59  54  55  55  52  49  49  48  46  41  36  32  34  38  38  40  39  40  45  43  46  51  51  53  56  56  57  58  57  67  86 101 110 114 115 117  84  55  61  60  60  58  49  49  56  60  61  63  64  65  63  61  61  57  58  59  59  55  56  60
  26  26  26  26  25  28  27  27  26  27  28  28  28  27  29  29  28  28  29  29  24  24  24  23  24  35  54  56  55  56  56  59  54  55  55  56  53  51  49  50  46  47  45  42  40  38  38  37  38  37  39  41  43  47  46  47  46  48  54  60  73  85  94 101 106 108 108 112  66  59  62  59  58  56  50  52  55  60  62  64  61  65  63  61  60  59  55  58  56  57  57  60
  26  28  25  26  25  26  25  26  27  25  25  27  29  29  29  29  28  29  29  28  26  24  24  22  25  26  48  51  53  54  56  57  57  55  56  55  54  53  51  50  49  48  48  46  46  48  45  44  43  43  44  42  42  47  50  52  55  67  71  74  83  86  93  98  98  98 104  95  59  60  60  59  58  56  49  55  56  61  62  62  64  65  62  61  60  60  54  54  55  55  56  58
  27  25  26  25  23  25  25  24  26  26  26  28  27  26  27  26  27  29  27  24  22  23  22  22  22  23  30  48  51  50  53  56  56  56  56  55  56  54  53  51  50  49  50  51  49  50  50  49  49  49  51  52  55  60  66  68  71  73  75  78  83  86  92  93  94  96  96  65  56  59  59  58  56  54  52  57  59  62  65  64  63  63  60  60  60  59  55  56  57  57  55  55
  26  23  25  25  26  25  24  25  26  25  26  28  27  25  26  26  26  26  23  23  27  23  22  21  22  22  23  35  48  50  51  53  55  56  56  56  57  54  52  54  54  54  53  54  55  53  53  54  54  55  57  60  64  70  71  72  73  76  77  79  82  86  89  89  90  90  75  56  58  56  56  55  54  52  52  59  64  65  67  67  64  64  63  60  62  61  57  56  58  58  55  54
  23  24  24  24  24  25  25  26  26  25  26  24  26  24  25  23  26  21  23  27  29  24  22  22  21  21  23  22  38  47  50  50  53  53  54  55  56  56  54  54  54  55  55  56  57  58  58  58  60  61  63  66  67  70  73  72  74  75  78  79  80  84  83  81  83  71  50  55  56  56  54  54  52  53  56  61  63  67  68  64  65  64  63  60  60  60  59  56  59  59  54  54
  24  23  23  23  23  25  26  25  27  25  26  24  26  24  24  22  22  24  26  27  27  23  22  23  23  22  22  22  24  37  47  50  51  52  55  56  56  54  55  55  53  55  55  56  58  60  59  61  63  63  66  66  70  71  72  74  73  75  78  78  82  80  79  77  68  48  49  53  55  52  54  55  53  53  59  62  63  66  68  67  65  67  65  63  61  59  59  57  56  57  56  53
  24  22  24  24  23  24  25  25  24  25  26  25  24  23  23  21  25  27  27  25  26  25  23  22  23  22  22  21  23  24  37  47  52  52  53  54  55  54  54  54  55  54  54  56  57  60  60  62  62  62  66  67  70  70  71  73  74  76  76  76  78  76  71  59  45  49  50  50  53  52  52  56  55  47  55  60  64  64  66  64  67  67  66  64  61  58  56  59  57  56  56  55
  23  22  23  25  24  24  24  24  25  23  24  25  25  22  21  25  27  25  28  24  26  26  24  20  23  22  22  21  20  23  24  35  46  50  51  54  56  55  55  54  55  54  55  56  56  57  60  62  63  62  65  68  70  71  73  74  73  74  75  74  71  66  48  42  47  48  50  51  52  54  56  55  67  67  44  54  60  65  68  68  67  67  67  64  59  57  56  58  60  58  53  56
