P2
# Generated by OpenCV 3.4.0
92 112
255
  94 111 121 123 119 120 126 128 127 128 126 126 128 127 128 128 129 129 131 128 127 128 122 110  90  75  66  58  52  50  55  54  57  52  47  45  43  41  41  41  41  40  41  41  43  42  42  43  50  52  49  50  59  67  62  54  58  72  79  67  42  33  30  38  31  30  33  33  31  32  30  35  42  51  51  61  57  48  56  80  85  81  87 102 112 116 116 113 119 123 131 130
 102 116 124 123 115 123 128 127 128 128 127 128 128 129 128 128 128 129 129 129 125 120 109  86  74  64  55  51  52  56  56  56  53  47  44  39  38  36  40  41  40  39  40  41  43  43  42  42  40  41  41  46  49  46  51  50  52  48  45  47  42  37  30  31  27  24  27  30  29  31  27  33  38  45  48  54  59  56  62  70  75  80  90 104 115 118 112 110 109 111 110 114
 106 119 124 125 110 124 127 128 127 128 127 128 128 129 128 128 130 127 127 126 122 112  91  69  62  51  51  62  62  58  53  50  47  45  42  35  36  36  39  39  38  35  35  34  35  34  34  36  35  37  37  41  44  47  48  46  46  39  31  32  31  30  31  29  24  23  24  25  27  29  32  34  38  42  51  56  63  66  64  67  73  81  86  89  98 100 104 106 102  97  94  94
 107 120 124 126 112 125 127 128 129 128 130 129 128 129 128 130 131 128 126 123 121 104  74  57  53  57  65  64  61  54  48  45  45  42  37  38  34  34  34  34  33  33  32  34  34  35  34  36  39  41  42  46  51  55  56  62  56  48  40  29  27  26  27  27  22  20  22  20  24  28  31  32  37  45  55  63  62  58  60  69  74  74  77  81  93 101 102  98  87  79  82  95
 108 121 126 126 113 126 128 129 129 130 129 130 128 128 130 130 131 128 129 121 111  82  64  68  59  58  56  55  48  48  50  55  54  50  42  38  35  34  35  34  34  33  33  35  34  39  38  39  41  43  43  47  46  47  51  52  57  56  57  51  36  27  24  26  23  20  22  22  28  29  30  31  40  46  55  56  50  51  57  64  66  69  81  86  95 100  92  85  76  86 105 114
 112 122 125 126 113 129 129 130 131 130 130 130 130 130 130 129 131 130 126 109  87  73  69  56  54  53  53  51  48  52  52  50  47  45  42  37  37  34  35  35  34  33  34  36  39  39  36  36  37  42  45  49  52  56  61  55  50  46  44  38  38  31  26  22  23  21  22  24  27  29  33  35  40  47  45  44  44  47  49  54  63  77  81  82  87  96  94  90  92 103 103 106
 115 123 126 125 113 127 128 130 130 127 130 128 130 128 129 128 130 125 116  93  71  62  54  53  54  55  46  46  56  52  52  58  50  43  36  34  38  36  36  32  32  32  32  34  34  34  36  40  41  43  42  44  47  52  60  63  56  45  39  33  28  26  28  26  26  24  21  23  26  27  28  32  36  36  33  35  40  40  45  52  60  68  71  74  71  76  85  83  92 104 106 110
 117 125 126 125 116 129 129 129 129 129 129 130 131 128 128 128 127 123 105  71  53  50  52  49  49  45  43  44  50  55  57  54  44  35  32  31  32  31  30  28  29  30  31  34  34  34  33  32  31  33  33  35  41  50  52  48  48  43  39  32  27  25  22  22  23  20  17  20  24  24  29  28  28  26  29  31  34  41  44  47  48  57  68  69  65  62  65  77  90 102 102 110
 120 124 127 124 117 129 130 129 129 130 132 132 131 130 129 130 129 116  84  59  51  45  44  40  40  45  45  47  54  59  56  43  34  29  28  28  28  27  27  28  29  30  29  28  27  26  29  32  35  38  41  49  53  63  64  54  48  39  30  27  25  23  18  22  23  22  19  18  20  23  24  20  23  25  28  30  31  37  42  41  44  48  53  54  55  56  61  71  82  98 113 125
 121 126 126 120 118 128 129 129 129 131 131 130 129 130 131 131 126 100  62  51  47  42  36  35  43  46  47  50  51  47  45  40  32  28  28  29  28  29  29  29  27  24  24  27  29  34  35  36  38  39  39  43  47  53  49  43  31  26  26  25  25  25  22  23  22  23  22  18  18  19  19  22  24  24  26  29  34  41  43  47  53  51  53  55  55  64  70  76  95 108 121 130
 124 127 127 116 120 128 130 130 129 130 132 130 132 131 132 132 118  87  60  52  40  36  34  38  41  40  42  43  49  46  47  29  20  19  23  27  28  31  30  28  28  28  28  30  32  33  33  34  35  38  38  38  35  33  31  28  23  24  23  25  25  23  24  25  23  23  24  23  20  20  22  22  22  25  27  31  38  42  51  55  56  58  53  57  68  83  94  97 109 121 132 134
 124 127 127 114 124 131 129 131 132 131 131 130 132 132 133 131 116  77  64  43  33  34  34  34  34  36  36  40  40  39  29  20  17  18  18  19  22  23  23  23  25  25  25  27  27  29  31  29  28  27  27  26  24  25  27  27  26  28  29  31  31  30  31  30  28  29  31  32  27  26  26  27  27  28  30  30  32  43  51  60  64  59  54  59  74  91 111 120 124 132 134 134
 127 127 129 113 129 132 130 131 131 132 131 131 132 132 133 128 110  72  53  36  30  28  26  30  35  34  34  34  34  30  20  16  14  15  15  16  17  17  19  20  22  23  25  27  26  25  25  25  25  24  23  24  25  27  28  31  30  34  37  39  42  43  43  44  41  44  45  43  38  35  35  33  34  31  29  33  37  42  45  48  49  53  55  58  63  75 100 117 128 132 139 143
 127 128 129 112 129 132 131 132 132 132 133 134 130 130 133 128 102  66  44  34  25  26  27  32  35  29  31  31  30  25  18  15  16  15  17  18  19  20  21  25  24  25  28  28  29  29  27  29  29  28  26  27  31  31  33  34  37  41  42  46  51  54  56  59  58  62  60  58  56  48  42  39  34  31  29  31  33  39  42  42  44  45  48  52  58  56  68 101 128 138 141 144
 127 131 131 112 130 132 134 134 132 132 133 134 132 133 130 126  92  56  40  29  23  25  28  29  28  30  29  30  29  20  16  15  17  19  22  23  24  26  29  27  31  31  31  33  32  32  33  32  33  33  33  34  34  37  40  42  44  46  48  52  62  68  69  68  71  76  81  76  74  69  61  53  45  36  28  27  27  31  32  36  40  43  48  50  49  52  64  85 121 139 142 144
 126 129 130 114 130 132 133 134 130 132 133 133 133 132 129 124  81  48  36  28  24  26  29  28  30  34  31  30  25  19  18  19  21  23  26  28  31  31  33  32  35  35  34  34  34  34  34  34  37  37  37  38  39  41  44  47  49  52  55  63  71  78  81  78  84  92  93  91  87  84  77  65  58  47  32  24  24  25  28  28  31  36  47  53  51  55  72  90 122 139 143 145
 129 131 130 112 129 133 132 133 132 134 132 133 134 134 132 113  64  47  36  31  27  28  29  29  30  31  28  28  23  20  22  25  27  29  31  32  35  37  39  38  41  39  39  39  38  39  39  39  41  41  42  42  44  46  49  50  56  59  65  73  81  86  88  85  90  98 101 102  97  93  86  78  67  62  45  29  25  25  25  27  32  36  48  51  49  49  60  92 129 141 143 144
 131 132 129 103 132 132 133 133 134 134 134 135 135 135 129 108  63  50  39  36  28  30  28  29  29  28  29  25  23  23  26  26  31  33  34  38  42  43  44  46  46  45  45  44  42  43  44  45  46  48  49  48  50  51  54  59  61  67  75  83  91  96  96  91  95 104 109 109 105 101  96  90  78  72  60  40  26  26  27  29  32  36  44  50  52  54  60  89 130 143 148 148
 131 131 130 113 132 134 134 133 134 134 134 135 133 134 133 109  63  52  43  35  25  27  29  29  28  28  28  23  26  27  29  32  35  39  41  43  45  48  50  51  49  51  49  48  50  48  51  51  51  52  53  54  52  56  60  63  67  75  85  92  99 102  98  94  98 107 109 110 108 108 103  96  86  78  72  56  32  26  28  29  33  36  41  47  51  54  61  88 136 146 151 151
 131 132 127 115 131 135 135 134 135 135 135 135 134 136 133  98  55  51  43  32  24  24  25  27  28  27  27  24  29  31  33  37  39  39  45  49  51  53  55  57  55  55  52  52  53  54  56  57  57  57  58  61  60  62  65  69  74  81  91 101 105 102 100 100 103 110 115 114 113 110 107 102  92  85  82  69  44  26  28  29  33  36  38  44  53  55  64  91 135 148 151 155
 131 132 125 119 134 135 134 135 134 134 135 136 135 134 132  88  50  50  41  29  23  21  24  25  23  26  27  26  31  35  38  41  43  46  51  55  57  58  62  60  61  61  56  61  61  61  59  62  64  62  62  66  66  68  70  75  80  87  94  99 103 104 101 101 102 107 110 109 112 112 109 107  99  92  86  83  58  30  25  27  31  35  38  43  57  67  74  94 134 151 153 157
 136 137 123 129 138 136 135 135 135 135 137 135 136 136 133  75  49  48  37  28  20  22  25  24  23  26  29  31  37  41  42  45  49  51  55  59  63  65  66  65  65  64  65  66  65  67  66  67  68  68  68  69  71  72  74  78  84  89  96 101 102 104  98  96  99 106 108 103 110 114 109 108 105  96  91  90  72  37  27  28  30  32  35  38  48  70  86 109 135 150 153 158
 138 145 126 147 144 139 137 136 136 138 136 136 137 137 126  64  43  44  38  25  22  23  24  23  23  25  30  35  42  44  47  49  53  56  60  64  65  66  66  66  67  67  66  67  67  69  68  68  70  72  72  72  73  74  77  81  86  91  96 100 101 101  98  96  96  98 102 103 109 111 108 107 103 102  97  94  83  51  31  28  28  30  34  38  44  67  95 119 143 151 155 158
 142 144 123 149 148 142 138 137 136 137 137 139 136 137 128  65  42  38  34  24  23  24  24  22  22  25  31  40  46  49  52  54  58  62  63  65  66  68  68  68  69  67  68  69  69  69  69  70  71  72  73  72  74  75  79  80  84  90  94  96  96  93  92  93  93  97 106 109 105 106 108 106 104 101  99  98  92  62  34  29  28  29  31  38  45  62 101 128 144 153 155 158
 141 144 121 148 149 144 139 137 137 138 138 138 138 137 135  73  41  38  31  24  23  22  23  23  23  26  34  47  53  56  59  61  62  65  67  68  66  68  70  71  73  75  71  72  72  69  67  69  71  72  72  73  75  78  79  81  84  88  91  94  91  93  92  93  94  97 101 105 104 106 105 105 103 100  99 102  99  75  40  30  27  28  31  37  42  65 114 142 146 157 157 159
 141 144 125 148 149 146 142 139 138 137 139 140 138 137 136  88  40  35  31  25  22  20  22  24  24  28  39  55  60  62  64  64  65  66  68  69  69  69  72  74  75  73  72  73  71  69  69  70  72  73  73  76  78  81  82  82  83  85  89  91  89  90  89  90  90  94  97  99  99 102 105 105 103 102 102 103 102  86  47  30  27  29  31  37  43  60 124 148 155 156 159 162
 146 146 118 146 150 148 147 141 138 139 138 140 141 139 136  75  38  34  33  26  20  20  23  25  27  30  46  62  65  66  67  67  67  67  68  71  72  72  73  73  73  75  74  73  72  70  71  73  75  76  78  79  81  81  83  85  86  86  86  89  88  90  88  89  88  91  95  97  98 101 101 103 104 103 104 102 104  94  53  34  27  29  31  37  43  61 125 154 158 161 164 165
 147 145 118 145 150 152 152 146 142 139 139 142 141 142 137  74  36  34  34  25  23  23  24  27  30  38  53  64  70  74  74  74  72  72  70  72  75  74  76  76  75  75  77  74  75  76  75  77  78  78  81  81  81  81  83  87  87  89  90  89  90  90  89  90  92  95  96  99  99 102 101 102 101 103 105 105 106 102  61  35  30  30  32  38  51  88 134 157 162 162 163 165
 146 145 119 148 151 153 154 150 144 141 141 141 141 142 139  67  34  35  34  24  24  23  24  28  34  44  60  70  79  79  80  79  77  73  72  75  77  76  76  77  76  78  80  78  78  80  78  78  79  78  80  82  82  84  84  88  89  90  89  86  89  90  91  91  96  98  98  99 102 104 104 107 106 105 109 109 109 104  66  39  31  31  32  40  60 110 150 160 162 164 165 167
 146 143 122 150 151 150 152 152 147 143 143 142 141 140 142  70  35  36  30  23  25  21  25  30  37  48  62  75  83  86  84  81  83  80  80  78  78  80  80  80  80  80  82  81  81  81  81  81  82  82  82  82  83  83  86  88  90  90  89  88  87  92  94  99 100 100 101 104 107 111 112 111 110 109 110 112 112 108  74  40  34  34  33  42  66 130 158 163 164 165 167 167
 149 142 120 151 151 150 150 153 153 147 144 143 142 143 140  83  36  36  28  24  23  24  29  31  40  50  64  76  85  90  86  86  88  88  86  85  82  82  84  83  85  84  83  83  83  84  83  83  84  84  85  86  84  87  88  89  92  88  88  89  91  93 100 102 106 107 108 108 112 115 116 118 118 115 115 115 116 110  78  44  35  37  37  43  78 137 163 166 166 168 166 168
 148 137 134 147 150 149 151 150 152 150 147 141 143 142 140  96  36  33  29  24  25  26  30  33  40  50  68  79  87  90  92  93  93  95  96  94  89  89  89  89  86  85  85  86  85  87  86  86  86  86  88  88  86  88  89  92  94  93  89  91  97  99 101 105 109 109 112 114 117 120 121 123 123 124 123 121 120 113  82  49  37  41  45  49  98 149 164 168 168 168 169 170
 145 128 137 147 147 148 150 150 150 149 147 145 145 144 141 100  36  33  29  23  26  28  30  32  39  51  71  83  91  93  98 100 101 102 103 102  98  97  96  93  89  87  87  86  86  86  86  86  86  85  87  87  84  87  88  89  92  92  90  94  96 100 106 105 108 109 111 116 117 120 123 125 128 126 126 123 125 118  83  48  40  46  50  62 108 155 167 169 169 168 170 170
 144 118 141 145 144 148 146 148 148 148 146 147 146 144 140  92  39  34  27  26  27  31  31  33  41  56  77  86  93  98 102 106 107 106 106 104 101  97  98  94  91  87  87  85  87  86  85  85  85  86  88  86  83  87  88  91  90  91  91  96  94  97 100 104 106 106 108 112 114 119 124 126 130 131 130 126 127 124  87  51  44  53  52  68 131 163 169 170 171 170 170 173
 145 115 144 145 145 146 145 146 148 147 147 147 146 145 140  67  40  33  26  28  27  31  31  33  42  59  81  94 102 106 110 112 114 112 107 106 100  97  93  90  86  85  85  83  81  82  85  85  85  87  90  86  83  85  85  89  90  89  89  89  91  92  96  99  99 103 102 106 111 116 120 126 130 132 133 132 131 127  97  54  51  58  55  90 152 168 171 174 172 174 174 174
 144 112 146 146 147 146 147 148 147 149 148 148 146 146 131  56  39  33  29  26  28  30  31  34  48  69  86 100 107 113 116 119 121 115 110 102  88  91  89  88  84  84  80  81  78  79  82  82  84  84  85  85  82  82  84  84  88  88  87  86  88  90  90  91  93  97  97 100 107 111 118 121 127 132 134 135 137 134 102  54  54  62  70  94 162 170 173 173 174 176 175 175
 146 117 147 147 148 149 148 149 149 148 148 147 148 145 137  51  35  31  30  29  27  30  32  39  55  77  94 102 112 118 120 120 116 113 107  98  92  88  85  84  81  79  76  75  74  75  78  78  80  83  84  82  82  79  83  83  84  87  85  84  83  86  87  86  85  88  92  94  99 105 109 117 124 130 135 137 140 138 110  56  53  60  98 130 162 171 174 176 177 176 176 177
 147 121 146 148 150 150 150 149 148 149 151 150 149 146 142  55  33  30  29  28  26  29  34  46  64  85  98 105 112 118 116 114 109 106 103  97  87  81  79  76  75  73  73  71  72  73  75  75  80  82  82  82  79  80  81  83  86  87  85  81  81  82  83  82  81  84  86  89  91 100 104 110 118 124 133 137 139 141 111  51  56  60 115 157 171 174 176 176 178 177 178 178
 148 123 148 151 151 150 150 151 150 152 151 152 151 150 143  61  33  27  29  29  27  26  35  52  74  93 102 108 113 116 108  99  85  79  74  68  66  62  61  62  64  65  66  65  67  69  70  73  78  79  79  79  77  78  79  80  83  83  81  80  80  79  79  75  74  77  81  83  85  87  91  93  98 105 112 122 125 140 118  50  54  81 131 167 175 176 176 178 179 178 178 178
 148 121 151 151 151 152 152 152 154 153 152 153 152 152 146  66  34  25  26  31  27  26  38  66  87  98 103 108 109 106  78  63  56  49  46  46  42  43  43  40  46  50  50  51  55  56  64  69  73  78  79  77  75  78  78  79  80  81  81  78  76  73  74  69  61  60  64  66  67  67  70  68  73  76  79  89 100 118 121  53  54  81 152 170 176 178 178 179 180 179 181 181
 146 125 154 152 154 154 153 152 152 153 153 153 153 153 145  53  31  25  26  30  27  25  45  81  95  98  99  95  80  68  57  45  41  35  32  32  30  28  30  29  30  34  37  37  40  49  53  62  70  74  77  75  74  76  73  75  78  78  78  75  71  68  67  58  50  47  41  43  46  47  48  51  52  54  60  64  72  78  95  59  61  90 150 171 178 179 180 182 181 181 182 182
 142 131 153 153 154 154 154 154 154 154 154 155 154 153 136  49  28  25  26  28  27  26  51  87  98  96  84  67  56  50  43  36  33  29  29  27  26  25  26  25  26  26  26  28  34  41  47  54  64  69  74  72  72  74  74  75  78  76  76  71  68  66  59  51  42  34  31  29  31  31  33  36  38  42  49  56  62  62  70  63  66 105 156 168 179 182 183 182 184 184 186 185
 136 140 154 156 154 155 155 154 156 156 156 156 156 153 127  46  33  28  24  28  29  28  60  90  97  89  70  59  52  51  48  46  46  43  40  39  35  33  31  27  28  28  28  27  30  36  44  53  60  67  69  70  71  72  71  74  77  76  73  70  67  64  56  45  39  34  32  28  29  31  31  33  39  44  51  60  68  76  80  70  75 116 163 176 181 183 184 185 185 187 187 186
 131 146 156 156 157 158 157 157 158 157 157 157 158 154 135  62  38  30  22  23  28  28  63  95  97  79  70  64  65  65  63  60  60  59  56  53  53  53  51  48  44  40  38  38  38  43  46  53  60  64  65  68  71  70  72  73  76  77  73  68  66  63  57  49  47  41  39  38  41  44  49  54  60  63  67  77  84  91 103  78  82 134 168 179 181 184 185 185 186 186 187 186
 125 153 157 157 157 158 160 158 159 158 157 158 158 156 140  85  42  31  24  23  29  32  76  96  92  86  85  72  68  68  69  68  66  66  63  64  59  58  54  51  50  48  47  47  49  49  50  53  56  58  61  64  68  70  71  73  75  76  73  67  67  66  60  54  52  50  48  49  50  53  58  64  67  71  77  87  96 105 110  92  96 154 177 182 184 184 186 187 187 189 190 188
 125 159 159 160 160 160 159 160 160 160 159 159 160 157 125  98  47  35  27  25  31  36  80  97  99  98  88  78  71  72  70  66  59  54  51  48  46  45  42  40  40  40  42  46  48  49  50  50  53  54  59  64  67  70  71  74  76  77  75  68  65  61  56  52  46  38  38  38  41  46  49  53  58  65  77  87 100 113 119  99 128 165 181 183 186 187 187 188 189 189 190 190
 123 161 161 161 161 162 160 161 162 161 162 160 161 158  89  81  81  49  32  34  34  42  88 100 101  93  82  77  74  68  58  48  45  45  47  44  40  40  39  39  40  39  37  34  42  46  47  48  50  55  59  64  68  74  75  77  78  78  73  69  62  56  50  39  32  32  34  32  33  37  42  45  52  57  63  72  94 112 129 104 115 116 178 186 187 189 189 190 191 191 192 190
 121 161 162 162 162 162 162 163 162 163 162 161 161 156  76  60  74  69  38  40  36  45  94 100 105  93  83  75  66  54  45  51  44  35  29  25  25  25  26  28  37  35  38  38  32  38  44  47  49  54  58  64  69  75  80  81  79  79  74  68  59  49  37  30  30  26  24  23  25  37  44  51  44  43  58  81  78 102 128 110  90 102 179 188 190 191 191 190 193 192 193 193
 126 160 164 164 163 163 164 164 164 164 165 163 163 157  73  59  69  75  48  45  39  57  95 104 108 101  90  78  62  51  46  37  30  33  29  24  23  24  25  27  47  58  46  34  34  32  36  44  48  52  57  63  69  77  84  83  81  81  76  67  54  41  34  32  28  23  24  25  25  28  32  71  74  73  47  62  76  92 128 118  85 116 182 189 191 192 192 192 194 194 196 196
 137 163 166 166 165 165 164 165 164 165 164 164 164 162  82  59  77  80  67  49  43  64  98 106 111 106 104  92  72  54  41  33  36  49  34  26  25  24  24  31  42  79  65  44  33  34  35  40  45  51  57  64  71  78  84  83  80  80  76  63  47  41  34  36  32  24  23  21  25  30  31  75  90  91  53  57  68  96 134 126  83 134 185 191 192 195 196 195 196 197 198 199
 133 165 166 167 168 168 166 168 167 167 167 165 164 163 104  63  89  98  86  60  42  63  95 106 112 112 109 101  89  72  62  60  50  45  38  24  26  21  24  30  50  71  64  49  38  33  34  42  44  51  61  68  73  83  92  97  88  83  78  65  50  39  32  33  34  25  24  23  27  31  57  81  71  60  65  80  78 108 150 139  83 158 188 193 196 197 198 198 198 199 200 201
 138 167 167 168 168 168 167 168 167 167 167 166 165 165 143  71  99  94  77  53  41  64  94 100 108 115 117 118 113 107  99  82  68  53  47  38  32  28  29  32  51  53  46  41  38  38  40  44  48  56  64  69  77  91 103 115 112  93  84  71  55  48  42  38  37  37  33  33  34  38  53  58  57  59  83  96 121 144 158 149 101 181 190 196 198 200 200 200 200 202 203 202
 146 170 169 171 169 170 168 168 167 166 167 167 167 167 164 106  96  79  67  52  41  65  96 110 116 117 120 122 117 106  98  92  78  67  62  53  49  46  47  49  49  51  49  49  48  45  42  45  53  62  64  69  79  99 117 130 130 109  86  76  63  50  46  43  43  44  46  50  53  54  56  62  68  82 100 110 143 167 172 158 124 186 192 197 199 200 201 201 203 203 204 204
 158 171 173 172 172 172 172 170 168 168 169 169 169 168 167 145  92  74  67  53  41  63  99 111 117 118 118 122 121 117 107  92  80  66  61  60  58  54  54  52  50  51  49  49  47  45  47  55  61  65  65  71  88 108 122 141 150 130  96  79  73  62  49  48  43  46  47  50  54  59  63  69  79  85  96 120 151 173 178 165 136 187 196 200 199 200 203 203 204 203 204 205
 169 171 173 174 173 173 173 171 170 170 170 170 170 172 169 164 107  73  62  51  43  65  97 112 115 119 120 127 125 114 102  84  77  67  64  61  60  55  53  52  50  50  50  52  52  56  62  63  66  65  66  75  97 117 130 148 162 150 114  84  79  74  68  61  58  52  48  48  52  55  60  64  70  82 107 140 165 176 181 170 138 189 195 200 199 200 202 204 204 204 204 203
 175 174 175 176 173 174 175 174 173 172 170 171 169 170 170 168 124  76  61  57  45  71  96 108 114 119 120 122 125 126 123 116 103  84  65  57  51  52  49  47  50  54  61  64  66  68  69  69  69  66  66  77 104 128 140 156 175 162 135  92  82  82  80  78  73  71  68  67  63  63  62  65  82 103 138 163 174 177 177 172 135 190 196 199 200 200 202 204 204 204 204 205
 175 176 176 175 175 175 175 174 173 174 172 173 172 171 171 171 139  80  58  52  45  67  98 109 112 114 117 120 123 128 127 123 120 112 101  88  77  72  72  71  71  74  76  77  75  74  73  69  70  66  71  85 108 131 144 157 168 160 148 107  87  85  85  85  85  81  79  76  76  78  83  95 119 144 164 174 175 171 169 168 141 189 197 199 201 201 201 202 203 203 204 204
 177 176 176 176 177 175 175 174 175 174 174 173 173 173 172 171 142 100 104  71  46  63  96 108 110 111 112 115 118 121 123 121 117 109 104  99  91  84  80  81  81  82  82  78  75  72  71  70  68  68  77  93 110 131 146 160 169 159 152 123  96  88  86  84  86  87  86  85  90  96 105 121 139 158 171 173 169 166 167 165 154 191 197 200 201 203 203 203 205 205 203 204
 175 176 176 176 175 176 175 175 176 175 175 174 172 172 172 171 167 115 121  85  47  60  93 106 109 106 109 112 117 114 123 122 117 114 111 105 101  93  87  83  83  81  79  76  73  73  72  70  70  74  83  97 113 132 146 161 165 160 156 139 109  94  89  85  87  87  89  91  97 108 125 140 153 168 172 168 166 166 166 164 168 193 199 200 203 202 202 204 205 205 206 206
 174 176 176 175 175 174 177 174 175 174 174 174 174 173 175 174 172 142 115 105  52  56  91 107 108 105 110 112 116 120 128 127 124 120 110 106 104  99  95  88  84  82  78  77  76  74  74  73  75  80  90 102 115 130 140 158 165 161 160 147 125 104  96  90  90  93  96 100 108 121 138 156 168 178 180 176 174 170 171 164 179 195 200 201 201 202 204 204 203 205 205 206
 174 176 178 178 176 176 176 176 176 175 176 175 176 174 174 174 173 158 121 101  77  61  90 106 109 107 109 113 118 127 128 127 125 116 114 109 106 102 100  92  90  85  84  81  81  78  77  80  82  89  98 109 116 125 134 149 160 159 159 155 138 121 107 103 100 105 109 116 121 130 146 157 164 173 171 173 175 174 175 167 183 197 200 203 202 203 205 205 205 206 206 207
 177 178 177 178 176 177 177 179 175 176 174 176 176 176 175 175 174 167 127 113 105  88  92 108 109 110 111 114 119 124 125 123 119 113 111 106 105 103  99  97  92  90  87  84  81  81  81  83  89  99 108 114 118 124 130 142 152 157 160 158 148 132 115 107 106 106 116 121 127 134 143 154 161 164 166 164 168 168 173 176 187 199 201 203 204 203 205 206 206 207 207 206
 177 176 177 179 177 178 179 176 177 176 176 178 177 176 176 175 174 163 118 109 104  88  91 108 111 112 111 115 116 119 120 116 112 108 106 103 100  94  93  97  90  86  81  78  76  77  81  89  98 103 112 118 125 128 129 140 151 153 159 162 154 137 111  98  92  96 102 110 118 126 133 140 149 153 151 154 158 164 173 176 186 199 201 204 206 206 206 207 206 207 208 207
 178 178 179 179 179 178 176 178 177 178 176 176 176 178 178 177 175 172 115  92  83  81  92 106 112 114 114 114 114 115 114 110 106 103 100  94  92  89  87  83  78  76  72  66  67  72  82  92 106 109 114 123 131 131 129 140 154 156 158 164 159 145 121  96  81  83  84  91 101 109 116 122 131 134 140 145 148 154 165 175 187 201 204 205 206 207 206 207 207 208 208 208
 179 178 179 177 178 178 176 177 178 177 179 178 178 177 179 179 178 177 167 123 108 115  93 104 110 114 113 110 107 109 106 104 101  97  92  90  88  85  76  68  72  68  61  60  64  82  97 111 117 119 124 133 128 128 127 136 151 153 162 166 164 159 144 115  82  74  76  81  84  91 100 104 111 119 128 135 139 146 157 170 185 200 205 206 206 207 208 208 208 209 209 208
 182 180 180 181 180 180 181 179 180 177 178 179 178 179 179 178 179 178 177 178 174 168  97 105 110 113 110 106 103 102 100  97  96  91  89  89  86  80  73  69  68  63  62  61  75  98 118 127 129 127 132 138 132 127 127 132 144 153 163 168 165 165 161 138  92  74  72  73  78  84  88  95 102 105 113 122 131 142 152 166 187 202 205 207 208 207 210 211 210 210 210 209
 180 181 181 181 181 179 181 180 181 179 180 181 181 180 180 181 179 178 179 178 176 171 102 102 107 109 107 103 100  97  94  90  90  87  84  83  82  78  72  68  67  64  65  60  82 112 127 135 138 138 137 136 132 126 123 128 138 146 155 165 165 172 172 158  98  79  76  74  74  78  83  88  94  96 101 110 119 133 148 160 187 202 207 206 208 208 211 211 212 212 211 211
 182 182 181 182 182 181 181 182 182 182 181 182 182 180 181 182 182 178 180 180 178 169 117 101 106 107 103 100  93  87  87  84  84  81  82  80  79  74  70  68  66  68  65  57  86 107 120 125 134 136 130 128 121 119 119 120 132 137 148 160 165 173 167 159 119  82  78  73  72  75  79  84  88  92  98 104 113 125 144 156 187 204 208 209 209 210 211 210 212 212 212 211
 183 181 183 183 182 183 182 183 182 182 182 181 182 182 182 182 182 179 181 181 179 174 133  99 101 101  98  93  88  84  81  79  79  78  78  78  75  71  67  65  67  67  68  60  72 100 106 109 114 121 121 117 112 112 110 111 118 129 137 147 160 171 162 153 124  89  79  72  69  72  76  80  86  89  93  98 109 122 138 152 185 204 208 208 209 209 211 210 211 210 211 213
 183 183 185 183 183 183 183 183 182 182 182 182 182 182 181 182 183 181 181 181 180 177 136  95  96  91  91  86  81  77  76  75  74  74  74  74  72  66  66  65  67  69  70  64  61  83  91  94 100 105 110 107 102 101 101 108 111 119 125 135 146 159 154 138 111  90  81  76  70  70  73  78  84  85  91  94 106 118 134 153 188 203 207 208 209 210 210 213 213 210 210 212
 184 184 184 184 183 183 184 183 183 183 184 183 184 183 182 182 182 183 182 181 182 178 145  92  86  82  82  79  75  71  70  71  72  71  72  69  67  64  67  69  68  69  69  66  61  63  66  71  82  90  96  98  96  93  93  95 101 109 116 121 133 141 128 113 105  90  82  78  75  70  71  76  81  86  90  98 104 117 129 155 196 206 208 207 208 210 211 211 212 212 211 212
 184 184 184 185 184 184 185 183 184 183 184 184 184 184 184 183 182 183 182 182 181 179 153  92  83  74  72  71  72  70  68  68  68  68  68  64  62  62  66  67  69  69  68  66  65  65  60  50  54  65  75  82  86  85  84  85  89  95 102 110 118 112  98 106 101  90  83  79  77  75  70  73  79  84  90  98 101 112 123 157 199 206 209 208 210 211 212 212 213 213 212 213
 184 184 185 185 185 184 185 186 185 184 186 184 184 183 183 183 184 184 182 182 181 179 164  93  80  73  69  69  74  76  69  66  66  66  63  62  59  58  61  64  69  68  68  65  66  70  73  60  49  49  53  62  71  76  78  77  80  84  90  95  90  80 102 113 106  93  84  79  74  74  70  72  75  82  90  98 100 103 116 168 202 206 207 209 209 210 210 212 214 214 213 214
 186 186 186 186 185 186 185 184 184 185 186 186 186 184 186 183 185 184 184 183 182 181 175  93  79  67  65  69  81  81  71  65  65  60  60  58  57  58  59  63  68  67  66  66  67  72  76  72  60  47  49  53  61  68  71  73  75  78  84  79  72  83 110 126 119  98  84  79  71  73  71  70  73  78  90 102  98  97 119 188 204 207 208 210 209 212 212 212 213 213 213 215
 186 186 185 186 185 186 187 185 185 186 186 185 185 185 186 184 184 184 183 182 182 181 179 104  80  69  62  71  88  82  69  62  53  51  57  56  56  58  58  61  64  67  68  67  71  75  79  81  68  53  50  51  53  62  69  70  72  75  71  67  72  89 116 128 122 102  82  75  70  70  70  68  68  74  87 105  98  95 126 195 206 209 210 209 211 213 212 213 214 214 215 216
 187 186 187 186 186 185 185 186 185 186 184 185 184 185 184 185 186 184 185 183 182 181 178 119  76  68  59  64  84  78  63  54  42  49  53  55  54  58  59  59  62  66  67  68  72  75  75  75  70  59  54  54  54  54  56  58  61  63  66  67  77  95 112 120 116  97  79  76  73  70  70  64  52  67  85 108  98 103 142 202 208 209 211 209 211 211 214 213 213 214 214 216
 188 187 189 186 187 187 187 187 186 185 183 184 184 184 184 184 185 184 184 183 181 182 180 140  81  66  58  56  77  73  64  52  39  45  50  53  49  51  55  59  60  66  68  71  74  74  71  68  64  60  59  57  57  54  54  54  58  64  65  70  76  92 105 112 105  87  73  63  59  60  61  50  48  65  86 111  95 103 172 202 208 210 211 210 212 212 214 212 213 215 214 214
 188 188 188 186 187 188 188 187 185 185 184 183 183 184 184 183 184 182 183 182 184 183 182 173  86  69  59  54  71  70  62  51  38  41  46  43  35  38  42  50  58  65  67  71  71  72  71  68  65  62  60  55  54  50  49  49  53  61  65  73  84  95 104 105  97  76  54  48  45  48  53  46  53  69  88 105  95 116 198 205 208 209 210 213 212 212 212 214 214 215 214 216
 188 186 187 189 187 187 186 186 185 184 186 184 185 184 184 183 183 183 184 185 184 182 181 177 117  74  60  52  64  67  63  54  42  44  48  47  42  41  42  33  41  58  63  65  65  68  68  68  66  64  60  58  55  49  46  50  55  64  69  82  90  97  96  94  78  52  58  54  56  57  52  50  59  73  94  98  98 154 202 208 209 210 210 211 213 213 213 213 214 216 214 216
 189 187 188 188 188 188 189 188 185 185 185 184 186 185 184 185 186 184 184 184 183 182 180 179 163  78  64  57  60  69  63  55  45  48  48  53  53  49  51  49  38  38  49  55  59  62  62  64  66  65  63  63  61  61  55  56  62  63  69  74  77  81  80  71  58  62  68  65  66  59  54  54  65  78  94  95 107 194 205 209 209 210 211 213 211 213 213 213 214 216 214 215
 189 189 189 188 187 188 187 185 186 187 185 185 185 184 183 184 184 184 183 183 184 182 183 183 179 114  72  60  57  65  63  57  48  49  51  56  61  58  55  55  50  40  38  42  43  49  51  52  53  54  54  54  54  56  57  54  54  54  55  61  67  67  64  68  67  75  75  71  68  61  59  59  70  85  93  97 156 201 207 208 208 209 211 210 211 213 213 213 214 214 216 215
 189 189 188 188 188 188 186 184 185 185 185 184 185 184 184 184 185 184 184 183 184 183 184 182 182 165  67  64  59  60  65  59  52  51  52  56  60  63  61  59  58  51  43  41  41  41  41  42  43  45  46  47  48  48  48  50  52  54  54  53  54  60  73  81  84  85  80  76  69  62  63  64  76  92  93 116 195 206 207 208 209 209 211 209 213 213 213 214 215 214 215 215
 187 189 188 185 186 185 185 184 184 184 184 184 185 184 184 184 184 183 183 184 183 183 183 183 183 170  85  63  61  59  62  61  55  52  53  53  57  62  64  64  61  59  54  47  42  46  46  45  42  40  39  41  42  42  45  47  48  50  51  56  66  78  85  92  93  90  85  75  67  65  64  67  82  93  99 177 202 207 208 208 209 208 210 211 213 213 214 214 213 214 215 214
 188 190 188 185 185 186 185 184 183 185 184 184 185 184 184 184 183 182 184 184 183 183 183 182 181 148  97  67  60  57  58  61  56  54  53  57  55  58  63  65  64  64  63  59  50  50  52  52  50  50  52  52  52  51  53  53  55  58  64  71  79  88  96 102 100  92  87  73  70  69  70  75  89  93 151 198 205 207 209 209 209 210 212 210 213 214 214 214 214 214 215 215
 189 186 187 187 185 185 185 185 184 184 184 183 183 185 185 184 184 184 184 184 183 183 176 128  76  73  96  77  57  52  56  57  57  55  53  56  58  57  60  63  64  62  64  63  59  54  50  51  53  52  54  54  54  54  57  59  62  64  68  72  79  88 104 106 101  93  81  72  70  72  72  83  91 123 194 205 207 207 208 208 209 210 211 212 212 213 215 214 214 215 215 215
 187 186 184 186 186 186 184 184 184 185 184 185 184 185 183 183 184 183 183 183 173 127  74  54  53  66  94  81  60  51  52  57  59  58  56  54  59  58  59  62  63  61  62  63  64  63  59  55  52  51  53  53  55  53  55  59  63  63  63  68  83  95 103 104  95  91  79  73  72  74  78  87  97 188 202 204 206 207 209 208 209 212 212 212 213 213 214 214 214 215 216 215
 186 184 185 186 185 184 184 185 185 185 184 184 184 184 184 182 182 184 154 106  73  57  47  44  46  56  88  81  66  50  50  52  57  59  58  53  56  58  58  60  62  63  62  62  63  60  59  61  59  58  57  57  60  58  60  60  62  63  67  76  88  95  98  98  93  85  78  73  72  76  85  90 160 199 204 205 206 208 208 208 210 209 213 213 213 213 213 214 215 214 216 215
 185 186 186 185 184 184 185 185 185 184 184 184 183 182 181 167 128  84  64  60  52  40  39  42  39  52  86  78  67  55  47  49  51  55  55  51  53  58  59  55  59  63  64  63  61  60  60  60  59  61  62  62  64  65  64  65  68  70  72  79  85  90  94  95  90  82  78  75  72  80  85  95 151 189 204 205 206 208 208 209 210 211 212 212 212 212 213 214 214 214 216 216
 186 185 186 183 183 185 183 185 184 182 183 182 180 149 103  66  56  53  52  49  37  37  38  38  33  52  83  75  68  60  49  45  46  51  50  54  54  57  59  56  56  60  62  63  60  60  57  55  54  56  59  61  62  65  64  67  67  70  75  76  83  88  93  93  88  78  75  75  75  82  80  80 109 123 144 182 204 206 208 209 209 210 210 212 213 213 214 214 214 216 215 216
 186 186 185 185 184 185 184 183 183 187 165 115  74  59  55  49  47  46  44  41  35  35  37  38  30  57  81  75  70  61  53  46  45  44  47  51  53  54  59  59  58  58  60  62  62  62  60  58  56  57  57  59  61  64  64  66  67  71  75  78  82  87  92  91  85  79  76  75  76  79  82  67  73 110 115 116 127 162 196 210 209 210 212 213 213 214 213 213 214 216 215 216
 185 186 184 185 184 184 185 168 127  77  58  55  49  45  45  44  44  43  40  36  30  35  35  34  25  67  80  76  69  62  55  49  44  44  44  49  53  55  58  58  57  58  58  61  64  63  61  61  61  60  60  62  62  64  64  66  70  73  75  75  80  85  88  86  86  81  79  79  79  78  78  79  59  84 108 112 111 113 121 147 185 209 210 211 212 212 214 214 214 214 214 215
 184 185 184 183 184 152 101  61  55  50  45  43  42  39  38  38  39  39  37  33  31  34  35  33  28  72  78  75  70  64  56  51  45  41  41  44  49  56  58  59  60  55  57  60  61  61  61  62  61  62  63  64  64  65  66  68  69  72  75  76  78  84  87  85  86  82  78  75  77  76  77  80  73  62  92 105 107 106 108 111 119 140 180 208 210 212 214 214 214 214 215 216
 184 186 172 124  72  57  49  45  42  40  38  38  37  38  38  37  40  37  36  32  30  31  33  31  36  75  77  75  70  64  55  49  47  42  41  44  47  54  58  60  62  60  58  57  59  59  60  61  61  62  64  62  63  63  64  67  70  71  73  76  80  86  89  84  86  81  73  72  64  66  76  76  75  57  75  97 104 104 103 102 108 110 119 132 171 204 212 214 213 214 215 216
 144  92  55  52  46  41  38  37  37  36  37  37  36  36  36  38  37  34  34  29  30  31  31  29  40  74  78  74  71  65  57  53  46  45  44  42  45  50  54  58  59  62  61  60  59  59  63  62  63  65  64  66  65  66  68  71  70  73  74  80  85  89  88  83  84  79  74  74  61  56  73  76  75  63  63  84  96  98 100  99 101 103 106 111 118 129 163 199 214 213 214 215
  54  48  43  40  37  36  35  35  35  34  36  36  35  34  36  36  36  35  32  29  31  30  31  29  40  72  74  74  72  64  58  51  47  43  43  42  40  46  53  58  58  62  65  64  62  62  63  64  63  64  67  70  69  69  71  73  71  74  76  84  89  89  88  82  83  77  72  91  79  47  69  74  74  69  57  75  87  93  98  95  96 100 100 104 108 111 117 131 160 197 213 214
  40  37  38  36  36  35  33  32  34  34  34  32  33  34  34  35  35  35  30  29  29  29  30  28  38  72  76  73  70  65  62  57  53  42  40  42  41  44  48  56  61  60  65  67  69  65  66  65  64  63  65  66  66  70  70  72  70  75  80  84  89  90  87  80  77  70  77 122 100  44  65  71  71  69  58  69  80  88  92  93  94  96  96 100 104 106 110 111 119 125 157 195
  36  36  35  33  34  32  32  32  32  32  31  31  32  33  34  34  35  34  31  28  28  29  31  27  41  68  73  74  71  69  64  59  54  48  41  41  41  41  46  53  58  61  63  66  68  68  68  68  68  66  66  66  68  70  70  72  74  80  84  85  88  88  82  78  72  68 102 131 113  40  64  70  73  72  61  62  76  85  89  90  91  94  93  94  97  99 103 108 110 111 116 124
  35  34  34  33  32  32  30  30  29  30  30  31  31  31  31  31  33  30  31  28  28  28  28  27  39  65  71  71  69  68  65  60  55  51  44  37  39  41  42  48  55  57  58  64  66  69  68  69  66  65  66  65  64  70  69  70  72  77  83  85  85  81  78  74  69  78 119 132 125  41  62  69  71  70  58  58  72  80  84  88  88  87  91  90  92  97  99 101 103 106 108 112
  32  31  30  30  30  30  30  30  30  30  31  30  29  30  31  31  31  31  30  28  27  28  29  27  40  66  69  69  69  67  66  63  59  55  48  42  41  39  40  44  49  51  52  58  60  64  68  69  68  64  65  69  67  68  68  70  73  77  80  83  79  72  71  70  71 108 124 131 129  46  59  68  68  69  59  56  68  77  82  85  86  84  85  85  84  92  94  96  99 101 102 107
  31  31  29  28  28  29  29  29  29  28  29  29  29  30  30  31  31  30  29  28  27  28  28  27  38  64  68  67  68  68  64  61  60  55  54  45  42  39  38  37  42  45  47  47  54  58  60  64  67  64  67  66  66  66  68  71  72  74  77  76  71  66  64  68  98 114 123 130 128  51  59  67  68  67  61  58  67  74  81  83  84  85  84  82  82  87  89  91  94  93  97 102
  29  29  29  28  27  28  30  30  28  28  30  28  30  29  30  30  29  30  30  27  26  28  27  28  35  58  63  66  67  66  64  62  59  56  54  50  46  42  38  34  39  41  42  41  48  54  57  60  63  64  64  65  64  66  68  68  68  71  73  69  65  60  64  82 103 114 120 127 125  54  59  67  68  68  60  58  70  76  78  81  86  85  82  79  82  82  83  84  87  87  93  96
  30  28  28  28  30  28  29  29  28  29  29  28  30  30  30  30  30  30  31  27  24  26  26  27  31  58  61  64  67  64  63  63  59  56  54  50  48  44  43  37  35  35  42  41  43  48  52  54  58  61  61  62  62  65  63  65  64  67  60  58  59  56  78  94 105 112 118 122 125  52  61  66  66  64  59  59  67  73  77  81  84  83  81  79  82  80  82  82  84  84  89  91
  28  29  28  28  29  27  28  29  28  28  29  28  28  27  29  28  30  30  29  27  25  26  25  27  26  53  57  62  63  62  60  62  59  56  55  53  50  48  46  43  38  35  37  39  41  39  46  49  48  53  56  56  56  60  57  62  57  58  55  54  63  78  87  96 102 110 114 118 117  50  62  65  65  64  59  61  69  72  75  79  80  82  81  80  79  76  82  83  84  83  82  86
  28  28  27  29  26  26  28  27  28  29  29  29  29  28  28  28  29  30  29  27  24  24  25  26  24  44  56  57  61  61  58  59  57  56  56  55  52  50  49  49  46  42  39  37  38  36  40  41  43  45  48  48  48  53  49  49  51  51  57  67  76  83  91  95 104 104 108 112  97  56  62  62  63  63  60  62  68  70  74  76  79  82  80  79  78  76  78  79  81  79  81  84
  24  25  27  27  25  29  28  27  27  27  26  28  28  28  29  26  28  29  29  29  25  24  23  25  25  30  51  52  56  58  59  59  57  55  56  54  54  52  50  48  48  47  44  43  44  40  40  39  40  39  41  42  44  46  47  50  55  62  70  73  77  83  89  94  96  97 101 107  81  60  61  61  61  61  60  63  68  70  74  75  77  82  81  77  76  78  75  76  76  76  80  84
  24  26  26  25  25  26  27  27  29  28  27  28  28  27  27  29  29  28  28  30  25  23  23  22  23  24  40  51  53  55  55  57  57  56  58  58  54  53  53  50  49  49  49  49  49  46  48  47  46  46  43  45  48  51  54  61  69  72  72  74  77  81  87  90  90  91  96  96  66  62  60  60  59  61  62  67  69  71  72  74  76  77  76  79  77  76  73  72  74  76  76  78
  26  26  25  27  24  25  27  24  26  25  27  27  28  28  26  27  28  28  28  26  22  23  24  23  22  22  26  44  49  52  53  53  54  54  57  56  54  54  55  54  52  51  52  50  51  50  50  50  51  52  52  53  56  60  62  68  71  71  73  74  77  80  84  86  86  89  91  76  58  57  59  61  59  61  62  65  70  75  76  75  75  75  72  75  76  76  73  73  74  73  75  74
  24  23  23  26  26  26  27  27  27  27  26  25  26  25  27  26  27  25  25  22  24  23  24  22  22  22  23  28  44  48  51  52  52  53  54  55  57  55  54  53  52  54  54  55  53  53  54  55  56  56  57  60  64  66  68  70  72  71  74  75  77  78  82  81  81  84  76  59  58  55  58  58  59  58  63  67  71  75  78  77  76  75  75  72  75  78  75  72  73  76  74  73
  24  23  23  24  24  25  26  25  25  29  26  25  26  25  26  25  26  22  23  27  29  25  22  22  20  21  21  23  31  43  48  50  52  52  55  55  55  54  56  55  54  56  56  56  58  58  58  59  61  61  63  66  67  68  69  71  70  71  72  73  75  75  76  75  77  67  52  53  54  54  57  56  55  57  67  70  73  75  77  76  74  76  76  75  72  75  72  72  74  75  72  71
  25  25  24  23  24  25  28  27  26  25  26  27  26  25  24  22  23  22  28  27  24  25  23  23  23  22  22  22  22  30  45  48  50  54  56  55  54  54  54  55  55  54  56  57  60  59  61  61  63  63  64  65  65  68  68  68  70  72  72  73  74  74  70  70  63  52  50  51  54  55  56  56  56  60  70  70  71  74  76  75  75  76  76  74  73  73  71  72  71  73  71  69
  24  25  23  23  24  24  26  25  25  26  26  24  24  23  23  21  24  27  27  28  27  28  25  22  23  22  21  21  22  24  30  43  48  49  53  55  55  54  54  54  56  54  55  57  60  60  62  63  62  61  64  65  66  69  70  70  70  71  70  72  72  70  64  56  44  48  50  49  51  52  54  55  60  51  59  67  73  74  74  75  74  76  75  73  71  74  68  73  71  68  69  68
  25  24  23  22  24  23  27  25  24  24  24  23  23  23  21  24  27  25  26  25  27  27  26  23  22  21  21  20  21  23  23  28  44  50  51  54  54  55  55  55  55  53  53  57  56  60  63  64  61  62  63  67  67  67  70  67  70  70  70  69  65  58  45  37  47  49  48  48  51  52  55  54  75  77  55  55  65  70  75  75  74  75  74  73  71  71  68  70  70  68  67  69
