P2
# Generated by OpenCV 3.4.0
92 112
255
  91 112 121 123 116 119 125 127 127 129 128 125 127 129 128 127 128 127 126 127 126 121 107  88  73  69  64  62  67  64  61  58  52  49  46  41  39  35  34  35  37  40  43  44  45  45  45  46  47  52  61  63  66  72  83  82  67  63  57  45  38  35  43  41  37  40  31  30  36  44  45  45  47  59  58  61  88  98 101 101 105 109 111 113 110 106 119 127 133 135 131 127
 103 114 123 125 115 122 125 127 128 128 129 128 127 128 129 128 128 129 128 127 120 104  84  74  67  56  54  57  62  63  55  50  46  42  40  39  37  34  34  34  35  37  41  42  43  42  40  40  44  47  54  62  69  69  60  57  59  52  44  41  37  34  29  36  31  32  30  27  30  37  39  40  51  55  54  47  64  80  85  86  87  96 106 116 126 124 125 130 133 134 124 112
 105 118 122 126 111 125 127 127 127 127 127 127 129 129 129 128 129 125 124 116 102  80  72  64  56  49  50  54  58  62  50  47  42  40  39  40  38  38  36  38  37  37  36  37  40  45  44  41  42  52  60  56  55  69  84  77  54  43  33  34  32  28  30  32  30  29  30  24  29  34  46  47  51  48  48  50  60  68  72  75  82  95 110 113 110 109 108 112 114 115 107 109
 108 119 123 124 111 127 126 127 127 128 129 129 129 129 129 129 128 126 121 112  89  70  58  49  47  59  65  58  60  53  48  45  41  38  38  40  36  37  37  39  41  43  41  41  40  38  39  42  43  44  46  51  50  48  46  50  46  38  35  34  29  25  23  23  26  29  27  25  30  34  39  47  48  56  58  63  66  68  74  83  89  93 103 110 109 111 104 105 102  99 104 109
 110 120 125 127 113 126 128 127 127 127 131 130 128 128 130 130 128 124 118  96  65  52  49  56  67  64  60  57  52  51  47  40  36  35  36  40  35  35  35  35  35  37  34  35  34  33  32  35  40  43  46  48  46  43  39  37  35  30  30  28  28  24  23  22  21  27  27  29  33  36  40  49  53  60  63  60  61  64  71  76  76  82  88  95  98  98  81  78  86  97 110 118
 113 122 127 127 114 127 129 128 130 130 128 129 130 131 130 131 128 119 102  72  59  60  59  60  60  58  53  50  49  46  44  39  35  35  35  35  32  32  32  30  32  31  31  33  34  37  40  40  45  47  46  49  48  43  33  26  24  26  27  26  20  18  20  19  20  24  28  27  31  37  43  54  58  57  52  55  61  65  66  66  78  83  87  87  87  75  76  95 114 118 123 126
 115 122 126 125 114 128 129 129 130 129 131 128 130 130 129 129 123 109  81  66  66  53  51  53  56  50  48  51  54  49  45  40  36  34  34  33  30  30  33  32  33  33  35  36  37  38  37  41  42  45  48  56  59  59  50  49  41  29  24  25  23  20  20  19  19  24  26  25  30  38  48  54  50  45  45  50  54  56  62  69  76  82  94  93  89  85  91 102 106 109 109 114
 118 123 128 127 115 129 130 128 129 130 131 130 130 126 127 124 114  90  68  60  50  50  48  49  52  47  52  54  55  53  48  42  37  34  34  31  30  33  33  33  33  34  36  35  36  36  38  39  41  44  47  51  52  54  54  50  40  32  27  24  24  20  19  17  22  25  27  29  33  38  45  40  37  37  42  44  48  55  70  72  69  71  76  76  77  80  91 101 105 116 115 112
 119 124 127 122 116 127 129 129 130 130 130 130 129 127 124 122 104  67  52  49  48  48  47  43  45  50  52  51  53  50  44  38  37  35  36  34  32  32  34  33  33  32  32  33  36  39  41  43  43  52  62  66  59  49  44  36  31  30  29  26  24  22  19  21  23  24  25  26  32  36  30  28  31  33  35  40  47  50  57  61  67  67  63  60  63  76  87  98 107 110 119 124
 122 124 127 122 120 128 129 129 130 132 130 130 131 128 127 116  74  52  46  46  44  42  41  40  44  47  50  59  55  45  38  35  38  36  34  31  31  31  31  32  32  33  33  33  34  34  35  37  39  43  51  52  48  44  40  36  30  27  26  27  25  27  25  20  21  23  22  27  26  23  23  26  27  31  34  38  40  42  48  48  49  54  54  56  62  69  84  96 113 123 131 134
 123 126 127 116 123 128 130 131 130 130 130 130 131 130 125  98  61  48  44  40  36  35  39  41  44  51  57  54  44  35  29  29  28  28  28  28  28  28  33  34  31  30  27  28  31  32  32  35  41  47  50  50  48  41  36  30  26  24  21  24  26  25  20  19  19  22  22  22  20  21  24  26  28  29  34  36  40  45  49  49  49  49  55  66  74  79  94 108 123 130 136 138
 122 126 127 113 124 130 132 132 131 131 130 131 132 130 118  87  57  47  36  35  32  40  45  44  43  50  49  46  39  33  31  29  29  29  28  30  30  31  27  26  27  26  28  29  32  35  39  43  45  50  55  54  49  40  33  28  26  25  23  23  23  24  24  21  21  22  19  21  23  23  24  27  27  32  38  40  46  50  54  50  48  49  64  82  95 106 118 127 137 136 139 140
 125 128 128 114 124 130 131 129 131 131 131 133 132 128 118  84  59  40  36  35  34  37  38  39  40  45  44  42  34  27  25  27  28  30  32  30  26  25  27  28  31  33  34  34  33  34  34  37  40  43  42  37  30  27  25  27  28  26  26  26  26  24  26  25  25  24  25  24  22  24  25  25  28  34  38  47  55  58  57  52  52  55  60  78 104 116 126 131 134 136 140 142
 126 129 128 110 129 130 130 130 132 132 133 133 130 127 113  79  48  33  32  32  32  34  34  35  39  40  40  27  18  17  21  24  28  29  29  28  30  30  29  30  31  31  31  32  34  33  33  32  31  30  28  27  28  27  30  30  30  31  29  30  30  29  32  34  32  30  28  29  28  29  28  30  30  31  36  41  52  56  54  56  52  54  54  67  88 106 126 133 140 142 143 144
 127 129 128 113 129 131 131 132 133 132 132 133 133 129 110  69  41  34  30  26  31  35  34  34  36  34  29  22  17  20  18  20  21  20  22  22  25  24  26  27  28  30  31  27  28  27  25  26  26  28  29  30  31  31  36  38  40  40  41  41  40  42  43  47  43  44  39  37  35  32  30  30  32  35  38  41  44  44  44  48  54  56  59  60  68  90 125 137 140 143 144 144
 128 128 129 111 129 132 133 132 132 131 132 133 133 125 106  55  38  29  24  27  33  34  31  30  32  31  23  17  15  15  16  17  20  19  21  23  26  25  27  28  27  28  29  27  28  26  28  26  28  31  33  34  34  37  41  43  46  48  50  53  53  55  58  59  56  57  53  50  45  44  35  31  29  32  33  36  40  40  42  45  50  54  51  53  63  79 114 139 145 145 145 144
 128 129 129 111 130 130 133 133 133 132 134 133 132 127  85  49  36  27  25  31  31  31  30  28  31  27  20  17  17  18  19  22  23  24  27  27  28  29  31  32  31  31  32  31  32  31  32  32  34  35  36  38  40  43  45  47  50  56  58  60  64  66  70  70  68  72  68  62  57  53  47  37  29  27  26  29  29  32  35  39  49  53  50  49  62  87 114 137 145 145 146 147
 130 131 130 107 132 132 134 133 132 133 133 133 135 121  84  45  36  29  27  32  30  33  30  31  29  23  18  18  20  22  25  26  28  29  31  32  34  34  33  33  33  34  33  34  35  38  36  35  39  39  40  43  44  48  51  53  58  62  68  68  70  77  80  82  80  80  80  75  67  62  56  48  36  29  26  26  27  29  31  34  44  54  52  51  57  80 123 139 144 147 148 150
 131 130 128 114 132 132 135 134 134 133 133 134 133 123  84  49  37  32  29  32  32  37  32  30  28  22  19  22  25  26  28  30  32  34  35  37  37  39  40  37  37  38  38  37  39  39  40  42  43  43  44  47  49  53  56  60  65  69  75  74  77  84  86  88  88  88  87  86  78  69  69  59  47  34  26  27  28  31  31  35  42  50  53  56  57  73 124 146 147 147 149 151
 130 132 126 116 133 133 133 133 134 133 135 136 134 128  91  51  43  32  29  30  35  32  29  30  25  21  21  25  28  30  32  36  39  39  41  44  42  42  42  42  41  41  42  42  42  43  45  45  47  48  48  52  53  58  60  66  73  76  80  78  82  87  91  92  91  90  89  90  84  77  75  70  59  42  29  28  28  31  31  35  39  44  50  54  58  80 122 142 147 151 150 155
 132 133 124 123 133 134 134 135 135 136 134 135 136 130  83  53  42  32  26  30  32  30  32  28  23  23  25  28  31  34  37  39  42  44  44  47  50  48  47  49  46  46  46  47  47  48  50  53  53  55  56  55  59  63  69  75  76  83  82  80  86  91  92  93  95  92  96  92  87  81  79  78  68  51  33  26  29  29  32  34  36  43  53  62  65  84 122 143 150 153 152 156
 136 139 126 130 135 135 134 136 136 136 136 136 136 132  66  49  38  30  24  25  30  31  30  26  23  27  30  33  38  40  42  45  46  49  50  53  53  52  53  52  51  51  51  53  52  53  53  58  56  58  61  63  65  68  76  83  83  87  86  84  88  93  97  95  98  96  96  95  92  86  83  85  80  67  43  28  27  29  31  32  35  40  50  63  77  94 122 145 150 154 155 157
 139 143 129 148 143 137 136 138 138 136 137 135 134 125  56  47  38  29  23  26  28  26  29  26  23  29  34  37  41  45  46  50  51  51  55  59  58  58  58  54  54  58  58  56  58  59  60  61  62  62  65  68  70  74  80  85  86  89  88  88  88  95 100  97  97  97  98  98  97  90  86  86  86  73  53  31  28  27  30  31  36  37  46  61  81 106 130 146 152 154 157 158
 140 144 121 149 148 141 138 136 136 136 138 138 136 120  55  44  36  27  21  25  28  23  29  26  27  34  40  42  44  48  50  50  58  58  61  62  61  61  61  60  62  62  62  61  62  65  65  67  67  66  68  70  76  78  82  85  87  89  88  88  88  92  94  88  91  96  99 101 100  93  87  87  89  81  63  37  29  27  28  30  34  37  42  59  85 115 135 150 154 156 157 160
 142 144 120 148 148 143 140 137 137 136 139 137 137 128  62  43  33  25  22  26  25  24  27  25  30  39  43  47  48  51  54  57  61  61  65  65  65  65  65  65  67  66  66  65  67  68  69  69  70  69  71  73  77  81  84  85  89  89  87  86  86  90  93  87  91  97  96  97  97  91  90  91  92  86  71  45  31  26  26  28  31  34  41  56  95 128 140 152 156 157 159 158
 144 144 119 146 149 147 142 140 138 137 138 137 140 132  65  41  33  24  23  24  24  24  26  26  33  44  49  50  54  55  58  64  65  65  66  68  66  67  66  67  68  69  69  67  67  71  70  71  74  70  72  76  76  82  84  84  85  86  85  84  84  86  87  86  91  96  96  96  96  93  91  95  95  93  81  54  33  27  26  27  31  34  41  61 112 143 153 155 158 158 162 162
 144 142 120 145 149 152 147 143 140 140 138 141 139 136  63  38  32  25  23  20  24  23  26  29  39  53  59  58  58  61  63  65  66  66  66  67  67  68  68  68  67  68  69  69  68  72  71  71  71  72  74  76  78  80  83  84  84  84  82  82  84  86  90  88  87  90  93  97  96  93  92  95  99  98  85  60  36  29  26  26  30  35  40  57 123 150 157 158 160 161 163 164
 145 145 118 146 149 152 151 146 141 140 139 142 140 136  59  37  34  26  23  22  23  26  27  31  48  64  64  62  62  63  63  66  68  68  66  68  68  69  71  70  70  72  70  69  69  71  70  71  72  74  74  78  80  80  82  83  82  85  84  86  86  85  87  88  89  92  92  94  96  92  94  95 100  99  90  66  39  28  26  28  31  34  44  62 120 154 158 160 161 163 164 166
 148 146 123 148 152 153 154 149 144 143 141 141 142 139  60  35  35  29  22  22  23  27  29  35  55  66  68  67  65  66  65  66  66  67  67  69  69  70  74  72  72  72  69  68  69  71  72  74  74  76  76  82  82  81  80  80  81  84  84  85  84  86  88  88  89  91  93  95  93  93  94  95  99 101  93  68  44  31  29  28  30  37  51  86 139 155 160 162 162 163 165 168
 148 147 122 150 151 151 151 152 149 144 142 142 141 138  54  34  37  29  22  22  24  25  29  39  58  67  74  69  68  68  67  66  67  70  72  72  71  71  72  74  75  74  72  69  72  74  78  79  79  78  79  83  84  84  82  83  82  84  87  87  87  87  89  91  92  93  94  96  95  98  98  97  97 100  97  73  45  32  31  30  31  40  62 112 151 159 163 162 164 163 167 168
 148 145 123 151 150 151 150 152 152 148 143 144 143 138  70  38  39  26  24  23  24  28  33  43  62  74  81  78  75  73  70  70  70  72  72  72  70  73  75  73  75  74  74  74  76  78  81  82  81  78  81  87  90  87  84  83  84  88  90  92  92  90  94  98  96  97  96  97  95  98 101 100 101 102  97  75  47  34  31  32  32  44  66 122 158 164 167 167 167 168 169 170
 147 139 129 149 148 150 151 150 151 149 146 145 143 139  88  37  37  26  26  24  26  30  36  47  65  78  85  87  82  78  76  75  72  71  74  74  72  74  75  77  77  78  78  79  80  81  83  84  80  78  80  88  95  91  83  82  84  91  93  95  97  95  97 101 101 103 102 101 100 102 108 105 103 105  98  77  52  34  34  35  35  47  73 131 160 167 168 168 168 169 168 170
 146 128 137 147 147 148 148 149 149 147 147 144 143 142 107  37  33  27  27  24  30  32  39  49  65  79  90  93  89  84  81  80  76  75  75  77  74  75  75  78  80  79  81  80  83  85  86  86  83  76  82  90  97  93  85  81  84  92  97  99  96  96  96 100 104 104 105 105 106 106 109 110 109 110 102  77  51  35  36  40  39  52  82 141 164 168 169 169 170 169 171 172
 145 114 143 146 146 146 147 147 146 147 147 146 145 142 105  40  32  29  28  27  30  33  37  49  66  81  90  97  94  91  87  86  82  80  77  75  77  76  80  80  82  81  81  81  85  87  89  92  84  76  80  93 101  97  85  81  86  94 100  98  92  93  95 100 101 104 107 106 106 108 111 112 110 111 107  80  52  38  38  44  43  51  95 148 167 171 170 170 172 172 172 173
 144 118 144 144 146 147 147 146 147 147 147 146 144 142  88  40  33  28  28  30  32  34  37  50  70  84  92  98  99 100  98  90  86  82  81  80  79  80  81  83  81  81  80  80  86  88  90  92  87  72  77  93 103 101  84  81  88  97  99 100  94  92  95 100 101 103 105 108 109 112 116 117 116 117 109  86  53  44  44  50  50  52 111 159 170 170 172 172 173 173 174 175
 145 118 146 146 146 148 147 149 149 149 147 147 147 141  77  43  31  29  28  31  34  34  40  51  74  86  96  98 103 105 103  97  90  87  84  82  78  80  81  81  78  81  80  80  82  86  90  93  88  72  78  90 101 100  83  79  88  98 102  99  91  91  94  97 103 102 105 108 110 111 117 119 120 120 116  95  57  48  51  53  61  78 108 165 170 173 174 176 174 176 175 176
 144 117 147 147 147 148 148 149 150 149 148 148 147 139  83  38  32  29  28  31  32  33  42  58  79  92  99 105 107 111 110 101  94  88  87  82  81  81  80  79  79  79  77  79  81  85  89  93  88  70  77  89 101  98  79  75  85  95 101  97  93  91  93  95  98 101 101 106 108 111 119 123 122 125 121 103  58  50  50  49  65 112 142 166 173 173 177 175 174 176 176 177
 146 124 147 149 148 149 148 149 151 149 149 150 148 143  87  38  33  30  28  30  34  37  50  67  86  95 102 108 112 113 113 104  98  92  87  81  79  78  79  79  77  77  75  76  80  86  90  96  86  63  73  85  98  98  78  74  84  95  98  96  90  89  91  92  93  98 102 106 112 116 121 125 126 128 128 114  64  51  52  50  69 130 165 172 173 175 177 176 176 178 177 177
 147 125 149 151 152 151 151 150 151 151 151 150 150 147 106  39  32  31  30  30  33  42  61  77  95  99 107 111 114 114 116 109 102  96  90  84  80  77  77  77  78  77  77  72  76  82  88  93  84  59  71  83  91  95  76  74  83  92  94  92  89  88  91  92  90  92  99 104 110 116 119 125 130 130 131 123  62  47  50  55  98 148 170 174 175 177 177 176 178 179 179 179
 149 121 150 152 151 153 154 152 152 152 153 153 152 151 123  37  32  32  30  28  31  52  73  90 102 109 114 114 116 117 115 109 103 100  91  86  80  78  76  77  78  80  77  70  76  81  85  90  83  54  70  84  91  94  70  69  80  88  91  89  87  86  90  91  88  90  97 104 110 114 118 124 128 136 134 133  62  45  47  58 109 163 173 177 178 177 178 179 181 181 180 180
 145 125 152 154 152 152 153 153 153 153 152 153 152 151 133  44  30  32  31  25  32  61  85  99 107 112 113 113 111 111 106  98  96  95  89  87  81  80  80  83  85  83  76  72  73  77  83  88  78  52  68  81  88  92  65  66  76  84  88  89  91  87  89  95  92  92 100 104 111 115 114 119 126 134 139 134  65  41  47  65 118 164 176 177 178 180 180 180 182 182 184 183
 143 129 153 153 153 154 154 154 154 154 153 155 154 152 137  44  31  31  32  25  32  71  93 102 110 112 107 109 108 104 100  93  94  95  94  95  89  85  90  96  88  80  75  74  76  76  77  79  73  51  67  79  86  86  64  65  71  76  81  90  97  98  95 102 102  97 101 103 102 101 101 101 115 129 135 140  75  43  50  76 139 161 176 178 181 181 183 183 184 183 185 185
 135 136 154 155 154 156 155 154 154 155 155 154 154 153 131  48  32  30  32  28  34  80  94 101 104 104  98  95  97  90  76  73  73  74  78  80  80  81  87  87  79  77  76  76  76  71  74  76  69  48  68  76  81  81  61  61  65  70  69  72  88  97 105 102  98  87  78  79  76  74  75  76  79  94 102 110  77  43  51  94 147 171 179 181 181 184 184 183 186 185 186 187
 132 146 155 156 156 157 156 157 158 156 157 157 156 155 132  57  35  29  30  28  34  82  96 104 100  83  70  65  63  58  53  48  45  45  47  50  56  60  63  63  65  67  64  63  65  64  66  71  63  49  65  74  79  78  59  57  59  65  58  55  62  71  80  79  76  64  59  56  55  54  57  62  63  68  76  84  78  50  59 120 159 175 181 183 184 185 186 186 186 187 187 187
 126 154 157 158 158 159 158 159 158 159 159 159 157 157 147  87  38  29  27  29  42  88  96  99  80  63  54  51  50  43  38  37  38  35  36  39  38  42  40  43  46  49  45  47  54  52  56  65  57  50  65  73  80  75  57  54  56  53  50  43  42  46  46  49  49  49  46  42  44  45  50  56  60  65  80  90  87  62  76 148 173 180 183 183 186 185 187 186 188 190 188 189
 128 158 159 158 160 160 160 161 160 161 161 160 160 159 154 125  48  34  29  31  49  91  94  83  72  62  59  56  56  49  43  35  33  31  32  31  31  31  30  31  32  36  35  37  40  44  50  57  51  53  64  71  78  76  58  54  54  51  45  37  32  30  32  34  34  35  33  36  40  45  52  63  75  86 100 108 104  62 110 168 180 184 184 186 188 187 187 188 189 192 190 192
 128 161 160 161 162 160 160 162 162 161 161 161 160 157 138 113  61  40  33  32  56  92  95  92  88  75  68  67  67  60  55  49  44  38  32  31  29  25  26  26  27  28  30  30  34  40  48  50  47  56  66  71  76  80  61  55  55  49  40  36  28  25  24  26  26  29  31  35  42  51  64  77  90 100 111 119 117  56 149 177 178 183 186 187 188 189 189 191 190 191 191 192
 127 162 161 161 163 161 162 161 163 163 162 161 162 154 120 111  79  45  38  34  59  93  99  96  87  81  78  72  67  64  56  50  44  34  29  28  27  28  28  28  27  26  31  36  41  45  48  49  52  61  64  70  75  81  70  61  58  52  44  33  28  26  23  21  23  26  37  41  39  40  45  63  78  97 115 131 139  62 141 159 147 179 187 189 189 191 192 191 192 192 193 195
 127 162 164 162 164 164 165 164 164 163 163 163 164 144  77  91  90  60  43  36  66  94 100  97  89  83  77  64  48  42  30  25  24  19  22  24  35  34  32  32  32  30  32  42  45  47  49  53  57  62  66  69  76  80  72  65  61  52  39  30  27  22  18  18  19  23  50  75  71  61  44  43  70  77 108 131 147  76 114 100  92 175 188 190 192 192 192 193 193 195 196 198
 132 165 167 165 164 166 166 165 165 164 164 165 162 138  70  64  85  73  45  39  76  97 103  98  89  82  65  47  40  29  32  23  23  21  21  23  46  59  55  45  32  33  32  35  44  47  50  54  58  64  69  73  74  75  71  68  60  46  36  30  28  20  19  22  25  26  36  78  84  83  91  60  52  75 104 133 146  89  99  96  90 178 187 192 194 194 196 196 197 198 198 199
 133 167 167 167 165 166 166 166 164 165 166 166 165 140  67  58  75  78  51  42  80 100 106 102  92  79  60  44  34  42  66  27  25  22  25  30  45  74  72  63  47  33  35  35  40  45  48  52  59  68  72  81  77  74  73  66  58  42  35  30  30  22  21  21  23  29  39  75  85  93 107  75  70  68  99 135 149 100  99  85  98 184 190 193 196 197 197 198 199 200 201 201
 135 167 167 168 168 168 168 168 167 167 167 168 166 153  67  61  84  80  59  45  81  99 105 103  97  85  61  50  52  47  64  41  25  24  20  29  50  78  74  61  52  39  34  35  40  44  48  53  62  70  76  83  80  75  74  69  55  44  33  31  31  26  22  24  24  30  47  84  98 100  82  67  82  87 111 141 154 109  95  76 121 187 192 194 198 199 199 200 201 202 201 202
 147 168 170 169 170 170 169 169 168 168 167 167 167 164  90  64  97  90  53  46  87  99 106 106 103  95  86  80  70  59  52  43  31  25  25  32  70  75  68  52  38  34  33  35  42  45  50  57  64  73  81  88  86  81  79  73  60  49  43  36  33  34  28  25  27  43  69  79  79  70  64  87 100 112 133 147 155 116  78  75 152 189 194 199 199 201 199 202 203 204 204 205
 156 171 173 172 172 172 171 170 168 168 169 169 170 166 137  67 101  86  50  48  88 100 102 111 109 106 105  99  88  69  52  51  42  33  36  54  58  53  48  43  42  43  43  41  44  49  54  61  68  77  86  91  91  88  84  76  65  56  48  46  41  42  41  42  46  52  54  58  62  63  79 101 115 138 152 157 157 120  71  84 176 192 196 199 199 202 202 204 202 204 205 206
 169 174 174 174 174 174 173 173 172 171 170 170 169 168 164  94  95  75  51  43  88 103 107 112 114 115 114 107  97  81  65  53  49  46  46  49  50  50  50  47  46  46  43  43  48  53  59  62  70  81  92  99 103  96  86  80  72  64  53  49  48  45  45  46  50  54  55  60  69  82  96 107 128 153 163 164 159 125  73 122 188 194 197 198 202 200 203 204 203 205 202 205
 177 174 174 173 176 174 175 174 171 172 172 172 172 171 169 131  93  70  50  45  87 107 110 111 115 119 118 114 106  90  73  62  57  55  53  53  50  49  49  47  48  46  48  50  56  61  62  64  73  87  98 107 116 108  94  82  76  73  65  57  54  53  51  53  54  58  62  66  75  86  99 114 140 160 168 166 160 126  76 169 191 196 197 199 202 200 202 201 203 204 201 203
 178 176 176 177 176 177 176 175 174 173 173 173 172 171 172 151  96  70  51  46  84 103 109 111 116 120 120 116 109  98  86  71  61  58  56  55  52  52  52  51  53  53  54  59  63  64  64  65  78  98 105 118 128 119 105  90  81  80  75  68  66  63  60  60  63  65  68  74  79  89 101 123 146 163 170 169 160 122  79 184 193 197 198 199 199 199 201 201 202 204 204 204
 175 174 176 176 176 177 177 176 174 174 173 174 173 173 172 170 111  70  53  47  86 104 111 113 116 117 119 114 109 103  94  82  71  65  63  62  59  59  59  58  59  60  63  66  68  66  65  68  82 104 115 127 140 129 114  96  85  84  82  80  74  71  67  67  69  70  75  79  85  97 115 136 153 164 170 168 161 123  90 189 196 198 199 199 199 202 204 203 202 204 204 206
 174 176 177 176 176 176 175 175 174 174 174 174 173 173 173 171 128  78  55  47  82 103 108 111 116 115 115 112 109 102  95  86  79  71  67  66  62  61  62  63  65  67  71  70  69  67  66  72  85 109 119 131 147 131 120 107  90  86  85  87  86  82  76  76  74  74  78  82  90 103 121 140 155 163 167 166 161 122 108 189 196 197 199 200 201 203 203 204 203 206 206 206
 175 176 177 177 175 176 176 176 174 174 174 173 173 173 173 172 144  99  84  49  78 104 107 109 112 114 112 108 106  99  96  91  83  75  69  68  67  65  67  70  72  72  72  72  70  67  70  78  90 112 125 136 151 134 127 117  98  93  90  87  89  87  87  84  81  80  83  85  94 111 128 142 152 157 159 159 160 123 136 192 198 199 200 200 202 203 202 204 205 206 206 207
 175 176 176 177 178 175 176 176 174 174 174 176 174 174 174 174 169 112 106  47  75 100 105 105 106 108 105 105 106 102  98  95  87  80  76  74  71  71  72  76  75  72  74  72  71  68  72  81  95 116 126 141 157 141 135 126 108  98  94  88  90  90  91  91  89  88  89  93 103 116 128 137 143 146 147 154 156 128 176 194 197 199 199 201 204 204 203 205 206 206 205 206
 176 178 177 177 176 176 177 177 177 176 177 176 177 174 175 175 174 141 108  53  69 102 103 104 102 102 100 102 100 100  98  94  92  89  87  84  82  76  76  76  76  73  75  73  73  74  77  89 100 117 125 140 157 146 140 134 114 101  94  92  91  90  91  93  94  96  96 102 110 120 127 130 136 139 142 147 154 157 191 197 201 200 202 204 203 204 206 205 206 207 206 208
 176 176 177 177 177 177 177 176 176 176 177 176 176 176 176 176 175 165 121  73  73 100 102 102  98  97  96  98  94  95  91  89  89  87  88  88  87  83  79  78  76  78  76  75  77  78  86  96 105 119 124 135 152 148 144 138 121 106  97  93  92  91  93  95  98 102 104 109 112 118 119 121 127 134 134 139 155 180 197 201 203 201 201 205 205 207 206 206 207 207 208 208
 178 177 179 179 178 179 178 177 176 176 177 177 177 176 177 177 176 172 126 104  90  98 101 102  94  94  92  92  90  90  89  88  90  95  98  97  94  92  85  84  79  80  79  78  80  82  94 103 110 125 127 136 150 148 147 145 128 109  98  94  92  93  94  98 102 106 112 116 121 118 119 122 125 130 130 128 162 190 199 200 202 203 204 204 205 206 207 208 208 209 209 209
 180 179 180 178 179 179 178 177 177 178 178 177 178 177 177 177 178 174 123 105  93  94 102 100  89  90  87  89  89  90  91  93  98  99  98 101  98  94  91  89  84  81  76  77  80  88  98 109 121 133 129 136 153 155 150 150 134 112  98  93  91  94  97 102 106 113 121 123 128 130 128 129 129 132 130 132 166 194 201 203 203 205 206 207 206 207 208 209 208 209 208 210
 179 180 181 181 179 181 180 180 179 178 180 180 178 177 180 178 178 176 150  90  82  90  98 101  92  90  87  86  89  93  93  94 100 103 106 105 102 100  95  90  85  81  76  75  81  93 103 117 129 136 131 140 158 158 154 155 142 117  96  92  92  94 101 106 111 117 123 129 130 133 135 136 136 131 129 140 172 196 200 203 205 206 207 206 208 208 209 208 208 209 210 211
 181 182 180 181 180 181 180 181 182 181 181 180 180 180 180 180 178 177 175 164 127  92  96  99  94  89  87  87  89  96  96  99 101  99 104 104 104  99  99  88  84  76  70  72  86 100 112 125 134 133 131 140 156 166 163 162 153 127  95  86  91  92  99 106 111 120 127 132 135 132 134 133 135 137 136 144 176 197 202 205 206 206 206 208 208 209 211 210 210 211 211 213
 183 182 182 183 181 181 182 182 182 182 181 181 181 183 182 181 181 178 179 178 167  93  94  97  94  89  87  89  90  97  98  99  99 100 100 101  96  94  94  84  78  71  66  77  97 108 118 132 145 136 135 139 152 162 166 165 159 144 100  84  87  93 102 108 115 121 128 132 134 135 137 135 135 136 137 149 184 198 205 205 207 207 207 207 210 210 210 212 212 212 213 211
 182 182 183 182 182 182 182 182 182 182 182 183 182 182 181 181 182 181 181 180 176 100  91  95  95  91  89  90  91  96  97  96 101  98 100  98  96  94  85  81  75  67  68  92 109 120 126 136 142 132 132 136 146 156 163 168 164 156 130  80  83  89 100 108 116 121 127 131 135 137 136 135 139 137 138 152 191 201 204 206 207 207 208 209 210 210 209 211 212 212 212 212
 182 183 184 183 182 182 182 182 181 183 182 182 183 182 182 181 183 182 180 179 178 119  90  90  92  88  92  91  94  97  96  97  98 100  97  97  95  81  78  78  72  66  74 105 115 124 129 132 129 125 124 128 134 146 154 158 163 165 157 104  83  88  96 105 116 121 125 130 136 136 134 132 138 136 137 161 198 204 205 206 206 207 208 209 210 209 210 211 212 211 211 212
 185 184 182 184 185 185 183 183 183 184 182 182 182 183 182 182 182 182 183 181 177 133  88  88  91  89  90  91  94  97  96  98  98  99  99  96  90  82  77  74  70  70  80 109 112 117 124 122 118 114 114 122 126 133 140 148 157 164 163 144  87  86  94 105 112 121 123 124 132 136 136 134 137 135 136 171 198 203 205 206 207 207 208 209 209 209 210 212 212 212 212 211
 185 183 184 185 184 184 184 183 184 184 183 183 182 182 183 183 184 183 183 182 180 152  87  85  87  92  95  95  96  96  95  97  97  99  96  94  88  86  78  74  73  73  86  99 103 106 109 112 109 106 104 110 113 123 130 137 146 154 152 144 102  91  93  99 109 117 123 122 127 132 136 134 135 136 138 179 200 205 205 207 207 207 209 208 209 210 210 211 211 212 213 214
 183 184 185 186 184 185 184 184 185 183 184 184 183 183 184 184 184 182 182 182 182 169  95  83  86  91  94  97  97  98  96  97  96  98  97  92  87  81  79  78  80  77  78  84  82  88  92  97  98  96  92  95 101 108 116 123 131 134 124 119 109 105 100 104 110 114 124 124 127 133 137 138 136 134 143 185 203 205 207 207 207 208 208 210 209 211 213 212 212 213 213 214
 185 185 186 186 185 186 185 184 184 186 186 184 183 185 184 184 185 184 183 183 181 176 114  85  84  90  92  95  96  96  96  92  97  95  93  91  86  83  82  85  90  85  72  72  62  54  62  72  80  82  83  84  88  94  97 102 107  92  87 105 115 120 113 106 112 116 122 126 125 131 135 137 136 133 147 192 205 205 208 208 208 209 210 210 210 210 212 211 212 214 214 214
 186 186 186 184 185 186 186 187 186 186 186 186 186 186 186 184 184 184 184 183 182 177 131  85  84  89  89  92  94  95  95  94  92  94  92  89  88  84  85  95  98  93  82  71  57  50  50  57  67  70  74  75  78  82  87  92  77  66  93 118 127 129 126 117 113 116 121 126 122 127 134 135 134 133 163 199 207 206 208 210 209 209 210 211 210 212 212 212 214 213 214 215
 185 188 188 186 186 188 186 187 187 185 185 185 185 185 185 185 185 184 184 182 182 179 156  92  84  86  89  91  94  93  92  91  91  91  91  92  88  88  93 100 102  98  92  84  67  51  51  53  57  66  69  71  73  78  84  74  59  65 107 130 135 135 132 126 121 121 122 124 125 126 132 132 131 131 179 203 207 209 209 211 210 210 210 211 212 212 213 213 214 212 214 214
 186 188 186 186 186 188 187 186 185 185 184 184 184 183 184 184 184 184 185 183 181 181 172  94  85  83  85  89  91  89  90  88  90  90  93  94  90  95  99 102 100  97  96  92  90  72  56  51  54  57  65  71  72  72  68  63  65  81 119 132 138 139 137 132 124 122 123 125 125 126 132 128 126 134 190 205 207 208 209 210 209 211 211 212 211 211 213 214 214 214 215 215
 188 186 187 185 188 187 186 185 185 184 184 183 184 184 185 185 184 183 183 183 183 181 176 118  88  83  81  87  88  86  87  89  92  93  96  94  93  98 100 101  97  94  91  90  91  87  70  52  54  57  58  62  60  63  64  67  75 100 125 132 138 142 139 141 133 127 125 124 125 120 125 124 120 146 196 206 207 206 208 211 210 210 211 212 212 212 214 213 214 214 215 216
 187 188 189 188 187 187 187 187 186 185 184 183 185 183 184 184 183 183 183 183 183 182 179 132  90  83  82  86  87  87  86  88  89  95  94  94  96  98  98  96  94  90  87  88  87  90  84  70  63  61  61  60  62  66  66  72  92 114 130 132 136 138 137 141 137 130 128 127 126 123 120 117 119 162 200 207 207 207 208 209 210 209 210 212 212 212 212 213 214 215 215 216
 189 188 189 187 187 186 186 188 186 186 185 184 185 183 185 184 184 183 183 183 182 182 180 157  90  82  81  83  86  86  86  86  88  93  94  92  93  92  93  91  88  87  85  87  85  87  86  76  64  64  62  58  61  66  68  83 104 120 131 133 134 134 134 134 131 129 128 127 125 123 116 111 122 178 203 207 207 208 207 208 210 209 210 211 211 212 214 214 215 215 214 214
 188 188 188 188 188 188 186 187 186 185 185 185 186 185 185 184 183 183 183 184 184 184 182 175 100  84  80  80  82  82  85  87  90  93  92  92  89  88  88  86  83  82  81  85  84  81  82  72  68  66  61  54  58  67  75  92 106 119 126 132 131 130 130 125 125 127 126 128 124 121 115 114 124 189 203 206 207 208 208 208 208 209 211 213 213 212 213 214 215 215 215 215
 188 188 187 187 188 187 188 187 185 184 185 184 185 184 184 183 184 183 183 184 185 184 184 178 125  88  79  75  80  81  84  86  88  89  88  87  85  84  84  80  78  81  81  84  82  79  78  72  69  64  56  49  53  67  82  93 103 112 117 123 124 120 120 119 118 120 123 126 125 120 114 115 147 195 204 205 207 208 208 208 209 209 210 210 213 212 212 214 213 214 215 216
 187 187 188 187 187 188 185 185 185 185 184 185 184 185 184 184 184 184 183 183 183 183 184 181 154  89  77  70  71  78  82  84  85  85  83  80  77  77  76  72  72  78  82  84  81  82  83  76  69  63  50  44  50  72  94 107 107 109 111 109 106 103 112 113 111 115 115 121 120 116 111 115 163 199 204 206 207 209 208 209 209 210 211 211 213 214 213 214 214 214 214 215
 189 188 188 186 186 186 186 186 185 184 184 184 185 184 184 184 184 184 183 184 183 183 183 182 172  88  79  71  69  74  79  84  81  80  80  74  71  70  68  70  67  71  74  78  79  83  86  86  82  70  60  47  63  88 104 112 111 110 109 101  91  92 100 104 108 112 112 116 119 115 110 113 184 203 204 206 207 207 208 208 209 210 211 211 212 213 213 214 214 214 214 215
 188 186 188 185 184 185 183 184 183 185 185 184 184 184 184 184 184 183 183 183 183 184 174 116  69  84  82  71  69  72  75  81  79  73  71  67  65  62  60  62  61  65  72  76  82  84  86  85  83  78  76  67  77  85  93  97 103 102 108 102  89  85  88  91  96 103 107 114 115 112 113 138 193 205 205 206 208 207 208 209 209 210 212 210 212 213 213 214 215 214 214 214
 188 186 185 185 185 185 184 184 185 183 184 184 184 184 184 183 183 183 182 181 167 120  66  55  55  85  80  72  67  71  74  76  76  69  67  62  61  58  55  52  54  60  69  75  75  73  65  61  58  58  66  69  67  60  61  64  68  76  84  88  79  72  72  80  85  92  97 112 113 113 114 166 199 206 205 206 208 208 208 208 209 210 211 212 212 213 214 214 214 214 215 215
 185 186 185 185 185 185 185 184 186 184 185 183 184 184 184 183 182 183 147 104  70  55  47  44  50  83  76  75  68  70  72  72  70  65  64  59  55  51  44  41  39  48  55  54  53  50  49  50  50  48  50  54  54  54  53  56  58  55  52  52  49  47  56  70  77  86  94 106 111 112 114 186 201 205 205 205 207 208 209 208 209 209 211 213 212 212 214 213 214 214 214 216
 186 184 185 184 184 184 186 184 184 184 184 184 183 182 183 160 124  79  66  60  50  42  40  42  42  79  76  74  72  67  70  72  69  63  60  56  52  46  41  42  35  34  36  36  36  32  35  39  40  37  40  43  42  42  42  42  42  42  41  42  46  54  58  68  75  84  94 102 108 109 106 125 163 190 206 206 206 208 209 209 210 210 210 213 213 213 214 214 214 212 214 216
 186 185 185 186 183 184 184 185 184 184 183 182 179 147  98  64  55  54  54  51  37  38  37  38  33  80  74  68  69  68  70  68  64  59  56  51  52  51  52  52  47  44  45  44  41  40  37  37  35  34  35  35  38  37  42  41  45  51  54  56  63  71  71  72  76  85  95 102 107 104  82  87 114 127 150 180 204 208 208 208 209 211 212 211 212 212 212 213 213 214 214 215
 186 185 186 186 186 185 184 184 182 183 158 113  69  59  54  50  47  46  49  42  34  36  37  37  31  81  73  63  63  67  67  67  59  56  57  55  58  58  59  61  61  58  56  58  58  60  57  48  47  47  46  45  49  46  55  56  58  60  69  77  85  83  79  82  81  85  94 102 104  96  83  64  87 111 114 117 129 164 199 211 208 210 211 211 212 213 214 214 213 214 215 215
 186 186 183 184 185 185 184 166 121  77  61  56  51  46  43  42  42  43  42  37  33  35  36  34  35  81  74  64  59  62  68  66  61  57  57  57  58  61  62  62  65  65  64  61  62  60  58  55  54  53  50  51  50  50  58  66  69  71  78  86  89  87  85  88  84  86  90  97  98  88  81  75  60  94 107 108 110 115 122 148 188 209 209 211 211 211 212 214 215 214 216 216
 185 185 183 183 184 148 101  62  53  48  46  44  42  40  40  38  40  41  38  33  32  34  35  30  36  76  74  68  58  56  64  61  59  58  57  57  59  63  64  65  63  60  61  61  59  56  52  54  56  52  49  51  52  54  58  65  71  77  82  85  88  85  86  86  83  86  92  95  88  80  80  78  65  70  96 106 107 105 106 112 122 145 185 209 210 212 213 214 214 215 214 215
 183 186 172 122  70  56  51  46  42  39  38  39  39  38  38  37  38  38  37  31  33  33  34  30  40  74  74  67  61  55  58  58  59  57  54  55  58  58  62  60  62  59  60  58  55  53  53  50  52  50  51  52  53  56  59  66  71  76  80  81  84  83  84  82  81  84  91  90  67  73  75  76  71  58  83  96 104 104 102 104 107 110 120 134 171 204 212 212 214 214 215 216
 142  91  58  55  46  42  37  37  38  37  36  37  37  37  36  37  36  36  36  29  30  33  32  29  45  74  75  70  62  50  49  52  55  55  54  53  52  54  57  58  57  56  57  52  52  51  51  51  51  49  51  53  54  56  62  68  71  71  73  74  79  79  78  77  81  84  87  84  44  65  74  75  74  58  70  86  96 100 100  99 101 101 108 111 118 131 166 200 213 214 214 215
  54  48  44  41  38  37  36  34  36  35  36  37  36  35  36  35  36  33  33  29  30  33  32  28  49  73  74  71  62  55  47  47  50  52  53  50  51  51  52  55  56  56  55  53  52  49  47  46  47  49  53  53  55  59  64  65  70  70  71  72  73  74  73  74  78  82  85 111  48  57  71  72  74  60  63  81  89  94  97  95  95  98 102 104 108 111 121 133 162 201 213 213
  42  39  37  36  36  36  32  33  34  33  34  34  35  33  34  36  36  32  31  29  29  29  30  26  50  71  71  67  63  58  46  41  45  46  49  51  49  51  51  50  52  54  53  54  52  50  50  51  51  52  54  57  57  63  66  67  70  70  69  70  70  71  73  74  73  76  89 126  59  53  69  72  71  66  57  73  85  89  93  93  94  96  96 100 104 106 108 113 116 128 159 196
  36  35  34  32  33  33  31  33  32  32  31  31  32  32  34  35  33  33  31  29  27  29  30  26  53  68  72  69  67  62  56  41  42  42  44  51  49  50  50  50  50  50  51  53  53  53  54  53  54  56  58  61  61  64  64  66  66  69  69  70  71  70  73  73  73  72 114 133  76  49  68  70  71  69  56  67  79  84  89  90  89  91  92  95  96  99 104 106 108 112 117 127
  34  34  32  31  30  31  30  31  30  31  31  31  31  32  32  30  32  32  31  27  28  27  29  25  54  68  70  68  67  64  59  48  39  38  40  47  50  50  52  51  49  50  49  51  52  54  52  54  55  54  54  58  61  65  66  66  67  68  70  71  72  71  73  69  67  88 128 133  85  49  66  70  68  68  54  65  76  81  86  89  85  86  89  89  91  94  99 102 106 107 108 111
  33  31  30  30  29  30  31  31  30  30  32  29  31  32  32  31  33  30  30  27  28  28  29  27  56  65  68  67  66  62  62  58  47  38  37  43  47  48  51  51  51  52  53  53  53  56  56  55  61  59  60  61  61  65  65  68  71  72  73  73  73  72  71  66  74 116 127 131  95  51  65  67  65  66  54  59  70  78  83  85  84  84  85  84  86  91  92  95  98  98 102 107
  32  30  30  29  28  28  28  29  28  28  28  28  30  31  31  32  30  30  30  28  27  28  28  26  53  63  65  65  66  65  61  58  53  43  36  40  43  48  50  49  52  54  53  53  55  56  55  57  59  59  58  61  63  65  67  69  71  74  72  70  74  70  66  63 100 120 127 130 100  51  64  67  67  65  56  63  70  77  81  82  84  84  82  81  83  87  90  91  93  94  97  99
  30  29  29  29  28  29  28  29  29  29  29  29  30  30  31  31  30  31  29  28  26  26  28  25  46  60  63  63  65  63  60  59  54  51  44  38  40  44  51  48  50  54  54  55  54  58  57  55  55  57  61  61  64  64  67  68  70  73  70  69  71  68  60  89 109 118 124 129 102  53  64  67  66  66  55  62  71  74  80  83  84  81  81  80  80  81  84  86  86  89  93  97
  30  30  29  26  28  28  28  29  28  29  29  29  30  29  31  30  29  30  28  26  25  25  27  25  39  56  58  63  61  60  61  58  53  50  48  42  36  40  47  48  50  50  52  53  55  57  56  54  54  55  57  60  60  62  68  69  70  71  68  68  66  60  74 103 110 115 120 122  91  54  64  66  65  63  57  62  71  74  78  82  81  79  80  78  81  80  80  83  84  84  87  92
  27  27  29  28  27  28  29  29  29  28  28  28  28  29  30  29  30  29  28  27  24  23  24  25  33  56  57  60  61  60  60  57  56  52  51  48  40  36  41  45  46  48  49  50  55  57  54  55  56  57  59  60  63  67  67  69  67  65  62  65  62  71  94 103 106 110 114 117  87  57  64  65  63  61  57  64  71  72  76  80  81  80  80  79  77  79  80  82  82  78  83  88
  28  26  25  27  26  28  28  26  29  28  28  29  28  29  30  29  30  29  29  28  24  23  24  24  26  49  56  57  58  58  59  55  54  54  54  49  47  40  37  40  41  40  44  48  50  54  55  57  60  61  62  62  63  65  64  66  60  57  56  58  67  84  93 100 102 106 110 111  73  60  62  60  62  63  58  64  69  70  74  75  79  77  79  77  76  76  77  80  77  79  81  85
  25  25  26  28  27  26  27  29  28  26  27  28  29  29  28  29  29  30  28  27  24  23  23  22  25  37  51  54  55  57  57  56  54  55  54  54  50  48  43  37  37  38  39  43  48  48  51  58  60  58  62  64  60  60  60  56  54  54  55  65  76  84  91  94  96  98 105 101  62  61  60  60  59  60  62  65  67  70  74  76  77  79  76  77  75  75  72  75  73  78  78  82
  25  25  25  25  24  26  26  26  26  26  26  26  28  29  28  28  29  28  29  28  24  23  23  22  24  26  45  49  53  55  55  57  56  56  54  53  54  51  48  45  42  39  36  37  44  44  44  49  52  53  58  57  57  52  50  46  51  56  65  72  75  82  87  88  88  92  98  83  58  60  60  61  59  61  63  68  68  74  74  75  75  76  75  76  78  73  70  70  74  74  76  77
  23  24  24  25  24  24  27  24  25  27  26  27  28  27  25  26  28  28  27  24  22  21  23  22  22  23  31  46  49  53  53  55  55  53  55  55  54  52  51  49  48  46  42  40  40  39  41  44  46  46  47  48  47  46  51  56  65  69  72  75  76  81  82  83  87  88  84  62  58  58  59  60  57  58  64  70  72  73  75  75  74  74  74  74  76  74  73  72  74  75  74  73
  26  24  25  25  24  24  25  24  26  26  26  26  26  26  26  26  26  26  23  24  25  24  22  22  22  22  23  33  45  50  50  51  53  53  55  56  55  52  52  53  53  53  51  50  47  45  44  43  44  46  48  52  53  58  65  68  71  71  74  74  75  78  78  79  81  82  64  57  57  57  56  56  55  58  66  70  74  74  77  76  76  73  74  72  74  75  74  75  74  72  71  73
  23  22  23  24  24  23  25  25  24  25  25  25  26  25  25  25  25  23  24  27  26  23  22  22  22  21  21  22  35  47  49  51  52  54  54  56  55  54  53  54  55  55  54  55  55  55  56  57  58  57  62  64  65  67  68  70  70  71  71  72  74  77  73  72  70  58  50  55  56  57  56  54  52  61  67  70  74  73  75  71  74  73  74  72  72  70  71  71  72  73  69  70
  24  24  22  24  23  24  25  24  24  24  26  23  26  27  27  24  23  24  28  27  28  25  22  22  22  22  22  22  23  36  47  50  52  52  53  54  55  53  54  54  55  56  54  56  58  59  59  61  62  63  64  64  66  65  68  68  71  72  71  72  73  72  70  66  52  49  50  51  53  53  56  54  53  63  69  72  74  74  75  72  73  74  74  71  71  73  70  71  69  72  71  70
  24  23  25  22  22  24  24  24  24  24  24  24  23  23  24  21  24  28  27  27  27  25  24  22  22  21  21  21  22  23  35  48  50  50  52  54  54  55  54  56  53  55  56  56  59  60  59  60  61  62  64  66  68  67  67  69  71  71  70  70  68  64  57  45  47  49  49  48  52  53  53  54  61  52  63  69  71  73  74  72  74  74  72  71  71  71  67  70  70  66  68  71
  23  24  24  22  22  23  24  25  25  23  23  25  23  20  21  25  27  26  26  26  25  25  24  21  22  21  22  20  20  23  24  33  48  50  53  52  54  55  54  54  53  54  57  55  59  62  62  60  63  64  64  67  68  68  70  69  68  70  70  66  58  48  38  42  47  48  48  48  50  52  53  62  78  74  47  58  66  71  74  75  74  75  73  71  70  68  69  68  69  67  67  69
