P2
# Generated by OpenCV 3.4.0
92 112
255
  83 103 110 113 107 110 113 114 116 115 114 115 114 114 112 108  89  69  64  62  61  54  48  47  47  46  47  45  42  42  40  40  44  44  56  68  66  57  54  48  47  41  38  39  37  30  24  27  22  28  30  30  29  41  48  43  45  47  48  46  44  45  49  48  48  50  57  61  70  75  73  66  71  85 103 112 111 114 112 117 117 113 115 120 124 124 124 125 125 126 124 125
  94 105 111 112 102 113 115 115 115 116 115 116 114 112 106  90  70  62  59  60  55  51  49  49  50  47  45  42  41  37  37  34  38  41  46  50  58  49  47  41  39  35  30  27  27  28  25  25  23  28  27  27  43  52  48  45  44  46  45  42  43  43  40  42  44  57  64  61  58  56  59  64  82  96 103  99  99 106 113 113 105 109 116 121 123 125 125 126 126 126 126 126
  92 108 111 112 102 116 115 115 117 117 116 114 114 112  94  59  60  64  61  56  52  48  48  47  44  40  38  35  34  34  34  34  34  38  41  43  46  42  39  32  28  28  28  24  22  20  24  23  24  25  30  47  49  43  44  41  42  41  40  35  37  36  37  41  43  48  50  51  53  58  62  72  81  80  85  96 104 102  98  98 111 122 123 125 127 126 126 126 126 127 127 126
  97 108 112 112 100 115 116 115 116 117 114 116 114  95  65  59  62  60  52  44  40  37  35  35  33  33  32  30  30  31  34  34  36  36  42  45  47  45  37  31  28  23  22  24  20  19  21  22  25  34  46  40  36  36  36  39  39  35  32  34  35  35  35  37  40  44  47  46  47  49  49  57  68  73  80  94  96  98 113 119 122 124 124 125 125 126 126 126 126 128 128 128
  99 109 115 114 103 114 114 116 116 115 116 113  91  51  45  51  56  55  50  47  43  40  36  33  31  31  29  29  28  30  32  34  32  37  38  38  35  31  25  23  20  17  18  23  20  18  19  19  27  36  32  28  26  27  31  32  32  29  30  30  30  33  34  32  37  41  43  43  41  41  42  48  58  67  76  93 106 116 122 124 125 124 125 124 124 124 127 129 128 127 128 128
 102 111 114 113 101 114 116 116 116 116 115 101  62  46  50  58  60  54  51  49  43  42  42  37  34  30  30  28  28  28  27  29  29  28  31  31  31  27  20  16  17  16  16  19  22  16  17  24  29  24  22  21  22  27  26  26  25  28  29  28  26  28  29  30  31  33  34  37  37  38  38  40  50  67  84  98 108 118 122 123 126 124 125 120 124 126 127 129 128 128 129 128
 104 113 116 115 105 116 117 117 117 115 105  78  52  51  63  60  56  53  49  48  46  42  39  35  33  36  32  28  30  29  31  31  31  31  30  28  30  30  24  18  15  15  13  15  20  16  17  24  24  17  16  19  19  20  21  22  23  23  23  21  21  24  27  26  29  31  32  32  34  35  38  43  49  64  87  98 108 119 124 124 125 124 124 126 128 128 128 129 128 130 127 129
 106 112 115 114 103 116 117 116 112 109  86  49  51  51  53  56  55  48  48  47  42  42  38  38  42  42  39  34  33  32  33  32  34  36  38  38  43  31  23  18  14  12  13  13  18  15  17  19  18  14  16  17  16  17  18  17  19  19  19  20  23  25  26  28  29  29  28  29  30  31  32  36  45  56  74  82  90 103 110 117 120 124 127 128 128 129 130 129 128 130 130 129
 108 112 114 114 105 115 116 114 111  96  66  53  48  48  50  53  51  45  40  40  40  40  42  41  37  34  32  30  29  31  30  32  34  37  42  54  34  27  24  18  15  12  13  14  15  15  16  15  14  13  16  15  14  15  16  18  18  20  23  23  24  27  29  32  31  28  27  28  32  32  34  37  42  48  61  83  91  86  81  89 104 116 117 119 123 126 128 130 129 130 130 130
 111 115 115 112 107 116 117 115 109  82  48  44  44  44  49  49  43  41  37  39  49  44  39  34  33  28  29  30  31  33  34  38  41  46  44  33  27  25  23  18  15  14  14  16  16  16  16  15  15  15  15  14  16  16  16  17  23  24  26  27  29  32  35  33  32  31  33  34  38  39  42  48  46  48  63  90 108 111 110 108 102 107 117 123 128 129 129 129 129 130 130 130
 112 114 115 105 109 115 117 114 102  56  42  41  40  48  53  51  50  50  46  50  44  41  40  34  30  28  27  29  30  31  34  35  32  28  26  23  17  17  18  18  18  17  15  17  16  17  17  17  18  16  17  18  18  16  16  16  22  27  27  29  31  33  37  40  41  40  41  39  40  44  49  58  59  60  62  79 103 110 111 121 122 116 109 121 128 131 130 131 131 132 133 132
 112 114 115 102 113 120 117 114  87  47  38  33  35  45  48  45  49  50  47  49  50  39  32  28  27  26  28  30  31  33  35  35  32  29  25  23  20  17  18  18  19  21  20  21  18  19  21  22  22  21  22  20  20  20  22  22  24  25  24  24  27  31  30  29  27  32  38  36  37  40  47  54  59  62  66  69  86 107 107 115 121 126 118 117 126 130 132 131 132 132 131 131
 115 116 115 101 117 117 115 107  60  41  34  32  38  41  42  41  44  49  47  41  35  31  34  33  36  32  30  29  29  30  28  24  23  21  21  20  20  22  21  22  23  26  25  24  22  25  26  29  28  27  26  24  24  24  26  26  24  24  22  23  23  25  28  30  28  23  23  28  33  37  44  51  54  60  63  57  60  81  99 109 115 126 126 125 129 131 132 131 131 132 132 132
 113 115 118 100 118 117 112  91  42  41  36  34  34  35  37  38  41  37  31  33  40  41  40  34  30  29  28  25  24  20  16  17  17  20  22  22  21  26  26  28  30  32  32  30  32  33  33  35  35  34  33  30  29  30  31  30  27  28  28  25  23  23  21  24  26  25  20  20  27  33  38  44  51  58  64  65  69  79  95 106 116 123 128 129 130 131 131 132 133 134 135 133
 114 116 117  98 119 118 112  86  41  36  36  35  38  38  37  37  33  35  40  44  42  42  34  27  25  25  23  20  18  18  18  17  20  23  25  25  29  32  33  33  35  36  38  40  42  44  44  46  47  45  44  43  40  41  38  38  34  32  29  26  23  22  21  19  18  22  26  25  26  29  33  39  46  55  62  71  70  80  95 104 111 123 129 130 131 131 133 132 133 135 133 134
 115 117 118 102 117 119 114  76  42  35  33  30  31  32  31  31  33  39  41  35  31  27  23  23  24  21  21  18  19  18  22  23  26  28  29  30  33  34  38  39  40  43  43  44  48  49  51  53  53  55  52  52  50  50  45  45  41  37  34  30  26  23  21  21  18  17  20  25  28  27  27  32  41  53  63  64  68  77  85 102 111 123 127 130 132 133 132 134 134 134 133 135
 117 117 119 102 118 120 110  77  41  35  30  25  25  26  27  24  23  26  26  24  24  23  22  23  23  23  23  23  25  24  26  28  30  31  34  37  39  39  42  44  45  48  49  50  53  56  58  60  62  61  60  58  56  58  55  51  48  45  41  35  29  26  25  21  21  20  20  22  26  29  27  29  37  48  67  69  66  73  88  97 116 122 130 131 132 135 135 136 136 135 135 137
 116 117 118 101 120 120 110  77  43  33  27  24  19  16  15  16  18  17  20  21  23  24  24  24  28  28  29  29  30  30  32  33  33  35  38  40  43  44  47  48  53  54  54  59  61  63  63  64  66  66  67  66  62  62  63  59  56  50  46  42  34  29  25  23  22  23  22  20  23  28  32  33  35  44  58  65  75  76  94 102 118 124 133 136 132 134 136 136 138 137 137 138
 117 119 117 102 119 117 110  76  39  30  24  22  16  13  13  14  16  22  21  25  26  27  27  28  29  30  30  32  32  33  34  36  36  40  42  44  47  48  52  52  56  58  61  62  64  65  67  68  69  70  71  69  66  66  67  65  60  58  52  49  40  31  26  24  22  24  23  25  22  23  29  34  36  38  46  65  71  76  89 109 116 127 133 136 138 136 138 138 139 140 140 139
 119 121 115 105 121 120 115  75  40  31  26  19  15  14  13  14  17  23  25  29  30  31  32  31  31  33  33  33  35  37  39  41  41  43  46  48  51  52  55  58  60  60  62  66  66  67  69  71  72  74  75  73  69  70  70  70  68  62  57  54  48  38  28  24  21  18  22  22  24  24  26  31  38  44  50  55  60  70  80 110 120 132 135 138 138 139 139 139 139 140 142 142
 119 121 114 108 122 122 116  78  46  33  26  18  15  14  13  15  21  26  30  32  35  34  34  34  35  37  39  40  43  42  44  44  45  48  50  54  58  60  61  62  63  65  68  67  70  70  74  75  76  78  79  76  72  72  71  72  72  67  64  61  55  46  35  28  24  19  19  21  25  26  29  30  33  42  54  50  48  56  76 110 127 133 136 139 140 140 140 140 142 143 142 145
 124 128 112 118 123 122 115  84  49  37  26  17  14  14  13  17  26  30  36  38  40  40  41  41  41  43  44  43  45  48  47  49  50  54  55  60  62  66  67  66  67  68  70  72  72  69  72  77  78  79  79  76  74  75  73  75  75  70  67  67  62  53  42  30  25  20  18  18  20  25  26  31  34  43  50  49  41  51  80 113 133 136 139 138 140 140 142 143 141 143 143 147
 128 133 116 136 131 123 120  95  57  39  25  18  16  15  16  22  31  37  40  44  44  45  44  44  45  47  48  48  49  52  53  55  57  58  60  64  65  66  68  67  68  68  72  73  75  68  72  77  77  77  77  75  76  76  76  80  78  74  72  69  65  58  46  34  26  23  19  18  18  23  24  26  32  42  51  51  43  49  80 122 138 140 140 141 140 142 142 142 143 144 145 147
 129 132 113 135 134 127 124 106  63  40  29  21  16  15  17  28  36  42  44  47  49  48  47  49  50  51  54  55  56  58  58  59  61  61  63  63  66  67  68  68  68  67  70  69  71  68  74  76  79  78  77  76  74  76  76  78  80  77  74  69  67  60  50  38  30  25  22  21  19  21  24  25  31  41  50  52  53  52  87 126 138 140 142 143 144 143 144 143 143 144 144 147
 130 132 111 136 135 131 126 114  66  49  35  23  16  15  22  35  40  48  49  50  52  54  54  54  55  56  56  58  59  61  62  63  64  63  65  66  66  65  66  66  69  68  67  69  75  73  75  75  76  76  76  78  75  74  74  75  78  77  75  72  70  65  53  41  31  25  23  23  22  19  24  24  29  39  50  53  53  68  99 129 140 143 144 143 145 143 145 145 145 145 148 149
 132 132 112 134 136 135 131 121  81  67  39  26  18  17  29  41  48  51  53  54  54  57  59  58  60  58  60  61  62  61  63  64  65  65  66  66  67  66  66  65  67  67  68  69  70  73  75  76  77  75  76  77  78  75  75  75  76  77  75  75  71  67  56  44  34  27  24  24  23  23  22  24  30  39  54  48  56  70 112 135 141 144 144 145 145 145 147 147 148 148 148 150
 133 131 108 133 135 139 134 124 103  68  37  29  22  18  34  47  51  54  57  57  57  59  62  62  64  63  62  64  64  62  63  64  66  66  67  67  68  67  66  67  66  68  70  69  70  71  72  73  76  76  77  77  77  77  76  76  77  76  76  77  73  69  61  47  35  30  25  24  24  22  22  26  32  38  47  49  53  75 121 139 143 145 145 146 147 146 147 147 149 147 148 151
 133 132 103 134 138 140 139 131 119  63  32  32  24  22  40  51  55  58  58  58  60  66  66  64  64  62  61  64  62  63  65  66  65  66  66  65  66  67  67  68  67  66  66  67  70  71  69  72  73  73  76  77  76  77  78  81  80  77  80  77  75  71  62  48  38  30  27  25  25  22  23  27  31  37  39  47  55  76 129 144 145 146 147 146 148 148 149 152 149 148 151 153
 135 134 110 135 138 139 141 136 128  63  32  29  26  23  45  56  58  61  59  62  66  71  71  67  65  63  64  66  66  66  67  68  66  66  67  66  68  67  68  68  67  67  67  68  69  70  73  73  74  76  76  77  77  78  82  82  82  83  82  81  78  72  63  50  39  31  30  25  25  24  21  26  33  37  35  35  46  75 128 142 148 148 148 149 150 149 149 152 150 151 153 154
 136 133 113 137 137 138 140 139 133  84  36  24  24  26  53  60  61  62  64  65  71  73  73  71  70  70  70  70  68  69  68  66  67  67  68  68  67  67  68  67  68  69  69  69  72  70  75  75  79  80  80  79  81  81  84  83  83  84  83  82  82  74  66  52  40  33  28  25  24  25  23  26  32  33  33  34  41  65 128 145 149 149 150 153 151 150 151 152 153 153 154 156
 137 129 112 137 137 137 139 140 138 111  44  26  28  29  60  67  65  65  69  71  75  78  78  77  76  76  74  71  71  70  69  69  68  68  68  68  67  67  66  68  70  72  71  70  70  73  75  77  82  82  84  84  84  86  87  85  85  86  86  87  85  79  69  55  43  33  28  26  26  26  25  25  29  30  26  32  40  57 114 146 148 151 152 152 153 152 153 154 154 156 157 156
 136 125 120 136 137 137 139 139 138 132  65  32  30  35  66  73  69  69  73  75  78  80  82  82  80  80  77  75  72  71  69  69  69  70  70  68  67  68  68  68  72  74  73  72  72  74  76  80  81  85  88  88  88  88  88  88  89  89  90  89  89  86  75  59  44  34  30  27  30  29  25  25  25  29  25  30  42  62 117 147 150 153 155 154 155 154 156 156 155 158 156 157
 134 112 126 135 136 136 136 137 136 133 103  40  31  37  70  78  77  77  77  79  83  83  86  86  86  84  82  77  75  74  72  72  72  70  70  70  69  69  68  71  72  73  74  72  76  76  79  80  83  85  87  90  89  90  92  92  94  93  97  95  92  91  83  64  48  38  31  28  30  29  27  29  29  29  26  28  38  60 118 148 153 154 155 154 156 156 156 157 157 159 159 158
 132 106 128 134 136 135 135 135 135 134 126  54  32  40  70  85  84  85  82  82  86  91  88  89  87  83  82  79  75  75  68  72  71  72  71  69  66  68  69  72  72  73  74  72  76  76  76  79  82  84  88  90  92  95  99  98  99  99  98  99  98  96  89  74  56  41  33  28  30  28  26  27  28  28  27  26  34  55 120 149 153 154 155 156 158 158 157 159 160 160 161 161
 132 108 132 134 134 134 136 135 135 135 130  94  36  39  72  89  92  91  88  89  89  91  90  88  86  82  79  75  74  73  68  70  72  70  69  68  67  68  70  72  73  73  73  71  72  73  75  78  78  81  86  88  91  97 103 103 105 108 105 103 103 105  99  84  68  49  36  30  30  28  26  27  27  27  30  30  33  55 119 150 154 156 157 158 158 159 159 160 162 162 163 162
 132 104 134 133 136 135 136 136 136 135 135 112  39  39  74  95  98  98  94  94  92  92  90  85  85  82  77  73  73  70  68  69  71  72  71  70  68  68  69  70  69  69  70  69  68  69  70  75  76  80  83  87  90  96 102 104 108 111 109 108 109 110 107  98  78  63  47  35  31  29  27  29  29  29  30  31  33  52 128 154 156 157 160 158 160 160 162 161 162 164 162 164
 133 106 134 135 136 136 134 135 136 135 134 119  42  41  73  99 102 100  97  93  93  87  84  83  80  80  76  73  71  69  67  69  70  69  70  70  68  66  69  69  69  67  67  67  67  67  68  71  73  75  78  83  87  92 102 105 108 110 112 114 113 115 114 109  93  76  59  44  35  30  28  29  31  31  32  32  36  55 127 154 158 160 160 160 161 162 163 163 163 162 165 166
 135 107 135 136 138 136 137 136 136 138 135 126  54  41  72 102 104 101  95  90  86  83  79  78  74  74  71  72  70  68  67  67  68  68  69  70  69  66  66  66  66  67  64  65  65  64  65  69  70  71  75  77  83  87  91  97 103 110 114 120 122 122 122 118 106  91  71  55  36  30  28  29  30  31  32  31  38  64 126 154 161 161 162 162 164 163 164 165 166 166 167 166
 136 113 137 138 138 135 138 138 138 137 137 131  72  39  62 105 102  95  86  86  84  80  76  72  70  69  68  69  68  68  68  67  67  68  69  69  68  66  65  66  65  64  62  61  62  63  64  64  64  64  64  65  66  66  70  76  80  94 109 119 123 125 127 123 116 103  84  68  42  28  28  32  31  31  34  34  41  83 130 155 161 163 163 163 164 164 167 166 167 168 166 168
 137 110 138 140 140 141 139 141 139 140 139 135 105  40  61 103 100  93  84  82  79  75  70  66  65  65  65  67  67  67  64  66  66  66  68  68  69  66  66  63  63  60  56  55  55  56  57  55  52  50  48  48  47  44  49  51  56  65  81  93 104 113 121 128 122 114 100  84  53  30  28  31  30  31  36  38  45  94 147 157 161 166 164 165 165 168 166 168 168 169 169 170
 135 110 141 143 142 140 141 141 139 142 141 138 124  48  67  95  89  85  76  73  69  67  67  64  61  60  61  64  67  67  64  66  64  66  67  65  68  66  64  60  60  55  48  44  44  44  42  39  36  35  32  33  34  35  35  39  42  45  56  62  75  80  96 116 124 120 112  99  68  32  27  30  30  31  36  39  49  98 149 159 163 166 168 167 167 169 169 169 169 170 170 170
 132 122 141 142 142 142 142 142 141 140 141 141 136  84  81  79  68  64  56  52  53  55  55  53  52  54  56  60  66  66  63  63  64  65  65  65  65  62  59  54  54  50  42  35  30  28  29  28  26  26  25  26  26  28  31  35  39  44  47  52  65  74  86  91 103 119 120 114  82  36  28  31  31  33  33  38  55 114 155 163 165 166 167 169 168 168 169 170 170 171 170 170
 124 126 142 143 142 143 144 143 142 142 143 142 139 103  64  52  44  43  39  35  33  36  38  35  37  43  46  54  59  62  61  62  63  63  63  63  63  61  56  52  50  45  37  29  26  25  25  24  24  23  25  25  30  33  39  43  49  54  57  61  67  69  81  93  98 113 121 121 108  37  32  33  32  32  35  41  62 137 161 164 168 168 169 169 170 170 169 170 171 173 172 174
 119 133 142 144 144 145 145 145 145 144 144 142 132  64  48  37  36  33  30  26  25  26  25  26  27  30  38  45  54  58  60  59  61  61  62  62  61  59  57  52  48  44  36  35  31  28  28  27  29  33  38  41  45  49  51  54  60  65  68  70  74  77  81  95 107 118 122 124 122  53  34  35  34  31  34  39 102 160 168 165 168 168 170 169 171 171 171 172 174 174 174 175
 117 140 145 146 146 145 147 147 146 146 146 144 111  53  47  37  32  30  26  23  24  22  22  21  23  26  31  40  48  53  56  57  60  58  60  62  61  59  55  51  49  47  43  40  39  39  38  39  40  42  46  49  51  53  58  61  66  68  72  78  81  82  86  96 104 112 121 126 127  66  36  39  39  33  37  99 154 163 153 149 164 168 171 172 170 172 174 174 175 176 174 176
 117 145 147 147 147 147 146 147 148 146 146 144 125  70  59  52  48  44  42  38  38  36  34  29  29  30  32  38  45  50  52  55  58  58  60  61  62  61  56  52  51  50  46  44  41  38  39  37  39  38  40  43  46  48  52  56  59  65  70  76  82  83  87  93 106 118 124 128 131  83  39  44  47  38  65 115 129 101  77  79 138 168 172 173 174 175 175 176 176 176 178 177
 117 146 148 148 148 148 148 148 149 147 147 146 140 113  81  70  65  58  54  51  50  48  46  43  42  41  40  41  44  46  48  52  56  59  61  64  64  63  60  55  53  50  46  42  38  31  28  30  34  34  38  41  46  49  50  54  54  56  58  60  64  75  81  89 103 116 127 131 134 105  45  45  52  51  81 103  97  82  80  69 101 167 173 174 175 176 177 177 178 177 178 178
 112 149 149 151 150 149 150 150 151 149 150 148 148 143 114  82  73  63  55  50  47  45  42  39  39  38  39  42  43  43  47  51  58  62  64  67  67  64  62  58  54  50  45  40  30  24  26  26  25  25  27  32  38  43  46  49  53  63  72  72  61  63  72  84 101 118 127 133 134 114  50  46  57  66  83  90  83  84  87  63  92 168 174 176 177 177 177 177 178 178 181 179
 111 150 150 151 151 152 152 151 150 150 150 149 150 149 133  88  78  56  47  44  43  42  39  39  36  34  33  35  39  41  43  49  57  64  68  70  69  67  65  62  59  53  45  36  28  24  22  18  19  19  24  29  41  43  48  44  47  45  46  59  63  64  71  85 106 122 129 134 133 122  59  45  59  78  84  75  78  86  79  63  93 168 174 176 178 178 179 179 181 181 183 183
 119 151 153 152 151 152 152 152 152 151 152 150 151 150 140  93  80  64  48  40  37  35  37  36  35  34  33  32  31  37  41  46  56  64  69  70  68  67  67  64  60  54  44  34  30  24  24  18  19  19  19  28  50  66  64  58  62  49  45  51  60  66  77  95 115 126 135 137 132 123  71  43  54  81  77  73  84  93  74  61 103 170 176 177 179 180 181 184 182 185 186 185
 118 152 154 153 153 154 153 153 153 153 152 152 150 151 140  95  84  51  32  26  23  24  34  41  45  41  38  34  31  32  37  43  56  65  72  71  69  69  68  65  62  53  43  35  28  25  24  20  18  19  21  28  57  71  69  67  54  48  58  72  71  80  98 115 126 132 136 136 136 127  86  46  50  78  83  80  89  99  70  64 124 174 177 179 184 184 185 184 184 186 188 187
 127 154 154 154 155 155 154 154 154 154 153 153 153 151 132  91  51  41  49  36  23  24  28  55  63  55  49  40  34  33  37  43  57  70  83  80  77  72  70  69  63  54  45  37  33  28  27  27  23  21  23  34  50  52  50  50  49  59  73  78  93 112 128 134 136 137 135 136 136 128  98  48  46  60  73  82  93  98  68  72 149 176 180 183 186 186 186 185 188 189 189 190
 135 154 155 155 156 155 155 155 153 155 154 155 154 151 122  73  60  67  58  51  30  23  26  56  62  55  46  35  32  32  37  45  62  87  99  89  85  79  72  70  67  59  51  44  38  35  32  32  33  36  36  41  43  45  47  51  59  68  74  89 111 132 144 149 145 140 139 135 135 129 109  53  37  51  62  74  91 101  70  88 169 179 182 185 187 187 187 188 190 190 190 191
 143 158 159 159 159 159 158 157 156 155 156 154 156 154 134  84  91  91  75  53  40  26  31  48  48  42  37  37  40  40  42  51  75 109 107  97  89  82  75  71  68  64  59  52  45  39  36  36  36  36  40  44  45  49  51  57  63  70  83 103 124 139 150 154 151 143 138 135 132 129 113  56  42  49  56  67  90  98  78 129 173 181 184 186 187 188 188 190 189 190 190 190
 155 160 160 162 161 160 159 159 157 158 158 156 156 155 143 103 108 103  85  64  44  37  37  42  43  42  40  41  41  42  47  59  94 118 111 100  95  83  76  72  69  68  67  64  56  49  47  45  42  42  43  45  47  51  54  60  67  78  95 114 132 145 150 153 151 146 139 134 134 130 114  64  47  50  53  64  89  95  91 168 179 184 185 187 186 188 190 190 190 191 191 190
 162 162 162 163 162 163 162 162 161 159 158 158 158 157 151 109 114 110  99  80  57  47  47  44  44  42  42  44  44  49  56  69 115 126 115 106 100  86  78  73  72  71  70  71  67  62  56  53  52  51  51  51  54  59  61  67  74  89 107 123 136 142 147 152 150 145 139 136 134 133 113  69  60  52  53  59  94  96 130 175 181 185 185 186 187 188 188 188 190 190 190 191
 164 163 165 164 165 164 163 163 162 161 159 158 159 159 150 117 113 111 105  94  69  55  48  47  45  46  45  47  51  56  61  86 126 133 117 111 102  89  81  74  75  74  74  73  73  72  69  65  62  59  58  57  61  64  68  74  85  98 114 128 136 139 143 147 145 142 139 135 135 131 114  72  59  55  53  64 101 105 167 179 181 183 185 185 187 187 188 189 190 190 190 190
 163 163 166 166 164 162 162 163 161 162 161 161 159 157 152 123 115 114 107  99  85  67  57  53  50  49  52  54  60  64  67  98 128 130 116 111 103  94  83  77  78  78  75  78  78  77  76  74  70  66  63  64  64  68  69  79  87 100 114 125 130 132 132 135 135 137 139 138 135 128 109  67  55 104 123 100 106 136 176 182 184 185 185 186 188 188 190 190 189 190 190 191
 162 163 163 165 164 163 162 164 162 161 162 162 162 159 156 125 110 109 105  97  85  75  65  57  54  55  57  61  65  68  80 105 126 124 116 110 106  97  89  84  81  80  79  80  79  79  78  77  76  73  70  70  69  70  74  81  89 101 111 121 120 122 121 123 126 133 135 137 135 128 108  64  65 139 140  92  98 166 179 185 185 186 186 187 189 188 189 190 190 190 192 191
 162 165 163 165 164 162 164 164 162 162 162 162 162 160 155 125 109 106 105  98  91  80  72  65  64  63  66  67  68  74  91 107 125 123 117 116 110 102  95  87  84  83  82  80  78  77  79  77  78  79  78  76  76  79  82  85  93 101 106 108 111 112 113 115 121 131 131 133 135 131 103  63  93 134 115  92 134 177 184 184 186 185 188 189 189 189 191 191 191 192 192 193
 162 163 165 164 164 164 164 164 163 162 162 162 163 161 157 127 106 103 103  97  94  85  80  76  72  71  72  71  72  82 100 109 118 120 118 120 114 105 100  92  84  82  81  81  80  78  78  76  77  77  80  82  83  83  85  87  91  95  96  98 104 108 108 107 113 124 126 129 131 128 103  71 115 132 143 133 173 181 185 186 187 188 188 188 190 191 191 191 192 192 193 193
 162 165 166 166 164 164 165 165 164 164 162 163 163 164 160 130 103  98  96  92  88  87  86  83  80  77  76  77  80  92 104 107 116 116 115 120 119 112 105  96  87  85  81  79  79  78  78  76  76  78  81  84  87  89  91  93  91  91  93  94  98 101 103 103  96 111 127 128 129 128 110 120 150 154 168 172 182 185 185 186 187 188 189 188 189 190 192 192 193 193 193 193
 163 165 166 166 166 166 165 165 165 165 164 163 163 163 160 135 100  92  89  88  88  87  88  89  87  83  81  82  86  94 107 110 120 116 116 122 124 117 111 102  91  84  80  79  75  77  77  77  78  80  82  88  94 100 101 104 104 102 100  99 100 102 103 102  92 105 125 127 125 128 122 124 151 157 162 177 184 186 186 187 187 188 191 189 190 191 192 192 194 193 194 194
 164 165 166 168 166 164 165 165 166 166 166 166 166 165 163 141 100  90  87  87  88  91  95  95  91  87  86  87  87  95 110 116 122 118 120 128 128 123 120 107  97  88  82  74  73  76  77  79  82  82  84  91  96 104 106 106 107 108 108 108 108 105  98  98  98 107 122 125 120 125 127 108 117 132 145 178 184 186 188 188 188 190 191 190 191 193 193 193 194 194 194 195
 166 167 168 167 167 166 166 166 167 165 166 165 166 163 163 147  99  89  88  89  91  97 100 100  95  92  90  87  84  97 110 118 124 121 122 131 138 135 127 115 104  92  80  73  71  72  74  77  79  83  86  92  99 105 112 110 109 110 109 108 108 109 103 104 106 108 118 118 114 120 122 117 102 134 170 182 186 187 188 188 190 190 191 192 192 193 194 194 193 195 196 196
 168 166 168 168 168 167 168 166 167 168 167 167 167 165 165 154 107  92  89  91  94  97  98  99  98  96  89  82  80  97 113 120 124 122 124 137 148 146 137 124 111 105  87  73  68  68  70  75  77  84  88  93 101 107 109 110 109 108 108 108 108 106 105 106 108 110 116 116 112 119 125 168 182 181 183 186 187 188 188 189 193 192 192 194 193 194 195 195 194 196 197 197
 169 168 168 168 168 168 168 168 167 168 167 168 168 166 165 157 118  95  89  93  95  96  97  96  95  92  85  77  74 108 118 123 123 123 122 132 144 154 140 131 123 117  98  81  67  62  67  71  78  83  88  92  97 104 108 109 110 110 109 107 109 110 107 107 108 109 113 110 110 119 129 175 183 185 185 187 189 189 190 190 192 193 193 194 195 196 197 197 198 198 198 198
 169 168 168 169 169 168 168 168 168 168 168 168 168 168 166 161 131  98  94  96  96  96  95  95  94  89  81  73  81 112 116 119 116 116 117 125 138 147 146 140 137 133 117  97  70  62  63  70  75  82  87  90  95  98 106 106 110 107 106 106 109 110 107 102 108 111 112 107 112 120 133 178 186 187 186 189 189 190 190 192 192 193 194 196 197 198 199 197 198 197 198 198
 169 170 170 169 170 168 169 169 168 168 168 168 168 168 166 163 141  99  95  97  95  95  95  93  90  74  74  71 104 111 110 111 108 107 113 118 125 135 145 149 144 136 127 117  85  66  64  68  73  79  86  90  96  97 105 108 107 108 106 105 108 110 105 102 104 109 109 108 117 120 139 180 185 186 187 189 190 191 192 192 193 193 196 196 197 197 199 199 197 198 199 198
 169 169 171 169 170 169 168 169 171 169 171 168 169 169 167 166 147 104  95  95  96  95  96  91  86  76  70  76 110 109 103 101 100 100 104 108 115 125 134 137 132 129 122 119  94  64  68  68  71  74  81  87  94  93  94 102 105 108 106 103 105 108 107 105 105 110 104 103 113 121 154 183 187 187 188 191 190 190 191 192 191 194 195 196 196 197 198 196 198 197 198 200
 171 170 170 171 170 171 170 170 170 169 169 170 168 168 168 167 154 109  96  96  93  95  92  89  84  78  71  79 103 101  97  91  88  88  93  99 102 111 118 118 111 110 104 105  95  65  72  73  72  74  80  84  91  97  97  99 103 105 108 107 106 108 108 105 105 105 100 101 115 122 161 184 187 190 190 191 190 192 192 193 192 194 194 196 197 196 197 198 199 198 200 200
 171 171 170 172 170 170 172 171 170 170 169 169 169 169 169 167 157 123 100  96  94  92  91  88  83  78  75  80  90  89  85  80  76  77  80  83  87  90  93  90  75  72  76  81  75  71  79  85  82  80  81  87  91  98  98  96 100 105 108 108 107 108 107 105 103 102 104 109 118 127 171 184 187 190 188 190 191 192 192 192 191 193 196 195 195 197 198 198 199 198 199 199
 171 171 172 172 172 170 172 170 170 171 171 170 170 170 170 169 163 130 101  96  92  92  90  87  82  80  81  88  81  72  73  70  69  67  69  70  71  71  71  53  42  45  57  63  70  82  89  94  89  85  84  89  92  94  97  93  96 101 106 107 105 105 108 106 104 101 103 107 115 137 178 187 190 189 190 190 190 192 194 194 194 194 194 195 196 194 197 198 200 200 200 200
 173 171 173 172 172 173 173 172 173 171 172 172 170 170 171 169 166 142 103  94  94  88  88  85  84  82  87  91  92  82  67  62  63  64  64  66  68  65  51  49  49  45  46  63  85  92  96 100 101  92  89  92  95  94  96  97  93  99 102 106 103 102 106 104 102 102 106 110 120 149 183 186 189 189 190 190 191 192 195 196 195 196 195 196 197 199 198 198 200 199 200 200
 173 172 173 173 172 172 171 172 172 172 172 172 171 170 171 171 169 159 104  95  90  90  89  84  85  88  92  91  94  92  78  56  58  60  61  63  62  49  50  50  50  50  60  87  97 102 105 108 109 104  94  94  96  99  98  98  95  98 101 103 102  99 101 100 103 102 108 111 119 168 186 187 190 191 191 194 193 194 195 194 196 198 198 197 198 198 199 199 198 200 199 200
 174 172 173 172 174 173 173 172 172 171 170 171 171 171 171 171 170 164 115  96  90  90  88  87  88  93  94  92  93  91  85  62  47  51  56  54  51  50  50  52  56  62  81  93 100 103 106 110 113 111 105 101  97  99 101  97  98  94  98 100 100  95  94  96 102 108 110 113 122 180 188 189 191 191 191 193 194 195 197 196 197 197 196 197 199 198 199 200 200 200 200 200
 174 173 173 173 174 173 173 173 172 170 170 170 169 170 171 172 172 167 131  95  89  89  92  90  91  94  93  91  88  87  88  76  56  49  50  49  50  52  54  57  64  80  94  99 101 106 110 110 112 115 110 105 103 101 103  99  97  95  94  96  96  90  90  96 104 109 110 112 138 183 188 188 191 192 193 195 195 196 196 197 198 198 198 199 200 200 200 201 201 201 200 201
 174 174 173 174 174 173 174 172 171 170 171 172 170 169 170 170 170 168 146  92  89  88  90  88  89  89  88  87  86  88  89  87  65  56  53  49  49  53  58  64  72  87  99 101 102 104 106 107 106 109 109 105 103 102 104 102  97  95  94  90  90  88  88  93  97 108 111 112 148 184 190 190 191 192 192 192 193 195 195 196 197 197 199 198 198 199 200 200 200 202 201 201
 175 174 175 173 174 174 173 173 173 172 172 171 170 170 171 170 169 168 157  97  90  89  90  87  87  86  85  83  83  85  84  82  70  60  55  49  48  54  62  70  81  86  97 101 105 103 102 104 105 102 104 105 104 104 104 102  99  95  94  87  91  84  86  91  98 108 112 113 163 186 190 190 192 191 192 191 192 194 196 195 196 197 198 198 198 198 199 200 200 201 201 200
 176 176 175 173 172 174 174 173 172 173 171 171 170 170 170 170 169 168 168 108  88  91  89  85  85  83  81  80  80  80  79  74  71  62  53  48  45  53  62  70  74  80  91  95 101  99  97  96  95  91  94  99  98  99 103 102 100  96  93  90  86  89  88  87  96 110 111 118 167 186 190 191 191 191 193 193 193 193 194 195 197 198 198 198 198 199 199 200 200 200 201 201
 173 174 173 175 175 174 174 172 173 173 172 169 169 170 170 171 171 169 166 119  86  88  85  83  79  79  73  75  79  81  80  77  72  61  51  41  39  51  68  77  81  80  83  86  87  85  84  84  88  87  86  91  90  90  94 100  97  93  93  90  86  87  88  88  99 106 104 127 173 187 190 192 190 191 192 194 194 194 196 195 196 197 197 198 198 199 200 200 199 200 201 201
 175 174 175 175 174 171 173 172 172 172 171 169 170 171 170 169 169 169 166 137  82  86  82  77  72  71  67  67  72  77  78  81  80  67  59  43  43  60  77  86  87  86  83  82  78  70  70  72  80  80  81  84  86  88  89  93  96  93  91  88  86  85  87  89  95  99 105 136 174 187 191 190 192 192 192 192 193 193 194 197 196 197 198 199 199 199 199 199 199 200 200 202
 175 175 175 174 174 173 171 170 172 171 171 170 170 170 169 169 169 170 169 162  87  82  78  70  62  60  58  61  65  71  79  80  79  73  74  63  63  72  78  80  82  82  81  85  80  69  65  66  69  71  73  76  82  85  86  90  93  92  89  88  88  86  86  87  94  95 110 140 178 188 190 190 190 192 192 193 193 194 195 195 195 196 198 199 198 198 200 200 200 200 200 201
 174 174 174 172 173 172 173 172 171 171 171 171 172 172 170 170 169 169 168 160 106  83  75  67  59  54  52  51  59  70  71  66  56  55  63  68  61  52  50  50  56  59  66  71  72  68  61  60  59  63  64  68  71  76  81  90  89  89  87  87  86  88  88  90  94  94 120 143 181 188 189 191 191 192 192 192 192 192 194 196 196 196 198 198 199 198 200 200 199 200 201 202
 174 173 171 172 171 172 172 172 172 169 170 170 170 168 170 169 170 169 169 163 130  80  70  64  54  47  39  38  48  56  51  47  44  41  43  47  44  43  43  43  45  47  46  47  48  49  50  44  44  49  57  62  63  69  73  84  85  88  87  88  88  88  86  88  89  97 122 146 180 188 189 190 191 191 191 194 193 193 195 195 197 196 198 198 199 199 200 200 200 201 202 200
 173 173 172 171 171 170 171 170 172 170 170 170 170 170 169 170 168 170 168 166 144  80  70  59  50  42  34  31  31  38  38  36  37  38  37  38  39  39  40  38  38  38  37  32  30  30  30  31  37  43  51  57  59  66  71  78  80  84  86  87  87  85  84  87  85 106 125 140 127 161 189 189 190 192 191 194 194 194 195 197 197 196 197 198 199 200 200 200 200 201 202 202
 172 173 173 171 172 171 171 172 170 170 171 170 171 170 170 168 168 170 146  99  63  71  67  57  48  46  43  45  43  44  41  34  30  29  29  28  29  30  32  30  30  32  35  37  38  38  39  44  51  51  54  57  60  65  68  74  78  80  82  85  84  81  82  83  92 112 125 129  94  95 121 173 191 192 193 193 193 194 193 195 197 197 199 199 199 199 200 200 200 202 202 201
 173 172 171 172 172 171 171 170 171 170 170 169 170 170 170 155 118  74  56  53  50  50  62  57  52  52  51  58  60  54  53  58  53  37  36  34  35  38  39  39  42  41  42  46  48  48  52  58  62  61  61  60  60  64  67  73  78  81  83  82  81  81  83  82  97 116 126 122  89  87  89  97 123 156 181 191 192 194 193 195 196 198 197 198 199 200 199 199 200 201 200 200
 174 172 172 172 172 171 171 171 170 171 170 169 170 136  96  59  53  46  44  45  40  39  58  59  56  57  60  63  65  60  58  64  58  49  47  42  43  41  43  45  48  48  49  51  54  59  66  68  68  65  66  66  63  63  67  69  73  77  79  80  80  80  76  83 103 117 126 112  76  82  82  67  86 110 117 139 168 192 194 196 196 196 198 199 200 200 199 200 200 201 201 201
 172 171 172 172 172 170 170 170 169 171 157 109  66  52  50  44  40  38  39  40  33  30  45  58  54  57  63  63  66  62  60  57  53  53  49  44  43  42  43  43  48  54  53  55  59  64  69  68  67  65  65  67  64  64  67  69  71  76  74  76  78  76  73  85 104 118 127 119  58  75  76  72  56  88 105 107 110 122 155 189 194 196 197 199 200 199 200 200 201 201 201 201
 171 172 172 172 172 171 170 164 126  77  52  51  44  40  38  37  36  36  35  34  28  29  33  53  53  53  57  59  60  58  56  51  47  47  46  44  44  44  45  45  45  49  54  59  61  66  67  67  66  64  64  65  62  60  65  67  71  74  75  74  72  72  75  92 106 119 125 133  58  69  75  74  65  62  93 101 101 104 107 115 143 179 197 198 198 199 200 200 201 200 200 202
 172 171 172 170 170 152 104  59  49  44  39  37  36  37  36  34  34  34  34  32  25  27  31  42  52  49  51  51  53  54  50  48  45  43  42  44  42  41  43  45  48  51  55  58  59  63  62  64  64  64  61  62  60  62  67  69  71  70  71  70  70  71  80  94 107 120 126 132  77  62  74  72  72  53  76  92  98 100  99 100 105 114 139 170 196 197 199 199 199 199 200 202
 170 169 172 130  79  50  45  39  37  35  34  34  34  33  34  32  32  31  32  30  23  28  29  33  44  48  47  47  49  50  46  46  43  39  40  41  42  43  42  48  49  50  52  53  56  59  59  61  61  59  58  57  57  58  62  64  69  67  66  67  66  71  84  97 110 117 128 132  94  52  68  69  70  60  59  82  92  96  96  94  96  98 103 113 128 163 194 196 199 200 200 200
 152 105  57  47  43  37  35  34  31  31  30  33  32  32  31  32  32  30  31  28  24  27  28  30  44  44  46  45  47  47  47  45  42  41  42  43  43  43  44  48  48  49  50  52  54  55  56  57  55  55  56  57  56  57  58  60  64  61  62  62  66  77  88 102 110 117 128 132 112  45  65  67  71  66  54  69  85  90  92  92  92  93  94 100 104 110 125 159 192 200 200 201
  52  45  40  36  35  33  32  29  29  30  31  31  31  31  31  31  31  31  30  27  22  27  27  28  55  49  44  43  46  45  44  44  44  44  44  45  45  46  46  47  49  51  51  51  53  55  54  54  53  53  54  55  57  56  55  57  58  58  59  61  70  82  92 104 113 116 127 132 123  40  60  66  68  67  53  64  77  85  88  87  88  90  90  95  97  99 107 112 124 158 193 201
  37  35  33  32  31  30  30  28  29  29  30  28  29  28  29  29  31  30  28  27  22  24  27  26  57  60  41  43  45  44  44  44  45  44  43  45  45  45  47  47  49  50  51  50  50  54  53  53  56  55  54  53  55  57  56  56  54  54  57  64  76  87  97 104 111 117 124 129 128  44  56  66  67  66  56  57  71  78  84  86  87  88  87  90  92  94  99 101 105 111 120 152
  34  31  28  27  27  27  28  27  26  25  28  26  27  28  30  28  30  30  28  25  24  25  28  27  59  64  56  40  44  45  45  44  47  45  46  47  48  47  48  49  50  52  53  53  55  54  55  55  56  57  55  55  54  53  52  51  52  52  57  68  80  91  99 106 110 120 124 128 129  46  53  65  66  67  60  54  68  74  78  84  84  84  84  84  88  89  94  96  98 101 103 109
  30  28  27  27  27  25  25  25  23  24  25  25  26  28  28  28  28  29  26  25  24  25  25  25  53  62  59  47  41  44  45  46  46  47  47  46  48  49  49  51  52  54  55  55  59  60  58  57  56  57  56  53  51  52  50  47  51  56  64  72  82  91 101 105 110 118 121 125 123  52  52  64  65  64  59  50  65  72  76  79  81  79  81  82  82  86  90  91  93  97  98 102
  28  27  27  25  23  24  25  23  24  23  26  24  26  26  27  28  27  29  26  25  22  26  25  26  49  60  59  56  42  42  44  47  48  47  46  47  45  47  49  53  53  53  56  58  60  59  59  54  54  56  56  54  50  49  47  50  52  61  71  78  84  93  99 105 110 116 120 122 120  54  53  62  63  61  56  48  58  67  73  77  78  77  78  78  78  82  83  84  87  89  93  95
  28  25  22  23  22  22  22  22  23  24  23  23  25  24  26  27  26  27  25  24  22  24  25  24  45  55  60  57  53  42  43  44  47  48  49  48  45  48  49  49  52  53  55  57  57  58  57  53  51  52  52  52  48  45  44  49  54  65  72  77  84  93  96 102 109 113 119 120 119  53  50  59  60  60  59  50  60  68  71  76  79  77  76  75  74  76  78  81  83  84  86  90
  24  24  23  22  23  22  22  23  23  22  24  24  26  26  26  25  26  25  25  24  23  23  23  23  40  52  57  56  53  48  39  41  44  46  48  47  46  47  48  48  50  53  55  58  57  57  56  52  51  53  51  50  45  42  47  51  59  67  71  78  82  89  97 102 107 112 114 118 116  50  53  61  60  61  57  50  60  66  69  73  75  76  74  74  74  72  74  79  80  79  83  87
  24  23  24  22  22  23  21  23  22  24  24  23  25  24  25  24  26  25  24  24  22  23  21  21  32  51  53  54  52  51  45  35  36  41  45  47  46  48  48  49  50  52  53  55  56  54  49  48  50  49  50  46  41  43  51  56  62  70  73  77  82  87  95 100 103 106 110 114 110  46  53  59  60  58  56  53  60  65  69  73  75  73  72  71  74  73  75  74  78  76  78  82
  23  22  22  22  23  22  21  22  22  23  23  24  24  25  25  24  26  26  24  24  22  21  21  22  25  47  50  52  50  48  47  42  35  35  40  44  47  47  48  50  50  50  50  51  54  49  46  45  44  44  41  42  45  51  56  62  64  68  71  77  82  87  93  96  98 101 107 111 100  47  56  59  58  58  54  54  60  66  68  70  76  74  72  73  73  69  74  73  75  72  74  78
  21  22  22  21  21  22  23  23  22  23  22  22  23  23  25  23  24  24  22  23  22  20  19  21  21  32  47  49  50  48  48  47  45  35  32  37  40  44  46  48  49  48  48  47  43  41  40  40  40  38  41  45  49  55  61  63  66  70  72  76  81  87  90  91  91  95 103 107  89  54  60  56  54  57  56  55  61  63  68  69  72  73  73  72  72  69  69  71  71  70  73  76
  20  21  20  21  21  21  21  22  22  22  22  23  23  25  24  24  24  24  22  23  23  20  18  19  18  20  43  46  46  48  48  48  47  45  41  38  33  36  37  41  42  41  39  39  37  36  36  38  39  40  45  50  55  62  64  67  66  70  72  76  81  83  85  84  85  89  99  99  73  56  57  54  57  56  54  58  63  63  65  68  69  72  71  69  72  70  68  67  68  70  71  75
  21  21  22  21  21  21  20  22  22  22  22  22  23  24  23  23  23  24  24  24  23  20  20  19  18  20  26  41  44  48  49  48  47  47  47  44  43  41  38  34  34  36  36  35  35  36  38  41  45  47  50  53  59  62  68  68  67  69  72  75  78  79  77  81  83  88  92  83  59  55  55  53  53  53  56  60  64  66  67  67  68  69  68  70  71  68  67  66  68  68  68  68
  21  21  22  21  20  20  20  21  22  22  22  22  22  22  22  22  23  22  23  22  19  20  20  19  18  19  19  27  40  45  46  48  47  47  47  45  45  46  45  44  43  43  44  43  43  44  46  47  50  52  54  58  61  65  69  66  66  70  72  72  74  76  73  75  80  85  79  63  52  50  54  53  52  51  55  60  65  68  69  70  70  67  68  68  69  71  68  67  68  67  65  66
  20  21  21  20  20  21  20  21  22  22  22  22  22  22  22  21  22  22  20  21  23  22  21  17  18  18  18  18  28  41  44  45  49  48  47  48  48  47  48  47  47  47  47  46  47  51  52  51  51  55  57  60  63  66  68  68  68  71  70  73  73  71  70  73  76  72  61  53  51  50  53  51  51  52  58  62  65  67  69  70  69  69  68  65  68  68  68  67  69  68  65  65
  20  20  21  20  21  20  20  21  21  20  22  22  22  21  22  22  22  20  20  24  23  22  21  17  19  18  17  18  20  30  43  46  48  47  47  47  47  48  47  48  48  48  48  48  49  52  53  53  54  56  59  63  62  65  68  69  68  70  70  71  70  67  67  70  69  54  48  48  51  50  53  51  50  53  60  62  66  67  70  68  67  68  68  68  67  64  66  65  65  66  65  64
  21  21  21  20  19  19  21  22  21  21  22  21  21  21  21  20  20  20  23  23  23  22  21  20  20  20  20  18  20  20  30  44  46  47  47  49  48  47  48  47  46  48  48  50  50  51  51  52  55  57  58  63  62  64  68  68  68  70  70  68  66  62  61  57  49  48  47  46  47  48  49  49  50  48  60  62  65  66  67  68  69  67  67  65  64  65  64  64  64  62  65  65
  20  20  20  20  20  22  20  20  21  21  22  22  20  20  21  17  21  24  24  24  22  23  21  22  19  20  18  19  17  20  22  27  44  46  48  48  48  47  47  47  48  48  48  50  51  51  51  52  53  56  56  63  63  63  66  66  67  69  66  63  58  53  48  41  42  44  45  44  48  47  49  51  62  65  47  55  62  64  67  64  67  68  70  68  66  64  61  65  64  63  62  62
  19  21  20  21  20  22  20  21  20  19  20  20  20  20  18  21  23  23  22  23  22  24  22  21  20  19  20  19  18  18  18  19  25  39  45  47  48  47  47  48  48  48  49  49  50  52  51  53  55  56  59  61  59  59  63  63  66  66  59  53  47  39  34  41  44  44  45  45  46  48  49  52  72  76  65  43  54  62  66  68  69  66  66  66  65  64  62  65  63  63  65  65
