P2
# Generated by OpenCV 3.4.0
92 112
255
  82  99 107 107 102 105 110 112 112 113 111 113 112 113 113 113 112 113 113 114 115 114 115 114 114 114 114 115 113 109 101  94  84  65  60  52  56  51  50  51  52  50  51  52  52  55  55  58  62  64  69  73  75  79  77  69  66  69  79  88  86  82  85  90 103 103 106 112 105 103 110 109 110 110 115 120 120 119 119 114 116 115 117 117 119 122 120 120 120 118 120 119
  89 103 109 110  98 109 112 112 112 112 112 113 112 112 115 113 112 113 114 114 115 113 115 115 115 114 113 113 106  93  76  57  49  46  45  44  45  43  45  49  52  51  53  53  50  46  45  47  47  47  56  64  63  65  63  61  55  48  45  64  72  70  70  65  78  90  95  97  98 107 110 111 114 108 117 116 119 115 111 111 114 116 118 118 122 123 121 119 118 118 121 121
  91 104 111 110  98 110 111 113 113 113 112 114 114 113 115 112 114 114 115 114 114 114 115 115 116 115 106  91  72  58  50  45  43  41  47  45  46  47  47  51  52  53  53  51  52  50  48  43  42  44  50  51  55  59  55  53  48  40  38  43  45  58  62  63  54  58  71  84  91  99 104 107 109 110 109 106 102 102 109 113 114 117 119 122 123 119 119 115 114 117 122 123
  91 105 109 108  97 110 111 112 113 114 113 114 114 114 115 114 114 115 115 115 117 115 115 112 110  97  69  55  52  47  42  44  47  42  43  46  47  49  48  49  49  53  52  53  54  52  53  57  64  69  71  59  47  42  43  48  46  40  34  30  33  39  49  54  53  52  52  57  76  91 101  95  98  93 101 110 108 107 106 110 117 118 121 121 118 116 114 106 112 119 124 123
  96 106 110 110  98 112 113 113 114 112 113 114 113 115 114 114 115 114 115 116 116 114 115 108  85  63  57  50  47  46  44  47  45  41  41  43  44  44  43  42  41  42  39  43  46  48  50  58  74  73  67  61  50  39  33  34  39  35  34  32  28  30  37  46  48  47  45  45  48  66  75  78  84  92  96 104 102 103 106 111 114 119 121 116 116 114  96 106 115 119 120 124
  99 108 111 110 100 112 111 112 113 114 114 113 113 114 113 115 115 116 114 115 115 115 107  76  54  55  57  53  50  48  44  40  35  30  30  30  32  35  35  33  36  36  36  38  42  47  51  53  50  45  46  44  40  37  32  29  30  31  28  29  24  25  31  39  42  42  44  44  50  54  58  69  72  76  81  87  93 103 103 100 102 104 109 111 108  93 103 105 113 121 124 124
 100 107 111 109 100 112 113 113 113 114 115 115 115 115 116 116 115 116 114 115 113 102  79  56  52  60  58  58  49  44  40  37  34  31  31  31  31  34  34  37  39  38  37  41  47  48  46  51  64  68  49  37  31  33  26  25  24  27  24  25  25  24  28  32  34  40  44  50  50  49  51  58  64  67  70  81  86  91  94  92  93  92  94  94  91  95 100 112 121 123 125 125
 105 110 111 111 100 113 113 114 115 114 115 114 114 115 114 115 115 116 115 112  97  72  52  42  44  52  54  47  43  40  39  38  34  34  34  34  34  33  33  33  33  34  35  37  38  40  42  41  43  43  39  35  30  27  24  21  19  21  24  24  24  26  29  31  42  50  50  46  44  48  50  55  55  57  63  68  74  84  86  80  81  79  75  79  91 103 115 120 124 124 125 126
 107 109 111 108 103 114 114 114 116 115 116 115 115 114 114 115 116 114 110  97  71  52  43  50  51  52  49  45  38  35  38  38  33  32  32  30  30  30  32  32  32  30  33  36  37  40  39  37  28  26  27  26  23  23  17  18  16  16  20  24  22  24  27  38  50  46  41  41  45  48  45  46  48  54  63  68  74  90  88  81  73  73  80  97 105 111 116 121 125 125 125 126
 107 111 112 103 104 114 114 115 115 114 116 115 114 113 116 114 113 111 101  72  48  48  49  54  51  47  47  41  36  37  35  34  29  29  29  30  30  31  31  33  34  33  34  36  39  42  46  44  45  40  32  25  23  23  18  18  18  16  17  22  21  26  33  40  35  34  34  36  37  38  40  43  51  53  63  66  73  80  70  66  71  83 101 103 108 113 113 120 123 123 125 125
 109 111 112  99 110 115 115 114 115 114 115 116 115 115 116 113 111 103  80  49  46  50  48  47  47  47  44  41  38  34  34  31  28  28  28  30  31  33  34  30  32  34  33  36  40  42  42  43  41  39  35  30  25  22  27  19  13  14  15  22  23  26  30  27  24  29  30  31  32  35  36  41  44  51  55  56  55  56  67  73  84  92  95  98 101 103 102 108 116 122 125 125
 108 112 114  97 111 115 114 115 115 115 114 115 117 115 116 115 110  96  56  46  44  42  43  44  43  50  49  44  38  34  35  32  31  30  31  31  31  29  30  30  31  34  34  36  47  54  51  44  37  31  27  28  30  28  20  15  12  15  17  18  22  22  21  21  23  24  24  27  31  31  33  34  40  46  48  51  50  51  56  61  72  87  90 104  99  98 106 116 123 126 125 126
 110 114 113  99 113 116 115 115 115 115 115 115 117 116 115 114 105  72  47  41  39  39  38  40  43  47  46  38  36  37  36  34  31  29  30  30  29  30  30  30  30  30  32  34  42  46  45  41  36  30  25  22  19  20  17  14  13  14  16  16  18  15  15  16  21  23  22  25  27  28  28  31  32  37  40  44  44  45  48  56  66  78  91 101 110 114 121 124 125 126 127 127
 112 113 113  94 115 116 117 117 116 116 116 116 116 117 114 112  84  48  41  37  35  35  38  39  46  45  39  35  33  32  30  28  29  29  30  29  27  25  25  27  27  29  33  38  46  47  45  35  29  26  22  17  15  16  16  17  15  14  14  15  14  15  14  16  16  19  23  25  28  28  30  37  37  38  38  38  40  43  46  53  67  88 101 110 119 123 126 126 126 127 126 129
 111 112 113  96 113 116 117 116 117 117 116 116 116 116 111  91  48  42  35  31  32  34  39  45  45  34  28  27  28  26  26  28  29  25  24  23  24  27  28  30  31  31  33  39  42  40  36  26  24  21  19  19  18  17  15  16  15  15  15  15  15  15  15  17  18  21  22  25  29  37  42  48  46  46  42  39  41  45  58  70  83  99 109 113 123 127 127 127 128 130 129 130
 113 115 115  99 114 117 117 116 116 117 117 119 117 113 103  55  42  34  33  32  33  34  36  36  38  32  30  29  29  28  28  26  25  23  26  28  29  30  30  28  28  30  31  29  28  23  18  18  19  18  20  19  18  19  19  19  19  22  18  19  19  19  22  21  21  21  21  24  27  33  39  42  47  46  43  42  41  53  76  89 100 112 118 120 127 129 130 129 128 130 130 132
 113 115 113  99 114 114 117 119 117 117 117 120 118 112  90  50  40  31  31  32  32  32  34  34  29  22  22  25  27  28  28  27  28  27  27  28  27  26  26  24  23  20  20  19  17  19  21  21  23  25  26  24  26  25  26  25  29  29  30  29  28  26  25  22  20  21  22  27  30  30  31  33  34  37  44  46  47  51  71  90 106 110 121 125 128 130 130 130 130 131 130 131
 114 115 114  98 115 116 118 117 118 119 119 118 117 111  83  50  33  30  30  29  29  31  30  27  21  16  16  16  19  18  20  18  19  19  21  22  20  21  20  21  20  18  18  19  20  24  24  26  29  30  33  33  33  36  38  38  40  45  47  45  46  40  37  31  26  23  20  24  25  27  29  33  34  32  33  37  38  42  50  68 101 119 126 130 130 130 131 132 132 132 133 131
 114 115 113 101 117 118 117 118 118 118 119 119 116 108  83  42  30  28  29  30  29  26  26  21  14  12  11  12  14  16  17  19  20  21  21  23  21  22  22  22  23  22  22  24  26  29  29  32  32  34  38  43  43  45  48  51  56  64  67  63  65  58  50  42  36  29  23  18  16  19  20  24  26  29  31  32  36  41  47  52  83 111 125 129 131 133 134 133 134 134 136 136
 115 116 111 105 115 117 120 120 119 119 120 120 116 105  69  35  28  24  30  29  25  25  23  17  12  11  14  16  16  18  21  25  25  26  28  26  28  26  27  28  28  30  28  29  32  32  34  37  39  39  42  48  51  57  59  62  68  74  77  76  75  71  62  54  50  42  32  22  17  17  17  19  24  25  26  32  39  40  43  52  72  98 119 127 132 134 135 134 135 134 136 138
 116 116 107 107 119 119 120 119 120 121 121 120 115 103  59  34  24  25  29  27  24  24  21  13  11  14  14  18  21  24  26  29  30  29  30  29  30  30  31  31  31  32  33  34  35  35  37  41  43  46  50  56  60  65  64  68  77  81  84  82  78  76  70  64  59  54  45  32  21  18  19  22  24  24  25  32  40  42  40  48  69  94 116 128 133 134 138 137 138 136 138 140
 120 123 106 118 120 119 120 120 120 122 121 121 116  92  44  30  24  29  29  29  26  25  19  12  14  16  19  22  25  28  30  33  32  32  33  32  33  32  33  33  33  34  36  38  39  41  42  44  49  56  63  71  78  79  75  78  85  89  89  90  90  87  79  69  63  62  55  43  28  23  20  21  24  24  26  31  38  44  43  47  60  90 114 128 134 136 136 138 138 138 139 143
 123 129 108 134 127 122 122 121 121 121 122 120 116  85  45  30  26  30  31  29  26  25  17  14  16  20  24  27  31  32  35  38  40  39  38  39  39  40  40  41  42  40  41  44  45  47  48  55  62  68  77  81  86  85  85  85  93  97  93  98 100  96  89  81  69  66  67  55  41  25  19  22  24  24  26  31  36  43  45  48  60  98 121 133 138 138 138 139 139 138 139 142
 125 130 107 134 132 126 121 122 122 122 122 122 115  88  49  33  28  27  29  27  28  24  16  17  20  25  29  30  35  38  42  44  47  47  46  47  48  48  51  51  51  51  52  53  52  54  57  62  65  67  74  76  77  75  76  75  81  88  80  85  94  92  88  87  79  71  71  67  54  35  22  20  21  24  26  30  33  37  43  50  65  97 122 135 139 138 139 139 139 140 142 142
 127 128 109 132 132 127 123 123 122 123 122 122 119 100  53  36  25  26  28  27  26  23  18  22  25  30  31  35  40  44  48  50  50  48  48  49  50  50  52  53  53  55  55  57  56  56  58  60  62  64  68  70  70  72  71  73  74  81  80  88  92  89  85  81  79  78  75  71  65  48  27  20  18  23  25  29  30  37  48  54  67  95 122 138 139 139 140 140 140 140 144 144
 129 128 106 130 134 131 125 124 123 124 124 123 121 107  59  35  24  23  26  25  25  21  19  25  30  33  38  41  47  51  51  49  49  49  50  52  51  52  53  53  55  55  56  58  54  55  56  59  63  66  70  73  73  75  79  86  95 103 107 110 107 104  94  86  79  74  76  78  71  59  35  25  18  19  22  26  30  34  46  58  73 100 121 135 140 140 142 142 143 142 144 145
 129 127 104 131 133 134 131 127 125 124 124 124 123 112  58  35  24  20  23  21  23  21  22  30  33  38  44  48  47  48  50  51  57  58  60  60  58  56  54  55  55  54  55  57  58  61  64  67  72  76  81  82  84  86  88  90  98 101 104 103 106 105  99  95  90  79  73  76  76  66  46  27  22  19  19  24  29  33  42  55  73 106 124 136 142 142 143 145 146 145 145 146
 130 128 104 131 134 135 135 130 126 125 124 124 123 108  61  35  23  19  23  20  20  23  29  35  39  43  46  48  51  55  57  61  64  66  65  65  61  58  57  59  60  60  63  64  67  69  72  76  79  80  84  82  80  80  80  83  83  85  87  88  88  86  85  88  90  88  84  75  77  74  57  31  22  19  18  22  26  31  38  52  77 103 130 135 143 144 146 146 145 146 145 147
 131 129 109 132 134 137 137 134 129 126 125 124 123 111  54  34  22  19  21  19  18  24  34  41  44  46  48  55  57  56  58  62  64  66  68  67  65  63  63  61  63  64  66  68  67  70  74  77  78  78  78  76  73  72  71  73  74  71  70  68  71  74  76  77  79  82  88  86  80  79  62  36  25  20  18  21  26  30  35  51  82 117 132 138 145 145 146 146 146 146 147 149
 134 128 107 133 132 134 137 135 132 128 126 125 124 115  51  30  21  18  22  20  20  27  42  46  48  51  53  55  54  57  57  62  64  66  68  69  68  67  66  67  68  66  66  68  69  70  73  74  74  72  70  69  66  68  70  70  67  66  64  67  73  81  89  88  87  84  84  87  88  82  70  43  27  21  20  22  25  30  33  55  96 128 138 141 145 147 148 149 147 148 149 151
 132 126 115 134 133 133 135 137 135 131 128 126 127 121  45  29  20  17  18  20  22  33  50  54  54  55  56  57  57  60  63  66  66  65  66  68  66  66  68  68  68  71  69  68  68  68  69  71  72  69  68  66  67  69  75  81  87  94  95 100 106 107 110 109 104 103  98  91  89  88  76  50  31  24  21  22  24  29  37  56 111 140 146 147 147 148 150 149 149 150 150 154
 132 116 121 134 134 134 135 135 136 135 130 127 127 122  43  30  21  17  19  21  26  40  60  67  67  66  65  70  71  74  77  74  73  70  72  67  65  64  63  64  66  69  73  70  70  70  71  71  70  67  67  67  71  76  84  91  98 103 105 106 104 107 111 112 113 111 107 103  98  95  82  55  33  25  24  22  24  30  40  61 112 141 148 148 149 151 151 150 150 152 153 154
 131 109 123 131 132 132 132 133 133 133 131 128 126 120  45  34  20  18  19  22  30  45  69  75  78  84  84  85  84  83  83  82  82  82  81  79  75  71  65  61  62  66  68  69  70  71  73  72  70  70  70  72  71  76  80  82  89  87  87  92  98 104 106 108 108 109 110 109 106 104  87  60  36  26  25  24  25  31  45  70 126 143 150 151 151 152 152 153 153 154 155 155
 130 103 128 131 131 131 131 133 130 132 131 131 129 125  45  36  21  20  20  25  34  52  74  79  87  93  93  92  87  85  83  81  80  80  74  73  74  73  76  71  68  67  68  68  72  74  75  76  73  73  72  71  69  72  74  76  82  86  89  95 103 107 107 107 106 108 110 111 110 109  95  66  41  27  25  25  27  31  47  75 134 149 152 152 152 154 153 154 155 154 155 156
 129 102 130 131 130 130 131 131 131 132 132 131 130 126  47  34  24  22  22  26  34  56  76  83  90  94  95  91  82  82  76  72  70  67  64  61  64  68  75  76  74  72  70  68  72  74  77  77  76  76  72  69  70  70  70  70  77  82  85  88  90  92  90  91  98 102 110 112 109 109 100  69  41  30  25  27  28  33  49  72 130 149 152 154 154 153 155 156 156 156 156 156
 129  98 131 131 131 130 131 132 131 131 132 130 131 128  54  35  24  23  27  26  35  58  77  86  93  93  90  86  76  67  59  59  56  56  56  56  59  62  66  73  76  75  71  71  69  74  74  78  79  76  72  69  69  73  70  63  63  66  70  77  81  79  78  76  79  89  94 100 108 110 105  74  44  31  27  30  31  32  44  67 129 149 153 154 155 155 155 157 157 156 157 158
 129 103 130 133 132 133 133 132 131 132 132 132 131 127  68  34  25  24  25  26  35  60  80  92  92  83  77  72  62  54  47  49  55  55  54  52  50  54  61  69  75  75  72  72  70  73  74  78  79  78  74  72  70  68  63  53  52  57  56  60  67  68  65  65  65  61  66  74  93 110 109  78  42  32  30  35  34  33  42  65 131 151 154 156 155 155 156 157 158 158 159 160
 131 104 132 131 132 134 133 132 132 133 133 134 133 129  77  35  26  27  27  27  34  63  84  89  81  66  53  48  42  37  33  30  29  36  35  37  41  47  51  62  70  74  74  70  70  72  74  77  78  78  76  73  69  64  55  46  37  32  32  33  33  35  41  44  46  47  48  51  61 106 111  86  44  33  32  38  37  37  46  67 138 153 156 158 157 157 158 159 160 161 162 162
 131 107 134 134 134 135 136 133 134 135 135 135 134 129  85  33  28  24  27  28  38  68  84  85  62  41  34  32  31  27  25  26  25  24  23  24  30  37  43  52  64  70  73  70  69  71  74  73  74  76  75  71  63  57  49  36  29  31  29  30  30  29  30  33  34  36  40  43  48  67 104  94  50  32  34  33  34  40  56  70 132 154 157 157 158 159 160 161 161 163 162 163
 132 108 135 135 135 136 137 135 135 137 136 135 134 129  72  35  27  25  28  28  43  73  82  72  38  32  29  27  23  24  24  24  25  25  24  24  26  31  41  48  60  67  69  69  70  69  70  72  71  71  72  67  61  54  42  35  34  31  31  30  28  28  30  32  39  42  48  54  50  48  65  90  57  32  34  32  33  42  69 109 142 155 159 161 160 162 161 162 163 162 163 165
 128 113 137 136 137 137 138 136 136 138 137 135 135 127  69  35  27  25  26  29  51  78  72  48  36  37  39  35  33  30  29  28  26  28  28  29  31  33  41  47  56  65  66  66  69  68  68  70  69  70  69  65  60  52  46  43  41  36  37  36  38  43  48  52  57  61  62  68  67  66  67  72  64  33  34  35  38  43  72 129 153 159 161 162 162 163 164 166 165 165 166 166
 124 119 137 137 138 136 138 138 138 139 137 138 137 128  67  33  28  25  25  30  57  73  49  43  48  47  51  51  50  50  48  44  40  38  38  38  39  42  44  52  59  63  65  66  67  66  68  68  68  69  67  63  61  54  51  49  50  51  51  50  53  56  59  62  64  66  71  77  80  78  77  70  64  34  32  32  40  54  87 140 157 160 162 162 163 164 165 167 167 168 167 166
 114 126 138 139 139 139 140 140 138 139 141 138 138 133  72  32  29  25  23  32  63  59  47  60  63  63  61  59  56  54  53  52  49  47  48  46  48  49  49  54  58  62  63  65  66  65  65  68  69  69  67  65  62  61  59  60  61  58  56  55  55  54  58  62  67  69  73  80  86  91  92  88  64  33  29  34  41  59 118 150 160 162 163 165 166 166 168 168 169 168 168 169
 113 132 141 140 140 140 140 141 139 140 141 141 139 137  95  32  31  25  23  36  70  56  64  63  69  67  62  59  57  53  51  50  47  46  47  47  49  51  52  54  59  60  62  65  67  62  65  68  68  68  67  66  64  64  64  63  59  54  48  44  44  44  47  52  60  65  70  78  87  97  98  97  76  36  28  35  46  67 123 156 163 164 165 167 168 168 169 169 170 170 169 170
 109 141 143 142 142 142 142 142 142 141 143 142 141 140 107  37  32  26  22  39  65  64  67  71  72  64  58  53  49  45  41  37  34  35  40  43  46  49  52  52  54  56  61  64  63  64  65  67  69  69  70  68  65  66  62  59  52  43  32  27  28  30  32  34  39  50  58  68  81  95 106 111  94  38  29  38  48  75 129 155 164 166 168 167 167 169 171 170 170 170 170 170
 109 143 142 143 143 142 143 142 142 142 143 143 143 139 128  42  30  27  22  41  69  74  74  75  69  59  49  40  34  31  30  27  26  27  27  31  40  45  47  49  50  53  59  60  64  67  66  68  69  69  69  67  66  62  55  51  39  28  28  28  30  31  33  34  38  41  43  58  74  90 106 113 108  42  30  35  51  90 142 161 167 168 168 169 170 170 171 170 173 172 173 174
 113 143 144 144 143 143 144 144 145 144 144 144 142 140 131  46  31  28  23  46  75  81  80  75  63  50  38  32  31  29  28  27  31  31  31  28  29  40  46  46  47  50  54  59  64  66  69  70  70  69  68  66  62  55  51  40  27  27  24  19  19  22  41  44  39  38  44  48  64  81 102 115 115  54  33  39  60 110 150 164 167 169 170 170 170 170 172 172 173 172 173 175
 107 145 145 144 145 145 146 145 146 145 146 145 144 143 130  66  33  27  25  47  78  83  80  69  55  36  29  26  24  24  18  18  28  33  30  32  32  30  41  45  46  48  52  57  63  67  70  71  70  71  70  67  59  51  43  28  28  22  16  18  27  26  37  66  63  46  40  49  55  77  94 120 125  69  36  43  70 136 159 167 169 170 170 171 171 172 174 175 174 175 176 176
 106 145 147 146 146 146 149 146 145 145 147 145 146 145 134  78  34  27  26  50  81  84  79  66  47  32  28  26  20  24  19  22  30  54  52  39  33  32  32  41  45  46  49  55  62  68  74  76  74  72  71  65  57  48  34  30  28  19  19  20  22  36  46  78  85  79  46  44  48  70  96 121 127  78  38  49  92 153 166 170 170 170 171 173 173 174 175 176 177 177 178 179
 114 148 148 147 147 147 149 149 148 147 147 147 147 145 142 119  41  32  28  52  84  87  80  65  42  32  31  32  22  20  20  27  40  78  74  64  48  33  32  34  42  45  50  56  62  69  76  74  73  73  71  66  53  41  34  31  37  24  23  21  25  29  51  90  91 100  74  58  58  72  94 120 131  97  43  57 128 162 168 170 171 171 174 175 176 177 178 178 178 178 180 183
 119 149 148 148 149 150 150 149 149 147 147 149 147 147 145 133  67  40  29  60  87  87  80  66  46  42  40  54  27  25  27  34  67  87  84  76  63  44  32  34  38  44  49  56  62  69  81  81  75  74  71  65  52  43  33  32  45  44  29  27  28  46  81  94  97 106 107  81  68  76 101 126 135 114  46  87 156 164 163 168 172 174 175 176 178 177 179 181 181 184 185 184
 124 150 150 151 152 151 151 150 151 148 150 150 148 147 142 109  71  39  33  70  88  89  81  66  52  47  54  82  39  31  40  60  89  92  87  76  58  46  41  34  41  45  52  58  66  80  96 100  91  78  74  66  54  47  38  36  41  51  56  57  62  77  85  92  98 107  99  91  81  84 108 131 138 125  56  98 134 102  93 164 173 175 176 177 180 181 179 182 184 185 185 186
 133 151 152 152 154 153 152 150 150 151 150 150 149 148 129 105  87  53  34  74  91  90  84  75  62  58  70  79  73  66  72  78  82  84  82  72  53  41  41  36  41  48  53  60  76 100 116 126 118  91  78  71  58  50  46  45  42  44  48  54  59  67  76 107 114 101  99 105 101 106 120 135 143 134  58  92 104  90  75 152 173 176 177 179 182 184 182 182 184 185 186 186
 146 154 154 154 154 154 152 153 152 151 152 151 151 149 114  64  84  66  38  77  93  95  90  83  77  76  66  68  81  75  62  60  58  59  55  52  50  50  47  41  43  50  59  69 101 122 134 142 140 111  84  76  67  55  48  44  45  45  47  50  57  62  70  71  74  79  95 111 120 127 139 142 146 141  66  76  94  90  72 151 174 177 178 180 184 183 182 184 183 185 186 187
 157 156 156 156 154 155 156 155 155 153 152 154 153 149 106  56  65  68  42  83  94  97  96  91  91  86  78  62  54  56  52  53  52  50  50  49  47  46  43  43  48  56  63  86 125 137 143 158 162 136  98  79  72  64  54  48  48  48  47  49  52  57  63  65  71  81  98 118 135 149 150 150 147 143  77  69 100  84  74 157 175 177 180 182 184 183 183 185 184 186 185 187
 158 159 158 159 158 158 158 155 155 154 154 153 154 151 110  55  56  62  44  85  91  99 101 104 102  93  84  67  58  52  51  51  48  47  47  46  45  46  48  50  57  63  72 103 141 148 154 173 191 155 118  89  80  75  66  59  55  54  51  52  56  57  62  68  74  86 105 127 149 159 160 156 149 144  90  68 116  72  80 168 177 178 179 182 183 184 185 185 185 185 185 186
 160 160 160 159 159 158 157 159 156 155 156 154 153 153 125  57  68  64  46  87  95 100 104 107 106  99  89  74  61  54  52  50  49  47  47  48  50  51  55  60  67  70  84 109 148 154 157 173 183 153 134 106  91  85  79  71  63  61  58  57  58  61  65  69  77  93 114 137 155 164 162 159 150 144  98  58 107  68 105 171 177 177 180 181 182 183 184 185 184 185 186 186
 158 158 159 160 161 160 160 159 158 156 157 157 155 155 149  64  75  65  47  89  97 100 106 109 112 104  97  83  71  60  55  53  51  51  50  53  55  58  65  70  75  81  96 109 140 151 157 174 167 150 140 122 104  98  90  85  78  68  65  64  65  66  71  75  88 108 128 144 157 162 162 159 150 144 103  58  96  73 131 174 179 180 182 181 184 184 183 185 185 186 186 187
 156 158 159 160 159 160 158 159 159 158 159 157 156 155 153 104  83  60  43  85  98 102 107 107 110 106 100  91  80  72  62  59  55  53  54  55  60  65  72  78  84  89 102 108 136 150 154 169 162 146 143 132 121 110 102  95  92  85  74  70  69  70  75  82 100 118 135 150 158 161 163 159 151 144 106  53  95  89 162 176 179 180 183 184 184 184 185 186 185 186 186 188
 158 159 159 160 159 160 160 159 159 159 158 158 155 156 156 144  85  61  41  88  98 100 105 107 107 105 101  90  85  76  68  60  59  59  60  62  68  72  80  86  92  98 103 107 129 142 150 164 158 148 144 140 130 121 112 104 101  96  90  81  78  76  79  89 106 123 136 146 154 156 156 154 152 146 102  59  91 122 174 179 181 183 183 184 184 186 187 186 188 188 187 189
 159 160 159 157 159 159 159 161 160 159 159 159 158 158 156 153 107  65  44  85  95  99 101 103 104 103  99  95  90  82  72  68  66  65  68  69  73  75  83  92  98 101 104 109 122 134 141 158 156 147 146 144 139 128 120 113 107 104 100  95  92  91  92 100 112 125 134 139 144 147 146 146 148 144  97  64 108 161 177 180 181 183 184 184 184 186 187 186 187 188 188 188
 160 161 162 160 161 160 160 160 158 161 160 160 159 158 156 155 123  67  46  81  93  95  98  98  98 100  97  94  93  88  83  80  78  77  74  76  77  80  88  97 102 105 106 109 123 134 139 152 152 148 146 146 142 134 125 120 112 107 104 105 104 106 107 109 118 124 131 133 133 136 136 139 143 141  96  78 133 173 179 180 184 184 184 184 185 187 186 188 188 188 189 188
 161 161 162 160 161 162 161 161 161 161 160 160 160 158 158 156 134  77  48  72  91  94  93  92  90  92  89  89  87  87  85  85  85  83  81  80  82  86  92  96 100 103 107 114 129 132 139 159 159 150 149 147 141 136 127 125 119 115 112 109 112 114 114 115 115 118 120 120 124 131 130 133 141 138  93 105 161 178 180 181 184 185 185 186 186 188 188 187 188 188 188 189
 160 162 163 162 162 163 162 161 162 162 162 161 161 161 160 160 142  95  51  68  91  92  88  86  85  86  85  84  84  85  87  92  92  94  87  88  88  89  91  91  98 102 108 120 134 132 141 161 160 154 152 150 144 134 126 124 124 119 119 119 119 121 125 124 124 118 116 118 120 123 127 121 132 133  96 124 173 180 183 184 184 186 187 187 188 187 187 187 189 188 189 191
 162 163 163 162 162 163 163 161 162 162 161 162 162 161 161 160 155 106  84  63  92  91  84  82  82  82  81  83  85  88  90  93  95  93  92  92  91  87  86  85  93 102 114 126 135 135 140 157 165 162 157 154 146 133 120 120 121 122 124 124 124 126 130 131 127 127 123 121 121 124 124 113 130 131 105 150 178 181 182 184 184 186 188 188 189 189 189 189 191 191 191 191
 164 163 163 162 163 162 163 162 163 162 162 163 162 161 162 161 160 136 101  66  90  89  83  81  78  81  82  86  88  88  95 101  99  97  95  93  88  82  78  83  98 107 121 138 138 134 140 154 163 164 162 156 151 142 120 109 113 118 123 126 126 128 130 132 127 128 128 128 126 124 121 118 132 135 145 174 181 182 186 187 186 188 190 188 188 190 191 191 192 192 192 192
 165 164 164 164 163 164 164 163 164 163 163 163 161 163 162 162 161 153 110  79  89  89  82  79  78  80  85  86  89  90  92  97  97  96  98  89  82  77  70  85 102 113 125 134 134 131 132 145 154 163 164 158 155 150 127 102 105 112 121 124 127 130 134 132 130 128 128 125 125 127 122 124 133 144 170 179 185 186 186 187 188 191 190 191 191 191 191 192 193 193 193 192
 163 165 166 164 165 164 163 164 164 165 164 164 165 164 164 162 162 157 119  98  87  88  85  79  79  80  85  87  89  88  92  93  93  90  90  82  77  69  68  94 109 114 120 124 122 122 124 132 143 150 155 158 158 157 142 105  97 105 117 123 124 128 131 130 128 128 125 124 126 126 123 126 130 138 166 180 185 185 186 187 188 190 191 192 192 190 192 193 194 194 193 193
 166 167 165 166 166 165 165 164 165 163 165 166 164 163 165 163 164 158 109  92  84  87  84  80  80  81  83  87  87  88  88  89  88  88  84  80  71  66  74  98 104 111 114 113 111 113 116 123 132 135 141 151 155 155 149 119  96  98 109 118 124 124 124 130 128 129 125 125 125 125 124 125 128 125 157 180 184 186 186 187 190 191 192 191 191 192 192 192 193 194 194 194
 168 165 166 166 166 166 166 165 166 166 165 165 166 166 165 165 164 162 120  72  80  87  85  84  82  84  85  86  87  87  92  90  89  83  67  74  70  69  81  92  95  97  99 103  99  98 101 108 117 124 128 136 141 140 142 126 101  96 107 114 121 125 124 125 129 128 125 121 124 126 122 124 125 140 175 184 184 184 187 187 188 189 190 191 192 192 192 192 193 193 193 194
 168 167 167 166 166 167 167 167 167 167 166 166 166 167 166 165 166 164 161 142  93  85  83  82  83  84  86  86  87  88  89  90  87  81  76  70  68  69  78  84  81  80  82  83  84  82  83  91  99 105 108 116 117 114 120 117 106 101 100 107 112 122 121 119 124 127 126 122 125 125 120 125 126 167 182 185 186 185 188 188 188 189 190 190 191 192 193 191 193 194 194 193
 168 167 168 168 168 167 168 168 167 167 167 166 167 168 166 166 166 167 164 159 108  83  85  83  81  83  84  86  87  89  88  88  84  81  76  72  72  71  70  70  58  54  61  66  70  70  70  73  78  83  86  88  74  79  91 103 108 110 106 107 109 117 122 120 120 124 125 123 124 125 122 123 129 174 184 186 186 187 188 189 189 190 190 191 192 193 195 193 193 195 194 193
 169 168 168 168 168 168 169 167 167 167 168 168 168 168 167 167 168 167 165 161 122  83  83  85  84  84  86  86  87  86  87  87  84  79  76  77  83  78  64  60  51  38  38  57  59  62  64  68  69  72  78  54  48  63  88 112 121 121 112 109 112 117 121 122 119 123 126 127 127 125 124 122 132 178 184 187 188 187 188 188 188 189 190 191 192 192 194 193 193 194 195 197
 168 169 168 168 169 169 168 168 168 168 168 168 168 168 168 167 167 166 166 163 136  81  83  85  84  87  87  86  83  86  86  84  80  80  79  83  89  85  76  63  48  44  43  46  55  60  61  63  67  69  61  55  50  61 108 125 130 130 124 113 110 114 118 119 117 123 126 129 127 124 122 120 139 179 186 187 188 187 188 189 192 191 190 192 192 192 194 193 194 196 195 196
 169 169 169 168 168 169 169 169 168 169 169 168 168 168 168 169 168 167 166 163 157  79  80  84  85  85  87  86  83  83  85  82  81  81  82  89  90  90  88  80  64  44  43  44  46  54  60  63  64  57  54  54  55  75 126 134 136 134 129 121 117 116 116 117 116 118 124 126 124 125 122 119 148 183 186 187 187 188 190 191 190 191 192 192 192 193 194 194 195 196 196 196
 168 168 169 169 171 169 169 168 169 168 169 169 168 167 167 168 168 168 165 164 161  94  78  82  85  85  85  82  81  82  81  82  84  83  89  92  91  89  88  86  83  65  50  42  46  48  50  53  54  54  56  60  69 104 130 134 136 136 134 126 119 118 119 119 120 118 122 123 122 124 122 120 162 184 186 188 189 190 191 192 192 193 193 193 192 192 194 196 196 197 195 199
 169 169 169 169 170 170 170 169 170 169 168 168 168 168 168 168 169 168 167 164 161 111  79  81  82  85  84  82  81  81  83  86  85  86  93  94  91  88  88  85  86  82  70  55  51  49  51  50  54  57  60  72  95 118 130 135 136 137 135 130 124 119 119 119 118 115 120 122 121 120 120 121 172 185 188 188 190 190 192 192 192 193 193 194 195 195 194 194 196 198 196 197
 170 172 171 170 170 170 170 170 169 168 168 168 167 167 169 168 168 168 168 165 163 133  81  79  81  82  81  81  82  82  86  85  86  88  91  90  89  86  85  82  83  83  79  64  55  55  52  50  53  60  68  89 108 125 131 132 136 134 133 133 127 123 120 120 118 118 118 121 118 113 115 131 179 186 188 189 189 190 192 192 192 190 192 195 194 196 197 196 196 195 195 198
 171 171 172 170 170 170 171 172 170 169 168 168 168 167 168 168 168 168 168 167 166 154  82  76  79  82  80  79  79  79  84  83  85  84  86  86  84  82  82  82  78  75  74  64  61  55  49  50  55  66  78  99 109 122 128 130 129 129 129 128 124 122 121 120 119 117 114 116 112 108 118 141 181 185 188 188 190 190 189 192 192 192 194 194 194 194 195 196 196 196 197 198
 172 171 171 169 170 170 170 171 169 169 168 168 169 168 168 168 167 168 167 167 167 163  90  77  77  82  79  79  80  80  82  82  82  81  82  83  81  81  78  77  72  69  69  66  58  53  47  46  56  70  87  97 105 114 121 124 124 123 122 116 119 119 120 120 119 114 113 111 106 110 117 152 183 186 188 189 188 191 191 192 191 191 192 193 194 194 196 198 197 196 197 196
 171 171 169 171 170 171 170 170 170 169 169 168 168 168 168 168 168 167 168 167 166 163 106  76  74  79  77  78  80  81  80  79  80  78  79  77  75  77  76  74  72  72  73  69  60  53  43  40  54  82 107 112 110 108 109 111 113 110 109 109 110 113 115 120 121 116 113 110 105 105 117 168 184 186 187 188 190 190 190 190 191 190 192 193 193 194 195 196 195 197 197 198
 169 170 170 171 171 170 170 169 169 169 169 168 168 167 167 168 168 168 167 167 167 165 127  78  75  76  74  77  79  80  79  76  74  70  70  71  66  70  72  68  69  73  78  80  75  67  55  53  76 101 116 119 117 108 104  95  90  94 102 102 102 104 105 113 119 115 112 107 108 107 121 179 186 186 188 188 188 190 191 191 190 191 192 192 194 194 193 194 196 197 196 198
 170 171 171 170 170 169 169 169 168 169 169 168 168 168 167 168 166 167 167 168 167 166 149  80  70  69  72  74  75  74  72  71  69  66  65  62  59  61  65  66  69  74  76  72  69  73  77  77  87  88  92  97 104 105 106  93  80  82  90  92  95  98 103 110 112 112 110 106 106 108 139 179 186 186 187 188 188 189 191 191 191 191 192 192 194 194 195 193 195 196 197 196
 170 170 170 169 169 169 169 168 168 168 168 168 168 168 167 167 167 168 168 168 168 167 162  92  68  65  68  71  72  69  68  65  59  56  55  56  51  54  62  67  67  61  52  49  47  51  60  68  59  54  55  59  67  81  94  90  75  73  76  79  86  92  98 103 108 112 109 106 105 107 155 183 185 187 188 189 188 190 191 192 192 192 192 193 193 193 195 196 195 197 197 197
 169 170 169 170 169 169 169 168 168 168 168 168 168 167 168 167 167 167 168 168 167 167 164 119  72  61  64  67  70  66  64  60  54  53  50  47  44  48  54  56  47  43  41  40  40  42  42  45  46  47  48  52  54  55  59  69  64  61  62  68  74  82  89 100 106 108 106 105 103 113 175 184 188 188 188 190 189 190 191 192 192 192 193 193 194 194 195 195 196 197 198 197
 170 169 170 168 168 169 168 167 168 168 168 168 168 166 168 167 168 166 167 168 168 168 167 141  74  62  64  67  66  63  60  55  50  48  44  38  35  38  39  37  36  35  36  39  37  36  38  41  43  40  42  43  42  40  40  41  44  43  49  58  68  73  81  93 102 103 103 105 104 127 179 183 187 187 188 188 190 189 192 192 192 192 193 193 194 194 195 195 195 198 198 197
 170 169 170 169 169 168 167 168 168 168 168 168 167 168 168 167 167 168 167 167 167 167 161 123  73  64  64  63  62  62  59  52  45  43  36  31  28  25  26  25  18  16  17  20  24  26  25  25  26  21  17  19  20  25  29  29  30  39  46  54  61  68  77  89  95  98 101 103 101 158 182 186 187 187 189 189 190 190 191 192 192 192 194 194 193 195 196 195 196 197 197 198
 170 169 169 169 168 168 168 167 168 168 168 168 168 168 166 166 167 168 165 161 137 109  73  55  61  64  61  62  61  60  55  49  46  42  39  39  35  33  33  32  29  25  22  21  20  23  22  23  25  24  24  28  34  39  47  48  50  56  55  58  61  67  74  86  91  95  99  99 106 180 183 186 186 187 188 190 189 191 192 192 193 192 193 194 195 194 195 195 196 197 195 198
 168 170 170 168 168 168 168 168 168 168 166 168 167 167 167 165 163 139 106  79  69  62  44  44  50  65  61  59  61  56  51  47  46  46  44  47  48  48  48  51  52  54  47  37  34  34  33  35  37  38  44  49  52  64  75  77  80  78  67  66  64  68  73  84  87  91  95  94  89 111 164 185 186 188 187 189 190 191 192 192 192 194 193 192 194 194 195 196 197 195 195 197
 169 169 169 168 169 168 169 168 168 168 168 167 166 165 144 107  76  66  62  59  57  46  39  40  44  59  60  57  57  51  50  47  48  49  50  52  58  57  56  56  59  66  63  55  50  46  43  44  48  50  73  78  74  75  81  85  89  89  78  75  72  70  74  83  86  91  94  92  83  81  92 118 154 181 186 187 189 190 191 191 192 193 193 194 194 195 196 196 197 197 195 196
 170 169 169 168 168 169 169 168 167 166 162 138 112  80  68  66  61  55  54  54  48  38  39  40  42  56  56  59  56  51  48  49  47  50  53  56  58  57  57  54  56  61  57  54  55  50  46  48  53  56  69  81  80  74  74  82  87  86  82  80  74  70  72  79  83  87  89  81  76  79  71  80 103 111 137 167 187 188 191 191 191 192 192 194 194 194 194 197 196 196 199 198
 168 169 168 168 168 168 167 164 134  99  77  69  64  60  54  54  50  49  50  49  44  35  37  38  42  65  53  55  55  51  48  48  48  51  55  57  58  57  55  51  51  50  49  48  49  48  47  46  49  52  58  67  71  69  73  78  82  81  77  74  72  71  73  76  80  84  88  70  70  74  71  55  80  99 104 105 121 155 180 190 191 191 193 193 192 194 195 196 195 195 198 198
 168 169 168 167 171 153 112  77  67  63  59  57  54  52  50  48  46  44  46  44  40  35  36  36  37  69  60  50  53  50  47  46  46  47  50  52  52  53  52  47  45  42  40  42  44  43  42  45  46  47  47  52  59  66  69  72  74  75  73  71  70  68  72  74  81  84  97  66  61  70  69  64  53  84  97  96  98 100 109 135 174 192 192 192 194 194 195 195 195 196 197 197
 167 168 158 119  84  73  66  58  55  54  52  51  50  48  46  45  44  43  46  43  34  32  36  35  34  67  65  50  49  49  47  45  44  46  48  49  49  48  47  45  43  41  41  39  38  41  41  42  44  43  47  51  55  61  62  66  66  69  67  66  66  69  73  76  81  77 114  67  48  67  68  67  53  65  87  92  92  92  95 100 106 129 166 190 193 192 195 195 195 196 197 197
 138 104  76  68  63  58  53  49  49  49  47  46  46  43  45  44  43  41  41  40  33  33  34  35  31  72  68  52  43  47  47  44  42  44  44  45  46  47  45  45  43  39  39  39  36  40  42  42  42  45  49  52  54  57  59  63  63  63  63  64  65  68  70  77  74  91 121  80  40  62  67  67  60  52  75  88  90  89  89  91  93  97 105 121 154 186 193 194 194 195 197 196
  68  66  62  56  50  50  47  45  45  46  45  44  45  43  42  42  42  42  39  36  31  32  33  34  30  71  68  58  43  42  43  42  42  41  42  42  42  44  44  44  43  40  41  41  41  42  44  44  45  47  50  51  53  56  57  60  61  61  63  64  65  66  68  72  77 112 123  96  37  57  63  64  62  47  62  80  87  87  86  87  87  88  93  98 106 116 148 181 194 194 193 195
  58  56  54  50  47  45  44  45  42  42  43  43  43  40  40  40  40  39  38  37  31  30  33  34  34  69  68  58  47  38  38  41  42  41  41  42  41  42  43  42  44  44  42  42  42  44  44  46  47  49  50  52  51  56  56  57  59  62  62  65  65  64  64  68  92 116 124 113  31  51  62  64  63  52  55  71  81  85  86  83  84  84  90  90  94  97 106 114 145 182 195 194
  55  50  48  47  43  43  41  41  40  39  39  39  39  40  39  38  40  39  38  35  30  30  31  31  35  68  69  62  55  41  34  35  39  42  43  42  41  40  41  42  42  43  44  43  45  46  46  48  49  50  52  51  51  56  58  60  64  64  62  66  66  65  61  74 104 113 122 120  34  46  59  62  63  54  50  66  74  80  82  81  82  82  85  88  90  92  95 100 103 114 145 180
  49  47  45  43  41  40  40  40  40  39  39  39  38  39  39  38  39  38  37  34  30  30  30  30  34  68  67  61  55  49  37  32  37  40  42  43  42  41  42  43  43  43  45  46  47  49  49  50  51  51  54  56  58  63  64  64  65  64  65  67  60  58  62  92 106 114 124 121  42  42  59  62  61  58  48  60  72  75  81  79  80  78  79  84  84  89  91  92  93  97 104 113
  45  43  40  39  38  38  39  38  37  39  39  39  38  38  38  38  39  37  35  34  30  30  30  30  40  68  68  62  60  54  45  33  32  35  41  44  42  44  44  44  45  46  45  46  48  49  49  51  54  53  56  60  63  66  68  65  63  67  65  59  54  56  77  98 107 114 123 121  54  42  58  60  60  60  47  57  68  71  75  76  74  76  77  78  82  85  88  90  91  92  94  98
  40  39  40  37  36  38  37  37  38  38  40  38  38  37  39  38  39  37  36  34  30  30  30  30  44  66  67  63  60  55  48  43  32  33  39  43  43  45  47  46  46  46  47  46  45  47  49  52  55  54  56  60  63  66  69  64  63  64  63  55  51  70  90 101 108 115 121 122  62  42  59  59  58  55  46  55  64  68  72  75  74  75  76  74  79  80  82  85  86  89  91  93
  38  38  37  36  35  36  35  37  37  39  39  37  37  38  38  37  37  36  36  34  30  28  29  30  39  65  64  62  59  55  51  48  41  31  33  41  41  43  43  47  47  46  47  47  44  48  49  50  52  52  55  58  62  64  66  62  62  58  56  50  62  82  94 103 110 114 119 118  67  46  57  59  57  56  47  54  60  67  70  74  73  73  74  71  73  76  78  80  81  84  84  89
  35  36  35  33  33  35  34  35  38  37  38  37  37  37  35  37  36  35  33  32  29  29  28  28  38  61  61  60  58  54  51  48  46  37  31  36  40  41  42  42  45  43  46  45  45  47  48  49  49  52  55  57  60  64  61  57  57  54  50  55  74  86  95 101 108 114 118 115  68  45  56  58  56  57  48  55  63  65  70  73  74  73  70  71  72  72  74  76  76  78  82  85
  33  34  33  32  32  36  34  35  38  37  38  37  36  36  37  36  35  35  33  32  28  28  28  28  31  58  62  59  55  54  52  48  46  41  35  31  32  35  36  37  41  42  44  45  47  49  48  48  50  52  55  54  59  59  54  51  52  51  55  69  80  87  93 101 106 112 114 116  67  47  57  58  57  56  47  53  61  64  69  72  72  70  71  71  70  70  72  75  72  76  79  81
  31  32  31  33  33  35  34  35  36  37  38  37  37  37  36  35  35  36  34  32  30  28  26  27  26  53  57  59  54  52  51  48  46  42  40  34  30  30  29  33  39  38  40  43  45  47  47  50  51  49  51  53  54  51  47  47  46  55  66  72  80  85  92 100 103 107 109 111  63  48  55  55  53  52  48  55  61  62  68  70  70  70  71  71  66  71  71  71  70  70  74  77
  30  30  30  30  33  34  33  34  35  38  39  36  37  37  35  36  36  35  33  32  30  26  23  23  23  46  55  55  53  51  48  49  46  42  42  38  34  30  30  30  32  34  36  40  42  44  45  48  48  48  48  48  43  43  45  45  53  63  68  72  79  86  92  96  98 103 106 105  58  52  54  52  53  52  48  57  60  62  65  66  70  69  70  70  68  70  69  69  67  68  73  76
  30  28  31  31  31  32  31  34  34  35  36  36  36  36  36  35  36  33  33  32  31  25  23  24  23  35  51  52  52  49  46  45  43  43  42  39  37  34  33  30  28  30  33  33  36  36  39  41  41  40  39  40  38  43  47  54  59  64  68  71  79  85  92  93  95  97 102  94  51  55  52  51  50  53  51  58  59  63  64  67  68  70  70  70  68  65  67  69  67  68  73  72
  28  29  30  32  32  32  33  34  35  35  37  37  36  35  34  33  32  32  33  32  28  23  23  21  22  25  47  49  48  47  44  46  44  44  43  42  38  36  36  35  32  32  31  32  31  31  32  35  35  35  35  40  44  51  55  58  62  64  67  70  77  84  88  88  89  90  96  76  52  52  50  51  51  52  56  59  61  62  64  67  66  66  69  69  69  65  63  66  66  67  70  71
  24  27  30  29  30  30  32  33  34  36  37  37  37  34  33  32  31  31  31  25  24  26  23  22  22  22  34  44  45  47  45  46  45  44  42  42  42  39  38  37  37  37  36  36  34  36  37  38  39  39  43  46  50  55  59  61  62  65  67  71  74  79  80  81  81  86  84  58  51  50  52  52  51  51  59  60  63  64  66  67  65  65  67  68  67  65  63  65  66  66  65  67
  25  26  26  28  27  31  31  32  33  34  37  35  35  33  32  30  30  29  22  25  31  30  24  22  21  21  24  36  41  43  44  44  44  43  42  43  42  40  41  40  40  39  37  40  40  40  41  42  43  44  48  51  53  58  59  62  63  66  67  70  73  76  75  76  78  79  60  49  48  49  49  49  50  52  56  62  64  66  65  67  67  63  65  66  67  67  65  67  66  65  64  67
  25  29  29  28  30  32  30  33  35  35  36  36  34  32  32  30  27  22  28  31  30  27  23  20  21  21  21  23  35  39  41  42  44  42  41  42  41  43  42  42  42  43  43  43  43  44  44  45  49  50  53  55  56  59  61  63  62  66  68  69  71  72  72  72  73  61  47  47  48  49  47  49  47  55  57  61  66  66  65  64  66  65  66  64  63  65  64  66  66  64  62  65
  24  27  28  28  30  30  32  33  34  34  33  34  32  30  27  26  22  29  32  31  29  28  26  21  20  20  19  20  24  37  40  41  42  41  42  41  42  42  44  43  43  43  44  46  47  47  49  50  50  52  54  55  58  59  63  62  64  64  66  68  70  67  67  67  58  46  42  46  45  48  48  48  47  56  60  61  63  65  66  64  65  65  63  63  63  63  65  62  63  64  62  63
