P2
# Generated by OpenCV 3.4.0
92 112
255
  81 100 108 108 102 108 111 112 112 112 113 114 114 112 113 115 114 113 115 114 115 114 116 115 115 115 115 116 115 114 116 116 116 114 113 111 105  94  80  65  58  56  56  60  57  61  66  69  73  74  69  66  68  75  76  75  70  70  76  69  72  85  99 105 109 109 102 106 112 110 109 111 115 116 116 119 117 118 118 121 117 113 111 118 122 120 120 122 122 121 119 117
  90 102 108 110 100 108 112 113 113 112 114 113 114 114 115 115 115 114 115 116 115 114 116 115 116 116 116 116 114 116 115 115 115 109 106  95  83  68  59  54  52  55  64  70  72  59  53  57  67  67  61  49  46  53  58  64  67  65  55  56  68  80  85  88  85  82  75  81  86  93  98 100 104 107 109 111 113 116 118 116 106 107 115 119 119 122 122 122 121 120 122 121
  91 104 108 110 100 111 113 112 112 114 113 112 114 113 114 114 114 114 114 116 114 115 114 115 116 115 115 115 115 116 115 111 108  90  77  67  53  47  44  42  49  52  57  63  76  68  53  47  46  52  49  42  38  35  43  50  59  57  52  49  51  52  56  61  64  64  67  71  74  82  86  90  96  95  99 105 108 112 112 100 101 109 113 116 122 122 123 122 122 123 122 123
  92 106 109 112 100 112 114 114 113 114 114 114 114 114 114 114 114 114 116 115 114 115 116 116 115 117 115 114 115 112 102  84  67  55  46  43  41  40  39  42  46  50  52  56  52  47  41  37  35  34  37  34  34  29  40  46  45  48  50  49  48  48  48  49  53  56  60  56  57  68  75  76  84  90  91  98 102 100  89  95 102 110 116 118 125 123 124 122 122 122 124 123
  97 106 110 111 101 113 113 114 115 114 113 114 115 114 114 114 116 116 115 115 115 117 116 115 116 117 116 114 112  95  67  54  47  42  42  40  38  37  40  44  45  45  45  51  53  45  37  30  27  26  29  28  28  31  39  37  36  40  45  46  44  43  43  44  43  46  58  61  66  76  91  93  93  90  96  98  89  82  94 102 108 119 119 123 125 123 124 125 125 123 122 118
 100 107 111 109  98 113 113 114 115 114 114 115 116 116 114 117 116 116 115 116 116 116 115 117 116 116 117 106  80  60  52  47  42  41  44  45  43  39  40  40  44  44  40  36  39  33  26  25  24  24  24  22  24  30  31  28  29  34  36  37  37  40  38  35  33  41  50  53  58  62  71  74  79  88  93  78  80  96 106 111 118 120 123 124 124 125 123 124 123 119 114 109
 101 108 111 111  99 113 113 114 113 114 116 114 116 114 116 118 115 115 116 117 116 116 116 114 115 105  78  63  57  53  47  43  42  42  44  40  36  39  43  44  45  50  50  44  33  27  23  19  19  18  21  19  23  26  24  21  26  31  31  33  32  31  29  31  34  38  41  43  53  62  58  69  72  66  67  78  98 106 110 115 118 120 121 122 123 124 125 125 124 117 108 101
 105 109 112 111 101 113 114 115 114 114 115 115 115 115 116 116 116 117 116 116 116 116 116 111  91  69  57  50  46  46  45  45  41  38  38  35  32  36  43  46  46  44  37  32  29  26  19  16  14  15  18  19  21  20  17  19  23  25  25  22  25  28  27  26  28  31  33  41  56  62  54  50  51  66  86  97  99  97  97 106 112 111 114 115 119 123 125 126 126 122 113 102
 107 110 111 106 102 116 115 115 115 115 116 116 115 116 116 117 117 117 117 116 116 115 112  90  62  49  49  45  45  47  45  40  36  35  33  34  33  35  38  45  43  39  34  27  23  22  20  16  15  13  15  16  15  14  15  18  18  22  17  22  23  27  26  25  27  28  28  31  43  48  45  43  48  67  71  75  83  91  99 104 105 100 109 116 122 125 125 125 126 126 123 119
 108 112 112 108 105 115 115 114 115 115 115 116 115 116 116 117 116 116 120 116 115 106  85  61  50  50  50  50  49  47  43  39  36  35  34  36  40  41  38  39  33  29  23  22  18  16  15  17  16  13  15  14  13  14  17  16  17  16  18  20  22  24  23  26  25  25  26  29  32  34  32  35  38  48  67  78  86  92  99 104 112 123 122 120 124 125 128 127 126 127 126 124
 108 112 113 102 108 114 115 114 115 116 115 116 116 117 116 117 117 117 118 119 113 103  73  44  47  46  45  45  44  43  45  41  35  32  31  29  28  26  23  19  15  17  17  14  14  14  14  15  15  13  15  14  15  14  16  17  17  17  19  21  23  24  27  30  33  34  33  30  30  36  40  39  38  42  55  71  86  99 115 119 123 124 125 123 125 125 127 128 127 127 127 123
 110 112 114 100 111 114 116 115 115 115 116 115 116 116 116 117 117 119 118 116 112  87  40  42  41  41  38  38  43  41  37  29  24  21  23  22  20  17  15  14  14  14  14  13  14  15  16  15  15  15  15  16  18  16  15  18  16  17  19  17  20  24  26  27  29  35  41  42  41  40  39  34  32  38  60  83  99 108 120 125 125 126 125 126 126 127 127 128 128 127 126 123
 111 113 114 100 114 115 116 116 116 115 116 118 115 117 118 117 120 118 118 116 101  60  44  40  35  36  33  36  33  27  24  21  18  17  17  16  15  15  15  16  16  16  16  18  20  19  20  21  20  20  22  24  24  22  21  22  16  15  17  15  18  19  19  22  24  27  29  33  37  40  39  35  36  39  78  99 108 116 123 125 126 125 126 127 127 130 128 130 129 127 128 125
 112 113 114  97 114 116 116 117 116 118 117 117 117 116 118 118 119 118 119 113  76  45  39  33  29  25  25  20  18  15  16  15  15  15  15  15  15  16  17  18  20  22  24  29  32  29  29  31  33  34  36  39  36  37  37  28  22  20  18  16  16  17  18  18  20  24  28  25  26  28  30  36  40  40  72  93 113 116 123 125 128 126 128 130 128 127 127 131 130 127 131 128
 112 112 115  97 114 115 117 117 118 117 118 117 116 117 119 118 121 120 117 108  58  43  31  25  21  18  16  15  14  14  14  15  15  15  16  17  20  20  21  23  26  30  33  38  38  40  44  47  48  52  57  63  62  63  63  53  43  34  28  21  16  15  15  15  16  18  23  26  24  24  26  29  34  40  61  97 112 119 123 126 127 126 128 128 130 129 131 130 130 129 130 130
 113 113 115  98 115 118 117 117 119 117 118 120 119 119 118 120 121 118 113  82  44  34  26  20  16  15  14  12  14  14  14  16  18  19  21  24  27  29  29  33  35  39  41  44  49  55  60  60  60  67  72  79  80  80  79  73  63  53  44  36  28  21  15  16  17  17  19  19  21  23  25  26  31  38  49  77 106 115 121 126 126 127 128 129 130 131 130 131 130 131 131 131
 114 115 115  98 116 118 117 119 117 118 118 118 119 120 121 121 120 117 110  53  35  29  23  15  14  12  14  14  15  16  20  20  25  28  30  35  37  36  38  40  42  46  49  58  65  69  71  68  69  76  83  88  87  89  87  83  73  65  58  51  42  32  22  17  16  17  18  16  17  19  24  25  30  37  48  56  81 111 123 126 126 127 127 128 130 130 133 131 130 131 132 132
 115 116 116  97 115 116 117 119 119 118 119 118 119 121 121 121 119 119  97  43  33  27  18  15  13  12  12  14  19  25  28  30  33  37  40  41  42  44  46  47  53  58  65  75  79  82  78  77  79  85  94  93  97 100  98  94  84  73  65  64  57  44  34  22  18  18  17  17  16  19  22  26  30  35  42  47  66 106 123 124 125 130 130 130 133 131 132 134 133 132 132 132
 115 116 114  99 115 117 120 119 120 120 121 120 120 120 120 121 121 119  87  42  32  24  17  14  12  13  14  18  28  34  40  46  49  49  48  49  50  52  56  60  64  68  73  80  82  82  77  77  78  84  88  82  95 104 105 100  91  81  71  68  68  58  47  35  24  18  16  17  18  18  22  22  26  32  38  46  61  92 112 124 130 132 131 132 132 134 134 134 134 136 135 136
 116 116 112 102 118 118 119 119 120 120 121 121 120 120 121 121 121 118  82  40  32  23  16  13  12  12  19  28  39  58  72  76  72  66  64  64  63  64  64  65  67  71  75  79  78  76  77  75  78  84  89  89  95 102  99  94  87  84  79  72  70  67  55  46  32  22  16  17  20  19  22  23  24  26  31  44  56  74 100 120 127 130 131 133 132 132 134 135 135 136 136 140
 117 119 108 106 119 118 119 121 121 120 121 123 123 121 122 121 121 113  78  39  32  22  16  14  13  15  30  41  60  76  82  82  78  74  69  67  66  67  66  67  70  73  78  79  79  80  80  82  85  90  94 100 104 104 104 101  89  81  76  78  74  71  64  52  42  27  16  16  18  17  21  22  24  26  30  41  55  63  68  92 114 125 130 133 131 131 134 137 138 137 138 141
 121 124 112 114 121 122 120 122 122 122 122 123 123 123 123 123 123 115  71  39  32  22  15  14  15  24  42  58  71  86  95  89  79  74  71  70  67  69  72  76  77  80  82  84  84  85  83  83  84  86  90  91  96  98 100 102  96  89  81  75  73  73  68  60  50  34  23  17  16  17  20  23  24  27  32  39  49  58  62  79  80  92 110 124 129 131 134 137 138 139 140 142
 123 132 110 133 128 123 122 120 121 122 122 122 122 123 122 122 123 116  70  39  33  21  15  14  18  37  52  67  88 102  99  87  78  76  74  75  76  78  81  84  86  85  85  85  84  83  81  82  82  83  82  85  86  88  91  90  92  92  89  86  77  74  74  65  54  41  28  18  17  15  17  22  23  28  32  37  44  54  63  89 103 104 100 108 120 128 137 137 138 140 140 142
 126 131 107 134 132 126 123 122 122 121 121 123 122 121 123 123 123 117  72  40  34  24  16  15  28  51  67  88  98 103 102  94  87  82  81  78  81  82  83  87  88  87  85  83  81  82  82  85  82  80  80  83  88  97 104 102  99  94  92  94  86  79  75  71  61  48  33  22  18  16  17  21  24  28  32  35  39  54  67  85 107 121 124 114 120 127 136 139 139 140 141 144
 126 127 105 133 133 128 123 123 122 122 123 123 123 124 123 123 123 117  74  40  34  25  17  19  42  64  81  89  95 102 104 103  94  87  86  83  82  85  86  88  87  86  84  82  82  87  89  93  96 100 101 104 111 116 122 122 119 110 105 100  93  88  81  76  65  52  38  26  20  17  17  18  20  24  31  37  45  58  67  86 100 117 129 130 125 134 138 140 141 142 143 144
 129 128 110 132 132 131 127 126 122 124 125 123 124 124 124 125 124 117  77  38  33  26  18  28  57  75  85  93 100 100 101  99  90  88  90  91  89  88  91  91  86  85  84  84  87  90  94 100 104 108 111 112 117 121 125 127 129 125 118 111 101  95  88  83  72  58  42  27  23  18  18  16  18  22  26  37  51  57  65  81 100 106 125 136 135 138 142 142 141 142 144 146
 130 128 106 130 133 134 133 127 124 125 125 124 124 125 124 125 124 119  80  42  32  26  21  38  70  85  96 103 104 107 107 100  89  84  86  91  90  91  93  91  89  87  85  89  89  90  92  95  99  98 102 109 113 118 122 124 125 123 125 120 111 103  96  88  78  65  46  34  25  23  19  19  17  19  26  37  49  52  55  65 100 112 122 134 140 142 142 144 145 144 145 146
 130 129 106 133 134 136 136 131 127 126 126 125 126 124 125 125 124 122  84  57  32  25  24  56  88  96 101 105 108 110 106 100  96  91  91  93  89  92  95  95  94  93  90  88  87  87  86  88  94  95  98 103 108 112 116 119 120 123 121 122 117 110 105  95  84  69  51  37  27  25  20  17  19  21  26  36  50  48  41  57  92 112 124 134 140 143 144 144 145 145 147 148
 131 130 109 134 136 137 138 136 131 128 126 126 126 125 126 127 124 121 108  46  29  26  28  79  97  99 100 101 101  99  96  94  94  95  94  92  92  93  95  95  96  94  90  88  87  86  80  77  79  80  85  91  94  93  97 102 111 118 124 123 118 114 106 100  88  73  55  40  30  25  22  19  19  22  28  36  46  48  42  53  84 116 121 137 141 144 146 146 147 147 147 150
 132 130 106 132 134 135 137 136 133 128 128 127 127 128 127 128 128 125 109  33  27  28  40  93 100  94  91  85  84  84  83  83  87  93  94  93  91  93  94  94  98  96  91  88  85  79  71  64  65  68  71  77  78  76  79  80  90  99 108 114 116 112 110 105  94  79  58  43  31  25  22  22  20  19  31  39  45  47  47  53  85 107 129 137 142 144 144 146 147 150 149 149
 132 128 111 135 134 134 135 138 136 130 129 128 128 128 129 128 129 128 102  34  25  29  51  96  98  84  69  76  78  75  71  70  77  86  92  91  88  90  94  94  96  95  92  88  78  70  59  50  41  38  39  38  39  42  47  52  59  62  72  84 101 113 112 109 101  86  61  44  31  25  23  23  22  18  27  39  43  44  45  52  89 107 128 138 145 148 147 147 149 150 152 151
 132 121 114 133 133 133 134 135 136 132 132 129 129 130 130 129 130 128 109  36  26  31  59  90  77  55  41  38  41  43  48  53  62  74  83  85  85  88  88  90  89  90  87  80  68  59  48  34  33  32  31  30  29  28  28  32  37  45  49  58  68 102 115 114 109  94  67  46  31  26  24  25  23  21  23  34  36  42  49  57  76 117 130 140 147 149 149 149 149 151 152 155
 130 111 122 130 132 131 133 135 134 132 132 131 130 130 131 129 130 130 122  57  30  32  57  59  43  36  31  29  27  28  33  40  50  64  74  78  81  84  82  84  83  81  76  71  61  52  41  37  34  30  29  28  26  26  28  28  32  38  43  47  51  64  98 114 112 102  77  47  34  28  23  28  23  22  24  25  33  38  42  62  75 125 139 146 151 149 153 153 153 153 154 156
 129 101 125 131 131 132 133 132 131 131 133 131 130 130 131 131 131 130 125  74  35  32  41  34  33  30  28  28  28  28  30  34  45  57  66  70  74  78  78  78  75  74  70  65  60  51  46  42  40  33  32  32  32  36  40  42  47  49  51  55  61  61  68  84 103 108  89  56  37  28  24  25  23  23  23  24  24  31  42  61  93 134 145 148 151 153 154 155 155 155 155 156
 128 101 131 130 130 130 131 131 131 131 132 131 131 131 132 131 131 130 129  87  38  34  36  36  38  36  36  32  31  32  32  36  45  54  62  66  69  73  72  70  70  71  66  63  59  53  50  47  47  45  44  42  44  47  48  50  54  56  59  66  68  66  69  79  89 107 100  70  41  29  25  25  23  25  25  25  26  27  40  62  97 135 150 152 151 154 154 155 157 157 156 157
 129 102 129 131 132 130 132 131 132 132 132 132 133 133 132 131 132 132 130 107  40  36  44  51  53  54  53  51  46  46  45  46  49  53  59  63  66  69  69  67  67  69  66  62  59  57  56  55  54  50  49  46  46  47  50  52  56  59  62  65  71  70  72  79  86  94 105  80  54  34  28  25  22  23  25  28  26  26  36  60 110 138 152 154 153 155 156 157 158 158 158 160
 128 102 131 132 132 131 132 133 134 133 133 134 133 134 133 132 134 133 131 124  43  39  60  66  68  62  60  55  53  50  51  52  52  53  57  59  64  65  66  67  66  68  68  63  60  59  57  54  52  48  45  41  37  37  40  42  49  53  60  63  70  75  80  84  92  86  96  93  63  40  30  26  24  24  27  29  31  25  32  53 118 144 152 155 157 156 158 157 159 159 159 161
 130 107 132 133 134 133 132 134 135 136 134 135 135 136 134 133 135 134 134 123  42  49  75  84  73  64  56  50  48  47  48  49  50  52  55  58  62  65  66  68  67  68  68  65  60  59  54  51  48  44  37  28  25  26  30  32  33  38  46  55  63  71  80  84  87  96  90 104  75  50  32  26  26  26  30  27  29  27  34  51 119 149 155 158 156 157 158 159 159 160 160 161
 133 109 133 135 134 134 136 136 134 136 135 135 135 136 137 136 137 135 135 116  47  60  90  79  62  52  44  39  34  34  37  44  49  50  54  56  59  65  70  72  71  69  66  63  61  58  53  49  43  34  26  27  28  28  30  35  37  42  41  42  53  67  75  82  86 100 100 104  90  59  37  27  26  29  31  30  29  29  35  62 129 151 156 159 159 158 160 159 161 162 163 164
 133 104 135 134 136 136 136 137 137 136 136 136 137 136 138 136 137 136 135 119  48  66  86  69  48  42  46  44  35  32  30  30  42  48  50  54  58  68  82  85  78  71  69  66  62  57  51  47  36  27  28  28  20  20  22  34  50  42  42  51  42  54  68  76  85  98 108 111 109  76  42  27  26  29  29  32  32  30  36  71 137 156 157 158 160 162 161 162 163 164 163 164
 131 105 135 136 137 137 136 138 137 138 137 138 137 139 137 137 137 137 136 128  56  71  77  54  45  45  34  29  30  33  35  35  32  43  48  52  57  73 102 106  90  75  71  69  65  59  50  42  31  29  29  23  21  22  27  32  65  72  50  42  47  42  57  72  82  94 106 114 118  98  53  28  25  28  31  37  33  30  35  62 143 157 158 160 162 162 163 164 164 166 165 166
 124 116 138 138 138 138 139 138 138 138 140 139 138 139 139 139 138 139 138 134  65  68  70  44  38  32  60  24  23  42  44  34  36  34  46  51  57  84 119 123 107  81  72  69  66  58  49  38  33  31  32  24  23  23  26  31  88 113  83  56  40  47  50  64  79  93 106 111 118 113  63  29  26  30  31  34  32  32  39  67 149 159 162 162 163 164 164 167 167 167 167 169
 121 125 139 139 138 138 140 140 140 139 140 141 141 141 142 141 141 140 140 135  85  60  66  40  38  31  24  24  31  63  71  59  43  36  39  49  56  99 145 148 139 102  76  69  66  57  48  41  33  33  47  29  26  28  32  53  91 105  93  80  49  48  49  60  74  89 108 119 120 120  83  34  25  30  27  29  33  34  38  74 150 161 163 163 165 166 167 167 169 168 169 169
 116 128 138 138 140 140 142 141 142 142 141 141 142 141 142 141 142 141 139 137 103  52  68  46  41  35  26  26  45  79  84  75  58  40  40  47  64 138 162 166 161 130  89  74  69  60  52  43  35  36  49  53  44  44  60  82  91  96  94  90  66  55  57  64  74  91 108 121 121 120 102  36  29  32  27  31  36  34  41  75 149 161 164 166 167 167 169 168 168 170 170 170
 112 139 140 142 142 142 142 142 143 142 143 144 142 143 143 141 143 141 142 141 117  48  79  56  58  50  35  43  75  91  86  72  55  46  43  54 107 161 165 174 174 143 106  79  71  64  55  47  43  41  42  47  53  59  68  76  88  98 108  95  90  79  67  70  80  96 114 124 126 124 114  46  33  37  28  30  34  35  48  90 150 164 168 168 169 169 169 169 170 170 171 170
 110 142 141 143 143 144 143 144 143 143 142 144 145 144 143 143 145 144 143 143 130  65  87  68  77  83  57  70  78  78  75  64  56  54  53  68 157 164 168 191 188 150 120  92  77  70  60  52  48  47  48  48  50  57  63  64  68  73  76  80  90  96  88  88  96 111 125 129 129 129 121  54  38  38  28  26  33  38  52 106 157 168 169 170 171 169 170 170 170 171 172 173
 110 143 144 143 144 145 144 144 144 145 144 145 146 144 144 144 146 144 143 143 138  90  99  75  66  67  71  69  71  64  61  55  52  51  51 106 160 164 172 197 172 153 133 110  94  81  72  60  53  50  49  48  49  54  58  62  63  65  70  81  94 111 116 116 121 130 133 134 134 130 125  68  41  42  27  26  35  41  56 133 160 167 169 170 170 170 171 172 172 174 174 174
 109 146 146 146 146 145 146 145 145 147 146 145 145 146 145 144 146 146 145 145 143  98 105  95  88  70  64  59  55  52  52  51  51  56  83 132 162 164 184 189 160 148 140 126 115 105  93  80  68  61  57  55  54  55  58  62  65  68  76  88 104 124 141 148 147 146 144 140 138 131 124  80  46  45  27  28  32  36  60 144 164 168 170 170 172 173 171 174 174 175 175 175
 109 145 145 145 146 146 146 146 148 147 147 146 146 148 147 148 147 147 146 146 143 107 113 110  96  73  60  58  55  53  52  54  65  88 112 138 163 163 183 178 156 148 147 139 130 127 116 105  93  79  69  64  62  64  64  67  71  77  91 106 123 140 155 163 162 158 151 142 137 134 125  87  48  51  30  28  32  32  76 152 167 170 171 173 175 173 174 177 176 177 178 178
 109 146 146 147 146 146 147 147 148 147 146 146 147 147 148 148 148 148 146 146 139 115 117 118 104  82  70  62  59  58  60  68  92 111 115 148 160 162 182 168 155 150 150 147 137 136 128 119 113 105  92  77  71  70  73  80  89 100 114 129 140 152 162 167 165 162 153 145 137 136 126  98  48  55  37  28  55 131 160 158 161 168 173 175 176 177 177 177 178 180 180 180
 115 149 147 149 148 149 148 148 149 148 148 149 149 148 149 148 148 149 149 150 137 114 124 122 109  93  83  75  69  69  74  94 115 113 124 162 161 168 187 168 155 148 147 148 146 143 136 128 126 122 116 102  89  83  83  88  96 109 125 139 153 161 166 164 164 160 154 145 136 135 127 107  49  48  46  70 121 136 113  97 113 155 171 175 177 179 179 180 180 182 182 184
 117 150 149 151 152 150 150 149 150 148 151 150 150 148 151 151 150 151 150 149 134 117 127 125 116 104  94  86  86  87 103 115 117 117 140 162 159 168 187 173 158 149 145 145 146 143 139 137 132 126 122 118 112 104  99  98 106 115 130 144 153 160 163 160 161 157 151 143 137 134 127 115  55  48  65 103 113  95  73  68  67 113 171 177 178 180 180 182 184 185 185 185
 129 151 152 152 152 151 151 150 151 151 152 151 151 151 151 152 151 150 151 150 134 120 125 125 118 113 102  99 104 111 118 116 118 127 153 162 160 168 188 180 162 153 144 143 141 141 138 141 140 133 129 125 127 122 122 119 119 128 135 143 147 151 150 150 149 146 146 141 137 134 128 120  63  44  80  99  90  78  77  80  71  79 166 177 180 183 182 182 186 186 184 186
 140 153 153 153 154 153 152 152 153 153 152 153 152 152 152 152 151 151 151 150 135 121 123 123 122 120 117 116 117 118 119 118 120 141 159 154 151 160 184 186 165 152 146 145 137 131 131 139 139 139 135 136 134 133 131 127 126 126 132 135 137 136 135 135 135 136 140 139 137 132 128 119  69  42  68  83  72  78  84  90  71  75 160 177 182 182 185 184 185 186 186 186
 151 155 155 155 155 156 155 155 154 153 153 153 153 153 153 152 152 153 152 149 132 118 117 116 115 115 116 121 124 124 120 119 125 143 153 144 141 149 167 176 169 155 150 152 139 126 121 131 137 140 143 144 144 142 142 140 137 135 126 126 125 124 127 129 128 130 136 137 136 132 127 118  68  45  61  70  73  88 108  99  65  72 160 178 182 183 185 184 185 186 186 187
 154 156 157 159 158 158 158 156 155 154 153 153 152 153 153 153 153 154 152 150 129 114 111 109 109 115 122 124 121 121 121 121 124 133 131 127 128 134 147 159 163 157 153 152 145 131 115 118 129 137 141 146 146 147 148 147 142 142 137 128 124 122 122 123 123 124 132 132 133 130 122 113  69  49  55  80  90 107 122  96  64  79 162 178 182 183 184 184 185 184 185 186
 159 157 159 158 159 160 158 157 157 156 154 154 153 155 154 154 155 155 154 149 127 108 105 104 111 117 124 126 125 122 117 114 111 113 107 104 111 116 124 133 137 138 139 142 144 139 121 108 116 127 137 141 144 147 148 147 146 139 136 134 131 126 124 122 119 111 116 124 131 129 122 107  67  53  51  64  84 106 120  87  66  98 173 179 180 180 183 184 185 185 185 184
 160 159 160 159 158 157 159 159 157 156 156 154 154 154 155 155 155 154 154 150 124 106 102 107 112 118 122 123 120 114 108 102  93  89  85  83  86  91  92  94 101 105 109 122 133 137 128 112 106 116 131 139 141 145 149 147 144 139 136 134 132 128 125 117 112 101 106 125 129 128 123  99  63  57  52  56  70  93 118  92  76 127 173 179 182 182 183 185 185 185 186 186
 155 158 160 159 158 158 159 158 158 156 157 156 154 155 156 155 155 156 155 151 123 104 104 110 112 116 120 120 116 108 100  85  76  74  71  70  71  74  74  74  76  77  82  94 109 122 124 114 108 110 120 129 136 138 141 141 141 138 134 130 126 125 123 115 112 109 112 125 127 126 120  93  59  75  88  58  65  87 118 102  93 154 178 180 184 185 184 184 186 186 186 186
 156 157 158 159 159 159 156 156 158 158 157 157 156 157 157 157 158 156 156 153 126 105 106 110 111 115 116 115 101 101  94  71  53  60  66  65  67  69  71  62  33  19  23  57  84  97 109 107 115 108 114 122 129 137 137 136 138 136 131 128 126 125 122 117 117 116 113 123 123 123 118  88  58  99  94  58  62  84 117 105 119 174 181 182 182 184 186 186 186 187 187 188
 156 157 158 159 158 158 159 158 159 159 157 158 157 157 157 157 158 158 155 153 131 107 108 110 112 114 118 113 106  99  96  76  53  38  55  66  66  67  65  47  39  30  34  49  72  80  87 106 119 117 110 114 122 132 132 130 133 134 130 124 124 124 122 119 115 113 113 119 118 117 117  93  62  99  72  62  64  89 123 111 158 178 182 184 184 185 188 186 187 187 188 187
 159 159 159 158 159 159 160 160 160 158 159 159 158 159 158 158 158 160 158 156 134 108 108 110 111 113 113 111 107 104 104  86  60  48  50  59  63  64  60  53  53  53  51  50  59  63 100 124 130 127 119 119 123 125 132 128 127 128 127 125 121 121 121 117 115 113 112 117 111 113 119 105  94  92 107 112  90 106 125 134 176 182 184 185 186 186 186 186 187 187 188 190
 159 160 160 161 160 160 160 160 160 159 160 159 159 160 160 160 159 158 161 156 140 111 108 108 110 112 111 108 108 111 113 107  73  56  54  53  55  56  55  54  53  53  52  50  48  95 141 144 144 141 129 121 122 124 129 129 125 124 126 125 120 118 118 113 110 110 113 113 107 106 115 118 119 133 152 162 142 119 122 165 181 185 184 186 186 187 187 188 187 189 187 189
 160 160 161 162 161 161 161 161 161 161 161 160 162 161 161 161 160 161 161 158 146 111 109 108 109 109 109 109 110 113 116 113 102  84  71  64  57  54  56  60  62  65  68  75 100 145 152 154 151 148 141 129 125 127 128 126 124 124 124 125 124 120 121 119 109 109 111 110 104 106 113 117 130 145 138 136  99  92 140 177 184 185 185 186 187 187 188 187 188 189 189 190
 162 161 161 161 161 162 162 161 161 161 161 161 161 161 161 161 162 161 161 161 145 113 109 107 107 107 110 114 115 114 113 110 107 101  91  78  64  57  59  63  70  83 103 119 134 141 146 150 153 151 148 135 131 130 126 125 123 119 121 123 124 123 120 116 110 111 111 108 103 106 113 119 128 149 142 142 106 120 167 181 186 186 186 187 188 188 188 190 191 189 190 191
 162 162 162 161 159 161 161 161 161 162 162 163 162 161 161 161 162 161 162 160 145 114 109 107 105 107 110 113 114 112 109 105 103  98  86  76  63  58  60  70  84 106 120 128 136 140 143 150 152 151 150 140 133 128 129 124 125 118 118 120 122 118 118 115 111 112 109 104 105 110 116 119 112 139 160 166 159 163 179 184 187 189 188 189 189 188 190 191 192 192 192 191
 162 162 162 162 161 161 163 163 162 162 162 163 162 163 162 163 163 164 162 161 147 117 108 105 107 107 110 110 109 109 108 104  94  91  87  72  62  56  61  74  95 106 113 122 135 137 138 141 144 142 145 143 135 133 127 124 120 117 115 118 118 116 115 116 113 108 105  96 104 112 113 113  94 106 138 150 163 180 184 187 189 190 189 190 190 191 192 192 192 192 192 192
 164 162 162 163 164 164 164 163 162 163 164 164 164 163 163 164 163 163 163 161 149 119 107 105 107 106 107 106 107 107 102  98  90  93  89  76  60  53  65  87 109 106 111 115 121 131 135 133 135 137 135 137 135 131 126 123 120 116 112 115 116 115 112 115 112 105 104 102 102 109 108 109  84  82 103 121 165 183 186 187 188 190 189 192 192 192 193 193 193 193 194 192
 164 162 164 164 165 164 166 163 164 166 164 165 164 165 164 164 164 163 163 161 152 121 106 103 104 105 105 103 103 103 102  95  93  99 100  88  76  61  98 118 119 118 114 111 110 114 123 123 125 124 122 125 127 125 123 121 121 115 112 111 113 112 109 111 110 107 103 105 108 111 111 109 136 150 148 171 180 184 187 189 189 189 191 191 191 191 192 192 193 193 192 192
 163 165 165 164 165 166 165 165 166 165 165 164 164 164 166 165 163 162 161 161 156 128 106 103 103 103 100  97  93  94  94  88  92  94  88  91  97 104 108  95  96 105 111 106 107 100  97  98 106 114 113 114 117 120 120 119 116 112 111 110 108 109 105 105 105 107 105 106 107 112 115 121 167 180 181 183 185 186 187 189 189 189 190 190 191 192 192 192 193 193 193 192
 166 165 166 166 165 166 167 165 164 166 167 165 164 166 165 163 163 162 162 162 160 135 106 103 101  98  94  90  84  84  87  88  80  62  58  61  70  72  63  56  57  64  77  91 101  98  88  85  89  99 102 103 105 107 110 114 114 112 110 107 104 103  98  99 104 107 107 106 109 112 111 142 177 184 185 185 186 188 187 188 188 189 190 191 192 193 193 193 192 193 194 193
 166 165 165 165 164 167 166 165 167 167 167 166 164 167 165 165 165 163 163 162 161 141 103 100  97  92  83  80  76  75  82  74  61  56  53  46  47  49  47  48  50  53  54  58  71  85  84  76  77  86  90  94  98 100 101 106 109 109 106 105 100 100  94  99 105 110 110 108 112 112 112 163 181 184 186 186 187 187 188 189 189 189 192 191 192 193 193 194 193 193 193 194
 165 166 166 167 166 166 167 168 167 166 167 167 166 167 166 165 165 163 164 163 163 150 101  98  93  85  78  70  63  64  66  53  50  49  49  45  41  43  41  44  47  47  49  48  49  56  65  65  65  69  76  80  87  95  95  99 102 104 104 103  98  99  94  93  99 106 110 109 111 110 121 175 184 186 186 187 188 188 188 190 190 191 191 191 192 193 193 192 194 193 193 194
 166 166 167 166 165 168 166 168 168 167 168 167 167 167 166 166 164 163 164 164 164 152 101  95  88  81  71  60  49  50  46  39  37  37  39  36  33  33  34  30  31  35  36  36  38  39  45  49  48  54  63  70  77  84  89  92  96 102 101 100  96  96  98  96  97 106 110 108 108 106 133 176 183 187 188 187 188 188 190 191 191 191 192 192 192 194 192 193 194 195 195 195
 168 168 168 166 168 166 167 167 168 168 168 168 168 168 166 165 165 165 165 165 165 154  98  92  86  76  64  51  40  33  29  30  29  34  37  33  33  33  32  34  32  35  35  35  32  30  30  30  34  43  53  62  66  73  78  89  94  98  98  99  95  94  97  94  94 106 108 106 107 104 137 180 184 186 189 189 190 189 190 191 191 192 192 192 193 194 193 193 195 196 195 195
 168 168 168 168 168 168 166 165 167 168 168 168 168 167 165 165 166 166 165 166 165 160 113  88  83  72  61  50  48  56  61  70  76  84  78  69  58  52  48  50  56  75  65  59  60  57  51  50  50  50  52  59  62  68  74  84  89  93  93  94  94  92  96  95  97 107 109 107 101 104 151 181 186 188 189 189 192 191 192 191 192 193 193 194 194 193 195 197 196 196 194 195
 168 168 168 168 168 167 164 165 167 168 168 168 168 167 166 166 165 165 167 167 166 161 123  89  82  72  60  60  67  78  81  78  78  73  69  69  66  67  65  66  68  86  85  83  81  84  87  84  75  64  61  62  62  68  75  82  86  89  92  93  96  94  93  91  98 106 109 102  97 111 154 182 187 188 190 190 190 190 192 192 192 193 194 195 195 193 195 194 197 197 197 197
 169 169 168 168 169 167 168 168 167 167 167 167 167 166 167 166 166 164 167 167 167 163 137  90  80  69  66  70  76  81  79  75  69  63  64  63  61  66  69  68  64  66  74  77  81  83  86  90  87  78  74  69  66  70  75  79  83  86  89  91  94  95  93  90  93 102 103  96  96 114 159 182 187 188 188 189 191 192 192 194 193 193 194 195 194 194 195 195 197 196 196 198
 169 169 169 169 169 168 168 168 168 167 167 166 167 166 167 167 166 167 167 168 168 166 156  86  79  70  70  78  80  81  77  69  59  55  53  54  56  57  56  54  52  53  60  69  73  78  83  87  87  84  84  80  74  73  74  81  81  84  84  91  94  93  91  91  93  96  94  92 101 117 163 184 187 187 189 190 191 191 192 191 192 193 194 193 194 194 196 196 195 197 197 197
 170 168 169 168 169 168 168 169 168 168 168 167 167 167 167 167 166 167 167 167 168 168 163 102  83  73  71  79  81  79  72  62  55  50  49  47  48  48  47  48  49  53  59  62  65  71  76  80  83  81  84  82  78  74  74  79  79  82  83  89  93  93  88  91  94  94  91  94 103 122 167 185 189 189 191 190 190 191 192 192 192 193 194 193 195 194 195 195 196 198 197 198
 169 169 169 168 167 167 168 168 168 168 167 167 167 167 169 167 167 167 167 169 168 168 163 120  85  72  70  73  74  70  66  60  52  46  41  42  43  45  46  47  49  51  55  56  60  64  68  72  78  76  78  78  76  77  76  77  77  82  85  89  88  88  86  90  90  88  89  98 108 126 171 185 188 188 190 191 191 191 190 192 193 192 193 193 195 193 194 196 195 195 197 198
 170 168 169 168 168 167 168 167 167 167 168 168 167 168 167 167 168 167 168 168 167 166 166 135  85  73  68  68  67  68  65  60  52  46  46  45  46  46  47  47  50  52  52  54  58  62  63  68  70  72  70  72  73  70  72  74  74  79  84  86  87  87  86  88  84  82  94 105 113 135 176 186 187 189 190 191 191 191 193 192 193 193 193 193 194 194 196 196 196 197 197 198
 168 168 168 167 167 166 168 167 167 168 167 168 167 168 168 167 167 168 168 168 168 168 168 160  90  77  69  66  66  64  60  58  53  50  50  50  50  50  50  51  52  54  54  58  58  60  63  62  64  66  65  66  69  69  71  72  73  78  80  80  85  83  84  82  79  84 102 111 116 138 178 187 188 188 189 190 190 190 192 191 192 193 194 194 194 195 195 196 196 196 196 197
 168 168 168 167 167 168 168 167 167 167 167 168 168 168 167 167 167 167 168 169 169 168 168 165 119  78  70  66  62  59  57  56  56  53  52  50  50  50  49  52  53  56  57  57  58  58  59  61  60  62  63  67  68  70  74  74  74  79  79  79  83  84  80  78  78  93 108 112 119 145 182 187 189 188 190 191 191 192 192 193 193 194 193 194 195 196 196 196 196 195 197 196
 168 168 168 168 168 169 167 167 168 168 167 167 168 168 167 168 168 168 168 168 169 168 169 167 149  78  70  68  64  61  59  57  56  53  52  51  53  52  51  55  56  58  57  54  55  58  58  59  60  61  64  65  67  69  69  71  74  78  77  79  78  80  76  74  85 101 110 112 120 150 182 188 188 188 188 191 191 190 192 192 192 194 194 193 194 195 196 196 195 196 197 198
 168 167 167 168 168 166 167 167 168 167 167 167 167 166 167 167 168 169 168 168 168 169 169 168 163  90  67  65  64  65  61  59  62  58  59  58  60  56  56  59  59  62  61  59  59  60  61  62  62  66  66  66  67  68  68  69  75  75  74  74  74  74  71  75  88 104 110 114 121 156 184 187 189 188 189 191 190 191 192 192 192 193 195 194 194 195 197 195 195 196 197 197
 168 167 168 167 167 167 169 167 168 168 168 168 168 168 168 168 167 168 168 169 168 168 168 166 132  80  60  63  66  68  67  67  68  68  67  63  60  57  56  59  59  60  61  62  66  67  69  68  71  70  67  66  69  68  64  65  69  70  70  70  70  70  71  81  92 103 110 115 123 161 183 187 188 188 188 191 191 189 190 191 192 193 195 195 193 195 195 196 195 196 196 196
 168 167 166 168 167 167 169 167 168 168 168 167 168 166 167 168 168 168 168 168 169 146 109  70  58  42  47  56  65  66  68  69  72  67  67  60  56  53  53  56  59  57  60  62  67  70  72  69  69  69  69  69  68  69  66  63  64  64  64  67  66  68  75  85  95 103 109 115 125 109 135 184 186 187 188 191 191 190 191 191 194 193 194 196 193 194 196 197 197 196 196 196
 168 168 168 167 167 168 168 168 168 168 168 167 168 168 167 167 166 166 151 119  80  59  57  52  41  36  38  49  59  64  66  70  69  66  62  58  53  52  55  54  55  57  58  60  65  71  71  69  67  71  68  66  66  65  61  61  60  60  62  63  62  71  78  86  96 104 109 118 126  89  64  90 153 186 188 190 190 191 191 191 194 193 196 195 193 195 196 196 197 196 196 196
 167 167 168 168 168 168 169 168 168 167 167 167 166 166 165 159 121  86  60  53  50  49  48  43  35  35  36  41  50  62  64  65  64  60  57  54  52  52  52  53  52  57  59  61  64  65  66  65  66  66  68  64  62  59  55  55  57  55  58  61  66  73  81  88  97 104 111 117 126  76  61  57  64  82 123 168 187 189 191 191 192 194 195 194 195 197 196 195 196 196 196 197
 168 168 167 168 167 168 168 168 168 166 165 164 154 120  92  60  57  54  48  45  44  44  43  37  31  33  36  38  54  56  59  59  57  53  53  54  54  53  54  54  55  56  56  59  62  64  64  63  61  61  62  61  56  54  52  53  55  55  58  62  69  74  82  88  97 105 111 117 126  64  59  52  43  58  74  77 102 142 183 192 193 193 192 195 195 196 197 195 196 196 196 198
 168 168 168 168 168 168 167 166 166 164 131  88  62  57  50  47  45  42  41  40  42  41  39  34  31  33  36  35  74  52  56  55  51  49  51  53  53  52  53  54  57  55  57  56  59  59  56  55  57  57  55  55  52  50  49  51  53  55  61  66  69  76  84  89  97 105 112 118 125  51  55  52  49  40  59  69  68  71  83 123 172 193 192 195 194 195 194 194 197 196 197 200
 168 168 168 168 166 167 170 147 103  65  56  51  48  44  40  39  40  38  38  39  39  38  37  30  31  32  34  40  77  69  50  47  44  47  49  49  51  51  52  55  55  51  53  54  54  51  49  50  54  54  53  52  48  46  49  52  54  59  64  67  71  79  84  91  98 106 115 116 122  50  50  54  51  42  42  62  65  64  64  68  75 108 162 194 193 195 196 195 196 196 197 197
 167 167 167 167 149 109  70  55  53  46  42  41  40  38  36  37  37  37  37  38  38  38  36  29  30  30  33  40  79  76  61  41  39  41  44  44  46  48  49  52  50  52  50  49  49  48  49  48  50  52  52  51  45  44  49  53  55  60  64  66  75  80  84  90  99 106 112 117 120  61  45  53  52  48  39  52  64  63  60  60  62  68  73  95 148 190 195 196 195 198 199 197
 167 163 125  89  53  54  47  43  40  40  38  38  37  36  36  37  36  36  38  37  38  37  33  26  31  30  32  48  76  76  68  61  43  38  39  41  41  42  44  47  47  48  47  46  44  45  47  45  49  45  46  46  45  46  49  54  56  62  64  66  79  84  86  92 101 106 112 117 122  75  42  51  52  50  41  42  56  62  62  59  58  59  62  67  75  91 143 188 194 195 196 197
  94  56  51  48  43  41  38  39  36  36  36  35  35  35  36  35  35  36  36  37  35  36  31  27  29  30  30  54  77  76  71  67  56  43  36  37  38  40  39  41  40  39  40  42  41  40  40  40  41  39  42  42  42  47  53  56  58  62  68  73  80  87  88  95 101 105 110 117 119  88  36  51  52  52  45  38  48  58  61  59  56  57  59  60  62  67  75  84 135 186 194 196
  46  45  42  39  38  37  36  35  34  35  33  34  34  34  34  34  35  35  36  36  36  34  30  26  28  29  28  54  76  74  70  68  63  59  46  38  35  35  34  37  36  38  37  38  41  40  39  40  38  38  39  39  43  49  54  54  55  63  71  77  82  89  91  97 101 105 110 117 120  99  36  48  52  50  47  37  46  54  59  59  58  57  56  57  59  60  64  67  78  89 136 181
  39  39  37  36  36  36  33  34  31  32  31  32  31  32  33  33  33  35  35  35  35  32  29  26  29  29  26  62  75  73  70  68  63  60  55  48  40  35  31  31  31  36  34  36  34  32  31  31  31  33  38  42  47  52  53  53  58  69  74  78  85  91  93  96 101 104 110 116 118 104  34  47  54  52  49  40  41  50  56  58  55  55  55  54  58  59  61  61  65  68  76  86
  36  37  36  34  32  32  32  32  31  31  30  31  30  30  31  32  32  34  34  34  35  31  30  27  29  30  27  63  71  69  69  66  63  61  57  51  44  40  34  31  31  34  32  31  30  30  28  30  34  36  40  45  47  52  54  57  64  72  76  80  86  89  94  96 100 106 113 116 117 108  41  46  55  51  50  40  40  48  53  56  58  54  54  53  53  58  59  60  61  62  65  68
  35  35  34  32  30  31  31  30  29  29  30  30  30  31  32  31  31  33  34  34  33  32  30  28  29  31  27  60  68  67  68  66  64  59  56  53  47  43  39  38  34  33  34  33  36  36  36  40  43  43  45  48  50  51  55  59  65  71  76  82  85  91  94  97 100 107 112 114 115 110  42  46  51  49  48  39  40  46  52  56  57  54  53  50  50  54  56  57  58  60  60  64
  31  32  30  31  30  30  30  30  30  30  30  30  31  30  30  31  31  31  32  32  32  30  29  27  29  28  27  53  66  66  65  63  64  60  55  51  48  46  43  42  37  36  36  35  37  40  41  42  42  43  44  48  50  52  55  60  65  71  74  78  86  89  93  96 101 108 110 112 112 108  43  46  51  50  49  40  39  45  50  56  58  55  53  50  48  50  54  53  55  55  58  59
  30  29  29  29  29  28  28  29  30  29  30  30  30  30  30  31  31  32  32  31  31  30  28  25  27  27  27  50  62  65  63  62  61  58  55  53  48  47  47  43  41  41  39  38  38  41  41  41  42  43  44  47  50  52  56  63  66  71  75  80  83  86  89  95 100 107 108 110 110 103  46  47  53  53  50  40  40  47  50  54  58  56  54  50  50  49  50  51  53  51  51  56
  29  27  28  29  27  28  27  28  29  29  30  30  30  30  30  29  31  31  31  30  31  30  28  25  26  25  27  40  59  59  61  59  58  54  52  52  50  48  46  44  41  41  42  41  42  42  42  43  43  44  46  49  52  55  59  63  69  70  72  74  82  84  89  96  98 102 106 107 109  98  44  49  53  50  48  41  40  46  49  54  55  55  54  50  49  50  50  49  51  48  50  54
  24  24  25  27  24  24  26  28  28  28  30  30  30  30  30  30  31  29  30  31  30  29  28  26  24  24  25  29  53  57  57  55  53  51  53  52  51  49  47  44  43  44  43  44  44  43  41  43  44  45  48  51  55  59  63  68  69  70  71  73  77  83  89  92  94  97 100 102 105  87  43  49  52  51  47  40  42  46  51  53  57  55  53  51  50  48  52  49  49  47  49  51
  24  26  26  25  27  27  29  30  28  28  29  30  30  29  30  30  30  31  30  31  30  29  29  26  24  21  22  22  43  53  54  54  53  51  51  51  50  49  49  48  45  46  46  45  47  45  46  47  48  49  51  56  59  63  68  70  70  70  71  74  75  82  88  91  93  93  95  98  98  73  45  50  50  50  49  40  43  49  51  53  54  55  55  53  52  48  49  48  48  46  48  50
  21  23  25  24  27  26  25  26  27  28  28  29  30  29  29  29  31  30  29  30  30  29  29  27  23  22  22  23  32  48  50  51  50  50  50  52  50  49  49  49  49  49  48  48  49  47  49  49  52  54  57  62  63  65  70  71  70  69  71  72  74  77  83  86  85  86  89  94  92  58  49  49  50  48  47  44  46  49  50  52  54  55  56  53  52  50  47  47  46  47  46  49
  21  22  25  23  24  26  25  25  27  28  28  27  29  30  30  29  31  29  28  27  29  29  26  22  21  22  23  22  23  37  47  48  49  48  49  49  50  49  48  48  48  49  49  48  50  49  49  51  52  54  58  62  67  69  71  72  71  71  70  71  74  75  78  78  78  79  85  90  75  48  50  50  50  47  44  44  48  50  52  53  53  54  54  53  54  51  48  45  46  47  48  48
  22  21  23  22  24  25  24  25  26  26  27  28  29  30  30  30  29  28  26  29  28  24  21  25  25  22  21  21  21  23  37  44  47  47  48  48  49  48  47  48  48  48  48  50  50  51  50  53  53  55  58  63  66  68  70  72  70  70  70  70  71  73  74  75  76  77  80  78  53  48  49  50  46  46  45  45  49  54  54  55  53  52  53  51  51  52  47  47  47  46  46  46
  22  22  22  23  25  23  25  26  26  26  27  28  29  30  29  30  29  28  27  27  24  22  26  28  25  23  22  22  20  21  23  37  44  47  48  48  48  49  48  49  47  48  49  49  50  51  51  51  54  56  59  61  65  66  69  69  69  68  68  69  71  70  71  71  72  73  72  52  46  47  49  48  47  47  45  46  49  53  56  56  55  54  54  53  52  51  50  47  49  49  45  44
  21  22  23  23  24  23  23  24  24  26  29  30  30  30  29  29  27  26  27  23  24  29  27  26  27  23  22  21  21  22  21  23  36  44  45  47  47  49  48  46  46  47  47  48  49  50  50  50  50  54  57  61  62  66  66  67  68  68  68  68  69  68  68  67  68  65  49  43  46  46  46  47  48  46  46  48  51  54  55  57  54  54  57  53  52  52  49  48  47  48  44  44
  21  22  22  22  24  24  23  25  26  27  29  30  27  28  28  29  26  24  22  24  30  28  27  27  26  24  23  21  21  20  20  21  24  34  42  45  46  48  48  48  47  47  46  49  49  50  50  51  50  54  56  58  62  65  67  67  67  67  68  67  68  66  62  63  59  45  40  44  45  45  46  46  45  43  41  48  52  54  55  57  55  55  56  52  51  50  48  48  46  46  46  44
  22  21  23  23  23  24  26  27  29  28  29  29  30  28  27  26  24  21  26  30  27  28  27  25  27  25  26  22  21  20  20  21  22  20  32  43  45  47  48  48  46  47  46  48  48  50  50  50  50  52  57  58  61  63  65  66  65  65  67  63  62  63  57  52  40  40  41  43  44  44  45  45  47  58  50  41  49  51  58  57  54  57  59  55  53  50  48  48  47  46  45  46
