P2
# Generated by OpenCV 3.4.0
92 112
255
 141 142 143 144 144 144 144 146 145 144 143 145 146 146 145 146 146 145 146 146 147 149 148 147 146 147 147 149 147 137 131 126 111 112  91  74  58  43  36  34  64  82  62  44  35  30  57  70  76  62  71  61  38  40  41  37  41  51  56  70  96  93  96 103  98  91 104 131 127 104 121 129 134 114  92 118 139 147 151 152 152 152 152 153 152 152 152 152 151 152 152 151
 143 143 143 144 145 144 145 144 146 145 145 146 146 146 146 145 145 146 146 145 146 148 147 142 143 147 146 145 136 136 114  94  87  80  63  53  42  30  29  30  36  40  40  31  25  23  34  45  55  39  45  43  34  30  33  31  36  40  45  57  73  68  83  90  83  86  88 115 126 104 108 113 117 118  78 107 122 135 148 150 151 152 152 153 152 152 153 152 152 152 151 151
 142 144 144 143 143 145 145 145 147 146 145 146 145 146 148 146 146 147 146 145 145 148 145 145 137 141 135 130  97  69  67  59  54  53  45  39  30  29  28  28  29  30  31  27  20  20  24  30  30  27  31  29  27  28  29  29  31  34  33  40  54  60  61  58  78  82  69 116 115  96  86 100 108 108  73  94  99 130 137 144 147 152 152 152 152 153 152 151 152 152 151 151
 143 143 145 145 145 145 145 146 146 146 145 147 147 146 147 147 146 145 144 145 145 142 140 129 112 103 101  90  67  51  38  39  38  34  30  29  28  28  28  29  28  25  27  26  22  19  21  22  22  22  25  24  26  28  30  27  28  28  30  31  36  41  44  50  57  67  65  95  81  71  75 105 102  81  66  79  85 126 123 136 148 148 150 152 153 153 152 152 152 153 152 152
 143 144 147 146 145 146 145 146 146 145 146 147 147 147 147 147 144 146 148 147 145 137 122  85  68  59  49  47  46  34  30  34  31  27  26  27  28  28  29  29  27  26  24  20  16  15  16  16  16  19  23  23  29  28  26  24  26  24  26  28  31  33  33  36  47  67  56  72  62  57  69  87  77  61  63  70  92 128 107 131 139 136 149 150 153 152 151 152 153 153 152 151
 143 144 145 145 145 147 145 146 147 146 146 146 147 148 146 144 147 148 148 146 140 135 124 107  68  46  39  40  35  32  33  32  30  28  25  23  24  27  29  28  25  23  18  21  20  18  16  15  18  21  22  28  27  25  23  22  22  19  18  23  27  29  29  31  41  45  40  50  47  51  64  65  60  50  64  67 108 111 102 122 130 138 148 149 153 152 152 152 152 152 152 151
 144 144 145 146 145 148 147 146 147 146 145 148 148 145 146 148 149 148 148 147 145 136 122 104  69  44  36  36  31  34  31  28  26  24  21  22  26  25  29  25  20  19  17  16  16  15  14  17  17  22  26  28  25  21  20  17  17  16  17  23  25  25  27  28  31  32  34  38  46  46  57  57  49  46  50  68  97 102  92 114 124 133 144 149 152 152 153 153 152 153 152 152
 146 146 145 144 146 147 146 145 146 144 146 146 145 146 148 148 148 148 149 147 142 134 122  73  50  43  36  34  31  31  31  25  22  23  25  25  24  25  26  18  16  17  18  16  16  16  18  16  20  23  23  22  17  17  16  15  16  18  20  22  23  25  28  32  32  31  33  38  40  39  46  43  39  41  43  65  81  91  81 102 112 128 132 149 152 152 152 153 153 153 152 152
 146 144 144 145 145 145 146 146 144 145 146 144 146 148 148 149 149 149 149 143 138 135 110  66  47  37  34  30  29  27  25  24  23  23  21  21  18  23  20  16  16  16  16  16  16  16  19  20  21  19  16  15  16  15  15  15  17  17  20  24  24  28  33  33  34  35  35  37  38  38  36  33  34  35  39  50  67  82  85 103 105 120 123 146 147 148 151 152 152 152 152 152
 145 145 147 145 145 145 145 145 145 145 144 146 146 148 149 149 150 150 148 145 139 126  85  53  40  34  30  27  25  24  25  23  18  17  20  19  20  21  18  16  14  14  15  14  15  16  19  19  17  16  15  14  14  13  14  16  18  20  21  24  26  27  27  28  30  30  31  34  35  35  33  33  33  34  37  47  67  75  84 104  92 100 107 139 144 147 151 153 152 152 152 152
 144 146 146 144 147 146 146 147 146 146 146 148 147 148 150 150 149 148 149 143 128  95  54  42  34  31  28  27  29  28  28  23  22  25  22  18  17  20  22  21  14  14  15  15  16  17  17  15  15  14  13  12  12  12  14  14  16  21  25  28  29  28  31  31  30  30  31  32  33  35  33  33  31  31  35  50  65  69  85  94  85  93  86 127 136 147 149 152 152 152 152 152
 145 146 145 144 145 147 145 147 146 147 147 148 147 148 149 149 149 149 147 144 125  77  46  32  31  33  34  32  27  30  25  21  20  20  23  26  21  20  24  26  28  20  16  15  15  16  15  13  12  12  12  12  12  12  14  15  17  19  22  25  25  25  26  27  29  29  29  32  33  34  34  33  32  33  34  42  45  52  81  87  78  73  86 112 129 144 149 152 151 152 152 152
 143 144 145 143 146 146 147 147 147 146 147 148 149 147 149 149 149 148 146 139  91  43  36  37  35  33  33  29  27  26  16  15  14  12  12  17  18  19  24  24  26  26  20  16  15  13  12  12  12  12  13  14  12  13  15  15  16  18  24  26  26  25  23  22  23  24  25  28  27  30  30  31  33  32  33  35  39  52  79  82  58  65  81 109 125 141 148 151 152 152 151 152
 145 145 146 145 144 146 146 145 146 147 147 148 148 148 149 150 149 148 145 115  47  39  37  34  32  30  30  26  23  17  15  14  14  13  14  15  15  17  21  23  24  25  26  20  16  16  13  12  12  13  14  15  15  16  15  15  18  18  20  23  23  26  24  24  21  19  18  24  24  23  27  29  30  29  30  35  41  52  57  55  51  65  80 105 124 134 147 151 152 153 152 152
 144 146 145 145 147 148 146 147 148 148 149 147 148 149 148 150 148 148 141  71  39  37  36  34  30  29  23  22  17  13  13  13  12  13  13  14  17  18  17  20  24  26  27  25  21  18  15  16  15  15  15  15  16  17  18  18  21  22  22  19  17  16  17  18  21  21  18  18  19  20  23  26  26  28  30  33  38  44  45  41  51  68  75 110 114 130 148 152 152 151 152 153
 145 145 145 146 146 147 145 146 147 148 148 147 147 147 148 148 149 144  88  39  36  35  36  30  29  25  20  17  15  14  13  14  13  13  13  15  16  15  19  20  23  24  28  29  29  27  19  15  15  16  17  17  17  19  19  22  23  24  24  22  18  18  18  18  16  16  18  19  19  21  22  22  25  26  26  29  31  34  34  40  50  55  84 104 102 125 146 148 149 151 152 152
 145 146 146 147 146 148 146 148 147 148 147 148 147 147 150 149 146 125  49  37  38  35  32  29  28  22  19  14  14  15  14  14  15  15  16  17  16  16  18  23  25  24  24  27  29  29  28  21  17  17  17  18  18  18  17  20  22  22  24  21  22  21  19  17  18  17  17  17  20  20  20  20  24  26  25  27  29  29  31  37  44  72  88  78  82 118 137 144 150 151 152 153
 146 146 147 147 147 147 147 148 148 148 147 149 149 149 148 146 141  88  38  38  33  30  30  24  25  20  20  15  15  15  16  16  19  19  21  21  22  22  23  24  26  26  27  26  26  29  29  27  21  19  20  21  22  21  18  18  19  22  22  22  22  21  19  19  19  17  17  17  18  21  19  19  21  23  23  24  26  28  29  35  65  80  67  82  76 100 130 147 151 152 152 153
 146 146 148 148 148 147 148 148 148 148 147 148 149 149 149 147 129  58  39  35  30  27  27  22  22  20  18  15  16  16  20  24  26  28  29  29  29  29  31  31  30  30  29  28  26  29  27  27  23  20  21  23  24  24  23  20  19  19  22  21  24  22  19  19  21  17  17  17  17  20  21  17  16  18  19  20  23  26  30  38  48  48  53  57  73 110 136 148 152 152 152 153
 147 148 148 148 149 148 148 148 149 150 149 149 149 150 149 145 106  50  36  32  29  25  23  22  20  18  16  16  19  24  32  36  36  38  39  39  39  39  39  37  35  35  32  30  28  27  25  26  24  22  22  24  25  25  25  26  24  24  23  23  23  23  20  20  20  18  16  17  17  19  24  21  17  17  18  20  19  22  24  30  36  41  45  64 105 130 142 151 153 154 153 153
 148 148 149 148 149 149 148 149 149 149 149 150 150 148 146 130  59  37  30  30  29  24  25  18  16  15  15  19  29  37  46  45  47  48  49  47  47  47  47  43  41  40  37  33  29  30  28  27  26  23  19  23  26  28  27  28  28  27  26  25  23  22  19  22  20  19  17  16  17  19  22  25  19  16  17  18  17  18  23  27  34  44  62 103 125 137 146 151 153 153 154 154
 149 149 149 148 149 148 148 150 149 149 149 149 149 148 141  97  50  32  27  29  29  24  18  16  15  15  20  30  42  54  56  54  56  58  59  60  56  55  56  52  49  46  46  41  35  34  32  29  27  25  20  22  26  32  34  31  30  30  31  32  29  24  20  20  23  20  18  18  18  19  21  24  23  18  18  19  21  21  25  32  49  69  92 113 125 139 147 152 153 154 154 154
 149 149 149 149 150 150 149 150 150 149 149 149 150 149 137  93  44  30  29  31  29  21  15  15  16  21  32  43  53  62  62  62  64  66  67  66  65  64  63  61  58  53  50  47  42  39  37  34  31  28  22  20  26  33  36  38  40  39  38  39  36  32  25  21  23  24  23  21  19  22  22  23  24  23  21  22  25  27  38  54  75 107 125 136 142 150 153 154 154 154 153 153
 150 149 148 149 150 149 151 150 151 151 151 149 151 150 143  95  38  28  29  32  23  16  15  16  20  28  44  55  64  66  68  69  70  71  72  71  71  70  68  67  65  64  58  55  51  46  43  39  37  36  28  22  26  31  40  45  47  48  47  48  48  43  35  28  25  24  24  23  21  22  23  25  25  26  25  26  29  41  64  80  97 114 128 132 145 151 152 153 154 154 156 154
 148 149 150 149 149 149 151 151 150 151 151 151 150 149 144  88  36  27  31  31  20  15  15  17  24  38  55  63  71  76  77  77  75  76  76  77  76  74  73  70  71  70  67  64  58  53  49  46  44  43  37  26  27  35  43  49  51  53  54  55  57  56  50  40  31  28  26  22  20  20  21  23  25  26  26  27  30  36  64 110 128 137 144 143 150 153 154 154 154 155 154 154
 148 148 150 150 150 151 150 150 151 152 151 151 150 149 138  73  34  30  32  27  20  17  18  22  34  50  64  69  80  82  82  82  81  81  80  81  80  80  79  77  74  75  72  69  64  59  55  50  49  48  46  36  32  41  48  52  56  57  58  60  67  72  71  59  47  37  32  27  21  19  17  19  23  25  26  25  28  32  51  74 111 132 137 144 151 154 154 154 154 154 154 155
 149 149 150 150 150 151 150 150 150 152 151 150 150 147 122  50  34  30  30  23  19  17  21  30  45  62  71  78  85  86  81  81  84  84  84  86  86  85  83  81  79  81  77  74  69  66  63  59  55  52  50  50  44  49  53  56  61  62  62  65  71  80  86  80  70  57  47  41  30  21  18  17  20  22  25  26  26  33  60  90 106 113 124 142 151 154 156 155 156 155 156 155
 149 151 151 151 150 151 151 150 150 151 151 152 151 148  99  45  34  30  30  23  18  18  25  42  57  70  78  83  88  88  85  85  87  89  90  90  91  90  89  86  84  84  79  78  73  73  70  67  62  56  56  57  54  59  60  62  65  65  66  67  72  81  92  93  91  81  69  58  45  28  22  20  18  20  23  25  28  33  53 106 114 124 139 146 152 154 155 156 155 155 156 156
 149 149 151 151 151 152 151 152 150 150 152 152 146 130  64  42  34  28  30  22  19  22  35  54  68  78  82  88  90  90  90  91  91  94  94  97  96  96  94  92  91  88  86  83  78  80  78  75  69  64  60  63  64  66  68  70  72  71  72  74  77  86  93  98  98  96  92  80  66  45  27  25  22  21  24  25  27  31  48  93 125 139 148 153 155 156 156 155 156 155 154 155
 150 151 151 152 152 151 151 152 152 151 151 150 147 102  55  39  32  26  28  22  21  28  46  65  76  84  86  91  92  92  94  94  96  98 100  99  98  97  96  95  95  94  90  88  84  84  83  81  76  71  67  69  71  73  77  79  80  80  80  82  86  88  94 100 102 103 102  97  88  69  41  27  26  20  24  28  31  33  46  86 132 145 149 154 155 156 155 156 156 155 155 156
 151 152 152 152 153 151 152 152 153 152 150 147 138  61  45  36  28  26  29  23  24  37  57  73  83  87  89  92  94  93  95  97  98  98  99  98  98  98  98  98  99  97  95  93  90  90  91  91  88  83  79  77  76  79  83  86  88  88  88  88  90  90  96 100 103 106 105 103  99  86  57  37  28  20  22  30  34  37  49  85 127 146 151 155 157 156 155 158 158 156 156 156
 152 152 152 152 153 153 153 153 153 153 152 148  95  50  36  31  25  26  28  23  30  47  67  80  86  87  92  94  96  96  98 100 101 100 100 101 101  99 100 102 101 101  98  98  96  96  95  98  98  98  92  87  89  91  93  93  93  94  95  96  98  97 100 102 103 106 109 108 104  98  78  50  33  22  20  26  37  41  50 101 136 150 155 155 156 157 156 157 156 157 155 155
 152 153 154 154 153 154 154 154 154 152 152 140  71  44  33  30  25  26  27  26  38  59  76  86  88  91  95  99  99 102 103 102 103 103 104 103 102 102 104 103 103 102 100 100 100 103 102 103 103 102  99  96  97  97  97 100 100 102 103 103 104 104 104 106 107 107 109 111 109 104  93  65  40  23  19  23  38  45  54 101 140 154 156 158 157 157 157 158 158 158 156 156
 152 154 153 153 153 154 154 154 153 152 151 134  59  40  33  28  25  25  26  29  48  69  82  87  90  94 100 101 102 103 105 105 104 103 103 102 103 102 103 104 105 103  95 102 104 107 107 108 107 103 100 100  97  96  98 100 103 104 105 106 107 106 107 108 110 109 109 111 111 106 101  78  52  27  21  24  35  45  52  99 138 151 156 158 158 158 158 158 157 158 156 158
 152 154 154 153 153 154 154 153 154 154 150 122  46  39  31  26  25  26  29  36  58  79  86  90  93  97 100 100 103 104 104 104 104 103 103 102 101 100 101 103 105 102 103 106 105 105 107 107 106 100  99  97  94  93  93  95 102 102 105 108 106 107 107 109 112 112 111 111 111 108 105  90  61  36  24  26  36  40  46  90 142 150 157 157 158 158 158 158 158 158 158 158
 154 153 153 154 154 154 154 153 154 154 150 106  45  37  28  29  28  28  31  47  72  87  89  92  95  99 102 102 102 103 104 104 104 103 102 101 102 101 101 103 104 102 104 105 106 105 106 105 103  98  96  94  92  91  92  93  98 101 103 107 106 107 106 108 110 110 111 112 111 110 107  96  71  44  27  29  40  39  42  81 137 154 155 157 158 157 157 157 158 158 158 158
 153 153 152 154 154 154 154 154 154 154 152 101  41  35  29  28  29  29  39  61  82  89  93  96  99 103 105 104 102 104 103 102 102 102 102 100 101 101 100 100 101 101 102 103 105 104 102  98  98  95  91  90  90  90  91  92  94  97 103 105 106 106 106 108 106 108 109 112 112 110 107 100  73  47  32  30  39  40  42  76 140 156 157 157 159 158 159 158 158 157 157 157
 154 154 152 155 154 154 154 154 154 155 148  85  41  34  29  28  30  31  48  72  86  90  94  98 101 104 104 103  99  99  98  92  93  96  95  97  97  95  94  96  98  98  99 100 100  98  96  93  92  90  87  86  86  86  89  93  92  95  99  99 103 102 103 106 108 109 110 111 111 111 108 101  81  50  35  29  34  38  44  81 142 156 158 159 158 159 159 158 158 156 156 157
 153 153 152 153 153 154 155 154 154 155 147  91  42  31  29  28  29  33  54  78  87  92  96  99  98  97  94  88  74  74  61  56  58  66  78  83  87  87  88  91  94  93  94  96  96  93  90  88  86  84  83  82  82  82  82  85  85  87  90  93  95  92  95  95  97 101 108 112 112 110 107 105  88  59  38  29  30  35  44  80 149 156 158 158 158 159 159 158 158 159 158 157
 153 153 154 153 154 154 154 154 154 154 148  99  44  32  29  29  28  34  60  82  89  93  94  86  74  68  65  59  46  37  34  31  30  31  35  53  57  72  76  82  85  86  89  87  87  88  86  82  79  79  75  71  72  70  69  67  66  62  66  66  73  73  76  80  80  86  94 107 111 109 107 106  89  60  43  30  29  32  44  75 146 156 158 159 160 159 158 158 158 158 157 157
 154 154 154 154 154 154 155 154 153 154 149 126  50  32  29  29  28  38  70  85  89  89  70  55  54  53  46  35  33  30  25  24  24  24  26  31  36  42  54  63  71  80  83  82  83  82  80  76  73  67  55  55  52  47  45  45  39  38  37  36  38  42  46  52  51  57  65  84 105 109 106 106  94  60  41  34  29  32  42  74 149 158 159 159 159 160 159 158 158 158 156 157
 154 153 154 154 155 154 155 154 154 153 152 134  58  34  29  28  27  46  80  88  87  63  49  45  45  38  30  28  28  25  23  20  22  24  23  24  28  30  34  42  53  68  74  78  80  78  74  70  60  51  41  40  35  34  32  32  28  27  26  26  26  28  28  33  36  41  44  53  71  98 104 107  99  63  38  37  30  30  40  79 152 157 158 160 159 158 160 158 158 158 157 156
 153 154 154 154 154 155 155 154 154 154 153 143  69  37  30  27  25  53  86  87  55  46  43  42  42  42  41  42  39  34  31  19  20  22  23  22  25  26  29  33  40  54  65  70  74  74  70  62  50  40  33  32  29  28  27  26  24  24  24  31  36  35  36  36  35  36  37  41  49  66  88 101 103  72  37  34  32  31  39  88 152 157 158 159 158 158 159 157 158 158 159 156
 154 153 153 154 153 155 155 155 153 152 153 144  79  39  31  26  27  65  81  65  45  42  41  40  38  36  36  36  37  39  43  44  44  40  30  22  24  25  28  30  37  45  53  67  75  72  68  53  45  34  30  29  25  24  23  34  37  41  41  37  32  29  30  31  31  33  33  34  37  43  57  85 106  80  37  32  31  34  36 109 150 157 159 158 157 158 159 158 158 156 156 156
 153 153 153 154 153 153 154 154 153 153 151 143 102  40  31  26  30  56  42  45  42  38  33  31  32  35  38  42  42  41  40  37  33  32  39  45  38  31  27  31  34  42  50  66  76  75  67  52  43  31  28  29  32  40  40  30  26  25  25  26  26  28  31  34  34  34  35  33  33  37  36  45  84  87  39  31  33  36  40 129 154 156 158 157 158 158 157 158 157 156 156 156
 153 152 153 154 153 153 154 154 154 153 151 146 126  42  33  31  44  38  56  58  38  35  35  37  44  49  51  54  54  50  48  43  41  38  39  36  35  48  50  52  52  53  54  70  78  76  67  55  55  52  50  50  37  28  28  27  27  28  29  29  31  34  36  38  38  37  37  37  38  46  48  42  34  66  38  32  33  35  70 144 154 155 156 158 157 158 156 157 157 156 156 155
 153 152 153 153 154 153 154 154 153 153 152 151 138  48  41  45  36  33  55  50  43  43  45  49  55  59  60  58  58  54  49  45  42  41  41  41  38  33  40  45  43  39  39  37  40  31  33  36  41  46  44  33  32  32  33  32  33  32  34  36  38  39  42  45  46  46  46  47  49  51  53  57  53  34  35  32  34  35 104 150 154 156 155 157 157 157 156 157 157 155 156 156
 152 152 152 152 154 154 154 153 153 153 153 139 116  72  52  40  39  31  58  53  52  54  57  59  59  56  56  53  52  46  39  37  36  35  37  38  38  38  36  38  40  47  50  54  55  53  48  50  45  39  34  35  38  34  33  30  31  34  35  36  38  40  43  45  48  52  56  56  56  58  60  67  90  42  32  35  40  39 118 152 155 156 157 155 156 157 157 158 156 155 156 156
 152 152 152 152 153 153 153 153 153 152 152 101  58  55  48  42  40  34  63  65  61  58  61  56  53  51  52  49  43  34  33  38  36  33  31  31  36  38  40  37  52  57  61  63  66  66  65  64  59  50  35  41  36  31  30  28  27  29  30  34  41  43  44  42  43  48  55  58  60  61  61  73 102  54  33  54  48 131 142 153 154 156 155 157 156 156 155 157 156 156 155 155
 151 151 152 151 151 153 152 154 152 152 152 117  68  42  41  52  46  35  71  71  66  62  57  48  53  47  36  31  27  26  27  28  30  31  31  31  33  36  42  36  42  53  60  75  86  84  77  67  56  42  37  38  31  28  27  25  28  28  30  33  41  40  45  45  49  53  49  54  63  66  69  83 102  52  34  29  33  45 138 152 154 155 156 156 156 156 156 156 155 156 155 155
 152 151 153 152 153 152 153 154 153 153 152 152 138  51  37  66  39  39  77  72  67  62  48  47  36  29  34  28  27  27  26  26  27  31  29  30  34  39  43  38  34  50  77  96  99  98  88  77  53  32  40  34  29  26  27  26  27  25  21  22  22  22  24  26  33  51  61  48  61  69  74  88 108  57  36  34  45  76 144 152 154 154 155 155 156 155 156 154 155 155 155 155
 150 151 151 151 152 152 151 151 152 152 153 150 114  40  38  54  30  37  85  73  68  60  45  36  29  40  46  31  25  25  24  25  28  38  37  30  32  41  46  40  34  47  76  93 100 100  91  76  54  31  42  32  29  29  27  25  28  28  21  22  20  20  21  33  32  28  39  47  51  65  73  88 111  60  37  45  41  83 145 151 153 154 153 153 154 155 155 155 155 154 154 155
 150 152 151 151 152 152 152 151 152 152 152 148  81  42  32  42  29  43  84  76  65  51  38  32  36  52  65  44  30  25  23  26  30  43  43  32  32  45  54  44  34  44  75  98 109 109 105  82  50  33  38  34  31  28  24  29  38  34  24  20  21  19  21  33  41  36  29  36  44  61  70  81 101  57  36  43  39 107 148 153 154 154 155 153 154 154 156 154 155 153 153 155
 150 151 150 151 152 153 152 152 152 152 150 142  91  44  29  41  30  36  82  78  67  52  46  43  42  47  54  44  33  29  30  33  35  44  40  39  44  50  55  44  32  47  86 108 117 122 123 101  57  34  35  43  38  29  27  30  39  40  29  26  21  22  24  33  45  43  36  34  40  60  74  85  86  46  33  35  39 120 148 152 153 153 154 153 154 154 154 154 153 153 154 153
 150 149 150 151 151 152 152 152 151 152 143 108  87  51  35  40  41  46  86  84  78  72  70  63  52  46  46  46  43  44  44  44  48  48  50  57  62  63  44  36  33  55 100 117 125 131 133 113  68  34  37  51  49  48  45  44  45  42  37  34  34  33  33  38  40  43  50  57  58  70  83  95 100  45  32  29  58 113 135 146 151 153 154 154 154 153 153 153 153 153 153 152
 149 149 151 151 151 151 152 153 152 149 120  85  80  64  51  41  55  64  93  88  85  84  81  71  64  60  55  54  51  51  51  54  54  52  53  54  57  61  57  31  39  65 102 118 124 127 126 113  80  37  35  46  51  49  45  46  47  48  47  44  44  40  43  45  49  58  69  77  80  87  94 106 113  68  62  44  70  96 121 132 146 151 152 153 155 153 153 154 154 153 154 153
 149 148 150 149 150 151 151 152 151 147  98  49  51  64  62  42  58  72  98  93  91  89  82  73  67  64  62  62  61  60  60  59  56  54  56  57  62  64  54  34  50  75  98 115 120 118 119 107  82  44  39  59  56  48  44  41  42  47  49  50  49  48  49  53  58  66  75  84  92  99 106 110 116  69  88  82  85 100 100  84 127 149 152 151 152 152 151 152 152 154 153 153
 147 148 150 148 148 148 151 148 147 146  97  49  43  49  62  47  56  87 102  98  95  89  82  75  68  64  63  63  65  62  57  54  57  63  66  67  71  72  45  52  61  80  98 114 117 119 112 103  80  53  39  55  63  56  51  50  47  45  44  46  48  49  49  54  59  67  75  86  97 105 109 114 105  79  98  91  92  82  51  56 116 145 152 153 152 152 152 151 152 153 153 153
 148 146 148 149 148 148 148 147 148 147 100  48  43  51  60  53  68  88 102 102  99  90  85  81  77  69  66  64  65  62  66  67  72  74  74  74  76  64  44  62  69  83  98 113 119 119 113 102  83  62  48  43  66  67  62  61  57  57  54  51  51  49  49  54  62  69  76  85  95 103 109 113  78 100 107  93  93  58  42  52 115 147 151 152 152 150 151 152 152 153 152 152
 147 147 148 147 146 148 148 149 148 146 100  50  47  62  68  55  92  56 102 103 101  96  92  89  86  84  83  83  81  78  79  79  79  79  80  80  77  39  62  66  74  85 100 113 116 116 108  99  85  71  52  42  58  71  73  71  70  68  67  65  68  67  70  73  75  81  86  92  96 104 109 103  71 114 103  89 105  67  44  55 119 147 151 149 150 151 151 151 151 151 152 152
 148 148 148 147 147 147 148 148 148 146 103  53  53  78  78  69 101  73  71 104 102  97  95  92  90  90  90  90  87  86  85  86  83  84  82  82  50  60  72  69  78  89 101 112 114 117 108  97  88  78  59  55  42  70  75  77  79  78  75  74  74  76  78  81  85  86  92  95  99 106 107  70 101 117 106  97 122  76  47  58 125 147 150 150 150 151 151 150 149 151 151 150
 147 146 148 148 148 148 148 147 147 144 107  57  60  91  90  74 101 103  60  75 101  98  96  96  95  93  91  91  92  89  88  87  86  83  84  61  58  78  70  71  84  91 105 111 116 117 109 100  90  82  68  64  66  44  72  79  82  83  81  82  80  80  81  85  86  90  95 100 103 104  79  86 112 117 104  99 129  84  48  68 130 147 149 149 150 149 150 150 150 149 149 149
 148 147 147 147 147 149 149 148 148 145 111  62  69  94  82  75 104 104  99  72  77  95  98  96  98  96  94  93  91  90  89  88  88  83  52  62  81  77  73  77  90  97 106 108 112 114 107 103  96  88  74  65  70  77  44  62  79  83  85  84  82  83  85  86  86  88  95  98  99  70  84 109 112 115 102 102 129  92  53  76 134 146 147 148 148 150 150 149 150 147 148 148
 147 147 148 148 147 148 148 148 149 146 117  67  81  90  72  81 102  99 101  99  90  72  72  86  96  95  93  90  92  92  87  77  56  51  76  82  80  78  75  81  93 100 105 107 113 110 103 100  99  92  82  68  67  78  80  58  48  62  80  84  84  85  86  89  90  91  88  79  76  94 104 109 112 116  98  75 114 108  57  86 136 146 147 147 148 148 149 149 149 148 147 149
 147 147 147 146 148 150 147 146 149 147 125  80  87  85  68  87  99  99 101 101 101 100  96  83  73  66  68  67  68  70  63  68  79  82  80  79  78  76  72  82  95 103 105 105 106 106 102  97  98  92  85  70  67  74  76  73  72  64  55  53  54  60  60  59  66  70  79  95 101 103 107 107 111 116  98  67  87 115  65  95 138 147 147 147 147 147 146 146 148 147 147 147
 147 147 147 148 148 149 147 149 149 148 139  90  86  80  68  90  97  98 100 103 103 104 102 103 100  95  91  90  88  88  85  86  83  79  75  75  73  71  69  85 100 103 103 102 101 102  98  96  97  96  84  67  64  70  71  70  71  72  76  81  82  84  87  88  92  96 100 106 105 107 106 104 109 114 105  75  70 108  73 110 140 145 144 146 146 146 148 147 147 147 147 146
 146 147 147 148 148 148 147 148 148 148 144 101  89  84  73  88  96 100 103 104 101 104 103 100  98  95  90  90  87  86  82  79  77  74  72  70  68  67  78  94 101 103 100  98  98  95  98  96  93  95  87  67  60  63  65  67  69  70  74  77  78  82  86  87  90  94 100 106 107 108 107 106 110 112 106  79  68 102  90 121 139 145 145 146 146 147 146 148 146 148 147 147
 147 148 148 148 147 148 148 149 149 150 146 117  94  90  80  88  95 101 103 102 102 102 100  97  97  93  89  86  82  79  76  72  71  68  66  66  66  78  92  97  98  98  97  95  95  90  92  92  94  95  90  81  65  62  63  63  65  67  70  71  74  80  81  84  85  88  95 100 106 107 107 106 108 110 102  73  70 102 107 132 140 143 144 144 146 146 146 147 146 146 146 147
 147 147 147 148 148 148 147 148 149 149 146 122  95  96  90  92  96 100 101 102  98  97  92  92  92  88  87  83  80  77  74  70  67  66  65  64  70  90  93  92  94  95  93  94  91  89  90  88  89  92  91  88  83  70  64  60  63  66  68  69  71  74  77  79  83  87  90  94 101 105 106 106 107 111  94  72  81 109 116 136 141 142 144 143 144 144 142 144 146 145 144 145
 147 147 147 147 148 149 148 148 148 148 147 132  96  92 103  97  95  98  97  96  95  93  90  91  90  89  86  83  83  77  72  69  67  66  67  68  80  87  86  87  86  83  82  88  87  87  86  84  87  87  88  86  87  79  69  64  61  62  64  65  66  70  73  77  80  84  86  89  93  98 103 105 107 110 106 100 108 118 122 137 138 140 140 142 142 142 142 143 145 144 141 144
 147 148 147 147 147 148 148 149 148 148 147 139 104  97 104  94  92  94  91  91  90  91  90  89  88  87  86  84  82  78  75  71  67  67  69  70  80  79  73  77  79  76  77  82  83  81  78  78  77  77  76  76  81  79  66  65  63  62  63  65  66  67  70  74  76  80  82  85  88  93  98 101 105 108 115 130 114 106 126 137 139 139 139 139 141 140 140 141 142 142 142 142
 147 147 146 147 147 147 147 147 146 147 148 146 122 107 100  89  93  91  89  88  87  87  88  86  83  82  81  78  74  71  68  64  64  67  66  65  71  68  62  64  68  71  74  74  73  72  69  67  65  64  63  63  70  73  64  65  63  62  63  66  68  69  70  71  73  77  80  82  85  84  87  97 101 105 120 134 112 118 132 138 138 140 140 138 138 139 141 140 140 141 140 140
 147 146 146 147 147 146 147 147 147 147 149 147 130 108  99  88  92  87  87  86  82  81  80  79  79  76  72  69  66  63  59  59  65  69  67  66  62  55  49  51  58  62  64  64  65  62  59  56  53  54  50  51  56  63  65  68  63  59  58  62  63  64  64  67  70  72  76  77  78  82  87  93  99 103 116 134 133 131 135 139 139 139 139 139 139 139 139 140 140 139 139 139
 146 146 146 147 146 146 147 148 148 148 147 146 121 101  94  83  87  85  84  81  78  74  74  75  73  70  66  62  61  58  57  64  70  72  70  71  62  46  34  34  47  53  51  51  53  52  49  47  48  40  34  40  48  60  70  71  68  62  61  58  58  57  58  61  62  65  69  73  74  79  85  92  95 103 111 128 135 134 138 139 138 139 139 139 139 139 138 139 140 139 139 139
 146 146 145 146 146 147 146 147 147 148 148 147 125  91  83  76  86  83  81  77  72  71  70  68  66  57  53  54  54  53  59  67  72  72  73  73  66  56  43  37  41  46  44  42  43  42  41  44  41  35  36  44  52  66  75  76  73  67  63  59  58  54  55  54  55  57  60  66  72  78  85  90  91  96 102 119 126 134 137 138 138 137 137 138 137 138 137 137 138 139 138 137
 146 146 147 146 147 146 147 146 146 147 147 147 138  98  72  70  82  81  77  74  70  66  64  61  58  52  51  50  49  52  63  70  74  72  74  72  69  61  50  45  42  41  40  39  37  36  39  39  38  41  48  51  57  70  76  80  76  70  66  62  59  57  56  53  50  50  54  60  68  78  83  85  86  86  93 107 114 132 135 137 136 136 136 136 136 137 136 136 137 137 138 136
 145 146 145 146 146 146 146 146 146 145 147 147 145 141 125  87  79  78  77  72  65  62  59  56  55  53  50  45  49  58  65  71  73  73  77  74  65  60  51  47  42  42  41  36  34  35  37  38  38  44  47  51  60  74  78  81  78  74  68  62  57  56  60  63  53  46  50  56  66  76  83  82  84  82  75  90 119 133 135 135 136 134 136 135 135 134 136 136 136 135 136 136
 146 145 146 145 146 147 147 146 146 146 147 146 146 146 144 103  79  76  77  70  61  59  60  59  57  54  47  49  58  64  68  68  72  73  76  72  64  58  50  44  40  38  38  35  33  33  32  35  37  43  45  51  56  70  76  80  79  74  71  65  61  56  54  64  68  54  48  54  66  75  79  81  84  79  94 116 131 133 134 134 134 134 136 134 135 134 134 134 134 135 134 134
 145 144 145 145 145 146 146 146 146 146 146 147 146 145 144 114  75  75  76  72  62  60  61  62  60  52  50  59  58  58  60  62  69  66  67  62  60  54  50  43  39  35  35  33  32  31  32  32  37  42  44  46  50  61  71  75  77  74  70  65  62  58  51  53  68  69  55  55  67  75  76  82  81  83 127 132 133 133 134 134 135 136 134 132 134 131 132 132 134 133 134 135
 143 144 144 145 145 146 145 146 146 147 146 144 146 145 143 126  75  73  75  72  66  63  63  66  60  51  51  52  47  47  52  56  62  62  58  56  55  52  49  44  39  36  35  35  34  31  31  36  39  40  40  43  50  57  63  67  70  66  60  56  54  56  56  48  61  74  68  61  70  76  76  80  84  88 127 132 132 133 134 133 134 134 134 134 132 131 132 132 132 134 132 131
 143 142 143 144 144 144 145 144 146 145 145 145 146 145 144 128  71  72  72  70  69  66  68  70  63  54  49  44  39  40  42  46  60  61  60  54  51  51  49  44  40  38  34  36  34  34  35  35  38  38  38  45  52  54  60  59  62  57  55  48  45  47  49  52  63  75  74  67  71  77  77  83  84  94 128 131 132 133 133 132 133 132 132 132 131 130 131 131 132 130 130 131
 142 142 142 144 143 143 143 143 145 144 143 143 144 144 143 136  83  73  72  68  69  70  69  72  70  59  47  40  34  34  39  43  55  62  59  57  55  57  53  51  45  40  39  38  35  36  37  37  38  37  40  51  54  57  56  60  61  54  49  41  36  38  45  54  68  75  75  69  71  75  77  83  77 101 127 130 130 130 131 130 130 131 131 130 130 131 129 130 131 130 129 128
 140 141 142 142 142 142 142 142 144 143 141 143 142 141 142 140 101  69  70  65  66  68  68  71  72  63  52  41  37  35  32  35  48  56  58  59  57  57  55  55  51  46  44  42  40  39  40  42  44  43  50  50  53  57  56  61  59  52  38  30  31  38  50  59  70  76  77  71  69  74  77  79  74 117 127 128 130 128 130 129 129 129 129 128 127 128 127 127 129 128 128 128
 140 140 141 139 141 141 142 142 142 142 142 142 142 142 143 141 122  68  67  64  63  68  68  72  71  68  60  49  50  49  46  40  36  41  44  46  48  48  49  48  48  49  48  46  43  43  43  44  44  45  48  46  50  55  55  56  49  35  28  30  38  46  53  62  70  75  76  70  69  72  77  76  79 119 125 127 128 130 129 129 128 128 128 127 126 128 126 126 125 126 126 126
 139 139 139 140 138 140 142 140 142 142 140 140 141 141 142 140 137  83  66  65  61  65  64  68  70  71  69  62  64  65  64  57  49  37  32  34  35  35  37  38  38  36  38  42  41  41  39  38  36  37  37  38  39  41  42  40  38  42  39  43  50  54  55  61  70  72  70  68  69  68  73  70 100 121 124 128 127 127 126 127 126 126 127 127 128 128 126 125 125 125 125 125
 139 137 138 138 138 140 139 139 139 140 140 140 140 140 140 139 139 112  59  63  62  61  61  63  67  72  71  71  70  74  73  70  61  53  48  43  37  32  31  29  30  30  31  32  32  30  31  30  28  27  28  28  30  39  46  49  57  58  54  58  62  58  58  62  67  65  67  68  67  66  68  61 114 120 123 124 123 122 124 126 125 125 124 124 125 125 125 125 124 124 124 123
 138 138 138 138 137 138 139 139 138 140 139 140 139 139 139 137 136 130  72  56  59  58  62  62  64  70  70  72  73  74  76  76  72  67  64  60  54  53  51  48  41  35  29  30  28  27  27  27  29  32  35  41  51  59  61  66  68  68  67  68  68  60  59  62  61  57  61  60  64  60  61  83 118 121 124 124 124 124 125 126 124 124 124 123 123 124 123 123 122 123 120 119
 136 137 137 137 137 137 137 137 138 138 137 139 138 138 139 137 136 133 112  51  55  56  61  62  64  68  68  71  72  76  80  79  77  73  71  69  63  59  58  62  64  63  57  52  45  42  47  50  56  55  54  58  65  68  70  74  75  74  72  70  68  61  61  62  59  55  57  56  60  56  58 107 120 122 123 121 124 124 124 125 123 124 124 123 122 122 123 122 121 120 118 120
 135 136 135 137 137 136 135 136 136 137 137 138 137 137 137 136 136 133 128  68  53  51  56  60  62  65  67  70  72  73  78  78  78  75  73  69  66  64  58  55  61  67  67  66  60  56  62  62  63  60  56  58  63  68  71  75  75  74  72  71  67  64  64  60  55  54  56  54  52  48  72 113 118 117 120 119 121 122 120 122 120 120 120 121 120 118 119 118 118 118 118 119
 134 134 134 135 134 135 133 133 136 136 135 136 136 136 137 135 135 132 130 112  49  44  48  54  60  63  66  69  71  74  75  76  79  77  73  70  67  64  59  55  54  56  59  61  61  60  58  57  56  54  53  55  61  68  71  73  74  74  71  68  65  65  65  60  56  51  53  52  45  43  96 112 114 115 116 118 116 118 117 118 118 118 118 118 117 116 117 116 117 116 117 117
 132 133 132 133 133 132 133 132 132 134 134 135 136 134 134 134 134 132 130 122  74  40  44  49  55  61  66  68  71  74  74  77  77  76  73  69  66  63  61  58  53  52  51  53  54  54  50  47  48  50  52  55  62  67  70  70  71  71  69  68  68  66  63  60  54  49  46  42  35  75 108 111 113 113 114 116 115 116 116 116 118 116 116 118 116 116 117 117 117 117 117 116
 132 131 133 133 132 132 132 132 132 134 134 135 133 133 132 131 130 130 129 127 120  49  38  44  51  58  64  69  69  72  74  77  77  75  75  70  65  59  56  56  53  51  49  48  46  46  44  43  44  49  51  55  60  62  65  68  69  70  70  71  69  69  64  57  51  43  35  31  36 102 110 111 113 112 113 116 114 115 115 116 117 116 116 117 117 117 117 115 116 117 117 116
 131 132 131 131 131 131 133 132 133 134 132 132 131 131 130 130 130 129 128 127 122  68  33  36  42  48  59  65  66  67  70  75  76  75  74  72  67  60  52  49  45  42  42  40  40  38  39  39  41  44  45  50  53  58  66  67  69  70  71  73  73  70  63  53  43  33  29  27  67 106 110 111 112 111 113 115 114 114 116 116 116 116 117 117 115 116 116 116 115 114 115 113
 130 130 131 130 130 129 130 130 131 130 130 130 130 129 128 129 128 127 126 126 124 111  49  31  35  43  51  57  60  63  69  75  76  74  71  71  67  63  53  46  42  38  37  36  38  37  36  34  36  41  47  50  55  60  64  67  71  73  74  75  73  70  58  47  37  31  28  40  67  82  89  96 104 107 110 112 112 112 113 112 114 114 114 114 114 112 113 112 111 112 110 111
 130 129 129 129 130 130 130 129 130 131 129 128 128 127 127 126 125 124 124 124 123 114  82  39  34  34  42  45  51  60  68  73  74  74  70  70  68  63  56  49  46  41  39  38  37  33  32  32  37  40  45  51  57  62  67  69  72  73  75  75  69  61  55  39  33  29  39  50  28  28  55  71  75  79  87  91  93  98 102 105 108 110 112 111 111 110 111 110 111 111 110 111
 127 128 128 128 128 129 128 129 129 126 126 125 126 125 125 125 124 124 124 121 119 116  91  53  29  29  31  38  54  57  65  73  74  74  73  71  69  68  62  57  53  48  46  44  40  34  32  35  39  46  50  56  60  65  66  72  72  74  75  74  67  60  50  37  28  26  69  52  18  18  19  49  68  68  72  75  71  72  77  82  86  90  96  98 102 104 106 107 107 108 109 108
 127 127 126 127 127 126 125 127 126 124 125 125 125 124 123 122 122 120 119 117 115 108  86  60  41  26  26  33  47  55  62  66  72  75  72  70  67  67  71  69  65  62  59  58  56  50  51  57  62  68  68  68  66  67  70  72  74  76  75  72  62  55  42  30  25  44  93  49  14  13  14  19  55  64  66  70  73  66  67  70  70  71  74  78  82  83  86  90  93  91  94  97
 125 125 126 125 125 125 124 125 124 122 123 125 123 120 120 120 118 113 107  94  76  61  61  66  62  36  25  29  37  48  56  60  66  73  72  72  70  69  73  74  74  72  72  72  70  69  72  71  73  74  72  74  74  74  72  73  75  73  70  68  58  48  33  26  31  77  96  51  15  12  11  13  37  61  60  66  72  71  64  64  65  65  66  67  71  71  72  72  76  79  80  80
 126 124 123 122 122 122 123 124 121 121 122 120 119 116 113 105  93  73  60  52  36  23  35  66  62  50  29  28  32  36  52  54  60  66  70  72  73  74  75  74  74  73  73  76  73  75  74  73  75  77  77  75  74  75  74  73  74  68  62  61  49  39  29  30  63  94  98  56  20  13  12  12  20  53  58  64  66  69  66  62  62  63  63  63  65  66  65  66  67  69  74  74
 123 121 122 122 119 119 121 119 118 118 112 105  99  90  77  67  58  50  47  29  13  12  32  65  63  58  46  26  26  32  47  49  56  63  67  69  73  75  75  74  72  72  73  76  73  73  72  71  74  75  76  75  75  74  72  70  67  62  52  49  38  29  25  47  88  97 100  70  29  20  14  13  15  44  59  58  63  65  66  65  63  65  64  63  61  61  63  65  66  67  66  67
 120 118 119 118 113 103  97  86  86  76  73  68  65  63  59  56  46  44  35  12   9  11  34  65  63  61  59  43  24  30  42  47  49  54  61  68  71  73  73  71  70  71  71  72  70  71  69  70  70  72  73  73  75  71  69  68  60  51  42  38  29  24  30  80  91  98 100  86  49  29  21  15  14  35  56  55  58  63  65  65  59  61  61  61  60  59  61  62  64  63  63  63
 105  94  84  75  70  70  68  67  66  62  57  56  56  53  48  46  43  40  20   9  16  29  52  64  64  62  62  56  35  24  37  43  48  48  54  61  66  68  68  70  68  66  66  66  66  66  66  65  64  66  69  70  71  66  62  58  52  42  34  32  24  26  70  86  92  97  99  95  73  41  28  18  15  26  55  55  59  61  64  62  62  61  60  58  57  58  60  59  60  63  62  60
  68  64  65  67  64  63  62  61  58  54  55  55  53  46  44  41  41  36  14  18  32  51  66  65  64  62  62  59  47  24  28  37  46  42  46  52  55  63  65  65  65  66  64  63  64  62  62  62  62  63  65  64  63  58  49  42  43  37  30  27  28  56  81  88  93  97 100  97  89  55  34  23  15  24  51  54  55  59  63  61  60  59  60  58  56  54  56  59  59  60  61  60
  65  67  67  66  61  60  57  52  48  51  54  54  49  44  40  38  38  31  18  29  47  65  68  67  64  64  62  60  58  38  24  32  39  39  34  46  48  56  61  61  60  60  59  61  58  57  56  58  58  61  60  56  56  50  39  36  36  31  26  22  57  77  83  88  93  97  99  98  94  72  41  27  17  26  51  52  54  57  61  62  60  59  59  58  57  54  58  59  56  58  62  60
  67  63  61  59  58  53  51  50  51  52  50  50  43  42  38  35  40  26  23  39  56  70  70  66  66  64  62  61  58  53  32  25  31  32  31  41  45  49  53  54  54  54  54  54  54  52  52  53  54  55  53  49  44  40  32  31  31  26  24  43  75  81  84  88  92  97  97  99  96  82  45  31  19  30  49  49  52  56  58  58  58  58  55  52  56  53  57  56  53  55  60  60
  61  58  55  57  54  51  50  48  49  48  46  44  40  38  33  35  38  25  28  47  66  70  70  67  67  65  63  62  62  56  47  24  24  28  30  31  35  41  45  48  48  48  46  48  48  47  47  47  49  48  42  38  36  33  30  28  25  22  39  68  80  82  85  89  92  98  99 100  97  86  50  34  20  35  50  50  54  56  58  56  57  56  54  56  54  52  53  54  52  55  62  60
  53  53  51  49  50  50  51  48  46  45  45  44  39  36  34  36  39  24  34  51  67  70  69  67  67  66  64  62  62  58  54  41  23  27  26  27  31  37  39  41  42  43  43  43  41  41  40  36  38  37  30  28  31  27  27  24  21  40  63  75  78  80  84  90  95  96  99 100  98  88  52  37  22  40  49  53  55  57  58  57  56  55  57  56  51  51  55  53  55  57  60  60
  51  50  51  49  50  48  48  46  44  43  44  44  39  35  34  35  37  28  34  52  69  70  68  67  67  67  64  64  63  60  56  54  39  24  22  23  26  30  31  30  34  37  36  38  37  36  35  30  29  28  25  24  23  24  23  20  34  63  73  75  77  80  84  90  96  96  99  97  98  89  54  38  28  48  50  49  54  58  59  56  54  50  53  54  53  51  56  56  57  58  61  60
  48  46  48  49  48  47  46  45  44  44  43  42  39  36  35  34  36  31  33  51  68  70  68  68  67  67  65  64  63  61  58  55  53  43  23  19  21  23  26  26  26  27  29  31  28  28  28  25  21  21  21  21  20  18  20  31  54  70  74  75  77  80  83  90  93  96  98  95  97  88  52  38  36  49  50  50  54  56  58  54  56  51  50  54  50  49  51  53  58  59  62  62
  49  47  46  47  45  46  45  44  44  44  43  42  37  38  35  34  34  35  31  49  67  70  69  67  68  66  66  62  62  61  59  54  54  53  43  30  21  19  21  24  20  21  22  22  21  22  21  19  16  18  16  18  18  25  38  54  66  71  73  74  77  80  86  90  91  95  96  95  95  84  49  38  41  48  50  50  55  60  58  55  51  51  49  50  49  50  55  56  59  62  62  62
  48  47  45  46  44  45  45  44  42  41  43  40  38  39  36  34  34  39  31  45  64  69  67  66  68  67  66  65  62  60  59  56  54  52  49  44  38  28  24  22  18  16  14  14  15  16  15  14  14  17  19  26  41  49  56  61  67  70  72  74  75  80  85  88  90  96  97  97  91  77  45  39  44  45  47  50  53  57  56  52  52  51  47  47  49  52  57  58  60  61  59  61
  47  47  45  45  44  44  42  44  42  43  43  40  39  38  37  34  35  38  35  38  61  68  69  67  67  68  66  63  62  60  60  57  55  52  50  49  47  42  38  32  28  24  22  22  21  20  20  23  24  34  39  46  51  55  57  61  66  69  72  74  75  80  82  87  91  94  96  94  86  65  40  43  44  47  48  53  57  56  56  53  52  47  46  48  49  53  58  61  59  60  60  60
