P2
# Generated by OpenCV 3.4.0
92 112
255
 142 142 142 143 143 142 144 143 143 144 145 145 146 145 145 144 146 145 145 146 146 146 145 146 142 142 137 134 133 130 134 122 114 101  88  91  86  72  49  45  58  54  52  44  39  42  45  58  82  51  40  75  75  49  43  57  54  46  52  83  74 109 107 121 128  98 100 120 131 135 129 133 145 149 152 153 153 153 152 153 154 153 153 152 152 152 152 153 152 151 151 152
 142 143 143 143 142 144 145 145 143 143 144 146 145 145 145 144 146 144 144 146 146 144 144 143 135 128 118  99  81  92  90  94  81  82  75  76  57  48  44  38  36  34  32  31  30  57  52  41  46  39  41  56  68  55  36  42  48  40  42  57  58  88  89 109 108  85  85 113 119 127 128 120 135 144 152 153 153 153 153 153 153 153 153 152 153 153 153 153 153 153 153 153
 142 142 144 145 144 145 144 145 145 145 145 145 145 145 146 145 146 144 145 146 143 136 129 120 101  90  75  70  52  49  46  54  52  47  52  43  42  40  33  32  31  28  27  27  30  34  34  33  34  30  33  46  47  46  33  34  36  33  36  39  43  55  68  82  75  76  81 100 107 127 117 100 119 140 149 152 153 154 153 153 153 152 153 153 153 153 154 152 152 152 151 152
 143 144 143 146 146 144 144 144 144 146 145 145 146 146 145 145 143 144 144 143 140 122  94  70  65  46  39  35  35  34  38  36  31  30  30  30  30  29  28  29  28  26  27  27  29  30  30  30  31  28  29  36  32  32  29  29  29  28  32  31  38  42  50  59  60  80  80  88  97 118 113  88 109 128 144 153 152 154 154 154 153 154 154 154 153 153 153 153 153 153 151 152
 143 143 146 145 146 144 145 144 145 145 145 146 146 145 143 144 146 145 145 143 135 121  88  56  38  30  27  27  25  28  33  33  28  26  27  30  26  24  25  26  26  25  25  26  28  30  32  33  29  28  28  30  29  26  24  24  26  27  28  31  35  39  45  50  53  79  72  75  92 108 104  75  90 111 135 149 152 154 154 153 153 155 153 155 153 153 153 153 153 152 152 152
 144 144 145 146 144 146 144 144 146 145 146 146 145 144 145 147 147 146 146 143 130  96  66  44  32  30  27  22  24  30  32  28  27  27  25  27  27  26  28  26  26  25  24  22  22  26  27  29  28  26  28  27  27  25  23  24  26  25  26  31  35  37  36  40  53  62  62  67  85  90  81  66  77  94 126 144 146 152 153 153 153 154 154 155 153 153 154 153 154 153 153 152
 143 145 145 145 145 146 145 145 144 146 146 146 145 148 148 147 146 144 139 128 102  64  48  35  29  27  23  21  25  27  32  30  27  21  20  26  27  29  27  24  19  20  19  18  21  28  26  29  29  28  25  23  22  24  24  22  23  24  28  32  32  31  31  34  42  50  53  57  76  72  65  71  69 100 118 134 144 149 148 153 154 153 153 154 154 154 154 154 153 153 152 152
 143 145 145 146 145 146 146 145 145 144 144 147 148 147 148 146 144 137 128 116  75  55  36  27  25  26  22  26  27  29  29  29  22  20  23  28  25  24  23  22  20  20  24  22  26  28  27  29  27  24  21  24  23  21  18  18  20  27  31  30  28  28  28  31  34  39  45  50  53  52  54  70  69 106 116 120 135 140 148 151 153 153 154 154 154 154 154 154 152 152 152 153
 144 144 144 146 145 146 145 145 145 146 146 148 147 145 146 142 137 128 103  74  51  37  31  26  28  25  29  32  30  27  30  26  20  25  24  23  20  17  19  18  19  19  19  20  24  22  23  25  23  25  22  20  18  20  20  24  26  27  27  26  25  25  27  29  34  36  40  46  48  51  52  57  65 108 108 104 122 139 144 150 152 153 153 153 154 154 153 153 153 153 153 153
 144 145 146 146 145 144 145 145 144 145 145 148 147 144 137 124 108  89  58  46  37  33  31  29  28  30  29  29  28  25  28  25  23  20  21  22  21  17  20  19  17  16  20  25  23  22  23  26  23  20  18  18  20  22  25  24  23  23  21  23  24  26  27  29  32  35  41  47  47  49  52  53  68  95  95  95 114 131 140 151 153 152 154 154 154 153 154 154 154 152 152 152
 144 144 146 146 145 144 144 145 145 146 146 147 148 147 145 134  92  54  42  36  32  31  31  30  34  28  28  27  21  17  25  24  24  26  24  25  23  25  28  25  23  22  25  26  25  23  24  27  29  26  20  20  23  22  23  22  20  19  18  21  23  25  29  31  31  33  35  36  37  42  48  54  64  84  84  91 110 118 138 151 150 152 154 153 153 154 154 153 152 153 152 153
 144 143 143 144 146 146 144 145 146 146 145 146 148 145 141 118  57  39  32  33  31  32  31  33  29  26  26  22  22  27  20  27  31  30  31  27  21  24  23  17  16  16  17  18  25  29  28  28  31  33  30  25  21  20  19  18  16  15  15  18  21  26  30  31  31  31  32  33  36  40  45  55  70  78  78  98  95  90 130 146 150 153 154 154 152 153 153 154 153 153 154 153
 144 144 145 145 144 146 145 144 146 147 146 144 146 141 126  66  40  33  35  34  32  31  31  30  28  26  23  24  27  27  22  26  29  28  27  20  18  20  19  14  13  13  12  11  12  16  21  24  30  32  28  25  20  17  15  14  15  16  16  17  21  26  27  30  31  31  31  31  33  35  40  49  57  68  78  96  83  72 124 139 148 152 153 153 153 153 154 153 153 153 153 153
 144 145 145 144 144 145 146 145 146 148 146 145 144 142  89  38  33  35  35  34  30  30  32  29  26  21  28  25  28  26  22  26  25  24  20  16  17  17  15  13  13  14  14  14  13  13  15  22  25  28  29  24  21  19  16  15  16  16  17  19  23  24  26  29  31  31  31  30  30  35  35  40  49  57  68  82  70  67 111 129 146 152 152 154 153 153 154 154 153 154 153 153
 144 144 145 147 145 146 147 146 145 147 146 142 141 108  42  33  33  31  30  31  28  33  29  23  23  28  28  26  25  24  25  22  24  22  16  14  16  15  12  12  12  12  13  15  16  17  17  19  21  24  30  31  24  19  19  18  19  18  20  21  23  23  24  25  26  27  28  28  29  31  32  35  40  48  59  63  61  69  98 121 144 152 153 154 154 153 154 154 153 154 153 152
 146 146 146 146 145 146 146 146 144 146 144 138 104  58  37  28  31  30  29  31  31  32  24  22  24  30  25  24  21  20  21  21  21  21  15  15  14  15  13  13  13  13  16  17  15  15  18  23  19  22  25  28  31  28  20  19  22  22  22  23  23  25  26  25  26  25  22  25  26  30  31  32  40  49  50  55  54  69  90 116 145 152 153 153 155 154 154 154 154 152 152 152
 146 145 145 144 146 146 145 146 146 142 140 120  56  41  31  29  30  29  29  30  31  23  19  19  25  29  24  20  20  18  20  19  18  19  15  17  15  15  16  16  16  16  16  17  18  17  16  18  19  22  25  26  26  29  27  22  21  23  23  23  23  25  26  24  24  24  25  26  26  28  27  28  33  36  41  47  55  69 105 113 143 151 152 152 154 153 154 153 153 154 153 154
 145 145 146 145 145 146 146 145 141 136 114  53  45  35  30  31  30  30  30  30  26  17  16  17  28  25  19  21  20  16  18  15  19  19  19  19  19  20  22  21  21  22  23  23  24  22  21  20  19  20  24  26  28  29  28  28  23  23  23  24  22  23  23  25  25  25  26  28  26  26  27  29  33  37  39  42  52  81  96  97 137 146 152 155 154 154 154 153 153 154 153 154
 145 146 146 146 145 146 145 144 135  92  53  45  37  31  31  30  30  31  30  28  20  16  16  20  26  20  17  19  17  15  18  18  23  25  26  26  27  30  30  30  30  30  32  30  30  29  26  25  24  24  25  28  30  30  30  30  27  25  24  23  23  23  23  24  26  26  27  28  30  29  27  30  33  36  36  40  57  85  81  88 128 144 152 154 154 153 153 153 153 154 153 154
 144 146 146 145 145 145 144 134 103  54  48  38  34  30  29  30  28  31  29  22  17  17  18  22  23  20  18  18  16  15  21  25  30  32  35  37  40  39  40  41  40  40  39  38  36  33  32  32  30  29  29  30  34  35  33  33  29  26  24  26  25  24  23  24  26  27  29  31  28  29  27  28  32  33  36  44  61  62  70  78 125 144 153 155 155 154 153 155 155 154 154 154
 146 145 146 147 148 144 142 128  76  49  44  35  30  29  28  28  28  30  24  18  15  17  20  24  22  17  15  15  17  20  25  32  39  43  46  48  50  48  49  49  50  50  50  47  45  42  39  38  37  35  33  36  36  37  37  38  32  27  25  29  29  25  24  22  24  25  27  30  30  29  27  28  33  36  35  38  49  53  62  90 131 147 153 154 155 154 155 154 155 154 153 154
 146 146 146 146 146 146 143 128  82  45  38  31  28  26  28  24  24  25  17  15  16  18  23  27  21  16  16  17  20  26  34  42  50  54  56  57  60  58  56  57  59  59  57  56  53  49  48  45  41  40  39  39  39  42  42  43  37  31  26  30  38  31  27  24  23  24  24  27  31  29  27  29  34  36  34  37  41  56  82 120 137 149 153 154 153 154 155 154 154 155 154 153
 147 147 148 145 145 147 142 135  83  40  34  29  25  25  25  20  20  20  16  15  17  20  25  30  20  16  16  23  28  35  46  52  60  62  63  67  66  66  63  62  62  64  62  59  59  57  54  52  48  45  43  44  44  45  48  49  49  41  29  28  43  46  38  28  24  25  24  26  29  32  30  32  35  38  40  43  61  88 111 130 142 150 154 154 154 155 156 156 155 155 154 154
 147 147 147 146 147 148 144 127  56  35  32  29  24  25  17  16  22  18  17  15  18  19  27  28  19  16  20  27  34  47  56  64  67  68  68  70  71  71  70  70  70  68  66  64  63  61  62  58  54  51  50  49  47  49  52  53  55  52  34  29  41  63  54  43  31  26  27  27  29  33  33  36  40  45  57  79 101 123 140 148 150 153 155 156 155 155 156 154 155 155 155 154
 146 148 148 147 148 146 140  88  42  30  31  28  23  20  18  19  20  16  16  16  16  18  24  25  18  19  25  32  43  55  63  68  70  71  72  74  74  75  75  74  73  73  71  70  69  65  65  64  62  57  55  53  52  53  53  56  58  62  46  32  43  68  71  60  48  34  27  27  27  30  32  38  49  80 103 121 132 134 139 143 151 154 153 155 156 155 155 156 154 154 155 155
 148 149 149 148 145 140 113  48  37  28  29  27  22  16  21  22  21  20  17  17  16  18  23  22  19  23  30  42  53  63  69  72  73  74  75  76  77  78  81  82  80  80  78  76  74  71  70  69  67  64  61  60  59  56  56  57  62  68  59  41  57  68  79  77  68  50  29  25  27  29  31  37  53  87 126 141 147 145 150 152 152 155 153 155 155 155 155 155 155 155 155 154
 147 149 149 148 146 134  68  41  32  28  26  25  20  21  23  20  21  20  17  15  15  18  23  21  22  28  40  51  61  68  74  78  77  78  78  78  76  80  83  85  86  86  86  84  81  80  75  73  72  70  67  66  64  64  64  64  66  73  73  62  73  79  87  89  82  75  45  26  26  30  32  35  46  76 107 132 138 142 151 152 153 154 156 156 156 156 154 156 156 156 156 154
 148 148 149 147 141  77  43  34  34  29  27  26  21  24  22  20  19  19  16  15  16  20  23  22  25  36  47  59  67  74  77  79  79  80  80  82  84  84  86  89  91  91  92  91  88  87  84  81  79  73  72  71  70  71  72  70  70  78  85  88  92  94  95  97  94  92  72  32  28  29  33  39  59  97 113 122 125 144 152 153 153 153 155 156 156 156 156 157 156 156 155 155
 149 148 148 145 126  47  38  34  33  30  31  30  25  24  23  22  19  16  15  15  16  20  22  23  29  43  55  63  72  79  81  80  81  82  82  83  87  89  90  91  93  95  96  96  94  91  90  88  84  81  78  74  73  75  77  80  81  86  94 103 108 108 105 104 102 100  97  47  36  32  34  42  50  92 121 128 140 147 152 153 154 156 156 158 157 156 156 157 155 155 155 154
 149 148 146 142 109  44  39  35  34  31  34  30  27  25  25  22  18  16  15  15  16  21  23  26  35  51  61  70  78  82  84  83  83  84  84  87  88  90  92  95  96  97  96  96  96  95  94  92  90  86  84  80  79  78  80  82  87  91  98 108 114 116 116 113 111 108 108  88  37  42  33  42  58  87 125 143 147 152 153 154 155 156 157 157 156 156 156 158 157 156 155 155
 149 148 146 141  81  44  39  36  33  30  35  29  25  24  22  20  16  15  15  15  16  21  25  30  44  57  68  78  81  84  85  85  85  87  88  89  90  92  92  95  94  95  98  98  98  98  99  96  94  92  90  87  86  85  85  89  93  94  98 106 113 116 118 117 114 114 114 111  57  43  30  40  62  89 118 145 152 154 156 156 157 157 158 156 156 156 156 158 155 156 156 156
 148 148 142 109  60  41  37  33  30  32  34  26  24  24  21  18  15  15  15  15  19  23  26  36  52  63  73  80  82  84  85  86  87  90  91  92  94  94  95  97  97  99  99 101 100  99 102 100 100  98  94  94  94  93  95  95 100 100 103 110 115 117 119 120 120 117 118 117  88  46  29  33  70 106 126 144 154 156 157 158 157 156 157 158 158 158 158 158 157 155 158 158
 149 148 144  84  48  38  35  31  31  31  30  23  27  23  19  17  15  16  16  17  20  26  31  45  60  69  77  82  83  86  87  89  91  92  94  94  96  96  99  99 100 102 101 102 103 105 103 104 104 100  97  98  98 101  99  99 101 105 107 113 118 121 122 122 122 121 120 119 110  61  32  33  69 122 144 153 158 157 157 158 158 158 159 157 158 157 158 158 157 157 158 158
 150 147 128  58  41  35  34  30  29  29  28  23  27  22  19  16  16  17  17  19  21  30  39  54  66  73  80  85  86  88  89  91  93  93  94  96  97  99  99 100 102 102 104 103 103 103 104 103 103 101  96 101 101 100 100 101 102 105 109 114 119 122 126 126 125 124 123 121 119  82  39  38  64 130 151 156 159 158 158 158 158 158 158 157 158 159 158 158 157 158 159 158
 150 146 123  52  40  33  34  30  24  26  25  23  24  20  19  17  17  19  20  22  26  35  48  62  73  80  84  86  89  89  89  91  94  93  94  96  98  97  98  99 101 102 101 102 102 101 102 103 101 100 100 102 102 100 100 101 101 103 109 114 118 120 125 126 126 126 125 124 122 102  52  51  79 144 156 158 159 158 160 159 159 158 159 159 159 158 159 158 157 158 158 157
 149 145  96  41  35  31  30  28  25  25  25  25  21  18  19  20  20  23  24  26  33  47  61  72  81  83  88  88  89  90  90  94  95  95  96  94  97  99  97  98 100 100 101 100 100 100  99  99  96  98  99 101 101 101 100  98  99 102 107 112 116 118 122 125 126 125 126 126 125 112  64  60 106 148 159 160 160 160 160 159 159 159 158 159 159 159 158 159 158 158 157 158
 149 143  74  39  34  30  30  28  28  23  22  22  18  17  20  20  23  25  28  34  44  60  71  78  84  86  89  91  93  92  92  97  99  96  98  97  96  98  99  97  97  97  98  98  98  98  94  94  93  94  96  97 100  98  96  95  96  98  99 106 112 115 119 122 125 126 126 126 127 118  68  74 137 154 159 161 161 159 159 161 159 159 159 160 158 158 158 158 158 157 157 158
 149 139  60  37  32  27  29  29  24  22  22  20  19  18  18  19  23  24  29  38  55  69  79  83  85  86  90  91  94  95  97  98  96  95  95  92  88  89  89  77  80  82  86  88  92  90  87  88  91  93  93  94  95  92  92  93  93  95  94 100 106 108 114 116 121 122 120 119 122 120  79  86 146 157 159 159 160 160 160 160 159 159 159 159 159 158 158 157 158 157 159 157
 148 130  56  34  30  26  27  28  22  22  19  18  18  17  16  19  22  24  31  44  59  72  80  83  87  87  90  95  98  98  95  88  86  85  79  74  60  54  56  46  42  46  50  61  71  76  79  80  84  87  89  89  89  90  88  89  88  89  88  88  94  98  96  96  99 102 106 104 107 116  88 104 151 158 160 160 158 159 159 159 160 161 158 159 158 158 160 158 157 157 159 158
 147 115  43  33  30  25  24  27  22  22  19  18  19  18  17  20  23  24  33  48  59  75  82  84  85  88  92  96  96  88  74  64  61  58  57  53  42  35  29  26  26  26  27  30  38  46  56  64  70  76  80  84  83  85  85  84  81  81  74  71  69  65  66  59  55  53  64  67  73  83  81 111 154 159 160 159 158 159 160 160 159 161 160 159 161 159 159 159 158 157 158 159
 144 118  43  35  28  24  24  27  23  20  20  18  17  18  18  19  21  26  38  55  68  79  83  85  88  90  93  92  77  54  50  50  52  48  39  32  29  28  26  22  20  22  23  24  27  31  35  41  51  60  72  76  78  81  80  78  73  64  51  49  47  44  40  37  34  33  36  39  46  54  64 103 153 156 159 159 159 160 160 161 160 160 160 160 161 160 158 159 158 157 156 157
 148 132  56  35  26  22  21  23  24  20  19  16  17  17  19  19  21  28  46  65  78  82  86  87  88  90  90  64  47  45  43  42  38  32  28  25  24  24  23  20  19  21  23  20  23  24  28  30  36  43  58  69  72  76  75  71  63  50  40  37  32  31  29  29  27  28  28  30  34  46  52  71 134 155 158 158 160 161 159 160 159 161 158 161 160 160 159 158 158 156 157 158
 148 135  65  34  26  19  22  19  23  19  18  16  17  17  18  19  23  34  60  74  83  83  86  88  89  84  54  44  42  38  34  31  27  26  37  37  35  37  33  29  27  26  21  22  21  23  24  28  29  36  48  59  66  71  73  65  53  42  32  29  28  27  26  27  34  35  34  33  32  40  42  50  49  56  88 122 150 158 159 160 160 161 160 159 160 159 158 159 158 158 157 159
 148 135  72  34  25  21  23  20  23  22  18  17  17  19  17  21  26  47  72  81  85  85  85  87  84  60  42  37  33  32  41  44  43  43  38  31  30  28  29  29  30  32  30  31  31  27  26  28  29  33  43  51  65  73  71  64  50  37  30  28  26  27  36  35  31  29  30  37  41  46  46  44  67 131 114  83  70 127 156 159 158 161 160 160 158 158 159 159 157 158 158 158
 148 136  78  34  26  23  23  21  20  22  17  16  16  17  17  20  33  64  81  85  88  87  88  83  63  43  35  31  41  44  32  31  33  36  36  38  36  36  33  31  30  30  31  32  31  31  32  32  32  34  41  51  64  74  74  67  51  40  36  37  39  37  31  30  29  32  37  42  50  54  51  52  58 132 157 165 131  64 113 154 157 159 159 158 159 158 159 159 158 157 157 158
 149 140  74  35  26  24  23  21  19  19  18  16  17  17  19  25  46  77  85  88  87  87  86  69  44  35  37  42  34  36  37  40  44  44  44  42  38  36  32  29  30  32  34  38  41  46  38  31  38  38  37  39  50  55  61  46  41  34  38  39  35  33  34  33  34  36  39  44  51  57  63  66  67 128 155 168 165 130  63 117 154 158 159 159 159 160 160 158 157 158 158 158
 146 139  81  36  29  24  22  20  20  19  18  17  18  18  20  31  63  82  88  89  88  87  81  53  40  46  45  35  41  44  47  47  45  42  38  32  29  27  24  24  25  27  33  37  42  48  45  42  36  40  40  30  28  32  38  31  32  36  35  37  33  37  32  29  29  30  34  35  39  47  65  76  88 142 154 165 172 157  90  86 131 147 156 158 158 158 157 158 159 157 158 160
 149 142 104  39  29  21  21  19  17  17  17  17  19  19  22  40  74  85  88  88  87  86  70  50  52  49  39  48  50  50  50  45  36  32  28  28  26  24  23  23  23  23  29  35  40  47  46  50  50  39  46  67  72  79  80  78  77  63  45  31  32  33  28  27  26  26  27  28  28  36  55  75 112 148 155 165 171 160 105  65  78 107 157 158 158 158 157 157 157 157 158 158
 147 146 119  33  30  23  21  19  19  15  17  17  18  19  24  49  80  88  89  88  89  92 105  96  73  46  46  52  53  49  41  34  31  32  30  27  26  25  24  25  25  25  28  34  38  44  44  50  52  51  42  59  63  68  74  73  72  61  39  37  32  33  30  26  24  23  24  27  31  34  43  74 121 145 153 165 157 118  88  61 114 153 157 157 157 158 158 156 156 156 156 158
 147 145 131  43  29  23  19  19  19  17  17  17  19  20  27  57  84  90  88  90  98  50  54  40  36  43  52  55  49  39  36  33  29  33  46  33  30  29  24  25  26  29  31  35  40  44  43  46  50  55  37  41  64  87  96  93  82  59  33  32  34  35  36  36  29  23  26  37  32  36  45  74 114 141 142 107 122 162 157  65 140 154 157 157 157 157 158 155 156 156 156 156
 147 148 139  61  30  24  21  22  18  17  16  16  17  20  29  64  86  89  85  77  68  50  51  50  40  42  54  49  38  33  36  28  36  53  57  32  32  25  28  26  27  34  33  36  42  48  44  47  54  54  43  38  73  93 102 104  96  66  33  32  36  40  49  45  34  26  23  38  41  40  47  82 112  84  92 148 161 162 161  73 144 156 156 156 157 156 156 157 158 157 156 156
 148 149 144  81  34  24  22  23  18  17  17  17  18  22  32  67  85  74  48  67  82  70  62  59  48  39  52  43  33  30  28  34  52  60  59  38  32  26  22  31  34  43  35  36  45  55  52  53  56  53  42  38  62  89 108 115 113  87  42  32  38  45  53  52  43  33  29  40  65  58  62  72  58 114 149 155 157 156 152 115 152 155 156 155 156 156 157 155 156 155 154 156
 147 147 145  86  34  26  24  21  17  17  16  16  18  23  33  65  64  49  72  83  81  74  68  64  57  39  50  40  34  30  34  47  56  63  68  56  38  31  32  37  42  46  38  44  46  62  66  61  55  40  39  38  57  86 110 123 122 120  74  28  39  46  53  54  49  40  40  46  58  56  69  94 135 147 151 153 153 154 148 119 153 156 154 155 155 156 156 154 156 154 154 155
 148 148 146 119  48  29  27  22  19  18  15  16  20  24  40  48  57  79  82  82  80  77  72  67  62  42  53  47  39  39  40  47  49  59  64  61  50  39  35  38  45  43  47  55  65  65  67  62  45  36  36  37  57  84 109 130 131 124 118  41  49  52  53  51  50  47  47  51  61  76  88 120 144 149 151 151 153 152 138 126 153 155 156 155 155 154 155 155 155 154 155 155
 148 147 146 139  76  32  30  24  19  18  15  16  23  38  41  54  76  80  82  83  79  80  78  71  66  48  54  55  55  56  53  52  49  52  50  53  50  47  42  43  44  44  47  55  65  67  64  58  34  32  35  40  58  82 102 117 132 122 119  77  49  52  50  52  54  56  59  68  79  97 108 129 146 150 151 151 152 152 122 138 153 155 155 155 155 155 155 154 154 154 153 154
 146 147 147 143 117  38  32  26  20  17  15  19  32  28  26  50  69  75  79  81  80  83  83  80  76  62  57  78  76  72  66  63  58  57  56  55  52  49  49  49  49  46  46  51  57  63  66  59  43  41  37  46  63  80  91 107 120 116 116 103  45  54  47  48  52  54  62  73  88 105 120 133 146 149 149 150 151 151 115 147 153 154 155 154 155 154 154 155 154 154 155 154
 146 146 141 122 103  77  59  34  21  17  19  20  18  20  27  48  68  74  79  82  83  83  83  83  83  82  51  87  86  80  75  69  65  62  61  59  57  55  55  52  50  48  52  57  62  68  69  59  51  50  42  56  70  78  85 100 112 118 116 115  42  65  61  57  55  56  61  72  89 107 122 132 142 147 148 149 150 146 111 150 153 154 154 154 154 153 153 154 154 154 154 154
 146 142 120  95  88  83  78  65  46  39  31  23  23  24  32  58  78  84  85  88  88  86  86  88  88  88  55  79  87  82  78  72  67  62  60  56  56  52  51  51  53  55  60  66  72  72  69  59  57  48  53  64  74  79  82  95 107 119 118 116  73  49  73  72  72  74  78  87 100 113 124 131 139 146 148 148 148 126 129 150 154 153 154 152 153 153 154 153 153 153 153 153
 145 135  91  70  60  60  68  68  64  65  61  44  28  25  33  64  82  87  90  89  91  92  90  91  90  91  75  59  86  85  79  73  68  62  59  58  58  55  58  60  65  67  69  74  77  73  69  57  58  47  60  68  76  78  82  91 104 116 119 113 104  50  70  81  78  83  90  97 108 116 124 130 136 145 147 148 146 106 146 150 152 153 153 153 153 153 153 153 152 153 153 153
 143 113  61  41  39  39  49  57  64  69  70  64  48  25  32  64  84  88  90  90  91  91  94  95  96  95  91  53  82  87  83  79  75  72  70  71  70  68  71  72  73  75  79  82  78  74  69  65  54  57  63  72  79  81  83  89 100 111 118 115 111  90  43  81  89  90  94 102 111 117 125 128 134 142 146 146 114 135 149 153 152 152 152 153 153 152 152 152 150 153 151 152
 142 104  51  39  38  42  50  49  53  65  70  68  57  28  34  65  85  90  91  90  90  93  95  96  98  97  97  81  53  89  87  84  84  81  80  78  77  75  78  79  79  81  84  82  78  74  69  65  56  61  67  73  80  83  83  88 102 110 118 117 113 104  85  47  85  95  98 103 109 118 124 128 131 138 140 108 122 148 149 151 151 152 152 153 152 153 152 152 152 152 152 150
 143  98  50  40  39  49  58  56  51  57  64  64  61  35  33  62  86  89  91  89  90  93  95  96  99 100  99  94  64  54  89  91  89  87  85  85  83  80  81  84  84  84  82  81  79  76  66  52  67  65  71  77  82  86  88  92 101 106 110 113 108 110 100  92  62  70 101 104 108 115 120 124 125 108  97 129 146 148 149 150 152 150 151 151 152 150 151 151 150 151 150 152
 142  96  49  44  45  59  69  68  64  57  63  61  60  42  32  61  84  87  89  90  89  90  93  93  97  97  96  93  90  57  49  85  88  87  86  85  85  85  84  83  83  85  83  81  76  65  49  69  67  68  73  81  80  85  88  96 101 105 107 106 106 107 109 100  99  93  76  82  77  84  87  87  92 122 143 146 146 148 149 148 149 149 150 151 151 150 150 150 148 149 150 149
 142  99  55  46  49  67  80  80  75  73  65  62  66  47  32  56  82  86  88  88  88  89  91  92  94  91  91  91  90  88  65  39  63  82  85  84  85  86  85  86  85  85  81  72  64  64  72  71  68  71  72  76  75  80  87  95 102 104 105 101 102 104 110 102  98 102 105 108 113 117 121 123 126 134 145 146 147 149 149 149 149 148 150 149 151 150 150 149 150 149 149 149
 143 107  64  52  53  77  91  92  93  66  42  61  79  55  36  54  81  86  88  88  89  90  90  89  89  88  88  87  88  88  86  83  62  51  48  57  63  67  69  62  62  64  64  66  74  73  71  69  69  66  67  68  74  80  89  98 101 104 100  96  98 100 107 107  95 100 106 108 114 118 124 126 126 133 144 145 146 148 148 147 150 149 147 149 150 148 148 148 148 147 148 149
 142 112  70  54  58  87  91  84  63  39  35  62  92  62  38  55  78  85  87  88  87  90  87  83  85  86  88  87  87  86  85  86  87  87  88  85  76  73  74  74  81  82  81  78  73  71  68  67  65  65  69  75  80  84  90  98 101 103  98  96  94  93 101 109  98  95 101 107 110 115 121 126 125 131 142 146 146 147 148 148 148 149 147 147 149 147 149 149 148 149 150 148
 143 118  74  58  61  89  86  72  51  37  39  94  94  72  41  57  76  83  85  86  86  87  84  83  84  86  87  87  87  87  85  86  88  89  87  87  85  83  84  85  83  79  76  73  70  70  65  61  62  71  83  85  85  87  87  92  98  99  97  96  92  92  98 104  99  92  98 101 108 110 116 121 125 130 142 145 145 147 146 147 148 147 148 148 148 148 147 148 148 147 147 148
 142 133  81  65  66  90  82  65  49  41  49  91  92  85  43  60  74  81  83  84  85  84  83  83  85  86  86  89  88  88  87  87  88  87  87  85  83  83  83  83  79  75  70  70  69  66  62  60  66  84  89  84  83  86  84  87  92  91  88  90  90  89  92  99  98  89  93  99 103 108 113 118 122 128 142 144 144 145 145 147 146 146 146 147 148 148 148 147 146 147 147 147
 143 141  97  75  68  85  77  62  54  54  65  82  89  88  53  59  73  79  82  83  83  82  84  83  84  86  87  88  88  85  87  88  88  88  88  87  84  82  81  79  76  71  67  66  65  63  60  61  74  82  85  79  75  76  78  79  82  80  74  82  84  84  84  91  93  87  88  94  99 105 108 114 120 128 141 144 144 145 145 147 146 147 146 146 147 147 148 146 146 146 147 146
 144 144 123  82  69  81  77  64  59  62  74  79  85  87  63  56  68  76  79  81  82  83  83  84  84  84  84  87  88  87  86  88  88  88  86  85  82  81  79  73  73  70  67  65  66  67  62  64  77  78  78  72  65  63  67  68  70  73  72  74  74  75  73  79  86  87  87  90  96 100 106 111 114 125 139 142 143 144 142 143 145 145 144 145 146 146 146 145 147 147 146 145
 144 144 140  97  76  80  82  72  66  68  84  80  79  84  68  54  64  70  75  81  80  82  82  82  82  84  86  86  86  86  87  87  84  83  84  82  82  80  76  76  72  69  67  67  71  70  63  63  72  71  68  63  56  51  49  54  60  64  66  65  64  65  64  69  82  87  89  90  92  98 105 108 108 121 137 141 140 140 142 141 142 142 143 142 143 144 144 143 145 145 145 145
 145 144 142 121  84  79  86  84  75  77  92  81  66  80  72  54  61  66  72  77  80  81  80  80  82  84  83  83  84  86  84  83  82  82  82  80  82  82  80  79  76  73  70  69  70  67  59  56  60  61  56  51  44  42  41  44  48  52  54  54  54  55  55  69  87  86  87  90  93  96 101 104 111 124 138 140 140 140 139 141 140 140 140 140 142 142 144 142 144 143 143 145
 144 143 142 138  93  81  78  89  85  90 100  95  83  82  74  49  59  63  66  75  78  80  76  76  80  81  82  83  83  83  83  84  83  84  83  84  85  83  83  78  75  74  70  69  69  67  61  53  49  49  45  35  30  30  33  37  42  43  43  44  45  48  54  88  94  88  90  89  90  92  97 103 112 125 138 139 140 139 139 140 140 139 139 139 141 141 142 140 142 141 142 142
 144 143 142 142 115  88  78  71  77  90  99  97  94  86  72  49  57  62  64  71  76  79  74  74  76  77  78  80  82  80  82  84  83  84  83  83  82  80  79  74  72  70  69  71  71  72  69  61  50  43  34  30  32  35  35  33  37  39  38  40  42  54  82  97 102  96  94  93  91  91  95 101 112 123 137 138 139 139 139 138 138 139 139 139 139 140 139 140 141 140 140 141
 143 144 143 143 138  98  87  85  83  98  97  94  90  87  69  55  51  61  64  68  71  77  75  75  76  75  76  76  78  80  82  81  80  79  78  79  79  74  71  71  72  71  72  77  78  74  74  72  64  56  46  39  36  39  38  36  35  36  44  48  54  70  88  99 105 104  98  97  94  92  95 103 111 127 136 138 137 138 139 138 137 138 138 139 138 139 139 139 139 139 139 139
 145 144 143 144 142 132  99  92  99  99  95  90  89  86  66  58  47  57  62  68  69  76  76  74  76  73  74  74  77  80  78  78  76  74  75  74  73  69  68  67  71  71  75  79  80  79  78  73  68  64  55  50  44  40  41  41  38  40  48  53  58  66  84  96 104 105 103 100  96  92  97 104 109 130 135 134 136 136 135 134 134 136 138 136 136 138 139 138 139 138 139 138
 144 143 144 144 144 141 132 109  98  96  95  91  88  81  63  53  45  53  61  67  66  69  71  74  74  71  73  72  76  75  75  74  72  72  72  72  69  57  59  67  70  73  78  79  80  79  78  75  71  66  63  53  48  40  37  39  38  40  45  49  57  61  73  88  99 102 102 101  99  95  97 105 108 128 135 135 135 134 136 134 133 135 136 136 135 134 136 137 138 137 136 136
 141 142 143 142 144 142 142 133 102  89  87  85  80  71  56  45  44  50  59  63  67  67  68  72  72  70  69  69  71  70  72  72  70  70  71  69  66  64  67  70  72  75  80  80  79  78  77  76  72  65  62  53  46  43  35  37  35  36  41  49  54  54  63  81  92  98 100  98  99  98 100 103 110 129 134 134 136 135 136 135 134 133 135 136 135 134 135 136 136 135 135 136
 143 142 143 143 143 142 141 141 123  83  75  70  65  60  59  65  47  44  54  59  64  64  67  70  71  70  68  69  70  70  70  70  70  70  68  66  67  70  72  72  73  76  75  77  78  80  74  72  64  63  57  54  49  45  37  36  35  34  39  48  52  52  59  70  80  90  93  94  96  98 101 105 113 130 133 134 135 134 134 134 134 134 134 132 133 134 133 136 135 135 136 134
 141 140 143 143 143 143 142 142 141 121  91  69  72  89 125  98  54  47  55  56  61  61  67  65  68  68  69  68  68  70  69  68  67  68  68  69  71  73  73  73  72  75  72  71  72  73  69  60  58  58  54  55  49  44  42  38  36  35  38  44  48  52  64  69  71  76  83  87  94  99 101 101 121 132 134 133 135 133 134 133 133 133 133 132 133 133 134 134 133 133 134 133
 141 141 142 143 142 142 143 142 144 140 136 137 136 137 137 117  57  44  54  62  64  64  69  65  67  66  66  68  68  67  67  64  66  69  70  71  72  72  72  74  71  70  68  64  63  67  67  58  55  53  51  56  52  52  47  42  38  34  37  44  50  56  68  73  72  73  77  77  88 101 102 100 123 132 133 133 133 133 133 132 132 133 132 131 132 131 133 132 133 131 133 134
 140 141 142 142 143 142 142 142 142 141 141 141 139 140 140 132  71  49  53  60  62  61  67  65  64  63  64  67  67  68  67  62  66  69  68  69  73  73  72  71  65  61  58  59  58  61  65  61  61  58  56  61  60  60  57  51  47  40  42  49  57  64  68  75  74  69  67  70  88 102 102  98 126 131 132 133 132 131 131 131 131 131 132 131 132 132 132 131 131 131 132 133
 140 139 140 142 142 141 141 141 140 140 141 139 141 139 137 135  83  55  51  55  63  62  64  66  59  63  63  67  68  69  66  63  64  67  70  71  71  71  66  65  56  52  54  52  53  56  66  64  65  65  62  61  60  61  63  62  58  51  50  52  54  58  62  72  70  57  56  70  88 101  96 100 126 130 131 131 132 131 130 132 130 131 130 129 130 131 131 131 129 128 128 129
 139 140 139 140 139 140 140 139 140 140 139 140 140 140 139 135 101  54  44  50  56  62  61  63  58  64  65  65  65  66  65  65  68  70  71  72  71  69  61  54  48  46  50  51  50  54  62  63  62  58  55  52  48  46  47  51  54  54  50  45  44  44  48  56  54  49  55  69  86  98  94 104 126 130 129 129 130 129 129 129 129 130 129 127 128 126 128 128 127 126 126 124
 139 138 138 138 139 140 138 140 139 139 139 139 138 139 138 133 111  65  41  43  51  59  62  61  61  65  65  62  62  63  64  67  70  70  71  72  71  67  56  48  43  43  44  45  47  50  52  51  47  41  36  35  34  32  32  34  36  39  36  35  34  32  36  47  57  61  66  73  86  92  83 110 127 128 128 129 128 126 126 127 128 126 126 126 127 127 127 126 126 126 126 125
 138 138 137 138 138 140 139 140 139 138 139 138 137 136 137 134 122  75  48  40  44  53  61  60  58  62  63  62  60  59  62  64  67  70  71  71  71  62  53  48  44  38  33  32  33  37  34  30  28  25  24  23  23  23  25  26  26  26  26  25  26  31  46  60  72  74  76  76  83  86  80 119 124 126 126 125 125 125 125 126 126 125 125 125 125 125 126 125 125 125 125 124
 136 136 136 138 137 138 138 139 139 138 136 136 136 135 134 132 128  84  59  42  45  48  54  55  56  60  62  60  56  56  60  63  63  66  70  72  70  63  57  49  45  43  39  34  27  23  23  24  24  23  24  22  21  19  22  24  25  29  36  38  43  55  67  73  79  82  82  79  83  81  79 118 122 124 124 124 125 125 125 125 124 123 124 125 125 124 123 123 123 123 124 124
 135 135 136 136 136 137 137 137 136 135 134 133 133 133 131 130 126  94  69  47  43  49  48  50  53  55  56  56  58  56  58  62  60  66  70  71  70  66  57  51  52  58  58  57  53  46  42  41  42  44  48  52  50  47  41  41  43  48  51  54  61  69  68  73  83  84  82  83  84  75  90 121 125 124 125 126 125 125 125 124 124 123 123 123 124 124 123 122 123 120 123 121
 134 134 135 135 135 135 135 136 134 135 134 132 132 131 131 130 126 102  74  54  38  45  44  45  50  51  55  58  59  57  54  57  57  62  66  69  70  68  60  57  62  66  69  67  63  60  56  55  52  48  50  52  56  55  55  55  59  56  55  56  58  60  63  72  81  83  83  84  85  67 101 121 124 124 124 125 125 124 123 122 122 122 122 119 121 121 120 120 121 122 122 122
 133 132 134 132 132 133 134 133 134 132 131 130 130 130 130 129 126 107  77  62  40  36  38  41  48  47  50  51  52  57  51  55  56  57  59  68  70  67  63  64  67  69  71  72  69  68  61  58  55  53  49  47  46  48  50  50  52  52  52  50  49  54  62  72  78  78  80  84  80  66 114 118 120 122 119 121 122 119 119 119 118 118 119 118 118 117 117 118 118 118 119 120
 132 131 133 133 131 132 132 131 130 131 130 130 129 129 128 127 125 114  81  69  53  33  34  41  44  43  43  43  49  54  50  58  59  57  59  66  66  65  65  66  68  68  69  70  68  66  62  57  52  50  48  46  42  42  43  42  46  49  49  44  47  53  64  71  75  79  82  85  68  74 113 116 117 119 118 118 117 117 118 118 118 117 117 116 117 117 116 118 117 118 117 119
 131 131 132 132 130 131 130 131 130 130 128 128 128 128 125 124 124 119  82  70  62  40  31  35  39  37  42  46  45  43  48  55  55  56  59  63  64  64  65  66  65  67  68  67  66  65  63  57  53  50  46  44  42  41  39  39  41  45  44  42  48  51  60  70  75  79  85  83  57  90 113 114 116 116 115 117 118 116 117 117 116 115 116 117 116 118 117 117 118 118 118 118
 130 130 130 131 129 129 130 128 129 128 127 128 127 125 125 124 124 119  87  72  65  56  35  32  34  35  34  37  39  39  44  49  51  54  57  61  61  62  64  63  62  63  65  64  65  64  62  60  54  52  46  42  40  35  33  34  33  35  34  37  45  51  59  70  77  82  85  79  58 101 111 114 116 116 116 117 117 117 116 116 117 116 116 117 116 116 116 116 117 117 117 117
 130 130 130 130 130 130 129 128 128 127 124 126 126 125 123 124 122 118  89  73  68  59  43  29  31  34  32  32  33  37  42  44  50  52  55  61  61  61  62  62  62  63  62  63  64  62  63  62  60  55  50  43  36  31  30  30  30  30  31  37  45  55  65  74  80  85  82  67  67  99 106 110 113 115 114 115 115 116 115 116 116 114 114 115 115 113 113 113 114 114 114 114
 127 128 128 127 127 127 127 126 126 125 124 125 124 124 121 120 119 118  93  74  68  62  53  36  27  28  30  28  29  30  36  39  46  50  54  57  61  59  60  60  60  62  62  62  62  61  62  62  58  55  51  43  38  33  33  32  30  30  36  44  51  60  69  76  82  87  80  52  64  77  82  87  90  94  95 101 106 110 111 110 112 112 111 111 112 112 112 111 111 112 112 112
 126 126 127 126 125 125 124 124 123 122 123 121 120 120 119 117 118 116  99  72  67  63  58  47  30  23  25  25  26  28  32  35  37  43  48  53  56  55  55  55  56  60  62  61  62  60  58  60  57  55  52  45  44  43  43  44  45  48  62  70  73  74  75  81  86  87  74  34  26  60  74  75  78  78  78  76  80  86  88  90  98 102 105 106 109 110 108 109 109 111 111 112
 126 126 127 125 125 125 122 121 120 119 121 119 119 118 116 115 116 110  96  72  66  64  61  55  44  32  24  25  27  27  27  30  33  38  42  46  48  50  50  52  55  59  63  62  62  61  60  61  59  58  59  59  58  60  64  67  67  73  77  84  85  87  87  87  87  78  61  24  15  24  61  68  70  76  80  73  74  75  74  73  76  80  85  86  88  93  97  97  98 102 104 106
 125 124 124 123 123 123 120 119 117 118 118 118 116 115 111 104  90  69  64  70  65  62  60  58  52  42  28  21  23  28  25  28  30  31  35  35  39  45  46  49  55  58  62  63  64  64  62  61  56  59  66  70  71  70  72  74  75  80  80  85  89  90  89  89  84  72  38  14  12  16  41  64  66  72  75  73  71  71  69  68  68  69  74  73  71  72  77  78  81  84  84  84
 123 123 124 122 119 120 119 118 118 117 114 112 103  86  64  54  47  29  30  67  64  62  61  59  54  47  35  27  19  21  21  24  25  25  27  30  36  45  49  48  50  58  60  64  65  66  65  63  61  66  70  72  70  70  72  76  76  77  78  84  88  89  90  86  77  60  30  14  12  14  26  61  62  66  70  70  70  71  71  69  68  67  66  67  67  69  68  68  74  75  74  72
 118 119 119 118 119 116 116 115 113 102  91  74  60  49  45  37  18  12  16  64  65  62  61  60  55  51  45  35  28  22  20  21  18  21  24  26  31  36  41  45  49  51  53  61  64  65  67  66  69  70  70  70  70  71  70  74  74  74  76  78  83  87  86  81  71  46  26  17  14  14  16  50  65  62  66  67  68  69  67  69  69  67  66  66  66  66  67  68  68  68  67  68
 118 116 117 115 114 111 104  91  73  60  57  51  46  40  39  18   8   8  15  61  62  61  60  59  56  53  49  42  33  28  21  18  17  18  22  27  29  32  34  39  46  49  49  56  60  63  63  66  70  70  70  67  67  67  69  69  70  71  72  74  76  80  79  69  56  38  30  21  16  17  15  40  59  60  63  66  66  66  65  66  64  65  64  63  64  66  65  66  67  64  66  66
 111 103  93  82  75  68  60  53  50  50  46  42  38  38  32   9   9  12  26  61  62  61  59  58  56  54  52  48  44  34  25  18  17  16  19  21  24  25  28  34  46  45  45  49  53  59  62  66  66  67  68  65  63  63  65  66  68  70  68  71  74  74  70  57  43  38  39  27  19  18  15  34  57  57  60  64  66  63  64  64  65  62  60  60  62  62  64  66  65  63  62  62
  68  66  63  60  57  53  49  48  49  45  41  36  35  35  22  10  13  24  48  63  62  61  60  59  57  57  55  54  49  42  32  24  19  17  15  15  16  21  25  33  42  42  41  44  47  51  55  60  61  63  63  62  62  62  63  64  63  64  64  67  69  66  59  47  37  45  49  40  26  19  17  36  53  53  58  60  65  64  60  63  64  61  63  60  61  64  62  60  62  60  60  62
  66  60  55  51  47  44  46  47  47  40  37  33  34  34  15  13  22  40  61  65  64  63  60  59  58  58  57  55  54  48  41  32  25  19  18  18  19  19  23  28  36  36  40  44  42  44  46  51  51  57  59  57  54  56  57  58  57  58  58  63  62  57  49  38  45  63  51  50  34  22  19  40  52  51  54  59  62  62  60  59  59  59  60  58  62  60  57  60  63  61  61  60
  55  51  46  44  44  45  45  43  43  40  35  33  35  34  15  18  33  55  66  65  63  64  62  61  59  59  59  56  54  51  47  36  31  22  17  16  17  15  16  22  27  30  39  37  35  33  37  44  46  49  52  53  51  50  48  50  53  52  52  54  52  39  38  33  64  74  54  53  41  26  20  46  51  51  54  58  60  61  61  58  59  60  58  57  60  59  55  57  61  59  60  58
  50  45  46  44  45  45  42  41  39  39  34  34  37  34  16  26  43  64  69  66  66  63  64  62  62  60  58  56  55  54  51  42  33  27  24  19  16  14  12  17  22  27  31  31  31  30  33  36  38  41  44  46  45  45  42  43  45  46  43  42  36  29  31  52  91  81  56  54  48  30  25  49  50  53  56  59  61  61  59  59  59  61  58  57  57  57  57  58  61  60  63  59
  45  46  46  46  44  41  41  42  39  37  34  34  37  33  18  30  54  67  69  67  66  65  66  64  62  62  61  58  57  54  51  49  43  36  33  26  19  15  14  14  17  21  22  24  27  27  26  30  31  35  35  37  38  39  38  37  38  37  34  29  26  30  57  88  96  85  58  53  50  34  31  51  51  51  58  58  59  57  59  57  60  59  58  59  59  58  60  59  60  59  60  59
  45  45  44  43  43  40  41  41  37  36  33  33  37  34  24  37  58  68  71  68  65  66  66  64  64  62  59  60  57  56  54  51  48  44  39  33  26  20  14  12  14  13  16  19  25  25  23  25  27  29  29  28  30  32  31  30  30  28  24  26  30  64  89  96  98  88  59  54  51  38  41  48  47  54  57  58  58  58  57  54  57  60  58  57  58  58  60  59  60  60  60  61
  44  44  43  43  42  41  39  39  37  35  35  33  35  35  26  38  60  71  72  68  67  66  66  65  64  64  62  62  57  55  53  52  51  49  44  41  35  25  19  16  13  13  14  15  17  18  17  19  21  23  24  23  22  23  22  21  20  21  38  63  79  90  95  97  96  86  58  52  51  46  47  50  46  52  53  58  59  55  57  54  58  59  55  55  58  58  59  60  62  61  60  63
  42  41  41  41  40  38  39  40  36  37  35  33  34  35  30  37  58  69  70  67  67  66  64  65  64  64  63  62  59  55  54  53  53  48  46  45  41  34  28  25  22  18  13  12  14  13  13  14  15  18  20  20  18  18  22  28  39  63  75  82  88  91  94  98  95  82  57  51  51  45  43  48  49  50  55  60  55  54  54  54  52  55  56  56  58  59  60  59  60  60  60  59
  43  40  43  39  38  36  39  39  36  36  35  35  32  36  35  35  56  67  71  68  67  65  66  63  64  63  63  61  57  56  54  52  52  50  46  44  42  41  38  38  32  27  22  19  19  18  16  17  19  23  27  37  36  52  61  59  71  76  80  84  88  91  93  96  90  72  52  48  51  48  46  48  48  52  54  57  56  54  56  51  50  53  53  57  60  60  60  61  61  61  60  60
  40  40  39  37  37  37  38  37  36  36  36  34  33  36  37  32  49  67  70  68  67  67  67  63  63  63  62  60  59  56  54  50  50  48  48  44  42  42  41  39  36  34  32  28  29  28  30  33  41  47  50  55  59  66  67  68  73  77  80  83  87  89  90  93  85  62  46  46  47  46  47  45  49  55  58  55  57  56  53  51  51  51  55  58  58  61  60  60  59  59  60  60
