P2
# Generated by OpenCV 3.4.0
92 112
255
 139 140 140 140 140 141 141 141 141 142 142 142 142 144 143 143 144 144 145 145 146 146 146 146 146 146 148 146 146 144 146 145 142 141 139 119  88  68  62  69 103  67  41  50  89  76  70  62  51  57  59  52  49  54  50  52  63  75  79 103 108 100 109  77 117 126 128 119 117 105 117 128 131 115  74  98 110 131 141 145 147 150 150 150 147 149 148 148 148 147 149 148
 140 140 140 142 142 142 141 142 142 142 143 142 143 144 146 144 145 144 144 147 148 146 146 148 148 148 147 147 147 147 145 146 141 138 133  85  57  52  53  91  98  84  34  35  61  58  47  41  40  46  47  62  46  48  44  43  47  53  64  82  72  84  88  76  94 114 105 101 118 110  99 112 125 115  59  82  90 121 129 139 142 147 150 149 148 149 148 148 150 149 149 148
 139 140 141 142 141 142 142 142 142 142 142 142 143 144 145 145 146 146 147 147 148 148 148 146 147 148 149 148 148 148 144 144 139 128  98  54  49  49  49  64  65  56  31  28  39  42  35  29  35  36  33  53  52  34  34  36  36  36  47  48  54  61  66  66  65  72  81 111 123 118  88 100 125 110  59  64  81 112 116 124 134 145 149 150 150 150 148 149 150 149 148 149
 140 141 141 141 141 142 144 143 142 141 143 143 142 144 144 145 145 146 147 146 148 148 148 148 148 149 147 148 146 144 139 136 131 115  65  46  38  36  51  49  39  34  25  23  28  30  29  27  27  27  26  32  33  30  27  28  30  27  36  33  35  45  46  40  42  53  78 102 110 119  80  76 106  92  58  55  68 115 102 109 125 135 148 145 149 150 149 149 149 148 148 149
 141 142 142 141 143 144 142 142 142 143 144 144 144 144 146 146 147 147 146 148 148 148 149 147 146 146 144 144 143 134 135 130 115  84  46  36  30  31  34  38  43  33  22  21  29  28  26  23  23  22  22  25  26  31  29  27  26  24  27  25  26  30  31  32  34  43  56  76  89  97  85  58  76  55  48  45  66 103  85  95 122 136 146 145 146 149 150 149 149 150 149 149
 142 142 141 143 143 144 142 144 144 144 145 144 144 146 146 147 147 147 148 148 150 150 149 148 147 149 148 145 141 129 134 115  66  48  38  30  27  28  28  29  29  26  25  26  28  25  21  19  17  17  17  20  22  28  25  24  25  24  22  21  24  26  27  28  30  36  40  55  77  85  64  48  51  37  40  46  63  90  73  99 111 122 141 143 145 147 148 148 150 152 151 151
 142 142 143 144 143 144 144 145 145 146 145 145 146 146 146 146 147 148 148 149 149 150 150 150 149 147 144 141 141 114  93  55  46  41  32  24  22  22  21  24  25  25  25  26  25  21  19  18  15  15  15  18  17  21  19  23  26  25  23  22  23  25  26  26  28  32  33  36  42  58  45  36  36  31  33  40  54  59  64  94  99 118 119 132 140 142 143 145 150 151 151 152
 143 144 144 142 143 144 144 145 147 146 146 147 146 146 147 147 148 147 148 149 150 150 150 150 150 148 144 143 133  85  53  41  43  33  26  16  16  16  16  18  21  25  23  22  19  16  16  13  13  14  14  17  17  17  20  25  31  30  29  25  24  25  26  26  27  28  30  33  36  38  33  31  30  27  30  37  47  47  51  71  89 106 100 126 134 141 144 146 149 151 152 151
 145 143 142 142 146 146 146 145 148 148 148 147 147 148 148 148 147 148 149 149 150 150 150 150 148 145 144 144 115  54  38  36  33  26  20  15  15  15  16  19  20  20  17  17  14  14  13  12  12  12  14  16  17  18  19  21  23  23  23  25  24  23  24  26  27  29  30  32  32  30  30  30  29  28  31  36  42  36  43  58  70  81  91 122 129 144 141 143 146 150 150 151
 145 143 143 143 144 145 147 147 149 148 149 149 150 148 148 149 148 149 150 149 151 150 149 149 148 148 146 134  78  38  34  32  25  18  15  13  13  13  16  18  16  16  15  14  13  13  12  12  12  13  14  15  16  20  21  21  21  22  20  23  25  24  24  28  29  30  31  31  31  31  30  29  28  26  28  31  30  31  45  54  55  64  79 104 122 137 136 144 151 150 151 152
 145 144 144 145 146 146 147 147 148 148 149 150 149 148 149 149 149 149 150 151 151 151 149 149 149 147 142  99  48  37  31  26  19  15  16  15  12  13  17  16  16  15  13  12  12  12  12  12  12  12  15  16  17  18  18  19  24  25  24  24  27  28  30  30  30  31  31  31  31  31  30  28  27  27  28  27  26  29  34  38  41  47  58  87 113 120 138 147 149 146 149 151
 145 146 145 146 146 149 149 149 149 147 149 149 149 150 149 149 150 151 151 151 151 152 151 148 147 144 115  58  43  34  30  27  24  17  19  17  14  15  15  15  14  13  12  12  12  12  12  12  12  14  16  18  19  16  18  18  17  20  21  19  21  22  24  26  28  29  33  33  31  30  30  28  27  26  26  27  27  26  29  30  34  38  49  57  84 120 137 144 145 144 151 152
 147 147 147 147 146 148 149 150 149 149 148 150 149 150 151 149 150 150 151 151 151 152 152 151 147 116  63  42  31  29  30  30  22  20  20  26  18  16  15  13  12  12  12  12  13  13  13  13  13  15  16  18  19  18  18  19  19  17  17  18  18  18  19  24  22  23  24  26  27  28  26  25  25  26  25  25  26  26  25  27  31  34  40  49  70 115 122 138 137 142 149 153
 146 147 147 148 148 148 149 149 149 149 149 150 150 151 150 150 150 150 151 151 151 151 150 148 113  61  47  34  26  22  23  26  22  20  23  27  23  18  16  14  13  12  13  13  15  15  15  14  15  16  15  16  16  14  14  16  17  17  17  19  19  17  15  17  18  18  18  19  20  22  23  23  24  24  23  23  24  24  23  26  27  29  34  45  64  87 122 131 137 145 147 151
 147 146 147 147 148 149 149 149 151 149 151 150 151 150 150 151 149 151 152 153 153 152 149 126  59  49  40  37  27  22  20  22  24  24  29  26  27  22  18  17  15  16  15  15  16  15  16  16  17  17  16  19  18  19  16  16  14  15  13  15  18  19  18  16  16  16  17  18  18  18  18  19  22  24  22  22  20  21  20  23  26  27  34  42  53  75 114 134 136 139 146 151
 147 148 147 147 148 148 149 150 150 151 150 151 151 151 152 152 152 152 153 152 153 151 139  76  53  39  38  32  27  24  20  21  23  27  28  29  29  28  23  23  20  18  15  15  17  16  16  17  18  18  18  19  20  22  22  18  16  17  15  14  14  16  19  18  17  17  17  17  19  18  18  18  19  22  18  18  18  17  19  21  24  29  32  36  44  74  99 112 131 142 148 150
 149 149 149 149 148 148 149 150 151 153 152 152 152 151 151 152 151 153 153 153 152 150 100  65  48  42  36  31  29  24  20  20  22  26  30  30  32  31  28  29  27  23  20  18  18  16  17  18  20  19  22  22  22  24  24  22  18  18  17  16  16  16  18  20  19  16  16  16  19  18  17  16  17  18  17  18  18  17  17  18  24  26  27  29  39  72  87 106 125 143 150 152
 147 147 149 150 149 149 150 151 152 152 152 153 153 152 150 152 152 153 153 152 151 133  75  59  50  46  36  32  26  23  21  19  22  24  29  32  32  34  33  31  28  24  24  20  21  21  21  21  22  23  24  25  25  25  24  22  20  16  15  16  17  17  16  19  20  16  15  14  14  15  15  14  15  16  17  16  15  14  16  18  21  22  25  26  33  47  78 110 133 147 152 153
 148 148 149 151 149 150 151 151 150 152 152 153 153 153 153 153 153 153 154 154 151 108  77  72  59  52  37  31  26  22  21  21  20  26  32  35  35  37  35  31  30  25  25  24  24  25  25  25  25  27  28  28  28  28  26  23  24  21  16  15  16  17  16  16  21  18  16  16  15  14  14  14  13  14  13  13  13  14  14  15  16  19  23  26  30  38  52  86 131 147 152 153
 150 150 149 150 150 150 152 150 150 152 151 152 152 152 153 152 152 154 153 153 145  98  76  86  72  46  31  27  24  22  22  22  25  36  42  43  42  41  39  34  32  28  27  25  25  26  27  29  30  31  33  31  30  29  28  25  24  24  20  16  15  15  16  17  21  20  15  15  15  15  14  14  13  12  12  12  13  13  13  14  15  16  22  26  29  34  48  73 112 137 150 152
 149 149 149 149 149 150 150 151 151 151 152 153 152 152 153 153 153 152 153 153 143  94  85  93  81  42  29  25  23  20  19  26  42  52  55  52  51  49  46  41  33  30  26  26  27  28  28  31  35  38  40  39  37  34  33  30  29  27  23  18  16  15  15  17  20  21  20  15  15  14  13  14  14  13  12  13  13  13  14  16  20  20  24  27  30  35  49  75 108 133 149 152
 149 149 150 150 150 151 150 151 150 152 153 153 152 153 152 153 153 152 153 152 145 104 101 110  68  38  25  21  19  20  25  46  62  66  67  64  62  59  56  51  44  38  27  25  24  28  32  40  45  46  48  47  44  44  43  40  36  31  26  23  22  18  16  16  18  20  21  17  14  15  14  13  13  14  13  12  13  14  16  18  23  26  26  28  30  33  43  67 113 142 152 154
 149 150 149 151 149 151 152 152 152 152 152 153 153 154 153 153 154 153 154 153 149 114 110 102  59  32  23  19  19  23  44  68  76  79  76  75  73  70  68  61  52  47  34  26  25  29  35  45  48  50  53  53  51  49  50  49  45  41  31  28  26  24  18  17  16  19  19  17  14  16  15  14  13  13  13  14  15  18  20  23  25  25  27  29  30  32  45  87 123 147 152 154
 150 151 150 150 150 151 152 152 152 152 152 153 153 153 153 153 153 154 154 153 149 120 120  83  42  25  18  18  22  37  66  78  85  86  83  82  82  80  75  67  61  56  47  35  27  30  38  47  54  55  57  62  59  56  56  56  53  47  40  35  31  28  24  20  19  19  19  19  16  16  15  14  14  14  14  14  16  19  23  27  27  25  27  26  32  31  42  90 129 146 150 152
 150 150 150 150 150 150 151 153 152 152 153 152 154 153 153 153 153 153 154 153 151 134 122  66  35  22  19  18  25  57  79  86  89  90  88  87  84  83  79  73  69  64  57  46  35  37  42  50  57  62  63  65  65  63  62  62  60  55  48  43  37  33  29  26  22  21  23  20  18  17  16  16  14  14  14  15  16  18  20  22  25  24  26  26  30  31  38  52 117 142 148 152
 149 150 150 151 150 151 151 152 151 152 153 153 154 153 154 154 154 154 153 153 152 141 111  56  29  22  19  19  34  77  87  92  94  93  90  90  88  86  81  79  76  71  65  61  51  45  52  57  64  66  68  69  68  68  64  63  63  61  56  51  46  40  36  33  29  27  26  24  22  19  17  15  16  15  14  14  15  17  18  19  19  20  24  26  30  29  35  46  77 138 149 152
 149 150 151 152 151 151 151 152 153 152 153 153 154 153 154 154 153 154 153 154 153 141 106  44  29  22  18  23  59  86  92  96  97  95  93  93  92  90  86  83  82  78  72  68  63  58  61  67  72  72  71  70  70  70  69  66  66  64  63  58  54  49  46  43  39  34  32  30  28  24  18  16  16  17  17  16  14  14  16  15  15  21  25  27  30  27  33  40  56 123 148 152
 150 149 150 150 150 151 151 151 152 152 153 152 153 154 154 154 154 154 154 154 153 138 102  41  27  22  20  32  84  93  97  98 100  99  97  98  97  92  88  87  88  84  79  75  70  69  70  75  80  80  80  79  80  77  74  72  71  70  70  67  61  57  53  51  50  47  41  39  33  28  22  16  15  15  16  18  16  15  16  17  16  23  27  30  30  26  30  36  47  94 145 151
 149 149 150 150 149 153 152 150 152 153 153 152 153 154 154 154 153 154 154 153 154 137 102  44  28  24  23  65  92  96 100 102 102 101 101 101  99  96  93  94  94  90  85  81  78  79  80  84  86  88  87  89  89  87  84  82  79  76  73  71  70  68  63  58  58  58  54  50  42  34  25  20  16  15  16  16  18  17  16  18  19  24  28  28  31  26  26  32  45  67 140 150
 148 149 150 150 150 152 152 151 152 152 153 153 153 153 154 154 154 154 154 154 152 143 105  42  29  25  40  89  98 101 103 104 103 104 104 103 102  99 100 100 100  98  94  92  90  89  91  91  92  93  93  92  94  93  91  89  87  84  78  78  78  76  74  71  69  70  70  63  53  41  29  23  19  16  18  21  19  19  20  21  22  26  29  26  28  28  28  31  40  59 126 148
 149 149 150 147 151 152 152 152 152 153 153 153 152 152 154 155 154 154 153 154 152 144 115  46  30  28  66  96 101 103 105 106 106 106 107 107 104 102 104 105 104 102 100  96  94  97  98  98  96  97  97  97  96  95  94  92  92  90  86  84  84  81  80  77  76  78  80  76  66  51  36  25  22  16  15  21  20  22  22  25  25  30  28  25  29  29  29  36  38  55 119 145
 150 150 149 148 150 151 152 152 152 153 152 153 153 153 153 154 154 154 155 154 152 149 126  61  34  38  90 102 105 107 110 111 109 108 111 107 100 103 107 108 106 104 102 100 100 100 100 101 100 101 100  99 100  99  97  95  94  93  91  90  87  85  84  83  82  85  88  87  80  63  45  30  23  17  15  17  23  24  26  26  27  31  29  27  30  31  27  37  39  49 109 143
 151 150 150 150 151 152 151 152 152 153 154 153 152 154 153 154 155 155 155 154 153 152 147  77  40  64 100 106 109 112 112 115 111 111 112 108 102 104 109 110 106 104 103 103 102 102 103 105 104 103 101 100 101 100  98  96  95  93  91  89  87  86  87  86  86  87  91  92  87  74  54  36  25  18  16  16  24  25  28  25  26  31  32  28  30  33  27  34  39  45  81 138
 149 151 151 151 152 153 153 152 152 153 153 153 153 154 155 154 156 155 154 155 154 153 148  98  47  87 104 107 108 110 113 117 114 112 111 106 101 106 111 110 106 105 104 104 102 102 104 104 104 101 101 100  99  98  96  96  96  93  91  89  86  87  86  86  86  87  92  94  92  76  59  42  27  19  17  18  24  25  26  27  27  28  31  27  31  32  27  36  36  40  56 129
 152 152 152 150 150 151 152 151 152 153 152 152 153 154 154 155 155 156 154 155 154 153 151 104  61 103 105 106 108 109 112 117 116 112 110 104  95 108 111 105 102 103 105 104 102 103 102 102 100 101 100  98  95  94  92  93  93  91  91  88  88  86  87  87  88  88  94  96  93  81  63  46  31  23  18  19  22  25  27  28  24  26  27  27  27  31  32  33  34  37  45 116
 153 152 150 152 152 152 152 153 152 152 152 153 154 154 154 156 156 156 154 154 154 154 150  97  84 107 108 105 107 107 111 115 111 108 106  96  90 105 106 100  97 102 102 100  99 101 102 100 100 100 100  98  93  92  89  88  89  87  88  89  88  88  88  90  90  92  93  97  96  85  65  47  34  26  20  18  24  26  28  28  26  27  24  28  27  31  36  33  35  37  45  83
 150 151 152 152 152 153 152 152 153 152 153 153 153 154 153 154 155 154 156 156 154 154 148 101  96 106 101  92  94 101 103 102 100 101  99  87  86 102  98  92  87  96  96  94  95  98 100 100 100 101 103 101  99  98  93  88  88  86  88  89  88  90  91  90  92  92  94  97  96  89  70  50  38  31  24  19  23  25  26  27  31  28  26  33  29  31  37  34  36  36  43  75
 152 151 153 152 153 152 152 152 154 153 153 153 154 153 154 153 154 155 155 155 154 154 147 102  90  80  56  47  50  58  73  81  81  85  86  79  83  97  88  81  79  84  84  84  87  87  88  90  95 100 102 101  97  99  98  93  91  89  90  90  91  90  90  90  92  92  95  97  95  89  74  55  44  37  28  22  19  22  24  26  30  26  27  33  27  31  38  34  33  37  42  71
 150 152 152 152 153 152 153 152 154 154 154 153 154 154 155 154 154 155 154 154 154 153 131  70  59  48  36  32  33  35  41  48  58  68  74  70  81  89  80  69  56  63  62  61  63  61  55  57  60  65  79  82  81  82  86  87  88  90  93  94  94  94  91  92  94  94  96  98  97  90  76  59  47  39  33  26  20  20  21  23  25  24  27  32  27  33  34  37  34  36  43  74
 150 151 151 152 153 154 153 153 154 155 154 154 153 154 154 153 153 154 149 140 131 124  74  56  41  33  29  28  28  29  30  33  42  50  60  61  77  84  73  52  39  46  44  43  42  36  34  34  33  34  39  47  51  52  56  61  66  75  85  93  94  94  94  94  95  94  96  97  98  93  81  66  53  45  36  31  25  20  19  21  22  23  26  30  29  32  32  38  38  37  48 105
 150 152 153 151 153 152 154 153 154 154 152 153 154 153 152 148 112  79  61  63  71  56  54  47  45  41  36  27  25  27  27  29  33  42  50  55  77  75  64  40  33  33  33  31  31  31  34  36  38  40  42  47  51  56  59  59  58  55  58  70  84  96  95  95  96  95  97  98  98  96  85  73  54  46  40  33  31  23  19  20  20  20  25  29  27  29  32  38  39  38  52 120
 152 151 151 152 153 154 152 153 153 154 153 153 154 153 128  60  81 120 145 151 155  55  44  39  38  35  38  47  41  27  26  28  30  37  45  58  77  71  54  37  30  30  35  35  32  30  27  25  25  26  27  28  27  29  32  34  45  53  65  61  55  68  79  90  95  98  99 100 100  99  93  81  60  45  39  34  31  26  21  19  20  20  26  27  25  25  27  33  37  36  47 121
 151 152 152 154 154 153 153 153 153 153 153 152 154 124  48 101 146 152 152 152 131  43  42  41  40  40  40  44  45  60  55  48  43  40  44  63  76  65  51  45  46  43  31  30  36  36  29  24  23  24  26  30  33  38  44  45  38  37  36  43  58  43  52  68  89 100 104 104 101  99  97  90  73  50  40  33  28  29  23  20  20  21  25  25  23  22  27  29  34  35  49 106
 152 152 151 152 153 154 152 153 153 153 152 151 119  49  81 147 151 152 152 149 119  53  52  50  44  45  46  40  35  45  58  51  36  33  34  38  42  45  51  56  40  32  38  43  37  29  26  24  23  26  37  44  45  45  45  43  38  37  36  36  41  54  41  45  73  98 103 106 104 104 101  98  92  65  42  32  28  26  25  21  19  23  24  24  21  20  26  30  34  35  46 103
 152 152 153 152 153 153 153 154 153 152 148  98  59  52 134 149 151 152 152 149 118  68  57  44  36  35  32  32  31  34  37  28  31  42  56  62  57  50  43  41  32  36  37  34  32  31  31  29  28  29  34  36  38  41  42  43  42  40  38  38  39  44  52  43  52  79  98 100 101 104 103 104 102  87  52  36  27  25  25  22  19  22  22  20  19  19  25  28  34  35  48 108
 152 151 153 153 153 153 152 154 153 153 147  59  48  51 113 149 152 153 153 148 123  70  49  36  33  32  30  31  32  35  37  26  30  45  64  72  67  54  44  31  40  39  34  33  32  31  30  30  27  27  29  32  34  38  41  44  46  45  45  46  46  44  52  83  86  84  97  99 103 105 104 107 108 104  73  44  31  26  27  22  19  21  20  20  19  20  25  25  33  36  46 120
 152 152 154 154 154 153 153 153 152 154 153 148  62  72  69 111 150 151 151 150 130  80  45  34  34  33  29  36  40  39  42  33  30  41  82  95  91  64  36  38  44  39  37  33  31  31  30  29  25  23  24  26  27  28  31  37  40  44  46  52  52  48  52  97 105  86 136 109 105 106 106 110 112 111  96  58  34  26  26  27  20  19  19  21  19  22  26  28  33  37  52 125
 152 154 153 153 153 153 154 154 153 153 153 152  70 121 146 128  89 115 145 141 138  87  45  37  34  33  40  47  65  52  40  33  36  58 100 105 100  63  34  42  44  42  37  32  31  29  27  26  24  24  23  24  25  26  26  29  32  33  39  46  52  52  42  41  41  33  52 108 103 104 107 110 112 113 107  79  45  28  25  26  23  20  20  19  19  22  26  31  32  35  60 127
 153 153 153 152 152 153 153 152 153 154 153 153 101 132 149 149 149 108  79 117 123  95  49  45  42  29  37  58  72  63  40  34  41 105 116 120 101  60  38  42  43  45  38  33  32  32  30  29  27  27  25  27  32  28  27  31  28  29  35  37  46  54  36  40  50  55  60  60  72  94 105 109 113 115 111  88  50  32  25  25  24  21  19  19  19  21  25  32  31  39  70 134
 153 152 153 153 153 153 153 153 152 153 154 154 128 133 151 151 152 150 139  86  74  91  58  54  50  40  45  66  72  58  34  33 101 121 131 134 100  61  39  40  36  44  41  36  36  37  33  28  28  31  26  26  31  27  30  45  43  31  31  34  35  43  36  54  54  57  66  79  79  54  86 108 112 114 114  93  57  33  26  25  24  23  20  19  20  20  26  33  34  46 104 140
 152 152 152 154 153 154 153 153 153 153 154 153 127 130 151 153 153 152 151 148 119  66  58  52  48  49  53  59  58  56  24  94 126 125 141 131  92  58  35  41  38  39  40  43  44  39  30  28  29  36  31  27  27  31  38  52  52  40  29  28  33  32  35  51  53  56  63  77  91  93  57  77 108 113 112  96  61  34  27  26  25  23  22  19  21  22  26  33  35  52 124 147
 152 152 154 154 154 154 154 154 153 153 154 153 135 126 152 151 151 153 151 150 146 109  82  72  64  61  63  63  60  58  36 125 124 130 134 110  83  54  36  46  48  36  46  49  52  48  38  36  34  37  35  36  34  37  49  54  53  44  36  30  31  32  33  45  52  53  60  71  86 100 102  67  67 104 111  97  61  35  26  25  25  21  20  18  19  23  25  34  37  71 133 145
 152 153 153 153 153 154 153 152 152 153 153 153 145 115 151 150 151 153 152 151 148 117  94  80  70  67  65  62  60  42  69 123 122 129 114  95  79  56  38  44  37  33  48  55  54  54  53  49  46  46  44  45  44  52  51  50  48  45  43  46  45  39  36  41  49  54  61  68  77  93  99 102  77  61  86  94  58  32  26  25  24  19  20  18  19  21  26  35  43  88 137 146
 152 153 152 154 154 153 153 153 153 152 153 153 152 110 151 149 151 151 152 153 145 114  96  83  73  69  65  65  68  32 109 123 129 118 101  87  76  60  43  48  53  43  53  58  54  55  54  52  50  54  55  53  52  56  54  53  51  52  52  58  60  42  51  51  54  63  69  74  80  88  90  92  94  83  60  67  49  26  23  23  22  19  19  18  17  20  26  36  48  97 142 148
 152 152 152 152 153 153 153 153 152 153 152 153 152 118 145 149 149 150 151 151 137 111  97  86  80  79  77  85  52  70 121 123 124 108  94  86  80  67  53  46  53  50  57  60  57  56  59  58  55  55  56  58  57  59  56  56  54  56  58  67  62  51  70  69  71  76  82  84  90  93  93  89  83  76  66  50  48  29  22  21  19  18  19  20  20  21  24  34  55 116 142 148
 152 152 152 153 153 153 153 153 152 153 152 152 152 139 123 147 148 151 152 148 126 110 100  93  91  90  88  81  48 109 120 126 113  98  90  85  79  70  61  47  56  56  62  64  64  61  61  64  65  63  62  61  62  61  62  61  61  63  65  72  48  74  83  85  84  85  87  92  95 102 102 102  97  90  75  45  37  41  31  20  18  18  17  20  23  22  24  32  74 132 143 147
 152 151 152 152 153 153 152 153 153 153 152 154 153 151 103 138 148 152 152 143 121 111 104  98  96  94  96  43  95 119 122 125 108  93  88  85  81  72  65  61  47  58  66  66  67  68  67  70  72  72  72  73  71  68  68  68  71  73  75  67  52  85  92  93  93  93  91  95  99 104 108 110 109 109 103  78  48  32  26  32  24  18  17  17  24  21  24  29 102 138 145 145
 152 151 152 152 153 152 153 152 152 152 153 154 153 153 146  99 143 150 151 134 118 109 104 104 104  95  47  88 111 119 122 119 106  99  91  87  83  72  69  73  59  57  70  69  69  72  74  73  77  77  76  78  79  79  78  77  81  84  80  45  77  90  93  95  95  96  96  98 101 105 110 113 113 112 112  86  56  43  35  24  27  27  19  18  21  30  55  83 124 140 145 146
 151 150 152 152 151 153 153 152 153 152 153 154 154 153 152 147 115 114 135 124 113 106 104  99  72  58  93 108 115 116 117 113 104  99  96  89  85  75  70  75  74  63  68  72  74  76  79  81  80  80  79  82  83  86  84  85  87  87  53  67  88  91  92  96  95  98  99  99 100 105 109 113 115 115 113  89  55  46  51  35  42  48  58  55  61  81  92 101 117 132 141 144
 148 150 151 151 151 152 152 152 152 153 152 152 153 154 153 154 152 143 110  92  88  86  75  76  92 101 106 114 113 114 112 107 100  94  92  88  84  78  70  76  76  77  66  65  76  77  82  87  84  83  83  85  85  87  87  86  83  55  63  87  89  89  92  93  94  97  98  99  99 105 104 109 114 114 112  92  58  48  50  45  82  89  86  76  75  76  76  63  60  86 127 141
 149 151 151 150 151 152 152 152 152 153 152 152 154 153 153 154 153 152 139 111 104 104 104 104 104 105 112 109 109 110 109 106  99  92  86  82  76  71  70  77  76  75  75  69  60  62  75  85  87  85  83  84  84  86  77  61  54  75  90  88  86  86  87  90  92  95  98 101 103 105 102 107 107 112 108  81  58  48  50  68  87  87  83  72  66  56  40  36  38  46  86 135
 147 149 151 150 150 151 152 152 152 152 153 153 152 153 154 152 152 152 133 113 110 107 107 104 102 105 110 107 102 106 106 103  97  91  84  77  69  64  65  70  78  75  74  71  70  70  63  59  62  62  60  59  58  54  60  72  85  87  88  89  86  86  87  88  91  95  99 100 104 104 104 105 105 109 103  75  56  47  60  82  81  82  75  63  48  40  36  34  35  40  63 127
 148 149 148 150 151 151 151 151 151 152 153 153 152 153 152 152 152 150 127 111 110 108 104  99  98 105 108 104 102 103 100  99  95  88  84  81  73  67  63  65  70  73  72  70  69  72  74  82  83  84  83  82  82  83  82  83  85  86  85  86  86  85  87  92  92  94  94  97 102 105 104 104 105 106  97  70  51  46  70  75  71  74  73  49  44  47  47  38  37  40  58 120
 149 149 147 149 150 150 151 151 151 152 152 151 153 153 152 152 152 149 124 110 109 109 104 100  98  96  99  98  98  96  94  93  92  88  82  84  80  78  78  67  62  66  65  67  68  71  72  77  82  84  84  84  84  85  83  82  82  80  82  82  84  83  87  92  92  94  95  96  97 102 104 104 105 105  98  70  49  46  84  73  67  75  76  58  56  64  73  47  39  43  62 120
 149 147 148 148 148 150 152 151 151 151 151 151 152 152 152 152 152 150 118 108 105 104 100  94  94  91  92  90  88  87  87  85  82  81  79  79  79  79  87  82  66  58  58  62  66  70  73  77  79  80  80  81  83  83  83  83  83  79  79  79  82  83  83  89  92  93  94  95  98  99 101 102 104 105  95  68  51  60 100  83  69  74  94  96  89  97 111  56  41  47  72 122
 147 148 148 149 149 150 151 150 149 149 150 151 151 152 152 151 152 147 114 104 102 100  97  94  89  86  83  81  77  76  75  72  70  66  65  65  67  73  87  89  76  62  56  60  64  70  72  75  75  75  76  76  77  80  82  82  83  81  80  80  82  81  80  84  88  90  93  95  98  98  98 100 104 105  94  72  54  94 115 103  70  46  59 106 120 120 130  74  45  53  84 125
 147 146 148 147 148 147 147 148 149 148 149 150 151 151 150 152 151 145 111 103 100  97  96  91  85  77  70  69  66  64  60  56  54  50  50  50  55  64  74  82  78  66  58  62  65  69  70  71  73  74  75  73  72  75  77  78  79  79  80  80  80  79  80  81  85  89  93  94  95  98 100  99 103 102  96  75  67 114 117 122  66  38  38  64  95 111 129  80  52  59  95 129
 147 147 147 148 146 148 150 148 148 148 148 148 152 151 151 151 150 144 109 102  99  95  91  85  81  71  61  59  55  53  49  46  42  40  39  41  47  53  60  69  72  64  57  62  68  69  69  70  71  72  73  72  72  72  74  75  77  78  78  78  78  78  81  81  84  88  89  91  92  93 100 101 104 101  95  79  88 113 112 126  82  42  40  51  71  93 122  78  54  69 104 129
 146 147 146 147 146 148 148 148 149 149 148 147 149 151 151 150 150 141 108 100  95  91  86  81  75  71  63  51  47  43  41  39  35  30  28  27  34  42  50  56  60  54  51  62  69  71  70  72  72  71  71  70  71  73  73  74  76  74  77  77  77  76  78  80  82  84  88  90  92  95  98 100 100  97  86  78 102 106  98 112  87  48  46  53  63  81 112  73  59  78 111 130
 146 146 147 145 146 146 148 147 147 147 148 147 149 150 149 148 149 139 107  98  92  88  82  78  74  79  81  58  44  40  38  33  30  29  30  28  27  33  40  44  47  44  51  61  66  71  72  72  72  71  75  75  74  75  73  74  76  75  77  74  75  76  76  78  82  83  89  92  96  96  96  94  92  90  79  79 107  97  90  95  71  56  57  60  63  76 107  69  67  92 117 130
 146 146 145 144 145 147 147 148 147 147 148 148 148 147 148 151 148 133 104  95  90  81  74  76  79  89  82  62  54  50  40  32  31  31  32  30  29  30  33  37  39  48  59  64  67  70  72  71  72  73  75  75  76  79  78  77  75  75  77  77  76  79  78  79  83  84  88  93  96  96  94  89  87  84  78  87 104  90  85  76  62  65  69  64  65  79 106  67  80 103 124 130
 144 146 146 146 146 147 147 147 147 146 148 148 146 148 148 148 146 129 105  95  88  81  76  78  88  89  72  59  54  53  44  36  34  34  33  33  34  37  40  44  51  63  66  67  67  68  69  71  70  71  72  73  77  78  76  77  74  74  75  74  76  78  79  80  80  85  87  92  95  93  91  86  87  76  75  93  95  90  70  62  65  74  78  68  71  87 100  75  96 119 128 130
 144 145 144 146 147 145 146 146 147 146 146 147 146 146 147 147 146 124 103  94  87  84  80  84  90  82  66  53  49  48  43  40  34  34  36  38  42  47  54  62  69  72  72  70  71  72  70  71  72  71  73  74  76  76  75  75  72  70  67  73  75  77  79  82  80  86  88  91  91  93  92  89  82  65  73  94  85  83  66  74  97  90  76  73  82  95  94  91 112 126 129 130
 144 143 144 146 146 145 147 146 145 146 145 145 145 147 147 146 146 124 102  95  89  86  84  88  85  70  62  54  49  44  41  40  36  36  42  47  51  57  64  71  76  79  76  75  76  75  73  71  71  72  71  73  72  73  75  74  73  71  72  72  75  78  79  80  81  86  89  90  91  92  86  84  74  66  79  84  78  95  88 100 120 120 106  94  91  90  91 103 120 127 127 130
 144 144 143 143 145 146 146 146 145 145 145 145 146 146 146 147 145 123  99  95  90  88  87  86  73  63  58  51  47  44  44  41  44  48  51  54  52  57  57  70  76  80  83  81  77  76  75  72  73  73  74  74  73  74  76  74  74  74  74  74  77  80  79  78  83  86  86  88  89  90  85  78  71  69  82  69  72  94 101 111 123 108  89  76  72  83  97 111 124 125 126 127
 143 144 144 144 144 146 146 146 145 144 146 145 144 147 146 146 144 122  97  96  90  87  85  77  68  61  58  52  49  48  45  44  51  54  51  50  49  53  54  63  70  77  81  81  80  79  76  75  75  73  75  74  74  76  76  75  76  77  77  77  81  82  78  77  83  85  89  88  85  84  79  69  64  66  75  59  71  84  94 107 121 118  99  89  95  94 101 119 125 127 127 125
 142 142 143 144 143 145 145 145 145 145 144 145 145 145 145 146 143 120  99  96  89  86  75  68  67  64  63  58  52  51  47  49  56  53  49  45  52  55  53  60  65  71  78  80  82  80  78  76  75  74  75  75  75  77  76  77  78  79  79  80  79  79  77  75  80  77  84  81  80  79  70  65  60  61  50  58  75  86  95 103 115 125 119 107  96  95 116 124 125 127 127 127
 142 143 143 144 144 144 144 144 144 144 143 143 145 145 144 144 142 116  99  96  90  80  65  61  67  65  65  62  57  55  52  55  61  56  52  54  57  60  56  58  57  64  70  75  76  79  80  78  76  77  75  76  75  76  78  80  81  81  81  80  81  78  74  74  75  72  78  75  78  72  68  64  65  53  42  54  71  83  90  95 104 118 121 101 104 118 124 126 125 126 125 125
 142 141 142 142 142 143 143 145 143 144 144 143 144 143 144 144 141 113  95  96  88  72  59  58  61  57  55  54  56  59  58  60  61  57  59  54  53  56  54  52  53  58  63  69  74  80  80  79  74  76  77  76  78  78  79  81  82  81  80  79  80  78  74  75  76  73  74  72  72  66  67  65  63  52  44  47  60  70  78  82  88 101 110 114 119 124 124 124 125 126 125 124
 141 141 142 142 143 142 144 143 142 144 143 144 143 143 142 144 142 114  92  96  88  67  57  53  50  45  43  43  43  50  52  50  49  51  50  49  51  55  52  53  54  58  58  62  67  74  79  78  77  78  76  76  76  79  82  82  82  81  77  77  79  77  74  74  73  70  70  68  67  65  67  67  61  53  53  57  52  57  61  67  75 100 117 122 122 124 124 125 126 124 125 122
 141 141 141 143 142 142 143 143 144 144 143 143 143 144 142 143 140 115  92  94  85  68  56  47  56  72  66  64  56  51  43  40  37  37  38  42  46  49  51  54  54  56  52  57  62  67  72  73  74  75  74  77  79  81  82  82  81  78  74  75  78  78  73  70  70  67  68  70  68  69  67  63  60  59  69  90  92  77  75  86 106 116 119 120 123 124 124 124 124 124 123 122
 140 139 141 142 141 142 142 142 142 142 143 142 143 143 142 143 139 110  89  95  83  68  58  69  86  84  80  73  69  69  67  62  60  57  51  45  41  39  41  45  49  49  49  53  57  63  67  69  73  72  74  78  80  82  82  81  84  79  75  73  76  74  72  73  72  65  66  65  65  68  68  61  63  71  83 101 110 112 114 115 116 117 118 118 120 120 122 121 122 122 122 120
 140 140 140 142 141 140 141 141 142 142 142 141 142 142 143 141 138 106  84  92  83  68  74  86  86  81  78  71  68  68  67  65  68  68  64  61  56  50  44  35  36  41  43  49  53  60  63  66  72  71  73  78  80  82  81  80  82  80  77  70  71  73  74  75  71  63  60  60  68  67  66  63  71  80  94 109 114 114 115 116 116 118 120 118 118 118 119 118 118 119 119 119
 139 140 141 140 139 140 140 140 140 140 142 141 142 142 142 142 138 117  84  90  86  80  90  90  80  74  70  65  62  58  59  60  62  66  65  67  69  68  65  60  46  33  31  38  48  55  62  62  62  68  74  79  81  81  80  77  78  76  72  72  72  72  74  74  66  58  53  61  70  62  60  69  79  88 102 111 113 114 115 116 115 116 117 117 118 117 119 119 119 118 117 118
 138 139 139 139 139 140 139 140 139 140 141 140 141 139 140 140 138 125  85  88  90  90  94  89  77  67  57  56  54  52  53  52  56  60  62  65  67  68  69  70  68  57  39  31  39  50  58  55  57  65  74  81  80  80  78  74  73  70  70  71  73  67  69  71  61  55  51  57  59  57  56  75  87  95 105 111 111 112 113 113 115 115 116 116 116 118 118 117 119 118 117 118
 138 139 139 139 139 140 138 139 140 139 140 140 140 139 138 139 139 133  82  83  88  90  92  87  77  67  60  56  55  53  48  46  50  53  58  61  64  65  66  69  69  66  59  50  43  49  55  56  61  65  76  81  80  79  77  72  69  68  67  67  69  67  67  63  56  55  53  57  62  53  62  81  92 100 107 110 110 111 111 113 112 112 113 113 114 115 116 117 118 118 117 118
 137 138 138 138 138 139 140 139 140 139 138 140 138 139 139 138 139 136  94  82  86  86  87  83  73  63  58  55  52  46  42  44  52  55  58  58  61  63  65  67  71  71  70  64  58  56  55  57  63  69  78  79  79  77  71  68  67  67  67  60  65  67  62  58  54  54  58  57  53  52  72  86  96 104 109 110 111 110 110 111 112 112 114 113 114 114 115 116 116 118 117 117
 137 137 136 138 138 138 138 137 138 137 138 138 139 138 139 138 138 136 105  81  86  84  80  74  65  58  55  52  47  41  39  43  51  57  58  55  59  59  63  68  72  74  78  75  71  66  61  61  64  72  78  79  72  69  68  66  62  64  63  59  58  64  57  53  50  57  54  50  46  65  79  90 101 106 108 109 109 110 110 110 111 112 112 112 114 114 115 117 116 118 118 117
 136 136 138 137 137 138 137 137 137 137 135 135 138 138 138 138 136 137 122  76  85  82  75  70  62  57  55  54  50  44  44  46  49  53  55  55  58  60  64  68  71  75  80  81  78  74  68  65  68  76  78  73  65  61  63  63  57  59  60  54  51  56  53  49  47  53  52  45  53  74  83  92 102 104 105 107 107 109 109 108 108 110 109 109 111 113 111 113 113 114 115 116
 134 133 136 137 137 136 136 137 135 138 136 136 137 136 137 136 137 137 134  79  80  80  72  66  63  65  62  62  61  61  57  58  56  52  52  54  56  61  64  67  68  73  77  79  77  75  73  70  72  72  68  62  56  54  56  57  52  55  58  50  49  51  51  50  50  51  50  49  70  81  88  95 102 104 105 105 105 105 107 107 109 108 110 110 110 111 111 112 114 113 114 114
 132 134 135 136 135 136 136 137 138 136 136 136 137 138 137 135 135 136 132  87  72  81  75  68  66  71  68  68  69  67  62  61  59  53  51  52  54  56  57  60  62  63  67  70  71  72  71  69  68  66  58  55  52  50  52  53  50  51  50  44  45  44  46  49  47  45  44  61  77  87  91  97 104 104 105 105 104 107 108 108 108 110 110 111 111 113 112 112 114 115 115 115
 133 132 133 132 134 135 136 136 137 135 135 135 136 136 136 136 135 134 130  96  71  83  78  69  68  74  75  72  68  68  67  64  62  57  54  48  50  51  51  53  54  58  59  61  63  65  65  64  60  54  54  54  51  49  50  50  48  45  43  39  38  37  37  45  41  38  53  74  84  92  95  99 104 104 103 105 105 107 106 108 107 108 109 110 110 111 112 112 112 113 113 113
 132 132 132 133 132 132 133 133 135 135 135 133 133 133 134 135 134 134 132 105  67  77  79  72  73  73  73  73  69  68  69  68  64  61  56  50  45  45  49  51  51  54  55  55  55  57  58  56  54  54  55  54  50  48  48  45  41  39  36  33  34  32  36  37  36  41  66  79  89  95  98  99 102 102 105 105 106 107 105 107 106 107 106 107 108 108 108 108 110 110 110 109
 131 132 131 133 131 131 132 132 133 133 134 133 132 132 133 133 134 131 131 123  64  70  76  75  74  71  73  72  70  64  62  66  65  63  58  53  47  44  50  51  53  54  52  54  54  54  56  55  59  60  55  54  51  44  41  38  31  30  27  29  31  31  31  35  38  61  72  80  90  98 100  96  88  90  94  98  99 102 102 103 103 104 105 104 105 107 105 105 108 109 108 108
 131 131 132 132 131 130 132 132 132 132 132 133 132 132 132 134 132 130 129 121  65  65  69  71  73  72  70  71  66  62  60  64  65  62  58  52  53  52  55  55  55  55  57  58  60  60  62  63  62  61  54  49  46  39  32  30  26  26  27  29  30  28  29  32  58  71  74  80  89  98 100  87  65  63  65  68  71  78  83  88  93  93  97  98 100 104 104 107 109 109 109 108
 128 128 130 129 130 130 131 131 131 131 131 131 131 132 130 131 131 129 128 122  73  58  62  69  72  68  69  68  61  59  61  61  61  61  58  55  56  60  62  62  63  62  64  65  64  65  64  60  60  56  50  43  39  33  29  27  23  26  28  28  27  28  29  47  70  75  76  80  88  98  99  76  60  54  56  57  53  50  55  61  66  70  74  78  80  84  90  94  98  99  99 101
 129 129 129 126 129 128 129 129 129 129 129 129 130 130 129 128 127 126 124 120  73  53  53  61  68  63  65  61  55  55  57  57  58  57  60  58  59  65  68  70  68  67  66  69  69  66  61  55  53  51  45  37  33  31  24  25  24  24  29  30  28  29  49  68  72  75  79  84  88  97  96  38  50  52  52  53  56  50  48  48  51  51  54  58  62  65  66  70  72  75  75  78
 127 127 126 125 126 126 127 128 128 127 126 126 127 126 127 125 122 110  95  77  48  45  46  57  64  62  59  56  51  51  52  57  56  52  54  55  60  63  64  67  65  59  61  63  65  61  56  56  50  45  41  35  31  27  21  25  26  26  31  32  29  42  71  74  74  77  81  88  91  95  86  22  26  48  48  51  53  53  49  47  47  47  48  49  52  54  56  59  60  62  65  67
 126 125 126 124 125 125 126 126 126 125 126 126 124 120 113  99  82  69  65  39  31  41  43  51  61  58  57  55  53  48  47  50  50  49  49  52  54  58  61  58  57  55  56  55  58  56  51  46  45  39  33  31  28  22  18  25  26  26  30  31  46  71  73  74  73  77  85  92  94  96  69  20  14  38  48  49  50  53  49  48  48  49  50  48  49  48  52  54  56  56  60  62
 124 123 122 123 124 124 124 122 123 121 119 108  96  84  76  71  63  55  47  18  22  31  35  44  48  49  50  51  49  47  42  44  45  43  43  47  45  45  51  52  49  48  48  45  50  49  44  37  36  33  30  26  23  22  20  26  25  27  30  43  76  78  74  74  74  77  85  92  93  94  61  19  12  27  49  48  49  52  49  49  48  48  49  51  49  48  52  53  53  56  54  54
 123 123 124 122 123 122 119 114 108  95  77  68  68  69  63  60  53  50  31  13  18  28  32  39  38  35  38  44  44  41  34  34  35  33  36  37  36  35  37  43  42  38  37  35  40  40  36  32  30  27  26  23  19  20  26  26  26  30  45  74  80  78  75  74  77  80  86  93  96  96  60  20  14  18  46  47  48  52  51  48  48  47  49  51  50  49  48  51  52  52  53  51
 118 119 114 112 101  99  89  80  73  69  66  65  63  61  56  51  49  49  15   9  12  22  29  33  29  27  33  39  41  37  31  29  30  30  30  30  31  30  32  37  36  32  32  31  34  31  31  26  24  19  20  21  19  21  25  27  32  45  70  83  80  77  75  74  76  82  88  93  97  95  82  21  15  14  43  48  48  51  51  47  48  48  50  49  48  47  48  49  50  52  52  50
  85  76  77  77  74  75  69  68  62  61  64  64  63  56  53  50  47  43  11  12  20  31  28  28  28  28  30  35  36  33  30  28  27  26  26  30  31  30  30  34  31  30  30  26  28  27  27  24  23  17  17  19  20  25  26  31  47  70  81  83  79  75  73  74  78  84  90  94  96  92  91  44  16  14  42  48  48  50  51  50  49  49  50  49  48  48  46  47  50  49  51  50
  72  75  72  72  67  64  59  59  59  62  63  62  56  52  46  43  46  41  14  22  46  59  35  27  28  24  26  27  27  29  30  29  25  24  25  29  27  30  29  29  26  29  26  23  22  24  24  21  20  22  20  22  23  24  28  47  65  78  84  82  77  74  73  74  80  85  90  94  93  92  91  65  20  16  45  47  46  50  52  51  51  48  48  49  48  47  47  48  47  46  50  50
  69  67  62  62  62  59  57  57  60  59  56  55  53  50  45  46  46  38  22  45  66  72  71  48  28  21  23  23  23  22  22  25  24  22  24  25  25  29  25  22  22  22  21  18  20  21  23  18  21  22  20  20  18  26  42  65  76  80  81  79  74  73  73  75  80  86  92  94  91  91  93  82  29  20  45  47  46  50  51  50  48  48  48  48  47  46  46  47  45  46  49  50
  65  61  60  60  59  60  58  58  56  56  53  56  50  46  42  43  45  39  33  59  70  77  83  79  53  24  20  19  18  17  19  20  18  17  20  23  24  26  22  18  19  17  18  16  18  18  17  18  18  17  17  21  26  34  55  71  78  80  79  78  75  74  75  76  82  88  92  93  91  92  95  86  34  24  47  49  47  51  52  49  50  48  48  48  47  46  45  45  45  46  47  50
  61  58  58  58  58  57  56  57  54  53  54  53  48  44  44  42  44  44  44  62  72  79  86  85  79  65  53  25  20  18  18  19  16  17  19  23  22  20  16  15  17  17  16  14  15  15  15  14  14  16  22  29  34  45  62  71  76  78  77  76  74  72  74  77  83  89  92  93  90  94  95  80  33  31  46  46  48  52  53  50  48  46  45  47  45  46  45  45  44  47  47  52
  55  54  56  53  55  56  56  54  55  53  52  50  48  44  42  40  42  45  47  63  72  78  85  84  76  68  68  64  52  37  26  21  18  18  16  16  15  14  13  14  14  14  12  12  12  14  15  16  20  24  28  36  40  50  63  68  74  75  74  72  73  72  74  79  86  91  92  91  90  92  93  72  32  40  46  45  48  51  51  50  48  46  44  45  45  42  42  43  44  46  47  51
  54  55  54  54  53  52  52  53  51  50  49  50  47  44  42  40  41  42  48  62  67  71  82  80  75  69  68  66  64  61  59  52  46  29  22  21  17  16  15  15  15  15  16  19  19  23  23  26  29  33  36  37  41  54  60  66  70  73  72  73  73  72  75  82  86  91  91  90  89  94  92  59  34  45  47  45  48  50  53  50  48  45  43  44  42  41  42  42  46  48  49  53
  54  56  53  52  53  50  52  51  49  47  50  49  48  45  45  41  38  41  46  57  63  70  81  79  71  69  67  66  64  62  59  59  55  48  45  45  39  34  30  28  28  29  29  29  29  30  30  31  34  38  41  48  52  55  58  63  68  70  71  72  73  73  76  82  89  91  90  88  90  92  88  47  37  42  45  46  48  54  54  49  47  45  43  39  42  41  43  44  48  51  52  53
  56  55  51  52  50  48  47  48  48  46  48  48  45  44  43  42  39  41  43  50  57  66  76  78  68  67  67  65  63  62  60  61  57  52  51  48  45  40  38  35  33  31  32  31  32  32  33  34  37  40  45  50  52  53  58  63  67  68  69  70  71  74  76  83  88  90  88  90  91  89  76  39  42  44  45  46  50  51  51  47  45  43  40  38  40  42  45  48  48  50  52  52
  53  54  53  52  49  50  49  48  49  47  49  46  45  46  43  45  41  40  39  41  48  59  69  72  67  66  66  64  62  62  62  61  58  54  52  50  47  43  40  37  35  34  33  33  34  34  34  35  37  38  44  48  50  53  58  61  66  67  68  69  70  73  76  81  84  85  90  90  90  85  57  40  45  46  43  47  53  55  47  47  45  43  41  40  39  42  47  49  52  52  51  50
