P2
# Generated by OpenCV 3.4.0
92 112
255
 141 142 141 143 144 143 144 145 144 146 146 146 146 148 148 147 146 146 148 149 149 149 149 149 150 150 148 149 148 149 150 149 148 149 148 145 140 142 139 138 124 105  61  49  52  68 103  96  47  88 102 107  70  63  62  57  50  52  68  91 100 119 129 124 114 106 103 126 130 139 146 146 140 138 141 148 150 152 152 152 153 152 153 153 153 152 151 152 152 152 152 152
 142 142 142 144 145 146 145 146 147 147 148 146 148 148 147 148 149 149 149 150 149 150 148 149 150 149 150 150 150 151 149 147 145 147 146 145 141 135 124 113  96  60  40  44  96  69  64  60  38  75  87  98  68  59  48  44  43  45  50  60  74 113 110 109 117 111  98 123 124 120 134 142 139 127 122 141 150 152 152 153 152 152 154 154 152 152 152 152 151 152 152 152
 142 143 143 143 144 145 146 145 145 146 146 146 147 146 148 147 148 149 150 150 150 150 149 151 150 151 150 150 150 150 150 150 145 139 136 132 123 111  88  77  50  37  38  72  95  89  49  41  38  70  79  75  53  57  42  35  39  41  45  49  59  88  95  93 106 103  96 108 116 113 121 132 130 119 102 130 144 150 152 153 153 152 153 152 152 152 152 152 152 152 153 152
 143 144 144 144 144 145 146 144 144 147 145 145 147 148 150 148 148 149 150 149 151 150 151 151 151 152 152 151 147 150 150 151 148 142 136 128 107  85  69  52  36  36  36  44  48  60  44  33  29  45  76  56  44  44  35  36  35  35  37  38  50  69  70  87  91  89  91  95 128 112  94 105 121 117  89 113 129 143 151 152 154 154 154 152 153 153 152 153 153 153 153 152
 143 144 144 145 145 146 146 145 146 147 147 145 147 147 149 149 149 149 151 150 151 151 151 151 150 152 151 150 144 146 149 148 144 132 114 101  65  60  46  35  32  33  33  36  36  35  30  29  27  30  57  37  34  32  32  31  30  30  29  34  37  48  61  66  62  70  80  91 106  87  80  96 112 112  76  97 110 136 143 145 152 152 154 154 153 154 153 154 153 153 153 153
 143 144 145 144 145 147 146 148 148 145 147 147 149 149 149 149 150 149 151 151 151 153 151 151 150 152 151 148 144 140 144 144 117  84  69  58  48  43  33  28  29  29  32  31  29  28  24  22  24  22  28  29  31  30  30  27  25  26  26  28  30  32  46  43  48  63  77  65  77  68  68 112 113  96  74  84  98 127 128 141 146 148 152 152 153 153 153 154 153 152 153 153
 144 146 145 147 145 145 147 147 144 145 147 148 148 148 149 149 148 150 151 150 150 152 151 151 151 148 146 140 122 107  96  93  63  45  42  37  33  29  28  27  30  28  30  26  22  24  22  20  19  22  26  29  30  28  26  23  24  24  23  22  27  29  31  34  44  55  53  49  61  75  79 113  97  73  69  75 110 123 115 132 136 146 152 152 153 153 152 153 154 152 153 154
 143 144 146 147 146 147 145 145 145 147 146 147 148 150 149 151 148 150 151 151 151 151 151 152 151 148 138 115  98  80  59  50  43  36  36  31  28  27  27  26  25  28  28  22  20  20  20  24  24  26  28  27  24  23  22  18  17  18  18  20  25  28  29  33  39  43  45  52  61  62  65  90  63  54  64  72 116 110 101 126 133 144 149 152 154 153 153 152 152 153 152 153
 145 145 145 145 145 146 146 147 148 149 149 149 149 149 150 149 150 150 149 151 151 150 151 152 147 144 133 115  82  56  46  45  41  35  30  26  26  25  26  26  25  26  23  21  21  21  21  21  22  25  24  24  19  18  16  16  15  19  20  24  27  27  31  33  34  35  37  44  48  55  59  66  52  51  58  78 103  99  95 112 126 136 145 151 152 152 152 154 153 154 154 152
 146 145 145 146 144 147 148 146 148 150 149 149 149 149 150 149 149 150 150 150 150 152 153 151 150 147 135 117  84  53  42  40  32  28  28  29  24  26  29  27  24  21  26  30  27  20  20  19  21  21  20  18  15  14  15  15  14  16  19  24  29  30  30  32  31  31  35  37  42  44  47  46  46  46  55  65  79  88  86 100 119 122 140 149 153 152 153 154 154 154 153 153
 145 144 145 143 146 148 149 149 149 149 149 149 149 149 150 150 150 150 151 151 151 153 151 151 147 142 135 105  64  46  39  31  31  30  32  28  26  24  21  24  25  24  28  28  30  29  26  23  18  16  15  14  14  13  14  14  17  17  20  25  29  33  34  34  33  32  35  36  39  41  42  41  40  41  50  62  68  73  83  94  94 100 129 144 151 151 153 152 154 153 153 154
 145 146 144 144 146 148 148 149 151 149 149 149 150 151 150 152 150 148 150 150 152 152 152 151 146 140 128  80  49  40  37  36  35  30  28  19  17  15  13  13  17  20  21  26  29  30  27  23  18  17  14  14  14  14  16  16  17  18  19  23  27  30  32  33  32  30  28  30  33  36  37  38  38  42  44  50  57  69  83  93  90  90 111 138 144 152 152 153 154 153 154 154
 145 144 146 147 146 148 149 149 149 149 149 149 150 149 150 151 150 149 149 151 151 150 150 150 146 140 102  48  42  39  38  34  30  27  20  17  14  14  14  14  16  15  18  19  27  29  33  25  20  20  16  16  16  18  19  20  21  22  23  25  25  28  23  24  27  26  27  27  28  30  29  33  35  36  38  45  51  59  86  86  77  79 104 130 141 149 152 153 153 154 152 153
 145 145 146 147 146 148 149 149 149 149 149 149 150 149 149 150 150 150 150 151 150 150 150 149 140 117  57  45  38  35  32  27  27  19  15  15  13  13  14  14  15  17  19  20  24  26  29  34  33  27  19  19  20  22  20  21  22  24  25  26  25  26  24  22  22  23  24  25  24  25  27  27  29  31  34  39  48  58  67  70  63  80  99 117 140 151 152 153 152 153 153 152
 144 146 146 148 148 147 149 149 149 150 150 150 150 150 150 149 150 150 150 152 153 152 151 148 130  61  44  43  37  33  31  22  20  16  14  15  14  14  14  14  15  17  16  20  24  24  27  28  34  35  32  25  20  24  24  23  23  24  24  26  27  27  26  26  25  22  20  22  25  26  25  27  28  30  32  34  41  50  59  58  64  81  88 120 132 148 153 153 153 154 153 152
 147 147 148 148 147 149 148 149 148 150 149 149 149 149 151 150 150 152 151 151 151 150 149 141  88  42  42  36  33  30  26  19  15  15  16  15  15  15  15  16  16  18  17  18  21  25  24  27  30  31  33  31  24  24  24  24  24  22  21  24  27  28  28  29  26  25  26  22  22  25  26  25  28  29  30  30  34  41  46  49  64  68  92 120 122 140 151 151 152 153 153 153
 146 148 147 148 147 148 148 149 148 150 150 150 150 150 150 150 150 152 152 152 152 151 147 115  45  42  37  33  29  27  22  20  16  16  15  16  16  16  18  19  20  22  23  25  25  26  26  25  28  29  31  31  28  24  26  25  24  24  21  20  23  26  28  28  29  25  26  25  23  22  24  27  26  28  30  30  32  34  39  41  50  68 103  96 103 136 148 150 152 153 152 153
 146 147 147 146 147 148 148 149 149 150 151 149 149 149 149 150 150 152 152 152 152 151 135  70  41  39  33  30  27  27  21  18  16  16  16  18  21  24  27  29  29  32  33  34  32  31  30  29  29  29  28  30  30  27  27  28  29  27  25  21  21  23  25  26  27  24  24  24  20  22  21  27  26  24  25  27  28  30  32  38  55  85  72  81  95 123 139 147 152 153 152 152
 148 147 148 146 147 146 148 149 149 149 151 151 150 150 152 152 150 151 153 152 151 147 116  44  40  34  30  30  27  25  21  17  16  18  21  25  30  35  40  42  44  45  44  43  41  41  38  35  33  34  34  33  30  29  26  30  36  35  32  28  24  24  25  24  24  26  26  25  21  22  22  26  29  23  21  24  26  29  33  39  56  54  56  69  80 111 140 151 151 153 153 153
 149 148 147 148 147 147 149 149 149 149 150 151 150 150 151 150 152 152 151 151 151 145  90  46  38  30  27  26  25  23  20  18  19  24  34  39  47  52  54  54  54  56  55  53  52  50  49  45  42  41  41  40  35  34  28  28  41  46  44  40  35  32  29  26  24  24  27  28  27  25  23  26  30  27  22  22  25  28  28  32  38  42  47  63  97 131 146 152 152 153 152 154
 148 150 148 148 148 150 150 149 150 150 149 151 151 150 149 152 152 152 153 152 150 138  77  39  33  30  27  25  21  19  18  20  27  40  49  54  61  63  62  65  65  66  66  64  63  62  59  55  53  49  47  46  45  43  31  28  36  49  54  54  51  45  40  32  26  24  24  27  28  29  26  25  28  28  24  24  24  26  26  30  35  45  65  98 130 139 147 151 153 152 153 153
 148 148 149 149 149 150 150 150 150 150 151 150 151 152 150 151 152 152 152 152 149 128  49  32  30  30  25  21  17  17  20  28  44  57  64  70  73  73  74  74  74  74  74  71  69  71  68  65  63  58  54  53  51  50  40  30  37  52  61  67  65  59  54  50  38  28  24  24  25  26  28  27  29  29  26  25  25  26  27  32  48  68  97 113 124 140 147 152 153 152 153 153
 148 147 149 149 150 150 150 149 150 150 150 151 151 151 150 150 152 151 151 152 142  90  36  29  31  29  22  16  17  19  29  43  59  70  75  80  83  84  84  84  84  84  80  79  77  75  74  72  69  67  63  59  55  54  50  40  44  56  63  72  75  74  66  65  60  44  31  26  23  24  24  26  29  30  30  28  28  29  37  59  78  94 114 129 143 150 152 152 153 153 153 153
 149 149 150 149 149 149 150 151 149 152 150 152 152 152 151 152 152 152 151 149 112  44  32  28  34  26  17  16  18  26  41  59  77  81  83  89  90  92  90  90  91  89  89  86  83  83  82  79  76  73  70  66  62  60  58  54  54  63  72  77  82  84  80  76  79  71  50  34  25  23  23  22  24  32  31  30  32  37  49  68  88 112 128 132 142 149 152 153 153 154 153 153
 148 149 148 149 150 149 151 151 150 151 151 152 152 152 153 153 152 152 150 138  75  43  30  29  35  24  17  18  22  36  57  76  87  91  91  94  98  96  96  96  97  95  94  91  90  90  88  88  84  80  78  75  70  68  66  66  66  74  81  86  87  90  91  90  91  95  82  57  37  26  22  19  23  28  32  31  32  36  55  79 109 133 144 145 152 151 153 154 154 152 152 153
 149 149 149 151 150 150 152 152 152 151 152 153 152 152 152 153 153 153 150 132  74  38  28  30  33  24  19  21  29  51  71  85  93  95  96  97 100  99  99  99  99  96  98  97  97  95  94  94  90  88  87  86  84  79  76  76  79  84  90  95  97  98  99 100 103 106 104  92  68  42  27  21  22  26  26  31  30  32  50  84 117 135 142 147 151 153 153 153 153 152 152 154
 149 150 150 151 150 151 151 151 151 151 151 152 153 153 152 153 154 154 151 139  66  33  30  31  30  24  20  25  43  64  83  97 101 102 103 103 102 102 101 100 101 101 101 101 100 100  99  98  97  94  94  96  95  92  90  90  91  94 100 104 108 110 114 115 116 114 114 112 102  76  43  25  23  24  26  26  28  32  44  63  96 108 123 140 150 153 153 153 153 154 153 154
 149 150 149 152 150 151 151 152 152 153 152 152 152 153 154 154 154 152 152 140  57  34  31  30  28  23  24  35  59  78  93 101 102 103 104 104 104 103 102 102 102 103 103 103 101 102 102 101 101 100 101 101 101 102 100 100 102 103 107 110 114 116 120 124 121 122 123 121 119 106  71  33  29  24  24  26  28  33  43  89 109 119 134 145 152 154 153 153 154 153 153 153
 148 150 150 151 151 153 152 153 152 153 154 154 154 154 154 153 154 151 151 128  48  36  30  31  27  23  27  49  74  87  99 103 105 105 106 106 104 104 103 102 103 104 104 104 104 104 105 105 105 105 106 106 105 105 102 101 105 108 110 111 116 119 123 127 127 127 129 129 128 123 110  56  35  30  25  27  29  31  40  73 120 135 144 151 153 154 153 153 153 152 153 153
 149 149 152 152 151 153 153 152 152 153 153 153 154 153 153 154 153 152 149  91  45  34  27  31  28  27  37  64  86  97 105 106 108 108 108 106 105 104 104 104 105 104 105 107 109 108 104 109 108 107 108 108 108 107 106 106 107 108 110 112 116 120 124 128 131 130 131 133 133 132 124  99  53  38  25  26  33  34  45  78 114 141 146 152 153 153 154 153 154 153 153 153
 149 150 151 152 151 152 153 152 153 154 154 154 153 154 153 153 153 152 139  63  44  31  25  30  27  30  51  76  95 103 105 106 108 110 110 110 108 108 106 104 105 106 108 110 111 111 105 111 111 110 110 110 109 108 108 107 105 107 109 113 117 121 125 129 132 131 133 134 134 134 132 119  81  52  29  25  33  41  51  85 115 140 150 152 153 154 153 153 154 155 154 153
 149 150 150 152 152 153 152 153 151 154 154 153 153 153 154 153 152 149 106  50  39  29  24  29  28  36  63  86  97 104 106 108 110 111 111 111 110 108 108 105 106 105 106 108 111 112 112 113 112 111 112 112 113 111 109 107 106 106 108 111 118 124 130 132 133 133 133 133 133 135 135 129 105  66  39  24  31  45  52  95 132 149 153 152 153 154 153 153 153 155 154 153
 151 151 151 150 151 153 153 153 153 154 154 154 154 154 156 154 152 144  64  43  36  27  26  28  30  48  77  91  99 103 106 107 109 111 112 110 108 107 104 104 106 106 105 107 110 112 113 114 113 112 113 112 112 112 106 104 106 107 106 109 112 121 128 133 133 133 134 133 134 134 134 132 121  84  54  26  28  45  50  87 140 152 154 154 153 153 155 155 155 155 155 154
 152 152 152 150 151 153 153 153 154 154 154 154 154 154 154 156 152 112  52  37  32  27  26  29  35  62  86  97 101 103 104 106 106 108 110 108 105 105 105 105 105 105 104 104 108 108 109 112 111 109 109 110 110 104 101 100 102 104 107 109 112 118 121 128 131 132 132 131 130 131 134 135 127 102  65  31  32  43  47  78 135 152 154 154 156 155 154 155 155 155 155 155
 152 153 154 152 152 153 154 154 154 154 155 154 154 155 155 154 151  76  47  36  29  30  29  30  45  77  94 100 103 103 105 104 104 105 106 103  97  97  98  98  97 100  98 100 103 103 104 106 105 106 105 104  99  96  94  92  96  97  98 102 104 106 110 116 120 124 126 129 129 132 134 136 132 108  75  42  35  44  47  83 130 146 154 153 156 156 154 155 155 156 155 155
 152 153 154 153 153 154 154 154 154 154 154 154 154 156 155 151 135  61  43  36  30  30  30  35  57  85  96 102 105 108 108 104 100  90  79  67  54  54  54  63  69  75  83  85  91  95  96  96  99  99  98  94  89  87  80  78  78  76  74  77  73  72  80  88 101 106 111 118 123 129 133 133 130 115  75  47  37  44  43  67 128 144 152 155 155 156 155 155 155 155 154 155
 153 153 154 154 154 154 154 154 154 155 154 154 155 154 153 150 127  48  41  34  30  31  30  41  69  89  97 105 110 108 102  90  77  54  39  36  34  32  32  36  40  47  54  62  72  81  88  87  92  93  88  84  77  69  56  56  52  51  49  50  43  42  43  45  53  64  72  84  97 112 127 133 129 117  82  51  38  43  46  60 121 146 150 153 155 156 155 156 156 155 154 154
 154 154 154 154 153 154 154 154 153 155 154 154 156 154 154 150 102  46  39  33  30  31  33  49  77  90  98 108  99  79  70  60  45  40  33  28  27  29  29  29  29  33  39  40  50  60  76  76  85  86  82  75  63  52  41  41  39  36  34  34  42  52  49  50  48  45  46  46  47  51  68  91 115 118  92  59  39  39  43  50 122 148 154 154 155 156 156 156 156 155 154 154
 154 155 154 154 154 153 155 155 155 156 154 154 155 156 157 152  94  46  37  32  30  30  33  53  83  92  98  79  60  57  54  52  53  55  58  58  50  49  47  37  22  29  31  33  40  49  59  68  79  81  80  62  54  42  36  35  29  36  46  45  31  28  26  27  30  30  32  36  38  44  43  41  36  57  74  58  43  36  42  51 118 150 155 155 155 156 156 157 156 156 155 154
 154 154 154 154 154 155 156 155 155 155 155 156 154 156 156 150  93  46  34  31  29  29  35  58  78  64  49  52  54  55  68  73  73  70  49  37  35  32  29  38  53  50  45  33  31  41  51  62  77  80  75  62  50  40  42  55  56  38  27  27  27  27  27  27  28  31  36  36  40  44  46  56  62  59  41  44  45  35  39  50 123 152 156 156 155 156 156 156 156 155 155 154
 154 154 153 154 156 156 155 155 156 154 155 156 156 157 157 148  71  43  33  31  29  28  37  57  43  51  62  56  51  45  41  42  46  48  43  37  35  33  34  36  37  34  50  80  87  85  76  64  69  66  64  51  65  93  86  60  33  34  30  28  27  27  27  29  32  38  42  43  45  45  41  42  50  68  58  37  42  40  40  51 118 152 155 154 156 156 156 156 156 155 155 156
 154 153 154 156 156 155 155 156 155 156 156 155 156 155 155 145  73  44  33  30  30  32  54  40  60  67  54  42  35  36  41  46  55  58  56  55  50  44  42  41  41  41  40  53  65  48  42  42  43  45  41  41  40  46  54  42  39  37  36  35  34  34  36  41  46  51  54  54  51  47  42  42  45  53  60  45  38  43  51  55 109 151 155 155 156 155 156 156 157 157 155 155
 153 154 155 155 156 155 156 155 155 156 154 155 157 156 154 143  83  44  33  31  34  56  42  38  79  66  50  39  39  49  62  70  80  82  80  71  65  57  50  47  46  46  46  45  46  40  42  51  64  74  70  61  50  44  44  47  45  42  39  39  39  44  48  51  59  62  66  67  64  60  55  53  49  49  60  46  42  51  46 107 148 154 155 155 154 156 156 156 156 156 155 155
 154 155 154 154 156 157 155 155 155 156 156 154 156 155 154 142  88  45  64  86  90  63  36  49  70  46  39  42  51  66  77  79  78  73  70  64  61  57  52  48  48  46  46  49  43  43  49  74  92 103  96  83  64  50  45  53  47  41  40  40  43  47  50  51  54  56  58  64  71  74  69  64  58  54  58  46  40  38  42  42  98 151 155 155 156 155 155 156 156 155 156 156
 154 154 153 154 157 158 155 154 155 158 157 158 156 154 154 148  96  54  51  29  42  53  36  56  53  43  46  53  63  65  65  64  66  56  54  48  46  44  43  42  41  44  46  47  45  46  59  85  97 116 115  92  71  48  47  54  44  39  38  38  36  38  39  41  43  48  46  52  60  73  76  74  64  61  69  46  41  41  46  50 105 151 155 155 155 155 156 157 156 157 156 155
 154 154 155 154 155 154 154 154 154 156 157 156 157 154 155 148 111  45  42  37  37  46  36  62  54  51  54  62  64  61  58  59  61  62  58  43  41  42  38  38  37  42  44  46  46  44  55  82 112 131 134 116  77  48  52  52  39  37  34  33  36  38  46  55  59  65  67  60  56  64  74  78  70  69  79  58  42  44  45  45 113 150 154 154 155 155 156 156 156 156 155 155
 154 154 154 154 154 154 154 153 154 155 156 154 155 154 154 150 115  46  39  35  32  43  36  67  62  59  61  65  59  55  62  64  50  40  34  29  30  32  34  38  39  42  45  47  48  44  48  88 121 129 132 125  86  48  48  48  38  35  34  36  36  34  34  34  35  36  41  48  66  72  64  82  71  74  91  65  46  43  42  46 131 152 154 153 154 154 155 155 156 155 155 155
 153 153 153 154 154 154 154 154 153 154 155 153 154 154 154 149 126  44  34  36  30  37  40  74  73  67  64  63  52  58  53  37  30  28  27  26  28  27  32  32  33  44  50  53  48  40  47  97 122 132 137 133 112  51  40  44  41  39  34  31  28  26  24  25  24  24  28  28  37  59  66  77  75  77  95  72  48  46  45  48 141 152 155 155 155 154 155 155 156 155 155 154
 153 154 154 154 154 153 153 154 154 154 153 154 154 153 151 150 136  50  32  34  30  39  42  77  75  67  62  51  47  40  33  31  31  27  26  26  27  27  35  36  31  32  51  52  49  38  53 112 130 144 149 145 129  66  41  58  46  34  28  28  32  29  25  24  22  23  30  31  30  37  45  63  73  81  96  82  51  47  46  50 141 152 153 154 155 153 155 154 155 156 155 153
 152 153 153 154 153 152 153 154 154 154 154 154 155 153 154 153 145  58  31  34  31  47  48  87  76  60  52  39  36  38  42  40  37  36  35  34  33  39  42  42  43  47  57  55  38  43  70 108 131 151 157 153 131  86  41  40  48  44  41  39  39  39  38  38  40  41  46  48  50  54  51  56  75  90 104  84  49  48  44  54 142 151 153 153 153 154 154 154 156 154 154 153
 153 152 153 152 154 153 153 153 154 154 154 155 155 154 154 153 147  71  30  33  35  64  53  93  83  77  62  52  61  61  63  58  56  54  52  51  52  51  51  51  53  57  62  64  36  52  85 106 123 141 160 147 127  96  47  45  60  51  47  45  48  52  53  54  55  56  60  62  67  74  81  77  79  97 114  83  51  44  42  69 142 151 153 152 153 154 153 153 156 154 154 154
 152 152 152 153 152 152 152 153 153 153 153 154 154 153 153 153 148  67  33  30  34  75  51  90  84  75  64  61  67  68  68  67  66  64  64  62  57  53  51  51  55  61  68  56  44  69  89 104 119 137 163 148 124  98  66  43  60  54  49  46  44  46  49  53  54  56  61  63  69  78  89  94 104 113 121  94  52  34  40  80 142 150 152 152 152 153 152 152 154 154 153 154
 151 152 153 153 152 152 153 152 152 152 153 154 153 153 153 152 147  54  32  30  33  70  66  79  90  89  85  78  72  66  64  65  63  60  59  53  48  46  53  60  64  68  74  45  58  85  91 102 116 126 152 136 117  99  84  55  43  68  61  58  54  48  44  45  48  50  53  58  69  77  89  96 110 122 127  90  80  41  38  81 144 151 152 150 152 152 153 153 154 153 152 154
 151 153 152 152 152 153 153 153 153 153 153 154 153 153 153 151 127  35  30  28  30  70  96  52 100  99  94  89  81  75  69  60  59  57  56  58  63  71  74  73  74  76  55  52  72  95  96 102 114 124 144 139 118 102  95  67  48  53  73  75  72  68  64  62  61  64  66  72  80  88  95 108 113 119 109  86 110  46  36  90 143 149 151 151 152 152 153 153 152 152 152 152
 150 150 151 151 152 153 152 153 152 152 152 152 152 152 152 148  84  45  28  31  44  89 104  71  76 103 101  94  90  87  86  84  82  78  79  79  81  82  81  80  82  69  52  66  87  97  98 102 111 119 133 131 117 108 100  96  69  46  51  79  83  83  82  81  81  84  87  93  98 104 109 116 119 116  77 118 122  66  40 109 141 148 150 151 152 150 152 151 151 152 150 152
 150 150 151 152 152 152 152 152 151 150 152 152 153 152 152 143 103  50  29  31  51 100 105 102  60  92 107 105 101  98  94  94  91  90  87  87  87  87  87  84  68  44  73  76  98 100 100 104 110 114 122 119 118 112 104 103  94  70  49  43  78  88  90  92  90  93  96 100 102 106 111 118 109  86 113 125 125  93  78 113 130 144 148 150 151 150 151 152 151 152 152 152
 152 151 152 152 151 152 153 152 151 151 151 152 151 152 149 128  94  59  42  44  60 106 105 106 103  71  86 104 106 105 103 101 101  99  99  97  96  94  88  59  51  77  71  88  96  98 101 106 111 111 115 113 111 113 109 104 101  76  73  71  42  50  78  95 100 100 104 106 108 103  90  75  89 117 125 126 128 101 101 107  84 127 147 149 148 149 150 151 152 150 150 150
 150 151 151 152 152 152 151 151 150 152 151 152 152 152 144  93  77  73  63  52  63 104 105 107 108 107  87  68  81 100 106 108 107 107 106  95  85  63  53  73  86  75  76  83  87  96 103 108 108 108 109 110 106 109 112 105  93  81  70  80  88  83  64  54  54  56  62  59  64  78  98 122 126 125 125 128 128 104  97  65  63 120 146 148 150 150 150 150 150 149 148 149
 148 150 151 151 151 152 152 152 151 152 152 152 151 150 136  62  50  56  72  59  69 102 104 104 108 112 115 116 102  78  71  68  70  64  63  64  70  84  90  85  79  73  72  74  83  97 106 106 103 103 105  99 100 103 110 108  91  74  63  69  79  87  92  97 101 103 106 108 113 119 123 128 131 131 126 126 128 104  70  49  60 123 145 147 150 149 150 149 149 148 148 149
 149 148 149 151 150 151 151 148 150 151 150 151 151 150 138  62  47  47  61  62  70 102 103 104 110 116 116 118 113 107 105 102  99  96  92  88  83  79  78  75  72  69  70  86  98 100 103 101 100  96  95  92  93  95 105 108 100  74  57  59  63  72  80  87  90  95 100 104 106 112 119 126 133 135 132 128 130 105  73  47  62 128 145 146 148 148 149 149 148 148 149 148
 148 147 147 149 149 150 149 149 149 150 151 152 151 150 140  67  47  49  66  66  68 101 102 107 113 113 113 111 104 101  96  89  85  80  74  72  69  67  67  65  66  65  89 108 101  96  98  96  94  92  89  87  88  90  98 106 106 106  74  57  55  58  65  70  78  83  89  94  97 105 112 119 128 133 135 131 128 112  90  51  66 132 144 146 146 148 147 148 149 149 148 148
 146 147 147 149 147 150 148 150 150 149 150 150 150 150 140  73  49  59  82  75  69 100 103 110 110 108 105  99  94  90  88  88  82  78  73  67  64  62  61  62  63  78 101  99  94  88  88  85  79  83  83  82  80  84  91  95  99 102 104  70  54  53  58  62  69  76  82  87  96 102 108 113 122 128 134 132 128 124 111  55  72 133 142 145 147 145 147 146 146 147 146 147
 146 147 147 149 150 150 150 149 151 151 151 150 151 150 142  73  54  70  94  85  71 100 104 106 106 103  98  93  91  88  88  88  84  80  76  70  65  63  61  63  66  90  94  87  79  80  78  78  75  78  78  75  73  75  78  82  84  88  95  84  54  52  52  56  58  66  71  78  88  94 101 109 113 121 126 129 128 126 126  71  79 131 141 142 144 144 146 146 146 146 146 145
 147 147 147 148 150 150 149 148 149 149 150 151 150 149 143  86  58  85  96  72  77  98 103 103  98  96  94  91  89  89  87  84  82  76  72  67  62  58  62  63  62  78  80  74  66  65  68  70  71  69  69  67  64  63  65  68  68  71  80  76  56  54  52  50  51  57  62  67  75  83  90  99 104 109 110 116 126 121 118  99  85 130 139 140 140 141 144 146 145 145 145 144
 146 146 147 148 149 150 148 147 147 149 150 150 150 149 142  91  63  98  85  79  91  96 100  97  92  89  89  87  87  87  84  78  75  70  64  59  56  60  66  65  64  65  63  60  55  53  57  61  63  60  58  58  56  54  55  54  54  55  60  65  62  57  54  50  49  52  56  59  64  73  78  86  92  97 102 111 119 121 105 115  93 131 139 139 139 140 142 143 142 145 144 143
 146 146 146 146 147 148 148 148 149 148 149 150 149 148 144  98  73  99  82  86  93  96  97  90  88  86  84  82  82  83  79  72  67  63  57  53  58  68  68  68  66  56  48  41  34  38  45  51  51  50  48  48  45  46  50  42  36  44  51  64  70  63  55  54  50  48  50  53  57  64  68  75  82  88  95 105 116 121  94 118 104 131 136 137 138 139 139 140 141 141 140 141
 146 147 147 146 146 146 148 150 149 149 147 150 148 147 145 108  84  97  80  83  92  95  92  88  83  82  80  79  79  77  72  66  60  54  51  54  63  70  70  68  66  56  47  37  34  36  38  43  44  42  41  41  39  43  42  38  42  50  56  69  75  69  60  55  51  48  47  50  51  55  60  66  71  78  88 100 110 114  95 118 121 134 134 134 138 138 139 139 139 139 139 139
 146 147 147 146 147 146 148 147 148 149 148 148 150 150 147 124  92  96  83  80  92  93  87  81  78  77  74  74  73  69  61  52  54  49  49  57  67  68  70  69  64  59  52  47  41  39  40  38  40  40  37  38  40  39  39  43  49  54  60  73  78  76  68  59  52  46  43  47  49  51  53  59  65  72  82  96 105 109 103 120 127 134 135 136 136 136 138 137 138 138 139 138
 147 146 146 147 147 147 147 146 148 147 147 147 150 149 148 135  97  99  86  84  84  90  81  79  77  74  72  70  67  63  56  51  48  45  52  61  67  69  70  70  67  59  56  50  47  43  42  41  40  37  35  37  39  38  39  45  46  52  58  72  80  83  77  68  55  48  42  41  46  50  52  53  59  68  78  93 100 103 110 129 132 134 135 133 134 135 135 136 137 138 136 136
 146 146 147 147 146 148 148 148 147 147 147 148 149 150 147 142 105 105 102 104  81  86  81  77  75  71  68  66  64  58  53  47  42  45  57  64  68  71  71  71  67  59  56  52  46  42  41  40  40  37  34  35  35  36  38  43  48  49  55  65  78  84  83  75  68  58  50  42  42  49  54  53  55  64  76  90  97 100 114 122 131 133 133 133 134 136 135 134 135 137 136 137
 146 146 146 147 146 147 147 147 148 147 148 147 149 149 147 145 109 100 110 104  82  83  80  76  72  66  64  63  62  56  51  44  45  52  63  64  68  71  72  67  62  60  56  54  46  42  35  35  36  34  32  32  31  35  38  41  46  49  56  64  74  76  84  80  76  70  60  52  43  49  56  56  56  62  76  87  97 101 116 120 132 133 132 133 133 133 134 133 136 136 135 134
 147 147 146 146 146 147 148 147 147 148 148 147 147 147 147 145 121 106 108 103  82  80  79  78  73  63  63  63  60  56  50  49  55  61  63  63  63  67  70  63  60  58  55  54  49  42  38  37  34  33  32  32  32  34  38  38  43  53  66  71  71  74  79  78  75  71  66  60  52  46  59  64  61  65  78  88  96  96 110 136 133 132 131 132 133 132 133 134 136 136 134 133
 146 146 146 146 145 146 147 147 147 146 148 147 147 148 147 146 135 115 109 102  78  79  79  80  76  66  64  62  61  58  52  53  58  54  55  58  59  65  72  67  65  60  57  60  53  50  43  38  36  36  35  33  36  36  41  42  50  61  69  77  72  76  81  73  73  70  64  60  58  52  64  69  71  71  83  88  96  99 108 133 133 133 131 132 133 133 133 134 134 134 134 134
 146 146 146 146 146 147 147 147 147 146 147 146 146 147 147 147 139 112 103  92  70  78  78  82  77  73  68  65  64  60  55  54  51  48  51  54  54  63  73  69  70  67  67  65  63  60  52  46  43  41  41  38  40  44  49  51  59  61  68  78  74  78  81  74  68  67  58  54  53  57  71  74  76  77  87  90  94 100 104 122 130 132 132 132 132 132 134 135 135 134 134 134
 146 145 146 146 146 147 147 147 147 147 147 146 147 147 148 146 140 100  88  76  64  73  79  82  78  75  76  72  70  64  56  50  44  42  49  53  54  60  67  68  69  66  66  65  62  61  59  56  51  48  45  44  45  49  50  52  54  54  62  70  73  76  75  72  67  58  55  52  54  62  77  80  82  81  85  90  96  99  92 112 127 131 132 133 133 133 134 132 134 134 134 135
 145 145 144 145 146 146 147 147 146 146 146 146 146 147 147 147 145 123  88  77  71  74  82  80  78  80  79  77  77  69  58  48  44  44  47  48  50  54  56  58  54  53  51  50  50  50  48  49  47  46  46  45  42  43  42  43  43  43  45  47  52  56  58  58  56  53  53  52  58  68  79  86  86  82  84  91  96  97 100 122 128 130 133 131 132 129 131 132 132 133 133 134
 145 144 144 146 147 146 146 146 147 146 146 147 146 146 147 147 147 145 143 141 108  77  83  80  77  80  79  78  79  73  62  53  49  48  45  40  36  35  33  33  33  35  35  36  36  38  39  40  38  36  36  34  34  34  34  33  34  33  32  30  28  28  27  30  38  49  53  54  64  73  81  88  87  81  85  88  92  95 121 126 128 129 130 130 130 131 130 131 131 131 132 132
 144 145 145 146 145 147 147 147 146 146 147 147 147 147 147 147 148 147 146 145 115  72  77  80  73  78  80  78  83  77  67  56  54  58  47  24  16  13  16  21  27  31  32  33  34  33  34  37  36  33  31  32  33  33  31  34  36  34  38  30  23  16  14  16  22  46  56  59  63  74  82  86  87  83  86  86  94  96 123 128 128 130 128 129 129 130 130 131 130 132 132 132
 144 144 145 146 146 145 146 147 145 146 146 147 146 146 148 146 147 147 146 145 128  69  75  76  75  76  77  78  80  80  71  62  61  66  56  24  14  12  14  21  34  42  48  45  55  45  48  64  56  42  38  45  56  50  40  54  55  47  57  44  26  16  12  13  27  54  64  63  67  74  80  84  87  84  85  83  91 100 123 126 129 130 127 128 129 130 131 130 131 132 131 131
 143 144 144 145 144 146 145 145 145 146 146 146 146 147 146 146 147 147 147 146 140  70  72  74  76  74  74  76  80  82  76  65  68  71  68  48  18  12  13  24  46  53  62  59  76  59  66  81  78  59  51  67  74  71  54  75  70  59  64  53  30  14  12  20  51  66  67  64  64  72  77  77  83  80  84  78  82 110 122 125 126 127 128 129 130 131 130 130 131 130 130 130
 143 145 144 145 144 145 145 146 145 145 145 146 147 146 145 147 146 145 146 145 143  93  69  72  76  70  73  76  74  82  77  71  70  69  71  70  44  17  15  23  44  51  65  71  88  80  79  93  93  79  67  83  88  87  72  89  83  66  66  53  23  14  21  50  71  72  71  65  65  71  74  74  77  75  81  74  80 118 124 124 125 126 129 128 127 127 128 126 128 128 129 127
 144 144 145 145 144 146 145 145 146 145 145 146 145 144 145 145 146 146 145 144 143 116  62  67  70  68  75  76  76  80  77  72  71  73  76  78  72  44  24  28  34  43  61  64  83  84  85  97  98  90  80  90  93  91  77  92  72  62  52  33  19  28  52  71  79  78  74  66  66  72  74  75  76  75  74  71  85 119 123 125 126 126 127 126 126 128 128 127 128 128 127 127
 142 143 143 143 144 144 145 144 144 145 145 144 144 144 143 145 144 145 145 145 142 131  62  57  66  68  73  75  76  79  78  74  71  74  80  79  76  66  48  33  37  48  54  61  68  62  79  84  88  84  75  82  80  76  62  65  60  56  44  28  45  56  69  81  84  81  75  70  69  72  73  75  75  72  68  67 107 121 124 126 126 126 126 126 124 125 126 125 128 127 128 128
 142 143 142 142 144 144 144 143 143 143 144 145 144 144 143 144 143 145 144 144 143 138  88  59  62  62  70  74  77  78  76  74  72  74  80  81  77  71  66  56  48  50  51  62  68  65  70  61  66  64  52  54  50  65  60  60  57  51  51  55  60  73  83  85  85  80  74  71  70  75  77  73  72  70  62  70 115 119 121 124 124 124 124 125 124 125 123 122 123 124 125 126
 142 142 141 143 142 142 141 142 143 143 142 144 142 142 143 144 144 143 143 143 142 139 124  52  57  56  63  69  74  80  78  77  72  72  80  81  79  76  72  68  64  57  56  60  61  59  59  58  60  60  52  54  54  60  56  55  60  64  67  70  79  93  91  88  84  78  74  71  71  78  78  73  69  58  51  82 116 118 120 122 123 122 123 123 123 124 123 119 119 119 122 122
 140 141 141 141 140 141 143 143 143 142 142 142 143 141 142 143 142 141 140 139 139 137 128  63  51  53  59  67  73  79  79  75  74  72  78  81  80  81  78  74  75  70  66  67  71  65  62  58  60  58  58  62  59  62  66  67  68  70  78  92  98  96  92  88  83  76  72  72  74  77  77  68  54  49  46 108 117 119 120 121 121 120 121 120 122 124 121 122 120 120 122 122
 140 140 139 140 140 140 140 141 141 140 140 139 142 141 142 142 140 140 139 139 139 137 133 106  49  49  58  67  74  77  79  77  76  76  78  79  80  79  79  76  76  74  73  70  73  76  80  74  71  69  65  69  70  73  74  69  70  78  90  93  93  93  92  89  83  75  73  71  76  78  74  58  44  40  69 112 117 118 119 118 119 118 119 119 120 122 119 120 119 120 120 120
 140 139 139 139 139 140 141 139 140 140 139 140 140 140 140 140 139 139 138 136 137 135 134 122  63  43  47  59  68  74  80  79  76  77  77  77  78  77  79  76  75  72  69  68  69  72  76  76  73  73  75  75  69  68  67  66  68  75  80  87  89  92  89  86  81  74  74  74  78  78  67  51  41  38  99 114 116 116 116 117 117 118 118 118 117 117 117 118 119 119 119 119
 139 138 138 139 137 138 140 139 139 139 138 138 139 140 140 138 139 139 137 137 136 137 133 128  97  36  42  48  56  68  74  78  75  76  77  77  79  78  75  73  74  72  66  68  64  62  65  64  62  62  64  61  58  57  59  60  63  70  76  83  88  90  85  83  80  76  78  80  81  75  59  48  37  65 110 115 116 116 115 116 117 118 118 118 117 118 118 119 119 119 120 121
 137 137 137 138 138 138 138 137 139 138 137 137 137 138 139 138 138 137 137 136 136 135 133 132 121  55  37  41  51  61  68  71  70  70  77  77  77  78  76  72  72  70  66  64  62  62  59  58  56  56  57  54  51  51  54  57  60  68  73  80  81  85  83  80  78  79  80  80  80  69  51  39  39  98 109 112 113 114 115 115 116 116 116 117 117 117 117 118 118 118 118 120
 136 135 134 136 135 139 137 137 138 138 137 137 136 137 137 136 136 135 134 135 133 133 131 130 128 106  45  41  44  50  54  62  66  70  77  77  76  76  78  73  70  64  61  58  58  58  54  53  52  51  47  46  46  46  50  52  55  61  66  72  75  79  81  80  83  86  83  76  73  62  44  35  68 105 110 111 111 111 113 111 112 112 111 115 115 115 114 116 116 116 115 117
 133 134 134 134 136 136 136 136 136 135 136 134 133 135 135 134 135 133 132 132 132 132 130 129 126 120  70  36  36  38  43  57  64  71  78  81  76  75  76  75  71  66  59  55  52  51  47  47  47  45  41  42  40  41  45  48  52  57  63  69  75  78  82  84  87  87  84  78  67  53  38  43  97 106 109 109 110 110 110 110 111 112 115 115 115 116 116 115 116 116 116 116
 131 131 132 134 133 133 136 134 133 136 135 135 134 134 134 133 132 132 133 131 131 130 127 127 126 122  88  51  31  32  37  52  63  67  76  81  79  77  73  74  73  69  62  55  52  45  44  45  46  46  42  43  38  40  47  52  56  60  67  72  76  83  84  86  88  89  84  72  56  41  33  78 105 108 109 110 110 110 111 111 111 112 113 114 115 114 116 116 115 116 116 115
 131 131 132 133 132 133 133 134 133 134 132 133 134 132 132 132 132 131 131 130 128 128 127 125 125 121  94  65  42  28  30  39  52  64  72  81  84  81  75  73  71  70  65  60  58  52  50  51  49  49  45  43  43  45  54  58  63  66  73  77  81  84  87  91  90  88  81  62  46  35  51  97 105 107 108 109 110 110 111 110 111 110 112 112 113 113 112 113 114 115 114 114
 130 130 131 133 132 132 131 132 133 132 132 133 131 130 131 130 130 130 129 127 127 124 125 124 124 119  94  77  66  34  29  33  43  53  65  73  82  84  78  75  73  70  66  62  62  60  60  58  55  55  52  50  53  60  65  69  73  74  77  80  85  86  90  90  84  80  71  47  37  41  71  92 101 104 103 106 108 107 109 108 109 110 111 110 110 110 110 111 110 111 110 111
 129 129 129 132 131 130 129 131 131 131 131 130 130 129 130 130 128 126 126 126 125 124 124 124 120 115  90  76  68  52  30  30  35  41  57  64  76  83  80  76  73  70  70  70  69  67  66  68  71  72  72  74  77  77  82  85  86  87  86  88  89  90  92  88  78  68  50  33  28  35  56  69  73  76  82  83  88  92  97 102 103 105 108 107 108 109 109 110 109 111 110 110
 128 130 129 131 129 128 128 129 130 130 130 130 130 128 129 128 126 125 125 125 123 123 120 118 111  93  82  74  69  65  46  25  24  32  52  60  68  78  81  80  76  74  77  80  80  77  78  80  82  82  82  84  84  84  86  90  92  94  94  93  94  93  86  79  68  52  34  27  25  16  24  51  64  65  67  66  65  66  71  75  80  86  90  96  97 100 103 106 109 109 109 110
 126 128 128 127 129 128 129 127 128 129 128 129 127 127 126 125 125 122 123 120 119 115  94  66  40  30  66  72  68  66  60  43  25  27  40  53  63  68  75  79  79  80  79  82  82  81  80  81  85  82  82  84  83  85  87  90  93  95  96  95  95  90  81  70  54  39  28  36  39  14  12  19  51  57  61  65  67  64  63  64  65  64  68  70  75  76  80  85  88  89  92  96
 126 126 127 125 125 125 126 126 126 126 126 125 125 124 124 121 121 119 114  98  67  40  25  22  17  18  62  70  68  65  62  58  39  27  30  45  52  62  71  76  80  78  80  80  80  79  80  80  80  79  74  77  79  79  80  83  86  89  90  90  87  81  73  59  40  32  36  78  43  12  11  12  32  56  56  61  64  64  61  60  62  60  61  62  65  66  65  67  68  73  76  79
 126 125 123 123 124 125 125 126 125 124 125 124 122 121 120 114  96  80  68  42  23  18  14  11  11  14  71  70  67  65  65  62  50  31  24  33  46  54  65  75  79  79  78  78  76  75  77  76  74  73  73  72  73  73  73  75  78  81  83  82  74  65  55  45  30  33  74  89  43  14  12  12  17  46  55  56  60  59  60  61  60  59  60  60  59  61  62  65  64  67  68  67
 124 122 121 122 122 123 122 124 123 123 120 120 114 103  90  74  61  56  36  15  12  11  11   9  10  16  72  68  67  66  64  64  61  50  29  27  39  44  52  59  68  74  75  73  72  70  72  72  70  70  67  68  68  68  69  68  70  71  72  69  61  48  42  32  28  72  91  93  49  20  13  12  13  36  54  53  57  60  59  60  58  60  59  60  61  59  59  62  61  63  64  63
 122 120 119 120 121 122 120 120 120 117  99  86  70  68  64  56  47  44  16  10  10   9   8   8  11  29  70  68  67  67  65  63  61  57  46  28  28  35  37  48  53  62  67  66  65  65  66  66  65  63  58  59  60  61  61  60  62  59  57  55  48  38  32  33  59  86  91  94  63  26  17  14  12  23  52  53  56  58  58  56  56  58  58  56  56  57  59  59  59  63  60  60
 119 119 119 120 118 118 112 100  86  74  62  63  61  56  53  47  45  35  11   8   8   8   8  14  29  60  70  69  68  66  65  64  62  60  55  44  25  26  30  36  41  51  57  59  56  55  57  57  56  54  52  50  50  52  53  52  53  51  45  42  35  31  33  60  78  88  94  95  87  35  23  15  13  20  47  50  54  56  58  54  54  56  59  56  57  53  56  58  59  60  60  58
 117 115 113 107 103  93  77  70  61  60  59  59  55  51  47  44  45  25  10   8  11  16  26  43  62  69  70  69  68  69  66  64  63  61  61  54  42  26  24  28  32  39  44  48  46  47  48  48  47  48  47  46  45  44  42  43  42  39  37  34  29  33  61  76  86  91  94  95  94  64  29  18  14  21  45  49  52  54  58  58  56  55  56  57  56  52  56  58  56  58  59  58
  87  82  79  75  70  66  59  55  52  58  59  58  49  46  44  44  47  19  10  15  24  36  48  61  70  73  73  69  69  69  67  65  63  64  61  58  54  43  34  24  26  29  32  38  39  40  40  41  40  41  41  39  38  35  34  34  30  27  27  28  34  58  74  82  87  92  94  95  95  87  35  23  14  25  47  48  48  54  55  55  57  53  53  51  53  53  54  54  51  53  59  58
  72  69  62  62  57  55  55  54  57  57  52  53  49  45  41  44  46  20  17  26  39  48  61  68  72  75  72  70  69  68  66  65  62  63  61  61  57  54  48  34  22  22  25  27  29  31  31  33  33  34  34  32  31  28  27  26  24  23  28  44  65  76  78  83  90  92  93  92  95  92  53  26  18  29  47  47  49  54  54  53  54  53  53  53  51  51  52  53  51  52  60  59
  64  59  59  58  56  56  54  53  53  51  50  49  45  41  40  45  44  22  26  38  47  57  67  71  73  74  72  70  68  68  66  65  61  62  62  60  58  55  53  49  43  32  26  24  23  24  24  25  26  26  26  25  23  21  24  28  39  51  63  72  76  76  79  83  88  91  93  92  93  90  60  29  18  35  48  48  51  54  54  54  52  51  54  54  52  51  53  51  53  55  58  59
  59  55  57  54  55  56  55  52  49  50  52  49  44  40  40  42  44  29  32  44  53  63  71  74  75  72  70  68  68  66  65  64  62  62  62  60  58  56  56  54  50  45  41  34  28  27  25  24  23  23  26  27  27  31  41  52  63  71  74  77  78  78  81  83  89  92  95  93  94  91  61  30  21  40  45  45  48  55  54  52  52  49  50  53  52  50  53  51  51  51  58  58
  54  54  54  52  53  53  51  52  49  50  49  47  43  42  41  41  42  38  38  48  56  71  76  76  76  73  70  69  68  67  66  64  63  61  61  61  58  56  55  55  51  49  45  41  39  35  31  30  30  30  32  34  38  46  52  58  68  71  75  76  78  77  80  85  89  90  92  92  91  89  54  29  28  43  46  45  48  54  54  52  52  50  49  51  49  48  50  50  56  56  59  61
  50  51  54  51  50  51  50  48  46  48  48  46  42  43  39  38  39  41  42  49  57  72  74  74  72  70  70  70  67  67  66  65  64  62  62  61  57  55  54  54  54  50  47  44  40  37  34  32  33  33  34  38  43  48  53  61  70  73  74  76  75  76  80  83  88  89  92  92  90  82  47  28  33  43  45  46  49  56  54  52  50  50  47  47  48  48  50  50  56  58  58  59
  53  49  50  50  48  49  49  48  46  46  47  45  43  43  40  39  40  41  43  48  55  69  73  73  73  71  71  69  70  68  67  63  63  62  62  59  58  56  55  54  53  51  49  46  42  40  38  35  35  36  36  39  43  50  55  63  68  71  72  72  72  75  78  82  86  90  92  89  84  74  38  31  41  41  43  46  49  54  53  49  49  48  44  45  47  48  54  56  56  58  57  58
  54  53  49  48  47  46  49  46  44  46  46  45  43  42  41  38  38  41  43  46  53  67  73  72  72  72  71  69  69  68  64  62  63  63  62  58  57  54  55  54  50  48  49  47  45  40  38  37  37  37  37  42  46  53  58  61  66  67  70  71  71  73  77  82  86  90  89  87  80  64  31  35  43  45  42  47  53  53  52  50  49  47  46  45  46  51  57  57  58  57  57  55
