P2
# Generated by OpenCV 3.4.0
92 112
255
 140 142 141 141 143 143 143 143 143 144 145 145 145 146 144 143 139 134 116 100  91  82  83  66  56  38  35  36  34  30  30  29  29  30  29  29  29  28  28  25  23  20  17  20  24  22  24  25  27  29  29  28  25  27  27  28  32  39  52  46  47  58  77  72  88  82  81  74 100 107 107  69  88  82 107 127 135 142 149 146 150 152 152 152 152 152 152 151 152 152 152 152
 141 140 143 143 143 143 141 142 144 145 145 145 146 145 144 142 134 118  91  79  61  49  45  43  36  32  34  31  29  29  28  25  25  27  28  30  28  26  22  21  23  23  20  17  19  22  23  25  29  30  26  25  24  23  24  24  27  31  37  40  43  52  70  54  59  68  59  74 106 102  81  62  74  79 120 118 120 139 138 143 150 152 152 152 153 152 152 152 152 152 152 152
 142 141 142 142 142 144 143 143 143 144 145 146 146 145 142 138 130 120 102  71  47  38  40  36  29  34  30  29  27  25  23  21  26  25  27  28  26  23  20  20  19  17  18  17  20  22  23  27  27  26  22  21  19  19  19  22  23  28  29  32  34  39  40  38  48  54  63  76 101  73  59  59  68  76 128 108 111 125 132 143 151 149 152 153 153 152 152 153 153 153 151 152
 142 142 143 142 142 143 143 142 143 143 144 145 144 144 144 142 134 120 100  69  47  36  36  32  31  31  30  25  24  22  24  26  27  26  27  25  20  18  18  17  17  18  19  19  19  23  23  25  20  17  18  16  17  17  17  21  24  26  26  28  30  31  35  36  49  52  56  61  67  55  51  62  64  88 112 103  98 124 128 141 148 149 153 152 152 152 152 152 152 151 151 152
 142 143 143 142 142 142 142 143 144 143 143 143 144 144 146 139 131 122  80  50  42  34  35  31  28  28  26  24  24  24  23  23  18  18  25  20  18  17  18  17  18  18  17  21  22  23  19  16  16  16  16  15  15  16  17  18  23  25  27  29  36  38  38  39  42  46  46  51  53  47  46  52  65  92  93  93  92 109 123 132 142 150 151 151 152 152 152 151 152 152 152 152
 142 142 143 142 143 143 144 143 144 144 143 144 145 144 140 132 130 106  64  49  39  32  30  28  26  23  22  20  20  19  18  18  18  20  23  18  15  16  15  15  16  16  17  21  20  18  17  16  14  13  14  15  15  18  22  23  24  27  28  30  34  35  36  37  42  41  39  42  40  38  41  47  59  73  80  86  88 102 120 118 136 148 148 152 153 153 152 152 152 153 152 153
 142 142 143 142 143 144 144 142 142 144 144 144 144 144 138 136 125  84  52  40  33  29  25  24  25  25  27  23  18  20  22  18  18  19  17  18  17  16  16  15  15  16  17  17  15  14  13  14  13  13  13  13  15  17  23  26  27  28  29  30  30  30  31  31  34  37  36  36  36  37  37  44  52  60  71  75  84  97  94 102 127 144 148 151 151 153 152 152 151 151 153 152
 142 143 142 143 142 142 143 142 144 144 144 144 144 142 137 127 106  60  42  32  30  27  27  28  28  29  28  24  24  25  23  21  21  19  24  20  21  23  22  17  16  16  15  14  14  12  11  12  13  13  13  13  15  17  21  22  27  29  28  31  31  32  33  34  34  35  35  36  36  36  36  39  48  58  67  69  88  97  88  87 113 137 147 149 151 152 152 150 151 152 152 152
 142 143 143 143 142 142 142 143 144 145 144 144 144 142 135 109  74  44  33  32  32  34  32  28  26  27  20  17  16  16  17  22  24  22  26  26  24  26  28  23  17  15  15  12  12  12  12  12  12  13  14  15  15  17  19  21  27  28  28  26  26  27  29  31  31  33  36  37  36  37  38  38  46  52  55  69  93  94  82  78 104 132 139 147 152 152 152 151 151 152 152 152
 143 143 143 143 143 143 142 143 144 144 145 143 144 140 134  86  45  35  33  34  33  32  29  24  25  24  16  16  14  13  14  16  18  21  25  28  26  26  29  28  21  16  15  14  12  12  13  14  15  15  16  16  15  18  19  22  25  27  29  30  27  26  26  26  27  29  29  32  34  35  37  36  41  46  54  73  95  86  67  76  98 123 131 143 152 152 152 151 152 152 151 152
 143 142 143 143 143 143 144 143 145 144 144 143 142 139 113  46  36  34  32  30  30  28  26  23  18  16  15  13  12  12  13  15  16  18  20  22  23  23  29  31  28  22  20  15  14  15  15  15  16  17  18  19  18  20  21  21  23  21  19  21  25  25  24  21  21  25  26  27  28  32  32  32  35  41  50  61  64  63  56  78  96 116 128 145 150 152 151 151 152 151 151 152
 143 143 142 143 142 143 143 143 143 144 144 143 143 133  62  36  32  35  30  30  29  27  23  21  15  13  13  12  12  13  12  15  15  16  16  18  20  24  25  29  31  30  29  20  16  16  17  17  17  16  20  19  22  22  24  25  25  20  18  18  20  20  24  24  23  24  25  25  26  28  29  31  32  38  44  48  52  52  60  78  87 108 128 137 149 151 152 152 151 152 152 152
 144 143 144 143 143 143 144 144 145 145 143 143 139  92  38  31  32  31  30  29  29  23  17  16  14  14  13  14  14  15  14  14  15  16  16  17  21  25  24  25  28  30  30  28  21  17  18  18  18  18  18  19  20  23  23  24  26  26  23  23  21  20  18  19  20  24  24  26  26  27  27  28  29  33  39  45  45  49  61  68  84 117 119 134 147 151 151 152 151 152 152 152
 143 143 143 143 143 143 144 143 144 144 145 141 117  45  33  34  31  28  28  28  27  19  16  14  15  14  14  15  15  16  18  17  18  19  20  21  24  24  25  26  27  28  29  30  28  22  19  19  21  22  21  20  19  20  21  23  25  26  25  24  21  20  20  19  18  20  23  24  25  25  26  28  28  30  32  36  36  46  51  65 106 109 104 126 146 149 151 151 152 152 152 152
 143 143 143 144 144 143 144 144 144 144 142 136  87  35  32  34  29  29  28  25  24  18  18  14  15  16  16  18  19  21  23  25  26  26  28  30  29  29  28  29  26  27  28  29  29  26  20  20  22  24  24  23  20  19  20  22  23  25  26  24  23  25  23  19  18  18  21  25  24  25  25  26  27  27  30  31  32  38  56  91  89  85  87 123 140 146 149 152 152 152 152 152
 145 144 143 143 144 144 145 145 145 144 141 131  57  34  32  30  29  27  24  22  21  17  16  14  15  20  24  27  30  32  33  33  36  36  36  37  35  34  33  31  28  30  28  29  28  27  24  23  24  26  26  27  26  25  22  21  24  24  26  25  23  23  26  20  20  20  19  24  25  20  18  20  24  25  28  29  33  46  65  68  66  81  80 111 131 144 150 152 152 153 153 152
 144 144 145 145 143 145 145 145 145 144 140 104  46  31  31  27  27  24  24  21  18  16  15  16  21  30  34  37  42  42  44  43  44  43  43  42  41  41  38  37  32  30  29  29  29  29  27  24  23  28  31  30  29  29  26  25  26  24  24  25  24  24  25  22  20  19  19  23  26  23  22  20  22  24  27  29  34  39  48  51  55  59  76 107 134 150 153 153 153 153 152 153
 144 145 144 145 145 146 145 145 145 144 138  68  36  29  30  28  27  23  22  20  16  15  18  25  35  42  45  50  53  54  52  53  52  51  48  48  47  46  45  43  39  36  35  35  32  30  29  25  23  27  35  37  34  33  32  33  35  30  26  24  24  24  25  25  23  21  22  23  27  29  22  20  22  23  23  23  27  33  38  43  49  67 105 128 144 151 153 152 153 153 153 153
 145 144 145 145 145 146 146 144 143 139  89  45  30  27  30  29  26  20  18  16  15  18  26  37  48  51  56  63  64  62  61  62  61  61  57  57  55  52  51  50  46  42  39  38  38  36  33  31  24  25  35  42  44  43  41  40  41  39  32  27  24  24  27  26  25  24  23  24  28  30  25  20  20  21  22  25  28  31  35  51  74 105 127 138 145 149 152 154 153 151 153 152
 144 146 145 145 146 144 146 146 141 113  56  37  26  27  29  28  22  16  15  16  19  26  37  49  58  60  65  71  71  69  68  68  68  67  65  64  62  60  59  55  54  51  48  46  42  40  39  36  25  25  31  42  49  51  51  50  49  48  44  38  31  24  25  27  28  26  25  26  27  28  27  24  22  24  25  25  30  39  50  80 105 119 128 138 146 151 153 153 153 152 151 152
 145 146 146 144 145 147 146 146 138 103  50  31  24  27  31  27  17  15  15  18  25  37  49  61  67  69  75  76  77  75  75  73  74  74  74  71  69  68  67  64  63  60  55  52  48  44  44  44  32  26  31  40  53  58  58  57  57  58  58  53  42  31  26  26  26  25  24  27  29  29  28  29  28  28  28  33  45  71  92 111 119 131 142 149 151 153 154 153 153 151 152 152
 146 146 147 146 146 146 146 146 142 112  48  30  25  26  31  23  15  15  16  22  33  48  60  71  74  75  80  82  82  80  78  80  82  82  81  79  76  75  73  70  68  64  61  57  53  49  49  50  43  31  34  47  56  63  65  66  66  68  71  71  60  46  34  29  25  23  24  24  25  29  30  29  30  30  38  48  62  80 106 123 130 136 144 152 154 155 154 154 153 152 152 152
 146 146 149 147 148 147 145 145 144 114  45  28  27  28  29  21  16  16  19  29  45  60  69  77  79  81  82  85  86  85  85  86  86  85  84  83  81  79  79  76  74  70  68  67  60  55  54  54  52  43  42  53  60  66  72  72  72  73  80  90  85  70  52  38  31  25  23  23  24  28  33  32  29  33  38  57  94 119 127 139 141 143 149 152 155 154 155 155 154 153 153 153
 146 146 148 148 148 148 144 146 141  99  44  29  29  29  26  20  16  20  25  40  55  68  76  82  83  83  82  86  88  88  87  88  88  88  88  86  85  84  83  81  80  77  76  75  70  65  59  55  56  54  51  61  67  72  76  77  77  77  86 101 106  97  81  61  46  34  24  20  21  26  28  30  31  29  32  49  78 110 131 142 146 149 153 154 156 154 154 154 155 155 154 153
 147 147 149 149 148 149 148 147 139  75  37  31  27  29  25  19  17  22  35  52  65  75  82  85  85  88  88  90  90  91  90  90  92  92  92  91  90  88  88  86  85  82  81  82  80  75  69  64  64  64  65  72  77  82  84  85  84  87  91 103 113 112 105  90  71  54  34  23  21  23  26  27  30  31  31  48  70  97 112 125 138 146 152 155 155 155 156 154 154 154 154 154
 147 147 148 150 150 150 150 143 117  48  36  31  25  28  24  19  20  29  47  63  74  82  85  88  88  90  93  95  94  94  94  95  96  95  96  95  95  94  92  91  90  89  88  90  88  86  82  76  74  74  77  82  89  91  92  93  94  97  99 107 115 120 117 111 101  81  56  31  25  24  24  24  26  29  32  50  92 111 116 127 139 148 153 155 156 156 158 155 154 152 154 154
 147 148 149 150 150 150 149 145  94  45  35  29  24  30  23  20  24  39  57  72  80  84  87  89  91  95  96  97  98  98  99  98  97  98  98  97  97  98  97  96  96  95  95  98  98  98  95  89  88  87  90  92  96 100 102 105 104 108 111 113 118 123 124 123 118 108  86  50  29  27  24  25  27  30  34  44  81 118 128 143 150 152 154 155 156 156 157 157 155 154 155 156
 149 149 150 149 149 149 144 118  59  42  34  26  23  29  24  23  31  50  69  79  84  88  90  92  95  96  98  98  99  97  98  98  99  98  99  99 100 100  99  99 100 100 100 101 103 105 105 103 100  98 100 104 107 106 108 110 110 113 116 118 122 127 128 129 128 123 113  79  42  33  25  26  28  31  34  43  76 121 139 147 153 156 155 156 157 157 157 158 157 156 156 157
 149 150 151 149 148 147 143  88  50  36  31  23  22  27  25  27  41  59  75  82  87  90  92  95  97  98  99 100  99  98 100 101 100 100  98 102 100 102 102 102 102 103 105 107 108 107 107 105 101 102 106 107 109 112 112 114 116 117 120 123 126 127 130 130 132 129 123 104  62  39  30  25  29  35  37  47  79 118 144 150 154 157 157 157 157 154 157 159 158 155 156 156
 150 150 150 150 150 148 127  51  40  31  28  20  22  26  26  33  51  69  80  85  90  93  96  98 100 101 102 102 101 102 103 103 102 100 102 104 104 104 104 101 104 104 109 109 110 110 112 109 106 106 107 109 111 114 116 117 121 122 125 127 128 130 132 134 136 134 130 119  88  54  36  25  27  37  41  53  95 122 142 152 152 155 156 157 158 158 158 158 158 156 157 158
 149 150 150 150 149 146  82  48  34  31  27  22  25  28  26  41  62  78  82  88  91  95  97  99 101 103 104 104 103 104 104 102 103 103 104 104 106 106 106 102 110 110 111 112 112 111 110 109 107 108 105 108 109 114 117 122 123 124 128 128 130 132 134 135 135 137 135 128 108  73  45  25  25  36  46  52  99 136 152 153 156 157 156 158 157 159 158 157 156 157 157 158
 148 150 150 150 146 130  63  42  32  28  25  22  24  26  31  51  72  81  85  90  93  97  97  98 102 104 104 104 103 103 104 104 104 104 104 105 106 107 106 109 111 110 110 110 112 112 109 108 107 107 105 105 108 111 118 121 124 129 129 131 131 133 135 136 136 138 136 132 122  89  58  30  25  32  48  52  93 137 154 157 156 157 158 158 158 158 158 158 155 156 157 157
 150 150 151 147 145 126  53  39  32  28  26  25  25  28  38  63  80  86  89  90  93  95  98  99 102 103 103 103 102 102 102 100 103 104 104 104 106 108 108 108 110 109 110 112 112 111 110 107 107 106 105 103 107 110 117 122 126 129 129 131 134 134 135 135 136 137 137 133 127 106  67  39  27  34  46  53  89 135 150 157 158 158 159 157 157 158 158 156 154 157 157 157
 151 151 150 149 146 104  44  36  32  26  26  27  28  33  48  73  86  89  90  91  94  97  99  99 100 103 103 102 101 103 102 103 103 103 102 104 104 105 105 106 108 110 111 111 108 105 107 103 101 100 101 103 105 108 113 117 124 127 127 132 132 133 135 133 134 136 137 134 129 112  81  50  31  37  44  46  90 136 148 154 157 158 158 158 158 158 158 156 157 157 157 158
 150 150 151 150 145  90  44  36  30  29  29  30  30  40  61  79  87  91  94  94  98 101 102 101 100 100 100  98  96  95  97 100 100 100 100  99 103 104 104 101 104 106 104 105 103 101 101  98  97  97  99 102 104 108 108 114 118 119 123 125 127 132 133 133 133 137 137 136 130 117  84  54  36  39  46  46  77 130 153 152 155 156 157 158 159 159 159 157 158 156 157 158
 151 152 151 151 145  85  40  33  29  29  29  29  32  49  72  84  88  91  96  99 100 101  98  94  90  89  85  75  72  77  84  86  88  90  90  93  95  97  97  98  98  98 100  99  97  95  91  92  91  91  93  94  96 100 103 104 108 112 116 115 117 122 126 130 134 136 136 133 130 121  91  56  40  38  47  47  67 136 154 156 156 157 158 158 158 158 158 158 159 157 157 157
 151 152 151 152 145  69  39  31  27  27  28  30  36  57  77  85  88  93  98  96  92  87  81  72  56  47  43  41  36  38  41  48  58  69  76  79  84  87  90  92  90  91  95  94  90  87  86  85  79  80  84  82  78  80  81  78  81  89  94 100  99 105 111 116 124 131 135 133 130 123  98  62  43  36  39  46  67 137 156 158 157 159 158 157 158 157 157 157 158 158 159 158
 152 151 150 150 137  67  37  29  27  26  28  29  37  60  80  86  89  93  87  73  64  59  57  45  38  30  28  27  26  27  27  30  35  40  48  56  67  72  82  86  85  87  89  87  84  80  80  70  59  64  59  57  52  56  49  46  47  48  57  62  68  72  78  87  98 115 132 133 129 124 101  68  46  36  38  44  71 144 156 159 157 159 159 158 158 158 157 157 158 159 158 158
 152 152 151 150 137  70  39  30  28  26  26  29  42  68  82  87  89  78  57  52  52  46  34  30  29  27  25  23  23  24  24  25  26  30  34  39  47  54  70  79  78  86  85  82  79  74  65  52  46  46  42  41  39  38  32  33  32  32  32  35  38  44  51  58  64  83 109 129 128 125 109  66  47  36  35  44  72 145 156 158 157 158 158 158 159 157 157 157 158 157 157 158
 151 151 150 149 134  92  45  32  27  28  27  29  48  76  85  86  75  52  47  45  40  34  30  29  30  29  26  22  20  23  23  23  24  25  28  30  36  44  54  67  71  80  81  79  72  65  52  44  36  36  33  31  30  30  29  28  35  40  46  47  45  47  45  49  51  57  69  94 120 123 110  65  45  40  33  42  62 146 156 158 158 158 158 158 158 157 157 155 156 158 159 158
 150 151 151 149 141 106  46  30  26  27  24  28  57  82  85  70  49  46  46  44  42  43  43  46  46  49  51  53  49  40  30  24  23  25  25  29  31  38  46  56  64  74  79  76  64  57  46  37  31  31  28  29  27  38  45  46  44  38  33  31  31  32  35  35  36  38  40  43  57  85 106  69  42  41  34  39  63 149 156 157 157 159 157 158 158 156 156 157 158 157 156 158
 150 152 152 151 147 119  53  32  27  27  24  30  67  76  61  44  41  38  34  33  34  37  38  41  42  42  37  32  33  37  45  52  45  32  27  28  30  34  43  49  60  74  77  73  62  53  42  34  30  30  33  45  46  34  26  26  26  27  28  30  32  37  37  38  41  45  42  45  44  42  47  57  38  38  34  40  67 148 156 157 157 158 157 156 157 157 157 157 158 157 158 158
 150 150 150 150 146 133  62  34  28  25  23  38  59  41  44  43  36  33  30  31  35  46  55  60  58  53  47  40  36  35  35  34  38  51  58  48  49  55  57  52  60  75  78  75  66  60  60  60  56  58  51  34  29  28  27  27  28  28  30  34  37  40  43  44  40  41  39  42  48  62  59  41  39  37  35  39  76 144 154 157 158 158 158 158 157 158 156 157 157 157 157 158
 152 150 150 151 149 134  68  35  30  25  28  43  36  56  63  40  35  33  35  41  48  53  54  55  52  49  42  39  39  38  39  40  41  38  40  52  61  62  55  54  50  57  57  52  46  46  55  60  56  43  33  37  36  35  33  32  35  36  39  41  44  48  51  51  48  49  50  50  51  60  88  49  38  42  42  39  95 146 156 155 157 158 157 156 158 157 157 156 157 156 156 156
 150 150 149 150 147 134  82  36  32  36  44  32  34  64  51  36  37  41  45  51  54  53  50  45  41  35  31  33  34  35  38  38  41  42  40  41  50  41  37  38  41  44  45  45  44  43  42  43  44  37  44  40  39  37  37  37  37  38  40  41  44  49  51  53  58  61  63  61  58  60  77  48  43  39  46  56 111 150 155 156 157 157 157 158 158 158 156 157 158 156 155 154
 149 149 150 148 143 142 104  47  54  51  37  35  29  65  48  44  45  51  54  52  48  39  34  34  31  27  27  28  28  28  30  33  38  41  43  42  40  44  53  58  64  67  72  71  72  71  68  55  39  48  46  41  38  36  33  31  30  32  33  34  34  36  38  45  55  66  72  75  69  70  81  50  44  40  60  53 118 166 155 155 156 156 156 157 156 156 156 157 155 156 156 156
 150 150 150 146 147 142  83  62  64  51  37  34  31  67  51  50  54  57  52  41  35  31  32  31  27  26  26  29  30  31  31  32  33  37  41  44  40  44  51  58  66  77  89  87  82  75  72  59  41  48  41  37  34  30  27  28  27  27  30  32  31  31  30  36  43  54  71  78  74  76  92  53  41  40  38  40  39 115 153 155 156 157 156 155 155 155 155 155 156 155 155 155
 149 148 150 148 149 138  39  36  35  39  38  32  34  70  60  56  58  55  41  32  31  29  30  27  24  25  28  26  29  33  31  32  34  37  39  43  41  37  46  63  85  98 104 104  96  87  64  38  44  43  36  32  29  28  29  27  25  22  25  25  25  26  28  35  40  41  61  77  79  86 100  58  43  41  41  60 114 150 154 156 156 156 156 155 155 156 155 155 154 154 154 156
 149 149 149 150 149 145 110  52  31  34  37  31  38  74  67  63  59  50  33  31  28  30  32  25  28  35  27  29  33  46  39  33  36  38  41  42  42  35  43  65  89  97 105 107  95  87  63  37  44  39  32  29  30  30  28  27  23  23  31  27  25  44  38  29  35  45  50  70  81  96 107  59  45  53  44  96 148 152 154 155 155 155 155 154 154 154 155 155 154 155 155 154
 147 148 148 148 149 148 140  70  32  32  36  30  43  78  68  62  54  42  30  28  27  41  37  29  26  27  25  31  36  56  52  38  33  37  42  46  44  36  41  59  88 109 122 123 114  87  62  38  45  38  34  33  29  30  36  34  26  25  25  25  27  52  72  44  30  37  43  62  79  97 112  65  46  57  45 116 148 152 154 154 154 154 155 154 154 155 155 155 155 154 155 153
 146 146 147 147 148 146 141  55  34  30  35  30  54  80  70  60  50  35  29  27  32  49  45  37  30  28  29  35  47  64  58  45  36  36  49  54  49  38  42  57  96 119 127 132 130 107  60  40  39  42  41  33  28  32  42  42  31  29  26  24  27  33  62  57  35  32  39  57  73  92 105  67  49  53  46 131 147 153 154 153 154 153 154 153 154 155 153 154 155 155 154 154
 147 147 147 147 148 146 135  38  32  28  36  33  57  84  75  63  50  38  33  34  38  45  48  39  37  37  39  41  51  52  49  47  48  48  54  60  50  33  44  63 108 128 140 145 143 127  75  45  40  52  48  36  34  38  41  42  40  40  40  40  39  43  50  56  57  58  49  63  79  96 103  65  51  58  49 136 148 153 154 153 154 154 154 155 155 154 153 153 155 155 154 153
 146 147 147 146 147 144 107  35  30  25  35  35  58  84  80  70  58  52  54  58  58  54  50  47  46  47  49  50  52  52  49  54  58  62  62  47  45  28  44  74 114 132 152 153 150 132  96  48  38  55  51  51  48  46  48  51  54  54  51  52  53  60  68  76  82  88  78  75  85 103 112  47  52  53  51 139 150 152 152 153 153 154 153 153 154 154 154 153 154 153 153 153
 146 147 146 146 147 141  87  42  29  20  29  33  56  84  81  73  69  68  70  70  68  65  61  59  57  56  56  58  57  54  51  50  52  57  59  56  42  30  47  82 110 126 142 145 144 132 111  52  36  43  53  53  50  48  49  52  58  58  58  60  64  68  72  80  88  94  92  86  94 112 122  70  71  42  66 136 150 152 153 153 153 154 153 154 154 153 154 153 153 153 154 154
 145 146 146 146 146 134  95  48  27  26  31  41  63  87  82  80  81  78  73  72  70  68  66  65  63  63  62  60  54  50  49  51  54  57  60  61  38  40  59  86 107 120 126 128 133 127 112  65  41  62  67  55  52  51  49  48  49  51  53  56  60  65  68  74  86  97 105 110 115 122 128  99  72  41  85 123 142 149 152 152 152 153 153 153 154 154 153 153 153 154 154 153
 146 146 146 145 136 107  83  51  32  33  48  50  83  93  86  86  85  79  75  69  67  67  66  64  62  64  56  53  52  54  56  58  61  65  70  60  34  51  69  84 103 116 122 127 127 125 111  79  51  52  77  66  57  55  55  54  51  49  50  52  53  58  63  72  78  87  98 113 124 130 131 114  68  69  97 118 126 141 151 152 153 154 154 154 154 153 153 153 153 153 153 153
 144 144 144 142 106  84  78  63  50  42  61  61  88  95  94  90  86  81  77  70  66  62  58  58  61  62  60  62  67  70  69  68  71  75  77  45  52  62  78  85 102 116 123 128 126 126 112  90  60  49  71  80  71  67  66  65  62  59  56  57  58  61  67  78  90  99 105 107 118 130 133 114  75  86 101  98  72 120 148 151 151 153 153 152 152 153 153 152 152 152 153 153
 146 145 146 140  75  51  55  65  65  46  71  83  64  97  97  95  90  86  83  82  80  79  79  76  76  76  78  77  79  78  77  77  80  80  67  40  59  67  81  88 101 115 117 123 122 120 110  97  69  58  50  82  85  84  79  75  73  71  71  71  74  76  79  84  90  98 106 116 121 125 129  85 110  94  86  55  57 116 148 152 152 152 152 152 152 153 153 151 152 151 152 153
 145 146 146 137  64  41  41  48  64  46  76  99  58  86 102 100  96  92  90  90  89  88  89  89  87  86  85  86  84  85  83  82  86  80  36  64  64  73  84  90 101 112 116 122 123 117 110 100  84  62  60  57  86  90  90  89  87  86  84  86  89  91  92  94 100 108 115 120 122 125 106  93 126  95  63  47  55 115 147 152 151 151 149 151 151 152 152 151 152 152 152 151
 145 145 146 139  66  42  41  46  55  44  86 102  90  55  97 103 101  97  96  95  93  92  90  91  92  92  91  92  90  87  87  87  88  48  58  69  66  78  86  92 103 112 116 122 121 116 111 102  94  71  81  60  61  93  92  94  94  94  93  92  92  94  95 100 104 109 118 125 125 109  79 121 126  98  71  46  57 120 147 151 153 150 150 150 151 152 152 151 152 152 152 152
 145 145 145 137  67  43  44  58  65  48  89 102 103  84  65  96 101 102 100  97  96  95  93  95  93  93  92  92  94  93  89  87  57  60  76  68  70  84  93  96 105 108 111 119 119 115 114 108 100  77  80  89  68  59  88  93  95  96  96  96  99 100 102 105 107 111 116 123 104  79 121 125 126 105  79  49  58 125 146 150 152 152 152 149 151 151 152 152 151 152 151 152
 145 146 145 135  67  44  50  70  79  55  90 101 102 101  87  73  88 100 102 100  97  95  95  92  95  94  94  94  91  90  81  54  68  81  74  74  78  89  94  99 104 107 111 117 112 115 115 112 106  88  77  88  94  81  58  63  85  98  99 101 101 105 105 108 112 113 100  86 102 125 128 128 126 113  95  54  64 132 147 149 151 151 151 150 152 151 151 151 152 152 151 150
 145 146 144 135  73  48  57  84  89  68  92  97  97 102 101  97  82  72  85  95  97  97  96  95  95  96  94  91  77  58  56  79  83  80  77  77  81  87  92  99 104 107 105 112 110 109 113 115 109  97  78  85  90  92  89  77  62  63  65  73  77  79  75  73  74  83 104 125 130 132 128 127 127 124 116  60  72 132 147 149 150 150 150 150 150 150 152 150 149 151 150 150
 145 145 145 137  82  53  65  94  93  68  90  95  96 101 105 106 107 103  92  76  73  71  71  72  71  69  63  66  74  85  84  83  80  76  78  74  78  87  95 101 101 104 104 107 106 106 109 116 113  99  75  80  79  83  84  86  90  94  98  97  93  97 102 106 115 121 128 133 136 135 130 127 129 121 130  71  78 134 146 148 150 149 150 149 150 150 151 150 148 150 148 149
 145 146 145 139  83  55  77  91  77  62  91  94  97 103 107 104 108 107 105 104 102  99  96  94  95  93  89  89  86  82  78  77  71  70  72  72  82  91 100 101  99  98  97 100 101 103 104 110 116 103  78  74  71  69  73  77  82  87  92  97 102 104 107 109 112 118 126 131 137 136 132 129 129 105 115  93  86 132 144 147 148 148 148 148 150 149 149 149 149 149 150 150
 146 146 146 140  87  60  88  86  70  71  90  94  98 103 105 105 105 105 103 101  99  96  95  94  91  88  84  78  75  73  69  65  63  67  75  92  96  97 100  99  98  95  94  94  88  95 100 111 116 108  99  85  74  65  62  65  71  76  82  86  93  97 102 104 107 112 120 127 133 137 131 129 127 101  96 106  95 135 143 145 146 146 147 147 147 149 148 147 149 148 149 149
 145 145 146 143  99  68  91  84  67  77  92  94 100 103 102 103 102  99 100  99  96  94  89  86  81  79  75  68  66  65  61  60  62  75 100 106 101  95  95  95  92  91  90  87  87  90  93 103 114 111 110 112  94  79  63  56  61  66  71  78  84  88  92  98 102 107 115 119 126 130 131 128 128 104  90 116 107 137 143 145 144 145 145 146 145 146 148 147 148 146 147 149
 146 146 145 144 116  78  90  82  68  76  91  95 100 100  99  96  95  93  93  92  92  89  86  83  80  75  69  64  60  58  58  61  66  87 102  98  95  89  89  91  87  86  86  83  84  87  89  96 107 109 109 112 113  89  63  55  53  57  62  67  72  78  83  91  97 101 108 112 117 122 127 130 126 104  92 121 120 139 140 143 143 143 143 144 144 145 145 146 146 144 145 146
 146 146 146 144 125  85  91  83  69  69  86  95  95  95  94  91  90  91  91  90  89  88  85  83  80  72  65  58  55  52  55  58  72  89  95  86  84  84  83  84  76  78  81  79  80  82  83  90  98 101 100 104 109  95  60  52  49  51  56  63  69  72  77  85  90  95 101 104 111 114 119 126 123 105 100 123 129 139 141 141 140 141 141 142 144 144 144 144 145 145 144 145
 145 145 145 144 138  95  94  88  76  73  87  93  92  89  88  89  88  87  87  85  85  83  82  80  74  69  62  55  49  50  55  56  67  80  81  75  71  73  75  76  72  71  75  74  74  73  76  79  83  85  83  92  94  87  61  54  51  48  51  56  62  67  71  75  79  86  93  97 102 105 106 117 119 113 118 130 132 138 139 139 141 141 140 141 142 141 141 142 142 144 144 145
 143 144 145 146 143 105  94  97  92  96  88  91  87  85  84  84  83  84  83  82  80  77  76  71  68  61  55  49  50  57  61  62  63  69  68  65  61  60  65  67  68  69  69  67  67  67  67  69  71  71  69  74  74  75  66  57  52  49  49  50  56  61  64  68  71  76  82  89  93 100 106 114 116 123 124 121 135 137 139 139 139 140 140 142 141 140 141 141 142 143 143 143
 144 144 145 146 143 114  91  92 103  98  87  89  84  81  81  79  76  76  75  75  75  72  68  63  59  55  50  49  57  65  63  65  59  56  54  50  48  49  54  58  61  62  61  62  59  58  57  58  60  60  54  56  62  74  73  60  54  53  49  47  50  53  55  59  64  67  72  80  87  95 102 112 114 124 114 122 134 138 138 139 139 140 140 140 140 139 141 141 141 141 142 143
 144 144 145 144 143 124  98  96 101  92  84  86  82  79  76  72  71  71  70  69  69  66  63  59  54  51  48  55  65  68  67  65  60  53  45  36  33  38  45  49  52  51  51  51  51  49  49  53  51  41  49  55  66  80  73  63  55  54  51  47  46  48  50  53  57  60  66  71  81  91 100 108 111 123 133 134 134 137 138 139 139 139 139 139 140 141 141 140 141 141 141 140
 144 144 144 144 144 137 111 105  98  87  80  84  77  74  72  67  65  66  65  65  63  60  55  53  49  46  49  58  67  67  67  66  62  54  47  38  33  33  37  41  44  43  42  43  42  42  44  47  44  49  55  59  74  80  77  69  60  54  51  46  44  46  46  49  52  54  58  65  74  87 100 103 103 115 135 137 135 137 139 139 139 139 139 140 139 140 140 140 141 141 141 141
 141 144 145 144 144 141 122 104  98  90  76  81  72  69  68  65  64  63  62  59  57  50  47  48  46  44  50  60  66  68  67  66  63  55  50  47  42  36  35  36  38  39  36  36  37  40  41  39  45  51  54  62  77  85  83  76  69  59  53  48  42  41  44  47  50  52  53  57  70  85 100 102 101 106 127 137 135 136 137 139 138 138 139 139 139 140 140 141 140 140 139 139
 142 143 144 145 145 142 119 100  95  87  71  78  72  69  68  65  62  60  58  54  51  49  48  44  42  46  54  64  68  68  70  71  70  57  52  50  46  41  36  36  36  35  34  36  38  38  37  40  48  52  55  62  72  86  91  84  78  69  62  58  50  40  42  49  54  55  50  53  64  83  98 100 100 101 116 130 133 135 136 136 137 136 137 139 138 138 139 139 139 139 137 139
 142 143 144 144 144 142 119  89  83  73  65  75  73  71  69  60  58  56  55  54  51  50  46  42  44  53  61  66  68  71  72  71  68  55  52  49  46  42  38  36  37  36  34  33  35  35  37  40  46  52  52  58  66  82  91  90  83  77  74  67  61  53  44  44  56  67  55  52  62  84  94  99  95  90 105 128 132 133 135 135 135 136 136 137 138 138 138 138 138 139 138 139
 143 143 144 144 144 144 135  95  73  67  67  75  71  71  69  61  55  56  56  56  54  51  48  49  56  62  64  63  65  66  70  67  62  54  53  52  48  42  40  33  34  35  34  32  31  32  37  40  47  51  51  59  67  79  85  88  86  82  76  73  67  65  62  46  55  72  66  57  68  86  96  99  94  94 120 130 133 134 133 133 134 135 134 135 137 137 139 137 137 139 139 139
 143 141 143 144 144 145 142 137 128 122  86  74  71  75  72  64  56  58  58  59  59  55  54  59  61  62  60  60  60  64  71  64  59  54  54  54  49  42  40  33  34  34  32  32  31  31  36  42  44  47  52  66  73  77  80  84  81  79  75  73  67  64  64  53  63  78  78  66  74  90  95  99  96 114 127 130 132 133 132 133 135 134 136 136 134 136 136 136 138 139 139 139
 142 142 141 142 142 144 142 142 140 138  95  72  73  76  73  69  65  62  62  63  62  57  56  58  53  53  54  55  57  62  71  65  62  56  54  53  52  46  41  37  34  37  36  32  32  35  37  42  43  46  61  70  76  78  79  87  80  74  71  68  60  57  57  56  71  85  82  72  77  92  96 100  96 118 128 131 132 133 133 133 134 134 136 134 134 136 136 134 135 138 139 138
 139 140 141 141 139 142 142 141 142 138 115  68  71  75  72  69  70  68  68  68  67  60  56  52  46  44  49  50  51  60  68  65  65  59  57  59  54  53  46  42  39  40  38  36  35  38  39  47  48  54  64  68  75  74  79  86  78  71  60  58  54  52  58  64  77  89  86  75  80  90  95 101  95 123 129 131 131 130 131 131 132 134 132 132 133 133 133 135 136 137 136 137
 139 139 140 139 141 140 140 140 140 138 119  68  74  72  71  71  75  73  71  73  73  64  54  46  43  43  48  49  52  57  66  65  66  62  61  59  56  55  52  48  43  42  43  41  40  42  46  52  52  57  59  62  71  75  79  77  71  62  49  45  48  54  64  70  84  91  89  80  78  89  96  95  98 125 128 129 130 129 131 132 132 131 131 131 132 133 134 135 134 135 135 136
 139 139 139 140 140 141 140 140 140 138 129  76  72  72  69  68  72  73  72  73  77  66  55  48  43  41  43  45  48  53  57  59  58  53  54  54  51  49  48  48  46  44  44  42  42  44  46  46  48  48  49  53  58  60  62  63  53  37  36  43  52  56  66  74  84  89  87  81  82  88  91  90 110 125 126 127 128 128 127 129 130 131 131 129 130 132 132 132 133 133 133 133
 139 138 140 140 140 140 139 138 137 138 133  87  67  71  67  66  70  71  71  74  75  71  63  50  47  49  45  38  36  40  44  43  42  40  40  41  40  40  39  38  38  40  40  40  39  38  36  37  36  35  37  38  40  44  46  45  38  46  54  61  61  64  68  75  84  88  82  78  82  86  88  87 115 124 124 126 125 124 125 127 128 129 130 130 130 130 131 130 132 133 132 133
 138 139 138 139 138 138 138 138 135 134 133 102  63  67  66  65  67  70  71  76  75  74  68  58  54  60  59  52  47  41  33  32  30  26  26  27  27  28  28  29  30  33  32  30  30  31  31  29  27  26  27  30  38  44  50  56  68  75  74  74  68  67  68  74  83  80  79  81  83  80  83  94 117 123 124 125 124 124 122 123 125 125 126 126 127 128 128 130 130 130 131 132
 138 137 138 138 137 137 136 136 136 133 133 125  70  63  67  65  63  66  67  72  73  76  72  65  65  68  70  67  65  61  54  48  44  41  39  40  38  35  29  27  27  27  28  28  28  29  29  31  35  38  47  58  66  72  75  83  86  85  84  81  76  68  67  75  76  72  74  76  79  76  74 107 121 123 122 124 124 124 122 123 123 124 124 124 124 127 126 128 129 130 129 129
 136 134 136 135 134 136 134 135 132 132 131 129  95  58  64  66  63  63  64  66  69  75  74  72  70  70  73  76  75  71  67  64  61  56  54  56  57  57  55  52  46  45  44  41  44  49  51  59  61  63  70  81  83  84  88  89  91  90  88  86  78  69  70  72  70  66  70  69  75  71  71 114 119 120 121 120 122 124 121 121 123 123 123 123 125 125 125 125 125 125 125 125
 135 133 134 134 132 133 134 131 132 129 129 129 117  55  57  59  58  58  67  64  68  73  74  74  74  74  76  79  79  76  73  70  68  65  61  59  56  57  61  66  68  66  63  60  58  65  66  67  67  68  72  81  84  86  89  92  94  90  89  85  79  73  72  69  67  64  68  67  68  64  93 116 119 119 119 119 119 120 120 121 120 121 121 122 121 123 122 124 124 123 122 124
 133 133 134 132 131 131 132 131 129 129 128 127 123  91  48  53  58  58  66  65  68  71  72  72  73  75  76  78  79  76  74  71  68  66  64  61  59  55  56  60  61  63  61  64  63  62  62  61  61  62  65  72  76  81  89  91  91  89  88  84  80  77  73  66  63  60  65  61  58  66 108 117 117 118 117 119 117 117 119 119 120 118 119 120 122 123 123 123 124 124 123 124
 132 131 132 131 132 131 131 131 130 129 129 127 126 114  58  49  51  54  60  62  64  68  69  70  72  73  77  77  77  75  74  70  67  65  63  62  60  58  54  56  54  54  56  59  60  57  53  54  55  57  60  68  75  83  87  87  88  86  84  81  80  78  74  68  60  58  60  57  50  83 112 116 118 118 118 118 117 117 119 119 119 121 122 120 121 121 120 120 123 123 124 124
 130 130 130 130 129 129 130 129 128 128 127 126 124 120  84  47  45  49  54  57  61  66  70  68  70  72  75  76  77  75  76  70  67  62  63  59  59  59  57  53  51  52  52  52  54  50  48  49  54  56  63  72  76  80  84  84  84  83  83  83  79  78  72  65  57  57  50  47  54 108 112 113 115 115 116 116 115 116 117 117 117 118 119 119 119 118 119 119 121 120 122 122
 129 129 129 129 129 128 128 127 126 126 125 124 124 123 115  54  42  43  48  54  57  63  67  69  70  73  75  75  74  74  75  71  68  64  62  56  55  54  53  51  50  49  48  45  45  44  45  47  52  56  60  68  72  75  83  82  82  84  85  86  82  80  70  64  52  46  39  35  84 110 112 111 113 114 113 114 116 115 116 116 116 116 115 116 117 119 118 119 118 119 121 119
 128 129 129 126 128 127 126 125 126 125 125 124 124 121 118  86  43  39  46  49  54  61  64  69  71  71  75  75  77  74  73  74  72  67  63  58  51  49  47  43  41  41  40  39  38  39  39  42  46  51  54  61  68  78  83  83  81  84  89  90  87  80  66  56  42  35  32  41 104 110 111 111 112 114 117 116 116 116 117 117 117 117 117 116 117 118 118 119 118 118 119 119
 126 128 127 126 125 125 125 125 124 124 124 122 120 119 117 109  54  35  36  42  48  54  60  66  67  69  71  74  76  75  74  72  72  72  68  62  53  47  43  38  38  37  38  37  35  36  33  37  43  50  58  64  71  76  80  83  81  85  90  92  89  78  61  50  38  32  33  83 107 110 111 112 112 113 115 114 114 114 115 115 117 116 116 116 117 116 117 118 118 118 118 119
 126 126 125 125 124 124 125 124 124 123 122 120 119 118 118 114  77  32  31  35  38  45  54  61  64  64  66  71  76  74  73  71  69  69  66  61  53  48  46  43  41  40  38  36  34  32  31  37  44  48  58  68  74  78  82  83  86  89  93  92  83  74  54  44  34  31  59 101 109 111 111 112 112 112 112 112 113 113 113 113 115 115 114 115 115 114 115 117 116 117 116 117
 125 125 124 124 124 124 123 123 122 122 119 119 119 117 115 112  86  53  31  30  34  42  48  55  58  58  64  70  77  78  75  72  67  68  66  63  57  53  53  50  47  48  46  45  39  39  42  49  54  57  64  70  76  80  83  83  85  91  92  89  78  68  48  37  31  39  95 105 109 110 108 110 110 110 111 110 110 110 109 110 111 112 112 112 112 113 116 116 116 116 118 117
 125 124 123 122 123 124 122 120 119 119 118 119 117 116 115 110  86  65  44  31  31  35  38  42  48  53  62  69  75  77  76  73  70  70  68  66  67  66  65  64  63  65  64  64  63  65  71  76  81  82  81  79  79  81  82  84  88  91  93  88  75  60  47  32  33  69  96 103 105 108 107 106 109 109 110 110 110 110 111 110 111 112 113 112 112 114 115 114 114 116 117 117
 123 123 122 121 120 120 119 118 118 117 117 116 116 115 115 110  88  71  62  34  27  29  30  35  46  56  59  66  73  75  78  74  71  67  62  67  72  75  74  73  71  71  70  69  70  73  74  79  85  85  87  86  83  83  84  85  90  91  91  82  68  50  37  28  42  65  72  77  81  87  93  95 101 103 106 108 109 109 110 111 111 111 112 112 112 112 114 113 114 115 116 116
 122 122 118 119 119 118 117 117 117 118 116 116 115 113 112 109  88  70  60  48  26  26  27  29  40  50  55  62  68  71  75  74  70  68  63  69  74  73  72  69  68  70  69  67  68  68  69  76  80  81  84  88  89  85  85  85  86  83  82  73  56  43  31  31  52  61  63  63  64  63  62  65  72  79  87  92  96 101 101 105 108 109 110 111 111 111 112 113 113 113 116 116
 118 118 119 118 117 116 116 115 116 116 115 114 112 110 104  84  76  70  65  61  48  26  25  28  30  40  49  55  60  66  72  73  70  69  68  68  72  69  66  67  63  63  63  62  62  64  67  72  75  76  81  84  87  86  86  86  81  77  73  63  48  36  32  42  33  56  62  62  64  66  62  60  60  62  66  68  71  77  80  86  90  92  96 100 101 101 103 108 109 111 111 112
 118 118 120 117 116 116 114 113 114 112 109 105  94  72  41  28  52  69  66  65  59  38  26  27  31  35  41  52  52  61  68  70  70  68  67  68  67  64  60  59  56  55  55  55  56  57  59  65  71  73  76  80  85  85  82  77  74  67  60  48  36  32  49  56  18  22  44  64  62  66  67  66  63  61  61  61  63  63  66  68  70  71  75  79  82  84  85  87  87  88  91  93
 117 116 116 116 116 112 111 106 102  91  76  59  45  26  15  15  45  68  66  65  64  51  32  24  26  27  33  50  48  56  60  63  64  68  67  66  63  59  54  50  50  49  51  52  51  51  54  59  65  69  73  79  80  80  76  71  62  56  47  38  28  28  77  60  17  13  20  48  60  62  66  69  68  63  64  60  60  60  61  62  65  66  66  66  68  71  75  77  78  75  75  74
 114 112 112 111 107  99  83  72  59  55  44  25  15  11   9  10  44  66  66  64  63  60  51  32  22  25  33  44  46  48  51  57  60  66  65  62  61  58  53  52  50  50  50  49  50  50  53  53  56  64  71  76  74  70  68  62  53  45  42  29  26  54  95  62  17  12  12  22  51  60  63  64  66  63  63  63  63  63  60  61  60  60  64  66  65  68  70  69  68  68  66  65
  95  89  84  81  72  64  57  49  48  41  18  10   8   9   9   9  48  66  65  63  62  61  58  51  28  24  29  40  43  46  47  50  53  56  57  60  57  55  52  51  50  50  47  45  46  48  51  52  54  57  61  64  62  54  50  54  47  41  35  28  39  87  97  64  20  14  12  12  30  59  60  61  63  61  63  64  63  63  62  60  61  61  63  64  62  64  64  64  65  65  64  62
  67  68  62  58  56  54  47  44  42  18   9   7   7   7  14  33  62  66  65  63  61  62  61  58  41  26  25  33  39  46  42  42  42  49  52  55  54  51  48  49  47  48  47  41  42  46  48  49  49  49  52  54  52  44  44  49  43  35  30  36  78  92  98  77  30  17  12  11  13  48  59  56  62  61  60  61  59  59  61  59  59  59  61  63  62  63  63  61  63  63  62  61
  54  56  56  54  49  46  40  39  31   8   8   7  11  20  40  60  66  66  66  64  64  62  62  61  52  33  21  26  34  41  40  37  40  45  46  50  50  48  46  47  43  46  47  43  41  40  40  42  43  39  40  43  40  37  40  42  38  29  28  68  88  94  97  90  45  24  14  12  11  31  57  56  60  62  59  58  60  60  60  58  57  57  59  59  60  61  62  58  59  59  60  61
  50  49  51  45  44  41  38  38  22   8  10  16  26  42  59  65  68  67  65  65  64  63  64  60  58  50  27  23  29  35  35  32  35  39  39  42  45  42  40  42  41  43  43  41  38  35  36  35  34  32  35  38  35  37  35  34  30  26  50  81  92  96  98  92  69  32  19  13  11  23  53  53  58  60  62  60  57  58  60  58  59  58  58  59  60  59  60  60  60  60  59  60
  51  50  46  45  39  36  38  38  17  12  19  29  42  55  65  67  67  66  66  66  64  63  64  62  62  57  45  25  24  27  30  31  28  32  35  38  37  35  33  34  35  38  38  36  33  31  29  29  28  26  30  34  32  36  31  28  24  43  72  88  92  96  98  96  85  40  23  14  12  22  50  52  55  58  62  61  57  56  57  57  56  57  58  59  57  58  60  59  58  60  59  58
  51  50  44  43  37  34  38  38  14  18  28  40  52  63  68  70  68  66  66  66  65  64  64  64  62  60  54  34  21  21  26  29  26  30  31  33  30  27  28  32  31  32  32  30  29  27  25  24  24  25  27  26  29  30  27  25  37  67  82  89  93  96  96  96  93  53  29  15  12  24  48  49  52  56  60  58  57  55  53  54  56  55  56  57  56  55  60  60  60  59  56  57
  46  47  40  41  35  34  37  35  15  23  35  44  59  65  68  67  67  65  66  66  65  63  63  63  62  61  60  51  31  19  25  25  23  25  28  30  26  25  26  29  29  29  28  26  26  25  23  23  23  25  25  25  26  27  23  30  64  79  87  92  96  97  98  96  94  60  32  18  13  26  49  50  51  58  60  57  59  53  54  56  56  53  52  55  54  56  58  60  60  59  56  58
  44  45  43  40  35  36  38  35  17  27  39  48  64  67  69  69  68  67  67  67  65  64  63  61  62  62  62  59  52  34  22  22  21  23  24  24  26  26  24  24  24  22  23  21  22  23  20  20  22  23  24  24  22  24  27  60  78  82  87  92  95  96  98  96  94  68  35  21  14  32  46  48  53  55  59  59  57  53  54  56  54  53  57  57  56  58  59  59  59  60  58  57
  45  44  40  38  34  36  36  38  21  31  42  54  66  68  69  68  67  68  67  67  64  65  64  62  62  61  61  61  57  52  42  22  17  19  20  22  23  21  19  20  22  19  17  18  18  17  15  18  20  21  20  20  22  37  59  76  80  84  88  92  96  96  97  95  94  71  37  24  16  39  46  48  51  56  59  56  54  51  51  53  53  54  57  58  56  58  57  60  58  59  59  57
