P2
# Generated by OpenCV 3.4.0
92 112
255
 170 171 171 171 172 172 173 173 173 173 173 177 176 174 176 176 178 178 177 177 177 178 178 177 177 174 158  78  62  53  38  32  40  49  57  43  43  57  49  49  54  66  74  86  86  97 121 152 164 172 171 173 175 174 176 177 180 181 180 181 180 183 182 183 184 182 182 183 184 183 184 182 183 183 182 182 182 181 182 183 183 182 182 182 182 183 182 181 181 181 182 181
 170 170 171 171 173 173 173 175 173 173 173 175 176 176 176 177 177 177 178 177 177 178 177 177 175 156  71  59  51  42  31  35  44  44  34  30  33  47  57  53  58  61  58  57  57  59  71  86  99 102 116 105 102 100 104 121 153 171 174 178 182 183 184 183 182 183 183 184 183 183 183 183 184 183 182 182 184 182 182 182 182 183 182 182 182 182 182 181 180 182 182 181
 170 170 171 173 172 173 173 173 173 175 175 173 175 176 176 176 176 176 176 174 172 173 171 167 122  64  55  46  35  33  28  35  36  33  29  29  32  40  39  46  49  45  41  41  45  44  48  53  62  71  77  81  85  77 109 123 108  90 112 163 178 180 181 181 183 183 184 184 184 183 185 183 183 182 183 183 183 182 182 182 183 182 182 183 182 182 183 182 181 180 182 182
 171 171 170 172 172 173 173 171 172 175 174 173 174 175 177 174 175 175 171 170 165 154 126  81  58  52  48  35  29  30  26  29  29  28  26  28  29  30  32  36  40  34  32  33  36  37  38  43  52  55  54  65  72  60  69  99 134 154 139 106 131 173 173 178 181 182 182 184 183 183 183 183 183 184 182 183 182 184 184 183 184 184 184 183 182 182 183 182 182 181 181 181
 171 172 174 172 172 173 173 171 173 174 173 174 173 173 172 170 166 159 145 131 125  98  68  51  48  50  38  30  29  29  27  27  25  25  25  27  26  27  29  28  29  30  29  29  32  33  31  32  35  34  48  50  45  52  44  53  63  68  74  95  87  93 163 175 177 180 182 183 184 184 183 183 182 184 183 184 183 182 183 182 183 183 183 182 182 182 182 182 182 183 182 182
 170 172 173 174 172 174 172 172 171 174 172 170 170 169 160 143 128 106 103 101  83  58  44  45  48  47  35  27  27  29  28  25  24  23  23  23  24  26  25  24  27  28  26  27  29  28  27  28  28  30  36  34  32  36  46  50  54  64  91  94  86  75  82 135 170 178 179 183 185 184 182 183 182 182 182 182 183 184 184 183 181 181 182 182 182 183 182 182 182 182 180 180
 170 170 171 173 173 171 171 172 173 173 172 163 157 129 108  96  97  95  83  69  46  38  36  40  48  47  31  26  25  28  28  24  24  22  22  23  23  23  25  23  25  24  25  27  27  28  26  27  27  29  28  27  30  33  36  39  36  40  54  57  66  73  70  80 110 152 179 181 182 185 184 183 183 183 183 182 182 182 183 184 182 181 182 182 182 182 183 182 181 181 181 182
 171 171 172 172 173 172 173 174 173 170 165 126 106  89  83  80  95  82  59  41  34  32  33  42  51  37  30  26  25  27  28  24  24  23  22  21  20  18  24  21  24  18  20  26  27  26  24  25  28  30  29  24  27  30  30  34  33  36  45  53  60  63  65  62  79  98 141 178 182 183 183 184 183 184 183 184 184 181 182 182 183 182 182 183 182 182 182 182 182 181 182 181
 171 171 172 171 173 172 173 170 170 167 123  90  76  74  78  92  87  59  41  32  30  33  37  44  38  31  28  24  26  26  30  23  24  25  23  21  19  20  20  20  21  17  22  22  21  18  18  21  21  22  25  33  30  26  27  29  36  36  41  54  68  71  68  62  69  96 114 143 175 181 182 182 183 182 182 182 182 182 182 182 182 182 182 182 181 182 183 182 181 182 181 182
 172 172 172 171 173 171 171 163 157 147  84  64  61  62  68  72  66  49  37  29  31  32  38  34  30  28  29  25  26  26  27  25  22  20  22  23  21  19  19  22  21  18  20  20  19  18  20  23  19  19  18  22  26  29  26  26  32  36  35  43  53  59  65  65  67  71 118 118 144 178 182 182 183 182 183 183 183 183 182 183 183 182 183 183 182 182 183 182 182 182 181 181
 172 172 171 171 173 171 172 168 148 121  72  58  59  61  60  53  56  53  37  29  30  30  32  28  25  24  28  27  25  26  26  28  26  21  23  20  21  20  19  20  23  19  20  20  19  20  19  21  19  19  18  20  19  22  27  25  27  35  34  38  44  49  52  59  66  67  96 129 117 146 178 182 182 182 183 181 182 183 183 183 182 182 182 182 182 182 182 182 180 181 182 182
 172 172 172 173 172 171 173 171 155 107  65  40  39  44  52  55  47  54  50  39  32  33  30  27  25  25  28  30  27  28  26  29  31  23  24  24  23  22  21  19  23  21  18  18  20  25  20  21  21  20  20  23  20  20  23  26  26  29  33  38  43  46  48  53  60  66  77 109 129 122 159 179 182 181 181 181 182 185 185 183 183 184 184 183 182 182 182 184 182 181 181 181
 173 171 172 172 171 170 171 170 154 120  65  42  31  30  37  37  43  46  46  43  44  39  31  29  30  28  29  30  28  28  29  28  31  29  27  25  23  23  23  20  20  24  21  18  19  24  25  22  24  21  18  22  18  20  21  24  33  33  34  38  40  42  43  48  53  57  67  82 120 121 128 167 180 182 182 181 182 184 182 181 182 184 185 182 182 182 182 181 181 181 181 182
 172 172 171 172 170 172 170 168 161 133  72  43  32  27  27  30  34  36  39  40  34  32  28  26  25  23  26  29  29  27  29  30  28  29  30  30  29  27  25  23  23  23  22  22  23  24  29  23  23  19  17  22  19  20  21  24  30  43  34  33  32  35  40  43  48  54  62  73  89 108 132 141 175 180 181 182 182 183 184 182 182 183 183 181 182 181 182 181 182 181 181 181
 171 173 171 171 170 172 170 165 161 140  77  56  35  29  26  24  26  32  38  42  41  35  32  29  27  25  26  29  29  29  29  28  29  29  29  28  26  29  29  30  29  25  26  26  23  23  23  28  24  21  19  23  23  24  22  24  27  29  34  27  30  32  36  40  43  49  56  68  65  91 115 135 162 178 183 184 185 182 182 182 183 182 184 182 183 182 181 180 182 182 181 181
 171 174 172 172 174 174 170 165 157 148  92  65  43  33  28  26  24  27  28  32  42  48  45  38  30  29  27  30  29  29  29  30  30  30  31  31  29  28  28  29  29  31  30  28  27  26  26  30  29  25  24  24  23  20  20  20  23  22  26  30  29  31  34  39  43  46  52  62  66  64  76 118 157 169 181 183 184 184 183 183 185 184 184 182 183 182 182 181 182 182 182 182
 172 174 174 173 172 172 171 170 160 149 112  75  50  37  30  29  28  29  27  27  26  33  45  50  42  39  36  32  32  30  30  32  34  31  31  31  34  33  33  33  36  37  35  32  32  31  32  36  38  31  28  27  23  22  20  19  19  20  18  25  27  27  34  40  44  49  52  59  60  62  66  86 138 169 175 182 182 183 183 182 184 183 183 182 184 182 182 183 183 182 183 183
 176 176 177 175 173 172 172 172 167 152 123  83  61  42  33  31  30  31  28  28  28  29  33  36  43  45  41  38  37  34  32  32  34  35  36  36  37  36  36  40  42  40  42  40  43  44  45  47  45  42  35  32  28  27  24  24  22  20  20  19  25  25  28  35  44  48  50  53  58  61  62  69  97 152 177 179 180 182 185 183 185 184 184 184 182 181 184 183 185 183 183 183
 175 174 173 174 174 174 174 176 171 156 129  87  74  48  39  34  34  35  32  28  28  30  30  32  38  39  41  42  41  39  38  41  42  45  47  49  51  51  51  50  50  50  50  51  57  64  65  66  61  57  51  44  39  34  30  27  26  22  20  19  20  23  25  32  38  44  46  49  53  60  61  65  76 101 155 175 180 181 184 184 185 184 184 185 184 184 184 183 182 185 184 184
 176 174 174 177 177 177 174 176 176 168 144  92  70  54  46  39  36  35  33  30  29  29  29  28  30  35  36  40  43  45  48  54  61  71  71  75  74  75  75  63  60  69  69  70  72  78  82  81  80  72  65  59  52  47  42  36  32  27  26  22  22  24  25  26  30  34  42  48  52  53  60  65  70  83 112 154 175 180 183 184 185 184 183 185 185 184 183 183 182 183 183 183
 175 175 176 177 177 177 175 177 175 170 166 118  68  60  45  41  35  35  34  31  30  30  30  30  30  33  34  42  48  56  68  77  83  89  87  90  91  91  91  87  85  88  87  85  88  86  88  86  85  84  78  71  67  61  55  48  42  35  31  26  24  24  26  29  29  32  36  41  47  51  54  62  69  80 104 139 168 179 183 184 185 185 182 183 182 184 185 185 184 184 184 183
 178 177 177 177 176 177 178 176 172 172 170 155  80  62  51  38  38  38  34  31  30  29  30  30  32  35  43  53  65  78  87  91  96  98  97  98  98  98  98 100  99  98  97  95  94  92  90  89  86  84  84  80  78  73  66  60  51  45  40  33  30  26  26  29  32  34  30  36  46  47  50  53  60  74  89 121 159 174 180 183 184 185 185 185 183 184 184 184 185 183 185 183
 176 177 178 176 178 177 177 177 174 173 171 157 118  64  57  48  43  41  36  34  33  30  34  33  37  48  61  72  83  91  96  98  99 100 102 101 103 104 104 103 102 101 100  98  98  96  96  96  92  88  87  84  82  81  79  73  64  56  48  42  35  30  26  24  24  29  36  37  41  49  53  52  57  66  82 100 149 171 181 184 185 186 186 186 184 185 185 184 184 183 184 182
 178 177 178 178 179 179 178 178 175 173 171 165 134  96  61  47  41  39  35  30  31  30  34  39  52  69  83  88  95  98 100 100 100 102 104 105 106 107 107 106 106 106 100 100  98  98  97  97  96  93  89  88  84  83  83  82  75  67  59  50  44  38  31  28  25  24  26  35  34  42  53  60  61  65  78  89 110 157 178 183 186 186 186 186 184 186 184 183 184 185 184 184
 178 179 179 178 179 179 178 179 177 176 170 162 132 113  65  48  44  40  37  34  33  34  43  56  78  91  96 102 103 104 103 103 105 104 107 107 107 110 109 109 108 106 104 104 104 103  99  97  98  95  94  91  90  86  87  84  82  76  70  60  52  45  40  34  30  28  25  26  37  43  48  54  61  64  75  89 101 140 176 183 187 186 186 186 184 186 186 186 185 185 185 185
 178 179 179 179 179 179 179 179 175 174 171 164 126  79  56  51  46  40  35  33  34  40  58  79  94 106 110 110 109 107 107 107 108 108 109 107 108 109 109 110 108 108 108 109 108 104 100 100  99  97  96  94  94  92  90  90  88  83  77  70  60  53  48  41  37  32  29  26  28  39  49  53  56  63  72  86  99 134 167 180 186 185 185 185 186 187 186 187 185 185 186 184
 179 178 178 180 179 179 179 179 177 171 164 149  89  64  54  48  42  38  33  34  36  52  77  93 107 115 117 114 113 112 112 111 112 110 107 107 109 109 108 110 109 111 110 109 108 107 104 101 101  98  97  98  96  95  89  93  94  90  84  77  69  60  54  48  43  38  34  30  29  34  42  51  55  62  67  75  86 114 157 176 185 186 185 186 187 186 187 186 186 187 186 185
 180 179 180 179 180 180 179 180 177 169 146  99  69  54  48  41  38  35  35  35  43  65  85 102 114 119 118 116 117 114 112 110 110 112 112 112 110 108 110 110 111 109 112 110 108 108 106 104 103 101 100 100  98  99  96  90  96  95  92  86  77  70  64  57  51  47  41  35  33  30  35  43  52  56  66  72  79  94 142 175 184 186 187 187 186 186 187 186 186 186 186 185
 180 180 181 180 180 180 181 178 175 160 112  74  58  47  43  37  36  35  34  39  59  76  92 107 116 119 118 118 118 114 114 112 113 111 114 112 112 110 109 112 112 113 114 113 111 111 109 112 107 104 103 103 100 101 100  94  95  99  94  90  87  81  74  66  59  54  50  43  38  33  33  40  50  54  63  71  74  82 116 167 182 186 186 186 186 187 187 186 187 186 186 185
 180 181 180 181 180 180 179 177 169 138  81  60  49  43  39  37  36  35  38  49  76  87  99 111 115 116 116 118 115 113 114 113 114 114 112 111 111 113 113 113 114 116 114 115 114 110 109 110 108 104 102 104 102 102 101 101  98 100  98  96  92  89  82  76  68  61  57  52  45  40  31  34  45  53  58  65  68  77  92 136 175 184 186 186 188 187 187 185 187 186 185 184
 180 181 181 182 180 179 180 177 160  98  69  55  43  42  38  37  35  34  40  64  89  95 104 113 118 114 115 117 116 115 114 114 114 113 113 114 115 114 114 112 115 115 115 115 114 113 114 110 109 106 105 107 104 103 103 102 102 102 102 101  98  95  88  83  75  72  65  61  52  43  34  31  35  47  52  56  68  75  82  88 154 181 186 187 187 187 187 186 186 186 186 187
 181 182 182 181 179 180 179 173 130  79  67  51  42  42  37  36  35  36  50  79  99 102 110 115 117 114 115 116 117 114 115 115 117 116 116 114 115 115 114 114 115 114 114 115 114 114 113 112 110 107 106 105 103 103 103 103 104 104 105 105 103 101  98  89  83  77  71  68  61  49  39  29  30  39  49  53  59  71  80  91 115 170 185 187 187 187 188 188 186 187 186 187
 181 182 183 182 182 182 179 164  94  72  61  43  41  41  36  38  38  42  58  90 106 110 114 117 117 117 115 116 118 117 117 117 117 117 117 115 116 115 115 116 116 118 116 112 116 115 115 114 112 110 109 109 107 108 107 108 107 108 107 107 108 106 103  97  90  84  80  74  70  58  43  32  29  35  46  51  57  66  74  88 123 166 183 186 187 187 186 187 188 187 186 186
 184 184 183 182 182 180 176 143  79  67  54  40  42  38  36  37  40  45  67  97 107 113 114 115 116 116 117 118 120 121 120 121 119 120 118 119 118 116 117 116 117 119 121 114 115 115 115 116 112 111 113 115 112 112 112 110 110 112 111 110 112 110 109 106 100  94  90  82  75  66  46  36  31  33  45  50  54  62  71  85 115 160 183 187 187 186 186 187 187 186 187 186
 182 184 183 182 181 180 175 125  73  67  50  42  42  37  35  37  43  54  77  98 108 114 114 115 116 118 118 119 122 125 123 123 121 122 122 121 121 119 117 113 115 117 121 117 116 113 116 113 113 114 116 117 115 116 111 112 112 113 112 116 116 116 114 114 109 104  95  92  82  73  54  39  35  33  45  52  52  58  65  72 101 143 176 185 186 187 187 187 188 188 187 186
 182 183 183 182 180 181 169 104  70  63  46  43  41  34  36  41  46  58  83 100 108 113 114 114 115 118 119 120 121 122 120 120 118 116 120 121 120 119 117 116 117 118 124 119 115 113 112 116 118 119 116 118 118 116 115 112 112 112 115 117 120 121 123 124 120 115 104 100  92  80  60  42  38  38  43  53  51  54  62  69  84 121 169 181 186 186 187 187 186 188 188 187
 183 182 182 181 182 181 162  95  66  59  49  43  39  36  39  41  46  62  86 102 107 111 114 112 113 116 116 119 120 117 116 117 116 116 117 117 118 118 117 116 115 116 120 121 116 115 114 116 119 118 118 120 117 116 113 112 110 110 116 119 122 125 128 129 127 124 117 110 104  90  69  48  37  39  45  53  53  52  55  65  77  96 146 178 186 188 187 187 188 187 187 186
 183 183 184 182 184 179 159  85  63  57  48  42  36  38  38  42  49  64  88 100 105 109 112 112 112 113 113 115 112 112 110 110 108 109 110 111 115 116 116 114 118 118 119 121 117 116 115 118 120 119 117 115 111 108 107 107 110 108 112 122 123 126 130 132 132 130 126 118 111 100  83  56  41  38  45  53  55  54  52  61  72  97 143 163 181 186 187 188 188 186 187 186
 184 184 185 184 182 178 151  75  58  56  47  40  39  37  39  42  48  66  89 100 105 107 108 110 110 108 110 107 103 102 104 103 103 102 103 105 108 110 114 113 116 119 117 121 121 120 116 116 116 116 109 106 104 102 102 103 104 106 110 118 123 128 136 136 136 134 134 130 120 109  96  66  46  40  46  54  54  54  54  54  69  87 143 169 180 185 187 188 188 187 186 187
 182 183 184 183 182 175 151  74  56  52  45  39  36  36  38  40  48  70  93 101 104 107 108 109 107 106 102  99  98  96  93  93  94  93  96 101 103 105 106 106 110 112 112 113 114 112 111 109 107 106 102  99  98  96  95  99  98  98 102 109 112 120 130 138 141 140 139 135 128 119 103  80  52  40  45  55  54  55  51  52  57  74 122 174 184 187 187 186 187 188 187 186
 182 183 185 184 182 172 160  79  51  52  44  38  38  36  33  36  48  76  94 100 104 108 108 110 108 104 100  97  96  91  86  85  85  86  89  92  98  99  98 101 104 102 100  99 104 104 105 103 103  99  96  91  90  88  89  90  91  92  92 103 107 113 124 131 136 141 139 140 136 128 112  91  58  38  37  54  58  56  55  53  53  63  91 163 181 184 185 188 187 187 187 185
 183 181 183 184 181 173 160  90  52  50  44  42  38  32  30  33  52  82  96 100 105 106 107 108 103  97  93  88  84  80  78  75  80  78  79  82  84  86  88  88  93  95  95  99  98  97  96  92  91  86  86  84  82  77  75  75  76  83  83  88  96  97 106 111 115 127 127 131 137 131 121 102  71  42  32  48  61  53  55  54  52  54  78 137 178 183 187 187 187 186 187 185
 181 183 184 182 181 174 168 102  54  50  46  43  34  30  30  34  57  86  97 101 102  99  97  92  83  75  72  62  55  56  57  63  64  61  64  67  74  76  81  81  82  83  85  88  89  90  88  85  82  77  74  69  67  64  58  57  54  57  58  59  64  70  73  77  90  91 106 115 122 123 122 109  80  47  33  37  62  54  53  57  54  55  79 129 174 184 187 186 186 187 187 185
 181 182 183 181 180 177 172 126  55  49  45  41  34  29  27  34  63  86  95  96  88  82  71  63  54  47  43  42  38  35  34  36  39  41  48  55  61  65  70  73  75  75  78  83  85  84  78  73  73  65  62  58  55  49  48  40  37  39  37  36  38  43  46  50  57  67  77  89  98 102 108 110  87  52  34  32  52  55  50  54  58  53  73 122 168 182 186 187 184 186 187 185
 181 182 183 181 182 181 175 141  55  48  48  40  32  28  26  34  67  85  86  75  63  60  60  51  41  36  31  33  30  29  29  29  28  29  32  37  42  48  55  60  64  72  78  80  80  79  71  63  61  56  53  48  42  39  35  31  30  30  29  27  28  30  36  39  43  54  64  75  85  89  92 102  92  60  37  30  45  57  50  51  59  56  64 124 162 179 185 185 185 187 185 184
 182 183 182 182 183 182 178 160  67  50  48  39  31  26  25  36  68  81  67  56  49  49  47  42  38  34  34  33  34  31  30  28  28  28  28  30  33  37  43  48  56  64  74  76  77  73  65  58  54  48  44  36  34  32  28  28  36  39  43  41  40  42  42  46  51  57  64  63  65  68  71  76  81  63  36  29  37  52  51  48  57  63  67 130 162 177 185 186 187 184 186 185
 182 181 182 183 183 183 179 172  99  55  49  39  31  25  26  33  50  43  38  37  36  37  33  36  34  34  34  39  40  44  44  45  46  49  46  42  43  41  42  47  52  62  70  74  77  73  63  55  50  45  39  36  37  47  42  40  37  34  29  31  32  32  33  33  36  36  38  40  35  33  30  30  31  32  28  27  30  51  55  50  54  65  77 138 170 181 183 186 186 184 186 183
 181 181 182 183 183 183 181 177 115  64  52  46  32  28  27  26  24  30  39  48  50  52  55  55  62  59  61  60  58  58  54  50  45  44  41  37  34  31  37  43  51  59  68  72  74  70  64  55  43  34  31  35  35  38  41  43  45  46  47  46  48  49  48  50  55  63  68  72  74  79  72  66  44  28  24  21  23  42  58  52  53  62  87 152 177 183 185 185 185 184 183 184
 182 182 182 182 182 183 182 180 149  69  58  45  25  23  24  30  42  41  62  60  58  59  61  59  65  69  68  68  65  60  54  51  50  51  51  45  46  50  47  32  26  37  46  51  48  46  39  29  25  36  53  49  43  40  39  39  41  43  45  48  50  54  56  63  66  75  77  76  76  75  72  80  80  51  29  23  22  38  60  49  51  62 107 159 181 182 182 184 184 185 184 183
 182 182 181 182 183 184 182 183 169  85  63  48  23  22  26  41  33  40  59  54  60  62  61  62  63  63  63  59  56  49  48  45  44  45  46  45  44  47  53  53  26  24  22  28  29  27  26  27  29  58  54  44  39  38  39  38  39  36  39  41  45  48  51  56  65  71  78  77  75  73  67  72  81  56  34  30  26  32  58  49  51  59 112 167 182 183 182 184 184 184 184 183
 183 181 181 181 182 183 183 182 175 112  66  50  21  22  27  42  30  42  59  58  63  64  62  52  47  51  56  62  61  55  46  39  37  37  40  42  42  42  46  52  30  24  22  28  28  27  25  26  36  57  46  39  38  38  36  33  32  34  40  48  55  53  52  49  46  48  54  64  69  68  63  63  61  50  37  34  28  35  60  49  51  58 108 167 182 184 183 183 183 183 184 183
 182 182 181 182 182 182 182 182 177 133  69  56  25  21  28  40  27  42  59  63  68  63  50  51  60  57  51  41  36  35  36  37  38  38  38  41  42  45  48  52  30  28  27  40  52  41  31  27  37  58  43  38  37  38  35  36  38  39  35  33  33  33  34  41  50  54  54  47  57  65  60  55  52  47  40  28  25  37  55  45  50  61 118 167 182 183 183 183 183 182 182 183
 180 181 181 181 182 183 183 182 180 165  80  51  36  24  28  42  29  44  62  69  70  57  61  57  47  41  42  32  34  30  32  31  42  42  46  49  55  61  62  66  29  26  40  86  98  89  53  33  35  70  49  43  45  45  43  41  46  51  35  36  35  32  32  45  47  43  50  54  47  57  59  58  60  55  39  25  27  34  40  33  50  74 145 174 182 183 183 184 183 183 183 183
 180 181 182 182 182 182 182 182 180 172 102  52  38  27  28  47  38  58  67  69  66  60  55  43  51  67  68  41  38  38  36  39  58  51  43  49  67  73  72  66  28  25  74 106 117 111  81  34  31  73  62  54  56  51  45  49  58  60  36  34  30  29  30  51  61  54  39  42  49  56  67  72  78  76  38  27  36  42  46  35  48  91 152 176 182 183 182 184 182 182 182 182
 180 181 181 181 182 183 181 181 181 177 144  55  37  33  28  50  49  71  71  71  62  52  44  44  57  76  75  51  41  42  44  53  66  56  55  62  75  73  70  48  28  30 104 124 143 137 115  51  32  62  77  69  66  64  58  57  59  60  49  43  39  37  39  60  66  61  57  53  54  67  79  90  99  96  32  36  46  45  53  39  57 110 163 177 182 182 182 183 183 182 182 182
 181 180 181 181 181 182 182 180 181 179 169  73  43  34  28  51  59  86  83  75  64  61  61  56  58  61  64  64  55  59  65  65  69  66  68  73  80  74  78  37  26  47 119 136 145 139 129  67  30  42  87  78  74  75  73  64  62  59  57  56  55  53  54  58  65  73  78  81  86  94 101 113 117 104  31  46  53  51  47  45  63 131 169 175 181 182 182 182 182 182 182 182
 181 180 180 182 181 182 181 181 181 180 172 109  54  39  29  50  76  96  94  85  76  72  69  63  59  62  62  62  64  63  62  60  61  62  67  76  83  84  83  27  28  61 124 140 147 144 131  86  29  28  85  94  86  77  72  62  53  50  48  51  51  50  51  55  67  76  86  89  97 108 119 130 130  97  36  68  67  52  53  54  70 138 171 176 182 182 182 182 182 182 181 182
 181 181 181 181 180 182 181 181 180 180 175 146  72  46  34  40  81 101 103  96  85  76  71  65  64  63  61  59  57  58  58  62  69  73  81  87  91  94  64  29  29  82 122 137 148 145 136 106  39  30  58 105 104  93  84  73  62  53  49  50  49  49  52  53  61  69  80  89  97 116 127 134 133  79  30 101  81  55  58  70 104 159 176 181 182 182 183 183 183 182 181 182
 181 180 181 180 180 180 181 182 182 180 176 163  93  55  49  33  76 103 108 103  93  81  70  63  62  61  57  57  59  61  64  71  77  83  89  89  92  96  36  28  44 103 123 133 145 146 138 117  54  30  31 100 109 105  98  91  84  76  67  62  55  52  53  55  61  74  86  95 104 116 126 133 116  50  48 116  92  58  60  79 143 171 177 181 182 182 183 183 182 181 181 181
 180 180 179 180 181 181 181 183 182 181 179 169 112  60  78  31  46 115 110 106  98  86  77  74  71  70  68  67  68  71  75  79  84  84  90  87  89  50  30  34  67 110 126 131 147 147 139 127  86  38  29  38  90 107 101  93  89  88  87  84  79  73  74  76  79  84  94 102 109 119 115  88  44  37 105 123  99  66  61  80 156 175 178 180 182 182 182 182 182 181 181 181
 180 180 180 180 181 182 181 181 182 182 181 173 128  65  84  86  47  32  58  74  83  86  90  86  81  80  76  75  78  82  84  88  84  82  70  60  35  32  40  52  91 116 130 139 151 154 144 130 109  68  49  39  27  41  65  69  77  81  81  83  84  78  79  81  82  84  85  82  71  54  37  42  68 118 130 124 105  67  59  77 158 176 180 182 182 181 182 180 180 180 181 180
 180 180 180 181 181 181 181 181 181 182 182 178 143  67  88 100 106  96  70  53  38  31  31  39  47  47  46  51  50  47  45  37  28  32  36  47  56  61  56  80 106 122 130 140 152 150 145 138 124 104  70  75  75  60  45  38  36  36  35  38  38  39  38  40  41  40  47  56  65  84 108 126 135 134 133 127 105  67  56  82 163 175 178 180 181 181 182 180 180 180 180 179
 180 181 180 180 181 180 181 182 182 181 181 178 156  86  92 103 110 112 108 105  99  96  83  76  68  67  64  65  66  68  69  76  82  84  77  73  68  62  71  96 109 124 131 134 143 144 144 144 134 120  94  77  86  85  82  83  82  81  85  89  86  87  94 100 105 111 113 118 123 130 133 135 137 137 133 127 110  71  56  87 169 175 178 179 181 181 181 182 181 180 180 180
 180 180 181 181 180 181 181 182 181 181 180 180 166 107  95 105 110 107 107 108 106 103 100  92  87  83  82  81  80  80  78  79  80  79  74  69  62  68  82 103 112 122 128 132 137 140 142 144 142 130 111  87  80  86  76  74  79  83  84  90  92  97 101 107 112 115 118 126 131 136 138 138 135 136 135 128 109  72  60 102 172 176 178 180 178 179 182 181 181 180 180 180
 180 180 180 180 179 179 181 180 181 181 178 179 174 117  95 107 108 105 105 104 103 102 102  96  92  88  85  81  80  79  77  77  77  75  68  64  67  79  95 106 116 124 127 131 136 140 141 144 144 134 122 106  88  85  75  69  72  76  81  84  92  97 102 104 112 117 123 128 131 135 139 136 135 135 135 132 113  76  70 115 171 176 176 178 178 179 179 180 180 181 180 179
 180 180 179 180 179 180 180 180 181 181 181 179 176 130  97 107 109 103 103 101  99 100 101 100  96  93  87  82  81  79  80  81  76  72  69  66  84 104 106 110 118 122 122 125 134 139 133 142 150 145 132 126 118 104  77  67  67  72  78  81  86  90  95 101 108 115 123 128 134 138 141 140 138 135 134 133 114  84  78 132 172 177 177 178 179 178 180 178 180 178 180 179
 180 180 180 181 180 180 181 181 182 182 182 180 173 132  97 110 107 105 103 102 102 102 105 102 101 100  95  92  89  90  90  85  83  78  75  77 106 115 114 114 121 123 122 121 126 130 126 131 149 152 138 132 133 127  94  60  64  72  73  77  82  86  89  96 104 113 119 127 132 137 139 138 137 135 135 133 119  93  84 144 173 177 177 177 178 177 179 179 178 180 180 180
 180 179 180 181 181 180 182 181 182 181 182 182 174 135  97 108 108 104 102 100 104 105 104 108 108 107 104 102 100  99  98  94  86  80  75  83 105 108 104 106 111 114 118 119 120 119 117 119 128 138 125 121 127 132 113  64  63  72  76  84  88  86  92  96 103 110 115 122 128 133 137 134 138 134 135 134 121  97  95 151 172 175 175 176 177 176 177 178 177 179 177 178
 180 178 179 180 179 180 181 182 181 182 182 181 177 142  98 108 105 104 103 103 104 106 106 110 108 106 104 103 101  99  96  91  86  77  75  82  95  97  90  90  94 102 100 103 106 105 106 106 107 107  97  96 105 108 103  71  69  74  78  83  87  90  94  99 107 111 114 119 126 129 131 134 135 133 133 133 122 106 118 155 173 175 176 177 177 176 177 176 177 176 176 176
 179 178 177 178 179 180 182 181 181 181 181 181 178 151  99 109 106 103 104 103 104 108 106 107 103 102 101  98  98  94  92  86  81  79  78  74  78  79  75  73  77  84  86  89  90  91  93  93  89  82  74  76  81  84  82  67  68  71  74  79  81  82  86  90  98 107 109 114 119 125 128 131 133 131 130 131 122 120 139 163 173 176 176 176 177 176 175 175 176 177 175 175
 176 177 176 179 180 178 179 180 179 181 180 180 178 158 105 109 106 105 102 103 107 107 105 102 100  99  97  96  89  89  86  81  80  81  80  66  63  63  59  55  61  69  73  76  78  75  75  77  78  59  46  51  59  66  65  70  71  71  71  74  75  77  80  84  91  97 100 104 110 118 123 126 128 128 128 130 121 118 139 165 172 174 176 176 176 175 175 175 176 177 176 175
 178 180 179 178 177 178 176 177 180 180 180 180 177 159 106 107 105 104 102 102 104 103 101 100  98  96  92  91  88  83  81  77  78  84  84  71  57  48  42  36  38  51  60  62  62  63  62  69  63  43  40  40  50  57  60  75  79  75  71  67  67  72  74  78  83  89  95 101 105 111 115 119 122 127 128 131 119 113 141 162 172 174 175 175 176 176 176 176 175 176 175 175
 177 178 177 177 176 177 176 177 178 178 179 179 177 143 103 106 105 102 101 100 100  98  97  97  95  90  87  87  84  80  78  78  81  84  82  75  64  50  39  33  39  45  50  56  53  53  55  60  54  56  52  52  59  67  76  85  88  84  76  68  66  66  66  73  78  85  90  97 100 105 109 114 117 123 126 131 118 111 136 158 169 173 174 174 174 174 176 175 175 175 175 175
 176 176 178 178 178 178 177 178 176 179 179 180 177 147  99 104 102 100 100  97  96  95  93  91  91  86  85  82  80  78  79  77  82  84  82  76  69  64  58  51  47  49  48  49  51  52  53  52  58  69  72  71  74  82  87  92  97  92  84  75  69  66  65  67  68  77  85  90  96 101 105 109 114 118 123 128 121 109 125 146 165 171 172 173 173 174 174 174 174 174 175 175
 176 176 179 177 179 178 177 177 176 177 177 176 175 133  93 103 102  98  96  95  95  90  90  86  86  82  80  76  73  74  79  79  83  86  84  81  77  72  69  66  63  63  57  50  46  44  44  48  60  76  83  80  86  92  98 102 105 102  93  86  80  71  63  60  62  68  77  85  93  99 102 108 114 114 120 127 122 102 100 124 161 169 169 171 172 173 174 173 174 174 174 173
 176 176 176 176 176 178 178 177 176 176 176 177 175 120  89 102  99  96  92  90  89  88  86  86  82  76  75  70  68  73  78  81  85  86  88  87  86  83  79  77  74  69  63  54  48  46  45  48  57  72  87  94  97 103 104 110 112 109 100  93  85  78  68  59  58  62  69  78  89  97 101 104 108 110 116 126 118 101  88 134 164 168 168 170 171 172 172 171 171 172 172 172
 176 176 176 176 178 178 177 176 176 178 178 176 174 144  92 103 100  94  90  86  85  85  83  80  79  76  69  69  69  72  77  79  83  89  90  91  91  91  88  85  78  74  66  59  52  50  50  52  59  74  89 100 105 107 104 114 116 116 110  97  89  82  75  64  55  59  67  75  86  96 101 104 107 112 116 124 117 107 139 161 164 166 167 168 169 169 170 170 170 170 170 170
 176 175 175 174 176 176 176 176 175 176 176 176 176 169 120 103  97  93  88  87  85  83  80  78  74  70  67  69  71  75  77  80  86  93  95  96  96  95  96  90  85  81  71  66  60  54  53  57  64  79  93 103 108 113 116 121 122 118 113 105  94  83  80  71  58  60  67  77  89  95 102 102 102 109 116 123 114 111 155 163 167 166 168 168 167 167 168 168 169 167 168 168
 175 175 175 175 175 175 176 176 176 175 176 176 175 172 127 102  96  91  88  87  84  82  81  76  73  69  67  68  73  75  72  81  88  93  96  98 100 100  99  94  88  82  77  73  67  64  62  68  75  86  97 105 110 113 119 124 123 123 119 109  94  81  75  73  65  65  71  82  90  96 103 102 103 107 114 119 112 114 154 164 165 167 167 166 167 167 167 167 167 168 167 167
 173 174 175 174 175 175 174 175 176 175 175 175 174 172 134 101  95  89  88  86  86  83  80  76  73  71  68  72  73  70  72  80  89  93  96  99  99  99  94  89  84  79  79  76  74  73  76  77  76  74  75  80  88  96 103 110 114 114 111 101  77  67  68  71  70  69  77  86  91  99 100  98 101 101 109 114 109 127 156 162 163 163 164 164 165 165 166 166 166 166 165 166
 172 174 174 174 174 175 174 175 175 175 174 173 175 173 146  99  95  90  88  87  85  82  82  80  76  75  75  72  70  66  64  72  84  90  91  92  87  79  70  63  58  55  57  61  60  65  63  58  56  54  54  56  55  56  59  64  70  78  81  71  48  55  67  72  73  77  80  88  92  94  94  96  99 100 106 112 102 133 155 161 159 160 162 165 163 164 165 164 164 165 166 165
 171 173 172 173 174 173 174 174 172 172 173 172 173 172 153 102  96  88  88  85  83  82  84  83  81  78  75  69  62  55  51  57  70  73  72  63  55  49  49  50  49  49  48  48  47  45  45  47  51  53  57  55  51  47  48  45  46  47  44  52  60  73  78  77  77  80  83  89  93  94  93  93 100 103 104 110 103 138 155 158 158 160 162 162 162 162 163 163 163 162 164 163
 171 173 172 172 173 172 173 173 172 173 173 173 172 170 163 108  91  89  85  82  80  80  84  86  83  81  76  71  64  62  50  40  44  42  38  36  38  38  37  37  38  39  39  42  43  39  38  42  43  43  46  53  64  80  83  77  76  75  84  97 101  91  85  82  81  82  84  88  93  93  92  90 101  99 102 109 100 141 155 157 158 160 160 161 161 162 162 161 161 163 163 162
 170 171 172 172 171 170 172 171 171 172 172 171 171 170 164 114  97  88  82  80  74  78  83  85  85  83  80  78  77  76  70  65  62  51  42  41  45  49  53  53  54  56  53  52  48  48  53  58  66  70  73  78  85  92  90  92  95 101 109 113 108  98  89  86  81  81  84  85  89  90  93  89  94  97 103 108 104 146 155 157 157 158 158 158 160 161 161 160 160 161 162 162
 170 171 170 169 170 170 171 169 170 170 171 171 172 171 168 130  97  89  81  80  73  75  80  82  84  84  82  80  81  82  82  83  85  81  76  70  67  66  69  67  68  71  71  71  68  69  69  72  73  73  70  72  76  81  88  94 102 112 116 113 110 103  95  87  82  81  82  82  84  89  90  98  92  95  99 104 120 148 154 155 156 156 157 156 157 158 159 158 160 159 160 160
 168 168 169 168 168 169 168 169 169 170 168 168 168 169 167 142  98  90  80  79  76  72  74  76  79  81  81  78  82  84  88  90  89  87  86  84  79  77  70  66  65  65  64  64  63  63  63  64  64  65  66  70  75  84  92  98 106 114 116 110 110 106  99  90  82  80  81  80  83  85  87  90  90  93  97  96 132 149 153 154 154 154 153 154 153 155 155 156 158 157 157 156
 167 168 168 168 168 168 168 168 168 169 169 168 169 168 167 152 102  87  77  78  71  70  66  71  76  77  78  78  82  84  87  89  91  90  89  88  83  76  72  70  68  64  63  59  56  58  60  60  62  63  66  67  71  79  90 100 107 109 111 109 109 108 103  91  82  78  78  77  80  80  77  86  89  92  95  96 139 148 151 153 152 154 153 153 153 154 156 154 155 155 156 154
 167 167 167 166 167 168 169 168 168 168 167 167 168 168 167 160 111  85  79  73  69  67  62  69  73  77  78  77  81  83  86  87  88  87  87  87  84  78  73  66  58  54  51  47  46  46  45  48  50  52  54  60  71  81  87  94 100 104 107 107 108 107 101  93  85  78  78  78  78  74  75  79  84  89  88 109 144 150 152 152 152 152 152 151 153 154 155 155 154 153 153 154
 166 166 166 167 166 167 167 167 167 166 167 166 166 167 166 163 144  82  78  71  68  64  62  66  69  73  76  76  79  82  83  84  84  84  86  84  82  78  76  68  63  58  53  51  49  47  47  48  51  53  57  64  70  80  86  87  94  96 101 105 106 102 101  94  86  82  79  77  77  75  75  81  82  84  81 125 146 149 149 152 151 150 150 150 152 151 153 152 153 153 152 153
 165 166 165 165 164 166 166 166 165 166 167 166 165 165 166 164 160  93  74  67  67  66  63  66  70  73  75  77  80  83  83  84  82  83  82  82  78  75  72  69  66  65  64  64  61  59  59  60  62  60  59  63  70  77  84  88  95  98 100 102 106 102 101  96  87  82  79  76  76  77  78  84  82  82  81 136 147 147 148 149 149 149 148 147 149 151 151 151 150 150 149 151
 163 164 163 163 163 162 165 165 163 163 164 163 163 163 165 164 161 124  70  66  64  65  65  69  71  75  77  78  80  81  82  83  82  82  85  82  80  77  73  72  71  72  73  71  69  69  68  67  68  68  68  70  75  82  86  91  94 102 104 103 106 106 102  97  90  85  82  78  79  75  81  86  83  74 107 142 147 148 147 147 149 147 147 148 147 147 147 148 147 147 148 148
 162 162 164 164 162 162 163 163 162 162 162 162 161 161 162 164 161 155  85  64  63  63  65  67  71  72  76  78  80  78  81  82  82  82  84  85  83  80  78  76  78  77  76  77  78  76  77  78  79  78  81  79  81  86  92  94  97 103 109 110 108 108 104  99  92  86  83  81  83  75  76  79  76  74 130 145 147 146 147 146 147 145 144 144 145 145 147 146 146 146 146 147
 160 161 162 162 162 162 161 162 162 161 162 160 160 161 161 161 161 158 115  59  57  55  62  68  70  75  74  78  81  82  82  81  82  84  86  86  86  84  85  84  88  88  90  94  92  93  93  94  96  97  98  96  95  93  97 101 103 103 108 110 108 106 104  99  92  87  82  78  77  75  75  71  62  92 138 144 145 145 145 145 146 145 145 143 140 141 142 144 145 145 145 145
 160 160 159 161 161 161 160 161 161 161 161 161 161 162 161 159 159 158 149  67  51  56  57  62  67  72  76  80  81  82  84  85  88  86  87  88  88  89  91  94  94  96  98  96  97  97 101 100 103 104 106 110 108 103 101 102 104 105 107 110 109 105 103  98  94  88  84  75  74  73  72  63  57 119 138 142 144 144 145 142 143 143 142 141 141 141 140 142 142 142 142 142
 160 160 160 160 159 160 160 161 159 160 161 160 158 160 159 156 157 154 148  89  47  49  52  55  61  68  71  75  78  80  82  86  86  86  87  90  90  93  94  97  97  98  99  98  98  99  99 100 102 105 108 113 111 106 104 104 106 108 107 108 106 106 103  95  92  87  80  77  73  69  64  50  47  64 106 133 138 140 142 142 140 140 140 139 141 140 140 139 139 140 139 139
 156 156 157 156 155 157 159 158 157 158 159 157 157 156 154 154 144 100  51  39  36  40  46  50  56  63  67  71  76  80  80  83  85  84  87  90  94  95  94  96  95  96  99  97  97  98  98 101 101 103 108 112 110 109 108 107 110 110 106 106 106 103 101  94  89  82  78  74  71  65  53  44  34  41  44  50  77 109 132 137 138 139 137 138 138 139 140 138 139 139 138 139
 156 154 154 155 155 154 155 156 156 156 155 155 154 151 127  78  41  41  33  28  26  45  44  47  51  58  63  69  71  74  78  81  83  84  85  90  94  94  94  94  96  94  96  94  91  90  94  94 101 103 107 115 114 110 109 111 110 110 107 105 104  99  94  87  83  75  71  68  64  58  50  61  28  32  38  38  38  38  43  67  96 130 135 137 137 138 138 138 138 139 138 138
 155 154 154 154 154 154 153 154 155 154 152 152 125  73  37  37  34  30  27  24  50  76  55  42  46  51  54  60  64  68  73  78  80  83  86  87  90  92  90  88  90  92  91  89  86  83  86  88  92  96 103 109 113 110 108 109 109 106 105 105 102  94  89  84  77  72  62  60  56  62  61  73  56  25  33  35  35  34  31  34  34  53 103 130 133 133 135 136 134 136 135 136
 153 153 153 153 153 153 151 152 152 146 104  58  35  34  30  28  29  26  25  23  79  85  79  51  40  43  46  52  56  61  66  69  75  80  84  83  85  89  87  83  87  86  86  84  78  77  74  80  84  89  95 100 103 105 103 101 102 100  99  99  94  89  82  75  68  62  57  53  58  87  96  74  71  35  26  33  34  34  29  27  29  34  39  53  82 107 126 130 134 135 132 136
 152 151 152 151 152 151 146 120  81  47  37  33  31  28  26  25  24  22  22  35  83  85  84  72  48  37  36  43  47  49  56  60  66  68  74  76  78  82  81  80  79  79  78  76  69  65  65  72  77  82  86  87  91  95  93  90  92  92  90  90  85  78  74  65  59  56  53  56  76 107 113  77  75  47  23  30  34  34  32  27  27  28  32  35  41  41  48  70  90 113 131 132
 152 151 151 149 140 100  54  36  36  33  29  29  27  25  23  22  21  19  20  45  86  85  82  77  64  50  34  31  34  40  45  48  56  59  66  67  68  72  72  70  71  68  68  67  62  57  59  66  67  70  72  78  80  80  84  80  84  84  83  75  70  67  58  56  54  52  56  79 102 112 114  88  78  55  27  26  28  31  31  28  26  26  28  30  33  34  35  37  37  39  55  94
 149 149 133  81  40  35  34  31  30  26  27  27  25  22  22  20  20  19  20  53  85  84  82  76  71  64  50  33  27  31  35  40  43  48  53  59  57  56  59  63  63  60  57  56  53  52  55  57  59  62  64  67  65  67  69  68  71  66  68  62  55  52  50  48  49  55  75  97 105 113 114  94  79  61  28  24  27  30  28  27  26  26  26  26  31  31  31  32  32  32  35  37
 111  67  36  34  29  27  29  27  26  25  25  24  23  21  20  20  19  19  20  56  86  86  82  76  71  67  60  49  36  29  29  29  31  36  42  47  49  48  46  50  53  52  51  47  48  47  48  50  53  53  54  59  56  53  54  52  58  51  50  44  43  44  48  48  54  71  88  99 106 113 114  95  75  61  31  23  27  29  28  28  27  26  25  27  29  30  31  32  30  31  30  32
  40  36  29  28  26  25  25  24  25  24  25  23  20  20  19  18  19  18  19  60  84  83  81  77  70  66  61  57  50  38  28  24  25  30  33  39  42  38  39  39  42  41  45  41  42  41  42  45  46  43  46  49  51  47  43  40  41  37  35  35  37  41  47  55  70  84  93  98 105 112 114  97  75  63  33  22  26  28  28  27  27  27  25  25  27  28  30  31  28  28  28  32
  30  28  26  25  25  25  24  24  23  22  22  21  19  20  18  18  18  18  19  58  84  82  80  75  71  65  61  61  56  52  44  34  25  25  30  32  33  31  31  34  33  34  39  36  34  35  36  39  36  34  36  38  37  36  33  31  30  29  27  33  36  41  51  68  81  90  92  98 106 112 112  96  73  60  33  21  25  27  26  26  27  28  25  24  25  26  29  30  30  28  27  29
  25  25  25  26  25  23  23  23  22  20  21  19  18  18  18  17  18  16  17  48  83  81  79  75  70  65  63  62  59  55  51  45  34  26  26  27  28  27  29  27  28  28  30  27  28  28  30  29  30  28  28  30  28  28  26  24  25  26  27  33  41  51  68  80  85  90  93  98 106 108 112  90  64  57  31  20  24  25  26  26  26  28  25  23  23  25  27  28  27  28  27  28
  22  20  25  25  25  24  23  21  20  20  20  18  17  17  17  17  17  17  17  38  81  81  78  74  71  67  65  64  61  58  55  51  44  35  27  24  24  23  23  24  23  25  22  22  24  24  27  26  26  25  24  25  25  24  24  24  26  27  31  37  55  68  75  85  88  91  95  98 104 108 110  83  61  50  28  19  21  22  25  26  27  28  26  23  24  24  26  28  27  27  27  27
  21  21  22  22  22  22  21  18  19  19  20  18  18  17  17  17  16  17  16  24  78  81  78  74  72  67  65  62  61  60  59  56  52  44  36  26  23  23  21  23  23  22  20  22  22  23  24  24  24  25  24  25  24  25  25  24  27  29  37  54  67  76  79  86  89  91  96  99 104 104 105  76  58  44  24  19  20  20  23  25  25  26  25  24  23  23  24  27  27  27  27  27
  21  20  21  19  20  20  19  19  19  19  20  18  18  16  16  16  16  16  16  17  68  80  77  72  71  69  66  64  63  61  60  57  55  52  47  36  28  27  25  23  22  20  22  23  21  23  24  24  24  24  25  25  25  26  28  27  30  44  62  68  72  76  79  86  90  91  94  99 102 105  97  67  54  39  21  20  20  20  20  21  24  27  27  25  23  24  25  25  26  27  27  27
  21  20  19  19  19  19  18  18  18  18  18  18  16  16  17  15  16  15  16  16  46  77  79  75  71  67  66  65  65  63  62  58  59  54  52  46  36  30  28  27  24  22  21  23  22  24  23  23  23  22  23  22  25  26  29  34  42  63  70  70  73  78  79  83  86  89  93  98 100 102  87  59  50  34  20  19  20  20  20  20  24  26  26  26  23  23  23  24  26  27  27  27
  18  20  20  18  19  18  18  17  17  18  16  18  16  15  16  15  14  13  15  16  26  74  78  75  69  67  65  65  65  64  64  63  62  56  54  53  46  39  32  30  30  28  26  25  24  24  22  24  23  23  24  24  29  34  38  49  59  68  69  72  74  76  78  83  85  89  91  95  98 100  72  54  41  24  19  19  19  19  19  21  23  25  25  25  24  21  23  24  26  26  26  26
  17  18  19  19  18  17  16  16  17  17  16  18  16  16  14  14  14  14  14  15  14  59  76  75  67  67  67  66  67  67  65  64  63  59  58  54  51  46  40  35  31  31  32  31  30  30  28  28  26  27  28  32  36  41  49  56  62  70  70  71  73  77  81  84  85  87  88  93  96  92  60  53  34  20  18  18  18  19  20  23  24  25  24  22  22  23  21  22  24  25  26  27
