P2
# Generated by OpenCV 3.4.0
92 112
255
 152 156 155 154 155 156 156 155 157 157 157 158 158 158 160 158 159 159 160 160 160 160 161 161 161 163 162 162 162 164 164 161 163 163 162 163 162 164 161 160 161 129  60  52  59  66  73 111 150 160 160 162 163 162 163 163 164 164 164 163 165 164 164 164 164 165 165 165 164 164 164 164 164 165 164 164 164 164 164 164 164 163 163 164 162 163 162 163 164 164 161 162
 155 156 157 157 158 157 158 157 157 157 158 158 158 158 160 160 160 159 161 159 162 162 162 161 162 163 163 162 163 163 164 163 163 162 163 163 163 163 162 161 126  52  51  50  50  54  59  70  87 115 142 159 163 163 164 164 164 165 165 166 165 165 164 164 164 165 164 165 164 164 164 164 165 164 165 165 164 165 164 165 165 164 164 164 163 163 164 164 163 164 163 164
 155 156 157 157 157 156 157 157 158 157 157 158 158 160 160 160 161 160 161 160 161 161 162 162 162 162 162 162 162 163 164 163 162 163 162 162 163 162 160 125  66  60  42  32  36  43  53  62  60  73  86 123 154 162 163 164 164 164 164 165 164 165 165 166 166 165 165 165 165 165 165 164 163 164 162 164 164 164 164 166 164 165 164 165 164 164 164 164 164 164 163 164
 155 156 157 157 157 157 157 158 158 158 158 159 158 160 160 162 161 161 160 162 162 161 161 162 162 161 163 164 164 164 163 163 164 164 162 161 159 156 104  60  54  44  30  30  39  49  54  55  53  51  62  74  89 126 157 161 163 165 165 165 165 165 165 166 165 166 165 165 165 165 165 165 165 165 165 165 164 165 164 165 164 166 166 164 164 165 165 163 164 163 164 164
 158 158 158 157 158 158 158 159 159 158 159 159 158 160 160 161 162 163 163 163 163 162 163 162 161 163 163 164 162 162 161 159 158 156 154 146 117  69  51  47  40  34  28  37  43  37  30  31  44  48  49  55  64  75  90 120 152 163 163 164 165 166 165 166 166 166 165 166 165 165 166 165 165 166 166 166 165 165 164 163 165 166 166 165 165 166 166 165 165 165 165 164
 157 157 157 157 157 159 158 160 160 160 161 158 160 159 162 162 162 163 164 163 162 162 163 162 159 160 159 157 154 147 137 132 127 118  92  65  53  50  44  31  28  28  28  31  31  29  28  33  41  44  49  53  52  54  56  66  94 124 138 157 160 163 163 164 165 165 164 165 165 166 166 165 165 166 165 165 166 166 166 166 165 166 165 165 166 165 164 164 164 163 165 165
 158 157 157 159 158 159 160 160 161 161 161 160 161 162 163 162 163 163 163 164 163 163 162 159 154 149 129 115 104  99  95  93  88  67  51  43  44  46  31  27  26  25  26  25  26  25  27  29  31  34  41  38  37  39  39  42  53  69  87  88 106 116 131 148 161 164 164 164 165 166 166 166 167 167 166 166 165 167 166 165 166 166 166 166 166 165 165 164 164 164 164 165
 157 157 158 157 159 160 161 159 160 161 162 160 161 160 162 163 163 162 162 163 163 160 159 146 109  96  85  78  82  87  75  63  46  38  35  39  46  44  26  22  27  25  25  21  22  24  22  26  27  28  30  32  30  31  34  35  40  45  54  64  67  74  65  74  86 120 154 160 163 167 166 167 167 167 167 166 166 166 168 166 165 166 165 166 167 165 166 165 164 165 165 165
 158 156 157 158 159 160 158 160 161 158 160 161 162 162 163 163 161 162 161 162 161 149 145  92  78  65  68  79  85  71  48  36  32  31  33  40  46  33  25  22  25  24  23  20  22  21  19  22  21  23  26  26  26  28  30  30  32  39  41  44  55  60  64  92 133 105  89 128 161 163 165 164 165 165 167 166 166 166 166 165 165 166 164 165 165 166 166 167 166 165 165 164
 156 157 157 157 160 158 160 160 161 160 161 162 161 161 162 162 162 163 162 161 158 138 109  70  55  54  61  62  66  51  36  29  29  32  36  40  34  28  23  20  24  26  22  20  19  20  19  19  19  21  22  23  23  26  25  25  25  28  30  38  37  37  44  45  64  92 113  98 111 156 160 164 166 165 166 166 166 166 167 166 166 165 165 166 166 166 166 166 165 165 165 164
 158 158 158 159 160 160 159 160 162 162 162 163 163 161 162 163 164 162 162 161 161 140  88  50  42  47  53  53  52  54  35  29  31  31  32  29  27  26  22  23  24  26  19  20  20  19  19  18  18  18  19  20  21  25  24  23  27  28  28  28  28  29  33  43  49  63  82  76  64 107 156 160 165 164 166 166 166 164 166 166 166 167 166 167 167 167 166 165 166 166 166 165
 158 158 158 159 160 160 162 163 162 162 162 163 162 161 161 163 162 161 163 160 158 139  88  43  30  30  35  46  47  51  45  33  30  29  25  23  23  24  21  22  24  26  21  19  20  20  18  18  18  20  20  18  20  19  17  17  19  22  26  27  24  29  30  34  38  45  52  70  66  63 100 151 162 164 166 166 165 166 166 166 167 165 166 165 166 166 166 165 165 166 166 164
 157 158 160 159 159 161 160 160 160 162 161 162 162 163 162 162 161 160 161 161 154 141  80  43  31  25  24  31  35  42  42  40  40  32  28  24  20  26  25  24  25  25  24  21  19  20  18  18  16  18  18  17  19  18  16  16  17  19  20  24  27  26  25  28  31  34  42  49  56  59  67  94 148 161 164 165 166 166 166 166 166 166 165 165 165 166 166 165 166 166 166 165
 159 158 161 160 158 159 159 159 162 163 163 162 162 162 162 162 163 162 162 161 150 136  81  53  32  27  22  22  29  36  39  38  31  28  26  26  23  27  26  23  26  25  28  24  20  19  19  18  18  19  18  16  18  17  16  16  18  17  16  18  22  25  24  25  33  34  42  50  55  58  57  71 101 152 161 163 166 166 167 167 166 166 165 165 165 165 166 166 167 166 166 165
 158 158 159 160 158 160 159 159 161 163 163 162 164 163 164 163 163 163 161 161 150 138  91  58  36  29  24  23  21  28  38  41  36  30  25  22  21  24  26  24  27  27  25  27  27  23  20  19  19  18  19  17  16  18  21  18  18  17  16  18  18  21  23  24  28  32  35  48  51  57  55  63  94 116 155 162 166 166 165 165 166 166 167 164 167 166 165 166 166 165 167 165
 158 159 158 159 159 159 160 160 160 162 163 162 163 162 163 163 163 162 162 162 154 137  94  64  40  31  28  24  21  22  24  30  44  40  31  27  26  27  26  28  27  28  27  25  27  27  25  23  20  19  19  18  17  18  21  18  20  18  18  19  18  19  18  24  28  33  32  37  43  49  54  56  86 105 128 160 164 165 165 166 166 166 166 166 167 166 166 166 166 166 166 164
 158 158 158 160 160 159 159 159 161 161 162 164 163 163 162 164 162 162 162 163 159 136  99  75  45  33  29  26  24  24  26  24  28  37  39  35  31  30  28  29  31  29  28  28  26  25  24  26  24  21  20  21  21  18  20  22  20  17  17  17  17  18  19  21  28  28  33  37  40  43  47  53  73 113 101 142 164 164 166 166 165 166 165 165 165 164 165 166 167 166 165 166
 158 158 158 158 158 159 158 160 160 162 163 163 164 163 163 164 163 163 161 163 160 143  97  69  46  37  30  32  33  31  28  27  28  31  36  40  38  35  32  29  29  30  30  29  29  29  27  27  26  26  26  24  23  21  21  21  21  18  17  18  17  19  20  27  33  35  33  35  38  39  43  48  62  89 112 112 157 165 165 165 166 168 166 166 165 165 165 165 167 166 165 166
 158 158 159 160 159 160 160 159 161 162 162 162 163 163 162 163 164 163 163 164 159 154 106  67  51  42  36  32  31  30  28  27  26  29  33  36  37  36  36  32  32  31  32  31  31  30  31  31  30  30  31  28  26  25  24  24  25  22  19  20  20  20  22  26  26  25  25  28  30  36  40  44  57  72 104 113 132 163 166 166 165 167 166 166 165 166 166 165 166 166 166 166
 159 158 160 159 160 160 160 160 160 161 161 162 162 163 162 162 163 163 161 161 159 160 134  64  53  40  36  31  30  30  29  29  28  28  29  32  35  35  39  39  42  42  44  44  43  41  40  38  36  35  35  33  32  33  32  32  31  26  23  22  18  18  18  22  22  23  24  26  29  34  37  42  54  58  84 108 118 158 165 167 167 166 165 165 166 166 166 166 165 166 166 166
 159 158 159 160 161 161 161 162 161 161 162 162 163 163 162 163 163 163 162 160 158 158 135  79  52  39  37  35  32  29  28  26  27  28  30  33  35  40  47  54  61  66  71  70  69  65  64  59  50  49  45  44  48  50  48  46  42  35  28  24  20  19  18  17  17  19  22  26  30  34  36  41  48  53  57  87 118 146 162 165 167 166 166 166 166 166 166 165 167 166 165 165
 158 158 160 160 161 160 163 162 163 163 159 162 162 161 161 163 162 162 162 162 160 156 137 102  54  47  39  35  33  30  28  28  30  30  34  43  51  63  73  81  87  89  89  85  86  83  83  76  66  69  68  62  62  64  64  63  58  51  40  33  26  24  20  17  16  16  19  22  29  36  37  40  45  47  51  57 104 142 156 166 167 166 167 166 166 165 166 165 166 166 166 166
 160 160 162 161 162 162 162 160 161 161 161 163 162 162 162 163 162 161 162 160 157 154 138 115  68  45  36  33  30  28  27  29  32  40  52  68  78  91  96  98 100 100  97  96  92  90  88  89  87  85  82  78  76  74  73  72  67  63  54  46  39  31  25  20  17  17  18  19  25  33  37  38  42  45  48  53  78 130 155 162 166 165 166 166 165 166 166 166 165 166 166 166
 161 160 161 160 160 161 161 162 161 162 162 163 162 162 162 162 161 163 161 158 156 154 132  85  57  45  39  33  30  29  30  32  43  62  78  90  97 102 101 104 105 105 103 101  98  97  94  94  92  90  89  84  82  80  78  74  73  70  65  61  54  45  35  27  23  20  19  19  22  29  33  37  42  44  48  50  63  91 151 161 163 165 166 167 167 168 167 166 166 167 166 166
 159 160 161 160 162 162 160 162 161 162 162 162 163 163 162 161 162 162 163 159 149 134  89  61  47  42  35  30  28  27  31  47  70  84  96 104 105 104 105 107 107 107 105 102 101 100  99  98  95  91  89  88  84  82  81  78  76  73  71  65  64  58  47  37  30  25  20  21  23  26  28  32  37  42  45  52  58  69 108 153 162 163 166 166 166 166 165 166 166 166 166 165
 160 161 161 161 162 162 162 163 164 163 162 162 164 162 162 164 164 163 162 156 136  84  62  48  41  35  30  30  28  30  43  66  87 100 106 108 105 105 105 106 105 106 105 102 101 100 100 100  97  93  92  90  87  84  82  81  80  77  74  70  70  66  57  47  37  30  26  22  23  28  28  29  33  39  42  50  56  66  87 127 157 164 166 166 167 167 166 166 164 165 166 166
 163 163 163 161 162 163 163 163 162 162 163 163 161 162 165 163 163 162 158 143  95  65  49  40  34  30  30  29  29  41  63  80  98 106 109 108 106 108 108 104 104 106 104 104 104 101 101  99  96  95  95  94  91  86  85  82  82  80  78  75  72  70  66  57  48  38  30  24  20  22  28  29  30  36  40  45  51  62  81 121 152 162 165 165 166 167 166 166 167 165 165 165
 161 161 161 162 162 162 161 163 163 162 163 162 163 164 164 163 164 163 151 106  67  54  39  36  31  30  28  30  38  63  78  89 104 109 109 108 109 108 107 106 106 110 112 109 106 105 103 101  99  97  97  95  90  87  86  83  82  82  81  80  72  72  71  64  58  46  36  30  25  22  19  26  29  36  43  45  48  55  71 104 144 159 163 165 166 166 166 167 166 167 165 166
 161 162 161 163 162 162 163 163 164 162 163 163 164 164 165 165 165 158 126  73  61  45  36  36  31  30  29  32  55  81  88  99 107 109 107 109 111 109 109 109 111 111 112 109 110 107 105 102 100  99  98  96  92  90  88  86  83  83  83  81  79  74  75  68  64  53  43  34  29  26  21  21  29  32  40  48  51  57  70  86 134 158 164 165 165 166 166 167 167 166 165 166
 161 162 161 164 164 164 163 163 163 164 164 164 165 166 166 165 163 152  89  63  54  36  35  34  30  30  31  43  75  91  95 105 108 108 107 112 113 110 112 113 114 114 113 110 110 109 107 105 102 100  98  97  96  95  91  90  86  86  84  84  82  77  77  75  69  61  51  41  35  31  25  22  22  34  40  45  51  56  69  75 105 154 164 166 166 167 167 166 167 166 165 167
 161 162 161 162 162 163 164 164 164 164 164 164 164 165 164 164 162 128  75  61  49  36  35  31  30  31  35  55  89  97 103 108 108 107 108 113 112 109 113 114 115 115 114 114 112 111 107 106 102 100  99  97  96  95  94  89  89  88  86  86  85  83  78  79  73  66  58  48  40  35  30  24  23  28  38  45  52  55  67  76 106 149 162 166 167 166 167 167 166 166 166 166
 162 162 162 163 161 163 164 165 165 165 164 165 165 165 164 165 156  99  64  59  43  39  33  30  32  35  46  72  94 102 106 108 108 110 112 114 112 114 115 117 118 117 117 115 113 109 106 107 102 101 100  99  98  96  92  90  89  89  87  86  86  87  84  83  79  71  65  57  48  42  36  29  26  26  33  42  50  54  60  72  98 138 160 166 167 166 167 166 166 166 166 164
 162 164 163 164 163 163 164 164 165 166 166 166 165 164 165 164 145  76  60  53  44  38  31  31  34  39  53  79  97 105 106 108 109 114 115 117 118 119 119 121 120 120 118 116 115 112 110 108 105 103 102 101  98  98  96  93  91  88  87  86  87  87  86  86  84  79  72  63  55  49  44  36  30  26  30  41  47  54  59  64  80 135 158 166 166 165 168 167 168 167 165 165
 162 163 163 165 163 164 165 164 165 165 165 165 165 165 165 162 137  64  55  49  43  35  32  35  35  42  60  87  98 104 105 107 110 114 115 118 119 118 118 117 118 122 120 118 113 110 106 106 106 105 102 102 100  98  98  97  96  92  90  88  90  91  91  92  88  84  78  71  63  54  51  44  36  27  27  34  44  49  54  57  73 120 156 164 164 166 168 167 166 167 167 167
 164 164 164 164 164 165 165 165 165 166 165 166 166 165 165 157 120  56  51  45  40  35  34  35  39  45  65  87  97 103 105 107 111 114 113 117 115 112 111 112 114 116 117 115 113 108 105 105 107 106 103 100 101  99  98  99 101  99  96  94  96  94  93  94  94  90  87  79  70  63  56  52  43  30  25  32  42  45  52  54  64  89 150 162 166 166 167 167 168 167 167 166
 165 165 164 165 165 166 166 166 165 166 165 165 166 164 165 153 118  56  49  44  36  35  32  34  37  46  70  90  97 101 103 106 110 110 109 109 108 107 107 105 107 109 111 112 108 107 106 107 108 110 103 100  99 102 102 103 103 103 100  97  97  97  97  98  99  94  93  88  79  71  63  58  47  34  26  27  36  42  46  53  61  68 120 161 167 168 168 168 167 166 167 167
 165 164 164 166 165 166 166 166 166 166 166 166 166 166 164 150 117  53  49  43  36  35  32  30  35  52  76  92  98 103 105 108 107 105 102  98  97  96  97  97  97 101 102 107 106 107 106 107 108 108 102 104 104 105 104 105 106 104 100 100  97  97  99 102 103 100  97  94  88  78  70  61  51  38  27  25  31  38  43  52  60  69  88 153 165 166 168 168 167 167 167 167
 165 165 166 166 166 166 166 166 167 167 168 168 168 166 164 153 117  55  49  42  38  33  30  30  36  60  82  95  99 103 107 109 106 102  96  95  90  85  87  88  86  92  96  98 102 105 106 108 109 109 106 104 105 107 105 104 103 101  98  97  95  96 100 103 104 105 105 102  95  86  76  65  54  40  30  25  31  39  42  49  57  68 101 149 165 167 168 167 167 167 167 166
 166 166 166 166 168 167 168 166 166 168 167 168 166 166 163 159 120  53  46  41  38  29  29  28  40  69  88  97 101 101 103 102  98  94  89  86  83  81  78  79  80  84  91  92  92  95  98  99 101 104 104 102 103 102 100  95  94  92  90  93  94  95  99 104 107 108 110 107  99  90  81  70  57  41  31  27  31  40  42  47  53  68  99 147 165 167 168 168 167 167 168 167
 167 166 166 167 166 167 167 168 167 169 167 168 167 166 166 163 124  49  45  42  35  30  27  28  49  77  90  93  88  88  81  77  70  65  63  55  60  63  67  69  69  72  78  80  81  85  89  88  88  91  93  94  94  93  90  86  84  85  84  88  89  91  95 102 106 111 112 110 105  97  87  77  61  44  30  31  32  43  42  45  52  59  92 140 163 167 168 168 168 168 168 166
 167 167 167 168 166 167 168 168 169 169 167 167 168 169 168 164 132  52  47  41  32  27  25  32  61  80  81  72  66  64  58  49  42  39  38  36  34  38  45  48  53  61  64  68  73  76  77  79  84  87  85  85  84  85  82  79  78  78  78  83  81  82  88  96 102 113 116 115 110 104  94  83  68  46  32  31  35  42  43  42  49  54  75 129 158 165 167 168 168 168 169 166
 166 167 166 167 168 167 168 168 168 170 168 167 169 170 169 164 142  60  50  41  31  24  24  38  69  73  64  52  50  52  44  39  35  32  30  29  28  26  28  30  37  47  54  60  64  69  69  69  75  76  78  75  72  73  71  68  69  66  67  68  73  73  81  88  95 108 117 120 117 112 103  91  74  52  33  32  37  42  42  40  46  54  67 107 155 164 168 168 169 169 169 168
 166 167 167 168 168 168 168 168 168 170 170 170 170 169 169 165 147  70  53  39  29  23  25  45  73  64  57  48  46  44  42  40  36  32  29  27  28  26  27  28  29  32  39  45  54  59  64  68  72  73  70  65  66  62  59  55  56  53  51  53  57  62  68  78  84  96 105 114 118 116 111 102  82  58  38  32  38  43  40  39  41  51  67 122 141 162 168 168 169 168 168 167
 166 166 166 168 168 169 169 169 170 169 170 169 170 170 169 167 155  80  56  40  30  27  29  48  59  54  47  44  45  46  47  48  47  45  43  38  34  32  30  31  30  30  33  39  45  52  60  69  70  68  65  56  54  51  49  48  45  42  40  36  37  41  41  50  59  68  79  92 104 109 113 108  91  65  38  30  38  46  42  39  39  46  63 116 154 162 168 168 168 168 168 168
 165 167 169 168 170 168 168 168 169 168 170 170 170 170 170 169 160  95  60  46  25  26  27  25  28  34  38  38  34  36  40  42  46  52  54  57  52  44  38  36  35  33  34  38  46  54  61  67  70  67  60  52  49  43  39  37  32  30  28  27  28  27  26  29  35  40  49  60  74  93 101 104  96  73  41  28  31  48  42  42  38  40  55 103 158 166 168 167 169 168 169 168
 166 167 168 168 168 167 169 168 169 170 170 170 169 170 169 169 164 101  62  43  24  23  26  40  41  63  64  64  67  69  68  63  58  51  45  39  37  42  41  46  43  41  38  40  48  59  66  70  72  70  60  50  45  39  32  28  27  25  24  23  23  22  22  22  25  29  34  43  55  69  78  85  91  76  47  28  28  46  40  42  40  39  48  84 154 166 168 169 168 168 169 169
 167 167 168 168 168 168 169 169 170 168 169 169 170 171 169 169 166 115  64  43  23  21  34  33  42  66  61  65  64  58  51  55  57  55  52  51  49  46  46  41  36  33  37  39  49  62  70  76  78  73  66  57  47  36  30  29  28  28  28  27  28  26  24  24  24  27  31  38  47  54  64  72  79  76  50  29  27  41  41  38  44  41  47  82 148 165 169 170 169 169 169 168
 168 168 167 168 169 168 171 169 170 169 166 167 169 169 169 170 168 125  64  43  21  21  37  29  53  65  63  62  54  52  61  56  51  46  48  48  45  38  40  45  45  49  42  30  28  53  77  86  87  82  76  63  48  41  41  42  42  42  43  44  44  45  40  36  35  34  35  39  43  51  58  63  69  76  52  30  26  36  40  36  45  41  47  82 143 164 170 168 169 168 168 168
 168 167 168 168 169 168 170 171 170 171 170 168 169 170 171 170 167 140  57  48  25  23  40  28  52  63  65  59  53  51  43  43  37  32  31  28  32  36  38  39  42  45  48  52  30  24  30  44  53  54  52  41  30  27  29  29  30  31  29  30  30  30  30  32  32  31  33  35  38  41  50  59  70  70  54  32  26  31  38  35  43  43  45  88 140 162 167 168 170 167 167 168
 166 166 169 168 168 168 170 170 170 170 171 171 170 170 169 169 168 163  67  38  28  25  46  41  58  63  64  57  47  40  53  68  46  30  26  26  31  42  38  41  46  48  50  58  38  22  22  25  26  23  20  22  31  45  38  36  35  37  37  37  37  40  44  48  49  50  49  48  41  33  26  26  33  44  46  30  25  27  35  36  42  47  48 101 145 163 168 168 168 167 167 168
 166 166 168 169 168 168 171 171 170 169 170 171 171 170 169 170 169 163  75  43  32  27  51  63  70  69  63  56  54  50  58  72  59  35  31  33  40  54  44  37  50  61  64  66  36  24  23  28  28  23  20  25  51  43  37  36  35  33  34  38  41  42  48  44  42  43  50  60  67  65  59  48  41  25  25  22  23  30  39  38  39  48  60 114 152 165 167 168 168 168 167 168
 166 167 166 168 168 168 170 169 171 170 170 171 170 170 169 168 168 158  86  48  35  28  57  81  84  76  66  61  62  53  54  57  59  56  52  57  61  63  61  64  70  75  76  79  27  26  42  62  56  34  24  29  54  41  38  39  38  37  36  38  36  32  30  31  37  44  47  45  53  61  60  58  66  60  30  21  21  22  51  38  38  48  83 135 162 167 168 167 167 168 168 169
 165 165 167 166 167 168 168 169 170 170 170 171 170 170 169 169 168 162  96  50  48  27  64  93  95  91  76  68  62  59  56  56  56  57  58  59  59  59  62  67  74  74  75  65  24  27  92 108  94  70  30  33  64  50  46  47  37  33  39  52  44  29  25  21  25  31  42  52  44  53  59  58  66  61  41  19  20  22  51  37  38  50 109 154 165 167 167 167 167 167 168 167
 165 166 167 167 168 169 168 169 171 168 170 169 170 170 169 169 169 161 106  52  63  25  67  95 104 102  89  75  64  57  54  55  55  55  55  57  62  66  68  75  78  74  79  39  23  63 121 140 126  99  32  28  75  68  58  57  50  50  53  64  54  34  27  24  27  42  38  36  41  42  54  55  60  57  39  20  20  22  50  38  38  53 122 160 165 168 168 167 167 167 168 168
 165 164 166 166 167 168 168 169 169 168 169 170 170 169 169 169 168 164 110  54  78  28  57 100 107 109 100  85  72  65  60  59  58  61  64  65  69  74  80  84  85  89  83  27  27  99 122 138 129 112  44  26  74  78  69  68  66  62  60  59  57  41  32  30  37  54  51  36  37  40  49  53  53  47  39  21  20  32  46  44  39  60 124 161 166 167 168 167 166 167 166 167
 163 165 165 166 166 168 167 167 169 169 170 168 169 169 170 168 168 165 101  54  83  66  25  84 107 110 103  92  83  76  68  67  66  67  69  70  73  80  84  86  90  94  51  23  61 108 120 133 127 119  57  27  63  88  76  72  69  57  50  48  47  48  47  49  52  56  54  54  46  45  47  50  52  48  37  21  21  28  47  39  42  82 142 162 166 166 167 167 165 165 165 166
 165 164 164 165 166 166 167 166 167 168 168 169 170 167 168 168 168 163  99  60  88  96  84  40  39  72  92  99  90  81  76  75  71  68  71  74  77  82  86  85  86  74  25  35  98 115 127 139 127 117  78  27  45  95  85  79  75  64  53  48  44  44  43  43  46  50  56  60  63  59  57  60  62  61  36  26  27  30  30  31  48 100 152 162 166 166 166 165 167 164 167 167
 164 163 165 165 165 165 166 167 166 167 167 168 169 168 168 167 166 164  97  64  92  98 102 104  93  63  41  33  48  62  69  73  80  77  78  81  82  88  94  94  68  30  24  82 106 117 131 142 129 120  99  33  31  93  92  89  83  74  62  54  49  45  43  43  45  51  55  62  67  71  78  83  83  77  29  35  35  37  36  35  54 123 155 163 164 166 166 166 165 165 167 167
 163 163 164 164 165 166 166 166 166 168 167 168 168 167 167 166 165 165  95  70  95 100 100  99 100 100  95  86  71  59  47  40  34  34  37  37  42  50  47  32  32  43  62 100 110 116 124 129 125 125 114  70  25  72  92  94  93  84  72  63  58  54  52  50  50  53  58  66  72  83  96 103 102  74  24  55  43  42  39  45  65 141 159 162 165 166 167 165 167 166 166 167
 163 164 164 164 165 164 166 166 167 166 167 168 166 166 166 166 165 164  98  79  94 100  98  93  95  90  88  89  90  84  82  78  77  77  74  70  62  63  62  62  60  59  93 105 112 115 118 120 119 130 126 100  35  27  64  91  91  89  82  71  65  63  63  62  61  66  71  72  81  97 109 116 112  54  36  80  48  43  48  50  74 143 157 162 165 166 166 166 166 164 164 165
 162 162 162 164 164 164 164 165 166 166 166 167 168 166 166 167 166 159  91  81  94  98  94  89  89  87  83  84  84  83  83  82  80  77  76  72  72  70  64  58  71  89 100 108 112 111 114 117 118 128 131 115  76  54  30  31  55  71  77  76  73  67  66  68  68  73  78  85  93 107 117 118  95  29  69  87  51  45  52  65 101 152 159 162 165 166 165 165 165 164 164 163
 160 161 162 163 163 164 164 165 165 166 167 165 166 165 167 166 166 159  89  83  93  95  90  87  86  85  84  82  84  84  83  83  82  78  78  76  69  62  58  72  96 102 106 113 108 104 108 113 111 127 138 124  98  75  69  60  46  37  34  39  49  55  61  66  69  74  82  88  91  96  91  65  32  47 102  91  55  48  50  78 139 157 161 163 164 165 164 162 163 162 162 162
 160 160 162 161 162 163 164 163 163 166 166 166 166 166 167 166 166 155  94  85  93  94  88  83  82  81  81  83  85  87  85  86  84  80  81  75  70  61  61  89  96  92  97 104 104 107  99 100 101 111 131 130 111  96  70  63  73  78  85  79  66  56  48  43  44  39  36  40  40  48  50  65  85 111 106  86  52  46  52 102 152 157 160 162 163 164 163 162 162 162 163 162
 160 161 160 161 162 161 162 162 164 164 165 165 165 165 166 165 165 150  96  86  94  92  86  82  83  82  83  85  86  88  92  92  90  88  87  84  78  68  68  82  83  76  79  88  90  91  92  92  91  95 110 112 108 106  89  62  67  77  85  91  89  86  83  85  85  88  93 100 107 114 116 118 118 113 107  85  52  43  54 115 155 157 160 161 164 162 162 162 163 164 162 162
 159 160 159 161 161 162 161 163 163 164 165 164 164 165 164 165 166 149  98  89  91  91  86  82  84  82  82  83  86  89  91  93  95  94  93  89  83  74  67  66  64  61  64  70  75  78  76  76  81  80  84  82  81  91  94  69  63  72  79  92  90  90  90  90  89  91  94  98 104 109 114 117 117 111 105  83  53  44  65 128 157 159 161 160 162 161 162 162 162 162 162 160
 158 159 160 160 160 161 162 163 163 163 164 164 163 164 164 164 164 151  97  86  87  88  86  83  84  82  82  85  90  92  95  97  97  92  91  88  83  78  65  54  47  39  40  58  63  64  63  65  65  66  63  58  59  69  74  63  61  71  76  86  89  90  96  93  92  88  90  90  92  98 104 111 111 109 103  79  50  48  69 145 155 158 159 160 161 161 160 162 162 161 160 161
 159 159 160 161 160 161 161 162 162 164 164 164 164 166 165 165 164 135  87  82  86  88  86  84  82  82  84  88  95  97  96  94  94  88  87  84  84  83  67  45  40  33  29  34  56  53  52  52  55  57  42  35  39  49  55  52  56  67  76  87  92  93  96  94  94  89  89  88  89  92  96 102 106 106 101  75  54  56  91 150 155 157 159 159 159 159 160 160 161 162 160 161
 158 159 160 160 161 161 161 161 161 164 165 165 166 166 164 163 161 127  81  80  86  88  87  82  82  85  86  88  92  96  96  90  90  87  84  83  84  85  74  51  35  31  33  37  46  48  45  43  47  34  25  27  32  41  50  56  64  70  78  86  87  92  95  94  95  93  90  89  87  89  90  96 101 104 100  79  67  66 116 151 155 157 156 158 159 158 158 159 161 163 162 161
 157 158 159 159 160 160 161 161 161 163 163 165 164 165 164 161 160 103  79  83  87  87  85  82  83  85  88  89  90  91  93  89  90  88  84  85  87  87  79  66  51  42  42  49  49  49  43  44  41  38  35  29  32  39  50  65  76  80  84  87  92  95  95  96  94  92  90  87  87  88  89  92  98 103 100  84  68  80 135 153 156 156 155 158 157 157 158 160 160 160 159 160
 157 159 158 160 160 160 161 161 161 161 163 163 163 164 164 162 160  91  77  83  86  87  84  84  83  85  88  89  87  88  88  85  85  83  84  86  87  86  83  77  72  62  56  58  52  47  46  43  42  46  44  34  34  41  61  76  82  84  86  90  93  96  96  94  93  92  89  86  84  85  88  92  97 101  99  90  76 101 145 153 154 156 155 156 157 158 157 157 159 159 158 158
 158 157 157 158 160 160 161 161 162 161 162 162 163 163 163 162 160 123  81  83  86  88  85  84  85  85  85  86  86  87  84  83  81  80  85  87  88  87  86  85  82  74  69  69  60  47  42  43  52  61  53  53  55  63  78  86  87  85  86  88  92  97  95  92  92  92  90  86  84  84  85  90  96  98  97  95  89 118 147 153 153 154 154 156 156 158 157 156 158 158 156 156
 156 156 156 158 159 159 160 160 161 160 161 162 162 161 161 161 160 140  89  82  86  86  83  84  86  86  86  85  85  84  84  81  79  81  91  94  88  87  88  87  85  81  78  77  70  55  49  57  67  75  71  72  77  84  89  93  91  85  83  86  92  95  93  91  91  91  88  86  84  83  87  91  95  96  94  93 106 133 149 152 154 155 155 154 156 156 155 154 156 156 157 156
 155 157 156 158 158 158 159 160 160 160 160 162 161 162 163 162 160 142  87  82  84  86  83  83  82  86  85  86  83  83  82  79  79  85  93  93  89  89  89  86  89  87  85  83  76  57  56  68  80  88  87  83  86  88  95  95  95  87  82  85  89  93  95  94  91  90  87  87  85  84  86  91  92  91  89  90 110 140 151 152 152 154 155 152 155 156 156 154 155 156 157 157
 155 155 156 158 157 160 159 160 159 161 161 161 160 162 162 162 161 144  89  80  86  88  84  83  84  86  85  85  84  82  82  81  83  88  92  90  91  91  94  94  96  95  91  88  78  58  60  76  91  96  96  92  92  92  96  98 100  93  84  87  88  93  97  95  95  91  88  90  87  88  90  92  92  91  87  89 111 140 150 151 152 154 155 154 155 155 156 155 155 156 155 157
 155 157 156 157 156 159 160 160 159 160 160 161 161 162 161 162 161 143  89  80  86  86  82  83  84  84  85  84  85  83  82  81  86  89  89  91  93  96  97  97  99  98  91  86  78  65  68  79  92 102 101  93  93  95  95 100 104  98  89  87  89  91  94  98  96  92  89  88  88  90  90  92  92  92  86  88 100 131 148 150 150 152 153 153 153 154 155 154 155 155 155 156
 154 157 156 157 157 157 159 159 159 159 160 161 162 161 161 161 160 143  92  78  83  81  81  82  83  81  82  82  82  81  81  84  88  88  89  91  97 100  99  98  95  86  77  82  82  73  72  80  92 104 107 102 100  99  99 101 102 103  91  86  88  91  93  97  96  94  91  89  88  91  91  91  92  90  84  79  84 112 146 148 150 150 151 152 152 153 153 153 154 153 154 154
 153 155 157 157 156 158 158 159 160 160 160 161 160 162 162 161 161 145  95  75  83  86  83  81  81  78  79  83  85  83  81  84  87  87  89  89  94  92  85  76  64  54  48  60  73  77  75  67  63  84 102 107 106 103 101  99 103 104  94  87  89  89  91  95  96  95  92  90  87  88  91  90  90  88  80  76  74 119 146 148 149 148 149 150 150 151 153 152 154 152 154 154
 155 157 157 156 156 157 159 160 161 161 159 161 161 161 162 162 159 143  99  76  80  85  86  80  78  74  74  80  85  84  82  83  82  81  84  84  77  63  53  46  44  45  46  44  48  53  50  45  40  50  74  95 104 108 107 103 104 104  98  89  88  90  93  95  95  95  93  90  86  88  88  89  90  82  81 100 130 142 147 147 148 149 149 148 150 151 152 150 151 150 152 151
 154 157 156 155 156 158 160 161 161 159 161 160 161 160 161 160 160 146 102  74  77  81  85  81  79  75  74  79  82  84  83  80  77  73  69  63  51  42  40  39  40  40  42  41  40  35  37  40  41  37  44  61  80  96 106 102 102 104 102  92  90  91  92  92  95  93  90  87  89  88  87  88  85  77  81 111 142 145 147 147 147 148 148 149 150 150 150 149 150 150 149 148
 155 156 157 157 159 159 159 160 160 161 161 161 161 160 160 161 160 149 118  76  71  79  81  78  79  76  72  75  80  82  81  80  78  66  49  40  37  36  38  38  35  29  28  31  33  28  34  34  36  35  35  40  49  67  87  95  97 100 100  96  92  94  94  94  93  91  86  85  87  86  84  85  79  76  87 124 142 146 147 147 147 147 147 148 147 146 148 148 149 148 150 148
 154 154 154 157 158 160 159 159 161 160 160 160 160 160 160 160 160 155 129  74  68  73  76  77  74  69  67  69  74  78  79  79  79  69  51  37  47  56  61  59  55  46  36  28  25  22  24  25  26  28  31  34  39  45  60  80  88  95  98  96  93  94  93  93  90  87  86  83  84  84  83  80  76  76  95 132 145 147 147 147 146 147 147 146 146 146 147 147 147 146 146 146
 153 155 157 155 156 157 159 160 160 159 161 160 161 160 161 159 160 158 148  89  68  70  74  75  74  69  64  65  72  74  74  76  76  74  61  59  81  80  74  83  63  55  49  39  33  31  30  34  40  42  41  40  35  35  40  56  76  88  95  96  93  93  90  88  86  83  85  82  81  84  81  77  73  76 101 135 143 144 144 146 144 144 144 145 146 146 146 146 145 146 145 145
 153 155 156 156 156 158 158 158 159 159 158 158 159 159 161 159 159 158 155 103  73  70  68  69  70  68  64  66  71  72  71  74  78  78  66  62  77  76  79  81  60  55  51  44  36  42  49  58  62  62  63  66  65  53  40  39  63  85  90  92  91  90  88  86  81  79  85  79  81  87  81  76  73  82 112 137 141 143 144 142 142 143 144 144 145 145 145 144 143 145 145 144
 155 153 155 155 156 157 157 157 158 158 156 158 160 160 159 159 159 160 155 127  79  64  61  68  70  69  69  67  69  72  72  74  77  79  68  59  64  73  81  69  59  54  54  50  47  48  54  60  62  66  73  74  80  87  78  65  69  87  90  87  88  86  85  82  81  75  80  79  80  84  79  79  72  88 124 140 140 142 143 141 143 144 143 143 145 143 143 142 143 142 145 145
 153 154 155 155 155 155 155 155 156 157 157 158 158 158 157 157 158 159 156 148  89  60  56  62  66  68  70  69  73  72  72  71  74  76  69  56  58  64  71  65  61  55  56  56  55  56  57  60  66  76  74  72  75  96  84  66  84  89  87  83  82  80  76  77  80  76  76  77  79  78  73  75  72 100 128 140 141 141 142 141 143 143 141 140 143 141 144 143 144 145 144 145
 153 153 154 154 155 155 154 154 155 155 156 157 157 157 157 156 157 157 154 153 111  61  54  57  63  66  69  70  72  71  72  70  68  69  67  63  58  58  60  61  62  57  56  66  76  70  62  64  69  79  70  70  67  79  68  69  88  90  87  80  76  75  71  71  72  73  75  75  76  75  69  69  75 110 133 139 141 140 139 140 141 142 141 139 141 141 140 140 143 141 142 142
 153 152 152 153 154 154 154 154 155 154 155 155 155 157 156 155 156 155 154 153 135  74  54  54  62  65  69  73  73  72  71  68  63  63  65  64  61  53  50  54  55  53  60  73  77  69  79  82  67  64  65  63  59  54  56  77  88  89  86  77  70  69  67  65  64  69  70  71  71  70  70  67  80 117 135 138 140 140 138 139 139 139 138 139 139 139 139 140 141 139 139 140
 152 152 152 152 153 153 153 154 154 154 154 155 155 155 155 154 154 154 155 153 146  98  56  53  59  62  66  71  73  73  71  69  62  57  60  60  59  56  61  46  45  49  56  54  57  59  58  62  55  49  53  55  60  64  71  78  80  82  81  74  66  64  61  60  64  68  69  68  68  62  64  68  89 127 137 136 139 139 139 138 138 139 137 137 138 139 139 139 140 139 139 139
 152 152 153 153 153 153 153 153 153 154 155 155 155 155 154 153 154 153 153 152 149 125  55  56  59  60  63  69  72  75  72  68  63  58  54  56  55  53  65  64  48  47  43  41  42  45  43  45  45  41  48  53  63  69  72  73  71  76  77  72  65  61  59  63  69  70  70  68  63  61  63  81 108 130 136 137 138 138 138 137 137 136 136 137 136 137 138 139 139 138 138 139
 151 152 151 152 153 152 153 152 153 154 153 154 154 154 153 153 152 152 152 150 149 140  71  61  60  63  64  68  68  71  73  70  62  58  55  50  49  46  50  62  70  68  57  51  46  46  47  50  60  57  59  58  59  62  63  60  63  71  75  71  63  62  62  61  69  72  71  59  55  55  63  90 126 133 134 136 137 137 136 135 137 136 136 136 136 136 136 136 138 136 137 136
 151 150 150 151 152 152 151 152 152 152 153 153 153 153 153 152 153 150 148 148 147 145 112  60  58  59  63  67  70  72  74  74  68  63  58  50  44  43  41  45  54  63  64  74  67  67  63  57  55  52  50  50  51  51  49  51  59  68  74  70  63  62  66  64  66  63  57  54  54  57  72 113 130 132 135 136 136 135 134 134 133 134 133 134 135 136 134 133 135 135 136 136
 149 149 150 150 151 151 151 151 152 151 151 152 152 151 151 151 150 148 147 147 146 144 139  66  57  57  60  63  66  68  72  73  73  66  62  55  47  42  37  36  38  45  49  53  54  54  51  47  43  40  40  39  39  39  41  47  61  72  73  68  64  60  63  63  68  63  55  51  54  61  99 125 131 131 132 134 134 135 133 135 134 133 134 133 133 134 133 131 132 132 133 133
 148 148 149 148 148 150 151 150 151 151 151 151 150 151 150 147 147 147 147 145 144 144 140 101  58  54  57  58  62  66  71  75  73  69  68  62  55  52  44  36  33  31  32  34  36  34  33  32  31  32  32  32  35  40  46  54  66  74  75  68  63  61  61  60  60  58  55  50  50  53 108 127 130 132 132 132 132 133 132 132 132 131 131 131 132 132 132 132 131 132 132 132
 146 146 146 146 147 147 149 151 149 148 150 148 148 148 148 147 147 146 145 144 145 142 139 124  62  54  53  55  58  62  68  74  75  73  73  70  66  61  59  50  40  32  28  27  31  29  29  31  32  32  33  36  40  46  54  64  70  72  71  68  63  63  67  63  58  53  53  50  51  40  35  64  98 123 127 129 131 131 130 130 132 130 129 128 127 126 128 129 130 131 130 131
 146 145 146 147 147 147 148 147 146 148 146 147 146 146 146 145 145 143 142 142 142 138 125  76  68  51  51  48  50  55  64  72  74  76  77  78  75  69  65  64  58  48  41  37  34  36  40  48  51  49  46  47  51  54  61  69  72  73  69  66  60  60  63  60  58  54  50  52  70  74  44  33  41  50  77 101 118 126 126 126 129 128 129 126 127 126 127 127 128 129 130 129
 145 144 144 145 146 146 145 145 146 147 146 145 145 145 145 144 143 141 143 139 133  86  34  45  73  50  46  44  45  50  56  66  70  76  77  79  78  76  73  70  65  60  55  51  50  50  56  64  68  65  62  58  63  66  66  69  71  71  66  64  59  57  60  58  58  56  48  62  87  73  74  32  29  35  38  36  36  42  60  93 122 126 126 124 125 126 125 126 124 125 125 125
 144 144 144 142 144 144 144 146 145 145 145 144 142 143 143 141 141 139 130  93  47  29  50  85  78  64  46  44  41  43  47  56  64  71  72  74  78  74  75  73  71  66  62  60  63  65  69  75  81  78  77  74  73  74  71  70  69  68  63  63  61  60  59  61  53  56  55  82  93  82  66  57  24  29  33  32  29  27  29  28  55  98 118 123 122 124 124 124 125 125 126 127
 143 143 143 142 143 143 143 144 143 144 144 142 142 140 140 138 129  93  53  37  29  43  85  84  77  67  54  42  39  38  40  45  53  58  63  67  71  69  70  68  66  63  60  58  62  67  73  80  84  84  82  81  78  74  72  72  71  63  57  57  58  56  59  59  55  52  72  89  96  92  64  63  31  23  28  29  27  25  25  26  30  33  45  66  82 101 111 119 123 123 123 124
 140 141 142 139 141 141 141 141 142 141 141 141 140 137 131  87  42  37  31  26  21  80  88  82  77  68  61  46  35  32  31  35  43  49  55  55  61  60  63  60  58  58  52  52  58  62  66  73  75  81  78  75  74  70  68  68  62  56  55  58  62  62  58  57  53  64  81  93  97  96  66  64  41  22  23  26  27  26  24  23  25  27  30  32  33  31  29  39  57  89 116 122
 140 140 139 141 139 139 139 140 138 139 138 136 131  90  45  32  31  28  25  23  33  85  86  81  74  67  61  55  38  31  30  33  34  39  43  44  45  51  53  50  49  48  43  44  51  53  56  61  64  67  65  64  67  67  63  57  51  48  50  54  57  61  55  54  55  75  88  93  97  95  71  65  45  21  22  24  25  25  23  21  22  22  25  26  27  28  27  27  30  31  47  91
 138 137 137 138 138 138 139 138 136 135 130  97  47  32  30  28  25  23  21  21  42  87  85  80  75  68  63  61  54  39  30  30  30  34  38  35  34  39  42  42  40  38  39  42  45  46  49  51  52  53  55  54  53  57  52  45  44  47  53  55  57  59  54  54  65  79  88  93  97  95  74  64  48  23  21  24  25  24  23  22  21  20  23  25  25  25  25  26  26  26  30  34
 136 136 136 137 137 136 136 134 122  86  48  32  29  27  25  23  21  20  20  21  51  84  84  78  74  69  64  63  60  50  34  30  30  29  30  28  29  29  32  32  33  32  33  35  38  38  38  42  41  39  40  41  41  42  36  37  41  46  54  56  57  55  52  60  74  81  88  92  96  98  76  64  47  24  20  22  22  23  21  22  21  21  21  24  25  25  24  24  24  26  26  27
 136 134 135 135 134 132 109  66  34  33  30  26  25  24  22  20  19  20  19  20  56  84  83  75  74  68  64  59  59  57  49  37  29  26  26  24  24  25  26  28  27  28  29  30  30  29  29  33  33  30  29  30  30  30  28  32  37  46  48  53  53  52  57  71  79  83  88  92  96  97  71  56  44  22  20  20  20  20  20  20  20  19  20  20  22  24  24  24  23  24  24  24
 133 133 133 132 108  61  29  30  28  26  25  24  23  21  20  19  18  17  17  18  50  83  83  76  73  68  65  60  60  58  56  48  36  26  24  21  21  19  22  20  19  22  22  24  22  24  24  26  25  24  23  24  23  25  26  30  37  43  42  49  48  55  65  74  81  86  90  93  94  94  67  52  42  21  18  19  20  20  20  21  20  19  20  20  20  21  21  22  21  21  22  22
 130 131 116  64  28  29  27  26  25  22  22  22  22  20  18  18  17  17  17  18  37  80  79  76  73  68  64  62  61  60  59  56  49  34  26  25  24  19  20  17  18  19  19  20  21  20  21  21  20  19  19  21  23  24  27  29  36  41  40  46  53  64  70  76  83  87  91  94  95  92  61  50  35  19  16  18  19  20  20  21  20  20  20  19  20  19  21  22  22  22  21  21
 109  66  36  30  27  25  25  24  23  22  20  20  20  18  17  17  17  17  17  16  23  78  80  76  73  69  65  64  63  61  61  58  55  49  39  29  27  23  20  19  20  19  19  22  19  19  19  18  19  19  22  21  23  25  26  29  35  41  47  54  60  65  72  77  81  87  92  95  94  87  56  46  30  18  17  18  18  19  20  21  21  20  19  19  19  20  21  21  21  21  22  21
  31  31  28  24  24  22  22  21  21  20  20  19  19  18  16  16  16  16  15  15  14  68  80  77  71  66  64  63  62  62  60  60  56  52  47  40  30  23  22  21  20  20  20  21  22  21  21  21  21  21  22  22  23  24  27  30  39  46  53  57  61  66  71  77  79  85  89  94  95  80  52  43  24  16  17  18  18  18  19  20  20  19  18  18  18  19  19  21  21  19  22  20
  27  26  24  21  20  20  20  21  20  18  18  18  19  17  17  16  16  14  15  16  15  46  78  77  71  66  64  63  63  63  60  60  59  53  50  47  42  35  28  23  21  21  19  19  20  21  21  20  19  20  23  24  23  26  32  40  50  54  55  58  61  66  73  78  81  84  87  94  96  70  49  36  21  17  17  16  18  18  18  20  19  20  19  17  18  18  18  21  20  20  19  21
  22  20  19  19  18  18  20  20  18  17  17  17  17  17  17  16  16  14  15  14  14  24  72  75  72  65  65  65  64  63  62  60  60  56  55  52  46  42  38  32  27  25  21  20  19  19  19  19  19  22  24  26  30  36  44  52  54  54  56  58  63  68  74  78  80  83  88  94  92  63  47  30  17  16  17  17  17  17  18  19  19  18  18  18  18  17  19  19  19  20  19  19
  19  19  19  18  18  17  17  18  18  17  16  17  17  17  17  16  14  14  14  13  12  14  50  70  68  66  64  63  64  63  62  62  61  58  55  54  51  46  41  38  34  31  28  27  24  24  23  23  24  28  31  36  41  45  50  53  53  54  55  59  66  72  76  79  82  85  90  91  79  55  42  23  15  16  16  16  16  17  18  19  18  17  17  18  18  17  18  18  19  19  18  18
  19  20  18  19  17  16  18  16  16  16  17  15  17  16  16  15  13  12  13  13  13  13  23  68  68  68  66  65  64  62  62  61  59  58  55  54  51  49  45  42  37  34  32  30  29  30  29  30  30  34  37  40  44  50  52  53  53  53  54  59  65  71  75  78  81  85  88  87  63  49  31  19  16  14  14  16  16  15  18  19  18  17  17  18  17  18  17  18  18  18  18  18
  16  17  18  17  17  17  17  16  15  14  15  13  15  16  15  13  11  12  12  12  12  12  14  50  67  68  67  65  63  61  60  60  57  56  55  54  53  50  47  43  41  38  35  33  31  30  31  32  32  36  39  44  46  50  51  51  52  53  56  59  66  72  75  77  80  84  87  77  52  42  24  16  14  14  13  13  16  16  17  17  17  16  17  17  18  18  17  16  17  18  18  18
