P2
# Generated by OpenCV 3.4.0
92 112
255
 171 170 170 172 171 172 173 175 174 173 175 176 176 176 177 178 178 177 177 178 177 178 178 178 177 177 174 160  80  63  52  36  32  41  50  52  40  45  57  48  50  57  67  75  80  86 108 127 150 159 167 169 167 169 171 176 178 178 179 180 180 180 182 182 184 182 182 182 184 185 184 182 183 183 182 182 181 182 181 180 182 182 182 182 182 182 180 181 181 181 181 182
 170 170 171 173 173 173 174 175 174 175 175 177 177 176 177 177 177 178 177 177 178 178 177 178 178 178 160  78  57  51  42  31  36  43  42  33  30  35  49  55  54  59  58  57  52  52  54  74  86  86  92  98  85  79  72  81 103 130 164 174 178 180 182 182 181 183 183 184 182 183 183 182 182 183 182 182 183 182 182 182 182 183 181 182 182 182 182 182 181 181 181 181
 171 172 172 173 172 171 174 174 173 174 176 177 175 175 175 174 178 176 177 177 177 174 174 174 170 130  67  55  48  36  31  29  33  35  32  28  30  34  39  39  49  47  41  38  39  41  42  49  55  68  74  72  83  75 103 130 145 122  95 115 162 174 178 182 183 183 182 183 184 185 182 183 182 183 182 183 182 182 182 183 182 181 182 183 182 182 182 181 182 181 180 180
 171 172 172 172 173 174 174 174 172 174 174 177 177 176 176 176 177 177 177 173 171 167 157 136  90  61  55  49  35  29  30  25  29  28  27  27  28  30  31  33  36  38  33  32  31  36  36  37  46  48  48  59  66  55  52  62  94 114 124 126 102 131 174 177 181 181 183 184 184 183 184 185 183 183 183 185 185 183 183 181 182 182 183 182 182 182 182 182 182 181 181 180
 172 172 173 173 173 174 176 174 173 173 172 174 174 176 176 172 171 167 165 156 136 129 106  68  52  48  55  40  30  29  29  27  25  25  25  25  25  27  28  28  27  30  29  29  30  31  31  30  32  31  38  42  43  46  41  43  56  64  80  93  79  72 108 164 174 178 182 183 183 183 183 184 183 184 184 183 184 183 183 183 182 182 182 182 182 182 181 182 181 181 181 181
 170 172 172 172 173 173 174 173 174 173 173 171 173 171 170 170 152 136 113 105 103  85  59  45  46  48  49  37  26  27  28  28  24  24  23  24  23  24  25  24  25  28  25  25  29  27  27  27  27  27  31  32  31  34  41  40  46  50  59  68  85  80  72  90 136 172 178 179 183 183 183 183 183 182 185 183 183 183 182 182 182 183 183 181 181 181 181 182 182 182 181 180
 170 171 172 170 171 172 174 172 173 173 173 172 169 163 148 116 101  94  95  91  75  48  39  37  39  46  50  32  26  25  27  29  24  24  23  24  23  23  23  22  24  24  24  26  28  30  28  28  30  30  29  27  28  30  33  36  34  34  43  50  58  63  66  67  86 109 157 179 180 183 182 183 183 182 182 184 183 182 182 183 181 183 182 181 182 181 182 182 181 182 182 181
 172 173 174 173 172 175 175 172 174 173 171 168 148 116  94  86  81  93  88  64  40  36  32  34  38  48  40  30  25  23  28  28  23  24  22  20  19  20  21  22  23  22  18  24  24  22  19  20  23  26  30  32  27  29  28  31  31  35  39  51  62  66  67  63  70  94 109 154 177 181 182 183 182 184 182 182 183 183 183 182 181 182 182 181 182 182 181 182 182 181 181 180
 172 173 172 172 173 173 173 173 174 169 170 147  99  86  72  73  85  94  63  43  33  30  31  35  44  41  33  28  26  26  27  29  22  24  24  22  19  18  21  20  23  20  19  24  22  19  18  18  21  23  21  25  32  29  26  26  34  35  37  46  60  67  71  67  65  72 120 117 153 179 181 182 182 182 182 183 183 183 183 182 182 182 183 181 182 182 183 181 182 182 181 181
 172 173 172 172 174 172 172 172 170 156 164 105  71  63  58  69  74  68  55  37  30  30  32  36  36  31  29  29  27  25  26  28  25  24  23  23  23  19  23  19  22  22  17  20  20  18  18  18  20  19  20  19  22  26  30  25  28  31  32  37  43  51  56  64  66  65  96 126 117 150 178 182 183 182 183 183 182 182 182 181 182 183 182 181 182 182 182 182 182 182 182 182
 172 173 173 173 174 173 173 174 172 160 136  92  62  58  58  60  57  54  54  41  30  30  30  32  28  26  25  28  28  25  26  26  29  26  22  23  23  22  23  22  21  22  18  17  19  20  20  19  22  19  19  20  22  21  25  27  27  32  33  36  42  46  49  54  61  65  78 102 126 117 156 180 184 183 182 182 184 182 182 182 182 183 182 182 182 182 184 183 182 181 181 182
 174 173 175 176 175 173 174 174 173 168 136  81  44  38  40  48  54  50  54  54  40  35  35  30  28  25  24  28  29  27  29  27  30  30  25  24  22  22  23  23  22  24  21  18  21  25  24  19  21  20  20  22  20  20  21  25  29  29  30  34  40  42  45  49  54  60  69  79 118 125 131 166 180 183 182 183 182 181 182 182 182 182 182 183 183 183 183 182 181 182 182 181
 173 174 175 176 173 174 174 172 173 169 148  90  47  34  29  33  36  40  43  43  42  43  39  32  30  29  26  29  28  27  29  29  29  30  32  30  26  24  23  23  23  22  23  21  20  23  27  23  23  21  18  22  19  18  19  22  29  43  37  35  33  36  40  44  49  55  60  73  88 111 127 130 174 182 182 182 182 181 181 184 185 182 182 182 182 184 183 182 181 181 182 182
 175 174 176 177 176 173 174 174 171 167 158 101  53  36  29  26  28  34  36  37  40  34  30  29  26  25  23  26  28  29  28  29  29  28  29  30  31  30  29  26  24  24  24  24  24  24  23  29  23  23  21  22  21  21  24  24  26  30  35  28  30  32  34  40  44  49  57  69  68  89 121 132 157 179 182 183 182 184 182 182 184 184 182 183 183 183 182 182 182 181 181 181
 175 176 175 177 175 173 173 173 170 164 158 112  66  44  33  28  26  26  30  36  46  42  40  35  30  29  26  27  29  29  29  28  30  29  28  29  29  26  29  29  29  29  29  27  26  25  23  27  26  25  24  23  24  23  21  21  25  26  29  32  30  31  35  38  42  46  52  61  66  65  78 112 149 169 180 183 184 183 183 183 182 183 184 182 183 182 182 182 181 182 182 182
 174 174 174 177 177 176 175 173 173 162 157 125  74  56  37  30  27  27  26  28  30  36  48  48  42  33  32  29  31  30  29  30  31  29  30  31  32  30  29  29  30  31  31  31  29  28  28  29  32  28  25  24  24  21  19  20  22  21  19  24  30  29  34  39  44  46  52  59  62  64  65  81 130 169 174 182 183 184 184 184 184 183 184 183 182 182 182 182 184 183 182 183
 176 175 176 178 179 178 177 174 173 167 159 141  88  65  42  33  29  29  28  28  29  28  30  40  49  47  44  38  35  34  31  30  31  33  33  32  33  33  34  35  38  39  38  37  35  35  35  39  41  38  31  29  27  26  24  23  23  19  19  20  23  24  28  34  41  48  50  55  61  62  62  70  91 146 176 180 181 186 183 185 185 183 184 183 184 184 183 183 184 184 184 183
 176 177 176 177 178 179 179 178 177 175 165 146  97  75  50  37  32  32  30  30  30  29  28  30  35  41  45  43  41  39  35  34  34  37  37  38  40  39  41  40  41  44  43  45  46  50  53  55  56  53  46  41  35  31  30  27  25  23  21  20  21  24  25  29  37  43  48  50  55  61  62  62  74  94 149 176 181 182 184 186 185 185 184 185 186 184 183 182 183 186 185 184
 178 178 178 178 178 178 179 178 180 178 171 150 111  89  58  46  37  37  35  34  29  27  29  29  31  36  39  40  42  43  42  42  44  49  54  55  57  58  62  61  57  57  57  59  61  69  76  78  75  69  64  56  48  44  40  34  31  28  24  22  22  23  25  25  30  35  42  49  53  54  60  66  68  78 103 147 171 181 182 184 183 184 186 187 185 186 183 184 185 185 185 185
 178 178 178 178 179 178 179 178 179 179 176 165 124  85  61  52  44  39  36  36  30  29  28  29  30  29  33  36  40  44  49  56  64  72  80  78  82  83  85  83  70  75  80  80  78  84  86  86  85  83  78  71  64  59  53  48  42  37  32  27  25  24  25  27  28  31  36  40  45  52  54  59  66  76  93 125 161 179 184 185 185 185 186 186 186 186 186 185 185 185 185 185
 178 179 179 179 179 180 180 180 179 179 176 174 157  93  65  56  43  38  36  37  32  30  29  29  31  31  34  36  44  53  65  77  87  91  93  95  97  97  96  96  97  94  94  92  91  91  92  89  89  89  86  81  78  73  68  61  53  47  40  35  30  26  25  28  32  35  33  34  44  48  48  54  58  70  86 111 152 175 182 184 185 186 186 186 186 186 184 185 187 185 184 186
 179 178 180 180 180 180 181 180 178 179 176 177 171 126  66  59  45  41  40  38  34  31  32  31  32  35  40  49  61  75  85  94  98 100 102 102 102 102 103 102 102 102 102 100  98  96  96  94  94  90  88  85  83  82  80  75  66  57  50  44  37  32  28  25  25  27  36  38  39  48  52  53  56  62  77  92 132 166 180 183 185 186 186 185 185 186 186 186 185 186 185 186
 179 179 180 181 180 180 180 181 179 179 179 177 170 147  96  60  52  46  42  36  34  34  33  34  35  41  56  70  81  90  96 100 100 100 103 103 103 106 108 106 106 106 104 100 100  98  98  98  98  94  92  89  84  86  86  85  79  70  61  52  46  38  32  29  26  24  23  31  36  40  48  56  62  63  74  88 100 147 175 184 186 187 186 186 186 187 187 187 187 186 185 185
 181 180 180 181 180 181 181 181 182 180 180 177 172 153 125  77  53  44  41  36  32  31  32  35  43  60  80  90  96 100 101 101 102 103 103 106 108 108 109 109 109 108 106 104 102 102 101  99 100  99  96  94  92  86  88  87  83  81  72  62  54  47  41  36  30  28  25  26  31  41  46  51  59  64  71  87  93 120 169 183 186 187 187 187 187 187 186 187 187 187 186 187
 180 182 181 181 182 181 180 182 182 180 179 177 170 154 120  80  53  48  44  37  35  34  34  44  64  84  97 104 106 107 105 105 105 106 108 110 109 109 110 110 111 108 108 107 107 107 105 102 100 100  98  95  95  94  89  91  87  83  80  73  64  55  49  44  38  32  29  27  25  33  44  51  54  60  70  80  91 111 157 176 185 187 187 187 187 187 187 186 186 187 188 187
 182 181 181 182 183 182 182 182 181 179 179 175 171 150  92  65  54  49  42  37  32  33  39  62  85  99 111 114 113 110 109 110 109 111 110 109 108 113 109 111 110 109 110 110 111 109 108 104 103 101  99  98  98  96  93  93  94  92  87  81  71  64  55  52  46  40  36  31  28  31  35  47  52  57  66  72  82  97 137 167 183 187 187 187 187 187 187 187 187 187 187 186
 182 182 184 183 182 184 184 183 182 181 179 172 157 110  72  56  48  43  38  35  33  37  50  78  97 109 116 118 116 114 114 115 111 111 112 111 111 110 109 112 110 111 111 112 112 113 109 106 106 105 102 101 100  99  99  94  96  96  92  86  81  74  66  59  53  49  43  38  33  31  33  39  49  55  60  71  76  88 116 170 181 186 188 187 187 187 188 188 188 188 186 188
 182 182 184 184 184 185 184 182 182 182 179 162 117  76  60  48  43  39  37  35  36  44  67  88 105 115 118 120 120 118 116 113 112 113 113 114 114 112 110 109 110 114 113 114 113 111 112 112 109 107 106 104 102 102 102  98  94  99  96  93  88  82  74  69  61  55  51  46  40  36  32  35  45  53  57  66  73  78  98 147 179 186 188 188 187 188 188 187 187 187 187 189
 183 183 182 184 182 184 184 183 181 181 171 140  82  62  50  43  38  38  36  35  40  60  80  94 109 116 118 119 119 118 116 114 113 114 113 112 113 112 112 112 114 116 114 115 116 114 114 112 113 109 107 106 105 103 103 102  97 103  99  96  93  89  84  77  71  64  58  54  47  40  33  31  38  48  54  60  67  73  86 112 164 182 187 188 189 187 188 188 188 188 187 187
 184 182 183 183 183 184 183 183 181 176 162  97  70  55  44  42  38  38  35  37  49  78  90 100 112 118 117 118 120 119 116 115 114 115 115 113 114 114 114 113 115 116 115 114 116 115 115 113 112 109 108 108 104 105 105 103 103 103 103 103  98  94  91  85  79  73  67  60  57  48  39  31  33  41  52  54  63  73  79  86 126 178 185 188 188 188 188 189 188 188 187 187
 184 184 183 184 184 185 184 184 183 174 126  75  61  46  44  41  38  36  35  40  61  93 100 108 115 118 117 116 119 120 118 119 117 117 115 115 114 114 115 114 114 116 113 113 113 114 115 114 114 110 108 108 105 105 103 104 106 104 104 105 104 100  99  93  86  80  74  71  66  55  44  32  28  33  46  52  55  66  78  84  97 150 181 186 188 188 188 188 188 188 186 187
 184 184 185 185 185 183 184 184 180 163  92  72  57  43  43  40  38  38  38  47  77 102 106 113 117 119 119 117 119 119 118 118 118 119 119 117 115 116 116 115 115 117 118 115 113 115 115 116 114 114 112 112 112 110 109 108 108 108 107 106 107 107 105 101  95  85  82  76  72  63  49  38  30  29  40  48  54  62  69  83 101 145 179 188 188 188 188 187 188 188 187 187
 184 184 185 185 185 185 185 183 178 134  79  68  48  43  42  38  38  38  42  53  89 106 113 115 118 119 119 119 118 120 123 122 123 120 120 119 118 116 119 117 117 117 120 119 115 117 116 118 116 113 115 118 116 115 114 111 111 111 110 111 112 112 110 109 103  96  89  86  79  72  57  40  32  30  36  49  51  57  68  78  95 134 175 186 187 189 188 187 187 189 188 187
 185 184 185 185 184 186 184 182 176 106  73  65  43  44  41  37  37  40  46  66  95 107 115 116 117 119 120 118 120 123 126 127 126 122 123 121 120 119 118 116 115 116 118 120 117 117 116 116 116 116 118 117 118 117 115 114 111 112 112 114 116 118 114 116 112 109 100  93  87  82  63  46  37  34  36  50  52  55  64  69  82 117 164 182 186 188 188 188 188 188 188 188
 184 184 185 186 185 185 182 182 167  91  69  59  44  45  40  37  39  44  51  72  97 108 114 115 116 117 119 120 121 125 125 123 122 119 118 121 120 120 120 117 118 119 121 123 119 116 115 117 120 120 118 116 119 117 116 116 111 112 114 118 119 120 121 122 121 119 111 102  96  87  70  49  38  37  38  48  54  53  59  66  73  96 151 175 186 187 189 187 188 188 187 188
 185 185 186 186 185 184 185 181 158  76  68  54  45  42  36  38  42  45  53  78 100 107 112 115 114 115 119 117 120 122 118 116 118 117 116 115 118 119 117 119 117 117 120 120 122 116 116 116 118 120 120 119 118 117 113 113 111 110 112 118 121 121 122 128 127 125 121 114 107  96  82  60  42  37  40  47  55  55  54  61  72  84 118 166 184 188 188 188 188 187 188 188
 185 184 185 185 185 186 184 179 141  69  64  53  46  40  36  39  40  46  57  80 100 106 110 112 113 114 114 113 115 116 114 113 112 109 110 111 111 116 116 117 118 120 120 121 121 118 116 115 120 120 117 116 114 109 107 106 108 109 110 117 122 124 129 130 130 130 129 121 114 108  95  71  49  39  41  49  54  54  54  55  69  76 121 152 175 186 188 188 187 187 187 188
 184 184 185 185 184 185 184 179 127  66  61  51  46  38  40  39  41  46  59  82  98 107 108 111 111 113 111 109 105 104 103 104 103 103 101 104 106 108 111 116 115 118 117 118 121 121 116 117 115 115 111 109 105 104 101 101 104 102 107 112 119 122 131 133 135 134 132 131 125 116 105  83  55  42  42  50  53  55  53  54  61  74 107 158 175 184 188 187 187 187 187 187
 185 185 185 187 185 185 183 176 116  62  57  50  43  39  38  38  39  44  58  84 100 106 108 110 111 108 108 103 101 100  97  95  94  95  93 100 102 105 106 107 109 111 109 109 110 114 109 111 109 107 103 101  98  99  95  96  99  97 100 105 110 114 122 131 137 138 138 138 133 126 114  95  65  44  39  48  57  55  55  52  54  65  87 154 181 186 189 187 187 188 187 187
 184 185 186 186 185 186 183 172 129  60  55  48  42  39  38  36  36  43  64  87 100 104 107 108 112 108 106 102  99  98  92  87  85  87  87  89  93  99  98  96 101 102 101  99 103 100 102 102 102 100  96  91  90  86  88  87  87  90  89  97 105 107 112 119 126 132 135 136 137 134 124 107  79  50  36  43  58  55  58  53  52  53  73 128 176 185 186 186 187 188 186 187
 184 184 185 186 184 185 182 171 146  64  53  48  42  41  36  31  32  41  70  92 100 105 108 107 108 103  98  94  89  80  79  79  76  78  78  78  80  82  83  87  88  91  92  95  97  96  94  93  87  87  84  81  81  77  71  71  70  74  78  79  84  88  92  95 100 112 118 121 130 133 129 119  93  57  36  34  55  56  54  55  52  53  63  98 167 181 186 186 187 186 187 187
 185 185 185 184 185 185 183 174 154  71  53  49  43  41  31  30  30  43  75  94 101 103 102  97  89  86  72  70  62  52  53  54  59  60  59  63  67  73  76  79  81  81  81  85  88  88  88  83  82  78  72  70  64  61  56  53  48  50  50  49  51  55  61  63  73  79  86 102 109 116 122 121 101  67  38  30  47  61  52  55  56  53  64  95 151 181 187 187 188 187 187 186
 184 185 184 184 185 183 183 175 163  81  53  48  44  39  31  29  30  46  79  93  98  89  83  72  66  52  44  42  40  35  33  33  34  35  38  45  52  60  63  69  72  74  78  81  86  84  79  70  70  66  61  60  55  49  46  39  36  35  34  33  32  34  39  44  47  55  68  76  90  97 100 111 108  76  43  30  39  59  53  51  58  54  58  90 146 177 184 186 185 186 186 186
 184 184 184 183 184 184 181 180 171  96  53  51  46  36  30  28  28  52  81  89  78  65  62  60  51  42  37  34  32  29  29  29  28  28  29  33  38  40  48  54  59  64  75  79  82  80  74  65  61  56  52  47  42  38  33  30  28  29  28  28  28  28  31  35  39  48  58  68  77  84  88  94 104  84  48  32  33  53  54  48  55  59  54  95 143 174 183 187 187 187 186 186
 182 184 185 184 186 184 183 183 176 119  56  51  45  35  31  26  29  55  81  73  63  52  50  50  43  39  36  34  31  30  29  29  28  29  30  30  31  33  38  45  52  63  71  78  80  78  70  62  58  51  45  39  33  32  30  29  27  28  39  41  42  40  40  44  48  54  53  60  60  64  72  78  85  83  54  33  31  45  53  49  54  63  59  88 146 174 183 186 187 187 187 185
 183 184 185 185 185 186 186 186 178 154  64  54  45  37  28  26  28  56  70  56  49  43  43  45  41  39  39  37  40  41  45  46  47  48  49  48  44  37  36  44  52  61  71  78  81  80  74  64  56  50  42  37  38  39  44  46  48  42  35  33  30  31  32  35  37  37  37  38  39  34  28  28  30  29  33  31  29  39  58  52  52  60  67  94 158 177 182 185 187 186 186 185
 184 184 185 185 185 184 184 185 181 170  83  59  45  41  29  28  28  32  27  27  30  37  40  40  41  44  50  49  49  48  47  46  38  38  36  35  36  40  44  46  55  61  68  78  81  83  79  73  61  45  36  32  34  37  38  41  45  47  49  49  49  50  54  62  64  69  73  76  76  80  75  72  56  30  25  22  23  26  68  52  51  56  72 104 171 182 184 186 186 186 186 184
 184 184 185 185 185 185 186 185 182 179 107  65  51  28  26  25  24  34  38  55  61  61  62  63  64  70  74  77  75  70  67  64  58  56  54  51  52  52  44  36  26  38  51  58  64  69  60  43  28  25  38  55  53  45  42  43  44  45  46  49  54  57  60  66  70  76  86  86  84  80  76  80  84  68  35  22  20  26  62  52  51  52  74 127 177 185 187 186 186 185 184 185
 184 185 185 185 186 185 186 185 184 182 139  71  58  26  22  24  39  37  33  55  60  61  66  67  68  66  65  63  59  56  52  50  49  48  50  49  49  52  51  55  35  24  25  26  29  27  26  26  24  39  66  54  44  40  40  38  38  39  38  40  47  50  49  49  52  63  72  82  79  76  74  73  81  76  46  23  21  23  61  50  50  52  72 134 178 183 185 184 185 185 185 185
 182 184 184 185 185 184 185 184 184 182 167  80  61  26  23  26  44  32  31  61  60  63  66  63  54  50  55  62  67  66  60  51  43  39  39  43  46  48  50  55  51  22  22  24  30  28  26  25  24  58  58  45  39  38  38  35  35  39  42  48  50  52  53  55  56  55  56  55  67  72  69  66  69  64  49  28  26  25  61  51  50  51  69 133 175 184 184 185 183 183 185 186
 183 184 185 185 184 185 186 186 184 182 174  98  66  23  24  26  43  30  33  61  60  66  64  52  52  60  55  47  37  37  33  34  37  40  40  41  45  48  49  57  55  23  25  30  40  42  34  28  26  58  54  42  39  39  39  39  40  39  36  31  30  28  27  30  40  47  57  55  46  60  62  59  56  52  48  34  28  31  49  57  49  51  75 141 176 183 184 185 184 185 184 184
 182 184 183 184 184 185 184 186 186 185 179 131  73  48  24  26  46  30  34  62  66  69  61  57  58  47  43  48  30  30  27  28  29  43  40  42  52  56  61  63  54  26  25  50  87  93  68  35  30  55  60  43  44  49  46  38  41  54  45  33  33  30  28  34  56  47  42  48  50  51  57  59  61  57  50  32  27  28  34  47  41  54  94 161 179 183 183 185 186 185 185 184
 182 182 182 183 183 184 186 186 186 185 181 161  69  51  31  26  49  34  41  61  69  70  63  60  43  52  69  70  40  35  34  36  40  59  54  44  54  75  78  76  49  27  35  94 114 122 108  58  32  48  81  65  63  61  47  47  55  69  63  40  37  35  35  44  69  69  58  46  50  55  61  69  75  77  59  32  36  35  41  41  38  57  98 167 180 184 184 185 186 185 184 183
 182 185 184 184 185 185 186 185 185 184 182 173  98  46  35  28  51  46  56  69  70  66  57  47  48  57  71  75  57  42  43  47  59  68  66  66  72  78  78  82  42  27  56 124 141 146 135  93  30  36  86  80  75  75  76  73  68  70  67  53  48  45  42  56  66  67  64  65  65  68  73  87  98 101  63  29  54  47  48  52  41  61 114 165 182 184 184 183 184 184 183 184
 182 183 182 184 184 185 186 185 185 186 184 179 139  50  38  28  54  57  71  79  76  67  63  65  61  60  63  67  68  62  67  71  70  70  71  73  81  84  76  86  30  24  82 134 149 153 142 115  35  33  74  92  81  80  78  71  64  61  59  58  59  56  57  59  64  71  78  83  89  95 100 113 120 118  62  32  76  52  50  49  49  67 125 171 178 182 184 184 183 183 183 183
 182 183 183 184 184 186 186 184 184 184 184 182 157  70  44  29  52  77  88  90  84  76  75  72  68  64  63  64  63  65  63  64  62  66  70  75  83  84  86  76  30  30 104 132 149 154 142 128  55  31  52 104  97  88  84  78  67  57  52  50  52  53  53  59  67  74  82  91 100 109 120 133 136 128  48  48  94  64  53  52  55  72 126 172 179 182 183 184 183 184 183 183
 184 184 184 183 184 186 185 185 186 185 183 184 170 100  55  32  36  85  95 102  97  84  79  73  69  64  62  62  59  61  62  64  68  73  78  84  87  91  96  52  30  48 115 128 142 152 148 134  85  31  31  96 110 103  95  87  77  68  56  50  49  48  50  53  61  70  79  93 104 117 128 139 142 123  40  71 109  74  55  59  66  92 146 177 182 182 183 184 183 184 183 183
 184 182 184 183 184 184 186 184 184 185 185 183 175 131  70  43  31  81  99 109 105  95  84  75  66  64  63  63  63  66  69  73  76  82  88  94  94  99  98  28  26  76 119 130 144 156 148 138 112  42  30  59 111 111 109 104  95  86  76  69  62  59  59  62  69  80  90 102 111 122 132 140 138  83  33 106 120  82  57  60  71 124 170 178 182 183 184 183 184 183 184 182
 182 182 183 182 182 183 183 183 184 185 186 185 177 150  80  57  31  56 107 110 110 102  91  81  74  74  73  75  76  77  76  79  85  87  90  94  92  94  48  29  40 105 125 135 148 159 154 142 124  77  34  32  66 110 111 107 100  95  93  90  83  81  79  78  82  90  98 110 114 120 126 110  64  34  77 129 124  92  62  61  70 141 177 180 182 182 183 183 183 184 183 182
 182 182 182 185 184 185 185 185 183 185 184 185 182 169  80  68  71  30  62  90 103 106  98  89  84  81  79  80  81  81  84  88  93  94  96  86  70  38  33  38  79 114 127 136 148 157 154 146 135 117  62  50  32  38  61  75  83  86  88  90  89  82  82  81  84  88  88  82  71  59  39  39  68 110 136 134 128  95  64  58  72 143 178 182 182 183 183 184 184 184 182 182
 182 183 182 182 183 183 186 185 185 185 185 186 184 172  92  72  99  97  69  47  34  32  47  59  62  63  60  61  66  64  65  59  50  37  29  36  39  51  62  64 105 114 128 134 146 149 152 147 141 129 105  73  84  76  57  45  40  37  40  38  43  44  45  43  45  44  51  58  66  81 112 131 141 142 139 135 130  98  67  56  76 148 179 181 182 183 183 184 183 183 182 183
 181 182 182 182 182 182 183 185 183 185 185 185 182 177 116  77 103 108 113 112 108  96  79  71  59  55  52  54  55  56  59  62  66  76  84  84  78  71  67  90 110 120 131 134 141 148 150 145 143 141 124  97  83  96  94  92  92  90  92  96 102 102 101 106 105 106 110 115 121 127 131 137 143 144 140 134 129 102  67  56  76 152 177 181 182 183 184 184 184 183 183 182
 183 183 182 184 183 184 184 184 185 185 185 184 183 179 149  84 104 110 113 108 107 107 103  99  94  89  84  83  83  85  85  86  85  87  84  81  75  70  82 102 113 122 132 131 136 145 145 145 147 141 132 116  92  93  91  83  86  91  93 100 106 108 111 111 113 114 116 122 128 134 136 136 140 142 141 135 129 102  67  58  86 165 178 181 182 182 182 182 183 184 183 182
 182 182 183 184 184 185 184 184 185 185 185 186 183 182 154  92 107 110 108 105 105 102 100 102  99  91  89  88  85  83  82  84  83  83  81  76  69  83 104 111 118 126 127 125 132 142 139 138 147 152 141 130 124 107  90  78  82  87  91  99 107 110 112 115 118 118 118 124 128 131 133 134 135 138 140 135 129 104  69  66  97 173 179 181 182 182 182 183 183 183 182 183
 183 182 183 183 184 184 183 183 185 185 185 186 182 185 168 106 106 110 106 104 103  97  95  95  96  95  91  90  86  82  80  80  81  80  75  71  76 107 112 114 117 127 126 125 126 131 128 126 140 155 145 137 137 129 106  77  78  82  87  92 103 108 111 112 122 123 123 124 127 131 130 130 134 135 135 134 130 106  76  77 112 173 177 181 181 182 183 182 183 182 182 182
 182 182 184 183 184 184 184 182 185 185 183 185 183 183 169 117 104 112 106 103 101  98  93  95  96  97  91  91  88  84  83  83  83  81  77  76  91 108 105 101 103 111 114 117 121 122 118 117 123 136 125 121 127 134 127  82  72  81  87  92 100 104 111 114 122 124 125 129 130 132 133 133 132 134 134 134 130 110  90  82 129 173 177 181 182 183 182 182 182 181 182 182
 181 181 180 183 183 183 182 184 184 184 185 185 185 182 169 116 102 110 105 100  98  97  94  99  99 101  98  97  95  92  93  94  94  91  87  83  91  98  91  85  86  93  94  98 102 102 104 107 103 102  96  96 104 115 115  89  68  79  85  90  97 101 107 113 119 122 127 128 131 131 130 132 132 133 133 134 129 115  92  93 142 174 178 180 179 182 181 182 182 182 182 181
 182 181 181 181 182 183 184 184 184 184 184 185 185 184 173 120 103 110 104  99  99  99  99 100 101 104 104 103 106 101 100 100  99  95  88  82  81  80  76  71  72  76  83  86  86  87  86  88  89  85  74  73  80  86  92  81  77  85  91  96 100 104 110 114 119 123 125 127 130 130 129 131 132 132 132 134 129 118 102 110 148 176 178 180 178 182 181 180 182 181 182 182
 179 181 180 181 181 182 183 184 184 185 185 185 185 184 178 128 102 108 104  98 101 100  98  99 102 107 107 106 106 103 101 101  98  92  89  82  70  64  61  53  47  59  68  69  70  71  71  73  79  57  42  45  56  66  75  76  81  86  90  97 100 105 111 119 125 124 123 127 129 131 131 132 133 131 132 132 128 121 118 132 157 175 178 179 180 180 180 180 178 178 181 181
 180 180 180 181 182 182 182 182 183 183 182 182 183 183 178 134 107 109 102 101 101 100 100 105 107 107 104 104 104 102 100  98  94  91  90  84  69  54  47  40  35  37  55  59  58  59  59  65  61  44  37  38  46  58  66  78  85  88  89  93  98  99 107 112 121 124 124 124 127 130 130 130 128 128 130 133 127 118 121 145 166 176 177 180 180 180 179 180 177 177 178 178
 180 179 181 181 182 182 182 182 183 182 182 183 183 183 178 141 105 107 103 101 100  99 105 107 107 108 106 104 101 100  96  94  92  89  90  86  73  56  43  36  34  42  47  51  54  52  57  61  54  56  50  41  45  53  64  86  94  96  93  93  94  96 102 109 117 120 122 124 128 129 127 128 129 128 131 132 123 114 114 146 164 175 177 178 178 179 179 178 178 176 177 179
 180 180 180 182 181 181 181 181 181 181 182 182 183 183 179 139 101 107 104 101 100 101 104 106 106 105 102 102 101  99  96  92  89  92  92  87  79  68  56  48  43  45  51  50  52  54  58  53  58  67  60  58  63  67  79  95 103 103 102  94  90  93 100 107 111 118 121 122 124 128 128 127 129 130 134 133 123 112 115 144 163 174 176 178 176 177 179 178 178 178 178 177
 180 180 179 180 180 181 182 181 181 182 181 182 181 181 178 123  96 106 104 101 103 102 102 101 102 101 102 101  98  96  93  92  92  94  96  91  83  74  72  68  66  61  65  61  51  48  47  51  66  84  83  77  81  89  94 103 107 111 109 103  94  92  98 104 110 114 119 120 123 124 124 125 130 131 131 133 125 114 110 134 154 171 174 176 176 176 176 177 178 177 176 176
 177 179 178 180 181 182 182 182 182 182 180 181 181 180 179 125  93 104 102 100 102 101 102 101 100 100  98  96  94  90  88  95  97  96  97  93  90  88  85  82  80  75  74  66  57  50  49  52  65  86  95  96  97 102 105 111 113 113 112 112 106  98  98 102 108 113 115 121 122 122 124 125 127 128 131 132 127 113 101 110 135 166 171 173 174 175 175 175 176 176 176 175
 175 178 178 180 180 180 181 181 181 181 180 180 180 180 179 107  91 103 101 100 100  98 100  99  98  98  95  92  89  87  90  96  99  99  98  98  98  97  95  91  87  83  80  71  61  54  56  58  70  90 101 108 108 110 112 116 117 115 113 114 112 106 102 101 105 108 111 116 119 122 123 125 127 125 129 133 125 112  94  92 126 166 169 171 173 174 175 175 175 174 175 175
 175 176 177 177 179 180 178 180 180 181 180 181 180 180 176 103  94 104 104 100  99  99  96  97  98  96  94  90  87  88  90 100  99  98  99 100 101 100 100  99  96  90  85  76  66  59  60  65  80  95 106 113 113 111 117 122 118 115 112 111 111 111 106 100 104 104 106 111 114 118 118 120 125 123 127 129 123 108 101 120 160 168 169 170 171 172 174 173 173 174 175 175
 176 176 176 177 178 179 179 180 180 181 180 181 180 179 175 141  97 103 101 100  98  97  95  95  93  90  90  89  87  90  93  98  98  98 100 102 104 103 105 105  99  94  89  83  71  62  64  73  84 100 111 118 119 123 125 124 123 117 110 106 107 107 108 101 100 104 105 108 113 117 117 119 119 123 125 128 120 107 117 158 166 168 168 168 168 170 173 172 171 171 172 173
 176 176 175 176 177 177 178 179 179 180 180 180 178 179 176 162 107 102  99  99  96  96  94  92  91  88  87  88  88  90  92  91  90  97  99 102 104 105 106 103  99  94  93  92  89  83  83  86  87  92 101 113 120 124 128 128 125 120 110 105 103 105 108 104 100 102 105 108 109 115 116 116 116 121 126 126 119 103 121 161 166 167 167 168 169 168 170 169 169 170 170 170
 175 175 175 175 174 175 176 176 177 177 179 177 178 178 177 168 108 101  98  95  96  95  96  94  89  87  86  87  87  90  91  87  87  94  99 103 103 103  99  85  75  66  68  75  81  81  80  75  66  59  62  68  82  99 114 119 124 124 113 102  95  97 103 105 102 102 105 109 114 113 116 114 112 115 120 121 115 105 135 160 166 166 166 167 168 167 169 167 168 169 169 169
 174 174 175 174 174 176 175 176 176 176 176 175 177 177 179 173 119 101  98  95  95  95  92  91  89  88  86  89  90  91  86  79  80  87  95  96  93  84  69  55  53  52  52  50  51  56  54  51  51  52  56  53  48  54  69  86 102 109 104  88  85  85  93 102 101 102 105 108 110 115 111 110 113 110 114 120 114 103 141 159 164 164 165 166 166 166 167 168 168 167 167 168
 174 173 174 173 173 174 175 176 176 175 175 175 175 176 175 173 128  99  98  94  94  93  90  87  88  90  88  87  88  86  79  69  68  71  80  78  66  50  44  45  45  46  46  44  45  42  43  42  43  45  47  43  39  38  39  46  60  75  79  64  59  69  83  92 100 102 105 107 108 108 105 105 110 111 112 116 111 105 144 159 163 161 164 163 165 166 166 166 166 167 166 166
 172 172 173 173 173 173 173 174 175 175 174 174 175 175 175 172 147  94  94  92  92  88  87  88  91  92  90  86  85  78  69  58  50  53  56  46  38  35  35  36  36  38  38  36  37  31  33  36  39  41  45  51  60  54  51  46  44  48  48  42  44  60  72  84  93 100 104 107 106 106 103 101 110 110 109 115 105 107 146 159 161 161 162 163 162 165 166 166 165 166 166 166
 172 171 172 172 172 172 172 174 173 173 174 173 174 173 173 170 155  96  96  89  89  83  82  85  90  91  91  87  81  72  66  57  48  47  45  40  39  45  52  59  58  59  66  64  57  53  54  60  63  68  68  72  79  80  81  85  86  86  93  91  84  76  78  82  89  97 103 105 105 104 104  98 104 111 107 114 102 112 152 157 161 160 160 162 161 162 164 165 163 163 165 164
 170 170 172 171 172 172 172 173 172 172 171 173 174 173 173 172 168 106  99  87  86  80  79  82  86  89  89  87  83  76  74  73  75  80  83  81  75  72  72  68  66  64  67  65  64  60  61  63  63  66  66  70  74  81  87  92 100 108 114 112 105  94  86  83  84  91  96  99  98  99  99 101  98 106 106 109 104 129 153 156 158 159 160 160 159 161 163 162 162 161 162 162
 170 170 171 171 170 171 172 171 172 171 172 172 173 173 172 172 164 125  96  89  83  81  79  77  82  87  87  85  79  78  79  83  88  92  91  90  88  81  76  73  70  68  64  60  59  59  60  61  62  65  67  70  73  82  89  92 101 109 115 115 111 105  92  87  86  90  94  95  93  96  96 101  99 100 104 101 101 140 154 156 157 159 158 157 158 158 160 159 159 160 162 162
 169 169 171 171 169 170 170 169 171 171 171 172 171 171 172 171 165 136  93  86  81  79  73  70  74  80  81  81  76  77  81  88  90  90  90  89  88  81  73  66  61  56  53  50  47  47  49  50  52  54  57  59  66  74  83  90  99 103 109 110 109 108  99  92  87  86  89  94  92  94  91  96  94  96  99  96 111 148 153 156 155 155 156 156 155 156 157 156 158 158 158 160
 168 167 167 169 169 169 169 170 170 170 170 172 170 171 169 169 168 156  96  86  80  72  68  67  71  76  77  78  76  80  83  86  88  87  86  86  86  83  76  72  65  58  51  46  45  44  45  46  48  49  54  59  69  76  80  85  91  96 103 106 107 108 104  96  89  86  86  88  87  90  87  87  91  92  92  86 122 151 154 155 153 153 154 155 154 155 153 155 157 156 157 158
 168 167 167 168 168 168 168 168 170 168 168 170 168 168 168 168 166 162 117  82  76  71  68  65  68  71  76  77  76  78  79  82  81  81  80  82  81  80  76  72  67  64  61  61  60  55  56  56  56  59  58  61  67  74  77  79  84  90  95 100 102 103 102  98  93  87  85  86  87  87  82  85  88  90  85  88 135 151 153 153 153 152 154 154 153 154 154 155 155 155 155 154
 167 167 168 167 167 167 168 168 168 169 168 168 167 168 166 168 168 166 143  81  72  69  68  65  68  72  75  77  76  77  78  80  77  77  78  79  78  78  75  72  72  72  73  72  70  70  67  67  68  69  69  69  70  76  79  82  87  90  90  94  98  98  99  97  91  89  88  88  86  85  86  86  88  87  81  97 143 151 151 151 152 153 152 152 151 153 152 154 154 153 153 153
 165 165 166 164 166 167 167 167 166 167 167 166 166 166 167 167 167 166 158 100  70  67  67  67  70  71  74  74  76  77  79  80  79  78  78  80  81  79  78  76  76  77  77  78  76  76  75  76  77  78  79  78  79  82  86  88  93  95  96  95  99  99  95  96  94  88  86  86  86  85  84  91  92  84  80 128 147 150 152 152 151 151 151 151 151 152 151 152 152 150 151 152
 165 164 164 164 165 165 166 165 167 166 166 167 167 167 166 165 166 165 162 142  67  64  61  66  68  71  72  73  74  75  78  78  78  77  78  82  85  83  82  83  82  85  88  91  89  88  90  91  94  95  95  93  91  90  93  94  98  99 104 104 104 105 101  96  94  90  86  85  84  89  80  84  84  74  85 141 148 149 150 150 150 150 150 149 150 149 150 150 149 149 148 152
 163 164 162 163 164 165 165 165 166 166 165 165 164 165 166 165 165 163 163 154  90  60  57  62  67  70  70  71  74  76  77  78  76  80  83  87  86  86  89  93  96  96  97  99  97  98 102  99  99 102 105 108 107 102  99 100 103 102 103 108 108 108 104  98  94  90  85  84  83  85  80  78  71  68 116 145 147 148 148 147 148 148 149 149 148 147 148 148 148 147 148 150
 162 162 161 163 162 165 164 164 163 163 163 162 164 165 165 165 163 162 164 159 125  54  55  56  62  66  69  72  76  78  79  80  82  84  86  87  90  90  94  97  98  97 100 101  98 101 101 100 102 105 109 114 113 109 106 103 103 105 106 109 109 106  99  98  94  89  86  85  78  78  76  75  63  79 137 146 146 146 147 146 148 147 146 146 146 143 145 144 146 146 147 147
 160 161 162 161 163 162 163 162 163 163 162 162 163 162 163 162 162 160 160 159 154  71  50  52  54  58  66  68  70  75  78  80  84  84  86  90  92  94  96  96  97  97  98 100  99 100  98 101 104 106 108 113 114 111 110 108 108 109 110 109 107 104  99  96  92  89  86  81  78  75  71  64  54  83 136 144 146 146 146 145 146 146 145 145 144 143 144 144 145 144 145 146
 161 161 161 161 161 162 161 161 162 161 162 162 161 161 162 161 159 158 156 119  70  44  39  46  49  54  63  64  66  71  75  78  82  84  86  89  93  97  97  97  94  94  94  95  96  94  93  98 101 105 108 114 115 112 111 110 112 113 110 107 105 103 101  96  91  88  80  76  76  73  64  51  42  47  70 114 138 142 143 143 144 144 141 143 142 143 144 141 142 142 141 144
 161 161 159 160 160 159 159 160 161 161 161 161 160 160 158 155 148 102  54  42  37  28  39  45  48  49  54  59  64  65  68  73  79  81  85  87  91  94  94  93  91  93  93  91  89  87  87  88  92  96 104 110 115 112 109 110 111 110 108 107 105 100  94  90  86  83  76  71  68  64  56  53  40  34  43  45  55  86 120 140 140 140 140 140 140 140 141 141 139 140 140 141
 161 160 160 158 160 159 159 160 158 159 158 159 156 155 145  83  42  39  35  32  27  24  77  74  50  44  49  52  54  60  61  65  73  79  84  85  87  90  94  87  87  89  88  86  82  78  76  78  83  87  94 101 105 108 107 106 107 107 103 103 103  97  89  84  80  74  70  61  58  58  66  70  73  31  34  40  41  42  40  49  81 114 137 139 140 140 141 142 140 140 142 140
 161 158 156 157 157 158 156 159 155 155 153 152 125  76  43  36  34  31  29  25  23  46  87  87  70  46  37  42  46  50  52  56  61  68  75  81  80  83  86  84  83  80  81  79  74  68  66  69  74  79  85  89  92  98  98  96  95  97  95  93  95  88  85  78  70  67  60  56  52  68 102  84  85  56  28  34  39  36  33  32  36  36  73 124 137 137 138 138 139 138 139 139
 158 156 156 153 155 154 154 154 153 150 104  63  38  36  31  29  27  27  26  24  23  72  90  88  80  66  43  34  37  38  42  46  50  58  63  67  70  72  76  75  76  74  72  71  68  59  56  62  66  70  72  76  81  80  85  84  86  85  87  84  81  76  71  65  60  56  52  52  63  96 114 108  79  73  32  28  34  35  34  28  27  29  36  46  67  97 126 135 135 138 139 138
 154 154 154 153 153 153 146 118  71  42  39  35  32  29  28  26  25  24  23  21  23  81  90  87  81  75  65  46  30  29  32  38  40  45  50  56  62  59  62  64  67  67  61  59  57  53  53  56  56  58  63  64  67  68  72  70  75  72  75  70  62  59  55  51  51  52  49  71  93 108 119 120  84  78  46  26  33  34  35  31  27  27  30  34  38  42  42  65  91 114 131 134
 153 154 152 151 144  99  52  35  35  33  29  27  28  27  25  24  24  21  21  21  26  86  88  87  81  74  69  58  43  29  27  30  31  32  37  44  50  50  48  52  55  56  53  52  49  48  50  50  50  53  54  57  59  56  56  54  57  52  56  50  48  46  47  45  47  52  64  90 105 111 120 122  94  80  53  25  27  30  33  31  27  27  26  29  32  34  36  37  39  38  50  80
 151 149 115  76  41  39  33  29  29  27  27  27  27  26  24  22  22  20  20  21  33  88  89  87  81  76  72  67  59  43  31  26  26  26  30  34  41  44  38  40  43  44  43  46  43  42  43  46  46  45  46  51  52  47  46  40  42  41  39  37  37  39  42  48  51  63  86  96 105 114 119 121  96  80  59  28  27  30  33  28  28  27  26  26  29  33  33  32  34  34  35  38
  96  53  40  36  30  29  27  28  26  25  26  25  24  22  21  20  20  20  19  20  39  86  90  87  82  76  70  65  62  56  46  36  28  25  27  29  33  35  31  33  33  34  33  40  34  34  37  38  37  34  34  40  38  36  33  31  30  28  28  28  32  37  43  52  65  80  91  99 104 111 119 120  98  79  62  30  26  29  31  29  27  27  27  26  27  28  32  32  32  31  32  32
  40  36  31  29  27  27  26  26  25  25  24  24  23  21  19  19  19  19  18  19  38  88  88  85  79  75  72  65  64  60  54  50  42  31  25  26  28  28  27  29  26  29  30  31  28  30  31  30  30  30  29  30  32  29  26  25  25  26  27  29  36  38  49  66  81  89  93  98 104 112 119 120 102  81  65  32  24  27  29  28  27  27  27  27  27  27  32  32  31  29  31  30
  31  28  26  26  25  25  25  24  24  23  22  23  22  19  19  18  18  18  18  18  35  87  86  83  80  76  70  68  65  62  59  54  50  42  32  27  24  24  24  22  24  24  25  24  24  25  25  27  26  27  26  24  26  24  25  25  26  26  29  33  41  50  66  78  88  92  94  98 105 113 119 122 101  78  60  32  22  26  27  28  26  27  26  26  26  26  28  30  31  28  28  28
  27  26  24  25  23  25  24  23  23  21  20  21  21  19  17  17  18  18  17  18  23  85  86  81  80  77  72  67  68  64  63  60  54  50  42  35  26  24  22  24  24  23  23  21  22  23  23  25  24  24  25  25  25  25  27  26  27  29  32  38  49  69  74  84  90  92  96  98 104 113 117 120  93  68  58  30  21  26  26  28  27  27  27  25  24  25  27  28  28  28  30  30
  24  22  22  23  22  24  23  23  21  20  20  20  21  18  17  17  18  17  17  18  20  76  86  83  80  77  72  68  64  64  63  64  59  55  49  45  36  28  26  24  24  24  23  23  22  22  24  24  24  25  25  26  25  26  27  29  27  33  40  55  70  74  81  86  91  94  98 100 105 112 116 117  87  66  50  27  22  25  26  27  26  27  28  25  24  25  25  27  28  28  28  27
  22  21  24  23  22  22  23  22  20  20  19  20  20  18  18  18  17  17  16  17  19  60  83  83  79  77  72  69  68  66  64  64  63  58  54  52  44  36  29  28  27  25  23  22  24  23  23  23  23  23  24  24  23  25  28  30  34  43  61  69  73  77  80  86  91  96  98 100 107 112 115 113  81  61  45  23  20  21  21  25  26  27  27  25  24  23  24  26  27  27  27  28
  20  21  23  20  20  21  20  19  18  17  18  18  19  18  16  17  16  15  16  16  17  38  80  82  79  76  72  69  67  68  66  64  62  61  58  55  50  44  37  30  29  30  29  27  25  25  23  24  24  24  24  24  25  28  33  39  46  58  68  71  73  75  80  84  90  93  95 100 105 110 114 105  72  57  40  20  20  22  22  22  25  27  27  26  25  23  25  25  26  27  27  27
  21  19  20  20  19  20  20  17  17  17  18  18  18  17  17  16  16  15  16  15  16  22  76  80  80  72  70  69  69  69  68  67  66  64  62  57  55  50  46  39  34  31  30  33  31  29  29  29  27  27  27  29  30  36  41  50  56  65  68  71  74  76  80  84  89  92  94  96 104 112 112  98  63  51  31  20  20  21  21  22  24  27  27  26  25  25  23  26  26  26  27  27
  19  20  20  19  19  19  18  18  17  17  18  16  17  17  18  14  14  14  15  14  15  15  53  81  78  72  70  70  69  68  69  67  67  66  64  60  58  52  50  45  40  34  31  32  33  31  31  30  30  29  29  33  37  44  51  53  60  68  69  69  74  78  82  85  90  91  95  96 102 110 109  81  57  42  24  19  20  20  20  20  22  26  26  25  23  23  21  22  26  26  27  26
  20  19  20  19  19  18  19  18  17  17  16  17  17  17  17  15  14  14  15  15  15  15  29  73  77  72  69  69  70  70  68  70  68  67  65  64  61  56  54  50  45  41  39  37  35  34  33  32  33  32  34  38  43  50  53  55  63  69  69  71  74  78  82  88  90  91  94  96 102 109 104  67  58  34  20  19  18  19  20  21  23  26  26  24  21  22  21  22  24  24  27  27
