P2
# Generated by OpenCV 3.4.0
92 112
255
 171 172 172 172 173 175 176 173 176 177 176 177 177 175 177 178 178 178 178 177 178 178 177 179 177 121  58  55  60  44  33  39  46  50  62  70  70  70  69  74  80  80 103 135 166 177 180 181 182 182 183 182 183 184 184 184 186 184 184 184 185 184 185 186 185 186 185 185 185 184 183 185 183 183 183 183 182 184 183 182 184 184 184 186 184 185 183 183 182 184 183 183
 171 172 172 174 175 174 174 177 176 176 175 177 175 177 178 178 178 177 178 179 178 178 176 173 145  69  63  59  51  34  32  48  57  56  52  42  38  52  60  54  58  69  75  76  89 114 150 168 178 178 178 179 179 180 181 183 184 183 183 183 184 185 186 186 186 186 186 185 185 185 184 185 184 186 184 185 183 184 183 185 185 184 184 186 184 184 184 183 182 183 183 183
 172 172 174 174 173 175 176 176 176 176 177 177 177 177 179 178 178 177 178 179 177 176 168 148  87  65  51  49  39  30  41  50  40  39  31  31  41  53  56  63  61  61  60  61  62  72  87 101 118 140 144 140 144 148 159 171 178 181 182 183 185 185 186 186 186 186 186 186 185 186 184 186 183 185 183 186 185 186 183 183 184 185 186 185 185 183 184 184 183 183 183 183
 171 172 172 174 174 173 176 176 175 175 177 176 175 177 178 178 175 174 174 172 166 144 119  81  63  48  43  36  29  28  34  34  36  31  28  32  43  51  50  45  49  50  50  50  47  49  58  60  58  68  79  85  87  76  79  90  94 117 150 177 182 185 185 185 186 185 184 186 187 187 186 186 186 185 186 186 186 185 185 185 186 184 186 184 185 186 185 183 183 182 183 184
 173 173 174 174 172 173 172 174 175 177 176 175 175 176 175 172 169 159 149 126 102  97  72  55  48  37  30  28  28  27  31  31  29  26  29  30  34  36  36  34  37  42  40  41  41  39  38  46  56  64  62  71  77  81 106 145 157 142 116 104 146 177 181 184 185 186 186 187 186 186 186 186 186 186 186 185 185 185 186 184 185 184 184 185 187 184 185 184 183 183 183 183
 172 173 173 175 172 172 172 173 173 176 176 172 169 164 153 137 129 124  99  85  77  61  46  42  34  27  26  26  26  28  29  29  26  25  26  29  29  31  30  28  30  34  33  33  35  34  36  43  47  48  59  56  51  54  62  77  95 110 118 139 110 116 169 178 183 183 186 187 186 186 186 187 186 185 187 187 186 187 186 187 185 184 186 185 184 184 183 184 183 182 182 184
 172 173 174 174 173 173 173 171 169 169 164 150 134 116 108 108 103  88  80  66  48  41  42  38  27  25  24  25  24  26  29  25  24  24  23  24  25  26  26  26  29  28  28  29  30  31  31  29  33  40  40  39  36  38  62  68  86 106  97  76  83  84 105 159 178 183 184 186 186 186 186 187 186 186 186 186 185 186 186 186 184 183 185 183 185 184 184 184 183 184 183 182
 172 170 172 174 172 172 171 171 160 137 115  97  94  93  90  78  71  65  51  38  35  36  39  30  26  24  24  24  24  23  28  24  23  23  23  22  20  22  23  24  24  24  23  27  29  27  28  29  30  30  30  33  35  37  40  46  52  64  71  76  77  82  75  90 152 180 182 184 185 186 186 187 186 186 186 185 184 184 186 186 184 186 185 185 185 184 185 185 183 185 184 183
 172 172 172 172 173 170 166 144 109  88  79  78  87  91  69  57  52  41  34  31  33  35  31  30  27  23  23  25  25  22  25  24  24  21  20  19  18  21  22  22  23  19  23  27  25  26  29  30  32  30  33  37  35  35  36  35  38  50  58  66  68  71  66  68  87 140 179 182 183 186 186 186 186 186 186 186 184 184 185 185 185 185 185 186 185 184 184 185 184 184 184 184
 172 175 173 171 167 168 128  90  68  62  69  81  80  70  60  48  37  31  30  30  31  32  28  27  26  22  23  24  24  22  25  22  23  22  22  18  17  19  20  23  22  18  22  24  24  23  21  24  22  22  25  30  32  33  34  35  38  50  64  77  91  87  75  65  75  98 145 178 184 185 185 185 186 186 186 185 185 185 185 185 186 185 186 185 186 184 184 186 185 186 183 183
 172 174 172 169 157 127  80  63  53  52  54  56  52  57  60  47  35  30  31  30  29  27  24  25  25  23  24  24  24  22  26  20  21  20  19  17  17  20  19  20  20  19  21  22  22  19  18  23  21  21  20  23  24  29  34  37  35  40  52  66  66  89 112  92  69  82 105 159 180 186 186 186 186 186 186 185 185 183 185 186 185 185 184 184 186 186 184 185 185 185 185 184
 173 175 172 163 156  91  63  49  49  51  53  57  54  53  50  58  44  31  30  28  25  23  22  24  26  24  24  24  23  24  25  24  20  20  19  18  17  18  20  20  20  19  19  20  22  19  18  21  19  18  20  21  20  24  27  32  35  38  42  49  55  61  79  96  96  76  96 128 164 183 185 186 185 185 184 185 184 186 185 186 186 185 186 185 184 185 183 184 185 184 185 184
 173 175 171 159 143  79  46  36  32  33  34  44  45  52  51  49  54  49  33  28  23  21  21  24  26  26  25  24  24  25  24  26  24  20  19  19  18  18  19  19  21  20  18  17  19  20  25  26  22  19  20  19  18  23  25  28  31  37  44  46  52  53  54  64  82  76  78 128 132 179 184 185 184 184 183 185 186 185 185 185 186 186 186 185 185 185 185 184 185 186 185 184
 173 172 170 153 138  70  43  31  26  25  28  31  34  34  37  46  50  48  43  43  37  30  28  28  28  28  27  25  27  24  24  25  27  26  22  20  20  20  20  19  20  24  20  18  20  20  21  29  21  19  21  22  21  22  24  23  29  35  43  44  46  50  52  55  62  70  74 130 120 146 181 185 184 184 186 185 184 184 185 184 185 186 185 185 184 183 184 184 184 184 184 183
 172 169 166 152 121  63  48  32  24  23  24  23  25  28  31  33  35  39  37  32  30  26  23  23  26  29  27  25  28  28  27  27  28  27  28  28  26  24  23  21  21  24  23  20  20  19  18  23  30  22  23  23  22  22  20  22  29  32  42  50  43  43  49  55  59  58  65 101 152 128 167 182 186 186 187 185 184 184 185 185 186 186 185 184 183 182 184 183 184 184 185 184
 171 169 163 152 113  70  55  33  27  24  23  24  23  22  23  27  35  39  39  39  33  29  25  20  23  28  27  28  29  29  27  26  29  29  28  26  27  26  28  27  28  26  24  23  24  23  24  23  26  25  21  21  21  22  24  27  29  29  30  36  42  42  45  47  52  57  64  75 110 123 156 176 184 186 187 187 186 185 184 184 186 185 185 185 184 185 184 183 185 185 185 185
 172 171 161 151 115  86  53  38  29  26  24  24  24  22  17  18  25  30  35  42  44  40  33  28  28  28  28  27  28  30  32  28  28  30  31  30  29  29  29  30  30  28  29  29  30  27  26  23  23  26  25  23  24  22  20  22  21  22  26  30  37  44  46  48  53  54  60  68  84  90 141 167 181 185 186 186 186 186 186 185 185 185 185 186 185 186 185 184 184 184 183 186
 171 171 166 149 116  88  59  38  30  28  26  24  25  24  20  20  23  25  28  30  34  42  41  40  34  31  31  32  29  29  31  32  29  30  30  32  34  34  32  33  34  33  32  33  32  33  33  32  29  26  28  25  24  20  19  19  20  19  21  23  28  37  45  49  52  57  62  67  75  89 106 163 177 182 185 186 186 186 186 186 185 186 186 187 186 185 187 185 186 184 184 185
 172 173 169 151 114  88  67  36  32  30  28  28  26  23  21  24  24  27  27  31  33  38  40  38  38  36  35  35  34  30  28  31  34  35  34  34  36  36  38  39  39  39  41  43  46  47  47  45  39  32  30  30  26  22  19  19  20  19  20  21  24  27  38  46  51  51  55  60  69  74 103 138 178 182 183 184 186 186 186 187 186 186 186 187 185 187 186 185 184 185 185 185
 172 175 170 160 114  81  59  38  33  33  29  29  28  27  28  29  25  25  26  30  31  36  36  36  36  37  37  36  39  38  40  42  47  47  50  51  53  52  50  49  51  52  53  57  63  65  66  65  57  52  44  41  34  28  24  22  21  19  20  19  21  24  28  39  47  49  51  56  64  72  85 118 156 181 184 184 186 186 186 187 187 187 186 187 185 186 186 186 185 185 185 184
 174 174 175 167 125  78  56  42  30  35  36  31  30  30  30  28  27  25  26  27  27  29  30  32  36  36  37  41  44  50  56  64  75  73  76  80  79  82  76  61  67  73  71  71  76  80  80  80  74  70  64  56  50  40  33  27  25  20  19  20  20  26  27  32  40  43  48  54  60  68  77 104 128 170 182 186 186 187 186 186 187 187 186 185 187 187 187 185 186 185 185 185
 174 174 173 168 143  67  64  44  28  30  32  31  30  29  29  29  27  27  26  28  30  30  32  34  36  37  45  51  59  72  77  81  88  90  93  96  96  99  99  93  91  90  89  88  87  88  87  85  83  83  78  73  68  61  49  39  33  27  24  23  23  24  28  32  37  43  46  49  54  60  70  85 123 160 180 185 187 187 185 186 186 186 185 186 187 187 186 187 186 185 185 186
 174 172 172 168 147  67  68  46  32  30  30  30  30  30  29  30  27  27  29  29  29  30  32  37  44  51  58  68  80  86  89  94  97  98 102 103 103 105 107 109 104 102 100  98  94  94  91  90  87  86  85  81  80  78  65  56  46  36  30  25  23  23  24  28  35  42  46  49  54  62  70  76  93 138 176 186 185 187 186 188 186 187 186 186 186 187 187 187 187 188 186 186
 178 173 171 168 142  92  57  48  32  26  25  33  35  34  31  32  30  29  29  30  32  35  38  45  54  63  73  81  87  92  96  99 100 104 106 106 107 109 110 108 108 106 104 100  99  96  96  96  93  89  87  88  84  85  80  73  63  52  41  32  28  22  22  23  24  30  39  48  53  62  72  78  92 112 165 183 186 187 187 187 188 187 187 186 187 187 186 186 187 186 186 186
 179 173 172 168 145 125  58  44  33  34  39  37  36  32  29  29  29  28  30  30  35  44  48  59  70  77  83  90  96  98 101 102 102 107 107 109 111 114 112 113 110 108 104 102 103 100  97  94  96  95  93  91  89  89  86  84  81  68  55  45  35  28  24  23  25  26  32  43  52  59  67  81 102 104 148 180 183 185 187 186 187 187 187 188 187 187 187 186 187 186 187 187
 177 176 173 167 149 139  91  50  43  42  40  36  34  32  30  30  29  29  32  36  43  55  66  77  82  87  93  98  99 104 104 106 107 108 109 114 113 114 114 114 114 111 107 108 107 106 102  99  98  97  95  96  95  94  92  88  89  86  72  58  47  37  28  24  25  25  29  36  50  57  66  78  97 117 129 172 182 186 187 187 188 187 187 186 187 188 188 187 187 186 187 186
 178 178 174 171 160 124  93  60  49  47  41  41  37  35  35  31  30  30  37  46  60  72  80  85  93  98 100 103 102 106 106 107 108 109 113 113 113 115 114 113 115 111 111 113 112 110 106 103 100 100  97  97  97  97  97  95  95  99  89  76  61  50  37  28  25  28  28  33  41  54  62  75  88 105 122 169 182 186 187 188 188 189 188 187 187 188 188 187 187 186 187 186
 179 177 172 166 162 123  72  61  56  50  46  42  38  35  31  30  30  34  43  57  71  83  90  99 104 105 106 104 106 107 108 109 108 111 112 110 112 115 115 113 115 114 115 115 114 113 109 107 106 103 101 100 100  99  99  99  97 105 104  91  76  62  50  37  28  30  30  33  44  50  58  67  80  99 133 156 177 185 187 188 187 187 187 187 188 188 188 187 187 187 187 187
 179 175 171 166 157  98  69  64  57  51  47  38  36  32  30  30  35  41  52  69  79  89 100 107 109 108 109 107 107 109 108 107 108 108 113 114 115 113 113 114 114 114 116 116 116 116 114 111 109 108 104 104 103 104 102 102  99 103 108 104  91  78  61  49  36  30  33  32  39  50  54  64  74  88 117 160 177 184 187 188 188 188 189 188 188 188 189 187 187 187 187 186
 178 173 171 169 132  78  66  59  49  49  40  36  32  30  29  32  40  52  65  72  85  96 106 112 114 113 113 112 108 112 112 111 107 108 110 114 115 113 113 113 114 116 117 119 120 120 119 118 116 113 110 108 107 106 105 104 104 101 109 108 102  93  75  62  49  36  36  34  35  47  54  60  68  76  97 134 176 185 187 188 188 189 188 188 187 188 189 188 187 187 186 186
 176 176 171 155  90  70  59  52  49  44  34  34  32  32  31  35  47  62  75  82  88 101 108 114 116 114 112 112 111 112 112 110 110 111 112 113 115 114 115 115 117 118 120 120 120 122 119 118 118 114 113 112 110 109 109 107 109 108 111 111 108 101  89  74  63  50  42  37  34  43  52  58  64  68  84 128 171 185 188 188 188 189 189 189 188 189 189 189 187 186 186 187
 179 178 170 117  75  66  54  50  47  36  34  34  32  32  34  41  57  75  90  94  96 104 110 115 115 113 112 114 114 114 112 113 113 111 110 112 114 116 117 116 117 119 122 121 120 121 121 120 119 119 117 115 113 112 112 111 113 112 114 114 112 109  99  87  75  66  47  39  36  38  47  54  64  67  82 126 173 184 187 189 189 188 189 189 189 189 189 189 188 188 187 188
 180 179 161  91  71  58  53  53  41  34  35  34  31  31  35  47  65  86 102 102 102 107 111 113 115 113 112 114 114 113 112 113 116 114 114 114 115 118 120 120 118 120 121 120 120 120 118 119 120 122 119 117 117 114 114 117 119 118 120 121 120 117 113 100  88  77  58  41  39  38  45  54  62  69  81 118 171 186 188 189 188 190 189 189 189 188 189 190 189 189 188 188
 180 174 128  85  65  53  53  51  35  37  36  34  33  33  39  52  72  94 105 108 110 113 114 114 115 115 114 115 115 114 112 114 115 115 114 116 119 119 121 122 121 121 122 124 123 120 122 121 121 121 121 121 120 120 118 121 121 123 124 125 126 124 121 112 100  87  72  44  39  42  46  55  62  70  81 118 161 182 189 190 190 190 190 189 189 188 189 189 189 189 189 188
 180 169 103  77  58  47  55  43  35  37  35  33  34  38  43  52  75  96 105 111 113 114 115 115 115 115 115 115 115 114 115 117 116 119 119 118 122 122 122 123 125 123 122 122 124 121 120 120 119 118 119 120 121 122 120 122 124 125 128 131 133 132 130 125 113 100  86  55  38  42  50  55  61  69  79 101 148 175 186 189 190 190 190 190 190 189 190 190 189 189 189 189
 176 158  96  70  51  49  57  39  36  37  33  33  36  39  46  58  79  96 104 108 112 113 115 114 117 117 116 116 114 117 118 120 120 122 120 121 125 125 127 124 124 122 120 121 123 124 121 119 119 116 121 122 122 123 124 123 125 127 130 135 138 139 138 137 128 115  99  70  44  42  50  58  59  65  82  97 140 176 187 190 190 190 190 190 190 191 189 189 189 189 189 189
 176 145  88  61  47  48  55  41  37  36  33  33  37  41  51  64  80  95 103 108 110 111 112 115 116 114 116 115 116 117 118 119 119 120 121 120 121 124 125 125 126 124 122 124 125 128 122 118 117 119 121 121 121 123 122 123 126 129 132 139 141 144 144 143 139 127 115  88  51  42  50  57  63  64  80 116 135 167 184 190 191 190 190 190 190 190 191 189 189 189 189 190
 176 135  81  54  45  48  53  41  37  35  33  34  39  46  52  64  80  94 102 105 110 112 112 114 113 113 114 113 113 116 116 115 113 116 117 118 118 121 122 123 122 122 121 120 124 127 125 118 118 119 119 121 121 121 120 121 125 131 134 136 143 145 145 146 144 137 126 105  64  45  51  60  63  61  70 110 162 172 184 189 191 191 191 191 190 191 190 190 190 189 190 189
 176 125  76  51  42  49  50  40  36  34  33  37  42  45  55  67  79  91 100 102 107 108 111 110 111 111 112 110 111 111 112 111 109 112 112 110 112 116 117 120 120 120 118 120 123 125 124 120 119 119 120 120 118 116 118 115 122 125 132 137 141 145 146 147 145 142 137 120  79  48  49  60  68  61  62  80 151 179 189 189 189 191 192 190 190 189 190 190 189 189 190 189
 175 114  72  48  40  47  45  38  38  33  36  36  41  46  54  67  79  91  97 103 105 106 107 107 109 108 108 107 107 105 104 103 104 105 102 103 103 105 107 110 114 117 116 118 119 121 121 120 117 116 114 114 112 109 110 112 114 121 126 129 133 138 143 145 147 146 140 130  95  52  44  56  70  68  62  72 111 177 189 190 191 191 191 190 190 190 190 189 190 189 189 188
 168 110  75  47  39  45  40  39  36  35  37  37  41  46  55  66  78  93  97 101 103 105 107 107 107 106 106 104 101 100  95  93  93  94  95  96  95  98 103 104 108 110 108 112 111 110 112 112 112 110 108 108 106 105 104 106 108 113 118 117 122 128 134 142 145 147 142 137 114  54  37  44  68  68  67  66  96 163 186 191 191 190 191 190 190 189 189 190 190 190 190 188
 166 116  75  49  39  42  41  37  35  35  34  36  39  44  54  68  81  91 100 102 102 103 108 107 107 105 102 101  98  96  94  90  88  85  86  87  88  92  93  98 100  99 101 104 105 105 102 104 104 103 100 103 101  99  97  95  97  99  99 106 106 114 118 124 126 128 127 131 122  68  38  36  61  68  67  67  92 162 186 190 191 192 192 190 190 189 188 190 190 190 189 189
 164 126  70  52  37  39  39  37  35  34  33  34  35  42  55  73  85  92  99 100 103 104 107 107 107 107 105 100  97  91  92  88  83  80  77  80  80  82  84  87  89  89  90  92  95  97  98 101  99  96  91  92  89  88  84  83  79  74  72  77  76  79  86  90  92  99 102 112 111  84  42  34  45  70  65  67  86 151 183 189 191 191 190 189 190 190 190 190 189 190 190 188
 163 140  69  56  39  37  39  36  33  35  33  32  33  41  58  75  87  95  99 101 103 106 105 104 105 100  96  88  85  83  72  66  65  63  66  68  66  68  70  74  75  79  81  82  83  86  89  91  91  88  84  83  78  74  69  67  60  55  49  49  45  47  54  56  61  66  80  88  94  87  44  33  38  65  65  70  82 147 182 190 190 191 191 190 190 190 189 190 190 189 190 189
 163 154  75  58  42  35  37  36  33  36  31  30  31  42  59  77  88  96  99 100 102 101  96  94  86  81  72  62  56  52  47  42  39  37  39  43  45  50  56  62  67  71  70  72  75  77  82  87  85  81  74  72  66  62  58  50  46  39  35  33  32  32  35  41  47  53  64  76  84  85  55  33  34  55  64  67  89 145 179 189 189 190 191 190 190 190 190 190 190 188 189 189
 168 151  74  60  44  32  34  36  34  36  31  29  30  46  64  79  90  94  97  97  95  84  79  72  66  55  47  41  37  33  33  31  28  29  30  30  29  33  39  44  49  54  60  62  67  79  82  83  82  75  65  63  55  50  46  38  36  31  29  29  28  29  31  34  40  51  60  66  77  81  63  33  34  47  60  62  86 159 182 189 190 191 191 189 189 189 191 189 188 189 190 190
 172 153  74  58  44  34  33  37  33  31  31  28  32  49  67  81  87  90  91  81  73  62  58  57  56  49  40  35  31  30  29  27  27  27  28  27  29  29  31  34  38  43  49  55  65  74  77  79  80  71  64  59  52  43  37  35  33  34  35  36  39  44  43  42  47  47  42  39  39  37  33  30  29  31  36  42  48  94 139 186 189 190 190 189 189 190 189 188 189 190 190 189
 178 160  83  58  52  36  34  36  32  30  28  25  33  53  68  79  85  83  74  64  56  50  47  48  45  40  38  38  35  35  31  30  29  30  30  31  31  31  35  34  34  39  47  54  62  71  80  84  84  81  71  65  54  45  46  51  47  43  38  33  31  34  37  43  54  63  67  67  69  66  53  43  42  45  37  28  28  32  44 177 189 189 190 190 189 190 189 189 189 190 189 188
 179 164  94  59  50  42  36  38  31  30  24  25  33  53  69  78  83  74  63  59  50  49  44  44  45  50  48  53  50  46  45  40  40  39  41  43  41  40  37  37  42  44  43  53  64  73  82  86  89  92  90  76  52  44  33  27  34  37  42  45  48  48  48  52  64  75  84  85  83  81  59  38  40  44  46  42  28  28  33 167 188 189 191 190 189 190 189 190 190 188 187 189
 179 167 124  64  48  47  36  38  32  29  26  24  33  55  69  77  77  61  49  43  35  33  30  30  29  31  34  39  42  42  42  42  41  41  42  40  38  39  39  40  37  32  26  27  36  61  80  87  87  78  60  38  28  31  42  41  41  38  34  35  34  37  37  38  42  48  66  73  80  76  57  33  30  30  36  44  29  28  30 158 186 189 189 189 188 189 188 189 188 188 187 188
 180 174 135  69  48  46  42  40  33  26  24  25  35  52  61  36  32  28  29  30  33  42  48  55  60  58  58  58  60  55  49  45  39  39  42  42  43  42  44  62  94  56  50  37  26  32  30  25  22  25  28  24  27  49  45  39  37  36  38  38  38  32  30  34  32  39  47  53  71  72  52  28  27  28  31  43  30  30  32 165 186 188 188 189 189 188 189 188 188 188 188 187
 180 180 156  68  55  46  45  43  35  27  22  25  39  69  68  29  34  34  33  41  65  66  67  65  62  59  54  50  49  47  44  38  35  32  32  34  37  38  41  53 100  71  57  60  36  30  36  26  24  23  21  21  35  55  48  42  39  43  44  55  53  35  26  35  39  38  38  42  60  68  58  31  29  51  61  65  35  34 149 185 187 188 189 188 188 189 189 189 187 188 187 188
 181 179 174  77  58  50  45  45  36  26  24  41  81  91  68  33  36  35  30  67  67  68  67  61  55  51  52  50  47  42  39  40  30  28  33  38  38  40  42  48  70  67  62  64  45  29  30  29  34  30  24  23  36  53  47  46  43  49  67  79  74  45  29  31  47  65  39  41  56  75  77  48  64 139 121 102  38  86 181 187 187 188 190 188 189 188 188 187 188 187 187 187
 180 180 176 100  64  54  46  42  37  29  28  53  88  91  71  33  37  37  37  69  64  67  61  51  51  52  47  46  56  60  40  33  29  27  30  40  39  45  47  50  54  60  68  66  42  24  31  55  80  70  35  25  34  57  52  41  40  52  73  80  78  55  41  39  59  72  51  54  68  90 104  67  76 137 121 140  44 110 180 186 187 188 188 189 189 188 187 187 188 187 187 187
 181 180 177 127  65  57  48  41  36  31  34  70  93  94  70  33  38  38  37  71  68  63  52  53  55  55  62  75  85  70  41  37  29  31  34  47  37  38  53  60  60  65  71  60  40  23  47  99 114 119 104  35  28  65  63  60  64  65  70  71  69  66  58  61  67  77  84  86  95 112 122  91  91 136 129 136  46 122 178 184 187 187 187 188 188 187 187 188 186 187 186 187
 181 182 180 162  80  61  51  42  35  30  37  60  60  58  54  52  42  36  37  75  69  59  56  56  58  72  87  87  90  90  60  40  36  36  48  53  53  58  65  68  70  71  67  59  30  26  76 116 139 144 140  86  30  62  81  72  67  60  57  58  60  62  62  65  76  90  97 103 116 130 136 107  93 166 172 135  44 146 180 185 185 188 187 188 188 188 186 187 186 186 186 187
 181 182 180 176 118  62  55  46  30  25  28  31  44  56  58  58  56  37  33  75  67  59  57  61  68  72  80  80  84  83  75  59  62  62  61  60  63  67  73  75  70  67  63  63  22  33  86 126 146 152 148 130  31  40  89  87  78  65  56  53  52  54  58  64  74  87  96 109 125 138 144 125  99 151 175 124  45 171 183 186 186 186 187 188 188 186 185 187 187 186 187 187
 181 181 180 179 159  72  58  48  34  26  29  34  54  62  63  64  62  42  31  73  69  64  68  74  75  71  73  74  74  71  65  63  57  54  52  56  65  72  77  73  70  69  64  51  26  44  86 116 141 155 152 145  55  27  85  96  93  82  75  68  57  54  56  62  72  85  99 113 128 141 148 135  91 146 175  92  68 181 183 186 186 187 186 188 187 188 187 188 187 186 185 186
 181 180 180 180 170 110  63  52  42  30  29  42  68  72  72  69  69  52  34  68  74  72  74  74  75  75  74  74  71  66  61  57  56  54  55  64  70  76  79  75  73  73  65  42  26  54  92 114 133 147 152 148  98  30  57 105 106 103  96  90  81  75  77  81  89  98 110 121 130 141 147 141  96 149 127  47 121 180 185 184 184 188 186 187 187 187 188 188 186 186 186 185
 181 180 180 179 176 138  61  56  48  35  31  48  78  81  80  79  80  64  32  65  83  77  78  73  72  72  70  69  64  60  57  56  59  63  68  72  80  82  76  74  76  76  64  28  30  68  94 115 127 143 154 150 134  41  31  87 108 107 102 100  96  92  93  95 100 108 117 125 131 141 147 134  92  74  43  99 177 184 184 184 184 185 186 186 188 187 187 186 184 183 185 184
 180 180 180 179 178 158  72  56  52  41  34  53  80  87  87  87  87  83  31  52  93  87  82  74  70  66  64  61  60  58  60  65  68  70  73  78  80  78  75  75  76  74  65  26  46  80 100 119 129 143 152 151 144  99  32  33  70  92  98  96  95 100 101 102 102 104 110 106  96  88  64  44  45  49 110 176 182 185 185 185 185 186 185 185 187 186 187 184 184 183 185 184
 180 180 180 180 179 165  78  56  59  44  38  54  80  86  88  91  95  95  48  34  95  96  89  79  72  70  69  66  66  65  68  71  73  75  77  78  79  78  75  75  81  75  26  32  66  90 108 124 130 143 153 155 146 138  88  53  35  24  37  39  45  45  47  48  44  41  41  43  62  78 102 124 138  96 140 179 182 184 185 186 183 184 184 183 185 186 187 183 183 184 185 184
 179 180 180 179 179 172  86  57  69  53  39  56  83  86  88  93 101 103  85  32  48 107  99  87  81  77  75  76  74  73  74  75  78  82  82  80  85  90  78  63  36  27  36  51  80  98 109 124 128 135 147 148 149 145 133  87  90  84  71  65  67  70  80  88  98 110 121 132 141 144 147 146 144 111 145 180 182 183 184 184 184 182 185 183 186 186 185 185 183 183 183 183
 180 180 180 181 180 174  89  61  79  57  41  56  85  87  89  96 100 103 104  79  36  31  65  80  82  86  92  95 100  98  93  88  81  74  68  51  37  24  30  41  46  54  52  67  85  99 110 120 125 129 140 142 144 149 148 121  91  85  84  84  88  95 109 113 115 121 128 134 139 145 147 145 142 126 152 179 182 184 184 184 184 182 185 185 185 184 185 184 184 184 183 184
 180 180 180 179 178 176  96  65  84  58  43  54  84  88  90  95 101 103 104 104 102  81  58  47  45  40  35  33  37  37  39  41  48  47  53  61  67  72  69  63  58  53  62  76  88  99 114 122 123 127 136 139 142 150 151 142 122  91  77  78  82  89  99 107 112 120 128 135 143 145 149 147 142 135 159 180 184 184 183 182 184 184 183 184 184 183 184 184 183 184 185 183
 179 180 180 178 179 177 111  76  80  58  46  54  83  87  91  96  98 101  99  99 101 100  94  90  86  83  80  78  79  80  79  79  79  79  78  76  74  71  66  62  58  66  79  90  94 103 112 116 121 124 130 134 134 146 158 153 144 135  94  73  76  83  88 100 110 119 126 133 141 145 148 145 142 146 168 181 183 183 182 182 182 182 183 182 184 182 182 183 182 183 184 183
 179 180 180 180 179 177 124  81  78  55  49  55  79  88  91  97  98  98  95  95  95  94  94  93  88  87  84  82  80  81  78  77  78  77  74  76  70  66  63  59  65  82  94  99 102 110 115 120 121 121 124 125 125 136 154 157 147 142 137  78  73  76  84  90 101 111 121 130 135 142 143 142 143 152 173 181 181 182 182 182 182 182 182 183 183 182 182 183 183 182 182 182
 178 178 180 180 177 176 137  82  80  60  52  60  80  89  92  97 100  95  92  91  93  91  88  87  86  86  86  84  81  79  76  75  75  74  75  71  65  61  60  58  72  87 100 100 100 103 103 109 115 117 120 117 118 124 138 148 136 129 134  91  69  73  80  86  97 108 118 126 131 137 140 142 143 151 173 181 182 182 182 182 181 181 181 182 182 182 183 182 182 182 181 183
 176 177 179 180 179 176 146  82  85  67  61  66  81  89  91  98  99  95  93  91  90  91  91  90  88  86  87  83  80  80  78  77  76  76  76  73  70  64  60  58  72  86  97  93  89  88  91  89  99  99  99 103 105 110 123 121 108 107 107  88  71  73  82  87  95 105 115 124 127 130 135 138 140 147 170 179 181 182 182 182 182 182 180 182 182 182 183 182 182 182 182 182
 176 178 177 179 179 178 157  89  90  77  65  67  78  89  90  95  98  94  93  89  89  90  89  89  91  88  89  88  86  86  82  82  83  83  84  83  78  71  65  61  68  75  80  79  75  69  70  72  79  83  88  86  90  93 101 100  84  82  88  84  77  73  78  81  88  99 108 118 122 126 129 136 138 145 167 178 181 182 182 182 181 182 182 182 183 182 182 182 182 182 181 182
 176 177 177 177 177 176 165  97  93  90  72  69  79  86  90  95  96  94  90  87  89  90  89  92  91  92  93  94  91  90  89  91  92  93  90  84  80  74  69  64  60  62  61  60  59  54  55  58  62  69  72  73  75  78  86  63  49  62  82  93  89  80  74  77  83  91 101 110 119 123 125 131 135 144 165 179 180 180 181 181 181 181 182 183 183 182 180 181 182 180 182 181
 178 176 177 176 176 176 174 107  95  96  89  74  79  86  89  94  97  92  92  87  90  90  91  89  90  88  94  97  95  95  94  95  90  89  86  84  79  78  77  69  53  50  49  46  37  33  36  44  50  56  57  59  60  66  76  55  60  72  88 102 103  94  80  72  78  86  96 106 114 118 123 126 130 140 164 177 178 179 180 179 181 181 182 182 182 181 181 182 182 181 181 181
 176 177 177 178 178 176 176 125 103 104  98  79  77  89  90  93  95  89  88  89  94  90  91  89  92  96  99  98  95  94  90  91  88  86  83  79  77  80  83  75  60  48  39  36  32  35  42  43  45  48  52  52  54  69  76  73  82  90  97 108 110 108  96  83  77  83  89 100 109 116 119 124 131 137 159 175 177 178 177 180 180 180 180 180 182 182 181 181 181 181 181 181
 176 178 178 178 177 177 175 147 112 105  96  84  82  87  90  93  96  92  91  91  92  89  88  94  95  98  97  97  95  94  91  89  87  83  82  80  80  83  86  82  72  60  48  41  36  38  42  46  44  44  51  53  58  76  91  91  93  98 104 114 118 115 112  99  87  84  87  93 103 110 117 121 128 134 157 174 176 177 176 178 177 178 180 176 179 181 181 179 181 180 180 178
 177 177 178 179 177 178 176 167 116 107 107  91  83  85  86  90  95  93  90  91  91  89  89  92  94  94  91  93  92  90  89  86  85  84  81  79  82  85  87  84  78  72  67  63  57  55  55  57  51  49  45  49  52  68  93 100 103 107 113 121 125 123 119 111 103  89  85  91  96 105 114 120 126 134 148 171 175 176 176 176 175 177 177 177 178 179 181 179 181 181 181 178
 176 176 176 176 178 178 177 171 108 111 110  90  79  84  86  89  94  92  90  89  90  92  92  89  91  92  91  91  90  89  85  84  81  80  81  83  83  86  88  89  88  83  78  73  70  68  66  67  66  63  55  49  50  62  84 102 110 112 114 124 131 129 123 115 108  99  85  87  94 104 112 121 124 131 146 171 174 174 175 174 175 175 177 178 178 178 178 178 180 179 180 179
 175 176 176 176 178 178 177 174 125 112 105  84  75  80  83  88  92  93  89  89  90  92  93  90  91  90  88  87  87  85  82  81  78  76  78  84  86  88  90  91  90  90  89  86  83  78  74  73  73  77  66  57  55  62  79  98 113 119 123 129 132 130 123 114 109 105  88  85  94 106 112 118 122 128 143 170 174 174 174 174 176 175 176 176 178 177 177 176 177 178 179 178
 176 177 176 176 176 177 176 176 141 105  92  73  72  76  84  88  91  93  88  88  90  90  88  88  88  86  84  85  86  83  78  76  76  74  81  84  86  88  90  92  94  93  94  93  93  89  82  82  82  84  73  62  59  65  76  98 114 124 129 134 133 133 126 115 104 104  94  87  96 106 115 118 120 122 131 168 173 173 173 174 174 174 176 175 175 176 177 176 176 176 178 176
 176 175 176 176 177 177 176 175 148  94  79  65  69  75  87  88  90  91  90  88  88  90  86  87  84  84  83  82  81  81  78  73  74  77  83  85  85  88  91  96  95  97  96  98  99  95  89  86  87  87  78  70  69  75  84  95 107 115 120 125 127 129 120 104  94  95  96  91  98 107 112 114 115 119 133 164 171 171 173 173 174 174 174 173 175 174 175 174 175 175 176 175
 175 175 176 176 176 176 176 175 171 105  66  59  74  80  84  88  91  92  91  88  87  87  83  83  83  83  82  81  77  76  74  71  75  77  82  84  84  89  90  93  95  97  95  97  96  94  87  86  87  89  87  83  82  79  78  75  74  76  78  84  94 104 102  78  74  83  90  94 101 110 110 112 114 120 136 164 169 170 171 171 173 172 172 172 173 173 173 174 174 173 174 174
 174 175 175 176 175 175 176 175 173 167 149 143  96  80  84  87  91  89  87  87  86  86  84  81  81  82  80  79  77  77  73  72  76  79  82  82  82  86  90  92  95  96  95  93  81  75  65  60  59  63  65  66  65  63  66  72  78  76  64  56  55  64  61  56  75  85  89  96 101 110 112 112 110 119 136 165 168 169 170 169 169 170 171 170 171 172 174 173 173 172 173 173
 172 174 175 175 174 174 175 174 174 172 172 164 114  76  84  87  88  88  84  86  83  83  85  84  84  84  81  78  75  75  74  75  76  80  77  74  75  80  86  90  89  87  79  65  54  50  52  53  49  49  49  50  50  54  58  62  66  71  74  74  68  68  83  93  94  93  91  95 101 107 111 112 108 116 140 162 166 167 167 168 169 169 169 171 171 171 172 172 171 171 171 171
 174 175 174 175 173 174 174 174 174 171 174 170 128  83  83  86  89  89  86  86  83  85  85  84  84  81  81  79  76  77  75  77  76  75  68  63  63  67  74  75  70  59  48  43  41  43  45  46  45  45  48  42  40  45  52  62  81  94 101 100  99 103 116 115 107 101  94  94  99 102 103 108 110 114 141 160 165 167 167 167 168 169 169 169 170 170 170 172 170 169 172 171
 172 173 172 174 173 173 174 173 173 172 173 169 141  90  78  84  89  89  85  83  84  82  83  84  82  80  81  80  80  78  75  75  72  66  56  48  45  51  53  48  39  34  35  37  41  44  48  50  49  52  50  53  61  72  75  79  86  92  97 101 108 116 126 122 114 105  98  94  99 102 103 103 105 108 141 160 163 166 167 166 166 167 169 168 168 169 169 168 167 170 170 171
 172 171 170 172 173 172 174 173 172 172 172 170 149 100  75  82  88  88  82  81  81  84  81  80  79  78  82  81  81  80  77  77  72  62  58  48  37  41  38  36  36  43  51  56  65  68  68  72  75  73  73  73  71  73  76  75  75  85  96 107 112 119 126 124 118 110 100  95  96  99 100  98  97 108 147 161 162 163 165 167 164 165 167 166 168 169 169 167 167 166 170 169
 170 171 171 172 172 171 172 172 171 172 172 169 156 112  73  77  83  83  79  77  80  78  78  73  72  73  77  80  82  82  79  77  74  69  70  68  68  70  70  69  68  68  66  67  68  66  64  63  66  65  67  67  67  67  69  71  76  79  89 103 112 118 123 123 122 114 105  95  94  96  98  96  98 109 151 159 162 161 162 163 163 164 164 164 166 166 166 166 167 166 167 165
 169 169 171 172 170 170 171 171 171 170 170 168 160 124  80  73  82  83  81  80  80  73  78  72  68  70  73  78  80  81  82  79  76  75  78  79  82  83  82  82  82  81  76  73  70  69  64  62  60  58  58  57  56  55  56  58  63  71  87  99 105 111 116 119 121 114 106  98  95  97  96 100 100 116 152 158 160 160 159 161 162 162 162 163 162 162 164 163 164 164 164 163
 170 169 168 168 169 169 170 170 170 169 170 168 164 138  91  70  78  82  82  80  79  72  74  70  70  69  71  74  76  78  78  78  74  75  80  82  83  84  84  83  83  83  78  70  64  60  56  53  50  47  45  44  45  44  45  49  58  72  84  94  98 105 110 115 115 112 107 103  98  97  95 102 103 135 154 157 158 158 159 159 158 160 160 160 160 162 163 162 161 161 162 161
 167 168 167 168 168 168 169 168 168 168 169 168 163 143 106  76  70  77  80  80  75  72  72  72  66  64  64  68  71  72  73  74  74  78  78  80  81  82  83  80  81  81  79  74  70  64  57  52  48  47  46  46  48  51  53  56  62  72  83  93 102 108 110 113 116 112 109 103  99  98  97  95  98 140 155 156 156 156 157 157 158 159 159 158 160 159 160 159 160 160 159 159
 168 167 167 167 168 168 168 167 168 167 168 166 166 152 132  81  66  71  74  75  70  70  69  67  63  60  60  62  67  70  72  73  73  74  77  78  79  79  80  77  77  77  74  71  69  66  61  57  57  60  58  60  62  65  67  71  74  80  87  96 105 110 116 115 116 112 108 105  98  98  97  86  96 142 154 155 154 156 156 156 156 156 157 157 157 157 157 156 157 158 158 158
 166 166 167 166 167 167 166 168 167 166 168 165 166 161 151 106  67  64  69  71  69  68  65  64  60  59  57  60  65  67  71  73  72  73  73  75  76  74  74  76  78  74  74  70  68  67  68  70  72  72  71  76  79  79  84  85  89  90  95 104 109 114 117 121 119 115 110 104  99  96  91  83 105 146 154 154 154 154 155 155 154 156 155 155 157 155 153 154 155 155 155 156
 165 165 165 166 166 166 166 166 167 166 165 163 163 163 160 140  86  62  60  66  65  65  63  62  59  58  57  59  62  68  69  69  72  74  74  75  76  75  75  76  78  79  77  75  75  74  74  76  78  83  86  89  91  97 102 106 112 112 112 113 114 115 116 119 120 114 109 103 100  94  87  83 119 146 152 153 154 153 154 153 154 155 153 153 155 155 154 153 153 155 154 154
 164 164 165 165 165 165 163 164 164 165 164 163 163 163 162 158 119  72  56  61  61  58  59  60  60  58  59  62  65  69  70  72  72  72  74  73  75  76  73  76  79  83  82  80  82  82  85  88  89  93  95  97 103 107 111 116 120 126 127 122 118 119 118 120 118 114 109 104  97  92  81 100 140 151 152 151 152 152 153 152 151 152 149 148 151 153 152 153 153 153 153 153
 163 162 162 163 164 163 163 164 163 164 163 162 162 161 160 160 148 102  64  55  52  53  56  55  56  58  60  62  66  68  68  70  72  73  73  73  75  73  76  78  82  85  85  86  90  95  98  97  99 101 102 103 110 110 114 118 124 130 130 129 125 124 124 120 116 114 106 100  91  84  81 121 146 150 150 151 150 151 150 151 150 150 149 148 148 150 150 150 150 151 152 152
 161 160 161 161 160 162 162 162 161 162 162 160 161 159 158 158 155 140  80  49  44  46  49  53  51  55  58  61  62  66  67  68  69  73  75  73  76  76  80  83  84  86  88  90  94  96  99  99 100 102 104 106 107 109 112 118 124 131 132 130 129 127 125 122 116 111 103  95  84  64  58  85 131 147 148 148 150 149 149 148 148 151 147 147 148 149 149 148 150 149 148 148
 160 159 160 161 158 160 161 161 160 161 160 160 159 158 156 154 138  74  42  43  40  40  42  47  48  50  54  57  62  67  68  69  70  73  75  76  79  81  83  84  84  88  89  93  95  96  98  96  99 100  99  99 101 102 107 112 119 127 134 131 129 129 124 119 116 106  95  88  72  49  44  48  48  70 105 132 143 145 144 145 144 146 144 144 147 146 146 146 146 147 146 145
 159 159 158 157 159 159 160 158 158 158 157 156 154 152 117  70  38  35  24  55  42  34  37  42  47  47  50  53  55  62  64  66  67  71  74  75  77  80  82  81  83  87  92  95  94  95  96  94  96  96  95  94  93  92  96 101 110 120 126 128 126 123 118 114 111  98  88  76  60  60  31  38  42  44  44  41  57  83 119 142 143 144 144 145 145 145 144 146 146 146 146 146
 156 157 156 156 156 156 156 154 156 155 154 152 105  58  38  35  31  25  43  81  65  39  32  34  40  44  45  48  52  58  60  63  66  67  69  72  75  79  80  82  83  86  88  91  92  91  88  88  94  92  94  90  85  79  83  88  97 106 112 116 117 112 111 106 101  88  74  69  73  80  47  30  38  40  38  36  35  38  40  76 124 138 141 142 145 146 146 145 145 144 144 144
 156 154 155 154 154 153 153 153 151 147 106  45  33  33  31  26  23  20  74  84  75  54  33  31  37  41  42  45  47  52  54  58  62  63  64  66  70  74  78  80  83  84  82  86  88  88  86  84  87  85  84  84  77  69  71  78  85  91  97 102 102 102  99  95  88  72  66  86  87  84  66  29  33  36  34  34  30  32  35  40  46  67  95 123 137 139 142 141 143 142 143 141
 154 151 153 153 153 150 148 132  87  43  31  30  28  26  25  22  21  38  82  84  77  67  46  29  30  33  35  40  43  47  48  50  54  57  59  61  62  66  70  73  77  80  79  79  79  81  79  77  75  77  76  74  68  60  63  68  72  78  82  84  84  86  87  81  66  61  63 110 104  84  73  36  28  33  34  34  31  28  30  32  36  39  44  42  55  75  97 119 137 140 141 141
 153 154 153 151 146 112  70  41  36  30  26  26  24  24  22  21  20  54  83  82  78  70  62  42  29  28  30  31  35  39  41  43  45  49  49  53  54  57  62  64  65  69  69  68  68  71  68  68  69  65  64  64  60  54  59  58  63  69  71  70  70  68  67  59  53  60  94 121 117  86  76  44  25  28  32  34  31  27  30  29  31  34  35  35  37  38  39  41  61 111 139 139
 151 149 137  88  41  32  33  29  25  26  24  21  20  21  20  20  19  66  85  82  78  71  67  58  40  29  26  28  30  31  32  33  37  39  39  45  44  45  51  53  54  58  60  60  56  55  57  59  59  58  55  51  51  52  51  50  53  57  63  63  56  51  47  42  53  90 113 122 119  90  78  48  26  28  30  33  30  29  28  27  28  31  33  32  33  33  34  33  37  40  65 114
 117  72  32  32  29  28  25  25  24  23  20  20  20  19  19  19  20  77  84  81  77  72  67  61  50  39  28  24  26  29  29  29  29  30  33  35  35  35  40  40  43  46  46  47  47  45  44  47  50  48  49  45  46  45  43  44  43  48  52  46  42  39  35  38  73 102 114 120 119  87  77  51  27  27  28  31  29  29  29  26  27  28  31  32  32  32  33  31  31  33  38  43
  35  32  27  26  26  24  24  23  24  20  19  19  18  19  18  18  23  78  83  82  76  71  68  62  57  50  36  28  25  26  28  28  27  26  27  30  30  28  30  31  32  35  38  40  39  37  35  37  41  38  42  37  36  38  37  38  40  35  40  35  32  30  39  68  94 104 114 116 119  88  79  52  28  26  27  27  29  27  28  27  26  27  27  30  32  32  32  30  32  32  34  34
  27  26  25  26  23  22  23  22  22  19  18  17  17  18  18  18  22  79  84  82  78  72  70  64  60  56  47  35  28  24  26  27  27  24  24  24  25  24  26  28  29  28  31  32  31  28  31  30  34  31  31  29  30  32  29  31  30  29  30  30  30  39  71  89  95 105 113 117 118  85  73  50  27  25  26  28  28  27  28  27  26  26  27  28  32  30  31  30  30  30  30  30
  24  24  23  24  21  22  21  21  22  19  17  16  17  17  17  16  17  78  81  79  78  73  68  65  56  58  54  51  40  30  26  24  25  24  26  27  24  24  25  25  26  24  27  26  26  25  26  24  26  26  25  24  25  27  29  27  27  26  27  29  41  65  84  92  99 106 113 115 113  78  67  49  26  23  25  27  28  27  29  28  26  27  26  27  28  29  29  31  29  28  29  29
  22  21  21  20  19  19  19  19  19  17  16  16  17  17  16  15  19  67  82  79  75  72  70  64  60  59  57  56  50  43  37  28  26  25  25  26  25  25  25  27  24  23  24  22  22  22  20  21  23  22  20  23  23  24  26  26  27  28  31  40  68  82  91  94  99 106 112 112 106  68  62  43  23  22  25  26  27  27  29  28  26  25  25  25  27  28  29  29  29  27  27  27
  21  19  19  20  19  19  18  19  18  17  17  17  16  16  16  17  17  56  80  80  76  73  69  67  62  62  58  59  54  51  47  38  30  26  26  26  25  24  24  25  23  24  21  21  23  22  20  22  21  20  20  23  23  25  25  26  28  38  49  72  80  84  91  94  98 104 110 110  97  65  55  35  21  21  22  24  25  26  27  27  27  26  25  25  27  27  27  28  28  27  27  27
  20  18  20  20  17  17  17  18  18  16  16  16  14  15  17  16  17  40  79  80  77  74  69  66  63  62  62  59  57  54  52  45  37  32  27  26  25  24  24  24  24  24  24  24  23  22  20  22  23  22  22  23  23  23  24  29  42  63  72  75  79  83  89  90  97 103 109 108  85  64  50  31  21  20  20  20  23  24  27  27  26  25  25  26  25  26  27  27  27  27  27  26
  20  20  19  18  17  17  16  18  18  16  15  15  14  15  15  15  16  21  76  80  78  76  71  67  65  62  60  59  58  59  55  52  44  40  31  27  25  25  28  26  25  25  24  23  20  21  21  22  23  23  24  24  23  27  37  54  68  70  74  77  80  84  88  90  94 101 106 102  74  58  47  25  20  19  20  20  22  23  26  26  25  24  25  25  26  26  27  27  27  27  26  27
  18  19  18  18  16  15  16  17  17  16  16  14  14  13  15  13  14  15  63  79  79  75  72  67  66  65  63  62  58  60  60  56  53  48  41  33  28  26  29  28  27  28  26  24  22  23  23  22  24  24  27  30  36  48  59  69  73  72  75  78  81  84  89  90  94 100 109  95  62  53  35  21  19  19  20  20  20  22  26  26  25  25  25  25  25  26  27  27  27  26  27  27
  20  19  18  17  17  16  16  16  15  16  14  13  12  13  13  12  14  16  38  78  80  76  72  71  67  66  66  64  62  62  58  57  55  53  47  42  34  30  30  30  30  29  29  29  28  28  27  29  29  31  34  42  52  60  67  70  72  74  75  78  83  86  88  90  93  98 106  82  64  48  27  19  19  20  18  20  22  24  25  26  23  25  25  23  23  25  25  26  26  27  26  27
