P2
# Generated by OpenCV 3.4.0
92 112
255
 152 152 153 151 155 156 156 156 156 155 157 157 157 157 159 158 157 157 157 159 159 159 158 159 160 160 160 161 161 162 161 162 161 161 161 161 162 162 162 163 162 163 162 164 163 162 162 162 161 162 163 162 163 164 163 163 164 164 164 164 164 164 164 164 164 165 164 164 164 165 164 164 164 163 164 163 162 164 163 164 162 162 162 163 162 161 161 161 161 161 161 161
 153 153 153 155 155 156 156 156 156 157 157 157 158 158 158 159 158 157 158 159 160 159 159 160 161 161 162 162 162 161 162 162 163 162 163 163 162 163 164 163 163 163 164 164 164 163 162 160 160 162 163 163 164 164 164 164 164 165 164 164 164 165 164 164 164 165 164 164 164 165 165 164 164 165 164 165 164 165 165 164 163 164 162 163 163 163 162 164 163 162 161 161
 152 152 156 156 155 157 156 157 157 157 157 158 158 159 158 158 160 159 160 160 162 159 160 162 162 163 162 162 162 162 163 163 162 163 164 162 164 164 165 163 163 164 164 162 158 149 146 147 156 160 162 164 165 164 165 164 165 164 165 166 166 164 164 165 165 165 164 164 164 164 164 164 164 166 163 164 165 165 164 164 164 163 164 164 163 163 164 162 163 164 162 163
 156 156 156 156 157 156 157 157 158 157 158 158 160 158 159 159 161 159 159 161 163 161 162 162 163 162 162 163 164 163 163 164 163 164 164 164 164 163 164 163 165 164 162 157 106  62  63  86 114 140 155 162 164 165 165 164 165 164 165 165 165 165 165 166 166 165 165 165 165 164 164 163 164 164 165 166 164 164 164 163 165 165 164 164 164 163 165 164 164 165 163 162
 156 156 157 157 158 159 157 157 158 159 158 160 160 160 162 161 162 161 161 163 163 162 162 160 163 164 164 163 163 164 164 165 164 164 163 165 164 164 164 163 164 163 149  72  47  55  57  63  66  82 129 157 162 164 165 164 165 166 166 166 166 165 166 166 167 167 165 166 166 166 165 164 165 164 164 164 165 165 164 164 164 166 165 164 163 165 163 164 165 164 163 165
 156 157 157 157 158 159 158 158 158 160 159 161 159 162 162 162 161 161 161 162 163 163 163 162 160 163 163 164 164 164 164 164 164 163 163 164 164 164 163 163 162 148  76  60  50  42  42  49  56  66  81  97 125 154 163 165 166 166 166 166 166 165 166 166 166 166 167 166 166 165 164 165 165 165 166 165 164 164 164 165 165 165 166 164 165 164 164 165 164 164 164 164
 157 157 157 158 158 158 159 159 158 161 161 160 162 163 162 163 163 164 162 163 163 164 164 162 162 163 164 163 164 163 164 164 164 164 160 162 163 161 161 158 126  70  61  52  35  30  36  44  54  64  60  68  81 109 150 161 165 165 166 168 166 166 166 166 166 166 166 166 165 166 165 165 165 166 167 166 166 165 165 165 165 166 166 165 165 165 164 164 164 165 165 165
 157 158 157 158 161 160 159 159 159 160 161 162 163 162 161 162 163 163 162 163 164 164 163 163 162 163 162 161 161 161 160 160 160 159 154 152 150 142 115  80  54  50  46  37  29  36  44  50  50  44  52  49  59  71  86 123 160 164 164 166 166 166 166 166 167 166 167 166 166 168 168 167 167 167 168 167 166 166 166 166 165 166 165 166 166 167 163 164 165 165 166 165
 158 158 158 159 158 159 159 160 162 163 162 163 162 162 163 163 163 163 163 164 164 164 164 163 161 162 156 154 150 142 137 126 119 117 119 108  89  68  56  51  46  35  30  29  29  36  37  34  30  33  42  47  47  52  60  72  98 134 159 166 166 167 166 166 168 167 166 166 167 168 167 166 167 167 165 166 167 167 167 167 166 167 166 166 165 166 166 165 165 165 165 165
 157 158 161 159 160 160 160 159 162 161 162 162 162 163 162 162 162 162 164 163 163 165 163 162 158 150 123 112  98  92  91  91  89  84  82  63  50  42  45  46  32  27  27  26  28  28  30  27  29  33  41  41  44  50  52  56  61  70 102 140 157 163 164 165 166 165 165 166 166 167 167 167 166 166 167 166 167 166 166 166 165 166 166 166 166 166 165 165 166 166 165 165
 158 157 158 159 160 159 161 162 162 163 162 163 162 161 163 164 163 163 163 163 163 164 159 153 142  98  80  73  74  81  90  81  63  52  43  36  37  41  46  42  27  23  27  24  25  22  24  23  26  29  31  34  39  38  40  41  42  47  58  79 100 118 142 154 160 162 165 166 165 166 167 168 168 167 165 165 166 166 167 167 166 167 167 165 167 167 166 166 166 166 166 165
 158 158 160 160 160 161 162 162 163 163 162 163 164 162 163 164 163 163 164 164 163 164 159 137  97  70  56  59  69  77  74  55  40  35  32  31  35  43  41  32  25  24  25  25  22  22  22  20  21  23  26  28  29  31  31  33  35  38  43  49  59  68  75  82  84 116 152 161 165 164 166 168 167 166 167 167 167 166 168 168 168 167 167 166 167 167 168 167 166 166 166 166
 159 160 159 162 162 162 162 162 163 162 162 163 163 164 164 163 164 164 164 164 164 165 158 123  75  52  51  56  60  59  62  47  33  29  29  34  36  36  31  27  23  22  24  26  21  20  20  20  19  21  20  24  25  27  26  28  32  32  34  42  46  48  61  66  76 100  90 103 144 162 165 165 167 166 166 166 167 168 167 167 167 166 166 166 167 168 168 167 167 167 166 166
 160 161 161 161 162 161 163 162 163 164 163 163 163 162 164 165 164 164 165 164 165 163 152 121  63  40  33  39  49  52  53  51  32  29  30  32  28  27  26  23  20  23  25  26  19  20  20  19  17  18  18  20  21  23  23  25  25  26  26  28  32  41  43  47  55  71 122 121  98 129 162 164 166 166 168 167 167 169 167 166 166 166 167 166 166 167 167 167 167 167 166 166
 162 161 161 160 161 162 163 163 163 164 163 164 164 163 164 164 165 166 164 165 164 159 152 117  58  37  29  27  34  40  47  53  43  36  31  26  24  23  23  24  23  24  24  25  21  19  19  19  17  18  19  19  18  20  23  26  26  25  25  26  29  33  30  31  39  48  56  78 100  95 119 156 162 164 166 167 168 167 167 168 167 168 168 167 166 166 166 166 168 167 167 168
 161 161 161 161 160 162 163 163 163 164 164 165 165 164 163 163 164 166 166 165 164 156 148 112  61  40  28  24  24  29  38  43  42  41  40  31  27  23  23  27  24  26  24  26  23  20  20  20  18  19  19  19  17  20  22  19  20  20  22  24  25  25  25  29  34  43  51  70  82  73  63 125 159 161 166 168 168 167 167 168 168 168 167 168 166 166 167 166 167 166 167 167
 162 162 161 162 161 161 162 163 163 164 164 165 164 164 165 165 166 165 166 164 164 159 144 110  71  43  31  27  23  21  32  41  44  38  30  28  26  24  25  27  26  28  26  27  27  19  21  20  20  19  18  19  18  18  19  17  16  18  19  20  21  25  25  28  30  32  36  44  54  67  63  68 117 156 164 167 167 167 168 167 168 168 168 168 167 167 167 167 167 167 167 167
 162 162 162 162 161 161 163 164 164 164 164 165 165 165 165 166 167 166 167 164 164 162 148 113  75  46  34  29  23  22  23  30  42  42  36  28  24  22  24  27  28  28  28  28  28  26  23  23  19  20  18  19  17  17  18  16  16  17  19  18  19  22  24  25  25  27  33  38  45  52  54  58  77 118 160 164 166 167 168 168 168 168 167 166 166 166 168 167 167 167 168 168
 162 162 163 162 162 162 163 164 164 164 165 165 165 165 165 165 165 166 166 164 166 164 146 114  82  50  37  31  27  24  24  26  25  36  43  37  29  26  26  28  29  29  28  28  27  30  28  25  23  22  20  19  18  17  17  20  19  19  18  17  17  19  21  24  24  28  34  35  45  55  54  55  65  86 129 163 166 168 168 168 169 168 167 167 167 167 167 167 167 167 167 167
 162 162 163 162 162 162 162 164 165 164 165 165 164 165 166 165 166 165 166 165 167 165 155 109  77  51  39  31  30  30  30  28  28  27  33  38  36  35  32  30  29  31  30  29  28  28  29  29  28  23  20  19  19  18  18  20  22  20  19  18  18  18  19  21  24  26  30  32  38  47  53  53  59  80 108 147 165 167 167 168 168 168 167 167 168 169 168 167 168 168 168 167
 162 163 164 162 162 163 163 164 164 164 164 164 165 165 166 165 166 165 166 165 166 163 158 119  69  52  44  38  35  35  35  29  29  28  29  35  40  40  37  33  30  29  31  31  28  30  30  28  26  25  24  22  24  22  20  20  23  23  19  17  18  17  18  19  19  27  29  33  34  41  44  50  54  66 109 117 156 166 167 169 167 167 167 167 166 168 167 168 168 167 167 167
 162 163 163 162 162 164 163 163 163 165 164 164 164 165 166 166 166 166 166 166 165 163 162 140  70  57  42  39  34  30  32  29  28  29  30  31  38  40  36  37  35  32  30  32  32  31  30  30  29  29  28  27  26  25  23  21  23  24  20  18  18  17  18  19  24  27  31  32  37  39  40  45  51  62 102 109 130 163 168 170 168 168 168 167 168 169 167 167 168 167 167 167
 161 163 163 163 162 162 163 164 164 164 164 164 164 165 164 165 165 164 166 166 164 163 161 137  82  55  39  37  34  32  30  29  28  29  31  31  33  34  37  39  40  40  40  41  40  38  36  34  34  34  32  31  29  27  26  25  26  27  24  20  21  22  21  21  23  31  34  32  33  36  38  41  47  57  81 116 108 156 168 169 168 167 166 167 169 167 168 167 168 167 167 167
 162 163 163 163 162 162 164 164 164 165 164 164 165 164 166 165 165 164 164 165 165 164 161 139 104  52  48  42  38  35  31  29  29  30  30  31  36  38  43  47  50  58  62  66  64  60  56  54  50  43  37  37  35  35  35  35  32  32  29  24  22  20  20  21  26  27  25  25  27  30  35  39  44  54  67 102 112 128 163 166 168 168 168 166 168 168 167 166 168 168 167 167
 161 162 163 163 163 162 163 163 164 164 163 164 164 164 164 164 164 164 165 164 163 162 157 137 116  67  46  39  34  31  30  29  29  31  33  38  47  57  68  75  82  88  90  94  87  84  81  77  72  56  56  52  47  48  53  50  51  43  36  27  25  21  19  18  19  20  23  25  26  29  32  36  40  50  61  76 107 115 156 165 168 168 167 166 167 168 167 167 166 167 167 167
 162 162 163 163 163 162 163 163 164 164 163 164 165 165 163 164 164 164 165 165 163 157 155 129  84  57  45  39  35  31  29  30  30  35  46  59  73  84  93 100 105 106 104 103 100  98  93  90  86  79  78  76  68  65  67  64  64  58  52  40  32  28  23  22  18  18  18  23  26  31  33  37  40  48  54  55  88 115 144 165 167 167 167 166 168 168 169 168 167 166 167 167
 163 162 163 164 162 163 163 164 164 166 164 164 163 162 165 165 166 165 165 165 161 148 129  83  61  48  43  38  32  29  29  30  38  54  69  83  94 101 104 106 108 110 110 108 106 102  98  96  95  94  89  86  81  78  77  73  72  69  63  54  46  38  30  26  20  18  17  19  22  28  35  38  41  45  49  52  60 104 142 159 166 167 167 168 168 168 168 167 167 167 167 167
 162 162 163 164 163 164 165 163 164 165 164 164 164 166 166 166 166 165 163 163 154 120  78  61  50  42  37  32  30  30  31  38  58  79  91 100 106 107 105 107 109 111 110 108 106 104 102 101  98  97  94  90  87  84  81  79  74  72  71  66  61  52  43  32  27  23  17  18  21  25  31  38  40  40  46  50  52  79 135 155 165 167 167 167 166 166 167 168 168 168 167 167
 163 163 162 163 162 163 165 164 164 164 162 165 165 165 167 167 165 164 163 156 127  77  62  49  41  35  31  30  29  30  37  57  77  93 104 111 110 107 107 108 108 108 108 106 107 104 102 103 101  97  93  91  89  87  82  82  77  75  74  70  66  64  57  45  34  28  22  20  19  23  28  32  38  42  45  49  50  67  97 156 163 165 166 166 167 167 167 167 167 167 166 167
 162 162 162 164 163 163 164 164 164 163 164 165 166 166 166 166 166 166 160 135  83  64  50  41  36  33  32  29  30  35  58  73  86 102 109 114 109 108 112 110 109 109 111 109 109 108 106 105 103  98  94  94  91  90  86  84  81  78  76  74  69  68  65  55  44  34  28  23  22  25  26  28  31  36  44  48  53  57  74 124 160 164 166 167 167 167 168 167 167 167 166 165
 163 162 163 163 164 164 164 162 164 164 165 166 166 166 167 167 166 164 149  92  66  57  41  35  34  33  30  30  33  54  79  85  96 109 114 112 109 111 113 113 110 112 117 116 114 111 108 107 104 101 100  96  94  93  89  87  84  81  80  77  74  70  68  63  54  44  35  27  24  24  28  29  30  33  39  44  52  57  71  96 141 160 163 167 168 167 166 167 166 166 165 166
 162 162 162 163 164 164 164 163 164 164 164 165 165 166 167 166 165 160 114  71  59  46  36  36  32  31  30  32  47  76  89  92 103 110 111 108 113 113 114 113 114 116 117 118 116 114 113 108 104 101  99  97  96  93  88  86  85  82  81  79  76  70  69  68  62  53  43  32  26  23  20  26  29  31  38  40  46  54  66  92 134 156 164 167 167 168 167 167 166 166 166 166
 163 164 164 164 164 165 165 163 165 165 165 165 167 166 166 164 165 148  83  63  57  40  38  35  31  31  32  41  63  91  99 102 109 111 110 110 115 115 116 118 117 118 119 118 116 115 113 111 107 104 101  97  96  92  90  89  87  83  83  82  80  77  72  71  68  61  49  39  31  28  22  19  27  30  37  45  46  51  61  74 122 156 163 166 168 167 168 167 166 166 166 166
 164 163 164 164 163 165 164 165 165 166 166 166 167 166 164 165 162 120  65  61  51  40  38  30  31  32  37  49  79  97 103 107 111 110 113 115 115 116 114 119 119 119 119 120 118 117 113 112 109 106 101  99  97  95  95  90  88  86  84  83  83  81  74  75  72  66  55  46  36  30  25  21  24  31  34  43  49  52  59  72 106 151 163 165 167 166 167 167 166 165 166 167
 164 164 165 164 164 165 164 165 165 166 167 166 167 166 166 165 156  94  61  60  46  42  35  30  33  38  45  62  88 101 107 108 108 112 114 115 117 117 119 120 121 122 123 120 120 118 114 112 109 103 102 100  98  96  97  93  90  87  88  85  85  82  80  77  77  70  64  52  40  35  29  24  23  27  36  43  50  55  60  73  82 138 162 167 167 167 168 168 168 168 167 168
 164 165 165 164 164 165 165 166 165 166 165 165 166 167 168 165 145  77  56  52  45  39  33  34  37  40  49  75  95 103 106 107 110 114 118 118 120 122 124 125 124 125 124 121 119 117 114 109 108 104 103 100  99  98  96  93  90  90  88  86  85  83  84  82  81  76  69  60  49  41  34  29  25  25  32  44  50  54  58  71  88 136 161 165 167 167 168 168 168 167 167 167
 164 166 165 164 164 166 167 167 166 167 166 166 166 166 167 160 136  61  51  49  41  37  36  36  39  45  59  81  97 102 106 107 111 116 120 120 122 121 122 124 124 127 128 125 120 118 115 111 108 107 105 103 101 100  98  96  92  90  88  87  86  86  86  86  87  80  73  66  57  47  42  34  29  25  28  40  47  54  57  66  83 125 155 165 168 167 168 167 167 167 167 166
 165 165 165 165 165 165 166 166 166 166 166 167 166 167 166 155 127  57  49  45  38  36  34  34  38  47  64  88  96 101 106 106 112 115 116 117 119 118 116 118 118 118 123 123 121 116 110 107 106 105 105 104 102 101  98  98  95  95  92  87  88  89  87  90  90  85  78  72  64  54  49  40  34  28  27  33  45  51  56  60  71 116 152 165 168 169 167 167 168 166 167 167
 165 165 166 165 165 165 165 166 165 166 167 168 167 167 165 153 123  57  47  45  39  35  34  33  37  51  74  93 100 101 105 109 113 113 112 111 112 112 111 112 113 114 116 117 119 113 110 109 107 109 108 104 102 101 100  97  99 100  98  96  92  92  92  93  94  92  86  82  69  60  54  48  41  32  26  31  41  49  52  55  63 101 154 166 167 167 168 168 168 167 166 166
 164 165 166 166 166 166 167 168 167 167 167 168 167 165 164 157 118  57  48  42  42  35  30  31  38  61  85  96 101 104 107 111 111 109 106 104 101 101 102 102 101 106 107 110 111 110 107 107 107 111 112 105 102 104 104 105 104 102 100  98  96  94  93  97  96  95  93  90  79  69  62  55  47  36  26  28  37  45  49  53  59  76 141 163 167 168 168 168 168 167 167 165
 165 165 166 167 167 167 168 167 167 169 168 168 167 166 165 161 117  53  47  42  40  31  29  30  44  73  92 100 102 106 107 113 111 108 102  97  97  92  91  91  93  94  99 101 105 108 108 109 110 111 107 103 104 106 106 107 104 107 103  98  98  97  99 100 101 101  96  94  86  78  67  60  51  39  27  26  32  41  44  52  57  65 107 161 167 168 168 168 168 168 168 164
 166 166 166 166 166 166 168 168 167 169 168 167 166 169 169 164 119  51  46  43  34  30  27  31  54  83  96  99 100 101 102 101  99  94  94  90  88  85  81  82  84  87  93  97  97 101 103 105 107 110 109 107 105 108 108 105 103 105 102  99  98  98 101 103 103 103 102  98  92  86  76  65  54  42  29  26  29  38  41  49  57  66  82 149 165 168 169 168 167 168 167 165
 166 166 167 166 167 168 169 169 167 168 169 168 168 169 170 162 123  57  49  41  32  27  26  35  67  87  93  88  83  81  76  70  66  64  66  61  61  66  69  73  76  78  83  88  88  90  95  96  96 100 102 101 103 102 102  99  97  94  94  95  96  96 100 104 105 107 108 105  99  90  79  68  57  43  30  27  29  38  39  47  54  66  94 146 162 167 168 168 169 169 168 166
 166 167 167 167 168 168 168 169 168 168 169 167 169 168 169 164 129  63  50  39  30  24  25  43  75  83  74  65  58  58  59  51  44  39  39  37  37  37  46  53  56  64  69  72  77  80  84  87  87  89  92  93  94  96  92  89  87  87  87  88  91  93  96 102 106 108 109 109 103  94  82  72  59  45  31  29  30  39  42  47  52  64  94 144 163 167 168 168 168 168 167 168
 165 166 167 168 169 168 168 168 169 170 169 168 169 168 170 166 131  64  51  37  27  23  25  52  80  72  63  55  51  50  46  42  37  33  31  29  28  27  30  31  38  49  58  66  69  73  74  78  81  85  84  85  86  86  84  82  81  80  80  84  84  86  90  97 103 111 112 110 104  97  88  78  63  48  32  30  32  40  43  45  52  57  89 140 163 168 168 167 168 168 167 167
 166 166 166 168 168 168 168 168 169 169 170 170 169 169 170 168 147  68  53  35  29  27  29  62  76  64  54  50  48  48  46  42  40  37  32  29  27  27  27  27  29  33  41  51  59  66  66  67  74  77  77  76  74  75  70  71  70  66  71  73  76  77  82  90  96 107 114 116 111 105  95  84  71  51  35  32  36  41  40  41  48  54  73 132 159 166 167 168 169 168 168 167
 167 167 168 167 167 167 169 168 168 170 170 169 169 169 170 167 156  72  56  47  30  30  29  32  34  35  38  44  47  52  55  56  54  51  48  41  35  33  30  31  30  31  34  40  46  55  62  70  71  73  71  65  65  64  58  58  56  56  55  57  62  68  75  86  91 103 113 117 116 110 102  91  77  58  38  32  36  42  41  38  43  54  69 112 159 166 167 168 169 168 168 167
 167 168 169 167 167 169 168 168 168 170 169 170 170 168 169 168 157  77  56  44  27  25  24  34  48  59  58  58  52  46  41  34  35  41  50  55  54  45  40  36  35  34  34  38  46  52  59  68  69  69  64  58  54  52  50  48  47  44  43  40  42  48  52  63  72  84  96 107 114 112 110 101  86  65  42  31  40  42  41  40  41  52  70 121 146 167 169 168 169 168 168 169
 167 168 169 168 168 169 169 168 168 169 168 170 170 170 170 169 159  81  55  44  26  23  30  37  57  70  67  69  70  69  71  72  69  60  53  43  39  40  42  48  44  39  38  40  47  56  63  68  69  67  59  53  48  43  40  37  34  33  29  28  29  31  31  35  44  53  63  79  93 101 109 104  93  70  42  30  37  44  42  40  38  47  66 128 151 166 169 169 169 169 170 169
 167 168 169 168 170 170 170 170 169 168 170 170 171 171 171 171 164  87  53  43  25  23  37  32  62  66  66  70  63  55  54  58  60  58  54  50  53  50  49  39  36  36  35  39  49  62  67  74  72  70  62  51  45  39  33  28  28  26  25  23  24  24  23  25  30  36  41  52  65  84  93  99  96  78  46  28  32  48  41  41  38  42  59 123 161 167 169 169 169 169 168 169
 167 168 168 170 170 169 169 170 170 169 170 171 172 171 171 169 165  96  48  38  25  23  38  34  59  63  67  62  53  61  62  55  50  48  49  50  46  40  44  45  47  48  39  28  35  58  72  79  80  75  67  58  46  37  30  29  28  27  26  26  26  24  22  21  24  27  32  41  51  63  75  80  88  79  47  28  28  46  38  39  37  38  54 112 159 168 170 168 169 168 169 170
 168 168 168 169 169 171 170 171 171 171 171 172 171 170 170 170 168 110  48  34  28  26  44  47  60  64  64  57  57  47  46  46  33  30  29  28  34  40  40  41  44  47  52  50  27  33  55  74  87  83  76  63  47  46  43  42  43  41  43  41  39  35  31  29  29  28  33  38  44  53  60  68  76  77  49  28  28  39  38  39  41  41  52 103 158 167 169 168 169 169 169 170
 167 168 167 169 170 170 170 172 169 171 171 170 170 170 171 170 166 114  52  36  32  29  54  69  71  66  61  54  45  44  62  72  42  29  27  28  32  41  38  44  45  46  52  57  38  23  24  25  28  32  34  31  27  28  31  30  30  31  31  31  32  35  35  32  32  31  33  38  44  50  55  59  70  75  49  27  26  36  37  36  43  39  55 107 157 167 168 168 170 169 168 168
 167 168 167 168 169 170 171 170 171 172 171 170 171 170 170 169 164 126  57  41  42  32  69  87  84  75  64  62  56  49  58  70  51  36  33  34  47  54  43  39  56  60  63  65  37  21  21  25  24  22  20  23  36  43  41  39  38  38  38  40  42  43  45  44  39  37  31  25  27  33  42  55  64  68  48  27  25  31  35  35  42  40  62 111 153 166 169 169 168 169 170 169
 166 168 168 168 170 170 171 171 170 172 170 170 170 171 170 170 165 132  58  51  53  37  81  94  97  86  74  67  61  54  54  56  59  56  57  59  64  62  62  64  72  80  77  81  28  25  30  39  35  26  21  26  48  39  37  36  34  33  33  37  40  43  45  43  46  55  63  64  54  44  34  25  28  40  41  26  24  28  34  34  43  45  66 124 155 167 168 169 168 167 168 169
 166 166 168 168 169 170 170 171 170 171 172 172 171 171 170 170 166 137  57  59  60  31  89 100 106 100  86  73  65  60  60  57  57  59  58  60  60  62  67  73  78  75  75  58  25  26  74  88  74  40  25  34  52  40  38  41  38  37  39  40  40  41  46  49  51  46  51  61  65  62  57  54  45  26  24  24  24  29  36  35  41  54  75 142 160 166 167 168 169 168 168 168
 166 167 168 168 168 168 169 170 169 170 170 171 170 171 171 170 167 133  54  71  73  25  84 103 111 110  98  84  71  64  60  56  57  60  62  63  67  71  74  76  77  73  73  34  22  65 124 129 107  75  30  39  68  51  49  44  37  37  43  53  34  30  25  25  31  45  53  45  51  60  59  60  68  52  24  24  23  29  44  36  40  66 104 155 166 168 167 168 169 168 167 166
 166 166 167 167 168 168 168 168 168 169 169 169 172 170 169 169 167 122  58  79  90  34  52 110 113 110 101  92  81  73  66  66  67  69  69  69  72  78  81  83  85  89  66  26  32 106 134 141 126 101  31  40  79  66  59  57  51  48  56  64  35  31  24  24  28  34  40  49  40  55  58  61  64  52  30  23  23  34  42  35  42  79 136 162 168 168 167 166 166 166 167 167
 165 165 166 166 167 166 167 168 169 169 169 170 171 170 170 168 163 110  61  88  97  90  42  46  86 109 102  96  88  79  76  72  70  71  71  73  79  82  85  88  93  96  37  20  82 117 132 136 128 111  32  32  86  76  70  69  65  60  61  62  45  32  30  29  40  49  37  38  41  46  53  56  56  44  30  24  21  36  39  36  41  93 154 165 168 167 167 167 166 167 167 167
 166 166 166 166 166 166 167 167 166 168 168 169 170 169 170 166 166 106  68  93  98 104 105  81  48  39  64  84  93  84  81  80  75  74  74  77  80  83  86  87  90  65  24  51 106 122 136 139 130 115  43  27  86  85  77  73  65  54  52  49  49  47  44  48  56  57  48  40  41  45  49  52  51  40  30  22  20  45  44  38  49 105 156 165 167 168 168 166 167 168 168 167
 165 165 165 166 166 167 166 167 166 167 167 167 168 168 168 166 163 100  74  95 101 102 102 104 105  95  69  48  35  45  56  70  75  82  80  80  84  87  90  88  65  29  35  98 116 129 139 139 128 115  59  28  72  94  86  79  73  61  53  46  44  45  46  48  52  54  56  57  50  48  50  53  50  46  24  20  24  39  41  40  68 134 160 164 166 167 167 167 167 166 168 167
 164 164 164 164 165 166 166 166 167 167 166 166 168 166 167 166 162  93  81  96 103 100  99 100  99  99  97  97  90  79  62  50  40  32  39  38  47  55  58  38  33  29  93 107 118 128 140 135 128 120  89  27  55  94  94  89  79  69  61  54  49  48  47  47  52  55  62  65  66  61  62  63  62  52  22  26  30  33  30  42  92 149 162 165 165 166 166 166 166 167 166 166
 162 162 162 164 164 163 165 166 166 166 165 166 167 167 166 166 158  86  83  98 103  98  96  98  97  94  94  95  91  89  88  83  81  80  75  69  63  62  60  58  53  73 103 110 118 128 132 129 129 127 109  43  32  90  93  95  88  77  67  59  56  55  52  51  52  56  62  68  72  78  84  83  82  49  29  36  37  37  36  50 123 153 162 164 166 166 165 165 166 164 164 164
 162 161 164 163 163 164 164 165 166 168 166 166 166 167 166 166 151  89  87  97 101  97  94  95  94  94  95  95  94  91  89  86  83  81  78  75  71  66  61  68  82 101 109 114 117 125 130 126 128 128 117  74  28  36  77  91  89  85  78  70  62  61  62  63  64  66  68  72  83  95 100 102  94  34  40  44  40  39  46  70 144 157 163 164 164 165 165 164 163 163 163 163
 162 161 162 162 163 164 164 165 165 166 166 166 166 166 166 166 142  94  87  98 100  95  92  95  93  96  99  99  98  95  93  88  84  81  77  70  64  60  72  96 104 107 113 117 113 116 123 121 129 134 122  97  60  43  24  42  64  76  79  78  71  65  65  67  70  74  79  83  93 106 111 111  76  26  67  50  42  47  54  91 147 156 161 163 165 164 164 163 163 162 163 164
 160 160 161 162 163 162 163 164 165 165 164 165 165 165 165 164 134  94  91  97  98  92  92  94  95  97  97  98  98  98  96  92  88  86  80  72  63  63  92 100 100 101 109 114 115 116 116 113 121 141 130 109  87  72  67  49  35  25  37  51  61  65  70  70  73  80  89  96 104 112 115  94  40  44  87  51  45  51  76 122 153 158 161 162 163 163 163 164 163 162 162 162
 160 160 160 161 161 162 163 162 163 164 164 165 164 165 166 164 138  99  92  98  98  96  94  95  93  95  98  99  99 100  99  97  95  92  86  77  67  71  85  87  80  84  90  98  99 106 105 103 105 128 124 112 108  87  67  68  74  76  67  55  41  33  32  34  44  51  53  62  70  67  54  30  39  92  87  53  47  54 108 150 157 159 161 162 162 163 162 162 162 163 162 162
 160 161 161 161 162 161 162 162 163 163 164 164 164 165 164 162 134  93  90  98  98  95  94  92  94  99 103 103 101 101 100  97  96  92  85  80  74  68  67  67  64  66  72  80  83  85  85  90  91  98  97  98 104 106  76  63  69  75  82  86  87  85  80  76  70  64  64  67  68  73  82  92 107 103  86  52  44  60 133 153 158 159 160 160 161 161 162 163 162 162 162 162
 160 159 160 160 160 160 161 161 162 163 162 163 163 164 164 161 115  85  89  96  98  94  94  94  99 100 101 103 101  97  95  93  88  86  82  82  80  68  54  48  42  42  60  67  69  70  71  73  75  73  70  73  84  96  82  59  65  70  75  83  86  87  89  90  91  94 100 105 111 116 118 115 110 103  79  50  44  72 146 155 156 158 159 159 159 159 161 162 163 160 161 162
 160 160 159 159 160 162 161 162 162 162 162 162 163 162 161 153 107  82  88  97  96  94  95  97  99  98  98  98  98  95  93  91  85  83  82  84  85  70  48  40  34  31  39  58  59  56  56  58  60  57  48  54  62  69  70  57  66  69  74  79  85  88  92  96  96  97  98 101 105 110 114 114 108 101  75  51  48  89 150 154 155 155 157 158 159 159 160 160 161 160 160 161
 159 160 159 159 161 161 161 161 161 162 161 164 162 162 160 134  89  81  91  97  95  95  94  95  97  95  94  94  92  91  89  87  84  83  86  90  89  76  52  36  32  36  44  48  51  47  45  49  46  27  27  35  44  52  56  52  61  68  74  77  83  89  94  97 101 101 102 102 100 105 109 108 106  99  72  49  58 111 150 154 155 155 157 157 157 158 158 160 160 159 159 159
 158 160 159 159 160 160 160 161 160 162 161 161 161 161 161 126  82  86  92  97  95  94  93  92  92  91  90  90  86  85  83  82  87  89  92  94  93  81  63  53  47  46  52  49  49  44  44  42  37  30  28  33  39  48  53  58  62  68  69  77  86  91  95 100 101 103 104 105 102 102 104 106 105  95  69  55  67 136 151 153 154 156 156 156 155 157 157 158 158 159 159 158
 157 158 159 158 159 158 160 161 160 162 161 161 161 160 160 151  91  86  93  97  93  95  94  90  89  89  87  85  84  82  78  83  92  95  97  97  93  84  78  70  66  64  63  54  46  43  42  42  43  36  29  34  39  49  59  66  70  75  75  79  85  93  94  97  99 102 100  99 102 102 102 105 104  95  74  61  92 144 151 153 154 153 154 154 155 155 155 155 158 157 156 156
 156 156 157 157 158 158 159 160 160 160 160 161 160 161 160 153 112  87  92  93  92  91  91  89  88  86  85  84  82  80  82  88  93  96  95  94  91  88  86  83  78  75  69  56  47  43  43  52  60  50  44  45  48  58  68  73  75  76  78  82  86  92  94  95  97 101 100  98 100 102 101 102 102  94  76  68 116 147 151 154 153 154 154 154 154 154 154 155 156 156 157 158
 156 156 157 157 155 157 155 156 158 160 159 160 160 161 160 152 109  86  93  92  90  90  91  89  88  86  83  81  80  82  85  90  90  91  92  92  92  91  91  88  85  80  73  58  49  50  52  60  71  70  66  65  64  68  77  82  81  76  76  82  87  92  93  92  94  98 100  99 100  99  98 101  99  95  82  90 135 148 150 152 152 154 153 154 155 155 155 155 155 154 156 156
 155 155 155 155 156 156 157 156 157 157 159 161 160 161 159 154 105  86  96  92  90  90  89  88  86  85  80  81  80  81  84  85  83  86  89  92  94  96  97  96  88  84  77  63  51  53  59  68  79  85  85  83  80  85  87  88  87  82  77  81  86  90  94  94  95  96  98  98  98  98  98 100  96  94  91 110 142 148 150 150 153 151 152 155 154 154 155 154 154 155 155 156
 155 155 154 155 155 155 156 156 157 158 160 161 160 160 160 153 110  87  89  88  90  89  87  84  82  83  80  80  79  82  81  78  79  85  88  93  95  97  99  95  88  84  81  71  58  55  64  76  87  95  95  92  93  94  93  91  93  90  83  84  85  89  93  95  96  96  96  96  96  97  98 100  92  90  93 127 144 147 150 150 149 150 151 153 154 154 153 152 153 154 155 153
 154 154 155 153 155 156 154 155 158 157 159 159 160 160 158 153 109  83  90  88  86  84  81  81  84  83  80  78  80  79  74  69  69  78  85  89  90  91  84  77  70  72  81  82  76  73  78  86  95 102 103 100 100  99  94  92  94  94  89  83  85  86  92  96  97  96  94  95  97  99  99  96  90  87  96 131 146 148 148 148 147 148 150 153 154 152 152 153 152 154 153 153
 155 157 156 154 156 156 158 157 156 157 158 160 160 160 159 154 111  84  93  88  83  82  75  77  82  83  80  79  77  70  64  55  56  66  75  73  67  56  50  49  49  50  59  69  74  72  69  69  77  94 102 108 108 104  97  91  92  94  91  85  84  85  88  93  96  96  97  97  97  98  99  99  90  88  97 131 146 147 148 148 147 148 150 151 150 151 152 152 153 153 153 151
 154 154 155 155 155 154 155 155 156 158 160 158 159 158 158 149 116  84  89  87  81  79  75  76  80  81  80  78  71  63  54  45  40  49  50  44  38  36  37  40  42  44  43  45  48  46  45  45  48  55  78  98 104 105  96  89  87  90  91  87  81  85  84  89  94  96  96  97  94  99 100  96  93  82  90 119 141 146 148 148 147 147 150 149 148 149 150 150 150 151 150 150
 153 154 154 155 155 155 156 155 156 155 157 158 158 158 158 149 120  82  86  84  81  78  76  73  76  78  78  75  69  64  56  48  45  46  40  33  33  37  40  38  35  36  35  35  33  36  37  42  42  36  40  62  83  96  96  87  81  82  89  85  79  81  83  88  92  94  95  97  93  96  99  92  87  77  74  99 142 146 146 146 148 147 148 148 148 149 148 148 147 148 147 146
 153 153 154 154 154 155 155 155 154 156 157 157 157 158 157 152 130  84  81  81  78  72  68  67  71  73  73  70  66  64  64  66  72  73  73  68  63  59  59  57  55  55  44  33  30  30  31  33  32  29  29  33  47  71  80  71  67  71  79  81  80  81  81  85  87  91  92  93  93  95  98  90  82  76  78 118 143 146 147 145 146 145 146 146 146 147 148 148 147 147 148 147
 153 153 153 153 153 154 156 155 155 155 157 157 156 157 157 155 143  84  75  79  74  68  66  62  67  69  71  67  65  66  71  76  80  80  80  80  75  68  65  61  59  59  55  51  50  51  51  51  54  54  39  31  29  40  52  49  50  58  70  78  78  81  80  86  85  88  88  89  91  95  94  87  77  89 129 140 144 145 146 144 143 144 145 145 145 146 145 145 144 144 146 146
 152 152 153 153 153 154 155 154 154 155 156 156 156 157 156 155 150 100  72  72  70  67  64  64  66  69  69  66  67  69  75  78  80  80  82  82  78  66  59  53  53  52  51  51  54  53  54  55  57  64  68  66  56  45  33  28  34  48  59  71  78  79  80  82  84  83  84  85  88  92  89  81  77 103 136 142 144 145 144 142 141 144 144 145 144 143 145 144 144 142 145 144
 152 151 152 153 155 154 154 154 153 154 155 157 157 156 155 154 154 129  73  67  69  69  67  66  66  68  70  67  68  70  75  76  76  76  78  78  77  71  62  54  48  43  40  42  45  48  52  56  60  64  75  82  85  86  76  54  45  49  56  66  74  78  80  78  78  78  80  83  84  89  89  76  80 117 137 141 142 144 141 143 141 143 143 144 144 142 143 143 142 143 143 144
 152 154 153 152 153 154 153 154 153 154 154 156 155 155 155 154 154 142  82  64  67  66  67  68  69  71  70  68  69  73  73  72  73  75  76  74  71  66  62  56  51  46  44  40  39  40  42  45  51  56  68  79  85  92  90  81  63  56  57  63  72  75  78  78  76  73  78  84  83  87  82  75  86 122 136 140 141 143 143 143 142 142 143 144 143 143 144 142 141 143 142 144
 151 153 153 152 153 152 152 154 154 155 155 154 155 154 154 154 154 148 105  59  62  63  67  67  70  71  69  70  73  76  75  75  74  76  77  75  71  68  65  60  59  57  53  50  45  47  48  48  54  60  69  74  84  88  87  85  74  64  61  61  68  73  73  76  76  72  76  81  79  86  78  74  93 129 139 140 141 141 142 141 141 140 141 142 143 143 143 142 141 142 143 143
 152 153 152 152 152 151 153 153 153 155 155 154 154 153 153 153 154 151 132  56  57  62  63  69  71  72  73  73  75  74  75  74  76  79  81  78  75  72  68  67  67  64  62  58  56  56  55  52  54  60  63  69  76  81  84  83  79  70  62  62  66  71  69  70  72  76  73  78  80  83  76  76 110 134 139 140 140 139 139 140 140 140 139 139 141 140 141 141 141 141 140 139
 151 151 151 153 152 151 152 152 153 154 154 154 154 155 154 153 152 151 149  81  54  58  61  65  70  71  73  76  76  78  77  80  81  82  84  83  83  82  78  78  77  75  73  69  64  62  62  59  57  62  64  69  71  74  79  82  80  74  66  61  63  66  67  68  67  71  70  73  76  78  75  85 120 135 138 139 138 138 139 140 139 139 138 138 139 139 139 141 141 140 139 140
 152 151 152 152 152 152 152 152 152 153 152 154 154 154 152 152 153 152 149 113  52  54  56  62  68  70  71  74  77  82  85  86  85  86  88  88  90  92  88  89  91  89  88  90  87  84  75  69  68  69  71  73  75  74  78  78  77  74  68  63  61  61  61  62  58  64  68  70  75  68  73  99 126 133 137 139 138 138 138 138 138 138 137 137 138 138 139 139 139 139 139 139
 151 151 149 152 152 152 150 151 153 152 153 153 152 153 152 152 152 149 149 142  72  56  58  60  66  69  72  75  78  81  85  86  87  88  89  93  96  98  96  97  99  95  96  97  96  96  95  93  86  83  82  80  81  81  78  79  76  73  69  63  62  60  59  56  56  63  63  66  67  65  71 112 130 134 135 137 136 137 137 137 136 137 137 137 138 138 139 138 138 139 137 138
 149 150 149 151 151 152 152 152 152 153 153 153 152 151 150 151 150 152 149 146 114  64  55  57  60  64  67  70  75  81  83  85  87  89  93  96  97  98  98  98  96  95  94  97  98  99 101 103 101  91  88  86  84  87  85  81  79  74  71  65  62  59  58  58  58  64  64  65  58  64  81 125 132 134 133 135 135 135 136 137 136 136 136 136 136 136 136 136 137 137 136 137
 147 148 150 150 150 150 150 150 152 152 151 152 153 151 150 149 148 148 146 146 139  87  52  52  54  58  61  66  74  79  82  83  86  88  91  93  93  94  97  92  89  88  88  91  95  98 102 104 102  98  92  88  87  88  88  85  81  75  71  66  63  60  60  57  63  68  65  59  55  71 100 128 131 134 135 134 134 135 137 134 135 135 135 134 134 133 134 134 136 134 135 136
 147 148 148 148 148 148 151 150 150 150 152 150 149 149 148 148 148 148 146 144 142 123  53  46  48  51  54  56  65  72  76  79  81  84  86  90  88  85  88  84  84  80  79  83  88  92  99 104 105 102  95  92  90  88  87  83  77  75  69  65  61  60  62  59  57  62  58  49  53  88 121 130 132 132 134 133 134 135 134 134 135 134 135 134 133 134 133 133 134 135 134 135
 146 146 147 148 146 148 149 149 149 149 151 150 149 148 146 146 145 146 144 144 142 130  75  45  41  41  44  47  53  61  66  67  70  73  75  79  78  78  78  76  72  68  68  72  78  86  92 100 100  98  95  94  90  86  84  81  76  74  70  65  60  55  56  58  58  51  47  50  68 110 126 129 130 132 132 132 133 133 133 132 133 132 132 132 132 132 133 131 132 132 133 133
 145 145 147 147 147 148 149 147 147 148 148 148 147 146 146 146 145 145 144 142 141 130  83  55  35  34  36  41  43  51  54  60  63  65  62  66  67  71  67  66  63  59  58  65  70  79  83  87  92  93  93  93  89  87  83  79  76  70  66  64  60  58  54  53  53  47  43  58 105 123 126 127 128 130 130 129 130 130 132 133 130 131 130 127 129 128 130 129 130 130 131 132
 146 145 146 146 146 146 146 147 146 146 146 147 147 146 146 144 144 143 141 140 138 126  85  68  43  33  32  33  38  39  42  46  52  51  50  53  58  60  55  52  52  48  54  58  62  66  70  77  82  83  83  85  83  84  81  74  70  67  63  57  56  55  52  49  47  42  38  40  72 107 123 125 126 128 127 128 131 130 130 130 129 129 129 130 128 127 127 126 128 130 128 131
 144 143 144 145 145 146 146 146 145 147 145 144 146 144 145 142 141 142 140 138 103  66  81  71  54  35  31  30  30  30  34  39  44  43  41  41  45  46  46  43  44  45  49  51  55  57  59  66  68  69  71  75  75  76  76  68  66  62  57  53  50  50  48  45  39  40  58  35  33  43  63  94 118 121 123 125 126 127 127 128 126 128 127 127 126 126 126 124 126 126 126 126
 143 142 143 143 144 144 145 145 145 144 144 144 143 142 142 140 140 137 115  54  25  59  79  70  60  41  32  30  29  30  31  33  36  34  30  34  36  36  40  38  38  40  43  45  47  48  51  50  53  56  63  65  68  67  64  60  57  55  52  49  47  45  43  43  38  58  67  70  36  30  33  35  41  58  76  98 118 124 125 124 125 125 125 125 125 125 124 125 124 125 126 126
 142 142 142 142 141 142 144 142 143 144 143 141 140 140 140 135 116  70  33  27  71  87  78  72  67  54  38  30  29  29  29  30  30  29  29  28  30  30  34  31  32  33  36  38  35  38  41  42  42  43  51  50  55  52  52  50  50  47  46  44  45  45  41  44  53  82  84  64  58  26  27  31  32  31  29  28  33  74 116 123 123 124 124 125 124 125 125 125 125 125 124 125
 140 138 139 139 139 141 142 142 142 142 142 140 139 137 121  75  40  36  25  73  90  85  78  71  67  62  52  41  32  28  29  29  28  27  25  24  26  26  26  26  28  30  29  30  29  31  32  33  33  31  37  37  40  39  39  41  39  43  45  45  44  45  40  48  75  88  88  64  62  39  23  27  28  29  24  24  25  30  43  67  96 115 118 120 121 120 122 122 123 122 122 123
 139 139 138 139 139 138 140 139 140 139 138 137 118  64  40  35  30  26  53  92  89  83  77  66  65  63  58  52  44  31  29  29  28  24  24  23  22  21  19  22  21  25  26  24  23  24  27  25  24  25  27  29  27  29  31  34  39  41  44  44  43  44  45  68  82  91  89  70  63  47  20  24  26  28  26  22  21  23  28  31  31  38  49  69  81 100 116 119 121 120 122 122
 137 136 138 138 138 137 137 137 138 136 121  75  34  34  30  27  24  21  81  93  89  81  75  69  64  62  60  56  50  38  29  28  27  24  24  24  19  19  19  18  17  20  21  18  18  18  21  18  19  20  21  23  24  27  31  35  42  45  45  44  42  45  65  76  86  90  90  76  62  50  22  19  23  25  24  20  20  20  22  25  27  27  29  29  29  30  40  77 114 118 119 120
 136 135 138 136 136 136 136 135 124  75  38  33  28  26  25  22  23  33  90  90  86  79  74  68  65  62  61  58  53  45  35  27  26  24  25  25  22  21  21  20  21  20  19  20  18  17  18  17  18  20  20  23  23  28  32  35  42  45  45  45  43  61  72  79  88  90  90  81  58  50  25  19  22  23  24  20  20  20  20  21  24  24  25  25  26  25  27  30  41  78 107 118
 136 136 135 136 134 136 114  76  36  32  29  27  25  22  22  21  23  39  90  89  84  79  75  69  66  63  62  62  58  54  46  35  28  26  26  24  23  23  22  23  22  23  23  23  22  21  20  22  22  20  21  23  26  29  33  35  41  42  42  42  57  66  74  82  87  90  91  84  60  51  28  19  20  22  20  21  20  20  19  20  21  24  24  23  25  23  24  26  28  31  33  45
 133 133 133 128 100  58  33  32  29  27  24  22  21  21  19  20  21  47  89  87  81  78  75  69  65  63  62  62  61  58  51  44  31  27  26  24  23  23  24  23  22  21  23  23  23  23  23  22  23  22  23  24  26  30  35  37  38  39  44  56  65  72  79  83  88  90  92  83  60  49  27  18  20  22  21  20  20  22  20  20  20  21  23  22  21  22  24  25  25  26  28  28
 131 126  94  51  29  30  28  27  26  25  23  21  19  19  18  18  21  52  89  87  81  76  75  69  66  63  61  62  61  59  57  51  42  32  28  27  24  23  24  23  22  22  22  21  22  22  23  23  24  23  23  24  26  30  34  36  34  46  56  63  70  75  79  83  88  90  92  78  53  47  25  18  19  20  20  20  20  21  19  20  20  21  21  21  20  20  23  24  24  25  23  26
  97  42  29  28  25  26  25  24  22  24  20  19  18  18  18  18  19  44  86  86  82  76  73  69  66  64  63  60  61  61  59  54  48  40  32  30  28  24  24  22  22  21  20  20  20  19  21  23  24  23  24  24  27  30  32  36  47  54  60  66  72  77  80  85  89  90  90  72  49  43  23  17  17  17  20  20  20  20  19  19  18  19  20  20  20  20  20  22  21  21  20  21
  31  28  26  26  25  25  22  23  20  22  20  19  18  18  18  17  18  35  86  85  82  77  73  69  68  66  64  63  62  60  59  57  54  47  41  34  30  29  26  24  24  23  22  21  20  21  22  23  23  23  23  26  27  32  42  49  54  59  65  69  75  78  83  86  90  90  91  65  49  39  21  17  19  18  19  19  20  20  20  19  19  19  20  20  23  22  22  22  21  22  21  22
  26  25  23  22  21  21  19  20  19  20  18  16  17  17  17  16  17  22  82  85  81  77  73  67  67  67  66  65  63  61  59  56  55  52  45  40  33  31  29  27  28  24  23  23  21  20  20  21  23  24  26  28  35  47  52  54  58  62  66  69  75  77  81  84  89  90  88  58  46  33  18  17  16  18  18  19  19  20  19  18  17  17  19  19  22  21  21  22  21  21  20  20
  22  20  23  20  19  20  19  18  18  18  17  17  16  15  16  16  16  15  70  85  80  76  70  67  66  68  67  66  64  64  60  58  55  53  50  44  40  37  34  31  28  29  27  25  24  21  22  24  25  28  35  42  49  53  55  56  58  61  65  70  74  75  80  83  90  90  85  50  41  27  16  16  16  17  17  17  19  19  18  18  18  18  19  18  20  20  20  20  19  20  20  20
  20  20  20  19  19  18  17  17  18  18  18  17  14  14  13  15  14  16  46  82  80  78  70  69  67  67  66  66  65  63  62  60  58  55  53  50  44  42  39  35  31  30  29  28  25  26  26  30  33  36  43  49  52  54  56  56  58  63  65  71  75  77  82  82  90  93  75  47  35  22  16  15  16  17  17  18  19  19  17  17  17  16  16  17  18  19  18  19  20  19  20  20
