P2
# Generated by OpenCV 3.4.0
92 112
255
 136 136 134 136 136 135 137 137 137 137 138 138 138 137 137 138 138 138 140 141 140 140 138 135 136 135 109 110 102  89  76  70  84  88  73  75  77  85  89  91  85  75  79  91 106 113 108 110 124 136 143 145 146 147 146 147 147 148 147 148 148 147 148 148 148 147 148 149 147 148 148 148 150 148 148 148 148 148 148 147 148 148 148 148 148 148 148 147 148 147 147 147
 136 134 135 136 137 136 138 136 138 139 138 137 138 138 140 139 140 141 142 141 140 138 135 132 131 101 106  88  71  57  59  71  63  58  57  54  54  59  58  60  65  69  70  83  90  83  94  97 103 106 136 143 145 146 147 148 148 148 149 149 148 147 149 149 148 148 149 150 149 148 149 148 148 149 148 149 149 148 147 147 147 149 149 148 148 149 149 149 147 147 147 147
 135 135 136 135 136 137 137 137 136 137 139 140 139 138 141 140 141 139 141 142 142 138 134 124 107 109  86  63  58  51  62  65  58  49  41  44  46  50  47  48  45  46  46  42  51  59  61  71  81  94 121 139 144 146 147 146 148 148 148 148 149 148 148 148 149 149 149 149 149 150 149 148 149 149 149 150 148 149 148 148 148 149 148 148 148 149 148 148 148 147 147 148
 136 136 136 136 137 136 138 138 139 140 139 140 140 139 141 140 141 141 142 140 138 135 126 109 100  95  51  41  43  52  64  51  46  36  40  41  45  42  39  40  40  39  40  43  45  47  43  41  44  48  62 114 138 141 139 142 142 144 146 147 148 147 148 149 149 148 149 150 149 149 148 148 150 149 151 149 149 149 149 149 148 149 148 148 148 149 149 149 148 149 147 148
 136 136 136 137 137 137 137 137 139 139 140 140 141 139 140 142 142 141 140 138 136 130 112 103  97  61  41  38  44  62  42  41  35  36  35  37  35  32  34  37  38  38  40  44  44  41  36  36  38  38  48  66  86  78  84  82  76  84 118 143 147 148 148 149 148 149 149 150 149 149 150 149 149 150 152 150 149 149 150 149 150 150 149 149 149 149 148 149 149 147 148 148
 136 136 135 137 137 137 137 138 138 139 138 140 141 142 142 142 141 140 139 138 137 118 112  99  98  39  41  37  49  41  38  32  31  32  32  31  32  34  34  36  35  34  36  34  36  33  33  39  42  45  47  50  50  46  48  50  50  55  76 124 138 144 148 148 148 149 148 149 149 150 149 149 149 149 149 149 149 149 149 149 150 148 149 150 150 148 149 149 148 148 148 148
 136 138 136 136 138 137 137 138 137 137 137 140 141 140 142 140 140 142 138 134 130 111 112  93  57  50  29  36  39  34  28  27  27  25  25  26  25  27  28  32  32  33  32  30  30  30  33  36  40  39  39  40  42  42  42  41  47  47  51  71  96 123 139 145 147 149 149 148 148 149 150 149 150 150 150 150 150 150 150 148 149 151 150 148 152 150 150 149 148 148 148 148
 137 137 138 137 136 138 138 138 137 138 139 138 140 140 140 140 140 141 140 132 127 119 104  71  34  31  27  33  35  30  23  22  23  24  22  22  20  21  23  24  25  24  25  27  27  30  31  32  31  31  34  35  35  39  36  42  39  38  38  45  50  53  75 124 143 148 148 149 150 149 149 149 151 150 151 150 151 152 152 150 149 150 149 148 150 149 150 148 148 149 148 147
 137 136 137 138 136 138 137 139 139 139 138 140 139 137 138 140 141 140 139 131 129 116  85  40  31  25  31  33  32  26  20  17  17  18  16  18  19  19  19  18  18  18  21  22  24  25  24  24  25  28  29  29  35  35  37  37  35  33  35  38  40  44  49  74 109 142 145 149 149 149 150 149 149 149 150 150 150 150 151 150 149 149 149 149 150 150 149 150 149 149 149 148
 136 136 137 136 138 137 137 138 138 138 138 140 139 138 139 138 140 138 137 128 124 111  56  31  27  25  30  33  27  24  16  15  16  16  15  16  15  16  15  16  17  17  17  19  19  17  19  21  24  25  27  31  31  29  29  33  32  30  33  34  38  40  40  47  54  72 113 141 147 148 148 148 149 148 149 148 150 151 151 149 149 150 149 151 151 150 148 148 149 149 148 148
 136 137 137 137 138 137 136 138 138 138 139 140 139 139 140 140 139 139 137 125 117  93  35  27  23  24  28  30  23  19  16  15  14  15  14  16  15  15  16  17  17  17  16  16  16  17  20  20  24  25  25  26  25  25  29  33  32  31  31  34  34  35  36  39  43  46  52  70 115 141 145 148 148 149 149 150 149 149 150 150 149 151 149 149 151 151 149 148 148 149 149 149
 136 136 135 137 137 137 138 138 139 139 138 140 140 139 138 137 139 137 135 124 108  52  29  24  21  24  24  23  21  16  16  14  14  13  13  14  15  14  14  14  16  16  16  19  19  20  20  21  24  24  25  26  24  26  29  30  29  28  28  28  32  32  35  37  38  40  38  42  51  96 140 147 148 149 149 150 149 150 152 151 150 150 149 149 150 149 149 148 149 148 148 150
 136 137 137 137 136 137 137 137 138 138 138 138 138 138 137 139 139 138 134 130 104  32  25  20  18  22  21  17  16  16  14  14  14  12  12  12  13  13  14  14  14  16  18  18  20  21  20  22  24  25  26  25  24  25  26  25  24  28  27  28  29  31  36  36  37  39  39  38  45  58 102 142 147 149 149 149 149 149 149 149 149 150 149 148 150 150 149 148 148 148 149 149
 136 137 137 138 138 139 137 137 138 138 139 138 138 138 140 139 140 138 137 130  74  28  23  18  21  18  16  16  15  15  15  15  15  13  13  12  13  12  12  13  14  14  17  19  22  23  24  25  27  27  28  25  22  22  23  22  26  27  26  28  28  36  36  35  36  36  38  39  40  46  57 114 143 147 148 148 148 150 150 149 148 150 148 148 149 148 148 148 148 148 149 148
 136 137 137 138 136 137 138 139 139 139 138 138 141 141 139 141 141 139 138 118  40  26  20  17  21  18  17  16  16  16  15  16  15  15  14  14  14  14  14  13  14  13  15  18  22  21  23  24  26  27  26  26  26  24  24  24  26  27  32  28  31  32  36  34  33  33  37  36  36  41  41  56 126 144 148 149 148 149 150 149 149 149 148 148 148 148 149 148 148 148 148 147
 135 136 136 137 136 138 137 137 137 138 138 140 140 140 141 141 141 140 137  90  32  23  18  15  16  17  16  16  17  16  17  18  20  19  18  18  16  17  17  15  15  15  14  16  19  18  20  21  23  23  22  24  24  24  23  24  26  26  24  22  26  29  33  32  31  33  35  31  34  37  35  42  67 135 148 150 149 149 150 150 152 149 149 150 150 148 147 148 147 148 148 148
 136 135 137 137 136 138 138 136 137 138 139 140 140 140 141 141 141 139 133  62  28  19  16  16  15  16  17  19  22  21  23  24  27  26  27  26  26  26  26  22  19  18  16  17  18  18  19  19  21  21  19  20  19  20  19  21  22  20  18  19  21  27  33  30  32  34  35  34  33  35  34  37  43  90 144 147 149 149 149 149 151 148 149 150 149 149 147 149 149 148 149 149
 135 135 137 137 137 137 137 138 138 139 138 140 141 141 141 140 139 138 110  32  22  17  17  15  16  17  21  23  31  35  36  37  43  45  44  46  45  45  43  38  32  27  26  24  24  22  21  20  19  18  18  18  17  18  19  19  20  18  18  18  19  23  23  25  30  33  34  34  33  33  31  35  43  60 133 145 147 148 148 148 149 148 149 148 148 148 148 149 150 148 148 149
 135 137 138 136 137 138 137 138 138 139 139 140 141 141 141 139 140 139  64  28  18  18  16  14  17  21  26  39  46  51  58  60  64  66  65  65  63  62  58  57  53  48  45  41  38  33  30  30  29  28  27  26  24  24  23  22  22  21  19  18  20  22  25  27  30  31  31  30  30  29  30  35  40  56 104 141 146 148 148 149 148 149 148 148 149 148 148 148 148 148 149 149
 136 137 137 138 138 137 138 138 138 139 139 141 141 141 141 141 141 136  58  24  19  18  15  15  17  28  44  56  65  72  76  76  77  78  80  78  75  72  71  70  68  66  64  58  56  55  52  51  50  48  45  45  43  42  38  35  33  31  26  25  22  22  24  26  30  28  27  26  26  26  27  33  40  48  70 120 144 147 150 149 149 147 148 148 149 149 149 147 149 149 149 149
 138 138 138 138 138 138 138 139 141 139 140 140 141 141 141 142 141 136  44  25  21  17  16  16  28  47  62  72  79  84  87  85  86  89  90  88  86  84  82  80  79  78  74  73  71  69  67  68  68  65  63  65  67  67  68  63  57  52  47  41  34  29  27  28  26  26  27  27  27  26  26  29  36  40  48  71 118 144 148 147 148 147 147 148 148 148 149 148 148 149 148 149
 138 138 139 140 139 139 138 139 140 141 139 141 142 140 141 141 141 120  39  26  20  17  17  23  49  66  81  85  88  89  89  89  91  95  96  97  94  91  89  87  85  83  82  81  81  78  77  77  78  78  78  80  81  84  85  85  83  81  79  71  62  51  41  40  36  27  26  28  28  27  28  26  33  36  41  47  66 126 145 147 147 148 148 148 149 150 149 149 148 148 148 148
 137 138 138 138 140 139 140 141 140 140 141 140 141 141 142 142 138  61  34  26  19  16  20  46  72  82  87  90  90  93  94  95  95  95  97  99  98  96  94  95  91  89  87  86  85  84  84  85  85  83  86  87  88  89  92  93  94  95  95  97  96  88  77  66  56  40  27  25  26  26  26  27  30  32  37  43  54  73 135 145 148 150 149 148 149 149 149 148 149 149 148 148
 138 138 138 140 140 140 140 139 140 141 141 141 140 142 142 140 113  38  30  22  18  18  26  72  86  88  92  92  93  95  96  95  93  96  97  97  99  97  96  93  92  90  88  88  86  87  88  88  88  88  91  92  94  97  98  99 101 101 102 106 108 107 105 100  89  63  35  24  24  25  27  29  30  31  34  37  52  64  96 143 147 150 151 149 150 150 149 150 148 148 148 148
 138 138 139 140 141 140 141 142 142 141 141 142 142 142 143 135  68  34  24  20  18  22  60  85  88  92  92  94  94  96  93  91  92  93  95  95  97  96  94  92  91  90  87  87  84  87  88  90  89  89  91  95  96 102 103 102 104 107 110 112 116 117 116 114 112  96  59  28  21  22  24  23  26  28  34  37  47  66  87 134 147 150 150 149 149 149 149 150 150 149 148 148
 139 140 139 140 140 142 142 142 142 141 143 143 143 142 141 102  40  28  23  18  22  41  83  91  93  95  95  92  93  91  90  88  88  89  90  90  89  90  92  92  91  88  87  87  86  87  87  90  91  92  95  96  94 100 105 103 106 107 112 115 118 120 122 122 122 116  91  45  27  21  23  24  23  27  29  36  46  60  93 129 148 151 150 152 152 152 151 150 150 151 149 148
 140 139 138 140 140 143 143 143 143 142 143 143 143 137 119  49  34  26  22  21  32  67  87  95  98  95  91  91  91  90  87  88  87  86  87  87  86  88  89  88  88  88  87  89  88  89  89  89  90  88  91  90  92  97 101 106 105 106 110 115 117 120 123 125 128 128 116  81  41  25  24  30  28  26  31  35  45  73  91 136 148 151 150 151 150 152 152 151 150 151 151 150
 140 139 141 142 142 143 142 142 142 143 143 143 143 130  56  39  30  28  24  28  51  82  93  95  96  94  92  89  88  88  86  86  85  84  83  82  83  84  85  86  86  86  86  87  87  88  88  88  90  90  90  89  89  94  96 101 103 104 108 112 114 118 125 128 132 133 129 108  64  32  26  34  34  31  29  35  47  71  89 132 149 152 151 151 152 152 152 151 152 153 151 151
 142 141 142 142 142 143 143 144 144 142 143 142 137  88  43  34  28  25  26  37  70  90  94  94  96  92  90  88  89  88  86  84  83  82  82  82  82  82  82  85  86  84  84  84  87  88  88  88  91  92  92  90  92  92  93  96  99 102 106 110 113 116 121 125 130 134 132 122  90  46  27  32  36  35  33  32  47  69 102 123 150 152 152 152 153 153 154 152 152 153 152 150
 142 143 142 143 143 144 144 144 143 142 143 143 138  67  38  29  25  23  28  48  82  91  93  94  95  94  89  89  89  86  84  83  83  84  85  86  86  85  85  88  88  88  89  89  90  90  91  88  90  90  92  93  92  93  95  94 100 101 108 109 112 114 117 123 129 134 134 127 107  65  35  30  36  37  39  31  37  66 112 126 149 151 152 153 153 154 151 152 152 153 150 152
 141 143 144 143 143 143 144 144 145 143 143 144 132  55  36  28  25  25  34  60  84  89  90  92  93  92  89  88  88  88  87  88  87  87  87  87  87  89  91  93  92  92  90  91  93  93  94  91  94  93  95  94  97  98  96  97 102 106 109 109 111 114 118 120 126 132 134 130 118  78  44  34  36  37  41  39  37  62 103 137 149 151 151 151 152 153 153 154 152 152 151 152
 143 143 144 144 144 144 144 144 145 144 144 144 121  44  33  29  28  28  39  68  86  88  88  89  85  86  92  90  91  92  95  96  95  96  97  96  99 100 100 100  99  97  96  95  98  99 101 100 101 100 102 105 104 104 104 105 105 108 109 113 113 114 117 121 126 131 132 132 125  94  50  35  32  34  41  43  39  50 113 144 149 152 153 154 154 154 155 155 152 152 151 152
 144 144 145 144 144 143 144 145 146 146 145 144  91  41  31  28  28  32  46  72  84  87  89  89  83  87  91  95  95  97 100 102 102 105 105 105 107 107 107 107 105 103 104 105 106 107 109 111 112 113 116 117 118 117 115 113 112 112 114 114 115 114 118 122 125 129 131 130 125 107  63  40  31  32  37  41  41  45  92 146 149 153 153 155 154 155 154 154 153 153 152 152
 143 144 144 144 144 144 145 145 146 146 146 143  60  39  30  26  29  37  54  78  86  87  88  88  89  94  98 100 102 107 106 104 108 110 112 110 112 115 115 112 110 108 109 110 112 114 118 120 122 123 123 124 123 122 120 120 119 120 121 116 117 117 117 122 124 129 130 128 125 110  77  45  32  33  35  39  40  42  60 138 149 153 155 155 155 154 154 154 154 153 154 152
 144 144 144 144 143 145 144 145 146 147 145 125  49  35  27  25  29  40  62  81  86  87  88  89  89  96  99 101 105 108 108 109 110 111 113 113 117 118 118 117 115 111 110 112 115 116 117 120 113  95 118 126 127 126 126 126 126 125 125 122 121 123 122 121 125 127 128 131 127 116  90  54  38  31  31  37  37  44  53 122 148 151 153 154 155 155 155 154 154 154 153 153
 144 144 145 144 144 146 146 145 146 147 144 119  44  30  25  25  29  47  74  85  89  89  89  91  94 100 101 102 105 106 106 109 109 109 111 113 115 118 119 118 120 116 114 115 116 114 115 114 100  77 106 120 124 122 125 126 129 128 127 127 127 126 124 121 125 126 127 128 126 120 100  65  41  38  33  34  34  42  53 103 148 151 152 154 155 155 154 154 155 155 154 155
 145 145 144 144 146 146 145 147 147 147 143 110  42  28  23  24  33  61  81  86  89  90  92  95  98 100 104 106 105 102 103 102 104 105 106 107 110 113 114 116 116 114 112 112 113 110 108 106 101  98 106 112 114 117 120 122 126 127 128 128 133 132 130 127 128 127 126 128 126 122 107  75  46  37  35  30  33  40  52  90 146 152 153 154 155 155 154 155 155 155 154 154
 147 146 146 147 148 147 149 148 147 146 145 112  41  28  22  22  36  71  82  88  90  92  94  98 100 101 105 105 101  97  97  93  94  98  99 100 100 102 106 107 107 106 106 103 101 100 100  98  96  96  99 104 104 108 112 114 117 123 126 130 134 135 134 132 130 128 125 128 129 127 115  84  50  35  34  31  32  39  50  82 143 153 154 154 156 156 155 155 155 155 154 154
 147 146 148 147 147 148 148 148 148 147 142 114  39  27  20  21  48  79  84  88  93  96  99  92  87  87  93  92  88  86  82  79  82  84  86  88  88  88  91  95  96  96  94  93  90  89  89  88  86  87  92  94  95 100 103 103 105 109 116 123 127 129 129 129 133 133 131 130 129 128 119  93  56  36  33  33  34  39  48  83 143 154 155 157 156 155 154 155 156 155 155 155
 146 146 147 147 146 147 148 150 149 148 142 116  35  26  21  23  57  82  86  90  93  97  93  79  71  75  72  69  67  70  68  69  70  72  74  76  78  77  80  81  85  84  85  86  82  81  77  76  74  75  78  82  83  86  88  93  95  95  96 103 108 110 110 116 126 129 133 131 129 128 122 106  64  36  32  33  33  35  45  94 144 154 156 156 156 157 156 155 156 156 155 156
 145 147 147 148 149 149 149 149 148 147 144 125  34  27  23  24  63  82  84  78  83  87  76  66  63  60  56  53  50  50  46  47  50  56  61  64  70  70  70  72  74  75  77  78  76  71  67  66  67  66  67  69  68  70  68  70  69  68  71  78  88  96 105 107 107 114 125 129 129 128 123 111  75  41  30  31  34  36  44 102 149 155 157 156 156 157 155 156 156 155 154 155
 148 147 147 149 150 149 149 151 149 148 148 129  36  28  24  28  69  82  77  70  79  81  69  64  57  48  43  38  38  35  33  32  33  41  44  48  58  63  64  68  70  70  72  72  70  67  62  61  61  58  57  53  51  48  43  39  40  44  51  58  66  80  91  98 101 107 109 115 124 128 123 115  87  45  33  33  34  37  49 118 150 156 156 156 155 157 156 156 156 156 155 155
 147 146 148 149 148 151 150 151 150 148 150 130  46  27  24  30  75  82  71  70  76  70  56  48  39  33  29  28  28  27  26  26  27  29  32  37  47  54  59  65  66  68  72  72  67  63  59  57  52  49  42  37  33  31  29  28  29  34  36  39  49  65  73  81  89  96 105 108 113 122 120 117  95  52  32  30  35  37  58 135 153 156 156 155 155 156 156 156 157 156 155 156
 148 147 147 149 149 149 150 150 150 149 150 140  65  31  24  33  74  79  72  70  61  55  48  46  41  33  32  30  28  26  25  23  25  27  30  34  38  47  55  64  66  69  72  72  67  60  54  53  45  40  38  33  30  26  27  25  25  28  30  34  40  46  57  67  83  93 100 103 107 116 117 117 103  56  31  29  32  38  62 145 154 156 156 156 156 156 156 155 157 156 155 157
 147 149 148 149 148 150 149 150 149 151 149 145 111  41  26  31  77  82  79  68  57  52  50  48  43  36  35  35  32  31  30  31  31  30  31  34  36  42  51  60  67  72  76  75  69  62  55  48  40  36  33  30  28  28  27  26  29  32  33  36  38  43  51  58  67  85  96 105 104 107 115 117 110  62  30  28  32  38  66 146 155 156 156 156 156 156 155 156 156 156 156 156
 147 147 147 148 149 149 150 150 150 151 150 149 138  68  30  33  79  83  77  64  55  52  46  39  35  36  36  35  32  28  27  28  31  32  34  36  37  42  49  57  67  74  82  81  75  65  54  46  40  37  35  34  34  34  31  30  31  31  32  32  35  38  44  51  57  71  82  94 102 109 116 118 113  69  34  28  32  40  87 150 156 157 156 156 156 156 156 155 156 156 154 155
 146 146 147 148 149 148 148 149 151 149 150 150 146  98  29  36  82  81  73  66  56  46  37  40  48  45  35  32  28  27  27  27  26  30  33  36  40  42  48  58  70  79  86  91  83  72  59  49  43  38  37  36  34  31  27  27  26  26  28  28  33  43  53  42  48  57  69  82  98 110 117 120 116  68  40  29  34  40 116 152 155 156 156 155 156 155 155 155 156 155 155 155
 146 147 146 148 148 148 149 149 148 150 151 149 148 133  38  41  81  81  73  64  52  42  44  52  34  26  24  23  25  21  20  26  29  28  31  35  39  42  48  58  73  87  99 105  97  81  66  50  43  38  35  32  28  27  28  27  22  22  22  21  24  31  51  75  42  43  59  77  94 105 118 121 117  75  36  29  35  46 136 153 154 156 156 155 156 155 155 154 155 155 155 154
 147 147 147 147 148 146 149 149 148 150 150 150 147 141  53  41  86  82  76  63  49  44  50  32  35  44  28  25  25  20  21  26  33  29  32  35  38  43  48  59  77  96 109 114 107  92  70  52  41  34  30  28  28  29  33  34  22  31  23  20  27  53  32  43  66  44  52  73  92 103 110 120 118  78  40  31  35  82 146 154 155 156 156 156 155 155 155 154 153 154 155 156
 146 146 146 147 146 148 149 148 148 148 149 148 148 141  64  45  86  83  77  62  51  45  33  35  53  63  32  23  23  18  22  29  42  33  31  39  43  43  49  59  84 105 118 121 119 100  72  52  38  32  31  30  29  35  47  38  25  24  20  21  24  61  57  37  53  65  57  72  90 104 109 116 120  83  41  31  35 119 150 154 155 156 155 155 155 154 153 153 154 155 156 155
 144 146 145 146 146 147 147 147 148 149 148 149 147 144  74  49  89  84  75  63  52  44  43  51  60  68  38  27  24  25  25  37  46  36  31  40  50  51  50  60  94 112 126 128 127 106  77  54  43  37  33  28  31  41  51  46  30  25  22  24  27  60  69  57  45  63  70  77  90 105 113 119 123  89  43  35  47 112 143 152 154 154 155 154 155 154 154 153 155 156 155 155
 144 144 144 146 146 147 147 147 148 148 149 149 147 127  61  50  89  85  77  65  58  52  52  56  54  56  56  36  27  27  34  46  43  37  36  40  54  56  54  67 100 115 128 132 130 113  85  65  56  48  37  31  33  40  49  52  38  27  26  26  42  63  69  80  84  66  74  82  94 107 116 123 124  90  43  34  49  90 126 146 152 154 154 154 154 153 153 153 155 154 155 154
 144 143 144 145 145 147 147 148 148 148 148 148 148 118  58  52  92  86  78  68  64  65  63  59  54  54  54  51  49  48  53  51  47  49  53  59  60  59  60  74 106 118 125 128 129 113  91  78  69  58  50  46  44  47  50  52  53  46  41  48  57  62  71  87  95  91  90  94 101 110 120 124 126  90  42  39  68  90 108 132 152 155 155 154 154 154 153 153 154 154 155 154
 142 143 145 144 145 144 146 146 147 148 149 147 147 110  59  58  92  86  80  74  74  75  72  66  61  55  53  49  48  46  48  48  49  55  59  59  59  60  67  76 101 114 120 125 127 113  96  91  79  68  55  53  51  51  50  51  51  52  51  53  58  64  78  93 105 105 105 108 112 118 123 128 126  94  45  47  80  73  54 116 151 152 155 154 151 153 154 153 154 153 154 153
 141 141 144 144 144 143 145 145 147 148 147 146 147 120  48  60  90  87  83  81  81  80  79  75  66  60  57  54  56  58  58  61  63  62  61  59  58  66  72  76  90 105 115 120 124 112 103 100  92  80  67  58  57  56  59  56  55  53  53  54  62  71  84  98 110 112 113 114 118 122 125 130 128  98  47  62  88  70  52 119 150 152 154 155 153 152 152 151 152 153 154 154
 141 141 142 142 143 144 144 145 147 146 146 147 147 137  53  58  91  88  85  85  84  83  83  82  79  77  73  71  72  69  68  66  67  64  62  61  66  71  76  79  90 102 111 117 120 112 108 107 101  93  82  69  66  65  66  70  72  71  74  76  81  90  98 106 116 119 117 118 122 123 125 128 128 104  51  70 100  88  67 137 150 152 154 153 152 151 150 151 152 152 152 153
 141 142 141 142 143 143 142 143 146 146 146 148 147 143  68  64  90  88  84  86  86  86  87  86  86  82  81  81  77  73  70  67  67  66  67  69  74  74  80  80  92 103 110 117 122 116 111 112 107 101  95  88  77  73  73  76  81  84  88  90  95 102 107 113 120 122 121 120 125 125 126 127 127 108  56  80 124 111  96 145 150 152 152 152 151 151 151 152 153 152 152 152
 139 139 141 142 142 142 143 143 145 146 145 145 146 143  93  78  89  88  87  88  88  88  89  89  88  87  85  81  80  78  75  73  72  74  75  79  80  80  82  83  93 104 114 119 124 118 115 116 112 109 107 102  92  82  78  80  78  85  89  92  99 105 110 117 122 125 124 125 126 126 127 127 126 107  58  69  98 117 123 146 150 150 151 151 151 151 151 151 152 152 151 151
 140 139 140 140 140 142 142 144 144 145 146 147 145 142 122  85  91  90  89  88  89  87  89  88  84  84  81  79  80  78  75  77  78  80  79  80  80  81  81  84  92 106 119 121 124 118 113 116 112 110 113 106  94  93  87  83  77  79  85  90  96 103 110 117 124 126 126 127 126 127 128 127 125 105  57  47  59  89 135 148 150 150 151 151 151 150 152 150 151 150 148 150
 138 138 140 140 140 142 143 143 144 145 144 145 146 143 121  83  92  91  89  88  88  86  86  83  80  79  79  76  77  76  78  79  80  80  78  77  79  82  82  85  93 107 124 127 123 119 112 116 114 113 110 100  90  91  92  88  81  78  80  84  87  95 103 113 118 124 127 126 126 128 127 125 122 105  66  43  44  68 127 146 149 149 150 150 150 150 152 150 150 151 150 150
 139 140 139 140 139 142 143 142 144 145 144 145 144 143 118  81  90  91  88  86  84  83  80  78  76  77  73  73  70  71  76  78  78  76  75  76  76  81  83  87  94 109 123 123 121 118 114 113 115 112 106 100  89  85  87  89  87  82  79  81  84  88  92 101 109 117 120 119 124 127 126 121 121 114  96  48  44  64 126 145 148 150 149 149 150 149 151 149 151 148 149 148
 139 140 141 141 141 141 141 143 142 143 144 144 144 144 123  80  90  87  82  82  81  80  78  75  73  71  70  68  67  70  74  75  78  74  72  73  74  80  86  90 100 107 118 122 120 118 116 110 113 111 107  99  87  82  83  86  86  83  74  76  80  86  87  93 106 110 115 113 117 123 125 120 119 115 104  54  52  78 131 147 149 150 150 149 150 149 148 149 150 150 150 149
 139 139 139 139 140 140 141 143 143 143 145 144 144 143 127  86  88  83  80  80  79  78  77  73  73  69  68  69  71  71  73  73  73  70  68  69  74  80  91  97 102 108 118 122 120 119 117 111 107 109 107 100  89  80  79  81  82  82  80  79  81  83  85  90  97 104 106 108 111 116 119 118 116 112  96  55  66 109 142 148 148 149 149 148 149 149 149 148 150 150 150 149
 138 138 139 139 139 140 140 141 141 143 144 144 144 143 133  91  86  81  78  77  74  75  76  72  72  70  71  72  72  73  73  71  69  69  69  69  71  83  94  99 103 106 112 117 116 117 117 114 107 107 102  97  86  78  74  74  78  81  82  83  81  83  85  87  92  98  98 103 104 109 114 115 112 103  84  93 108 131 144 147 148 148 149 148 148 148 149 150 150 150 149 149
 137 137 139 139 138 139 139 139 141 142 142 143 144 145 139 103  87  79  77  76  73  73  71  70  69  70  71  74  74  73  74  70  68  66  67  68  70  87  94  98 101 101 106 107 108 112 120 118 109 104  96  90  82  78  74  74  76  79  84  84  84  84  85  87  91  95  95  98 100 104 109 113 108  86  76 113 122 141 145 148 147 148 147 148 149 149 149 150 149 150 150 148
 137 139 138 139 139 138 140 142 140 142 142 144 144 145 143 121  86  77  74  74  72  71  70  72  72  71  70  70  70  73  73  69  68  66  65  67  78  87  89  90  91  94  93  92  92 101 116 118 113 106  92  80  77  73  72  74  76  76  80  82  82  84  86  88  88  91  95  95  98 103 106 111 102  76  91 124 132 143 145 147 147 148 148 147 148 149 148 149 149 148 149 148
 138 138 138 138 139 139 140 140 140 144 143 144 145 145 143 126  86  77  73  71  70  66  68  70  70  69  71  64  65  69  71  69  67  66  64  68  82  82  82  80  79  79  77  76  75  82  97 105 107 109  87  74  73  72  72  72  73  75  78  80  79  82  85  86  84  86  87  90  95  97 104 107 100  92  88 119 138 144 146 147 145 145 147 145 147 148 148 148 148 147 147 149
 138 139 139 140 140 140 140 140 142 142 143 143 145 145 146 141  94  78  71  70  67  66  68  69  69  67  67  69  71  71  69  68  66  64  63  75  78  75  70  67  66  66  63  62  58  62  68  80  91 103  92  73  69  71  72  73  74  75  75  76  77  79  83  82  83  81  84  87  91  96 101 103  83  81  96 130 141 144 145 145 146 145 146 147 145 146 146 148 148 147 148 148
 138 139 138 139 139 139 140 140 142 143 143 144 145 146 146 146 117  81  71  68  67  67  67  68  69  70  71  71  72  72  73  71  68  64  64  78  66  59  56  54  53  53  49  49  47  48  52  59  71  93 101  71  66  69  71  71  74  74  76  75  76  77  77  80  78  78  80  82  89  94 101  99  75  80  98 137 142 142 144 144 145 145 146 145 145 145 147 145 148 148 148 149
 138 138 139 139 140 140 139 140 140 141 144 145 145 147 147 147 141  90  72  69  67  66  68  69  69  69  69  70  72  74  73  70  67  66  70  72  55  47  44  44  43  42  40  41  41  43  48  48  55  80  98  70  64  68  70  71  74  76  75  77  76  78  75  76  78  76  76  78  86  96 101  98  87  97 132 141 142 142 144 144 144 144 145 145 145 144 145 145 147 147 147 148
 139 139 139 140 140 141 140 140 142 141 143 145 145 145 147 147 144 106  72  69  67  64  67  67  66  69  69  69  72  72  71  72  69  68  68  58  44  30  23  32  39  37  36  37  39  35  26  26  38  59  84  72  66  66  70  72  76  76  76  79  78  77  76  75  77  78  75  76  84  96 103 103 114 134 139 142 143 142 142 144 144 143 144 144 144 144 145 144 145 144 146 146
 139 139 139 139 141 141 141 142 142 143 144 145 145 146 147 146 146 122  75  71  67  66  66  66  66  67  70  71  73  76  74  73  71  72  69  53  33  26  23  29  35  36  36  37  36  30  24  22  27  46  66  70  73  69  70  72  76  79  75  78  80  78  74  77  78  81  80  79  89  97 107 126 136 139 142 142 142 143 142 143 143 143 143 144 145 144 144 145 145 144 145 145
 139 138 139 140 140 140 141 141 142 143 145 145 144 147 146 147 145 130  80  72  69  68  68  66  67  69  72  74  77  77  73  73  75  76  72  59  39  30  29  34  38  37  36  36  36  37  33  28  31  46  64  74  77  75  71  74  77  80  81  81  84  77  75  77  80  82  84  86  92 100 110 131 140 142 139 141 142 142 142 142 144 143 144 144 144 143 143 144 144 144 144 144
 138 138 138 140 140 140 140 141 142 143 144 144 146 147 148 147 147 140  86  74  70  67  67  69  70  71  74  78  77  78  77  78  78  79  76  66  50  36  31  39  42  39  37  37  38  47  49  39  48  63  73  81  84  82  78  78  83  82  86  88  88  84  77  77  82  86  86  89  94 102 112 132 140 142 140 140 140 142 141 142 142 141 142 144 143 142 143 144 142 143 143 143
 139 139 138 139 139 139 142 141 142 143 143 145 147 146 147 147 146 141  92  74  70  67  68  70  70  73  76  77  79  78  77  81  82  80  74  67  60  50  44  46  46  42  39  37  40  52  64  64  69  74  81  87  88  88  85  85  86  88  90  93  94  93  88  84  85  89  90  90  96 104 114 133 138 140 141 141 140 141 140 142 142 142 141 142 142 142 142 142 142 143 142 142
 139 139 138 139 141 141 140 140 142 144 146 146 146 146 146 147 147 143  97  75  71  69  70  70  73  76  78  79  80  82  83  82  82  81  73  68  64  60  52  52  50  44  39  37  41  51  63  73  74  81  88  91  93  92  91  90  92  93  94  98  99  95  94  92  91  90  92  96  99 106 116 132 137 138 139 139 139 139 138 139 140 140 140 140 140 141 141 141 142 142 142 142
 139 139 139 140 140 140 141 141 141 144 144 146 145 146 145 148 147 143 101  75  71  71  71  71  74  78  80  80  81  83  83  83  82  83  74  66  60  63  53  50  48  40  35  38  41  50  60  72  76  82  90  94  95  99  95  93  98  98  99  99 104  99  97  96  93  91  92  94 100 107 116 131 137 138 139 138 138 138 138 138 138 138 138 138 139 138 140 140 140 141 143 141
 139 138 139 138 140 141 140 141 142 142 144 147 146 146 146 147 147 141 104  76  72  71  71  73  76  78  78  80  82  83  83  82  81  78  74  68  61  56  54  52  47  40  35  36  44  53  65  72  77  80  80  88  93  95  98  96  99 104 105 105 105 103  99  97  97  96  94  97 100 108 118 133 136 138 138 138 137 138 137 138 137 137 138 139 138 139 141 141 140 141 142 140
 139 139 139 140 139 139 140 141 141 144 143 144 145 146 146 146 146 144 106  78  74  71  72  74  75  77  78  82  84  83  81  77  71  72  61  58  58  52  54  58  52  45  37  40  48  60  70  75  75  76  75  85  81  83  91  98 102 105 109 108 108 106 101  98  97  94  97  98 103 110 120 134 137 137 136 136 137 138 137 137 137 136 137 139 138 138 139 138 138 140 140 138
 139 138 139 138 139 140 141 142 143 142 142 145 146 146 146 146 147 143 114  79  73  72  74  72  76  77  80  80  82  81  78  70  66  61  56  58  60  58  63  65  64  54  44  47  56  74  80  83  83  79  79  84  82  79  80  90 102 105 106 108 108 108 102  98  99  95  96  98 102 109 122 134 135 136 136 135 136 136 136 135 135 137 137 138 136 136 138 137 136 138 139 138
 138 138 139 139 139 141 140 140 143 143 142 144 146 145 146 146 145 141 118  80  71  72  74  72  75  78  79  80  77  70  68  62  58  57  61  64  66  70  71  67  66  68  62  61  65  70  76  83  90  87  86  85  81  74  74  81  92 104 106 109 110 109 105 101  99  97  95  98 103 108 121 132 135 134 133 134 135 134 134 135 135 136 136 135 136 137 136 135 136 136 137 138
 138 137 140 139 139 140 141 142 141 142 144 145 145 146 144 147 146 145 127  80  72  73  74  74  76  78  78  79  73  60  60  56  54  57  66  69  68  64  57  50  50  57  62  64  58  50  48  57  72  81  86  88  84  74  70  72  77  96 106 109 107 106 105 103 100  97  97  99 101 110 121 131 135 134 132 134 135 134 135 135 134 135 134 135 135 135 134 136 135 135 136 136
 137 138 136 139 139 139 140 140 141 141 142 144 144 144 145 145 144 144 133  81  72  70  71  74  76  76  77  78  66  60  60  54  53  58  64  59  51  44  42  39  36  36  41  42  37  32  32  37  43  51  62  73  79  71  60  64  71  90 102 108 109 108 108 105 102  97  97 100 102 109 123 131 133 133 134 134 134 132 132 133 133 134 135 135 134 134 134 135 136 134 134 136
 136 138 138 140 139 140 139 140 142 141 142 144 144 143 145 144 144 143 139  89  73  69  70  74  76  78  78  75  67  60  57  48  44  45  43  38  32  33  37  34  33  29  28  28  27  28  30  33  34  34  32  43  52  52  47  53  63  84  97 104 108 109 109 103  99  94  96  97 100 110 126 130 131 132 132 132 132 130 131 132 131 132 132 132 133 133 134 134 134 135 135 135
 137 137 138 140 138 139 139 140 140 141 142 142 142 143 143 143 142 141 139 102  72  67  66  73  75  78  76  74  68  61  51  38  32  30  28  27  27  25  26  26  25  23  22  17  18  21  24  26  31  29  27  27  30  31  33  40  52  73  91  99 104 108 109 104 100  94  94  97 100 110 126 129 130 130 131 133 132 130 131 132 132 130 131 131 131 132 132 132 133 132 133 133
 135 136 138 137 139 139 138 139 140 141 142 141 141 141 141 141 139 140 138 114  74  70  70  72  76  77  76  71  65  59  52  46  40  36  36  40  47  47  43  39  38  32  28  27  32  38  48  54  67  71  68  59  45  43  43  45  49  60  81  92 101 105 109 107 101  94  94  97 100 111 127 129 131 130 129 130 131 130 129 129 130 129 130 130 130 130 130 131 132 132 132 133
 136 136 138 136 138 138 140 140 140 139 140 141 140 141 140 141 140 139 137 129  80  73  71  72  76  77  76  69  65  57  55  57  57  53  52  55  58  61  61  57  58  55  56  47  49  55  62  69  74  75  76  75  74  79  79  66  54  59  74  87  95 102 107 104 101  95  94  97 100 114 125 128 129 128 128 128 129 129 129 128 128 129 128 129 130 131 129 129 130 130 131 130
 134 136 136 134 136 138 139 139 141 139 140 140 139 139 139 139 139 139 136 133  98  74  72  71  75  76  74  69  63  59  59  63  64  59  56  54  54  56  58  61  62  64  63  55  59  61  64  65  68  67  75  81  84  85  86  78  67  63  71  82  91  96 100 102  99  95  96  97 100 119 122 125 127 129 127 128 128 128 128 127 127 128 126 125 128 127 128 128 128 126 126 129
 133 134 136 136 136 136 137 139 138 138 138 139 139 139 139 138 137 137 136 135 115  75  72  69  72  72  71  65  60  60  60  62  61  61  56  53  52  49  48  50  52  53  54  53  53  53  54  52  54  59  70  77  77  77  79  77  76  69  71  79  88  94  97  97  97  95  94  94 103 121 122 124 126 127 126 127 126 126 126 127 127 126 123 124 125 126 128 125 126 125 124 127
 132 132 135 134 134 135 138 137 136 137 138 137 137 136 136 136 138 134 135 134 128  91  72  72  72  69  68  64  60  59  59  60  60  57  53  50  50  48  42  41  43  43  43  43  43  41  42  43  47  54  61  64  68  71  72  72  74  69  71  79  85  90  94  94  94  94  93  93 112 121 121 122 125 124 126 124 124 124 123 127 127 125 124 124 125 125 125 125 125 126 125 125
 132 132 132 134 135 137 135 136 136 136 135 137 136 135 134 135 135 134 132 133 131 115  73  70  72  67  64  64  61  58  56  54  55  54  49  47  44  42  41  38  38  36  34  35  35  33  32  35  37  40  48  53  59  63  65  68  70  71  70  74  79  88  93  93  91  92  91  95 117 121 122 121 121 122 122 122 122 124 122 124 123 123 122 123 123 123 124 124 122 123 123 124
 130 130 132 132 134 132 134 134 136 134 134 135 135 134 132 132 132 133 132 130 130 128  91  70  69  67  64  61  59  57  54  54  53  54  51  46  41  36  34  31  30  28  25  23  24  24  27  28  31  36  46  53  57  59  60  63  65  68  68  72  74  81  88  89  91  91  88  78  75  84  94 107 125 122 120 122 122 120 120 121 121 121 121 122 121 120 120 121 121 121 121 122
 130 130 131 131 131 131 133 133 134 134 134 132 133 132 133 131 130 131 131 129 129 128 115  73  69  66  63  60  59  56  53  52  51  51  49  43  41  38  35  33  31  29  26  24  24  27  30  34  36  40  46  54  56  53  54  58  58  60  66  72  75  79  83  88  87  88  90  64  46  48  50  50  83 125 124 121 121 121 120 120 120 119 119 120 121 120 120 119 120 120 121 122
 126 130 129 130 130 132 131 131 133 132 133 132 132 130 129 129 128 129 128 127 127 126 124  96  65  64  60  60  60  55  54  53  51  50  48  46  44  42  40  38  38  36  32  31  32  35  36  41  46  50  51  52  53  53  52  53  54  57  64  72  76  78  81  84  84  85  94  51  34  34  36  36  48  81 126 124 117 116 117 117 117 117 117 117 118 118 119 119 120 119 120 121
 128 128 128 129 129 130 130 130 131 131 130 130 130 128 128 128 125 127 127 127 124 124 113  91  67  62  61  62  60  57  55  53  52  52  51  49  49  47  46  45  45  43  40  41  40  45  47  48  50  54  54  57  55  55  54  54  56  59  67  71  76  78  79  81  78  85  95  40  27  29  31  32  31  56  93 127  75  58  54  70  88 109 114 114 114 115 116 116 117 119 118 119
 126 126 128 128 127 126 127 129 130 130 129 128 128 128 127 126 125 125 124 122 114  97  82  65  66  61  60  61  60  61  60  57  55  55  53  54  54  52  52  52  53  49  47  47  45  44  51  50  53  55  57  59  66  66  62  57  62  66  69  74  76  78  77  74  76  90  98  44  24  24  26  28  26  44  75 118 126  47  32  36  43  59  86 108 113 115 117 118 118 119 119 119
 125 126 126 128 126 126 126 129 128 127 127 127 127 127 127 125 124 122 116 100  87  73  60  53  67  61  58  58  62  64  62  62  62  61  61  59  61  60  59  57  55  50  47  48  47  46  50  51  52  56  57  61  69  73  70  67  70  73  74  74  76  76  74  75  83  92  98  39  25  21  20  23  23  29  56  95 127 126  36  27  25  30  49  79 104 111 116 116 119 116 119 119
 125 126 125 126 124 126 126 124 125 126 125 125 125 125 125 123 118 108  94  85  80  68  54  44  65  62  55  55  60  64  65  65  66  64  65  63  64  64  62  58  57  51  44  47  47  47  48  53  54  56  60  65  71  75  77  75  79  78  76  77  78  74  72  81  89  93  97  40  23  24  17  18  18  21  42  78 108 133 122  35  20  22  26  49  79  98 111 114 115 114 115 115
 124 125 125 123 124 124 125 124 124 124 123 123 122 122 120 114 102  94  86  84  74  58  39  27  63  59  56  52  53  62  63  65  64  65  64  66  64  62  62  61  61  56  50  50  49  50  51  54  59  58  64  69  74  77  81  81  82  82  79  78  74  72  77  81  88  93  96  40  20  20  19  13  13  14  28  60  96 123 139 112  62  28  20  28  59  79  90 106 110 111 113 112
 123 124 124 121 124 124 124 124 123 121 120 120 120 120 111 104  95  91  86  82  68  41  24  19  62  61  55  52  51  58  61  66  66  67  66  65  63  62  64  63  62  59  55  54  51  52  55  61  63  64  66  72  76  79  82  83  82  80  77  75  68  70  76  81  87  92  94  39  19  20  19  14  10  11  18  47  83 115 133 119  85  83  39  19  46  71  79  86 104 111 111 113
 121 121 121 122 122 122 123 122 118 120 120 120 119 112 104 100  95  89  84  70  43  24  16  19  58  60  59  57  50  51  58  62  65  65  63  61  62  61  63  63  62  60  55  55  53  55  57  61  63  65  66  73  76  76  78  79  77  67  69  70  68  67  75  80  85  92  94  36  16  18  20  17  11   9  12  35  68 105 127 125  91  87  85  37  40  62  75  80  83 106 110 112
 120 119 121 121 120 120 120 119 117 118 118 116 110 105 100  92  92  87  74  44  22  13  13  14  53  60  58  55  52  48  50  55  59  60  57  60  60  60  60  58  55  52  52  52  52  54  55  57  58  62  65  67  73  76  77  77  72  66  62  65  66  70  75  79  85  91  92  34  15  16  19  17  13  10  10  24  58  96 123 129 105  94  90  62  38  58  71  76  74  81  95 110
 119 120 120 119 119 118 119 116 115 116 114 108 103  98  93  91  84  72  48  24  12  11  12  12  48  61  56  56  54  52  47  49  52  53  53  54  55  54  52  53  50  47  50  49  49  50  51  54  56  60  58  59  65  72  73  72  65  57  59  66  69  70  73  79  86  91  93  31  14  14  16  19  15  11   9  17  46  79 112 131 114  92  92  79  42  58  71  76  75  74  74  89
 118 118 119 118 116 113 101  92 104 112 106 103 100  96  92  91  77  56  28  13   9  11  11  11  41  58  57  57  54  53  49  43  45  47  49  49  49  50  48  49  49  46  42  45  47  46  47  51  52  52  52  57  59  63  65  59  52  52  59  64  67  68  71  78  87  92  91  31  13  12  17  19  17  14   9  11  36  67  99 126 118  95  92  81  46  57  68  73  72  72  72  70
 118 116 113  98  72  51  44  58 105 104 102 100  96  94  90  85  66  40  14   9   9  12   9   9  37  57  58  54  54  52  49  43  42  42  41  41  42  43  39  42  42  42  39  40  45  42  42  45  46  45  47  50  51  54  53  51  49  58  62  62  62  67  72  78  86  93  89  30  13  11  14  19  19  16  12  10  27  60  94 118 123  97  87  76  45  55  66  70  68  70  72  66
 113  88  64  51  36  41  78 108 103 103  99  99  96  92  86  74  54  23  10   8  11  11   9   9  32  56  54  55  54  52  50  47  44  43  37  37  35  34  33  37  36  34  34  37  38  37  37  38  38  39  40  42  42  45  49  55  62  68  63  62  63  69  74  79  86  89  85  36  12  11  11  15  19  16  15   9  21  54  85 109 124 100  85  71  44  51  64  69  69  69  67  62
  72  54  42  27  55 107 109 105 102  96  95  98  96  91  82  63  38  12   9   9  12  10   8   8  24  54  55  54  52  50  52  49  49  48  44  38  30  31  31  32  31  30  30  31  30  30  31  30  32  33  32  34  37  45  58  69  68  66  63  62  66  70  73  78  82  85  81  34  12  11  11  15  20  18  17  10  15  47  78 112 122 101  82  65  40  48  61  66  66  67  68  59
  50  35  23  43  98 103 106 101 100  94  96  95  91  91  75  51  21   9   8   9  11   9   8   8  22  51  54  53  52  50  50  50  51  48  49  46  43  37  33  29  28  27  28  26  26  27  27  27  28  29  32  39  44  54  63  68  66  64  61  64  65  68  73  78  80  84  80  30  12  11  11  12  18  20  18  12  13  44  69 106 121 105  76  59  33  47  60  63  64  66  67  56
  34  20  28  86  98 102 103 103  97  94  96  94  90  83  61  36  13   8   8  11  12  10   8   6  19  49  54  53  52  53  51  50  50  51  51  48  45  42  38  33  32  30  28  26  26  25  26  30  30  34  38  44  52  58  64  66  64  62  60  61  61  63  72  77  80  83  74  30  12  11  11  12  16  18  19  12  10  40  69  97 114  98  72  51  29  44  58  64  64  63  65  53
  25  23  65  93 100 100 100  98  96  94  92  94  90  77  50  22  10   8   9  12  11  10   8   7  15  48  53  54  54  52  53  50  49  51  50  49  47  43  41  37  34  33  31  29  27  28  28  31  33  35  38  46  52  58  62  60  61  59  56  57  61  67  70  75  78  78  66  27  12  11  11  11  15  17  20  12   9  34  69  96 104  93  60  40  32  44  57  64  61  60  63  49
  24  54  84  96  95  99  97  97  95  92  92  93  88  69  39  15   9   6  11  12  11   8   8   7  15  47  51  55  54  51  52  50  50  51  51  50  48  43  42  38  37  34  33  32  31  30  30  32  36  37  38  42  48  56  59  59  59  56  55  58  64  66  71  74  75  77  58  23  12  10  10  11  14  18  18  10   8  29  65  95 102  84  51  32  34  45  57  62  60  59  58  50
  44  72  89  93  96  97 102  97  92  92  94  91  84  60  27  13   8   8  11  12   9   9   8   7  15  45  51  51  54  52  52  51  51  51  50  50  47  45  43  41  38  36  34  33  33  31  31  33  35  36  40  46  50  56  59  57  57  57  58  59  65  69  71  73  75  72  49  23  12  10  10  11  14  18  17   9   8  25  62  90 101  72  45  31  36  45  55  61  59  59  55  47
