P2
# Generated by OpenCV 3.4.0
92 112
255
 131 130 132 132 133 132 133 133 134 133 134 134 134 134 134 134 136 136 135 136 135 136 134 131 107 115 112 100  87  80  80  75  90  96  88  90  97  98 100  90  94  98 108 110 104 111 124 138 141 141 140 142 143 142 143 143 143 143 143 143 143 143 144 144 144 144 145 144 145 144 143 142 144 144 145 145 144 144 144 144 144 144 144 144 144 144 145 144 143 144 142 142
 132 130 133 133 133 133 134 134 135 133 134 135 135 134 134 134 136 135 137 137 137 133 131 112 109  98  88  70  62  72  70  68  58  57  68  71  67  68  70  77  79  88  91  93  94  95  97 120 137 141 141 142 142 142 142 142 144 144 143 144 144 144 145 145 145 144 145 144 145 145 144 144 145 145 144 144 145 144 144 143 145 144 146 145 145 144 145 145 145 144 143 143
 131 132 132 133 132 132 132 134 134 133 134 136 135 135 134 135 135 136 136 137 133 130 114  92  89  68  65  52  67  55  49  43  41  43  50  58  55  50  49  50  49  58  66  74  85  80  91 102 131 138 140 143 142 142 143 144 142 143 143 144 144 144 145 145 146 146 145 145 146 146 144 146 145 146 144 144 146 145 144 144 144 144 147 144 145 145 144 144 146 145 144 145
 133 132 132 132 133 133 135 134 135 134 135 136 136 137 135 136 135 136 136 137 129 117  89  95  64  52  42  50  61  48  38  38  36  53  63  53  42  40  39  41  38  41  46  48  48  47  44  54 104 131 138 140 138 136 136 140 142 143 144 145 147 146 145 146 146 145 145 146 146 147 146 147 146 145 145 147 145 144 145 145 146 146 148 146 145 146 147 144 146 145 145 145
 132 133 133 133 133 133 134 135 136 134 136 137 137 136 136 135 137 137 137 133 121  98 104  65  49  38  44  52  44  34  34  35  41  44  40  38  34  35  37  37  38  41  47  48  41  35  36  43  50  77  84  86  78  72  69  88 123 141 144 146 145 144 146 146 146 146 146 146 146 146 146 145 146 145 146 147 147 148 147 145 146 146 147 146 146 146 147 146 146 145 146 144
 134 134 135 134 133 134 134 136 135 135 136 137 138 138 137 137 136 136 132 127 101  93  82  46  41  35  42  45  32  32  31  34  35  32  30  32  31  32  35  35  35  37  41  40  35  34  36  37  45  51  56  52  45  49  49  55  80 127 135 143 144 145 146 147 146 146 145 147 146 147 148 146 146 145 147 147 146 147 148 147 146 146 146 146 146 147 147 146 146 146 146 146
 134 134 134 134 134 136 135 135 135 135 136 137 138 136 138 134 137 135 132 113 101 100  63  44  37  33  37  34  30  29  30  31  30  28  27  29  31  35  35  34  33  33  32  31  30  37  38  42  42  46  46  40  38  44  42  46  55  68  91 120 138 145 145 147 147 148 145 147 147 147 147 147 147 147 147 148 147 148 148 147 147 147 148 147 147 148 147 146 146 146 146 147
 134 135 135 135 135 136 137 136 137 135 136 137 138 136 138 136 136 133 130 102  93  95  39  54  29  30  30  26  26  25  25  26  25  24  24  22  23  25  26  29  28  29  30  29  31  32  35  38  35  36  38  35  35  38  39  41  39  44  47  54  86 128 142 144 146 147 148 147 147 147 147 148 149 148 148 149 148 147 147 148 148 148 148 147 148 148 147 147 147 147 147 147
 135 135 136 134 137 135 137 137 137 136 137 139 137 137 138 136 135 129 128 106  94  58  39  31  26  30  26  24  23  19  20  20  20  22  20  20  20  20  22  22  23  22  24  24  28  28  28  29  29  30  29  31  37  38  41  35  35  38  38  44  48  71 107 141 145 147 147 147 148 147 147 148 148 147 149 149 148 148 148 148 148 148 149 148 148 149 148 148 147 148 148 148
 135 136 136 137 139 137 137 137 139 136 138 137 138 137 139 138 132 129 125 100  77  32  31  24  26  29  24  20  21  17  15  16  16  16  16  16  18  18  16  16  16  18  21  23  24  22  24  26  26  27  29  33  32  35  34  34  32  35  38  40  41  46  54  79 119 140 145 148 148 149 148 148 149 148 149 149 149 149 149 148 148 148 148 148 149 151 149 149 148 147 147 149
 138 136 136 138 138 137 139 137 138 137 139 139 141 137 140 137 133 124 117  97  44  32  24  23  28  31  18  17  18  16  15  14  15  15  14  15  15  15  15  16  15  18  19  17  18  19  22  24  24  25  29  29  27  29  34  34  34  34  36  37  37  37  44  49  53  91 137 145 148 149 148 148 149 148 149 149 149 148 150 150 149 149 148 150 150 148 150 150 149 149 148 148
 137 138 137 138 137 138 137 136 138 137 140 140 139 139 140 137 132 119 106  83  33  26  21  23  27  24  18  16  16  14  13  13  14  14  14  15  15  14  15  16  17  16  15  16  17  19  20  22  25  25  25  26  27  29  32  34  31  31  33  35  33  36  39  43  46  53  88 137 147 149 149 151 149 149 150 150 152 152 150 151 149 150 149 149 151 149 149 148 148 148 148 148
 137 138 138 137 138 138 137 137 139 140 139 139 139 139 138 134 130 107  97  49  27  23  20  22  23  18  17  15  15  15  13  12  13  14  12  14  14  14  13  14  16  17  17  19  20  21  23  24  24  26  25  25  25  28  30  29  27  31  31  32  30  35  37  43  47  46  55  88 140 148 149 150 149 149 151 151 152 150 151 152 151 151 150 150 150 151 152 150 151 150 149 150
 138 137 138 138 138 138 140 140 139 140 140 142 140 138 136 137 135 121  90  33  25  21  20  17  17  15  15  14  13  13  13  12  13  12  11  12  12  12  13  14  16  17  18  19  20  21  24  24  26  26  26  24  23  24  25  25  29  29  30  31  34  36  37  40  40  38  44  50  92 140 147 150 149 151 152 152 151 153 152 151 152 152 152 149 152 152 152 151 152 149 151 150
 139 139 140 140 139 142 140 141 142 141 141 141 140 138 141 142 139 124  54  28  24  20  17  15  16  15  14  14  14  14  15  15  14  13  12  12  12  11  12  12  14  15  16  19  23  27  26  27  28  29  28  27  24  24  25  26  27  28  34  34  35  36  36  37  37  37  38  45  50 112 147 151 151 151 153 152 152 153 152 153 152 152 151 151 152 152 152 152 152 149 151 150
 139 141 141 140 140 140 142 142 140 141 141 140 142 141 143 141 140 105  36  25  20  18  17  16  16  15  15  15  15  14  15  15  15  15  14  13  14  14  14  14  15  14  15  16  20  23  23  26  26  26  26  26  25  24  24  26  30  31  30  29  34  36  34  36  35  35  35  40  43  61 136 149 150 153 153 151 152 152 152 151 153 152 152 151 154 153 151 151 152 151 151 150
 140 139 140 141 141 141 141 141 142 141 141 143 143 142 143 143 134  67  29  23  17  17  16  15  16  15  16  18  17  17  18  20  19  18  18  18  19  18  18  16  16  16  16  17  19  19  20  22  22  24  22  23  24  24  22  24  26  24  22  26  32  35  36  36  38  35  36  37  40  49 113 148 152 152 153 152 151 152 152 152 154 151 152 153 154 154 153 153 152 151 152 150
 141 140 141 141 141 141 141 142 141 141 143 143 143 142 143 142 124  40  28  20  16  17  15  15  17  18  20  22  21  21  26  27  26  28  28  28  30  31  27  25  22  21  19  18  19  19  19  19  21  22  21  23  22  20  21  22  23  21  19  23  28  31  32  36  36  34  34  37  37  46  79 140 149 150 151 152 151 152 153 153 153 153 154 153 153 153 152 153 152 152 153 154
 139 140 141 142 142 142 142 143 142 142 142 143 143 142 142 139  88  34  24  17  17  16  15  17  20  23  28  32  34  36  38  40  44  46  49  47  49  48  43  42  37  33  30  29  26  26  25  25  25  24  24  24  23  22  23  24  24  23  20  21  23  30  34  34  32  31  31  33  33  41  53  92 138 147 150 152 152 151 152 153 152 153 154 154 153 153 153 153 152 154 153 154
 141 141 141 143 143 143 143 143 142 142 143 143 144 143 141 118  44  27  20  17  17  15  16  19  25  35  43  46  50  56  60  64  68  68  67  67  66  63  59  58  55  54  52  48  45  43  42  41  42  41  40  39  38  40  38  35  33  31  27  24  24  26  29  31  28  30  30  28  30  37  46  58  92 140 148 152 153 152 154 153 154 152 153 154 153 153 154 154 152 153 153 153
 142 141 142 142 143 143 144 143 144 144 143 144 144 144 141  92  35  23  17  16  16  16  17  24  38  48  56  63  69  74  77  78  79  80  81  80  76  77  76  73  73  74  70  66  65  64  62  65  66  63  62  62  65  67  66  64  59  55  48  42  35  33  31  27  28  32  34  32  32  33  38  45  56  92 141 149 152 153 154 152 154 154 152 152 153 154 155 154 152 153 153 153
 142 142 143 143 143 143 144 144 144 144 144 144 143 143 136  69  30  20  18  17  17  16  22  39  52  62  69  79  84  86  85  87  89  90  90  88  86  86  86  83  82  82  81  80  79  77  76  79  79  77  79  80  84  86  87  87  88  85  82  77  67  56  48  36  28  27  29  30  33  33  34  38  48  59 102 144 150 151 153 154 153 152 152 152 153 153 153 153 153 154 155 153
 142 141 142 142 142 143 143 145 143 144 143 144 144 141 111  44  26  20  19  17  16  18  33  53  64  75  84  89  89  90  92  93  95  99  99  98  96  94  92  91  89  87  87  87  87  85  84  84  84  83  87  88  90  92  94  97  98  99 101 102  98  91  82  66  35  26  25  27  30  33  34  35  41  61  65 132 147 151 152 154 153 154 152 153 153 153 154 155 153 153 153 153
 143 142 142 143 143 143 143 144 144 144 143 143 143 137  56  33  26  22  19  16  16  27  51  69  81  88  92  90  93  94  96  98 100 101 102 103 102 101  98  96  95  93  90  89  89  87  88  87  90  90  92  95  96  97 102 103 105 108 110 112 113 114 111 102  58  31  24  24  26  30  32  33  38  49  68 107 148 153 154 153 153 155 154 154 154 153 154 153 154 154 153 150
 142 142 143 143 142 144 144 143 143 144 144 143 141 100  38  30  27  22  18  16  19  41  70  84  88  90  91  92  94  96  98  98  98 100 102 103 104 102  99  97  97  95  90  89  88  87  88  90  91  91  93  98 102 105 108 109 111 113 117 120 122 122 123 120 109  50  30  22  24  26  26  31  34  49  62  99 144 151 153 153 155 154 154 154 153 154 154 153 152 153 153 152
 143 143 144 144 144 144 143 143 144 143 144 144 136  59  36  29  24  18  17  18  30  63  83  88  89  90  92  95  95  96  96  96  95  96 100 100 102 100  98  97  96  95  91  88  87  88  89  91  93  94  94 100 102 103 106 109 113 115 118 123 125 127 129 130 127 102  46  29  24  29  30  32  35  44  69  89 142 151 152 151 153 154 154 154 152 153 154 154 154 153 152 153
 142 143 144 144 143 144 143 144 144 143 144 140  96  37  32  25  21  18  18  22  46  78  88  90  91  92  94  93  90  90  91  90  91  92  95  94  94  93  95  95  95  92  90  88  89  88  89  89  92  92  94  96  98  98 103 110 114 114 115 122 126 126 131 132 135 130  86  40  28  29  37  34  34  41  64  87 133 151 152 153 154 154 154 154 153 154 152 154 154 154 154 152
 143 143 142 144 144 144 144 144 145 144 142 123  52  36  28  23  20  18  20  32  61  82  89  94  95  95  91  90  89  88  89  88  88  88  87  88  88  88  89  90  91  89  88  88  90  89  90  89  90  92  92  91  93  95 100 105 109 111 114 119 123 125 129 133 137 139 124  67  39  29  35  38  35  40  57  91 121 149 151 151 152 154 154 154 154 153 153 154 153 155 154 153
 142 143 143 144 142 143 144 145 145 141 135  72  37  30  26  23  20  22  26  46  68  84  92  93  95  92  88  87  87  86  84  83  86  85  85  84  85  86  86  85  87  87  85  85  86  87  90  89  88  89  92  94  93  95  98 100 104 108 111 116 121 123 126 132 135 138 134 104  54  31  31  38  40  37  49  91 123 148 151 152 154 155 154 154 153 154 155 154 153 153 152 152
 144 142 144 143 143 144 143 144 144 141 104  39  36  30  26  23  24  26  36  57  80  87  91  93  92  89  87  88  86  87  86  84  82  81  82  81  81  81  82  82  85  86  84  84  85  86  88  88  88  89  91  93  95  94  96  99  99 105 109 115 117 120 124 128 134 138 137 126  83  42  33  38  42  43  44  83 135 147 152 152 154 154 154 153 152 153 154 153 154 154 152 150
 143 143 144 143 143 144 143 143 142 137  58  36  34  28  25  23  24  28  45  69  85  88  89  90  89  89  87  87  86  84  82  82  81  82  81  82  82  82  83  83  85  88  88  87  88  88  89  90  88  89  91  92  94  96  99  99 100 103 110 114 117 117 120 126 129 134 137 131  99  49  34  37  39  45  44  77 139 148 152 154 152 154 153 154 154 154 155 153 155 154 154 152
 143 144 143 142 144 144 144 143 142 127  39  34  29  24  22  22  24  34  52  74  85  87  88  88  88  88  86  85  84  82  82  82  82  82  82  82  82  84  85  87  89  88  88  88  88  91  92  94  92  92  93  96  98 100 101 103 104 107 110 112 115 119 120 126 129 133 134 134 121  64  39  34  36  43  46  60 138 148 151 153 152 152 152 154 154 153 154 154 153 153 153 152
 143 143 144 142 144 145 144 144 144 121  39  33  29  25  22  22  27  36  57  75  83  83  84  86  88  86  86  86  82  84  86  86  87  88  89  89  88  90  93  95  96  93  91  92  93  95  97  99 100 101  99 104 107 109 108 110 110 110 112 115 116 119 120 126 127 130 133 133 125  91  45  36  36  37  42  46 117 144 151 152 152 153 151 153 154 153 153 153 152 152 151 151
 142 143 143 143 144 144 144 144 142 112  37  31  29  25  24  25  27  40  59  73  81  82  81  84  83  72  85  86  86  86  88  91  93  94  97  97  98  97 101 102 104 101 100 100 101 101 103 106 108 110 111 114 115 117 118 115 117 117 118 122 120 120 121 125 127 130 133 133 129 106  61  41  35  36  39  48  88 142 147 151 152 151 152 151 153 154 153 153 152 151 151 151
 142 143 144 144 143 143 143 143 142 110  38  32  27  24  24  25  30  43  61  73  79  81  81  82  82  79  86  87  90  91  96  99  97  99 101 104 104 103 107 109 109 108 106 104 105 108 110 112 116 116 117 119 122 122 123 120 124 125 126 126 123 121 125 126 128 132 132 132 131 119  82  47  39  34  36  44  67 137 147 148 153 152 152 152 154 154 153 153 151 150 151 152
 143 143 143 143 145 143 142 142 141  93  39  32  25  22  23  26  34  48  62  74  78  79  81  82  82  83  87  89  91  96 102 101 100 105 106 106 108 108 110 112 111 113 110 107 106 108 111 113 113 115 104  79 110 123 123 124 124 127 129 128 128 127 129 128 126 131 131 130 130 124  96  52  40  38  35  40  61 128 147 148 152 152 153 152 152 152 152 153 152 150 151 151
 142 143 142 142 143 144 143 143 138  69  39  31  24  23  23  26  37  53  68  78  80  80  80  82  83  82  89  90  91  97 101 101 102 103 105 107 108 108 110 114 117 117 115 112 110 111 111 112 111 108 102  82 103 116 117 120 122 125 128 129 128 132 135 134 130 133 131 129 130 126 108  62  40  37  36  41  57 116 146 150 152 152 154 152 153 151 151 151 151 152 151 152
 143 142 142 144 144 144 144 144 139  70  37  30  23  20  23  28  41  61  72  78  81  82  82  83  84  86  90  90  96  98 100  99  98 101 102 103 105 105 107 110 112 112 115 112 110 110 110 106 106 103 101 100 105 109 110 113 116 119 123 125 128 132 137 136 134 132 131 130 131 130 119  75  40  35  36  41  55 114 146 150 154 152 152 151 153 151 152 152 152 150 149 151
 142 144 143 144 145 144 143 143 139  76  36  28  22  20  22  29  50  68  76  80  81  84  85  84  86  89  93  96  98  98  98  95  96  94  96  99  99  98 100 102 104 106 108 105 103 101  99  98  96  95  94  93  97  99 101 104 108 109 112 116 121 128 130 129 128 129 133 133 132 130 123  86  41  33  36  39  52 118 146 152 152 152 152 154 154 153 152 152 151 150 149 151
 144 143 143 143 143 144 145 145 139  78  35  27  22  19  20  33  58  72  77  80  80  84  83  87  89  90  90  97  95  93  90  86  82  81  82  85  86  87  89  89  90  94  96  95  94  94  89  87  85  83  82  82  86  90  91  92  96  99 102 102 104 110 113 112 110 116 120 127 132 129 124 103  50  34  34  38  51 128 149 153 153 151 152 154 154 152 152 151 152 152 151 152
 143 144 144 143 144 144 143 144 136  66  35  25  22  18  20  40  66  73  78  80  82  83  85  90  88  79  76  79  80  80  76  75  70  70  72  70  72  74  75  77  77  80  83  81  82  84  80  77  77  71  73  72  73  77  78  79  78  79  80  78  78  84  90 100 108 109 108 115 123 126 127 113  58  35  33  38  56 136 150 151 152 152 152 153 154 151 152 154 153 152 152 151
 143 144 143 142 145 145 144 143 132  70  36  24  19  17  22  48  70  76  80  80  82  84  89  88  76  65  63  66  63  59  58  56  55  54  53  56  60  61  65  67  68  68  70  71  71  73  72  70  66  63  64  64  64  65  61  60  55  51  47  48  52  61  71  83  97 103 106 106 109 114 123 118  66  37  33  38  66 141 151 151 152 153 154 154 153 154 154 153 153 152 150 152
 143 143 144 143 144 144 144 141 133  66  35  24  20  18  24  54  71  78  79  79  76  78  80  76  65  57  55  51  49  47  43  41  36  35  36  39  44  48  52  58  62  63  64  65  66  69  69  66  61  59  58  58  54  49  44  39  34  31  31  33  37  41  49  67  79  85  95 105 110 109 116 118  76  36  32  37  76 144 151 152 153 151 152 153 154 153 153 153 154 152 151 153
 143 144 145 145 144 145 144 143 139  69  35  25  20  19  25  57  72  77  77  71  64  67  78  68  60  56  49  40  35  31  30  29  29  27  28  30  32  36  42  51  53  58  60  61  63  66  66  62  57  53  53  49  44  38  33  29  27  27  27  28  29  35  41  50  61  74  90 103 108 108 112 118  86  41  32  40  72 146 152 154 154 154 153 154 152 152 152 153 152 152 152 152
 144 144 144 145 144 145 145 144 140  80  38  27  20  20  27  60  72  76  76  66  62  69  70  58  49  41  33  30  26  26  24  24  23  21  23  25  29  30  32  42  46  53  58  60  65  67  68  64  58  53  50  43  37  35  30  27  27  26  27  29  33  36  40  46  55  64  72  92 104 109 110 116  97  44  32  41  92 148 152 154 154 155 154 153 153 152 153 152 153 153 152 152
 145 145 145 146 146 147 147 146 141  91  49  32  22  19  26  60  72  75  74  64  62  59  54  47  43  42  37  32  30  30  29  28  26  25  25  26  28  31  33  34  42  49  56  60  66  71  71  68  60  53  46  41  37  34  33  33  32  30  30  32  31  33  36  40  47  53  66  80  91 103 114 119 103  51  35  41 109 150 153 155 154 155 154 154 154 152 153 154 154 154 154 154
 144 145 146 146 146 147 146 147 144 116  71  38  27  19  26  61  72  75  73  70  66  59  51  46  43  41  37  33  30  29  29  29  29  29  30  31  30  32  34  34  40  47  52  61  66  74  79  75  67  54  47  43  38  36  35  33  31  28  26  25  26  28  32  41  57  46  50  64  81  98 113 122 110  49  37  44 128 150 153 154 155 155 155 154 154 153 153 154 155 154 154 153
 143 146 146 147 146 148 147 146 147 139 105  41  30  20  27  63  75  78  78  69  61  52  49  43  38  31  30  32  34  33  28  26  25  24  26  29  31  33  35  36  38  43  52  60  67  77  85  84  78  64  52  45  40  37  34  28  25  26  22  20  20  24  28  29  40  67  47  52  73  95 108 119 116  50  38  63 142 152 154 153 155 155 154 155 154 155 154 153 154 153 152 152
 145 146 146 147 147 148 148 148 147 145 131  58  33  23  25  61  76  77  73  67  61  52  45  37  31  34  39  36  28  24  22  24  25  26  26  27  29  32  35  38  40  44  52  63  72  84  97  98  86  73  56  47  38  32  27  27  28  26  20  24  22  23  44  75  39  37  60  49  69  92 108 113 118  57  41  70 142 152 154 155 155 155 154 154 154 154 155 154 153 154 153 155
 146 146 145 147 148 147 147 147 147 147 141  99  37  27  27  62  77  79  71  66  60  50  40  32  38  40  28  26  23  24  23  20  22  30  28  27  29  31  34  37  40  44  51  64  78  95 107 107  96  79  59  46  35  28  28  30  39  28  24  23  21  24  41 100  79  45  48  66  72  90 106 113 121  66  43  68 127 151 154 155 155 156 155 155 154 155 154 152 154 155 154 154
 147 146 146 146 146 147 147 148 148 148 145 130  60  31  27  63  78  76  73  68  58  48  39  37  43  29  39  36  24  26  21  23  23  36  37  30  31  34  35  37  41  44  52  64  85 102 110 113 104  82  60  46  36  31  29  35  47  34  27  24  20  24  33  73  83  70  59  62  78  93 107 118 127  76  45  76 113 143 155 156 155 156 154 155 154 154 155 154 154 154 156 155
 145 146 147 147 147 148 149 148 148 148 147 136  91  33  28  64  82  80  75  70  59  49  43  39  28  38  55  46  25  21  22  21  24  40  44  36  29  34  42  43  44  48  52  70  95 108 120 122 113  86  68  54  43  30  30  38  48  44  30  26  25  26  45  74  84  82  88  82  87 100 110 122 127  84  48  74  73 136 153 154 155 155 155 155 155 154 154 153 154 154 155 154
 145 147 147 146 148 148 148 148 148 149 147 132  79  35  29  66  85  82  76  70  58  49  44  37  38  48  64  53  27  24  23  24  28  49  46  39  34  36  45  51  49  49  54  75 100 115 127 129 121  95  80  70  56  39  35  37  44  48  44  36  35  44  61  70  81  97 106 105 105 110 117 124 128  89  54  66  69 144 153 155 156 156 156 155 157 155 155 153 155 155 155 155
 145 145 146 147 148 148 148 149 148 149 147  95  64  36  30  63  84  84  79  70  59  52  48  45  51  53  54  55  45  28  26  27  42  49  44  40  43  45  52  56  56  54  58  79 104 119 128 129 125 101  90  83  69  58  51  49  51  51  52  55  54  56  62  71  88 101 113 115 115 118 122 128 133 106  66  87  98 148 153 155 156 156 155 155 156 155 155 155 156 154 155 156
 146 145 145 147 149 148 149 148 148 149 142  84  58  40  32  64  85  85  79  71  63  58  56  57  57  53  54  56  53  52  50  51  53  54  48  49  52  57  58  58  59  60  61  78 105 118 122 126 128 109  95  92  81  66  57  54  56  54  51  53  53  56  64  77  91 106 116 122 121 123 127 129 133 116  74 111 123 151 154 155 154 156 156 157 156 155 155 154 155 156 156 155
 145 144 146 147 148 147 148 148 150 149 138  65  59  44  33  61  86  86  82  74  68  65  66  69  67  62  60  56  54  50  49  46  49  48  48  54  59  61  60  60  61  63  65  74  91 109 119 124 130 113 101  99  92  78  69  64  63  63  62  64  65  68  76  88 100 110 119 125 126 127 128 131 133 125  82 114 139 152 155 155 155 155 155 155 156 155 156 154 154 155 156 156
 145 144 145 146 147 148 148 148 150 149 142  54  41  47  35  59  86  87  83  78  74  74  75  75  73  70  64  59  55  53  54  54  53  57  62  65  65  63  60  62  65  67  69  72  83  97 111 118 126 115 108 107 101  94  82  74  73  74  74  75  78  80  85  95 104 112 123 128 130 129 130 132 133 130  72  89 137 152 154 155 154 156 156 155 156 155 154 154 155 155 155 155
 144 145 147 146 147 148 149 148 149 150 146  79  40  55  44  55  88  87  84  81  79  79  79  79  78  77  74  71  66  64  66  67  68  69  70  71  70  64  62  68  71  72  74  75  84  96 109 115 122 118 112 110 107 102  97  88  84  82  83  86  89  90  95 102 109 116 127 130 132 131 133 134 134 132  70  67 121 150 153 154 156 154 155 154 156 154 155 154 154 154 154 154
 145 145 144 146 147 147 148 147 150 149 147 101  46  66  48  58  87  87  84  82  81  81  83  84  83  82  82  80  78  76  77  75  74  72  73  70  70  67  71  76  75  77  79  77  85  94 105 113 122 123 116 115 112 112 108 101  95  90  87  86  89  94 100 105 110 119 126 131 132 133 134 135 134 131  70  62 118 149 152 152 154 155 154 155 154 154 154 154 153 154 154 156
 144 144 145 145 146 147 146 149 149 149 149 133  57  72  58  54  87  87  83  83  80  83  84  85  86  86  88  86  84  84  82  81  78  76  74  73  76  76  77  81  78  80  82  80  85  94 105 112 122 126 117 119 114 116 116 102  98  98  95  89  89  92  96 104 108 114 124 127 131 133 134 134 135 128  69  72 122 150 152 152 153 154 154 155 154 155 154 153 154 155 153 153
 144 144 146 145 146 147 147 148 149 149 148 146  92  71  51  52  85  84  83  85  86  86  86  85  86  87  88  87  85  84  83  84  81  78  78  79  84  81  78  78  81  79  80  81  85  94 108 119 121 125 120 119 119 117 113 100  95  96  97  96  92  90  94  98 105 109 117 124 127 128 132 133 133 127  72  96 138 151 152 154 154 154 154 153 154 154 155 154 154 154 154 152
 144 144 143 145 145 146 148 148 147 148 148 148 114  62  45  56  86  86  88  86  87  87  87  87  85  86  84  82  82  84  82  82  82  80  82  82  82  81  76  75  76  78  80  82  82  96 110 120 126 125 120 119 118 116 111 102  91  90  93  96  96  91  91  96 101 104 108 118 122 123 122 127 130 125 106 125 146 152 152 152 153 154 154 153 154 154 152 153 152 155 153 153
 143 143 144 145 147 146 146 147 148 148 149 148 114  61  47  74  85  86  86  88  87  85  87  85  85  84  80  79  79  80  76  77  77  80  80  79  79  75  73  73  72  79  82  82  85  96 110 119 124 124 121 117 118 115 110 101  89  85  90  92  95  92  92  94  98 102 105 110 112 116 117 121 124 123 127 135 149 151 152 152 152 153 152 153 154 154 154 153 153 154 153 153
 142 142 144 144 144 145 146 148 147 147 148 148 122  67  54  80  83  87  86  87  86  83  83  81  81  78  77  75  76  75  74  71  70  75  77  78  76  70  72  70  70  75  80  86  90  99 106 116 119 120 122 119 112 112 109 102  92  82  82  86  88  91  95  96  96  98 101 105 107 108 111 114 120 119 129 144 150 150 151 152 152 152 151 151 152 151 151 153 152 153 152 152
 141 141 142 141 143 144 145 146 146 146 147 147 133  77  56  80  84  86  85  84  79  79  79  79  75  73  73  72  71  69  69  70  71  73  74  75  73  68  67  68  70  72  81  90  95 100 103 110 113 116 122 123 114 110 107 100  91  82  73  78  84  91  92  94  94  97  97  99 104 103 106 111 115 113 126 145 148 149 151 150 152 151 151 151 151 151 151 151 152 151 151 152
 140 141 142 142 143 143 143 144 146 147 147 145 140  86  63  68  78  84  84  79  76  76  74  76  74  73  72  70  69  68  69  71  72  73  73  69  69  68  66  66  66  68  82  93 100 100 100 105 107 109 115 121 118 108 100  94  87  81  75  77  80  86  92  91  94  96  95  95  98 101 101 107 112 111 132 145 149 148 149 150 151 150 151 149 150 151 151 151 151 150 151 151
 140 140 139 142 141 142 143 143 145 144 146 147 144 105  83  61  73  83  80  76  72  71  70  70  71  71  70  69  69  68  68  69  73  72  70  68  66  65  65  65  65  69  85  92  94  96  97  98 100 105 111 116 122 113  99  89  86  76  74  76  79  81  87  87  87  93  94  92  92  94  97 101 108 111 140 147 148 149 150 150 149 150 150 149 149 150 150 150 151 151 150 151
 140 140 140 141 140 142 142 144 145 145 146 146 145 134  96  64  59  79  79  74  70  70  69  67  69  67  66  66  68  68  69  72  71  71  70  66  66  64  63  61  66  77  84  86  89  90  90  90  94  97 101 110 119 118 101  81  80  77  72  75  76  79  84  86  86  90  91  90  89  91  94  99 107 125 142 145 145 146 147 148 148 148 149 150 149 150 151 150 149 149 148 149
 140 138 140 140 140 140 141 141 144 144 145 147 146 144 108  76  72  75  75  72  69  67  67  68  68  68  68  67  66  66  69  64  67  66  68  65  66  62  60  58  75  80  82  81  81  82  80  81  83  84  86  97 108 111 108  84  74  74  71  74  78  79  81  83  84  86  87  85  86  88  90  97 111 138 143 144 144 145 147 147 147 146 148 148 148 148 148 147 148 148 148 149
 139 139 139 140 141 141 141 140 141 144 144 146 146 144 123  72  67  63  74  69  66  65  65  65  64  60  65  66  66  65  66  58  64  66  66  63  62  60  58  62  81  80  79  74  73  72  70  70  73  71  72  79  89  96 104  96  72  71  72  73  75  76  79  81  83  82  81  84  82  84  87  97 116 138 144 143 143 145 145 145 145 146 146 148 148 147 147 147 148 148 148 148
 139 139 139 140 141 142 141 142 143 143 145 145 145 144 140  82  65  57  67  69  65  63  63  64  62  61  63  64  64  63  63  64  64  65  65  64  61  59  55  73  78  71  67  65  63  62  61  59  58  58  55  61  65  74  91 108  74  70  70  72  74  77  77  80  80  82  79  83  83  83  85  98 122 138 143 143 143 144 144 145 145 144 144 145 146 146 145 147 146 146 148 148
 138 139 139 139 140 141 141 141 143 142 145 144 145 144 142 121  74  64  69  69  64  60  60  61  60  60  60  60  62  63  62  63  65  65  65  65  61  59  60  74  69  57  50  49  49  49  48  50  47  47  45  50  54  58  72  94  82  71  69  71  73  74  76  82  83  82  81  83  87  88  91 102 125 138 144 142 143 142 144 143 145 145 144 144 144 143 144 145 145 144 146 146
 137 138 138 139 140 141 141 141 143 143 144 144 144 145 145 142 114  73  69  71  64  60  59  59  56  58  60  61  61  61  61  61  62  64  64  63  61  62  62  64  54  43  35  31  37  37  39  38  40  41  43  40  32  32  48  71  79  73  68  69  72  75  76  81  83  82  80  86  89  91  96 105 128 139 141 140 141 143 143 143 144 144 144 143 143 143 143 142 145 144 144 145
 136 138 137 138 140 140 141 142 142 142 142 144 144 144 144 145 142 134 110  79  65  61  58  58  54  55  57  59  59  61  60  60  61  62  64  63  62  63  63  53  39  26  18  17  24  32  36  34  36  41  38  26  22  25  38  63  77  79  72  70  70  74  76  79  85  83  84  87  90  95  99 108 131 139 140 141 140 141 142 142 142 142 143 143 142 142 142 141 142 143 142 142
 136 137 137 137 137 138 140 141 140 140 142 143 144 143 145 144 145 140 133  95  67  62  60  58  55  54  55  55  54  57  58  60  61  63  65  62  63  65  64  51  37  29  23  26  28  31  33  34  36  41  39  33  28  30  46  69  78  79  76  71  72  73  80  86  89  88  87  88  95  99 101 111 131 137 139 140 139 140 140 142 140 141 140 140 142 141 141 141 141 141 142 140
 136 136 136 138 138 138 140 140 141 140 141 143 144 145 144 143 143 140 135 105  70  63  61  61  58  55  56  55  56  58  59  60  62  64  64  62  64  67  63  54  42  30  28  30  33  34  34  34  36  41  49  50  47  55  71  80  83  81  79  74  74  77  82  89  94  95  91  93  95 100 103 113 132 136 139 137 139 139 140 138 140 142 138 140 140 139 141 139 140 142 141 141
 135 137 136 137 137 138 140 139 140 140 142 144 144 145 143 143 146 143 140 115  73  65  60  61  60  58  57  57  59  59  62  63  64  64  65  65  66  66  64  57  49  38  35  35  40  40  38  38  39  44  56  68  70  76  80  86  86  85  81  79  78  81  85  89  96  96  95  96  94  98 104 114 132 135 136 136 136 137 135 136 136 138 137 137 138 138 139 139 139 140 140 140
 136 137 137 136 137 137 139 139 139 139 140 142 141 142 142 141 145 143 139 128  77  66  62  62  61  60  60  58  58  60  62  64  66  66  67  67  67  67  64  58  52  52  48  45  46  45  43  42  41  46  55  65  71  74  77  87  91  91  86  82  84  84  88  91  98  99  99 100  99 100 107 118 132 135 135 135 134 136 137 137 136 136 135 135 137 135 136 138 138 138 139 138
 136 136 138 136 137 138 137 140 138 141 141 140 141 141 141 141 142 143 142 134  81  68  64  62  61  61  63  61  61  62  63  65  67  67  68  67  69  67  65  61  57  54  52  48  48  46  43  41  40  44  50  59  69  74  79  90  92  94  90  85  84  87  89  92  99 103 101 101 101 106 110 118 131 134 134 135 135 136 135 136 136 135 135 136 136 136 136 136 137 137 137 137
 134 136 136 137 137 138 138 139 140 140 140 140 141 141 140 141 142 141 140 136  89  70  65  62  64  64  65  64  63  64  64  66  67  67  67  67  69  68  65  60  56  54  55  49  47  44  43  38  38  40  50  58  69  75  79  84  84  90  93  93  86  88  91  95  98 105 104 103 103 106 110 117 131 133 134 134 134 135 134 134 135 135 134 135 135 136 136 135 136 135 135 136
 134 134 134 137 138 137 138 138 139 138 139 141 140 140 140 141 140 140 140 134  99  70  65  63  65  65  66  66  65  66  66  67  68  68  69  69  69  68  66  59  56  54  53  48  49  46  45  41  39  41  48  62  73  79  81  84  79  82  82  88  91  89  93  96  97 104 107 105 105 106 109 116 128 132 133 133 133 134 134 132 132 134 134 133 134 134 135 135 135 132 134 134
 133 133 136 136 136 136 138 138 139 139 140 140 140 140 140 141 141 141 140 138 102  72  66  65  64  67  68  67  67  67  68  66  68  69  68  68  68  66  63  59  56  53  51  45  52  52  53  51  45  45  51  66  81  88  92  90  85  89  82  79  88  90  92  97  97 103 108 108 109 107 111 119 128 130 130 131 132 130 132 130 130 133 134 132 133 133 134 133 134 133 133 134
 132 134 137 137 137 137 138 138 139 138 138 139 140 140 139 139 141 140 140 137 114  75  67  65  66  67  68  69  69  68  66  66  69  70  69  68  64  61  60  52  50  51  51  50  59  63  66  67  63  58  60  67  74  83  93  98  96  96  92  82  81  91  91  95  96  98 107 111 110 107 111 121 129 130 130 131 130 130 130 131 130 131 131 131 131 131 134 133 132 132 133 133
 132 134 136 136 136 138 136 137 139 138 139 139 138 140 141 139 141 139 141 137 120  77  70  65  67  68  69  70  71  69  67  67  68  70  69  67  60  54  54  49  52  58  61  65  66  62  59  63  65  65  63  57  54  54  62  76  91 101 103  90  82  84  92  94  96  94 105 112 110 109 111 121 130 130 130 131 131 129 130 130 130 131 131 132 132 130 131 132 132 132 132 133
 133 135 136 135 137 138 137 138 139 138 139 138 139 139 140 138 139 139 140 139 130  80  68  64  66  69  71  72  72  70  67  68  69  67  66  63  55  50  52  55  62  66  65  60  55  49  44  43  45  47  46  46  44  47  52  60  63  72  92 101  91  78  83  95  97  90 101 113 109 109 110 122 129 129 129 128 130 129 128 128 129 130 129 130 129 130 132 132 131 130 131 132
 135 133 136 135 136 137 136 138 138 138 139 139 139 139 139 139 139 138 138 136 132  91  69  65  67  68  70  73  74  70  68  68  69  65  59  56  52  50  58  65  65  59  50  47  48  46  44  42  35  37  42  42  45  45  48  52  54  48  59  86  95  85  81  92  98  88  96 112 110 110 111 120 127 128 128 128 129 130 129 128 129 130 129 128 129 129 128 129 129 129 131 131
 134 133 134 135 136 137 136 137 137 138 138 138 139 140 138 138 137 136 136 135 131 103  71  66  66  67  70  73  75  72  68  67  69  64  52  50  54  58  63  59  50  42  38  40  44  41  38  37  34  34  34  36  36  43  51  65  66  56  40  51  75  85  83  90  98  86  90 110 109 110 113 124 126 127 126 128 129 128 128 126 128 128 128 128 128 128 129 129 130 131 130 129
 133 133 135 135 136 136 135 137 138 138 137 136 136 139 137 137 135 135 136 135 133 122  76  67  65  63  70  72  73  73  69  68  70  59  52  52  56  56  53  42  39  40  42  44  43  40  36  31  30  32  35  44  52  63  76  84  85  86  75  59  49  65  79  90  96  83  88 109 106 109 114 125 127 127 126 127 128 127 128 128 125 127 128 127 128 127 128 129 128 129 129 129
 132 134 136 134 136 136 136 136 136 136 135 136 136 137 136 135 135 135 133 133 134 129  93  70  66  64  68  69  72  72  70  69  69  59  53  54  52  48  41  40  44  48  50  53  51  51  49  48  50  57  50  53  55  60  71  72  71  78  82  88  89  63  63  82  94  84  85 104 103 107 115 124 126 125 126 126 126 125 124 127 126 125 127 125 126 127 128 127 127 126 123 127
 133 133 135 135 135 135 135 135 134 135 136 134 136 136 134 135 136 134 134 131 132 131 115  73  68  68  69  69  72  74  68  66  70  61  54  51  43  41  44  45  47  50  47  48  49  51  50  51  54  56  48  49  48  52  57  59  63  75  80  84  88  95  78  74  87  83  86  98  97 105 118 122 122 123 126 125 124 124 124 124 125 124 125 125 124 126 126 124 125 126 123 124
 132 133 133 134 135 135 134 136 135 135 134 135 136 134 135 134 134 133 133 132 131 129 125  90  68  68  67  68  70  72  70  67  67  62  54  50  49  51  51  50  47  44  41  41  42  44  44  43  46  46  41  41  40  43  48  49  55  61  58  60  70  84  89  85  84  77  90  96  93 105 120 122 124 125 124 124 123 123 123 122 123 124 123 123 124 123 123 124 125 124 124 123
 131 132 132 133 133 134 134 135 134 135 133 134 133 134 135 132 132 132 132 131 130 130 126 113  70  66  65  64  65  69  71  68  67  59  53  57  60  57  54  52  47  46  41  41  38  37  35  36  38  38  36  35  35  35  39  40  43  40  43  56  69  80  88  90  81  80  93  90  93 106 121 123 122 122 121 121 121 122 122 122 121 121 121 122 123 122 122 123 123 122 124 123
 132 132 131 132 132 134 134 135 134 132 133 134 135 133 133 132 132 132 131 130 127 126 127 120  91  66  64  61  62  68  71  65  64  61  60  62  60  54  48  42  40  41  39  39  36  31  30  31  30  29  28  28  27  29  32  34  37  45  53  61  72  83  91  94  86  91  88  83  88  79  79  90 102 128 126 121 121 121 122 121 121 120 121 121 121 120 121 120 121 121 122 123
 129 132 131 131 130 133 133 134 134 133 133 133 133 133 132 129 129 130 129 129 126 126 126 122 101  67  63  62  60  61  67  68  60  60  59  60  57  49  46  38  34  30  30  30  30  28  25  24  23  24  24  25  26  31  36  41  43  48  51  54  60  75  86  95  96  91  80  80  81  52  47  46  51  86 130 128 121 120 120 120 120 118 120 121 121 120 120 120 121 122 122 122
 129 130 131 132 130 134 131 134 133 133 132 130 130 131 128 128 128 127 128 127 126 126 124 120 107  70  63  62  55  56  57  67  63  61  61  59  56  51  46  40  34  30  30  31  29  27  26  23  22  23  24  28  32  37  41  48  50  52  46  42  41  51  64  75  82  80  77  81  50  38  35  37  36  52  89 131 122 107 104 107 115 117 118 118 118 119 119 119 120 120 121 120
 130 131 131 130 129 130 130 130 130 131 129 129 129 128 129 128 127 126 126 126 125 123 116 102  83  68  61  61  55  55  53  56  62  61  59  53  48  43  39  36  35  33  36  36  35  32  30  28  28  28  30  32  38  43  47  48  52  55  57  41  32  36  44  52  70  80  80  79  35  28  31  32  32  34  64 106 131  69  49  46  58  77 104 113 114 115 118 118 119 120 119 120
 128 129 129 129 129 127 129 130 129 129 128 130 128 128 128 128 126 126 126 124 119 103  86  69  57  68  61  56  56  54  53  52  50  48  47  43  38  34  32  33  38  41  42  43  41  38  36  33  31  32  33  35  39  47  48  49  50  54  66  62  38  35  44  60  76  80  80  81  32  25  23  26  28  28  50  81 127 131  47  32  34  40  57  88 110 116 118 119 120 120 118 121
 128 128 128 127 129 128 128 127 128 129 127 127 127 126 126 126 125 124 119 109  92  81  65  54  47  67  63  58  53  53  52  52  51  48  43  39  35  31  29  39  46  50  51  50  45  43  40  36  33  34  35  35  40  45  47  43  49  55  66  68  61  53  52  65  76  80  86  90  30  27  20  19  23  24  34  68 104 132 132  38  26  25  31  49  80 104 116 117 119 120 119 121
 128 128 128 127 128 127 127 127 128 126 126 126 124 126 125 124 122 116 101  86  81  73  61  46  38  64  62  59  53  50  52  51  54  53  50  47  43  38  41  50  55  56  54  50  45  43  44  43  38  38  39  37  45  51  51  45  49  56  66  71  75  75  74  75  79  82  91  91  25  24  23  15  18  19  23  51  86 116 138 130  44  20  23  26  54  82  96 110 115 115 116 117
 127 127 128 126 125 126 128 127 127 127 126 123 123 125 123 119 110  98  89  81  78  68  50  32  27  61  62  61  57  51  50  50  52  52  52  53  53  55  56  57  59  55  48  44  43  45  47  46  43  42  42  44  48  57  55  50  48  57  63  66  70  82  79  78  78  83  94  92  22  21  21  16  12  14  16  34  70 107 131 144 118  84  39  20  32  65  81  92 106 112 112 113
 126 127 126 127 126 126 127 126 125 124 123 122 123 122 118 110 102  94  86  82  78  60  36  20  20  56  61  60  57  51  47  47  49  50  51  54  60  63  61  58  53  47  42  42  45  47  47  44  45  43  44  44  47  52  56  45  41  48  53  63  71  80  74  76  76  86  95  90  23  19  19  20  14  11  12  22  57  94 124 139 117  91  92  47  25  55  75  82  88 103 112 115
 126 126 125 126 125 123 123 122 122 121 123 122 120 117 110 102  96  90  87  81  62  37  20  16  17  54  62  61  58  55  50  47  46  44  48  56  60  61  63  56  48  41  42  43  45  45  44  44  42  43  43  44  43  50  55  53  49  53  56  59  72  78  74  74  76  87  95  87  21  19  19  20  17  11  10  14  44  80 114 131 123  99  99  93  37  49  69  77  81  85 106 114
 122 124 124 124 124 122 121 120 120 120 120 118 115 109 105  96  88  88  83  64  37  18  12  13  14  51  63  58  59  55  51  48  44  43  48  55  59  62  57  49  44  44  48  47  45  42  39  40  39  38  42  43  38  46  49  51  53  60  67  66  69  73  71  72  78  87  94  83  20  16  18  20  17  13  10  10  33  70 105 128 132 110 101  98  68  47  66  76  77  76  79  93
 121 123 125 123 122 120 120 118 117 116 117 112 105 101  95  88  89  79  68  44  19  11  12  12  12  48  62  59  58  56  54  51  47  44  45  51  54  55  51  47  48  53  50  47  43  36  35  38  35  36  38  38  37  42  44  48  52  57  67  69  69  67  63  68  78  89  95  84  17  15  15  20  19  15  12   9  20  56  88 123 136 114  99 100  77  46  63  71  76  75  76  75
 120 120 120 119 118 119 102  89  75 104 109 104 100  99  94  90  87  73  51  24  11   9  11  11  11  38  62  60  58  56  54  51  49  45  43  43  47  48  50  50  50  48  46  42  39  35  39  37  33  34  34  34  34  38  45  45  49  52  63  68  65  60  53  68  79  88  92  85  16  14  14  18  20  17  16  10  12  44  77 110 132 117 100  99  79  49  61  69  72  74  76  72
 119 118 116 105  84  59  47  40  71 104 101 100  99  94  94  90  82  63  34  13  10  10  12  10  10  32  60  58  58  55  53  53  49  46  46  43  42  45  45  48  48  44  40  38  37  37  38  37  36  34  34  32  33  35  44  45  46  50  58  58  54  51  60  73  80  86  90  84  19  13  13  16  20  19  18  11  10  36  69 101 127 123  98  91  75  46  60  71  72  72  72  71
 117 107  76  59  45  32  56  96 107 103 100  98  97  94  91  85  71  49  19  11   9  11  10   9   9  30  57  58  56  55  53  51  49  47  46  43  38  39  39  40  40  40  37  38  38  38  40  36  32  33  31  31  35  34  39  41  41  44  46  47  49  54  66  71  77  85  88  77  23  11  12  14  18  20  18  13  10  27  64  93 117 124 100  87  70  46  56  68  71  69  71  70
  84  65  53  37  24  76 109 107 102  99  95  95  94  92  88  77  59  33  12   9  10  12  11   8   9  29  55  56  54  54  51  50  52  50  45  44  40  37  37  33  32  34  34  35  39  38  32  30  30  30  28  30  31  31  32  33  34  36  39  51  59  64  65  71  79  83  86  73  22  11  11  12  17  20  18  15  11  21  53  87 119 124  98  82  64  41  53  64  68  66  69  67
  58  47  33  22  56  98 104 101 100  96  91  94  95  89  86  68  47  19   9   7  11  12  10   8   8  24  53  54  55  53  50  51  51  48  49  48  46  42  41  35  28  28  26  28  29  28  26  27  27  26  27  28  28  28  30  32  40  47  49  56  59  62  62  70  78  81  84  69  22  11  10  12  16  18  19  17  10  17  51  77 113 123 100  76  56  35  51  64  66  64  67  65
  45  31  21  39  88  99 101 100  97  93  91  92  94  85  79  56  33  10   8   8  11  12   9   8   7  24  51  54  55  53  51  51  51  48  49  49  48  45  43  38  32  27  27  27  26  24  25  26  28  31  33  34  33  32  40  50  55  54  55  56  57  62  65  70  77  81  80  61  22  12  11  12  13  16  18  17   9  13  48  77 104 114  94  68  45  35  49  61  66  63  64  62
  41  21  33  68  91  95  99  96  93  91  90  91  90  83  70  45  20   8   8   9  12  11   8   8   8  24  50  53  55  55  53  51  51  48  49  49  48  48  45  42  38  35  33  32  30  29  28  29  32  36  38  38  39  44  52  56  59  58  56  55  56  61  65  72  77  78  76  54  22  11  10  11  12  16  17  17   9  11  41  75  98 103  86  56  34  35  49  60  64  59  60  58
  28  25  58  83  93  93  94  93  91  88  88  88  87  83  64  35  13   7   8  11  11  10   8   8   7  22  47  52  54  54  54  51  50  49  48  48  48  48  46  44  40  38  36  34  32  31  31  30  34  38  38  40  43  48  53  56  58  57  56  58  57  63  66  70  75  75  74  46  20  10   8  10  12  15  17  16   9  10  36  72  96 100  75  47  31  36  50  59  63  59  59  56
