P2
# Generated by OpenCV 3.4.0
92 112
255
 130 132 132 131 132 133 132 133 133 134 134 134 135 134 134 136 134 136 136 136 136 137 137 137 137 136 136 137 137 139 138 140 139 138 140 141 141 141 139 138 138 136 123 121 127 128 131 125 128 135 138 139 141 142 144 144 143 143 144 143 143 144 145 144 143 145 144 144 145 145 145 144 144 145 145 145 145 144 143 143 144 146 144 143 144 145 143 144 145 144 144 142
 131 133 133 132 133 133 134 134 135 133 134 134 135 135 136 135 136 136 136 136 137 137 139 139 139 137 138 137 139 139 139 140 139 140 141 141 141 142 141 138 129 110 112 101  99  99  96 107 125 133 135 137 136 138 142 144 143 144 144 145 145 145 144 144 143 146 145 144 144 146 145 144 145 147 146 144 145 144 146 146 144 145 145 144 145 145 145 145 144 145 143 144
 133 133 133 133 134 136 135 135 135 136 135 134 135 136 137 136 136 136 138 138 139 138 140 138 139 140 140 139 140 140 141 141 141 141 143 142 142 141 140 132 104  97  80  75  72  72  89  99 117 124 126 130 136 139 139 140 142 142 143 144 145 145 144 145 145 146 146 146 146 146 146 145 146 146 146 145 146 145 145 145 145 146 146 145 146 146 145 146 147 145 145 145
 133 134 134 134 134 135 135 136 136 136 136 136 136 137 138 137 136 138 138 138 139 138 139 140 140 140 140 140 140 139 140 141 141 140 142 141 142 141 132 106  70  60  62  56  54  66  77  89  97 105 109 114 121 121 130 136 127 126 130 141 145 145 146 145 146 147 146 146 146 145 146 146 146 146 146 145 145 145 146 147 147 147 147 146 146 146 145 146 147 147 146 147
 133 133 135 135 135 136 137 137 137 138 137 136 137 137 138 138 139 139 138 140 141 139 139 140 140 141 141 140 139 140 142 141 139 142 141 140 140 132  91  68  50  48  47  48  55  62  66  79  77  81  86  92  92 107 109 101  99 106 103 120 139 145 145 148 147 148 148 148 147 147 146 147 147 147 147 146 145 144 146 146 147 147 146 147 147 147 147 147 146 147 147 147
 133 135 134 134 134 136 137 136 137 138 138 137 139 137 136 139 141 141 140 141 140 140 139 142 141 141 140 140 141 141 141 139 140 142 140 142 134  88  71  49  38  37  51  64  73  79  81  77  78  78  70  64  60  85  79  87 101 100 106 111 132 145 146 147 147 148 148 147 147 147 147 148 148 148 147 146 147 146 147 147 149 147 148 148 147 147 147 147 147 147 146 147
 134 135 135 136 134 135 137 137 137 137 139 137 138 138 139 140 140 141 140 140 139 141 141 141 142 142 141 142 141 140 141 139 141 137 137 133  90  74  48  35  32  33  55  66  72  77  68  58  57  55  47  46  46  54  60  81  86  85  82  99 128 142 144 147 148 146 148 148 147 147 148 148 148 148 147 148 148 147 147 147 149 148 147 147 147 147 146 146 147 148 147 147
 134 136 135 136 135 136 137 136 138 138 138 137 139 139 140 141 139 141 141 142 142 142 142 141 142 142 142 141 141 142 141 138 136 137 129  93  54  49  33  32  30  30  42  49  50  47  34  37  39  37  34  35  40  48  61  61  58  59  61  76  91 125 138 148 148 148 148 148 148 147 147 149 148 149 148 148 149 148 149 148 148 148 148 147 149 148 147 148 148 147 148 147
 134 134 135 136 136 137 138 136 138 141 141 140 139 139 140 139 141 141 142 142 142 142 142 142 143 142 143 142 142 143 138 133 136 120  90  47  42  32  29  30  29  26  32  32  33  29  29  32  31  32  31  31  32  36  38  42  47  48  49  50  51  69 127 137 143 145 147 148 148 148 148 148 148 148 149 148 149 148 148 149 149 148 148 149 149 147 147 148 149 148 147 148
 135 136 138 138 137 136 137 137 139 139 140 140 139 141 142 142 142 141 142 142 143 142 143 143 142 142 139 141 141 142 136 133 118  73  44  40  31  27  29  27  23  24  25  26  26  27  26  25  24  24  27  27  28  32  36  37  37  38  41  43  43  51  64 105 117 129 138 141 145 149 149 149 149 149 149 149 149 148 150 149 150 149 150 148 149 148 149 149 148 150 149 149
 136 137 139 136 137 138 138 140 138 139 140 141 142 142 142 142 142 142 142 141 143 144 143 142 142 139 136 136 140 134 128 116  67  44  37  30  27  26  24  21  20  21  22  24  24  22  20  20  20  21  22  26  26  29  30  32  33  35  36  39  39  39  47  64  73  74  77  85 132 145 148 149 149 149 151 150 150 151 151 150 150 150 151 148 150 149 149 149 149 149 149 151
 136 137 138 138 138 137 139 140 138 141 140 141 141 142 143 141 143 142 142 142 143 144 142 142 141 137 129 132 132 123 111  60  40  34  31  27  25  24  21  19  19  20  21  20  18  18  18  18  17  17  18  23  22  23  25  27  27  28  29  32  35  39  42  45  48  53  54  66  84 113 144 149 150 150 151 153 152 152 150 150 151 151 152 151 151 152 150 150 150 150 150 151
 137 139 139 139 139 140 140 140 139 141 140 140 142 142 142 142 142 143 143 143 144 143 141 141 142 141 134 128 116  87  46  38  33  28  27  26  23  18  21  19  18  18  17  16  15  16  16  16  15  16  17  19  18  19  20  22  22  23  24  26  32  36  36  37  38  45  46  48  66  85 128 148 150 152 151 153 151 151 151 151 151 150 151 152 151 151 150 149 150 151 150 152
 138 139 140 140 140 141 141 140 140 142 140 141 141 141 140 141 142 142 143 144 143 143 143 143 142 136 127 113  75  49  36  33  29  27  24  22  19  19  20  16  16  17  16  15  14  14  14  15  15  15  15  16  16  16  17  18  20  22  24  28  33  33  32  32  32  35  37  36  49  65 105 144 148 150 151 152 153 153 153 153 152 153 152 152 152 150 150 150 151 152 151 151
 138 140 139 140 141 139 141 141 142 143 142 143 142 143 142 143 142 142 143 143 143 144 144 144 140 130  80  63  45  37  30  28  24  25  21  19  18  19  18  15  14  16  16  15  13  14  14  13  14  14  14  15  14  16  14  15  16  19  21  23  27  29  29  30  29  28  30  37  47  52  73 120 142 149 151 151 152 153 152 153 151 151 152 153 151 151 151 152 153 152 152 152
 138 140 140 141 142 141 141 142 142 142 142 142 143 142 140 142 142 143 142 142 143 143 141 140 131 111  60  43  36  31  27  25  21  20  20  19  18  16  17  15  14  16  18  17  16  16  15  14  15  14  14  15  13  15  14  15  15  16  18  24  28  31  33  30  29  28  30  36  45  45  51  66 111 146 151 152 151 152 152 152 152 153 153 153 154 152 152 152 154 152 152 152
 140 141 142 140 141 142 142 143 143 143 143 142 141 140 142 143 143 142 142 142 143 141 136 134 127  88  43  36  31  27  24  20  20  21  20  18  16  17  17  15  16  16  17  18  17  18  17  16  16  17  15  14  13  14  15  14  14  15  16  21  27  31  34  32  30  28  31  34  38  40  45  49  61 123 149 151 153 152 153 153 152 153 153 153 154 153 152 153 153 153 150 151
 141 142 141 142 142 142 142 143 143 144 143 141 141 143 144 145 143 143 144 144 139 111  79  84  81  56  37  30  26  24  21  21  21  19  18  16  16  18  19  18  19  21  22  23  21  21  19  20  20  20  19  18  16  15  16  15  14  15  16  16  20  24  32  34  30  26  27  32  37  40  42  40  47  78 144 152 153 153 154 154 153 154 153 155 153 152 152 153 152 152 152 154
 141 140 142 142 141 142 143 142 143 142 142 143 144 144 144 145 144 144 143 141 127  83  47  41  38  35  30  26  24  22  20  18  18  16  16  16  18  20  25  27  26  30  32  31  30  28  29  28  27  26  26  25  22  22  19  18  16  16  16  16  16  18  22  26  27  25  26  27  34  39  40  38  42  52 139 151 153 153 153 155 155 154 153 153 152 153 152 152 154 153 153 154
 142 142 143 142 142 143 143 143 142 141 144 144 144 144 145 144 144 143 141 125 102  59  38  33  30  26  25  24  22  18  16  16  15  15  17  19  20  23  30  36  40  45  47  46  47  47  47  46  47  47  45  43  37  37  35  28  22  22  18  18  17  17  16  19  22  24  25  24  29  39  42  39  39  48 110 149 151 152 154 154 154 154 154 154 155 153 154 154 154 155 155 153
 139 142 144 142 141 143 142 142 142 143 144 144 145 145 146 146 142 137  90  71  64  53  35  27  25  24  24  23  20  17  15  16  15  17  18  21  22  29  39  46  51  55  61  61  68  68  71  74  75  77  75  72  65  61  54  46  41  34  28  24  21  21  20  19  19  19  22  22  26  32  40  41  41  46  92 145 150 153 154 154 154 154 155 154 153 153 153 154 155 154 152 152
 141 142 143 143 143 141 141 142 143 143 144 145 145 145 145 144 134  86  69  53  57  50  32  26  24  23  20  18  16  16  16  16  17  18  19  21  26  36  46  55  62  66  72  78  80  85  88  89  90  93  95  92  88  83  77  73  67  60  51  47  39  34  27  25  22  22  20  20  22  28  31  36  37  43  77 140 150 152 153 152 154 154 155 154 153 153 153 154 154 154 153 152
 142 143 143 143 143 142 143 144 143 142 144 146 144 144 143 132  81  49  41  35  33  29  26  24  23  21  20  18  17  18  18  18  18  17  18  23  32  40  53  66  73  80  83  86  93  95  96 100 102 106 109 109 106  99  93  91  89  83  79  76  67  58  52  44  38  32  27  24  22  23  25  29  33  39  57 131 150 154 153 153 152 153 154 154 154 154 153 154 154 153 153 153
 142 142 142 143 143 143 144 144 143 143 144 145 143 144 143 104  55  40  32  30  28  25  21  22  23  22  22  22  19  18  18  17  16  18  22  28  37  52  67  76  81  87  92  97  99  99 101 103 104 108 110 114 114 112 107 104 102  97  92  90  87  84  81  76  71  62  54  47  37  29  25  24  26  34  42 101 148 153 153 152 153 154 153 152 154 154 154 153 154 154 152 152
 141 141 142 143 143 143 143 144 144 143 144 144 144 143 140  89  46  36  30  27  25  23  21  19  17  19  19  20  18  17  16  16  18  22  27  33  49  66  78  84  89  94  97  96  97  98  99 102 103 107 111 113 114 115 113 112 111 107 103  99  95  94  95  92  90  85  81  79  74  60  36  26  25  30  39  82 146 151 153 152 153 154 153 152 154 155 155 154 153 153 152 153
 143 142 142 143 143 143 143 143 143 143 145 144 145 143 135  65  38  31  27  24  24  24  23  23  20  19  18  18  17  17  17  18  20  24  31  44  64  78  86  91  92  95  97  98  97 100 101 100 102 105 106 108 109 113 114 114 113 110 108 106 101 100 101 101 100 100  98 100 100  99  77  38  29  29  37  82 144 150 153 153 153 153 154 153 152 154 153 154 153 154 153 153
 143 143 143 142 142 142 144 143 144 144 144 144 144 142 122  52  33  27  24  24  24  23  22  23  23  21  21  18  16  16  16  19  25  31  43  58  69  82  88  94  96  97  99 100 100 100  98  98  98 100 102 102 105 108 110 112 113 110 109 109 106 104 104 105 107 109 110 111 114 115 112  87  42  38  42  71 143 151 152 152 153 153 154 153 153 155 152 152 152 152 153 154
 144 144 143 142 143 143 144 143 143 144 144 144 143 139  71  38  30  26  24  24  21  22  24  23  24  23  23  23  21  19  21  26  31  43  54  64  75  83  89  93  96  99 100 100  99  98  97  98  96  96  97  99  99 100 104 107 106 108 110 109 108 106 103 104 107 110 114 115 118 122 125 122  92  44  41  63 132 151 153 154 154 154 154 153 154 154 153 153 153 153 153 153
 143 144 144 143 142 142 144 144 144 143 143 144 141 110  37  33  26  24  23  21  22  22  23  23  23  24  23  22  23  23  25  33  40  46  54  68  82  87  91  93  96  96  99  98  98  96  94  92  93  91  90  92  94  95  97 100 101 104 108 108 108 107 106 105 107 110 113 116 120 128 131 132 126  80  45  62 119 148 152 154 154 152 154 153 154 154 154 152 153 152 153 152
 142 143 143 143 142 143 144 144 144 144 144 143 139  69  37  27  23  23  21  18  20  21  21  22  22  20  19  19  23  24  28  36  46  53  66  79  87  93  93  93  94  95  96  96  96  94  94  90  92  91  90  91  92  92  94  93  96 100 102 105 106 106 106 105 107 109 112 116 122 128 131 134 134 130  63  59 129 150 153 154 152 154 154 152 153 153 153 154 153 152 152 151
 142 142 143 142 143 144 144 144 144 144 144 143 136  65  35  24  22  23  19  20  19  18  20  19  22  20  19  20  22  24  31  37  48  60  73  83  89  89  89  89  93  95  95  95  95  94  92  92  91  89  89  87  88  89  89  91  93  95  99 102 104 100 101 105 109 110 111 116 120 123 130 135 136 136 115  62 129 150 154 153 153 154 152 152 153 152 153 154 152 152 152 152
 141 143 143 143 142 144 143 143 145 144 144 142 129  63  29  24  23  19  19  18  18  18  23  19  18  18  19  21  24  25  29  38  49  62  71  81  85  86  88  88  87  90  92  93  95  96  93  90  90  89  88  88  88  89  91  92  94  95  97 100 102 102 100 103 106 108 110 115 122 122 127 133 135 136 134 102 132 150 154 153 154 154 153 152 155 153 153 153 152 152 153 153
 143 144 143 142 143 143 142 143 144 144 144 141 100  38  28  24  22  20  23  21  21  22  25  20  19  19  20  21  24  27  33  42  52  63  70  76  80  84  87  86  83  86  87  88  86  88  95  91  89  93  92  95  94  93  94  95  95  98 100 101 104 103 103 105 108 110 110 114 120 124 126 130 133 134 135 132 132 149 152 153 153 154 152 153 153 153 152 152 152 150 152 152
 143 143 143 144 143 143 145 144 144 143 141 129  48  33  29  24  23  22  24  23  22  25  26  22  18  20  22  23  25  29  36  43  51  61  69  78  81  83  83  82  84  86  88  85  80  83  91  94  96  97  99 102 103 103 103 103 102 105 107 110 108 106 107 106 108 113 115 117 121 124 127 130 132 133 135 136 129 145 151 151 153 153 154 152 152 152 152 152 150 151 150 151
 143 143 143 143 143 145 144 143 143 142 139 101  40  32  25  22  23  22  23  23  21  25  24  24  22  22  23  24  25  31  38  47  55  62  69  76  82  82  82  81  81  82  85  85  84  89  94  99 101 105 106 109 108 108 110 113 111 112 114 115 114 112 112 109 111 115 120 121 122 125 128 132 132 134 135 137 128 136 150 151 153 153 152 152 153 152 153 151 151 150 151 152
 142 143 142 143 144 144 144 144 144 143 139  82  36  29  24  22  23  23  23  22  21  24  22  23  21  20  20  23  27  33  41  51  61  67  74  80  81  82  82  81  81  82  84  85  84  86  94  98 100 107 113 117 115 115 119 119 120 119 120 121 120 118 116 115 117 120 123 124 126 129 132 133 134 134 136 137 134 126 150 152 154 153 154 152 150 152 152 150 152 152 151 152
 141 142 144 144 142 144 144 144 143 144 140  75  34  26  24  23  23  23  24  23  22  25  22  22  20  20  20  24  29  38  49  61  70  75  79  81  82  82  83  84  84  85  85  85  87  89  94  98 101 106 111 116 117 118 120 122 122 123 124 124 124 124 122 119 120 121 123 125 128 128 132 135 137 137 137 137 136 116 148 151 152 153 154 152 152 153 153 151 153 152 151 151
 143 144 143 144 143 143 142 143 144 143 137  60  33  26  24  23  23  23  23  24  22  24  19  18  19  19  21  24  30  46  58  68  76  79  80  81  82  82  83  87  86  84  85  86  90  91  94  98 100 107 110 112 113 113 116 119 120 121 122 123 126 126 124 123 122 121 124 125 126 122 111 133 137 139 140 138 135 116 143 151 153 153 153 153 152 152 153 151 151 151 151 152
 143 144 144 143 143 144 143 144 145 143 124  46  31  25  24  24  24  23  22  24  21  23  18  17  17  17  21  27  39  56  70  75  78  79  80  80  80  82  84  86  85  84  87  89  93  98  98 100 106 109 109 109 107 105 108 108 112 115 115 118 120 122 124 126 122 120 123 124 125 118 101 128 139 143 143 141 139 123 137 149 152 152 152 154 152 151 152 153 152 152 152 151
 144 144 143 145 143 142 143 143 144 143 109  41  31  25  24  24  24  21  20  20  22  20  17  16  17  17  22  32  49  63  73  78  77  80  81  82  82  81  86  86  86  86  95  99 100  96  91  88  94  99  98  95  93  90  89  90  97 102 106 107 110 113 118 121 118 117 120 119 120 120 121 131 138 140 144 143 141 134 132 149 154 152 153 153 152 153 153 151 151 151 152 152
 142 142 143 144 144 144 143 143 144 141 110  40  28  26  26  23  24  20  20  20  22  20  16  14  14  17  24  41  57  67  74  78  78  78  82  81  82  85  88  89  92  94  94  96  94  84  73  70  78  78  76  72  74  76  74  75  80  84  88  91  94  99 107 114 115 114 113 113 114 115 118 128 134 138 142 142 142 138 127 149 152 153 154 153 153 153 153 151 151 152 151 150
 143 144 144 144 145 145 144 144 142 143 120  41  30  29  25  22  23  20  19  20  19  18  18  14  15  17  29  49  63  68  75  77  78  79  81  82  85  86  87  83  84  87  88  85  79  68  59  60  58  58  57  57  54  55  57  59  59  67  72  76  81  86  94 101 105 108 109 106 105 105 109 119 129 134 139 140 140 138 124 148 152 152 154 154 153 151 154 154 152 153 153 152
 145 145 145 144 144 146 145 146 145 145 129  41  30  27  24  22  21  21  21  21  18  18  18  14  15  18  38  54  65  70  75  76  80  80  83  85  87  84  79  72  71  78  82  76  68  63  56  54  50  45  44  43  41  40  36  38  42  47  54  61  69  75  79  86  91  94 101 100  96  91  99 105 113 119 126 129 128 129 120 138 149 154 154 153 153 153 153 153 151 152 153 152
 144 145 145 144 145 146 146 145 146 145 120  43  31  28  23  20  20  19  20  20  19  18  19  16  15  23  42  57  69  73  74  76  78  80  83  86  82  75  66  62  66  73  73  62  57  51  46  39  34  31  29  30  31  30  29  29  34  37  39  43  55  65  69  75  81  88  92  97  89  83  86  89  94  93  91  90  93 100 107 113 139 152 154 153 153 153 153 154 152 152 152 152
 144 145 146 146 146 147 146 148 149 146 116  42  30  25  22  18  18  17  19  18  19  18  19  17  17  24  43  60  70  73  74  76  77  78  82  85  77  68  66  64  64  59  54  49  44  41  40  35  32  30  28  27  24  25  24  25  27  31  32  35  44  52  58  67  73  80  87  90  84  76  76  72  67  60  56  48  52  70  91 104 127 148 152 152 155 154 154 154 154 154 152 152
 146 145 146 146 147 147 147 148 148 146 126  44  30  23  20  18  17  17  20  18  18  18  18  18  18  26  46  64  71  73  74  75  79  82  82  80  79  71  67  63  58  53  47  43  43  42  39  35  34  33  30  30  29  30  27  27  29  30  31  34  34  44  54  63  69  79  90  94  82  69  64  55  47  38  35  36  42  55  75  99 117 147 152 153 154 154 153 154 154 155 154 152
 145 146 146 148 148 147 148 148 147 147 134  56  29  21  20  18  18  20  21  19  18  18  17  18  19  28  44  67  73  74  76  77  78  80  79  75  71  67  62  55  52  48  43  40  38  33  30  30  30  29  30  30  30  32  31  33  31  32  34  36  36  41  49  59  69  79  96  99  82  66  55  43  37  31  31  35  39  48  69  89 112 150 154 154 154 152 153 154 154 155 155 155
 146 146 147 147 147 148 146 148 148 147 139  85  32  22  20  18  19  22  23  21  18  17  18  18  20  31  45  67  73  76  77  79  80  78  72  69  63  63  59  54  50  43  37  31  33  41  46  46  40  35  31  27  27  28  30  31  34  34  34  36  37  43  48  57  67  80  99 103  83  62  50  41  38  35  34  41  48  56  70  88 117 149 155 154 155 154 154 154 155 152 153 156
 145 147 147 148 149 148 148 148 148 149 144 123  31  24  22  19  20  23  25  21  18  18  18  19  20  31  55  69  76  78  79  79  78  74  71  66  64  63  56  50  42  35  32  40  48  42  30  24  23  25  26  27  27  26  28  30  35  35  36  37  39  43  50  61  70  84 104 111  85  62  49  42  38  34  35  40  48  56  70  87 127 150 155 154 154 154 154 154 154 154 154 155
 145 148 148 148 148 148 149 149 149 150 146 133  39  24  20  19  20  23  24  23  19  18  18  19  23  32  62  75  79  80  80  80  76  73  69  69  66  60  53  45  39  34  41  43  30  23  36  21  21  26  40  34  28  27  28  29  33  34  36  39  42  48  55  62  75  90 110 118  86  56  41  28  26  25  30  36  48  61  61  89 137 152 155 155 153 155 155 154 154 155 154 154
 147 148 149 149 149 148 148 149 149 150 148 134  44  25  21  20  23  25  25  23  21  19  20  20  24  40  66  76  80  80  82  80  76  72  70  70  67  58  51  46  42  41  37  30  29  22  23  20  21  26  54  46  37  29  28  30  32  34  36  39  44  49  57  64  74  94 114 126  79  43  28  21  20  20  40  66  40  38  54  97 147 153 154 154 155 154 154 155 155 154 155 155
 148 148 148 148 148 149 149 150 149 151 150 141  52  27  27  22  23  24  25  26  22  19  21  22  26  46  71  77  80  82  84  82  80  76  74  71  66  56  51  47  43  37  33  46  43  26  24  22  23  28  54  51  41  32  29  31  37  39  39  43  47  53  57  64  78  99 116 128  82  34  22  21  21  23  45 105  77  44  45  83 142 154 155 155 154 155 154 156 156 156 156 156
 148 148 148 148 149 149 149 149 150 150 149 142  87  80  70  53  40  32  28  28  25  23  23  23  28  50  70  79  82  84  83  84  83  81  76  71  64  57  54  50  47  44  47  49  48  31  25  25  26  43  54  49  38  34  37  32  41  48  51  50  52  58  59  64  80 100 121 133 119  35  25  23  20  23  29  70  84  61  52 102 146 153 155 155 156 155 154 156 156 156 156 157
 148 148 148 148 149 148 149 148 150 151 148 126  84  79  74  64  53  49  37  31  28  24  23  23  30  51  71  80  82  84  84  86  85  83  80  73  65  61  58  57  57  58  53  51  52  53  39  33  39  48  48  46  41  39  39  42  48  59  63  60  59  61  61  64  76  96 119 130 134  71  28  26  24  25  39  74  92  83  79 112 146 153 155 156 156 154 154 155 155 155 156 156
 147 148 148 148 149 148 149 149 149 149 147  86  61  50  58  62  58  54  40  39  32  25  24  24  30  48  71  80  83  86  87  87  85  82  80  76  72  70  68  69  70  67  63  56  54  54  51  50  49  48  46  44  41  42  44  52  55  60  64  66  66  66  62  63  71  85 108 126 129 129  46  38  35  40  60  82  89  89  99 135 150 154 156 155 155 154 154 155 155 156 156 155
 147 147 148 148 148 149 149 149 150 151 144  62  38  33  43  49  58  53  41  41  38  27  28  28  31  51  72  80  83  86  87  87  87  85  82  82  79  78  78  80  78  75  72  67  60  54  51  50  47  45  44  43  44  45  48  50  54  61  64  67  69  69  66  66  69  75  87 105 121 131  94  55  54  59  65  81  92  99 111 141 153 154 155 155 156 155 154 155 155 156 156 155
 145 146 147 148 148 150 150 152 151 149 140  56  36  37  51  47  53  59  46  47  45  32  30  31  36  54  74  81  82  86  86  85  85  84  84  84  83  83  83  84  82  80  80  79  76  71  65  64  60  60  58  56  54  52  51  52  57  62  64  66  69  68  69  70  69  71  78  90 106 124 126  81  66  63  70  80  94 109 121 142 153 155 155 155 156 154 153 154 156 155 155 155
 147 146 147 148 148 148 150 150 151 151 143  60  37  46  60  59  57  64  53  49  49  36  32  34  39  59  74  79  82  83  85  87  86  85  86  85  82  83  85  85  84  84  84  83  82  83  80  78  75  72  68  63  59  55  54  56  59  65  70  71  69  71  77  76  73  74  80  88 101 116 129 106  94  94  99 105 113 121 127 139 152 154 156 154 154 153 154 154 155 155 154 154
 146 146 146 148 148 148 150 150 150 150 146  69  40  59  73  71  71  60  55  54  55  43  36  39  44  63  76  78  81  81  83  84  84  79  84  86  85  84  86  84  86  83  85  85  85  86  85  85  82  78  72  66  60  54  58  60  65  67  71  72  73  75  80  80  77  76  82  88  98 112 124 124 106 108 112 118 125 128 130 138 152 154 153 154 155 154 154 154 155 155 154 153
 145 146 146 147 146 149 149 148 150 149 147  88  47  69  78  69  55  34  52  59  68  59  42  43  52  66  75  78  81  82  82  81  83  82  87  87  88  86  88  86  86  86  86  86  88  90  88  86  85  79  75  70  63  61  64  69  72  73  74  75  76  79  81  82  80  79  84  88  95 108 123 130 118 114 116 123 130 132 134 137 150 154 152 153 154 154 154 153 155 155 152 153
 145 145 146 147 148 149 149 149 150 148 147 121  60  75  68  49  35  29  43  73  80  76  54  51  62  70  75  77  78  82  82  80  83  84  87  87  88  89  87  87  88  85  85  86  88  85  84  83  82  78  74  70  64  66  71  75  78  77  76  76  77  78  78  78  80  82  86  85  91 102 120 129 129 121 116 122 127 132 134 136 146 152 154 154 152 154 153 154 154 152 153 154
 145 146 146 146 146 148 147 148 149 150 148 142  75  75  57  40  31  35  55  92  87  83  66  58  63  73  74  75  78  81  81  83  83  83  85  86  88  88  86  85  87  85  84  83  81  78  77  76  77  71  70  68  68  70  72  75  75  75  73  73  73  76  79  81  84  86  88  89  94 100 115 128 130 126 121 116 119 125 129 132 142 152 152 151 151 152 152 152 153 153 152 153
 144 144 145 145 146 146 147 148 149 151 149 147  98  75  53  39  38  45  74  91  88  84  74  66  67  71  74  75  76  78  81  81  82  84  86  84  86  85  83  81  84  80  79  77  78  74  69  70  70  69  66  62  62  68  70  73  73  70  71  71  71  74  78  82  83  87  90  95  98 100 111 121 126 131 125 119 116 120 122 128 136 149 151 151 151 151 152 151 152 153 152 153
 144 144 145 144 144 146 147 148 149 149 148 149 125  80  58  46  50  56  70  89  85  84  77  69  67  70  71  72  75  76  77  81  81  82  83  83  80  75  78  76  77  77  78  74  72  71  70  68  65  62  61  63  65  65  66  68  69  68  68  68  69  71  74  79  82  87  93  97  98 105 111 117 122 129 130 120 113 116 117 122 129 145 150 151 152 151 151 152 152 151 150 152
 143 144 144 144 144 146 147 148 148 147 148 147 143  98  67  52  56  65  68  81  83  81  78  68  64  67  72  72  72  74  77  77  79  79  79  79  75  73  75  71  72  72  71  72  71  69  67  67  64  63  64  65  66  65  65  64  66  67  68  67  67  69  69  72  76  84  92  98  97 102 107 114 115 121 130 125 116 115 116 118 123 144 150 151 150 149 150 152 153 151 151 150
 142 143 142 144 145 145 145 147 148 147 148 147 146 121  83  63  62  67  67  70  80  79  76  70  64  65  71  72  71  73  72  77  77  74  73  72  72  69  69  68  68  67  67  68  68  67  64  66  65  64  65  64  66  65  64  61  64  65  66  66  66  65  69  72  78  83  90  96  96  97  99 106 109 112 127 132 123 116 114 115 121 140 150 150 149 151 151 151 150 151 151 150
 142 144 143 143 145 145 146 147 147 147 148 148 147 137  86  81  79  70  60  61  71  77  75  72  67  65  70  70  70  70  70  72  75  74  73  68  68  68  68  68  66  65  66  66  66  65  62  63  63  63  65  64  64  65  62  61  64  62  62  63  64  66  78  83  83  84  89  92  89  90  93  94  95 100 116 127 124 115 114 114 118 140 148 149 149 150 150 150 149 150 149 148
 142 141 140 142 142 144 144 146 145 146 146 148 146 142  98  74  80  84  67  55  58  71  71  74  68  66  67  70  70  69  70  70  71  68  68  67  65  65  66  66  65  62  64  62  62  64  63  63  63  64  61  54  60  63  62  60  62  62  62  59  60  72  84  88  85  86  87  85  82  83  84  80  77  82  94 108 114 110 110 112 117 141 148 149 148 150 150 150 149 150 148 149
 139 140 140 140 142 142 141 143 146 145 145 147 146 145 131  76  77  75  74  74  75  69  69  73  69  67  68  70  68  68  69  68  68  66  67  65  65  64  63  62  62  61  62  57  59  63  62  62  60  61  59  56  61  61  60  59  60  59  58  57  59  73  84  86  83  80  76  71  69  68  66  63  64  67  75  84  96 104 107 109 116 143 147 146 148 148 149 148 148 148 148 150
 139 139 140 140 140 141 141 144 144 145 146 146 147 146 143 106  81  67  61  61  61  55  62  70  71  65  69  70  69  66  64  68  67  65  64  64  61  59  60  59  58  60  60  59  58  58  60  61  59  61  59  61  62  61  60  60  58  57  54  52  59  71  84  83  76  68  59  53  50  49  48  49  50  53  60  71  91 100 101 103 119 142 145 146 147 147 147 147 148 148 148 148
 139 139 139 140 140 142 144 144 144 145 145 146 146 146 146 139  88  62  53  53  50  50  56  68  69  64  68  69  70  67  53  66  67  64  62  61  59  56  57  57  55  56  57  57  57  60  59  59  60  59  60  62  61  61  61  60  58  57  55  52  56  67  74  71  66  54  44  39  36  38  38  39  39  44  58  77  95 100  99 102 125 143 143 142 144 145 146 147 147 147 148 148
 138 138 139 139 140 140 143 142 142 143 144 146 145 146 145 144 132  70  59  56  57  58  60  66  71  68  67  70  72  70  66  65  65  64  62  61  58  58  55  57  56  54  54  56  58  58  57  59  60  60  60  62  61  62  61  61  59  58  56  51  51  61  62  55  48  36  28  26  27  31  34  36  36  43  55  84  97 101 100 105 130 142 143 143 143 144 144 146 147 146 147 147
 138 139 139 140 139 139 139 140 141 142 145 145 145 145 145 146 144 132  83  55  56  56  59  61  70  69  69  71  71  67  69  67  66  64  60  57  56  58  56  54  54  53  52  54  58  57  56  55  58  60  60  61  62  63  63  61  60  59  61  54  47  50  48  40  28  24  26  28  28  31  35  42  37  37  47  92 100 100 100 111 137 142 143 142 143 143 143 144 145 145 146 145
 136 138 139 139 139 140 141 141 141 141 144 144 144 144 144 144 145 144 140 117  78  53  55  58  68  69  71  73  73  68  70  68  66  62  59  54  54  54  55  55  53  54  55  55  56  54  55  56  58  60  60  62  64  63  63  60  61  64  64  59  45  42  40  32  26  28  29  31  32  34  40  55  34  42  82  98 101 101 100 121 138 142 142 142 142 142 142 142 143 143 142 143
 137 138 138 139 139 140 140 140 142 143 144 145 143 143 144 144 146 147 145 141 125  65  56  56  63  68  72  75  73  73  71  67  65  63  61  57  54  54  56  54  53  54  54  54  55  55  56  59  60  62  64  65  63  64  63  62  65  68  68  66  53  39  32  29  28  30  34  36  38  41  48  69  82 101 102 102 105 106 105 127 138 142 140 142 141 141 142 140 140 142 141 142
 137 137 138 138 140 140 141 141 141 142 141 144 143 141 143 143 146 147 145 143 139 120  55  56  56  68  73  73  73  73  68  67  66  65  61  58  56  55  58  56  55  54  54  55  57  57  58  60  61  64  66  66  64  66  66  65  67  70  69  68  60  50  42  37  35  40  41  40  40  45  52  75  92  99 108 108 110 109 112 133 138 139 140 140 140 140 140 140 141 141 140 140
 137 138 138 138 138 139 140 140 143 143 143 142 143 144 144 144 144 146 145 145 142 134  85  64  56  70  74  76  74  73  70  67  66  63  60  57  56  56  56  55  54  54  56  58  57  60  59  61  62  65  67  66  66  67  68  68  70  72  72  70  65  58  54  52  47  47  45  43  44  44  52  72  81  97 110 111 111 111 117 133 137 137 137 136 136 138 139 139 139 139 140 138
 136 137 137 138 138 139 139 141 140 141 142 143 142 143 143 143 144 145 146 145 144 140 120  78  65  68  73  76  74  73  72  68  66  65  62  58  54  53  56  56  56  57  60  60  58  60  63  64  65  69  70  67  67  68  69  70  74  74  74  72  66  61  61  62  57  51  50  46  45  42  48  69  79  88 101 111 114 113 120 132 135 135 136 136 136 136 135 136 137 139 139 138
 135 136 137 138 139 139 139 140 139 140 143 143 143 142 143 142 143 143 145 146 145 144 136  89  69  67  72  76  75  72  72  70  68  65  61  59  56  54  54  57  56  59  60  61  62  63  65  65  67  68  70  68  69  69  70  72  75  73  72  70  66  63  62  57  55  53  52  51  49  42  44  65  80  82  82  98 112 116 126 133 134 134 135 135 136 136 136 136 136 138 137 137
 135 137 136 137 138 138 140 139 139 140 140 141 142 141 141 143 144 143 142 144 145 144 139 102  73  67  71  75  76  72  70  69  66  64  61  57  58  56  58  59  59  60  61  61  63  64  65  67  67  66  68  70  70  72  72  72  71  69  68  65  61  56  56  55  49  54  59  63  59  45  45  68  84  86  88  88 103 115 127 134 133 133 134 134 135 135 135 135 135 136 136 136
 136 136 136 138 138 139 139 140 140 140 140 141 141 142 142 141 143 141 143 143 145 142 139 115  73  69  71  73  70  70  70  67  66  64  60  58  58  56  58  57  61  63  62  63  62  65  64  66  66  66  68  70  70  72  74  73  70  60  58  60  48  49  51  54  53  60  65  75  81  59  52  69  91  96  91  88  91 112 127 130 131 134 133 133 134 134 135 134 135 135 137 135
 135 136 137 137 136 138 140 139 140 141 142 142 143 141 142 140 142 142 143 143 142 144 140 126  78  70  68  72  71  70  68  66  65  62  61  60  59  58  58  58  61  63  63  63  63  65  67  67  68  67  70  70  69  69  70  65  66  56  51  52  50  51  55  59  60  63  63  67  81  85  73  73  80  93  96  87  87 101 127 130 130 132 132 132 133 134 134 133 132 134 133 134
 135 136 136 138 138 139 139 139 140 140 141 141 140 141 140 141 142 141 142 141 142 144 140 131  88  70  66  70  69  70  67  67  65  63  61  60  59  57  58  60  62  63  63  63  64  65  66  67  67  67  68  69  69  67  59  54  53  48  47  48  53  56  59  58  55  50  44  44  50  65  68  58  54  64  86  86  78  97 125 128 130 131 131 131 131 132 133 131 133 132 133 133
 135 135 136 137 137 139 139 139 138 140 140 141 140 139 139 140 140 142 141 141 142 142 141 134 100  72  64  67  69  68  67  68  65  62  62  58  57  56  58  60  61  63  63  65  64  65  67  68  68  67  68  69  69  63  51  51  50  45  45  49  53  53  49  41  36  37  35  32  30  37  43  42  44  47  60  71  71  97 124 128 128 129 131 130 132 130 130 130 132 131 131 134
 134 136 137 137 137 137 138 138 139 139 140 140 141 140 140 140 141 140 141 142 142 141 140 136 110  72  65  63  68  67  66  64  63  62  60  59  58  59  58  61  60  63  65  66  65  67  68  66  67  66  67  66  68  59  49  50  45  41  38  41  41  36  31  28  28  30  30  29  27  30  32  36  40  36  41  44  60  94 123 128 129 130 130 130 129 131 130 132 130 132 133 132
 134 135 136 137 137 138 138 138 139 140 139 140 140 140 140 139 140 140 140 141 141 139 139 138 119  75  66  62  67  65  64  61  63  60  58  58  58  55  57  59  58  61  64  65  67  67  66  66  67  68  67  67  66  59  49  45  35  31  28  28  26  24  22  22  23  26  25  27  26  27  33  46  62  54  43  42  56  94 122 128 129 129 127 128 130 130 129 131 131 131 131 131
 134 135 136 137 137 139 139 139 140 139 140 141 140 140 140 141 141 141 139 140 140 140 140 138 128  82  66  59  65  66  62  60  60  60  59  59  58  57  58  54  50  61  65  65  65  66  67  69  68  68  66  65  62  58  49  40  27  23  25  24  25  30  35  38  41  40  44  45  46  45  53  67  85  94  82  71  68  94 124 127 128 126 127 128 128 128 128 129 129 128 129 131
 136 135 135 136 137 137 138 138 139 139 139 139 140 139 141 139 140 140 138 139 139 138 138 138 130  87  69  62  63  65  62  62  60  59  60  59  56  55  58  57  52  61  63  65  67  66  69  68  67  66  64  61  60  52  47  42  41  41  39  41  42  47  47  51  57  61  65  70  76  64  63  75  92  96  92  89  77  97 123 126 128 127 126 127 127 128 130 130 130 129 129 130
 135 136 137 138 136 138 139 140 139 140 139 140 140 140 140 140 139 139 139 139 139 139 136 135 129  93  72  64  62  62  61  61  61  61  59  58  58  59  60  61  61  62  64  66  68  67  69  68  67  67  66  60  57  50  47  48  49  50  46  44  44  46  46  50  56  63  69  76  86  74  70  73  82  87  90  89  84 104 124 124 126 126 127 126 127 127 127 128 128 129 128 128
 134 136 137 138 136 139 138 139 138 139 140 139 139 139 140 139 138 138 137 136 135 136 136 134 129 101  72  66  63  61  59  58  57  60  60  59  62  61  61  61  63  61  63  64  66  65  66  67  66  66  64  58  54  51  50  50  53  53  49  48  46  46  46  44  45  47  53  61  66  71  66  63  68  72  84  83  87 109 123 124 126 126 124 125 125 127 128 126 126 124 124 126
 135 134 136 136 136 136 138 138 136 138 138 139 139 139 140 139 136 137 136 135 135 135 135 134 128 106  74  68  64  59  57  55  55  57  57  60  62  62  62  62  64  62  63  63  65  64  66  67  64  62  58  54  52  50  49  52  52  52  50  48  44  43  43  42  40  39  39  46  48  56  54  52  54  62  78  81  87 110 122 124 124 124 125 124 124 125 125 125 125 123 122 124
 134 134 134 135 136 137 138 137 137 136 136 138 138 138 137 137 136 137 136 135 134 134 131 131 129 108  74  68  65  60  58  54  54  53  52  57  59  60  61  62  62  62  63  65  65  65  64  62  61  60  56  54  51  50  50  48  49  49  49  47  43  40  37  37  38  36  34  34  36  42  39  40  45  60  73  79  88 115 122 122 122 123 124 123 123 123 124 124 123 124 121 125
 133 135 134 136 134 136 137 137 136 135 136 136 137 136 136 136 134 134 135 134 134 133 133 130 129 114  77  69  67  61  58  55  51  51  52  54  56  57  60  61  62  61  61  64  64  65  62  60  58  57  55  52  50  50  48  46  48  47  47  45  43  38  35  30  29  29  27  27  25  28  29  37  48  64  74  78  93 116 122 123 123 122 122 121 122 122 123 122 122 122 124 123
 135 135 134 135 136 135 135 136 136 136 135 137 136 136 136 134 134 134 133 134 132 132 131 129 127 117  78  71  66  63  58  55  52  49  50  51  54  55  56  59  62  60  60  60  63  63  61  59  57  55  53  52  50  49  46  46  46  45  46  44  41  37  34  31  29  27  26  26  25  32  42  51  59  67  72  77 100 119 122 121 122 121 120 121 121 122 120 120 121 122 122 122
 133 134 135 135 135 135 134 135 135 135 135 136 134 134 135 134 135 132 133 131 131 129 129 127 124 120  82  71  64  63  58  55  54  51  45  47  50  52  54  56  58  57  56  59  61  61  59  57  56  52  51  52  49  47  43  44  45  44  44  42  41  37  37  34  33  31  31  32  34  44  54  59  67  70  72  80 107 120 120 119 120 119 119 121 122 121 120 120 122 122 123 122
 132 133 133 132 132 134 134 134 134 134 134 135 134 133 133 132 131 132 130 131 127 126 126 126 124 118  87  69  64  62  58  56  56  54  48  44  45  49  51  53  53  53  55  57  59  59  59  56  55  54  53  50  50  48  45  45  44  42  43  44  43  42  44  43  42  39  38  43  46  53  62  66  70  75  79  86 108  85  77  77  92 108 117 116 118 117 118 118 120 119 119 119
 130 130 132 131 132 134 134 134 133 134 132 133 132 132 131 129 129 129 128 129 128 127 126 126 122 117  88  71  65  63  59  57  55  54  50  45  43  43  46  49  50  50  53  55  56  55  55  55  54  53  53  53  50  50  48  46  46  48  48  49  48  48  49  48  47  47  47  50  52  57  63  69  74  78  86  95 128  79  39  37  45  54  77 104 113 114 117 118 118 119 120 119
 129 129 130 130 131 132 133 132 133 134 132 132 130 130 129 128 128 128 127 127 126 125 122 116  98  76  74  69  65  62  58  59  55  54  52  49  45  42  40  42  45  46  49  51  52  53  55  55  54  54  54  55  53  52  52  51  52  52  51  52  52  51  53  52  51  52  49  50  52  58  64  72  77  83  89  94 112 135  69  26  27  30  39  64  94 110 118 120 119 120 121 121
 128 131 130 130 131 130 129 130 130 130 130 130 129 128 129 127 125 125 126 126 123 116 100  81  59  41  57  67  65  64  61  56  55  55  54  53  48  45  41  37  38  40  45  47  48  49  52  53  54  54  55  56  55  55  55  55  55  57  57  55  57  58  60  57  54  54  51  49  52  57  63  72  78  87  91  88  93 120 136  72  22  20  24  34  63  86 106 116 118 119 120 119
 129 129 129 129 127 128 128 130 128 128 128 127 128 128 127 126 126 124 122 118 105  84  73  59  44  29  49  66  66  64  59  55  55  55  54  53  50  46  43  39  35  34  38  39  43  48  48  50  52  54  56  57  58  58  60  59  60  60  60  60  62  58  58  60  57  60  60  56  57  58  65  73  80  86  93  78  76 106 133 140  81  42  19  20  38  69  84  96 112 114 115 115
 128 128 128 127 127 126 128 127 126 128 127 126 127 126 126 126 124 120 112  97  83  77  67  54  38  26  36  65  66  63  58  57  57  54  50  52  50  48  43  41  35  34  33  33  38  42  44  46  45  49  52  55  56  58  60  59  60  62  60  61  62  60  59  61  62  63  63  64  61  62  65  75  80  84  90  62  62  94 122 137 110  89  73  26  27  59  77  83  92 109 113 113
 127 127 127 126 127 125 125 125 126 125 125 126 124 125 124 123 118 107  95  86  79  73  62  41  26  21  23  65  64  62  58  58  56  55  50  51  51  47  46  40  35  35  31  30  32  35  38  42  42  44  50  53  54  56  59  59  62  62  61  60  57  58  58  60  63  63  64  64  63  62  65  71  76  80  87  34  46  78 113 128 117  86  87  74  28  49  67  77  80  89 110 115
 127 126 127 126 126 125 125 124 125 125 125 122 123 122 122 117 107  97  89  84  80  71  48  26  19  14  16  63  63  62  59  56  55  55  53  50  49  48  48  44  40  33  30  30  29  29  32  35  36  42  44  49  50  53  54  55  57  59  55  54  55  56  54  58  60  58  54  57  59  57  62  66  72  74  70  20  34  67 102 124 125  98  95  89  47  45  65  75  76  76  82  97
 126 125 126 124 125 124 124 124 124 123 122 120 121 120 117 107 100  94  88  86  76  52  28  17  16  12  10  61  63  63  60  58  57  55  53  52  48  50  48  47  46  40  35  33  29  28  27  30  31  34  36  43  46  48  51  50  52  53  50  49  51  51  50  50  51  51  50  52  53  53  56  61  67  69  51  16  24  53  86 118 128 105  94  93  68  46  61  71  74  74  74  73
 124 123 124 122 124 119 121 121 120 120 120 120 119 114 108 105  95  90  88  83  58  30  16  15  13  10  13  54  62  63  61  57  59  54  53  50  49  50  50  50  48  46  41  39  34  30  27  24  26  28  31  34  37  42  44  46  47  48  46  47  45  45  45  44  45  45  44  44  46  46  49  53  55  58  32  12  14  41  71 105 128 112  93  92  73  44  59  70  72  72  75  70
 121 122 121 121 120 120 120 119 118 118 117 116 110 105 101  95  88  90  82  65  37  17  11  14  11  10  12  51  62  60  60  58  57  57  54  52  50  50  49  50  49  47  46  43  40  35  32  28  25  23  24  26  28  32  36  38  41  42  41  41  39  39  40  37  36  37  39  37  37  39  41  46  48  43  21  10  10  31  63  96 123 116  91  85  70  42  58  68  70  71  70  68
 121 121 120 120 120 120 118 116 115 114 113 110 105 100  99  93  93  87  71  46  20  12  11  12  10  10  12  48  60  61  60  60  58  57  54  53  51  50  49  51  51  51  47  48  43  40  37  30  28  27  25  22  22  24  28  31  33  34  33  33  33  33  33  31  31  31  30  30  31  33  34  37  34  24  19  12  10  23  56  86 114 120  96  83  63  41  54  67  70  69  68  69
 121 118 118 118 118 111  93  69  58  69 105 103 102  99  95  95  93  80  60  27  11  11  13  11  10   9  10  46  58  60  59  60  58  56  53  51  50  48  48  50  49  48  45  47  44  42  38  36  32  30  28  25  24  24  23  25  28  29  30  30  29  29  29  27  27  27  26  25  26  28  26  23  19  20  18  14   7  16  46  79 112 119  93  79  59  37  52  62  66  65  67  67
 118 117 114 106  82  57  45  32  62 101 102 101  99  96  97  91  86  72  46  15  10  10  12  11   9   8  10  47  57  60  59  57  56  54  54  52  51  50  47  47  47  48  46  44  43  42  39  37  34  33  31  28  25  26  27  30  35  35  41  44  45  44  43  45  44  45  55  61  65  33  14  11  13  18  19  15   7  13  41  67 104 120  97  71  52  33  51  61  64  64  66  65
 114 109  87  60  46  30  49  96 109 101  99  96  97  96  94  88  77  60  27  10   8  11  12  10   8   8  10  46  54  56  55  55  55  53  52  51  52  51  50  49  47  48  46  44  41  41  41  39  36  34  34  32  30  31  33  37  40  45  52  58  61  59  55  57  56  66  70  76  75  26  11  11  11  15  18  17   9  10  37  65  97 110  91  65  43  33  47  58  63  62  63  62
  98  69  52  38  24  42 103 103 105  98  95  90  96  94  90  86  68  46  15   8   9  13  12  10   8   8   8  45  51  52  53  54  55  54  53  53  52  50  50  51  50  46  47  47  43  40  38  37  36  36  36  34  33  36  38  39  43  47  54  64  62  59  58  58  62  68  72  76  74  19  11   9   9  13  15  16   9   8  30  64  91  99  84  54  34  33  48  58  61  58  61  59
  62  53  37  23  27  84  94 100  99  98  93  93  94  93  87  79  57  28  10   8  11  12  11  10   8   8  10  46  51  50  49  52  54  55  55  55  52  50  49  50  49  47  48  44  43  40  39  38  38  36  37  37  37  39  41  44  47  52  58  62  59  59  60  60  63  68  72  74  64  18   8   8  10  12  16  15   7   8  25  57  87  97  76  46  30  32  48  59  62  59  59  53
