P2
# Generated by OpenCV 3.4.0
92 112
255
 131 132 133 132 133 134 134 134 134 135 135 135 135 137 138 136 136 136 137 138 138 137 138 139 139 138 138 139 138 139 140 140 138 139 139 137 136 135 138 139 139 142 141 142 140 139 141 143 143 143 144 144 144 144 144 144 144 146 145 144 144 145 144 144 144 144 144 146 145 145 146 145 147 146 147 146 144 144 145 145 144 145 147 146 145 145 146 146 146 145 145 144
 133 134 135 134 133 135 135 135 135 136 136 135 136 136 135 137 137 138 137 137 139 139 138 138 138 141 140 140 139 140 139 138 135 137 127 124 125 124 126 127 130 129 126 126 129 132 135 139 139 140 142 143 144 144 145 146 147 146 145 146 145 146 145 145 145 146 146 148 145 147 147 147 148 147 147 148 146 147 147 147 145 147 147 147 147 147 146 147 146 145 146 147
 132 133 135 134 135 135 136 136 135 136 136 137 136 137 138 137 138 138 139 140 140 138 140 140 139 140 140 141 142 141 137 136 133 106 106 106  98  95  99  99  98 100 108 114 113 121 121 112 109 111 110 124 138 144 145 146 146 146 147 148 147 148 147 147 147 146 147 147 146 147 148 148 148 148 148 146 146 148 148 147 146 147 146 146 147 147 147 146 147 147 145 146
 134 134 133 135 134 136 136 136 137 137 137 136 137 137 137 138 138 139 140 140 141 140 141 140 142 141 141 142 141 140 135 130 105 104  96  85  76  69  78  87  74  77  80  78  85  93  94  98 103 110 113 111 114 132 143 145 147 147 148 148 147 148 147 148 147 147 148 148 149 148 148 149 148 147 148 148 147 147 147 147 147 147 148 148 148 148 147 147 146 146 147 146
 135 135 136 136 134 136 136 137 137 137 137 137 140 139 138 139 141 140 140 141 141 142 142 142 142 143 143 142 140 136 124 108 107  87  65  59  66  66  62  58  61  60  59  63  66  65  72  82  88  95  99  99 107 123 138 144 145 148 148 148 147 147 148 148 147 148 148 148 148 148 148 148 148 149 148 148 148 147 148 147 148 148 147 148 148 147 148 147 146 148 147 146
 135 134 137 136 136 136 136 137 138 139 139 139 140 139 140 139 141 140 140 140 142 141 141 142 142 142 141 141 138 129 108 102  92  60  47  50  53  59  50  45  42  42  41  41  42  45  50  57  59  60  62  63  59  76 113 137 141 144 146 146 147 149 148 148 149 149 148 149 148 149 149 149 148 148 150 149 149 148 148 148 147 148 148 147 149 149 148 147 147 147 146 147
 136 136 137 136 136 135 137 138 138 140 140 138 139 141 140 141 143 141 141 142 142 143 142 142 142 139 141 139 136 110 102 102  50  44  42  47  51  44  41  35  37  38  38  36  36  37  39  42  47  50  47  47  47  47  75 109 104 103 103 116 139 146 148 149 149 149 150 150 149 148 148 148 149 149 149 150 148 149 150 149 149 150 149 149 149 149 149 147 147 147 148 148
 136 138 138 137 137 136 137 138 138 140 140 140 140 141 141 142 142 142 143 143 142 143 144 143 142 142 141 138 125 110 100  78  45  45  39  46  42  38  32  31  32  31  30  29  29  29  32  34  36  37  36  38  43  46  50  57  72  97  93  82 115 134 140 146 149 149 150 150 150 149 148 149 150 149 150 150 150 150 151 151 151 149 150 150 150 150 148 149 148 148 148 148
 138 137 138 137 138 137 139 139 140 140 141 143 142 142 142 142 141 142 142 143 143 143 144 143 143 141 140 136 121 101  95  49  50  32  42  41  32  29  28  26  26  26  26  25  25  27  27  28  27  29  30  34  38  39  40  41  49  54  52  54  59  73  94 139 148 149 150 151 152 151 151 151 150 149 149 151 150 150 151 150 151 150 149 150 151 149 149 149 149 149 148 148
 137 137 139 137 138 138 139 138 140 140 140 142 142 143 143 142 143 143 142 143 144 144 143 144 144 141 138 131 118  92  52  38  31  32  36  31  28  25  23  23  20  22  22  23  23  23  22  23  25  26  28  30  30  32  33  37  37  38  44  46  50  48  60 125 144 146 147 152 151 150 151 150 150 151 152 152 151 150 152 151 151 150 150 150 150 149 151 150 149 149 149 149
 137 138 141 139 138 138 141 140 140 141 142 143 142 142 143 144 143 143 144 144 145 144 145 144 145 142 135 125 109  66  31  29  27  33  33  27  25  22  19  18  17  19  20  18  19  20  20  20  22  24  24  25  29  32  35  36  36  36  35  36  40  41  45  66 119 126 139 149 151 152 152 152 152 152 153 154 152 153 152 151 153 152 152 153 150 151 151 150 150 152 151 150
 137 138 139 140 140 141 141 141 140 141 141 143 142 142 143 143 143 143 145 144 144 144 146 146 144 143 134 116  90  38  31  25  29  33  28  25  22  18  17  16  17  17  16  16  16  17  18  17  19  20  23  26  28  31  34  35  35  33  31  32  36  38  37  44  55  74  91 137 149 152 151 151 152 152 152 153 152 153 154 153 152 152 152 152 152 151 152 150 151 149 152 151
 139 140 140 139 140 140 140 142 142 142 142 143 142 143 142 142 142 143 144 144 143 145 145 145 144 141 130 111  51  30  26  25  30  27  23  20  18  17  17  17  17  17  15  15  15  16  15  15  18  19  21  26  30  34  37  36  37  34  32  31  35  35  35  37  44  47  51  70 144 152 152 152 152 153 153 153 154 153 153 153 152 154 152 152 152 152 152 152 151 150 151 151
 141 141 140 141 141 141 141 141 142 142 143 142 143 143 143 143 143 143 143 145 145 145 144 144 144 142 130  88  35  28  25  24  30  26  21  19  17  17  18  18  17  17  16  15  15  15  15  15  16  17  17  20  24  30  34  36  36  36  33  29  30  30  32  35  42  41  39  53 122 148 153 151 152 152 152 153 152 152 153 154 153 152 153 153 153 152 151 152 152 152 152 151
 139 142 141 141 143 142 142 142 142 142 143 143 144 143 143 141 143 144 144 144 146 146 144 144 143 138 118  45  29  25  24  23  25  21  20  19  19  19  17  18  18  18  17  17  16  16  16  16  16  17  16  17  20  22  25  26  29  28  29  30  31  31  34  37  39  39  38  47  69 133 149 151 152 154 153 154 152 153 153 154 153 152 153 153 154 153 153 152 152 152 151 152
 141 142 142 142 141 143 142 142 142 141 143 143 144 142 140 143 144 144 144 144 145 145 142 144 143 133  78  33  26  22  22  19  20  18  19  19  20  19  20  22  23  22  21  20  20  20  20  17  18  18  18  17  17  19  18  18  20  22  22  23  25  27  30  32  33  37  39  41  52  95 138 148 151 153 154 154 153 153 153 154 154 152 154 153 153 154 153 152 152 153 152 152
 141 142 141 141 140 142 142 142 143 143 143 144 141 142 143 145 145 144 144 144 144 145 144 144 143 123  42  28  23  22  20  18  19  19  20  21  22  22  25  29  31  35  37  36  37  39  33  30  28  25  24  25  21  21  20  18  19  18  18  18  20  21  24  27  27  32  38  39  45  50  73 132 150 152 153 153 154 153 154 154 153 151 152 154 154 154 154 153 151 152 152 154
 141 141 143 143 143 144 142 143 144 144 144 143 144 144 145 145 145 146 145 145 145 146 146 144 139  76  34  21  21  21  21  19  20  21  22  27  35  40  50  57  66  71  74  75  75  72  66  63  58  54  49  44  38  33  30  27  25  23  21  19  18  19  22  22  24  28  34  37  40  46  47  72 146 151 154 154 153 153 153 155 154 154 153 154 154 154 151 153 153 154 153 153
 140 141 142 143 142 142 142 142 142 144 142 144 143 143 146 144 147 146 145 145 145 145 144 140 116  40  26  20  22  22  18  19  22  25  36  52  65  76  84  90  95 100 105 105 102 105 102 100  97  90  85  78  72  67  63  58  55  48  43  37  30  26  21  20  19  20  28  36  38  40  42  52 112 147 150 154 154 153 152 154 154 152 153 153 153 152 151 152 154 153 154 152
 141 141 140 142 143 143 143 143 142 144 144 144 145 144 144 145 146 145 145 146 145 144 143 138  51  27  22  21  21  20  20  23  32  50  67  79  88  95 100 103 106 111 115 115 118 120 119 117 115 110 106 105 103  98  91  87  84  80  78  77  71  59  41  29  21  20  22  28  36  35  36  45  80 136 147 150 153 153 153 153 152 153 153 154 153 152 153 153 152 153 153 152
 141 142 143 142 142 143 143 144 143 143 143 144 144 145 145 146 144 145 145 145 145 143 142 107  38  24  20  21  22  20  22  36  63  79  87  95  99 103 106 109 112 117 119 121 124 125 124 124 123 119 115 115 114 116 111 110 106 103 102 100  96  95  88  68  48  30  22  24  29  31  35  37  50 115 143 148 151 152 154 152 152 153 154 154 154 153 153 152 152 152 152 151
 142 141 142 144 143 143 143 143 143 144 143 144 145 147 145 146 145 146 146 145 145 145 138  77  31  24  23  20  21  21  38  70  86  94  98 101 103 104 107 111 112 116 119 120 120 119 119 118 119 118 115 113 113 113 117 119 121 120 119 118 114 114 110 105  97  64  33  26  26  28  32  35  42  63 130 149 151 152 151 153 152 152 149 153 153 153 151 152 153 153 154 153
 141 142 142 142 142 142 143 142 143 144 144 143 144 145 146 146 146 146 146 146 145 145 124  40  27  23  22  20  20  29  67  90  97  99 101 104 103 104 107 108 109 111 114 115 115 112 112 113 115 114 113 111 110 109 111 113 116 117 118 121 122 122 120 121 119 117  92  42  27  30  34  35  37  47  74 141 149 151 151 152 151 151 151 152 153 154 154 153 154 153 152 152
 142 142 142 142 143 143 145 144 144 144 145 145 145 145 145 145 146 145 146 145 145 138  84  33  29  23  20  19  26  53  94  97 101 104 104 105 104 104 104 104 106 106 109 110 109 109 110 112 111 110 110 112 112 111 111 109 111 109 112 115 118 122 124 126 128 130 127 110  52  33  32  34  36  40  54  94 146 151 151 152 152 152 153 153 153 155 152 153 153 154 152 153
 142 142 142 144 144 143 142 143 142 144 144 144 144 146 145 144 146 147 146 145 144  99  41  30  23  20  19  23  42  82  98 103 106 106 105 104 102 103 104 103 103 103 104 104 102 105 106 107 111 111 108 108 111 113 112 109 111 111 111 112 114 119 125 127 127 130 132 131 120  55  34  30  33  36  44  55 128 148 150 151 151 152 152 152 153 152 152 151 152 152 150 153
 140 141 142 143 142 143 143 143 143 144 144 144 144 145 145 146 146 146 144 144 129  43  33  24  20  19  20  34  69  92 103 106 108 106 102 102 103 103 101 103 101 102 102 102 104 105 105 106 108 110 108 109 109 111 110 112 110 113 114 112 113 116 119 123 125 130 133 135 134 119  41  29  28  32  37  47  90 142 152 151 152 152 152 152 152 152 152 151 151 151 151 152
 142 142 143 143 143 143 143 143 143 144 144 143 144 144 146 145 145 146 145 138  66  35  28  22  19  21  28  54  86  99 104 107 107 105 104 104 102 102 101 101 101 102 104 104 104 107 107 110 112 112 113 114 115 116 114 114 111 113 112 113 114 115 116 119 123 127 130 134 137 138 100  34  29  28  34  44  56 124 144 151 151 153 153 154 152 152 152 152 152 151 150 152
 141 142 143 142 143 143 144 143 144 144 143 144 145 145 146 146 146 145 142 106  43  35  31  26  25  27  42  73  96 102 102 102 104 105 102 103 102 101 104 107 108 110 113 114 113 115 117 119 119 119 118 118 117 118 122 121 118 117 116 116 117 118 117 120 123 127 128 131 135 138 137  64  34  32  31  38  47  87 142 149 153 151 152 152 152 152 152 151 152 152 151 150
 141 140 142 142 143 143 143 143 144 144 144 144 144 145 145 145 145 143 114  47  38  32  28  24  26  36  58  83  95  99  98 101 101  92  98 104 106 105 107 111 114 118 123 124 125 124 128 128 128 127 125 126 126 125 126 127 127 126 124 126 125 124 122 122 124 128 129 129 131 137 137 116  52  36  39  38  43  57 126 146 151 151 152 152 152 151 152 151 152 152 151 151
 141 140 143 143 143 143 143 144 144 143 144 144 145 145 144 144 140 125  47  38  30  26  24  25  28  44  66  86  94  96  96  99  99  95 102 106 109 112 117 121 120 126 129 130 131 132 133 134 135 132 129 126 127 131 132 133 134 136 132 131 132 131 129 129 128 131 129 130 132 137 136 135  85  44  41  44  42  55 101 147 150 152 152 153 152 152 154 153 151 151 152 151
 141 142 142 144 143 143 144 143 142 144 144 145 145 144 144 144 138  67  36  33  29  26  24  27  32  50  73  85  89  92  96  96  98  98 102 108 106 112 119 120 122 127 130 131 132 133 136 138 138 135 133 131 131 131 132 131 133 130 103 112 134 134 135 134 135 135 134 132 132 135 136 135 118  62  38  44  47  56  79 142 150 152 153 152 153 152 154 151 151 151 149 151
 143 143 143 142 143 144 145 144 143 144 144 144 144 144 145 144 119  36  33  29  25  25  26  29  39  55  75  87  90  91  94  96  98  99 102 105 107 110 114 116 118 120 124 126 129 128 130 133 132 134 134 133 131 131 129 127 128 125 114 118 130 132 134 137 138 136 136 135 135 135 138 136 132  82  45  43  46  54  80 138 149 150 151 152 153 152 152 152 150 150 150 150
 143 144 144 144 142 144 144 144 144 144 144 144 144 145 144 142  90  36  31  30  27  28  30  31  45  63  79  89  90  95  97  97 100 100 103 106 111 111 112 107 107 106 107 111 115 117 119 120 121 124 126 124 122 120 120 118 120 118 117 118 122 125 126 131 133 137 136 136 138 136 136 135 133 104  50  42  44  51  78 132 150 150 151 151 152 152 151 152 152 150 150 151
 143 143 144 143 143 144 144 145 145 144 145 145 144 145 146 143  74  38  33  31  28  27  28  34  53  73  86  92  94  97  98 101 102  99  94  97 100  97  96  95  91  91  94  95  96  99 101 103 104 108 112 110 110 109 106 106 106 106 104 106 111 114 118 123 127 130 132 136 140 138 134 135 133 122  61  44  40  49  74 130 148 150 153 153 152 152 151 151 150 149 149 151
 143 143 143 143 144 144 144 145 144 145 145 145 145 145 145 143  70  40  34  29  24  24  27  39  64  82  88  92  95  97  98 102  97  86  79  82  82  76  72  73  72  70  68  74  78  82  86  90  90  92  96  98  98 100  97  94  91  92  90  92  98 102 106 110 117 118 123 128 132 133 132 131 132 127  84  51  42  46  67 132 150 152 152 152 153 152 151 151 151 150 150 151
 143 143 143 144 144 144 144 145 145 145 145 145 146 145 145 139  53  38  33  28  24  24  30  50  75  86  89  90  94  95  94  94  83  71  67  64  62  57  53  49  43  40  43  47  54  61  67  73  77  81  83  88  88  89  91  86  80  77  78  80  83  83  85  83  87  88  93 104 113 114 113 121 128 129 104  52  47  43  64 130 148 152 152 152 150 152 151 150 151 151 151 152
 143 144 144 144 144 145 144 144 146 146 146 145 145 144 144 126  52  36  30  26  23  22  33  64  82  86  89  90  87  89  93  87  76  70  59  50  42  39  38  36  35  34  33  35  39  43  51  61  64  72  77  81  83  88  84  80  72  69  68  66  63  58  52  49  45  49  58  69  81 100 110 112 114 124 120  54  45  43  52 123 146 151 153 153 153 153 152 151 150 152 151 152
 143 144 144 145 145 144 145 144 146 146 145 145 146 145 145 120  55  35  30  24  22  23  42  73  84  87  89  83  74  82  86  75  62  51  42  33  31  31  28  27  27  27  28  31  35  39  40  52  57  66  72  78  82  86  85  77  68  65  58  52  47  40  35  33  33  35  42  47  57  83 104 109 109 113 122  68  43  41  46 104 148 151 151 153 153 152 152 151 151 150 152 151
 144 144 144 144 145 144 145 145 146 146 145 146 146 145 143 106  48  34  26  24  22  25  55  78  86  88  87  78  69  73  68  57  51  49  43  37  35  33  32  31  30  29  29  32  34  40  40  44  52  62  70  78  86  90  88  78  68  60  50  42  37  35  30  30  30  30  32  39  48  60  79  93 104 106 109  82  41  38  45  97 142 151 152 154 153 152 153 151 152 151 151 151
 143 144 144 145 144 145 146 145 145 145 145 147 148 145 143  90  43  33  24  23  24  31  63  79  87  88  82  71  73  69  60  54  51  46  42  37  34  34  34  33  34  36  35  37  38  40  42  45  51  58  68  81  89  98  97  85  68  54  45  40  35  34  32  30  30  32  36  39  44  53  65  82 102 110 104  96  42  37  45  88 141 149 152 153 155 154 152 152 153 152 151 152
 144 145 145 145 146 145 147 146 146 143 146 147 147 147 140  75  39  30  24  20  23  36  68  80  85  87  84  76  70  62  56  51  45  37  32  35  31  31  29  28  28  31  36  40  42  42  43  46  50  58  70  84  96 107 108  96  75  57  47  42  39  38  37  35  34  35  35  36  38  46  56  67  87 108 106 101  50  35  42  71 140 149 152 154 154 154 153 154 153 151 151 153
 144 145 145 145 146 146 148 146 147 146 147 147 146 145 134  65  38  31  25  20  23  43  73  82  84  86  82  74  66  60  52  43  34  37  37  31  27  27  27  28  30  28  30  37  42  43  46  47  53  59  72  91 106 120 122 106  81  62  48  44  41  38  35  30  28  27  26  27  30  38  43  55  75  97 106 102  55  37  41  68 139 152 154 154 154 154 155 155 154 152 154 153
 145 145 145 147 147 147 147 148 148 149 148 148 147 147 143  56  37  30  27  21  23  46  75  82  85  85  76  71  66  54  45  34  46  39  29  23  22  26  23  30  34  33  32  35  40  44  46  49  53  60  75  97 114 128 127 114  88  65  50  44  38  31  26  25  23  23  22  24  30  40  52  44  60  82  99 102  63  37  40  67 140 152 155 154 154 154 154 155 154 152 154 154
 147 145 145 146 148 147 147 149 149 149 148 149 148 149 144  53  33  30  29  24  23  45  78  84  85  82  74  70  63  52  40  38  40  32  33  32  43  42  27  33  49  39  35  36  39  43  46  49  53  60  77 102 120 136 133 120  88  64  47  39  30  27  30  26  22  42  26  38  47  37  35  46  50  74  96 110  71  38  38  79 144 152 154 155 155 155 155 152 154 154 154 154
 146 146 147 148 148 149 148 148 149 150 148 148 149 148 141  49  31  27  30  24  24  48  79  85  84  80  77  69  60  50  41  37  32  46  36  30  27  25  29  39  67  52  40  38  46  46  48  49  53  60  80 103 123 140 138 127  94  65  46  37  31  30  43  32  32  34  26  29  99  71  40  45  45  69  97 112  82  40  40  90 149 153 154 155 154 155 154 154 155 154 155 154
 146 146 147 148 148 149 149 149 149 150 150 149 150 149 137  69  32  25  27  25  25  52  82  87  86  80  80  70  60  52  45  36  43  62  58  34  33  33  34  59  71  60  48  37  45  62  59  58  58  64  79 104 125 137 135 131 106  76  58  44  32  41  56  47  34  29  27  32  65 112  58  40  49  69  97 111  90  43  42 107 151 155 155 155 155 154 155 155 156 154 155 154
 148 146 147 148 148 148 150 149 149 151 151 150 151 149 143  96  30  25  26  25  27  56  84  89  86  82  78  68  61  55  49  49  54  65  72  56  41  40  54  70  68  60  52  51  51  64  73  66  62  70  79  93 111 128 134 133 118  92  78  48  38  50  62  63  45  34  31  38  72  94  81  53  56  76  97 112  94  50  46 115 152 155 156 156 155 154 155 156 155 154 154 155
 146 148 148 147 149 149 150 150 150 150 151 151 151 151 147 103  37  26  26  26  28  60  86  90  88  85  77  69  63  61  61  63  60  61  65  66  63  62  64  63  63  60  60  66  69  73  71  67  70  80  80  87 101 119 129 131 121 100  87  71  59  55  61  66  62  57  53  65  80 102  85  85  77  88 101 112  98  49  47 122 152 155 156 156 155 155 156 156 155 155 156 154
 147 148 148 148 149 149 148 150 149 150 151 151 151 150 149 112  35  29  27  26  30  66  89  92  91  88  80  72  69  70  77  76  71  68  67  65  62  59  54  55  55  58  63  70  72  71  66  69  79  88  82  90 101 116 127 129 124 108  95  78  70  64  63  62  61  62  63  68  80  95 107 106 107 102 106 117 109  51  56 138 153 156 156 156 156 156 155 154 154 154 156 156
 147 148 147 148 148 150 149 150 150 150 151 151 152 152 150 130  41  33  29  28  32  71  92  96  94  90  83  79  79  84  84  83  83  76  70  65  66  67  68  68  70  71  72  70  69  67  70  80  90  94  86  90 102 112 130 132 126 115 105  89  75  69  68  67  65  65  66  70  80  96 111 120 123 116 114 122 122  58  66 148 154 156 156 156 156 155 155 155 156 155 156 155
 147 148 148 149 150 150 150 150 150 150 151 152 151 151 150 144  63  38  30  30  33  73  92  96  95  92  90  89  87  88  88  88  88  86  84  81  80  82  80  78  75  72  71  69  67  72  80  89  97  97  87  91  99 110 127 138 130 119 116 104  89  78  74  75  79  82  84  90  95 108 120 128 130 125 123 128 129  67  89 150 156 157 157 155 156 156 155 156 156 156 157 156
 148 148 148 148 150 150 149 150 150 150 152 152 152 151 150 148 109  42  31  31  34  73  93  97  96  96  95  95  96  96  92  92  91  91  88  85  86  84  82  77  74  72  71  71  75  84  93  98  98  92  89  93  97 105 123 141 134 122 120 117 106  96  86  83  85  89  94 100 106 117 124 131 134 132 131 131 133  84 102 150 156 156 156 156 156 156 156 156 156 157 156 156
 148 147 149 147 149 149 149 150 150 150 150 150 151 151 151 149 128  64  35  30  35  75  93  98  97  97  95  97  99  99  98  97  96  95  91  90  89  85  86  82  80  78  79  84  88  95  97  98  96  93  91  96  99 106 121 138 136 126 120 123 122 110 100  93  91  91  95 103 112 120 127 133 136 136 134 135 135  98 104 149 154 157 156 156 157 156 155 156 156 156 156 155
 147 148 148 148 148 149 150 150 150 150 150 150 152 151 150 136  89  60  41  33  37  77  94  97  95  97  99 101 102 101  99  99 100  95  92  90  91  90  89  87  85  86  87  89  93  94  92  93  93  93  94  98 104 110 122 134 137 130 124 125 126 116 108 106 104  97  97 102 109 118 125 133 136 136 135 136 136 111 103 142 153 155 156 156 156 156 155 155 156 156 156 155
 146 147 147 148 149 148 149 150 150 149 151 151 150 152 149 107  82  67  48  37  39  79  93  97  95 100 100 102 104 103 101 100  99  94  91  92  91  88  87  88  89  89  92  92  92  92  91  88  88  89  94 101 107 111 118 129 132 128 125 124 125 120 110 107 111 107 103 102 107 112 120 128 135 137 138 137 137 125  94 128 152 154 155 156 156 156 156 156 155 155 155 155
 147 147 149 147 148 149 149 151 150 150 151 151 151 150 144  71  55  67  52  41  41  81  92  94  96 100 102 101 102 101 100  97  93  88  90  90  89  87  84  84  89  90  92  93  89  88  86  86  85  86  95 100 107 108 108 115 116 113 114 122 124 121 112 106 108 110 108 102 104 109 116 120 130 135 137 138 139 130  71 122 152 155 157 156 155 156 155 155 156 155 155 155
 145 146 147 147 148 147 147 149 150 150 152 150 150 150 135  53  38  53  60  46  41  82  92  94  96  97  98  98  99  96  96  91  89  88  88  86  84  85  84  87  90  92  89  89  88  85  83  82  83  88  97  97 102  99  98  98  97  95  98 113 120 120 114 104 102 108 108 103 103 107 111 115 125 132 133 134 138 135  72 134 152 154 155 155 155 155 154 154 154 154 155 154
 145 145 146 146 147 146 147 149 149 150 151 150 149 149 140  54  40  60  68  56  46  81  89  95  97  96  90  92  90  93  91  89  88  88  87  85  87  87  87  90  90  89  87  87  87  84  81  80  86  90  92  88  84  81  80  79  77  76  76  86 100 113 112 104  95  99 105 104 107 108 109 114 118 123 125 128 132 133  98 146 152 154 154 155 154 155 155 155 155 155 154 154
 144 144 145 146 146 147 148 147 148 150 149 149 149 149 146  63  44  73  73  61  51  81  88  92  93  92  86  88  86  86  83  87  87  84  87  85  86  90  90  91  90  89  87  85  82  80  76  81  91  85  79  71  66  64  62  62  60  60  61  64  75  97 108 102  96  98 100 104 108 109 110 111 113 118 120 122 126 129 122 148 152 153 155 156 154 155 154 153 154 154 154 154
 144 143 146 145 146 145 147 146 147 148 148 148 150 149 147  77  53  82  75  61  65  81  87  89  88  86  84  82  82  81  83  82  81  83  84  85  86  88  85  88  89  87  86  86  81  78  71  86  88  73  62  55  49  50  49  50  51  52  53  57  64  84 103 100  95  96  99 100 105 104 107 110 110 114 115 115 119 126 137 150 151 153 153 154 153 152 153 153 153 152 152 152
 144 144 145 145 145 146 146 145 147 147 148 148 149 148 146  98  75  75  57  55  80  82  85  88  86  83  82  81  80  79  79  78  79  82  82  83  83  81  75  84  86  86  82  81  78  75  72  90  81  62  50  44  44  46  44  42  41  46  49  52  57  74  96  95  94  94  95  97 100 102 102 109 108 108 112 113 116 120 133 148 150 154 152 152 152 152 152 152 153 153 152 151
 142 142 143 144 144 145 144 145 146 147 146 147 147 147 147 128  82  63  46  83  86  84  84  84  84  79  78  78  78  75  74  68  77  80  80  79  78  80  82  86  86  83  83  82  76  71  73  78  67  50  33  24  26  35  41  39  38  43  33  27  40  64  89  90  93  94  97  94  97  98  98 104 107 104 103 109 111 114 119 147 150 150 152 152 150 152 153 151 152 151 150 151
 143 142 143 144 144 145 144 146 146 146 147 148 148 148 147 142  87  58  51  92  88  79  81  82  81  79  75  74  73  73  74  73  71  73  75  78  80  80  83  86  87  87  83  81  79  73  68  65  48  29  18  20  29  34  37  37  40  40  23  21  28  52  83  86  89  93  96  97  97  97  96  97  99  99  99 103 107 110 109 146 150 150 151 150 151 152 151 150 150 152 150 151
 143 143 142 143 144 144 144 145 144 146 146 147 147 147 147 143  89  62  57  87  86  80  79  82  78  76  70  70  70  69  72  71  70  72  74  76  77  79  82  84  84  85  82  82  81  75  66  55  41  26  23  30  37  39  38  37  42  44  29  22  29  46  77  83  88  92  95  97  94  96  94  94  93  95  95  98 105 108 123 146 149 150 150 151 150 150 150 151 151 152 151 151
 140 142 143 141 143 144 144 144 145 145 145 146 146 146 146 143 101  64  56  74  86  83  78  79  76  72  68  67  68  69  68  69  70  70  71  74  74  78  80  81  84  85  84  84  84  81  67  53  41  31  31  38  44  46  42  41  46  52  42  29  35  53  86  85  86  91  95  96  95  98  94  91  92  94  93  96 103 114 134 146 149 149 150 151 150 150 150 151 150 151 150 150
 140 141 141 142 143 144 144 143 144 144 146 145 145 145 145 143 112  78  64  62  80  80  75  76  76  73  69  68  68  67  67  66  70  71  69  71  74  78  80  84  88  88  86  88  91  86  73  51  39  33  34  44  48  48  45  44  48  59  58  38  48  75  94  96  91  91  96 101  95  96  96  90  90  93  93  95 104 123 140 147 147 148 148 149 150 149 149 150 149 149 150 149
 139 139 140 141 142 142 141 141 143 143 144 144 145 145 144 143 128  93  89  59  62  77  77  75  74  72  70  70  70  67  66  67  69  68  68  71  76  79  82  84  87  87  89  92  95  91  80  60  46  40  42  51  51  48  46  44  49  62  74  60  73  87 102 104  99  95  97 100 101 100  96  89  90  93  96  93 104 131 144 147 147 148 148 149 148 149 148 150 149 147 150 149
 139 139 139 139 140 140 141 140 142 141 142 143 144 144 145 144 140 108  87  78  76  70  72  78  76  71  66  69  70  68  66  69  70  69  70  71  78  82  84  86  88  90  95  98  97  93  81  68  63  62  58  59  54  49  43  43  48  60  74  76  78  94 108 110 108 103 102 103 105 104 100  92  94  95  98  99 109 133 144 145 146 146 146 147 147 147 147 148 148 149 147 147
 139 139 139 139 139 139 139 139 141 140 142 142 144 144 143 144 144 127  82  68  65  58  69  78  78  74  69  70  72  68  67  67  70  70  71  75  80  82  86  88  89  94  98  99  99  93  80  72  70  71  62  62  58  51  42  42  47  60  72  80  84  95 105 115 114 112 109 110 109 109 106  97  95  97  99 102 115 138 143 143 144 143 145 145 145 146 147 146 148 146 147 148
 138 136 137 137 138 139 138 139 139 140 141 142 142 142 145 143 144 137  85  64  60  54  65  78  80  76  71  70  72  68  68  70  70  69  72  76  80  84  86  88  92  94  98  98  94  93  79  76  67  67  63  66  60  57  48  45  49  62  73  84  87  91  96 106 116 116 116 115 111 112 110 104 100  99 100 104 120 138 142 143 143 143 144 144 145 143 144 145 145 147 148 147
 138 137 138 139 138 138 139 139 139 141 141 143 142 143 143 144 146 142 108  69  65  63  67  78  81  77  72  71  72  71  70  72  72  72  75  79  81  86  87  89  94  95  96  93  90  86  76  69  66  63  60  68  69  68  57  52  55  67  80  86  86  87  88  96 105 116 118 118 118 115 110 107 104 102 105 108 123 140 142 142 142 142 143 144 143 142 142 143 144 145 146 146
 137 138 138 138 138 138 139 137 138 140 140 142 142 143 144 145 145 144 141 104  64  57  61  76  81  77  72  71  72  72  71  71  73  74  77  81  81  83  87  90  94  94  89  82  81  73  62  62  65  65  67  73  72  78  70  61  61  72  84  92  94  91  91  96  96 100 113 119 120 118 114 109 106 102 106 110 124 139 142 142 142 142 141 142 141 142 142 142 142 143 143 143
 137 137 137 137 138 138 139 138 139 139 139 140 141 142 144 143 144 145 145 140 128 103  93  89  82  77  73  70  70  71  71  72  74  75  77  79  80  84  88  89  92  91  89  72  67  68  66  68  71  73  75  71  64  67  73  71  70  70  70  78  91  97  96  95  93  91  99 115 119 121 116 112 107 107 106 108 124 138 140 140 142 142 142 140 141 141 142 140 141 142 143 143
 136 138 138 139 139 139 140 138 138 139 140 142 141 140 143 142 145 145 145 145 145 142 140 115  86  79  74  70  70  72  72  73  74  74  78  79  81  84  86  85  81  79  74  64  62  65  71  74  73  67  59  51  47  45  51  58  58  52  45  49  60  82  94  98  92  91  92 102 116 119 117 114 109 107 108 110 125 137 140 140 141 141 141 141 141 140 142 141 141 141 141 141
 137 137 137 138 138 138 139 138 138 139 139 140 141 141 142 142 143 145 144 145 145 145 142 126  88  79  73  69  72  72  74  76  74  75  78  80  81  84  86  85  70  66  67  61  60  65  73  68  56  45  45  44  42  38  34  35  38  37  37  39  44  50  65  87  94  87  83  90 110 118 118 115 110 108 108 111 127 136 138 138 140 141 140 138 140 140 139 139 139 138 140 140
 136 137 137 137 138 138 138 138 139 139 139 141 141 143 142 142 144 143 145 147 146 146 144 132  88  78  71  70  70  72  75  76  75  75  78  80  81  82  83  77  67  68  64  56  56  60  54  45  37  35  36  38  37  34  30  28  27  31  33  36  39  39  41  56  73  72  73  80  99 112 115 114 111 109 107 110 125 136 136 138 138 139 138 138 139 138 140 138 139 138 138 138
 137 136 137 137 138 138 138 139 138 140 140 141 141 141 142 142 144 144 144 145 146 144 143 135  86  78  73  71  70  72  74  76  76  77  79  80  80  81  82  76  67  65  57  48  44  43  36  31  29  29  29  29  29  28  28  25  23  26  29  34  39  31  30  36  46  50  56  73  95 110 115 114 113 110 107 110 123 134 135 135 136 137 136 137 138 137 137 139 137 137 137 139
 136 136 137 137 138 138 139 138 140 140 140 141 141 142 142 143 143 143 144 145 146 143 143 138  86  79  72  69  68  72  73  75  78  77  79  80  80  81  79  74  67  62  48  38  35  30  27  31  38  41  42  40  39  37  35  35  37  43  51  58  73  72  43  31  31  34  43  61  87 106 113 116 114 111 107 110 123 133 133 135 135 135 135 136 136 136 136 136 138 136 136 138
 137 137 138 137 139 138 138 138 139 138 140 139 141 143 143 143 143 145 146 145 145 145 145 137  94  78  71  69  69  70  72  75  78  77  80  82  82  80  77  72  66  58  47  35  35  40  47  56  61  62  63  62  60  58  63  60  55  58  65  74  87  89  86  76  61  56  54  58  77  97 110 114 114 109 107 111 124 132 134 134 134 134 134 135 135 135 136 136 136 137 136 137
 136 136 137 137 138 138 138 139 139 139 139 140 142 142 141 143 144 144 145 145 145 144 145 140  97  77  71  69  70  70  71  75  77  78  80  81  80  79  74  69  64  61  59  58  54  56  59  61  62  63  64  66  68  66  70  68  65  67  68  73  78  81  84  89  88  90  79  67  75  92 105 112 113 109 106 110 123 133 134 134 134 134 134 135 134 135 135 136 136 135 136 136
 136 136 137 138 137 137 138 137 139 139 140 140 141 141 141 141 143 140 143 145 144 144 144 139 106  77  72  69  69  64  65  75  77  77  81  82  82  79  74  68  64  62  66  66  63  61  59  59  59  55  53  53  56  57  59  60  60  60  59  61  65  73  82  90  91  94  91  79  78  88  99 110 113 109 104 110 126 132 132 134 133 134 134 135 135 134 134 134 135 135 135 137
 135 136 137 136 138 138 138 138 139 138 139 141 142 142 143 142 143 142 143 142 143 143 145 142 118  77  70  68  69  66  63  74  78  80  80  81  81  78  72  66  65  65  67  66  64  61  57  57  55  53  51  46  45  45  48  49  49  49  48  50  54  63  72  77  83  87  88  86  82  87  96 105 110 109 105 110 126 130 131 131 131 131 133 133 133 134 135 134 133 133 134 134
 136 134 137 135 136 135 137 138 138 138 140 142 141 140 141 141 141 143 142 143 141 141 143 143 129  77  71  70  67  69  70  73  77  76  79  79  79  73  68  64  66  64  65  64  62  59  54  52  49  47  46  44  42  40  41  39  39  39  39  41  43  48  57  68  77  82  83  84  83  87  96 104 110 107 104 111 125 129 129 130 130 130 131 131 131 132 133 133 133 130 132 134
 135 135 136 136 137 138 138 137 139 139 140 140 140 142 140 141 143 141 142 142 144 142 142 142 136  85  72  68  69  71  73  72  74  74  76  77  74  71  66  65  64  64  62  62  61  58  54  52  47  41  38  35  32  30  28  27  27  26  29  32  36  43  55  66  73  76  79  81  83  88  94 102 108 106 106 116 128 130 131 132 130 131 131 131 132 132 131 132 132 132 133 134
 135 135 136 138 138 138 138 137 139 139 140 141 140 141 141 141 142 141 141 143 142 140 141 140 137 107  74  71  71  70  74  72  74  76  75  72  72  69  67  65  63  60  60  60  60  61  55  52  49  41  38  34  31  29  28  24  26  28  32  37  42  50  59  69  71  73  76  78  81  86  91  99 105 105 106 120 129 129 130 131 129 129 130 130 132 131 132 131 131 131 132 132
 135 135 137 137 137 137 138 138 139 140 140 140 140 141 140 143 141 140 140 140 141 140 138 139 137 125  80  72  71  70  73  74  74  76  74  70  70  68  66  65  63  60  58  57  59  58  53  50  50  48  45  41  39  38  34  31  35  41  47  53  57  62  63  69  71  70  74  75  80  84  88  95 102 104 105 122 129 130 130 129 129 129 130 128 129 130 130 131 131 131 130 132
 134 134 136 137 137 138 137 140 139 139 139 139 140 140 141 141 141 140 140 140 139 139 138 139 135 132  98  70  69  70  72  70  71  74  74  70  69  66  65  64  62  61  58  56  56  56  55  53  53  53  54  51  50  49  50  49  52  57  64  66  68  69  68  69  66  69  71  73  77  84  89  94 100 102 107 125 128 128 129 129 129 128 129 129 129 129 129 130 130 130 130 130
 135 135 136 137 138 137 137 138 138 139 139 140 140 141 140 140 140 139 139 138 138 137 137 136 136 133 107  72  67  69  70  70  68  71  72  68  68  66  65  63  63  59  57  56  57  57  58  57  60  59  62  61  60  57  55  55  57  60  68  70  70  72  72  73  70  71  73  74  77  83  90  96 100 102 114 125 127 128 129 128 128 130 129 129 129 129 130 129 129 130 129 130
 135 136 135 136 137 137 138 138 139 139 140 140 140 140 139 140 140 139 139 138 137 137 136 135 134 132 110  74  65  67  67  68  67  70  70  69  67  66  67  65  64  63  62  60  62  62  62  65  66  63  64  63  64  61  58  58  60  59  66  71  71  74  74  75  79  77  76  78  81  86  91  94  99 101 120 125 127 127 127 128 127 126 126 126 126 127 128 128 127 127 127 128
 135 136 135 135 137 137 138 138 139 139 140 138 139 139 139 139 139 138 136 136 136 135 135 135 134 132 112  76  68  64  64  65  66  67  68  67  67  67  66  68  68  66  66  66  67  68  66  67  70  70  69  67  66  62  57  57  59  62  64  70  74  77  77  80  88  87  81  82  87  91  93  95  97 109 122 126 128 126 126 126 124 126 125 126 125 125 127 125 127 126 125 125
 134 134 135 135 135 136 138 137 138 137 138 139 138 138 138 138 137 137 136 135 136 134 134 134 134 131 112  78  71  65  62  60  62  63  66  67  68  68  67  70  71  70  71  72  73  72  73  73  72  73  70  69  68  63  55  57  62  63  65  68  75  77  82  87  90  92  90  91  91  93  93  93  96 117 123 128 126 125 124 123 124 124 123 125 126 124 125 125 125 124 126 126
 134 134 133 135 136 135 136 138 137 136 137 137 137 137 136 137 134 135 135 135 135 134 133 133 132 129 115  80  72  66  64  58  56  60  62  63  66  66  69  71  71  72  73  75  74  75  77  78  72  71  71  72  71  68  63  63  64  62  66  71  76  81  86  90  94  97  94  95  95  95  93  89 104 119 123 123 123 124 123 123 123 123 122 123 124 124 124 123 123 125 124 125
 132 132 135 134 135 136 135 136 135 136 136 135 135 136 136 135 136 134 134 133 134 134 132 131 130 127 118  81  71  66  62  57  54  54  55  60  63  64  67  69  71  74  74  73  77  77  75  74  73  72  71  71  72  71  70  68  65  62  67  73  78  82  85  92  96  98  98  99  96  94  91  82  94 108 122 121 121 122 120 123 123 122 120 121 122 121 121 121 121 121 121 122
 132 133 132 133 134 135 137 136 136 136 135 135 134 136 134 133 135 134 133 132 132 132 131 128 129 126 118  81  71  66  63  59  54  53  51  53  55  56  62  66  68  70  72  74  76  75  73  70  69  70  70  71  70  71  69  68  65  63  63  70  75  80  84  91  96  94  97  97  92  90  79  55  49  50  76 123 124 122 120 122 121 122 121 120 121 120 120 121 122 123 123 123
 132 130 132 132 132 134 135 134 135 136 134 134 136 135 133 134 133 132 132 132 130 129 129 127 128 126 119  81  70  65  63  59  58  55  52  49  51  49  55  61  65  67  70  70  72  69  66  70  69  70  68  68  64  57  62  63  64  63  65  68  71  73  80  83  89  92  92  91  81  81  52  36  35  33  44  75 116 128 119 117 116 117 118 118 120 119 120 119 119 121 120 121
 132 130 131 131 132 134 134 134 134 134 134 133 133 132 131 133 132 131 131 131 130 127 128 127 126 125 119  85  71  66  63  59  56  55  54  50  45  45  51  56  59  61  62  64  66  64  63  66  65  64  59  60  59  54  57  58  60  60  63  62  68  72  74  76  78  86  87  84  77  67  36  29  31  31  30  50  79 125  84  51  45  54  73  95 112 113 117 117 118 120 119 120
 128 129 130 130 131 131 133 133 132 133 133 134 132 132 131 131 129 128 128 128 129 128 126 127 125 120 111  82  71  65  62  60  57  55  55  52  48  42  44  46  51  54  56  58  60  59  59  59  56  58  56  55  53  53  49  49  54  54  51  54  60  63  66  68  73  77  80  76  78  63  26  23  25  27  25  35  62 102 131  72  31  33  35  49  66 100 114 116 119 119 119 119
 127 130 129 130 131 131 129 130 132 131 131 130 131 131 130 129 130 128 127 127 127 126 124 122 108  89  66  68  69  68  62  60  58  56  54  53  50  45  42  38  40  46  51  52  54  52  51  51  49  51  48  48  48  48  46  45  49  49  46  49  53  54  55  60  62  68  68  68  84  68  28  19  20  23  22  25  46  81 116 135  65  27  23  26  36  59  93 108 117 120 119 119
 129 127 128 130 128 127 127 128 130 129 129 130 128 128 128 126 128 127 126 125 125 121 112  96  77  62  42  57  68  64  62  62  60  59  54  53  51  48  45  38  36  35  39  43  46  45  42  43  43  41  40  40  41  40  40  40  42  44  42  45  46  47  48  52  54  59  60  66  89  71  28  22  17  17  18  20  31  63  95 124 140  70  21  19  22  34  65  85 102 114 116 116
 127 127 128 128 127 127 126 127 127 127 128 127 126 127 127 127 126 126 123 123 119 103  89  81  65  53  35  51  67  65  61  60  58  58  57  55  52  50  49  46  41  33  32  33  35  36  35  37  34  34  34  34  34  33  31  32  34  36  35  36  37  40  40  43  46  52  62  82  92  77  27  21  20  13  14  15  21  46  82 113 135 131  87  51  21  20  44  73  83  95 110 112
 125 126 125 127 126 126 126 126 126 126 128 126 125 125 125 126 125 121 120 112  99  88  84  76  62  43  29  48  66  65  63  59  59  60  58  55  54  51  50  49  42  39  35  32  32  28  27  30  31  30  31  30  30  29  29  30  30  30  32  31  32  33  34  44  55  70  80  89  93  79  23  18  20  15  10  11  13  33  69 102 128 133  94  84  71  27  34  61  78  81  90 110
 124 126 126 125 126 126 125 125 127 126 126 124 123 124 123 121 121 119 110  98  93  87  83  70  48  28  22  37  65  66  64  60  60  60  58  55  52  52  51  51  49  44  40  35  33  30  28  27  26  25  25  26  26  25  25  28  30  33  37  43  52  53  51  62  72  78  82  87  93  79  20  17  20  19  12   9  10  21  53  89 120 126 105  89  90  62  34  55  71  76  79  88
 123 124 124 126 124 124 123 125 125 125 124 122 120 121 122 121 118 109 103  95  90  88  77  56  30  20  17  32  64  65  62  61  58  57  57  57  53  52  52  53  50  49  44  38  35  32  31  30  27  26  26  25  26  25  27  30  36  49  58  75  77  72  69  70  72  76  84  90  92  81  18  14  18  20  14  10   9  13  43  77 111 128 121  96  93  84  40  52  68  78  76  77
 123 122 123 124 123 122 123 123 122 121 120 120 120 119 119 116 111 104  95  93  88  82  58  32  17  15  12  25  63  64  61  60  60  57  57  56  52  50  53  53  52  49  47  42  38  36  33  31  30  29  28  26  27  29  31  36  45  57  69  77  79  76  73  70  73  76  83  88  92  81  17  13  15  19  16  12   9   9  31  62  93 126 127  97  93  90  52  52  64  72  73  75
 120 120 121 120 121 120 122 120 120 119 118 119 117 117 114 109 106  98  93  89  84  64  35  16  13  13  12  25  61  62  62  60  58  55  54  53  51  50  51  51  54  50  47  46  40  37  35  34  31  28  28  28  28  31  35  39  51  59  69  77  79  74  70  70  74  76  81  85  89  81  17  12  13  18  18  15  11  10  18  50  83 114 126 102  92  89  54  48  62  71  68  72
 120 120 120 121 119 120 120 119 119 116 116 117 115 112 106 103  98  90  93  83  68  43  19  12  13  11  10  15  60  61  60  60  58  55  54  53  52  52  52  52  53  53  49  45  43  42  37  35  33  31  31  30  30  34  37  43  53  60  71  76  76  73  70  71  72  74  79  83  89  82  18  12  12  16  19  17  15  10  14  44  77 104 125 110  87  82  55  45  61  72  70  69
 119 119 119 119 119 119 118 117 108  97  85 104 110 105 102 102  97  94  91  76  52  22  12  10  13  10  10  11  58  59  60  59  55  54  53  50  52  51  52  51  51  52  51  45  43  42  38  38  36  32  32  33  33  36  37  40  51  61  68  74  73  70  70  68  68  75  78  82  86  81  17  11  11  13  19  18  16  11  11  33  65  99 120 113  89  78  52  43  56  68  69  67
 118 118 117 116 117 113  94  72  49  43  62 105 103 103 101  98  96  91  86  66  36  13  10  12  13  11  10   9  51  60  57  56  55  53  53  51  52  50  51  52  52  51  49  47  43  42  40  38  37  36  33  36  35  37  40  46  51  58  68  71  71  70  66  66  65  73  77  79  85  78  22  11  11  13  17  19  17  13   9  27  56  92 120 115  87  75  49  39  56  64  66  66
 116 115 115 112  92  68  49  36  42  80 107 104 103  99  99  98  95  85  75  51  19  11   9  12  10   9   8   8  46  57  56  54  54  53  51  51  52  52  51  53  51  50  46  45  43  42  39  37  38  38  37  36  37  38  40  45  47  55  64  69  67  65  63  66  68  70  76  79  84  74  23  10  10  11  14  18  19  15   8  23  54  82 112 114  86  66  39  38  56  64  65  64
 115 112 104  76  58  42  25  52 105 109 104 101  98  97  97  97  91  82  65  34  13  10  11  12  12   9   8   8  43  54  54  54  55  54  53  52  52  50  50  52  51  50  49  45  44  42  40  40  38  38  37  37  37  38  38  43  49  57  66  68  66  61  62  66  67  70  75  77  81  72  22   9  11  12  12  16  18  16   8  17  50  80 102 105  80  57  33  38  53  62  63  62
  98  83  64  51  37  25  39  94 101 104 100 100  94  97  97  92  90  74  53  21   9   9  12  12  10   8   8   8  41  51  54  55  57  55  54  52  50  49  50  50  49  50  49  46  45  42  42  39  38  37  37  38  37  38  39  46  50  56  62  64  63  61  62  65  67  71  74  76  77  65  21   9   9  10  11  14  17  16   8  13  46  77  98 100  73  49  30  39  53  60  61  60
  69  60  52  38  21  27  79  97 102 101 100  92  94  95  96  91  82  64  37  12   8   9  13  12   9   9   8   8  40  50  54  55  55  54  53  52  51  51  50  50  49  50  48  45  44  42  40  37  38  37  36  36  35  36  37  43  50  56  60  63  63  60  60  65  67  70  73  74  76  54  21   9   9  10  11  14  18  15   8  10  40  74  96  94  63  42  28  38  52  60  62  59
