P2
# Generated by OpenCV 3.4.0
92 112
255
 132 132 133 132 133 133 133 133 134 135 134 135 136 135 136 137 136 137 138 136 133 136 136 135 131 126 129 130 129 134 136 137 138 137 137 138 137 136 140 142 141 141 141 143 143 143 143 143 144 143 143 145 144 144 145 145 145 146 146 145 145 146 145 146 147 147 147 145 147 146 147 146 145 146 147 146 146 146 146 143 144 144 144 146 146 147 145 144 145 144 144 143
 131 133 133 133 133 133 133 134 133 135 135 136 135 135 136 137 136 135 136 131 133 136 132 129 116 125 127 122 126 131 133 133 132 123 111 105 108 114 124 135 140 142 142 143 143 142 144 142 144 143 144 144 144 144 144 145 145 147 146 145 146 146 145 146 147 147 147 147 147 147 147 147 146 145 146 147 147 146 145 145 146 146 145 146 146 145 146 145 145 145 144 145
 132 134 133 134 134 133 132 133 134 135 135 136 135 136 137 136 136 133 128 128 131 123 117  98  99 110 111 114 107 106 115 119  99  96  98 104 104  94 102 116 133 139 141 141 143 142 142 142 142 143 143 144 143 144 144 144 144 145 146 145 145 146 146 146 147 146 147 146 147 146 146 145 145 145 146 147 147 145 147 146 144 144 145 145 146 144 145 145 144 145 145 145
 132 133 133 133 132 132 133 134 132 135 134 135 135 134 134 133 132 119 116 115  98  93  75  75  89  85  79  76  89  89  87  82  79  83  96  96  93  94  86  98 121 137 138 140 140 140 138 135 140 140 142 143 144 143 143 144 145 146 145 145 147 147 147 145 145 146 146 147 147 146 146 146 146 146 147 147 147 146 147 147 146 146 146 145 145 144 145 145 144 146 144 145
 131 132 132 132 132 133 133 134 136 135 135 135 136 136 135 132 118 113 110  94  79  61  62  71  61  55  61  73  68  58  53  50  48  53  68  75  62  55  49  53  84 106 121 119 105  90  82  82  96 117 137 142 143 144 144 145 145 147 146 146 147 147 147 146 144 145 146 146 147 147 146 146 146 147 146 146 147 148 146 147 148 146 146 146 147 147 146 145 146 146 145 144
 132 132 132 133 132 133 132 134 134 135 136 135 134 136 134 127 108 101  89  67  53  52  46  42  46  56  56  51  58  49  41  37  39  43  45  46  49  47  40  37  43  47  51  55  54  52  49  52  55  70 111 132 139 141 143 144 144 144 144 147 147 146 148 145 144 145 146 146 147 147 147 147 146 148 148 147 147 147 147 147 147 145 147 148 146 146 146 145 147 146 146 144
 132 133 132 133 133 134 133 133 134 135 135 134 136 133 132 110  96  82  56  47  50  48  41  43  60  55  50  51  43  37  36  33  36  38  40  44  48  45  36  33  37  39  44  48  51  47  39  43  42  45  54  68  96 115 133 139 144 143 145 145 146 146 147 146 144 146 147 147 146 147 147 145 146 148 146 146 146 147 148 146 147 147 147 148 146 146 146 145 145 146 146 147
 132 133 134 134 133 133 134 134 134 135 133 135 134 132 125  90  77  57  45  41  45  35  41  57  50  41  40  36  30  30  30  30  32  33  33  36  40  37  33  34  38  41  38  43  44  37  35  38  38  43  43  45  48  60  72 102 139 143 145 146 146 146 146 147 147 146 146 147 146 147 146 148 147 148 146 145 147 147 147 147 147 146 147 148 148 147 147 146 145 146 145 145
 133 134 134 133 133 133 134 134 134 134 133 135 135 128 107  93  57  47  35  39  34  34  44  48  33  30  30  29  30  28  30  31  32  33  34  35  32  31  30  32  35  35  36  38  36  33  28  35  44  41  37  37  37  39  44  53  93 130 141 143 145 145 145 147 147 147 146 147 147 147 148 148 147 148 146 147 147 148 147 148 146 148 147 146 147 147 147 146 147 145 146 145
 132 133 134 133 134 134 134 135 134 134 135 135 133 120  85  79  49  38  30  32  30  33  35  32  30  28  28  26  26  25  24  24  26  27  28  28  27  27  28  30  31  30  29  28  28  26  30  37  41  36  32  35  36  36  36  39  47  69 117 139 141 144 146 147 147 146 147 147 146 147 148 147 147 147 148 148 146 147 147 147 148 149 147 147 147 147 148 148 147 146 146 146
 133 134 134 134 134 135 136 135 134 133 134 134 129 103  92  75  39  35  29  26  28  31  31  26  25  23  23  23  24  21  20  19  20  21  18  19  20  20  21  23  24  23  25  24  24  26  30  34  35  36  35  36  36  34  33  32  38  49  59  97 133 142 145 145 147 146 146 147 146 147 148 148 148 148 147 148 147 148 147 148 148 148 148 148 147 148 148 148 147 145 147 146
 134 134 134 135 134 134 135 134 134 134 134 132 121  88  97  62  40  35  24  23  25  26  24  19  18  16  17  17  19  17  16  17  19  16  16  15  16  17  18  17  18  20  22  22  23  25  26  29  29  35  34  33  33  35  33  29  36  43  48  53  74 128 140 145 146 146 147 147 148 148 147 148 148 147 146 148 149 147 147 147 148 148 148 149 147 148 148 148 148 147 148 146
 136 134 134 137 135 134 136 134 134 136 133 130 117  83  94  43  36  26  22  22  23  22  20  16  16  16  16  15  16  15  16  16  16  16  14  15  16  16  16  17  18  19  21  21  24  25  24  26  28  31  32  28  31  35  32  29  38  41  42  40  49  82 133 145 147 148 146 148 148 149 147 147 149 149 148 148 149 148 150 150 149 149 149 149 149 148 148 148 148 148 146 147
 136 135 136 136 136 134 137 135 133 135 131 132 112  79  76  28  30  21  17  21  20  18  18  16  16  16  12  13  14  14  14  14  14  14  15  15  16  17  16  17  19  21  23  23  24  26  26  26  27  28  28  29  32  32  33  34  36  40  39  38  42  51 113 141 147 148 148 148 149 148 148 149 149 150 150 148 148 149 151 148 148 148 148 149 148 148 148 147 148 148 148 148
 135 135 136 137 137 136 136 136 136 131 132 132 108  79  49  28  24  20  19  19  16  15  16  14  14  14  12  13  13  12  13  14  14  13  12  13  14  18  18  18  19  19  23  25  25  28  28  27  26  26  27  30  28  32  37  35  36  38  38  37  37  46  66 133 142 147 149 149 149 150 149 149 149 149 149 151 151 149 149 149 149 149 149 149 149 149 149 149 149 149 149 148
 136 136 137 138 138 137 135 137 137 131 130 120 104  66  29  24  19  17  17  16  15  15  14  13  14  14  11  12  11  12  11  11  12  13  12  12  14  15  16  18  22  24  26  27  27  27  29  29  28  25  25  27  31  33  33  35  35  36  38  38  36  39  47  75 130 144 147 149 150 150 149 149 149 148 151 152 152 150 150 151 149 150 150 149 150 150 148 149 149 148 148 149
 135 136 138 137 137 137 136 137 136 129 128 114  88  55  27  21  17  16  15  15  15  14  12  12  12  13  12  12  12  11  12  11  11  12  12  13  12  13  14  15  18  22  24  25  24  24  26  25  25  25  25  25  28  27  26  30  34  35  37  36  34  36  38  48  75 127 146 148 150 150 149 149 149 149 150 149 148 149 149 150 149 149 149 149 151 149 149 150 149 150 149 150
 136 137 138 138 138 137 137 136 132 120 120 108  80  39  25  20  16  15  14  15  14  12  11  11  12  12  12  12  12  12  12  12  12  11  12  12  14  13  14  13  15  19  20  22  22  22  23  23  22  24  24  24  25  26  24  22  25  33  39  36  33  33  34  38  51  71 124 145 150 150 150 151 151 149 148 148 148 149 149 148 150 150 150 150 151 151 150 151 150 151 149 151
 137 138 139 139 138 138 137 136 134 129 126 106  75  33  21  17  16  14  14  13  13  13  12  12  12  13  14  13  15  14  14  14  15  16  15  14  15  16  15  15  16  18  20  19  20  22  22  23  23  25  25  26  26  27  25  24  24  25  30  32  32  35  34  36  38  48  69 124 145 150 152 152 151 151 150 150 150 151 151 151 152 152 152 150 150 151 151 150 150 150 149 149
 138 138 138 140 139 138 138 138 138 131 128 106  52  29  19  16  15  14  15  14  14  14  14  15  15  15  15  16  18  17  19  19  21  24  22  21  21  21  21  20  20  23  23  25  27  29  30  32  36  40  42  44  43  44  43  39  34  31  27  28  32  35  35  36  36  39  50  82 137 146 149 152 151 150 150 151 150 150 152 152 152 153 154 151 151 151 152 151 151 152 150 150
 140 140 140 140 140 138 140 140 139 136 122  67  35  23  18  16  16  14  14  14  14  15  16  16  17  17  19  21  22  24  29  30  34  39  37  34  34  32  35  36  35  36  38  42  44  51  51  55  58  64  69  72  72  72  71  70  68  59  48  31  31  31  32  32  34  37  44  54 106 144 151 152 151 150 151 153 151 152 152 153 152 151 152 151 151 152 152 153 151 152 152 152
 140 140 141 141 140 139 140 142 140 138 120  55  29  20  16  16  14  14  14  14  15  18  20  22  23  26  27  32  36  42  45  49  53  54  53  53  55  55  58  58  56  57  61  64  68  70  72  74  76  80  85  88  90  91  92  94  97  95  88  62  34  28  26  28  31  34  39  48  76 135 149 154 151 152 153 154 154 152 153 153 151 151 152 153 151 152 152 153 152 153 153 152
 141 142 142 141 142 142 142 140 138 134 100  42  26  21  16  15  15  15  14  16  19  24  28  32  35  39  46  49  57  60  62  65  66  67  68  70  69  72  75  74  74  74  74  76  79  80  81  84  86  89  92  95 100 104 110 112 115 118 116 110  78  33  26  26  28  30  37  46  65 109 149 152 152 154 154 154 153 153 153 153 152 153 154 154 154 153 154 152 153 152 151 151
 142 142 143 142 142 142 142 142 138 122  64  35  24  19  15  14  16  15  16  20  25  33  40  44  50  58  63  68  71  73  76  78  78  79  81  82  80  80  82  82  83  84  84  85  85  86  87  91  94  98 101 106 111 116 118 121 125 127 128 129 124  84  39  28  29  38  40  45  59  87 143 153 154 153 153 154 154 154 154 154 153 154 153 154 154 154 155 154 154 152 153 152
 142 142 143 141 141 143 143 142 128  58  38  29  23  16  14  15  16  16  20  26  36  45  52  58  65  71  77  79  82  84  86  87  87  86  88  89  88  87  88  89  88  89  89  90  90  92  96  98 100 104 110 112 116 120 121 123 128 130 133 134 135 132  87  38  33  39  44  42  49  80 127 150 153 154 154 153 153 156 155 154 154 154 155 156 154 154 155 153 153 153 154 154
 143 143 144 141 143 143 143 138 109  47  35  26  19  15  13  15  15  16  25  34  46  55  62  68  76  79  83  84  87  89  92  95  94  97  97  97  95  97  94  94  92  91  93  93  94  98 100 101 105 106 110 112 114 119 121 122 125 130 131 133 137 137 135  79  46  36  39  43  47  64 118 147 153 153 154 154 154 154 153 154 155 156 155 154 155 154 154 153 153 154 154 153
 143 144 143 144 143 142 142 134  78  41  32  23  17  14  15  15  16  19  30  44  54  63  70  79  83  86  88  89  90  96  99 100 100 101 103 103  99  98  96  95  94  92  93  92  93  96  99 102 103 103 106 107 110 115 121 124 123 125 129 132 133 137 138 130  76  43  34  38  45  52 107 144 154 155 154 154 154 154 154 154 155 155 154 154 155 155 154 153 154 155 154 154
 144 143 144 143 144 144 141 119  53  38  29  20  16  15  16  16  18  25  37  52  64  74  82  86  87  88  89  92  94  98  96  99 103 102 103 103  99  98  96  96  95  94  93  91  93  95  95 100  99  99 101 102 106 110 114 117 119 123 127 131 132 135 137 138 123  68  41  39  42  52  92 144 153 154 154 154 155 155 155 155 155 155 155 155 156 156 156 154 155 156 154 154
 144 144 143 144 144 143 137  68  46  32  28  18  16  16  16  15  18  28  44  61  75  85  87  87  88  89  89  91  95  95  94  98 100  98 101 100  97  97  98  96  94  92  93  94  94  95  95  95  97 100 101 102 103 106 108 111 115 120 124 125 127 130 134 138 137 102  50  39  41  49  66 139 152 154 155 155 155 155 155 155 155 155 155 155 156 156 157 156 156 155 154 154
 143 143 144 144 143 142 119  52  36  28  22  20  18  17  15  15  20  33  54  73  85  86  86  87  88  89  88  89  91  89  90  92  93  95  94  92  91  92  94  93  92  90  90  90  92  94  95  94  95  99 101 102 103 106 108 109 113 119 123 125 126 128 134 137 138 133  75  45  41  44  57 118 147 152 154 155 155 156 155 155 155 154 154 155 156 155 155 155 155 154 154 154
 144 143 144 144 144 142 105  42  31  27  24  21  18  17  16  16  24  40  65  80  85  85  86  87  89  88  86  87  88  86  87  86  86  89  89  89  88  88  90  90  90  87  84  85  88  90  92  93  93  95  99 100 102 106 108 109 113 118 124 125 126 128 133 137 138 137 110  51  43  40  46  83 144 151 155 156 155 156 156 155 155 154 155 155 155 155 157 155 156 155 154 154
 144 144 144 143 143 141 104  38  30  27  25  20  17  15  15  19  27  49  72  82  86  86  88  89  87  86  86  86  84  83  83  84  83  86  85  82  83  83  85  86  88  88  87  88  90  90  93  94  94  98 101 102 104 106 112 113 116 120 122 124 127 128 131 135 138 138 131  78  51  44  43  53 130 151 154 155 156 155 156 155 154 155 155 156 156 155 156 156 156 156 154 153
 144 144 144 144 143 138  79  33  27  24  22  19  16  15  17  21  34  58  74  82  85  88  88  88  86  84  82  81  82  82  82  83  82  82  82  82  83  84  82  84  87  90  88  89  91  95  97 100 101 104 104 106 112 115 118 121 122 124 127 128 127 128 131 134 136 138 135 116  59  51  46  50 105 148 154 155 155 155 155 155 155 155 155 156 154 156 155 154 154 154 153 153
 144 144 144 143 144 128  50  31  26  23  22  18  16  15  18  25  42  62  71  80  84  87  87  86  84  82  81  82  82  82  81  81  81  80  82  83  84  83  85  86  89  90  90  91  93  95 101 105 108 110 113 118 120 123 126 125 127 128 129 132 130 129 132 132 135 137 137 130  80  52  48  49  87 146 154 154 154 154 153 153 155 155 155 155 155 156 155 155 155 155 155 153
 144 144 144 144 142  85  35  31  27  23  23  20  17  17  21  33  48  65  72  79  81  84  87  85  82  81  81  81  80  80  79  78  80  80  82  83  84  86  89  94  96  96  97  98 101 104 107 111 116 119 124 124 125 128 129 128 130 132 133 132 133 132 133 135 134 136 135 135 111  51  44  45  70 141 153 155 154 153 152 152 154 154 155 155 154 154 156 154 154 154 155 154
 142 144 145 140 132  47  32  28  26  23  22  21  19  22  27  37  50  67  76  80  80  83  84  84  82  82  83  80  81  81  82  81  82  85  89  90  92  96  99 102 103 104 103 105 108 110 113 115 119 122 124 119 107 121 129 131 132 132 133 135 134 135 136 138 137 137 138 137 132  67  41  42  58 133 153 154 153 152 152 153 154 155 155 155 153 154 154 153 153 153 155 154
 143 144 143 140 112  35  27  28  27  24  22  20  20  23  28  41  55  69  77  80  80  82  82  84  84  83  81  80  79  81  83  88  88  89  94  98  99 102 104 107 109 112 111 112 109 110 113 117 117 117 117 107  82 103 124 126 126 128 130 132 133 134 135 138 134 132 134 135 135 102  48  40  52 128 152 155 154 153 153 152 154 155 155 154 156 154 154 155 153 154 154 152
 141 144 143 141  78  36  27  27  25  23  20  20  19  23  30  42  56  69  75  78  75  79  79  81  76  78  81  83  82  82  86  92  93  95  98 102 106 108 109 113 116 117 119 117 112 113 115 117 116 114 113 109 103 109 117 120 119 121 122 123 124 127 129 129 125 121 121 124 130 125  58  40  47 125 152 154 156 154 154 154 154 155 154 154 155 154 155 155 154 154 155 153
 143 144 142 137  69  32  27  26  25  21  20  19  19  23  29  41  56  67  73  75  74  74  78  79  70  73  81  83  85  88  92  98  97  98 103 104 106 108 110 114 119 120 122 121 120 117 117 115 113 110 108 106 105 106 107 110 110 111 114 116 115 115 115 112 110 114 108 110 117 122  79  45  43 115 152 154 156 155 155 155 155 156 155 155 156 155 155 154 154 154 154 155
 144 144 143 140  68  32  25  25  23  22  19  19  20  24  30  41  55  63  68  75  74  76  76  76  76  79  82  86  88  90  96  98  97 101 103 104 106 108 110 113 116 118 118 119 119 114 111 110 105 101 100  98  95  94  97  99 103 102 102 105 100  94  89  93  98 108 111 110 108 105  97  46  41 110 151 154 155 155 154 154 155 154 154 155 155 155 154 154 154 154 154 154
 143 144 143 141  86  33  25  23  23  21  20  19  21  25  32  43  54  64  68  71  72  72  74  76  75  75  83  86  86  89  93  97  97  99 103 104 104 105 106 105 108 109 111 110 109 107 104 101  95  93  90  88  85  83  85  89  90  87  82  74  65  57  59  65  75  93 101 103 110 111 103  60  44 103 151 154 155 153 154 154 156 154 153 154 155 154 153 154 153 154 154 153
 144 143 144 141 113  34  27  23  25  21  19  18  22  26  32  42  51  61  68  70  71  73  73  76  75  77  81  85  87  89  90  95  93  96  96  97 100 101 100  98  99  98  95  96  99  98  94  92  90  85  83  76  74  76  75  76  74  66  58  47  38  38  42  46  53  67  80  97 112 117 111  73  45  97 148 154 154 154 155 155 155 154 154 154 155 153 153 153 154 152 151 152
 143 144 144 141 125  41  28  24  23  20  20  19  21  24  34  43  55  66  69  70  73  74  75  75  76  79  81  84  86  90  92  94  91  89  89  87  85  87  86  84  84  83  82  84  85  84  81  82  81  79  73  68  66  68  66  63  54  43  37  33  32  32  33  39  46  54  65  74  93 111 116  93  52 107 150 155 155 155 155 155 155 154 154 154 155 153 153 153 153 153 152 153
 143 144 142 139 125  37  29  26  24  19  19  17  20  25  33  48  60  67  70  70  73  75  76  77  77  80  84  85  89  91  91  86  84  78  74  73  72  72  71  72  71  72  70  71  73  73  73  72  73  76  70  66  62  61  57  50  44  36  32  32  29  31  36  39  44  47  54  62  77  97 109 111  54 111 151 154 155 153 153 155 155 154 153 154 155 153 155 153 152 152 152 154
 143 144 143 141 115  39  30  26  23  19  16  16  19  26  35  50  62  68  69  70  72  74  74  77  80  82  82  76  77  80  78  74  68  66  63  61  57  57  58  60  59  62  64  63  65  66  66  66  71  72  70  64  58  55  51  44  39  33  31  32  33  34  33  30  30  37  52  51  58  83 106 120  67 110 150 153 154 153 154 154 154 154 154 153 155 154 153 153 152 151 153 153
 144 143 142 141 121  48  30  27  23  20  16  16  18  25  39  55  65  70  68  68  72  73  71  79  83  82  73  63  64  66  62  56  52  52  48  40  38  38  41  43  45  49  54  55  58  59  61  63  68  74  72  67  60  53  49  43  40  40  38  34  28  25  26  28  33  29  33  48  49  73 100 115  86  94 149 153 153 154 154 154 154 154 153 154 153 155 154 152 153 150 152 152
 142 143 142 143 131  49  31  27  24  19  17  16  17  25  44  61  65  68  70  70  71  74  75  81  82  73  60  54  54  53  47  45  42  39  33  31  30  30  31  31  33  38  45  46  52  55  59  62  70  76  76  74  65  55  51  48  45  43  33  27  25  24  26  40  72  94  50  40  48  65  94 114 105  77 144 152 154 154 154 155 154 153 153 154 152 154 152 152 153 151 152 152
 142 143 143 142 133  51  32  28  22  19  18  16  17  27  47  62  66  67  72  71  72  71  73  73  69  62  57  53  49  42  36  32  30  28  26  25  23  24  26  28  30  31  34  41  46  50  56  63  69  79  85  83  74  64  58  52  46  34  26  28  23  23  27  29 103 185 120  62  47  62  90 111 120  75 134 151 154 153 153 155 154 153 153 154 154 154 154 154 151 150 150 150
 142 143 142 142 134  62  34  28  22  19  16  16  16  28  51  63  67  68  70  70  67  63  62  66  67  61  54  48  38  30  26  24  24  22  21  22  20  23  25  28  30  30  31  36  43  48  54  62  69  83  93  95  87  73  64  53  40  27  32  31  24  26  23  27  48 153 130  95  80  78  93 112 125  96 121 150 154 154 154 154 154 154 155 153 153 153 154 152 152 151 151 151
 142 143 144 142 134  90  33  28  23  18  16  16  17  30  50  63  67  68  68  68  63  54  55  65  62  53  44  37  31  28  27  27  27  26  27  27  27  29  30  30  32  31  32  35  39  46  52  61  68  83 104 104  96  82  66  52  35  30  38  34  26  25  20  25  31  80 105  90  95 100 104 113 125 122 130 150 153 154 154 154 154 154 154 153 152 153 154 152 152 151 152 151
 143 143 144 142 138 114  32  29  24  20  16  16  17  29  50  63  67  68  69  68  58  52  55  55  51  42  37  39  33  30  28  27  25  22  22  21  22  25  28  31  31  33  34  35  38  45  52  61  71  87 106 113 104  88  70  56  36  33  41  44  30  29  26  26  38  76  87  95 108 115 116 120 127 134 139 153 154 152 154 154 154 153 152 154 153 154 152 153 152 151 151 152
 144 142 144 144 141 131  34  31  25  23  17  14  16  27  48  63  65  67  68  67  58  56  57  52  46  41  40  35  30  26  26  23  21  21  22  23  23  23  25  27  30  32  35  36  38  46  50  58  71  88 106 117 114  93  81  69  39  32  38  42  39  33  30  37  55  68  82 103 113 121 124 125 128 133 139 149 152 151 153 152 154 153 154 154 153 152 152 152 153 150 153 151
 143 143 144 143 142 138  49  33  27  24  21  16  15  23  46  61  65  66  68  66  65  60  54  50  43  41  34  28  27  25  21  24  24  26  29  34  31  27  27  27  29  31  33  35  37  42  48  56  72  91 108 121 123 104  93  84  57  46  46  48  52  54  55  55  56  67  85 101 115 126 129 128 130 134 140 148 151 151 150 153 153 154 154 153 154 153 153 152 154 151 151 153
 143 143 144 143 142 141  86  38  26  24  24  20  16  22  44  62  67  68  70  69  64  58  53  46  40  36  28  28  27  25  34  28  34  23  22  31  42  37  31  28  31  35  36  36  39  42  46  54  74  92 109 124 128 119 101  93  75  61  55  52  51  51  51  55  61  71  88 105 117 125 130 130 130 134 139 146 151 151 152 152 154 154 153 154 153 154 154 152 152 152 151 152
 143 143 144 144 144 144 124  56  27  23  24  23  17  19  39  61  68  68  69  65  61  56  53  47  38  31  29  29  27  43  34  25  30  24  23  24  44  43  36  30  31  38  43  43  44  44  48  53  71  93 110 123 130 128 109  98  86  70  59  56  52  54  56  61  68  76  89 103 114 124 132 132 133 135 138 146 150 151 152 152 154 154 154 153 153 152 154 154 152 151 151 151
 141 142 143 143 144 144 141  97  29  24  24  22  19  19  32  58  68  70  70  64  60  58  52  44  36  30  31  25  41  54  33  24  23  18  21  24  46  48  38  33  34  37  47  50  49  48  51  53  68  92 108 120 124 130 121 101  94  82  72  69  67  66  67  69  75  82  92 106 115 124 130 132 135 136 138 143 149 151 152 151 153 153 153 154 153 153 155 154 152 152 152 152
 143 142 143 143 144 145 144 132  52  35  26  22  20  19  30  57  68  69  67  64  61  59  53  44  36  30  27  29  46  57  38  24  24  23  25  29  51  49  40  41  47  53  52  51  54  53  54  53  62  82 101 112 119 125 127 113 101  95  87  81  79  79  76  79  86  90  97 105 111 122 128 132 134 136 137 141 150 151 152 152 152 153 153 153 152 153 153 153 152 152 153 153
 142 142 144 144 144 145 145 140 112  62  31  24  23  21  24  54  69  72  69  64  63  62  53  44  38  34  33  38  46  51  50  34  25  24  25  43  54  51  49  46  50  53  53  52  56  57  58  54  59  68  80  97 109 118 126 119 109 102  97  95  90  87  86  85  88  92  97 104 109 116 125 130 132 132 136 139 147 150 152 152 153 152 153 154 152 152 153 153 151 152 152 152
 143 143 144 145 145 145 145 145 140 112  51  28  23  21  23  52  68  72  71  67  64  62  54  45  41  40  39  45  48  50  54  51  46  45  51  52  50  45  44  46  51  57  59  54  57  59  58  59  60  65  73  84 101 112 122 124 119 112 110 108 100  99  97  95  92  94  99 103 108 113 118 126 129 130 129 134 144 151 152 152 152 152 152 153 152 151 153 152 151 152 152 151
 142 143 143 145 144 144 146 145 141 117  72  33  23  23  25  47  69  74  72  69  68  64  54  49  45  46  50  51  51  51  52  52  52  48  47  43  46  45  50  54  59  63  60  57  60  60  60  65  65  65  70  80  94 106 118 125 124 123 116 116 106 103 104 104 101  99  96 101 106 111 114 121 125 125 125 127 138 151 152 152 152 152 151 152 153 154 154 152 152 152 151 152
 144 144 143 143 144 145 146 144 136  81  62  40  27  24  24  40  67  74  74  75  71  66  59  54  52  58  62  62  57  54  53  50  48  48  49  51  52  56  61  64  66  65  61  61  65  63  63  68  69  66  70  79  90 106 117 124 127 124 122 120 113 104 103 103 105 102 100 101 105 109 113 116 120 122 122 125 132 148 151 151 151 152 153 153 152 152 153 153 151 151 151 151
 143 143 143 144 144 144 145 145 122  76  57  42  32  25  24  35  65  74  76  73  70  67  64  62  62  66  68  68  66  63  58  56  57  57  59  62  62  65  64  69  67  64  63  65  66  67  67  70  72  68  69  77  85  99 117 126 129 125 125 122 117 108 102  99 101 102 101 104 104 106 110 114 116 120 123 124 128 144 150 152 152 153 153 153 154 152 151 152 151 152 151 152
 142 143 145 144 144 145 146 144 115  60  50  47  36  30  24  30  61  74  77  76  72  70  69  67  69  70  71  71  70  70  68  69  66  69  70  71  70  68  70  69  68  68  67  66  68  68  68  69  68  69  72  73  80  97 114 129 130 125 124 124 118 111 104  93  93  98 100 103 104 105 110 112 116 117 119 120 125 144 150 151 152 151 152 152 153 153 154 152 152 152 152 152
 142 143 145 144 145 147 146 145 122  45  34  44  43  34  26  29  54  73  77  76  74  72  71  71  72  73  72  74  74  73  76  75  75  76  76  73  73  72  70  70  69  71  70  69  67  67  69  71  69  70  72  74  81  93 108 122 126 124 125 122 119 116 105  96  90  92  95  98 102 101 104 110 115 113 113 118 123 144 151 152 152 151 153 153 152 152 152 152 152 152 152 152
 142 142 144 144 145 146 145 146 139  61  35  44  47  44  32  29  49  72  76  76  77  73  72  70  71  76  76  76  78  79  81  80  79  78  78  76  77  74  73  75  73  72  72  69  66  67  67  68  71  71  73  79  84  92 102 113 122 125 127 125 119 113 105  95  90  94  93  94  98 100 102 108 111 112 112 116 123 144 151 151 152 151 152 153 151 151 151 153 152 152 152 151
 141 141 142 143 145 144 146 146 143  97  41  51  57  55  41  30  43  70  75  78  74  70  72  72  75  76  76  79  78  79  80  78  78  75  78  75  76  74  75  76  73  74  71  68  68  67  64  65  68  70  75  83  87  94 101 108 119 122 121 126 124 113 102  93  87  90  92  93  96  98 100 102 105 107 108 112 118 144 150 151 152 152 151 152 151 152 151 152 151 151 151 151
 142 140 143 143 145 143 145 146 145 133  53  56  65  56  42  36  40  67  74  76  73  72  75  75  76  80  80  80  79  79  79  76  75  76  75  72  72  68  70  74  72  74  71  67  65  64  63  65  67  68  77  85  91  97 100 104 111 114 117 121 125 121  98  92  87  87  90  92  94  97  99 100 103 106 109 110 113 143 149 150 150 151 151 151 151 151 150 151 151 151 151 150
 141 141 144 143 144 144 143 146 146 143 104  64  62  45  32  42  45  65  73  76  74  76  76  75  78  77  80  77  77  77  75  70  71  72  70  70  68  66  68  71  71  70  69  66  64  63  63  62  62  65  76  85  87  91  97 100 105 108 107 111 122 126 108  86  83  84  87  91  93  96 100 102 102 102 106 109 114 144 148 150 149 150 150 151 151 151 151 151 150 151 151 151
 141 141 143 144 143 145 146 145 145 144 141  87  60  39  34  62  58  63  72  74  74  75  76  76  78  77  78  75  74  72  71  70  69  68  67  67  67  69  70  68  69  68  66  65  64  60  60  59  62  65  73  80  82  86  88  90  94  94  95  97 107 118 113  86  80  83  86  90  92  96 102 104 103 100 104 108 115 142 148 149 148 150 151 148 149 149 150 150 150 149 149 150
 140 143 143 144 143 144 145 145 146 145 143 117  63  43  41  74  69  66  72  75  75  77  75  75  76  72  73  72  74  70  68  70  69  68  66  68  68  68  71  69  68  66  65  62  61  60  58  61  67  70  72  78  75  80  79  78  79  79  80  82  85  94  98  96  78  77  83  88  94  96  98 103 102  99 101 108 115 141 147 149 148 147 149 150 150 149 150 149 148 149 148 150
 140 141 141 143 143 144 144 145 145 146 144 134  67  47  43  69  70  69  71  75  78  76  75  74  68  68  69  69  69  68  69  69  68  68  66  67  69  70  68  68  68  63  64  63  59  57  53  59  73  73  73  74  72  70  68  67  68  64  66  66  68  73  80  98  84  75  77  84  91  99 101 104 105 100 102 106 114 137 146 148 148 148 149 150 148 150 150 148 148 149 148 148
 139 140 141 142 143 142 144 145 145 144 144 140  93  60  46  60  66  68  71  72  75  75  74  73  68  69  66  66  66  66  66  65  64  66  67  67  68  65  66  67  67  65  62  62  59  56  52  57  72  73  70  68  63  62  58  54  54  53  53  56  62  67  68  82  91  81  76  82  89  95 103 106 108 107 104 106 115 138 144 146 147 148 147 147 148 148 148 147 148 148 148 148
 140 140 140 141 143 144 144 146 146 146 145 143 119  76  56  53  62  67  67  69  73  74  72  70  67  65  67  66  65  65  65  65  66  66  65  66  65  56  62  65  64  63  60  59  57  52  51  59  73  68  60  54  48  45  42  43  41  41  45  52  54  38  38  62  87  89  83  80  86  96 101 106 109 107 105 105 112 135 143 145 146 145 148 147 147 147 148 147 147 146 148 147
 139 139 140 141 143 144 144 145 146 145 145 144 139  96  77  67  46  59  64  68  70  71  70  70  66  65  66  66  65  65  61  64  66  66  64  63  62  61  64  65  65  63  63  60  56  54  50  56  70  65  52  41  35  34  34  34  34  35  40  51  42  30  36  68  91  92  90  86  87  97 101 104 109 109 107 106 110 132 141 143 144 145 144 146 145 146 148 146 146 146 146 146
 138 139 140 140 141 143 143 145 145 144 143 144 143 135  93  79  59  51  61  64  67  71  68  66  64  63  65  64  63  63  59  62  63  64  63  63  63  62  63  66  65  64  64  60  58  59  54  53  60  54  43  31  23  24  28  30  33  36  46  56  55  46  65  87  95  97  94  93  92  98 102 106 108 110 107 106 110 130 141 142 143 143 143 144 145 144 143 143 143 144 144 143
 139 138 140 140 141 141 142 145 144 143 143 145 144 143 129  84  66  65  60  57  64  68  69  65  65  63  63  63  63  62  61  60  60  61  62  61  61  62  62  64  64  62  61  60  61  60  57  50  49  42  29  20  22  27  28  30  31  34  45  58  70  71  78  89  96 100 100  96  94  98 104 108 109 110 109 106 109 126 140 140 140 139 139 140 141 141 142 143 142 142 142 142
 138 138 138 140 139 141 142 141 142 143 144 143 144 144 140 108  66  56  50  49  57  67  67  64  62  60  61  60  60  60  60  60  59  62  61  58  59  60  60  62  63  64  62  61  61  63  59  50  45  37  28  24  25  28  30  30  31  35  40  54  71  76  75  86  95  98  98 101 100  98 102 109 110 110 110 105 108 121 136 138 138 139 140 138 138 137 140 141 141 140 141 141
 138 137 138 139 140 140 140 140 140 141 141 142 142 143 142 134  76  56  51  50  53  65  64  61  58  56  58  58  59  55  56  58  56  56  57  57  59  59  59  61  63  63  61  61  62  64  62  56  47  36  29  27  27  29  33  32  32  33  37  44  59  72  76  85  90  90  90  89  92  98 101 106 108 110 110 109 108 122 135 138 139 137 138 138 138 137 140 139 139 140 140 139
 137 138 138 138 139 140 140 141 141 141 141 140 142 141 143 140 128  77  57  53  53  61  69  64  60  56  55  55  55  53  53  54  55  53  53  54  59  60  60  61  62  62  62  62  64  67  63  57  50  45  39  34  32  35  36  36  33  31  33  39  52  65  74  79  83  80  82  81  79  85  98 105 108 109 108 109 107 120 134 136 137 136 137 137 137 138 137 138 138 139 138 138
 136 137 139 137 138 140 139 139 139 140 140 140 141 140 141 140 140 135 114  89  79  70  71  69  58  52  53  52  53  50  52  54  52  52  53  54  57  60  62  61  61  62  62  63  66  65  63  58  52  50  48  45  40  39  38  37  33  32  31  36  46  61  72  79  83  85  87  82  76  74  78  97 108 108 108 108 105 117 134 135 135 135 136 137 135 137 135 137 137 136 137 136
 136 136 138 136 138 139 138 139 139 139 139 140 140 141 140 140 140 140 138 136 133 129  93  71  63  55  52  52  51  50  50  50  51  53  54  54  56  60  60  61  61  60  62  64  65  64  63  59  50  47  47  48  44  38  37  35  36  33  31  34  46  60  73  85  87  86  88  85  74  65  64  83 103 109 111 108 105 116 131 134 133 134 134 134 135 136 135 135 136 134 135 134
 135 136 137 137 138 138 137 138 139 139 139 139 140 141 141 141 139 140 140 138 135 129 118  77  66  59  52  51  52  49  47  49  49  50  52  53  56  60  60  61  61  62  63  64  65  63  60  59  51  50  49  45  43  40  42  38  42  37  35  38  49  67  82  91  96  95  94  89  72  55  53  68  97 106 110 110 105 114 128 131 132 132 132 132 133 135 135 134 134 133 134 134
 134 135 135 136 137 137 138 137 137 139 139 139 138 140 139 139 140 140 138 138 137 136 131  94  68  61  54  51  49  47  46  48  49  50  51  53  55  60  61  59  61  61  61  63  63  60  57  55  51  49  47  44  39  41  46  46  50  49  43  46  54  62  72  77  81  83  81  77  49  36  39  58  86 102 110 110 106 114 128 130 131 130 133 133 133 133 134 133 132 132 134 134
 134 135 135 136 136 137 138 138 138 138 139 137 139 139 139 138 139 138 138 137 137 137 132 114  72  63  55  51  48  47  47  47  45  48  50  54  58  59  59  60  62  61  63  62  59  53  51  52  44  42  42  44  43  46  51  52  55  60  59  57  57  52  48  49  51  52  48  45  39  41  43  54  80  98 108 110 106 115 127 130 129 129 131 131 132 131 132 131 130 132 134 133
 133 135 135 133 135 136 136 137 137 138 137 139 139 139 138 137 138 138 136 136 136 135 134 124  82  66  57  51  49  48  47  47  45  49  50  54  55  55  55  59  61  61  62  61  57  48  46  47  41  42  46  49  51  53  51  46  46  49  50  49  44  40  36  39  45  46  55  61  68  75  62  64  78  96 105 109 107 115 128 131 130 130 130 129 130 129 131 130 132 131 133 130
 133 133 135 134 134 135 135 135 138 137 135 138 137 137 137 136 137 137 134 135 133 134 133 129 104  68  58  52  50  49  48  47  47  48  50  52  53  54  55  57  57  60  60  53  50  42  40  41  42  45  48  51  50  45  39  33  31  29  30  31  30  31  31  33  47  71  84  83  86  93  84  76  82  95 104 109 108 116 126 129 128 129 129 129 129 129 130 129 131 129 130 129
 133 133 132 134 135 135 134 136 137 136 137 138 137 137 135 136 137 135 133 134 133 132 131 129 116  71  61  54  51  51  49  50  50  49  49  52  53  55  54  54  57  58  51  45  42  39  37  37  43  47  46  41  33  32  32  30  28  25  23  19  20  25  34  44  68  86  90  90  94  98  91  86  86  95 102 108 109 118 126 127 128 127 129 127 128 128 129 128 129 128 128 128
 133 133 133 133 134 134 134 135 136 135 136 136 136 136 135 135 135 134 134 133 132 133 129 129 122  83  64  56  52  52  50  52  53  51  50  51  53  52  53  54  58  59  48  43  42  37  33  32  35  35  31  26  25  27  27  25  24  22  24  23  27  37  47  58  78  90  90  90  94  92  90  87  89  94 100 106 106 118 126 126 126 126 127 126 127 127 126 126 126 128 127 126
 132 131 133 133 132 133 134 133 133 135 134 135 135 134 134 133 133 132 133 132 131 131 128 127 122  98  65  56  53  51  49  51  53  52  52  51  53  53  53  53  56  58  48  42  40  31  24  22  22  21  20  24  25  26  27  31  35  38  38  46  46  48  54  65  75  85  83  89  93  91  90  89  89  92  97 104 110 120 123 125 124 126 126 126 126 126 125 126 126 126 126 125
 130 130 132 132 131 134 133 133 133 134 132 132 133 132 132 132 132 132 130 132 130 128 127 127 124 111  69  57  53  51  49  52  53  52  53  53  53  53  54  54  54  54  49  42  36  27  23  25  29  31  34  39  43  45  45  47  48  50  53  60  56  55  59  61  66  70  75  82  87  87  88  87  89  92  96 104 109 120 124 123 124 124 125 126 125 124 126 126 126 126 126 126
 130 130 131 132 133 133 132 134 132 133 133 131 132 131 131 132 131 130 129 128 128 128 126 126 124 118  87  60  54  51  52  52  51  51  52  53  54  54  54  53  53  52  48  43  39  38  40  39  38  40  41  44  44  47  50  52  53  55  60  63  58  52  51  51  55  58  64  74  81  84  86  87  86  93  97 102 109 120 121 121 121 122 121 124 122 122 124 122 123 122 123 124
 130 130 130 132 131 132 131 133 130 131 133 132 129 129 129 130 130 129 130 127 126 126 126 124 122 120 103  64  54  52  50  49  46  46  52  51  53  54  54  54  53  50  46  42  43  46  50  48  44  42  42  41  41  41  42  44  46  48  47  51  51  46  44  42  44  50  56  69  79  83  83  85  85  90  99 102 112 119 119 121 120 121 121 121 120 121 121 121 122 121 121 121
 130 129 130 130 130 131 131 131 131 131 131 131 129 129 130 129 128 127 127 126 126 125 125 123 121 120 113  77  55  51  49  49  48  44  49  50  53  54  53  53  54  51  48  44  44  49  52  51  48  45  43  42  40  40  39  37  37  38  37  39  40  38  36  35  37  43  52  66  77  80  82  84  88  93  99 104 114 126 121 122 121 121 121 120 121 121 121 121 121 120 121 121
 128 130 129 129 129 130 129 129 129 130 130 129 129 127 129 128 127 126 126 126 125 125 121 120 120 119 117  92  59  53  50  49  50  50  51  50  53  54  53  54  53  53  49  46  47  48  49  52  50  46  43  40  39  38  38  35  32  32  31  31  31  30  30  30  35  44  56  67  74  76  82  87  91  96 100  98  73 105 134 124 121 119 119 119 120 119 119 120 120 120 120 120
 129 130 129 129 129 127 128 129 128 128 128 128 128 128 127 127 125 124 125 122 122 123 121 120 120 120 117  99  63  54  50  50  50  51  50  50  51  51  52  53  52  51  48  46  47  48  47  49  48  47  43  40  37  34  32  30  30  28  26  26  24  26  28  32  40  51  62  71  76  79  86  89  92  97 100  93  46  57 100 133 122 114 112 112 114 115 116 116 116 119 118 118
 129 128 127 127 126 129 126 127 127 128 127 126 127 125 126 125 124 122 121 121 120 120 120 120 119 119 117 105  68  56  51  50  50  50  49  49  51  51  51  52  49  49  47  47  48  47  46  47  48  49  46  41  38  35  32  30  29  26  26  25  25  27  32  43  50  57  66  73  75  83  90  94  98 101 102  78  40  36  68 104 132  67  50  50  53  72  95 112 116 117 119 119
 127 127 126 126 126 126 126 127 126 126 127 126 126 125 127 126 124 122 120 120 120 120 119 118 119 118 115 108  72  58  51  49  49  49  50  50  49  53  51  51  47  46  47  48  48  46  43  46  46  47  47  43  39  37  35  33  32  32  30  31  30  34  43  51  58  63  69  75  77  83  92  96 102 104 101  58  35  28  49  82 126 131  51  31  32  36  54  70 103 116 118 119
 126 127 127 126 127 127 126 125 124 125 126 125 124 125 124 124 121 121 120 119 119 119 118 119 117 113 108  91  71  61  53  50  49  47  48  49  48  49  51  51  48  47  47  47  47  46  43  43  44  44  44  44  43  40  39  38  36  36  37  38  39  44  47  52  60  68  71  74  79  88  94  99 103 102  99  37  30  26  34  65 101 134 132  41  25  25  28  40  65  92 111 117
 126 124 126 125 126 125 125 123 123 123 125 124 123 121 120 121 121 121 120 120 118 117 118 117 110  95  78  64  62  60  54  51  48  45  47  47  49  48  50  51  50  48  46  48  48  46  43  43  45  45  44  44  44  44  44  42  44  43  45  45  46  48  49  53  57  68  74  76  81  89  95 101 104 103  83  29  21  19  22  48  87 116 137 139  57  20  20  23  37  67  87 101
 126 125 125 124 126 124 124 124 122 121 121 121 121 120 120 120 119 120 120 118 118 116 112 102  84  70  60  51  54  59  54  53  50  46  43  44  46  46  48  48  48  47  47  47  47  49  47  46  47  46  46  47  47  49  48  46  48  47  48  48  47  48  50  53  58  64  72  77  80  87  96  99 101  98  70  27  15  15  16  31  69 100 128 146 136  94  53  22  22  46  71  82
 125 125 125 124 123 124 124 124 121 122 122 122 122 120 120 118 119 118 118 119 116 106  93  77  71  68  57  45  46  62  57  53  50  47  43  40  43  44  46  45  47  47  50  49  49  48  50  49  50  49  49  49  50  50  52  52  52  51  51  50  45  45  49  52  55  63  70  78  83  85  95  97  97  94  49  27  13  11  11  18  49  91 120 137 138 101  98  82  25  33  65  79
 124 124 125 122 122 123 122 121 120 121 121 120 119 118 119 118 119 117 116 116 104  88  80  72  68  63  50  35  29  60  56  54  52  48  48  43  40  39  42  44  45  47  47  48  51  50  52  54  54  54  52  53  53  54  54  55  55  53  53  54  50  49  52  51  53  62  71  77  80  84  87  93  96  87  34  25  18  12   9  11  35  75 110 132 135 109  98 103  71  32  56  70
 124 123 121 123 123 121 121 121 121 121 120 120 119 118 117 117 117 116 114 103  92  83  76  73  70  59  38  24  20  55  58  56  50  50  47  46  44  37  37  38  41  43  46  48  49  51  53  54  55  55  54  54  54  56  56  54  54  55  54  54  55  54  53  53  52  55  65  71  74  80  80  82  88  67  28  23  18  13   9  10  23  63  99 127 134 123 106 105  97  47  54  69
 123 120 121 122 120 120 120 120 120 119 119 117 117 117 116 115 114 113 103  93  87  81  76  75  64  43  23  15  16  48  58  55  52  50  51  46  45  42  38  35  36  40  42  44  47  48  51  53  55  55  55  55  56  56  55  55  54  56  55  55  55  54  55  53  53  55  59  66  71  74  73  76  77  42  23  21  18  15  12  10  16  51  89 117 136 130 107 108 104  65  53  67
 121 120 120 120 121 119 119 120 119 118 117 115 115 115 115 113 109 100  96  90  80  79  77  71  49  26  15  11  11  45  57  54  51  51  50  49  44  44  40  37  32  32  37  38  39  46  47  50  53  54  56  58  57  55  53  53  53  55  55  55  52  52  53  52  51  52  54  58  62  64  64  68  62  23  19  19  21  17  13  10  11  33  71 101 131 134 109 104 104  74  53  66
 122 121 120 119 120 119 118 119 119 116 114 112 112 113 112 104  98  92  88  82  77  77  70  55  30  14  10  11  12  36  55  54  54  53  51  50  48  44  42  40  35  30  28  32  36  41  44  48  49  52  54  56  53  52  53  53  54  54  52  51  46  48  50  49  48  48  48  52  53  55  59  57  46  17  13  17  20  18  17  11  10  21  58  93 120 133 112 100  98  73  50  64
 120 120 121 118 119 118 117 117 115 113 106  90  75  82 104  96  91  88  86  81  81  74  61  39  18  10  10  11  10  26  56  56  54  51  52  52  48  46  45  41  39  35  32  30  30  34  38  41  45  47  48  51  52  50  51  50  48  49  47  45  46  44  41  41  42  42  43  47  49  50  52  58  42  14  12  15  19  19  17  13   8  15  52  86 111 131 118 101  92  69  50  62
 119 120 120 118 117 116 114 113  95  72  49  40  42  88  95  90  89  89  86  84  80  67  52  25  10   8  11  10  10  19  55  55  54  52  51  52  49  47  47  44  42  41  37  31  31  28  29  35  39  42  43  47  46  46  46  45  43  44  41  41  41  39  38  37  37  37  37  38  41  46  57  78  46  12  12  15  18  19  19  14   9  12  43  74 108 126 119  98  90  65  48  57
 117 117 117 115 114 105  96  71  50  37  28  54  98  94  91  88  88  86  85  80  77  61  39  13   8   9  11   9   8   9  52  54  54  53  52  52  50  50  48  46  43  43  41  36  34  32  29  26  28  32  38  41  40  39  40  40  38  38  35  34  36  32  31  31  30  30  31  35  45  62  75  79  44  12  12  12  15  22  19  17   9  10  34  68 102 128 121  97  82  59  41  57
 116 115 112 100  79  69  59  44  30  32  91 102  98  91  86  84  85  88  85  77  68  51  26  10   8   9  12  10   8   9  45  53  54  53  52  51  50  49  47  44  43  44  42  40  39  35  31  28  26  25  28  31  34  34  35  33  31  30  30  30  31  29  28  31  34  38  47  56  66  76  78  77  37  12  12  12  14  18  20  18  10   8  29  65  91 119 117  91  77  49  40  57
 111 100  76  66  64  52  40  25  24  80  96  96  93  89  86  82  86  87  82  77  61  41  15   8   7  11   9   8   8   8  40  52  54  53  52  50  49  48  48  45  42  43  42  42  41  36  34  32  29  27  26  27  26  27  29  29  29  30  28  31  36  45  49  47  53  55  58  65  72  77  78  69  33  11  10  10  12  16  19  19  12   7  22  64  90 109 109  84  65  38  40  52
  88  65  66  62  50  40  25  19  55  87  92  96  93  88  81  83  86  85  78  71  50  29  10   8   9  12  11   9   8   8  33  50  51  50  50  49  48  47  47  46  44  45  44  42  41  39  35  34  32  31  30  29  27  29  30  32  38  40  41  44  50  55  55  54  58  58  61  68  70  75  75  61  26  11  10  10  12  15  17  17  11   8  17  55  87 104 103  76  55  32  39  53
