P2
# Generated by OpenCV 3.4.0
92 112
255
 133 135 135 136 136 136 137 137 137 136 137 137 138 138 138 140 139 139 140 140 139 141 141 142 142 142 142 143 143 143 143 142 142 143 144 144 143 144 143 143 138 136 127 107 106 103  95  84  77  73  85  80  81 102 111 114 116 122 132 138 143 142 143 143 145 146 146 147 146 147 147 146 146 146 146 146 145 145 146 147 148 145 146 146 146 146 146 146 146 147 147 147
 134 135 135 136 137 137 136 137 138 137 137 137 137 140 141 140 140 139 139 141 141 141 142 141 141 142 142 142 142 143 144 142 142 144 144 144 143 143 142 138 130 113 100  99  76  65  63  60  67  74  68  72  67  70  74  82  88  98 104 114 124 128 138 142 144 146 146 145 146 146 147 146 146 146 145 145 145 146 147 147 147 146 147 147 146 147 145 146 146 146 145 147
 133 135 135 134 136 136 136 137 137 137 137 136 139 141 139 139 141 140 141 140 141 141 141 143 143 141 142 142 142 142 143 144 143 143 143 141 142 142 137 128 109 108 100  69  54  49  50  58  62  62  48  48  48  49  54  65  79  94  91  81  85  91  98 108 126 139 144 145 146 146 147 148 147 147 145 146 147 146 147 147 147 146 146 145 147 146 146 144 147 146 147 146
 133 134 134 135 136 135 136 136 139 138 138 137 139 139 140 141 141 141 139 140 141 141 141 141 142 141 141 141 143 144 142 143 142 143 141 141 138 138 128 107  95  99  61  47  36  46  56  63  52  41  45  45  46  56  60  59  58  61  65  73  75  89  89 107 105 116 131 143 146 146 148 147 147 147 146 147 147 146 145 146 146 146 146 146 146 145 146 144 145 145 147 147
 134 135 135 135 136 135 136 137 139 137 138 138 138 139 139 140 142 142 142 141 141 142 140 142 142 141 141 143 143 142 143 144 142 143 141 141 136 130 111 106 105  68  41  41  38  48  55  43  36  39  38  45  54  56  53  46  42  41  43  44  45  54  62  68  94  99 104 128 143 146 147 147 147 147 146 147 148 147 146 147 147 146 146 146 147 146 145 145 145 144 146 146
 133 134 135 136 136 137 138 137 138 138 138 138 139 139 139 139 140 140 140 142 141 142 141 141 142 142 141 141 143 143 142 143 143 142 140 137 134 118 110  96  85  43  48  32  37  43  37  34  33  35  38  40  41  40  38  35  35  36  35  36  37  38  43  49  56  75  99 105 136 144 144 145 146 146 146 146 146 145 147 147 146 147 146 146 145 146 145 145 146 144 146 146
 133 134 134 136 135 136 136 137 137 138 138 138 140 140 138 138 140 141 142 143 142 142 142 142 142 142 140 142 142 142 141 142 143 142 140 136 127 119  99  76  37  42  28  30  34  34  31  30  31  33  35  37  36  37  34  34  37  36  35  34  34  36  39  41  42  45  49  79 131 140 144 145 146 146 147 146 146 145 147 146 146 147 146 145 145 145 144 146 146 146 146 146
 133 135 136 136 135 135 136 136 137 138 138 139 139 138 139 141 142 140 143 141 142 141 141 142 143 143 142 142 143 142 141 141 142 141 138 130 122 107  68  37  32  26  28  33  33  29  27  27  27  28  27  29  32  37  38  36  35  34  33  34  32  33  38  38  36  37  40  54  97 135 141 144 144 145 146 146 145 145 147 146 146 146 146 146 145 146 146 145 145 146 147 147
 136 134 135 136 135 133 137 137 138 138 138 139 139 139 140 141 140 140 141 140 141 142 142 143 144 143 143 142 142 141 141 143 142 140 131 121 105  90  38  31  26  25  30  33  28  24  23  21  22  23  23  23  22  24  30  34  34  32  32  32  29  28  30  30  36  39  36  41  62  75  90 102 112 121 137 143 145 146 147 146 147 147 146 146 146 145 145 146 147 146 146 147
 133 134 135 136 136 135 135 136 138 138 137 138 139 137 139 140 141 139 142 140 140 142 142 143 142 143 143 143 143 144 142 140 141 140 134 115  95  46  30  26  21  26  32  30  22  21  21  18  17  18  20  19  17  21  21  24  28  30  29  29  26  26  25  28  32  36  39  41  46  53  51  54  60  57  69 116 142 146 145 146 146 146 146 146 147 145 146 146 146 145 145 145
 134 134 134 134 135 135 135 135 136 137 137 136 137 136 138 140 140 139 141 142 142 143 142 142 143 143 144 143 142 143 143 141 142 138 131 120  60  31  27  23  23  24  25  23  20  20  17  16  15  17  17  17  16  19  18  17  20  24  25  26  28  28  28  29  31  35  35  35  37  42  39  39  45  46  54  81 130 141 145 146 145 147 145 146 145 145 146 146 146 144 145 145
 136 134 135 135 135 135 137 135 137 137 138 138 136 137 137 138 139 141 142 140 142 143 142 142 143 143 143 143 143 143 143 143 143 140 132  82  30  26  24  18  20  19  17  16  15  16  15  14  14  15  15  16  17  17  16  15  16  17  20  23  23  28  31  30  30  31  29  30  30  32  33  36  37  41  48  60  88 128 142 145 145 145 145 146 145 146 147 146 146 147 145 144
 135 134 135 135 136 135 136 136 136 136 136 136 136 140 138 139 140 140 141 142 141 142 143 142 143 143 143 143 144 142 143 143 142 137  99  36  27  23  18  18  16  16  15  15  16  16  14  13  12  13  13  15  14  15  15  15  16  16  17  21  22  26  25  26  25  26  26  26  26  27  31  33  34  40  42  40  46  62 103 136 144 146 145 146 146 145 145 147 146 145 146 145
 135 135 135 136 137 136 135 136 137 137 138 136 136 137 139 139 140 140 142 142 142 143 142 143 143 143 143 143 142 142 143 143 141 125  49  31  24  19  17  18  18  16  15  15  15  15  15  14  13  12  12  13  14  14  14  15  17  16  16  18  18  19  20  24  25  25  25  25  25  32  31  31  38  36  34  36  40  46  56  99 137 144 146 145 147 145 144 144 145 146 147 145
 135 135 137 136 136 137 136 137 138 137 136 137 137 139 138 140 138 140 142 142 142 142 143 143 144 144 143 143 142 142 143 143 138  85  32  24  18  18  17  17  18  17  17  16  16  16  15  16  15  13  12  13  13  14  12  12  15  17  16  16  16  17  19  23  23  24  25  27  28  27  26  25  29  32  30  33  35  39  43  54  94 136 144 146 146 145 145 145 145 146 146 146
 135 137 136 135 137 138 137 138 138 137 139 140 140 140 138 140 141 142 142 142 142 143 144 144 144 144 144 143 144 144 142 141  99  37  26  19  18  18  16  16  17  18  19  18  20  19  17  15  15  14  13  13  13  13  13  12  14  17  19  19  21  22  22  24  25  26  25  24  23  22  21  25  32  31  29  29  33  37  39  44  49  81 132 143 145 146 145 145 146 146 145 145
 136 137 136 136 136 138 138 136 136 139 139 141 141 142 141 140 141 141 143 142 142 143 144 144 144 144 144 143 143 142 142 128  44  29  19  17  18  18  16  18  20  22  24  25  23  22  21  21  18  17  15  15  15  15  14  12  13  14  19  22  20  22  24  24  24  23  23  20  19  20  22  24  28  27  25  26  28  35  38  39  45  49  62 117 139 142 144 146 148 146 147 147
 138 137 136 136 137 138 137 138 140 140 139 140 142 141 141 142 142 142 142 142 143 143 144 143 144 145 144 144 143 142 139 102  34  22  18  19  17  16  18  22  25  32  36  38  36  34  32  30  28  26  23  21  21  19  16  15  14  14  16  22  26  25  26  25  24  23  21  19  18  18  20  21  24  21  22  24  28  32  34  38  40  40  45  53 110 142 146 146 148 147 147 146
 137 137 138 137 137 137 138 139 141 142 141 142 143 142 142 142 143 142 143 143 144 144 144 144 144 144 143 143 143 142 115  49  28  22  21  21  17  18  21  30  41  48  53  54  55  54  50  49  43  40  39  34  32  28  22  18  17  15  17  19  23  22  23  24  25  23  21  18  16  17  17  18  18  23  23  25  27  29  36  37  38  41  40  46  61 128 144 146 147 147 146 146
 136 136 138 137 137 138 140 140 141 142 142 142 142 143 142 143 143 143 144 143 143 144 145 143 145 143 143 143 143 124  48  34  25  23  21  18  16  21  35  49  58  63  70  72  75  74  73  70  67  66  60  53  48  41  33  27  21  18  16  18  19  19  18  21  21  21  22  19  18  17  17  17  20  21  21  25  25  30  36  36  37  40  37  41  52  90 141 147 147 147 147 146
 137 138 139 140 139 140 140 140 142 143 143 142 143 143 142 144 144 145 143 144 145 145 145 146 144 144 144 143 136  57  37  29  25  22  19  19  23  38  55  65  71  78  84  87  88  88  84  84  80  80  76  71  64  56  50  40  33  27  23  21  18  18  18  16  17  16  18  19  18  18  18  18  20  21  30  25  28  30  35  35  36  35  35  37  42  59 128 145 148 147 147 148
 139 138 140 141 139 140 142 142 142 143 144 142 145 145 144 144 144 144 144 145 144 146 146 146 145 145 144 134  75  44  34  27  22  20  19  23  42  62  74  82  87  91  93  95  95  96  92  92  91  88  86  84  80  71  66  57  52  44  36  30  25  21  18  18  18  16  17  18  18  18  18  21  22  23  22  20  24  30  34  34  36  34  33  33  41  43  82 138 145 147 147 148
 139 138 141 142 142 143 142 142 142 143 142 143 144 145 145 144 144 145 144 146 145 145 146 146 145 142 139  83  42  36  29  23  20  18  22  40  70  82  92  96  97  96  98  99  99  99 100  99  97  95  93  93  90  84  78  74  68  60  54  46  39  31  26  25  23  21  19  18  18  18  17  18  19  18  18  19  23  31  34  34  30  31  30  33  37  38  49 127 145 148 148 148
 140 141 141 141 143 142 142 142 143 143 143 143 145 145 145 145 146 145 145 144 145 146 146 145 146 136  82  41  36  29  25  22  20  23  31  72  90  95  98  99 100 101  99 102 104 103 104 103 102 100  98 100  97  91  87  82  78  74  68  61  55  50  45  41  35  31  27  24  21  20  20  19  18  17  17  19  24  29  32  33  32  31  28  33  36  34  41  82 142 148 148 148
 142 141 142 142 142 142 143 143 143 144 144 145 146 146 146 145 145 146 145 147 148 146 147 146 143  77  41  37  31  28  24  22  24  35  70  95 101 101 100 102 104 102 102 103 104 105 104 105 103 103 102 101  99  96  92  89  86  82  76  71  64  63  60  56  51  46  42  37  32  28  24  22  21  18  17  18  23  25  26  29  29  28  30  34  34  36  43  74 141 148 148 149
 142 143 142 142 142 143 143 142 143 144 144 145 146 147 148 147 148 147 147 147 148 147 147 144 110  44  42  34  30  28  25  26  38  68  88 100 104 106 104 102 102 101 102 102 100 102 103 105 103 103 102 102 100  96  96  93  93  89  85  79  75  69  68  67  66  61  59  55  51  45  37  32  28  24  21  21  24  26  26  25  26  28  30  31  32  37  43  72 134 146 148 149
 142 142 143 143 143 144 144 144 144 144 145 147 146 147 148 148 148 148 147 148 149 148 147 145  71  45  35  31  26  27  29  36  58  89  99 106 107 107 105 103 102 103 101 100  98  99 102 102 101 101 100  97  96  96  96  94  93  90  88  85  83  80  80  76  75  75  76  75  72  70  62  52  44  37  30  24  25  26  25  25  26  25  27  28  31  37  44  62 122 145 148 149
 143 143 144 143 143 144 145 144 145 145 145 147 148 148 149 149 148 148 148 149 150 148 148 133  47  38  32  27  25  26  34  51  84 102 107 107 104 105 103 103 100 101  99  99  97  96  97  98  99  97  94  95  94  95  97  94  91  89  90  87  85  86  86  85  85  84  85  86  88  89  87  83  72  62  49  38  29  29  24  22  26  27  28  26  27  34  41  51  85 139 148 150
 143 143 142 145 144 144 145 145 145 145 147 147 148 149 148 148 149 149 149 150 150 149 146 103  40  36  32  28  27  29  44  73  95 105 108 108 105 103 102 100 100  98  98  96  94  92  94  93  93  91  90  93  93  93  92  91  90  90  88  87  88  87  88  89  87  92  92  94  96  98  99 102 102  96  84  63  46  38  32  25  26  27  29  28  26  29  34  43  63 104 146 150
 145 143 143 144 144 145 146 145 146 147 147 146 148 149 149 149 148 150 151 150 149 149 144  64  41  33  30  28  29  34  56  86 102 104 105 104 104 102 100  98  96  96  95  94  94  90  88  87  87  88  87  89  89  89  89  90  90  88  87  87  87  89  91  89  89  93  95 101 103 101 103 107 108 112 108  98  81  61  48  28  23  23  26  27  26  27  31  35  46  66 132 148
 145 144 144 146 145 145 145 146 147 148 148 147 147 149 149 150 149 150 150 150 149 148 109  45  37  31  30  29  33  44  68  90 102 101 101 101 103 101 100  99  96  96  91  89  88  86  85  84  84  84  85  86  88  87  87  88  91  88  88  89  87  88  87  89  90  90  93  99 103 103 106 109 113 115 118 117 111 100  75  41  24  20  21  23  26  26  30  32  41  51  93 143
 145 145 146 146 147 146 145 146 148 148 149 149 148 150 149 150 151 152 150 150 151 146  78  44  33  30  30  31  38  55  79  93 100 100 101 101  95  93  98  97  94  95  93  90  87  88  85  84  85  85  83  84  85  86  84  82  86  87  88  87  85  86  86  85  86  86  90  96 103 104 105 107 115 118 119 120 120 117 100  64  30  20  19  21  26  26  28  32  38  58  64 138
 145 146 147 147 148 147 146 146 148 148 148 148 149 150 150 151 151 151 152 152 151 138  64  40  29  27  28  33  47  68  86  96  98 101 101 100  88  90  98  98  98  97  97  94  91  88  85  85  83  83  83  83  85  86  86  86  85  86  84  84  84  84  84  84  83  83  86  91  98 102 104 105 113 116 118 119 122 122 117  86  43  22  18  23  24  25  27  31  37  60  65 124
 145 146 147 147 148 149 148 148 149 149 149 150 150 150 151 152 153 152 151 152 150 129  55  37  27  25  29  37  62  83  95 100  98  97  99  99  96  99 101 102 100 100 100 101  98  95  94  90  88  87  87  88  89  88  88  87  88  86  85  84  82  84  85  85  83  84  86  88  93  98 100 104 110 112 117 120 122 125 124 107  62  28  18  22  25  23  26  28  39  53  76 120
 147 147 147 146 149 149 149 149 149 151 150 151 150 151 152 152 153 153 152 151 148 107  46  33  25  24  31  49  77  93  99 100 100  99  98  98  98 101 102 106 107 108 108 106 105 104 102  99  96  97  98  96  94  89  89  87  89  88  86  84  82  82  83  83  84  82  84  86  87  92  96 100 107 109 113 119 124 128 129 118  85  38  23  24  32  29  26  28  37  62  80 127
 147 146 146 146 147 148 148 148 150 152 151 150 151 152 152 153 153 153 152 150 142  90  42  29  24  23  35  68  89  95  99 101 101 101 101 100 100 103 102 106 112 115 112 113 113 115 113 108 106 106 103 102  99  98  95  92  91  93  91  90  88  86  84  84  85  84  83  86  86  91  93  97 103 107 109 115 122 127 127 122 103  54  30  27  39  36  29  29  41  68  83 136
 147 146 146 146 146 148 149 149 150 150 151 149 151 153 152 153 152 152 152 150 140  71  36  26  23  25  51  83  91  98 100 101 102 102 101 102 101 104 106 107 111 115 116 118 120 119 118 116 115 113 110 108 104 103 101 100  94  96  95  94  94  90  88  90  89  89  88  86  87  92  95  96  99 103 107 113 119 123 125 121 107  67  32  28  42  40  36  30  48  74  89 136
 146 147 147 146 147 148 148 148 149 150 150 151 151 153 152 151 152 152 153 150 138  53  34  26  23  27  66  89  96  98 100 102 102 103 103 104 105 106 109 110 113 116 118 118 120 121 121 120 121 120 116 113 111 105 104 103 104 101 102 103 102 100  97  98  96  94  92  91  90  95  97  99 102 104 107 110 115 121 123 121 110  75  39  30  39  39  40  33  45  73 107 135
 146 148 146 146 146 146 148 149 149 151 150 150 151 151 152 151 152 151 152 150 135  51  32  25  24  37  83  93  98 101 102 102 105 108 106 103 105 112 112 111 112 112 112 116 118 119 121 123 123 119 120 117 111 105 102 103 106 107 108 109 110 110 106 105 105 104 104 100  97  97  99  98 103 103 107 110 112 116 117 119 112  79  42  34  36  36  40  35  40  74 124 137
 147 147 146 147 147 147 146 147 150 151 151 152 152 151 152 152 153 153 152 151 129  52  33  25  25  57  88  95  97  98  98 101 108 103  93  87  90 102 103 104 102 102 104 106 110 113 115 115 119 118 118 115 113 110 108 108 109 110 111 114 113 111 112 110 109 108 106 107 106 106 104 101 103 103 106 109 111 114 115 115 110  83  46  34  32  31  38  38  38  84 139 144
 146 146 148 147 148 148 147 148 149 149 152 152 150 152 151 152 152 153 152 151 134  78  37  24  26  68  90  96  91  82  84  92  90  80  76  75  81  80  82  87  90  87  89  91  99 102 105 106 108 109 111 112 112 111 109 109 109 110 111 113 102  78 105 114 114 112 112 113 111 110 109 105 105 106 105 107 109 111 112 112 108  86  51  35  29  29  36  37  36  98 141 146
 146 145 147 149 148 148 149 149 149 149 150 152 150 151 152 151 152 152 152 152 145 108  38  27  32  80  93  94  84  75  82  92  84  79  69  66  63  63  63  66  71  75  77  82  86  88  92  94  96  96 102 106 106 105 105 106 108 106 107 105  97  80  99 112 115 116 115 117 119 116 115 110 107 109 105 106 108 110 110 111 107  86  52  37  27  26  31  34  39  89 142 148
 146 147 147 147 148 149 148 148 150 150 151 152 150 151 151 152 152 153 152 152 148 127  40  27  39  85  92  89  80  77  81  81  71  64  58  54  50  48  48  50  49  49  52  61  71  77  80  82  83  84  90  95  95  97  97  96  98 100  99  99  97  97 103 107 110 111 114 118 123 122 118 117 114 112 110 108 109 106 107 110 106  88  58  38  30  26  27  30  40  79 139 146
 147 147 146 146 148 149 149 148 150 150 149 149 150 151 151 151 152 153 153 152 151 130  40  27  46  89  94  93  86  80  68  62  53  50  45  38  35  32  34  36  35  34  36  43  53  62  69  73  74  75  78  84  85  87  88  87  87  89  88  89  87  89  93  98 101 107 110 116 123 124 123 122 122 117 110 107 109 106 108 109 104  90  60  37  31  26  26  28  41  68 140 146
 147 146 146 147 148 148 149 148 149 149 148 150 151 151 153 151 151 152 153 152 149 136  46  28  60  92  96  91  81  71  63  57  55  54  47  41  36  32  28  28  29  29  30  35  39  47  53  63  67  67  70  72  73  76  78  77  77  76  76  76  76  80  86  88  92  98 105 108 115 121 127 129 128 122 116 109 107 104 107 107 104  91  61  35  28  26  24  27  40  71 140 147
 146 146 148 148 148 148 149 149 149 148 149 151 151 151 151 151 151 151 153 152 149 134  44  33  71  96  93  84  77  66  61  55  52  48  47  42  39  36  34  30  27  25  26  28  31  37  44  56  59  62  65  66  67  68  68  68  67  65  65  66  65  68  73  76  80  84  91  94  99 109 120 126 126 124 120 112 108 105 105 105 104  92  62  35  27  26  24  28  40  75 138 147
 145 146 146 146 147 149 149 149 149 149 149 151 150 151 151 151 153 152 153 151 146  91  40  32  84  94  89  82  74  63  53  47  39  38  40  40  36  34  31  32  33  33  30  30  33  37  38  48  52  59  62  64  64  66  65  64  61  57  59  58  59  60  60  63  66  68  75  80  85  90 101 110 114 114 114 114 112 107 105 105 104  95  63  33  25  25  25  31  40  75 140 147
 145 145 145 147 147 147 146 148 148 149 150 149 148 151 151 151 152 151 151 150 128  74  39  41  94  97  88  79  68  56  45  39  52  47  41  34  31  30  29  27  26  30  35  35  34  37  39  42  49  58  61  63  65  64  61  56  54  52  53  52  50  49  48  45  48  48  50  52  57  65  73  82  92  97 100 110 112 110 105 106 104  98  62  34  25  24  26  30  39  86 140 147
 145 144 145 146 146 147 146 148 149 150 151 149 149 150 152 151 151 151 149 148 103  60  39  51  98  96  87  77  63  52  42  50  39  32  35  33  24  23  22  24  26  25  29  36  40  39  40  43  49  54  61  63  64  63  58  53  49  48  49  43  40  36  34  31  31  30  30  32  36  44  53  64  79  91  98  98 100 107 106 106 104  97  66  34  24  24  27  29  43 116 142 148
 145 145 145 145 146 147 147 148 149 149 149 149 150 149 151 150 151 150 150 147  83  48  36  65 100  96  84  75  63  51  44  32  36  52  60  36  34  32  22  20  23  28  27  31  38  42  42  44  49  55  62  65  65  63  57  50  48  46  42  35  32  31  29  25  24  24  23  24  27  31  36  49  64  78  84  91  94  99 103 105 104  98  66  34  24  24  26  32  57 137 147 149
 144 144 144 146 145 145 146 147 149 148 148 148 149 149 150 151 151 150 150 146  84  43  38  78 100  95  84  73  63  54  46  46  51  62  62  30  26  23  19  21  25  32  29  30  35  42  44  46  49  59  65  68  69  66  58  49  42  38  33  30  29  26  26  24  23  23  23  22  22  26  30  37  48  60  70  80  90  91  94 102 101  99  68  34  24  25  26  35  98 142 148 149
 144 144 144 144 145 145 145 146 147 146 147 146 148 149 150 150 149 152 150 148  79  48  40  90 102  94  83  73  67  64  63  60  55  60  71  38  25  24  22  24  29  40  32  32  35  39  42  46  55  63  71  75  74  72  59  47  39  35  31  30  28  29  28  28  26  24  24  26  27  28  30  31  37  49  62  77  85  89  91  96 100 102  65  30  24  25  29  46 129 145 148 148
 143 143 143 145 144 145 146 147 146 146 147 147 148 149 150 149 150 148 150 147  88  62  46 100 101  93  84  78  76  74  74  72  64  60  60  46  29  25  25  27  42  42  34  30  38  41  43  46  57  68  78  84  85  80  64  48  38  33  30  30  28  29  29  28  27  25  25  27  27  28  29  30  34  43  49  68  83  88  89  93  99 100  62  27  20  25  32  62 140 147 148 147
 143 143 144 143 144 146 146 146 146 147 147 148 148 147 149 151 149 149 149 148 106  76  57 101  98  92  88  83  82  78  76  76  74  69  61  55  53  49  41  43  43  36  33  35  42  49  49  49  59  72  88  95  97  89  72  52  37  32  30  28  27  26  23  22  23  21  19  19  21  23  24  27  30  34  42  55  73  85  89  94  99 102  59  27  22  26  30  85 144 147 148 148
 142 143 143 143 145 144 145 146 146 146 147 147 148 148 150 150 148 150 150 148 118  72  70 101  95  92  86  85  85  80  72  71  70  65  62  59  55  52  50  49  48  45  46  46  49  55  55  54  63  80  98 104 103  99  82  53  37  30  28  25  24  23  24  25  26  19  18  16  16  17  19  26  34  29  33  46  60  76  89  97 101 101  50  26  24  26  38 126 145 148 147 147
 140 142 143 144 145 144 144 147 147 145 145 147 148 149 150 150 150 148 150 147 100  62  76  98  94  94  87  86  82  80  74  64  59  58  58  55  56  52  49  48  47  46  47  50  56  59  62  62  69  91 105 110 112 108  88  55  35  28  26  25  24  24  27  36  32  21  24  20  15  18  27  20  36  45  28  37  54  73  86  98 104  98  50  24  24  30  67 141 146 148 147 147
 142 143 142 142 143 144 145 146 146 146 146 147 148 148 148 149 150 149 149 145  87  59  89  99  98  96  92  87  84  82  78  76  65  52  45  44  43  41  41  40  41  44  49  51  53  59  65  68  78 100 111 117 116 113  92  55  35  31  29  24  24  27  34  44  35  21  21  17  16  19  29  28  25  43  35  35  51  72  83  96 107  96  41  25  27  39 121 144 146 148 149 148
 142 142 141 142 143 144 145 145 144 146 146 147 147 147 147 149 150 150 151 144  90  66 100 101  99  96  95  94  90  86  82  81  73  68  62  58  55  55  54  54  56  56  57  58  57  64  71  72  86 110 117 117 120 118  93  57  44  42  38  35  30  29  33  39  37  25  21  18  18  20  38  42  29  33  45  37  52  71  85  96 102  94  41  27  28  59 132 145 146 147 148 147
 140 140 141 142 143 144 144 144 145 146 146 147 148 147 148 147 149 150 150 139  96  82 103 102 101 100  98  97  94  88  85  83  78  75  73  71  70  70  67  65  64  64  62  64  70  71  71  75  91 108 113 112 119 121  93  65  53  48  42  38  37  38  39  43  43  40  34  30  27  35  53  62  48  39  46  48  57  74  87  94 101  84  37  30  34  79 124 144 146 146 147 147
 141 142 142 143 143 143 145 144 145 145 146 147 146 147 149 149 149 149 148 140 103  92 102 102  97  98  98  96  94  88  87  85  82  79  79  74  73  74  72  70  72  72  73  72  73  72  74  80  90 101 108 111 116 116  91  74  64  54  45  40  38  40  43  47  50  51  49  48  51  54  60  76  77  76  62  65  69  76  90  99 107  73  35  30  43  61 117 145 146 146 146 147
 141 142 141 142 145 144 145 145 145 146 145 147 147 147 148 149 148 149 148 146 112 102 102  99  99  97  94  92  93  91  88  87  83  79  79  77  74  73  76  73  77  76  76  78  79  78  81  84  93  97 102 106 111 108  91  82  75  65  54  44  43  40  38  40  47  50  50  50  53  59  66  76  81  88  81  78  81  85  95 102 107  69  32  37  40  47 127 144 148 147 148 148
 141 141 141 142 142 144 144 145 144 145 145 146 146 147 148 148 148 149 149 147 120 103 101  97  97  99  96  94  92  91  88  87  84  82  82  81  81  79  79  78  79  81  80  82  83  83  87  88  94  99 103 105 111 104  92  88  84  76  68  57  49  47  42  38  36  39  42  44  46  50  57  68  76  81  79  81  88  93  97 105 109  56  34  55  48  88 140 144 148 147 148 148
 140 143 141 142 143 143 144 144 144 145 145 147 147 147 148 148 148 150 151 148 114 101  98  96  99  98  96  95  90  88  87  87  85  84  83  84  82  81  80  82  80  80  82  82  86  87  90  90  98 100 103 105 110 107  96  92  91  88  81  71  63  57  53  49  44  39  35  36  38  42  49  58  71  79  86  91  94  96 100 108 108  50  44  95  65 128 144 147 147 147 146 147
 140 142 141 143 143 144 144 144 144 146 145 146 146 147 147 148 148 150 150 148 118 100  98  98  99  98  92  87  91  89  88  87  84  87  86  83  81  81  79  80  79  81  81  84  89  90  92  95  99 102 106 109 115 110  99  97  96  95  91  80  75  75  69  65  61  55  52  51  52  58  69  79  86  88  92  96  97  99 103 108 101  48  57 100 104 141 146 147 148 147 147 145
 141 143 142 142 143 144 142 143 144 145 146 145 144 146 147 148 149 148 151 150 131 100  96  98  97  94  90  89  90  88  86  86  85  76  79  80  79  77  76  77  79  79  81  84  90  96  96  96  98 104 110 112 117 109 100  98  96  97  95  82  77  80  84  83  79  76  75  73  75  79  83  87  93  97  98  98  98 100 104 108  93  46  47  80 127 142 146 146 147 148 147 146
 141 142 142 143 143 142 142 144 145 146 145 145 146 146 147 148 147 148 151 150 143  99  93  95  92  90  88  86  86  85  83  82  78  69  75  76  75  71  74  75  77  79  82  87  93  98  97  96 102 109 112 113 118 109 103  98  97  96  93  88  80  79  84  90  92  87  88  87  88  88  88  93  95  98 100  98  98 101 104 108  85  42  38  64 125 143 146 146 146 147 146 148
 142 142 141 141 142 143 142 143 144 146 145 147 146 146 148 148 149 150 149 150 147  99  92  91  86  88  86  84  83  84  83  80  77  74  74  73  71  70  73  72  75  78  81  85  92  99  99  98 101 108 111 117 119 112 106 103 100  97  92  88  80  79  81  85  88  91  91  92  91  90  94  96  97  98  98  98 100 103 106 108  79  42  38  59 125 143 145 145 145 145 145 146
 142 142 142 141 141 142 143 144 144 145 145 146 147 147 147 149 149 149 150 151 146  97  89  86  81  82  83  80  81  80  78  75  75  74  71  69  67  65  68  69  70  75  82  85  91 101 100 100 104 106 110 113 118 114 107 103 102  97  91  88  79  73  76  80  84  87  94  96  94  91  94  98  96  97  96  99 103 105 104 105  82  42  45  74 134 142 144 145 145 145 145 145
 140 140 140 140 140 140 143 143 145 146 145 147 147 146 147 148 149 148 151 150 147  93  86  82  80  79  78  74  76  77  73  72  72  70  69  70  69  66  65  64  67  76  91  93  99 102 102 100 103 105 105 109 117 117 109 100  99  98  92  84  76  72  71  74  79  86  91  94  93  92  91  97  97  97  94  97 103 105 105 101  74  46  69 110 138 141 142 143 144 144 146 145
 141 140 140 140 142 141 142 144 144 146 145 146 147 147 149 148 149 149 150 149 144  91  83  78  76  74  74  74  73  71  70  69  68  68  67  65  65  64  64  63  68  87 101 100 101 102 101 102  99 102 102 104 114 120 115  97  99  94  87  78  74  72  71  72  74  82  87  90  93  93  92  96 100  98  96  96 100 105 106  97  84  83 105 134 139 141 141 142 143 144 144 144
 141 140 140 141 141 141 142 143 144 144 146 147 146 147 148 149 149 149 150 150 139  92  83  72  71  71  72  72  70  70  67  67  68  67  65  65  63  64  65  66  80  99 100 100 101 101  98  98  96  96  95  98 107 116 116 103 101  90  77  74  71  68  66  69  69  75  82  83  86  91  92  95  99  99  99  97 100 104 106  86 102 106 125 138 140 141 142 142 142 144 143 142
 140 142 141 142 142 141 141 143 146 146 145 145 146 148 149 148 149 148 148 149 139  91  79  70  70  69  68  69  68  70  67  66  64  64  64  62  61  62  65  68  95 102 100  99  95  93  93  94  90  88  88  92 101 108 116 109 105  90  70  65  64  63  64  64  65  69  74  80  81  89  91  91  95 100 102 100  99 101 101  72 103 120 135 140 140 140 142 141 142 142 143 144
 140 142 141 141 141 142 142 144 145 145 146 147 146 147 148 148 148 149 150 150 134  90  79  70  68  69  67  66  67  65  65  62  60  61  59  58  58  63  66  75  97  96  92  87  87  85  85  83  81  79  80  84  90  98 107 108 109  94  67  60  62  62  63  64  64  64  70  74  78  84  89  91  92  95  99 102  98  99  96  74 105 133 139 141 141 142 141 141 142 142 142 141
 140 140 141 142 142 143 142 142 143 145 145 147 145 146 148 149 150 150 151 149 131  89  78  69  69  68  67  67  66  64  62  61  60  58  56  57  58  61  64  72  82  82  74  75  75  75  74  72  72  69  70  71  76  84  91 102 109 106  63  55  57  60  60  62  62  63  66  70  73  78  80  86  88  91  97 102  99  98  92  83 122 135 138 140 140 139 141 141 141 140 142 142
 140 140 142 142 141 143 142 143 143 144 144 146 147 146 146 148 150 150 151 149 129  86  78  71  70  68  68  66  64  62  60  60  61  59  55  55  61  62  65  65  62  57  55  56  59  63  62  62  60  59  59  58  62  68  76  86 101 109  67  55  55  57  60  61  63  62  63  64  68  72  74  77  82  85  92  98  98  94  84 100 133 137 137 138 138 139 139 139 141 140 140 140
 140 142 141 141 141 142 142 143 143 145 145 145 146 146 147 148 148 148 150 147 126  85  77  73  71  69  68  65  62  61  64  63  60  58  55  57  61  62  60  59  49  36  30  33  42  49  52  52  51  48  46  45  47  50  57  69  91 103  73  54  52  54  55  59  61  58  60  63  63  70  70  73  78  81  87  93  95  94 100 128 135 136 136 137 137 137 138 137 138 140 140 141
 140 139 140 141 142 142 143 142 141 144 145 144 146 146 147 147 149 149 149 148 125  86  76  72  71  69  70  69  67  67  68  63  59  58  56  59  62  62  62  59  52  43  33  31  32  38  43  40  38  37  35  35  35  37  39  50  69  85  63  51  49  52  52  55  57  56  57  60  62  66  64  68  71  77  82  87  91 108 130 134 134 135 135 136 136 136 138 137 138 139 139 138
 140 139 140 140 140 143 141 141 142 142 145 146 148 146 147 146 147 148 148 147 127  83  75  72  70  72  73  73  68  69  67  66  64  61  60  60  62  65  63  60  54  51  42  36  36  35  38  37  33  33  32  30  28  27  28  34  47  60  52  47  46  48  50  52  55  55  54  56  57  59  57  61  67  72  78  82  87 118 132 135 135 135 136 137 136 135 137 137 137 138 137 137
 139 139 140 139 141 141 140 141 141 142 145 145 146 145 147 147 147 147 147 146 126  80  74  70  71  74  76  74  70  73  74  64  57  57  61  57  59  63  61  54  53  53  48  45  43  42  37  32  31  30  28  25  24  24  27  30  40  48  45  41  42  46  48  49  51  52  55  55  55  53  52  54  59  68  75  80  94 127 133 135 134 134 135 135 135 135 136 135 135 136 136 135
 139 138 139 139 140 140 140 139 140 141 144 143 145 143 146 146 146 147 146 147 134  79  71  68  70  74  77  74  74  77  71  54  49  51  52  52  58  62  59  60  57  53  50  48  49  45  40  33  30  28  28  28  27  31  38  45  44  42  37  36  40  45  48  49  50  50  52  52  53  52  47  49  54  63  72  81 101 129 133 133 134 134 133 134 134 134 134 133 132 133 133 134
 138 137 138 138 140 140 139 140 140 141 142 143 143 144 144 145 144 147 146 146 139  80  70  60  69  72  76  76  75  76  64  50  50  49  47  51  56  56  55  55  54  52  49  47  48  46  43  37  32  31  32  33  36  42  48  47  44  38  34  36  38  44  47  49  51  50  51  52  50  49  46  46  51  60  74  84 111 128 131 132 132 132 132 131 131 132 131 132 132 131 132 131
 138 137 137 138 138 139 139 140 140 140 142 141 142 141 142 143 144 144 146 144 140  85  70  63  70  71  77  75  73  70  59  49  43  38  44  56  64  64  60  58  56  50  50  51  47  43  38  36  35  33  36  39  44  46  52  52  50  41  35  34  36  41  44  49  50  51  52  53  50  46  45  46  50  61  77  86 122 129 130 131 130 132 131 130 130 129 131 130 131 130 132 133
 136 136 137 136 137 137 139 138 139 141 140 141 140 140 141 142 142 144 144 144 141  98  71  68  70  73  75  75  72  65  56  47  37  26  27  52  69  73  71  69  65  55  55  52  45  39  32  33  33  37  38  42  48  53  58  54  52  44  37  34  36  38  41  48  53  58  56  53  52  46  44  48  52  66  76  95 123 129 130 130 130 130 130 130 128 128 130 129 129 128 130 131
 135 137 136 137 137 137 138 138 140 139 140 140 140 140 141 141 142 144 144 145 142 109  74  70  69  70  73  75  73  64  56  52  51  48  35  32  48  61  68  71  71  65  61  54  49  39  32  32  34  36  40  46  52  55  56  51  56  51  41  34  37  38  40  47  56  66  61  58  55  49  46  51  57  71  78 104 126 128 128 129 129 129 127 127 128 128 129 128 128 129 129 128
 135 135 135 136 136 136 136 138 139 138 139 140 139 140 141 141 141 143 143 144 141 120  76  71  69  69  71  73  72  66  62  61  64  66  57  46  42  40  45  51  57  58  58  57  50  41  36  35  36  42  45  52  55  58  59  57  61  60  52  38  37  39  43  47  54  67  66  63  59  54  53  49  61  74  83 115 127 128 128 127 128 128 127 128 127 127 126 126 126 127 128 128
 133 134 136 135 136 137 138 137 138 138 137 139 139 140 139 140 143 142 141 140 139 133  82  71  69  71  71  70  69  65  64  67  70  71  68  56  55  48  39  38  41  41  43  46  49  46  44  42  42  46  53  59  66  68  65  64  68  65  54  39  35  35  42  49  55  68  66  64  61  58  55  51  64  74  92 121 126 126 127 126 126 126 126 126 126 126 126 124 127 126 127 127
 134 133 134 133 135 136 136 137 137 137 138 139 139 138 139 139 140 139 140 140 140 137  93  72  70  70  72  69  68  67  68  68  72  72  71  64  59  59  56  44  33  32  32  32  36  42  45  43  42  41  45  52  59  66  67  68  68  69  53  35  29  32  38  48  58  67  68  63  66  61  56  55  69  76 105 122 124 126 126 126 126 124 126 126 126 123 123 123 123 124 124 124
 133 133 133 133 133 136 136 137 137 138 138 138 138 139 139 139 139 139 139 139 139 138 111  76  71  70  71  68  68  68  66  68  69  72  73  70  62  59  60  57  50  34  27  23  24  27  30  30  29  27  28  31  35  39  43  42  42  41  29  22  24  30  39  48  58  68  68  69  66  62  55  61  69  82 113 121 122 123 125 123 123 122 122 122 123 122 122 121 121 120 120 120
 132 132 132 133 134 134 134 134 135 137 138 137 137 138 138 139 138 139 138 138 139 137 128  80  71  69  69  69  68  68  67  66  65  68  70  70  65  60  58  62  61  54  42  30  23  20  18  18  18  18  21  21  26  31  38  43  47  41  29  30  35  38  44  47  58  68  67  68  63  58  54  63  71  97 118 121 121 121 122 121 122 123 123 122 121 121 121 121 122 119 120 120
 131 131 133 132 133 132 133 133 135 135 136 137 137 137 137 137 138 138 137 137 138 137 133  98  73  69  70  71  68  68  69  67  67  67  67  66  66  60  57  54  56  59  55  51  46  38  33  28  31  33  38  51  58  65  70  68  68  66  54  47  46  47  46  48  57  67  68  68  62  56  57  65  77 113 119 120 121 120 122 121 121 121 121 121 121 120 120 120 120 119 120 120
 130 130 129 131 130 132 132 132 132 134 136 136 136 136 137 137 137 137 136 137 136 134 132 120  74  70  71  72  70  68  68  67  66  67  68  66  64  61  57  50  49  53  55  54  53  52  53  53  52  56  63  65  69  70  70  68  69  72  68  57  54  50  48  50  58  67  68  66  60  56  58  67  93 114 117 117 119 118 120 121 120 120 120 120 119 119 120 119 117 117 119 119
 130 131 131 131 132 131 132 133 132 133 134 134 135 135 136 136 137 135 137 136 136 133 132 128  90  72  70  71  70  70  69  67  65  65  66  62  60  57  54  49  45  45  46  47  48  50  53  54  54  56  56  58  59  64  66  67  70  69  68  67  63  54  50  53  60  62  65  66  59  59  63  72 106 113 115 116 117 118 119 119 119 118 118 118 119 119 117 117 117 118 118 119
 130 130 130 130 129 131 131 131 132 133 133 134 135 134 135 136 135 134 134 135 133 132 131 129 113  72  70  72  73  69  70  68  66  64  65  61  58  53  50  47  44  40  39  40  41  43  44  46  45  46  47  49  52  59  64  68  69  69  69  68  65  59  54  57  60  63  61  60  59  61  64  65  62  92 117 119 118 118 117 118 117 117 117 118 119 118 118 116 118 117 118 118
 128 128 130 129 130 130 131 132 132 133 132 133 133 132 134 134 134 133 134 132 132 132 130 129 124  85  71  71  72  71  71  70  68  66  65  61  56  55  49  44  41  39  36  35  35  35  37  35  35  35  39  43  50  54  59  64  67  68  69  68  64  58  57  59  60  59  60  57  57  63  67  39  31  40  81 116 115 113 113 113 115 113 114 114 114 114 114 115 115 113 114 115
 127 128 128 129 129 130 131 131 131 133 133 132 133 132 133 132 133 132 132 130 130 130 130 130 124 105  72  69  72  71  72  71  69  68  65  61  60  57  51  45  38  35  31  32  31  31  31  30  29  29  34  36  42  51  55  64  66  68  68  65  62  59  54  56  60  57  57  56  57  63  49  26  25  28  44  77 113  83  64  62  67  79  97 109 111 113 114 114 113 113 115 115
 126 126 126 127 129 129 130 131 130 131 131 130 131 132 131 130 131 130 132 131 129 128 129 127 125 122  86  69  70  72  73  72  71  69  67  62  62  58  54  47  43  37  32  30  28  29  28  28  28  28  29  35  42  52  60  63  65  67  67  61  60  59  54  55  57  56  55  57  58  60  29  23  24  22  30  49  93  95  34  29  28  35  44  68  99 112 114 114 115 115 115 115
 125 125 127 126 127 127 128 130 130 130 131 131 131 131 129 130 130 129 129 129 128 129 127 127 125 122 107  71  66  70  72  72  71  70  68  66  62  58  56  52  48  43  38  33  28  29  27  28  31  32  34  39  46  54  60  61  62  62  61  61  60  60  56  58  56  56  56  60  63  48  19  18  18  19  23  38  69 108  92  26  20  21  24  34  58  89 107 114 114 113 112 113
 124 124 126 126 127 127 128 129 130 130 130 130 130 130 130 129 128 128 129 130 128 126 125 124 119 105  83  69  64  67  71  74  72  70  68  65  62  59  56  55  52  50  47  37  32  34  34  35  37  41  43  48  50  52  55  57  60  60  60  59  60  61  57  57  57  56  59  62  75  51  19  14  15  18  20  31  54  89 118 104  32  17  16  20  32  59  81  98 109 109 109 109
 124 126 126 125 126 127 127 129 130 130 128 130 130 129 129 127 127 126 127 125 126 124 121 113  98  75  44  64  62  68  70  72  73  71  71  69  65  63  61  54  54  54  48  46  46  43  45  48  48  50  51  51  52  54  54  54  60  60  61  62  64  65  61  60  57  57  60  69  82  51  23  16  12  13  15  21  44  70 101 123 117  59  30  17  18  38  64  75  86 104 108 109
 124 124 125 126 125 126 125 127 127 128 128 128 131 130 129 127 127 127 126 125 122 115 104  94  78  57  35  62  63  66  70  72  74  72  72  70  66  66  62  59  58  54  52  50  49  46  49  52  52  51  51  53  53  54  57  57  59  58  62  66  67  67  61  60  58  58  63  75  85  49  21  19  12  10  11  14  31  57  90 115 126  90  70  54  19  25  52  69  76  80 102 110
 125 124 125 125 125 125 125 126 127 126 126 128 127 128 127 127 126 126 124 119 110 100  98  86  74  51  30  57  63  63  68  72  73  75  73  71  68  65  64  61  60  57  52  53  51  49  50  54  55  55  54  55  51  54  59  60  59  60  66  68  68  65  60  57  55  55  73  81  86  52  20  19  15  10   8  10  22  48  77 106 121 100  67  68  55  28  43  61  71  74  80  99
 126 125 124 124 125 125 125 126 127 127 126 126 125 126 126 125 125 124 117 111 100  97  94  81  59  34  23  52  62  58  65  68  71  73  72  69  67  65  65  63  62  55  49  53  52  52  51  54  57  56  58  56  57  57  60  59  63  68  69  68  68  65  60  55  54  66  76  80  86  55  18  16  17  10  10   8  14  38  63  97 115 111  78  76  71  38  40  56  66  69  69  73
 125 126 125 124 125 124 125 125 126 127 126 125 125 126 125 125 122 117 109 107 101  99  90  70  40  22  19  43  62  59  59  67  71  69  67  70  67  66  66  64  62  57  53  55  54  52  52  54  57  59  60  62  63  62  62  64  66  70  69  68  68  64  58  56  64  71  76  82  86  56  17  15  18  11   9   8   9  30  56  87 112 118  88  77  75  51  37  55  65  70  67  66
 123 123 123 124 125 124 126 126 125 124 125 124 124 122 125 121 116 114 111 104 102  97  78  41  22  17  17  40  61  61  54  64  69  67  68  68  67  67  67  64  62  59  56  53  52  51  54  55  58  62  60  63  63  65  65  68  69  71  69  68  65  60  57  60  67  72  76  80  86  58  17  13  16  14  10   7   7  22  46  72 109 121  94  78  76  58  37  55  61  65  66  66
 122 122 121 123 122 123 123 124 124 123 121 123 120 120 120 116 113 110 105 104 100  86  49  22  12  15  12  36  62  61  50  59  63  64  64  63  64  64  63  62  60  58  54  52  52  51  53  57  58  61  61  61  67  67  67  69  69  66  64  65  61  56  58  61  68  72  77  81  86  59  14  12  14  16  11  10   8  12  37  62  96 118 101  77  73  60  36  52  63  64  63  66
 121 122 124 123 123 122 120 122 119 120 121 121 123 122 116 111 110 104 104 100  93  60  27  12  13  14  12  27  61  60  52  53  58  59  59  59  58  58  58  55  50  52  53  53  52  51  51  55  59  58  61  63  67  68  66  66  66  61  58  58  54  54  56  60  66  72  76  81  86  62  14  11  12  18  13  10   8   9  30  55  85 114 108  79  69  58  35  49  60  64  62  62
 121 122 123 122 121 121 120 118 119 118 119 119 120 118 112 108 103 102  99  92  71  37  14  10  14  12  12  23  60  59  56  51  51  51  50  54  54  52  53  51  49  48  49  50  50  51  51  53  53  55  60  60  62  67  67  65  61  58  56  55  54  54  56  62  66  73  76  82  86  67  15  11  12  16  15  12  10   8  24  51  79 105 113  84  70  54  33  46  59  63  61  62
 120 120 121 120 120 119 119 108  88  75  79 118 117 113 111 109 106 106  98  82  49  19  11  11  15  11  10  22  58  59  56  54  52  47  46  47  47  45  46  47  46  41  43  48  48  48  47  52  53  54  56  55  57  64  66  63  56  52  47  52  55  56  57  61  66  73  78  83  85  66  14  10  11  14  16  12  12   8  17  43  75 104 115  84  67  52  30  44  55  61  60  61
 120 119 120 118 117  99  72  57  40  58 111 114 111 113 108 105 107 103  90  70  28  12  10  12  14  11  10  23  57  57  57  55  53  49  42  40  41  39  40  43  42  42  41  44  45  42  44  47  49  50  50  53  56  59  58  54  46  43  48  54  56  57  56  60  67  72  78  81  84  65  14  10  11  13  17  15  14   8  14  39  64  98 113  89  64  47  29  43  56  58  60  59
 116 117 115 102  79  60  44  45  88 120 115 111 112 109 108 107 102  96  81  53  16  10  11  15  13  11  10  22  56  58  59  56  54  54  50  44  40  36  35  36  36  36  38  39  41  37  41  43  42  44  47  48  50  52  51  45  39  47  55  59  58  58  59  63  69  73  76  80  83  59  13   9  10  12  15  15  15   8  10  36  62  90 104  85  59  41  27  41  55  58  56  57
 111  95  81  68  54  36  43 111 119 117 113 110 108 107 104 106  99  89  69  34  11  10  12  15  12  10   9  21  55  58  58  56  56  53  52  51  49  42  37  32  31  31  33  34  37  36  36  37  37  38  41  39  40  43  41  40  48  57  62  63  60  61  62  65  70  71  73  78  80  52  14   9   9  10  13  15  14   8   8  32  60  84  94  82  52  35  28  40  53  57  55  54
  74  72  61  50  33  28  94 111 115 114 111 110 106 107 103 101 100  81  55  20  10   9  14  15  12  10   9  19  55  57  56  56  55  54  52  53  52  51  50  42  41  35  32  30  31  31  31  32  32  31  31  32  34  35  44  54  61  68  67  64  61  62  65  62  68  72  74  77  78  48  12   8   8   9  11  14  15   8   8  25  56  82  90  74  45  29  27  41  53  59  54  55
