P2
# Generated by OpenCV 3.4.0
92 112
255
  78  78  79  81  81  82  83  83  84  83  85  83  84  84  85  85  85  86  86  87  87  88  87  87  89  89  87  87  89  90  89  90  90  89  90  88  88  87  87  87  85  85  83  83  83  81  82  82  82  81  85  83  83  85  86  88  91  93  94  99 101 105 105 107 111 109 110 113 110 112 113 112 112 112 112 112 112 110 111 109 110 109 110 110 111 110 109 110 111 108 109 110
  79  80  79  81  82  81  83  83  81  84  84  84  84  84  84  86  88  85  87  86  88  88  87  87  88  89  87  87  87  86  85  85  85  82  83  84  82  83  82  85  85  86  84  86  88  90  92  93  97 101 103 107 107 109 110 111 111 112 113 114 114 115 115 113 114 114 113 114 113 114 114 115 115 113 113 114 113 113 112 112 111 112 112 113 110 109 111 112 111 110 110 111
  78  80  80  82  80  81  81  81  83  82  83  84  84  84  85  85  85  84  84  83  83  83  81  81  82  82  80  82  81  83  82  84  86  87  90  93  95  98 100 101 101 106 108 110 110 111 111 112 114 116 114 115 115 115 115 115 115 114 114 116 116 116 114 115 115 115 114 114 114 115 114 115 114 114 114 114 113 113 113 112 112 112 112 111 112 110 112 112 110 112 110 109
  78  79  81  81  80  81  82  80  81  81  79  81  79  80  80  79  78  78  78  81  80  79  81  86  89  93  95  97  98 102  97 105 109 111 111 111 112 113 113 112 113 113 114 114 114 114 114 114 116 116 116 117 115 115 114 115 115 116 116 117 116 116 115 117 116 116 115 116 116 116 114 115 116 115 115 114 114 115 114 114 114 114 113 111 111 111 112 111 111 111 112 111
  74  73  76  74  73  73  74  74  77  77  80  79  81  84  88  90  91  94  97 100 102 103 107 110 109 109 112 111 111 109  93 111 116 114 115 114 114 114 115 115 116 116 116 117 117 117 115 116 116 116 116 116 116 116 117 116 116 117 116 116 116 116 116 116 117 116 115 116 115 116 116 115 115 116 114 115 115 114 114 114 115 112 113 113 112 111 112 111 112 112 111 111
  73  72  78  82  84  88  91  93  97  98  99 103 105 106 106 107 107 109 108 109 111 112 112 112 113 113 114 113 115 114 113 115 117 116 116 116 116 115 115 116 116 116 117 116 118 118 117 117 115 118 118 117 117 117 119 116 117 117 117 117 117 117 118 116 116 117 116 116 116 116 117 116 116 116 114 115 115 116 115 115 114 114 114 115 113 112 114 113 112 112 113 113
  96 101 100 100 102 104 103 105 105 106 106 106 108 108 109 109 111 112 111 113 112 112 112 113 113 115 114 114 116 115 116 116 115 116 116 116 117 118 117 117 118 118 119 118 118 118 118 118 117 118 119 120 118 118 118 118 117 118 119 120 120 117 117 118 117 118 116 117 118 119 117 117 117 116 116 116 115 116 115 115 114 114 114 114 113 114 114 112 113 112 112 113
 100 103 104 104 104 106 106 106 108 108 106 108 109 110 110 111 111 112 112 111 113 112 113 114 115 115 115 115 115 116 117 116 117 118 118 118 118 119 120 118 119 119 118 121 120 121 122 119 119 119 118 118 118 117 117 117 117 117 118 118 117 117 118 118 118 117 118 117 117 117 116 117 117 116 116 115 117 116 116 116 115 114 114 114 114 115 114 112 113 113 112 112
 102 103 104 104 104 106 106 106 108 108 108 108 110 110 111 111 111 112 113 113 114 114 115 115 116 115 116 115 115 115 116 118 118 118 118 118 118 122 124 126 122 122 123 125 124 123 122 124 122 120 119 120 119 118 119 120 118 120 119 118 120 118 118 119 118 117 117 118 118 118 117 117 117 117 116 116 117 116 115 115 116 115 115 114 115 114 114 114 113 114 113 113
 103 103 104 105 105 105 109 109 108 109 111 109 111 110 112 112 112 112 114 113 113 114 113 114 115 114 117 116 116 118 117 120 121 119 120 123 126 127 128 135 135 131 130 135 129 122 123 122 123 121 121 121 120 119 118 120 119 118 117 118 120 118 117 117 118 117 117 117 119 117 118 117 116 117 116 116 116 116 115 115 114 115 116 115 115 115 114 112 114 114 115 113
 103 104 106 108 107 107 107 108 108 109 112 111 111 111 111 114 113 113 114 115 115 116 114 115 116 117 118 117 119 118 119 122 121 122 126 127 132 133 132 147 144 140 132 145 132 127 128 128 126 125 124 125 120 122 120 120 121 120 120 119 118 118 120 119 118 118 117 117 117 119 118 118 118 117 118 116 117 116 115 117 115 116 116 114 115 116 115 115 114 114 115 114
 105 104 107 107 107 108 108 108 109 110 110 111 109 111 113 113 114 114 114 114 116 116 117 117 117 117 117 116 119 118 119 121 128 134 148 143 149 155 163 166 163 160 147 149 127 122 123 124 115 123 120 123 119 119 119 120 120 120 122 119 120 120 120 120 119 121 119 119 118 119 117 118 118 118 117 117 118 117 116 117 116 117 117 117 117 116 116 116 115 115 115 116
 105 104 106 106 109 107 109 108 110 110 109 111 112 112 113 115 114 114 115 115 115 115 116 117 117 119 118 119 119 119 122 131 145 158 175 180 173 181 175 171 177 168 162 148 135 138 135 120 111 116 110 110  99 101 104 113 118 121 121 120 120 121 120 121 122 119 120 121 118 119 119 120 119 118 118 117 117 117 117 118 117 116 116 117 117 117 117 115 116 116 116 116
 103 104 105 108 108 109 109 109 110 111 112 112 111 114 115 115 114 115 115 116 116 117 116 118 117 119 120 116 115 123 147 146 154 164 174 170 173 176 171 171 181 177 172 162 151 154 139 134 129 121 110 114 103  89  84  88 101 116 119 121 122 121 122 122 122 120 121 122 121 121 121 122 121 120 119 120 119 119 118 118 117 116 116 117 118 118 117 116 118 116 117 116
 105 106 106 108 108 109 110 111 111 110 112 113 113 113 113 115 115 115 114 118 117 119 118 118 119 119 117 115 124 147 154 154 153 152 158 163 166 170 178 180 181 188 187 180 174 163 150 146 138 124 118 121 116 104  98  94  90  95 110 119 122 121 121 122 122 122 122 122 122 122 121 122 122 121 121 123 121 122 119 119 118 118 119 118 118 117 117 117 117 117 117 117
 106 107 108 108 107 109 110 110 110 113 112 112 112 113 114 115 117 116 116 116 119 121 121 119 120 120 115 118 134 151 149 155 151 155 162 173 175 188 202 197 198 200 194 197 206 185 161 151 139 133 133 133 126 121 121 120 104  90  93 107 113 120 122 121 122 122 123 123 123 122 122 123 122 122 121 122 122 120 120 120 118 121 119 118 120 119 120 118 118 118 118 116
 106 109 109 108 108 109 109 111 111 112 114 115 114 115 115 116 117 118 118 117 119 121 120 120 122 124 118 127 156 155 152 167 176 190 196 203 209 222 231 224 216 208 200 202 203 175 163 156 147 142 140 141 135 132 131 128 116 105  93  87  95 106 121 122 122 123 122 123 123 123 123 123 123 123 122 123 123 122 122 122 122 122 120 119 121 120 119 118 119 118 117 117
 106 108 108 109 110 110 111 114 113 113 113 116 116 119 116 118 119 117 119 117 121 122 123 124 126 123 133 168 182 192 200 208 223 235 241 241 244 248 248 243 232 220 202 194 185 176 163 161 156 154 164 167 164 165 157 145 130 114 100  89  78  85 107 120 123 124 123 122 123 124 124 123 123 124 122 123 123 123 123 123 123 123 122 123 123 121 121 120 121 119 119 119
 107 108 110 110 110 111 112 114 114 114 114 117 118 118 118 119 119 120 120 121 124 123 127 126 121 119 167 196 224 228 229 238 245 248 248 248 248 247 242 235 230 220 201 190 184 180 176 174 174 179 179 181 181 179 173 167 156 142 126 110  92  77  83 108 120 126 125 126 124 125 125 123 123 124 123 124 124 124 124 123 124 122 123 122 122 122 122 122 122 122 121 121
 108 108 111 111 111 111 114 116 117 115 118 120 120 119 120 119 121 121 122 123 125 126 129 123 114 134 190 211 224 227 234 245 247 247 244 243 237 232 230 227 216 210 199 186 186 188 183 182 181 183 181 178 177 174 173 168 165 158 146 136 120  95  80  88 114 122 126 127 126 124 125 126 124 125 125 125 125 125 124 124 126 124 124 123 122 122 122 120 122 123 121 123
 111 111 113 112 113 114 117 118 118 118 120 119 120 122 122 122 123 123 124 125 127 126 126 117 127 180 207 214 214 219 226 234 240 233 229 229 222 221 220 213 200 198 189 182 181 181 180 179 174 179 178 175 174 169 164 161 160 160 156 151 142 124  93  85  95 122 126 127 128 128 126 126 125 127 126 127 127 126 126 124 125 125 125 125 124 124 125 123 124 124 122 122
 114 114 115 116 116 115 119 120 120 122 124 121 122 124 124 124 125 126 126 127 127 129 123 116 163 206 207 210 210 217 223 230 237 229 224 217 214 211 208 199 193 187 181 178 172 171 174 170 169 170 172 169 168 165 160 154 153 153 152 151 148 140 123  93  91 110 126 128 128 129 128 127 129 127 128 127 127 127 126 127 126 125 126 126 125 125 124 125 125 126 124 125
 116 116 118 118 118 120 121 122 120 123 124 124 126 127 127 128 129 128 129 129 130 127 123 153 202 206 208 210 206 210 215 216 221 219 216 207 200 196 191 184 181 177 173 172 172 170 169 168 164 161 163 159 158 151 148 146 144 144 146 146 146 145 142 128 101  96 120 127 129 130 130 130 129 128 129 128 129 129 128 128 128 127 127 128 127 126 126 126 125 125 125 126
 120 119 121 120 123 124 122 124 124 125 127 128 128 128 128 129 129 132 131 132 133 133 152 192 206 206 206 205 202 202 201 200 201 197 197 186 185 186 183 181 183 176 174 175 177 167 162 161 154 151 153 150 145 141 136 135 135 136 139 142 145 144 145 145 132  97  98 124 131 132 131 131 130 130 130 129 130 128 129 128 128 127 128 128 127 127 127 127 126 126 126 125
 122 123 123 124 125 126 127 127 128 127 129 129 129 129 131 132 131 133 134 134 137 151 186 204 206 207 204 202 198 192 193 192 188 189 185 184 186 182 180 181 177 170 167 166 161 160 157 152 149 148 145 141 134 130 129 126 125 126 131 134 141 142 141 143 137 120  88 103 126 131 134 132 133 131 130 131 131 130 128 128 129 129 130 130 131 130 129 128 128 129 129 128
 126 127 126 127 127 128 129 128 130 131 131 133 132 132 135 134 133 135 135 138 144 168 200 206 207 206 200 198 193 185 182 180 180 182 181 181 178 177 181 180 176 171 164 162 162 160 155 148 144 145 144 138 132 128 125 121 121 122 123 129 132 136 137 137 131 123 102  88 121 130 133 133 135 134 132 131 131 130 132 131 131 130 131 130 132 131 131 131 130 130 130 128
 128 130 129 127 130 131 132 133 131 134 133 135 134 133 135 135 137 138 138 141 146 192 204 206 209 205 199 192 185 179 179 180 179 178 176 180 183 185 184 178 170 165 161 164 165 159 155 146 145 148 147 141 136 130 124 122 121 121 124 128 130 133 132 131 126 123 120  99 109 131 134 134 134 133 134 134 134 133 133 132 133 132 132 134 133 133 132 132 132 131 131 131
 130 132 133 131 132 134 134 133 133 135 134 135 136 136 138 137 139 140 140 138 172 193 199 202 204 200 189 185 182 177 176 182 183 186 188 191 188 185 180 167 166 163 166 177 180 171 162 161 161 160 158 151 141 135 128 124 120 121 123 124 125 128 128 127 121 120 121 116 102 122 135 136 136 136 136 137 136 133 134 136 134 133 134 135 134 134 134 134 135 133 132 132
 133 133 134 134 135 136 135 136 136 137 137 138 139 138 141 142 142 142 142 157 187 191 194 198 198 194 187 185 188 190 193 191 191 190 191 196 190 189 184 183 179 174 176 186 183 169 165 166 167 163 157 152 146 139 136 132 129 128 126 124 125 125 120 120 117 117 120 120 112 111 132 138 136 137 136 137 136 136 135 136 137 137 136 136 135 135 134 135 135 134 132 134
 136 136 139 137 138 138 137 137 138 139 140 141 142 142 142 142 143 143 148 181 194 190 189 194 192 193 190 189 190 193 198 195 200 198 201 201 198 193 188 179 179 179 177 174 162 159 167 171 173 169 164 160 155 147 141 140 135 131 129 128 128 124 121 116 115 113 118 117 112 106 126 138 136 137 139 140 137 138 138 138 138 137 137 136 136 136 136 136 136 135 135 134
 138 140 141 142 141 140 139 141 141 142 142 142 143 144 143 144 146 145 162 191 194 191 188 190 190 191 191 193 195 194 198 201 204 205 203 203 201 192 184 176 174 172 171 170 169 170 172 175 176 173 166 161 155 150 146 144 143 138 134 130 129 124 119 117 115 114 117 117 112  97 102 135 137 138 138 140 139 138 138 138 138 137 140 137 137 138 138 138 137 137 137 138
 142 142 144 143 143 143 141 142 142 144 144 144 146 146 145 144 149 156 174 193 191 188 184 187 189 189 190 194 200 202 209 208 207 203 203 201 195 186 178 172 169 170 167 169 168 172 172 175 174 168 159 155 148 148 148 148 149 142 139 135 132 125 120 118 114 112 114 116 116 100  87 120 138 141 140 142 142 141 141 139 141 139 139 138 139 138 140 138 138 138 138 137
 144 146 147 145 148 148 144 144 146 146 147 149 149 147 148 147 152 165 184 191 188 183 184 186 186 191 194 200 204 206 207 209 205 198 194 190 179 171 163 159 158 157 158 155 160 166 167 167 163 157 146 143 142 143 149 149 149 147 141 135 129 123 115 117 116 113 114 115 114 107  81  91 137 141 142 143 142 142 142 140 142 141 141 141 140 139 139 140 139 139 140 138
 146 146 146 148 150 147 146 148 148 149 150 149 150 148 148 152 153 165 187 188 186 182 184 182 187 191 198 200 201 202 202 203 193 185 178 169 161 157 147 145 144 148 147 145 152 156 154 147 143 136 132 130 133 139 143 144 145 142 141 137 131 123 118 113 113 114 114 115 114 106  82  75 128 141 142 144 143 144 144 144 143 143 142 143 143 143 142 141 140 141 142 140
 150 149 151 152 152 149 150 151 151 151 151 151 151 151 152 151 143 159 184 184 183 184 185 185 188 192 198 198 195 190 184 170 163 149 147 146 139 138 134 134 135 137 138 139 143 142 138 131 125 123 119 118 124 127 133 132 131 134 130 131 130 125 118 117 114 113 113 114 114 110  88  70 107 142 145 146 145 144 145 145 145 144 143 144 144 143 143 142 142 142 141 141
 151 152 153 154 153 152 152 152 153 154 152 152 154 152 152 147 133 161 183 180 181 183 186 187 188 192 190 184 175 158 140 129 123 114 111 118 118 117 119 123 122 124 128 125 126 127 121 116 109 107 107 105 107 112 118 118 117 108 110 112 116 119 123 116 111 110 112 116 115 111  95  71  87 142 147 145 145 146 146 146 146 146 145 144 144 143 143 144 144 144 144 143
 155 156 157 157 157 153 155 152 153 153 154 153 156 157 158 136 125 164 183 179 178 180 182 180 181 179 167 152 131 108 100  96  98  92  92  97  97 101 105 110 110 113 114 115 114 113 110 105 100  96  96  91  92  98  95  94  92  88  84  90  97 105 115 110 110 111 111 116 115 112  99  75  79 142 148 148 148 147 148 147 148 147 147 145 146 146 146 144 144 146 146 146
 157 157 159 159 160 157 156 155 154 156 157 155 158 159 159 124 128 165 182 177 174 179 180 176 162 144 125 109  90  81  72  78  85  82  79  82  84  87  94 100 101 105 107 107 106 102  99  95  93  88  84  78  77  75  70  67  68  64  62  66  68  79  89  89  99 109 111 113 114 114 101  76  86 142 146 148 150 149 149 148 147 147 147 148 147 147 147 147 148 147 146 146
 161 161 160 160 162 160 160 158 158 157 158 158 159 159 160 123 130 162 176 178 176 175 172 158 137 111  94  87  77  72  72  74  80  82  78  75  78  80  86  92  97 101 104 102 100  95  94  89  79  81  76  70  63  64  62  60  59  61  63  66  73  79  85  88  89  96 107 112 115 115 104  82  81 144 149 150 151 150 150 150 151 149 150 149 149 148 149 148 148 148 147 146
 162 163 164 163 163 160 161 160 160 160 160 162 161 162 160 105 129 158 174 176 180 177 148 128 116 108  98  92  88  86  85  85  85  86  83  82  80  82  84  87  96  98 102  99  99  93  90  86  79  78  72  67  68  70  70  69  72  77  77  81  84  89  94  95  89  84  95 110 115 116 106  83  76 139 149 150 151 151 151 151 151 151 151 149 150 150 150 151 150 149 150 148
 164 165 165 166 164 164 162 162 162 163 163 163 162 163 144 104 127 155 170 177 182 170 137 129 125 119 106 100  95  89  85  85  85  85  88  89  89  88  88  91  95  99 104 105 100  91  90  86  82  79  76  74  75  76  75  76  74  75  76  80  84  91  97 102 103 100  96 106 113 116 107  84  72 134 151 153 153 154 154 151 152 153 153 152 152 152 151 152 152 151 151 151
 166 166 168 168 165 164 163 163 164 164 164 165 165 165 134 103 126 156 168 173 178 154 145 142 130 117 106  95  88  81  80  78  77  80  84  86  89  90  93  95 101 105 110 109 101  96  89  86  83  79  77  75  72  69  67  59  55  55  58  64  74  82  93  99 105 110 102 102 113 117 104  82  64 126 152 155 155 154 154 153 153 153 154 154 154 153 153 153 153 152 152 152
 167 168 169 170 167 166 165 165 167 167 166 166 165 167 120  94 121 157 168 174 173 147 146 137 121 107  93  78  62  54  50  48  51  57  70  82  84  85  91  99 108 113 113 112 109 103  95  90  83  77  71  69  66  53  44  38  38  36  40  43  48  65  79  89  99 105 104  99 110 113 103  77  66 114 152 154 155 154 154 155 155 155 156 157 155 154 154 155 154 153 154 154
 169 171 171 172 170 169 168 168 168 166 168 169 169 164  99  88 119 161 171 178 166 139 140 127 107  88  70  52  48  45  41  42  43  44  48  62  76  80  83  95 111 117 117 125 122 113 104  92  80  70  64  57  46  44  44  37  35  35  36  46  46  53  60  72  89 101 106 101 108 116 105  76  65 107 152 156 156 157 156 158 157 156 159 156 156 155 155 156 154 155 153 154
 171 172 173 174 172 169 170 169 170 170 170 169 168 154  91  78 115 156 173 179 154 137 129 115  94  70  54  55  51  43  43  43  47  51  50  50  56  66  77  90 109 123 133 141 135 124 115  93  74  64  54  46  47  50  50  40  37  33  51  53  65  50  55  67  82  93 102 108 111 116 103  74  64 111 150 156 158 158 158 159 160 158 160 159 158 157 158 156 155 156 154 155
 172 174 175 174 172 172 171 170 171 170 172 170 167 151  89  74 111 158 175 178 157 135 119 103  83  61  57  76  72  43  35  42  53  70  55  53  52  55  65  83 103 125 144 155 148 137 124  97  71  56  50  48  46  51  57  47  33  26  40  54  92  66  55  58  75  86  99 108 114 118 102  75  64 126 154 161 160 160 160 161 160 161 160 159 159 160 159 157 158 158 158 155
 175 175 175 175 173 173 172 172 172 172 174 172 169 163  92  73 106 155 174 173 159 134 116  97  77  68  68 111  74  46  30  47  64  84  68  48  48  59  61  78 103 130 160 171 159 148 131 101  70  58  49  39  43  54  66  59  55  50  57  81 102  79  63  62  69  83  96 108 113 117 105  76  65 129 154 161 161 161 162 161 160 161 161 160 160 162 161 160 160 159 158 158
 176 179 178 178 176 175 174 174 173 173 173 171 170 165 101  76  99 150 177 175 158 130 111  94  73  78  94 127  89  67  58  64  83  82  70  54  49  53  79  90 106 139 176 182 171 161 141 114  77  66  58  52  53  58  66  67  68  67  79  89  89  82  81  70  70  82  94 106 112 117 109  77  70 135 153 161 161 162 163 162 164 162 161 161 161 161 162 160 161 160 160 158
 179 179 180 179 176 176 175 174 174 174 174 175 174 172 138  80  93 146 179 177 153 126 113  96  83  94 101 109 108  89  77  74  73  70  67  62  63  70  85  99 114 167 193 196 180 170 151 122  96  75  62  60  60  60  65  67  69  74  78  85  88  89  93  87  79  84  91 105 111 117 109  82  72 144 155 161 163 163 162 163 164 161 163 162 162 161 162 162 161 161 162 161
 179 180 179 180 178 178 177 175 175 175 177 177 176 172 147  72  85 142 176 174 150 125 112 100 100 117 124 117 108  95  83  76  72  70  65  63  63  70  93 109 143 188 200 200 183 170 152 127 112  97  76  60  54  58  62  66  71  79  84  90  94  98 102 104  98  92  98 106 112 118 112  79  78 148 154 160 163 165 165 163 162 163 163 164 163 162 162 162 162 161 161 163
 180 181 180 180 179 176 178 176 177 177 180 178 175 173 152  70  92 138 178 173 150 127 114 108 120 131 131 120 109 100  89  81  73  69  64  59  67  84 104 131 177 191 191 198 185 168 146 124 113 105  98  80  63  59  58  62  68  77  85  92  94  99 105 109 109 104 105 110 112 119 115  80  98 152 155 159 160 165 165 165 164 165 165 164 162 162 162 164 163 163 162 163
 181 182 182 183 180 180 179 179 180 179 180 180 178 175 167  91  93 140 177 171 154 135 126 130 138 142 133 120 110 100  90  82  72  67  65  73  87 104 117 154 182 187 186 193 176 162 144 120 111 107 107 100  81  70  63  62  68  75  81  87  93  97 104 108 109 108 109 111 112 117 117  90 107 125 131 144 158 162 164 165 164 164 165 166 164 166 165 163 165 163 163 162
 181 182 181 182 180 180 179 179 180 180 180 180 181 184 187 116  88 141 176 173 166 159 148 147 147 139 127 115 105  95  88  77  71  72  82  93 105 113 134 167 186 188 195 195 173 158 140 118 109 106 109 106  98  85  73  70  71  75  77  84  90  98 105 110 110 111 110 112 113 117 121 103 110 109 114 115 143 162 165 165 166 166 166 166 165 166 165 164 165 166 166 162
 183 183 182 182 182 180 180 180 180 180 180 184 189 199 205 186 114 141 178 176 180 183 175 166 154 141 122 109  98  90  89  87  90  94 100 106 112 122 145 172 189 196 205 200 175 151 128 113 107 105 108 109 108 104  95  88  81  86  91  95  99 102 107 109 111 113 112 112 111 114 118 110 110  97  79  92 112 159 165 165 166 167 167 166 167 166 165 166 166 166 165 164
 182 183 183 182 182 181 181 181 181 180 181 175 143 129 141 165 148 150 179 180 187 190 188 181 173 159 147 131 116 105  99  99 106 106 106 110 120 131 156 181 191 201 217 208 173 151 128 113 106 104 107 109 109 111 111 109 109 105 105 105 107 109 110 109 110 111 111 112 113 115 117 107 101  77  67  65  85 152 166 166 167 168 167 167 168 165 166 167 166 165 167 166
 183 183 184 181 182 181 182 181 181 182 177 124  93  90  95 122 142 152 175 180 185 190 189 184 181 173 160 148 134 116 112 109 110 109 111 115 124 138 163 186 192 204 211 194 170 155 138 119 108 106 104 103 107 109 111 113 117 114 115 113 114 112 111 110 110 111 110 111 111 113 117 100  84  81  71  64  76 150 165 168 168 167 168 168 168 167 167 168 167 167 167 167
 184 184 184 184 182 182 182 182 182 181 161  98  79  81  91 113 123 146 172 174 182 186 188 189 184 179 169 158 142 130 123 116 112 108 112 118 124 137 175 191 198 204 192 175 157 150 142 131 120 108 101  96  98 102 109 114 117 119 121 120 118 117 114 112 110 111 111 111 112 113 117  96  90  98  80  62  77 155 166 168 168 168 167 167 167 168 167 166 167 167 166 166
 184 184 185 185 182 182 182 182 182 181 142  90  76  79 100 120 119 136 166 168 177 180 187 186 181 176 165 155 145 134 126 117 112 110 110 116 123 146 185 190 188 182 168 153 142 138 140 134 125 118 104  90  91  96 103 108 114 117 119 120 119 117 116 112 113 113 113 114 112 112 116  72  90 109  99  63  87 163 167 168 168 167 167 167 167 169 168 167 168 167 167 167
 185 184 186 185 183 183 182 182 184 181 138  86  73  79 121 135 105 103 165 168 170 172 178 175 172 169 162 154 146 135 126 120 112 108 111 113 119 168 184 183 176 159 142 131 124 122 123 126 122 119 110  90  83  88  97 104 110 114 115 116 115 117 113 115 113 114 113 114 111 112 113  62  71  91 104  69 103 163 168 168 169 169 169 168 169 170 168 168 168 168 167 167
 183 185 186 185 184 183 183 183 183 182 148  88  69  80 134 120  80  77 164 169 168 169 170 170 168 166 160 149 140 130 124 118 113 109 108 108 119 172 168 166 155 135 120 110 105 105 106 109 108 107 104  93  78  82  90  98 103 107 109 112 111 112 111 116 118 117 115 115 111 112 114  69  65  78 103  84 123 165 169 169 168 170 170 169 169 169 170 169 170 169 168 168
 186 186 185 185 184 185 185 183 183 183 176 103  78  99 132 109  83  74 158 167 165 166 167 168 166 158 148 141 133 129 123 115 109 105 102 102 120 154 138 134 129 115 105  96  94  95 100 100  99  96 100  91  74  80  84  91  98 102 105 108 107 107 108 112 115 117 115 115 110 114 108  62  60  69  96  98 147 166 169 170 168 170 171 170 169 170 171 170 170 169 170 169
 186 185 186 185 185 184 184 186 184 182 181 142  91 108 125  96  78  79 159 164 164 167 166 163 157 147 138 134 128 124 121 111 105 102 100  99 110 133 114 110 111 106  94  87  89  89  90  87  86  87  92  81  74  77  80  85  92  99 101 103 105 106 105 107 109 112 116 116 111 113 102  61  54  64  94 109 161 170 171 170 170 171 170 171 172 171 171 170 170 170 170 170
 185 184 186 185 184 184 184 186 184 182 182 172 106 109 119  86  73  80 142 163 162 162 157 154 144 136 132 125 124 120 114 108 104  98  95 100 106 112  98  73  92  99  91  86  85  82  82  72  59  77  84  82  77  78  78  78  87  92  97 101 101 101 101 106 108 110 112 112 112 113  96  58  54  71  99 120 167 171 172 171 172 172 172 171 172 171 170 170 172 170 170 171
 186 186 186 186 185 185 186 185 186 184 183 181 141 112 124  87  74  77 119 164 162 155 148 145 136 130 126 126 120 116 113 109 102  97 102 110 113 107  92  73  75  94  90  84  82  79  72  60  53  68  85  92  89  84  80  78  84  90  93  99 103 103 104 104 103 106 110 112 112 114 107  96  92 105 104 143 170 172 173 172 172 172 170 171 172 172 171 173 173 172 171 171
 186 186 187 186 185 185 186 186 185 185 185 183 167 126 137 129  91 112 136 160 156 147 142 138 130 129 126 127 123 122 120 107  98 100 111 123 128 128 103  87  89  88  89  82  76  71  64  60  62  79  89  92  93  91  86  81  82  88  92  96 102 102 102 103 104 104 107 109 112 116 111 118 106  96 110 165 172 172 173 172 172 174 172 173 172 173 173 171 172 173 171 170
 186 186 187 188 187 186 186 187 186 186 186 184 184 152 130 133 148 178 174 166 154 141 135 130 127 126 124 128 131 130 120 105 104 114 126 134 137 139 116  94  88  86  82  73  70  68  64  63  67  73  79  87  91  95  90  84  84  86  93  98  98  99 100 101 102 101 102 109 113 110 111 119 115 113 141 171 173 173 173 173 174 174 173 173 173 172 174 174 172 172 171 171
 186 187 187 186 186 187 187 186 186 185 186 187 184 180 145 127 161 181 171 159 150 136 129 128 126 128 131 133 137 128 111 102 114 128 137 143 142 135 117  82  71  74  73  69  72  68  64  65  62  59  63  69  78  86  88  85  85  86  90  98 102 101 101 100 100  97 100 107 112 104 106 117 118 122 161 171 174 174 175 173 173 172 173 172 172 172 172 174 172 171 171 173
 187 187 187 187 186 187 187 186 186 187 186 187 186 184 170 166 185 178 169 150 146 131 127 127 128 132 137 142 136 117 102 109 124 130 137 140 128 127 106  79  68  65  64  63  66  68  63  60  56  52  53  58  67  74  75  77  79  83  89  97 104 104 103 101  99 100 103 106 111 103 101 115 117 148 169 172 174 174 174 174 172 172 173 173 173 174 174 174 173 171 171 172
 187 186 186 187 187 186 187 187 185 186 187 186 186 183 183 170 172 179 177 150 142 129 126 130 132 136 143 141 128 106  99 114 121 124 132 126 113 105  88  75  65  61  63  57  58  59  61  55  50  48  48  51  64  70  70  62  64  73  88  93 104 107 105 103 102  98 102 104 111 101  99 106 141 169 172 173 174 173 174 172 172 173 173 172 174 173 173 174 174 173 173 172
 186 186 186 187 187 189 187 187 187 186 187 186 184 185 186 183 160 170 168 149 140 127 125 131 134 143 145 139 123 105  89 100 107 108 117 108  92  87  74  71  65  61  61  56  57  55  59  59  55  51  48  51  58  68  61  53  46  55  72  87  99 108 108 108 104  99 102 102 107  91  96 138 169 174 173 172 173 173 174 173 174 173 173 173 173 172 172 174 173 174 174 172
 186 187 186 186 187 187 187 187 188 188 186 187 186 185 186 184 179 152 138 127 134 125 126 133 142 150 146 139 116  86  79  82  88  89  92  88  79  74  70  71  71  64  60  54  49  52  54  57  56  58  56  58  55  67  63  50  43  43  53  71  92 106 110 109 105 102  99 100 109 148 164 170 174 175 173 174 174 173 173 173 172 173 173 172 173 172 173 172 174 173 173 173
 185 187 186 188 186 187 186 186 187 186 185 187 186 185 187 186 184 176 135 114 129 124 127 136 147 151 149 136  96  79  67  64  64  73  81  85  78  74  73  82  82  74  64  58  55  57  63  68  64  66  68  68  65  73  70  58  51  47  57  70  88 103 112 109 104  99  98  99 117 160 171 173 174 173 174 174 173 173 173 173 173 174 173 172 173 173 174 174 174 173 172 172
 187 186 188 187 185 187 187 188 187 187 186 187 186 186 186 185 184 183 181 181 163 127 125 132 146 151 149 124  92  67  54  52  57  72  86  90  84  78  77  80  80  79  74  72  72  69  67  65  60  65  68  67  69  71  66  48  50  52  61  74  87 104 111 108 100  97  96 101 118 160 172 173 174 175 173 174 174 174 173 173 173 172 172 173 172 173 174 173 174 173 173 172
 186 185 184 185 186 186 188 188 189 188 188 186 186 186 187 186 186 186 186 186 171 132 124 130 141 150 144 116  83  64  58  56  61  72  85  90  84  76  73  70  71  70  68  67  65  61  58  57  56  54  51  53  52  49  40  43  46  46  52  66  78  99 107 106  95  92  94 101 131 168 174 174 174 174 175 175 173 174 173 172 174 174 173 174 173 173 174 174 174 174 173 173
 184 186 186 185 186 186 187 188 187 188 187 187 185 185 187 185 186 186 186 184 178 138 121 118 135 144 134 105  78  61  48  43  50  52  57  65  67  66  62  55  51  51  49  47  44  44  44  43  44  53  59  62  62  60  61  63  55  49  50  62  79  96 106 108  94  86  92 100 138 169 174 174 175 175 175 175 174 172 173 173 171 173 172 174 174 173 174 175 173 173 173 174
 183 185 186 185 185 186 188 188 187 186 185 185 184 185 186 186 187 185 186 186 183 148 119 118 132 138 129 105  81  59  45  46  63  79  86  92 100 102  95  88  81  78  73  72  70  70  69  75  77  85  86  85  84  86  83  75  63  58  54  62  79  92 102 100  93  89  97 103 149 172 174 173 174 174 175 174 174 174 173 173 172 174 173 174 174 173 173 174 174 173 173 174
 184 184 186 186 185 186 186 186 186 185 185 184 184 186 185 185 186 187 186 186 184 163 118 114 122 130 124 104  81  61  54  56  71  92 107 107 110 110 106 100  94  88  86  85  80  82  81  81  82  84  85  91  97  98  96  88  73  62  57  62  76  91  98  93  86  88  96 105 151 172 174 173 172 174 174 175 173 172 172 173 174 174 172 173 173 173 174 174 174 174 174 174
 184 184 184 184 185 187 186 186 185 185 185 185 186 185 185 183 184 187 187 186 185 177 130 107 108 117 118 105  88  74  66  69  81  97 107 116 119 115 108  99  90  88  86  87  85  82  82  81  87  88  94  99 102 102 102 100  83  67  62  60  69  89  90  84  81  87  91 112 152 168 173 174 174 174 175 175 175 174 173 175 173 173 175 173 174 175 174 174 174 174 174 174
 184 184 185 184 184 184 185 185 184 186 185 186 185 184 185 185 184 185 186 187 187 182 147 108 106 109 118 109  91  82  70  75  88 103 112 123 123 119 110 104  98  94  93  94  91  89  87  89  91  92  94 100 102 105 104 101  85  69  62  56  63  84  85  77  72  84  88 124 160 170 173 174 174 174 173 173 175 174 174 173 173 173 173 173 172 174 173 173 174 174 174 174
 183 184 184 184 184 183 183 184 184 185 185 184 185 185 184 184 185 185 186 186 183 182 155 109 109 105 110 109  88  76  68  71  87 107 117 124 129 124 114 108 103  94  94  94  88  89  82  84  91  96  96 102 100 102 102  96  84  66  58  53  54  70  77  70  68  75  96 141 166 171 173 174 175 174 173 174 174 173 173 173 172 172 173 172 173 173 173 173 174 174 175 173
 183 182 183 184 183 183 183 184 184 184 183 184 184 184 184 183 184 186 185 184 181 182 164 112 106 100 105 105  93  80  68  71  79 102 119 125 121 119 109 100  91  80  77  83  76  72  71  72  77  83  90  96 100 100 102  91  78  60  50  48  47  55  63  61  70  77  97 155 170 174 175 173 175 174 174 174 174 174 173 174 173 173 174 171 174 174 173 172 175 173 174 174
 182 183 184 183 184 183 182 183 183 182 182 183 184 183 184 184 185 186 184 187 186 185 174 119 105  96  92 102  99  79  68  64  72  87 113 120 121 114 105  93  85  76  71  66  65  58  63  67  70  77  86  93  98  98  94  77  62  52  46  43  45  51  55  58  66  76  94 161 170 175 175 174 173 173 174 173 173 173 173 171 173 172 172 174 173 173 172 173 174 173 174 172
 181 183 184 184 183 183 184 183 183 183 182 183 184 182 184 184 183 184 184 185 184 185 176 121 100  91  79  98 101  82  69  66  70  81 104 117 118 108 104  97  86  79  67  66  56  53  57  65  70  78  84  91  97  98  90  67  53  49  46  40  39  48  54  56  59  68  94 165 173 173 173 173 172 172 172 172 172 171 171 171 170 172 172 173 173 173 174 173 173 174 173 173
 183 181 182 182 181 182 183 182 183 184 185 181 182 182 183 182 183 183 184 183 183 184 181 129  95  87  81  92  98  90  67  67  72  85  97 113 119 114 107  96  87  81  72  69  57  55  59  65  72  79  91  96  97  98  87  63  50  48  47  41  38  46  52  54  57  65 105 158 151 131 114 104 101  90  90  90  93  92 102 107 114 134 159 170 171 172 174 173 172 173 175 172
 181 180 180 183 182 182 182 180 181 183 183 182 182 183 184 182 183 184 184 183 183 183 169 114  90  81  72  81  97  89  71  64  72  83  99 109 120 116 112 104  91  89  82  73  66  66  64  74  81  84  90  98  98  93  85  61  44  43  40  38  40  48  53  48  50  68  74  43  40  42  40  38  35  36  35  36  36  36  36  37  42  43  47  71 109 152 169 172 171 173 172 172
 180 178 180 182 181 179 182 181 181 181 182 182 181 182 183 183 183 183 182 182 182 167  78  92  85  74  70  78  82  77  69  66  68  79  94 110 121 119 114 106  99  97  87  78  75  78  80  86  88  85  90  95  94  85  72  52  43  41  40  39  39  49  51  47  46  71  69  28  21  21  20  22  21  21  20  20  22  22  21  22  25  27  31  36  40  47  85 141 171 170 171 171
 180 179 180 179 181 179 180 179 180 181 180 182 181 181 182 182 182 182 181 181 163  76  55  84  94  68  62  72  75  66  66  76  74  80  88  99 119 121 113 109 104 100  91  87  85  88  92  88  87  86  93  95  86  69  60  48  42  39  40  36  36  43  48  37  43  73  71  26  15  14  13  13  14  13  14  14  16  14  14  14  16  16  19  23  28  32  38  44  80 156 170 170
 181 180 181 180 179 179 178 180 180 179 178 179 181 182 181 181 181 179 180 163  71  53  40  71 110  78  56  65  71  62  60  67  72  77  85  95 112 109 108 111 112 104  95  86  88  92  90  84  82  82  84  91  83  71  55  46  40  37  39  36  34  37  38  34  55  81  65  24  15  13  12  11  11  11  11  12  12  12  12  12  14  13  14  17  19  20  26  34  41  50 128 170
 179 179 179 179 180 180 178 179 178 176 177 180 179 180 178 179 177 178 162  81  54  40  30  61 116  96  57  49  56  52  50  53  63  74  79  91 100 103 108 113 112 104  94  81  86  88  85  80  74  78  82  90  86  69  48  43  40  38  36  33  30  31  31  30  65  89  68  16  14  16  14  11  10  10  10  11  12  11  11  11  12  12  12  15  15  16  19  24  28  37  44 120
 179 180 181 180 179 179 179 177 178 176 178 178 178 179 179 166 121  99  68  53  37  27  24  58 121 115  77  48  50  45  45  50  56  59  73  86  86  89  99 106 104 103  91  76  80  84  81  77  72  75  78  81  80  66  48  40  37  35  34  32  31  28  30  55  85  95  82  26  15  13  16  16  13  12  10  10  10  10  10  10  10  10  12  13  13  13  16  19  24  29  34  42
 178 179 180 179 178 176 177 178 177 176 177 177 175 176 137  82  84  71  52  40  28  23  24  63 124 119  94  51  45  42  41  45  48  52  63  79  76  79  88  94  92  94  81  71  73  78  79  76  75  75  73  72  67  55  43  34  33  33  31  29  29  29  34  78  91  96  96  80  27  17  15  14  14  16  16  13  12  11  10   9   9  10  11  11  10  12  14  18  19  22  26  34
 177 178 177 178 178 177 178 177 177 175 175 176 174 115  73  69  66  54  42  31  23  20  35  61 126 122 114  80  48  39  42  42  45  53  56  76  75  73  78  83  85  80  70  66  69  79  76  76  68  70  69  64  58  49  38  32  29  29  27  28  25  28  55  90  97  96  99 100  66  27  15  16  14  13  15  15  15  14  14  14  12  10  10  10  10  10  14  17  18  19  21  26
 177 176 176 177 175 176 176 175 175 175 175 173 126  65  60  59  53  43  32  23  22  27  38  56 125 124 123 106  70  38  39  34  44  45  52  61  57  59  65  67  70  70  67  68  67  71  68  71  62  57  60  55  52  45  36  30  29  30  26  24  25  41  84  95  99  99 100 103  95  49  21  16  16  13  12  16  15  17  15  16  17  15  12  11  10  10  11  13  16  18  20  24
 175 176 175 175 175 175 175 174 174 173 173 151  65  58  54  53  43  36  26  18  20  34  38  46 121 126 125 118  92  55  31  30  38  40  40  44  49  49  53  54  58  58  61  60  63  66  64  60  54  51  47  41  41  37  30  28  28  25  25  24  31  73  90  98 100  98  97 104 102  70  31  18  16  15  13  13  16  16  14  15  16  15  15  14  15  12  10  12  13  16  19  21
 174 174 174 174 172 173 170 149 128 116  98  77  57  54  54  47  40  29  20  19  25  36  33  33 120 125 125 116 101  65  32  31  33  34  34  36  39  42  44  43  43  44  54  55  53  59  58  53  42  40  37  32  31  31  28  24  26  24  23  29  60  88  94  98 100  99  98 103 103  86  44  23  16  16  14  11  13  16  15  13  14  14  16  16  16  14  14  12  12  15  16  18
 171 170 174 155 108  81  54  50  50  48  51  54  52  53  48  39  30  21  15  20  32  34  31  26 116 125 123 117 108  98  52  34  29  29  30  30  33  34  35  33  33  34  41  45  45  47  47  41  34  34  30  28  27  28  26  24  23  23  26  45  80  91  94  97 101  99  97 100 105  96  53  29  18  16  15  10  14  16  14  12  14  11  13  15  16  16  13  14  12  14  16  18
 172 135  73  44  41  38  37  38  40  41  49  49  49  51  44  35  25  16  13  23  32  31  24  22 108 124 118 116 110 103  92  51  28  26  27  25  29  31  28  28  30  32  32  32  33  35  36  33  30  30  27  25  24  27  26  22  24  25  41  65  84  91  96  98 100  96  94  97 103  99  65  34  22  15  14  12  13  14  13  12  10  11  12  14  15  15  15  13  14  13  15  17
  95  60  50  42  38  34  30  26  28  36  48  47  51  46  37  30  20  13  16  28  32  30  21  22  98 122 119 115 105 103  95  83  56  29  27  27  26  26  27  24  26  27  26  24  29  29  28  27  25  27  24  24  25  25  24  25  37  53  68  77  83  91  94  95  98  96  93  95 100 100  75  37  22  16  15  11  12  13  12  11  11  11  12  15  15  16  14  12  12  13  15  17
  54  49  46  41  36  32  32  29  34  44  45  48  52  41  33  22  15  11  20  32  32  26  17  18  88 121 120 116 107 103  94  91  88  71  52  34  28  25  26  24  23  24  23  23  25  27  26  24  21  26  24  24  28  35  41  54  73  74  79  83  86  90  91  95  98  97  94  92 100  98  81  40  24  17  14  11  11  14  13  11  11  10  12  12  13  15  14  13  12  13  13  15
  44  43  40  37  32  29  28  30  36  44  44  48  42  35  26  17  14  10  25  32  31  25  17  21  78 116 118 114 108 105  98  93  94  85  84  69  56  45  38  32  27  25  24  24  25  26  28  33  35  35  31  36  43  59  63  70  74  79  83  85  86  87  89  95  96  95  95  93 100 100  87  46  27  17  14  11  11  14  13  11  10  11  11  13  13  13  12  13  12  12  12  13
  40  41  42  36  31  28  27  29  36  41  46  50  39  32  24  15  12  13  29  31  25  20  16  21  69 114 114 114 110 104 102  96  90  86  86  85  80  81  70  66  55  48  37  30  30  36  41  54  60  58  51  55  61  66  70  73  73  79  81  83  85  87  91  94  94  95  95  93  98 100  89  51  28  17  13  11  11  12  13  12  10  11  11  12  12  12  11  11  11  12  12  12
  38  42  42  36  31  28  26  28  36  44  48  45  37  27  20  13  10  19  29  28  23  16  14  21  67 111 111 111 110 102  99 100  95  89  86  83  82  86  88  82  80  75  71  68  58  60  69  70  68  64  61  61  69  71  74  75  77  79  79  84  87  91  89  92  94  95  94  92  96  98  88  53  30  18  13  12  11  11  13  12  11  11  12  11  12  12  11  11  10  11  12  14
  38  41  40  36  32  26  26  28  36  45  47  39  32  21  14  11  10  23  30  26  21  17  12  20  56 111 113 110 108 105 102  97  94  91  85  79  80  84  87  85  85  85  85  80  76  74  72  72  70  65  65  64  67  72  73  77  79  80  83  86  89  89  89  92  92  92  93  93  93  94  85  53  28  17  13  11  11  13  13  10  10  11  12  12  12  12  12  10  10  10  12  12
  41  41  37  32  29  26  27  31  35  41  43  38  27  16  12   9  10  23  29  22  18  16  12  19  42 108 108 107 105 103 100  95  91  89  87  84  83  84  87  81  81  82  82  82  77  73  72  70  70  67  67  67  69  70  76  75  77  81  84  86  88  88  88  88  88  89  92  91  93  92  84  49  26  15  12  10  11  12  12  11  10  10  12  11  10  12  12  10  10  10  12  12
  39  38  36  32  29  26  27  30  32  38  41  34  26  16  11   9  12  27  27  20  17  15  12  17  29 100 103 104 103 102  97  93  86  83  81  83  84  85  83  86  79  81  82  79  76  73  70  72  67  66  69  69  69  73  77  75  77  83  85  86  86  86  87  86  86  88  92  92  92  91  78  45  24  16  13  11  11  12  12  10  10  11  12  11  10  11  10   9  10  10  12  12
  37  39  34  30  28  26  29  30  31  40  38  29  20  17  12   9  14  25  24  21  18  16  12  13  24  75  97  97  99  99  97  94  89  85  84  81  83  84  76  82  81  80  81  77  78  74  71  69  64  65  66  67  72  72  75  76  79  81  84  85  86  83  83  84  86  86  88  91  89  88  75  38  22  15  12  11  12  12  12   9   9  10  12  12  11  11  10   8   9  10  11  12
  35  34  33  28  27  27  29  28  31  39  36  29  20  16  14  10  14  23  21  21  19  15  12  12  23  44  93  92  91  93  93  93  92  90  87  80  84  87  83  80  78  75  77  76  75  73  69  66  63  65  66  70  72  73  74  76  78  80  80  81  80  81  80  84  84  87  87  88  87  81  65  34  21  13  12  11  12  12  12  11   9  10  12  11  10  11  10   9  10   9  11  11
  33  34  31  30  27  28  27  26  30  37  35  27  19  13  11  24  30  32  23  20  19  14  13  12  17  26  71  91  91  90  92  92  91  89  88  85  84  87  85  82  80  75  73  72  68  64  60  62  63  63  66  68  71  74  74  74  77  78  79  80  77  78  80  83  84  86  86  86  83  76  54  31  19  14  12  12  12  12  12  10   9  10  11  11   9  10  10  10   9   9  12  12
  34  33  30  32  28  27  27  28  31  36  33  25  20  13   8   9  16  23  21  21  18  17  15  14  12  21  29  77  88  88  87  89  88  88  89  86  85  87  86  84  79  74  73  71  67  61  60  64  62  65  65  70  71  74  75  75  76  76  76  76  76  77  78  78  80  82  86  84  80  71  46  27  18  13  13  12  12  12  11  10  10  10  12  12   9   9   9   9   8   9  12  11
  32  32  30  32  30  26  27  28  31  36  32  28  20  14   9   9  16  18  19  18  17  18  16  17  14  14  23  39  78  84  82  83  86  88  85  84  84  82  84  82  79  74  72  70  68  64  63  62  64  64  65  68  71  69  75  74  73  75  74  75  73  74  77  78  79  78  81  77  72  61  37  24  14  12  12  11  12  12  12  10   9   9  11  11  10   9  10  10   9   9  11  12
  31  31  31  29  27  27  26  28  30  34  29  27  16  12   8   8  13  15  17  17  16  16  17  18  14  12  16  22  43  78  79  80  83  84  83  83  81  81  80  80  77  72  70  67  67  65  63  62  63  64  66  67  67  70  72  71  71  74  72  73  74  75  74  76  76  75  76  72  64  50  30  19  13  12  12  12  12  12  11  12   9   9  12  12   9  10  10  10   9  10  12  12
  32  29  32  29  28  28  26  26  28  31  30  22  18  13   6   8  11  12  14  15  15  16  16  15  13  11  12  16  25  48  72  78  80  81  80  80  79  79  77  79  76  70  66  64  62  64  62  59  60  60  62  64  65  67  67  67  69  71  71  73  73  73  74  73  73  73  70  64  55  37  24  14  12  12  11  12  11  10  10  11  10  11  12  11  10   9   9   9  10  10  12  12
