P2
# Generated by OpenCV 3.4.0
92 112
255
  79  78  79  81  81  81  82  83  83  85  85  84  84  84  85  86  85  87  86  85  86  86  87  89  89  89  89  89  88  89  88  90  90  88  87  87  88  88  87  86  86  86  84  85  82  81  82  83  82  83  84  82  83  85  86  85  91  93  96  98 100 104 106 107 108 111 110 111 112 112 112 113 112 112 112 111 110 111 111 111 111 111 111 111 109 110 110 110 111 111 111 111
  78  80  81  81  81  82  83  82  84  85  86  85  83  84  85  86  85  88  87  87  88  86  85  86  87  87  88  86  87  86  87  85  84  81  84  83  82  84  84  85  84  84  85  88  88  87  90  96  98 100 104 105 107 110 109 113 113 115 113 115 114 113 112 114 114 115 115 114 115 114 115 114 114 113 113 114 114 113 113 113 112 112 112 111 111 113 112 111 111 110 111 112
  80  78  81  79  82  82  82  82  81  82  82  83  83  84  85  87  84  84  84  85  83  81  80  80  80  81  82  82  84  82  82  82  85  87  89  92  94  97  98 101 103 106 108 111 111 113 113 112 114 116 115 115 114 114 114 115 116 115 117 116 116 117 116 116 114 115 115 115 115 115 115 115 115 114 114 114 114 115 115 115 114 113 112 113 113 112 111 112 111 110 111 110
  79  79  80  78  80  81  80  81  80  80  81  80  79  77  79  78  77  76  76  80  80  79  81  87  89  95  92  97  99 100  95 103 109 112 112 112 113 114 114 114 115 113 113 114 115 117 116 118 117 117 117 118 117 116 116 116 117 117 117 116 117 116 116 116 116 116 116 117 116 117 115 114 115 116 115 115 114 114 114 115 115 113 114 113 113 113 112 113 113 111 112 112
  76  76  75  73  73  74  74  74  77  77  77  78  83  84  86  91  93  92  97  99  99 105 106 109 109 111 111 111 114 111  92 111 115 115 114 114 113 115 118 122 118 116 116 119 120 119 119 123 123 124 121 122 122 120 120 117 118 117 117 118 118 117 117 117 116 117 115 116 116 116 117 115 114 115 116 115 116 115 116 115 116 115 114 113 114 114 114 114 115 114 112 110
  73  73  77  80  84  87  90  93  96  98 101 102 105 104 107 107 107 109 109 109 110 111 110 113 111 112 113 113 114 115 114 115 117 115 116 119 119 119 119 127 126 125 130 137 148 153 167 170 165 177 179 152 132 137 143 138 121 121 120 118 118 117 117 118 117 118 117 116 117 116 116 117 116 117 116 117 116 115 116 115 116 116 115 114 116 114 114 115 114 114 115 113
  96  98  98 101 102 102 103 105 105 107 106 106 107 109 109 110 110 111 113 112 111 113 112 112 111 113 115 115 115 114 118 117 118 120 118 120 124 126 131 131 146 155 154 170 201 203 193 199 192 198 224 222 180 145 128 125 124 121 119 118 118 118 118 119 118 120 119 116 118 118 117 117 116 117 117 116 114 116 117 116 115 115 116 116 115 114 113 115 114 113 114 114
  99 102 103 103 104 105 104 106 108 108 109 108 108 109 108 110 111 110 112 113 114 112 112 113 113 113 115 116 116 115 117 118 118 117 120 124 131 145 155 171 179 186 195 206 194 193 185 186 189 195 196 186 186 179 156 133 124 124 124 121 118 118 118 118 118 118 117 118 119 118 118 118 116 117 118 115 116 116 117 116 116 115 116 115 115 114 116 115 115 114 114 113
 102 103 105 104 105 106 106 108 109 107 108 111 110 110 110 111 114 112 114 113 115 113 114 115 115 114 116 116 116 118 120 122 124 126 131 140 153 162 181 183 187 176 180 177 183 176 165 164 167 168 174 177 150 161 164 165 157 149 142 130 124 120 120 119 118 119 118 118 119 119 121 118 118 117 117 116 117 115 117 116 117 116 116 117 114 116 116 116 114 113 113 113
 104 106 105 105 105 107 107 107 108 108 110 110 111 112 113 112 112 112 113 115 114 113 114 115 116 115 116 116 119 122 126 130 132 133 144 155 168 172 173 172 166 157 153 148 155 157 155 148 149 152 157 163 153 140 151 161 171 176 176 149 134 124 120 119 120 118 119 120 119 120 119 118 118 118 118 117 117 116 117 116 118 117 116 116 115 116 115 116 116 115 115 114
 103 104 105 105 107 108 108 107 107 110 111 111 110 110 112 113 113 112 115 112 115 117 116 115 116 116 118 121 126 129 131 126 121 127 143 154 164 165 174 166 147 148 143 138 143 139 139 142 148 144 149 152 147 140 145 147 155 174 163 168 151 135 124 122 119 120 119 119 119 120 120 119 117 117 118 117 117 118 118 118 117 118 118 117 115 116 115 116 116 116 115 116
 104 103 106 108 107 108 109 108 110 109 110 110 111 112 113 112 112 112 115 114 114 115 116 117 118 118 122 134 129 127 127 138 138 145 155 161 165 165 156 153 151 137 132 133 141 138 135 142 145 142 150 145 146 142 141 152 140 150 156 150 158 147 128 124 120 120 119 119 118 119 120 118 118 118 119 118 117 119 118 118 118 118 118 118 116 117 117 117 116 117 116 116
 104 107 108 107 108 109 110 110 110 111 111 110 112 112 112 114 114 115 114 116 116 116 117 121 120 122 126 128 129 130 130 135 144 153 165 147 133 127 119 121 121 119 118 121 135 130 134 145 139 140 145 148 142 143 151 146 132 139 144 134 144 152 129 122 116 118 121 121 120 121 122 120 119 121 120 121 118 118 118 118 118 118 118 118 118 117 117 118 118 118 115 116
 103 105 105 104 108 110 110 111 111 111 110 111 112 112 113 114 115 116 116 117 117 118 120 120 122 120 124 127 131 138 143 155 163 166 161 138 114 116 118 119 122 116 113 123 126 129 138 143 139 145 148 146 140 140 144 133 121 135 134 133 137 134 135 110  99 112 119 121 122 121 122 120 122 122 121 122 120 120 119 119 119 119 120 121 119 116 116 117 118 118 117 116
 106 106 106 107 110 109 109 110 111 111 113 114 113 112 114 115 115 116 116 118 116 118 121 123 125 127 128 130 134 138 148 165 180 165 143 144 138 129 136 137 134 133 128 135 127 132 135 141 143 147 149 144 141 137 128 130 125 135 133 122 130 118 129  99  93  91 116 119 122 122 122 121 122 121 121 122 122 121 122 121 120 119 122 120 120 121 119 119 119 118 118 118
 107 107 107 108 108 107 108 110 110 113 114 114 114 113 114 115 116 115 117 118 120 123 119 121 119 121 126 130 134 147 163 181 173 164 153 157 171 165 161 166 157 157 155 143 138 140 137 140 146 147 146 141 139 134 130 119 134 124 125 118 122 118 112 105  91  85  98 116 122 124 122 122 122 122 123 124 122 121 122 121 121 120 121 121 121 121 120 119 120 119 119 117
 106 108 109 108 110 108 110 111 111 114 113 113 113 115 117 118 118 117 118 119 123 122 118 121 127 126 132 136 147 177 173 165 172 176 189 205 215 209 202 196 181 176 163 159 157 149 142 143 145 147 146 142 142 139 128 125 128 118 123 122 123 111 103 116  98  87  78  98 119 124 124 124 123 123 124 124 122 122 123 123 122 121 122 122 122 121 122 122 122 119 119 118
 108 107 109 109 109 111 113 114 112 115 114 116 115 117 119 119 119 118 119 122 125 125 121 121 127 139 144 136 151 171 195 196 204 216 217 234 247 243 237 216 203 192 179 170 165 162 159 152 154 145 141 140 143 133 131 130 125 128 120 121 116 105 109 133 107  93  78  79 102 120 124 123 123 124 124 124 124 124 124 124 122 123 122 122 123 123 124 123 124 121 121 121
 109 109 111 109 110 112 113 114 114 114 115 117 118 117 118 119 119 121 123 123 122 121 120 134 146 144 151 176 194 205 217 225 226 231 236 243 248 248 243 226 216 203 188 178 174 173 168 162 158 147 141 137 137 140 136 134 139 133 116 123 114 110 114 122 125 118 100  89  86  98 116 120 123 126 124 125 125 124 124 123 123 123 125 124 123 123 124 123 122 122 122 121
 109 110 114 111 112 114 115 117 115 118 117 119 120 119 120 121 123 126 127 119 118 119 130 149 152 159 190 209 212 220 225 224 222 224 230 234 243 244 238 229 219 206 192 179 181 183 175 168 164 162 155 141 141 137 135 135 153 134 123 122 116 115 116 121 125 125 111 100  89  82 100 119 124 126 126 126 125 125 125 124 124 123 123 125 125 124 124 125 124 123 124 123
 112 113 113 114 113 115 116 118 120 119 120 120 120 122 123 121 126 127 126 116 117 120 136 153 168 193 208 215 215 224 227 222 216 213 215 223 225 228 226 224 212 202 183 176 180 183 178 171 164 162 159 151 145 140 136 136 131 124 121 123 121 124 124 124 124 126 120 112 105  77  79 118 124 125 126 128 126 125 126 127 128 126 126 126 127 126 125 125 125 125 124 123
 113 115 116 117 116 119 119 120 120 120 122 121 123 124 127 125 127 129 120 120 124 133 152 169 193 205 210 211 210 215 217 208 206 206 209 212 211 215 217 207 198 188 178 175 175 169 168 165 160 158 156 156 149 140 136 128 123 126 125 122 121 128 127 129 134 131 124 120 118 102  81 103 125 126 130 129 129 128 128 127 127 128 127 128 128 126 125 125 126 126 124 124
 116 117 118 117 118 117 119 121 121 122 122 123 125 125 126 130 129 124 125 127 132 154 169 186 200 202 205 208 209 212 207 206 202 199 198 201 204 207 203 197 186 185 176 163 162 161 161 153 155 152 151 149 145 139 133 129 126 127 123 122 121 123 126 130 131 132 129 123 120 115  91  96 122 127 128 128 130 128 128 129 128 127 128 129 128 127 127 127 126 127 127 127
 121 120 120 120 120 122 122 123 124 125 128 128 128 128 127 128 124 120 121 135 157 174 191 199 199 199 203 202 205 204 201 200 201 196 196 196 198 195 191 187 185 178 168 159 153 151 149 145 143 144 139 138 131 132 129 126 122 124 122 121 122 123 125 127 131 132 132 126 121 119 107  92 121 130 130 130 131 129 129 129 129 129 131 130 129 129 129 129 128 129 128 128
 122 124 124 125 124 126 126 125 127 128 129 129 129 131 130 129 118 115 137 156 172 191 199 201 198 199 198 197 196 195 193 194 194 189 187 186 186 186 178 173 168 162 159 150 142 141 141 135 137 135 133 130 126 126 123 120 120 123 122 122 123 123 124 123 126 127 133 126 123 118 118  97 115 133 131 132 131 131 131 132 130 130 131 130 130 131 132 131 130 130 129 130
 126 127 126 127 126 127 128 129 128 130 132 132 131 133 133 122 108 118 146 164 181 203 206 203 196 193 193 192 191 190 192 192 186 186 184 181 175 173 170 163 155 145 145 135 136 135 133 131 130 129 125 123 123 119 118 117 116 117 117 118 120 122 123 123 125 125 125 124 119 118 118 114 104 129 134 132 134 134 133 132 132 132 131 131 132 132 134 133 131 131 131 130
 128 130 129 128 128 130 131 130 131 132 133 135 135 136 131 107 110 135 162 175 195 204 204 200 194 188 187 185 185 187 186 190 187 181 177 172 169 165 155 148 143 135 133 130 128 125 124 123 121 120 117 117 116 115 113 111 108 110 113 116 116 118 118 120 122 124 124 121 117 116 115 117 112 128 137 133 135 134 135 134 134 135 134 134 135 134 135 132 135 132 133 132
 131 131 130 131 132 131 133 134 135 135 135 135 136 140 120 107 120 152 171 186 191 196 200 196 191 186 183 182 181 182 181 185 184 179 169 165 160 150 147 139 129 125 124 120 111 115 112 107 112 113 110 111 108 108 107 108 107 109 110 113 114 114 116 116 118 119 121 118 115 113 115 115 119 130 136 135 137 136 136 135 137 136 135 137 136 135 135 134 135 134 135 134
 134 135 134 135 133 133 135 135 135 142 143 140 144 141 108 106 133 162 178 183 190 197 198 195 190 185 180 181 180 179 173 174 174 167 163 154 148 142 135 125 117 116 114 110 112 112 109 111 111 112 112 112 113 111 108 110 109 111 111 110 111 108 108 110 113 116 116 114 113 112 114 112 116 127 137 137 138 138 136 137 137 137 136 137 137 136 136 136 135 136 136 135
 136 137 138 136 138 137 137 138 139 148 142 140 147 131 109 116 140 160 166 176 188 193 194 190 186 183 178 176 174 170 170 167 164 155 152 146 139 134 125 115 111 112 111 107 108 109 107 108 110 112 110 111 107 107 108 108 107 107 107 109 109 106 105 108 110 111 110 109 109 110 111 113 114 123 137 140 138 138 137 141 138 138 138 137 136 136 138 138 136 136 135 136
 140 140 142 142 140 140 141 140 141 143 143 145 148 130 111 122 141 148 160 174 186 189 188 185 184 179 174 172 171 169 168 164 157 149 144 132 129 126 121 116 110 111 110 108 108 108 108 105 104 104 108 110 109 106 105 103 104 104 104 105 107 106 105 104 105 105 108 107 106 108 109 112 114 120 136 140 141 140 140 140 140 140 138 139 139 138 139 138 138 139 137 138
 142 143 143 144 144 143 142 142 143 144 142 147 143 117 110 116 124 138 158 171 185 186 182 183 180 175 172 170 168 164 163 162 151 146 139 130 127 125 120 115 109 112 112 108 106 105 103 106 107 110 110 110 108 107 104 102 104 102 103 104 106 105 104 104 106 105 106 107 106 108 109 109 113 118 132 142 141 141 141 141 142 141 141 141 142 140 140 140 140 140 139 139
 145 147 146 147 146 146 145 145 145 144 144 149 134 108 107 101 117 150 159 169 180 174 173 174 173 169 166 166 163 162 160 156 147 145 140 136 132 127 128 128 123 121 117 115 115 112 113 112 111 111 111 110 108 107 106 103 103 102 103 103 105 105 102 103 104 105 106 108 106 107 107 109 111 117 122 138 141 142 143 142 141 142 143 143 142 142 141 142 142 141 140 140
 147 147 149 151 150 147 148 146 148 149 147 150 131 106  93  95 120 142 162 171 177 174 169 170 169 167 165 162 160 159 157 154 151 144 142 136 134 132 132 132 130 127 124 122 122 118 119 119 114 111 110 107 106 104 105 102 103 105 104 102 103 105 105 105 105 107 108 106 107 108 108 110 112 116 116 133 143 143 144 144 144 145 144 144 143 143 143 142 144 141 142 141
 149 149 150 151 151 150 150 149 149 156 164 148 114  97  88 103 124 144 160 169 172 170 166 166 165 164 162 160 158 161 159 156 150 140 140 134 137 137 141 136 137 132 129 131 129 124 122 120 116 118 112 110 110 108 106 107 110 111 109 109 108 108 108 108 110 110 108 107 106 107 109 108 109 112 115 123 144 145 146 145 147 145 145 145 145 145 145 144 145 144 143 141
 151 152 154 153 153 153 152 150 150 154 163 139  97  83  90 108 132 143 160 167 170 168 163 163 162 160 160 159 160 161 158 152 145 138 136 135 138 141 143 141 138 136 136 140 136 129 129 123 120 118 115 116 115 112 110 111 118 121 113 110 110 109 109 110 110 110 110 110 109 111 110 110 111 113 116 118 143 148 146 147 147 147 147 147 147 147 145 146 147 146 145 145
 153 155 158 158 156 156 155 152 157 154 140 104  83  84  88 116 136 144 157 164 165 164 165 161 160 160 162 160 162 159 154 149 143 141 140 140 142 144 148 146 144 144 146 142 140 131 130 126 124 121 119 118 115 113 115 111 109 106 108 110 111 112 110 112 111 114 111 111 111 108 110 112 112 114 117 119 144 147 149 148 148 149 148 149 147 148 147 146 147 147 147 146
 157 156 159 159 158 157 157 155 156 149 117  88  80  81  98 119 133 148 160 162 162 162 162 158 157 160 161 160 159 161 156 149 147 142 140 142 144 143 146 147 150 148 147 143 138 131 127 126 122 121 118 113 113 113 111 109 109 107 106 110 115 115 115 117 115 116 112 111 110 109 110 111 113 116 119 124 145 150 150 150 151 148 150 150 148 149 149 148 147 147 147 146
 160 160 162 160 160 157 157 158 153 135  98  84  78  79  97 113 133 142 151 155 163 161 161 156 155 156 158 159 159 160 158 153 149 143 143 143 146 150 151 149 146 145 146 137 133 126 125 124 121 119 117 115 112 111 111 110 110 110 107 111 113 114 117 119 116 117 114 114 113 111 111 111 114 117 119 131 148 152 152 151 152 149 151 152 151 151 150 149 150 150 148 150
 162 163 164 163 162 160 159 158 149 128  85  72  70  76  95 119 131 139 146 149 156 158 158 157 154 154 158 158 160 160 154 153 153 146 146 148 150 153 151 145 142 140 138 132 126 120 116 116 115 111 112 112 110 109 109 109 112 108 110 111 114 116 116 118 117 116 115 116 114 115 116 115 114 117 119 132 150 153 152 152 153 152 152 152 153 152 151 151 152 152 150 152
 162 164 164 165 163 162 162 154 154 121  84  67  63  68  94 114 127 134 145 148 152 154 152 152 154 154 152 155 158 159 156 154 152 152 155 160 157 154 147 141 136 134 129 123 118 113 110 109 107 105 108 106 107 107 106 106 106 106 109 109 109 112 112 113 115 115 117 117 118 117 116 113 114 115 119 133 152 153 154 153 154 154 154 154 154 153 153 153 153 152 151 152
 166 166 167 168 166 164 164 159 146 110  75  63  57  70  98 108 120 133 145 150 151 150 152 153 155 158 156 157 156 158 157 157 162 165 163 161 154 147 140 131 129 125 118 114 108 110 102 102 104 103 103 102 103 105 102 100 102 103 106 107 108 109 110 110 111 113 112 116 118 118 114 115 114 117 121 137 152 155 155 156 154 157 156 154 155 155 154 154 153 154 153 153
 168 168 169 170 168 165 164 164 142  91  68  60  61  80 100 108 120 136 150 151 151 149 147 153 158 161 160 159 158 162 169 171 166 166 160 144 137 130 127 122 112 105 102  98  95  92  91  92  95 101 102 100 103 103 102 102 104 104 104 105 103 105 103 104 107 110 110 112 115 114 113 112 113 114 121 139 155 156 154 156 158 157 158 157 158 159 158 156 155 156 155 154
 170 170 172 172 169 166 165 163 156 111  68  69  69  87 101 112 121 134 148 150 149 145 148 152 161 163 164 164 170 177 179 173 164 150 134 126 118 106  95  92  77  76  81  82  81  80  78  85  89  92  96 100 101 101 100 101 101 101  99 102 101 100 100 102 104 104 106 107 107 107 109 109 109 114 120 143 157 157 157 157 160 159 159 158 159 159 160 159 159 158 156 155
 173 172 172 172 170 169 167 166 161 118  73  69  70  87  99 107 117 135 148 148 148 148 152 153 163 163 167 171 180 180 167 149 135 124 106  90  81  73  68  65  62  60  65  68  72  68  70  74  77  83  87  94  97  98  99  97  99  98  98  98  97  93  96  94  94  93  98  99  95  95  97  97 100 102 118 147 157 158 159 159 160 161 160 160 161 160 160 160 157 158 159 158
 174 173 174 175 173 172 172 169 160 121  72  66  71  78  93 104 125 141 147 148 151 154 155 162 166 168 176 179 171 154 125 110 100  93  81  71  70  67  61  58  58  55  59  67  70  64  63  68  69  76  82  88  91  94  95  93  95  96  95  93  91  88  85  82  82  81  81  80  80  81  82  82  86  91 108 150 161 161 160 161 162 163 161 160 161 161 161 161 160 160 160 159
 174 174 175 175 174 172 172 171 167 122  67  59  68  78  87 103 123 141 150 151 153 156 158 164 168 173 179 167 147 136 114 101  94  97  91  83  79  77  74  72  71  68  65  67  71  67  63  64  64  70  76  82  85  91  93  92  93  94  89  90  85  81  75  74  71  67  63  61  64  65  67  66  70  77  86 148 161 163 163 163 162 163 162 162 162 163 162 162 161 160 162 160
 175 175 177 177 175 173 172 172 164 125  71  59  72  77  86 102 121 140 153 154 154 157 162 167 172 178 167 146 133 123 118 111 106 100  94  87  84  84  82  80  78  79  77  76  79  76  73  69  70  71  71  78  83  88  90  90  89  88  85  83  78  73  70  64  59  58  58  55  55  58  59  64  70  78  84 133 160 163 164 164 163 164 164 163 165 163 162 162 164 162 165 160
 176 179 178 178 176 175 174 175 169 138  68  67  82  90  91  99 123 140 153 158 158 159 161 164 173 166 136 125 119 116 117 112 106 100  94  88  85  81  81  79  78  78  79  78  79  81  79  78  77  74  76  79  82  84  88  87  87  84  83  81  71  70  68  61  57  57  58  60  66  72  75  80  87  91  92 125 162 164 165 165 164 164 164 165 164 165 165 164 164 163 164 161
 179 180 179 180 180 180 186 193 199 180 114  67  85  90  94 100 127 146 160 163 162 161 161 165 159 145 129 122 118 116 112 107  99  90  87  80  69  64  60  56  56  60  65  70  73  75  78  82  82  83  81  84  83  84  86  87  87  84  82  79  72  71  67  64  67  68  71  74  77  79  82  86  92 100 108 130 164 165 166 166 166 166 165 165 165 166 165 163 164 164 164 163
 179 180 181 181 181 180 177 183 181 179 180 131  83  88  93 109 130 150 162 161 161 162 163 163 152 141 127 118 114 105 104  99  86  69  60  53  56  54  54  51  53  51  48  50  62  70  72  75  80  85  86  88  88  89  90  88  87  85  84  79  73  69  65  63  61  59  62  65  69  73  78  84  93 102 111 139 166 166 166 167 166 168 166 166 166 167 166 167 166 166 165 166
 181 180 181 183 169 139 119 118 122 128 139 140 111  92  96 112 128 149 164 163 164 163 165 159 141 128 119 113 106  97  92  78  65  69  66  53  43  42  41  44  47  51  53  50  50  57  61  68  70  79  86  91  90  92  91  88  87  86  85  81  66  57  49  45  44  45  48  49  55  60  67  78  85  98 117 154 166 166 166 167 166 166 167 166 166 167 168 166 167 167 165 166
 181 182 181 176 131  97  86  86  95 101 110 122 121 116 114 120 136 157 167 167 166 162 160 146 129 119 113 106  98  88  73  69  70  58  67  55  40  30  34  44  61  64  53  52  49  49  51  58  66  74  86  93  94  90  91  92  91  89  87  68  48  45  46  41  36  37  43  47  53  63  63  68  78  96 130 161 166 167 167 167 168 167 167 167 167 167 167 166 167 166 166 166
 184 184 182 158 102  84  80  83  87  96  97 108 115 118 125 122 142 162 168 165 164 165 158 139 124 116 108 100  90  76  69  74  62  94 101  50  33  26  26  47  62  78  61  49  49  50  47  51  59  71  82  92  98  95  96 100 101  96  84  52  48  45  41  33  32  38  40  66  66  54  61  72  78  99 145 166 167 168 168 168 168 168 168 168 168 168 169 169 168 168 167 168
 182 183 181 140  90  77  75  78  87  99  86  83 113 113 125 126 146 164 167 166 165 164 152 134 122 114 104  94  85  76  75  89  83 100 111  54  49  29  32  56  72  86  66  50  47  45  53  50  55  68  76  92 102 104 103 106 106 103  77  50  38  43  38  32  23  23  36  59  91  80  58  61  80 107 155 167 169 168 168 170 170 170 169 169 168 169 169 168 168 168 167 166
 183 182 180 138  85  72  71  79  99 106 106 100 110 110 119 130 152 170 167 166 166 161 147 128 118 110 103  94  88  86  96 106  98  88 101  84  53  46  47  63  86  80  59  46  44  42  50  57  55  68  77  94 106 107 104 105 108 107  82  42  36  42  38  33  22  27  40  61  97  98  73  67  81 110 162 169 169 170 168 169 170 169 169 170 169 169 170 170 170 169 169 168
 183 183 182 153  89  69  68  87 118 119 113  82  73 104 112 133 153 168 168 166 164 159 147 132 120 111 107 106 108 108 115 121 108  94  88  81  69  60  64  70  70  66  60  52  50  51  52  57  61  71  85 100 108 109 106 107 109 111  86  54  43  43  43  38  36  39  45  76  99  91  83  81  91 118 163 169 170 168 170 171 169 172 170 169 169 169 169 169 168 169 169 170
 183 182 183 178 107  76  70 106 122 111  90  67  64  79 110 133 149 161 166 163 162 160 151 138 125 116 112 111 112 115 120 123 116 105  93  81  76  72  68  66  65  62  60  54  52  50  52  62  74  82  88 103 111 111 108 107 109 112  95  60  52  49  51  52  48  50  72  89  88  85  92  94 104 125 166 168 170 169 170 170 170 170 170 171 171 171 172 171 170 170 170 169
 184 185 184 181 146  88  77 112 112  94  80  67  65  74 118 137 144 156 160 160 162 160 155 146 139 128 122 116 115 118 120 121 119 111 103  92  87  82  74  70  67  63  54  52  52  56  63  76  84  92  94 106 112 109 107 105 106 114 104  64  51  52  51  55  58  65  73  82  79  81  98 107 111 128 167 170 170 171 170 172 172 171 170 171 172 173 171 170 170 171 170 170
 185 185 184 184 175  99  81 112 103  84  71  70  70  75 132 136 141 147 154 155 158 158 154 150 145 142 134 127 118 116 118 117 112 110 103  95  88  83  77  71  65  61  56  57  63  72  80  87  90  98 103 110 113 109 107 103 104 114 108  85  58  50  54  60  63  68  71  78  85  96 110 110 113 135 167 172 171 171 172 172 172 172 172 172 173 173 172 173 173 173 172 170
 185 186 185 183 181 132  90 108 102  75  63  67  69  80 127 133 142 149 151 152 154 153 151 150 148 149 144 134 121 116 114 113 110 108 100  93  88  82  78  70  64  62  63  69  77  86  87  91 101 105 111 117 115 111 105 104 107 109 109 100  78  61  56  59  66  70  79  84  90 102 112 111 114 133 168 173 173 172 173 174 172 172 173 174 173 173 173 173 174 172 171 171
 185 187 186 185 182 168 102  99 105  74  61  61  65  74 111 130 144 144 148 149 152 148 148 147 148 150 144 135 128 121 112 109 109 105  99  92  85  81  77  72  69  71  75  83  88  91  95 102 109 113 116 118 113 108 103 103 105 106 107 103  94  77  66  64  67  72  80  86  93 104 113 115 115 142 170 173 174 174 174 172 172 173 173 173 173 173 173 174 173 174 173 174
 186 186 186 184 184 182 134  99 115  93  74  64  66  70  84 123 143 142 144 147 148 146 139 143 146 144 141 136 128 123 117 110 107 104 100  93  88  82  80  80  79  82  87  89  92  94 102 108 114 113 117 115 111 106 101 101 106 107 104 105 103  92  75  69  73  79  82  90  98 110 114 115 118 149 172 173 173 173 173 173 174 174 175 173 173 174 174 175 174 174 174 173
 186 186 187 184 185 183 174 112 100 107 102 107 114 106  81  95 140 142 145 148 149 145 140 140 141 138 136 133 131 126 120 112 103 103  98  94  87  84  84  86  89  91  91  93  99 102 106 112 114 116 118 116 112 109 101 102 107 106 104 104 104 100  91  80  78  84  91  99 102 109 110 112 117 155 172 174 174 174 175 174 175 174 174 174 174 174 174 175 175 173 174 174
 186 187 188 185 185 185 182 164 107  94  97 113 128 118  94  87 129 139 149 148 148 143 140 133 132 126 131 132 128 123 116 112 106 105 103  98  90  92  92  92  93  93  94  98 102 107 113 116 115 118 118 116 114 111 108 109 110 107 104 103 104 102 102  96  89  93  98 102 108 109 109 112 119 163 174 174 174 175 175 174 174 174 174 175 174 174 174 175 175 173 175 174
 186 187 187 185 185 186 184 183 147 108 106 121 127 118 111 116 131 147 146 146 146 142 136 133 127 122 125 124 123 118 114 112 105 103 101  98  98  97  95  93  93  95  98 101 103 109 111 115 116 118 117 117 115 112 109 108 111 112 106 106 104 104 104 104 103  99 102 103 106 106 106 111 126 169 174 176 174 174 174 175 174 175 174 175 176 175 176 176 176 175 175 173
 187 186 186 187 186 186 186 185 180 132 126 123 121 117 113 112 117 138 139 144 142 137 131 126 124 122 117 116 116 114 110 109 106 100 100  98  97  95  95  94  93  94  95  96 103 107 108 112 114 114 117 119 116 116 114 113 113 112 103 103 100 100 105 107 107 104 103 103 102 102 106 110 136 172 174 175 175 175 175 174 175 175 176 175 175 175 174 176 176 175 175 174
 187 186 187 186 186 186 185 185 183 177 137 120 116 118 111 104 108 144 144 140 140 135 127 123 123 119 113 114 112 111 109 109 106 100 100  97  98  96  94  92  93  92  93  94  98 101 105 110 113 117 119 117 116 117 118 117 114 112 108 105  94  96 102 106 110 109 107 105 104 103 104 109 148 172 174 175 176 176 174 176 175 176 175 175 175 175 175 176 176 174 175 176
 187 186 186 186 186 186 186 186 184 183 171 129 119 118 111 101 100 130 140 141 142 135 128 123 118 118 111 110 110 110 108 107 105 101 100  96  95  97  96  92  93  91  90  90  93  96 107 108 112 117 122 124 127 125 123 119 113 114 112 107  96  94 101 105 109 111 107 107 103 104 105 112 166 174 175 175 174 175 175 174 175 175 175 175 175 176 176 175 174 175 176 176
 186 187 186 186 186 188 188 185 183 185 183 166 125 119 110 102  97 119 139 141 137 135 129 123 120 119 114 110 110 109 108 106 102 101  99  97  96  95  96  91  92  89  88  85  86  96 108 113 116 122 125 129 130 126 119 114 112 110 111 108  97  90  98 103 106 107 105 102 103 105 107 127 170 175 176 175 176 176 175 175 176 176 176 175 175 174 176 175 176 176 175 174
 186 187 186 186 186 188 186 185 188 186 184 181 160 116 107  99  93 106 133 138 132 134 129 123 117 118 114 111 107 109 107 106 103  99  98  98  97  95  94  90  88  87  86  81  82  97 111 118 123 127 128 128 125 120 115 109 104 103 104 106 104  90  93 100 103 104 104 102 103 106 110 148 173 176 175 175 175 176 176 176 176 177 176 176 176 175 174 175 176 176 176 175
 187 186 186 188 186 187 186 186 187 186 185 184 183 158 124 111 122 123 136 132 124 129 130 120 115 115 112 112 108 108 106 104 103 100  99  99  96  96  93  91  87  85  82  79  79  94 113 117 120 124 127 128 120 112 106 100  97 100 102 105 107  90  90  95  99 103 103 102 104 106 114 162 174 176 175 176 175 175 175 176 176 176 176 175 175 174 174 176 177 176 176 177
 185 186 186 187 186 186 187 186 186 186 184 185 185 181 178 174 160 132 135 129 121 129 128 120 113 113 110 110 108 108 105 102 103 101 100  99  97  95  92  92  88  85  83  81  78  86 110 114 112 113 116 120 112 104  97  93  90  94  97 101 107  93  88  94 100 101 102 102 102 107 130 171 175 176 174 176 175 176 176 174 175 175 174 175 175 175 176 176 176 176 176 177
 185 185 186 186 186 186 187 188 187 187 184 185 186 183 183 181 169 139 135 133 125 130 128 122 115 112 109 109 108 107 106 105 104 103 105 102 102 102  97  91  85  84  84  84  80  76  93 101  97  98 103 107 102  96  90  86  86  88  93  98 103  87  87  94  99 100 100 102 105 110 148 173 175 175 175 176 176 175 176 174 175 176 176 176 175 175 176 176 176 177 176 176
 185 186 186 184 184 186 188 188 188 187 185 183 184 185 182 180 175 145 135 134 128 129 129 122 115 109 109 108 109 108 109 106 104 104 106 106 107 104  97  89  85  85  87  86  87  85  78  75  69  73  84  96  97  89  85  82  79  85  88  92  95  86  86  94  98 102 101 104 105 114 162 174 176 175 174 175 175 176 176 176 176 176 176 175 175 175 176 176 176 179 177 177
 186 186 187 187 184 186 188 187 188 186 183 184 183 184 184 182 177 149 133 136 130 130 127 123 114 108 107 109 110 108 109 110 109 111 110 113 112 107  96  89  90  91  90  88  88  90  86  78  77  79  76  85  93  88  82  76  78  80  83  93  96  91  89  93  99 103 103 102 103 123 168 176 175 174 175 175 176 175 176 175 178 176 177 176 176 176 177 177 177 178 176 177
 183 183 185 187 185 185 186 186 186 185 184 183 184 183 183 184 177 152 133 136 134 130 127 122 117 113 110 111 111 114 112 112 113 113 114 115 112 102  92  91  93  92  90  87  86  84  83  78  72  73  74  74  83  85  80  74  73  74  85  94  97  96  93  94 100 103 102 103 101 140 173 175 175 175 175 175 175 174 176 176 175 176 175 176 176 176 177 177 176 177 176 177
 184 184 185 187 185 185 185 184 185 186 186 184 184 182 185 183 178 155 134 134 134 130 128 121 114 110 111 112 114 115 115 114 116 115 116 113 105  97  92  92  90  86  84  83  81  74  69  68  60  60  66  70  67  71  68  63  61  65  78  90  97  96  95  96 102 106 104 103 107 163 174 175 176 175 176 175 175 174 175 176 176 175 174 175 176 175 176 176 177 176 177 177
 183 184 186 185 184 184 184 184 184 186 187 183 183 184 184 183 180 157 129 126 128 128 124 124 114 110 111 115 116 116 115 117 121 119 118 112 101  90  85  86  82  78  74  74  65  62  60  56  53  57  58  61  64  64  62  57  56  58  62  69  85  90  94  97 102 108 106 103 118 170 175 175 174 175 174 176 176 175 174 176 176 175 176 174 175 176 176 176 177 176 177 177
 184 186 186 183 185 183 183 183 182 182 183 183 183 184 182 184 184 162 132 122 128 128 126 123 116 111 114 117 119 122 120 121 123 119 117 110 100  75  69  69  66  64  60  58  53  51  52  48  49  50  53  55  56  56  54  54  55  51  52  64  73  80  86  93 101 108 107 104 139 172 175 175 175 175 175 176 177 176 176 175 174 175 176 176 176 174 176 176 177 176 177 177
 184 184 185 184 184 184 184 183 183 184 183 183 182 183 184 184 183 166 137 120 126 128 127 122 117 114 116 119 119 122 122 124 126 121 116 105  84  63  60  60  55  51  48  50  49  47  49  45  48  50  51  52  51  50  51  53  52  48  46  55  66  67  75  87  99 108 106 106 151 173 176 175 175 175 175 175 175 176 176 175 175 175 175 175 175 175 176 176 175 176 176 176
 182 184 183 184 183 184 183 183 183 182 182 181 182 183 184 184 183 169 139 120 122 128 125 120 115 115 116 120 121 125 127 126 125 123 117  97  74  60  54  54  50  50  52  53  50  47  46  48  52  51  50  51  49  48  49  55  52  48  46  49  60  57  52  71  95 109 109 108 158 175 175 174 175 175 175 175 175 175 175 175 175 176 175 175 176 175 175 176 176 175 177 177
 183 183 183 182 184 183 183 182 182 182 182 182 182 183 184 183 183 171 140 118 118 127 129 121 114 115 117 116 118 126 129 130 129 125 115  90  70  56  51  49  50  52  59  62  57  49  48  50  57  55  51  49  44  44  48  54  53  52  49  47  55  49  43  53  80 108 106 112 162 175 176 175 176 176 176 175 175 173 173 174 175 173 174 174 175 175 176 177 176 176 177 176
 181 179 180 182 182 182 183 182 181 182 182 181 182 183 183 182 182 174 141 123 117 125 123 122 118 114 115 117 119 124 129 131 129 124 114  90  71  57  55  54  57  68  71  75  70  61  57  61  66  66  61  51  46  49  54  57  57  56  57  53  57  51  43  48  71 100  98  82  80  83  76  74  72  79  82  87  97 107 121 152 174 174 176 174 175 176 176 176 176 175 178 177
 180 180 179 181 181 180 182 182 181 180 181 181 182 182 182 183 182 175 141 127 117 117 119 121 117 113 111 116 126 129 130 128 127 121 106  88  77  72  65  60  58  67  72  75  73  68  66  66  66  71  70  64  60  64  66  66  61  60  63  62  65  61  58  69  89 102  86  60  38  37  36  35  36  36  37  36  39  42  44  46  62 100 142 172 173 175 174 175 175 176 177 176
 177 179 179 180 181 182 178 181 179 180 181 182 181 181 182 179 170 103 137 126 118 113 121 120 113 108 111 118 123 130 124 126 127 115  98  89  78  68  54  39  29  25  32  32  31  40  45  49  55  61  62  65  64  63  60  54  47  45  47  46  48  63  70  82  96 105  82  44  27  23  21  20  23  22  21  21  23  25  27  30  35  42  48  75 134 174 173 175 175 176 176 177
 180 178 179 179 181 181 179 178 179 180 182 180 181 182 181 168  80  62 130 127 122 113 113 114 104 106 112 114 117 118 118 124 121 112  99  85  73  63  54  50  42  39  35  30  28  24  23  24  28  29  30  34  32  30  30  22  22  29  36  46  53  59  71  81  92  98  70  34  17  15  14  14  15  15  14  14  15  16  18  20  23  28  33  39  42  68 149 173 173 176 175 175
 181 180 181 177 178 178 177 178 179 182 181 180 181 180 164  78  55  42 121 124 119 115 103 106 104 107 114 109 112 116 115 120 116 109  92  78  75  70  72  78  75  67  66  67  63  57  44  37  35  31  28  26  27  28  31  33  39  50  57  66  69  69  70  81  91  91  62  28  13  12  11  11  12  12  12  12  12  14  14  14  18  21  22  28  32  38  42 115 172 174 175 176
 180 181 180 180 178 176 178 178 179 179 176 180 179 164  75  52  38  29 100 126 120 110  98  93 101 108 110 109 113 114 111 116 114 106  93  82  78  82  86  92  92  88  84  85  82  80  76  65  60  58  57  54  52  51  54  60  70  77  79  84  82  78  75  82  91  75  51  29  13  10   9   9   9  10  10  10  10  12  11  13  15  16  15  20  24  29  36  44  94 169 174 175
 180 180 182 178 178 178 175 176 176 177 175 176 154  79  55  41  29  24  95 124 116 113  96  84  97 109 106 102 105 107 109 112 112 102  94  87  80  84  88  92  96  98  93  89  87  87  83  77  74  72  72  71  68  73  76  81  81  83  85  91  90  82  77  76  86  60  44  28  16  15  12   9   9   9  10  10  11  10  10  10  12  13  13  16  20  25  29  34  43  84 170 174
 178 178 179 176 178 179 176 177 175 171 138  92  69  55  39  28  21  25  93 124 116 112  95  79  85 100 100  95  92  97 107 108 107  93  90  84  85  88  90  92  90  96  99  94  90  84  78  78  76  76  78  75  73  78  80  78  79  85  90  95  93  84  72  67  76  49  37  23  16  16  18  19  15  14  10  10   9   9   9   9  11  11  12  14  18  21  24  27  33  39  83 167
 177 179 179 176 176 175 176 175 168 100  74  67  51  40  29  19  21  44  90 125 117 110  94  73  72  91  87  88  87  94 100 105 107  92  82  74  77  82  89  92  95  97  99  97  93  86  78  76  72  73  74  72  70  71  72  74  76  85  92  93  86  79  67  61  59  39  28  19  15  13  14  17  18  19  18  17  14  13  10  10  10   9  10  13  17  19  21  23  27  32  40  76
 174 177 176 177 175 176 173 159  82  70  67  52  42  31  22  18  34  43  74 125 116 110 101  76  59  77  83  77  82  87  97 107 101  88  76  72  74  77  85  92  97  96  98  96  93  86  84  78  74  72  75  73  71  70  73  74  77  89  90  89  79  66  56  51  44  36  27  19  14  13  12  13  16  17  16  18  19  18  17  15  12  11  10  12  15  17  18  20  23  27  34  44
 174 176 175 175 174 174 164  79  65  62  54  42  33  26  18  22  41  37  58 125 118 115 107  83  58  57  76  71  78  86 100 102  98  85  73  69  69  70  77  88  93  95  93  91  93  83  78  76  69  65  66  62  64  63  70  76  83  86  87  84  74  57  46  43  36  37  32  21  15  16  14  11  14  17  17  16  16  18  18  18  17  17  14   9  12  16  17  19  22  25  29  33
 173 173 173 172 171 170  92  63  59  55  44  35  24  16  16  36  39  33  49 124 121 119 112  96  57  47  57  67  76  81  95  99  96  82  69  62  59  62  68  80  89  89  88  86  83  76  72  66  56  50  53  49  51  56  62  71  80  82  81  70  59  49  40  34  30  46  38  20  14  15  13  11  12  15  14  14  15  16  17  16  17  17  16  15  11  12  16  18  20  21  24  28
 172 168 143 117 101  89  58  56  57  47  36  29  18  12  24  37  36  28  34 123 119 117 113 103  77  44  46  59  68  73  86  90  90  76  62  58  57  56  61  73  77  81  84  81  74  71  65  59  50  44  43  40  44  53  60  68  79  80  75  57  49  43  37  29  35  61  48  23  16  14  13  12  11  13  13  13  14  14  14  15  16  16  16  14  15  12  13  15  18  18  20  23
  70  50  51  47  47  57  53  54  49  39  31  21  14  13  35  35  30  25  28 119 120 117 111 100  91  57  42  47  59  68  71  77  75  66  58  55  57  59  62  61  71  76  79  77  74  70  65  58  50  46  40  40  47  55  65  72  78  80  69  50  43  38  34  29  47  81  61  30  17  14  12  12  12  13  12  12  12  13  13  14  16  16  17  15  14  14  13  13  17  18  20  21
  37  37  40  40  46  51  52  50  42  33  24  15  12  21  37  34  28  21  21 118 118 114 109 100  92  75  43  39  47  64  64  68  60  59  58  52  53  53  57  56  62  69  73  75  76  72  66  63  54  48  45  46  52  61  70  79  81  79  64  45  36  34  30  30  60  92  72  33  19  14  13  11  11  12  12  12  11  11  11  13  15  15  16  15  14  15  14  15  16  17  18  21
  31  27  28  33  47  48  50  44  37  26  17  13  10  31  33  30  22  16  23 113 117 114 108 102  95  84  50  41  37  52  52  55  50  55  51  48  47  45  48  53  54  62  66  71  74  75  71  70  62  53  54  59  61  71  72  78  79  67  53  39  32  30  28  31  66  88  79  38  21  15  14  10  11  13  12  12  11  11  12  13  13  13  15  13  13  13  14  15  15  14  16  18
  30  28  31  42  47  48  47  37  32  21  14  11  17  34  32  26  19  15  22 110 118 113 109 103  99  92  79  57  35  39  46  45  42  43  47  49  47  42  44  50  45  55  64  67  69  71  73  74  67  62  66  70  71  71  73  75  68  54  47  36  31  30  25  33  72  90  86  44  24  16  13  11  11  12  12  11  10   9  11  11  13  13  14  14  12  12  14  12  15  15  16  18
  29  29  35  43  44  50  42  34  24  16  12  10  24  34  28  21  14  14  25 101 115 113 111 104  97  94  86  74  34  35  39  38  35  39  43  47  45  42  44  44  43  55  55  58  65  70  73  71  64  63  70  73  71  71  67  73  67  51  43  35  28  26  28  40  86  96  89  49  24  15  13  11  10  12  12  12   9  10  10  11  13  12  14  13  12  12  11  12  14  15  16  15
  26  26  35  43  46  46  36  30  18  15  10  11  28  31  30  21  15  13  22 101 113 112 110 102  99  92  90  89  65  32  33  31  33  35  38  40  39  41  44  40  45  51  51  54  63  68  71  66  63  59  71  69  66  63  62  66  67  48  36  32  28  26  30  67  90  96  90  53  25  16  12  11  10  12  13  12   9  11  10  11  10  11  12  12  13  10  12  13  13  15  16  16
  25  28  36  42  46  40  32  24  16  11   9  16  31  29  23  18  14  15  18 107 112 109 110 105 102  94  91  92  85  52  33  26  29  29  35  36  35  36  36  38  45  47  45  54  60  61  64  64  57  57  63  63  61  55  58  61  59  46  34  28  24  26  33  81  89  94  89  57  24  14  11  10   9  11  11  12   9  10  11  10  10  11  12  12  11  10  11  12  12  12  16  15
  24  28  38  44  45  37  30  21  14  10  10  21  30  24  18  15  13  16  18 103 111 108 107 105 100  99  94  92  88  75  44  29  30  26  30  32  32  33  33  35  41  42  44  52  54  55  55  52  52  51  59  61  58  53  54  52  48  36  30  26  23  25  56  86  88  92  86  52  24  15  11  10   9  11  12  11   9  10  11  10  10  10  12  11  12  10  11  11  12  12  14  16
  26  31  37  46  39  32  23  14  11   9  13  28  28  22  18  14  11  16  19  96 110 108 105 105  99  97  96  88  87  83  57  32  27  25  28  28  30  31  33  34  36  42  41  46  48  52  50  46  48  50  56  57  51  51  48  46  42  31  29  24  25  26  72  87  90  88  85  49  24  15  12  11  10  11  12  11   9   9  11  11  11   9  11  11  11  10  10  11  11  12  12  15
  28  34  35  43  37  30  18  12  10   8  15  26  23  21  17  14  11  14  22  81 106 105 104 104 105  99  95  90  88  81  73  47  32  24  24  24  29  28  31  31  35  41  35  39  43  43  44  46  47  48  49  49  44  39  39  34  34  29  24  22  25  51  83  88  90  89  81  42  21  13  12  11  10  10  10  12   9  10  11  12  10  10  10  11  11   8   9  10  11  12  13  15
  28  31  36  42  32  23  15  11   8   8  16  26  21  16  16  14  10  14  22  69 103 100 100  99 100  97  93  91  89  83  77  66  45  24  22  24  25  26  28  28  30  31  31  32  33  31  35  37  38  43  44  38  33  30  29  25  26  22  19  23  43  66  84  88  89  86  72  37  19  14  11  10  10  10  10  11  10  10  11  11  10   9  10  12  10   9  11  10  11  11  12  14
  28  30  41  42  32  22  17  12   7   8  19  25  23  18  16  13  11  11  25  39  99  96  96  98  97  94  89  86  86  83  78  73  63  43  29  24  24  20  24  23  24  27  27  27  26  23  27  30  32  33  33  29  28  26  24  21  22  21  27  41  59  72  84  88  88  83  62  31  16  13  10  10  11  12  11  11  10   9  10  12  11   9  10  10  10   8  10  10  11  10  13  14
  28  29  42  35  27  18  15  12   6   8  19  22  22  21  17  13  11  11  23  31  81  94  95  92  92  92  87  81  78  79  77  79  77  73  64  44  25  22  22  21  23  23  22  21  21  21  21  21  23  25  24  22  22  23  21  20  25  32  55  59  77  82  86  86  85  78  54  26  15  12  11  10  12  12  11  11  11   8  10  11  11   9   8  10  10   9  10  12  12  11  11  13
  26  30  40  34  27  19  14  11   6   9  20  20  20  19  16  13  11  11  18  27  50  89  92  90  91  91  90  86  80  78  76  78  79  76  73  66  58  46  29  24  23  21  19  19  19  20  18  19  21  22  20  20  22  21  21  26  50  62  68  70  78  79  84  84  81  71  42  22  14  13  10  10  11  12  10  10  11  10  10  11  10  10   8  10   9   7   9  11  12  11  11  12
  28  33  36  33  23  15  12   7   5  11  19  17  18  18  15  15  13  12  12  23  38  71  87  87  88  90  89  88  85  82  78  79  82  79  69  72  70  68  59  46  34  28  21  19  20  19  19  20  22  25  29  30  28  28  33  50  67  68  73  76  78  79  82  80  74  60  31  19  12  12  11  11  12  12  10  10  12  10   9  10  10   8   9   9   9   9  10  12  12  13  12  12
  28  32  39  31  22  19  14   8   6  13  19  18  18  16  16  17  16  14  11  17  29  44  76  84  84  85  86  86  85  86  83  80  80  81  78  73  69  66  64  61  51  46  40  35  35  26  24  32  36  46  54  50  47  53  61  64  69  71  74  77  76  79  78  76  67  49  25  16  12  11  11  10  12  10   9  12  10  10  10  12  11   8   9   8   9   7   9  11  12  13  13  12
