P2
# Generated by OpenCV 3.4.0
92 112
255
  77  78  78  80  82  82  84  82  82  84  84  84  83  84  86  86  86  86  86  88  88  87  90  89  88  88  88  89  89  89  90  90  90  90  89  89  88  88  87  87  86  85  84  85  83  81  83  81  83  83  84  84  84  87  87  90  91  95  97  99 103 105 108 109 109 111 111 111 113 113 113 110 111 110 111 112 111 111 111 110 110 110 110 110 110 109 111 112 111 112 110 112
  80  80  81  82  82  82  83  82  84  84  84  83  84  84  84  85  86  86  86  87  87  87  87  88  88  88  86  87  86  86  86  85  83  82  85  84  83  84  84  86  86  86  87  89  89  91  94  97 101 102 103 107 109 110 112 113 113 114 114 114 114 114 114 115 116 115 114 114 114 114 115 114 114 113 113 113 114 114 114 114 114 112 112 111 110 112 113 113 112 110 110 111
  78  79  79  81  81  83  83  81  82  84  83  84  84  84  85  84  85  84  84  83  82  82  82  82  82  80  82  81  82  83  84  86  86  90  93  95  95  99 103 104 108 107 109 112 114 116 118 116 121 123 118 116 114 115 116 115 116 115 116 116 115 116 115 115 116 116 116 117 115 115 115 114 115 116 115 115 114 113 114 114 113 113 113 113 112 111 112 112 111 112 111 112
  79  78  80  80  81  80  80  82  81  81  80  79  79  80  78  77  76  76  79  78  79  80  85  87  91  92  95 100  99 102  98 105 113 117 113 112 114 118 121 122 132 127 124 132 140 137 138 121 118 117 118 117 116 117 115 115 115 116 116 117 116 116 117 115 116 115 116 115 116 116 115 114 115 115 115 115 114 114 114 115 114 113 113 113 114 114 112 112 112 111 111 110
  74  73  73  73  73  74  74  73  73  75  78  81  82  86  89  91  93  98  99 101 101 106 109 109 110 111 112 112 112 112  93 111 115 118 117 118 123 130 138 136 143 161 151 146 142 145 146 135 127 128 120 121 121 121 124 118 118 116 117 117 117 118 117 117 116 117 116 116 116 117 115 116 116 115 115 117 115 115 114 114 115 113 115 113 113 113 114 113 114 110 111 111
  74  76  75  81  86  88  88  93  97  98 102 103 102 102 104 107 108 109 110 111 111 112 112 112 111 112 113 114 114 116 115 117 116 121 128 135 141 144 150 143 159 169 165 155 146 146 151 145 132 145 133 126 132 125 127 125 116 116 117 117 119 116 117 117 116 117 117 117 116 116 117 116 116 116 115 116 114 115 114 114 115 116 115 113 114 114 114 113 112 112 113 113
  94  96 101 103 104 103 102 105 105 107 106 107 107 107 109 109 109 112 111 112 112 113 112 112 114 114 115 114 115 117 114 117 130 140 151 169 163 167 167 172 169 175 167 166 152 159 166 141 131 133 143 121 131 123 123 118 112 113 114 115 118 117 116 117 116 117 117 117 117 117 118 117 116 116 116 114 116 115 115 114 114 115 114 114 113 114 114 113 113 113 113 113
 102 102 103 105 104 104 106 107 107 108 106 109 109 109 108 111 111 112 111 112 113 113 113 113 115 114 116 115 115 117 119 134 141 151 164 173 185 177 169 178 166 168 170 168 164 165 148 135 131 139 131 116 126 117 121 106  97  97  92 102 113 115 116 118 116 118 118 116 117 117 117 118 116 118 116 115 116 116 114 115 116 116 115 114 115 114 114 115 113 114 113 113
 103 104 105 105 106 107 107 107 107 109 108 110 110 109 111 112 110 113 113 114 115 115 114 114 115 116 116 115 117 120 140 155 142 152 165 169 170 164 168 170 165 164 174 168 168 159 148 143 156 138 133 119 128 113 113 110 100  89  83  81  85 109 116 117 117 119 117 118 119 117 117 116 117 116 117 118 117 116 116 115 115 114 115 117 115 115 115 115 114 114 114 114
 104 105 106 106 106 108 107 107 107 109 110 110 110 110 110 111 113 113 114 114 114 114 114 115 117 115 114 111 120 144 148 153 154 148 151 155 152 158 163 162 166 165 171 172 173 166 150 160 150 141 139 130 126 115 118 120 104  86  79  78  80  84 101 114 116 116 117 117 117 117 117 116 115 117 117 118 116 117 118 115 115 115 116 116 115 114 115 114 115 115 114 113
 104 104 106 106 106 107 109 109 109 110 109 110 110 111 112 111 113 114 115 115 113 114 114 115 118 117 114 114 132 149 157 143 145 137 135 145 147 155 158 164 170 170 170 180 182 173 168 162 156 150 142 137 126 113 117 122 113 101  96  93  90  83  83 102 109 114 116 118 118 120 119 118 119 117 117 118 117 117 117 115 116 116 116 116 117 116 116 115 115 115 114 116
 104 104 105 106 106 107 109 110 109 110 112 111 110 110 113 114 113 114 115 116 114 116 116 115 119 122 116 118 143 149 140 141 147 146 153 152 162 162 168 174 183 180 180 189 183 181 175 170 161 144 139 133 122 116 122 128 115 108 112 106  96  85  82  90  98 106 111 116 116 120 119 118 117 118 118 117 120 118 118 117 117 117 116 117 116 117 117 117 116 116 116 115
 102 104 105 108 107 106 108 109 109 111 112 113 112 112 114 114 114 114 114 115 115 116 119 119 121 121 125 149 164 157 148 162 167 175 181 182 183 184 187 201 201 190 188 185 185 191 201 198 159 148 139 130 125 121 124 116 113 112 115 115 111 100  93  91  85  88 101 112 117 120 119 117 119 118 119 118 120 119 118 117 117 115 117 117 117 117 116 117 116 115 115 116
 105 105 105 107 107 108 108 109 110 110 112 112 111 112 113 113 114 115 116 115 115 117 119 118 117 118 154 176 188 194 190 198 206 214 218 218 221 222 222 223 217 206 196 189 183 183 185 168 156 142 137 132 126 125 126 124 122 127 125 123 116 109  94  88  85  77  81 102 116 119 119 120 119 120 119 122 121 118 118 118 118 117 119 117 118 118 118 118 118 117 118 115
 105 105 107 104 108 109 109 110 111 110 112 114 113 111 113 114 115 115 116 116 116 120 120 118 113 126 178 201 216 225 222 227 233 242 246 247 245 246 238 233 230 220 212 200 183 179 173 161 146 137 139 131 132 135 140 140 141 141 138 135 127 121 112 104  91  76  69  78 103 115 119 121 121 120 119 120 121 120 118 118 120 119 120 118 118 118 118 118 118 119 118 117
 105 105 107 107 108 108 110 109 110 111 112 113 115 113 114 115 117 114 116 116 117 120 118 113 119 151 192 206 222 224 227 234 246 248 248 245 244 242 232 230 224 216 212 201 185 170 161 156 148 140 139 139 138 144 149 153 153 156 150 145 142 137 131 123 113  91  77  69  81 107 118 122 121 122 122 121 121 120 121 121 119 119 122 119 121 120 120 119 118 120 118 118
 106 106 108 106 106 109 110 109 111 112 112 115 115 114 115 115 116 118 117 117 119 120 115 115 148 196 212 215 217 217 221 232 239 238 237 235 232 227 219 217 211 211 202 192 177 166 161 157 155 150 148 149 150 153 156 159 162 161 158 154 151 146 137 133 129 115  87  78  76  88 115 119 122 121 122 122 122 123 122 121 121 121 121 119 122 120 121 121 119 121 120 118
 107 107 108 108 108 110 111 111 112 112 112 113 115 116 116 118 116 119 120 120 121 116 114 136 191 212 211 209 206 209 213 219 223 223 219 217 216 206 202 202 200 193 179 177 168 156 154 158 158 154 156 154 155 157 156 156 158 154 155 153 153 151 144 138 133 130 116  88  83  83 105 122 123 124 123 123 124 123 123 122 121 122 122 122 121 121 122 121 120 120 121 118
 107 107 109 110 109 112 112 114 116 115 116 116 117 117 119 119 119 119 119 124 122 120 136 184 207 208 207 207 204 206 211 214 225 223 214 208 203 194 193 192 188 180 170 167 158 153 151 151 153 156 153 151 152 156 154 152 152 150 144 145 143 143 142 138 134 132 128 117  92  85  83 113 122 124 124 124 125 124 123 124 123 123 124 123 123 121 122 121 123 123 122 120
 109 109 111 112 112 112 113 115 116 117 117 118 118 119 120 121 122 123 123 125 126 140 176 205 208 204 203 204 203 203 207 204 210 208 206 205 195 190 187 183 177 175 167 159 150 145 142 140 146 149 145 145 147 150 149 148 146 143 140 138 138 135 136 135 135 131 130 128 117  96  85  93 121 126 126 126 125 123 125 125 125 124 124 124 123 124 124 123 122 123 122 122
 110 111 111 112 112 112 115 116 118 118 119 120 120 122 121 123 125 124 126 127 135 164 203 205 206 203 204 202 198 194 194 189 194 192 196 194 181 173 170 167 162 158 152 145 140 138 138 141 148 149 144 139 138 141 140 140 136 133 128 130 130 131 132 131 129 130 130 130 133 120  92  77 100 124 126 129 127 127 127 124 124 125 126 124 124 124 124 124 123 124 123 124
 114 113 114 114 116 116 116 120 120 119 120 121 121 124 125 125 126 127 128 132 148 188 204 205 204 202 200 198 194 188 188 184 183 175 180 175 165 166 167 166 164 170 163 153 149 150 153 153 149 143 140 132 129 133 132 128 125 123 116 120 123 123 124 127 129 128 127 129 130 126 105  80  82 115 125 130 127 127 128 127 125 128 127 127 127 125 126 125 125 124 124 126
 116 116 117 117 119 120 121 121 121 122 124 123 125 125 126 126 129 129 130 137 169 197 203 202 204 202 197 192 185 182 181 181 177 172 177 169 169 171 164 163 165 162 153 148 146 146 142 141 138 135 128 127 125 125 122 121 118 114 111 109 116 115 119 123 128 128 129 128 126 122 116  93  76 103 124 129 129 128 128 128 127 129 129 127 127 124 126 127 126 128 125 126
 120 119 120 122 122 123 122 124 125 126 126 126 128 130 129 129 129 133 132 146 185 198 201 203 204 198 193 187 183 173 168 169 168 164 164 164 160 158 152 161 162 157 150 140 136 133 136 136 133 132 126 122 121 122 120 114 110 108 110 110 110 112 114 115 121 123 124 126 126 120 119 111  86  87 116 129 129 129 130 130 129 130 129 128 129 128 127 128 129 127 126 127
 122 122 125 124 125 126 126 126 127 128 127 129 130 131 132 132 132 135 139 175 189 191 195 202 201 196 188 182 173 165 163 163 159 157 154 151 158 163 166 166 160 148 140 132 129 130 136 133 128 124 118 117 121 120 116 110 110 108 108 109 111 111 112 116 118 122 122 122 121 118 118 116 106  89 108 127 131 131 131 131 132 131 130 129 130 128 129 129 130 131 129 129
 125 125 126 126 127 128 129 129 129 130 132 130 132 133 134 134 135 138 162 189 188 189 191 195 193 188 177 173 167 164 166 169 165 166 166 169 170 165 161 158 145 133 125 122 124 128 136 132 130 125 124 123 125 125 121 118 113 109 106 104 105 108 109 112 115 120 119 120 119 117 118 120 116 103  99 122 132 131 131 130 133 132 131 131 132 130 131 131 129 131 132 130
 128 128 129 129 130 131 130 131 132 133 133 134 132 134 136 136 136 149 182 193 188 187 188 192 188 184 183 183 185 188 187 183 180 175 174 172 170 166 161 158 150 143 135 131 141 161 163 153 142 137 135 136 132 130 127 121 117 111 110 108 109 112 111 109 110 116 114 115 114 115 115 118 117 108  98 119 136 132 132 134 132 134 134 134 134 133 131 131 132 132 131 132
 132 131 133 132 132 133 134 134 133 132 134 135 137 136 135 138 139 164 188 192 187 186 186 185 187 187 186 184 182 184 186 181 179 174 173 172 164 164 166 166 161 153 148 146 151 161 153 143 140 140 141 141 133 127 124 122 119 115 116 114 115 113 112 111 111 113 114 112 111 111 115 117 114 107  90 102 131 133 135 135 134 136 134 136 135 134 134 134 133 133 133 133
 134 134 134 134 135 135 135 137 135 135 136 137 138 137 139 141 155 173 190 190 186 182 183 189 188 185 184 184 184 182 180 182 184 180 176 173 171 175 170 162 152 153 151 151 150 147 134 135 143 147 148 148 140 137 131 127 123 122 119 118 115 112 111 116 117 112 114 114 110 111 114 116 116 108  90  85 119 135 136 135 135 138 137 138 136 135 136 137 135 134 135 135
 135 136 137 137 137 138 138 138 136 139 139 140 142 142 143 146 158 181 189 186 182 179 184 187 182 182 185 191 194 197 203 199 195 192 182 181 173 174 168 160 151 146 145 146 149 148 147 147 149 150 150 147 144 139 135 132 130 128 128 127 124 119 118 117 117 117 116 113 113 113 114 116 116 111  94  80 101 134 137 137 137 139 138 138 137 136 138 137 137 136 136 135
 139 140 141 141 140 139 139 141 141 141 141 142 143 143 145 143 155 180 185 182 180 181 184 179 186 190 193 197 197 199 198 199 194 187 181 178 176 168 160 150 142 139 143 142 146 151 150 151 146 146 145 142 140 135 134 132 136 134 134 133 130 126 123 122 121 118 115 113 113 114 113 114 117 115 101  77  74 126 137 138 140 141 139 139 139 137 139 138 138 139 136 136
 142 143 142 144 144 145 143 142 144 144 143 143 144 149 144 128 152 179 183 180 179 181 178 182 188 193 195 194 191 191 194 195 193 186 181 177 169 155 148 138 134 132 133 134 137 134 139 141 138 138 137 134 132 132 133 131 136 140 139 139 137 130 126 122 119 118 116 112 112 112 112 114 115 112 103  78  70 107 137 141 142 141 140 140 140 139 141 140 138 140 138 138
 144 145 146 148 147 147 145 144 145 146 147 146 148 152 136 125 156 183 180 179 179 180 177 183 188 191 190 189 186 186 184 178 174 175 168 162 155 144 139 129 123 122 125 125 121 121 124 131 129 131 131 129 126 128 131 132 135 133 135 137 135 130 126 122 120 115 114 111 110 111 111 113 114 112 104  82  67  87 136 141 142 142 141 142 143 142 140 141 140 140 141 139
 147 148 149 150 148 148 146 146 147 148 148 150 150 150 122 120 160 177 178 177 178 180 180 183 187 188 182 177 176 173 166 151 146 142 136 140 134 134 130 121 116 119 120 120 122 123 122 124 124 118 117 119 116 117 119 122 125 127 127 127 123 123 120 121 119 116 110 110 111 113 112 112 113 112 107  88  66  73 135 143 143 142 143 143 143 142 142 142 142 143 143 141
 148 150 151 150 150 149 148 148 149 151 151 153 152 155 114 124 163 181 175 174 179 180 175 180 179 173 167 164 155 131 123 118 115 110 107 115 117 116 116 116 115 114 112 114 116 114 114 117 114 112 109 110 108 107 110 114 116 117 113 111 110 107 107 107 109 108 111 111 110 110 112 112 116 116 112  94  72  71 134 143 145 143 146 145 145 144 143 143 143 144 145 143
 151 151 154 153 154 151 150 150 152 153 154 154 156 161 109 129 163 176 173 173 176 174 171 170 164 154 140 126 110  94  93  92  97  90  90  97 100 101 104 108 110 109 108 110 110 107 107 110 107 104 104 102 103  98  98  98 103 105 108 105  96  92  96  95  98 101 108 107 109 110 112 114 114 114 111  97  75  79 140 146 146 147 146 146 146 145 146 145 144 145 145 144
 153 156 156 155 155 154 155 153 154 155 155 155 159 154 100 125 156 172 173 170 172 170 168 157 132 117 107  91  83  74  71  79  85  83  78  83  86  85  93  96 101 101 103 104 103 103 103 102 102 100  97  91  91  90  86  87  90  82  79  81  80  76  76  79  83  87  99  96 103 110 110 112 114 115 112 100  78  71 139 146 147 148 147 147 147 146 147 147 147 146 146 145
 158 159 159 159 158 157 157 156 156 156 156 157 160 133 100 121 154 170 171 176 173 168 157 136 108  90  85  77  72  70  68  73  80  82  76  73  78  78  86  89  95  94  97 100  97  98  96  95  94  93  91  85  83  79  73  75  69  66  62  62  59  56  58  61  62  70  78  80  88 105 109 112 114 116 112  99  80  71 132 145 149 148 148 147 148 148 148 148 148 147 146 148
 160 160 160 162 160 159 158 159 158 159 159 160 160 129  98 119 148 165 171 177 176 154 122 109 102  93  91  89  86  83  85  82  82  81  80  75  77  75  78  84  87  93  95  96  95  93  93  91  92  88  81  80  75  71  66  62  62  60  57  56  54  56  58  62  68  72  75  80  83  92 104 111 113 118 114 101  79  71 136 146 151 151 150 151 149 149 150 149 149 149 148 147
 162 163 164 164 161 161 161 160 160 161 159 161 161 114  94 119 148 161 170 176 171 139 121 111 114 108 102 100  95  89  89  91  89  88  87  85  82  78  81  82  86  92  93  94  97  92  90  89  87  84  75  78  74  69  66  64  65  67  68  71  75  75  77  79  82  83  87  87  83  80  90 106 113 116 115 102  79  65 135 150 151 152 153 152 151 152 152 152 152 151 150 150
 163 162 165 166 165 164 163 162 162 163 162 161 158 105  86 114 150 163 171 174 159 136 136 127 120 111 104  99  94  91  89  88  87  88  88  89  91  90  86  86  89  91  93  94  97  93  89  85  85  83  75  78  74  71  73  75  76  74  75  78  79  78  80  82  83  88  93  97  97  94  90 104 113 116 115  98  76  61 127 148 151 152 153 152 152 152 153 152 152 153 151 152
 165 166 167 168 167 165 164 163 164 164 163 163 148 101  77 113 156 164 173 174 150 146 140 128 118 108  98  88  83  79  76  76  78  83  85  88  91  92  92  93  93  95  96  98  99  96  90  86  88  82  83  80  77  77  78  74  73  72  71  68  65  63  69  74  77  85  91  96 102 104 100  96 111 116 117  96  75  65 124 152 154 153 153 154 154 153 153 153 153 153 154 152
 169 169 169 169 168 167 165 165 165 163 164 163 154 101  70 109 150 166 174 169 139 144 136 120 107  95  84  68  52  50  46  42  46  50  67  82  87  88  90  96  98 101 102 105 100  94  92  90  88  85  83  81  77  74  72  70  60  48  41  37  37  37  47  55  65  77  85  93 100 105 107 100 108 113 116  95  72  64 131 150 154 156 157 155 156 155 155 154 154 153 155 154
 169 170 172 170 169 169 167 168 168 169 165 165 160 102  71 103 150 166 173 159 136 137 127 114  95  74  62  46  42  41  37  35  37  39  45  59  78  83  87  92 100 106 108 106 103  97  95  91  89  89  83  79  72  69  65  54  44  38  35  32  32  32  35  36  46  64  76  86  96 102 104  98 106 117 116  92  69  74 139 154 157 157 158 158 159 157 158 156 155 155 155 156
 171 172 174 173 171 171 170 169 170 170 164 165 166 126  74  99 147 170 173 155 140 130 117 103  84  58  44  47  50  40  38  36  39  42  45  48  57  75  77  83  96 109 115 107 107 106 100  95  91  88  81  70  64  62  51  41  43  43  35  34  34  34  34  41  42  47  58  74  86  95 104 104 105 115 116  89  69  83 145 155 159 160 161 159 160 159 158 158 158 156 156 157
 173 174 173 174 172 171 171 171 171 171 170 170 167 159  81  95 146 170 172 159 139 123 107  93  70  50  53  74  78  50  41  26  45  48  55  52  51  54  68  76  88 106 119 117 117 116 107 102  94  86  74  63  58  49  46  46  48  50  40  34  26  37  42  52  52  47  52  70  81  91 101 108 109 116 117  88  69  92 144 154 159 160 161 162 160 160 160 159 159 158 158 159
 174 176 177 177 173 172 172 172 172 172 172 173 171 166  94  88 140 170 169 159 137 122 102  87  65  59  71 116 104  58  39  37  56  66  72  55  52  53  56  68  82 102 120 125 124 121 111 110  99  85  70  58  49  48  49  46  56  65  53  44  34  37  46  70  77  56  50  59  75  86  99 107 112 117 117  88  70 113 150 155 160 162 160 160 161 160 160 161 161 161 160 159
 175 177 178 179 175 173 174 173 173 173 173 173 172 167  86  79 136 174 170 158 132 116 100  81  67  73 108 144 128  71  62  70  79  87  87  66  48  52  59  58  75  99 118 129 127 125 120 118 108  83  66  52  50  50  43  52  70  83  82  72  61  61  73 105 100  67  61  57  72  81  94 105 112 118 117  92  70 129 152 156 161 162 162 162 162 163 164 162 162 161 161 161
 178 177 179 178 176 176 176 174 173 175 175 174 174 169 112  83 133 169 168 151 129 116 100  79  72  90 127 146 141 126 112 106 102  98  90  72  53  51  55  72  80 104 121 135 133 131 126 124 116  89  69  62  58  47  43  51  72  87  94  97  95 103 111 116 114  78  65  59  69  82  92 105 112 117 117  93  73 142 156 154 160 161 164 164 164 163 163 163 163 161 162 163
 180 180 181 179 178 176 175 175 176 176 176 176 174 171 142  87 126 173 166 150 131 118 102  86  87 100 116 133 135 130 114 105  94  91  81  69  56  59  67  81  95 109 121 137 139 136 132 130 121  98  72  68  61  53  49  54  64  77  86  86  94 105 108 111 104  92  81  67  73  80  90 104 110 115 117  91  95 144 152 155 160 162 165 165 165 163 164 164 164 162 163 163
 180 181 181 181 179 179 177 176 178 178 178 178 177 177 159  90 126 173 168 152 135 118 104 100 109 114 115 111 107 100  92  86  81  75  70  64  61  62  66  81 100 108 126 144 148 140 138 136 124 110  82  68  60  55  52  54  61  67  73  79  82  89  91  97  95  90  91  80  78  82  92 103 114 118 118  90 116 133 132 143 157 160 163 164 164 165 166 164 166 164 165 165
 181 182 182 182 181 180 179 179 179 180 181 187 201 207 200 122 129 172 168 155 138 122 109 116 130 127 123 112 105  94  85  80  72  67  62  58  57  59  68  92 111 117 140 156 155 149 143 139 130 116 101  78  61  55  54  54  55  62  67  69  71  77  80  87  89  94 103 103  92  89  96 106 112 118 119  99 109 107 114 117 128 159 164 164 165 166 166 165 165 165 164 166
 182 182 182 182 181 181 180 180 180 180 181 175 180 188 196 168 138 175 170 157 146 130 126 132 139 136 125 116 109  99  89  81  73  67  62  58  62  67  84 108 114 131 156 166 160 155 143 137 131 117 109  96  78  62  57  55  57  62  65  67  72  78  84  89  94 103 110 111 104 101 104 108 113 116 119 107 114 108 105 107 112 142 164 165 166 168 167 166 167 165 165 166
 182 183 182 183 181 181 180 180 180 176 143 113 112 122 153 158 149 172 171 162 154 146 140 141 144 139 130 117 109 102  91  81  72  68  65  64  71  83 104 112 124 150 164 161 161 157 146 135 124 114 110 106  98  77  63  58  57  62  63  68  72  81  86  91  96 105 111 112 110 105 107 110 114 117 119 112 111  98  80  68  87 125 163 166 167 166 167 167 166 166 166 166
 182 183 184 182 181 181 180 180 179 157 102  86  86  90 114 139 146 172 168 166 168 164 155 150 144 134 126 119 112  99  90  81  73  69  70  74  86 106 116 120 138 157 164 158 159 156 146 134 119 110 108 107 105  94  74  64  62  61  62  68  73  80  87  92  97 105 111 113 110 106 109 110 112 113 119 107  99  83  69  66  69 119 163 167 169 169 168 169 167 168 166 166
 183 183 185 182 181 181 181 182 178 136  91  78  82  88 111 120 143 172 170 171 177 175 168 159 148 136 130 117 108  99  94  86  79  76  78  89 106 114 121 127 148 162 168 164 164 158 145 134 118 110 107 105 106 102  86  74  67  64  63  70  74  78  84  94 100 106 109 112 112 111 110 111 110 111 118 105  82  82  73  62  69 130 165 168 167 168 168 168 168 167 168 168
 184 186 185 183 182 181 182 181 180 125  85  75  78  94 122 118 141 170 170 173 180 181 174 165 155 143 134 123 112 102  95  89  83  85  95 110 116 120 124 133 154 169 172 170 167 161 145 132 115 107 103 107 107 104  94  85  79  69  68  71  76  81  87  95  99 105 111 112 115 113 111 112 111 111 117  95  90  97  90  63  75 145 167 168 168 168 168 168 168 168 169 168
 184 185 185 184 183 183 183 181 180 134  84  73  75 111 135 120 112 167 169 173 179 182 175 167 154 145 133 121 111 102  92  89  93 101 109 115 122 124 127 140 159 172 174 177 175 162 145 127 110 104 103 104 104 103  99  93  87  80  75  74  79  84  88  95  98 103 110 110 112 113 113 114 110 110 116  75  83 102 103  66  80 157 168 169 169 169 169 169 168 168 170 170
 185 185 185 184 183 183 182 182 181 158  90  70  75 128 124  94  82 167 167 171 176 174 170 161 150 142 130 121 111 105  94  97 105 114 116 122 127 126 131 148 169 177 183 185 180 165 146 128 111 104 104 104 104 104 101  99  96  92  88  86  88  91  92  98 104 106 108 110 110 110 111 111 109 110 115  68  70  88 105  72 101 162 168 170 169 171 170 170 170 170 169 170
 184 184 185 184 183 182 183 182 181 180 116  81  89 128 114  89  80 161 162 166 171 169 163 157 148 139 127 123 114 105 104 112 116 118 121 125 124 126 132 156 174 183 190 191 182 163 148 138 122 108 107 106 101 102 102 103 102 101 101 101  96  98  98 101 106 109 107 106 109 110 111 110 108 111 113  65  63  75  99  89 129 166 171 172 170 171 171 171 170 171 170 170
 185 185 185 184 183 184 184 183 184 182 157  93  96 123  98  82  82 144 162 162 161 154 152 147 140 135 128 121 116 111 114 117 119 121 122 124 123 122 134 170 183 192 194 184 172 158 146 143 129 118 108 105  97  96  99 102 105 106 107 105 102 102 103 102 103 102 105 104 104 108 108 110 109 111 104  60  58  67  95 102 151 168 170 172 170 171 172 171 172 169 172 171
 186 186 185 185 184 183 182 184 184 182 179 118  98 120  92  75  78 136 159 154 149 142 142 137 131 130 124 118 117 118 117 118 120 122 122 122 120 119 150 183 186 188 183 172 158 144 132 134 132 122 111 105  96  92  97 100 104 107 107 107 108 104 103 104 102 102 102 102 104 106 108 109 109 112  96  57  52  64  94 111 164 170 172 172 172 172 172 172 171 172 173 172
 185 185 186 186 185 184 184 186 185 183 181 153 104 120  90  72  73 113 157 152 144 134 131 128 127 124 122 120 122 122 123 120 122 122 116 118 114 121 170 183 182 178 165 152 139 132 124 125 128 125 117 110  98  88  96  99 102 106 108 109 109 106 107 104 101 100  99 101 103 105 105 106 108 111  80  55  55  73 101 135 168 172 174 175 173 173 174 174 172 172 173 174
 185 186 184 185 186 185 186 185 185 185 184 176 119 123 105  79  72 105 153 147 142 134 126 126 124 124 126 122 125 125 124 126 125 122 119 114 109 132 167 174 174 162 144 129 121 114 110 111 113 116 113 109 103  86  88  95 102 106 108 108 107 106 104 104  99 100 100 101 100 104 104 106 107 111  96  79  88 102 103 156 171 172 174 174 174 174 175 175 174 172 173 173
 185 186 186 186 185 186 186 186 185 185 185 181 152 119 124 115 124 148 150 143 137 132 126 124 127 124 128 126 128 127 132 127 124 121 116 111 105 132 152 148 151 141 125 112 103  99  98 101 103 105 105 104 103  87  83  92 100 104 105 106 104 104 101 104 100 101 102 101 100 104 103 106 109 112 115 110 100  98 117 169 173 173 173 175 173 174 175 174 174 173 174 174
 186 185 186 186 186 185 186 186 186 185 185 184 180 139 112 118 149 161 152 145 136 134 128 126 126 127 127 128 129 130 131 131 125 119 113 108 101 121 131 124 126 120 110  99  95  92  91  95  98 100  96  97 100  86  84  91  97 102 103 102 105 104 102 102 101 101 104 101 100 104 103 107 113 112 118 115  99 104 147 171 173 174 175 174 174 174 174 175 173 173 174 174
 186 186 186 186 186 186 186 186 187 185 186 185 183 170 134 147 170 154 150 146 138 135 129 126 126 129 127 129 130 133 134 132 126 119 111 105  99 105 114 105 106 109 102  91  89  87  87  88  89  89  84  87  89  85  83  88  93  99 103 104 104 104 102 101 103 100 104 101 102 103 103 107 112 108 117 117 118 125 168 173 174 175 174 174 174 174 174 174 174 176 174 174
 187 187 186 187 184 186 188 186 187 187 186 186 186 183 160 164 166 159 146 145 139 134 131 128 126 129 129 132 135 137 138 134 128 121 110 103 104 102 102  90  79 103  98  90  84  85  83  80  81  66  69  81  84  83  88  91  93  99 102 103 104 104 101 100 100 100 103 102 103 104 104 107 111 105 112 114 118 153 171 174 175 175 175 175 175 174 175 173 174 174 174 174
 186 187 186 186 185 186 187 187 186 187 187 186 186 186 179 158 160 166 151 141 138 132 126 129 129 130 131 136 138 141 141 139 133 119 109 108 110 107 100  90  80  86  96  90  82  81  82  75  65  53  61  72  84  87  90  92  93 100 101 102 105 103 100 100 102 102 103 104 104 106 106 109 105  98 108 113 139 170 174 175 175 175 176 174 175 174 175 174 174 173 175 175
 186 187 187 185 186 187 187 187 187 186 187 186 186 186 185 168 154 160 146 130 138 131 130 128 131 130 133 138 144 148 150 146 132 119 116 117 117 116 114 101  93  94  94  90  84  79  74  66  59  55  69  85  92  93  94  96  97  98 104 103 104 106 104 103 102 102 104 105 106 106 108 109  96  93 106 130 164 174 174 174 174 175 174 175 176 174 174 175 175 174 174 175
 187 187 187 188 186 186 186 186 188 187 186 186 185 186 186 182 160 140 131 122 138 133 129 130 133 133 138 141 148 153 156 149 132 126 127 126 124 125 119 107  93  88  88  85  73  69  66  62  60  68  78  87  91  96 100 100 101 101 104 105 106 108 106 104 103 104 102 104 105 106 109 109  95  91 125 164 173 174 175 175 174 175 173 174 176 175 175 176 175 174 175 175
 187 185 186 188 185 186 187 187 187 187 187 187 186 186 186 184 182 156 116 110 139 136 131 130 131 135 141 149 155 160 163 147 135 138 138 134 131 128 120 105  83  74  76  77  73  71  68  66  65  67  70  77  87  94  97 100 102 104 103 106 107 108 107 104 104 104 100 102 105 107 110 114 133 159 171 173 174 175 175 175 174 176 174 175 176 177 176 176 177 176 176 176
 186 186 185 186 186 186 186 188 188 187 186 186 186 186 185 186 186 183 179 171 142 136 130 131 135 138 145 155 161 166 160 146 143 144 138 132 129 118 112  96  80  70  70  69  67  70  71  69  64  59  56  62  74  81  91  96  98 102 103 104 110 111 110 109 105 104 101 100 105 108 109 116 155 171 174 173 175 175 174 175 175 175 174 175 175 176 175 175 175 175 176 176
 185 185 186 187 185 186 186 187 188 186 186 186 186 186 186 186 185 185 185 178 150 138 134 133 138 144 152 161 165 165 156 147 148 142 131 128 117 104 100  83  73  68  62  62  59  63  67  63  58  51  50  51  58  69  77  83  89  98 101 103 108 111 113 108 106 105 103 104 104 107 109 124 165 174 177 174 175 175 175 175 174 176 175 174 175 176 175 175 175 174 176 175
 185 186 186 186 187 187 187 188 188 187 187 186 187 186 186 186 187 186 186 182 165 140 133 132 140 147 154 164 167 161 152 137 134 122 119 118 104  90  87  72  67  65  63  63  55  57  59  62  54  47  46  48  51  63  67  70  74  85  89 102 105 111 115 109 107 105 102 102 104 106 110 130 167 175 175 176 174 174 174 175 175 175 174 173 174 175 175 175 176 176 176 176
 186 185 186 186 186 186 187 187 188 187 186 185 184 185 185 186 187 186 184 185 169 143 133 133 141 148 156 166 167 160 136 116 111 109 103 104  88  75  74  68  69  68  63  60  57  55  56  61  58  52  47  44  47  60  65  67  65  66  77  93 104 110 114 112 111 108 102 102 102 103 108 140 169 174 175 176 174 176 174 175 174 174 173 174 175 175 176 175 176 177 177 176
 184 184 184 186 186 186 187 186 186 186 185 184 185 186 186 185 186 186 187 185 174 145 133 134 142 151 159 168 164 140 111 100  98  88  83  78  80  68  68  69  76  76  65  61  55  52  54  59  58  55  53  49  50  55  64  59  55  51  56  75  98 109 112 112 110 109 103  98  99 105 111 157 172 174 175 175 175 174 175 175 175 175 174 175 175 174 175 176 176 176 176 176
 184 183 186 186 185 185 184 185 185 185 185 184 184 184 185 185 186 187 186 187 178 148 136 135 143 151 159 164 164 128 107  89  79  71  72  74  77  71  64  73  83  85  77  65  54  53  56  61  62  59  62  57  53  56  67  59  51  46  45  56  74  99 112 112 108 109 105 101 100 102 118 163 173 174 174 176 175 174 174 175 176 176 176 174 174 175 177 176 178 176 177 176
 184 184 184 184 185 184 183 185 184 185 184 183 184 184 185 184 186 186 187 186 185 158 139 136 142 149 159 164 157 133  93  76  63  64  70  82  83  82  76  76  81  88  83  74  65  66  68  73  72  68  67  70  63  66  74  65  58  50  46  52  64  92 108 112 109 106 103  99 100 105 129 167 175 175 175 175 175 175 174 175 175 175 175 175 176 175 177 177 176 176 177 176
 184 183 184 184 185 184 184 183 183 184 184 184 185 184 184 183 185 186 186 186 184 168 136 135 137 147 160 160 159 132  94  76  71  75  80  84  89  87  83  77  73  76  78  79  78  77  72  72  66  62  64  67  69  73  78  72  68  65  62  70  76  93 109 112 106 103 101  95 100 103 142 171 174 174 174 175 175 175 175 176 176 175 175 175 175 175 177 176 176 175 176 176
 184 184 184 182 183 183 182 184 183 183 184 183 184 184 184 184 183 184 186 184 187 175 140 134 133 145 155 158 153 125 101  87  83  74  71  74  73  66  60  60  64  64  67  68  68  67  64  60  56  55  50  48  49  52  53  50  54  66  71  75  86 101 110 109 105  97  94  94 101 106 149 172 174 174 175 174 176 175 175 175 175 176 176 175 175 175 176 176 176 176 176 176
 184 183 183 183 184 183 183 183 182 183 185 183 184 183 183 183 185 186 186 185 185 180 145 131 134 148 150 151 137 121  99  86  74  61  48  44  50  56  58  58  53  43  45  42  46  46  41  37  35  35  41  42  46  47  40  42  50  56  64  74  83  90 103 109 108  99  91  96  99 110 147 167 172 173 174 175 175 175 174 176 174 174 174 174 175 175 176 176 176 177 176 177
 183 182 183 183 182 183 184 183 183 182 183 182 184 183 184 184 183 184 184 185 182 178 142 125 128 137 141 144 139 119  96  82  72  66  73  74  74  81  89  87  87  75  66  65  59  55  54  54  58  62  66  65  62  61  58  67  69  66  69  71  78  89  99 111 105 102  91  95  94 109 147 162 172 173 173 175 174 173 174 174 172 174 174 175 175 174 175 174 175 175 176 177
 182 183 181 183 182 182 184 183 182 183 183 181 182 182 183 183 183 184 185 185 179 180 134 118 122 125 133 138 130 112  90  86  83  90 102 102  99  94  95  94  94  88  83  82  78  73  76  74  73  76  75  78  76  79  81  83  83  80  75  73  79  91  95 101  95  92  89  90  90 115 124 120 118 115 108 108 112 115 120 125 133 142 161 178 173 174 175 174 176 175 176 176
 182 181 180 180 179 181 182 182 182 182 183 180 182 183 183 183 183 185 183 183 180 125 100 108 124 123 127 134 128 111  99  91  97 103 109 110 108 108 105 102  93  89  85  83  80  76  78  77  77  78  80  85  90  90  91  90  88  89  83  77  77  83  95  94  91  82  84  85  74  54  41  42  42  40  40  39  41  41  40  42  42  46  50  59  98 133 167 174 174 175 176 175
 180 180 179 180 179 180 181 180 180 181 181 180 181 183 182 183 183 184 183 181 110  66  80 106 118 120 127 129 131 116 106  94 101 106 107 105 108 111 113 108  98  92  85  82  81  78  78  79  81  84  85  91  93  94  92  93  92  91  85  78  73  76  91  89  82  72  75  74  64  36  28  24  23  25  22  23  25  25  25  24  25  29  31  35  40  46  57  98 156 175 174 175
 180 179 179 180 181 180 181 178 178 178 181 181 181 181 181 181 181 182 176  98  66  50  69 105 107 108 119 122 119 107  99  95 103 107 107 109 113 114 110 107  98  94  91  84  85  83  80  81  84  85  87  89  93  94  96  96  93  89  84  76  70  65  82  87  77  74  70  68  52  27  19  14  15  14  14  14  16  17  17  15  16  18  20  23  26  30  36  41  46  91 160 173
 179 179 181 181 180 178 179 178 179 177 180 181 181 181 182 181 180 176  89  65  54  33  60  93  97  95 104 114 113  99  91  90  92 103 108 111 111 115 113 105  95  95  92  79  83  76  77  75  80  84  88  92  93  97  94  92  90  82  76  70  62  58  70  80  66  63  65  59  48  25  14  11  12  11  10  12  12  13  12  11  13  15  14  14  19  22  24  27  34  40  50 125
 180 178 181 180 180 179 179 178 179 178 180 178 180 179 180 176 150  94  73  60  33  28  54  92  78  85  97 108 110  95  87  88  86  93 103 107 111 109 106 101  90  86  78  64  71  62  62  63  69  76  81  89  89  90  93  89  86  82  70  62  54  52  51  60  59  55  53  56  39  19  15  11  10  10  10  10  10  10  11  12  12  11  11  12  16  18  16  19  25  30  36  43
 178 180 180 180 180 178 176 177 176 177 178 179 177 160 113  80  76  63  55  33  24  23  54  88  74  78  89 108 104  94  84  78  78  83  91 105 107 101 102  94  86  79  68  58  56  52  49  56  59  67  76  82  84  86  87  83  78  72  60  51  48  46  43  52  51  51  48  60  38  16  14  15  14  11  10  10   9  10  10  10   9  11  10  12  13  14  13  16  21  23  28  35
 178 178 177 180 179 178 178 176 176 177 176 175 127  74  74  69  58  45  34  23  21  30  55 100  78  61  83  96 102  94  75  77  73  73  86  98 100  98  94  88  82  76  68  56  55  46  46  51  57  64  71  76  81  82  83  74  64  58  52  49  42  39  38  46  49  46  46  63  40  16  13  14  16  16  14  11  10  11   9  10   9   9   9  10  10  11  11  13  16  20  24  28
 177 177 176 175 177 177 175 176 175 174 174 109  70  64  64  60  47  35  25  20  24  40  64 117  80  54  67  86 104  85  71  75  74  74  77  88  94  95  95  89  84  77  68  59  52  44  46  51  58  65  73  77  82  84  84  71  55  50  48  45  42  36  32  42  47  37  44  69  81  33  16  13  15  15  16  17  16  16  15  13  10  10  10   9  10   9  11  12  15  19  22  24
 175 176 176 175 175 175 174 174 174 174 115  63  62  60  57  47  34  27  19  19  34  41  54 126 101  62  55  75  84  84  68  68  73  74  73  83  88  93  95  92  90  79  73  66  57  50  51  56  66  70  77  82  85  85  82  69  51  47  44  40  41  35  33  43  38  32  45  74  92  70  29  16  15  16  14  13  15  16  18  17  18  16  14  11  10   9  10  11  14  18  20  21
 174 176 173 173 174 173 174 174 172 141  63  58  56  58  46  38  28  19  18  26  38  38  45 127 111  81  55  63  70  71  64  64  64  65  70  78  84  88  90  92  90  84  82  72  63  62  62  64  73  75  79  83  86  84  75  66  49  41  39  37  35  34  32  37  32  30  66  82  96  96  47  22  15  15  15  11  15  16  17  16  18  17  18  17  16  14  11  11  13  15  18  19
 174 172 174 172 158 130 114 101  92  69  54  52  54  48  39  31  21  15  20  34  36  33  35 126 125 105  63  53  54  54  60  66  62  68  71  72  79  86  88  88  88  87  87  77  70  70  73  74  76  80  83  85  85  79  66  57  44  39  35  35  33  33  30  33  34  53  86  91  98  99  73  34  19  14  16  15  12  16  16  16  16  16  16  17  17  18  16  14  12  13  15  18
 142 106  73  46  48  52  49  49  54  54  50  54  50  40  32  23  17  16  27  35  32  29  27 128 126 118  60  48  52  48  55  60  57  58  67  69  78  82  84  83  87  87  84  75  74  77  82  81  78  74  80  84  82  66  56  51  43  37  34  34  33  29  28  30  41  73  92  93 101 101  88  46  23  16  15  14  11  12  15  16  15  15  15  16  16  16  16  17  16  13  13  16
  49  44  38  36  36  38  39  44  51  49  49  52  42  34  26  17  13  18  33  34  29  25  24 125 124 114  84  48  40  42  47  50  53  62  57  60  72  74  73  79  84  91  83  75  68  79  82  78  75  74  70  80  76  66  56  44  38  34  31  30  30  24  25  29  54  83  94  94  99 101  94  57  30  18  14  14  12  13  14  14  14  13  14  15  16  17  18  17  16  15  13  13
  44  38  35  32  27  27  30  43  49  48  51  45  37  29  22  13  13  23  33  33  25  20  15 130 123 116 102  55  37  34  41  44  46  51  51  62  67  68  72  78  80  85  78  71  68  76  75  72  65  66  71  74  76  69  53  40  37  36  32  29  29  27  24  27  66  89  94  94  96 101  98  70  35  21  16  15  13  12  13  13  11  12  13  14  14  15  16  18  15  13  13  14
  40  37  32  30  32  32  42  47  46  49  52  41  34  23  14  12  16  28  33  30  21  16  18 125 123 116 104  86  38  35  33  36  43  41  49  60  55  59  65  72  72  76  75  65  66  70  70  68  62  64  66  71  69  65  52  35  34  32  30  28  27  25  26  44  87  94  94  93  95 101 100  77  38  23  14  15  12  11  14  13  11  10  12  12  14  14  15  16  15  13  15  13
  38  34  32  28  29  34  41  47  44  49  43  36  27  18  12  11  20  30  31  27  19  15  23 118 123 119 112  95  56  33  31  33  36  36  46  52  49  55  59  64  64  69  63  59  57  64  69  67  65  64  62  65  59  54  42  33  31  29  29  26  25  24  39  80  92  95  94  93  93  99  98  85  44  24  16  14  13  11  13  13  12  12  12  11  12  14  15  16  14  12  13  14
  36  32  30  26  27  34  41  45  46  46  37  32  22  15  11  12  24  30  30  27  17  13  27 109 119 119 113 104  76  40  29  28  31  35  39  45  48  52  52  57  59  59  56  54  56  67  66  65  62  60  57  56  53  47  40  31  29  27  26  23  24  29  67  86  90  95  94  94  94  99  97  89  51  27  17  14  12  10  13  14  12  10  11  12  12  13  15  14  14  12  12  13
  36  31  29  25  26  33  42  44  48  42  36  28  20  13   9  15  28  30  26  20  17  12  25 109 118 119 114 108  92  61  27  26  30  30  33  41  38  42  46  50  52  52  50  53  53  59  58  60  54  52  50  50  46  41  36  29  25  25  24  22  27  56  79  85  90  93  93  93  93  99  98  91  55  28  18  13  13  10  12  13  12  10  10  12  13  12  13  12  12  12  11  12
  35  32  27  26  27  35  42  44  46  38  30  21  16  12   9  20  29  26  22  16  14  13  26 110 115 113 112 108 101  94  49  31  28  28  30  32  31  33  36  38  40  42  43  47  48  53  52  52  46  42  38  35  33  33  29  26  23  23  23  23  42  73  83  87  90  92  92  94  92  96  99  91  59  30  17  13  12  11  12  13  12  10  10  11  12  12  12  12  11  10  10  11
  33  28  27  28  31  35  39  47  42  34  24  16  11  10  10  23  27  24  19  15  13  13  23 108 115 111 110 107  98  98  89  53  28  24  25  24  27  28  32  29  30  29  34  40  38  46  45  42  33  31  32  27  26  27  24  18  22  22  21  39  58  78  83  88  89  90  92  94  92  96  97  90  59  29  17  12  12  11  12  13  12  10  11  10  12  12  12  12  11   9  10  10
  33  28  26  27  31  34  36  45  36  28  18  13  11   8  14  24  27  22  18  15  12  12  23  95 112 112 109 106 103 100  92  81  62  37  28  22  24  25  24  24  22  24  26  27  28  31  34  31  27  28  25  22  22  24  23  22  26  34  43  62  68  73  85  88  88  92  91  92  93  94  95  87  57  28  16  13  11  11  12  14  12  10  10  10  12  12  11  12  11  10   9  11
  31  28  26  27  29  32  39  44  37  26  17  14  11   9  15  25  24  19  18  16  11  11  26  80 107 109 106 103 103  99  91  90  86  67  57  33  30  25  23  21  20  22  22  22  24  26  28  26  24  25  24  22  22  25  31  35  51  58  66  75  77  84  86  86  87  88  88  91  93  92  93  84  51  26  14  13  13  11  12  12  12  10  10  11  12  12  11  11  11  10  10  10
  28  28  28  28  29  30  40  41  32  23  16  12   9   7  16  26  24  20  18  15  12  11  25  59 103 103 101 100  98  96  90  88  84  80  75  70  57  45  31  22  21  23  23  20  23  24  22  24  26  28  25  24  26  44  54  60  69  70  71  78  81  84  85  86  87  86  87  90  91  93  92  82  47  23  15  12  12  11  12  12  12  10  10  11  13  11  10  10  11  10  10  10
  28  28  28  28  28  32  41  37  29  22  17  12  10   8  19  24  21  20  18  14  12  10  20  32 100  98  97  96  95  94  90  85  81  77  70  80  73  73  65  55  46  42  34  27  26  29  33  43  46  42  36  36  42  61  64  69  72  75  78  80  82  81  84  86  86  86  88  88  89  91  88  75  40  21  14  13  11  12  12  12  12  10   9  10  12  12  11  11  10   9   9   9
  30  27  29  26  28  35  37  35  28  21  14  10   7   9  19  22  18  20  18  15  13  11  15  23  67  94  95  92  95  92  92  89  84  79  74  78  78  76  76  73  71  71  73  61  54  52  57  61  59  54  50  57  55  66  69  71  73  74  78  82  82  82  81  82  84  84  85  87  88  89  83  65  33  19  13  12  12  11  12  11  12  11   9   8  12  12  11  10  10   9   9  10
  31  28  28  26  28  36  37  32  27  21  13  10   7  10  18  20  20  19  15  16  13  12  13  21  35  83  92  91  92  92  92  92  88  83  79  82  84  82  78  78  77  78  77  74  74  71  68  65  61  62  58  63  65  65  69  72  75  76  77  79  78  77  77  79  83  83  84  85  87  85  77  55  27  16  13  12  12  12  12  11  12  11  10  10  11  12  11  11   9   9  10   9
  30  29  27  28  29  34  36  32  25  23  16   9   4  10  16  17  18  18  17  16  15  15  11  14  25  44  87  88  88  90  88  88  86  87  83  81  83  82  83  80  75  75  75  74  72  71  66  62  61  63  64  66  65  68  72  73  74  77  75  77  77  75  76  77  80  81  82  84  84  80  69  43  22  14  13  11  12  12  12  11  12  10  10  10  12  12  10  10  10   9   9   9
  29  28  28  28  31  29  34  30  26  18  11   8   5  11  13  14  17  15  16  16  14  17  11  12  18  25  55  84  86  86  84  87  88  87  85  83  82  82  81  81  78  74  73  70  67  64  61  61  60  62  63  66  67  68  72  72  74  75  73  73  74  74  72  75  77  80  80  82  77  74  60  32  19  13  12  12  11  11  12  10  10  10  10  10  11  11   9  10  10   9   9   9
