P2
# Generated by OpenCV 3.4.0
92 112
255
  79  76  78  78  79  81  83  82  81  83  84  83  84  84  85  85  86  86  86  88  87  84  87  89  87  89  86  87  88  88  88  88  87  87  89  87  87  87  85  84  86  84  83  84  83  80  81  80  81  81  82  84  85  86  87  88  91  94  96 100 101 103 109 108 108 110 110 111 110 111 112 112 112 112 112 110 110 111 110 109 110 108 110 110 111 110 111 110 110 110 109 110
  77  76  79  79  80  82  81  81  82  82  85  85  84  85  83  85  86  86  86  86  85  86  88  87  87  85  87  86  85  85  85  85  84  82  81  83  82  83  82  84  87  84  87  88  88  92  90  95  97 102 103 105 107 110 109 111 112 112 112 112 113 113 114 113 112 114 113 112 113 114 114 114 114 113 112 112 112 112 111 112 111 112 111 112 113 111 114 112 112 111 111 111
  79  78  80  78  82  82  83  81  81  83  83  84  85  85  83  85  84  83  84  83  81  81  81  80  80  81  81  82  81  83  84  86  88  89  90  93  95  98 100  99 103 106 109 110 111 112 112 114 112 115 114 114 114 115 114 114 113 115 116 115 115 116 115 115 114 115 114 113 116 115 115 113 115 113 113 114 114 114 112 113 113 112 111 113 112 112 111 112 112 111 110 111
  78  78  78  79  81  80  80  80  78  80  79  80  80  79  76  77  77  76  78  77  78  78  83  87  89  94  97  98 101 101  97 105 108 109 112 111 112 112 112 113 112 113 114 114 114 115 114 114 114 115 114 115 115 114 114 114 115 116 117 116 116 115 115 114 115 115 115 115 115 115 115 116 115 114 115 116 114 113 114 114 113 113 112 112 112 113 112 111 111 111 112 111
  76  75  73  72  71  73  74  72  72  76  78  82  81  85  87  90  92  96  97 100 101 104 106 107 108 112 111 110 112 110  93 111 113 114 113 114 114 117 114 113 114 114 115 116 115 116 117 116 116 116 115 115 114 116 117 116 115 116 117 117 116 114 115 115 115 115 116 116 115 114 115 116 114 115 115 115 113 114 113 113 114 113 114 114 113 112 112 112 111 112 113 112
  75  76  77  82  83  90  90  94  96  98 100 103 106 105 106 107 107 108 108 110 111 109 110 112 112 112 113 113 114 113 112 113 115 116 116 116 115 116 116 116 116 116 117 119 115 118 120 121 116 116 116 117 117 115 117 116 116 117 116 116 117 118 116 116 116 115 115 117 115 116 115 115 117 115 115 114 114 114 114 115 115 113 114 115 113 112 113 113 112 112 113 112
  96  96  99 101 102 103 104 104 104 105 106 107 108 106 108 109 110 112 110 111 111 111 111 112 113 112 113 114 114 114 115 116 115 116 117 117 121 119 119 119 120 121 129 128 119 118 115 118 119 118 116 119 117 116 116 117 117 118 117 116 116 117 117 116 116 116 115 116 116 117 115 116 115 114 116 116 114 115 116 115 114 114 113 113 115 113 113 115 112 112 110 111
 100 100 101 104 103 105 106 106 106 108 108 108 108 108 108 108 109 111 111 111 111 113 112 114 114 114 116 115 115 118 117 119 118 118 121 127 127 126 131 133 126 131 136 133 123 118 120 114 115 116 119 119 122 115 116 115 117 117 118 117 117 116 116 117 117 117 118 117 117 117 116 115 115 116 116 116 117 115 116 115 115 113 114 114 114 114 114 114 113 114 113 114
 100 102 103 103 103 106 106 106 107 107 108 109 110 109 110 110 112 110 112 113 113 112 113 115 115 115 115 115 115 116 117 116 122 123 128 146 127 136 156 161 146 147 161 136 131 125 130 123 113 120 105 109 115 103 110 114 117 116 117 117 118 118 117 116 115 116 116 117 117 118 117 116 116 117 117 116 117 117 115 115 115 114 114 114 115 114 113 113 113 113 115 113
 102 103 106 104 104 107 107 108 108 109 108 110 110 109 110 111 112 112 112 113 114 113 114 114 116 115 116 115 115 115 119 124 131 145 149 158 156 164 183 171 162 170 170 132 128 137 135 127 124 122 105 112 104  90  96  97 101 100 108 114 117 116 116 117 116 116 117 117 117 117 117 114 115 116 116 116 117 116 117 115 116 116 115 115 115 115 115 115 114 114 113 113
 100 103 104 104 106 105 106 109 109 108 109 109 112 109 111 112 112 111 112 113 114 113 115 114 116 117 119 116 114 126 139 151 164 181 186 181 183 175 177 174 168 170 157 144 135 143 134 115 128 112 112 109  94  97  94  88  83  82  84  92 107 114 117 117 116 117 116 118 118 118 117 116 116 118 117 116 115 116 116 116 117 115 114 115 115 115 114 116 114 114 114 114
 103 105 104 105 106 107 107 108 108 110 111 112 112 111 111 112 112 114 112 113 114 114 114 116 115 117 118 114 122 151 151 168 171 177 177 178 174 169 175 175 176 169 158 155 147 144 130 131 128 111 117 121 103  98  84  86  82  75  70  72  77  92 110 116 116 117 118 118 120 118 118 118 117 117 117 116 117 117 116 117 116 115 115 115 117 115 116 116 116 115 116 114
 103 104 104 105 107 108 109 109 108 111 110 111 112 113 112 112 112 113 112 112 114 114 115 116 116 118 116 122 148 156 151 164 163 162 168 163 170 171 170 181 184 176 173 166 161 147 136 137 120 116 122 123 104  92  91  89  97  96  85  83  77  79  86 103 113 115 116 118 119 120 120 118 117 118 117 119 118 118 116 117 116 117 117 117 116 117 117 117 116 116 116 114
 104 106 107 106 106 107 108 109 109 109 111 111 112 113 112 112 113 114 114 114 114 115 114 118 117 117 115 133 153 151 151 153 148 158 159 164 174 172 177 190 191 186 183 178 166 156 148 135 118 119 119 112 105 101 101 104 101  92  79  79  83  86  82  84  96 110 117 118 118 120 118 119 118 118 118 119 118 117 118 117 117 117 118 116 117 117 118 115 117 116 116 115
 105 106 105 106 106 107 108 108 110 111 111 112 111 111 112 112 113 115 115 116 117 117 117 119 121 120 118 146 149 149 156 158 163 164 172 180 186 183 189 192 191 191 191 179 165 165 144 133 128 127 127 114 107 104 107 106 103 100  94  94  93  87  80  79  82  95 111 115 117 122 121 120 119 119 121 120 120 119 119 118 118 117 118 118 117 116 116 116 119 117 117 117
 105 106 106 108 107 108 109 112 110 112 112 113 112 113 113 115 115 116 117 116 118 118 120 121 125 129 157 172 160 165 180 185 188 191 202 206 205 197 196 201 206 200 188 174 166 153 141 132 133 133 122 120 113 112 107 109 108 104  99  95  88  82  80  80  78  78  93 109 118 121 122 121 120 122 121 122 122 119 121 120 121 118 118 120 121 119 119 117 118 118 117 117
 104 106 108 107 107 108 109 109 110 112 112 113 112 113 115 116 118 115 116 117 119 122 123 122 127 153 205 200 192 203 214 218 220 224 230 232 224 213 203 195 193 189 179 165 151 144 138 135 132 131 130 130 128 129 124 117 115 104  94  87  78  78  77  79  77  82  79  91 111 118 121 121 121 123 121 122 122 123 122 122 121 120 119 121 121 119 118 118 119 119 117 118
 107 107 109 106 108 110 110 110 113 111 113 113 115 114 114 117 118 118 120 119 120 123 122 121 132 185 222 214 216 224 238 243 244 244 246 245 236 224 210 194 186 181 168 156 146 144 141 144 152 156 150 151 146 139 135 130 125 120 114 110 106  90  78  72  71  69  71  73  85 113 118 123 122 122 122 123 123 122 122 122 122 121 121 122 121 121 122 121 121 120 118 118
 108 107 108 108 108 110 113 112 113 115 115 116 117 118 118 119 117 119 121 121 122 124 123 127 159 208 219 218 225 235 246 244 245 246 245 237 233 226 211 191 182 173 168 163 155 157 158 162 166 168 167 165 160 153 146 143 137 133 132 127 123 118 100  81  74  78  70  69  75  87 112 122 122 122 122 123 124 124 124 124 122 123 122 123 122 122 123 122 123 122 121 121
 110 109 110 110 111 113 114 114 115 116 117 117 118 119 120 120 120 120 122 123 124 125 126 138 203 214 212 216 225 231 235 233 231 232 230 227 225 220 204 187 183 181 180 173 171 170 171 172 174 176 176 169 167 160 152 151 144 139 136 136 136 132 124 107  81  74  85  73  71  73  92 118 124 124 124 125 124 125 124 124 123 124 123 123 123 123 123 121 124 123 121 121
 112 111 113 112 112 115 116 116 116 119 119 119 119 119 122 123 124 123 126 127 127 125 128 178 206 206 208 213 219 223 226 226 221 220 219 214 204 202 192 180 180 184 179 178 178 172 176 176 173 170 167 159 158 154 150 150 147 141 141 138 138 138 134 127 116  88  76  83  70  68  73 104 122 124 125 126 126 125 124 125 124 125 125 125 125 125 125 125 125 124 123 122
 114 114 115 114 115 114 117 118 120 120 123 121 121 123 125 123 125 125 127 128 128 130 160 199 203 205 207 212 217 221 218 216 211 212 210 201 194 189 183 177 175 177 178 179 174 169 172 172 170 168 163 154 146 145 140 142 142 143 141 140 139 138 134 134 130 118  97  83  79  65  67  78 115 123 125 128 128 128 126 125 125 127 126 126 126 126 125 125 125 125 124 124
 115 117 118 116 118 120 120 120 121 121 123 125 125 126 127 127 127 128 129 129 130 148 193 203 204 205 206 208 208 214 212 209 207 204 198 193 187 180 175 171 166 165 173 171 169 164 170 168 162 162 156 149 139 137 135 133 137 137 140 140 139 136 136 135 134 131 124  98  84  74  63  67  92 121 127 130 129 128 127 126 126 127 127 127 127 126 125 127 125 125 126 126
 119 118 119 119 120 122 122 124 124 125 125 127 128 127 128 128 130 130 132 133 143 187 201 201 199 199 198 197 200 205 202 199 194 190 184 178 174 169 165 166 161 168 170 166 163 158 162 158 156 152 141 135 128 128 127 127 132 132 135 134 138 134 137 139 137 137 131 119  95  79  65  61  75 106 127 133 129 130 129 127 129 129 129 128 128 128 127 128 128 128 128 126
 123 123 124 123 125 126 127 126 126 126 127 129 129 130 131 130 130 133 134 139 167 198 201 197 194 196 193 188 188 190 185 181 186 184 178 179 176 171 170 172 175 172 168 161 151 146 152 148 141 135 126 121 119 118 118 120 125 126 130 133 135 132 135 135 134 130 125 121 110  88  75  63  66  87 116 131 130 129 130 128 129 131 130 129 130 130 129 129 129 128 128 127
 126 125 126 126 127 128 128 129 128 130 130 131 132 131 133 134 136 135 137 149 197 201 198 193 191 189 188 185 185 185 186 188 185 182 183 175 169 168 168 166 164 162 158 148 144 145 140 134 130 122 117 114 108 109 111 111 117 122 125 130 132 132 134 132 128 124 121 118 116 108  89  69  63  65  95 123 132 130 130 130 132 134 132 131 131 131 132 130 130 130 130 130
 128 128 129 129 129 131 130 131 133 133 135 131 135 134 136 135 138 137 140 172 202 201 195 192 185 182 182 181 181 183 181 176 173 180 177 171 164 159 156 155 158 155 151 143 135 140 138 130 121 115 110 108 104 103 107 108 108 114 118 125 126 128 131 130 126 120 118 117 117 116 103  88  69  60  73 107 127 132 134 133 134 135 133 133 133 133 133 133 132 133 132 132
 130 132 132 132 131 134 132 133 133 134 136 134 136 137 137 139 140 139 145 183 199 198 192 187 182 182 181 178 174 175 177 182 182 180 174 169 160 158 157 159 157 152 143 133 132 138 132 125 119 113 107 105 103 101 104 106 106 112 117 119 122 123 124 123 120 119 118 118 118 117 112 105  86  67  64  83 121 132 136 135 136 135 135 134 133 133 134 134 133 134 133 134
 132 134 135 133 133 135 134 136 135 137 138 135 139 140 139 140 142 144 156 188 194 192 187 184 178 177 179 178 176 179 181 182 178 173 164 156 150 152 152 158 152 146 140 135 139 142 134 127 121 112 107 102 101  99 100 103 105 107 114 118 118 119 119 118 116 117 118 118 116 116 116 109 100  76  65  71 111 131 136 136 135 136 136 137 136 136 134 136 135 135 134 135
 135 136 138 137 137 138 137 138 139 140 140 140 140 141 142 144 144 149 173 190 193 190 188 189 189 188 184 185 185 184 184 179 176 166 158 155 152 161 176 176 167 157 152 152 153 150 142 133 124 116 109 105 102 103 106 104 106 103 108 112 111 114 111 112 112 115 117 116 115 114 119 109 100  86  68  66  89 129 134 137 136 137 138 137 136 136 137 137 138 136 135 135
 139 138 140 139 139 140 140 141 142 140 142 143 143 142 144 144 145 153 182 189 190 192 191 190 193 193 191 189 188 185 182 183 180 180 176 167 165 178 191 175 165 159 160 161 154 145 137 130 126 118 114 112 110 108 109 108 109 108 109 110 110 110 109 108 108 112 115 114 116 112 113 107  94  85  74  65  76 118 135 137 139 138 138 138 138 137 138 138 138 138 137 136
 141 143 143 144 143 142 144 143 144 143 144 143 146 146 147 145 146 166 186 190 192 193 194 193 194 192 194 194 191 190 186 185 184 175 175 172 172 171 163 152 161 163 166 166 159 152 144 134 128 122 120 119 115 114 109 110 111 112 110 110 111 109 106 106 107 110 114 112 115 115 112 104  95  82  75  68  77 113 136 140 140 140 138 139 139 138 139 139 139 138 138 137
 146 144 145 147 146 146 144 145 144 145 147 148 148 149 150 150 147 174 187 189 190 193 197 198 201 201 198 200 195 193 189 184 173 172 169 168 166 165 162 162 164 170 170 169 163 157 149 142 138 134 129 128 124 120 114 111 114 115 112 112 110 110 108 108 108 110 112 111 113 115 112 106  95  80  70  69  76 112 134 140 142 142 144 143 143 142 141 140 141 141 139 140
 147 147 147 150 149 149 146 147 148 149 149 150 151 150 149 150 146 179 185 188 195 202 202 205 207 205 201 197 195 191 186 180 174 167 164 164 166 166 167 168 169 168 167 165 164 154 147 143 141 138 138 136 132 126 121 120 119 119 116 112 109 108 109 109 109 111 110 110 111 112 113 108  97  79  68  64  74 115 135 142 143 141 144 144 143 143 142 143 141 141 142 141
 149 151 152 151 150 149 150 149 150 150 149 150 151 153 152 151 152 183 186 188 198 203 202 204 206 205 201 197 190 185 174 168 160 158 159 160 160 157 161 164 162 162 160 157 154 150 143 142 145 146 145 145 136 128 125 120 118 115 114 110 108 108 109 110 108 110 109 111 110 111 112 108 101  85  65  63  66 106 139 143 143 143 143 143 144 144 145 144 142 142 143 143
 151 152 153 152 152 151 151 151 152 152 152 153 152 153 155 152 159 182 187 191 198 199 197 199 199 200 194 189 182 172 164 157 148 145 146 146 145 143 151 155 154 156 152 150 145 144 143 145 144 145 142 138 134 129 125 120 119 115 111 110 107 105 108 109 109 109 109 111 111 110 111 109 101  89  67  60  58  80 135 142 146 145 146 146 146 145 145 145 144 145 143 145
 155 155 154 157 156 154 152 152 153 153 153 156 156 156 158 156 168 184 187 190 191 190 190 187 180 174 170 166 163 156 151 142 136 136 140 140 139 142 148 146 140 135 135 132 132 132 135 139 137 136 135 134 128 127 122 120 119 118 111 108 108 107 107 110 110 109 109 110 111 114 112 110 104  93  73  58  56  54 123 144 145 146 148 147 146 146 146 145 144 145 146 146
 157 157 158 159 160 157 155 155 156 156 158 159 157 158 159 158 171 182 180 180 180 176 168 156 144 143 131 136 138 136 137 131 129 133 132 134 137 137 138 138 129 124 124 122 120 119 123 122 123 122 121 118 119 115 112 110 112 112 112 109 108 106 106 107 109 109 108 109 111 112 112 113 106  97  83  62  54  54 102 139 146 147 147 150 149 148 149 147 146 148 146 146
 159 159 161 161 161 160 159 157 158 157 159 159 159 160 160 154 169 179 168 165 155 146 123 117 113 111 105 109 115 118 116 120 122 122 127 130 125 124 128 124 118 117 111 112 109 106 108 111 114 112 109 104  96  96  94  99 101 104 109 112 108 106 105 104 107 109 110 110 111 111 112 110 106  98  83  66  54  55 100 141 147 149 150 148 149 149 149 149 150 150 148 148
 160 163 163 164 164 161 160 160 160 160 160 160 161 162 162 153 167 168 148 129 122 105  92  88  91  94  89  94  95  99 105 110 114 113 116 118 116 116 119 117 112 109 101 100  97  93  92  99 101 102  99  92  84  83  83  84  89  91 103 104 101 106 109 104 107 107 109 109 109 111 111 109 105  97  86  67  56  55  98 145 147 151 151 150 150 152 150 151 151 151 150 150
 165 165 165 165 164 163 162 160 162 163 163 162 164 162 163 147 165 151 126 105  96  84  77  72  82  89  83  81  86  87  96 101 104 107 111 112 112 109 109 108 104 101  94  92  88  82  88  80  74  72  74  71  65  60  66  64  71  77  84  86  90 101 108 108 105 110 109 110 111 111 110 109 104  97  88  71  57  55  84 140 146 149 151 151 153 153 152 153 152 152 152 152
 166 166 166 166 166 164 164 164 164 164 165 164 165 165 165 149 163 125 118 108  99  94  89  84  82  85  85  80  81  85  88  94  99 104 107 108 106 104 104 101  98  93  88  83  76  72  67  65  64  61  59  57  53  54  59  57  62  67  72  76  80  89 102 109 106 109 110 108 113 112 111 110 104 100  88  72  56  53  79 134 148 152 153 153 153 154 153 152 152 152 154 153
 168 169 169 169 167 165 165 165 165 167 166 166 166 164 164 150 150 132 127 122 112 106 102  95  95  93  91  88  86  85  86  90  95 102 105 108 103 102 100  96  92  84  82  76  72  66  63  63  64  62  62  65  67  69  70  75  76  80  79  81  80  80  82  92 103 106 109 110 110 111 111 110 108  99  85  74  58  51  70 128 147 153 153 154 156 155 155 154 154 153 153 154
 169 169 171 171 171 168 167 165 166 167 167 167 167 165 163 152 145 150 138 123 110 103  99  93  93  94  93  94  94  91  90  91  93 100 105 106 102  98  94  92  89  81  79  78  70  69  72  72  74  73  74  76  78  80  79  80  80  83  88  90  88  84  83  83  93 107 108 110 110 111 111 110 107  96  80  74  59  51  62 128 148 151 153 154 155 154 154 155 156 155 155 155
 172 173 173 173 172 170 169 169 169 168 170 169 170 169 165 157 145 150 133 116 101  84  77  73  73  74  79  90  93  95  96  98  99 104 106 108 107  98  91  92  87  82  80  77  76  76  74  73  72  71  73  74  72  73  73  77  80  85  88  92  95  98  96  99  90 102 108 110 110 110 111 112 105  93  79  71  60  52  55 115 148 156 155 155 157 158 157 157 157 157 158 156
 174 173 174 174 173 172 171 170 171 170 172 172 171 169 166 161 138 140 120  98  80  58  47  42  43  43  44  48  72  92  96 101 105 110 114 113 106  99  93  91  86  83  82  78  75  73  71  68  63  56  46  46  47  52  60  67  72  79  87  91  94  98 101 101  96  96 105 108 109 109 111 112 107  91  76  70  59  53  54 106 149 155 157 158 160 160 159 160 160 157 158 157
 175 175 174 175 174 172 172 172 172 172 173 172 172 170 171 164 143 130 108  79  55  48  48  44  46  50  47  51  53  71  89  94 104 114 119 118 110 101  95  92  87  84  78  73  69  67  62  55  43  38  37  36  35  39  42  44  51  68  79  84  90  94  98 101  98  91 104 107 110 109 109 110 106  91  76  66  58  52  54 102 148 156 160 162 161 161 161 160 160 160 160 159
 176 176 176 177 175 174 174 173 173 173 173 172 172 172 173 170 153 122  96  68  51  53  52  51  55  61  70  58  60  57  70  87  98 118 118 121 118 106  98  92  87  84  73  67  61  56  49  39  39  38  35  33  36  46  49  42  46  52  61  70  82  88  93  99  98  95  95 102 110 109 109 112 103  90  76  67  58  52  54 103 148 159 160 161 163 165 162 161 161 161 161 160
 178 176 179 180 176 176 175 174 174 175 174 174 174 174 174 172 162 122  94  69  64  65  67  30  47  70  88  75  65  67  62  70  89 110 129 133 127 112 100  94  85  77  66  59  51  47  42  43  44  38  37  37  38  44  71  68  54  48  51  58  74  81  90  92  99 100 101 104 110 111 111 112 102  86  76  69  60  53  56 104 147 157 160 162 162 163 163 162 162 162 162 162
 177 177 179 180 178 177 175 175 176 175 178 177 175 175 175 174 166 124 100  78  80  73  56  29  62  87 101  87  71  62  68  67  73 104 133 141 133 114 102  93  85  72  63  54  47  44  43  43  44  38  31  26  33  46  84  90  81  62  52  52  64  76  84  91  96 101 102 105 107 109 112 114 104  86  74  72  64  53  56 112 150 155 160 163 162 163 163 163 163 162 162 162
 180 181 181 181 179 178 176 177 176 177 178 179 177 178 178 175 167 129 107  84  95  91  72  81  99 108 106  94  82  67  63  76  76 103 137 148 140 122 104  94  82  70  62  50  44  46  40  41  50  40  36  29  37  53  98 106  96  82  61  57  56  68  77  86  92 100 104 105 107 109 110 113 105  94  74  70  60  52  58 126 151 157 161 164 164 165 164 164 164 164 164 164
 181 181 182 181 180 179 178 178 180 179 179 179 180 180 178 178 167 134 113  96 105 131 116 114 115 114 106  91  77  64  67  72 100 114 149 159 147 129 111  95  81  68  62  55  52  39  38  44  66  56  51  52  57  88 107 109  99  86  68  64  56  61  72  81  88  95 102 106 108 110 112 113 110  97  77  72  58  50  59 138 154 154 161 163 161 164 165 166 165 165 165 165
 182 182 182 181 180 180 179 177 178 179 180 180 180 180 187 199 174 142 117 112 124 126 122 112 104  98  90  82  75  68  74  85 101 131 166 166 154 138 120 100  84  72  62  59  55  48  46  50  62  73  79  80  90 102 111 109  97  83  76  70  64  62  70  78  85  93 101 105 107 111 111 112 109  94  80  71  56  50  77 144 152 152 158 161 163 165 166 165 166 164 166 166
 183 184 183 181 181 180 181 179 180 180 181 181 180 179 169 172 173 151 130 132 131 122 113 102  91  80  77  71  66  66  71  83 114 164 180 172 163 146 124 109  92  77  68  62  55  52  52  55  63  69  77  81  85  88  92  92  88  89  85  82  71  65  68  76  82  91 101 106 108 112 115 114 107  97  79  68  53  51  89 132 145 152 159 163 165 166 166 166 166 165 165 166
 183 184 182 182 182 180 181 181 181 180 181 180 181 164 112 116 173 167 153 152 139 124 113 101  90  83  73  70  66  68  78 103 152 185 186 181 167 151 131 114 101  82  75  68  57  53  53  53  58  63  67  70  74  75  77  80  78  81  88  96  91  79  74  77  84  92 103 108 110 112 116 113 107  97  87  82  83  81  98 112 117 130 156 165 165 166 168 167 166 167 167 167
 182 183 184 183 181 181 181 181 180 181 180 181 180 145  96 110 176 178 172 163 145 126 116 105  92  86  78  74  75  84 102 134 184 187 185 178 162 143 126 115 106  93  82  76  69  60  55  53  57  62  64  69  71  74  79  84  84  90  94 101 105 100  91  89  91  96 104 106 110 112 115 114 110  99  92 100 106 102 101 103 108 109 128 165 166 168 168 167 168 170 167 168
 183 184 184 183 182 181 181 181 181 181 182 181 180 135  93 111 180 188 185 170 148 131 121 108  96  89  85  85  90 107 121 166 183 180 180 171 151 130 115 109 108  99  92  82  76  71  59  53  57  62  65  68  75  80  84  85  89  95  98 104 105 101  99  96  98 102 105 107 110 112 116 118 115 102 100 103 104  99  90  81  86  94 101 152 166 169 167 168 168 169 168 167
 184 183 186 184 182 181 181 182 182 181 182 181 178 134  90 111 184 192 191 179 157 137 121 113 105  96  92  95 111 124 141 177 183 177 176 164 144 120 108 104 105 100  94  87  82  79  70  63  61  62  63  68  73  80  85  87  91  93 100 103 105 104 102  98 101 104 103 108 109 114 116 117 112 102 102  99  96  85  76  68  66  67  81 141 166 168 169 169 170 170 168 166
 184 185 185 184 182 182 182 182 183 182 183 183 182 150  91 110 184 192 190 180 162 142 124 115 107 102 102 112 126 132 157 183 184 184 175 157 136 115 103 102 102 101  97  92  87  82  79  70  64  64  66  71  73  78  82  87  91  94 100 101 105 104 106 102 104 107 105 105 106 110 116 118 109 103  97  94  76  69  80  71  64  62  75 142 166 168 170 170 170 170 169 167
 184 184 185 184 183 184 183 182 183 183 182 182 182 177 108 116 181 187 183 174 162 144 127 112 107 110 117 126 134 140 171 186 187 185 172 149 125 108 102 101 100 100 101  96  91  86  82  81  73  65  67  73  78  79  83  89  92  95 100 103 107 109 109 106 106 106 106 104 104 109 115 117 107 101  90  87  79  74  81  79  63  58  75 150 168 168 169 171 171 170 168 169
 185 185 186 185 184 183 185 183 183 183 182 183 183 182 143 124 176 180 176 168 153 143 131 117 113 121 129 133 139 150 182 189 192 188 169 140 114 104 100 101 101 101 100  95  92  88  86  86  82  76  74  73  79  84  84  90  91  95 100 105 108 108 109 108 108 108 106 106 106 110 112 114 101  94  80  52  72  92  99  97  67  59  83 160 169 171 171 171 170 170 170 169
 185 186 185 185 184 185 184 183 184 184 183 184 182 183 169 127 171 170 166 159 149 142 138 123 126 130 132 138 142 161 190 193 197 187 163 139 119 106 100 101 102 100  97  96  94  89  87  89  87  85  81  81  82  86  86  92  96  96 100 105 105 108 107 107 106 107 106 104 104 107 111 111 102  95  67  49  55  76  95 106  70  62 103 166 171 170 170 171 171 170 172 172
 186 186 186 186 186 184 185 185 184 183 184 183 184 184 180 142 164 160 154 150 144 137 132 136 135 134 136 139 142 182 194 196 191 178 159 144 134 116 106 105 104 101  94  90  88  89  88  90  90  90  90  90  88  91  90  95 102 102 103 103 103 104 106 104 105 106 103 103 106 109 111 110  98 101  69  52  54  66  81 101  75  76 132 169 171 172 172 173 172 172 172 173
 186 186 186 186 185 184 184 184 185 184 184 185 185 183 183 162 159 148 144 141 139 135 139 142 142 139 140 138 158 193 194 188 180 166 149 139 138 126 117 107 103  98  91  85  85  87  90  91  93  95  98  96  94  95  97  97  98 100 101 101 101 101 104 104 104 104 102 102 105 108 111 110 103 110  73  52  51  55  68  95  83  95 163 171 173 174 174 173 173 175 174 173
 185 186 186 185 185 186 186 185 186 185 185 186 185 184 185 174 160 145 139 140 141 143 145 147 148 144 140 138 180 186 186 177 162 150 134 132 129 127 120 113 107 101  91  81  84  86  90  94  97  99 102 102 101  98  98  99  98  98  94  99  99  98 102 101 102 102 103 102 103 108 110 109 106 103  66  56  49  52  66  91  90 129 168 173 174 173 174 172 174 175 174 173
 186 186 185 186 185 187 188 187 186 185 186 186 186 186 186 182 163 145 142 144 143 144 148 151 151 148 143 146 182 179 174 156 141 134 126 121 121 121 117 115 108 102  95  79  79  85  90  93  99 100 104 102 103 102 100  99  96  94  93  94  95  98 100  98 100 101 101 103 103 108 109 108 101  81  60  53  48  50  65  93 100 158 172 173 174 172 173 174 174 174 174 172
 187 186 188 188 187 187 187 187 185 186 186 186 185 186 186 186 170 151 145 146 147 148 152 155 155 146 139 145 168 165 152 134 122 114 109 106 105 108 107 103 102 100  96  84  73  82  89  94 100 102 103 103 102  97 100  97  94  93  93  91  93  96  96  97  97  98 102 102 103 106 105 105  87  70  67  50  49  65  85  97 121 168 173 175 174 174 174 174 174 175 174 173
 187 186 187 187 186 186 186 186 187 186 186 186 185 186 185 186 178 152 143 146 146 151 153 155 155 145 134 137 144 139 128 115 107 104 101  96 100  97  97  93  94  96  94  84  72  80  87  94  97  99 101 101 101  98  97  95  96  94  93  93  94  96  97  98  95  99 102 101 104 105 105 104  76  87 108  99  95  99  95  99 153 171 175 174 174 175 174 174 174 174 174 174
 187 187 186 186 186 186 186 186 187 186 187 185 187 186 186 186 179 149 144 145 148 152 157 161 154 146 133 124 128 123 114 105  98  98  92  92  92  89  85  86  86  90  93  78  72  80  87  90  94 100  98 100 100  99  94  95  98  96  98  97  94  93  96  96  95  98 101 102 104 107 105 103 100 106 116 109  94  83  93 130 169 174 174 173 175 174 174 174 173 174 175 176
 187 187 186 187 187 186 186 187 188 188 186 186 185 186 186 184 180 151 147 149 150 156 163 162 158 148 131 125 128 121 107  97  92  90  87  86  82  77  68  66  80  84  88  73  73  82  85  91  93  97  98  96  97  98  93  95  98  96  98  98  95  95  99  97  97 100 101 103 105 105 105  97 102 109 113 115 106 100 115 164 172 174 174 175 176 175 174 175 174 175 175 175
 187 187 187 187 185 187 188 187 188 187 186 186 186 186 188 186 184 157 146 149 153 160 170 170 164 145 134 136 140 135 116  96  88  86  82  79  74  63  53  52  65  73  71  72  74  84  86  89  92  97 100 100  98  97  94  93  92  94  98  99  95  96  96  94  96  99 100 105 104 105 101  90  94 106 110 112 115 113 150 169 172 174 174 174 175 175 176 174 175 175 175 173
 186 188 187 188 187 185 188 188 189 187 185 186 187 186 188 186 186 164 148 150 157 166 175 174 163 148 146 149 151 150 134 105  95  88  84  76  66  59  53  47  50  60  70  78  80  87  90  90  94  97  98  99  97  96  93  95  93  96  98  99  97  95  96  96  98  96 101 104 105 102  99  86  94 105 107 108 114 149 170 174 174 174 173 174 174 174 174 174 175 175 176 174
 186 187 186 187 187 187 186 188 189 188 187 187 186 186 185 186 187 168 148 153 163 173 179 176 161 158 160 162 160 152 124  99  97  89  76  70  62  56  54  52  63  77  82  84  88  91  93  91  93  98  98 100 101  98  96  97  96  95  98  97  97 100  98  98  99  99 100 100  99  97  89  84  90  98 104 112 156 169 173 173 176 174 175 175 174 175 175 174 176 175 176 176
 186 184 186 186 186 188 186 187 189 188 185 186 185 186 187 187 186 171 151 156 168 179 183 172 163 166 166 165 166 146 112  84  87  80  75  74  65  58  56  62  72  80  85  86  88  92  94  93  94  95  97 100 102 101  98  98  96  94  96  95  98  97  97  98  99  99 100  98  96  96  81  81  85  94 113 159 171 172 174 174 175 175 174 174 175 176 176 176 177 176 176 176
 186 186 185 186 185 187 187 188 188 187 186 186 185 185 187 188 187 178 154 162 175 182 181 169 171 167 160 156 139 124 104  78  77  74  75  76  64  60  61  55  61  69  78  84  87  91  94  97  96  98 100 101 101 100  96  97  96  94  92  93  96  96  98  98  99 101 100 101  99 100 100  93 101 128 157 170 173 174 175 175 175 176 175 175 175 175 174 175 175 176 178 175
 184 185 186 186 185 185 187 186 187 186 185 185 186 186 186 186 185 179 153 162 174 185 176 160 157 154 152 133 119 106  90  78  72  64  70  72  64  57  55  49  50  57  65  72  81  87  90  93  95  97 101 103 103 102 100  99  97  98  92  90  92  96  99  97 100 102 102 104 100 101 124 146 146 154 169 174 174 174 174 174 174 175 175 175 175 174 175 175 175 175 176 176
 185 185 185 186 186 186 187 186 187 185 185 185 184 186 186 185 185 181 155 162 178 184 164 130 130 130 132 110  97  88  85  78  72  61  63  64  62  54  48  48  48  48  56  61  70  76  81  87  91  96 101 104 104 105 102 101  99  98  95  93  92  96  97  95  97  98 100 100 101  96 101 113 141 165 172 174 174 174 175 174 174 174 175 175 175 175 176 175 176 176 177 176
 184 184 185 185 185 185 186 187 187 185 184 186 183 186 186 186 185 182 159 165 177 170 118 110 111 101  98  92  83  88  86  80  69  60  62  61  64  60  47  44  43  46  53  62  63  68  69  74  80  89  98 102 105 107 106 103 101  99  97  94  92  94  94  96  99 100 102 102  98  98 107 136 158 169 174 175 174 175 175 175 174 174 175 175 174 175 176 175 176 177 177 176
 183 184 184 184 184 184 186 185 185 185 184 184 184 185 185 186 185 183 165 164 176 150 116 102  84  82  85  79  78  92  93  86  70  58  56  61  61  62  54  49  45  46  50  60  60  62  59  60  71  80  95 102 106 106 105 104 102 101  94  96  92  92  92  92  97  99 100 102  93 110 146 156 165 172 173 174 175 174 174 174 175 174 175 175 175 175 176 176 177 177 177 176
 184 183 183 184 184 184 184 184 183 183 183 182 184 184 185 186 186 184 168 163 173 148 103  81  66  74  88  85  83  96 103  97  76  60  56  59  63  63  61  55  52  49  51  57  57  55  51  47  55  65  86  99 104 106 105 105 104 102  97  96  91  91  91  91  96  98  99 101  93 112 139 154 161 170 173 174 175 174 174 175 175 175 175 176 176 175 176 176 176 175 176 176
 183 183 185 184 182 183 185 183 183 183 184 184 185 184 185 185 185 184 168 154 171 153 102  79  77  85  94 100  97  91  94  97  89  74  70  76  80  73  68  68  63  58  56  67  63  58  52  45  45  54  68  88 101 105 107 106 104 102  98  98  92  86  90  93  95  98  99  95  91  92  99 119 155 170 174 174 175 174 176 175 175 175 175 174 176 175 176 176 174 175 176 176
 184 183 184 183 182 183 183 183 184 182 183 182 184 184 183 183 185 184 169 156 164 143 113  95  87  82  87  94  85  80  82  83  87  88  85  81  79  69  64  68  71  70  69  74  72  64  58  51  43  51  61  79  95 105 107 106 103 100  98  94  92  91  90  92  93  97  96  90  94  85  96 129 160 172 173 176 175 174 175 175 175 175 174 174 175 175 174 176 175 176 176 176
 182 183 184 183 183 182 182 184 182 182 182 182 182 182 183 183 182 180 161 149 154 141 113  94  80  68  55  58  60  58  62  66  72  75  72  69  64  62  59  59  62  63  65  71  73  72  70  65  60  66  68  81  95 103 106 105 100  99  96  90  88  91  91  93  93  95  93  91  97  86 111 138 161 170 174 175 173 174 174 173 174 173 173 175 175 175 177 176 176 178 177 176
 182 181 183 182 182 182 182 182 183 184 183 183 182 181 183 183 180 177 152 137 146 142 109  90  76  75  78  70  77  78  70  52  49  47  52  49  45  42  39  38  37  39  39  44  47  46  48  59  71  74  79  89  97 105 106 104  98  94  93  87  85  89  92  91  89  90  90  92  96  76  97 140 164 173 169 174 172 173 177 177 174 174 173 172 174 175 175 174 175 177 176 176
 182 181 180 181 181 181 182 181 182 182 182 183 182 182 182 182 183 178 153 129 141 129 104  96  92 104 108  99  99 101  99  81  75  66  58  55  50  46  44  45  47  46  43  45  42  39  42  50  62  69  77  87  91 103 104 102  98  88  85  84  87  91  92  86  86  86  87  94  91  62  57  51  50  51  51  50  51  53  56  61  69  79 102 128 164 176 174 173 174 175 175 175
 180 179 180 179 178 180 181 181 180 180 181 182 180 181 182 181 181 177 158 133 141 130 113 102 106 118 116 112 109 109 105  96  91  86  80  81  78  73  70  70  64  61  60  55  56  61  66  66  65  70  72  81  88  98 101 101  99  93  86  85  92  92  89  80  80  81  86  94  78  40  31  27  29  29  29  30  31  31  31  31  31  35  40  42  48  76 119 169 173 175 175 176
 179 178 178 178 180 179 180 179 178 180 180 182 182 181 182 182 182 178 160 122 136 130 116 106 113 114 112 117 124 118 106  99  92  89  84  85  82  77  73  72  71  72  71  69  73  74  77  75  73  76  71  80  88  93 100  92  94  90  84  79  88  87  85  82  77  77  86  94  69  27  18  15  15  17  16  18  20  20  19  18  20  21  24  28  30  38  41  52 105 162 173 175
 178 179 179 178 180 179 178 178 177 180 179 180 180 179 179 179 179 175 148 106 120 118 107 108 116 117 117 124 123 115 106  97  90  88  83  83  79  74  75  74  78  83  82  82  82  82  81  83  80  77  73  74  84  89  90  90  83  85  80  83  85  84  83  80  74  76  90  93  51  18  13  12  12  12  12  12  13  13  14  12  13  15  16  18  21  25  30  34  41  51 120 172
 179 179 180 180 179 177 177 176 177 179 179 179 179 179 180 179 177 174 106  83 105 110 102 101 112 119 123 128 125 113 104  98  90  92  89  84  84  80  80  80  82  84  86  86  87  88  87  85  80  78  73  71  79  87  86  86  76  74  74  76  79  77  82  74  72  84  90  94  44  16  11  10  11  10  10  10  11  12  11  12  11  12  12  14  17  19  19  22  29  35  39  88
 179 179 179 178 179 178 176 177 176 177 178 178 178 179 178 154 130 100  66  72  92 102  96  99 105 117 121 125 125 115 103  99  87  93  89  82  78  83  80  81  81  87  87  86  88  88  85  85  83  76  71  63  68  83  82  81  72  69  67  70  77  77  70  64  69  85  91  92  41  18  14  12   9  10   9   9  10  10  10  10  10  10  11  11  14  14  14  18  21  26  31  39
 179 177 178 175 176 177 176 176 176 177 176 178 176 147  95  76  75  58  53  64  76  96  89  88  96 109 121 120 115 106  95  85  72  77  71  66  68  71  76  81  82  86  86  89  87  85  83  78  74  69  63  57  56  73  82  71  67  66  68  66  74  68  56  60  74  86  90  92  38  16  12  14  15  11   9   9   9  10  10   9  10  10   9  10  12  11  12  16  18  22  26  31
 178 178 178 177 176 176 176 176 176 174 174 174 120  70  70  70  56  46  42  51  68  89  82  86  88 102 115 112 107 101  89  78  69  61  57  52  57  56  65  74  77  83  83  85  84  83  79  74  63  59  54  51  48  56  72  62  59  55  58  59  62  56  51  66  74  85  90  90  42  17  11  14  15  14  13  12  11  10   9   9  10  10  10   9  10  11  10  14  17  20  22  26
 175 176 176 176 174 175 175 173 174 174 176 111  66  64  62  58  47  41  31  40  61  77  74  85  87  93 107 107 104  98  88  78  68  60  47  46  48  52  60  70  72  77  78  78  80  75  70  64  56  50  46  47  44  42  57  54  54  50  53  50  50  43  57  74  77  86  91  91  84  31  16  13  15  14  13  14  16  14  12  12  12  10  10   9   9  10  11  12  15  17  18  21
 174 173 174 175 174 172 174 173 174 173 122  64  58  58  57  48  40  33  28  40  64  69  70  79  84  90 104 108 108 101  92  81  70  60  47  44  48  53  59  66  69  74  78  77  75  64  58  52  49  46  43  37  36  40  47  53  49  46  50  43  37  40  61  77  85  87  90  92  95  70  23  15  13  15  12  12  15  14  14  14  15  13  14  12  12  10  10  11  13  16  17  18
 171 173 172 173 172 171 173 173 167 150  63  56  53  56  49  39  34  21  26  36  49  58  63  70  78  92 100 110 110 109  98  88  76  62  55  50  53  60  64  71  72  75  78  78  73  56  50  48  43  42  36  34  30  36  43  51  49  42  42  35  33  45  67  84  86  87  92  92  98  93  44  21  14  14  13  13  13  15  15  15  14  14  15  14  15  14  12  10  10  14  15  17
 170 170 170 151 123  97  71  51  52  61  54  51  54  51  42  36  25  16  20  40  52  54  62  70  86  88  97 111 112 110  99  94  85  65  65  62  64  68  69  70  77  81  80  77  72  53  45  43  39  38  37  33  30  34  44  48  46  38  33  29  34  60  78  87  87  87  91  93  99  98  72  33  19  13  15  14  11  13  16  14  13  14  14  15  16  14  14  13  11  12  13  16
 121  85  50  45  45  45  45  44  49  53  50  49  53  43  35  29  18  13  20  40  46  51  55  60  71  81  91 106 108 101 102  98  88  79  75  76  75  73  74  75  78  81  80  69  66  51  41  36  32  32  32  30  30  35  42  47  43  33  26  29  41  65  82  87  89  88  90  94 100  99  84  43  23  15  13  15  12  12  13  15  13  12  13  14  15  17  16  14  14  12  12  14
  48  45  40  36  30  34  36  38  48  48  48  52  45  36  31  22  14  10  29  40  40  42  44  55  59  71  87  93  96 101 105  98  84  78  83  85  82  78  77  80  82  80  70  60  54  44  37  34  31  32  31  30  29  32  36  40  38  28  26  42  63  76  83  88  92  91  92  93  99  97  90  54  28  19  16  14  13  12  14  13  14  12  13  12  13  16  18  14  13  13  12  14
  45  41  37  32  28  26  27  39  48  47  48  48  39  31  26  16  11  17  31  37  37  37  39  46  51  70  78  83  93  96 102  95  82  74  85  85  79  72  70  71  77  75  64  54  48  43  35  31  31  30  30  30  30  28  30  29  26  24  39  59  73  84  86  90  93  92  90  91  96  99  95  64  32  21  15  14  11  11  14  13  12  11  12  11  12  14  15  14  13  12  13  13
  42  37  34  30  28  30  38  44  46  46  52  43  35  26  23  12  10  22  32  32  35  34  34  36  52  65  65  71  82  91  95  92  77  76  82  80  73  64  69  68  76  76  66  53  44  40  33  30  29  29  27  26  26  27  28  25  23  31  60  72  78  85  88  90  94  92  91  92  96  99  96  71  35  22  16  14  12  10  13  12  11  10  10  11  13  14  15  14  12  12  13  13
  40  35  33  29  27  31  37  44  44  47  46  38  30  21  16  12  13  27  32  27  31  34  31  35  45  52  57  62  72  76  81  81  65  69  74  74  68  64  66  66  72  73  67  49  38  35  32  30  28  30  27  25  25  24  22  23  29  52  67  76  77  86  89  91  92  93  92  91  95 101  97  76  40  23  15  14  12  12  13  12  12  11  10  11  12  14  15  15  12  11  11  11
  40  33  30  27  26  30  36  43  45  48  39  29  22  18  13  12  18  29  30  27  31  29  29  33  37  45  50  55  61  68  72  68  59  64  72  73  67  67  64  66  65  61  57  45  35  32  29  28  28  27  24  24  24  21  18  22  48  66  74  77  83  88  89  91  92  93  92  90  94  99  95  81  44  24  16  13  12  11  12  12  12  10  10  11  12  12  13  14  12  11  11  11
  38  34  30  25  25  30  37  43  45  44  37  29  21  17   9  10  24  27  26  20  20  17  36  32  34  38  40  45  53  56  59  55  55  62  68  69  66  65  63  61  59  52  48  40  32  31  26  24  24  25  22  20  20  21  24  43  65  72  79  80  84  88  90  92  94  93  92  90  93  97  96  84  46  26  16  13  11  12  12  13  12  10  11  11  12  12  12  12  11  10  10  11
  37  34  30  25  25  32  40  43  46  40  33  23  17  13   8  13  28  27  22  16  16  17  51  44  31  29  31  35  39  41  47  49  53  55  61  60  58  56  51  52  49  47  42  35  29  28  25  24  20  20  19  17  18  28  48  65  71  73  72  80  84  86  87  89  91  91  91  90  92  99  95  85  49  27  16  13  12  11  12  12  12  11  11  12  12  12  13  12  11   8  10  10
  35  31  28  26  27  33  36  45  45  36  30  15  13  10   9  16  28  25  20  16  15  14  50  88  40  28  27  29  29  30  32  38  46  46  52  53  52  46  43  40  37  38  34  30  26  24  24  24  20  18  17  18  25  51  66  72  73  73  75  79  79  81  83  88  90  89  92  92  90  94  94  84  49  26  14  14  11  12  12  12  12  11  11  12  13  13  11  11  10   9  10  10
  33  32  30  26  29  33  35  44  39  33  21  13  11   9   9  20  26  22  18  16  13  15  41 107  75  41  28  25  25  24  24  27  30  33  38  41  41  36  36  30  28  29  27  26  24  24  22  22  18  19  20  27  48  62  68  71  73  76  77  78  81  82  87  88  89  91  92  92  91  93  93  81  46  26  16  14  12  11  12  12  11  10  10  11  12  12  12  12   9  10  10  10
  30  30  29  29  28  30  33  44  39  31  20  14  10   7  10  23  25  20  17  17  13  13  28 107 104  77  52  33  25  22  20  24  23  23  27  30  28  28  29  25  24  24  23  21  19  21  19  17  17  21  26  46  59  65  67  67  72  73  74  77  81  82  86  87  88  90  90  91  90  92  92  76  42  23  15  12  12  11  12  11  10  10  10  10  12  12  11  11  10   9  10  10
  32  28  28  27  28  30  35  44  33  25  18  14  11   8  12  22  23  21  18  16  12  10  22  88 101  90  82  79  36  28  23  24  23  24  25  23  23  25  25  24  24  22  21  23  22  24  23  27  34  43  46  52  61  67  69  71  73  72  76  78  82  83  86  87  88  87  88  89  91  91  89  72  41  22  14  13  12  11  12  12  11   8  10  10  12  12  12  10   9   9  10  11
  28  27  26  28  29  29  37  38  30  24  16  13   9   8  13  20  19  19  20  15  12  11  22  57  92  91  90  94  88  60  49  49  33  23  26  19  25  26  29  32  28  25  28  36  52  49  47  46  50  57  60  64  63  65  70  70  72  75  75  79  84  83  83  84  85  86  86  88  89  89  85  65  34  18  14  12  12  12  11  12  11   9   8  10  12  11  11  10  10   9   9  10
  29  28  29  27  26  30  34  36  30  22  16  10   8   7  15  21  18  20  18  13  14  11  17  28  85  92  90  94  93  91  81  73  70  55  46  33  36  50  49  49  43  41  51  61  66  64  62  59  58  58  63  66  65  70  70  71  74  75  76  79  79  80  82  82  83  85  86  87  88  87  78  57  30  18  14  11  11  11  12  11  11   9  10  10  11  11  11  10   9   8   8  10
  30  29  27  26  25  32  34  35  29  19  15  10   8   7  16  21  17  18  17  16  14  11  13  25  46  89  90  91  91  92  90  84  79  77  80  73  69  73  69  66  62  63  70  67  69  66  64  63  61  60  62  65  67  69  70  71  74  77  76  78  78  78  78  80  79  85  85  83  87  82  73  44  26  16  12  12  11  11  12  11  11  10  10   9  11  12  11  11  10   8   8   9
  28  29  29  27  27  31  34  33  28  21  17  11   7   8  15  17  18  18  16  17  16  15  11  16  26  62  87  90  89  88  88  88  84  79  85  83  81  76  75  73  74  71  72  72  69  66  60  59  60  59  63  68  67  70  73  71  72  76  74  75  74  73  74  76  78  81  81  83  82  75  63  35  21  14  12  12  12  11  11  10  10  10  10  10  11  10  10  10  10   9   9  10
