P2
# Generated by OpenCV 3.4.0
92 112
255
  78  79  80  80  81  80  79  83  83  83  83  83  84  85  86  86  86  85  85  84  86  86  87  87  88  87  85  88  86  88  89  87  87  86  88  87  88  85  85  83  85  84  83  82  82  83  80  81  81  81  83  82  83  86  85  89  92  94  98  98 100 104 106 108 109 110 109 111 112 112 113 110 110 110 112 110 110 109 109 109 110 110 110 111 111 109 111 110 110 110 110 111
  80  79  80  80  80  80  81  82  82  83  82  83  83  84  85  85  85  84  85  86  86  85  85  86  87  85  86  84  84  86  84  83  82  81  80  79  80  83  85  85  85  84  82  84  88  91  91  95  95 100 103 105 107 110 109 109 110 111 112 113 113 112 112 112 113 114 113 113 113 114 112 112 113 113 113 111 112 112 112 112 111 110 111 111 113 110 111 111 110 110 110 110
  78  79  81  80  81  80  81  81  81  83  83  82  83  84  83  83  84  83  83  83  81  80  80  80  80  79  79  80  83  82  81  84  85  85  89  93  93  97 100 101 102 104 107 111 109 109 111 111 112 113 114 114 113 113 113 114 113 114 114 115 114 114 113 112 114 114 114 114 113 115 113 114 112 113 114 114 113 113 112 113 112 111 112 112 111 112 111 111 110 110 110 109
  79  78  77  78  80  80  81  80  79  79  78  78  76  76  76  78  77  75  77  78  81  80  82  86  88  91  94  95 100 100  96 105 109 110 110 112 111 111 112 113 112 112 111 113 115 113 114 115 116 116 114 114 114 115 115 114 114 115 115 117 117 115 115 115 116 116 114 115 114 115 113 115 114 115 114 115 114 114 115 114 114 113 113 112 111 112 111 111 112 112 111 109
  73  73  73  73  71  73  72  72  74  76  77  79  79  84  88  90  91  93  97 100 102 105 104 108 109 108 111 110 111 110  91 111 113 112 115 114 113 114 115 115 114 114 115 117 120 120 119 124 125 118 115 116 116 115 115 115 116 115 115 116 116 116 116 115 117 115 114 114 114 115 114 114 116 114 114 114 113 112 114 114 113 112 115 113 110 113 113 113 113 112 111 111
  71  74  76  82  85  90  88  92  96  99 100 103 103 104 105 105 106 107 109 109 110 108 110 110 110 110 114 112 112 114 115 118 115 114 114 116 116 119 119 119 119 123 134 132 139 135 121 116 117 120 118 115 115 116 117 115 115 115 114 115 116 115 116 115 116 115 115 116 115 115 116 116 115 114 115 115 113 114 115 115 114 113 114 113 112 112 114 113 113 112 112 112
  95 100  98 100 102 103 104 103 105 103 106 105 107 108 108 108 108 109 110 109 110 113 111 112 112 113 112 114 114 114 113 117 118 116 119 125 135 140 134 142 143 136 146 166 160 157 124 117 116 121 122 120 122 122 117 116 116 116 117 116 115 116 116 115 115 116 116 117 115 116 115 115 116 116 116 116 114 115 115 114 115 114 115 115 115 116 114 113 113 111 112 112
  99 100 102 102 104 105 104 106 106 105 107 107 108 108 108 108 109 111 110 112 112 112 112 111 112 113 113 115 114 119 115 117 121 124 132 140 152 148 155 159 173 159 152 172 162 170 139 132 129 121 118 125 123 126 128 116 117 117 117 116 116 116 115 115 115 115 116 116 116 117 116 117 116 117 117 117 115 116 115 114 114 115 115 114 115 113 113 113 113 112 111 113
 101 102 103 105 103 103 105 107 107 108 109 108 110 110 109 110 111 112 111 112 113 113 113 114 113 111 115 116 116 119 124 131 133 141 146 157 163 160 159 181 179 170 164 161 170 160 154 145 155 147 132 142 126 121 121 118 114 116 116 116 116 117 117 116 116 116 117 116 116 116 115 117 116 116 117 117 117 116 115 116 116 115 115 116 114 112 115 115 114 114 112 114
 101 103 103 104 104 105 107 106 108 108 110 109 110 109 111 111 111 111 112 111 111 113 113 113 114 112 117 116 119 125 135 147 160 173 180 176 172 176 171 175 171 158 170 162 161 164 151 157 160 165 141 148 128 128 122 111 105 102 102 109 114 116 117 115 116 116 116 115 115 117 116 116 117 117 116 116 116 117 117 115 117 116 115 115 115 113 115 115 114 115 114 113
 101 102 102 105 104 107 109 108 108 108 110 110 109 110 110 111 111 110 113 113 114 114 115 114 115 115 116 121 131 147 144 152 157 170 181 181 171 173 172 162 162 164 166 160 179 159 148 151 154 149 136 147 129 128 129 103 102  89  81  87 101 112 117 117 116 118 117 117 116 117 117 117 117 116 116 117 116 117 116 116 117 116 116 116 116 114 115 116 115 114 115 114
 104 104 105 105 105 107 107 108 109 109 111 110 111 110 111 112 112 111 113 114 114 115 115 115 114 113 117 128 142 157 150 150 158 167 167 163 157 170 156 150 158 162 156 165 181 145 153 150 154 137 129 146 120 128 130 111 106  82  85  76  74  89 108 115 116 117 120 118 118 119 117 116 118 118 116 118 117 118 118 116 116 116 116 116 116 115 116 116 117 115 116 116
 105 104 105 106 106 107 108 109 108 109 110 110 109 111 112 113 113 113 113 114 114 117 117 117 113 113 126 147 153 152 156 156 150 160 158 152 157 161 149 150 158 158 160 163 153 147 150 149 157 135 138 143 120 127 131 124  92  82  78  73  73  76  86 105 112 116 117 118 117 120 119 117 118 117 117 120 120 117 117 117 117 117 118 116 116 117 117 117 118 115 116 115
 104 104 105 106 105 108 110 109 108 108 110 111 110 112 113 113 114 114 115 113 115 117 119 124 115 119 138 151 154 142 144 136 133 139 139 148 154 152 153 148 162 157 158 162 158 144 161 153 154 136 142 142 122 125 135 124  90  90  88  91  89  81  84  93 106 114 116 117 117 118 118 118 119 119 119 121 119 118 118 117 117 117 118 118 117 115 116 118 117 117 116 115
 104 105 106 106 108 107 109 108 109 110 110 112 112 114 113 113 114 115 114 116 116 117 119 124 125 137 158 155 138 135 139 136 138 137 138 146 144 150 155 154 158 156 162 166 157 154 168 176 147 154 146 133 123 118 126 115 104 103 101  94  89  82  86  90  92  99 109 115 116 122 119 120 121 121 121 120 120 119 120 119 119 119 119 118 119 117 117 118 118 118 117 117
 106 105 105 107 107 107 108 110 110 110 112 111 112 114 113 115 114 115 116 117 120 120 119 125 147 166 166 163 141 156 156 157 157 150 150 148 158 163 158 154 151 158 168 167 164 173 173 157 141 155 140 126 114 119 131 108 101 108 115 111 107 100  99  90  79  80  95 112 114 118 121 122 122 121 122 121 121 119 120 120 120 120 121 119 120 119 120 118 119 119 118 118
 106 106 106 108 108 107 110 111 110 111 112 113 113 114 115 115 115 116 118 119 119 118 111 127 171 177 192 193 178 180 182 178 177 171 163 159 163 160 158 158 156 164 161 162 180 188 165 152 154 145 126 123 120 116 109 104 100 104 101 104 107  98  90  84  77  71  78 101 113 118 121 122 121 122 122 123 122 119 122 122 121 121 121 121 122 120 122 120 119 118 118 117
 106 105 106 109 108 109 110 110 111 110 113 113 113 115 117 115 116 117 117 117 116 113 116 151 184 193 208 211 209 210 208 210 211 202 190 179 170 166 164 161 155 148 155 167 170 164 155 149 139 124 118 112 107 105 105 107 112 111 107 103  97  93  87  85  75  66  66  78  99 114 121 122 123 122 123 123 123 121 121 122 122 122 122 123 123 123 121 122 121 120 120 119
 106 108 109 109 110 110 111 113 112 114 115 114 115 116 117 117 118 117 119 116 116 115 142 176 198 207 215 219 221 224 229 233 234 226 216 204 193 181 171 161 153 155 154 151 152 151 142 128 125 127 121 121 121 122 124 125 124 124 123 124 122 117 113 100  87  74  64  63  79 108 118 121 122 123 122 123 123 124 123 123 122 123 123 122 122 121 122 122 122 121 122 122
 109 110 110 110 112 111 112 114 114 116 116 116 119 118 118 120 119 121 121 119 114 130 174 210 212 213 214 210 215 220 228 223 222 219 220 213 208 204 198 188 176 164 154 149 146 142 133 128 124 122 123 126 128 132 133 135 133 136 134 134 131 126 126 120 106  85  72  68  68  89 116 122 123 124 125 124 125 124 125 123 123 123 123 123 122 121 123 123 122 122 121 123
 110 111 112 112 113 112 115 116 117 118 117 119 119 119 120 121 122 126 124 121 132 171 210 211 209 201 194 188 181 176 168 160 171 181 188 189 190 190 193 195 192 188 185 171 159 144 134 125 113 108 104 102 101 103 106 111 114 121 125 130 136 128 124 122 123 112  83  77  76  76 103 122 125 127 125 127 126 126 126 123 125 125 126 124 124 123 123 125 124 122 122 123
 111 112 111 115 116 116 117 118 119 121 121 121 122 122 123 122 125 127 129 139 173 206 211 204 189 183 188 195 194 207 224 224 228 220 204 193 187 186 184 178 168 167 164 150 142 130 120 109 100 105 106 105 108 112 112 114 114 109 103 105 114 120 122 121 118 119 109  81  78  74  83 116 125 126 126 127 127 126 126 126 125 125 127 126 125 126 124 125 125 124 124 124
 114 115 117 118 117 120 119 119 121 121 123 121 124 125 125 125 128 127 135 162 207 207 202 184 189 205 200 203 189 185 186 194 198 192 187 186 183 175 172 162 154 152 147 137 140 147 144 137 138 139 133 129 133 137 142 151 154 152 149 136 117 103 102 114 119 115 115 108  88  80  72  90 121 130 128 128 128 127 127 128 126 128 127 126 128 128 126 126 125 125 125 125
 118 118 120 119 120 121 122 124 124 126 126 126 127 127 128 129 133 133 146 198 207 201 188 193 189 171 153 147 144 161 164 154 140 131 125 124 115 116 117 120 115 109 105 103 103  93  95  94  94  98  95  99 104 106 108 113 115 118 120 130 136 129 113 103 105 115 114 111 107  86  81  70 104 126 127 130 130 129 129 128 130 127 128 129 129 128 127 128 127 125 127 125
 123 123 124 122 123 124 125 127 128 128 127 128 128 129 130 130 137 134 176 202 201 194 199 182 151 155 174 197 201 192 166 159 152 160 176 162 152 160 159 150 141 136 134 138 141 150 155 163 161 151 139 141 137 131 129 121 112 105 104 107 106 108 114 118 109 103 110 114 112 102  82  70  84 119 128 137 132 130 130 130 130 131 130 131 130 129 130 128 129 129 128 128
 125 125 124 126 126 128 127 129 129 130 131 130 130 132 134 134 134 150 194 202 199 201 175 171 197 199 189 179 179 183 184 182 176 167 150 141 160 162 156 149 145 139 139 134 128 126 122 116 115 108 103 104 103 106 106 107 108 110 114 112 108 100  94 100 110 114 108 111 113 111  88  71  70 104 127 135 132 132 132 131 131 132 132 131 131 130 130 130 132 130 130 130
 127 127 129 129 127 128 129 130 132 132 131 133 133 134 136 136 136 176 197 200 196 182 191 201 188 163 142 133 130 127 119 114 117 141 157 164 141 126 114 106 101  98  93  90  91  86  85  81  78  78  79  81  78  78  77  80  81  85  91  96 101 102 107 105  96  97 110 113 108 113 104  83  69  85 118 130 132 133 134 134 133 131 132 133 134 131 134 132 134 133 133 132
 129 129 131 132 131 132 132 133 134 134 134 135 135 137 139 138 160 191 191 194 176 196 193 162 135 127 137 147 151 158 176 198 198 180 152 124 111  99  89  80  78  74  74  78  91 101 107 113 111 117 119 126 125 119 111 104 100  96  90  88  90  91  90  96 104 106 101 108 108 110 113  96  81  75 107 129 135 135 135 135 134 135 135 135 135 135 134 133 134 133 134 134
 133 135 134 135 135 134 135 135 134 138 137 137 137 138 141 150 184 192 189 185 197 178 144 151 179 190 193 188 181 171 156 142 134 126 122 146 162 157 139 123 111 106 114 131 136 127 117 114 112 108 108 107 104 105 105 104 104 108 106 107 110 112 109 104  98  99 108 108 109 110 115 109  95  77  95 128 136 136 136 135 136 135 136 137 136 135 135 136 136 134 134 135
 134 133 137 137 136 135 137 138 137 138 139 139 139 141 145 169 189 192 187 187 178 156 196 194 175 160 146 134 122 115 111 105 106 103 110 128 132 128 122 124 124 117 109 109 102  99 101 104 103 101 100  95  94  91  89  87  88  88  89  88  91  96 102 110 115 106  99 108 108 112 112 112 108  94  93 124 142 138 138 137 136 136 137 138 136 135 136 136 137 136 135 136
 138 140 141 139 140 139 140 139 141 142 142 140 143 144 157 177 191 189 184 174 169 192 174 150 141 155 167 170 166 161 150 131 129 130 139 139 125 110 104 104 105 105 106 110 115 117 116 108 102  99  96  92  91  87  83  83  88  94  99 102 105 103  98 104 105 111 110 104 107 110 113 111 110  97  91 122 134 138 138 137 138 138 138 138 138 137 138 138 138 137 137 137
 141 142 142 142 142 142 142 142 143 144 144 146 147 148 161 183 189 184 181 169 193 164 158 182 200 201 194 191 188 176 162 153 145 142 135 129 119 109 102 104 112 117 126 129 125 117 108 102  99  99 103 108 109 109 107 109 110 109 114 112 115 114 116 118 114 108 111 110 107 110 111 111 110  95  83 100 128 138 139 138 138 139 139 140 140 141 140 139 139 139 139 138
 145 144 146 145 146 144 145 145 145 146 147 160 149 142 159 184 185 178 172 178 164 176 202 201 193 182 182 176 168 163 159 149 138 124 115 109 102  99 100 104 109 107 103 100 103 100  95  95  96  98 104 106 108 110 109 104 108 110 110 111 111 110 111 113 116 112 109 112 110 109 111 112 111 100  81  81 119 138 142 141 142 143 142 141 141 141 140 141 141 140 139 138
 147 146 148 149 149 147 146 147 148 149 148 148 140 131 160 181 180 178 172 174 167 196 202 188 183 180 176 171 158 152 148 141 142 132 122 113 104 100  98 100 105 104 100  99  96  95  93  91  92  95  96 102 106 109 111 109 108 108 106 108 107 106 108 113 112 110 110 111 110 110 111 112 112 104  82  72  87 135 142 142 143 143 144 143 141 142 141 142 142 142 142 142
 149 148 151 151 149 149 149 150 150 151 149 148 126 123 164 180 177 175 179 167 185 194 191 181 173 166 155 141 129 127 127 116 126 128 125 124 114 108 108 109 108 109 107 103  98  98  96  94  97 102 105 110 112 111 108 107 100  98  95  92  95  93  94 101 106 108 112 111 109 111 111 111 114 108  87  70  74 118 140 144 145 144 144 144 144 143 144 143 143 144 144 144
 151 151 153 154 152 150 150 151 151 153 152 151 106 123 167 175 175 178 180 177 187 184 173 164 154 137 115 105 102 106 108 103 110 128 119 119 120 117 116 114 112 111 107 105 105 105 101 104 105 107 115 110 108 106 105 100  94  91  87  83  84  84  85  87  93 104 110 111 110 112 112 111 112 107  93  70  67  97 139 145 146 146 144 147 146 146 145 145 145 144 145 144
 152 155 155 155 155 153 152 153 153 154 156 159  99 127 165 174 174 175 178 179 176 168 151 132 109  95  86  82  88  96 100  91 102 110 109 112 117 118 118 113 113 109 108 108 113 113 111 114 113 107 111 108  98 104  98  85  77  73  70  69  70  70  74  78  86  90 100 107 110 110 111 111 111 107  95  72  62  82 131 146 147 146 147 147 146 147 146 146 146 146 145 146
 156 156 158 158 156 155 155 154 154 155 159 162  97 132 167 176 172 172 175 173 163 139 117 102  86  79  73  70  78  89  95  88  88  96  97  99 108 111 109 106 109 109 107 110 111 114 117 112 110 102 101  94  88  83  76  71  64  62  56  53  53  59  62  67  74  79  84 100 110 110 111 112 111 110  98  75  63  74 127 148 148 147 149 147 147 149 149 147 147 147 147 148
 160 159 160 160 160 158 159 158 157 156 160 137 102 132 165 171 170 170 174 164 149 111  86  78  78  76  76  81  83  86  92  91  83  84  85  89  94 103 101 102 106 105 106 105 107 110 112 107  99  96  90  85  77  70  66  62  59  58  58  60  60  59  60  65  64  65  72  91 107 110 111 114 111 112 103  79  67  66 143 148 149 151 151 150 150 151 150 149 149 147 149 148
 161 161 162 163 163 161 159 159 158 159 162 127  99 130 162 172 171 168 169 151 116  92  81  83  86  87  90  95  97  95  96  92  90  87  84  84  87  92  93  97 100 103 105 103 102 101 102  95  85  87  83  77  72  70  71  72  72  73  76  77  74  74  73  74  72  72  71  82 102 108 110 113 112 111 100  81  64  72 141 150 150 152 150 152 152 152 152 152 151 151 151 151
 165 164 165 165 164 162 161 161 161 160 162 112  99 127 158 169 172 173 158 118 101  99 101  98  97 101 102 102 101  98 100 101  96  88  85  86  86  87  91  93  95 101 103  98  95  95  92  88  84  85  80  74  74  78  82  81  80  81  83  85  87  84  84  86  87  83  73  72  89 105 110 112 112 111 102  81  67  71 140 150 153 152 152 152 153 152 152 152 152 153 152 152
 165 165 167 167 166 164 164 163 163 161 158  98  96 124 154 167 175 178 139 114 106 113 114 109 103 104 103 103  99  97  96  97  98  96  94  89  88  89  89  92  92  97  98  92  90  89  90  85  83  82  78  79  81  84  85  82  80  83  86  88  87  90  91  96  99  98  93  83  77  96 107 111 114 111 100  83  66  71 144 152 155 154 155 154 153 153 153 154 154 154 153 153
 167 167 170 168 167 166 165 164 165 163 148  89  91 127 155 166 176 167 129 130 127 123 117 111 104 101  99  99  97  92  92  93  94  95  98  95  93  90  91  93  93  96  95  92  86  86  86  81  83  83  80  81  82  79  77  77  79  82  82  85  84  88  92  97 104 104 105 101  92  92 108 111 113 112 101  82  65  72 143 152 155 155 156 156 154 154 154 154 155 154 154 153
 169 171 172 171 169 167 166 166 165 163 146  90  84 127 159 168 176 156 142 140 133 125 116 107 100  98  96  92  90  89  88  89  90  91  92  95  98  95  96  94  97  97  95  90  86  88  86  84  82  83  80  79  78  76  73  72  77  77  79  78  83  90  91  94 101 104 108 110 102  94 106 110 113 113  97  78  63  69 141 152 154 155 155 156 157 155 157 157 157 158 156 156
 171 173 173 172 171 170 170 167 165 162 152  86  82 129 163 170 174 145 140 140 133 117 105  96  90  85  82  79  78  82  84  82  86  88  88  93  98  98 100  97  97  97  94  90  87  85  87  86  83  82  79  76  74  70  70  70  72  72  73  73  75  79  82  89  97  98 106 111 108  96 102 112 115 113  93  74  62  72 143 154 156 157 158 160 160 159 159 158 159 160 159 156
 173 173 175 174 172 170 171 169 166 167 164 103  83 123 162 171 168 137 139 139 126 108  94  83  70  63  56  51  46  51  65  74  79  83  84  87  91  96 102 104 101  96  95  90  88  88  88  86  81  75  70  67  65  66  65  61  58  55  52  58  62  69  75  82  86  85  98 107 110  98 102 113 117 115  88  73  63  74 141 155 159 160 160 160 160 160 161 159 161 160 160 158
 175 175 175 175 174 172 172 170 169 169 168 136  85 118 163 174 160 140 136 126 114 100  80  64  58  56  56  56  48  47  45  56  72  76  80  80  83  92 102 108 105  98 102  98  91  88  87  83  73  67  63  62  61  61  52  44  44  48  49  51  57  60  64  72  80  87  93 103 109 105 101 110 115 114  88  66  61  88 147 158 161 161 162 161 160 161 161 161 160 160 160 161
 175 175 176 175 175 173 174 172 173 173 171 137  80 117 165 176 163 141 128 116 106  88  66  69  61  53  43  43  45  48  50  49  53  66  75  76  78  87  97 110 114 109 109 102  96  95  86  74  65  60  57  58  53  45  42  43  42  43  43  52  64  63  63  66  74  81  88  97 106 106 105 110 117 110  86  66  62  99 148 158 162 161 162 162 162 162 162 162 162 162 160 160
 177 178 179 178 176 175 174 174 174 174 170 132  81 107 164 172 167 139 124 110  98  78  69  63  54  44  52  45  46  57  55  54  54  53  61  65  71  81  93 110 120 115 113 104 102  98  83  66  61  54  51  48  42  44  42  37  33  34  35  46  52  52  70  70  67  77  82  90 103 109 108 113 117 109  83  69  64 116 149 156 163 164 165 164 163 162 163 163 161 162 162 162
 178 178 181 180 178 176 176 175 175 174 169 152  77  99 165 176 165 136 121 104  89  71  63  73  65  65  31  28  55  64  77  61  55  55  53  58  64  76  92 106 120 118 115 107 106 100  74  66  57  51  47  44  43  44  43  36  41  33  44  52  74  67  56  66  68  68  75  84  98 107 110 112 117 110  84  71  63 125 153 156 162 164 164 164 164 163 164 164 162 164 164 164
 180 180 182 179 177 176 179 176 176 176 174 167  86  99 168 178 161 133 114 100  86  75  72 103  64  53  26  29  56  78  87  70  53  52  56  58  64  75  92 111 126 124 120 111 111 103  73  64  54  50  46  43  38  47  46  39  28  25  30  39  70  97  72  58  66  64  73  82  95 103 109 113 117 112  88  74  65 143 157 154 161 164 165 166 166 166 166 165 165 163 164 165
 182 182 181 181 180 180 180 177 179 182 190 187 108 100 167 175 153 127 113 102  85  84  88 121  75  60  56  58  69  91  91  75  58  48  48  52  73  85  97 115 131 131 124 115 112 105  74  64  60  53  40  34  37  51  55  46  48  39  41  50  87 101  90  66  69  62  69  80  91  99 108 116 116 114  90  76  82 135 138 150 159 163 166 166 166 166 166 165 165 165 164 166
 182 182 183 182 180 179 180 180 183 191 201 206 128  99 167 172 149 128 114 102  95 100 100 108 108  80  68  69  81  82  78  72  63  54  60  67  82  94 103 117 133 133 129 120 118 111  88  66  64  58  49  43  46  55  58  57  51  42  52  77  93  96  82  80  80  70  71  78  88  98 108 116 117 116  87  78  86 106 115 121 148 164 165 166 167 167 167 166 167 167 166 165
 182 182 182 181 181 181 180 177 155 132 137 157 148 110 170 172 149 131 116 107 106 120 122 117 104  98  89  80  76  70  70  66  64  63  66  70  85 100 107 122 138 138 128 125 125 117 105  80  65  57  54  53  54  57  61  61  64  69  71  77  84  84  83  84  91  82  78  81  89  98 107 115 119 114  92  90 101 104 106 113 124 162 166 167 167 167 168 167 167 167 167 167
 182 184 185 183 181 181 179 158 108  92  92 108 147 140 172 172 148 133 123 119 126 135 131 125 112 104  93  84  78  71  69  64  61  58  58  71  97 109 114 134 146 145 132 130 127 122 114  96  77  62  51  51  52  56  60  63  67  68  71  75  81  83  87  94 103 101  94  92  94 102 107 117 121 115  95 102 101  88  73  87 101 158 166 167 167 168 169 169 168 168 167 167
 185 183 183 183 181 181 180 135  91  84  85  94 125 145 174 174 160 149 134 131 136 143 137 125 114 106  96  88  79  73  68  61  56  56  70  91 108 113 127 152 156 147 140 134 132 129 117 107  94  79  63  50  48  52  60  63  67  71  75  80  85  90  94 100 106 106 103 102 103 105 109 116 121 117 104 103  89  72  68  64  83 156 166 167 168 169 170 169 168 169 168 169
 185 184 183 183 182 182 176 117  84  78  80 101 124 132 178 179 174 170 159 147 142 140 131 123 115 107  97  89  78  71  63  59  63  78  95 105 109 125 157 171 162 154 148 139 135 128 120 110 100  91  80  66  57  51  53  57  63  71  78  83  85  89  94 100 104 103 104 103 105 108 110 116 121 118 108  89  80  79  66  64  79 159 167 168 170 169 168 168 169 169 169 168
 184 184 183 182 182 181 176 110  79  74  81 117 131 136 180 183 184 183 176 167 154 139 124 115 106  98  90  82  74  65  65  75  87  97 106 114 123 146 166 167 156 155 151 141 131 120 114 111 102  96  86  78  70  62  52  55  62  70  75  82  84  88  92  95 101 102 106 105 106 110 109 114 120 117 102  85  88  93  65  62  92 163 168 168 170 168 168 169 170 168 168 169
 184 185 185 183 181 181 179 122  78  70  80 137 128 110 177 180 185 188 186 177 166 147 129 114  98  90  80  77  80  86  92  97 104 106 112 119 136 159 168 167 154 152 149 136 123 112 108 108 102  98  89  82  76  73  64  60  59  63  67  72  75  81  92 100 104 106 109 108 108 110 109 112 119 114  75  83 103 109  74  65 110 164 169 171 170 169 170 170 171 170 170 168
 183 184 185 184 182 182 181 151  90  72 105 131 111  93 168 177 183 188 184 173 169 160 143 126 115 108 100 102 103 107 108 108 108 115 117 124 146 163 171 170 162 158 148 135 121 109 105 105 104 101  92  86  82  81  76  75  72  71  72  74  80  88  94 100 102 106 106 109 111 111 111 114 118 107  57  64  86 103  89  72 126 166 169 171 172 171 170 170 169 169 170 169
 184 184 183 183 183 182 183 178 110  82 112 120 100  87 160 171 184 186 185 185 181 172 162 155 138 118 113 111 111 110 109 111 114 117 121 133 152 164 173 170 166 160 150 135 118 104 101 102 102 100  94  90  83  85  82  83  82  88  91  98  99 105 107 109 106 106 106 108 108 110 112 112 118 104  59  61  74  94  92  83 153 169 171 171 172 172 169 171 172 172 171 170
 183 186 185 184 184 184 184 180 144  94 111 109  87  82 152 169 174 184 190 187 184 178 167 157 144 133 122 115 111 109 110 113 115 117 126 140 159 170 173 172 170 165 154 130 109 102 101 101 101 102  96  92  88  90  88  91  94 100 102 105 109 111 111 113 111 111 110 110 109 110 112 111 118  98  56  57  66  85  97 107 166 171 172 173 172 172 173 172 173 173 171 170
 184 186 186 186 185 184 184 182 173 107 113 103  82  76 143 171 172 182 184 183 179 171 164 157 145 134 124 115 111 110 110 110 115 119 126 146 164 174 173 174 171 163 146 128 113 103  99 101  98  98  94  90  90  91  94  97 100 101 103 108 109 112 115 113 111 111 112 114 112 110 110 113 118  98  57  52  62  82  99 139 168 172 172 172 173 174 173 173 173 173 171 170
 185 186 185 185 183 184 184 184 180 134 113 107  81  74 135 171 175 178 179 178 174 168 161 152 140 132 123 116 110 107 106 108 112 115 127 155 172 177 180 179 173 157 141 132 126 110 104 104 101  95  87  85  85  88  93  98  99 102 105 106 111 112 114 114 113 111 114 114 115 109 108 115 118  95  57  51  58  85 104 159 172 175 174 173 174 174 173 174 173 173 172 173
 185 186 185 185 185 185 185 185 183 163 115 124 106  85 126 170 173 173 176 173 168 161 153 143 132 127 121 115 109 102 102 103 107 112 139 172 183 185 184 174 162 151 137 133 132 119 109 105 102  93  85  82  81  85  89  95  97 100 102 104 107 107 108 111 109 110 113 111 113 113 108 112 114  83  54  60  76  95 118 169 173 174 174 172 174 175 174 174 173 175 175 174
 187 187 186 185 186 184 186 185 184 180 136 118 121 130 156 170 172 172 169 164 154 148 141 132 128 123 119 110 106 103 100  94  98 113 162 181 186 184 178 166 152 138 130 123 128 123 115 108 104  99  87  75  74  80  83  90  94  97  98  99 102 103 103 106 107 109 113 116 114 115 110 112 113 105  98  98 101  99 146 171 173 173 174 174 174 175 174 175 176 174 174 175
 184 186 185 184 186 187 186 186 185 183 172 124 113 142 166 171 167 162 160 152 142 136 129 125 121 115 111 102  99  93  93  90  93 129 172 181 181 177 165 150 133 123 122 117 121 123 119 112 107 103  96  74  68  71  81  85  89  91  92  94  97  99  99 102 104 107 112 116 112 117 111 112 109 109 112  93  89 114 166 172 173 173 174 175 174 174 174 175 174 174 175 176
 186 186 186 184 185 186 187 187 186 185 181 154 142 170 164 166 159 151 146 137 130 127 122 119 115 113 104  96  94  89  86  84  84 134 163 171 171 162 147 130 116 110 107 106 106 110 114 111 105 103  97  74  66  69  73  79  86  88  88  90  94  97  98  98  99 103 104 110 115 117 113 113 112 117 117 103 104 146 171 173 174 175 174 174 174 174 175 175 175 175 174 174
 186 186 187 185 185 186 187 187 186 185 183 176 163 167 166 164 146 139 134 125 125 122 118 114 109 104  98  93  90  84  79  79  85 128 145 144 150 143 127 112 102  97  94  94 100 100 104 104 100  99  96  69  64  68  69  73  79  85  85  86  89  92  92  93  94  98 102 106 110 113 114 114 109 113 115 117 124 165 172 173 173 173 175 175 174 174 175 174 174 174 175 175
 186 185 186 186 186 185 187 186 187 187 186 183 166 161 168 158 135 128 125 121 117 117 115 110 107 102  94  89  82  76  74  82  90 110 123 120 123 122 113 102  94  89  89  90  94  96  98  95  94  94  89  68  65  64  65  66  72  79  84  85  87  86  89  89  91  96 100 103 108 112 114 114 102 110 116 117 156 172 174 174 174 175 175 175 174 175 175 176 176 174 175 174
 185 187 185 186 186 185 185 186 187 186 186 185 175 157 162 149 127 123 119 117 115 115 113 107 105  96  89  81  74  72  75  88  95 104 106  99 102 110 104  95  87  84  86  86  89  90  86  82  84  85  77  69  68  67  62  62  65  73  77  83  84  83  86  86  89  93  97 100 104 111 114 108  96 106 112 131 168 174 174 174 174 175 175 175 174 174 174 174 175 176 175 175
 185 184 185 187 185 185 185 186 187 186 186 184 183 164 146 144 123 116 115 117 114 114 110 106 100  92  84  75  74  78  86  92 101 105 107  95  89  99 100  92  84  82  83  82  82  78  65  54  63  79  77  70  68  70  65  63  61  68  73  77  79  81  84  86  89  92  91  97 102 107 112 100  91 103 121 163 172 174 175 174 175 175 176 174 175 174 175 175 176 175 175 175
 185 184 184 185 185 186 186 186 186 187 187 186 185 179 142 141 121 115 115 116 116 115 111 106  96  85  74  71  78  87  92 101 104 106 108  99  93  91  96  91  84  80  80  77  72  64  57  56  69  80  79  71  66  70  68  63  60  62  66  74  78  80  85  84  84  89  91  93  97 104 109  95  91 110 161 172 173 174 175 175 175 175 176 175 175 174 175 175 176 176 177 176
 185 183 183 186 186 186 187 187 186 186 184 184 185 183 179 155 124 118 118 118 121 118 113 102  89  77  69  76  86  91  94 103 106 102 105  94  84  85  88  86  80  75  75  73  64  59  59  63  72  70  72  72  63  64  63  61  60  59  58  67  74  79  83  84  84  86  90  92  96 103 113 124 141 168 172 174 174 175 176 176 174 174 175 175 175 175 176 176 175 176 176 176
 185 185 185 186 185 187 187 188 186 187 186 184 184 183 182 166 124 116 119 120 123 120 110  96  83  71  68  77  84  90  93  97  93  96  95  89  72  70  73  74  70  68  67  69  61  59  62  60  58  59  61  66  61  59  56  55  52  53  53  59  67  75  82  85  86  89  90  93  99 104 115 154 172 173 175 174 175 174 175 176 175 175 175 176 176 176 175 175 176 176 176 177
 184 184 185 186 186 186 186 186 188 186 185 185 184 183 181 166 126 117 118 122 126 119 108  97  84  70  59  66  73  78  80  84  86  87  85  78  65  66  61  65  63  62  62  62  56  54  60  58  50  50  54  61  61  58  52  50  44  49  48  52  57  63  77  85  88  90  92  93 101 104 120 156 172 175 174 175 175 175 175 175 174 175 175 175 175 176 178 176 175 175 175 177
 184 184 185 185 184 185 186 187 188 184 184 182 184 184 183 173 129 120 122 126 129 117 108  99  80  58  54  59  62  62  69  77  75  75  73  65  62  59  55  55  56  54  55  55  52  53  52  50  45  46  46  55  61  58  49  46  38  39  42  47  54  51  69  85  90  95  98  96 100 101 128 166 174 176 175 175 175 175 176 175 174 176 175 175 176 176 177 177 176 177 177 177
 183 184 184 184 184 184 185 186 184 183 183 183 182 184 184 176 134 119 121 127 130 120 115  98  68  55  51  53  52  60  73  73  66  69  63  57  60  59  54  53  51  51  53  51  51  53  51  47  46  45  45  50  55  55  47  42  35  31  36  41  46  50  61  85  92  96  98  97  99 102 133 167 174 174 175 175 174 175 175 175 174 174 176 175 175 176 176 176 176 177 177 178
 183 183 184 183 185 183 184 183 183 184 183 184 183 184 183 180 143 122 120 128 132 124 116  93  63  50  49  48  52  62  71  73  69  62  59  62  66  61  55  51  50  50  50  50  49  54  54  49  46  49  45  49  51  59  51  45  42  37  39  46  52  59  62  86  97  98  96  97  96 106 147 170 174 175 176 175 175 175 175 176 175 175 175 174 176 176 175 178 176 177 178 177
 185 185 183 183 184 183 184 183 183 183 184 183 184 182 184 181 153 121 118 122 132 126 114  89  66  52  51  50  52  69  80  83  70  63  63  64  68  65  62  56  52  49  47  50  52  51  54  52  52  52  52  53  52  63  63  51  44  43  48  55  63  70  72  86 101  99  93  92  98 108 158 175 175 174 175 176 175 175 176 177 176 175 174 174 176 174 176 177 176 177 177 178
 183 184 184 183 184 183 182 183 184 183 183 182 184 182 184 184 170 119 114 122 132 127 110  82  66  52  45  39  31  28  39  66  76  70  69  72  73  77  75  68  64  57  58  58  62  65  62  59  59  63  61  58  54  50  30  25  25  34  44  49  58  68  82  93 101  99  91  92  97 116 163 175 176 175 174 175 175 175 176 176 176 176 176 176 176 176 176 177 177 177 178 176
 182 182 182 182 183 183 182 183 185 183 182 182 183 182 181 181 176 129 112 125 131 126 108  83  67  49  40  42  37  27  20  28  64  78  73  71  74  74  73  72  70  70  63  61  63  62  62  58  60  61  62  57  36  21  18  22  30  45  48  50  57  67  86  97 101  91  85  90  95 129 168 175 175 175 174 175 174 175 175 176 175 174 175 176 176 176 177 177 178 177 178 176
 180 181 183 182 183 183 182 183 183 183 182 182 182 181 183 182 180 149 114 115 126 125 110  89  65  52  43  50  54  42  29  20  55  91  88  86  99  74  77  77  74  65  65  66  67  59  65  72  64  67  70  48  23  18  25  33  50  55  53  55  65  78  91  99 103  90  80  92  98 148 172 174 174 174 175 175 176 175 174 174 175 176 175 176 175 176 176 177 176 178 177 177
 181 182 181 182 182 181 182 182 183 182 182 182 183 182 183 183 182 161 113 106 120 124 109  90  69  56  51  60  76  72  57  34  36  81  95  99 110  89  97  98  94  74  82  87  85  77  78  84  68  71  62  36  21  30  40  54  64  61  60  61  71  83  94 101 100  90  84  93 110 152 174 178 177 177 177 176 175 172 174 175 175 174 176 175 176 176 177 178 177 176 179 178
 181 181 180 180 181 181 181 181 183 182 181 181 181 181 182 180 179 164 123 103 110 119 110  94  78  64  61  70  90  96  83  70  48  54  78  80 109 100 106 107 103  85  90  93  90  81  81  85  52  47  47  30  37  47  57  71  67  66  66  67  76  87  91  93  89  83  84  86  80  67  64  63  56  52  55  55  60  61  71  81  96 116 143 169 174 174 176 175 176 176 177 176
 178 178 180 181 181 181 180 180 180 181 181 182 181 183 181 179 178 168 128 110 107 117 113  96  84  72  65  74  90 104 102  91  76  71  52  63  78  81 100  98  96  82  82  81  76  73  62  62  53  36  42  49  57  67  77  75  71  70  66  68  75  90  91  90  82  79  84  76  51  36  33  32  30  30  29  31  33  32  33  35  37  42  42  60  96 140 172 174 176 176 176 176
 179 178 177 178 179 179 179 179 179 180 179 179 180 181 180 181 179 171 124 103 103 113 113  94  81  74  72  78  91 105 110 101  99  89  75  64  53  64  63  62  71  59  68  66  55  66  57  50  50  52  65  74  77  82  86  76  73  67  63  62  72  88  86  80  72  75  76  57  30  21  20  19  18  17  18  20  21  19  19  21  24  26  29  35  42  45  63 128 173 173 174 176
 179 179 179 178 178 178 179 178 177 178 180 180 181 180 180 180 178 148  73  89  93 105 107  94  82  69  70  78  94 100 110 108 108 104  92  84  74  66  63  62  63  55  61  59  51  56  52  58  68  76  83  83  85  91  91  84  76  69  65  57  64  84  83  72  64  67  68  39  23  14  12  12  13  13  13  14  13  12  12  14  16  19  19  23  28  33  37  44  66 139 174 175
 180 180 178 179 177 178 176 178 176 176 178 180 181 180 177 176 140  70  60  71  84  88 103 100  83  67  68  75  92 103 110 113 115 110 102  96  90  85  83  80  76  76  78  78  76  76  75  77  79  84  84  87  90  92  88  80  72  65  61  56  61  80  75  66  65  65  63  32  17  11  10  10  10  11  10  11  12  12  11  13  13  12  15  18  22  23  26  32  39  45 109 172
 180 179 179 176 178 178 176 178 177 175 177 177 176 172 146 118  76  64  43  58  66  77  99 105  81  70  73  76  90 105 114 120 120 114 101  94  90  88  84  84  81  80  80  84  83  83  77  79  77  79  86  91  93  93  89  78  67  63  53  51  52  66  64  55  60  58  57  27  16  12  10   9  10  10  10  10  10  11   9  10  12  11  12  16  16  16  20  25  30  35  42  89
 178 178 178 176 177 178 176 176 177 175 174 167 118  79  78  71  62  38  33  46  62  76  88  99  84  72  66  72  84 101 115 120 119 115 103  96  88  82  81  77  76  73  74  76  75  72  72  73  73  81  87  91  91  89  86  74  63  55  50  48  45  53  56  53  55  55  55  23  15  16  14  10  10   9  10   9   9   9  10   9  10  11  12  13  12  12  16  20  24  29  35  40
 177 176 177 176 176 177 175 176 176 175 154  80  73  71  64  50  38  27  24  35  58  63  80  89  85  70  65  72  80 101 114 120 122 116 107 101  93  88  85  82  79  77  73  73  71  70  73  73  78  83  91  91  92  86  82  73  60  49  45  43  43  52  49  50  49  53  52  20  12  13  16  16  15  14  11  10  10   9   9   9   9   9  10  11  11  11  14  17  22  26  29  33
 175 175 177 176 175 174 175 174 175 143  72  66  63  62  47  37  28  22  17  41  62  55  76  89  91  68  68  67  77 106 116 117 120 111 106 104  96  89  86  86  86  81  79  76  75  75  80  79  85  86  90  89  89  85  74  64  52  47  40  37  41  47  47  48  47  61  64  26  14  13  15  15  15  16  17  16  16  14  13  12  10   9   9   9  11  11  12  17  20  21  24  26
 173 173 175 173 173 173 172 171 154  70  60  58  61  50  38  30  23  16  25  42  59  52  60  78  80  67  67  72  82 101 112 114 120 110 101  97  95  85  78  84  84  80  82  76  75  78  82  86  91  86  89  88  86  80  62  54  47  45  38  36  37  41  44  40  42  67  83  62  27  17  13  14  13  14  15  16  17  17  18  18  17  14  12  10   9   9  12  15  18  20  22  23
 170 170 173 173 165 152 141 135  76  60  55  58  49  39  30  22  17  17  36  40  59  58  54  69  73  62  68  76  88  99 110 118 115 108  96  92  82  72  67  72  73  67  67  68  66  69  74  76  83  81  84  85  84  79  58  46  46  44  40  37  35  42  42  34  41  71  90  88  45  23  15  14  15  13  11  14  16  15  16  18  18  18  17  16  14  11  11  12  17  18  20  23
 131 104  81  60  47  46  47  58  56  52  55  50  41  32  23  18  15  29  39  38  62  78  55  57  57  58  64  71  84 100 113 114 110 102  97  93  79  72  65  60  57  58  54  60  61  62  68  75  82  80  84  88  84  74  56  48  44  42  37  34  36  44  36  31  46  79  91  95  67  33  20  14  13  15  12  13  15  16  15  17  17  17  17  18  16  16  14  12  13  15  19  20
  38  38  39  39  38  40  46  52  49  49  53  44  34  25  18  14  20  34  35  33  60  96  57  47  51  56  63  68  86  99 109 119 114 103  96  90  81  73  64  62  59  46  49  52  56  61  65  73  79  83  90  92  87  73  53  44  41  39  36  35  34  41  30  32  65  81  92  98  84  47  26  16  13  14  13  10  12  16  14  14  16  16  18  18  17  16  16  15  13  14  16  18
  38  32  27  31  34  39  47  49  50  52  45  38  28  20  18  13  28  32  33  30  56 108  54  49  50  58  65  74  85  93 111 119 114 110 105  95  86  76  70  67  53  48  48  52  58  63  67  78  83  85  90  91  86  70  53  43  41  37  34  34  33  32  30  46  86  90  94  99  89  55  31  20  16  15  13  12  12  14  15  14  14  14  15  18  18  19  18  16  16  13  14  17
  34  31  26  24  24  34  48  45  50  49  40  31  20  16  14  17  32  32  29  26  46 117  63  47  46  53  59  70  82  89 106 112 114 118 113 103  97  88  79  68  58  58  54  56  66  69  73  77  86  90  88  87  78  62  48  42  40  37  33  32  32  29  42  74  90  92  96  97  92  67  37  24  17  13  14  12  12  14  12  13  14  12  15  15  16  17  18  16  15  13  14  16
  33  29  27  28  33  43  46  47  51  41  33  25  15  15  11  26  33  29  22  21  38 123  78  47  38  44  55  70  76  82  94 110 116 118 115 110 108 100  92  80  70  68  72  72  75  74  76  78  86  91  88  77  67  56  46  40  38  36  32  27  27  31  59  86  94  91  94  98  94  76  42  26  19  15  12  11  10  13  13  12  11  10  13  12  15  15  17  15  16  16  14  16
  30  28  26  29  36  43  45  50  47  37  28  19  14  14  13  31  31  26  19  18  37 125 105  46  37  41  46  57  64  75  95 101 107 110 111 113 108 105  96  88  81  83  86  85  80  81  80  83  88  91  84  67  56  50  44  40  35  32  30  26  25  35  76  91  97  93  95 100  98  83  46  28  18  14  13  10  10  12  13  12  11  11  11  14  14  16  16  14  13  14  14  15
  28  25  24  26  36  40  45  49  38  33  21  14  11  12  22  30  30  23  16  16  33 123 111  62  39  35  42  51  55  74  86  92  92  99 104 111 107 100  89  82  81  87  88  84  82  78  75  79  83  86  79  69  56  46  39  35  33  31  29  27  27  49  88  91  94  93  92  96  97  86  50  30  21  15  13  11  11  13  12  12  11  12  12  12  13  14  14  13  12  13  13  14
  28  22  20  27  34  42  46  41  32  26  18  12  11  12  26  31  28  22  15  15  34 119 112  91  42  33  38  39  48  67  71  77  86  93  96 101 101  92  86  79  76  84  83  77  76  73  74  72  78  80  77  65  51  39  35  31  32  29  25  27  35  77  92  94  94  93  91  95  94  88  55  33  21  14  13  10  10  13  13  12  10  10  10  12  13  13  13  12  11  11  12  12
  28  20  21  27  35  43  44  38  31  22  16  10  11  16  27  28  22  17  15  14  32 121 119 105  51  31  32  35  44  55  58  69  74  82  88  88  91  87  79  70  74  77  75  74  70  64  68  72  72  74  73  61  46  36  32  29  28  25  24  27  70  85  90  93  92  92  90  94  96  90  60  34  20  15  12  10  11  13  12  12  11  11  12  12  12  12  12  11  10  10  12  13
  27  23  26  30  35  46  42  36  27  17  13  10  11  21  28  23  18  16  12  14  30 117 113 108  77  35  33  33  40  46  51  60  66  72  73  75  80  75  71  67  68  70  73  71  70  65  66  66  69  64  60  51  40  34  30  28  25  24  26  54  76  84  88  93  92  92  90  93  95  89  61  35  22  15  13  12  12  12  12  11  11  10  12  12  12  12  12  10  10   9  11  12
  26  25  27  32  36  46  37  31  19  13  10  10  12  25  26  22  17  15  11  13  27 117 113 111 106  80  34  32  36  43  43  51  54  59  63  69  69  64  60  61  63  70  71  69  68  67  63  61  62  55  49  44  36  29  26  28  25  25  42  75  80  84  88  90  91  93  91  90  93  88  65  35  21  15  12  12  12  12  12  12  10  10  12  12  12  11  11  10   9  10  11  10
  25  26  28  30  35  41  34  24  15  10   7   9  14  26  24  20  17  15  11  15  25 114 114 108 108  96  63  35  30  32  31  37  42  50  51  58  58  57  57  54  58  67  65  65  65  55  57  54  52  48  43  35  31  26  24  26  22  33  62  78  81  88  89  91  92  92  91  91  91  85  59  33  21  14  11  11  11  13  12  11  10  10  11  12  11  10  11  10   9  10  11  11
  27  26  27  30  39  40  34  23  15  11   6   8  18  26  22  18  16  14  10  14  22 106 111 112 109 100  91  59  37  28  24  28  34  38  38  44  47  48  54  51  54  58  58  57  54  48  46  44  39  37  34  30  26  22  21  20  32  52  68  79  83  87  88  91  92  90  91  89  90  84  58  32  19  14  12  12  12  12  10  11  10   9  12  12  12  11  11  10   9  10  10  11
  26  25  27  31  38  35  26  19  15  12   7  10  19  24  22  19  16  13  10  11  27  93 108 108 106 100  99  89  54  42  27  25  26  28  28  30  31  34  43  40  44  50  49  48  40  34  36  32  30  26  27  26  20  23  28  34  55  62  71  80  85  86  87  89  89  88  89  89  86  81  55  29  17  13  12  11  11  12  12  10   8   9  10  12  12  11   9  10   9  10  11  10
  26  26  25  34  39  31  24  17  12  10   6  10  20  22  19  19  17  13  11  10  26  68 101 101 101 102 101  93  82  69  45  31  26  23  21  22  24  26  28  27  27  32  35  34  28  28  27  27  23  23  22  25  26  36  54  57  69  75  80  82  87  87  86  86  87  89  88  87  85  76  47  25  16  13  12  10  12  12  10  10   9   9  10  11  12  11  10  10  10   9  10  10
  26  25  28  32  36  32  24  18  12   8   6  10  20  21  20  17  15  12  12  11  22  41  94  98  97  98 100  96  84  74  67  51  37  24  23  19  23  23  22  21  23  24  26  27  24  27  25  23  22  22  26  42  48  62  65  68  74  77  81  83  84  84  85  84  85  85  86  84  81  70  42  23  15  12  12  11  12  12  10  10   9   8  10  12  10  10  10  11   9   9  12  11
  28  26  30  32  37  32  22  16  11   6   6  11  20  17  18  16  16  14  12  12  18  28  70  93  93  94  94  96  88  81  74  65  74  51  38  32  28  26  24  22  24  24  24  29  31  34  30  26  28  30  45  58  62  68  73  72  77  79  76  80  83  81  78  81  82  83  85  83  76  61  34  20  13  12  11  11  12  12  11  12  10   8  10  12  10  10  10   9   9   9  10  11
