P2
# Generated by OpenCV 3.4.0
92 112
255
  74  71  75  76  77  76  77  79  79  81  82  81  81  81  82  82  83  80  83  83  84  83  83  83  83  83  81  83  84  84  84  85  84  84  84  84  83  84  84  83  82  82  82  82  89  88  89  86  89  94  89  78  75  77  78  80  82  85  87  87  92  96  97  99 100 102 103 102 102 103 104 102 103 101 102 100 103 101 101 102 102 101 102 102 103 102 103 102 100 102 101 100
  73  76  75  77  77  78  78  78  78  81  81  80  79  80  82  82  82  83  83  82  82  83  82  82  83  83  83  83  82  83  83  83  84  79  80  78  77  87  85  94 101 100 109 126 140 143 143 114  96  92 103 102  99 100 102 102 104 104 104 105 104 106 107 106 105 106 104 106 106 104 105 104 104 105 106 102 103 102 102 102 104 102 102 101 102 102 103 103 102 101 102 100
  74  74  74  76  75  77  77  77  78  79  77  79  78  80  82  83  82  81  81  81  80  78  78  77  78  78  75  76  77  81  80  80  93  86  84  91 104 122 132 138 152 159 150 145 157 168 168 149 126 112 111 115 115 112 114 110 107 107 107 108 107 106 107 107 105 108 107 107 107 106 105 105 106 105 106 104 104 105 103 102 104 102 103 104 103 102 104 103 102 100 103 102
  74  75  77  74  75  77  76  77  76  76  76  76  74  74  74  72  73  73  74  74  74  74  75  80  82  85  88  90  94  95  99  98 103 111 120 130 138 156 146 152 164 183 174 166 160 172 153 171 135 137 130 118 126 126 116 118 111 107 108 108 107 106 106 106 107 107 108 107 107 107 106 106 106 106 106 106 105 105 104 104 104 104 104 104 103 103 103 102 102 101 103 102
  73  71  72  71  69  73  69  70  72  72  74  76  76  79  81  81  86  90  89  94  94  97 101 101 103 105 105 106 106 104  99 118 124 134 149 153 163 158 160 162 169 180 172 168 165 162 163 157 150 144 163 142 136 147 126 122 119 105 104 107 107 108 107 108 107 107 108 108 108 107 107 106 106 106 105 106 106 106 105 105 105 104 105 106 103 103 103 103 104 103 105 103
  68  71  73  76  80  82  85  88  90  91  93  97  98 101 100 102 103 103 103 104 104 105 106 105 106 108 107 110 109 112 122 136 149 163 180 189 181 176 179 169 168 169 160 167 164 160 164 156 148 140 160 159 131 152 131 131 125 106  98  97  93 101 104 106 107 108 107 108 107 107 108 107 107 107 107 107 107 106 106 105 103 105 105 106 104 105 105 106 106 104 103 102
  88  94  95  96  97  99  99 100  99 101 101 101 103 103 103 104 106 105 105 107 104 105 107 107 108 107 107 108 112 125 137 142 147 154 162 169 173 161 163 168 154 154 162 164 155 163 184 144 147 134 152 138 123 144 126 139 123 100 102  84  78  78  92 102 106 108 108 108 108 107 108 107 107 108 107 106 106 106 106 104 106 106 106 106 105 103 104 104 103 105 104 103
  94  95  98  99  98  99 102 101 101 102 102 103 105 106 105 104 103 106 105 106 108 107 107 107 109 108 108 112 124 143 150 142 141 149 156 158 161 145 153 152 144 154 160 157 158 165 162 138 140 133 147 139 112 139 125 133 126  95 100  80  81  69  66  80  98 106 109 108 108 108 108 108 108 107 108 108 106 107 106 105 108 106 105 104 104 106 104 103 103 103 103 103
  95  97  98  99 100  99 101 100 103 104 103 103 106 105 106 106 107 105 107 107 107 107 108 109 109 106 106 120 143 144 147 153 153 139 145 147 140 142 147 146 146 148 157 157 163 162 151 141 144 156 138 142 120 140 120 123 125  95  96  80  71  66  71  70  75  96 103 105 110 109 109 109 108 108 109 108 106 107 107 107 106 106 106 107 104 107 106 104 105 105 104 105
  98  99 100 100 101 101 101 102 102 105 104 106 106 106 107 106 106 108 109 108 108 108 109 113 113 110 113 130 151 152 135 136 129 118 131 126 130 139 143 147 149 149 165 156 163 158 157 140 151 152 135 143 126 132 114 120 130 108  94  82  80  83  82  76  73  81  94 104 107 108 109 108 107 108 108 107 107 106 108 107 108 106 106 105 106 105 105 105 106 106 104 103
  96  99  99 101 100 102 102 102 103 103 104 106 107 105 106 106 105 106 107 107 109 111 110 113 114 112 114 142 144 130 122 125 123 117 127 123 129 135 139 147 150 151 150 160 164 164 149 148 151 137 151 139 129 121 112 112 121 108 104  95  86  85  79  70  77  82  78  95 105 107 109 108 108 109 108 109 108 107 107 107 107 106 107 106 107 106 105 107 108 105 104 103
  98  99 101 101 100 101 103 102 106 104 107 106 106 105 105 106 106 108 108 108 109 111 110 112 118 123 147 155 140 129 127 133 138 138 140 133 140 138 143 152 158 157 155 162 172 159 157 152 136 159 140 132 138 117  98 105 121 118 104  98  93  86  76  74  76  81  83  80  88 104 108 109 108 108 108 108 108 108 107 108 108 105 108 107 107 106 107 106 107 105 106 106
  97  98 102 101 103 102 103 104 103 104 106 105 106 105 106 107 109 108 109 109 110 112 112 113 126 156 169 170 165 151 156 159 159 160 159 155 154 148 156 162 167 162 160 168 161 158 157 151 160 144 130 127 121 108 105 110 116 108 104 110 108 104  96  87  85  89  80  71  70  93 101 107 109 109 108 110 109 109 108 108 108 108 109 108 108 107 107 107 108 105 106 107
  98  99 100 101 101 102 103 105 104 104 106 107 107 107 107 107 108 108 109 109 112 112 107 106 133 168 179 177 212 186 188 188 189 187 186 180 184 181 182 183 175 166 162 154 158 166 170 171 156 131 130 127 114 108 107 110 107 104 106 105 106 106 101  94  91  88  84  72  63  72  96 107 109 109 110 110 110 109 110 108 108 107 108 109 108 106 108 108 107 107 107 106
 100 102 100 103 102 102 104 105 104 107 106 106 108 108 106 108 110 110 109 110 113 108 108 119 150 179 184 207 222 215 218 220 220 216 212 207 205 202 203 201 191 174 165 162 160 161 183 165 143 133 126 118 114 112 114 111 111 109 113 118 120 114 109 108 102  98  85  74  68  66  77 101 108 110 110 110 111 111 111 109 110 109 109 110 108 108 109 108 109 109 108 109
 101 101 103 102 102 104 105 105 104 106 107 107 107 107 108 108 109 109 107 113 109 103 115 148 173 191 199 215 219 221 223 232 241 240 237 225 225 221 210 209 207 189 177 168 154 149 155 150 136 122 118 116 112 114 118 115 119 120 123 123 124 124 121 120 115 113 104  84  78  73  64  84 104 109 110 109 110 110 109 109 112 110 110 109 109 109 110 110 109 108 108 107
 101 100 102 102 105 104 104 106 107 107 108 109 108 109 110 109 110 110 112 112 107 117 139 178 206 208 205 209 210 220 227 242 242 235 232 225 225 223 210 207 201 192 180 173 161 145 138 130 127 125 120 115 113 115 117 122 124 127 128 130 132 132 132 130 123 122 118 104  79  72  76  68  92 108 110 111 112 112 110 111 111 111 110 110 110 110 110 110 109 110 108 109
 102 103 101 104 103 105 106 106 108 108 108 110 109 110 110 111 114 114 115 113 119 141 180 199 204 201 200 202 203 210 221 229 227 224 225 220 217 209 197 194 189 188 183 171 157 145 140 132 130 126 126 120 117 119 123 126 131 133 134 136 137 139 137 134 130 125 122 117 104  85  74  70  71 101 109 114 114 113 111 111 112 110 112 111 111 110 110 111 110 111 109 111
 103 103 103 105 105 105 107 106 109 109 110 110 112 110 112 112 111 115 114 119 139 180 199 202 196 195 191 192 196 200 205 208 206 211 203 204 203 195 185 184 181 181 174 163 152 143 136 132 131 128 126 124 122 124 126 128 132 136 137 140 138 139 141 135 133 129 126 124 117 109  87  78  65  76 108 120 113 113 113 113 113 113 114 113 112 112 112 112 111 110 109 110
 104 104 104 108 106 108 109 109 110 111 112 113 112 112 112 114 113 117 120 134 170 195 198 199 192 192 190 191 194 196 194 199 201 193 188 188 186 179 175 172 169 165 152 151 145 135 131 133 133 128 126 125 125 127 126 127 127 131 130 134 134 135 139 135 131 128 127 124 121 116 108  87  75  60  85 112 113 116 116 114 115 113 113 113 113 112 112 112 112 112 111 113
 107 107 109 106 107 109 110 111 112 112 113 114 114 114 117 117 117 121 127 152 190 193 194 196 190 190 191 189 189 198 196 192 192 187 179 175 174 162 165 164 161 151 143 141 138 127 126 130 129 126 126 125 126 126 126 126 127 127 126 125 125 125 128 128 129 127 128 122 121 122 117 107  81  65  67 103 114 124 118 115 116 116 116 114 114 115 114 114 113 113 113 113
 108 110 109 110 110 112 113 115 114 114 116 115 116 118 118 119 123 116 140 175 194 195 195 193 189 190 187 186 183 186 184 178 180 174 170 165 157 157 155 151 144 139 137 131 126 124 121 120 119 122 119 117 117 119 122 121 123 123 122 121 121 122 122 122 124 123 125 124 121 126 124 115  95  72  62  87 110 120 117 118 116 116 114 115 115 116 116 114 114 114 114 113
 111 111 113 111 113 114 113 114 117 116 115 117 121 120 121 122 124 124 161 185 192 192 191 191 185 185 181 179 176 176 168 167 163 161 162 159 151 147 143 141 135 132 130 124 121 116 116 113 114 116 114 112 114 117 120 118 118 120 117 117 113 119 117 120 120 120 120 123 121 122 123 117 106  90  66  73 103 116 117 117 116 117 116 116 116 117 117 114 114 115 115 114
 114 115 115 113 114 116 117 118 118 118 119 122 123 123 124 124 123 150 179 189 191 191 188 187 184 181 179 175 169 166 157 155 151 154 147 143 135 131 130 127 123 119 115 114 111 112 113 110 115 114 112 112 111 111 112 109 109 109 110 110 109 111 112 115 117 118 119 121 120 122 120 114 111 107  87  71  96 114 120 117 118 120 119 119 118 118 117 118 117 117 116 117
 119 117 117 117 117 119 122 122 121 122 124 122 123 125 128 124 135 166 184 186 188 188 188 187 182 176 172 164 160 154 150 145 141 129 132 126 120 121 126 126 124 123 125 120 116 117 115 120 115 115 111 108 102 102 105 106 105 103 102 101 105 110 108 110 112 116 117 122 120 119 119 113 111 108 100  84  83 112 122 121 119 118 119 118 118 118 119 119 117 118 117 117
 120 120 121 121 121 122 123 124 126 124 125 126 128 128 126 123 152 180 181 181 183 185 185 185 179 171 166 157 152 143 137 138 132 127 129 123 122 126 128 124 123 124 118 113 112 114 112 109 106 106 106 104  99 101 100  99  98  99  98  97  99 105 102 106 107 110 114 115 117 119 116 112 112 109 108  96  83 109 125 123 122 122 121 121 120 121 121 119 119 120 120 119
 124 122 124 123 125 124 125 127 126 126 127 128 130 130 127 136 166 182 177 179 181 181 182 180 172 166 157 152 142 131 127 125 123 121 124 120 122 123 122 120 118 117 113 112 110 110 104 105 105 103 102 101 102  98  97  96  96  95  96  98  98 101 103 103 104 106 111 110 112 115 115 112 112 110 110  99  84 104 121 123 122 124 123 122 122 122 122 122 123 121 122 120
 125 126 127 126 127 127 127 128 128 129 130 128 131 132 130 152 172 182 177 174 177 175 175 172 165 158 152 142 134 126 126 127 125 121 121 123 122 118 115 119 119 120 116 111 106 106 104 105 103 101 103 101 100  99  98  97  95  94  97  97  98  99 103 101 102 105 109 111 111 113 112 109 112 111 110 100  79  75 111 124 126 124 124 123 124 124 124 124 124 123 124 124
 128 129 130 130 130 130 131 130 132 131 131 131 134 133 132 152 174 180 176 172 171 172 171 163 158 150 143 138 132 125 125 125 126 121 120 119 123 124 125 125 124 121 117 113 108 106 106 108 105 103  98  98  98  99  97  94  98  98  97  97  98 101 101 103 103 103 108 109 111 112 110 110 111 110 106 100  82  72 105 124 126 126 126 126 125 126 126 126 125 124 125 126
 129 131 133 133 133 134 133 134 134 134 134 145 141 134 132 153 176 178 175 172 169 169 167 161 154 145 143 139 135 132 135 136 129 133 133 132 136 128 130 126 126 120 113 110 107 108 106 108 106 102 100  99 100 102 100  99 102  99  97 100  96  98 100 101 101  99 104 108 107 110 107 109 110 109 108 101  84  68  81 122 126 128 128 127 128 126 126 126 127 124 126 125
 133 136 136 136 136 135 134 136 136 136 136 142 138 133 127 156 175 175 172 170 165 163 162 155 152 149 147 144 146 146 144 138 137 139 137 139 141 134 128 125 119 114 109 110 110 118 124 122 116 109 109 107 107 107 107 105 104 103 101 102  97 101 103 101 100  98 103 104 105 108 107 106 109 109 107 104  88  68  57 110 127 129 131 130 130 128 130 129 128 128 127 127
 136 137 138 139 138 138 138 137 137 137 139 139 139 113 121 157 169 171 168 165 162 161 160 156 155 151 149 146 148 150 148 148 147 148 144 143 142 136 135 131 127 124 122 115 120 129 142 133 121 112 111 114 112 111 108 108 107 105 104 104 104 104 104 104 102 103 103 105 105 105 106 106 108 108 108 106  91  67  57  86 126 129 130 129 130 130 131 130 130 128 129 128
 140 140 141 141 140 139 139 141 141 141 142 143 138  99 123 155 163 165 165 162 159 160 160 154 154 153 152 152 154 155 153 152 158 156 151 152 144 138 139 135 133 127 124 122 122 126 127 117 114 113 114 117 116 113 111 109 109 107 105 106 106 106 103 104 105 105 104 104 107 105 105 106 107 107 107 105  95  70  53  67 128 131 132 131 131 131 130 131 133 131 132 130
 142 142 144 145 144 143 142 141 142 142 145 147 128  91 126 157 163 163 161 160 162 161 159 151 150 148 152 157 157 158 158 158 163 160 153 151 148 145 141 139 130 122 123 123 121 116 110 103 109 116 120 120 120 119 118 117 111 110 106 106 104 104 102 103 106 105 107 107 106 105 105 106 106 107 108 102  96  76  55  63 127 131 132 132 134 135 132 133 132 134 133 131
 143 145 146 146 146 144 144 144 143 143 146 156 127  98 130 153 158 159 159 158 161 158 152 149 149 150 153 159 163 163 164 164 164 165 158 155 147 144 139 128 117 120 120 115 112 112 111 108 111 116 121 122 122 122 119 116 114 112 109 110 109 108 107 107 108 108 108 108 107 105 107 106 107 106 107 105 100  79  58  68 127 132 135 134 135 135 134 134 133 135 134 134
 147 147 148 149 148 146 145 146 147 146 147 156 106 102 131 153 158 158 157 161 162 154 152 150 149 153 157 159 161 165 163 163 160 150 149 147 146 139 132 126 119 116 114 112 112 116 114 115 115 117 120 122 122 122 116 113 112 109 109 108 108 107 107 109 109 110 110 108 106 107 107 104 105 105 105 106 101  83  65  86 130 133 134 135 135 135 136 135 136 135 135 135
 148 151 151 151 151 149 148 147 148 149 153 151 104 100 133 149 158 155 158 162 162 159 154 152 149 152 154 160 163 163 158 156 153 143 139 134 133 131 122 116 114 110 110 111 107 109 108 111 115 115 116 116 115 113 111 110 109 109 110 109 110 110 110 112 109 109 110 109 106 105 107 106 106 105 104 105 101  85  62  72 129 136 136 136 137 135 137 136 135 136 137 135
 153 153 154 153 153 151 151 150 151 151 152 147  88  97 128 148 156 154 155 160 162 161 156 156 152 157 158 161 158 156 153 152 143 133 129 125 121 113 111 108 105 106 107 105 103 102 100 107 110 111 111 111 107 104 104 105 105 104 108 108 107 110 112 112 109 110 109 106 108 106 106 106 105 105 104 105 101  84  66  67 130 136 140 138 139 138 138 136 137 137 138 138
 154 156 156 156 155 153 153 151 152 151 150 143  86  95 122 146 153 155 154 156 162 159 159 155 156 161 164 163 158 154 148 142 136 126 120 113 108 103 105 102 100 100 100  98  98  93  95 102 106 104 106 104 100  97  99 100 101 100 102 104 107 108 110 111 110 111 109 104 108 108 105 105 106 107 106 104 100  85  62  68 131 140 140 138 139 139 138 138 140 138 138 138
 157 158 160 159 157 155 154 153 154 154 151 131  79  91 116 138 148 153 154 154 158 156 157 160 164 169 166 162 153 146 141 134 121 120 109 102  98  98  99  94  92  93  94  94  94  94  94  96 100  96  94  95  92  90  91  93  97  98  98 100 103 103 107 105 106 108 108 107 108 107 104 105 105 106 105 104 101  83  60  62 129 138 140 141 141 140 140 140 140 140 140 140
 159 160 161 160 160 157 156 153 156 156 151 112  78  88 117 137 147 151 155 157 157 158 159 165 165 164 160 151 148 138 127 111 108  99  91  91  92  91  92  92  90  91  91  91  92  91  91  89  93  91  88  86  87  85  86  88  90  92  94  95  97  95  97  96  94  96  98 106 103 103 105 106 104 104 105 105 100  82  59  57 131 140 140 139 141 142 140 141 141 142 141 141
 161 162 163 161 162 160 160 159 156 155 150 126  74  81 114 139 144 150 160 160 158 164 163 160 155 148 142 136 124 101  94  89  86  82  77  80  84  84  85  85  87  88  86  86  88  86  86  85  85  85  84  83  84  81  80  82  83  85  88  85  83  82  80  84  83  86  88  95  93  92 102 105 104 105 104 104  99  75  57  62 134 142 144 145 144 144 144 144 143 145 144 143
 162 164 165 164 162 160 161 161 157 155 153 132  71  79 115 140 142 152 161 165 165 166 156 138 128 115 104  92  82  69  72  71  73  70  68  69  72  73  76  80  83  85  81  84  84  84  83  84  83  83  80  79  77  75  71  71  70  71  74  75  74  70  69  65  66  70  74  81  80  80  91 101 102 104 103 105  97  71  58  76 135 144 146 145 144 145 145 144 144 143 143 143
 163 166 167 166 165 164 162 161 161 160 161 154  84  78 111 138 142 153 162 161 156 140 132 115  99  87  75  66  62  56  55  60  63  65  60  59  63  65  67  73  79  82  81  83  84  83  82  83  80  80  77  73  68  67  65  61  60  59  55  53  56  54  52  55  54  54  60  64  68  74  76  84  93 102 104 105  98  65  54 100 137 145 147 146 146 146 146 147 146 144 146 146
 167 167 168 170 166 166 164 165 163 164 162 160 115  77 105 140 147 160 166 158 129 111 101  92  74  70  66  62  57  54  53  55  60  63  59  55  56  60  62  67  73  75  77  82  84  82  78  79  76  74  71  69  63  63  58  54  55  52  48  47  47  46  47  50  53  58  65  70  73  75  72  74  83  99 104 105  95  65  53 112 138 146 146 146 147 146 147 148 148 148 147 145
 170 169 170 169 168 167 166 166 165 165 165 163 133  70 102 137 149 159 164 143 121 104  93  92  84  77  73  71  70  66  65  64  63  63  63  61  59  61  62  63  68  72  74  79  83  82  77  76  72  74  65  62  61  59  54  49  49  50  47  46  50  56  59  63  67  69  72  78  82  84  82  88  86  93 102 105  92  64  60 125 137 146 150 151 149 148 148 149 149 148 147 147
 172 172 171 171 168 167 167 168 167 167 166 164 141  70  97 141 150 158 157 132 121 110  99  95  91  82  78  76  72  68  68  68  67  69  69  69  66  66  65  67  68  72  76  78  82  80  77  72  72  69  63  62  64  61  55  54  57  58  57  59  63  63  64  64  67  69  72  80  84  87  91  94  91  92 103 107  89  64  72 134 137 147 150 150 151 151 149 149 149 148 150 149
 173 172 172 172 170 168 168 169 168 167 167 165 149  79  86 136 150 154 142 118 111 109 101  96  91  83  78  73  69  65  67  64  64  65  64  67  67  70  73  73  72  74  78  79  83  80  77  73  70  70  64  65  64  62  62  59  60  57  58  57  58  57  58  58  64  68  71  78  82  86  89  93  92  87 100 108  91  63  96 136 143 147 149 149 152 152 151 151 150 150 150 151
 172 174 174 173 170 172 172 169 170 168 169 167 162 101  82 136 152 150 128 114 110 104  97  91  85  80  71  62  56  50  43  40  38  40  45  54  62  64  69  75  78  80  84  84  85  84  79  76  72  73  70  67  64  60  58  53  49  40  35  34  34  37  40  47  53  57  66  71  75  80  83  88  93  95 102 107  95  68 116 136 144 147 148 152 152 152 153 151 150 150 150 151
 173 174 175 174 171 172 171 171 170 170 170 168 166 128  84 135 154 148 135 116 106  98  95  84  71  60  58  58  56  53  46  41  38  37  34  34  45  54  60  67  77  85  88  89  88  84  81  80  78  77  75  67  57  51  45  38  32  33  35  36  38  42  44  50  54  52  53  58  61  72  78  84  93 100 103 108  96  85 128 143 148 151 150 151 152 152 153 152 152 152 152 152
 175 176 176 174 174 173 172 172 170 172 173 176 171 152  88 133 152 148 133 112 100  90  85  71  66  74  70  60  49  37  34  31  32  36  38  37  34  39  48  56  70  85  92  88  90  87  84  81  82  81  73  61  48  39  33  32  36  38  37  32  29  29  30  35  41  52  60  60  59  66  73  78  92  99 104 106  99  99 125 115 118 127 148 151 151 153 152 153 152 151 153 152
 176 176 178 176 175 174 173 174 174 181 192 207 202 177  90 133 154 144 128 111  98  86  75  72  79  74  57  58  46  30  23  20  29  31  38  38  37  34  39  49  62  80  93  95  94  93  91  85  84  80  68  52  40  32  34  36  37  38  39  31  26  22  26  31  52  48  56  59  60  64  69  77  88  98 103 108  99  95  98 103 107 108 122 150 153 153 152 153 153 153 153 152
 176 176 180 177 175 174 174 174 172 157 159 162 175 178 129 138 154 139 122 105  97  84  74  74  63  54  81  84  44  28  17  16  26  32  44  37  32  39  41  43  55  75  92 101 100  97  90  89  86  80  64  48  35  39  35  31  33  44  39  32  17  15  20  32  52  74  54  51  60  62  69  75  85  97 104 109 100 105 103  99  97  97 101 148 154 154 154 154 154 154 153 153
 177 178 177 176 175 175 174 173 136 105  97 104 122 138 133 140 154 142 123 110  96  84  77  73  65  86  96  92  53  41  19  16  31  36  48  40  30  31  39  50  52  74  92 100 100  97  92  92  91  80  63  49  46  34  30  29  36  49  45  36  23  14  27  38  59  81  64  60  57  63  70  76  85  98 104 108 104 104  99  79  66  64  82 147 154 155 155 155 154 153 154 153
 179 180 179 178 175 175 173 162  99  75  75  76  86 112 122 139 153 143 125 111  96  83  81  81  85  78  95 102  81  38  36  33  36  45  45  36  32  33  39  52  60  80  95 106 102  98  94  97  97  84  64  55  49  39  32  31  35  45  50  43  35  33  38  49  76  80  76  76  66  69  72  78  91 101 105 109 104  97  86  69  60  57  88 149 157 155 157 156 154 155 154 154
 179 180 180 178 176 175 176 146  86  71  69  70  83  97 106 133 153 143 124 111 100  92  92  95  90  83  77  82  83  67  49  44  46  47  45  42  39  41  46  54  69  83  95 105 102 100  96  99 102  90  69  61  52  45  41  36  39  43  47  50  45  43  50  68  77  75  78  81  86  84  84  88  94 101 102 107 104  84  77  74  55  57 108 152 158 157 157 155 155 154 153 153
 180 180 181 178 176 176 176 143  85  65  62  70  93 100  99 132 151 143 128 116 107 103 103 107 100  87  78  74  71  65  63  54  51  49  46  43  42  43  53  69  81  87  99 105 101  99  98 103 107  99  80  65  56  47  42  38  38  42  44  46  50  54  60  67  71  68  73  90  96  95  92  94  98 101 103 107  99  84  89  92  56  63 124 154 156 156 158 157 156 156 156 155
 181 180 182 180 176 177 176 159  80  62  59  71 105 109  98 123 149 141 132 127 120 112 111 111 108  98  89  81  75  68  62  57  53  49  45  44  49  54  70  84  88  92 100 102 102  99  99 104 109 105  95  74  64  53  45  40  38  42  46  49  52  55  60  67  71  74  85  96 100  99  99  98 101 102 102 106  89  71  88  98  68  75 139 156 158 160 159 158 157 156 155 155
 181 181 182 178 179 178 177 173 109  69  58  82 110 100  75 110 147 143 141 141 134 121 116 114 110 104  95  86  80  76  66  59  52  49  49  51  61  72  84  88  91  95 102 104 104 101 100 103 107 108 102  89  74  66  53  45  41  44  47  51  57  62  67  72  75  81  90  99 102 102 101 100 101 100  99 104  85  62  74  91  77  96 152 159 160 160 159 160 158 158 157 156
 180 181 182 180 178 178 176 175 155  81  64  89 106  89  73  93 146 145 147 150 145 131 122 115 108 103  94  88  85  76  68  60  57  56  58  64  76  89  88  92  97 104 107 107 106 104 102 101 103 104 104  94  83  74  66  53  50  47  48  51  57  63  70  73  78  85  94 101 104 106 105 102 102 101 102 103  81  56  63  84  90 125 155 160 161 160 158 159 159 158 158 159
 181 181 181 180 179 179 179 177 173 117  74  88  97  76  68  86 143 145 149 152 150 138 127 117 109 104  98  89  84  81  74  69  67  65  68  78  89  94  94  97 102 106 107 106 107 110 105 102 100 100 101 100  89  82  76  67  60  54  53  56  60  65  70  76  84  89  97 102 105 105 106 103 104 103  99 104  67  49  58  80  92 148 157 160 160 161 160 160 161 159 158 157
 182 183 181 180 179 177 178 180 178 162  86  88  94  68  60  72 143 143 144 151 151 139 129 117 109 104  97  93  86  83  77  73  71  72  82  90  94  95  98 100 105 108 110 107 108 110 108 103  99  97  96  99  92  86  82  76  70  64  56  58  64  67  72  81  88  89  97 102 104 106 105 104 102 101  99 104  65  48  56  83 108 153 159 161 161 162 160 160 161 160 159 160
 181 182 181 181 179 179 178 178 179 176 122  87  94  68  58  61 130 141 141 147 142 136 123 113 106 102  97  92  87  82  74  75  79  86  92  94 100  97  99 102 105 111 114 111 112 114 108 105 101  98  96  97  94  88  86  82  80  74  68  66  65  72  78  81  88  91  94  97 102 102 102 100 101 100 100 103  65  51  70  90 129 157 161 162 162 161 161 161 161 160 160 161
 182 180 181 180 180 181 180 180 177 177 159  95  99  83  65  62 114 135 135 142 136 129 121 113 107  99  95  92  88  79  78  83  89  93  96  97 100 100 102 101 105 115 119 118 121 119 112 106  99  95  95  96  97  91  88  84  85  81  79  76  75  78  83  85  87  94  97  95  98  99  99 100 100 100  99 105  83  88  94  95 148 161 162 163 163 162 163 163 161 162 161 161
 184 183 182 181 180 180 182 180 179 180 176 127  96  99  91  92 117 135 131 130 123 122 115 109 103  96  96  93  88  81  88  90  94  95  98 100 100 100 101 104 109 120 123 122 122 120 114 106  97  95  95  97  96  93  88  88  89  87  88  88  88  84  86  88  90  92  93  92  95  95  98  98  98 100 101 104 101  90  88 116 157 163 162 163 162 163 164 162 161 163 162 161
 182 183 183 182 180 181 183 182 180 182 180 173 107  89  92 108 123 134 128 121 113 113 106 105 102  99  93  93  89  90  92  93  96  97  98  97  97  98  98 105 117 125 129 130 128 125 117 104  96  94  95  98  94  89  87  86  89  91  93  93  91  91  91  89  90  89  88  90  90  91  95  96  95  98 100 105 106  92 100 142 160 163 163 162 161 163 163 162 162 161 161 161
 182 182 182 182 181 182 183 183 181 182 182 178 156  99  96 115 125 130 124 116 108 104 101  99  98  94  91  91  92  93  94  95  95  95  95  94  95  93  98 109 125 130 136 136 134 126 115 109 106  97  96 100  92  85  84  85  88  91  96  98 100  98  95  93  90  87  87  86  87  89  92  92  94  98 102 103 109 110 120 156 162 162 163 162 162 162 162 162 161 162 161 161
 183 183 182 183 182 181 182 183 182 182 182 181 176 138 119 122 122 126 121 114 107 102  98  96  96  94  95  94  95  95  95  96  93  94  91  92  90  90 100 118 132 140 142 140 136 123 116 116 114 104 101 100  91  82  82  83  86  91  96  98  98 101  98  95  93  89  88  87  88  90  91  91  94  99 103 106 108 111 145 161 162 163 162 162 164 162 163 164 163 162 162 161
 183 183 182 182 181 182 183 182 181 183 181 181 180 172 128 120 121 123 122 113 109  99  98  97  98  97  98  95  97  95  96  97  95  92  90  87  84  89 110 133 142 147 142 137 128 120 113 113 112 109 103 101  97  83  77  81  86  89  93  98  98  97  95  93  93  88  87  88  90  90  91  92  93  99 102 104 107 123 157 162 164 164 163 163 163 162 163 163 162 161 163 162
 183 183 183 182 181 182 181 181 181 183 182 181 182 177 154 120 124 122 124 114 110 103 101 101  99  99  98  98  99  99  98  96  94  92  87  83  79  96 124 139 144 144 138 128 119 110 103 101 107 108 103 103  99  86  69  73  82  87  91  94  95  97  97  95  93  91  91  91  90  90  92  92  94 100  98  98 110 148 164 164 166 164 164 164 164 163 163 163 162 162 160 160
 182 184 183 183 182 183 182 182 183 183 182 181 180 180 176 140 120 114 119 115 111 105 103 101 100  99 100  98 100 100 101  98  92  88  84  82  75 102 128 137 139 133 125 114 102  98  97  97 102 104 103  99  97  88  70  70  76  84  88  91  92  93  94  92  92  93  91  91  90  93  91  91  94 101  90  95 138 162 163 164 165 165 165 163 162 163 163 163 163 162 163 161
 183 183 183 182 182 183 183 182 182 182 181 181 180 181 180 173 125 103 104 116 108 105 102 101 101  99 100 103 102 102 102  98  91  84  80  74  73 105 118 127 131 121 110  97  89  87  85  88  93  97  99  93  90  88  71  70  73  80  84  90  89  93  93  94  91  92  92  91  92  92  92  92  93  96  96 135 160 164 165 166 164 163 164 164 163 164 162 163 163 162 164 162
 183 183 181 184 182 183 183 182 183 182 182 180 182 182 180 178 173 129 110 115 110 106 105 101 102 101 101 103 105 103 102  95  92  86  78  73  72  92 102 107 114 107  96  85  78  75  77  83  87  90  90  87  86  85  72  70  73  79  85  89  91  93  94  91  91  94  93  94  94  94  93  93  96  98 145 161 164 165 164 164 165 163 163 163 164 164 163 163 163 162 162 161
 182 182 183 181 182 183 183 182 183 183 182 180 181 183 182 179 177 177 167 123 111 107 103 104 104 102 105 104 106 105 105  98  91  84  78  77  75  78  86  86  95  92  86  78  73  70  72  76  83  85  80  76  75  76  72  76  76  77  86  89  92  93  93  92  93  97  92  95  93  95  92  93  98 112 153 165 164 165 166 164 165 164 164 164 164 164 164 164 163 164 162 161
 183 182 182 181 181 181 181 182 184 183 181 182 182 182 182 181 180 181 172 132 113 108 105 105 104 105 106 108 111 108 107 100  89  81  76  77  79  77  73  67  73  84  79  73  70  68  70  70  75  72  60  60  70  75  77  81  82  80  86  90  91  95  98  96  96  94  92  94  92  93  93  93 100 130 159 166 166 165 165 166 165 165 165 165 164 164 165 164 163 163 162 162
 182 183 182 181 181 182 182 184 183 182 181 181 181 181 183 181 182 181 176 143 117 108 105 103 106 106 109 108 112 112 109  98  87  80  81  80  80  81  76  66  64  77  76  71  68  68  67  66  65  55  46  63  74  81  84  83  84  84  85  89  93  95  99  96  96  98  94  91  90  93  93  93  99 141 162 165 166 165 166 165 165 164 165 163 165 164 164 164 163 163 165 163
 182 182 182 180 179 181 181 181 181 182 180 181 182 182 182 181 183 180 179 166 121 108 105 106 105 108 112 115 115 117 110  98  87  84  83  83  83  79  76  67  64  67  70  70  67  63  62  58  52  47  53  75  81  83  83  86  88  89  88  89  95  98  98  99  98  99  97  91  90  91  92  94 107 149 162 166 167 166 165 166 164 165 163 163 164 163 163 163 163 163 163 163
 180 180 181 179 180 180 182 181 181 181 180 182 182 181 183 181 182 180 181 174 136 112 107 108 111 113 117 119 119 116 107  95  92  89  87  84  82  75  69  63  54  52  57  57  56  53  49  49  45  49  60  69  77  80  82  84  85  89  91  89  96 100 102 103 100  99  96  94  91  90  91  94 114 153 164 167 166 165 165 166 164 165 165 163 162 163 163 163 164 163 163 162
 180 181 180 178 179 180 179 181 180 180 181 180 180 181 181 182 181 178 181 175 142 111 107 108 113 116 121 122 123 115 103  97  96  89  83  81  79  67  64  56  49  48  49  52  50  51  50  49  50  53  51  58  63  75  76  78  81  85  91  90  93 101 102 103 101  99  98  94  92  90  88  93 123 159 165 166 165 166 166 165 165 164 165 163 164 164 164 162 163 163 163 163
 180 179 181 178 177 180 179 179 180 180 180 180 179 180 181 181 181 178 181 178 152 115 106 108 113 115 122 125 122 113 103  96  95  85  79  75  70  61  58  49  46  46  46  47  46  48  50  50  49  50  45  46  51  60  64  69  72  75  86  87  91  95 102 103 100  99  99  92  90  89  89  95 137 160 166 166 165 166 165 164 165 164 163 164 165 164 164 164 164 162 163 163
 179 179 179 180 180 180 179 177 180 179 178 179 180 182 182 182 179 179 181 179 166 122 109 110 114 120 126 124 121 111 100  87  83  74  71  67  58  53  51  47  42  43  44  44  42  44  48  50  47  43  42  42  45  55  59  62  60  61  69  76  89  93  99 103 101 100  98  94  90  87  88  99 154 163 166 166 166 166 164 164 164 165 164 164 164 164 163 163 163 163 162 162
 178 178 179 179 178 180 179 179 178 179 180 179 181 179 179 180 181 180 180 179 172 138 110 110 115 120 128 124 120 108  86  73  70  65  59  59  54  46  46  40  42  45  46  47  41  43  44  49  46  41  38  38  40  48  57  56  54  48  51  58  75  88  95 102 101 100  97  92  87  87  90 115 156 162 163 164 165 163 162 163 163 164 162 164 164 163 163 163 162 163 162 162
 176 177 178 178 178 177 178 178 175 178 178 179 178 180 180 178 181 180 179 180 179 143 109 108 114 119 124 122 114  91  70  62  62  54  50  55  49  43  40  41  44  44  46  44  42  41  44  48  47  45  41  40  39  46  54  51  48  43  40  44  56  72  88 100 100  98  95  90  81  86  87 109 141 129 122 117 116 111 118 121 128 132 144 153 160 160 159 162 162 163 161 161
 177 177 177 177 176 176 177 178 176 177 176 178 180 178 179 180 179 178 177 180 172 119 108 107 110 117 123 123 112  81  68  54  51  47  47  48  47  42  41  44  49  51  49  46  40  36  40  45  46  45  43  44  42  43  51  50  45  42  36  37  46  56  80  94  99  96  90  85  82  85  77  55  38  36  36  38  36  40  40  40  41  40  43  47  48  55  80 104 138 159 160 160
 176 176 176 176 175 176 175 176 176 175 177 176 177 178 178 178 178 176 177 168  96  67  99 100 103 114 120 121 109  82  59  49  48  43  50  53  53  52  49  49  55  56  53  47  41  36  41  44  48  49  47  48  46  44  54  54  48  46  43  41  51  60  83  96  98  94  85  80  83  85  66  36  25  21  22  21  21  22  21  23  25  24  24  24  26  29  35  38  42  52  90 135
 177 176 177 175 176 176 175 175 176 176 176 176 176 176 176 177 176 175 154  75  55  46  92 101 102 113 116 121 112  83  63  54  51  52  56  59  62  63  57  54  56  62  60  56  50  48  47  51  56  52  51  55  51  50  53  55  44  46  49  50  59  71  82  95  98  97  86  76  82  79  54  26  17  14  13  13  13  12  14  15  16  15  16  16  16  19  22  23  29  33  39  42
 176 176 175 174 175 175 175 175 176 174 174 177 176 176 176 174 174 144  61  48  40  38  83  92 104 107 112 111  96  80  69  63  55  50  40  43  48  49  51  52  52  57  56  57  57  54  52  51  50  47  43  43  39  36  35  30  34  40  43  48  54  64  74  86  96  96  89  78  76  69  39  16  10  10   9   9  10  10  10  10  12  11  11  11  11  13  15  16  19  24  26  30
 175 174 174 175 174 175 175 175 175 174 174 175 175 174 173 171 139  64  46  34  27  29  63  87  94  95 106 106  96  80  66  56  47  40  41  36  35  38  42  39  37  38  42  42  46  45  43  38  35  31  30  32  38  41  42  42  51  54  51  52  55  62  74  83  92  88  80  76  74  61  26  11   8   7   9   9   8   8   9   9   9   9   9   9  10  10  10  11  14  16  17  20
 176 174 173 175 174 175 174 173 173 173 173 173 173 172 139  94  58  44  31  21  15  18  63  79  89  90  99 100  94  74  61  52  50  50  61  61  52  55  57  54  50  44  40  35  32  31  31  31  32  37  43  47  50  51  53  60  65  67  64  59  60  62  73  80  86  83  70  69  64  49  23  14  11   9   8   9   8   8   9   8   8   8   9   9   9   9   9   9  12  12  10  16
 175 173 175 174 172 174 173 174 171 173 173 172 154  98  72  55  41  31  21  14  14  28  65  78  85  87  93  95  88  75  63  60  58  61  71  75  75  69  64  61  59  58  52  51  49  46  45  46  47  48  52  55  58  65  68  69  73  72  72  65  63  65  63  78  81  72  63  61  58  40  18  14  12  11   9   8   7   8   7   7   6   8   9   9   8   8   9   9   8   9   9  12
 174 173 174 172 173 174 172 173 170 171 169 129  73  65  55  41  31  23  15  12  21  39  60  74  76  82  90  92  89  79  70  63  67  70  75  74  77  77  76  68  64  63  58  56  55  54  53  53  53  54  57  61  69  74  76  75  79  79  75  71  63  60  57  69  75  66  59  56  49  40  16  11  10  12  12  11  12  10   9   7   7   8   8   8   7   7   8   8   9   8   9  10
 172 172 172 172 171 172 170 163 144 132 110  62  59  51  39  31  22  16  12  13  32  36  59  68  68  71  87  87  85  73  69  64  70  72  76  74  79  82  81  76  70  67  63  59  59  60  57  58  57  61  64  66  71  77  78  78  82  75  74  69  62  57  55  57  69  56  46  46  46  52  24  12  10  11  12  11  13  14  14  14  13  11  10  10   8   7   7   9   8   7   8   9
 169 171 157 123  97  81  58  53  43  52  57  54  51  40  31  22  15  12  11  28  35  34  56  71  54  58  71  80  83  69  62  60  62  72  76  78  80  82  83  77  73  71  67  63  64  63  64  60  64  65  68  68  73  78  80  77  78  74  71  64  57  50  46  45  51  47  45  39  52  69  55  22  12  10  10  12  12  11  13  14  14  14  14  14  14  12  10   9   8   8   7   9
 131  75  48  44  37  34  38  39  42  51  49  50  41  33  24  16  12  10  20  33  32  30  54  81  58  50  61  75  80  66  57  59  60  62  73  77  80  81  81  79  70  69  68  61  59  61  57  55  56  59  68  70  73  74  75  77  72  69  68  57  50  45  42  37  40  41  37  35  53  76  79  39  19  13  10  11  13  12  10  12  13  13  14  14  16  16  15  15  13  11   9   8
  56  47  41  37  30  27  29  28  42  48  48  42  35  26  16  14   9  13  30  33  28  25  39  95  65  45  53  68  72  68  56  53  52  55  65  74  78  78  74  73  67  62  57  50  49  51  45  48  50  51  63  68  68  69  70  69  67  62  56  49  42  38  33  31  35  38  33  34  56  81  83  52  27  16  12  10  12  13  10  10  11  13  13  13  15  15  15  14  14  15  13  11
  43  39  37  33  26  26  28  25  46  47  45  37  27  17  12   9  10  24  32  30  24  20  33 103  80  43  41  57  70  66  49  50  50  48  55  69  75  73  71  67  64  58  53  46  41  40  37  38  43  46  55  63  61  65  65  64  59  50  45  42  39  33  29  25  29  34  26  34  62  85  86  62  34  21  14  11  11  12  11  10  10  11  11  11  10  12  12  12  14  15  13  13
  42  37  34  28  23  23  30  37  44  44  37  30  20  13  10   8  16  30  30  26  19  16  22 106  83  60  37  44  59  58  46  48  48  49  51  60  65  67  68  62  58  55  50  44  38  37  33  34  41  44  51  54  60  63  62  62  53  43  41  40  37  35  28  26  31  27  24  47  70  83  86  65  39  24  17  14  11  11  10  10  10  11  10  11  11  10  11  12  13  15  15  12
  42  36  31  26  21  23  28  40  47  39  31  22  14  11   8  10  24  32  27  22  17  13  18 105  88  69  40  38  50  52  46  44  49  51  49  53  61  63  67  65  59  57  50  44  40  36  34  35  42  46  52  62  62  64  63  61  50  39  35  33  31  29  27  25  28  26  28  72  82  87  86  68  41  26  18  15  12  12  10  10   9  10  11  10  10  10  11  11  12  13  13  13
  40  31  29  24  19  22  31  41  41  34  25  17  10   8   8  16  28  29  25  18  13  16  19 107  98  81  43  40  39  50  45  41  44  42  45  49  52  59  64  65  64  60  54  50  45  38  40  41  47  52  57  64  68  69  65  57  47  37  29  28  29  28  27  24  24  29  60  82  86  88  85  70  42  29  20  16  14  11  12  10   9  12  12  10  10   9  11  10  12  13  12  12
  37  32  28  21  17  23  33  41  34  26  19  12   8   7  10  22  29  26  23  16  11  11  20 104  97  86  58  38  36  34  37  39  39  37  43  46  49  54  58  61  64  60  59  57  50  43  48  49  53  60  63  67  70  67  57  50  43  32  27  27  27  26  25  23  22  37  65  86  87  86  83  68  41  29  21  16  14  11  10   9   9  10  10  10   9   8  10  11  11  11  12  11
  33  28  23  20  20  25  39  38  33  26  18  10   8   8  13  26  27  21  18  12  10  11  22 105  97  91  75  41  33  30  34  37  37  36  41  41  40  49  54  53  60  62  63  62  52  51  52  57  59  61  64  68  68  64  49  44  40  34  28  26  26  25  22  19  23  44  77  87  86  85  81  68  40  29  22  17  14  11  10   9   9  12  10  10   9   8   9   9  11  11  11  10
  29  27  25  21  24  29  40  32  24  17  11   8   5   8  18  28  24  17  12  10   8  12  20 102  94  92  84  50  30  25  28  34  33  34  36  34  39  49  47  49  52  62  61  58  52  54  56  60  60  58  56  60  64  60  51  40  34  31  28  24  24  22  20  19  18  57  81  86  87  84  79  66  38  30  22  18  14   9  10  10   9  11  11  10  10   8   8   9   9  10  10  10
  28  26  25  23  23  31  36  29  18  13  10   6   4  12  23  26  21  15  12   9   9  12  21  98  95  92  84  70  31  24  26  29  29  31  33  33  41  44  42  49  53  58  63  55  52  51  57  59  57  55  53  54  58  59  50  39  28  30  26  24  21  22  20  22  45  78  83  86  85  82  81  64  38  30  21  18  14   9   9   9   9  11  11  10   9   8   8   8   9   9   9   8
  27  22  22  24  24  33  32  23  14  10   7   5   6  15  25  24  18  14  13  11   9  12  21  99  93  90  88  78  44  26  24  24  26  30  29  34  41  39  43  46  51  52  55  52  48  50  54  52  52  50  51  53  55  52  48  38  26  26  22  22  22  19  17  30  68  78  84  85  85  83  78  63  37  28  22  18  13  10   9   9   9  10  11  10   8   8   9   9  10   9   8   8
  24  22  20  22  25  37  30  24  16  12   6   5   9  19  26  20  14  14  16   9   7  12  22  95  93  88  86  79  65  35  22  22  23  25  25  31  35  35  39  42  46  47  50  48  44  44  48  52  49  47  48  50  49  47  42  31  25  24  21  20  17  17  20  52  72  78  84  84  86  83  76  62  37  28  22  17  13  12  10   9   9   9  10   9   8   8   8   9  10   8   8   7
  25  21  20  20  28  31  24  16  14  10   6   4   9  20  24  19  18  15  11   7   7  12  24  74  89  89  83  81  73  46  27  19  20  23  24  27  31  33  33  37  38  44  43  41  38  42  49  48  49  46  46  44  44  41  32  28  25  23  19  18  16  16  39  67  77  80  83  83  84  82  74  60  35  28  20  16  12  11   9   8   9   8   9   8   6   6   9   9  10   9   8   7
  26  23  22  19  27  30  24  17  12   9   6   5  12  22  22  17  17  14  10   8   8  12  22  57  84  84  82  79  78  64  43  20  18  21  22  24  28  29  31  33  34  38  38  37  35  38  44  42  43  40  36  37  34  32  28  24  20  20  19  20  18  28  58  71  78  80  81  82  84  82  73  55  33  26  20  16  12  10   9   8   9  10   8   8   7   8   8   9  10   8   9   7
  25  23  19  21  29  31  24  14  11   7   4   5  15  20  18  18  16  12  10   8   8  12  20  30  82  79  80  78  76  73  64  37  21  19  19  21  23  21  26  26  26  30  32  32  34  33  37  36  36  30  30  29  26  24  24  20  17  17  16  17  23  49  62  76  77  79  79  82  83  79  71  54  32  25  20  15  11  10   9   9  10   9   8   8   6   7   8  10  10   8   9   9
  23  21  21  22  31  28  21  15  11   5   3   5  17  19  16  17  14  12  10   9   6  11  15  21  54  74  73  74  74  72  65  53  39  24  18  19  18  16  22  22  21  22  23  26  28  27  30  32  31  25  26  29  20  19  19  16  15  19  18  26  46  61  63  68  73  76  78  80  82  76  70  50  32  24  19  13  11   9   9   9  10   9   9   8   5   6   7  10  10   8   8   7
  21  21  19  25  31  25  20  15  11   6   4   7  17  15  15  13  13  12  11   9   8  10  13  16  28  67  71  70  72  72  70  60  54  42  25  20  17  15  17  16  14  15  16  17  19  19  24  24  23  19  20  23  18  16  16  16  18  28  45  52  64  68  68  68  71  75  77  79  79  72  63  44  30  22  18  12  10   9   8   8  10   9   8   7   6   5   7   9   9   8   8   6
  23  21  21  25  28  26  19  11   8   5   4   8  15  14  15  13  12  12  10  12   8  11  12  12  19  39  69  69  72  71  70  68  64  56  46  38  27  21  19  16  15  14  16  15  16  17  18  20  21  17  18  18  18  18  21  33  36  48  56  61  66  68  71  67  68  73  78  76  74  68  60  38  28  22  16  11   9   9   8  10  11   8   8   9   7   7   8  10   8   6   6   7
  22  21  20  24  27  23  16  13   8   5   5   8  10  11  12  11  12  11  11  13   8  10  12  11  12  18  50  67  68  69  69  68  68  63  55  50  46  42  37  26  21  17  21  21  18  17  18  21  24  29  26  22  20  22  34  48  56  58  61  65  66  65  66  66  68  71  73  72  68  62  52  33  25  19  13   9   9   9   8  10  10   8   8   7   7   7   7   9   9   7   6   7
