P2
# Generated by OpenCV 3.4.0
92 112
255
 228 227 229 229 230 232 230 227 224 224 224 225 224 221 215 207 197 185 172 167 165 164 159 105  80  65  46  53  54  51  46  45  48  44  41  37  36  34  35  33  33  31  31  30  28  28  24  23  26  28  35  32  29  29  27  27  29  33  34  38  37  35  37  43  48  89 143 155 159 160 160 159 159 157 158 158 156 154 156 155 155 154 156 154 155 154 153 153 154 154 153 152
 228 228 231 228 224 232 232 228 226 224 226 225 225 226 217 210 196 186 173 169 166 164 137  68  69  50  56  69  67  60  51  48  51  44  40  40  36  34  32  34  34  33  32  31  30  27  22  20  25  29  34  37  30  25  24  27  29  28  28  32  30  30  30  35  47  48  95 152 158 160 160 160 158 158 159 159 158 156 159 157 158 156 156 155 154 154 154 153 153 153 153 152
 217 218 220 217 221 223 221 219 216 214 218 220 216 212 209 198 191 183 175 169 165 158  97  61  57  58  70  66  60  51  39  41  45  44  44  38  32  31  33  33  35  34  32  31  33  33  31  29  28  30  31  34  33  31  25  24  26  25  25  25  24  26  28  35  46  44  62 143 157 159 159 160 159 158 158 159 158 157 157 158 157 157 157 155 155 155 155 154 153 153 153 152
 202 200 202 205 201 203 203 201 201 200 200 198 195 191 192 188 183 176 172 169 166 137  70  61  68  68  67  63  55  48  40  36  37  41  41  40  37  35  34  40  41  38  38  37  40  40  39  37  34  33  30  27  27  27  28  27  25  25  22  25  23  23  25  33  42  42  51 108 155 159 160 160 160 158 159 159 159 156 157 158 157 157 158 156 156 155 154 154 155 155 152 152
 191 193 195 193 192 193 191 190 189 193 190 190 188 187 183 181 177 173 170 168 166  97  61  67  70  69  66  64  58  49  44  42  42  39  39  42  42  42  41  38  36  36  36  38  42  41  37  36  32  31  28  26  23  22  21  26  27  28  25  24  21  20  22  28  37  40  43  58 145 155 158 160 160 160 159 159 158 157 157 158 157 158 157 156 157 155 154 154 154 153 154 154
 183 184 182 184 185 183 184 184 183 184 184 182 181 179 178 175 174 172 169 168 147  62  62  68  69  66  58  51  49  47  44  42  44  42  43  43  43  43  44  43  41  38  36  35  36  37  37  35  31  26  24  24  23  22  20  20  22  25  26  25  25  22  21  27  34  32  31  42  78 138 155 158 159 160 159 160 158 157 158 157 158 159 156 156 155 156 154 154 154 154 154 154
 176 178 179 178 179 180 182 181 179 179 177 178 176 173 173 172 173 172 169 167 102  64  63  59  57  51  44  43  44  49  46  44  44  44  43  44  42  38  37  33  32  34  33  35  34  33  30  28  27  25  24  21  19  20  22  20  20  19  20  22  21  23  24  28  29  30  32  35  45  90 150 156 157 159 160 160 160 159 158 159 158 158 159 158 158 156 156 154 155 155 154 155
 173 174 175 174 177 178 178 177 177 176 175 173 174 172 172 172 171 171 170 158  69  61  51  47  47  43  45  50  53  53  49  46  44  43  40  38  39  40  38  35  31  30  31  32  33  32  30  28  27  24  24  21  18  18  18  19  19  20  19  19  19  19  18  20  23  27  30  34  40  56 139 152 158 158 159 160 160 159 158 158 157 158 158 157 157 157 157 156 155 155 154 155
 173 173 173 172 174 173 173 173 175 174 173 174 172 171 170 171 170 169 166 125  68  51  43  43  42  41  45  46  48  46  46  46  41  36  35  37  34  37  36  36  36  32  32  31  31  30  29  26  25  24  23  20  16  16  15  17  16  19  19  19  17  16  16  18  19  22  28  31  37  45  97 147 157 161 160 159 160 157 159 160 159 157 158 156 158 158 156 157 157 155 155 155
 172 172 172 171 171 171 172 172 172 173 173 170 170 169 168 170 171 168 166 111  66  41  39  34  37  35  41  46  48  46  44  39  38  35  34  41  43  38  34  35  33  30  29  27  27  27  26  24  22  22  22  19  17  16  15  15  15  16  18  18  16  15  15  17  17  21  27  29  33  37  56 137 154 157 160 160 160 160 158 160 159 158 156 156 158 158 157 158 157 157 156 155
 171 171 171 171 171 171 171 171 172 172 171 168 168 167 169 169 169 167 143  78  54  38  32  35  37  35  39  45  42  41  43  43  44  42  43  42  41  38  35  34  32  30  28  26  25  24  24  22  21  20  19  18  17  16  16  15  16  16  16  17  16  15  15  16  18  20  24  26  31  33  38 120 147 156 160 160 160 160 158 160 157 160 158 155 158 158 157 158 157 158 157 155
 169 170 168 169 170 171 171 171 171 170 169 169 168 167 168 166 167 153  85  69  42  33  33  39  41  44  44  41  33  33  36  39  40  34  32  31  32  34  38  37  33  31  28  25  25  23  21  20  20  18  17  16  17  16  16  15  14  17  16  16  16  16  15  16  16  17  21  24  27  31  38  51 119 157 158 160 161 160 159 160 158 158 160 156 158 158 158 157 158 157 157 157
 168 167 167 168 168 170 171 169 170 169 168 168 168 167 167 166 163  94  65  55  35  36  32  35  37  42  46  43  40  39  40  39  34  31  31  31  32  31  32  31  30  28  27  25  23  20  25  24  24  21  18  16  16  17  16  16  16  16  17  17  16  16  16  16  15  16  19  21  23  27  32  35  52 134 156 161 160 160 160 159 160 160 160 156 157 157 159 159 160 158 158 157
 167 167 166 167 167 169 169 168 168 168 168 168 167 167 166 165 126  68  60  43  41  35  32  35  41  49  50  47  42  41  37  31  32  34  35  35  27  24  26  28  27  29  27  27  24  22  20  19  20  18  19  18  15  14  16  15  16  18  17  16  17  18  16  17  16  16  18  18  21  25  27  29  37  98 146 158 160 159 158 160 160 158 161 158 158 160 159 157 159 157 159 158
 167 165 167 167 167 168 167 167 167 168 167 167 168 168 167 148  78  64  52  43  38  39  40  44  43  38  36  38  40  43  42  38  38  36  33  29  24  24  22  19  21  26  28  31  30  28  24  22  18  16  17  17  16  15  15  16  16  17  17  16  17  17  16  18  17  19  18  17  20  25  26  27  31  61 137 156 158 158 161 160 161 160 160 158 160 159 157 158 159 159 159 158
 166 165 165 166 168 168 167 167 168 168 168 168 169 168 165 107  64  54  45  35  36  39  37  36  31  33  34  34  37  36  35  33  32  30  29  29  30  30  27  24  20  21  22  24  26  27  26  26  24  19  16  15  16  16  15  15  17  17  16  16  16  16  16  17  17  17  17  20  17  23  24  28  28  43 132 157 158 160 159 160 160 160 160 158 158 160 159 159 160 158 158 158
 166 165 165 165 169 168 167 167 166 168 169 169 169 168 158  70  56  47  35  34  34  34  32  29  29  32  35  36  38  36  34  33  32  30  30  35  35  33  31  27  27  24  19  17  18  21  21  22  23  22  22  17  16  16  16  15  15  16  16  15  15  16  15  16  16  17  16  18  17  20  24  30  27  40  94 154 160 160 160 161 161 160 160 157 158 160 160 159 159 158 158 156
 164 166 165 167 168 167 168 167 168 169 168 169 168 167 125  55  51  41  31  32  32  31  28  25  26  32  40  36  37  39  37  35  31  31  33  34  35  34  37  38  30  24  23  22  21  21  21  19  18  18  17  18  17  16  16  17  16  16  16  15  17  15  14  16  16  16  18  19  18  22  25  27  28  38  57 136 157 161 160 160 161 161 160 159 158 159 160 160 160 159 158 159
 164 167 167 167 169 168 167 168 169 170 169 170 168 165  76  52  46  35  31  30  31  28  24  25  29  34  38  37  35  30  26  24  27  30  31  31  35  40  38  33  31  28  27  26  25  24  20  16  16  15  16  16  15  16  16  16  16  16  15  15  17  16  16  16  15  14  16  17  17  20  24  25  28  34  46  95 153 160 160 157 161 160 159 157 158 159 160 160 160 160 159 160
 165 167 167 168 169 168 167 168 169 169 168 168 166 150  56  46  40  34  30  31  30  26  26  30  35  34  33  30  29  25  22  23  27  29  33  39  39  34  32  32  30  28  27  25  23  23  18  17  16  16  16  16  16  16  16  16  16  16  16  16  16  15  16  16  16  15  16  18  19  20  21  24  25  31  42  69 151 157 160 160 159 159 158 160 159 159 160 159 161 160 159 158
 167 167 169 168 167 168 168 169 169 169 169 168 166 115  57  39  38  32  29  29  28  28  29  30  29  29  30  31  29  26  27  27  29  33  37  34  30  27  27  26  25  23  22  23  23  21  18  18  17  17  18  18  18  17  17  17  17  17  17  17  16  16  15  16  17  16  16  18  22  18  18  23  26  28  37  55 122 155 160 160 161 160 160 160 160 160 160 161 160 160 159 158
 168 167 168 167 166 168 169 169 169 169 169 167 163  80  52  35  37  33  30  29  29  33  33  29  29  30  32  32  32  32  31  27  30  36  33  29  28  27  26  25  24  24  25  27  24  24  21  23  23  22  23  24  23  24  21  20  21  20  18  18  18  17  17  16  16  19  20  17  20  20  21  25  29  27  35  50 118 154 159 160 159 160 159 159 160 161 161 160 160 160 159 159
 167 167 167 167 167 167 168 168 168 168 167 165 147  55  45  32  37  33  32  32  35  36  30  28  31  35  36  36  39  37  35  35  39  35  32  31  29  28  30  29  29  29  30  29  27  27  26  26  27  27  28  26  26  26  25  24  24  24  23  22  22  21  20  19  20  22  20  20  21  20  24  24  28  27  32  43  94 155 160 160 159 160 160 159 161 160 160 160 160 160 159 160
 166 166 167 167 167 168 168 169 167 168 167 166 106  48  38  36  39  38  37  39  45  38  31  33  35  36  38  39  39  41  40  37  37  35  36  34  34  34  34  35  34  34  34  32  32  31  30  30  30  30  29  29  30  30  29  28  29  27  27  26  26  25  25  23  24  24  24  23  22  21  25  26  30  27  30  38  66 150 159 160 160 161 161 160 160 160 159 160 160 159 160 158
 165 166 167 166 166 166 167 167 167 168 168 163  70  44  42  38  43  47  47  54  57  40  33  38  37  37  40  39  41  40  40  40  41  40  40  40  40  40  40  39  40  39  39  37  36  37  36  36  34  34  34  33  34  35  33  31  32  30  29  29  31  29  29  29  27  28  28  29  23  22  24  27  30  30  29  35  44 137 155 158 160 159 159 159 161 160 161 160 160 160 160 160
 165 166 168 168 167 166 166 167 166 168 166 157  57  45  45  47  56  57  64  70  74  41  39  49  46  43  46  49  51  50  49  48  47  46  46  46  46  46  45  46  45  44  41  42  42  41  40  41  39  38  40  39  38  38  37  36  36  35  35  34  34  32  30  32  32  34  32  30  25  26  26  29  27  30  30  33  43 105 154 157 157 157 159 159 160 160 161 160 160 160 160 160
 165 166 167 167 167 167 167 167 167 167 167 157  51  46  47  50  54  65  79  89  89  43  55  58  49  47  53  56  57  55  54  54  53  53  50  51  51  50  50  49  48  48  48  46  46  45  45  44  42  43  44  44  42  43  41  41  41  41  40  38  36  37  38  41  40  38  35  32  27  26  25  26  25  30  29  31  40  73 153 160 159 158 160 159 161 160 161 159 161 160 160 159
 166 166 167 166 166 167 167 166 167 168 167 153  47  47  48  49  54  72  94 105 108  59  68  57  55  59  64  66  64  64  63  63  63  61  58  59  57  56  53  53  52  53  54  52  51  51  49  48  47  46  48  48  48  48  47  46  45  45  45  43  43  44  44  42  41  40  40  36  30  28  28  24  24  27  28  30  39  59 145 159 160 160 161 159 160 160 161 160 161 160 161 159
 167 167 167 166 166 168 168 168 168 168 167 154  44  44  44  46  61  81 103 114 112  85  78  72  73  76  77  78  74  73  70  71  71  69  67  67  64  60  59  57  58  59  58  57  56  55  53  52  51  51  51  50  50  50  50  50  48  48  48  48  47  46  46  46  45  45  43  40  32  28  29  25  25  27  30  29  35  57 145 156 156 158 158 159 158 158 158 160 160 158 159 158
 166 168 167 167 166 166 168 168 168 169 167 147  45  44  40  51  62  85 108 121 117 105  96  88  87  90  88  85  85  87  85  80  79  78  74  71  69  66  64  63  64  63  63  62  62  61  58  56  56  56  52  52  52  53  54  53  52  52  51  52  50  48  48  49  48  47  46  42  36  30  28  27  24  27  28  29  35  65 148 156 160 159 160 160 160 159 160 160 160 159 157 158
 166 168 168 168 167 167 166 168 169 168 168 130  48  42  41  54  65  86 107 123 124 117 110  99  96  97  94  93  94  92  91  87  85  80  79  74  73  70  70  69  68  69  68  67  65  63  62  62  60  61  60  58  56  57  57  56  53  54  54  53  52  52  50  50  49  48  48  44  42  36  30  26  24  26  26  27  32  59 151 159 159 159 160 160 161 160 160 160 160 160 159 160
 167 170 168 169 169 169 170 168 169 168 168 131  46  41  47  56  67  84 112 123 123 121 114 105 103 100 101  99  97  96  95  91  88  85  84  78  77  75  73  72  73  72  71  70  69  66  66  64  64  64  61  62  60  61  59  57  58  58  54  53  52  51  51  51  50  50  49  48  43  37  31  27  23  25  26  28  30  47 145 156 159 160 160 159 160 160 160 160 160 159 158 160
 169 169 169 170 171 171 172 172 172 171 170 128  42  45  48  52  64  85 113 123 124 121 119 113 110 106 104 103 102 102  98  95  93  89  86  84  80  78  77  77  77  76  75  73  72  70  69  68  66  66  65  67  65  62  62  60  60  60  57  54  55  54  52  51  52  52  51  50  45  43  35  29  24  25  26  27  30  42 135 156 160 159 160 158 160 160 160 158 158 158 159 160
 173 171 172 171 174 176 174 175 175 173 172 114  42  44  45  50  64  86 113 121 123 120 119 117 116 114 110 109 107 107 104 100  97  92  90  88  85  81  81  79  80  82  81  76  74  72  71  70  68  68  68  68  67  65  63  61  60  59  58  58  58  56  55  56  53  53  53  51  47  46  39  28  24  25  25  26  28  43 139 156 160 160 161 160 160 160 160 160 159 158 158 159
 175 174 176 175 177 178 179 180 180 179 176 105  43  44  43  49  61  85 107 121 122 122 121 121 118 117 115 113 113 110 107 105 100  93  93  91  87  86  86  83  80  82  79  77  74  73  74  72  70  68  68  68  66  63  63  63  63  61  60  60  59  58  58  57  56  55  55  54  51  50  45  30  24  23  24  26  29  48 143 156 160 160 159 160 161 160 161 160 160 160 158 157
 181 182 181 183 184 186 186 187 189 189 185 104  45  41  40  47  60  84 109 120 122 121 121 121 120 120 118 114 113 110 108 107 102  97  94  93  91  87  85  85  82  82  79  76  75  74  73  72  71  70  69  70  68  67  64  64  65  61  62  62  61  60  59  58  59  59  57  56  55  54  48  32  25  24  24  26  30  56 146 157 160 160 160 160 160 159 160 160 159 159 157 158
 192 190 192 193 194 196 194 195 198 197 191 108  46  37  38  44  58  87 111 120 123 123 122 124 122 123 122 117 115 111 109 106 102  99  94  91  90  87  85  84  83  79  80  76  76  75  73  71  71  71  71  71  69  67  67  64  64  63  62  62  62  62  61  61  61  61  59  59  57  56  51  36  27  23  24  27  30  53 148 158 160 161 160 160 160 161 160 159 160 159 159 158
 195 196 195 197 196 196 197 198 200 200 193 114  47  40  37  42  60  90 111 119 124 126 126 126 123 124 123 121 118 113 109 106 102  99  97  93  90  87  87  85  83  79  75  75  75  76  73  72  72  72  72  71  69  68  66  64  64  63  61  62  61  61  60  63  62  61  61  58  58  58  53  40  28  23  24  26  30  69 147 156 160 161 160 160 160 160 160 160 160 159 158 158
 190 190 192 190 189 190 192 193 193 192 186 114  46  39  36  41  60  92 114 121 125 127 127 126 124 122 122 119 115 113 107 104  98  96  95  94  91  88  86  83  81  78  73  72  74  73  70  70  71  72  72  72  69  68  64  62  62  62  62  64  62  62  63  63  63  62  62  62  60  59  55  44  27  23  23  26  32  85 148 156 160 160 161 160 160 160 159 160 160 157 156 157
 183 183 181 181 182 182 183 184 184 183 181 118  44  36  36  39  61  97 115 121 126 128 127 127 125 122 118 117 113 109 105  99  97  94  94  93  90  87  85  83  83  77  74  71  73  71  70  70  74  74  72  71  67  65  62  61  62  61  61  62  61  61  61  62  62  62  63  63  63  61  57  46  28  24  23  26  32  89 153 159 159 161 160 160 161 160 159 160 161 159 158 157
 174 175 176 176 175 178 178 178 177 176 172 124  42  37  36  36  65 101 116 122 127 129 130 127 124 120 116 113 110 105 101  98  95  93  92  91  87  86  84  83  83  77  74  71  71  69  68  69  73  72  70  68  66  62  61  60  60  59  59  61  60  61  61  62  62  64  63  62  63  62  59  49  28  23  23  28  29 106 155 160 160 161 161 161 161 159 161 161 160 159 157 157
 172 172 172 172 174 173 173 174 174 173 170 136  43  37  33  34  68 106 118 123 127 129 129 124 120 114 111 107 103  97  96  94  92  90  89  87  86  82  80  82  81  77  71  71  71  68  67  68  71  71  68  65  62  61  60  58  59  58  58  58  59  58  61  62  62  63  64  62  59  61  58  51  30  24  24  28  30 127 157 162 161 163 162 161 159 160 161 160 160 159 158 160
 170 170 169 170 172 172 173 173 171 172 168 132  40  36  29  32  73 109 118 125 128 125 120 110 102  92  84  79  76  80  78  78  79  80  81  82  81  79  78  78  76  74  70  70  70  67  65  64  70  70  68  62  58  58  57  55  55  53  51  50  48  51  56  55  54  57  61  60  59  60  59  54  32  23  24  26  30 133 156 161 162 161 161 159 160 160 159 160 159 159 159 158
 167 167 167 169 170 172 172 170 171 171 169 134  37  36  28  31  78 111 121 126 123 105  85  77  72  61  53  46  43  43  43  45  50  54  64  69  71  72  70  72  70  69  67  70  67  66  63  62  70  68  63  58  54  55  53  51  48  45  41  35  33  33  33  33  34  37  44  46  46  55  61  57  33  22  23  26  33 137 158 161 161 161 160 161 161 161 161 160 158 160 159 159
 166 168 168 169 168 171 172 171 170 168 168 130  35  37  27  29  78 114 124 121 103  72  56  55  50  41  36  33  30  28  28  31  31  35  40  49  52  55  57  64  65  66  66  66  64  62  62  64  69  68  59  53  50  49  46  44  36  34  30  27  25  24  23  24  24  24  26  28  28  37  54  57  36  19  22  28  43 140 157 161 162 162 161 161 161 161 160 159 160 160 159 157
 167 169 169 170 169 169 170 171 170 169 166 121  36  35  28  29  85 116 114  90  72  51  49  46  44  36  33  30  30  29  27  27  26  26  30  35  38  42  44  52  54  63  65  66  65  63  62  62  68  63  51  45  40  37  34  33  28  26  25  23  22  21  19  19  18  19  19  18  19  19  19  22  22  19  20  26  37 141 157 159 159 161 162 162 161 161 159 159 159 160 159 158
 168 169 167 168 169 169 169 169 168 167 161 100  39  35  34  40  74  69  48  40  34  31  33  42  44  45  42  41  39  37  34  29  25  24  24  25  27  30  34  39  49  56  62  62  64  64  61  63  64  55  46  38  32  30  25  23  20  20  21  24  26  27  28  30  28  29  29  30  31  31  30  29  27  20  17  17  20  24  43  64 153 161 162 161 161 161 158 158 160 158 158 158
 167 168 169 167 168 168 168 168 167 165 153  80  59  50  45  40  35  33  38  51  62  72  78  79  75  70  64  59  54  52  47  45  44  42  36  31  28  22  21  23  30  41  54  62  64  63  56  58  55  45  36  29  25  21  20  23  27  31  32  32  32  34  35  36  36  35  35  36  34  30  32  33  30  22  26  18  18  19  30  24 135 160 161 161 162 161 160 161 159 157 158 157
 167 166 167 166 167 168 168 169 165 164 134  54  88  39  35  33  28  65  74  73  76  77  80  80  75  70  65  61  57  52  49  45  43  38  39  38  38  36  33  24  19  18  20  28  30  30  26  27  23  20  20  18  19  24  28  30  31  32  33  33  35  37  39  42  42  43  44  40  38  34  34  37  38  20  24  25  17  18  21  58 147 160 161 160 161 160 161 160 159 157 158 158
 167 166 166 167 167 168 166 165 165 166 136  39  38  33  31  32  72 106  82  79  75  74  69  64  60  61  56  51  49  46  43  41  40  38  37  36  37  38  40  41  27  18  18  19  20  18  16  16  16  16  18  19  28  29  30  30  31  30  30  32  33  35  37  37  39  41  41  39  37  36  38  42  45  20  20  21  23  14 132 155 159 161 159 162 161 160 160 159 158 157 157 156
 166 167 167 166 167 167 166 167 166 151 124  60  66  34  30  41  73  96  86  79  72  63  54  47  42  37  32  29  28  25  26  28  28  30  32  33  35  36  38  42  46  21  18  19  20  21  20  17  16  16  17  26  29  29  29  28  28  27  27  24  23  23  22  23  25  27  31  33  34  37  40  43  52  23  22  50  37  19 107 155 158 161 161 161 160 158 160 156 157 158 156 156
 166 166 167 167 168 167 168 167 166 109  99  74 100  42  31  49  85  95  83  76  66  50  38  32  27  28  29  24  20  19  19  21  28  28  30  30  31  32  36  42  49  31  18  20  30  40  42  34  22  17  19  28  28  26  26  25  26  24  21  17  14  15  15  15  20  19  19  22  27  34  40  44  55  33  31  47  42  23  56 130 158 162 162 159 159 158 159 157 157 157 156 156
 165 165 168 167 167 169 169 167 158  81  62  70  84  46  34  51  98  97  82  73  56  37  31  26  31  44  36  51  31  25  20  23  32  38  31  29  33  34  38  44  53  37  19  26  51  81  80  63  37  20  20  28  26  26  26  26  26  30  25  20  20  17  16  16  23  28  21  17  20  26  34  43  52  43  35  45  41  22  41  94 155 160 160 161 158 157 158 158 157 154 157 155
 165 167 168 168 167 168 168 166 157  71  55  55  70  50  38  56 106 102  88  71  49  34  29  31  46  54  40  29  28  37  26  27  35  47  38  32  31  39  46  48  55  33  20  36  91 103  95  81  59  26  18  29  28  30  28  26  29  36  26  19  23  20  16  19  24  31  26  20  17  22  29  39  50  50  32  38  35  22  35  88 153 160 160 160 157 157 156 156 156 155 155 154
 166 165 167 167 167 166 167 167 157  72  53  50  59  49  36  55 108 101  91  74  53  43  41  41  50  59  54  30  31  29  30  32  45  50  40  33  32  36  53  54  49  26  20  64 111 111 102  90  76  35  20  27  28  28  23  23  27  34  32  20  18  16  19  21  32  32  26  23  23  25  29  39  49  56  32  35  37  23  36  90 154 158 159 160 157 156 157 155 156 154 154 156
 164 165 167 165 167 166 167 166 149  69  50  51  62  47  35  60 112 102  95  83  70  70  65  53  54  59  71  47  32  31  33  42  50  47  43  40  45  52  58  60  39  25  29 103 114 111 104  95  85  53  19  25  30  30  28  26  26  29  34  29  23  20  22  31  36  32  30  30  31  32  34  41  50  58  33  33  36  23  38 104 156 157 157 157 157 156 156 154 156 155 153 154
 165 166 166 166 166 167 166 166 152  72  51  57  70  46  31  67 115 107 104  99  98  93  82  72  67  65  70  70  64  61  58  55  53  49  50  53  54  57  61  63  32  20  62 115 118 110 105  95  88  70  23  22  29  31  33  34  33  33  34  35  37  35  34  37  38  37  37  38  39  40  42  47  52  58  37  34  32  25  39 108 154 158 160 159 159 155 157 156 155 155 155 154
 164 165 166 166 166 167 166 167 161  77  55  64  83  47  30  74 118 111 112 112 112 101  87  78  74  73  74  69  67  61  58  52  50  51  54  55  56  60  68  52  32  18  94 116 116 112 107  96  88  72  39  19  30  31  32  33  34  33  32  35  36  36  39  40  42  40  39  38  39  42  48  52  56  59  39  34  30  29  41 125 154 159 158 157 156 155 155 156 155 155 154 154
 164 164 166 166 166 166 168 167 164 104  69  74  90  52  31  70 117 115 119 119 118 107  91  77  72  69  68  65  60  55  52  52  55  59  60  59  64  73  78  44  30  47 108 119 120 115 110 100  89  75  53  20  25  39  34  34  35  37  35  36  36  36  36  37  36  40  40  40  41  46  50  56  58  60  44  42  29  34  52 148 154 157 157 156 156 156 155 155 154 154 154 155
 164 165 165 166 166 167 167 167 166 141  83  82  94  53  33  55 118 119 120 121 116 111 101  87  79  71  67  65  64  60  61  63  66  66  67  75  82  86  81  39  20  85 108 119 120 113 109 101  88  74  55  30  19  37  42  38  39  40  40  41  42  42  41  43  43  44  44  44  47  48  51  56  59  59  46  46  27  42  85 152 155 156 156 156 156 155 155 155 154 154 153 153
 165 164 166 167 166 166 168 168 167 164 111  88  96  60  46  34 110 119 118 116 114 112 107  98  89  83  76  75  74  72  70  70  71  76  84  91  92  91  70  35  34 100 104 117 120 119 113 106  91  75  58  39  17  28  43  45  45  46  45  44  46  46  44  46  47  47  48  48  47  48  51  55  58  60  47  37  35  44 128 152 157 155 156 155 156 156 154 153 154 153 153 153
 165 166 166 166 166 166 167 167 167 166 144  99  95  62  56  45  80 118 119 115 114 114 108 100  92  86  80  80  81  78  79  80  86  94  98  97  97  94  52  22  63 103 106 115 120 122 117 109  97  77  60  44  22  17  38  46  49  49  49  49  49  48  47  47  48  48  50  51  51  50  53  54  56  59  46  26  44  52 145 153 155 156 156 156 154 154 154 154 154 152 152 152
 165 165 167 166 167 167 166 167 167 167 163 111  93  62  62  88  32 107 116 117 116 114 109 106  97  91  88  90  89  88  93  97  99 103 101 100  95  72  23  26  88 104 108 115 121 126 123 113  98  82  65  49  33  19  19  40  48  51  53  53  54  54  52  52  53  56  55  56  56  53  51  53  54  55  30  29  46  67 148 154 154 154 154 154 154 155 152 153 153 152 152 151
 163 164 165 166 167 167 167 168 166 166 164 122 100  71  70 108  57  52 111 116 115 113 109 105 100  98  95  99  99  98 101 102 102 102 101  96  76  26  30  53  98 108 109 115 125 130 127 116 101  87  71  54  43  28  22  19  40  51  51  55  58  59  57  56  59  58  59  58  58  54  50  49  49  32  31  38  48  70 149 153 154 153 153 154 154 154 153 153 153 151 151 152
 165 164 165 166 166 166 166 166 166 166 164 131 107  94  77  94 110  45  57 109 112 109 106 101 103 102 103 104 105 103 103 101 102  98  92  53  21  45  43  78 101 106 111 117 127 132 129 121 107  92  77  63  50  36  30  30  19  27  46  54  58  60  60  61  62  61  61  59  55  53  49  35  27  41  48  46  48  79 149 153 154 154 153 153 153 153 152 152 152 152 151 150
 164 163 164 166 166 166 167 167 165 166 164 138 108 108 108  99 115 108  52  41  84 104 104 106 108 106 105 107 107 103 101 103  90  60  26  39  66  56  61  92 105 107 110 121 131 135 131 125 112  96  83  67  54  43  34  36  42  32  19  23  34  45  51  54  58  53  52  44  35  28  27  37  48  53  52  44  51  90 149 153 153 153 153 151 153 153 152 153 152 152 151 150
 164 164 166 165 165 166 167 166 165 166 165 148 119 106 124  97 113 114 109  82  39  37  58  76  83  87  89  88  82  68  53  33  29  49  74  80  65  55  75  95 105 107 113 123 134 134 133 125 112  97  83  69  58  48  39  33  40  47  50  47  40  36  34  32  32  35  36  40  48  54  54  51  53  55  56  52  56 100 151 153 154 153 153 152 152 151 152 152 151 150 151 149
 163 165 165 165 166 166 166 167 166 167 165 156 130 132 114 102 113 114 112 111 108  98  79  70  59  50  50  56  55  64  74  87  88  81  75  66  60  63  85  99 106 107 114 124 131 134 132 126 112  97  80  69  62  53  48  35  35  43  47  50  54  57  60  62  63  62  62  62  62  60  58  54  53  53  56  58  63 117 151 153 154 154 152 152 151 152 152 150 151 149 149 147
 164 166 164 165 164 165 168 167 167 167 166 164 139 138 121 110 114 114 111 113 112 115 114 117 115 111 107 106 102  96  92  85  79  74  69  65  65  82 102 108 108 109 116 125 131 133 133 125 112  98  80  70  62  58  66  56  34  39  44  48  51  54  58  60  62  60  60  59  58  58  57  55  53  54  55  56  62 137 151 153 153 153 153 152 151 151 151 149 150 150 149 149
 164 164 163 165 165 164 166 165 167 166 165 164 147 138 130 120 115 110 113 112 114 117 115 116 117 115 109 104  95  90  84  82  76  73  69  70  75 102 111 113 113 110 116 122 128 134 135 126 112  98  81  68  62  59  69  70  52  40  44  46  49  53  54  60  59  57  58  59  58  54  54  52  53  55  55  56  59 143 152 153 152 151 151 152 151 151 151 151 151 149 149 148
 163 164 164 164 164 165 165 167 165 166 164 164 146 130 128 123 120 111 111 111 109 111 113 113 111 109 106  97  89  88  84  80  77  72  72  75  91 110 113 116 117 114 117 122 126 131 127 121 111  97  78  65  60  57  68  68  62  41  43  46  50  52  54  56  57  56  57  55  53  53  52  51  52  54  52  54  64 144 150 152 152 151 150 151 151 151 151 150 150 148 148 148
 163 163 164 165 163 165 165 164 164 165 165 165 145 119 125 126 127 111 109 111 109 109 109 105 103 100 101  94  89  88  85  78  76  73  74  76  95 110 110 114 114 114 113 116 123 125 123 115 103  89  71  61  54  52  61  60  56  45  42  47  50  53  55  57  59  59  54  52  50  50  51  49  50  55  49  49  89 146 151 152 152 151 151 150 150 149 151 151 150 148 147 147
 163 163 163 162 163 163 164 164 165 165 164 165 157 113 112 120 119 110 109 111 109 107 103 100  99  98  95  91  87  87  81  75  72  72  76  76  91 100 102 101 100 102 101 101 108 113 112 100  89  80  63  51  43  44  45  46  46  43  41  46  49  53  54  54  56  58  55  52  49  49  48  49  50  52  47  58 137 149 152 151 152 152 151 150 150 150 150 148 148 148 147 147
 161 162 162 161 164 162 163 164 164 163 162 163 163 145 101  98  91 101 109 109 107 101  97  95  97  95  89  85  85  81  75  72  71  76  78  80  80  85  84  78  76  79  82  84  90  94  91  83  71  63  51  43  37  34  37  39  39  39  43  47  49  52  53  54  54  54  53  53  49  49  48  47  49  51  63 131 148 151 151 151 149 151 151 150 149 150 149 150 147 147 148 148
 160 161 160 160 162 162 164 162 163 163 164 164 163 161 147 115 103 118 108 107 105  98  94  93  95  91  86  84  81  78  74  72  74  78  85  88  79  69  62  52  43  39  44  59  72  77  74  68  58  51  43  35  26  27  30  33  34  38  45  47  49  51  51  51  51  52  51  50  48  48  47  47  48  85 139 148 150 149 150 151 150 151 150 150 149 150 151 150 149 147 147 146
 161 162 162 162 162 164 165 163 164 164 165 163 164 163 162 161 161 149 112 103 101  98  92  91  91  91  89  86  82  79  76  76  77  86  90  90  85  72  61  47  37  36  37  39  54  63  62  55  48  41  38  27  26  25  26  28  32  40  46  48  49  49  49  50  49  50  50  48  47  47  47  47  50 104 144 149 150 150 149 150 150 149 150 149 148 149 150 148 147 147 147 146
 159 159 161 162 162 162 164 163 163 164 163 162 162 163 162 162 164 156 115 101  99  96  91  90  88  88  85  78  76  76  79  80  85  90  93  94  88  79  72  62  53  50  50  49  53  57  57  48  41  36  31  27  25  27  28  29  34  41  46  48  48  48  48  49  49  48  48  47  46  45  46  48  52 114 146 149 150 148 148 150 148 148 148 148 148 146 146 147 146 147 145 146
 160 161 160 160 162 162 161 162 164 163 163 163 163 163 163 164 163 157 120 104  98  93  90  88  87  88  85  78  77  77  78  84  88  93  95  95  90  83  75  72  69  65  62  59  55  55  55  44  37  34  30  28  28  29  32  33  36  41  46  48  47  46  45  47  47  47  47  47  44  45  44  47  53 128 146 147 147 146 148 147 145 146 144 145 144 146 146 145 146 145 144 144
 159 160 159 159 160 161 162 161 162 163 162 163 162 162 164 163 161 158 125 102  99  92  89  88  88  87  89  87  82  78  80  84  88  92  94  95  90  82  83  77  76  73  68  65  59  53  49  44  35  35  35  34  32  32  34  35  36  40  46  47  45  43  42  45  46  46  47  47  45  46  46  47  61 135 145 146 146 146 147 146 147 146 146 145 145 146 146 145 144 145 144 145
 158 159 159 158 159 162 162 163 163 163 162 161 162 162 163 163 162 160 137  99  98  94  89  89  91  89  88  88  82  75  76  80  86  87  93  96  94  91  90  86  84  77  75  70  62  54  46  42  38  40  40  39  36  35  36  37  40  41  45  46  42  41  40  42  44  45  47  47  45  46  46  48  68 138 144 145 146 145 146 146 147 146 147 145 146 146 146 145 144 144 144 144
 159 158 158 159 160 161 161 162 162 162 161 162 163 162 162 162 162 161 144 109  97  91  90  90  92  89  86  84  79  74  76  80  86  88  93  95  96  94  95  92  89  82  78  71  62  52  46  45  47  50  48  45  41  40  42  41  42  42  45  47  45  42  45  44  43  43  46  47  44  45  44  50  86 140 144 147 145 146 145 146 146 146 146 146 147 145 145 145 145 144 143 145
 157 157 159 161 161 162 161 162 163 161 161 161 161 163 162 161 160 161 154 112  98  89  90  91  93  89  86  81  76  78  82  83  89  94  96  95  95  96  96  91  90  87  83  74  62  52  51  51  53  56  55  52  47  42  44  44  44  43  45  47  47  42  45  46  45  46  47  48  45  43  43  51 102 140 144 146 146 147 147 146 146 145 144 143 145 144 145 144 144 145 144 143
 158 157 159 160 161 162 162 161 163 162 162 163 163 162 163 162 162 162 157 120  99  93  91  90  93  90  85  80  81  81  79  79  83  87  93  93  93  94  95  92  90  88  84  76  64  59  54  55  56  59  58  55  50  47  46  45  44  42  43  45  43  40  42  46  47  47  47  48  44  43  46  49 125 142 145 144 146 146 147 147 146 146 145 145 144 144 143 143 144 146 145 144
 158 160 159 160 162 162 163 162 163 162 162 163 163 164 163 162 162 163 160 137 102  96  92  88  90  89  83  78  83  78  69  67  71  78  84  86  88  90  90  87  84  81  76  67  65  65  62  57  59  58  54  49  46  44  44  45  44  42  41  41  40  38  42  44  49  46  48  47  43  45  47  62 136 142 144 144 145 146 146 146 147 146 146 145 145 144 145 143 143 144 144 144
 159 162 161 163 163 163 164 162 163 165 165 164 165 166 166 165 164 164 163 153 105  96  95  91  91  90  85  79  82  72  61  54  56  66  69  72  71  74  69  66  61  58  53  52  52  55  53  53  50  45  40  36  34  33  35  37  37  37  35  36  33  31  36  42  47  47  47  46  45  47  49  85 138 143 144 144 144 145 146 146 146 147 146 145 145 145 145 144 144 144 144 144
 161 162 164 164 164 164 166 166 166 166 166 165 166 166 166 166 164 165 165 163 121  96  93  93  94  88  80  78  78  66  52  41  35  37  41  46  46  48  48  48  47  46  44  45  43  43  40  41  35  31  32  30  29  29  28  28  29  27  23  21  26  27  34  42  46  47  47  46  45  47  50 122 140 144 145 145 145 146 146 146 146 146 145 145 145 144 144 144 145 144 144 143
 162 163 164 164 166 166 166 166 165 166 166 166 166 166 165 165 163 163 162 161 137  98  93  93  93  90  84  78  73  60  48  42  46  49  41  40  42  44  42  39  38  39  41  42  39  40  37  35  30  30  28  28  27  25  23  21  22  20  19  27  31  33  39  45  48  49  48  46  46  49  68 136 141 144 143 144 145 145 146 146 146 146 145 145 145 144 144 144 144 143 144 144
 162 162 161 165 166 164 165 166 167 166 166 166 167 166 165 164 164 162 163 162 147 106  93  92  91  90  86  80  74  63  54  54  64  73  68  58  56  58  58  56  46  39  34  36  34  33  34  30  26  26  22  21  19  21  22  23  25  26  28  35  38  39  42  48  50  51  47  43  45  50 108 140 141 142 143 144 144 145 146 144 145 145 144 146 144 143 144 143 143 143 143 143
 162 161 163 164 165 166 166 165 167 166 166 166 166 166 167 164 164 162 163 160 148 116  91  89  93  91  88  82  75  69  65  69  78  88  87  80  69  69  73  74  77  69  66  59  51  47  43  41  42  40  37  35  32  33  30  29  28  30  36  40  42  41  41  50  53  49  45  43  47  66 136 142 141 141 142 144 144 145 144 145 146 145 144 144 144 143 143 143 143 144 143 144
 159 161 164 164 165 165 166 168 166 166 166 165 165 166 165 164 164 162 162 159 150 123  95  88  90  89  86  85  79  74  71  78  85  93  95  91  85  76  74  75  75  77  76  72  70  67  61  60  59  55  49  45  39  35  30  29  31  37  41  42  44  42  43  51  50  46  43  45  47 110 140 141 140 141 141 143 143 144 144 145 145 145 144 145 145 143 144 144 143 142 142 143
 160 162 162 164 166 167 167 166 167 166 165 164 164 163 164 164 163 160 160 159 152 127 104  86  86  87  85  83  81  77  76  85  90  86  91  96  95  87  82  76  72  71  70  68  65  61  56  56  55  51  46  41  35  32  32  34  39  42  42  42  46  47  48  49  46  43  43  46  67 136 141 140 140 140 140 142 141 142 142 144 144 145 143 143 143 143 143 143 143 142 143 143
 159 161 163 162 165 166 166 164 165 165 162 162 162 161 160 161 162 158 159 158 155 128 110  92  82  83  84  82  82  81  80  85  91  78  77  92  95  93  89  84  77  72  66  61  57  54  52  51  49  48  42  38  36  36  39  40  41  41  42  45  47  48  49  49  45  42  43  45 113 139 140 139 138 138 139 139 140 142 143 141 142 142 143 141 140 139 142 140 142 141 141 142
 159 159 159 159 161 162 162 163 162 161 160 159 160 159 158 158 158 157 157 157 156 128 112 101  85  79  80  81  80  82  84  87  91  85  83  89  91  88  86  85  80  75  71  65  63  57  52  50  47  47  44  44  42  42  41  40  40  41  44  46  48  50  49  48  45  42  44  65 131 138 139 138 137 136 137 136 138 139 139 140 141 142 140 140 140 140 140 141 140 141 140 140
 158 158 158 158 158 160 159 160 159 159 158 157 157 156 156 157 157 155 157 157 154 129 113 105  90  80  78  76  77  80  84  89  92  88  90  89  87  86  83  80  75  75  70  62  59  56  52  50  48  47  46  45  45  41  41  40  42  42  46  48  48  48  47  45  42  43  47  74 129 136 137 134 133 134 134 134 136 137 138 139 139 139 139 139 138 139 138 138 138 139 139 140
 156 156 157 157 157 158 158 159 158 157 157 157 157 156 155 157 155 156 156 156 153 130 112 107  94  82  76  75  76  79  82  88  90  90  88  84  85  81  78  76  69  70  66  60  58  54  51  48  46  46  48  45  41  40  41  42  42  40  46  48  47  47  46  44  42  42  48  78 127 132 132 132 130 130 130 131 132 135 136 136 136 137 137 137 138 138 137 137 137 137 138 138
 153 155 156 157 157 156 157 157 157 155 156 155 154 154 154 155 155 155 155 155 151 128 112 109 102  90  78  75  75  80  83  86  88  90  88  89  88  80  81  75  70  69  64  61  58  54  52  48  48  48  46  48  45  43  42  43  42  43  47  49  48  47  44  44  42  44  49  78 125 130 130 130 128 126 129 130 131 132 134 134 134 135 137 136 135 136 136 136 136 135 135 137
 153 155 154 154 154 154 155 154 155 154 155 155 154 152 154 154 154 154 155 154 150 127 113 108 103  96  81  76  74  77  80  81  84  89  88  86  86  82  80  74  72  69  63  58  56  55  53  51  52  52  51  49  47  46  45  44  44  47  47  48  48  46  44  44  43  42  47  77 123 128 128 127 126 126 128 127 129 130 130 132 132 133 133 133 133 134 134 133 134 136 136 135
 152 151 152 153 151 154 154 153 152 153 154 153 151 150 151 152 152 151 152 151 149 127 111 108 103  99  89  76  75  77  81  78  75  84  85  85  82  79  77  74  74  72  69  66  63  64  61  61  59  58  54  53  51  50  47  46  46  47  48  47  47  45  42  42  42  42  47  80 123 126 126 127 124 124 125 126 127 128 129 130 131 132 131 132 132 132 133 132 132 133 132 134
 150 150 151 149 150 151 150 150 151 152 150 151 152 149 150 151 151 152 150 148 146 124 112 108 103  99  94  83  75  74  78  82  81  84  85  87  83  81  78  78  78  80  79  77  75  77  74  71  69  68  61  60  55  52  50  48  46  49  48  47  46  41  40  41  41  42  46  81 121 125 124 124 124 124 122 124 125 126 127 127 129 131 130 131 131 130 131 130 132 130 132 132
 148 147 147 149 149 149 150 150 150 149 148 149 149 149 149 148 148 149 147 146 145 122 113 109 104 100  96  89  79  72  73  79  84  86  86  88  90  89  85  82  82  82  83  86  86  83  81  76  72  72  69  66  58  51  50  49  47  48  48  45  42  39  39  38  39  41  47  75 118 122 123 124 122 121 119 122 123 124 125 126 126 128 129 129 129 130 129 130 128 129 130 131
 146 147 147 147 148 146 148 147 146 145 147 148 146 146 147 146 145 144 144 142 139 121 112 111 106 104  99  92  86  74  72  75  80  87  87  89  92  90  85  82  84  89  89  90  88  86  82  77  72  71  70  66  58  51  49  47  47  48  46  43  41  38  38  38  39  41  48  77 118 122 121 120 120 118 118 120 120 120 122 124 125 126 128 128 128 128 128 128 127 127 128 128
 143 144 143 145 143 144 144 144 142 146 143 144 143 143 142 141 143 142 141 141 137 122 112 109 108 101 102  94  89  79  70  73  76  83  84  86  91  90  85  76  80  88  93  92  87  86  82  76  72  71  69  64  57  53  50  47  46  46  43  42  38  38  37  37  40  44  48  77 118 122 122 121 119 119 118 118 118 119 120 123 122 125 124 125 126 125 125 125 125 126 126 128
 140 142 141 140 141 140 141 141 139 143 141 140 140 140 140 138 140 139 138 137 133 120 113 108 107 106 102  97  92  88  78  70  74  80  79  82  89  88  84  74  78  87  88  88  84  85  82  71  72  70  67  61  55  51  49  46  47  44  42  40  36  36  37  39  40  42  47  74 116 119 120 119 119 118 117 116 117 118 118 119 120 122 122 122 123 123 124 124 124 125 125 126
 140 139 139 139 138 140 139 139 139 138 139 138 138 138 138 136 136 135 135 136 130 118 114 108 110 107 104  97  95  90  85  75  69  74  82  86  86  84  81  72  74  85  86  82  77  77  71  67  66  65  63  57  52  49  48  42  42  41  39  36  36  35  37  39  41  43  47  67 115 118 118 118 117 116 115 115 116 116 118 118 118 119 120 120 121 120 121 122 122 124 124 124
 137 137 139 138 138 139 138 137 137 138 137 136 129 109  97  88  81  86  91 133 127 119 113 111 110 106 106 102  95  91  86  81  75  70  76  80  82  78  78  71  71  78  79  78  71  69  64  61  61  58  58  54  49  48  44  39  38  37  35  34  36  36  38  40  42  44  47  56  92 116 116 117 116 115 113 113 114 114 116 117 118 118 118 118 119 120 121 119 120 122 122 122
 134 135 137 138 137 135 136 136 136 136 125 101  66  52  43  38  37  44 120 135 124 117 114 113 111 107 106 104  97  93  88  83  78  72  70  74  76  72  73  76  74  73  71  71  68  66  64  60  56  53  53  51  47  44  41  36  36  34  34  33  34  37  39  41  42  44  45  50  42  70  97 113 113 114 113 112 112 114 115 116 117 117 117 117 118 118 118 118 118 121 120 122
 134 134 135 134 134 135 135 135 129 110  98  64  39  31  29  23  53 130 142 132 123 115 112 112 111 108 106 104  98  95  90  88  82  75  72  66  68  70  68  71  72  71  66  65  64  62  59  54  51  49  48  49  46  39  36  33  33  32  33  34  34  36  40  41  43  44  45  47  36  42  52  60  79 101 109 110 110 113 113 114 115 115 117 117 116 118 119 118 118 118 119 119
 135 133 135 134 132 131 112 100 103  93  82  38  29  37  37  93 136 144 139 130 119 117 114 112 111 110 108 104 102  98  93  88  84  78  75  69  61  60  62  66  62  62  62  59  56  54  52  50  48  47  45  44  40  36  33  31  31  32  34  34  36  38  40  43  44  44  43  46  39  35  38  41  41  35  58 100 108 111 111 112 112 114 114 116 116 117 117 116 117 118 118 118
 133 133 133 129 111  94  89  88  93  83  76  37  47  44 114 135 141 141 138 126 119 117 114 111 112 109 109 106 103 100  97  91  86  81  77  74  68  59  53  56  56  56  54  52  49  47  46  44  42  41  42  39  34  32  32  30  32  33  34  36  38  39  41  43  43  43  43  45  41  28  31  36  37  32  33  38  75 107 109 110 111 112 113 115 115 116 116 116 116 116 117 117
 131 132 110  71  64  83  82  80  87  85  72  54  49 101 126 137 138 139 134 122 116 116 115 112 112 110 108 106 102  98  96  91  87  83  79  75  72  67  58  51  48  48  47  47  43  41  38  38  37  36  35  34  31  31  32  32  34  34  36  38  37  41  41  42  42  43  44  46  42  29  32  33  36  34  29  29  29  47  76 105 110 110 112 111 113 113 115 115 115 115 115 116
 128  89  51  56  65  78  76  85  82  76  74  54  76 111 124 132 135 137 131 121 115 112 114 111 111 110 107 104 104  98  97  94  89  85  82  80  74  70  67  62  55  48  42  38  36  35  34  32  33  32  32  34  33  34  35  33  34  36  38  40  41  42  41  42  41  42  43  44  41  27  29  29  32  33  26  26  27  29  33  36  46  65  87 106 110 112 112 113 114 113 115 114
  60  56  52  56  68  77  75  79  75  73  77  52  76 106 118 128 131 134 127 120 114 111 109 108 108 108 107 105 103  99  96  92  92  88  85  79  75  72  70  67  64  59  55  49  45  45  45  42  38  36  36  36  35  37  36  35  35  37  40  41  42  43  41  43  42  42  41  42  40  28  26  28  30  32  26  26  26  25  28  27  31  34  37  40  67  97 111 112 112 112 113 114
