P2
# Generated by OpenCV 3.4.0
92 112
255
 168 166 167 168 168 169 169 169 170 171 167 166 166 166 165 167 166 166 166 165 155  83  49  46  46  46  48  50  51  49  51  51  49  45  48  44  38  36  34  34  33  30  30  29  29  24  22  22  18  17  16  16  16  16  16  16  16  15  16  17  16  17  16  18  22  24  25  28  29  29  29  35  46  98 151 156 156 158 157 156 156 155 155 155 155 155 153 153 152 153 154 153
 166 166 166 167 166 168 168 168 168 167 166 165 165 166 166 165 166 166 167 164 142  50  43  42  46  48  49  49  52  53  52  48  48  48  44  41  38  36  33  30  29  28  28  27  25  25  23  19  18  17  18  18  16  15  15  15  16  16  16  15  16  16  17  19  21  20  24  29  26  22  20  28  35  46 117 154 157 156 155 156 157 155 155 156 155 154 154 153 154 154 153 153
 166 166 166 166 166 166 166 166 166 167 164 165 166 165 165 165 166 166 165 160 123  43  39  44  44  41  41  47  50  45  44  42  47  50  46  42  37  35  31  29  28  27  27  25  22  20  20  19  18  17  16  16  16  15  15  15  13  15  15  15  15  16  16  16  17  19  22  24  21  18  17  23  30  38  49 128 154 156 154 157 157 156 156 155 155 155 154 154 155 154 153 154
 164 165 164 165 166 166 166 165 166 166 165 165 165 166 166 166 166 165 163 159 101  48  45  44  42  42  43  44  40  41  44  40  38  38  38  36  32  31  30  27  28  31  29  28  25  21  17  18  19  18  17  16  15  15  16  15  14  15  16  14  14  13  14  15  17  19  20  21  19  20  21  20  25  32  39  50 128 153 155 157 156 156 156 155 156 154 155 155 155 155 154 153
 164 164 165 165 165 167 164 164 166 165 165 165 165 167 167 165 166 165 164 154  97  47  44  49  49  48  42  38  41  46  45  34  30  30  31  34  38  36  32  31  27  25  25  25  24  23  17  16  17  16  16  18  16  15  15  16  16  15  15  15  15  14  13  15  15  16  15  17  17  23  23  27  23  26  33  40 102 151 154 156 157 156 154 155 157 155 156 154 154 155 154 154
 165 164 164 165 165 166 163 163 165 165 166 166 166 168 167 165 165 165 162 151  65  49  44  41  44  46  45  44  41  38  34  33  32  28  27  30  34  34  36  35  32  29  26  23  22  22  19  18  15  16  17  16  15  15  16  14  14  14  14  15  15  15  14  15  15  14  16  17  20  20  16  17  19  19  24  36  66 147 154 156 155 155 155 155 156 154 154 154 154 154 154 155
 164 165 164 164 165 166 165 164 164 165 165 166 167 166 166 165 165 164 161 119  53  41  36  36  37  38  38  37  35  36  39  41  43  37  36  29  25  26  30  30  32  32  30  26  23  20  18  17  16  15  16  16  14  15  14  14  14  14  14  15  15  15  15  15  16  15  16  17  18  18  18  16  16  17  20  26  38  97 147 153 154 155 155 154 155 154 154 153 154 154 153 155
 164 164 165 165 167 166 165 164 165 166 166 166 166 167 167 165 164 163 161  79  47  36  35  36  37  36  39  37  37  42  43  45  48  50  36  29  31  27  27  26  26  26  25  25  24  23  21  16  17  16  14  15  13  13  14  14  13  14  13  14  14  13  15  15  14  14  14  14  16  16  21  17  16  16  23  28  31  42  80 151 153 153 153 154 156 154 154 152 153 154 153 153
 166 165 164 165 166 165 164 165 166 166 167 167 166 165 165 164 163 163 140  52  40  33  36  36  35  36  36  34  35  37  41  48  46  40  38  39  37  34  30  24  19  17  16  18  17  17  17  16  15  15  15  15  13  12  13  13  14  14  13  14  14  14  13  14  14  14  14  15  15  18  24  17  14  16  23  26  24  33  40 121 152 153 154 154 156 154 154 154 154 154 153 153
 166 166 166 166 166 165 166 166 166 167 166 165 165 164 164 164 162 161 115  47  34  34  36  32  29  26  27  30  34  40  38  40  38  38  36  33  33  30  24  19  16  14  15  14  14  15  15  16  15  14  15  16  15  14  14  13  13  13  14  14  13  12  14  14  14  15  14  14  16  19  21  15  16  17  27  30  23  26  34 122 152 153 153 153 154 154 154 153 154 154 154 153
 165 166 166 166 165 165 167 165 165 166 165 165 166 164 164 163 164 160  97  44  38  37  30  28  28  27  31  34  38  34  33  30  31  30  26  26  26  20  16  15  15  15  15  16  15  16  16  16  15  15  14  15  15  16  15  14  13  15  13  13  14  14  13  13  12  13  14  14  15  17  16  15  15  18  29  32  28  25  31  77 142 152 154 154 154 154 153 153 153 153 154 154
 166 165 165 165 166 166 166 166 166 166 165 166 164 164 164 163 163 159  85  47  41  32  29  28  28  30  32  35  32  30  28  27  25  24  25  26  22  18  20  18  18  18  17  16  18  18  18  18  17  16  16  16  16  16  15  15  15  14  14  14  15  14  14  14  14  14  14  14  14  15  14  16  16  21  29  28  29  28  29  37  80 147 153 154 155 155 153 153 153 154 154 154
 166 165 165 165 165 165 165 165 165 166 164 165 164 164 163 163 164 158  96  50  40  32  30  32  33  32  33  35  30  28  26  27  24  24  27  24  22  23  21  23  22  21  21  21  23  25  24  23  22  23  22  20  18  18  17  17  17  17  15  15  14  15  15  14  14  15  14  15  14  14  15  18  17  22  26  26  32  31  25  30  41 107 152 152 153 153 153 155 154 154 154 155
 163 165 166 165 163 165 165 165 165 164 164 164 164 164 163 165 164 158  88  50  40  34  33  37  39  36  34  35  32  30  29  29  30  31  30  28  27  27  26  27  27  27  27  26  27  29  28  28  28  26  26  25  25  24  23  22  19  19  17  17  16  15  16  15  16  16  15  15  15  15  16  21  19  21  24  25  31  31  28  26  35  90 147 150 154 154 153 152 154 153 154 155
 164 166 164 166 165 165 164 164 164 164 165 165 165 164 164 163 163 161  85  50  44  36  38  41  40  35  32  33  34  34  33  34  36  34  34  32  32  31  32  32  30  31  30  31  32  31  32  32  31  30  30  29  28  28  27  26  24  23  22  21  19  18  18  17  17  16  15  17  19  16  17  21  19  19  21  24  28  29  27  26  33  63 137 149 154 154 153 153 153 154 154 154
 165 165 165 166 165 164 164 164 163 165 165 164 164 165 164 164 163 160  84  54  45  42  49  48  43  40  38  37  38  40  38  42  41  39  38  37  36  35  35  35  34  36  36  36  38  38  38  36  36  36  34  34  33  31  30  30  29  28  26  24  24  23  22  22  22  19  17  20  19  19  19  22  21  19  21  24  25  28  28  25  33  44 111 143 148 154 153 154 155 155 154 154
 166 165 165 166 166 166 165 165 165 166 167 166 165 165 165 164 164 159  91  59  46  54  61  50  45  45  45  44  45  45  46  47  46  46  44  43  41  40  40  41  41  41  41  42  41  44  43  42  42  42  41  40  38  36  36  35  33  32  29  28  29  28  28  28  26  22  22  22  22  22  21  19  23  18  20  22  25  26  26  25  31  38  90 146 148 152 154 155 155 154 155 155
 166 165 166 166 166 166 165 164 166 166 167 166 166 166 165 165 164 161  94  63  48  70  63  50  51  50  51  52  54  51  52  52  52  50  48  47  47  47  46  45  46  46  46  46  45  47  48  48  48  46  45  43  43  42  40  37  36  35  36  35  33  31  31  32  29  25  24  24  24  22  18  18  23  21  20  23  22  24  25  27  30  38  62 150 152 154 154 154 155 154 154 155
 167 166 166 165 164 165 167 165 166 166 167 167 166 166 165 164 163 152  75  69  62  75  63  60  58  58  60  63  61  60  60  59  57  54  52  52  54  53  52  53  52  52  50  51  51  52  51  51  52  51  50  50  48  49  48  45  42  42  41  39  36  36  36  35  33  29  26  25  24  20  17  19  22  22  22  20  20  24  23  30  30  42  68 147 153 156 156 156 156 154 155 155
 167 166 166 167 166 165 167 167 167 168 168 167 168 166 166 164 162 113  71  80  91  75  71  70  68  69  69  69  70  70  68  66  63  59  58  59  60  59  59  58  56  58  56  56  59  57  58  57  56  57  57  56  55  54  54  51  48  47  46  43  41  40  40  39  37  32  29  24  25  20  17  16  19  21  23  17  18  25  25  29  31  35  49 136 152 154 154 155 156 153 155 154
 168 167 168 168 167 168 167 168 168 167 168 168 168 167 167 165 157  68  70  96 111  90  82  79  78  79  79  78  78  75  74  74  69  67  66  64  63  63  63  63  62  62  61  61  62  62  62  62  61  62  61  60  60  59  58  54  51  50  48  47  45  44  43  41  39  34  29  27  25  22  17  17  19  20  23  16  17  24  24  29  30  30  44  98 149 153 154 155 155 154 154 154
 168 169 170 169 169 170 170 169 168 169 169 169 168 170 168 166 135  64  72 115 118 102  94  88  86  86  86  85  84  82  78  76  76  73  71  70  69  69  69  68  66  66  65  65  64  64  65  66  65  64  63  62  62  60  58  55  55  53  50  50  49  45  45  44  40  36  31  28  26  25  23  18  19  22  22  20  18  22  26  29  29  28  46  72 147 154 156 156 157 155 155 156
 171 170 170 171 171 172 172 173 172 172 171 173 172 172 170 168 110  65  76 123 119 109 100  94  91  93  90  88  87  84  82  81  79  75  74  73  72  72  73  72  71  70  68  68  68  68  68  68  67  65  65  65  62  61  61  59  59  57  56  53  51  49  47  47  44  39  34  31  28  25  21  17  19  22  17  18  18  22  25  27  28  27  35  70 147 154 156 156 156 156 155 156
 175 174 173 176 175 177 176 176 176 175 176 177 175 175 176 170  97  68  83 126 122 114 109 104  98  99  96  93  90  86  85  83  83  79  76  77  76  76  75  74  74  74  71  71  70  70  70  70  68  68  68  66  64  65  63  61  62  60  60  58  54  52  51  50  47  42  38  36  32  27  22  19  19  22  16  17  22  20  22  24  27  28  31  79 149 154 154 155 156 156 156 157
 181 180 179 181 180 181 182 183 184 182 183 181 183 182 184 175  80  66  94 126 123 119 113 109 106 104 100  96  92  91  88  84  83  80  77  78  76  76  75  74  77  76  72  72  71  71  71  69  71  71  70  68  67  67  68  67  66  64  62  60  58  56  54  53  49  45  42  40  33  29  25  19  18  21  16  18  19  17  21  23  26  28  32  92 151 155 154 155 156 155 156 155
 186 188 189 187 190 190 191 192 191 195 194 193 192 196 195 177  69  70 104 127 125 121 117 111 111 105 101  98  93  92  90  87  84  83  79  81  81  78  75  76  77  75  74  73  73  77  74  73  75  73  71  71  71  71  73  72  69  68  65  63  62  60  58  58  54  49  46  44  37  30  24  20  17  21  16  18  18  18  20  22  25  28  33  91 150 155 155 156 158 158 158 157
 196 195 197 199 197 197 199 199 200 200 201 202 203 204 201 170  61  68 111 128 126 122 120 116 111 107 102  99  95  92  90  89  86  85  84  83  83  81  80  79  78  77  78  80  80  80  78  76  76  74  73  72  71  73  75  76  75  71  68  67  66  65  62  60  58  53  50  47  40  31  26  19  17  18  16  21  17  17  19  19  25  29  31  89 151 155 156 158 158 159 160 157
 193 194 194 194 195 195 194 197 199 199 199 200 200 202 200 139  63  68 118 128 127 123 120 116 111 106 100  98  95  93  92  88  89  86  85  84  83  83  83  82  79  78  78  80  80  79  80  77  74  73  73  74  72  71  72  77  76  72  71  68  69  66  65  64  61  57  53  49  43  33  27  20  17  18  17  19  17  17  16  18  24  27  29  97 152 155 158 156 158 157 158 156
 186 187 188 188 185 188 187 189 190 190 191 189 189 190 187 119  61  70 124 130 128 124 120 115 110 105  97  93  92  92  90  89  88  86  86  86  81  81  82  79  78  79  80  80  81  80  77  73  72  72  74  70  71  75  74  72  71  71  71  70  69  67  66  65  64  59  57  50  46  37  28  22  18  16  17  17  16  17  17  19  24  25  29 120 154 156 158 158 158 157 157 158
 181 180 180 179 180 181 181 182 182 182 182 181 182 180 175 117  59  74 128 130 126 122 118 114 106 100  95  92  89  90  88  86  86  86  85  84  82  80  79  79  76  78  80  82  79  77  74  73  69  69  70  70  71  74  72  71  71  71  72  69  69  69  66  66  66  61  57  52  47  39  29  23  17  16  19  19  17  18  20  20  22  23  53 132 153 158 158 159 158 158 158 157
 174 175 176 175 176 177 176 176 176 176 176 177 176 174 170 111  58  73 130 131 124 121 114 109 101  97  94  90  88  85  84  84  81  84  83  81  78  77  77  75  73  76  79  79  74  72  70  69  67  69  69  68  67  69  67  68  69  69  67  69  70  70  66  66  65  63  59  52  49  43  30  23  17  16  16  18  19  18  19  19  23  24  63 134 153 159 159 157 159 156 157 156
 172 173 173 172 174 174 174 174 174 173 173 173 174 173 169 113  53  80 130 125 116 106 101  95  89  87  84  84  84  83  82  82  78  80  79  78  72  76  75  72  72  73  76  73  71  68  68  67  66  66  66  66  67  65  67  68  68  69  69  69  71  69  66  65  64  62  58  51  48  43  31  23  17  16  16  16  17  18  18  17  22  27  57 142 154 158 160 158 158 157 156 157
 172 171 171 169 172 173 173 173 172 171 171 171 172 172 171 122  49  88 121 102  89  71  65  59  60  58  58  61  69  73  73  73  73  73  72  72  71  71  70  70  68  67  72  71  68  65  66  63  64  62  60  60  59  56  56  61  65  68  68  67  69  69  68  65  64  60  57  52  48  44  33  22  17  16  16  16  16  17  19  17  22  25  80 150 155 159 159 158 157 158 157 157
 168 169 170 169 170 171 173 172 173 170 171 171 172 170 168 131  48  89  84  63  60  48  42  38  36  35  36  39  44  53  57  61  62  66  66  66  68  68  66  67  66  68  71  67  64  59  58  60  56  55  49  49  45  38  41  43  44  49  50  53  59  62  62  61  62  60  58  53  49  45  34  22  16  16  16  16  17  17  18  16  22  27  96 154 156 158 158 158 156 159 158 157
 169 169 170 171 169 170 172 172 170 169 171 169 169 168 168 146  55  82  61  56  54  49  46  43  38  35  32  29  32  38  43  45  49  55  59  64  66  66  63  64  63  67  69  64  57  52  49  48  47  44  37  38  30  29  29  28  29  29  29  31  35  44  43  44  54  59  58  55  50  46  36  24  16  16  16  16  16  17  17  16  22  27 106 152 156 158 160 157 157 156 157 157
 169 169 170 170 170 169 172 170 169 168 170 153 127  98  72  46  42  46  45  47  45  43  41  39  35  33  31  29  30  34  33  35  39  44  52  60  63  66  64  64  63  65  66  59  49  42  38  35  35  33  32  31  28  27  26  25  24  25  24  24  24  26  27  27  34  50  54  55  51  47  38  25  17  15  16  16  16  16  17  17  23  22 114 152 156 158 158 157 159 160 158 158
 169 169 169 170 170 168 170 169 132  83  53  46  46  44  66 113  92  76  67  70  65  59  55  64  51  46  43  37  32  28  28  28  30  33  43  52  59  65  67  63  64  64  61  48  40  34  31  28  25  25  23  26  26  27  29  28  28  27  28  27  26  26  27  24  21  18  19  23  28  32  33  25  16  14  15  16  16  15  17  19  23  27 124 152 158 160 159 160 160 159 158 158
 169 169 169 170 170 169 168 169  81  70  44  43  39 121 167 163  99  84  76  75  72  69  66  73  56  48  44  41  40  38  36  30  25  25  28  35  45  53  54  52  52  51  44  34  29  24  22  26  27  28  31  33  34  34  34  35  33  35  35  35  33  33  33  32  30  29  24  18  16  17  17  17  18  17  19  17  16  15  17  18  22  33 139 154 158 158 160 159 157 158 158 158
 168 168 169 170 169 169 169 166 117  59  41  40  83 165 175 164 118  90  78  72  71  68  64  59  54  50  46  43  39  38  39  37  37  28  23  23  25  24  18  19  19  19  21  23  23  26  31  31  30  31  32  33  35  36  36  38  41  43  44  44  45  42  39  35  31  31  30  28  21  16  16  21  32  20  23  18  17  16  17  18  23  44 134 157 159 158 159 158 156 159 158 156
 168 168 168 169 168 168 168 167 166 159  43  52  59  76 155 165 136  97  78  66  59  54  47  44  41  40  38  38  37  37  38  36  36  37  23  22  23  20  19  18  17  18  20  19  28  32  32  33  32  33  32  32  35  36  40  43  44  47  50  50  49  46  44  38  34  32  32  31  33  20  16  16  18  16  27  18  17  16  17  18  25  65 144 156 160 158 159 158 159 158 159 157
 168 167 169 168 168 169 168 167 167 159  47  95 152 115 114 102 114  98  71  52  43  38  34  32  29  27  28  29  28  30  32  32  33  34  27  22  20  22  27  29  24  19  19  21  31  33  32  32  32  32  32  32  34  36  36  38  39  40  43  45  45  43  41  39  38  36  34  34  40  34  16  25  31  17  27  20  17  16  16  18  27  78 151 156 160 159 159 158 159 157 157 158
 168 168 169 169 169 170 168 169 169 162  46 122 162 164 178 137  93  99  66  44  33  30  34  38  29  25  20  19  21  28  30  30  31  34  31  23  28  40  68  68  49  26  19  24  31  30  31  31  30  31  30  29  28  29  28  26  25  26  27  28  30  31  33  36  37  37  36  37  42  44  18  31  39  20  22  26  17  16  16  18  28  94 152 156 158 158 157 156 159 158 157 156
 168 168 168 169 169 169 170 169 168 163  50 132 164 165 170 165 150  93  54  36  32  42  54  47  34  26  22  18  20  29  31  30  32  35  28  22  32  79  94  90  77  45  18  24  32  30  30  31  29  28  27  28  28  26  26  20  18  17  16  18  21  23  25  29  32  35  37  40  42  46  19  32  45  27  17  29  19  16  17  18  25 109 153 157 157 159 158 156 156 158 157 158
 168 168 167 168 168 170 170 168 169 167  51 138 165 166 167 165 151 102  59  41  41  65  63  47  26  23  28  20  22  32  37  29  29  42  27  21  61 102 105  99  88  63  19  22  30  32  30  30  30  30  29  27  28  37  30  24  19  16  16  16  21  21  19  23  25  31  34  38  41  46  21  36  45  32  17  19  20  17  17  18  31 129 153 157 157 159 157 155 156 156 154 154
 167 168 168 168 168 169 169 169 168 168  57 136 164 166 167 166 155 106  76  56  51  60  66  61  31  27  24  24  27  37  38  30  31  40  25  31 102 113 110 103  98  78  25  22  26  32  30  33  33  29  26  29  35  44  27  16  22  17  16  17  24  28  20  16  21  24  30  35  40  42  21  40  48  38  19  17  17  15  15  19  40 137 152 155 156 159 156 155 156 156 155 155
 167 167 168 168 169 168 169 168 168 166  73 120 165 164 166 166 151 116  92  84  62  55  60  68  51  33  32  34  39  41  39  42  49  45  21  86 117 116 114 107 102  85  34  21  22  33  30  35  30  26  26  29  37  48  38  22  19  16  18  18  29  30  23  18  17  24  28  33  40  41  21  43  51  43  24  19  17  15  15  23  49  84 105 142 154 155 157 154 155 154 153 154
 168 167 168 167 168 167 168 167 167 165  90 102 163 164 165 164 150 122 112  95  74  65  62  59  58  58  54  51  49  49  53  60  58  39  40 113 122 123 119 110 100  84  52  19  22  32  35  35  37  38  34  35  39  47  48  33  24  24  25  30  36  34  29  27  26  27  31  34  40  41  19  49  54  49  28  23  20  20  27  38  54  60  61  71 138 153 156 154 154 154 153 153
 167 168 167 168 168 168 168 168 169 166 113  80 164 165 164 164 149 129 123 101  78  70  66  64  58  54  48  46  50  56  60  63  61  24  83 121 126 123 120 111  99  80  62  22  22  27  44  41  42  44  44  46  46  50  50  48  50  47  48  45  42  40  37  36  36  36  37  40  43  39  21  51  55  52  32  23  25  27  37  44  49  48  47  49  83 150 154 153 154 154 153 153
 167 167 167 168 168 168 169 169 168 167 152  48 160 165 165 163 148 132 124 106  81  67  63  59  54  52  55  62  65  65  69  74  43  37 102 122 126 123 117 108  92  74  61  36  21  23  45  47  46  46  46  51  50  49  46  43  46  47  49  48  45  41  40  37  39  41  45  45  47  34  30  52  53  52  36  22  26  26  37  42  36  33  32  36  56 145 153 152 153 154 152 153
 166 167 168 168 168 168 168 168 169 168 166  69 131 163 164 162 147 130 121 107  94  82  77  76  75  71  71  70  71  76  81  73  22  57 107 122 130 126 119 109  90  73  60  48  20  25  41  53  51  54  56  58  58  55  50  43  41  41  41  41  40  41  41  41  43  48  48  50  52  25  40  52  52  51  38  22  25  28  33  33  31  31  34  35  47 141 151 153 152 153 152 153
 167 166 167 167 168 168 168 169 168 167 165 121  80 163 165 165 146 128 117 106  96  86  82  82  78  76  76  80  84  84  82  35  21  83 110 122 130 128 120 106  90  74  61  50  28  22  36  54  56  58  59  61  59  57  54  51  50  51  49  49  49  48  49  51  51  53  52  52  48  24  51  52  51  50  41  24  24  29  31  32  33  33  34  36  46 140 151 152 152 152 152 152
 166 166 166 168 167 169 168 168 168 168 167 165  66 129 163 163 144 125 116 110 102  93  87  86  82  84  86  90  90  86  44  25  34  96 115 128 135 130 118 102  88  74  62  53  40  21  26  49  56  62  62  64  64  60  57  52  53  54  55  54  53  53  53  54  55  53  58  56  31  36  54  54  52  50  41  23  24  28  32  36  35  34  36  37  51 143 152 152 152 153 151 151
 167 167 168 167 168 168 167 168 168 168 167 166 142  58 145 162 143 124 116 110 104  98  96  96  92  94  96  92  87  41  26  44  63 104 121 131 137 130 118 103  90  77  66  60  49  30  19  32  54  58  63  64  66  67  64  59  57  58  58  56  55  56  57  59  58  56  56  46  22  53  54  54  51  50  41  24  26  33  38  41  41  35  38  41  59 146 152 152 152 152 152 151
 167 168 166 168 169 168 168 168 167 168 168 168 166 134  56 121 140 121 113 111 105 103 102 104  99  97  94  70  26  37  69  58  86 112 128 135 139 131 118 102  91  78  69  64  58  40  27  21  30  55  61  64  68  69  68  67  66  66  66  63  64  63  61  61  62  61  48  21  45  57  57  53  51  50  40  23  24  31  40  43  45  40  39  43  78 146 152 152 151 152 152 152
 165 167 166 167 167 168 168 168 168 168 168 167 166 165 150  84  51  83  97 101 102 101  98  91  71  51  24  36  70  87  70  73  98 120 131 137 140 129 115 101  88  77  68  64  60  50  37  37  30  21  42  62  67  68  68  68  68  68  68  68  69  67  65  62  58  38  20  46  58  58  54  52  50  49  39  26  27  28  33  40  46  42  41  47 105 148 152 152 151 152 151 151
 167 167 167 167 167 167 168 168 168 168 168 168 166 168 165 160 118  79  60  49  45  43  46  53  60  74  92  91  84  77  69  84 109 123 130 138 135 126 109  96  82  74  67  62  61  56  42  39  45  44  28  20  34  48  60  66  70  71  71  68  66  58  50  33  18  33  48  58  57  56  53  52  51  49  38  29  30  31  31  36  45  44  45  62 142 151 152 153 152 151 151 150
 167 167 168 168 167 168 168 168 168 168 168 167 168 167 168 160 131 118 116 116 118 113 110 106 103  97  91  85  79  70  72 111 118 126 130 137 134 124 110  93  79  74  66  64  61  61  51  40  41  51  59  59  48  36  31  25  21  16  15  17  23  28  32  45  58  58  56  57  55  54  51  51  49  48  42  38  37  38  33  34  46  46  49 109 148 151 151 152 152 150 151 151
 167 168 169 168 168 169 168 169 168 169 168 166 167 168 167 163 131 124 124 121 117 109 106 102 100  94  87  80  73  75 119 128 122 125 129 135 130 121 106  89  77  70  64  64  69  76  72  48  38  44  55  63  67  67  68  73  74  73  75  71  71  71  67  67  65  60  57  56  54  55  50  49  48  47  45  45  42  40  37  35  45  49  54 141 150 152 152 151 152 151 150 151
 168 167 168 169 168 169 168 168 169 169 169 168 169 169 169 166 132 125 125 120 115 108 104  98  94  88  82  76  72 110 127 125 120 124 127 127 123 113  97  81  71  66  63  64  74  81  78  70  46  43  50  60  65  70  71  74  75  75  74  76  74  71  69  67  66  62  60  57  53  53  50  49  48  47  43  46  42  42  36  37  48  52  85 146 151 152 151 152 152 151 150 150
 168 168 168 170 169 169 169 169 169 169 169 169 169 168 168 166 135 123 120 116 109 107  99  90  88  83  77  72  81 116 117 115 112 116 117 116 106  98  88  71  63  59  56  61  71  76  76  71  58  45  50  59  62  66  70  73  76  77  74  72  72  70  67  67  66  64  61  58  56  54  50  49  48  47  44  42  40  39  37  46  50  55 107 148 151 152 151 152 152 151 151 151
 168 168 167 169 168 169 169 170 169 168 169 169 169 169 168 167 140 124 119 112 108 102  94  90  88  81  75  72  89 101  92  92  93  99 100  94  84  78  71  60  50  47  47  50  56  61  62  61  58  46  50  57  62  68  68  70  75  73  70  71  72  70  68  66  64  61  59  57  55  52  48  49  48  47  42  37  39  43  47  50  49  58 131 150 152 152 151 152 152 151 150 150
 169 169 168 168 169 169 169 170 170 169 168 169 170 169 170 168 144 123 113 108 106  98  94  91  86  80  78  77  83  79  65  61  67  78  79  76  71  64  56  48  42  39  39  41  43  46  47  49  50  44  51  56  60  64  69  71  72  71  70  69  68  66  65  63  62  59  58  58  53  50  48  49  48  45  37  37  50  56  50  49  57  73 144 150 151 151 153 152 151 151 151 150
 168 168 169 168 168 169 169 169 168 168 168 169 170 170 169 168 149 122 111 107 106  98  91  87  84  79  80  83  84  69  49  39  33  43  64  60  56  52  46  41  37  28  21  19  26  36  39  42  41  40  49  58  61  62  68  70  70  72  71  67  63  61  62  60  58  57  57  56  51  48  48  49  47  43  44  50  51  56  62  63  64  97 145 149 150 151 151 151 151 150 151 151
 169 170 169 168 168 170 169 169 170 170 170 168 170 170 169 169 153 121 108 106 103  92  90  86  83  81  82  85  88  81  56  43  36  36  46  54  50  44  41  38  27  23  19  23  26  29  34  37  35  40  54  60  63  62  66  68  71  70  70  67  64  61  60  60  55  53  54  53  51  49  48  49  45  43  48  53  55  59  63  66  68 130 147 150 152 150 152 150 151 151 151 151
 168 169 168 169 169 169 169 169 168 170 169 169 169 168 170 168 156 118 106 102  96  89  83  80  80  84  86  90  90  87  73  58  45  46  50  52  47  41  38  32  28  28  26  28  27  28  28  30  32  41  53  62  64  65  68  67  68  68  67  64  64  61  60  59  54  53  52  50  49  49  48  49  47  45  49  55  59  62  65  63 102 144 148 150 151 150 151 149 151 150 150 149
 167 169 169 170 168 169 170 170 169 171 170 169 169 169 168 168 160 118 106  99  93  86  80  80  83  87  91  95  96  91  78  66  59  56  54  52  50  44  38  34  32  32  30  29  27  28  29  32  37  43  53  62  66  67  66  67  68  68  63  62  61  60  58  58  54  53  51  50  49  49  49  51  48  48  55  58  58  60  62  59 132 147 148 149 149 150 150 149 150 149 150 149
 169 168 169 169 168 170 169 170 169 170 169 169 169 169 170 169 160 116 104  96  93  91  85  85  87  90  93  96  98  92  80  72  68  63  61  54  50  46  39  37  38  38  35  34  32  34  37  38  42  47  53  61  65  67  67  67  66  66  65  61  58  56  55  54  52  50  48  47  48  50  51  51  47  48  55  58  58  56  56  78 143 147 148 150 149 149 149 150 150 149 150 149
 169 169 169 168 169 170 170 170 169 170 170 170 168 170 169 169 162 117 102  96  92  91  89  85  87  88  90  94  99  94  85  81  76  70  67  58  53  47  43  40  42  44  42  40  39  41  40  43  44  47  51  58  62  65  65  65  65  64  65  62  57  54  52  52  49  49  48  47  48  51  53  51  45  46  52  55  54  53  58 127 144 147 148 148 149 149 150 150 151 150 150 149
 168 168 170 169 170 169 169 170 169 170 170 170 169 169 168 168 166 130 106  99  93  90  87  84  84  85  89  92  98  95  92  88  86  79  73  65  55  51  46  46  51  49  48  46  46  46  47  47  47  47  51  55  59  61  60  63  61  61  62  61  56  52  50  50  49  48  48  48  49  50  53  53  58  48  48  49  47  63 126 143 145 146 147 147 148 149 150 150 150 149 148 149
 170 169 170 169 170 169 170 170 170 170 170 169 169 168 170 170 168 137 104 100  94  91  87  85  86  86  92  94  96  93  95  92  89  85  79  68  57  52  52  52  54  53  54  51  51  49  49  50  51  51  52  54  56  55  54  56  60  60  60  59  55  52  47  47  48  48  48  48  48  51  55  56  86 131 101  88 114 139 143 145 145 146 145 147 147 148 148 149 150 149 149 148
 170 169 169 169 169 170 170 170 169 170 169 169 169 170 169 169 166 145 104 100  93  90  87  86  84  84  87  90  94  92  92  92  91  88  81  72  64  57  53  55  56  57  58  55  53  53  53  54  54  55  53  52  53  53  54  54  58  58  58  60  55  52  48  48  47  46  48  48  49  54  57  57 105 139 140 143 143 144 144 145 145 145 143 144 146 145 147 148 147 147 148 148
 169 169 170 169 169 169 169 168 169 170 169 170 169 169 170 169 167 153 109 100  96  89  86  84  75  72  76  82  85  87  87  83  81  79  73  70  70  64  60  62  62  61  58  55  54  53  55  56  56  56  55  53  54  54  59  60  58  56  54  56  53  50  48  47  47  46  46  48  49  54  58  76 131 142 143 144 145 145 145 146 144 143 144 146 145 148 148 149 147 148 148 148
 168 169 168 169 168 170 170 170 169 170 170 169 168 169 170 169 168 161 115 101  95  90  84  77  68  61  64  70  73  74  69  66  59  55  53  54  60  61  60  59  55  51  48  50  49  51  54  53  54  54  54  51  50  49  54  58  58  58  57  55  54  50  46  47  46  46  45  48  50  55  61 100 138 143 143 144 143 144 144 145 146 145 146 146 148 147 148 148 147 149 149 147
 169 170 169 170 170 171 171 170 172 171 170 170 171 170 170 170 169 166 124 106  98  86  82  71  59  50  46  49  49  49  49  48  46  45  44  43  44  43  46  40  39  37  37  37  37  40  45  47  48  49  49  46  45  46  47  50  56  59  55  54  53  48  45  45  44  46  46  47  49  55  62 103 137 142 143 143 144 143 144 143 143 145 145 146 148 147 148 146 147 147 148 148
 170 170 170 171 172 173 172 172 172 174 173 173 172 172 171 172 171 169 139 107  99  87  80  67  52  42  35  31  31  35  40  41  40  41  42  40  41  38  36  34  33  32  32  30  32  31  31  33  35  37  40  41  41  40  42  48  54  59  55  53  52  48  45  44  44  46  46  47  49  57  60 115 137 139 140 142 143 144 144 145 144 144 144 145 145 145 146 147 145 148 147 147
 171 171 170 171 174 174 174 174 174 173 173 174 173 172 172 172 171 170 156 108 102  90  80  67  54  48  49  56  50  51  51  47  40  33  34  34  35  37  34  31  30  27  27  28  28  27  27  27  26  26  27  26  27  28  33  42  49  55  54  55  52  47  46  46  46  46  47  48  50  58  62 119 136 138 139 141 142 142 143 142 143 143 145 145 145 145 145 144 146 147 147 148
 172 172 173 173 174 174 175 175 175 173 173 173 174 174 172 172 172 171 168 118 103  92  82  73  67  64  68  78  73  67  65  64  64  62  57  53  44  39  36  32  31  27  26  25  24  24  24  24  24  23  22  22  25  28  27  36  48  52  53  53  50  47  46  47  47  47  47  47  52  57  59 122 134 137 139 138 140 139 141 142 143 143 143 145 146 146 145 146 146 145 145 145
 172 172 173 174 174 174 174 173 174 174 173 174 174 174 173 172 172 171 169 140 104  93  83  76  71  76  80  86  88  81  72  67  65  68  72  72  75  72  66  62  55  49  46  42  39  36  34  32  31  30  32  38  41  40  39  45  50  56  55  54  48  46  47  47  47  47  47  48  52  54  67 120 130 135 136 138 137 137 139 141 142 142 142 143 145 145 146 145 146 146 147 146
 172 172 173 174 175 175 175 176 176 174 174 174 173 173 173 172 171 170 170 160 107  92  82  78  77  81  82  86  93  91  83  73  66  62  62  63  64  62  62  61  58  54  47  41  38  36  36  36  40  42  43  46  47  46  47  52  59  61  57  52  47  47  46  46  46  47  47  50  54  54  71 122 131 131 132 136 136 135 137 138 139 139 141 141 143 143 144 144 144 145 146 146
 173 173 174 172 174 174 175 174 177 176 173 174 172 172 173 172 171 170 169 166 131  94  83  79  79  81  85  75  93  93  87  82  74  67  61  58  56  55  55  53  51  47  43  40  39  40  42  47  48  49  48  48  46  49  48  55  63  61  56  50  45  45  46  46  46  46  47  51  53  53  79 121 128 130 132 133 133 133 135 137 137 138 140 140 142 141 142 143 144 145 145 145
 172 173 174 174 174 173 173 172 174 173 173 173 172 172 171 170 169 167 168 165 155  98  85  78  83  84  87  82  88  88  85  82  77  71  66  63  57  56  55  54  51  48  46  47  47  49  49  48  49  48  47  49  51  55  50  58  63  58  52  46  43  44  43  44  46  46  48  51  50  52  84 117 126 128 128 130 132 132 134 135 136 137 138 139 139 141 141 143 143 143 144 145
 170 172 172 173 172 174 174 173 174 174 172 172 171 171 171 170 170 168 167 165 161 127  86  80  84  87  87  88  85  83  80  75  73  71  65  60  57  54  51  50  50  51  50  49  49  49  48  47  47  48  50  52  58  61  58  60  59  51  47  45  43  43  42  43  45  47  48  49  50  53  88 118 124 127 126 130 130 130 132 133 135 136 137 138 137 139 140 140 142 142 143 142
 170 171 171 171 173 173 173 173 172 173 171 170 170 169 170 169 169 167 165 165 164 152  94  81  83  87  89  87  83  80  76  72  67  67  63  62  57  54  51  51  52  51  49  48  48  48  47  47  46  48  52  54  60  63  63  60  56  47  42  42  42  41  41  42  44  47  49  48  50  53  89 118 124 126 126 128 129 130 131 132 133 134 136 136 138 138 138 138 141 141 142 141
 170 169 169 171 172 171 171 170 171 170 168 168 168 167 168 166 167 165 165 165 163 157 114  87  85  86  88  86  84  81  76  71  69  65  63  63  58  55  52  53  52  52  49  48  48  48  48  48  46  50  55  57  60  64  63  58  54  48  43  41  42  41  41  41  44  45  49  48  49  55  97 118 122 122 124 126 127 127 129 129 131 132 133 134 136 136 137 137 138 140 140 140
 168 167 168 168 168 168 169 169 168 167 167 167 165 165 164 164 164 164 163 163 161 159 141  92  85  85  86  85  85  81  76  72  69  65  62  62  59  58  56  57  56  54  53  51  49  48  49  48  45  50  57  58  59  61  60  55  51  46  42  41  40  41  42  40  42  45  47  48  50  56  99 117 120 122 123 124 126 126 126 128 129 132 131 133 135 136 137 136 136 137 139 139
 167 167 166 167 165 166 166 167 167 166 166 164 164 163 163 164 162 162 161 162 160 159 148 105  86  78  82  85  84  80  75  72  72  71  70  67  68  67  66  65  63  59  56  53  51  53  51  49  52  53  57  58  58  57  56  53  49  44  41  40  40  40  40  41  43  46  46  48  50  59 102 117 119 121 121 123 123 125 125 128 128 129 130 132 133 134 136 135 136 137 137 138
 167 166 165 166 166 166 164 165 166 165 164 164 164 162 162 163 162 160 158 159 158 158 145 115  92  83  81  85  85  81  79  78  78  80  78  74  78  77  77  71  69  68  66  62  59  55  53  53  55  55  57  56  57  55  53  51  46  41  40  40  39  40  41  42  44  46  46  48  50  58 107 116 117 119 120 123 122 123 125 127 127 128 129 131 131 132 134 134 135 135 136 136
 162 163 164 164 163 164 162 163 163 162 163 163 161 160 160 159 159 158 156 157 155 156 143 118  99  86  86  87  87  89  83  82  83  81  84  85  83  82  80  78  77  77  71  66  63  62  61  58  58  59  57  58  56  54  52  48  43  40  39  40  39  40  41  42  45  45  47  48  50  60 108 116 117 118 121 122 123 122 123 124 125 125 128 129 130 132 132 132 133 134 136 135
 162 160 161 161 161 162 162 161 161 159 161 159 160 159 159 157 157 156 154 154 153 153 142 119 106  87  87  88  90  90  85  80  86  87  89  85  83  80  79  78  78  79  74  67  65  67  64  61  60  60  55  55  53  53  48  44  41  39  39  39  40  40  40  43  44  43  47  48  50  62 108 115 117 118 118 121 121 120 123 123 124 124 124 128 128 129 131 131 133 134 134 136
 159 158 158 157 157 157 157 158 158 157 156 155 156 156 154 154 154 153 150 149 152 147 139 119 108  92  85  85  88  91  87  78  85  88  88  85  83  81  75  75  76  76  71  66  65  66  64  64  61  57  55  54  51  47  43  41  40  38  39  39  39  40  40  43  42  44  47  47  49  68 109 114 116 117 118 120 119 119 121 122 123 123 124 125 127 128 128 130 132 132 133 134
 155 156 155 155 154 155 156 155 155 154 154 153 153 153 154 153 151 149 150 149 147 145 135 119 110 100  88  82  85  87  83  76  84  87  84  83  82  78  74  74  74  72  68  69  67  64  62  61  60  56  51  49  46  42  39  37  35  36  38  38  39  40  42  42  43  46  48  49  51  68 109 115 115 115 118 118 118 119 120 119 122 122 124 125 127 127 128 128 130 130 132 132
 154 153 153 154 153 154 153 152 153 153 152 152 150 150 151 150 149 148 146 146 145 144 133 120 109 103  92  84  86  84  78  73  80  81  76  74  72  69  70  70  69  69  66  63  62  60  59  60  56  52  48  45  43  40  38  34  34  34  39  39  39  40  40  41  45  46  47  48  49  68 108 113 114 116 117 117 118 119 119 119 119 120 122 124 123 126 125 126 128 130 130 130
 153 151 151 153 155 153 152 150 152 151 150 149 148 150 150 149 147 146 146 145 144 142 129 118 111 104  96  82  82  76  76  70  73  75  71  68  66  61  64  65  64  62  58  57  59  55  53  53  50  48  46  42  40  36  34  35  36  37  39  39  39  39  39  41  44  47  48  49  50  75 110 112 114 115 116 115 117 117 118 118 118 119 119 120 123 124 124 126 128 128 128 129
 150 151 149 150 149 150 150 149 151 149 149 148 147 147 148 146 146 146 143 144 142 139 126 116 110 105  98  87  77  72  70  72  71  66  64  64  63  60  58  55  56  56  54  54  53  48  47  46  46  45  42  39  37  35  34  36  38  39  38  38  39  38  40  42  45  47  48  50  50  76 110 112 113 115 114 115 116 116 116 117 118 118 119 120 121 122 124 125 127 126 127 129
 150 150 148 150 149 150 149 148 148 148 147 147 147 148 146 145 144 143 142 141 139 136 124 117 112 108  98  91  76  68  66  67  65  62  61  62  59  56  54  51  51  53  52  48  47  43  41  42  42  41  38  36  33  34  34  37  38  37  37  36  35  39  41  44  46  48  48  49  52  74 109 112 111 113 115 116 116 116 117 116 118 118 117 118 120 122 122 123 124 126 126 127
 147 147 147 147 148 149 147 146 146 147 146 145 147 147 145 146 144 142 140 141 138 136 124 118 113 106 103  93  83  66  61  61  59  57  55  53  53  55  52  50  50  50  49  44  42  39  39  38  37  35  35  33  33  36  37  37  36  36  36  35  36  40  41  46  48  47  48  49  53  77 108 111 112 112 114 113 115 114 115 117 116 116 118 117 118 120 121 123 123 125 124 126
 146 147 147 146 146 146 147 146 146 145 144 144 144 144 144 144 140 138 138 137 138 133 123 117 112 107 101  96  88  76  58  54  53  52  50  46  46  48  47  46  46  46  44  40  37  35  34  33  33  31  33  32  33  36  36  33  34  36  35  36  38  40  43  46  48  48  50  50  51  77 109 111 111 112 112 112 114 114 114 115 114 115 116 116 117 118 120 122 122 123 124 124
 144 144 144 145 146 145 146 146 144 144 143 143 141 141 139 133 128 121 122 118 130 132 121 116 114 107 103  97  90  82  72  54  47  46  46  41  41  41  42  42  41  42  38  36  34  33  31  31  31  31  32  35  35  35  31  33  35  35  35  36  40  41  44  46  48  50  50  49  51  75 109 110 110 110 111 113 113 114 114 114 114 115 115 116 117 117 119 119 122 122 123 123
 145 145 144 143 144 144 144 144 143 143 142 139 126 101  69  63  57  48  56  65 134 127 122 118 113 108 105 100  93  87  79  71  56  44  39  37  38  37  37  35  34  36  36  33  32  31  32  30  31  33  35  34  34  33  35  35  35  35  35  38  41  43  46  48  50  49  50  50  51  67 104 110 109 110 110 111 111 111 113 114 113 115 115 114 116 116 117 118 119 120 122 123
 144 143 143 142 144 144 142 141 141 140 127 106  73  52  41  33  32  31  49 129 135 126 120 118 114 110 105 100  96  90  84  77  72  60  48  40  36  36  35  33  32  33  34  32  32  32  33  32  32  34  35  36  34  34  33  35  35  36  37  41  42  45  46  49  49  47  49  49  50  52  53  85 103 109 110 111 111 110 112 112 113 113 113 113 114 115 115 117 117 118 120 121
 142 141 142 140 140 140 139 135 123 113  98  92  50  30  25  25  29  79 139 139 131 122 121 116 115 110 107 101  95  90  85  79  73  69  61  55  48  43  38  37  37  36  35  36  34  36  36  35  36  36  35  36  35  35  34  35  36  38  39  42  44  45  47  48  50  49  50  50  50  49  35  47  55  74  95 108 109 109 110 110 111 111 113 113 114 114 115 116 117 117 118 118
 140 139 140 139 138 139 118  89  90  94  86  77  26  37  40  60 120 137 139 136 126 120 118 114 113 107 105 103  96  92  89  83  77  71  67  62  57  53  49  44  40  38  37  36  36  36  36  36  35  36  36  36  35  34  36  36  38  40  41  42  44  46  48  49  49  50  50  49  49  50  33  36  40  42  34  55  96 109 110 110 110 110 113 110 112 113 114 116 117 117 117 118
 140 138 138 135 105  78  84  87  81  89  81  73  52  40  76 125 134 137 138 132 123 118 114 112 109 107 105 102  97  93  88  84  78  73  70  66  61  57  55  51  48  43  40  38  37  37  37  36  37  37  35  36  37  36  37  38  39  41  41  43  46  48  49  50  50  49  49  48  47  50  35  31  36  38  33  32  39  73 105 108 110 109 111 111 112 112 113 114 115 116 115 117
 138 137 123  66  58  65  79  75  81  79  77  74  57  66 116 127 132 136 134 128 119 115 112 110 107 105 104 101  99  93  89  86  81  74  72  66  66  62  59  54  53  50  46  44  43  42  40  40  39  38  37  39  37  40  37  39  42  42  42  44  46  48  48  51  49  48  48  48  48  48  36  31  33  36  34  29  29  31  46  71  99 107 109 109 111 112 113 115 114 116 115 116
 124  92  62  52  54  68  75  74  80  74  72  74  54  82 116 124 129 134 134 124 117 114 110 108 105 101 101 101  98  94  89  87  83  78  73  68  66  65  60  57  54  53  52  49  47  46  45  44  42  39  40  42  40  40  39  42  44  42  44  47  48  49  49  50  49  47  48  47  48  48  37  30  31  32  33  29  25  28  30  33  32  40  60  81 103 110 112 113 114 114 116 116
  63  52  50  47  54  66  71  71  70  69  74  75  61  82 109 121 126 128 126 119 114 111 107 106 105 102 101  99  95  94  91  89  84  79  74  73  69  67  60  59  57  55  54  52  52  50  48  46  45  44  44  43  43  44  44  43  43  45  48  48  49  49  50  50  48  48  47  46  46  48  35  30  29  30  33  31  24  27  27  30  29  31  34  38  38  65  96 110 112 113 114 115
  52  44  46  47  46  56  68  60  71  68  72  70  69  76 100 110 120 123 121 116 111 108 107 103 102 100  98  97  94  94  91  89  84  78  75  73  68  67  64  61  59  56  56  53  54  52  50  49  47  46  47  44  44  44  45  44  45  46  48  49  49  50  49  48  49  47  47  44  44  47  32  28  28  29  30  28  22  24  25  26  25  26  29  31  32  34  38  58  94 111 114 115
  45  48  50  47  44  46  66  64  72  71  62  62  71  70  92 106 112 116 116 113 108 106 106 103 100  98  96  95  94  94  91  88  84  80  76  74  70  68  66  63  60  58  55  54  54  53  53  52  51  49  47  45  45  46  48  48  46  47  48  49  50  50  50  48  48  47  45  43  42  43  30  30  26  27  27  26  17  22  24  23  23  24  27  30  29  30  32  34  36  56  95 111
  48  43  40  42  43  42  58  64  69  57  60  61  66  66  80  97 106 107 108 108 105 105 104 101 101  97  94  94  93  92  91  88  87  80  78  74  72  69  66  65  65  63  58  58  55  53  52  51  50  51  48  49  49  48  46  46  47  46  48  49  50  50  49  47  46  44  43  42  41  37  30  28  25  28  26  23  18  19  20  22  23  23  24  26  29  30  30  30  31  35  34  49
  41  36  39  39  42  42  47  61  61  62  58  56  57  60  65  86  98  99  98 100 102 102 102 100  98  96  93  90  91  90  90  89  86  82  76  75  73  68  66  66  64  61  59  58  56  55  53  53  53  52  52  50  48  48  48  47  48  48  49  50  49  49  47  46  44  42  42  42  41  34  30  24  25  27  26  19  18  18  19  20  23  21  24  26  27  29  28  30  30  31  35  31
  34  38  41  42  40  48  48  56  62  62  56  59  52  54  67  77  87  90  91  91  99 100 101 101  96  95  95  89  89  89  89  87  85  82  78  75  72  70  68  65  63  60  59  56  55  54  53  52  52  52  51  51  49  48  48  48  48  50  50  50  49  48  47  46  43  42  41  41  35  33  29  25  25  26  25  18  18  19  20  20  23  19  24  23  24  28  28  30  28  30  35  29
  36  39  42  44  37  40  47  46  60  52  53  51  51  56  57  63  69  84  88  87  93  97  99  98  96  92  92  88  86  87  85  84  83  82  78  75  72  70  68  68  66  64  61  59  57  55  53  53  53  52  50  51  50  48  48  48  49  50  50  48  49  47  46  44  43  42  42  37  30  32  27  24  26  25  24  16  19  21  21  19  20  22  25  24  24  26  28  29  30  29  31  31
