P2
# Generated by OpenCV 3.4.0
92 112
255
 168 167 167 166 170 170 169 168 169 169 166 166 167 167 166 165 166 165 166 163 151  66  46  45  50  54  58  58  54  52  51  49  46  43  41  41  38  34  33  30  29  30  30  32  33  31  29  25  24  23  23  24  24  25  24  22  22  20  20  20  22  27  34  45  65 135 153 159 160 161 160 159 159 160 160 159 159 158 158 158 156 156 157 157 156 157 156 154 155 154 156 154
 166 167 168 166 168 168 168 166 168 168 166 167 167 166 166 165 164 166 166 163 138  44  44  47  51  51  52  50  52  49  47  46  46  52  51  50  50  39  34  36  37  34  28  26  24  24  24  23  23  24  24  21  20  23  22  23  23  23  20  19  20  22  26  35  44  89 149 157 160 160 160 159 159 160 159 160 160 160 160 159 158 158 156 157 156 156 155 155 154 155 156 154
 165 165 166 165 165 167 166 166 167 167 166 166 165 164 165 165 166 167 166 163  99  46  44  44  38  37  42  47  46  48  47  46  47  50  49  50  43  43  42  40  35  30  23  21  18  17  17  16  17  19  21  22  20  20  20  21  21  22  22  22  20  20  23  29  35  58 143 155 160 160 159 160 160 160 159 158 160 159 160 160 159 157 159 158 157 157 156 154 156 155 154 154
 164 164 166 165 166 166 167 166 165 165 166 166 165 165 166 166 166 166 165 158  69  48  47  37  37  43  42  44  43  38  37  39  46  50  44  41  38  36  32  28  25  18  17  16  15  15  15  16  16  16  17  19  19  21  20  20  21  20  20  20  23  23  22  25  30  48 116 151 160 160 159 160 160 159 160 159 160 157 159 160 160 160 159 158 156 156 157 157 155 155 156 155
 164 165 165 165 165 166 165 165 167 166 166 167 166 168 167 167 167 166 165 144  56  50  39  33  37  44  40  34  28  28  35  41  44  38  35  31  28  24  24  23  18  18  16  16  16  16  15  16  16  15  16  17  17  17  20  19  20  19  19  19  21  22  24  25  28  37  55 138 155 159 160 160 160 160 159 159 156 156 157 160 161 159 159 158 157 157 156 155 156 157 156 154
 163 165 164 164 165 166 165 165 166 166 166 167 166 167 166 165 165 165 161  99  54  41  32  33  39  36  32  29  30  33  33  38  34  30  26  24  21  22  23  19  17  18  17  17  17  18  17  17  17  17  16  16  16  16  17  19  19  19  19  18  18  19  24  23  25  32  45 119 151 159 160 159 159 160 160 159 160 160 158 160 157 159 159 158 158 158 157 156 156 156 155 154
 164 165 165 164 164 167 166 166 166 166 167 167 167 166 167 166 165 165 154  61  45  34  32  35  31  30  31  32  35  33  40  38  31  26  24  22  23  25  22  20  20  20  20  20  21  20  20  21  20  20  19  18  18  19  17  18  21  19  18  19  19  20  20  24  23  27  36  80 144 159 161 160 161 160 160 160 160 160 159 159 158 158 158 157 159 159 158 156 156 156 155 155
 165 166 166 165 167 167 166 166 165 166 166 167 167 167 166 166 165 163 116  48  39  32  34  32  30  32  35  38  41  37  35  28  27  25  25  24  26  25  24  24  23  25  26  25  25  25  25  26  25  25  24  24  23  22  22  20  19  20  20  20  20  20  22  24  23  26  36  45  91 155 160 159 160 161 160 160 160 160 158 159 158 157 158 160 160 159 158 156 155 157 158 156
 166 167 167 166 166 166 166 166 167 166 166 167 168 165 166 165 164 160  70  43  35  34  34  30  32  34  33  32  31  30  27  27  29  29  28  31  31  30  30  29  29  32  30  31  32  31  32  32  32  30  30  30  28  26  25  24  23  22  21  21  20  21  22  24  24  23  28  30  32  92 153 160 160 161 160 160 158 160 160 160 160 158 157 158 158 159 156 156 156 157 156 156
 165 166 168 166 167 166 166 167 167 167 166 167 166 165 165 164 163 155  43  39  35  33  34  32  32  33  32  31  31  30  32  33  32  34  35  38  36  35  36  36  37  39  38  39  39  40  39  40  40  38  38  37  34  34  32  31  28  27  25  23  22  21  22  24  23  22  23  26  32  47 125 159 161 160 160 160 160 160 160 160 160 159 159 158 159 158 156 156 156 156 155 158
 167 166 167 167 166 166 167 167 168 166 167 167 167 166 166 164 161 114  44  36  34  35  35  34  33  37  35  34  34  36  38  39  39  43  43  44  44  45  45  45  45  45  44  46  46  46  45  45  46  45  45  44  43  42  38  36  36  32  30  27  25  24  24  23  21  22  23  26  31  47 107 159 160 160 160 160 160 160 157 158 159 159 159 158 157 157 156 156 156 155 156 156
 166 166 166 165 166 165 166 167 167 166 166 166 166 166 165 165 159  85  42  36  33  36  36  36  42  42  39  41  42  46  47  48  48  50  52  52  51  52  51  52  51  52  53  52  52  53  54  53  54  54  53  52  50  51  47  44  42  38  36  34  31  29  27  24  22  23  27  29  30  44  93 155 161 161 160 161 161 160 159 160 159 158 159 159 157 157 158 156 155 155 156 156
 165 165 165 166 166 165 166 166 166 166 166 164 166 165 164 163 144  54  38  37  36  37  38  43  48  44  47  49  52  56  60  60  63  63  62  58  57  59  60  60  61  61  63  62  62  62  62  60  61  61  62  60  58  57  56  54  50  48  45  42  38  34  32  26  23  25  26  30  31  36  49 136 160 161 160 162 160 159 157 159 159 159 158 157 157 158 156 156 154 156 156 157
 165 164 166 166 165 165 165 166 166 165 166 164 164 164 165 163 107  52  38  37  39  38  50  53  48  51  57  59  65  70  73  75  76  74  69  65  65  65  67  68  70  69  70  67  68  66  67  66  65  65  66  65  64  63  62  61  58  55  54  49  46  42  40  32  27  26  27  30  30  32  45  94 153 161 161 161 161 158 158 159 160 158 156 156 158 158 158 155 156 159 158 155
 165 165 166 165 165 165 164 164 165 166 165 164 163 164 164 161  68  48  42  40  47  47  65  56  61  67  70  76  79  81  82  81  79  78  76  74  73  73  74  73  75  75  74  75  75  74  73  71  72  71  70  69  69  69  68  68  67  66  62  58  52  50  46  40  32  27  30  26  27  31  38  74 147 158 161 161 160 159 159 160 160 160 159 158 158 157 156 155 158 159 158 156
 166 165 166 166 166 166 164 164 165 166 165 165 165 165 163 143  49  45  48  53  67  64  68  68  75  78  82  86  88  87  86  86  86  83  82  79  79  79  78  78  81  82  80  81  81  79  77  80  80  79  78  76  75  76  74  72  72  71  69  64  60  54  50  47  37  29  31  26  26  30  34  47 129 155 160 159 158 158 158 159 158 159 159 158 158 158 156 156 157 156 158 158
 166 165 165 166 166 165 165 164 165 166 165 166 164 165 162 115  47  50  59  71  93  88  83  84  87  90  93  94  95  94  94  91  90  87  84  84  83  83  85  85  85  86  85  84  86  84  82  84  86  85  84  85  82  83  80  79  78  77  72  68  65  60  56  53  43  33  32  28  26  29  35  42  81 150 155 157 157 156 156 158 156 155 154 155 156 154 156 157 157 157 156 155
 167 166 165 166 165 166 165 165 167 166 166 165 165 166 161  87  52  61  72  93 115 112 103 102  97  99 102 102 103 102 101  99  99  95  92  90  90  88  92  91  90  88  87  88  86  86  85  87  88  86  86  87  87  86  86  83  82  80  78  74  70  64  62  59  49  39  30  30  27  29  32  37  56 141 156 159 159 159 159 159 159 158 159 159 156 155 156 155 158 155 156 155
 168 166 166 165 164 166 166 167 167 166 166 166 167 166 156  59  62  68  84 115 125 122 113 110 110 109 109 108 107 106 104 103 101 101  97  96  96  93  94  92  91  89  87  87  87  86  88  90  93  92  91  90  89  89  87  84  85  83  80  78  75  70  67  63  54  44  33  30  28  31  32  32  46 133 154 159 159 159 159 160 159 157 157 155 155 158 156 156 157 156 156 154
 168 167 167 167 166 166 166 166 166 168 168 168 166 165 147  61  62  71  95 124 126 125 121 119 118 117 116 112 110 108 103 102 101  99  98  97  97  97  93  91  88  87  88  88  88  87  89  93  94  95  93  91  89  90  90  86  85  85  81  79  77  76  72  67  60  50  38  30  28  31  33  32  41  80 149 158 159 156 158 159 157 159 158 156 155 156 155 155 155 154 155 155
 166 167 168 167 166 166 166 167 167 168 168 167 168 165 122  63  62  74 104 125 127 124 124 123 124 122 120 117 111 108 104 102 100  97  97  96  95  92  90  89  83  86  87  88  85  86  88  92  95  93  90  88  89  87  85  86  85  84  81  81  79  78  75  71  68  60  47  31  29  29  33  33  38  49 141 154 158 157 158 158 157 158 157 157 155 155 156 158 157 157 155 155
 168 170 169 169 170 169 169 167 168 168 168 168 169 165  97  61  64  78 107 125 128 125 127 126 127 125 123 119 113 107 102  99  98  97  96  94  92  90  88  86  84  84  85  85  86  88  91  93  90  86  86  83  84  84  84  85  83  83  81  80  78  77  75  73  71  66  55  38  30  27  32  32  36  46 111 154 158 157 158 158 158 159 158 160 160 157 157 158 157 159 157 156
 170 170 171 171 172 172 172 172 172 171 171 172 171 166  74  63  67  76 110 124 128 128 130 129 128 126 124 116 109 103 101  98  96  94  92  90  88  88  85  84  82  82  82  82  82  87  90  87  85  82  81  80  81  82  80  80  79  79  79  78  77  75  75  73  74  69  63  45  31  28  31  30  33  42  89 151 158 158 158 158 159 158 158 158 156 155 158 159 158 158 156 156
 173 173 173 174 174 175 176 174 175 175 176 176 174 166  62  64  64  78 108 123 128 131 131 129 126 123 118 109 103  99  97  92  91  90  87  85  84  84  84  79  76  80  80  80  80  84  84  83  79  78  77  78  76  75  75  75  72  72  73  75  72  75  75  73  74  71  66  51  32  28  29  28  31  39  49 136 155 159 158 157 159 158 158 159 157 156 156 156 156 156 155 156
 180 179 181 180 180 180 181 183 184 181 183 181 181 161  57  60  63  78 112 125 130 131 129 124 118 108  96  88  83  80  78  78  81  81  81  81  81  80  77  76  75  77  76  75  76  82  82  79  75  74  72  70  69  65  62  59  51  54  60  64  67  69  75  74  73  71  68  59  35  29  26  28  30  33  46 112 153 160 158 156 158 158 159 158 158 157 158 157 156 158 155 156
 186 188 189 186 188 188 191 191 191 192 194 191 189 142  59  56  61  84 114 128 133 129 120 102  74  64  55  49  47  49  52  52  62  63  67  66  72  73  70  70  72  73  74  74  74  80  77  73  70  65  63  60  58  50  49  42  36  38  37  38  38  45  53  63  64  67  67  60  39  30  27  28  31  32  43 115 154 158 158 160 160 159 160 159 160 159 158 158 157 159 158 156
 194 194 196 196 196 195 198 198 198 199 200 199 197 126  61  52  62  85 119 128 128 103  83  70  53  44  38  36  36  35  33  36  44  50  50  54  59  64  68  71  72  72  72  72  71  76  73  67  58  53  49  46  43  38  37  32  31  30  25  26  24  25  24  24  25  28  33  35  31  28  25  27  30  31  40 119 153 158 159 160 160 159 161 158 160 160 159 159 158 160 158 157
 192 193 193 193 194 195 193 194 197 196 197 198 195 115  58  51  57  88 120 124 101  68  63  56  50  45  44  42  40  37  36  35  39  40  41  45  46  52  60  69  70  71  73  72  72  74  67  57  47  41  39  32  29  27  30  33  38  36  30  29  28  27  28  29  29  29  33  36  26  22  21  23  27  29  36 109 153 158 160 160 161 159 159 159 160 160 159 160 160 159 157 157
 186 186 186 187 186 188 186 189 188 189 189 187 185  88  52  50  53  80  73  54  38  39  43  48  52  51  53  50  49  48  48  41  34  29  31  31  35  40  47  55  65  70  72  67  68  67  55  44  38  32  26  27  30  32  32  32  35  36  36  36  37  37  34  35  35  34  33  54  44  28  23  22  21  28  36  74 155 159 160 160 159 159 160 160 160 160 159 160 159 159 157 158
 181 180 180 178 179 179 180 179 180 180 180 178 171  76  55  52  50  41  42  53  61  69  76  79  77  72  68  61  64  66  60  53  46  42  40  37  34  30  32  33  38  39  36  27  26  24  30  32  29  28  31  30  32  40  43  44  46  46  45  46  47  47  48  48  43  38  38  38  46  30  29  23  20  22  25  58 149 157 159 158 160 159 159 160 160 161 160 159 158 158 157 158
 172 173 174 174 175 174 175 175 174 174 174 139  99  53  50  44  40  65  87  63  71  85  87  82  73  67  64  58  52  49  47  43  42  42  42  43  47  41  32  30  30  30  27  24  22  22  27  29  28  32  33  34  34  38  38  40  40  43  42  45  46  48  50  50  48  43  40  39  40  28  26  30  22  24  29  65 150 156 156 156 158 159 158 159 161 160 159 160 157 158 157 156
 171 171 173 172 172 174 174 173 173 172 171  72  92  49  46  39  51  98  91  77  80  83  74  65  58  49  44  40  40  39  40  40  41  41  42  43  43  44  42  30  29  24  24  26  24  21  25  27  32  34  34  35  36  37  37  35  34  34  31  28  28  29  35  40  43  43  42  41  40  27  26  29  26  25  30  77 149 158 161 161 161 161 161 161 160 160 160 160 158 158 158 158
 171 171 170 170 170 172 172 171 170 170 169  55  50  46  41  47  43  95  96  87  88  81  55  42  36  29  26  26  25  26  28  31  35  37  40  40  43  44  50  30  26  31  53  75  60  36  26  27  34  34  33  34  35  35  33  30  26  24  22  21  21  22  21  27  31  38  41  42  46  30  24  26  31  23  33  89 152 158 161 161 161 161 161 160 161 160 159 158 160 159 158 158
 169 169 169 168 170 171 172 171 171 169 168 104  79  62  44  46  41  95 105  85  81  72  41  29  28  30  28  24  24  24  26  27  29  32  36  37  41  45  50  30  28  53 104 112 103  65  30  27  35  33  33  34  33  29  29  28  28  25  19  17  18  20  23  23  23  29  37  42  49  37  22  26  32  23  34  98 154 160 161 161 161 160 161 160 160 161 159 159 158 157 156 156
 168 168 169 169 168 170 170 170 170 169 168 162  67  58  52  45  40  98 106  79  72  57  32  29  33  36  28  33  32  23  24  33  33  34  32  37  40  45  52  29  28 101 121 119 111 100  43  27  36  33  30  31  29  30  30  33  39  28  30  21  18  18  25  26  21  24  32  40  48  47  22  27  32  26  37 107 156 160 161 161 161 160 161 160 160 160 160 157 157 156 159 156
 168 168 169 168 169 169 170 171 169 169 168 166 113  52  64  46  40  99 105  77  60  50  31  33  47  47  45  41  36  26  27  38  39  34  36  38  41  46  50  24  68 126 125 123 116 110  85  24  32  33  31  30  31  31  33  46  57  47  28  22  19  21  28  29  23  23  27  37  48  53  24  26  34  26  34 117 154 159 160 161 162 161 161 160 158 158 159 158 159 159 159 158
 168 168 168 169 169 168 169 169 169 169 168 168 156  55  77  51  40 108  96  72  57  48  33  40  67  65  52  28  26  26  35  55  56  41  37  43  52  56  45  27 112 135 132 129 122 113  95  44  28  35  36  36  31  31  38  54  86  48  30  22  23  24  37  35  26  23  26  36  47  60  29  24  32  27  35 108 154 160 160 161 160 160 160 159 158 159 159 157 160 160 156 159
 168 169 168 168 169 169 169 168 169 168 169 167 163  83  60  46  42 117  95  68  49  43  36  55  77  85  54  35  38  37  52  67  63  49  39  41  63  67  36  60 125 140 136 130 123 114  96  68  23  35  40  33  27  30  38  56  73  76  51  34  34  42  47  39  29  25  27  35  44  59  38  24  30  26  32 110 154 160 159 160 161 160 159 160 159 159 157 159 159 160 157 157
 168 168 168 167 168 168 168 168 168 166 167 166 163  99  54  49  55 108  96  75  50  48  49  61  76  87  89  70  65  62  68  64  60  55  57  66  72  64  24  99 121 136 141 135 128 115  96  74  36  29  42  44  49  47  48  52  54  58  59  57  57  59  56  50  47  36  31  35  43  55  51  25  28  26  33 105 154 159 161 161 160 161 159 160 160 159 160 159 159 159 159 158
 167 167 167 167 167 168 168 168 168 168 168 167 166  99  50  53  54 111 102  80  58  61  67  69  74  76  75  74  73  67  63  58  59  64  66  68  72  46  39 107 118 134 144 140 131 117  98  76  53  21  40  48  49  48  48  49  52  53  53  56  58  60  58  56  53  50  42  38  43  54  60  27  26  25  30 105 156 160 161 161 161 160 160 161 161 160 160 157 158 160 158 157
 167 167 167 167 167 167 167 168 167 168 167 166 161  88  44  48  50 112 100  84  76  88  86  83  81  82  79  73  66  58  57  63  68  68  70  76  73  25  66 110 121 136 147 146 134 121 103  82  63  26  23  52  50  50  54  58  58  56  53  50  49  49  49  49  50  52  53  52  49  57  66  38  26  24  29  85 156 160 161 161 160 161 160 160 161 160 160 159 160 158 155 155
 167 167 168 168 169 169 168 168 167 168 167 165 148  69  41  46  57 114 106  97  99  98  88  81  72  72  70  67  64  67  69  70  72  72  82  88  39  21  94 114 125 139 149 152 142 125 110  91  70  48  20  23  60  66  67  64  66  65  63  61  58  57  57  58  59  60  62  64  62  62  66  40  27  26  29  80 154 159 160 161 160 160 159 159 159 160 159 159 158 156 156 157
 166 167 167 168 168 168 169 169 168 166 167 165 139  68  42  45  80 114 114 113 115 102  90  80  76  75  78  77  76  76  74  72  77  88  95  57  23  38 104 118 127 143 149 154 146 128 114  96  79  64  34  23  24  63  78  77  71  67  65  63  64  65  64  66  65  66  68  70  69  67  48  30  36  32  31  85 152 159 160 160 161 160 160 160 160 160 160 157 159 156 157 156
 168 167 167 168 168 170 169 167 167 168 168 166 143  70  45  39  81 117 120 124 119 106 101  92  86  84  84  83  82  80  80  88  96  96  58  24  36  63 110 120 131 143 149 155 145 133 115  94  80  68  54  36  30  19  46  77  81  77  71  66  64  64  65  67  68  70  70  70  70  40  25  59  48  34  35 107 151 159 159 160 159 160 160 158 157 157 157 156 157 158 156 155
 168 168 168 168 167 169 169 168 169 168 167 166 156  77  56  60  41 113 125 124 119 113 107  97  91  86  85  86  86  92  98 103  94  44  26  67  56  91 115 122 133 139 145 152 144 131 115  96  82  72  64  45  50  47  25  20  41  64  80  81  79  77  76  79  79  71  58  40  20  35  64  68  57  35  48  90 127 156 157 157 158 159 160 159 159 157 157 155 154 155 155 155
 168 168 167 168 168 167 168 168 168 168 168 168 158  97  77  81  81  45 111 120 117 116 110 104  99  95  96  97  98 105  90  56  24  57  95  74  73 103 119 124 128 134 139 142 135 123 108  88  78  71  66  60  46  59  68  59  42  27  17  16  22  26  28  21  17  18  28  44  65  73  72  69  63  36  48  64  73  99 152 156 159 158 159 158 158 157 155 154 155 154 155 154
 168 168 168 167 167 167 168 168 168 167 168 162 140 105  82  87 125  97  39  63  91 108 112 109 105 103  95  77  61  35  32  65  99 108  90  70  87 127 129 126 124 125 125 127 116 105  95  80  69  67  68  75  57  48  63  73  78  82  84  80  73  71  66  71  76  81  81  78  71  71  72  69  67  37  47  55  51  59 121 154 157 158 157 157 157 158 156 155 154 154 154 152
 167 168 168 167 166 166 168 169 168 168 166 132 107 103  72  91 127 127 120  89  57  41  35  31  31  34  46  65  83 106 118 115 105  95  76  80 127 136 130 120 112 108 106 102  92  81  75  63  57  56  64  79  79  53  55  65  75  78  80  84  86  88  86  82  79  77  77  75  66  68  71  71  68  37  38  35  39  41  79 152 159 157 159 157 157 157 155 154 154 154 154 153
 167 168 168 168 168 168 168 168 169 169 166  95  65  62  64  88 129 127 125 124 121 119 118 119 121 123 123 125 123 120 114 105  95  83  75 116 127 122 114 102  92  85  82  80  74  67  59  52  46  46  53  64  71  69  55  58  66  72  77  81  84  86  85  83  82  77  74  73  72  70  69  70  68  36  34  34  39  39  64 150 156 156 159 155 155 156 156 153 154 153 152 152
 167 168 168 168 168 169 168 168 169 168 164  83  57  53  55  83 127 127 126 124 120 120 124 124 123 124 126 124 121 115 107  96  87  81  92 118 109  95  87  77  73  70  69  66  63  56  49  46  42  40  43  49  53  60  60  58  63  66  71  76  79  82  80  80  79  78  74  71  72  70  68  67  66  36  38  37  38  41  59 150 155 155 156 155 156 154 153 153 152 153 151 152
 168 167 168 167 168 169 168 169 169 169 165  80  56  56  57  79 128 127 125 121 118 119 123 126 126 123 121 118 112 105 100  92  85  86 101 103  87  68  57  46  44  45  58  58  54  48  45  42  28  21  27  38  44  48  54  59  63  65  69  74  77  78  75  73  73  74  73  69  69  69  69  66  63  37  43  43  40  43  57 147 155 156 155 155 156 153 153 151 151 151 151 151
 168 167 167 167 167 168 168 169 169 169 164  85  54  58  67  67 126 125 124 121 120 122 125 124 123 119 115 110 106 100  98  92  87  88  91  82  66  51  31  22  20  17  23  54  50  43  41  33  17  16  20  29  40  44  46  56  66  69  69  71  72  74  75  74  72  69  67  66  64  67  67  67  61  44  47  49  43  45  63 146 155 155 156 156 154 152 153 152 150 151 150 150
 168 167 169 168 168 168 169 168 168 169 161  80  55  61  81  78 120 123 121 122 125 125 126 124 119 114 109 105 105 101  94  88  85  86  81  67  54  42  30  26  21  27  37  45  49  42  40  29  22  21  26  30  37  40  41  49  64  70  74  76  74  74  73  71  68  65  64  64  62  64  66  65  58  44  47  56  46  46  69 147 154 155 155 154 154 153 152 152 150 150 151 149
 167 168 168 168 168 168 168 168 168 168 163  83  60  70  96  99 114 122 120 122 123 123 122 116 110 108 108 106 102  96  90  88  87  89  81  62  49  42  38  37  38  44  49  53  51  42  38  33  30  30  30  31  33  33  38  49  60  69  73  74  75  74  75  72  67  66  65  64  63  64  65  63  55  39  43  54  55  52  80 150 153 154 155 154 154 153 153 152 150 150 150 149
 168 169 168 168 168 167 168 169 169 168 163  93  70  85 106  92 104 122 121 121 118 120 117 112 111 109 105 102  95  91  89  89  90  95  90  72  52  41  38  44  51  54  53  53  48  41  39  37  36  32  29  29  28  32  44  54  60  66  70  74  71  72  73  71  70  66  62  62  62  62  64  63  51  37  41  51  59  61 103 150 154 155 153 153 154 152 152 151 150 150 148 148
 166 168 168 166 167 168 168 168 168 168 165 115  84  95 107  78  85 117 120 118 118 116 111 112 111 106 100  96  94  91  89  90  97 102  96  84  69  59  56  58  61  60  54  51  48  42  41  43  41  39  36  36  38  42  50  59  65  66  68  69  70  70  70  68  66  65  63  61  61  60  62  61  57  42  40  47  62  67 134 153 153 154 153 152 152 150 151 150 150 150 149 147
 167 167 168 167 166 166 167 167 168 168 167 144  98  99 102  69  68 116 114 116 115 111 107 110 109 102  97  95  92  89  92  97 106 109 105  94  79  74  73  71  71  69  65  56  50  44  44  49  47  45  44  44  45  48  55  62  68  67  66  66  68  67  67  66  65  61  60  59  58  59  59  60  56  43  39  46  67  78 146 152 154 152 152 151 150 149 150 149 150 147 149 146
 167 167 168 168 167 167 168 167 167 167 167 162 124 108  97  66  77 116 113 115 114 109 106 107 104  99  93  88  88  91  96 106 113 111 106  97  87  87  85  83  82  80  70  61  53  49  52  54  54  52  50  49  49  52  57  61  67  69  65  64  65  65  65  66  65  60  58  57  55  55  55  60  52  44  42  56  65  89 147 153 153 152 152 152 152 149 149 148 147 148 145 145
 167 168 168 167 168 169 169 168 169 168 169 166 149 118  94  69  84 114 113 114 111 108 104 101  97  93  89  87  92  96 102 110 113 110 106  98  96 100  99  93  91  86  77  65  58  57  58  60  62  61  57  57  58  60  62  65  66  65  64  60  62  63  64  64  62  59  57  56  53  54  54  60  49  49  55  65  62  91 147 151 152 152 150 150 150 147 148 148 147 147 146 144
 167 167 167 168 168 167 168 167 168 169 168 166 160 124 113  84  84 109 112 112 108 106 104  98  97  95  96  92  95 102 104 108 106 106 104 102 104 106 103 100  97  94  82  71  67  65  65  67  69  69  64  65  66  66  67  68  65  65  62  59  55  61  62  62  62  58  54  51  52  53  57  61  54  62  66  59  68  98 147 151 150 151 151 150 149 147 147 145 146 146 145 145
 168 167 166 167 167 168 168 168 168 167 167 166 162 130 122 123 111 106 112 108 106 105 100  97  95  95  97  98  97 100  99 104 103 104 103 101 106 109 104 102  98  89  84  83  79  74  76  72  70  68  66  66  69  71  71  70  69  69  65  64  63  61  61  60  59  59  53  52  51  53  55  62  61  61  65  73  78 106 147 150 151 150 150 149 147 147 146 147 146 146 144 144
 167 167 166 166 167 168 167 168 167 167 166 166 162 138 115 122 114 121 115 108 106 103  98  96  97  95  93  99  98  99 101 104 104 105 105 103 104 104  98  89  79  73  75  76  76  72  68  61  55  50  51  55  63  69  70  69  69  68  66  63  66  64  60  60  58  55  52  52  51  52  55  61  61  65  69  72  79 119 148 149 150 150 151 149 148 146 144 145 144 144 144 143
 167 167 166 167 166 167 168 166 167 166 167 167 165 149 145 133 119 122 118 109 108 103  98 100  97  94  96  98  98  99  98 101  98  99 100 100  98  90  77  63  56  57  56  55  52  53  47  43  43  42  41  41  44  50  55  60  66  64  59  57  61  62  61  59  57  56  51  49  50  52  55  61  63  65  68  70  77 139 149 151 150 149 148 148 148 146 145 143 144 142 143 143
 166 168 168 168 167 166 166 167 166 167 168 166 166 156 151 142 133 125 119 106 108 104  99  98  96  96  94  95  98  93  88  87  86  90  90  82  72  59  54  53  53  51  48  47  45  43  40  38  39  38  37  38  38  37  39  44  51  54  52  49  52  60  63  57  56  55  51  49  49  52  54  61  62  63  63  63  78 143 147 148 148 147 148 148 147 146 145 144 144 142 143 142
 167 167 168 166 167 168 167 167 168 168 166 166 166 160 140 137 134 135 124 107 106 102 101 100  97  96  95  93  94  85  78  74  75  76  69  57  51  50  47  45  44  44  43  39  41  39  35  35  33  32  32  33  32  32  31  32  34  41  43  42  47  54  60  57  56  55  51  48  49  52  56  59  58  58  58  55 109 146 148 150 150 150 148 149 148 145 144 144 143 142 143 143
 165 168 168 166 167 166 167 167 167 167 168 168 167 162 130 124 130 128 116 111 106  99  99  98  98  95  93  91  90  80  67  60  60  57  47  43  44  41  36  34  32  32  36  33  35  34  30  30  27  25  24  24  23  25  24  25  27  27  29  31  38  46  54  56  58  55  50  50  50  52  57  56  49  51  51  94 142 147 149 150 150 150 147 149 146 145 144 143 142 142 141 141
 168 167 167 169 167 168 168 168 169 168 168 168 167 166 138 107 108 100  94 113 106 100 101  95  96  95  92  91  85  71  56  46  41  36  32  32  32  34  38  39  40  41  47  44  48  49  49  48  46  43  40  37  33  31  28  25  24  23  25  28  38  48  53  57  57  54  52  51  52  54  59  79  74  75 114 143 146 147 149 149 150 149 149 148 147 145 144 143 143 142 142 141
 168 167 167 169 168 168 169 168 168 168 169 169 169 167 164 133  90  81  95 120 109 105 102  95  99  94  90  87  82  67  51  39  31  34  42  54  63  67  70  73  75  73  75  70  72  74  80  80  79  72  67  60  51  46  42  39  36  39  43  43  48  55  59  61  59  55  52  52  51  54  63 116 141 141 143 146 148 147 149 149 149 148 148 148 146 146 144 143 142 143 142 140
 168 168 167 167 168 168 168 168 167 168 169 168 168 166 166 163 157 155 160 131 111 106 102 102 101  94  91  86  79  68  59  59  69  69  66  69  72  75  77  78  81  82  82  77  74  71  74  71  70  64  56  53  48  47  47  50  53  53  54  55  55  62  64  62  59  54  52  51  51  56  62 127 143 143 144 145 146 147 148 149 149 149 149 146 146 146 144 144 143 142 142 142
 167 168 167 168 167 168 168 167 168 168 168 168 169 167 167 167 164 163 162 141 114 106 101 102 102  96  92  89  84  77  73  77  85  87  84  84  82  82  79  76  72  70  67  65  63  61  60  60  56  53  50  48  49  52  51  55  56  58  60  62  57  63  67  63  58  53  51  51  52  55  64 134 142 143 144 145 146 147 148 149 150 148 149 146 146 146 144 143 143 141 140 140
 167 167 167 168 168 169 169 168 169 168 168 167 166 167 167 166 165 164 163 150 116 107 103 100  99  98  95  90  86  82  83  85  90  93  93  93  89  88  82  76  71  68  66  62  59  56  54  55  53  53  51  50  50  51  51  51  52  57  61  66  57  62  66  61  55  50  51  51  51  56  80 133 140 141 142 144 146 146 147 148 148 146 145 144 144 144 141 141 140 140 139 140
 168 168 169 169 168 170 169 169 169 167 167 168 168 168 168 167 166 166 164 160 121 107 102  98  99  97  93  91  88  84  85  88  87  90  94  93  91  87  83  76  72  69  62  58  56  54  52  51  51  52  52  51  48  48  48  50  55  60  64  67  64  64  63  57  51  48  49  49  51  58  97 134 139 139 141 142 143 145 146 147 147 146 146 147 147 145 145 144 143 142 141 141
 167 167 166 168 168 169 169 168 169 168 169 170 167 168 168 167 167 166 165 161 134 107 100  97  99  95  91  89  89  86  87  93  87  73  90  89  86  84  80  75  73  69  66  62  59  56  55  54  55  54  50  50  49  51  53  56  60  64  65  66  67  66  62  53  48  49  48  49  52  60 114 134 138 139 138 141 142 143 143 145 146 145 146 146 145 144 144 144 143 142 141 142
 168 166 168 169 169 171 170 171 170 170 171 168 168 169 169 168 169 168 166 164 151 107  97  95  95  93  93  91  91  87  88  92  89  82  90  89  85  82  79  72  71  70  67  67  63  60  58  59  60  58  56  52  52  55  59  59  62  65  65  66  67  65  62  54  49  49  49  49  53  74 123 132 135 137 138 138 141 142 144 143 144 144 144 144 146 145 144 144 142 142 142 141
 170 169 170 170 172 173 172 172 172 172 171 171 170 170 170 170 170 167 167 168 162 120  98  93  94  93  91  89  88  90  91  94  92  92  91  87  84  83  80  77  75  72  70  69  68  65  62  66  63  63  63  59  57  58  60  54  61  66  66  65  65  62  60  55  50  49  49  51  54  94 126 132 134 136 137 138 140 142 142 144 145 145 144 144 143 144 145 142 143 142 142 141
 171 171 171 171 171 172 173 174 174 172 172 172 172 172 170 170 170 169 169 169 164 144 102  92  90  88  88  85  84  88  92  94  93  92  86  90  86  84  82  79  77  72  71  70  69  70  70  71  70  67  66  63  64  64  62  62  64  67  67  65  64  61  57  51  49  48  49  50  58 115 127 129 131 135 136 136 139 140 140 141 142 143 144 144 143 144 144 142 141 142 141 141
 172 171 171 173 172 173 174 174 173 173 172 172 172 172 171 170 170 169 169 167 167 157 110  94  89  87  86  83  83  86  91  94  95  92  90  91  87  85  81  79  80  81  79  77  82  81  81  79  76  74  75  73  72  68  68  68  68  67  67  66  62  59  55  51  49  48  49  52  74 118 125 129 130 132 134 134 137 138 139 141 142 143 144 143 143 143 143 142 142 141 140 138
 170 171 171 172 174 174 174 174 174 173 174 172 172 171 171 171 170 170 169 169 166 157 120  96  89  87  85  82  83  86  90  92  94  92  91  88  85  82  82  85  86  87  87  86  87  86  86  86  86  85  83  80  79  76  76  72  71  69  68  66  61  60  54  50  47  47  49  56  75 118 126 127 128 130 132 136 136 136 138 140 141 143 143 142 143 143 142 142 143 140 140 139
 170 171 172 173 172 174 175 176 173 174 173 172 173 172 171 171 169 167 167 167 166 157 125 102  91  88  85  82  82  85  87  88  92  92  91  89  86  86  85  86  87  88  90  93  93  91  88  86  88  88  86  78  76  79  77  74  72  69  66  64  63  58  53  49  47  48  50  56  74 116 124 124 127 129 131 133 134 136 138 139 140 141 142 141 142 141 141 141 140 140 139 140
 170 171 172 173 173 174 174 174 173 174 173 172 172 169 171 170 168 167 167 166 165 156 128 109  93  88  84  82  83  85  87  78  88  92  93  92  93  90  88  90  93  97  97  96  94  89  83  83  86  84  82  77  75  77  77  74  73  69  65  63  59  55  51  48  48  49  51  56  73 116 123 124 126 127 130 132 132 135 137 137 137 139 141 140 140 140 140 141 140 139 140 139
 171 170 171 172 172 172 173 172 173 171 172 170 169 169 168 169 167 166 165 164 164 155 126 113 101  88  84  84  84  85  87  85  89  92  96  98  98  91  86  88  93  98  98  93  92  92  85  86  85  83  78  76  77  74  72  72  69  66  62  59  52  49  48  47  47  50  50  56  74 114 121 124 124 128 128 129 131 132 134 137 138 138 138 141 140 140 139 138 139 138 141 138
 170 168 170 172 170 172 173 172 172 172 171 170 168 168 166 166 166 165 163 162 162 155 130 117 107  92  84  84  83  84  86  91  92  93  97  98  97  90  83  86  91  96  94  90  90  86  79  83  81  78  78  73  70  74  71  68  66  64  58  55  49  47  47  46  48  49  51  55  71 114 121 123 124 125 128 130 131 132 133 135 137 137 136 139 138 138 139 140 139 138 139 137
 168 169 170 170 170 171 172 171 170 171 170 169 167 166 166 166 165 164 164 163 161 151 132 117 111 101  87  82  83  83  85  88  92  92  92  96  96  91  80  80  92  91  87  83  80  76  74  76  75  75  72  68  68  68  64  64  61  59  54  51  48  47  45  46  49  49  51  55  72 114 122 123 124 125 126 129 130 131 132 134 136 136 138 139 138 139 138 138 138 138 138 137
 169 169 169 168 169 170 170 170 168 169 169 168 166 166 164 164 164 163 162 162 159 152 134 119 112 105  93  83  81  79  82  83  90  88  86  93  93  86  77  79  87  86  83  77  76  71  69  69  68  68  65  66  65  63  59  58  55  54  50  48  47  46  43  47  48  48  50  58  71 114 119 121 124 124 126 128 129 131 132 134 136 136 137 138 137 138 138 137 137 137 137 137
 166 167 167 167 166 167 167 167 166 166 166 165 163 163 164 164 164 162 161 160 158 153 134 122 114 106  97  87  79  77  79  79  88  87  90  89  88  83  72  76  80  78  75  74  73  72  67  64  61  60  61  62  59  52  50  51  50  48  46  45  45  44  44  47  46  48  52  56  70 113 120 122 122 123 125 127 129 130 131 133 134 135 136 136 136 137 137 137 137 137 137 136
 165 165 166 165 165 166 165 165 164 166 165 163 162 161 162 160 160 160 158 157 157 153 134 122 115 109 101  92  84  75  75  77  81  87  88  86  80  81  79  78  73  71  71  69  69  68  63  61  58  60  59  56  52  50  47  47  45  44  43  42  43  44  46  46  46  48  52  56  69 112 120 121 122 121 124 126 127 129 131 132 132 134 134 136 136 137 138 137 136 138 137 136
 164 165 166 165 165 165 164 165 165 164 163 163 162 159 160 160 159 158 158 157 155 154 135 124 117 109 103  97  89  79  73  71  74  78  81  80  74  70  75  74  71  68  66  64  63  62  62  57  56  54  56  51  47  44  42  42  41  41  40  41  41  46  45  43  47  50  51  55  70 112 119 120 120 123 124 125 127 128 129 131 132 132 134 136 137 136 137 137 137 135 137 136
 162 163 163 163 162 163 164 163 162 161 160 161 160 160 159 158 157 157 156 156 155 151 134 123 116 110 106 100  90  85  76  69  67  70  73  74  71  66  69  66  67  64  60  56  55  55  53  52  50  50  50  47  43  41  38  37  38  38  39  40  42  44  42  44  47  51  53  56  66 112 118 119 121 122 124 124 125 126 128 129 129 132 132 134 136 136 136 137 135 136 136 136
 161 161 161 160 159 160 160 162 160 159 158 158 158 158 158 156 156 155 154 153 154 150 133 122 118 114 108 103  96  89  81  72  69  66  66  66  65  62  65  62  60  58  56  52  50  50  50  47  48  49  46  42  41  40  35  34  34  35  38  42  42  43  44  45  49  51  53  54  61 111 117 119 119 120 123 122 124 126 127 129 131 132 132 132 134 134 135 134 136 136 136 136
 157 158 158 157 157 159 158 157 157 157 156 155 156 154 155 154 152 152 149 149 149 147 131 121 118 113 109 105  99  93  86  77  70  66  62  57  56  55  55  54  52  52  52  49  46  45  43  44  41  44  42  38  37  36  34  34  35  35  37  41  42  42  43  45  48  50  54  57  63 109 116 118 117 119 120 123 124 124 124 126 130 129 130 132 133 133 135 136 136 135 136 135
 155 156 156 155 155 155 155 153 155 154 154 153 154 153 152 150 149 148 146 147 147 143 131 123 117 115 111 107 102  95  89  82  75  69  65  57  53  50  50  48  47  45  44  40  41  38  38  38  38  38  36  35  33  33  33  34  34  36  40  41  42  42  44  46  49  52  53  54  64 109 115 116 117 118 119 120 122 122 124 125 127 128 130 131 131 133 133 134 135 134 134 134
 152 155 153 154 153 153 153 153 153 152 153 152 150 151 148 148 149 147 146 145 144 140 128 123 119 115 113 110 104  98  92  87  80  74  69  62  58  52  49  46  43  42  38  38  37  37  37  36  36  37  35  36  35  35  35  35  36  38  40  42  42  43  45  47  49  51  53  54  64 106 114 115 116 118 116 118 118 122 122 122 124 125 128 130 131 130 131 131 133 134 133 134
 152 152 152 153 153 152 152 152 151 151 147 148 148 147 148 147 147 145 144 143 144 138 127 123 121 116 113 113 108 102  96  91  84  79  74  68  60  56  54  49  45  42  40  38  38  38  38  36  37  37  37  35  35  35  36  36  36  40  41  42  43  44  46  49  50  52  53  57  62 105 112 114 116 116 117 117 118 118 119 122 123 125 128 128 128 129 130 131 132 132 132 132
 151 151 150 152 150 148 150 149 148 150 148 148 148 146 146 146 145 146 143 141 141 137 126 122 118 117 111 110 107 105  99  95  89  83  78  73  67  63  57  53  50  47  45  43  42  41  39  38  38  37  37  37  35  37  37  38  40  41  41  43  44  44  46  49  51  53  54  56  61 101 112 112 114 115 116 116 117 118 118 120 122 123 124 125 128 128 130 129 130 130 130 131
 148 149 149 148 149 149 150 148 147 148 146 145 146 146 145 144 144 140 140 139 138 134 127 123 118 116 114 114 109 105 100  95  90  86  80  76  70  67  62  59  54  51  48  45  44  43  40  39  38  37  37  38  38  41  38  40  41  42  41  42  42  46  46  49  51  53  54  56  61 100 110 112 112 113 114 115 116 116 116 118 120 121 124 124 126 127 128 129 129 130 131 129
 148 148 147 148 148 147 147 147 146 146 146 144 144 144 144 143 141 139 139 139 137 135 126 122 118 115 115 114 112 104 101  96  93  87  83  79  74  69  66  63  58  54  52  51  49  46  44  43  41  42  43  44  42  42  41  42  42  42  42  43  43  47  47  49  52  53  53  56  59  97 108 112 111 113 113 114 115 115 115 117 118 121 122 123 124 125 125 128 127 128 128 129
 145 147 147 146 147 146 147 146 146 145 146 144 143 142 141 141 140 139 137 138 135 130 124 122 120 116 115 113 111 107 100  97  95  89  84  78  75  72  68  66  62  59  56  54  52  51  48  47  46  46  45  44  43  41  42  42  42  41  42  42  44  46  47  50  51  54  56  56  58  91 109 110 111 112 113 112 114 114 114 116 117 117 120 122 123 124 126 127 126 128 128 126
 143 143 145 145 144 144 144 144 142 142 143 142 140 139 139 138 136 135 136 136 134 128 125 122 122 119 114 113 109 106 102  97  94  91  87  84  77  74  71  68  64  61  59  57  55  54  54  53  51  48  47  45  43  43  42  42  41  41  42  42  43  46  48  49  52  52  53  53  58  89 108 109 111 111 111 111 112 114 114 115 116 117 119 121 122 123 124 125 126 126 127 126
 143 144 143 143 143 142 143 142 142 143 141 139 136 120 102  92  80  74  76  75 113 126 121 119 121 120 115 114 112 107 104  99  93  92  87  83  77  75  72  68  66  62  61  58  55  56  57  56  54  51  47  45  41  42  42  41  41  42  42  42  43  45  47  49  52  53  53  55  55  77 103 107 109 110 110 112 112 112 112 114 115 116 117 120 122 121 123 124 125 124 126 125
 144 142 143 142 142 141 142 141 140 140 136 121  89  63  47  40  38  37  36  99 133 126 122 120 120 120 116 114 113 108 107 103  97  92  89  84  80  75  72  70  67  64  60  59  58  56  58  57  55  49  46  45  42  42  43  42  41  42  42  41  44  45  48  50  52  53  53  55  56  52  55  83 102 108 109 110 112 110 112 113 114 115 116 116 120 122 120 123 123 124 124 124
 143 141 139 140 139 140 140 139 135 123 105  94  55  37  29  27  25  37 112 138 129 124 121 121 121 118 116 113 110 108 107 103  95  92  88  86  81  76  72  68  67  66  63  60  59  58  58  56  54  49  45  42  43  43  42  41  42  42  43  43  45  47  48  50  51  52  53  53  52  50  40  49  53  69  87 107 109 111 110 111 114 114 114 116 116 120 119 122 122 123 124 123
 138 138 139 140 136 137 132 102  98  99  88  77  26  28  33  31  81 132 140 135 127 122 121 119 119 118 116 112 109 108 105 102  98  95  90  87  81  77  74  72  67  67  65  61  58  57  55  53  52  47  44  44  42  42  41  41  42  43  43  44  47  48  48  51  52  52  52  51  51  52  34  39  42  42  33  49  96 109 112 110 112 113 114 116 116 117 120 119 120 122 121 122
 138 139 138 138 128 100  92  91  84  88  82  72  39  42  51 112 131 138 139 131 123 120 119 117 118 118 114 110 108 107 106 103 100  94  91  88  83  79  75  74  70  67  64  61  59  56  53  53  49  46  46  45  44  44  44  42  43  45  45  47  48  49  50  53  51  51  50  50  52  53  35  35  38  39  34  32  33  66 102 110 111 112 113 114 115 116 118 118 119 121 121 120
 138 137 135  93  63  70  81  79  81  81  81  70  54  47 106 127 134 136 135 125 120 118 115 114 113 114 114 111 108 107 105 101  97  92  92  89  86  82  77  74  71  68  66  63  60  55  54  52  50  48  48  47  45  45  45  43  45  45  46  47  49  49  50  51  51  51  50  50  50  52  38  36  36  38  38  30  29  30  37  60  88 104 110 111 113 115 116 116 117 118 120 121
 134 125  74  52  56  73  71  77  80  76  74  72  51  82 113 127 132 134 132 123 117 114 112 112 112 113 111 108 107 106 104 100  95  95  92  89  86  84  81  76  72  70  68  65  63  61  57  54  52  51  51  48  46  45  44  44  46  46  47  48  49  51  51  51  52  50  49  48  49  51  40  34  34  35  36  32  27  28  30  32  37  38  52  73  97 113 115 116 117 117 117 119
  77  54  54  53  55  72  74  74  76  73  73  72  55  82 110 122 128 131 128 120 114 112 111 110 111 108 106 105 106 106 107 101  98  95  93  88  86  84  82  82  74  70  68  63  61  60  58  56  53  51  51  48  47  47  47  48  48  46  47  49  50  52  52  51  52  49  49  48  49  50  39  32  31  32  36  32  25  29  28  29  29  30  34  38  38  53  87 111 115 116 116 118
  55  49  47  46  48  63  71  70  70  65  73  73  65  79 104 117 122 126 123 117 112 110 109 107 108 108 107 106 106 104 103 102  98  96  93  90  88  85  82  80  77  75  71  68  64  62  58  55  53  53  51  51  51  49  48  46  46  48  48  51  53  52  52  50  49  49  48  48  48  48  34  31  30  31  33  29  24  26  26  26  26  27  30  31  32  33  35  50  84 111 115 115
  45  46  50  50  42  54  66  66  72  70  65  68  69  75  97 110 118 120 118 112 110 109 107 106 107 106 105 104 101 103 100 100  98  95  91  90  89  86  84  82  79  76  74  72  69  67  62  58  55  55  53  52  52  50  48  46  48  48  49  50  52  52  51  52  50  48  47  46  46  45  33  33  29  30  30  29  22  24  25  24  24  25  26  28  30  30  33  34  35  47  81 110
  46  48  45  45  42  42  63  63  70  63  61  63  68  66  87 103 109 113 112 109 107 105 106 104 103 102 102  99 101 102 101 100  96  95  92  89  88  86  84  82  77  75  74  71  68  67  64  61  58  57  56  55  52  51  48  48  50  51  50  52  51  52  50  50  48  47  46  46  46  42  33  30  26  30  28  25  20  21  24  24  24  25  24  24  28  29  30  31  32  35  34  39
  46  38  37  41  44  44  53  66  64  62  63  62  63  62  75  95 103 102 104 103 102 105 103 103 102 101 103  98  97  98  98  95  95  95  92  89  86  85  86  80  77  74  73  70  68  65  61  61  58  59  57  56  52  53  50  49  50  50  50  51  52  52  50  50  50  46  46  46  44  36  32  28  27  30  29  22  20  20  22  24  24  23  24  25  27  29  28  30  29  30  32  30
  33  35  43  41  41  50  47  61  61  63  59  58  52  58  66  85  94  94  96  99  99 102 104 101 101 100  99  97  95  96  96  97  95  92  90  89  88  84  83  81  78  75  73  71  69  67  65  60  58  58  57  56  54  53  52  50  50  52  53  53  52  51  49  49  46  46  44  43  40  35  32  26  27  28  28  21  21  23  23  21  24  22  25  24  26  28  28  29  29  29  33  30
  37  36  46  45  41  45  49  52  62  58  52  58  53  59  58  72  80  85  82  85  94  96  98 102  98  97  98  96  93  95  92  93  91  92  91  88  86  84  83  79  78  76  75  72  69  66  64  61  58  58  58  57  56  54  52  51  51  52  53  52  52  50  48  47  47  46  45  42  34  35  30  27  28  27  27  18  20  23  23  19  22  24  26  24  24  27  27  28  29  27  30  29
