P2
# Generated by OpenCV 3.4.0
92 112
255
 167 166 166 167 168 166 167 167 166 166 167 166 165 166 166 166 166 165 165 165 160  81  61  52  50  49  44  38  36  39  43  43  38  36  39  39  39  38  38  38  39  36  36  34  34  34  34  34  33  29  25  22  22  22  21  18  18  19  22  23  23  24  24  23  23  26  28  28  28  32  37  44 119 152 159 160 160 159 160 160 160 160 159 159 157 157 157 157 158 157 156 157
 166 165 166 165 166 166 167 167 167 166 166 167 166 166 167 167 167 166 166 166 145  77  52  41  42  41  38  39  47  48  48  47  45  43  44  39  40  38  35  32  31  29  31  31  33  32  29  29  24  24  24  23  18  18  18  18  19  20  20  18  19  19  19  21  22  24  26  28  28  32  36  45  64 135 155 160 160 160 160 160 159 160 160 160 160 159 160 159 160 158 156 157
 166 166 166 166 166 166 166 167 166 166 167 166 167 167 167 166 167 166 167 158  88  62  40  38  37  38  37  40  43  43  42  42  42  38  36  36  34  36  39  38  33  31  29  30  31  31  31  28  28  25  23  23  19  18  17  16  16  17  18  18  17  16  18  17  17  19  21  23  28  31  36  37  44 104 155 160 160 160 160 156 158 160 159 161 160 159 160 160 158 158 157 159
 164 166 166 165 166 166 168 168 166 166 166 167 166 167 167 167 167 166 161 103  69  50  36  33  32  34  34  38  44  44  40  39  40  34  31  33  35  33  34  33  34  31  32  30  29  28  28  27  24  23  22  22  18  17  14  15  15  15  17  18  17  16  15  15  16  17  18  23  28  29  32  33  36  69 147 156 161 160 159 160 157 160 160 160 160 158 160 159 159 158 158 158
 166 166 166 167 167 167 168 168 167 165 165 167 168 168 167 167 166 166 126  70  63  42  33  30  31  34  32  37  41  41  38  37  35  34  34  35  42  40  33  32  36  30  29  26  25  25  26  24  23  21  22  20  18  17  16  14  17  15  14  17  17  17  15  14  16  16  19  24  25  28  31  31  32  41 105 157 160 162 162 161 159 161 161 160 160 159 160 160 158 158 158 159
 166 168 168 168 168 167 168 168 168 167 166 169 168 169 168 168 167 152  76  63  51  34  33  32  35  37  40  44  39  35  31  35  38  39  40  39  40  38  34  33  31  29  28  26  25  24  23  23  19  19  18  19  17  17  15  16  16  16  16  15  16  15  15  16  16  15  18  20  22  26  29  29  33  36  39 127 156 160 161 161 160 161 161 160 161 161 161 160 159 159 158 160
 167 168 168 169 168 169 170 167 168 168 168 170 168 168 169 167 159 103  67  56  39  38  34  32  34  37  38  38  34  31  31  35  33  32  29  30  29  32  35  36  35  29  28  26  25  24  22  20  21  18  18  17  16  16  16  15  15  15  15  17  15  16  15  16  15  15  16  17  20  24  24  24  32  33  34  65 147 157 162 161 160 160 162 162 161 162 161 161 161 160 159 160
 169 170 169 169 169 169 168 167 168 169 169 169 168 167 168 166 144  67  59  49  40  40  33  30  33  37  46  48  43  37  35  36  33  30  30  28  31  30  31  32  30  28  28  28  25  24  24  26  24  22  20  19  15  16  16  15  16  15  15  16  16  16  15  16  15  15  16  16  18  20  21  26  27  26  32  45 128 153 161 162 161 161 162 162 162 161 161 160 161 160 158 161
 170 168 168 168 169 169 168 168 169 169 171 170 168 168 167 165 107  60  51  44  36  36  37  37  39  41  40  38  38  39  39  32  30  31  33  33  32  24  24  29  28  28  25  25  24  22  20  20  22  22  20  20  16  15  14  15  15  16  15  15  17  17  17  16  17  17  17  17  17  19  19  24  26  26  27  40 114 154 161 161 161 162 162 161 162 161 161 161 161 160 159 161
 168 168 169 168 166 167 168 169 168 169 169 168 168 168 167 156  66  52  47  37  33  35  36  36  34  30  30  30  32  34  38  36  35  35  32  29  25  22  21  20  21  24  28  30  30  27  27  24  19  17  18  18  17  15  15  15  15  16  16  16  16  15  16  18  17  18  17  19  18  18  19  22  24  27  28  40  61 142 160 161 162 161 161 161 161 162 161 162 160 161 160 161
 168 169 168 169 167 167 168 168 168 168 169 168 168 168 165 118  53  49  40  34  33  33  32  30  28  29  32  34  35  36  35  32  30  29  28  27  26  27  27  24  21  19  22  26  27  29  29  28  25  22  18  16  16  16  15  14  16  16  17  16  17  16  16  17  18  18  19  18  19  20  20  20  25  27  27  38  50  96 159 163 161 161 163 162 162 162 162 161 160 161 161 161
 169 168 167 168 169 171 169 168 168 167 168 168 167 165 164  80  50  45  36  33  31  31  30  27  25  25  29  34  32  34  31  31  30  30  28  30  32  32  32  28  23  23  22  18  18  22  25  25  25  25  23  21  16  16  16  16  15  15  16  16  16  16  16  15  16  17  16  18  19  20  19  21  27  26  25  35  48  56 148 160 160 160 161 162 161 162 162 162 161 160 162 163
 168 169 168 168 170 169 168 169 168 168 167 167 167 167 151  56  46  41  35  32  31  31  26  24  24  27  31  34  35  35  36  34  29  28  28  31  32  33  32  32  32  28  23  22  21  19  21  22  21  20  20  20  17  17  16  16  17  16  16  15  15  16  16  16  17  17  18  20  20  20  20  22  27  26  27  33  44  53 125 155 160 161 163 163 164 162 162 162 162 161 161 162
 170 169 168 167 168 169 169 168 167 166 168 168 168 168 110  56  40  38  35  31  31  30  26  26  29  30  32  34  32  30  27  23  23  24  30  30  30  32  36  37  32  30  27  27  27  24  22  20  16  16  15  16  16  16  15  16  17  17  17  16  16  16  16  17  15  16  16  16  17  20  20  21  24  25  26  31  40  52 105 154 161 164 163 164 163 162 162 163 163 162 162 163
 171 170 169 169 171 171 169 168 168 168 168 169 169 164  79  51  37  40  35  32  30  29  30  30  32  30  29  27  27  28  24  23  25  27  28  29  34  36  34  31  32  30  28  27  25  23  23  19  16  16  16  16  16  16  15  15  16  17  16  16  16  16  16  15  16  17  17  18  21  23  22  17  21  26  26  30  38  49  96 157 160 163 162 162 161 162 161 162 162 162 162 163
 172 172 170 170 171 170 168 169 168 170 169 169 170 152  52  44  36  40  36  33  32  32  35  31  26  26  27  29  30  28  26  27  28  30  31  34  35  32  29  29  29  26  24  22  24  22  21  17  17  18  17  18  19  19  18  17  18  17  16  17  19  16  16  16  18  18  18  18  20  23  20  19  21  26  27  29  36  48  58 155 161 164 163 162 162 162 162 161 162 162 163 163
 171 172 171 170 172 170 168 170 169 172 169 171 168 113  50  41  40  44  40  36  37  41  41  32  27  29  32  32  31  31  31  31  29  31  32  31  29  29  27  27  26  24  24  26  27  25  22  21  19  21  23  22  24  23  22  22  21  21  20  20  20  20  21  20  18  19  21  22  22  23  21  24  24  27  29  29  35  44  52 143 163 164 164 164 164 164 162 162 163 163 163 162
 172 172 171 170 173 171 171 170 172 172 172 171 170  97  49  45  40  47  49  45  48  49  40  30  30  34  36  35  36  35  34  35  34  35  35  31  32  31  30  30  30  29  29  28  30  27  26  26  26  27  28  28  28  28  28  26  26  25  26  24  24  25  24  23  24  23  24  23  24  25  23  24  25  29  29  28  33  43  46 120 161 162 163 164 164 164 164 163 164 163 163 163
 172 172 173 173 173 171 171 173 173 172 173 171 168  99  51  49  50  56  54  60  65  67  42  32  40  36  33  34  36  37  39  38  38  36  36  35  35  35  36  34  34  33  33  32  31  32  30  32  30  30  30  31  31  31  30  30  30  30  28  29  28  28  27  27  27  27  27  28  27  27  23  25  28  29  30  29  32  39  46  90 156 161 162 162 163 163 163 162 162 162 163 163
 174 173 173 175 174 175 175 175 174 174 173 173 169  92  50  49  50  50  58  74  82  85  46  37  42  40  36  38  41  42  41  40  40  39  40  42  42  40  38  38  37  37  37  35  34  34  34  34  32  32  33  35  33  34  34  33  33  34  32  31  32  30  30  30  29  30  31  32  31  28  25  27  31  30  30  31  32  36  44  60 153 162 162 164 163 163 164 162 165 164 164 164
 176 177 176 176 176 177 178 178 179 180 179 177 173  86  52  47  46  51  68  89  98  98  49  52  51  45  41  46  50  50  50  47  48  49  47  47  47  47  46  44  43  42  42  41  40  40  39  38  36  36  37  38  38  39  40  39  38  39  36  34  34  33  32  32  35  36  37  36  33  29  29  28  31  29  30  32  31  35  43  57 144 162 162 165 163 164 164 164 164 165 164 164
 180 180 181 183 182 183 184 183 183 184 184 182 181  81  48  43  44  54  72  97 111 107  69  65  55  50  53  56  59  56  54  52  53  53  54  52  51  52  50  46  46  47  47  46  44  44  44  42  40  40  41  41  42  44  43  42  41  42  41  40  39  39  40  40  40  40  39  39  36  33  29  29  30  25  28  32  30  34  42  48 152 161 163 163 164 164 164 164 164 165 164 164
 188 191 192 190 189 191 190 189 191 196 192 191 191  79  48  39  46  56  78 105 117 111  94  81  72  67  69  70  69  65  62  62  59  60  59  58  60  59  54  49  47  49  50  49  49  49  49  47  46  46  46  46  46  47  47  46  47  45  45  45  43  42  41  42  43  44  44  42  40  36  31  30  32  27  29  33  31  33  42  72 155 162 164 165 165 164 164 163 163 164 163 164
 197 197 199 200 200 197 198 198 200 200 200 200 197  75  46  43  50  59  79 104 120 119 111  99  86  81  81  80  80  77  75  73  71  68  67  68  69  66  60  53  51  52  54  54  53  51  52  51  50  50  52  51  49  49  51  50  50  48  50  51  49  49  48  48  49  48  47  45  43  41  33  32  32  28  29  32  31  32  37  70 158 162 164 165 165 165 164 165 164 164 165 165
 197 198 198 200 201 200 199 198 202 202 201 202 204  69  44  46  50  60  78 108 120 121 116 105  94  87  88  88  88  86  87  85  84  81  76  73  72  70  67  60  57  59  59  56  53  53  52  54  54  56  55  55  52  51  53  52  52  54  56  57  54  57  55  52  52  49  49  46  47  45  39  34  30  29  28  30  31  31  38  76 156 162 164 165 165 164 164 164 163 164 163 164
 191 192 192 192 192 193 194 195 193 196 197 197 186  47  46  47  50  58  82 110 123 121 118 113 100  93  91  91  93  94  92  91  89  85  82  79  76  73  70  66  63  68  68  63  56  54  55  58  61  62  62  58  55  56  55  56  56  58  61  59  59  59  56  55  54  53  52  50  50  48  42  35  29  29  28  30  31  31  35  62 155 163 164 165 165 164 164 165 164 164 164 164
 184 185 184 185 186 186 185 187 186 188 188 187 166  44  47  46  49  58  83 110 120 120 120 118 109 105  99  98  99  97  96  97  95  93  87  83  79  77  72  69  69  75  75  71  64  60  61  61  66  68  66  60  58  61  61  63  62  63  64  62  62  60  58  58  56  54  55  52  52  50  46  37  31  29  27  30  29  31  33  64 154 163 164 164 165 165 165 164 164 165 164 164
 178 178 181 181 180 180 181 181 181 181 180 179 142  43  46  43  48  57  79 105 117 121 122 120 116 112 105 104 104 103 103 103 102  97  92  87  83  82  76  70  70  77  83  79  72  65  61  64  70  72  69  64  64  66  66  67  66  66  66  66  63  61  59  59  56  59  59  58  57  55  50  41  30  30  27  30  29  31  35  76 153 164 165 164 166 165 164 165 166 166 164 164
 174 175 177 177 175 177 178 178 178 177 177 175 127  47  43  41  45  54  79 108 120 122 122 121 118 114 109 107 104 100 101 104 103  97  93  89  85  84  82  73  70  77  86  84  79  71  63  62  72  76  69  66  65  66  68  68  68  68  68  67  63  61  59  58  58  60  60  61  59  58  55  46  31  29  26  29  28  31  37  95 152 161 164 162 162 164 165 164 164 164 164 163
 173 174 174 174 174 174 176 176 176 176 174 170 126  50  42  40  43  55  82 110 120 122 123 121 117 115 110 107 104  99  98  97  98  96  93  90  86  86  84  76  71  75  86  88  83  76  65  59  71  79  72  67  66  67  69  72  70  68  66  64  61  58  56  54  54  55  58  60  59  60  60  52  36  28  27  27  28  32  36 102 154 162 165 164 165 165 164 165 165 164 163 162
 172 172 173 172 172 173 174 175 175 173 172 170 129  48  44  38  40  56  85 110 120 124 121 120 119 117 113 108 104  99  97  94  93  92  91  90  87  86  83  77  72  72  88  88  84  78  65  58  69  83  74  68  67  69  71  72  72  66  63  60  55  50  50  49  51  52  58  61  61  61  62  58  40  30  26  25  30  32  36 109 159 164 166 165 165 166 165 165 164 164 163 164
 172 172 173 171 171 171 172 174 172 172 172 168 137  43  41  38  42  55  92 113 120 123 123 122 121 119 116 112 108 102  98  96  94  90  88  87  88  86  83  78  72  70  85  88  83  79  64  54  67  84  74  66  67  71  74  72  68  62  59  53  46  46  47  50  54  58  62  65  65  63  62  62  45  31  28  25  30  32  34 131 159 162 165 164 164 165 164 164 165 164 164 164
 171 171 170 171 171 172 172 172 173 172 172 171 146  41  41  38  36  58  96 114 121 124 125 125 122 121 117 113 109 107 104 104 102  97  90  85  87  87  83  77  71  68  82  89  84  76  63  52  68  82  72  64  68  76  72  68  61  59  54  46  45  47  52  59  62  62  62  62  65  65  64  64  47  28  28  26  28  33  39 145 161 164 165 166 165 165 165 164 164 164 165 164
 170 171 172 171 170 171 171 172 172 172 171 170 154  45  39  36  36  61 102 115 121 126 124 124 122 116 115 113 112 110 110 108 106  99  93  90  85  86  83  76  71  66  74  86  82  74  60  49  69  80  67  61  70  73  70  63  54  51  47  47  51  57  62  65  66  65  61  61  63  65  65  65  50  28  26  27  28  32  44 148 161 163 164 165 165 165 164 162 163 163 163 164
 170 170 172 171 170 171 170 170 172 171 171 169 154  50  40  33  35  67 108 118 125 125 122 119 116 115 112 109 106 103 104 101  95  92  96  97  89  85  79  76  70  64  69  83  82  73  59  46  68  74  62  55  68  70  65  58  50  48  49  53  58  58  57  58  58  56  56  56  63  63  64  64  57  27  25  28  29  32  65 154 163 164 164 165 165 165 163 164 163 163 164 164
 169 170 170 171 169 169 170 170 171 170 168 167 155  55  42  31  35  74 114 122 125 119 118 113 100  84  76  74  73  66  63  65  67  75  81  84  90  92  84  77  66  61  66  77  84  75  56  44  62  69  58  54  67  63  59  52  49  51  46  45  45  39  36  34  36  35  35  39  55  62  63  64  56  26  23  25  28  32  80 156 162 164 163 165 165 164 164 165 164 164 164 163
 168 169 170 170 170 170 170 171 170 171 169 168 157  60  42  31  31  85 121 125 122 114 102  87  70  53  50  52  48  41  35  34  35  40  43  57  80  85  77  70  65  60  61  74  81  70  55  40  59  65  55  53  62  58  52  49  47  46  35  30  27  23  22  22  22  23  24  27  33  45  55  61  59  26  22  23  27  33  90 160 163 163 163 164 164 163 164 164 164 163 163 163
 168 168 168 168 168 169 168 169 168 170 168 167 153  52  38  30  31  95 122 123 106  86  63  58  48  42  39  35  32  30  27  25  26  27  29  41  50  62  61  61  58  54  56  76  79  63  50  41  56  59  53  51  56  54  47  41  35  32  26  23  20  17  17  17  20  22  25  26  29  29  34  49  60  30  19  24  28  34 102 159 164 164 164 164 164 163 164 164 164 164 164 164
 168 168 167 168 168 169 169 168 168 169 168 165 151  53  38  33  35 108 119 102  70  57  52  48  46  40  33  33  31  29  28  27  26  26  26  29  34  40  44  47  49  49  54  81  73  60  50  41  56  59  48  47  50  46  38  30  27  24  23  24  23  21  22  21  21  22  24  23  24  25  25  29  51  31  20  25  29  29 116 159 163 164 163 164 163 164 165 163 164 162 165 162
 169 167 168 168 169 169 170 169 168 168 168 163 141  57  48  50  50  47  36  30  35  42  43  53  60  60  55  54  48  40  36  31  26  25  24  24  25  29  31  36  37  40  60  72  64  56  48  43  54  53  43  37  37  33  28  24  23  20  19  20  22  24  27  30  33  35  36  36  32  30  26  23  19  19  18  20  24  25 100 146 160 164 164 164 162 164 163 164 164 162 162 163
 168 168 168 169 170 169 170 170 170 168 168  90  69  51  44  41  36  30  58  78  79  85  90  90  91  87  82  75  67  58  52  47  40  35  32  29  25  21  22  24  27  37  53  56  54  51  45  45  52  52  39  32  27  24  21  21  24  27  30  32  34  39  43  46  48  50  50  48  47  46  45  50  52  28  19  17  18  20  28  28 132 161 164 164 162 163 164 164 163 162 162 162
 168 169 168 169 170 169 168 170 170 166 166  63  87  47  40  36  40  75 112  95  86  90  93  88  81  73  73  70  62  55  51  46  42  39  36  36  33  31  26  21  19  22  26  33  33  32  28  30  32  26  22  20  18  20  25  28  30  30  33  35  38  42  44  45  46  46  46  47  48  48  47  54  66  35  26  20  18  20  27  25 127 161 163 162 163 162 161 162 162 161 162 162
 169 169 168 168 170 169 168 168 168 168 167 126  81  40  36  35  44  78 103  92  88  93  85  73  67  60  57  53  48  45  42  39  37  37  36  34  34  33  34  32  22  19  20  21  19  18  16  17  17  17  18  20  26  27  28  30  31  32  34  35  36  38  38  38  38  38  39  41  44  47  49  54  63  43  24  27  19  18  53 109 155 161 162 163 164 163 162 163 162 161 162 163
 168 168 167 167 169 170 170 168 168 168 156 120 119  51  34  51  41  84  97  85  87  88  71  55  45  41  40  37  33  32  30  30  30  30  30  29  31  33  34  37  34  18  19  20  21  21  18  16  17  18  19  27  28  28  29  28  30  30  30  30  30  30  30  28  27  28  30  32  36  45  48  53  63  48  21  23  24  17  77 115 154 161 162 163 163 163 161 161 162 160 161 162
 169 168 168 168 168 168 169 168 169 167 139  85  93  58  34  75  59  98  97  82  83  75  51  44  36  29  29  38  36  32  27  27  29  27  28  29  29  31  34  40  45  22  20  24  29  37  37  27  19  18  22  28  27  28  26  26  26  29  29  28  26  26  24  24  23  25  25  30  33  39  47  51  61  54  29  36  35  26  65  75 118 158 161 162 162 163 163 164 163 161 162 162
 169 169 169 169 169 169 170 170 170 169 132  65  58  56  35  77  63 105 101  88  77  57  42  35  33  40  65  81  55  32  28  25  29  37  35  30  31  35  39  43  48  26  21  30  54  72  69  49  28  20  24  28  28  27  28  29  30  29  31  40  40  31  24  23  26  32  28  23  27  32  41  48  62  63  35  42  40  27  60  53  78 158 160 161 162 163 163 162 162 161 161 162
 168 169 170 169 170 169 170 170 170 168 134  64  53  44  38  62  58 112 103  92  76  54  39  41  55  57  72  64  34  30  27  24  27  35  42  33  30  35  47  51  51  26  22  40  87  97  88  69  40  23  24  30  31  32  31  29  30  35  42  48  29  23  17  18  19  33  40  28  24  28  38  49  63  70  37  41  42  27  40  39  67 156 160 161 163 164 163 163 162 160 161 161
 168 169 170 170 170 171 170 171 170 169 131  62  51  48  37  58  58 115 106 100  85  70  65  57  56  62  72  58  32  30  29  26  30  33  42  33  31  35  52  54  43  25  26  68 110 109  97  84  58  26  23  30  30  28  24  24  29  33  41  37  24  22  18  17  21  33  42  31  32  36  42  51  63  71  42  39  38  25  34  40  71 156 162 162 163 163 162 161 162 161 160 161
 169 169 170 170 171 170 171 170 172 170 131  64  52  55  35  60  64 117 112 109 104  95  89  72  66  64  70  64  33  30  26  29  33  36  39  38  45  55  63  60  36  23  38 104 115 111 103  95  82  32  23  30  29  29  26  25  27  32  40  37  22  17  15  18  22  33  37  35  41  46  50  56  65  70  46  40  37  28  37  41  82 155 162 161 161 160 161 163 161 160 160 160
 170 169 170 170 169 169 171 173 173 170 143  71  58  66  33  64  67 123 117 117 115 112 100  83  74  68  72  76  58  44  41  44  47  49  46  51  58  61  65  58  30  21  90 117 115 110 103  99  90  49  22  28  32  32  35  32  31  33  37  36  29  22  20  24  30  37  41  43  48  53  58  63  67  71  52  41  38  32  39  43  95 156 162 162 162 162 162 161 162 161 160 160
 170 170 171 170 170 170 171 172 172 171 164  82  67  82  38  60  65 124 120 125 123 120 106  87  78  75  71  69  67  66  65  57  53  51  54  60  62  66  72  46  32  44 110 120 116 113 105 101  89  66  26  26  35  34  34  35  33  32  35  36  37  37  37  40  39  41  46  48  52  59  65  67  69  70  55  43  33  39  41  46 110 158 161 160 163 160 160 161 160 160 160 160
 170 170 169 173 172 172 173 172 172 170 168 123  84  91  57  58  69 125 124 126 128 122 111  94  80  72  70  70  67  60  56  51  54  63  67  67  71  77  83  38  22  84 116 123 119 117 109 102  89  67  37  24  36  40  37  36  36  36  34  35  37  39  41  44  43  42  44  48  56  63  68  69  70  71  61  47  28  49  44  49 135 158 163 160 161 162 161 160 160 160 160 160
 170 171 170 171 171 172 171 172 172 171 171 160  97  94  74  39  81 125 124 126 126 123 117 106  93  82  73  69  67  66  66  70  73  72  74  79  86  88  74  38  31 103 112 124 119 113 109 102  87  66  47  20  30  47  45  43  42  41  42  44  42  41  41  42  44  45  51  57  61  65  68  71  71  71  61  47  31  52  50  77 155 159 161 161 161 161 161 159 160 160 160 159
 169 171 170 170 172 172 172 171 172 172 172 169 131 102  87  34  78 126 124 124 124 122 118 113 107  99  90  89  89  87  82  79  78  78  85  92  95  94  63  26  57 104 110 120 122 117 110 101  84  66  50  24  23  44  49  49  47  46  46  48  49  51  53  57  57  56  59  60  63  67  69  71  72  72  61  37  34  53  55 120 157 161 161 160 161 160 161 160 159 160 159 158
 172 172 171 171 171 171 172 173 172 171 171 171 153 111  87  53  49 125 124 123 124 122 120 113 106  98  91  91  90  88  86  85  87  93  98 101 101  87  30  24  82 106 111 120 124 121 112 106  88  70  54  32  18  32  51  51  53  51  50  50  50  53  56  58  58  59  60  63  63  68  69  70  72  71  57  28  36  54  60 144 157 161 160 160 161 160 161 160 158 159 157 158
 172 171 171 171 172 171 172 173 172 171 170 172 163 113  92  68  38  88 123 122 123 121 117 112 108 102  92  92  92  90  91  95  98 104 105 102  99  47  26  41  91 105 111 116 124 123 118 109  90  73  56  38  25  18  40  52  56  58  56  56  56  55  56  56  60  61  62  64  66  67  70  70  71  68  27  31  38  56  70 151 157 159 160 161 161 160 160 160 160 157 157 156
 172 171 173 172 173 172 172 172 173 172 172 172 167 121 110  84  85  36  99 120 120 119 115 109 106 103  95  98 100  98  99 102 103 104 103  97  49  27  42  57  99 110 113 121 128 128 122 108  93  77  61  45  32  32  20  38  57  59  59  60  60  60  62  62  63  63  64  64  66  63  66  68  66  28  37  37  46  57  81 152 159 160 160 160 160 160 160 158 159 159 158 157
 172 171 173 172 172 171 173 172 173 173 172 172 170 129 110 113 109  95  34  89 117 112 109 105 105 105 100 105 105 104 104 105 105 102  82  31  35  68  50  80 104 113 117 126 134 133 122 112  98  86  70  56  41  40  40  20  29  52  61  62  63  63  65  64  64  63  65  64  65  61  64  51  23  41  56  46  54  55  97 153 159 160 160 160 160 159 160 158 159 158 158 156
 171 172 173 173 172 171 172 173 173 174 173 173 170 141 115 120 117 121 101  45  48  85 106 103 106 107 104 106 105 106 105  92  68  38  27  63  87  70  64  94 109 114 121 128 137 134 126 117 103  92  78  62  48  45  47  48  35  15  26  45  57  65  66  65  66  66  63  59  52  42  25  30  53  67  63  58  51  61 107 156 158 159 160 161 160 160 160 159 158 158 157 156
 171 172 174 172 173 172 173 173 171 173 172 173 172 152 136 131 116 122 119 114  87  56  34  40  55  60  62  61  54  42  30  32  55  76  89  88  81  66  77  99 109 113 122 133 136 136 128 117 104  94  81  66  51  47  46  48  53  57  44  34  26  19  19  27  26  25  22  24  32  44  57  63  66  69  66  67  62  70 119 154 158 160 160 160 159 160 159 159 159 160 159 155
 172 172 173 173 172 173 174 172 172 173 173 173 171 161 146 135 113 121 120 116 113 109 108 102  92  89  83  82  88  96 100  99  95  90  85  80  72  68  84 105 110 115 125 132 136 139 130 118 103  92  80  71  56  49  45  46  51  55  60  63  67  69  69  66  66  69  70  69  68  67  65  65  66  68  62  67  74  81 137 157 159 157 159 159 158 160 159 159 156 158 158 156
 170 173 172 172 171 173 173 173 174 172 171 172 172 169 146 141 128 122 117 114 113 112 113 115 114 115 114 110 107 106 103 100  95  88  83  77  72  76 101 109 114 122 129 131 133 136 128 119 104  92  81  74  67  60  46  43  49  53  61  64  67  69  70  71  70  70  69  70  68  67  66  64  65  68  64  65  72  92 149 156 159 159 159 159 159 159 159 159 156 158 156 155
 170 172 171 172 173 172 172 173 173 174 172 173 172 169 141 137 132 126 119 116 114 113 115 115 117 117 117 114 111 108 103 100  93  88  82  77  78  97 110 111 114 123 127 127 131 138 130 118 104  92  80  76  75  72  61  42  46  52  58  64  68  70  69  69  69  69  69  69  68  66  66  65  66  67  64  67  72  95 149 154 155 158 158 157 158 158 158 158 158 157 156 155
 171 172 170 171 170 171 172 171 173 174 173 173 174 170 136 130 133 132 121 114 114 114 111 114 116 119 120 116 113 105  98  94  90  87  82  78  87 106 109 112 116 123 125 127 133 133 126 116 100  87  77  74  75  78  73  55  48  51  56  60  64  69  68  69  70  70  69  68  67  67  67  67  65  66  61  65  68 103 150 155 155 156 157 158 157 158 156 157 156 156 156 154
 172 171 172 172 171 171 172 170 172 171 172 174 172 171 149 119 127 128 120 113 113 112 111 113 116 114 114 110 110 102  98  94  90  87  82  83  96 104 104  99 104 113 117 122 126 127 122 108  93  81  71  65  60  64  66  62  49  54  59  62  64  67  68  69  68  66  66  67  66  65  66  66  66  66  61  62  61 128 151 153 154 156 155 155 156 158 157 157 156 155 154 154
 170 171 170 171 171 172 173 172 172 173 173 174 172 171 168 128 107 104 110 110 114 113 113 112 112 110 112 109 105 102 100  96  90  86  82  86  94  96  86  76  73  84 104 111 116 117 105  92  84  71  62  52  42  48  51  58  52  53  59  66  65  66  68  69  66  64  66  66  66  66  65  66  68  60  58  58  96 149 151 153 154 156 155 156 155 156 154 156 155 155 154 154
 171 170 170 171 171 172 172 173 172 173 172 173 172 174 171 168 138 117 124 114 114 115 114 111 108 109 113 107 103 100  96  93  89  85  84  88  91  82  66  50  30  27  62  92  97  99  87  73  66  58  51  30  24  35  41  49  56  59  62  66  66  68  69  69  67  66  64  65  65  66  65  65  68  51  54  95 145 150 152 153 153 154 154 154 154 155 155 155 155 154 153 153
 171 170 170 170 172 170 171 172 172 171 170 171 172 172 171 170 169 167 159 119 115 114 112 110 108 109 110 102  98  95  94  92  90  90  90  93  84  68  51  34  26  23  24  62  81  80  71  60  53  49  35  17  19  27  36  43  52  63  64  64  65  65  67  66  68  67  65  65  64  63  64  66  94 123 135 147 150 151 151 151 151 153 154 154 154 155 155 155 154 153 153 151
 169 170 170 171 169 171 172 172 171 171 172 172 172 171 171 171 170 170 165 126 115 110 112 110 108 109 108 104 102 101 100  96  95  95  98 101  89  61  46  37  36  37  40  56  72  69  58  50  47  45  25  24  26  28  33  40  55  67  71  68  66  66  66  66  65  63  64  64  63  63  63  69 114 147 150 150 151 152 152 151 152 153 153 154 152 154 154 153 153 152 151 150
 169 170 170 170 170 170 171 171 172 172 173 171 170 171 170 171 170 170 167 134 115 112 114 113 109 105 105 104  99  96  95  98 101 103 106 105  98  78  54  44  47  55  64  69  71  64  52  44  42  37  30  29  29  30  31  40  59  70  77  78  72  68  65  66  64  62  62  62  63  63  65  70 125 148 150 150 150 151 152 152 152 152 152 152 151 152 152 152 152 151 151 151
 170 170 170 170 171 171 172 173 172 170 173 171 172 171 171 171 171 171 168 145 113 114 114 110 108 106 106 105  96  96  98 102 104 108 111 110 106  93  80  70  66  70  74  72  69  66  50  44  41  39  35  31  29  31  35  45  59  68  76  78  77  72  68  65  63  61  60  60  63  64  66  77 137 148 151 150 149 151 150 150 152 151 151 152 152 153 152 154 152 152 151 151
 170 171 171 170 171 171 172 173 174 175 174 175 174 172 171 172 172 172 170 157 115 114 112 108 108 106 106 108 106 102 103 106 109 113 114 114 112 102  91  84  83  82  82  76  70  65  54  46  44  43  43  40  41  43  45  50  58  66  73  76  76  71  65  65  62  60  59  58  61  64  68  84 142 150 149 150 151 150 150 150 151 151 152 152 153 153 153 153 154 153 151 150
 170 170 170 171 170 173 174 176 175 174 174 175 174 175 173 173 173 172 170 164 123 112 112 109 108 108 107 107 107 106 105 109 111 114 115 115 114 102  97  95  93  89  90  83  75  66  55  52  54  51  49  47  48  49  52  55  58  63  66  68  69  68  65  63  61  60  59  60  61  62  67  96 145 149 150 150 148 150 150 150 150 151 150 150 151 152 153 152 152 153 152 151
 171 170 171 170 170 173 175 176 175 174 174 174 175 175 173 173 172 172 171 168 134 114 109 108 107 108 107 106 107 107 106 105 107 108 110 112 113 107 107 104 103 100  97  88  78  68  60  62  64  59  55  52  51  53  57  58  60  61  63  64  64  64  64  61  59  60  58  57  60  63  68 110 145 150 150 150 149 149 149 150 149 150 151 152 151 151 152 151 151 152 151 150
 171 172 172 171 173 172 175 174 176 176 173 173 174 173 173 173 174 171 171 168 144 116 106 104 108 108 105 106 106 106 104 103 103 105 106 109 111 111 114 112 111 107 102  91  77  67  65  69  70  66  60  57  56  56  60  62  61  60  61  60  60  60  60  60  58  58  55  55  58  62  71 123 145 148 148 148 147 148 148 150 148 151 150 150 151 150 151 151 151 151 149 149
 171 171 172 172 173 174 176 175 176 175 175 174 173 173 174 175 175 172 172 170 157 116 110 106 105 107 104 105 104 105 103 101 102 104 108 110 111 113 115 113 111 110 106  92  78  71  69  74  73  71  67  60  59  61  62  65  65  61  59  57  57  57  55  56  57  57  56  54  58  64  76 133 144 147 147 148 147 147 147 149 148 150 150 150 150 151 151 151 151 151 148 147
 170 170 172 172 173 174 175 175 175 174 174 173 173 174 173 172 173 171 171 170 164 124 111 107 100 104 101 100 100 102  98  93  95  96 102 107 110 112 113 112 112 110 105  95  87  79  76  80  78  75  70  65  62  63  64  66  66  62  58  54  52  51  51  53  53  54  54  57  60  66  87 137 143 145 145 145 146 146 146 146 147 148 148 150 150 150 151 151 151 150 149 149
 171 171 172 171 172 173 174 173 173 172 173 172 172 172 171 170 170 172 170 170 163 137 113 108 102 103 101  98  96  97  88  81  79  84  93 102 106 110 111 105 101  95  90  90  89  86  82  84  76  68  62  61  60  64  66  65  62  58  53  50  45  46  49  52  51  53  53  56  61  67 103 135 142 142 143 144 144 144 144 145 146 147 147 149 149 150 150 150 150 150 150 149
 169 170 170 171 171 170 172 172 173 172 171 171 171 170 170 169 169 169 169 167 164 150 114 107 106 105 101  96  94  91  78  66  60  69  81  90  94  95  89  81  72  69  65  66  68  70  72  62  55  49  45  44  45  50  55  57  59  56  48  43  38  40  46  50  52  54  54  56  61  71 119 136 140 140 141 142 143 143 143 145 144 145 146 146 147 149 149 149 150 151 151 149
 169 169 168 171 170 171 172 171 172 172 171 170 171 170 169 169 170 168 167 166 164 155 117 107 106 106  98  93  90  85  70  53  41  41  54  60  64  62  58  55  50  51  51  50  49  49  46  41  40  37  36  36  35  35  39  40  44  43  35  28  30  37  43  48  52  54  54  58  64  83 127 137 138 139 140 142 141 142 142 143 143 144 146 145 147 148 148 147 149 148 148 149
 167 168 170 168 169 171 172 172 170 171 169 170 170 170 169 168 169 169 168 166 164 155 127 107 105 104  98  94  90  81  65  52  49  56  52  48  48  48  47  39  36  35  36  38  38  39  35  32  30  29  31  29  30  29  28  27  29  27  27  31  35  40  44  49  52  54  55  60  65 100 128 133 136 138 139 139 139 140 140 142 143 142 143 144 145 147 146 148 148 148 148 148
 167 167 169 168 169 169 170 171 170 169 168 167 167 169 169 166 166 166 168 164 163 157 133 110 104 105 100  95  90  83  71  65  70  81  82  70  68  69  67  65  59  50  45  44  38  37  33  31  31  28  26  24  25  26  29  30  32  33  41  43  41  44  48  48  52  53  54  59  68 107 128 133 136 136 137 138 138 139 140 141 142 141 143 144 145 144 146 146 146 147 146 147
 166 167 168 166 165 165 167 167 166 167 167 165 165 164 166 165 166 165 164 163 163 158 136 113 103 102  98  97  91  85  78  79  86  94  96  88  78  77  76  81  82  78  76  74  67  59  55  60  54  49  45  40  39  39  40  40  41  43  48  47  42  45  50  50  52  52  53  60  71 106 129 133 134 135 135 137 138 140 140 141 141 140 142 142 143 144 146 145 146 147 146 146
 164 165 165 165 164 165 166 165 166 165 165 165 164 163 163 164 164 162 163 163 161 157 139 116 102  99  97  94  90  87  84  84  88  92 101  94  89  84  78  77  77  79  78  74  71  69  64  68  62  56  52  47  43  41  40  39  44  49  49  48  43  44  49  51  50  53  55  63  70 106 128 131 134 135 134 136 137 136 137 138 139 141 141 142 142 143 144 144 144 146 146 146
 163 163 165 164 164 164 163 164 164 165 164 163 162 163 162 163 162 162 163 160 159 157 138 118 105  97  96  93  89  87  86  85  92  91  82  94  92  88  81  74  69  66  64  62  59  57  54  57  53  50  45  40  36  36  38  43  47  50  50  48  45  47  51  49  49  53  58  65  70 112 128 131 132 134 134 136 136 135 137 138 138 139 139 141 142 143 142 144 145 146 145 145
 161 162 163 162 162 164 163 163 163 163 162 161 160 160 162 161 161 161 160 160 158 155 140 120 110  97  93  91  88  87  88  87  91  90  73  88  90  87  79  72  66  57  53  50  47  45  43  42  41  38  37  35  36  39  41  45  47  48  48  49  49  51  51  49  49  52  60  65  70 111 128 130 131 132 134 135 134 136 136 136 138 138 138 140 140 142 142 143 143 145 145 144
 159 161 159 159 161 162 160 160 161 161 160 159 160 159 158 159 157 158 156 156 155 153 138 121 112  99  92  88  85  84  88  88  92  91  86  87  87  83  77  70  66  59  53  49  46  44  42  40  40  40  40  40  40  41  43  44  47  49  49  49  52  51  51  52  50  52  62  65  71 112 127 129 130 131 132 133 135 135 137 135 137 137 138 138 140 141 142 142 142 143 144 143
 156 156 156 158 156 157 158 157 156 154 156 157 156 156 155 155 154 155 154 153 152 151 136 119 114 105  94  88  84  84  86  89  90  89  89  86  82  78  76  72  66  61  55  54  52  49  46  45  46  47  45  43  42  43  45  45  47  49  48  50  50  51  52  50  52  55  62  64  69 114 126 129 130 130 130 133 133 134 136 135 136 136 137 137 138 140 141 140 141 143 143 143
 155 155 155 154 154 155 155 154 155 155 153 155 154 154 154 153 153 153 152 150 151 149 138 120 116 109  97  89  85  85  86  88  91  89  88  83  85  81  78  73  70  67  62  59  55  54  53  53  54  52  49  47  44  44  45  41  47  50  50  49  52  52  51  51  53  57  63  65  71 114 126 127 129 130 131 132 133 134 134 136 135 135 137 137 138 139 140 140 141 143 143 143
 154 154 153 153 153 153 154 154 155 153 152 152 152 152 153 152 151 150 148 150 149 149 136 121 115 111 102  91  86  85  87  87  87  89  88  86  85  81  77  73  74  73  71  69  68  66  65  63  60  56  53  52  49  47  46  47  48  49  51  52  52  53  51  51  53  58  62  63  70 116 125 126 129 130 130 131 132 133 133 134 134 134 135 136 138 138 139 139 140 141 141 141
 152 153 152 151 153 154 153 154 153 152 152 152 152 149 150 152 150 150 149 148 147 146 134 123 117 113 104  92  86  84  86  86  76  84  87  86  81  76  75  78  81  85  86  80  76  72  69  68  66  61  58  54  52  49  49  50  52  53  53  52  54  52  50  52  54  57  60  64  70 117 126 126 128 128 128 130 131 131 132 132 132 135 135 135 137 136 137 139 139 140 141 142
 151 151 151 151 151 152 151 151 153 152 151 151 150 149 149 151 148 148 148 147 146 144 134 123 116 113 108  97  88  85  85  87  86  84  87  88  86  85  82  86  88  90  92  91  86  80  76  72  69  68  64  56  54  54  51  51  53  51  52  52  49  50  49  50  54  56  61  64  72 115 125 126 127 128 127 128 130 132 131 131 131 132 132 134 134 136 136 138 139 138 140 141
 149 150 149 150 151 150 150 151 150 151 148 148 149 148 148 149 147 147 147 147 145 143 132 122 120 113 111 103  93  83  83  84  89  90  90  91  91  92  89  88  92  94  96  90  86  82  76  74  72  70  63  52  51  54  54  55  54  53  53  50  47  48  46  49  52  54  60  63  72 115 125 126 125 126 128 129 130 129 130 130 130 131 132 132 134 135 136 136 138 139 139 141
 148 150 148 150 149 149 149 149 149 150 149 146 146 147 146 147 147 146 144 145 143 144 131 122 117 115 111 107  98  88  81  82  84  90  92  91  94  94  88  84  88  90  95  87  84  83  78  73  71  66  62  56  54  54  55  55  53  52  50  49  47  48  44  49  51  54  60  64  70 115 124 124 124 127 126 128 127 129 129 129 129 129 131 131 133 133 136 136 137 137 138 138
 146 147 147 148 148 148 147 148 147 147 147 146 146 145 146 145 146 144 143 142 143 140 129 123 117 116 114 109 103  94  83  80  83  89  88  86  94  96  90  80  85  89  87  82  80  79  71  71  67  64  59  56  54  54  54  54  52  50  48  47  46  47  47  50  52  55  60  64  69 113 123 125 124 125 125 126 126 128 129 127 128 128 129 130 131 131 135 133 135 135 136 137
 147 145 144 144 146 145 147 147 146 146 144 144 144 144 144 144 143 141 142 141 140 142 128 121 118 116 115 112 107  99  89  79  79  88  90  91  92  92  88  76  80  88  82  74  72  69  67  69  63  60  56  54  53  54  54  54  52  49  47  47  45  47  48  49  54  56  61  63  70 110 123 124 123 123 125 124 125 126 126 127 128 126 128 130 130 130 132 134 133 134 136 136
 146 146 146 146 144 144 144 144 144 144 144 142 144 144 141 136 130 125 120 119 135 142 126 123 122 118 116 114 106  98  93  84  76  80  87  90  90  88  87  74  79  80  78  72  70  67  66  64  61  57  54  53  52  51  51  49  49  47  46  45  43  46  47  50  54  58  60  64  70 105 122 122 123 123 124 123 125 126 125 125 125 125 126 126 128 129 131 132 133 134 135 133
 143 144 144 144 145 144 144 143 144 142 142 142 138 116  89  65  62  54  52  81 142 134 126 122 121 119 116 113 108 102  96  92  82  75  81  84  86  81  82  82  79  75  72  69  69  67  62  56  54  53  52  49  47  45  46  45  45  44  42  42  43  46  47  49  54  58  59  64  68  70  98 121 122 123 123 123 123 125 125 125 126 124 125 127 127 127 130 129 131 132 133 135
 143 142 142 142 143 143 143 141 143 141 137 122 105  64  48  36  32  31  68 144 143 131 126 121 120 121 115 116 112 106 101  95  88  79  75  75  81  77  75  77  75  72  68  67  65  61  55  52  52  52  50  46  44  42  42  40  41  42  40  40  44  47  48  52  54  59  60  62  65  57  50  78 104 120 121 123 123 124 124 124 124 124 125 125 126 127 129 130 130 131 132 131
 142 142 140 141 141 141 140 140 126 119 109 101  83  35  27  27  29  89 145 146 140 130 124 122 123 120 117 115 111 111 105  97  94  87  80  70  70  70  72  71  70  68  64  58  56  54  53  52  49  47  46  43  40  37  36  36  36  39  40  41  44  48  49  51  55  60  61  63  66  63  45  51  58  65  78 114 122 122 123 123 123 124 124 124 126 126 128 128 128 130 131 132
 140 140 140 138 138 139 131 105  94  97  95  90  69  31  46  60 120 141 145 143 135 129 123 122 122 122 118 116 111 110 108 101  95  90  85  78  66  62  63  64  61  61  59  53  51  49  48  48  45  44  42  39  37  34  33  34  37  38  41  43  45  47  50  54  55  57  62  64  65  68  37  41  49  50  40  43  86 116 121 122 122 122 124 124 124 125 125 128 128 129 128 129
 139 139 137 138 120  83  72  88  90  89  93  87  68  54  53 117 134 143 143 140 133 126 122 123 121 121 117 116 113 111 107 101  99  91  87  83  77  68  56  54  53  51  51  46  44  42  41  40  39  38  37  34  34  33  35  36  38  40  43  44  46  49  51  52  54  58  61  62  63  65  42  43  46  48  46  38  39  54 102 119 120 120 122 123 123 124 124 125 126 128 128 128
 137 137 135  93  54  60  78  77  83  87  82  84  74  53  94 122 132 138 140 138 128 124 120 119 118 117 116 113 113 111 107 104 100  96  90  87  84  76  71  62  52  46  41  39  38  37  37  36  36  34  34  34  34  36  37  37  42  42  45  46  48  50  54  52  57  59  60  61  63  64  45  40  40  43  45  35  33  35  36  58  83 102 116 118 121 122 124 124 125 126 127 128
 129 104  75  60  56  58  78  79  83  87  78  80  76  57 101 118 126 133 138 136 127 120 116 116 116 115 115 112 111 111 108 104 102  96  92  89  85  79  76  72  67  60  51  45  42  39  38  38  37  36  36  37  37  39  42  42  43  45  47  49  49  52  54  54  57  58  59  60  62  65  47  38  37  40  42  37  31  32  33  37  40  40  50  68  91 116 121 123 124 124 126 128
  68  59  52  50  51  55  69  75  78  77  74  79  76  62  94 110 119 126 132 130 124 119 115 114 114 115 112 111 110 110 107 106 102  97  95  91  88  83  78  76  74  70  65  61  57  51  49  46  42  41  41  40  42  43  45  45  47  46  48  50  51  53  54  56  59  59  59  59  60  63  41  36  35  36  40  36  29  31  32  35  31  35  38  41  41  48  80 114 123 123 124 125
  55  50  46  53  52  48  65  73  72  77  71  76  79  70  82 101 111 118 123 124 122 116 115 112 113 114 112 110 110 110 108 107 104  98  95  92  88  85  81  79  78  74  70  65  62  58  56  52  50  48  46  44  46  47  47  45  47  49  50  52  52  54  54  57  56  55  59  58  58  59  39  36  36  35  34  35  26  30  30  30  29  30  33  37  36  37  41  42  69 106 122 122
  45  47  52  48  49  45  50  72  73  83  68  68  73  71  74  92 104 108 114 117 116 114 112 113 112 112 111 109 109 108 107 106 104  99  95  93  89  87  84  81  76  74  72  68  67  64  59  55  54  52  51  50  49  47  47  47  48  50  49  53  53  54  54  55  55  55  56  54  56  49  38  35  31  34  32  31  24  26  29  28  28  28  30  32  35  36  37  38  39  44  61  98
  50  51  42  42  46  46  47  66  73  70  65  67  67  71  68  81  95 101 103 106 111 111 111 111 110 111 111 107 109 107 107 106 103  98  96  93  90  88  84  81  79  76  74  70  68  66  61  60  57  56  54  53  51  49  50  49  50  52  52  54  53  54  54  57  54  55  55  56  53  41  36  32  31  34  32  26  24  24  25  28  29  28  30  31  32  36  34  34  34  38  42  38
  44  36  35  43  44  46  52  50  66  67  70  66  65  61  68  70  86  93  93  94 102 106 110 112 111 110 111 107 108 107 107 105 105 100  97  94  90  89  85  83  78  78  76  74  70  69  66  60  57  56  57  54  53  52  50  50  52  54  55  54  54  54  55  54  54  54  54  54  45  37  35  31  31  32  31  24  25  25  26  27  28  27  29  30  29  33  34  34  33  34  40  35
  43  37  38  48  47  47  51  53  62  68  65  62  65  64  65  70  83  82  84  83  84  97 106 109 110 110 109 108 106 104 105 104 103 100  97  94  90  88  88  83  80  78  75  74  70  67  66  61  61  58  57  56  53  52  51  52  51  53  54  54  55  55  53  54  53  54  53  50  38  38  32  30  32  31  31  21  24  27  26  24  26  28  30  30  30  32  32  32  34  33  36  36
  43  36  41  44  46  43  48  52  46  66  61  60  61  57  61  60  63  69  78  81  81  88  98 107 113 111 108 109 105 103 103 102 102  98  98  95  91  86  86  83  82  77  75  73  72  68  66  62  60  59  58  54  54  54  53  52  52  53  55  55  54  54  54  54  52  52  49  39  38  33  30  30  29  33  28  24  26  25  25  26  26  28  30  31  30  31  32  31  33  33  33  33
  36  35  40  45  45  43  46  42  47  52  63  60  56  60  52  55  57  60  70  75  77  82  88  99 109 110 108 105 105 101 101  98  99  97  97  94  91  87  86  84  82  76  75  74  71  69  67  64  60  60  56  55  54  55  53  52  53  53  56  55  54  55  53  52  51  50  40  36  35  32  30  32  29  32  26  25  26  24  26  27  26  27  29  30  30  32  33  33  32  33  34  31
