P2
# Generated by OpenCV 3.4.0
92 112
255
 166 165 166 166 167 166 167 167 167 167 165 165 167 166 166 167 166 165 161  86  48  42  39  41  42  46  48  47  47  47  44  40  39  37  37  37  39  35  31  29  30  31  31  32  32  30  27  25  24  22  21  18  17  17  18  18  19  18  17  18  17  17  17  20  21  23  26  30  32  37  37  44  65 145 160 161 161 160 160 160 160 161 160 160 161 160 159 160 160 159 157 158
 166 166 166 166 166 166 167 167 166 166 167 167 168 166 167 168 167 165 132  49  44  37  39  36  39  44  46  46  44  43  40  36  34  34  32  35  37  34  34  33  33  30  30  29  30  29  25  25  24  22  20  17  16  16  16  15  17  18  17  17  16  16  16  16  17  19  24  29  30  35  32  35  54 131 158 160 161 160 159 158 161 160 161 161 161 160 160 159 159 160 160 160
 165 164 166 166 165 166 168 168 166 167 167 167 168 169 167 167 165 157  82  48  36  31  35  34  36  42  45  44  43  40  39  36  34  40  44  40  34  34  37  30  30  27  27  27  27  24  24  23  22  21  18  18  16  16  16  15  15  16  17  16  16  15  15  16  16  21  25  27  28  34  29  31  43  95 151 160 160 160 159 159 160 161 162 161 160 160 160 159 160 159 158 159
 165 166 166 165 165 167 169 167 167 166 166 167 168 167 168 168 164 103  58  38  34  33  37  39  42  44  38  35  38  37  40  41  42  43  41  36  34  34  31  28  27  27  26  24  24  24  21  22  19  19  18  17  16  16  15  16  16  16  15  15  16  15  15  16  18  20  22  24  27  30  27  30  32  41 108 157 159 161 162 162 159 162 161 161 162 161 161 160 160 159 159 161
 165 166 167 166 167 168 169 167 167 167 166 168 168 169 168 166 138  67  48  37  34  35  36  41  41  37  32  32  35  36  35  34  30  31  32  35  37  37  33  30  28  26  25  23  22  21  22  19  18  16  17  18  15  15  16  14  16  16  16  16  15  16  16  17  16  17  19  22  24  26  26  31  36  31  46 126 158 160 162 162 160 160 161 161 160 160 161 161 161 160 158 160
 167 169 168 170 168 168 169 168 167 168 170 169 169 168 167 157  87  56  43  39  33  34  36  44  48  46  41  36  39  36  30  30  29  30  32  30  35  33  32  31  28  28  26  24  24  25  24  22  20  18  15  16  15  16  17  16  16  16  16  16  16  16  17  16  16  16  18  19  20  22  26  28  26  28  37  66 148 159 161 162 161 162 162 161 161 161 161 161 161 162 160 161
 169 168 168 168 169 171 169 167 169 169 170 171 168 167 167 129  65  50  41  40  37  40  42  43  41  39  39  41  36  32  30  30  34  35  30  25  27  29  27  27  26  24  22  21  21  21  23  23  21  19  17  15  15  16  16  16  17  16  17  17  16  16  17  18  16  16  17  18  19  20  24  25  24  25  37  52 143 157 161 163 163 162 162 162 162 162 161 161 160 161 160 161
 168 169 170 170 170 168 168 168 168 169 169 168 169 168 166  96  57  41  36  37  38  35  32  31  32  33  36  39  36  37  35  34  32  28  23  21  22  22  24  27  30  31  29  27  26  23  20  19  18  18  17  17  14  15  16  15  15  16  16  17  17  16  17  18  17  18  18  18  18  20  23  24  26  23  34  48 114 155 160 162 162 162 163 162 162 161 161 162 161 160 161 161
 170 170 170 168 168 169 168 168 168 169 168 169 167 167 154  62  48  37  36  35  33  29  29  32  35  35  36  36  35  33  32  29  26  26  25  27  24  23  19  21  24  28  28  29  30  27  25  22  17  16  16  15  15  15  15  16  16  15  16  17  17  15  17  18  18  18  18  19  19  21  20  22  28  24  32  47  53 139 160 161 162 162 164 162 162 161 160 162 162 161 160 161
 168 169 170 168 169 168 168 169 168 168 168 169 168 164  98  55  38  36  34  33  28  26  26  30  35  33  33  34  32  30  30  29  29  30  31  33  29  25  23  22  21  19  21  24  26  26  27  26  23  20  18  17  16  17  15  16  15  15  16  17  16  16  17  16  17  17  19  20  17  19  20  26  26  24  33  46  48  80 159 162 162 162 162 163 163 161 162 162 162 162 161 162
 167 169 168 169 168 168 169 168 168 167 167 168 167 160  61  48  36  34  33  29  25  25  27  32  36  35  36  38  37  32  29  28  29  32  31  32  31  32  31  25  22  23  20  21  22  23  22  21  21  21  20  18  17  17  18  16  15  16  16  16  17  15  16  17  18  18  19  20  18  20  23  27  26  25  32  41  45  57 148 160 160 160 161 163 162 162 163 163 162 161 162 163
 167 168 168 169 169 168 169 168 168 168 169 169 166 130  55  46  35  34  33  27  26  30  32  33  34  32  30  27  25  23  24  28  31  30  30  34  38  36  30  29  27  26  25  22  22  18  16  16  15  17  16  16  15  16  17  16  16  16  15  17  16  16  15  15  15  16  17  18  20  19  20  22  23  25  30  38  46  46 126 152 157 162 164 163 162 162 164 164 162 161 162 163
 169 169 168 169 169 169 168 169 169 168 168 169 167  96  52  43  34  34  31  29  30  31  31  29  28  28  28  25  25  25  27  30  28  32  37  36  32  30  31  28  27  26  24  23  21  17  16  15  15  16  17  15  15  16  15  16  16  18  17  16  16  16  16  16  16  17  19  20  21  21  18  19  24  26  29  36  47  49 113 156 162 163 165 164 164 163 163 163 162 162 163 162
 170 169 169 168 169 169 169 169 168 167 169 168 161  75  47  42  37  34  33  34  33  28  26  28  29  30  29  29  29  29  30  31  34  36  34  28  28  29  28  25  24  24  23  23  18  16  16  18  17  18  18  18  17  19  16  16  16  17  17  18  17  17  17  17  17  19  19  20  21  20  19  21  25  27  27  34  43  47  94 157 162 164 164 164 163 163 163 164 163 162 163 163
 171 169 168 169 171 170 169 169 168 170 170 168 143  54  46  42  38  36  38  36  31  29  30  31  32  32  33  32  31  30  31  33  32  30  29  29  28  28  26  25  27  26  26  23  22  22  21  22  24  24  24  22  22  23  22  21  22  22  22  20  19  21  21  21  20  21  21  22  22  22  22  24  25  27  27  31  40  46  59 152 160 162 161 160 161 162 162 161 163 163 164 164
 172 172 171 171 170 168 170 170 168 169 171 169 111  49  43  42  43  43  47  42  32  36  35  33  33  35  35  35  34  34  35  34  32  32  31  32  31  30  30  29  29  30  28  26  24  26  27  26  27  27  26  26  26  26  26  25  25  24  25  24  24  23  22  22  22  24  25  25  24  22  23  24  27  28  27  31  38  44  52 144 162 164 164 162 163 164 164 163 164 163 163 165
 172 172 172 172 171 171 170 169 170 172 171 168  90  52  46  51  51  52  58  48  38  43  37  35  35  36  38  40  38  36  36  35  35  35  35  35  35  33  33  33  33  32  30  31  30  31  30  30  30  30  30  30  30  30  30  30  30  29  28  28  28  27  28  26  27  28  29  28  25  24  26  27  28  30  28  29  36  41  47 118 160 164 164 164 164 163 164 163 164 164 164 164
 172 172 172 172 173 172 172 171 171 171 171 168  84  52  51  52  54  64  73  59  48  50  42  39  42  45  47  45  44  43  44  44  43  43  41  41  40  38  37  36  35  34  34  34  34  34  34  33  34  34  34  33  33  33  32  33  33  32  32  32  32  30  29  30  31  31  32  30  27  25  29  30  31  30  30  31  34  37  46  86 159 162 163 163 164 164 164 163 164 164 163 163
 173 173 174 174 173 174 173 173 172 174 173 170  85  53  50  48  59  80  88  76  61  52  48  50  52  54  56  53  52  52  52  50  49  49  47  48  45  44  43  43  39  39  38  38  36  36  34  36  37  36  38  37  36  37  36  36  36  36  34  34  33  33  33  35  35  35  34  32  28  28  29  30  28  28  30  31  32  34  46  63 150 163 162 162 163 163 163 163 163 163 164 163
 175 175 174 175 176 175 176 175 176 177 175 173  78  49  44  53  71  94 104  91  81  69  66  65  65  64  63  60  57  56  54  53  54  52  52  49  47  46  47  45  45  44  43  42  41  41  39  40  43  42  42  42  43  42  41  40  41  40  39  39  39  39  39  40  38  38  38  34  32  29  29  32  24  26  31  29  31  34  45  56 143 163 164 163 164 164 164 163 164 165 165 164
 178 178 179 179 178 180 180 181 182 181 180 176  62  45  48  59  77 102 114 107 100  83  81  76  75  74  71  71  69  67  64  62  60  58  54  51  50  50  48  48  49  49  47  47  47  45  46  47  47  46  46  46  47  47  46  45  44  45  44  43  43  42  44  45  45  44  40  39  36  31  31  33  26  26  30  30  29  34  43  48 151 161 164 163 164 163 164 165 165 164 165 163
 185 186 187 187 187 186 187 186 188 189 187 175  50  46  53  60  78 108 119 116 105  91  87  83  83  84  84  80  78  74  73  69  66  64  60  57  55  53  52  51  52  50  48  48  50  51  49  49  50  51  50  49  48  49  48  48  49  48  48  48  49  48  49  49  48  48  44  43  40  33  32  31  29  27  30  32  30  33  41  68 155 161 163 164 163 164 164 164 164 163 163 164
 191 193 196 194 194 194 192 193 195 200 193 172  49  50  52  58  81 112 121 117 108 102  94  91  88  88  86  84  81  78  74  72  70  68  66  63  60  58  58  55  53  53  51  52  52  53  51  52  53  52  53  52  51  50  50  50  51  50  49  48  48  48  48  50  50  49  47  46  44  36  33  30  28  28  30  31  31  33  39  73 155 162 164 164 166 165 165 164 163 164 163 163
 197 200 200 201 199 200 200 199 201 202 199 159  48  50  50  57  85 114 121 118 115 107 104 101  98  97  94  89  84  84  78  76  73  72  70  68  64  65  62  60  58  57  55  56  57  57  55  55  54  54  54  54  53  53  54  51  51  49  50  48  46  46  47  47  48  48  49  48  46  40  33  29  28  26  31  29  30  31  36  75 155 163 164 165 164 165 165 164 164 164 163 165
 195 196 195 197 198 197 197 198 201 200 198 123  51  48  49  60  90 116 122 119 119 116 112 106 102  99  99  94  92  89  85  82  80  76  73  71  70  69  66  65  63  62  62  61  61  62  61  60  61  60  60  60  58  59  59  56  56  55  56  57  56  55  55  55  54  52  50  50  49  45  36  29  26  26  29  27  29  29  36  61 157 162 164 164 164 165 164 164 164 163 164 165
 187 189 188 189 187 189 190 190 189 192 192 103  50  45  48  61  93 120 123 123 117 106  99  95  92  93  94  94  92  88  85  81  81  77  76  74  72  69  69  68  67  65  63  63  62  63  63  64  63  63  62  61  60  61  61  58  58  60  60  60  60  58  58  59  58  59  58  56  53  49  41  28  26  25  28  26  29  30  34  67 152 162 165 164 164 164 164 165 163 165 164 165
 181 180 181 183 184 183 184 183 183 183 182  80  48  44  46  61  97 119 125 121 108 104 100  99  96  95  93  90  86  85  84  82  81  78  76  74  73  71  71  71  70  68  63  65  66  67  63  65  63  64  63  61  61  60  60  59  59  58  60  60  58  56  57  56  56  57  58  58  57  54  46  30  25  26  28  27  29  29  36  78 155 163 165 165 165 165 165 164 164 163 164 163
 177 177 177 179 178 180 180 180 179 178 174  73  46  41  45  61 102 122 124 119 117 117 115 113 112 107 101  93  87  84  84  79  79  76  77  76  75  74  72  70  68  67  67  68  68  67  64  65  64  64  64  62  61  60  58  58  58  59  57  56  55  54  52  50  50  51  52  57  59  57  52  34  26  26  26  26  28  30  37  98 151 161 164 164 165 165 165 165 165 164 164 163
 173 174 175 176 174 176 178 178 176 174 167  66  47  42  46  62 105 126 123 120 119 116 115 111 105  97  92  90  87  84  82  81  79  77  76  75  73  72  71  69  67  68  69  69  68  65  65  65  64  64  62  61  59  59  59  59  59  59  60  58  54  50  49  49  49  51  52  57  57  58  55  40  26  25  24  27  27  31  36 104 152 160 163 162 162 164 165 165 164 164 163 164
 173 173 173 173 173 174 175 175 174 172 170  68  46  39  43  63 108 122 117 112 105  97  92  88  84  78  77  81  83  85  84  80  77  74  73  73  70  71  71  68  67  68  69  68  68  64  65  67  65  66  62  59  57  55  59  60  61  60  57  52  49  51  52  55  57  58  58  58  59  62  59  44  29  25  23  28  29  31  33 122 158 164 164 163 163 165 165 165 163 164 164 163
 172 172 172 172 172 172 174 173 173 170 168  70  46  38  38  66 112 115 107  93  75  67  59  53  51  56  62  69  74  79  82  80  78  74  70  69  69  70  69  69  69  68  67  67  65  63  67  66  67  65  60  56  56  58  60  62  60  56  52  51  51  53  56  58  60  62  62  61  59  61  60  49  30  24  22  26  29  32  37 134 159 164 163 164 166 164 164 163 163 164 164 163
 172 171 171 171 170 170 172 173 173 172 169  82  46  37  35  66 112 107  94  68  50  48  42  38  37  37  37  43  49  57  68  75  74  73  70  70  70  69  69  69  67  67  64  62  63  64  67  65  64  60  60  55  56  60  62  60  57  51  46  42  43  46  46  46  47  52  56  56  57  60  61  52  31  23  22  26  28  33  44 146 162 165 165 165 165 165 163 164 163 164 164 163
 170 171 171 171 171 173 171 173 172 172 170  92  44  34  32  64 110 102  81  47  37  37  36  36  36  36  34  38  36  38  46  56  62  67  70  68  69  68  66  66  66  66  64  62  61  61  62  63  61  58  56  56  56  61  58  54  47  42  33  31  32  30  30  29  28  33  38  42  51  60  61  57  30  24  23  26  28  32  58 150 163 164 165 166 166 165 165 165 163 164 163 163
 171 170 172 172 172 172 172 173 172 171 169 104  46  33  31  62 112  94  59  43  45  51  54  53  52  48  46  42  40  34  36  43  47  54  59  61  66  66  63  64  64  66  62  62  60  60  62  62  60  57  56  56  57  55  51  44  38  34  27  28  25  23  20  19  21  23  25  28  40  56  61  58  31  24  24  26  29  32  75 157 163 165 165 165 165 165 164 163 163 164 164 163
 170 170 173 171 171 172 172 171 172 172 168 121  46  32  32  66 106  69  49  57  75  85  86  83  78  74  67  58  51  44  37  39  44  48  52  56  63  63  64  62  63  62  61  61  59  59  63  62  60  59  54  53  52  48  43  35  33  29  25  25  24  22  21  20  20  21  21  23  27  46  60  59  32  23  23  25  28  33  88 157 162 165 164 164 164 164 164 163 164 164 164 163
 171 170 170 171 171 172 172 172 172 171 168 134  45  32  30  66  97  60  64  83  96  98  95  90  86  82  74  68  64  56  49  42  41  47  50  53  57  59  63  63  62  60  59  59  59  62  64  61  58  56  52  47  45  38  35  29  28  27  24  25  26  26  26  28  28  29  30  29  28  30  49  58  33  21  22  25  27  34 100 159 165 164 165 166 164 164 164 165 164 164 164 164
 169 170 169 171 171 170 170 172 172 171 169 134  43  33  29  71  89  71  85  92  93  93  91  87  82  79  72  65  60  57  55  48  44  45  49  51  52  57  61  61  60  59  59  58  59  59  62  61  56  51  45  42  36  33  31  30  28  28  29  31  32  34  38  39  40  41  40  36  34  31  34  56  36  20  22  25  27  33 105 160 165 166 166 165 165 165 165 164 164 163 164 163
 169 170 171 171 171 171 172 173 172 170 167 124  41  35  32  76  89  86  95  94  89  83  81  76  72  68  65  59  57  54  53  52  50  44  44  47  46  52  59  59  58  59  59  59  57  60  61  57  54  49  44  38  33  29  28  29  30  32  34  35  36  40  42  43  45  45  46  43  40  38  34  46  39  20  23  28  28  34 127 160 164 165 164 164 165 165 165 165 164 164 164 163
 170 170 171 170 172 171 172 170 172 169 163 115  44  39  39  82  81  73  65  51  47  44  38  39  34  34  35  36  39  40  43  46  49  48  44  44  44  49  54  57  58  61  62  57  58  62  60  56  50  43  39  32  29  28  28  29  30  31  30  30  28  26  26  25  26  25  27  28  29  30  33  41  41  20  20  28  29  28 142 162 164 165 164 163 165 164 165 165 163 164 164 164
 169 170 171 171 171 171 172 172 170 155 132  85  53  51  49  41  33  36  41  51  52  48  44  38  35  34  36  39  41  38  30  26  25  28  34  36  40  45  49  54  60  62  61  58  59  60  57  51  43  38  32  29  29  28  24  21  20  20  23  26  29  28  30  29  31  30  31  29  27  24  20  19  18  17  18  23  26  27 131 161 164 164 163 164 165 164 164 163 163 163 164 163
 169 170 172 170 171 172 171 170 159  72 110  47  42  38  32  42  78  92  90  78  62  48  47  49  46  43  41  38  38  42  47  47  44  38  32  24  25  27  36  48  61  65  61  58  56  57  52  44  34  32  28  23  20  21  24  28  32  33  32  30  28  27  28  30  32  33  37  41  42  46  46  44  23  17  17  18  25  31  54 160 164 164 164 164 165 165 165 165 164 164 163 163
 171 172 172 171 172 170 169 170 165  42  45  40  38  35  53  76 103  96  84  62  44  41  34  33  31  31  32  33  34  39  40  42  47  46  44  42  33  23  20  22  27  35  39  35  34  33  28  24  23  20  20  24  29  30  31  33  32  27  23  22  20  21  21  23  25  27  31  36  41  47  51  62  50  25  16  17  22  25  48 159 162 164 165 165 165 165 164 164 163 163 163 162
 172 171 170 170 173 171 171 172 169 161  92  37  35  48  43  69  98  86  66  47  36  30  29  26  26  30  52  56  50  39  36  39  40  43  42  42  42  40  22  18  20  21  20  19  18  17  16  18  19  22  29  30  30  30  30  26  20  17  17  26  31  28  26  23  23  24  26  30  36  46  52  62  57  23  22  18  22  46 102 152 163 165 165 164 164 165 165 165 163 162 164 163
 172 172 171 171 173 172 172 169 170 168  97  42  36  70  87  78  97  83  64  42  34  30  27  29  45  32  67  84  71  57  44  39  43  38  41  42  42  46  37  20  20  21  22  22  19  16  17  18  20  30  31  30  29  28  24  18  14  14  21  30  49  48  42  39  29  24  22  26  32  43  51  61  58  25  27  19  29  56  74  94 154 163 164 164 164 164 163 165 164 161 163 162
 172 171 172 172 172 172 171 171 172 168  88  42  41  64  76  89  99  83  62  45  36  33  31  27  41  38  87 106  92  68  60  50  46  47  42  44  44  48  50  21  20  26  30  36  34  28  20  20  24  30  30  29  28  26  20  16  19  22  24  35  64  63  56  53  46  29  24  25  28  42  49  59  63  35  32  20  36  59  67  69 119 160 162 163 164 164 164 164 163 162 162 163
 173 171 173 172 173 173 172 171 173 169  97  45  47  54  61  91 105  92  71  51  43  44  44  30  32  57 104 108  95  76  67  56  50  47  49  49  48  54  58  22  24  34  54  67  62  47  29  20  27  33  32  31  30  26  21  19  18  25  27  47  67  66  58  54  52  40  28  26  32  41  50  60  69  43  36  23  40  56  46  45  98 158 164 164 164 164 164 163 162 162 161 162
 171 170 173 174 174 173 173 173 174 170  97  45  49  52  57  92 109 100  84  68  60  59  60  44  52  91 103 106 100  84  70  57  52  49  50  52  59  68  64  23  26  46  90  98  87  67  38  22  26  33  31  32  24  23  25  20  20  31  47  69  69  64  55  51  51  44  32  30  33  41  50  62  69  52  36  23  40  41  38  41  99 158 163 163 164 163 164 163 162 162 162 161
 172 172 172 173 173 172 173 173 174 171 101  47  51  56  54  91 112 109  99  90  84  72  74  73  88 101  99 100  97  86  70  58  54  56  60  62  71  74  55  23  28  79 109 108  97  84  53  23  24  31  35  33  27  26  30  30  33  47  65  71  69  63  55  50  48  43  40  40  40  46  52  61  69  55  36  23  39  37  38  43 109 159 163 163 164 163 164 163 162 161 161 161
 173 172 172 172 173 173 174 174 174 171 116  54  48  65  57  99 117 116 114 111  97  86  76  76  82  85  86  87  83  80  72  71  68  70  72  70  70  75  45  23  47 110 114 111 100  91  69  27  22  33  38  38  39  37  36  36  42  45  48  49  51  52  52  50  48  48  48  51  52  55  58  64  68  59  37  25  42  41  39  45 121 159 162 163 163 164 162 162 162 161 160 160
 172 172 173 173 173 174 175 174 174 173 142  66  37  83  64 100 122 122 122 118 104  92  85  87  83  80  77  76  70  67  62  65  66  70  68  67  74  66  37  23  92 116 113 109 102  95  81  34  22  29  39  38  40  40  39  37  40  43  44  46  48  51  54  52  50  51  54  56  61  64  65  68  69  64  37  26  45  45  40  46 135 160 163 163 161 163 161 161 162 162 160 160
 173 174 174 173 174 175 174 174 174 172 168  95  32 103  74 102 122 124 126 121 108  92  84  80  77  76  71  67  61  58  60  64  68  68  69  76  90  57  31  49 113 120 117 113 104  99  87  57  21  26  40  38  38  39  39  40  41  42  43  43  47  49  52  50  49  49  52  58  63  67  68  69  69  66  39  28  49  48  44  56 153 162 164 163 161 163 162 162 162 161 161 161
 173 174 175 175 175 176 175 174 175 174 172 146  47 101 103 111 124 125 127 123 113  97  87  77  74  72  67  65  63  65  68  70  70  71  77  92  90  44  22  98 121 121 118 115 107 100  88  68  29  25  40  48  42  42  41  43  43  44  45  44  47  46  47  47  47  49  54  59  64  68  69  69  70  70  38  31  45  53  49  93 155 162 162 163 162 162 160 161 163 161 161 161
 175 174 174 174 175 173 175 174 174 175 175 170  83  62 139 119 125 125 122 122 116 106  96  87  81  79  76  73  70  72  70  69  72  80  93 100  79  35  45 111 124 126 120 116 107 100  87  67  44  21  31  52  51  50  48  47  48  49  51  53  51  51  51  51  50  51  58  60  64  69  71  70  69  69  28  33  42  55  56 136 158 162 162 163 163 162 161 161 160 159 159 160
 175 173 174 174 176 175 175 176 175 175 176 172 130  38 122 124 127 124 122 123 117 109  98  90  87  84  82  79  77  74  72  76  86  98 104 101  57  22  77 108 120 126 123 117 110 100  85  67  52  25  25  46  54  58  56  54  53  54  53  55  55  55  55  54  53  54  58  60  65  68  71  70  69  54  27  34  40  58  74 155 160 162 162 162 161 161 160 161 162 159 160 161
 174 174 174 176 175 175 175 176 175 176 176 174 149  70  66 122 125 123 123 123 118 111 103  92  88  86  83  83  81  82  86  94 101 104 103  85  29  29 101 110 119 124 125 121 113 103  87  71  54  34  20  36  52  57  60  61  61  60  55  54  53  55  55  54  56  58  61  62  65  68  70  70  69  32  39  36  41  58  95 156 161 161 162 162 162 162 161 161 161 161 160 160
 175 174 174 175 175 175 174 176 175 175 176 174 156 110  36  92 124 123 123 122 118 110 106  95  93  90  89  89  92  95 100 105 104 102  95  36  26  57 107 111 118 123 125 122 118 105  90  75  58  45  25  20  42  54  57  59  62  62  59  58  56  56  54  55  58  63  65  67  67  69  70  69  44  36  45  36  42  61 105 157 160 161 161 161 161 162 161 160 160 159 159 159
 175 176 175 176 176 175 175 175 176 176 176 174 161 117  97  40 103 121 122 119 115 110 106 100  97 100  99 102 101 104 106 105 102  94  38  32  39  88 110 115 118 125 130 128 120 107  94  78  63  55  36  26  20  42  59  59  61  63  64  63  60  60  62  63  66  66  67  68  64  67  69  47  25  62  40  39  55  60 113 157 160 161 161 160 161 161 160 161 160 159 159 159
 176 176 176 177 176 175 176 176 176 176 176 175 164 123 116  93  39  89 115 114 112 108 108 105 105 106 106 106 105 104 103 100  70  25  44  53  69 105 114 118 123 131 135 130 121 110  98  83  70  62  50  37  38  21  32  56  62  65  66  66  66  67  66  67  68  68  67  67  64  61  38  27  60  64  47  54  55  61 120 157 160 159 161 159 161 160 161 159 160 160 160 159
 175 176 176 176 176 176 176 175 176 176 176 175 168 136 132 124 105  48  49  84 104 110 110 107 107 107 107 108 100  86  60  30  37  77  77  63  97 112 116 119 129 135 137 131 125 113 100  88  75  64  59  48  46  48  32  17  32  48  62  68  68  69  69  71  69  67  61  52  36  24  42  65  68  63  62  62  56  68 127 158 159 159 160 160 162 161 161 160 160 160 160 159
 174 175 175 176 176 176 176 176 175 176 176 175 171 147 138 120 123 117  94  62  40  42  49  52  55  57  49  35  34  41  66  84  95  83  68  78 102 112 114 121 131 136 136 135 126 112 100  89  78  66  60  54  46  48  52  53  41  31  21  23  30  34  33  31  28  25  25  37  49  63  66  66  69  65  63  68  73  77 137 157 160 160 160 160 159 160 159 160 159 159 159 158
 175 176 175 175 176 176 176 175 176 175 175 175 171 150 141 130 123 118 117 113 114 111 109  97  92  90  97 101 104 101  95  90  80  72  71  89 106 109 113 120 130 134 136 134 125 112  99  87  79  70  62  60  49  46  49  53  59  62  68  70  69  63  65  64  68  72  73  71  70  68  67  66  69  64  62  67  75  91 150 157 159 160 160 160 160 160 160 160 158 157 158 156
 174 176 176 175 175 174 176 175 175 175 175 176 172 146 138 133 123 118 118 116 118 120 120 118 112 110 108 106 104  97  90  83  78  77  85 105 110 110 114 125 131 133 137 134 123 110  97  84  81  72  68  71  63  48  44  49  57  62  66  69  71  73  72  74  72  72  73  72  70  70  68  67  68  62  64  67  70 103 152 157 159 158 159 158 157 158 159 159 156 156 157 158
 174 174 175 175 174 175 177 176 174 174 175 174 172 142 129 129 125 119 116 116 117 118 122 122 118 113 108 103  98  92  88  84  79  81 104 111 112 112 117 125 128 131 137 132 123 108  96  83  79  76  77  79  74  64  47  47  51  58  65  69  71  70  70  70  73  72  72  70  67  68  68  68  66  61  62  65  68 111 152 158 158 159 158 159 159 159 159 158 158 157 157 158
 175 173 172 173 174 175 176 175 176 176 174 175 173 152 120 127 125 117 116 113 115 117 116 116 113 110 102  98  95  91  87  83  82  93 107 108 113 116 122 123 125 130 136 131 119 107  93  82  77  75  77  81  77  73  57  49  52  58  62  66  69  69  68  69  70  71  68  68  66  68  68  67  68  61  60  63  65 124 153 155 157 156 157 158 158 159 159 158 157 157 156 156
 173 174 175 174 174 174 175 175 174 174 173 174 173 170 126 110 113 115 116 116 116 114 112 110 108 106 103  98  94  88  83  81  83 100 103 102 104 109 118 119 124 129 130 124 117 101  88  76  71  66  65  68  67  65  60  48  52  59  62  66  67  67  67  67  65  65  65  66  66  67  67  67  68  61  59  62  77 147 153 154 155 156 156 157 157 158 158 156 156 157 155 155
 173 174 174 174 175 176 175 174 175 174 173 173 175 172 166 128 106 117 118 115 114 108 107 108 105 100  96  95  90  84  79  79  83  94  92  86  80  84  95 106 114 121 124 117 105  92  80  69  62  53  48  47  49  54  58  51  53  57  61  63  65  67  67  66  63  62  66  64  65  65  66  68  62  55  54  67 135 150 152 153 154 155 155 157 156 155 155 156 156 156 154 154
 174 172 173 175 175 174 173 174 174 174 174 175 174 174 171 169 166 129 118 115 111 104 106 107 102  94  92  90  87  81  79  81  87  86  77  64  52  41  48  83  99 107 109  99  86  78  66  58  49  35  22  30  38  44  48  50  58  58  62  63  63  65  66  65  64  63  62  62  63  64  64  71  70  63  88 138 150 152 153 153 153 153 154 154 153 155 156 156 155 156 154 154
 173 171 173 173 174 174 173 173 174 175 174 175 175 173 175 171 169 138 117 113 108 104 105 103  97  94  93  90  86  82  83  86  90  82  60  48  35  28  25  29  72  85  87  81  67  60  54  49  32  18  18  24  30  36  40  50  59  60  60  60  60  62  62  62  63  62  62  62  61  64  65  73 140 149 151 150 152 152 153 151 153 154 153 154 153 154 155 155 155 155 154 151
 172 172 175 172 173 172 174 171 172 174 175 174 174 174 173 172 170 145 116 111 109 104 102 101  97  96  94  92  88  86  87  92  94  87  65  46  36  35  38  42  52  71  70  64  55  50  46  39  23  24  27  28  28  32  39  50  60  64  61  59  59  60  60  60  59  58  59  60  60  61  63  82 145 151 151 152 153 151 152 151 152 153 153 154 153 153 152 153 153 151 152 152
 171 172 172 172 172 172 172 175 174 173 174 173 173 173 173 172 170 157 113 111 109 104 100  99  95  89  87  86  85  88  92  98  99  93  82  67  53  47  51  56  58  66  64  55  48  42  42  33  29  29  29  28  29  32  41  53  61  64  63  61  59  59  56  58  57  55  56  58  60  61  65  97 146 151 151 152 152 150 151 151 151 151 151 150 151 152 153 153 153 153 153 152
 171 171 172 173 172 174 175 174 176 176 175 174 173 174 173 173 171 161 112 112 106 104  99  98  98  95  90  88  88  90  96 102 102  97  89  78  71  66  65  66  64  64  61  53  44  40  37  34  32  31  31  33  34  37  44  52  60  62  62  60  59  57  57  56  54  53  53  54  58  62  69 106 147 151 151 151 152 150 149 150 152 152 152 152 153 153 153 152 153 153 152 151
 171 173 173 173 174 176 177 175 176 176 176 176 174 175 175 175 172 168 122 113 106 100  98  97  98  97  92  90  89  91  95 101 102  98  94  86  77  74  73  73  70  64  60  54  44  42  38  38  36  36  38  40  40  43  46  51  59  59  57  56  56  53  56  55  54  52  52  54  56  61  70 120 149 151 150 151 151 150 150 150 151 150 151 152 152 152 152 153 152 153 152 151
 174 172 174 174 173 176 178 177 176 176 177 176 176 175 176 174 174 171 136 112 104 101 102  99  97  96  93  88  88  89  94  98 101 100  94  89  88  84  80  79  76  70  62  53  46  44  45  44  43  42  43  44  45  46  47  50  56  55  52  50  52  51  52  53  54  53  54  54  58  62  71 134 150 152 152 150 152 150 151 151 151 151 151 151 150 151 152 153 153 153 152 152
 173 174 175 175 175 176 177 177 177 177 176 177 176 176 176 175 175 173 148 113 102 103 103 102  96  95  90  88  87  89  94  96 100 101 100  98  97  93  89  86  80  71  63  54  51  54  55  51  49  47  47  46  49  50  51  51  55  54  52  49  50  49  49  52  54  52  53  54  59  64  80 141 150 151 150 150 151 150 150 151 150 151 151 152 152 151 151 152 152 152 152 151
 173 174 174 175 177 177 177 178 178 178 177 177 177 175 176 176 176 173 160 115 103 102 103 100  96  93  90  89  89  92  97 100 102 103 103 106 103  98  95  91  83  74  62  56  56  61  64  60  54  52  51  51  52  52  53  52  54  56  53  53  52  50  49  50  52  52  52  54  58  65  95 144 150 150 150 151 150 150 150 150 150 152 151 151 153 153 153 152 151 152 150 150
 173 174 176 175 177 177 179 179 178 178 176 177 177 176 176 175 177 173 169 122 107 102  99  99  95  90  90  89  86  85  90  94  99 105 106 108 107 103 101  97  88  74  65  60  63  68  69  69  62  56  54  54  54  55  54  53  54  55  50  49  50  49  49  50  53  53  52  54  58  67 112 145 148 149 149 151 151 151 150 150 150 152 152 152 153 151 153 153 152 152 151 152
 174 174 175 175 176 177 178 177 177 175 176 176 176 174 175 174 174 174 169 139 110 104  98  98  95  88  89  87  75  73  77  87  94 101 103 106 105 101  99  95  85  78  73  67  69  73  73  69  64  59  55  56  58  59  54  53  51  51  48  46  46  50  50  49  52  53  53  55  60  70 129 144 146 148 148 150 148 149 149 149 150 151 152 152 151 151 152 152 152 152 152 151
 173 175 174 174 175 176 177 176 176 177 174 175 175 174 174 174 174 173 170 158 113 106 103  99  95  89  90  81  68  58  59  75  83  90  91  92  89  81  75  71  70  71  74  72  71  69  63  58  55  55  52  55  57  59  54  51  49  48  40  39  44  49  50  50  53  51  54  56  62  81 136 143 145 146 146 148 148 147 148 149 150 149 150 150 151 150 151 152 153 152 152 151
 173 174 174 172 173 174 174 175 175 174 174 174 173 173 174 174 173 172 170 164 122 106 104 100  91  88  86  75  59  47  38  45  57  61  63  61  60  56  56  53  52  53  53  57  56  48  45  43  40  40  40  43  45  47  46  44  42  35  28  34  42  47  49  51  53  52  54  59  64 103 138 140 141 144 144 145 145 146 147 148 147 147 149 149 151 150 151 151 151 152 152 152
 172 173 172 171 172 173 174 174 175 174 172 172 172 171 172 172 171 171 170 166 142 106 104 101  94  88  84  71  55  48  50  57  47  46  49  49  47  47  47  48  46  45  44  44  39  36  36  36  35  34  33  33  31  32  32  29  28  32  34  41  46  48  50  54  52  52  55  60  68 123 137 139 140 142 144 144 143 145 144 146 146 146 147 149 149 149 150 150 151 152 151 150
 172 172 171 171 172 173 174 173 173 172 172 171 171 171 171 170 170 170 169 166 158 112 101 102  96  91  86  76  66  63  72  85  75  62  61  61  53  43  36  35  38  38  38  37  33  31  31  28  29  28  27  26  25  26  28  28  36  40  41  43  48  50  52  53  51  54  56  61  76 126 136 139 139 141 143 143 143 144 143 144 144 144 146 148 149 148 150 150 151 151 152 151
 169 170 171 170 171 171 171 172 172 171 172 170 169 168 170 170 169 168 169 166 162 132 104 102  96  94  88  79  74  77  86  96  92  80  74  72  75  76  68  58  54  50  41  39  37  36  33  32  29  27  28  30  31  35  36  40  48  48  45  43  50  53  53  53  50  53  57  64  81 127 135 137 137 138 140 142 143 143 143 143 143 143 144 146 146 148 148 149 149 151 151 150
 168 169 169 170 169 169 170 171 171 168 168 169 168 168 167 167 167 167 167 164 162 147 105  99  95  92  89  82  79  85  89  98 100  92  84  78  78  82  84  82  80  76  71  64  64  63  58  52  47  45  42  41  40  38  42  47  50  49  46  42  49  52  52  52  51  54  57  66  82 126 132 135 136 137 139 139 142 141 142 142 141 143 143 144 144 147 147 147 149 148 148 149
 169 168 168 167 167 166 167 168 168 169 166 165 166 166 165 165 165 165 165 164 161 154 114  97  95  93  89  87  83  86  92  89  95  96  93  88  79  75  80  80  78  75  74  71  70  69  62  58  48  44  41  39  39  43  47  49  51  49  48  47  51  53  49  49  52  53  59  68  84 126 132 134 136 136 137 139 141 139 140 142 142 143 143 143 144 145 146 147 147 148 148 148
 165 165 166 165 165 164 166 165 165 166 164 164 164 164 164 164 164 162 162 163 161 154 123 100  92  91  90  88  84  88  93  81  83  93  96  92  86  75  71  69  67  62  62  59  58  56  53  49  43  39  38  38  43  47  49  49  50  50  50  53  53  51  47  48  51  56  62  68  84 126 131 132 134 135 137 137 138 139 140 139 139 141 143 143 143 145 145 145 146 147 146 148
 162 163 163 164 164 163 164 163 163 162 164 163 161 162 162 162 160 161 160 160 157 154 123 106  93  89  86  86  88  90  93  89  87  92  92  89  84  78  72  67  61  57  54  52  50  48  45  42  40  39  41  42  45  46  47  50  50  50  52  53  52  52  50  49  53  57  64  67  83 126 129 132 133 134 135 136 137 138 137 138 140 140 141 142 142 143 144 145 145 145 146 145
 162 161 162 161 160 162 162 161 160 162 162 160 157 159 160 160 158 159 158 157 156 151 122 111  93  88  84  86  87  91  94  92  91  90  89  85  82  77  71  66  59  55  52  48  46  45  45  43  42  42  43  43  43  45  47  50  50  50  53  53  53  52  49  50  53  60  64  66  85 125 130 132 132 131 133 136 138 137 137 137 138 138 139 140 140 142 143 143 144 144 144 146
 157 157 157 159 157 157 158 157 158 158 158 156 155 157 155 155 155 154 154 153 154 147 124 116 104  89  85  85  86  90  92  92  89  86  85  83  79  72  68  65  59  56  53  50  46  45  45  45  43  43  42  43  46  46  46  48  52  51  51  52  51  51  49  50  54  62  64  68  86 126 131 132 131 131 132 135 137 136 137 138 137 138 138 139 140 140 143 143 144 145 144 145
 154 154 155 155 155 156 157 156 155 155 154 156 154 155 154 154 154 153 153 153 151 147 124 116 108  92  85  84  87  89  91  91  91  91  88  84  80  74  72  64  62  60  55  52  49  50  50  49  47  46  44  46  46  45  47  49  53  52  51  52  51  50  49  51  55  61  64  68  85 124 129 129 131 131 131 134 134 136 135 136 136 137 138 138 140 141 142 142 142 144 144 144
 154 154 155 153 155 155 154 154 154 154 154 153 153 153 153 152 153 152 151 151 150 146 127 117 111 100  88  84  88  85  84  89  90  89  88  85  79  75  73  67  63  59  57  56  54  55  56  52  49  48  49  48  48  49  51  52  53  53  52  54  51  49  50  53  56  60  62  67  87 124 129 129 129 130 130 131 133 135 135 134 134 136 136 137 138 138 140 141 141 143 144 144
 154 152 153 153 154 154 154 153 153 154 152 152 151 152 152 152 151 150 150 148 148 147 126 118 113 105  92  85  87  87  80  88  90  88  85  81  79  80  78  77  74  70  68  68  67  65  62  59  57  56  52  50  51  52  52  53  54  54  53  52  49  49  50  53  55  59  61  67  84 126 128 127 129 128 129 131 132 132 133 134 134 135 135 137 138 138 139 140 142 142 143 143
 152 151 153 152 153 152 152 152 152 151 150 151 150 151 151 151 150 149 148 147 146 144 126 120 114 110 101  86  85  88  89  88  91  89  89  88  85  84  86  88  86  83  82  77  73  71  70  67  64  59  56  56  54  53  53  53  53  53  50  49  49  49  50  53  54  58  61  68  83 124 127 127 128 129 129 131 130 132 133 132 133 133 133 135 136 137 137 138 139 141 141 142
 151 152 150 152 151 149 151 150 151 149 150 149 149 147 149 149 149 148 147 146 145 143 125 117 116 111 106  92  84  85  90  92  93  94  94  91  88  89  89  88  92  93  88  85  81  79  78  76  69  61  56  58  56  54  55  55  54  52  48  48  47  46  49  53  54  60  62  66  84 121 125 126 127 126 127 128 130 130 131 131 132 132 130 135 135 136 136 138 139 141 140 141
 149 149 148 148 149 148 149 149 149 148 149 148 148 146 148 147 146 146 145 144 145 141 126 119 115 113 108 101  87  83  87  92  92  95  95  91  85  88  93  96  95  91  89  85  80  79  77  75  69  61  59  60  59  56  54  53  51  50  48  48  46  47  50  53  54  61  62  67  80 122 125 126 126 127 127 128 128 128 131 131 130 130 130 132 133 134 136 136 137 138 139 139
 146 146 147 148 148 148 148 148 148 147 146 147 145 146 146 146 145 144 144 144 142 141 124 119 116 115 112 106  95  83  86  89  86  91  96  93  85  82  91  95  96  91  90  86  80  77  76  73  67  63  63  61  58  55  52  50  48  48  47  47  47  48  50  53  58  60  64  67  78 123 126 126 124 126 127 127 127 128 129 130 130 131 130 130 131 132 135 135 136 136 137 138
 147 146 145 144 144 145 147 146 147 147 145 144 144 146 144 144 144 142 142 142 143 139 123 119 116 118 115 108 101  90  83  87  89  92  92  90  82  80  90  91  90  87  87  82  75  74  73  70  66  60  61  61  56  53  51  49  48  47  46  44  47  48  48  55  59  62  63  68  76 121 125 125 124 125 126 126 126 127 127 126 127 129 129 130 131 132 133 134 134 135 137 137
 145 146 146 145 144 145 145 146 144 144 142 143 145 140 126 110 105  92  89  94 133 135 124 121 120 118 115 110 103  96  88  82  89  91  88  84  77  77  88  88  84  78  76  71  71  71  70  68  64  58  59  56  50  50  48  47  46  46  43  46  47  47  51  56  59  61  63  67  73  91 119 123 124 123 124 124 126 127 126 125 128 128 128 129 130 130 132 132 132 134 135 137
 145 144 145 144 145 143 145 144 143 142 142 139 123  83  64  51  45  42  42 105 143 130 121 121 121 117 115 111 107  98  94  86  82  85  83  80  82  78  82  83  78  73  71  69  67  66  65  63  58  57  55  51  46  46  44  44  43  42  43  46  47  49  53  55  59  61  62  66  70  56  69 105 120 122 123 124 125 124 125 125 126 127 126 127 130 131 131 131 132 133 135 135
 143 143 142 143 143 142 143 142 141 138 123 108  89  50  38  32  30  32 105 146 139 128 123 122 121 119 115 113 110 104  97  90  81  78  78  75  78  79  77  73  71  70  68  66  61  60  56  56  57  52  50  46  43  42  42  42  41  42  42  44  47  51  53  57  60  62  62  66  69  54  49  62  71  94 116 121 123 124 124 125 125 124 125 126 126 128 130 131 130 130 133 134
 140 140 140 140 140 140 139 128 107 108 102  92  62  28  30  30  52 126 145 145 136 126 124 123 123 120 118 114 111 108 101  95  89  77  71  71  74  72  71  70  68  66  65  59  57  56  54  54  53  48  44  39  38  37  38  38  39  42  42  46  49  51  54  58  60  62  63  66  67  61  40  48  51  52  45  76 113 122 122 124 125 123 124 124 124 126 128 128 129 129 132 132
 140 140 139 139 137 125 103  94  94  95  93  85  59  50  42  83 131 141 144 140 133 126 122 123 121 121 118 114 111 109 104  97  92  85  73  64  66  66  65  63  60  58  54  54  53  51  50  47  46  42  38  35  35  36  36  37  40  43  44  47  48  51  54  59  60  61  63  66  66  66  36  42  47  48  41  41  48  89 117 120 123 121 122 124 124 126 126 127 127 129 130 130
 138 136 137 128  79  62  79  82  86  89  87  87  63  47  74 122 134 140 142 140 130 124 121 120 120 119 116 113 112 109 104 102  95  90  84  70  59  56  56  54  54  51  47  47  46  44  44  44  40  37  36  35  33  36  38  39  43  44  45  49  50  52  54  56  59  60  63  64  65  67  41  42  44  46  46  36  36  36  61  94 115 120 121 121 123 124 124 126 125 128 128 129
 136 134 112  63  57  60  82  74  88  88  78  83  64  56 101 121 130 136 139 135 127 122 117 116 117 117 116 113 111 108 105 102  97  91  84  82  75  63  52  48  44  42  41  38  38  37  37  36  35  33  34  36  36  37  39  41  43  46  47  49  51  53  57  57  60  61  62  63  64  66  41  38  39  42  44  36  32  33  35  38  44  59  79  97 118 122 121 123 124 126 127 127
 104  73  58  56  59  58  80  78  81  81  77  78  69  60  99 118 122 132 135 132 126 120 117 116 116 116 114 112 110 110 105 101  97  93  87  84  79  75  70  60  53  45  40  40  39  38  37  37  36  37  38  38  39  41  43  44  47  48  49  52  54  54  55  58  59  61  61  60  62  63  40  36  36  37  43  36  30  33  33  35  33  36  41  44  54  80 109 122 123 124 126 126
  63  54  50  50  52  52  74  74  76  77  70  75  78  61  92 108 117 122 129 129 124 120 116 114 114 113 113 111 110 110 106 102  97  95  90  86  83  78  75  73  69  65  58  56  51  48  46  44  41  40  39  41  43  45  46  47  48  49  50  52  53  55  55  58  59  60  60  58  60  58  36  35  35  37  37  33  28  31  31  30  31  33  34  38  39  41  42  68 101 121 122 123
  49  48  51  52  49  45  66  70  71  79  70  68  79  68  80  97 107 114 118 121 119 118 115 113 112 112 111 110 109 107 106 103  99  94  91  87  85  82  78  75  71  69  65  62  58  56  53  49  47  46  45  46  46  47  47  47  49  51  52  51  54  55  55  57  59  58  58  57  59  53  36  34  32  34  33  31  25  29  30  29  28  28  30  35  36  36  39  42  40  62  98 120
  46  49  46  45  47  44  52  69  68  77  67  65  74  66  72  88  98 105 109 114 114 114 114 112 111 110 110 108 108 106 105 104  98  95  92  87  85  82  80  78  73  72  68  65  62  59  56  53  51  51  49  49  48  48  49  50  49  50  51  54  54  56  56  56  57  55  55  55  57  43  36  31  31  34  31  25  24  25  26  29  30  29  30  31  33  35  35  36  36  40  42  54
  50  44  37  43  46  46  49  62  67  63  65  68  67  66  66  76  92  99  99 102 109 112 112 111 111 110 108 104 106 105 106 103  99  95  92  89  86  82  81  78  75  72  68  65  64  61  59  56  55  53  52  52  51  50  51  49  50  51  52  54  56  57  56  55  55  54  54  54  49  39  34  31  32  34  32  24  24  24  27  27  28  27  28  30  31  34  34  35  35  35  39  34
  44  33  38  47  45  48  51  50  69  66  65  63  58  61  70  70  84  88  89  91  99 106 110 111 110 111 107 106 103 104 104 102  99  96  92  89  87  84  81  78  76  74  71  69  67  64  61  58  57  55  54  53  52  51  51  51  50  52  53  56  54  53  55  54  54  53  53  52  40  38  33  30  31  30  31  22  24  26  26  25  28  27  31  29  28  33  33  32  33  33  39  36
  39  36  40  47  45  46  48  52  58  70  60  58  59  59  63  67  75  78  82  79  88  99 104 109 111 109 107 105 102 102 103 101 100  95  93  89  85  84  82  77  76  73  70  68  66  64  60  59  57  56  54  54  52  52  51  50  51  53  54  54  56  54  54  53  53  52  52  42  38  36  31  30  31  33  29  20  25  28  25  25  27  29  31  30  30  31  32  32  35  34  36  34
  39  36  43  43  46  43  47  46  48  57  60  57  57  58  58  56  58  64  77  80  81  86  98 107 111 108 104 106 102 102  99  98 100  96  94  91  86  84  81  78  75  73  72  68  68  65  63  62  58  57  56  55  52  52  52  51  53  52  54  56  55  55  54  52  52  52  44  35  36  30  29  29  27  32  25  25  25  24  26  26  26  26  31  31  30  32  33  31  32  33  33  30
  33  34  42  43  44  38  45  42  45  51  59  58  60  56  47  51  52  54  71  75  75  79  85  98 105 109 105 104 102  99  98  97  96  94  94  90  88  85  82  79  77  74  73  71  68  65  64  61  60  58  55  54  53  52  52  52  52  54  55  54  55  54  53  49  50  46  36  34  33  31  32  32  28  32  23  23  25  26  26  27  26  27  29  30  30  32  33  33  33  33  33  31
