P2
# Generated by OpenCV 3.4.0
92 112
255
 162 164 165 164 164 165 164 162 163 164 163 164 162 162 142  71  44  35  32  39  42  43  46  42  35  32  36  41  39  36  34  30  30  33  36  40  35  33  31  28  27  25  24  23  24  22  21  18  19  21  20  19  17  18  18  17  18  17  16  18  18  23  28  33  39  57 125 150 159 160 161 160 160 160 159 160 160 160 159 159 159 157 159 160 156 156 158 156 157 158 155 156
 160 162 164 162 163 164 164 163 161 162 162 162 161 161 102  60  36  33  34  39  39  43  46  45  40  38  43  41  34  31  31  30  31  29  33  32  29  29  28  27  25  24  24  26  25  25  24  21  17  18  19  20  18  17  19  19  18  17  17  17  19  22  25  27  33  48 110 147 159 160 161 160 161 160 160 160 161 160 160 158 159 159 159 160 158 156 157 158 158 159 157 156
 160 161 163 161 162 164 163 162 162 163 163 163 162 125  69  44  35  34  32  34  41  51  50  47  43  42  38  32  32  34  36  36  30  23  23  26  27  27  29  30  28  26  24  24  22  22  23  22  19  17  16  19  18  21  18  18  19  18  17  18  18  19  22  25  32  38  80 149 153 159 160 160 160 159 157 160 161 161 161 159 159 157 159 160 159 159 159 158 158 159 157 155
 160 163 163 161 162 164 164 163 164 163 164 164 139  71  54  41  42  36  39  43  41  37  35  39  39  42  41  36  38  37  32  29  26  23  24  20  20  23  26  29  32  31  30  28  24  22  19  19  20  18  17  17  18  22  20  20  21  19  18  18  18  19  21  24  28  31  47 104 147 159 160 160 160 159 160 160 160 161 161 160 160 160 159 159 158 160 161 159 160 159 159 158
 160 162 163 162 162 163 163 164 164 164 164 157  83  63  46  38  38  39  40  36  31  32  33  34  37  36  36  33  33  32  29  30  29  31  28  27  23  21  22  21  22  24  28  26  25  25  22  19  17  18  18  16  17  19  17  19  20  19  19  20  20  20  19  22  24  28  36  46 119 158 160 160 160 162 161 160 162 160 160 160 160 160 159 160 158 160 160 159 160 160 160 159
 160 163 164 162 161 164 162 164 165 165 161 116  63  57  38  35  36  36  34  30  29  33  37  37  37  35  34  32  33  30  30  32  35  34  32  30  30  29  22  21  21  21  22  24  24  23  24  23  23  20  19  19  18  18  19  18  19  20  20  20  22  23  24  22  23  28  32  37  70 148 158 160 163 162 160 160 160 160 159 160 161 162 160 160 160 161 161 160 160 160 160 160
 162 164 163 162 162 163 164 164 164 163 150  70  57  41  32  32  32  31  27  26  28  34  39  37  37  38  40  36  28  27  30  34  34  34  37  43  35  27  28  28  27  24  23  23  19  18  17  17  17  17  18  19  20  18  18  18  19  19  19  19  20  20  22  24  23  25  28  32  36 120 153 160 160 160 161 160 161 161 161 160 161 161 161 160 160 160 160 160 160 160 160 160
 163 163 162 161 162 163 164 164 164 162 111  60  48  32  31  29  30  27  23  25  31  36  38  37  31  25  22  20  23  28  32  30  34  39  39  35  32  30  29  29  26  24  22  18  16  15  14  14  13  14  15  16  16  18  17  18  18  20  19  19  20  20  22  24  21  23  26  33  32  73 144 158 162 162 162 161 162 161 161 163 161 161 161 160 160 160 160 160 160 160 160 160
 164 163 163 162 163 163 165 165 164 158  70  52  39  31  28  30  28  25  25  33  33  33  31  27  27  23  21  22  25  29  30  38  39  34  32  29  28  27  24  22  22  20  17  15  15  15  14  15  14  14  14  14  14  15  16  18  19  19  17  18  18  18  19  23  23  23  28  32  32  47 132 160 162 162 161 160 162 161 162 162 160 160 160 160 160 160 160 160 161 161 160 160
 164 162 163 164 164 165 165 164 162 119  53  45  36  30  28  29  25  26  28  29  27  27  29  29  25  25  26  25  27  30  35  36  30  28  26  25  23  20  23  23  23  21  16  17  16  16  17  16  16  17  16  15  15  16  16  16  19  18  18  20  20  20  19  22  23  24  28  30  31  49 110 157 162 164 162 161 162 162 162 162 161 161 161 161 160 161 161 161 162 161 161 160
 162 163 163 163 165 164 164 162 163  77  49  42  34  30  29  27  28  31  30  27  28  29  30  30  29  31  29  27  28  33  32  30  28  25  25  23  22  23  24  24  24  22  19  21  21  19  20  22  20  19  20  18  17  19  18  18  18  19  20  20  20  20  20  23  26  26  24  27  31  43  87 156 161 163 163 161 163 162 162 162 162 162 162 162 161 162 162 162 161 161 162 161
 163 163 163 164 163 164 164 162 146  57  43  38  33  30  30  30  31  29  28  27  30  32  33  34  35  35  35  35  37  35  32  30  28  28  28  28  27  26  26  28  26  25  24  25  26  24  24  25  25  25  25  24  23  23  20  22  20  22  22  22  22  21  22  24  24  24  23  26  31  38  58 150 161 163 160 160 163 164 162 161 161 163 163 159 161 161 162 162 161 161 161 161
 162 163 163 164 162 164 164 161 107  58  38  35  33  32  33  34  35  28  29  32  33  34  34  35  36  36  36  34  33  35  33  32  32  31  31  31  30  30  31  30  30  29  29  28  29  29  29  29  29  29  28  28  27  28  26  26  25  25  23  24  23  24  24  25  25  24  26  27  31  36  51 122 159 162 161 162 163 163 163 164 163 162 163 162 164 163 164 163 161 162 161 162
 164 161 162 163 162 163 164 158  72  48  33  35  33  33  38  42  44  31  32  37  38  36  36  36  36  37  36  35  35  36  37  39  37  35  36  35  34  35  34  34  33  33  31  32  31  32  33  33  32  33  33  32  32  31  30  30  29  29  28  29  26  28  27  26  26  25  25  29  31  33  47  86 154 162 164 163 164 164 164 162 162 162 163 161 163 163 163 163 164 162 161 162
 164 162 160 162 162 164 162 143  48  41  33  36  40  44  52  54  52  36  44  47  39  38  43  46  47  45  45  46  45  45  44  45  44  44  43  42  40  40  38  37  38  37  37  36  38  36  37  38  38  38  37  36  36  36  34  34  34  34  31  31  30  30  31  29  27  23  26  29  31  34  42  77 150 160 163 162 162 162 162 162 160 161 162 162 161 163 163 164 164 162 163 162
 164 163 164 164 163 162 162 106  49  42  39  48  53  58  66  76  63  46  53  46  43  47  52  53  54  53  52  53  54  51  51  51  50  48  47  45  43  44  42  43  42  43  41  41  41  41  41  42  42  43  43  42  41  40  39  38  37  36  35  38  37  37  35  32  29  25  28  31  33  33  40  64 151 158 162 163 163 162 164 164 163 163 162 163 164 164 164 164 164 162 163 164
 164 164 164 164 164 163 162  71  43  45  48  54  58  71  82  90  80  60  57  53  57  60  64  63  62  62  60  59  58  61  59  56  54  52  51  48  48  48  47  47  47  48  46  45  45  45  47  46  48  48  47  47  47  45  45  45  44  43  43  42  41  40  39  36  30  27  28  32  32  34  37  50 145 160 164 164 165 165 164 165 164 162 163 164 164 163 163 163 164 164 164 163
 164 163 164 164 165 165 156  58  43  48  50  51  67  86 100 105  94  82  74  70  75  74  76  74  75  73  72  71  71  68  66  63  61  58  54  52  52  53  52  51  51  53  52  50  51  50  53  52  50  51  52  52  51  51  49  50  51  49  48  49  48  48  44  42  34  29  29  34  30  32  37  48 116 161 164 164 162 162 164 164 164 163 164 165 164 164 164 164 164 164 164 163
 164 162 164 165 166 165 153  59  45  46  44  55  74  98 112 113 109 102  91  84  86  85  86  85  86  83  82  78  75  73  70  70  68  63  61  58  57  57  56  58  56  54  54  55  55  56  56  56  57  54  56  55  54  55  55  56  57  56  54  54  54  51  50  45  39  32  31  35  30  31  36  44  88 156 161 163 163 162 162 163 163 163 163 163 163 164 164 162 163 164 163 163
 165 165 166 165 165 165 151  54  45  41  46  59  81 104 117 118 118 108  97  92  88  90  91  90  91  89  86  83  81  78  74  73  71  67  66  63  63  62  62  62  62  60  57  59  60  61  60  59  59  58  59  58  55  55  56  55  56  54  56  56  57  56  54  48  46  36  32  34  31  33  36  42  68 154 163 164 163 163 164 165 165 165 165 164 164 164 164 163 163 164 163 163
 167 167 167 167 166 166 146  47  44  41  54  61  79 103 119 120 119 113 108 104 100  99  97  97  96  93  90  88  85  82  79  78  75  72  71  70  69  69  67  66  66  66  63  63  63  62  62  62  61  62  61  61  61  59  58  57  57  56  54  55  56  56  55  53  50  42  34  32  32  34  35  41  56 137 162 165 164 163 164 164 165 165 165 166 164 164 164 163 164 165 163 164
 169 170 169 171 169 168 139  49  43  46  52  60  77 108 122 122 120 116 113 111 109 107 104 104 103 100  96  93  89  86  84  80  79  77  75  74  73  73  72  72  70  69  68  69  67  67  67  68  67  64  63  64  64  60  60  60  63  62  61  62  61  58  57  56  54  47  34  30  32  32  36  38  51 128 160 163 164 163 163 164 164 164 164 164 165 163 164 163 163 164 164 164
 171 173 174 174 175 173 127  52  42  48  50  56  80 110 120 122 119 115 117 116 113 111 107 106 105 102  97  92  90  85  85  84  82  81  79  75  75  74  72  72  70  70  72  70  70  68  67  68  68  64  64  64  64  62  64  64  65  65  64  64  64  62  63  59  58  51  38  30  30  32  36  37  45 140 160 165 164 164 165 165 164 165 164 164 164 163 164 163 164 164 163 163
 177 179 180 181 184 181 146  44  43  44  47  56  77 107 120 121 118 119 117 115 113 109 107 107 105 103  99  94  89  87  86  83  83  81  80  77  78  76  75  71  69  72  74  73  71  68  68  69  68  66  65  64  65  65  65  63  64  66  65  65  66  64  65  66  62  59  43  31  30  32  36  36  51 146 163 165 164 165 164 165 164 164 164 164 164 164 164 164 164 165 163 162
 186 186 185 189 191 188 164  44  45  41  45  54  76 108 120 120 120 120 116 114 114 112 112 110 107 104  98  93  91  90  86  84  83  82  80  77  78  76  73  70  71  73  73  72  70  68  69  70  68  66  62  63  64  65  66  66  65  65  64  64  64  64  62  65  65  62  51  33  30  32  34  36  43 138 163 164 164 165 165 165 164 165 165 164 164 164 166 164 164 164 163 162
 193 192 193 195 196 193 150  43  44  39  44  52  75 109 119 122 123 121 120 119 119 118 117 111 106 102  96  94  90  90  88  85  82  81  78  76  73  71  69  70  72  72  72  70  69  69  69  69  67  66  63  63  64  66  67  68  70  67  65  63  61  60  61  63  66  64  59  35  30  31  31  35  42 119 158 163 164 164 166 166 164 165 164 164 164 164 164 163 164 164 164 164
 192 191 193 192 194 193 139  47  41  38  43  52  79 110 120 122 122 121 121 120 119 117 109 101  96  94  93  93  90  90  88  86  82  78  77  76  75  72  70  70  71  72  70  69  68  70  70  69  67  63  61  61  64  68  69  67  66  64  61  63  64  64  63  65  66  66  64  40  31  30  31  36  39 122 156 164 164 164 164 165 164 164 166 164 164 164 165 163 164 163 164 163
 184 183 184 183 186 187 130  49  38  38  39  49  81 109 120 122 122 120 117 108 104  98  88  81  81  82  85  89  88  88  86  84  83  79  75  74  74  71  70  70  70  70  69  68  69  70  69  68  65  60  62  66  68  69  68  66  63  63  63  66  68  68  68  67  65  68  67  46  31  28  32  36  40 137 161 164 164 165 164 164 164 165 164 165 164 163 164 164 164 163 163 164
 176 174 177 178 177 172 112  45  38  35  36  46  81 110 120 119 117 109  94  83  69  60  53  53  59  59  64  71  76  80  81  81  80  76  76  75  72  70  70  70  68  68  67  66  70  71  68  66  62  61  63  67  68  66  62  57  51  46  52  56  58  60  67  68  66  67  67  51  31  28  32  37  46 142 161 162 160 161 164 164 162 163 164 165 164 164 164 162 163 162 163 164
 171 172 172 172 172 164 111  44  36  34  35  43  82 112 117 112 100  77  63  57  48  40  37  35  33  37  42  46  52  60  70  74  75  74  75  76  71  71  70  69  70  68  65  65  67  67  64  63  60  62  65  66  63  59  47  43  35  33  35  34  36  38  48  55  62  65  67  55  31  28  32  37  44 142 159 163 163 164 165 165 166 164 166 164 164 164 164 164 163 163 164 162
 169 169 170 171 170 165 111  42  35  34  32  41  83 110 111 106  80  52  45  40  36  33  33  34  32  34  36  32  36  43  52  54  64  66  70  71  68  69  67  70  68  65  63  63  67  67  66  63  61  62  62  60  55  45  39  33  28  28  25  25  23  24  28  36  39  56  67  57  30  26  30  36  55 145 159 162 165 165 165 165 165 166 164 164 164 164 163 164 164 164 163 162
 166 168 169 169 167 165 115  40  34  31  29  40  86 110 110  93  53  41  42  40  41  43  44  44  44  42  41  37  33  36  43  49  53  56  65  68  68  66  66  68  62  63  63  63  68  68  63  63  60  57  55  50  45  35  34  28  25  25  24  24  22  21  22  24  28  37  62  61  30  27  30  36  67 153 160 164 165 166 166 167 165 165 164 163 163 163 163 164 163 164 163 163
 164 165 167 166 166 164 114  39  33  28  28  40  87 110 100  62  48  55  64  68  73  72  68  66  62  55  52  48  41  37  38  46  48  51  57  61  64  65  65  64  62  62  61  63  67  66  65  60  53  49  45  41  35  30  30  28  28  27  26  26  27  26  26  27  28  29  47  59  30  28  31  36  66 157 163 164 165 165 166 166 166 165 164 164 164 165 162 163 162 164 161 161
 164 165 166 165 166 164 119  38  32  27  27  42  90 102  68  56  63  78  89  90  89  84  78  73  67  60  57  53  51  44  38  39  45  49  49  54  60  61  63  62  61  60  60  62  67  63  60  54  47  43  38  32  30  30  29  29  30  32  33  35  38  38  38  38  36  34  33  47  28  26  28  32  71 157 164 166 165 166 164 164 165 164 164 164 164 164 164 163 162 162 163 162
 165 164 164 166 166 162 122  37  34  25  29  48  95  89  62  68  78  90  94  92  85  78  72  68  63  55  52  48  49  48  45  42  42  45  45  49  56  59  61  60  61  61  60  63  67  61  57  49  45  38  33  29  29  29  30  33  33  33  33  33  32  32  34  33  33  33  34  34  25  25  26  31  86 157 164 165 165 166 165 164 165 163 164 163 163 163 164 163 163 162 163 162
 164 164 165 164 165 164 120  32  35  26  28  52  95  81  65  60  51  44  32  31  25  23  27  26  28  28  27  28  29  33  35  39  37  38  39  45  49  54  58  61  63  63  60  63  63  59  52  44  38  33  29  28  28  26  25  22  20  21  21  22  24  25  26  26  26  23  20  19  21  22  24  29  88 154 161 161 164 165 164 164 165 162 163 164 164 164 162 162 162 162 161 162
 164 164 165 164 164 162 120  37  41  39  41  49  43  34  31  28  37  46  55  55  53  52  49  47  46  44  42  39  35  29  27  24  22  25  30  34  43  50  58  64  62  61  59  61  61  54  43  37  31  28  23  21  21  23  27  30  34  37  39  40  41  43  44  45  46  46  46  42  32  25  21  22  21  25  46  87 157 163 164 164 164 164 164 164 164 163 163 163 162 162 162 162
 164 163 165 164 164 161  88  58  47  42  39  36  29  34  59  79  83  73  66  55  49  42  38  35  34  34  36  39  44  43  45  41  38  30  23  19  21  29  40  52  55  52  51  52  48  38  30  25  21  19  24  30  32  33  35  34  33  33  32  32  32  35  37  39  44  47  50  52  33  30  30  23  23  25  38  37 151 162 164 164 164 164 164 164 164 164 164 162 164 162 163 162
 162 162 163 164 162 154  66  97  58  38  35  32  55  98  98  88  76  64  51  41  37  38  34  32  30  28  28  30  33  39  40  42  38  40  41  35  20  18  18  20  19  17  15  16  16  16  18  18  20  29  32  32  32  31  32  29  27  25  23  24  24  26  26  32  38  44  49  54  32  27  33  34  23  22  26  46 152 163 164 164 164 165 164 164 164 164 164 161 163 164 163 161
 161 164 162 163 161 148  59  43  36  34  31  42  95 103  92  80  66  50  37  36  33  35  35  38  36  36  32  31  30  32  35  38  38  37  40  45  38  18  18  18  18  16  15  16  15  16  17  21  30  30  31  30  30  29  27  25  24  26  26  26  24  23  26  26  31  39  48  56  35  27  32  73  27  22  86 158 161 164 163 163 162 162 164 163 163 163 164 160 164 162 161 162
 163 164 164 161 158 136  57  50  45  33  34  45  90  95  82  70  50  37  34  30  33  47  68  75  76  63  59  49  36  33  33  33  36  36  39  45  50  26  18  18  20  23  23  21  16  17  16  27  29  29  30  29  26  27  27  32  41  46  47  44  38  28  25  24  26  34  46  57  40  27  30  28  33  30 154 160 163 163 163 162 162 163 163 163 162 162 163 161 162 160 160 161
 164 162 163 161 159 134  58  50  37  31  36  47  91  91  76  62  44  33  31  34  55  85  95  77  72  67  66  66  54  40  35  35  33  36  38  46  53  37  18  22  32  45  51  42  30  18  17  30  29  28  28  26  26  29  41  46  42  45  46  57  55  46  33  25  26  29  41  55  47  25  22  59  73  32 153 162 162 163 164 163 163 164 163 161 160 161 163 162 161 162 163 160
 160 162 161 164 161 142  63  66  29  30  32  44 101  88  72  58  42  35  33  45  78  95  64  46  32  34  33  57  60  47  36  36  36  39  42  48  56  44  19  29  57  88  88  75  49  23  19  30  28  28  27  28  28  37  46  32  28  28  23  36  58  53  43  28  25  27  39  54  55  27  43 107  95  38 155 162 162 163 163 163 163 163 163 163 161 160 163 163 164 163 162 161
 164 163 163 160 139 123  77  86  39  29  43  49 106  94  78  61  44  40  44  63  83  67  37  53  26  23  27  34  55  48  37  32  36  46  50  56  60  36  20  34  89 108 104  93  72  29  19  30  28  28  29  26  29  42  33  30  22  20  21  27  45  53  50  37  29  34  44  55  64  39  58  87  85  40 151 161 162 161 162 161 163 162 163 162 160 160 162 162 162 161 161 161
 164 163 163 150  99  96  86  90  71  30  46  69 107  96  87  70  56  53  58  71  78  60  30  27  30  24  26  31  52  49  38  34  36  46  64  66  58  31  20  60 111 112 111 102  93  41  20  27  33  32  26  26  30  42  29  20  24  19  20  24  37  50  47  41  36  35  44  56  70  41  53  69  61  32 111 158 162 162 162 162 162 162 161 162 161 160 161 161 160 160 160 161
 162 162 160 135  67  57  72  78  74  33  47  76 108 101  92  80  70  70  70  74  74  70  35  32  27  28  33  40  57  53  42  40  54  62  68  71  44  29  26 102 117 115 113 105 102  72  20  26  36  37  34  31  33  40  34  25  23  21  24  24  42  48  44  45  45  44  48  59  74  49  49  53  47  36  76 155 161 161 162 164 163 164 163 163 163 160 161 161 161 160 160 160
 164 163 162 130  59  51  49  63  73  37  45  80 106 104 100  94  92  92  77  75  78  80  61  39  38  39  48  59  63  62  60  67  72  72  76  79  34  23  56 113 119 117 117 110 105  90  34  23  36  38  41  40  36  36  39  38  34  33  32  39  50  50  48  49  52  54  56  62  73  61  42  42  40  31  55 155 161 161 161 162 164 163 162 162 162 161 161 161 160 159 158 160
 164 163 162 132  59  48  47  56  62  35  44  93 109 110 112 110 109 100  84  79  77  77  76  74  71  71  65  62  59  57  61  66  65  69  80  62  36  21 100 120 125 123 122 117 108  95  63  19  35  38  35  36  36  39  40  42  44  46  48  48  51  50  50  51  55  60  66  68  73  66  41  42  38  31  57 155 162 162 162 161 162 160 160 162 162 161 161 160 160 158 160 159
 164 163 163 130  58  46  50  60  63  38  29 107 114 116 117 117 113 104  88  80  73  75  75  70  66  60  54  51  52  58  63  64  69  80  87  48  33  50 110 126 133 128 123 117 110  95  76  30  26  47  41  38  39  40  40  38  39  40  43  44  46  46  48  48  54  63  69  73  75  72  42  45  32  37  66 155 160 161 162 163 164 160 161 160 161 160 161 159 159 157 158 158
 164 162 163 129  59  47  54  68  68  46  28  95 115 118 120 118 115 107  91  79  71  67  66  62  57  53  54  58  63  65  64  70  80  90  92  45  21  82 106 123 132 129 126 119 110  93  76  49  20  41  50  48  45  43  44  43  42  42  40  40  41  44  47  51  57  64  70  74  76  76  45  48  29  39  74 155 161 161 162 163 163 160 160 161 160 160 158 159 159 158 159 159
 163 163 164 139  66  49  60  82  79  48  47  62 116 120 122 121 117 112 100  89  79  73  71  70  67  66  68  68  68  71  75  87  96  97  77  35  35 101 106 118 130 133 127 121 112  97  78  60  25  24  51  54  55  54  49  48  49  49  48  48  49  52  54  57  62  66  70  75  76  77  52  42  32  43  84 154 160 160 161 161 161 161 160 161 160 159 159 159 159 159 158 158
 163 164 164 156  81  62  71  90  84  47  86  30 107 120 120 120 119 115 107  95  89  83  83  83  81  77  75  75  76  86  96 101 102  95  47  22  60 103 107 117 127 132 129 126 114  99  82  63  36  20  27  58  58  59  57  52  51  49  49  51  55  55  58  60  65  67  69  76  76  77  56  31  43  49 107 156 160 160 160 162 160 161 160 161 160 158 158 158 159 158 157 157
 164 165 165 162 114  76  79  96  76  51  96  55  63 119 120 118 116 114 105  95  91  85  85  86  84  82  82  87  95 102 106 104 101  66  24  32  80 103 108 117 128 135 132 126 114 101  84  68  46  27  20  33  60  60  60  60  58  55  51  52  55  58  62  66  67  70  73  72  75  71  33  44  51  52 141 156 160 160 160 160 160 160 160 159 159 158 158 158 158 158 157 156
 164 163 164 164 154  94  84  98  72  54  90 115  34  86 119 120 118 113 105 103  99  93  89  90  88  90  94 100 106 106 106 102  72  24  35  51  94 104 109 120 130 136 134 127 118 101  90  74  56  36  39  21  30  60  67  66  66  67  63  64  64  66  69  71  73  73  75  76  63  29  36  49  57  83 153 159 160 160 160 161 160 161 160 160 160 158 159 158 157 157 156 155
 164 164 164 164 163 131  94  97  68  57  88 121  97  32  87 119 118 112 108 108 104  99  96 100 100 102 104 106 105 105  92  50  22  56  49  71  98 105 111 121 130 136 136 131 122 105  95  82  67  48  42  51  28  16  40  61  72  71  68  68  70  72  74  74  73  74  61  38  24  52  52  49  62 106 156 159 161 159 159 160 161 160 160 160 160 159 159 160 159 159 157 156
 163 165 165 166 164 155 102  97  65  61  89 120 120  99  38  57 101 112 112 108 107 105 101 104 106 105 105 102  82  54  22  50  83  65  60  88 103 109 115 126 135 137 135 132 121 108  98  84  73  58  45  49  61  53  34  17  23  37  48  53  54  55  49  44  34  23  25  42  66  71  54  50  64 116 155 158 160 158 160 159 159 160 161 160 159 160 158 158 157 156 157 155
 164 163 165 165 165 162 117 102  72  68  86 118 120 117 115  70  35  37  62  75  87  88  86  82  74  65  44  27  37  54  90  95  78  64  75  94 107 112 118 127 133 138 137 132 122 108  96  84  75  65  51  47  52  61  67  71  60  51  43  39  38  37  42  48  51  62  68  68  71  73  54  56  65 125 158 159 159 159 160 159 160 160 160 159 159 159 159 156 156 157 156 154
 164 164 166 166 165 164 129 108  94  76  84 115 117 117 115 111 109  95  78  67  60  54  50  56  59  68  80  97  98  95  90  79  69  67  81  99 111 112 119 127 134 135 137 132 123 110  98  85  76  70  60  46  48  56  63  66  71  74  77  77  78  77  77  74  70  68  68  70  69  74  65  61  62 131 157 160 160 158 160 160 160 159 159 160 160 159 159 158 158 157 156 154
 165 165 163 166 166 164 141 105 110 108  91 109 114 116 114 112 110 108 111 115 115 114 108 105 104 100  98  96  92  87  79  72  68  75 101 115 116 115 120 123 128 132 139 134 123 110  97  85  77  72  77  56  43  49  57  62  67  71  75  77  77  76  76  75  73  70  69  68  70  74  67  56  72 137 157 158 158 158 158 159 160 160 159 158 159 158 157 157 156 156 156 153
 165 164 164 166 166 165 150 119 102 125 102 105 113 114 114 114 112 111 110 116 115 113 109 106 104 100  99  95  89  83  76  71  74  99 116 122 121 119 120 123 127 133 135 130 121 109  95  82  76  72  79  83  52  48  51  57  63  68  71  75  75  74  74  73  71  71  68  67  68  72  73  73  79 142 156 159 159 159 160 159 159 160 158 158 157 159 156 157 156 156 155 153
 164 164 164 166 167 165 160 129 132 117 106 113 113 113 111 112 114 115 114 114 112 112 108 108 105 100  96  91  85  81  73  74  86 110 115 119 120 119 119 118 123 127 129 125 117 102  89  77  72  67  78  82  77  54  50  54  58  63  67  69  71  70  68  68  68  68  68  66  68  72  71  77  94 150 158 159 158 159 157 158 158 158 159 158 156 157 157 156 155 156 155 152
 164 164 165 166 165 165 162 138 139 124 108 115 112 109 110 110 113 112 111 110 109 108 106 104  99  94  91  87  83  76  73  78  96 109 109 110 111 111 110 109 111 118 121 113 103  93  82  70  62  61  64  69  71  60  51  52  55  61  63  66  67  66  67  67  67  65  65  67  67  70  70  73 102 151 157 157 157 156 156 157 157 156 157 159 158 157 156 155 156 155 152 153
 163 163 165 166 166 165 163 150 138 132 123 113 111 108 108 106 105 105 104 105 104 102 101  97  90  89  88  84  76  72  75  78  92  99  97  92  90  91  90  91  93 100 102  97  82  73  65  56  52  50  50  52  56  59  52  53  54  59  61  64  63  64  62  63  62  63  62  66  68  69  68  72 103 149 155 155 156 156 158 157 158 157 158 157 157 156 156 157 155 155 154 152
 164 164 164 165 165 164 164 151 129 128 124 119 112 105 104 103 100 102 102  99  98  95  96  94  88  87  83  76  69  67  74  76  82  84  78  70  62  57  61  70  75  78  81  78  68  59  53  51  40  32  36  41  46  51  50  52  52  58  60  61  61  62  58  56  58  60  61  64  67  67  63  66 114 152 155 155 157 157 157 155 156 157 157 156 156 155 157 154 155 152 153 152
 164 164 164 163 164 166 164 157 117 121 124 126 116 102 101 103 101 100  96  94  94  90  90  87  87  82  77  69  65  70  77  80  73  64  57  48  37  29  26  31  51  66  66  60  56  49  47  40  23  25  29  36  40  45  52  55  52  54  56  56  60  59  57  56  57  58  60  63  66  63  61  68 139 150 152 153 154 154 155 155 155 155 155 156 156 155 154 153 153 152 152 151
 163 163 163 163 162 164 164 161 126 109 116 118 110  98  98  98  98  94  91  88  90  89  86  81  79  74  70  65  66  72  83  84  78  64  53  43  36  38  37  39  45  53  59  51  46  42  41  29  27  29  30  33  35  42  51  56  53  53  52  52  54  55  57  56  56  59  60  61  66  57  57 121 150 152 152 151 152 154 153 153 154 154 154 154 154 153 154 154 153 151 150 150
 162 162 163 164 163 164 164 163 158 115  94  94  91 102  96  96  95  93  88  87  89  87  80  77  75  72  67  66  69  79  89  89  83  76  69  57  48  49  52  53  55  56  57  50  41  40  36  31  31  28  30  34  39  44  50  56  56  52  51  50  52  52  53  54  54  57  60  62  70  75 126 148 152 152 152 151 151 152 153 154 152 154 154 153 154 153 152 152 153 150 150 149
 161 162 162 164 164 164 164 163 163 161 136 115 118 116  95  95  91  90  87  84  88  86  78  76  74  70  65  65  74  88  94  92  88  84  75  70  66  63  61  59  57  54  55  48  41  40  36  36  34  35  38  40  43  45  50  54  56  51  49  50  51  50  51  52  52  56  60  65 111 147 150 149 150 151 151 152 152 152 152 154 152 152 152 154 153 152 151 152 152 149 148 149
 161 162 162 163 162 162 164 163 164 163 161 160 160 131 101  95  89  89  86  86  83  80  77  71  66  63  63  68  82  94  96  97  94  87  83  80  76  71  69  66  62  54  51  45  40  39  39  40  39  41  42  43  46  47  50  54  55  51  49  50  49  51  51  51  52  55  60  71 132 149 151 150 151 150 149 150 151 152 151 150 151 150 151 149 150 151 150 150 150 148 148 148
 161 161 161 163 162 162 163 164 164 163 163 163 161 147 105  94  91  89  86  84  80  79  74  69  65  62  64  76  88  95  97  99  94  91  93  90  87  82  78  73  67  58  49  45  43  44  46  44  45  44  45  48  48  48  50  52  52  47  48  47  48  49  50  49  51  56  61  78 143 150 151 149 149 150 150 149 151 150 150 148 149 150 151 151 151 152 151 151 150 150 148 147
 161 161 160 161 162 162 162 162 163 163 163 162 161 158 114  95  91  90  86  83  83  81  78  73  66  62  67  79  87  91  97 101 100 100 104 100  96  90  87  79  70  60  53  50  53  53  53  52  50  49  50  53  55  54  52  51  50  47  46  47  48  49  50  49  50  56  64  96 146 151 150 150 150 150 150 149 147 150 150 150 151 150 151 151 151 152 151 150 149 148 147 147
 161 160 161 161 161 160 161 161 162 163 163 163 163 162 129  99  90  92  89  84  83  81  76  73  69  62  69  78  87  93  97 102 103 108 109 107 107  97  93  83  74  62  58  58  58  61  60  57  55  53  53  55  58  60  53  52  51  46  43  47  47  48  49  49  52  58  67 113 148 151 150 150 150 149 150 149 149 149 149 150 151 151 149 151 152 151 151 150 150 147 147 146
 160 160 161 161 161 160 162 164 164 164 164 163 163 162 146 102  95  92  90  85  85  84  76  70  64  63  73  81  91  97 102 106 107 108 108 107 108 105 100  88  77  69  64  60  62  64  63  62  58  57  57  58  60  61  58  55  54  48  46  46  47  49  49  50  52  60  74 131 147 150 152 150 151 148 148 148 149 149 149 149 150 149 150 150 151 152 151 151 149 148 149 148
 160 160 158 158 160 160 162 164 164 165 166 166 166 164 162 109  97  94  88  88  87  83  76  69  60  65  78  85  93 101 105 107 107 106 108 107 107 101  94  86  82  75  70  65  66  66  64  61  57  58  55  60  62  62  59  56  55  48  47  45  46  48  50  50  53  61  85 141 147 150 150 150 150 150 149 149 148 149 150 150 150 149 150 150 150 150 150 150 148 148 147 146
 160 158 157 157 159 160 162 164 165 167 167 166 168 165 164 126  98  96  89  89  89  84  77  68  59  73  79  82  89  94  99 102 103 102  99  93  87  80  76  73  73  68  69  65  62  57  55  49  48  48  50  53  57  59  58  54  51  47  46  46  44  47  50  51  54  64 103 144 149 151 149 149 150 149 149 149 149 147 148 150 148 149 150 150 150 150 150 149 148 148 147 146
 158 159 159 158 159 159 161 164 164 167 167 168 167 166 165 145 101  97  94  90  89  88  78  69  58  73  75  75  81  88  90  86  83  75  71  65  60  60  58  55  53  49  49  50  44  42  42  43  40  40  39  40  43  48  51  51  50  44  44  45  44  48  50  52  57  68 122 143 147 148 148 147 148 147 149 148 148 148 148 147 149 149 150 150 150 150 150 149 149 148 148 146
 160 158 157 158 157 158 160 162 163 167 166 167 169 167 166 156 109  98  96  92  85  87  80  71  60  75  73  71  73  74  67  60  54  52  50  47  46  46  45  44  42  41  40  38  35  35  35  35  35  34  33  32  34  37  41  42  42  41  42  45  48  49  50  53  60  79 137 143 145 147 148 148 147 147 147 147 145 147 148 149 149 150 149 149 150 150 150 150 149 149 148 146
 160 158 158 156 156 156 159 160 162 164 167 167 169 167 166 158 117  96  98  93  90  88  83  75  65  75  73  66  61  50  31  29  33  38  34  31  44  46  43  44  48  47  44  39  39  40  39  34  27  29  28  26  28  28  27  22  29  37  42  46  48  50  50  54  62  99 138 143 144 145 144 146 145 146 145 145 146 145 145 147 149 149 150 150 150 150 150 150 149 149 148 146
 161 158 158 156 156 156 157 159 160 162 165 164 165 166 164 159 124  98  98  94  92  91  86  74  67  73  72  60  52  27  12  12  13  25  30  30  39  40  33  41  61  60  55  44  45  50  46  35  22  20  20  21  17  12  12  14  25  37  42  47  49  51  52  54  63 114 136 140 141 142 142 145 143 144 144 144 144 144 145 145 146 146 149 148 149 150 150 149 148 149 147 146
 162 160 158 156 156 155 155 156 156 158 158 159 162 162 162 156 128  99  96  97  92  91  88  77  70  73  71  62  53  21  13  11  14  29  42  45  43  37  35  31  38  40  35  30  29  30  27  23  23  24  24  24  16  10  12  17  30  41  45  48  52  53  53  57  72 124 136 137 138 139 141 142 142 142 143 143 143 143 143 145 145 145 147 147 147 148 149 149 147 148 148 146
 161 160 158 155 155 155 155 155 155 156 156 157 158 157 160 152 129 106  96  98  93  90  86  80  74  74  72  68  64  30  16  11  15  34  50  55  50  46  43  39  35  30  28  27  31  32  31  31  29  29  33  29  19  11  13  22  36  43  45  48  53  54  53  60  82 124 132 135 136 139 139 140 140 143 142 142 143 143 143 144 144 145 146 146 149 148 147 149 147 149 147 144
 160 159 159 157 156 155 154 154 154 154 155 155 155 155 157 151 130 110  98  98  94  93  90  85  77  73  73  72  72  51  30  15  15  42  56  69  59  53  49  47  42  36  33  33  38  39  40  38  37  37  42  34  21  12  18  30  41  43  47  50  53  52  53  61  91 127 133 135 135 136 138 138 139 140 141 141 141 141 141 142 143 145 144 145 147 146 148 147 147 147 145 144
 159 160 159 158 158 155 154 155 153 154 152 154 154 154 155 148 130 112  99  96  95  95  91  88  81  75  72  73  75  70  51  30  20  50  68  77  71  65  62  52  46  42  38  38  45  48  48  44  44  45  45  38  27  16  24  36  42  43  47  50  52  51  54  64  96 128 132 132 134 136 136 137 138 138 139 140 141 141 141 142 142 143 144 146 146 146 146 146 146 146 147 145
 159 159 159 158 157 155 154 153 153 152 152 153 153 153 154 149 130 113 104  97  95  92  90  87  80  75  72  73  76  79  70  52  45  67  77  81  73  74  69  58  52  45  43  46  48  54  56  50  49  49  49  44  34  23  30  43  43  42  47  48  51  52  56  67 101 128 131 132 133 134 135 135 136 136 137 138 138 139 140 141 141 142 144 143 145 144 146 146 146 146 145 146
 159 158 159 158 156 153 152 152 151 153 152 151 152 151 151 149 132 115 104  98  96  90  89  86  80  75  73  73  79  82  78  67  61  80  84  84  73  77  70  63  58  52  48  60  61  68  57  54  52  51  50  45  42  29  36  45  43  42  47  49  50  53  58  70 104 127 130 130 132 133 134 133 135 137 137 137 137 137 138 139 141 141 143 143 144 145 146 145 144 146 144 145
 157 157 157 157 154 152 151 151 150 150 149 148 149 151 148 149 133 115 105 100  97  91  88  86  81  76  75  75  79  84  84  74  78  80  85  86  78  78  72  63  58  54  52  65  72  68  60  59  55  55  50  48  41  33  41  47  46  44  48  49  50  53  59  72 105 128 130 129 130 131 132 133 134 134 135 137 136 138 138 139 139 141 141 142 143 145 145 145 144 146 144 144
 156 156 157 156 152 150 149 149 148 148 149 148 148 148 148 147 132 115 106 101  97  94  87  86  83  76  74  77  83  85  88  77  76  85  87  87  80  77  72  63  60  56  57  70  88  71  67  63  58  60  55  52  38  34  44  48  47  48  50  52  52  53  62  72 105 129 129 131 131 131 131 133 135 135 136 138 137 137 138 138 137 139 141 143 143 142 143 143 144 145 144 143
 155 154 153 153 152 148 148 148 148 148 148 147 147 146 147 146 134 116 107 102  98  91  88  85  81  74  76  82  84  86  89  83  77  85  88  88  84  75  74  65  60  59  62  72  90  74  69  65  62  58  54  53  36  38  47  49  47  49  49  51  50  54  64  71 106 127 130 130 130 130 130 131 133 133 135 136 136 136 136 136 138 138 139 141 142 143 143 143 145 144 142 143
 153 152 150 149 148 147 148 147 146 148 148 147 146 145 146 146 132 116 108 100  97  92  89  83  80  76  76  80  87  86  78  87  81  81  83  94  86  75  72  65  61  60  66  68  83  71  67  67  62  54  52  54  35  40  48  48  48  51  50  52  50  54  64  70 103 129 129 130 130 129 129 130 132 131 133 135 136 134 134 136 137 137 139 139 138 140 142 143 144 144 142 143
 150 150 148 148 147 148 145 145 146 147 146 145 145 144 145 144 133 114 109  99  96  92  87  82  81  79  78  80  86  83  71  83  78  77  76  88  83  73  71  62  57  67  62  71  75  71  64  68  62  52  49  51  35  44  48  48  49  50  50  51  50  57  64  71 103 127 128 128 127 128 127 130 131 131 132 133 134 134 134 135 137 136 137 138 141 141 140 142 142 143 142 143
 148 148 147 148 146 147 146 144 145 145 144 145 144 144 144 144 132 113 109 103  94  92  88  83  80  80  80  80  85  85  82  82  81  76  83  91  86  74  70  60  60  70  66  80  74  72  66  63  57  53  48  43  35  44  49  47  48  50  51  50  50  57  62  69 100 126 126 127 126 128 129 129 130 131 132 132 133 132 133 134 135 137 136 137 139 139 140 140 140 143 143 142
 145 146 145 147 146 145 146 144 145 145 143 144 143 144 144 143 133 114 110 104  95  91  88  85  78  80  80  80  85  88  87  83  82  78  86  89  83  71  66  60  65  77  71  79  69  65  64  59  54  53  46  39  39  47  48  48  49  50  52  49  52  58  62  67  99 126 129 126 125 127 129 128 127 130 131 132 132 131 132 132 132 133 135 136 137 139 139 139 141 142 140 140
 145 146 144 146 145 146 144 144 142 143 144 144 143 143 142 143 133 115 111 105  98  90  88  86  81  77  80  81  84  87  87  83  82  79  79  83  77  69  65  65  68  73  70  69  62  61  58  56  52  49  46  37  43  46  48  50  50  52  50  49  52  56  62  67  96 125 128 126 126 127 126 126 128 129 130 132 131 131 131 132 131 133 134 134 136 137 139 139 139 139 140 140
 145 145 145 145 145 145 144 143 144 144 142 142 143 140 141 141 132 116 111 107 100  91  88  86  83  77  80  81  74  82  86  80  80  77  70  67  69  68  65  64  68  65  65  64  60  59  57  53  48  44  38  40  43  45  48  51  52  52  49  49  52  54  60  66  92 125 126 125 124 126 124 125 128 129 130 130 130 130 131 131 131 132 132 134 136 136 137 138 138 138 139 139
 144 143 145 144 143 144 143 144 142 142 142 142 142 141 141 139 133 114 112 106 105  96  86  85  83  78  77  81  76  80  86  86  81  74  66  62  63  66  65  64  67  63  63  63  58  58  57  51  42  40  39  41  41  42  49  52  50  47  46  46  50  53  59  67  87 122 127 125 124 128 125 125 126 126 128 129 129 129 129 129 131 132 130 132 134 134 136 136 136 136 138 138
 143 143 144 143 143 142 142 141 142 141 141 139 142 142 140 137 131 115 110 108 104 101  90  83  84  81  76  80  81  82  85  85  80  74  69  58  61  63  64  65  66  59  60  61  58  57  52  45  39  36  38  40  42  47  50  51  49  48  46  47  47  54  59  66  82 122 126 125 124 124 123 124 124 126 127 126 126 128 128 128 129 130 130 131 133 134 134 134 136 136 137 137
 142 142 142 141 141 141 141 140 140 139 139 140 140 140 139 137 130 115 112 111 107 102  96  87  80  80  77  78  81  84  83  86  81  75  73  60  55  58  62  64  60  52  57  60  56  53  46  42  36  36  37  42  45  47  50  50  51  49  47  48  49  55  60  66  77 121 124 125 124 124 123 124 124 124 125 126 125 126 128 128 129 129 129 131 132 132 133 136 136 136 136 135
 139 138 140 141 138 138 140 139 138 138 138 140 137 136 139 138 128 115 113 111 110 105  98  92  81  78  77  77  77  85  87  86  82  76  73  65  52  54  58  59  58  49  53  55  55  49  40  37  36  37  41  43  47  51  51  50  48  48  48  47  50  56  61  66  71  76 109 121 123 123 123 123 123 123 124 125 126 126 126 126 127 127 129 129 131 132 133 135 133 135 135 136
 139 139 139 138 138 138 139 137 138 129 116 105  95  86  89 109 124 116 115 113 110 108 100  94  86  77  75  76  79  83  84  87  88  84  76  70  57  50  53  55  50  45  50  50  48  42  35  35  38  41  42  45  47  51  51  48  47  47  46  49  51  57  60  64  67  51  59  74  94 113 122 121 122 123 123 124 124 125 125 124 125 127 126 128 128 130 131 132 132 133 135 133
 137 138 137 137 137 137 135 126  97  68  50  46  42  41  62 138 121 115 115 113 111 108 102  96  90  83  74  73  75  84  83  82  89  88  81  76  69  49  48  48  44  42  44  44  39  34  34  38  41  42  44  47  48  52  50  48  46  46  46  49  53  59  60  64  66  51  48  53  54  51  62  98 118 121 122 123 123 123 123 124 126 124 126 127 128 128 131 130 131 132 133 134
 138 136 136 136 135 129 111  95  54  41  32  29  25  61 135 134 117 116 113 114 112 109 108 102  94  89  80  72  71  76  85  84  88  88  82  77  76  70  46  41  40  41  38  37  33  36  40  43  44  42  45  48  50  51  47  46  44  43  47  50  53  56  62  64  65  54  38  46  48  47  38  41  65 104 119 122 123 122 122 122 123 123 125 125 127 128 130 130 131 132 132 132
 136 135 134 115 111 102  92  79  29  26  31  32  94 140 141 132 118 115 115 114 114 111 109 104  99  92  86  77  71  71  81  84  87  88  84  76  79  79  68  46  38  33  32  35  40  44  46  47  46  44  46  48  50  50  45  42  40  44  48  51  54  56  61  63  66  63  39  46  45  49  41  36  36  39  73 101 119 121 120 121 122 124 124 124 125 127 128 128 130 131 130 131
 132 119  96  90  90  93  83  65  33  45  56 119 138 141 138 126 116 116 115 115 115 112 109 106 105  98  88  81  74  68  74  80  83  82  80  75  76  79  76  71  62  54  53  51  48  47  49  48  45  47  47  49  48  48  43  41  43  46  49  52  54  57  60  62  65  62  38  39  39  42  42  32  32  34  35  40  45  58  77  94 115 120 122 122 125 125 127 128 128 129 130 130
  76  72  86  85  84  85  84  66  52  47 108 132 138 140 136 124 114 114 114 114 114 111 109 107 103  96  91  85  77  72  70  72  75  75  75  68  71  77  74  70  66  63  59  53  51  50  50  48  46  45  47  47  44  42  40  42  44  48  50  53  56  59  60  60  62  62  41  36  38  41  45  32  32  33  32  32  33  36  41  44  49  72 102 120 122 123 125 126 127 128 129 129
  57  77  73  83  83  75  83  71  48  84 117 129 133 136 130 121 114 113 112 113 112 109 108 108 103  98  94  89  82  75  71  66  69  68  71  65  68  76  74  67  62  61  55  50  50  50  49  47  44  46  45  43  39  36  40  43  47  48  49  53  54  57  59  59  60  58  35  35  35  37  41  31  30  30  31  31  30  32  36  38  37  40  41  52  86 117 121 124 126 125 126 128
  57  81  73  81  80  77  79  71  51  90 112 122 128 133 129 117 110 109 110 111 111 108 107 106 102  98  92  89  85  77  73  68  62  62  63  68  67  68  67  64  57  56  52  48  48  46  45  44  42  42  40  37  35  40  43  45  48  50  49  53  56  56  58  58  60  54  34  33  33  33  35  29  26  29  28  28  28  28  31  33  36  38  37  40  41  49  75 109 122 123 124 126
  52  72  72  76  71  69  77  73  59  82 107 115 122 127 124 116 110 109 106 109 107 106 107 105 101  97  93  89  86  80  76  71  66  57  56  59  60  59  58  56  54  52  51  46  45  44  42  41  40  37  34  32  37  42  46  45  48  50  51  54  53  54  54  54  57  46  35  33  31  34  32  24  24  27  27  28  29  29  30  32  31  35  35  36  35  39  41  40  57  84 114 122
  46  62  71  66  73  63  69  74  64  75  96 107 114 119 118 113 109 107 106 107 107 104 103 102 102  97  93  90  86  82  77  72  71  67  57  51  51  52  53  51  49  49  46  45  44  40  38  37  36  33  33  38  42  44  47  48  49  50  50  53  53  52  52  54  52  37  34  30  31  33  30  22  24  24  26  27  27  27  27  29  30  35  35  34  33  35  40  34  39  42  40  69
  42  51  68  69  73  67  68  69  71  70  85  99 105 108 110 111 109 106 105 105 106 104 103 100  98  97  94  92  87  82  78  74  71  69  66  60  51  45  45  44  41  39  39  37  35  36  36  35  34  38  42  44  46  45  48  49  50  50  50  51  52  52  52  52  43  34  31  30  31  34  29  22  25  26  25  27  28  27  30  29  29  31  32  32  34  34  37  35  36  37  40  45
  43  45  62  70  66  65  64  62  67  65  76  89  96  98  99 106 106 105 103 104 103  99  98  98  96  95  93  88  87  83  80  75  73  70  68  67  63  57  51  45  41  40  40  38  40  40  43  43  45  44  43  46  46  47  48  48  50  50  50  51  51  51  49  47  36  36  30  30  31  31  28  20  26  28  24  24  27  29  31  29  30  31  30  30  35  33  34  32  33  35  37  36
  42  47  49  61  61  65  61  60  54  62  64  82  87  88  90  97 103 104 102 103 102  98  96  96  96  96  92  90  87  84  81  76  74  71  69  66  64  62  59  57  53  53  51  49  49  50  47  46  46  45  45  46  47  49  50  50  49  51  49  50  50  51  48  36  35  32  29  27  28  32  25  22  25  24  25  26  26  27  30  29  30  31  33  30  32  33  31  32  31  30  33  35
  45  49  48  61  64  61  61  61  58  62  63  78  78  79  79  83  94 102 102  99  98  97  94  93  92  93  90  89  86  84  81  80  74  73  70  68  66  63  60  58  56  54  53  52  52  51  49  48  47  47  47  49  48  48  50  50  50  50  51  51  51  48  39  33  33  29  27  26  27  30  25  25  24  26  27  26  25  26  30  29  29  30  30  30  32  32  33  34  31  30  32  33
