P2
# Generated by OpenCV 3.4.0
92 112
255
 130 130 133 133 134 134 135 133 134 135 134 134 136 134 136 136 137 135 135 134 135 136 135 135 135 136 137 137 133 134 133 126 123 114 110 104  94  78  68  56  51  50  50  48  45  47  46  47  48  51  55  60  64  81 110 123 130 132 134 133 134 138 137 139 138 138 138 137 137 139 137 136 138 138 136 137 137 137 136 136 136 135 136 136 133 136 136 135 135 136 134 133
 134 133 134 133 134 136 136 134 136 136 137 135 134 134 136 137 137 136 137 136 137 136 136 134 137 135 134 134 131 125 123 126 121 107  92  79  66  54  53  58  53  51  46  42  42  41  35  36  38  43  45  59  77  86  77  79  92 121 132 133 132 136 137 139 138 139 138 138 138 139 138 138 140 138 137 139 138 137 137 137 137 137 136 136 136 136 137 135 135 135 136 136
 132 133 135 132 135 136 135 134 137 135 136 136 137 136 136 136 138 136 138 136 136 136 136 134 135 134 134 127 124 123 113 101  90  69  63  62  59  57  57  54  49  45  46  44  40  35  31  31  31  34  36  42  48  67 103  96  64  56  81 121 131 136 137 137 139 138 138 140 139 138 138 140 139 139 138 139 138 137 137 138 138 138 137 136 137 136 135 136 137 137 137 135
 134 136 135 135 134 135 136 135 135 135 137 136 138 137 136 134 136 141 138 135 138 137 135 135 134 133 128 119  98  83  78  68  66  66  65  64  59  52  51  41  41  42  37  34  29  27  26  27  27  27  30  34  40  47  54  85 108  97  58  68 108 129 135 137 137 139 138 138 140 138 139 140 139 139 140 138 138 137 138 137 138 137 138 138 138 138 136 137 137 136 137 138
 132 135 136 135 134 135 137 137 136 137 138 138 138 137 139 135 134 137 137 138 139 135 134 133 128 125 103  84  66  62  67  65  74  65  56  63  50  47  43  36  35  33  28  27  28  25  25  25  24  25  25  27  30  38  44  49  70 107 116  70  60  99 132 135 138 138 139 138 139 140 140 140 140 139 139 140 139 139 139 139 138 137 139 138 138 138 138 138 139 138 137 137
 132 135 136 135 135 137 137 136 137 137 138 139 139 138 138 137 140 133 135 137 138 130 128 122 112  89  67  58  58  64  70  65  55  55  52  47  41  38  32  33  34  31  28  28  27  28  28  26  24  26  26  25  25  27  33  38  49  63 102 124  70  71 104 130 137 141 140 139 139 140 140 140 140 140 141 140 139 139 141 140 140 139 139 139 139 137 138 138 138 138 138 137
 135 134 134 134 136 136 137 138 136 137 137 139 140 138 140 139 141 138 131 134 129 118 117 112  79  59  55  48  60  64  64  52  48  46  43  38  36  31  34  34  29  27  27  26  28  27  27  25  26  25  25  24  23  24  25  30  38  47  64  95 108  70  74 110 132 137 139 140 140 140 142 140 141 141 142 141 140 142 140 139 139 138 139 139 140 139 138 137 138 139 137 137
 134 136 135 135 136 136 137 138 136 138 135 138 138 139 138 138 139 139 136 126 113 104 109  82  59  53  51  50  63  70  53  46  39  37  39  39  41  40  35  28  27  29  30  28  27  26  25  24  24  26  24  25  22  22  23  25  29  36  46  62  86  93  93  84 120 137 138 140 141 141 140 140 141 141 143 140 140 141 139 139 140 139 141 139 138 139 139 137 138 139 137 137
 134 137 136 137 136 137 138 138 138 138 136 137 138 138 136 137 136 136 132 115 104 105 103  64  52  46  54  52  49  54  46  46  48  48  44  46  45  38  35  34  31  29  28  24  24  22  24  25  23  24  25  25  23  22  23  23  26  28  31  43  63  88 114 106 103 131 138 139 139 141 141 140 141 142 142 142 142 140 140 140 140 142 139 140 138 138 140 139 137 138 138 138
 134 135 134 136 134 137 140 138 138 138 139 141 139 138 138 136 134 131 120 100 102 106  98  55  49  44  46  42  45  47  47  46  46  50  50  46  40  37  36  33  32  29  27  27  27  28  28  25  24  23  23  26  24  24  24  22  24  25  26  32  41  60  89 116 101 125 135 140 140 140 138 138 142 142 141 141 139 140 140 140 140 141 140 138 140 139 139 140 138 139 139 138
  99 114 125 134 135 135 136 138 138 137 140 138 138 140 139 139 136 124 114  99 101  91  71  50  40  33  38  40  42  42  42  42  42  37  40  42  45  41  40  36  36  38  37  38  34  30  27  28  26  25  25  28  25  22  24  25  24  24  24  27  31  41  57  86 112 116 136 140 140 141 141 140 142 142 142 142 141 141 143 140 142 142 141 141 140 139 139 140 139 139 139 138
  98  81  69  66  66  67  84  93 107 122 132 137 136 136 137 134 133 121 114  97 106  71  59  45  36  36  37  38  38  38  41  40  38  42  47  46  46  47  48  48  49  53  54  50  41  39  37  35  32  30  28  30  29  26  24  24  25  24  21  22  26  31  46  55  74 107 136 140 142 142 142 141 143 142 142 143 141 141 139 139 140 141 141 140 140 139 140 141 140 139 139 139
 137 135 134 138 134 132 120 110  96  86  77  69  80  90 110 116 130 119 108  87  78  63  59  50  39  38  36  39  41  38  38  44  48  52  56  58  60  60  60  63  66  70  70  64  51  54  50  45  44  39  36  35  31  28  26  25  25  26  25  21  22  24  33  47  56  80 124 137 139 141 142 142 142 144 142 143 142 142 141 141 142 141 141 140 140 139 140 140 141 140 139 138
 135 135 138 138 136 137 139 138 138 137 137 139 129 118  97  83  78  81  93  80  65  64  56  50  45  43  45  46  41  50  67  72  76  75  84  82  83  86  88  88  86  85  83  75  65  64  62  58  57  56  54  49  46  37  30  27  25  26  26  24  22  20  23  35  49  62  86 123 137 141 142 142 142 141 141 140 141 141 143 142 140 142 141 141 140 141 140 141 140 139 139 137
 136 138 138 138 136 139 138 138 139 137 136 137 139 134 134 128 121 103  85  69  71  60  55  45  50  51  52  55  62  83 109 115 117 113 110 111 110 107 105 103  98  97  93  89  82  74  78  74  71  70  69  68  66  61  51  36  29  28  26  27  25  23  22  25  39  52  69  92 124 139 142 142 142 142 142 142 142 139 141 141 140 141 141 139 140 141 138 139 140 140 139 137
 136 135 136 137 137 137 138 138 137 137 140 137 136 135 130 125 110  85  87  69  63  54  47  43  52  83  99  97 106 116 128 133 135 129 127 124 122 119 117 113 109 109 107 106  99  90  90  90  90  92  88  82  76  74  69  66  54  40  29  23  27  24  23  24  27  40  52  61  88 123 137 139 141 142 140 142 141 140 140 141 140 140 139 139 139 139 139 140 140 139 140 138
 136 137 135 134 137 136 134 135 136 136 137 138 132 131 127 117  92 109  71  60  58  50  50  56 102 138 149 142 142 141 148 148 147 142 138 134 131 129 129 124 122 119 118 117 118 114 105 105 108 110 115 117 110 100  83  77  77  74  51  35  27  25  24  24  25  30  43  52  61  86 127 138 139 140 139 140 140 138 137 138 137 137 136 135 138 136 138 135 135 134 135 132
 137 136 137 137 136 136 136 137 137 137 138 136 135 128 120  91 110  88  59  62  64  57  77 110 146 166 174 174 169 176 177 175 169 160 152 147 146 143 141 137 132 130 127 125 125 125 124 120 119 123 128 132 132 131 126 112  98  82  77  62  40  29  25  24  24  25  32  40  54  61  90 123 128 127 125 120 120 117 115 110 110 106 102 101  99  98  93  93  87  88  86  87
 135 135 134 133 127 134 136 135 138 134 137 134 133 127 106  87  97  63  58  71  61  95 150 150 167 181 192 201 208 214 211 202 194 183 176 168 164 155 147 143 139 136 134 132 131 130 129 128 126 125 128 135 142 146 146 143 134 122  97  82  68  43  29  25  24  24  25  32  45  56  56  70  84  91  94  96  98 100 101 102 104 105 110 107 110 110 112 118 116 118 120 118
 130 130 128 127 115 127 124 126 126 125 122 122 118 110  83  94  74  62  71  66  80 154 166 174 186 198 214 221 227 227 218 204 194 185 182 180 176 158 153 148 144 137 135 133 132 131 132 132 130 129 135 135 140 147 156 157 158 151 138 114  86  70  44  31  23  23  22  27  34  44  50  59  97 124 129 130 131 130 132 131 133 133 132 133 135 135 135 136 136 134 135 136
  83  85  90  89  83  91  81  88  90  91  96  96  95  82  78  82  66  77  80  78 138 171 184 198 206 210 218 227 228 223 214 199 190 184 183 177 169 159 153 148 144 139 136 135 134 131 130 130 131 132 133 133 139 145 156 160 163 167 156 141 120  87  63  49  33  24  21  22  29  34  43  51  59 116 140 140 139 140 140 141 140 140 140 141 140 140 139 139 139 138 138 138
 124 126 124 125 126 128 130 131 130 131 129 126 122  88  86  72  70  75  76 132 168 187 200 206 215 217 222 227 222 214 203 195 188 181 173 165 158 153 150 145 139 137 138 133 134 134 129 129 132 130 130 130 134 145 149 158 162 165 166 160 145 121  82  63  49  31  23  22  23  29  36  47  47  72 130 139 141 141 141 140 142 141 141 141 140 138 140 139 139 140 138 138
 138 137 138 138 140 141 140 140 138 140 135 131 112  79  88  70  76  71 111 166 187 200 202 204 210 217 218 217 211 206 196 188 181 172 165 154 153 151 146 141 138 133 131 130 128 128 126 126 126 125 125 128 132 134 140 153 162 162 163 163 159 144 119  78  61  46  29  22  23  25  30  40  46  48 100 136 142 141 142 142 142 140 140 141 141 140 141 140 139 139 138 139
 139 139 141 138 140 140 141 142 142 141 135 135 105  88  79  70  68  90 165 183 196 200 197 198 201 202 201 198 198 193 183 176 166 159 153 149 154 148 142 134 133 130 125 126 127 124 110 118 123 122 121 124 127 132 139 145 149 152 155 158 159 153 142 109  75  62  43  28  23  23  27  36  42  45  53 127 139 142 142 142 141 140 141 140 140 141 142 141 139 140 139 139
 139 139 139 141 141 142 142 142 140 140 138 130  84  84  74  65  70 151 179 190 194 193 191 190 189 187 186 181 182 175 168 164 153 147 143 146 141  98 125 128 125 124 123 122 121 119 119 120 120 120 118 122 124 129 136 139 146 149 151 151 152 151 146 138 106  72  58  39  26  22  24  30  38  45  42  77 134 140 140 142 142 141 142 143 141 141 142 140 140 141 139 138
 140 141 143 141 142 144 144 143 141 141 138 115  79  73  71  62 110 175 186 191 193 187 183 181 181 174 171 169 166 161 159 153 145 138 136 136 112 101 116 120 121 121 118 118 117 115 117 117 118 117 118 117 122 127 132 135 140 145 147 150 150 152 149 144 128  99  70  54  34  24  22  25  32  40  45  41 116 140 142 142 142 142 140 142 142 142 141 141 140 139 140 139
 142 144 143 144 143 144 144 142 141 142 133  98  81  63  70  71 148 176 187 189 185 178 179 176 172 169 166 158 152 151 149 144 139 134 131 129 121 112 113 117 119 117 113 113 112 113 109 112 114 114 114 117 119 125 131 133 137 140 143 150 150 150 151 151 142 126  95  68  47  29  23  25  29  36  43  46  66 135 142 142 144 142 142 141 142 141 140 140 140 142 140 139
 143 144 144 144 143 143 143 141 143 140 129  86  66  61  68  94 160 178 188 184 180 178 174 172 166 165 156 148 146 143 142 140 134 132 127 126 125 120 115 117 115 114 109 110 108 110 111 112 112 111 113 115 117 120 126 131 133 139 142 145 147 148 153 152 147 140 122  91  61  37  26  24  26  32  38  41  39 116 137 141 142 143 143 142 142 141 141 142 141 139 140 141
 144 144 144 144 143 144 143 142 145 135 124  82  61  61  76 127 168 177 184 184 180 175 170 165 162 158 150 147 144 140 138 137 131 131 127 127 124 122 119 117 115 112 109 108 109 111 112 112 114 112 115 116 117 122 122 130 134 138 142 142 143 145 147 147 146 147 137 120  78  51  32  24  24  30  35  38  42  69 136 141 143 143 144 142 141 142 141 142 142 141 140 140
 144 143 143 144 144 143 143 143 141 134 109  77  57  62  95 147 168 179 182 181 176 170 167 165 161 156 149 146 140 140 137 133 132 130 128 128 121 121 117 116 114 111 110 111 109 111 112 112 115 116 115 118 118 121 123 126 130 137 140 142 144 143 144 146 148 147 145 136 107  74  45  30  25  26  31  36  40  42 125 140 143 142 141 142 142 143 143 142 142 140 140 140
 145 144 145 145 144 143 142 144 142 131 108  65  53  72 107 157 171 176 178 176 174 170 165 161 158 154 148 144 142 140 137 134 132 127 127 122 121 121 119 116 112 110 109 110 110 111 111 112 116 114 115 118 119 120 123 127 130 136 140 142 142 142 141 144 146 147 148 142 132  95  63  38  28  25  28  34  38  39  84 138 142 143 144 143 143 142 143 143 143 143 141 139
 144 146 144 145 147 145 143 145 142 127 101  60  53  79 132 161 171 172 173 174 170 168 166 160 157 151 148 145 143 139 136 132 129 126 124 121 118 118 113 112 110 109 108 108 109 111 110 112 114 113 113 117 120 119 122 125 131 133 136 139 141 141 142 143 144 146 146 143 140 120  83  49  31  26  28  31  37  38  45 134 142 143 143 145 143 141 143 143 141 142 142 140
 144 145 145 144 148 145 145 146 139 124  87  52  55  87 145 161 166 172 174 171 169 167 166 161 157 149 145 145 142 136 132 127 124 124 121 115 117 115 111 108 106 106 107 106 106 108 110 109 113 113 113 117 119 119 119 121 126 130 133 136 138 139 141 142 141 143 145 143 140 135 105  70  40  28  25  28  34  37  40  98 139 143 143 144 143 142 142 142 143 143 142 141
 145 145 144 146 146 147 145 144 141 121  76  51  59  99 154 165 168 167 170 170 167 165 163 160 158 150 147 146 140 130 127 120 119 117 114 111 111 107 107 108 105 104 104 105 105 106 106 106 108 110 110 113 114 116 116 117 120 126 130 133 137 140 141 142 140 140 143 143 141 140 123  86  51  30  24  24  32  36  40  67 136 141 144 143 144 143 142 143 141 142 142 142
 145 146 147 145 147 148 144 146 139 111  65  48  61 113 160 165 167 169 168 166 167 166 164 159 157 152 149 140 132 124 121 118 114 112 109 108 108 106 105 106 105 105 101 102 103 104 104 106 105 106 108 111 109 112 112 112 115 119 127 132 138 142 144 145 144 143 142 142 142 142 134 105  66  37  25  24  30  36  37  42 123 139 144 143 144 143 143 142 143 142 142 141
 146 145 146 147 147 148 147 145 139 102  58  48  60 123 159 166 167 170 169 168 169 171 166 165 156 147 139 131 124 118 112 113 111 108 107 107 105 106 105 105 106 104 102 103 104 103 104 103 105 105 106 106 107 107 108 109 111 114 122 126 136 138 143 148 147 144 143 144 143 142 139 118  79  45  28  24  26  32  36  39  93 137 142 144 144 142 144 144 144 143 143 141
 145 148 147 147 147 147 147 144 140  87  53  45  63 130 160 166 169 172 170 168 169 171 169 162 151 142 133 124 118 112 109 107 106 103 104 104 105 106 105 103 104 103 103 104 104 104 102 100 102 102 102 101 101 104 104 106 107 111 117 120 127 137 140 145 147 148 148 146 144 141 140 127  89  49  30  21  24  29  33  35  65 134 143 144 145 145 145 143 143 143 143 142
 145 146 148 148 149 150 146 146 133  92  52  45  67 137 162 166 171 171 170 167 166 164 161 149 142 132 125 120 116 111 108 107 103 102 102 104 104 105 106 104 104 106 105 104 105 104 102 103 100  99  99  99  99  99 100 102 102 105 110 116 122 128 132 135 143 148 148 146 146 141 141 128 100  60  32  22  22  26  32  34  41 121 141 143 145 145 144 144 143 141 142 142
 148 146 146 146 147 146 147 147 130  87  48  46  68 143 160 165 172 174 171 164 160 155 147 133 126 119 112 108 107 105 104 103 101 101 105 105 105 104 104 105 105 102 105 104 104 104 103 101  99  97  97  98  94  89  91  89  88  89  92  99 105 111 115 120 130 141 146 148 149 145 142 135 107  67  36  24  23  24  30  34  38  89 138 144 145 145 145 143 143 142 142 141
 147 146 147 149 149 150 150 147 129  76  47  46  69 148 162 166 173 176 169 159 150 143 129 112 104  95  92  89  88  91  92  95  96  99 100 102 101 102 103 105 104 104 104 104 104 102 100 101  98  95  92  88  80  78  74  74  76  73  75  77  81  90  98 105 112 123 134 142 146 143 142 137 113  74  39  25  22  24  26  31  36  47 128 144 143 144 145 144 142 143 143 143
 148 147 148 147 148 151 148 148 123  69  46  44  72 155 163 172 175 171 161 148 141 130 114  98  88  82  81  78  75  74  74  78  84  90  92  98  96  98 102 103 106 107 106 105 104 101  99  99  95  89  83  75  70  69  69  67  68  63  67  72  74  77  86  97 105 114 120 128 138 142 143 138 119  81  44  25  22  21  24  29  34  37 103 141 146 144 144 144 143 143 141 141
 149 148 150 150 150 151 151 146 122  59  44  43  76 157 165 174 169 160 149 138 130 120 106  92  75  69  71  71  72  73  70  72  80  84  88  95  97  97 102 105 108 105 103 104 103 101  97  95  91  86  77  73  68  66  64  65  61  62  59  60  63  70  82  90 100 108 114 119 124 135 142 140 127  87  52  26  20  21  23  26  31  37  63 133 144 145 145 144 143 143 143 141
 149 150 151 150 149 151 151 145 118  47  40  42  79 156 169 172 161 146 142 132 121 108  95  84  75  72  70  70  70  72  74  75  80  86  88  91  94 100 104 104 106 106 106 104 102  98  96  94  89  83  77  72  69  69  69  68  69  65  69  68  67  74  78  86  97 105 109 115 116 128 141 142 131  99  54  28  21  22  21  25  28  32  44 109 139 144 143 143 143 144 144 143
 149 149 152 149 149 149 152 146 106  45  40  42  88 157 170 169 150 144 136 125 112 100  98  93  88  90  87  85  82  83  82  83  85  87  88  91  95 101 104 105 107 104 104 104 100 100  98  93  88  82  79  79  76  73  74  75  76  75  79  78  77  81  85  89  97 108 109 114 121 124 136 146 137 106  64  31  21  19  20  23  25  29  39  68 135 141 144 144 144 144 143 143
 150 150 152 152 152 152 151 146 102  43  39  42  98 159 171 168 153 145 131 117 110 104 100  98  91  90  87  86  84  84  83  84  88  89  92  94  98 100 104 105 107 106 104 102 101 101  99  92  89  86  84  83  82  78  77  74  78  80  82  82  83  89  93  94  97 104 111 117 124 128 137 146 141 116  74  35  22  20  19  21  25  28  34  47 114 140 143 144 146 146 144 143
 154 153 153 153 154 155 155 150  93  43  40  43 112 162 170 165 151 138 126 116 111 104  97  96  91  89  88  85  84  82  80  83  85  89  93  95 100 102 106 105 105 103 104 105 101 101 101  95  91  88  85  83  80  78  75  76  78  82  85  86  92  96 100 107 105 104 107 116 124 133 139 145 145 128  82  41  22  19  20  20  24  25  30  54  87 135 140 143 145 143 144 144
 158 157 155 155 159 161 160 152  88  46  37  41 122 168 173 162 145 130 121 112 107 101  98  94  91  90  87  86  84  80  78  79  83  86  91  96  98 100 102 104 105 104 106 103 103 101  95  94  91  88  85  82  79  79  76  78  78  79  82  84  85  88  95 101 105 108 107 111 115 124 133 142 147 139  93  49  22  19  18  18  21  26  28  43  59 116 139 143 145 144 145 144
 160 161 160 158 160 162 161 154  92  49  41  42 135 173 170 156 139 122 113 106 103 101  98  93  90  86  84  79  79  77  77  79  80  85  90  91  96 100 103 105 104 106 106 105 100  99  98  94  90  87  81  79  77  77  74  75  73  74  80  87  94 102 105 100 100 102 105 108 109 116 127 138 146 146 103  57  25  17  19  18  21  23  26  34  59  88 135 144 146 146 146 146
 165 166 165 161 161 164 162 160 106  52  41  43 147 176 167 150 128 116 107 104 102  98 101 104 102  94  88  81  75  71  71  75  77  82  86  88  94  97 102 105 105 106 105 105 103 101  97  94  86  83  79  75  75  73  70  70  70  69  67  65  65  72  84  98 101 104 106 107 107 108 116 131 143 148 123  69  29  20  18  18  19  20  25  27  63  70 125 142 144 145 147 145
 167 167 166 162 161 164 166 164 137  52  41  42 162 174 163 141 121 112 102 100 105 107 100  80  63  60  63  66  68  70  68  69  69  75  79  84  89  96 100 104 105 106 106 107 104 102  98  94  88  79  74  73  70  71  65  52  34  24  23  25  26  40  42  36  45  65  91 102 105 111 116 127 141 150 137  83  33  22  18  18  18  18  23  25  45  70 100 139 145 145 146 146
 168 169 169 165 164 166 168 163 150  80  41  50 172 175 159 134 113 106 101 104  97  67  42  46  55  35  29  27  27  32  46  62  66  72  77  80  86  93  98 102 107 106 107 107 106 104  98  93  85  76  73  70  69  65  50  29  28  28  25  25  31  57  70  44  32  31  47  71  86  96 109 125 141 149 146 103  46  25  18  17  16  17  22  24  33  65  76 134 142 147 146 147
 166 170 170 169 164 166 166 162 155 104  47  62 180 176 155 129 112 105  99  80  54  42  56  85  67  32  29  27  27  26  28  47  61  69  73  78  83  91  99 103 105 105 105 106 106 103  98  92  86  75  72  70  66  49  63  40  33  35  28  27  30  52  57  46  45  44  45  51  59  73  94 123 144 153 150 119  57  27  20  18  16  17  21  23  29  56  62 111 140 147 147 149
 166 169 168 168 166 164 166 163 153 144  60  87 181 177 154 128 109  95  75  54  42  44  63  87  76  37  39  39  31  28  32  54  52  63  75  77  85  92  98 103 105 106 106 107 109 106  98  92  83  75  72  73  46  42  52  43  32  34  30  34  42  54  70  96 106 105  98  83  84 100 119 136 147 155 156 139  70  31  20  19  17  16  19  22  26  37  70  92 136 148 148 149
 166 167 168 169 169 165 166 160 156 153  83 106 183 179 158 130 103  84  71  66  65  62  64  61  59  42  38  31  29  31  40  49  42  36  76  81  85  91  99 103 106 108 108 109 111 107  99  94  85  80  75  68  44  51  55  57  58  61  64  69  80  97 111 118 122 125 132 139 145 148 149 151 156 160 159 149  92  32  22  19  16  15  18  21  25  38  66  75 126 144 150 150
 166 166 169 168 167 167 165 162 156 154  92 120 183 184 171 147 129 120 112 126 140 136 128  99  87  74  70  65  63  62  60  63  64  61  76  84  87  92  98 103 108 111 112 112 114 111 105  98  89  82  78  73  70  70  66  67  68  70  77  81  87  89  91  99 105 117 131 144 153 159 161 159 160 161 163 153 115  44  25  20  17  16  18  19  24  33  57  65 104 141 148 150
 168 166 166 169 167 166 165 164 159 147  80 132 188 191 180 171 170 166 155 144 133 122 117 112 103  96  87  81  73  71  70  75  76  80  79  88  89  92 100 106 111 119 118 119 120 117 110 100  93  86  80  78  71  65  64  63  65  70  74  78  81  83  86  89  96 108 126 143 157 166 167 165 162 164 166 159 139  50  29  22  17  16  17  20  22  30  47  64  82 140 147 151
 168 166 167 167 167 168 164 162 157 115  62 147 192 194 190 184 183 174 159 141 123 108 101 100  97  93  87  84  77  72  69  68  68  80  86  90  91  96 101 113 127 131 129 130 130 129 120 108  99  89  86  84  80  76  68  64  64  67  69  72  75  78  84  87  96 113 132 146 161 168 170 170 168 166 166 163 149  67  32  23  18  16  16  18  21  26  51  66  76 135 145 152
 167 168 168 168 167 166 165 163 156  79  71 156 192 196 195 192 188 180 170 145 119 104  98  95  91  90  82  77  73  70  71  74  82  91  96  95  94  99 108 129 148 146 139 140 140 141 134 117 105  96  93  92  91  91  87  82  78  77  77  78  79  84  91 105 120 133 146 155 161 166 169 170 170 170 168 164 152  85  36  24  19  17  18  19  20  23  53  62  78 115 146 153
 168 167 167 167 167 166 165 162 134  78  81 165 193 196 198 196 192 186 180 163 138 111  98  92  86  83  80  77  77  80  85  91  98 101 101  99  98 104 124 149 158 150 144 142 145 146 143 128 113 103  96  95  96  97  99  97  93  92  90  90  92 100 114 129 137 145 155 161 167 166 168 170 169 169 166 163 154 106  41  23  18  17  18  18  21  24  37  60  88  99 145 153
 168 169 168 168 168 167 166 161 137  98  83 167 193 196 197 198 196 189 184 176 166 146 118 102  95  90  89  89  92  96  96 102 102 104 101 100 101 111 137 158 157 148 144 143 146 149 149 139 122 109  99  99  98 100 103 101 100 101 101 104 108 118 127 133 141 147 154 161 167 167 167 166 168 169 168 164 156 120  40  24  18  18  17  18  20  23  21  62  91  83 143 154
 171 171 171 171 170 169 167 162 149 130 116 172 190 196 195 194 193 189 186 183 178 170 151 125 111 104 101 102 101 103 106 105 104 103 102 102 104 123 147 160 153 150 149 148 149 153 149 143 130 115 105 102  96  98 103 104 103 104 108 115 123 130 132 137 138 144 149 153 158 162 165 167 164 166 167 162 154 129  45  25  18  16  17  19  20  23  26  57  84  76 136 155
 172 172 173 173 172 172 171 167 158 148 145 169 188 192 190 188 187 186 183 181 177 171 161 147 128 116 108 108 108 108 108 107 106 104 103 103 112 133 156 162 155 152 152 151 154 159 153 145 134 121 109 104  95  98 102 104 106 108 114 120 123 126 131 134 136 141 142 147 152 157 162 162 161 163 164 162 153 132  44  25  18  16  17  20  20  21  26  50  78  81 125 155
 175 175 174 175 175 174 172 168 165 160 151 165 186 188 185 184 180 181 179 174 166 162 160 156 142 127 120 112 110 111 108 107 106 105 103 106 121 141 156 161 163 161 159 156 156 158 158 150 139 125 114 108  99  99 100 103 108 113 116 122 124 126 128 132 136 139 143 146 146 151 154 155 158 161 162 159 152 131  45  26  19  17  19  20  18  21  24  45  60  82 108 156
 177 176 176 176 175 175 173 170 166 168 157 160 183 184 182 180 178 177 172 167 161 162 158 152 141 132 126 118 114 112 110 108 107 107 105 108 125 146 160 165 166 164 159 158 160 156 157 155 139 128 116 110 102  98  98 103 107 108 112 116 121 125 128 132 133 139 144 148 150 150 150 152 155 156 155 157 150 128  39  25  19  17  17  21  20  23  25  41  60  84  91 152
 177 178 178 178 177 176 175 170 171 170 161 159 180 179 177 176 172 169 165 161 157 155 152 145 142 135 130 125 120 114 110 108 107 106 108 114 127 146 161 165 162 160 153 150 154 160 157 157 146 130 111 111 104 102 100 106 106 106 108 113 118 122 128 132 137 140 142 144 150 152 152 153 153 155 152 153 150 128  38  23  20  17  17  22  20  22  24  35  64  82  92 150
 180 179 179 179 178 176 176 170 175 172 164 156 179 177 175 171 167 164 160 158 157 156 151 145 143 138 134 131 123 115 110 107  98  97 107 114 129 148 160 161 160 160 159 149 153 158 161 157 148 138 119 111 105 100 101 103 105 106 109 112 114 118 123 127 133 136 139 142 145 151 152 152 151 152 150 149 148 127  33  20  19  17  17  21  18  22  26  30  66  79  95 153
 182 180 180 181 179 179 179 172 179 176 164 158 178 176 173 167 160 153 162 161 157 154 152 148 145 143 135 127 122 115 110 109 104 101 105 110 128 144 155 161 162 162 158 149 148 154 160 158 142 135 123 106  98  99  99 101 104 106 107 110 113 115 119 123 130 134 135 139 144 146 150 151 151 150 148 150 147 120  30  21  18  16  17  19  19  23  28  28  67  81  94 154
 183 183 182 183 181 180 179 176 179 178 165 162 175 172 171 165 161 158 163 162 157 154 150 146 143 142 133 124 120 114 110 111 107 107 106 104 120 138 154 164 166 163 155 146 147 155 160 156 136 132 123  93  89  94  95  98 103 106 107 109 111 114 118 122 127 129 132 133 138 143 146 150 150 150 149 145 145 122  29  18  17  16  16  19  20  23  31  34  58  80  88 151
 183 184 185 184 184 183 180 180 179 181 165 167 173 170 169 165 162 164 163 163 158 154 151 147 139 138 132 124 118 114 110 109 108 103 101 101 118 140 160 167 169 163 151 143 145 150 155 151 141 141 136  91  78  85  93  98 103 104 106 110 112 114 116 120 121 124 127 130 135 141 145 147 146 147 147 144 143 118  27  17  18  16  17  20  19  23  35  50  47  81  99 151
 185 184 186 185 185 183 180 184 181 182 170 171 170 168 170 162 166 164 160 157 153 148 145 140 135 131 126 119 114 111 107 106 104  96  92 100 137 160 166 168 164 157 146 141 140 142 148 152 155 159 160 115  69  76  86  93  97 103 107 109 108 110 115 116 118 122 124 127 129 135 143 147 145 144 144 142 141 115  27  19  16  15  17  20  20  25  39  44  44  81  95 155
 187 187 186 186 186 186 183 185 184 182 173 174 171 169 167 163 164 160 154 154 149 146 140 134 124 121 122 116 113 108 104 103  98  90  86 116 163 172 168 163 154 146 134 130 132 136 139 149 154 156 163 152  72  71  80  88  93  99 103 106 106 109 111 113 116 120 122 123 124 131 136 142 142 142 140 142 142 113  24  18  16  15  16  20  20  22  35  46  41  79  93 157
 188 188 188 187 187 185 186 186 184 180 177 175 171 166 163 162 158 152 149 149 145 141 137 130 122 119 118 115 111 106 103  98  93  88  82 151 162 163 160 151 134 127 119 116 119 125 130 136 142 145 151 151  98  69  77  87  94  99 100 104 106 108 108 109 112 115 117 118 119 125 129 132 137 138 138 141 142 108  23  17  16  15  16  20  18  21  34  32  37  84 101 157
 189 190 190 188 188 187 188 187 186 181 182 175 169 163 159 158 152 144 143 141 140 135 134 128 123 119 115 114 109 105  99  94  90  84  98 155 153 146 140 127 118 112 109 108 107 107 112 114 124 133 135 139 110  71  75  83  90  94  99 102 105 106 104 106 109 108 112 114 114 117 118 102 113 135 137 138 142 104  27  18  16  15  16  20  20  22  34  33  33  76 122 161
 191 191 189 189 188 189 189 188 188 183 184 176 173 163 155 152 146 141 141 136 135 131 128 123 121 119 115 113 108 104  97  92  88  86 103 145 137 128 116 108  98  99 100  98  96  94  95  97 107 116 120 123 105  75  78  83  87  92  96  97 104 104 104 103 104 106 107 109 110 113 111 103 116 130 135 136 140 100  24  18  17  16  15  22  19  23  33  32  32  82 146 161
 192 192 191 190 189 190 190 189 188 186 184 176 177 164 153 149 145 139 136 133 130 127 123 123 120 116 114 110 107 101  95  91  89  86  95 126 118 108  97  92  90  92  92  91  88  86  85  76  72  87  97 101  89  80  83  84  86  91  94  95  99 100 103 103 102 101 103 106 104 107 106 108 113 124 129 135 139  90  24  18  16  15  16  19  18  23  33  32  35  92 160 166
 193 193 193 192 191 191 191 189 187 188 184 179 178 169 150 145 137 135 131 126 125 123 121 118 115 115 115 108 104  98  93  89  89  87  88  99  98  81  65  63  81  88  85  85  86  84  74  59  55  64  73  76  79  84  86  85  84  87  90  92  95  95  97 100 101 102 102 101 101 103 106 108 110 118 126 133 137  87  24  17  16  14  15  20  19  21  33  32  46  99 164 170
 196 195 194 195 194 194 193 189 188 189 185 182 178 172 149 140 132 129 127 124 121 119 118 116 113 112 110 107 100  96  90  88  89  90  88  82  77  69  68  69  80  84  86  87  84  79  75  75  69  63  62  71  84  87  88  89  85  84  85  89  92  94  94  94  97  98  98 100  98  99 102 104 107 115 124 132 138  79  24  17  14  15  14  19  19  22  46  32  51 118 168 172
 198 198 197 196 195 196 196 193 190 189 186 183 182 175 152 137 130 124 123 121 120 117 116 115 112 110 106 101  97  93  91  88  90  92  92  88  83  71  68  77  84  86  86  87  84  81  82  78  78  78  82  87  89  88  89  88  86  85  86  87  89  90  91  91  93  94  94  95  98  96  99 102 106 112 121 131 138  64  23  17  15  15  14  18  19  22  43  31  63 140 173 175
 199 198 200 198 196 198 195 196 191 191 185 183 182 169 155 138 128 123 120 118 116 116 113 110 109 107 103  96  94  93  91  91  93  92  93  93  90  84  78  83  86  88  85  85  84  83  83  84  86  94  99  95  92  91  91  92  91  86  85  86  88  87  88  88  88  92  93  93  94  97  98 101 106 111 118 131 137  52  20  16  15  15  14  18  20  23  37  30  58 164 174 174
 199 199 199 199 200 197 197 194 192 192 188 185 184 167 153 140 126 121 120 115 114 112 111 110 108 105 102  98  95  93  94  96  94  93  93  94  96  98  89  87  86  86  85  84  81  82  85  88  93 106 108 100  92  93  94  94  91  86  82  84  84  85  86  87  88  91  91  92  95  97 100 102 106 113 120 132 132  34  18  16  15  14  15  17  18  23  35  30  76 169 172 174
 198 198 200 200 199 198 198 196 194 193 188 188 186 165 155 141 126 119 116 112 110 112 110 106 104 103 100  96  94  94  92  95  93  95  93  97 103 106  96  91  89  88  84  80  76  82  86  92 100 108 108 105  96  95  95  96  95  90  82  76  77  80  84  83  83  88  89  90  96  99 103 103 107 113 122 130 120  27  19  18  15  14  14  17  19  25  40  32 110 168 173 173
 200 199 200 198 197 197 197 196 192 191 189 188 189 159 147 140 126 120 116 113 112 112 106 106 103 100  96  94  94  91  91  95  93  96  95  98 106 108 104  90  86  86  80  75  74  82  88  95 102 105 106 102  98  94  93  93  92  89  82  72  70  74  79  84  81  86  92  92  97 101 102 104 107 114 120 129  94  27  21  20  15  14  15  18  20  30  38  41 136 170 173 174
 199 200 198 198 197 197 197 196 192 192 190 188 185 158 140 143 127 120 115 114 114 111 108 106 104  95  95  93  90  88  91  93  95  95  95  98 104 110 107  92  86  84  80  79  79  84  89  95 101  99  99  96  92  93  93  91  87  86  78  59  50  60  72  79  82  92  94  94  96 100 102 103 105 113 118 126  64  25  22  21  15  15  16  18  20  30  30  51 148 170 173 175
 199 201 198 198 197 197 197 195 192 192 188 187 179 157 125 139 128 121 118 116 113 113 109 106 100  93  93  92  89  87  90  93  95  93  94  97 101 104 102  93  86  81  81  81  82  79  77  80  76  76  78  77  77  78  77  76  75  63  50  51  49  57  69  73  81  94  98  96 101 102 104 104 105 109 118 116  35  21  20  19  17  15  16  17  21  27  34  76 156 169 175 176
 199 200 200 198 199 197 196 194 192 194 190 186 178 161 117 121 130 119 117 117 115 113 111 106  99  93  91  85  78  76  77  88  90  89  88  86  82  79  79  74  72  69  70  70  71  67  66  65  66  66  68  66  64  60  56  58  58  55  61  63  63  67  73  75  84  97 100 101 102 102 101 101 103 108 113  81  24  20  20  18  15  15  16  17  21  31  35 106 162 168 175 175
 198 200 201 197 196 197 196 196 195 192 191 183 176 165 104  96 132 120 118 116 115 113 111 106 102  95  92  80  63  59  55  61  58  63  65  67  68  68  71  68  67  67  67  68  69  64  66  66  66  63  57  52  48  52  62  69  73  76  83  80  74  77  81  81  88  98 102 102 101 101 100  99 102 104 109  42  20  18  19  16  16  16  14  16  20  34  36 135 168 172 173 175
 200 200 199 199 198 197 197 196 195 191 192 179 178 165  99  74 119 120 115 114 115 112 110 107 104  98  91  82  72  66  66  70  61  55  53  52  48  45  44  45  55  61  66  65  65  62  60  54  50  48  50  60  67  71  76  78  79  88  92  90  86  86  87  87  92  97  99  98  98  99  98  98  97 101  77  24  18  18  19  18  17  15  15  18  22  37  44 144 171 175 174 174
 202 199 199 198 199 199 198 196 196 190 189 182 174 158 100  68  86 122 118 114 113 112 112 108 104 100  94  86  82  77  80  85  84  73  66  68  66  62  58  53  51  52  51  51  53  51  55  59  69  71  76  84  83  80  77  78  86  93  95  92  93  91  88  90  92  96  97  98  99  97  97  95  96  95  41  21  17  18  20  17  16  17  15  18  25  41  52 151 174 177 175 177
 200 200 201 199 199 199 196 197 195 190 188 184 174 160  96  60  61 110 115 112 112 111 112 109 106 102  97  89  91  90  88  90  94  89  79  75  73  76  78  79  80  79  75  74  74  78  79  83  87  86  86  85  85  80  76  81  89  95  95  95  94  91  89  90  94  97  98  96  95  94  95  93  92  71  23  17  17  18  23  20  17  17  16  18  29  42  78 160 178 178 178 179
 201 201 202 200 200 198 196 196 192 194 185 184 172 160  70  58  59  69 113 112 112 110 110 109 106 104  99  93  93  95  95  96  95  96  93  85  79  80  86  87  89  88  87  85  85  84  83  86  88  86  86  83  79  78  79  86  91  92  94  98  95  93  93  92  94  94  94  94  93  94  93  90  85  28  17  17  17  21  26  23  17  17  15  19  37  40 105 164 176 177 180 179
 205 202 201 204 199 198 198 194 191 192 190 179 176 144  62  56  56  43  84 110 110 110 108 107 105 103  99  94  95  98 101 101 100  97  97  93  86  83  81  84  87  88  86  84  84  83  82  81  82  78  76  74  76  80  88  90  90  92  96  97  94  96  95  95  94  93  93  92  92  92  90  87  50  19  14  18  18  24  29  24  18  17  17  23  46  39 118 166 178 181 183 181
 203 202 203 201 199 199 197 195 193 190 189 176 176 108  57  54  50  38  37  95 107 109 107 105 104 103 100  97  95  98 102 103 100  97  96  96  93  89  84  80  81  80  81  79  80  80  80  75  75  74  75  74  80  84  88  88  92  94  95  96  96  97  96  95  95  93  90  89  92  90  86  68  21  14  13  20  22  26  30  29  18  18  20  25  52  40 145 169 180 180 182 180
 202 201 202 201 200 200 197 197 194 192 191 182 171  76  54  54  44  35  28  38  98 103 102 101 104 103  99  98  99  97  98 101 103 100  97  95  94  91  88  85  83  81  81  80  78  79  78  76  78  77  80  79  82  85  90  91  93  95  95  95  96  96  96  96  95  91  89  89  90  86  79  32  16  12  14  22  24  26  33  36  22  18  22  27  53  44 158 178 177 182 183 182
 203 203 202 202 200 201 199 197 197 196 190 177 137  67  54  55  38  33  26  21  50  97  97 101 100 101 101 100 100  99  98 102 100  98  96  94  94  91  90  89  87  86  83  81  81  82  80  80  83  80  81  83  84  85  89  91  95  95  96  95  98  98  96  95  93  90  90  89  86  81  49  19  13  12  13  24  26  28  33  36  27  20  24  31  66  64 170 180 177 180 183 184
 202 203 204 201 201 199 199 198 197 195 188 167  96  54  54  43  39  33  24  19  19  62  94  96 100 100 102 102 103 100  98 101  98  96  96  95  94  91  90  89  88  86  84  81  82  81  82  80  82  81  86  87  86  88  89  94  97  98  97  96  99  96  95  94  91  90  88  88  82  56  24  18  13  11  14  26  28  28  31  34  28  25  27  37  68  94 171 181 178 181 181 184
 203 204 203 204 201 200 199 198 197 195 178 128  74  51  47  35  36  29  20  15  17  20  70  92  95  97 100  99 102 103 102 101  98  95  96  95  94  92  90  89  87  85  82  82  81  79  79  80  83  85  86  88  90  91  94  97  98  98 100  99  99  99  95  96  91  88  87  81  64  22  16  17  14  12  14  26  28  31  31  34  34  26  31  54  80 124 173 182 177 182 182 185
 204 203 203 202 201 201 199 197 193 190 175  96  64  50  39  33  32  32  19  15  16  17  24  73  93  95  98  98 102 104 102 102 100  95  97  95  95  94  92  90  89  86  84  84  80  79  80  83  86  88  89  93  93  94  96 100 102 101 101  99 102 100  96  94  90  87  83  69  26  16  14  16  16  11  14  23  30  30  29  33  34  31  33  67  73 140 173 182 180 183 185 183
 205 202 204 202 200 201 198 198 196 189 159  76  57  42  34  32  28  26  17  15  16  14  24  26  76  93  94  98 101 103 103 102  98  95  96  97  96  95  94  92  90  89  89  85  85  85  85  89  90  89  92  93  95  98  99 102 104 103 103 101 104 100  97  93  88  84  73  29  13  13  13  15  18  12  14  23  29  29  30  36  37  37  37  86  71 159 175 183 179 182 185 183
 204 202 202 202 201 198 198 198 190 169 107  80  48  37  32  28  26  22  16  13  13  14  22  16  28  77  91  94  95  97 102 103 101  97  96  94  96  96  97  92  91  89  92  95  94  94  92  93  94  94  96  97  96 101 103 104 105 104 103 105 105 100  95  90  84  74  30  14  11  12  12  14  15  11  13  20  28  29  30  36  38  46  42  65  58 131 168 178 179 182 180 176
 204 205 203 201 200 196 195 192 174 135  88  56  38  33  28  25  27  20  14  13  13  16  18  13  23  38  76  89  94  97 100 104 102 100  99  97  95  95  96  95  94  93  94  96  97  97  97  93  94  96  98  98  97 104 104 104 106 108 106 107 103  99  91  84  73  30  18  12  10  10  12  14  18  11  13  20  28  31  30  36  42  46  35  32  36  32  35  60  75  86  77  79
 204 202 200 199 197 197 191 176 145 109  72  49  39  32  26  24  25  19  14  14  13  16  15  12  21  25  32  68  87  91  99 102  99 101 101  98  94  95  99  94  94  97  98  97  98  97  96  93  96  98  98  98  98 102 103 107 107 107 106 105 101  96  87  74  35  17  12  11   9  10  11  11  20  12  11  18  26  32  31  34  44  42  31  31  28  24  23  26  24  26  24  24
 203 201 201 203 198 191 178 149 112  71  74  48  35  30  26  24  25  18  14  12  12  17  15  12  19  19  21  22  66  87  93  97  99  99  96  93  95  97  98  95  94  98  98  97  98  97  96  94  93  97  96  96  98  99 101 102 103 106 103 102  95  88  72  31  16  14  10  10  10  11  10  12  17  10  13  16  27  30  28  32  44  41  28  33  22  18  19  18  18  18  19  21
 202 201 196 192 186 172 150 130 110  76  56  41  31  29  25  24  22  15  13  12  12  17  13  14  16  17  16  18  17  57  84  92  94  95  97  97  98  99  95  95  96  95  95  95  95  95  95  97  93  92  91  95  97  96  96  97  99 100  98  93  85  72  32  17  13  10  10   9   9  11  10  12  16  10  12  18  29  29  27  28  42  42  31  32  19  19  17  17  16  16  18  18
 202 198 191 192 181 168 154 144  99  65  47  39  30  27  23  24  21  14  14  13  11  13  11  15  14  16  17  17  12  17  50  80  91  93  96  95  95  96  95  95  94  94  94  94  92  94  91  89  88  90  91  91  92  94  93  92  96  93  90  82  67  30  17  14  11  10  10   9  10  11  13  13  13  10  13  16  28  27  26  27  33  34  32  28  18  20  20  18  18  16  17  18
 195 195 196 187 172 168 160 118  89  64  40  34  31  27  23  25  18  14  14  12  14  15  13  13  13  15  15  16  13  13  16  41  81  88  90  91  93  94  94  96  92  92  90  91  90  88  89  89  87  88  88  88  89  88  89  90  89  86  79  58  27  16  14  12  10   8  10   9  10  12  12  15  14  10  12  16  28  27  24  24  32  31  29  24  20  18  19  17  17  17  16  16
 194 188 182 175 178 164 131 109  70  47  35  34  30  24  27  24  16  15  13  13  12  15  13  10  12  15  16  14  13  11  13  15  27  69  84  87  89  89  91  89  89  90  89  88  85  85  86  86  86  84  86  86  86  89  86  82  78  73  47  20  16  13  10  11  10   9   9  10  10  11  11  17  11  11  13  19  28  25  23  22  27  30  27  22  16  15  16  15  15  15  15  16
 189 183 186 176 172 156 115  68  47  37  38  30  26  25  28  21  15  14  13  13  13  12  13  12  11  14  15  13  14  10  10  12  15  19  50  75  81  84  87  86  86  86  84  83  82  82  80  78  80  79  80  81  80  78  79  74  58  32  19  15  13  10   9  10   9   9   9  10  11  10   9  15  11  11  12  18  26  26  24  24  29  31  26  21  13  14  15  14  13  13  12  13
 194 192 184 161 108  69  51  47  41  41  38  31  27  32  25  18  15  13  13  13  13  13  12  11  11  15  14  12  14  10  10  12  12  12  16  26  54  73  81  81  80  80  78  80  78  76  74  75  74  75  71  74  72  68  59  34  20  15  12  11  10  10   9  10   9   9  10  10  12  10  11  13  11  11  13  19  26  24  21  25  26  31  30  20  15  13  17  12  12  12  12  11
 107  69  62  46  48  47  47  42  42  39  34  29  27  29  24  19  16  13  14  12  12  14  12  11  11  14  13  14  13  12  11  12  12  10  12  13  16  21  41  52  62  68  68  70  71  69  65  63  62  59  57  52  40  29  21  14  13  11  11  11   9  10   9   9  10   9   8   9  11  10  11  12  10  12  14  21  24  23  21  23  25  29  30  25  15  14  15  12  11  12  11  10
  44  45  38  40  40  45  43  44  39  37  31  30  31  26  23  18  16  15  15  12  12  13  12  11  11  12  14  14  14  12  12  11  11  10  12  11  12  13  16  17  21  24  26  31  32  32  30  27  26  23  20  15  14  13  11  10  10  10  10  10   9   9   9   9   9   8  10  10  10  10  12  11   9  12  14  24  22  22  22  19  23  28  28  25  17  14  15  11  11  12  11   9
  42  41  41  38  38  44  41  39  36  37  30  33  30  22  22  16  15  16  15  13  12  14  12  10  11  13  15  16  14  13  11  11  12  10  11  11  12  11  12  12  13  13  13  14  13  14  14  13  13  12  12  12  10  11  11  10  10  10  10  10  10   9   9   9   8   9   9  10  10   9  11  11  10  12  16  24  20  23  20  18  18  25  28  25  21  16  13  12  12  12  10  10
  42  41  38  35  38  34  33  33  39  33  33  34  25  20  20  15  14  17  15  13  13  15  12  11  10  12  13  15  13  13  12  11  11  10  11  11  11  11  12  11  12  10  11  12  11  12  11  11  11  11  11  11  10  11  11  10   9  11   9  10  10  10   8   8   9   8   8  11  10  11  10   9  10  13  19  22  21  19  18  15  16  20  26  25  19  15  13  12  12  10  11  11
