P2
# Generated by OpenCV 3.4.0
92 112
255
 113 112 112 115 114 116 115 115 115 116 115 118 116 117 116 117 118 117 117 117 117 118 120 121 119 121 120 122 119 120 119 122 123 122 123 122 123 123 120 122 123 122 122 120 122 123 123 123 123 122 123 123 123 122 122 121 122 123 123 122 122 121 123 122 123 123 121 120 121 122 120 119 119 121 118 119 118 119 119 119 118 117 118 118 116 116 117 117 117 117 117 117
 112 113 114 114 114 116 116 115 115 116 116 117 115 118 117 118 118 119 118 117 120 119 120 122 121 120 122 123 123 122 120 122 123 122 122 123 123 123 123 123 121 122 122 122 124 123 123 124 123 121 123 122 123 123 122 123 122 122 123 123 123 122 123 122 122 122 122 122 120 121 121 122 120 119 120 121 118 120 120 121 120 120 120 119 118 118 118 119 118 117 118 117
 113 113 114 114 115 116 115 116 117 115 117 118 117 118 119 118 119 120 120 121 117 120 121 121 121 120 121 122 122 120 123 122 122 123 122 123 124 123 124 125 122 123 122 122 122 124 123 122 123 123 124 125 123 123 122 123 123 124 123 124 121 122 123 124 123 123 123 122 121 121 122 120 121 122 121 119 120 120 121 121 121 120 120 119 118 118 119 119 121 118 118 117
 114 114 115 116 116 115 117 116 116 117 117 118 118 118 118 120 120 120 121 121 121 120 119 120 121 122 122 122 123 125 123 123 122 124 122 124 123 123 124 125 123 124 124 125 122 126 123 123 124 123 122 125 124 123 125 124 123 123 124 124 124 122 122 123 123 124 123 123 120 122 122 122 122 121 122 122 120 120 122 122 121 119 119 120 119 121 120 120 118 119 118 118
 114 116 116 115 115 116 117 117 116 117 116 119 118 119 118 120 120 120 120 120 120 122 121 120 121 122 123 123 122 124 124 124 126 123 123 124 124 124 125 123 123 123 126 126 125 125 124 124 124 124 124 126 124 124 123 124 125 124 123 123 124 125 122 123 123 124 123 124 123 123 123 122 122 120 122 122 122 120 122 121 121 121 122 120 119 120 120 119 118 121 118 117
 115 115 115 116 116 118 115 116 118 119 118 118 118 120 117 118 119 121 120 121 120 122 122 121 122 121 123 123 123 124 123 124 125 123 125 125 124 124 123 124 124 127 125 124 125 125 125 124 125 125 124 124 124 125 126 124 123 124 124 124 122 123 124 124 123 122 124 124 124 122 123 123 123 122 122 123 123 123 122 122 122 123 123 121 122 119 120 121 119 119 119 119
 114 116 115 116 116 117 116 117 117 117 118 120 119 120 122 121 122 119 122 122 122 121 123 122 121 122 123 122 123 123 123 124 126 124 124 126 126 125 126 126 126 126 125 126 124 125 126 125 125 124 123 124 123 124 125 124 122 125 124 125 124 123 122 123 124 123 124 124 123 124 124 123 123 122 122 122 123 123 122 123 122 123 121 122 123 120 121 121 119 118 118 119
 117 116 117 116 117 116 116 116 117 116 119 118 119 120 121 122 123 121 122 122 122 122 123 122 122 122 124 124 124 124 124 125 124 125 124 125 126 125 126 126 126 125 125 125 126 126 126 126 126 125 124 124 124 123 125 126 124 123 126 126 125 124 124 123 123 123 121 120 122 122 123 123 122 121 119 123 123 124 122 123 124 123 122 120 120 123 120 121 120 121 120 120
 116 116 117 116 117 118 118 117 118 119 120 118 120 119 120 120 121 122 122 120 122 122 123 124 124 123 122 123 125 125 125 126 125 124 125 125 125 126 126 125 126 126 125 125 127 127 126 126 126 125 125 124 122 124 125 123 125 124 125 124 124 125 122 121 121 120 120 122 123 124 124 123 122 122 122 121 122 121 122 123 123 121 122 120 122 122 124 123 122 121 120 120
 115 116 116 116 116 116 117 118 120 119 119 119 119 120 121 122 120 121 121 121 122 122 125 123 123 122 124 125 124 125 125 125 126 125 124 126 128 127 126 127 125 126 127 128 127 126 125 127 126 126 128 127 125 122 123 122 122 124 125 124 122 121 120 120 117 123 120 121 121 121 122 122 121 122 123 124 123 122 123 122 122 122 123 123 123 123 123 121 122 119 121 120
  81  97 109 113 116 115 116 117 116 116 119 121 121 121 122 121 124 123 122 123 124 122 125 124 125 124 124 126 124 125 124 125 125 126 126 127 127 125 127 127 127 127 126 127 127 126 125 126 125 126 126 127 125 122 123 123 123 120 118 116 113 111 110 108 107 109 109 110 112 112 114 116 121 122 124 125 124 124 123 123 122 122 123 123 123 123 122 122 123 122 121 120
  84  68  54  50  50  57  71  77  92 102 114 120 120 120 118 120 123 122 123 124 124 123 125 123 125 125 124 126 124 127 127 125 126 126 127 127 127 127 128 127 127 126 126 128 127 126 127 126 126 125 127 125 125 125 120 120 114 112 112 108 103  98  93  92  91  84  79  77  74  78  79  88  96 102 109 115 120 123 121 123 124 122 122 123 121 123 123 123 123 122 123 122
 116 114 116 115 116 111 102  88  77  68  57  57  61  76  88 104 115 117 120 122 122 123 124 125 125 125 125 127 125 126 126 125 125 126 128 128 126 125 127 126 126 125 125 127 126 126 126 128 126 125 124 124 122 119 109 104 103 108 102  84  73  69  66  61  52  51  46  43  41  39  39  38  40  41  55  73  91 106 112 116 119 121 122 122 122 122 123 123 124 123 123 122
 115 115 116 118 116 117 118 117 118 118 120 118 108  97  81  66  53  61  81 108 119 121 122 122 123 122 123 126 125 126 126 127 126 127 127 128 127 126 124 125 126 127 126 128 128 126 124 124 124 125 124 121 114 103  93  91  99  78  57  59  57  55  51  46  44  43  41  40  39  37  36  36  35  35  37  40  46  64  84 108 116 119 120 122 123 122 123 122 123 123 122 122
 117 117 117 117 118 119 117 119 120 120 120 120 119 119 121 120 120 111  97  66  60  82 112 122 124 123 124 124 125 124 126 126 127 126 127 129 127 128 128 127 127 127 126 129 127 126 125 126 123 121 120 111 108  93  92  95  69  55  53  57  54  53  47  43  41  38  38  36  34  33  30  29  29  30  29  31  36  43  55  69  96 112 121 122 122 120 122 123 123 123 123 121
 116 116 118 116 117 119 119 121 118 118 118 120 120 120 121 121 120 121 121 121 113  90  61  73 110 108 120 123 125 124 127 126 126 128 128 128 128 129 128 127 126 126 126 128 127 127 124 125 124 119 113 104  88  82  71  66  48  43  41  47  44  45  41  37  36  35  34  30  28  26  26  26  28  27  25  27  27  30  39  48  57  70 106 116 119 119 119 118 120 122 121 120
 117 116 116 117 117 118 117 119 118 118 120 120 119 120 118 119 121 121 119 118 120 118 116  93  57  84 113 121 124 123 126 126 125 127 127 128 127 127 129 126 127 127 126 126 125 125 122 122 119 112 107  95  65  60  61  49  32  30  36  41  39  40  42  36  37  37  30  29  26  25  25  26  23  22  20  21  24  23  27  35  45  52  53  91 114 114 116 116 116 117 117 116
 116 115 117 117 117 117 116 117 119 117 118 119 120 118 120 120 119 120 119 119 119 116 112  94  84  66  82 115 119 124 126 126 126 126 125 126 127 126 127 126 127 126 127 126 123 122 120 118 115 105  81  66  60  60  56  47  42  35  36  32  34  36  35  34  32  32  30  29  28  27  25  25  23  21  19  20  20  22  21  27  37  42  50  47  71  79  81  78  74  76  76  78
 115 115 116 115 110 116 117 117 117 117 116 118 117 118 116 116 119 116 116 113 114 114  97  80  95  90  54 108 116 120 121 121 122 121 123 122 123 123 122 119 121 121 119 117 114 112 108 103  87  68  65  73  62  52  42  39  43  43  42  38  35  29  27  26  24  24  27  28  25  26  25  24  25  25  24  21  21  22  23  24  27  35  44  48  46  75  94  90  98 100 103 102
 111 109 113 108  98 111 110 112 109 108 106 106 104 104 103 102  99  99  94  94  94  92  86  74  72  70  56  64  80  84  84  83  83  80  83  82  82  81  80  82  81  81  82  80  84  82  78  74  62  52  52  52  49  46  45  42  42  40  46  45  44  41  42  39  36  32  29  28  26  24  24  21  20  22  21  20  17  19  21  23  23  26  34  41  53  48  95 115 113 114 117 118
  69  72  68  75  72  78  69  74  75  76  76  81  79  83  83  85  87  90  91  92  95  94  95  89  84  89  76  51 100 105 109 107 106 111 111 110 112 113 114 113 113 113 108 107 103  84  73  67  52  49  49  47  50  61  79  90 100 108 109  99  96  92  85  77  74  68  60  49  42  35  29  23  21  23  20  20  19  18  18  22  20  23  27  34  47  53  60 111 116 116 118 119
 106 105 106 108 109 111 112 112 112 111 114 117 115 118 117 118 116 119 121 119 121 123 119 119 118 114 110  53 110 119 124 122 117 124 125 126 128 126 126 125 126 120 114 110  84  78  73  57  47  48  60  93 128 141 142 141 142 142 138 136 132 130 127 120 113 105  97  88  77  66  58  46  34  25  22  22  22  20  17  21  22  19  24  28  38  53  47  84 114 117 117 119
 116 118 119 118 122 122 121 121 120 121 124 123 124 124 125 124 126 125 126 126 125 126 124 124 125 122 116  61 104 121 125 126 118 126 128 128 129 128 126 125 123 115 108  81  89  75  56  49  59 110 147 163 168 170 169 170 168 164 160 154 151 147 142 140 138 135 130 126 117 101  90  73  56  39  29  21  22  20  21  22  20  18  21  25  31  47  60  53 107 118 120 119
 120 119 119 118 121 123 123 122 123 123 123 123 124 124 126 125 126 126 125 126 126 128 126 126 124 123 118  65 100 121 126 127 115 127 126 127 128 128 126 124 118 108  80  86  71  59  60 104 154 174 180 186 187 191 186 181 176 170 165 160 156 154 152 151 148 148 147 142 138 128 119 104  81  63  52  36  23  21  23  21  20  19  19  22  25  34  52  50  86 116 119 119
 119 119 123 121 121 123 123 123 125 124 123 124 125 126 125 125 126 127 127 126 126 127 128 126 125 124 117  67 102 122 125 126 115 126 127 129 128 125 125 120 111  78  79  74  68  82 151 171 183 190 196 200 198 196 188 183 175 165 161 161 159 158 156 156 153 152 150 152 153 149 143 135 119  96  74  58  43  27  23  24  19  18  18  16  22  25  46  49  70 113 119 120
 121 122 124 123 124 124 124 125 124 124 124 125 125 126 126 125 127 127 128 128 128 127 127 126 126 124 117  62 108 122 127 126 117 128 129 128 127 126 125 111  86  72  72  71  95 163 181 189 194 199 200 200 200 196 189 182 173 163 158 156 153 151 150 150 149 149 150 153 156 159 159 156 151 134 115  94  66  46  26  20  18  18  18  16  18  20  32  42  60 104 118 122
 123 122 125 124 124 124 125 124 125 126 126 127 125 126 127 126 127 127 129 129 127 128 129 129 127 125 119  60 112 125 128 127 116 129 131 130 128 125 113  92  75  72  70 105 167 186 196 200 200 202 199 199 194 188 183 176 167 158 154 148 145 139 141 145 146 147 148 149 154 158 161 164 162 158 143 136 112  72  50  28  19  18  19  16  16  19  24  39  55  89 115 122
 125 123 124 123 124 124 125 125 126 125 127 128 125 127 128 128 125 128 128 130 128 126 128 129 127 126 118  64 112 124 126 127 119 128 129 129 127 117  97  77  69  71 110 170 189 196 200 202 202 201 198 196 189 183 176 169 161 152 146 144 138 137 138 134 117 141 146 146 147 153 157 161 166 166 162 152 152 134  79  50  27  19  19  18  15  17  22  32  53  73 114 120
 124 124 123 124 124 125 126 126 126 126 126 126 127 128 127 128 127 130 128 128 128 127 128 129 127 124 106  70 117 124 126 126 116 127 128 127 121 106  82  66  72 108 171 184 197 201 202 202 201 199 195 192 184 178 171 163 156 149 145 139 135 135 131 119 113 132 139 142 143 145 150 158 162 167 168 161 161 156 136  79  50  25  19  21  16  15  21  28  47  63 110 118
 124 125 126 124 123 126 126 127 126 126 127 128 128 127 129 129 128 129 128 129 129 129 130 128 127 123  96  78 118 125 128 126 116 129 127 124 110  83  64  80 110 166 183 191 202 204 201 201 199 196 191 182 178 171 166 157 153 148 142 138 136 134 134 131 127 128 132 136 138 139 143 147 153 158 163 168 166 161 151 134  80  49  25  21  19  15  17  25  43  59 102 117
 124 125 127 126 126 126 127 127 124 128 128 128 129 129 129 129 130 129 130 130 128 129 128 128 126 123  79  92 120 127 128 128 117 129 130 118  88  67  72  96 146 177 188 195 201 202 199 198 197 191 184 176 169 164 161 157 152 149 146 140 137 134 134 132 131 128 128 129 132 134 136 135 138 149 152 162 165 161 153 144 120  74  45  23  18  17  16  21  31  46  96 117
 125 126 126 127 126 126 126 127 127 128 127 128 128 130 128 128 129 129 129 129 129 130 128 128 127 121  64 106 122 128 129 127 117 129 126  94  71  69  85 123 167 182 191 197 203 203 201 197 196 186 181 172 166 161 157 151 148 146 142 139 134 131 134 134 129 126 125 124 124 128 127 132 135 138 145 151 155 155 150 142 133 109  67  35  20  17  15  19  28  45  78 115
 123 126 125 127 126 127 127 126 127 127 129 129 130 130 129 129 130 129 130 130 130 130 129 129 126 119  58 112 124 128 129 127 120 128 109  77  61  62  94 155 176 183 191 201 206 203 199 196 190 182 175 167 158 153 148 144 142 142 138 133 129 129 128 129 125 124 122 121 123 124 123 126 128 130 135 138 140 142 142 140 135 125  90  53  26  18  16  17  25  40  68 108
 125 125 126 127 126 127 127 127 128 128 129 129 129 130 131 130 129 128 130 130 130 129 129 127 126 110  63 116 124 129 129 124 116 120  88  55  52  65 124 168 179 188 197 207 205 195 185 180 166 161 156 151 145 139 135 134 138 134 129 126 124 124 124 121 120 120 120 119 119 124 126 126 125 126 127 130 131 129 131 134 133 128 113  69  36  21  16  16  20  31  62  96
 127 127 128 127 127 128 128 128 128 129 128 129 131 130 131 129 129 131 130 131 131 130 129 127 127  91  83 116 126 129 131 123 118 104  56  46  54  84 162 174 184 189 192 191 178 169 156 142 132 129 132 132 132 130 126 127 123 122 120 118 119 115 115 113 113 113 116 117 118 121 124 125 125 124 123 123 126 126 125 126 129 127 120  88  48  26  17  16  18  26  46  90
 126 128 127 128 127 129 129 128 130 129 129 130 131 131 131 130 131 130 130 131 132 129 129 128 123  76  96 121 127 130 131 122 113  66  44  44  57 137 170 181 184 178 174 173 162 147 131 117 104 101 101 104 105 113 115 114 114 112 108 110 111 109 107 105 106 108 111 112 117 118 122 125 125 124 120 122 123 124 123 122 124 124 122 106  65  34  19  16  17  24  34  76
 127 128 128 129 128 129 129 130 131 129 130 130 131 130 130 130 131 129 130 129 132 131 129 128 124  57 110 120 128 131 130 120  86  42  41  46 105 166 177 182 176 172 168 160 144 121 105  95  82  76  80  83  81  86  97 102 103 103 103 106 106 105 103 101 103 103 104 108 112 114 118 122 122 122 120 120 120 121 121 122 122 121 123 115  76  43  21  16  16  22  30  65
 127 129 129 130 130 130 129 130 130 130 130 131 130 130 131 130 130 130 130 129 130 130 129 128 117  58 114 123 130 130 129 108  50  41  40  67 160 171 181 181 174 168 163 150 133 120 103  88  79  69  65  68  70  69  75  87  95  98 101 102 101 100 100  99  99 100 101 103 106 107 110 116 120 121 119 119 119 122 123 122 122 121 120 118  92  52  28  16  15  20  26  52
 127 128 129 130 130 129 130 131 129 131 130 130 131 130 131 132 133 130 131 131 131 128 129 128 104  71 117 125 128 130 123  76  42  39  45 139 175 180 180 172 164 160 154 143 125 111  96  90  84  79  73  68  67  67  67  74  81  90  95  97  96  98  99  97  95  98  97  98  98 100 104 106 113 117 118 118 118 120 122 122 120 120 120 115 100  63  36  19  16  19  25  44
 128 128 130 130 130 131 130 129 130 130 129 131 131 131 131 132 132 131 131 132 131 129 130 126  86  88 119 127 129 129 106  41  41  40  89 172 181 181 176 166 153 144 142 136 129 114 101  92  84  80  74  72  71  69  70  75  80  85  90  92  96  94  94  93  92  94  94  92  94  95  97 102 107 110 112 113 117 120 122 122 120 118 120 118 105  69  42  21  15  17  24  40
 128 129 130 131 129 131 131 130 130 130 130 130 131 132 132 132 133 132 132 132 131 130 130 124  68 105 121 127 131 130  74  44  40  47 155 180 181 176 162 149 137 138 138 137 130 119 105  95  88  82  73  71  71  76  76  76  80  84  88  91  92  94  93  90  91  89  90  90  91  92  93  95  98 104 108 110 113 120 121 122 120 116 120 120 112  82  50  25  16  15  22  32
 128 130 131 131 130 131 130 131 132 132 131 132 131 131 132 132 133 133 134 134 132 131 131 126  57 116 124 129 129 125  59  39  35 115 178 186 180 168 148 140 136 137 133 116 109 106 106 102  82  74  72  69  70  77  81  80  79  83  88  92  93  93  92  91  90  90  88  89  88  88  89  90  93  99 103 108 113 119 123 122 120 117 118 120 116  91  58  30  16  15  20  26
 130 131 131 131 130 131 131 131 132 132 132 131 132 132 133 133 133 135 130 131 131 130 129 118  58 119 125 127 129 115  43  38  61 171 184 185 173 154 140 126 101  69  50  42  42  41  45  66  79  70  68  69  68  75  81  82  84  86  89  91  93  91  88  88  87  88  85  86  86  85  86  87  89  93  98 104 108 117 120 120 121 120 118 116 118 100  64  35  18  15  19  25
 132 131 131 131 133 130 131 132 132 132 132 130 132 132 133 133 133 134 132 133 131 130 129 101  73 120 126 128 126 112  42  39 139 181 191 184 164 133 102  75  56  44  49  55  36  30  29  35  56  64  63  67  69  73  80  84  86  88  91  92  91  90  88  86  86  86  84  83  81  78  75  76  79  87  93 102 106 112 118 122 123 120 119 117 115 105  72  39  20  14  18  24
 133 133 132 132 134 132 134 132 134 134 134 133 135 134 133 134 132 134 132 130 131 131 128  87  93 120 127 127 126 107  48  87 179 192 195 185 168 143 120  96  84  78  57  60  33  29  27  27  32  50  60  64  70  73  78  83  89  92  92  92  89  87  88  87  85  85  82  77  72  67  64  62  63  68  76  86  98 111 116 121 123 123 119 116 114 106  76  45  24  15  17  22
 134 132 133 135 136 136 138 137 137 136 138 138 143 140 135 134 135 135 134 133 131 131 128  64 107 121 127 126 126  86  60 156 189 200 198 189 183 180 172 168 174 173 145  98  34  30  28  28  39  57  54  61  68  70  74  82  89  97  96  93  90  89  89  88  85  82  78  72  69  64  60  55  57  58  64  69  78  95 110 118 122 125 122 116 115 107  82  47  26  16  15  21
 138 138 136 138 138 140 141 141 140 138 141 145 154 147 138 135 135 136 134 134 131 130 126  60 119 124 126 124 118  59 100 185 196 203 200 195 191 187 175 166 160 155 150 133 102  64  38  37  62  70  52  57  66  70  74  84  95 105 105  99  92  88  87  86  85  82  77  73  69  67  61  56  55  54  54  59  67  78  92 106 116 121 123 120 114 107  83  50  28  16  15  19
 142 140 139 139 140 142 143 142 140 140 143 147 152 145 139 135 135 135 132 132 131 131 126  59 119 126 124 105  68  65 164 191 202 207 206 203 198 186 169 151 131 119 109 102  96  88  77  61  61  61  55  57  66  70  76  91 108 116 116 105  94  89  87  86  83  82  75  74  71  71  65  63  59  55  53  53  57  69  79  94 105 116 124 122 114 107  86  52  26  17  15  19
 145 146 143 139 141 144 144 143 143 143 144 147 149 146 139 136 135 135 134 134 132 130 113  73 121 124 105  55  55 108 184 196 205 210 210 206 198 182 169 147 116  98  90  85  83  78  71  65  64  57  49  51  68  68  80 108 131 135 127 110  97  89  86  83  81  78  74  73  72  68  65  64  64  63  61  61  56  61  74  88  95 106 122 123 113 107  84  53  28  16  14  18
 146 147 145 142 143 146 146 147 145 145 146 146 150 149 144 138 137 137 136 135 132 131  97  89 120 120 101  66  66 159 185 196 204 208 207 205 197 185 167 154 130  97  81  76  74  70  67  66  68  72  67  62  71  75  99 131 153 153 139 116  99  92  87  84  80  74  72  68  68  65  63  61  63  66  66  67  64  64  70  82  89  96 109 118 111 101  81  50  28  16  15  17
 147 150 147 145 145 144 146 147 148 146 145 149 152 151 147 141 138 136 135 135 133 130  83 101 122 121 108  85 108 180 188 195 200 203 203 202 196 184 170 159 142 129 101  81  71  66  65  64  62  66  69  72  76  87 123 159 172 166 147 122 103  93  86  82  78  71  66  64  64  63  62  62  64  69  72  71  70  72  72  79  85  88  96 112 108  99  76  49  27  16  14  15
 146 148 147 147 145 146 149 147 149 147 147 151 153 154 151 144 140 138 136 135 133 131  74 112 119 122 120 106 145 182 187 192 196 199 200 199 191 179 166 156 145 141 128 109  90  80  77  74  76  77  81  84  91 111 155 184 187 174 153 131 110  97  88  79  72  66  64  63  58  59  61  63  65  69  72  75  78  78  77  81  87  87  92 100 104  94  70  44  24  16  14  15
 146 147 148 148 146 145 146 147 150 149 147 149 153 153 153 146 141 138 137 136 136 131  62 123 119 126 122 105 169 183 188 189 192 193 195 190 182 176 165 158 150 142 135 127 119 105  96  92  92  94 102 109 125 152 182 194 188 174 158 140 119  99  85  76  69  64  60  59  55  53  47  48  60  71  83  75  75  81  79  81  88  87  88  92 101  90  66  42  22  15  14  14
 146 147 149 149 147 146 147 147 150 150 149 148 151 152 153 148 143 140 139 136 134 128  63 123 124 130 118 113 175 184 186 187 187 184 184 184 179 170 164 156 145 139 135 133 130 123 118 110 110 116 130 147 164 181 196 200 186 173 165 147 126 102  84  72  65  63  60  52  41  22  20  18  19  25  44  75  75  74  80  81  86  88  90  90  99  84  62  38  19  13  14  14
 146 147 148 148 148 147 146 148 148 149 148 148 150 151 153 148 146 142 140 137 136 124  71 122 126 129 115 130 178 185 187 186 183 178 178 181 178 172 164 153 145 140 137 133 133 130 126 125 133 149 168 180 188 198 208 198 179 171 169 152 129 104  84  73  68  65  45  35  42  24  22  18  18  18  29  33  59  74  74  79  82  88  94  93  97  82  58  34  18  13  14  14
 147 146 146 147 147 146 147 147 148 149 147 146 148 150 148 149 147 143 140 138 137 110  88 125 129 126 114 143 179 183 185 182 183 184 184 180 177 171 163 158 148 143 139 134 134 132 133 139 157 178 188 196 199 210 207 187 172 164 162 148 131 108  86  74  69  61  47  41  42  32  25  22  21  23  42  46  29  55  72  75  77  85  92  98  95  77  53  30  16  12  13  14
 146 145 145 146 145 147 147 147 146 147 146 146 145 147 147 147 145 142 140 138 138  96  98 127 129 123 115 151 180 183 184 182 183 183 183 182 175 171 164 157 154 143 139 130 126 125 132 155 174 188 195 199 203 206 192 182 170 166 157 143 130 114  89  78  71  63  60  58  54  51  50  40  30  33  58  53  34  30  55  70  76  82  90  97  95  71  46  25  14  12  12  12
 146 145 147 146 147 146 146 146 145 145 147 145 147 147 145 145 144 142 140 140 137  82 108 128 127 123 115 163 181 182 182 182 182 178 178 178 171 167 162 153 149 138 126 123 119 121 129 140 176 188 194 198 204 203 190 178 170 164 151 140 132 116  97  83  77  68  58  54  56  56  60  62  63  61  57  48  33  25  34  64  71  76  86  96  92  68  43  19  13  11  11  12
 146 147 147 146 146 146 146 146 146 147 146 146 146 146 144 145 144 144 142 139 137  78 120 128 126 125 127 172 179 181 180 177 174 173 177 174 167 159 152 144 137 127 120 116 112 116 119 133 165 188 197 201 203 197 181 170 167 158 145 137 132 118 100  88  84  79  69  57  52  53  62  66  72  81  88  85  63  36  30  48  68  75  84  93  89  64  38  18  12  12  11  12
 148 148 146 148 148 148 148 147 148 148 147 146 145 146 146 145 145 144 144 142 138  69 131 128 130 128 164 174 179 178 176 173 169 171 169 166 160 152 139 124 125 118 111 108 105 107 111 126 159 182 190 199 204 193 175 164 160 151 141 136 130 121 104  92  88  86  83  73  61  56  56  63  68  72  80  87  93  68  39  41  59  74  83  94  89  64  33  14  12  12  11  12
 151 150 148 149 150 149 149 149 149 148 148 147 147 149 147 146 146 144 146 143 136  72 133 130 132 147 170 175 176 176 172 169 170 166 163 157 146 140 127 120 113 108 105 103 101  98  98 117 163 179 189 201 214 193 171 163 156 146 141 133 126 118 107  95  90  92  92  84  76  67  65  60  64  66  71  78  87  90  72  53  54  68  86  95  87  60  26  12  11  11  10  11
 152 152 152 152 151 152 151 151 151 150 150 149 148 148 149 150 148 147 146 144 135  77 132 129 134 134 164 175 174 170 160 164 165 160 155 144 134 128 117 112 108 105 102 100  98  91  89 129 183 191 198 212 212 181 163 158 155 147 138 132 123 114 108  99  93  94  94  92  86  80  76  72  69  70  73  76  86  98 100  89  80  84  95 102  86  54  21  11  11  11  11  11
 155 153 154 153 154 153 153 153 152 153 151 151 151 151 152 150 151 148 147 146 114  94 134 130 133 121 170 175 173 167 160 159 154 149 140 133 123 115 109 104 103 102  97  93  92  86  96 188 199 196 191 196 186 158 149 147 148 142 134 127 121 105 106 100  93  97  96  95  96  94  90  86  86  87  88  91  98 109 119 121 119 111 113 108  85  49  18  12  11  11  11  11
 158 155 154 154 155 154 154 155 154 154 153 154 153 153 153 153 151 151 148 147 109 107 135 131 131 128 171 174 166 162 158 152 144 134 128 121 110 107 104 102 100  97  92  88  86  80 160 183 174 165 155 144 132 124 124 127 134 133 125 116 114 105 103  97  94  95  98 101 104 106 104 103 104 112 118 120 120 122 129 132 131 127 122 112  86  43  15  12  11  10  10  11
 158 157 155 156 155 155 155 156 155 155 155 154 154 153 154 153 152 152 149 148  96 124 137 131 138 147 174 172 163 159 154 146 135 122 117 113 107 104 100  96  94  92  89  85  81  98 162 154 143 131 119 109 105 105 104 109 118 124 125 120 110  97  93  92  95  97  99 102 108 114 114 119 121 125 129 134 136 133 135 136 135 131 124 114  83  39  16  11  11  11  10  11
 159 158 158 158 158 157 157 157 156 157 156 156 155 155 155 155 154 152 152 150  79 139 138 132 162 159 175 169 160 153 141 133 123 116 110 107 103  98  95  93  90  86  84  83  80  97 130 115  91  91  94  91  91  91  89  92 101 115 128 131 111  86  86  90  94  98  98 103 110 116 119 122 125 126 130 136 138 138 136 137 136 132 127 118  83  34  15  12  10  10  11  11
 161 160 159 160 159 158 159 157 158 158 158 157 155 156 155 154 154 152 152 151  74 144 139 127 106 159 170 163 155 148 134 125 121 113 107 102  98  94  92  89  87  84  82  84  80  82 105  84  40  25  71  86  84  84  83  81  87  98 119 133 115  74  80  86  90  96  99 104 112 116 120 124 124 125 127 130 134 138 139 137 136 132 129 120  80  28  15  11  10   9  11  11
 162 162 160 160 160 160 161 160 160 159 158 157 159 158 158 156 155 154 154 146  77 146 139 124  93 163 165 160 154 146 140 128 118 108 102  97  93  93  89  85  84  84  84  86  86  83  80  75  57  47  59  79  80  81  79  76  81  91 108 126 113  67  76  84  89  95 100 103 108 113 120 125 126 127 126 126 130 133 135 136 132 132 129 117  72  26  14  11  11  11  11  11
 162 162 162 163 162 162 162 162 162 162 160 160 159 160 160 157 158 156 155 136  91 146 138 118 109 166 165 158 156 149 140 128 117 108 102  94  92  91  88  85  86  87  92  98 112 120 114  72  68  69  70  75  78  77  70  58  52  83 100 113 107  69  75  83  88  93  98 102 107 111 117 121 126 126 127 128 127 128 132 132 129 129 125 114  65  23  13  11  11  11  11  10
 165 164 163 165 166 163 164 164 163 162 161 161 161 160 159 159 160 159 157 115 114 146 133 113 100 166 161 155 154 147 140 129 119 111  98  92  90  89  86  86  90 100 112 124 140 148 156 148  99  80  74  75  76  68  58  40  24  54  88  96  89  68  73  82  86  91  95 102 108 110 115 119 121 125 125 128 126 125 126 126 127 126 121 103  53  20  13  11  11  10  10  10
 167 166 166 166 164 165 165 165 165 163 162 163 162 162 162 161 158 158 156 100 127 143 123 101 100 164 158 154 153 146 140 130 121 106  93  91  89  88  85  91 107 119 135 144 155 160 162 157 129  90  77  77  72  69  63  53  46  63  79  84  73  68  74  81  85  90  93  98 104 108 112 115 117 120 122 125 127 123 119 123 124 123 116  97  38  19  12  11  10  10  10  11
 168 169 168 167 167 167 166 166 166 165 164 166 164 165 161 162 161 161 158  81 144 138 117  83  94 163 154 153 149 146 139 128 114  98  92  89  85  84  87 101 121 136 146 153 159 160 157 145 121  92  77  74  72  70  67  60  52  60  71  69  67  70  75  81  84  88  91  94  99 104 109 112 113 115 118 121 121 121 119 120 118 115 107  84  31  19  13  11  11  10  11  11
 168 169 169 169 168 168 167 168 167 166 166 166 165 165 163 162 162 162 159  77 153 134 108  71  90 159 153 149 147 143 134 124 108  95  88  84  78  79  84 102 123 134 141 148 150 152 148 121 108  86  75  70  74  75  74  70  63  59  65  74  72  74  78  81  84  87  90  93  97 101 104 109 111 112 113 114 115 120 114 116 113 108  99  61  28  17  12  11  10  11  11  11
 170 170 170 170 169 169 168 168 169 167 166 165 166 165 166 164 163 162 153  89 145 130  97  59  90 155 149 147 144 140 131 119 105  94  85  74  59  60  74  94 105 115 122 128 129 135 132 119 106  89  79  79  82  84  82  80  78  79  93  91  78  76  78  82  84  87  90  91  91  95 102 106 108 108 110 113 114 115 112 109 105 102  89  44  24  14  11  11  10  10  10  11
 170 171 170 170 169 169 170 169 168 168 168 167 167 166 166 164 164 162 136  95 140 124  71  55  70 151 147 144 140 137 128 116 100  92  81  68  54  48  43  49  63  72  76  76  79  82  85  90  99 103 107 101  90  86  86  86  88  97 104  99  87  78  79  81  84  87  86  88  88  91  97  99 102 104 107 111 111 109 108 104  99  94  75  33  18  12  12  10  10  10  11  11
 171 173 173 171 172 171 170 169 169 169 168 168 168 167 167 166 164 163 116 122 132 103  53  40  51 149 146 142 139 134 124 112  99  89  83  74  63  61  63  56  49  45  51  60  65  65  64  66  75  84  85  87  84  84  85  89  96 105 105 101  91  79  78  80  83  85  86  88  89  89  92  94  97  99 104 108 108 104 104 100  96  85  58  25  14  11   9   9  10  10  10  11
 174 173 174 173 173 172 171 170 168 168 168 168 168 167 167 166 164 160 101 132 137  84  47  33  37 138 142 141 138 130 120 108  97  88  84  82  77  78  96 113 116 109  86  49  47  56  61  63  68  67  60  60  67  75  84  94 102 109 107 100  90  80  77  78  80  83  86  86  87  89  90  91  91  94  95 101 101  97  97  95  89  73  38  17  12  10  10   9  10  11  10  11
 176 175 175 175 175 175 173 172 170 169 169 169 169 168 168 166 166 159  78 137 130  58  34  30  33 118 139 137 131 125 116 103  94  89  88  94 100 106 124 134 135 140 156 140  81  43  44  56  62  61  56  55  54  58  71  88 100 105 102  98  89  80  76  78  80  82  84  84  85  87  87  87  89  91  87  72  92  92  92  89  81  58  23  12  11  10   9  10  10  10  10  11
 177 177 177 176 176 175 175 174 170 170 170 170 170 168 168 167 166 157  69 137  98  43  32  30  34  93 135 132 127 123 113 102  94  90  96 114 123 128 134 135 130 132 135 137 129 112  71  45  52  52  54  54  55  54  58  67  85  95  96  92  85  77  73  75  79  80  80  81  83  84  85  84  85  85  83  75  87  89  88  85  74  40  14  12  10   9  10  10  10  10  10  12
 180 178 179 178 177 178 176 173 172 173 171 171 170 169 169 167 166 134  95 131  51  38  32  31  34  65 131 130 126 122 112 101  97  96 105 124 133 134 134 129 123 118 115 113 114 109 108  92  67  51  46  42  47  49  51  54  60  77  86  84  80  73  72  72  75  79  76  80  80  83  84  81  83  85  83  83  85  86  85  81  63  24  12  11   9   9  10  10  10  11  10  12
 180 179 178 177 176 176 176 175 172 171 171 170 170 170 168 167 163 114 107  71  42  34  31  29  30  37 126 127 126 122 115 107 106 107 120 129 132 133 128 123 114 108 101  96  92  92  92  92  87  78  73  66  55  46  41  42  44  53  65  74  72  69  69  68  74  77  78  80  82  80  81  81  83  82  80  81  83  82  82  75  42  15  11  10   9  10  10  10  10  10  10  11
 178 177 177 176 176 176 176 175 173 171 171 171 170 170 169 167 160 100  92  46  38  28  28  25  26  26 102 126 124 122 119 113 116 122 127 131 130 128 125 121 109 100  92  85  82  80  78  80  77  77  79  79  79  78  70  57  47  44  44  51  62  62  63  67  70  72  76  78  80  80  80  81  82  79  78  80  80  82  80  68  24  12  10  10  10   9  10   9  10  11  10  12
 177 177 177 176 175 174 174 175 174 169 171 171 169 169 169 167 155  77  62  44  32  27  28  22  23  26  65 124 126 124 124 123 127 131 136 128 124 123 122 118 107  96  90  85  80  77  75  73  73  72  76  78  84  88  86  78  71  58  47  34  32  37  51  62  69  71  75  77  80  80  82  80  79  79  79  80  81  82  78  40  13  10   9   9   9  10   9   9  10  10  10  12
 179 176 178 177 176 173 176 173 172 170 168 170 168 168 163 156 122  60  56  41  27  26  22  19  23  20  31 118 126 127 130 132 137 139 137 128 122 121 120 115 109  97  86  81  79  74  71  70  70  71  70  70  72  75  78  76  73  66  59  53  48  42  46  59  67  73  76  78  81  85  85  82  79  80  80  80  83  85  70  20  11  10  10   8   9   9   9   9  10  11  10  12
 177 177 178 177 175 175 172 171 171 172 168 162 159 157 151 132  77  64  54  28  25  23  19  18  21  18  18  86 122 127 132 135 139 143 143 136 129 127 122 117 109  98  87  80  78  75  74  74  70  68  70  67  66  67  69  70  71  72  71  71  64  57  55  61  67  76  82  80  83  84  85  82  80  80  80  82  83  83  44  13  10   9   9   9   9  10   8   9   9  10  10  12
 177 177 178 178 177 175 172 171 168 169 168 166 158 142 122  91  59  48  32  26  25  20  16  17  17  15  18  44 113 124 131 138 142 145 145 142 137 133 127 122 113 105  92  83  78  75  74  73  73  71  71  70  67  68  71  71  73  76  76  75  72  70  69  67  72  81  85  82  84  84  82  82  82  82  85  85  82  72  34  11  10   9   8   8   9   8   9   9  10   9  11  12
 176 175 175 176 175 173 170 168 166 163 160 155 149 139 126  99  54  38  28  23  20  15  14  17  16  14  16  22  80 118 132 140 144 146 145 144 141 137 134 129 126 118 103  95  84  76  73  72  73  73  73  72  72  72  73  74  74  77  78  80  78  75  73  74  79  85  86  85  85  84  82  81  83  84  85  83  77  41  27  10  10   9  10  10   9   9   8   9   9   9  10  12
 177 176 174 175 172 169 171 170 169 169 167 160 151 136 113  71  37  31  25  21  17  15  14  16  16  13  15  18  32 106 126 138 143 143 143 142 140 137 134 136 134 127 122 114 101  83  77  73  74  72  74  75  73  74  74  76  76  79  79  83  79  76  74  77  83  87  88  86  84  82  80  82  83  84  84  80  62  29  17  10   8   7   9   9   9   9   9   9   9   9  10  11
 177 177 176 177 175 175 173 170 168 166 163 158 145 124  92  52  34  25  24  22  16  15  15  15  14  13  17  17  16  65 115 131 137 137 138 138 136 134 137 138 137 136 130 124 111  95  83  78  78  74  75  76  75  76  76  78  78  80  82  82  81  76  77  81  85  86  85  85  82  81  79  80  80  82  80  72  38  23  10   9   8   8   9   9   9   9   8   9   9   9  11  12
 182 178 176 172 173 175 173 172 170 164 158 146 134 109  73  41  29  26  28  22  16  14  15  12  13  13  21  17  14  20  93 121 132 133 137 135 130 134 136 138 137 132 124 119 108  93  84  80  80  79  78  77  75  77  80  81  80  81  81  82  81  80  81  84  85  83  82  82  78  79  78  79  78  75  71  44  14  11   9   8   9   9   9   8   9   9   9   9   9  10  11  11
 176 177 175 174 172 170 169 165 163 153 136 123  99  74  47  34  39  47  31  19  15  15  15  13  13  12  21  18  13  16  42 107 120 127 129 129 127 129 127 128 126 116 108 104  95  90  84  83  84  84  81  80  78  83  83  82  80  79  80  83  83  83  83  83  82  81  79  79  79  78  78  76  72  68  48  18  11  10   8   8   9   8   9   8   8   8   9   8   9   9  10  11
 173 172 173 170 167 162 157 151 141 135 136 115  94  54  48  48  67  46  21  17  14  16  14  12  12  15  24  19  12  14  30  70 107 117 120 120 118 120 119 116 109 100  92  90  87  85  83  85  85  84  84  86  87  87  84  84  84  82  82  83  83  82  82  82  80  76  77  76  75  75  75  73  69  54  23  12  10   8   9   8   8   8   9  10   8   8   9   9  10   9  11  12
 165 162 164 153 150 146 150 149 148 143 115  91  92  95  97  58  51  24  18  15  15  16  12  11  12  17  27  19  13  14  28  44  84  98 105 107 107 106 105 100  95  89  86  85  85  85  83  85  85  86  86  88  91  89  87  83  82  82  82  83  82  81  81  80  76  75  75  76  75  74  72  67  56  24  12  10  10   9   8   9   8   9   8   9   9   9   8   9   9  10  11  12
 174 174 172 171 172 169 162 151 139 123 129 136 137 137  90  43  26  21  18  15  14  14  11  11  11  22  27  16  12  15  27  41  61  81  92  94  97  96  95  89  85  85  82  83  82  79  79  80  81  85  86  89  90  89  87  82  81  82  82  82  80  80  79  77  74  75  75  73  71  68  63  54  24  11  10  10  10   8   8   9   8   8   9   9   9   9   9   9   9  10  11  13
 173 175 175 176 173 170 166 163 155 151 145 137 135 107  43  28  23  22  16  15  16  12  12  10  12  24  28  15  10  15  25  37  54  68  78  84  88  87  88  84  81  81  82  81  81  81  82  82  84  84  86  90  90  87  85  83  84  83  83  82  81  77  76  76  74  74  72  70  67  62  50  22  10   9  10  10  11  10   9   9   9   8   9   9   8   9  10  10  10  11  10  13
 176 176 174 176 172 170 168 167 165 164 157 146 108  47  30  24  21  18  16  15  15  11  11  10  11  20  25  13  11  13  23  34  49  64  68  73  79  81  82  82  81  81  79  80  79  79  80  82  81  84  86  86  87  86  86  83  83  82  79  79  75  75  75  74  73  70  67  66  57  44  22  10   9   9  10  10  12  11   9   9   9   8  10   8   8   8  10  10  10  11  11  16
 177 174 175 175 172 167 160 157 159 148 128  82  39  30  25  23  18  17  17  17  14  11  11  10  10  17  23  13  10  12  21  30  44  62  71  64  67  73  76  76  78  78  76  76  77  78  78  81  81  81  82  84  85  84  83  83  81  80  78  77  75  75  73  72  71  66  65  55  38  16  11   9   9  10   8  10  11  12   9   8   8   8  10  10   8   8   9   9  10  11  12  18
 176 174 173 172 170 168 164 164 140 105  60  38  31  26  24  20  18  17  17  16  13  11  10  10  11  16  18  13  10  11  18  27  38  55  69  74  64  60  67  69  71  73  73  74  74  75  75  76  78  81  80  81  80  81  80  81  78  75  74  74  73  73  70  68  66  59  50  28  14  10  10   9   9   9   9  10  10  11  10   9  10  11  11  10   9   9   9  10  11  11  13  25
 173 174 173 171 167 155 141 120  93  61  40  37  32  24  21  21  17  18  17  14  11  11  10  10  10  15  15  13  10  12  16  24  31  46  63  75  71  62  56  60  62  66  68  68  70  74  73  75  77  76  77  78  78  78  76  76  73  72  71  68  68  66  65  62  55  42  18   9  10  10  11   8   8   8   8  10  10  11  12  10  12  16  12   9   9   9  10  10  11  11  17  27
 153 168 169 157 150 138 123 102  65  56  55  37  26  25  19  20  19  18  15  13  12  11  10  10  10  15  15  15  11  11  13  21  27  38  54  70  73  69  57  52  53  57  60  62  66  66  71  72  73  74  74  72  72  71  72  70  69  69  65  62  61  57  54  49  27  13   9   8  10  10  11   9   9   9   9  10  10  10  12  11  19  20  14  10   9  10  10  10  10  12  22  21
 148 114 122 134 129 116  86  68  56  44  30  33  35  24  20  18  19  17  13  12  13  12  10   9  11  14  13  15  11  10  12  17  23  30  44  61  68  70  61  54  50  51  52  55  57  60  63  64  67  68  67  66  66  62  64  63  62  60  58  56  53  49  35  18  10   9   9   8   9  10  10   9   8   7   8   9   9  10  12  14  24  25  19  11  10  10  10  10  11  13  23  22
 154 158 136 133 105  88  76  48  46  51  53  43  28  22  20  20  19  16  13  11  12  11   9   8  10  13  13  16  11  11  12  15  18  23  35  47  57  65  61  54  50  50  51  50  50  48  52  54  54  55  54  56  54  53  54  54  52  49  47  39  29  17  12  10   9   8   8   8   9   9  10   9   8   8   8   9   9  10  12  18  25  20  14  11  11  10  10  10  10  20  22  41
 146 134 130 114 105  92  76  79  85  69  45  31  25  23  27  23  20  14  12  12  12   9   8   8  10  12  12  14  10  11  15  13  16  20  28  35  46  53  56  54  50  48  50  50  49  48  46  44  43  42  41  42  40  40  37  37  32  25  18  13  11  10   9   7   8   7   7   9   9   9   9  10   8   6   8   9  10   9  12  16  22  15  13  12  10  11  10  10  12  19  23  99
 138 131 113 106  91  92  87  81  64  48  29  30  38  29  27  24  20  14  12  12  10  10  10   8  10  12  11  12  10  10  14  17  16  16  23  29  38  42  45  46  43  43  45  45  47  46  45  44  42  39  38  35  32  28  23  19  12  11  10  10   9   8   8   7   6   6   7   9   8   8  10  10   7   6   8   8   9  10  12  14  15  12  12  11  10  11  10  11  12  16  25  62
 137 137 138 122 116 109  93  64  46  50  51  48  47  28  24  23  17  12  11  10  10  10   9  10  10  11  12  10  10  10  10  13  18  17  18  25  30  33  33  34  33  33  34  36  39  42  40  37  35  33  30  28  24  20  15  12  10  10   9   9   8   9   8   7   6   7   7   9  10   8  10  10   8   6   7   8   9  10  10  12  12  11  11  11  10   9  10  11  11  15  15  16
 128 102  92  89  91  74  62  63  71  53  34  29  31  26  25  22  14  12  11  11  11  10  10   8  10  10  12  10   9  10   9   9  12  15  20  23  25  25  25  26  26  26  27  28  28  27  29  28  26  24  21  19  14  12  10  10  10   9   8   9   8   8   7   8   8   7   8   9   8   8   9  10   8   8   7   8  10   9  11  11  12  11  11  11   9  10  12  12  12  15  12  11
 167 158 144 132 110 109 110  81  52  30  28  26  27  25  24  18  14  12  11  12  11  10  10   9  10   9  10   9   9  10  10   8   9   9  10  14  18  22  21  20  20  19  20  20  20  20  20  18  17  15  13  12   9  10   9   8   8   8   8   9   7   8   8   7   7   7   7   7   9   7   9  10   7   7   8   8   9  10  10  11  11  11  11  10  10  11  12  12  13  13  12  12
 171 165 162 164 157 102  48  32  27  26  26  26  25  23  24  16  13  11  11  12  11  10   9   9   9  10  10  10  10   9  10   8  10   9   9   9  10  12  13  13  14  14  13  13  13  13  12  12  12  10   9   9   9   9   9   7   8   8   7   7   8   8   8   8   8   8   8   7   8   7   9   9   7   6   8   9  10  10  11  11  12  10  12  11  11  12  12  13  13  12  12  15
 110  81  75  63  34  30  29  25  25  26  24  24  24  23  20  14  12  11  11  10  10  10  10   9  10  10  10   9   8   9   9   8   9   7   9   8   9   9  10  10  10   9   9   9   9   9  10   9   8   9   9   8   8   9   9   8   8   8   8   8   9   9   7   8   8   8   8   8   7   8   9   9   7   6   8   9   9  11  10  10  10  11  12  10  12  12  13  13  12  10  11  14
  31  30  27  26  26  25  24  25  26  22  21  25  24  24  18  12  11  10  10   9   9  10  10   9  10  10  10  10   9   8   9   9   9   8   9   9   9   9  10   9   9   8   8   9   8   8  10   9   9   8   9   8   8   8   8   8   8   7   8   7   8   7   6   7   7   6   8   7   7   8   9   9   8   7   7   8  10  11  11  10  10  13  12  12  15  15  13  14  11  11  12  16
  27  24  24  24  22  24  26  24  20  20  23  23  23  23  15  12  11   8  10   9   9  10   9   9  10  10  10   8  10   8   8   8   8   8   8   8   8   9   8   8   8   8   9  10   9   9   9   9   8   8   7   8   8   8   7   8   8   7   7   8   7   7   6   8   8   7   8   6   6   9   8   9   7   6   8   9   9  11  11  12  11  15  14  16  16  16  14  12   9  10  12  13
  27  24  25  24  24  24  22  19  20  21  21  20  23  20  14  13  10   9   9  10  10  11   9   7   9   9  10   9   9   8   8   8   9   8   8   9   9   9   9   8   8   8   8   8   8   8   8   8   9   7   8   7   7   8   9   8   7   7   7   7   8   6   6   7   6   9   7   5   7   9   8   9   7   6   8   8  10  10  11  12  12  14  22  25  16  16  13  11   9   9  11  12
