P2
# Generated by OpenCV 3.4.0
92 112
255
 133 133 137 137 136 136 137 139 138 136 138 139 138 138 138 139 138 140 139 139 139 139 138 139 140 139 138 138 140 139 138 137 136 141 141 141 139 140 140 140 139 138 134 133 131 133 133 136 136 134 136 139 139 140 138 139 137 139 141 139 140 140 140 140 140 140 139 139 140 140 141 139 138 138 138 139 138 139 138 138 138 138 138 137 134 136 135 136 136 137 137 137
 134 136 136 137 136 137 137 136 137 138 138 137 138 138 140 141 139 138 138 141 138 140 141 139 142 142 142 141 140 141 141 136 139 139 139 139 135 134 131 129 127 116 112 109  98  97 100 104 114 124 132 134 134 138 138 138 138 137 138 139 140 138 138 139 139 140 139 138 138 141 140 140 138 140 139 140 139 139 138 139 139 139 139 138 138 137 137 138 138 136 136 136
 135 137 135 136 137 138 138 137 138 139 139 138 138 139 141 139 140 139 141 141 142 141 141 141 141 140 142 141 140 140 140 139 141 136 131 127 131 129 121  99  87  68  54  55  53  54  48  50  54  58  76  87 110 129 136 136 138 137 137 139 141 140 141 142 142 139 139 139 140 140 140 140 138 140 141 140 140 140 139 141 139 140 138 138 137 138 137 138 138 136 136 136
 135 137 138 137 136 136 138 140 139 139 138 139 140 137 139 141 141 140 141 141 138 141 139 141 141 141 142 139 138 139 139 137 126 129 130 122 105  87  68  63  56  56  52  46  45  48  42  43  46  44  50  59  62  75 102 123 134 135 134 135 138 142 142 141 140 141 141 142 141 142 139 139 141 141 141 142 141 140 139 140 141 140 139 139 140 139 140 140 138 138 137 136
 136 138 137 138 137 136 138 138 140 140 139 139 139 137 135 139 140 142 143 140 141 141 141 142 143 142 141 137 140 136 131 130 131 118  95  77  68  63  58  61  59  54  49  44  44  39  35  36  34  36  38  45  55  74  76  64  77 115 136 135 137 137 141 142 141 143 143 143 142 142 142 142 142 142 140 143 142 141 140 139 141 139 138 139 140 138 139 138 138 137 137 137
 135 137 138 138 138 140 137 140 142 141 140 140 138 141 140 140 139 140 143 142 143 141 141 142 142 140 137 136 134 130 122 111  93  73  66  66  64  62  55  54  45  45  44  40  36  34  32  30  29  30  31  34  41  51  73  90  82  67  83 124 136 136 140 140 142 141 142 142 142 142 141 141 142 141 141 141 142 142 142 140 140 140 140 139 139 140 139 139 140 138 138 138
 137 137 136 139 140 139 138 139 138 140 140 139 140 140 141 141 142 139 139 141 142 141 141 141 140 137 134 129 126 109  78  66  68  70  68  60  57  56  46  43  38  36  33  30  30  28  27  27  27  28  28  29  32  37  46  56  81 102  63  71 114 135 140 140 142 143 143 142 143 144 142 143 142 142 141 143 141 142 141 140 141 141 141 141 139 140 141 139 139 140 139 138
 136 136 139 137 138 139 140 139 138 140 139 141 141 141 141 141 142 142 142 140 141 140 141 141 135 130 125 116  89  68  61  66  68  69  59  53  49  41  42  34  35  31  28  28  29  29  29  30  28  28  26  25  25  28  34  41  49  71 106  68  62 115 136 141 142 142 141 142 142 142 143 143 143 142 142 141 143 141 143 141 141 141 141 141 141 139 138 141 140 139 138 137
 138 140 139 138 138 139 140 140 142 140 141 142 142 142 142 142 141 142 142 142 140 140 138 129 127 119 118  68  60  61  60  68  62  53  47  42  37  34  31  35  34  30  27  27  31  32  30  27  25  25  25  26  25  25  28  31  36  49  68 102  69  79 118 136 141 141 143 141 141 143 142 142 143 143 143 142 142 142 142 140 142 140 141 142 141 141 141 141 140 139 138 137
 137 139 137 138 139 139 141 141 142 141 142 141 142 142 143 141 141 141 143 141 141 133 129 121 116 123  81  60  53  56  66  63  53  43  41  40  37  39  40  31  31  31  31  30  28  27  26  26  26  24  25  26  24  24  24  27  32  36  50  76  90  73  86 122 136 140 141 142 141 142 143 141 144 143 144 143 142 142 142 141 142 140 141 141 141 141 142 140 139 139 138 138
 102 121 134 136 137 139 138 138 139 140 141 142 142 141 142 142 142 143 143 143 141 132 117 113 120  95  59  52  52  55  54  53  45  45  48  44  44  43  43  39  35  33  29  26  28  26  27  28  24  23  25  27  24  24  24  24  27  27  34  49  73  84 101  97 133 142 142 141 142 143 143 144 142 143 142 144 142 142 141 142 142 142 144 142 142 142 142 140 140 139 139 139
  99  80  70  66  66  72  85 100 111 128 138 141 140 142 142 141 141 142 142 141 134 123 108 107 106  72  52  45  49  56  51  44  44  40  48  47  45  40  37  35  33  31  31  30  30  29  28  26  24  24  24  28  22  24  25  23  23  26  28  32  47  72 107  97 119 136 140 142 142 142 142 143 143 144 144 143 143 144 141 142 142 143 142 141 142 140 142 140 141 141 140 139
 136 138 136 139 138 133 120 105  94  84  73  71  81  94 111 129 137 140 141 137 128 122 106 102  96  55  42  37  46  44  42  42  42  39  32  31  38  40  39  39  38  37  39  41  38  32  28  28  27  25  24  30  27  25  24  25  22  24  25  28  33  49  75 107 109 133 142 143 140 142 142 143 145 144 143 143 143 142 142 142 142 143 142 141 142 141 141 142 141 141 140 140
 138 138 137 138 140 140 138 138 138 138 139 138 128 114 101  86  74  81  99 119 122 112  99  89  65  49  36  38  38  38  38  43  37  33  32  36  44  47  48  50  53  56  61  61  53  45  45  40  38  34  31  31  27  25  26  25  24  24  24  25  26  36  50  63  99 126 140 142 143 142 143 142 143 142 143 143 143 143 143 143 143 142 142 142 142 142 141 142 142 139 140 141
 139 139 140 140 142 141 140 141 141 141 138 140 139 139 138 136 138 129 109  86  82  92  93  72  79  58  41  36  38  39  38  34  36  42  49  60  67  73  77  79  81  83  85  81  72  65  62  56  53  49  47  39  34  28  25  27  26  26  25  24  23  26  42  52  71 112 137 142 143 143 143 143 144 142 143 144 141 142 143 144 143 141 141 142 140 141 142 141 141 141 139 139
 138 138 140 140 140 141 141 140 141 142 142 142 142 141 141 141 142 138 137 127 118  94  69  61  63  61  48  48  48  39  39  47  69  82  88  94 105 103 105 104 104 102 100  94  88  79  79  77  72  69  68  62  56  50  38  29  27  26  27  26  24  23  27  42  57  81 122 138 142 143 142 144 144 143 142 143 142 143 141 141 141 142 143 141 141 141 141 142 140 140 140 139
 139 138 140 139 139 138 141 142 141 142 141 142 141 140 140 141 140 137 136 129 122  92  77  68  57  45  45  46  48  49  62  96 121 128 128 127 126 124 122 121 118 115 114 113 110 101  96  94  93  94  91  83  76  70  63  55  40  31  27  27  27  24  25  30  47  57  75 117 137 140 140 142 142 142 140 141 139 139 139 138 140 140 140 138 139 137 138 138 136 135 135 134
 139 139 139 140 138 137 140 140 140 141 140 140 140 139 140 135 137 135 130 123  92  82  88  73  52  48  46  56  87 106 120 130 144 148 147 146 142 143 141 143 140 136 133 130 129 128 117 114 114 117 123 124 116 100  84  79  73  61  37  27  26  27  24  26  33  46  60  88 121 133 134 134 131 131 127 125 122 121 116 114 114 110 106 100 102 100  96  93  94  90  86  84
 137 138 139 137 131 137 135 135 137 137 138 138 138 136 137 134 133 129 126  94  94  78  75  59  52  50  71 135 157 161 168 177 182 181 177 170 167 167 163 159 156 151 149 145 141 139 134 134 129 127 132 138 139 139 130 113  95  81  67  42  31  25  25  25  27  36  45  63  77  82  87  90  91  93  94  96  98  96 100 103 105 105 107 108 111 109 109 116 117 118 118 119
 134 133 133 130 116 130 131 129 128 125 128 126 125 124 124 120 115 110  95  90  77  60  60  57  60 100 145 171 188 198 211 217 212 203 198 191 184 184 172 166 162 158 151 149 148 145 144 142 140 136 138 139 145 150 152 147 136 120  94  78  49  32  25  24  24  27  36  49  62  83 115 126 126 128 130 128 128 132 131 131 132 130 132 132 134 134 136 135 135 136 136 135
  92  92  90  95  89  95  84  91  94  92  92  97  98 101 100  99 100  91  86  82  62  62  58  62 128 152 174 194 211 222 229 226 217 202 194 194 190 183 172 165 164 160 152 151 148 147 147 145 145 144 143 142 147 152 156 158 160 150 135 106  79  55  37  25  24  22  29  37  50  57  96 134 138 142 141 142 141 142 141 140 141 140 141 141 141 139 142 139 139 139 140 138
 125 125 128 127 126 130 133 132 132 134 135 136 137 137 135 130 126  92  96  77  68  70  63 126 169 185 200 212 222 229 228 223 210 200 197 190 181 173 166 163 161 155 153 153 151 148 145 142 140 140 141 141 144 151 156 159 161 163 158 138 106  72  54  38  26  23  22  30  38  50  58 102 135 142 143 142 141 141 141 141 142 141 142 141 142 143 140 140 141 140 140 140
 140 140 143 141 142 142 142 141 140 142 145 144 144 144 139 136 121  97  95  69  76  72 116 168 190 200 212 218 222 227 219 214 205 197 189 181 171 166 163 160 157 151 149 144 143 141 140 139 138 136 136 136 136 140 149 157 159 160 162 157 139 107  71  56  37  26  23  24  30  42  52  63 107 140 142 144 142 141 142 142 142 143 143 141 141 142 142 140 140 141 140 140
 142 143 142 140 142 143 143 145 143 144 145 145 144 145 140 136  98  99  85  75  75 101 171 192 202 204 208 212 211 209 206 204 195 185 176 170 166 170 161 153 150 147 142 138 138 137 130 123 132 132 130 133 134 138 142 149 153 155 157 159 155 138  96  70  56  36  25  24  26  32  45  53  69 128 140 143 144 143 143 143 141 143 143 141 142 142 140 140 139 141 140 139
 142 141 143 144 145 144 144 145 145 145 146 147 148 146 138 125  85 104  78  80  87 162 188 199 199 200 199 198 195 190 193 187 183 174 167 162 163 159 102 134 140 141 138 134 133 131 130 130 130 129 127 128 130 133 139 144 150 148 150 152 155 149 135  94  68  54  32  25  24  28  38  46  52  82 135 142 143 143 143 143 143 143 143 143 144 142 143 142 140 142 140 140
 144 145 144 144 145 146 146 145 145 146 146 146 146 143 135 101  95  93  73  76 154 181 194 197 195 193 190 188 183 181 180 177 173 170 163 160 155 135 116 129 132 134 131 130 127 126 123 126 127 127 126 127 129 133 137 139 147 150 150 150 150 149 147 123  88  66  47  29  24  26  32  40  47  51 107 138 142 142 143 143 145 143 144 143 143 143 142 143 141 141 140 140
 143 145 145 147 145 146 146 147 146 148 147 146 145 141 134  87 100  81  65 111 177 192 194 192 187 186 183 180 179 173 171 168 167 163 157 154 148 143 135 132 131 129 125 122 122 124 121 125 127 125 126 126 127 130 135 139 142 148 150 149 152 152 150 143 122  90  64  40  26  25  28  34  43  49  56 129 142 143 144 144 144 143 143 142 143 141 143 143 142 140 139 140
 143 146 147 144 145 145 146 147 148 148 148 146 144 142 128  76  83  76  71 155 183 192 187 185 184 181 178 177 172 168 166 164 164 160 157 151 147 145 138 136 132 130 123 121 123 123 124 125 125 125 126 126 127 129 133 138 141 146 148 147 150 152 150 148 141 119  87  55  33  24  25  32  40  44  46  87 138 143 143 143 145 143 143 143 143 143 143 141 143 141 139 141
 145 147 146 146 146 148 149 148 148 148 146 144 146 138 109  80  68  67 100 173 183 190 188 184 182 178 174 172 167 166 164 162 160 157 156 150 147 144 139 134 131 127 123 124 123 124 125 125 126 126 127 128 129 131 134 137 141 144 147 148 147 146 149 150 148 140 115  76  45  29  24  27  32  40  47  49 128 141 144 143 143 144 145 141 143 142 143 142 141 143 141 141
 146 147 145 147 146 148 148 149 148 146 148 146 143 134  96  74  66  79 137 170 188 188 186 183 179 178 175 172 167 167 163 165 159 158 152 149 142 138 138 134 129 126 122 124 122 124 125 125 126 126 124 126 127 130 133 136 141 144 146 148 147 145 146 148 151 148 137 104  68  40  28  26  30  35  42  48  84 139 143 144 144 144 143 143 143 144 143 144 142 142 142 141
 147 146 148 148 148 148 149 146 147 148 148 149 143 128  95  68  67 100 158 178 185 182 183 181 177 176 174 170 168 166 163 160 157 152 145 143 137 134 130 127 124 123 121 120 123 123 123 123 126 124 125 124 125 127 130 134 138 142 143 148 146 148 148 148 148 149 144 131  93  55  35  27  28  32  38  42  49 130 142 145 144 145 143 144 144 142 143 143 143 142 141 142
 148 148 148 149 147 149 148 148 149 150 148 147 139 117  85  62  77 127 166 177 180 180 179 178 181 176 173 166 164 161 158 154 145 142 139 133 128 128 126 123 120 117 115 115 117 118 118 118 118 118 123 121 121 123 124 127 132 139 141 144 146 146 147 147 149 149 147 143 119  80  45  30  27  30  36  38  45  90 141 144 144 145 144 143 143 143 144 142 143 142 142 142
 149 148 148 150 150 149 148 151 150 149 148 149 138 110  65  58  88 146 169 174 179 181 180 179 180 178 173 167 163 161 152 143 138 134 130 125 123 122 120 117 116 112 112 114 113 114 112 111 112 114 115 117 117 120 120 122 126 134 138 142 143 148 150 146 147 148 147 145 137 103  65  36  27  27  33  38  42  54 135 143 146 146 144 144 145 144 143 143 142 142 141 140
 147 149 149 149 150 150 150 151 150 150 151 147 136 104  58  61  98 159 172 175 178 180 180 180 180 174 169 167 162 153 142 133 131 128 123 120 116 117 115 112 110 111 110 109 109 111 110 110 110 110 111 112 112 115 115 116 120 127 132 139 144 148 151 149 148 148 148 145 143 125  86  45  31  27  30  36  39  42 104 140 144 145 145 144 144 143 144 144 142 143 142 141
 147 148 150 148 150 151 151 152 150 150 148 144 135  88  56  66 114 165 173 175 179 180 181 183 181 179 171 159 149 138 132 125 121 120 116 116 111 113 113 111 109 110 109 108 108 108 109 108 106 108 108 107 107 112 111 112 114 118 126 133 140 147 152 156 152 149 148 148 145 135 103  60  35  26  27  34  37  40  66 137 142 144 145 145 144 143 144 143 143 143 142 142
 151 150 149 150 148 151 152 152 150 149 148 143 127  80  51  61 127 166 174 179 180 180 182 183 182 176 166 153 143 132 127 121 117 112 110 110 109 110 110 110 109 109 107 107 107 109 106 104 105 104 106 104 103 106 108 109 111 115 121 128 135 140 145 151 154 152 152 150 146 140 118  73  40  26  24  29  34  37  42 123 141 145 145 144 144 144 143 144 144 143 142 142
 152 151 151 152 150 152 152 151 151 151 147 144 117  72  48  62 133 166 176 181 182 180 179 177 176 163 154 141 132 126 123 117 112 108 109 109 109 109 108 107 109 110 108 107 107 107 106 106 103 104 101 101  99  96  98 100  98 100 107 115 121 128 131 142 151 154 152 150 147 144 127  87  45  27  23  25  32  33  39  93 139 144 144 143 143 143 145 145 144 143 143 142
 150 150 151 152 152 151 151 151 151 151 147 142 107  68  48  67 140 167 176 183 184 180 173 169 158 141 131 121 113 105 103 105 103 104 105 105 106 106 106 107 106 108 107 106 105 106 105 103 102 100  98  92  87  85  81  81  82  81  84  89  99 105 114 122 136 144 150 150 149 146 133  99  52  31  22  23  29  33  36  58 137 144 143 144 145 145 143 144 144 143 142 142
 152 152 152 152 151 151 151 151 151 152 152 141 108  58  50  69 149 168 178 183 184 173 162 155 137 116 103  95  90  86  84  81  85  86  92  98 100 103 104 108 108 108 108 106 105 104 103 100 100  96  88  78  75  70  71  70  71  71  74  78  81  92 101 111 118 128 139 145 147 147 139 109  63  35  24  24  26  31  36  38 121 142 143 145 145 144 143 144 143 142 143 142
 152 151 152 152 152 151 153 152 151 152 152 139 102  51  49  71 154 171 180 182 176 160 150 139 122 104  91  81  79  74  76  75  74  80  85  90  98 100 103 106 109 108 108 105 104 104 102 100  95  88  78  73  70  67  66  65  65  64  63  66  72  81  91 102 113 119 125 134 143 148 143 119  72  38  24  21  25  28  34  36  83 138 143 145 144 145 143 144 143 144 144 143
 153 151 152 152 152 152 153 152 153 153 151 135  95  50  45  72 159 175 181 173 159 149 138 130 110  94  79  73  70  72  74  76  76  80  87  90  95  97 103 107 108 108 107 105 104 102 101 100  93  84  78  75  72  69  70  68  67  67  69  66  71  79  86  97 107 113 119 123 135 147 146 128  82  43  25  22  23  27  32  34  49 125 143 145 144 145 144 144 145 144 143 142
 153 153 151 152 153 152 153 153 153 152 152 134  77  46  44  79 162 176 176 160 149 140 129 113 103  94  90  89  86  85  81  82  83  85  89  91  93  98 104 106 108 109 107 105 103 102 103  97  92  86  82  81  77  75  75  74  76  79  79  78  81  85  89  96 109 110 115 124 130 144 147 134  91  50  27  21  22  24  27  31  39  89 138 144 145 144 144 144 144 144 142 142
 152 154 153 153 153 152 154 154 153 153 152 130  65  43  44  85 162 178 169 155 146 131 119 112 106 100  97  94  92  90  86  85  86  90  92  95  98 102 106 106 107 110 108 105 105 104 103  98  94  89  87  85  82  79  76  77  79  81  83  84  87  90  92  95 105 111 117 125 130 139 147 139 102  57  31  21  21  22  26  29  35  52 133 142 144 144 145 144 144 143 143 142
 153 152 154 154 153 154 154 153 154 152 151 123  52  44  43  95 166 178 166 155 141 128 120 111 105  98  97  94  91  90  84  83  84  88  89  95  99 103 106 106 106 107 105 108 106 106 104 100  95  93  90  86  81  80  77  76  78  83  84  90  94  97  98 100 101 106 115 124 131 139 146 143 117  69  35  22  20  22  25  27  31  38 100 139 144 144 145 144 145 144 143 141
 155 152 154 154 156 156 154 154 154 155 151 115  46  42  46 104 166 174 162 144 133 125 117 110 105  99  97  94  91  89  85  81  80  84  86  91  95 100 105 108 106 107 106 105 107 106 103 100  95  93  88  84  80  79  77  76  80  85  89  94  97 102 103 102 101 105 108 115 124 134 141 144 130  80  40  22  19  21  24  25  30  37  70 132 142 144 144 144 144 144 145 143
 158 157 156 157 159 159 160 158 159 157 154 113  45  42  43 122 172 173 154 136 122 117 111 109 108 106 104 100  95  87  82  78  79  80  86  88  93  99 104 107 107 107 107 107 107 105 104 102  95  91  83  82  80  76  78  79  80  87  92 101 109 113 111 103  98  98 101 106 114 126 137 143 139  94  49  22  20  20  22  24  27  34  57 102 140 142 145 145 144 144 145 144
 162 159 160 161 162 164 164 163 163 160 155 101  48  42  43 128 174 167 148 130 119 112 109 108 114 118 121 114 102  92  82  78  74  75  81  86  88  96 103 105 108 109 108 106 106 105 102  99  92  87  82  78  75  75  75  77  78  82  86  94 105 109 112 111 104  98  98  98 104 119 130 142 143 108  58  25  20  18  21  23  25  29  44  71 130 141 143 145 146 145 145 145
 165 163 162 162 164 167 166 165 163 161 158  97  51  40  43 148 174 164 140 122 115 108 108 114 123 123 120 108  97  87  79  74  72  70  74  80  85  92 100 104 107 109 110 110 108 108 102 100  91  83  78  77  73  71  70  70  71  73  75  80  88  97 106 109 106 102  97  96 100 112 127 141 147 124  70  28  20  17  18  21  25  25  43  71 105 140 144 145 145 145 144 145
 167 169 166 164 165 167 169 167 165 162 161 107  55  40  42 167 174 158 131 117 109 104 111 117 118 111 104  94  83  78  73  68  66  64  68  77  84  89  97 103 108 111 111 112 111 109 105  98  91  83  76  74  71  66  58  59  60  58  58  58  63  70  73  81  89  92  95  93  96 108 126 142 150 142  89  30  23  18  17  19  24  25  32  70  82 134 144 146 147 146 147 145
 169 172 169 166 166 167 169 170 167 165 163 123  54  38  51 178 174 153 128 111 106 107 111 104  94  86  82  76  73  72  67  62  54  57  69  75  82  87  97 103 109 114 118 116 116 112 106  97  90  81  75  75  69  47  49  45  35  33  30  32  39  47  46  47  51  60  66  75  87 107 128 144 154 149 107  43  24  18  17  19  21  24  27  56  76 120 140 146 146 147 147 145
 171 173 171 167 166 167 169 169 170 168 163 145  61  41  63 183 175 151 128 110 100  95  91  82  74  75  66  48  43  40  38  37  47  49  53  76  83  88  97 105 115 132 132 128 123 119 110  99  89  82  78  78  55  42  52  62  36  29  28  33  49  50  43  45  49  55  68  86 103 119 134 150 158 156 131  56  27  20  18  18  19  23  24  34  69  92 136 145 147 147 145 146
 172 172 174 172 169 168 169 171 171 169 165 155  81  45  94 182 179 158 132 108  89  79  64  58  56  66  84  53  35  32  31  41  58  49  45  71  85  89  98 109 129 152 154 144 137 134 120 106  93  84  82  80  47  43  46  48  47  43  40  44  51  60  73  93 110 130 136 141 141 145 146 154 162 160 148  76  31  22  17  15  17  21  25  30  61  78 127 143 148 147 147 147
 169 169 173 173 169 168 170 172 170 170 165 155 118  46 115 185 181 168 144 127 112 102  94  81  66  62  58  57  50  45  47  51  54  54  59  76  86  89 100 118 149 173 173 158 150 151 137 117  98  89  85  81  70  65  63  62  62  66  69  73  80  90  99 109 120 135 147 158 160 162 161 162 166 164 157 111  38  23  17  16  17  20  24  28  50  77 104 138 147 148 147 147
 171 171 172 172 170 169 170 170 170 169 165 159 153  63 140 188 187 176 169 172 167 155 143 132 123 102  87  81  78  73  67  65  69  73  80  85  91  97 110 139 173 199 182 166 163 166 153 132 113  97  88  85  78  72  68  65  64  67  70  75  80  84  91 102 119 134 150 163 167 169 168 166 168 168 161 135  45  24  19  16  16  18  22  26  39  67  84 130 146 148 149 150
 170 170 171 173 172 170 170 169 169 171 167 161 150  70 157 194 194 188 187 185 178 165 147 125 108 100  94  90  87  79  71  70  75  73  86  95  97 103 124 160 194 212 183 168 165 172 165 146 128 111  96  92  88  85  76  72  69  71  69  77  80  84  92 103 120 135 153 164 171 174 172 168 170 171 165 151  63  31  22  18  16  18  21  24  38  61  72 118 142 150 149 149
 168 169 170 170 171 170 170 169 168 168 167 159 142  77 173 195 199 198 197 194 190 177 158 131 109  99  92  88  84  80  78  79  81  89  99 103 103 114 143 172 202 204 178 166 164 174 170 157 141 121 107  99  97  98  93  85  80  78  77  81  84  90 101 116 126 142 152 161 172 174 173 171 170 170 164 156  89  36  24  18  16  17  20  22  34  52  64  94 138 149 150 150
 169 168 169 170 168 168 168 169 170 169 166 160 118  69 186 197 200 202 202 199 198 188 173 149 124 105  96  90  88  85  87  90  97 103 107 107 111 132 159 181 198 192 179 170 170 175 172 162 150 134 115 103 100 100 102  99  94  94  94  98 102 109 118 130 136 145 152 160 165 168 170 172 170 170 165 157 113  40  26  18  16  16  19  22  26  49  68  78 132 149 150 150
 170 169 170 169 168 168 169 170 169 169 166 150  79  75 191 197 202 204 202 201 198 190 182 168 149 132 114 102  98  97  98 102 105 106 108 107 123 145 172 188 196 189 181 176 173 178 173 165 158 144 123 109 104 103 106 108 108 110 114 117 117 121 129 134 140 148 153 158 162 164 167 168 168 168 165 158 130  44  28  19  18  16  19  20  24  57  72  81 121 146 152 153
 170 169 170 169 171 171 171 170 169 169 165 126  70  83 192 197 202 203 201 199 195 191 183 174 163 149 136 126 119 114 111 111 111 108 109 117 135 157 177 187 195 196 187 179 176 175 171 166 160 146 130 116 106 106 108 112 114 120 124 127 129 130 131 134 140 145 149 153 159 161 162 164 164 165 164 156 135  48  30  20  17  16  18  19  23  37  66  87 109 145 152 152
 172 171 172 172 170 171 171 171 170 169 161 137  85  92 192 194 199 197 195 193 187 185 177 175 165 159 151 142 135 126 122 120 113 112 114 123 143 163 179 185 192 194 186 177 176 179 172 167 160 149 132 123 113 108 110 115 120 124 129 130 131 133 135 135 139 141 145 148 153 159 160 160 163 163 160 152 138  54  30  20  18  16  18  18  22  24  60  95  88 144 152 153
 173 172 174 173 173 174 173 172 170 167 163 151 119 118 185 191 194 192 187 185 182 177 173 167 162 162 157 150 142 137 132 128 123 119 121 130 146 165 181 184 185 189 189 177 173 177 173 167 162 150 130 123 118 113 112 114 121 127 131 134 133 134 135 136 138 140 142 144 147 154 156 157 161 162 158 149 138  56  32  20  18  16  19  19  22  26  58  90  68 140 153 155
 175 175 175 174 174 174 175 174 173 172 166 157 151 136 179 185 186 184 183 181 176 170 166 162 164 161 153 149 146 142 139 136 128 123 123 132 147 166 179 181 185 191 191 174 170 173 175 166 161 151 126 121 116 113 113 115 120 122 129 132 137 136 136 138 138 140 142 143 145 147 150 154 156 157 154 148 138  56  29  20  17  17  18  19  22  25  56  75  73 128 153 155
 176 178 177 176 176 178 177 176 175 172 170 163 163 141 172 181 182 180 178 174 168 162 162 160 159 153 153 151 149 148 143 134 129 121 108 125 142 162 171 180 189 207 196 176 169 175 176 163 153 149 137 120 110 109 111 115 118 120 124 129 133 135 140 141 139 143 147 146 146 145 149 150 150 150 150 143 131  53  27  18  16  16  20  19  20  24  44  67  81 104 153 156
 180 181 179 178 178 179 178 178 176 174 172 168 170 147 164 178 176 175 172 168 165 160 159 158 155 155 157 156 155 150 141 132 128 122 115 120 130 152 167 179 191 201 186 169 165 171 171 159 151 147 137 114 103 104 107 111 114 116 120 124 127 132 137 140 143 143 143 147 147 147 148 150 150 146 146 140 124  47  23  17  17  15  18  18  21  24  41  65  88 101 149 155
 182 182 181 179 179 180 179 178 177 175 173 171 171 152 152 174 171 170 165 161 157 160 160 158 158 157 161 161 158 145 139 131 125 121 119 114 123 156 180 181 184 186 168 155 153 158 159 160 160 161 148 111  92  99 103 107 113 116 115 122 127 127 133 137 139 141 144 143 146 149 147 147 147 144 143 136 118  37  20  17  16  16  18  18  20  24  34  67  78  89 152 154
 183 182 182 180 181 182 182 181 180 179 174 176 172 159 150 168 167 167 163 159 150 159 158 159 159 160 160 156 152 141 134 126 121 117 113 108 128 181 192 177 164 154 140 129 132 139 146 154 162 166 164 121  81  91  99 104 109 113 117 121 126 127 131 135 137 138 142 141 143 146 146 144 146 144 141 133 111  30  19  16  16  15  17  18  19  22  23  68  80  79 150 156
 184 182 182 183 183 182 182 182 180 181 174 179 173 161 158 164 165 163 159 159 159 160 160 161 159 160 153 150 145 136 127 122 117 112 107 100 142 183 180 166 145 131 120 117 116 119 128 135 146 154 162 149  77  85  96 102 106 110 114 117 122 126 130 131 134 134 136 141 143 144 144 145 145 140 138 129 104  28  18  16  16  16  17  17  18  23  24  64  79  79 150 160
 185 184 184 184 184 184 183 183 183 182 176 180 174 163 161 163 163 160 158 159 160 157 157 157 157 152 148 141 137 130 122 117 114 110 104  96 169 171 160 142 119 110 107 105 104 104 108 112 126 140 148 149  87  80  91  97 102 107 110 113 118 121 126 130 133 136 138 140 143 143 142 142 143 140 137 126  92  28  18  16  16  14  16  17  18  24  37  54  78  81 149 162
 187 187 186 186 185 185 185 184 185 182 180 182 177 167 165 161 161 162 157 158 158 152 156 155 156 150 146 129 129 124 118 114 110 106  98  96 170 158 137 117 105  99  98  98  96  93  95  99 110 124 132 137  96  79  90 100 103 107 109 111 115 120 123 129 132 133 135 138 143 145 143 141 140 138 135 125  85  26  16  15  15  14  16  18  20  27  41  39  79  79 152 160
 188 188 188 186 187 187 187 186 186 184 184 182 177 171 172 164 163 158 157 157 150 148 152 153 151 148 142 132 126 120 117 114 109 104  97  95 147 133 114  86  90  97  92  92  91  91  87  56  53  91 111 119  92  80  90 100 104 106 108 111 111 113 119 124 130 130 134 138 141 144 142 140 139 136 133 125  76  24  15  15  16  15  17  18  18  27  41  37  75  84 153 160
 189 189 189 187 187 187 188 188 188 185 186 183 180 174 175 166 162 158 156 153 147 147 150 150 148 142 137 129 125 120 115 110 106 102  94  90 115 112  88  42  35  74  89  90  90  86  72  49  41  75  98  98  78  82  88  95 101 102 106 107 108 107 112 119 123 127 128 131 126 117 136 138 138 136 130 123  62  22  15  14  14  16  16  19  19  27  39  35  75  92 154 161
 190 190 189 189 188 189 188 188 188 186 187 185 179 175 176 173 160 158 155 154 150 151 150 147 142 137 130 125 122 119 114 109 105  99  93  90  91  98  86  70  64  78  85  92  91  82  78  72  68  73  82  78  80  86  90  95  99 101 106 104 106 109 110 111 116 121 126 127 119 104 132 137 136 134 129 125  51  20  14  14  14  15  15  19  18  27  31  29  72  98 157 161
 192 192 192 191 190 190 190 190 188 189 188 186 182 178 177 172 160 158 156 156 150 150 149 145 139 132 126 122 120 117 112 108 105  98  95  93  89  83  77  71  76  86  87  91  88  83  85  82  74  65  75  87  90  91  93  94  99 102 105 104 105 109 108 110 114 116 120 124 121 123 131 135 135 132 129 123  49  18  14  14  15  15  16  19  18  27  34  28  74 104 157 160
 194 194 194 193 192 191 189 191 189 189 190 187 183 180 175 175 160 159 155 153 142 147 142 139 132 129 124 120 118 116 110 107 103 101  97 100 111 113  88  75  79  85  89  88  86  85  87  85  87  92 112 114 105  98  95  96  97 100 102 105 106 107 107 110 112 114 115 117 124 126 129 131 131 132 133 123  50  19  14  14  15  14  14  16  19  24  37  25  85 118 156 160
 196 194 194 195 193 193 192 191 190 189 189 186 184 184 175 177 156 161 156 151 141 140 135 131 128 124 122 119 115 112 108 108 105 103 104 119 134 143 125  92  86  89  89  85  82  85  90  94 110 129 134 128 119 111 103  98  98  98 101 104 105 104 105 108 111 111 112 117 123 126 128 128 129 132 134 119  42  20  15  14  14  14  15  16  19  21  38  26  89 137 161 162
 194 195 195 195 193 194 195 193 191 190 189 188 185 184 176 176 151 160 156 147 143 138 133 126 123 122 118 117 114 112 110 106 106 107 122 140 150 158 151 122  96  93  89  83  80  83  94 110 130 142 141 135 128 122 113 105  97  98  98 101 102 104 104 108 109 110 111 116 122 122 122 128 128 134 134 108  28  17  14  15  14  13  15  17  18  24  38  32  80 155 168 165
 198 198 197 196 196 195 194 194 192 191 191 189 186 184 178 180 142 155 156 148 140 137 130 123 121 120 119 116 113 112 111 106 112 119 136 151 160 163 162 144 113  95  89  81  78  89 106 123 134 138 139 138 132 126 121 112 102  99  98  98 104 103 106 107 108 110 113 114 119 121 122 124 128 134 132  90  25  15  15  15  14  13  14  17  18  26  38  40  83 163 170 167
 200 200 199 199 196 197 197 196 196 194 190 188 189 185 181 179 143 143 158 148 140 133 125 123 120 120 116 114 115 112 109 110 114 124 139 153 158 158 157 150 122 105  94  81  82  98 114 131 130 135 138 140 137 131 123 114 105  99  98  99 102 104 107 107 109 111 112 115 116 121 121 125 129 132 131  74  24  17  15  15  13  13  14  16  19  26  34  49  97 167 171 170
 201 201 201 201 198 199 198 197 196 195 192 188 189 185 182 173 144 132 158 145 137 130 123 122 121 118 117 115 114 111 111 111 113 127 137 148 153 153 153 150 134 111  98  91  89  94  98 101 111 121 127 136 134 129 123 115 105  97  96  97 101 103 107 108 109 112 116 118 118 118 121 126 130 134 130  61  25  17  14  15  13  13  14  17  17  24  33  49 112 166 171 169
 203 202 202 202 199 202 201 200 198 195 193 190 189 187 184 174 144  95 159 146 138 130 125 123 121 118 116 116 114 112 110 108 111 122 134 138 142 143 132 114  92  85  82  82  78  73  73  75  78  84  95 109 122 122 115 109 102  93  91  92  96 100 105 106 109 111 116 118 119 120 122 126 131 130 123  49  28  16  14  16  14  14  15  16  17  27  30  51 129 169 170 171
 203 202 202 202 200 200 201 198 196 196 194 191 189 188 186 174 142  74 153 146 137 133 128 124 122 120 116 117 114 109 108 105 108 113 120 126 124 104  88  80  72  71  71  76  72  66  66  68  70  71  70  73  82  96 100 101  95  88  86  87  93  98 102 105 108 111 114 119 120 121 123 124 129 128 103  37  27  18  17  18  13  14  16  17  18  32  32  57 141 169 170 170
 201 203 202 202 201 201 199 197 198 197 194 192 189 189 186 172 127  63 125 146 138 133 131 126 124 122 120 115 112 106 104 100 100  99 104 101  87  74  72  70  70  68  67  71  70  64  64  66  65  62  56  56  58  62  69  75  78  71  74  82  89  96 101 103 108 110 112 116 117 117 119 122 126 122  72  29  27  19  20  18  13  14  16  15  18  28  32  72 154 170 171 171
 199 202 203 201 199 199 199 199 196 197 195 190 189 190 185 170 124  59  93 146 137 133 130 126 123 122 117 114 110 105  99  95  92  88  84  72  64  57  53  52  44  42  43  53  60  51  49  50  48  48  51  51  52  49  48  46  44  47  56  72  85  93  99 106 108 107 111 114 115 116 119 120 122 115  42  24  24  17  23  18  15  15  15  15  18  34  32  96 155 169 171 170
 201 200 201 199 201 199 200 198 197 197 195 190 191 189 182 163 121  65  74 142 138 133 130 125 123 119 115 112 110 104  96  86  75  65  51  46  52  60  63  63  57  54  60  57  63  61  65  69  73  80  90  90  87  79  69  60  59  63  61  71  83  90  97 105 108 109 112 114 115 114 113 116 116  97  23  17  18  17  20  18  15  15  14  16  19  35  32 121 158 168 171 171
 203 202 202 200 200 199 200 198 196 195 196 191 190 188 181 163 113  71  66 113 138 131 129 124 122 119 115 111 108 104  91  80  70  66  65  61  68  76  79  80  81  82  80  80  81  84  81  82  86  94 105 104 104  98  89  83  83  81  76  78  82  90  98 104 108 108 110 112 112 111 111 111 109  56  22  14  17  16  19  16  14  15  14  15  22  30  42 144 164 169 170 172
 202 203 202 199 199 198 199 198 197 196 196 192 190 187 178 163 104  76  61  83 136 130 127 122 121 116 114 109 107 100  92  85  80  82  86  83  83  86  90  93  94  88  86  83  82  80  85  84  88  89  93  95  93 101  98  96  95  90  86  85  85  89  95 102 104 107 108 108 109 107 108 108  95  29  17  14  16  17  17  15  14  15  13  15  22  31  62 154 168 171 168 171
 202 202 202 202 201 200 198 198 197 198 195 195 189 186 180 166  97  82  52  57 113 128 125 121 121 116 113 111 106 100  94  90  91  93  93  97  98  97  96  98  94  91  86  84  82  82  82  81  82  82  83  87  89  96 100  99  97  94  91  92  90  92  95 100 103 103 104 105 106 106 106 103  51  19  16  14  15  17  17  15  16  15  14  14  25  35  70 161 170 172 175 173
 203 201 203 203 201 202 201 200 198 197 196 195 189 183 182 151  92  72  50  53  69 124 122 122 119 117 114 111 106 102  97  96  96  97  98 100 100  98  94  93  88  85  84  83  80  81  77  79  79  80  81  83  87  93  97  96  97  97  94  96  95  93  95  98 101 103 103 103 105 102 100  85  20  15  15  13  16  19  21  18  17  15  14  16  29  40  93 160 171 174 175 175
 202 202 201 202 201 200 199 199 198 196 196 193 190 184 178 144  89  57  50  49  51  88 120 120 117 114 110 108 106 103 101 100  99  99 100  99  97  97  92  90  87  85  84  78  76  76  76  77  79  78  78  84  85  88  92  93  94  97  96  95  95  97  96  96  98 102 103 104 103 100  92  37  14  13  15  15  18  21  25  18  16  15  16  17  35  39 114 161 172 175 175 175
 205 203 202 203 202 203 202 200 199 195 193 190 189 188 178 130  78  52  50  44  42  36 103 113 115 112 110 108 106 102 101 102 101 100 100  98  95  93  93  91  88  86  83  78  79  78  78  79  80  81  80  84  84  88  90  94  95  97  96  95  96  98  97  96  97  97  99 102 101  95  66  21  13  12  16  19  19  24  24  18  16  16  16  20  38  36 139 163 175 176 175 175
 204 204 205 203 202 201 200 200 199 197 194 191 189 189 177 113  64  49  49  43  38  26  51 107 110 109 109 107 103 104 103 103 101 100  98  98  94  95  93  90  88  87  84  82  80  79  78  80  81  82  82  86  87  89  92  94  95  96  95  95  96  96  97  95  95  95  98  99  94  77  31  15  11  12  16  23  21  24  26  20  17  16  18  25  43  37 150 168 175 175 175 175
 205 203 205 204 202 202 198 200 200 199 198 193 190 191 177  87  57  51  43  39  35  23  21  67 105 107 108 107 106 106 104 101 102 102  99  98  95  97  92  90  89  86  85  82  81  79  80  82  85  86  85  87  88  93  94  99 100  96  98  98  98  98  96  96  97  96  95  91  81  40  23  13  12  13  17  23  24  27  29  24  17  18  20  25  44  51 161 174 173 176 177 175
 204 204 203 204 203 201 201 199 200 198 197 193 190 188 156  77  52  48  38  38  36  21  19  24  84 103 105 105 104 104 105 104 102 100  99  97  97  95  93  92  91  88  86  84  85  84  87  87  88  88  90  90  91  95 101 103 104 103 102 102 101 101  97  96  95  94  90  85  39  19  20  15  12  13  17  25  26  28  30  28  20  20  22  31  49  77 170 175 174 177 177 173
 205 205 205 204 204 202 202 202 199 198 194 194 190 182 122  65  48  43  34  35  33  19  18  23  36  87 100 103 103 104 105 103 103 102 100  98 100  99  96  97  93  92  91  92  93  91  93  90  90  95  96  98 101 106 106 108 108 106 104 105 104 102 100  99  94  88  82  45  18  16  18  16  13  12  20  27  26  24  29  29  24  23  26  39  56 105 171 175 176 177 175 173
 204 204 204 204 202 202 202 201 200 199 194 193 184 173  87  53  46  35  30  33  28  18  17  22  29  37  90  98 101 102 104 106 105 104 102 100 100 100  98 100  98  97  95  97  99  95  94  94  98  99 103 107 110 111 110 112 109 110 108 108 106 102  99  95  88  82  46  16  13  14  17  17  13  12  19  24  26  26  29  32  27  26  30  50  62 127 172 175 176 177 175 173
 205 204 205 205 204 202 200 202 200 198 195 194 184 144  65  49  39  32  28  32  24  17  17  23  23  25  53  87  95  99 103 105 105 104 103 102 103 101 101 104 100 101  98  99  99  99  96  96 101 103 106 108 111 112 113 113 112 111 111 110 106  98  94  88  80  44  17  13  12  12  16  17  13  11  18  25  26  25  31  33  31  30  38  70  54 146 173 177 174 176 174 172
 204 204 205 204 203 202 199 201 200 198 196 188 164  97  61  43  35  27  24  31  20  16  16  24  18  24  39  44  80  93  97 102 104 104 106 103 104 103 104 106 104 107 102 102  98  97  95  96  99 104 102 106 108 110 112 111 111 112 111 108 103  97  87  76  42  21  12  12  12  11  12  15  12  10  17  24  26  27  30  33  36  39  38  96  66 159 172 175 174 174 172 173
 207 205 205 203 202 202 202 201 197 194 189 169 132  86  49  37  30  24  23  29  18  15  16  23  16  22  42  32  35  69  91  98 100 101 105 105 101 105 104 105 104 104  98  98  93  94  95  94  93  95  96  99 103 106 107 109 109 108 106 102  95  88  73  46  24  15  11  11  11  12  12  17  13  11  18  24  27  27  29  35  46  46  47  99  90 164 173 174 171 172 172 171
 204 204 206 205 202 201 199 197 197 189 169 142 102  60  41  35  28  23  24  23  16  14  18  19  14  22  37  33  23  29  57  88  95  99 101 102 100 104 102 101 103  98  94  92  90  90  91  89  90  91  94  95  96  99 100 100 102 100  97  91  84  66  40  26  18  13  13  11  10  11  12  18  11  11  16  24  27  27  27  40  51  46  57  68 105 165 169 171 170 172 170 169
 199 203 205 202 200 203 196 195 187 169 142 106  77  54  40  30  26  21  25  22  15  14  21  15  13  22  32  27  16  22  20  43  82  89  96 101  99 100  99  98  96  93  90  88  88  87  87  87  87  89  87  90  92  93  94  92  92  90  87  79  62  37  25  19  14  12  12  10   9  12  10  16  11  11  18  25  26  24  27  39  51  41  48  49  60  86 109 131 144 144 134 136
 203 201 199 201 199 193 188 183 166 149 127 114  80  47  36  28  25  23  32  19  15  15  18  15  14  19  24  23  16  17  20  20  36  72  87  90  94  93  93  92  93  88  86  86  86  86  87  86  88  87  87  87  88  86  87  86  85  80  72  51  35  26  20  14  13  14  10  10   9  11  12  16  11  12  17  26  23  24  25  32  44  37  31  34  28  26  27  26  27  29  24  26
 206 205 202 199 198 195 191 180 164 159 146 102  64  44  33  28  27  28  35  16  14  14  16  14  14  16  20  21  16  13  17  17  24  35  53  78  83  85  88  88  88  85  82  81  81  82  82  81  82  82  82  83  82  80  79  76  70  58  42  32  24  20  16  14  12   9   8   8  10  11  11  13  10  11  15  24  22  23  23  28  34  34  29  27  18  18  17  17  18  18  18  19
 201 199 197 194 194 189 178 168 170 148 116  92  59  37  30  30  24  34  25  16  14  12  15  13  15  14  18  18  17  12  14  16  17  24  29  34  54  70  78  82  81  81  77  78  78  77  75  75  75  74  74  75  73  71  66  56  45  34  29  23  19  17  13  13  10   9   9   8  10  11  13  15   9  11  17  24  22  21  20  26  30  29  27  22  16  19  15  14  15  15  17  16
 202 200 194 192 186 183 178 173 156 136 108  75  44  35  35  29  27  29  20  15  12  12  15  13  14  13  18  16  16  12  11  14  16  18  24  25  28  35  48  58  63  67  68  65  66  66  63  65  64  62  59  59  55  49  41  35  30  27  23  18  16  14  13  10   9  10   9   9  10   9  14  10  10  11  19  24  24  19  21  25  28  29  25  17  14  17  17  16  15  15  16  15
 200 197 195 195 196 188 177 168 156 132  91  59  46  36  32  27  28  25  17  14  13  12  14  12  12  12  19  15  16  12  10  11  13  14  16  18  19  23  26  29  35  39  46  50  52  52  50  52  53  50  48  45  40  36  32  29  25  21  18  15  12  13  10   9   9   9   8   9  10   9  15  10  10  12  20  24  22  20  24  26  29  28  25  17  14  18  17  15  16  15  14  16
 197 194 196 193 190 186 170 161 138 101  69  47  44  38  30  29  26  24  17  15  12  13  13  12  10  11  17  15  15  12  10  11  11  13  14  13  14  16  16  21  22  27  30  33  36  37  40  39  40  37  36  34  31  28  24  22  19  16  13  13  13  10   9  10   8   8   8   9  10  11  13   9   9  13  21  23  20  20  20  24  26  27  25  16  14  15  14  14  13  13  14  14
 200 198 196 192 190 181 162 133 113  60  48  43  37  33  30  31  22  22  16  14  12  12  13  12  11  12  14  15  14  12  11  10  10  12  11  12  12  14  15  15  16  18  21  24  26  26  27  27  28  27  25  24  21  20  17  15  14  12  11  11  10  10   9   9   9   9   9   9  10  11  10   8  10  15  23  20  23  20  17  23  26  27  25  15  14  13  13  12  13  11  11  13
 197 195 195 186 180 165 107  67  53  49  45  39  34  29  34  27  22  21  15  15  13  13  13  11  11  10  14  15  16  15  11  10  11  10   9  11  12  12  12  12  12  15  15  16  16  18  18  19  19  18  17  16  14  14  12  11  11  12  10   9   9   9   9   8   8   9   9  10  10  11   9   9  13  20  22  21  20  18  14  17  24  25  26  18  13  12  11  11  11  10  11  11
 199 180 148 128  91  56  50  47  42  43  39  38  34  30  30  24  23  19  15  16  14  13  14  11  11  10  13  14  16  13  13  12  11  10  10  10  10  11  11  12  12  12  12  12  12  13  14  13  14  12  12  11  11  10  12  10   9  10  10   9   9  10   8   8  10  10   9   9  10  10  10  10  16  22  20  17  19  14  13  14  22  24  24  18  14  11  10  10  10  10  10  10
 113  58  52  44  43  43  42  39  35  35  37  38  33  32  27  21  21  16  16  16  14  13  14  13  11  11  13  13  15  13  13  12  12  10  10  11  10  10  11  11  10  12  11  12  11  12  11  11  12  10  10  10   9  10  10  10   9  10   8   9   9   9   8   8   9  10  10  10  11  11  12  15  19  19  17  15  20  12  11  13  17  22  24  23  14  12  11   9  11  11   9  10
  53  45  39  37  38  40  33  33  33  34  34  31  30  28  24  23  21  16  17  17  14  13  15  12  10  11  12  13  15  14  13  12  11  11  10  10  11   9  10  12  11  11  10  10  11  11  11  11  11  10  10  10   9  10  10  10  10   9   9   9   9   9   9  10   9  10  12  10  12  12  13  16  17  16  16  14  16  10   9  12  16  17  22  23  16  13  11  10   9  10  10   8
  41  38  36  34  34  31  30  29  31  35  32  32  30  27  23  23  19  17  18  16  12  13  14  12  12   9  12  12  13  14  14  12  11  10  10  11  10  11  10  10  11  11  11  10  11  11  10  11  11  10  10  10   9  10  10   9   9  10   9   9   9   9   8   9   9  11  12  11  12  12  13  17  15  17  14  12  16  11   9  11  14  18  19  23  19  16  13  11  10  10  10  12
