P2
# Generated by OpenCV 3.4.0
92 112
255
 135 136 135 135 137 139 137 136 138 140 140 139 137 137 138 141 141 141 139 140 140 141 141 139 140 139 141 143 142 140 140 136 140 140 142 141 136 139 141 140 139 140 136 139 138 135 135 137 139 138 139 140 139 140 140 140 142 140 140 140 141 140 141 140 141 140 138 139 140 140 140 140 139 140 140 139 139 138 136 138 138 138 138 136 133 136 138 136 137 138 136 136
 135 136 137 136 138 138 136 138 139 139 137 140 141 139 140 142 141 139 138 140 143 143 141 139 140 141 142 140 140 142 138 138 141 139 140 138 136 138 135 132 130 121 120 119 111 113 120 122 128 133 136 138 137 138 138 139 139 139 141 140 140 141 142 140 141 140 141 140 140 142 141 140 139 140 141 140 139 140 139 137 138 139 139 138 137 138 139 137 136 136 137 135
 135 136 137 136 137 139 139 139 140 139 138 140 142 141 140 141 141 141 139 141 143 141 142 141 142 143 141 141 140 141 141 140 141 138 133 126 130 129 123 110  93  78  70  62  61  60  53  60  71  83 100 118 129 133 136 136 137 137 140 141 141 141 139 142 140 141 141 141 140 140 142 141 142 140 141 140 139 140 139 140 137 140 141 138 138 138 138 138 138 137 138 137
 136 138 139 138 137 137 139 139 139 140 138 141 141 140 140 142 141 143 142 142 142 141 141 141 142 143 142 141 141 141 138 137 131 131 127 125 111  95  75  61  56  55  50  48  48  48  46  48  47  50  58  62  75 106 126 133 137 136 136 140 142 143 140 142 142 141 141 142 142 140 142 141 142 142 141 141 142 141 139 140 140 139 140 139 138 138 138 138 138 139 137 137
 137 135 138 139 137 138 139 140 139 141 140 141 140 140 142 142 142 140 142 142 142 140 143 141 141 141 141 138 139 136 130 127 130 121 103  89  74  65  60  58  55  51  48  46  45  36  35  36  38  38  43  58  69  76  74  86 115 132 136 138 139 141 142 143 143 143 143 141 143 142 142 141 142 140 140 142 142 141 142 139 140 138 139 140 140 138 138 140 139 137 137 137
 138 138 140 140 136 138 139 140 141 142 141 140 141 139 139 139 142 140 143 142 141 141 142 142 142 141 140 138 135 129 124 120  96  74  66  68  67  60  61  56  48  47  47  43  39  34  32  31  32  32  35  41  50  76  87  82  67  82 118 135 140 139 142 144 143 143 143 141 142 142 142 142 142 142 141 144 142 143 142 141 141 142 141 140 140 138 140 140 139 138 137 138
 137 137 139 139 138 138 140 142 141 140 140 142 142 141 142 140 139 140 143 142 142 141 142 142 139 137 136 133 127 112  82  71  68  67  69  65  61  56  47  43  39  39  34  31  31  29  28  26  27  27  28  34  40  47  54  84 105  72  61 106 134 140 142 143 142 142 142 142 142 143 142 142 141 142 141 142 142 142 141 141 142 142 142 140 141 140 139 139 139 140 139 139
 138 138 140 139 139 141 140 140 140 140 139 141 140 141 142 142 142 140 139 142 144 142 144 141 135 131 128 117  89  70  63  64  68  66  59  56  49  44  41  35  35  31  28  29  30  30  29  27  29  28  26  26  27  34  42  51  64 110  82  62  96 135 139 143 143 143 142 144 143 143 143 142 142 142 141 142 142 142 143 143 142 141 142 142 141 139 139 141 139 140 139 139
 138 138 138 138 140 141 140 141 142 141 142 142 141 142 142 143 144 143 141 138 141 138 142 133 127 122 108  72  62  59  61  65  60  53  48  44  38  34  31  33  33  30  27  27  29  31  30  28  26  26  24  24  24  26  30  38  47  67 104  86  67 104 132 143 144 142 143 143 143 144 144 142 141 143 142 141 142 142 142 141 142 141 141 142 142 141 141 141 141 140 140 141
 137 137 138 138 138 139 140 143 140 142 142 143 142 143 143 143 142 142 142 142 139 135 128 121 118 118  72  58  57  57  66  59  47  43  42  40  37  34  35  30  29  32  31  30  29  26  25  26  26  25  26  25  22  24  26  30  38  46  66 100  75  77 110 135 141 143 142 143 143 143 143 143 143 143 143 143 143 143 143 142 142 143 142 142 141 139 141 141 141 141 140 138
 102 116 131 136 139 139 139 140 140 141 142 142 142 142 143 142 144 143 143 144 141 128 122 113 120  76  61  52  53  60  58  54  45  43  45  43  43  42  42  34  32  31  28  26  26  25  26  27  25  24  26  25  24  24  24  27  29  32  44  70  88  93  89 120 139 142 143 143 143 144 144 143 143 144 143 144 143 143 143 142 142 143 143 142 142 140 141 141 141 141 141 138
 102  83  71  63  68  71  88  97 110 128 138 140 140 140 139 142 140 141 140 141 132 117 109 107  97  61  50  50  56  52  51  46  46  45  48  50  43  40  36  36  32  30  29  30  30  30  27  26  25  25  26  25  24  25  24  24  26  29  33  44  64  96 109 100 133 140 143 142 144 144 144 144 144 144 143 144 144 144 143 143 143 143 143 143 142 140 142 142 143 141 140 140
 139 138 137 138 138 130 119 109  96  86  72  72  81  95 113 123 139 138 138 135 122 108 104 103  88  51  44  40  45  46  46  45  42  40  37  40  42  39  38  36  34  35  36  35  36  30  27  27  27  25  26  29  24  24  24  24  22  25  27  32  45  63 101 109 124 140 144 143 143 143 143 144 144 143 143 145 144 144 143 144 142 141 142 143 141 141 141 142 141 141 140 141
 139 140 140 139 140 139 140 141 139 140 139 140 131 117 104  93  80  85 107 113 122 105 106  86  62  43  34  38  41  40  40  45  37  32  32  37  42  45  45  48  48  54  55  53  46  40  38  36  33  30  27  31  25  24  24  25  24  24  23  25  32  45  55  99 115 137 142 143 144 144 144 143 144 144 144 145 144 144 142 142 143 144 142 144 142 142 142 142 142 142 141 140
 137 138 140 140 142 142 141 142 142 142 141 140 140 139 141 137 138 131 108  83  82  80  95  64  71  43  40  34  36  39  38  33  37  43  47  54  62  67  69  70  72  77  77  74  62  59  54  52  48  44  38  35  29  26  26  26  26  25  24  22  23  37  52  68  93 133 143 144 143 143 143 143 143 143 145 145 144 145 143 144 142 142 143 142 141 141 142 141 142 142 141 140
 141 140 141 142 142 140 140 141 142 142 143 141 142 142 140 140 142 139 138 125 114  78  65  64  68  58  42  41  43  40  38  48  61  69  79  89  94  96  99  99  98  96  93  88  80  72  74  67  66  64  60  54  48  38  30  28  28  25  26  25  23  26  39  53  72 108 134 141 143 143 142 143 143 143 143 143 142 146 143 144 142 142 142 142 141 140 140 141 141 142 140 140
 139 142 140 139 141 140 142 141 141 140 142 142 141 141 141 142 141 138 130 123 114  83  76  71  49  44  48  48  44  43  56  95 111 118 117 121 121 119 118 116 112 110 108 105 102  91  92  89  87  85  82  73  68  64  52  39  32  28  26  27  25  25  27  43  57  68 100 134 142 142 142 143 142 143 142 142 142 142 140 141 141 141 140 139 138 138 137 136 136 136 136 135
 140 142 140 141 137 140 141 141 142 140 142 139 141 142 140 137 137 132 128 112  90  83  86  60  51  46  47  53  80  91 113 127 140 143 139 140 138 135 135 133 133 130 128 125 123 117 108 109 111 115 116 110 101  84  76  70  62  41  30  26  28  25  25  32  45  56  71 106 131 134 135 134 132 131 128 125 122 119 117 115 112 108 105 101 101  97  95  94  90  90  84  89
 138 139 139 138 129 138 136 138 137 139 137 140 138 138 137 132 133 131 119  89  90  76  66  53  50  46  80 132 142 151 155 163 169 169 167 162 160 161 160 157 151 145 143 136 135 135 130 128 125 126 134 136 135 128 111  98  81  73  51  33  26  26  25  26  34  43  60  70  80  88  88  90  90  93  94  98  98  99 100 104 106 107 107 109 111 112 113 117 117 117 120 119
 133 133 132 133 118 129 130 129 128 125 125 125 125 123 121 117 111 106  83  98  68  58  61  55  61  97 150 172 184 194 206 213 210 199 194 186 181 179 169 166 160 157 151 146 145 142 139 138 135 133 136 143 147 148 145 139 120  94  81  61  37  27  25  25  27  34  47  59  65 103 126 129 130 130 131 132 134 133 132 131 132 134 134 135 135 136 138 138 137 136 137 136
  92  90  89  90  90  95  87  94  96  92  96 100  99 101 102 100 102  86  92  78  60  64  59  70 131 155 175 197 217 225 229 224 214 202 196 196 193 186 170 167 163 156 151 148 147 146 145 144 142 140 142 142 147 153 156 159 154 140 112  83  68  41  28  24  24  26  34  46  56  70 121 140 142 143 142 144 144 144 144 143 144 144 143 142 142 143 141 140 140 141 141 139
 125 125 129 128 130 133 134 134 134 136 136 136 138 138 134 131 120  89  96  67  65  67  64 147 170 187 201 213 226 234 231 224 212 203 196 194 184 176 169 166 162 157 152 151 147 144 142 141 143 144 142 141 147 153 159 161 166 162 147 124  81  64  44  29  25  23  27  35  47  54  74 125 142 145 143 144 144 146 145 143 144 143 143 143 142 142 140 140 141 141 140 138
 140 141 142 142 141 140 143 143 141 144 145 144 143 144 137 136 102 103  86  68  79  73 130 174 193 206 215 221 228 231 225 216 207 202 193 184 175 168 166 161 156 155 148 145 144 143 141 139 136 134 135 140 142 148 156 162 167 165 162 150 124  84  62  45  29  24  25  28  37  49  56  79 131 142 144 143 144 144 144 143 143 142 142 141 142 142 142 142 140 141 141 139
 143 143 143 141 144 145 144 144 145 145 144 143 146 143 139 123  91  96  75  74  80 124 174 195 201 206 213 217 217 217 211 206 199 188 181 175 168 171 165 158 151 148 142 140 140 139 124 131 134 133 132 134 137 144 150 159 161 162 164 161 148 118  76  61  45  26  25  26  31  42  51  62  97 138 144 144 144 144 143 145 145 144 144 143 142 143 141 141 140 141 140 141
 142 143 144 144 146 144 145 145 147 145 147 144 148 141 138 101  88  82  79  78 101 170 191 200 200 198 203 200 198 199 197 190 184 176 167 165 168 147 128 144 143 142 137 134 135 134 129 130 129 128 126 129 131 137 141 150 153 156 156 157 154 144 114  76  60  40  27  23  26  34  43  52  58 112 141 143 143 144 144 144 143 143 143 143 143 144 142 141 142 142 140 140
 145 142 145 145 146 146 145 147 146 146 148 148 145 138 138  85  98  78  72  90 167 185 195 195 195 191 189 187 186 183 180 179 174 167 160 158 155 117 118 134 135 136 134 129 127 128 127 128 126 125 126 126 129 135 140 141 149 150 151 154 154 152 141 105  72  56  36  26  24  30  38  46  52  66 131 143 144 143 144 143 145 144 144 144 144 144 142 142 142 142 141 141
 145 145 146 146 146 148 148 148 148 147 148 148 144 138 126  89  85  81  61 141 182 192 194 190 184 185 183 176 179 174 171 169 165 159 155 149 144 134 128 132 134 129 127 125 125 123 122 122 123 124 125 124 128 134 138 139 143 148 152 152 151 151 147 134  99  72  51  30  25  28  33  39  47  47  89 138 143 145 144 146 145 145 143 143 143 143 144 142 141 141 140 140
 145 146 143 146 147 148 149 147 146 147 148 145 145 142 102  90  67  71  91 168 186 191 187 183 183 180 176 174 168 165 162 160 161 156 152 146 143 143 135 134 131 126 124 121 123 123 122 124 124 122 124 124 126 129 136 139 143 147 149 151 154 154 150 144 129 100  71  44  29  24  28  36  42  47  49 123 141 145 145 144 145 144 143 143 143 143 144 143 142 144 141 141
 147 147 147 147 148 148 150 149 148 149 146 146 146 135  85  77  66  66 123 173 187 188 185 181 180 175 174 170 164 162 158 158 155 153 152 147 144 141 138 133 129 126 121 123 121 125 125 124 124 124 124 125 128 128 135 139 143 146 149 148 149 147 148 148 141 130  93  58  34  26  27  32  38  42  47  73 138 145 145 144 146 146 144 144 143 144 143 144 143 141 141 140
 146 146 147 148 150 149 149 150 148 147 145 149 142 126  80  68  71  86 154 174 187 187 182 177 176 176 170 167 162 162 161 157 151 154 150 148 139 137 137 133 129 126 124 122 123 122 122 125 125 124 126 126 126 127 133 136 141 145 148 147 148 149 147 149 149 144 120  78  49  32  28  29  34  38  43  46 124 143 145 144 145 147 145 145 144 143 143 144 143 142 142 143
 149 148 148 148 148 149 149 148 145 147 148 147 139 116  78  62  72 112 161 178 185 183 180 179 174 173 170 167 164 162 160 155 154 150 145 141 136 134 131 129 127 121 120 120 122 124 123 124 125 124 124 126 127 128 131 136 138 143 145 147 147 147 147 147 151 146 141 108  69  41  29  29  32  36  40  43  82 140 144 144 144 146 144 145 145 144 143 143 144 142 141 142
 147 149 149 149 149 149 148 147 148 148 149 147 132 106  62  58  81 140 169 177 178 180 176 176 175 172 168 166 160 159 156 153 147 142 142 134 130 130 124 122 121 118 116 116 118 119 119 119 122 122 123 125 125 125 126 129 135 141 142 145 147 148 149 148 149 147 146 134  93  60  35  29  29  33  36  39  44 125 143 144 146 145 145 144 145 144 144 144 143 144 142 142
 151 150 151 150 149 148 148 150 150 148 150 147 128  96  59  61  97 157 170 175 178 179 176 177 176 173 168 162 160 158 152 144 139 134 130 127 125 123 121 118 117 112 113 116 114 114 117 113 114 114 116 118 120 122 122 124 132 135 140 142 144 147 147 147 146 149 146 142 118  80  46  32  28  32  35  38  45  84 140 144 146 145 145 145 145 145 145 144 145 143 143 142
 149 148 149 149 150 149 151 150 149 149 150 145 124  89  62  67 115 159 171 173 176 175 175 176 174 170 167 166 161 153 140 136 130 127 123 117 118 116 114 114 111 109 111 110 110 111 109 111 108 110 112 115 115 116 118 120 125 131 137 142 145 149 149 145 146 147 145 145 135 102  62  36  28  27  34  37  40  47 130 142 146 146 144 145 145 145 144 144 144 144 143 144
 149 150 151 150 150 151 152 152 151 150 149 142 125  73  55  74 128 165 171 172 175 177 176 176 175 171 167 160 152 142 132 125 123 119 116 113 112 111 111 109 110 108 107 107 109 106 106 106 106 107 108 108 110 112 113 115 118 125 132 140 145 152 153 151 148 148 147 147 144 122  79  46  30  25  30  36  37  40 103 141 145 146 146 145 144 145 145 145 144 143 143 143
 150 149 151 148 151 152 152 151 151 150 150 143 117  60  52  77 141 166 172 173 176 177 179 182 180 176 163 153 142 133 125 118 117 112 112 110 109 110 109 108 109 108 108 107 108 106 106 105 105 104 104 105 106 107 109 112 114 121 126 133 142 148 154 154 155 150 149 146 146 132  95  54  33  24  27  34  36  39  62 139 145 145 145 144 143 144 145 145 145 145 144 145
 151 150 151 150 152 152 151 151 150 150 150 144 106  59  52  76 145 168 174 177 177 178 178 178 175 164 155 146 136 130 123 115 111 109 109 107 109 109 107 108 110 108 107 107 107 107 106 104 103 103 101 101 100 102 105 106 106 111 118 125 132 139 145 151 154 153 150 147 146 138 112  62  36  25  25  31  33  36  42 127 143 145 145 145 145 144 144 144 144 143 144 144
 151 152 151 151 150 150 152 151 152 152 148 143  87  54  50  87 151 167 175 178 178 177 174 172 162 148 140 130 120 114 112 109 106 106 105 106 106 107 106 107 108 108 107 107 104 107 104 103 101  99  97  94  90  90  86  86  87  90  96 103 112 119 125 140 148 152 152 149 147 141 121  76  41  27  23  27  32  35  35  94 140 144 145 146 146 144 144 144 144 144 143 144
 149 151 152 151 152 150 153 151 153 150 151 139  84  49  50  91 155 166 176 181 180 171 166 158 141 124 112 102  97  91  89  92  93  97 102 103 103 102 104 110 110 108 106 105 106 105 101 101  99  94  88  81  76  76  74  74  73  76  81  85  91 100 109 117 130 141 148 149 148 144 128  88  48  29  24  24  29  32  38  61 138 146 146 145 147 146 145 145 145 144 143 143
 152 152 152 152 152 153 152 152 152 152 150 135  83  49  51  98 157 168 176 182 176 162 153 141 122 105  92  87  83  78  77  74  79  86  88  94  98  99 102 107 107 107 106 105 107 103 101  98  94  88  79  75  68  66  69  65  65  68  69  72  78  90  99 110 118 123 133 142 145 147 134  95  55  32  24  23  26  30  34  37 124 145 147 146 146 145 145 146 145 144 144 143
 152 152 153 152 152 152 152 154 154 152 150 130  71  48  51  98 159 171 179 176 163 147 141 129 112  93  77  71  71  72  74  74  75  82  89  90  93  97 104 107 107 108 107 107 105 100 100  98  90  84  76  74  69  66  68  68  66  63  65  64  74  84  94 104 112 118 125 131 142 148 138 106  61  35  24  23  25  27  33  38  83 139 146 147 144 145 146 145 145 144 145 145
 154 152 153 152 154 153 153 154 155 154 151 122  57  46  51 107 162 175 177 161 150 142 131 116 102  89  82  83  79  78  76  80  81  86  90  90  92  98 104 105 106 107 108 107 103 102 100  98  90  84  81  78  75  73  75  76  75  78  80  76  81  88  92 105 111 114 119 123 136 147 143 116  67  39  24  22  24  26  29  36  49 128 144 146 147 147 146 145 145 145 144 144
 153 152 154 154 152 154 154 154 153 155 151 118  55  45  48 114 166 178 166 152 144 134 119 112 103  97  93  93  91  87  88  87  88  91  90  94  94 100 104 106 108 106 106 106 106 103 100  96  90  87  85  86  81  80  77  80  80  85  84  85  91  95 100 106 111 114 123 127 132 147 146 127  80  45  26  21  23  25  29  32  38  91 140 146 146 145 145 145 145 144 144 144
 151 153 155 154 153 155 155 156 153 154 148 112  46  44  49 122 165 178 162 152 141 128 121 113 105 101  98  93  90  87  85  84  86  90  95  98  97 101 104 107 109 106 107 108 108 106 102  97  91  89  86  86  85  80  76  79  84  89  89  96 102 108 109 112 111 116 125 132 137 144 150 136  88  53  27  21  21  23  27  30  35  52 134 143 146 146 146 146 146 146 144 144
 155 154 155 155 154 154 153 156 155 155 152 101  45  43  49 136 170 175 165 148 136 127 124 115 111 105 100  95  93  88  84  82  82  86  90  93  99 101 104 107 106 107 107 108 106 105 100  94  94  89  87  85  83  81  78  81  85  86  89  94  99 109 114 116 116 117 123 128 137 145 150 143 102  60  31  21  20  23  24  27  32  47 102 140 145 148 145 145 147 145 144 144
 159 159 157 159 160 159 160 158 160 158 151  97  45  42  49 150 174 176 159 141 130 126 121 120 114 111 106  98  91  85  82  80  80  82  86  91  96 100 103 107 106 108 108 106 104 102  99  94  93  89  84  83  81  80  79  78  78  84  89  96 102 106 108 112 114 113 117 121 131 141 150 149 118  72  34  21  19  23  23  26  29  40  66 131 143 147 147 147 147 147 146 146
 162 161 160 159 162 165 165 164 164 160 156  90  44  43  53 167 180 171 151 134 124 122 121 118 114 112 111 102  94  84  79  77  78  81  84  88  90  96 102 106 108 106 106 107 105 102 100  96  90  84  80  79  75  75  75  74  74  80  82  86  93 103 110 111 111 115 116 116 119 130 145 151 135  85  38  21  18  20  22  25  26  34  56 102 139 145 147 148 148 145 147 146
 167 164 163 162 163 165 167 166 163 161 155  79  48  42  57 176 179 167 141 128 121 117 118 117 126 126 108  95  89  82  75  72  70  73  78  82  86  95 101 104 106 108 108 107 107 104 100  93  86  81  78  75  72  71  67  54  37  27  28  28  31  37  44  72  94 110 115 120 120 127 140 150 145  95  50  25  19  19  20  24  25  29  51  73 128 144 147 148 147 148 146 146
 170 168 167 166 165 169 169 167 166 163 156  84  50  41  69 181 178 159 134 122 119 120 122 105  75  50  45  44  46  51  53  58  64  69  73  78  83  89  98 102 107 109 107 107 108 105  99  96  87  79  76  74  69  58  44  29  27  26  25  29  44  59  38  32  38  58  92 103 116 127 139 149 150 114  64  26  20  19  19  21  25  26  46  72 109 143 147 148 147 149 150 148
 170 171 169 167 167 168 169 171 167 166 160  96  52  40  86 182 177 153 130 123 122 108  70  46  46  65  47  32  27  27  26  29  43  59  70  76  81  88  98 103 106 109 110 110 110 106 100  94  85  75  74  73  58  48  57  33  37  36  27  30  42  50  46  46  37  42  51  67  86 110 133 149 153 134  77  30  22  19  17  20  23  23  32  71  92 135 146 149 149 148 149 148
 170 173 172 168 168 168 171 171 169 167 160 134  50  42 100 183 175 150 131 121  95  58  43  42  53  77  50  37  41  36  30  30  50  50  59  77  79  88  97 104 110 117 120 118 116 112 104  94  86  77  76  66  40  43  49  39  39  38  38  46  66  87 107 115 112  93  81  80  95 122 141 154 157 147  97  37  24  20  16  16  21  24  27  51  77 116 143 151 151 150 150 149
 170 172 172 172 168 167 172 172 171 167 163 153  66  48 126 185 172 148 121  92  71  62  75  84  82  62  54  50  47  45  42  44  48  44  38  74  83  87  96 107 121 133 133 130 127 121 110  98  87  82  80  63  60  64  62  65  68  74  79  89  97 104 111 119 126 136 146 149 149 150 155 159 161 154 121  48  26  20  16  16  19  22  25  35  67  96 136 149 152 151 151 150
 168 170 173 172 170 169 169 170 171 169 162 156 102  49 148 186 177 157 127 119 122 147 152 147 143 131 105  90  81  75  70  67  69  74  75  80  87  89  97 116 138 154 153 144 141 134 123 106  92  86  81  74  72  69  69  69  71  77  82  84  88  91  96 105 119 135 150 159 163 164 163 164 165 161 142  64  31  20  16  15  17  20  23  29  60  76 129 145 151 151 150 149
 170 171 172 172 172 170 171 171 171 169 163 162 136  57 165 190 186 180 180 176 166 152 134 120 111 104 101  94  88  81  72  70  71  73  82  85  90  95 106 133 163 177 167 159 155 152 136 118 101  88  86  82  75  71  64  64  67  69  74  79  81  85  88  97 116 138 155 168 172 172 171 168 167 166 152  90  34  22  18  17  18  19  22  28  50  70 100 140 150 151 150 151
 170 171 172 173 172 170 170 172 169 169 164 161 142  68 177 196 195 192 191 184 171 147 120 108 101  96  93  87  82  78  70  68  71  77  91  96  97 101 118 156 186 190 176 166 163 164 149 129 111  96  90  89  90  86  80  74  69  70  72  74  80  88  99 119 133 149 161 169 172 174 174 173 171 166 156 116  40  26  21  18  17  19  22  26  42  71  74 133 149 151 152 152
 170 170 170 172 171 170 171 170 170 169 166 160 135  74 188 199 200 200 198 194 187 170 139 107  98  89  82  78  75  73  74  82  91  97 102 103 103 108 139 177 202 189 176 167 168 168 164 145 124 105  95  95  97  99  98  93  92  90  91  92 102 120 134 144 151 161 167 172 174 178 176 172 173 169 161 132  48  29  24  18  17  18  22  25  42  57  72 117 146 153 152 153
 169 169 170 172 172 170 170 169 170 168 166 157  88  79 195 199 203 202 203 200 196 190 182 159 128 106  95  91  90  90  95 100 106 106 106 103 106 124 157 187 198 183 177 169 167 170 167 155 135 116 101  99  99 102 103 101 101 104 107 116 126 134 140 147 155 162 168 177 178 174 173 171 171 170 163 145  64  33  25  18  16  19  20  24  31  52  72  91 143 153 154 153
 170 169 170 171 171 172 170 169 170 168 165 136  63  90 198 198 203 202 200 198 198 201 198 190 172 146 123 110 106 106 106 108 108 106 106 104 114 142 172 193 194 182 178 175 175 177 168 160 144 124 108 103  99 103 106 106 107 114 123 128 134 140 141 146 153 155 163 168 170 172 169 167 170 170 163 149  81  37  26  18  17  16  21  21  27  55  76  82 138 152 154 155
 172 170 170 171 170 170 169 170 171 169 165 112  75 103 192 195 198 197 195 196 196 193 191 182 178 170 154 135 122 115 112 111 109 106 106 109 127 158 180 192 194 189 184 178 174 176 171 162 149 133 115 105 100 101 105 110 112 120 125 128 132 135 140 143 148 150 155 160 161 166 168 165 168 169 162 147  91  40  26  17  17  16  19  20  26  48  75  84 126 152 156 155
 172 173 172 172 173 173 170 172 170 167 158 140  91 110 188 192 194 189 188 191 187 182 178 174 172 164 156 144 134 125 121 114 110 107 108 119 140 163 181 189 193 192 186 179 174 172 170 166 154 138 124 114 105 104 106 108 113 120 125 128 130 132 136 141 145 148 153 155 154 157 159 164 167 166 161 148 101  41  24  17  16  17  18  20  23  41  60  93 109 152 156 154
 174 173 173 174 173 173 173 173 173 168 165 147 137 136 183 187 187 186 184 182 177 173 170 167 162 157 150 144 139 130 126 119 114 112 116 129 144 165 185 188 187 181 177 169 170 175 168 170 161 141 128 122 115 111 109 110 113 112 120 123 129 132 138 142 142 148 154 156 156 156 156 161 162 162 159 148 107  43  25  18  16  16  19  20  22  30  60  98  91 149 157 155
 175 175 175 176 175 174 174 174 173 171 166 158 155 136 186 185 184 182 179 176 170 166 165 163 158 155 149 144 141 136 126 121 120 112 117 135 149 170 184 184 182 183 180 166 164 166 170 166 160 150 133 127 119 116 114 112 111 113 116 121 123 127 133 137 140 145 149 152 157 159 158 160 159 158 156 148 108  44  25  17  16  16  20  19  22  25  63  81  76 149 158 159
 177 177 177 178 179 177 176 175 175 170 171 165 164 136 181 182 181 177 173 170 168 167 163 160 158 154 150 145 140 133 124 123 123 116 119 130 148 174 178 181 184 186 178 166 160 167 170 162 149 145 133 119 115 112 111 111 110 113 112 114 120 124 127 133 136 141 144 150 152 157 159 159 157 154 151 145 106  41  21  18  16  17  19  18  22  25  55  77  72 129 157 160
 181 180 178 180 180 179 178 179 176 175 173 172 166 143 176 181 180 174 164 164 170 167 162 159 155 150 149 144 136 131 125 122 123 120 119 119 141 161 171 181 185 188 176 162 161 168 168 158 143 143 135 101  97 103 107 107 109 113 112 113 117 121 124 129 135 136 139 143 146 152 157 156 155 152 152 146 105  36  20  17  17  16  19  18  23  25  52  69  80 124 153 159
 182 182 182 182 181 182 181 180 178 176 173 175 169 145 174 181 178 170 168 170 168 165 161 158 154 149 147 139 133 127 121 118 118 112 108 108 148 168 176 179 183 180 166 159 157 160 158 157 154 156 156 107  77  88  99 105 106 108 110 113 115 117 120 122 126 132 136 138 144 151 154 153 154 152 146 143 102  28  19  18  16  16  20  17  20  26  43  70  75 112 154 156
 183 183 182 182 182 182 181 181 181 178 176 178 170 154 172 178 177 171 170 170 167 162 156 154 148 143 140 132 127 121 116 112 110 104  96 101 178 193 193 178 171 168 154 147 144 146 148 156 162 169 175 152  75  74  86  98 103 106 109 109 112 114 117 119 122 128 130 133 140 150 153 152 150 151 146 141  98  26  17  16  16  16  18  17  20  24  34  65  81 103 158 158
 184 184 182 183 182 184 183 182 182 177 179 179 172 158 172 177 173 169 170 166 160 156 152 147 140 133 124 126 120 116 112 109 105  95  87 137 185 189 182 168 150 140 131 126 126 133 139 145 154 158 166 161 112  70  77  87  97 102 106 107 108 110 112 115 118 123 126 128 133 141 150 151 150 147 146 142 100  23  17  15  16  16  19  19  22  25  29  64  85  94 158 161
 186 184 185 185 184 183 186 184 184 179 180 181 174 163 173 176 172 169 166 158 157 152 149 142 137 129 121 121 116 113 107 105  96  88  84 168 179 168 162 143 129 121 115 112 111 114 120 125 134 140 144 150 131  66  74  82  92 100 102 104 107 109 109 111 113 118 120 123 127 131 139 143 146 144 143 140  96  25  17  15  15  15  18  18  20  23  37  53  83  94 156 161
 187 186 187 187 185 184 186 184 185 181 181 183 174 170 172 173 169 167 160 151 151 145 141 136 133 126 123 119 115 111 105  97  89  86  89 169 162 149 135 119 107 104 103 102 100  98 101 106 114 122 128 133 123  70  74  80  87  94  98 102 105 107 108 106 109 111 112 118 119 122 112 112 141 142 142 140  96  23  17  16  15  15  18  19  20  27  40  36  84  84 157 162
 189 189 188 186 187 188 188 186 185 185 182 183 175 174 172 171 164 161 154 148 145 140 138 130 124 121 120 117 114 108 100  93  88  86  89 140 137 128 114 104  97  97  95  96  93  91  91  88  89 100 106 111  99  78  77  81  85  90  95  98 102 104 106 104 108 109 108 110 114 116 109 110 134 138 139 139  91  25  16  16  14  15  18  19  20  30  41  40  80  95 158 162
 190 190 190 188 189 189 187 187 187 187 185 183 178 174 174 168 160 158 152 145 139 135 128 125 122 120 119 113 110 105  98  90  87  87  90 107 112 100  82  76  84  94  90  89  89  89  82  68  62  70  83  89  82  84  83  83  84  88  91  94 100  99 103 102 103 105 106 107 109 111 111 116 127 135 136 139  87  23  15  14  15  16  18  19  18  28  36  35  78 108 158 163
 192 190 190 190 191 189 189 188 188 188 187 184 183 175 174 166 156 155 143 137 132 129 127 123 120 116 115 111 104  99  92  87  86  88  92  90  91  82  73  77  85  90  90  90  90  84  80  79  77  74  72  79  83  84  84  83  83  84  86  89  93  96  99  99 102 102 101 103 104 107 109 114 121 130 136 137  84  23  15  14  15  15  18  19  20  29  32  28  74 120 159 160
 191 191 191 192 190 190 190 189 190 189 188 184 185 175 178 166 156 148 136 134 126 124 122 121 119 114 111 107 102  94  89  85  87  89  93  91  89  84  80  84  89  90  88  89  86  82  83  83  82  83  82  85  85  84  86  85  84  83  84  86  91  95  96  96  99  99 102 102 102 104 108 111 118 126 133 139  83  22  16  14  14  15  18  18  20  30  34  27  85 134 159 162
 195 193 193 192 191 192 192 191 192 189 189 186 186 178 176 171 155 142 134 127 124 120 121 117 114 110 109 103  96  92  86  86  88  91  92  92  91  88  85  84  86  86  84  84  82  80  80  82  82  87  88  87  86  87  86  87  86  83  84  84  85  90  92  92  95  96  98 100 101 104 106 109 117 126 134 140  74  23  16  14  15  14  17  19  21  27  34  29  92 147 162 162
 195 196 195 194 194 194 195 193 194 191 189 187 186 181 176 173 155 139 132 125 123 121 117 115 112 109 105 102  94  89  86  86  89  91  93  92  92  97  90  86  83  84  79  79  75  75  77  81  88 102 102  92  89  89  91  89  87  83  81  82  85  86  88  90  91  93  94  97  97 103 107 110 115 124 133 136  68  21  16  14  15  14  16  17  18  27  35  37  93 161 164 164
 197 195 196 196 196 196 195 193 191 191 189 190 187 186 175 175 160 139 130 123 121 117 114 113 110 106 102  96  92  88  86  86  89  91  93  92 100 116 110  90  76  81  75  72  69  74  80  89 105 117 115 106  95  94  93  91  91  87  84  78  79  84  85  88  91  91  93  95  99 105 107 110 114 123 135 135  59  21  15  14  15  14  16  18  20  30  41  40  92 165 170 167
 198 197 197 198 197 197 196 195 191 192 190 190 189 186 177 177 160 141 129 122 116 114 113 110 108 104  97  93  88  87  84  87  92  92  93 100 114 136 134 108  87  83  79  77  78  82  85  94 104 108 109 110 103  97  98  98  95  92  90  84  82  80  80  85  87  91  91  94 103 104 107 110 116 125 131 132  48  19  17  15  13  14  15  18  20  33  37  46 103 167 172 169
 201 199 200 200 199 201 197 195 193 193 190 191 190 186 181 174 163 144 127 122 119 114 114 110 107 103  94  89  87  86  87  92  95  94  97 106 118 118 113  96  86  82  78  79  79  78  78  79  80  80  80  82  83  83  87  94  96  95  92  85  79  77  80  82  86  90  91  96 103 107 109 112 116 123 129 125  34  19  16  15  14  13  15  17  21  32  32  53 125 168 173 171
 203 200 203 201 202 200 199 198 195 193 192 192 190 184 182 171 162 146 130 123 120 117 114 111 108 103  93  87  86  87  91  95  96  96  94  91  86  82  82  78  76  75  73  75  76  72  73  71  70  72  71  70  68  69  68  70  68  65  66  68  66  71  79  81  87  95  93  98 104 106 109 111 116 124 129 111  28  19  16  15  15  13  15  17  19  30  31  51 141 172 173 173
 203 202 202 202 202 201 201 199 197 194 191 190 190 186 184 172 160 148 131 126 121 121 116 113 110 102  91  87  87  88  89  92  92  81  76  72  78  73  74  75  76  80  78  76  75  73  76  76  72  73  78  75  75  85  75  66  45  28  26  41  60  71  76  76  91  98  94 100 104 107 109 109 114 120 124  89  31  17  16  17  15  14  14  17  19  36  33  64 155 174 174 172
 204 204 204 203 202 202 201 199 198 196 194 194 190 188 186 163 139 148 134 125 123 119 118 113 110 105  95  89  89  83  78  70  49  34  62  80  92  86  90  88  91 107 104  92  87  92 101 102  89  88 103  98  89 101  87  69  40  26  35  53  67  77  78  79  93 102 101 104 105 108 108 109 113 117 119  61  29  19  18  17  14  15  15  16  20  35  33  77 159 173 174 173
 203 202 203 200 200 202 198 200 198 196 193 194 190 187 186 162 118 136 133 125 124 120 120 118 112 108  99  92  88  80  75  59  35  26  57  86 108  94 107 105 108 127 124 116 100 115 122 122 111 110 121 119 100 104  73  54  36  41  54  73  78  82  81  85  96 103 104 105 107 108 108 108 111 113 106  32  27  18  24  19  16  15  15  16  19  30  33 100 162 171 173 173
 203 200 202 201 201 200 199 199 198 196 193 196 189 188 180 158 113 110 134 125 123 119 120 118 114 111 103  97  91  84  81  71  51  38  45  78 105 104 117 117 119 132 132 129 117 122 128 130 121 115 123 115  80  95  49  44  52  60  73  83  87  87  86  88  98 102 103 106 106 108 107 107 109 108  70  24  22  18  24  17  15  14  14  18  22  34  32 128 161 170 173 174
 203 202 202 201 200 199 199 198 196 196 193 194 189 187 179 153 113  86 134 126 123 122 120 116 115 111 106  99  94  89  86  82  74  56  51  60  87  68 111 116 121 127 128 130 116 122 122 122 115 100 108  85  51  67  65  66  69  78  87  91  92  90  90  93  98 104 104 105 106 106 105 105 108 104  39  19  19  17  20  17  15  14  15  16  27  37  43 145 163 171 174 175
 204 204 201 202 200 201 197 198 199 198 195 191 189 188 177 154 107  76 109 127 123 120 119 115 114 112 110 103  95  93  90  90  89  74  62  63  66  54  79  87  91 119 118 108  89 107 109 100  76  62  65  67  69  72  74  75  79  90  93  97  95  94  92  94  98 104 104 105 104 104 103 103 102  75  22  17  16  17  19  16  15  15  14  17  30  35  66 160 170 171 172 175
 202 203 202 201 201 200 198 200 198 198 195 191 190 186 179 157  95  67  73 125 121 120 118 115 115 114 112 104  99  98  96  94  93  87  75  73  74  71  70  61  57  64  63  64  66  64  71  72  74  74  78  80  79  78  81  83  88  96  98  96  98  95  94  96  99 103 104 103 103 104 102 100  96  40  19  15  15  18  18  16  15  15  14  18  31  36  82 166 172 172 172 175
 204 203 202 200 203 200 200 200 200 199 195 189 191 184 178 150  89  60  53  97 120 119 116 115 113 111 109 105 101 102 101  98  97  94  86  77  78  80  80  79  80  78  78  79  81  84  84  84  81  80  84  86  82  80  82  90  96  97  99 100 100  94  96  98 101 102 103 102 103 103 100  95  67  18  17  14  16  19  19  15  16  14  14  18  32  42  94 167 173 174 175 175
 205 204 202 203 203 201 201 200 198 198 195 191 188 185 176 147  73  55  54  64 114 118 116 115 114 111 109 105 101  97 100 100 101 100  96  89  83  81  84  87  88  86  84  84  84  84  82  85  82  81  82  82  79  80  89  96  98  98  97  99 102  98 100 102 102 103 102 101 101  99  97  89  29  15  15  15  16  20  21  16  17  15  16  20  34  39 129 168 172 176 176 176
 205 203 203 202 202 202 200 201 199 198 193 193 189 189 170 127  57  51  49  49  69 113 113 111 111 111 110 106 102  99 102 104 102 101 102  99  91  85  85  84  87  88  86  86  84  84  82  81  79  80  79  79  82  88  96  96  97  97 101 102 103 103 102 101 103 100 101 100  98  97  94  50  18  13  16  16  20  22  23  17  17  16  17  21  38  38 144 167 174 176 176 176
 206 204 204 204 202 202 199 199 199 197 193 191 189 187 170 100  55  52  43  39  26  89 108 108 108 109 111 107 106 104 104 104 102  99 100  99  99  94  91  88  85  86  83  86  84  84  82  82  81  80  82  85  90  93  95  97  99 103 106 105 107 106 104 104 103 102  98  96  97  94  71  20  13  11  16  19  23  24  25  18  18  16  18  27  46  48 149 169 176 176 176 176
 203 205 206 204 203 202 202 202 199 198 197 193 191 185 159  70  54  47  38  35  24  33  97 106 107 109 111 109 109 106 105 104 101  99  98  98  99  96  94  92  90  88  87  87  86  85  82  83  85  86  87  87  89  92  94  98 103 106 107 108 110 109 107 103 103  99  96  96  91  83  37  16  12  11  14  23  24  27  27  21  17  16  20  29  49  67 160 171 177 176 176 178
 204 204 204 203 203 202 202 201 200 199 198 194 190 180 121  66  52  41  38  35  22  22  46 102 107 108 110 108 108 108 105 104 101  98  98 100  98  97  96  95  94  91  87  85  87  88  86  87  87  88  88  89  90  92  97 102 109 112 111 115 115 111 109 105 103 100  94  92  87  46  25  15  11  12  17  25  25  27  30  28  18  17  23  32  48  82 170 175 178 180 176 181
 206 205 204 204 203 203 201 200 199 197 197 195 190 160  85  52  46  37  39  31  19  19  22  61 101 103 108 108 108 107 104 102 102 100  98  97  98  94  96  95  93  90  86  85  86  84  85  87  87  88  91  93  94  96 102 109 114 117 118 117 120 117 112 106 101  95  93  85  56  23  21  15  12  12  18  26  25  26  29  28  22  22  25  40  54 115 172 176 177 181 180 178
 206 204 206 204 203 203 203 202 201 200 195 192 186 112  61  50  37  34  35  25  19  18  19  22  74  97 104 107 109 109 106 106 105 103 100  95  96  94  93  93  92  89  88  86  84  86  85  88  90  93  95  99 103 107 111 116 122 122 120 120 123 116 111 103  97  90  85  58  22  18  18  15  13  12  19  26  26  25  29  32  25  25  30  53  59 141 176 177 178 179 182 180
 206 206 206 204 203 205 202 199 201 197 190 188 158  77  56  40  31  31  33  22  17  16  18  25  35  71  97 103 108 108 108 109 108 105 104  99  95  95  96  93  93  91  90  90  89  88  88  91  93  96 103 107 109 111 117 123 123 123 122 124 122 114 107  98  93  84  59  17  15  12  16  14  13  12  18  25  26  24  30  32  27  29  32  75  59 155 177 178 178 180 181 179
 208 205 206 204 205 204 202 200 201 197 193 175 111  70  46  37  31  27  30  21  15  16  17  25  23  30  75  94 100 104 109 110 109 105 107 105 101 101 101  98  98  97  97  98  97  95  96  99 101 105 109 110 112 120 123 123 124 124 122 121 117 112 101  92  82  56  20  13  13  12  15  14  13  11  16  24  25  26  32  32  35  34  40  85  68 166 175 179 178 181 179 180
 206 207 205 204 203 203 203 201 197 191 177 135  96  55  38  32  28  27  26  18  15  16  15  29  17  27  42  69  90  98 105 111 111 108 109 108 106 104 105 104 105 105 106 105 102 102 102 102 104 106 109 112 114 117 120 120 121 120 118 117 110 100  92  81  51  21  13  12  11  12  12  14  13  11  16  23  25  26  31  32  42  45  46  96  97 167 176 180 179 179 179 178
 206 206 205 204 202 199 199 197 192 172 144 106  69  46  37  30  25  28  23  18  14  15  18  24  16  24  45  33  54  88  99 107 109 110 109 108 107 108 109 108 107 107 110 109 108 106 104 103 104 106 109 110 113 116 115 115 116 114 112 108 101  92  77  48  23  14  12  12  10  13  11  14  14  11  15  24  26  26  30  38  47  46  57  86 118 172 175 178 179 180 179 181
 205 205 205 202 202 201 198 191 172 145 117  78  58  44  33  25  25  27  22  16  14  15  22  17  14  27  36  33  21  44  83  97 103 106 107 106 108 108 108 106 106 109 107 106 104 106 102 100 103 104 106 105 107 111 112 109 107 106 103  97  88  76  46  24  16  12  13  10  10  12  12  15  11  12  15  23  27  25  28  41  50  49  72  62 136 170 175 177 177 179 181 179
 204 204 204 200 196 195 186 171 142 122  89  80  59  37  29  25  25  29  20  16  14  15  21  15  13  24  31  26  16  22  31  74  92  98 102 101 106 108 107 105 104 102 105 104 104 102 101 100  99 102  98 100 101 103 101 100  99  97  92  82  69  39  24  18  13  14  11  10   9  11  11  16  11  11  14  24  27  23  26  36  45  41  54  46  71 100 118 141 152 152 148 147
 204 202 201 195 193 188 176 161 145 146  92  70  47  32  26  25  27  40  18  16  13  14  19  15  14  17  24  24  15  17  21  23  61  88  94  99 101 103 104 103 102 100  99 100  99  98  98  98  97  96  96  97  93  96  93  92  89  87  77  61  35  26  18  14  14  12  10   9  10  11  10  14  11  11  14  23  25  24  23  32  39  36  34  33  26  27  25  27  31  32  28  27
 203 201 201 196 190 175 171 169 140 116  92  65  42  32  30  24  34  42  15  14  13  11  16  13  15  16  20  21  16  13  18  17  24  50  80  89  92  95  96  96  97  94  94  94  93  93  93  91  90  89  90  88  88  88  84  82  77  71  51  33  24  20  14  15  13  10   9   9  10  11  12  15  11  11  14  23  24  24  22  28  30  32  30  25  18  19  18  18  21  20  19  22
 198 196 192 185 182 179 174 150 134 100  86  47  46  34  31  27  50  22  16  15  12  13  16  12  15  14  17  18  18  13  14  15  16  24  31  56  80  86  88  91  91  90  90  88  87  88  87  87  86  85  86  83  80  79  75  70  53  40  30  24  19  15  13  12   9   9   9   9  11  10  11  16  10  11  16  25  24  22  21  26  30  28  27  19  16  19  17  15  15  16  18  18
 195 192 194 193 183 175 167 152 127  99  66  53  70  34  27  37  32  18  15  13  12  13  15  12  14  12  18  17  16  11  11  13  15  16  23  24  34  55  77  81  82  84  83  82  81  80  78  75  77  76  74  73  71  64  54  40  33  29  24  19  14  14  12  10   9   8   9   9  10   9  12  13  10  11  16  22  23  21  20  27  30  29  26  17  16  19  17  16  16  16  17  16
 198 197 194 189 183 176 164 142 113  70  74  82  39  31  28  33  24  17  15  13  12  14  15  12  11  11  19  15  15  12  11  11  13  13  17  19  20  24  29  46  59  66  68  70  69  66  64  60  62  58  55  51  45  38  32  29  25  23  19  16  13  11  10   9   9   9   8  10  10   9  14  11  11  12  19  23  23  22  22  26  29  27  25  18  15  17  16  17  16  15  16  16
 196 193 194 189 176 166 138 112  93 110 109  48  35  30  31  27  22  18  14  12  12  14  15  12  10  11  16  16  16  12  11  11  12  12  13  15  16  16  18  22  26  31  34  38  39  39  40  40  40  37  36  32  29  27  24  23  20  17  14  12  12  11  10   9  10   9  10  10  11  10  12  11  11  14  21  24  21  20  20  24  28  28  25  16  14  18  14  13  12  13  14  14
 197 195 190 178 164 140 143 114 129  79  47  41  31  30  30  24  19  17  14  13  12  14  15  13  10  12  15  15  15  13  11  10  11   9  11  12  13  14  14  16  18  21  22  24  25  26  27  27  28  26  25  24  21  18  16  14  12  12  11  10  10  10  10   9   9   9   9  10  10  10  11   9  10  14  23  20  21  19  17  20  27  28  25  14  13  14  12  12  12  11  13  16
 198 187 172 160 152 145 102  73  51  51  42  36  31  30  26  24  18  15  14  12  12  13  14  11  10  12  14  14  15  14  12  10  11   9  11  11  12  11  12  12  12  15  16  16  17  17  19  18  19  17  15  15  14  13  11  12  10  10  10   9  10   9  10   9   9   8   9  10   9   9   9   9  12  18  20  19  18  18  14  14  22  26  26  18  13  11  11  12  12  11  10  11
 180 157 130 133  99  64  49  43  44  43  41  33  31  28  23  22  18  14  14  16  16  13  13  11  11  10  12  13  15  14  12  11  11  10  10  10  12  12  12  11  12  13  12  13  12  13  13  13  14  11  11  11  11  10  10  10   9  10  10  10   9   9   9   9   9   9   9  11  10  10  10  11  16  21  19  16  17  16  11  12  18  23  25  20  14  11  11  10  11  10  11  10
  90  54  46  46  44  40  36  37  38  40  35  32  31  26  22  18  17  16  18  15  13  15  15  12  10  11  12  13  14  14  14  12  11  10  10  10  12  11  11  10  12  12  11  11  12  11  11  12  12  11  10  10  10   9   9  10   9   9  10  10  10   9   8   9  10  10  10  11  11  11  14  16  19  18  16  15  18  14  11  12  16  18  23  22  15  12  12  11  10  10  10  11
  47  42  39  37  35  34  34  34  36  35  33  28  26  25  22  17  16  16  22  15  12  14  15  11  10  11  12  12  14  14  14  11  11  11  10  11  11  10  11  11  12  10  10  10  10  10  10  11  11  10  10  10   9  11  10   9   9  10   9  10  10   9   9   9   9   9  11  10  11  12  12  17  18  16  16  14  17  13   8  10  13  16  20  24  19  12  11  11  10  10  11  11
  40  35  36  33  30  30  32  36  34  31  31  28  26  25  21  17  16  19  18  16  14  14  14  11  11  11  11  11  13  14  13  12  12  12  11  12  11  11  11  11  12  11  10  11  10  10  10  11  12  10  10   9   9  10  11  10   8  10   9  10  10   9   9   9   9  10  11  11  13  13  14  17  15  16  15  11  16  13  10  11  13  16  19  19  22  16  14  11  11  11  10  10
