P2
# Generated by OpenCV 3.4.0
92 112
255
 132 133 134 134 134 137 136 134 135 136 138 136 138 139 138 138 136 136 136 137 138 137 138 138 138 139 139 140 137 140 141 140 140 141 140 139 140 142 139 137 138 140 140 139 140 141 141 141 142 140 141 140 142 140 139 141 140 140 140 140 140 141 140 140 139 139 138 139 141 141 139 138 139 139 139 139 139 138 138 138 136 135 136 138 134 134 135 135 135 135 136 134
 134 135 134 133 134 136 135 136 135 137 136 136 136 137 139 139 138 137 139 138 141 138 138 139 140 141 140 140 138 140 142 142 143 142 142 139 139 140 140 142 141 140 140 139 139 141 142 138 141 141 142 140 140 140 141 141 139 139 139 139 140 139 141 141 141 142 139 139 139 140 140 140 139 139 139 140 140 138 139 136 137 136 138 138 136 136 137 137 136 135 136 135
 133 134 136 136 135 136 135 135 137 138 137 137 137 137 138 139 140 140 140 139 141 139 140 140 140 141 141 141 140 141 143 142 143 141 141 139 142 142 142 140 139 140 140 139 141 139 140 140 142 141 141 140 141 142 142 140 140 140 140 141 142 142 139 139 141 140 138 140 142 141 139 139 140 141 140 138 139 138 139 138 139 139 137 138 136 139 138 136 137 137 135 136
 134 135 135 135 136 137 135 136 138 138 137 138 138 138 138 138 140 140 138 138 141 141 142 140 140 141 142 142 142 140 141 142 143 141 140 141 142 141 142 141 141 142 141 141 141 138 139 141 141 142 141 140 141 141 141 140 141 141 142 141 142 142 142 141 140 140 140 141 140 139 141 141 140 141 140 139 139 138 140 139 139 140 138 138 138 138 138 136 137 138 137 136
 133 133 137 136 136 137 136 138 137 137 138 140 139 137 138 139 140 140 140 139 141 143 142 142 141 142 142 141 143 144 143 140 140 142 140 141 142 142 141 142 142 142 141 140 141 141 141 141 140 141 142 141 140 142 142 143 141 141 141 141 142 141 142 141 141 143 140 141 140 141 141 140 140 140 140 140 142 139 140 139 139 139 139 139 138 138 138 138 138 136 136 137
 136 135 135 138 136 137 138 139 139 138 141 139 141 140 140 142 142 141 139 139 142 143 141 142 142 142 142 142 142 144 144 139 142 140 141 141 142 142 141 142 141 140 141 139 141 142 141 143 142 141 142 143 143 144 142 141 141 141 142 143 141 142 143 143 142 143 142 142 142 141 141 140 139 141 140 140 139 139 139 140 140 140 141 139 138 138 139 138 138 138 138 138
 137 136 136 137 137 139 137 137 139 138 137 138 141 141 142 142 142 141 142 140 141 141 142 142 141 142 143 143 142 143 140 141 142 138 143 142 140 136 133 131 128 131 133 133 136 140 139 140 141 140 141 141 139 142 141 140 141 142 143 142 143 144 144 143 143 142 142 141 140 141 141 142 141 142 141 140 140 140 142 141 141 138 137 140 139 139 139 139 138 139 137 138
 134 136 136 138 137 138 139 137 140 139 138 139 140 140 141 141 141 140 143 141 141 141 141 141 142 142 143 141 142 142 137 140 137 133 131 128 120 110  97  88  75  70  74  83  92 107 122 131 134 136 137 138 137 141 143 142 143 143 142 141 143 144 144 142 142 142 143 142 143 143 141 140 141 141 140 141 139 140 141 141 139 141 139 140 140 139 139 138 138 138 138 139
 135 137 136 138 138 139 138 139 140 141 141 141 140 140 140 140 141 140 141 141 140 142 144 143 143 141 142 141 143 138 132 130 133 125 106  91  76  63  56  53  52  48  47  48  50  54  56  65  90 114 131 135 136 138 142 142 142 143 143 141 143 143 143 143 143 144 144 142 141 144 143 142 142 143 142 142 142 142 141 140 141 141 141 141 140 142 140 140 141 140 138 139
 136 136 136 138 137 137 139 137 138 140 140 140 140 139 141 141 141 143 142 142 140 141 142 142 139 142 140 137 132 130 131 114  98  82  69  70  63  61  56  47  43  39  38  37  40  45  52  68  81  74  78  98 125 134 137 138 142 144 143 142 143 142 143 143 142 143 144 142 142 143 143 142 142 142 143 141 141 141 142 140 141 141 142 141 140 140 141 140 139 138 139 138
 101 116 132 136 135 137 138 137 137 140 141 141 140 141 142 140 141 141 140 139 140 142 142 140 140 137 130 132 128 107  83  76  74  73  70  62  50  46  40  38  37  37  35  33  34  37  38  45  58  81 104  78  68  90 123 136 140 141 142 143 142 143 143 145 144 144 144 142 142 143 143 143 143 143 141 143 142 142 142 141 141 142 143 141 141 141 141 141 140 139 138 137
  96  84  69  65  73  76  87  96 110 124 134 136 138 138 140 141 141 143 142 141 140 143 140 138 137 134 129 106  70  63  74  74  69  58  50  42  38  33  29  30  29  30  30  30  30  29  29  35  38  48  66 117 109  70  70 113 136 139 142 143 142 144 144 145 145 143 143 143 144 143 143 143 143 143 144 144 144 143 141 141 142 141 141 141 140 140 140 140 140 138 138 139
 136 135 134 136 134 131 122 104  96  84  74  70  76  91 113 125 136 139 140 137 139 140 135 131 129 124  86  57  63  63  65  61  50  44  36  34  31  27  28  30  31  32  32  30  30  26  25  27  29  34  44  58  95 125  89  64  96 129 137 141 143 144 144 143 144 145 143 143 142 144 142 143 143 143 144 143 143 139 141 142 142 142 142 142 142 141 142 141 141 140 138 140
 138 138 138 138 138 136 139 138 139 135 139 137 127 116 103  91  73  77 101 127 136 131 129 123 118  76  56  58  58  56  54  47  39  33  31  30  30  31  31  35  33  30  26  25  28  25  24  24  25  28  33  39  54  86 125  99  62  94 127 137 143 143 143 144 144 144 144 142 143 142 144 143 143 141 143 143 142 140 142 141 142 141 141 142 143 142 139 140 141 140 139 139
 139 138 138 138 140 141 139 140 138 140 143 139 140 139 140 138 140 129 111  83  76  93 112 124  82  55  50  53  68  49  47  41  38  36  35  30  35  37  36  31  28  27  26  25  26  27  25  25  24  25  27  30  37  50  73 115 102  86  99 131 141 142 143 144 142 144 143 142 142 142 142 144 144 144 142 142 140 141 142 141 142 142 142 141 143 140 140 139 139 140 139 139
 138 139 139 139 138 138 138 139 137 140 142 140 141 140 139 141 142 141 136 128 117  91  75  76  58  50  48  52  56  46  48  44  43  42  41  40  37  33  31  32  32  30  28  26  29  29  25  25  25  22  23  25  28  37  47  57  87  99 104 106 133 140 142 142 143 144 143 142 143 143 143 143 143 142 143 143 142 143 142 141 142 141 141 141 141 139 140 139 139 139 138 138
 137 137 137 139 139 140 139 138 141 139 139 141 140 139 141 142 141 140 135 127 113 110 112  68  50  43  47  46  44  46  44  45  44  41  38  36  34  37  36  36  33  30  30  29  27  30  26  24  24  24  22  22  24  28  38  48  53  62 108 110 120 134 142 143 141 141 141 142 142 143 142 142 142 142 140 142 139 140 140 140 138 139 138 139 139 136 137 135 137 136 135 133
 137 136 137 138 138 138 139 138 137 141 140 140 139 139 139 137 136 135 128 125 104 107  92  57  42  37  41  40  39  45  36  34  38  41  44  45  49  53  57  55  47  45  39  37  34  36  28  27  25  23  23  23  22  21  26  39  46  51  49  86 105 127 137 138 138 137 138 137 137 137 134 133 131 128 125 125 122 122 117 113 110 108 103 101 100  98  98  95  92  88  90  86
 137 136 136 135 129 136 137 137 136 137 136 136 138 137 139 137 135 132 128 119 106  99  68  56  39  35  35  36  36  35  34  38  47  61  70  81  86  90  92  82  71  70  62  59  54  50  43  38  31  28  26  26  25  24  22  29  45  50  54  46  63  77  90  95  94  93  89  91  89  91  90  88  93  94  97  98  98  99 100 102 106 108 108 110 108 111 112 113 116 116 119 118
 132 132 131 128 117 128 127 126 127 128 125 121 122 122 121 120 116 113 108 100  91  71  77  62  42  38  42  33  32  36  53  70  94 104 111 114 113 111 108 102  91  97  92  88  83  75  68  63  55  42  34  28  25  26  24  24  30  44  53  54  49  60 100 114 121 123 125 126 125 127 125 126 129 127 127 129 131 132 132 132 132 132 132 132 134 133 135 136 135 136 135 135
  91  87  89  93  89  96  89  91  91  97  96  96  97 100 100 103 104 104  99  93  77  67  64  63  53  44  39  32  53  90 115 127 135 140 145 148 142 139 136 133 120 114 115 117 120 114 104  91  79  72  63  48  32  27  26  24  24  34  47  53  55  52  67 115 135 140 142 141 142 141 142 143 142 142 141 141 142 142 141 141 142 140 140 141 140 140 140 139 140 139 138 138
 124 123 128 127 127 128 130 132 131 134 135 135 138 135 136 135 134 133 125 122  84  85  73  56  51  46  47  77 128 156 168 179 183 183 185 182 175 169 164 161 154 143 137 136 139 142 139 132 121 109  86  80  67  44  31  26  25  25  37  43  58  55  54  61 112 138 142 142 144 143 144 142 144 142 142 142 141 143 142 142 142 141 142 142 141 142 140 140 138 140 139 138
 139 139 140 139 141 138 140 141 142 142 143 143 143 142 141 143 140 135 129  96  88 109  74  55  53  91 135 175 198 220 216 215 216 209 200 192 183 179 175 169 164 160 155 151 150 152 152 154 150 143 132 113  92  75  53  33  27  25  28  37  48  58  57  54  65 109 138 143 142 143 144 143 144 143 143 141 142 142 142 141 141 141 143 142 141 141 141 141 140 140 139 139
 141 141 141 140 139 140 141 142 142 143 144 144 144 144 143 140 138 135 122  82 113  82  62  60 135 177 202 225 228 228 225 224 220 202 195 187 181 176 174 172 169 165 164 161 161 157 157 159 159 156 154 150 134 104  77  60  39  27  26  28  37  48  58  54  54  62 114 140 144 145 144 143 144 144 144 142 141 143 143 142 142 143 141 143 140 142 142 141 140 139 138 139
 138 140 141 141 142 143 142 144 144 144 141 142 142 143 143 140 132 130  94  84  76  60  70 144 183 213 229 238 232 231 231 223 214 203 192 183 177 172 170 168 164 162 160 161 160 158 157 159 159 160 162 162 156 144 113  73  60  42  27  24  29  35  50  54  55  54  67 120 142 144 144 144 144 143 145 143 143 143 143 143 143 142 141 142 142 141 141 141 142 139 140 138
 141 142 144 143 143 144 144 145 144 144 144 144 143 146 144 137 134 114  85  74  68  80 162 192 213 228 232 233 234 232 224 212 204 196 188 179 174 165 162 163 158 155 152 152 151 150 150 152 154 160 163 164 163 162 148 115  73  58  46  29  26  29  41  49  53  52  57  70 125 142 144 145 145 143 145 142 143 143 144 143 142 143 142 142 142 141 142 140 141 141 140 139
 144 143 141 143 144 144 144 145 146 145 146 146 144 145 145 136 129  93  88  84  81 163 192 212 221 225 227 232 227 219 210 203 202 188 180 173 165 161 157 158 149 139 147 147 142 142 140 142 148 153 158 161 163 163 159 150 113  75  62  47  29  25  31  44  51  51  50  55  74 134 145 144 144 145 144 144 144 142 144 144 143 143 143 141 143 142 140 139 142 142 142 140
 144 144 144 145 144 143 144 144 145 146 146 147 146 146 141 134 112  92  91  87 152 189 198 204 207 210 215 214 209 199 195 190 163 139 165 162 160 157 149 144 145 145 142 139 137 136 136 138 140 143 149 154 155 157 158 156 148 107  74  60  41  28  27  35  46  49  49  51  56  84 137 143 145 142 144 144 144 143 143 145 145 143 143 143 143 143 141 140 141 140 140 140
 143 143 145 145 147 146 146 145 146 147 148 145 146 145 138 128  91  96  86 133 188 193 194 192 194 194 197 199 195 188 184 178 151 151 160 159 155 149 145 140 136 137 137 136 134 129 130 136 137 141 145 149 151 154 155 157 151 142 104  72  57  37  26  29  36  44  47  49  50  56 108 141 145 145 145 143 145 144 144 143 144 143 144 144 143 143 143 142 142 141 141 139
 144 145 144 145 147 148 146 146 147 148 148 148 147 147 137 110  92  89 104 176 189 186 186 186 186 184 184 184 181 178 175 171 166 160 158 154 148 141 139 139 136 137 135 134 130 127 128 128 135 140 142 147 148 152 156 156 156 149 139 108  75  50  32  27  31  38  44  45  46  55  58 129 143 144 144 144 145 144 144 143 143 144 144 143 143 143 142 142 142 143 140 139
 144 146 145 145 145 147 146 149 146 148 148 148 148 144 132 102  98  76 160 184 186 185 185 185 179 175 173 175 175 174 170 169 164 162 159 152 147 141 140 139 141 138 136 132 129 128 128 130 134 138 141 144 146 148 149 149 150 151 150 140 102  67  40  28  29  33  37  40  44  44  59  84 140 144 144 144 146 144 144 144 144 145 143 143 143 144 144 143 142 142 142 138
 145 145 146 146 147 149 147 149 147 149 148 148 147 143 131  93  84 114 178 184 182 183 182 180 175 172 171 172 169 172 169 168 163 161 156 149 141 142 140 140 138 136 136 132 130 127 127 129 130 132 139 144 146 149 148 150 151 151 153 151 132  88  57  38  29  30  35  38  40  42  46  52 118 143 145 144 145 144 143 144 146 144 144 142 143 142 144 143 143 141 141 139
 147 146 148 146 147 148 149 148 149 149 148 147 146 142 125  88  74 151 181 184 183 183 180 176 174 173 172 171 169 164 165 161 159 155 149 142 136 137 137 139 136 136 135 131 129 128 126 129 129 132 136 140 144 147 148 150 152 151 152 150 148 121  82  51  34  30  33  35  36  39  40  50  69 136 143 144 145 145 144 143 145 145 144 143 142 143 143 142 142 142 143 139
 147 146 148 147 146 148 149 150 149 148 147 146 144 136 115  76  93 168 183 181 181 181 178 175 174 172 173 169 166 161 156 150 149 143 139 133 130 130 128 129 130 129 128 128 126 124 125 123 124 128 134 137 141 143 144 148 149 150 150 147 148 142 109  69  43  29  31  34  34  37  38  40  46 109 140 145 144 144 144 144 144 144 143 143 143 142 142 143 141 142 141 141
 146 147 147 148 147 149 148 147 148 148 149 148 143 131 116  74 129 175 181 180 180 181 178 176 172 174 168 164 157 152 146 142 139 135 130 125 124 125 122 123 122 121 120 119 120 120 119 120 120 124 130 136 140 143 144 146 147 148 149 149 147 147 133  93  60  35  30  31  34  36  36  37  45  64 137 143 144 145 145 145 144 143 143 144 145 144 144 144 141 143 141 142
 147 149 148 146 148 150 150 148 150 149 148 148 142 131 101  83 153 175 180 180 180 182 182 180 177 172 163 157 152 142 137 134 131 125 123 119 120 117 118 119 114 113 111 111 112 113 113 117 118 122 125 131 138 143 147 148 150 149 147 147 146 147 142 118  78  45  29  28  34  36  34  36  37  44 115 142 145 146 146 146 144 144 144 144 144 143 144 144 144 144 143 141
 147 149 148 148 150 151 151 149 150 150 148 149 140 128  80 102 167 176 180 181 182 182 180 179 171 161 151 143 140 133 127 126 123 119 118 116 114 112 112 111 109 106 104 106 105 107 109 111 111 113 118 126 131 141 146 150 156 156 154 150 145 147 146 133  96  58  35  29  32  33  34  34  36  41  69 139 145 146 146 144 144 145 144 143 144 144 143 143 143 143 142 143
 150 150 150 148 151 149 150 150 151 151 148 147 139 121  66 124 170 177 181 183 184 184 180 172 161 150 140 134 128 125 120 118 118 115 115 115 111 110 112 107 106 105 105 104 102 102 104 106 108 110 111 117 124 134 141 143 150 156 158 153 148 146 146 139 113  74  41  31  28  31  32  34  35  34  36 118 141 144 145 146 144 144 144 144 144 144 144 142 143 143 142 141
 150 149 150 150 147 149 151 151 151 151 149 145 141 103  73 142 172 179 183 183 187 182 173 163 152 144 134 126 121 118 113 113 114 111 113 113 110 110 109 108 104 103 100 100  97  96  95  94  94  92  94  98 105 114 122 127 136 153 156 156 148 146 148 141 125  89  52  35  28  30  33  32  35  34  36  74 138 143 146 145 145 145 144 145 143 143 143 144 144 142 142 142
 149 150 151 151 150 151 149 150 152 152 149 145 142  90  69 151 174 181 182 180 176 167 156 146 132 123 120 115 114 113 111 111 110 107 112 110 107 108 106 103 100 100  98  96  88  85  80  77  77  78  77  83  86  90 100 109 116 125 140 150 150 147 147 143 131 100  62  39  29  26  31  30  32  34  35  38 128 142 144 145 145 145 145 145 144 143 145 143 144 143 143 143
 151 150 151 150 150 151 148 150 151 151 149 147 141  82  74 160 175 182 178 171 161 145 129 118 106  96  90  92  94  99 100 105 104 105 109 109 108 106 104 103 100  99  95  90  79  76  71  71  70  68  69  72  73  76  87  97 107 115 123 131 141 144 145 145 138 109  74  45  31  25  28  28  33  34  33  32  92 137 145 146 145 146 146 146 144 145 144 144 143 144 143 142
 152 150 151 151 151 151 151 152 150 152 152 149 128  79  79 163 176 180 169 160 147 126 111  96  88  82  79  78  82  87  94  99 102 104 107 109 108 106 103 101  99  96  92  85  80  76  72  70  71  70  68  69  69  72  81  91 100 107 116 122 127 137 144 147 143 122  85  52  36  25  25  28  31  34  33  33  58 135 144 145 144 146 146 147 145 145 144 143 143 143 143 142
 152 152 150 151 151 152 151 152 151 153 153 150 123  67  85 164 178 169 153 147 136 113  90  80  76  78  80  79  82  90  92  95  99 104 106 108 107 105 102 102  99  96  91  86  82  81  78  79  78  78  80  83  83  84  89  92  99 111 111 116 123 129 143 148 145 131  94  60  43  27  24  26  29  31  33  35  33 121 143 146 146 146 146 146 144 145 145 145 143 143 143 144
 151 151 150 152 152 154 150 152 152 152 153 150 123  58  90 168 168 152 147 134 122 109 100  95  89  88  87  86  88  92  93  96 101 104 106 107 107 105 103 104 101  96  91  89  87  86  85  83  82  83  84  87  86  90  96 102 105 113 114 118 124 127 139 148 149 139 106  68  49  31  24  24  27  30  32  35  35  84 138 145 145 145 144 144 143 145 145 145 143 143 144 144
 152 150 153 151 152 154 152 153 153 153 154 151 112  53  91 166 155 150 142 130 125 115 108 104  96  92  89  88  91  94  98 100 103 106 107 107 105 105 103 102 103 100  94  92  90  89  86  83  82  83  86  89  91  98 103 110 113 112 115 120 127 134 140 150 152 144 121  75  55  32  25  23  26  28  32  34  35  54 134 145 144 147 146 143 147 146 145 146 144 144 143 144
 155 152 154 153 156 158 158 155 156 155 157 154 110  53  87 163 157 151 141 132 125 120 112 106 102  94  88  85  87  91  96 100 103 105 104 105 105 105 104 103 101  99  94  93  90  86  84  81  81  83  85  88  89  94 103 109 113 116 114 120 122 132 140 146 152 150 131  88  64  37  27  21  24  25  28  33  37  37 119 144 147 147 146 147 147 146 145 146 146 145 145 144
 159 159 156 157 160 162 162 160 161 160 161 161 110  52  87 163 157 147 143 138 132 123 117 111 103  95  85  82  84  86  92  97 102 104 105 104 105 105 103 102 101  98  93  89  85  83  81  80  80  79  79  83  89  95 102 106 110 114 113 115 117 121 134 144 152 152 142 101  70  45  28  22  23  25  26  31  36  40  85 139 145 146 146 147 145 146 145 144 146 144 145 144
 162 162 160 160 162 162 165 163 162 160 164 163  99  51  95 165 153 142 144 135 128 121 117 114 101  89  84  81  82  82  87  92  98 102 103 108 107 105 103 101 100  96  90  86  83  80  77  76  75  75  80  82  87  91  96 102 109 110 114 118 118 117 121 134 149 151 149 116  78  57  29  22  19  23  25  28  32  37  65 138 144 146 149 147 146 146 146 146 146 145 146 144
 166 166 164 161 162 165 167 165 164 162 164 162 101  53 106 165 151 142 138 129 125 121 121 120 114  97  79  74  76  78  82  86  92  98 101 110 112 111 107 103  98  94  88  82  78  78  75  70  65  57  48  37  37  33  36  42  52  62  88 103 115 125 128 130 144 152 150 131  86  66  34  21  20  21  24  25  30  35  42 125 144 145 147 146 148 146 147 146 147 146 147 146
 167 168 167 164 163 166 167 168 165 165 166 160 101  49 115 163 144 138 133 127 123 121 108  96  85  80  73  68  68  71  78  82  88  94 104 118 123 119 111 104  97  93  87  80  75  74  68  54  47  39  32  33  28  30  35  38  36  32  37  55  78  96 110 123 136 148 151 145 104  74  41  24  18  20  23  24  27  32  37  92 141 146 149 148 149 148 148 148 148 147 147 147
 170 171 170 167 166 168 168 168 167 167 167 162 106  49 139 160 142 140 130 102  79  59  51  47  41  41  40  41  48  63  73  81  85  94 111 132 137 133 122 110 100  92  84  75  77  75  46  41  52  46  40  41  40  44  64  83  85  76  61  46  49  61  81 113 138 149 152 148 122  83  51  26  20  17  19  24  25  29  36  63 136 146 148 148 148 149 149 149 147 147 147 146
 169 170 171 169 166 166 168 170 169 168 168 166 121  45 164 159 144 118  74  48  46  48  57  48  36  36  34  30  31  43  62  79  85  96 122 155 163 152 134 119 105  94  85  78  78  60  39  50  55  60  67  75  80  91  97 105 111 119 126 132 131 132 133 140 149 154 156 154 142  96  63  29  22  19  17  22  24  26  32  49 113 143 148 150 149 147 148 149 148 149 148 147
 168 167 169 171 167 166 168 169 170 169 167 166 142  60 177 155 123  82  60  81 103 110  86  75  66  60  58  53  53  48  48  82  85 101 145 179 186 171 153 135 114  99  87  82  81  68  70  69  68  69  75  80  82  85  87  92  98 109 123 135 147 152 156 157 156 159 162 158 148 115  74  35  21  18  16  18  22  24  28  42  81 134 146 150 151 148 149 148 148 148 148 148
 168 168 170 171 168 167 169 168 170 171 167 165 157 108 179 153 114 116 150 143 136 128 114 106  93  83  75  71  73  78  80  84  93 123 172 198 204 184 166 153 130 109  93  86  84  77  70  63  63  62  68  73  76  77  82  84  89  99 120 135 150 160 164 166 164 164 164 163 154 135  87  41  24  19  15  16  20  24  26  33  61 110 142 149 149 149 148 151 150 150 149 149
 168 168 170 169 169 168 168 168 170 169 167 166 162 162 185 180 177 167 149 127 113 106 100  95  91  82  77  72  69  72  84  94 109 151 194 217 210 188 175 164 147 123 102  90  88  87  87  81  74  68  69  68  70  73  81  90 109 122 136 145 155 162 169 170 170 169 168 166 158 148 105  50  27  20  16  16  18  23  25  30  58  84 133 148 151 150 150 151 151 150 149 149
 168 167 168 169 169 169 168 169 168 167 167 167 165 174 194 193 189 180 158 121 101  95  91  85  79  72  68  71  78  91  98 106 129 174 209 217 205 186 178 167 157 137 116  99  91  93  95  98  94  89  87  87  86  92 105 122 131 137 146 156 164 167 171 172 170 168 169 166 161 153 122  64  30  24  20  22  19  21  23  28  51  75 112 142 151 150 152 152 152 150 149 148
 167 166 168 167 167 168 168 168 166 167 166 167 162 177 197 198 196 193 184 171 139 105  92  85  81  81  86  92  99 103 106 120 155 189 213 205 200 189 175 167 159 151 130 110  95  93  96 100 102  98  99 102 108 118 124 127 133 141 146 156 165 169 171 169 166 166 169 166 163 154 135  77  35  26  25  24  19  20  23  26  33  77  91 132 150 151 152 152 153 151 152 151
 168 167 168 167 167 168 166 167 167 168 166 167 156 183 199 200 200 198 200 200 196 174 145 121 106 103 104 107 106 107 113 140 176 196 208 202 201 192 181 171 160 156 139 121  98  93  94  97 101 102 105 111 120 125 128 131 136 140 143 149 155 161 166 165 165 165 167 165 159 154 142  91  40  29  25  23  19  17  22  24  29  69  76 117 146 152 152 153 153 152 152 153
 169 168 168 169 169 168 167 168 168 166 166 165 148 183 195 195 196 198 197 197 193 188 180 163 142 126 120 116 112 114 131 162 184 196 204 209 204 188 180 171 166 155 142 126 108  97  92  95 101 105 109 114 120 123 129 132 136 139 143 148 147 151 155 157 159 162 165 164 159 152 145 103  47  30  27  26  21  17  21  22  27  51  85  92 141 153 152 153 153 153 152 153
 171 169 169 168 169 169 168 169 169 168 167 162 134 189 194 191 193 192 188 185 182 179 170 162 150 137 126 125 121 128 149 173 185 194 200 205 196 181 175 171 166 158 141 125 114 105  98  99 100 105 108 114 118 125 128 132 136 140 144 148 150 149 150 151 157 160 160 162 159 152 145 113  53  31  28  26  20  16  18  23  27  35  83  81 135 152 154 155 153 154 154 153
 171 171 171 170 171 170 171 171 171 170 168 159 132 186 188 187 187 182 178 177 172 165 161 155 149 140 134 130 132 144 161 175 182 190 186 188 182 168 166 167 166 161 147 119 116 112 107 104 108 108 109 114 119 121 127 132 136 140 142 144 148 150 152 150 154 156 156 157 159 151 145 118  61  35  29  25  19  15  16  20  25  40  69  81 118 148 154 154 154 155 156 154
 174 174 174 173 173 172 173 172 170 170 167 159 148 186 185 182 180 176 173 170 167 163 159 151 148 143 131 133 138 133 155 168 183 186 184 191 186 166 158 162 167 159 148 132 118 112 109 112 110 112 111 114 118 121 124 127 130 134 137 141 145 147 152 151 154 154 156 153 156 150 142 124  63  40  32  26  18  15  16  20  25  34  55  93 102 146 157 155 157 158 157 155
 175 175 176 174 174 174 174 174 173 172 172 166 156 180 182 176 172 172 173 170 165 161 158 153 144 137 132 134 137 131 139 160 179 183 189 198 185 168 164 170 166 150 137 132 113  98 102 105 107 111 112 114 114 121 122 122 127 131 132 138 141 143 146 152 154 152 152 150 152 149 139 122  66  45  33  27  18  15  16  18  23  28  63  84  81 139 155 155 156 157 157 155
 178 178 176 176 175 176 177 176 174 175 173 167 164 181 179 175 169 176 172 167 163 159 156 150 138 132 128 128 126 125 119 152 172 180 189 190 178 167 164 165 159 149 136 143 129  84  81  92 101 106 109 112 117 119 119 120 123 125 130 131 134 140 147 152 153 154 154 150 150 147 137 122  68  49  35  25  17  16  16  19  21  24  51  69  81 122 154 155 159 159 158 159
 180 180 180 178 178 178 178 176 176 176 173 167 172 181 179 173 176 173 170 164 159 154 148 142 132 126 121 117 113 109 103 180 189 181 182 178 166 154 150 148 153 158 152 159 161 114  66  74  88  98 102 108 111 111 115 115 117 120 124 126 130 138 145 151 151 150 154 149 148 146 139 122  67  48  38  23  15  15  15  18  20  25  39  64  94 113 150 157 160 159 157 158
 180 181 179 180 180 179 178 179 178 175 174 170 175 179 177 174 174 170 165 159 153 144 139 132 124 118 112 109 104  95 116 198 194 174 159 148 137 131 133 137 142 153 159 164 173 160  89  66  74  86  95 102 106 109 110 112 113 115 118 122 125 132 138 146 151 149 148 147 148 144 137 119  67  46  40  20  15  15  15  16  19  22  24  70  96 103 153 155 159 158 159 159
 181 182 181 181 181 182 180 180 181 178 177 174 177 179 177 175 171 167 163 157 147 137 124 123 119 115 109 103  94  85 164 183 172 154 135 122 119 116 116 119 125 132 140 146 149 148 114  63  71  79  88  95 101 107 108 108 110 112 114 116 121 125 130 138 144 146 146 146 147 145 136 120  68  50  37  17  15  15  16  16  18  21  26  60  74  85 152 157 156 159 160 160
 184 183 183 183 182 183 182 181 181 182 176 177 177 179 176 172 164 162 156 149 141 133 124 119 115 110 104  95  85  90 177 164 148 128 113 106 105 103 100 101 104 109 120 126 129 129 112  67  74  80  83  90  96 103 105 105 105 108 109 112 113 118 121 111 109 141 145 144 145 142 139 121  86  58  27  14  14  15  15  15  18  20  24  55  69  87 147 161 158 161 162 160
 185 185 184 183 183 182 183 183 182 181 178 181 178 177 173 167 159 155 145 141 133 124 122 118 112 105  99  90  84  88 153 141 122 107  98  98  96  94  92  90  89  87  93 100 106 106  88  74  77  81  81  84  91  97 100 104 103 106 106 109 109 112 114 108 109 134 140 142 141 143 138 120  80  47  19  13  14  16  14  15  19  19  24  44  68  86 136 161 160 160 162 161
 186 186 185 186 184 186 184 184 183 182 181 181 177 173 169 164 157 150 140 133 126 120 119 114 109 102  94  86  85  89 114 111  92  77  83  93  89  90  90  86  78  68  64  70  80  80  78  83  80  82  83  84  87  94  95 100 102 103 103 106 108 108 111 110 117 125 134 137 140 142 138 117  79  42  17  15  14  15  14  15  18  19  23  40  65  90 129 160 162 161 162 162
 187 187 186 187 186 188 185 185 185 183 184 182 179 172 166 158 151 142 134 126 122 119 114 112 106  98  89  84  85  89  91  90  79  73  80  89  88  89  88  82  80  78  75  73  71  76  82  83  84  82  83  82  84  88  92  96  99 101 102 103 103 104 106 110 113 119 128 132 138 142 138 115  91  36  16  14  15  15  14  15  17  20  24  32  60  84 125 159 161 161 163 165
 188 188 188 187 187 188 188 186 187 186 184 184 178 173 164 150 142 134 127 122 121 113 111 108 102  94  87  84  87  90  89  87  83  80  84  88  86  86  85  81  79  79  78  77  79  82  83  82  82  83  82  82  82  85  90  92  94  98  99 101 101 103 103 108 110 116 126 131 136 141 138 110  93  35  17  13  15  14  13  16  16  18  23  28  49  87 125 159 165 163 165 166
 191 189 189 190 188 187 188 188 188 187 188 185 181 178 161 145 135 128 122 121 119 112 110 103  95  89  84  87  91  91  90  93  93  84  84  84  84  81  76  75  75  76  76  82  85  83  84  85  85  84  82  79  79  84  86  90  93  95  97  99 101 101 101 107 108 112 121 128 134 140 138 108  89  52  19  16  14  15  14  15  17  17  21  27  46  95 124 158 163 166 167 167
 192 191 190 190 191 190 189 189 188 189 188 186 182 180 162 141 133 124 121 118 114 110 108 102  92  86  84  86  91  89  91 106 118  94  84  82  78  74  71  70  74  81  88  97  97  90  86  87  87  85  85  81  78  83  82  86  90  93  94  94  95  99 100 105 107 109 117 126 133 140 136 101  77  38  16  13  13  15  14  14  17  17  22  26  39 101 121 158 162 168 169 170
 191 192 192 191 191 190 192 189 190 189 188 186 184 182 166 141 128 121 118 115 113 109 104  97  92  87  85  86  89  89  99 132 148 120  82  84  76  73  71  75  81  87  98 102 103  98  93  90  90  91  89  87  84  81  79  82  86  90  92  92  93  98 101 106 108 112 116 124 134 138 133  77  42  32  15  14  14  14  14  14  16  18  22  28  32 106 125 159 165 170 170 171
 193 193 194 193 191 191 192 190 189 190 189 187 187 186 169 141 126 117 115 114 110 105 100  95  90  86  86  88  92  94 120 145 155 128  97  85  80  79  80  77  78  77  80  80  81  82  83  85  88  92  92  91  87  84  81  79  82  85  87  89  91  98 103 106 108 112 117 124 131 133 130  53  38  21  14  14  14  15  13  14  15  17  21  27  36 105 132 162 169 174 175 174
 196 196 196 195 194 195 193 193 190 189 189 187 188 188 176 146 128 117 116 113 109 105  98  91  88  88  86  92  92 102 119 111 103  89  80  76  73  72  75  72  72  72  71  71  69  70  69  71  72  72  78  82  86  84  81  78  80  83  88  92  91  96 103 106 108 112 118 123 130 130 124  50  28  17  15  14  14  14  13  13  15  18  21  28  38  90 142 162 171 173 174 177
 198 199 198 197 197 197 196 195 192 191 189 188 189 188 180 150 128 122 119 114 110 105  98  91  88  88  89  94  94  91  85  80  77  73  72  75  76  74  74  71  72  73  71  69  69  67  69  76  74  60  55  45  45  54  67  72  79  82  90  96  94  98 102 105 108 110 116 122 129 128 110  35  30  20  16  14  14  13  13  14  14  18  20  25  41  96 146 165 173 175 176 176
 201 200 199 198 197 198 197 195 194 193 191 188 190 188 184 156 131 126 119 115 111 105  97  90  89  88  90  91  82  63  61  75  77  76  76  84  94  89  80  85  91  92  84  83  92  89  86  98  91  70  64  33  27  35  59  73  77  78  93  97  98 103 104 106 107 109 113 120 123 120  85  32  31  26  16  15  15  13  12  14  15  18  22  27  50 102 151 167 174 175 176 175
 200 200 200 198 198 199 197 196 196 193 191 188 190 188 187 164 135 126 121 117 113 107 101  92  89  86  81  70  45  34  58  92  93  98  98 104 119 113  98 106 119 121 107  96 113 116  97 107  98  73  62  31  37  56  69  79  79  81  95 101 100 103 105 106 105 108 111 115 120 114  60  26  32  30  17  14  15  14  12  14  14  16  22  29  56  97 157 166 174 174 174 175
 200 199 201 198 199 198 198 197 196 193 192 190 190 190 188 168 139 126 124 121 115 109 104  95  91  81  75  60  35  28  55  99 105 110 115 121 134 132 117 121 129 131 124 117 124 121 103 107  84  48  48  47  57  75  80  85  83  86  98 103 104 104 105 104 104 106 108 112 114 102  35  20  23  30  20  14  15  14  12  14  13  16  21  32  51 103 157 168 173 174 174 174
 200 201 200 198 198 200 198 196 195 194 193 190 191 189 188 172 143 129 124 120 118 112 105  97  90  84  80  74  55  40  47  84 106 118 122 127 131 133 124 122 129 131 125 109 121 111  52  78  68  55  62  65  76  84  87  86  85  90  99 103 104 102 105 105 104 103 108 107 106  78  25  20  17  25  23  16  18  16  12  14  13  16  21  32  52 121 162 168 172 173 172 174
 199 199 198 198 198 197 198 197 196 195 194 190 190 189 187 177 149 128 124 121 116 112 109 102  94  88  86  83  75  58  57  64  60  90 115 120 123 122 114 114 122 121 101  81  81  62  56  63  70  72  74  82  88  89  90  87  90  93 100 102 103 103 104 106 104 103 105 105 102  44  19  16  14  20  23  16  22  16  13  14  15  17  21  30  52 132 161 169 171 173 174 174
 200 200 198 197 198 198 197 196 196 196 194 191 193 191 188 173 163 131 125 122 119 113 111 103  96  90  91  88  87  74  67  69  69  64  57  62  80  74  71  71  70  64  57  64  71  71  74  76  76  76  84  93  92  94  93  91  91  94  99 103 104 102 102 103 100 100 101 100  78  22  16  14  13  16  18  17  24  16  14  14  16  16  21  30  56 146 164 169 172 172 173 173
 200 199 199 199 200 199 198 196 196 195 196 191 193 191 186 177 133 126 124 123 118 114 111 106 100  94  94  92  94  86  76  78  90 107 102  88  77  71  72  74  73  76  75  76  79  81  79  77  79  87  92  94  93  95  94  93  94  99 100 101 102 100 102 102 101  99  96  92  37  17  13  14  12  14  15  16  22  14  15  14  16  16  23  32  78 155 168 168 172 173 173 173
 200 200 201 200 198 198 198 196 196 195 195 190 189 191 184 175 104 122 122 120 118 114 111 108 103  95  96  96  96  95  88  85  96 107 114 111 102  95  89  84  81  83  81  80  81  78  77  75  86  92  95  94  93  96  95  94  95 100  98  98 100 102 102 101  96  97  92  64  20  13  12  12  12  13  15  16  18  15  15  15  17  17  24  39  96 165 169 172 171 173 174 174
 202 199 201 201 200 199 198 195 197 196 195 193 190 189 181 180  96 116 113 118 115 114 113 107 105  98 100  99  98  98  98  92  92  94 101 104 101  98  91  85  81  81  79  78  76  76  80  86  93  94  96  94  95  96  96  99  98 100 102 102  99 100 100  98  96  92  80  25  16  12  11  13  14  14  16  17  18  14  16  15  15  19  28  38 101 167 170 173 173 174 175 175
 203 202 200 201 199 198 198 198 198 196 196 195 189 184 183 171 102  82  71 113 113 112 111 108 105 100  99 100  98  97 101 102  96  92  88  87  85  87  85  84  82  80  79  81  81  83  86  90  94  95  94  96  99  98 101 102 100 101 103 100  98  99  99  95  94  88  47  18  13  12  11  13  14  14  17  19  18  15  13  14  15  20  30  35 124 166 174 173 174 174 175 175
 204 202 199 200 199 198 198 197 198 197 196 192 187 184 181 157  89  54  52  86 111 111 112 108 106 105 103 102  99  98  99 102  97  94  90  89  89  86  84  86  84  82  84  85  85  88  88  89  93  94  95 100 104 105 107 105 104 103 103 100  97  97  96  92  91  64  18  15  12  11  11  12  16  17  21  23  21  16  15  14  16  24  33  40 136 169 174 175 175 174 175 175
 203 202 202 201 199 200 198 197 196 195 192 190 190 184 186 133  71  51  44  46  93 107 108 110 107 108 106 104  99  97  98  99  99  95  94  90  88  86  86  85  86  85  86  87  87  87  88  91  93  97 103 105 108 110 111 110 106 106 102 100  97  95  94  88  73  27  13  13  13  11  10  12  18  19  22  23  19  16  16  16  17  26  42  45 146 172 176 176 176 176 176 175
 203 202 200 200 201 200 199 197 196 195 195 195 192 186 185 108  61  43  40  37  38  99 104 107 109 110 112 109 106 100  98 100  97  95  94  91  87  84  85  84  84  86  87  88  89  89  90  93  98 106 110 112 115 113 114 112 109 106 103  97  95  93  90  78  34  16  12  14  15  11  10  13  21  22  24  25  22  16  16  16  18  28  40  57 152 172 176 177 176 176 176 176
 203 203 200 200 200 200 200 198 198 198 195 194 191 186 169  73  52  41  40  32  24  53 101 104 108 114 116 114 111 109 101  99 100  99  94  89  87  86  84  83  84  86  89  88  89  92  96 102 107 111 116 117 115 118 118 116 111 104 100  96  92  87  80  45  22  12  11  14  16  11  11  14  22  25  24  28  27  18  16  17  20  28  37  80 162 172 176 178 177 177 176 176
 203 205 203 202 201 200 201 198 198 198 197 195 191 180 109  62  42  39  38  25  20  21  61 100 108 113 121 121 121 116 115 109 107 109 108 102  94  90  87  86  86  89  90  91  96 101 102 109 114 116 118 119 117 119 120 115 108  99  96  93  88  81  56  30  17  11  11  13  19  12  11  14  24  25  26  29  27  20  18  20  22  32  38  97 167 174 176 179 178 177 177 177
 204 203 201 202 202 200 201 199 199 199 192 190 175 135  67  49  33  32  33  21  18  21  30  70  97 108 117 124 123 123 122 122 121 125 123 124 120 108  99  95  93  95  96  98 104 107 110 115 120 120 118 119 116 117 117 111 106  97  91  85  78  58  31  22  16  11  10  13  17  12  10  15  24  25  25  28  29  23  21  23  27  44  42 130 169 175 179 178 178 178 177 177
 204 204 202 202 201 200 201 199 201 196 190 186 152  89  55  40  32  32  30  20  17  20  33  30  67  98 111 122 124 125 125 128 132 132 133 131 132 127 120 108 104  98 100 103 105 110 111 116 120 121 117 118 115 114 111 104  97  90  83  75  56  38  27  20  13  11  11  12  17  11  10  16  25  25  22  27  31  30  23  25  30  57  59 148 172 177 178 178 176 178 178 176
 204 204 205 202 200 200 199 199 197 192 186 150 109  69  42  32  29  32  24  18  17  22  28  21  22  66  98 113 120 123 123 124 129 131 130 129 128 125 122 116 110 105 103 103 105 106 110 113 115 116 114 113 111 108 103  96  88  82  72  52  38  31  24  19  11  11  11  11  16  12  11  16  24  24  24  28  31  33  29  29  33  65  72 158 175 177 177 177 176 176 178 177
 204 203 202 203 202 199 197 194 188 180 153 132  74  51  38  31  26  30  22  16  16  24  23  15  20  37  69  99 110 115 116 117 121 123 120 118 118 116 113 110 109 106 104 105 104 104 107 109 110 108 107 106 102  99  91  83  77  66  47  37  33  27  24  16  11  12  11  12  15  12  10  14  26  26  25  29  32  36  36  33  36  68  90 165 174 174 177 177 179 177 178 175
 205 204 202 200 198 198 195 188 174 152 137  85  63  51  34  27  28  25  20  18  18  24  18  13  18  35  38  55  93 103 106 108 113 112 113 110 110 107 106 106 102 102 101 101 100 102 101 101 101 101  99  97  91  87  80  74  59  41  35  34  31  25  21  14  12  12  10  11  16  11  10  15  24  25  24  25  35  39  48  36  50  57 109 167 174 174 177 176 178 177 177 177
 201 201 201 197 194 190 184 172 146 118  90  79  72  41  31  26  30  22  18  17  21  21  14  13  17  35  29  24  44  86  97 100 103 103 103  99 101  99  97  96  96  97  95  92  96  96  95  95  93  92  90  89  81  74  64  50  37  36  35  32  26  23  16  12  12  10  10  11  16  12  10  17  25  26  23  27  36  50  49  40  71  62 103 161 172 173 178 177 177 177 178 177
 201 200 198 194 191 184 169 159 150 120 100  79  50  37  30  24  31  21  18  17  18  18  15  12  16  26  26  20  16  30  72  89  93  93  92  93  92  90  93  91  92  92  89  91  90  89  88  90  88  86  82  76  64  56  43  39  38  37  33  28  23  18  15  14  11   9   9  11  14  11  10  18  26  22  24  27  34  50  47  43  69  64 102 140 158 169 175 178 177 175 174 174
 198 196 195 191 180 174 178 166 145 130 100  68  52  39  35  39  28  22  17  16  16  18  14  13  17  18  25  20  14  18  22  47  78  84  86  88  88  87  87  86  85  84  85  85  85  83  82  81  80  75  66  55  48  42  39  38  38  35  29  25  22  15  14  10   9   9  10  12  15  10  10  16  26  21  21  23  28  41  39  36  39  41  47  61  81 110 133 137 141 132 129 115
 195 190 189 186 183 179 166 148 127 117  81  63  57  39  53  31  29  21  17  14  16  17  14  14  15  14  22  18  14  13  15  16  28  48  69  79  79  80  80  79  77  74  75  75  74  73  70  67  62  53  49  44  43  39  41  37  34  31  25  22  16  16  11  10   9   8   9  15  11  10  10  18  25  20  19  21  25  29  32  30  29  23  21  20  25  23  25  23  22  23  22  21
 194 198 196 189 183 175 165 153 135  95  77  66  61  50  38  40  32  18  14  14  14  15  13  12  13  13  19  21  15  12  13  14  15  17  23  29  48  52  61  62  60  57  58  58  56  55  53  50  47  46  46  44  40  38  37  36  30  25  23  18  14  11   9   9   8   8  10  14   9  10  11  22  24  22  19  21  25  25  27  26  22  18  16  14  15  16  17  18  16  17  18  18
 195 195 190 189 183 170 155 132 101  95  98 101  88  38  37  46  21  16  13  13  13  12  11  12  11  11  17  18  16  13  13  12  13  12  15  16  22  25  31  34  38  41  44  45  46  45  47  46  45  43  40  37  35  35  34  29  25  22  17  14  11  10   8   8   9   9  11  14  10   9  12  23  24  22  18  22  27  26  27  25  21  16  14  14  13  16  16  15  15  15  17  18
 197 193 191 183 167 153 135 114 117 129 124 115  55  39  55  27  21  18  16  14  14  15  13  11  11  11  17  16  15  13  13  11  12  12  13  14  15  19  22  24  26  31  34  35  38  38  40  37  37  34  34  31  30  30  28  26  19  16  14  11   9   8   8   8   9   9  12  11   9  10  15  25  22  22  18  21  24  24  28  26  20  16  14  15  14  17  16  15  16  15  16  17
 197 192 176 161 155 148 135 148 139 138 127  69  44  35  31  23  19  17  14  14  15  16  12  10  10  11  16  16  15  13  13  11  12  11  11  12  13  15  15  17  20  22  23  26  27  28  29  30  29  28  27  25  22  22  19  16  11  12  10   9   8   9   8   9   8   9  12   9   9  11  20  23  21  22  16  16  24  25  26  27  18  16  15  16  13  14  16  15  14  15  14  14
 183 169 167 170 154 145 162 168 170 149  77  42  34  32  27  19  18  15  14  14  14  13  11  11  11  11  13  13  14  13  12  11  12  11  10  11  11  12  13  14  15  17  17  20  19  20  20  19  19  18  16  15  13  12  11  10   9  10   9   9   8   9   9   9   8   9  11   9   9  15  23  20  19  19  14  13  19  25  25  25  20  16  15  15  12  13  13  13  12  13  14  13
 175 173 172 142 150 165 180 152 106  63  42  37  31  27  25  20  17  14  15  15  16  14  11  11  11  12  12  14  13  13  14  13  12  11  10  10  11  10  11  12  12  13  11  13  12  13  12  13  13  11  11  11  10  10   9   8   9  10   9   9   8   8   9   9   9  11  10  10  13  20  20  17  17  18  11  11  14  22  25  22  20  16  15  13  11  12  11  12  13  10  14  13
 171 164 151 141 124 108  79  42  46  40  35  31  27  25  23  19  16  14  16  19  16  14  12   9  10  12  11  14  13  13  15  14  12  10  10  10  11  10   9  12  10  11  10  10  10  10  10  11  11   9  10  11   9  10   9   9   8  10   8  10   9   9  10  10  10  12  12  14  16  17  16  16  17  14  10  10  13  17  22  23  19  17  17  12  11  10  11  11  10  10  12  12
 169  91  50  44  36  38  38  40  36  33  31  26  28  26  20  17  16  16  18  21  14  14  12  10  13  11  12  12  12  13  14  13  12  11  10  10  10  10  10  11  11  10   9  10  10  11  10   9  10   9   9   9   9  10   8   9   9   8   8   9   9  10   8   9  11  12  12  14  17  16  17  16  13  13  11  10  11  14  17  21  20  17  16  12  11  10   9  11  11  10  10  11
  52  48  39  34  32  35  38  36  31  31  26  26  28  23  19  17  18  21  20  18  14  14  13  10  13  12  11  12  13  11  13  12  12  10  12  11  11  11  10  11  10  11  10  10  10  11  11  11  11  10  10  10  10  10   9   9  10   9   9   9   9   9   9  11  14  14  13  15  17  16  17  16  15  12  11  11  11  13  16  20  21  19  15  12  12  11  10  10  11  10  10  11
  42  37  34  33  32  34  34  32  30  27  27  26  26  21  17  18  24  20  20  16  14  14  13  11  11  12  12  12  13  12  12  12  12  11  11  11  11  10  11  11  10  11  10  10  10  11  10  10  10  10   9  10   9  10   9   9  10   9   9   9   9   9   9  12  11  14  15  16  16  18  16  16  14  11  11  10  11  13  16  17  18  21  18  16  13  10  10  10  11  10  10  10
