P2
# Generated by OpenCV 3.4.0
92 112
255
 127 130 130 132 131 133 132 133 133 134 135 134 133 134 134 134 135 135 135 136 136 136 137 136 136 138 136 135 135 136 138 137 139 139 138 139 136 139 136 136 135 137 137 138 137 138 137 137 140 138 139 140 138 138 139 139 139 138 140 138 138 138 138 137 138 138 139 138 138 138 137 138 136 137 138 138 137 136 137 135 136 134 136 136 134 135 136 136 135 136 135 134
 129 130 131 131 131 133 132 131 135 134 133 135 135 134 135 136 137 136 137 137 136 135 136 136 137 138 139 137 138 139 138 139 138 139 139 138 137 139 138 136 136 138 138 138 138 140 139 139 140 140 138 138 138 139 139 139 140 138 138 138 140 137 139 138 138 140 138 137 138 137 137 139 139 138 138 138 139 137 136 136 137 136 136 136 138 137 137 136 137 135 136 134
 131 131 132 131 134 134 132 135 135 135 134 137 136 135 136 135 136 136 138 136 136 137 138 137 138 139 138 139 137 140 139 139 139 138 138 139 139 137 139 138 139 139 139 138 137 137 137 138 138 139 139 139 139 139 139 138 138 139 139 140 139 139 140 139 138 138 139 138 138 138 137 138 138 139 139 139 139 139 138 137 136 137 138 137 136 134 136 136 136 136 135 136
 132 131 132 132 133 133 133 135 134 135 134 134 134 136 135 136 137 136 137 137 135 137 137 136 138 139 138 138 137 138 140 139 141 139 137 139 139 139 138 138 139 139 139 139 140 140 138 139 138 136 138 140 139 141 139 140 138 139 140 137 139 140 141 140 139 138 138 138 141 139 140 138 138 138 139 139 139 139 138 138 136 137 139 138 138 137 138 137 136 136 137 136
 130 132 134 133 133 132 134 133 134 135 134 134 136 138 137 135 137 136 139 136 139 139 135 135 138 139 142 140 141 139 140 141 141 136 139 141 140 138 139 141 139 139 139 140 140 140 136 137 139 137 139 138 138 138 139 138 141 140 142 140 142 140 140 141 139 141 139 140 140 140 140 140 139 139 138 140 139 140 138 139 138 138 138 139 138 137 139 135 136 136 137 136
 130 132 132 133 134 133 133 134 136 136 137 134 135 136 136 137 138 138 138 138 140 139 138 138 139 138 141 138 140 140 141 140 138 139 141 140 139 138 141 140 140 139 139 137 137 137 136 138 138 139 140 140 140 138 139 137 139 141 141 142 140 141 142 141 139 140 142 141 141 140 141 142 139 139 138 139 138 140 139 140 140 138 140 138 138 138 138 138 138 138 136 138
 132 134 132 134 134 135 135 135 135 135 137 135 137 136 137 138 138 137 138 138 139 139 138 140 139 138 139 138 139 141 138 136 138 137 138 138 137 136 134 134 128 124 120 114 114 118 122 129 133 135 137 137 136 137 137 137 138 140 140 139 140 140 142 141 142 140 140 141 141 141 141 141 140 141 140 140 139 140 139 140 139 139 139 139 137 137 138 137 137 138 137 137
 132 132 133 134 135 133 136 134 135 136 136 137 137 136 138 138 138 138 139 136 139 139 139 138 138 139 140 141 141 140 139 136 140 138 135 127 131 126 118 104  83  77  65  59  61  59  58  70  80  94 116 128 132 134 136 136 139 141 140 142 142 142 142 141 141 141 141 139 139 142 140 142 142 141 140 140 141 141 139 140 139 139 140 138 140 139 139 138 139 138 138 138
 133 132 134 136 135 135 135 135 135 136 136 136 138 137 139 137 139 138 138 140 140 139 140 138 139 140 141 141 139 137 138 137 132 129 129 125 106  89  71  63  61  55  48  46  46  45  42  44  49  54  64  79 104 128 133 134 137 138 140 142 141 142 142 143 142 142 142 142 138 141 141 141 142 141 140 141 142 141 141 141 140 139 140 138 139 140 138 140 138 140 137 138
 133 133 133 133 134 135 135 136 137 138 136 138 137 136 138 138 137 139 140 138 138 139 139 139 140 141 141 140 136 137 131 128 131 116  93  79  70  65  65  60  54  52  46  44  37  35  33  34  37  39  49  63  63  68  91 124 134 134 136 139 141 142 142 141 142 141 140 141 140 141 140 142 142 142 142 140 140 141 141 140 137 139 140 141 140 140 140 139 139 139 137 137
  98 112 126 131 135 136 135 136 136 136 137 136 137 136 139 138 138 138 140 139 140 140 140 140 140 139 138 137 136 131 122 107  82  66  67  72  68  57  52  44  43  41  39  37  33  32  29  29  31  32  37  43  53  67  74  75 104 131 137 139 140 141 143 144 142 142 141 142 141 142 141 142 141 142 142 141 142 141 142 140 140 140 141 141 141 139 140 138 139 138 139 139
  96  82  68  67  62  71  81  92 104 120 135 133 134 136 136 136 137 137 137 140 139 142 140 137 140 137 135 131 127 112  78  58  64  77  71  56  54  45  42  37  34  30  29  30  30  30  29  29  30  28  27  32  38  45  66  87  54  92 129 138 141 141 142 143 142 142 140 143 142 141 141 142 141 141 141 141 142 141 142 141 141 141 140 140 139 139 140 138 140 139 138 136
 133 132 131 133 133 126 119 106  95  85  69  70  78  88 107 119 136 137 138 135 135 138 138 138 138 130 125 121  93  67  56  61  64  63  51  48  40  36  33  34  32  29  29  28  32  31  28  26  28  26  25  27  27  35  45  62  87  61  81 129 139 142 142 143 142 143 141 142 141 142 142 142 142 143 142 143 142 142 140 142 141 141 141 141 140 141 140 140 140 140 138 138
 134 134 135 135 136 134 134 134 135 135 134 133 125 111  93  80  74  73 100 125 134 133 133 134 126 118 120  84  58  56  55  61  57  49  43  39  37  35  37  33  31  33  32  35  31  28  26  26  25  27  26  24  25  30  35  43  59  84  67  96 129 140 142 142 141 143 141 142 142 140 142 142 141 143 143 142 143 143 140 143 142 141 140 142 140 140 139 139 140 138 139 138
 135 135 136 136 136 136 135 135 136 137 137 138 138 137 135 135 135 130 106  82  73  97 121 121 114 116 102  61  51  50  55  51  52  42  44  40  40  43  44  37  34  31  29  29  28  27  25  26  24  25  24  25  23  26  27  31  41  63  76  75 102 134 139 141 142 141 144 143 143 143 143 143 142 142 141 143 141 142 141 141 140 139 141 140 142 139 140 138 140 138 139 137
 137 136 136 135 135 135 135 136 135 137 137 137 136 138 136 137 137 138 136 136 131 104  69  78  96 100  66  51  47  52  54  45  45  43  46  48  43  40  39  35  33  31  30  30  30  27  25  25  26  30  25  25  23  23  24  26  31  42  60  78  92 116 136 140 142 143 143 143 142 142 141 141 141 141 142 143 140 141 141 140 140 140 139 140 140 138 139 138 137 139 139 137
 134 134 135 135 136 136 134 135 134 137 136 136 136 136 136 136 135 137 135 135 134 125 111  84  68  72  52  40  40  51  45  45  42  39  34  35  38  39  37  36  35  39  41  37  31  30  28  26  25  30  28  25  25  26  24  24  26  31  43  69  94  94 131 139 140 140 140 141 142 140 140 140 140 140 140 139 139 139 141 139 139 138 138 136 137 138 137 138 134 134 135 132
 135 134 134 136 134 135 134 136 135 136 135 136 138 137 138 138 136 139 136 133 130 120 109  88  69  56  41  33  38  38  37  41  38  32  30  33  43  50  52  57  61  69  69  62  52  49  42  40  37  31  28  26  25  25  25  25  24  27  32  46  70  90 115 133 133 136 136 135 136 134 132 132 129 128 124 122 121 119 118 113 109 106 107 102 101 100  94  96  89  89  88  82
 134 133 132 132 126 135 133 134 134 134 134 136 135 134 134 133 134 133 132 129 125 117  97  74  61  59  38  34  35  39  39  34  34  39  48  64  75  86  95  95  96  97  96  87  78  75  68  66  58  52  43  35  28  26  24  25  24  25  25  32  52  66  80  88  93  90  92  92  90  86  88  90  90  92  92  96  98  99 102 102 103 108 108 110 110 110 114 115 117 116 116 117
 127 130 129 125 114 126 128 127 123 125 124 122 122 119 117 113 113 114 111 108 106  99  84  65  58  56  51  45  45  42  36  39  61  86 102 110 116 119 121 122 119 119 117 115 104 102 102  98  94  84  73  66  53  39  28  27  27  28  23  26  35  52  68 100 117 122 125 123 125 125 126 129 128 127 130 130 129 129 130 131 131 132 133 132 133 132 134 134 134 135 135 135
  85  86  84  89  83  91  80  87  91  91  89  90  96  94  98  98 103 107 105 104 105 101  89  67  68  50  44  43  43  43  57  95 127 136 142 148 149 152 155 156 154 148 143 140 137 124 121 124 132 132 122 105  88  73  59  42  30  29  26  26  27  40  52  76 119 134 141 141 141 142 141 141 140 142 139 139 139 140 141 141 140 140 140 140 140 139 141 139 139 138 139 137
 121 121 124 125 124 126 127 127 129 129 130 132 131 134 133 134 135 134 131 126 123 103  83  95  71  51  46  48  81 111 139 164 175 183 187 182 183 187 182 179 174 169 165 159 156 150 144 140 138 144 147 145 138 121  94  75  55  33  29  26  25  28  41  55  82 125 138 141 143 143 142 143 143 143 142 142 140 140 140 142 142 142 141 139 140 140 139 140 140 138 139 139
 135 135 136 136 137 136 137 135 135 136 140 140 139 138 139 138 140 135 132 129 108  89  90  78  59  51  57 124 165 183 200 212 215 209 203 201 201 195 183 180 177 171 169 166 164 162 159 155 154 154 154 156 156 153 145 124  94  64  39  28  25  25  30  43  60  83 130 142 143 144 143 143 143 139 142 142 143 141 142 142 141 141 140 141 140 139 138 140 140 140 141 138
 137 138 136 137 140 140 140 140 141 139 140 137 139 141 141 141 140 138 131 118  93  82  68  60  51  76 139 171 195 215 226 228 222 211 207 205 198 189 182 180 175 168 167 164 164 161 160 161 159 158 159 160 162 164 164 157 143 101  69  44  28  24  23  30  44  58  87 133 143 144 142 142 142 143 144 142 143 143 141 141 140 142 141 141 141 140 142 140 139 139 138 138
 136 137 138 140 140 140 141 141 142 141 139 141 141 141 143 141 140 134 131  95  94  63  64  52  91 159 185 203 219 230 231 228 219 214 210 202 189 183 178 174 169 167 162 160 163 159 156 152 151 152 155 157 161 165 166 166 161 147 104  68  47  30  27  26  32  46  57 100 137 143 143 143 142 142 142 143 141 142 142 142 142 141 142 141 140 141 140 140 140 140 140 138
 140 141 140 140 141 143 143 143 144 142 142 142 142 142 144 143 139 135 109  92  81  70  69  82 163 188 204 216 222 224 220 220 215 205 195 189 183 183 175 171 166 163 157 156 156 143 143 148 147 146 146 149 153 162 167 164 164 161 148 103  67  47  30  25  27  34  49  59 111 138 143 144 143 143 144 144 143 142 142 141 144 143 142 142 139 141 142 140 140 140 139 138
 141 142 141 141 140 142 143 143 143 142 143 145 145 144 143 142 137 129  95  96  71  78  84 164 194 199 204 207 208 206 208 206 201 189 183 178 179 153 135 159 159 157 153 148 146 144 145 144 142 139 141 143 148 152 158 162 160 160 156 146  95  65  47  29  24  29  39  50  70 115 142 143 143 143 144 143 143 142 143 142 143 143 142 142 142 142 140 140 141 141 138 139
 141 140 142 142 142 143 143 142 143 143 144 144 144 144 144 142 137 108 100  88  80  81 152 186 197 196 197 195 192 193 193 192 190 184 177 173 167 143 138 149 151 149 147 144 143 138 139 140 140 138 140 142 146 147 153 155 156 158 157 153 139  91  66  44  28  26  33  44  54  70 128 142 142 143 144 145 143 143 143 142 143 143 142 143 143 142 141 140 140 140 140 140
 141 140 141 143 142 144 144 142 143 143 144 144 145 143 144 138 132  91 108  78  78 133 181 191 193 189 189 190 186 186 182 183 181 177 171 168 163 159 153 152 149 143 141 140 139 139 139 139 139 138 137 141 144 146 147 153 155 157 156 154 148 133  84  59  37  26  28  35  46  56  83 137 143 144 143 144 145 145 144 143 143 143 142 142 144 141 142 141 140 140 140 140
 143 142 142 144 142 143 144 144 144 144 144 144 145 144 142 133 119  92  95  72 103 174 188 190 187 187 185 183 182 177 176 176 175 174 169 165 162 160 155 152 146 142 141 138 141 141 140 141 140 138 139 141 141 146 150 153 154 154 155 155 153 147 129  83  53  32  25  30  40  48  53 107 140 142 144 146 144 143 143 144 144 143 144 141 142 142 143 143 142 141 140 140
 142 143 144 143 142 143 143 143 144 145 144 145 145 142 142 134  96  97  77  66 148 178 186 190 185 183 182 181 178 175 176 174 172 170 170 166 161 158 156 150 146 140 140 139 140 141 141 140 140 140 140 140 140 142 147 150 154 153 153 151 151 151 145 127  75  42  29  27  34  40  49  58 130 142 144 144 144 144 144 143 145 143 144 142 142 143 142 142 142 140 140 140
 142 143 142 144 143 143 145 145 144 144 144 146 145 143 142 130  80  84  71  88 161 181 188 187 184 182 183 182 178 176 175 173 170 168 166 162 155 153 149 144 141 136 136 139 140 140 139 140 137 137 138 138 139 142 146 150 153 153 153 154 151 153 152 145 111  64  40  30  30  35  43  49  88 139 144 144 144 144 144 144 144 144 143 144 143 143 141 142 140 138 140 140
 144 144 143 142 144 144 143 145 145 143 143 144 144 144 138 116  78  67  74 131 171 184 185 186 182 182 181 180 176 173 170 167 164 159 158 153 147 145 140 137 134 131 130 130 132 132 132 132 133 133 133 135 133 136 141 147 148 150 151 155 155 150 153 149 144  96  57  34  29  33  39  47  53 128 141 143 145 144 145 144 143 144 143 141 142 142 143 142 142 142 140 141
 143 144 145 143 143 144 145 146 143 145 144 146 142 145 135 112  76  63  93 156 175 180 183 184 181 183 180 179 173 171 168 160 154 148 145 140 137 133 131 130 127 125 126 125 126 127 124 124 125 125 126 127 130 130 134 141 146 147 149 153 154 150 151 151 147 131  82  46  32  28  35  40  49  88 138 142 145 144 144 144 144 144 143 142 143 144 141 141 140 142 140 141
 144 144 146 144 144 146 147 146 144 146 145 144 145 144 131 104  62  65 121 163 174 178 183 183 182 182 181 178 176 170 159 148 144 140 134 128 127 125 124 121 120 120 119 121 119 119 117 116 117 119 121 120 123 125 127 134 141 147 152 155 156 152 152 152 148 144 112  67  37  29  33  38  42  47 129 140 143 143 144 144 145 144 143 143 143 145 142 142 142 142 141 141
 144 144 144 144 144 145 146 147 146 146 147 143 146 143 126  84  59  82 139 167 175 179 180 183 184 182 183 177 168 158 149 139 134 129 125 123 119 120 118 117 116 117 116 116 116 114 112 111 113 113 112 115 119 119 121 128 137 143 150 156 161 158 155 153 149 149 136  90  48  30  29  34  38  47  92 139 144 144 145 145 144 143 144 143 145 143 143 143 143 142 141 142
 145 144 145 145 144 147 146 146 147 146 148 144 146 140 120  67  62  94 154 170 174 180 182 185 191 190 185 170 160 151 140 131 129 120 117 114 116 115 115 114 114 112 113 114 112 110 110 111 109 110 110 109 114 116 118 122 130 139 145 149 155 159 159 157 148 149 145 113  60  34  29  33  36  40  51 135 143 144 145 144 144 143 145 143 143 144 145 143 144 143 141 141
 145 144 146 145 147 146 146 145 148 149 148 146 144 139 109  63  59 100 158 172 177 181 182 182 184 181 169 159 148 137 133 123 118 114 111 110 113 112 111 111 112 110 110 110 110 109 108 106 105 103 102 101 102 100 100 103 108 120 127 133 139 155 159 157 152 149 147 129  81  40  29  29  34  36  39 103 140 144 145 144 143 143 144 144 145 145 143 142 143 143 142 143
 146 146 145 145 146 147 146 145 146 146 148 146 143 141  99  59  54 105 161 173 179 183 183 178 174 162 143 133 121 111 104 103 104 104 105 105 107 106 108 111 110 109 109 108 108 108 106 103 101  94  86  81  80  78  83  81  87  92 103 110 119 131 144 151 153 149 146 138  94  46  29  26  32  35  38  66 136 144 146 145 145 145 144 144 144 144 143 143 142 141 143 143
 147 147 148 148 148 148 147 149 148 147 146 146 143 138  88  52  59 114 160 172 182 185 178 167 157 137 118 104  94  88  83  81  78  85  90  94  99 104 105 108 111 109 107 105 106 106 102  97  92  80  77  72  69  71  70  72  74  76  84  97 109 118 126 136 145 147 148 140 106  55  32  25  29  32  36  44 123 143 144 145 145 144 144 145 144 144 144 143 143 144 144 141
 146 147 149 147 147 147 146 149 149 147 150 148 146 130  80  48  58 123 163 176 183 179 161 151 138 122  99  83  78  77  75  76  77  80  87  90  95 101 105 107 107 109 108 106 106 104 101  94  88  78  76  71  70  69  69  65  67  67  75  90 101 112 119 124 131 141 146 144 119  64  35  24  25  29  34  40  94 139 145 146 145 146 145 145 144 143 143 144 142 144 142 142
 146 146 148 149 148 148 148 148 149 149 150 149 147 124  70  48  56 133 166 179 175 161 151 140 124 105  92  82  78  76  78  80  81  82  88  91  93 100 106 107 109 110 107 107 104 104 102  94  87  84  81  78  77  76  77  79  81  82  85  89  97 111 115 121 126 134 146 146 128  73  39  26  24  27  32  34  59 135 145 145 144 144 144 145 145 144 144 144 144 144 143 143
 146 147 148 149 149 149 149 150 150 150 151 150 144 124  57  44  54 141 169 177 162 152 143 127 112 104  96  94  94  90  88  86  88  89  92  94  96 101 106 107 108 107 106 106 108 107 100  97  91  90  87  84  82  79  81  84  87  88  94  99 101 108 115 120 128 132 142 149 137  83  45  26  24  25  30  33  36 113 142 146 146 145 146 144 145 145 144 144 143 144 143 143
 148 149 147 150 149 149 149 151 151 151 152 150 144 120  53  43  53 142 172 171 158 149 134 123 115 106 101  96  93  91  87  85  86  88  92  95  99 102 107 108 108 106 108 108 107 107 102  97  94  90  86  84  80  79  84  88  93 100 107 111 115 112 112 122 128 138 140 146 142  98  52  28  24  24  27  29  37  72 136 144 145 144 147 144 146 144 144 143 144 144 143 143
 150 150 149 151 152 151 151 152 152 152 153 153 146 109  47  42  57 153 172 168 154 140 129 123 116 114 110 105 101  94  88  84  83  84  91  95  97 101 105 105 106 109 110 110 109 107 102  97  93  88  86  82  81  81  85  89  95 104 109 117 122 118 115 115 123 133 140 146 145 114  63  30  24  24  26  28  33  44 120 142 145 145 146 146 146 145 145 144 143 143 144 143
 152 152 152 153 154 155 154 153 153 154 155 156 153  96  43  40  65 161 170 163 146 132 122 117 118 122 123 120 110  99  88  82  81  80  85  89  94 100 104 107 107 108 109 109 108 104 100  98  92  84  82  82  80  82  80  86  94 105 112 117 120 117 113 111 113 124 134 142 145 131  78  38  23  22  24  27  31  38  74 139 144 146 146 146 146 145 144 144 144 145 144 143
 156 155 154 156 157 160 159 159 158 157 158 162 163  80  44  41  71 166 169 155 137 123 114 117 124 132 135 128 121 106  91  80  77  78  82  87  91  96 102 106 109 110 112 111 108 107 102  93  87  83  80  78  74  75  75  81  85  95 102 109 118 115 113 111 109 113 125 137 145 141  90  45  24  22  24  26  28  35  51 113 142 145 146 146 145 146 146 145 145 145 145 143
 160 159 157 156 158 162 162 160 158 159 160 164 155  74  44  43  85 169 167 151 128 114 111 119 128 135 142 134 115 101  86  77  73  71  76  81  87  92 100 103 113 118 118 115 110 107 100  93  83  80  78  74  69  61  53  44  41  38  41  43  55  80 101 111 109 110 118 132 145 146 106  57  25  20  22  22  25  30  40  85 136 143 146 146 146 146 147 146 146 145 144 145
 163 165 163 160 159 162 165 163 162 161 162 164 152  68  45  42 105 168 163 141 116 107 110 125 124 100  71  60  62  62  64  60  61  65  71  77  83  89  98 108 120 129 129 126 119 112 102  91  81  78  74  67  50  41  32  30  26  28  36  63  48  39  46  70  94 104 114 128 145 149 128  67  28  21  20  21  24  26  38  66 115 142 146 147 149 146 147 146 148 146 145 146
 165 167 165 162 161 164 166 166 166 163 164 163 150  63  44  37 122 172 160 133 112 106 114  99  65  56  59  44  35  30  30  32  40  51  68  76  83  90 100 115 140 154 150 142 133 122 104  91  81  78  79  54  57  56  37  36  29  30  42  75  56  43  44  52  66  80 107 132 148 154 145  83  29  20  19  20  23  26  31  66  92 139 146 147 148 146 147 146 146 146 145 146
 167 168 167 165 162 164 165 167 167 165 166 164 157  66  42  37 146 174 158 131 110  98  80  60  51  69  92  48  40  41  32  31  38  55  56  79  84  90 101 131 164 179 170 160 153 136 115  95  85  81  73  44  48  56  37  30  28  34  46  57  68  91  96  99  99 114 127 142 155 160 152 113  40  25  18  19  21  25  27  52  80 123 141 146 147 147 146 146 147 148 146 147
 165 167 169 166 164 165 166 168 167 167 166 166 161  78  43  40 160 177 160 134 104  85  70  57  54  63  74  60  36  32  30  31  45  51  50  76  86  91 115 154 188 202 182 173 173 155 131 106  91  83  76  66  65  62  63  61  64  69  82 103 118 124 133 141 149 154 154 155 160 163 160 141  56  26  21  17  19  24  26  37  70  96 135 146 149 148 146 148 148 147 148 147
 165 167 167 168 167 165 165 166 167 167 166 164 159 102  44  47 175 182 172 149 131 128 125 137 126 118  89  74  70  64  61  62  66  71  80  84  90 101 136 174 212 217 189 180 184 172 147 124  99  89  84  77  71  68  67  70  77  83  87  94 104 113 128 144 159 165 167 165 165 166 166 155  86  32  21  18  18  21  24  29  59  82 127 145 147 149 149 148 148 148 149 146
 165 166 168 168 167 166 165 166 167 168 166 160 159 130  45  70 186 186 180 173 173 170 159 145 128 117 106 101  92  85  76  70  72  73  84  92 102 122 159 192 223 214 185 178 186 179 160 142 114  97  90  87  79  73  70  70  73  79  81  89  97 111 130 146 162 170 171 171 168 169 168 160 120  35  23  18  16  18  23  27  47  75 110 139 148 148 150 149 148 148 148 147
 166 166 167 167 168 166 166 166 167 168 166 160 160 150  66  96 188 194 193 189 188 179 165 145 117 104  98  92  89  82  77  75  76  84  98 102 114 144 176 203 223 206 184 177 185 180 168 156 130 106  99  99  96  90  82  80  80  83  88  99 113 127 140 151 163 173 173 174 170 170 169 164 140  50  27  17  16  17  22  25  35  67  80 131 148 149 152 150 149 149 149 149
 166 164 166 168 167 166 165 166 166 167 167 162 161 155  91 113 189 198 198 198 195 191 179 158 128 106  96  91  86  84  82  87  95 101 105 108 135 162 188 202 210 198 188 182 184 178 170 162 142 118 107 105 105 107 102  99 102 109 114 126 134 144 151 160 166 171 172 172 173 172 170 164 152  70  30  21  17  16  21  23  37  57  72 109 143 150 151 150 150 151 150 149
 166 165 166 167 168 166 164 164 165 166 166 162 160 152  87 132 191 199 202 203 200 199 192 183 169 144 121 105 101  96  98 104 107 108 108 122 150 176 191 197 208 204 188 182 184 177 169 165 151 130 117 111 111 117 118 122 126 131 134 135 143 148 154 162 166 170 171 170 171 170 170 164 155  95  35  24  19  17  19  22  30  47  66  91 135 149 151 151 151 152 151 152
 165 166 166 166 167 166 165 165 165 166 164 160 160 140  77 148 193 201 201 203 201 200 197 191 185 172 162 144 131 123 118 116 116 113 119 136 160 181 186 194 206 207 192 185 185 176 168 162 151 137 126 115 118 123 124 126 134 138 141 142 145 147 152 158 164 167 169 168 168 170 168 165 155 118  41  27  20  17  19  21  24  49  68  66 125 149 152 152 153 152 151 153
 166 166 166 166 166 168 166 165 164 164 165 163 159 108  54 150 191 196 199 199 199 197 192 189 186 179 171 163 155 146 136 132 126 124 128 144 163 179 185 188 201 206 190 180 184 178 168 162 151 138 132 123 118 121 127 131 137 141 140 142 146 147 151 152 157 161 165 165 165 165 166 162 153 129  45  28  22  18  18  19  23  38  66  80 105 145 152 153 153 153 152 153
 168 168 168 167 168 168 168 166 166 167 166 164 146  75  65 153 186 193 195 193 190 190 185 181 177 177 175 169 164 158 149 142 138 133 137 148 162 176 184 188 202 213 194 180 181 180 170 161 150 129 129 124 121 120 125 126 133 138 142 144 149 150 151 155 155 157 160 160 163 164 165 161 152 137  47  30  22  17  18  20  22  22  66  87  93 141 152 154 154 154 154 154
 168 169 168 169 169 167 169 167 167 168 166 161 141  92  80 151 184 188 186 186 185 183 179 176 176 174 170 169 165 164 160 148 141 134 128 144 157 172 179 188 209 217 190 180 184 183 166 156 151 139 124 116 117 120 123 124 130 134 139 145 150 151 155 158 159 157 158 157 161 161 159 157 149 136  52  31  22  18  19  18  23  25  52  84  77 136 153 154 154 155 154 155
 171 170 171 172 170 170 169 169 170 168 165 161 154 124 112 153 180 183 180 180 179 177 173 174 173 173 172 171 170 166 158 146 139 131 120 131 145 163 175 188 207 204 182 175 179 176 160 155 149 135 112 106 108 114 117 121 124 131 135 142 145 149 152 156 157 158 159 158 160 160 157 154 145 134  53  31  21  16  16  19  21  25  48  75  80 121 153 156 155 155 156 158
 174 174 172 174 173 174 173 172 172 169 166 165 161 148 142 149 176 177 177 175 173 173 171 173 172 172 172 176 172 162 153 141 133 127 122 118 134 164 184 183 187 175 160 155 158 160 160 160 160 141 102  97 102 108 114 119 123 129 135 139 142 146 149 151 154 156 158 159 158 156 154 150 144 132  56  28  21  17  17  18  20  23  33  63  92 103 152 156 155 156 156 158
 175 174 175 174 174 174 173 174 173 173 171 167 164 160 144 144 174 174 176 172 167 163 174 175 176 176 176 170 167 157 146 134 125 122 116 108 137 184 189 169 148 138 130 127 133 142 151 160 166 161  99  88  97 105 111 114 121 127 134 139 142 143 144 148 149 152 157 157 156 155 152 149 141 127  53  25  20  17  16  18  20  22  24  67  96  92 147 155 155 157 158 158
 176 176 176 175 175 175 177 176 174 173 171 168 165 167 151 132 170 169 170 167 166 172 173 174 174 172 169 163 159 147 135 126 119 113 108 103 151 179 169 142 124 116 113 112 113 118 126 144 155 162 124  81  92 100 105 112 116 121 125 131 138 140 142 145 147 152 154 154 154 152 150 144 137 124  47  22  17  17  16  17  17  21  27  61  82  85 150 154 157 158 160 160
 178 178 177 176 178 176 177 176 176 175 170 170 168 172 156 134 166 168 168 166 167 173 172 169 170 167 163 152 144 138 126 117 112 109 103  96 171 164 144 118 103 100 103 102 101 102 109 123 139 147 141  74  86  97 104 107 112 117 123 127 131 137 141 142 144 148 154 153 150 152 148 144 135 119  43  19  15  17  16  18  19  21  26  59  71  72 146 156 155 160 159 159
 180 179 179 180 180 177 180 177 178 176 174 170 173 173 159 143 157 165 167 166 169 166 165 168 165 162 157 144 137 127 122 113 109 106 100 102 162 145 120 106  96  96  94  93  93  95  78  80 114 127 132  73  84  94 102 106 109 113 117 119 125 133 138 140 142 145 152 153 150 149 145 142 131 115  37  18  15  16  15  18  19  21  27  50  71  81 137 157 157 161 161 159
 182 180 180 181 180 180 179 181 180 178 175 172 175 174 160 149 153 163 166 165 165 160 160 162 161 157 149 139 131 123 119 112 107 105  98  92 137 118  84  39  58  92  90  91  90  77  34  31  78 105 112  75  84  93 100 105 107 110 112 112 115 123 130 135 140 140 139 138 147 145 144 141 131 111  28  17  16  16  15  17  18  22  26  40  66  81 130 159 159 159 161 162
 183 182 181 182 182 182 182 182 181 179 178 174 176 175 164 160 149 162 163 162 161 157 158 157 154 149 141 132 125 121 115 110 105 101  94  87 108 105  78  47  51  79  88  92  87  76  65  59  79  94  87  81  88  93  98 101 106 108 107 110 111 116 122 129 132 133 123 110 143 143 143 139 133 100  25  16  17  15  15  16  18  19  30  38  64  88 123 159 160 160 162 163
 184 184 185 184 183 183 183 182 182 181 180 177 178 176 166 167 154 159 160 158 156 156 156 153 148 140 131 125 124 117 113 109 105 100  96  92  92  90  80  71  75  85  89  95  87  85  83  76  71  72  90  93  93  94  99 101 104 105 106 108 110 112 116 121 125 129 127 129 139 141 139 137 132  91  24  16  15  15  15  17  18  18  30  41  64  88 127 159 159 162 163 162
 186 186 185 183 183 186 183 184 183 183 181 180 180 176 170 170 156 157 155 157 153 150 150 146 138 132 125 121 119 114 109 106 106 102 102 109 121  95  75  72  83  87  89  92  87  88  87  86  90 113 121 110 100  96  97  99 101 103 105 107 107 110 114 116 120 124 127 131 136 136 137 137 131  81  25  16  15  15  15  17  18  19  32  41  55  81 125 159 160 162 164 164
 187 188 185 186 187 187 185 185 184 185 182 180 180 176 174 173 160 154 156 153 143 142 141 136 129 126 121 118 114 111 108 107 104 103 112 132 150 151 105  86  88  89  89  87  86  91  95 109 134 141 135 124 114 105  99  97 100 103 102 103 107 107 110 112 114 119 126 129 132 133 134 136 132  68  22  16  15  15  15  16  18  21  28  38  51  81 136 157 161 164 164 167
 189 189 188 188 188 188 186 186 186 185 183 184 182 177 175 173 165 154 156 148 140 136 133 127 124 121 117 115 111 108 108 106 106 112 129 149 163 169 144 107  95  92  89  85  85  94 113 131 142 144 140 131 122 113 102  99  98  99 100 101 104 106 109 112 113 117 124 125 128 130 134 137 133  81  22  16  15  14  15  17  18  19  31  32  49  88 142 156 161 165 168 168
 188 188 190 190 189 189 188 188 188 186 186 185 182 180 179 174 169 152 157 146 139 133 129 123 118 116 115 111 110 109 106 106 110 119 138 154 166 168 162 136 104  96  86  82  87 101 122 135 139 142 141 135 125 119 106  97  95  97  99 101 102 103 107 108 110 115 118 123 123 129 134 137 131  75  23  15  15  16  15  14  18  20  31  34  43  96 151 157 162 167 168 169
 191 190 190 190 190 189 189 188 188 189 188 188 181 182 179 171 169 140 157 146 137 130 124 118 115 114 112 107 109 109 107 108 109 120 138 154 161 163 162 151 118 107  91  87  97 114 124 136 134 136 140 138 128 121 109  97  91  92  94 102 104 106 106 108 110 114 117 120 124 126 134 136 128  61  22  14  16  14  14  15  17  19  30  38  43 101 155 160 165 170 169 170
 192 192 191 190 190 191 192 190 188 188 188 188 183 182 181 173 170 147 157 146 134 127 118 115 114 112 112 110 107 107 104 104 103 115 131 144 152 156 156 146 121  99  94  95  92  91  92  96 110 119 128 132 127 118 108  94  84  87  89  96  99 102 104 108 113 116 116 120 124 129 135 135 125  44  19  15  15  14  13  15  17  17  26  35  46  94 160 165 168 172 172 171
 194 192 193 193 191 191 192 190 188 187 188 187 184 183 181 173 170 127 146 144 130 125 120 114 115 113 111 109 106 104 101  96  98 107 122 134 141 132 112  94  82  78  76  81  76  70  71  72  76  79  89 102 112 108 102  91  79  80  85  91  94  98 103 109 112 116 117 120 125 130 133 135 108  28  17  14  15  14  15  15  16  18  28  29  57  96 164 165 170 174 174 173
 195 196 196 195 195 195 194 192 190 189 188 187 187 184 180 174 169 120 121 145 131 123 120 116 114 112 110 109 104 102  98  93  95  98 108 115 104  88  77  72  70  70  69  76  71  68  68  70  70  68  68  68  70  79  82  77  58  63  74  89  93  96 103 108 111 117 117 120 123 128 134 131  89  26  18  16  15  14  14  14  16  19  24  27  57 111 164 167 173 174 176 177
 198 198 197 195 196 196 195 195 193 191 190 187 186 185 180 175 175 112 118 146 132 122 121 118 115 112 109 107 103  98  92  86  84  86  88  78  68  64  62  62  65  61  65  69  63  63  62  61  56  56  54  57  59  60  55  44  45  49  67  82  92  99 103 107 110 114 115 118 121 125 129 126  71  32  20  16  15  14  14  14  16  18  25  28  66 118 168 169 173 175 175 175
 198 198 199 199 198 197 196 196 193 193 193 188 187 187 180 177 170 108  78 145 134 124 120 118 116 113 111 107 101  94  85  71  61  56  52  50  50  52  56  57  53  52  58  57  59  61  65  75  82  96 116 109  96  81  70  65  64  58  65  80  90 100 107 106 110 112 113 116 119 122 123 118  45  34  22  15  16  14  15  14  15  17  27  31  64 137 168 169 173 174 175 174
 199 196 199 198 198 197 198 196 196 193 191 188 188 187 177 179 171 105  63 129 131 122 120 118 115 113 108 107 103  94  78  66  59  63  64  63  68  73  83  94  93  88  83  82  83  88  91  95 104 112 117 110 103  96  88  86  80  73  74  81  91  99 107 108 108 111 112 113 114 116 117  94  29  28  21  17  20  16  14  15  15  17  28  32  65 147 168 169 174 175 175 174
 199 199 199 198 197 196 197 196 196 194 190 188 189 187 180 180 162  97  59  99 131 121 121 116 114 111 110 104 101  93  82  74  75  83  84  83  87  95 103 108 110 102  94  88  85  87  94  93  96 100 102 100 100 103  99  94  90  86  85  87  93 101 104 107 108 110 111 113 112 114 112  59  24  24  21  17  24  17  15  19  15  17  27  33  72 152 168 169 173 173 175 174
 198 198 198 198 195 196 195 196 194 193 192 191 190 188 180 183 151  79  58  76 129 123 119 116 112 110 110 106 104  96  90  88  87  90  91  96 100 100 101  98  96  92  88  87  84  85  86  84  84  87  90  92  95 102 104  99  95  94  92  91  94  98 101 105 107 110 112 109 110 110 100  29  18  19  20  19  26  17  15  15  16  18  29  34  93 154 167 170 173 172 173 173
 197 199 198 197 196 197 196 195 194 193 192 190 189 185 181 181 140  77  64  60 109 122 116 114 113 110 109 108 104  98  92  94  92  96  97  98  98  96  94  90  84  83  84  83  81  81  78  79  81  81  85  90  95 100 102 100  98  97  94  95  94  97 102 103 106 107 111 108 109 106  60  22  16  14  17  19  23  16  16  15  17  17  27  31 116 161 166 170 173 174 175 172
 198 198 198 199 197 196 197 196 195 194 192 191 187 183 181 178 133  93  68  57  71 119 115 113 112 110 108 107 105 101  95  95  99 100  98  97  96  94  91  89  86  85  82  78  78  78  79  82  84  84  85  89  94  98 104 103 103  98  97  96  97  98 101 104 106 107 109 105 104  89  26  19  15  13  16  16  18  15  14  15  17  19  28  37 134 166 168 168 172 174 173 173
 198 199 198 198 198 197 196 195 195 193 193 192 189 183 181 176 114  97  68  52  53  94 112 111 111 109 108 107 103 101  97  96 100  99  99  98  96  95  91  88  88  86  82  82  84  82  83  83  84  85  86  89  94 102 105 108 104 104 101 100 101 101 100 101 105 107 105 102  96  49  18  15  13  13  17  18  17  15  16  15  16  22  28  45 146 168 170 174 174 175 174 174
 198 199 198 198 197 197 196 196 195 193 195 192 190 182 179 177  94  90  66  49  52  49  99 108 107 107 107 106 102 101 101  98  98  97  98  98  99  95  91  90  90  86  82  81  81  83  82  84  88  88  90  92  99 106 110 110 108 108 105 102 103 103 102 102 104 107 102  96  72  20  16  13  14  15  17  19  19  15  17  15  16  24  31  57 154 170 173 174 174 176 175 176
 199 199 197 199 197 197 196 196 196 194 195 194 187 183 179 172  96  85  52  46  47  40  47 103 105 106 105 106 106 103 104 102  98  99  98 100 100  99  94  92  88  87  86  86  83  84  86  90  90  92  96 100 108 113 116 116 115 114 110 107 106 105 103 101 102  99  95  83  29  16  12  12  16  17  19  22  18  15  16  15  16  24  35  74 154 170 173 173 175 175 175 175
 202 199 199 199 198 199 196 197 196 196 195 193 186 184 181 150  97  67  47  44  42  33  21  63  98 101 105 105 105 102 104 102 101  99 100 100 103 102 100  96  93  90  91  90  90  91  94  93  96 102 107 112 116 119 121 121 120 120 116 112 107 106 104 101  98  95  86  45  22  14  12  13  18  18  22  24  21  15  17  16  17  27  39  86 157 172 174 174 174 175 175 175
 202 202 199 200 199 197 197 196 196 195 193 190 187 186 182 126 103  49  47  41  37  25  20  28  78  98 100 101 102 101 104 104 104 104 103 103 105 107 107 106 102  96  95  97  97  96  96 103 109 114 119 121 121 123 125 124 125 122 120 118 112 107 102  97  92  87  51  24  22  13  12  12  17  21  23  25  22  16  18  17  20  35  36 106 162 172 175 176 175 176 175 175
 202 200 199 200 199 197 198 197 197 196 192 190 189 189 184 102  91  52  46  37  33  21  19  23  38  83  97 101 103 103 104 104 105 105 106 107 108 111 112 113 112 107 103 100  98 100 102 110 118 119 120 124 125 124 127 125 127 126 124 118 111 103  98  91  83  54  19  17  22  13  11  14  21  22  23  25  25  19  15  18  23  36  36 124 168 174 175 176 177 176 175 176
 201 201 201 200 200 199 198 196 197 196 193 191 188 189 183  92  79  46  42  36  33  19  19  23  37  41  84  96  99 102 104 104 108 109 110 110 108 110 115 116 118 115 108 102 100 100 101 110 113 115 116 120 122 124 126 124 125 124 122 116 107  97  91  82  55  21  15  17  22  14  12  13  23  24  22  26  26  22  17  20  25  41  41 146 171 176 176 177 178 177 176 177
 202 201 200 200 200 200 198 198 197 197 195 191 190 190 163  86  57  45  34  35  33  19  15  29  35  35  37  75  90  96 101 104 108 109 110 112 111 110 112 116 117 112 108 103 102 100  98 101 108 105 109 114 118 121 121 122 120 121 115 109 102  90  81  52  26  15  13  20  24  16  12  12  21  24  24  25  27  26  22  23  28  52  53 152 173 175 179 180 180 179 178 177
 204 199 201 199 203 200 199 198 197 197 195 193 193 185 138  68  47  39  31  29  30  18  17  30  25  32  30  29  68  88  94  99 106 108 110 109 106 109 110 110 110 106  98  99  98  97  95  93  98 100 103 107 109 112 113 115 114 112 105  97  87  76  53  31  21  13  13  18  20  16  12  13  22  25  23  25  28  33  26  27  36  68  87 162 176 175 179 178 178 178 176 178
 202 201 202 202 201 198 199 199 199 197 194 189 190 181  95  62  44  32  26  29  25  16  18  28  19  30  32  27  25  50  82  91 100 102 104 106 107 107 106 104 102  98  95  93  93  93  92  94  94  96  97 100 102 105 106 104 104 101  93  84  70  52  35  25  17  10  13  15  16  15  11  13  20  24  24  25  28  36  29  32  39  67  96 167 177 175 176 177 178 177 176 179
 201 199 201 203 202 198 199 198 198 194 193 189 180 139  71  48  36  27  24  27  20  16  23  19  15  30  36  32  22  18  53  76  88  92  97  98 100 102  99  97  95  93  90  90  92  91  91  90  93  91  93  94  93  97  96  94  91  86  78  62  46  39  29  22  14  12  13  13  14  16  11  13  19  21  24  25  32  37  40  36  47  63 119 170 175 176 178 178 176 177 177 177
 198 202 203 201 200 199 199 198 196 192 187 178 150 100  58  40  32  25  22  27  19  15  23  15  13  32  48  37  25  17  29  52  66  83  88  90  92  93  94  92  92  89  87  87  87  87  87  87  89  89  89  92  88  89  86  84  80  69  54  42  39  33  26  19  13  13  11  11  12  17  10  12  20  25  24  23  33  38  54  40  57  60 144 170 176 176 176 178 176 179 178 177
 199 199 202 202 200 199 198 195 193 189 176 151 127  78  48  37  29  22  23  24  19  16  21  13  13  28  47  38  23  15  20  43  48  53  70  81  83  85  88  88  88  87  86  86  84  81  80  82  84  83  85  84  82  80  76  68  58  48  40  39  33  29  22  15  14  14  10  11  12  16   9  14  20  26  24  24  34  45  54  42  78  58 155 172 175 175 178 177 177 179 178 175
 202 199 199 198 197 197 195 192 189 174 155 128  90  62  45  32  26  20  24  20  16  19  17  12  13  25  35  30  20  19  15  32  42  42  44  57  65  74  78  82  80  79  79  80  77  76  73  74  75  74  74  72  68  63  57  47  43  41  38  36  32  26  18  16  15  10   9  11  13  15  10  13  21  23  21  22  30  42  51  54  95  68 134 172 174 175 178 176 176 176 177 177
 202 201 200 198 195 192 186 183 177 153 131 130  88  60  39  29  24  22  26  19  15  18  14  12  13  21  27  26  14  20  15  21  36  36  37  38  44  52  59  64  66  65  69  68  66  65  61  61  59  60  59  55  51  51  48  44  40  39  36  32  28  21  15  16  12  10   9  10  12  13  10  12  21  21  19  20  26  37  42  71  73 112 121 152 166 173 175 176 176 176 175 174
 201 200 198 196 194 193 187 175 167 164 148 122  86  46  37  27  25  23  28  15  14  16  14  12  14  18  24  23  15  15  17  18  30  34  32  35  37  43  48  52  53  55  56  55  55  54  55  55  55  54  54  54  51  47  44  40  37  37  32  27  24  18  18  12  10   9   9  12  14  13  10  11  20  21  19  18  23  29  32  34  38  55  64  82 101 127 139 150 158 157 155 145
 200 197 196 192 189 183 178 177 171 154 129 103  83  42  40  29  25  31  26  14  13  14  13  13  13  15  22  22  14  11  15  18  21  31  31  29  29  34  40  46  51  53  55  55  56  54  55  55  55  54  54  50  48  41  36  35  33  30  28  24  20  17  12  10  10   9  10  11  14  11  10  13  21  20  20  20  22  28  27  27  24  20  21  26  26  23  26  27  30  29  26  23
 198 194 196 192 194 191 185 177 166 149 124 107  54  46  43  29  25  46  20  15  13  14  11  11  12  13  20  21  16  11  12  15  17  23  27  26  24  26  30  35  40  46  50  50  52  52  52  54  53  51  47  44  39  34  31  31  30  29  22  18  16  11   9   9   8   9   9  11  14   9  10  15  22  20  21  21  25  28  27  27  22  15  14  20  16  17  17  17  18  19  22  22
 200 193 194 195 193 185 184 175 162 143 118  68  63  51  34  30  40  32  17  15  13  13  11  11  12  11  16  22  19  12  10  11  14  14  21  25  21  22  25  26  30  35  37  41  40  41  44  45  44  39  37  35  33  30  27  26  25  23  16  14  11  10   9   9   9  10   9  11  13   9  10  18  22  19  18  19  22  24  28  26  21  14  13  16  13  16  16  15  16  17  17  18
 194 194 194 193 188 186 174 162 140 116  95  98  82  44  43  33  29  20  15  13  12  14  12  10  11  11  14  16  16  13  11  10  11  12  13  18  18  17  18  20  23  25  26  30  32  30  32  32  33  31  29  27  25  23  22  21  18  16  12  11   9   9   9   9   9   8  10  12  10   9  12  21  20  19  18  16  18  26  26  27  19  14  13  15  15  16  16  15  14  15  15  16
 200 197 196 194 186 176 158 140 137 103 117  85  53  36  32  30  25  19  15  13  13  12  12  10   9  11  13  15  15  14  12  10  11   9  12  12  15  14  15  14  18  18  21  22  24  23  24  24  24  23  22  20  17  16  14  13  11  10   9   9  10   9  10   8   9   9  10  11   9  10  16  19  18  17  18  14  14  20  26  25  22  15  13  14  13  13  15  14  15  13  15  16
 196 196 190 185 166 157 158 148 123 132  73  49  39  34  32  26  24  20  15  13  14  13  12  10   9  10  10  14  15  12  12  12  12  10   9  10  11  12  12  13  13  15  16  14  16  17  17  16  15  14  13  11  11  12  10  10   8  10   8   9   8   9  10  10   9  11  12  11  12  16  19  17  16  16  14  10  12  16  23  25  21  16  14  13  12  11  12  13  13  14  13  14
 192 186 174 169 171 171 140 117  82  52  45  43  36  32  30  24  21  17  15  15  14  14  13  11  10  11  11  15  16  14  13  12  10  10  10  10  11  11  11  11  11  12  12  13  11  12  11  12  12  12  11  11  10  10   9   9   9  10   9   9   8   9   9  10  10  11  14  12  13  17  18  16  17  15  13  10  10  14  19  23  20  17  16  12  11  10  10  12  12  12  14  12
 178 161 147 136 114  86  64  43  40  37  36  36  33  30  26  22  19  15  16  16  15  14  12  11  10  10  10  13  14  14  12  13  12  11  10   9  11  10  10  10  11  11  10  10  10  10  11  10  11  10  10  10   9   9   9   9  10   9   9  10   9   9   9  10  11  13  13  12  13  18  16  16  15  14  12  10  11  13  15  19  22  19  16  11  11  10  10  11  11  11  12  12
 154  79  42  40  40  40  37  34  34  34  35  31  31  26  23  22  18  16  15  17  13  13  11  10  10  12  11  12  12  12  14  13  12  10  10  10  10  11  10  10  11  11  10   9  10  10  10  10  10   9   9  10   9  10  10  10   9  10   9  10  10   9  10   9  10  13  11  14  17  16  16  16  15  15  11  10   9  12  14  17  17  22  18  14  10  11  11  10  12  10  10  12
  49  43  37  35  34  33  32  32  33  32  31  28  25  24  23  21  17  17  18  17  13  13  12   9  10  11  11  12  13  11  12  13  12  10  11  11  10  10  10  11  10  10   9  10   9  10  10  10  10   9   9   9   8  10   9  10  10  10   8   8   9   9  10  10  10  10  13  16  15  17  15  15  14  14  11  11   9  11  13  15  15  17  22  18  14  11  11  12  11  10  10  10
  41  37  36  31  28  31  31  32  30  32  29  26  25  24  22  20  20  22  16  15  12  13  12  12  11  10  11  12  13  10  11  11  11  11  11  11  10  10  10  11  10  10  10  10   9  10  10  10  10  10  10  10   9   9   9   9  10   9   8   9   9   9   8   9  11  12  13  16  16  14  17  18  14  12  11  12  10  10  12  14  15  13  16  17  13  12  10  12  11  10  10  10
