P2
# Generated by OpenCV 3.4.0
92 112
255
 130 129 130 131 132 132 134 133 134 134 133 134 134 133 134 136 134 135 134 136 137 136 137 136 137 137 135 137 134 135 136 138 137 137 138 139 138 136 138 137 138 138 136 138 137 137 137 138 139 139 138 139 138 138 139 138 138 137 138 139 138 139 139 138 137 138 138 139 137 138 137 137 138 138 138 137 136 136 135 136 137 136 137 136 134 135 135 135 134 133 134 133
 131 131 130 132 134 133 133 133 135 135 135 133 136 134 134 134 136 135 135 135 137 136 137 135 137 138 138 137 138 138 137 138 138 139 137 139 139 140 138 138 139 139 137 136 138 139 138 138 139 140 140 140 138 139 137 138 139 141 138 139 139 140 142 138 139 139 137 139 137 138 139 139 137 138 138 138 138 138 138 137 138 136 137 137 136 137 137 137 135 134 136 135
 131 131 133 132 132 134 132 133 135 136 133 135 135 136 134 135 136 136 135 137 137 134 136 136 136 136 137 138 139 137 139 139 138 138 140 139 139 139 140 141 140 138 138 139 138 140 139 139 138 138 140 141 139 138 139 140 138 140 140 141 140 140 141 139 139 137 138 139 139 138 140 138 138 138 138 139 138 138 138 138 137 136 137 138 137 136 137 136 136 134 136 136
 132 132 133 133 135 134 135 135 135 136 134 135 136 136 135 137 137 137 136 137 137 137 138 138 138 138 139 138 140 138 140 140 140 139 137 140 140 139 140 138 141 139 140 140 139 139 140 141 140 138 140 142 140 140 140 139 140 140 139 140 140 142 140 140 140 138 138 139 140 138 138 139 140 138 138 140 139 138 138 138 138 137 138 138 138 138 137 138 137 136 135 136
 130 132 134 135 134 133 134 136 135 135 136 138 135 138 135 136 137 136 139 137 139 138 136 139 137 138 139 139 138 139 140 140 139 137 139 137 138 140 140 141 140 140 140 141 140 141 140 141 140 140 141 142 141 140 141 138 140 139 139 140 142 142 139 141 140 139 140 139 140 138 139 138 141 140 138 139 138 138 137 139 138 137 138 138 138 139 137 137 137 136 136 135
 131 133 133 133 135 134 133 136 136 133 137 135 137 138 136 135 137 137 135 137 140 139 139 139 139 138 137 138 139 138 141 140 138 140 140 141 140 140 141 139 139 138 140 142 142 142 141 139 138 139 139 142 142 142 141 141 141 140 139 140 141 142 140 142 141 142 140 140 140 140 140 140 141 137 139 138 139 139 138 139 140 138 137 138 137 138 137 136 137 136 135 136
 132 134 132 134 134 135 136 134 135 134 137 136 136 137 136 137 136 138 138 138 139 139 140 138 139 138 140 140 139 137 141 140 140 140 140 140 140 141 140 139 139 139 139 138 137 139 140 140 140 141 140 142 142 141 139 140 141 142 142 140 142 142 142 141 140 140 140 141 141 141 140 140 140 139 141 139 138 139 139 138 139 138 138 137 136 138 137 136 137 138 137 137
 133 133 134 134 135 136 136 134 137 137 137 136 136 137 136 137 139 140 139 140 139 138 140 139 140 139 138 139 138 138 139 139 137 137 136 136 136 138 137 137 138 136 136 139 141 140 141 141 141 140 140 142 141 142 142 142 143 142 142 140 141 142 140 140 141 140 141 142 139 141 140 140 141 140 142 141 140 140 140 140 140 139 139 139 138 139 138 138 138 138 137 137
 132 132 135 134 134 134 135 135 138 136 136 137 137 136 139 136 137 137 140 140 139 140 140 138 139 138 138 138 141 138 133 126 123 115 108  97  93  88  94 100 110 121 130 132 133 138 137 141 141 141 140 142 143 143 140 142 142 143 142 142 142 142 142 142 142 142 140 141 140 141 141 141 139 142 141 141 140 140 140 140 141 140 139 138 140 138 139 139 138 138 137 137
 133 134 134 134 134 134 134 136 137 137 135 138 139 137 139 136 138 138 138 141 139 139 141 139 140 138 139 131 129 121 114 102  91  70  60  53  51  50  54  61  61  56  61  75  97 115 129 134 135 138 141 141 141 142 142 142 143 143 142 142 143 143 143 143 142 142 142 141 141 142 142 142 142 143 142 142 140 140 141 142 141 140 139 139 140 139 139 139 138 138 139 138
  97 114 129 131 133 133 133 135 137 136 136 136 139 140 138 139 138 140 140 138 141 139 139 139 136 134 130 119  99  84  83  82  76  63  54  49  46  44  47  56  74  98 105  91  78  73  82 100 122 134 138 141 141 143 141 142 142 142 143 143 144 143 143 143 141 143 140 141 141 142 141 141 141 140 142 142 141 141 142 141 140 140 141 140 142 138 140 140 138 138 138 137
  97  80  69  58  66  70  85  95 109 121 134 136 137 137 136 137 138 138 140 136 140 139 138 135 130 112  92  79  74  72  65  54  42  37  42  42  46  42  41  40  37  47  79 120 132 122  97  83  72  88 119 132 138 140 142 142 142 143 143 142 143 142 143 143 142 143 142 142 141 141 141 144 142 143 142 142 142 143 141 141 139 141 139 140 141 139 140 139 138 139 138 137
 133 133 132 135 133 129 119 105  95  81  69  68  78  91 106 123 132 134 138 136 136 136 132 125  90  75  68  64  57  49  40  35  31  31  30  33  36  34  31  30  31  35  43  51  93 124 131 121 108  71  64  96 124 136 142 143 142 143 143 141 143 143 142 143 143 142 142 144 143 143 143 142 142 142 141 142 142 142 142 139 141 140 141 140 141 139 141 140 139 140 139 138
 134 133 133 135 134 135 135 137 137 136 137 132 127 113  99  79  70  77  98 122 126 125 114  90  67  58  52  50  47  39  31  32  29  31  33  33  30  28  27  26  27  30  32  38  47  58  84  88  92  91  90  72  78 111 131 137 140 143 141 142 142 143 142 143 142 142 142 142 142 141 141 141 141 142 142 142 142 142 139 139 140 140 141 141 140 139 139 137 140 139 138 138
 134 134 134 135 136 137 136 136 137 136 136 136 136 136 137 135 133 126 106  85  78  94  77  66  54  51  49  60  52  32  31  30  33  30  27  27  26  24  24  26  27  25  26  29  36  44  49  55  60  55  47  50  63  61  90 125 137 142 141 141 143 142 142 143 140 142 142 142 141 143 142 142 142 142 142 142 143 141 142 141 141 139 141 139 139 137 140 139 139 137 139 138
 135 135 135 135 135 135 135 136 135 136 136 136 136 137 137 136 132 129 128 121 116  68  53  48  51  48  53  57  45  32  36  36  31  28  30  30  29  29  26  28  26  23  24  24  27  33  41  45  46  40  41  38  35  40  49  85 121 136 141 140 142 140 141 142 142 143 142 141 142 140 141 140 141 141 140 141 141 142 141 141 141 141 140 140 140 137 139 137 137 138 138 137
 135 137 134 134 135 134 134 136 134 136 137 136 135 136 135 136 128 128 121 116  95  55  51  46  44  43  54  46  43  37  34  32  36  31  30  32  32  29  30  25  25  24  23  22  23  24  33  39  43  40  35  33  32  33  34  40  60 104 134 139 139 142 141 141 141 140 140 141 141 141 141 140 140 140 140 140 139 137 138 138 138 138 138 136 138 138 136 136 134 135 133 133
 135 134 133 133 135 135 135 134 134 132 135 133 134 135 136 132 125 124 118 111  64  54  55  44  43  48  44  42  39  38  36  36  35  33  32  30  36  32  28  26  26  25  25  24  23  20  24  37  39  41  43  35  31  31  32  33  37  41  71 122 136 137 138 136 138 135 136 135 136 134 134 131 131 129 123 125 122 118 115 114 108 109 106 104  98  96  94  92  90  89  87  86
 132 133 133 132 128 135 134 135 134 135 135 135 134 132 131 126 124 115 116  86  58  50  53  41  42  43  42  41  37  36  37  36  40  43  48  48  47  40  36  34  33  30  29  27  25  24  21  25  37  37  41  43  35  32  33  33  32  34  38  51  84  92  90  93  90  93  88  89  88  88  89  89  91  92  92  96  97 100 101 102 100 102 109 109 110 110 111 115 115 117 117 118
 129 130 130 126 116 128 127 126 126 125 123 123 121 121 117 111 110  96  87  74  57  47  40  40  35  32  37  41  41  44  59  75  83  79  79  72  69  66  62  59  51  44  38  32  29  25  24  24  29  35  38  43  46  40  33  33  34  33  35  38  47  78 113 119 121 123 126 124 127 126 126 125 128 128 132 129 128 129 131 131 132 132 131 134 133 133 134 135 136 134 134 133
  86  87  86  89  86  90  83  89  86  92  92  93  95  94  94  94  99  84  75  74  62  44  37  35  32  34  35  41  69 102 116 120 114 107 113 104 107 105  97  90  81  72  61  51  42  32  27  24  25  29  35  39  45  46  41  33  34  34  36  36  40  44  71 128 137 141 141 139 140 143 141 141 140 142 140 141 141 140 142 142 140 139 140 139 139 139 140 139 138 140 137 138
 122 120 122 126 128 127 128 130 129 130 129 130 134 132 130 131 127 106  95  97  86  62  44  36  37  39  71 112 148 157 158 158 145 128 130 126 135 132 128 117 104 100  91  84  72  55  38  31  26  25  32  37  43  50  48  42  38  36  36  41  41  42  42  70 128 140 141 142 143 143 141 142 142 144 142 143 143 141 142 142 142 139 140 141 140 139 139 140 140 139 137 139
 136 137 137 137 135 136 137 136 137 139 139 141 140 141 137 135 125  94  96  94  81  60  53  47  70 131 178 205 209 209 207 201 191 176 164 160 161 162 155 146 133 127 117 105  96  85  69  49  33  29  25  32  37  46  51  47  42  37  37  40  43  43  40  50  69 130 141 142 143 142 143 142 142 143 142 143 142 141 142 141 143 141 143 141 141 139 140 139 139 140 139 139
 138 137 136 137 138 139 141 142 141 141 143 142 142 143 138 129 116  88 100  82  63  56  59 123 188 215 232 234 231 225 219 212 200 194 188 182 179 174 172 164 156 144 134 127 118 104  90  77  54  38  32  24  31  38  46  51  46  43  41  36  42  46  45  46  53  70 126 141 144 144 142 143 144 143 141 142 142 141 140 141 141 142 143 142 141 141 140 139 138 139 139 138
 136 137 139 140 141 141 142 142 141 141 141 140 142 141 139 135 125 103 115  93  86  97 178 213 226 231 240 240 233 226 220 213 206 202 198 193 186 177 171 165 159 155 148 140 133 123 108  90  76  61  45  32  27  31  44  47  52  52  46  41  36  46  50  46  45  57  74 131 141 141 143 142 142 143 142 143 142 143 142 141 141 142 143 142 141 141 142 141 140 140 141 139
 138 139 140 142 140 142 142 142 142 142 142 141 141 140 140 139 124  93 102  94 125 201 219 224 230 230 233 230 223 215 212 208 203 197 191 186 179 170 164 157 153 150 148 146 142 137 126 108  87  74  64  53  31  31  34  48  51  53  53  45  39  43  46  50  48  48  62  79 135 142 142 142 142 143 144 143 142 142 142 142 142 143 142 142 143 142 140 139 140 140 141 139
 139 142 140 141 141 142 141 142 142 142 143 142 143 142 139 135 122  99  88 126 202 217 224 227 229 228 227 221 213 206 202 199 190 182 178 174 168 160 151 146 143 144 144 144 143 140 137 125 105  84  70  67  50  33  32  40  46  52  56  50  45  39  49  45  52  51  52  57  88 139 142 142 143 142 143 144 143 144 143 144 143 143 142 142 141 142 141 140 139 139 141 140
 141 141 140 142 142 142 144 144 142 145 141 142 145 144 141 134 118 103 103 200 211 219 223 220 216 219 218 214 206 201 196 188 168 174 170 163 157 147 140 137 134 135 134 135 138 140 139 135 122 102  82  71  65  49  34  30  39  43  52  54  51  46  46  47  46  53  52  49  53 102 139 142 142 142 143 144 144 143 143 144 144 143 142 143 141 142 142 142 141 141 140 141
 141 140 142 143 141 143 144 145 143 142 143 143 145 144 140 130 116 111 191 201 206 212 211 210 204 200 202 200 197 189 182 176 171 168 163 156 149 140 136 133 130 129 130 131 133 137 140 136 130 118 102  84  73  58  41  32  33  40  45  51  53  47  44  50  45  47  54  47  47  57 120 141 144 143 144 143 143 143 143 143 143 144 143 143 142 142 144 144 142 142 140 139
 140 141 144 142 143 143 144 145 143 144 145 144 146 142 140 127 116 164 192 195 199 200 199 195 156 170 190 191 186 180 172 165 165 161 158 152 142 140 136 130 128 128 130 134 132 136 140 140 134 130 120 101  85  71  53  38  32  35  41  44  51  49  45  43  48  41  46  52  47  47  68 135 144 143 143 144 144 144 144 143 144 144 143 142 144 142 144 143 143 141 141 140
 141 142 143 143 144 145 144 144 142 144 144 144 146 143 138 122 136 183 186 189 192 191 190 188 179 180 185 184 177 172 170 166 164 158 154 148 142 136 131 129 131 131 129 129 132 134 135 140 137 138 134 123 104  86  66  48  38  32  38  38  43  49  45  40  45  40  37  45  50  47  46  96 141 143 145 144 145 145 144 143 145 145 144 144 144 143 143 141 140 141 143 140
 142 144 143 144 143 144 143 144 146 145 144 144 145 143 136 115 163 183 185 184 183 184 185 185 186 185 183 179 174 170 169 173 166 159 155 148 140 135 131 129 129 129 130 131 133 131 132 135 136 141 141 140 128 102  80  61  46  34  33  36  36  41  46  43  40  45  37  39  49  47  42  57 126 141 144 144 144 144 144 144 145 143 144 144 144 144 144 143 141 141 142 140
 144 144 145 145 145 145 145 146 145 145 146 147 144 143 130 133 180 184 183 180 180 182 183 186 188 185 180 172 169 168 168 165 165 158 153 145 137 132 129 129 130 131 131 131 130 131 133 134 136 140 141 145 141 123  93  80  58  45  34  32  36  36  41  44  37  40  38  34  46  52  41  43  78 136 144 144 144 145 143 143 144 144 144 144 144 144 142 143 142 141 142 141
 143 144 145 145 144 145 146 145 146 145 146 145 142 138 128 169 181 182 180 180 179 180 182 182 182 178 172 162 162 165 163 159 160 154 148 139 132 127 125 125 126 129 127 130 131 130 130 132 134 136 141 143 146 139 114  91  75  54  39  32  33  35  36  40  39  32  39  35  35  48  46  38  44 111 141 144 146 146 143 144 145 144 144 145 145 143 142 142 142 142 142 142
 144 145 145 144 145 145 146 145 146 146 146 143 142 137 138 178 180 180 179 180 180 179 175 174 172 166 162 153 153 152 153 151 148 144 137 130 125 121 120 120 123 126 128 131 130 133 133 135 134 135 141 142 146 141 128 105  86  67  48  34  31  34  34  36  39  33  32  33  31  39  45  36  39  62 136 144 147 145 146 145 145 144 143 144 143 143 143 144 142 143 142 141
 147 144 144 145 146 147 145 146 148 147 145 144 142 132 164 179 181 180 182 181 178 175 168 165 162 156 150 143 145 144 144 139 134 128 124 121 118 115 116 119 122 125 127 129 132 135 137 137 137 138 142 143 145 146 137 119  95  77  57  41  33  32  32  34  36  36  30  33  30  31  39  36  37  39 111 143 145 146 146 145 146 144 146 144 144 144 143 143 144 143 143 142
 144 145 144 144 145 147 146 146 146 147 145 144 139 133 176 182 183 181 182 179 174 166 158 155 153 147 140 138 138 139 136 130 123 119 113 113 111 110 110 111 114 118 123 128 132 133 136 139 145 145 144 144 142 142 140 126 107  88  68  47  38  34  31  33  32  34  30  32  31  29  32  34  34  37  64 135 144 146 145 146 145 145 146 144 143 145 144 144 145 145 142 142
 146 147 147 146 145 145 146 146 146 145 147 145 141 153 179 182 184 184 180 172 167 159 151 147 145 142 137 134 134 133 128 122 115 112 110 109 108 107 108 110 110 113 117 122 125 126 127 134 143 148 148 146 143 142 142 132 117  98  79  55  40  36  31  32  33  35  34  29  31  28  29  31  32  33  32 111 143 146 144 145 146 144 144 145 144 145 144 145 145 143 142 141
 146 146 145 145 148 147 148 148 147 148 149 146 142 164 181 184 183 179 170 161 156 148 140 138 136 134 132 132 132 127 122 115 111 108 106 104 103 100  99  99  97  99 104 106 110 111 113 121 134 141 148 150 143 143 143 136 124 107  88  67  47  41  32  29  29  34  35  32  29  29  26  29  30  31  33  68 139 144 145 145 146 146 145 145 145 145 145 143 145 143 143 143
 145 146 149 147 146 149 150 147 147 150 150 146 142 174 186 184 181 173 164 153 145 139 133 132 131 129 130 126 124 118 116 111 109 105 102  98  92  86  82  81  82  84  86  91  93  99 101 102 115 126 134 140 142 139 143 141 132 113  94  77  57  46  36  29  28  29  33  32  30  30  26  26  29  30  32  35 119 143 145 146 146 145 146 145 145 146 144 144 145 143 143 143
 146 147 148 146 146 150 149 148 150 148 150 147 146 177 183 180 172 163 153 144 136 131 127 126 123 125 125 123 120 118 111 108 106 101  96  86  80  74  74  71  72  75  75  77  82  88  93  94 102 111 120 125 134 139 143 142 138 122 101  84  64  51  42  31  28  27  29  31  32  32  28  26  28  28  30  31  73 140 146 146 146 145 146 145 146 146 145 144 145 143 144 144
 146 148 147 148 149 150 151 150 151 148 148 148 153 178 175 163 151 136 121 115 112 114 113 115 116 121 121 120 116 111 109 107 104  97  88  84  77  73  73  72  69  70  73  75  79  85  88  92  98 103 108 115 124 137 142 144 143 131 110  89  71  58  50  34  26  27  27  31  31  31  31  26  25  28  30  31  43 135 146 144 146 145 145 146 146 145 146 143 144 143 143 144
 147 148 147 148 147 149 150 149 149 150 150 150 158 170 158 140 123 107  92  84  87  92  99 107 110 113 118 117 114 109 107 106 103  95  88  85  82  78  80  78  78  85  87  85  86  90  91  96 101 100 107 115 119 130 142 147 145 140 121  96  76  64  58  39  29  26  26  27  34  32  31  30  26  27  29  30  31  99 143 145 147 144 145 144 145 145 146 143 144 145 144 142
 148 148 149 149 149 149 149 147 150 151 149 149 157 151 142 123 101  90  83  82  81  89  93 100 107 111 114 114 112 108 107 106 102  95  91  90  89  86  86  85  84  89  88  90  93  93  93  96 101 103 107 114 120 130 137 144 149 144 130 104  82  68  65  48  33  28  26  26  29  33  31  31  28  27  28  29  31  65 141 145 146 147 146 145 145 146 146 144 143 144 144 144
 150 150 149 150 150 151 151 151 152 152 151 150 144 143 129 111  95  89  86  87  87  91  95  98 106 111 111 111 111 111 110 107 102  99  97  94  92  89  86  86  88  90  92  96  95  94  98  97  97  99 104 110 116 126 134 139 147 148 138 114  92  75  69  55  39  30  26  25  25  27  32  30  30  29  28  28  31  41 132 144 146 146 146 145 144 146 145 145 145 145 144 145
 152 152 152 152 154 155 154 154 154 155 157 152 140 135 127 115 109 104  98  93  91  96  99 101 105 109 111 111 111 111 111 107 104 101  99  95  93  89  86  85  88  91  94  92  92  93  95  96  98 101 101 103 107 114 125 134 142 149 145 129 101  82  74  66  47  34  27  25  24  25  29  30  30  29  29  30  31  31  97 142 145 146 146 148 146 146 146 145 145 146 145 145
 156 154 155 155 158 160 160 158 159 158 158 151 144 138 132 122 118 118 108  98  89  91  96  99 105 108 110 113 112 111 109 107 103 100  98  92  88  86  83  85  88  92  92  89  90  92  93  95  94  96  97  97  98 104 112 125 136 144 149 140 116  91  78  74  53  41  28  22  25  24  26  31  30  32  28  30  29  32  64 141 146 147 146 145 146 146 147 147 146 145 146 146
 160 160 157 157 160 161 162 161 159 161 160 151 147 140 133 130 130 129 118 103  93  88  91  96 103 107 114 118 119 111 108 105 103 100  95  88  84  82  81  84  88  90  89  88  86  87  90  94  95  96  97  95  94  99 107 117 131 143 148 150 131 102  85  81  62  51  31  21  21  24  24  26  29  30  32  30  29  31  32 131 145 147 147 146 146 146 147 146 146 146 146 146
 164 165 162 159 162 164 168 164 162 161 162 156 145 137 136 138 138 133 118 104  93  89  91  93  97 108 117 128 128 119 110 106 100  97  92  87  84  79  75  76  82  84  84  79  75  75  79  86  90  91  96  94  95  98 102 112 125 139 150 154 145 116  92  85  74  58  42  23  20  23  23  24  27  32  32  33  29  30  32 100 144 147 147 147 148 146 147 147 148 146 147 147
 165 167 166 163 161 164 165 166 163 163 163 155 143 133 138 144 146 140 125 105  92  89  87  89  93 105 123 144 146 133 116 106  98  95  90  85  80  71  65  59  59  59  55  53  56  53  52  52  50  51  58  64  69  78  88 106 125 140 151 158 154 134 103  89  84  63  53  30  21  20  23  23  24  28  32  32  33  30  32  67 141 147 147 148 148 147 148 147 147 146 146 147
 166 168 167 164 164 163 166 168 166 166 164 158 140 127 142 145 135 123 104  93  86  81  82  86  89 102 135 164 169 151 127 109  99  93  88  84  80  63  37  33  30  34  39  39  65  57  44  39  38  40  50  58  65  77  90 110 128 144 155 160 160 149 119  93  90  72  58  37  24  19  21  23  25  25  30  33  31  30  32  34 136 146 147 148 147 149 147 147 147 147 147 147
 166 168 167 166 165 165 166 166 167 165 166 163 137 127 139 126 112  92  84  78  72  73  78  86  89 108 158 191 196 169 140 115 102  95  87  84  80  49  32  31  27  30  28  32  49  59  71  79  92 105 115 120 123 126 123 128 137 149 158 163 163 159 137 105  89  78  60  43  26  20  18  21  22  25  26  31  30  30  32  32 106 146 149 147 148 150 149 148 148 148 149 148
 165 167 168 167 167 165 166 166 168 167 165 164 139 128 118  90  77  67  65  68  73  69  66  85  90 111 183 211 210 178 145 119 106  94  87  84  82  55  50  49  47  47  56  70  79  85  87  89  95 103 114 123 130 134 137 139 144 154 159 165 166 165 151 123  96  85  61  49  28  21  18  18  21  23  23  29  31  31  32  34  73 142 146 148 150 149 149 148 148 149 149 149
 166 167 168 169 167 165 166 167 168 167 167 165 145 103  72  53  48  36  41  51  79  74  62  74  97 140 204 226 212 179 146 124 110  98  90  86  85  74  73  70  70  73  79  82  84  84  86  88  93 102 113 127 137 142 146 150 152 157 162 166 169 165 159 139 105  88  71  49  29  24  20  16  18  22  22  26  31  33  34  33  43 141 148 149 148 150 151 152 150 148 150 151
 165 166 168 168 167 166 166 167 166 167 167 165 144  94  66  56  51  37  36  41  60  65  75  84 108 175 212 230 207 178 146 125 114 106  97  91  90  84  76  70  68  70  73  75  78  80  84  89  98 110 121 131 137 147 151 157 159 163 163 166 166 165 163 149 121  95  80  49  32  23  22  19  20  23  23  23  26  31  32  33  33 127 145 148 151 151 152 151 151 150 150 150
 165 166 167 167 166 167 166 166 165 166 166 168 164 154 142 121  92  73  73  74  74  82  83  92 138 194 221 227 201 168 145 129 116 111 106 100  99  97  96  87  81  78  76  79  85  88  97 108 118 125 132 138 142 148 154 156 161 163 165 166 165 164 164 155 137 102  84  56  37  26  25  27  28  29  24  23  25  30  33  33  36  90 145 147 151 151 151 151 152 151 150 149
 166 165 166 166 166 167 165 164 165 165 166 174 181 172 150 128 112  97  90  82  80  80  87 119 175 204 222 214 194 164 142 130 120 112 110 109 109 109 108 107 104  99  98  99 100 106 115 120 127 134 137 143 147 148 152 156 159 164 164 164 165 163 161 158 142 113  90  65  41  31  32  31  31  29  26  24  25  26  30  34  38  69 141 149 152 151 152 153 152 152 151 152
 167 165 167 165 165 167 168 166 164 164 166 186 188 178 145 114 101  92  84  81  83  93 119 163 188 205 218 215 189 160 141 131 123 115 113 108 113 117 119 120 123 118 120 123 126 127 128 129 131 134 140 145 147 151 153 153 156 160 164 164 161 161 161 156 147 122  94  73  48  34  38  35  36  32  27  24  24  25  28  33  36  54 134 147 151 152 153 153 153 153 153 153
 167 167 166 165 166 167 167 166 165 166 169 193 195 190 177 141 104  92  90  93 107 128 156 183 191 208 218 205 179 158 143 132 125 117 112 109 113 120 124 129 133 132 137 140 140 140 136 136 135 135 140 142 145 148 149 150 153 158 160 160 158 158 157 154 147 126  98  79  52  38  40  37  36  34  28  27  26  25  25  32  35  38 119 144 150 152 152 154 153 154 154 152
 166 167 168 167 167 166 167 167 166 166 172 196 199 198 196 187 174 146 130 137 144 157 171 186 192 209 219 199 173 158 148 138 126 116 110 110 113 123 129 135 142 145 148 151 150 144 142 141 139 138 138 139 138 141 146 148 150 154 155 157 156 156 155 153 146 130 103  82  54  40  37  44  43  36  28  28  27  26  27  28  34  42  94 141 149 152 152 155 154 155 154 153
 169 169 169 168 169 167 169 168 168 169 178 198 200 201 202 198 190 180 173 167 164 168 177 184 191 203 207 187 170 162 150 143 129 115 100 107 112 122 130 139 144 145 152 156 155 152 150 145 142 140 142 141 139 140 140 144 146 148 150 153 154 152 151 150 143 130 107  86  60  43  33  39  46  46  30  28  29  25  27  30  32  38  82 135 149 154 154 153 154 156 156 155
 172 171 170 170 170 170 171 170 170 172 182 195 199 198 196 196 195 188 182 177 172 169 178 183 189 202 203 180 167 164 157 141 128 119 102 104 108 114 131 143 148 149 154 150 152 153 150 145 142 140 140 141 142 140 140 143 144 145 145 149 151 151 150 147 141 126 108  88  65  46  37  38  46  50  37  29  28  22  25  26  31  38  64 128 144 153 155 154 155 157 156 155
 172 174 174 173 174 173 173 173 172 173 183 195 195 193 194 194 193 186 182 178 169 163 166 181 192 205 197 178 170 165 153 134 122 116 108 101 103 111 125 138 145 147 148 147 148 146 144 141 138 136 138 138 140 141 142 141 142 144 144 145 148 147 145 143 138 124 106  88  68  51  48  39  44  51  39  30  26  17  22  27  29  33  47 116 140 151 156 155 156 157 156 157
 175 175 174 174 175 176 174 174 174 174 183 192 191 188 191 189 189 187 182 170 162 153 145 174 192 197 187 172 162 158 149 134 122 120 107  95  91 101 117 132 142 146 146 146 144 141 140 137 132 133 133 133 135 137 140 140 140 142 142 144 145 147 144 140 135 124 107  89  69  55  55  41  39  46  43  32  23  16  20  25  27  29  37  98 129 150 155 156 157 157 159 160
 176 176 175 175 175 176 175 175 175 176 180 187 186 187 190 187 188 184 174 164 154 146 137 170 186 179 166 155 144 148 152 143 138 141 132 101  80  88 105 123 135 140 145 145 141 138 134 132 129 129 130 134 136 137 137 139 141 143 139 139 143 144 142 137 133 123 105  90  72  59  55  43  39  42  41  31  18  15  17  22  27  30  34  79 125 143 155 156 156 158 160 161
 178 180 179 176 176 176 178 177 176 175 181 182 182 188 188 188 185 180 170 157 144 135 128 176 163 149 135 131 130 134 141 143 148 159 159 130  81  76  93 112 125 132 136 135 135 133 128 127 127 125 125 130 134 135 134 134 137 139 139 140 142 142 140 139 134 124 101  90  74  62  49  43  36  42  41  28  15  14  16  20  24  28  32  59 121 138 153 157 160 160 160 160
 181 179 179 179 179 180 178 179 176 178 182 183 186 187 185 182 178 169 159 146 134 125 154 161 136 126 118 114 112 115 119 126 133 142 148 137  94  70  84 101 118 126 130 131 129 125 124 124 123 122 123 126 131 135 134 136 136 137 137 141 140 141 139 138 135 123 107  89  75  69  60  61  48  54  40  20  14  14  15  18  21  25  30  53 112 136 151 157 160 161 159 160
 182 182 181 180 181 180 181 179 179 179 180 183 184 184 181 174 162 159 147 134 124 121 165 138 114 111 108 103 100 101 104 114 121 125 128 128  98  63  80  95 111 117 121 123 122 119 119 120 120 120 119 122 123 122 126 131 133 133 135 137 139 140 140 136 132 124 108  89  78  85  93  84  57  47  32  16  13  13  15  17  19  23  28  45  94 131 150 156 160 161 160 161
 182 182 183 183 182 182 184 182 180 181 180 181 180 182 177 171 154 147 136 127 121 120 161 122 105 102 100  97  94  94  84  70  80 104 110 111  91  63  80  93 102 110 114 114 114 114 115 114 114 116 116 116 115  92 110 130 131 131 134 135 138 141 141 139 135 124 106  90  81  87  93  76  50  44  25  14  12  13  13  16  19  20  27  32  94 121 150 155 162 161 162 163
 184 183 185 183 184 184 182 182 182 181 181 178 176 176 172 162 149 135 127 121 116 113 131 108  80  91  93  93  95  86  69  60  48  64  94  90  74  71  86  91  97 104 110 112 112 114 113 111 112 113 114 114 110 110 117 125 128 129 130 135 138 142 142 141 134 120 102  89  86  97  96  80  53  43  18  13  12  14  13  15  18  21  27  35  76 118 149 156 162 163 165 166
 185 186 186 185 184 186 185 185 183 183 182 174 171 169 164 153 141 129 124 118 113 107 110 103  80  65  76  90  92  84  77  74  69  70  67  67  72  85  92  95  97 102 107 107 107 109 108 110 111 111 109 111 110 113 116 118 123 127 129 132 138 140 141 139 133 120 104  89  88 107 104  84  59  31  14  13  12  13  13  15  18  20  26  34  72 114 149 158 164 166 166 168
 188 186 185 185 187 186 185 184 184 184 183 174 168 165 156 142 131 126 120 115 111 106 104 115 100  80  84  90  93  86  82  80  75  75  75  82  90  90  94  98  99  99 102 104 106 107 108 109 110 108 108 109 109 113 113 115 120 124 128 131 133 141 142 141 134 122 105  89  86 103 100  96  67  24  13  12  13  14  13  14  18  19  24  34  67  98 143 158 164 166 166 167
 188 189 188 188 189 187 187 186 186 187 186 173 163 155 143 131 125 122 117 112 106 103 111 146 119  82  86  90  91  88  84  85  84  86  89  92  93  92  95  98  99 100  99 100 102 104 105 106 107 107 107 107 109 109 110 112 118 121 126 131 134 141 141 138 135 122 105  83  75  87  92  91  62  20  13  12  12  12  14  14  17  19  22  29  61  98 140 159 167 167 169 168
 190 190 190 190 189 189 189 188 186 187 186 176 155 146 133 127 120 116 113 108 104 103 128 165 139  93  93  92  88  86  90  92  94  98  97  93  93  92  97  98 100 102 101  98  98  98  99 104 106 106 106 107 107 107 110 111 114 118 123 129 134 139 139 136 134 123 101  75  54  69  76  71  28  17  13  12  13  13  14  14  16  18  22  28  53  95 140 159 168 168 170 170
 191 191 190 189 190 190 188 189 188 188 186 180 155 138 127 121 116 113 108 104 101 116 158 173 155 112  95  92  88  86  94  98 103 102  99  97  95  94  96  98  97  96  99  99  96  95  95 100 104 104 106 108 109 109 109 112 115 116 120 128 132 134 136 137 132 120  97  58  21  25  34  38  18  14  13  13  14  12  14  14  16  18  22  27  41  99 130 161 169 171 172 171
 191 191 192 191 190 190 189 189 188 188 188 186 158 135 124 120 114 110 108 104 106 142 171 175 162 130 106  94  85  88  96 101 104 103  99  99  98  96  98  97  95  93  94  96  94  93  89  92  98 104 106 108 109 111 111 111 115 118 122 128 129 130 133 134 130 118  96  37  21  10  24  22  14  13  12  12  12  12  12  13  16  17  22  26  36  98 131 162 171 174 175 173
 196 194 193 193 193 191 192 190 189 190 189 187 166 134 122 118 110 108 104 103 118 153 171 169 162 141 118 108  92  91  93  98  99 100  98  97  96  94  95  94  94  91  91  92  92  94  91  86  91 101 106 110 109 112 111 111 114 118 121 126 128 129 130 128 124 112  84  33  30  69  37  16  13  12  11  12  12  13  13  12  14  17  20  25  42  94 127 163 172 174 176 176
 197 197 196 196 196 194 192 192 190 189 188 188 178 137 124 116 110 105 102 110 129 155 162 162 158 137 114 104  95  82  80  76  80  82  84  86  90  92  91  90  92  90  87  85  88  90  94  92  94 101 104 108 109 110 110 113 112 115 120 124 124 123 125 122 120 108  68  24  16  48  50  17  14  12  11  11  12  13  13  12  14  17  19  25  46  92 120 164 174 177 176 176
 197 198 198 196 195 196 195 194 191 191 189 188 184 148 129 118 111 100 101 112 125 146 151 147 118  95  85  88  84  71  69  70  71  71  72  72  71  70  71  74  75  72  68  64  73  82  89  91 100 104 104 106 108 109 110 110 110 111 114 119 120 122 121 120 114 102  41  18  13  24  28  20  16  13  12  12  11  13  14  13  14  17  20  24  45  89 120 163 174 176 177 178
 199 198 198 197 196 198 196 196 193 192 191 190 188 158 137 124 111 101 101 107 113 123 124 100  86  78  75  78  78  69  68  70  70  68  64  58  58  57  60  63  58  50  47  55  55  69  82  88 100 105 106 108 108 109 108 107 108 110 110 114 116 116 114 115 110  90  26  14  12  15  16  21  22  16  13  11  11  12  13  12  14  17  18  23  41  81 119 164 174 176 178 177
 200 198 198 199 198 198 197 195 194 192 190 190 189 168 141 127 114 104 101 102 102  97  85  75  71  66  66  67  73  69  65  61  59  62  64  72  75  74  72  66  66  71  77  76  75  80  86  87 100 104 108 108 107 108 108 106 107 108 108 110 112 112 111 110 104  65  19  12  12  16  17  21  26  17  13  12  11  13  13  13  14  16  21  23  41  84 120 163 173 175 176 176
 198 197 197 198 198 197 197 197 195 194 191 191 190 179 142 128 119 108 100  94  86  71  58  61  73  74  66  65  67  64  66  73  76  77  80  78  76  73  70  72  82  88  90  89  87  89  90  91 100 106 108 106 105 107 105 104 103 105 105 105 106 107 107 106  96  36  15  12  12  16  20  18  28  24  16  13  12  12  14  12  14  16  18  24  42  85 136 159 174 176 176 174
 197 197 200 198 198 196 196 196 195 196 191 191 189 186 150 130 121 111 102  92  81  73  78  86 100 108 107  95  88  84  82  79  78  77  78  75  71  70  80  87  91  93  94  94  93  94  95  95  99 104 104 103 102 103 103 102 101 102 100 101 103 106 104 101  69  16  13  11  12  16  19  16  29  26  20  13  13  14  14  13  13  15  18  25  41  80 152 162 173 176 174 173
 198 197 199 197 196 196 196 195 196 193 193 192 190 187 166 132 120 114 107  94  89  87  96 122 123 119 113 103  92  85  80  78  76  78  77  74  76  80  89  92  91  94  96  98  95  95  97  99  99 101 103 103 102 101 101 100  98  97 100  99 103 102 101  92  32  16  13  12  11  14  15  15  20  25  23  14  15  14  14  13  13  16  19  25  40  90 163 170 171 174 175 176
 199 198 197 198 198 195 197 196 195 194 192 191 191 190 180 137 122 115 107  99  95  98 111 119 124 125 115 108 101  97  86  79  78  79  81  82  86  87  90  92  94  95  97  99  96  97  98 100 102 100 102  98  99  96 100 100  96  95  99  99  99  97  91  61  18  13  12  12  11  13  14  12  15  21  19  15  20  15  14  16  17  16  19  24  39 102 167 172 171 174 176 176
 199 197 198 197 197 197 197 197 197 195 194 193 191 191 187 155 125 114 108 102 100 109 121 116 108 104  98  95  90  87  84  81  81  81  84  86  88  88  92  94  94  96  98  97  97 101 102 104 101 100  98  96  98  98  98  97  96  95  99  98  95  91  79  34  16  11  12  11  10  12  13  13  14  16  16  16  19  15  14  15  15  16  22  26  42 112 166 174 175 176 176 176
 199 198 197 198 198 197 197 197 195 194 195 193 191 190 189 178 127 114 107 105 104 112 120 119 106  95  90  88  84  81  81  81  83  85  85  85  88  90  94  94  96  95  96  95  98 102 104 102 102 100  97  95  97 100 100  96  97  97  98  94  91  82  57  27  14  11  12  10  11  11  14  12  13  16  15  19  17  14  15  16  15  15  21  27  44 113 165 174 176 177 178 177
 200 198 198 198 198 198 197 198 196 196 196 193 190 189 189 180 107 113 107 103 106 111 118 114 109  99  92  89  83  84  84  85  85  87  87  89  91  92  93  95  97  94  94  94 100 104 104 102 101 100  95  96  97 100  99  98  98  97  97  93  85  67  40  24  13  10  13  11  10  11  13  12  14  14  14  17  16  15  16  15  13  17  21  30  49 123 165 175 176 176 178 177
 200 201 200 198 197 198 198 198 195 196 196 195 191 190 188 154 112 131 109 106 110 115 116 109 107 104  97  90  88  86  84  84  85  87  87  88  92  93  96  98 100  99  95  98 101 103 103 102 101  99  98  98  96  98  96  96  96  96  94  85  70  48  35  22  14  11  11  10  11  11  13  11  14  15  14  16  15  13  13  15  14  16  23  29  52 129 168 174 176 178 178 178
 202 199 202 200 199 198 199 199 197 198 195 194 189 190 189 133 142 155 112 107 108 121 119 111 111 108 102  92  92  88  84  85  88  88  90  91  94  93  98 100 100  99  95  98 100 103 103 103 103 100  99  99  99  98  96  95  95  92  86  73  49  43  31  21  13  11  11  11  10  11  14  12  16  19  17  15  15  14  13  16  16  17  22  30  61 134 170 176 178 178 180 178
 202 201 200 200 199 198 199 199 197 197 194 194 192 190 192 112 154 137  94 105 105 120 124 116 118 120 116 104  92  88  90  92  92  91  94  95  96  96 100 100 100 100  99  98 102 101 102 103 102  99 101  99  99  98  99  94  91  84  73  51  44  39  28  20  13  10  12  11   9  11  15  14  17  22  20  17  15  13  15  16  16  19  25  31  72 143 172 177 180 180 178 177
 201 201 200 199 198 200 198 199 197 197 195 195 192 192 194  88 155  87  49  80 104 116 125 126 128 132 130 121 108  98  94  93  91  94  98  97  99 100 104 101 103 103  99  99 102 105 102 102 102  99 101 100  98  95  94  89  84  72  54  43  42  36  26  19  13  11  13  11  10  14  19  18  19  25  23  19  14  13  14  14  15  19  26  27  89 157 171 176 178 178 179 179
 202 200 199 200 199 200 199 199 198 198 195 195 193 191 180  81  94  56  40  39  92 105 121 128 132 133 136 135 126 112 101  99  96  97  98 100 101 102 104 104 104 104 101 102 103 104 104 101 103  99  98  97  94  92  88  83  73  55  41  39  40  33  25  18  13  11  13  11  11  17  21  23  22  28  24  18  15  13  16  16  17  21  29  40 115 164 169 178 179 179 178 178
 201 203 201 201 200 199 199 197 196 197 196 192 192 184 134  81  59  38  34  35  45  97 113 124 130 133 137 140 131 117 106 100  97  98 101 101 102 103 104 105 105 104 105 104 104 104 102 100 101  97  96  94  89  85  78  69  54  39  39  41  38  30  25  19  13  13  13  11  10  19  23  25  25  29  23  15  13  14  16  17  19  25  34  46 137 168 172 176 178 179 179 178
 203 202 201 202 200 200 199 198 197 196 194 190 184 167  91  60  41  33  32  32  30  58 104 118 129 130 134 135 124 109 103  99  98  96  98  99 102  99 103 104 105 106 105 104 103 104 101 100  98  95  92  88  83  74  65  53  39  37  40  40  36  29  24  18  12  15  14  11  10  22  25  25  26  31  24  15  15  15  16  19  21  25  33  57 130 169 174 178 178 179 180 180
 204 202 202 201 200 200 198 199 196 192 186 178 157 119  64  48  37  29  32  28  28  27  65 112 121 125 128 124 112 103  99  96  96  94  96  98  99  99 101 104 104 104 104 103 103 102  98  97  94  89  85  79  69  60  50  41  37  38  40  38  34  29  23  18  12  16  13  10  12  25  27  25  28  31  24  20  19  17  19  22  22  29  36  79 129 169 176 178 177 180 180 180
 204 202 202 199 199 198 197 195 192 182 171 141 130  78  52  44  30  30  32  27  25  24  22  76 108 114 114 109 100  97  93  93  93  93  93  95  96  96  98  99 100 100 100  99  98  96  94  90  85  79  74  65  52  46  39  38  39  40  39  37  33  28  22  16  14  15  11  10  17  26  29  25  30  28  26  24  20  20  25  25  26  43  38 105 127 172 177 177 178 182 179 177
 201 201 200 198 197 195 192 188 180 162 140 129  87  64  46  35  29  33  26  24  24  18  18  25  85 100 100 100  96  92  92  91  92  91  92  93  94  94  98  99  98  97  93  95  94  88  87  83  75  69  58  50  44  40  38  37  39  40  38  35  33  27  19  15  14  13  11  10  23  29  30  25  29  29  29  27  26  24  29  25  29  53  48 103 128 170 176 178 178 179 180 179
 200 199 199 195 193 192 187 175 157 149 130  97  90  61  40  35  31  29  24  22  21  15  15  16  35  83  90  92  90  88  89  89  86  87  89  88  92  91  92  94  92  90  89  87  83  79  74  68  60  52  48  45  43  40  40  40  40  40  37  34  31  25  17  13  13  11  12  11  26  32  28  25  29  32  28  29  30  28  26  24  44  56  73  99 129 164 177 179 179 178 178 178
 198 197 196 192 189 179 175 176 170 146 119 106  80  52  48  39  33  29  24  22  18  16  14  15  24  44  70  85  85  83  84  85  83  83  84  84  86  86  88  86  84  81  79  75  71  66  60  53  50  48  48  46  44  43  42  42  41  37  34  31  27  21  13  12  12  11  12  14  29  33  26  25  33  34  30  42  41  31  30  27  52  61 111 129 122 150 175 177 177 177 179 179
 199 195 192 188 184 181 181 169 143 132 113  97  81  57  44  44  37  28  21  20  18  15  14  12  18  29  24  45  67  74  76  77  77  74  75  76  76  75  76  73  70  66  62  58  57  52  52  51  51  50  48  46  43  42  43  42  37  35  32  27  24  18  11  13  10  10  11  19  27  30  26  27  32  32  34  50  43  32  35  31  43  62 106 123  89 117 158 175 175 177 177 177
 199 195 196 193 189 184 173 160 149 136  92  86  85  53  59  48  35  22  21  18  16  14  12  11  17  24  23  20  19  35  46  56  62  62  64  63  62  60  58  57  55  54  52  51  53  54  53  52  52  51  48  46  43  42  40  38  33  31  28  26  18  13  11  12   9   8  12  24  30  26  25  22  31  27  33  40  38  32  34  32  30  25  23  20  28  26  31  64 108 135 146 142
 196 196 191 189 187 178 164 148 132 106 114 108  87  58  64  40  28  24  21  18  15  12  13  12  16  22  20  17  16  16  18  17  17  21  24  29  32  38  44  47  48  51  53  53  54  53  54  52  50  49  47  43  39  38  35  31  30  27  24  19  12  11  11  10   8  10  16  30  30  27  25  22  27  24  24  30  30  33  33  29  23  21  16  16  16  22  24  24  24  21  28  29
 200 197 190 185 176 162 149 133 127 137 126 128  99  52  51  37  26  22  18  17  15  13  12  12  17  18  18  16  16  14  14  14  11  12  12  14  20  25  30  37  42  47  49  50  53  53  51  49  46  42  42  39  35  35  31  28  26  24  18  13  11   9  10   9   9  11  22  33  32  29  25  24  24  22  21  21  24  32  31  29  20  17  15  13  14  16  20  17  17  18  21  22
 196 191 184 165 155 160 147 148 158 150 145 131  85  54  53  35  26  20  17  16  15  12  13  13  16  17  17  16  15  14  14  12  13  12  11  12  15  16  20  25  30  34  38  41  44  43  42  40  38  35  34  33  29  30  27  25  23  17  13  10   9   9   9   8   9  17  30  33  30  26  20  19  23  25  18  17  22  32  28  30  20  16  15  11  13  14  16  16  13  16  15  16
 182 171 171 173 159 155 157 161 160 165 145 102  61  54  37  27  21  17  16  17  14  12  12  15  17  16  20  17  15  14  13  12  12  11  12  12  11  12  15  17  18  22  25  29  30  29  30  30  30  28  28  27  25  25  21  19  15  13  10  10  10  10   8   9  12  26  32  27  25  20  13  16  19  24  20  15  20  28  28  29  21  16  16  13  13  14  14  16  13  15  15  15
 165 176 171 160 160 173 175 167 169 152 105  61  40  31  27  24  20  16  14  16  14  12  12  14  16  14  18  15  15  13  14  12  11  10  10  12  12  11  12  13  14  15  17  21  24  23  23  23  22  21  20  19  17  16  15  12  10   9   8   9   9   9   9  12  20  24  27  26  23  16  12  13  18  21  19  14  19  24  28  28  22  19  16  14  13  13  14  15  14  13  14  14
 185 179 178 184 184 178 181 175 145  70  47  39  32  28  25  22  19  16  14  15  14  12  12  14  16  14  17  15  14  15  13  11  12  11  12  11  10  11  11  12  11  12  13  13  14  15  16  15  15  13  14  12  11  10   9   9   8   9   8  10  10   9  12  19  23  24  24  22  19  13  11  11  13  18  22  14  18  20  21  23  21  18  17  15  12  12  15  14  13  12  13  12
 192 193 186 188 184 178 146  95  45  42  35  29  30  27  24  21  18  16  16  20  15  12  13  16  15  14  16  15  15  14  14  12  12  10  10  10  10  11  10  11  11  11  11  11  11  12  12  10  10  10  10   9   9   9  10   9   9   9  10  12  12  16  22  24  23  21  21  18  17  12  10  11  12  14  22  19  16  19  18  21  24  17  16  13  11  11  12  15  14  14  14  13
 190 183 128  84  62  49  46  43  37  33  31  31  29  24  20  17  17  17  18  15  14  14  12  16  14  13  18  14  13  13  13  12  12  10  10  11  10  11  11  11  11  10  10  10  11   9  12  10  10  10   9  10   9   9   9  10   9  12  15  16  19  20  19  19  18  18  15  17  17  12  10  10  11  13  18  20  15  19  17  17  23  21  16  12  11  10  11  12  12  11  13  13
 151  65  43  38  40  40  36  33  29  29  31  28  23  22  19  18  19  18  17  15  14  13  12  16  13  12  14  13  11  13  12  12  12  11  11  11  11  10  10  12  10  10  10  10  11  10  11  10  10  10  10  10   9  10   9  10  10  12  14  14  15  15  14  16  18  14  14  17  16  12  10  10  11  12  15  20  17  16  18  16  19  19  18  12  10  11  11  11  12  11  11  12
  48  44  39  38  34  33  29  30  30  29  30  25  22  18  21  21  19  17  16  14  12  13  13  16  13  13  15  12  10  12  12  12  12  10  11  10  11  10  10  12  11  11  10  10  10   9  10  12  10  10  10   9   9  10  11  11  12  13  13  12  12  12  14  16  13  13  15  18  14  11  11  10  11  14  14  17  19  14  17  14  17  18  19  15  10  12  11  10  12  11  11  11
