P2
# Generated by OpenCV 3.4.0
92 112
255
 128 129 130 130 132 132 133 132 133 134 132 133 134 135 135 135 134 136 135 134 135 136 136 135 136 137 136 137 135 137 137 136 138 138 137 136 138 138 137 138 137 136 137 137 137 136 137 138 139 138 137 138 138 137 138 138 138 138 137 136 139 138 137 138 137 138 138 137 138 138 137 138 137 136 137 136 136 137 134 136 136 135 135 135 134 134 135 134 134 132 132 134
 130 132 131 131 130 133 134 131 133 135 133 135 134 132 134 133 134 135 135 135 136 136 138 136 136 137 138 138 137 138 138 137 138 137 138 136 139 140 140 139 137 137 138 140 139 139 138 140 139 139 138 138 137 138 139 138 140 138 139 138 138 140 138 138 139 138 138 138 137 137 139 138 137 137 137 137 136 136 137 136 137 137 136 137 137 135 136 136 135 135 135 134
 129 131 131 130 131 134 133 132 132 133 133 135 134 134 136 135 136 133 135 137 136 136 135 137 137 139 137 138 137 137 138 136 137 138 138 139 138 138 139 139 136 137 138 139 139 141 140 139 139 141 139 141 138 139 139 139 141 139 139 139 141 140 138 139 139 139 139 139 137 138 139 137 138 138 137 136 138 138 137 137 137 137 137 136 137 135 136 135 136 136 136 135
 131 131 131 133 132 132 134 135 134 135 135 134 134 135 134 136 135 137 138 137 137 136 137 136 136 137 137 138 138 137 138 136 138 139 140 138 139 137 140 140 139 138 139 140 138 139 140 139 140 140 140 140 139 137 139 140 140 140 138 138 142 140 136 138 140 140 139 139 138 139 138 138 139 140 138 139 140 139 138 137 138 137 139 138 138 136 137 134 134 135 134 132
 131 132 134 133 132 131 133 134 135 133 136 133 135 136 135 136 134 136 137 138 137 137 136 136 138 138 137 137 137 140 138 140 141 140 141 137 139 139 140 140 140 140 140 138 140 142 141 141 142 141 141 142 141 141 139 139 138 141 142 141 141 140 140 141 139 139 139 138 138 140 139 140 139 139 138 137 139 139 138 138 138 138 139 139 136 138 137 136 137 138 135 136
 130 131 133 132 133 134 133 133 134 137 136 134 136 136 136 136 136 136 135 138 136 140 139 139 138 137 138 138 139 139 140 141 141 140 141 141 141 140 139 141 141 142 141 139 141 142 140 141 141 140 139 140 141 141 140 139 140 142 139 141 143 139 139 141 139 138 138 140 139 140 139 139 138 139 140 140 138 140 138 139 138 138 139 138 139 137 137 138 136 137 136 136
 133 133 133 134 134 133 134 134 133 134 133 136 137 136 137 135 136 137 136 139 138 139 138 140 138 136 136 139 139 139 138 139 140 138 140 142 142 140 141 142 142 142 142 142 143 143 141 141 141 140 140 141 140 140 140 141 140 141 142 142 142 142 141 141 140 141 140 139 139 141 141 140 138 138 140 138 139 140 139 138 138 138 138 139 138 137 138 139 137 138 137 136
 131 132 132 134 135 134 136 134 133 135 135 136 134 135 136 138 137 137 138 138 138 139 139 139 141 138 138 140 140 140 139 140 137 138 138 137 141 141 140 141 140 140 142 142 143 141 141 142 141 140 141 141 142 141 140 141 140 142 141 142 142 143 140 141 142 140 139 140 141 141 140 140 140 140 139 138 138 139 140 138 140 140 139 139 138 138 138 138 137 138 137 138
 130 134 133 133 134 136 136 134 135 136 135 135 135 136 135 137 137 136 138 139 139 140 138 140 139 136 138 139 141 141 139 139 139 141 141 140 140 140 138 139 141 140 142 142 142 143 142 143 142 142 142 141 142 141 140 141 141 142 142 142 141 142 140 142 141 140 140 141 140 140 141 140 140 140 140 141 141 140 139 139 140 140 139 137 139 140 141 137 139 138 138 137
 131 132 133 134 134 135 136 135 134 137 135 136 136 137 136 138 138 138 138 136 138 139 139 139 138 141 138 139 141 139 136 139 140 138 138 138 137 135 137 138 139 141 142 143 142 141 144 142 141 139 141 142 141 142 142 142 142 142 142 140 141 140 143 140 140 139 141 142 142 142 142 140 139 141 141 140 140 140 140 140 140 138 138 139 139 141 140 140 139 139 138 138
  96 109 128 132 133 132 133 135 135 134 136 135 138 136 138 138 136 137 139 140 139 139 139 140 138 139 138 137 136 129 128 126 122 119 120 125 123 130 134 132 133 134 136 140 142 142 143 143 142 142 141 142 143 144 142 141 141 142 142 142 142 142 142 141 141 141 141 142 141 141 142 140 141 141 141 141 142 141 140 139 140 140 140 140 139 140 139 139 139 138 139 137
  98  76  66  63  62  69  80  94 108 120 131 135 134 136 137 137 136 137 138 139 140 140 138 137 136 132 130 121 110  93  76  64  57  56  57  58  58  62  60  71  84 103 120 132 136 138 140 143 141 142 139 142 142 142 142 142 141 143 144 142 141 142 142 143 142 141 141 141 142 141 141 141 142 140 142 142 143 142 140 140 141 138 140 138 138 139 140 139 141 138 138 136
 132 130 132 132 133 126 120 103  92  80  65  69  77  88 105 121 133 136 138 138 139 137 136 131 122 108 104  93  81  69  65  65  58  65  75 106 117 108  96  82  68  64  71  79  94 122 133 138 141 141 140 141 142 142 142 142 141 143 143 142 142 142 142 141 142 141 141 141 142 142 143 140 142 141 141 143 142 140 140 140 139 140 140 140 140 141 140 138 139 139 140 138
 133 133 135 134 135 134 135 136 134 134 135 134 125 110  95  80  68  79  98 122 134 134 123  90  77  68  69  61  59  57  56  51  47  46  50  58  72  81  69  62  71  85  91  90  64  60  93 118 132 137 139 142 143 143 143 143 143 143 143 142 141 142 143 144 142 143 142 141 142 141 142 141 141 141 141 142 141 142 142 142 140 142 141 140 140 140 141 138 138 140 140 139
 134 135 135 135 136 135 135 137 134 135 137 137 137 136 136 135 135 131 106  84  93  84  69  67  58  50  40  37  40  38  39  38  34  33  36  43  47  53  61  63  56  57  69  92 104  93  79  66  90 115 129 136 141 141 142 142 142 141 142 143 143 143 143 143 142 140 141 142 142 143 141 142 140 140 142 141 140 141 142 138 139 139 140 139 140 139 138 139 140 140 138 139
 136 136 136 133 134 135 135 137 137 133 136 136 136 136 134 135 137 136 132 123  92  70  58  48  49  45  36  37  38  36  34  29  30  31  32  31  33  39  43  50  62  81  84  81  86  84  75  61  50  54  81 112 128 137 139 139 140 139 140 138 142 141 141 142 141 142 141 140 141 142 140 140 142 142 141 140 138 140 140 140 141 140 139 139 140 140 138 139 138 138 137 138
 133 135 135 134 135 137 135 135 136 136 135 136 136 133 133 136 133 124 122  95  69  60  48  47  46  43  37  39  37  31  28  28  28  29  26  25  26  27  33  38  46  60  72  71  62  65  71  70  55  40  42  50  67 107 131 136 139 139 141 140 139 140 142 141 141 141 139 140 139 141 139 139 140 140 139 139 138 138 138 137 138 140 138 137 138 138 136 135 136 135 134 134
 133 133 134 134 135 134 134 135 134 134 135 135 135 132 132 133 126 122 108  73  62  49  45  42  49  47  36  34  33  30  30  33  31  25  24  25  23  25  27  31  37  46  51  51  52  42  42  42  54  44  36  35  36  44  59  89 125 134 136 138 138 137 136 137 137 136 133 134 134 134 133 131 128 126 124 125 120 118 115 113 109 108 104 102 100  96  94  93  91  89  90  84
 133 135 134 131 128 133 134 134 134 134 135 133 133 133 129 125 123 113  75  67  59  46  46  41  47  49  35  32  32  33  36  35  33  27  26  27  26  24  24  24  31  38  40  44  45  44  38  32  33  37  35  30  32  35  36  41  48  78  94  93  96  97  92  93  92  92  87  86  86  89  87  87  91  91  94  96  97  97 101 102 104 104 108 108 110 110 112 113 113 115 115 117
 129 129 128 124 117 125 126 126 126 125 124 121 122 119 111 109 108  87  56  60  51  41  46  43  39  38  38  38  37  37  38  36  34  32  30  31  30  26  24  23  26  32  35  39  43  43  39  38  32  31  31  33  30  31  32  32  36  40  46  86 110 115 120 120 122 123 124 124 125 125 126 128 126 126 127 127 131 130 130 129 132 131 132 132 134 133 135 135 135 135 135 135
  84  85  88  89  87  93  84  90  90  92  93  92  95  94  95  93  89  68  63  60  49  37  40  42  38  37  35  33  34  48  45  45  43  41  42  43  43  36  32  26  25  25  33  32  39  42  38  39  38  32  32  32  34  31  31  31  32  35  37  38  77 131 136 138 138 140 140 140 140 139 139 140 140 141 139 141 139 141 140 139 142 141 138 140 138 138 138 137 137 138 138 138
 119 122 124 123 125 125 126 127 128 128 129 129 127 126 127 115 103  78  68  60  49  43  36  38  43  42  37  43  66  82  84  82  78  75  70  62  52  46  42  36  30  27  27  33  30  38  42  41  38  37  34  31  32  32  32  31  32  35  35  36  35  59 123 138 140 142 143 142 141 142 140 142 141 142 140 141 142 140 141 141 141 141 140 139 139 139 139 139 138 139 140 137
 137 135 136 138 137 136 138 138 139 139 138 139 134 130 133 115  89  89  73  57  46  36  35  38  41  58  95 115 122 126 129 134 126 118 113 106  94  82  69  56  39  33  28  29  32  32  39  42  40  38  36  34  33  33  33  33  32  34  33  36  39  38  47 114 138 143 143 142 142 142 142 141 141 142 143 140 142 141 141 142 141 140 141 140 140 139 139 140 139 138 138 140
 138 136 137 137 137 138 139 139 140 141 140 140 135 134 133 112  88  86  72  54  44  37  37  43 102 149 167 161 158 155 164 165 162 148 137 133 127 119 109  91  70  48  35  28  29  29  34  38  45  39  38  34  33  34  33  33  34  33  35  33  36  38  40  44 103 139 141 139 140 143 142 143 142 142 141 140 142 141 141 140 140 140 143 140 141 140 140 139 139 139 139 138
 137 136 138 140 140 139 140 141 142 141 140 139 134 136 136 117 105  95  87  69  60  49  88 175 210 222 223 219 204 200 202 198 188 176 158 148 143 138 131 119 108  84  56  41  38  33  31  38  40  43  38  41  34  32  34  32  34  34  36  38  34  37  41  44  46 100 138 140 144 144 143 143 140 142 141 142 142 142 142 141 140 142 141 141 142 139 140 140 139 140 137 138
 139 138 139 139 140 141 141 142 142 141 139 142 139 136 130 110 111 103  86  73  76 148 216 227 234 238 237 231 226 217 215 203 196 184 172 160 151 139 134 126 118 102  84  66  50  38  32  33  38  42  43  39  42  34  33  33  33  34  34  38  38  37  41  45  48  48 106 139 143 144 144 144 143 141 142 142 141 141 143 142 143 142 141 140 142 141 140 140 140 139 140 139
 140 139 142 140 141 141 142 142 142 142 142 144 142 134 123 100 100  98  81 100 193 220 235 242 243 242 237 232 231 225 216 200 190 174 167 158 151 145 140 130 123 110  95  85  69  52  37  32  38  42  44  44  42  40  30  36  30  38  35  34  42  41  37  42  48  52  56 118 141 143 144 143 144 143 142 142 143 142 141 141 142 141 141 141 142 142 142 140 140 140 140 140
 142 140 141 142 142 142 143 143 142 143 143 143 140 137 133 114 107 111 140 198 213 225 234 238 236 235 234 230 225 220 208 188 177 162 157 150 146 142 137 134 124 116 104  91  80  73  52  37  34  40  39  45  43  44  42  39  36  32  40  37  42  45  42  39  47  52  54  62 127 142 142 142 143 144 143 142 143 143 143 142 141 143 143 142 142 141 142 141 141 139 138 139
 141 140 140 142 142 142 142 143 142 144 143 142 141 141 139 122 107 144 200 210 217 224 228 229 229 228 223 218 214 204 190 175 164 152 146 141 140 137 136 134 130 122 112 102  90  83  73  50  35  35  41  41  45  43  47  41  40  36  41  43  42  46  45  44  39  49  53  49  70 133 142 142 144 144 144 144 145 142 142 142 142 141 143 142 142 143 142 142 142 141 140 140
 140 141 141 143 143 143 144 143 142 144 143 142 143 142 142 119 144 200 206 208 214 219 221 220 222 216 203 205 197 188 175 161 151 141 139 132 132 133 133 134 128 124 115 110 101  90  80  63  45  35  39  45  43  45  48  47  41  44  38  47  44  44  45  48  46  46  48  50  52  88 139 143 143 143 144 144 143 143 143 143 144 142 143 144 141 142 142 141 142 140 140 140
 141 142 144 143 142 143 143 143 143 144 145 144 142 144 141 135 193 203 204 204 209 212 212 210 207 202 200 193 186 180 170 160 146 140 137 136 137 135 136 136 134 127 126 117 109 100  92  76  58  44  37  40  43  43  47  51  46  44  44  43  50  46  44  46  49  50  48  47  51  51 110 141 144 144 144 144 144 143 143 143 144 144 143 143 143 140 143 141 141 140 141 140
 144 143 143 142 144 144 145 144 144 144 144 144 142 144 140 175 194 196 194 166 191 201 204 202 195 191 190 186 181 172 164 155 147 142 140 138 134 135 133 135 133 133 132 127 121 112  97  88  72  53  43  36  41  41  44  49  50  46  45  41  48  46  39  41  52  51  47  45  47  50  62 129 143 144 143 145 145 144 144 142 144 142 144 143 143 141 142 142 141 140 141 140
 143 143 142 143 145 144 145 145 145 145 146 144 144 144 156 186 193 192 190 176 191 194 194 190 191 191 186 182 178 169 159 153 148 145 140 142 138 134 132 132 133 133 133 131 127 120 109  95  84  66  52  41  35  42  40  45  48  51  43  40  40  48  37  41  49  55  52  46  43  44  54  88 140 144 144 144 144 144 144 144 145 142 142 143 143 145 143 143 143 140 141 140
 143 143 143 145 144 145 146 146 145 145 145 144 145 145 173 186 190 188 188 188 193 192 190 186 190 191 186 181 176 165 157 151 146 142 140 140 138 136 133 131 133 132 132 130 130 127 120 104  92  81  64  51  38  37  41  40  46  48  50  42  32  45  42  37  41  50  52  47  45  39  48  58 118 142 143 145 143 144 144 143 144 143 143 142 142 143 144 142 141 142 141 142
 144 144 144 144 145 144 146 145 145 146 146 145 145 152 180 184 186 187 189 191 191 188 183 181 182 182 183 178 169 161 152 146 141 142 140 139 137 135 134 132 132 132 131 132 131 131 128 113 100  89  77  59  45  37  38  42  39  48  49  50  35  37  45  35  34  44  50  50  40  42  37  45  74 134 143 144 145 144 144 143 143 143 144 142 143 143 144 142 143 142 142 141
 144 145 145 144 145 144 146 147 145 146 147 145 146 164 182 184 183 187 188 187 186 179 175 176 176 175 172 169 160 148 143 139 138 140 140 138 137 137 139 137 135 133 131 134 131 133 132 123 110  95  85  70  55  41  37  38  39  38  44  50  42  33  44  35  30  34  42  47  41  43  37  41  44 107 140 144 145 145 144 144 143 144 145 145 143 143 142 143 144 143 142 142
 143 144 144 145 145 146 146 147 146 146 145 145 148 173 181 182 183 182 182 180 178 170 168 167 166 163 160 151 142 137 132 132 135 139 140 139 138 140 142 142 140 139 135 135 134 136 136 129 115 101  91  78  63  48  38  37  35  39  39  44  46  33  37  37  26  29  34  41  43  34  37  33  39  61 138 144 146 146 145 144 144 145 144 143 144 144 143 145 143 142 143 142
 146 145 145 144 146 146 146 146 146 149 146 144 154 179 182 185 184 178 177 174 166 163 160 160 157 152 144 135 132 129 126 126 128 132 133 136 141 141 140 142 141 142 141 140 139 138 137 132 120 106  96  86  72  56  43  40  35  32  36  40  42  41  30  36  30  26  28  37  37  34  34  31  34  41 109 144 146 146 146 146 144 145 144 144 144 143 144 142 143 143 142 143
 148 146 144 145 145 148 147 146 148 149 146 144 163 182 184 184 179 173 169 164 160 157 154 153 149 140 131 126 122 122 121 123 128 128 130 133 132 136 132 133 138 142 143 142 141 139 137 136 125 112 101  91  80  65  53  46  36  33  31  38  38  40  33  32  32  26  25  30  31  32  32  32  29  39  68 138 146 145 146 145 145 143 144 143 144 144 144 143 144 144 143 144
 146 145 146 146 145 145 146 147 149 147 148 147 173 185 184 180 172 164 162 156 153 152 149 146 138 128 125 121 116 113 116 115 113 108 114 115 118 121 117 117 121 127 130 134 139 138 135 135 130 120 104  95  84  73  59  50  41  33  32  30  36  37  35  31  31  28  23  26  28  29  29  31  28  33  38 120 144 144 145 145 145 146 144 143 144 145 143 144 144 144 144 143
 146 146 148 146 148 147 148 146 148 148 147 152 179 182 178 171 164 157 155 150 147 146 146 138 132 123 120 114 108 104  97  91  90  86  92  96  99 103 109 107 105 110 114 120 128 134 135 140 135 127 114 100  89  78  68  56  50  37  31  30  31  38  34  34  33  29  26  24  27  29  30  30  28  27  36  72 141 145 146 145 146 145 145 144 144 145 144 145 144 143 144 144
 146 146 148 147 148 149 149 147 150 148 148 162 182 179 170 162 153 148 147 145 144 138 136 129 124 118 113 107  95  88  82  81  76  76  80  80  86  91  98  99  95  97 101 106 112 122 132 139 137 132 122 107  93  83  73  64  58  44  35  31  30  32  38  34  33  31  26  23  25  27  28  28  28  25  32  46 129 144 145 145 146 145 146 144 145 145 144 144 144 143 144 144
 145 146 148 148 148 150 148 149 149 148 150 170 180 172 164 154 146 141 140 139 139 135 132 125 118 112 106  97  86  82  77  78  75  74  75  79  84  90  90  92  95  96  98 102 108 116 127 134 141 137 128 115  98  86  76  68  64  52  39  32  28  25  32  38  33  34  30  24  24  25  26  25  28  28  28  33  90 143 144 145 145 145 146 146 144 146 145 145 144 143 144 143
 149 148 151 150 149 151 150 151 151 150 149 167 166 153 138 130 127 125 127 128 131 130 126 119 112 108 102  94  86  85  83  84  82  86  89  88  91  92  92  95  99  99 100 103 109 113 122 129 137 139 137 125 109  90  82  70  70  58  46  36  29  25  27  35  37  33  33  30  25  24  25  25  27  28  28  33  53 137 145 146 146 144 146 145 144 145 146 145 144 144 145 144
 149 148 149 150 151 151 150 151 152 150 149 154 141 124 101  93  95 104 115 120 124 125 121 114 110 107 104  96  91  92  89  89  87  88  92  96  98  98  96  97  96  95 100 105 108 112 116 124 129 136 137 132 114  97  87  78  76  70  52  44  34  27  24  27  35  35  33  33  27  25  24  27  26  25  28  30  36 114 144 146 145 146 146 145 147 146 146 146 146 145 146 146
 153 151 151 152 152 154 153 153 152 151 144 140 122 102  86  84  88  95 104 113 120 121 117 112 111 110 106 102  96  94  94  89  86  91 100 108 106 100  97  96  92  94  97  97  97 103 109 116 124 129 135 133 123 104  91  85  81  78  59  51  40  31  26  24  28  36  34  34  32  26  25  27  25  26  28  29  32  74 142 146 146 148 146 147 147 147 145 145 146 147 145 146
 154 153 154 156 158 158 158 159 158 153 134 130 110  95  91  89  92  97 103 112 117 120 116 115 114 112 108 105 101  97  92  88  89  99 110 111 106  99  95  91  92  92  93  93  93  97 100 108 118 122 129 133 130 114  97  89  84  81  67  56  54  37  28  24  25  28  35  31  35  29  26  26  26  25  26  28  29  47 136 146 146 149 148 148 148 146 146 146 147 144 146 147
 160 158 157 156 159 161 162 160 158 148 127 128 119 112 106  97  97 101 103 109 118 123 122 120 115 111 109 104 102  95  90  87  92 106 118 118 106  96  91  89  90  89  88  90  91  91  94  99 106 115 124 130 130 125 108  93  88  86  77  62  63  48  32  25  24  25  28  32  28  32  29  25  26  24  25  27  27  33 114 144 147 150 150 148 148 147 148 147 148 146 147 146
 164 164 162 160 159 162 165 163 159 144 135 136 127 126 124 108  96  96 101 108 116 125 129 123 116 109 107 103  98  91  87  86  95 107 114 110  95  85  81  81  85  85  86  87  86  88  91  95 100 110 120 129 133 130 119 101  91  90  88  69  66  60  38  26  24  24  25  29  32  31  31  28  26  25  25  26  28  31  79 142 147 149 150 149 148 149 149 148 148 149 147 147
 164 167 165 164 161 163 165 167 163 150 145 141 140 143 138 118 103  94  97 104 117 136 142 132 119 109 105 101  95  90  85  82  90  91  87  81  72  70  65  64  65  64  65  66  71  74  80  87  95 106 120 130 138 138 129 111  95  92  93  81  66  69  51  31  24  23  24  25  29  32  32  30  28  28  25  25  29  31  49 139 149 149 150 148 146 149 149 149 149 150 147 147
 167 168 167 164 162 162 165 166 164 156 147 145 150 148 139 123 107  95  93  95 115 145 158 151 131 113 103  98  93  87  80  73  59  50  43  41  42  56  67  55  43  37  37  43  50  61  69  82  94 109 122 136 143 146 141 128 106  94  90  90  70  69  61  35  25  22  24  25  24  28  33  30  29  29  25  24  28  29  31 126 146 152 150 148 149 149 150 149 148 150 150 147
 163 166 167 166 164 163 166 166 166 157 145 147 154 151 140 119 106  95  91  93 112 160 178 171 147 121 105  98  90  86  82  56  36  33  32  36  39  52  68  55  57  64  73  82  89  95 104 105 110 120 129 140 149 153 154 141 120  98  92  93  78  65  65  44  26  21  21  23  24  25  29  33  29  28  25  25  26  30  28  91 144 149 152 150 151 152 150 151 149 150 148 149
 164 167 167 166 164 162 164 166 166 162 147 148 143 133 115  99  90  86  87  92 112 178 201 190 161 131 107  97  89  84  84  43  34  32  30  30  29  50  71  83  87  91  98 106 109 118 122 123 126 129 136 143 150 158 159 153 133 112  96  94  86  67  61  50  27  22  19  19  23  23  23  29  30  26  28  25  25  28  30  56 143 148 151 151 150 150 151 151 151 151 151 150
 164 166 168 167 167 165 165 166 167 167 152 140 113  94  87  76  72  75  82  94 120 201 217 199 165 133 114 100  91  86  85  62  59  58  58  69  79  85  88  89  89  94 102 108 117 126 130 135 135 137 142 147 154 161 162 158 145 125 106  93  91  74  57  49  33  25  21  18  23  22  24  26  30  30  28  29  24  27  31  31 136 148 149 151 150 150 151 152 151 151 150 151
 166 166 166 168 166 165 165 165 166 165 151 110  80  60  48  48  75  84  81 100 153 213 225 196 159 136 121 109 100  93  91  81  79  75  77  80  82  85  86  89  90  94 103 113 123 131 136 141 144 146 149 153 158 161 160 158 151 136 115  97  92  82  58  50  39  27  23  21  22  23  23  25  28  31  28  29  26  27  29  31 102 147 151 150 152 152 151 153 152 152 152 151
 164 165 166 166 167 167 165 165 167 161 133  82  62  53  36  40  51  75  73 104 188 225 224 190 154 136 127 120 114 111 111 103  97  85  77  76  77  81  86  92 100 107 118 126 134 139 141 144 147 148 153 156 160 160 162 160 155 146 126 106  93  87  67  51  43  30  25  24  27  32  25  24  25  27  29  28  29  25  29  31  67 145 150 152 151 152 152 153 152 154 154 152
 163 162 165 166 167 165 164 166 165 162 146 103  70  55  38  43  64  79  88 134 212 230 215 172 147 134 126 127 126 128 137 138 136 131 125 116 110 107 110 116 124 131 135 139 144 146 143 146 148 149 151 156 159 159 160 159 153 149 134 114  99  89  74  53  45  37  31  32  35  34  30  25  25  25  30  31  31  27  28  30  40 140 150 152 152 152 153 155 153 153 153 153
 165 163 165 165 167 164 165 165 164 162 162 156 139 113  99  84  82  83 101 190 219 225 196 161 139 129 126 125 131 137 146 153 159 157 159 154 152 149 146 143 143 145 146 148 149 147 144 147 146 148 152 154 158 157 155 156 153 148 136 121 103  92  78  59  49  39  35  40  42  38  36  30  24  23  26  31  31  28  28  31  32 118 149 153 154 152 154 155 155 153 154 154
 165 166 165 166 166 165 165 166 165 164 170 168 131 108  98  85  85  97 165 204 227 223 181 148 132 127 123 125 128 128 142 156 162 167 167 169 173 170 166 159 153 147 146 145 145 146 145 143 143 145 147 153 154 152 152 151 152 147 137 123 105  93  84  64  51  43  38  44  43  41  39  36  28  24  25  28  31  32  27  32  34  84 149 154 154 154 155 155 155 154 156 157
 167 167 167 166 167 168 167 167 166 166 179 179 134 100  91  89 115 164 190 212 225 209 168 146 131 124 118 119 124 130 144 159 165 172 179 180 181 176 171 163 155 149 142 141 139 138 139 140 141 142 144 149 150 148 149 150 148 147 138 123 107  96  87  69  55  45  38  48  39  37  47  46  38  27  25  25  30  34  28  31  33  58 148 154 155 156 155 154 155 155 158 156
 168 168 170 170 169 169 169 168 169 169 190 192 182 160 139 154 170 186 197 214 220 189 161 145 133 120 111 110 117 127 150 158 165 174 178 180 182 179 173 167 159 152 147 144 138 135 133 134 138 139 138 143 145 147 149 147 147 143 136 121 109  99  88  73  61  48  39  51  41  33  41  51  47  32  26  26  28  33  34  30  33  36 140 154 155 156 158 155 157 156 158 157
 170 171 170 170 171 171 170 169 170 174 197 199 195 187 180 182 183 190 197 211 208 181 161 146 131 120 109 100 104 118 132 154 165 175 176 178 178 176 176 169 161 153 146 143 142 137 134 131 135 137 137 138 139 144 146 146 144 141 132 120 108  97  89  76  64  54  46  57  42  37  39  46  50  38  27  27  27  31  36  33  33  31 113 153 157 157 157 156 157 159 158 159
 173 173 173 172 172 173 172 172 173 182 198 199 198 193 189 190 187 189 198 218 205 179 162 146 127 116 110 104 102 109 122 144 162 170 171 173 172 172 168 162 154 146 143 138 136 135 133 134 134 135 136 138 138 141 144 142 142 140 131 118 106  96  91  79  68  58  50  66  51  39  40  44  50  42  26  27  26  27  33  34  32  32  86 153 156 158 160 158 159 161 160 160
 175 176 174 175 174 175 174 175 175 186 197 196 197 196 192 189 184 181 204 217 202 174 156 138 121 108 107  99  93  97 112 136 156 166 170 168 169 164 160 153 147 141 138 134 130 131 133 133 133 132 134 134 138 140 143 141 138 136 128 118 106  97  91  80  71  60  56  66  53  41  40  42  47  44  29  26  26  26  30  32  33  36  55 152 157 160 160 159 161 160 160 161
 176 177 175 176 174 175 175 175 174 186 194 196 195 195 193 185 178 183 200 199 180 157 144 135 120 114 118 108  93  87  96 120 143 158 164 167 165 160 155 146 140 135 129 129 128 131 130 132 130 133 134 131 130 136 142 141 138 135 126 117 106  93  88  82  73  63  62  65  50  46  41  39  40  40  29  26  24  26  28  30  31  34  42 136 158 160 161 160 160 161 161 162
 177 177 176 177 176 176 177 175 177 186 192 195 196 196 188 179 172 180 175 163 151 139 137 136 135 141 149 141 116  86  81 101 130 146 158 157 155 150 146 138 134 130 127 127 128 129 127 129 128 129 133 133 132 136 137 138 134 134 126 118 109  93  89  81  74  67  66  60  41  42  38  35  41  42  29  20  19  23  27  29  32  30  38 120 158 161 162 160 161 162 162 163
 180 180 179 179 177 178 177 177 177 183 191 195 195 192 182 170 165 162 146 131 124 121 122 124 127 139 148 141 124  96  74  88 117 135 144 146 146 142 138 135 128 126 122 123 126 127 127 128 127 128 126 129 131 135 135 137 134 132 128 119 108 102  90  84  75  68  70  59  50  55  48  48  48  38  27  14  15  22  25  28  30  32  36  90 154 162 161 162 163 163 165 165
 182 180 181 180 180 180 179 179 179 184 190 194 191 183 172 157 154 139 123 116 110 108 108 111 117 126 128 123 119  98  71  79 104 127 134 137 135 132 131 128 123 121 121 120 122 120 124 125 127 126 128 128 128 131 135 137 135 133 129 121 111 103  90  86  78  73  75  76  77  73  55  51  41  36  19  13  14  19  24  26  29  31  35  74 150 161 163 164 165 166 166 165
 182 182 182 182 181 181 181 181 180 183 188 190 178 171 160 145 150 124 110 106 102 101  99  98  99 111 114 111 109  94  70  75  99 119 126 129 126 123 121 122 120 117 116 116 116 104  90 114 124 126 124 128 128 129 134 135 136 134 131 121 110  99  90  86  79  74  77  76  79  69  51  45  42  32  14  12  14  16  21  26  28  30  32  53 143 160 164 164 166 167 167 167
 183 183 184 184 184 183 181 183 182 183 185 183 173 160 148 136 142 117 105 102  98  97  89  67  59  51  71  98  97  87  65  78 102 113 119 120 119 117 115 115 115 115 113 115 112 110 104 114 119 121 122 124 125 126 130 135 136 133 131 121 110  93  89  83  80  76  81  80  80  68  54  47  41  20  13  12  13  14  19  25  29  29  34  38 134 157 165 166 168 168 168 168
 186 186 185 186 184 185 183 184 183 182 182 178 166 150 140 126 122 109  89  80  84  97  91  80  78  68  68  82  83  72  69  87 104 114 118 118 114 113 114 114 114 113 112 111 111 109 110 113 115 115 118 121 122 126 129 134 135 134 130 123 111 100  91  85  79  77  87  89  79  70  58  48  33  15  12  12  14  14  17  22  26  28  33  35 118 157 166 167 168 169 169 169
 186 187 187 186 185 183 185 185 184 181 179 170 155 143 130 118 113 110 107  85  81  94  95  86  85  80  75  72  66  77  88  95 105 116 116 113 111 111 110 110 111 111 109 110 109 110 111 110 114 114 116 118 121 124 127 133 136 135 130 122 112 101  93  86  78  75  84  88  89  80  61  49  19  14  12  12  14  13  15  18  25  27  30  42  94 159 166 168 169 170 170 170
 189 188 188 188 187 185 187 187 185 183 173 162 146 136 124 116 112 116 147 125  87  93  95  89  86  84  82  81  84  88  93  97 104 114 118 112 107 106 106 108 109 110 108 109 108 109 109 108 110 112 115 115 118 123 126 134 135 134 129 123 114 102  92  84  74  69  76  83  85  76  63  38  14  12  10  11  14  13  16  19  23  26  29  39  74 157 165 170 170 169 170 172
 189 189 189 188 188 188 188 187 185 181 166 150 137 128 120 114 113 134 171 132  93  93  92  91  91  90  90  92  91  92  93  95 103 112 114 111 106 105 105 104 107 110 108 109 108 109 108 109 107 109 112 110 117 122 127 130 134 131 129 124 114 100  90  83  69  46  52  69  73  68  46  18  13  12  11  12  14  13  14  17  22  25  29  35  60 155 163 171 170 171 172 173
 190 190 190 188 188 189 189 188 187 184 160 142 130 121 114 112 124 162 178 135  97  93  91  89  96  96  95  95  96  96  97  98 101 105 104 103 100 100 102 101 106 107 107 108 109 108 107 108 108 108 108 111 116 124 126 128 130 131 128 122 112 100  91  80  54  20  17  21  40  24  16  13  12  12  11  12  13  12  14  18  20  25  30  35  54 147 162 171 172 172 173 175
 190 190 191 190 191 189 189 189 188 187 163 135 125 118 114 118 144 172 177 143 109  95  86  90  96  99  98  98  95  98  99 100 100 101  98  96  95  97 100 102 103 105 106 106 109 108 109 108 108 109 111 112 115 121 123 125 128 128 127 120 110  99  89  76  39  16  15  11  24  14  13  11  12  12  12  13  14  13  13  17  20  25  28  34  43 144 165 173 174 176 176 178
 193 192 192 192 193 192 192 189 188 188 174 131 122 116 117 126 148 170 171 152 123 109  93  91  95  96  95  97  96  98  98 100  99  96  94  90  86  91  93  96  98 102 103 104 109 109 108 108 107 109 110 112 115 121 122 125 126 125 122 117 106  97  86  68  31  16  30  71  30  14  12  12  11  12  11  12  14  13  13  15  18  23  30  33  39 128 166 175 177 177 178 177
 195 196 195 194 195 194 193 192 190 189 186 137 122 116 116 122 140 160 162 148 122 111  94  83  82  83  85  85  88  92  94  96  94  92  92  89  80  76  88  93  95  99 102 107 109 109 106 107 106 109 108 111 114 119 121 121 123 122 118 112 104  92  84  57  24  14  21  60  47  15  12  12  12  12  11  11  13  12  12  15  18  22  29  33  48 108 165 174 177 179 178 178
 198 196 198 197 195 194 195 193 190 189 188 160 127 117 113 112 121 147 140 107  94  93  81  72  72  76  76  75  74  74  74  74  76  77  74  67  56  50  54  80  91 101 105 105 107 108 106 107 108 108 108 109 111 116 119 118 118 118 114 110 103  92  77  44  19  12  13  24  23  13  12  11  11  12  12  12  13  13  13  16  18  24  29  32  54  95 161 174 178 179 180 177
 198 196 199 198 198 196 196 194 193 190 189 181 132 119 110 105 103 124  96  87  84  84  79  73  72  73  72  68  63  58  55  56  58  58  55  51  47  54  59  67  86  99 105 105 108 107 107 107 106 105 106 108 108 114 115 115 115 115 111 107  97  89  66  32  17  12  11  13  14  12  14  13  12  11  12  12  14  13  12  16  18  21  27  32  48  74 160 175 178 177 180 178
 198 196 197 197 199 196 196 195 194 191 190 187 152 124 109  99  92  90  76  70  74  66  71  67  63  58  57  60  64  66  68  68  70  69  68  69  73  73  72  76  85  97 106 108 108 108 107 106 104 102 106 106 107 109 112 111 111 111 107 102  93  81  52  29  16  11  10  11  13  13  16  14  11  10  11  11  14  14  12  14  17  21  25  34  56  75 155 172 177 176 176 177
 200 198 198 197 197 197 196 195 196 193 191 188 168 128 111  98  87  72  62  67  79  70  72  75  73  76  79  80  81  79  78  74  73  75  81  87  87  87  84  86  88  98 106 109 107 107 105 105 103 104 104 105 106 105 107 108 107 105 103  98  87  70  40  26  14  11  10  12  14  15  18  16  14  12  12  12  14  13  13  14  17  21  26  33  63  78 148 172 177 176 176 177
 197 198 196 196 195 196 196 196 194 191 191 190 181 138 117 103  90  79  79 121 140 138 124 105  90  89  87  85  84  78  75  75  81  88  90  92  93  93  92  94  93  98 104 107 105 106 106 106 103 103 102 105 106 104 103 103 104 101 100  92  80  54  34  24  13  10  10  12  15  16  21  20  15  13  12  13  14  13  12  14  17  21  28  33  61  82 152 172 176 176 176 177
 198 197 196 195 196 197 195 194 195 193 191 190 189 158 121 108  95  90 103 136 136 133 125 111  98  91  85  82  79  77  78  87  90  93  92  95  94  97  98  98  96  98 103 106 105 106 104 104 104 102 102 103 102 102 101 101  98  95  92  85  65  42  32  22  12  11  10  12  15  16  21  23  19  15  13  13  14  14  12  15  17  21  27  32  57  83 157 171 176 176 177 178
 198 198 198 197 196 196 197 195 194 195 192 192 190 173 128 110 101  99 115 129 118 111 107 100  89  84  83  82  83  85  89  91  92  92  92  95  98 101  98  97  98 101 103 105 105 105 102 106 104 102 100 101 101 101  97  96  94  92  85  74  47  38  30  19  12  11  10  11  15  14  17  22  20  16  12  14  14  13  12  14  17  21  28  32  54  95 158 171 176 178 179 178
 199 199 197 198 198 197 195 196 195 194 192 192 190 187 144 112 106 104 122 120 105  96  89  85  84  84  83  85  86  90  89  94  92  93  96  99  99  99 100 102 102 103 103 105 102 102 103 105 104 101  99 100  98  96  94  91  87  85  76  54  40  35  28  18  12  11  10  11  14  13  14  20  18  15  14  15  13  13  14  13  17  21  27  33  52 100 158 173 176 178 179 178
 198 198 197 197 197 196 197 196 196 194 193 193 191 189 166 118 106 106 128 127 105  95  89  86  85  85  88  90  90  89  91  95  96  96  97 100  99  98 100 104 104 102 105 105 103 102 102 103 103 101  97  99  96  96  93  87  81  74  62  44  37  33  25  18  14  11  10  12  12  13  13  16  16  18  16  14  14  14  14  14  18  22  28  34  52  91 164 174 178 177 177 180
 200 198 198 198 197 197 198 197 196 197 195 193 191 189 183 130 110 106 129 134 115  98  91  90  89  88  90  92  93  93  94  95  96  98  97 100 100  98 103 103 103 102 105 105 102 103 102 102 103  98  98  98  96  94  89  82  75  61  44  40  36  32  24  16  14  11  10  12  12  11  12  15  15  17  17  15  14  14  13  15  17  22  28  34  46  94 164 175 179 179 179 179
 202 199 198 199 198 197 197 198 198 195 196 194 192 192 187 156 116 111 124 133 124 106  97  91  90  87  89  92  92  93  95  95  98 101 100 102 100  99 103 103 104 103 105 104 102 102 102 101 100  98  96  94  91  89  82  74  63  48  39  40  35  30  23  15  14  10   9  12  12  12  13  13  12  18  17  13  12  13  12  15  18  22  27  36  48 116 163 174 178 179 179 178
 200 198 200 199 197 199 198 198 198 196 195 196 192 190 190 143 117 116 128 133 133 114 101  92  90  91  92  92  94  95  94  95 101 101 102 100 101  99 102 104 103 105 106 104 103 102  97 100  97  96  94  91  86  82  74  65  51  40  40  38  34  29  22  15  14  10   9  12  10  11  13  13  13  18  13  12  12  13  14  16  20  23  27  38  48 124 166 175 181 181 181 181
 199 200 199 200 198 199 198 198 197 196 195 195 193 193 190 104 142 119 130 140 142 134 114 100  94  94  94  95  98  96  99 101 103 102 102 103 102 101 104 102 104 105 105 102 103 101  99  95  97  94  88  84  79  73  64  51  41  39  39  36  32  28  21  14  13  10  11  12  12  13  16  14  14  14  12  12  13  12  13  16  19  23  29  38  52 136 169 176 180 182 181 182
 199 200 202 200 200 198 198 199 198 197 195 195 193 192 196  83 184 132 131 144 147 148 137 120 106  99  93  96  99  98 102 105 105 103 105 102 104 102 103 102 105 103 102 101 102  98  95  93  92  89  83  78  71  63  54  42  39  40  42  38  33  27  18  14  11  10  11  14  12  14  20  16  18  13  13  14  13  13  13  17  18  24  31  40  54 140 169 176 181 184 183 183
 202 202 202 199 199 198 198 198 199 197 196 193 192 194 182  95 176 144 128 144 147 150 148 131 115 105 101 100 100 100 103 104 105 105 106 102 102 103 104 104 102 103 102  98  97  96  93  90  88  82  76  71  62  52  43  38  39  42  40  36  31  26  18  13  12  10  11  16  15  16  23  20  20  12  13  14  13  14  14  17  20  25  36  48  60 144 171 176 182 184 183 182
 200 201 201 202 200 199 199 198 198 198 195 194 193 192 154 115 132  88  94 139 145 148 145 134 118 106 103 102 102 101 103 104 105 106 105 106 104 103 103 104 103 103  99  96  93  90  88  82  80  74  66  61  51  44  38  38  38  39  37  34  30  24  16  13  12  11  14  17  19  19  26  21  21  13  12  13  14  14  17  19  24  27  40  68  67 148 173 179 183 183 181 181
 204 202 202 202 200 200 199 199 198 195 195 195 190 182 122 106  77  50  47 122 140 143 137 123 110 106 104 101 100 102 104 103 103 105 105 106 105 104 103 103 102 100  95  92  86  85  80  76  70  64  58  53  44  40  38  39  40  40  38  34  28  23  16  13  11  12  18  19  21  22  28  21  18  14  12  14  15  16  18  17  24  29  46  88  76 153 175 178 180 182 181 182
 200 202 199 201 199 200 197 199 198 194 191 186 177 158  90  76  54  43  39  80 130 133 124 112 104 100  99  97 100 100 101 105 106 103 103 104 105 101 102  98  97  92  89  87  82  77  71  65  60  53  50  45  40  40  39  40  39  39  37  34  27  24  14  12  11  14  19  22  20  25  29  23  14  13  13  15  15  17  17  20  27  30  47  95  81 153 177 181 181 184 181 183
 198 201 201 202 199 199 199 195 192 188 179 162 144 119  69  57  44  35  36  36 105 118 111 102  95  93  92  94  95  97  97  98  99  99  99 101 100  96  95  92  93  88  82  77  72  66  58  54  51  49  45  44  39  40  40  40  37  37  37  34  28  22  14  11  12  20  22  25  25  29  27  21  15  15  16  15  18  20  20  22  29  32  48 103  87 155 178 183 182 185 184 182
 202 198 199 197 197 195 192 189 185 175 153 139 120  83  58  48  43  38  37  32  43  97  98  94  91  90  90  93  92  92  94  94  97  96  93  93  92  92  89  85  82  78  71  64  59  54  51  49  47  47  45  44  42  40  40  40  37  37  36  33  27  20  14  10  14  23  26  25  26  31  31  23  18  16  16  17  22  22  20  25  31  37  74  85  92 161 180 183 182 183 183 182
 202 200 199 196 194 192 190 182 170 156 148 122 106  82  53  50  44  38  32  28  25  47  90  88  87  87  86  86  87  86  88  90  91  91  89  89  85  81  78  71  72  66  59  53  51  51  49  49  50  47  47  46  45  43  39  38  37  37  34  33  25  18  12  12  21  25  27  26  27  33  32  23  21  18  19  23  22  19  22  28  33  51 106  82 103 163 180 181 183 182 184 183
 199 197 194 190 185 184 179 176 171 155 134 121 103  64  62  64  44  35  27  26  24  20  37  70  78  81  80  79  79  80  81  82  82  80  78  78  72  68  63  58  53  50  50  49  48  50  52  51  52  48  49  48  45  43  40  38  34  34  32  28  22  15  10  13  25  26  26  24  29  35  32  24  20  24  23  24  24  22  26  32  43  76 115  90 105 161 179 181 183 182 181 183
 198 198 195 193 189 184 183 176 158 148 130 109  79  65  65  54  43  36  30  24  21  17  16  22  47  62  69  67  69  68  67  68  68  67  65  60  56  52  51  47  49  48  51  52  52  53  53  52  53  50  49  47  44  40  38  35  32  30  29  25  18  12   9  18  28  26  27  27  31  34  32  33  36  31  26  25  29  24  28  34  65 103 115 103  93 152 175 177 179 178 180 181
 197 195 194 195 190 189 174 159 158 143 112 106 113  61  68  69  53  41  27  23  17  15  14  18  27  29  27  32  36  40  41  39  38  37  29  27  31  35  42  46  48  51  53  54  54  54  55  52  51  48  46  45  42  36  33  32  30  29  26  21  13  10  10  22  27  27  27  26  27  33  31  32  39  32  25  30  31  26  27  26  28  23  39  29  31  31  58 105 162 175 177 178
 199 196 196 188 185 176 159 153 127 120 135 136 104  62  86  63  51  27  24  23  17  13  14  21  28  26  22  18  16  15  16  16  14  13  13  14  18  25  32  38  44  47  50  51  53  54  52  50  46  45  41  41  37  33  30  29  28  26  20  14   9  11  17  26  26  28  26  21  23  28  27  30  33  26  27  33  31  24  30  26  24  17  17  18  22  26  24  25  30  71 101 111
 195 197 190 180 169 158 156 144 158 164 144 137 113  70  74  53  35  25  22  21  16  13  14  27  30  23  20  16  14  13  13  14  12  10  11  12  14  17  23  27  33  38  42  43  44  44  44  42  40  36  36  35  31  29  26  26  24  17  12  10   8  16  23  28  30  27  26  21  22  23  21  23  24  24  26  32  27  26  29  30  23  16  14  12  15  22  19  20  22  23  24  28
 192 183 174 172 171 161 159 165 163 157 166 139  94  61  59  40  31  24  21  20  16  13  16  30  28  23  19  14  14  13  12  13  12  12  11  12  10  12  15  17  22  26  29  31  34  33  33  34  33  30  30  28  26  24  23  17  14  12  10  10  12  21  25  29  27  25  21  17  21  24  21  18  15  19  24  30  23  26  30  28  23  15  13  11  12  15  18  18  18  17  20  21
 170 166 175 170 153 161 167 170 163 162 146 121  71  62  42  31  27  20  16  18  15  14  22  33  24  22  19  13  15  12  12  11  12  10  11  12  11  10  12  13  15  18  20  24  25  24  25  26  25  25  22  19  17  14  12  10  10   9   8  11  19  21  27  24  23  18  18  15  19  21  23  16  14  18  24  28  21  28  31  28  22  15  12  12  13  15  17  15  15  15  15  17
 186 186 179 180 183 180 176 176 173 148 119  98  52  36  32  27  25  19  16  16  16  16  26  28  22  20  19  13  14  12  11  11  12  11  11  11  11  10  12  11  12  13  14  15  16  17  16  16  16  13  12  12  11  10   9  10  10  10  12  18  22  26  23  22  18  14  16  14  19  18  20  17  16  14  24  23  21  23  26  27  22  16  13  12  12  16  16  17  17  16  15  15
 193 193 191 189 187 183 177 163 137 126  86  38  36  31  28  24  20  18  16  16  17  17  29  25  19  19  20  12  13  12  12  11  11  10  11  10  11  11  10  11  12  12  11  12  11  10  11  10  11  10   9  10   9  10   9  10  10  19  23  23  24  24  20  19  15  12  11  13  14  15  20  17  15  14  19  23  22  21  23  29  20  15  14  13  13  15  15  16  16  14  15  14
 189 191 188 183 178 163 136 114  87  48  38  34  32  28  25  21  18  17  15  17  17  19  25  23  16  21  18  11  13  12  13  12  12  10  10  10  10  10  11  10  11  11  10   9   9  10  10  10  10  10   9   9   9  10  13  16  20  24  23  22  20  19  15  14  16  12  12   9  12  15  20  19  14  14  21  17  22  22  20  27  21  17  14  14  13  12  13  16  18  16  15  14
 188 190 174 124  89  66  53  41  36  36  35  32  29  25  22  20  20  17  16  15  16  20  27  21  17  23  17  12  12  11  12  12  12  10  10  10  10  10  11  11  10  10  10   9  11  10  10  10  11  11  13  12  13  18  18  20  20  21  18  18  17  14  14  16  14  11  11   9  10  14  18  19  15  15  17  16  19  20  20  23  22  17  15  14  13  12  12  13  14  16  14  13
 184 112  48  45  41  36  34  32  33  31  31  29  24  20  19  22  18  15  16  15  16  23  25  17  17  24  16  10  11  12  12  11  11  10  10  10  10  10  10  10  10  10   9  10  10  10  10  10  10  10  12  13  13  14  13  13  14  15  16  16  14  12  14  16  12  10  11  10  10  13  16  18  13  13  15  15  17  16  17  24  23  19  13  13  12  12  11  12  13  13  14  12
  55  45  42  37  32  32  32  32  31  28  28  23  22  21  23  20  18  17  16  14  17  25  25  17  20  23  13  10  10  11  12  11  11  11  11  11  11  11  10  10  10  10  10  10   9  10  10  10  11  11  12  12  12  13  12  12  12  13  14  13  12  14  16  14  11  11  12  11  11  13  17  17  16  15  13  16  18  16  17  20  20  18  16  12  11  12  11  10  12  13  13  14
