P2
# Generated by OpenCV 3.4.0
92 112
255
 112 113 114 116 115 116 116 116 115 117 116 117 118 116 118 117 119 120 118 116 120 119 119 120 119 120 120 120 121 121 122 122 121 122 121 122 122 122 121 123 124 123 120 123 123 122 122 123 123 123 123 122 122 123 122 123 123 122 122 122 122 123 122 121 120 122 122 122 121 120 121 122 121 121 119 119 120 119 117 119 118 118 118 119 116 118 117 119 117 117 117 116
 113 113 114 115 115 116 116 115 116 117 119 118 118 119 119 121 119 118 119 119 121 121 119 120 122 122 121 122 123 123 122 122 122 121 121 122 122 123 123 123 123 122 121 123 123 123 124 123 123 123 123 123 123 124 123 122 122 124 123 125 122 122 122 123 122 121 123 123 121 122 121 122 122 121 123 121 121 120 120 118 118 120 119 119 118 117 119 119 118 117 118 117
 114 115 115 116 116 115 116 117 118 117 118 118 120 121 120 121 120 120 122 120 122 122 122 121 122 122 121 123 122 123 123 123 123 122 122 123 122 124 125 124 124 124 122 122 123 124 123 124 124 124 123 123 123 124 124 122 123 122 124 125 124 125 123 124 123 123 123 123 123 124 123 122 123 122 122 121 121 121 121 120 120 121 121 120 118 118 118 119 119 117 119 118
 116 114 116 116 115 114 116 119 118 118 118 117 118 119 118 120 121 122 121 119 121 122 120 121 121 124 122 124 124 123 123 124 123 125 124 123 121 123 124 124 124 124 122 123 123 124 124 124 125 124 124 123 125 124 124 122 124 124 124 123 124 124 125 124 122 124 124 123 124 124 124 124 124 122 121 123 123 121 122 121 122 120 120 122 121 121 118 118 119 118 118 119
 115 115 116 114 115 118 116 118 119 118 118 120 121 120 121 121 122 124 123 120 122 122 122 122 121 124 125 124 124 123 123 125 124 124 123 124 124 122 124 124 124 123 124 123 123 124 124 124 123 124 124 123 122 122 123 122 123 123 123 123 124 125 123 124 123 125 122 123 123 123 124 123 123 124 123 123 122 123 123 123 122 122 122 121 119 120 120 120 120 119 118 119
 116 117 117 116 118 118 118 119 120 122 120 120 121 122 121 120 122 122 121 120 123 122 123 123 123 122 122 122 124 124 125 124 124 123 124 124 125 124 125 125 125 125 128 126 126 124 123 124 125 124 125 124 124 123 124 124 123 123 123 125 126 125 124 123 125 125 124 124 125 123 123 124 124 124 123 122 122 122 122 123 122 121 123 121 120 121 122 120 120 120 119 118
 115 117 116 117 118 117 117 118 119 119 119 118 121 122 121 120 122 122 123 122 122 121 124 121 122 124 124 124 125 123 125 124 124 124 123 123 124 124 127 123 124 126 126 125 126 126 122 125 124 123 126 123 123 122 124 124 126 126 125 126 126 126 125 124 126 124 124 125 125 124 125 124 126 124 123 123 124 123 123 123 123 122 123 122 122 121 120 121 121 120 120 120
 115 117 118 114 117 117 116 118 118 120 120 121 120 120 122 121 123 122 122 121 121 122 124 123 125 124 125 124 124 124 125 124 124 124 124 123 125 124 124 125 125 126 126 126 126 126 124 126 125 125 124 125 124 125 125 125 126 125 125 125 125 126 126 124 125 124 125 125 124 124 124 124 125 124 123 123 124 124 123 124 125 123 122 123 123 121 121 120 120 121 120 122
 117 116 117 116 117 119 120 119 119 122 119 120 122 123 121 121 121 121 122 122 121 122 122 122 123 123 125 124 121 122 125 126 125 125 125 124 123 124 125 124 123 124 125 126 126 125 126 127 125 123 124 123 123 125 125 123 126 127 125 124 126 125 127 125 126 125 125 124 124 124 124 125 123 123 124 125 123 124 124 124 124 124 123 123 123 122 122 120 121 122 120 122
 116 116 118 118 118 119 119 120 117 122 122 122 120 122 121 122 122 123 123 122 124 121 122 122 124 124 124 123 124 124 125 125 125 123 125 126 124 123 124 123 121 122 123 123 120 122 122 122 123 123 122 122 122 125 125 124 126 126 126 126 126 126 127 125 126 125 126 125 125 125 124 125 126 125 123 124 125 125 124 123 124 123 123 124 123 123 123 123 123 123 122 120
  82 100 110 116 116 118 117 117 119 119 119 122 121 122 122 122 122 122 124 123 123 122 123 122 124 124 123 123 124 124 125 124 126 124 126 126 121 118 116 115 114 107  97  93  88  83  93  95 106 112 113 121 122 123 124 124 125 127 125 126 126 126 126 125 126 125 126 126 126 125 125 124 125 125 125 125 125 124 125 124 125 124 124 124 124 123 122 123 124 122 122 123
  80  64  56  51  52  61  71  82  92 107 116 120 119 119 120 121 121 122 122 123 122 123 122 121 122 123 122 124 126 126 126 124 123 124 123 114 104  95  83  68  54  43  40  42  38  39  40  42  42  60  79 100 115 118 122 121 123 124 125 126 126 125 125 126 126 124 126 125 126 125 125 124 126 126 126 126 125 124 124 126 125 124 125 124 123 123 124 124 124 122 121 121
 116 117 115 116 116 111 101  89  81  65  57  62  63  78  92 105 120 120 119 120 123 124 123 122 121 119 121 122 125 122 125 119 114 108  95  77  70  61  56  46  43  41  37  37  35  33  34  34  35  40  46  57  69  93 117 120 123 124 124 126 126 126 125 127 125 126 126 127 126 127 125 125 126 128 127 126 125 123 124 124 125 124 126 124 125 124 122 124 123 124 122 119
 116 117 118 117 116 117 117 117 120 119 121 118 111  95  83  68  54  62  84 107 120 120 123 123 125 119 121 122 120 120 118 105  89  75  67  67  61  57  49  46  44  40  35  34  31  29  30  28  32  31  31  36  49  60  69 110 118 121 122 125 126 125 127 127 125 124 125 126 127 127 125 125 126 125 125 125 124 124 126 125 125 125 124 123 123 124 124 124 122 124 123 121
 117 119 118 120 118 120 121 119 120 120 120 120 121 121 120 120 120 112  91  64  61  84 112 121 121 117 117 122 110 100  87  72  61  59  54  52  52  46  42  43  41  37  33  31  28  25  25  24  24  25  26  26  32  44  57  75 111 116 122 124 127 126 127 126 125 126 125 125 127 126 125 125 125 125 126 125 126 125 124 125 123 123 123 123 125 124 123 121 122 124 122 123
 118 117 119 120 118 120 119 121 120 120 119 119 120 122 120 120 122 121 119 116 115  91  58  72 108 106 110 105  80  63  53  48  47  45  48  48  47  44  42  39  35  31  31  30  26  25  24  23  23  23  25  24  27  32  39  44  86 112 118 124 125 124 126 126 126 126 125 125 126 126 125 124 125 124 125 125 124 124 124 123 123 123 124 124 123 123 122 122 122 121 122 120
 116 118 117 119 117 119 117 119 118 121 120 122 120 120 121 119 120 119 118 117 119 118 116  88  59  83  86  73  53  45  45  48  52  53  50  44  45  45  41  37  35  31  31  28  26  24  24  25  24  24  26  24  26  30  30  34  46  89 115 122 125 125 125 125 125 124 124 124 125 124 124 122 123 124 124 123 122 122 122 122 123 122 121 119 121 121 119 120 119 119 118 117
 117 117 117 117 117 117 116 121 119 120 120 119 120 119 121 121 119 119 116 118 117 115 111  92  72  57  54  47  36  39  44  48  46  38  39  43  46  40  38  33  32  30  27  26  26  25  24  24  24  23  22  22  23  26  30  32  35  52  90 112 119 124 124 122 119 122 121 121 120 120 116 117 117 112 111 108 105 105 101 100  95  96  90  88  87  86  84  81  80  80  74  77
 115 115 116 115 111 117 116 119 119 116 118 117 121 116 117 118 115 112 113 113 112 107  91  70  68  50  38  34  36  37  39  36  33  38  39  38  33  32  30  26  26  26  25  25  24  23  22  22  23  24  24  23  21  24  26  30  30  35  57  78  82  84  82  81  83  80  76  77  76  76  81  78  78  80  84  82  85  86  87  90  89  91  92  94  96  97  98 100 100 103 104 102
 114 110 111 110 100 111 109 110 111 108 108 105 107 103 101 103  99  94  96  92  93  90  82  57  46  38  35  41  45  43  37  39  38  35  34  35  33  32  31  35  34  36  36  33  35  33  28  24  25  22  21  23  24  24  25  26  29  33  36  58  87  99 105 106 107 109 111 108 112 110 110 110 112 113 113 114 112 114 116 115 114 115 116 116 117 117 116 118 119 118 117 117
  69  73  74  77  73  78  72  74  75  76  78  79  82  83  85  82  83  87  87  89  88  81  75  52  37  35  36  41  38  38  44  41  41  43  43  44  47  51  54  60  61  67  70  75  76  76  72  54  42  32  26  23  24  27  26  26  25  33  33  38  72 107 118 122 124 123 125 124 126 124 125 124 125 124 125 124 124 123 125 124 124 124 124 123 124 123 122 122 120 121 121 120
 106 105 108 107 107 111 110 109 111 111 113 117 115 116 114 110 114 114 112 108 101  86  72  59  33  34  35  43  40  39  40  45  49  54  71  81  88  90  92  94  98 100 106 108 111 111 111 105  96  76  55  37  27  26  24  25  25  25  31  30  49  84 114 122 126 126 126 125 126 126 125 126 125 126 125 126 125 124 126 126 125 124 125 125 123 123 123 122 122 123 122 121
 121 118 120 121 120 122 121 122 121 120 120 120 121 120 117 117 117 111 101  97  89  73  56  42  34  34  34  40  52  55  75  91  95  99 108 112 112 116 120 122 124 125 128 130 132 134 133 130 127 121 108  96  71  40  26  26  25  26  25  29  32  60  93 116 125 126 127 126 126 126 126 127 125 126 125 124 124 126 125 124 126 125 124 125 124 124 124 123 123 123 122 122
 118 122 120 121 121 123 123 124 123 124 125 125 123 120 118 120 110 101  83  75  72  56  42  44  43  33  33  66  95 116 127 138 142 144 150 152 154 154 155 153 153 149 149 148 147 146 147 147 146 145 144 138 125 116  92  43  25  26  24  26  28  32  70 104 119 126 127 125 128 127 127 125 126 126 126 126 128 125 124 125 125 126 124 125 125 124 124 124 122 124 122 122
 122 121 123 122 122 124 122 124 125 126 124 126 125 120 119 109 102  88  71  65  61  41  38  48  49  56  95 117 130 142 153 158 168 174 179 180 179 173 168 162 158 157 158 158 154 153 153 154 154 155 157 156 152 148 143 131  79  30  27  24  28  27  39  82 111 124 126 125 126 128 127 127 128 127 125 126 126 125 126 127 125 124 126 124 125 123 124 123 123 123 123 122
 123 122 124 123 124 125 125 124 126 127 126 127 123 116 106  94  81  68  56  61  40  35  38  50  66 102 141 154 163 171 182 190 196 202 202 196 186 179 169 162 158 159 157 153 150 149 152 155 156 156 158 158 159 160 158 156 144 108  40  26  23  26  29  55  95 120 127 126 128 127 128 128 128 127 126 126 125 125 125 124 125 125 125 125 125 124 124 124 123 122 123 122
 123 123 122 124 123 126 126 125 127 126 126 125 118 106  84  78  63  50  59  48  37  40  50  65  88 139 169 182 194 205 207 213 218 214 207 198 186 174 165 159 154 152 149 146 146 149 150 153 154 154 156 161 162 161 162 165 163 153 123  42  25  24  27  33  73 109 125 128 128 128 129 129 129 127 127 126 128 126 126 127 125 126 126 126 126 124 124 124 125 124 122 122
 125 124 124 124 123 124 126 126 126 125 126 123 112  87  69  64  48  53  56  41  49  51  65  85 141 174 191 203 211 215 216 211 210 203 196 184 175 167 158 147 143 143 139 134 137 128 112 142 146 149 152 158 157 156 163 165 166 161 148 125  46  26  25  29  49  86 122 127 128 129 129 129 129 128 128 128 128 128 127 126 126 127 127 126 127 126 124 125 125 124 123 124
 126 125 125 124 125 126 126 127 126 126 124 118 106  71  59  47  43  52  49  50  62  60  78 136 181 195 202 208 208 210 206 198 193 187 179 170 165 156 145 140 137 134 133 131 132 124 120 132 139 143 146 151 154 158 160 161 166 161 151 142 118  42  25  25  33  64 110 126 128 128 128 129 129 129 128 128 127 127 127 127 128 127 128 126 128 124 125 126 124 124 123 125
 125 125 125 124 126 126 126 127 127 125 122 120  89  61  48  42  46  52  54  58  69  74 106 170 189 197 203 205 201 199 193 185 181 174 168 162 153 143 137 134 132 131 129 128 130 131 132 132 135 138 142 146 150 152 154 155 160 159 151 141 135 108  30  25  27  47  86 124 129 129 129 129 129 129 128 128 128 128 128 128 127 127 126 126 126 126 126 125 125 125 124 124
 125 126 126 127 126 125 127 126 127 124 117 107  71  54  44  39  48  52  63  55  74 102 131 169 185 188 195 200 194 192 188 179 173 170 163 153 144 138 133 129 128 127 126 128 130 133 134 135 137 138 140 143 148 153 154 154 154 150 150 143 136 129  86  30  25  34  64 114 130 129 130 129 130 129 128 128 128 129 128 126 128 127 126 127 127 126 126 126 124 124 125 124
 126 126 127 128 125 126 126 125 126 123 117  85  56  46  39  39  46  61  57  57  75 119 143 166 173 180 187 192 188 186 182 174 170 165 159 150 142 138 132 129 128 126 128 128 128 131 133 135 137 137 138 142 145 153 159 157 154 150 149 146 142 135 126  53  26  26  48  93 127 130 130 129 130 130 129 130 129 128 127 128 128 128 126 127 128 128 126 125 125 125 124 124
 126 126 126 127 128 126 126 127 126 117 106  57  44  44  37  42  55  58  52  66  90 131 152 165 166 171 176 178 176 175 171 165 161 160 158 146 141 136 132 128 126 126 126 125 126 125 129 129 133 133 135 138 140 147 156 159 158 154 150 146 144 139 132 114  36  25  32  64 125 130 130 131 130 129 130 130 129 128 128 129 129 128 128 128 127 126 127 125 125 125 125 125
 128 126 125 127 126 128 128 126 124 114  76  47  41  36  33  44  55  54  57  88 102 135 156 160 163 167 169 168 166 164 162 160 159 157 151 146 139 131 130 126 122 122 121 119 121 119 121 124 126 125 127 130 131 138 144 153 158 156 150 148 146 141 134 128  81  26  28  42 106 128 130 130 130 130 130 130 129 129 128 129 129 128 127 128 127 126 127 126 127 127 126 125
 127 127 127 128 128 129 127 126 120 110  52  41  37  34  39  56  53  57  64 109 111 132 151 155 160 162 162 162 161 161 160 158 154 153 147 144 139 134 128 123 116 114 113 111 110 112 113 116 120 121 121 123 126 130 134 137 145 149 148 145 146 143 138 133 125  39  26  33  84 128 130 130 130 130 129 129 130 130 129 129 129 128 127 126 128 129 128 126 127 127 126 126
 128 127 127 127 129 128 127 127 115  88  48  38  35  34  50  53  50  57  75 113 111 132 147 152 156 158 156 156 159 160 158 159 157 155 152 148 139 131 123 116 108 104 104 102 101 102 104 107 112 117 118 119 121 122 125 128 133 138 143 144 144 146 141 138 132  88  26  30  59 126 129 130 130 130 129 130 130 130 131 129 129 128 128 128 128 128 127 127 126 128 128 126
 127 128 127 128 129 128 129 126 113  72  43  36  32  35  53  44  48  55  72 100 111 131 145 149 152 154 150 152 158 162 163 164 171 165 158 144 134 124 115 110 102  98  94  92  96  96  99 105 106 110 113 116 119 120 121 121 124 130 133 134 140 144 142 139 134 127  40  30  38 116 130 131 129 130 131 130 130 129 130 129 127 129 129 130 129 129 128 127 128 128 128 126
 129 128 128 129 128 129 130 123 105  54  41  32  31  42  46  37  44  52  68  94 114 128 140 145 147 148 147 154 161 167 174 177 169 164 148 132 121 112 104  99  96  93  92  92  92  93  94 100 100 105 109 114 115 117 118 120 121 122 125 130 134 138 142 141 138 132  80  31  30  99 129 131 131 130 131 130 131 130 130 131 129 129 128 128 127 128 127 127 129 128 129 126
 127 129 127 129 129 129 129 122  98  51  41  31  32  47  37  34  39  48  67  94 115 131 136 141 145 144 147 158 166 176 182 178 163 149 128 110  96  89  85  81  79  81  83  86  86  89  90  93  96 101 105 109 111 113 117 117 116 117 116 122 126 130 136 141 141 137 116  30  32  65 128 130 131 132 131 130 132 131 131 129 130 130 129 129 128 128 127 128 128 127 126 126
 128 128 130 129 130 130 127 116  86  42  34  30  35  43  30  32  40  48  65  93 116 132 136 136 140 146 152 161 168 171 164 154 137 126 108  91  81  73  71  68  66  65  68  72  78  83  85  88  93  96 102 107 109 110 112 111 108 102  96  92  95 101 112 124 132 134 131  52  28  44 120 128 131 132 131 131 132 130 131 131 131 130 130 130 130 129 128 128 129 129 128 128
 131 128 129 129 129 128 127 109  75  36  31  32  35  34  29  32  37  43  68  93 117 131 135 135 142 152 159 167 164 158 144 130 118 106  90  81  70  64  60  62  64  63  64  69  73  78  81  86  89  94  97 103 106 107 106 104  94  82  78  76  81  82  94 104 112 116 125  75  28  29 109 128 130 132 132 132 131 131 131 129 132 130 130 129 129 129 129 128 129 128 127 128
 129 131 131 131 130 129 128 103  63  34  29  31  34  30  30  32  36  44  72  95 119 132 137 138 147 157 161 160 145 134 130 119 107  95  85  80  76  77  71  70  67  69  69  72  75  77  80  86  89  90  94  99 103 104 105  96  85  76  73  70  74  76  80  87  97 108 110  95  24  30  79 127 129 131 132 132 131 132 130 131 132 130 131 131 130 130 129 127 128 128 128 127
 129 130 130 130 129 131 129 101  60  31  31  31  30  28  27  30  32  51  73 103 123 135 142 143 149 159 160 145 131 126 119 108 101  96  93  87  85  85  82  79  76  72  74  77  78  79  83  87  88  90  92  97 100 102 104  95  84  80  77  79  82  86  90  93  99 109 111  98  26  28  42 122 131 132 131 132 131 131 130 130 132 131 131 131 130 129 129 129 129 129 129 127
 131 132 131 131 130 132 125 100  50  31  33  30  29  29  26  29  35  60  79 111 128 136 143 148 158 164 160 141 128 122 114 108 106 102  95  92  91  87  87  87  83  75  71  77  80  83  85  87  88  90  92  97 104 107 102  93  86  85  85  87  92 103 115 117 119 118 116 105  38  26  33  97 130 132 131 132 131 131 132 130 131 131 131 130 130 131 130 129 129 130 129 129
 132 131 131 131 132 131 119  96  52  31  31  29  29  28  27  29  40  64  88 122 140 144 147 153 160 165 157 140 126 117 114 116 113 105  98  89  86  84  84  85  84  79  72  73  77  82  85  88  88  89  93 100 108 108 105  94  90  87  89  87  90 102 115 123 130 129 126 114  59  27  29  62 128 131 132 133 131 132 131 131 131 131 131 129 130 131 131 130 131 129 130 129
 135 133 132 132 134 133 118  98  50  31  30  29  28  25  26  29  43  70 104 135 147 152 153 157 167 168 154 135 122 118 122 120 110  95  86  80  78  77  78  80  80  77  73  72  73  79  83  86  88  90  96 105 112 116 108  97  89  83  80  82  83  88  93  98 108 121 125 122  86  26  27  33 119 131 132 135 132 132 131 130 131 132 131 130 131 130 131 131 131 130 130 130
 138 137 136 136 136 134 122 101  38  31  30  30  28  25  28  30  48  76 121 143 156 161 165 166 172 167 148 130 125 122 122 110  93  82  76  73  70  64  65  70  73  78  72  69  70  71  81  84  86  90  99 111 121 124 113  98  83  77  72  72  72  74  83  94 106 112 116 122 117  34  26  31  85 129 132 133 134 134 132 131 132 135 133 132 130 131 130 130 130 131 130 130
 142 141 138 136 138 136 121  95  32  31  28  27  24  24  27  31  56  94 133 153 162 165 170 170 169 158 137 125 128 130 113  90  72  57  46  40  43  52  44  28  27  32  58  64  65  67  76  81  85  89 102 115 129 132 122  94  75  69  67  64  62  58  45  32  34  41  65 106 125  62  27  31  50 125 130 133 132 132 133 133 133 131 134 132 132 132 131 132 131 131 131 131
 144 145 139 138 138 137 125  93  30  31  28  26  24  26  27  38  66 112 140 156 163 166 169 170 166 152 138 133 131 108  78  44  32  34  40  47  51  57  46  26  26  24  29  50  62  65  74  82  86  90 104 121 137 144 129  98  72  64  61  54  52  59  40  29  34  32  30  61 114  89  28  30  35 103 129 133 134 133 132 133 136 133 132 133 135 133 132 133 132 131 131 132
 146 147 143 141 138 136 125  84  32  32  29  23  24  26  27  44  80 128 147 160 165 168 172 172 163 148 139 121  94  64  39  35  53  74  89  87  88  90  88  84  73  59  33  27  58  64  71  80  85  91 108 125 141 149 138 102  70  68  47  47  52  57  51  50  69  79  44  49  90 116  29  27  40  74 126 133 134 135 135 134 134 135 135 134 135 133 133 134 133 132 132 132
 146 148 144 144 141 137 124  77  33  31  28  23  24  24  28  53  97 142 153 163 166 167 171 166 153 134 106  78  66  63  75  97 105  97  92  88  90  90  90  87  83  78  78  53  56  67  72  77  85  93 111 132 150 155 146 123  85  69  59  65  68  76  83  92 105 117 119  69  70 101  55  28  42  53 122 131 133 136 136 134 133 134 134 133 135 135 135 134 134 133 133 133
 147 148 146 144 142 136 124  69  32  31  27  25  27  23  33  61 116 152 158 165 167 165 165 162 156 150 144 146 153 153 136 116 101  89  82  80  79  78  75  71  67  67  64  65  69  74  73  80  86 100 122 137 150 160 153 134 108  86  69  63  62  66  69  75  84  96 113 125 128 127  85  27  35  50  96 130 135 135 135 134 135 136 134 136 136 133 134 133 135 133 132 133
 145 145 147 143 141 134 125  65  31  31  27  27  24  25  37  72 132 156 163 165 166 164 164 166 164 164 167 169 167 160 148 127 107  89  80  77  72  70  67  65  65  67  71  79  83  81  78  82  91 114 138 150 157 164 160 144 122 106  88  65  64  64  65  70  75  82 107 131 144 146 129  27  30  56  71 128 134 134 136 136 137 137 135 136 136 134 135 134 135 134 135 134
 145 146 146 143 143 132 127  57  32  33  28  26  24  27  38  91 138 156 163 164 165 166 167 167 172 173 174 174 171 166 154 142 130 116 102  94  89  84  85  88  95  99  99 101  96  89  81  82  98 128 149 150 153 163 163 152 136 116 116 116 102  94  85  90 101 126 144 152 155 156 149  58  30  49  61 119 132 135 136 137 136 137 136 136 136 136 136 135 136 135 136 135
 145 145 145 144 145 128 129  44  30  33  31  26  26  27  42  97 138 155 161 165 166 167 166 166 169 170 172 172 169 165 160 159 152 147 141 129 124 120 123 120 117 118 112 105  98  89  84  89 113 136 145 144 152 164 169 158 148 132 116 120 126 133 135 136 140 148 156 163 163 161 153 106  29  39  58 104 129 135 136 137 137 138 137 138 138 137 137 137 136 136 136 135
 146 146 143 143 144 127 126  39  29  29  31  28  27  28  46 102 133 153 160 165 166 168 165 162 163 164 163 161 158 160 163 160 154 147 142 140 139 134 131 128 124 120 114 106  96  89  86  99 118 133 141 147 155 164 170 162 150 144 126 114 117 118 132 138 144 151 158 160 159 159 155 144  33  32  58  88 128 136 136 138 138 137 137 138 137 138 138 136 137 137 137 137
 145 144 142 141 142 128 125  34  27  27  28  27  29  32  52  98 131 148 159 161 164 166 161 159 159 159 155 151 152 152 151 147 142 138 136 137 136 134 132 130 127 122 117 109  94  89  90 104 117 126 141 157 164 164 169 170 154 148 141 122 112 113 124 131 137 143 150 154 155 153 152 148  64  33  54  72 127 134 138 138 138 137 138 139 138 136 138 138 138 138 138 138
 144 146 143 139 143 126 128  36  27  27  27  31  31  33  54  99 128 143 157 159 161 158 156 156 155 150 146 145 143 141 139 132 130 129 130 129 130 131 129 129 129 127 119 109  96  87  92 101 110 124 142 154 155 152 157 165 155 146 143 134 118 113 112 123 130 139 145 150 152 154 149 146  92  35  56  67 126 135 139 139 138 138 138 139 139 139 139 140 138 140 139 139
 146 146 145 139 140 122 128  34  26  31  33  32  32  36  55  98 126 143 152 155 156 155 153 152 152 146 142 139 136 133 130 124 124 124 124 125 128 129 129 130 130 124 118 103  88  88  93  99 111 131 143 151 154 155 155 164 159 147 139 136 125 115 110 117 123 129 138 145 148 150 148 145 118  32  61  62 118 135 137 139 138 139 141 140 140 141 140 140 139 140 139 140
 147 145 146 140 141 129 128  36  24  80  44  44  41  42  59  96 125 143 149 152 152 152 154 152 151 144 141 135 130 122 118 124 126 123 123 123 125 128 131 127 126 123 116  99  84  86  89 100 118 128 139 153 162 160 152 160 164 156 139 129 118 110 106 110 115 123 131 139 143 147 150 145 126  36  56  63 112 132 140 139 140 140 139 142 140 141 141 141 141 140 140 141
 148 148 148 145 141 134 128  32  52 104  58  55  56  60  66  93 122 139 146 148 147 152 156 153 148 145 141 131 126 124 128 128 126 124 124 123 124 124 127 127 126 121 110  96  87  85  84  97 112 122 135 146 160 155 146 154 162 154 136 110 104 100 102 106 111 118 125 133 140 144 147 145 139  39  47  64 101 134 138 140 141 141 142 142 140 142 141 142 141 142 142 142
 151 151 151 148 140 134 125  39  90  83  70  84  85  83  71  90 118 134 139 140 145 153 155 155 148 143 141 133 127 131 132 127 124 123 120 118 121 120 122 124 121 115 103  90  82  80  80 103 126 148 159 154 147 139 134 137 142 143 143  94  85  88  90  94 105 112 118 127 134 140 144 145 142  49  45  68  89 131 139 141 141 142 142 142 142 142 143 142 142 143 141 143
 152 152 152 151 143 137 128  36 102  70  73  87  84  89  74  84 114 132 137 141 147 152 156 152 146 142 138 132 134 135 128 122 122 119 116 115 113 110 112 117 113 104  91  81  73  71  86 128 155 157 153 139 127 113 109 113 122 129 135 139  79  80  83  87  95 102 110 119 129 136 139 143 143  62  45  64  87 131 140 142 142 143 142 143 141 142 144 144 143 142 142 144
 155 154 153 153 145 140 132  43 104  66  73  90 102  92  80  81 109 128 134 139 145 151 155 152 144 143 138 135 135 129 124 118 117 113 113 111 109 109 108 109 105  96  81  74  69  68 106 141 142 130 119 112 100  93  90  93 101 105 117 135 101  75  78  84  88  94 102 110 120 128 134 139 141  69  45  60  81 129 140 141 142 143 143 144 144 144 143 146 145 144 144 144
 156 155 157 154 146 142 131  44 100  67  82 138 117  73  78  81 107 127 134 138 144 151 150 145 141 138 133 132 130 122 118 115 112 106 108 106 106 106 105 104  97  86  75  71  69  74 109 122 118 107  97  91  82  78  78  81  84  87  97 118 107  75  76  80  85  88  92  99 110 119 124 129 129  76  44  60  88 121 140 142 143 144 145 145 145 146 146 147 146 146 146 145
 159 158 158 156 148 144 131  54  91  66 110 134  94  70  79  80 107 122 132 137 144 148 146 142 137 133 129 127 122 118 114 112 108 105 103 104 102 102 101  98  92  78  70  71  70  69  91  97  94  84  64  68  72  72  73  74  76  74  74  93  95  77  74  78  83  86  90  93 101 108 114 119 110  78  40  60  83 122 139 143 145 145 145 144 144 146 146 147 147 148 146 147
 161 156 160 159 153 148 135  67  73  72 118 120  89  72  89  88 104 121 128 136 143 146 143 137 132 130 123 122 118 112 109 107 105 102 100  99  97  98  97  92  83  72  71  74  73  66  72  81  74  42  37  43  53  70  70  69  63  52  61  95  98  82  74  74  79  82  87  90  95 101 108 112 118  80  40  59  87 121 141 143 146 145 147 145 146 147 147 148 146 147 148 147
 161 159 161 160 156 151 138  74  42  81 117 113  85  71 101 100 100 118 130 138 141 145 140 133 127 123 121 119 108 102 104 102 101 100  98  99  93  91  91  86  76  69  73  79  78  72  63  57  51  49  50  56  55  65  69  62  60  58  66 130 116  90  77  72  76  79  84  87  90  94 101 106 116  82  38  53  90 122 144 144 146 145 147 147 147 147 146 149 149 149 148 149
 163 161 162 160 157 155 138  75  30  82 114 109  81  72 100 111 104 118 130 139 141 140 137 129 125 119 116 110 105 101 100  98  98  98  96  95  91  89  86  78  70  72  76  79  80  78  76  70  64  60  62  64  67  69  70  67  74  79 105 128 125  99  82  75  73  77  80  84  87  92  94 101 114  85  42  52  89 126 143 144 144 147 147 148 149 148 149 148 149 148 148 148
 166 163 163 162 160 161 146  89  31  51 121 113  81  78  98 116 109 114 127 133 140 142 136 131 124 117 109 105 102  99  96  96  95  94  93  92  89  85  80  72  72  76  80  81  80  78  76  76  71  69  69  70  69  70  71  73  90 112 123 128 125 107  85  76  71  73  77  80  84  86  92 100 112  90  46  57  90 129 144 145 146 147 148 147 150 148 151 150 151 151 151 150
 166 165 165 163 161 162 148 100  31  26 103 131 108 132 139 117 107 113 124 132 139 142 138 134 126 115 108 103  99  96  96  95  93  91  91  89  86  83  77  73  75  79  79  80  80  79  76  81  82  74  73  75  76  72  71  78 101 122 127 130 131 121  92  75  69  72  76  78  82  84  90 102 113  92  45  64  85 133 144 146 147 149 149 151 152 150 151 150 151 153 152 150
 168 166 167 164 162 164 150 104  32  26  51 168 175 166 162 112 103 108 120 129 138 142 138 134 129 115 108 100  95  93  90  92  90  90  89  85  81  76  74  75  75  77  79  78  79  81  82  87  92  87  78  69  78  76  80  91 104 112 122 126 128 127 107  78  72  72  74  74  77  83  93 106 118  92  42  62  90 140 144 147 149 151 151 151 152 150 150 152 153 152 153 154
 168 167 168 166 164 164 152 100  32  25  26 114 122 118 116 106  96 104 116 127 137 140 137 135 125 114 105  98  94  93  92  91  89  88  88  83  76  74  76  78  76  78  81  81  82  83  84  88  88  87  80  73  70  74  84  89  87  91  99 108 113 116 111  84  71  69  76  76  80  84  99 111 121  97  39  62 108 142 144 147 151 151 152 152 152 153 152 153 153 153 153 154
 168 169 168 168 166 164 158  98  33  25  27  63 108 114 112 111 109 103 109 122 135 139 132 132 123 111 101  97  94  94  93  91  91  90  88  81  73  75  78  77  74  77  80  81  83  81  82  81  77  71  66  61  58  59  69  72  65  66  72  76  76  78  83  67  58  66  73  82  88  89 103 113 122  82  38  54 126 144 146 150 151 152 152 153 153 155 153 154 154 155 154 155
 169 169 169 168 169 165 158  90  37  27  26  28  96 127 123 134 129 105 102 115 129 137 136 130 123 110 100  96  95  94  94  93  92  91  87  76  75  77  76  76  78  80  79  77  75  72  65  61  60  54  55  54  53  54  62  70  66  67  58  52  54  61  46  50  49  61  67  85 102  98 109 115 122  75  33  67 139 148 145 151 152 154 153 153 153 155 156 155 156 157 158 157
 170 171 170 169 168 164 160  85  43  27  26  33  56 162 147 128 113  93  90 105 121 133 132 127 121 110 100  96  95  95  94  93  94  91  87  81  79  74  66  66  62  58  57  56  52  48  43  40  39  42  43  47  48  50  56  59  57  56  63  80 101 105  88  77  68  70  69  88 115 109 112 115 119  72  42  88 143 149 144 151 153 153 154 154 156 155 158 159 159 160 160 157
 172 173 172 170 170 167 160  84  47  28  25  30  33 100 122 103  93  66  49  74 112 124 127 123 116 109  99  95  95  95  95  95  95  92  88  84  80  72  57  46  44  47  44  46  48  52  52  53  56  55  58  65  61  60  68  85 113 132 150 137 121 109 107  99  84  78  73  88 112 113 113 112 114  57  43 104 145 148 147 152 152 154 155 156 156 156 160 158 160 163 162 160
 175 174 173 170 170 168 161  85  49  27  26  29  32  54  82  82  52  19  36  40  96 117 121 117 110 105 100  95  93  94  95  95  94  94  91  87  81  73  64  58  58  67  70  69  67  66  65  64  71  76  81  88  86  97 111 114 120 127 124 120 111 105 111 116 103  85  77  90 108 110 109 109  98  47  40 122 147 150 150 153 154 155 156 156 157 159 161 161 162 164 163 164
 176 174 175 173 172 170 163  81  50  25  28  29  30  46  39  23  18  16  21  18  63 107 113 111 107 102  99  96  94  94  93  94  93  94  91  89  84  75  73  74  73  74  76  78  78  81  77  73  73  74  78  82  84  88  91  92  93  95  97  95  97 104 113 123 116  98  87  90 105 106 106 108  70  41  44 136 149 151 152 154 156 157 156 157 159 161 160 161 162 162 162 162
 178 176 176 173 171 172 161  76  66  27  27  31  28  38  49  30  41  18  16  14  27  92 105 106 107 104  97  96  95  94  93  94  94  92  92  90  86  79  79  80  80  79  82  82  82  85  85  83  82  81  79  80  78  79  80  80  79  79  81  83  90 100 113 124 125 115  96  94 102 102 101  98  41  36  61 142 152 153 154 155 154 155 155 159 161 160 159 162 160 160 163 161
 178 178 176 174 171 174 162  73  67  29  29  33  31  36  47  38  80  15  14  13  16  59  98  98 102 100  96  94  93  92  92  91  92  92  92  91  88  82  81  82  84  83  85  85  84  82  81  83  81  81  80  79  77  77  74  73  74  75  77  80  84  96 118 128 128 122 104  98  98  97  97  66  37  31  75 144 153 155 154 155 155 156 156 157 159 157 161 161 160 160 161 160
 177 176 176 173 170 171 159  69  68  35  36  34  35  41  49  48  50  14  12  11  14  22  82  91  94  97  96  94  93  92  93  91  90  92  90  89  87  84  83  84  83  84  84  84  83  84  83  82  78  80  78  76  73  74  73  74  73  74  77  82  91 106 122 129 129 125 111 102  95  95  91  40  36  30  98 146 152 154 154 157 156 156 157 157 160 160 158 160 160 160 163 160
 177 176 176 174 171 168 159  68  64  41  46  34  40  46  46  39  22  15  12  11  11  14  44  85  88  91  93  92  92  91  93  91  91  88  88  90  87  86  85  83  84  85  84  83  80  82  83  81  80  78  76  75  72  72  72  73  74  78  83  93 104 115 126 130 132 127 113 103  96  94  60  29  32  29 108 147 153 154 155 158 158 158 158 158 158 159 159 161 160 159 160 159
 178 176 175 173 171 168 158  67  67  46  44  33  45  47  48  39  18  13  12  11  11  12  16  60  81  84  88  88  88  88  91  88  88  86  86  88  87  88  89  83  84  86  85  83  81  81  83  82  79  77  77  75  73  73  72  72  78  87 101 112 121 125 129 132 131 126 115 104  98  90  28  23  28  30 126 147 153 155 155 156 159 160 159 160 159 159 162 160 161 159 160 160
 178 177 176 172 175 168 156  72  84  52  43  35  50  41  49  42  18  13  12  11  10  10  12  22  69  78  81  84  86  85  86  85  84  84  86  87  88  86  88  88  85  85  84  84  83  83  80  79  81  77  76  75  74  75  77  84  99 116 126 131 132 131 132 131 127 124 114 106  99  59  25  20  31  35 134 149 154 153 155 158 159 160 159 159 161 159 160 160 161 161 161 159
 177 177 175 174 175 171 151  76  85  56  45  37  52  42  51  43  17  14  12  12  10  10  11  11  33  69  75  79  83  84  85  84  85  84  85  87  86  87  89  90  89  88  85  82  83  84  82  82  83  81  80  80  80  87  96 110 121 127 137 138 135 133 134 132 128 123 113 107  94  30  22  21  32  46 135 153 155 156 158 159 160 159 161 160 161 160 159 162 163 162 161 162
 178 177 177 175 175 173 154  80  90  67  53  38  47  44  48  42  18  15  14  11  11  10  10  11  13  44  69  75  78  83  82  84  85  85  84  85  87  86  89  90  90  90  86  85  82  83  83  83  84  84  83  84  86  93 102 110 118 124 133 134 132 132 134 131 128 122 112 105  60  28  23  22  36  52 139 155 156 158 160 160 159 159 161 161 160 162 161 161 163 163 161 164
 180 178 174 175 177 172 161  80  81  74  59  44  43  43  44  38  17  15  16  12  11  10  10   9  11  22  54  68  72  77  80  83  84  86  84  85  86  87  88  88  90  90  89  86  85  85  82  81  84  85  82  85  87  90  94  99 104 105 115 119 121 126 131 130 129 120 112  93  28  26  24  23  43  51 141 154 156 158 159 160 159 161 161 161 162 161 161 161 161 162 163 164
 180 180 176 174 176 174 162  92  86  74  59  57  40  38  43  36  18  14  13  11  11  10  10  10  11  14  36  53  68  72  78  81  83  86  86  85  86  87  86  85  88  88  88  87  86  86  84  83  84  84  85  85  86  83  86  88  92  95  99 106 113 121 126 129 126 118 108  48  25  24  24  24  43  57 143 151 156 157 160 161 161 162 162 161 162 162 163 164 162 165 164 165
 180 179 177 176 175 174 158  98  84  94  68  52  36  36  40  33  17  12  11  10  11  11  10  10  10  11  28  40  51  66  71  78  80  84  86  86  84  85  85  85  86  89  89  86  88  85  83  85  85  83  85  84  83  79  81  80  83  85  91 102 109 116 124 126 122 111  77  23  20  21  25  27  42  54 141 152 157 160 161 163 164 164 164 163 164 163 164 164 164 164 165 164
 181 179 177 178 176 172 161 102  84  99  64  51  35  34  38  30  17  12  11  11  11  10   9   9  10  10  21  37  40  49  62  70  76  80  81  84  85  83  84  84  85  86  87  84  87  87  86  85  86  83  81  80  76  76  77  75  79  87  92  97 106 112 119 119 116  99  33  18  15  18  22  28  45  55 137 152 156 160 162 165 165 165 164 165 164 165 166 165 164 165 164 165
 183 178 177 179 174 172 160 101  91 107  61  38  33  35  35  28  15  12  11  11  12  12  10  10  10  10  15  33  38  40  48  60  68  74  78  80  83  82  84  82  85  86  85  86  86  88  86  87  84  84  82  79  75  73  74  76  79  83  88  94 103 109 111 111 104  59  23  14  14  16  19  30  46  61 146 149 155 159 163 163 164 165 165 165 165 167 166 166 165 168 165 164
 182 178 178 180 176 172 163 111  79 112  52  39  34  36  33  26  14  12  10  10  13  13  11   9   9  10  12  28  38  39  41  48  55  64  71  74  78  79  82  81  82  83  86  85  85  86  86  86  85  83  81  79  74  75  76  75  75  76  81  89  96 101  99  96  74  28  20  12  12  15  17  26  42  59 133 153 154 160 164 166 165 164 166 167 166 167 166 167 167 167 166 166
 181 178 182 178 177 170 163 127  88 106  47  39  34  34  30  28  15  11  10  10  14  16  12   9  10   9  10  22  36  41  41  42  48  51  58  64  70  74  78  79  79  81  82  83  84  84  83  83  83  80  81  78  78  76  74  72  73  74  78  82  86  89  85  76  36  19  16  12  12  13  17  23  39  57 123 151 154 156 162 163 164 165 167 167 168 166 166 167 166 165 167 165
 182 178 183 181 179 173 164 130  86  94  43  34  30  30  26  26  14  11  10  11  15  21  15  10   9   9  10  17  32  40  42  38  40  46  50  54  60  68  71  71  75  78  79  78  84  82  82  83  83  79  77  74  75  75  74  72  72  72  73  75  76  72  64  45  27  13  14  12  11  12  15  21  30  46 112 149 155 154 162 164 164 165 166 167 166 166 165 168 166 165 166 165
 178 179 182 180 179 175 166 135  81  72  42  31  28  26  25  22  13  11  10  10  17  24  20  12   9   8  10  14  28  38  43  43  40  43  47  49  52  55  60  66  68  72  72  74  77  76  78  78  77  77  74  73  70  72  70  68  67  64  66  65  63  54  31  29  19  11  14  12  12  11  14  19  26  46  82 131 151 155 160 163 165 164 164 167 166 166 166 166 166 166 166 165
 180 179 179 181 180 172 168 141  86  63  40  29  27  24  21  23  12  10   9  10  19  24  24  11  13  10  10  12  24  34  42  45  40  38  42  46  49  51  51  52  57  61  66  66  69  70  71  72  70  69  71  69  65  65  61  59  59  57  56  49  37  18  17  21  13  11  12  12  11  11  12  16  21  31  89  97 138 151 160 164 164 164 166 165 167 165 166 164 166 167 166 166
 181 182 180 180 178 173 171 145  80  53  43  27  24  21  18  19  11   9   8  10  18  25  24  12  14  12  10   9  19  30  38  44  44  40  40  41  44  48  49  49  50  54  55  57  60  59  60  61  61  61  62  60  56  56  54  51  47  40  31  20  12  12  13  16  12  11  10  11  11  12  11  15  17  24  64  84 107 144 157 162 163 163 165 165 166 165 166 165 167 166 166 165
 181 180 180 179 176 172 166 145  69  55  40  26  23  19  17  16  11   9   9  10  16  20  24  11  10  12  11   9  14  23  33  41  45  44  41  38  40  42  43  45  47  50  48  48  50  49  49  48  50  48  49  45  43  39  34  27  23  18  15  12  12  12  12  13  10  10   9  10  11  11  11  12  16  22  39  84  94 125 148 162 163 164 164 166 166 166 165 165 165 165 164 164
 179 180 177 179 177 172 157 119  64  50  27  26  20  17  17  12  11   9   9  10  14  16  21  12   9  11  13   9  11  20  27  35  41  45  45  42  39  41  45  45  45  47  48  46  46  44  45  44  43  39  38  35  30  26  20  19  18  15  12  11  11  11  12  11  10   9   9  10  10  11  11  13  17  19  32  58  86 104 130 153 162 165 164 163 165 165 165 165 163 163 163 164
 175 177 180 177 173 166 136 101  53  37  26  25  18  15  16  13  10   8   8  11  12  12  15  12   9  10  16  10   8  15  23  30  36  43  44  44  41  42  44  45  45  46  44  44  43  40  42  39  37  34  31  29  26  23  18  17  15  13  12  11  10  11  12  10   9   9   9   9  10  10  11  14  17  21  24  23  33  54  75 104 112 107 115 150 164 165 166 159 151 156 159 160
 180 177 173 167 162 143 117  85  57  33  27  20  17  14  15  11  10   9   9  12  11  12  14  11   9  10  12  15   9  11  16  25  30  36  39  43  44  45  46  46  45  47  44  44  42  40  39  38  36  34  31  27  24  19  17  16  13  12  10  10  10   9  10   9   8   8   9   9   9  11  11  14  18  18  17  20  23  23  20  25  24  24  26  22  39  65  64  66  82 108 140 156
 179 176 175 173 160 146 131  95  49  30  23  18  16  14  17  10   9   9   9  13  10  13  11  11  10   9  10  14  15  10  15  20  26  30  36  39  43  44  46  46  48  50  47  46  43  42  39  38  37  34  29  25  20  18  16  12  11  11  10  10  10  10  10   9   9   8  10  10  10  12  12  13  15  14  16  16  18  20  19  20  17  17  19  19  20  24  23  26  38  97 147 161
 174 172 167 160 155 150 113  80  42  29  22  20  15  12  13  10   9   9   9  13   9  10  12  10   9   8   8  10  15  14  13  17  23  26  31  36  38  39  42  44  45  47  45  44  42  40  37  36  32  28  26  22  18  15  13  11  10  10   9   9  10  11   9   9   9   8  10   9  12  10  12  12  13  12  13  12  16  17  17  18  19  19  18  18  18  19  19  22  25  43  86 121
 171 170 168 165 156 137 111  70  37  24  23  18  15  13  13  11   9  10  10  12   9  10  12  10   9   8   7   8   9  16  16  16  19  22  26  30  34  34  36  37  38  38  39  37  35  34  31  30  28  24  20  15  13  11  11  10   8  10   9   9   9  10   9   8   9   8   9  10  13  10  12  12  13  12  12  13  13  14  16  16  16  16  18  16  16  17  18  19  24  26  28  30
 175 173 169 164 158 135 105  64  33  25  25  19  15  14  11   9   9  10  10  11  10  11  11  10  10   8   7   8   9  10  13  17  18  17  22  24  26  28  29  29  31  30  30  31  29  27  25  25  21  18  15  12  10   8   9   8   8   9   9   9  10   9   8   9   8   8   9   7  12  11  12  12  12  11  13  11  11  13  14  16  17  15  15  15  16  16  16  17  20  20  22  26
 172 169 168 158 143 124  71  50  31  29  22  17  13  15  12  10   9   9  10  10   9  11  11  11  10   8   8   8   8  10   9  10  14  15  17  21  22  22  24  24  24  25  23  22  22  21  17  15  13  12   9   9   9   7   8   8   8   9   9   9  10   8   8   8   8   8   9   8  10  11  13  13  12  10   9  10  11  12  12  14  15  15  15  15  15  15  16  16  17  18  20  23
 172 169 157 140 114  86  61  36  30  29  22  18  14  14  12  10   9  10  10  10   9  10  11  10  10   8   7   7   8   9   8   7   9   8  10  13  14  14  13  15  15  14  14  14  12  10  11  11  10   9   8   8   8   8   8   8   8   9   9   9   9   9   8   8   8   8   8  10  12  12  11  13  12  11   9   8  11  10  11  11  13  13  14  14  14  14  15  15  17  17  19  21
 162 101  70  50  35  41  35  30  30  25  22  16  14  15  11  11  10   9  10   9   9  11  12  12  11   9   8   8   8   9   8   8   9   8   9   8   8   9  10   9  10   9   9  10   9   9  10   9  10   8   8   8   7   8   8   8   8   9   9   9   9   8   8   8   8   9  10  12  13  10  12  14  10  10   9   9  10   9  10  10  11  11  14  12  14  12  13  14  14  16  17  19
  49  41  34  31  31  32  31  30  28  25  22  16  13  13  10   8   9   9  10   8   9  10  10  12  12   9   8   8   8   7   8   9   8   8   8   8   8   8   9   9   8   8   8   8   8   9   9   8   9   8   8   8   8   9   8   8   8   9   9   9   9   8   8   9   9   9  11  12  11  12  12  14  11  11  10   9  10   8   9   9  10  11  14  12  12  12  12  12  13  14  17  19
  33  31  30  30  28  29  27  28  26  25  19  15  13  13  10   8   8   9  10   8   9   9  10  11  11  10   8   8   8   7   8   9   8   8   7   9   8   8   7   8   8   8   8   8   9   9   9   9   9   8   8   8   7   9   8   9   8   9   8   9   8   6   8   8   9  10  13  12  13  13  13  13  11  12  11   9   9   8   9   9   9  10  12  12  12  12  12  11  12  14  18  20
  31  29  30  28  26  28  27  26  25  22  20  16  14  11   9   8   9   9  10   9   7   8  10  11  10  10   7   8   8   7   7   9   8   8   8   8   9   8   7   8   8   8   8   9   8   8   9   9   9   8   8   8   8   9   8   9   9   9   8   7   7   7   7   8   8  11  11  12  13  12  13  13  10  12  11  10   8   8   9  10  10  10  11  11  11  10  11  11  12  13  16  18
