P2
# Generated by OpenCV 3.4.0
92 112
255
 112 112 113 112 113 114 116 115 115 116 116 116 115 116 117 117 115 117 117 117 118 120 116 117 116 118 119 118 117 120 121 119 120 120 119 121 121 122 121 119 119 122 120 118 119 121 122 122 120 122 121 120 118 119 119 119 119 121 121 121 121 119 120 118 120 121 121 119 120 119 121 120 122 122 121 120 118 119 120 118 118 118 117 118 115 117 118 118 118 116 117 116
 113 112 114 114 115 114 116 116 116 116 115 116 116 117 118 116 117 120 117 119 120 118 119 121 118 120 121 118 119 118 117 116 119 119 118 122 121 122 122 122 121 120 120 118 120 122 122 122 119 121 118 116 117 121 118 117 121 122 122 121 121 122 121 120 120 120 121 120 120 120 122 120 122 122 121 120 121 119 120 120 118 120 119 119 119 118 118 118 119 117 118 117
 110 113 115 114 114 116 116 115 116 117 116 117 117 117 118 117 118 119 120 119 120 120 120 120 120 119 120 119 122 122 119 120 118 114 117 122 117 120 122 123 122 122 119 120 122 120 119 119 112 108 109 113 115 108 104 102 104 108 114 120 119 121 119 120 119 117 119 122 121 122 122 122 121 121 120 122 122 122 122 121 120 120 121 118 119 120 118 120 119 117 117 118
 114 115 114 115 116 117 117 115 117 117 117 116 116 118 116 118 117 118 121 119 119 119 118 118 121 121 121 121 121 120 120 122 120 116 117 120 116 118 123 120 118 115 116 118 113 101  90  79  71  68  64  55  44  52  58  59  61  64  77  90 103 110 111 115 117 118 122 121 122 122 122 121 123 122 122 122 122 122 121 120 120 120 121 121 120 119 119 118 118 118 118 118
 113 116 114 115 116 115 117 116 116 117 118 116 117 116 117 119 117 120 120 121 119 119 117 119 121 120 122 122 120 117 121 120 116 117 115 114 114 117 120  94 104 102  88  78  63  55  51  48  47  40  38  37  37  38  38  37  38  38  43  48  50  70  85 105 117 119 120 122 122 122 122 122 122 122 122 123 123 123 123 122 123 121 121 121 120 122 121 120 119 119 119 119
 115 115 114 114 115 115 115 117 117 119 118 118 118 118 118 117 119 120 121 120 118 117 117 119 121 122 121 122 119 119 117 109  86  99  90 100  70 105  76  69  76  71  67  61  61  61  54  47  41  34  34  35  37  38  34  32  33  34  35  38  44  52  57  62  82 112 115 118 118 123 122 122 123 123 122 123 123 122 122 122 122 123 123 122 121 120 121 122 120 118 119 120
 115 114 114 114 114 115 116 116 117 118 118 120 118 118 120 118 118 119 121 121 116 117 120 120 119 119 120 121 117 116 115  90  96  78  65  78  64  84  82  79  74  69  58  60  55  52  46  41  39  35  34  32  34  31  29  28  27  26  27  30  33  35  41  53  61  62 104 116 120 120 122 123 123 123 122 122 122 121 122 123 123 121 123 122 122 121 121 121 120 120 120 119
 113 116 116 116 116 114 115 117 118 119 118 120 119 118 118 119 122 119 122 120 117 122 121 120 119 120 119 118 113 118 116  90  76  62  76  77  69  69  74  66  60  51  48  47  44  44  39  36  35  33  31  31  30  28  27  24  24  23  25  29  28  30  32  35  51  61  71 106 113 119 120 121 124 122 124 124 122 121 122 122 123 123 123 122 122 123 121 122 122 122 121 121
 116 116 116 115 115 116 117 115 117 116 116 118 118 118 119 119 118 120 118 116 118 117 114 112 111 112 102 100 104 113 109  91  64  56  57  51  56  59  55  55  58  56  52  48  46  45  38  35  34  31  31  29  29  25  25  23  23  23  23  25  25  26  26  28  36  42  45  95 106 111 119 122 124 123 124 124 124 124 123 123 124 123 124 123 123 122 122 123 121 120 120 121
 115 116 115 115 117 118 118 116 115 117 117 118 118 117 116 118 115 119 115 118 117 115 115 116 114  82  50  76  88  92  79  74  51  46  42  39  34  37  45  54  57  50  53  50  44  38  33  30  30  30  30  31  28  26  24  23  23  22  21  23  25  25  24  25  28  32  40  70 103 109 112 119 123 123 124 124 125 124 124 123 124 124 124 122 123 124 122 123 123 123 122 120
  80  94 106 112 117 116 115 116 117 115 116 116 120 119 119 120 115 108 113 118 118 119 118 114  98  39  79  98  69  66  53  45  37  36  35  33  33  35  44  49  47  49  46  38  41  36  33  31  31  32  29  29  26  26  26  24  24  22  24  23  24  26  28  28  28  31  30  41  63 108 117 117 120 122 124 124 125 124 125 123 124 124 123 124 123 123 123 122 122 124 122 121
  82  66  55  52  51  58  65  79  91 103 111 116 114 117 117 117 113 114 116 114 110 108 107 104  51  66 106  92  73  52  39  32  32  33  37  45  60  56  47  44  40  35  36  36  36  31  29  28  26  27  26  27  26  25  25  25  23  24  25  24  25  24  24  25  27  32  28  27  37  75 112 118 120 124 124 125 125 125 124 124 125 125 124 122 124 124 124 122 123 123 122 121
 115 114 115 115 113 111 102  89  76  68  53  54  59  71  90  99 108 114 115 113 113 110 108  92  37  89  86  82  64  42  32  30  29  30  38  45  51  51  47  39  37  36  34  33  30  29  28  28  28  26  25  24  23  24  24  23  22  23  23  24  25  25  25  25  26  27  36  34  29  50  90 115 118 122 124 127 126 124 125 124 124 123 124 125 123 124 125 124 122 122 122 121
 117 116 116 116 116 118 117 116 118 118 118 115 107  91  82  71  60  70  81  88  79  80  76  57  57  78  77  54  44  35  33  29  33  38  45  44  48  50  51  46  39  34  34  34  35  38  39  37  38  39  37  37  34  33  33  29  27  24  23  22  22  24  26  28  28  27  32  46  32  35  56 102 117 122 124 124 124 124 124 124 124 124 124 123 123 124 124 123 124 124 124 123
 115 118 118 119 117 118 117 118 117 121 120 119 118 113 114 109 107  94  73  61  53  62  69  41  53  70  52  39  30  29  38  43  39  37  43  48  49  49  46  40  38  39  40  45  49  51  54  53  54  54  57  55  56  59  59  57  56  43  26  26  22  23  22  23  28  26  26  34  45  31  40  79 110 119 120 124 125 124 125 124 123 124 123 123 124 122 123 123 123 123 121 122
 115 116 115 117 117 116 117 117 117 120 120 118 116 114 112 106 102  91  74  69  63  51  43  45  65  57  38  32  37  38  42  50  48  51  52  61  69  70  66  68  66  62  65  65  71  75  79  83  83  81  80  79  82  85  89  90  93  93  83  50  36  25  24  21  23  26  26  26  40  46  31  48  92 112 121 122 123 124 124 122 123 123 124 124 123 123 123 122 122 122 122 119
 117 117 116 118 117 116 116 117 118 118 117 116 114 111 105  96  95  75  71  59  43  33  41  58  66  43  41  42  44  48  49  60  66  67  78  85  93  98 104 107 109 106 108 101 100  98  99  97  96  98  99 103 106 111 114 114 120 124 121 116 101  52  32  26  23  25  26  27  28  48  44  31  65 103 117 121 122 122 122 122 121 122 120 122 123 120 120 120 120 119 121 116
 116 115 116 116 116 116 117 118 117 117 117 114 112 102  91  90  82  86  53  35  30  39  57  65  53  42  38  36  42  49  66  74  98 113 123 123 119 122 120 126 127 130 128 127 126 120 116 116 114 117 118 121 123 125 128 129 133 138 140 144 138 122  88  57  30  29  27  25  29  29  49  26  43  79  99 104 104 104 100  97  96  92  89  87  86  85  77  79  79  78  76  74
 116 114 117 114 109 116 116 116 115 116 115 112  99  87  84  87  79  59  34  30  39  66  58  51  44  38  34  37  44  55  70  85 112 131 147 145 147 140 130 134 137 132 136 135 136 134 133 136 138 134 134 134 134 136 132 134 138 144 149 155 158 156 151 125  88  43  32  29  24  29  33  30  28  49  68  76  81  82  87  88  92  91  95  95  96  97  98 102 102 102 103 100
 112 112 110 108  98 107 108 107 106 105 104  94  77  78  72  73  56  38  32  36  69  56  51  41  51  35  36  42  50  65  79  90 108 143 148 156 159 159 154 148 151 152 155 151 152 153 150 148 145 144 143 144 140 138 140 141 144 145 151 158 165 164 164 163 149 125  83  40  29  24  26  32  30  41  72 100 109 111 114 115 116 115 116 117 116 116 117 117 118 120 118 117
  72  73  74  76  71  75  71  74  73  76  74  69  61  69  68  56  43  41  47  64  52  46  41  57  48  45  50  55  57  74  90 124 142 172 172 175 177 177 176 174 178 178 178 169 163 162 158 152 149 147 143 139 139 143 144 143 143 147 149 157 164 168 170 171 166 156 145 115  53  29  24  28  29  29  60  99 113 120 124 124 125 122 123 123 123 124 123 122 122 121 120 120
 104 106 107 106 105 108 108 111 111 106  97  76  70  80  64  46  42  60  57  51  44  39  49  52  54  54  60  63  66  89 112 159 177 187 183 188 189 195 196 194 190 189 182 174 164 160 155 148 143 139 133 134 138 139 142 140 141 143 147 152 159 166 170 170 168 166 163 154 139  70  29  25  29  26  44  82 110 118 124 124 125 125 124 123 124 124 123 123 122 123 123 121
 117 117 118 119 120 117 119 119 118 108  91  72  69  76  57  48  64  65  48  42  40  38  58  49  64  59  71  73  75 117 141 178 193 195 194 195 195 201 200 197 193 184 174 167 158 151 144 139 132 129 128 128 129 131 133 134 136 139 140 149 156 166 169 170 169 171 171 167 160 146  73  28  29  30  27  63 105 116 123 125 126 125 124 123 124 124 124 122 122 123 123 120
 118 117 119 118 121 121 122 120 117 107  77  55  72  63  47  60  74  48  39  35  38  50  56  64  66  58  72  91  99 124 159 185 196 200 194 195 196 200 194 189 187 179 165 154 151 141 138 132 125 122 119 120 121 124 126 127 129 130 129 106 142 159 163 169 170 171 169 166 164 157 145  65  31  30  26  42  86 114 124 124 124 124 125 124 124 124 124 123 122 122 123 123
 118 119 119 119 123 120 120 119 114  96  60  61  68  46  48  60  51  38  34  31  48  59  66  67  59  62  70  98 120 144 174 186 195 195 196 197 197 193 185 178 172 163 156 150 143 135 129 122 118 115 111 115 116 117 121 121 125 127 123 108 127 147 158 166 165 167 163 161 165 161 152 135  48  31  26  34  72 104 122 125 124 125 126 124 124 125 124 124 122 123 123 122
 120 121 121 121 122 121 122 120 107  76  53  70  53  44  60  50  36  34  29  43  58  73  74  60  53  64  77  92 134 146 166 182 186 187 190 188 191 185 180 172 166 157 151 144 137 130 124 117 113 109 107 108 108 111 114 119 120 122 126 127 132 141 148 156 161 162 161 163 163 159 154 144 115  36  27  29  52  92 121 125 124 126 124 124 124 126 125 124 124 123 124 121
 122 124 123 122 123 123 123 119  96  65  66  67  38  45  48  35  31  26  32  52  60  64  67  60  58  71  94 100 141 152 170 179 175 174 181 185 186 181 174 164 159 150 145 136 131 126 119 111 107 104 105 104 106 108 110 114 118 122 127 129 134 140 147 151 153 156 156 156 156 157 153 144 137  76  30  26  40  82 117 125 124 127 125 124 124 126 125 124 124 122 123 122
 123 123 123 124 123 122 121 116  79  54  71  48  32  41  36  31  29  28  39  63  65  61  62  68  58  94 103 106 141 160 168 168 170 172 174 174 171 170 165 158 152 147 138 129 125 118 114 112 106 104 104 104 104 108 109 111 117 123 127 132 136 139 146 150 153 153 155 155 154 153 153 148 141 125  38  27  34  64 112 124 125 126 125 126 125 125 126 123 123 124 125 124
 123 123 123 124 123 120 122 111  58  56  65  29  33  35  29  30  31  38  57  67  60  56  56  65  59  99 108 113 128 152 162 160 159 168 170 166 164 160 156 147 143 139 131 125 124 118 117 109 105 105 105 103 104 108 109 110 114 122 124 130 135 141 143 148 150 150 152 159 156 152 151 149 144 134  84  32  33  49 101 124 126 124 125 127 126 125 126 125 126 124 124 124
 124 124 124 124 124 122 123  97  43  71  48  28  33  29  29  28  33  47  71  54  55  52  57  58  62  97 112 116 121 144 154 156 155 157 157 156 152 152 146 144 140 136 129 126 124 119 113 109 106 104 102 102 104 106 110 108 112 118 120 126 129 132 137 144 144 146 149 155 158 156 151 150 144 141 127  43  31  43  89 124 124 124 125 126 125 124 124 126 126 124 124 123
 123 123 124 124 123 122 118  76  49  56  34  29  29  27  28  26  35  55  57  41  47  49  51  53  65  92 102 114 119 137 144 147 145 149 149 147 145 144 143 140 137 133 128 125 123 119 113 111 108 107 106 107 107 106 105 107 110 112 118 119 124 127 131 135 139 141 145 151 153 159 154 149 145 142 136  79  30  33  70 122 125 128 126 126 126 126 126 125 126 125 124 123
 124 123 124 124 123 124 112  55  62  47  28  30  28  28  24  25  41  58  46  38  37  43  47  51  68  84  96 110 116 133 142 143 144 144 144 141 141 142 142 140 136 130 128 124 121 118 113 111 111 111 110 106 105 105 103 103 105 108 110 113 118 124 124 128 132 135 136 142 148 153 154 150 148 145 139 122  37  38  59 117 127 126 126 125 126 126 125 125 124 125 123 123
 124 124 124 124 123 122 106  46  61  45  26  28  26  27  23  28  44  50  40  36  31  40  46  50  67  83  95 114 116 129 132 135 138 140 139 140 141 143 144 142 138 134 130 133 126 123 119 118 112 108 104 103 102  99  98  99 103 102 105 107 111 114 120 124 126 129 131 134 139 142 149 149 149 145 141 135  67  36  42 111 125 126 127 128 127 124 124 124 125 126 123 124
 126 125 124 123 124 120  92  45  73  27  26  28  26  26  22  33  48  42  29  32  28  37  46  46  64  82  95 111 117 124 126 132 136 136 136 136 136 142 138 141 138 136 134 132 126 124 120 114 110 107 102 102  99  96  94  93  97  97  98 102 106 109 115 119 124 126 127 130 132 136 140 144 146 147 144 140 114  35  41 102 123 126 126 126 127 125 125 124 125 124 125 125
 125 124 124 124 124 118  83  57  66  27  26  25  26  25  26  39  38  32  27  28  31  41  44  43  61  80  95 107 118 125 127 130 132 132 132 135 137 138 141 140 140 136 134 130 125 118 110 105 101  99  98  96  96  95  93  93  93  93  96  96 100 105 110 115 121 123 124 124 128 129 134 138 143 144 144 142 133  57  39  85 123 126 127 126 126 126 127 125 125 125 126 125
 126 126 125 126 123 116  71  54  54  27  27  25  25  25  27  33  31  26  27  29  33  36  40  43  61  79  95 110 121 123 126 126 128 128 130 134 133 137 142 141 140 134 130 123 115 107 102  93  89  88  85  87  85  88  91  91  91  92  92  93  97 101 105 111 117 120 123 125 126 126 129 131 135 138 141 142 136  91  42  74 122 126 126 127 127 128 128 126 124 126 125 126
 126 125 125 125 122 107  59  54  37  26  25  25  26  24  28  30  29  24  28  28  30  34  36  45  63  79  95 113 117 123 123 121 123 128 131 136 137 142 142 139 137 129 120 110 103  97  89  84  80  77  72  73  71  71  74  77  84  89  89  90  93  95 101 108 113 117 118 121 124 123 125 126 128 134 137 138 139 126  42  67 121 126 126 127 127 126 126 127 126 126 127 126
 128 125 127 125 123 100  55  56  31  26  26  26  26  24  26  28  24  23  27  25  29  34  38  50  65  77 100 114 121 123 123 123 125 131 135 140 138 138 140 137 133 124 111 101  92  84  82  79  74  69  65  63  63  60  62  65  70  78  81  86  87  88  98 105 109 114 115 119 122 120 118 120 121 128 132 135 139 133  66  57 117 126 126 128 126 127 127 126 126 126 124 126
 127 126 127 123 123  92  43  48  26  26  25  28  26  25  27  27  23  24  25  24  28  31  40  56  67  84 103 117 120 126 124 123 125 132 137 138 136 135 133 123 122 116 104  94  86  78  74  72  66  58  56  58  58  61  58  60  65  70  75  81  82  87  93  99 106 110 115 115 116 115 112 110 106 109 110 115 126 130  89  50 118 126 128 127 127 126 126 127 125 126 125 125
 127 127 126 124 118  92  40  41  25  25  25  26  26  24  25  25  24  22  23  25  28  31  49  60  70  90 113 118 120 121 122 125 130 137 142 141 139 132 125 118 115 106  93  86  81  79  77  74  72  70  68  64  62  60  62  63  67  71  72  77  80  84  89  96 100 107 110 111 111 107 100  91  82  81  87  94 101 112 106  49 115 125 127 127 128 126 126 126 127 127 127 126
 127 127 124 128 112  93  39  38  25  24  25  25  26  25  26  22  24  24  23  24  28  37  57  64  76 102 123 125 122 122 126 131 135 139 140 141 142 132 122 117 107  96  90  83  82  82  80  77  77  77  75  72  70  67  66  69  70  72  73  75  79  85  89  92  95 101 106 108 105  98  87  77  71  68  74  80  95 103 107  60 111 126 126 128 129 128 127 127 125 126 127 126
 127 126 125 126 106  84  38  30  26  24  25  26  24  25  27  23  23  23  24  28  31  44  60  70  89 113 129 122 126 127 127 134 137 143 145 142 138 125 116 108  98  92  88  84  84  82  81  79  77  76  78  76  71  68  69  73  74  76  76  78  82  87  90  92  95  98 102 104 103  91  80  73  67  67  73  75  80  89 103  82 105 125 127 128 127 127 129 127 127 127 127 126
 128 126 128 124 102  77  32  26  24  25  25  26  23  25  25  22  20  23  25  29  34  49  64  79 103 123 133 129 137 132 129 137 143 147 145 141 129 117 104  98  91  87  85  83  82  83  81  81  79  79  78  78  74  70  67  70  74  78  78  80  84  86  88  90  93  97 103 103 101  90  81  77  73  76  82  83  88  91 102  94  92 125 127 128 128 128 128 125 127 127 128 126
 128 125 126 123 102  67  30  24  24  25  27  24  24  26  22  21  21  24  25  28  39  54  73  94 115 127 136 142 149 144 138 148 147 147 142 132 118 106  97  89  88  84  80  81  80  78  77  74  72  74  75  74  73  71  69  70  70  75  80  82  84  84  87  89  93  98 105 105  98  90  84  85  84  87  96 104 105 104 108 103  88 124 129 128 128 128 128 126 126 127 127 127
 127 128 127 122 103  54  28  24  24  26  28  23  27  24  20  19  23  25  27  34  47  62  81 108 124 136 144 151 152 153 160 153 146 141 132 120 109  98  91  86  84  82  78  76  74  72  71  75  78  80  85  83  79  73  69  69  70  75  78  82  85  85  86  90  95 102 108 105  98  93  87  88  90  94 105 118 124 121 118 115  91 123 129 129 129 128 129 128 129 127 129 128
 129 131 129 116 108  53  29  24  24  25  26  25  25  20  20  19  24  24  27  40  55  72  94 122 135 144 152 156 155 157 158 148 142 133 122 109 100  92  86  83  80  76  74  71  71  69  65  59  54  54  56  64  72  76  70  68  70  71  75  80  83  86  88  90 100 107 113 110 100  94  88  86  87  89  96 104 112 120 122 118  84 118 129 130 129 129 129 129 129 130 128 128
 134 132 130 117 112  56  26  25  24  28  26  25  23  20  21  22  24  23  31  48  66  84 108 129 137 148 156 159 156 154 154 146 137 127 113 100  90  85  82  80  77  72  69  63  52  45  43  48  53  62  55  31  27  38  59  66  68  67  72  78  82  85  88  92 106 116 121 116 101  88  82  81  80  79  84  96 105 111 114 115  80 109 128 129 129 131 130 129 129 128 129 129
 139 135 132 116 111  48  27  24  22  25  25  25  22  20  21  21  21  26  37  57  75  98 124 137 144 152 159 160 159 155 154 145 133 120 106  94  86  83  78  74  68  58  45  37  42  56  68  73  76  84  71  31  26  25  32  63  64  65  70  75  80  85  88  94 110 126 132 122 100  82  76  72  72  79  84  78  78  78  89 106  77  97 127 130 129 130 130 130 130 130 130 130
 143 139 136 111 110  45  27  24  24  27  25  24  19  20  24  20  22  28  44  62  86 114 134 140 150 155 159 162 159 158 152 144 130 114  99  88  82  78  71  61  47  36  32  38  47  57  67  73  76  85  72  31  29  31  23  40  63  64  68  77  81  84  91 101 117 133 141 130 103  76  71  69  68  64  57  42  28  34  28  55  66  88 125 130 131 131 131 131 130 129 130 130
 144 143 139 114 112  36  25  25  24  27  24  22  23  21  18  18  22  32  49  69  99 127 140 149 155 158 160 161 159 160 158 145 130 112  96  86  77  69  57  49  43  44  50  57  62  64  65  71  77  79  74  41  24  23  24  26  62  62  68  77  81  85  89 103 120 138 150 138 103  75  67  65  68  73  80  62  42  34  30  55  56  71 121 129 129 131 131 130 131 131 130 131
 142 142 135 118 105  36  24  25  23  28  25  24  23  18  18  20  23  36  54  79 112 137 149 153 157 159 161 161 160 162 157 149 134 117 100  88  77  67  62  57  61  69  77  81  82  86  88  95 104 119 123 108  91  67  36  24  57  65  69  75  81  85  93 106 127 146 159 149 110  79  74  63  70  79  83  62  33  32  32  64  57  57 120 129 131 132 131 131 132 132 131 130
 140 144 130 122 101  37  24  23  21  26  25  23  21  18  20  20  27  38  58  89 122 140 148 158 160 161 161 163 164 164 160 156 144 130 122 112 103 101 100  98  92  88  86  82  81  82  82  85  90  95  96  93  88  83  82  63  65  70  70  74  81  86  94 104 123 147 164 157 126  89  77  57  66  73  80  82  68  66  50  63  64  55 112 128 133 133 132 132 132 132 132 132
 137 143 125 126  96  32  23  20  20  25  24  22  21  19  18  21  26  37  60  96 125 142 152 156 158 158 159 163 164 166 165 161 154 144 139 135 136 135 128 114 106  94  87  81  79  78  77  79  80  81  80  76  72  72  70  70  69  74  75  78  84  87  93 102 119 144 164 165 141 107  86  82  82  83  91 103 117 126 130 104  78  51 104 127 133 132 132 133 133 132 132 132
 138 142 122 129  88  27  22  21  19  24  24  20  21  23  21  23  27  39  64 103 124 142 152 153 157 160 162 163 164 166 167 164 159 154 150 148 146 144 138 129 115 100  88  81  78  74  74  73  72  71  67  63  63  60  66  74  82  84  82  84  86  87  92 100 113 136 161 171 154 122  96  70  63  64  71  80  91  99 113 124 115  59 100 127 132 134 132 133 134 132 133 133
 138 140 121 130  85  25  22  21  22  23  23  24  22  23  23  25  31  45  71 104 122 140 149 154 156 160 162 164 163 164 163 164 164 160 158 157 156 150 141 135 123 107  96  87  83  78  75  73  70  70  70  69  77  83  87  94  96  91  89  85  86  87  91  98 107 126 154 177 165 139 120  90  70  61  63  69  75  85  99 126 138  76  96 125 132 134 136 134 134 134 134 134
 138 139 123 129  80  26  21  21  28  71  30  28  26  26  26  29  33  48  73 100 120 137 146 151 154 158 159 162 161 160 161 162 163 162 162 162 159 153 146 138 127 118 107  99  93  87  87  86  85  88  93  99 106 106 107 108 106 100  94  88  86  85  89  94 104 118 146 170 172 155 137 130 108  86  77  76  77  90 108 135 145 107  94 125 134 136 137 136 134 135 136 135
 138 134 125 130  72  25  23  25 142 110  50  39  33  31  31  32  39  56  74 103 121 132 141 149 152 153 157 160 160 159 158 160 160 161 162 161 158 153 146 139 131 126 121 113 108 103 102 105 110 116 119 121 121 121 120 114 110 105  97  90  86  85  88  91  98 109 131 158 174 167 151 140 142 139 124 118 122 136 145 153 156 144 105 126 136 137 136 136 136 135 138 136
 139 131 124 129  63  25  22 112 118  70  66  54  45  42  41  38  42  56  74 103 120 131 138 147 149 152 156 156 156 154 155 153 155 157 158 157 155 145 141 138 133 131 126 122 123 120 120 120 123 126 128 129 125 124 124 118 111 103  96  90  86  85  89  91  94 104 124 145 171 173 154 142 143 147 148 149 153 153 156 160 161 158 127 129 134 137 136 137 139 137 136 138
 142 130 128 127  55  27  35 134  75  68  74  67  58  53  48  46  49  60  77 103 115 130 136 141 146 147 150 148 148 148 149 150 148 150 149 146 143 139 137 132 133 129 124 122 122 124 123 124 127 131 132 132 130 126 122 118 110 102  94  90  87  87  88  88  92 102 118 137 159 170 161 144 135 139 140 150 158 160 162 161 164 161 148 134 135 137 137 139 137 139 137 138
 144 131 130 127  60  28  81  87  63  71  85  88  72  68  62  59  58  66  76 100 112 128 134 137 141 143 145 144 143 146 145 144 145 144 141 139 136 136 133 131 125 125 120 120 118 122 123 126 127 131 132 133 133 131 126 120 108  97  91  89  87  87  87  86  88  98 112 127 147 167 166 147 135 132 137 144 154 155 159 160 161 161 154 141 137 139 138 138 138 138 138 138
 145 132 132 126  53  27 100  62  64  75  89  89  80  86  86  82  66  66  77  98 110 125 130 135 138 140 140 141 140 144 140 138 138 137 136 132 129 128 127 123 119 117 113 114 116 119 121 125 128 129 131 133 135 132 125 119 108  97  90  87  87  86  84  86  90  94 106 116 130 151 164 154 140 128 131 138 145 151 157 156 159 158 155 143 137 138 139 139 140 139 139 139
 146 135 134 127  54  23 105  62  63  76  90  86  84  93  89  86  70  66  75  94 108 122 126 132 137 136 137 139 139 139 137 134 134 132 129 125 126 123 119 117 114 112 111 111 113 117 121 124 129 129 132 134 134 129 125 119  98  92  88  86  87  85  85  88  90  95 103 113 124 143 162 156 143 129 127 129 136 146 151 156 158 158 155 146 138 141 140 139 140 140 140 141
 148 139 138 128  55  24  96  60  66  80  95 105  99  72  83  86  78  68  72  93 102 118 123 126 129 132 133 137 137 134 134 133 131 129 124 125 122 118 114 108 102 106 108 112 115 114 120 123 127 131 131 133 132 130 123 115  89  86  87  88  85  84  85  86  89  93 102 110 122 138 158 161 147 132 127 125 130 139 144 152 157 157 156 147 141 142 141 141 142 140 142 142
 151 144 139 124  54  27  81  62  66  94 117 109  85  63  72  88  84  70  71  90  99 113 118 122 126 130 131 136 135 132 131 132 126 124 123 121 122 114 111 108 104 108 112 113 114 117 120 124 126 129 134 132 129 129 122 112  98  87  83  84  80  78  79  80  83  91 100 111 122 131 152 160 153 128 121 121 126 131 141 146 152 155 153 148 143 142 141 142 142 142 143 142
 152 148 140 130  61  27  59  66  68 114 117  98  80  66  74  93  92  72  71  88  98 109 113 119 123 127 130 134 133 131 131 129 124 122 121 120 118 111 109 107 110 110 111 111 114 116 116 121 125 126 130 130 129 126 120 107  92  83  80  74  73  72  73  75  81  89 101 110 120 127 143 154 151 129 114 116 121 125 137 142 148 152 151 147 143 143 142 143 143 143 145 144
 153 153 141 132  69  26  37  76  73 120 115  92  79  69  73 103  97  79  72  88  97 105 112 118 120 124 127 128 129 128 129 125 122 121 119 118 114 111 109 111 111 109 108 108 111 111 112 117 120 123 128 127 126 123 115 103  86  76  70  69  71  74  76  83  88  95 100 104 109 115 127 138 142 129 103 106 115 122 130 139 144 148 147 144 144 144 145 144 143 144 143 143
 154 154 144 133  59  25  25  72  76 117 110  86  74  67  74 113 104  90  75  86  97 103 110 112 117 120 123 125 127 127 126 123 120 118 119 118 112 108 108 110 110 107 105 106 109 109 111 113 115 116 114 123 122 117 107  93  78  68  63  66  75  80  83  90  92  96  98  99  98  98 106 119 129 130  98  94 104 112 123 131 138 143 144 143 143 144 144 145 144 144 145 144
 155 156 149 136  59  25  24  48  82 111 105  79  70  68  75 119 110 100  84  85  98 103 106 111 118 119 122 126 128 125 124 122 118 115 115 113 110 110 110 109 106 103 103 104 106 107 109 108 111 112 110 116 115 113 102  87  73  64  59  66  77  86  88  91  88  90  92  90  90  90  92 100 109 116 108  89  94 103 113 123 133 140 139 141 144 145 146 146 146 146 146 145
 156 158 152 140  59  26  22  23  78 105 105  77  67  74  86 106 116 105  92  87  97 104 108 108 114 118 122 125 125 124 121 120 116 113 111 109 106 106 107 103 102 100  99 102  99 105 105 108 110 112 110 113 112 108  97  80  68  59  58  71  81  87  91  91  89  85  86  83  78  78  79  85  88 104 112  87  90  96 106 115 124 132 135 137 142 147 147 146 148 147 146 147
 159 160 149 145  58  27  22  19  44 105 109  72  72  80  85  89 119 106 102  93  96 101 106 111 114 117 120 125 126 122 119 116 111 110 108 106 102 103 102 100  98  99 100 100  98 102 104 105 106 106 106 109 107 103  89  75  66  55  59  75  84  87  90  87  84  83  78  75  74  73  75  77  81  92 101  86  87  91  99 107 113 123 126 129 138 146 147 147 148 148 147 148
 162 161 150 147  46  29  20  20  22  92 135 117  91 143 159 116 122 105 103  99  96  99 104 112 117 119 120 125 123 120 116 114 110 108 106 104 101 101 100  98  96  97 100  98  99 102  99 104 101 103 104 104 103  97  84  72  65  57  57  74  81  84  83  63  51  45  52  68  72  72  72  74  72  83  85  80  83  87  93  98 105 112 119 120 130 146 150 148 149 148 149 148
 164 163 153 148  43  31  22  20  22  49 122 148 166 171 180 165 124  99 102 104  98  99 104 111 116 119 121 123 118 118 116 112 108 105 106 102 102  99  95  93  94  96  98  97  96  98  97 100  97  96  99 100  95  90  78  71  69  62  53  68  73  75  62  40  44  51  54  63  71  72  64  62  78  92  84  80  82  85  90  94 100 106 110 117 142 146 150 150 150 149 150 149
 164 163 152 149  43  34  23  21  20  22  99 103 109 119 120 118 106  95  97 101 100  98 103 109 112 116 122 122 120 116 112 109 106 105 101 100 101  99  93  89  93  96  97  96  97  95  95  96  93  93  94  92  90  84  76  72  72  69  58  53  56  56  51  50  54  59  62  67  73  73  70  71 125 121  95  83  81  82  85  89  93  98 103 119 145 149 150 151 152 150 151 153
 166 163 154 146  36  34  22  20  19  24  51 116  93 110 105 103  98  93  91  97 101  98 102 107 112 116 120 124 122 118 114 109 106 104  99 100  98  95  94  93  94  95  94  94  94  95  95  94  93  91  92  89  84  81  75  73  76  73  70  64  58  55  53  56  61  67  69  72  76  75  77  85 127 135 115  86  81  82  85  87  88  93  97 125 144 151 151 151 151 154 154 152
 169 162 155 136  31  38  23  20  19  23  24  92 102 133 108 101 101  95  92  87  98  98  99 104 109 117 122 124 123 120 115 113 106 102  99  97  94  94  94  94  90  93  94  94  94  94  92  93  90  89  88  86  82  78  77  75  79  78  75  73  70  68  65  66  68  69  72  74  75  77  88 109 132 138 131 104  84  82  83  84  85  90  98 132 146 150 153 154 155 155 156 156
 169 163 155 125  34  40  23  19  20  24  26  37 118 134 121 108 108 109  97  87  91  98  98 101 109 117 122 126 124 122 117 113 108 102 101  97  95  94  93  94  92  92  92  93  92  91  89  90  87  86  86  85  79  79  79  78  79  79  79  77  74  74  74  74  73  74  77  76  75  80 101 122 132 134 133 116  89  82  81  82  83  88 105 138 153 155 156 157 158 156 157 158
 171 166 157 122  36  40  23  20  21  22  25  27  70 130 182 113 110 105  92  85  84  92  94  98 106 116 122 126 124 121 118 114 107 102 102  98  95  93  93  92  90  88  90  91  90  88  89  89  86  85  84  81  79  77  77  79  79  80  79  80  80  77  77  78  76  77  82  81  78  86 106 123 128 131 132 120  90  80  79  80  84  94 113 144 155 156 158 158 158 160 158 160
 172 169 160 104  37  41  24  19  22  23  24  25  28  94 125  99  94  92  79  66  68  80  90  97 104 114 121 125 123 120 112 113 107 100  97  97  93  92  91  92  88  86  88  88  89  87  87  86  83  83  81  78  78  76  78  81  78  81  80  80  80  79  79  79  74  69  81  89  96 106 118 123 125 127 127 117  86  75  74  80  87 102 121 147 155 156 158 159 160 161 160 160
 173 169 164  90  46  42  24  21  22  23  24  24  26  28  87  87  82  74  39  32  30  40  83  93 101 111 120 123 123 122 114 112 106 100  95  96  93  92  91  93  90  90  88  89  88  87  86  86  82  80  78  78  77  74  78  80  81  82  82  80  81  78  78  78  76  75  80  90 111 117 114 109 114 118 122 109  75  74  77  84  94 106 129 150 157 157 160 158 158 160 161 159
 172 171 166  91  50  40  24  21  21  24  23  24  26  27  52  35  34  18  16  23  23  16  52  86  98 107 119 124 122 121 115 111 103  98  93  92  92  93  91  91  87  90  88  89  88  88  87  85  80  79  79  77  73  73  78  79  79  82  80  80  80  78  75  70  68  66  65  68  76  90  79  75  77  83  96  85  64  70  81  93 100 110 133 152 156 158 159 158 160 158 161 160
 172 173 166  88  51  41  24  22  21  26  23  24  26  29  39  34  15  13  13  15  11  11  21  76  94 102 114 118 120 115 112 108 104  98  95  92  93  93  91  92  90  93  91  89  88  89  86  82  77  75  75  72  72  72  74  76  77  78  76  75  68  65  61  57  56  53  54  54  62  74  65  66  65  65  62  55  61  70  87 106 106 113 140 154 158 158 158 158 157 157 159 160
 171 173 158  83  48  44  26  24  23  29  23  25  26  28  33  29  34  75  13  13  10  11  13  40  89  98 109 112 112 111 109 105  99  97  97  95  93  92  93  94  90  90  92  92  91  89  86  81  77  73  68  65  64  65  67  66  64  60  58  56  54  54  53  54  56  53  54  54  57  67  66  64  60  62  65  64  70  73  93 111 111 116 148 154 157 158 158 158 158 158 158 158
 170 170 164  68  49  43  25  24  24  33  23  25  26  29  33  23  54  86  11  11  10  11  11  17  70  92 103 107 108 105 104 102  97  97  96  94  94  93  93  94  91  92  94  93  91  89  87  82  75  67  52  45  41  36  35  39  44  44  42  41  40  40  38  40  41  41  47  51  57  57  57  64  82 100  96  84  84  79  98 112 112 120 151 155 157 157 158 158 158 159 159 158
 169 167 169  66  43  48  30  25  28  40  21  27  26  37  34  27  57  55  12  11  10  10  11  13  40  85  97 104 102 102 100 100  98  94  94  93  93  93  93  92  92  92  93  93  90  90  88  84  77  65  52  47  51  54  50  47  47  49  51  51  53  53  52  52  51  48  49  54  63  87 113 135 133 121 108 104  97  89 100 109 109 130 154 157 159 158 159 158 159 159 159 159
 173 168 168  63  55  52  34  25  32  35  22  30  25  40  33  27  20  14  12  10  10  10  11  11  16  66  88  95  96  98  96  97  96  93  92  92  92  93  92  91  90  90  91  90  90  90  87  86  78  70  64  59  63  66  68  66  65  59  59  61  61  63  64  66  70  74  74  86 119 144 135 133 124 114 106 112 107  96 100 109 111 144 155 157 158 157 158 158 158 160 161 159
 174 167 162  77  64  48  34  26  33  30  24  31  30  34  39  31  19  12  12  11  10  10  10  10  11  39  79  87  90  92  92  94  94  92  90  93  91  92  93  90  90  90  92  90  89  90  89  87  81  74  72  73  71  73  74  74  75  74  70  66  64  63  65  67  70  74  79  95 104 109 110 115 110 103  98 120 114 102 101 105 117 152 155 160 159 160 159 158 159 160 159 160
 175 170 153  73  68  46  36  30  32  28  25  33  34  29  44  36  21  13  12  11   9   9  10   9  11  23  60  78  86  87  89  90  91  92  92  91  92  91  90  89  88  91  89  91  88  88  90  87  83  78  78  80  78  79  78  78  80  79  78  75  70  68  66  65  67  68  72  78  84  89  92  92  89  87  95 120 120 109 102 105 133 153 158 161 158 160 158 158 159 160 160 160
 177 173 153  77  66  55  37  32  32  28  26  36  33  31  47  37  22  13  12  10  10  10  10   9  10  16  36  67  77  81  86  86  88  89  88  89  89  89  90  89  88  88  89  90  88  89  88  86  84  79  80  84  84  84  84  82  79  78  78  76  76  72  70  69  65  64  64  68  70  73  73  73  73  77  99 122 123 111 101 106 148 158 159 158 160 160 162 161 160 161 161 161
 176 174 157  67  73  62  41  31  33  27  28  38  34  33  47  42  24  13  13  10  10  10   9   9   9  10  27  47  67  74  78  84  85  86  87  86  87  88  89  90  87  88  88  89  87  88  87  86  84  81  83  84  85  85  83  82  78  77  76  76  75  73  72  69  70  67  65  65  65  65  66  68  70  79 105 122 123 110 100 124 154 160 162 161 159 159 162 162 160 162 160 162
 177 174 165  66  77  80  56  34  35  29  32  40  32  40  48  44  26  12  12  11  11  10   8   8   9   9  21  35  52  67  76  77  80  82  86  84  86  86  86  88  86  88  88  86  88  88  85  85  84  83  83  85  85  85  87  82  81  80  76  76  75  73  73  71  71  71  68  66  68  69  71  71  76  92 113 123 121 109 102 149 156 160 160 162 160 162 162 163 162 163 162 162
 176 176 164  76  79  83  57  34  40  30  32  45  31  40  52  45  28  12  12  11   9  10   9   9   9   9  16  29  39  55  66  72  74  79  80  82  82  84  85  87  86  85  85  84  85  86  84  86  86  85  84  83  85  83  83  82  81  81  78  78  76  74  73  71  70  69  68  68  69  72  74  79  89 104 119 125 120 109 123 155 160 161 161 162 163 162 164 164 165 163 162 160
 178 176 161  86  74  86  52  31  45  37  44  48  32  39  51  47  24  12  11  11  10  10  10   9   9   9  14  27  35  40  50  66  72  75  77  79  82  81  83  82  83  82  84  84  85  87  87  86  88  88  87  83  84  82  82  81  82  79  79  77  75  73  73  74  73  72  72  72  73  75  83  91 101 116 125 126 118 107 143 160 162 160 162 162 163 164 166 165 165 164 164 164
 180 175 160  97  76  94  48  32  44  38  44  42  33  43  50  50  25  11  11  10   9  10   9   9   9   8  12  23  32  38  41  53  63  68  72  77  79  79  81  81  83  82  84  85  83  86  85  86  89  88  87  86  85  83  82  81  80  78  79  78  76  76  76  74  74  75  74  75  78  85  96 108 117 125 128 126 117 118 152 161 164 161 165 166 165 165 165 165 164 163 164 163
 177 177 159 100  78 108  51  37  49  44  51  35  34  41  49  45  25  13  11  10   9   9   8   8   9   8  11  21  30  37  41  45  51  62  67  72  75  76  79  80  80  80  83  84  83  85  85  85  88  88  88  87  87  85  81  82  81  82  81  80  79  78  78  75  74  76  79  83  90 101 112 122 128 131 130 123 116 130 152 160 162 162 163 165 165 166 165 166 166 164 164 163
 178 176 158 113  78 109  59  47  61  49  49  32  32  35  47  45  27  13  11  10   9   9   8   9   7   9   9  19  28  36  40  44  42  47  59  68  71  72  75  77  80  82  80  82  83  84  85  86  88  87  88  88  87  86  86  82  81  82  83  82  80  81  78  79  78  80  84  92 100 112 121 129 130 131 128 122 116 143 145 155 161 161 164 164 166 164 165 164 164 166 164 163
 175 174 161 128  81 106  72  48  65  48  44  32  31  32  41  39  25  14  10   9   9   8   9   9   7   8   8  15  25  32  38  42  45  44  45  57  65  70  73  75  77  79  80  82  83  82  85  86  86  86  88  87  88  89  88  86  86  84  84  82  82  81  82  79  79  82  86  93 105 113 122 129 126 127 128 120 115 126 153 153 157 158 161 162 164 164 164 164 165 164 164 164
 179 171 165 129  87 107  87  62  64  50  45  32  31  33  39  41  22  16  10   9   8   9   8   9   8   7   9  13  23  30  36  40  45  45  44  46  51  60  69  72  74  77  79  82  83  82  84  85  84  84  87  87  88  87  88  87  85  86  85  82  82  82  82  80  83  84  86  90  96 102 109 115 117 122 123 113  76 123 137 155 154 158 158 161 162 163 161 161 165 164 165 164
 181 173 164 134  83 113  93  61  60  51  42  31  31  32  40  36  22  16  10  10   8   8   8   8   8   8   9  11  20  26  33  39  44  44  45  44  44  48  57  64  69  74  77  79  82  81  81  83  82  84  87  87  86  87  88  89  85  85  84  84  82  82  82  82  84  83  84  87  88  94  98 102 110 116 118  89  46 111 133 147 157 155 159 162 162 161 160 162 165 164 164 164
 179 173 164 142  80 123 106  55  55  53  40  29  29  32  34  31  25  19  11   8   8   9   8   9   9   8   8   8  16  24  31  37  42  44  46  44  45  44  47  53  60  66  73  75  78  79  79  80  83  82  86  86  87  86  86  86  86  82  82  88  85  84  83  84  84  82  78  78  82  85  88  96 105 109 110  57  33  74 130 138 150 155 156 160 164 162 162 163 164 163 165 165
 179 175 168 157  81 116 128  64  54  49  35  30  26  27  29  24  23  14  11   9   8   9   9  10   8   8   9   9  15  23  28  34  39  42  45  46  47  44  46  47  48  54  62  67  71  74  76  77  80  79  81  84  84  82  83  86  85  86  86  86  84  84  82  80  78  77  77  76  76  82  86  93  98 100  93  30  29  39  81 136 150 149 141 148 157 159 161 163 162 164 164 164
 179 176 172 157  76 108 154  58  54  46  34  32  26  26  28  22  21  13  10   7   7   8   9  10   8   9   9   9  11  20  25  31  36  39  43  45  46  47  47  44  44  48  50  55  62  68  72  73  74  76  79  79  80  81  83  84  83  82  82  84  82  80  80  77  77  76  75  75  76  80  84  88  90  89  55  22  22  29  49  59  62  39  30  32  49 107 154 159 158 158 159 157
 179 177 171 168  82 104 156  55  59  45  36  29  26  25  24  20  20  12  10   8   7   8   9  10   8   9   7   9   9  13  22  28  33  37  41  43  44  44  48  47  47  49  49  49  51  56  62  69  71  73  75  76  78  79  80  79  81  80  82  81  80  78  78  76  75  72  73  74  73  73  75  76  76  68  22  16  18  21  23  25  27  24  22  24  25  26  35  99 127 124 129 138
 178 178 170 173  89 100 148  85  60  43  34  28  25  20  22  19  18  12   8   9   7   8   8   9  10   8   8   8  10  10  16  24  30  34  37  42  44  42  44  47  47  50  51  52  51  52  53  57  61  65  68  70  73  74  76  77  76  76  77  76  76  74  75  74  71  69  70  68  67  67  67  68  60  28  16  13  14  18  19  18  20  17  17  17  16  17  19  21  21  28  33  45
 179 174 169 169  95 109 138  94  55  39  31  25  21  20  21  19  15  10   8   7   8   7   8   9  10   9   8   8   9   9  11  16  23  30  35  38  42  43  43  44  46  49  52  53  55  57  56  54  53  54  58  63  65  69  72  71  73  72  73  74  72  72  70  69  69  66  64  63  61  62  62  50  26  14  13  12  15  16  19  19  21  17  15  14  15  14  15  16  17  17  22  26
 175 175 172 170 104 101 144  85  54  33  27  23  22  23  20  14  13  11   9   8   7   8   8   8   8   9   8   8   8   9  10  13  18  23  28  33  37  40  43  43  47  48  49  51  53  56  58  55  54  51  50  50  53  60  62  64  65  67  70  69  68  66  63  61  62  59  56  53  49  43  30  16  12  11  11  12  13  15  16  16  20  20  15  16  14  14  14  14  16  17  20  23
 173 174 171 163 110 110 136  62  43  34  26  20  21  24  20  15  14  11   9   8   8   8   8   8   9   9   9   7   7   8   8  10  13  16  20  26  29  34  39  40  41  45  45  47  49  51  49  50  49  44  45  39  38  36  39  45  51  54  55  55  54  55  52  49  43  39  34  23  17  12  10   9  10  10  12  11  12  13  16  16  17  17  19  15  13  13  13  14  16  16  19  22
 173 170 173 156 100  66  36  38  38  30  22  18  20  23  17  14  13  11   9   8   8   8   9   7   9   9   8   8   7   8   9  10  11  13  15  17  21  26  30  33  36  39  40  43  43  46  47  45  43  39  35  29  23  17  14  14  15  20  24  24  25  23  20  17  14  13  11  10  10   9   9   9   9  10  12  10  12  12  14  15  18  18  18  16  15  14  13  14  14  16  18  19
 159 144 113  60  32  32  31  31  34  27  21  19  21  18  16  12  12   9   7   8   8   8   8   7  10  11  10  10   8   8   9   9   9  10  12  13  15  17  21  23  25  29  30  33  35  35  34  32  30  25  21  17  14  11  10  10  10  10   9  10  10  10  10   9  11  10   8   8   9   8   9   9   9  10  12  11  12  14  12  14  18  19  16  14  14  12  13  14  14  17  17  20
  25  25  30  31  29  30  29  38  31  28  22  22  20  16  15  12  11   9   8   7   7   8   8   8   9  10   9   9   8   7   7   7   8   8   9  11  12  13  14  16  17  18  20  20  23  22  22  20  17  14  13  10  10   9  10  10   9   8   9   9  10  10  10  11   9   9   8   8   9   8   9   9   9   9  11  11  12  11  13  16  17  16  18  17  16  12  12  12  14  14  17  17
  26  25  28  29  25  30  30  35  30  28  22  21  17  14  13  10  11   8   7   8   7   8   9   8  10   9   9   8   8   8   6   6   8   8   9   9  10  12  11  12  13  13  13  13  13  12  13  12  12  10  10  10   9   9   9  10   8   9   9   9   9   9   8  11  10   9   9   9  10   9  10   9   9   9   9  11  12  12  13  15  17  14  15  15  17  15  12  12  13  12  14  16
  23  23  26  27  24  28  32  32  28  26  23  22  16  14  11  10  11   9   7   8   7   9   8   8   8  10   8   9   8   9   7   7   7   7   8   9   9   9   9  10  10   9   9  10   9   9  10  10  10   9   9   9   8   9   9   8   8   8   8   9   9   9   9  10   9   9   8   8   9   8   8   9   8   9  11  11  12  11  12  15  16  11  13  14  14  16  16  16  16  15  16  16
  22  21  22  25  25  30  32  32  28  23  23  22  16  11  10  11  11   7   8   7   8   9   9   9   8   9  10   9   9   8   8   8   7   6   7   8   8   8   9   8   9   9   8   9   9   8  10   9   9   9   8   8   8   9   8   8   8   9   8   9   8   9  10   8   9   9   8   9   8   8   9   8   8   8  11  12  12  12  13  14  14  12  12  12  12  14  16  14  16  15  15  16
