P2
# Generated by OpenCV 3.4.0
92 112
255
 169 169 169 170 170 170 172 171 173 172 172 172 173 172 173 175 175 174 174 175 176 176 177 177 176 173 172 132  72  58  46  30  34  45  54  51  45  54  50  48  52  63  76  83  84 105 131 161 171 173 173 174 173 172 175 177 178 179 178 179 179 182 183 181 182 182 181 182 181 182 181 180 182 182 181 180 181 181 179 180 180 181 181 180 181 180 180 180 180 179 179 180
 169 169 170 171 170 171 172 171 172 173 174 173 173 173 172 173 175 175 176 177 177 176 176 177 174 170 141  63  58  47  38  29  41  47  37  32  31  41  55  51  56  60  62  59  57  59  72  88  96 102 120  99 101  93  96 119 145 168 174 178 179 180 181 181 181 182 181 183 182 182 182 183 181 182 182 181 182 182 181 181 181 181 181 181 181 180 181 180 182 180 179 180
 169 170 171 171 170 172 172 172 172 173 172 172 175 173 172 173 174 173 174 178 175 173 173 172 168 110  59  51  44  36  31  30  40  37  31  29  31  40  40  45  49  45  43  41  42  43  48  53  66  72  77  78  83  81 109 123 115  89 117 159 174 175 180 181 183 182 182 184 184 183 184 183 182 182 182 182 181 183 182 182 182 181 180 182 180 181 181 181 182 180 180 179
 170 170 171 171 172 172 173 171 171 172 173 175 174 175 174 173 175 174 173 170 168 168 158 130  77  56  54  43  32  29  28  27  30  29  26  27  28  31  32  34  40  35  33  33  35  37  38  41  51  52  54  67  67  53  62 104 128 145 133 107 128 171 174 178 180 182 183 184 183 184 184 182 184 183 183 183 183 182 183 182 182 181 182 182 182 181 182 182 182 181 181 180
 171 171 171 172 173 172 173 173 171 172 171 173 176 174 173 172 171 167 166 151 140 131  99  63  50  52  49  32  30  28  28  28  25  26  24  26  26  28  29  30  29  31  30  29  32  33  32  32  35  38  48  51  50  47  42  49  62  66  76  88  81  98 167 173 178 181 182 183 184 184 185 184 184 183 182 185 185 183 182 183 182 182 182 183 182 182 182 182 181 181 180 181
 171 171 170 171 172 173 173 174 172 172 174 172 171 170 170 166 152 133 110 107 104  74  55  44  46  49  46  30  26  29  28  27  23  24  24  24  24  25  24  26  27  28  26  27  29  28  28  29  28  30  35  34  33  42  41  50  52  63  80  86  82  74  87 138 171 179 180 183 184 182 183 182 182 182 184 184 183 183 183 183 182 183 182 181 181 182 182 182 182 181 181 181
 171 171 171 171 171 173 174 174 173 172 173 172 166 164 142 112 100  98  96  88  66  43  38  39  44  51  40  28  25  27  28  27  24  24  23  22  22  24  24  23  24  24  25  28  29  30  27  27  29  29  28  27  29  32  36  35  35  40  52  57  66  71  69  82 113 154 178 181 182 184 185 184 184 184 183 183 183 182 183 182 183 182 182 180 182 183 182 183 182 181 182 181
 172 172 173 173 173 174 174 174 172 172 171 167 136 116  93  83  84  92  86  57  41  35  33  35  45  51  35  28  24  26  29  27  25  24  23  22  19  20  23  21  24  21  23  26  25  23  21  24  28  29  30  26  27  29  31  35  32  36  47  55  60  62  68  65  82  99 149 179 181 182 183 185 184 183 186 184 183 183 182 182 182 184 183 182 182 182 182 182 182 182 182 181
 174 172 173 173 175 173 172 174 173 171 169 128  93  80  76  77  95  85  55  38  32  31  34  37  48  36  30  26  25  27  29  27  23  24  24  21  21  21  21  22  23  18  22  22  20  19  18  21  24  22  25  31  31  26  27  31  36  36  43  58  70  73  71  64  70 109 120 149 177 182 182 184 184 185 186 183 183 184 184 184 181 183 185 182 182 183 182 182 183 182 181 182
 172 174 176 173 174 172 174 175 166 162 145  86  68  63  66  73  76  66  46  33  30  30  32  42  33  30  28  27  26  27  27  28  25  22  23  24  22  21  22  21  20  19  20  21  19  18  19  22  20  19  18  21  24  29  26  27  33  33  34  43  51  58  63  67  66  77 122 115 146 179 182 183 182 185 186 185 184 183 184 184 184 184 184 182 182 182 182 183 182 182 182 183
 173 174 175 174 174 175 174 175 166 146 126  72  60  61  62  62  55  56  45  33  30  30  32  34  27  26  27  29  26  27  27  29  26  24  24  23  23  24  22  22  22  20  18  20  21  20  19  20  20  19  19  21  19  23  28  26  31  34  34  39  44  49  54  59  67  73 101 133 118 150 178 182 184 184 185 185 185 185 184 183 184 185 184 184 182 183 182 184 183 182 183 184
 177 175 177 176 176 175 175 174 172 153 108  59  42  42  49  56  52  51  56  47  34  31  30  28  26  25  27  31  27  27  29  28  31  26  23  25  23  24  23  21  23  22  18  18  21  25  21  22  23  21  20  22  19  22  24  28  27  30  32  37  45  46  49  53  61  66  79 107 130 126 166 181 183 185 185 185 184 182 183 184 185 184 185 184 185 184 184 183 183 183 182 182
 177 177 177 177 178 177 175 175 175 157 118  65  40  30  32  39  42  48  48  46  47  46  37  31  31  28  28  29  29  27  30  28  30  32  29  26  24  23  25  24  22  24  23  20  21  25  27  24  25  19  19  23  19  21  23  27  37  37  37  37  40  42  44  48  55  57  72  84 118 126 128 173 183 185 185 186 185 184 184 185 186 186 186 185 186 186 185 185 185 184 185 183
 177 178 178 177 178 177 175 174 172 161 134  69  44  31  27  29  33  35  37  40  39  34  31  29  28  27  24  28  30  29  30  30  29  29  30  32  31  30  28  25  22  23  25  25  24  24  29  25  24  21  19  23  19  23  24  25  29  41  32  32  32  36  38  44  50  56  68  71  88 116 136 152 180 185 185 186 186 186 184 185 187 185 186 186 186 185 185 183 184 183 184 184
 177 178 178 177 175 176 176 174 169 165 143  74  54  35  30  26  25  29  35  42  44  42  36  30  28  28  25  29  30  31  30  30  30  29  29  30  29  29  29  30  29  27  28  29  27  24  25  29  26  24  23  26  24  25  24  25  29  30  36  29  30  34  36  41  44  52  61  67  68  86 109 142 169 183 186 186 187 186 186 186 186 185 184 185 186 185 183 184 185 186 183 185
 178 179 178 178 179 178 177 177 169 163 148  88  66  42  33  28  27  25  29  29  36  49  49  44  34  30  30  29  30  29  31  33  32  30  32  32  34  30  30  30  32  32  34  32  30  29  28  31  30  28  25  25  24  20  21  22  23  22  25  29  30  33  37  43  46  51  55  65  66  67  76 126 165 173 184 186 187 187 187 186 186 187 186 186 186 186 186 186 186 184 184 184
 178 178 178 179 178 180 177 177 175 165 153 104  75  50  37  30  29  28  29  29  26  29  38  51  50  42  40  35  34  34  31  32  34  34  32  34  36  35  35  35  36  40  40  37  35  34  36  39  42  35  29  28  25  24  24  23  22  19  19  24  26  28  32  41  48  52  55  61  60  65  68  87 143 176 181 184 187 187 187 187 187 186 187 188 187 186 187 186 187 185 185 185
 179 178 179 179 178 179 179 179 178 169 155 119  85  60  41  33  32  30  31  29  30  29  30  36  40  46  45  42  40  36  35  34  36  38  36  39  39  40  40  42  44  44  44  43  48  52  51  53  54  50  43  37  33  30  27  24  24  20  19  20  22  25  29  37  44  48  49  55  62  64  63  72  97 155 180 184 185 188 188 187 187 187 186 187 187 186 186 186 187 186 187 187
 178 179 180 180 179 180 180 180 179 177 159 133  93  74  50  39  36  36  37  31  29  30  29  32  36  40  42  44  44  42  41  43  45  50  53  54  57  58  58  56  55  56  58  59  63  71  74  78  73  66  57  53  44  39  36  29  28  25  23  22  23  24  25  31  37  44  50  55  53  62  64  68  78  98 152 176 184 185 187 187 188 188 188 188 188 187 188 187 188 188 187 187
 179 180 180 181 180 181 180 180 180 180 172 143  93  71  56  48  41  37  38  31  30  30  30  29  30  34  37  40  44  48  50  58  64  74  78  81  80  82  84  75  67  77  78  77  81  86  88  87  87  81  73  66  60  55  48  41  36  32  28  25  24  25  26  27  32  36  41  48  52  56  63  67  74  88 116 157 179 186 188 188 188 188 188 187 188 188 187 187 188 188 187 188
 179 179 180 181 181 181 181 180 181 179 177 168 113  75  61  48  42  35  37  34  32  30  30  31  31  31  35  39  47  57  70  83  87  93  94  96  98  97  97  96  95  95  95  92  94  95  95  93  91  89  85  80  76  72  62  54  48  40  36  31  28  27  29  32  33  32  35  43  48  50  55  59  71  83 106 144 175 183 187 188 187 188 188 188 187 188 188 188 187 187 187 187
 179 180 182 181 181 181 183 180 180 178 178 177 154  78  64  50  41  40  40  33  31  30  30  30  32  34  42  52  65  78  90  96 100 102 103 104 104 105 104 105 104 104 103 102 100  98  98  98  94  91  90  85  84  83  77  70  59  51  45  38  32  28  26  26  32  39  36  38  45  51  52  56  63  75  90 125 160 180 185 187 188 188 189 188 187 188 189 188 188 188 188 187
 180 181 181 181 182 182 182 182 180 179 177 176 159 117  64  57  48  44  40  35  33  32  33  33  37  44  58  74  83  93  99 101 101 105 107 106 107 109 109 110 108 107 106 103 102 100 101 101 100  96  93  90  87  87  87  80  74  63  55  47  39  34  29  27  24  26  33  36  41  51  57  57  61  69  87 101 145 177 185 188 187 187 188 189 188 189 187 189 188 188 187 187
 180 180 180 181 182 182 183 181 180 180 178 176 164 139  93  59  47  41  39  34  33  32  32  36  48  66  84  90  97 100 102 104 105 105 107 108 110 112 113 113 112 110 107 106 104 104 102 101 101  99  97  97  88  90  89  87  82  76  67  55  48  42  36  31  28  25  26  34  40  44  51  60  66  69  82  90 107 158 182 187 188 187 188 188 187 189 188 187 188 188 188 188
 181 181 182 183 183 184 182 182 180 181 179 174 164 133 108  61  47  46  39  35  36  37  38  50  71  89  99 104 107 105 106 106 108 109 110 113 112 114 114 114 115 112 111 110 110 109 104 103 103 101  99  98  98  93  91  89  88  83  77  68  58  52  44  37  33  30  27  26  33  46  50  55  61  68  79  92 104 147 177 186 188 188 188 189 188 187 188 188 188 188 187 187
 183 181 181 182 182 183 182 183 181 179 177 172 162 116  70  56  51  45  39  34  32  36  47  74  91 104 114 114 111 110 111 111 112 114 112 111 113 113 114 114 112 114 114 114 114 109 107 105 103 102 101 100  98  97  94  96  94  89  84  77  66  58  53  46  41  35  31  28  28  36  49  56  59  66  70  85  96 129 162 182 187 189 188 189 188 187 189 189 188 187 187 188
 181 181 182 182 182 182 183 182 181 180 173 162 139  83  63  54  48  42  37  33  35  41  64  88 104 115 119 118 115 116 114 114 114 114 112 112 114 112 114 115 114 116 115 115 114 113 109 106 106 104 101 103 100 101  97  97  99  97  92  84  75  68  60  54  50  43  38  33  30  32  39  48  54  59  69  77  86 109 161 178 187 188 188 188 188 189 189 188 188 188 188 188
 180 182 182 182 182 183 181 181 180 179 170 140  90  64  53  47  40  36  36  34  38  54  75  95 109 117 120 119 119 116 117 114 113 115 116 115 114 112 113 114 113 115 116 116 114 114 110 111 108 108 105 104 104 103 102  96  98  98  96  93  86  78  70  62  56  51  46  39  34  31  34  41  51  56  66  73  76  94 140 176 186 188 188 188 188 189 189 188 188 188 188 188
 181 181 181 182 182 183 181 180 180 175 159  95  68  56  46  40  38  36  34  36  46  69  83 101 112 118 120 119 119 118 117 113 114 115 116 114 112 111 112 114 115 116 116 118 116 115 115 114 112 109 107 107 106 105 103  99 100 103 100  97  92  85  79  73  64  59  54  47  40  34  32  38  48  55  61  68  71  82 107 162 182 187 187 188 187 188 189 188 187 188 187 188
 181 181 182 181 182 182 181 179 179 167 123  77  59  48  42  38  39  36  34  40  62  83  91 106 115 118 116 120 118 116 115 116 115 115 115 114 114 114 114 114 117 120 117 118 117 116 115 115 113 109 107 107 107 105 105 104 105 105 104 103  98  93  88  81  72  66  61  56  48  40  33  32  41  52  55  63  71  78  85 121 175 184 188 187 188 188 190 189 188 187 188 187
 181 181 182 182 183 181 181 181 175 148  85  66  49  42  42  40  37  36  37  46  77  94 100 110 115 116 115 119 118 117 116 118 117 116 115 115 114 115 115 114 117 119 117 117 117 118 118 115 114 109 109 107 106 106 105 105 103 105 106 106 102  99  94  88  80  74  68  65  55  47  35  29  35  45  52  54  66  74  82  89 139 180 186 189 188 188 188 188 188 187 187 188
 181 183 182 183 182 182 183 180 172 108  77  62  45  43  41  38  37  36  40  59  91 103 106 115 115 116 116 117 119 117 117 118 118 116 116 116 116 116 115 114 116 121 117 118 118 116 118 116 114 110 110 109 107 104 106 107 107 107 106 108 106 104 103  96  87  82  74  71  65  52  41  30  30  36  49  53  58  68  80  90 124 173 185 188 188 187 186 186 187 187 187 187
 182 181 183 182 183 184 182 178 156  84  68  55  40  43  38  37  37  38  45  68  98 106 112 114 113 117 116 115 118 119 119 121 121 119 118 118 117 116 118 117 116 121 124 120 120 120 117 117 118 116 116 115 115 114 114 111 109 112 109 109 112 111 108 103  95  87  84  78  73  61  44  34  30  34  47  51  54  64  76  89 121 164 185 187 187 187 187 185 187 188 188 186
 182 182 182 183 182 183 180 174 126  75  65  49  42  41  38  37  38  41  51  81 100 110 113 114 115 117 117 117 119 123 124 125 122 119 121 120 120 117 119 117 118 120 123 117 120 119 117 116 117 116 118 119 116 116 115 115 113 113 112 113 115 114 113 112 106  96  92  88  81  70  49  37  33  32  45  52  54  61  69  79 108 153 182 186 187 187 187 187 188 188 187 187
 182 182 183 183 181 180 181 172 106  68  63  44  43  41  36  36  39  47  60  86 102 110 112 114 115 117 120 120 122 124 123 123 121 119 120 120 120 120 118 117 117 121 126 122 116 116 116 116 118 119 118 119 121 117 116 115 114 115 116 120 120 119 119 120 117 109 100  95  89  77  56  42  38  35  42  52  53  58  64  71  91 137 172 183 186 187 189 187 187 188 187 187
 184 184 183 182 181 182 181 163  86  65  59  44  42  39  36  39  42  48  63  90 104 108 110 112 113 115 117 119 120 122 120 119 119 116 117 118 120 121 117 117 118 120 124 121 118 117 115 118 120 120 120 121 121 117 115 113 114 114 118 120 122 124 127 127 126 120 111 107  98  87  65  46  41  41  44  54  53  53  60  67  80 102 162 181 187 188 187 187 187 188 186 187
 182 182 183 181 182 184 179 156  76  64  55  47  41  34  36  39  42  50  67  91 103 107 109 109 112 113 113 116 117 116 113 114 114 113 114 115 116 118 117 117 117 119 122 121 117 117 117 118 121 121 120 118 116 115 112 110 111 111 115 122 125 124 130 132 132 128 121 116 110  96  78  54  40  39  47  54  55  52  52  64  74  98 136 172 185 187 187 188 188 187 186 187
 182 181 184 182 184 182 178 150  68  60  52  46  40  38  37  37  44  49  71  91 101 107 107 107 109 112 110 110 109 106 107 107 104 104 107 109 112 115 118 118 118 120 120 122 123 121 116 119 121 119 113 112 109 107 107 105 109 110 113 119 123 124 134 133 134 132 130 127 118 108  93  63  44  39  47  54  55  54  53  59  71  85 147 167 181 186 188 187 188 188 187 187
 183 183 183 182 184 182 174 140  64  57  50  44  38  38  36  37  41  51  72  94 103 106 107 108 108 108 105 102 100  98  98  98  99  97  98 101 105 107 112 113 115 116 116 117 119 117 115 115 111 111 105 103 101 101  99 103 102 104 108 114 117 122 131 136 138 137 136 136 129 116 101  73  49  41  44  56  54  55  53  53  65  82 129 174 182 187 188 187 187 187 187 186
 182 181 182 183 182 181 171 146  61  53  49  42  39  35  36  34  36  51  78  95 101 105 107 107 107 106 102  97  97  94  90  89  88  89  92  95 101 103 102 102 107 106 104 104 107 109 108 107 106 104  99  96  94  94  93  95  97  96 100 105 107 115 124 133 137 138 139 138 135 126 109  89  55  40  41  57  56  56  54  53  52  67 101 170 184 186 188 186 185 188 187 186
 181 182 182 182 183 181 170 157  70  52  49  42  40  36  32  31  36  56  83  97 100 105 105 107 107 104 100  95  94  87  84  81  82  82  82  85  90  93  91  93  95  97  98 100 101 100  98  98  96  92  91  88  84  81  83  83  84  88  90  96 100 104 111 117 122 131 134 136 138 132 119 100  68  40  34  51  61  55  55  51  50  56  82 147 177 185 186 186 186 185 186 186
 181 182 182 182 182 180 172 161  78  52  49  42  42  32  30  29  34  59  89  97 100 103 100 100  95  89  81  80  67  65  64  67  70  69  70  73  75  77  82  82  84  86  87  91  92  92  90  85  86  83  78  75  74  71  64  64  61  67  69  70  74  78  85  90  99 104 111 120 129 130 123 110  80  45  32  41  60  53  54  55  53  57  78 129 175 184 186 186 186 186 187 188
 182 181 180 182 181 180 176 168  95  50  49  43  41  32  28  27  36  67  88  96  96  90  85  74  69  59  53  49  44  39  39  42  45  46  52  59  65  71  73  75  76  78  79  83  87  86  82  80  76  68  66  62  59  54  53  46  42  43  41  41  44  48  52  57  64  70  80  99 104 112 116 113  88  52  34  34  55  56  50  55  57  55  73 123 168 184 186 185 186 187 187 187
 182 182 182 182 181 180 179 171 107  52  48  45  39  32  29  27  39  69  87  90  78  70  63  60  47  41  38  35  32  30  30  31  30  30  34  41  47  52  59  65  68  72  78  80  81  81  72  66  65  60  56  54  46  44  39  33  33  32  30  30  30  32  38  42  46  56  69  78  88  93 100 112  95  60  36  31  48  58  50  52  58  52  67 119 166 179 186 186 186 185 186 187
 181 182 185 184 182 183 182 177 134  56  50  45  37  32  26  25  42  72  81  68  56  54  55  50  42  36  34  30  29  29  29  27  27  29  30  32  36  39  46  51  58  64  75  77  79  76  68  62  57  52  48  43  36  35  30  28  27  28  26  26  27  27  31  36  42  52  61  70  74  81  86  96  99  68  38  29  39  54  51  50  59  58  61 129 161 179 187 187 187 186 187 186
 183 182 183 182 183 184 183 179 159  64  53  46  37  29  24  25  45  73  67  56  52  49  46  42  39  39  36  35  34  32  31  31  30  31  32  32  32  34  40  49  56  64  71  76  78  74  65  58  54  49  43  35  33  31  31  34  40  46  43  43  41  41  46  48  53  60  60  61  63  66  70  76  85  71  39  30  34  46  54  50  56  65  70 130 167 181 185 185 188 188 186 187
 184 183 184 184 182 182 184 180 174  83  56  46  37  28  25  27  40  51  40  38  37  36  34  35  32  33  34  34  37  39  42  44  47  47  47  48  47  44  42  48  55  64  75  78  81  77  72  64  58  50  42  40  39  41  40  42  40  33  33  33  33  34  36  38  39  42  40  40  36  28  28  32  30  32  31  29  30  51  53  52  54  63  81 145 174 184 186 187 187 186 187 186
 184 184 184 185 183 184 184 181 176 111  65  49  42  28  27  24  24  27  33  42  46  50  50  54  58  65  66  66  59  58  56  54  47  43  41  37  34  33  38  45  54  64  74  80  83  83  80  69  48  36  31  33  38  37  41  43  45  46  47  49  52  54  59  63  67  75  78  80  79  78  74  65  45  26  27  27  26  50  51  51  52  60  98 156 182 187 187 187 187 185 188 187
 184 184 183 184 186 186 185 183 179 145  69  56  37  23  22  24  38  38  48  61  58  62  62  62  63  64  66  63  59  56  52  52  50  49  49  46  50  49  43  33  27  35  44  54  51  48  43  28  27  35  52  50  42  40  40  40  41  41  41  44  46  49  52  57  65  73  81  83  81  77  75  78  78  47  27  29  28  46  54  49  50  58 103 164 185 187 187 187 187 186 188 188
 183 184 184 185 185 186 186 185 182 167  79  62  36  22  22  31  41  29  51  58  58  64  62  59  52  48  50  55  55  53  44  40  38  40  43  43  44  46  50  54  32  26  22  28  32  27  26  27  29  57  52  43  38  39  38  36  32  33  38  44  48  47  46  42  44  49  59  69  74  74  67  68  75  56  29  26  26  44  54  50  51  57 102 168 185 186 187 186 186 186 186 187
 182 183 184 185 185 183 185 184 182 173  96  66  36  21  23  35  35  27  51  59  62  65  56  47  50  57  56  48  43  40  41  40  41  40  39  43  44  45  49  59  39  26  23  27  30  26  25  26  38  67  50  42  40  39  38  37  41  42  40  39  38  34  36  40  48  53  52  50  62  71  62  59  60  53  29  27  26  44  58  46  49  59 108 168 183 186 188 187 187 187 187 187
 184 183 182 184 185 185 186 184 184 179 133  70  45  24  24  37  34  29  51  64  70  67  52  58  50  43  47  40  34  43  32  33  39  43  45  49  52  54  59  73  38  31  26  37  49  41  31  28  38  74  53  46  44  45  43  41  43  49  36  37  33  31  28  40  44  40  45  47  45  60  58  53  55  54  32  26  27  37  50  38  46  66 132 174 185 187 188 188 186 188 185 185
 183 184 183 185 185 185 185 186 185 181 158  75  45  32  24  39  38  34  55  67  71  62  61  49  43  59  74  49  37  35  33  37  48  56  47  50  67  75  74  80  38  30  37  83 102  91  50  33  35  83  64  54  55  53  45  44  55  62  38  36  33  30  32  55  70  54  41  42  46  54  62  61  68  68  33  27  33  38  43  38  46  77 150 178 186 188 186 187 188 189 187 186
 184 185 184 186 187 187 186 186 185 184 174  99  48  36  27  39  49  49  66  69  67  58  50  43  53  72  84  60  44  41  43  45  59  62  52  54  70  81  79  78  31  25  73 107 127 123  93  35  32  79  81  69  68  67  63  62  64  63  47  44  42  40  41  56  66  61  60  55  56  57  71  77  87  86  35  37  44  46  51  42  49  92 157 183 187 187 186 187 187 188 187 185
 184 184 186 187 187 185 186 186 186 184 181 144  57  39  30  38  58  62  80  76  70  61  63  63  61  63  69  69  62  63  70  71  75  73  71  73  79  84  78  66  32  29 107 134 149 143 125  51  34  63  89  84  78  80  76  69  66  64  63  62  63  63  62  63  68  74  77  80  84  87  93 104 109  95  36  49  53  51  50  45  59 108 170 183 186 188 188 188 188 187 186 186
 183 185 184 185 185 186 186 187 185 185 185 163  83  48  32  34  80  78  92  86  79  75  73  68  68  68  68  65  68  68  67  64  67  69  72  78  82  86  90  53  30  41 124 144 155 152 136  74  32  40  96  93  87  86  81  72  62  57  55  56  57  59  61  64  70  75  81  86  95 104 111 122 126  95  32  69  66  52  52  52  67 116 173 181 185 187 189 188 187 187 186 186
 186 184 186 186 186 185 185 187 186 186 185 173 124  62  40  32  80  91 104  98  86  78  73  69  66  65  65  62  60  60  60  61  68  77  82  87  93  98 102  34  28  65 125 142 156 151 139  99  32  30  87 108 104  94  87  80  72  63  53  49  51  53  55  55  62  71  77  85  88 101 119 128 132  83  30 100  78  56  56  65  88 133 176 184 187 189 188 188 189 188 188 187
 185 185 186 185 186 187 186 187 186 185 186 179 148  83  49  33  67  96 109 107  93  79  70  62  58  55  56  55  56  61  69  78  82  85  90  92  97 103  79  32  29  93 128 137 150 151 143 119  51  33  55 112 111 106  97  87  82  77  70  65  61  60  60  62  66  75  83  94 107 116 123 130 130  61  43 114  90  59  58  71 117 168 182 186 187 189 188 188 189 190 188 189
 184 185 184 185 186 186 186 187 188 186 186 183 164 100  59  38  46 100 111 109 100  85  75  69  66  69  73  76  78  80  85  86  87  85  89  91  92  98  46  28  44 110 131 134 150 154 144 128  81  32  31  95 112 109 104  95  90  86  85  84  81  79  80  79  84  89  98 106 119 128 133 129  97  38  76 120  99  64  59  71 130 178 182 185 188 189 188 188 188 189 188 189
 185 185 184 185 185 187 186 186 186 186 186 185 174 111  68  69  28  77 115 111 103  93  82  81  81  83  84  84  86  86  87  90  88  90  91  92  90  57  29  28  86 120 133 141 154 158 149 133 111  48  29  34  79 108  99  93  89  87  83  86  90  90  90  90  92  98 108 114 124 130 115  68  37  52 121 123 107  67  57  69 135 180 185 186 187 188 188 188 188 188 187 188
 185 184 184 185 186 187 187 186 186 187 186 187 178 130  72  98  80  44  38  59  72  82  87  91  88  90  90  89  89  90  89  90  86  85  74  62  35  38  40  64 110 125 135 142 157 155 147 142 130  99  47  44  30  32  57  65  73  76  78  79  82  82  85  85  85  83  80  71  56  40  43  65  98 129 131 127 110  70  58  73 146 181 184 186 187 188 189 188 187 185 184 186
 183 185 186 185 184 185 186 185 186 187 186 186 181 152  84 102 109 109  93  73  56  52  41  32  35  34  40  44  43  38  35  33  31  37  46  49  60  62  67 101 111 128 134 136 146 146 147 146 139 125  96  68  76  73  55  50  44  41  38  38  38  45  42  46  50  57  64  82  94 115 134 136 136 134 133 129 111  74  58  76 151 182 184 185 187 188 188 189 186 185 184 186
 183 183 185 186 184 183 185 186 186 185 184 183 184 164 102 103 113 111 109 109 109 110 104  96  90  88  82  75  78  79  81  81  82  78  75  72  68  69  88 109 118 127 130 131 139 139 141 146 147 134 116  87  73  87  82  74  76  78  82  84  88  93  94  95 102 109 114 120 128 137 143 143 139 136 134 132 116  76  62  88 161 182 183 184 185 186 186 187 187 184 185 184
 185 183 185 184 185 185 185 186 184 186 186 183 184 174 107 106 116 110 109 111 114 112 105  98  95  89  84  81  78  77  76  73  70  66  67  67  77  93 105 111 121 125 128 130 139 141 140 145 147 139 128 114  99  87  79  70  70  73  76  79  82  88  91  95 101 106 113 119 129 137 144 144 141 138 136 134 118  83  73  98 170 183 184 184 186 185 184 185 188 186 185 185
 183 183 184 183 184 184 185 185 184 185 185 184 185 178 116 111 113 110 112 111 110 110 107 101  94  90  87  81  78  74  71  69  66  63  64  77 102 110 113 116 120 121 122 124 133 138 134 143 151 148 139 132 129 117  94  68  60  67  68  70  75  80  81  85  91  99 106 114 124 133 140 143 141 140 137 135 121  86  85 112 175 182 184 184 184 184 186 187 187 185 184 185
 182 183 184 184 183 183 185 185 184 185 185 185 183 173 121 110 112 110 105 106 105 106 103 100  96  97  94  88  84  80  73  69  66  60  61  91 111 114 113 116 120 122 120 119 123 124 124 131 148 152 144 140 138 136 117  76  57  63  65  68  71  72  77  82  87  94  99 107 116 127 135 139 138 139 139 137 124  99  86 127 174 182 184 184 184 184 184 185 185 183 183 184
 181 183 183 183 183 185 184 185 184 183 185 185 184 175 119 110 110 105 105 105 102 103 101 100 100  99  95  95  89  86  79  73  68  64  68  92 106 103  97 103 107 113 116 116 115 113 114 118 129 133 125 121 126 131 119  85  55  60  62  64  67  68  71  76  82  89  94 101 108 117 125 130 133 134 133 133 122 104  94 139 176 181 183 182 184 184 182 183 184 182 183 184
 182 181 183 183 183 183 183 183 183 185 184 184 182 178 131 110 107 102 102 101 100  98  98  96  90  89  90  86  84  79  72  70  70  68  70  81  88  87  82  85  89  97  96  99 104 104 104 103 106 103  95  94  97  96  95  75  54  58  58  60  64  68  73  79  84  88  93  95 103 109 115 121 128 130 130 131 126 114 117 146 176 181 182 182 182 182 182 182 183 182 184 184
 180 182 182 181 182 182 182 183 183 182 184 183 182 180 136 111 104  99  97  96  92  92  90  88  84  84  82  78  72  68  65  67  71  73  68  65  68  67  67  68  74  82  85  86  86  89  90  88  87  79  73  71  70  72  75  67  70  68  64  59  59  62  66  69  76  80  88  93 100 105 109 113 119 124 130 131 126 120 135 159 177 181 181 183 182 182 183 182 182 182 182 182
 179 180 180 181 181 182 182 180 182 182 183 182 182 178 145 110 102  94  91  89  86  84  84  82  78  77  74  69  63  59  61  68  75  78  72  59  52  50  44  44  54  65  70  72  73  72  74  77  76  57  42  39  46  56  60  63  73  73  69  64  57  53  57  60  66  72  79  86  93  98 104 108 113 118 126 132 127 117 135 162 175 179 181 182 181 182 181 181 178 181 181 182
 179 180 179 180 180 182 181 181 180 181 183 184 182 178 141 108  98  90  87  81  78  75  75  71  68  66  61  57  54  54  59  70  76  78  74  63  50  40  34  35  42  51  58  58  57  59  63  68  61  52  48  46  49  57  62  72  76  75  72  67  63  59  53  54  57  62  68  76  86  96 101 105 109 114 122 129 126 111 136 157 175 177 179 179 180 180 181 180 178 179 182 181
 179 181 180 179 180 180 180 180 181 181 182 181 182 177 124 105  95  86  81  74  70  69  67  62  58  55  50  49  51  57  65  71  76  78  74  70  64  55  46  42  43  43  46  50  49  51  55  57  52  57  64  64  64  70  75  81  86  83  77  68  66  64  61  51  49  51  57  65  77  90  97 103 107 112 118 126 126 112 131 156 173 176 176 178 178 179 179 181 178 181 181 180
 178 179 180 180 180 180 180 179 181 179 180 180 180 175 123 104  91  84  78  72  67  65  62  58  51  47  48  52  56  62  68  74  78  80  78  75  69  65  61  57  55  50  45  45  46  49  47  47  52  66  74  74  76  81  88  94  96  94  86  76  70  65  64  56  48  46  48  55  66  80  93  99 103 106 113 123 128 112 119 143 165 175 177 177 176 177 179 179 178 179 179 178
 175 178 180 180 179 180 179 180 180 179 179 180 179 177 107 100  88  82  78  70  64  63  58  53  49  49  52  60  66  71  76  79  81  82  81  80  75  70  71  69  68  63  53  46  44  45  44  45  52  62  74  83  90  95  99 104 109 108 101  91  80  73  69  63  55  46  44  53  64  78  94 102 102 104 113 121 125 108  99 118 158 173 175 175 176 176 176 177 176 177 177 176
 175 176 178 179 179 180 178 180 180 180 180 180 179 173 101 101  90  81  78  72  68  66  61  53  49  52  60  67  72  79  81  82  87  87  87  86  83  84  81  77  74  69  60  57  52  50  48  50  55  69  83  94 104 106 111 115 121 121 114 106  95  84  73  65  60  51  46  58  67  83  96 104  99 101 110 119 124 106  89 122 168 172 172 174 174 175 176 176 175 178 176 176
 176 176 178 178 176 178 179 180 181 181 180 178 179 175 126  99  90  84  81  78  76  76  69  61  54  59  62  62  70  79  84  85  89  94  93  92  96  95  90  84  78  73  69  66  59  55  53  55  60  76  90 102 108 113 119 127 128 129 128 120 106  84  69  63  66  61  56  68  76  89 100 105  99 102 109 119 121 109 135 164 170 170 172 171 174 174 176 174 175 176 175 176
 175 175 175 176 178 177 177 176 180 178 179 177 176 175 145 101  90  85  83  80  78  81  78  71  65  68  60  54  55  66  75  83  92  96  95  96  96  94  90  84  79  78  71  69  68  64  65  69  72  78  84  92  98 105 110 115 118 117 116 109  91  64  54  66  70  71  72  78  84  92 101 103 100  99 106 116 116 107 148 168 168 168 170 171 172 173 175 174 174 173 174 174
 175 175 175 175 177 178 176 176 176 176 177 177 176 175 150 102  92  86  84  81  82  85  83  80  77  79  75  75  66  52  56  70  79  82  79  78  75  71  68  64  61  58  62  61  60  59  59  60  60  60  64  64  67  67  68  71  73  73  70  64  52  58  75  77  75  79  83  83  88  93  99  99  97  97 102 113 112 113 150 167 169 170 170 170 170 170 173 173 173 172 171 173
 174 175 174 175 175 176 177 176 176 175 176 176 176 175 159 102  88  87  82  76  78  83  86  86  84  86  86  85  84  73  57  46  43  45  47  51  51  52  54  56  55  53  53  52  50  52  52  54  57  63  67  68  65  60  57  56  55  56  61  73  92  97  92  84  80  83  82  84  90  94 100  94  96 100 103 112 110 117 160 167 168 168 170 169 169 169 169 169 170 170 170 172
 174 173 173 174 174 175 175 175 175 175 175 175 175 174 165 106  90  83  79  75  75  81  85  85  87  88  89  88  89  85  79  72  56  43  38  40  44  43  45  50  50  50  49  49  48  45  49  50  51  53  56  61  68  75  87  92  90  92 100 110 111 108  99  89  84  84  83  83  88  96  99  92  98  99 100 111 106 125 158 168 167 167 167 168 169 168 168 168 169 169 168 168
 173 172 174 173 173 174 173 174 174 174 174 175 175 174 168 115  94  85  81  79  77  77  81  81  85  87  89  88  89  89  88  86  82  75  67  66  71  72  68  62  58  58  50  47  47  49  55  62  67  74  82  87  91  94  96 100 103 109 113 116 115 110 101  92  87  84  82  81  85  92  95  94  93  98  99 109 103 131 160 165 165 167 167 167 168 168 168 169 168 167 168 168
 173 171 173 173 173 173 173 174 173 174 173 173 173 173 168 127  98  87  82  83  77  72  74  76  80  84  86  88  90  90  90  90  89  89  83  78  75  77  78  75  77  80  80  79  79  78  79  81  79  81  83  83  87  92  99 103 111 117 118 118 115 112 107  95  87  84  83  81  83  91  93  96  95  97  99 108 102 133 158 163 163 163 165 165 167 168 167 167 167 166 168 168
 171 172 172 171 172 172 173 173 173 172 172 172 173 172 171 150 100  88  81  82  72  67  68  73  78  82  86  87  89  90  90  89  92  90  88  85  79  78  74  72  71  73  74  74  76  73  74  73  74  75  76  78  83  91 104 107 114 117 116 116 113 113 107  95  88  81  81  81  84  88  92  95  91  94 101 106 105 144 160 162 162 164 163 162 164 166 166 165 166 165 167 168
 171 172 171 171 171 172 172 173 172 172 172 172 172 173 172 154  98  88  81  77  70  68  65  71  75  79  83  87  89  90  91  90  89  89  88  86  80  76  73  69  67  67  65  63  63  64  66  66  68  70  73  74  78  87  98 105 111 113 114 109 110 113 107  97  86  80  80  80  81  86  83  90  88  93  98  98 117 150 160 161 162 163 162 162 162 164 166 166 165 164 166 166
 170 170 170 170 170 171 171 171 170 171 172 172 171 172 170 157 111  87  80  76  72  67  66  68  72  80  82  86  88  88  88  88  87  88  87  88  86  78  72  67  61  59  55  52  52  52  54  55  56  58  60  67  76  85  94  98 102 104 106 108 106 107 104  94  86  79  79  79  82  80  81  84  86  92  96  92 131 151 158 159 160 163 160 160 161 163 164 162 163 164 164 165
 170 169 170 170 170 170 170 171 170 171 172 172 171 171 172 164 127  83  75  73  71  70  70  73  76  82  82  85  88  88  88  87  86  85  86  84  84  80  76  70  67  61  56  54  52  52  52  53  53  56  59  64  73  82  89  92  98 100  99 105 104 103 103  96  88  83  80  81  84  79  81  85  85  90  90  93 145 154 157 158 159 161 160 159 160 160 161 163 162 163 163 162
 168 169 170 169 170 169 170 170 169 170 170 171 169 169 170 168 156  82  72  69  71  70  72  77  79  82  82  86  87  87  87  89  88  88  87  85  81  78  75  71  66  64  62  62  61  58  58  58  61  60  57  61  70  77  85  92  98 103 104 104 108 105 102  97  89  82  81  82  80  83  83  86  85  87  85 107 152 155 157 157 157 157 158 158 157 158 162 160 160 162 161 160
 168 168 168 168 168 169 169 169 170 168 170 168 169 169 169 169 164 111  73  67  67  67  70  73  78  80  81  82  84  87  86  87  85  87  88  89  85  81  79  75  73  74  73  70  68  67  64  63  66  67  65  68  72  81  88  95 101 108 109 108 109 106 102  96  90  86  84  83  82  79  86  90  87  85  77 122 152 157 157 156 157 156 156 157 158 157 160 159 160 160 159 158
 167 168 168 167 168 168 169 170 168 168 169 169 169 168 168 168 167 147  80  64  61  59  65  72  77  80  81  83  86  89  86  87  86  87  89  91  88  85  84  82  80  80  76  77  76  77  73  71  72  76  79  79  81  87  95  98 104 110 113 113 110 109 103  98  91  86  84  82  87  78  81  88  87  77  89 142 154 155 156 155 156 156 157 157 155 155 157 158 160 159 158 158
 166 166 167 168 167 168 168 167 168 167 167 167 168 167 167 167 167 164 118  58  56  55  61  67  70  78  79  82  86  90  88  91  92  92  92  93  93  94  95  94  92  91  93  96  95  93  92  95  98  99  99 100  98 100 104 106 107 107 111 114 109 107 102  97  92  87  86  84  81  79  77  78  75  70 113 151 154 154 154 156 154 155 155 156 155 155 156 156 155 155 157 155
 165 165 166 167 167 167 168 168 168 168 167 167 167 167 167 167 167 165 147  67  56  55  57  62  66  71  77  80  82  86  88  92  95  94  95  97  96  98  99 101 100 100 102 103 102 103 105 104 106 107 111 114 113 110 106 107 109 112 115 113 112 106 104  99  94  89  87  79  78  77  78  73  64  78 139 153 153 155 156 155 155 154 154 155 156 155 155 154 155 154 154 155
 164 164 166 166 167 167 167 166 166 166 167 166 166 167 166 167 167 166 160 113  49  52  54  54  62  69  72  76  81  84  87  87  92  92  97  97  98  99 100 101 102 102 104 106 103 106 105 108 109 112 114 117 115 112 111 109 113 114 114 110 111 110 105  97  94  89  86  82  76  76  76  68  65 114 149 152 154 154 153 153 154 153 154 153 153 154 154 153 154 153 154 154
 165 164 165 164 166 166 166 166 165 165 165 166 167 167 166 164 165 164 162 156  81  50  50  54  58  64  70  76  81  82  85  88  91  92  93  95  99 101 100 100 101 102 103 104 102 104 105 108 110 111 114 117 117 116 116 115 116 117 115 114 112 110 104  99  94  87  85  83  77  74  69  64  77 134 150 152 153 153 152 154 153 152 152 150 148 148 151 151 151 153 153 153
 165 165 163 164 163 165 164 166 166 165 165 163 165 164 164 164 162 161 159 155 108  46  47  53  55  60  65  70  75  80  81  85  89  92  93  94  97  99 100  98  99 101 100  99  97  97  99 103 107 109 113 121 121 117 116 117 117 117 117 116 111 106 100  97  93  83  80  78  76  72  59  63 106 144 149 150 151 153 151 152 150 151 150 149 150 149 148 150 149 152 153 153
 163 165 162 162 161 164 163 164 164 163 163 164 163 162 162 161 160 158 130  82  42  35  41  47  50  55  59  62  71  75  80  81  85  89  94  90  92  96  99  94  97  97  96  96  90  90  91  95 100 105 110 116 117 117 116 116 117 116 115 115 110 102  97  93  88  81  73  73  70  63  51  49  62 110 143 148 149 150 150 149 149 149 149 148 150 150 150 150 148 149 149 150
 160 162 161 162 162 162 163 162 162 162 162 162 161 160 160 157 113  67  42  39  28  39  67  44  43  49  51  56  65  68  75  77  80  84  90  89  89  92  94  91  91  90  90  87  85  83  80  88  92  98 104 108 110 114 114 110 110 110 111 111 108 100  96  90  86  77  71  67  62  58  59  36  42  46  57  96 129 146 145 147 146 147 147 147 146 148 148 147 146 146 147 147
 161 161 162 162 161 161 162 162 160 161 160 159 157 145  93  47  42  38  33  29  27  83  88  65  36  40  45  49  56  58  65  68  73  76  78  81  82  84  86  84  85  85  84  82  77  74  73  78  85  90  93  97 100 104 101  98 104 105 103 103  98  95  88  79  75  71  68  59  53  69  80  67  29  40  42  46  47  61  93 126 142 144 144 146 147 147 147 146 145 147 148 146
 160 160 160 160 160 160 161 158 157 158 157 137  86  48  38  34  32  29  27  24  58  90  87  81  55  34  35  39  42  50  55  56  60  65  70  75  72  72  74  77  78  74  73  72  68  64  66  71  72  77  80  87  87  87  92  90  95  98  97  91  90  85  81  75  70  65  60  56  65 101  84  86  43  28  37  39  39  36  37  37  65 117 142 142 144 143 147 144 145 146 145 146
 160 157 159 158 156 157 156 154 152 114  69  39  37  32  31  29  27  25  23  23  79  90  88  83  74  52  32  33  36  41  46  53  53  54  60  62  62  64  62  68  70  66  64  62  60  58  62  63  64  71  71  75  73  73  78  81  85  83  89  79  75  74  65  64  65  64  58  68  96 114 100  83  69  31  32  36  36  35  30  30  36  42  72 110 137 140 141 141 142 144 143 145
 155 156 158 155 153 152 128  81  48  41  37  32  31  27  25  24  24  23  21  29  85  92  88  82  75  67  47  32  30  32  37  40  41  44  50  52  52  53  51  54  56  56  58  54  54  55  54  55  58  59  60  67  66  64  64  66  71  63  70  65  60  58  59  56  56  57  61  91 107 117 117  80  79  40  28  35  36  35  30  28  32  34  40  43  55  78 109 134 139 141 142 145
 154 154 156 149 106  61  37  36  33  31  29  28  27  25  24  22  21  20  21  36  86  90  86  81  77  71  60  45  31  29  30  31  33  38  41  47  47  41  47  46  47  47  55  49  50  48  49  51  51  47  52  55  59  53  54  52  56  57  52  49  51  52  53  55  56  59  80  99 109 118 120  90  80  52  25  30  33  35  31  27  28  28  33  36  38  40  41  46  66  93 133 142
 153 123  79  43  37  33  30  30  28  28  27  27  25  23  22  22  21  20  20  41  88  90  87  80  76  70  66  58  43  29  26  28  30  34  37  36  37  34  39  38  40  40  45  41  40  42  42  43  43  41  42  47  46  43  43  43  44  42  40  40  45  47  50  55  60  78  94 105 112 120 121  95  82  58  25  28  32  33  30  27  27  27  28  32  35  35  36  34  36  39  44  86
  62  44  37  32  28  26  28  26  24  27  25  25  21  21  20  19  20  20  20  48  87  89  86  80  76  69  66  64  56  45  34  28  27  28  31  30  31  30  30  29  32  32  32  33  33  33  34  33  36  33  33  37  33  33  32  32  31  31  31  37  41  45  51  59  75  88  96 102 111 119 120  97  79  59  27  26  29  31  29  28  28  27  26  28  31  33  33  33  33  34  35  39
  38  32  28  27  26  27  26  25  24  25  24  25  22  19  20  18  19  19  20  49  85  86  81  79  75  69  66  64  60  54  46  40  29  25  29  26  28  25  26  26  27  28  27  26  27  27  29  30  30  28  28  28  29  27  28  27  29  29  30  36  40  45  57  74  84  91  97 102 111 119 120  99  80  63  31  25  28  30  29  29  28  27  27  28  28  32  32  32  32  32  32  33
  27  27  26  25  25  26  24  24  23  22  23  21  19  18  19  19  19  18  18  44  85  86  82  77  74  70  67  64  62  59  54  48  39  29  25  24  24  22  24  25  24  26  23  24  24  24  27  27  24  26  25  24  26  26  27  26  29  29  31  37  46  56  71  82  91  92  97 102 110 117 118 102  80  62  30  24  27  28  29  28  28  28  26  27  28  31  32  30  31  29  31  33
  24  23  23  25  25  23  23  22  20  20  21  19  18  18  16  18  18  17  18  30  83  85  80  76  74  71  66  66  63  61  59  55  47  40  32  25  22  20  24  24  23  23  21  22  23  23  24  24  23  26  24  25  24  26  26  26  28  29  35  41  56  72  78  87  92  95  98 102 111 117 120  91  72  58  30  25  26  26  26  27  27  28  26  26  26  28  29  30  30  28  29  29
  23  23  24  22  21  22  22  20  20  20  20  20  18  18  17  17  17  17  16  23  79  84  79  76  73  68  67  65  64  61  62  60  54  49  42  31  26  24  24  24  24  23  23  23  23  24  24  25  25  25  25  25  26  26  28  28  28  34  45  60  71  78  84  89  92  96  99 104 112 115 119  87  65  52  27  22  23  26  27  27  28  27  25  24  26  26  27  28  28  30  28  27
  22  20  21  23  21  21  22  20  19  20  20  18  18  16  17  16  16  16  17  17  67  81  80  75  74  69  67  66  64  60  62  62  58  54  50  42  33  28  26  25  24  22  23  24  23  24  23  23  23  23  24  24  25  26  29  31  35  50  67  71  75  79  83  89  93  96  99 105 111 115 114  78  62  47  23  20  21  24  26  27  27  27  26  25  26  26  27  27  29  28  28  28
  21  22  20  21  20  19  19  18  17  18  18  18  17  16  16  16  15  16  16  17  47  80  80  75  72  68  67  66  67  64  62  62  62  59  55  49  41  36  31  29  29  27  24  24  23  24  23  23  23  22  23  24  26  29  34  39  50  63  69  73  76  79  84  89  92  96  98 105 111 115 106  72  58  41  22  20  20  22  22  24  26  27  26  24  23  24  25  27  28  27  28  28
  20  19  18  19  20  18  17  18  17  18  18  17  17  16  16  14  16  15  15  16  26  78  79  76  71  68  67  67  67  66  64  64  62  60  56  53  48  44  38  32  30  32  30  28  27  27  27  26  26  25  26  29  31  37  41  52  60  66  71  73  76  78  83  89  91  94  97 103 109 111  98  65  54  34  20  20  21  21  22  23  26  27  25  24  24  24  25  26  27  27  28  27
  19  19  19  18  18  17  17  17  17  17  17  17  16  15  13  12  13  14  15  14  15  61  77  74  69  68  68  69  68  67  67  66  65  61  60  55  53  50  44  38  33  32  31  30  31  32  30  31  31  30  30  35  39  46  51  57  63  69  71  74  76  80  83  89  92  94  97 101 109 108  82  58  45  26  19  20  20  20  21  25  26  26  26  25  23  21  25  25  26  27  26  27
  18  18  19  18  18  17  16  16  16  17  16  16  16  16  13  12  14  13  15  13  15  40  73  77  69  68  68  68  68  69  67  67  65  64  63  60  58  53  49  44  39  37  35  34  34  33  32  31  30  33  36  40  46  51  55  59  66  70  72  74  76  82  86  90  91  93  96 102 109 106  70  57  35  21  19  20  20  19  22  24  26  24  25  23  24  22  22  23  26  26  26  25
