P2
# Generated by OpenCV 3.4.0
92 112
255
 170 170 169 170 171 171 172 171 171 172 172 172 173 172 172 174 175 176 173 172 168 109  61  47  46  53  58  59  56  59  69  80  94 115 137 156 166 174 177 178 179 180 179 179 177 178 179 181 181 181 182 181 181 180 180 181 181 182 183 182 182 181 183 184 185 185 183 182 184 184 184 182 182 182 183 183 183 182 181 181 182 183 181 182 182 182 182 181 182 182 182 182
 169 169 171 170 171 171 171 172 172 172 174 172 174 172 175 175 174 173 172 170 124  76  50  30  38  45  56  64  51  46  48  58  69  79  86  92 111 142 157 159 162 161 160 157 156 165 173 175 178 180 180 179 180 180 180 181 181 181 182 183 183 183 184 184 183 184 183 184 183 183 182 183 184 184 182 182 182 182 181 181 182 182 182 182 182 182 182 181 181 181 181 182
 170 170 171 171 171 171 171 171 171 173 173 172 172 173 173 174 173 174 171 122  74  57  41  29  34  42  47  40  50  45  48  52  55  61  65  64  70  80  88  97  88  83  77  68  64  83  95 121 150 167 174 179 177 177 178 179 181 182 182 182 184 184 183 185 183 184 184 184 184 184 183 182 184 185 184 183 183 182 182 182 182 182 183 183 183 182 181 180 181 181 182 182
 170 171 171 170 171 172 172 172 172 171 172 173 172 172 173 174 171 173 126  62  63  47  35  30  36  40  34  30  37  46  50  47  46  43  39  42  47  58  63  66  70  67  73  78  91 112 133 137 118 115 147 165 170 176 179 180 183 182 184 182 182 184 184 183 184 184 184 183 184 184 185 184 183 184 183 183 185 184 182 184 183 183 182 182 183 183 182 182 182 182 182 182
 170 170 171 170 170 171 172 172 172 173 173 173 173 172 172 172 170 117  56  58  50  36  31  28  32  32  27  29  31  33  42  40  35  30  31  33  35  36  41  50  54  54  56  53  55  59  61  77  87  88  82 123 164 169 176 179 181 182 185 183 183 184 184 185 184 183 182 182 184 183 183 185 183 184 184 185 183 183 183 183 183 185 182 184 183 183 183 181 181 181 181 181
 169 170 171 172 171 170 172 172 172 173 172 172 171 169 165 161  95  56  56  59  39  32  28  28  28  26  25  26  28  28  32  32  28  29  29  30  30  30  32  30  38  46  45  36  33  40  51  52  57  79  91  81 101 136 160 175 179 181 183 183 182 182 185 185 184 185 183 184 185 185 184 183 184 185 186 185 185 184 184 183 184 183 184 183 182 182 182 182 181 182 181 181
 168 168 170 171 171 172 171 172 172 172 171 168 166 153 128  72  50  52  60  57  34  30  28  28  24  25  24  24  25  25  26  27  27  24  26  27  25  26  25  26  29  34  40  30  31  35  38  41  43  52  64  71  70  89 111 137 168 180 181 180 182 184 184 184 184 184 184 186 184 185 184 184 184 185 185 183 184 183 183 183 182 181 182 182 182 183 182 181 181 181 181 182
 170 168 169 171 172 171 170 170 169 166 158 138 115 106  67  42  46  47  53  47  33  30  29  26  24  24  24  24  24  24  23  24  26  25  27  27  26  22  23  24  26  27  29  29  30  31  31  31  37  39  47  54  60  67  85  99 113 155 174 179 183 183 182 182 184 184 184 185 185 186 184 184 184 184 184 183 184 182 182 183 182 182 182 183 184 184 183 183 182 181 181 181
 171 170 169 170 170 169 166 167 156 130 104  95  93  62  41  38  40  46  45  49  31  27  30  27  24  24  23  21  23  24  23  23  24  24  26  26  24  23  27  27  26  24  22  28  26  25  28  29  33  40  49  61  65  62  66  78  88 100 129 163 176 181 183 182 184 184 185 183 183 186 185 184 185 184 182 183 184 182 182 182 183 182 184 182 183 183 182 182 182 182 181 182
 171 172 172 171 170 167 157 136 106  90  84  92  58  40  33  34  39  38  51  45  30  26  30  27  24  24  22  20  23  23  24  21  23  19  23  19  17  17  22  26  29  29  25  26  28  23  27  28  30  36  40  50  59  63  61  69  79  78  89 112 152 172 181 183 184 184 184 185 185 186 183 184 185 185 184 184 184 184 183 184 184 183 183 182 182 182 184 183 183 184 183 182
 171 171 172 171 167 153 111  92  86  81  88  77  38  31  29  31  37  37  55  36  29  28  30  28  25  25  23  22  22  24  23  21  22  21  20  18  17  16  19  22  19  23  29  27  29  23  23  26  27  29  33  38  45  52  62  67  73  73  75  84 111 144 167 178 184 184 186 185 183 186 186 185 185 185 184 185 185 184 184 185 184 184 184 183 182 184 183 185 183 182 182 183
 172 172 169 169 167 114  83  71  71  79  96  51  36  29  30  32  33  45  37  31  29  26  28  29  26  28  25  25  24  25  22  23  21  19  19  19  18  17  19  20  19  19  22  26  29  25  22  23  27  31  33  38  42  46  57  64  68  70  73  77  86 101 145 171 181 183 184 184 184 186 185 186 185 185 185 185 185 185 183 186 184 184 185 183 184 184 183 185 184 183 183 183
 172 171 164 161 151  86  62  54  62  75  72  43  30  28  28  29  32  38  29  27  29  28  28  30  29  27  23  26  25  24  23  24  21  18  19  23  21  19  19  22  22  18  21  22  27  28  24  21  23  30  35  38  38  41  48  53  64  67  68  73  78  88 113 156 174 180 183 183 186 185 186 185 185 184 182 183 185 185 185 185 184 184 185 184 185 183 183 184 184 184 183 183
 172 173 169 158 130  69  58  57  54  54  57  48  35  29  26  28  30  29  25  25  30  28  28  28  30  30  26  24  24  25  25  23  22  21  20  22  26  21  20  22  22  20  20  22  23  28  34  28  30  31  30  30  31  35  43  49  61  64  65  67  73  80  92 118 161 178 182 184 185 185 186 185 185 185 184 184 185 185 184 184 185 185 186 183 184 184 184 184 186 185 183 185
 173 174 172 169 143  80  53  41  49  48  51  48  46  40  37  32  32  30  23  28  29  29  28  29  30  31  31  30  28  26  27  23  25  23  25  24  31  25  22  22  24  21  22  22  25  25  30  31  27  28  29  29  28  30  37  44  55  62  62  59  68  76  84  93 107 141 173 181 185 186 186 186 186 185 186 185 183 185 184 184 185 186 183 185 185 185 183 185 184 182 184 186
 173 173 172 170 159 115  64  39  33  36  40  39  41  38  32  30  29  26  23  25  29  30  29  29  30  30  27  30  31  30  31  31  29  27  27  26  29  28  24  24  24  27  26  24  24  25  26  31  32  27  24  27  30  33  35  44  51  61  59  55  58  66  76  86  89 100 135 173 182 185 186 186 185 185 187 187 186 184 185 186 186 186 186 186 186 185 185 183 186 186 185 186
 175 175 174 169 164 150  88  48  33  31  34  40  42  40  36  30  29  29  27  25  28  29  30  30  30  30  29  30  29  28  29  29  29  30  30  30  30  31  28  28  28  29  27  25  24  23  24  24  27  28  25  26  29  35  40  43  47  54  56  54  56  58  67  77  86  91 105 143 173 185 186 185 185 187 186 187 186 186 186 185 187 188 186 186 186 186 186 184 184 186 185 185
 173 173 176 170 164 155 114  62  42  33  30  31  36  42  45  43  38  31  29  29  28  31  31  31  31  33  31  33  33  35  31  32  32  36  37  35  33  35  38  38  37  36  32  29  27  26  26  26  24  25  23  24  25  28  35  43  45  51  54  60  59  57  61  68  77  83  93 109 150 175 184 186 186 187 187 188 188 188 187 187 188 188 187 187 187 186 186 187 185 188 186 184
 177 177 176 172 165 159 141  86  55  40  33  31  30  30  36  44  51  48  40  36  35  35  34  31  32  36  34  33  34  36  36  41  42  42  44  43  43  47  51  52  53  49  44  40  38  33  31  29  26  24  24  24  23  26  30  35  41  49  53  55  59  59  61  65  73  76  82  90 117 155 176 184 188 188 188 188 188 188 187 188 188 188 187 188 188 188 188 188 187 187 186 187
 178 178 178 174 171 163 152 107  62  47  37  34  32  30  30  32  35  42  46  44  41  38  37  34  35  37  40  41  44  46  49  49  51  50  51  55  57  65  72  73  73  67  60  54  47  45  41  38  32  29  27  28  26  25  28  30  33  43  50  52  54  58  62  63  67  73  77  81  92 125 162 182 187 188 187 188 186 187 187 188 188 188 188 187 188 188 188 187 187 187 186 187
 178 179 179 179 177 169 156 138  76  62  47  40  35  33  31  30  30  31  36  39  43  42  41  41  44  52  60  66  69  69  76  72  60  70  73  73  75  84  87  87  86  83  77  70  62  58  53  50  44  38  34  31  30  27  26  28  32  33  36  45  50  54  58  64  67  73  72  76  83 101 137 171 182 187 187 189 188 187 188 187 188 189 188 188 188 188 188 187 188 188 188 186
 178 179 178 180 179 176 162 146 110  72  57  46  40  35  33  30  30  29  31  33  36  40  46  53  67  77  89  91  97  95  96  90  85  88  91  89  91  94  97  97  95  94  89  83  77  70  66  61  54  47  43  38  35  34  31  33  34  33  36  40  44  51  51  56  65  73  71  68  76  91 108 149 173 185 188 189 189 189 188 189 189 188 188 189 188 188 188 189 188 188 188 187
 178 180 180 179 179 178 170 156 135  82  63  51  40  35  34  32  33  30  30  31  35  44  57  77  91  99 102 104 105 106 105 104 102 100 100 101 100 101 103 101  97  94  95  90  86  82  79  72  65  57  51  46  40  35  31  32  35  38  37  40  44  51  51  53  60  72  76  70  71  84  95 120 162 184 188 188 189 189 188 188 189 189 189 189 189 189 189 189 188 188 188 188
 179 181 181 179 179 179 179 171 157 114  71  56  44  38  36  34  34  31  30  36  47  64  83  94  99 106 107 110 108 110 110 107 108 106 105 106 106 105 107 106 104  98  94  96  93  91  87  84  76  68  59  52  49  42  37  32  31  34  35  36  40  46  53  56  60  69  76  75  72  74  84  99 131 171 186 189 190 189 189 189 188 189 188 190 188 189 188 188 188 188 189 187
 179 179 181 180 179 180 180 178 171 154  99  62  49  43  38  36  35  34  35  49  70  85  96 102 104 107 112 113 113 114 113 112 108 107 106 107 107 107 106 109 108 103  98  98  98  97  93  88  83  79  69  62  54  50  46  41  35  33  34  38  42  40  47  54  58  65  74  75  75  75  80  89 111 153 179 187 188 189 188 189 190 189 189 189 189 189 189 189 189 189 188 188
 181 180 182 181 178 180 180 178 172 145 106  68  47  41  37  35  36  36  49  79  92 100 104 106 110 111 113 115 114 113 115 115 112 108 108 109 112 110 109 109 110 107 105 100 102 100  98  93  90  83  79  70  63  55  50  46  43  39  36  34  37  46  47  52  57  60  69  71  70  77  82  87  93 123 164 183 187 188 188 189 189 190 190 189 189 189 190 189 189 189 188 187
 181 181 181 181 180 180 179 174 164 151  90  53  50  42  39  36  39  47  79  99 108 111 111 112 115 115 116 117 114 115 115 115 114 113 112 113 113 111 108 110 109 106 106 103 102 103 103 102  97  89  86  79  68  61  57  53  50  45  43  37  36  36  41  49  52  58  64  69  70  72  79  88  90 109 157 181 186 188 189 189 189 189 189 190 189 190 190 190 189 189 188 188
 182 182 181 182 179 179 179 173 162 115  65  56  49  41  37  36  43  67  99 113 116 115 116 118 118 118 116 117 116 115 115 115 114 115 113 113 115 113 110 113 111 108 108 107 103 102 102 102 101  97  92  85  78  70  65  60  55  53  48  44  38  35  36  43  47  53  60  66  67  71  74  83  83  93 132 174 184 188 189 190 190 190 189 189 189 190 189 190 189 189 189 188
 181 182 180 181 179 179 177 168 132  71  57  50  43  39  38  38  53  94 113 119 120 120 120 119 116 118 118 116 115 115 116 115 115 116 116 116 115 114 115 115 114 112 109 109 106 103 102 104 102  99  94  90  84  77  72  67  63  59  55  52  46  41  35  40  45  48  54  62  65  68  72  78  86  87 101 141 180 188 190 190 190 189 190 190 189 189 189 190 189 189 189 188
 181 182 182 180 182 179 169 151  79  59  49  44  40  39  37  40  69 104 117 121 123 122 121 120 117 118 119 117 116 116 115 115 116 118 118 117 116 115 118 117 116 114 112 110 109 109 103 103 106 104  97  93  89  84  80  75  70  65  61  57  53  48  42  37  39  44  51  55  64  67  71  76  78  83  91 114 154 180 188 189 190 188 189 188 189 189 189 190 189 189 187 188
 181 182 181 182 181 175 160 103  62  50  44  42  40  38  37  54  85 109 119 121 122 122 120 118 119 119 118 116 115 115 115 116 119 118 119 119 117 116 118 117 116 115 114 112 110 110 109 108 107 104 102  98  95  90  85  81  76  72  70  64  61  54  47  39  36  38  44  51  59  68  66  70  73  76  84  99 137 171 186 188 189 190 190 189 190 189 190 190 189 189 188 189
 183 182 183 183 180 169 132  69  55  43  42  41  37  37  42  71  98 115 119 120 122 121 120 120 120 118 118 118 117 116 116 119 120 119 118 118 117 116 118 117 115 116 116 112 110 109 109 107 108 106 104 103  98  96  92  87  82  78  75  72  69  64  55  44  36  35  35  44  52  60  68  70  72  74  83  92 120 162 184 189 188 190 190 189 189 188 189 189 188 189 187 189
 181 182 183 181 178 161  88  58  49  44  42  38  36  36  52  92 106 117 117 117 121 121 121 122 122 120 119 118 117 118 116 117 119 118 118 117 117 117 119 119 117 116 116 113 109 111 114 112 111 110 108 106 103 103  98  93  88  84  80  76  74  70  60  49  37  33  32  36  47  53  59  64  70  74  79  90 104 147 180 188 189 189 189 189 189 189 190 190 190 189 188 189
 182 182 180 181 173 136  71  55  45  42  38  36  37  42  67 101 113 118 119 120 120 121 123 122 123 119 118 118 117 116 116 118 120 121 117 117 117 119 119 118 118 118 118 117 116 117 117 116 117 112 108 107 107 106 105 101  94  89  86  86  81  77  69  56  42  35  34  34  43  48  55  60  65  72  77  85  94 124 171 185 189 189 190 188 188 189 189 189 189 189 188 189
 182 182 182 180 172 100  65  45  44  40  37  36  39  47  87 108 115 120 120 119 120 124 125 125 123 122 120 119 116 118 117 117 120 125 117 118 119 120 120 118 115 119 120 120 119 120 118 120 117 115 113 112 111 110 110 108 104  96  92  92  89  84  80  67  50  38  35  36  42  49  52  56  59  65  75  83  90 102 150 180 189 190 190 189 189 190 189 189 188 188 187 188
 183 183 182 178 156  80  61  44  44  38  37  36  41  59  98 112 116 118 120 119 122 128 128 127 124 123 120 119 117 118 115 114 118 125 118 115 116 118 116 115 119 119 120 122 122 120 120 118 118 117 117 113 113 111 113 112 112 108 100  97  96  92  87  73  55  42  38  37  41  50  51  52  56  61  67  76  82  91 121 175 187 190 188 189 190 189 189 188 188 189 187 188
 183 182 180 177 129  75  54  44  42  37  36  40  47  71 103 112 116 118 120 120 124 128 127 126 122 120 120 119 118 119 117 116 120 125 120 116 116 115 118 118 119 120 121 122 120 120 117 115 116 116 117 117 116 118 120 118 117 114 110 107 104 101  97  82  64  46  41  40  43  50  50  48  50  58  65  69  78  91 108 154 182 189 189 190 189 189 188 188 188 188 188 188
 182 181 181 173 103  70  51  43  41  35  37  41  49  80 108 113 115 115 118 118 122 122 120 120 119 117 116 119 118 119 117 116 117 124 118 114 116 116 117 118 119 121 121 121 119 118 114 112 109 112 114 114 114 117 122 121 122 120 118 114 112 109 105  96  73  53  43  39  45  50  51  47  48  50  57  65  70  83  99 138 174 188 189 189 189 188 189 188 188 188 187 187
 181 183 181 166  95  66  51  44  38  37  40  42  51  87 107 111 112 115 116 115 119 116 118 115 112 114 114 115 116 115 118 118 118 119 115 116 115 115 120 120 120 117 118 116 113 112 108 108 108 108 111 112 112 118 121 123 124 124 125 124 120 117 113 107  89  61  48  41  46  52  53  51  49  49  53  61  71  80  95 131 177 188 190 189 189 188 189 188 189 188 187 186
 181 182 179 162  85  63  50  42  38  39  40  44  56  89 106 110 111 114 113 111 110 109 110 106 105 105 107 109 111 116 115 117 117 117 119 118 116 115 116 117 116 111 109 106 104 103 104 102 102 104 106 107 108 116 119 123 125 128 131 130 129 127 120 111 100  74  51  41  42  52  53  52  51  49  48  52  62  75  92 127 180 187 189 188 189 188 189 189 189 189 188 187
 182 181 178 158  81  61  49  40  37  36  39  42  52  92 105 109 112 110 106 104 101  99  98  98  98  98 100 105 107 108 110 112 111 110 112 113 113 112 112 112 108 105 102 100  97  95  97  96  95  95 100 102 105 109 114 119 124 130 134 136 134 132 128 119 108  88  60  43  40  51  56  54  54  52  47  48  53  65  85 121 171 187 188 188 188 188 188 189 189 189 188 187
 183 181 176 160  80  61  47  39  38  35  34  37  58  92 105 108 108 106 103  98  97  92  90  90  90  91  93 100 101 102 102 106 104 101 101 103 105 104 104 103 101  96  94  89  87  87  86  86  87  88  93  96  97 101 105 108 116 123 127 132 137 136 131 129 117  98  71  49  38  46  58  53  51  53  50  49  52  59  77 113 166 185 188 188 187 186 189 189 188 188 187 186
 181 181 175 168  83  60  49  42  38  31  32  32  62  96 106 107 108 104  99  93  90  86  84  82  83  83  85  88  88  90  90  94  95  97  98  99  98  98  93  91  88  84  84  81  76  71  70  68  75  74  75  78  78  81  84  87  90 101 107 116 124 132 132 132 125 108  80  55  38  41  57  54  49  52  54  53  53  58  75 108 159 184 187 187 187 188 189 188 188 187 187 187
 182 181 177 165 101  63  51  45  37  30  30  31  72  97 103 101  96  89  83  74  64  64  65  70  69  69  72  76  78  82  82  84  85  87  88  90  91  87  86  82  76  72  68  65  62  57  52  47  48  48  47  48  52  54  55  60  68  72  82  93 102 111 117 123 125 114  87  60  41  39  50  56  50  48  53  55  52  53  70 103 150 179 187 188 189 188 189 188 189 189 187 187
 179 180 180 169 124  61  50  45  32  29  28  30  72  91  89  78  70  60  52  47  41  39  41  45  46  51  56  64  68  71  72  75  77  81  84  86  84  76  75  71  66  62  61  54  49  45  37  35  35  33  32  32  35  38  41  43  48  58  64  75  86  91  99 109 118 118  95  70  46  37  43  55  50  46  53  55  54  51  64  99 153 180 185 187 188 188 189 188 188 188 187 187
 181 181 180 173 151  60  53  45  33  27  25  31  73  75  67  60  50  42  35  34  31  30  30  30  30  32  38  44  50  57  61  66  73  78  82  81  78  70  64  59  57  53  48  40  38  33  29  28  29  28  28  28  28  32  35  37  44  51  58  65  72  77  83  94 106 112 101  78  50  38  37  46  52  46  50  54  60  51  61 104 157 178 185 187 188 188 189 188 187 188 188 188
 181 180 182 180 169  70  55  44  35  26  25  31  58  54  55  53  44  37  33  30  30  28  29  27  29  30  30  32  36  43  50  56  66  74  78  79  74  66  61  56  50  44  37  34  32  29  29  27  29  31  30  30  32  36  40  41  46  54  59  66  73  76  79  86  93 100 100  84  55  40  38  37  48  49  49  52  58  54  59  96 163 182 188 186 187 189 188 188 188 187 187 188
 182 182 182 180 171  99  61  44  33  26  25  32  52  50  49  45  40  39  35  33  31  31  30  31  31  31  33  33  33  38  47  54  62  73  77  82  77  66  59  54  49  40  37  34  35  34  37  35  41  42  42  40  37  41  41  38  38  37  40  40  39  41  45  52  54  56  60  60  59  50  39  34  40  49  49  51  54  57  64  91 157 184 187 187 187 188 188 187 187 188 187 185
 183 182 181 180 173 142  67  47  35  29  30  34  40  41  38  33  31  29  30  30  29  32  34  36  36  40  46  47  41  41  44  54  64  74  80  82  81  73  64  54  41  35  33  33  34  35  36  40  42  44  48  52  53  56  55  56  57  62  65  66  68  62  52  37  29  32  32  32  55  84  71  47  41  44  48  48  52  56  64  88 150 181 187 188 188 187 187 188 187 186 186 187
 181 182 183 181 140  85  43  35  31  29  34  37  40  47  50  49  52  52  53  53  55  54  54  48  46  42  39  38  35  38  44  50  59  70  79  85  83  67  48  33  31  39  41  42  40  42  44  45  42  41  42  44  45  48  48  51  53  59  67  72  77  78  75  69  43  33  35  32  49  93 103  83  52  47  47  48  52  58  65  84 143 180 187 188 188 188 186 186 186 187 187 186
 182 181 181 173  39  33  27  27  46  70  52  42  45  59  59  58  57  56  54  51  50  51  51  52  54  56  55  53  49  39  27  25  30  31  39  41  31  25  29  32  52  50  44  39  38  38  38  35  34  33  33  33  37  40  39  38  40  42  46  57  65  72  72  70  63  28  27  27  44  94 104  78  51  49  49  48  49  59  69  85 146 180 186 189 186 187 187 187 188 187 187 187
 182 182 181 169  35  30  27  38  47  49  41  34  38  55  60  56  50  41  42  42  46  45  46  43  46  48  53  53  51  48  45  21  20  21  24  32  29  25  32  46  58  47  42  39  38  39  36  36  35  30  30  35  40  56  52  46  42  43  45  45  51  63  70  67  66  31  23  25  41  90  98  78  52  58  56  46  50  61  72  79 149 179 185 187 188 188 187 188 187 188 188 188
 181 182 181 174  37  29  28  43  41  38  35  30  31  57  63  51  41  37  31  30  38  41  48  48  49  50  52  54  52  54  61  23  20  23  27  30  28  26  32  56  58  48  42  39  39  38  38  35  32  28  30  39  41  71  86  74  58  48  40  44  44  48  59  59  59  32  26  31  49  67  64  56  48  62  44  40  50  63  72  76 144 178 185 187 188 188 188 189 187 187 187 186
 182 182 182 180  50  31  30  43  39  37  36  32  33  59  67  46  39  32  29  26  30  48  75  68  59  52  52  56  59  58  66  26  22  28  51  62  49  33  33  52  58  52  44  43  47  48  39  40  37  34  32  40  48  74  90  79  74  71  53  40  46  46  50  58  59  34  28  62  69  65  51  42  36  39  36  36  50  63  72  75 139 180 186 188 186 188 187 188 188 186 187 186
 182 182 182 181 150  50  31  52  87  75  55  40  40  66  64  46  39  39  45  32  32  56  94  92  78  66  58  64  74  78  73  27  23  55  97 103  89  46  30  48  60  63  55  52  55  51  43  48  47  41  42  47  54  84  83  74  71  73  65  56  54  55  54  62  68  34  38  84  90  85  65  55  43  43  47  44  52  63  66  70 132 180 187 189 188 188 188 187 187 187 186 187
 182 182 182 183 179 142  33  69 166 166 145  57  56  74  69  49  44  46  56  41  45  67  86  83  75  68  70  79  86  88  62  30  30 103 116 122 112  79  31  41  64  66  68  66  65  68  70  65  63  67  68  71  75  80  73  70  70  70  70  77  77  78  76  78  83  34  48 101 108 103  83  70  52  47  49  50  52  58  56  73 138 180 186 188 188 188 187 186 186 187 187 188
 182 184 183 183 182 173  42  64 166 171 166 102  78  82  73  61  62  60  61  55  58  68  72  71  72  74  76  87  94  94  57  28  56 125 135 138 128  95  43  32  67  70  72  70  70  75  73  67  63  64  67  68  70  70  65  65  69  72  77  84  89  94  99 104  99  31  65 118 122 115  97  82  60  48  48  50  53  52  54  83 146 181 185 188 188 188 187 186 186 188 188 188
 182 183 182 185 182 182  67  58 166 173 171 140  98  92  84  77  76  70  66  64  63  60  61  62  63  68  77  90  97  99  39  24  82 133 142 146 132 103  53  29  54  74  85  80  78  80  82  78  69  63  59  60  62  66  64  62  64  68  75  86  95 103 108 115 101  32  93 131 128 124 110  94  66  51  53  58  61  50  57 108 166 183 186 188 188 188 187 188 187 186 188 187
 182 183 184 184 182 180  99  50 150 172 174 152 111 103  90  82  78  72  68  63  59  56  55  60  66  72  82  92  98  92  28  26 106 135 144 144 130 109  68  31  39  73  97  97  89  81  81  84  79  74  63  57  55  57  57  55  58  66  76  88  96 104 115 121  86  34 122 135 131 129 118 107  73  52  55  73  83  55  68 141 177 183 188 188 188 188 188 188 188 186 188 188
 182 182 182 183 183 180 135  44 129 169 172 163 122 113  97  83  75  68  64  62  61  62  61  67  73  84  91  94  97  68  29  46 123 133 141 144 131 114  84  45  30  59  94 101  99  90  88  85  85  83  78  72  69  68  64  63  65  74  84  94 104 109 115 116  56  46 132 137 136 131 124 112  80  57  56  82 104  58  74 148 179 185 187 188 188 188 188 189 188 187 188 185
 183 182 182 183 184 184 174  50  87 165 170 168 134 115 102  88  77  75  71  72  71  73  72  78  84  88  92  92  94  32  24  79 127 132 144 148 137 119  95  65  33  35  78 102 103  95  91  89  89  89  90  87  85  82  78  76  81  88  97 105 112 113 109  67  30  92 133 136 136 132 127 119  84  57  54  74 107  64  82 155 183 185 186 188 187 188 189 188 186 184 188 185
 182 182 182 182 183 183 181 108  53 131 163 166 142 115 106  94  86  79  75  78  79  80  84  88  90  92  93  89  47  26  37 112 131 139 152 156 145 125 108  87  52  31  35  69  92  94  90  91  90  89  91  95  94  95  91  89  89  94 101 102  91  71  42  37  78 129 136 135 134 132 129 119  86  61  52  64 100  80  84 156 182 185 187 187 186 187 189 188 186 186 186 185
 183 182 182 184 184 185 182 173 107  60  78 104 112 104 106  99  90  82  82  83  85  86  87  85  76  68  52  27  27  43  83 123 136 142 151 151 143 133 119 103  78  50  46  41  41  55  61  71  73  75  75  79  80  77  72  68  61  53  38  33  45  62  88 118 129 135 138 137 133 131 127 121  90  64  54  59  84  91  90 162 182 184 186 187 188 188 187 186 186 185 185 187
 183 183 183 185 182 183 185 182 178 156  94  62  45  41  37  45  48  50  46  49  44  36  29  29  33  41  48  60  72  71 111 126 133 139 142 144 139 134 126 116  95  72  67  81  80  68  62  61  55  54  53  51  54  61  65  66  74  82  96 109 120 122 127 129 133 136 139 138 135 132 127 120  95  69  54  60  80  95 103 170 184 184 184 186 187 186 187 187 187 186 187 187
 183 182 184 183 182 183 184 183 179 176 142 118 110 103  96  89  81  75  73  74  71  75  80  80  85  83  81  76  74 101 116 127 132 135 138 140 136 134 134 124 107  87  74  77  86  84  75  80  80  84  88  92  94  96  98 100 106 110 113 118 124 127 131 133 133 134 137 136 136 132 128 122  96  71  58  62  88  92 114 173 182 184 185 186 186 185 185 187 187 186 188 186
 182 182 183 182 182 182 184 184 181 180 152 119 113 106 104 101  98  92  88  83  81  82  80  81  81  79  74  79  98 113 121 130 132 133 138 141 137 138 135 132 122 106  92  84  83  82  72  72  76  78  82  88  93  96  95  99 107 111 115 122 126 128 133 134 134 135 135 134 135 133 129 123  99  76  69  68 100  95 130 177 182 185 185 184 184 185 186 185 187 186 186 186
 183 182 182 182 184 185 183 184 181 179 160 122 109 105 103 100 100  93  90  86  81  80  78  78  73  70  70 101 112 118 122 125 124 129 137 135 133 134 139 142 135 124 116 103  94  84  70  66  69  72  77  81  88  89  94 101 104 110 112 119 125 131 135 137 136 136 134 134 134 133 129 122 105  86  71  77 106 104 145 178 182 184 183 184 183 184 185 185 185 187 185 184
 181 182 183 182 182 182 183 183 182 180 160 118 108 104 103 101 100  96  92  88  82  82  81  76  72  70  89 111 115 118 122 122 122 124 127 123 122 128 134 143 134 128 124 116 109  94  71  64  70  74  76  81  83  84  88  94 101 106 110 115 120 127 135 135 135 135 134 133 134 134 130 121 113  91  75 102 116 111 154 178 181 182 183 184 183 183 184 184 185 185 185 183
 181 181 183 182 181 183 183 182 183 181 161 115 107 106 105 101 102 104  98  94  89  86  85  82  80  76 100 103 102 108 111 114 115 118 118 113 114 113 119 116 110 108 107 110 106  98  71  59  68  73  77  83  82  85  90  93  99 104 107 111 116 124 131 132 136 135 134 134 132 132 130 123 116 103 102 128 124 125 160 180 182 182 182 184 183 184 185 185 184 184 183 183
 181 181 181 183 183 182 183 183 182 181 163 115 109 105 103 103 103 101  98  98  94  92  91  90  86  81  90  88  84  90  98  94  99 103 100 102 100  96  95  86  82  81  82  80  80  83  67  57  64  69  75  82  84  87  90  94 102 104 106 107 112 118 125 130 132 134 132 129 130 131 128 124 119 116 116 136 141 144 169 181 182 183 183 183 182 182 182 182 183 183 183 183
 180 181 181 181 181 181 181 181 182 179 158 114 108 101 102 102 102 100  99  96  94  91  89  86  82  80  73  71  68  72  81  85  86  89  88  88  85  81  78  69  61  58  58  57  61  67  61  64  68  72  77  80  83  85  90  93 100 102 104 104 107 114 119 125 126 130 129 126 128 132 127 121 119 116 120 139 144 153 172 179 179 183 182 182 182 182 181 181 182 182 181 182
 178 180 180 180 181 180 179 180 179 177 162 112 104 101 103 102 101 100  94  92  89  86  84  80  80  79  67  54  46  43  58  71  73  73  73  71  72  73  66  45  33  31  35  44  52  57  61  70  73  73  73  76  78  81  84  88  93  97  97 103 107 111 114 121 125 125 127 128 129 132 127 121 118 114 120 139 146 154 174 178 180 182 181 181 181 181 182 180 181 181 182 181
 178 178 179 180 178 178 179 180 181 178 158 112 104 102 101 100  99  96  92  89  87  82  80  78  79  78  71  55  44  37  38  55  60  59  58  58  62  61  49  45  42  38  35  40  48  50  64  74  77  75  71  68  71  73  76  81  85  90  94  97 101 105 110 116 116 122 126 127 129 131 125 116 113 110 116 131 144 156 173 178 179 180 181 180 180 182 182 181 181 181 182 181
 177 176 179 178 176 175 177 178 180 176 160 111 101  98  97  95  96  93  88  86  84  79  76  76  79  79  72  62  52  42  38  44  50  51  50  52  58  53  47  49  50  48  45  50  58  64  75  83  82  79  75  70  69  69  71  76  80  85  89  93  96 101 107 110 112 117 123 126 129 130 126 118 112 108  99 114 137 151 170 175 176 176 178 178 179 181 181 178 179 179 181 180
 176 177 177 177 177 179 179 178 177 178 160 110 100  97  93  90  90  88  84  81  78  76  77  79  80  81  74  68  66  61  55  51  52  51  49  51  51  45  48  55  63  65  63  68  75  81  86  92  91  86  77  76  72  69  68  69  73  78  83  89  92  97 106 107 110 116 118 122 127 131 127 123 112 108  90  89 114 132 162 174 175 175 176 176 176 177 178 176 176 178 178 176
 176 176 178 177 177 178 177 176 176 176 159 108  96  96  89  88  86  83  78  76  71  71  77  82  85  82  80  76  77  74  70  65  62  56  50  45  44  44  48  58  73  78  82  85  91  95  97  99  98  91  85  81  80  74  66  64  68  72  76  83  90  98 102 105 109 112 113 117 122 128 126 122 114 101  86  74  93 125 167 173 172 173 175 176 176 176 176 177 176 177 178 176
 176 175 174 176 176 178 176 175 176 175 158 108  94  89  86  84  82  79  74  71  67  72  81  86  87  86  86  85  83  80  79  74  72  62  54  48  47  47  51  63  80  93  96  97 101 102 107 108 105 100  94  87  82  78  69  61  61  66  72  77  87  94 101 103 105 109 112 114 119 125 126 119 108 101 101  99 124 162 169 172 171 170 173 174 174 176 176 175 175 176 176 176
 175 176 176 176 176 176 177 178 176 175 161 109  93  88  84  80  79  76  71  68  68  74  83  86  89  91  93  91  89  88  85  82  79  68  60  54  52  52  58  73  87  97 105 105 107 104 110 114 110 107 101  91  85  80  74  65  57  63  70  76  85  93 100 103 103 105 111 116 120 124 123 115 106 105 129 161 163 167 168 170 170 169 171 172 174 173 174 174 174 175 174 175
 174 175 177 177 176 177 177 176 175 174 161 107  91  85  82  79  77  73  69  66  71  80  84  86  91  96  99  97  97  96  91  87  79  69  63  58  56  59  67  80  94 103 108 109 112 117 117 117 116 113 106  97  88  78  75  70  62  65  72  79  87  93 101 105 103 103 108 112 118 123 118 114 101 105 134 163 167 169 169 170 170 170 172 171 172 172 173 173 173 172 173 172
 174 174 175 174 175 176 175 176 174 174 162 106  90  87  85  80  75  73  68  68  75  80  80  86  92  98 100 100 100  98  90  83  80  75  72  70  72  77  81  85  88  94 101 104 109 114 116 119 118 117 112  98  87  76  69  69  68  70  76  83  90  99 100 104 102 102 105 110 115 116 117 111  99 108 140 164 168 168 168 169 169 168 170 169 170 170 170 172 171 171 171 171
 172 173 174 174 174 175 175 175 175 172 163 110  94  88  85  83  80  74  70  73  75  74  76  83  93  99  99  98  95  84  75  70  69  73  76  78  78  75  70  66  62  65  69  73  79  88  96 102 105 106 102  86  71  61  63  69  71  74  80  85  90  94 100  98 100 101 101 103 112 114 114 108  97 110 149 163 166 167 168 166 167 167 169 168 168 170 169 168 170 170 170 170
 172 174 173 174 174 174 174 174 173 173 162 118  96  89  85  84  82  79  76  74  70  63  64  69  84  90  88  78  65  56  55  56  55  56  56  57  58  56  56  57  60  63  60  53  50  50  55  58  64  68  67  55  44  56  70  73  76  80  84  89  91  94  94  96  94  99 100 103 108 113 112 104  97 116 149 161 164 164 166 165 166 166 167 168 168 168 169 169 169 169 170 169
 171 171 172 172 173 172 173 172 172 170 161 121  94  88  84  86  86  83  80  77  69  59  54  52  65  67  58  47  44  47  51  54  52  50  52  52  50  53  52  52  55  57  56  53  51  53  50  47  48  45  48  59  67  76  81  80  82  83  85  90  92  94  94  91  95  98 100 101 107 112 110  99  97 118 152 160 162 162 164 162 164 164 167 167 167 167 167 167 167 167 169 169
 170 171 172 172 171 172 172 171 171 170 160 124  92  85  81  83  88  88  86  80  75  73  70  54  48  43  35  35  42  44  44  46  45  45  45  40  38  40  44  50  56  62  70  78  82  84  84  83  83  86  97  98  96  92  87  83  83  85  86  88  91  93  94  93  88  97 101  98 104 112 108  96  99 123 155 161 161 160 163 163 163 164 166 167 167 166 167 167 166 167 167 168
 171 170 170 171 170 171 171 171 170 170 166 138  92  83  79  81  88  88  88  86  86  85  83  77  74  68  58  57  61  67  68  70  72  68  64  60  60  66  70  74  76  75  78  79  81  84  88  96 102 107 109 107 104  96  90  87  83  84  83  85  86  89  88  93  90  91  98  97 102 112 105  95  99 136 154 160 160 160 161 163 162 164 163 164 164 166 167 164 166 166 167 166
 168 168 167 169 170 170 169 169 170 168 168 146  98  86  81  80  83  86  86  86  85  86  89  89  88  85  80  77  72  72  69  71  73  72  70  67  66  67  68  67  66  66  69  73  81  88  92 101 109 112 110 107 105 100  94  89  82  83  83  83  82  86  89  92  98  92  93  97 102 105 101  92 108 143 155 158 158 159 159 160 159 161 163 162 163 163 164 165 164 164 165 163
 168 168 169 169 167 168 168 168 168 168 167 151 102  88  78  74  77  82  83  83  84  88  90  93  92  90  86  84  78  74  70  66  66  64  61  63  64  63  63  63  65  69  68  72  82  88  95 102 108 112 109 106 107 102  96  86  83  81  82  83  81  82  83  88  92  91  91  95  97 100  91  91 121 146 154 158 158 157 158 159 159 158 160 159 161 160 161 161 162 162 162 162
 168 168 168 168 168 168 169 168 168 169 168 153 110  86  71  70  70  78  80  80  83  87  89  92  91  90  89  86  77  68  64  62  59  56  52  53  53  53  54  55  57  58  61  68  78  88  94  99 104 107 107 105 106 103  98  90  83  81  80  81  78  80  77  78  88  87  89  91  94  94  84  89 131 150 154 155 157 157 156 156 157 157 157 158 159 160 160 160 160 161 159 160
 166 167 168 167 166 168 167 167 168 168 167 160 122  83  73  68  69  72  78  81  82  86  88  87  88  85  85  84  80  74  66  61  54  50  46  45  44  43  48  49  51  55  64  71  79  83  86  91  95  98 102 103 102 101  96  89  84  80  80  80  79  78  74  75  83  85  84  89  90  88  81  94 145 153 154 154 154 156 155 156 156 156 156 157 157 160 160 159 159 159 158 159
 167 166 166 167 167 168 166 165 166 167 166 163 134  83  72  66  68  71  77  81  83  84  84  86  84  83  84  81  78  73  68  63  58  55  54  52  50  51  52  54  57  57  63  69  75  81  85  90  93  93  99 100  99  97  95  90  85  83  80  80  79  80  77  76  80  83  84  85  84  77  81 114 148 153 155 154 153 153 155 156 156 156 156 155 156 157 157 158 157 157 157 157
 166 165 165 166 166 167 166 167 166 166 167 165 152  88  73  69  70  72  77  79  80  83  86  85  82  84  84  81  80  75  72  70  68  66  64  63  63  63  63  63  66  66  67  70  77  83  88  92  97  98  97  99 101  97  94  91  87  83  82  80  79  79  77  80  81  83  84  83  79  71  98 137 151 153 153 154 154 154 154 155 154 155 153 154 155 155 155 154 156 155 155 157
 164 165 165 164 165 165 166 166 165 164 165 163 160 114  74  68  70  72  76  79  81  83  82  81  82  82  85  86  85  82  79  77  76  74  74  72  72  70  70  73  74  75  76  78  82  88  92  97 102 103 101 102 103 101  95  92  89  84  82  81  78  79  74  79  85  87  84  76  68  73 119 150 153 154 153 154 154 152 153 154 153 153 153 153 154 154 153 152 154 154 153 154
 165 164 164 164 166 165 165 164 163 165 164 162 161 145  73  66  68  71  76  78  81  81  81  82  79  82  87  90  88  87  87  89  89  88  89  87  86  87  90  93  93  94  92  93  92  95  96 100 102 105 106 104 104 102  98  93  90  85  81  81  80  82  75  77  78  80  75  65  60  87 142 152 152 152 152 153 152 152 153 152 152 152 150 151 153 152 151 152 153 153 153 155
 162 163 163 164 164 164 162 164 164 163 164 161 162 157  96  63  65  67  74  78  80  82  83  83  84  87  89  94  93  95  98 101  99  99  99  96 101 100 101 102 104 106 107 106 102  99 100 103 102 104 106 107 103 100  97  95  89  86  83  82  76  77  76  76  78  73  63  58  64 119 145 149 150 151 152 151 150 150 152 152 149 150 149 145 148 148 150 151 150 150 151 152
 161 161 162 163 162 161 162 163 164 162 162 162 162 161 122  70  61  63  69  74  78  81  83  86  87  89  92  95  96  99  99 100 102 104 102 103 103 100 103 104 105 109 108 108 106 104 103 104 105 105 106 106 105  99  96  93  90  88  84  80  74  75  72  74  74  70  58  54  44  54  99 135 147 148 149 150 150 149 152 150 151 150 148 148 149 148 148 149 150 151 151 151
 160 161 161 161 161 161 162 162 163 161 161 161 161 161 150  89  60  55  64  69  73  79  83  84  88  89  93  96  97  98  99 100 100 103 101 101  99 101 104 103 105 110 109 110 110 108 108 108 108 107 103 103 102  98  98  92  88  87  84  77  77  74  72  69  67  60  52  64  56  34  44  56  91 132 147 149 147 148 148 148 147 147 147 150 147 146 148 146 147 146 147 149
 160 159 161 158 160 161 161 162 161 161 159 160 160 157 152 126  64  52  58  65  70  74  80  81  87  89  92  96  99  99  99  99  98  99  96  95  94  97 100 102 103 108 112 110 106 110 109 109 109 108 104 104 100 100  97  91  89  85  79  76  75  74  70  65  56  50  58  88  86  75  38  39  46  49  68 101 131 142 144 146 144 146 146 146 146 146 145 145 146 145 146 148
 159 158 159 159 161 160 160 159 160 160 158 157 155 146 111  55  42  42  50  57  64  70  73  80  85  88  91  93  96  95  91  95  95  95  91  88  86  91  93  96 100 105 108 107 106 107 109 109 108 106 106 105  99  95  92  89  86  82  76  72  68  68  64  60  53  47  83 105  90  89  70  32  38  41  44  45  47  61  91 125 143 144 146 145 145 146 147 146 146 146 147 146
 157 156 159 158 157 157 157 157 160 157 155 150  94  45  37  35  31  32  38  50  56  62  67  73  81  85  88  88  92  92  87  90  89  90  87  80  78  81  85  90  95  96  98 101 102 103 101 104 101 102 104 102  97  91  87  85  83  76  74  66  60  60  55  55  51  71  98 111 112  83  81  48  28  37  38  37  36  34  34  38  77 129 140 141 142 143 143 144 145 145 145 144
 156 156 157 157 157 154 154 155 152 129  83  41  35  33  31  28  26  26  43  50  46  51  56  63  70  80  82  82  84  85  83  82  82  81  77  73  69  72  79  84  87  89  91  93  93  92  91  96  94  94  94  95  91  91  82  80  75  70  67  62  58  55  51  52  66  92 104 113 116  92  80  65  31  31  34  36  35  31  29  33  38  47  73 106 127 137 139 142 143 140 144 144
 155 156 154 154 154 152 148 114  76  40  34  32  29  28  26  24  22  23  57  72  51  45  45  52  60  66  69  74  75  76  76  75  73  74  69  64  62  67  71  73  75  79  81  80  82  82  82  87  88  90  87  86  79  83  77  72  65  61  58  55  53  52  50  62  86  98 106 116 120 112  81  75  41  27  33  34  35  34  29  30  31  36  39  45  51  66  89 117 131 139 140 141
 154 154 154 150 134  83  44  40  37  30  29  27  25  25  22  21  20  20  65  83  74  48  40  40  46  56  62  64  62  64  68  68  63  64  59  57  57  62  62  64  66  66  66  68  68  70  71  76  74  81  74  72  66  68  62  59  55  53  55  54  52  52  61  84  93  99 108 116 121 123  86  78  51  26  30  33  34  31  28  28  29  32  33  35  36  38  42  37  45  76 119 139
 153 145 116  62  35  35  33  30  27  26  26  23  24  21  20  20  19  19  76  83  82  68  56  36  35  39  47  54  52  50  54  56  56  55  51  51  52  52  54  58  56  57  58  55  56  56  58  63  54  63  58  58  54  51  52  49  51  52  52  52  52  56  77  89  94 101 107 119 123 126  92  80  56  28  28  32  33  31  30  28  27  27  30  32  33  34  34  33  36  39  45  82
 104  56  35  33  30  29  28  27  26  26  24  22  21  19  20  19  19  26  78  84  81  77  69  56  34  32  40  48  45  41  44  44  46  49  45  46  46  48  49  48  47  51  51  49  48  48  47  53  49  48  45  43  43  45  44  46  51  53  52  52  54  71  82  89  95 102 107 119 123 124  94  79  60  31  28  31  33  30  29  29  27  27  28  29  33  33  34  32  34  32  34  39
  39  32  29  26  27  26  26  24  25  24  22  20  19  18  18  18  19  24  80  83  79  77  72  64  55  37  36  36  36  36  36  38  39  44  38  38  39  42  39  38  38  41  42  41  39  37  38  38  35  34  34  34  37  39  40  44  52  55  51  51  71  80  83  90  95 101 109 117 122 122  95  82  63  33  26  29  29  29  29  28  29  27  28  28  31  32  32  32  32  31  32  34
  28  25  26  26  26  25  24  24  22  22  20  19  18  17  17  17  18  23  76  79  78  76  71  64  62  56  44  31  30  31  29  29  31  31  30  31  32  32  32  32  30  33  35  32  29  28  29  27  27  28  28  29  35  37  39  43  51  50  51  71  79  82  87  92  95 102 110 116 121 123  98  80  59  31  23  27  28  28  28  27  27  27  27  27  28  31  31  30  29  29  31  31
  26  25  25  25  24  24  21  21  21  20  18  18  18  18  18  17  17  21  71  80  76  73  69  67  64  63  56  45  32  27  24  26  27  26  26  26  26  27  28  27  26  26  28  26  25  25  26  25  26  27  28  29  33  38  42  46  48  48  69  77  82  87  90  92  97 102 110 116 120 123  88  72  57  30  24  27  28  28  27  28  28  26  28  26  26  27  29  29  30  28  28  29
  24  23  23  24  25  22  22  20  20  20  18  18  17  16  17  17  16  19  62  78  73  73  69  66  65  63  63  58  50  36  25  24  24  23  23  23  22  25  25  24  24  25  24  24  23  24  27  25  27  26  28  30  36  40  44  45  47  67  74  78  84  87  90  94  96 102 110 115 119 121  83  65  53  27  23  26  26  27  27  28  28  27  26  27  27  27  28  30  29  28  27  27
  21  20  20  21  21  18  19  19  18  19  16  17  16  16  16  16  16  17  49  75  74  72  70  68  66  63  62  60  56  53  40  28  21  20  20  22  22  23  24  24  25  25  24  25  26  26  26  26  26  27  28  32  35  39  41  48  65  74  77  83  84  90  93  95  98 104 110 114 116 113  75  63  45  26  22  24  23  25  27  27  28  26  25  26  26  26  27  27  28  27  27  27
  20  20  22  21  21  19  19  17  19  19  17  17  16  15  16  15  16  15  33  72  72  72  70  67  67  64  62  62  60  56  52  45  33  24  20  21  22  22  24  24  24  24  24  25  24  25  25  28  26  26  29  34  38  42  50  65  72  76  77  82  86  90  92  97  98 104 109 114 115 104  71  59  40  22  21  21  21  23  25  26  27  26  25  26  26  26  27  27  27  27  27  27
  20  20  20  19  19  18  17  17  18  17  16  15  15  15  12  14  14  14  19  66  71  69  70  67  66  66  65  63  61  60  57  53  46  34  29  24  21  21  21  20  23  23  23  24  21  24  25  27  27  29  33  37  41  50  62  71  73  76  77  82  85  90  92  95  97 102 109 112 112  93  64  54  33  20  21  20  22  22  24  26  27  26  25  25  25  25  26  27  27  28  27  27
  20  20  20  19  18  16  16  16  16  17  17  15  13  15  13  13  12  13  17  46  71  68  68  67  67  66  66  67  64  63  60  55  51  46  39  33  27  27  26  24  24  23  24  22  23  22  25  27  30  35  37  43  50  60  69  71  74  75  78  79  84  89  92  94  96  98 106 110 106  76  58  45  26  20  20  21  21  20  23  26  27  25  25  25  23  24  25  26  27  27  26  27
