P2
# Generated by OpenCV 3.4.0
92 112
255
 151 153 155 155 156 156 155 156 156 156 156 156 158 157 158 157 158 158 158 158 158 158 155  97  45  47  42  43  47  51  53  59  68  81  97 116 132 138 142 150 154 160 161 162 164 164 164 164 163 164 165 164 165 164 165 164 165 166 166 166 166 166 166 166 167 166 166 166 166 166 165 165 165 164 165 164 165 166 165 166 165 166 165 166 165 165 164 164 165 165 163 164
 152 154 154 157 157 156 157 156 157 157 156 156 158 158 157 159 158 158 159 160 158 156 108  61  47  33  36  54  47  61  60  57  48  54  59  67  74  93 108 131 137 138 141 146 160 162 162 162 163 163 165 165 165 165 165 165 166 167 166 166 166 166 168 168 167 168 167 168 166 166 166 165 166 166 165 165 165 166 166 165 166 166 166 165 165 166 165 165 166 166 165 164
 152 154 156 156 157 157 157 156 157 158 156 158 158 158 159 159 160 160 159 157 156 117  63  52  35  28  38  48  58  42  34  42  48  49  59  68  66  61  64  73  99 116 122 122 116 119 112 118 125 140 157 162 163 165 165 165 166 166 166 166 167 167 167 168 168 167 166 167 168 166 167 167 166 167 166 166 166 166 165 166 166 166 167 167 165 167 165 165 165 166 165 165
 155 156 157 156 157 158 157 157 157 157 157 157 157 157 157 158 158 159 158 155 115  52  52  40  29  29  38  42  33  27  32  41  43  52  54  50  46  41  41  49  58  61  56  59  74  76  88  96  94  80  80 106 146 160 163 164 166 166 166 166 167 168 168 167 167 167 168 166 167 169 168 166 166 167 167 168 167 167 165 167 167 167 167 166 166 166 167 164 165 166 166 165
 155 155 157 157 157 158 157 157 157 158 157 158 158 158 159 158 157 158 150  93  52  46  36  32  25  35  36  35  25  28  34  38  40  44  44  34  34  36  35  34  38  48  56  51  75  70  72 107 135 136 136 126  97 121 154 160 164 166 167 166 168 168 168 167 168 167 168 167 168 168 168 166 169 167 168 169 167 166 167 168 168 166 167 167 166 167 166 165 165 164 165 166
 156 155 156 157 157 157 158 156 158 158 158 157 158 157 156 155 153 129  68  50  49  36  29  29  24  32  32  28  24  28  29  29  33  33  31  29  30  30  31  30  32  42  42  50  63  42  42  41  58  66  71  78  93  87 102 151 159 164 167 168 168 167 168 168 168 168 168 168 167 168 168 167 168 168 168 168 168 167 168 167 168 168 167 166 167 167 167 167 166 165 165 166
 156 156 156 157 155 156 158 157 156 157 159 157 156 152 148 136 103  49  46  50  44  28  24  28  24  25  24  23  22  24  25  27  27  25  26  26  27  29  30  29  28  30  32  38  37  34  33  45  55  54  72  70  67  71  73  91 134 161 165 166 167 167 169 167 168 168 168 169 169 168 167 167 167 168 168 168 168 168 167 167 166 165 167 167 168 168 167 166 165 166 165 165
 156 156 156 157 155 156 157 157 155 152 152 145 135 121 107  71  43  41  44  50  35  26  24  26  26  25  21  21  20  19  21  21  22  23  23  20  24  26  25  23  23  24  28  33  33  31  30  33  37  37  42  53  61  63  68  63  79 119 159 164 165 166 168 167 168 168 169 170 168 168 168 168 168 168 168 168 167 166 168 168 167 166 168 166 167 167 167 167 167 167 164 164
 156 156 156 155 155 155 152 153 148 129 113  98  91  89  62  41  34  37  43  44  32  24  23  23  26  22  23  21  20  19  19  19  17  19  18  18  23  20  18  18  19  21  24  24  26  31  31  30  32  32  38  48  68  77  67  61  66  83 114 153 165 166 166 168 168 169 169 168 168 169 169 168 169 169 168 167 167 167 168 167 168 168 167 168 167 168 167 166 165 166 166 166
 156 157 156 155 156 155 142 126 107  86  83  85  78  44  38  31  30  39  41  44  32  23  22  25  26  20  20  20  19  18  18  19  17  21  18  16  19  18  17  16  18  19  17  17  19  24  27  29  30  32  38  47  62  75  90  87  64  63  90 120 152 166 167 167 167 169 169 168 168 169 169 169 169 167 170 167 167 167 167 167 167 167 168 167 167 167 167 168 166 168 167 167
 158 157 156 154 150 133  98  78  74  73  77  79  52  33  28  30  34  36  44  37  29  24  24  24  25  21  17  21  19  18  16  19  18  19  17  16  16  18  17  16  18  17  16  17  20  20  20  24  29  31  32  38  47  55  64  83  82  64  88 111 127 156 166 166 168 168 168 168 168 170 169 168 169 167 168 168 168 168 167 168 168 167 166 168 168 168 167 167 167 168 167 167
 157 157 150 150 139  79  64  56  52  56  68  62  43  30  28  30  31  41  40  30  28  24  23  23  24  24  22  18  18  17  17  16  17  18  16  15  15  17  18  18  20  21  18  17  18  17  18  21  24  29  30  32  38  47  48  56  67  65  70 110 112 126 163 167 169 169 168 168 170 168 170 168 169 168 167 166 168 169 168 168 168 167 168 168 166 166 167 166 167 166 166 167
 158 157 144 139 104  58  47  46  50  50  47  47  48  34  29  29  35  36  30  25  26  25  22  25  24  25  28  19  19  17  17  17  17  17  19  16  15  16  19  20  20  18  16  17  18  16  17  19  24  30  40  39  39  42  42  44  49  59  62  86 125 114 137 164 167 167 168 168 167 169 169 169 168 167 166 166 168 169 168 168 169 168 168 168 168 167 168 168 167 167 167 167
 157 155 148 128  83  47  30  34  47  46  41  41  44  46  40  39  40  32  29  24  25  23  20  25  25  25  27  26  24  22  21  20  17  18  18  17  16  17  18  18  24  19  16  15  19  16  18  21  22  25  29  36  33  34  37  40  44  51  52  66  97 129 120 152 166 168 170 170 168 168 170 167 168 167 167 167 168 168 169 168 169 168 169 167 168 167 168 166 167 166 166 166
 157 156 150 132  77  40  26  24  29  32  30  31  33  34  32  32  31  25  22  21  24  24  24  24  25  25  23  26  26  26  27  26  23  21  18  19  19  17  17  16  19  25  18  15  20  19  20  20  20  22  24  27  32  29  33  37  40  45  51  60  64  91 113 137 159 169 168 168 168 170 169 168 169 169 168 168 168 167 168 168 168 167 166 166 168 166 166 165 166 166 166 166
 156 156 151 130  86  42  27  23  23  22  24  29  32  33  34  31  26  24  20  16  20  24  26  25  25  25  24  23  25  23  22  23  23  22  23  22  22  20  18  17  17  22  21  17  19  19  17  17  18  18  18  18  22  27  31  35  41  44  51  57  66  73  81 122 150 163 167 170 168 169 168 169 168 167 170 168 167 169 168 168 168 168 168 167 166 166 166 165 166 166 166 167
 156 152 149 136  88  43  29  24  21  19  18  17  20  28  33  41  38  33  26  21  20  28  25  26  25  27  24  26  26  26  25  24  24  25  26  27  26  24  23  23  22  22  23  20  19  18  17  17  18  17  17  18  18  20  26  29  36  43  47  52  63  66  73  86 146 157 166 168 168 168 168 168 168 168 170 168 168 167 167 167 170 170 168 168 168 167 167 166 166 166 166 167
 154 153 147 138  94  54  36  26  23  19  18  16  17  20  21  26  38  43  42  29  25  28  28  26  27  28  28  27  29  30  30  29  30  31  31  32  32  31  30  32  33  32  29  28  23  20  18  17  18  17  17  17  16  17  22  28  34  40  45  49  53  59  62  76 106 157 163 166 167 168 168 168 168 168 168 168 168 169 168 168 168 168 168 168 167 168 167 167 166 166 166 167
 156 153 143 138  97  63  44  29  24  22  20  19  20  19  23  23  26  31  32  39  37  32  31  29  26  26  29  31  30  30  31  32  32  35  35  35  38  40  46  46  49  50  46  41  32  27  24  20  18  18  16  17  16  17  19  22  29  35  42  48  51  54  61  65  83 127 161 167 167 168 168 169 170 170 168 168 168 169 168 169 168 168 167 168 167 167 168 167 166 168 167 167
 155 154 146 138 111  71  50  34  26  25  23  22  26  24  24  25  27  28  32  36  36  36  35  34  32  33  34  36  41  44  46  52  53  48  50  51  53  53  60  63  66  65  61  56  50  41  33  29  25  21  18  17  17  18  19  20  26  29  33  39  46  50  53  58  70  94 150 163 167 168 170 169 171 169 170 170 169 168 170 170 169 168 168 167 168 166 168 167 168 168 167 168
 157 156 153 141 119  78  56  36  30  28  27  27  29  24  22  21  24  25  31  33  35  36  34  39  40  45  52  59  66  72  75  77  78  66  69  75  73  71  75  77  75  75  72  68  64  59  55  48  37  31  25  22  18  18  17  20  25  31  32  32  39  45  50  53  61  79 124 158 165 168 168 168 169 169 170 171 169 169 169 170 169 169 168 168 168 167 168 167 168 169 167 168
 157 157 157 145 122  81  73  42  35  31  30  28  29  26  24  22  23  23  28  29  30  34  37  44  57  68  76  82  85  87  87  88  88  88  87  88  86  83  83  84  81  81  79  75  72  68  67  65  56  46  37  30  24  21  18  17  18  21  29  36  37  45  51  53  57  67  96 142 164 167 166 168 170 170 169 170 169 168 168 168 169 169 167 167 167 168 168 167 167 167 167 168
 156 157 158 154 130  83  68  45  35  30  29  29  29  28  25  26  26  25  26  29  32  41  53  67  80  85  88  91  92  92  91  92  93  95  94  93  93  90  89  88  87  86  83  81  80  77  72  73  70  63  52  41  32  26  22  19  18  17  18  25  34  40  47  52  58  66  83 120 150 165 168 169 169 170 169 171 170 167 168 170 170 168 168 168 168 168 167 167 167 167 167 166
 157 158 158 154 149  94  65  48  34  30  30  29  28  26  27  26  28  28  28  33  44  60  74  86  89  92  91  92  94  95  96  96  97  98  98  96  95  95  95  96  91  90  86  84  83  81  78  79  76  71  67  57  46  35  29  22  18  19  17  19  26  36  44  51  53  58  75  99 143 159 166 168 169 169 169 170 169 167 169 169 170 169 168 168 168 168 166 167 167 168 167 167
 158 156 157 153 152 134  57  51  40  32  33  31  28  27  25  26  28  29  34  49  67  80  86  89  91  93  94  95  96  98  97  98 100 100  99  99 100 100 101 101  97  96  92  89  88  86  85  82  83  82  78  70  61  50  39  30  25  21  18  19  21  31  42  48  53  57  66  86 131 159 166 167 169 169 168 170 168 168 167 168 168 168 168 168 168 168 168 167 167 167 167 167
 159 157 156 154 154 140  74  57  45  34  30  31  28  27  28  28  30  36  52  75  87  92  92  93  95  98 100 103 101 100 101 100  99 100 101 103 106 106 104 105 102 103  98  95  92  90  90  87  88  87  85  81  72  61  50  40  33  27  23  20  21  23  33  44  50  56  65  75 103 153 165 168 169 168 168 169 168 168 167 168 169 168 169 168 168 168 168 168 168 167 167 167
 159 159 155 153 151 140 103  54  45  36  35  33  29  29  28  28  34  55  78  93  98  95  96  98 101 102 104 106 105 103 104 104 105 106 107 108 109 110 109 109 107 109 106 101  96  95  94  93  87  90  91  89  82  72  62  53  44  33  29  23  23  23  28  35  46  53  61  69  85 130 157 167 168 168 170 170 170 170 169 169 168 168 168 168 168 169 168 168 168 168 167 167
 159 159 157 155 150 142 113  72  48  43  38  33  29  25  26  31  49  76  93 102 104 101 103 103 106 106 106 106 108 109 108 106 107 109 111 114 118 119 116 117 117 117 113 109 104 101  99  96  91  89  94  92  90  85  75  64  53  42  35  28  26  24  26  33  41  50  57  67  76 114 155 166 168 168 168 169 170 168 169 169 168 170 170 170 170 168 169 169 168 168 167 167
 158 157 157 154 152 144 112  73  48  42  36  31  26  27  29  38  66  86 100 104 104 105 106 107 109 108 108 108 107 108 109 109 109 114 116 120 120 121 123 121 121 121 117 114 111 108 102 101  97  93  92  94  92  91  86  77  65  54  47  35  29  28  24  29  37  46  54  60  67  93 138 163 167 169 171 169 170 168 169 169 169 168 168 168 169 169 169 168 168 168 168 167
 160 159 158 154 149 134  84  54  44  36  31  30  28  28  32  55  74  90 100 104 105 108 107 108 109 111 109 109 110 113 115 115 115 115 119 120 120 121 123 125 125 125 121 117 117 112 108 104 102  99  96  97  95  95  92  86  77  65  56  47  38  32  27  27  33  43  48  54  64  75 118 157 167 169 171 169 169 169 169 169 168 169 168 169 170 168 169 169 169 168 168 168
 159 160 158 153 134  90  56  46  37  32  30  30  29  31  50  70  82  96 103 105 104 107 110 112 111 113 114 113 113 114 118 118 119 117 118 124 123 120 122 126 127 126 125 122 120 118 112 108 108 106 103 102 100  99  95  93  85  74  65  58  49  38  31  25  27  37  45  49  56  69  77 131 161 167 170 170 169 168 169 170 170 169 168 168 170 169 168 168 168 168 168 168
 161 159 155 146 103  63  47  38  33  30  30  30  30  37  68  83  89  99 103 105 106 110 109 113 113 114 115 115 116 119 121 122 122 122 122 124 127 122 123 125 126 125 126 125 127 128 124 120 115 112 110 107 104 104 102  99  94  88  76  68  60  47  35  28  25  32  41  48  52  60  75  93 155 165 169 169 169 168 169 170 169 170 169 170 171 169 169 169 168 167 168 168
 160 159 154 131  70  54  40  36  33  31  30  30  33  52  82  90  97 103 105 108 112 113 114 115 117 117 118 119 123 125 126 125 127 122 121 122 123 119 120 122 125 122 123 125 128 130 126 124 120 117 115 112 111 110 108 105 103  96  86  76  69  58  40  32  27  28  39  47  51  58  68  91 143 165 168 170 170 169 169 170 171 170 169 169 170 170 169 169 168 168 168 168
 160 157 148  89  63  50  36  36  33  30  30  30  40  66  87  96 100 102 106 109 112 113 116 118 118 118 120 118 119 124 125 127 128 126 123 124 127 124 122 122 121 123 127 128 127 129 128 123 121 117 116 114 115 114 115 111 112 106  99  89  77  66  50  32  31  28  36  45  50  57  65  89 132 164 168 170 170 171 171 172 171 169 170 170 171 169 169 170 170 168 169 168
 161 154 128  70  57  42  33  35  31  30  31  35  47  75  92  99 100 104 107 110 113 114 116 116 115 114 115 116 115 119 122 127 126 125 122 122 126 123 123 122 123 123 126 126 126 127 124 120 117 116 113 114 117 118 118 119 121 118 111 100  90  76  59  38  31  33  36  45  48  55  60  75 113 154 168 170 171 169 171 170 171 170 170 171 171 170 170 169 170 170 169 169
 160 153  92  64  54  37  35  35  32  31  34  40  54  79  94  98 100 103 107 110 112 112 114 112 109 109 109 109 110 112 115 120 123 123 122 124 124 122 122 122 122 123 124 124 122 120 115 112 109 109 112 112 117 118 120 121 126 124 120 114 106  90  70  46  33  33  38  46  51  52  56  65  91 145 163 170 171 171 173 172 171 171 172 171 171 171 170 170 169 169 168 169
 160 142  72  59  52  36  36  34  31  33  38  43  60  83  93  98  99 104 108 108 108 106 106 104 103 103 100 101 100 103 107 112 117 121 120 122 121 120 121 121 119 121 119 118 113 108 108 104 104 106 105 109 113 116 118 124 126 125 125 121 113 105  85  59  39  34  38  47  51  50  51  64  77 115 156 168 171 171 172 172 170 172 172 173 171 170 171 171 171 169 168 168
 159 126  66  56  47  39  37  31  32  36  39  45  63  84  92  94  99 102 105 106 104 102  97  94  91  91  91  93  91  96 101 105 107 110 111 112 111 111 112 113 113 112 111 107 103 100  99  97  96 101 100 100 104 108 112 120 125 128 128 126 122 114  98  74  46  36  39  46  51  52  51  59  78 117 140 163 172 171 173 173 174 173 173 173 173 170 170 170 170 171 171 169
 156 112  61  54  45  41  35  31  36  37  42  48  67  83  91  93  99 103 104 102 101  95  90  92  88  84  83  82  84  86  90  98  96  96 100 102 102 103 103 101 103 101 100  97  93  89  88  83  86  87  88  91  94 100 103 110 114 119 124 126 125 120 110  87  58  38  38  47  52  51  49  54  70 116 148 162 170 173 173 173 173 173 173 174 172 170 172 171 171 170 171 169
 154  99  56  49  44  38  31  34  33  38  39  49  68  86  92  94 101 103 106 101  99  93  90  83  78  76  73  75  74  74  76  80  81  84  85  88  88  92  94  95  91  89  86  84  81  77  74  72  66  67  65  72  75  78  83  88  95  97 106 113 117 122 116 101  71  40  34  45  53  53  50  51  59  86 150 165 170 174 173 172 172 172 172 173 173 172 174 172 172 172 170 169
 155  91  52  47  42  36  33  33  33  35  38  50  71  84  89  97 102 102 101  93  82  79  65  56  56  54  58  58  58  60  64  68  71  74  76  76  76  81  86  86  82  77  77  72  69  65  60  54  53  46  45  46  46  45  51  58  59  65  75  82  95 105 112 109  86  47  31  36  54  53  52  46  49  66 118 164 171 174 173 174 173 173 173 172 172 172 172 172 171 170 170 169
 147  94  48  45  40  35  33  32  31  30  35  53  76  86  91  95  94  86  75  64  51  44  40  36  31  31  32  32  37  42  47  53  58  64  67  70  75  78  81  80  74  66  64  58  56  54  48  44  40  33  32  31  30  30  31  36  41  46  52  64  74  85  91 101  95  59  32  29  51  56  53  50  49  56  89 153 168 173 174 174 173 173 173 173 172 172 171 172 171 172 170 169
 146 105  48  41  39  36  35  30  28  28  35  58  80  86  87  81  76  63  51  43  36  30  30  28  26  24  24  26  27  29  34  37  42  49  54  63  71  77  78  76  69  63  58  51  48  42  37  34  30  28  26  27  25  29  34  38  44  48  53  60  67  71  74  80  85  66  34  28  39  57  50  52  51  56  84 142 168 174 174 174 173 173 173 173 172 172 172 172 172 173 170 170
 146 111  53  40  39  37  34  29  26  25  34  62  81  82  68  58  57  52  44  36  31  30  27  26  25  26  26  27  28  28  31  31  35  43  50  59  66  73  78  76  69  62  55  50  44  34  36  42  46  46  48  46  41  39  38  38  36  35  32  33  33  33  28  27  28  29  28  26  29  38  48  51  54  53  77 130 165 173 174 174 174 174 173 171 172 172 172 171 172 172 170 170
 151 123  54  38  39  35  31  28  24  24  38  68  74  57  46  44  44  40  36  34  30  34  32  31  35  39  44  45  45  46  47  44  50  47  51  58  68  77  80  83  76  68  60  45  34  31  33  33  32  34  38  40  40  41  43  47  48  53  55  60  71  76  75  72  65  46  30  24  26  26  40  52  56  55  72 123 159 170 173 173 174 173 173 172 173 173 171 171 171 172 171 170
 154 137  54  39  39  36  30  29  26  29  34  36  33  31  32  34  38  40  42  43  47  49  46  47  45  44  44  43  41  38  34  33  29  32  42  53  62  70  78  82  74  56  43  28  29  45  54  51  47  46  45  47  47  49  53  58  64  66  69  77  79  79  83  86  92  61  41  29  25  25  29  57  54  61  68 126 155 168 172 173 174 173 174 174 173 173 172 172 172 173 172 171
 160 143  65  41  40  36  34  29  27  26  26  33  44  57  60  53  53  54  55  60  66  67  66  62  56  51  49  48  46  46  46  47  49  49  28  27  30  36  32  26  23  21  23  30  62  59  50  44  42  41  41  40  42  42  45  47  50  57  63  74  79  81  79  79  91  70  35  32  25  24  26  60  52  60  76 132 161 169 173 174 174 174 173 172 172 172 173 172 174 172 173 172
 164 146  88  47  42  36  38  25  26  24  31  42  47  56  54  54  54  56  58  60  59  57  51  47  45  41  41  43  46  47  49  48  48  54  55  24  24  25  25  22  21  19  21  53  65  51  42  39  38  36  34  34  38  37  37  37  38  38  42  47  61  70  74  74  77  72  37  33  24  24  25  58  51  57  83 139 165 172 172 174 173 173 173 174 172 173 172 173 173 172 170 170
 165 153  99  52  43  35  38  24  25  23  38  31  42  54  54  56  56  54  50  44  45  46  44  41  45  41  39  36  39  44  47  46  46  50  58  27  24  24  30  32  27  22  20  61  60  44  38  39  36  35  40  39  33  30  42  28  31  36  39  44  42  51  63  66  67  71  41  35  22  23  40  60  50  54  89 145 167 171 173 174 172 173 174 172 172 173 172 172 172 171 171 171
 164 157 118  56  45  36  41  24  25  22  41  29  45  55  55  59  54  47  42  46  39  31  29  36  36  30  37  39  39  39  45  47  48  53  58  25  22  30  64  75  56  29  23  49  60  44  40  40  39  40  40  52  36  37  30  28  42  62  44  34  39  38  52  56  58  58  43  35  23  27  31  48  48  53  85 149 168 171 172 173 172 172 174 172 172 172 171 172 173 170 170 169
 164 161 138  62  50  41  48  35  24  24  41  29  48  55  54  55  47  43  45  38  43  30  30  29  27  32  45  44  38  43  49  51  56  59  57  24  22  68 106 127 113  55  24  43  67  52  51  53  40  38  57  72  44  37  31  30  34  70  67  39  32  38  44  53  55  53  42  33  23  25  29  48  46  51  87 146 169 171 172 172 171 173 174 172 171 172 170 172 172 170 171 171
 165 164 153  83  54  43  50  44  24  22  39  29  48  53  55  54  42  38  35  45  59  40  32  30  30  34  60  59  42  36  49  66  69  65  50  22  33 111 133 150 147 116  29  31  75  71  67  58  47  52  59  66  59  45  40  38  45  69  66  52  40  40  47  56  62  62  52  37  24  24  25  48  50  53 103 155 169 170 170 171 173 172 172 172 171 172 170 170 171 170 171 170
 164 163 156 109  58  45  49  40  24  23  37  29  47  55  60  52  42  34  33  53  71  59  38  34  38  46  59  55  53  58  63  70  68  61  43  21  47 118 138 156 153 129  50  26  59  73  69  66  64  61  59  60  58  55  53  51  53  60  63  68  65  62  62  68  80  84  80  51  25  27  28  30  46  56 108 160 169 170 170 170 171 171 172 171 170 171 171 171 171 171 169 170
 163 163 159 132  60  45  41  30  19  23  38  35  51  55  58  53  46  45  46  52  54  56  55  54  54  55  53  52  50  55  60  65  65  67  29  22  65 115 135 157 150 130  76  25  39  83  80  73  63  58  52  50  51  51  52  52  54  61  68  77  79  81  85  91 103 107 102  58  28  33  34  32  41  58 127 157 169 170 171 170 171 170 170 170 170 171 169 169 168 169 169 170
 164 164 162 150  72  44  32  25  18  22  38  44  59  63  59  55  56  55  55  55  55  58  56  56  54  53  52  53  53  59  64  67  69  61  23  26  87 116 129 155 153 132 105  32  24  75  93  94  86  76  62  52  48  46  48  49  52  55  64  71  78  88  97 108 121 121 113  45  35  43  40  36  45  69 145 163 166 169 170 171 171 170 170 170 169 169 169 168 169 169 168 169
 162 164 163 157  95  50  29  24  24  26  36  61  70  69  64  62  62  58  56  55  53  54  52  51  51  52  56  61  65  67  70  72  76  41  24  41  98 118 130 156 154 132 116  57  28  38  91 102 100  95  82  69  59  54  50  48  51  55  63  71  78  89 104 117 125 120  68  28  67  54  46  44  47  72 145 159 166 170 170 170 170 169 168 171 170 169 169 169 168 169 168 168
 164 164 164 160 124  59  32  28  28  40  27  69  82  80  73  68  62  56  51  50  49  51  53  54  58  64  68  72  73  74  74  73  61  23  21  72 106 118 131 154 155 137 122  99  32  27  40  86 101  99  88  80  75  72  70  67  68  70  76  85  89  97 102  99  80  46  31  68 107  70  49  50  55  86 148 165 168 170 169 167 169 168 169 171 170 169 168 168 169 168 169 168
 164 163 164 162 153  73  41  31  33  64  24  41  87  88  83  76  69  59  56  56  58  63  66  68  69  73  78  81  76  76  72  56  27  27  40  95 110 118 126 141 145 137 126 118  74  47  32  24  41  61  68  70  71  75  73  70  70  69  67  65  59  48  38  38  55  85 116 122 115  83  52  52  62  92 158 165 168 169 168 168 170 168 169 171 169 169 169 168 168 169 169 168
 162 163 163 162 157  99  50  34  39  78  60  27  41  63  76  73  69  65  65  64  67  70  74  73  76  74  66  60  51  40  31  27  41  44  73  99 109 119 122 131 135 132 129 126 110  69  75  72  59  49  46  43  41  46  46  50  49  52  57  65  74  86  98 110 119 128 128 126 119  94  58  55  69 103 159 165 167 168 169 169 168 167 170 170 169 169 169 168 169 168 168 168
 162 162 161 162 159 123  58  39  49  82  86  84  64  43  33  29  29  33  33  33  35  36  30  29  30  33  35  38  42  53  58  66  57  62  89 104 113 118 118 124 129 131 131 128 120  98  75  82  82  84  84  84  86  91  93  96 100 102 104 106 110 114 117 121 123 128 131 125 120 103  61  53  76 129 160 166 168 169 169 169 168 168 169 169 168 169 169 170 168 167 167 167
 161 162 162 161 159 143  74  42  53  82  87  93  94  90  84  76  72  68  64  62  66  68  71  74  76  74  76  78  77  73  67  60  60  83  96 104 112 113 113 119 124 123 129 133 126 116  97  84  78  75  81  86  89  98 101 103 108 109 112 114 115 121 124 126 130 131 131 127 120 107  63  51  76 150 164 168 168 168 167 167 166 168 167 168 167 168 169 167 168 167 167 166
 160 161 162 162 160 153 100  46  55  81  87  95  95  95  92  86  82  79  74  73  72  73  74  75  76  75  76  76  75  70  62  61  88  96 101 109 114 110 109 116 119 118 123 137 136 125 120 116  81  71  74  82  89  95 104 108 110 112 115 118 120 123 126 129 131 130 131 128 122 111  68  53  80 154 165 166 166 167 167 166 166 168 168 167 167 167 167 166 166 167 166 166
 160 161 161 161 161 158 133  46  57  82  89  93  93  96  97  93  89  86  82  81  81  78  75  75  75  74  75  71  66  62  59  86  96  94  94  98 106 107 110 111 110 108 112 127 131 120 124 125 116  72  68  76  85  89  97 104 109 112 118 121 125 126 126 130 130 130 130 127 124 112  73  53  87 154 164 167 167 167 167 166 165 166 167 167 169 167 167 167 166 166 166 166
 160 161 161 161 160 159 139  57  62  84  88  91  92  97  95  94  91  92  91  86  86  84  80  79  79  79  73  70  63  59  68  90  88  82  82  80  89  88  90  95  94  97 100 102 101  94 100 115 122  88  62  71  79  85  93  96 103 110 114 120 125 127 127 130 131 131 128 128 125 115  76  56  87 154 163 166 166 168 166 165 166 165 166 166 167 166 166 166 165 166 166 165
 160 160 161 161 160 157 140  67  62  83  92  92  92  94  94  94  95  95  95  92  95  90  89  89  88  90  86  81  70  64  71  80  75  69  65  67  72  75  79  78  81  83  83  83  77  74  81  90  96  93  68  77  86  95  99 100 107 111 114 119 122 125 127 128 129 127 128 128 125 116  79  66  90 154 163 164 166 165 166 165 165 166 167 165 166 166 167 165 167 165 165 164
 160 160 160 161 158 156 149  71  63  86  94  92  93  91  91  92  98  96 100 101  99  98  96  96  94  94  89  85  74  67  63  65  61  57  52  54  58  62  64  66  65  68  71  72  60  53  57  66  73  78  74  81  82  89  94  98 105 110 117 121 124 126 126 127 127 128 129 128 126 118  87  73 102 155 163 164 163 163 163 164 164 166 165 165 165 167 166 167 166 166 166 166
 160 159 160 161 158 156 155  72  67  85  93  90  90  91  92  94  96  99 102  98  97  95  94  92  92  89  84  80  77  72  61  52  48  41  31  30  42  54  54  53  55  57  64  43  23  28  35  48  61  74  82  83  83  84  86  88  95 102 108 116 116 120 123 126 126 126 127 126 124 117  94  73 113 157 162 163 164 165 163 165 163 166 164 164 163 163 164 166 165 165 165 164
 160 160 160 160 160 155 155  81  71  85  90  90  90  92  93  97  99  97  96  94  93  90  90  86  83  83  79  79  80  78  60  44  39  33  28  28  28  39  47  45  46  51  52  39  29  31  36  44  53  75  92  92  86  83  82  83  87  94 100 107 109 111 117 121 125 125 124 122 121 116 102  86 122 157 161 163 164 163 163 163 162 164 164 164 163 163 164 165 165 167 165 165
 159 160 161 161 161 159 152  86  70  82  90  88  91  90  91  94  95  93  92  90  89  84  84  82  77  76  76  77  81  80  64  46  32  27  28  35  41  41  46  46  47  56  54  57  52  45  38  44  54  79 100 101  95  85  77  79  81  87  92  99 107 108 112 114 118 119 124 121 123 117 108  99 132 156 161 161 162 162 163 163 162 162 164 165 163 163 165 164 163 164 163 163
 160 160 159 160 160 159 157  91  72  84  91  88  89  89  89  89  89  86  87  85  84  82  79  77  74  72  73  77  80  80  71  58  49  42  40  44  48  48  44  45  52  49  48  57  62  59  57  66  77  88 101 105 103  95  81  75  76  84  89  93 101 104 106 108 111 115 120 120 124 118 106 106 135 158 160 162 162 162 162 162 162 161 163 163 163 162 162 163 163 162 162 161
 158 158 159 160 159 160 154  94  72  84  89  89  88  87  86  84  84  82  82  82  80  77  75  72  69  70  75  77  80  79  76  72  68  65  62  61  59  53  47  42  43  46  52  69  76  74  79  87  93  95 103 106 106 102  94  81  77  79  83  89  94  99 103 105 107 111 116 121 122 117 103 107 142 157 161 161 161 163 162 163 162 163 163 163 162 161 162 161 162 162 160 161
 157 158 159 160 159 157 153 100  75  85  90  88  86  86  84  81  79  78  79  77  71  70  68  65  66  70  75  80  79  79  80  80  81  78  76  72  69  62  57  50  47  49  55  72  85  88  90  96 102 102 105 108 106 106 102  91  80  74  80  85  90  93 100 103 106 109 116 117 120 119 105 108 143 157 161 158 159 161 161 160 163 162 163 162 162 162 160 161 161 162 160 161
 155 158 157 159 158 157 155 102  80  83  89  87  84  81  81  78  75  74  75  72  68  66  63  61  65  73  77  79  79  81  82  85  84  82  81  78  77  70  64  57  55  57  65  79  89  98 101 104 104 108 110 108 107 104  99  94  89  77  76  81  85  90  96 102 104 105 111 114 117 120 106 104 138 155 159 157 158 158 160 161 161 163 162 162 161 161 160 161 160 162 160 162
 157 157 157 156 157 156 154 115  83  82  89  84  82  78  77  74  72  73  71  67  66  62  62  62  66  74  76  76  78  81  84  86  85  88  86  84  83  77  69  58  55  60  71  83  92 101 106 109 108 114 117 112 109 104  96  94  90  84  72  76  84  87  94 101 104 107 110 114 116 118 108  97 123 146 157 157 158 158 159 159 159 160 160 162 160 162 161 162 160 162 161 160
 159 158 158 158 156 159 153 127  85  79  87  84  80  77  75  72  72  68  67  65  62  61  63  66  69  73  72  77  80  85  88  88  88  91  86  86  85  83  79  69  67  70  76  85  96 105 111 114 120 122 122 117 109 105  99  92  92  88  77  76  83  88  93  99 105 105 107 112 116 118 106  92 100 127 152 156 158 157 158 158 157 157 158 160 160 161 161 160 161 160 160 159
 157 158 157 158 159 159 156 123  80  77  88  83  79  76  73  72  70  67  67  64  63  61  62  69  70  68  71  78  82  87  89  90  91  89  84  80  80  82  82  81  80  80  75  74  72  82  93 106 115 123 124 121 115 107  96  88  86  88  82  77  84  90  96 100 106 107 105 107 114 117 105  87  84 120 154 155 156 157 157 156 157 157 158 159 161 159 159 160 161 159 159 158
 157 156 157 156 158 159 157 117  80  78  88  81  79  76  76  71  72  68  67  66  65  65  67  71  69  67  70  77  83  89  88  88  85  74  64  57  53  57  62  63  64  58  56  52  51  52  56  62  74  91 102 108 107  98  83  75  75  83  85  81  86  93  96 104 105 103 105 104 110 113 101  89 109 145 152 154 156 156 156 156 156 156 157 157 160 158 158 160 161 160 160 158
 157 158 157 157 158 157 155 118  77  78  86  81  77  76  76  75  75  72  70  70  68  68  70  69  67  62  63  72  80  82  79  70  57  48  45  44  44  44  43  44  43  44  43  45  50  50  48  45  44  49  56  67  76  77  60  53  63  74  82  85  90  94  97  98  98  97 103 101 105 110 100  97 133 150 153 154 155 154 155 156 154 156 157 157 157 156 157 158 159 158 158 157
 157 157 156 159 158 158 158 103  74  78  84  81  79  79  79  77  73  74  76  76  74  71  70  63  57  52  52  60  66  63  50  43  40  39  40  40  38  36  39  40  35  38  40  38  40  43  44  45  50  50  45  46  46  48  44  54  69  75  80  87  91  98  98  98  96  96 101 101 104 110  98 102 139 151 153 154 153 154 155 155 154 156 155 156 156 156 155 156 156 157 156 156
 155 155 157 158 157 156 155 119  67  75  85  82  80  78  79  76  75  79  80  80  77  75  70  62  58  49  37  41  42  36  31  32  36  38  40  40  40  41  39  35  34  39  47  55  61  63  68  79  79  82  82  80  78  87  89  85  83  83  82  87  91  95  97  98  95  91  99 105 101 107  96 106 142 150 151 154 153 153 153 155 154 153 155 155 154 156 155 155 155 155 155 155
 155 155 154 156 156 156 156 154 118  80  84  80  80  79  76  75  72  77  81  82  82  79  76  71  72  65  54  53  50  42  42  49  54  59  60  61  65  64  64  61  62  65  68  68  70  69  70  75  80  86  91  99 102 108 107 101  92  90  85  86  91  91  93  94  91  94  93 102  99 104  93 108 142 150 150 151 151 152 153 152 153 154 154 154 154 154 154 153 154 154 154 153
 154 154 154 156 156 157 156 155 142  87  84  78  76  74  77  68  69  74  79  82  82  81  80  77  78  76  76  77  78  76  72  69  68  66  63  63  63  63  63  62  62  63  62  62  65  67  69  75  84  94 100 108 111 110 111 109 102  94  90  86  88  91  87  87  87  93  94  98  99 102  92 107 140 147 149 149 150 151 152 148 151 150 153 153 154 152 154 153 153 154 154 155
 153 154 155 155 155 154 156 154 149  93  80  79  75  72  74  71  70  71  75  78  80  79  77  77  78  83  84  85  82  82  80  77  71  68  68  64  60  60  56  56  56  56  59  60  62  67  67  72  80  90 100 107 110 111 111 114 110 101  93  87  86  88  87  88  89  94  95  94  98  98  91 115 140 146 147 148 149 149 150 150 151 150 153 152 152 153 153 151 152 153 154 153
 154 153 154 154 155 154 154 154 151 113  80  83  78  73  74  73  68  67  71  73  74  75  75  76  80  83  85  87  84  83  83  80  72  67  63  57  51  49  46  43  43  43  45  47  50  53  60  69  76  85  93 102 106 108 108 112 113 105  97  88  86  85  83  85  82  85  90  90  95  94  92 125 142 145 146 148 148 148 150 149 149 151 152 150 151 151 152 151 151 151 152 152
 153 154 154 154 154 153 153 153 151 124  78  85  79  74  74  69  65  64  66  72  74  74  75  76  80  82  84  83  84  82  81  82  80  73  71  65  60  55  50  49  48  48  48  50  53  54  60  69  77  82  86  93  96 102 107 108 109 106  97  90  84  82  81  81  78  81  84  89  92  88  94 131 141 143 144 147 147 147 148 147 147 149 149 150 150 150 150 149 150 150 152 150
 152 153 153 152 153 153 153 153 151 141  83  82  76  71  70  64  62  60  62  69  70  75  74  77  79  79  80  80  81  81  81  80  77  74  71  67  65  64  65  64  61  60  62  63  64  62  63  70  78  82  87  92  94  94 102 105 105 105 100  93  88  82  82  80  78  80  84  85  88  82 101 135 141 144 145 146 146 145 147 148 146 147 147 147 150 149 149 150 150 149 149 149
 151 151 152 152 153 152 153 153 153 147  98  77  74  71  67  63  62  58  62  64  69  70  74  77  79  79  79  80  81  82  81  81  77  74  73  72  72  73  72  72  70  69  70  70  71  72  73  76  81  88  93  94  97  98 101 103 104 104 102  94  90  84  82  80  82  84  86  83  81  76 108 137 140 142 144 144 144 143 145 145 144 144 145 145 146 146 147 148 147 146 146 147
 151 151 151 153 153 152 152 152 152 146 118  74  72  69  64  62  61  62  64  68  70  72  74  77  79  79  81  79  79  81  84  81  80  76  75  75  77  76  78  77  78  77  78  78  82  81  82  85  89  94  99  99 100 104 106 105 108 106 102  97  90  87  83  83  78  87  88  82  77  75 117 139 140 140 142 142 141 141 142 140 143 143 142 142 144 144 144 146 146 146 144 145
 151 151 152 150 152 152 152 152 152 146 130  80  65  63  61  63  62  62  66  68  71  74  74  77  79  79  80  77  80  80  83  84  80  81  79  81  83  84  87  88  89  90  92  95  99 100 102  99 101 106 108 106 103 107 110 108 107 108 105  96  90  87  85  87  79  81  84  80  69  85 125 138 140 139 140 141 140 140 140 142 141 142 140 142 142 145 145 144 142 143 141 144
 149 150 150 150 151 150 151 151 151 148 138 104  64  60  58  59  60  62  64  67  69  70  72  76  80  80  78  78  81  83  86  85  84  86  87  89  88  89  93  90  94 103 102 104 109 110 113 115 114 110 110 111 109 108 110 109 106 105 104  96  91  88  82  83  78  75  75  69  68 106 134 139 139 139 139 139 139 138 139 141 139 140 143 141 140 142 143 141 142 140 141 142
 149 149 148 150 149 150 150 149 150 149 146 134  74  58  54  54  54  59  63  66  67  71  74  76  81  80  82  82  85  86  87  88  88  89  91  92  90  93  96  93  98 103 102 106 108 110 115 118 116 113 113 114 114 113 108 105 103 102 101  95  91  87  78  77  75  75  66  56  70 127 139 138 138 139 139 139 138 138 138 138 139 139 139 140 140 139 139 139 139 140 141 142
 148 148 147 147 147 150 147 148 149 146 148 144 110  61  50  52  50  55  60  64  67  67  71  74  77  79  82  82  83  87  88  88  90  92  90  91  90  91  94  95  96  99 101 104 107 108 112 114 114 114 114 118 116 114 106 103 102 101  96  92  88  84  81  75  74  71  59  58 102 133 137 138 137 138 138 139 137 137 138 137 137 137 138 138 139 137 138 137 138 139 139 140
 146 147 146 146 146 146 148 146 146 146 145 145 140  75  49  46  48  49  54  57  62  64  66  69  72  74  76  82  83  85  87  91  95  92  89  88  88  90  89  90  91  94  97  99 104 105 110 115 114 112 114 115 116 114 108 103  98  98  93  90  84  78  76  75  67  59  51  65 124 135 137 137 138 136 136 137 135 136 138 135 135 134 135 135 137 136 136 136 136 138 138 138
 145 146 146 145 146 146 146 146 145 146 144 142 140 117  46  44  44  46  48  51  60  60  63  65  67  70  74  78  81  84  87  91  92  88  86  86  88  88  88  87  85  82  87  89  94 100 105 112 113 112 113 114 115 108 105 102  97  91  86  84  79  73  71  70  64  52  52 100 130 135 136 136 136 135 134 134 133 134 134 133 134 132 132 131 133 133 133 135 135 135 135 135
 144 145 146 145 145 144 144 145 143 143 143 143 142 137  95  40  40  42  43  48  52  57  58  61  62  65  69  74  78  86  83  84  87  88  84  82  85  84  83  81  76  75  73  79  85  93  96 102 105 107 107 105 104 101 101  96  92  85  83  78  74  68  62  59  54  46  65 114 129 133 134 132 134 135 134 133 132 133 133 131 132 132 131 130 130 132 132 132 133 133 133 133
 143 144 143 144 144 143 142 145 144 141 140 140 141 139 132  73  39  41  43  44  46  49  52  54  56  61  62  67  72  77  79  78  81  83  80  78  78  79  78  75  68  64  62  71  76  82  84  89  91  96  94  92  94  91  89  89  82  80  75  70  69  63  57  51  47  55  61  33  67 104 127 131 133 132 133 132 131 131 132 130 130 131 131 130 130 131 131 130 130 132 130 131
 141 142 141 140 140 142 141 142 140 139 138 138 138 137 136 119  56  38  37  39  43  44  46  50  53  55  56  58  63  62  65  68  69  73  72  70  71  68  67  64  59  55  58  62  64  69  70  77  78  81  81  81  81  81  79  76  73  69  66  61  58  54  51  43  51  80  78  31  31  44  58  97 120 129 129 128 129 128 127 127 128 126 127 129 128 128 128 129 130 130 130 130
 139 139 139 139 140 140 139 139 138 138 138 136 135 134 132 120  71  33  33  32  35  36  38  42  43  45  46  48  51  54  58  63  57  59  62  62  62  58  57  53  51  50  53  53  56  60  60  65  62  64  67  69  67  66  67  61  61  58  53  54  53  51  48  44  72  94  91  84  42  30  38  39  49  74 105 124 125 125 126 125 126 126 127 127 127 128 128 127 129 129 129 130
 139 138 138 138 137 138 136 137 138 137 135 134 132 116  72  35  30  24  38  29  29  30  32  31  34  38  39  41  42  44  48  51  49  48  48  50  52  50  51  46  45  47  47  48  51  51  54  58  54  52  51  52  55  53  50  48  49  49  47  47  50  46  44  60  88  97 104  80  84  41  30  34  36  37  37  47  70  98 118 123 124 125 125 126 125 127 127 128 127 126 126 129
 137 138 138 136 136 135 134 135 135 134 129 107  58  31  32  26  21  25  61  39  25  27  28  27  28  30  32  32  31  34  38  42  41  38  38  42  41  39  44  40  40  40  42  43  43  40  47  49  50  42  41  40  41  39  36  36  39  42  45  46  45  43  53  80  91  96 106  94  80  68  28  27  32  33  32  29  31  29  43  88 116 120 121 124 122 122 125 125 124 125 125 124
 136 136 136 135 134 133 133 133 130 107  56  28  28  26  23  20  17  54  63  55  35  24  22  25  24  25  27  26  27  29  30  36  35  30  32  33  34  32  38  32  33  34  34  36  35  34  37  39  38  33  32  31  29  30  29  32  36  42  46  47  44  50  72  85  92  99 105 106  76  71  46  24  28  31  28  28  26  27  30  35  51  78 106 119 122 123 124 123 123 124 124 124
 136 135 134 133 134 129 130  92  47  25  26  23  22  20  18  17  26  66  64  60  52  34  25  20  23  24  23  23  25  27  27  28  29  25  28  26  28  30  30  28  29  30  28  30  30  28  28  32  28  27  26  24  26  26  28  34  37  43  47  44  48  69  81  87  91  97 105 108  81  75  59  25  26  29  31  28  27  25  25  28  32  36  37  48  72  96 116 121 122 123 124 123
 133 132 132 130 116  75  40  28  27  22  20  19  18  17  16  16  38  68  66  61  58  48  33  24  22  23  23  23  23  24  25  22  25  22  23  21  24  24  22  22  24  24  26  25  26  25  23  24  25  24  22  25  25  26  28  34  38  44  43  44  63  76  80  86  94  98 107 110  96  73  61  32  22  26  28  28  25  23  25  25  28  29  31  31  35  33  36  53  84 114 119 121
 130 128 101  55  31  28  25  22  20  18  19  17  17  15  15  15  49  68  65  62  59  55  42  30  23  20  22  21  20  21  22  20  22  18  18  19  19  20  16  18  20  20  23  23  21  23  21  21  21  24  23  24  25  27  30  37  39  44  43  58  71  74  78  87  95  97 107 111 106  74  65  38  21  23  26  26  25  22  23  21  24  27  28  26  29  28  28  29  32  45  86 117
  89  41  26  26  25  22  19  18  18  16  16  16  16  15  14  17  56  67  65  61  60  56  50  39  30  23  23  23  22  22  24  22  20  17  18  19  18  18  17  19  19  19  22  21  23  24  23  24  24  24  23  26  26  28  33  38  40  43  58  68  74  75  77  89  91  98 108 112 108  76  66  42  21  22  24  25  23  24  24  21  22  26  26  27  27  27  26  27  27  30  33  49
  29  24  22  21  19  17  19  18  17  16  16  15  15  14  13  18  58  66  65  61  58  56  54  50  42  33  29  24  21  23  23  21  20  19  20  21  19  18  20  20  21  21  22  23  23  24  23  25  25  25  26  26  28  32  36  38  42  56  67  69  74  75  80  87  92  97 108 112 112  82  70  46  22  21  24  24  24  23  21  22  21  23  24  26  26  26  26  26  26  27  28  30
  20  19  19  19  17  16  17  17  16  15  15  14  13  12  14  17  62  68  65  61  58  54  53  51  49  44  38  33  26  24  23  21  22  22  21  22  19  19  20  20  20  23  21  21  22  22  24  24  25  26  27  26  29  34  39  40  55  66  68  69  74  78  82  86  91  96 105 111 113  85  70  48  24  21  22  20  22  22  23  22  21  21  21  25  26  25  25  25  26  27  26  27
  18  17  18  17  16  16  17  17  15  15  14  13  13  12  13  16  60  64  64  62  58  56  52  51  50  48  45  40  32  26  24  24  24  24  22  22  19  19  19  19  21  20  20  20  21  21  20  22  24  25  28  30  34  38  41  53  65  67  68  71  76  79  83  86  91  97 104 112 112  78  64  45  23  20  20  20  20  21  23  21  20  20  20  22  24  24  25  24  24  26  25  26
  16  17  16  15  15  15  16  16  12  12  12  12  12  13  12  13  55  66  63  61  58  54  53  52  51  52  48  46  39  34  27  24  24  26  25  23  21  20  18  19  21  20  20  20  21  20  20  21  25  27  31  38  41  46  54  64  65  66  69  74  75  80  83  87  90  96 103 109 108  71  60  46  22  20  20  20  21  21  23  22  20  20  20  20  23  24  24  24  25  23  23  23
  16  16  16  16  14  13  14  14  12  11  11  12  12  12  11  11  48  64  61  60  58  56  54  53  52  51  49  49  46  39  34  27  24  24  25  26  25  23  21  21  22  21  19  20  21  21  22  24  26  30  34  38  44  52  62  64  64  66  68  72  77  81  84  87  90  96 101 106 104  68  54  38  21  18  19  20  20  20  22  22  20  20  20  20  22  23  25  24  24  22  23  22
  17  16  16  15  13  13  14  14  12  11   9  10  10  12  11  12  32  62  62  59  58  56  53  51  51  51  52  52  48  45  40  32  27  25  26  27  28  26  26  25  24  25  23  24  25  23  25  27  30  36  40  47  52  60  61  63  65  66  69  73  77  82  85  87  92  97 102 105  95  64  51  32  18  18  19  18  19  20  21  21  20  19  20  19  22  21  24  23  22  22  22  21
  15  14  14  15  13  14  14  14  12  12   9   9  10  11  10  10  21  60  65  60  58  57  54  53  52  50  50  52  50  50  47  40  34  28  28  27  27  29  30  27  27  27  26  26  26  26  27  31  35  39  43  50  57  62  61  62  66  67  71  74  76  78  83  86  91  96  99 101  81  58  47  26  18  17  18  18  20  19  20  20  19  19  19  19  19  20  22  23  22  22  23  21
