P2
# Generated by OpenCV 3.4.0
92 112
255
 153 154 154 155 154 156 155 156 157 157 157 157 157 157 158 158 158 158 159 158 159 159 159 160 160 158 158 141  97  77  86 100 128 143 148 154 158 159 161 161 160 160 159 158 157 153 155 158 159 161 158 158 154 153 151 157 163 164 163 164 165 166 166 165 166 166 166 167 165 166 165 165 166 166 165 165 165 164 165 164 163 164 164 164 164 163 164 164 162 163 164 162
 153 155 156 156 156 157 156 157 156 157 157 158 158 157 158 158 159 159 158 159 160 159 159 160 160 158 138  64  49  47  55  62  69  98 126 145 152 153 152 150 154 157 151 151 142 144 146 143 140 138 137 132 132 132 141 153 159 161 162 163 164 165 165 166 165 165 166 166 166 166 166 165 166 166 166 165 165 164 165 166 166 165 165 164 165 164 165 165 165 163 164 161
 153 155 156 158 156 158 158 157 158 159 158 157 158 158 159 158 157 159 158 160 161 159 157 159 159 151  61  42  35  40  43  48  48  56  81  92 108 115 110 106 105 107 101 102 110 115 108 105 102 106 110 110 114 123 122 133 151 155 155 159 164 166 165 165 166 166 167 165 167 166 166 166 166 167 166 166 167 166 165 166 166 166 165 165 166 165 165 165 165 165 164 162
 153 156 157 157 156 156 158 158 157 158 158 158 158 158 159 158 158 159 158 159 160 159 156 156 153  86  42  32  35  41  41  46  45  48  55  65  70  78  93  97  89  85  79  78  76  80  80  90  93 100 104 117 123 129 130 135 143 147 154 155 155 155 155 164 166 165 165 165 166 166 167 166 167 166 166 166 167 167 166 165 165 166 167 165 165 167 165 164 164 165 166 164
 155 156 157 156 156 156 158 158 157 158 159 159 159 159 159 159 159 159 158 158 160 158 151 134  95  49  41  36  39  31  31  41  41  44  50  60  69  68  66  74  78  77  78  75  81  81  78  84  86  89  92  96 103 107 116 121 132 136 139 147 152 157 155 151 158 163 165 166 165 166 166 166 166 166 166 167 167 166 167 166 167 166 166 166 165 165 165 165 164 166 167 166
 157 157 156 158 156 157 157 158 157 158 159 158 160 159 158 158 158 158 156 158 151 136 101  78  59  45  42  40  32  24  27  34  44  40  40  46  55  65  67  66  69  70  70  71  75  82  78  80  80  82  85  86  86  91  95  97 100 108 111 118 124 136 146 150 155 158 162 164 166 166 166 166 167 166 167 167 166 166 166 166 166 166 166 166 165 164 166 165 165 165 166 166
 157 158 157 157 157 157 157 158 158 157 158 158 160 159 158 157 156 151 144 129  97  70  63  58  46  44  40  33  25  18  23  23  27  39  42  38  37  41  51  58  68  70  68  64  68  71  69  73  80  82  82  83  82  84  84  84  84  88  88  90  96 100 113 128 138 149 156 163 164 166 167 168 167 166 166 166 165 166 165 165 165 165 166 167 166 164 166 165 165 165 164 165
 156 157 157 157 157 157 158 157 157 158 157 157 157 154 152 144 129 109  94  69  60  55  50  48  42  34  32  26  21  17  16  17  21  22  29  41  32  30  33  37  43  47  53  56  59  63  66  67  69  69  65  64  62  72  76  76  74  71  72  70  73  73  79  90 108 127 144 155 161 166 168 168 167 166 167 167 167 165 165 166 166 165 166 166 166 165 165 165 166 166 165 164
 156 157 157 156 156 157 158 158 156 156 155 151 146 129 100  92  95  84  58  50  49  49  48  39  31  28  22  17  16  15  15  16  17  16  17  25  38  31  29  29  31  31  33  35  40  42  49  56  59  66  68  65  61  65  69  70  70  69  67  60  54  52  56  67  74  84  99 137 157 162 166 167 166 167 167 166 168 166 167 167 166 166 166 166 165 166 165 166 166 165 166 165
 156 157 158 156 156 156 157 157 154 150 139 114  90  79  88  87  68  59  54  53  46  41  34  30  26  20  17  16  17  15  17  15  16  17  16  16  19  31  30  28  26  26  26  25  26  28  33  33  31  31  37  40  40  40  41  48  63  74  73  68  61  55  54  53  58  70  82  96 136 158 164 166 167 167 166 168 167 167 167 167 166 166 165 166 166 166 166 167 166 165 165 165
 157 156 157 157 154 151 150 149 133 108  89  78  66  63  59  52  52  51  48  43  35  31  31  25  18  16  16  16  16  16  18  16  16  15  16  14  15  18  30  31  30  29  28  33  33  28  24  25  30  29  28  29  32  31  29  33  44  51  56  65  60  60  60  62  65  65  71  77  84 120 157 162 166 167 167 168 166 165 165 165 166 167 166 167 165 167 165 167 167 166 165 165
 156 157 157 158 157 151 149 130  90  76  61  58  58  52  40  34  38  40  34  30  27  26  23  18  16  16  15  17  17  16  15  15  15  16  15  14  15  15  17  22  26  24  23  20  29  40  45  40  30  27  28  30  27  26  27  32  37  40  44  45  51  67  69  67  70  67  67  65  64  75 115 158 165 167 166 166 166 166 165 166 165 167 167 165 164 166 166 166 166 166 166 166
 156 157 157 157 156 148 137  89  61  53  54  65  51  44  36  31  29  29  27  24  21  17  18  17  17  16  16  16  18  16  15  14  15  15  14  14  13  14  14  15  20  18  16  19  23  24  24  34  42  43  40  31  28  29  29  28  30  32  40  48  49  46  62  66  61  60  64  64  58  58  71 130 163 166 167 167 166 166 166 165 166 166 166 166 166 167 167 166 164 165 166 166
 156 157 157 156 156 142 118  75  47  43  48  44  44  45  36  30  26  24  20  18  15  15  17  16  16  17  16  17  17  16  14  14  14  15  14  14  13  13  14  15  17  16  14  15  16  21  25  20  16  21  32  33  21  18  20  24  27  27  32  42  49  52  40  52  58  56  57  58  60  61  64  84 148 163 166 167 165 166 167 167 166 167 166 167 166 166 167 165 165 164 165 166
 157 157 156 156 151 137 105  64  43  42  45  46  33  30  31  27  23  20  16  16  15  15  15  15  15  15  17  17  18  17  16  14  14  13  13  13  14  15  16  14  15  14  16  14  15  14  13  17  18  15  18  25  27  24  17  16  20  27  28  31  37  44  42  38  52  55  54  57  60  64  68  74 103 145 162 167 167 165 167 167 166 166 165 166 166 166 166 167 165 165 164 165
 157 156 157 157 153 145 129  73  46  43  44  40  40  45  32  25  20  17  16  16  16  16  15  15  15  15  16  15  17  17  17  15  14  13  14  14  14  14  14  15  14  14  15  15  14  14  14  15  15  15  14  15  20  23  18  15  15  17  23  26  30  34  36  36  43  51  53  56  64  66  64  70  77 118 148 163 166 165 166 166 167 167 166 165 166 167 167 165 166 166 166 165
 158 158 157 156 154 142 136 114  55  50  44  42  42  39  44  37  27  17  16  16  16  15  16  16  16  16  17  15  17  17  18  16  16  15  15  14  14  16  15  14  15  15  16  16  15  16  14  15  15  14  13  14  16  17  20  16  14  14  18  23  27  31  32  34  37  47  52  55  63  67  67  67  72  86 127 157 163 166 167 166 166 167 166 166 167 166 167 165 166 166 165 165
 156 157 156 155 155 151 140 127  88  58  46  42  44  40  37  43  37  26  20  17  15  16  17  16  17  17  19  18  16  17  18  18  16  15  15  16  15  16  15  16  16  15  16  17  20  21  20  21  18  15  15  17  15  14  19  16  14  14  15  19  24  27  30  32  34  45  51  53  56  63  69  67  67  75 103 145 163 166 167 166 167 167 167 167 167 165 167 167 166 166 166 166
 157 157 157 156 156 155 143 135 110  64  45  36  37  40  40  37  35  33  30  27  24  25  25  21  20  19  19  17  17  18  18  18  18  17  16  16  14  15  16  16  16  16  16  16  15  16  16  18  20  22  20  17  16  15  15  18  15  15  15  18  22  26  30  30  34  43  46  53  53  54  64  63  66  71  87 129 156 164 168 167 166 167 167 168 168 165 167 166 166 167 165 165
 157 157 157 157 156 158 152 134 126  92  54  41  32  31  34  37  36  30  30  30  26  21  18  16  18  17  19  18  18  18  18  20  19  21  18  19  17  16  16  16  16  17  16  16  16  18  17  19  18  16  18  20  18  17  16  15  18  15  15  18  21  25  27  29  32  39  41  51  52  51  54  60  65  70  76 100 147 161 166 166 166 167 167 166 166 165 167 165 166 166 166 166
 157 157 158 155 156 159 155 147 127 119  93  56  41  31  30  28  30  29  30  30  30  22  19  19  19  20  19  19  18  18  20  19  20  22  23  22  23  21  19  18  18  18  17  17  18  19  18  19  18  17  17  16  17  19  18  16  17  17  18  19  17  18  22  25  27  31  37  47  53  50  48  57  63  68  73  88 130 157 164 166 167 167 167 167 167 165 165 166 166 166 166 166
 157 158 158 158 157 157 158 153 146 119 114  92  54  38  29  27  26  28  29  31  31  29  26  25  24  25  23  22  22  20  23  23  22  20  23  23  22  21  23  22  21  21  20  19  19  21  23  24  24  23  21  19  18  18  19  22  20  20  17  17  18  18  21  24  28  29  34  42  48  47  51  53  58  65  72  76  96 136 158 166 167 166 166 168 166 166 166 165 166 166 165 166
 157 158 158 158 158 158 157 154 151 145 121  85  56  41  33  29  29  28  23  26  31  32  31  29  29  29  26  24  24  22  22  23  24  24  23  24  25  25  23  25  25  24  24  22  22  23  26  28  28  27  26  22  21  20  20  21  26  27  23  21  22  23  24  21  23  29  31  37  46  42  46  52  54  64  67  75  81 116 153 164 167 166 166 166 166 166 167 166 166 167 164 167
 158 158 158 158 159 158 156 157 150 155 145 103  54  39  34  30  29  26  24  21  19  24  26  29  31  30  28  26  25  27  27  30  30  30  29  29  30  31  29  28  27  29  27  27  28  30  30  32  32  30  29  28  27  25  24  24  24  29  31  25  21  20  22  24  27  28  30  35  44  40  39  45  51  57  60  66  71  94 143 160 164 166 166 167 166 166 167 166 167 167 166 166
 159 159 158 158 158 158 156 156 154 152 145  72  50  42  36  30  29  26  23  23  22  22  22  23  26  28  29  29  30  32  36  40  43  47  46  43  43  42  42  38  34  32  31  32  32  38  41  41  41  39  34  34  31  28  28  28  27  26  30  28  24  24  26  28  29  29  30  32  40  40  38  38  47  52  56  61  67  80 118 151 163 165 166 166 166 167 166 167 167 167 166 166
 159 159 158 160 160 160 158 157 152 149 117  62  49  45  38  32  30  28  22  21  22  21  22  24  27  28  31  35  39  43  51  54  58  62  61  62  59  57  55  47  40  43  44  40  41  44  45  47  48  46  43  39  37  34  32  31  29  29  30  32  28  21  21  26  31  31  31  31  38  41  38  38  45  48  53  56  61  73  92 138 161 165 167 167 167 166 167 167 167 167 166 165
 160 160 161 159 160 160 159 157 154 146  89  57  49  40  35  34  31  28  25  24  23  23  25  29  33  37  41  46  53  59  62  66  66  69  68  69  70  66  65  61  58  61  59  57  54  55  55  52  51  49  48  45  43  42  40  37  35  31  29  30  29  28  23  24  26  28  31  31  34  36  37  39  45  49  53  57  57  66  81 116 157 164 166 167 167 167 167 166 167 166 166 167
 161 160 161 160 161 161 158 152 150 116  70  52  42  34  34  32  29  29  27  24  24  27  31  36  42  45  49  55  62  67  68  73  74  73  73  73  73  72  72  73  72  70  69  66  65  65  64  61  59  57  56  52  48  46  44  42  41  36  33  30  30  29  27  26  28  28  29  30  32  36  36  42  45  50  52  58  64  67  71 105 149 163 166 167 166 166 166 167 167 166 166 166
 160 162 162 161 160 158 157 154 136  93  62  46  36  34  33  31  32  30  28  26  28  32  38  44  48  52  57  61  64  69  73  77  77  77  77  76  75  75  77  78  82  81  77  77  76  73  72  69  66  62  61  59  54  51  48  46  45  42  39  34  32  31  30  30  30  30  30  30  32  34  36  38  46  51  53  57  66  69  71  79 132 160 167 168 167 167 167 167 167 167 166 166
 162 161 161 159 158 160 161 152 111  80  50  40  35  34  32  33  30  27  29  30  34  40  49  57  60  65  66  67  71  76  78  80  80  81  80  80  79  82  81  81  82  80  80  81  79  78  76  76  71  69  66  64  62  59  56  51  48  47  42  40  36  35  32  32  33  32  31  31  30  31  33  36  42  48  55  58  65  73  74  75 108 154 166 167 167 168 168 167 166 167 167 166
 161 162 160 159 161 163 161 138 101  58  42  35  35  33  32  31  27  25  26  30  39  47  58  65  69  74  75  76  78  79  81  82  83  82  82  83  82  82  82  81  81  82  80  79  79  79  77  75  76  76  72  67  67  64  61  56  53  51  47  45  42  40  37  38  36  36  35  33  33  33  35  36  41  45  51  61  63  62  69  73  88 139 163 167 167 167 167 167 166 167 167 167
 163 163 162 164 164 162 156 118  80  48  38  35  34  32  29  26  25  23  27  36  46  54  65  73  78  81  81  82  81  82  82  82  83  82  83  85  83  85  86  85  83  81  80  80  80  80  79  77  75  75  76  70  69  68  66  62  58  54  51  49  48  45  44  43  43  39  38  38  36  36  37  37  40  46  50  58  63  56  60  66  81 120 159 167 168 167 167 166 166 167 166 167
 162 163 164 164 164 163 150 109  60  42  36  35  29  26  26  24  24  24  31  43  52  59  69  79  82  85  85  85  85  83  84  84  82  85  85  85  85  87  86  84  84  81  81  81  81  81  80  76  76  76  75  74  68  71  69  65  64  60  56  53  51  50  49  50  48  44  43  42  39  37  37  38  39  45  51  54  60  59  57  60  74 111 154 167 168 167 167 166 167 167 167 168
 165 164 165 165 164 161 145  89  49  40  38  31  27  26  24  23  22  26  34  49  62  66  72  80  86  88  87  86  84  83  84  84  85  88  87  84  86  87  85  86  84  82  82  83  84  83  80  79  78  78  75  74  73  67  71  69  68  65  61  58  55  56  55  53  52  49  48  47  44  39  37  37  38  44  49  52  57  60  60  62  74 111 157 167 168 168 167 167 167 167 168 167
 164 164 164 165 163 160 138  73  46  40  38  28  29  27  23  24  25  27  39  57  71  70  75  83  88  89  88  88  87  85  85  84  84  85  87  85  86  85  85  84  84  83  84  82  82  82  81  79  80  80  78  76  76  71  71  70  70  69  64  63  61  61  59  56  55  52  52  51  50  44  36  36  37  42  47  53  55  54  59  66  75 102 152 166 167 168 168 168 168 167 167 167
 164 164 165 164 162 162 131  70  44  41  33  28  27  24  23  23  25  30  44  63  77  75  79  87  88  88  88  88  87  89  87  85  84  84  87  86  86  84  83  85  84  83  83  81  81  79  79  78  81  80  80  78  78  76  73  71  73  71  69  66  64  65  65  62  59  55  54  53  55  48  38  31  32  36  42  49  54  54  54  63  72  87 145 159 167 169 168 168 167 168 168 169
 165 164 165 165 163 161 127  59  41  42  29  27  26  22  23  23  26  30  46  66  78  79  83  88  88  88  87  89  86  86  86  84  85  85  85  85  85  86  83  84  83  83  83  84  82  80  82  82  82  83  83  81  80  78  79  73  72  73  72  71  70  71  70  67  65  61  58  54  58  54  46  33  29  32  35  41  49  56  58  58  63  76 114 158 168 170 168 170 168 168 169 169
 165 165 166 164 165 160 120  55  43  41  29  25  25  23  23  23  26  34  53  69  78  84  86  87  87  87  87  88  88  87  85  85  85  87  86  84  84  85  86  86  86  86  84  84  84  82  82  81  82  84  84  82  82  80  81  78  75  74  75  73  73  73  73  73  69  67  64  63  60  58  52  37  29  30  31  37  42  51  57  60  63  71  99 144 165 168 170 169 168 168 170 168
 166 166 165 164 164 157 118  51  43  39  30  28  24  23  24  23  27  38  56  71  80  86  88  90  89  90  89  89  89  88  87  88  85  84  84  85  86  86  86  85  85  84  82  82  81  83  81  80  81  81  82  83  82  82  82  82  82  79  80  80  79  79  77  76  73  71  71  70  66  63  54  42  31  29  33  37  40  43  49  53  60  65  94 139 158 167 171 170 168 169 169 169
 166 165 164 165 164 157 120  51  44  40  31  27  24  23  24  25  30  39  55  72  82  88  88  89  89  90  92  90  89  89  88  89  87  87  86  86  88  87  88  86  82  82  81  78  79  80  79  79  81  83  82  83  81  81  83  84  86  87  85  84  83  85  83  83  78  77  77  76  75  68  60  50  36  30  34  37  40  40  42  49  54  64  87 144 165 168 169 169 168 170 169 169
 165 167 164 164 165 157 127  49  42  38  30  25  23  23  24  26  29  39  57  74  81  86  89  89  90  90  91  90  89  87  88  89  87  88  88  87  86  86  87  83  82  81  80  78  79  77  77  78  82  81  81  81  83  82  82  85  88  89  88  88  88  88  86  87  85  86  86  85  84  78  67  55  41  33  35  40  42  41  41  40  47  54  70 127 162 167 168 169 168 168 169 168
 166 166 166 165 164 156 140  56  44  39  30  26  24  24  25  25  30  42  57  73  82  87  89  88  90  93  93  90  89  90  92  90  90  89  89  88  87  88  89  86  83  81  82  80  79  79  80  81  80  80  85  85  86  88  89  89  89  89  89  92  95  94  92  90  92  93  92  90  92  90  78  64  48  36  37  45  44  43  42  44  43  49  63 108 157 167 170 169 170 168 169 168
 166 166 166 166 164 155 147  75  40  41  32  26  24  24  24  26  32  43  59  74  81  85  89  88  89  91  91  92  92  93  94  93  94  90  89  89  88  88  88  87  83  79  80  82  81  78  77  78  80  79  78  83  87  88  88  87  87  89  90  94  99 101  98  98  97  98  97  95  96  96  88  75  54  40  32  41  45  44  46  44  44  46  61 110 150 167 170 169 170 170 169 168
 166 166 167 165 163 160 155  95  41  40  34  27  26  24  26  27  31  45  62  76  82  86  87  88  88  88  90  90  91  93  94  94  94  93  92  94  91  90  86  85  80  78  76  80  79  76  76  76  76  77  78  81  83  85  88  86  85  88  89  96  98 103 102 105 104 103 101 100 101  99  95  82  64  43  32  37  48  41  43  48  45  44  61 117 150 164 169 170 170 170 169 169
 167 167 167 165 165 164 162 127  48  40  38  31  28  27  25  25  31  48  65  76  83  84  86  86  87  86  88  86  88  90  88  87  89  87  86  88  88  87  87  85  80  78  78  82  80  76  74  76  75  78  80  81  82  83  83  84  84  85  87  94  96 101 103 105 105 107 106 105 105 105 102  92  75  49  32  32  45  41  35  42  49  46  56 128 154 167 168 169 171 171 170 171
 167 166 167 166 167 166 164 152  64  41  38  33  29  25  24  23  31  50  67  78  81  81  84  85  87  85  85  83  85  87  84  82  82  82  83  83  84  85  85  83  81  79  80  80  82  80  76  77  76  78  79  81  83  81  80  81  84  83  83  88  93  96 101 107 107 111 111 110 109 109 106 100  82  54  33  28  37  42  34  36  45  58  76 122 161 168 171 169 170 170 171 170
 166 166 167 166 167 168 165 158 104  42  41  35  30  23  20  21  31  52  70  80  82  83  85  86  85  83  80  81  81  81  81  78  79  78  79  79  80  80  80  79  79  77  77  78  78  76  74  76  76  78  80  79  76  76  76  77  78  80  78  83  88  90  94 102 106 111 115 115 114 112 108 104  88  64  37  26  31  39  36  34  42  66 102 143 164 169 171 170 171 168 170 170
 166 166 166 168 168 166 166 162 144  47  42  38  31  25  20  20  34  56  73  81  82  83  85  83  82  79  77  74  76  73  72  73  73  71  72  75  74  76  78  80  77  77  78  78  77  77  76  75  76  77  77  75  74  74  70  71  72  72  72  75  78  84  88  94  99 105 112 113 114 112 108 102  92  71  40  26  27  33  36  35  40  62 134 158 167 168 170 170 170 168 169 169
 165 166 166 166 166 166 167 164 159  86  45  39  31  23  19  19  35  58  72  80  83  84  83  81  81  77  75  72  68  68  67  66  66  66  67  67  69  71  70  74  75  74  74  74  75  74  72  72  73  72  71  68  65  66  66  64  67  67  65  67  72  74  83  88  92  95 101 100 103 105  99  97  92  74  46  28  25  29  35  36  38  48 138 163 169 170 170 169 169 169 169 168
 166 166 166 165 167 167 167 165 163 139  59  41  30  23  19  20  34  60  75  79  80  82  80  77  78  74  73  68  65  66  64  60  59  60  60  61  66  67  69  69  69  71  70  70  69  69  69  69  68  67  66  64  60  61  60  59  60  60  60  59  65  67  68  71  68  73  80  86  89  90  86  87  89  77  52  28  24  25  29  33  37  48 126 162 169 169 170 169 170 168 169 167
 166 166 167 166 166 167 166 165 165 156  86  47  30  24  19  20  35  60  72  75  77  71  68  67  66  63  60  57  59  56  56  54  52  53  54  55  57  61  63  62  63  67  65  65  65  66  66  65  64  62  62  59  54  53  50  49  50  49  49  48  46  47  47  46  46  51  53  59  66  66  70  73  75  73  51  27  22  21  23  32  36  50 114 158 167 167 168 168 169 169 168 166
 165 166 165 165 166 167 166 167 165 162 114  54  33  23  18  16  34  59  66  62  57  55  55  51  48  47  43  42  44  39  38  40  42  46  45  46  48  51  53  54  55  56  58  60  61  61  61  58  56  55  53  49  47  44  43  39  37  34  32  32  30  29  30  31  33  35  42  47  52  54  57  64  70  70  49  26  20  20  22  35  39  59 125 159 167 169 168 168 168 168 168 168
 164 166 166 166 166 167 166 167 167 165 145  70  36  22  16  16  32  57  63  54  48  42  40  40  38  34  29  27  28  26  27  26  28  31  31  35  39  41  45  47  48  50  49  50  53  55  55  52  50  49  45  41  36  35  33  30  26  24  25  22  22  21  22  24  26  29  35  41  45  49  53  58  63  64  46  29  24  20  22  49  48  79 145 163 167 168 169 168 168 167 167 167
 164 165 166 166 166 166 167 167 167 165 154  95  44  25  17  16  30  51  51  46  43  37  34  33  33  30  27  24  23  23  21  20  19  20  22  24  27  31  35  37  40  43  44  48  51  53  51  48  43  41  36  33  31  29  26  23  20  20  21  19  18  19  20  21  25  29  35  40  45  52  55  57  60  56  43  35  30  23  27  79  60 102 144 164 166 167 167 168 167 168 168 166
 165 165 166 166 166 166 166 167 166 165 159 132  54  35  19  20  31  46  47  41  37  33  31  31  29  28  26  24  24  23  22  21  19  19  19  20  22  23  24  27  32  33  39  46  48  49  48  44  37  35  31  29  26  23  22  20  22  23  24  25  24  26  27  28  31  36  44  49  53  60  62  58  56  51  47  45  38  26  29  89  78 134 159 165 167 167 167 169 168 168 167 166
 164 165 165 166 165 165 165 165 166 166 162 155  87  51  19  23  32  45  48  44  41  37  35  32  30  29  29  29  31  29  28  27  27  26  24  24  24  24  24  26  29  32  37  43  47  50  48  43  37  34  31  28  26  24  23  24  25  25  26  28  30  30  30  32  37  42  51  57  59  62  58  53  52  52  56  59  47  29  40 107  96 146 162 166 167 166 167 168 168 167 167 167
 164 165 164 165 165 164 165 166 166 165 164 162 122  64  20  28  42  46  53  51  49  48  43  38  36  36  36  38  39  38  36  33  31  30  28  27  26  25  25  28  30  34  41  44  49  51  51  48  43  42  38  32  27  24  23  23  24  25  26  28  30  31  31  32  36  41  45  47  49  48  43  43  44  50  60  60  45  31  51 108 120 151 160 163 164 166 167 167 167 167 167 168
 163 162 164 164 164 163 165 165 165 166 166 164 147  79  22  32  52  50  52  56  52  49  48  44  41  40  40  40  41  41  40  37  33  29  27  26  24  24  24  26  28  33  41  48  53  55  56  54  53  49  40  30  23  22  21  20  21  24  26  27  27  25  25  25  25  24  26  27  26  26  24  27  25  22  24  27  28  29  47 131 146 155 160 163 165 166 167 167 166 168 167 167
 163 162 163 165 165 164 166 165 165 166 165 164 154  93  26  27  37  36  33  31  29  27  24  25  24  23  24  24  23  24  27  26  27  24  24  25  26  24  22  21  24  29  40  51  58  63  64  65  63  52  33  23  22  23  21  18  20  23  26  26  30  34  38  42  46  47  47  48  43  41  40  43  47  36  19  16  15  18  29 124 156 160 164 164 166 166 166 167 167 166 165 165
 163 162 162 164 165 165 165 164 164 165 166 165 159  87  29  23  21  20  19  18  25  31  33  35  35  36  34  34  36  36  36  38  37  32  26  24  23  23  20  20  18  18  26  38  49  58  55  49  36  27  22  21  21  24  26  26  27  30  31  35  38  39  41  42  44  48  54  57  52  51  60  72  86  94  65  18  15  17  29 131 158 161 164 165 166 165 166 167 166 166 166 165
 162 162 164 164 164 164 164 164 165 165 164 165 160  86  28  23  19  20  49  63  62  58  53  52  53  50  49  46  49  48  47  45  41  36  36  37  38  40  45  40  29  16  18  22  24  26  26  24  20  14  18  30  30  32  27  23  23  26  28  30  35  40  45  47  48  49  50  50  54  63  76  92 101 104  90  24  17  18  30 140 161 163 161 163 162 164 166 167 166 166 164 164
 162 162 163 164 162 164 163 163 164 164 164 164 162 101  30  24  19  41  68  70  62  58  54  50  48  51  50  49  51  50  46  37  32  30  29  29  31  37  44  43  43  35  13  14  13  14  14  12  13  12  34  38  31  30  29  27  24  24  22  25  26  29  30  34  34  35  37  46  62  76  90 103 112 111  99  29  18  19  46 146 161 163 163 163 163 164 165 165 164 166 165 164
 162 163 162 164 162 164 164 164 164 164 164 163 161 121  27  24  19  51  76  79  68  62  56  53  46  38  36  35  36  35  31  26  24  23  25  29  34  40  42  42  44  45  13  12  15  18  19  17  13  12  41  50  39  32  30  30  28  27  26  25  24  24  24  27  30  33  39  54  71  85  98 110 114 113 100  29  19  41  78 153 161 162 163 162 163 164 164 164 164 165 164 163
 160 162 161 162 163 163 162 164 163 164 164 164 161 157  63  23  21  59 100  83  78  67  58  54  50  39  32  28  26  27  24  23  25  26  27  31  38  42  44  47  51  44  14  16  30  42  44  36  21  15  38  63  58  44  38  35  31  29  27  27  27  27  28  31  35  40  47  61  79  91 102 114 117 113  95  24  31  67  91 154 160 162 162 163 162 162 163 163 164 164 164 164
 161 160 162 161 162 163 163 163 164 164 163 164 161 161 149  54  24  52 119  88  83  73  63  56  51  43  42  35  32  29  26  27  29  28  31  37  43  48  50  51  50  40  13  20  61  77  82  74  41  14  31  64  75  65  51  47  43  41  36  32  31  33  34  36  40  50  62  76  86  95 106 115 114 109  93  30  41  77 107 154 161 161 162 161 162 162 162 162 162 162 163 163
 161 161 161 162 162 163 163 164 164 165 164 165 162 161 153  92  25  37 130  98  86  82  70  60  54  52  46  42  38  35  32  33  35  38  43  49  51  52  54  56  54  36  14  36  78  87  86  80  66  19  21  57  78  74  65  61  59  56  52  49  49  48  47  50  56  66  75  85  93 103 108 113 114 111  83  26  58  80 122 155 161 162 161 160 161 162 162 162 162 161 162 162
 160 161 161 162 161 163 163 162 162 162 163 163 163 161 156 120  32  26 127 103  91  84  75  67  60  56  53  51  51  49  47  48  50  52  55  58  57  57  58  55  48  28  15  48  80  90  92  86  80  36  16  42  69  76  73  72  69  66  66  64  61  58  59  60  67  73  80  88  96 105 110 113 112 110  67  23  80  93 138 156 159 162 161 160 159 162 163 161 162 163 163 162
 161 161 161 160 161 162 162 162 161 162 162 163 163 163 158 128  49  23 103 111  92  83  77  71  64  60  57  57  56  55  55  56  58  60  64  63  60  58  54  51  46  21  21  59  80  90  95  88  85  58  19  28  60  72  75  73  70  69  66  70  73  74  71  71  75  80  87  93 101 103 106 107 106 104  40  33  94 102 131 155 159 161 160 159 161 162 162 161 161 162 162 162
 160 160 161 160 162 161 162 161 161 161 161 164 162 162 160 125  66  24  64 115  93  83  76  70  65  61  60  58  59  59  63  64  66  67  65  65  60  55  50  49  40  15  37  66  80  89  91  90  90  76  34  19  45  67  71  71  69  70  70  73  80  84  83  81  83  87  88  92  95  95 100 101  97  57  26  63  96  99 123 150 159 160 160 160 161 161 161 160 160 160 161 162
 160 160 161 161 162 161 161 160 161 162 162 163 162 161 160 135  76  37  28  85  85  79  74  69  66  66  62  61  62  63  65  68  68  65  65  59  51  47  46  53  21  20  55  70  80  85  92  93  95  87  58  24  25  53  62  62  65  67  71  73  80  85  86  87  88  89  87  89  90  87  86  67  42  29  55  96  95  90 107 150 156 158 159 158 161 161 161 161 161 160 159 160
 160 161 161 161 162 161 161 161 161 161 162 162 163 162 160 128  80  67  23  34  63  78  77  69  67  64  64  64  65  65  63  62  62  58  55  50  48  59  54  40  19  41  64  72  81  88  95  94  95  90  77  49  25  25  38  46  55  57  55  61  65  69  68  65  71  67  62  58  54  47  34  39  55  84 103 100  93  87 129 154 155 157 157 158 161 159 160 159 160 159 160 158
 159 160 161 161 161 161 161 162 161 162 160 161 162 161 161 120  80  77  76  41  28  32  43  52  57  66  65  64  65  65  65  66  60  61  64  60  47  27  22  26  35  58  70  76  87  91  96  98  98 101  91  74  53  48  39  27  27  29  32  34  37  37  37  38  37  40  46  52  64  75  91  97  99 104 108 101  90 110 146 153 154 156 156 158 158 158 157 158 160 159 158 158
 158 159 161 161 161 161 162 162 162 162 161 161 162 161 160 129  73  75  83  78  74  61  50  42  40  37  35  35  33  34  32  30  30  29  32  31  33  34  38  40  50  64  71  77  87  94  97  94  95 105  99  86  71  56  58  46  41  42  44  49  55  61  68  72  79  85  90  94  99  98  97 100  99 103 109 101  90 107 148 154 154 154 154 154 157 157 157 158 159 158 160 158
 158 160 160 161 161 161 161 161 161 162 162 161 161 162 160 153  86  72  80  82  75  73  71  69  66  64  59  56  53  51  47  46  46  45  44  41  38  35  42  56  63  66  72  81  86  90  91  92  96 106 109  96  81  72  65  51  36  41  44  50  54  60  66  71  76  80  86  91  96 100  98  99  98 103 108 102  93 107 146 153 154 154 154 155 155 156 156 157 157 157 159 158
 159 158 160 161 161 161 161 162 161 162 162 161 161 161 161 156 107  72  78  82  76  76  75  70  66  63  59  57  53  51  48  47  47  43  43  39  36  36  56  66  66  69  76  79  84  89  89  89  94 105 114 108  94  88  86  76  38  40  42  48  51  54  62  68  74  78  83  87  93  98  99  98  98 103 108 100  93 108 146 152 152 154 154 154 153 155 156 156 157 155 157 157
 157 160 160 160 160 160 161 161 161 161 161 161 161 160 161 157 109  73  80  81  76  78  77  69  64  61  59  57  52  52  50  48  46  44  42  40  36  38  65  70  70  73  77  79  83  86  87  89  94 103 119 119 107 100  99  90  51  39  41  44  49  54  57  65  73  75  79  83  90  92  96  98  99 105 108  97  88 114 147 151 152 152 154 154 154 155 156 156 155 155 156 157
 158 160 159 160 159 161 161 161 161 161 161 160 161 161 161 157 116  77  77  80  78  77  74  66  63  64  59  55  52  51  50  49  49  47  44  41  37  42  63  69  71  76  79  78  80  81  83  85  88  94 109 120 108  98  93  88  54  40  41  43  46  49  54  60  68  71  74  78  85  92  93  95  98 103 107  96  87 123 146 152 151 152 153 153 154 155 154 155 154 154 156 154
 158 159 159 159 161 161 159 160 161 161 162 161 161 161 161 159 132  74  78  82  78  75  71  68  65  64  61  58  55  54  53  52  50  50  46  44  42  44  58  64  65  72  79  80  78  77  78  82  83  87 100 104  93  81  73  67  49  43  44  46  47  48  54  59  64  71  73  76  79  88  90  93  98 102 107  95  89 129 146 150 151 151 152 153 154 154 152 154 154 155 154 154
 157 159 160 159 159 158 159 160 161 160 160 159 160 161 161 160 143  78  76  81  77  75  73  69  66  65  64  62  60  57  54  54  52  49  47  46  46  48  48  51  53  60  69  74  75  74  73  76  76  78  86  86  70  56  52  51  50  49  49  47  46  49  52  58  63  71  74  76  80  85  89  95  96  98 102  90  91 133 146 149 151 150 151 151 152 153 152 152 152 153 153 153
 158 158 159 160 159 159 159 160 160 160 160 159 159 159 160 158 149  91  76  82  77  72  69  66  67  65  63  61  61  59  57  57  55  52  52  56  57  56  50  41  37  39  52  64  65  66  70  71  70  71  73  65  44  43  46  51  62  64  60  56  50  50  51  57  63  67  72  76  80  85  88  93  96  99  98  87  96 136 145 149 149 148 149 150 150 151 151 151 153 151 151 151
 157 156 156 156 158 159 158 159 159 157 158 160 160 160 160 158 152 104  74  80  75  70  68  66  66  65  62  61  61  61  61  59  57  56  58  61  63  60  52  44  37  31  33  48  56  58  58  59  62  63  63  52  49  51  53  57  68  72  72  71  65  60  58  61  63  65  68  74  78  83  85  85  92  97  98  85 102 135 144 147 147 147 147 148 151 150 152 151 150 150 150 151
 154 157 158 158 158 158 158 158 157 157 157 158 158 158 157 157 153 119  74  79  74  69  68  66  64  62  60  60  62  61  59  56  53  58  60  64  65  61  56  53  48  40  34  36  44  45  46  48  49  53  58  61  57  59  60  64  75  78  75  76  74  70  66  63  67  65  65  70  76  81  82  84  85  94  93  82 114 139 144 146 146 148 149 149 149 150 150 149 148 149 149 150
 156 155 156 157 156 157 157 157 158 156 156 158 158 156 158 157 153 129  76  78  75  69  65  65  63  62  60  60  60  58  55  52  53  59  61  65  65  64  59  56  54  50  46  43  40  39  36  39  41  45  57  66  64  67  71  73  80  80  75  74  73  73  73  66  66  68  67  70  74  79  81  82  84  90  93  91 131 141 145 146 146 147 148 147 148 147 150 149 148 148 147 149
 154 155 155 156 155 156 157 156 156 155 157 157 155 157 157 155 155 145  93  76  75  67  64  65  63  62  60  59  59  57  54  54  57  60  62  64  65  65  63  59  58  56  53  50  45  38  32  33  32  38  51  64  70  74  77  84  88  83  76  71  69  72  72  69  66  68  69  72  73  75  77  80  82  85  89  98 138 141 144 146 145 146 146 146 146 146 147 147 148 147 147 148
 153 155 155 153 155 156 156 156 155 156 155 157 157 156 155 155 154 150 124  72  73  67  65  63  63  61  60  58  56  55  54  54  58  59  58  60  62  66  64  62  61  59  56  54  50  42  34  32  33  36  47  64  75  82  84  88  92  87  79  67  63  65  70  71  67  67  69  70  72  72  73  76  78  82  82 110 137 140 143 142 141 144 144 144 144 144 144 145 145 143 145 146
 153 153 153 153 153 154 154 155 155 155 155 156 154 156 155 153 153 152 145  80  72  67  66  62  63  59  59  58  55  54  54  56  59  56  54  58  62  66  66  66  65  63  59  56  53  45  38  36  35  37  49  65  78  87  95  97  95  92  84  67  55  53  60  67  64  64  68  71  70  70  69  76  82  81  79 120 138 140 141 141 141 143 142 142 143 142 143 145 145 143 144 144
 152 152 152 153 154 153 154 154 154 154 154 153 153 154 153 153 153 152 149 104  72  70  63  60  60  58  58  58  55  53  54  56  55  50  49  52  60  66  67  68  68  66  60  56  53  50  44  40  39  41  52  69  82  91  95  94  92  90  82  56  41  40  46  54  60  65  68  71  70  72  69  70  76  76  81 133 139 140 140 140 142 140 142 142 143 142 142 143 144 142 142 141
 152 153 152 153 152 152 153 153 153 153 153 153 153 154 152 152 152 153 150 134  75  71  61  58  53  51  57  59  57  54  52  50  48  42  37  40  54  63  66  67  67  62  57  53  52  53  51  48  47  48  51  55  61  69  73  74  72  70  59  37  29  31  37  44  53  61  64  68  68  68  74  72  74  70  95 135 139 140 140 140 139 139 140 139 141 139 140 141 142 141 140 140
 151 151 151 151 152 153 152 151 153 153 153 153 152 152 152 150 151 150 149 144  92  67  60  56  51  50  54  57  57  54  51  46  40  34  27  27  37  48  51  51  46  42  39  37  39  42  44  44  42  40  38  37  39  37  36  36  44  50  59  57  44  38  40  42  47  55  62  64  64  65  69  68  68  67 117 136 139 139 139 139 139 138 139 138 139 139 139 138 139 138 139 139
 150 148 150 151 150 150 150 151 153 151 152 151 149 152 151 148 149 148 147 144 123  66  58  54  52  48  50  53  55  53  51  46  40  35  34  36  38  34  29  26  24  26  27  29  30  30  30  29  30  30  30  32  35  43  47  51  62  74  80  78  66  53  46  44  45  50  58  60  63  57  62  66  64  87 129 136 138 137 138 137 138 138 137 137 138 139 139 138 137 138 139 139
 149 148 147 147 148 149 150 150 150 150 150 149 147 148 148 148 149 147 146 145 142  84  57  54  47  43  44  47  51  50  48  44  42  43  46  50  48  47  44  40  36  35  34  33  32  30  27  24  27  28  31  36  42  50  56  65  73  81  86  82  73  68  55  48  46  49  53  57  58  58  63  67  56  90 130 137 136 136 137 135 135 136 134 134 134 133 136 137 136 136 136 137
 147 149 147 146 146 148 148 148 148 148 148 147 146 147 148 147 146 145 145 144 142 115  51  49  45  42  41  42  45  44  43  42  44  47  52  53  52  53  54  52  47  45  41  39  37  35  33  30  30  33  38  41  44  49  57  66  73  78  81  79  74  73  62  54  50  50  54  54  55  60  64  59  50  42  66 107 131 133 135 134 133 133 132 133 133 131 132 132 132 132 134 134
 146 147 146 146 146 147 146 146 146 147 146 146 147 145 146 145 144 143 144 141 132  81  43  43  43  41  39  40  41  43  44  42  45  47  50  53  51  54  56  54  49  44  41  39  37  34  33  34  34  35  38  39  41  43  50  58  66  72  74  75  74  71  65  57  53  53  54  56  58  59  61  56  56  40  38  44  58  93 115 127 132 131 132 132 132 132 131 131 131 132 132 134
 145 146 144 145 144 144 144 145 144 145 144 145 144 144 144 143 141 140 124  86  42  32  29  37  38  37  40  41  41  42  42  42  43  45  48  48  48  52  54  51  48  43  40  34  32  30  29  29  29  30  30  31  33  38  45  50  56  64  66  69  72  71  68  61  57  55  54  55  58  57  57  58  71  60  24  34  39  42  39  40  60  89 124 127 131 129 130 131 131 130 130 131
 144 144 143 143 142 143 144 145 143 144 143 143 142 143 140 139 124  73  39  34  28  22  22  48  33  34  37  40  41  42  43  44  46  46  48  47  48  49  48  47  44  42  39  35  33  33  30  30  29  30  31  32  32  36  42  48  54  63  68  68  72  74  70  65  62  58  56  54  55  54  56  74  77  76  39  28  33  34  34  28  31  32  55  99 122 125 128 129 128 127 128 131
 143 142 142 141 141 142 140 142 140 140 140 140 138 137 127  72  36  30  27  24  20  19  33  66  38  34  34  36  40  42  43  45  46  45  46  49  48  49  48  48  44  42  39  39  38  36  36  34  35  34  34  37  39  41  45  51  58  67  72  73  75  74  73  68  62  59  56  55  55  60  73  98  85  76  53  24  27  31  29  26  26  27  32  35  51  78 105 118 126 126 126 127
 143 140 139 138 139 139 139 140 137 138 138 136 118  71  34  30  27  25  23  20  18  19  43  75  61  36  35  33  37  40  42  45  47  48  47  48  51  52  54  53  50  47  47  45  46  46  50  51  51  54  59  57  59  59  58  61  65  71  73  77  78  76  71  67  64  57  55  52  51  68  96 114  94  78  59  26  25  26  27  27  25  26  27  30  33  35  36  41  51  60  86 114
 139 139 138 138 138 138 137 137 136 129 100  68  35  30  27  24  22  20  19  18  16  18  49  75  72  52  36  33  33  38  40  41  45  50  51  55  56  57  57  56  55  58  59  63  64  64  64  66  69  72  77  79  82  83  76  72  71  73  75  78  77  76  73  66  60  56  51  50  54  82 107 116  99  77  59  29  24  25  27  26  25  25  25  27  28  28  28  29  31  31  33  41
 138 137 137 137 136 135 135 121  77  41  30  30  26  23  23  20  19  18  17  17  16  16  56  75  71  64  43  32  31  33  36  38  42  46  51  54  58  58  59  58  60  66  69  72  72  76  74  72  77  76  80  83  88  89  85  78  76  77  78  78  78  75  70  61  55  51  49  51  66  96 109 116  98  76  62  31  22  25  26  25  25  25  25  25  25  26  27  27  27  28  28  30
 136 136 135 135 133 108  64  33  30  26  25  24  22  21  21  19  18  17  17  16  16  16  51  71  68  65  56  40  30  30  30  34  38  42  48  55  58  58  59  63  66  69  70  72  74  74  74  71  71  73  75  80  85  88  86  84  83  82  81  80  79  73  64  57  51  51  51  57  84 102 107 113  95  73  57  31  20  24  25  25  22  24  25  23  25  25  26  26  26  27  25  27
 134 132 132 108  65  34  29  26  24  23  22  20  20  20  20  17  17  16  15  14  14  16  44  72  68  65  60  51  38  29  27  28  31  35  43  51  56  58  60  63  66  68  69  69  70  68  66  66  66  68  73  76  79  88  85  83  84  82  79  78  76  68  60  48  46  48  56  72  91 102 106 109  85  65  52  29  20  21  23  24  23  25  24  21  24  22  25  27  26  24  24  25
 122  85  48  28  28  26  23  22  20  20  19  19  18  17  18  16  16  14  12  13  11  14  36  67  66  62  59  57  51  37  27  25  25  28  33  43  51  56  59  61  64  65  63  65  64  63  61  58  57  60  65  70  73  81  82  80  79  78  75  72  69  56  46  42  45  54  71  84  94 102 105 104  77  58  47  24  20  20  21  21  22  25  23  22  20  20  24  24  25  24  23  25
  30  29  28  26  22  21  20  20  18  19  18  18  17  17  17  15  15  13  12  12  11  13  25  64  66  64  60  56  52  46  37  28  23  24  26  31  42  48  52  55  56  60  59  58  61  59  56  51  48  51  55  60  67  71  73  73  70  68  66  64  52  41  37  41  51  63  77  86  93  99 102  99  69  54  40  21  18  19  20  20  20  22  24  21  20  20  21  22  22  25  24  25
  27  25  24  21  19  18  18  19  18  18  18  16  16  15  16  15  14  12  12  12  11  11  14  58  64  61  59  58  53  50  46  37  25  23  24  25  29  36  42  45  48  51  52  52  52  51  48  45  41  43  48  53  57  60  60  61  57  58  53  49  36  33  36  44  55  71  80  86  91  97 100  90  60  48  32  19  18  18  20  20  20  21  22  21  20  20  20  21  23  24  22  22
  22  21  19  18  18  17  17  18  18  17  17  16  17  16  15  13  13  12  11  10  11  11  13  41  62  61  59  57  53  53  51  48  35  26  23  21  21  27  32  37  38  39  42  44  45  42  41  36  32  35  38  42  45  48  47  47  45  42  34  30  26  32  39  53  66  75  81  84  89  98  98  79  53  45  27  17  18  18  19  19  20  20  22  20  20  20  20  20  21  22  21  22
  19  18  18  17  17  18  17  18  17  16  15  14  14  15  14  14  12  12  11  10  10  11  12  20  58  61  58  54  54  54  52  52  46  40  30  23  21  22  25  27  29  29  32  36  34  33  31  30  31  31  30  33  34  38  37  35  29  28  24  24  27  37  51  60  73  77  81  85  91  95  94  66  49  37  20  17  18  19  18  18  19  20  20  19  20  19  19  19  20  21  23  21
  18  17  18  18  18  17  17  16  16  15  14  13  14  15  13  13  13  12  11  11  10  10  10  13  48  59  57  53  54  54  54  53  50  47  40  31  24  22  21  23  25  24  24  26  27  28  27  26  27  27  27  28  28  30  28  24  23  22  23  25  32  44  56  68  76  78  80  85  89  93  84  58  48  29  17  17  17  18  17  18  19  20  20  20  20  20  19  19  20  20  20  20
  16  16  16  15  15  14  15  16  15  14  14  13  13  13  12  13  11  11  10  10   9  10  10  10  29  55  55  53  53  55  54  54  52  49  46  42  31  25  22  20  20  19  20  22  21  22  20  18  20  21  22  21  19  22  21  20  20  22  25  30  40  52  61  71  75  76  79  84  87  87  66  49  42  23  17  15  15  16  17  17  19  20  19  18  19  18  17  18  19  19  20  20
  16  15  15  15  14  13  15  14  14  12  12  12  12  12  12  13  11  10   9   9   8   9   9  10  14  45  53  54  52  53  54  53  53  53  49  46  42  35  28  22  17  17  17  17  17  17  14  16  16  18  18  18  18  20  20  20  24  26  29  41  50  57  62  71  75  75  77  79  86  79  52  45  30  17  14  14  14  14  16  17  18  18  19  19  19  18  18  18  18  20  21  20
  15  16  14  14  14  13  13  12  13  13  12  12  10  10  11  12  13  10   9  10   8   8   9   8  10  27  52  54  53  52  52  52  54  53  50  47  43  41  39  32  26  21  17  17  16  15  14  15  15  17  17  18  19  19  20  24  30  36  40  47  53  60  65  71  74  75  76  80  81  64  45  40  22  15  14  15  15  15  15  17  19  19  19  17  18  18  18  19  18  19  18  19
  15  15  14  15  14  12  13  13  13  12  12  12  11  12  12  11  11  10  10  10   9   8   9   9   9  13  43  51  53  53  50  51  54  51  51  49  47  45  42  38  33  30  24  20  18  16  15  17  17  18  18  19  21  24  27  32  38  41  44  50  54  60  65  71  73  74  76  80  73  51  40  30  19  14  13  14  14  13  15  16  19  18  18  18  18  18  18  18  17  18  19  18
  14  14  14  14  12  12  14  12  12  11  11  12  10  11  11  11  11  10   9   9   8   8   9   8   9   9  26  49  54  52  52  51  49  50  49  48  47  45  42  40  37  34  32  29  26  23  23  22  22  24  26  26  28  34  37  39  39  42  45  50  55  61  66  69  72  72  76  76  59  46  38  24  15  13  13  13  16  15  16  17  18  18  18  17  16  18  18  18  18  17  19  20
