P2
# Generated by OpenCV 3.4.0
92 112
255
 150 151 150 151 152 152 153 154 154 156 154 153 156 155 156 157 157 157 158 158 158 158 158 158 158 159 158 159 160 159 158 157 135 111 110 118 135 148 155 158 159 161 162 163 161 163 163 163 163 163 164 163 163 164 164 163 163 164 164 163 163 165 164 164 165 164 164 163 163 165 164 164 164 163 162 164 163 161 161 162 163 162 161 162 161 162 161 161 161 160 161 161
 151 151 153 154 153 154 154 156 155 156 156 156 156 157 158 157 158 157 158 157 158 157 159 159 159 160 160 160 160 160 158 121  56  52  61  62  66  96 123 133 152 156 162 162 162 163 162 163 163 162 164 164 164 164 164 163 164 165 165 164 164 165 165 165 164 165 165 165 164 165 165 164 165 164 164 165 164 162 162 163 162 163 161 162 162 162 162 162 163 161 161 161
 151 154 153 155 154 156 156 156 155 156 156 156 157 157 158 157 158 159 158 158 158 158 159 160 159 160 159 159 160 158 130  47  48  48  49  48  53  59  69  78  95 124 147 155 159 162 162 163 162 163 164 164 164 164 164 164 165 163 163 164 165 164 163 164 166 167 165 165 165 165 165 164 164 164 164 164 165 164 165 164 163 164 163 162 162 163 164 163 164 162 161 162
 154 154 154 155 155 156 156 157 157 157 156 157 156 156 157 158 157 158 159 159 159 158 159 158 159 160 159 160 160 152  64  50  39  32  37  43  49  52  49  51  62  74  85 107 127 145 154 160 162 162 162 164 163 162 161 163 165 163 163 164 165 165 166 166 166 166 166 166 166 166 166 166 166 165 164 166 165 165 164 165 164 165 165 163 163 166 163 164 165 162 161 161
 154 156 155 156 156 156 155 157 157 158 157 158 159 157 158 158 158 158 159 158 159 158 159 160 159 161 160 159 156  90  58  44  29  30  35  45  42  42  44  41  44  51  60  68  73  82 100 119 133 144 146 146 144 143 151 157 162 163 163 163 164 166 165 166 165 165 165 166 165 165 165 165 166 166 164 166 166 166 166 165 164 165 165 165 165 164 163 163 164 163 164 162
 155 156 156 155 157 157 156 157 157 157 158 157 159 158 159 159 159 160 159 159 161 161 160 160 159 159 160 155  97  55  47  37  26  32  39  34  29  29  39  46  46  51  48  47  44  46  57  69  77  74  81  78  66  61  77  93 111 134 155 161 164 162 164 166 165 167 165 165 166 165 165 166 166 167 165 165 166 166 167 166 166 166 166 165 165 165 164 165 164 164 162 163
 157 156 157 157 157 158 157 158 157 158 158 159 160 158 160 160 160 159 159 160 162 160 158 157 159 157 147  85  49  44  34  30  24  31  29  27  25  29  32  33  40  37  35  32  34  34  37  43  50  56  58  65  62  75 103 128 116 107 106 138 157 159 163 164 166 166 166 166 166 166 166 166 165 166 166 165 165 166 166 166 166 166 165 166 165 164 164 164 164 165 164 163
 155 156 158 157 158 157 157 157 158 158 157 157 158 160 160 160 160 159 159 160 160 158 154 151 142 109  64  48  44  31  26  26  23  25  25  22  23  23  27  28  29  30  28  27  28  30  30  33  38  38  44  48  48  42  49  59  70  81  91  77 115 155 158 163 166 166 166 166 166 167 167 166 166 166 166 166 166 167 166 166 165 165 166 165 165 164 164 164 165 165 164 165
 157 157 157 157 157 156 157 158 158 159 158 158 158 160 161 161 159 159 157 156 154 144 128 114  78  51  44  43  38  26  24  23  22  21  21  20  19  19  22  21  21  25  24  22  25  26  25  25  27  28  33  30  32  36  37  47  54  74  84  71  67  94 134 157 162 164 166 166 166 166 166 166 166 168 166 166 166 165 166 166 166 165 164 165 166 165 165 165 166 166 165 165
 157 157 158 157 157 157 159 158 159 159 159 158 160 160 158 158 157 154 144 127 105  95  92  66  46  39  40  42  35  24  22  24  25  19  19  18  17  18  18  18  19  20  20  21  23  24  22  23  22  25  26  25  25  31  34  33  34  43  49  59  62  63  84 111 147 162 165 166 166 167 167 167 167 167 166 166 167 166 166 166 167 166 166 166 167 166 166 166 166 165 166 166
 157 157 159 158 158 158 160 160 158 160 159 162 160 159 158 153 142 116  92  88  86  77  58  39  33  32  38  44  32  23  21  23  23  19  18  17  16  17  17  18  18  19  19  21  21  21  18  20  22  25  26  24  23  25  28  29  30  36  45  52  55  56  62  78 104 144 162 165 166 168 168 167 168 168 167 168 166 167 167 167 167 166 166 167 167 167 166 167 166 166 167 166
 158 158 160 159 159 160 161 160 159 160 161 160 158 158 148 118  96  79  74  83  76  49  34  30  29  31  42  34  28  22  20  24  26  19  19  18  17  16  17  18  18  17  17  20  18  17  17  18  18  20  23  26  26  23  22  29  31  34  43  55  59  58  56  66 100 111 144 164 167 167 168 168 169 169 168 168 167 167 166 167 167 166 166 166 167 167 167 167 166 166 167 166
 160 159 159 159 160 161 160 159 160 160 162 159 156 151 105  82  66  65  74  80  49  33  28  28  31  34  32  29  26  22  20  23  25  20  20  18  20  17  17  18  19  17  16  18  17  15  16  17  18  16  15  20  22  23  21  24  27  28  33  42  48  52  56  56  80 105 113 141 165 168 168 168 168 168 169 168 168 167 166 165 167 168 167 166 167 167 167 167 167 166 166 166
 159 159 160 160 160 161 161 160 162 161 161 156 146 124  75  56  52  59  60  56  42  31  26  29  29  32  25  24  23  24  20  22  23  23  19  17  18  18  19  19  18  18  15  16  16  15  16  18  17  16  16  18  16  19  22  23  28  28  32  36  42  43  50  56  65  88 106 111 149 165 167 168 167 167 168 168 168 168 166 167 167 167 168 166 167 168 166 167 166 165 168 167
 160 160 160 160 161 162 161 161 163 163 162 158 139 105  63  49  49  51  49  45  46  37  28  26  29  25  23  19  21  25  22  23  23  25  24  18  19  20  19  19  19  19  17  18  17  19  18  19  19  18  17  18  16  18  19  23  29  28  31  36  38  40  45  50  55  66  93 111 121 153 165 168 169 169 169 169 168 168 168 168 167 167 168 168 168 167 168 166 166 166 166 167
 160 159 162 160 161 162 162 161 162 161 161 160 146 100  55  35  33  36  41  41  42  43  37  35  32  27  25  22  23  25  23  23  25  25  27  26  23  20  22  20  19  18  19  18  18  20  24  19  19  18  17  18  17  19  20  26  32  32  32  29  30  36  40  46  51  62  72  93 115 133 160 166 168 168 169 168 168 168 169 168 167 167 168 168 168 168 167 167 167 166 166 166
 159 159 161 161 161 162 162 162 162 162 160 158 146 114  59  36  26  26  29  30  32  34  35  31  29  25  24  21  20  23  24  24  25  24  24  26  27  26  26  25  22  21  20  21  21  20  24  22  19  19  17  19  18  19  22  22  26  26  26  26  28  30  36  41  47  56  56  76  95 118 147 162 168 169 168 169 170 168 169 168 169 168 168 168 169 168 167 167 168 167 166 165
 160 159 159 162 162 162 163 163 162 161 161 157 150 126  61  42  29  25  22  26  29  34  35  34  32  29  24  21  20  24  25  25  25  25  24  25  25  24  25  26  25  26  25  25  23  23  23  26  24  21  20  24  20  19  21  21  23  26  25  24  26  30  35  38  46  52  54  55  66  98 137 155 165 167 168 169 168 169 170 168 170 170 168 168 168 168 168 168 168 168 167 166
 160 160 162 163 162 163 163 163 162 160 159 156 146 131  71  52  34  28  23  20  21  27  29  36  40  38  30  26  26  26  28  26  26  28  26  27  28  29  27  27  29  29  29  30  28  28  26  31  31  27  24  24  21  19  19  19  18  18  23  24  25  29  37  40  44  49  51  52  55  70  98 148 163 165 168 169 168 169 169 168 169 169 169 167 169 169 168 168 168 168 167 166
 161 160 163 162 163 163 163 162 163 163 162 159 149 138  95  64  41  31  27  22  21  25  23  23  30  39  42  40  36  30  30  29  26  26  30  29  30  29  31  32  32  33  34  34  34  34  37  42  44  38  32  28  25  23  21  21  19  18  17  19  22  25  34  39  42  46  50  53  52  58  74 106 149 164 166 167 168 169 168 169 168 168 168 169 168 168 168 168 168 168 167 167
 160 162 162 162 163 163 164 163 163 164 162 162 156 140 112  75  49  34  29  27  26  27  24  24  24  27  32  38  39  35  33  32  32  31  33  35  37  38  40  40  40  42  43  43  44  51  56  59  59  55  48  41  36  31  27  25  22  20  18  17  21  22  28  33  38  45  46  50  52  55  61  77 104 145 160 167 169 168 169 169 168 168 169 168 168 168 167 168 167 167 167 167
 159 161 163 163 163 163 163 163 164 163 162 163 160 148 122  84  62  40  32  31  30  30  25  23  25  25  27  31  35  34  37  38  39  43  49  55  57  59  61  66  59  54  60  61  62  65  70  71  72  68  63  57  52  46  39  33  29  26  22  20  22  21  23  28  31  35  42  46  48  57  58  69  85 119 151 165 168 168 169 168 168 168 169 168 168 170 169 167 166 167 168 168
 162 161 161 162 163 162 163 164 163 163 163 163 163 156 131  86  59  47  40  36  31  30  27  24  24  26  26  27  29  31  36  45  53  63  71  76  78  81  82  82  79  77  79  81  78  80  80  80  78  77  72  69  66  61  54  47  40  35  29  26  24  25  26  27  27  30  36  41  46  50  56  66  76 100 143 160 164 168 169 169 169 168 168 168 170 169 167 168 168 167 167 168
 162 162 161 162 163 164 164 164 163 163 163 162 163 158 151 110  65  52  41  35  30  30  27  25  24  25  26  29  31  38  49  63  76  82  86  89  89  89  92  89  90  89  89  88  87  84  85  84  82  79  77  74  74  72  67  60  50  45  38  31  25  26  25  27  30  31  34  40  44  47  50  60  71  79 122 154 164 167 168 170 168 169 169 170 169 168 169 168 168 167 168 167
 160 160 162 162 162 163 163 164 164 162 163 162 162 160 159 138  76  53  43  38  36  32  29  27  26  27  28  32  42  55  67  80  85  88  90  93  94  94  98  95  93  94  94  90  90  87  88  88  87  85  81  78  76  78  75  70  65  55  48  39  32  29  25  22  23  28  30  34  43  48  49  55  68  74  88 132 161 166 167 168 168 169 169 168 168 169 168 168 167 168 168 167
 161 162 163 164 163 164 164 164 164 164 164 164 161 161 158 145 113  60  49  40  34  30  27  27  26  28  33  47  63  76  84  89  90  91  92  94  95  97 100  98  98  98  96  92  93  92  90  88  88  87  84  82  78  80  79  75  74  66  59  49  40  36  30  27  23  24  30  35  39  46  52  53  66  73  79 110 150 165 168 168 169 169 168 167 167 168 168 167 168 167 167 167
 162 162 162 162 162 163 164 163 163 164 163 163 163 161 157 150 124  93  51  40  37  31  28  28  27  33  49  69  83  91  92  93  94  96  97  97  99  98 100  98 100  99  97  96  98  96  94  90  89  89  87  86  83  82  82  80  79  72  67  60  50  44  38  33  28  26  25  31  40  45  49  52  60  70  79 100 136 161 167 168 168 168 168 168 168 168 168 168 167 167 167 167
 162 162 162 163 163 163 163 163 163 164 164 164 162 161 155 149 119  76  49  44  37  31  28  27  31  49  72  88  99  99  99  99  99  99  98  99  99  99 100  98  99  98  99  98  99  99  96  92  92  89  88  88  87  85  84  85  84  80  74  67  59  52  47  39  36  31  28  27  30  41  45  49  54  63  72  87 124 153 164 166 167 168 167 168 167 168 167 168 168 167 167 168
 162 162 162 163 163 162 162 163 164 164 163 164 161 159 153 141  90  55  46  41  33  29  27  29  40  65  86  99 103 102 101 102 102 100 100 101  99  99  99  99 100  99  99 100 100  99  98  95  95  94  91  90  89  89  85  86  87  86  79  74  67  62  55  46  43  37  31  29  28  34  40  46  53  58  65  75  96 145 162 166 167 167 166 168 167 167 167 167 168 167 166 166
 162 162 162 162 163 164 163 164 164 165 164 163 163 158 142 100  63  47  41  36  30  29  28  34  53  76  93 102 104 105 104 102 102 100 100 101 102  99  99  99 100  99 100 102 101 101 100 100  99  96  95  94  91  93  91  85  89  89  86  81  76  70  64  56  50  46  39  34  30  30  38  44  49  55  60  66  81 118 156 165 167 166 166 168 167 168 168 166 167 167 167 167
 162 163 163 163 164 164 164 164 164 164 162 164 160 155 119  68  51  40  34  31  30  30  30  48  67  83  97 103 105 105 103 104 101 101 102 102 100 100  99  97 100 102 104 101 103 103 102 100 100  97  96  95  94  92  91  88  89  89  90  87  84  77  70  66  58  52  48  42  34  29  30  38  45  50  54  62  69  82 131 161 166 165 166 167 166 167 168 168 168 167 167 167
 162 164 164 164 164 163 165 163 164 164 164 162 157 144  83  57  44  36  32  32  29  29  34  62  78  90  99 104 101 105 105 104 103 104 104 101 100 101 100 101 101 104 102 101 102 103 104 102 100  99  98  96  94  92  92  92  92  91  91  90  87  86  79  71  67  60  55  49  38  30  27  31  38  44  52  57  63  70  91 147 163 166 165 167 167 166 168 167 166 166 166 166
 162 164 164 163 163 164 164 164 165 163 163 163 154 109  62  48  37  36  32  29  29  31  46  77  86  93 100 103 101 104 105 104 105 106 104 103 102 102 102 103 103 102 104 103 102 102 104 103 103 101  99  98  96  94  96  96  96  94  93  95  93  91  86  79  73  68  63  57  45  34  26  27  33  40  48  54  63  69  86 133 161 167 166 167 167 166 168 166 167 166 167 167
 163 164 164 163 163 164 165 164 164 164 163 161 142  78  58  44  37  36  31  30  29  37  59  86  93  98 102 103 103 104 105 107 106 107 107 106 106 104 104 104 105 105 107 109 104 104 103 104 105 105 104 104 103 102 100  99  99  99  98  98  97  96  93  88  82  76  70  64  53  39  28  27  31  38  44  51  56  68  84 125 159 167 166 166 166 167 166 167 166 167 167 166
 163 164 164 164 164 165 165 165 165 164 163 158 120  66  56  40  36  31  30  30  31  41  69  89  97 101 102 104 105 105 106 110 110 110 108 108 108 108 105 106 104 104 106 109 104 104 103 104 104 105 107 109 106 105 104 102 101 100  99 102 104 101 102  97  92  84  78  69  62  47  33  28  32  38  44  50  53  59  78 112 151 164 167 167 168 168 167 167 167 167 167 166
 163 164 164 165 164 164 164 166 165 165 162 154  95  61  52  37  36  31  29  30  35  49  76  90  98 100 101 104 105 108 109 112 111 110 107 108 108 108 108 108 107 105 107 113 107 105 103 102 106 107 109 110 111 107 105 102 102 102 105 106 107 106 108 107 103  94  86  78  69  55  37  30  32  39  44  45  51  54  64  91 139 160 166 166 167 167 167 167 167 167 166 167
 163 164 165 165 164 166 164 165 165 163 163 149  76  56  49  38  36  30  29  34  40  54  77  92  97  99  99 102 106 107 108 108 106 105 105 104 106 106 109 108 108 106 107 112 108 107 106 105 106 110 109 110 109 106 102 103 101 101 106 107 110 111 114 112 110 104  96  90  77  64  43  33  35  41  45  45  46  52  59  73 110 155 166 167 167 168 168 168 168 167 167 167
 165 164 164 165 165 166 166 165 164 165 162 142  64  55  44  38  34  29  32  34  42  59  80  91  96  98  99 101 102 102 104 103 100 100  97 100 102 101 106 108 109 107 107 110 108 108 105 104 107 109 107 104 102  99  96  97  98  99 103 107 110 113 116 116 115 112 106  98  88  74  51  36  35  42  45  45  43  46  56  68 104 140 160 167 167 168 168 167 167 167 166 166
 165 164 166 165 165 165 165 165 166 165 162 135  58  53  44  38  31  30  32  34  43  61  82  90  94  94  98 100  98  97  94  93  93  90  90  91  94  94  99 104 106 106 107 107 108 109 105 103 103 104  99  95  92  89  88  89  90  93  96 102 107 115 118 120 119 117 114 108 100  86  63  42  34  41  47  48  46  43  52  61  95 145 159 166 168 168 168 168 168 168 166 167
 165 165 165 164 165 165 166 166 166 166 160 124  57  50  43  36  32  31  32  34  43  63  82  90  91  96  97  96  93  89  85  87  83  83  83  83  85  88  91  95  96  99  98  97  96  98  97  97  96  93  89  87  84  82  82  86  84  85  90  94  99 106 114 119 120 120 119 116 109  94  77  49  34  39  50  50  46  46  46  55  76 136 163 167 168 168 168 168 168 167 167 168
 164 164 166 166 165 166 166 165 166 165 157 126  54  49  42  34  31  30  30  30  41  66  84  90  92  95  96  93  92  85  84  82  77  74  73  77  78  81  85  85  84  89  89  88  87  87  87  87  85  85  80  79  75  71  72  72  74  74  79  86  88  95  99 105 113 116 116 118 113 106  88  58  36  31  48  50  48  45  40  45  62 112 158 166 167 168 168 168 168 167 166 167
 165 166 165 165 166 165 166 166 166 166 156 136  57  46  42  34  33  30  29  28  44  72  86  89  93  94  95  89  86  79  74  69  64  64  66  67  66  68  72  72  74  76  78  79  82  82  80  77  74  73  68  66  62  61  56  55  55  60  59  62  67  70  74  79  88  93 102 108 110 110  98  70  41  29  42  50  45  48  45  45  55  92 151 165 168 168 168 169 167 166 167 167
 165 165 166 165 165 166 165 166 166 165 158 141  64  46  41  35  33  27  26  27  49  77  86  88  89  85  78  71  61  57  47  43  42  46  50  48  51  56  61  64  65  68  68  68  73  75  73  68  67  63  57  54  51  47  44  38  37  38  36  36  39  43  45  50  57  67  81  86  92  99 100  78  48  29  33  48  44  46  50  47  53  85 138 164 168 168 167 167 168 167 167 168
 165 165 165 165 165 166 165 167 166 165 158 151  76  46  41  36  31  26  24  28  54  77  83  79  72  64  56  45  37  34  32  29  27  28  29  31  35  41  47  50  55  58  61  65  69  70  68  59  55  52  50  47  42  36  31  27  27  27  25  26  26  29  34  35  44  54  64  72  76  84  94  86  56  31  30  42  45  40  48  48  49  83 130 159 168 168 168 168 168 168 167 168
 164 165 166 166 164 166 167 167 165 165 161 156  97  45  43  37  29  26  23  29  59  76  73  58  52  50  44  35  31  30  28  26  24  25  24  25  28  30  33  39  43  49  56  64  67  66  64  55  50  45  41  37  31  29  26  24  23  24  23  23  23  25  28  32  40  47  54  61  68  74  82  86  64  36  28  37  44  40  46  52  48  84 133 158 167 168 168 168 168 167 167 168
 166 166 166 166 167 166 168 167 167 166 165 162 115  46  44  40  30  25  23  31  61  68  56  47  43  42  36  34  32  30  29  27  27  27  27  27  28  29  30  33  41  47  54  62  68  68  64  54  49  44  38  31  29  29  28  28  28  28  28  28  31  32  33  38  44  49  56  60  67  72  75  79  68  40  27  30  39  43  44  51  52  84 142 161 168 168 168 167 168 168 169 168
 165 165 166 167 168 167 168 166 167 168 168 165 141  60  48  39  30  22  20  31  62  59  51  43  41  41  40  39  38  39  40  39  36  34  34  31  31  32  32  33  38  49  56  64  71  72  71  64  57  49  41  34  32  32  36  40  42  45  41  37  36  38  36  37  37  39  41  40  39  41  42  49  48  37  27  30  35  43  43  48  58  92 152 165 169 169 169 168 167 167 168 169
 166 165 167 167 168 167 168 167 169 168 168 165 158  81  52  40  29  22  22  32  58  46  37  33  33  34  35  34  34  35  36  38  39  39  41  41  40  41  41  38  41  47  58  66  75  79  78  77  70  55  40  33  30  33  31  31  33  34  37  42  45  50  50  54  61  68  65  62  56  52  45  33  24  19  18  28  52  40  40  46  61 107 159 168 169 169 170 169 169 168 168 169
 166 166 168 167 168 169 169 169 171 169 168 167 163 111  58  44  31  25  24  24  24  27  35  38  44  47  51  53  58  56  52  50  48  46  43  43  42  38  34  34  36  45  57  67  78  87  83  73  45  33  29  34  36  37  37  38  39  38  40  42  46  47  48  53  59  68  73  72  69  68  71  67  36  23  19  20  53  42  40  44  62 122 160 168 169 169 170 170 169 168 169 170
 165 167 167 167 168 168 169 170 169 169 169 168 167 142  67  51  24  21  21  28  34  40  58  56  61  60  57  54  50  51  55  52  48  43  40  42  48  46  44  45  41  26  28  29  35  32  27  24  24  28  48  41  36  36  34  33  33  37  43  47  51  50  51  52  53  52  55  63  64  64  68  70  51  26  26  25  55  44  41  43  59 122 161 168 169 169 170 171 169 168 168 168
 167 167 168 168 168 167 168 169 168 169 171 170 169 156  83  54  23  19  23  41  28  42  55  55  58  52  42  49  56  54  46  45  42  40  38  38  41  42  42  45  50  38  22  20  24  26  25  21  23  44  52  39  37  35  33  34  36  37  32  30  27  28  29  36  46  55  51  47  55  57  57  58  49  27  26  23  53  46  44  42  62 125 161 168 170 170 168 170 168 169 168 168
 166 167 167 167 167 169 170 168 168 168 170 171 170 164 114  58  22  19  26  38  25  43  54  53  54  45  53  49  39  36  28  30  27  28  33  37  40  44  49  52  56  43  24  21  29  33  30  24  24  46  60  44  42  45  40  35  40  50  32  29  27  25  26  44  42  40  47  45  49  53  53  51  48  25  21  26  36  52  40  44  70 143 163 168 168 169 168 169 169 169 168 168
 166 166 167 167 167 170 168 170 171 170 171 170 169 166 138  65  25  20  27  38  25  43  57  60  56  53  43  41  52  53  32  29  28  30  42  47  39  43  61  67  67  45  29  27  63  77  69  39  29  47  74  60  57  54  42  43  53  64  45  35  32  32  35  59  59  49  41  44  48  53  56  57  55  24  29  30  31  35  34  43  76 140 164 168 169 169 169 168 169 169 169 169
 166 167 166 167 168 169 168 169 171 170 169 170 170 168 154  78  48  25  28  40  30  46  58  63  57  46  41  52  66  67  43  37  37  41  57  59  59  64  75  77  75  41  24  56 103 115 109  73  29  38  80  74  68  69  69  66  64  63  57  45  41  37  48  55  57  55  55  55  56  62  74  79  70  26  47  42  37  42  37  45  75 145 165 168 167 168 169 169 170 169 169 168
 166 167 166 166 167 167 168 169 169 170 170 170 168 170 164 112  44  28  30  54  43  59  63  62  55  55  54  54  57  59  58  53  58  63  64  63  65  70  73  71  79  34  21  88 123 138 134 109  36  32  81  81  75  74  72  67  58  53  50  49  49  48  49  53  59  66  71  75  76  87 100  99  79  29  63  57  43  44  39  52  78 149 164 167 168 169 168 170 170 169 169 169
 165 166 166 167 167 168 168 170 168 170 168 170 169 170 166 139  52  34  28  62  54  71  69  66  62  66  63  58  55  55  56  59  57  59  61  67  70  75  75  74  79  24  32 102 123 137 135 120  60  30  60  93  83  80  78  73  64  56  49  47  48  47  49  54  59  68  78  85  90 104 116 118  79  27  91  74  47  47  49  55  81 148 163 168 168 169 168 169 169 168 169 168
 166 165 165 166 167 168 169 170 168 170 169 170 170 170 168 152  74  41  27  65  71  82  80  73  68  67  64  61  56  55  54  56  58  61  68  73  76  78  80  84  62  25  58 108 119 136 138 124  91  29  37  92  94  89  83  80  75  69  59  54  53  50  52  55  62  72  82  93 101 115 124 125  65  36 105  88  53  48  52  60  99 157 168 168 170 169 168 168 168 169 169 170
 165 164 165 167 167 168 168 169 170 170 169 171 170 169 167 159 101  51  31  53  77  90  91  82  74  68  63  60  57  59  61  65  66  68  71  77  82  84  88  93  39  22  86 112 123 140 143 130 110  48  28  71  99  97  94  88  81  74  69  64  62  63  64  71  78  86  93 100 108 119 126 119  41  58 110  97  58  50  52  68 134 162 167 169 168 168 168 169 169 169 169 169
 164 164 166 166 166 168 167 168 168 170 171 170 168 169 168 161 123  62  37  35  81  95  99  92  81  70  65  64  64  65  67  67  69  72  75  80  84  86  83  74  26  46  99 116 127 140 140 133 120  95  30  36  86  96  96  92  89  84  77  74  69  68  70  73  81  92 100 105 109 117 105  53  32 100 114 101  63  50  51  71 144 162 167 168 169 167 167 168 168 168 169 170
 164 165 165 165 165 167 167 166 168 168 169 169 169 168 168 165 144  62  53  28  62  99  99  93  85  78  71  69  67  68  70  70  74  78  81  83  86  84  70  32  22  84 103 117 122 135 136 134 126 115  71  29  35  65  85  89  85  77  78  79  76  71  73  76  82  87  91  84  73  59  36  51 102 119 116 103  65  49  49  72 145 162 166 168 168 168 168 167 167 168 168 168
 162 163 165 165 165 166 166 166 166 167 166 169 168 169 168 166 151  69  65  62  37  47  62  78  81  82  75  71  69  72  74  74  76  76  74  71  57  40  33  42  52  95 107 117 122 131 136 133 128 124 107  61  53  48  42  45  47  50  51  52  54  51  49  49  50  48  44  52  64  86 110 124 124 119 114 105  68  50  50  75 148 164 166 168 166 167 167 167 168 168 167 168
 163 164 163 164 164 165 165 166 166 167 165 166 168 168 168 167 157  90  70  89  92  75  62  52  44  45  45  42  44  43  42  42  41  43  43  49  55  58  59  57  80  97 108 116 117 125 132 128 129 128 117  98  73  79  74  69  68  67  69  71  75  77  75  80  85  93 100 108 113 118 123 126 126 121 115 106  70  52  58  79 150 163 167 167 167 166 167 167 168 167 168 168
 162 163 163 163 163 164 165 166 167 166 166 167 168 167 168 164 161 115  72  92  96  95  91  89  85  83  80  73  69  68  69  70  73  73  76  73  70  63  65  83  96 101 110 111 110 121 124 121 128 136 127 118 107  87  71  67  70  75  79  86  89  91  95  98 100 100 105 107 110 114 118 120 121 120 116 107  73  52  66  91 156 163 164 164 166 164 163 165 166 167 165 166
 161 162 164 163 163 165 165 166 165 166 166 166 167 166 166 164 163 127  77  90  95  92  88  84  81  82  80  78  74  74  70  69  71  69  72  67  63  60  86  94  94  98 106 109 109 114 114 111 118 135 127 121 121 112  86  62  63  70  75  82  89  92  96 102 105 106 107 108 109 111 114 117 117 117 115 104  75  59  68 100 157 163 163 164 165 165 165 166 166 164 165 165
 161 161 162 162 163 162 162 164 165 165 166 165 166 166 166 165 163 143  80  90  96  90  87  84  81  80  81  79  78  75  71  68  67  68  66  60  58  65  89  87  82  84  90  90  95  99  99  99 102 112 100  98 108 114 100  63  61  68  71  79  85  91  96 100 106 109 110 110 113 114 114 113 114 115 113 106  83  70  76 116 158 161 162 163 163 164 164 164 163 164 167 165
 160 160 161 161 162 162 163 163 165 165 164 164 165 166 166 166 162 149  84  90  93  88  86  81  80  81  82  81  79  78  75  71  68  68  68  64  60  67  78  72  66  66  72  75  79  80  81  85  85  82  76  74  80  85  89  63  59  67  71  77  82  88  92 100 105 107 108 114 114 112 112 113 113 114 113 107  90  76  87 130 157 161 162 162 162 162 163 164 164 162 165 164
 159 160 161 162 162 163 163 162 164 163 165 164 165 166 167 166 164 150  86  90  93  86  83  82  81  82  83  83  83  81  79  79  77  77  77  74  66  63  60  55  50  51  57  61  63  65  65  66  73  68  50  48  54  59  67  58  57  66  69  74  78  88  94 100 103 107 108 112 112 111 113 113 113 112 112 107  98  89 101 136 157 159 160 162 161 162 163 163 162 162 163 163
 158 159 160 160 161 162 162 162 163 163 164 164 166 166 165 165 164 158  92  87  91  85  83  83  82  83  82  85  85  86  86  85  85  81  81  77  73  61  47  42  33  29  36  51  51  52  51  57  63  43  26  28  37  47  58  63  66  71  76  79  83  88  92 100 102 104 107 111 112 112 112 111 110 111 111 106 101 101 116 141 156 159 158 159 161 161 163 162 161 161 162 162
 157 159 160 160 160 160 162 163 162 164 165 164 165 164 165 164 163 160  94  88  92  85  85  84  83  84  86  88  87  89  88  85  83  80  78  77  75  62  46  37  32  29  32  42  45  44  45  52  51  49  40  32  35  44  55  71  76  77  78  79  83  87  92  99 101 102 105 108 111 111 110 108 110 112 110 104  99 106 131 148 155 157 159 159 159 159 159 161 161 160 161 162
 157 158 158 159 160 162 161 161 162 162 164 163 164 165 166 164 164 159 104  87  90  85  85  84  82  86  88  90  90  89  86  85  81  78  77  78  75  67  55  42  32  30  36  42  43  44  48  50  47  52  50  40  41  47  60  79  84  84  82  78  80  84  90  97 102 106 107 108 109 110 110 110 112 112 110  99  95 105 130 148 155 157 156 157 158 157 160 160 160 160 160 160
 156 158 159 159 159 160 160 161 161 161 161 161 163 163 164 163 162 160 110  84  90  86  83  82  83  87  87  87  86  86  85  85  80  78  77  78  77  70  61  54  49  48  48  52  48  42  42  43  52  68  68  61  62  66  79  90  92  93  89  82  79  82  90  96 102 104 106 109 109 110 111 112 112 113 111 101  95  99 127 147 155 155 156 156 156 158 159 159 160 159 159 157
 155 155 157 158 158 158 160 159 161 162 161 162 161 162 164 163 162 157  98  81  88  86  82  85  86  87  87  84  86  84  81  79  77  80  78  79  80  76  70  66  63  64  63  62  55  44  42  44  53  73  82  81  83  85  89  96 101  99  95  91  84  85  87  92  96 101 107 110 109 108 110 112 112 113 111 103  93  91 113 137 150 153 155 155 156 156 157 158 158 158 157 156
 155 155 156 158 159 157 159 160 160 160 160 161 161 162 162 161 161 157  92  78  86  85  83  84  86  86  83  82  83  79  77  74  74  80  83  83  81  79  79  79  77  74  70  68  61  50  47  50  58  76  89  92  94  93  97 100 104 101 101  99  93  88  86  90  94  96 104 106 108 109 111 110 110 112 110 104  92  84  90 116 149 153 154 154 155 155 156 157 158 158 157 157
 155 156 157 158 158 160 160 160 159 159 159 161 160 161 161 161 162 152  88  78  86  86  84  86  84  84  82  81  80  76  73  73  75  84  84  84  82  83  85  85  84  82  78  74  65  55  51  56  65  81  93  98 100  96 102 106 104 102  99  96  97  95  88  89  90  93  99 104 108 108 108 108 107 109 109 100  89  79  76 121 148 152 154 154 154 155 154 155 155 156 157 156
 154 156 155 156 158 159 159 160 161 160 160 161 161 160 161 161 161 148  83  79  86  87  85  85  83  83  82  81  77  77  73  74  77  81  81  81  84  86  87  88  88  87  84  79  73  62  55  63  72  84  96 104 107 109 109 109 106 100  93  93  94  94  89  87  88  90  96 101 105 105 106 107 109 110 109  97  89  94 129 146 150 152 153 154 154 153 155 154 154 156 154 155
 154 154 155 156 158 159 159 160 160 160 160 161 160 158 160 159 161 156 102  80  85  85  85  84  84  82  80  78  75  75  71  75  79  79  78  80  83  86  87  89  88  85  80  81  80  76  74  76  76  76  83  93 103 109 112 110 107 100  90  86  89  94  91  86  87  89  93  93 101 102 101 102 106 107 106  96  86 104 140 148 149 151 153 153 153 152 152 153 154 155 154 154
 154 155 156 154 156 158 158 158 159 160 160 160 160 160 160 160 161 158 133  83  82  84  83  84  82  81  79  75  75  74  71  75  77  75  74  78  83  87  85  84  73  64  55  55  63  68  70  64  58  52  51  56  64  83  94 100 105 102  87  78  80  86  89  86  86  87  93  95  96  98  97  97 100 104 104  96  87 114 143 149 149 149 150 152 151 150 150 152 154 154 153 152
 154 156 154 155 155 155 159 157 158 158 160 159 161 160 161 160 161 159 142  89  85  85  82  83  81  80  79  76  74  75  73  75  73  67  66  70  79  78  72  60  46  43  43  43  43  44  45  44  43  47  50  47  41  43  53  67  84  86  74  65  66  74  82  85  86  88  89  92  94  93  94  94  94 101 101  90  86 122 142 148 149 150 149 149 150 149 149 152 151 152 153 150
 154 154 155 156 154 154 157 156 159 161 161 161 161 161 161 160 160 159 152  92  84  84  82  82  80  77  76  77  75  73  75  73  67  58  54  57  62  58  45  36  34  35  34  36  36  34  31  33  34  37  40  41  38  33  33  38  47  57  50  42  48  61  72  80  84  88  87  87  87  89  90  92  94  97  98  89  90 124 143 146 148 149 150 149 150 149 149 150 151 149 150 149
 154 154 154 154 155 154 156 155 157 158 161 160 160 160 160 160 160 160 153 105  83  81  82  80  76  73  76  76  76  72  70  66  59  49  40  40  42  34  29  29  33  39  38  41  40  36  32  37  39  46  48  57  64  61  55  52  50  49  43  38  43  53  63  71  79  85  86  88  86  84  86  93  91  95  95  85  90 128 143 146 148 148 148 148 146 148 149 149 148 149 149 148
 156 154 154 154 154 155 156 155 157 159 159 159 159 160 160 160 161 159 153 117  80  83  78  76  71  68  72  75  76  73  69  63  55  48  38  40  43  43  45  48  52  56  53  56  56  53  49  52  51  53  55  60  65  73  79  82  87  89  87  73  57  55  60  66  74  81  82  85  82  86  81  90  89  93  95  84  97 132 143 145 145 146 148 147 147 146 145 146 147 148 146 146
 152 152 153 153 155 156 155 157 156 156 157 157 158 158 159 158 159 159 155 133  83  84  77  75  68  66  69  72  73  72  67  62  57  58  58  62  67  69  70  66  64  61  58  55  52  51  50  50  50  53  55  59  62  71  81  86  93  98  95  87  74  61  60  63  71  75  75  76  76  83  86  85  88  91  90  85 108 135 141 143 143 144 145 144 145 145 145 145 146 145 146 146
 151 152 154 153 153 154 155 154 156 158 157 156 158 157 157 158 157 157 155 138  91  82  78  72  68  65  65  67  68  69  65  61  61  64  70  70  73  75  75  69  61  55  50  47  43  40  40  40  42  43  45  49  55  64  75  84  91  95  93  89  83  72  66  64  67  72  74  74  75  78  82  82  85  88  82  85 121 136 141 141 142 142 144 142 145 145 144 144 146 145 145 144
 152 153 153 154 154 154 154 154 154 156 156 155 156 156 156 156 157 156 155 144 104  80  75  70  67  61  58  61  65  64  62  61  63  68  73  72  72  75  75  70  66  59  51  46  40  38  37  37  36  39  43  50  56  63  69  75  84  89  89  87  86  79  71  67  64  69  71  72  71  70  76  78  81  82  76  84 128 139 140 142 140 141 144 142 144 142 143 142 144 144 143 144
 152 152 154 152 153 154 153 153 153 155 155 154 155 155 156 156 156 155 155 148 126  75  74  67  63  59  54  59  62  62  61  62  64  66  70  69  69  68  69  67  62  59  55  51  50  50  47  47  47  50  51  51  55  60  66  71  76  80  85  87  85  83  75  70  65  68  70  71  67  66  73  75  78  75  73  92 136 140 140 141 140 141 141 141 143 142 142 143 143 144 143 142
 152 153 153 152 153 153 152 153 153 154 155 154 155 154 154 154 154 154 154 151 143  87  70  64  60  56  53  57  60  61  61  62  62  64  67  66  67  67  67  65  63  62  60  60  60  59  57  58  57  57  58  57  58  62  67  73  79  80  81  85  83  82  77  71  71  70  70  69  70  70  74  73  75  71  69 110 137 140 140 139 140 139 139 140 141 140 140 140 141 143 141 142
 151 151 152 153 152 153 153 154 153 154 155 155 155 154 154 153 154 154 154 153 151 121  72  62  60  58  55  59  61  62  60  63  65  65  66  66  67  68  70  68  68  66  66  67  68  68  69  68  66  69  69  66  65  69  73  78  84  87  87  85  87  84  80  77  74  71  72  71  68  74  78  78  72  67  86 127 138 139 138 140 140 139 139 139 139 140 139 139 139 140 140 140
 152 152 151 152 152 153 152 153 153 154 155 153 154 155 155 153 154 154 154 152 152 144  86  58  58  56  58  60  61  61  62  65  67  65  67  65  67  72  74  74  76  78  78  80  82  82  82  85  86  87  88  87  84  83  83  84  88  91  93  93  90  88  83  79  76  73  72  72  72  70  73  74  65  60 108 135 139 139 138 138 139 139 138 138 138 138 139 138 138 138 139 140
 151 151 151 151 152 152 152 153 153 153 153 154 155 154 154 153 153 152 152 152 151 148 122  59  56  50  57  58  59  62  64  65  67  66  68  68  73  76  78  79  85  87  87  87  89  89  90  93  94  96  97  99 101  96  90  88  90  92  94  97  96  90  87  81  77  74  72  72  71  70  71  62  57  77 127 137 137 138 139 138 139 139 138 137 137 137 139 138 137 139 139 140
 150 151 151 150 152 152 152 153 153 153 153 152 153 153 154 152 152 151 150 150 149 147 139  81  52  51  54  56  60  62  64  66  68  68  71  74  77  78  80  83  87  88  88  89  92  91  92  92  93  97  99 104 105 101  98  95  96  95  96  97  96  90  88  84  78  76  70  68  68  68  67  56  59 114 132 136 138 138 138 137 137 136 136 136 134 136 138 138 136 138 136 137
 149 150 151 150 151 151 152 152 152 151 152 153 152 152 152 152 150 150 151 148 148 147 144 123  51  49  50  51  56  59  62  65  68  69  72  75  75  80  80  86  88  89  88  88  87  86  86  86  88  95  98 103 107 107 102 100  98 100  96  94  94  91  87  81  77  74  69  69  66  63  57  51  73 128 134 135 135 135 134 135 136 136 135 134 134 134 135 135 136 135 135 135
 149 148 150 149 150 150 150 152 152 151 152 153 151 151 151 148 149 149 147 146 146 145 144 138  89  49  48  49  52  57  59  62  66  68  71  76  77  78  82  86  85  83  84  85  82  81  79  80  82  87  93  98 106 105 102 103 102 100  98  96  94  89  86  79  76  71  69  68  64  60  51  60 110 131 134 134 133 134 134 134 134 136 133 133 135 134 135 134 134 134 133 134
 147 149 148 149 149 149 149 148 151 151 151 151 150 148 149 147 147 148 147 145 145 144 143 140 129  67  51  48  49  52  55  59  61  65  70  72  75  77  78  81  83  78  79  80  77  75  71  68  70  76  84  91  96  99  99 100  98  95  95  94  91  85  78  74  71  68  60  59  57  53  50  70 106 128 132 133 133 133 133 135 134 133 131 134 135 134 131 132 130 133 132 132
 147 148 148 146 148 149 148 150 149 150 150 148 149 149 147 146 146 146 145 145 145 144 141 141 138 116  68  45  46  46  47  51  56  59  62  67  70  75  73  74  76  74  73  70  69  67  61  58  62  69  74  80  84  87  88  86  85  87  88  88  86  79  73  71  65  61  56  53  49  53  72  54  31  57 110 130 132 132 132 133 132 133 132 131 133 131 131 130 128 131 129 131
 148 147 147 147 147 147 148 148 147 148 147 147 146 148 147 145 146 143 144 142 143 142 140 140 137 134 100  52  38  39  40  45  46  51  54  60  60  62  63  63  65  64  65  62  61  58  51  50  56  58  63  68  71  73  76  75  75  79  78  79  76  71  67  60  55  54  52  50  45  66  92  84  58  33  41  69 103 127 129 130 133 132 133 130 130 131 129 128 130 129 130 130
 146 146 146 145 146 146 146 146 146 146 148 147 146 146 145 143 144 144 141 141 140 140 138 136 123  75  39  70  41  32  33  34  36  40  42  46  51  55  57  52  51  54  56  52  50  48  45  46  47  50  54  56  57  58  60  61  67  66  70  66  62  58  54  52  50  50  47  48  59  83  97 102  89  80  42  37  44  56  87 113 125 127 127 127 126 128 126 126 128 128 127 126
 146 145 146 146 146 144 146 145 144 144 144 144 144 144 144 141 142 140 139 138 138 137 120  79  41  26  58  72  60  38  28  29  30  32  34  37  39  43  46  43  40  42  44  43  42  40  40  41  43  44  44  46  50  49  47  46  52  50  55  51  47  45  44  45  46  48  46  55  79  92  99 106 103  85  74  32  34  37  39  40  47  62  83 114 124 125 124 125 127 128 127 126
 145 145 146 145 144 146 145 145 143 144 144 142 142 142 144 141 140 138 138 137 122  82  45  34  26  49  80  74  67  51  36  27  27  28  28  28  31  34  37  36  33  34  35  34  38  35  34  35  38  37  34  37  41  43  38  34  40  42  38  35  35  37  40  44  46  47  51  73  86  93 100 105 110  88  79  52  28  33  34  34  32  31  30  40  81 116 123 124 126 126 126 128
 142 143 144 143 143 142 143 144 144 141 141 141 140 139 140 140 138 135 118  70  38  34  29  24  29  76  80  74  67  59  48  31  24  24  25  24  27  29  31  29  29  30  29  29  31  29  28  30  30  30  29  29  31  30  28  28  30  28  28  27  30  34  39  47  46  48  66  78  86  94  99 105 110 102  78  66  30  27  29  29  28  25  27  28  33  43  69  94 112 118 119 121
 139 140 143 142 142 142 140 140 140 139 139 138 139 138 136 134 121  74  37  31  30  26  23  21  49  79  78  73  67  63  56  42  30  25  23  23  24  26  25  26  25  23  23  24  24  22  23  25  25  25  24  23  24  25  23  23  24  25  25  26  31  35  40  45  46  62  74  80  88  94  98 108 111 110  78  71  39  24  27  29  28  25  25  26  28  30  34  34  39  49  61  72
 140 140 141 142 140 139 139 140 139 138 139 137 136 135 119  78  38  31  27  24  23  21  20  20  61  80  77  72  66  61  58  53  43  35  29  24  23  25  22  23  19  19  16  19  18  17  17  18  20  20  21  19  19  20  20  22  23  24  24  27  32  36  40  46  61  70  75  81  89  93  98 106 112 111  80  72  44  22  24  27  27  26  24  25  26  26  28  28  30  30  29  32
 140 138 139 138 138 138 138 138 138 138 135 129 106  68  37  32  28  25  22  21  20  18  18  17  69  80  77  69  66  58  58  56  52  47  40  30  23  24  23  21  18  19  17  16  17  17  16  17  19  17  20  20  18  19  22  23  22  24  26  29  34  41  42  57  70  74  78  83  86  91  98 106 110 112  85  71  47  23  24  25  26  24  23  24  23  24  27  26  27  26  26  26
 137 137 138 138 138 136 138 137 136 126  88  50  33  32  27  25  23  21  19  19  18  18  18  20  72  79  76  70  66  61  59  57  55  52  47  38  29  25  22  23  22  23  21  17  19  19  17  20  21  21  22  22  21  23  23  24  23  25  27  31  35  41  59  67  71  75  81  83  88  91  98 104 110 114  84  72  50  26  24  25  24  24  22  25  24  23  26  26  26  27  26  26
 135 136 136 136 134 135 135 124  86  44  29  28  26  24  23  23  21  19  19  17  16  17  17  20  73  77  74  69  65  61  59  58  56  54  51  46  38  31  24  23  23  21  19  18  18  19  16  17  18  20  20  22  21  22  24  25  24  26  30  34  42  56  63  68  73  77  80  85  88  92  98 103 109 113  80  66  48  23  20  20  21  22  21  24  23  22  24  23  26  26  24  24
 134 134 133 134 132 124  85  42  29  27  24  23  21  20  20  19  19  17  17  15  15  16  16  15  69  76  70  68  64  61  58  56  56  55  53  52  46  40  32  24  24  24  21  20  18  18  18  19  18  18  19  20  18  21  23  24  27  29  35  43  55  61  65  68  72  77  81  87  89  94  99 102 108 108  71  59  44  22  20  20  20  20  21  22  20  21  20  20  22  25  23  25
 133 131 127 108  70  38  30  28  24  21  21  21  19  19  19  18  19  17  16  16  14  15  15  14  60  74  71  67  66  62  58  57  57  54  54  53  51  47  40  34  26  25  26  24  23  20  20  20  20  20  19  20  21  22  25  27  30  35  43  56  61  63  66  68  72  77  82  85  88  95  99 104 106 102  66  53  39  21  20  19  20  20  20  21  21  20  21  20  20  24  24  25
 106  76  50  29  29  28  24  21  20  20  19  18  18  18  17  17  17  17  15  13  15  13  13  14  45  70  71  65  64  61  59  58  58  56  55  55  53  51  48  42  35  29  28  27  27  26  25  24  23  22  21  23  23  25  28  31  36  44  53  58  59  61  64  69  74  77  79  82  86  92  96 102 104  94  62  49  31  19  18  19  18  20  21  20  21  20  20  19  21  21  24  25
  28  29  28  27  24  22  20  19  19  19  18  18  17  17  17  18  17  17  14  13  14  12  14  14  33  70  70  67  65  62  59  58  58  58  58  56  54  53  50  46  41  35  30  29  29  28  26  27  28  27  25  26  26  29  33  37  44  53  55  60  63  61  66  70  73  77  80  83  87  90  96 100 100  80  58  45  27  18  17  18  19  19  21  20  21  20  20  20  21  20  23  24
  25  25  24  23  21  18  18  18  18  18  18  18  18  17  17  17  16  17  15  14  12  12  13  12  16  61  69  67  63  60  59  61  59  58  58  59  57  54  52  49  46  41  37  34  31  29  28  28  28  28  27  28  28  32  37  43  48  52  56  60  63  62  65  70  74  77  80  83  85  91  96 102  96  68  51  39  21  17  18  18  18  18  21  24  21  19  19  18  19  19  22  21
  20  21  21  19  18  17  17  17  18  17  17  17  16  15  16  16  17  15  15  14  12  12  13  12  14  44  68  66  62  59  59  61  61  61  59  60  59  56  54  52  48  45  42  39  36  32  31  29  29  30  30  30  33  37  40  46  51  53  55  59  59  60  66  70  75  78  81  84  85  90  94  99  89  60  47  30  19  17  18  18  18  19  20  22  20  20  19  18  18  19  20  21
  20  18  18  16  17  16  17  16  16  16  16  16  15  14  15  16  15  16  13  13  12  12  12  10  12  22  64  66  62  60  59  60  59  59  59  60  61  57  55  55  53  48  45  42  38  36  34  32  31  31  32  32  35  39  43  47  52  54  56  58  58  63  67  69  74  78  82  84  86  90  94  95  75  58  43  23  17  17  17  17  17  19  20  21  20  18  19  18  18  18  19  19
  16  19  17  17  16  16  16  16  15  16  15  15  14  14  14  14  15  15  14  11  10  12  11  11  11  14  50  64  61  59  58  59  59  59  59  59  60  57  56  54  52  51  48  45  42  37  37  34  33  32  33  33  37  39  45  50  52  53  54  56  56  60  65  71  74  77  82  84  85  90  92  85  61  50  34  18  17  15  14  16  16  17  18  18  18  18  19  17  17  18  18  19
