P2
# Generated by OpenCV 3.4.0
92 112
255
 136 135 135 136 136 137 137 138 137 137 137 137 139 139 138 140 141 142 141 141 142 142 142 142 142 143 143 142 143 143 142 143 142 143 144 143 144 142 140 141 143 143 144 142 141 138 140 144 146 146 145 146 148 148 147 147 148 148 147 147 149 148 148 148 149 148 149 149 149 149 148 148 148 149 148 148 148 147 147 148 148 148 148 148 148 148 149 147 147 148 147 148
 136 136 135 136 136 136 139 137 137 139 138 139 140 140 138 139 140 141 141 141 142 142 142 142 143 143 142 143 143 144 143 142 144 142 143 141 139 136 140 142 141 139 136 132 133 138 138 140 142 143 144 144 147 148 148 149 148 147 148 147 148 148 148 147 148 148 148 148 148 149 148 149 149 148 148 149 147 148 147 148 149 149 149 149 149 149 148 149 149 148 149 148
 135 136 137 136 137 137 138 137 138 138 137 138 141 140 140 140 139 140 141 144 142 143 144 143 143 144 143 143 143 144 144 143 144 141 138 126 126 131 129 125 123 119 115 128 134 134 136 140 143 144 144 144 145 148 147 147 148 148 149 149 148 148 148 149 149 148 149 149 148 148 148 149 149 149 148 148 149 148 148 149 148 148 149 148 149 148 147 148 148 148 149 148
 135 136 136 137 138 137 139 137 139 138 137 141 140 141 140 140 140 142 142 142 143 144 142 143 143 143 143 143 144 144 144 142 142 135 115 117 118 103  93  87  79  84 103 113 113 119 127 133 135 138 137 137 140 143 145 146 148 148 149 148 149 148 149 150 148 149 148 148 148 150 148 149 148 149 148 150 148 148 148 148 148 149 149 148 148 148 147 148 148 148 147 148
 136 136 136 137 137 137 139 139 140 139 138 140 139 140 141 141 142 142 142 143 143 142 144 144 143 142 143 144 143 144 142 141 133 111 107 100  86  72  67  70  81  79  79  78  76  90  91  98 106 103 107 105 109 116 126 138 147 148 149 149 149 149 148 149 149 148 149 149 149 150 148 149 148 148 148 148 148 149 149 148 148 149 148 148 149 147 147 148 148 149 148 148
 136 137 137 137 136 138 138 138 140 140 140 141 141 141 142 140 142 143 142 143 142 143 142 144 143 143 142 143 144 142 139 133 102  92  85  68  57  58  61  54  51  50  51  56  69  76  75  76  76  85  90 100 103 105 104 115 137 146 149 150 148 148 148 149 148 149 148 148 149 149 148 149 148 148 148 148 148 150 148 148 149 149 149 148 148 148 149 148 147 148 148 148
 136 137 136 137 138 138 140 138 138 138 139 140 142 139 142 142 142 142 141 142 142 142 143 143 143 142 141 142 142 140 132 105 101  74  56  49  51  60  50  44  44  52  58  59  66  56  50  48  48  52  57  72  89  93  98 100 118 140 146 148 149 149 148 148 148 148 148 148 148 149 148 148 148 149 148 148 148 148 149 148 148 148 149 148 148 148 148 148 147 146 148 148
 136 136 137 136 137 137 139 139 140 140 139 139 139 140 141 142 143 142 142 141 142 143 142 143 141 140 141 140 141 132 107  99  77  56  43  42  53  40  38  39  46  52  58  56  49  44  38  37  38  41  44  49  52  59  56  59  91 134 144 146 147 147 147 147 147 147 149 148 148 148 149 149 149 149 148 150 150 148 149 148 148 147 147 148 148 148 148 147 148 148 148 148
 136 134 136 136 137 138 138 138 138 140 139 139 138 139 141 142 142 142 141 142 142 143 143 142 141 140 142 140 134 116  85 100  51  42  35  43  38  32  32  39  37  39  37  38  37  36  34  37  38  37  39  43  47  46  40  39  54  90 122 135 137 137 138 140 146 147 148 148 148 149 148 148 149 149 148 149 149 148 149 148 149 148 148 147 149 148 148 147 148 148 148 148
 137 136 137 136 137 137 138 139 139 141 141 140 141 140 141 142 142 141 142 142 143 144 144 142 141 138 139 136 125 103 101  74  47  44  32  34  30  30  32  34  35  33  32  32  35  38  38  38  37  37  37  41  42  39  36  36  43  51  62  65  66  69  67  82 117 142 147 149 149 149 148 148 148 148 148 149 149 149 149 148 148 149 148 148 148 148 148 148 148 148 147 148
 137 136 136 135 136 137 136 137 139 139 140 142 141 141 142 141 141 142 143 143 144 143 143 142 142 141 134 136 115  94  84  42  55  30  28  28  26  27  28  28  26  28  26  26  27  31  35  38  37  35  35  34  32  31  33  38  39  44  47  51  52  46  48  54  63 119 141 147 148 148 147 149 148 148 149 150 148 148 149 147 147 148 148 149 149 148 148 149 148 149 148 149
 136 137 136 137 136 137 137 137 138 137 139 141 141 141 141 142 141 142 142 142 143 143 143 144 143 137 137 130 110  86  49  36  33  24  28  25  25  24  24  20  20  22  23  24  23  23  24  26  30  32  30  30  31  32  33  36  38  38  41  42  38  38  42  42  51  70 103 135 144 148 147 149 148 148 148 149 148 149 148 148 149 148 148 148 148 148 148 148 148 148 148 149
 136 136 135 137 136 137 138 137 136 138 139 139 138 140 140 140 142 142 143 144 142 143 143 142 142 136 131 115 101  55  31  30  24  27  25  23  21  19  20  18  17  17  18  20  20  20  21  19  20  22  25  25  27  30  32  35  35  35  34  35  32  35  39  40  44  46  51  67 110 141 146 148 148 148 148 149 148 148 148 149 148 148 149 148 148 147 148 149 150 148 148 148
 136 136 136 138 136 137 137 137 137 138 139 139 137 140 140 141 141 142 143 143 143 142 142 141 138 129 124 106  82  35  28  21  22  27  20  17  15  16  17  16  15  15  16  16  18  18  17  16  17  18  19  23  23  26  27  27  30  29  29  26  29  36  38  40  37  39  40  44  55  94 133 145 148 147 146 148 149 150 148 148 148 149 148 147 148 148 149 148 148 148 147 148
 136 136 138 138 136 138 137 137 138 137 138 137 139 139 140 139 141 142 142 143 143 143 141 141 140 132 115  98  46  29  23  20  21  22  18  16  16  16  16  15  13  14  15  15  16  16  15  16  17  17  18  20  19  20  22  25  28  28  28  28  34  33  35  34  34  35  38  40  44  54  80 132 143 146 147 148 149 148 147 148 148 148 148 149 148 147 148 149 148 147 148 148
 136 137 137 137 137 138 137 138 138 139 139 139 139 140 140 139 140 141 142 141 142 142 141 143 140 132 117  78  33  23  21  17  18  16  16  14  13  14  14  13  13  13  14  13  16  15  14  16  17  19  18  17  17  18  20  24  25  23  26  28  28  26  28  35  32  33  34  37  38  40  49  68 119 141 147 148 148 148 148 147 148 148 148 149 148 147 147 148 148 148 148 148
 135 137 137 136 137 138 138 137 138 139 139 139 137 138 140 140 141 140 141 142 143 142 143 144 141 130  98  35  26  22  17  15  16  15  14  14  14  14  13  14  13  12  12  12  12  14  15  13  13  15  17  17  20  22  23  24  26  28  26  25  25  25  28  33  29  28  31  35  34  35  42  47  58 118 143 147 148 148 148 147 149 148 147 148 148 148 148 149 148 149 147 147
 137 136 136 137 138 137 137 139 138 139 137 137 137 138 140 140 141 142 142 142 142 143 143 143 141 127  49  29  23  20  18  15  17  16  15  15  15  15  15  15  15  15  13  12  12  12  13  13  13  15  17  20  20  23  24  25  26  26  25  23  23  23  27  26  24  26  27  34  29  36  38  47  50  67 123 143 147 148 148 148 148 149 149 148 147 147 148 148 148 150 148 147
 136 136 136 138 137 138 137 139 139 137 138 140 141 140 141 141 140 142 144 141 141 142 142 143 134  82  32  26  20  16  17  15  15  16  16  16  17  17  17  16  16  15  15  14  14  14  14  14  13  12  15  17  22  26  26  26  25  26  24  23  20  20  22  23  22  26  29  33  31  38  38  42  42  49  72 135 147 148 148 148 148 150 148 149 148 148 149 148 148 148 147 148
 138 137 136 137 136 138 139 141 137 139 141 142 140 140 142 142 142 141 142 142 142 143 142 139 109  40  30  23  17  15  16  16  15  16  19  20  19  19  20  21  20  19  19  17  17  17  16  16  15  14  15  15  18  22  25  24  24  24  24  24  21  21  20  23  24  26  32  34  38  37  38  40  38  39  48  87 139 146 148 150 149 149 148 148 148 148 149 148 148 149 149 148
 138 137 138 137 138 139 139 138 140 142 142 142 142 142 142 143 143 144 142 141 142 142 138 117  45  33  24  17  16  16  16  16  19  22  25  27  28  27  28  28  28  27  28  26  25  26  24  20  18  17  16  16  16  21  20  20  20  21  20  20  22  19  19  21  24  28  30  30  33  36  37  36  35  37  41  48 120 146 148 148 149 149 149 149 148 147 148 148 148 148 149 148
 138 138 139 138 138 138 138 138 141 142 142 142 141 144 143 144 143 142 143 142 142 138 132  69  37  26  18  16  17  18  17  19  24  31  37  40  43  42  45  46  46  48  49  46  43  44  40  34  28  25  21  20  19  20  18  18  18  18  18  18  19  19  20  21  24  24  23  27  33  35  36  36  35  34  40  47  97 141 147 149 149 150 149 148 149 148 148 149 149 148 149 148
 139 139 138 140 139 139 139 139 139 142 143 142 144 143 143 143 144 143 144 142 142 136  99  42  32  21  16  16  17  17  19  24  34  45  51  55  60  62  65  65  68  70  70  66  64  61  55  53  47  42  35  33  29  26  23  21  21  21  21  20  20  18  19  21  22  22  20  23  29  33  34  34  34  35  37  42  84 137 146 147 149 149 148 148 148 148 150 150 149 149 148 148
 139 140 138 141 140 142 141 142 140 143 143 143 144 143 143 144 145 143 143 144 140 108  49  38  24  19  17  18  18  18  23  35  48  58  64  69  74  78  81  81  79  81  81  78  76  73  72  68  64  62  58  52  47  46  39  35  33  33  31  29  28  26  23  23  25  22  20  20  26  33  32  32  31  33  35  40  50 117 143 148 148 149 149 150 148 149 150 149 148 149 149 148
 139 140 141 141 140 141 142 142 142 144 144 143 143 144 144 144 145 143 143 144 136  61  40  29  21  19  18  18  19  22  33  49  60  69  76  81  85  87  88  88  88  90  92  90  88  86  83  81  77  75  73  72  67  61  60  58  56  54  51  48  47  46  40  36  33  29  26  23  25  28  30  30  28  30  31  35  48  67 123 145 149 149 149 150 151 150 150 149 149 149 148 148
 141 140 141 141 142 143 141 143 143 143 143 143 143 144 144 145 145 145 145 142 106  39  33  26  23  22  20  19  20  30  49  65  77  82  86  89  91  92  91  94  96  99 100 101  96  96  93  89  85  84  82  82  78  75  70  70  71  70  69  68  70  71  68  67  60  52  44  34  29  27  26  27  30  32  30  34  39  50  77 136 147 150 149 151 150 148 151 149 149 150 150 149
 140 141 141 142 142 143 142 143 143 144 144 144 144 144 145 145 146 147 144 133  59  36  31  27  23  18  17  18  26  44  69  81  87  89  90  92  93  95  95  96  99 102 101 102 103 102 100  96  93  92  89  88  85  84  81  79  80  80  81  82  84  87  89  91  89  85  77  67  51  40  30  26  26  30  33  33  32  39  52  94 143 149 150 151 151 150 151 151 150 152 152 152
 143 142 142 142 143 144 143 143 143 144 144 144 145 146 146 146 146 146 139  87  36  32  27  24  22  18  18  22  36  69  83  88  92  91  92  95  95  96  97  98  98  99 102 103 102 103 101  98  96  94  90  90  88  88  86  86  87  87  87  89  89  92  97  97 101 105 106 104  92  75  51  29  24  26  28  32  32  35  41  61 118 145 150 153 153 152 153 153 153 152 150 152
 143 142 143 142 144 144 143 143 144 143 145 144 145 147 145 146 144 143 102  46  35  29  24  22  20  19  21  31  60  84  91  94  94  94  96  95  94  94  96  94  96  98  99  99 100 101  99  98  95  94  93  90  88  88  87  88  89  89  88  93  95  97 102 103 105 109 112 116 116 109  91  39  26  22  25  26  33  35  39  54  84 142 148 152 150 152 153 152 151 152 150 151
 143 142 142 143 144 144 143 144 144 144 144 146 146 147 148 147 142 127  48  36  32  28  24  21  19  20  28  48  72  87  94  98  98  98  95  94  96  94  94  92  90  93  94  96  94  94  95  94  95  94  90  89  88  88  87  88  89  92  92  92  95  99 105 106 109 112 118 122 123 123 119  79  32  23  22  25  28  33  37  50  74 135 149 152 154 154 154 153 153 151 151 151
 143 144 145 144 146 145 145 144 145 145 145 145 147 147 146 148 139  61  36  36  31  27  25  23  23  28  41  64  83  90  98  98  97  97  96  94  91  92  89  88  89  90  88  90  89  89  90  91  91  92  89  90  89  88  88  87  90  90  90  92  93  96 104 108 109 112 120 125 126 127 127 120  58  30  23  25  26  31  35  52  61 130 150 152 153 154 154 152 153 153 153 152
 144 145 146 144 145 145 146 145 147 146 146 147 147 147 146 146 112  46  35  34  29  25  24  24  28  34  51  74  90  96  97  98  97  97  94  93  89  89  89  88  88  87  88  86  85  86  87  88  90  89  88  90  91  89  89  88  89  90  89  88  89  94 102 108 110 111 117 123 126 129 131 131 106  41  27  26  34  35  38  49  72 119 150 154 154 154 154 152 151 154 153 154
 145 145 145 145 145 146 146 145 146 146 148 148 148 148 149 146  87  39  35  31  25  24  24  23  30  41  64  84  93  97  98  99  98  95  93  92  90  89  88  87  86  83  83  82  83  83  84  84  86  86  84  84  86  87  89  87  89  89  88  89  89  92  95 103 106 109 114 120 122 128 132 135 129  72  39  28  34  38  36  47  74 112 149 154 155 153 154 152 152 154 154 154
 144 144 145 146 146 148 148 147 148 147 148 148 149 149 149 144  78  37  32  30  27  24  24  25  32  49  72  87  91  94  96  97  95  95  91  90  89  88  87  87  85  84  85  83  85  85  84  84  87  87  88  88  88  87  88  87  87  88  90  91  89  93  93  96 103 107 112 116 119 122 131 133 134 110  50  31  32  42  40  44  72 110 147 154 154 154 153 150 153 155 155 154
 146 145 145 146 148 147 148 147 148 148 148 147 148 148 148 146  70  34  30  29  26  25  26  30  37  56  77  87  92  91  92  93  96  93  94  89  89  89  89  89  87  86  87  87  87  87  88  89  89  91  90  89  91  91  91  88  86  88  90  92  93  94  94  95 100 107 110 111 116 119 126 133 133 127  79  40  32  40  45  40  69 122 147 155 155 154 155 154 154 155 154 154
 147 147 147 146 146 147 148 148 148 149 149 148 150 149 150 143  63  35  33  28  26  25  28  32  44  59  77  85  91  89  89  93  92  78  90  91  91  91  94  96  96  96  97  96  94  94  95  97  95  96  94  93  93  93  96  94  93  93  92  94  96  95  98  98 102 108 111 113 115 118 124 127 132 130 101  47  36  39  44  45  60 132 148 155 155 154 154 153 154 155 156 155
 146 148 147 148 147 149 149 148 148 149 149 149 150 151 147 135  43  36  33  27  25  25  29  35  48  63  79  86  88  90  89  90  88  85  92  94  98  97  99 100 102 104 105 106 104 105 106 106 106 103 103 102 100  98 100 100 100 100  98 102 103 103 103 104 106 110 110 114 117 120 123 127 129 130 118  58  38  38  39  48  58 139 151 154 154 154 155 154 154 154 154 154
 148 147 147 148 148 149 149 149 148 149 150 149 150 150 148 113  45  37  31  26  24  25  30  39  54  68  81  88  87  87  89  90  89  91  97  99 102 104 109 108 107 110 112 114 114 112 112 112 111 109 107 108 107 107 107 108 109 111 111 111 112 113 113 112 111 113 114 114 116 119 121 126 127 127 121  76  45  37  35  43  52 132 152 154 155 155 154 156 155 153 154 154
 148 148 148 148 148 148 149 149 150 150 150 151 150 150 149 101  46  34  30  24  22  25  31  44  65  78  86  88  88  88  90  91  89  91  99  99 100 108 111 109 114 116 117 118 118 118 117 117 117 115 111 107 108 110 112 115 118 121 120 119 119 118 116 116 118 119 120 119 119 121 123 125 127 126 124  92  49  37  33  37  50 120 148 154 154 154 155 155 155 154 154 154
 146 147 148 148 147 148 149 150 148 149 151 149 151 149 148  92  43  33  28  23  22  26  35  55  74  82  86  88  90  91  92  93  95  96  98  99 102 105 109 110 111 116 115 116 118 118 118 120 120 117 112 112 110 113 114 116 118 117  98  99 120 122 121 123 124 124 126 123 123 125 123 125 126 126 124 106  58  41  36  35  45  99 149 152 155 155 154 154 156 155 155 155
 148 148 147 148 148 148 149 149 149 150 151 149 150 150 145  71  42  32  26  22  20  25  42  68  81  85  87  89  92  94  94  96  97  98  99 103 104 108 106 108 109 110 110 112 113 114 116 117 117 118 116 112 112 114 113 114 115 111  93  88 114 118 120 121 124 127 128 128 128 130 126 125 126 123 122 112  68  43  38  35  42  85 147 151 154 155 154 154 155 154 155 155
 147 148 148 148 148 149 148 148 149 149 151 151 151 149 137  66  42  31  24  23  19  26  53  77  82  83  87  89  92  91  95  98 101 100 101 107 106 104 102 100 101 100 103 105 107 105 106 108 110 111 111 109 110 108 106 106 106 103 100 102 108 111 113 117 121 128 128 131 135 136 130 128 127 124 121 114  80  44  36  36  43  90 146 153 154 156 156 155 155 155 155 155
 147 148 148 148 148 149 149 147 149 150 151 152 151 148 141  60  40  28  23  20  21  33  63  80  83  86  88  90  93  96 102 101  94  86  86  91  94  92  90  88  83  84  89  92  93  93  95  96  95  99  99  98  98  96  95  95  96  96  92  95  98 101 104 110 112 119 124 131 135 137 135 133 128 122 123 119  90  43  34  35  42  78 143 153 155 155 155 154 154 154 155 155
 148 148 148 148 148 148 150 150 150 150 151 149 151 149 140  47  37  28  22  22  22  41  68  81  82  88  89  91  92  96  97  90  80  70  75  76  73  70  72  72  72  71  74  77  78  80  82  80  83  88  88  88  88  87  84  84  83  82  81  84  89  91  94  99 103 107 109 118 126 129 127 125 128 125 124 120  97  46  34  34  42  76 143 152 153 156 154 155 154 154 155 155
 147 148 148 148 149 150 150 151 150 150 150 151 150 151 141  50  36  30  22  20  25  50  72  82  84  86  85  79  81  86  85  76  66  62  59  57  56  52  53  50  51  51  55  62  66  69  72  71  72  74  74  76  79  77  76  74  70  71  71  71  75  77  80  82  89  92  91  96 104 107 109 110 117 122 123 121 106  50  33  32  40  87 146 153 154 155 154 155 155 155 154 155
 147 146 148 148 148 149 150 150 149 150 152 150 151 150 140  60  38  32  23  20  24  56  76  83  86  87  80  69  74  84  80  68  62  55  50  44  39  39  38  36  34  36  37  44  50  56  61  65  66  68  67  68  69  70  70  66  61  63  62  63  63  62  63  61  59  61  62  66  77  87  98 106 105 109 116 118 110  60  35  34  39 101 148 153 153 154 155 155 154 154 154 154
 146 147 147 149 149 150 150 149 150 151 151 149 151 150 140  81  37  31  26  19  26  56  78  83  85  83  71  66  70  71  63  54  47  40  35  30  28  29  28  27  26  28  31  31  37  42  52  56  59  64  65  64  66  67  63  60  57  56  54  52  49  45  42  38  36  34  38  43  52  66  84  94 101 102 105 110 111  63  34  34  44 125 149 153 153 155 154 154 154 154 155 154
 146 148 147 147 149 148 150 150 151 151 149 149 149 150 146 111  41  30  27  22  27  60  79  82  83  82  74  70  65  58  50  45  45  40  34  32  30  27  27  25  23  24  26  30  33  35  41  49  56  61  63  64  66  67  63  57  53  50  46  41  37  30  27  25  26  26  29  33  36  48  63  75  86  95 101 100 109  68  34  32  55 138 151 153 154 153 153 154 154 154 154 152
 145 147 147 148 148 148 150 149 149 151 149 151 151 151 150 135  46  33  28  24  28  64  80  83  86  84  75  67  59  53  50  46  41  37  33  31  30  29  30  30  32  30  31  31  34  37  36  45  51  59  63  67  68  67  62  54  51  46  39  33  30  27  25  24  24  24  24  29  33  38  47  60  79  94 101  99 107  69  32  32  57 145 151 153 154 153 153 153 154 152 154 153
 144 147 148 147 147 148 150 149 149 150 151 150 149 151 150 141  80  41  28  24  29  64  81  83  83  77  72  63  56  50  44  37  33  33  35  32  29  26  25  25  26  30  34  35  36  37  39  43  49  56  63  68  70  70  65  55  47  39  34  31  30  28  28  26  26  27  29  29  32  36  41  50  62  83  98 101 104  77  36  35  75 146 151 154 151 152 153 152 151 152 152 152
 147 147 146 147 148 149 149 149 148 149 151 151 151 151 151 146 114  53  30  26  32  71  82  84  80  72  68  61  53  44  35  36  39  29  26  25  22  23  25  26  25  26  29  35  36  39  41  43  49  56  65  70  76  76  70  60  47  40  35  33  32  31  29  27  25  24  25  24  25  30  35  40  50  69  88 100 108  79  41  36  97 148 152 151 151 151 154 153 152 151 152 151
 145 145 146 145 146 147 149 150 151 150 149 149 149 150 150 147 133  74  33  26  33  75  84  81  77  73  68  59  49  38  37  42  30  37  38  28  28  22  22  31  30  28  28  30  35  39  41  44  50  59  67  75  82  86  79  65  50  41  36  33  30  26  24  24  21  19  21  23  24  27  44  46  38  58  80  97 111  83  39  39 123 148 151 152 152 151 152 152 152 152 153 151
 144 145 146 146 146 147 148 149 150 150 150 149 150 150 148 147 114  69  33  27  39  78  85  84  78  75  67  56  47  37  37  29  45  55  31  27  27  22  23  30  40  32  30  30  34  36  41  46  51  60  71  82  94 100  91  72  53  41  33  28  25  25  28  26  19  21  20  23  50  45  28  43  38  51  78  97 109  81  41  55 139 149 151 150 150 151 151 152 151 152 153 151
 144 144 145 146 146 146 148 148 148 148 150 148 148 149 150 126  83  52  34  29  42  79  87  85  78  74  65  55  47  40  36  44  62  67  32  24  22  20  24  31  46  38  31  33  39  40  42  45  50  61  75  92 103 106 101  78  52  36  30  26  26  30  36  23  22  23  20  22  73  90  47  36  45  50  75  96 105  86  42  65 142 150 151 150 150 150 151 152 151 151 151 150
 144 146 145 146 145 146 146 146 147 146 147 146 148 147 145 106  73  51  36  30  43  82  88  87  82  74  64  55  49  46  47  52  61  71  40  26  24  24  25  42  48  39  34  34  43  47  47  48  52  61  85 102 112 114 111  84  53  37  31  27  27  36  42  26  22  20  19  22  41  72  68  42  47  56  76  95 106  90  43  75 132 148 151 151 150 150 150 151 151 152 150 151
 143 144 144 145 145 146 145 147 147 147 147 146 147 147 145  78  54  56  37  30  45  82  87  87  83  73  64  58  56  55  57  55  55  58  53  34  26  27  36  48  44  37  37  39  46  56  54  52  56  65  90 107 118 122 117  93  60  47  36  26  28  36  42  33  25  23  23  24  47  72  73  77  62  67  80  97 110  95  46  68 122 148 151 150 150 150 151 152 151 152 150 150
 142 143 144 143 144 144 145 147 147 147 147 147 148 148 145  73  39  49  43  31  46  84  88  87  82  76  67  66  66  66  65  62  57  58  55  55  51  49  49  51  48  46  49  52  56  56  57  55  60  69  93 110 120 121 119 101  72  58  45  37  33  35  40  42  35  29  29  42  58  70  84  91  90  86  89  99 111  98  45  51 129 147 149 148 148 148 150 151 151 151 150 149
 142 141 144 143 143 144 146 146 147 146 147 149 148 148 146  90  41  58  51  33  49  84  88  85  82  79  75  74  76  75  71  67  61  58  54  51  49  46  45  44  44  45  49  53  56  55  60  60  65  69  94 111 116 114 119 108  83  71  57  46  42  43  45  47  46  49  51  54  61  73  90 100 105 100 100 107 114 103  50  70 143 148 149 149 148 150 150 148 149 150 150 150
 142 142 142 143 143 144 146 147 146 146 146 147 147 147 146 102  46  70  61  40  51  86  88  86  82  82  79  79  78  77  76  73  67  62  57  54  54  52  49  50  53  55  57  60  57  58  62  66  67  72  84 100 109 111 116 110  90  82  68  55  48  46  47  47  47  48  48  52  61  74  88 104 109 109 108 111 117 110  62 104 145 148 149 148 149 150 150 149 149 149 151 149
 141 141 142 142 144 143 144 146 145 146 145 147 147 148 147 123  58  76  66  43  52  86  88  85  84  81  80  82  80  81  80  77  76  71  67  62  62  61  61  62  65  65  64  61  57  63  66  70  71  74  79  90 100 108 113 111  96  92  84  70  58  54  53  51  52  53  56  58  69  82  94 104 112 112 113 115 118 115  84 127 145 148 149 148 148 149 149 150 149 148 148 148
 140 140 141 142 143 143 143 144 144 144 146 147 146 147 146 143  82  69  51  42  56  85  88  82  84  84  82  83  82  81  82  82  81  78  75  75  74  72  69  67  67  66  64  63  66  72  71  73  76  76  81  87  99 104 108 108  99  96  93  87  76  69  66  65  62  62  63  68  77  88  98 109 115 116 115 118 119 119  91 133 146 148 147 147 147 149 149 148 148 148 148 148
 139 139 142 143 143 143 143 144 143 144 145 146 147 147 147 146 100  60  42  46  61  86  86  86  87  86  85  85  84  82  82  83  82  80  80  79  75  76  72  71  70  69  71  71  76  77  77  78  81  78  82  90  98 103 108 112 105 100  99  98  91  83  77  74  72  76  80  85  91  99 106 115 118 119 120 119 119 118  80 126 147 148 147 147 147 149 147 148 147 147 147 147
 140 140 141 142 143 143 144 145 144 145 146 147 145 146 146 147  99  56  44  74  73  86  88  87  87  88  87  88  86  84  83  82  80  79  77  78  76  78  75  73  74  74  79  78  80  80  80  80  81  80  83  91 100 106 110 115 109 106 103 107 101  94  90  86  79  82  84  87  92 100 108 114 118 120 121 119 120 122  73 121 145 147 148 148 147 147 149 148 148 148 148 147
 140 140 140 141 141 142 143 144 144 145 145 146 146 145 146 145 104  61  53  82  77  86  88  87  88  89  87  87  86  84  81  80  78  78  78  77  74  73  75  77  76  78  79  78  78  79  80  80  81  82  83  88 100 112 113 115 110 106 105 107  98  92  92  93  88  84  85  90  91  98 104 111 116 119 119 121 121 119  82 127 146 147 148 148 148 147 148 149 149 148 147 147
 140 140 140 141 141 143 143 143 145 144 146 145 146 146 147 145 114  67  56  80  78  86  89  88  88  86  84  85  82  82  79  78  75  74  73  74  73  70  71  76  76  77  77  76  75  76  77  82  82  84  86  91 102 114 118 116 111 107 107 105  98  90  86  89  92  88  83  86  90  95  98 107 114 114 116 120 120 117 104 137 147 147 147 148 147 147 147 149 149 147 147 147
 140 140 140 142 141 143 144 145 145 145 145 146 145 146 147 146 123  78  60  73  76  83  87  86  84  80  80  80  80  78  79  76  74  72  69  69  69  69  72  73  75  78  75  72  72  73  74  80  84  86  87  92 101 114 116 114 112 108 106 103  98  87  82  85  88  87  83  81  85  91  94 102 108 110 110 113 118 118 126 142 145 147 147 147 146 148 148 148 148 148 147 146
 139 140 140 141 142 142 144 144 144 145 145 146 146 146 147 147 138  92  78  60  78  81  86  84  83  78  77  77  76  76  77  75  72  72  69  69  70  71  73  72  72  71  72  72  70  71  74  79  83  89  91  95 103 108 112 112 115 110 103 101  97  88  79  77  82  83  81  84  85  89  92  97 102 104 105 109 113 120 136 143 145 146 148 146 147 148 148 148 147 147 147 145
 139 140 140 140 142 141 142 143 144 146 145 146 146 146 147 146 145 121  88  57  68  79  84  82  79  78  76  75  73  74  74  72  70  72  70  70  71  73  72  73  70  69  69  69  69  70  70  74  83  92  96 100 103 108 111 110 113 113 104  98  93  88  78  71  74  80  84  84  85  87  91  93  98 100 102 105 110 121 141 143 145 146 146 147 147 147 148 148 148 148 147 147
 139 139 140 140 140 142 142 143 143 145 145 147 145 146 146 148 148 137  87  74  72  76  84  82  76  76  77  74  72  72  71  70  69  71  72  71  73  72  71  71  68  69  66  67  68  68  69  75  85  92  97  99 102 105 107 106 110 113 110  95  88  81  76  72  73  76  81  84  84  87  90  91  96  98 100 104 107 122 141 144 145 146 145 146 145 147 147 148 148 148 148 147
 139 139 139 139 140 140 141 143 143 144 145 145 146 147 147 147 148 142  95  72  68  69  81  79  76  73  74  73  71  68  67  72  71  70  71  70  64  67  71  70  67  68  66  65  64  66  74  82  87  90  97  97  97 101 101 100 103 111 115 100  81  76  72  71  73  74  76  81  80  83  90  90  92  97  98 100 105 123 141 142 143 143 145 144 146 144 146 146 147 147 147 146
 139 138 138 139 139 140 141 143 144 145 146 145 146 147 147 148 148 145 108  70  63  60  78  77  75  73  71  71  70  68  68  70  71  69  69  68  64  66  69  69  66  66  64  63  63  67  83  85  87  87  90  91  89  89  89  88  89 101 112 104  74  71  71  69  71  73  74  77  80  81  87  90  89  90  94  98 103 127 141 143 143 144 144 144 145 144 144 144 146 147 145 146
 138 139 140 139 140 141 141 144 145 145 145 144 147 147 147 148 148 147 140  84  70  64  76  76  72  70  72  70  70  69  67  68  68  68  70  69  67  69  69  68  66  65  63  62  60  72  85  83  82  82  81  81  78  77  75  73  75  81  95  98  77  65  66  69  71  72  71  74  77  79  80  85  85  88  92  96 102 134 140 142 143 143 144 143 143 142 144 145 146 144 144 144
 139 140 140 140 139 140 142 142 144 145 146 146 147 148 147 149 149 148 147 131  84  65  77  76  71  69  70  69  68  68  68  68  68  68  68  68  69  70  70  69  69  65  63  60  60  80  83  76  71  69  66  66  67  66  61  58  58  61  69  82  80  64  64  67  70  72  72  74  75  76  77  78  83  82  88  92 107 136 141 142 143 142 141 142 142 143 143 144 144 144 145 143
 141 140 140 141 140 140 141 141 144 144 146 146 147 147 149 149 148 147 146 147 143 114  90  81  70  70  70  68  66  65  68  67  66  68  66  67  68  68  69  68  67  65  64  62  62  80  76  62  55  53  53  54  52  52  49  46  46  49  53  64  84  65  62  66  70  72  73  74  75  78  78  77  82  83  85  90 115 138 140 142 142 142 144 142 142 142 142 143 143 144 144 142
 140 139 140 141 141 142 141 142 143 144 145 144 147 147 147 148 149 148 149 149 148 143 126  86  70  67  67  65  64  66  66  66  65  65  66  66  67  69  69  68  67  66  65  65  62  71  63  51  41  37  40  42  42  41  40  39  40  43  46  54  77  70  62  64  68  72  73  73  78  79  75  75  77  83  84  88 124 138 141 140 141 143 143 142 141 141 142 142 142 142 141 142
 140 139 140 141 143 142 142 143 143 145 146 145 145 147 147 149 150 149 150 151 146 141 130  86  74  67  66  66  65  66  65  65  66  66  68  67  68  70  70  69  67  66  69  68  61  57  45  33  22  22  29  37  38  35  34  36  35  28  27  40  63  70  65  64  68  73  75  75  77  80  75  75  78  81  87  97 129 138 142 141 140 142 140 141 141 141 142 141 141 141 141 141
 138 140 141 141 141 142 143 144 144 145 145 145 147 147 147 148 148 149 149 149 149 147 140  89  74  69  67  66  63  64  64  66  66  66  69  70  71  70  69  69  69  69  73  71  64  51  38  28  26  28  30  33  35  35  35  33  27  24  26  35  60  72  71  65  68  72  76  78  80  80  76  75  78  83  87 102 131 136 138 140 140 139 140 139 138 139 141 141 140 140 141 141
 138 140 139 140 142 142 142 142 143 144 146 147 146 146 147 148 148 150 150 150 149 148 141  92  76  69  68  64  62  64  65  66  67  67  71  71  71  70  70  68  72  73  75  74  68  54  41  31  29  32  35  36  34  31  34  36  35  33  41  55  69  74  74  71  71  74  78  81  84  88  82  76  78  86  90 109 131 134 135 137 137 138 139 139 137 138 138 139 140 139 141 140
 138 141 140 142 142 141 142 142 144 145 147 147 146 147 147 148 148 148 148 148 150 148 142  97  79  69  65  63  63  64  63  66  67  68  72  72  70  71  71  71  73  75  75  74  68  59  52  44  37  40  41  38  36  32  34  42  51  57  67  72  76  81  79  76  74  77  81  82  88  89  86  82  80  86  93 113 132 135 136 134 135 136 138 138 137 138 137 137 139 139 137 138
 138 139 140 140 141 140 142 142 142 145 145 146 146 146 147 148 149 148 148 147 148 148 145 101  78  68  67  65  62  62  63  66  70  70  72  74  71  71  72  73  75  76  76  75  66  63  58  52  50  47  45  41  36  31  34  42  55  67  71  74  77  83  85  79  78  81  84  85  88  90  87  83  82  86  93 118 134 136 135 135 134 136 137 137 137 136 137 135 138 137 138 137
 139 139 140 139 141 141 140 141 141 143 144 146 147 146 146 147 147 147 147 148 148 147 141  99  77  69  66  65  64  64  66  68  71  72  72  72  72  71  73  74  77  74  74  74  64  60  58  58  50  49  46  40  33  33  34  40  51  61  67  75  78  81  84  84  80  83  88  90  89  91  89  84  86  88  95 122 133 135 135 134 134 135 135 136 136 135 135 136 135 136 136 137
 139 139 139 139 139 140 140 141 142 143 144 145 146 145 147 148 146 147 146 147 147 147 141 104  77  71  68  66  64  64  66  68  70  70  68  70  72  72  75  74  72  71  69  68  64  62  57  55  48  48  42  38  30  32  35  41  49  56  62  71  73  74  78  83  84  84  88  90  89  91  90  85  86  90  97 125 131 132 133 133 134 134 134 135 136 135 135 133 135 136 135 135
 136 138 138 139 140 141 139 141 142 144 144 146 144 145 146 146 145 146 145 147 147 147 144 109  78  70  66  65  66  67  66  67  69  69  68  70  71  73  74  72  69  61  64  60  58  56  54  50  50  50  43  38  31  32  36  42  51  58  63  64  64  69  66  70  79  84  87  90  90  91  89  86  87  89 101 128 131 130 132 132 132 133 132 133 132 133 134 132 132 134 135 135
 136 137 138 137 138 139 139 140 140 141 143 145 143 144 142 143 145 146 146 145 146 145 138 104  77  70  66  65  67  67  66  67  69  69  68  69  69  70  69  67  60  54  54  50  52  53  54  51  53  54  50  43  34  35  39  48  56  64  66  65  66  68  66  62  67  80  86  88  89  91  91  88  88  90 103 125 128 130 131 131 130 130 132 130 131 131 133 131 131 132 134 134
 136 137 137 136 137 138 139 139 140 141 142 142 142 144 142 143 145 145 145 145 145 145 141 115  76  68  66  66  67  68  67  68  68  68  67  69  72  65  57  54  51  48  48  51  54  57  58  61  61  61  55  52  41  39  44  53  63  72  76  73  72  69  62  57  58  66  82  89  89  89  90  89  87  92 109 127 129 128 129 129 129 130 130 129 130 130 131 131 130 132 133 132
 134 135 137 137 137 138 138 139 140 141 140 142 143 141 141 142 141 142 142 144 143 143 140 123  78  69  66  66  66  66  67  68  70  69  67  68  69  57  52  52  46  44  49  56  61  62  61  60  56  52  50  52  54  52  52  50  52  59  68  72  74  71  63  52  50  54  73  87  89  89  90  89  88  93 116 127 128 128 129 129 128 128 127 128 128 129 130 131 130 130 130 131
 134 136 137 136 138 137 139 138 140 140 140 140 141 141 140 139 140 141 140 142 142 141 140 131  78  71  66  65  64  65  68  68  69  70  69  69  68  56  51  47  39  38  45  51  52  49  44  40  39  36  34  36  43  47  42  35  32  35  40  47  53  60  55  42  41  49  68  83  88  90  90  86  87  94 119 127 128 127 128 127 128 126 128 127 127 127 127 126 127 128 129 127
 135 135 135 136 135 136 138 137 139 139 139 139 141 140 141 140 141 140 140 139 140 140 139 134  90  70  67  63  57  62  67  68  70  70  68  69  65  56  50  38  27  26  29  30  31  31  31  34  34  33  30  26  26  28  26  26  26  28  32  30  30  33  30  26  32  44  63  79  88  91  90  85  86  97 121 126 126 127 127 126 125 126 126 126 126 126 127 126 126 126 128 127
 135 135 135 135 136 136 137 138 139 139 140 140 141 140 140 139 138 139 139 138 138 138 138 134 108  72  66  63  62  63  66  68  70  71  69  66  63  53  45  39  34  31  31  29  28  29  28  27  29  28  26  23  18  19  20  22  24  27  36  39  39  32  30  30  35  43  58  77  85  92  92  84  87 103 122 125 124 125 124 126 125 123 125 125 125 124 125 124 123 125 125 125
 132 134 134 134 136 135 135 137 138 138 138 138 139 139 138 139 139 138 137 136 136 136 136 133 124  75  69  65  66  65  66  67  69  70  69  67  60  50  46  48  51  46  44  45  49  50  48  44  37  34  30  26  22  22  26  34  43  54  68  75  69  61  61  56  46  46  59  74  84  91  89  84  89 105 120 124 123 124 123 123 122 121 122 122 123 124 121 122 121 120 122 122
 132 132 132 134 134 136 135 137 136 138 136 138 136 138 138 138 138 136 136 135 134 135 134 134 129  96  72  68  66  66  65  65  67  69  69  67  60  54  52  56  61  59  51  49  50  52  53  56  54  50  47  44  48  41  45  50  55  68  76  75  74  72  74  73  61  54  62  73  83  88  87  86  92 111 121 123 123 122 122 123 121 122 121 121 122 121 121 122 121 120 121 122
 132 132 132 133 132 136 135 137 137 135 136 136 136 137 136 136 137 134 134 135 133 131 132 131 130 117  74  69  66  65  66  65  66  67  66  63  59  56  56  60  62  62  58  51  47  48  50  53  55  56  56  60  60  52  54  54  60  67  70  68  70  72  75  74  69  62  66  74  81  88  86  86  93 117 121 121 122 121 121 121 121 121 120 120 120 120 120 121 119 121 122 120
 131 132 132 133 132 134 134 134 134 135 136 135 136 135 135 134 134 134 133 132 131 130 130 129 129 122  94  68  65  66  64  66  65  65  63  61  58  56  57  58  60  60  60  54  52  48  46  44  47  50  52  55  56  52  53  52  52  55  58  62  68  70  71  70  69  67  68  74  81  86  86  86 100 117 119 119 121 121 120 120 120 119 118 119 119 119 120 119 118 119 120 120
 130 131 131 131 132 134 133 134 135 134 135 132 134 133 133 133 133 131 131 132 130 129 128 129 126 123 108  72  64  66  63  65  66  63  59  60  59  56  55  56  56  57  56  53  51  47  46  42  39  40  40  43  44  43  44  43  42  45  49  56  61  66  67  68  67  67  68  72  80  84  85  84  83 103 120 119 119 120 120 119 119 118 118 118 119 118 118 117 117 118 119 119
 130 129 130 131 130 131 132 133 132 132 132 133 134 132 132 131 131 129 130 130 129 127 128 127 125 121 114  73  65  63  63  63  64  63  60  59  59  57  55  54  54  55  56  54  51  46  41  40  38  35  35  36  35  34  36  33  33  37  41  51  56  61  64  67  66  68  68  71  77  82  84  76  43  52  93 124 120 118 118 117 116 115 116 115 117 117 116 115 115 118 118 118
 127 128 128 130 130 131 132 132 130 131 131 132 131 131 131 129 130 130 129 128 127 126 126 125 124 122 116  76  66  61  61  63  62  63  61  58  57  57  54  54  52  55  54  52  48  43  37  34  33  31  29  29  27  28  27  27  29  31  39  51  57  61  64  64  61  65  69  72  77  81  80  47  33  31  52  87 122 107  88  88  88  97 107 111 112 113 114 114 114 114 115 116
 127 126 128 127 129 130 130 131 129 130 130 130 130 129 129 129 130 127 128 127 125 126 125 122 123 120 116  77  65  59  58  61  62  61  61  58  59  55  54  53  53  53  53  51  47  44  41  36  32  29  27  25  22  22  23  26  31  35  43  52  57  59  58  60  60  63  69  75  77  79  69  30  27  26  34  60 103 109  47  37  35  45  56  84 104 111 112 114 115 115 116 115
 126 126 128 127 127 129 130 129 129 129 127 129 129 128 127 126 127 126 126 126 124 125 122 123 121 119 116  80  65  58  55  57  59  60  61  60  59  59  58  54  53  53  52  52  49  49  46  41  37  35  33  29  24  26  29  32  40  45  50  53  56  59  61  61  62  67  71  75  77  76  37  24  23  24  27  46  78 115 108  33  23  25  30  40  66  95 111 113 115 115 116 116
 126 125 126 126 126 127 128 128 127 129 129 128 128 127 125 126 124 124 124 124 122 122 123 120 118 111  98  75  64  58  54  54  57  59  62  62  60  60  59  58  56  55  54  54  52  51  50  48  46  42  40  35  34  35  41  45  50  53  54  57  60  62  64  64  68  70  74  75  75  68  29  18  19  19  20  32  62  95 121 117  37  20  20  23  36  65  86 103 111 114 112 114
 125 125 125 126 125 127 126 127 127 128 127 128 126 125 124 124 124 124 124 124 122 121 119 114  99  82  55  62  65  59  56  52  52  54  60  61  62  63  61  62  61  59  60  58  57  54  52  51  49  48  45  45  44  43  48  51  54  56  58  58  62  69  68  67  71  74  75  75  76  71  28  19  14  14  16  23  47  77 105 129 123  60  29  19  20  43  68  79  91 108 108 111
 125 124 126 125 124 124 125 126 125 125 126 126 125 124 123 124 121 121 121 121 119 117 105  90  76  58  39  52  62  59  57  54  48  50  55  59  61  64  63  63  63  64  63  60  60  60  57  54  53  52  49  50  46  48  49  53  57  57  60  61  65  72  74  75  76  77  77  76  80  78  24  20  14  11  12  14  32  63  95 120 129  98  83  59  22  28  57  72  79  86 106 110
 124 124 124 124 124 125 124 125 125 125 125 125 124 123 122 121 122 121 119 118 111  98  88  82  66  50  33  46  62  59  57  54  48  48  50  50  58  62  64  65  66  64  65  63  62  63  60  58  55  54  48  47  48  48  48  52  57  59  61  65  69  74  75  76  78  78  77  76  84  81  22  19  17  10   9  10  21  50  82 111 126 107  75  78  60  26  47  64  73  75  82 105
 122 124 123 124 125 124 124 124 126 124 123 121 122 122 121 120 120 118 114 108  97  85  84  74  61  40  26  37  60  58  56  54  53  46  45  47  54  60  63  64  65  65  65  65  63  61  59  59  56  55  49  45  47  47  50  50  57  62  62  68  71  75  77  79  79  77  73  78  85  80  21  19  19  12  10   9  12  39  70 101 118 116  90  86  83  42  44  61  70  70  71  75
 124 124 122 123 123 122 122 123 123 122 121 121 121 122 120 119 119 115 107  99  92  88  84  71  47  26  20  27  62  60  59  56  54  48  48  46  50  56  61  62  65  66  65  63  62  60  61  61  58  58  52  50  50  47  49  52  58  64  64  67  74  76  79  80  75  70  70  78  87  82  21  17  19  15  10   8  10  29  61  92 118 123  97  86  85  61  42  58  68  70  69  69
 121 122 122 123 122 121 122 122 121 121 121 120 119 119 118 118 115 108 102  98  92  88  82  57  28  18  16  23  61  60  56  56  56  51  49  46  45  49  55  60  61  64  63  62  60  59  61  61  59  58  55  53  50  49  50  54  61  63  64  67  72  74  75  74  70  67  70  77  85  81  19  15  17  16  11  10   8  18  47  74 109 123 102  85  85  68  44  57  65  67  68  70
 122 121 121 122 122 121 122 120 120 121 120 120 118 119 117 116 109 103  99  95  92  84  62  33  15  14  12  14  58  61  58  56  54  52  50  48  44  44  49  53  55  59  58  58  60  60  60  60  57  53  53  50  49  49  50  51  56  58  61  63  67  73  75  72  64  62  71  80  86  80  20  12  16  18  12  11   9  11  36  66  96 121 106  84  80  68  42  55  65  66  66  67
 120 120 121 120 119 119 120 120 118 117 118 119 117 116 113 108 106 101  93  92  88  71  38  17  11  13  12  11  54  60  58  55  54  53  52  46  46  44  41  46  52  55  54  55  54  55  54  51  52  47  47  48  48  47  50  49  52  54  57  60  60  67  70  63  54  61  71  79  85  80  19  12  14  18  15  13  10   9  29  61  88 115 114  88  77  65  39  53  63  65  64  64
 120 119 120 120 119 119 119 118 116 116 116 118 116 112 109 103  99  92  95  86  75  49  21  11  11  12  11  12  49  60  59  55  54  52  50  48  44  44  42  42  45  49  48  49  49  50  49  48  47  45  43  42  42  43  44  45  47  52  53  53  57  60  59  52  52  65  72  77  83  78  17  12  12  17  18  14  12   9  20  52  81 107 116  88  75  59  38  48  60  63  63  65
 119 120 121 120 119 118 118 115 104  93  77 103 112 107 105 102  99  95  93  83  61  28  12   9  11  12  11  10  45  57  56  55  53  53  52  50  47  47  45  42  42  40  40  41  42  42  45  41  41  41  39  37  39  40  38  40  43  44  45  47  49  50  49  49  58  64  71  76  80  72  17  11  11  15  18  16  13   8  16  43  72 108 117  91  70  54  34  48  57  61  62  61
 120 120 120 118 118 114  95  70  50  44  67 107 106 106 104 100  97  94  93  75  46  15  11   9  13  11  11   9  43  54  55  55  53  51  50  50  50  49  48  47  44  40  36  35  34  33  35  34  34  34  33  34  35  37  35  36  38  39  38  42  39  44  49  56  58  64  71  74  79  69  17  10  11  13  17  17  16   7  11  41  63  96 112  90  66  47  31  46  57  59  60  60
 118 117 116 116  97  72  52  37  47  86 109 107 105 104 102 100 100  92  82  61  30  11  10  12  13  10  10  10  40  54  55  54  53  50  50  50  50  50  50  49  47  42  37  34  30  30  30  29  30  29  28  29  29  31  30  29  30  31  32  34  42  48  53  56  55  63  69  75  78  65  17  11  10  10  14  17  17   8   9  36  66  88  99  85  59  41  29  43  55  59  57  56
 116 113 107  82  62  47  28  59 109 112 108 105 102  99  99 100  95  89  74  49  16  10  10  13  12   9   8   8  40  53  53  54  54  52  51  51  48  49  50  49  49  44  41  37  36  32  32  28  27  26  26  26  28  28  29  27  30  34  39  45  49  52  52  54  57  61  69  72  75  59  15   9   9  11  14  16  17   8   8  27  61  86  95  81  51  34  29  43  55  58  55  56
