P2
# Generated by OpenCV 3.4.0
92 112
255
 132 131 132 132 134 134 133 133 134 136 135 135 135 136 135 134 135 136 135 136 136 132 110 112 104  95  75  64  68  78  76  66  64  65  83  92  86  84  78  82  96  97 100  93  98 104 128 139 142 142 142 143 144 143 143 144 144 143 144 145 145 145 146 146 145 144 145 145 145 145 145 144 144 145 144 146 146 144 145 145 145 146 146 146 146 145 145 145 145 144 144 144
 132 133 133 132 133 132 132 133 134 134 135 135 134 135 135 134 136 137 137 135 132 119 100  92  72  63  53  60  56  49  44  44  51  54  56  55  54  54  53  55  62  78  89  89  88  94 111 134 140 142 143 143 143 143 143 143 144 145 145 144 144 144 145 146 147 144 145 146 146 146 145 144 146 146 146 145 146 145 143 144 142 144 145 147 146 145 145 145 145 145 144 145
 131 131 132 133 133 132 133 132 135 135 135 136 136 136 134 135 137 136 137 131 123  92  85  71  59  44  55  58  42  38  43  57  50  63  57  48  41  38  40  41  43  49  53  56  49  50  67 118 134 139 138 139 140 138 140 142 145 145 144 145 145 146 146 146 147 145 146 145 145 147 146 145 145 145 145 147 146 146 145 144 145 144 146 146 145 145 146 145 146 145 145 146
 132 132 133 134 133 133 134 133 134 135 135 136 136 136 134 134 135 136 133 125  95  97  67  47  40  50  54  37  33  36  44  48  53  44  40  39  35  36  37  38  39  44  48  45  37  36  43  61  83  89  87  84  74  76  98 127 141 144 144 144 145 144 145 145 145 145 145 146 147 145 145 144 145 147 146 147 146 146 145 145 145 145 146 146 146 145 145 146 146 145 145 145
 133 133 133 132 132 133 133 133 135 135 136 135 136 135 134 136 135 134 129 106  94  76  52  41  37  44  36  30  32  37  36  36  32  32  31  30  30  34  34  36  38  43  45  39  34  33  36  43  51  54  55  49  47  50  56  78 129 137 143 145 144 145 145 146 146 146 145 147 146 146 146 144 146 146 145 147 146 146 147 145 146 147 147 146 146 144 146 145 144 145 144 144
 132 133 134 134 134 134 135 134 134 134 136 136 135 136 133 136 134 130 119  85 103  50  40  36  35  36  30  28  30  32  32  30  29  28  29  32  33  35  34  32  33  36  35  34  34  38  42  42  45  50  47  41  41  44  44  54  74 101 132 140 143 145 146 146 146 146 144 146 146 147 146 147 145 146 145 146 146 147 147 146 147 147 147 147 147 147 147 146 146 145 143 143
 132 133 133 134 134 135 134 135 134 135 134 136 135 134 135 136 132 130 102  87  94  42  48  28  32  32  26  26  28  28  27  25  24  25  25  24  26  29  32  32  32  31  30  30  33  35  37  37  40  39  37  35  38  40  39  44  45  49  58  97 128 142 145 145 145 146 146 147 147 148 148 148 147 147 147 147 148 148 147 146 147 147 147 147 146 147 147 146 147 146 145 147
 134 134 134 135 134 135 134 134 135 135 136 137 135 134 134 134 130 123  93  94  61  43  38  25  29  26  25  25  23  21  20  22  22  22  20  19  19  22  22  24  25  24  27  27  30  32  32  32  31  33  30  30  37  40  40  36  38  38  44  50  71 110 140 144 145 147 146 147 147 148 146 146 146 147 148 148 148 148 148 147 148 148 147 148 148 148 147 148 147 146 146 147
 133 135 134 134 134 134 135 135 135 136 135 136 136 138 134 128 132 116  92  86  29  33  25  25  25  23  24  20  19  16  16  16  16  16  17  17  17  18  16  17  16  19  21  22  24  24  26  27  27  26  27  34  36  40  33  34  34  36  39  40  44  55  96 132 139 145 147 147 147 147 148 149 148 148 147 147 148 148 148 147 148 148 148 147 149 147 146 147 148 147 146 147
 135 135 136 134 134 136 136 135 136 137 136 137 137 137 134 130 126 117  84  51  30  29  22  25  23  19  18  16  17  17  15  15  15  16  15  15  16  15  15  15  16  17  18  19  18  20  23  24  25  25  29  31  31  33  35  32  33  35  36  36  36  44  50  65 120 143 144 146 147 148 149 148 148 148 147 147 148 149 149 148 148 148 148 148 148 148 148 148 148 147 147 147
 136 136 136 137 137 138 137 136 137 137 138 137 137 136 134 129 117 104  72  35  25  21  22  26  19  17  17  15  16  14  13  14  14  15  15  15  14  14  16  16  17  17  16  15  17  19  20  22  23  26  25  27  27  31  35  32  33  33  36  34  31  37  45  51  64 119 143 147 148 149 148 148 148 148 148 148 149 148 149 149 150 148 148 149 149 149 148 149 148 147 147 149
 136 138 137 137 137 137 137 137 138 137 138 138 138 137 133 118 110  91  53  29  24  20  22  22  16  16  15  13  14  14  12  13  12  12  14  14  14  13  14  15  17  17  16  17  19  22  22  24  26  25  26  26  26  28  32  29  28  32  36  31  31  36  42  48  49  64 118 144 148 148 149 148 148 148 149 148 148 150 149 150 150 149 150 149 148 148 148 149 148 149 147 148
 137 136 137 136 136 136 138 138 138 138 138 138 137 136 132 122 107  82  33  24  22  18  18  15  16  15  14  13  13  12  11  12  12  12  12  12  13  14  12  13  14  17  18  18  20  23  24  25  25  26  25  25  25  29  27  24  28  32  34  30  35  36  39  41  40  48  62 123 141 148 148 149 149 149 150 149 149 150 150 150 150 149 149 150 150 149 150 150 149 150 148 149
 137 139 138 138 137 138 138 138 138 138 139 138 137 138 136 128 112  62  26  21  18  16  15  14  15  14  12  13  12  12  13  13  12  12  12  12  12  12  12  12  13  15  16  19  23  25  27  26  28  28  27  24  22  23  25  26  28  27  35  37  36  38  39  38  38  41  48  66 136 148 150 149 150 150 150 149 149 150 150 150 151 150 149 149 149 150 152 149 149 149 149 149
 138 138 139 139 138 138 138 139 139 138 138 136 138 139 139 129  91  32  23  20  16  16  15  14  15  15  15  14  14  14  14  14  13  13  13  12  12  11  12  13  14  14  14  17  22  25  26  28  26  27  28  25  25  23  24  26  29  32  32  34  36  37  35  36  35  37  43  50 105 146 148 150 150 151 151 151 151 150 152 151 151 151 150 150 149 150 151 150 151 150 151 150
 137 138 137 137 138 140 140 139 139 139 137 138 141 140 138 128  57  30  22  18  16  16  16  16  15  15  15  15  16  16  17  16  16  15  15  15  16  15  14  14  14  14  15  15  17  19  22  23  23  23  23  24  25  24  23  25  30  29  26  31  36  36  36  37  36  35  40  46  90 141 148 151 151 152 151 153 152 152 151 151 152 152 152 152 152 152 152 151 151 150 151 152
 138 139 139 140 139 138 139 139 138 138 140 142 140 140 136 105  34  26  18  15  16  15  15  15  16  16  17  18  17  18  21  21  20  21  19  20  21  21  18  18  16  16  16  16  18  18  19  21  22  23  20  19  20  21  23  23  23  23  23  26  32  34  34  37  34  34  37  40  53 116 145 149 151 152 152 151 152 152 150 152 153 153 152 152 153 153 153 150 151 152 151 151
 138 138 139 141 139 141 141 140 140 139 141 141 142 141 132  62  32  24  16  15  16  16  15  16  18  21  24  27  29  28  31  33  35  36  37  36  36  36  31  28  24  21  22  22  22  22  22  22  21  21  22  21  21  23  23  25  26  23  21  20  26  32  35  35  32  33  34  36  46  65 117 146 149 149 151 150 151 152 152 153 153 152 153 152 151 153 152 151 153 152 152 152
 139 139 140 142 141 140 141 141 142 141 142 142 140 137  84  36  28  19  15  15  16  15  16  20  26  33  36  40  43  49  53  57  58  60  58  59  58  55  50  48  43  41  40  39  35  34  33  33  35  35  35  35  37  39  39  36  36  31  28  25  24  25  30  30  30  32  31  32  38  50  69 116 146 148 150 150 152 151 151 151 153 153 153 153 153 153 153 152 152 152 152 151
 140 141 141 142 141 142 142 142 142 142 142 142 139 128  48  31  22  15  15  17  17  17  19  26  39  46  52  60  64  69  72  73  74  74  75  73  72  72  71  68  68  66  63  59  58  58  59  58  59  60  59  60  63  67  68  66  64  59  52  43  35  33  27  27  29  33  34  33  35  40  49  69 124 147 150 153 152 152 152 153 153 153 153 151 153 155 154 153 153 152 152 152
 141 142 143 142 142 142 143 143 144 143 143 142 136  90  40  26  19  14  16  17  17  19  28  42  53  61  67  74  79  80  82  82  84  85  86  84  83  83  83  83  83  83  81  78  76  74  72  75  75  75  76  78  81  86  87  89  90  90  88  84  71  55  39  32  29  31  32  33  33  35  39  51  76 133 148 149 152 153 154 153 154 154 153 152 153 153 154 154 155 153 152 153
 142 142 142 142 143 143 143 142 144 144 144 141 112  52  37  23  17  16  17  15  17  25  42  56  66  72  79  84  86  86  87  88  90  93  95  94  93  91  92  90  88  89  90  88  87  85  83  83  84  84  86  88  90  92  94  97  98 102 106 108 106  98  83  41  30  27  27  30  32  35  38  45  63  99 145 151 153 154 153 154 154 154 153 152 154 154 154 154 154 153 154 153
 142 143 143 143 144 144 144 144 144 144 143 135  66  42  30  20  18  19  16  16  22  34  54  68  78  83  87  87  89  90  91  93  95  97  99 101 101 100  99  98  98  95  94  93  92  90  88  89  90  90  92  94  97 100 103 105 105 108 112 119 122 120 115  91  39  25  24  26  29  33  37  42  54  80 138 152 154 153 153 155 154 153 153 155 156 154 156 154 154 154 153 155
 142 144 145 143 144 144 144 144 145 144 142 123  44  32  25  21  20  18  17  16  28  49  68  82  86  88  90  89  91  92  95  95  96 100 102 104 105 104 104 101 101 100  98  95  93  92  90  94  94  98  99  99 100 102 107 111 113 115 120 126 129 130 128 123  79  34  26  25  26  29  35  38  58  64 130 151 153 155 155 155 155 155 155 156 156 155 155 155 154 154 154 155
 143 143 145 144 144 144 144 145 144 144 141  83  38  30  28  23  19  16  16  24  39  67  82  88  88  88  90  91  93  93  92  92  93  95  98  99  97  99 100 100  98  94  91  90  90  92  90  90  91  93  96  95  99 101 105 109 115 119 120 126 132 132 135 136 125  66  35  24  28  32  35  38  49  76 112 150 152 154 154 155 155 155 155 155 154 155 155 155 154 154 155 153
 144 143 143 144 144 144 144 145 145 144 129  49  35  30  26  20  18  17  18  29  56  79  85  88  92  92  92  91  90  88  87  88  87  88  94  97  96  96  97  97  93  90  87  88  89  90  89  91  89  92  96  96  97  98 102 106 112 115 118 125 131 132 136 139 139 120  53  33  29  39  38  38  48  72 102 146 154 154 155 156 157 156 156 155 156 155 156 156 155 154 154 154
 144 144 144 144 143 144 144 145 144 140  90  37  29  26  24  19  18  17  22  39  67  81  88  92  95  94  90  88  89  89  89  90  92  93  95  96 101 103 107 109 110 107 104 100 100 101 103 103 102 101 101 102 100 101 103 106 110 114 118 124 126 131 134 137 141 137 103  49  33  33  40  39  43  65 103 141 152 154 155 154 156 155 155 155 156 156 155 156 155 156 156 155
 143 143 144 144 145 145 145 145 142 116  48  35  28  26  20  17  17  19  30  53  71  82  88  89  93  92  89  89  90  92  91  87  87  84  83  85  90  91  92  92  95  99  99  96  96  94  95  94  94  92  93  93  92  95  96  99 104 109 116 123 126 128 131 136 140 139 131  79  44  28  36  41  42  52 106 137 152 153 154 155 156 156 156 157 156 156 155 156 154 155 156 154
 143 144 145 144 145 145 145 142 138  66  37  31  25  24  22  17  19  26  41  64  78  84  89  92  95  92  91  89  87  83  81  78  75  73  72  72  73  72  75  76  76  79  80  81  82  84  85  85  85  85  88  89  89  90  89  90  94  98 105 113 118 125 128 133 138 138 137 119  57  37  35  39  46  46  98 142 153 155 155 155 156 156 156 156 155 156 156 156 155 156 154 154
 143 144 144 144 145 144 144 143 102  37  32  31  26  24  23  22  24  33  51  71  83  88  91  94  94  93  90  86  84  84  84  83  81  80  79  74  74  75  76  77  79  78  77  78  79  80  83  84  84  84  85  85  87  90  90  90  95  99 101 109 114 118 124 130 136 139 138 131  83  44  36  39  44  50  92 147 153 154 156 155 156 156 155 155 155 155 156 156 156 154 154 154
 144 145 145 144 143 144 143 138  59  34  32  29  26  25  23  23  30  42  62  78  85  87  90  91  83  87  90  91  89  88  86  86  85  86  87  87  87  86  88  92  94  92  92  92  92  92  89  89  91  90  91  94  96 101 104 106 110 114 116 120 123 122 126 130 132 136 135 134 115  59  37  37  39  50  71 143 152 153 155 154 155 156 155 156 156 156 156 155 155 155 154 155
 144 145 146 144 144 143 142 134  47  33  31  25  23  22  22  23  32  47  68  81  84  84  88  87  74  83  86  87  87  84  83  81  78  79  78  81  80  82  87  92  96  98  97  96  98  98 100  99 100 100 102 104 105 106 105 105 107 112 115 121 122 124 125 130 131 134 136 134 126  76  44  38  37  45  60 129 149 154 153 154 155 156 155 156 155 155 156 154 155 155 155 154
 144 144 144 145 146 145 144 134  43  33  29  25  23  21  22  25  33  51  67  79  82  83  85  81  81  84  87  88  88  90  91  87  85  86  83  77  75  80  84  88  89  91  92  93  91  94  98 100  99 100 104  97  91 113 113 114 118 123 126 128 126 128 132 131 131 131 133 132 132 107  52  41  35  40  49 110 147 151 153 154 154 154 154 156 156 155 155 155 155 154 154 153
 144 146 146 145 145 144 144 132  40  30  30  26  23  22  24  28  38  54  66  78  81  80  82  80  82  85  89  90  91  91  94  95  94  99 102 102  97  92  92  91  91  91  90  92  95  98 102 101  99 101 102  89  76 110 125 129 131 133 134 134 132 133 138 138 135 132 132 130 128 123  69  47  40  37  44  84 145 150 151 152 154 155 156 156 155 156 155 154 155 156 155 154
 145 145 145 145 144 143 144 132  44  30  30  25  24  23  25  31  42  57  69  77  79  78  81  82  84  87  87  90  94  99 103 104 104 106 109 112 115 115 111 108 102  98  96  96  96 100 103 106 104 105 105 103 108 125 131 133 135 136 134 131 131 132 131 132 133 133 132 129 129 127  89  50  42  39  42  76 139 148 151 154 155 156 156 155 155 154 154 154 155 155 154 155
 144 144 144 144 144 144 142 128  40  31  29  24  22  22  25  34  47  58  72  78  79  81  82  83  86  88  88  97  99  99 100 101 100 100 100 107 116 123 124 121 116 106 102 100 102 102 104 106 108 109 111 116 122 127 127 127 124 121 121 118 113 111 112 108 111 118 128 131 129 129 110  53  40  38  40  69 133 150 153 154 156 155 154 155 156 154 154 154 154 155 154 154
 144 144 144 144 144 144 141 111  36  32  29  25  21  23  27  35  51  65  74  75  78  80  81  85  85  83  75  74  75  75  75  80  86  81  79  84  92 106 115 123 122 117 112 106 105 104 103 104 107 107 109 110 111 112 111 105 104  96  88  77  79  82  87  90  90  92 111 123 128 129 122  56  38  36  41  60 130 147 152 154 156 155 154 155 156 155 155 154 153 154 154 154
 145 146 145 146 145 144 142  96  43  32  27  21  19  22  28  41  60  70  77  77  78  78  80  85  80  70  53  56  60  59  59  60  57  55  51  61  69  80  95 107 118 119 117 112 109 108 107 106 105 103 103 103 102  99  90  83  73  62  49  49  61  62  66  80  91  89  92 107 120 126 125  75  40  34  39  56 130 148 152 154 155 153 154 154 155 155 155 154 154 152 152 154
 144 144 144 144 145 144 143  97  45  32  25  20  19  21  31  48  65  72  76  77  76  75  80  80  66  51  44  44  46  44  43  42  41  40  40  44  52  55  64  82  99 109 112 110 106 104 106 107 103  96  91  89  86  79  67  56  49  44  42  45  48  52  57  67  86  88  89  95 109 121 124  90  45  35  40  56 137 150 154 155 155 154 154 154 154 154 154 153 154 154 154 154
 144 144 144 145 145 144 144 101  43  30  24  20  18  20  32  55  68  72  74  75  75  76  74  64  52  48  44  40  36  33  32  32  33  32  34  36  41  46  48  55  81  85  98 103  99  97  99  98  95  89  81  78  71  63  57  50  45  40  41  41  45  52  61  69  78  89  93  93  96 110 123 104  47  36  39  63 142 153 155 155 155 155 154 155 156 154 154 154 154 154 152 153
 144 143 144 144 145 144 142  86  40  30  23  19  17  19  36  62  70  73  76  74  72  69  63  57  53  45  40  34  31  32  32  32  31  29  30  32  42  43  49  47  58  68  82  88  88  86  88  88  83  78  68  67  61  54  49  47  43  42  43  47  58  68  70  72  81  93  99 103  98 104 116 116  49  36  38  79 146 154 154 154 153 154 155 155 155 154 153 155 154 153 152 153
 144 144 145 144 145 144 138  92  38  28  23  18  17  20  40  64  72  73  76  72  64  56  54  57  50  44  47  44  42  44  44  44  43  40  38  39  41  42  47  48  48  58  68  73  74  75  76  80  77  69  67  62  54  50  50  47  46  48  50  53  63  69  71  76  81  90  94 117 113 105 110 115  54  35  38  82 147 154 154 154 154 154 154 154 154 153 154 154 154 154 152 153
 143 144 144 144 144 144 137  95  38  28  20  19  18  20  45  64  72  74  74  69  59  50  52  51  50  51  56  55  52  52  52  51  47  43  42  42  43  43  44  45  47  49  56  61  64  66  69  74  71  66  62  56  51  51  49  50  50  50  49  50  54  58  59  65  71  79  94 112 121 112 107 116  65  36  38  86 148 153 154 155 155 154 153 154 154 154 154 152 155 154 154 154
 145 144 143 144 145 144 142  94  38  29  21  18  17  21  51  65  71  73  74  67  54  51  54  55  59  63  62  61  57  54  52  49  46  42  39  38  39  40  42  42  43  46  49  53  58  62  68  71  69  64  58  56  54  51  50  50  48  47  45  45  45  43  42  43  47  59  77  97 115 116 115 117  77  38  41 101 149 152 153 154 155 155 155 154 154 153 154 153 153 153 153 153
 144 145 145 145 146 145 143 105  40  30  24  18  17  22  50  67  72  73  72  64  57  59  61  63  66  64  58  54  50  46  41  40  38  36  35  35  36  37  39  41  41  43  46  49  54  59  66  72  71  66  59  56  54  52  50  48  46  44  39  32  31  35  42  46  40  40  51  72 101 116 118 120  86  44  43 120 150 154 153 155 154 155 154 154 152 153 152 152 153 153 154 152
 143 144 145 144 146 145 145 110  53  32  27  19  18  22  50  68  72  72  71  69  63  64  65  68  64  57  50  42  36  32  30  29  29  29  30  32  35  37  37  40  40  41  43  48  54  60  67  79  78  72  64  58  56  53  48  47  45  37  29  31  40  50  55  60  71  70  44  54  82 109 117 122  92  43  51 136 151 154 153 154 154 153 154 155 154 152 152 153 153 153 153 153
 144 145 145 144 145 145 144 125  73  36  29  23  18  21  48  67  71  73  74  70  67  70  69  63  52  45  37  31  29  33  34  33  30  27  28  29  34  36  37  39  38  41  43  46  54  61  67  84  88  79  71  62  57  51  45  44  36  28  29  29  30  31  34  35  34  52  66  49  70 100 113 116  91  46  63 141 151 153 152 155 154 154 155 155 155 154 152 152 153 154 153 152
 143 144 144 144 145 144 145 138 110  40  29  27  19  22  48  68  71  73  74  66  68  71  64  55  44  36  30  39  50  50  49  45  39  33  30  28  30  34  37  38  40  42  42  47  53  62  70  89  99  90  80  70  58  47  42  35  28  29  29  25  39  35  42  73  68  37  47  60  62  91 111 114 105  51  66 134 152 154 155 154 155 155 154 154 154 154 152 152 152 153 154 152
 144 144 145 146 145 144 145 143 135  59  31  28  21  21  44  70  74  72  72  66  70  68  56  47  37  31  45  44  35  29  27  29  31  30  31  31  30  32  35  37  38  42  43  47  53  63  74  94 107 100  86  72  56  46  37  30  30  38  31  31  31  25  28 104 138  76  42  55  64  87 108 116 113  55  68 121 151 154 154 155 155 155 155 154 153 152 153 152 152 153 153 154
 144 144 144 144 146 146 146 145 140  98  41  28  24  22  44  70  74  72  71  68  69  63  50  41  32  44  39  29  36  32  26  39  29  43  38  30  30  31  34  37  39  41  44  49  54  65  80  99 113 110  95  76  57  48  35  30  36  50  30  27  23  21  28  53 109  97  70  59  65  87 106 117 122  61  54 115 151 154 155 154 155 155 154 154 155 155 155 154 154 153 154 155
 144 144 145 146 146 147 146 146 142 130  66  32  26  24  42  71  75  73  69  70  68  57  46  37  37  39  31  47  45  30  35  25  28  31  53  46  34  33  36  39  43  42  47  51  56  69  87 102 120 118 102  79  63  52  34  32  43  53  37  30  24  23  27  47  88  96  84  89  91 101 110 120 124  71  54 131 151 153 155 154 154 156 155 155 154 155 155 154 154 154 155 155
 144 144 145 145 145 147 145 146 145 136  90  35  27  24  44  75  79  75  71  70  67  52  45  37  32  28  43  59  37  24  23  20  22  25  54  53  41  32  36  43  46  47  49  53  59  75  94 107 122 124 108  92  80  67  37  35  42  51  44  31  28  26  30  59  79  91 103 109 110 111 115 122 127  88  76 144 152 155 155 155 154 156 154 154 154 154 154 154 155 154 154 154
 143 144 144 146 146 147 146 146 145 117  67  37  27  24  44  75  79  76  74  71  65  50  43  37  34  39  54  70  45  26  23  22  24  28  54  53  43  37  42  47  57  60  57  58  62  80  98 108 122 127 116 104  94  75  60  51  49  53  52  51  51  51  56  67  77  95 109 115 117 114 117 122 128 103 103 146 151 154 155 155 155 155 155 156 155 153 154 154 155 155 155 155
 142 144 144 145 146 147 146 147 144  99  64  39  30  26  43  74  79  81  77  71  61  53  46  45  46  52  56  60  49  29  24  24  26  40  54  51  45  47  54  61  55  58  63  62  65  86 103 113 125 131 126 107 100  85  60  51  51  52  53  53  54  56  59  66  79  95 110 115 116 117 123 125 130 114 115 144 150 153 155 154 155 155 155 155 154 154 154 155 154 155 156 155
 143 145 144 145 146 145 147 148 144  83  50  42  33  27  39  75  81  82  79  72  63  57  54  55  57  56  54  55  56  50  43  42  44  51  54  51  50  50  51  50  52  57  63  66  69  86 106 117 125 131 130 115 105  94  76  61  54  50  50  53  53  56  62  67  77  90  99 109 116 120 125 127 129 123 100 143 152 154 155 155 156 155 154 155 156 156 155 154 153 154 154 155
 143 144 145 145 145 146 146 146 144  82  39  38  40  30  37  75  81  82  78  71  66  65  64  66  65  64  61  61  59  57  52  51  48  47  47  45  43  43  49  56  55  61  66  70  70  85 105 116 123 125 130 121 108 102  91  78  68  62  56  49  47  48  51  57  71  85 100 115 122 126 129 130 131 133  90 139 151 152 154 154 156 155 155 156 156 156 153 154 153 154 154 155
 143 144 145 145 145 146 147 147 145 102  39  44  46  33  36  73  81  83  78  73  71  70  72  73  70  70  65  58  55  53  52  50  48  44  44  42  48  56  62  63  61  64  69  70  70  78  90 106 114 121 128 123 111 106  99  94  86  82  76  72  71  74  76  79  87  94 106 113 120 127 130 130 132 131  89 135 151 153 154 155 156 155 155 156 156 155 154 153 153 155 153 154
 144 143 145 145 146 146 146 147 146 124  48  55  57  43  36  71  81  82  78  76  74  74  77  76  75  71  67  61  58  53  50  46  46  46  51  59  63  65  68  64  66  72  72  74  74  73  80  94 109 115 125 123 116 111 108 105  99  95  93  92  88  90  90  92  95  98 106 112 120 127 129 131 131 132 111 141 152 153 154 154 155 154 155 155 154 155 154 154 154 154 154 154
 144 144 146 145 145 146 147 148 148 142  63  67  67  53  37  69  82  83  78  76  72  75  78  77  77  74  70  66  59  55  57  59  60  63  64  65  65  70  68  68  74  76  75  77  77  73  80  92 103 112 123 126 119 117 115 115 105  99  99 101  98  97  97  99 101 104 106 111 121 125 125 127 132 134 131 147 152 152 152 154 155 153 154 155 154 155 153 154 154 153 154 154
 144 144 144 145 146 146 148 148 147 146 105  75  60  44  38  67  82  82  75  80  78  78  78  78  77  79  79  77  73  70  69  68  70  70  69  71  69  70  75  76  78  81  79  79  79  74  82  92 104 111 120 128 124 121 119 122 113 103  95  98 101 103  99 102 105 109 108 110 120 125 125 125 129 133 141 150 153 153 154 155 155 154 155 154 154 154 153 153 154 154 153 154
 144 144 144 145 146 146 147 147 147 148 138  75  51  40  47  65  82  83  81  82  79  81  82  81  79  81  82  78  74  74  77  74  77  76  74  76  75  77  80  78  78  79  78  77  78  77  80  89 100 113 120 128 126 124 123 120 120 109 101  94  96  98  97 101 108 113 112 114 117 123 126 125 126 131 141 152 153 152 153 155 154 154 154 154 153 154 154 154 154 154 153 152
 144 144 144 145 146 146 146 147 147 148 143  72  48  42  71  70  83  85  82  83  83  81  83  82  83  82  81  79  79  80  79  75  76  74  78  78  78  79  78  77  74  75  76  77  77  79  81  85 101 114 126 127 128 125 125 121 120 111 101  92  93  93  93  97 103 107 110 115 118 123 126 126 128 128 139 152 153 153 153 153 154 154 154 154 153 153 153 152 153 153 155 153
 142 143 145 145 146 146 147 147 148 148 144  79  53  52  77  74  85  87  84  84  83  82  83  82  82  80  80  77  77  76  76  77  76  76  79  79  79  79  74  74  72  73  74  78  78  80  80  87 101 114 125 126 127 122 123 122 119 111 100  92  87  87  91  95 101 105 107 113 116 120 124 129 130 128 134 149 152 152 153 153 152 153 154 154 153 153 153 153 154 154 154 153
 141 142 143 144 146 147 146 147 147 148 146  98  59  59  76  76  84  88  84  86  81  83  82  82  82  80  78  78  77  73  76  78  79  79  77  75  75  76  72  71  70  71  71  75  79  82  86  90 101 109 119 123 125 125 121 120 118 111  99  92  87  86  88  88  95 100 102 108 116 119 121 124 128 132 131 147 151 152 152 154 153 154 153 154 155 152 153 153 153 154 154 153
 143 142 144 144 145 145 145 146 146 147 145 112  66  56  75  74  84  86  83  83  81  81  81  80  81  81  79  78  79  77  78  79  79  77  74  72  70  71  69  69  67  70  71  74  78  87  91  96 102 105 114 120 124 128 123 119 115 109  95  89  84  85  87  86  90  95 101 104 111 115 116 120 124 129 131 148 151 151 152 153 152 152 152 154 153 153 153 154 155 154 154 152
 141 141 144 143 144 143 145 146 148 147 147 128  85  72  67  75  80  86  83  80  80  82  80  80  81  78  77  76  78  77  79  78  77  74  72  69  68  68  67  67  68  67  66  69  79  92  96 100 103 103 109 114 117 125 125 122 114 103  92  85  81  82  85  86  86  91  95 102 107 109 110 114 116 123 129 146 151 151 151 152 151 151 152 152 152 151 152 152 152 153 153 152
 141 141 142 143 143 144 146 147 147 147 146 144 105  80  55  72  76  85  84  80  82  83  83  82  79  80  78  77  77  76  77  73  72  72  69  65  66  66  65  65  65  67  68  72  80  90  94  96  99 102 106 109 113 118 124 128 117 100  84  79  77  80  83  84  84  88  93  96 102 106 105 109 112 115 126 146 149 150 151 151 150 151 151 151 151 151 151 151 152 152 151 152
 141 142 142 144 143 144 144 145 146 148 148 146 134  85  68  70  72  83  82  80  82  82  83  78  73  78  78  74  74  74  69  61  68  68  68  66  65  64  63  63  61  65  74  82  83  85  87  91  92  95  99 102 104 110 123 127 121 108  86  74  72  74  80  82  84  86  88  94  98 102 100 102 108 112 124 145 149 149 149 149 150 149 149 150 151 151 151 151 151 151 151 152
 141 142 142 144 144 144 144 145 145 147 147 147 141  90  73  70  66  80  81  81  82  83  81  79  74  75  74  73  71  69  67  66  67  66  65  63  63  63  61  60  60  67  85  85  82  82  81  84  85  85  85  87  90  94 109 118 117 119  93  73  69  69  74  77  83  84  85  92  96  98  94  97 101 109 126 144 148 148 148 148 150 149 150 150 150 149 150 149 151 151 151 151
 140 140 141 143 143 144 145 144 145 147 148 147 144 112  68  61  58  75  80  78  81  81  78  75  72  70  69  71  72  70  67  66  67  65  64  63  63  61  58  57  60  78  86  84  80  77  74  75  73  71  70  73  74  76  84  93 101 112 109  79  68  64  66  70  75  82  83  86  91  93  90  91  96 104 126 143 147 148 149 149 148 149 149 149 149 149 147 149 149 151 150 150
 140 141 141 143 144 143 144 145 146 145 147 147 147 139  83  65  59  74  75  75  78  76  72  72  71  70  68  69  68  67  66  66  67  64  64  62  61  58  59  58  60  84  84  75  69  67  65  63  60  62  60  59  59  58  63  68  75  94 105  82  72  65  61  63  67  74  81  83  89  92  88  87  89 102 124 143 146 146 147 148 147 148 149 149 148 148 148 146 147 148 148 148
 140 141 141 143 142 143 144 145 146 146 147 147 147 145 130  82  61  72  73  74  76  69  68  69  68  65  65  66  65  63  63  63  65  63  62  61  60  60  62  59  63  78  74  64  54  49  49  47  47  49  49  47  49  51  55  58  55  65  77  76  70  64  58  57  62  67  75  82  88  92  90  88  88 100 124 142 145 145 145 145 145 147 146 148 147 146 148 146 147 148 148 147
 139 140 140 142 143 142 143 144 145 147 148 147 146 147 145 139 113  86  72  69  70  66  65  66  63  62  61  62  62  61  62  64  63  62  61  60  58  60  62  60  60  62  55  47  39  35  35  37  37  37  38  40  42  48  42  30  29  42  64  77  72  62  57  55  56  63  71  77  85  91  90  88  84  99 123 139 143 144 145 145 145 146 145 145 144 147 147 146 147 148 146 148
 139 140 140 142 142 143 142 143 143 145 147 147 146 147 146 145 141 111  73  68  69  62  62  61  59  60  61  60  60  60  59  61  60  58  56  55  57  61  61  59  54  47  35  28  23  24  28  31  33  35  34  36  44  48  41  34  43  65  86  84  77  65  56  53  54  61  69  75  82  91  91  88  82 100 124 140 143 143 144 143 143 144 144 144 144 145 145 145 144 145 145 144
 138 139 139 140 140 142 142 142 143 144 144 146 146 146 145 145 142 113  74  68  66  58  55  55  59  60  57  57  60  60  58  57  56  55  53  54  57  60  60  59  53  43  33  28  27  29  30  30  31  32  34  38  44  48  52  60  74  82  88  88  81  70  56  48  50  59  67  75  81  88  93  89  76 101 123 139 141 142 143 144 142 142 144 144 143 144 144 142 143 144 143 143
 138 138 139 140 140 141 141 141 142 143 144 146 145 146 146 145 143 118  74  67  65  55  52  54  54  54  54  54  54  56  53  54  54  53  52  53  56  59  60  59  54  48  39  32  30  31  30  32  30  30  30  33  38  48  59  72  76  77  85  88  81  72  60  49  47  52  65  76  81  90  94  90  75 102 124 138 140 141 140 140 140 140 141 142 141 141 142 142 143 143 142 142
 137 138 139 139 139 141 141 141 140 141 142 144 145 145 144 145 142 124  76  68  63  55  50  53  54  55  53  53  54  53  51  51  51  50  50  53  54  56  58  58  56  52  48  40  36  35  33  31  30  29  29  31  34  41  52  60  70  74  84  81  80  70  58  49  46  48  60  75  82  87  94  91  76 100 124 137 137 137 138 138 138 139 139 139 141 139 139 140 142 141 141 142
 136 137 138 139 140 140 140 141 141 141 141 144 143 144 146 142 143 133  78  68  65  56  50  52  55  53  53  52  51  50  51  48  48  49  49  52  53  55  54  54  52  51  49  45  41  38  36  33  30  30  30  31  32  37  46  54  65  71  74  72  75  72  57  46  40  44  54  74  83  86  94  89  76 100 126 136 136 136 137 136 137 137 138 138 138 137 139 139 141 139 141 141
 137 136 138 138 138 139 140 140 140 141 141 142 144 144 145 142 142 139  84  68  64  56  50  54  57  53  53  51  49  49  49  46  47  48  49  50  52  50  53  52  53  48  48  44  37  37  36  34  31  30  30  30  31  37  45  55  64  72  76  77  76  75  61  42  30  34  49  71  85  86  93  88  79 103 127 134 136 137 136 136 136 135 136 136 137 138 137 138 139 138 138 138
 136 135 138 137 138 138 139 140 140 140 141 141 140 141 141 140 141 137  95  68  64  56  51  55  59  54  53  50  47  48  47  47  50  49  48  44  45  47  46  45  46  43  44  37  39  39  38  37  34  33  32  32  36  42  49  62  70  79  80  81  84  80  65  34  26  29  40  63  85  88  94  82  80 104 129 134 134 135 135 136 136 135 136 135 137 136 136 136 137 137 137 138
 135 137 137 137 137 139 139 140 139 140 141 140 141 141 141 140 141 137 106  70  64  57  51  53  60  56  54  50  48  48  49  50  47  44  40  37  37  40  41  43  44  44  43  39  45  43  42  42  40  39  38  39  42  49  55  64  74  80  80  79  77  58  30  22  24  28  40  59  85  88  93  79  84 111 130 132 133 133 133 134 134 135 135 134 135 135 135 135 135 135 135 136
 134 136 137 137 137 138 138 139 138 139 139 140 141 140 140 140 141 140 124  72  63  58  52  51  58  58  56  50  47  50  53  45  37  34  32  31  34  38  42  46  49  50  51  51  50  48  46  43  46  45  44  43  43  45  46  50  54  56  56  51  33  28  33  35  34  33  41  55  84  89  92  75  87 114 128 131 131 132 130 131 131 133 134 132 133 134 134 134 134 133 134 135
 135 134 137 137 137 138 138 138 139 140 139 139 139 140 140 141 140 139 136  81  62  57  53  48  54  60  56  52  49  53  51  39  31  28  22  25  33  39  42  44  45  45  44  44  41  39  37  36  37  39  38  35  34  33  35  38  46  50  44  52  57  65  74  66  47  40  43  56  82  88  91  77  92 123 128 130 131 131 130 131 131 131 132 131 132 132 133 133 133 134 134 133
 134 136 135 136 137 138 137 138 139 138 139 140 139 138 139 139 140 139 136 103  63  56  53  48  48  59  58  52  51  55  47  35  27  20  17  17  16  17  20  26  29  30  31  32  31  32  30  29  27  29  29  28  31  38  47  39  52  65  66  82  88  90  91  88  67  48  45  57  84  86  85  81 103 127 129 130 131 130 129 130 129 130 131 131 132 130 131 131 131 133 134 134
 134 134 134 135 135 137 137 137 138 139 139 138 139 138 137 138 139 138 138 129  69  56  51  44  41  54  58  54  53  54  41  32  27  28  31  30  29  24  20  20  25  30  27  30  32  30  29  33  32  33  31  35  44  52  60  48  61  79  90  94  94  96  97  94  80  54  48  62  84  88  83  87 110 126 129 130 129 127 130 128 128 128 129 128 129 130 131 131 131 132 132 133
 134 134 133 134 136 136 136 136 137 138 138 138 138 137 137 139 137 137 135 131  92  56  49  46  42  46  58  58  54  54  42  32  31  35  41  43  41  38  37  37  36  35  31  37  40  35  33  44  47  47  45  42  51  55  58  68  80  90  97  98  98 100  98  93  83  58  52  68  81  89  85  93 118 127 127 128 128 129 128 127 128 128 129 129 129 129 129 129 130 130 130 131
 134 134 133 134 136 135 136 136 137 136 136 137 138 137 137 136 137 135 133 131 124  65  52  48  49  46  55  61  55  55  49  36  34  41  47  49  49  48  47  46  47  48  51  53  52  47  39  45  47  48  46  45  53  60  67  77  84  92  98 100  98 101  99  95  86  66  59  72  79  89  88 100 122 127 126 127 126 128 128 127 128 127 128 127 129 129 128 128 129 130 130 131
 132 131 133 134 134 134 136 135 134 136 136 136 136 136 135 134 134 134 132 131 129  98  55  50  50  48  50  57  57  53  52  45  39  44  48  50  51  53  53  52  52  51  52  57  60  62  61  61  65  65  61  60  64  67  71  73  78  84  92  98 102 102  96  94  86  71  68  75  79  90  91 110 122 126 125 126 126 126 126 127 126 128 128 127 127 128 127 128 127 127 128 130
 133 133 134 135 134 134 135 134 135 136 134 135 136 135 135 134 132 132 132 131 130 123  69  55  51  50  49  54  57  55  52  51  47  47  46  49  52  54  54  55  54  53  51  53  53  57  62  65  66  63  59  59  58  58  60  62  67  77  89  96 100 100  96  95  86  75  75  76  83  91  95 118 124 126 126 123 125 126 124 125 123 126 126 126 125 127 127 126 126 125 123 125
 131 132 134 134 134 133 135 133 133 134 134 133 133 134 134 133 131 132 131 131 129 126 111  61  53  53  52  52  53  58  53  54  54  50  47  49  50  52  54  55  55  53  51  51  49  49  50  52  53  50  49  50  48  48  50  52  59  66  81  91  96  98  97  93  87  78  79  80  88  93  99 120 124 124 125 125 124 122 123 123 123 124 124 125 123 124 125 127 125 125 123 126
 130 132 132 133 133 134 133 133 133 133 132 133 132 134 133 133 132 130 129 129 127 125 123  83  54  52  52  52  53  53  56  54  55  56  51  50  51  53  53  53  54  53  50  48  45  44  41  43  40  41  40  39  38  38  40  42  52  57  70  84  93  96  96  93  87  81  82  85  90  94 108 121 123 123 122 122 121 122 121 123 122 122 122 123 124 123 124 124 123 123 124 124
 130 131 130 131 131 132 132 132 133 133 133 132 132 132 132 130 131 128 128 128 126 124 123 113  67  54  53  53  53  53  53  56  57  60  55  51  52  54  55  51  52  50  48  46  42  42  40  38  35  35  35  34  35  35  36  41  48  57  70  81  90  95  94  94  91  88  89  89  92  92 111 122 122 122 121 120 122 120 121 121 121 120 121 121 122 122 122 122 122 122 122 124
 129 129 131 132 130 130 130 131 131 133 130 131 131 130 127 127 130 129 128 127 126 126 125 119  84  57  52  54  55  54  50  51  55  57  59  56  55  54  56  54  52  50  47  43  42  40  36  35  34  32  32  32  33  33  36  40  48  59  69  78  85  87  92  94  91  92  92  91  91  80  69  69  88 129 126 122 122 121 121 120 120 120 120 120 121 120 121 120 121 122 122 122
 128 131 131 130 130 130 130 130 131 131 131 127 128 130 128 126 127 126 127 126 124 124 125 119  91  62  54  54  54  55  52  49  52  60  62  61  59  58  59  55  54  53  51  45  41  37  34  32  32  30  30  31  33  34  40  47  56  65  75  80  87  90  95  96  94  96  94  92  86  53  43  42  50  82 127 128 122 118 119 118 119 119 119 119 121 119 120 120 121 122 122 121
 130 129 130 130 129 129 130 129 130 130 128 130 128 129 126 127 127 125 124 123 123 122 119 111  86  64  56  51  52  53  54  52  51  53  62  64  64  62  61  60  59  58  53  51  46  43  40  35  36  34  32  33  38  42  48  57  66  72  76  82  86  91  98  98  99  98  96  93  64  38  33  35  33  54  89 130 112  92  87  89 105 113 116 116 117 118 120 119 119 120 121 119
 128 129 128 127 128 127 127 129 129 129 127 129 128 127 126 126 125 122 122 123 119 107  90  71  63  64  59  51  49  51  53  55  53  51  57  63  67  67  64  63  61  61  58  54  53  50  48  47  47  43  39  45  49  55  60  64  70  73  79  84  83  93  99  99 102 100  97  89  36  28  27  30  28  38  68 112 133  66  41  42  55  74  99 114 116 116 117 118 119 119 119 120
 128 128 128 128 128 127 127 128 128 127 127 126 126 126 126 126 124 122 120 111  93  79  62  50  49  64  61  53  49  50  51  54  55  54  56  63  68  68  66  67  66  63  60  56  56  56  54  54  53  50  51  53  53  61  65  70  73  76  83  87  88  95  99 100 102 100  94  71  34  25  22  24  26  28  53  89 126 133  48  31  29  37  51  81 109 115 118 119 121 121 120 121
 128 128 128 128 127 125 126 128 127 127 127 126 124 124 125 124 122 115 102  86  76  70  56  42  42  64  60  56  52  50  48  51  53  53  56  60  66  69  68  68  67  64  62  61  59  57  57  58  54  55  56  56  59  61  66  72  76  80  86  90  94  97 100 104 101  94  91  69  30  26  20  19  21  22  36  72 108 134 132  45  25  24  30  47  80 103 116 117 119 119 119 120
 127 127 128 127 126 126 126 126 127 126 125 123 124 123 124 120 111  96  85  78  75  65  49  32  28  64  61  56  53  51  47  47  50  53  50  58  63  67  69  67  70  68  66  65  64  61  62  61  59  58  61  61  63  63  65  72  79  83  86  91  97 100 101 102  98  87  89  71  27  23  24  15  16  17  23  56  89 121 141 128  51  22  21  27  54  81  98 112 116 116 116 117
 127 127 126 126 126 125 126 126 126 125 124 122 122 120 118 107  98  90  84  79  72  54  34  21  21  64  60  57  55  51  49  45  44  49  48  56  61  65  68  69  70  70  68  66  65  63  64  63  61  55  60  63  63  64  69  70  77  85  88  90  96  99  99  99  96  87  92  67  23  20  22  16  12  12  16  38  77 111 135 142 108  90  47  19  38  68  83  90 105 112 114 114
 126 126 125 125 125 124 126 125 121 122 121 121 122 118 108 100  93  87  84  77  58  35  20  18  17  61  61  58  54  52  49  47  42  43  46  51  58  62  66  68  71  71  68  66  64  64  62  63  63  60  62  64  63  64  66  71  78  84  88  90  93  99  99  97  92  83  94  68  22  19  20  19  14  11  11  25  64  98 131 139 112  93  94  50  32  61  76  82  88 107 114 115
 124 125 126 124 123 124 123 122 119 121 120 119 115 108 103  92  86  87  81  62  35  19  13  14  12  57  62  58  56  56  50  47  44  41  38  46  50  56  61  65  68  68  68  66  64  63  62  62  64  63  62  62  62  62  64  67  77  81  82  88  90  92  98  94  83  77  93  64  21  18  20  21  15  11  10  17  51  89 123 132 123 102 102  89  36  54  73  79  80  89 105 113
 124 122 123 123 123 122 121 119 118 119 117 112 104 100  93  86  87  79  66  40  18  11  11  11  13  52  62  58  56  55  52  49  47  44  39  41  43  51  57  60  64  62  68  67  65  64  64  64  63  63  63  62  60  60  61  63  68  73  76  80  83  83  88  87  73  79  95  63  20  18  19  20  17  14  10  12  38  77 111 133 130 105 105  97  56  52  70  77  76  76  76  97
 124 122 121 121 120 120 116 105 102 113 110 103  99  96  91  88  84  69  46  22  11  10  12  10  12  48  60  59  57  55  53  50  49  46  44  39  38  43  51  57  62  63  64  66  66  65  65  62  56  57  59  59  56  57  60  61  64  68  72  73  72  74  78  73  67  84  93  63  18  15  17  20  19  16  12  11  26  62  96 128 133 110 101 100  67  55  68  74  75  78  75  76
 121 119 118 114  92  71  51  47  85 106 101 101 100  92  93  88  76  58  27  12  10  11  11  10  10  43  59  58  56  55  54  53  50  49  46  44  37  36  41  52  55  56  58  59  59  59  57  58  54  54  57  54  54  53  55  55  58  59  60  62  63  65  67  65  75  87  92  66  17  14  14  18  19  18  14  10  18  50  87 116 133 113 100  96  69  51  67  75  73  74  76  71
 117 111  86  61  48  35  45  88 106 102 100  97  96  93  88  82  66  42  15   9   9  12  10   9   9  37  56  58  56  55  54  53  52  47  50  49  42  37  34  40  47  49  50  50  49  52  49  50  50  51  47  46  51  50  46  48  51  52  52  53  56  55  59  69  80  85  90  61  16  13  13  18  20  18  17  10  13  44  83 108 128 119  98  90  64  49  66  73  73  72  74  70
  92  67  52  38  29  83 110 106 102  98  95  96  96  92  85  72  53  25  11  10  11  11  10   7   9  32  56  56  56  54  54  53  50  48  48  47  46  43  38  36  35  39  42  42  42  43  42  43  44  43  44  44  42  43  42  42  42  45  45  46  46  53  59  72  81  85  86  61  14  12  12  16  20  19  18  11  12  38  71 104 124 120  98  84  59  46  60  72  73  72  72  67
  57  44  31  24  74 102 108 103  99  95  91  94  92  90  84  62  40  14   8   8  11  10   9   8   8  29  56  55  54  54  52  51  52  49  49  48  48  45  42  38  33  31  34  37  36  35  35  36  35  36  34  33  35  36  34  34  34  37  37  40  46  56  65  72  81  84  86  60  16  12  12  13  20  20  19  14  10  32  63  99 126 122  94  80  52  43  60  66  68  68  69  64
  44  26  20  50  94 101 104 101  97  92  94  93  91  85  73  50  24  11   8   9  12  11   9   8   8  27  52  54  54  53  52  51  50  49  49  49  49  48  46  40  36  33  30  28  30  30  30  29  29  30  28  30  29  30  30  32  35  44  51  52  56  63  69  72  78  80  82  53  15  12  12  12  16  20  19  14   9  26  62  89 119 119  91  71  43  42  58  66  66  67  68  59
  35  20  36  80  96  99  99  98  95  90  90  95  90  80  66  37  14   8   8  10  12  11   9   7   8  29  51  53  54  53  52  52  51  47  49  50  48  49  49  44  39  38  35  31  31  28  28  26  27  29  34  35  36  37  45  52  58  59  60  58  59  64  68  73  79  79  77  44  15  12  12  12  14  17  19  14   9  21  60  90 110 110  82  61  34  42  54  64  64  63  65  56
  25  32  66  89  93  98  93  94  92  89  90  91  87  78  55  24  10   7   8  12  11   8  10   7   8  30  50  53  54  54  53  52  50  48  48  50  49  48  47  43  40  38  37  35  33  31  30  29  32  36  38  40  43  45  53  57  61  60  60  60  61  65  69  74  77  78  72  36  15  11  12  11  13  16  18  13   8  16  52  88 102 102  72  50  28  42  56  64  62  61  63  54
  27  52  75  91  92  94  95  96  90  86  87  87  86  69  42  18  10   7   9  12  10   9   8   7   6  31  49  52  54  54  53  50  50  49  48  50  48  48  47  45  42  40  37  36  34  32  32  32  35  38  40  44  45  48  54  56  58  58  58  59  60  67  70  71  74  75  63  30  14  12  12  11  15  18  18  12   8  15  52  86 102  96  61  40  32  43  56  62  62  61  60  53
