P2
# Generated by OpenCV 3.4.0
92 112
255
 132 132 132 132 132 133 134 133 133 134 134 134 133 134 135 135 135 135 135 134 134 135 134 133 131 130 135 134 131 127 122 122 121 126 128 129 125 126 130 134 135 136 136 138 141 142 142 141 143 142 143 143 142 143 143 144 143 143 144 144 144 144 145 144 143 144 144 144 144 144 144 144 145 144 143 145 144 145 145 143 142 144 146 145 144 144 144 143 143 143 143 144
 131 131 133 132 132 133 133 134 134 133 134 135 133 135 135 136 136 135 136 136 136 135 129 122 120 124 118 111 108 102 100  98 116 113 107 109 100  96  90  91  95 106 118 128 138 140 143 143 143 143 143 143 144 143 143 145 144 146 145 144 144 145 145 145 143 143 146 145 144 146 146 144 146 145 146 145 144 145 145 144 144 144 145 147 145 144 145 144 143 144 146 146
 133 133 134 133 134 133 133 134 135 136 136 136 135 135 135 135 136 137 137 137 136 129 110 114 109  98  87  76  88  79  76  78  81  85  81  68  68  81  83  80  85  87  91  97 107 131 140 140 143 144 143 144 144 144 144 145 146 144 145 144 145 146 146 145 146 145 146 145 146 146 145 145 146 145 146 145 144 145 143 145 145 145 144 146 146 146 145 145 145 145 146 146
 134 132 134 133 133 134 136 136 136 137 136 136 136 136 135 136 137 135 135 136 132 104 106  92  77  67  63  76  64  63  61  57  52  52  52  58  58  56  62  66  62  71  67  74  96  99 128 135 141 142 143 144 144 144 144 144 145 145 145 145 146 146 146 147 146 147 146 146 147 147 147 146 147 146 147 147 146 145 146 145 147 146 147 146 147 147 145 145 145 146 147 147
 133 134 134 134 133 135 134 135 136 136 137 136 136 137 138 137 138 132 133 130 100 105  86  67  54  62  57  56  51  47  44  48  44  43  44  41  44  40  38  40  43  46  43  43  43  51  74 114 132 136 137 130 125 132 141 143 145 146 147 146 147 147 146 147 146 148 148 147 147 147 147 147 146 147 146 147 147 146 146 146 146 148 147 146 147 147 146 146 145 145 146 147
 134 135 134 135 134 136 136 137 138 138 136 139 138 137 137 138 135 133 124 112  97  96  58  50  47  54  62  62  41  39  43  42  36  37  36  35  36  38  42  42  41  38  34  37  38  43  49  63  69  72  67  59  58  66  83 125 141 145 146 146 145 146 147 147 146 148 147 147 146 147 146 146 147 148 147 148 148 148 147 147 147 148 147 148 147 147 147 146 147 145 146 146
 136 135 135 135 134 135 136 136 136 137 137 138 138 138 139 137 133 133 110 106  98  61  42  38  43  54  50  37  35  40  37  33  32  31  30  34  35  36  40  37  35  36  37  38  44  42  47  47  46  47  48  49  49  48  51  84 116 132 143 145 146 147 146 147 147 147 149 149 148 148 147 147 148 148 148 148 148 148 148 146 146 147 148 148 148 148 146 148 147 146 146 147
 136 135 136 135 136 137 136 136 137 138 137 137 138 138 138 135 132 116 110  94  87  44  37  40  51  54  37  34  34  33  30  30  30  30  29  30  30  30  30  28  29  33  36  40  40  37  38  42  41  38  40  48  40  38  43  49  53  67  87 126 140 145 147 147 148 148 148 149 149 149 147 148 148 149 149 148 148 148 148 148 149 149 148 149 148 148 148 148 147 147 148 148
 137 137 136 136 136 137 137 138 137 138 138 138 137 138 138 136 124 111 115 101  60  40  33  40  46  39  30  30  29  29  29  30  32  32  31  31  27  26  25  26  29  32  33  31  29  34  36  37  34  36  39  38  33  34  37  41  42  44  53  71 108 130 139 144 148 148 148 148 148 148 148 150 148 150 148 150 150 149 150 149 149 148 149 149 150 149 148 148 149 148 148 147
 137 137 136 135 136 139 138 138 137 139 139 140 140 137 137 131 114 117 115  82  38  33  32  41  38  27  28  25  23  23  23  21  24  26  25  25  25  25  25  26  27  26  22  25  26  28  33  33  32  37  34  34  32  33  33  38  38  38  42  47  47  52  65  99 134 144 145 146 147 147 148 149 149 149 149 150 151 150 149 149 151 148 150 149 149 148 148 148 149 149 149 149
 138 137 137 138 138 137 137 138 138 138 139 140 140 139 136 130 120 111 106  54  36  28  31  42  29  25  25  23  21  20  17  18  18  18  17  18  19  19  23  20  20  18  19  22  23  26  29  28  27  28  34  28  32  32  33  35  37  37  38  40  40  45  43  46  54  82 126 143 146 149 150 149 149 150 149 150 150 150 150 148 151 149 150 150 151 150 149 149 151 148 149 149
 139 138 138 139 138 138 138 138 139 140 139 139 142 139 137 127 125 108  81  37  29  27  31  36  26  21  20  17  16  16  17  16  16  15  15  16  16  18  16  16  17  18  20  20  23  24  23  24  26  29  30  31  29  30  32  32  32  36  36  37  38  37  33  34  38  48  60 104 143 148 149 150 151 150 150 151 151 152 151 151 150 151 150 150 151 150 150 152 149 149 149 148
 138 139 139 139 139 138 139 140 140 141 141 141 140 141 138 129 122 103  42  31  26  26  28  29  25  17  16  15  14  16  16  15  15  14  15  15  15  15  14  15  16  19  20  22  21  22  23  24  26  27  26  26  26  27  28  28  30  34  35  36  37  36  33  33  36  39  46  55 102 142 148 149 151 150 149 151 152 152 152 151 150 150 150 152 151 150 151 152 150 149 149 151
 138 138 140 140 141 140 139 141 141 141 139 142 141 140 136 128 116  82  33  25  23  26  27  25  19  16  15  15  14  15  16  14  14  16  16  15  15  16  17  17  18  18  20  21  22  23  22  24  24  24  26  25  26  26  25  23  32  33  37  37  32  31  34  35  36  36  37  43  56 114 144 148 151 151 151 151 152 153 152 152 151 152 151 151 151 149 151 151 150 150 150 152
 139 138 140 140 141 141 140 141 141 140 141 142 141 139 138 126 114  57  29  23  19  27  23  20  17  15  14  13  13  14  14  14  13  14  15  15  16  17  18  19  19  18  19  21  24  24  22  22  21  23  23  27  25  27  24  30  32  35  34  33  26  30  34  35  36  38  35  35  42  57 121 146 151 153 152 154 152 152 153 152 151 151 152 151 153 152 152 151 151 151 149 150
 138 140 140 141 140 140 141 140 141 143 142 142 139 141 136 132 111  36  27  21  20  21  19  18  16  15  15  14  14  13  13  13  13  13  13  14  16  19  21  20  22  21  24  24  25  26  25  23  23  24  25  26  30  29  26  26  29  33  30  29  26  29  35  35  33  35  31  32  35  43  57 126 148 152 152 152 152 152 152 152 152 152 152 152 152 151 151 152 152 151 151 150
 139 141 140 142 141 142 141 141 142 142 141 143 143 142 138 135  86  31  25  20  22  20  16  16  15  15  15  16  14  14  13  13  14  14  14  14  14  18  18  20  23  23  23  24  25  27  25  25  24  25  26  26  26  23  22  22  27  30  30  27  26  29  33  33  34  34  30  34  35  35  42  75 144 151 152 152 153 153 152 152 153 152 154 153 154 152 153 153 151 153 153 153
 141 140 140 141 142 142 141 142 141 141 142 144 144 142 143 135  62  29  23  20  20  18  17  17  17  18  17  18  17  16  16  16  16  15  16  15  15  17  20  19  20  21  21  21  23  25  24  24  23  23  23  22  19  18  18  18  20  24  24  24  26  30  34  35  34  32  29  30  33  36  37  51 110 146 152 151 152 152 152 153 153 153 153 154 154 152 154 152 152 153 152 152
 139 141 142 142 140 142 142 142 140 142 143 144 144 143 144 130  48  26  20  18  17  17  16  18  19  18  20  24  26  22  23  22  23  23  21  20  17  18  19  19  21  22  21  20  20  22  19  20  20  18  18  19  18  16  17  18  18  20  19  21  23  30  34  34  31  27  30  30  33  36  37  43  69 128 147 150 152 151 152 152 152 153 152 152 153 152 153 152 152 152 153 152
 140 141 143 142 141 141 142 140 142 141 143 144 144 145 143 117  32  24  21  15  16  18  19  21  23  25  28  32  35  37  39  39  40  38  34  31  27  25  24  24  23  23  22  22  21  21  20  21  21  23  21  20  20  18  18  18  19  20  22  24  25  28  29  28  26  24  25  27  31  38  37  39  52  88 135 149 149 151 153 153 153 152 154 153 153 153 152 153 153 152 152 152
 141 142 142 144 142 142 143 142 143 143 144 144 144 144 140  84  28  23  19  16  16  18  20  25  34  41  48  54  58  60  61  61  59  55  53  48  45  44  40  37  36  33  33  35  34  32  32  31  32  31  31  29  27  26  23  22  22  23  23  24  27  29  28  26  25  23  24  24  27  35  37  38  40  51  85 138 148 152 154 153 151 151 152 153 152 152 152 153 153 152 154 152
 141 142 142 142 143 144 143 144 142 143 143 144 144 143 138  50  25  22  17  15  16  18  27  42  55  63  70  72  74  73  74  71  70  68  68  67  65  62  59  56  58  58  57  56  53  52  53  55  53  52  51  47  44  42  39  35  32  29  29  31  30  29  27  25  26  25  25  23  25  31  34  38  38  40  48  88 140 148 150 152 152 152 153 153 153 152 152 153 153 153 152 152
 142 142 142 142 142 143 143 143 143 143 143 144 144 143 139  53  26  23  16  16  16  25  47  62  72  79  81  82  84  85  83  80  80  80  79  76  74  71  70  71  70  70  71  70  68  68  71  72  74  76  75  74  72  70  67  64  56  48  44  44  43  36  27  25  26  26  24  25  24  27  28  32  36  37  45  54  96 144 148 151 152 152 151 153 154 153 153 152 152 152 153 153
 143 143 142 144 143 143 143 143 144 144 143 144 144 143 141  55  28  24  16  15  21  47  66  79  85  86  87  88  91  93  89  88  87  83  83  82  82  80  81  79  79  79  78  78  79  80  83  82  83  86  88  89  89  89  89  90  87  83  75  70  61  51  36  26  23  24  25  26  26  26  27  31  34  35  42  57  67 120 147 151 151 153 152 152 152 152 154 152 152 152 152 152
 142 142 142 142 142 143 143 144 144 143 142 144 144 144 141  77  31  22  18  18  44  70  84  90  91  94  92  94  95  97  95  93  90  88  88  87  84  83  84  82  83  83  83  83  85  86  86  89  91  92  92  95  94  95  98 101 103 103 102  98  92  72  53  34  23  20  23  24  22  25  26  29  33  35  41  60  86 113 144 151 153 154 153 154 152 152 153 152 152 152 152 152
 143 141 142 143 143 143 144 143 143 143 144 144 144 143 136  53  28  20  17  28  73  87  90  90  96  98  97  96  96  96  97  97  93  89  91  89  88  85  82  83  84  85  86  87  86  89  92  93  97  98  96  98 101 100 105 106 107 109 108 108 109 100  81  55  31  22  21  23  21  23  26  26  32  35  40  52  84 122 144 149 152 153 153 153 152 151 153 152 153 152 152 152
 142 142 143 142 144 142 143 144 144 144 144 144 142 140 101  34  25  19  20  57  87  89  91  94  96  97  96  95  96  94  95  96  92  88  89  89  86  83  83  82  85  87  86  88  87  90  91  94  99  98  97 100 102 106 109 110 113 116 114 116 117 116 105  85  51  27  21  25  27  24  24  26  29  34  39  52  76 129 146 152 154 152 153 152 152 153 153 154 152 150 152 152
 143 142 143 143 144 143 144 144 144 144 144 145 144 137  71  32  22  21  36  85  89  92  95  93  95  92  91  91  93  92  89  90  91  90  89  86  84  84  82  82  83  84  86  86  88  89  90  91  93  98  98  99 100 105 107 110 114 115 117 120 124 124 119 105  76  42  25  26  30  30  29  26  29  33  38  61  83 116 146 150 153 153 152 152 153 153 153 152 152 150 150 151
 142 144 143 143 142 143 144 144 143 144 144 145 143 116  39  27  23  24  64  91  95  95  93  90  91  89  87  88  87  88  85  87  87  88  87  85  86  84  83  84  83  82  85  86  85  84  86  88  91  93  96  97  99 102 105 106 111 115 117 123 126 128 125 115  95  59  32  26  30  34  34  31  27  32  39  54  90 113 140 150 153 154 152 153 153 152 153 153 152 151 151 150
 143 143 144 143 144 144 143 144 143 144 144 143 133  54  34  27  25  38  85  94  96  93  89  90  87  84  86  85  85  84  84  84  84  84  84  82  81  83  82  84  84  82  86  86  85  84  84  87  88  88  92  93  96  99 104 106 108 111 116 121 125 130 128 122 107  75  43  27  29  33  35  35  32  26  35  44  88 124 137 150 153 153 152 152 153 154 153 152 153 153 152 152
 143 144 144 143 143 144 143 144 143 144 144 141  89  40  33  27  31  59  90  95  92  91  88  87  87  85  85  82  82  80  81  81  81  82  83  81  78  80  82  83  83  82  83  85  86  85  84  85  85  86  88  91  92  98 100 104 105 109 113 118 124 132 129 125 115  91  56  36  30  32  34  37  37  32  35  42  70 133 143 149 152 151 152 152 151 152 152 151 152 152 150 151
 142 143 143 144 144 144 143 143 143 143 142 125  52  34  30  28  41  82  90  93  89  88  87  87  85  83  81  81  80  80  81  81  80  81  83  82  82  81  83  85  83  83  83  83  84  86  85  85  88  87  88  92  94  98 100 103 104 107 110 113 120 129 132 127 120 100  64  41  31  31  30  36  36  38  35  40  48 132 146 149 151 152 151 152 152 153 153 152 152 151 149 152
 142 142 142 143 143 144 145 143 141 143 143 109  42  31  25  29  56  86  89  90  88  89  87  85  84  81  80  80  81  80  81  81  82  84  86  85  84  84  85  86  87  87  88  88  88  89  88  90  90  90  92  94  97 100 104 104 104 108 109 114 119 126 129 128 124 109  77  46  32  29  29  34  36  38  37  37  42  97 143 148 151 152 152 153 153 154 151 150 151 149 150 152
 142 142 143 143 143 145 144 143 145 144 142  97  36  29  26  32  69  86  87  88  89  88  84  84  87  85  84  84  86  83  86  86  88  89  88  88  87  85  87  90  93  93  94  91  94  98  97  98  98  98  98  99 100 102 104 105 104 108 108 111 117 125 125 128 123 114  90  58  36  28  29  31  36  34  39  37  43  62 136 147 150 151 152 153 153 151 151 151 150 151 151 150
 142 142 143 142 143 143 145 144 144 144 141  91  38  30  29  39  76  86  86  85  78  87  86  88  88  90  90  89  90  90  92  94  96  96  95  92  92  92  93  96  98 100 102 102 104 107 109 108 107 108 107 106 105 107 106 105 105 107 108 112 117 120 124 127 126 115  96  67  42  31  28  29  34  32  35  37  43  46 122 146 151 149 149 152 152 152 152 151 152 150 150 150
 142 144 142 143 143 144 144 145 144 144 135  54  34  29  30  46  78  85  86  83  79  88  91  91  95  95  95  96  98  98  99 100 101 101  99  97  97  96  99 102 104 108 110 113 115 117 116 115 114 116 113 114 112 112 107 106 108 109 108 112 117 119 122 126 125 120 105  79  53  36  33  27  31  31  33  38  43  48  99 146 149 150 148 152 152 152 152 150 151 151 149 150
 142 142 143 143 143 144 144 143 143 142 106  40  31  28  33  56  82  84  85  84  85  90  94  98 101  99 101 102 103 104 104 106 104 104 102 101  97  98 102 105 108 112 107  89 109 119 120 121 118 119 121 120 117 117 113 113 111 108 109 115 117 118 123 126 125 122 110  88  63  40  33  31  27  29  30  36  42  46  80 143 150 152 150 151 152 151 153 151 153 150 150 151
 143 143 142 144 144 144 143 144 143 140  75  38  29  28  35  65  82  84  85  84  87  93  94 101 102 101 102 102 103 104 104 107 107 108 105 104 103 103 105 106 106 105  96  72  96 113 116 115 117 119 121 121 119 118 118 119 116 113 111 116 118 116 121 123 125 123 116  96  70  46  31  32  27  27  30  36  39  48  69 140 150 152 152 151 151 150 152 152 153 151 151 152
 143 143 142 144 144 143 144 143 143 133  68  32  27  26  39  75  84  86  87  87  90  94  98 101 101 101 102 100 101 102 104 107 108 107 109 105 102 102 104 102 104 100  96  93 100 106 106 109 110 112 115 118 117 118 121 122 121 121 117 118 118 118 120 122 124 125 121 106  78  53  34  29  30  27  31  33  38  45  72 137 150 152 153 152 151 151 153 151 152 152 151 151
 144 144 143 144 144 146 144 144 140 129  63  30  24  25  50  78  86  87  88  89  93  97  99 100  98  97  97  98  98  97 100 100 101 103 104 101 100  98  98  97  97  94  91  93  94  97  95  99 102 102 105 107 110 115 119 120 120 122 119 122 122 122 125 124 124 124 123 115  90  61  37  28  30  27  30  32  36  42  78 137 149 152 152 153 154 152 151 150 153 151 152 151
 143 143 144 144 144 144 145 145 142 134  53  29  22  24  56  82  86  87  90  93  96 100  97  93  91  88  86  89  91  92  93  91  91  95  96  95  93  91  88  88  86  84  82  82  86  88  85  89  90  91  91  92  94 100 105 107 105 107 114 122 123 124 127 125 124 123 122 118 103  68  41  28  31  28  28  30  36  44  80 141 150 151 151 153 155 154 153 152 152 151 152 151
 144 143 143 144 145 145 145 145 144 137  57  31  21  23  64  82  87  89  90  83  81  86  82  81  78  75  76  77  78  80  79  80  82  86  86  85  85  85  81  77  75  73  73  72  74  75  75  76  75  79  78  75  74  77  80  86  90  95  99 101 110 120 127 126 124 123 124 119 108  80  51  30  30  30  29  30  34  43  91 143 150 151 153 152 153 154 152 153 153 152 153 151
 144 144 144 145 146 146 146 145 142 139  66  30  21  25  72  84  86  87  80  68  70  67  64  63  63  62  60  63  66  67  71  70  71  73  75  73  76  77  75  70  68  66  65  63  63  63  60  60  56  52  50  52  52  57  64  70  80  87  92  95 100 106 114 116 124 123 122 117 114  95  58  34  32  30  30  28  35  44  98 146 152 152 154 154 152 153 154 155 154 153 153 151
 145 146 144 146 145 147 147 145 144 142  75  29  22  27  75  75  78  77  65  58  55  53  51  48  44  41  40  45  51  55  61  65  65  67  66  67  67  69  69  66  61  60  58  56  55  51  46  42  38  33  31  34  36  40  43  58  67  73  78  85  90  99 102 107 116 122 119 117 115 105  68  36  28  27  26  28  35  46 104 148 154 154 154 151 154 155 154 154 153 154 153 152
 145 145 146 147 146 146 146 146 146 144  92  32  23  30  70  62  74  72  63  53  46  40  35  34  31  32  31  32  36  38  47  55  58  61  63  63  65  66  65  62  60  56  53  48  43  37  33  29  28  27  26  28  30  32  33  40  47  57  63  77  85  94  96 101 109 115 119 116 114 109  77  38  26  27  27  26  34  44 115 148 153 154 154 153 153 154 153 153 154 155 154 153
 145 145 145 147 147 147 148 147 147 146 121  27  24  31  70  66  73  62  50  41  34  28  26  26  25  24  25  26  28  31  36  45  51  58  61  64  65  66  64  58  52  52  48  39  36  32  30  26  25  26  25  25  27  30  36  36  41  48  52  62  76  88  98 100 102 105 112 117 116 114  92  42  28  26  29  27  34  50 130 152 154 154 154 155 153 154 153 154 155 153 154 154
 145 145 146 146 147 147 147 148 148 147 139  50  26  32  66  66  60  53  46  43  37  32  30  28  27  27  24  26  27  31  33  38  45  53  61  65  68  67  64  56  53  50  41  36  32  30  28  29  28  28  28  30  32  32  34  35  38  42  46  50  63  73  83  94 101 108 112 118 118 114 103  50  31  26  27  27  34  56 143 153 154 155 154 155 154 155 154 154 155 155 154 152
 144 146 147 147 148 148 148 147 148 148 142  96  31  32  72  71  59  52  48  44  39  35  31  30  29  30  30  32  35  33  35  37  42  50  58  67  72  71  67  58  52  46  39  36  34  33  33  33  32  30  28  28  27  30  29  30  34  36  37  42  51  58  70  82  98 106 113 118 118 116 106  54  32  27  26  28  36  74 148 154 155 155 153 155 155 153 154 154 155 155 154 153
 146 146 147 147 147 148 149 149 148 150 145 128  34  30  74  69  57  50  43  36  33  34  36  32  29  28  28  28  32  36  38  38  41  48  58  69  74  78  71  63  55  49  43  38  35  34  33  31  27  24  24  23  22  25  26  28  34  51  61  37  37  47  62  77  92 100 111 119 120 119 110  66  33  29  26  31  39 104 149 154 154 155 155 154 155 154 154 154 154 155 155 155
 146 146 148 148 148 148 148 149 149 150 149 139  62  35  75  72  59  46  34  35  37  29  25  24  27  28  31  29  28  31  36  40  42  48  61  72  79  84  79  68  60  50  42  37  35  32  30  27  26  24  19  19  27  23  32  39  30  30  46  74  45  39  52  72  87  98 103 112 120 121 113  70  35  28  27  31  43 120 150 155 155 155 155 155 155 154 155 153 155 155 154 154
 147 148 148 149 149 148 148 148 148 151 149 147 103  35  76  73  59  44  38  37  24  21  25  31  25  32  38  32  31  30  33  38  41  47  61  79  90  99  91  77  67  53  40  35  31  29  26  27  26  25  20  20  25  25  30  52  54  44  37  43  70  53  52  67  82  98 102 110 118 122 115  75  38  32  28  35  54 105 136 153 154 156 156 155 154 153 154 155 154 156 155 154
 147 148 147 148 148 149 148 148 149 150 149 147 135  44  80  75  59  46  39  29  32  25  23  23  26  35  54  46  38  34  35  37  41  45  64  85 100 106 102  90  75  55  42  35  31  30  29  27  30  30  22  20  22  25  28  54  61  58  54  41  47  71  65  71  82  96 106 112 121 124 118  78  40  31  28  42  67 101 119 144 153 155 155 155 155 155 155 155 155 155 155 156
 147 146 147 148 148 149 148 148 150 152 149 149 142  57  83  78  60  45  34  35  53  32  24  23  29  36  59  54  47  37  36  46  46  48  66  95 110 118 112 101  81  59  45  36  34  34  29  27  33  37  25  25  24  26  36  55  61  60  60  70  67  60  71  76  84  98 111 117 124 126 119  82  39  31  32  55  69  68  68 121 150 155 156 156 155 155 154 155 155 156 155 156
 146 147 147 147 147 148 149 148 150 150 152 150 144  71  86  78  62  48  44  50  63  41  29  27  30  49  61  55  47  39  40  45  53  52  73 104 118 126 122 112  87  67  53  47  45  40  33  31  34  38  37  29  27  35  50  55  60  60  63  87  95  85  84  84  91  99 113 119 124 128 122  89  41  32  42  66  76  54  49 110 150 155 156 155 155 156 155 155 155 155 156 156
 146 147 147 148 148 149 150 149 151 150 150 149 145  81  89  79  66  55  52  56  60  55  40  34  43  56  57  52  48  46  45  52  56  56  84 111 121 127 125 118  93  77  63  58  52  49  47  46  46  48  49  51  52  57  60  59  59  62  71  91 100 102 100 102 103 108 118 122 127 129 124  96  47  35  59  83  78  79  53 121 152 153 155 156 156 156 156 155 156 157 155 156
 144 146 147 148 148 148 149 150 150 150 150 150 146  89  92  81  70  65  65  64  57  56  53  51  52  54  54  52  50  52  54  59  56  64  95 112 118 124 124 117  96  85  77  68  60  52  52  52  54  52  51  50  51  52  53  56  61  67  77  90 102 106 107 106 110 114 120 126 129 131 127 105  52  38  66 104 107  97  66 139 153 154 156 155 155 154 155 155 155 156 156 156
 145 146 148 147 148 147 149 150 150 150 149 148 147 111  94  82  75  75  74  69  65  59  54  51  49  50  50  52  54  58  58  57  60  71  94 110 116 122 122 116  98  94  90  80  69  58  55  56  56  58  60  58  56  57  58  60  67  77  85  96 105 110 112 111 113 116 120 125 129 128 126 109  58  44  66 100 117 122  93 147 154 155 156 156 155 154 154 155 155 156 154 155
 145 146 146 147 147 148 148 149 150 149 150 150 148 123  97  86  83  83  82  79  73  64  60  59  61  60  64  64  64  64  63  62  67  74  86 102 111 116 117 113 103 100  97  91  82  74  65  63  63  65  67  70  69  71  75  78  83  90  92  99 108 112 113 113 116 118 122 125 124 127 126 112  62  52  60  55  75 102 118 150 153 154 154 155 156 154 156 154 156 155 155 156
 145 146 146 147 146 147 148 148 150 150 151 150 149 134 100  88  85  86  83  85  83  80  76  75  77  71  71  70  70  69  66  72  74  78  89 103 108 112 113 114 108 107 102  98  92  86  81  73  71  71  73  76  79  82  84  87  90  95  96 103 111 115 117 117 118 121 124 126 125 123 122 114  67  65  44  38  46  69 123 149 153 153 153 155 155 153 154 153 154 154 155 154
 143 144 145 146 146 147 147 147 148 149 148 151 150 136  98  87  87  88  88  88  89  86  86  85  81  76  74  72  72  73  75  78  79  82  90 102 107 113 116 117 111 111 106 105 102  96  92  87  79  77  77  76  79  82  88  89  91  96 100 106 110 115 119 121 122 123 125 126 125 123 121 112  75  90  45  38  40  58 113 148 152 154 154 154 152 153 153 153 155 155 154 153
 144 144 143 144 145 145 146 146 148 149 149 150 148 135  98  90  89  90  89  91  91  90  87  84  83  78  77  75  78  81  80  82  81  83  93 105 113 116 117 117 112 110 112 107 104 106  97  89  87  85  84  80  76  81  83  84  88  93  99 105 110 114 118 120 121 125 125 125 123 120 120 111 101 110  75  44  47  62 116 147 151 152 152 153 152 153 154 152 154 151 152 152
 144 143 143 144 145 146 145 146 148 148 148 148 148 139  98  93  91  88  88  89  87  86  83  82  82  78  77  80  84  84  81  81  82  84  93 108 119 121 120 118 114 111 112 107 106 106  96  84  85  86  87  83  78  78  79  80  82  86  90  96 103 107 113 115 121 123 126 124 119 120 117 111 110 112  79  50  54  80 128 149 151 151 151 152 152 152 152 150 152 153 153 152
 142 143 143 145 144 145 146 147 148 147 147 148 148 136 100  91  90  88  88  84  82  79  80  76  79  79  81  81  81  80  77  79  82  86  96 112 125 126 120 118 115 111 111 109 106  99  95  85  79  81  86  84  82  76  75  79  80  82  83  91  98 101 107 108 111 118 120 121 119 118 114 109 110 104  70  55  72 110 143 150 151 151 151 152 153 153 151 152 153 153 151 150
 142 143 144 144 144 145 145 146 147 147 148 147 147 134  98  89  89  85  82  78  76  76  75  74  71  74  79  78  77  76  75  77  82  88 100 113 123 121 120 116 113 109 109 109 106 101  93  84  78  79  80  83  81  74  71  72  76  76  79  87  92  96 100 103 104 110 114 117 119 115 111 109 102  88  77 102 110 131 148 149 151 151 152 151 151 151 152 152 151 151 152 151
 140 142 142 143 144 144 144 144 145 147 147 146 145 133  96  84  83  82  78  76  72  72  71  69  68  71  74  75  75  73  73  75  82  92 104 111 120 121 118 117 114 107 105 107 105  98  92  84  75  72  75  77  77  73  73  74  75  77  78  83  89  91  92  98  99 104 109 113 115 113 108 106  97  63  83 114 113 140 148 150 151 151 151 150 151 151 151 152 152 152 151 151
 139 140 143 143 142 143 144 145 145 145 146 145 145 132  89  81  79  79  75  74  73  70  69  71  70  72  74  73  71  71  70  76  90  99 106 110 117 120 119 120 114 111 104 103 102  97  89  83  73  69  69  72  75  75  75  74  74  75  78  80  84  88  89  92  95  97 104 108 111 110 107 105  85  65  92 118 124 144 148 149 149 148 149 151 150 150 150 150 151 150 151 150
 139 140 141 141 141 142 141 144 145 145 146 146 145 134  90  78  76  74  75  74  73  71  70  70  73  75  72  69  69  68  70  78  95 103 105 107 114 117 115 114 116 114 103 103  98  91  83  75  72  70  68  71  71  73  76  74  75  79  77  79  82  85  87  91  91  95  98 103 108 107 105 100  92  80  86 119 136 146 148 148 149 149 147 147 149 150 150 150 150 149 150 149
 139 140 139 139 139 141 141 142 144 144 145 146 146 138  89  78  74  73  72  70  70  70  71  74  73  73  72  68  66  66  68  84  96 100 101 104 107 108 106 108 116 117 109 106  99  91  76  72  71  68  68  71  68  71  73  72  72  75  78  77  78  79  83  85  88  91  96 101 105 107 106  92  77  77  89 125 142 145 147 147 147 148 147 148 147 148 148 148 150 149 150 150
 138 139 139 139 139 139 141 142 142 144 144 146 144 140  88  78  73  72  70  69  69  70  70  69  68  70  71  66  66  66  67  84  90  91  92  95  95  92  92  99 108 113 110 108 103  85  72  69  67  66  67  68  68  71  69  70  72  74  77  78  75  74  77  80  84  89  93  97 103 108 106  76  67  73  90 135 142 144 145 145 146 147 147 147 147 146 148 147 148 148 149 148
 139 139 139 139 139 140 140 140 142 142 144 144 144 143 105  76  72  69  65  70  69  69  69  64  65  70  68  66  65  65  72  84  82  80  79  81  80  77  77  82  92 100 103 103 104  83  71  63  63  64  67  67  68  70  69  69  70  70  72  73  73  73  75  76  81  87  90  94 102 108 103  78  76  85 127 140 142 144 143 144 145 145 146 146 145 146 147 146 147 147 149 148
 139 139 138 138 138 139 139 139 140 143 144 142 143 143 115  76  71  66  66  67  68  67  66  66  67  68  67  66  64  62  76  77  71  68  65  65  63  60  60  61  67  75  85  97 103  90  68  60  61  64  66  66  67  68  70  67  69  68  69  69  71  70  72  74  76  84  89  94 101 108 100  82 102 130 138 141 143 143 143 144 143 143 144 145 144 145 145 145 146 145 147 146
 138 139 138 138 139 139 140 139 140 141 141 143 144 143 135  76  70  66  65  67  67  68  67  67  68  69  67  67  63  69  71  64  60  56  55  52  50  48  46  47  51  52  62  83  99  95  63  58  61  63  65  67  68  69  68  68  66  69  67  68  71  70  70  72  75  82  88  94 101 109 106 121 135 138 141 142 142 142 143 143 142 142 143 143 143 143 143 146 145 144 146 144
 137 137 137 139 138 139 139 140 140 141 142 144 142 142 140  92  70  66  64  66  66  66  66  67  68  69  67  66  65  69  62  50  47  45  44  42  41  40  40  41  43  41  46  61  82  91  62  60  60  61  64  66  68  68  68  70  69  68  66  66  70  71  73  73  73  81  90  95 101 109 124 135 138 139 139 141 142 142 143 142 142 142 142 142 142 141 142 143 144 143 143 143
 137 138 138 139 138 139 139 140 142 140 142 143 143 144 142 114  71  66  63  64  64  65  66  66  67  67  67  66  65  65  51  36  24  30  38  35  34  37  37  34  26  19  24  38  59  74  58  62  63  62  62  64  68  70  66  69  71  69  65  66  69  72  75  75  76  84  91  96 102 112 130 137 140 141 138 140 141 141 141 141 141 141 143 142 142 141 141 142 143 142 141 141
 137 137 138 138 138 138 139 141 141 141 140 141 141 142 143 134  76  67  64  63  63  62  65  66  67  67  67  66  66  67  49  30  23  24  32  35  34  34  35  31  28  24  24  29  43  58  59  65  69  65  63  66  69  71  70  71  72  70  67  67  69  74  74  77  80  83  91  96 103 115 132 136 138 140 137 138 139 140 140 141 141 141 141 140 141 142 141 141 142 141 141 142
 137 137 137 138 138 139 139 140 139 141 142 141 142 142 142 139  95  69  64  64  64  64  67  69  69  69  68  67  69  68  60  41  29  29  35  36  34  33  34  35  35  32  29  33  45  55  64  69  71  69  66  66  70  71  72  74  77  77  71  70  70  75  77  79  82  86  92  98 104 117 134 137 137 137 136 138 137 139 139 140 140 140 140 140 140 140 139 139 140 140 140 140
 136 137 137 138 138 139 138 139 140 141 142 142 141 140 140 140 111  73  66  64  65  65  67  71  71  71  70  71  73  69  64  54  40  32  38  40  36  34  36  38  45  49  48  52  57  62  69  72  73  72  72  70  72  74  76  80  83  81  78  75  74  75  79  83  84  90  92  97 106 116 129 135 137 136 136 138 136 137 136 138 136 137 137 137 138 138 139 139 140 138 139 139
 136 136 136 137 136 138 137 139 139 139 139 141 142 140 142 142 126  73  66  65  65  66  70  72  71  72  71  73  74  70  64  58  52  46  45  43  39  35  35  38  47  55  63  63  66  71  73  78  79  77  76  77  76  79  78  82  86  85  83  80  80  77  78  82  85  90  93  98 107 118 128 135 135 136 136 135 135 135 136 136 135 135 136 137 138 137 138 137 139 139 138 139
 135 135 137 136 138 139 138 138 138 140 140 141 142 142 142 141 136  77  67  67  66  69  73  74  71  73  75  76  74  69  62  61  55  50  47  46  38  34  37  36  44  53  61  67  72  76  79  80  81  81  79  80  82  82  83  83  88  88  87  84  84  81  80  80  83  87  95  99 107 120 130 135 135 136 135 135 135 136 136 135 136 136 137 136 137 136 136 137 137 137 137 137
 136 136 136 137 137 137 137 138 138 140 141 141 142 141 142 142 138  84  69  68  68  70  73  73  75  75  74  76  72  67  58  56  57  50  46  42  36  31  35  39  44  52  59  67  71  74  77  77  81  83  83  82  84  86  88  87  89  91  90  86  84  85  83  84  85  90  94 100 108 121 132 134 134 135 134 134 135 135 135 135 134 135 135 136 135 136 135 136 136 136 137 137
 134 134 136 136 135 137 138 139 138 140 140 139 140 141 141 140 137  92  70  67  67  71  73  74  77  76  75  73  68  66  60  54  50  50  49  44  39  33  36  41  49  57  60  66  68  65  70  71  67  74  83  83  86  89  92  91  92  92  91  89  86  85  82  84  85  90  95 100 107 121 133 134 134 135 134 133 135 135 133 133 132 135 135 133 134 135 135 134 134 134 135 136
 134 133 135 136 135 137 137 138 139 140 140 141 140 140 141 140 139 100  72  68  69  70  72  74  76  75  73  67  62  58  49  50  48  48  51  48  42  36  39  45  57  63  66  67  69  67  68  70  68  64  71  81  87  88  92  92  91  95  95  89  87  87  83  84  86  91  95  99 107 120 130 131 132 132 133 133 133 132 132 132 132 134 134 133 134 134 134 134 134 134 133 135
 132 134 136 136 137 137 138 138 141 140 139 140 141 140 140 140 138 111  72  68  69  70  73  72  74  72  68  59  53  49  49  52  52  55  56  54  47  41  45  52  64  70  73  76  72  70  71  70  65  60  64  71  83  86  90  93  91  94  96  93  89  89  85  85  88  89  95 100 106 121 128 130 133 131 130 130 130 131 132 130 131 132 131 131 132 132 134 133 134 134 134 134
 132 134 136 135 136 137 137 137 140 140 140 140 140 141 140 140 139 120  75  69  70  69  73  71  70  63  57  51  48  50  55  59  60  60  58  56  59  56  57  60  58  60  65  73  73  72  72  72  65  58  60  62  69  84  89  90  90  90  92  92  91  90  86  85  89  91  94  99 107 125 129 131 131 131 131 132 130 130 130 130 130 131 130 130 131 131 132 131 132 133 134 134
 133 135 136 134 135 136 138 137 138 139 138 141 140 141 139 140 140 130  76  69  69  71  73  72  69  55  53  50  49  55  59  60  56  48  44  43  48  55  55  49  40  38  40  47  54  61  66  70  66  56  52  54  61  77  87  90  91  91  93  93  89  88  83  84  88  90  94 100 107 125 129 132 131 130 131 132 130 129 128 131 129 130 129 130 130 129 131 131 131 132 132 131
 133 134 134 135 134 137 137 137 138 140 139 139 141 140 140 139 140 138  87  70  68  73  73  71  63  55  52  47  46  55  53  46  39  37  36  33  32  34  35  31  28  28  29  32  33  35  40  50  52  46  45  49  54  70  83  90  91  93  96  93  90  88  82  84  86  90  95 100 108 126 128 130 130 129 130 130 130 129 130 130 130 130 129 130 129 130 130 131 130 130 132 132
 133 133 133 134 136 136 137 139 138 140 139 139 142 140 138 139 138 137 101  70  66  72  73  71  66  56  51  41  37  40  36  31  30  32  32  30  28  26  25  23  25  26  26  26  28  25  24  28  30  29  31  39  49  65  79  86  90  93  96  96  91  89  84  83  86  90  96  98 112 126 129 128 128 130 130 130 130 129 128 128 130 129 129 130 130 129 130 131 131 132 131 131
 133 134 134 134 136 135 137 138 138 139 139 140 140 139 138 141 140 136 117  73  69  72  72  69  66  56  48  34  29  27  25  26  26  26  25  24  22  21  20  19  22  26  31  42  48  40  36  28  23  25  31  36  44  58  71  80  89  90  95  96  92  88  85  84  88  90  94  98 116 123 126 128 128 129 129 129 129 129 128 127 128 127 129 128 129 128 129 128 129 128 129 129
 135 135 135 135 137 136 138 138 139 140 139 139 139 139 139 139 139 136 128  80  72  72  72  70  64  54  48  43  39  38  41  45  47  44  40  37  35  30  28  34  39  45  54  66  70  69  64  55  52  52  51  45  46  55  65  76  83  88  92  95  91  89  85  85  89  91  94  99 120 124 124 125 126 126 127 129 128 128 127 128 127 128 126 126 128 128 128 127 126 126 125 127
 134 133 135 134 136 136 136 137 137 139 138 139 138 137 138 138 137 136 132  98  75  73  74  72  64  54  51  51  52  51  54  58  55  57  51  51  50  49  44  46  50  56  63  69  68  65  66  65  66  68  65  57  51  54  62  71  78  84  89  91  90  89  88  88  89  89  93 105 121 122 124 124 126 127 126 126 126 126 126 126 126 126 127 126 126 125 127 126 127 127 125 125
 133 132 136 134 136 136 137 137 137 137 137 138 137 137 137 136 136 135 134 116  77  72  72  69  63  56  54  56  57  52  53  54  54  56  55  59  60  57  51  53  53  55  58  61  58  60  63  65  65  68  66  64  58  55  61  69  76  82  86  88  88  88  88  88  89  88  92 109 120 122 122 124 126 126 127 125 124 124 124 123 125 125 125 125 125 123 124 125 126 125 125 126
 133 134 133 134 135 134 136 137 137 135 135 138 137 137 136 136 135 135 134 128  90  73  71  66  60  56  54  57  55  54  53  51  50  48  50  52  52  52  50  49  49  50  48  49  52  58  62  61  60  60  62  63  61  60  61  68  75  80  85  87  86  86  87  88  87  86  94 104 115 121 123 122 122 123 121 122 123 122 123 122 123 122 124 122 124 123 124 124 124 122 123 125
 131 132 134 134 135 135 136 137 137 135 136 136 137 137 134 135 134 133 133 130 111  75  72  65  60  55  55  53  54  52  50  48  46  41  41  42  42  42  43  43  41  40  38  40  48  52  52  55  57  57  57  58  59  60  61  65  70  77  84  86  84  84  85  87  84  88  95  83  70  71  77  90 102 125 123 123 124 122 121 122 122 121 122 123 122 121 121 121 122 122 123 124
 132 134 134 133 134 135 135 135 135 135 136 136 135 135 134 133 134 131 133 130 126  81  71  66  61  56  53  52  51  50  47  44  42  40  37  36  35  35  34  33  33  30  32  34  36  42  45  51  54  54  56  57  58  59  59  64  68  72  78  82  84  84  85  85  81  88  96  69  47  45  45  46  51  85 127 129 124 122 122 121 121 122 122 121 121 121 122 122 121 122 123 122
 133 132 132 134 132 134 135 134 135 135 134 134 135 135 133 133 133 132 131 131 128 103  72  66  61  56  54  51  50  50  46  42  37  34  32  30  28  27  25  25  23  26  28  29  33  39  46  51  51  52  54  54  54  56  60  65  70  73  77  80  83  82  81  80  81  90  96  57  33  32  34  36  35  52  84 126 124 108 104 103 111 118 118 119 118 119 120 120 121 121 121 121
 131 131 130 133 132 133 133 133 133 134 133 134 134 134 132 131 131 130 129 128 128 123  83  67  62  56  52  49  50  48  45  41  38  36  32  28  26  24  22  24  25  28  31  31  36  40  47  49  49  50  51  52  52  53  57  62  71  74  75  79  80  80  78  76  84  92  95  56  29  27  29  32  33  36  62  98 130  73  48  44  53  67  96 111 114 118 119 118 119 119 120 121
 130 133 132 131 131 130 131 132 134 133 132 134 131 132 132 129 129 129 128 127 127 124 108  68  62  57  54  50  48  48  44  43  41  39  37  34  32  30  27  28  32  35  37  39  43  44  48  48  47  50  51  52  52  54  58  63  70  74  76  76  78  76  71  77  86  91  95  58  28  22  23  26  29  28  47  80 120 134  54  30  33  37  49  74 104 116 119 120 121 121 120 122
 128 130 131 130 130 130 130 131 132 132 131 131 129 131 130 128 128 128 126 126 124 113  94  72  64  60  56  52  49  48  47  46  46  42  41  41  39  34  34  35  38  43  44  48  49  49  50  52  52  53  53  52  54  57  61  68  73  75  75  75  73  70  72  80  87  92  97  57  27  25  20  20  23  24  32  62  97 127 133  51  27  25  29  42  72  97 113 117 118 119 120 120
 128 127 130 129 130 127 129 130 130 130 130 128 130 128 127 128 128 125 124 119 103  89  74  62  61  61  60  57  55  52  52  51  50  47  46  46  44  43  42  41  42  47  48  50  52  53  51  55  60  59  58  55  58  63  66  69  73  73  74  72  68  69  74  79  87  92  95  58  24  23  23  17  18  19  22  45  81 110 135 139  55  25  21  24  43  74  90 106 114 116 117 116
 127 128 128 127 128 129 128 128 128 128 128 127 128 127 127 126 125 121 111  95  86  80  68  53  48  58  60  62  60  60  59  56  56  54  50  50  49  46  43  42  42  46  50  50  52  53  53  58  64  64  66  64  67  70  71  72  74  74  72  68  65  70  76  79  85  91  94  61  21  19  21  19  12  12  15  30  65  98 126 141 121  89  52  21  26  58  76  87  98 112 114 115
 126 127 126 127 128 127 127 128 126 127 127 126 128 125 125 125 117 107  96  87  85  75  60  40  37  56  59  62  62  61  61  60  60  58  54  53  50  45  44  43  44  47  49  51  54  55  58  62  66  69  69  68  70  72  75  74  73  72  68  65  67  70  74  80  86  91  94  62  19  18  20  21  15  11  11  18  51  87 118 136 122  86  89  62  26  48  68  80  84  95 114 116
 126 126 127 126 127 127 127 127 125 124 124 125 124 124 124 117 107  99  93  87  85  70  43  24  28  55  58  61  63  62  63  62  59  58  58  55  52  48  47  47  46  47  48  53  56  55  58  64  67  71  72  72  73  74  75  73  70  67  64  61  66  67  73  79  85  91  94  61  18  16  18  20  17  11  10  11  35  71 108 129 127  99  94  93  48  44  65  75  76  79  95 110
 124 126 125 125 126 126 126 125 124 122 122 121 122 120 115 107 102  96  89  86  72  46  24  15  21  60  59  60  63  63  62  60  59  58  59  59  56  54  51  49  47  50  54  55  56  57  60  67  70  71  72  73  73  68  65  69  64  63  61  60  64  68  72  78  85  90  93  62  17  15  17  20  18  13  10  10  25  62  97 122 133 112  97  94  72  42  61  72  76  74  77  79
 123 123 121 124 122 120 123 124 122 120 121 120 117 113 109 103  94  91  86  79  48  24  12  13  16  54  57  56  57  61  58  59  58  56  60  58  57  54  51  50  49  50  52  54  56  58  58  64  68  68  69  69  70  63  60  58  59  64  61  62  65  68  73  78  84  91  94  66  17  13  16  18  19  17  12  10  15  48  77 111 132 117  97  97  84  45  60  70  74  73  75  71
 121 122 122 122 122 122 121 122 119 118 117 116 111 105 100  94  89  85  77  55  29  14  10  12  12  52  59  55  54  55  54  57  56  54  55  53  50  50  48  49  50  50  50  51  51  55  58  59  64  67  67  67  65  56  55  53  64  66  62  61  61  66  70  78  86  91  91  73  19  13  12  15  20  17  16  10  11  34  65  99 125 121  98  93  83  46  57  68  74  69  73  73
 121 120 120 120 118 118 118 113 102 103 113 110 105 102  98  92  93  83  63  36  14  10  11  11  10  46  59  56  51  52  52  52  50  51  48  49  47  46  45  46  47  47  47  48  51  53  53  53  56  62  63  59  58  50  50  54  66  65  62  60  61  66  71  78  87  90  90  78  21  12  12  14  18  19  17  14  11  25  60  91 117 124 100  87  76  46  55  66  72  68  68  69
 119 119 119 117 114  92  71  54  48  93 107 103 102 101  96  92  89  73  49  20   9   8  12  10  10  44  58  56  51  48  47  45  44  46  45  44  42  39  40  42  43  41  43  43  45  47  47  50  51  55  54  53  49  44  51  65  66  64  60  60  62  68  72  78  84  88  88  75  23  11  11  12  17  19  17  15  10  18  52  83 110 123 101  87  69  44  50  63  70  67  67  69
 117 116 111  88  62  48  34  53  96 106 102 100  99  97  96  86  78  62  32  11   9  10  10  10   9  34  57  55  53  49  44  39  39  38  36  36  37  37  36  38  40  37  37  40  39  40  42  42  42  46  46  45  42  46  59  64  64  61  58  59  64  68  72  77  81  86  86  71  23  11  10  12  15  19  18  17  10  14  45  74 109 124 104  81  66  39  48  61  66  67  67  68
 113  96  67  52  38  30  85 109 105 101  98  95  95  97  92  83  70  48  17   8   8  11  10   9   9  27  54  54  52  50  47  42  36  32  31  32  33  31  32  33  35  33  35  34  34  34  34  35  34  35  36  42  50  54  61  62  59  58  58  62  63  65  70  77  80  84  85  66  25  12  10  12  13  18  19  19  11  11  42  67 102 121 106  77  57  34  47  59  64  64  63  66
  79  59  47  31  22  78 102 107 102 100  95  92  95  93  89  82  60  33  10   7   8  12  11   8   8  25  51  53  52  51  50  48  43  39  34  30  30  27  28  28  28  28  29  28  29  28  27  27  28  30  35  44  50  56  60  59  58  58  56  59  60  60  70  75  79  81  82  60  25  11  10  11  12  15  18  19  12   9  35  67  95 108  97  69  48  31  43  57  63  62  62  63
  57  46  31  20  54  94 100 103 103  96  92  94  92  90  86  69  46  18   8   8  10  12  10   8   8  20  50  53  52  53  50  49  48  46  42  41  36  32  31  29  27  27  25  26  26  27  26  28  29  32  37  43  48  54  59  59  57  55  54  57  60  64  68  73  76  79  77  54  25  13  10  11  12  14  17  18  12   8  26  61  93 101  93  58  40  31  45  57  61  59  58  62
  48  36  18  36  80  96  99  98  96  94  91  90  92  89  78  61  32  12   8   8  10  11   8   7   7  18  49  52  53  52  51  49  47  47  44  44  41  37  36  34  32  30  29  28  27  26  27  31  33  35  35  38  46  52  56  56  54  53  54  58  61  66  70  74  74  77  75  45  24  14  11  10  12  12  17  18  12   8  24  56  92  98  82  49  32  31  44  56  63  59  59  58
