P2
# Generated by OpenCV 3.4.0
92 112
255
 133 132 135 136 135 136 135 136 136 138 138 138 136 137 138 138 137 137 138 139 138 137 129 113 117 114 101  88  86  85  83  99  98  97  98 108 124 122 108 102 107 112 111 111 122 136 142 144 146 145 145 145 147 146 148 148 147 146 147 147 147 147 148 148 148 147 148 148 148 148 148 149 148 148 148 148 147 147 147 147 146 148 147 147 148 147 148 146 147 148 147 147
 134 134 135 137 137 137 135 136 136 138 138 137 137 137 139 140 137 137 140 136 136 131 112 109 100  93  71  68  76  76  76  67  68  77  85  79  76  82  89  96 106 103 106 102 107 116 136 143 145 147 147 146 146 147 147 147 148 148 148 147 147 148 148 149 148 149 149 150 148 148 148 148 148 151 149 149 148 147 148 148 148 148 148 148 147 148 147 148 147 148 148 148
 135 136 136 136 136 137 138 138 137 138 137 137 138 139 141 138 141 140 140 136 132 110  92  89  74  65  59  67  54  52  48  48  50  56  66  63  55  57  60  65  84  99  96  93  93  98 121 140 144 147 147 146 146 147 148 147 148 148 149 149 148 148 148 148 148 148 148 149 149 149 149 149 149 148 147 149 149 151 150 148 148 149 149 149 148 148 148 148 149 148 148 149
 136 136 136 137 136 138 139 138 137 138 139 138 137 139 139 140 141 140 138 130 113  98  90  60  56  49  62  53  47  42  41  44  55  65  59  48  42  43  45  47  52  64  59  59  53  62  91 126 142 143 145 147 144 145 147 146 148 148 149 150 149 149 150 150 150 151 150 150 149 150 148 149 148 149 148 149 149 149 149 149 149 149 149 147 149 150 150 148 149 149 150 149
 137 135 137 138 139 138 139 139 139 139 139 140 140 140 139 141 142 138 134 118 101  97  65  48  39  55  56  43  42  38  39  47  46  44  42  38  36  40  42  42  46  48  50  43  39  39  53  70  97 110 112 103 101 106 125 143 147 150 150 150 148 149 149 151 151 151 150 150 151 151 151 149 149 149 150 148 150 149 149 149 150 150 150 148 150 149 151 149 149 148 149 149
 136 137 137 137 138 139 139 138 140 140 140 142 142 141 139 137 139 135 126  98 106  64  48  41  44  45  41  34  33  36  44  41  35  32  34  36  38  43  43  39  40  43  41  38  37  38  45  51  56  59  59  52  53  57  64 103 139 147 149 149 149 150 150 150 151 151 149 150 152 152 152 150 150 151 151 151 151 151 149 150 150 150 149 149 148 148 150 150 149 148 148 151
 137 137 138 137 140 140 141 140 139 139 139 142 142 139 140 140 136 134 114  92 104  47  47  36  39  43  32  30  30  32  32  29  27  27  27  27  30  31  35  36  35  35  34  34  36  40  44  47  48  48  45  41  44  47  51  64 107 135 143 146 149 150 149 151 151 150 151 150 150 152 152 154 152 152 150 150 150 153 150 151 152 151 150 149 149 150 150 148 149 150 150 151
 136 137 137 139 138 141 140 140 139 139 140 141 141 139 138 139 136 126 103  97  81  48  48  30  36  34  28  27  27  25  24  25  25  24  24  22  24  25  27  28  29  27  30  30  34  37  38  40  37  38  38  35  40  43  45  46  53  69  98 125 145 148 149 149 151 151 151 152 149 152 152 153 151 152 152 151 152 153 151 152 150 150 151 150 150 152 150 149 151 150 150 151
 138 139 137 138 140 140 139 141 140 141 141 141 142 139 138 135 137 123 101  91  44  49  27  28  34  27  26  24  24  22  21  20  18  21  22  22  23  21  22  21  22  24  25  27  31  32  31  31  32  31  31  35  39  44  37  38  42  45  52  60  98 138 149 150 150 152 151 152 151 150 151 152 151 152 152 152 153 154 152 152 153 151 153 150 151 151 151 151 151 152 151 151
 139 138 138 139 138 140 138 140 142 141 142 142 142 141 138 134 134 122  88  68  33  32  24  26  28  24  23  23  21  18  17  16  16  16  18  19  18  17  17  16  18  22  24  23  23  24  27  28  29  29  32  35  36  37  36  34  37  39  42  46  58  95 142 148 149 151 150 152 152 152 153 152 152 152 152 151 152 151 152 152 152 153 152 150 151 150 151 152 151 150 150 152
 139 137 137 138 139 140 139 140 140 142 141 141 141 142 138 135 125 119  76  39  29  24  26  27  23  22  20  19  16  16  15  15  14  16  16  16  16  16  18  19  18  20  18  18  20  23  26  26  28  29  31  30  29  33  37  35  35  39  39  38  41  52  87 131 146 150 150 152 153 153 154 152 153 152 151 150 152 152 153 151 152 151 150 150 150 151 152 152 151 152 151 153
 137 138 138 138 138 140 140 141 141 141 140 140 142 138 138 130 118 103  60  31  26  21  25  26  21  18  16  16  15  15  14  15  14  14  15  14  14  15  14  15  18  18  17  20  22  24  25  28  28  27  26  29  28  30  34  30  30  33  38  35  36  44  53  71 126 146 148 152 152 152 152 153 153 152 152 152 153 152 152 152 152 152 151 152 151 151 150 150 152 152 151 151
 137 138 139 138 139 140 140 138 139 140 141 140 138 137 134 120 114  84  38  27  23  20  24  22  16  15  16  14  14  14  13  12  14  13  13  14  15  14  13  14  15  17  20  21  23  24  26  27  28  26  26  26  25  29  29  26  29  33  36  30  35  40  48  53  70 123 146 149 152 153 152 153 153 152 152 153 152 151 152 152 152 152 150 152 152 151 152 152 152 150 150 152
 138 139 137 139 139 139 141 141 140 140 141 140 136 137 134 124 108  56  28  24  21  19  18  17  16  14  14  14  15  13  14  13  13  12  12  12  12  13  14  13  15  16  18  22  25  27  27  28  30  28  28  25  24  23  25  26  30  31  36  33  37  38  44  44  47  65 122 146 148 151 152 152 152 153 152 152 152 152 153 152 154 153 151 151 151 152 152 153 152 152 151 150
 137 138 137 138 138 140 139 140 139 140 140 136 138 138 135 128  99  35  24  23  19  18  17  16  16  15  14  14  13  14  15  14  13  13  13  13  13  12  13  14  14  14  15  18  24  27  30  30  30  30  29  28  25  23  25  26  28  32  36  37  36  38  40  40  40  49  67 132 146 149 151 152 152 152 152 152 152 151 151 152 151 152 151 152 151 152 150 152 152 151 151 151
 137 138 139 139 140 139 138 141 141 139 135 136 140 141 138 120  57  29  23  19  16  16  16  15  15  16  16  15  15  15  16  15  16  15  14  15  14  14  14  15  14  14  14  15  19  21  23  24  23  23  24  24  24  23  24  25  30  29  29  34  36  36  38  35  38  42  49  96 143 149 151 150 151 152 154 154 151 151 151 152 152 152 152 152 152 151 152 150 151 152 152 150
 137 138 138 139 139 140 139 141 139 139 139 141 141 139 135 104  37  26  19  15  16  15  15  15  15  16  17  16  17  18  20  21  20  19  19  19  20  19  18  17  17  16  15  15  18  19  19  19  20  21  21  20  20  21  22  23  24  23  24  28  34  34  36  38  37  38  47  60 136 147 150 151 150 151 151 151 152 151 151 152 152 152 153 151 151 152 152 150 151 151 151 149
 139 138 140 139 139 140 139 139 139 141 141 140 140 139 132  65  31  22  17  16  15  16  16  16  19  19  21  23  23  27  27  28  31  32  32  33  34  32  28  25  24  22  20  20  21  20  19  20  19  19  20  19  20  19  21  22  24  22  21  21  28  33  34  35  34  36  41  45 108 143 150 150 151 152 151 152 152 152 151 153 152 152 152 152 153 151 151 151 151 152 150 149
 137 137 138 137 139 139 139 141 141 141 141 141 141 138 115  39  27  19  15  15  16  15  16  18  23  28  33  34  39  44  50  54  56  57  56  55  53  50  48  43  40  37  34  33  32  30  29  29  28  28  28  27  28  28  27  26  26  23  21  20  23  31  34  32  31  34  37  42  59 118 144 150 149 151 150 152 153 152 152 152 152 151 151 151 153 153 152 152 151 152 151 150
 137 138 139 139 138 138 140 140 141 141 141 141 138 130  61  33  24  16  16  16  16  16  19  25  34  42  48  55  62  67  72  73  76  75  76  75  73  71  70  66  63  64  59  55  53  51  52  50  51  51  51  51  52  55  52  48  43  38  30  26  24  26  28  29  29  32  32  36  48  67 119 145 147 148 151 152 151 151 152 152 151 150 150 151 151 153 152 150 152 150 150 150
 135 137 139 138 138 139 138 140 141 141 141 140 137  99  41  26  18  15  15  15  16  16  24  38  50  59  67  74  78  80  82  84  87  89  90  88  86  86  84  83  83  81  77  74  71  68  68  70  69  71  71  71  74  78  79  79  78  74  66  51  40  29  25  26  29  32  32  34  38  49  70 129 145 149 151 150 151 150 150 152 151 150 151 151 150 150 152 151 152 150 149 148
 138 138 139 138 138 139 140 141 142 141 140 139 128  63  33  20  15  16  17  16  16  24  40  54  64  72  79  85  85  86  88  92  94  98  99  99  97  96  95  92  92  91  89  87  85  80  79  79  79  80  82  85  84  86  89  90  92  96  99  96  83  60  37  27  28  30  31  34  35  39  50  77 134 146 149 150 149 149 150 151 150 149 150 150 151 152 150 151 150 149 149 149
 138 138 139 140 140 139 142 141 142 142 140 137 108  42  28  18  18  17  16  16  19  36  54  68  80  85  87  88  90  91  92  96  97  99 102 104 107 106 103 102 100 100  98  93  92  89  88  87  89  90  91  92  94  96  98  99 101 104 109 113 114 107  78  33  28  26  27  30  34  36  40  53  96 142 148 149 149 149 149 152 153 150 150 151 152 152 151 152 152 150 149 149
 138 139 139 140 139 139 140 142 142 142 141 121  51  36  24  20  20  16  16  17  29  52  70  83  87  88  90  89  91  93  94  94  96 100 102 103 105 108 106 103 103 101  99  95  93  94  94  97  99  98  98  99 100  99 102 106 107 111 115 121 124 123 119  81  33  24  24  26  30  34  38  47  64 126 146 149 150 151 150 150 152 151 152 150 151 150 150 151 151 150 150 149
 138 139 138 139 141 140 141 141 140 141 135  81  39  27  24  21  17  16  16  22  44  70  84  88  88  89  91  92  92  93  92  89  91  92  95  97  96  97  97  97  96  92  90  88  89  89  89  89  90  90  90  91  92  96 100 105 110 114 115 122 128 130 130 124  68  32  24  25  26  31  35  44  57 105 144 150 152 150 151 151 152 152 151 150 150 151 149 150 150 151 151 150
 138 138 139 140 140 140 142 142 140 140 126  45  34  28  24  20  16  16  18  31  63  80  85  87  89  91  91  92  89  88  85  87  87  91  96  99 100 100 103  99  98  95  87  85  86  86  87  89  90  93  93  93  94  95  98 102 107 113 114 120 126 130 132 133 122  50  30  25  28  30  35  44  64  83 141 150 150 150 151 152 151 152 152 150 151 152 152 151 151 150 150 150
 138 139 140 139 140 140 140 139 141 137  92  34  31  26  21  18  17  18  24  47  74  86  89  92  93  90  89  88  89  90  92  95  95  94  95  98 100 103 105 108 111 111 107 105 102 102 103 102 101  97  99  98 100 100 101 102 108 111 116 118 123 128 131 134 136 108  42  30  30  40  37  40  57  80 134 149 151 151 152 152 150 152 152 153 153 151 150 152 150 150 150 152
 138 139 140 140 140 141 140 139 139 122  50  32  27  23  20  18  17  19  34  58  77  88  91  93  92  90  90  91  90  89  86  82  81  79  79  80  80  79  82  84  84  89  91  90  88  88  88  85  85  86  86  86  85  86  87  89  94 101 110 118 122 125 128 133 136 134  84  43  29  36  39  39  52  77 122 148 151 151 151 152 151 152 151 152 153 152 151 151 151 150 149 150
 140 140 140 141 142 142 142 141 135  73  38  30  27  22  18  17  18  28  47  67  81  89  92  92  94  92  91  86  82  79  77  74  71  71  70  68  67  67  68  69  71  70  71  73  74  75  76  79  79  77  78  74  74  73  71  74  78  82  91 100 108 117 124 130 135 134 123  65  36  32  39  40  43  75 118 146 150 152 152 151 152 152 151 153 152 152 152 151 152 150 149 150
 139 138 140 142 141 142 140 135 107  39  32  29  25  24  21  20  24  36  58  76  86  90  91  92  92  91  90  87  88  90  92  90  91  89  88  87  87  87  89  91  90  87  88  87  87  86  83  83  80  78  77  78  84  86  88  89  91  97  97 101 107 112 117 124 131 135 131  94  47  34  38  43  44  66 124 146 151 152 152 152 153 154 152 152 152 152 152 150 152 152 150 151
 141 141 140 141 141 142 141 128  54  33  34  29  24  23  23  24  30  49  70  85  88  90  89  87  79  88  91  92  88  87  84  82  82  82  84  85  86  85  91  94  99  99 100 100 102 102 100 100 101 101 105 104 103 101  98  98  98 101 104 110 115 119 123 126 127 131 132 124  58  38  38  40  48  56 129 145 151 152 153 154 154 153 152 152 152 152 152 152 152 152 153 152
 142 142 141 142 142 140 138  91  38  32  29  26  22  22  22  26  36  56  77  85  87  88  89  83  79  89  90  91  90  89  86  80  79  75  72  70  71  74  77  79  82  87  90  92  92  96  98  98  98 100 103 100  94 102  96  91  92 100 110 115 115 119 122 127 130 129 132 129  86  44  36  37  45  50 125 145 151 152 153 153 153 153 154 153 153 153 152 152 152 153 152 151
 140 142 142 142 142 141 139  72  35  31  28  23  22  22  23  28  40  61  78  85  85  88  86  86  88  95  95  95  96  96  95  92  93  94  92  83  78  75  78  80  77  79  83  84  87  91  94  93  89  93  98  80  66  96 108 115 119 124 123 121 122 123 127 130 127 128 130 129 112  50  40  36  38  53 106 144 150 152 153 153 153 153 153 154 153 153 151 151 154 154 152 152
 141 143 143 143 143 143 138  67  34  29  28  24  22  23  24  31  44  61  74  82  84  84  88  90  94  95  93  95  98 101 102 100 102 103 105 106 106 101  98  94  87  85  84  86  88  93  96  95  96  99  95  82  81 113 124 127 128 127 125 123 122 122 125 128 130 128 128 128 124  73  46  37  35  45  83 141 148 152 154 153 154 153 154 154 152 153 152 153 153 153 152 154
 142 143 144 143 143 142 137  63  31  29  27  23  22  22  25  34  47  65  77  80  82  87  91  93  94  92  95 100 102 104 106 105 105 106 107 114 118 120 117 110 102  96  91  91  92  94  97  99 100 100 103 109 119 124 123 120 113 111 109 105 104 106 105 106 111 123 125 125 125 101  51  42  38  40  61 135 148 152 153 154 155 155 153 154 152 153 155 154 154 152 152 154
 143 143 144 144 143 144 140  69  33  32  26  23  23  24  29  37  52  70  79  81  84  88  88  90  90  82  76  77  77  79  82  87  89  85  82  90 101 115 121 120 115 107 104 101  99  98  97  98 103 103 109 114 116 116 109 102  99  87  77  69  74  76  80  80  81  96 118 126 126 116  54  42  40  37  52 124 150 152 155 155 154 153 153 155 154 154 154 153 153 153 153 155
 143 143 143 143 144 144 138  61  34  31  26  23  24  25  30  41  59  73  78  81  84  86  87  86  78  62  53  55  59  61  61  64  57  58  59  70  79  90 102 115 121 117 114 109 106 105 105 103 105 104 108 109 108  99  90  80  68  57  46  53  58  57  61  73  75  76  92 114 122 122  68  42  37  38  51 115 150 153 154 155 154 154 153 154 154 153 154 155 155 154 154 154
 144 144 144 143 143 143 130  48  34  31  25  22  22  24  32  48  67  79  82  82  82  82  85  76  60  46  43  46  46  46  45  45  44  46  46  52  61  63  72  93 110 114 116 111 107 106 107 108 105 101  99  99  95  82  67  55  49  44  45  45  49  51  56  70  80  74  77  99 117 122  89  40  36  39  48 101 148 155 155 155 154 155 155 154 154 153 153 154 156 154 154 155
 144 144 144 144 144 144 125  45  34  30  24  19  20  24  35  56  71  78  80  80  79  81  72  61  49  44  43  39  35  33  34  35  38  39  40  46  48  53  60  64  95  95 107 110 106 104 105 106 105  96  90  86  75  66  60  49  44  42  43  45  47  53  60  65  72  75  77  85 105 116 106  43  34  37  45  93 146 154 156 155 155 156 155 155 154 154 155 155 155 155 155 156
 144 144 143 143 144 145 121  54  34  29  22  18  19  24  41  64  74  78  79  79  76  71  59  55  50  43  38  33  33  35  34  34  35  36  37  41  51  53  59  55  73  79  94  98  98  98  98  96  93  87  78  74  65  56  51  48  45  44  45  49  60  67  71  71  78  87  86  83  93 109 116  57  38  36  44  99 149 155 156 154 155 156 156 154 155 156 156 156 155 154 155 154
 144 144 145 144 144 142 122  50  33  26  22  18  17  27  52  71  76  79  78  77  67  57  56  56  48  46  48  44  47  50  52  51  49  45  44  45  50  50  56  54  56  68  80  85  86  86  86  86  82  74  72  65  55  52  50  47  47  49  49  54  65  73  77  80  86  91  96  98  89 103 115  71  40  35  42 106 151 156 156 156 156 155 157 156 156 156 156 156 156 155 156 156
 145 145 148 146 147 143 121  44  32  26  21  19  18  30  60  74  77  79  78  69  59  53  57  52  51  55  61  59  61  63  63  60  54  51  49  48  47  48  51  52  53  59  65  69  73  74  76  76  74  69  66  59  52  51  48  47  48  49  50  52  59  68  73  83  88  94 103 115 104 101 110  87  42  34  44 128 152 156 156 157 156 156 155 157 157 155 155 156 156 156 154 155
 145 147 147 147 148 143 112  44  32  24  21  18  18  34  63  76  78  77  76  66  53  51  54  57  62  68  71  68  66  64  60  57  52  48  45  45  46  46  47  48  49  53  57  60  66  70  71  72  70  65  59  56  53  49  46  45  45  45  45  48  51  54  57  62  70  82 102 116 115 102 108  98  40  34  47 139 154 156 157 158 157 156 156 157 157 157 156 156 156 155 155 155
 147 146 147 147 148 142 121  42  33  24  19  19  20  42  66  76  80  79  76  62  56  60  65  69  74  75  73  68  66  62  54  51  48  43  42  40  42  42  44  45  47  48  51  57  61  65  70  72  69  62  57  54  51  45  45  43  42  41  40  41  40  39  38  41  46  59  79 105 117 113 111 108  48  35  46 142 155 157 156 156 156 156 156 156 157 156 156 156 156 156 155 154
 146 148 148 148 148 146 125  42  32  24  19  20  20  43  70  77  78  77  75  66  64  68  73  81  77  70  64  55  49  43  40  39  39  36  37  37  39  42  42  43  43  46  49  54  60  65  72  75  71  65  56  52  50  46  44  42  40  38  34  30  33  39  44  46  41  43  53  76 107 119 117 115  56  37  57 147 156 157 157 157 157 155 156 156 156 157 156 156 157 156 156 156
 148 149 148 148 149 147 134  45  32  28  22  19  23  46  70  74  76  77  76  72  70  78  81  75  65  59  48  39  36  33  33  32  31  30  33  36  39  40  40  41  42  45  48  51  59  66  71  82  78  68  58  51  48  44  42  41  38  33  30  36  51  58  62  64  72  58  42  56  89 114 120 121  60  42  76 150 156 156 156 158 158 157 156 156 156 157 156 156 157 156 157 157
 149 147 148 148 149 149 134  54  35  30  25  19  21  45  69  75  77  78  78  73  78  80  75  65  52  43  36  37  42  48  48  42  35  32  30  34  36  38  41  42  43  45  47  52  60  67  76  89  86  75  62  51  47  42  39  38  32  30  35  38  37  35  33  35  41  65  61  48  74 104 117 122  65  44  92 152 156 157 157 158 157 158 157 155 156 157 157 156 157 156 156 156
 148 148 149 148 148 148 139  88  36  29  28  22  21  43  70  75  76  79  74  74  81  76  64  53  42  35  42  58  61  56  52  46  45  39  34  32  34  38  41  42  42  44  46  52  60  70  81  95  97  84  67  55  46  39  37  31  29  32  34  34  35  38  51  53  40  36  48  54  66  97 117 117  71  44 120 153 156 157 157 156 157 156 157 156 156 156 156 157 157 156 156 155
 149 148 148 148 148 148 145 121  45  29  30  24  21  42  71  77  79  78  75  77  80  68  54  45  35  47  54  43  34  31  33  35  36  34  35  34  32  35  40  42  43  44  49  53  61  74  87 100 105  93  72  56  45  39  33  30  32  44  39  33  51  29  32  72 107  50  41  57  66  92 113 118  83  47 132 154 157 157 158 157 157 157 157 156 156 155 156 156 157 155 155 155
 149 148 148 148 148 148 149 141  66  32  29  24  22  40  69  77  79  79  76  79  75  60  49  38  41  52  36  34  42  34  34  37  48  52  39  34  35  35  38  42  43  46  51  54  62  79  95 106 111  99  78  58  47  41  32  31  40  55  30  27  25  24  28  67 108  85  48  51  66  90 111 122  93  50 121 153 157 157 157 157 157 156 156 155 156 155 157 157 157 157 156 156
 148 148 148 149 149 148 149 146 103  35  32  28  24  38  70  79  79  78  78  80  68  56  45  37  47  33  39  56  39  33  39  30  29  54  60  45  36  39  41  46  48  50  52  56  65  85 100 111 118 107  86  64  54  44  32  34  49  55  31  28  22  22  27  44  81  87  81  72  76  92 110 124 104  56 107 150 155 157 158 157 156 156 156 156 156 155 155 157 156 157 157 157
 148 148 148 148 147 149 148 148 136  59  35  26  24  35  72  81  82  81  80  77  62  51  45  40  32  35  56  54  28  26  23  22  27  38  63  52  40  36  42  50  52  53  53  60  68  90 104 113 120 118  93  79  72  54  34  39  51  57  37  30  25  26  27  52  76  90  90  95  98 102 112 125 117  56  74 146 156 155 156 155 156 156 156 155 156 156 156 156 156 155 156 155
 147 147 147 147 148 148 149 147 144 113  51  30  25  35  73  82  84  81  80  74  61  50  44  38  37  46  65  62  30  24  22  21  28  40  62  54  45  44  45  56  65  65  60  64  72  95 109 116 124 122 104  92  83  66  51  46  49  53  50  39  33  34  46  64  72  86  99 109 112 114 118 126 126  60  81 148 155 156 155 155 156 155 156 156 157 155 156 155 157 155 155 154
 147 147 148 148 148 148 147 148 145 119  66  31  27  38  74  84  84  84  80  72  60  52  49  45  47  54  61  61  34  29  25  24  29  50  56  51  47  51  61  67  64  66  66  69  75  97 113 124 129 129 116  96  87  73  58  53  53  55  54  53  55  54  55  62  71  88 102 114 118 121 123 128 132  77 109 149 154 156 155 156 156 156 155 156 155 156 156 155 155 155 156 154
 147 146 147 147 146 147 147 147 128  79  50  32  28  34  73  84  85  85  81  72  60  57  54  52  53  55  56  57  53  36  28  30  44  57  58  55  56  56  59  62  60  63  69  74  76  95 114 124 124 125 120 103  93  81  67  56  52  53  52  50  51  51  54  60  73  90 106 117 121 126 128 130 133 100 127 151 155 155 155 156 156 155 154 154 153 155 155 155 154 154 154 153
 146 145 147 147 146 148 147 146 104  72  53  37  29  33  71  84  87  86  80  72  63  61  62  63  61  58  55  56  55  56  55  54  51  49  48  46  49  54  59  62  61  65  74  76  77  90 110 119 120 121 123 109  97  91  77  68  62  59  58  56  57  58  62  68  79  92 105 119 126 129 131 132 133 124 138 152 154 155 155 154 155 154 154 154 152 154 155 155 156 154 155 154
 146 145 145 147 147 148 148 144  85  58  58  39  31  33  69  84  85  85  80  73  70  69  70  70  69  65  60  56  53  52  49  45  46  46  48  53  59  63  65  65  63  69  77  76  76  80  87 103 112 115 120 109 100  95  90  80  74  72  72  72  70  71  72  78  88 101 112 123 130 131 133 133 133 128 134 151 152 153 154 154 156 155 154 153 155 153 154 153 154 154 153 153
 146 145 146 146 147 147 146 143  71  38  44  48  33  35  67  84  86  84  81  76  74  77  78  76  77  74  70  62  58  55  54  55  57  58  63  67  70  69  68  64  69  77  78  80  79  77  84  99 107 110 115 110 107 102  98  93  86  81  79  79  82  84  87  92  99 108 117 128 133 134 134 134 134 130 119 150 153 153 153 154 154 154 152 154 153 151 153 153 154 154 153 153
 144 144 145 146 147 145 146 143  88  39  46  58  39  34  68  85  84  83  82  79  78  78  81  79  80  80  78  76  71  68  68  70  70  70  71  72  72  70  66  69  76  78  80  83  81  77  85  96 103 108 113 114 110 109 106 105  98  90  86  84  82  86  92  96 102 109 119 127 132 135 135 134 134 130 107 148 151 152 152 153 152 153 151 151 154 153 152 152 152 152 153 152
 144 144 145 145 144 146 146 144 104  43  55  63  54  34  66  83  86  84  82  80  78  80  81  82  82  83  83  84  81  80  81  79  77  75  74  73  72  71  73  78  82  83  82  83  80  78  84  94 103 108 111 115 111 110 108 108  99  97  95  90  85  86  89  93 100 107 113 123 129 132 132 133 134 130 115 145 150 151 150 151 150 151 153 152 152 153 152 152 151 151 151 151
 143 143 145 144 144 146 146 144 130  48  66  69  57  40  61  83  84  82  80  81  78  82  82  82  84  86  87  86  84  83  84  80  81  78  77  76  75  79  82  81  81  81  78  78  78  79  81  90 101 111 112 114 112 112 111 108  99  94  96  96  90  86  85  91  95 104 108 117 125 128 129 131 133 132 131 147 150 151 151 150 151 152 151 152 151 151 151 151 151 150 151 151
 143 143 145 144 144 145 145 144 141  76  71  63  46  43  62  84  84  82  84  84  82  84  84  82  82  83  86  85  84  83  84  81  83  81  78  80  81  81  82  78  75  76  75  76  78  80  81  90 102 110 118 116 114 110 110 107 102  92  92  96  93  90  84  83  89  96 100 108 118 123 123 123 128 131 140 149 150 151 149 150 151 151 151 151 150 151 151 151 150 150 150 150
 142 142 143 144 145 146 146 145 145 116  73  51  38  51  66  81  82  83  84  82  85  87  85  84  82  81  83  81  80  81  83  79  79  78  79  81  79  80  77  75  72  71  72  76  77  79  81  88 101 110 115 114 113 110 108 105 101  91  87  90  92  90  83  80  82  90  93 102 109 113 116 116 120 126 142 148 150 149 149 150 151 150 151 151 151 151 151 149 150 150 149 149
 142 143 143 143 143 144 144 144 145 131  69  47  39  78  72  81  84  85  85  82  86  85  86  85  83  82  81  77  78  78  76  73  72  70  74  76  76  76  71  70  70  67  68  72  76  80  86  91 101 106 112 110 112 113 106 103  99  92  85  82  86  88  82  83  85  86  89  94 101 105 108 111 115 123 143 148 150 150 150 150 150 150 150 149 149 149 151 151 149 148 148 149
 141 142 143 144 142 143 144 144 143 133  71  49  53  80  75  80  83  83  84  83  85  82  83  81  80  77  77  73  73  72  70  69  66  64  67  71  74  75  69  66  66  66  67  70  75  84  90  95  99 101 106 106 108 113 109 101  95  90  83  77  81  83  85  85  84  85  88  92  96 102 103 108 112 120 142 147 149 149 149 148 149 149 149 148 149 148 149 148 149 149 148 149
 140 141 141 143 143 145 145 144 143 139  79  55  60  77  75  79  84  82  82  81  78  79  80  77  77  75  74  71  69  68  65  65  65  66  67  69  70  69  68  65  65  65  66  67  75  88  93  96  96  97  99 100 104 109 110 104  89  85  82  77  76  79  82  85  84  84  88  89  92  96 100 102 109 119 142 148 148 149 148 149 149 148 149 148 148 149 148 148 148 149 148 148
 140 141 140 143 142 142 142 143 144 141  94  59  53  76  74  74  81  82  81  78  73  75  73  74  74  72  70  70  69  67  65  66  66  67  68  69  69  66  66  64  64  63  63  66  79  89  92  91  93  93  93  92  98 103 108 113  90  78  77  75  77  78  78  82  81  80  82  86  89  91  94  97 105 122 142 147 146 147 148 148 149 149 148 149 149 148 147 148 148 149 148 149
 140 140 139 140 141 142 143 142 142 142 110  78  66  64  77  73  79  82  79  75  72  73  71  69  69  70  70  68  67  67  65  66  66  67  69  68  68  66  65  63  63  62  63  70  82  85  85  88  88  87  87  88  90  95 100 107 101  77  74  74  75  76  76  78  79  78  82  86  87  84  89  92 101 126 143 145 146 146 146 147 147 146 148 147 147 148 149 148 148 148 148 147
 138 138 138 139 140 140 143 143 142 141 131  95  76  50  70  73  76  79  77  72  70  70  68  66  66  68  66  64  64  66  65  65  68  68  68  69  66  64  65  62  61  59  66  79  82  81  81  82  80  78  79  82  82  82  88  98 105  80  72  73  75  76  76  75  74  74  78  81  82  84  86  91 101 133 144 145 145 146 145 146 146 145 145 147 145 146 148 148 148 148 148 148
 139 139 138 140 141 142 142 142 144 143 140 119  82  72  69  69  73  78  74  70  69  69  67  65  66  65  63  64  65  65  65  66  64  60  65  66  66  64  65  63  60  58  71  80  80  78  74  73  72  68  68  71  72  70  72  78  88  89  74  73  75  77  74  75  75  75  75  76  80  81  82  86 104 137 142 144 144 145 145 146 147 144 146 146 144 147 148 148 148 148 147 147
 139 138 139 140 141 142 143 143 144 143 141 133  84  73  68  64  72  75  72  69  67  65  65  65  63  63  60  64  65  63  63  64  62  58  64  66  66  65  64  62  60  61  78  76  71  68  66  64  63  62  61  58  58  55  56  58  66  87  80  74  77  77  76  74  73  73  75  74  79  81  81  85 107 138 143 144 144 144 143 145 144 144 144 145 143 145 145 147 146 147 144 147
 138 140 140 141 140 140 141 142 142 143 142 140  95  66  62  59  67  71  70  68  65  64  63  62  62  60  56  62  64  63  61  61  61  63  66  66  66  65  63  62  60  66  77  67  57  52  52  50  50  51  49  48  46  47  49  51  54  70  79  76  80  80  77  75  77  75  76  75  79  82  84  90 116 139 142 143 144 143 145 144 143 144 145 144 144 145 145 146 144 144 146 146
 139 139 140 140 140 140 141 143 144 144 143 142 122  72  66  66  67  71  68  65  63  61  60  60  60  59  58  57  60  60  62  64  63  64  66  67  67  67  66  64  62  67  67  57  45  39  38  38  38  40  39  40  42  43  40  30  35  54  75  79  85  86  82  79  79  78  75  75  80  84  88  94 120 139 142 142 143 143 144 144 145 144 144 144 144 144 144 144 146 145 144 144
 139 139 141 140 141 140 142 142 143 143 144 143 139 106  70  67  69  73  72  66  62  56  57  56  55  56  57  60  60  59  61  62  62  64  66  66  67  67  67  66  63  62  55  41  27  18  19  27  34  34  32  35  39  34  20  20  29  50  78  84  86  87  89  82  81  80  76  77  82  88  91  97 127 138 141 142 142 142 143 144 143 143 142 143 143 142 143 143 143 144 143 142
 139 139 140 140 140 142 143 143 144 144 144 142 141 139 118  86  71  74  74  67  62  59  57  54  54  54  55  56  59  59  61  62  63  64  67  69  69  68  70  69  67  61  47  33  22  15  16  23  29  33  34  36  42  28  22  25  33  59  84  90  90  92  90  88  87  84  79  80  84  90  93 102 130 138 139 142 142 142 142 142 142 141 142 142 143 142 143 144 144 143 142 142
 139 138 140 140 140 141 143 144 142 144 143 144 143 143 142 140 130  92  76  68  61  56  55  54  54  53  52  55  57  56  56  59  63  64  67  71  72  72  72  72  70  61  47  38  27  22  24  30  30  32  34  39  42  40  33  33  47  73  89  95  95  99  95  93  93  92  86  85  88  92  94 106 133 139 139 141 140 140 140 141 142 141 141 140 142 141 141 142 143 142 141 142
 138 139 140 140 141 142 141 143 143 144 144 144 144 146 146 142 139 128  85  71  62  57  55  55  54  53  54  55  56  55  56  60  64  66  68  73  74  73  74  76  74  64  50  38  32  31  34  36  37  34  34  39  45  50  46  50  62  79  91  96 100 104 103  99  97  94  91  92  91  91  93 111 132 136 138 138 139 138 139 139 139 141 141 138 139 140 140 142 143 142 141 140
 139 139 141 140 141 141 140 143 144 143 143 144 143 143 145 146 144 140 100  74  64  60  54  53  54  54  54  55  54  58  59  60  66  70  72  76  76  76  77  78  76  68  57  44  35  34  40  42  45  42  41  43  47  55  60  63  70  85  93  96 101 108 109 106 102  98  94  94  92  93  95 116 135 137 136 137 137 137 137 137 139 141 141 138 140 142 142 142 141 142 140 139
 140 140 140 142 140 140 141 142 143 145 144 144 142 145 145 145 145 142 115  78  66  60  55  53  52  53  54  55  57  58  59  62  67  71  75  74  78  78  80  80  77  70  62  54  51  45  43  45  46  44  44  48  51  56  62  68  73  80  92  95 100 107 111 108 106  99  95  95  95  93  96 119 135 136 138 137 138 136 136 137 139 140 141 139 140 141 141 140 140 142 140 139
 140 140 141 140 142 140 142 142 142 143 144 144 142 144 144 145 146 142 126  80  70  63  56  52  51  51  52  54  56  57  60  64  67  71  74  77  78  76  79  80  78  72  65  59  58  55  51  49  47  44  43  48  51  55  59  66  71  83  90  94  96 100 111 112 106 100  97  96  93  92  98 122 134 137 137 137 137 136 138 138 136 136 137 139 138 139 138 137 137 138 138 138
 139 139 140 140 141 140 142 140 143 144 144 144 144 144 144 144 145 142 135  89  72  63  57  52  50  50  52  54  55  59  62  64  67  72  75  74  77  79  81  79  78  72  66  62  61  59  53  53  50  44  42  47  52  59  62  69  75  83  89  93  93  97 107 112 107 100  96  97  93  93 100 124 133 134 136 136 136 134 136 135 135 136 138 136 137 136 136 136 136 136 137 136
 139 139 139 140 140 142 141 142 142 143 143 142 144 144 142 142 145 143 138 100  73  64  58  52  51  50  53  53  55  59  62  65  69  70  73  74  78  78  80  81  75  72  64  61  60  63  58  54  55  52  49  49  54  61  64  71  77  81  82  86  93  96 103 111 107 101  98  99  93  94 104 127 133 134 135 135 135 134 135 135 136 136 135 134 136 136 135 135 136 136 137 136
 139 139 140 140 140 140 141 141 142 143 143 142 142 142 143 143 145 142 138 109  75  64  60  53  51  50  53  54  55  57  60  63  68  68  71  74  76  78  78  77  74  73  65  56  59  61  59  60  61  61  59  54  54  64  67  72  79  80  73  75  86  94 100 108 104 101  98  99  93  94 105 129 134 134 135 135 134 134 134 135 135 136 134 134 135 135 135 135 134 136 136 136
 139 140 141 140 140 140 142 140 142 144 143 142 142 142 142 142 142 142 139 124  79  66  61  53  51  50  51  54  57  60  58  62  64  66  70  75  77  77  76  72  70  69  64  57  60  59  54  65  68  68  67  62  59  67  75  79  82  82  74  70  68  79  94 103 101  98  97  98  93  96 109 129 134 134 134 134 133 134 133 133 134 133 133 134 134 134 134 134 134 136 135 135
 139 139 139 139 139 140 141 142 142 142 142 142 141 142 143 143 143 143 138 130  81  68  61  57  54  53  52  53  59  61  58  60  64  65  69  73  76  76  73  67  65  63  60  56  55  57  58  67  69  69  70  66  63  68  75  80  89  91  79  73  66  69  80  98  99  99 100  96  93  98 112 130 132 132 132 133 133 131 132 131 131 131 133 134 134 134 133 132 134 136 135 134
 139 139 140 138 140 140 141 142 142 142 141 142 142 141 143 143 141 141 140 132  90  69  61  58  55  52  51  53  57  61  61  62  62  64  66  70  71  72  70  65  59  54  56  47  52  61  68  69  66  61  61  63  64  62  56  54  65  81  90  76  62  65  71  88  97  99 100  96  93  98 116 128 131 132 132 131 132 131 131 130 130 131 132 132 132 132 133 133 134 135 133 131
 139 138 140 139 140 140 140 141 142 141 142 142 141 141 142 142 142 142 141 137 111  73  62  60  55  53  53  54  59  62  64  64  63  64  66  68  69  69  64  62  53  51  50  48  56  67  66  56  48  39  36  39  42  38  33  31  36  46  69  86  66  58  64  83  96  99 100  97  95 100 123 129 131 132 131 130 131 130 129 130 131 129 131 132 130 132 132 130 131 132 133 132
 139 137 138 138 139 140 141 141 140 140 142 140 141 142 141 140 141 141 140 134 122  79  65  60  55  54  55  54  57  60  62  63  64  63  62  67  67  58  53  52  47  46  49  55  64  60  47  39  32  27  23  23  24  21  19  21  24  30  41  71  74  58  60  80  93  99 100  97  96 103 123 130 129 130 130 130 129 129 130 131 130 130 130 129 129 128 128 128 127 129 130 130
 138 138 138 138 139 139 140 140 140 139 140 140 141 140 141 140 140 139 139 136 125  90  67  60  57  56  55  54  56  53  62  63  63  64  62  65  65  56  49  48  47  45  52  64  60  42  33  28  21  18  15  12  13  13  11  15  20  24  29  48  68  53  60  78  93 100  99  95  97 107 125 128 129 129 128 128 129 129 129 129 128 128 128 128 128 129 128 127 127 128 128 128
 136 137 139 139 138 140 140 139 139 139 139 138 140 140 140 139 138 137 138 136 132 108  69  63  60  57  54  54  59  57  61  63  63  64  63  63  62  52  49  48  46  47  54  58  42  30  22  19  12  10   9  11  10  11  10  10  14  19  25  35  46  48  62  76  90  98  98  98  96 112 124 128 128 128 127 126 126 126 127 126 129 128 127 128 126 128 127 126 127 127 127 127
 135 136 135 136 136 137 137 138 138 137 137 138 137 137 138 138 136 135 135 134 132 124  76  64  62  59  58  57  60  60  62  63  64  65  65  64  61  54  49  46  43  41  45  39  30  23  17  11   9   9   9   9   9   9   8   8  12  16  21  27  40  55  61  75  88  96  98  98 100 115 123 127 125 125 126 125 124 123 126 126 125 124 124 124 125 125 125 124 126 126 126 126
 134 136 136 135 135 135 137 137 136 136 136 137 136 137 136 136 135 136 133 134 131 126  98  67  62  60  61  61  61  61  61  63  64  64  65  65  61  52  49  44  40  36  34  29  23  18  12  11   9   9   8   9   8   8   8   7  14  18  24  32  54  62  62  75  86  97  99  99 100 119 123 124 122 122 125 125 123 123 122 122 123 122 122 122 122 122 122 121 123 124 124 124
 134 134 134 135 134 136 135 132 134 136 134 135 135 136 133 135 133 133 133 133 131 127 113  75  62  59  58  60  60  60  62  62  63  63  66  65  61  54  49  45  44  36  28  21  16  16  12  10   8   8   7   8   7   7   9   9  14  24  30  46  61  68  67  76  85  95  99  99  96  80  82  98 130 128 124 122 122 120 121 120 120 121 121 121 121 121 122 122 122 123 125 125
 131 134 133 134 133 134 136 134 134 134 134 134 134 134 133 132 131 131 130 128 128 126 118  84  62  60  59  60  60  61  62  63  64  64  66  64  61  54  46  46  45  43  36  29  22  20  17   9   8   9   9  12  12  11  14  12  15  25  40  53  63  66  69  73  82  92  97  96  83  49  43  45  82 126 127 122 120 119 119 118 118 119 120 119 120 119 120 120 121 120 121 121
 130 130 133 132 132 134 135 134 131 132 135 133 131 133 131 130 129 128 129 126 127 126 121  93  64  61  60  60  61  62  62  62  64  63  63  62  57  51  46  47  47  45  40  38  30  27  26  14  13  15  16  19  18  16  13  13  17  29  54  55  60  62  67  74  81  90  96  93  71  38  38  32  49  84 125 111  77  74  75  86 102 113 117 115 117 117 119 118 120 120 120 119
 131 130 130 130 132 132 132 132 130 132 131 131 131 128 129 129 129 127 126 125 125 125 122 102  67  58  58  60  62  62  62  62  62  65  61  60  57  51  47  46  47  44  41  40  38  35  37  24  17  14  15  17  16  15  14  17  24  33  47  55  58  60  64  72  81  90  94  84  47  30  30  28  33  60 101 131  77  36  34  43  52  73  99 114 118 118 119 120 120 121 121 119
 128 129 127 130 130 129 130 129 130 130 129 129 129 127 126 126 126 126 125 123 125 125 121 106  68  59  58  60  63  61  62  61  62  63  61  59  55  51  48  47  44  42  38  40  40  42  41  33  33  23  17  18  20  20  20  25  32  37  39  54  57  59  59  70  81  88  91  79  28  24  25  26  27  44  77 115 136  71  27  26  27  37  60  89 108 117 118 118 118 120 119 119
 127 128 127 130 130 127 128 129 129 129 128 128 127 127 125 124 126 125 122 122 120 119 106  88  69  60  56  58  61  62  62  61  62  61  58  56  53  50  49  45  42  39  35  38  39  40  39  39  48  40  35  40  45  30  29  28  32  38  42  48  55  58  58  69  80  87  86  65  30  20  19  20  22  30  61  95 121 138  79  23  21  25  33  60  85 100 112 114 115 115 116 115
 126 127 127 126 127 126 127 126 126 127 127 125 124 124 125 124 123 123 120 120 111  93  75  56  64  59  51  53  57  60  62  61  61  59  58  54  53  50  47  42  41  39  35  33  35  35  38  39  36  34  35  35  34  35  33  32  33  35  40  45  53  58  61  71  79  86  85  40  27  24  15  16  16  21  42  76 106 130 143  94  53  22  21  35  66  81  90 105 112 113 115 113
 126 125 126 124 122 125 126 126 125 125 124 124 123 124 123 121 119 120 114 100  82  69  55  43  61  60  54  50  52  55  59  61  60  58  55  55  51  50  46  41  40  39  37  32  32  31  32  35  32  32  31  30  32  34  34  33  31  31  34  41  54  58  61  73  81  85  82  33  19  21  17  11  12  12  27  61  95 122 135 115  90  81  33  25  56  74  81  86 105 115 114 114
 124 124 125 124 124 124 124 124 124 123 121 121 121 121 121 119 117 108  93  81  75  61  50  37  56  59  54  50  49  51  55  60  62  56  53  53  50  48  46  43  42  42  38  32  30  29  29  30  30  32  32  29  29  30  30  28  28  29  32  39  58  60  66  76  83  85  85  27  18  19  19  13  10  10  16  46  80 114 130 121  90  89  84  30  46  65  77  78  85 102 111 112
 124 125 122 121 122 125 124 122 121 121 120 120 118 119 119 114 104  92  81  79  70  56  36  26  45  57  57  53  49  47  51  55  59  55  54  52  49  49  46  45  44  45  40  34  30  29  27  29  28  28  28  29  28  28  28  25  25  28  32  41  61  67  72  78  82  81  85  26  16  18  19  15  11   9  10  32  69 103 125 126 103  97  93  60  43  61  73  74  72  76  84 107
 123 123 123 120 120 121 121 120 120 120 120 119 119 119 113 104  93  88  82  78  67  43  23  19  40  56  54  54  48  44  44  49  52  54  54  52  50  51  49  48  48  48  42  34  32  30  26  26  25  26  26  29  28  29  27  25  27  31  35  44  63  71  75  81  81  79  83  25  14  17  19  17  14  10  10  20  54  89 117 128 110  95  94  76  44  60  69  74  73  74  71  78
 121 120 120 120 120 118 120 119 119 118 117 117 116 114 104  98  92  86  84  71  49  25  16  16  32  56  55  53  50  44  42  43  47  52  53  51  49  53  53  51  51  50  45  37  34  30  26  24  24  24  24  24  26  27  26  25  29  36  36  45  63  74  79  75  76  80  85  23  13  15  17  20  16  11   9  13  43  72 104 128 115  96  94  81  45  57  66  70  70  73  70  67
 119 118 118 118 118 118 117 116 117 117 116 115 112 104  98  91  88  84  76  52  27  13  13  12  25  59  55  53  51  48  43  41  43  47  50  50  49  53  55  55  53  53  47  39  33  30  30  28  25  24  24  23  24  24  27  28  32  39  41  48  64  76  78  75  75  85  87  24  13  12  15  19  17  15   9   9  30  63  95 119 119  95  88  77  45  55  66  70  68  69  70  63
 118 118 118 118 118 116 115 115 114 114 115 110 103  98  93  87  84  79  61  31  14  10  12  10  17  56  55  54  52  48  44  42  39  41  46  48  51  54  58  56  57  55  49  44  37  35  33  30  29  28  28  28  28  28  31  34  36  41  47  54  68  75  78  74  70  82  87  27  10  11  13  17  19  17  13  10  22  56  86 110 122 100  86  73  43  51  64  68  68  67  70  60
 119 120 117 116 116 115 112 111 111 112 109 104  97  94  88  88  81  65  39  17  10  12  11  10  11  51  58  54  53  50  48  44  42  36  40  46  48  54  58  60  59  58  53  48  40  37  35  34  36  30  30  32  32  33  34  38  39  43  49  58  69  76  78  69  68  80  82  35  11  11  11  16  19  17  15   9  16  46  77 108 121 100  82  68  41  49  59  65  65  66  66  57
 116 117 116 116 113 101  84  71  84 104 101  98  96  93  90  88  74  53  23  10   9  12  10   8  10  44  56  55  54  52  49  46  44  40  36  41  45  49  54  59  60  59  56  51  44  41  38  37  38  35  35  36  35  36  38  41  45  50  53  61  71  76  76  58  68  79  78  34  10  11  11  14  19  19  17  11  12  39  67 103 121 106  77  62  36  46  60  63  63  64  64  52
 114 114 112  93  63  47  35  54  99  99  97  96  93  90  85  83  66  38  13   9  10  11   9   8   9  40  54  55  53  52  49  48  43  42  41  37  40  45  52  55  57  59  57  51  45  43  41  40  41  41  41  41  38  39  42  49  51  54  55  61  68  73  67  55  72  79  77  34  11  10  11  12  16  19  18  11  10  35  64  93 112 100  72  54  30  42  58  60  62  62  63  49
 112  96  68  52  36  40  83 106 101  98  95  95  94  92  82  73  53  23  10   8  12  10   9   8   8  36  52  54  52  51  50  49  47  44  42  40  38  39  45  54  55  56  53  53  50  47  46  46  43  44  43  43  42  42  44  50  53  54  57  59  61  63  56  58  73  77  72  32  12   9   9  10  14  17  19  12   9  28  62  90 100  95  65  44  29  41  54  60  60  59  60  46
  81  59  45  30  41 102 108 103  98  95  91  94  93  88  80  64  40  14   8  10  13  11   9   8   8  33  50  52  53  51  50  47  48  45  44  42  39  37  38  47  51  53  51  51  52  52  52  51  47  43  46  45  46  48  49  49  51  53  54  55  54  55  56  66  74  74  67  30  12  10   9  12  12  16  18  11   8  20  56  85  97  86  54  35  29  43  56  62  59  57  58  47
  51  41  26  27  85  98 103 100  99  93  90  94  90  85  75  53  25  10   9   9  12  10   8   8   8  27  49  50  52  51  49  47  47  46  47  45  43  40  36  39  43  48  47  48  47  50  49  49  49  47  48  44  44  46  45  44  46  48  48  48  47  50  58  69  72  73  58  26  13  10   8  10  13  15  18  10   7  18  52  83  97  81  50  32  32  41  53  58  59  57  56  47
