P2
# Generated by OpenCV 3.4.0
92 112
255
 112 110 112 111 112 113 111 112 112 113 114 112 113 113 114 115 116 113 116 115 116 117 116 116 117 120 123 129 141 151 142 143 149 152 146 144 160 165 174 191 190 191 185 174 187 208 242 242 247 249 180 183 213 247 216 155 146 145 146 147 148 150 151 153 154 157 158 160 163 164 172 171 170 170 172 174 177 177 180 183 186 188 190 193 195 198 202 206 207 210 214 215
 111 112 109 110 110 112 111 111 112 113 114 113 112 113 114 113 115 114 119 116 116 117 118 117 119 120 128 137 146 145 144 136 135 134 132 135 154 155 163 176 204 195 169 160 194 227 224 233 248 239 209 208 250 251 252 224 161 148 145 147 147 150 152 153 155 155 160 159 161 164 167 188 179 170 172 173 176 177 180 181 183 186 188 190 192 195 198 201 204 207 208 210
 109 108 110 110 110 113 110 111 111 112 113 112 112 113 113 114 114 114 119 114 115 118 120 117 121 125 128 125 124 128 125 121 116 121 127 129 146 142 152 167 199 189 190 167 197 235 228 241 252 208 209 239 231 237 246 250 197 158 150 152 150 149 149 153 154 155 156 159 159 161 163 167 172 170 171 173 175 175 178 180 181 182 186 188 191 193 196 198 200 202 206 207
 109 108 112 109 110 111 112 110 111 112 111 113 112 113 112 113 114 114 116 116 116 120 123 123 120 128 127 124 113 118 116 118 113 119 131 131 140 137 145 162 182 193 188 186 202 212 229 224 229 216 211 239 234 237 251 251 229 166 162 163 159 153 155 158 155 156 157 162 159 161 161 165 170 169 169 172 172 174 175 178 180 180 184 185 188 189 193 195 199 199 202 205
 109 109 110 109 109 111 111 111 111 111 111 109 112 113 114 114 114 115 116 123 122 119 121 127 125 129 133 129 118 119 121 118 120 124 137 133 140 149 141 153 166 177 197 188 179 188 206 197 202 250 205 214 251 234 248 251 248 201 196 201 173 167 168 168 184 195 191 166 179 161 160 162 166 166 167 168 169 171 174 175 176 177 180 182 184 187 188 190 192 194 195 198
 108 109 110 109 109 109 109 112 110 111 110 110 111 111 112 113 115 120 118 123 122 122 123 130 124 128 127 130 123 120 123 123 116 124 136 135 139 155 141 149 149 156 172 161 155 173 173 163 205 237 216 188 234 225 246 251 251 250 244 243 189 162 162 174 154 154 177 214 182 162 156 155 157 156 156 157 159 158 162 162 164 165 165 168 171 172 175 176 177 180 181 183
 108 108 109 109 109 108 110 110 110 110 110 111 111 113 115 115 114 122 135 118 124 125 123 128 115 120 117 123 123 129 118 123 119 125 130 138 138 144 134 137 137 136 145 141 142 150 159 171 180 195 196 177 225 240 236 245 250 252 252 252 220 186 155 162 170 138 135 141 192 169 148 155 152 146 147 146 149 148 151 153 156 156 158 160 163 165 168 171 172 173 175 177
 109 108 108 107 109 108 109 109 109 109 110 107 109 111 112 114 114 118 140 117 118 132 129 123 114 108 110 116 122 133 125 122 127 124 128 130 132 134 133 132 127 125 136 133 141 139 146 162 160 169 166 174 217 210 194 202 235 252 252 252 252 226 179 173 198 152 133 136 140 173 148 142 165 153 146 153 149 141 143 145 146 148 149 150 153 155 157 160 161 164 167 168
 108 107 106 108 108 107 108 109 108 107 111 110 109 110 112 112 115 115 125 119 123 129 133 124 119 110 113 112 119 127 126 120 121 121 125 126 128 131 128 129 121 125 132 134 138 138 141 148 149 159 141 161 168 201 177 171 199 250 252 252 252 251 221 210 194 194 130 127 128 141 157 144 142 145 134 135 142 137 139 142 144 146 149 150 154 164 169 160 165 166 168 169
 108 108 107 108 107 107 109 110 110 108 109 109 110 110 113 115 120 116 122 130 125 119 118 126 115 107 112 117 121 123 120 116 120 124 126 125 126 128 127 124 124 127 130 135 135 135 137 143 149 148 137 149 150 166 180 161 190 227 251 252 252 252 251 234 233 203 163 142 135 142 156 167 157 144 139 136 137 138 140 141 144 145 149 155 158 156 153 153 157 158 160 160
 107 107 107 108 108 107 109 108 109 108 108 109 110 112 114 121 120 119 124 133 124 115 112 120 112 106 108 120 126 125 123 117 120 124 126 128 128 127 124 122 126 128 128 129 131 137 141 149 153 140 145 148 150 152 169 174 180 194 223 250 251 252 252 249 247 212 193 153 131 142 153 182 183 159 133 130 133 133 136 138 142 146 149 147 149 151 152 152 157 158 158 161
 106 106 106 107 107 107 107 107 107 108 109 109 109 113 115 124 132 132 126 113 108 108 107 106 108 105 104 113 118 122 125 123 120 120 125 130 128 129 126 124 128 127 126 130 133 136 149 154 145 151 146 148 147 154 166 168 181 186 193 238 245 247 252 252 252 241 197 190 200 170 158 164 176 194 147 134 134 133 135 140 141 141 142 145 146 148 152 153 154 156 158 160
 106 106 105 107 106 106 106 106 108 108 107 112 111 113 121 125 127 130 131 119 112 109 110 105 104 104 104 112 117 118 121 121 124 121 126 130 127 131 129 129 129 129 127 133 138 142 150 147 146 151 150 155 154 165 168 174 184 187 195 214 238 239 250 252 252 252 228 177 177 216 184 155 165 166 190 144 141 151 142 141 143 146 148 149 152 156 158 161 161 163 166 166
 105 107 106 106 105 106 106 107 106 106 109 111 114 113 118 116 120 120 116 113 112 109 106 105 107 110 112 117 124 124 122 121 122 125 127 129 129 130 133 132 132 133 134 135 139 143 149 147 147 153 149 153 162 168 173 173 185 192 203 220 233 237 246 246 252 252 245 222 192 183 222 166 164 155 173 162 154 153 152 154 155 156 159 161 163 167 168 169 170 171 172 172
 107 105 105 105 104 105 106 107 107 107 114 113 115 112 111 111 119 120 105 110 109 112 113 114 118 120 122 126 131 133 128 126 127 129 132 134 134 136 139 137 137 138 138 139 140 137 140 144 151 146 151 153 162 168 178 188 190 195 211 227 245 250 250 251 252 252 251 242 241 200 219 187 172 160 165 164 158 155 156 154 156 158 159 161 162 165 165 167 168 170 170 171
 105 104 103 104 104 104 106 105 105 109 114 114 113 114 115 111 124 121 112 122 115 116 123 130 132 138 134 138 138 139 137 136 137 137 138 140 142 142 143 142 145 147 143 141 138 139 145 148 148 159 167 170 172 178 183 189 194 201 213 235 251 252 252 252 252 252 252 252 252 239 233 232 181 180 218 185 162 166 159 156 155 156 158 159 158 161 162 164 167 167 168 170
 101 103 103 105 104 103 104 104 106 113 120 115 113 119 117 113 122 121 127 126 123 123 130 136 144 155 150 147 144 145 144 146 146 147 146 148 152 153 149 147 150 150 152 148 145 151 152 155 164 174 177 179 184 190 192 196 199 202 215 237 249 252 252 252 252 252 252 252 252 251 231 221 197 179 204 224 182 180 165 156 156 155 155 157 158 158 160 163 164 165 166 164
 104 104 103 104 104 103 104 106 105 116 124 111 116 119 118 120 117 123 127 126 128 133 137 139 149 159 154 151 149 148 149 150 152 152 152 153 156 157 158 153 152 155 151 154 156 156 160 168 170 177 182 188 190 193 196 198 200 201 206 222 246 252 252 252 252 252 252 252 252 252 240 227 177 183 217 192 199 189 178 161 177 164 154 155 156 157 158 163 163 162 163 164
 103 101 101 103 102 102 104 105 106 123 131 115 111 130 120 118 116 126 132 132 135 141 142 147 147 155 150 149 147 146 148 151 154 154 154 155 155 158 159 158 158 158 159 158 157 161 167 172 174 175 182 189 190 190 193 196 200 199 200 216 235 250 252 252 252 252 252 252 252 252 250 223 182 166 173 194 186 170 151 155 154 178 156 154 153 157 158 158 158 158 160 162
 103 102 101 101 101 102 101 104 109 130 134 118 115 121 123 111 123 134 139 140 141 147 148 148 148 150 146 143 147 146 145 147 154 154 155 157 157 159 159 162 161 158 160 159 157 166 173 177 176 176 178 185 187 186 187 192 197 199 194 202 223 239 251 252 252 252 252 252 252 252 251 221 190 176 171 170 160 158 148 151 149 151 155 152 154 153 154 155 157 157 158 158
 100  98  98 102  99 103 100 102 110 133 140 114 115 115 116 123 140 148 146 143 144 149 149 149 148 149 148 146 145 145 145 148 152 152 156 158 157 156 158 161 161 159 160 162 161 169 172 174 178 177 178 181 181 183 186 187 191 192 188 196 206 225 240 251 252 252 252 252 252 252 252 241 198 191 190 198 162 151 147 151 160 156 153 150 151 152 152 153 152 154 155 155
 100  98  99 100 100 101 100 100 107 126 141 113 120 116 116 140 153 153 148 149 151 155 153 154 150 149 148 145 146 142 141 143 151 152 154 155 154 155 156 155 155 156 157 159 157 161 168 172 174 173 175 178 176 175 178 181 189 187 186 186 192 206 223 243 251 252 252 252 252 252 252 251 226 197 184 160 151 146 145 149 157 162 151 147 148 149 150 152 151 153 153 154
  98 100  98  99 100 100  99 100 102 121 134 114 123 121 125 148 159 154 154 157 157 160 158 157 153 148 146 143 142 141 140 142 146 149 150 151 152 155 154 151 150 155 152 153 153 155 162 163 162 162 167 169 171 172 173 175 177 179 179 179 182 185 199 219 243 252 252 252 252 252 252 252 249 208 193 161 152 146 146 145 150 146 146 145 148 147 148 148 150 152 150 152
  97  98  99  97  98  98  99  99 103 122 133 117 122 122 150 158 177 169 163 162 164 162 160 157 155 147 143 145 143 141 139 140 141 140 142 146 148 149 150 148 149 151 149 150 150 150 150 152 148 144 150 157 166 168 171 173 176 175 172 173 175 178 186 196 221 251 251 252 252 252 252 252 251 230 195 177 150 145 141 143 148 146 145 145 144 145 146 146 148 149 150 150
  96  98  98  99  98  99  99  97 104 124 136 121 125 145 153 175 210 194 175 164 162 162 159 155 151 147 140 138 138 135 138 138 137 138 140 145 145 146 146 145 149 148 147 149 146 145 144 145 143 144 150 155 160 164 167 172 173 170 168 169 170 172 177 184 193 226 239 250 251 252 252 252 251 241 211 171 170 161 146 147 152 164 161 143 142 144 145 146 146 148 148 148
  96  97  97  97  97  98  98  98 105 123 140 127 136 152 161 196 236 211 179 168 162 161 155 150 147 141 136 132 130 128 131 134 138 138 138 142 143 144 143 144 142 145 145 144 144 143 144 146 147 147 152 155 159 161 162 165 164 165 164 166 166 169 172 176 181 202 219 232 244 249 252 252 252 243 212 203 187 177 158 144 152 148 144 142 141 141 143 143 144 144 147 146
  95  95  95  95  95  96  97  97 101 119 132 126 146 157 175 216 237 217 186 170 164 158 151 145 141 136 128 129 127 126 128 129 132 132 134 135 137 139 139 139 142 142 140 144 147 149 149 149 147 148 148 149 154 156 158 158 157 158 159 162 162 165 167 170 176 188 202 220 229 245 251 252 252 246 206 170 174 156 159 143 140 144 141 141 140 140 140 141 142 143 143 144
  94  95  95  95  95  97  98  98 101 120 136 139 159 166 194 230 218 203 188 171 162 153 145 138 136 127 125 123 123 124 125 122 128 129 131 135 138 141 143 145 144 145 145 148 147 147 146 148 146 146 145 146 147 151 153 153 151 154 153 157 157 161 165 167 170 175 188 207 223 238 250 252 252 248 234 163 157 158 142 139 137 139 140 138 139 139 140 141 141 140 142 142
  94  94  94  94  95  96  95  98 100 119 140 144 162 175 208 219 207 192 188 171 157 145 139 135 132 124 123 118 118 120 121 123 127 129 132 135 137 140 141 143 142 142 146 145 143 142 144 145 145 146 148 146 143 146 147 148 150 150 152 152 150 156 158 162 164 170 179 190 206 231 248 250 252 248 246 171 144 144 139 136 136 135 138 137 137 137 138 139 140 139 139 141
  93  94  93  94  98  96  95  96  97 120 135 150 161 186 214 207 199 187 183 167 150 141 135 128 122 120 119 116 117 118 120 121 124 128 133 132 130 137 141 143 143 142 141 142 140 141 143 145 147 148 147 146 146 144 142 145 146 148 147 147 149 150 159 162 164 167 171 182 199 222 239 247 250 246 223 174 145 141 134 132 132 136 139 136 136 134 134 136 138 138 137 139
  92  93  93  96  94  93  95  95  96 116 128 146 156 192 210 206 192 179 174 160 147 136 127 124 119 118 116 117 117 120 120 120 122 128 129 129 129 138 142 142 146 144 143 143 142 143 146 146 147 148 149 147 147 146 147 146 148 147 149 152 152 153 156 159 161 165 169 176 191 211 230 238 238 242 218 210 161 137 132 136 131 132 132 132 131 134 133 134 134 134 134 136
  92  93  94  94  93  92  94  95  98 127 121 145 162 190 202 196 181 171 168 156 143 131 125 120 114 115 117 115 114 117 119 118 121 122 125 130 133 139 142 141 144 146 145 143 145 145 145 146 145 145 147 147 147 149 150 149 151 149 149 151 155 155 154 156 158 160 166 169 181 201 221 238 233 232 204 194 158 139 132 131 130 131 130 130 131 132 132 133 132 134 133 134
  89  92  94  93  92  92  92  95 102 129 114 142 162 184 195 189 175 167 163 154 143 128 124 120 117 117 117 119 120 123 123 123 127 129 133 135 135 137 138 141 142 143 142 144 143 146 146 145 151 149 152 155 156 156 157 156 154 154 152 155 156 157 155 153 157 156 159 164 174 192 208 228 229 223 202 210 156 141 138 139 138 131 128 130 128 129 131 133 133 133 131 131
  90  91  92  92  90  91  92  96 104 119 108 135 165 178 179 179 168 166 159 149 138 126 122 122 121 120 120 124 125 125 127 127 129 131 135 137 135 136 138 139 141 142 144 148 151 152 151 153 154 154 159 158 157 157 158 157 157 156 153 159 158 158 158 155 157 156 157 160 169 182 199 220 228 220 202 188 159 168 179 184 154 130 128 127 126 128 128 129 130 131 131 129
  88  91  92  89  90  91  92  98 104 116 111 139 164 171 171 171 165 157 154 147 140 129 123 122 119 122 122 125 129 128 129 130 131 132 135 137 138 138 141 145 148 147 146 148 153 155 153 152 156 155 157 157 157 159 158 157 158 159 160 159 158 157 158 156 157 156 158 161 168 176 191 207 220 220 201 176 152 144 142 134 166 142 127 126 125 127 127 126 128 129 129 128
  89  89  92  91  90  91  91  94 102 104 114 140 161 166 166 165 159 154 151 148 142 128 122 122 121 124 126 126 128 128 130 134 135 135 136 136 137 138 142 146 148 148 150 147 143 145 148 150 154 156 158 159 160 160 160 159 159 159 157 158 158 159 158 155 157 156 156 160 167 173 183 203 215 214 202 183 168 142 128 127 127 135 128 125 126 126 126 125 126 126 127 129
  87  87  88  92  89  89  91  93 100  94 103 132 157 159 161 159 155 152 150 147 137 126 121 122 124 124 126 125 127 129 131 134 135 136 139 138 137 138 140 143 146 147 146 144 141 142 147 152 154 157 158 161 162 161 161 161 160 158 157 154 156 158 158 156 155 156 156 161 165 173 184 199 207 207 198 170 137 135 123 125 125 123 125 123 124 124 125 125 125 126 127 125
  88  88  90  90  89  89  90  90  97  97  99 122 148 156 160 157 156 154 149 144 135 125 123 121 123 124 125 126 128 130 134 136 137 139 139 135 138 139 140 142 144 145 144 144 144 145 146 150 151 156 158 161 163 162 161 160 157 158 158 159 158 159 157 157 156 155 156 159 165 173 179 191 204 203 192 162 132 122 122 121 123 121 122 122 121 120 123 121 124 125 122 124
  87  89  88  89  89  89  90  90  92  99  99 122 146 149 152 152 155 153 149 146 138 129 122 122 124 124 123 126 129 128 132 135 134 136 136 138 140 140 140 141 144 143 145 146 144 146 144 147 149 153 157 160 161 160 158 157 155 154 154 154 158 159 156 156 155 156 156 161 168 174 174 188 200 201 184 158 134 122 120 119 119 119 120 121 119 118 120 119 120 122 122 122
  88  88  89  88  88  88  88  88  90  94  95 117 144 145 147 150 153 152 149 149 140 131 122 120 120 121 122 124 126 126 127 130 129 131 132 132 134 136 137 139 140 140 142 142 143 142 144 143 145 150 152 154 157 156 154 153 152 151 151 153 157 157 155 156 157 158 163 167 168 173 179 183 194 202 176 164 142 123 121 120 119 118 118 119 119 118 120 118 119 120 121 120
  87  87  89  89  88  88  88  89  90  92  89 110 130 141 142 145 149 150 148 147 137 134 125 120 120 122 124 122 123 123 123 125 127 126 126 126 125 128 131 132 135 137 138 136 135 136 138 141 143 146 145 148 150 150 149 147 147 147 151 156 158 156 157 160 159 160 165 170 177 180 181 183 189 196 170 156 140 121 119 119 118 117 118 119 118 118 118 119 118 119 119 119
  88  86  88  88  88  88  89  88  91  92  85 106 128 141 139 142 148 148 148 149 142 135 126 123 126 124 125 125 126 123 122 122 123 122 123 121 121 125 126 128 130 131 132 133 132 132 133 135 138 138 139 139 142 142 144 144 148 150 153 157 157 157 158 163 166 173 178 179 188 190 189 185 190 196 160 142 125 118 118 119 118 116 116 118 118 118 118 118 117 117 117 118
  88  89  87  87  87  87  88  90  90  87  83  98 126 142 140 142 153 151 147 144 144 136 133 130 130 130 130 127 127 127 123 120 118 117 119 117 116 118 120 123 127 129 129 133 134 129 129 132 130 129 128 127 134 136 140 143 148 153 155 156 157 154 156 163 166 176 182 192 201 201 197 192 193 199 151 150 121 117 116 115 116 116 116 117 116 116 116 118 118 117 117 117
  88  87  87  87  86  88  90  89  89  89  84  98 129 147 141 141 149 149 149 151 149 142 136 132 130 127 124 124 124 123 118 112 107 102 106 109 106 108 113 118 121 124 123 126 130 126 124 122 124 122 116 113 121 124 131 139 143 146 143 146 144 146 148 156 158 171 177 197 215 214 207 198 196 203 145 137 124 116 117 116 116 117 117 116 117 116 116 116 114 117 116 117
  87  86  86  89  86  87  88  90  90  90  87  96 129 144 140 140 149 150 152 158 151 141 133 124 118 116 111 106 102 102  97  97  94  88  89  95  94 100 104 110 115 117 118 121 123 121 120 115 118 115 112 110 110 114 120 127 134 134 130 128 129 130 136 134 139 157 166 186 209 226 221 210 201 203 144 132 119 116 116 116 117 115 115 115 114 116 116 116 115 116 116 116
  87  88  87  88  87  87  90  90  89  89  83  88 119 142 142 143 153 155 159 158 149 134 118 111 103  94  88  88  83  82  84  84  86  81  85  87  87  93  95 102 107 111 113 117 120 118 115 111 110 108 107 106 105 106 107 108 112 113 115 118 116 117 116 116 122 129 134 145 174 203 228 216 210 194 143 123 117 116 116 116 115 116 116 116 116 116 116 116 115 114 115 113
  86  87  87  88  88  88  89  88  90  88  81  77 117 144 144 147 157 158 162 153 133 115  98  87  80  77  73  72  72  69  73  78  81  76  77  81  84  84  90  93  98 102 106 109 114 115 109 106 103 103 100 100  98  97  96  94  93  94  96  96  95  98  96  98 103 109 113 119 133 154 196 216 219 203 139 120 117 117 118 116 117 114 116 116 115 115 115 115 117 116 117 116
  87  87  88  87  89  88  89  89  88  88  84  78 106 141 145 149 154 157 153 123 100  89  85  76  75  74  71  70  70  69  68  73  77  75  74  75  78  78  84  87  92  98 101 106 110 111 107 103 100  96  95  94  92  91  87  87  85  85  84  84  90  93  96  98 102 106 106 108 114 133 188 212 227 211 144 128 131 146 132 123 121 119 120 120 121 120 120 120 121 119 121 119
  86  87  89  88  89  89  90  89  90  93  88  79 101 140 147 150 153 148 130 111  92  85  87  85  79  80  81  80  81  80  79  78  78  78  77  77  77  79  83  85  89  93  97 104 106 108 103  99  97  91  93  93  89  88  86  87  86  87  89  94  97  99 100  99 102 107 107 108 113 122 148 202 228 229 156 188 244 251 211 138 125 121 121 122 121 120 122 122 119 119 120 121
  88  88  90  90  91  91  91  93  96  93  92  85  94 143 151 150 153 137 118 103 100  96  95  93  87  84  84  84  81  84  84  82  82  82  81  82  82  82  84  86  87  90  93  99 104 106 101  99  95  91  92  91  87  88  91  92  94  95  95  94  94  93  98 100 102 106 109 110 109 115 132 182 225 234 205 188 189 205 229 167 127 122 120 120 122 120 120 122 120 120 120 118
  96  96  96  98  99 101 100 105 104 103 102  92  92 139 149 148 144 121 107 105 103  99  96  92  90  86  83  84  82  81  81  79  79  77  78  80  81  82  85  88  88  90  92  96 104 106 102  99  94  93  93  92  91  90  88  87  84  79  78  78  77  81  90  93  99 104 105 106 108 112 128 169 221 236 189 159 145 145 166 174 125 120 119 118 120 120 121 119 120 119 118 119
  99 100 101 100  99 103 124 128 118 101  98  99  90 139 148 144 134 119 110 107 100  97  93  89  86  81  78  75  69  64  64  62  61  61  65  70  73  77  80  85  88  91  92  95 101 104 106 102  94  93  90  86  85  84  74  73  73  74  75  76  77  78  81  85  86  90  97 102 106 114 126 164 214 240 168 135 126 127 128 144 122 118 120 120 119 120 119 117 119 118 117 118
  97  98 100 101 101 119 142 114 106  96  96 103  93 132 150 144 131 120 111 103  95  93  88  78  73  71  68  68  66  64  61  62  57  57  56  57  63  66  72  79  85  90  90  95 101 106 106 102  94  92  86  80  74  72  72  74  76  76  73  69  68  70  74  83  86  89  93  97 103 110 124 164 208 236 153 116 115 118 127 128 118 118 118 117 118 117 117 117 118 118 118 118
  98  98 100 101 102 113  94  84  84  89  93  99 103 138 149 143 131 121 110  99  90  84  77  75  77  78  74  70  65  58  51  48  48  53  56  58  58  60  66  74  82  88  92  98 105 111 109 102  94  86  79  70  69  73  75  78  78  83  72  62  54  54  63  70  84  89  90  92  99 105 119 162 205 237 139 110 111 112 127 122 117 118 118 115 117 117 118 117 117 117 118 116
 100 100 100 100 105 103  75  66  65  70  84  95 100 138 150 144 130 115 107  95  86  79  77  82  82  77  68  66  55  47  38  36  45  49  54  53  57  60  62  71  79  86  96 103 108 118 118 109  96  84  71  74  70  67  69  76  87  86  72  60  52  52  62  74  83  82  87  91  96 105 122 153 201 238 139 114 110 109 132 121 116 117 116 115 116 116 116 117 116 116 115 116
  99  98 101 101 103  97  71  62  63  68  81  86  95 127 151 144 129 118 106  93  84  78  79  76  80  73  81  83  54  47  39  38  44  49  57  49  50  55  66  68  75  86 100 107 117 123 124 120 100  80  73  72  62  58  60  72  86  95  77  64  58  64  62  79  80  85  88 100 103 113 127 152 195 232 141 114 110 111 130 117 115 116 115 115 116 116 115 116 116 115 114 114
  98  98 100  99 101  94  71  61  63  67  79  82  91 119 151 142 131 119 107  93  84  81  85  86  75  80  92  94  69  50  44  47  47  53  53  49  52  58  69  69  76  90 106 117 126 132 134 131 111  81  74  72  70  66  67  67  75  87  86  72  68  70  75  90  93  95  99 107 118 125 135 153 187 226 128 115 115 122 124 115 115 115 116 116 115 115 115 114 116 114 114 113
  99 100  99 100 101 104  74  60  63  76  92  96  81 100 150 144 132 120 110  98  92 101 112 106  89  81  82  89  84  60  48  48  52  54  57  54  57  62  67  71  80  93 111 121 129 137 143 140 125  90  73  71  70  70  70  70  71  74  76  75  73  77  89  93  95 104 110 116 125 134 140 153 182 219 119 110 121 133 119 116 114 115 113 114 115 112 114 115 114 113 114 114
  99  99 101 101 100 104  84  63  62  86  96  86  70  74 149 143 134 120 113 107 108 119 129 121  97  84  75  72  70  67  59  60  62  57  58  57  57  61  69  79  87 100 116 128 133 141 148 148 136 107  78  72  68  69  71  74  74  77  78  79  82  85  90  95 100 109 118 127 134 138 144 155 177 202 104 106 124 135 117 115 114 113 114 112 114 112 114 115 114 113 111 112
  98  98 100 102 100 100  99  77  66  89  92  82  70  68 139 146 138 129 123 117 119 126 131 124 107  93  80  76  71  68  68  67  64  62  58  56  59  66  81  88  96 109 122 132 135 139 151 152 143 129  93  78  71  68  70  72  76  80  84  88  91  94  98 100 104 117 127 134 141 143 145 156 184 183 101 110 131 130 115 113 112 112 114 112 112 111 112 112 112 112 112 112
  98  97  99 100 102 102 102  92  71  87  89  75  64  67 126 145 139 134 129 125 125 125 126 118 106  95  88  84  81  75  72  69  65  62  61  62  69  81  87  95 103 115 127 135 136 138 147 150 145 138 117  91  80  76  69  73  76  80  84  89  94  95  95 101 112 125 135 139 143 142 146 157 188 168 121 124 133 118 112 112 112 111 112 111 112 112 112 111 111 111 112 112
  98 101 100  98  99 101 101 101  83  84  88  70  61  66 118 146 140 137 133 132 127 121 120 112 103  97  92  87  85  80  74  70  68  67  67  71  82  88  91 101 111 118 128 132 133 137 140 146 144 140 130 106  89  84  78  77  77  79  84  90  92  95  97 106 118 131 137 139 140 141 142 154 188 170 138 125 133 117 112 111 111 111 112 111 111 110 111 110 110 110 110 112
  99  98 100 101 100 102 100 101  97  82  88  69  57  59  96 147 145 136 134 131 125 120 117 111 107 103  93  89  86  81  75  71  70  69  72  83  89  92  97 104 113 120 124 128 133 139 141 141 138 137 134 118 102  93  87  85  81  78  83  87  92  92 100 110 122 131 135 137 138 136 140 150 191 154 117 133 127 113 110 110 110 110 111 111 111 110 111 110 110 109 110 111
  98  98  99  99 101 100 101 102 100  91  92  81  67  60  84 147 145 135 136 129 119 116 113 105 105 103  98  92  86  84  80  74  73  76  84  87  90  93  98 104 112 118 121 127 135 143 141 137 134 131 132 127 112 102  97  93  88  83  84  86  90  98 108 119 126 128 130 131 132 131 136 158 190 166 147 144 109 108 109 110 109 110 111 110 110 109 110 110 110 110 110 110
  98  96  97 100  99 100 101 100 102 100  92  90  88  93 106 142 146 134 134 125 117 109 107 102 100  97  94  91  86  83  81  84  85  85  87  89  92  94 102 106 114 118 124 126 135 142 141 139 133 133 131 129 118 108 102 100  95  95  89  90  96 104 110 120 124 126 124 124 124 124 132 162 180 158 161 141  95 102 109 109 108 109 110 109 109 109 110 109 111 110 109 108
  97  98  99 100 102 101 102 101 104 102 104  89  83 101 119 138 145 134 129 117 111 108 105 101  96  93  92  90  87  84  86  88  91  89  92  94  95  98 102 108 118 122 125 131 137 141 143 141 138 132 129 128 118 111 106 105 104 104 103 101 104 110 114 118 116 119 119 118 119 120 128 168 182 152 150 131 110  98 109 108 110 107 108 109 109 109 107 108 111 110 110 108
  97  98 100  99  99 100 100 102 102 101 104 104 107 122 122 128 145 132 123 111 109 103  98  98  95  92  92  90  85  88  90  92  92  92  94  95  96  99 104 114 121 126 130 131 138 146 146 142 137 134 130 125 117 108 107 108 109 109 108 109 110 113 117 118 117 112 116 116 117 117 127 172 169 146 118  93 112 103 107 108 108 108 109 107 108 108 106 107 110 109 109 108
  97  98  98  98  99  98 101 101  99 100 101 109 130 120 114 118 144 131 122 111 103  96  94  95  95  90  91  89  90  91  90  93  94  92  92  92  93  96 108 125 131 132 131 133 139 148 148 140 137 132 129 124 110 103 104 107 110 114 116 117 119 120 122 120 119 115 114 115 115 115 124 178 148 132 106 100  92  88  98 106 107 107 107 106 106 108 108 107 108 107 106 106
  97  95  98  99  99  98  99  99 101 101  99 102 113 107 107 109 138 133 120 110 100  96  93  92  92  90  88  90  91  91  93  93  93  93  91  90  91  95 118 137 139 138 138 138 146 151 151 144 139 136 131 126 106 100 104 105 112 116 119 118 119 119 121 121 118 118 117 112 115 115 135 162 132 111 114 116 100  93  98 106 108 107 106 107 106 107 107 107 106 106 107 107
  94  96  98  98  97  97  99  99  97  98 100  98 104 104 102 102 122 132 121 113 100  92  91  92  92  90  91  91  89  91  93  92  92  89  87  87  88 101 136 153 148 140 139 139 143 146 145 148 146 140 135 131 107  93  98 106 111 116 119 121 120 122 121 119 120 121 120 116 114 113 138 146  94  80  88  98  96  93 102 104 105 106 105 104 105 104 106 105 105 105 106 107
  94  95  96  95  97  98  96  97  96  98  97 100  98  99 101  97 109 132 123 112 105  95  91  94  92  93  92  94  91  92  94  92  93  90  87  85  86 108 156 166 157 146 139 132 135 141 145 147 145 140 137 135 117  91  93 103 108 114 118 119 124 122 119 118 120 118 120 116 115 117 144 120  87  78  80  73  72  80 100 103 104 104 105 104 105 104 105 104 104 105 105 105
  94  96  97  96  96  95  95  95  96  97  95  93  56  41  52  86  90 125 126 117 107  96  92  91  91  94  92  93  94  96  94  93  92  88  84  81  82 124 158 169 156 146 136 129 129 131 133 139 143 139 136 135 128  95  93  96 105 110 115 117 121 122 119 120 119 118 119 118 116 124 144 114  87  85  85  72  59  71 102 104 103 103 102 103 103 104 104 103 105 102 103 103
  95  95  97  97  96  96  95  96  96  95  84  47  27  28  28  35  50  94 124 116 107  98  96  92  94  92  94  95  96  96  97  93  91  86  83  80  80 123 143 149 136 131 125 122 119 123 128 128 136 139 136 133 127 104  97  96 103 110 115 120 118 120 118 118 119 119 121 121 121 130 144 103  87  87  90  70  55 176 119 104 104 102 102 102 102 101 101 102 103 102 101 102
  94  94  95  95  95  96  96  97  94  91  43  31  26  26  26  26  28  60 122 116 106  98  97  92  94  95  96  97  98  98  98  94  92  86  83  79  82 116 123 127 121 116 115 113 111 116 119 125 133 134 131 125 120 110 105  99  98 107 111 116 117 118 117 118 119 119 120 121 123 140 138  78  64  67  77  74  69 210 189 114 103 101 101 101 102 101 102 101 101 102 101 101
  93  93  95  95  94  95  96  94  87  45  31  25  25  24  23  24  26  34 118 118 106 103  98  96  96  96  98  98  97  98  98  95  93  88  83  82  83 110 113 113 109 102 106 105 105 108 110 115 120 124 120 112 111 113 115 111 105 110 113 115 120 122 121 123 119 117 118 121 127 140 112  62  60  66  75  69  91 222 226 117 104 100 101 101 100 100 101 102 102 100  99 101
  94  94  93  94  93  94  95  89  41  30  27  25  24  21  21  25  24  30  92 119 111 106 101  99  99  99 100  99 101 101 101  97  92  86  86  86  86  90 102 105 101  95  95  95  94  94  97 104 110 112 106 104 120 125 125 124 117 112 117 117 120 124 120 119 120 116 115 118 123 143  88  61  63  60  64  66  89 147 134  87  80  81  89  92  89  90  97  97 110  94  98  98
  95  93  92  93  93  93  93  74  33  31  24  23  24  24  28  31  30  28  65 120 114 107 103 101 102 104 102 103 105 105 103  98  92  87  89  87  87  85  86  87  93  93  86  85  87  86  88  92  98  95  81 106 130 132 133 128 123 119 117 122 123 123 121 121 122 119 118 118 126 136  71  51  47  46  47  47  49  56  58  53  49  47  48  48  49  49  50  49  49  50  90  96
  93  93  94  92  94  92  92  74  39  33  24  24  29  37  46  46  38  28  43 117 119 110 108 107 103 106 110 110 108 109 104  96  92  91  90  88  88  88  85  84  80  88  85  84  82  83  84  85  85  73  68 107 130 134 136 131 127 124 122 125 128 128 125 124 121 120 117 117 124 129  64  52  48  48  48  47  48  47  47  47  48  47  46  46  46  45  44  45  45  44  87  96
  92  93  92  93  91  91  92  88  68  35  37  38  48  55  56  54  43  29  27  99 120 113 110 111 111 112 115 115 115 111 104  95  94  95  92  88  87  84  80  79  77  76  82  83  81  83  82  77  71  63  69 101 125 128 130 128 124 124 125 125 125 127 126 123 119 118 117 116 127 106  58  51  47  47  47  48  45  46  46  46  46  46  45  44  43  43  44  44  44  42  83  95
  91  91  92  91  89  92  91  91  90  62  59  59  60  61  56  52  46  36  29  70 123 115 112 112 115 117 118 118 119 110 101  99  98  95  91  84  84  79  73  70  68  70  73  72  73  75  72  69  62  61  68  88 106 109 117 120 116 119 122 123 124 125 127 121 119 116 114 119 134  87  52  50  47  46  46  47  46  45  46  45  45  45  46  44  44  44  43  43  42  41  81  95
  90  90  91  90  90  90  90  90  91  74  57  62  63  58  44  40  43  40  34  53 112 119 114 118 118 116 123 124 119 106 100  97  97  90  84  81  77  73  70  62  64  66  69  71  71  71  67  64  61  60  69  80  86  98 105 103  99 102 106 117 121 124 126 124 120 116 118 124 128  69  52  47  47  46  45  45  45  44  46  45  44  43  44  44  45  43  44  40  42  39  79  95
  89  88  89  88  88  90  89  90  91  75  46  47  54  40  39  40  47  42  35  49 102 122 119 121 122 123 123 122 116 107  96  89  90  84  77  71  73  72  65  59  57  62  63  66  66  69  64  62  61  64  69  74  77  86  94  91  83  77  85  97 113 121 126 124 119 120 118 128 127  59  50  47  46  45  45  45  45  46  46  43  44  43  43  43  43  44  41  40  41  41  76  94
  88  86  89  88  87  89  88  87  89  82  57  50  53  45  47  50  49  41  35  64  98 121 120 121 123 123 124 122 117 109  87  76  76  73  69  66  69  68  63  59  52  57  62  63  62  64  61  60  63  66  66  66  69  77  83  79  74  62  64  76  90 112 124 124 116 113 118 132 132 112  58  49  47  46  44  45  45  45  45  44  43  43  44  42  42  40  41  40  40  39  76  93
  89  90  91  90  90  91  90  89  88  85  69  67  64  57  62  58  50  39  34  71  90 125 118 120 124 124 125 123 116  99  83  73  68  64  60  67  64  58  62  51  54  57  61  59  63  62  59  60  68  69  66  68  69  68  71  72  67  62  55  62  79 107 121 122 113 103 116 129 112  97 140  71  46  47  45  45  43  43  42  44  45  41  41  41  41  41  39  40  40  39  72  92
  92  91  90  86  84  84  82  82  80  78  76  75  73  70  68  62  42  32  36  48  83 113 120 119 123 124 126 123 108  90  80  67  63  63  62  63  60  54  52  51  60  60  57  58  60  58  55  57  72  74  69  70  70  64  66  72  70  68  62  73  86 109 124 126 114 101 115 113  82  89  98 124  91  50  47  45  44  43  43  43  43  42  40  40  39  38  39  39  40  39  73  91
  89  72  69  68  64  65  61  60  59  59  59  55  55  57  55  52  29  27  38  43  68 106 122 118 123 123 124 125 107  84  74  60  59  56  60  61  63  55  54  58  61  62  64  60  56  52  55  59  68  76  74  78  76  72  67  66  68  72  71  80  92 105 120 126 116 106 122 113  72  68  79  95 122 108  53  45  42  44  45  44  41  41  41  41  40  39  41  40  40  38  69  90
 111  50  52  58  57  56  53  55  53  53  52  51  51  52  52  48  25  33  40  46  54  83 110 110 123 126 125 124 111  93  78  70  67  64  67  72  70  65  64  66  65  69  69  68  61  57  62  70  71  73  74  75  64  58  51  58  67  69  71  74  84  93 107 119 114 106 111 105  67  67  65  81  86 126  96  50  46  45  45  44  43  42  42  41  40  40  40  40  39  38  73  89
 119  64  47  52  54  54  53  53  50  49  50  49  50  50  51  47  31  39  43  39  35  53 108 109 113 123 123 118 104  91  82  80  71  60  52  51  55  58  60  61  65  68  70  70  69  70  69  69  68  61  54  48  52  54  59  70  72  71  73  75  82  93 102 110 105 108 112 100  59  53  56  67  79  99 141  67  52  46  46  45  43  43  43  40  39  40  39  40  37  37  66  87
  52  47  47  45  47  51  52  53  50  50  50  49  49  50  50  49  38  41  40  29  24  36 105 110 110 116 123 118 103  85  77  73  66  60  57  52  50  47  49  44  46  48  51  56  56  56  55  50  49  48  52  56  66  70  76  79  75  78  79  82  82  92 103 102 103 102 104  87  58  53  47  52  74  77 162 173  74  59  55  51  51  48  45  40  41  40  39  39  40  38  62  88
  48  47  48  46  46  47  49  52  49  51  50  50  51  51  52  51  38  37  25  22  26  82 109 106  99 110 119 118 101  81  72  73  69  68  70  68  64  60  63  62  60  53  46  47  45  47  49  51  55  60  68  73  81  89  88  86  81  88  87  85  83  87  96  94  91  90  89  77  49  44  45  49  58  74  81 199 236 251 234 240 148 107  51  47  45  42  41  39  39  37  64  87
  47  47  48  47  48  47  50  53  52  50  52  52  52  52  54  51  24  22  20  23  58 155 102  92 102 108 116 114  95  83  75  74  75  77  79  80  80  77  72  69  67  65  57  56  55  55  55  60  65  70  75  82  91  95  94  95  96 100  97  86  80  80  87  86  80  75  96  83  54  44  42  46  51  63  71 171 233 250 227 214 200 190 203 123  50  47  45  41  40  38  64  88
  47  48  48  48  49  48  50  51  55  52  53  56  56  56  56  51  22  19  21  21 115 130 106  77  93  95 104 107  92  83  76  75  78  81  85  86  85  81  82  77  71  68  65  63  64  64  63  68  71  76  86  87  90  97 102 103 102 101  91  81  75  74  76  75  74  69 104 100  66  47  41  45  48  53  67 125 237 240 246 225 231 156 195 194 222 111  55  48  42  38  62  88
  49  51  51  49  50  49  48  48  50  59  57  59  61  58  60  55  24  21  23  54 174 108  94  79  72  88  93 103  94  81  72  71  76  81  84  85  85  87  82  83  77  74  73  73  73  72  72  76  80  81  86  85  93  99 106 104 105  98  84  68  64  60  60  66  62  71 108 135  76  53  46  42  42  49  54  75 189 231 247 244 218 145 110 140 172 226 215 125  57  42  64  89
  52  54  52  51  51  49  47  48  50  54  67  67  62  62  64  59  23  24  23 108 116 100  82  78  63  69  77  97  92  76  66  69  70  76  83  85  86  87  86  86  81  78  79  76  73  74  74  72  76  78  84  87  94 100 104 103  97  90  76  65  59  53  55  55  54  68 123 152  97  58  50  45  42  41  48  69 190 223 230 223 203 180 126 160 131 180 165 229 194  94  65  90
  62  58  56  53  48  45  47  49  52  58  60  67  74  71  66  63  56  96 176 112 143  65  66  84  60  58  75  87  87  74  64  62  62  67  79  86  87  86  83  84  76  75  72  64  65  62  60  59  64  69  79  85  89  93  97  94  83  73  65  57  51  49  51  49  51  76 129 162 106  66  54  50  47  44  44  57 101 211 223 225 232 204 136 104  96 103 128 139 202 215 164 129
  68  58  52  48  42  39  43  50  57  59  63  65  66  72 111 167 153  86 114 119 142  52  49  98  58  49  60  78  82  70  58  54  56  59  68  80  84  82  81  80  75  70  64  55  50  51  49  53  57  65  73  81  87  93  97  89  71  64  61  53  47  46  47  48  53  88 136 164 115  79  58  52  50  50  49  50  95 227 218 224 241 185 171 111 151 112 146 128 185 159 239 207
  55  42  50  45  41  48  56  58  63  63  66  70  88 170 110  88  74  66  99 100 133  45  34 105  66  54  47  63  76  67  53  53  55  54  60  68  74  75  78  71  70  65  59  51  48  45  47  48  54  61  74  83  90  96  97  86  68  57  55  48  45  44  48  51  58  96 136 158 118  90  64  52  51  51  48  52  79 180 217 214 232 201 216 139 137  88 106 125 137 188 225 222
  39  41  45  46  55  58  56  58  65  79 135 193 131 138  96  72  69  68 111 136  98  37  29 114  92  55  51  59  66  62  52  49  50  50  55  61  69  71  73  70  71  67  59  51  49  46  47  50  57  64  80  94 102 100  94  85  63  54  52  46  42  42  43  52  74 114 137 152 117 101  73  56  52  50  50  50  92 171 191 208 217 244 186 156 128 136 124 152 148 228 172 239
  58  47  56  60  57  57  62  93 165 190 181 184 150 131  97  77  85 111 115 114  80  35  32 102  94  73  54  52  56  57  50  46  49  48  50  52  58  65  71  72  72  67  64  60  53  50  54  64  68  71  86  99 105 100  85  74  59  48  45  42  40  40  45  49  83 110 133 144 113 108  82  58  52  51  49  51  79 128 204 149 206 227 155 219 144 159 102 128 144 162 183 228
 125 138 119  81  55  95 175 180 206 173 158 134  93  92 151 132 156 110  93  83  68  34  30 100 111  92  56  48  54  55  50  48  51  45  46  48  50  58  66  71  74  70  74  70  62  61  67  80  79  85  93 101  98  88  77  68  52  47  41  38  38  38  46  57  97 114 128 134 110 110  92  64  54  52  51  51  99 127 206 198 170 217 233 200 133 137 106 106 148 147 223 205
 114 126 123 154 149 188 216 163 192 124 108 134 154 156 207 110 129  96 122  65  51  33  30  84 119 109  74  49  44  46  46  46  48  44  44  43  46  56  62  65  69  73  76  73  68  69  74  89  92  85  90  98  92  84  77  64  50  43  40  36  35  38  47  68 105 117 124 123 109 110 100  72  53  51  50  53  78 136 198 177 178 208 229 180 192 144 141 124 172 156 206 143
 132 161 200 177 178 175 226 136 208 169 142 141 141 145 157 140 200 102  70  56  43  30  27  68 118 113  86  59  38  35  38  42  45  44  42  44  49  54  54  60  67  76  75  71  68  71  82  89  88  81  84  90  93  84  71  56  45  39  37  39  36  38  48  84 109 119 120 119 108 108 107  80  56  50  51  52  79 155 181 208 185 160 222 185 206 101 113 108  95 124 139 177
 212 177 205 191 202 152 191 123 186 140 117 179 146 177 101 172  82 123  63  54  39  28  25  50 115 114  95  69  41  32  33  39  37  36  39  42  46  49  51  60  65  72  73  70  67  72  79  85  80  75  80  80  85  79  62  47  40  36  35  37  36  41  68 102 110 111 115 112 108 109 110  83  57  51  51  51  59 149 186 195 191 203 187 201 149 137 127 131 102 162 127 179
 230 182 198 163 159 150 151 117 160 161 179 198 118 161  85 124  70 124  47  53  37  26  26  47 103 110 102  75  43  35  36  34  35  34  36  42  43  44  51  57  64  70  72  65  62  67  76  78  76  72  72  75  72  65  56  45  41  36  34  36  38  54  94 108 110 112 111 107 107 106 107  88  60  53  51  49  58 148 181 204 214 187 205 226 162 178  98  90 100 149 143 164
 215 190 166 122 151 130 207 106 116 137 148 132 128 119 124 104  56 111  55  59  36  27  25  43  84 109 107  88  59  39  35  31  34  34  36  36  41  42  49  55  59  66  60  54  59  64  76  80  71  67  64  64  60  53  45  39  36  34  34  36  39  77 102 106 107 108 108 107 107 106 107  90  64  52  52  52  60  94 192 199 187 218 193 188 129 121  91 141 153 161 224 126
 199 163 178 168 157 194 128 177 143 144 147  60  74  68 128  51  72  91  65  52  39  28  24  37  72  95 103  95  72  51  37  31  30  34  34  36  38  41  44  48  51  54  50  49  54  62  67  67  68  57  54  53  48  46  42  38  35  35  35  41  68  94 104 105 104 106 105 106 107 106 107  92  66  52  50  51  60  89 198 185 204 186 186 213 181 108 147 113 217 131 176 115
 197 208 160 141 138 142 183 186 159 178 123 127  87  98 118  48  88  56  66  53  43  27  23  34  64  80  95  93  84  71  41  33  31  34  29  33  38  34  38  42  43  44  44  47  49  55  56  55  54  47  45  43  40  37  37  38  32  36  38  56  92 101 104 103 102 104 105 106 106 106 106  93  68  53  49  48  59  54 173 192 164 205 205 188 205 100 162 133 196 183 144 117
 154 124 154 127 158 163 188 167 169 155 120  96  74 110 108  44  90  91  71  54  42  28  23  30  52  70  80  91  88  78  66  47  36  30  30  32  30  30  33  34  36  34  37  41  39  44  47  46  41  38  37  36  33  33  35  36  39  44  65  83  98  99 101  98  99 100 103 104 104 107 108  93  69  52  49  49  63  78 171 209 218 178 180 212 215 167 142 181 129 167  93  88
 137 175 149 199 104 175 173 172 181 119 101  58  93 117  63  56  80  66  50  53  44  33  24  28  44  63  69  80  84  84  77  68  48  33  35  32  31  29  28  30  30  28  29  31  32  34  37  38  33  33  31  34  31  33  39  53  62  70  84  90  96  96  95  96  99  98 101 102 102 109 106  93  70  53  49  50  61  71 105 192 187 206 221 196 180 199 123 205 135 160  96  88
 130 106 129  93 162 157 162 200 115 119  82  97 114 139  71  44  97 120  45  55  44  34  24  28  38  56  69  73  79  85  85  77  73  66  50  40  34  33  30  29  27  29  28  29  30  33  35  38  35  32  31  35  38  47  63  76  79  84  89  91  95  94  94  96  97  98 100 100 102 109 108  91  69  53  50  51  64  98 115 231 218 200 186 193 219 236 147 157 110  97  92  70
 129 127 135 194 148 129 200 114 130 108  80  73 128 106  37  53  81  64  38  50  45  37  24  26  34  48  64  69  73  81  82  84  83  80  76  72  62  54  38  38  36  36  33  33  37  40  40  40  43  40  43  51  53  69  80  82  86  89  92  91  95  95  96  96  96  98  99 103 105 107 107  92  70  55  50  51  66  85  67 166 179 200 217 213 215 193 186 148 168  98 111  83
 123 126  99 121 119 221 108 123 120  58  71  83 142 126  62  70 135  90  44  51  47  39  27  26  33  43  55  66  68  72  77  83  85  86  85  85  82  75  66  72  67  67  69  67  67  63  62  67  64  67  61  66  70  81  84  85  88  89  92  94  93  95  96  97  99 100  98 103 107 109 108  93  73  54  50  52  71 108 118 210 218 206 182 204 202 205 229  83  95  78  92  64
