P2
# Generated by OpenCV 3.4.0
92 112
255
 110 111 110 111 112 111 112 112 113 114 112 111 112 114 114 114 115 114 115 115 115 117 116 116 116 116 118 117 117 119 120 120 120 120 121 122 124 124 128 135 135 133 136 136 136 138 135 142 136 143 138 138 141 145 146 141 141 144 144 146 147 151 148 151 152 155 156 157 161 161 163 165 169 170 172 173 175 178 178 182 186 186 191 192 193 196 201 204 208 211 213 215
 111 112 109 110 111 113 111 112 113 113 114 113 113 113 115 114 114 113 116 115 116 115 116 116 117 117 117 118 119 123 122 121 122 121 124 124 128 130 135 148 148 143 140 135 143 145 141 142 142 146 158 145 146 140 150 149 142 143 145 144 146 147 149 150 152 154 155 158 159 161 163 164 167 169 171 173 174 176 178 180 183 185 187 190 194 194 198 201 205 207 209 211
 111 111 110 111 111 111 111 111 111 113 112 113 111 112 114 113 113 115 116 114 115 115 117 117 116 115 115 120 120 128 124 119 120 123 127 134 149 152 148 150 169 166 174 173 179 181 166 174 188 179 179 187 170 153 143 145 142 141 144 146 147 147 148 148 152 153 156 155 157 160 161 163 166 168 170 172 174 175 176 177 181 184 185 187 191 193 194 198 201 203 205 207
 110 109 110 111 111 109 111 113 111 113 112 112 114 113 113 112 114 114 114 114 115 114 116 117 117 115 116 118 119 120 123 120 122 133 135 139 162 161 155 156 158 162 178 187 196 228 215 202 210 202 196 204 219 193 171 159 145 144 143 146 146 146 147 147 152 152 155 155 157 158 160 161 165 167 169 170 172 174 176 176 179 179 183 185 189 191 193 195 197 199 200 204
 108 109 110 110 110 110 110 111 112 111 111 114 114 113 114 114 114 113 114 114 114 115 118 118 116 117 117 116 118 120 124 132 137 142 145 150 160 154 149 158 156 155 171 196 186 215 244 229 225 219 220 219 223 248 226 223 166 157 159 151 144 147 147 148 150 152 153 154 155 158 159 160 164 165 167 169 170 172 174 174 177 177 179 181 184 186 189 190 191 193 196 196
 108 108 108 109 109 110 109 111 111 109 111 113 112 113 113 113 112 113 114 114 114 115 116 118 117 118 117 118 121 124 125 137 140 138 135 136 144 139 131 133 141 143 156 192 182 188 224 241 224 219 242 251 249 233 244 231 222 192 175 177 148 144 147 145 147 148 149 149 151 152 151 152 155 157 156 157 158 158 161 160 164 164 166 167 169 172 175 175 178 179 182 184
 109 110 109 109 108 109 109 110 110 110 111 112 112 112 112 111 113 113 114 114 114 115 114 115 116 117 120 122 123 125 132 132 133 132 131 134 131 133 124 125 137 140 147 168 169 185 211 234 234 239 242 245 251 249 241 239 251 248 208 176 180 131 128 128 127 130 130 132 133 136 139 141 143 143 164 151 146 148 151 152 155 156 157 158 160 166 167 168 172 174 176 176
 108 108 109 109 110 108 107 110 110 110 110 111 110 109 113 109 112 112 113 113 115 116 115 114 115 121 124 122 123 128 135 123 119 123 127 133 129 135 132 125 140 143 152 166 178 168 198 222 239 238 240 233 250 245 239 250 252 252 248 207 167 136 125 122 122 126 126 126 130 134 134 144 146 136 138 141 140 142 143 144 147 147 148 150 151 156 157 159 161 164 166 168
 108 107 107 108 108 107 109 109 109 110 110 109 111 109 111 111 111 112 113 114 113 119 121 116 119 123 121 120 124 136 131 114 108 115 120 132 128 127 133 126 133 149 150 162 183 164 183 194 219 233 203 226 238 234 250 251 252 252 251 235 182 140 150 146 119 118 118 128 124 120 121 124 137 132 130 133 134 136 138 141 142 145 147 150 152 154 156 159 164 166 166 169
 107 107 108 107 107 106 107 108 108 109 109 110 112 109 110 110 112 112 112 111 114 118 139 121 118 118 122 122 128 134 125 117 109 113 116 124 128 128 124 133 130 143 150 158 165 155 163 169 174 191 177 190 206 228 241 243 244 251 252 227 207 167 159 213 161 174 156 134 160 137 128 129 132 137 132 135 136 138 138 140 141 142 145 146 148 150 152 154 156 157 159 161
 107 107 107 105 105 106 107 108 107 109 110 110 109 110 110 110 111 112 111 111 114 115 132 124 119 120 123 118 118 128 127 117 112 113 113 120 129 127 123 130 128 135 139 146 149 148 149 147 153 164 164 161 172 203 220 217 222 250 251 251 236 233 217 196 149 124 135 171 185 175 126 121 125 128 127 128 131 134 135 136 139 140 143 145 147 150 151 152 155 158 158 160
 106 106 106 107 105 106 108 108 107 107 109 109 108 110 110 109 109 110 112 112 118 121 122 126 122 123 118 120 116 118 125 112 109 112 117 117 122 122 122 122 128 133 131 137 137 139 140 139 147 150 155 150 161 170 189 192 218 247 250 249 251 251 225 213 183 144 128 126 148 196 158 130 130 130 130 130 130 132 134 136 136 140 142 143 144 148 150 152 153 157 157 158
 107 107 106 106 105 106 106 106 106 107 107 109 107 108 108 108 108 108 111 115 121 129 124 129 118 114 108 120 124 116 113 109 107 111 120 124 121 123 121 122 128 130 133 135 135 134 134 136 142 146 149 151 153 160 165 174 165 207 212 228 242 252 243 239 228 160 144 127 130 157 169 144 134 131 133 134 135 137 139 141 142 145 147 150 152 152 157 158 161 161 164 166
 106 105 107 107 106 105 107 106 106 107 108 106 107 106 107 109 109 111 116 122 129 133 130 119 111 107 106 108 110 108 100 106 105 105 112 119 118 126 130 122 123 129 132 136 135 135 134 137 139 144 149 151 154 158 155 156 155 173 166 179 233 249 251 252 251 222 182 154 141 153 160 155 160 151 161 152 150 150 152 152 153 156 157 159 162 164 167 168 170 170 171 171
 104 104 106 106 105 105 105 107 105 104 106 106 107 106 108 108 111 115 128 173 182 148 127 116 114 108 107 106 105 104 105 104 103 106 113 117 117 122 125 126 124 130 137 138 139 138 137 139 141 144 148 155 161 163 149 149 150 156 158 171 204 235 243 252 252 251 206 213 167 159 164 164 164 154 151 157 155 154 155 153 156 157 158 160 164 164 165 166 168 169 170 171
 104 104 104 104 104 106 104 106 105 105 107 107 107 107 108 111 117 120 124 132 141 131 120 113 109 105 104 100 102 106 109 111 115 117 122 126 124 126 126 128 134 135 136 137 140 142 142 141 138 143 150 158 163 159 150 150 152 162 170 184 197 211 226 243 252 251 243 209 191 161 173 175 162 154 152 150 151 154 153 154 156 157 162 166 171 165 162 164 165 168 168 170
 102 103 102 105 104 105 106 104 105 105 105 106 104 106 114 115 117 119 122 129 132 118 112 107 111 105 100 103 109 118 126 130 133 132 134 137 138 139 138 137 140 140 143 145 145 150 148 147 146 146 152 160 164 160 156 160 162 172 183 189 199 219 227 244 252 252 252 236 216 195 175 192 172 175 153 148 147 151 151 153 157 161 161 160 159 158 159 161 163 165 166 165
 103 102 103 104 104 103 105 105 105 105 105 105 105 111 115 116 114 113 119 133 130 117  96 111 115 111 109 109 118 127 137 143 156 154 150 147 149 149 149 150 151 150 152 155 155 155 152 155 155 152 151 148 150 160 163 162 169 177 184 196 212 229 245 251 252 252 252 246 221 179 183 178 168 195 165 149 147 148 152 153 154 154 153 156 156 157 158 157 160 162 162 162
 103 102 102 102 102 104 106 103 102 103 105 107 109 115 115 114 115 115 117 126 128 119 116 121 119 116 120 124 128 136 144 149 161 161 154 152 152 154 155 157 159 159 158 160 160 161 161 163 161 160 157 155 160 166 167 174 182 183 185 194 217 237 251 252 252 252 252 252 241 214 181 167 168 163 171 151 150 150 148 147 148 150 153 152 155 154 156 157 157 159 160 159
 101 102 102 102 102 103 103 102 102 104 103 104 107 121 116 113 116 120 120 129 117 118 120 121 120 121 124 131 139 143 149 147 154 154 153 151 151 154 157 159 161 159 163 163 166 169 168 168 166 164 165 164 166 171 176 179 184 189 192 199 208 229 251 252 252 252 252 252 252 233 200 170 178 181 157 155 147 146 145 147 146 148 149 151 152 153 153 155 156 157 158 158
 101 101 100  99 101 102 102 101 102 103 102 106 107 130 117 110 118 120 118 114 102 116 121 127 130 132 137 142 147 146 148 147 149 149 149 148 150 152 153 161 162 163 164 165 168 170 170 171 169 170 167 166 171 178 182 183 186 194 201 200 202 218 247 252 252 252 252 252 252 251 240 183 173 179 185 154 146 147 143 145 147 147 148 150 149 151 153 153 154 156 156 157
  99  99  99  99  99  99 100 101 101 101 101 103 111 138 116 113 117 126 112 106 115 126 130 137 139 141 144 146 147 146 144 145 146 144 146 147 148 152 153 158 160 163 164 166 166 169 171 173 171 169 169 171 178 182 182 184 182 187 192 207 209 210 233 252 252 252 252 252 252 252 250 211 163 165 199 177 153 148 143 141 145 145 146 147 149 149 151 152 152 153 154 154
  99  99 100  98  98 100  99  99  99 102 102 100 111 140 114 109 118 119 109 114 132 134 144 144 146 147 148 148 148 148 149 147 145 145 146 144 146 148 149 154 158 162 162 162 164 167 166 166 168 168 168 167 172 176 181 185 182 187 185 187 209 224 221 244 252 252 252 252 252 252 251 214 165 161 185 185 182 163 145 144 144 142 144 144 148 147 148 150 149 151 151 152
  97  98  97  98  98  99  98  99  97 100 100 102 113 136 114 114 120 112 112 124 139 145 151 149 148 149 149 148 148 148 148 148 146 141 144 147 145 147 146 151 153 158 158 161 161 164 163 163 164 164 164 165 167 175 176 176 175 177 178 180 183 194 220 240 251 252 252 252 252 252 252 226 183 155 159 172 176 157 151 151 143 141 142 143 147 147 146 147 148 150 148 148
  97  97  98  97  96  97  99  97 100 100  99 100 117 132 117 123 114 112 125 136 142 157 167 157 151 154 150 149 150 146 148 148 146 142 141 144 143 143 145 147 149 150 153 159 160 161 160 162 163 162 161 162 164 168 168 164 161 164 171 176 180 181 182 197 226 247 252 252 252 252 252 242 174 159 156 153 151 147 141 144 144 140 141 142 143 144 146 146 148 148 148 149
  96  96  97  97  97  99  98  98  97  98 100 102 116 140 124 122 110 125 139 139 152 174 188 170 158 154 149 149 152 147 147 144 144 140 139 139 139 139 142 144 148 150 150 154 157 158 158 160 160 158 159 160 158 159 160 153 152 160 168 173 178 178 178 180 194 216 244 251 252 252 252 251 193 166 174 147 139 141 140 139 141 140 141 140 140 143 143 142 145 145 146 147
  95  96  96  96  95  97  96  96  97  98 100 102 119 139 125 116 116 139 143 146 165 192 210 191 165 154 151 149 147 146 145 142 141 138 136 138 136 138 138 141 144 144 147 149 152 151 153 153 155 154 155 154 154 155 160 155 156 161 167 169 171 174 173 171 180 197 215 239 251 252 252 252 231 181 156 142 139 141 151 147 139 138 139 139 140 141 139 139 142 144 144 143
  95  94  95  95  95  95  94  96  96  96 101  98 117 137 130 114 128 144 147 154 180 208 209 190 167 156 151 149 147 144 138 138 138 132 133 134 132 135 134 135 138 141 142 145 149 151 154 154 153 153 155 158 160 160 159 158 158 158 161 163 165 165 164 165 170 180 197 213 238 251 252 252 250 212 157 142 140 140 139 142 138 136 137 139 138 140 139 139 143 140 142 142
  94  93  95  94  94  95  94  95  94  96  99  98 116 133 128 118 145 150 152 160 186 208 200 182 167 158 150 146 144 142 138 138 135 131 133 128 128 130 131 136 139 142 144 147 147 150 153 152 152 153 154 157 154 155 155 156 157 157 157 159 159 159 157 159 165 172 181 194 211 247 252 252 251 229 157 137 133 134 137 133 133 134 137 136 137 136 137 136 139 139 140 140
  94  94  94  93  93  94  93  95  94  97  99  98 115 140 122 138 151 155 160 170 182 194 191 177 167 161 148 142 141 136 136 132 129 130 126 125 126 127 130 132 136 141 144 142 140 147 150 151 153 151 151 150 151 152 153 154 157 158 155 153 155 155 156 156 158 163 173 180 190 215 248 252 252 241 159 148 141 133 136 132 132 133 133 133 133 134 135 135 137 136 137 138
  92  93  94  93  94  94  94  95  93  95  97 100 115 138 125 142 153 152 168 177 176 185 182 171 161 156 145 139 136 131 133 129 125 125 125 127 126 130 131 131 135 139 140 140 142 149 149 153 156 151 150 149 150 152 151 154 157 157 155 154 151 150 152 153 153 154 160 167 177 199 228 249 252 251 198 158 147 147 149 149 133 130 132 131 133 134 134 135 135 134 134 136
  91  92  92  92  95  96  93  93  93  95  96 103 118 125 118 146 145 153 174 183 174 175 174 163 159 153 145 140 134 129 130 126 123 123 124 122 125 129 131 131 131 135 140 141 145 150 151 151 154 155 152 152 153 150 154 153 156 157 156 154 154 153 152 150 152 154 155 163 172 186 206 233 251 252 201 156 139 132 139 134 130 128 131 131 128 131 132 134 132 134 133 134
  90  92  93  91  97  94  91  93  95  94  96 112 117 116 123 145 145 158 176 181 174 168 164 156 152 149 143 136 130 129 130 130 130 127 128 130 133 133 134 137 137 139 145 145 146 146 150 154 151 152 150 150 150 152 151 153 156 156 157 157 157 155 152 153 152 154 156 158 165 176 191 221 249 252 217 144 136 129 127 131 127 126 127 128 128 129 131 130 131 132 132 133
  91  90  91  91  94  92  92  91  91  94  99 120 108 109 124 134 142 163 175 177 169 162 158 153 147 146 141 135 131 130 130 130 131 132 130 134 137 136 136 138 138 140 146 147 146 148 151 154 152 155 153 157 158 158 158 159 161 163 162 161 160 158 155 154 154 155 156 154 158 165 181 206 243 251 232 155 132 126 124 127 126 125 128 126 127 129 129 130 130 131 131 130
  90  90  90  87  89  90  91  91  91  94 101 116 102 117 124 131 153 168 173 170 165 160 155 147 142 142 138 134 132 127 128 129 133 133 132 135 138 136 136 139 142 143 145 145 147 150 154 158 158 156 155 158 160 159 159 159 161 163 163 162 161 158 157 156 156 158 159 157 157 163 174 194 235 251 239 158 134 127 126 126 126 124 124 126 126 126 128 129 128 128 130 129
  87  89  89  90  89  90  91  91  93  99 106 116  98 124 131 139 155 165 167 163 158 155 148 142 143 142 141 136 131 127 127 130 133 135 135 135 135 138 137 142 142 144 147 147 150 150 151 158 158 156 158 152 150 152 155 157 161 162 162 162 162 161 160 161 160 159 157 158 159 163 173 191 227 250 239 163 132 128 124 124 122 123 122 122 124 124 125 124 126 126 127 127
  87  88  90  90  89  90  89  91  91  94 105 114  95 113 131 140 150 160 164 155 151 148 145 143 141 142 139 134 126 125 127 129 132 133 136 136 138 137 139 143 146 147 148 148 153 151 150 155 156 155 156 152 150 152 156 159 164 164 163 165 164 163 162 160 158 159 157 159 160 164 170 192 218 246 244 160 129 124 122 123 119 120 122 122 122 121 124 125 125 125 126 127
  89  88  88  89  89  89  91  89  91  95 103 105  93 103 121 132 146 150 152 153 152 146 145 141 139 140 136 131 126 127 126 130 133 132 134 139 140 140 139 142 143 146 149 146 151 154 154 155 155 154 154 155 155 154 155 158 160 164 164 163 164 163 160 161 160 158 157 159 161 164 172 194 216 240 244 165 135 136 131 119 119 120 120 122 120 120 122 124 122 123 123 124
  89  88  86  88  90  89  90  91  90  92  99 102  92 100 115 129 142 150 149 145 146 143 144 142 139 140 140 133 128 125 125 126 131 131 134 137 139 140 141 140 138 141 146 143 146 150 149 152 152 155 152 155 153 152 152 154 158 163 164 162 160 159 160 159 160 158 160 163 164 166 173 190 217 236 236 189 166 133 123 118 117 119 119 119 122 120 119 120 121 121 122 121
  87  87  87  89  90  87  87  88  90  90  93 101  93 110 117 131 141 147 142 140 143 143 140 140 141 139 139 133 129 126 125 128 131 131 133 134 135 138 138 136 136 136 139 139 139 144 145 147 148 148 149 149 147 150 151 152 158 159 158 157 156 156 156 159 161 158 162 163 164 170 176 193 218 231 235 184 134 146 123 118 117 118 118 119 119 118 118 120 122 122 121 119
  86  87  88  89  88  88  89  90  89  88  90  93  94 101 111 127 131 131 136 136 135 140 141 139 139 139 138 135 132 126 126 130 132 135 135 137 136 133 132 133 132 131 134 131 132 136 141 141 142 144 144 142 142 145 148 148 152 152 150 150 151 150 151 155 159 162 164 168 172 175 190 204 219 227 233 161 125 122 124 118 118 118 118 118 117 119 118 118 118 118 119 118
  85  87  86  87  86  88  87  89  90  89  91  96  84  93 104 123 129 131 136 134 135 138 145 140 140 140 139 135 133 131 133 133 132 132 133 133 132 129 128 126 124 122 125 124 127 129 133 136 139 140 141 146 142 143 143 142 142 143 141 141 143 145 146 151 156 162 169 175 186 195 208 217 223 228 232 155 124 118 120 118 118 117 118 118 117 116 117 118 118 118 117 116
  86  88  87  88  87  87  87  88  87  88  91 100  86  92 103 115 126 138 137 135 134 137 142 141 141 141 142 140 138 134 130 126 126 124 123 121 119 119 116 112 111 105 107 115 116 120 126 131 133 135 134 140 138 137 137 138 134 132 128 134 139 140 141 149 152 163 168 180 196 213 235 245 239 231 232 145 124 117 116 117 116 116 117 117 115 116 117 117 116 116 117 117
  86  87  88  88  87  88  89  89  87  87  88  97  85  88 103 112 129 146 139 134 134 138 142 140 146 149 148 146 136 128 123 116 110 104 103 100  93  94  96  96  96  96  96 104 102 111 117 124 128 130 131 132 131 130 130 129 128 122 121 123 130 135 139 140 142 147 152 164 188 209 239 250 250 236 224 142 119 116 116 116 116 117 115 117 116 116 116 115 115 115 116 116
  85  88  87  87  86  88  89  90  90  89  90  93  89  89 105 117 133 144 136 134 135 138 147 147 151 154 150 141 126 111 102  94  87  85  83  84  81  80  84  90  88  86  89  93  95 102 107 110 120 123 127 128 126 127 124 121 121 118 116 116 116 119 124 129 131 134 140 141 151 180 215 246 251 247 213 129 117 116 115 115 116 115 115 113 114 113 114 113 116 116 114 113
  87  88  87  87  87  88  87  87  89  90  90  90  89  96 106 116 132 141 138 139 140 144 150 152 158 158 139 115 100  94  83  78  80  78  76  72  74  74  76  82  85  83  83  88  91  93 101 104 109 115 121 123 126 123 118 114 113 110 109 109 107 106 105 104 109 112 116 115 120 142 176 218 249 250 196 126 116 114 114 114 115 115 114 114 115 114 114 115 115 115 116 113
  88  86  87  88  86  88  87  89  89  89  86  84  76  88  93 112 133 143 140 141 142 148 150 155 158 138 111  92  83  86  85  82  82  83  84  82  80  80  79  80  83  83  81  83  86  88  93  99 104 110 116 119 121 120 113 111 105 105 101  98  95  93  93  93  91  96  94  95 100 107 125 148 201 246 179 123 115 114 115 114 115 116 115 116 113 114 113 116 115 113 117 115
  86  87  88  88  87  88  87  89  89  88  87  84  73  74  82 106 132 143 143 142 145 149 152 151 134 117  99  94  91  91  93  89  85  86  88  87  86  89  88  86  86  86  85  86  86  88  91  97 102 106 111 118 118 115 109 107  97  96  93  91  89  87  87  87  90  94  96  99 103 108 112 119 154 222 168 125 120 119 119 120 120 119 118 119 120 120 119 119 119 120 120 118
  87  86  88  88  88  91  89  89  91  89  89  86  71  72  84 103 128 146 146 146 148 147 149 135 117 101  97 101  99  97  94  90  87  86  87  87  86  86  86  86  88  87  87  89  90  89  89  92  97 100 106 114 114 114 108 101  96  94  91  89  91  93  96  97 100 102 101 101 101 106 107 112 131 216 159 126 123 122 122 122 121 120 121 122 121 122 121 122 117 119 120 119
  88  88  89  89  90  90  91  90  91  93  93  90  74  76  82 104 129 152 149 146 144 144 138 119 106 102 101 101  97  94  93  91  89  89  89  88  86  87  86  84  85  86  85  86  88  92  93  93  97 100 106 115 117 115 108 100  96  94  93  93  93  94  97  97  99  98  98 101 104 106 109 112 124 202 153 125 124 122 118 122 120 120 120 121 122 120 119 119 120 119 118 118
  95  95  98  97  98  99 100 100 101 102 102  96  84  85  91 101 132 150 147 143 141 134 124 115 107 104  99  97  98  94  90  88  86  83  82  80  77  75  72  74  77  76  78  80  84  89  90  92  96  98 106 113 118 119 112 101  94  91  91  90  87  88  89  89  92  95  97 100 105 107 108 111 120 212 155 129 124 121 118 119 118 118 119 120 120 120 119 118 118 118 119 118
  98  98  99  98 100 102 105 110 114 111 103  98  92  85  90 109 139 154 147 144 138 129 118 113 105  99  94  92  91  88  82  81  82  82  80  74  71  69  68  67  67  67  70  72  76  82  87  92  95 100 106 114 120 122 114  99  91  86  82  79  77  78  77  79  84  88  93  98  98 104 104 106 126 227 222 186 133 121 118 118 118 119 118 119 118 119 118 118 119 118 118 117
  98  99  99 100 101 102 137 132 113 102  90  87  94  91  82 105 131 154 148 143 135 125 116 110 101  94  89  87  84  84  88  91  85  82  77  74  68  66  64  65  65  63  62  65  69  76  83  87  94 102 108 120 128 126 118  98  81  74  74  73  75  76  77  78  83  92 100 108 107 101 102 108 134 234 239 247 161 122 119 117 118 118 118 116 117 117 117 117 118 118 117 117
  96  99 100 100 102 108 121  92  86  84  85  88  93  96  97 111 135 152 148 141 134 124 112 107  97  90  86  84  84  85  86  84  78  71  60  54  47  49  52  63  60  60  61  63  64  72  78  85  94 107 117 129 137 135 127  91  73  75  74  76  80  76  69  62  64  74  88 103 101 101 100 107 135 237 182 187 186 125 118 116 118 116 116 115 117 117 116 116 116 117 117 116
  99  98  99 101 101 111  92  74  67  68  74  83  93  96 103 122 145 151 145 143 133 118 111 105  95  87  83  81  81  74  77  76  78  67  51  46  41  45  53  66  59  52  55  63  68  69  75  82  98 113 124 135 143 143 135  89  74  65  66  71  83  77  66  54  53  58  69  84  91  94  96 104 139 235 164 140 155 123 117 117 116 116 117 116 116 116 115 116 116 116 116 115
  98 100  99 100 101 105  80  63  65  66  74  82  82  91  97 117 148 151 145 138 130 119 111 103  94  85  83  82  85  82  70  71  87  80  56  47  46  51  54  64  58  53  55  62  70  69  77  88 104 123 131 140 148 148 140  93  75  66  66  68  77  75  66  55  60  59  67  81  88 105 107 111 143 233 164 129 129 119 116 114 118 116 115 115 115 115 116 116 114 114 116 115
  98  97  99 100 100 101  74  62  64  65  75  78  71  87  91 108 151 150 142 138 130 117 110 103  96  94  94  98 104 100  84  79  77  76  60  49  50  51  55  60  59  58  62  64  68  76  83  96 111 126 133 142 153 150 144 109  76  72  72  70  73  73  67  59  66  65  77  84  96 111 136 139 156 224 153 130 120 116 115 116 115 114 115 114 116 115 113 115 116 114 113 115
  99  99 100 101 100 101  73  60  62  68  83  91  96  85  87  97 139 146 140 138 131 120 110 105 101 103 106 110 113 110  97  86  77  70  68  64  64  65  64  64  60  60  60  66  74  87  96 109 123 132 137 144 154 154 146 126  83  72  74  75  74  75  77  76  78  83  90  93 107 117 125 144 169 220 145 131 119 115 114 114 115 115 114 114 115 114 114 114 113 114 113 112
  97  96  99 101 101 103  81  60  60  75  95  94  79  60  71  88 127 142 139 139 133 124 116 109 108 107 112 114 114 110 102  94  87  82  78  78  74  72  69  66  61  62  62  70  85  98 110 121 131 136 140 147 155 158 148 135 102  81  72  74  79  84  83  87  90  92  98 104 116 127 137 155 178 219 144 131 116 114 115 115 114 113 115 114 114 112 113 111 113 113 111 112
  99  98 100  99  99 102  91  68  63  84  97  87  72  55  61  83 119 136 140 140 134 130 122 116 114 112 111 111 110 102  98  94  91  86  86  82  76  72  68  66  64  66  73  82  94 106 117 122 130 134 139 145 151 153 144 136 126 101  82  77  78  82  86  91  96  99 101 104 118 135 151 165 183 222 145 125 116 113 114 112 112 112 113 112 112 113 112 111 112 112 111 112
  99  98 100  99 100 100 101  81  68  88  91  79  67  58  62  95 118 137 138 141 135 129 124 122 118 112 107 106 105 102  98  95  91  87  84  82  76  70  70  68  70  76  85  93 102 109 113 124 128 131 138 145 152 151 142 135 131 117 102  91  84  80  84  89  92  94  98 107 130 144 153 165 190 225 150 121 114 114 114 113 111 112 112 112 111 110 111 110 111 111 110 112
  97  98  98  99 100 101 102  94  75  85  88  72  60  59  65  97 114 135 139 145 139 130 124 122 118 111 106 107 100 100  97  93  90  86  82  80  77  72  74  76  83  87  92 100 107 110 112 121 127 130 134 144 154 153 140 132 129 128 119 110  99  85  83  88  89  94 104 120 136 148 154 165 184 220 149 118 113 111 112 111 112 112 113 110 110 110 110 110 112 113 111 111
  99  98  99 100  99 101 101 102  86  80  88  68  56  56  61  88 108 131 140 147 140 129 127 123 114 107 104 103 100  97  97  94  90  89  85  82  82  86  85  87  93  94  98 101 106 108 115 120 126 131 137 140 156 151 140 129 126 128 123 121 116 107  96  93  95 104 120 132 140 147 159 166 185 218 152 118 108 110 111 112 110 110 110 110 110 110 110 110 111 111 110 110
  97  99 100  98  99 100 102 102  98  80  92  74  58  53  58  71 100 133 138 145 140 129 125 119 112 107 104 102 101  96  96  95  90  90  89  89  92  94  94  95  94  98  99 104 106 109 114 121 127 132 137 147 156 148 140 132 125 126 124 123 126 120 117 116 113 121 133 140 147 155 161 172 192 214 118 109  96 108 110 110 110 109 109 109 111 109 110 109 108 109 109 109
  97  98  98  98  99  99 101 100 101  90  86  88  82  76  78  77  79 126 138 142 139 130 125 116 111 109 104 104 103 102  99  98  96  94  94  96  99 100  98  98  98  99  99 100 105 108 114 121 128 134 135 142 151 151 143 138 130 124 120 123 127 131 129 129 129 133 140 148 154 162 168 177 195 191  97 118 105 109 112 111 111 111 110 110 110 109 110 108 110 110 108 109
  96  97  97  99  99 101 101 102 100  98  89  81  85  95 101  89  74 116 136 142 138 129 124 118 111 108 104 105 102 101  99  96  97  97  97 100 102 102 101  97  95  95  98  96 100 107 114 126 132 135 137 145 158 154 144 137 130 122 112 119 125 132 134 137 138 139 146 154 156 162 171 178 193 147  75  94 118 112 109 110 110 109 108 108 109 110 110 108 108 108 108 107
  96  97  98 100  98 100  99 101 101 101 101  91  83  98 104  96  96 112 133 140 136 130 125 118 110 108 104 104 103 102 100  97  99  98 102 101 101  99  99  95  93  92  93  92 100 112 120 129 133 133 138 146 159 158 147 140 133 116 107 114 118 125 131 135 136 139 142 151 157 164 169 182 199 119  81  94 104 104 108 107 107 107 107 108 108 108 109 107 108 108 109 106
  95  96  98  98  99  99  98  99  97 100 104 104 117 113 103  96  96 100 133 140 134 130 124 121 111 108 103 106 102 102 101 100 102 101 101 103 102 102  97  94  90  86  90  93 109 126 135 136 137 135 139 144 149 158 149 143 138 118 104 106 112 122 129 131 133 131 136 139 145 157 171 180 198 106 101 120 114 100 107 108 106 108 106 106 108 107 107 107 108 106 108 107
  93  96  96  97  97  99  99  97  98  99 100 103 116 104  99  99  93  92 131 137 138 131 124 123 112 107 108 105 103 102 102 104 102 103 102 102 100 100 100  94  88  85  87 101 125 142 146 145 144 138 135 136 140 145 147 142 138 131  99  99 107 115 120 124 126 132 130 132 137 145 159 175 190  92  87 105 105 103 107 106 105 107 108 106 106 106 105 108 107 105 108 106
  94  96  97  98  97  97  97  99  98  97  99 100 105 100  98  95  90  87 115 134 139 133 124 119 112 106 105 103 101 100 102 101 103 102 102 102 100  97  93  88  84  84  89 105 128 141 140 142 135 133 128 127 126 134 136 138 138 137 112  96  99 105 111 117 119 122 124 125 125 131 142 169 175  82  79  81  80  92 104 105 107 106 106 106 104 104 106 105 105 106 105 106
  93  97  97  96  97  97  96  97  98  98  98  98  97  96  96  94  88  84 101 129 138 128 122 113 107 101 101 102  97  99  99 101 102 102 102 101 100  97  92  89  85  82  88 103 118 122 124 126 123 122 123 120 120 125 131 134 138 137 126  97  92  97 105 111 114 116 119 119 120 124 132 158 169  93  89  79  67  80 102 104 107 104 105 103 103 104 104 104 104 106 104 105
  95  96  95  97  96  96  96  97  96  97  96  87  53  45  61  87  84  83  85 124 132 127 118 110 104 101 101  99  98 100  99 101 101 101 103 103 102  99  95  90  89  84  87 101 106 104 107 110 111 109 114 114 113 116 120 124 129 132 127 106  93  91  97 102 106 109 112 112 113 118 121 146 155 100 100  83  61  89 107 105 101 104 105 103 104 104 104 104 104 102 104 104
  94  95  95  96  94  95  95  95  95  95  76  39  29  27  27  43  68  71  74 116 128 124 114 104  98  98  97  97 100  99 100 104 104 105 106 106 104 100  95  97  94  85  81  91  98  96  97  97 100  99 103 102 102 106 111 114 120 122 123 112  99  89  93  98 100 107 110 110 111 112 113 135 133  84  89  88  64 220 155 112 105 103 103 104 102 102 102 102 104 102 101 101
  93  94  95  95  94  94  96  95  94  78  33  28  25  24  24  27  29  34  52  99 126 120 111 102  97  97  95  98  98  97 101 103 106 109 109 107 100  98  98 101  96  88  80  78  82  78  79  86  93  91  90  91  93  98 100 101 106 120 124 122 105  92  89  93  99 102 105 106 106 107 107 129  96  72  78  86  79 192 235 126 104 102 101 101 102 101 102 103 101 102 100 101
  93  94  94  94  93  93  95  92  79  37  29  24  22  23  24  24  23  26  30  72 126 119 104  99  95  94  95  97  99 101 102 103 110 112 107 101  97  99 101 100  99  90  85  81  78  69  67  73  84  87  87  87  87  87  90  89  91 122 125 125 114  96  88  91  98 100 102 102 102 102 105 124  74  70  78  91 104 232 241 126 105 102 100 101 100 100 101 102 101 100 100  99
  93  94  95  93  94  94  93  80  34  31  23  23  22  22  24  23  23  23  25  51 124 119 102  95  95  95  98  98 100 103 105 108 109 107  98  92  93  99 104 103  97  88  84  82  81  77  72  71  74  83  86  88  85  86  80  73  78 115 125 126 115  99  86  88  94 100 105 106 101 101 105 108  68  68  70  83  90 164 158  91  81  84  85  90  88  94 100 102 115 100  98  98
  92  93  93  93  93  93  91  52  30  27  23  23  23  25  31  32  26  23  25  37 116 118 101  92  92  99  96  99 103 107 109 108 104  96  89  88  94  99  99 100  93  84  74  73  73  69  70  73  73  75  77  80  78  72  67  64  76 103 114 114 110  94  85  84  88  94 103 108 103 100 106  83  52  47  47  46  50  58  60  54  52  48  49  48  49  48  49  49  50  50  90  95
  92  91  92  93  94  92  90  57  30  26  23  24  33  42  49  45  32  23  25  33 103 119 101  92  95  98  98 102 108 109 108 103  93  86  80  85  88  89  89  88  86  77  70  68  61  58  61  64  71  72  74  74  70  68  65  63  73  88 101 106  97  79  72  72  85  90 102 111 107 100 108  78  52  49  48  47  49  48  50  48  48  46  46  45  44  44  46  45  44  45  83  97
  90  90  91  92  91  91  92  81  45  37  38  42  52  58  56  50  35  25  25  35  93 120 101  92  96  98 105 111 113 108 103  96  87  74  66  68  71  76  78  78  70  64  65  59  54  55  59  61  66  69  72  70  64  62  60  64  74  77  84  89  82  66  57  61  72  86 102 111 108 103 112  66  49  48  46  47  49  48  47  47  46  46  45  46  43  44  45  43  43  40  82  95
  92  89  90  90  90  91  92  90  81  57  60  59  61  60  56  51  43  32  29  45  90 122 105  91  93  96 111 118 116 108  99  89  77  63  59  61  61  64  64  66  62  60  58  52  52  53  54  59  62  64  68  66  60  59  58  64  68  68  67  75  70  63  52  56  61  82 100 114 110 100 101  55  48  47  46  47  47  47  46  47  45  45  44  44  43  43  42  41  41  39  79  94
  90  90  89  89  89  90  89  89  89  62  63  62  62  50  41  42  44  35  36  47  85 123 108  91  90  94 113 119 114 106  95  81  66  55  51  52  54  55  62  61  59  57  52  51  49  51  54  56  59  62  68  60  56  61  63  64  68  66  66  65  68  62  55  62  72  86 101 113 108 102  88  53  46  47  47  46  45  45  45  44  45  44  45  42  43  41  42  42  42  40  73  93
  89  89  89  88  86  89  89  88  86  58  44  52  46  38  40  43  48  38  39  53  91 125 116  92  86  92 113 118 112 102  90  78  62  52  48  49  51  54  58  60  63  54  50  53  53  60  60  58  59  62  61  60  56  59  69  69  67  68  66  61  65  63  56  59  72  82 102 115 107 106  70  50  45  45  44  46  45  45  45  44  44  43  43  43  42  40  42  42  41  39  73  93
  87  87  88  88  87  88  88  88  88  75  48  50  46  46  50  51  48  37  37  68  90 125 125  96  82  88 116 119 110  98  88  76  64  50  47  51  55  54  57  63  65  59  54  59  61  68  63  65  62  61  59  64  64  62  69  70  67  68  64  65  69  65  60  58  68  81  94 110 104 103  67  48  45  46  45  44  45  44  45  42  42  42  42  43  41  40  42  40  40  37  74  93
  87  90  90  88  88  89  88  89  89  79  65  62  56  56  62  53  46  32  40  75  87 124 125 110  82  83 105 119 107  97  87  75  61  51  52  56  62  61  60  57  55  56  57  60  60  66  66  69  71  71  69  71  70  70  63  59  56  61  69  72  71  66  57  60  72  84  93  99  97  82  52  45  44  45  45  44  42  42  41  44  41  41  41  41  40  41  40  39  40  38  73  90
  89  88  87  82  81  78  80  78  78  75  73  70  71  69  69  63  38  30  39  56  83 114 120 111  82  79  89 116 107  95  86  70  55  51  52  58  60  66  69  67  66  63  59  56  52  50  53  54  59  61  62  61  57  56  57  60  66  72  80  78  72  66  58  60  68  88  93  91  91  72  57  48  44  44  44  44  42  44  43  43  43  41  40  42  40  40  40  38  40  38  72  90
  67  66  64  61  59  58  57  57  57  55  55  54  54  56  57  53  29  29  40  46  71 109 121 111  93  85  79 108 101  92  86  71  60  52  55  61  62  64  71  77  81  81  73  65  63  58  55  55  59  56  56  57  58  63  66  70  74  84  97  90  77  67  65  64  66  83  89  88  94 101  54  49  45  44  43  42  41  41  42  42  42  40  39  40  40  38  40  40  40  38  67  90
  58  54  54  54  53  52  53  52  52  50  51  51  51  53  55  51  27  34  40  47  45  83 123 111 102  89  82 100 102  91  81  69  63  54  54  59  65  70  76  83  90  90  84  79  72  69  67  65  66  67  65  65  68  70  72  79  84  93 103 100  90  74  69  65  68  76  76  81  86 108 109  53  47  43  42  40  41  42  41  41  43  39  40  41  40  40  39  38  38  36  64  89
  46  46  50  50  50  49  51  50  49  49  49  49  50  51  54  51  32  39  44  39  29  63 125 110  98  90  89  88  97  94  78  68  61  50  50  56  65  76  83  87  93  92  89  86  82  78  74  75  76  76  78  78  80  85  86  88  92 100 106 109 101  83  68  60  61  66  68  73  78  79 116 108  50  44  43  43  42  42  43  41  43  39  39  39  40  38  38  39  38  37  65  88
  46  49  52  54  52  52  51  49  48  49  49  50  51  53  54  53  40  43  39  25  24  47 125 109  91  94  91  77  82  91  82  68  57  50  47  53  61  79  87  90  94  90  90  86  87  82  81  80  81  82  85  86  86  91  94  98  96 102 109 110  97  79  63  58  56  57  65  68  75  70  75 164 103  50  47  46  46  44  45  43  41  40  39  40  39  38  39  38  38  37  65  87
  48  49  53  56  56  55  54  51  50  50  50  51  52  53  56  54  40  33  24  20  22  33 126 111  87  82  81  68  72  84  87  68  56  50  46  50  61  74  88  93  90  90  86  81  80  83  80  75  78  76  79  80  80  84  86  90  96 104 109 105  88  73  59  52  52  53  61  65  65  59  69  85 182  78  55  50  50  50  46  45  44  40  40  41  39  39  39  39  38  38  63  88
  56  60  59  57  54  56  57  54  51  50  51  53  52  55  57  51  24  20  19  20  22  65 130 117  92  67  70  66  67  80  82  71  57  46  44  50  57  68  80  86  84  89  83  78  76  75  71  65  67  68  65  66  68  77  80  87  94 105 111 102  81  66  54  47  49  52  56  61  52  52  58  72 155 213 217 205 198 172 101  71  48  45  44  42  39  38  40  40  38  39  59  86
  55  57  59  55  56  56  59  56  54  54  53  56  57  59  61  54  22  20  20  21  64 134 121 119  99  68  62  60  67  76  77  73  60  49  48  50  55  62  72  80  84  83  79  76  74  69  64  60  58  58  59  61  64  71  80  91  98 111 115  95  73  64  50  47  48  50  57  53  51  50  51  61 122 234 238 251 226 233 176 198 129  98  49  48  43  40  40  40  39  38  58  86
  54  59  60  57  57  58  56  56  58  60  61  63  64  64  66  59  22  19  21  30 130 100 115 121 104  67  60  60  61  70  72  69  62  53  47  50  50  59  67  74  80  80  78  74  72  66  61  57  59  55  56  60  64  70  80  99 111 115 115  92  68  59  49  45  47  53  63  52  41  43  46  53  72 179 235 241 238 235 203 149 182 204 195 125  54  48  44  42  40  38  58  87
  56  57  56  57  55  57  58  64  66  72  71  72  73  74  75  62  24  20  23  85 138  84 102 122 106  74  57  56  59  63  67  66  58  50  46  44  50  54  55  62  72  76  77  74  72  64  62  61  60  56  59  62  72  76  84 106 115 112 103  80  64  53  45  43  46  56  80  55  45  39  40  45  60 165 225 234 244 231 239 159 145 102 181 192 245 156  89  50  48  41  55  85
  51  54  54  54  55  56  58  61  80  82  83  83  83  83  83  67  25  22  38 169 103  60  80 124 113  78  57  50  50  55  63  61  52  54  49  48  49  50  49  53  62  68  72  72  72  70  71  68  63  62  68  79  88  88  89 104 113 106  90  69  56  56  47  43  50  65  99  58  47  44  39  39  54 101 219 223 220 225 216 171 126 142 139 177 177 214 239 178 105  49  51  78
  49  52  56  55  56  58  56  58  81  99  93  90  91  90  89  77  49  67 127  98 102  48  64 128 119  92  61  47  48  49  55  56  52  49  48  49  48  47  47  44  56  64  67  70  70  72  79  74  69  68  74  97 105  94 101 101 111  93  83  69  55  54  44  43  52  74 120  70  52  49  45  44  43  68 190 217 227 209 219 226 139 135  80 118 110 187 165 249 224 204 140  80
  51  55  53  53  55  56  57  57  89  99 102 103  99  97  96 109 160 107 136 120  76  39  46 131 119 105  78  52  46  46  50  50  45  43  44  46  46  45  44  46  55  57  61  62  72  78  80  75  70  74  82 105 109 102  92 102 106  95  80  61  50  48  41  43  52  85 125  86  54  49  47  45  46  60 187 214 222 205 236 208 165 131 127 138 118 118 154 174 213 230 207 246
  53  54  54  54  55  54  55  54  98 102 100 102 109 116 154 150 137  91 113 125  58  35  34 132 121 106  89  67  45  47  52  43  39  39  43  44  42  44  41  49  50  51  56  61  71  79  79  74  74  76  92 103 100  92  89  96 105  91  72  56  46  43  41  44  51  96 118  96  64  51  49  45  46  61 119 219 205 227 228 187 211 148 159  93 121 114 188 173 242 200 244 226
  69  55  55  54  57  55  55  63 101 102 115 164 143 190 119  76  61  74  85 115  57  34  34 133 121 111  97  82  64  48  45  41  35  37  40  36  41  39  41  45  48  48  56  63  71  77  78  72  72  75  88  97  94  88  88  88  88  83  66  53  45  42  42  45  56 120 125 102  76  53  49  48  48  60 121 214 215 201 218 218 212 150 147 123 156 146 170 204 189 217 244 202
 127  73  57  57  57  56  58  72 132 166 178 195 113 103  74  73  84 110 118  90  46  32  31 124 121 113 103  92  84  67  46  41  38  36  36  37  39  37  41  43  43  47  52  62  68  74  72  70  69  72  83  92  88  83  82  82  80  69  56  47  43  39  40  48  78 126 127 104  86  58  50  48  46  54  84 196 163 186 222 244 156 198 160 157 109 130 116 183 166 245 207 233
  77  67  59  59  60  72 149 176 217 185 155 148 112 113 144 150 123 102 101  80  40  30  29 111 122 114 103  93  84  74  47  39  35  35  35  37  35  39  41  44  41  47  52  58  63  69  66  59  66  74  87  89  85  77  72  75  72  62  50  42  37  39  40  54 106 125 120 103  94  62  52  49  48  53 129 194 191 177 182 230 193 219 136 156 107 135 148 182 225 227 206 246
 124  63  64  91 124 193 207 174 195 175 138 158 115 104 155 135 147  96  90  65  37  28  26 102 123 118 104  94  84  84  60  41  34  33  34  34  38  39  37  42  42  46  47  54  57  56  60  57  62  72  77  77  77  66  61  58  60  55  45  46  40  37  40  75 113 120 114 102  97  70  53  49  48  52  94 156 175 180 206 210 238 191 181 172 138 123 184 138 201 141 220 212
 128 127 185 169 170 184 218 147 179 151  85  95 139 126 189 116 114 121  63  51  34  27  26  87 120 115 107  97  92  84  78  52  36  34  34  34  32  34  38  39  37  40  44  47  49  48  52  54  58  65  69  67  58  57  51  47  44  44  41  42  44  40  45  95 116 116 112 102  97  73  53  47  49  54 139 180 198 204 164 200 223 150 217 113 116 102 110 113 169 183 223 152
 213 179 214 198 195 161 207 107 159 144 137 182 186 147 154 190 129  64  57  44  33  26  28  74 119 115 108 101  96  88  84  72  48  35  31  32  29  32  32  32  34  36  40  39  42  39  50  52  49  54  59  55  47  45  43  40  36  35  35  35  35  45  80 106 113 111 108 103  96  79  55  47  47  53  84 144 210 173 202 183 202 180 154 129 148 132 122 161 132 174 135 192
 231 181 199 173 189 143 203 143 209 180 132 175 155 160 129 143 132  70  58  42  32  25  27  66 113 116 111 103  95  92  86  80  69  43  32  31  30  32  30  30  33  34  34  36  33  34  41  43  43  44  48  45  38  37  38  34  33  35  36  38  46  66  95 108 110 108 104 101  96  81  55  46  48  51  99 205 211 219 179 182 223 205 166 180 112  87  87 156 131 152 118 115
 215 191 174 132 157 141 147  89 114 147 127 154 113 128 118  71 110  44  53  41  31  26  26  60  95 111 108 104  96  91  89  84  80  68  45  35  29  30  31  31  31  33  31  31  30  31  33  37  38  38  40  40  34  34  35  35  34  35  41  54  72  89  96 105 105 102 103 100  95  81  56  46  45  49  56 148 193 187 203 204 178 194 124 119  94 140 149 154 229 154 173 130
 198 184 182 142 142 135 177 114 132 150 134 114  85 102 137  73 106  62  56  39  32  26  28  54  80 101 105 103  97  90  88  86  82  76  66  53  37  31  30  29  30  32  30  29  30  30  31  31  33  34  35  37  33  34  35  36  38  50  70  76  90  97 101 102 101 102 102  97  96  81  59  46  46  50  60 195 198 214 197 189 210 216 153 105 151 113 221 127 171  94 112  82
 193 190 137 147 140 204 134 214 128 187 134  91  62 100  89  83  75  61  56  41  32  24  27  44  70  87 101  99  94  91  86  87  85  84  82  76  61  51  41  34  32  34  31  31  30  30  31  32  32  32  33  32  32  36  41  47  56  76  84  87  94  97  98  99 100 100  98  99  96  83  57  47  44  47  63 106 180 171 197 222 180 175 200  99 161 132 201 179 172 126 143 116
 140 142 185 146 165 105 217 138 181 171  83 102  81 122  56 101  59  74  55  45  33  24  27  39  63  76  84  93  91  90  85  86  85  84  81  80  74  75  70  56  48  51  47  48  48  41  42  42  45  43  48  49  49  50  56  65  71  80  86  91  93  94  92  96  95  98  98 100  95  82  57  46  47  49  69 128 226 203 196 178 189 216 231 157 149 173 141 142  91  81  90  67
 151 179 129 154  94 216 152 178 185  94 139  79 101 142  47  97  92  58  57  46  32  25  27  36  56  69  78  88  90  89  86  86  86  84  82  82  78  79  78  75  73  72  71  77  74  73  74  73  72  73  74  70  73  68  70  77  78  83  87  91  89  89  93  94  94  96  96  98  96  79  57  46  46  48  69  62 171 184 188 215 207 196 190 182 130 198 130 172 102  93 134 106
  95  95 127 142 160 155 173 193 105 154  76  74  98  91  41  89  68  50  56  45  35  25  26  32  48  66  73  78  86  87  87  86  86  86  86  87  85  80  82  81  80  81  80  79  82  82  82  82  80  81  81  79  77  81  78  81  83  86  88  88  88  89  92  92  94  95  95  98  96  81  57  45  47  51  76  95 219 226 194 172 199 218 217 229 139 170  94  91  81  63  88  62
 163 128 138 124 124 148 194 120 144  83  67  90 143  93  61 107 106  41  54  46  38  25  28  32  44  60  68  72  77  83  85  86  87  87  87  87  86  86  84  80  81  83  82  80  81  81  82  84  84  83  80  83  83  82  82  82  83  85  86  87  89  90  93  94  94  94  96  99  95  82  60  48  46  50  80  77 127 195 194 217 217 194 189 214 162 157 153 103 117  85 133  96
