P2
# Generated by OpenCV 3.4.0
92 112
255
 109 109 110 110 112 114 113 111 112 113 114 114 113 114 115 116 115 116 115 115 116 116 117 119 120 117 122 120 126 134 135 152 161 155 159 148 143 148 154 164 184 186 194 210 196 197 189 186 190 207 172 165 160 151 146 142 144 145 145 146 147 150 149 153 153 155 157 160 160 163 163 166 168 170 171 174 176 179 180 183 185 188 191 193 194 198 201 205 206 210 212 215
 111 110 111 109 110 112 112 112 109 112 114 114 113 113 114 114 115 120 116 116 116 116 116 118 118 121 126 136 139 140 144 161 156 146 156 142 143 144 145 149 169 177 178 215 223 208 208 212 204 203 197 202 210 186 175 150 146 146 146 147 147 149 151 151 152 154 155 156 157 162 163 165 167 170 171 173 176 176 178 179 184 187 188 189 193 195 198 202 205 207 208 211
 109 110 110 111 109 111 111 111 111 110 113 114 114 114 112 113 115 116 115 114 118 118 118 118 118 123 132 137 141 135 129 139 141 138 145 131 126 134 131 138 163 187 173 183 230 229 221 239 219 226 236 202 225 243 217 187 161 162 159 147 146 147 148 151 153 153 154 155 157 162 162 165 167 169 171 172 175 176 176 178 183 183 186 186 190 193 196 199 201 203 205 206
 109 111 111 112 110 112 112 113 111 112 112 113 114 114 114 114 114 115 115 115 118 119 117 117 119 126 132 130 122 120 121 125 125 126 131 124 118 119 124 130 148 179 172 181 199 231 227 238 239 240 251 219 208 233 241 237 182 170 172 163 148 146 147 149 151 153 154 155 157 158 161 165 167 169 177 174 172 172 175 176 179 179 185 186 188 190 193 195 196 200 203 204
 109 110 108 110 111 110 111 109 110 114 113 114 113 113 114 115 114 114 114 115 116 121 120 119 124 127 126 112 103 114 119 122 122 125 129 122 112 118 129 130 136 161 177 167 191 218 234 235 245 232 242 248 233 228 251 252 248 201 174 190 171 150 148 150 151 153 154 156 158 165 163 161 162 165 171 174 170 171 173 175 176 178 179 183 184 187 189 190 192 195 196 197
 108 109 109 111 109 109 111 109 110 111 111 113 113 113 114 118 119 114 113 113 117 121 121 123 125 121 116 112 107 106 113 120 124 125 126 133 125 126 133 139 139 151 178 161 179 211 224 246 241 228 220 247 248 243 249 252 252 238 190 197 178 155 149 148 148 150 150 151 153 159 160 152 154 155 158 158 160 160 160 162 164 165 167 169 170 172 173 176 177 179 181 184
 108 109 108 109 108 110 111 109 110 110 111 112 110 112 113 115 139 116 113 113 117 120 119 130 129 119 115 115 106 103 109 114 120 125 126 126 132 127 128 152 144 161 175 182 175 193 212 229 229 214 219 230 251 251 251 252 252 251 198 194 159 160 172 143 135 133 134 137 137 136 141 138 140 141 144 145 146 150 150 152 153 155 158 160 162 165 167 168 172 174 175 178
 107 108 107 108 108 109 110 107 108 110 111 111 111 111 115 112 136 122 113 116 116 118 122 128 116 114 113 111 112 100 104 115 123 118 123 128 130 133 121 142 151 159 166 179 161 172 188 188 208 198 187 223 246 250 249 251 250 250 229 203 182 156 190 196 184 180 140 132 147 143 135 133 133 136 137 138 139 141 143 144 145 147 150 151 154 155 158 159 160 164 166 169
 107 107 108 106 106 108 108 108 108 110 109 110 110 110 118 114 118 126 121 115 113 114 115 115 109 117 127 119 110 104 106 109 118 122 126 129 125 133 132 131 141 145 160 164 156 159 163 153 171 173 166 186 220 242 233 251 247 252 251 233 210 174 173 202 131 147 189 140 122 164 138 123 125 125 130 132 134 137 138 141 143 145 148 149 153 154 157 159 163 164 167 169
 107 108 110 108 107 108 109 110 110 110 108 109 110 111 121 125 118 124 123 100 101 109 118 117 110 108 124 121 112 105 107 111 112 113 124 126 125 125 131 131 138 137 148 148 146 150 145 142 156 160 160 167 186 207 231 226 251 251 251 251 247 192 214 197 155 134 153 176 144 136 181 134 130 131 134 134 138 138 138 142 142 144 145 147 147 150 152 154 156 159 160 161
 106 108 109 107 107 107 108 109 109 108 108 110 111 114 127 129 120 120 113 106 104 110 121 128 127 107 105 116 114 108 110 116 119 113 117 121 122 121 125 135 134 132 135 138 140 140 138 140 146 152 154 161 171 179 207 207 213 245 236 247 252 232 209 240 192 134 174 133 146 143 143 165 128 126 127 128 130 133 134 135 138 139 142 145 148 150 152 155 154 157 159 161
 105 106 106 107 107 108 106 106 108 108 107 112 119 138 134 129 123 120 110 109 108 108 106 116 117 110 102 107 107 109 103 110 117 123 117 122 126 120 121 130 133 135 139 137 132 135 136 136 143 150 156 157 165 168 171 174 173 205 191 226 252 251 235 249 236 184 151 147 139 144 133 152 139 135 129 130 130 133 134 137 137 141 143 144 146 149 151 152 153 154 156 160
 106 107 106 106 106 107 106 107 106 109 110 118 133 142 132 127 128 119 111 108 106 102 100 100 104 111 104  94  97 102 101 101 105 115 112 118 132 127 123 125 131 136 142 140 135 135 136 139 142 148 152 152 158 163 157 159 157 175 168 187 248 252 251 252 249 235 198 169 147 144 139 135 134 131 130 132 135 137 140 142 146 153 152 150 152 154 156 158 159 162 164 167
 105 104 106 105 106 106 107 106 106 111 117 116 118 129 128 120 121 120 121 108 103 100  98  96  98 102 103  98 100 101 102 105 109 112 111 116 123 128 127 127 133 138 140 141 141 137 139 141 144 149 155 156 165 165 154 151 153 164 166 182 217 236 250 252 250 241 220 206 169 165 158 143 144 143 143 145 148 150 159 163 161 159 159 160 163 164 166 166 167 170 170 173
 105 104 106 106 107 107 107 107 113 116 115 116 118 126 128 120 114 118 108  97  92  91  90  90  92  97 106 108 109 109 114 114 116 118 118 122 124 125 128 132 135 140 140 142 144 140 141 143 143 146 151 160 162 161 157 149 156 164 177 188 207 230 245 251 252 249 242 237 203 168 194 169 152 149 150 150 155 155 158 156 155 157 157 160 161 162 164 166 168 169 170 171
 105 104 104 104 105 105 106 112 121 114 112 114 122 136 141 119 105 105  96 105 101  94  94  96  97 103 115 126 128 128 125 126 126 127 128 131 135 133 133 136 138 143 143 146 149 151 148 150 145 148 155 161 166 169 160 161 165 178 187 196 217 238 247 251 252 252 250 241 216 169 169 203 156 152 155 152 152 152 153 154 154 155 156 157 158 161 162 162 165 167 169 170
 104 105 104 104 102 104 109 117 122 114 110 113 121 136 133 122 112 103 102 105 108 104 103 101 102 107 117 129 139 137 150 147 145 142 141 142 146 147 149 147 148 150 151 152 154 159 157 156 155 154 153 159 164 166 161 169 174 181 188 202 222 247 251 252 252 252 248 220 200 160 167 164 160 149 152 148 149 149 150 152 153 153 155 156 158 159 160 162 164 165 165 164
 104 102 101 102 101 108 115 123 116 111 111 119 126 136 116 115 112 108 109 117 114 111 110 115 114 117 125 133 139 146 160 161 157 152 149 153 156 158 159 161 162 160 160 162 165 165 166 167 164 160 156 155 156 162 169 171 180 185 189 198 222 248 252 252 252 252 252 246 202 177 157 173 167 155 146 146 147 147 148 151 151 152 154 155 156 155 157 159 161 161 163 164
 101 102 102 103 104 108 117 132 117 109 112 123 125 122 108 111 112 114 113 114 112 113 114 117 122 128 134 138 146 147 159 162 159 153 153 153 158 160 165 166 168 168 165 171 172 172 173 175 168 166 163 161 163 169 173 179 183 188 189 196 210 238 251 252 252 252 252 252 236 175 166 177 189 165 150 148 145 146 146 148 149 150 151 152 154 154 157 157 156 159 160 162
 100 100 101 101 103 105 124 138 113 109 117 124 119 104  99 112 111 110 113 119 119 120 122 125 128 134 141 146 153 151 152 155 154 153 153 155 159 161 167 169 168 168 169 173 176 178 179 177 174 172 170 168 168 170 177 178 183 188 196 198 201 219 248 252 252 252 252 252 252 218 166 183 195 183 158 146 145 146 145 146 147 149 151 151 154 153 155 155 155 156 156 158
  98 101 101 101 102 105 136 128 108 115 121 128 115 106 113 111 113 117 122 128 129 130 132 134 140 145 148 150 148 148 149 151 149 150 149 156 157 158 163 169 167 168 171 173 176 178 178 178 177 174 173 168 169 176 180 182 183 190 197 203 205 209 231 250 252 252 252 252 251 225 162 163 207 190 178 156 145 143 142 144 147 147 150 148 150 150 153 153 154 154 155 155
 100 100 101 101 101 106 137 127 109 121 122 120 108 114 114 117 120 125 134 135 138 140 143 143 146 147 148 150 147 146 147 145 146 146 149 151 153 156 160 165 167 167 168 171 172 173 177 179 178 176 176 173 175 180 184 183 183 182 186 190 207 227 223 243 252 252 252 252 252 233 168 160 167 181 171 148 152 143 143 144 143 145 147 147 147 149 151 152 153 153 153 154
  98  99 100  99 100 106 136 124 118 123 116 111 112 110 113 121 128 131 146 146 145 146 149 148 148 150 150 149 150 147 146 145 145 144 143 145 148 151 153 161 164 164 166 167 167 168 170 174 174 172 172 170 171 174 180 182 185 183 183 186 188 201 237 242 251 252 252 252 252 248 184 158 155 155 156 140 142 145 142 142 143 142 144 145 147 148 148 150 152 152 151 151
  98  98  99 100  99 106 137 123 122 124 113 116 116 114 121 127 136 146 158 154 151 151 150 152 150 150 148 145 146 146 145 142 141 142 145 146 149 151 152 158 161 165 165 164 163 166 166 163 164 166 167 166 166 170 175 176 181 178 177 182 179 182 190 224 249 252 252 252 252 252 221 193 153 146 147 144 140 140 140 140 141 142 142 144 145 146 147 147 148 148 148 149
  96  98  97  98 101 103 134 131 131 120 119 116 112 126 132 131 140 158 176 165 153 151 150 151 148 146 145 144 142 145 145 142 141 139 148 147 145 148 150 155 151 155 159 161 165 165 163 163 163 162 162 162 163 167 168 168 171 168 164 174 177 180 182 189 212 235 250 252 252 252 244 182 149 141 144 157 145 139 139 139 140 140 140 141 140 142 145 146 147 148 147 148
  98  96  97 100 100 104 135 134 127 116 115 111 124 133 130 132 148 174 184 177 160 152 149 147 144 142 145 143 141 143 140 141 139 139 140 142 141 142 145 150 150 153 156 161 164 163 163 160 161 162 157 161 161 160 158 162 158 159 161 169 173 177 179 182 194 221 242 251 252 252 252 209 150 140 143 139 138 134 137 138 138 138 140 140 140 140 143 142 144 145 146 146
  95  94  95 100  98 104 136 137 125 115 112 112 133 132 132 140 157 181 189 177 165 155 147 147 144 142 143 141 139 138 137 137 138 137 138 136 133 138 140 144 151 154 155 161 160 161 160 158 161 159 158 158 158 156 154 157 160 160 164 168 172 172 172 175 184 206 228 248 251 252 252 236 152 138 140 135 136 133 136 136 135 137 138 138 139 138 140 141 143 143 144 145
  95  96  96  97  96 101 130 142 120 110 110 126 136 135 139 144 161 177 183 173 161 152 142 143 143 141 139 140 139 137 136 134 133 134 133 137 137 135 136 139 144 147 147 147 150 153 153 154 151 152 153 154 154 159 161 161 164 161 160 163 166 165 167 166 169 187 212 230 247 251 252 246 168 142 142 146 133 131 133 132 136 135 136 137 137 139 139 140 140 140 141 144
  95  95  95  97  97 104 126 136 114 104 136 150 136 143 142 146 156 171 176 166 157 147 138 139 140 140 141 139 137 133 134 133 130 131 131 132 134 135 136 135 141 143 145 155 155 159 160 162 164 162 161 161 162 163 164 163 163 163 160 159 160 162 164 162 161 172 199 230 233 243 252 252 200 153 169 147 134 132 132 132 134 133 134 134 136 136 138 138 136 139 140 141
  95  93  94  96  98 108 125 138 117 117 162 139 145 147 142 147 151 161 164 159 152 143 140 137 137 138 139 137 135 132 132 131 129 126 129 129 128 128 130 133 139 145 147 150 150 150 157 161 161 161 162 161 160 158 156 160 162 165 164 161 158 159 158 159 160 165 176 186 205 223 249 252 225 149 134 145 132 131 131 130 132 130 132 133 133 134 135 136 137 138 136 135
  92  92  94  96 105 113 130 139 131 130 146 149 146 144 146 149 149 151 157 159 150 144 138 136 132 131 135 133 131 132 129 128 126 125 125 125 128 127 130 130 134 140 146 144 142 145 157 161 163 164 162 157 157 154 157 160 161 164 163 162 160 160 158 157 158 159 165 172 187 216 235 249 248 165 133 131 131 129 129 130 129 129 131 133 132 133 135 134 134 136 135 136
  92  93  93  95 111 118 127 125 129 130 152 145 136 137 144 148 149 148 151 153 146 138 133 130 129 129 130 130 129 128 128 125 122 122 124 124 125 128 126 128 130 134 138 137 143 149 155 158 159 163 164 159 159 157 156 159 157 155 158 161 160 159 159 158 158 158 165 171 177 196 220 238 251 194 138 128 130 130 127 127 128 127 128 130 129 130 131 132 133 135 132 133
  93  93  93  97 128 117 125 123 125 132 146 142 133 137 146 148 148 143 146 144 137 131 133 129 127 127 127 128 128 127 125 121 122 122 122 122 125 127 127 128 133 135 141 144 147 148 150 155 157 154 155 155 153 153 155 156 155 159 161 164 164 163 163 160 158 157 160 169 170 174 196 224 249 222 140 129 128 127 126 126 125 124 128 130 127 129 131 130 131 132 133 134
  91  90  94  96 125 112 114 120 127 137 140 136 134 137 146 148 143 141 139 135 134 131 130 127 124 124 126 126 126 128 128 129 128 129 131 135 137 136 137 137 140 139 143 148 147 144 149 149 151 152 151 152 156 164 166 167 165 164 164 165 165 163 165 164 162 162 168 174 177 174 185 206 239 234 147 126 125 124 124 125 125 124 126 127 126 128 130 130 130 131 132 131
  89  90  97  98 121 109 111 121 131 133 129 127 131 138 145 145 140 136 134 132 128 127 124 124 124 123 123 124 126 128 130 129 128 130 131 138 137 139 139 141 141 139 142 146 147 148 151 156 161 164 158 158 160 162 164 162 159 162 162 160 161 162 164 164 164 167 170 172 176 181 187 206 234 243 148 128 124 123 122 121 123 122 126 125 126 126 128 127 127 127 129 127
  87  91 102 101 124 105 104 127 146 124 118 125 135 141 146 143 138 133 130 129 128 125 121 122 123 120 122 125 126 128 128 131 132 131 131 138 139 141 139 142 141 142 143 144 144 147 152 156 161 162 162 163 158 153 150 155 157 164 166 164 163 165 164 165 163 165 166 169 175 179 193 207 238 251 173 134 124 123 121 122 124 124 124 124 122 125 126 127 126 128 127 128
  87  90  96 103 120 106 100 123 134 127 127 130 140 144 147 142 135 130 128 125 121 121 120 120 121 123 124 122 124 125 129 130 130 135 134 133 136 138 138 141 144 143 142 144 146 150 150 150 156 159 160 160 155 152 152 155 159 164 166 166 166 166 164 167 166 166 166 172 181 189 196 207 240 252 170 130 123 120 121 122 122 122 124 122 123 123 125 126 126 123 125 126
  88  89  91 107 114 112 105 107 115 123 129 130 137 142 143 137 130 125 125 124 120 118 119 119 121 121 122 119 121 124 126 130 130 130 134 134 138 140 141 143 145 150 147 148 146 151 152 155 157 156 156 156 156 157 159 159 159 159 161 163 165 166 166 166 166 166 169 173 181 187 196 209 237 252 185 131 122 119 119 120 119 121 120 120 122 122 122 122 124 124 124 124
  88  88  92 102 107 109 101 101 106 114 116 129 133 134 139 132 128 127 124 123 123 119 119 119 120 118 117 116 118 123 124 130 135 132 133 135 141 142 143 144 145 145 147 148 146 148 152 151 152 153 154 155 156 157 157 156 152 154 156 158 163 166 167 166 169 168 169 175 184 197 208 220 242 251 192 131 119 118 117 118 118 118 119 118 120 120 120 122 122 121 123 123
  89  89  89  93  99 108  95  98 107 112 112 121 131 131 135 129 128 124 121 122 121 120 119 120 120 119 116 117 119 121 124 128 133 132 133 137 137 139 141 142 144 142 146 146 145 144 146 147 148 149 148 148 147 146 146 144 145 146 151 155 158 161 165 163 165 169 172 183 198 216 232 237 250 252 186 131 119 117 118 118 119 118 117 118 119 119 118 120 120 120 120 122
  87  86  89  88  93  99  93  95 114 108 110 122 128 130 132 128 123 123 122 121 120 121 121 119 122 123 119 116 120 119 123 126 130 132 136 133 136 138 139 141 145 144 146 146 143 139 140 143 144 143 142 142 142 140 139 139 141 142 144 147 148 152 155 156 161 168 180 187 196 217 241 251 252 252 182 130 119 117 117 117 118 118 118 118 119 118 118 120 118 118 118 119
  86  85  87  86  95 106  93 102 104 105 116 122 124 132 128 127 124 123 122 120 118 120 120 118 120 120 116 119 118 119 122 126 129 135 138 139 139 139 134 136 138 139 139 141 138 136 135 138 139 140 141 140 143 144 140 136 137 139 137 137 137 142 145 148 154 164 169 175 185 200 222 241 252 252 182 129 118 117 117 116 117 117 116 117 116 117 118 118 118 118 117 118
  86  85  86  88  98 107  91  88  86  96 111 117 119 112 113 120 121 118 117 117 120 117 119 118 118 118 118 117 118 120 124 129 130 134 137 139 138 136 135 131 132 131 129 130 131 132 132 131 136 138 137 136 136 139 139 134 134 136 134 130 123 129 133 140 143 149 152 150 155 164 188 219 246 252 176 127 118 117 116 116 116 117 116 117 116 117 117 117 118 118 118 117
  86  85  83  89 100 105  93  83  85  97 104 110 115 115 112 118 119 114 116 118 122 119 119 120 118 119 118 116 119 126 128 128 127 128 128 131 126 126 129 122 121 115 114 110 114 123 119 124 129 133 133 133 132 135 134 132 133 131 132 127 123 123 123 125 128 135 142 142 146 143 146 190 229 252 174 123 116 117 116 117 116 115 116 116 116 115 116 117 117 117 118 116
  89  87  88  88  95 102  89  83  90  94 102 104 109 118 121 120 119 118 117 118 120 122 119 120 120 120 122 126 126 127 125 121 120 119 113 111 112 103 102 101  98  99  98  97 101 109 107 114 120 127 128 129 130 130 133 131 131 129 126 121 118 118 115 114 111 109 113 115 115 113 116 141 180 227 178 122 116 115 115 115 115 115 116 114 117 115 116 116 117 116 115 117
  88  86  89  88  88 103  88  88  86  91 106 105 112 126 126 122 121 119 117 119 123 122 120 123 125 127 126 130 129 119 119 112 107  97  92  92  90  85  80  85  86  90  88  89  91  96 100 106 110 116 121 124 125 126 130 130 125 125 120 115 110 110 105 101  98  96  95  97  94  96 102 110 134 172 158 122 116 114 116 115 115 114 116 115 115 115 115 114 114 116 116 114
  86  88  89  87  90 102  92  91  89  99 104 110 114 127 124 119 120 119 120 121 127 129 127 130 131 135 135 127 120 110  98  92  83  82  80  77  76  74  72  74  81  86  87  83  88  91  93  93 104 106 113 119 121 121 124 126 119 118 112 108 104 101  97  94  91  91  92  98  99 102 106 109 116 150 168 129 117 114 115 115 115 114 114 114 114 114 114 116 116 116 115 115
  87  89  87  88  86  91  86  80  92  94  98 109 113 127 123 119 120 120 121 124 132 132 132 137 142 141 130 112  99  92  84  76  72  76  77  74  70  73  73  73  77  81  84  84  82  86  88  89  95 103 107 114 117 122 121 122 115 111 104  99  99  94  92  93  94  97 102 105 104 102 106 110 115 140 188 132 119 119 118 119 120 118 119 120 121 118 120 120 120 121 119 122
  87  88  88  88  90  84  75  74  78  80  92 109 116 127 125 121 123 125 127 130 132 136 142 141 136 122 101  86  81  81  84  82  80  81  83  83  83  83  84  85  83  84  85  85  84  85  84  86  92  97 104 108 110 119 119 119 111 106 100  96  94  92  93  98 100 101 103 101 101 104 107 109 118 140 169 128 124 121 120 122 123 122 122 121 122 121 121 120 121 121 119 120
  86  88  89  89  95  89  74  66  68  75  84 103 115 128 125 125 126 127 129 132 134 139 140 135 119 105  92  86  82  84  87  88  84  83  85  88  86  86  88  88  87  88  88  87  88  88  87  87  89  94  98 102 106 114 119 117 110 104  97  96  94  95  95  96  98  98  97  95  99 102 106 108 116 143 163 125 123 120 119 120 121 122 121 121 120 122 120 119 121 123 120 119
  96  95  96  97 102  94  73  68  71  71  82  97 111 126 132 127 128 128 131 132 135 140 132 117 102  92  89  92  91  91  90  89  87  85  86  88  85  87  87  86  85  84  84  86  87  90  90  90  91  93  96 100 102 109 116 114 112 104  98  95  94  92  91  90  90  89  93  97 102 102 105 103 111 155 143 124 121 120 120 119 119 119 120 118 119 120 119 119 120 120 119 118
  97  98  99  99 101  95  73  71  76  76  84 103 113 128 138 131 128 129 130 133 136 129 115 103  93  90  90  94  91  90  89  87  89  86  86  85  84  85  82  81  79  79  80  78  82  83  86  89  92  92  94  98 101 108 114 117 112 103  96  91  90  89  87  84  87  89  93 103 112 111 106 107 112 179 127 122 120 118 118 120 118 118 119 118 119 118 118 118 119 119 118 118
  99  99 100 101  99  98  79  74  82  84  89  99 116 131 135 131 127 127 129 129 123 122 107  97  96  93  94  92  92  90  88  86  87  85  86  84  84  83  80  78  77  73  72  73  74  78  81  86  89  92  92  95  99 108 116 119 115 103  88  86  84  80  78  77  80  89 102 122 134 130 110 105 117 195 128 119 118 120 117 119 119 118 117 117 119 118 118 117 117 118 118 118
  99 100 103 103 102 101  92  77  85  86  92 100 121 137 138 131 126 124 126 121 114 107 102  97  96  94  90  89  90  90  86  86  84  83  81  80  79  77  76  72  68  67  68  68  68  70  75  82  86  90  91  93  99 110 122 126 121  97  81  76  73  73  73  75  79  88 102 120 132 134 117 107 130 201 127 117 117 118 117 116 116 118 118 117 116 116 118 117 117 117 118 117
 119 120 111 104  90  88  90 100  85  78  86 101 121 136 138 132 126 125 124 119 109 104 100  97  92  91  87  86  87  85  83  83  81  81  79  79  78  76  74  71  66  63  61  60  59  64  70  76  83  85  88  94 102 115 127 132 129  89  75  73  72  76  75  76  76  82  91 104 112 119 118 108 146 202 124 118 116 116 116 116 116 116 116 116 117 116 116 117 117 116 116 115
 145  98  94  91  84  85  88  93  90  85  88 102 118 137 137 132 128 125 120 113 107 103  98  95  90  88  87  85  85  84  83  85  84  82  82  78  75  71  69  68  65  62  59  60  58  60  64  72  79  82  87  95 104 118 132 135 134  93  69  62  65  71  78  86  87  81  80  84  95 105 112 110 162 203 125 117 116 117 115 116 115 116 115 115 116 116 114 116 116 116 116 116
  95  82  78  77  82  84  87  91  93  98 104 113 129 142 137 132 126 124 116 111 106 102  98  93  87  86  84  81  82  86  90  88  84  82  79  74  72  70  67  61  59  52  50  50  57  66  66  68  76  80  87  97 110 123 137 142 144  97  69  67  69  68  72  80  88  92  85  80  83 116 141 142 190 205 127 117 116 115 116 116 114 116 115 115 116 115 115 116 115 114 116 115
  75  65  63  68  72  80  82  88  88  91 101 113 138 141 139 131 126 127 117 111 105 103  97  90  86  83  81  81  85  89  86  81  76  73  71  70  67  65  59  53  50  51  52  53  61  66  66  69  76  80  88 102 119 128 140 147 148 110  75  73  71  72  73  74  76  76  76  78  87 130 165 168 208 209 129 116 117 116 114 115 115 114 116 115 115 113 115 114 115 114 114 114
  67  61  60  66  72  78  71  75  87  88  94 109 139 142 140 132 128 122 116 110 104 101  97  90  85  82  81  81  81  82  75  64  61  59  60  61  60  59  57  54  55  58  56  58  61  64  67  71  75  82  90 106 123 134 146 150 152 128  76  75  75  77  81  84  84  83  87  90 100 139 155 165 202 216 134 117 115 115 115 112 114 113 114 114 115 114 113 114 113 115 113 112
  64  61  62  65  70  75  67  70  83  84  88 103 131 141 139 135 129 125 116 109 102 103  99  95  89  89  91  92  92  93  87  72  63  62  60  61  63  61  67  67  64  61  59  58  58  66  68  73  77  88 102 117 127 135 149 154 156 147  90  75  76  79  82  86  89  92  96  97 106 134 151 168 204 212 144 119 114 114 114 112 114 112 115 113 113 114 111 113 112 113 113 112
  62  58  58  66  74  78  85  80  69  79  82  93 116 134 136 132 128 122 115 108 104 100  99  96  95  98 100 102 102 101  94  84  79  77  75  73  75  75  72  70  65  59  58  57  59  68  73  81  93 105 118 127 134 142 147 153 157 149 121  87  78  79  84  88  94  98 100 100 107 133 157 175 211 213 133 115 115 115 113 112 113 111 113 112 111 112 113 112 112 111 111 113
  65  58  59  70  83  86  84  64  55  65  76  90 108 125 130 128 126 122 119 108 105 101  99  98 100 103 105 106 105 104  98  94  89  85  83  81  80  77  74  69  64  59  60  62  66  72  80  90 107 117 124 132 137 145 149 152 155 152 137 111  91  84  85  89  93  98 100 102 114 141 163 180 212 212 137 107 113 114 113 111 112 112 110 110 110 111 111 111 112 113 111 111
  74  60  58  77  88  87  76  62  53  56  72  96 103 120 123 124 128 124 119 110 108 105 103 101 102 101 104 106 103 100  96  94  90  89  87  84  85  78  71  68  64  64  65  68  72  77  89 103 115 121 128 132 138 143 146 150 152 149 141 128 111  94  86  87  92  94  97 103 125 149 164 178 207 195 138 118 107 112 110 110 110 110 111 110 111 111 111 110 110 111 111 110
  90  68  65  80  88  79  70  58  56  60  82 100 100 112 122 124 125 125 119 111 109 106 105 104 101 103 101 104 101  98  93  94  90  86  86  85  83  78  72  68  67  67  71  75  80  86  98 111 119 122 125 128 131 138 146 152 152 143 138 133 122 109  92  88  91  94 100 112 130 150 162 176 203 175 128 117  96 106 111 111 109 110 111 109 110 110 109 111 110 110 109 109
  99  78  65  77  91  78  63  55  56  62  82  98  97 108 120 121 127 126 122 113 110 107 106 104 104 103  99 103 100  99  97  97  94  88  86  83  81  76  72  69  70  74  77  79  84  91 102 112 115 119 121 125 128 135 145 152 150 144 136 132 128 119 105  95  94  99 107 119 134 142 149 166 205 127  96 107  89 101 110 110 109 110 110 109 108 109 110 109 110 109 108 110
  98  94  73  73  90  72  58  53  53  58  74  92  97 105 116 120 129 128 120 115 112 108 106 105 102 100  99 101  98  97  99  94  94  91  87  84  80  78  76  77  78  80  83  84  89  93 100 106 112 117 121 124 128 136 139 149 149 146 139 134 128 122 116 108 104 108 113 122 131 135 135 152 198  88  77 112 102  98 109 110 110 109 109 109 109 109 108 109 109 109 108 108
  96 101  84  70  88  74  57  52  51  54  60  77  93 104 112 118 124 128 124 113 107 107 104 103 101  98  95  98  95  92  94  91  88  86  85  84  77  78  82  83  85  86  87  90  89  95 103 107 111 118 125 126 129 135 143 152 150 148 144 136 129 125 122 118 116 114 119 122 124 127 131 144 180  80  68  88 112 106 108 109 106 108 106 108 110 108 108 108 107 107 108 108
  97  97  96  81  80  83  72  64  55  61  67  63  74  98 111 117 122 125 123 111 106 108 105 100  97  97  96  94  95  93  90  90  88  85  84  84  82  84  89  91  89  91  95  92  90  96 101 104 112 118 122 127 129 133 140 149 155 151 143 137 126 125 125 125 121 120 123 123 122 121 127 144 150  77  85  95  95  89  98 107 107 108 108 108 107 108 109 106 107 107 107 108
  97  96  98  92  82  81  84  83  93  99  93  71  62  90 109 118 122 123 122 112 108 104 100  93  93  93  94  92  92  92  89  90  89  87  85  85  89  89  93  92  93  95  93  89  90  90  96 102 111 115 124 129 130 133 142 154 162 154 145 137 120 120 124 128 126 126 128 127 122 122 126 146 122  89 111 115 101  93  98 106 106 107 109 106 107 106 108 106 108 106 106 107
  96  97  98  96  95  84  74  74  86  99 101  89  86  94 106 117 119 118 122 112 104 102 100  92  90  93  90  91  90  90  90  87  86  88  88  90  91  93  94  96  97  92  91  90  87  88  93 100 106 117 122 129 132 134 142 154 163 154 153 148 127 119 122 128 127 125 125 126 122 122 127 159  86  74  88  97  96  96 103 105 105 105 106 106 105 104 106 108 106 106 105 106
  97  97  96  97  98  97  86  87  95 101  98  91  89  90 103 109 116 118 117 109 104  99  96  91  89  89  89  88  88  87  87  90  87  88  88  91  93  93  95  96  96  94  89  86  84  87  93 101 112 119 126 129 129 136 146 150 157 158 154 158 146 120 121 125 128 127 127 125 125 126 133 140  83  77  80  73  74  82  99 103 105 104 105 105 105 104 105 106 105 105 105 105
  95  95  97  96  97 102  96  99  97  95  94  93  87  83  96 110 115 114 113 109 104  98  96  93  88  88  87  87  89  88  88  91  86  90  90  91  93  95  96  99  94  91  88  83  83  87  98 106 118 124 129 133 135 140 143 144 149 151 152 160 164 133 121 124 126 128 128 125 127 130 140 132  88  85  86  72  59  73  99 104 104 104 104 105 106 104 103 105 105 103 104 104
  94  94  97  96  97  98 100 102  96  90  91  90  85  79  87 107 112 113 114 107 103  96  94  93  90  87  85  86  89  89  90  90  88  88  90  90  94  95  97  99  99  95  85  78  79  88 101 107 117 126 131 135 133 134 135 136 135 138 142 151 165 160 119 121 123 124 127 126 126 134 150 122  88  87  89  71  53 170 117 106 103 103 103 102 103 103 103 102 102 104 104 103
  95  95  95  95  97  96  95  99  98  90  89  88  85  82  81 100 111 113 115 111 104  99  96  91  90  86  86  86  89  89  91  89  89  90  92  95  94  95  96  96  93  88  81  76  76  88  99 103 110 119 122 124 124 127 127 126 125 130 137 145 161 177 126 122 124 126 126 124 128 138 158  86  68  66  77  75  67 211 185 113 104 102 103 102 102 102 102 103 101 102 104 102
  94  94  94  95  96  96  96  94  90  82  86  85  83  81  77  94 107 111 114 111 107 100  96  92  92  87  87  85  88  90  90  90  91  90  94  95  96  98  95  92  89  88  81  73  74  86  94  97 100 107 110 114 115 119 119 120 119 121 126 137 148 178 129 120 123 124 124 125 129 139 154  69  61  65  76  71  92 219 220 115 103 103 102 101 105 101 101 104 102 101 101 101
  94  95  95  96  94  94  94  90  46  35  56  80  79  78  79  94 107 110 110 107 107 101  94  91  90  88  88  86  89  89  88  89  92  93  95  97  97  98  97  97  91  87  80  73  71  84  93  93  91  93  96 101 105 108 112 109 109 113 116 122 137 165 126 122 122 125 131 130 129 137 139  66  63  61  65  68  93 154 141  90  81  84  87  87  90  92  98  99 119  99 100 101
  93  94  95  93  94  94  93  73  30  28  27  37  56  57  59 108 106 110 102 104 107 103  93  90  88  86  89  87  88  89  90  90  95  96  96  98  99  98  97 101  95  88  84  78  72  78  89  91  88  88  88  92  92  95 101 100 101 103 106 110 125 144 132 125 126 127 131 133 132 136 103  55  47  46  46  46  49  58  59  53  48  48  48  46  49  49  50  50  50  49  91  97
  91  92  94  94  92  93  93  72  32  26  25  24  30  38  57 104 105 109 104 104 107 102  94  89  88  87  88  87  89  91  92  92  97  98 101 100 103 103 104 101  98  92  87  81  73  71  75  79  75  72  81  85  88  88  88  90  92  94  98 100 121 137 136 132 129 130 133 135 138 150  88  54  50  49  47  47  48  48  49  49  47  47  47  46  46  45  46  45  45  44  88  97
  91  91  93  92  93  92  92  88  48  32  32  34  42  53  60  98 114 113 111 108 107 103  97  90  90  88  88  89  91  92  94  95  97 101 102 105 106 107 106 104 102  98  93  86  79  76  76  73  66  64  69  75  82  86  86  85  86  89  90 108 133 140 138 134 134 135 140 140 139 146  62  51  48  48  47  46  47  48  47  46  46  46  46  44  46  44  44  42  42  44  84  95
  91  91  92  92  92  91  91  91  86  55  57  56  59  62  60  79 124 112 114 110 107 104  98  91  89  88  89  91  91  93  98  98 100 101 103 109 111 110 108 106 107 104  96  87  82  78  77  77  76  70  69  70  74  81  84  84  85  83  83 114 133 138 135 132 130 133 140 144 141 131  60  50  49  47  47  48  46  47  47  45  45  44  46  44  44  42  43  42  40  40  82  94
  90  89  91  90  89  90  91  89  90  73  63  63  65  62  52  56 120 117 113 114 108 103  99  92  89  89  88  91  91  95  97 101 103 103 105 110 113 109 109 111 112 107 100  89  79  76  72  71  69  67  67  68  69  73  76  74  72  70  74 102 118 128 128 125 128 130 142 147 148 129  57  49  48  45  46  45  47  46  44  45  44  43  44  42  43  41  43  42  41  40  81  93
  90  88  90  89  89  89  89  90  91  68  45  51  55  40  41  46 106 126 118 115 110 105 102  94  90  91  90  92  94  99  97 101 104 106 110 112 113 111 111 115 115 108  97  84  78  70  66  64  60  60  62  67  68  70  73  71  67  65  72  91 106 117 118 114 117 129 140 152 149 114  55  47  46  46  46  45  45  45  45  45  44  41  43  42  44  40  42  39  39  39  76  94
  89  88  88  89  88  88  89  89  88  82  51  43  51  45  46  53  93 123 118 115 112 105 103  98  92  91  91  93  97 100 100 105 106 108 111 111 112 109 111 110 108 100  87  78  70  64  62  56  52  55  58  62  63  69  71  67  63  65  72  82 101 106 110 102 101 117 134 155 158  98  56  48  46  46  45  44  44  44  44  44  43  42  43  41  41  40  40  41  39  38  74  92
  91  91  90  90  90  91  90  88  89  84  64  62  61  58  65  59  75 125 122 117 115 109 106  99  92  90  94  97 100 100  99 104 107 110 110 110 108 102 100  99  97  90  80  69  59  59  58  49  51  50  54  57  61  66  67  62  62  66  75  76  84  91  94  90  74  89 121 158 165  96  68  48  47  45  44  43  44  44  42  43  42  43  42  41  40  41  41  40  40  38  72  92
  95  92  90  88  86  87  84  81  81  79  79  74  73  71  70  63  55 123 121 119 115 111 105  99  96  92  98  99 100 101 104 104 108 107 109 108 107  88  83  85  79  77  69  60  54  53  51  49  48  50  52  57  58  62  61  57  61  70  75  72  72  79  80  77  71  73 114 160 152  97  58  46  45  44  44  44  46  43  40  43  41  42  42  41  41  40  39  38  39  37  71  90
  89  72  70  69  66  65  64  59  60  59  58  58  54  56  56  54  36 107 121 119 112 114 109 102  98  94  98 101 100 104 103 105 107 108 109 105  94  74  73  74  68  68  61  61  54  49  48  50  48  50  54  56  56  61  56  54  60  74  73  70  73  69  73  73  66  83 121 167 148 137  71  49  44  44  45  42  45  44  43  42  42  42  41  40  40  39  39  38  38  37  66  90
 111  48  57  59  57  56  56  53  54  52  53  52  51  52  52  50  30  85 121 117 114 117 111 102  97  95  97 102 104 104 105 106 107 106 108 103  82  69  65  66  65  61  58  57  55  50  48  49  51  58  56  55  54  53  53  55  59  71  80  76  80  72  74  79  80  92 121 169 146 126 120  73  48  44  45  45  44  43  43  42  43  42  40  40  40  39  38  38  38  37  67  90
 117  66  48  53  53  52  53  52  50  51  50  50  51  50  51  48  33  74 124 117 116 118 115 106  97  94  98  97 103 104 104 105 107 107 103  95  75  64  61  59  60  57  57  56  62  55  50  54  58  63  63  62  58  52  53  60  69  71  77  76  69  65  71  72  78  90 113 155 133 104 112 129  57  47  45  46  46  45  42  44  42  40  40  40  40  39  39  38  39  37  66  89
  52  48  48  46  48  52  51  50  50  49  50  50  50  50  51  51  43  63 124 117 116 115 112 113  99  91  94 101 102 105 104 105 104 108 104  89  73  67  62  62  63  63  68  68  71  66  64  65  65  67  70  70  67  63  63  66  73  70  62  56  56  66  70  73  79  89 114 141 128 107  84 136 143  59  52  51  51  49  47  46  44  42  42  39  41  40  38  38  38  38  65  90
  48  48  48  45  45  46  48  50  50  48  49  51  51  51  52  51  40  42 119 116 113 114 112 119 101  94  94  98 104 105 105 106 106 106 103  89  80  76  77  71  64  61  67  68  67  64  62  64  64  68  68  68  67  69  68  63  56  51  52  59  72  79  80  83  89  96 123 138 122  96  83  83 160 184 180 158 158 161 122  55  47  45  42  40  38  39  39  39  38  38  64  87
  46  47  48  48  47  47  49  51  51  50  51  52  53  52  54  53  25  25 107 117 111 114 115 106  99  88  93  97  99 104 104 103 104 104  96  88  82  80  75  60  50  45  42  43  43  42  40  43  43  42  45  47  49  48  46  47  49  59  70  78  92  93  90  95  90  92 111 121 103  78  70  75 136 213 236 250 231 233 162 226 158  80  51  47  43  40  38  39  38  37  63  88
  48  48  49  49  49  49  51  51  46  48  53  54  56  56  57  54  23  27  87 118 109 108 110 105  97  88  94  97  92  99 102 105 104 102  95  84  78  73  65  59  58  59  52  50  49  51  51  50  50  48  46  46  47  50  52  57  65  73  82  92 101 107 104 108  96  89 105 106  88  79  64  66  84 218 237 251 228 225 219 160 169 204 165  85  49  43  41  40  40  37  60  88
  49  51  50  50  50  50  48  48  48  49  55  58  60  58  64  55  26  28 117 118 109 104 105 102  96  90  96  94  88  93 101 103 103 101  89  76  70  70  69  66  66  68  66  64  59  58  60  60  59  57  54  54  57  59  61  68  74  81  88  98 104 113 112 108  93  86  93  88  73  68  60  58  68 133 218 236 237 234 229 126 151 142 234 215 182  75  48  44  40  39  64  88
  52  53  51  50  50  49  48  49  50  53  56  58  60  61  64  58  28  95 166 124 109 103  98  85  95  93  98  89  86  91  97 100 100  98  85  76  71  71  72  70  71  73  72  74  73  69  70  67  65  64  63  62  67  71  72  75  80  87  91  95 106 113 114 102  83  74  80  78  69  56  47  49  60 119 233 238 237 242 229 171 140 117 121 146 188 216 183  69  49  42  58  87
  60  59  57  55  47  44  47  49  52  56  59  61  62  63  65  64  33 158  97 124 111 105  99  81  87  90  91  87  87  95  92  91  95  91  83  77  72  70  73  74  73  77  77  78  80  80  78  77  73  73  72  73  74  78  80  80  82  87  90  98 106 110 108  94  78  71  68  66  65  52  56  46  50  68 179 220 218 213 212 190 107 122  99 166 141 204 180 231 104  48  51  80
  64  55  54  50  42  39  45  51  56  58  61  64  65  68  66 102 139 114  99 115 113 106 101  82  70  80  82  81  81  86  83  88  88  84  77  76  70  69  72  72  75  77  79  81  83  83  83  81  79  78  78  74  73  73  71  71  77  83  90  98 105 105  93  77  66  59  64  67  59  54  49  46  45  61 172 222 221 204 231 212 142 150  99 111  78 110 117 184 202 216 125 144
  54  42  48  44  41  52  54  57  60  60  62  64  68  91 153  88 155 115  80  95 114 106 101  84  65  66  70  75  76  70  75  81  85  83  73  67  63  62  66  71  76  76  82  81  82  84  83  80  74  74  70  60  64  61  58  62  68  79  86  96 101  98  78  69  59  55  53  62  60  53  49  47  48  52  95 206 225 219 218 199 177 111 111 115 132 123 185 158 216 197 226 237
  38  41  44  50  65  73  59  59  59  63  63  76 145 135 125  83  94 113  57  71 117 110 105  90  68  60  64  66  64  68  72  82  83  78  65  64  61  61  62  66  67  75  82  83  82  80  82  78  70  70  59  53  48  49  50  54  65  79  87  99 105  93  72  62  55  52  54  68  59  52  51  49  49  51  88 226 196 229 233 190 199 133 170  98 126  96 137 130 196 205 244 200
  58  45  59  59  54  57  68  71  76 117 135 182 115  72  63  91  91 118  53  46 122 113 105  95  67  58  56  58  57  67  70  77  69  72  66  57  52  53  54  57  63  68  74  77  79  76  76  71  66  60  53  50  43  47  49  54  64  84 100 106 105  93  70  57  52  48  53  70  63  54  52  50  50  51  66 170 224 192 217 222 210 147 126  94 122 112 119 185 173 211 220 212
 126 137 117  81  54  57  62 126 148 192  96  90  72  69  66 103  84  92  46  34 120 115 107  95  71  55  50  53  50  64  63  71  70  68  60  55  53  53  53  53  55  59  66  69  71  71  69  67  63  57  51  49  43  48  52  63  69  93 109 113 103  88  65  54  47  45  54  70  65  54  53  52  50  52  89 168 192 186 212 234 154 173 147 151 115 132 115 176 144 212 185 236
 116 125 114 137 162 143 201 213 144 171 122 110 115 123  99 100  95  68  36  31 106 118 108 101  78  55  50  47  47  52  56  56  64  62  63  54  48  49  50  49  52  54  58  64  68  70  69  67  63  59  60  54  49  56  70  79  84  94 106 107  93  77  57  50  45  43  57  82  73  57  53  51  50  52  77 119 218 167 155 215 207 221 127 136  86 107  97 131 169 200 199 234
 121 143 155 173 205 192 171 192 122 129  90  83 118 114 119 104  90  57  34  33  88 118 109  97  87  63  52  47  44  41  51  55  59  57  54  49  43  45  47  46  48  46  49  55  60  65  67  69  66  68  70  66  60  67  87  95  93 102 106  96  84  75  56  48  44  42  60  95  84  61  52  52  52  51  95 130 206 194 195 178 230 186 147 164 119 121 160 120 203 150 168 191
 154 167 154 179 200 180 144 120  66 113 157 134 175 105 111  79  63  48  31  28  72 120 109 102  91  76  63  46  42  41  46  48  50  47  46  47  42  43  46  48  44  44  44  50  54  61  62  68  68  74  76  70  72  77  92 103  96  92  97  98  84  71  52  41  42  43  73  99  92  67  52  53  51  51  68 114 185 198 165 187 214 171 198 122 105  88 110  88 127 124 209 158
 180 198 177 174 185 161 168 198 106 126 168 121 142 154  90 122  50  40  30  27  58 119 112 105  94  83  77  61  47  42  41  43  46  45  45  47  44  42  49  43  40  44  42  46  54  56  63  66  73  79  75  74  71  82  92  96  92  88  94  99  78  64  49  40  42  49  81 102  99  73  56  52  51  52  73 171 184 188 214 178 173 195 157 100 146 107 121 120 138 146 136 108
 189 188 203 143 156 114 144 134 114 139 156 110  96 142 103  64  53  37  29  24  41 117 113 104  96  89  84  76  68  50  41  39  39  37  43  40  40  42  43  41  41  41  42  50  51  53  60  65  75  81  74  71  73  80  88  87  81  83  82  83  74  54  45  38  41  56  92 101 101  77  56  50  50  51  54 118 172 202 179 198 208 210 183 137 134  72  87 111 143 112 154  86
 173 143 179 121 166 122 154 200 159 166 114 111 132  80 128  73  53  37  29  24  28 111 114 108  95  88  84  80  83  70  48  42  34  36  35  32  37  41  41  38  38  39  45  48  48  52  61  66  71  79  72  65  66  72  83  78  78  74  75  67  57  47  40  39  43  69 102 103 100  80  55  51  49  49  55 160 190 196 216 199 174 195 163 108 110  84 157 101 214 149 160 110
 146 111 160 136 155  86 111 153  99 141  90 109 124  62 110  39  54  37  28  24  34  92 113 109 101  92  88  83  85  80  63  44  46  33  30  31  33  36  35  37  37  39  42  45  46  50  54  63  70  73  62  59  62  71  83  75  70  65  65  58  49  41  37  39  50  91 105 104 104  86  58  52  50  48  53  75 149 219 174 180 209 205 188  81 137  90 175 147 136 123 100  87
 159 156 121 148 138 133 123 146  96  66  61  86 100  53 142  56  59  37  27  23  32  78 109 109 101  94  91  87  84  82  69  50  43  31  29  30  31  30  33  34  34  35  39  43  44  45  54  58  64  61  55  55  63  66  71  68  56  53  51  48  43  41  39  43  60  98 105 106 103  89  60  50  50  50  56  96 231 189 212 190 171 188 207 138 101 139 131 199 137 160 115 114
 119 117 162 176 142 206 110 158 110  95  52 108  74  55  83  49  54  39  26  22  28  64  94 107 101  97  90  89  86  81  79  61  43  34  30  30  30  30  32  34  33  35  36  44  44  42  49  52  54  51  50  48  58  62  60  54  49  43  43  40  38  37  45  57  91 103 106 108 104  86  63  50  50  50  58  55 129 177 178 190 213 209 192 173 103 165 116 159  77  89  71  76
 176 146 137 114 220 111 175 134  77  70  68 116  47  93  79  77  57  43  30  23  28  56  78  98 101  97  94  89  87  85  83  77  59  41  31  30  30  29  31  30  32  32  33  39  41  39  42  46  44  43  45  43  51  52  46  43  38  38  36  33  38  49  60  88  99 103 106 106 105  86  62  52  50  50  58  69 186 206 221 201 177 164 175 208 109 162 126 161 118 112 105 113
 115 126 102 229 115 179 153  72 105  69  99 145  50  83  64  61  57  46  30  23  26  42  68  83  97  93  91  87  85  85  84  79  70  58  40  31  32  30  29  31  31  30  32  37  36  36  36  36  35  36  36  38  39  41  38  34  35  35  35  37  54  74  88  93  97 102 101 104 104  86  66  49  49  50  57  71  91 181 175 193 216 214 212 217 150 161 143  80  80  71  70  68
 163 131 151 138 170 154  86 124  62  79  87  83  46  94  80  71  56  43  33  23  26  37  60  72  83  88  88  87  85  86  84  82  79  78  63  49  35  31  29  31  30  30  29  32  30  30  29  30  31  29  31  33  33  35  36  33  33  35  41  57  79  86  93  93  99  97 100 107 102  86  65  51  51  51  59  76  96 228 212 197 172 187 209 183 187  96 161  98 105 113 120 102
