P2
# Generated by OpenCV 3.4.0
92 112
255
 110 110 110 111 112 111 112 112 113 113 113 112 114 114 113 116 114 115 115 116 115 114 116 115 117 119 119 116 117 118 119 123 133 131 143 148 150 156 158 160 169 179 185 214 221 217 206 207 204 209 226 211 224 238 188 160 159 160 149 148 147 149 150 152 154 157 157 159 162 163 165 168 169 170 172 175 176 178 182 184 186 189 190 192 195 198 203 206 207 210 212 215
 110 110 109 110 111 112 110 110 112 114 114 112 112 114 115 114 114 115 115 116 116 115 116 116 116 120 120 119 121 123 121 130 136 145 153 145 152 151 154 152 163 179 183 188 223 227 218 188 206 235 251 249 248 234 202 195 202 194 162 149 148 149 151 152 154 155 156 157 161 162 165 169 170 181 173 174 174 178 178 183 185 187 188 190 192 196 199 203 205 207 208 210
 109 109 109 109 111 111 112 111 111 112 111 112 112 113 113 113 115 114 115 115 116 114 116 122 116 118 118 122 123 123 129 133 137 134 143 139 137 135 137 138 148 167 168 175 199 223 224 180 208 243 246 247 251 226 239 245 252 241 222 158 151 150 150 152 154 154 155 159 160 162 163 166 168 174 172 172 174 176 178 179 181 182 184 188 187 192 196 198 200 203 206 208
 108 108 109 110 110 109 113 112 112 112 112 113 114 114 112 112 114 114 114 114 115 114 115 118 121 120 122 128 128 125 130 135 136 127 127 129 124 119 132 140 143 154 150 166 191 211 214 210 221 237 251 251 251 231 231 251 251 251 252 203 158 150 153 150 152 154 157 160 159 160 162 165 168 182 176 170 172 174 176 177 179 179 182 186 187 190 193 194 197 197 200 204
 108 108 109 110 110 109 109 112 112 112 111 113 113 112 114 113 114 113 113 114 113 116 116 116 124 127 123 125 133 129 134 134 133 128 125 131 126 126 129 142 140 155 160 158 175 189 216 217 205 212 239 240 240 248 225 245 251 251 251 232 169 168 166 160 154 164 162 158 159 159 160 163 164 168 174 170 171 171 174 174 177 177 180 181 184 186 188 191 192 194 196 197
 107 110 111 109 109 108 109 111 112 111 113 111 113 113 114 112 114 115 115 114 115 119 121 117 126 125 124 124 136 126 127 122 126 127 125 124 129 123 128 142 139 150 161 148 161 171 188 191 177 190 207 203 224 249 225 234 251 252 252 244 189 183 209 168 179 183 204 182 158 155 154 155 156 157 161 158 160 160 162 162 163 165 165 168 169 173 174 177 179 179 182 183
 107 109 109 108 109 108 110 112 109 110 110 110 112 110 110 113 113 114 113 113 114 116 130 122 120 126 125 128 131 126 125 116 120 125 129 122 127 125 130 134 141 142 151 138 145 148 156 162 158 161 172 191 198 222 208 208 244 250 251 248 237 227 232 169 139 139 144 201 194 189 156 142 141 142 147 147 148 151 151 152 155 157 157 160 161 164 168 171 171 172 176 177
 108 107 107 109 109 109 109 111 110 108 110 112 111 109 112 113 111 113 112 114 116 117 125 144 118 123 126 129 131 123 111 117 116 124 129 127 122 125 125 126 135 134 139 135 134 134 145 146 152 146 154 172 173 181 183 202 249 248 247 251 252 251 245 211 142 133 131 158 173 164 205 148 139 137 141 141 142 143 146 146 147 148 149 151 154 156 157 158 161 163 166 168
 107 108 107 106 107 108 108 108 110 108 110 112 109 109 109 110 110 111 113 113 115 119 118 141 120 127 119 122 128 116 111 115 118 123 127 123 119 122 125 126 128 133 133 132 129 133 138 144 147 144 148 154 157 166 155 184 214 213 199 233 252 252 252 249 175 139 130 126 168 131 144 172 138 143 138 136 138 138 141 143 142 144 148 150 153 154 157 160 164 164 167 169
 107 107 108 107 107 107 107 108 108 108 109 111 111 112 112 111 110 110 112 114 119 123 119 125 122 129 120 118 121 113 108 116 122 125 124 121 119 123 127 128 130 132 130 128 127 134 137 141 142 145 149 153 156 148 145 162 168 188 185 199 251 252 252 252 244 200 174 155 148 150 134 159 143 142 162 151 146 151 144 141 143 144 145 147 149 150 153 156 156 157 160 162
 106 106 107 109 106 107 108 107 108 107 108 109 110 109 112 111 112 111 115 118 123 125 132 123 122 116 113 112 108 112 107 110 119 124 124 128 122 121 124 128 132 133 130 128 132 134 136 136 141 144 156 161 151 147 145 150 153 158 185 189 221 234 251 252 252 235 211 209 137 145 132 140 157 140 143 138 131 137 139 138 139 142 142 144 147 152 158 166 159 158 159 162
 106 106 107 107 106 108 108 107 108 108 107 108 107 110 111 111 112 114 116 119 127 142 142 126 118 114 111 110 104 105 105 107 115 118 121 124 124 125 124 132 134 134 135 131 134 134 135 140 146 150 158 153 150 150 150 153 157 171 174 189 201 209 235 252 252 252 252 214 189 159 140 143 159 167 149 142 134 132 135 136 139 140 142 144 152 158 160 155 154 156 157 159
 105 107 106 105 105 106 104 107 106 108 107 106 108 108 108 110 114 114 114 123 142 151 146 121 110 108 108 107 106 108 112 114 122 126 126 125 126 127 129 134 135 134 140 137 139 138 139 141 146 153 157 157 154 158 158 164 170 175 180 192 199 203 224 242 251 252 252 234 211 183 175 152 158 183 178 164 140 138 139 140 144 148 153 157 154 156 158 160 161 163 165 167
 105 104 105 104 106 105 106 106 105 107 107 107 109 107 108 113 115 119 117 117 121 124 126 122 116 109 112 113 116 120 124 125 131 133 138 133 134 133 136 137 140 142 145 145 144 143 143 145 148 145 149 156 157 154 156 165 170 178 187 196 203 215 235 241 250 252 252 252 243 183 174 184 172 182 179 205 163 152 151 154 157 160 161 160 163 166 167 168 170 171 171 172
 104 105 105 106 106 107 105 106 106 107 106 107 106 107 110 116 116 121 118 116 119 131 110 108 116 109 113 126 131 136 145 143 143 145 144 143 146 146 148 146 150 150 150 149 150 153 151 149 144 146 153 156 156 166 168 171 173 183 193 198 211 234 250 251 251 252 252 252 245 223 188 218 202 168 176 178 186 158 158 160 159 158 159 160 163 163 167 166 168 170 171 170
 103 104 105 104 103 105 104 103 106 105 106 107 107 107 114 116 116 118 122 121 120 130 118 120 121 118 122 131 139 151 160 155 152 150 150 150 153 155 154 153 156 155 156 156 159 157 157 156 154 156 159 163 169 177 179 181 188 189 194 202 217 245 252 252 252 252 252 252 252 249 225 201 221 191 166 160 167 164 157 155 156 157 158 158 160 164 164 163 165 167 169 169
 103 104 102 103 104 104 103 103 105 106 106 107 107 109 114 116 114 120 123 119 121 123 125 124 124 126 134 138 145 152 160 156 154 149 152 153 155 157 155 155 160 161 162 162 162 161 161 161 160 162 168 173 174 179 184 190 192 193 196 199 209 237 252 252 252 252 252 252 252 252 251 217 217 213 176 180 174 161 156 157 155 156 156 157 158 159 162 162 163 165 167 166
 104 104 103 104 102 103 102 104 103 103 104 105 107 107 121 116 116 120 126 121 123 120 125 125 131 135 140 145 151 150 152 148 147 148 149 148 156 157 157 159 160 164 165 165 166 162 165 164 160 167 175 178 181 182 186 193 192 190 193 199 203 220 250 252 252 252 252 252 252 252 252 251 228 203 179 170 231 176 158 158 153 153 154 155 155 156 157 159 159 162 163 163
 104 103 103 102 102 102 103 104 103 104 103 105 107 109 130 123 115 120 122 117 114 125 130 134 138 143 145 147 146 147 149 148 146 147 146 146 153 154 158 160 161 161 164 165 166 165 166 167 166 172 178 180 180 179 181 186 191 192 192 195 199 207 234 251 252 252 252 252 252 252 252 250 231 203 173 198 198 200 192 184 159 152 153 153 154 156 157 157 157 158 160 161
 101 102 101 102 102 102 102 101 103 104 102 102 106 114 143 126 115 119 121 115 126 136 140 144 142 146 147 147 148 148 149 147 144 145 144 145 150 154 155 157 159 158 161 160 162 161 161 163 162 166 173 177 180 177 182 181 179 186 195 196 198 198 215 243 251 252 252 252 252 252 252 251 244 217 171 176 182 187 196 170 160 163 163 151 152 154 154 156 156 157 158 158
  98 100  99 100 101 102 101 102 101 101 101 101 106 114 147 125 114 117 111 119 140 147 148 148 148 148 150 151 149 150 146 145 145 142 143 144 147 151 153 153 156 159 158 156 158 160 158 159 158 162 168 168 168 169 175 175 176 179 179 184 193 196 201 218 243 251 252 252 252 252 252 252 250 204 168 166 175 167 164 150 153 150 159 154 151 153 152 155 155 155 156 157
  99  98 100  99  98  99 101 101 100 101 101 103 106 118 144 116 116 120 118 133 146 154 152 152 153 154 154 151 152 148 146 146 146 142 140 141 144 142 145 150 154 155 155 156 157 156 156 158 157 158 159 158 156 153 162 168 174 178 178 179 178 177 184 196 213 238 251 252 252 252 252 252 252 221 185 171 183 162 149 146 150 147 148 150 150 150 153 152 152 152 154 155
  99  98  99 100 100 100 100  99  98 100 100 102 104 114 140 119 117 120 130 146 160 171 160 158 154 154 155 151 149 148 145 142 142 138 139 138 140 143 145 149 153 155 153 151 156 155 153 153 153 152 152 151 149 151 160 166 169 173 177 180 175 172 175 179 190 212 238 252 252 252 252 252 252 249 207 188 175 161 147 144 148 159 157 149 148 148 150 151 151 151 152 152
  97  97  99  99  99 100 100  99 100 101 100 101 102 116 144 124 121 129 146 150 181 195 171 160 154 154 154 151 149 146 141 138 138 134 136 135 141 142 143 145 147 148 149 148 151 152 151 149 151 149 149 152 150 153 159 164 167 169 173 173 171 169 171 174 179 188 206 234 251 252 252 252 252 252 227 199 168 159 150 143 147 152 158 148 146 146 147 147 148 150 149 149
  98  96  97  97  96  97  97  97  98  98  98  99 103 116 139 122 127 143 148 165 204 216 187 165 158 154 152 147 144 140 136 134 134 131 132 132 132 137 138 137 141 145 147 149 149 150 149 151 152 156 156 156 154 156 155 159 162 164 165 166 163 163 165 167 173 181 186 208 243 251 252 252 252 252 241 208 171 150 146 144 143 148 145 144 145 143 146 147 147 147 147 148
  97  95  96  96  97  96  97  98  98  98  98 100 103 113 136 122 135 149 159 189 218 212 189 173 158 155 149 142 140 138 135 132 129 128 130 131 136 137 138 143 142 147 149 152 150 150 149 152 152 152 152 153 152 155 153 154 156 158 160 159 158 157 162 163 168 174 179 190 218 241 248 251 252 252 247 214 182 153 142 140 140 145 144 142 142 140 143 142 145 146 146 145
  94  97  96  97  96  97  98  97  97  97  99  99 101 110 136 127 152 157 168 201 213 201 188 175 157 150 144 139 134 131 129 127 125 125 125 128 132 137 137 138 138 141 148 148 148 150 148 146 148 148 150 151 153 156 153 151 152 153 155 156 156 157 156 156 161 166 170 179 197 221 237 249 252 252 251 230 191 193 164 145 147 149 157 154 141 140 140 140 141 142 145 145
  92  94  94  95  94  95  96  94  96  96  97  98 102 112 137 134 157 161 185 200 208 196 188 176 155 147 140 135 131 126 125 121 124 124 127 129 128 134 136 136 136 142 146 147 150 150 147 147 147 148 149 151 157 156 152 152 152 151 151 152 152 153 152 154 156 161 165 169 182 203 220 244 251 252 251 225 183 172 178 159 142 150 148 143 139 138 139 140 140 141 140 142
  93  94  95  95  93  95  93  93  96  97  96  97 101 111 136 134 151 169 193 201 200 186 177 168 155 144 135 131 126 124 122 121 122 123 126 128 128 130 134 133 140 145 147 147 150 152 149 150 150 149 150 153 150 152 153 152 154 153 152 152 151 152 155 156 156 162 164 168 175 186 208 234 250 251 252 237 196 160 153 151 139 138 141 138 138 136 136 138 140 140 141 142
  94  94  94  93  93  92  94  95  99  98  96  97  98 109 124 138 150 178 198 194 190 182 174 165 155 141 132 128 125 125 123 125 127 127 129 130 134 136 141 142 142 142 143 147 148 148 149 149 149 148 149 150 152 153 153 156 155 157 155 157 152 153 152 158 158 158 160 162 168 178 196 220 247 251 251 236 201 162 153 138 134 134 136 136 135 134 137 135 138 137 138 138
  92  94  94  91  93  92  93  96  96  95  96  95  99 116 116 137 154 179 192 192 183 172 166 161 151 138 131 129 129 127 126 129 134 132 134 136 136 137 140 141 140 142 143 146 147 148 149 153 155 155 154 155 157 158 161 161 161 161 160 159 157 153 156 159 158 156 157 158 162 170 183 209 234 247 247 229 196 147 148 134 134 132 133 134 133 134 135 135 133 133 136 136
  91  93  93  92  92  93  93  95  94  93  95  96 104 120 109 130 157 179 183 185 180 170 163 156 148 138 132 131 128 128 130 130 134 136 136 138 138 139 139 140 143 143 147 152 155 152 151 155 156 158 157 156 157 160 160 162 162 160 161 161 160 157 159 161 161 158 158 158 161 165 174 200 216 243 242 225 195 152 141 133 132 130 131 131 131 132 131 132 132 134 133 134
  89  91  91  91  91  91  91  94  94  93  94  96 106 114 110 132 162 176 180 180 173 163 158 155 152 141 131 131 129 134 132 131 135 135 135 140 140 140 143 143 143 145 147 153 154 154 154 153 148 149 152 156 158 160 161 161 162 162 161 161 162 160 160 161 159 158 159 158 161 162 170 189 210 236 235 218 191 158 137 131 132 131 131 130 130 130 128 131 132 133 132 133
  90  90  91  91  91  91  92  93  94  92  93 100 108 108 118 141 162 170 171 169 164 158 157 155 150 138 130 129 131 131 132 133 135 137 139 140 140 142 144 143 146 147 147 153 154 154 153 152 148 147 151 157 160 161 162 162 165 165 162 161 162 160 159 159 161 159 158 160 160 164 172 183 201 222 230 215 200 172 136 131 130 128 128 129 128 127 130 131 131 132 129 131
  91  90  91  89  90  91  89  92  92  92  92  97 103 100 110 137 157 165 167 166 163 160 154 152 145 136 129 127 131 132 133 135 138 139 140 143 142 143 144 142 145 147 149 150 152 149 150 152 150 150 153 156 159 161 163 164 166 165 163 162 162 160 159 159 159 159 158 157 159 164 170 180 195 214 224 213 190 170 162 155 144 141 130 127 125 127 128 128 129 129 130 128
  89  88  91  88  90  90  90  91  91  90  92  96  99  94 106 128 148 158 164 165 163 159 153 153 145 139 131 129 133 131 132 133 137 137 138 140 139 140 142 141 143 145 144 148 150 150 150 152 151 151 150 153 157 157 163 164 165 162 163 160 159 158 158 159 160 159 158 158 158 160 171 182 193 210 215 210 187 170 154 168 180 146 128 125 125 126 126 126 127 126 128 127
  88  89  90  89  90  92  91  93  90  90  92  94  96  93 103 125 147 153 156 160 160 158 153 154 148 140 131 127 129 131 133 133 134 135 138 138 136 137 137 137 135 140 142 145 146 148 148 147 147 148 150 151 156 157 158 159 159 159 159 160 157 159 159 160 159 158 158 159 160 161 169 183 190 204 210 203 183 168 139 130 128 148 131 125 125 123 125 124 125 126 126 125
  87  88  90  90  90  90  88  93  90  91  92  93  96  96 107 125 146 147 151 155 155 157 152 154 147 141 131 128 130 132 133 133 133 131 131 133 133 132 134 130 131 135 140 140 141 142 143 141 141 142 145 146 148 149 149 153 154 154 153 154 154 160 160 162 159 160 159 160 164 171 172 181 186 199 209 199 174 142 134 121 125 125 126 122 121 121 124 123 123 125 125 125
  88  87  88  88  88  88  89  89  91  89  91  92  93  92  93 117 130 141 145 148 155 152 152 153 149 143 136 135 136 136 137 135 134 132 131 130 129 127 127 125 126 129 129 134 137 140 140 141 139 140 140 142 141 142 140 141 143 146 148 151 155 159 161 162 160 165 167 169 176 182 183 184 189 195 207 194 168 137 125 118 120 124 120 121 120 121 122 122 121 121 123 123
  88  88  88  89  87  89  88  89  90  90  89  89  93  89  87 118 135 144 146 148 156 154 150 155 152 145 142 139 135 133 130 130 129 128 123 119 116 112 115 120 117 120 125 129 132 134 134 138 137 135 133 136 133 131 126 131 136 140 143 147 152 154 159 159 159 164 171 183 194 198 199 194 194 194 201 188 163 138 121 119 119 118 119 120 119 120 118 120 121 121 120 120
  87  87  88  88  89  89  87  89  91  90  89  89  89  87  86 106 135 148 146 147 153 153 155 156 154 148 139 129 125 121 117 112 108 107 105 103 100  96  99 106 105 113 118 124 125 128 128 133 131 129 127 129 127 123 119 120 125 131 135 141 144 142 148 147 152 159 169 182 201 209 216 207 202 197 199 186 155 130 123 121 119 117 118 117 120 119 118 119 118 119 120 118
  87  88  89  87  87  88  88  89  91  90  91  90  89  85  86 107 141 150 146 146 155 158 160 162 157 141 127 116 107 100  92  92  87  86  88  89  90  88  90  95  95 103 108 115 120 123 125 127 127 125 125 123 120 115 114 113 115 120 123 129 132 132 130 134 133 138 142 163 184 205 228 226 210 203 201 175 156 135 121 119 118 116 117 117 118 119 118 119 118 118 118 118
  88  87  88  88  87  89  89  88  89  90  91  90  90  87  89 113 139 146 147 147 155 158 164 159 143 122 104  91  85  80  77  75  76  74  79  83  84  82  82  87  90  93 101 106 110 116 120 123 123 123 118 114 112 109 110 110 108 108 107 107 107 115 116 117 115 117 124 138 153 183 217 235 221 208 206 168 144 125 118 118 117 116 117 116 117 116 117 117 117 118 118 115
  86  88  86  88  89  89  87  90  88  90  90  91  91  90  81 106 138 146 150 152 160 162 162 140 109  93  87  80  78  78  76  74  71  74  73  76  81  78  79  83  86  87  92  99 104 112 114 119 120 119 113 111 106 105 102 103  98  96  95  92  91  93  96  95  97 100 104 113 121 131 168 208 223 216 212 162 138 120 116 116 117 116 118 117 117 117 117 117 117 117 116 114
  85  85  88  88  87  88  89  88  88  90  90  91  90  81  77  99 138 148 150 154 156 159 144 118  94  86  89  88  85  84  84  86  84  84  82  81  82  83  81  81  84  88  89  94 101 106 109 115 116 114 109 106 100  98  97  94  92  90  90  88  86  87  91  93  95 101 103 108 111 115 132 159 209 221 220 153 135 122 116 115 116 115 115 116 116 116 116 116 117 116 116 114
  86  86  86  86  87  87  87  87  89  90  89  89  88  85  73  86 126 150 150 154 156 147 127 107 101  98  97  95  93  88  87  86  86  86  85  85  85  85  86  85  87  86  89  91  96  98 105 112 113 111 107 101  96  96  95  92  92  92  93  93  94  96 100 102 102 102 102 107 109 112 116 138 196 218 224 150 129 118 116 115 116 115 117 115 116 114 114 114 115 114 115 114
  86  87  87  86  87  88  88  88  89  89  90  90  89  86  75  85 122 155 152 155 155 132 111 106 104 100  99  97  92  87  87  85  85  86  85  84  83  84  85  85  88  90  90  91  95 100 104 111 113 111 105 101  97  96  93  94  95  97  94  98 100  99  99  99  99 101 103 107 111 111 113 126 167 214 230 148 123 116 115 115 114 116 116 116 116 114 114 115 116 116 116 116
  86  86  88  88  87  89  91  89  88  90  90  90  92  90  78  81 119 154 152 151 143 123 109 108 103  99  96  95  91  89  87  84  83  82  79  76  78  77  79  82  85  86  89  92  95  96 104 110 114 114 108 102  98  96  94  93  92  92  90  89  90  91  92  93  98 103 104 105 108 110 112 118 149 210 235 156 127 121 122 121 121 120 119 120 120 119 120 121 120 119 121 120
  88  88  89  89  89  90  91  90  90  90  92  92  94  92  85  85 119 153 150 147 132 120 111 105  97  97  91  87  82  79  78  75  73  68  68  66  63  63  69  72  76  79  85  93  96  97 103 109 115 117 112 103  98  93  90  88  86  84  80  78  80  83  84  86  89  94  97 102 103 105 108 113 140 201 238 162 139 163 162 136 125 122 122 121 122 123 122 121 121 121 122 118
  89  88  90  90  92  91  92  93  92  93 100 104  99  94  93  85 122 155 148 144 132 121 109  99  93  89  84  81  86  86  85  80  73  70  65  64  62  61  60  62  66  72  79  88  94 102 106 113 120 122 114 101  93  86  83  80  75  74  77  78  80  81  84  88  96 102 102  96 100 104 107 113 138 206 240 197 230 249 250 189 130 122 120 121 121 122 120 122 120 119 121 119
  96  97  97  98  98  98 100  99 104 146 129 113  94  92 103  92 114 154 150 144 129 119 105  94  88  83  87  94  88  83  76  71  62  56  50  49  54  60  61  62  63  68  74  83  92 105 110 121 128 130 119 103  88  79  73  73  78  79  82  81  79  69  71  76  85  97  99 100  97 100 105 112 138 193 241 220 177 166 194 217 140 123 120 122 122 120 120 120 118 118 120 119
  98  98  99 101 100 101 101 104 123 112  97  95  91  96 103 105 124 154 149 144 127 116 102  91  85  84  92  85  84  78  73  67  54  47  39  45  52  59  54  55  65  67  71  80  93 109 119 128 134 136 131 110  85  75  76  74  73  78  84  89  80  69  58  57  67  77  91  95  93  97 104 108 139 192 239 180 144 133 137 173 143 122 121 120 118 118 121 118 120 118 118 118
  98  99 101 100 101 102 103 105 106  83  71  69  77  88  98 102 126 153 149 141 126 118 103  90  85  83  86  82  76  81  88  75  54  44  41  47  52  60  52  52  56  70  68  80  96 112 127 134 141 145 143 119  83  80  69  66  66  74  86  92  80  67  55  59  62  76  84  85  91  95 101 110 140 191 241 164 123 126 123 135 128 118 119 118 118 118 120 120 118 118 118 118
 100 100 101 102 102 103 103 107  96  70  63  66  71  81  91  97 120 156 148 142 126 116 102  91  87  94 105  89  77  82  92  86  57  50  49  49  52  56  55  56  64  70  76  88 101 118 132 138 146 152 147 129  88  79  73  70  70  70  77  92  85  71  66  71  66  79  85  91  95 107 107 118 141 189 245 151 113 117 118 130 121 118 117 117 117 118 117 117 118 118 118 118
 100  97  99 100 102 102 101 105  89  68  62  66  69  80  75  91 112 158 148 141 125 117 107 100 106 121 127 106  87  79  76  78  68  55  53  57  60  60  59  61  66  71  86  93 105 124 137 140 151 157 152 141  99  78  73  74  74  74  74  78  80  75  69  69  82  89  97 102 105 113 119 128 145 183 240 136 110 108 111 131 118 117 117 116 116 116 116 116 117 117 117 118
  99  99 100 100 100 102 101 103  91  68  62  63  77  91  95  89 100 150 146 141 128 120 114 113 120 130 129 114  96  84  75  73  71  68  66  66  64  62  60  62  66  83  94 103 116 128 138 141 148 159 155 144 123  88  74  73  75  75  77  79  79  80  79  83  91  93  98 109 115 122 129 137 150 180 232 144 114 107 114 130 118 117 117 117 115 116 116 116 116 116 115 116
  99 100  98 100 102 103 101 103 103  71  61  64  90  98  86  65  79 140 146 144 134 127 123 123 127 129 124 112 102  94  86  82  78  74  71  68  65  63  64  68  79  89 100 114 122 134 141 143 148 157 154 144 135 109  85  74  74  74  78  84  87  89  89  93  97 102 105 116 125 131 135 143 154 174 220 134 115 106 122 121 115 114 115 116 116 116 116 114 114 114 116 116
  99  97 101 101 100 102 102 101 102  85  64  69  95  92  77  62  67 131 146 143 138 134 131 129 126 124 117 107 100  94  90  86  83  76  72  68  67  68  73  82  90  96 105 117 124 134 140 141 146 150 150 145 139 127 103  87  77  78  79  80  86  90  94  98  99 101 112 126 134 140 143 147 155 175 206 119 116 118 127 116 115 115 116 115 115 114 115 115 116 115 116 115
  99  98 101 101 102 102 102 102 102 100  76  72  95  86  73  62  65 129 147 145 140 140 137 132 123 120 114 107 104  97  93  89  85  79  75  71  72  74  84  90  98 101 108 118 124 129 137 144 149 148 143 139 137 131 115 101  92  85  82  83  87  90  92  94 100 108 122 134 140 143 146 148 157 179 196 112 115 126 128 114 114 115 114 117 114 113 114 114 114 115 112 113
  99  99 101 101 101 102 102 102 102 103  90  76  94  82  68  60  68 125 147 148 140 137 137 126 121 118 109 107 104 101  96  89  88  84  78  76  80  86  92  94  99 105 110 120 126 131 135 146 153 150 142 136 132 131 124 116 106  98  90  84  86  88  93  95 104 116 127 136 140 143 144 144 153 180 168 103 116 133 121 115 116 114 113 113 113 112 112 112 113 114 112 112
  98  99 101  99 100 103 102 102 101 102 103  84  91  78  62  56  66 111 146 146 137 134 130 121 113 111 104 103 101  97  94  91  86  84  83  86  88  93  95  98 101 105 112 123 128 134 137 146 153 151 143 137 132 129 126 120 115 109 100  92  91  91  96 101 113 123 128 135 138 138 138 139 149 188 155 118 124 133 116 113 112 111 112 114 113 113 111 112 112 111 111 112
  97 100 101 100 102 102 101 102 102 102 103  94  90  84  64  56  61  89 142 144 136 133 125 116 109 106 104  98  96  94  92  88  85  88  90  94  94  97 100 100 101 106 117 128 135 137 140 148 155 153 144 136 131 128 126 121 120 117 112 107 101  99 101 110 116 127 129 129 132 134 133 135 150 185 154 136 128 126 113 114 113 111 112 112 111 111 111 111 112 111 111 111
  97  99  98  99 100 101 101 102 102 103 101 102  91  92  87  80  76  89 138 143 133 128 114 110 107 102 101  97  96  94  92  87  90  92  94  96  98 101 100  99 100 112 126 139 140 138 140 146 158 154 144 138 131 128 124 121 121 121 118 115 113 108 109 115 119 123 123 124 124 126 126 130 154 190 144 118 135 110 112 113 112 111 111 112 111 110 112 110 111 111 110 111
  99 100  99  99 100 101 101 102  99 103 102 101 102  86  85  95 115 104 133 142 133 124 113 104 102  97  98  95  94  94  92  93  94  96  98 100 101  96  97  97 101 121 144 152 147 143 146 154 162 159 146 140 133 128 118 112 115 120 120 120 119 116 115 118 118 118 119 119 121 121 120 126 158 180 141 135 139 129 111 112 110 110 111 110 110 109 111 109 110 109 109 109
 100 100  99 101 101 102 101 101 100 104 101 101 104 102  92 106 124 107 122 138 130 121 111 102  98  96  96  91  92  91  94  94  94  97  99  98  97  96  93  93 103 141 164 162 149 146 148 155 161 157 152 145 135 130 115 106 111 117 122 124 124 124 123 123 122 119 119 117 118 118 116 123 163 176 159 152 140 135 116 109 110 110 109 109 109 109 108 109 110 109 110 109
  98  99  99 100  98 100 102 102 101 101 100 101 102 108 124 129 116 105 116 138 129 120 112 101  95  95  93  94  95  91  94  94  95  98 100 100  95  93  89  91 115 166 181 172 153 148 144 146 154 157 152 145 137 133 114 105 106 114 121 124 126 124 124 123 122 121 118 117 118 117 115 122 176 163 147 142 114 127 107 108 109 109 109 109 109 110 107 108 109 110 111 109
  97  98  99 100  99  99 100 101 102 101 100 102 100 105 113 111 105 107 106 132 132 121 113 105  95  93  95  94  97  94  95  95  96  99 102 100  97  91  88  88 136 174 192 172 153 144 136 136 139 142 145 143 137 135 124  99 105 113 120 124 123 123 123 124 123 119 119 120 117 113 114 125 178 151 137  93  90 104 103 104 107 110 109 108 109 108 108 108 110 110 109 108
  97  97  98  99  98  97 100 101  99 100 102 100 100 102 104 105 103 102  99 124 133 123 114 108  98  95  95  95  97  95  97  97 100  99 100  98  94  88  84  92 143 162 168 148 139 131 126 125 130 136 136 139 138 134 130 101 101 111 115 121 121 123 126 123 122 121 120 121 117 116 112 134 155 134 111  73  76  83  93 106 107 108 108 108 109 108 109 108 108 107 108 107
  97  98  99 100 100 100 100  99 100  99  99 100 100 100 102 104 104  99  94 110 130 125 114 107 100  93  96  97  96  97  97 100 100 101  98  96  92  88  82  91 129 130 135 129 125 119 117 116 123 126 131 136 136 133 127 111 103 108 112 118 120 121 124 122 121 121 119 121 119 116 113 144 144 115  91  81  72  75  91 105 108 108 107 107 107 107 107 108 107 107 107 107
  96  97  97  98  99  99  97  98  99  99 100 100  97  97  99  99 101  93  88  93 121 124 113 105  99  97  95  94  97 100 101 103 103 102  98  98  92  87  84  91 121 117 117 113 109 109 110 108 110 114 121 128 129 122 117 113 108 108 111 118 122 123 124 122 122 122 119 120 120 118 120 145 120 111 105 101  90  69  94 105 105 106 105 106 107 106 107 107 106 108 106 105
  96  97  98  97  97  99  97  97  98  97  97  96  95  93  76  71  78  93  93  96 114 124 114 106 103  99  97  96  99 100 102 103 104 102 101 101  95  88  86  84 103 107 106 104  97 100  99  97 100 105 111 114 113 105 108 117 121 114 112 120 119 123 122 120 120 121 121 121 119 120 126 145 106  92  84  84  91  65 101 106 106 106 106 105 105 105 106 105 106 105 107 107
  96  96  96  96  95  97  98  97  97  97  95  92  55  46  34  30  34  45  82 100 114 125 117 107 106 102 102 102 103 104 106 107 107 108 104 101  94  91  88  85  86  89  87  98  95  90  90  89  90  94  99 100  94 100 123 128 130 126 119 123 122 123 127 124 122 123 119 119 120 121 135 136  91  76  74  76  84  69 116 108 107 104 105 104 104 104 106 105 106 104 105 106
  97  96  95  96  96  95  96  96  96  95  79  39  28  30  26  25  26  31  59  96 110 123 120 112 108 103 105 105 106 107 109 111 110 108 104  99  98  95  91  88  88  84  75  75  94  89  85  88  88  89  88  83  71 103 134 139 137 135 127 122 125 124 126 127 124 124 121 117 120 124 141 120  76  65  80  86  85 100 226 135 109 104 103 103 103 103 102 103 104 103 104 104
  94  95  95  97  95  94  95  94  94  86  35  28  27  28  25  24  23  26  31  78 101 126 121 112 107 106 107 107 110 115 116 116 116 109 105 104 102  98  92  89  87  86  83  77  81  86  86  87  86  84  77  68  66 103 134 141 138 135 133 129 129 129 125 125 124 122 121 116 116 123 141  89  64  71  61  80  78  92 230 206 116 104 102 102 102 102 102 103 103 102 102 102
  95  94  95  94  94  95  96  93  88  42  28  24  27  24  24  23  22  23  26  33  89 124 124 116 111 109 108 111 116 118 122 123 117 109 105 107 104  98  92  88  81  78  76  76  77  79  77  78  76  73  69  64  67 100 125 133 137 133 130 130 128 132 132 131 125 124 121 119 116 124 139  86  71  72  74 118 172  83 237 227 121 103 100 101 103 101 103 102 103 103 101 102
  94  95  95  94  94  94  94  88  40  29  24  23  27  22  22  21  22  24  22  28  61 117 123 118 112 112 115 118 120 124 126 122 113 109 109 108 100  90  86  82  76  69  67  67  71  75  76  76  72  69  65  63  68  89 108 116 127 127 127 130 128 129 130 132 128 124 121 117 115 123 125  78  73  66  72 111 100 118 169 158  92  84  86  90  90  94  97 102 117 100  99 100
  93  94  93  94  92  94  95  65  30  26  23  26  24  22  27  29  27  23  24  26  54 107 126 121 113 116 119 118 123 127 127 119 112 105 106 105  93  84  79  78  74  65  59  65  67  68  72  75  72  63  62  64  72  84  90 101 110 112 108 118 121 126 128 130 126 121 118 114 113 127 100  56  50  48  49  49  51  53  58  62  54  51  50  49  49  48  48  50  51  49  89  97
  92  92  93  92  93  94  92  63  31  24  23  29  27  35  45  44  35  23  24  26  59  98 123 121 117 121 123 125 125 129 126 120 108  92  92  89  83  74  72  70  69  62  57  56  62  66  67  70  69  63  63  67  69  75  81  91  98  98  91  96 107 120 126 130 126 123 116 113 115 134  85  53  51  48  48  48  49  49  50  49  49  46  46  46  46  45  45  45  45  44  85  97
  91  91  92  93  94  92  90  82  45  32  34  37  47  55  56  54  39  26  24  29  67  91 122 124 120 122 124 126 125 128 126 119  99  86  80  75  71  69  68  65  67  59  54  57  61  66  64  64  62  62  67  70  69  69  74  79  88  84  77  72  84 103 120 128 128 122 121 117 122 126  63  53  50  48  47  49  47  48  47  47  46  46  45  45  44  44  44  43  44  43  82  96
  91  90  93  91  91  91  92  89  84  55  59  57  61  62  57  53  43  34  26  39  62  90 111 124 119 122 126 127 127 129 123 108  89  79  70  70  66  68  63  58  58  52  59  59  61  61  62  61  59  61  74  75  69  70  70  70  74  76  69  62  65  78 106 123 125 119 117 118 127 106  59  50  49  48  47  48  48  46  45  44  46  45  46  43  43  44  45  43  42  39  80  94
  91  90  90  90  90  89  89  90  89  71  66  64  64  62  49  44  45  39  32  44  69  88 101 130 120 120 121 125 128 131 119  98  86  71  63  65  61  62  63  59  53  56  60  62  64  61  58  54  56  61  74  78  74  77  73  67  69  74  69  63  65  73 100 121 126 117 110 118 129  95  55  48  46  47  46  46  45  46  45  45  44  45  44  43  43  42  42  42  41  39  77  95
  89  88  89  89  90  88  91  89  90  66  48  55  56  40  40  41  46  40  35  47  77  88  94 126 122 119 122 126 127 132 122 100  82  67  66  64  66  68  70  67  62  64  66  71  70  66  57  54  58  66  70  79  78  81  81  74  74  74  78  74  77  86 105 119 127 118 105 114 127  72  51  47  46  45  45  45  45  44  45  44  44  44  41  40  44  42  42  43  40  40  77  92
  89  88  90  88  89  89  87  86  87  79  50  47  51  43  46  49  48  39  34  65  85  87  90 121 121 115 124 129 127 129 121  98  85  79  74  71  69  74  72  74  71  71  70  71  73  73  70  65  69  72  74  73  73  72  67  62  57  59  70  75  80  89 103 119 128 120 107 119 123 102  71  50  48  45  45  46  45  44  44  44  43  41  44  42  43  41  40  41  41  40  74  94
  91  90  91  90  88  89  89  88  88  85  66  61  61  55  60  56  48  37  35  75  85  86  91 115 112 112 118 126 128 124 113  97  83  79  70  60  48  46  51  50  52  53  57  62  67  67  67  68  67  66  62  59  51  50  52  53  58  68  69  71  76  82  94 108 123 118 108 117 108  94 119  88  48  46  44  45  44  45  42  43  42  40  40  42  40  39  40  39  40  38  71  93
  96  92  90  87  86  84  82  82  81  80  78  74  73  70  68  62  44  31  36  51  80  86  86 116 115 113 111 117 125 123 110  89  80  72  66  64  61  60  56  55  58  58  51  47  45  47  49  50  49  45  48  54  59  63  67  69  77  78  76  75  81  87  96 106 112 108 110 110  94  86  93 126  95  51  45  44  43  43  43  44  43  42  41  40  39  39  40  39  39  38  72  91
  83  72  70  66  64  62  59  60  58  58  56  56  56  54  54  51  30  27  38  44  66  78  83 108 108 116 107 113 121 121 107  85  76  77  74  76  79  79  76  74  74  73  69  64  56  55  53  53  53  55  63  71  74  78  85  91  90  83  83  85  86  87  94 105 105 103 112 115  84  63  70  77 136  94  50  45  44  43  42  42  42  42  43  41  39  40  40  40  40  38  70  91
 108  45  54  58  55  55  54  53  53  52  51  51  52  52  51  48  25  33  39  46  48  53  64  99 101 110 107 110 117 117  98  86  80  77  81  84  85  84  86  82  78  75  71  71  68  68  65  66  65  69  74  81  82  90  99 100 103  98  98  96  89  87  91 103 100  99  99  95  73  57  56  69  77 169  86  49  46  44  42  41  43  42  41  41  40  40  41  39  40  36  69  90
 115  60  48  53  54  52  52  52  51  52  48  51  51  49  51  46  30  39  42  40  28  26  28  74  95  94 105  99 110 108  94  86  81  80  82  84  86  86  88  87  85  83  77  74  71  72  73  72  73  78  80  86  90  92  97 104 111 109 108 103  92  83  83  93  89  85  86  93  69  51  48  57  72  97 172  66  50  47  46  45  46  44  42  42  40  40  40  39  40  36  67  89
  49  48  45  45  47  49  50  51  50  51  50  50  48  49  52  51  40  43  40  29  22  24  32 114  98  82  90  90  98 104  96  84  76  74  77  85  86  88  87  89  87  86  81  81  79  78  78  80  81  81  84  88  87  92 100 106 111 114 106  97  84  78  76  79  81  77  79  98  69  53  47  49  64  78 172 146  58  52  52  48  47  47  45  41  41  41  40  39  40  37  67  90
  47  46  47  46  46  46  47  51  51  51  50  49  50  51  54  51  39  37  26  22  22  26 142 130 104  74  72  83  88 105  94  79  69  68  72  80  87  89  88  88  89  87  82  81  78  71  73  72  73  73  77  83  88  95 103 109 111 109 106  90  73  65  62  66  70  69  74 109  58  47  41  45  53  66 128 238 242 240 233 206 141  96  49  46  43  41  42  40  39  38  65  89
  44  46  46  47  48  48  50  50  50  54  53  51  53  52  54  50  25  22  19  20  24 110 144 101 113  72  64  73  89  90  85  74  65  60  65  71  82  86  87  87  86  84  76  74  68  58  61  57  58  60  67  75  87  92  98 103 104  97  90  78  66  60  55  58  59  57  74 130  68  50  40  44  50  57  74 185 235 250 227 235 187 199 158 108  50  46  44  42  40  39  63  89
  47  47  49  49  48  49  50  50  47  50  66  56  56  55  57  52  20  19  20  22  34 145 118  80 119  74  58  62  79  89  83  71  58  57  60  62  72  81  85  82  83  79  73  70  61  53  50  50  49  57  60  75  81  89  95  99  97  84  76  69  59  53  51  53  55  53  77 142  73  55  44  44  45  50  64 181 232 240 240 235 218 149 185 198 204 113  55  48  44  43  63  88
  48  50  49  50  51  49  48  49  49  50  57  70  62  58  63  55  21  19  20  23  89 136 102  58 117  87  60  54  60  77  80  67  55  56  57  58  63  71  77  78  76  72  70  62  56  51  48  48  49  55  60  73  81  91 100 102  95  76  64  62  54  49  47  48  47  54  97 153 102  55  46  43  41  45  57 111 218 231 243 240 240 164 146 116 171 195 234 145  76  49  65  89
  52  53  51  52  50  49  46  48  50  52  56  61  69  65  65  60  24  21  22  25 145 131  78  48 114  98  66  51  58  71  72  63  55  52  53  56  58  64  67  75  76  73  72  64  60  55  50  50  54  60  65  79  94 105 105 104  95  73  61  56  48  45  44  50  50  62 110 160 122  67  49  47  45  41  47  76 197 219 234 220 214 189 121 141 132 191 170 223 222 157  88  94
  61  57  54  53  46  44  47  52  53  57  61  62  64  68  72  65  24  24  51 118  93 147  56  40 109 116  86  58  54  57  62  57  51  49  51  51  54  55  63  69  73  76  72  68  68  61  53  60  71  73  74  87  99 112 108  97  85  68  55  49  46  43  42  46  55  75 119 158 132  78  53  49  47  46  46  66 199 215 219 216 235 225 149 148  93 110  96 155 157 245 199 153
  65  53  52  47  42  40  43  50  56  60  63  63  65  69  68  81 116 130 119 122 129 121  46  38  96 122  97  70  49  52  56  57  52  50  51  47  49  48  55  63  70  74  74  76  79  74  68  71  87  90  87  95 100 108 100  86  78  60  51  47  43  41  42  46  57  95 126 151 131  92  59  50  48  47  47  61 129 216 214 228 234 210 192 125 126 128 138 141 196 167 217 224
  51  42  48  42  38  51  54  58  59  60  62  64  68  72 119 112 140  98  79 107 135 112  42  36  88 124 111  89  57  48  47  46  48  50  49  46  45  44  55  60  67  67  74  80  78  75  77  78  93 102  93  91  99 102  88  81  73  56  47  44  40  39  41  51  59 101 129 147 128 103  66  52  49  46  47  66 129 213 213 205 227 204 214 151 181 106 129 113 166 164 235 208
  39  42  43  52  56  57  56  57  61  62  66 107 158 159 172 108  87  73  56  82 133  85  37  32  83 124 117 104  75  45  40  40  46  48  46  43  43  49  54  55  61  64  75  82  78  76  73  85  93  95  90  86  93 100  91  80  68  51  43  43  39  35  40  52  77 108 125 140 121 105  78  53  50  49  47  65  84 194 172 202 219 228 208 182 142 119 141 140 149 226 191 224
  54  46  58  56  57  55  56  59  66 121 154 211 180 166 139  85  58  86 100 119 114  79  35  30  76 127 119 105  77  56  39  35  39  41  39  39  43  45  50  53  61  67  75  82  77  72  71  81  88  87  81  84  84  94  88  71  56  47  41  38  37  37  42  54  93 119 128 136 120 106  89  58  50  50  47  57 137 202 196 163 198 242 168 199 155 187 120 155 144 190 174 233
 126 136 113  79  51  56  66 112 190 219 162 191 123 100 110 152 133 180 127 106  77  62  34  30  62 126 120 106  86  50  39  38  36  34  37  36  41  44  45  50  57  65  71  75  69  66  68  77  85  78  78  74  80  80  75  63  51  45  38  36  37  35  42  66 106 119 125 125 114 103  96  65  51  49  50  57 106 161 174 186 199 215 222 223 165 156 101 121 140 151 207 210
 113 122 117 134 138 125 182 192 180 217 122 141 137 142 168 187 127 147 108  79  65  50  33  28  51 124 120 111  97  64  47  36  35  36  34  35  39  42  43  48  52  58  66  65  59  58  68  76  83  76  72  69  71  68  59  52  44  41  38  36  35  38  58 101 111 118 122 120 111 103 100  70  53  50  51  56 151 178 202 190 167 209 236 193 186 154 146 126 180 148 228 154
 122 142 156 173 154 183 186 202 160 209 164 171 125 116 163 165 146 208 159  59  57  43  31  26  42 112 118 112 102  80  60  42  34  32  34  35  36  41  43  44  46  51  57  53  52  54  62  68  67  70  61  57  57  54  50  45  39  36  35  36  37  45  86 106 113 116 117 115 109 103 100  75  52  49  50  58  92 157 195 185 203 176 221 150 220 131 137 126 120 124 138 162
 147 170 198 218 177 198 178 178 145 167 132 146 188 143 200 103 162 105 103  48  55  42  31  25  46  93 117 110 104  93  77  49  37  34  34  32  34  40  37  41  42  44  46  45  49  49  56  61  59  56  51  49  47  46  41  39  38  35  36  36  44  72  96 107 110 111 111 109 106 103  98  78  52  48  48  53 113 205 216 212 176 204 213 217 156 132 124 117  98 154 131 176
 202 196 185 228 168 140 169 143 144 155 152 199 188 134 173  99 125  93 111  62  56  38  28  25  41  78 108 110 104  99  87  70  52  37  32  30  31  33  32  34  35  35  34  36  43  43  45  49  49  42  40  40  37  33  35  36  37  37  37  43  66  96 103 109 108 107 107 105 103 100  98  79  52  47  48  53  60 162 195 201 214 182 186 212 155 193 111 104 127 147 175 172
 197 219 174 197 136 140 135 199 136 112 115 177 127 134 123 127 101  90  62  53  55  36  29  24  37  69  90 106 103  96  90  83  74  53  35  35  31  31  31  30  30  31  29  31  34  34  36  39  41  35  35  34  33  31  32  36  35  43  50  68  88 101 103 105 104 103 102 102 102  99  96  79  55  47  46  54  67 205 198 218 184 197 218 203 134 101 122 138 189 166 218 124
 168 218 162 189 157 169 193 146 161 167 131 180  65  78  68 143  63 107  63  75  55  42  29  24  32  60  77  94  99  94  89  85  83  76  69  55  38  31  32  32  30  29  28  30  30  31  31  34  35  33  32  33  34  34  37  47  63  67  76  87  94  98 101 102 101  98  99  99  99 101  99  81  56  46  47  53  56 117 180 178 210 208 178 189 190 122 163 127 216 147 192 138
 182 201 212 170 171 140 145 173 194 166 186 137 127  97  96 106  47 107  87  56  55  42  29  24  29  51  67  80  89  90  88  87  84  85  83  74  72  59  49  41  37  33  34  33  33  35  35  35  34  34  34  36  41  46  59  72  73  78  85  92  95  98  98  96  98  97  96  98  99 101 100  80  58  47  48  52  76 138 223 209 185 189 209 208 220 121 170 155 194 176 128 111
 136 142 137 157 120 165 161 195 174 180 165 129 118  82 124 131  51  95  76  53  53  44  32  24  31  45  65  72  80  86  88  89  85  87  84  85  84  81  72  66  64  63  62  64  60  60  56  59  54  57  54  53  60  66  76  79  82  87  89  93  96  94  93  93  96  95  97  96  98 101  98  80  56  49  47  52  69  66 182 179 203 214 185 185 204 175 155 188 136 194 111 112
 121 121 145 134 207 126 165 171 176 183 134 122  64  95 116  72  53 110 102  43  54  47  33  25  28  38  55  68  71  80  86  87  88  87  87  86  88  86  85  81  77  78  80  79  79  79  76  77  78  78  75  67  75  76  82  83  85  87  90  91  92  94  93  94  94  95  97  96  97 100  98  80  57  49  49  54  84  97 226 227 184 181 218 234 215 224 128 227 131 136  83  87
 100 130 126 136 102 149 155 173 189 139 132  82 100 141 134  62  78  89  56  46  50  46  38  23  29  35  49  64  70  74  78  80  86  88  89  87  89  88  86  87  85  83  83  85  86  84  83  84  85  80  82  80  83  84  84  84  86  89  90  92  92  94  93  93  93  95  95  95 101 103  99  82  58  50  50  56  86  77 133 194 203 217 206 186 182 214 152 152 138 113  93  90
  66 132 107 132 172 177 142 179 134 134 108  93  92 114 130  47  77 150  65  48  46  47  38  27  28  34  45  56  66  68  72  76  82  84  87  86  88  87  88  88  86  84  85  85  86  85  85  85  85  86  86  83  85  87  86  86  88  91  91  91  95  96  94  96  94  97  96  99 102 106 101  81  59  52  49  56  80 128 179 221 208 187 194 218 240 234 214 133 134  92  93  87
  81 142 145 112 130  99 192 131 120 123  79  75 117 126  94  51  89  98  37  52  51  50  40  28  28  32  39  51  64  68  70  70  77  81  83  85  88  88  88  86  88  86  86  85  86  87  88  86  85  85  87  86  86  85  85  84  88  91  91  92  93  96  99  96  98  99 100 101 105 108  99  81  62  53  51  58  74  91 103 194 198 227 209 216 206 183 215  92 100  95  98  80
