P2
# Generated by OpenCV 3.4.0
92 112
255
 110 110 110 112 113 111 113 112 113 113 113 113 114 114 115 116 115 115 116 115 115 115 118 117 121 124 120 121 121 124 147 145 143 142 136 144 144 142 141 147 143 156 168 153 165 152 146 140 143 136 135 137 139 139 141 142 141 142 145 144 148 148 152 151 153 155 156 160 160 162 165 166 168 169 170 174 176 178 179 182 185 188 189 193 196 197 201 205 207 209 212 215
 112 110 111 111 113 111 113 113 113 114 112 112 114 113 114 113 115 116 114 116 117 118 116 118 122 132 122 125 139 140 142 144 156 168 168 176 173 181 173 180 191 185 188 189 178 189 193 173 144 139 138 139 139 138 138 141 143 144 144 146 147 148 151 151 154 155 154 158 157 161 163 166 167 169 171 174 176 175 178 180 182 185 187 190 192 195 199 201 205 206 207 211
 109 109 112 111 111 111 112 110 112 113 111 112 114 113 115 114 116 114 114 114 117 117 116 117 121 129 129 131 142 140 149 149 152 160 166 173 194 193 199 205 192 190 197 217 229 204 243 210 193 165 161 161 141 139 138 140 140 141 142 144 146 148 149 151 152 154 156 162 161 161 162 164 166 168 169 170 174 175 175 179 181 182 185 188 189 191 194 198 201 202 205 206
 110 110 112 112 110 110 111 111 112 112 112 113 113 114 114 114 114 114 113 113 114 116 115 118 124 131 138 144 138 147 145 148 146 155 166 168 172 197 206 209 167 185 211 231 247 248 246 227 181 195 236 227 158 142 140 139 139 141 142 143 146 146 149 150 152 154 154 161 173 160 162 161 165 167 168 170 171 172 174 177 178 178 182 185 187 190 191 193 198 199 201 204
 111 110 110 111 109 109 110 111 112 112 113 111 113 112 114 114 116 115 115 115 116 117 120 124 127 134 137 144 136 137 134 137 134 142 166 159 165 183 205 210 166 186 215 244 223 246 248 213 233 250 251 250 233 167 143 141 140 140 142 143 144 147 147 149 149 152 155 158 174 161 158 160 162 165 166 168 170 170 172 173 175 176 178 181 183 186 188 189 192 193 196 197
 109 110 108 108 108 110 111 110 110 112 112 110 113 111 114 113 116 115 115 119 123 118 121 129 126 127 121 124 122 119 115 131 131 136 149 145 158 182 200 196 196 196 220 239 236 245 245 207 226 245 238 248 251 216 158 148 142 145 142 144 144 147 145 147 146 147 148 150 153 163 151 152 154 154 155 157 156 159 160 160 163 164 165 165 168 170 173 175 177 180 181 182
 108 109 109 108 110 111 111 109 111 111 109 110 112 113 113 113 114 116 117 120 125 124 126 131 129 132 121 122 121 120 114 127 138 138 152 152 153 171 185 204 199 194 202 205 236 224 235 229 220 246 249 251 252 237 166 157 157 146 144 146 150 136 130 129 131 130 133 134 132 136 137 137 139 141 143 144 146 148 150 152 154 155 158 159 161 165 167 170 171 172 174 177
 107 107 109 109 108 110 109 111 108 110 109 112 111 111 112 113 117 123 121 118 123 129 127 130 129 131 125 121 125 123 120 129 145 134 151 163 150 160 167 175 189 175 171 188 203 209 220 250 197 232 242 249 251 246 214 171 217 156 137 129 154 165 160 166 136 138 128 127 129 132 132 133 133 134 137 138 139 141 142 143 146 146 149 149 151 153 156 159 160 162 166 169
 108 108 108 108 110 109 108 109 109 110 109 110 108 112 116 119 116 120 119 117 124 127 118 124 123 124 125 126 122 128 120 131 135 138 145 155 139 146 145 147 160 153 155 158 182 196 195 229 184 216 236 250 250 250 249 241 233 183 124 114 114 156 132 133 180 165 121 118 118 122 122 123 124 126 131 130 135 137 137 141 142 145 147 149 151 153 158 161 163 164 165 169
 107 108 108 108 108 108 107 107 107 108 110 112 112 111 114 125 122 115 123 123 126 126 121 119 117 123 127 134 122 126 126 130 130 137 136 144 137 136 130 138 146 145 147 146 161 174 168 188 178 197 246 237 230 245 252 252 252 240 156 125 118 119 178 124 120 177 154 132 135 130 130 131 130 132 133 134 136 136 138 140 141 142 144 145 149 149 152 155 154 158 159 162
 107 107 107 107 109 108 106 109 107 109 111 110 114 112 114 116 142 113 119 124 133 122 121 107 117 116 125 131 126 120 124 124 126 130 131 135 134 129 126 133 139 143 141 143 149 152 158 163 156 177 208 198 181 216 249 252 252 252 232 174 154 139 141 148 122 123 162 130 126 149 134 130 137 129 128 128 130 132 134 135 137 140 144 146 148 150 152 153 155 156 158 161
 107 106 107 107 107 107 108 107 107 108 108 109 109 113 114 113 127 116 125 120 125 124 114 109 112 121 125 128 119 119 124 128 128 128 127 131 130 128 128 132 136 139 139 143 146 151 151 143 143 157 164 183 176 188 238 251 252 252 251 222 197 187 148 157 124 123 139 147 129 138 134 124 129 136 128 130 132 132 134 135 138 141 148 149 146 146 151 152 153 155 158 160
 106 106 106 106 107 106 106 106 108 108 108 113 113 118 120 113 122 119 125 121 118 123 110 105 111 125 127 126 122 117 122 127 128 130 131 130 126 126 130 131 131 133 138 145 149 160 144 146 145 149 152 153 180 177 210 211 248 252 252 251 230 224 204 150 140 130 135 149 150 139 137 128 129 130 130 135 135 136 140 143 147 149 148 150 150 154 156 159 161 163 165 168
 105 106 105 107 106 107 107 107 107 107 107 111 115 120 121 119 115 120 115 115 111 109 110 106 107 119 122 125 126 124 122 124 127 132 131 132 126 129 131 130 131 140 142 148 162 151 148 147 145 150 150 166 168 178 189 198 216 252 251 252 251 251 208 181 164 141 143 153 171 173 156 142 142 142 144 146 147 152 155 155 154 155 158 160 163 165 166 169 170 171 171 173
 105 105 106 105 105 106 106 106 107 108 110 111 116 121 132 141 128 117 116 113 111 106 106 103 106 116 121 124 123 124 126 126 130 132 132 134 130 132 135 132 132 138 144 151 154 151 154 153 155 160 167 169 176 185 192 195 209 228 242 251 252 252 243 217 175 181 174 165 179 181 198 160 149 148 150 150 152 154 155 155 155 157 158 159 162 163 166 166 168 169 170 171
 105 105 107 105 106 105 106 105 107 111 109 113 123 132 136 129 117 111 108 108 106 107 107 111 115 124 127 127 125 124 126 128 129 135 133 138 139 138 138 138 138 143 147 149 151 152 158 153 154 161 167 173 179 188 199 205 223 236 237 245 249 252 252 227 194 179 199 188 159 176 173 196 152 149 155 154 150 151 152 153 154 155 157 157 160 161 162 163 168 168 168 169
 103 104 105 105 103 104 106 106 109 110 114 114 112 113 118 119 118 117 113 113 111 113 121 120 126 134 137 137 135 134 133 134 135 141 141 144 146 143 145 146 143 145 140 142 150 154 151 157 161 168 170 177 188 196 201 216 238 247 250 251 250 252 252 249 218 193 186 219 174 164 155 166 160 150 149 148 148 149 150 152 153 154 155 157 158 160 161 163 165 165 166 167
 103 104 103 104 104 104 104 109 113 112 114 112 111 115 130 111 111 116 111 116 124 130 136 145 141 145 146 144 143 146 145 146 147 149 151 151 147 151 153 152 152 148 146 148 154 154 163 172 175 174 180 186 192 198 208 225 246 252 252 252 252 252 252 252 251 234 197 218 200 167 154 156 156 151 148 146 147 146 147 149 149 151 152 155 156 156 158 159 160 160 162 165
 103 104 104 105 104 104 103 110 110 113 112 122 117 114 127 119 121 125 120 122 131 142 152 161 156 155 150 152 151 152 154 153 153 154 157 156 154 158 158 157 156 157 155 158 162 168 172 177 182 186 190 193 194 199 204 222 248 252 252 252 252 252 252 252 252 251 242 217 218 189 162 210 179 154 154 147 147 146 146 148 148 148 151 153 153 154 157 158 157 158 162 161
 100 103 103 101 100 106 106 115 117 114 113 120 116 114 125 129 128 129 131 135 140 145 155 164 159 157 152 152 153 156 158 156 154 158 160 162 161 160 160 159 161 160 160 163 172 177 175 180 186 190 189 191 194 198 202 208 240 252 252 252 252 252 252 252 252 252 250 230 210 186 171 189 211 173 164 151 147 148 146 146 148 147 150 152 154 154 155 155 156 156 158 159
  99 100 100 102 102 105 105 119 118 111 116 128 119 120 124 129 129 132 137 142 147 152 152 156 150 149 149 151 150 152 157 156 157 160 161 163 163 165 162 161 164 159 162 172 177 181 181 181 184 188 190 188 192 197 201 203 222 248 252 252 252 252 252 252 252 252 252 243 221 169 163 200 180 196 185 169 150 161 149 145 146 146 150 151 152 153 152 154 155 154 155 155
 100 100  99 101 101 101 105 134 123 115 114 122 116 114 122 134 138 141 146 153 152 152 150 152 148 148 150 148 148 153 155 157 159 161 161 163 164 165 165 164 165 166 168 176 177 180 180 180 182 184 185 189 194 194 198 199 209 231 250 252 252 252 252 252 252 252 252 248 231 172 160 166 182 170 160 146 148 147 162 145 144 145 147 148 148 149 150 152 153 152 152 154
  97  99  99 101 101 101 110 145 129 112 112 122 120 120 137 145 147 147 150 154 155 152 150 149 150 148 146 146 145 150 153 155 156 159 159 161 160 159 162 161 162 161 164 168 174 179 179 178 180 181 179 180 186 190 199 196 201 214 235 250 252 252 252 252 252 252 252 252 232 176 160 164 163 151 145 141 145 142 146 145 143 143 145 145 146 147 149 150 150 151 151 152
  99  98  98  99 101 101 112 146 131 112 115 116 116 143 154 156 152 153 157 159 158 158 154 150 148 145 145 143 143 147 152 154 155 157 157 159 157 156 158 160 159 160 158 162 168 167 166 166 172 174 175 178 179 180 182 185 189 197 211 234 250 252 252 252 252 252 252 252 245 199 183 176 183 147 141 140 146 145 145 145 141 143 142 145 146 145 145 147 147 149 148 149
  98  96  97  98  99 101 110 142 131 112 125 116 132 154 163 159 156 159 161 162 160 159 154 149 148 146 145 144 144 145 145 148 149 152 154 155 156 155 158 155 154 158 157 157 160 157 152 150 159 166 172 176 179 181 180 178 180 184 190 207 229 249 252 252 252 252 252 252 251 234 197 181 158 149 140 139 143 153 156 143 140 140 141 140 142 144 145 145 146 147 148 147
  98  95  97  97  99 100 109 138 123 112 124 121 148 161 177 170 166 165 166 161 159 157 155 149 146 144 141 141 140 143 142 144 145 150 152 153 152 155 158 155 152 155 152 151 150 153 147 149 159 161 168 171 175 177 179 172 175 175 179 189 201 223 247 252 252 252 252 252 252 250 215 192 156 144 139 138 140 146 139 138 138 139 140 140 141 141 143 143 144 146 146 146
  97  95  96  96  96  99 107 130 124 116 124 149 157 186 221 190 173 165 164 164 159 156 153 144 141 138 136 135 136 139 143 144 145 146 149 151 150 149 151 152 150 151 149 149 150 152 149 152 158 162 166 165 168 171 171 169 169 170 172 178 184 195 223 249 252 252 252 252 252 252 233 197 164 144 137 134 133 142 138 134 136 138 137 139 137 140 140 141 142 142 143 145
  97  95  96  95  96  98 108 137 124 120 137 157 167 216 242 202 178 168 162 161 155 150 146 140 135 135 133 133 133 135 137 140 140 142 143 144 145 146 147 146 147 151 151 153 155 155 153 154 154 156 159 161 163 163 163 162 164 167 168 172 178 184 202 233 249 251 252 252 252 252 249 204 170 153 139 134 135 137 148 140 138 137 138 138 137 138 139 139 140 140 142 143
  95  94  95  95  96 100 107 140 125 129 151 163 186 227 235 207 183 169 161 159 149 144 139 134 132 131 130 131 130 130 134 136 139 141 143 148 150 152 151 149 149 153 153 153 154 154 153 155 150 151 154 158 158 159 157 159 160 162 164 169 172 177 184 207 233 250 251 252 252 252 247 211 189 196 170 144 138 149 145 147 134 134 137 136 134 135 137 137 137 139 139 139
  94  93  94  95  96  98 104 131 125 142 164 172 212 228 217 198 189 168 160 152 144 142 136 131 127 126 124 125 126 129 135 136 138 140 142 145 147 149 147 149 150 147 148 147 152 153 155 157 154 150 149 152 154 154 154 156 158 157 157 163 167 169 176 191 210 233 249 251 252 252 249 214 174 157 156 164 136 132 136 132 132 132 133 133 134 134 136 136 134 136 136 138
  92  93  93  93  95  95 102 133 133 161 169 186 222 219 204 196 187 164 152 146 141 134 129 126 122 121 122 124 124 129 132 136 140 137 135 144 148 149 151 149 148 146 147 147 151 151 156 158 154 152 153 151 149 152 152 153 149 153 156 157 164 166 171 180 194 212 237 251 252 252 251 243 178 161 147 138 135 128 131 130 130 130 130 132 133 134 132 133 134 133 134 136
  92  91  93  94  94  96 101 134 136 163 171 203 220 211 198 188 181 162 151 140 133 129 125 123 122 121 122 124 124 124 129 133 135 136 138 144 147 147 151 152 148 147 150 151 152 153 154 156 154 153 155 155 152 152 153 152 155 157 158 160 162 165 167 174 186 205 226 248 251 252 251 234 184 143 147 134 131 127 129 129 126 127 128 130 130 131 130 131 132 134 132 134
  91  92  95  94  94  94 100 136 136 155 171 206 217 207 186 177 168 159 146 132 128 124 120 120 120 119 120 123 125 125 125 128 135 138 142 144 148 148 148 152 151 151 149 148 149 151 151 152 156 155 156 154 157 158 155 154 156 158 161 160 158 161 163 168 175 188 213 235 250 251 251 231 189 143 138 132 128 126 128 128 127 126 128 128 128 129 131 131 131 132 132 131
  92  94  93  93  93  94 100 124 135 154 173 201 207 195 179 174 166 157 146 132 126 123 121 121 122 124 127 129 130 131 134 136 139 139 143 143 143 147 146 148 147 149 149 152 155 155 159 160 162 162 161 162 163 162 159 157 156 159 161 160 157 159 162 162 171 178 202 222 247 249 249 227 194 148 136 127 128 127 126 125 124 126 127 126 126 127 127 128 130 130 131 129
  91  92  92  93  92  94 104 130 130 153 175 194 200 187 173 165 161 152 140 128 128 128 126 124 127 133 134 132 134 135 134 136 141 143 142 144 144 147 150 149 149 155 156 160 159 159 159 163 165 164 162 162 164 164 162 159 158 162 162 162 160 159 161 163 166 172 191 211 232 247 241 221 196 167 134 126 126 125 125 125 124 125 125 125 125 126 127 126 128 127 129 129
  91  92  91  91  91  95 116 121 126 152 177 185 182 177 167 162 157 148 139 131 127 126 126 127 125 134 137 136 137 138 138 137 140 140 143 145 149 152 157 155 152 152 155 159 158 157 160 161 161 162 164 163 164 162 163 162 163 164 162 162 162 161 160 163 164 172 185 200 223 241 238 220 205 179 136 128 128 131 126 123 123 125 123 123 124 124 125 125 126 128 126 126
  90  89  90  88  92  97 117 108 119 155 172 173 172 170 161 157 150 149 142 130 126 127 128 129 129 131 134 134 137 140 140 139 142 141 143 145 148 151 155 155 154 149 147 147 152 157 161 161 163 164 167 167 165 164 162 162 160 163 161 164 160 159 160 162 164 171 182 192 213 223 232 221 187 162 154 169 164 140 126 121 122 120 120 120 122 124 124 123 125 124 125 126
  91  88  90  89  92 102 119 107 132 156 168 167 167 163 155 154 151 151 139 128 125 128 130 131 133 132 132 134 138 139 140 140 143 142 145 144 144 150 152 152 151 149 148 148 152 157 162 163 165 167 168 168 166 164 163 164 162 161 159 161 161 160 159 160 163 170 180 191 209 222 224 218 189 169 152 139 144 169 134 122 119 121 121 120 119 121 124 122 123 123 125 124
  89  89  88  89  90  97 109  98 127 150 162 162 162 159 157 153 149 146 136 126 125 127 129 129 132 133 137 139 138 141 142 143 144 141 146 147 147 151 151 152 150 150 151 153 154 157 158 161 166 168 168 167 164 161 161 164 164 162 160 162 161 160 160 160 163 170 184 190 202 214 216 209 189 162 135 123 124 123 134 121 118 119 119 120 118 119 120 119 120 123 122 122
  88  90  89  88  89  95 101  92 112 142 153 162 162 159 158 153 150 144 137 130 126 126 131 130 130 135 137 137 139 139 137 138 140 141 143 143 145 146 148 150 150 151 150 151 151 152 159 161 164 166 166 165 162 161 160 160 161 158 160 161 160 159 161 161 164 172 183 189 194 209 214 207 179 144 126 120 119 122 119 123 118 118 118 119 119 119 119 119 120 121 119 120
  88  90  88  87  88  93 100  92 108 139 151 152 156 157 156 152 152 150 142 131 126 125 128 127 131 131 133 135 135 137 133 133 138 135 136 139 142 143 144 144 148 145 145 146 148 150 154 157 158 159 161 160 157 159 159 157 159 159 162 160 159 161 162 166 170 176 184 187 191 203 209 200 172 137 123 119 117 119 118 118 118 117 118 117 118 118 118 118 118 118 119 117
  88  90  88  88  88  91  98 100 109 137 149 149 152 154 151 153 150 147 141 133 125 127 128 129 130 130 130 128 131 131 132 130 130 129 130 134 137 137 138 140 143 139 140 141 144 145 147 150 150 150 153 156 154 152 154 154 159 162 162 161 163 164 166 172 182 188 191 194 191 197 207 199 166 147 122 118 117 117 116 117 117 116 116 117 118 117 117 116 117 118 118 117
  87  87  88  88  87  88  92  91 101 126 140 147 146 149 150 149 150 148 142 138 130 131 132 134 133 132 130 128 129 128 125 124 126 125 127 128 130 133 135 137 140 141 138 138 139 138 140 141 138 140 144 146 149 148 153 157 158 162 163 163 167 172 180 193 196 202 208 204 198 196 200 195 161 138 123 117 118 117 116 115 116 117 117 117 115 117 117 117 117 117 118 117
  86  87  87  87  89  88  90  86  96 123 135 145 142 149 153 149 148 148 144 140 139 137 136 135 134 132 130 126 124 121 119 118 117 117 118 119 123 127 132 132 132 138 135 133 131 134 133 131 126 127 132 140 144 148 153 158 157 159 160 162 168 173 180 194 205 217 223 213 205 197 200 193 156 145 121 116 116 114 115 115 116 116 116 116 115 116 116 117 116 116 117 116
  87  86  89  89  87  90  89  89  89 117 142 145 142 149 152 148 149 150 151 144 141 134 129 125 121 120 120 114 111 109 103  99 103 107 107 112 119 123 123 125 125 130 130 130 126 128 128 122 119 116 121 129 135 143 146 146 144 148 144 147 153 159 167 186 198 225 238 229 214 202 203 186 150 128 121 117 115 115 114 117 116 116 116 116 114 115 116 115 115 114 116 117
  87  88  87  90  89  88  86  84  85 112 145 144 142 147 148 151 155 156 152 142 131 121 115 109 102  96  92  93  93  91  89  88  91  93  95 101 106 113 117 120 122 125 124 123 121 121 120 116 115 115 114 118 120 128 132 133 132 131 132 131 133 133 144 168 180 210 236 244 226 208 206 181 148 122 116 114 115 114 114 115 114 115 115 116 113 113 114 115 113 115 116 114
  88  88  88  90  88  88  87  85  89 115 144 144 140 147 156 155 159 158 148 129 116 103  89  85  82  81  76  78  82  83  82  80  82  84  87  91  99 104 110 113 117 120 123 122 115 114 111 110 109 108 108 108 107 106 107 109 112 114 113 113 111 116 122 131 138 162 196 235 233 218 213 183 140 126 118 115 114 113 114 113 115 117 115 116 114 114 114 116 113 114 117 115
  87  88  88  90  89  89  91  91  82 110 136 141 142 150 157 157 161 148 125 105  88  79  75  71  69  69  69  69  72  78  80  74  76  81  83  84  89  94 100 104 112 115 117 117 112 105 104 102 102 102  97  96  94  94  93  91  92  93  92  94  96 100 104 109 113 126 151 174 224 223 221 178 141 123 118 119 119 117 118 118 118 118 118 120 118 120 121 118 118 120 120 119
  88  88  89  87  89  90  88  84  75 101 137 144 145 151 156 162 147 112  93  87  82  75  76  76  74  73  72  73  72  73  77  76  74  78  79  81  86  89  92 100 106 112 113 115 106 104  99  94  96  95  92  90  87  87  86  86  84  89  93  94  98 101 105 107 109 111 119 152 212 226 230 175 135 125 123 123 122 121 122 121 122 123 123 122 120 122 120 118 120 119 121 122
  89  88  90  90  90  91  90  86  72  95 135 146 146 148 152 147 128  99  86  85  87  85  83  82  83  83  81  81  80  79  80  80  80  79  79  81  84  87  91  96 101 109 110 111 106 100  94  90  94  92  88  88  88  87  88  91  95  96  98  98  99  98 104 106 110 109 117 132 184 221 235 187 132 125 124 123 124 121 120 120 121 121 122 120 120 120 120 121 118 118 119 119
  97  96  98  97  98  98  97  96  80  84 126 150 147 149 149 131 115 101  98  95  94  91  86  86  84  84  82  82  83  81  79  81  80  82  83  84  85  86  89  92  97 103 111 112 106 102  94  91  92  90  90  91  91  91  93  96  95  94  95  93  96 101 105 110 112 112 114 123 160 217 238 199 136 127 136 135 126 122 120 120 121 118 118 118 119 119 118 120 118 119 118 119
 100  99  99  99 101 102 102 100  87  81 122 150 148 149 137 118 104 101 100  96  96  92  89  86  83  83  82  81  81  79  79  76  79  79  79  83  85  85  88  92  96 103 109 110 108 103  94  90  92  88  89  90  88  88  85  84  79  81  81  80  88  93 102 108 106 107 110 117 145 198 236 214 160 212 250 239 162 125 119 118 119 117 119 119 119 117 118 118 117 119 118 118
  98  99  98 101 102 102 102 102  96  83 115 148 147 145 131 113 106 103  98  97  92  89  86  82  78  74  72  66  64  64  60  63  65  71  72  78  81  84  88  91  95 103 107 109 111 104  96  94  89  86  84  82  77  73  73  75  76  77  79  84  90  92  89  94  97 103 108 116 141 193 233 236 216 190 197 227 209 131 119 120 119 116 117 117 118 118 118 118 117 118 118 117
 100 100  99 102 102 105 105 104  97  87 114 152 145 140 125 112 107  99  96  94  86  78  73  70  72  71  67  62  60  60  56  55  55  58  64  70  73  82  88  91  94 101 110 115 115 106  96  91  84  78  76  69  72  74  75  76  72  72  72  77  91 100  97  94  93  99 105 114 140 182 228 231 183 152 144 152 190 139 120 118 118 118 118 117 116 117 116 116 116 117 117 116
 100  99 102 108 123 124 106 100 100  92 110 148 148 139 126 116 103  94  89  84  77  76  82  80  75  72  68  59  52  49  50  54  56  56  56  60  66  74  84  91  98 104 116 124 120 109  99  86  76  71  69  71  75  78  80  79  69  58  53  57  66  77  94  92  92  95 101 108 132 181 221 225 154 128 125 124 143 130 118 116 117 118 117 116 115 115 116 117 116 117 117 116
  99 101 104 150 123 110  95  94 100 100 106 151 146 139 123 112 102  89  84  77  80  84  82  76  67  60  50  43  36  38  46  50  53  53  57  59  60  69  78  93 104 112 125 132 131 122 104  83  69  70  71  67  71  76  85  82  70  58  51  50  63  77  85  87  90  92  99 106 133 176 220 225 136 113 118 117 131 120 117 117 116 116 116 115 116 115 115 116 115 115 116 116
 100 101 115 104  88  85  86  88  97 101 116 155 149 139 124 112  98  86  83  78  81  80  78  71  76  70  50  43  37  37  46  52  56  48  50  61  65  68  76  93 107 119 130 138 139 133 113  81  75  66  58  59  64  77  90  91  73  62  59  63  60  82  82  88  94 103 103 112 132 167 219 219 119 106 111 112 133 118 117 116 115 115 116 115 114 114 114 114 115 114 115 114
 100 100 107  82  64  64  67  77  91  98 112 151 151 139 125 114  98  86  81  78  79  73  68  83  90  83  53  43  41  44  47  54  52  47  50  58  68  68  80  97 115 126 136 146 150 146 124  85  74  69  67  65  67  69  77  90  85  73  71  72  78  91  97  97 103 114 117 125 140 165 211 219 124 109 105 111 133 116 114 114 116 114 116 115 114 114 113 114 114 113 113 112
  98 102 102  73  60  63  66  75  80  90 103 154 150 138 126 114  99  89  83  88  98  87  80  81  89  95  73  52  46  46  49  53  54  53  57  64  68  73  86 102 120 133 140 148 156 151 139  95  75  71  71  71  71  72  73  75  78  76  76  81  98 100 101 108 116 122 132 137 147 168 203 213 124 115 105 117 125 116 114 114 114 114 114 112 115 114 114 112 112 112 111 112
  99 102  94  71  59  63  66  75  77  80  96 150 151 140 123 115 105  97 100 116 123 105  87  80  75  73  70  64  56  59  58  57  58  57  58  63  73  83  94 107 126 137 140 150 160 156 146 119  83  71  69  72  72  73  78  78  80  81  83  87  93  98 105 114 124 131 136 143 153 166 196 207 118 115 114 128 121 113 113 113 113 112 112 111 113 112 112 111 112 113 112 112
 100 100  96  71  58  62  68  84  95  92  82 139 147 141 127 118 112 108 116 128 131 115  96  85  75  71  69  67  66  64  62  59  56  56  58  68  84  95 104 119 131 139 141 146 161 161 147 137 100  81  73  72  70  72  78  82  87  89  91  95  99 102 107 122 134 141 145 149 156 168 191 187 111 113 122 139 125 113 111 112 112 111 111 112 111 112 112 110 111 111 110 111
  98 101 106  79  59  61  74  93  91  72  60 125 148 144 134 126 123 119 125 128 127 115 102  94  86  82  77  74  70  67  63  61  59  60  67  81  91 102 112 122 135 139 140 146 156 156 147 141 129  99  85  76  71  75  78  80  86  90  93  97 100 102 114 130 140 146 149 150 155 170 196 175 104 113 128 122 112 102 110 111 112 111 111 111 111 111 109 110 110 111 110 111
  96  99 102  93  70  63  83  94  84  70  61 106 147 143 140 133 130 129 128 126 122 108 100  93  89  83  81  76  70  67  65  66  67  72  84  89  97 106 117 124 134 138 138 145 152 149 143 140 135 118 103  91  86  79  78  80  84  90  92  95 100 109 126 138 145 145 148 149 156 170 200 149 103 118 135  94 101 115 106 114 111 110 110 110 110 110 110 110 109 110 110 110
 100  98 100 102  86  68  83  90  78  66  62  95 146 144 137 135 135 131 127 122 119 110 101  95  90  87  83  78  74  69  68  69  75  84  90  96 101 107 117 122 128 135 140 148 151 144 137 136 136 128 117 108  98  91  84  80  85  88  91  94 104 116 127 140 142 143 146 146 151 166 200 151 127 126 123  73  77 119 125 113 110 109 109 108 110 110 111 110 109 110 109 110
  98  99  98 100  98  74  78  88  74  61  60  82 143 147 140 138 137 130 123 119 112 108 104  99  93  89  85  82  76  71  72  77  86  90  95  99 103 107 115 124 129 134 143 148 154 142 135 132 132 130 123 119 112 105  95  88  85  88  93 100 114 124 132 136 137 139 142 141 147 165 202 159 140 128 101  76  87 127 138 112 111 110 108 109 109 110 110 110 109 110 109 108
  97  98  99 101 101  92  79  88  70  59  57  68 138 147 138 137 134 123 118 112 104 102 102  97  95  89  84  81  80  80  84  87  91  96  98  99 104 108 115 122 130 133 143 151 151 144 135 134 132 131 126 124 118 114 107 102  96  96 101 111 118 128 134 133 131 133 134 135 144 171 196 146 121 131  78  69  79 105 121 102 108 109 108 108 109 109 108 110 110 110 108 109
  98  98  98 100  99 100  84  90  77  61  54  60 127 149 135 135 130 120 110 105 104 100  95  93  91  89  85  80  84  88  91  93  95  98 100 102 103 109 122 128 133 136 146 153 153 148 141 137 132 131 125 124 121 120 117 113 112 109 108 115 122 125 124 126 125 125 127 127 141 173 186 155 144 129  71  58  66  87 106 101 102 108 109 109 108 108 107 108 109 109 108 108
  97  98  99  99  98  99  93  86  91  86  81  85 122 149 136 131 122 114 108 105 101  99  92  93  91  88  85  87  91  96  94  96 100  98  99 101 106 115 124 131 136 137 144 154 156 149 146 139 134 130 124 119 121 123 123 122 120 118 117 120 122 122 120 119 121 120 122 122 134 177 186 163 165 120  80  70  66  75  88 103 105 106 108 107 108 108 108 108 109 107 107 106
  95  97 100 100  98  99  99  94  83  84  96 105 118 145 136 125 119 108 105 102  96  97  94  92  90  89  90  92  94  98  96  98  99  98  98  98 108 123 133 137 139 141 149 159 159 156 145 138 134 126 115 111 117 122 125 126 127 126 124 126 125 123 121 118 118 119 118 119 131 180 180 156 153 100  89  85  76  69  82 100 104 105 105 107 107 107 107 107 107 105 108 107
  96  95  98 100  97  99 101 102  96  85 101 114 110 140 138 123 115 101 100  95  96  96  91  91  91  91  92  91  97  98  98  98  95  95  94  98 117 137 140 140 142 146 152 160 160 156 149 141 137 129 109 108 111 117 121 125 128 128 127 128 129 125 122 120 118 119 118 118 132 187 164 147 126 101 110 106 101  72  85 103 103 104 104 106 106 105 104 106 106 105 105 106
  97  98  97  96  99  99  98 100 106 120 124 113 104 130 137 123 116 103  97  93  94  94  92  91  91  93  92  94  97  94  96  94  94  90  91 105 144 158 154 145 145 144 146 156 162 159 152 144 137 132 108 103 109 114 122 126 129 127 124 125 125 122 120 121 120 117 117 116 137 173 147 130 100  87  81  79  88  66  91 105 105 104 105 104 105 104 104 105 106 104 105 106
  97  96  95  96  97  96  98  98 103 115 109 105 105 116 135 123 117 104  96  94  92  94  94  93  92  92  92  94  95  96  98  94  91  86  89 119 165 177 168 154 145 140 138 144 151 154 150 142 138 136 115  98 102 110 119 125 126 127 128 125 124 123 122 122 121 118 117 115 142 160 123  98  85  76  70  75  79  66  97 107 104 104 105 103 103 103 103 102 103 103 106 103
  95  95  96  97  95  96  96  96  97 102 101 101 101 102 132 126 117 108 100  96  93  95  94  93  93  94  94  98  98  98  98  93  86  83  90 134 162 175 158 148 139 134 129 132 139 140 144 142 138 136 126 100  98 105 114 117 123 124 127 125 124 124 122 122 121 118 116 118 145 138  79  74  74  62  56  81  86  72 222 144 111 104 102 101 102 100 103 102 103 103 103 103
  94  96  95  96  96  96  97  94  95  92  74  96  97  96 121 129 120 111 101  98  93  94  96  97  94  94  97  98  98  98  94  89  83  81  90 132 143 145 138 129 127 125 120 124 130 135 139 140 137 133 127 109 103 106 112 117 122 124 125 126 124 123 119 120 122 119 118 123 147 109  72  81  69  59  58  69  86  84 200 225 120 104 101 101 100 100 101 101 101 102 103 102
  94  95  94  94  94  94  96  94  88  53  33  56  88  87 103 126 122 111 105  97  94  95  94  95  97  97 100  99  98  95  93  90  86  81  86 124 122 126 122 117 117 116 113 118 122 124 131 131 132 125 121 115 111 106 109 117 122 124 123 123 120 121 121 122 122 122 120 128 149 109  75  88  77  72  69  85 193 110 152 246 128 104 100 103 101  98 102 103 102 102  98 101
  94  95  93  94  94  94  95  92  44  33  27  29  47  69  77 114 122 110 104  98  93  95  95  96  99 100  99 100  99  98  96  91  87  84  85 116 114 110 108 103 107 107 105 106 110 115 121 122 120 112 113 119 122 116 112 119 122 123 124 124 123 122 121 120 121 122 121 136 145  83  64  83  78  78  71  93 118  96 152 167  93  86  87  85  88  93  98 101 109  99  97  99
  93  93  92  94  94  94  94  76  34  28  23  25  26  31  39  95 122 110 105  98  98  99  98  99 100 102 102 102 105 101  97  91  86  85  84  97 102 100 101  95  92  92  93  93  98 103 113 111 105 104 123 128 130 130 121 120 123 124 128 129 125 124 122 118 118 120 124 138 135  59  50  52  48  48  47  51  52  53  55  60  57  50  49  48  48  48  51  51  50  49  88  97
  94  93  94  94  94  94  93  75  41  26  23  24  28  40  53  85 122 114 108 101 100 100  98 100 102 103 104 104 106 101  96  93  90  88  86  87  85  79  89  95  88  87  86  88  90  92  95  91  78 109 135 140 136 135 130 126 125 127 127 129 127 124 123 119 115 120 123 138 115  58  52  50  49  48  48  48  49  50  51  50  50  48  46  46  45  44  46  46  46  43  82  95
  92  91  93  94  94  93  92  90  65  35  36  38  48  55  61  71 119 118 110 103 100 100 102 103 103 106 108 109 108 100  96  96  91  90  88  89  88  81  73  86  86  84  85  84  85  83  84  70  67 108 136 139 138 134 133 130 129 133 132 131 130 125 124 121 119 119 123 139  96  56  49  49  48  48  48  47  46  48  47  47  48  46  46  44  46  45  45  42  44  42  81  95
  92  92  91  91  92  93  92  92  88  64  59  60  60  60  58  63 109 119 109 106 103 102 103 107 109 108 110 113 107 100 100  98  94  91  90  87  84  83  80  77  79  82  83  84  80  75  69  58  68 104 131 139 138 134 131 131 129 134 135 134 131 127 125 121 118 118 122 142  76  52  49  48  48  48  48  47  46  47  46  45  46  44  46  43  44  44  43  44  43  40  79  95
  88  90  90  91  91  91  93  92  89  74  61  64  63  60  48  48  87 122 113 109 107 105 108 109 113 117 118 113 106 103 103 102  96  91  88  83  79  75  72  72  75  73  73  73  71  65  62  61  71  95 117 124 129 129 127 127 130 130 133 133 132 128 124 121 121 119 124 134  62  50  49  47  47  47  47  46  46  46  44  45  44  44  43  43  43  43  42  42  42  39  78  93
  89  89  90  90  88  89  96  90  89  75  45  47  53  38  39  42  69 121 115 108 108 110 112 112 118 119 119 109 104 105 104  98  88  86  83  76  70  66  65  68  69  71  71  72  68  63  59  62  70  83  93 105 114 117 111 115 119 126 129 132 134 130 124 121 120 122 127 124  56  50  48  46  45  46  45  45  45  45  44  43  45  43  44  43  41  43  41  41  41  38  76  93
  88  88  89  90  89  91  90  88  89  81  52  46  52  45  46  51  56 115 118 110 111 112 113 116 120 122 117 108 104 101 100  90  83  78  74  74  64  57  60  62  66  66  69  70  64  59  61  64  72  80  84  96 103 100  97  95 105 116 126 132 134 132 128 125 125 125 134  88  55  47  46  46  45  45  44  44  46  46  44  43  44  43  41  41  41  42  41  41  42  38  72  91
  91  92  91  89  90  90  89  88  88  85  67  63  62  57  63  57  54  81 120 114 117 117 118 119 123 122 117 108  96  90  88  80  74  70  69  68  61  57  55  57  63  62  64  66  62  60  62  68  69  70  72  82  92  89  84  73  78  93 110 126 133 131 128 127 127 128 135  77  52  47  45  44  44  43  45  45  44  44  44  43  42  43  42  40  41  40  41  38  40  36  75  90
  94  92  90  87  87  85  83  80  80  79  77  75  71  73  69  61  46  49 127 119 119 117 121 121 123 121 114 106  85  78  76  72  64  67  64  62  60  54  53  56  60  60  62  63  61  64  67  71  67  68  70  73  79  77  73  63  61  71  87 118 129 132 127 123 128 134 145 111  58  47  46  45  43  43  44  43  44  43  43  41  42  41  41  40  40  39  40  40  40  39  71  90
  84  71  69  68  65  65  62  59  61  59  59  58  57  55  55  51  32  30 109 116 118 120 121 120 124 122 109  94  82  72  69  66  66  63  59  58  54  50  58  59  59  58  59  58  56  61  73  75  70  69  71  67  70  74  70  66  60  68  80 108 126 133 128 119 125 132 127  92 142  68  49  46  44  43  43  44  44  41  42  42  40  39  41  40  40  38  39  39  39  38  68  89
 102  46  56  61  58  55  53  54  53  52  52  52  53  52  53  49  28  36  89 117 116 119 121 124 127 120 104  84  76  63  66  61  66  61  61  52  52  54  62  62  62  59  55  53  56  62  73  79  74  76  76  69  66  77  73  73  69  79  92 110 127 136 130 114 120 124  92  86  95 124  86  49  44  43  43  44  42  43  42  41  43  40  41  39  40  40  39  40  39  37  65  88
 108  55  47  53  55  53  52  50  51  50  50  48  49  51  51  50  34  40  65 119 112 119 120 123 126 121  99  81  67  59  58  58  63  66  64  58  59  61  66  67  66  62  54  52  58  66  68  80  77  81  81  76  71  66  65  72  73  82  91 106 123 136 133 118 126 118  66  66  77  97 111  99  50  45  44  42  42  44  42  41  42  38  41  38  40  38  38  38  37  38  64  87
  49  47  46  46  49  51  52  50  48  49  49  49  49  50  52  51  42  45  58 121 112 117 125 123 127 123 103  87  74  71  69  70  72  71  72  70  69  67  70  71  71  71  67  65  69  71  74  70  70  64  58  55  49  55  63  66  71  75  86  98 112 129 128 116 118 108  72  63  65  74  98 117  67  49  47  44  44  45  43  41  42  40  40  39  39  39  38  38  38  38  64  88
  47  46  48  46  46  46  48  50  50  50  51  51  51  51  53  51  40  38  48 103 105 112 120 122 123 117 101  86  82  78  66  57  49  50  54  52  55  58  61  67  69  68  68  67  67  64  61  57  48  48  53  58  60  70  72  71  77  80  86  97 106 117 116 116 114 100  55  52  56  63  75 120 157  59  52  49  48  49  49  46  42  42  41  39  40  39  40  38  38  36  60  87
  46  47  48  48  48  46  49  51  49  50  52  51  53  52  54  50  25  24  37  85 106 110 108 123 120 118  97  84  77  70  62  57  55  49  48  49  51  50  46  43  46  48  48  49  49  45  46  52  60  65  72  78  84  86  81  81  85  88  89  97 108 109 114 113 117 105  65  51  48  50  68  79 169 223 223 190 187 185 144  72  52  46  44  41  40  38  37  38  37  35  60  87
  47  48  48  50  50  49  51  50  46  51  55  53  56  56  56  52  23  23  26  92 103 111 104 122 120 113  94  76  72  70  68  69  71  68  64  66  69  68  64  54  49  50  50  50  53  55  61  73  79  81  89 103 102  98  94  95  96  89  89  92 104 104 102 105  94  87  58  46  44  47  56  74 111 199 237 250 232 228 162 230 177 100  53  44  43  40  39  38  38  38  60  85
  50  49  50  51  52  51  47  47  48  50  53  58  59  57  62  56  22  25  42 121 103 106 106 111 119 109  91  79  74  72  74  78  82  83  81  78  73  71  71  66  63  62  62  60  63  68  75  81  83  89  97 104 107 110 109 110 104  92  86  86  97  97  92  86  89  85  54  44  44  46  51  62  76 219 238 251 226 228 222 161 163 202 181  90  51  46  41  40  38  37  57  87
  51  51  50  53  53  49  46  48  52  53  57  60  59  60  64  62  26  28 182 104  91  92 102 105 112 103  91  84  74  75  78  82  84  86  86  85  83  78  73  70  68  69  71  70  72  74  78  87  91  92  96 101 107 118 115 110  99  87  81  80  87  86  86  77  94 104  67  48  41  41  46  50  70 127 217 234 235 232 233 133 154 146 235 217 182  67  48  44  39  38  57  85
  59  57  54  53  47  44  48  51  53  58  61  62  61  63  66  63  27  91 111 104  91  87  89  92 102 100  87  83  73  74  80  83  83  86  87  89  87  84  79  79  78  75  77  80  79  81  83  87  88  90  96 101 108 114 114 107  92  76  69  69  69  74  74  70  89 112  69  54  46  43  39  43  55 112 226 236 235 242 224 176 135 120 116 155 188 222 160  53  46  40  44  78
  64  52  53  45  40  52  48  51  58  59  61  62  65  69  66  77 110 138 113  80  94  73  75  82  90 102  86  74  70  70  74  83  84  87  88  90  90  87  82  83  80  74  74  76  74  72  78  80  87  89  97 103 109 111 108 102  87  73  67  58  59  62  64  67  93 139  90  56  51  47  46  41  47  64 194 217 214 208 212 192  98 128  99 170 144 203 188 206  72  43  51  68
  50  40  48  41  41  54  65  63  60  61  63  64  66  81 112 136 142 127 106  59  97  68  64  72  85  98  83  72  70  65  68  74  84  87  87  88  87  85  77  74  70  62  64  60  59  59  66  71  82  88  95 100 103 100  92  82  75  64  59  51  54  55  57  62 106 154 103  70  53  49  48  46  44  58 161 215 211 206 233 208 145 139 104 101  90  98 138 172 221 193 124 127
  40  43  43  52  58  56  56  61  66  67  67  70  93 184 116  94 101 102 107  52  87  69  57  63  83  81  78  68  59  57  59  65  77  84  87  84  82  80  75  70  64  54  53  52  50  52  57  68  76  82  91  96 102  96  82  72  68  61  52  48  49  52  50  70 120 156 112  76  55  51  48  48  47  54 114 206 226 218 221 191 181  99 119 103 138 118 190 166 230 194 241 227
  57  49  59  59  55  56  57  57  60  96 130 186 116  95  65  51 115 141  84  46  81  75  53  50  65  81  77  64  52  54  54  59  66  76  78  78  79  74  70  64  57  51  48  48  47  49  54  63  77  84  92 100 104  96  76  63  61  53  49  48  46  50  51  78 129 159 116  88  60  52  51  49  50  57  85 219 194 226 236 198 190 132 161 101 119 107 128 156 183 220 243 199
 126 139 120  82  57  55  72  98 189 174 139 105  68  60  81  88  87 130  72  42  76  85  61  50  53  67  71  60  54  55  54  55  58  68  72  74  75  70  70  66  58  52  48  47  48  52  59  66  86  99 104 107 102  96  75  61  56  50  43  44  45  52  54  91 131 149 118 100  67  55  51  49  48  53  79 190 212 201 217 230 192 154 111  99 105 116 113 189 161 231 202 230
 114 123 113 134 147 167 210 184 191 148 129 131 113  95 125  95 107 116  59  36  67 106  75  50  55  62  66  55  50  48  49  50  55  58  64  71  73  72  72  67  63  60  51  51  57  68  69  73  94 103 114 108  97  85  70  57  49  48  42  41  42  50  70 110 135 143 113 107  77  57  50  49  48  51  86 169 175 167 220 231 142 178 130 165 108 132 140 166 171 205 196 244
 119 144 166 183 185 181 217 147 171 118  96  97 118  92 140 103 121  92  51  32  51 116  90  64  50  54  62  54  50  44  49  47  50  49  57  64  68  73  76  71  74  71  63  61  72  88  84  91  97 104 108 101  87  78  59  50  47  43  39  40  44  50  74 107 132 137 112 109  88  61  51  50  48  50  88 141 204 162 154 216 214 209 128 124  84  91 115 116 189 180 224 210
 176 143 177 176 206 147 195 100  94 100 108 152 175 112 134  91  89  75  47  31  43 120  98  76  49  49  51  51  50  49  50  44  47  43  50  60  68  70  72  74  78  75  71  74  81  98  98  92  97 103  98  89  80  74  57  47  43  38  37  37  44  55  85 110 126 127 109 111  95  66  52  50  50  54 104 131 199 173 195 186 229 171 154 136 128 108 159 137 208 136 188 172
 220 178 200 171 210 133 187 142 163 144 128 168 136 143 129 134  72  65  41  30  28 120 114  99  59  47  43  42  44  48  45  44  43  43  52  58  61  66  72  80  79  78  71  78  86  99  98  90  86  93 100  90  82  71  54  45  41  42  35  39  44  59  99 117 124 122 109 108 101  73  54  49  49  53  87 135 207 192 151 175 216 159 203 100 114 103  99 113 118 149 198 158
 222 182 197 157 169 120 162 121 117 155 116 177  87 144 120  87  54  54  37  28  26 115 118 102  77  45  39  33  42  45  43  41  42  47  51  54  58  63  71  80  80  77  73  76  85  91  88  82  84  88  97  92  75  60  47  43  36  38  35  38  45  71 112 120 119 114 107 105 104  79  55  51  50  53  87 145 186 179 206 178 171 200 137 108 126 114  98 143 119 164 102 145
 201 152 151 140 126 117 144 142 176 178 109 144  86 146 105  91  59  45  35  26  24  97 116 107  79  59  36  31  36  37  37  37  40  46  47  49  56  62  70  76  78  72  67  70  80  84  80  78  78  81  83  78  70  55  44  38  36  36  35  38  58  97 110 114 113 112 107 106 105  81  57  50  50  50  61 156 188 207 178 191 213 213 155 157 107  85  88 133 128 140 125 102
 158 116 138 126 185 100 108 122 153 120 121 108 116  76 110  45  56  40  32  27  26  70 114 108  94  56  38  35  33  31  34  34  35  42  44  45  52  61  65  71  67  62  63  66  78  83  76  72  71  74  72  64  56  46  42  37  34  35  38  47  85 108 109 111 110 108 107 102 104  82  57  49  48  49  57 169 179 186 217 204 165 186 131 114  91 120 137 143 217 114 137 109
 182 158 151 160 129 151 133 130 146  59  70  65 126  59 132  52  65  39  30  26  25  66 107 109 100  70  53  38  34  32  32  32  36  39  42  43  49  54  56  62  61  55  57  66  74  75  72  65  64  65  60  54  48  43  37  35  35  37  38  65  98 108 109 110 107 106 103 102 102  86  58  48  48  48  56 113 184 203 177 191 206 206 165  83 141  96 207 106 152  89 108  87
 131 124 106 166 160 182 150 155 124 110  74  78 121  41  97  52  55  42  31  24  27  56  91 107 102  86  63  44  35  32  29  38  33  36  40  43  45  49  50  52  49  49  52  61  65  63  66  55  51  50  49  46  42  40  36  35  34  40  56  90 105 106 105 104 104 102 101 102 102  87  59  50  48  47  59 120 201 179 202 196 167 174 204 103 133 118 184 169 145 109 128 114
 163 126 169 124 186 157 146 169 100  82  56 106  70  74  87  76  58  46  33  24  25  47  74  96 101  92  79  56  37  32  34  31  31  33  37  36  37  43  43  42  44  47  46  53  55  53  49  46  44  42  39  37  37  37  38  37  37  50  86 101 105 104 102 102 101 100 101 102 102  86  61  47  49  48  59  62 170 198 163 167 206 223 209 145 127 156 130 122  83  69  89  72
 125 151  72 195 159 145 203  89 102  71  98 149  66  85  76  62  54  43  32  23  23  39  65  80  94  92  89  71  57  43  32  30  28  33  30  30  33  33  34  32  34  39  38  40  44  43  38  38  35  33  31  33  34  36  39  46  61  81  99 100 101  99  99  99 100 100  99 100 102  87  60  49  49  47  65  78 220 187 210 198 180 170 169 173 121 170 122 172 106  84 129 112
 116 125 151 147 144 212  81 119  91  80  82 103  39  92  78  66  56  47  37  26  23  33  58  73  81  86  86  82  75  60  40  34  32  31  30  30  29  29  28  28  28  32  32  32  36  37  33  34  32  33  32  32  38  53  61  68  83  90  96  97  97  92  96  94  97  97  97 102  99  85  63  50  48  50  63  64 115 187 178 181 212 216 204 231 127 176  90  88  84  55  86  66
