P2
# Generated by OpenCV 3.4.0
92 112
255
 110 110 112 112 111 114 112 113 110 113 112 112 113 113 114 114 114 115 116 115 115 116 116 115 117 115 117 118 120 119 120 121 119 120 123 127 122 123 125 135 124 125 126 128 129 129 130 131 133 134 136 136 137 138 138 141 141 143 144 146 146 149 151 151 153 155 157 159 160 162 165 166 168 170 170 173 175 178 180 183 185 187 191 193 196 198 202 205 207 209 212 214
 112 110 111 110 109 113 111 112 112 111 113 113 114 112 113 114 114 115 114 116 116 115 114 116 116 117 117 118 118 119 120 119 120 118 122 125 122 123 123 135 128 126 128 129 132 129 130 132 133 134 135 135 135 137 139 140 140 143 145 146 146 147 149 149 152 153 155 156 157 161 162 164 166 169 169 172 175 176 178 179 183 185 186 191 193 194 199 202 204 206 208 210
 109 109 111 112 112 110 111 111 113 112 112 113 113 112 113 115 114 114 113 114 116 115 115 116 116 117 116 119 120 119 118 119 120 120 122 123 122 122 123 130 131 126 129 131 134 132 133 136 139 134 134 135 135 137 138 138 140 142 143 144 146 148 150 150 152 153 155 157 158 159 161 164 166 166 170 173 173 176 177 178 180 182 184 187 190 192 195 198 201 204 205 207
 109 110 110 110 110 111 110 112 112 113 113 112 114 113 113 114 114 115 115 113 114 115 114 114 115 116 114 115 118 119 117 120 121 120 122 123 124 124 124 130 138 134 131 131 134 139 135 137 139 160 146 138 136 138 136 139 139 140 141 142 145 146 148 149 151 152 155 155 158 160 161 162 164 165 168 171 171 173 175 177 178 180 184 185 188 190 192 194 197 200 200 205
 110 110 109 111 110 108 109 111 112 111 110 109 113 111 113 112 114 114 115 112 114 114 114 114 115 116 115 116 117 118 117 119 120 121 127 131 140 133 136 140 146 135 137 137 142 160 161 154 159 143 162 141 137 137 138 138 138 139 140 141 145 146 146 147 151 153 154 155 156 158 159 161 162 166 166 168 170 170 172 173 176 177 178 180 183 187 188 190 192 194 197 197
 109 108 108 109 110 110 109 110 111 110 111 111 113 111 112 113 112 114 114 114 114 114 114 114 115 116 115 115 116 116 120 117 119 128 150 143 165 169 169 157 169 162 175 188 182 181 192 186 201 196 160 149 144 141 138 138 138 139 139 141 142 143 144 146 146 148 151 152 151 153 153 152 153 155 157 158 159 161 160 162 164 165 166 169 170 171 173 175 177 179 182 183
 111 109 109 110 108 110 110 108 107 110 111 110 112 112 112 113 113 112 113 113 114 113 114 115 114 115 114 116 116 116 124 120 129 149 147 154 167 179 189 201 215 198 227 225 191 210 226 229 214 225 228 213 192 173 144 139 129 125 126 125 124 127 126 130 130 131 133 138 150 135 136 138 139 140 143 146 146 148 149 153 155 156 158 157 161 165 168 170 170 173 174 177
 108 108 107 110 108 109 107 107 108 110 110 110 112 110 112 111 113 112 113 112 113 113 112 114 115 114 115 117 117 117 133 136 134 151 157 160 171 178 186 207 218 201 214 215 205 217 246 244 243 250 235 222 229 231 223 184 124 115 115 115 115 118 120 121 122 122 125 128 130 131 135 138 136 136 138 140 140 140 141 143 146 148 148 150 154 154 156 159 162 164 166 168
 108 107 108 107 107 108 108 109 110 109 108 108 110 109 111 110 111 112 113 112 113 115 114 115 115 115 118 124 122 120 140 146 147 145 149 158 165 164 178 196 211 216 200 192 209 231 224 245 244 244 250 237 249 249 251 251 196 126 109 111 110 111 111 113 113 115 116 116 117 121 122 133 153 129 130 132 134 136 137 141 142 146 147 151 153 156 156 160 161 165 167 171
 107 106 106 107 106 107 109 108 108 107 108 109 110 109 111 111 112 111 112 111 112 113 114 116 119 119 123 134 132 128 136 138 138 137 137 141 153 154 158 183 193 217 199 187 211 233 222 250 246 232 247 210 208 223 246 251 243 159 124 142 124 113 114 116 118 118 118 120 123 125 128 128 135 136 134 136 138 137 139 142 142 144 145 148 150 150 151 155 156 158 160 161
 106 105 107 108 106 106 108 109 107 108 108 107 107 108 109 109 112 109 110 111 113 112 114 118 126 126 129 137 140 136 133 131 129 132 133 137 145 161 152 165 174 191 190 181 193 201 214 236 244 198 214 235 202 219 244 252 252 212 166 150 151 124 124 139 147 130 116 117 118 121 120 121 125 130 125 129 131 131 133 135 138 139 142 146 147 149 152 153 156 158 159 162
 107 106 105 106 104 106 106 105 107 108 108 108 108 109 109 110 110 109 109 110 112 114 124 128 130 129 132 140 147 140 128 127 124 129 131 137 138 152 147 150 146 160 168 162 171 182 168 188 208 183 190 218 184 211 240 250 250 250 207 183 179 164 119 119 119 143 173 167 132 143 126 124 125 130 130 131 133 134 133 133 137 140 142 144 145 148 151 150 154 155 157 159
 105 106 106 105 104 106 105 105 107 106 106 107 108 108 108 108 110 108 111 111 112 115 120 129 134 136 123 125 132 137 138 126 125 126 127 135 135 142 142 136 133 144 149 152 153 159 154 163 170 172 194 202 221 236 234 251 252 252 252 250 221 191 145 124 121 120 121 153 171 146 134 132 130 132 131 134 135 137 137 140 142 143 148 149 150 154 157 158 160 163 163 167
 105 105 106 106 105 106 106 106 106 105 107 106 108 108 108 108 108 108 110 112 115 114 120 130 136 137 121 120 124 133 138 126 124 123 124 127 132 136 137 127 130 138 140 145 140 142 145 146 155 155 164 204 192 175 176 221 251 252 252 252 252 230 204 162 143 132 133 134 146 156 164 143 153 159 150 153 152 150 152 152 154 156 158 160 162 164 166 168 169 170 171 172
 104 105 103 105 105 106 105 106 106 105 106 107 104 106 106 107 107 108 111 113 117 114 114 139 134 134 130 120 122 127 137 125 124 124 126 126 130 134 132 125 128 134 139 141 141 141 142 149 144 140 150 164 180 155 171 204 239 248 252 252 252 251 237 219 211 169 155 150 147 155 165 159 154 166 157 153 162 156 154 154 155 156 159 161 162 168 173 168 168 168 170 171
 104 102 103 103 106 104 105 105 104 104 105 106 106 106 108 106 107 108 110 113 114 114 114 135 121 126 123 116 125 131 132 121 121 127 130 127 129 132 126 126 132 131 131 135 138 142 157 148 142 142 147 150 162 161 157 174 225 234 250 251 252 252 251 246 229 206 171 154 150 158 159 165 165 160 157 152 149 152 152 154 155 154 159 162 166 165 166 165 165 167 170 170
 103 103 104 105 104 101 106 104 104 104 103 105 106 104 105 105 106 110 112 118 116 118 114 121 122 119 119 112 121 132 130 130 123 125 127 132 131 128 128 130 130 128 134 135 142 149 149 150 145 148 147 155 162 159 171 180 196 219 222 230 250 252 252 252 247 232 192 169 154 156 158 160 168 179 157 151 147 150 150 153 155 155 158 158 159 160 161 163 162 164 166 167
 102 104 102 103 103 104 104 104 104 104 103 104 103 105 105 105 105 108 112 115 129 140 125 121 121 115 113 112 118 129 130 132 129 127 129 133 130 133 131 134 132 134 135 139 144 147 154 157 144 147 152 161 164 169 177 180 183 195 200 218 240 251 252 252 252 251 204 182 187 167 160 158 172 195 180 150 146 149 150 153 153 153 154 155 156 158 159 161 161 162 162 165
 102 100 100  99 103 101 101 103 102 103 101 103 105 104 104 105 107 109 113 113 117 137 125 121 119 112 110 113 122 134 134 134 130 131 133 137 132 135 138 138 137 137 139 139 140 144 147 144 142 147 153 158 164 175 178 178 187 199 216 219 232 241 245 251 252 252 246 211 172 193 191 166 168 180 194 158 147 150 152 150 150 150 153 153 154 155 157 158 158 159 159 161
 102 100 100 100 101 101 102 103 100 102 100 103 104 103 103 104 108 111 110 111 118 126 128 117 115 117 118 125 137 142 142 140 136 137 140 141 141 142 143 144 145 144 142 140 141 142 142 148 155 156 159 165 172 176 177 183 192 207 221 234 240 240 246 251 252 252 250 229 209 187 195 195 179 159 163 166 151 146 147 147 148 149 149 152 153 153 154 154 155 156 157 158
 101 100 100  98 100 101 101 102 101 100 100 100 101 103 102 104 108 113 112 113 118 125 115 115 130 129 139 145 149 150 148 147 147 145 146 151 150 147 146 150 150 150 146 148 148 150 157 162 166 168 171 176 178 183 187 189 203 222 237 250 252 252 251 252 252 252 252 247 240 226 186 199 175 166 152 158 151 148 146 145 146 148 148 149 151 150 153 153 153 156 155 155
  99  98  99 100 100 100 100 102  99  99 100 102 100 103 103 107 110 119 123 117 117 123 118 125 132 143 162 163 159 154 150 151 150 152 151 154 155 153 154 153 152 155 153 153 158 163 166 168 171 177 179 181 183 186 189 192 201 215 232 249 252 252 252 252 252 252 252 252 251 245 218 216 187 176 200 195 163 150 148 145 145 146 148 147 148 152 150 151 151 153 153 153
  97  96  99  99 100 101 100  99 100 101 101 103 101 102 106 111 112 120 125 119 117 128 133 136 144 152 165 162 158 153 151 152 153 154 155 153 157 158 158 156 156 157 154 159 167 171 171 171 176 179 179 180 183 188 192 194 199 210 222 241 251 252 252 252 252 252 252 252 252 250 233 207 188 196 193 202 176 166 168 153 144 146 145 146 147 148 148 149 150 150 152 152
  97  98  98  99  99  99  98  98  98 100  99 100 101 104 105 113 125 122 123 117 123 127 137 143 153 156 158 154 152 151 147 150 152 156 157 156 157 161 160 157 158 158 160 167 170 174 176 174 177 179 181 181 182 188 192 192 197 201 212 226 249 252 252 252 252 252 252 252 252 252 249 226 206 183 180 191 191 182 187 169 152 167 153 146 146 147 147 146 150 150 149 149
 100  98  97  97  96  97 100  98  97  98  98  98 101 100 103 121 126 120 125 119 125 139 146 155 157 157 156 152 152 148 147 149 151 155 157 154 157 158 158 158 156 158 160 164 167 172 171 172 175 175 173 176 179 183 188 190 194 196 201 213 231 251 252 252 252 252 252 252 252 252 249 238 214 181 152 176 165 185 145 143 145 146 167 144 144 143 144 146 148 148 148 146
  95  96  97  96  96  97  99  98  96  97  99  96  99 101 106 132 128 121 122 125 138 151 153 159 161 160 155 150 152 149 146 151 151 151 152 154 158 155 154 156 155 157 156 160 164 162 158 164 167 169 170 173 173 176 181 183 185 186 189 199 214 232 247 252 252 252 252 252 252 252 244 249 234 169 161 168 160 150 142 139 142 143 143 144 141 143 142 145 145 145 145 146
  94  94  97  96  95  96  96  97  97  97  97  97  99  99 114 142 137 119 118 137 158 156 161 170 170 162 156 154 150 148 144 146 146 146 147 151 152 153 156 156 153 154 154 154 154 152 147 149 156 163 168 171 175 176 177 179 178 180 178 183 191 209 235 250 252 252 252 252 252 252 251 251 248 192 178 181 177 144 139 140 140 146 147 141 141 141 142 143 141 144 146 145
  94  95  95  96  94  95  95  96  96  98  97  96  96  99 115 143 139 114 120 152 160 165 172 175 172 164 158 154 148 147 143 142 143 144 148 152 149 150 153 154 151 151 149 150 150 148 145 151 156 161 164 168 173 174 174 172 172 172 172 178 182 189 220 237 242 251 252 252 252 252 252 252 252 225 192 186 182 153 148 146 138 142 153 146 141 139 139 141 141 141 142 143
  93  94  94  95  94  95  95  94  96  96  94  95  97 102 116 147 139 116 141 168 171 171 176 178 175 164 153 148 143 141 138 141 141 143 145 147 148 147 148 149 148 149 148 147 149 149 148 153 156 159 161 163 167 167 169 168 168 170 169 172 173 178 190 209 226 242 249 251 252 252 252 252 251 246 213 188 171 144 137 136 137 139 144 138 138 138 137 138 138 139 139 140
  94  93  92  94  94  96  95  93  95  95  95  96  96  98 112 146 136 128 163 193 187 180 181 179 170 161 146 142 139 137 135 136 136 136 139 143 144 146 146 147 147 148 150 155 153 152 153 152 149 157 157 158 157 159 160 161 164 165 166 170 171 174 183 194 206 218 228 236 250 252 252 252 246 248 219 179 161 161 141 136 133 134 139 137 136 134 136 135 135 135 138 139
  93  92  92  93  92  93  94  94  95  95  95  94  95  98 110 144 137 148 181 215 201 187 179 171 165 154 141 137 133 135 131 135 136 139 140 143 146 147 148 148 149 150 149 151 151 150 151 152 149 149 153 155 155 154 155 156 159 157 162 167 168 169 173 180 194 206 214 225 243 251 252 252 244 231 226 201 175 149 152 138 135 133 137 150 143 134 133 134 133 134 135 136
  90  92  93  93  93  94  93  94  93  94  95  95  96  99 106 141 144 167 196 215 208 188 174 165 163 148 137 129 127 128 131 136 137 138 138 141 146 146 146 146 146 146 147 147 149 153 153 154 149 147 149 150 149 153 155 152 153 152 154 161 164 166 169 175 180 192 205 218 229 248 252 252 243 226 242 183 183 170 162 169 148 142 143 138 151 134 133 133 134 133 134 133
  91  90  90  92  93  92  93  94  93  94  93  94  95 100 106 133 159 180 204 205 203 185 170 160 150 142 129 126 127 128 130 132 136 136 134 140 146 146 147 147 147 147 148 147 151 154 155 156 152 152 151 150 150 150 150 149 152 152 153 161 164 166 167 170 174 181 194 209 224 237 249 251 245 221 246 216 166 151 156 153 159 142 131 132 129 131 129 132 133 132 134 132
  91  90  90  90  90  92  92  94  93  93  93  93  94  98 103 139 170 195 201 197 195 180 160 150 141 134 128 125 125 128 129 131 133 133 138 143 146 145 148 148 148 149 149 148 151 151 152 154 152 153 154 154 154 154 152 154 156 158 158 159 162 163 164 167 168 176 186 204 216 222 228 237 230 217 233 249 189 147 142 155 137 133 127 130 126 128 129 128 129 130 131 129
  90  90  90  92  90  91  91  91  92  92  92  91  93  97 108 138 173 206 198 188 187 174 154 143 134 131 128 127 131 129 131 134 137 139 140 142 142 146 146 146 147 148 149 150 149 154 154 157 160 160 159 160 159 157 156 156 155 160 159 155 157 160 160 163 165 166 177 192 206 213 217 217 219 212 215 216 196 153 136 133 139 132 129 128 127 126 128 126 127 128 128 130
  89  88  90  91  89  90  91  92  91  92  92  93  96  95 106 142 181 203 190 182 180 170 149 139 138 135 136 138 138 137 136 135 140 140 140 141 142 144 146 147 150 153 156 156 155 156 159 164 163 163 161 162 161 160 157 158 162 160 161 155 158 159 157 159 161 160 172 181 192 208 210 207 208 205 206 211 190 158 136 131 131 128 127 128 125 125 126 126 125 126 127 128
  90  89  89  89  88  90  91  91  92  91  93  94  94  95 101 138 181 196 186 175 169 162 150 142 137 137 140 141 140 141 140 139 139 139 142 143 147 152 154 150 151 152 155 157 156 158 159 162 164 163 162 163 162 162 161 162 162 162 160 160 159 159 158 158 157 158 164 174 183 198 204 200 197 187 182 199 197 156 145 132 128 130 125 122 123 123 125 124 126 126 127 126
  88  90  88  86  87  90  89  89  92  90  92  92  93  94 100 135 177 182 178 168 166 162 147 141 140 141 141 143 139 143 144 144 142 140 142 144 146 150 152 152 150 146 147 152 154 160 162 164 164 164 166 164 163 162 162 162 161 162 160 160 159 157 158 158 157 158 160 166 177 188 200 198 190 183 171 166 228 199 161 153 132 127 124 120 119 121 122 124 125 125 124 125
  87  88  89  87  88  90  91  90  91  90  89  91  93  94 100 135 173 174 171 165 166 158 148 143 142 141 143 143 143 144 145 142 144 143 144 143 145 149 150 151 148 147 147 152 155 162 163 164 166 167 166 167 164 160 162 159 158 160 161 158 159 159 158 155 156 156 158 163 171 182 186 192 188 180 164 152 227 201 156 143 136 136 132 121 121 121 123 121 121 120 121 122
  88  87  88  86  89  89  90  89  88  90  91  92  92  96 101 140 169 168 168 164 163 152 147 142 142 142 143 147 148 147 145 142 144 141 143 145 149 149 150 150 150 148 151 152 155 157 159 165 167 166 164 162 160 161 160 161 161 162 161 161 159 158 157 155 156 157 159 163 168 178 185 183 185 182 161 149 224 191 158 160 160 180 154 125 120 120 120 119 121 120 120 120
  87  86  89  88  88  89  89  89  90  90  92  92  92  96 101 134 166 166 168 165 160 154 148 146 144 144 146 146 145 145 140 138 138 140 142 142 145 146 147 150 150 150 148 149 152 157 159 163 165 163 161 158 155 158 155 158 159 161 160 159 157 156 156 156 156 157 159 162 164 172 177 180 179 177 164 147 191 181 152 135 130 128 148 153 119 119 119 118 118 118 118 119
  86  87  88  90  89  88  89  90  88  89  93  93  93  95  96 129 162 164 166 164 162 158 148 143 144 147 146 143 142 143 137 135 134 133 134 138 140 140 144 146 143 145 146 147 149 150 153 156 158 157 155 154 152 151 154 156 160 159 157 158 158 159 156 156 156 157 158 160 160 167 173 178 173 171 159 141 151 158 139 132 132 123 120 120 123 119 118 118 117 119 117 118
  86  87  87  88  87  87  87  88  90  90  90  94  93  94  96 130 155 161 162 162 158 157 149 147 148 147 144 139 138 137 131 132 129 127 129 135 136 137 140 140 140 140 142 142 142 144 145 147 151 151 148 146 148 147 151 155 158 159 160 161 160 158 158 160 160 161 162 160 163 164 169 174 171 164 156 140 149 150 130 124 124 119 118 117 119 120 118 116 117 118 117 116
  86  87  87  88  88  88  88  88  90  89  91  97  90  92  98 124 154 157 161 160 160 158 153 154 152 150 144 140 134 129 124 125 123 123 124 127 129 131 135 138 141 140 135 137 139 136 135 135 140 143 147 148 149 152 154 159 159 160 162 164 164 166 166 165 165 167 165 164 162 163 166 167 168 158 144 140 150 151 124 120 119 117 117 116 117 117 118 116 117 116 116 117
  86  86  87  89  89  88  88  88  89  89  91  92  91  93  94 115 148 153 159 159 159 158 158 150 144 138 129 128 121 115 108 107 113 112 114 119 126 127 128 128 132 135 132 130 132 131 124 120 127 133 141 148 151 156 156 158 158 156 160 167 164 169 166 169 170 174 176 167 166 163 163 162 164 160 133 123 147 164 131 118 117 117 116 116 117 115 116 116 114 117 115 115
  87  87  87  86  87  87  89  88  89  89  89  90  90  93  91 112 152 154 159 158 162 158 143 133 123 112  99  99  99  98  94  92  96  96 101 106 115 120 123 124 127 126 123 123 125 121 116 116 114 123 129 140 145 146 141 140 137 138 141 147 152 160 162 165 178 184 184 177 173 166 163 162 163 154 128 119 142 152 139 129 120 118 116 115 116 114 116 115 115 116 116 115
  88  86  86  86  88  88  88  90  89  90  89  88  93  92  89 102 153 151 158 161 162 148 127 107  93  87  82  81  81  85  83  83  85  86  91  97 104 109 116 118 123 123 122 114 114 113 111 113 110 110 112 118 122 123 124 125 124 125 124 127 132 143 149 151 172 186 192 187 178 172 163 163 166 149 124 117 126 149 143 129 118 116 114 115 116 114 115 116 114 115 115 116
  86  86  89  87  88  89  90  89  91  89  89  91  92  92  92 105 150 152 159 158 143 118  96  83  78  72  72  70  71  80  82  76  79  84  85  89  97 101 108 112 116 121 119 109 105 105 104 105 102 101  98  98  97  99 102 100 101 105 105 106 112 120 124 123 137 155 176 190 185 176 168 163 167 148 124 117 132 134 133 124 121 119 119 117 119 119 118 118 119 119 118 118
  88  88  87  89  89  89  89  89  90  89  90  92  93  95  94 100 145 153 158 143 110  94  83  77  78  77  74  74  73  76  76  76  74  76  79  84  88  94 104 108 112 116 112 106 101  97  97  97  95  92  90  90  89  88  88  88  89  90  89  95 101 105 108 112 116 122 137 165 185 179 172 166 168 146 117 109 120 141 139 125 122 122 122 120 119 121 120 119 121 120 118 120
  89  90  88  89  90  90  91  92  92  92  91  94  96  96  96  94 139 155 149 126  98  90  92  88  86  85  83  83  84  82  80  81  79  77  78  81  86  91  97 103 109 113 110 104  98  91  93  92  91  90  88  89  86  85  87  91  95  96  98  98 100 104 106 107 109 112 123 148 171 176 175 170 168 145 115 109 130 131 135 124 121 124 121 121 119 121 120 121 120 120 119 119
  96  95  97  97  98  99 100 102 101 100 100 103 102 102 103  96 136 150 137 117 106 103  97  94  91  89  85  84  84  83  83  84  83  82  83  83  86  90  92  97 106 112 109 104 100  91  91  93  88  90  90  93  95  94  94  96  97  96  96  98  99 104 106 108 110 112 117 126 149 168 175 173 175 149 116 110 128 132 127 122 121 119 118 120 120 120 117 119 118 119 118 119
  99  97 100  99 100 101 102 103 102 103 105 103 104 104 103  97 132 153 128 117 111 101  98  96  91  89  87  86  83  84  81  80  79  80  81  83  85  91  95 101 106 110 110 105  98  92  93  93  92  91  90  89  90  91  90  90  93  94  94  96 102 107 110 109 109 111 113 118 132 157 172 175 181 155 120 110 136 125 122 121 119 119 119 119 118 118 118 118 118 117 118 118
 100 100 101 100 102 103 103 103 101 102 102 104 103 103 106 100 130 149 126 117 108 103  95  94  90  87  84  82  79  76  71  69  70  70  73  76  80  89  97 103 105 110 111 108  98  94  94  90  88  84  84  84  83  82  82  80  84  84  86  91  97 104 106 103 104 106 108 114 122 141 162 177 185 167 128 119 133 125 126 124 125 119 118 118 118 118 118 118 118 117 117 117
 101 101 100 101 101 101 102 101 102 102 102 104 105 104 105 105 130 148 128 118 104 101  92  86  83  82  81  81  74  68  63  58  57  58  62  67  74  84  97 103 108 116 118 110  99  92  91  86  80  76  75  75  73  74  76  79  81  83  92 103 106 100  96  97 102 101 105 111 120 133 157 179 188 183 134 127 138 162 205 221 183 131 120 118 118 117 117 116 116 116 118 116
  99 100  99 100 100 102 103 102 102 101 102 104 105 107 106 105 131 150 134 118 102  93  89  96  98  91  85  78  71  62  58  57  57  56  56  59  65  75  94 106 114 123 124 118 108  94  87  79  73  68  69  71  76  76  78  78  76  84  87 102 106 105 105  93  92  97 102 107 114 132 152 176 191 189 142 181 215 199 210 226 234 175 122 117 117 117 117 116 116 116 116 116
  97  98  98 101 101 102 102 101 102 102 102 104 118 128 112 106 133 153 136 116  97  89 104 122  96  83  74  65  54  47  43  46  52  56  56  60  63  69  92 108 120 131 131 130 119  99  85  75  69  69  70  69  75  75  84  79  65  61  58  71  80 100  95  93  88  92 101 103 111 129 152 175 190 191 146 171 184 154 145 147 161 194 131 118 116 117 115 116 115 116 116 116
  99 100  99 101 100 102 101 102 103 104 104 126 157 129 109 111 140 153 139 118  96  91 103  92  90  73  75  60  48  41  36  44  49  54  50  54  64  71  92 112 127 135 141 144 131 106  82  73  72  63  62  59  71  79  90  80  68  53  52  56  67  85  85  87  86  90  94 102 113 132 150 174 192 199 165 148 142 128 120 125 121 146 134 116 114 113 115 116 115 115 116 114
  98 100  98 101 101 100 100 104 103 103 105 117 101  92  92 107 132 152 141 124  99  92  98  98  78  79  87  65  49  40  39  44  48  51  50  56  67  80  96 116 132 139 146 152 144 118  84  74  70  67  63  63  63  74  90  84  66  58  63  62  69  78  84  89  90  91  96 108 118 131 148 175 199 206 178 136 121 110 108 117 117 126 124 115 115 114 115 114 114 113 114 112
  98 101  98 100 101 101 101 102 102 104 107 101  74  67  69  87 130 153 141 124 107 108 118 100  91  79  85  80  54  47  45  48  54  54  58  65  76  89  99 124 136 142 149 159 151 133  96  78  71  68  69  69  69  71  75  79  70  65  63  68  80  92  98 102 103 108 112 120 129 134 146 173 198 210 178 122 102 104 102 110 110 128 118 114 114 113 113 113 113 113 112 113
 100  99  99 100 102 103 101 103 103 103 105  94  70  66  68  78 112 155 142 132 123 131 140 128  96  82  74  73  68  59  59  60  59  57  62  68  86  94 112 131 139 141 148 161 151 139 118  86  74  69  69  70  70  72  74  75  74  75  75  84  88  94 103 114 119 124 130 132 137 141 148 166 192 204 171 114 105 104 102 101 103 126 117 112 114 113 114 112 111 112 112 111
  98 101  99 102 101 100 101 102 102 102 103  91  68  64  67  82 106 156 146 139 134 143 147 132 109  94  79  75  72  70  65  63  60  61  68  79  92 104 122 136 140 140 149 158 150 143 135 108  88  75  69  68  69  74  78  82  84  86  88  94  98 102 108 123 130 137 138 137 138 141 144 160 181 192 150 104 105 109 110 102 104 126 114 113 112 113 112 111 111 112 111 112
  99  98 100  99  99 102 103 101 103 104 104  98  70  63  69  96 112 157 151 146 147 149 146 128 110  96  88  82  77  73  68  65  68  73  84  88  98 116 129 139 139 139 146 149 145 141 139 127 108  91  81  73  72  73  77  80  84  91  93  96  98 101 119 134 141 144 143 141 141 139 144 154 171 178 143 108 102 108 115 106 110 120 113 112 111 111 111 110 111 111 110 111
  98  98  98 101  99 101 101 101 101 103 104 104  78  63  77  99  97 151 154 152 154 148 141 126 111 101  93  87  82  76  74  74  78  86  93  97 108 124 134 138 141 146 150 146 138 137 137 133 121 110 100  89  81  76  78  78  84  89  92  92 103 117 133 142 147 146 145 141 138 139 143 151 167 166 130 111 100 100 113 115 123 116 112 111 112 111 110 112 111 110 110 110
  96  98  99 102 100 102 102 102 102 104 102 103  96  74  81  96  89 149 155 156 153 143 137 127 118 108 100  92  91  85  78  81  87  95  97 104 120 135 140 139 139 146 153 144 134 131 134 134 130 121 114 105  94  86  79  81  86  90  93 102 114 123 137 144 145 143 141 140 136 138 138 150 162 154 122 106  94  93 110 123 126 112 110 110 111 110 110 110 111 110 110 110
  98  97  99 101 101 102 102 101 101 102 102 102 103  85  84  95  85 137 155 153 144 137 129 118 114 109 102  94  90  86  87  88  96 100  99 112 136 147 145 142 144 150 152 144 136 133 132 131 130 126 122 115 107  99  92  88  88  94  98 108 121 127 133 138 139 141 139 134 132 133 135 148 156 144 110  94  85  92 112 126 122 109 110 109 110 110 111 109 111 110 108 109
  96  98  98 100  99 100 103 100 101 100 101 103 102 101  88  96  79 127 150 148 136 128 121 112 106 101  93  90  86  88  94  95 101 104 105 123 149 160 152 144 145 153 157 153 143 139 132 133 130 126 124 119 115 109 104  99  96  99 108 113 124 132 133 133 132 133 135 132 131 130 131 149 149 133  96  82  92 113 120 128 115 108 109 109 110 109 108 108 110 109 107 107
  97  98 100  99 101 101 102 101 102 101 101 101 102 103  94 100  80 110 148 137 129 123 115 108 102  99  93  89  91  96  99 100 103 107 113 136 161 170 155 149 148 158 160 154 146 139 134 130 128 124 123 121 119 119 114 112 110 107 114 118 124 126 128 128 126 126 128 125 125 128 131 146 141 134 124 116 131 133 121 122 112 108 108 108 109 108 107 108 109 108 108 107
  96  97  99  99 100  99 100 101  99 100 102 101 100 103 102 104  96 107 150 133 123 118 109 106 101  98  96  93  96 101 102 103 105 105 114 147 178 182 161 155 153 160 166 155 145 137 131 129 122 116 115 118 119 118 121 120 118 117 119 121 119 119 120 121 121 120 121 122 120 124 130 140 132 136 144 132 122 114 125 115 108 108 107 107 108 107 107 109 109 108 109 107
  97  97  98 100 100  99 101  98  98 100  96 100 100 102 103 104  96 111 147 131 116 111 106 103  99  96  96  97  97 102 103 104 103 102 112 161 190 186 161 157 153 157 162 158 150 141 133 129 120 106 108 113 117 123 124 125 124 124 124 125 123 119 118 117 119 119 118 118 117 120 129 134 132 136 141 139 125 128 128 113 108 106 106 107 108 106 105 106 106 105 106 108
  97  97  98  97  97  97  98 100 100  99  97  98  99  99  99 110 106 117 145 132 118 109 105 101  99  96  96  96 101 103 101 101  99  98 114 181 205 183 159 149 146 151 161 160 146 139 137 132 122 102 104 110 113 119 124 126 126 127 127 127 126 122 118 118 117 117 116 118 115 118 126 133 133 133 139 142 142 133 125 109 106 106 106 106 108 106 104 106 107 105 106 107
  96  96  97  97  97  96  97  98  99  98  97  97  96  95  86  89 125 145 142 133 121 110 106 105 101 100  99 100  99 102 104 103  98  96 133 191 214 168 152 141 135 139 146 152 147 140 137 135 129 106  97 104 111 120 124 126 127 124 126 124 126 122 119 119 117 118 116 115 112 117 131 133 129 134 139 141 136 132 112 108 105 105 104 105 106 105 105 104 104 105 104 105
  96  96  96  97  95  96  96  98  97  97  95  92  56  45  31  34  72 122 128 134 122 113 107 106 102 102 101 102 105 104 104 101  92  92 141 168 163 145 135 127 124 130 136 142 142 139 134 135 130 113  93 100 107 114 120 123 123 128 125 123 121 123 121 123 120 117 116 111 113 117 126 127 126 133 136 135 145 120 107 105 103 104 104 104 105 103 105 104 104 103 104 105
  94  96  96  97  97  96  95  96  95  95  79  41  30  29  27  28  34  98 118 134 126 115 107 106 106 105 104 107 108 105 103  96  90  91 132 137 135 124 120 117 118 120 124 132 136 136 130 128 126 117  99 100 104 110 117 122 120 123 124 122 123 124 121 121 120 117 114 112 111 114 123 120 120 122 125 119 192 198 118 106 104 103 102 104 102 103 103 103 103 103 104 102
  93  95  95  96  96  96  95  95  95  82  36  29  27  24  24  26  28  43 110 124 126 115 107 105 107 105 108 110 111 106 103  99  91  91 127 122 117 110 109 107 106 108 114 120 123 125 117 115 115 112 107 105 103 106 116 123 123 124 125 124 121 121 119 121 121 118 116 111 111 116 121 115 108 112 109  93 166 251 151 107 102 102 102 103 101 101 102 102 102 102 102 101
  94  93  94  93  94  94  94  95  83  39  28  25  24  22  23  24  25  27  57 108 124 117 111 109 108 108 110 113 113 108 104 100  92  92 108 116 112 101  95  94  95  99 102 107 111 107 101  97  99 109 115 117 109 108 116 119 121 122 122 120 119 121 120 121 123 119 117 112 112 116 115 108  91  94 105  87 217 251 156 107 102 100  99 100 101 103 102 103 104 102 101 102
  94  94  94  94  92  94  95  88  39  29  24  22  23  23  23  26  26  27  32  52 127 118 113 111 113 114 115 120 120 115 105  98  92  92  90  97 102  99  90  89  85  88  91  95  93  87  77  81  98 120 125 127 123 115 118 121 121 124 125 122 121 122 118 119 120 119 119 115 112 116 115 102  75  79  87  94 158 183 107  86  80  86  87  89  90  93  99 107 122 100  96  98
  92  93  92  94  94  93  93  78  36  26  23  21  24  29  35  38  35  29  30  32 113 121 116 117 118 118 123 126 127 119 103  98  94  93  92  93  92  96  88  84  86  85  84  85  82  64  56  65 108 135 138 135 132 126 121 125 123 125 130 125 123 122 120 118 117 118 116 113 117 121 118  87  51  48  49  52  64  63  60  51  49  49  50  48  49  49  49  50  48  50  89  98
  94  94  92  91  92  93  91  83  43  27  29  30  35  45  52  49  46  36  27  32  97 122 118 119 120 126 132 131 131 116 105 104  99  96  97  99 102 107  98  86  83  82  78  74  68  61  59  72 117 137 138 138 133 132 127 126 131 125 127 126 124 124 122 118 115 114 114 111 115 118 115  74  52  49  49  50  53  52  51  49  47  47  47  47  45  45  46  46  44  42  83  96
  91  92  93  92  91  93  92  90  65  41  51  53  56  55  56  52  49  35  26  32  79 122 121 120 125 130 135 137 129 111 107 108 102 100 100  99  98 100  96  87  79  75  72  69  64  59  60  84 117 133 136 139 134 132 131 131 134 135 133 128 125 127 123 120 116 112 110 110 114 117 113  70  52  48  49  48  49  51  47  47  47  46  46  46  44  44  44  44  42  40  81  95
  92  92  91  92  92  91  91  91  85  51  60  63  62  60  55  48  49  42  29  42  69 123 121 124 130 136 138 138 125 118 114 107 100  98 100  95  87  86  83  81  79  74  70  66  63  59  66  83 102 118 123 129 127 126 128 129 132 134 134 131 128 127 124 120 117 110 108 110 114 118 107  62  49  48  48  48  47  49  46  45  46  45  45  44  44  43  44  43  44  40  80  96
  91  89  89  90  89  91  90  89  88  57  48  56  60  50  38  44  46  42  34  46  72 122 123 126 129 137 140 134 123 116 113 103  92  96  95  88  78  76  73  71  72  73  67  61  60  64  70  80  85  96 104 111 113 111 119 122 128 131 132 132 130 125 122 116 115 109 106 108 113 118 105  55  47  45  46  46  46  47  44  45  45  45  44  43  43  42  42  44  42  40  78  95
  89  89  88  89  89  89  90  90  88  66  47  43  52  46  48  46  47  43  36  50  81 117 124 129 134 139 141 133 116 100  99  91  82  86  88  80  70  63  66  69  66  67  67  63  62  67  69  73  80  84  96  98  98  92 103 109 121 130 131 132 130 124 121 117 114 108 104 109 113 123  92  51  45  45  46  46  47  45  44  45  44  42  44  41  41  42  41  42  41  39  78  94
  88  88  89  87  88  88  90  87  87  77  58  52  52  49  55  54  50  44  36  69  86 112 127 132 137 141 139 130 103  89  83  79  79  77  76  72  59  61  63  65  64  66  64  67  70  70  68  68  68  74  84  88  86  83  77  86 105 122 129 132 131 126 123 119 112 109 108 111 116 135  75  50  47  44  45  46  47  45  44  44  43  43  42  42  41  42  41  42  43  38  73  92
  87  89  90  88  86  87  88  89  87  82  66  60  59  55  57  55  48  40  38  79  85 101 126 132 135 138 136 106  99  85  78  77  77  69  67  57  59  63  64  62  63  63  60  67  73  75  69  69  68  69  73  81  78  71  63  64  80  99 120 132 128 125 122 118 111 112 110 112 116 142  62  48  44  44  46  46  45  43  44  44  43  43  42  40  42  41  41  38  39  39  76  92
  91  89  86  82  84  82  81  78  76  77  74  71  71  71  68  60  40  30  40  59  81  92 124 129 136 139 131  96  87  70  66  64  65  66  59  60  63  67  70  64  59  54  54  62  74  79  74  75  74  65  69  79  75  69  61  60  69  85 114 125 129 124 118 116 111 110 111 112 119 160  63  50  45  44  46  46  45  43  46  43  43  41  40  41  40  40  40  38  38  37  71  92
  66  65  65  60  60  58  59  56  57  55  55  57  57  55  58  54  29  29  41  48  72  87 118 125 132 136 132 104  79  66  63  64  68  68  65  68  69  73  72  69  61  53  55  65  72  79  76  81  83  75  72  80  78  74  68  68  79  88 107 122 126 124 113 108 105 110 114 112 131 158 111  55  46  42  46  44  43  43  44  41  41  41  41  40  40  39  38  38  38  38  68  90
  54  52  53  55  55  54  52  51  52  52  52  53  52  51  54  53  27  34  39  46  44  65 111 124 136 136 130 106  88  81  74  70  74  72  73  71  70  70  74  73  70  68  66  72  74  73  73  75  75  72  73  71  64  65  73  77  82  94 110 121 126 124 111 101 103 105 108 110 148 152 107 108  74  48  44  42  42  42  42  42  41  40  39  40  40  39  40  39  39  37  68  88
  44  45  49  49  50  52  51  51  50  51  50  51  51  51  55  51  34  39  42  40  28  40  71 120 129 134 127 105  86  79  70  60  48  50  50  52  55  57  62  65  65  67  66  68  66  62  57  54  48  50  49  49  51  61  67  72  77  87 100 111 121 124 113  99 103 104 104 112 137 145  86  90 118  73  46  44  43  42  42  42  40  39  40  39  39  38  39  38  39  36  66  89
  47  47  47  52  52  53  53  50  49  50  49  51  50  52  56  54  42  44  38  27  21  31  52 112 120 131 124  98  84  74  66  65  65  61  60  62  61  57  47  46  47  49  49  48  45  46  52  56  58  62  61  66  73  73  70  74  77  86  95 103 116 116 107  98  98  99 103 110 132 142  63  69  81 144  65  48  43  44  44  44  41  42  40  38  38  39  38  40  39  37  64  89
  42  50  55  57  54  54  54  53  50  49  49  51  52  53  56  53  40  35  25  20  20  25  50 101 115 130 122  96  81  79  78  81  85  82  79  76  76  76  68  61  58  55  53  54  58  63  74  77  76  83  88  88  85  81  80  84  85  86  94 104 106 106  99  95  95  90  97 107 134 140  55  51  67  88 158  60  50  45  48  46  43  43  42  41  39  39  38  38  38  38  60  88
  53  56  57  56  54  55  55  55  51  51  51  53  53  54  58  55  26  20  19  20  20  24  42  90 113 126 117  97  85  79  83  88  88  88  86  82  77  75  73  72  71  69  69  69  75  80  82  84  89 100 101  99  96  90  95  91  89  87  89 101 101 101  94  93  95  86  89 103 126 144  52  46  53  68 115 137  88  67  58  53  50  47  43  41  40  39  39  38  38  36  60  88
  50  53  58  58  54  55  55  54  54  54  54  56  55  59  60  55  20  19  20  19  19  21  39  83 101 115 112  99  87  79  86  87  90  88  90  87  84  77  76  72  72  76  75  76  78  85  88  90  95 100 104 106 107 105 106  98  89  84  84  96  97  92  87  88  80  73  82 101 126 129  54  44  44  61  97 201 249 243 246 227 228 112  91  48  46  43  38  39  39  37  60  87
  53  58  57  54  56  56  56  56  56  60  63  65  62  65  66  57  23  20  19  19  20  20  35  78  81 100 112  95  83  78  84  89  89  92  92  91  88  81  82  78  79  80  81  79  80  85  88  88  92  96 104 110 112 111 107  98  88  81  79  87  88  83  79  78  72  70  83 104 124 124  51  41  43  50  69 160 228 242 248 227 195 221 197 191  91  49  46  41  39  37  60  87
  56  56  53  53  56  58  57  56  63  70  71  79  72  74  75  67  23  19  20  19  20  25  55 100  67  86 111  92  76  72  78  84  91  88  91  96  90  83  84  80  74  78  74  72  75  79  85  87  92 100 108 109 110 109 101  88  76  73  71  72  77  77  73  67  68  71  86 107 122 119  50  38  40  46  58 106 204 248 231 249 220 211 135 164 210 196  90  49  44  39  55  85
  50  52  54  53  54  57  57  54  72  82  83  86  87  83  82  67  25  20  20  20  21  36 131  74  66  78  91  84  71  66  69  77  88  90  93  90  86  79  78  68  63  66  59  60  64  69  75  85  92  98 105 106 108 104  98  82  69  63  57  57  63  71  65  62  59  68  90 110 123 119  52  40  38  40  50  72 227 232 229 250 242 182 141 110 183 186 250 162  75  44  44  74
  50  49  50  53  55  55  56  53  82  92  92  90  96  91  88  74  44  31  23  24  25  73 119  71  57  61  86  81  64  60  63  68  80  86  85  85  82  75  71  62  57  54  50  50  58  63  72  83  88  93  99  99  97  90  79  69  65  61  52  51  57  62  59  54  52  72 104 116 126 133  58  45  41  39  41  57 137 206 224 224 235 200 182 110 122 126 141 198 216 120  55  68
  51  52  52  52  54  54  55  55  91  96 100  96  97  99  94  85  54  69  49  67 142 163  90  62  53  56  74  77  60  58  61  63  67  77  78  80  77  72  66  58  54  50  49  48  54  59  69  78  86  93  98 101  90  75  67  62  58  50  47  47  52  58  51  47  53  82 108 120 126 140  69  48  43  42  41  48 124 229 214 218 199 233 153 115  88 120 105 165 157 233 170 136
  52  55  55  53  56  56  54  60  98 100 102  98  99 100  97  89  58  87 145 110 152  97  97  48  52  56  69  72  63  56  60  59  63  69  74  80  79  76  70  61  58  51  49  49  55  60  74  86  96 102 101 101  89  71  59  58  50  47  43  44  51  54  46  49  62  88 114 124 133 146  84  52  45  42  44  46  62 191 213 223 210 241 167 173 107 130  99 120 154 146 215 223
 119  63  56  56  56  56  55  66  97  97  98  97 102  90  95 115 121 165 130  87 112 116  87  42  46  57  57  64  56  49  56  55  59  60  69  75  79  78  73  71  65  54  56  63  70  70  81  97 108 109 104 100  86  66  56  54  47  44  41  42  50  50  42  45  72 101 116 125 135 143  97  60  46  47  44  45  71 194 207 214 231 209 227 165 104  90 102  91 143 138 229 206
 106 129  65  57  56  56  55  73  85  86  89  95 108 136 146 198 111  81  65  58 119 126  70  39  43  48  52  57  58  54  55  50  53  52  63  71  77  77  79  82  78  68  67  83  86  82  93 100 107 107  99  84  73  60  52  48  46  40  40  41  44  45  42  51  84 111 117 124 137 136 103  69  48  46  44  46  62 141 219 198 203 230 237 146 165 112 145 118 140 201 168 207
  70  79  60  56  57  57  53  70  70  96 145 165 204 175 132 101  69  59  72 102  75 136  67  36  35  49  48  45  49  57  53  50  48  50  65  68  70  76  83  82  78  78  79  93 101  93  97 101 104 100  87  79  70  52  49  46  43  40  39  40  40  42  46  65  95 113 118 124 136 128 106  81  50  47  45  46  75 130 195 182 206 213 199 184 183 100 103 104 100 155 138 219
 127  71  58  59  60  57  51  87 141 194 226 168 183 131 110 112 113 107 112 115 123 116  60  36  34  54  47  40  47  51  48  48  46  54  57  60  68  79  86  81  78  77  86  94  98  92  87  92  99  92  86  78  65  51  47  42  37  36  36  40  41  44  49  75 104 113 117 120 129 122 102  85  56  47  44  46  63 100 200 174 152 203 214 205 142 140 111 122 115 155 205 215
 110 111  66  62  84 101 148 190 196 171 218 149 151 130  98  92 125 121 143  94 111 104  51  35  30  52  60  40  40  40  43  41  45  50  51  61  68  75  84  82  76  73  83  88  87  82  80  88  95  97  82  72  57  47  41  40  34  35  35  40  41  46  64  92 106 112 117 119 126 117 101  93  61  48  46  48  68 120 195 178 188 178 220 221 161 185 102 112 148 117 195 130
 118  98 120 151 213 168 179 183 206 141 192 127  98  86 113 127 196 112 146  97 114  94  48  32  28  53  67  43  40  35  41  38  44  46  48  56  67  70  78  75  70  67  76  82  79  77  78  81  81  88  77  64  50  42  39  37  36  34  34  36  38  50  83 105 110 114 116 116 121 114  99  96  67  49  46  47  59 125 163 194 166 173 208 201 180 135  94  93 106  91 145 151
 144 182 207 181 223 188 196 170 193 119 163 132 149 165 171 161 176 156 126 129  83  77  47  30  25  44  90  54  39  39  34  40  42  45  47  52  59  63  69  62  58  64  74  82  76  73  72  73  76  73  65  56  47  42  37  34  34  30  32  39  42  67  94 109 113 114 115 116 119 109 100  96  73  50  45  47  53 144 176 165 206 185 169 205 167 144 146 118 128 133 133 164
 199 185 224 183 207 178 177 150 185 156 189 151 124 163 143 170 117 166 114  89  70  62  43  28  25  36  92  72  42  36  38  36  35  45  43  45  50  55  56  54  53  61  69  71  71  66  63  66  65  59  50  46  40  39  34  33  34  32  33  42  66  90 102 108 107 112 114 113 112 106 101  98  75  49  44  47  52 118 172 214 174 185 202 206 205 110 126  75  75 117 130 128
 211 177 220 189 181 149 150 152 125 105 111 131 146 177 118 157 110 137 124  96  65  55  42  28  26  33  96  94  48  41  33  35  40  38  37  41  45  47  48  48  48  55  62  62  63  57  53  54  53  50  46  42  36  34  32  32  32  32  37  60  88 102 106 108 109 111 111 110 110 106 100  99  80  52  46  46  52 115 177 196 210 196 168 187 187 130 133  83 150 113 228 128
 212 160 202 182 184 136 148 105 195 101 118 132 164 143 128 131 134  90 108  46  57  49  38  28  25  37  85 110  80  50  36  35  38  30  32  38  37  37  36  43  46  43  53  54  53  47  44  43  43  40  40  39  33  33  31  31  31  37  53  78  90  99 105 110 109 110 108 108 106 104  98  94  77  50  45  46  52  72 176 210 184 168 200 208 196  78 122  93 187 128 145  92
 172 189 197 182 127 150 132 218 120 194 136 168 139  64  74  84 110  60 147  57  62  43  35  28  25  35  68 101  94  82  45  34  33  31  29  29  30  30  29  32  34  40  40  45  42  38  37  37  34  34  35  35  34  32  30  33  37  59  75  86  93 101 108 109 109 108 108 104 101  99  97  93  78  52  43  44  52  66 191 176 200 199 174 175 195 152 111 136 162 181 144 122
 135 128 135 153 181 143 160 108 192 164 162 183 106 142  74 109 116  45  90  48  57  42  34  27  26  31  62  82  99  96  75  56  40  31  32  30  29  28  29  28  29  32  32  38  37  36  34  33  31  32  31  31  31  33  33  45  56  79  84  91  98 105 107 109 105 106 102 101  99  97  97  93  77  52  45  44  54  49 143 183 188 174 203 203 194 184 109 167 125 140  75  72
 135 130 153 159 130 127 121 176 173 167 183 130 142  82  72 112  56  78  88  80  58  47  34  27  25  30  55  72  89 100  90  81  70  56  42  34  29  28  28  27  28  30  32  34  34  31  30  31  32  32  34  38  48  56  58  64  74  84  87  94  99 105 105 104 102 101  96  96  98  95  96  94  77  52  44  44  54  75 154 201 200 210 185 163 175 210 120 180 121 171 107  93
  64  71  78 113 114 174 119 167 164 178 164 128 100  70  99 142  56  84  71  63  56  45  35  27  24  29  48  68  75  89  90  88  82  76  72  62  54  46  43  40  39  34  36  36  38  34  35  36  43  46  55  68  70  72  72  77  80  85  90  95 102 103 103 102  99  97  93  95  96  95  96  92  75  53  44  43  54  71  79 188 183 172 200 217 226 211 157 168 118  86  80  61
