P2
# Generated by OpenCV 3.4.0
92 112
255
 109 110 110 112 110 113 114 110 111 113 113 112 113 114 112 114 114 115 115 115 115 114 114 115 116 118 118 118 116 120 119 122 120 123 122 123 153 144 140 133 143 146 140 137 144 145 149 148 155 154 140 142 166 141 140 142 142 144 145 146 147 149 153 152 153 154 155 158 160 162 165 167 167 170 170 174 176 177 181 183 186 188 190 191 194 197 200 206 208 210 212 215
 109 110 111 110 110 111 111 110 111 112 113 114 113 113 113 114 115 114 116 114 115 115 115 116 115 117 117 118 118 119 122 121 123 127 132 138 144 148 168 165 164 180 166 155 160 173 179 190 189 191 167 159 145 143 140 141 142 143 144 146 147 150 151 151 152 153 155 157 160 161 163 167 167 169 170 172 175 177 178 180 184 185 189 190 193 195 198 201 204 206 208 211
 109 109 108 111 110 110 112 111 111 111 111 112 114 114 114 114 114 115 114 114 115 115 115 116 117 117 119 118 118 119 123 130 125 139 151 146 149 152 160 173 177 193 214 217 201 206 196 193 195 226 214 221 175 152 151 155 146 143 145 145 146 149 148 150 153 153 155 157 158 160 161 164 167 168 169 171 174 175 175 178 180 183 186 188 189 192 195 198 200 203 205 208
 110 110 109 108 111 112 112 111 111 111 113 112 112 112 112 114 113 114 113 113 115 115 114 115 116 116 117 120 121 122 128 143 138 148 143 146 152 161 159 176 183 191 204 224 241 204 203 229 237 228 241 239 221 204 171 174 178 146 144 144 144 147 148 152 151 155 155 158 160 162 164 177 168 167 168 170 173 174 175 177 177 182 183 185 186 191 192 194 197 200 203 204
 109 110 110 108 110 110 111 109 113 112 113 110 111 112 111 113 113 114 114 114 114 114 117 116 115 119 122 123 125 132 135 140 140 141 138 138 138 148 147 170 174 183 188 221 230 209 198 226 250 249 251 250 224 225 233 225 202 163 145 143 145 145 147 150 150 154 154 156 157 159 160 164 165 163 166 169 171 172 172 175 175 176 178 179 184 186 188 189 191 195 195 196
 108 108 110 107 108 110 110 108 111 110 113 113 113 113 113 112 114 112 113 114 114 116 120 118 120 122 128 127 124 138 139 143 135 132 134 131 127 142 144 154 163 167 186 212 226 220 210 239 243 251 251 250 234 247 252 251 247 210 157 148 145 145 146 149 149 150 149 149 151 154 154 158 154 154 155 155 157 159 160 162 162 163 165 167 170 171 173 175 178 180 182 183
 109 107 108 108 108 109 110 110 109 110 112 110 111 111 112 111 111 111 113 112 114 115 115 124 124 121 129 137 128 138 141 143 132 129 133 130 127 143 147 152 172 162 177 189 204 217 212 218 226 250 246 250 239 235 251 251 252 238 156 152 148 140 130 134 153 136 132 133 135 136 138 146 164 144 142 145 147 150 150 153 156 157 158 159 162 165 167 169 173 173 175 177
 108 108 108 107 107 108 108 108 108 108 109 109 110 111 112 113 112 114 113 113 113 116 116 122 124 123 127 138 127 129 126 129 129 128 130 130 130 137 147 147 162 154 162 165 174 195 188 182 201 226 222 235 236 222 250 251 252 249 189 147 197 151 154 153 159 163 131 129 131 131 130 132 138 140 136 138 140 143 144 146 147 147 149 151 152 155 157 159 160 164 165 167
 107 108 108 108 107 107 109 109 110 109 108 109 109 109 110 110 112 113 113 112 115 123 116 122 127 123 130 134 126 129 124 125 130 131 123 131 129 130 141 141 151 148 148 144 154 166 164 163 165 182 194 204 206 199 240 249 251 250 229 202 214 174 121 119 134 177 189 145 123 123 123 124 126 130 130 132 134 137 138 141 143 145 148 151 152 154 158 159 162 164 168 169
 106 107 108 107 106 105 107 106 109 109 109 109 108 110 111 111 111 111 112 114 114 127 130 114 121 126 135 130 125 118 121 121 130 133 125 122 124 128 131 136 141 143 140 135 143 148 154 150 151 157 163 182 177 205 237 249 238 251 251 251 242 222 145 125 122 123 173 175 193 141 130 128 132 134 132 134 135 138 137 139 141 142 144 146 148 150 153 154 156 158 160 161
 107 108 107 107 107 107 106 109 107 109 108 111 109 107 108 109 111 112 113 112 114 116 146 117 120 118 123 126 118 113 119 124 126 126 122 124 125 127 127 132 135 134 130 134 140 143 150 150 150 152 157 166 150 175 190 207 201 220 249 252 252 249 191 136 121 119 137 137 138 178 129 125 126 126 129 130 129 133 134 135 138 140 143 146 148 149 153 154 156 157 158 161
 106 107 107 107 107 107 107 107 106 106 108 108 108 109 109 107 110 111 112 117 121 115 129 115 121 120 117 120 115 109 117 130 127 126 122 121 123 128 131 133 133 130 131 134 138 141 143 148 151 162 157 150 150 156 163 162 195 191 246 251 252 252 241 195 147 147 128 145 132 162 141 136 146 136 139 134 132 133 134 137 136 137 140 145 148 149 151 152 153 155 156 158
 104 105 107 106 107 105 106 107 106 107 107 107 107 107 107 108 109 111 113 116 124 123 119 116 114 115 112 109 110 109 113 124 124 126 128 125 126 128 133 134 136 132 134 134 136 140 145 152 161 159 150 149 145 154 154 163 172 182 220 225 247 252 252 236 202 188 148 141 129 130 158 134 149 146 136 145 150 139 140 141 142 143 148 149 153 156 158 159 161 163 164 167
 104 105 107 106 105 106 106 107 107 106 108 108 107 107 107 108 109 109 115 120 125 130 123 122 115 113 109 108 107 109 113 123 124 127 126 128 128 130 137 134 138 135 137 137 136 142 149 156 161 159 156 158 154 160 169 172 178 192 202 208 222 249 252 248 247 219 198 157 149 149 164 157 155 156 146 147 149 151 153 155 154 157 158 162 170 178 172 168 169 170 171 171
 106 104 104 106 106 106 106 105 106 106 107 107 107 107 109 109 110 112 117 126 128 126 119 113 108 109 109 109 112 118 124 131 135 135 133 133 133 134 139 141 141 145 144 142 144 144 149 151 154 158 158 154 153 162 174 179 183 195 201 209 220 237 250 252 252 249 226 181 186 160 163 174 175 164 155 152 153 153 154 154 156 160 163 165 164 168 166 167 169 168 168 172
 105 104 106 105 103 106 106 105 105 105 107 105 105 107 108 110 115 112 116 130 137 144 125 114 111 114 119 122 132 134 141 144 145 145 144 143 144 142 146 148 147 150 150 151 152 150 147 147 153 154 152 158 166 169 170 180 196 201 207 223 246 247 250 252 252 252 242 196 166 175 170 174 181 195 166 152 151 153 154 156 158 158 159 159 161 163 163 165 165 169 168 169
 104 103 106 102 104 105 105 106 106 104 104 106 105 106 110 112 121 122 118 118 131 120 111 115 110 115 128 138 150 159 156 151 150 150 150 153 154 154 154 154 156 155 156 157 155 155 153 156 158 160 166 171 177 176 180 184 192 201 216 243 251 252 252 252 252 252 251 234 183 189 187 175 184 172 195 155 153 154 153 154 154 153 155 157 158 160 160 162 164 164 166 166
 102 101 102 102 104 101 103 105 106 103 104 104 106 108 112 114 119 123 121 124 132 117 120 125 122 128 138 145 160 163 160 155 151 153 153 155 155 156 156 159 162 163 160 160 159 161 159 160 166 174 174 177 181 187 188 189 192 198 211 246 252 252 252 252 252 252 252 244 224 189 209 210 171 158 162 162 151 151 149 149 150 152 152 154 157 157 157 158 161 161 162 164
 102 102 101 101 102 102 102 103 103 103 103 104 108 112 115 116 114 126 121 121 129 129 125 125 132 139 145 152 155 153 152 148 149 148 152 156 156 158 159 159 162 164 165 163 163 164 162 168 175 179 180 180 183 189 194 188 191 197 205 227 251 252 252 252 252 252 252 252 251 230 203 192 184 159 161 158 151 148 148 148 148 150 150 153 154 155 155 156 157 159 161 160
 101 100 101  98 102 103 102 102 102 101 104 106 108 113 118 116 120 126 114 119 125 133 131 137 143 147 149 149 150 149 149 148 149 146 149 155 156 158 159 159 163 165 166 164 164 167 168 172 177 180 181 179 183 185 187 192 196 196 200 214 247 252 252 252 252 252 252 252 252 250 220 204 178 162 206 186 153 152 147 147 149 148 150 152 153 154 153 154 156 155 157 158
 100 101 101 100 100 102 101 102 102 102 102 105 107 119 124 116 119 119 119 122 125 134 141 145 148 148 148 146 147 148 147 147 146 145 147 153 153 156 157 159 162 161 161 164 164 166 164 168 173 177 179 177 182 182 181 183 189 200 203 206 233 251 252 252 252 252 252 252 252 252 235 211 183 165 197 198 165 154 150 147 148 147 147 151 152 152 152 153 154 154 155 155
  98  99  99 100 100 101  99 101 101 101 102 102 108 132 131 118 116 121 120 128 139 144 148 149 151 149 151 152 150 146 146 146 146 145 146 149 151 153 155 159 160 159 161 162 163 162 163 165 168 170 168 166 174 176 176 180 181 182 192 201 212 237 252 252 252 252 252 252 252 252 249 224 178 162 175 176 197 192 168 152 150 146 145 148 149 149 151 151 152 152 153 155
  99  98  99  99 100 101  99  99 100  98 101 101 111 142 129 115 116 116 123 144 151 149 150 152 153 154 152 154 150 145 146 145 143 142 144 145 147 150 155 157 157 157 159 160 159 160 160 161 162 161 158 154 161 169 176 179 182 182 179 182 188 205 226 247 252 252 252 252 252 252 251 243 182 162 171 164 166 158 148 148 155 152 145 146 147 146 150 149 149 150 151 151
  98  97  99  99  96  99 100 100 100  99 101 103 113 142 128 111 118 118 136 151 157 155 157 154 156 155 155 152 149 145 143 140 138 141 140 145 146 147 152 154 156 154 158 158 157 158 156 156 157 160 155 155 162 167 172 173 178 183 180 177 180 183 198 229 248 252 252 252 252 252 252 246 173 162 166 164 149 143 142 146 142 147 144 144 143 146 147 147 147 148 150 150
  96  97  99  98  98  98  99  99  99  97 100 102 110 144 122 112 116 130 147 166 175 163 159 155 157 157 153 152 147 138 139 136 136 137 140 141 142 142 146 148 150 150 152 152 152 152 154 155 156 158 156 159 161 163 168 167 172 174 172 173 171 176 184 195 216 240 251 252 252 252 252 251 215 175 173 178 145 142 141 146 141 143 144 142 144 142 145 147 147 147 147 147
  96  96  96  96  97  98  98 100  98  98  99 100 111 139 127 115 130 148 158 194 202 179 165 160 157 155 149 147 142 139 138 136 135 134 134 138 140 143 144 148 149 153 154 154 154 157 156 158 160 158 157 159 156 160 162 162 164 164 164 165 168 169 176 184 191 217 248 252 252 252 252 252 244 204 180 159 146 140 140 146 155 149 142 142 141 141 142 143 145 144 146 147
  95  94  96  95  95  96  97  98  98  97  96  99 114 148 120 125 147 155 176 214 214 189 170 161 157 151 145 143 138 134 132 126 130 130 133 138 139 141 145 146 148 152 151 151 154 152 155 152 153 157 157 159 158 157 157 160 161 161 158 160 162 163 169 173 182 198 235 251 251 252 252 252 250 224 194 156 146 139 137 145 145 144 140 138 140 140 140 140 143 142 143 145
  95  95  96  96  93  94  95  97  95  96  98 101 111 140 123 137 154 164 197 218 205 193 177 157 152 148 143 138 134 130 127 128 129 130 133 136 140 141 140 140 148 151 152 152 150 150 150 151 153 154 158 158 158 157 156 154 155 156 157 158 158 157 161 167 174 181 201 230 248 251 252 252 252 238 196 158 143 139 138 138 141 136 138 137 138 137 139 139 140 142 142 141
  94  94  94  94  93  94  94  94  94  96  98 103 107 132 130 157 162 176 205 213 201 197 177 157 149 142 136 134 129 127 125 126 128 130 131 135 137 136 140 144 148 150 151 153 153 152 154 154 151 154 158 160 158 158 157 155 156 155 155 153 153 156 156 164 168 174 187 208 230 248 252 252 252 245 201 174 153 135 133 134 139 135 138 136 136 136 137 139 139 139 140 140
  94  92  92  93  94  95  95  93  94  95  97  99 103 132 136 161 169 196 208 206 193 187 170 155 144 138 134 128 126 125 126 126 129 131 131 134 138 141 143 145 149 150 152 153 154 154 155 153 152 156 154 157 156 158 158 157 158 157 155 157 157 159 159 162 166 170 177 192 212 236 251 252 252 245 200 175 169 157 139 143 148 159 142 137 136 136 135 136 138 137 138 138
  91  92  91  93  92  94  94  94  94  95  96  97 105 136 140 153 180 203 204 198 186 181 169 158 142 134 133 129 129 129 131 133 134 135 136 138 141 146 145 146 146 148 151 150 151 154 154 156 156 156 160 159 161 163 163 163 161 160 156 157 155 160 159 158 161 164 171 179 198 223 248 251 252 247 224 164 168 162 145 134 135 136 131 132 133 131 132 133 134 136 136 136
  92  93  91  92  92  94  93  94  97  96  95  96 103 124 142 159 187 203 200 189 180 172 164 151 140 134 134 131 131 132 136 138 138 138 140 140 143 146 146 146 149 153 155 156 154 156 159 160 162 160 160 163 164 165 165 163 164 161 160 159 160 159 161 158 158 161 164 172 184 211 237 250 251 246 236 171 154 143 140 132 131 131 131 130 130 132 132 133 132 133 134 136
  89  92  93  90  91  93  93  96  96  96  94  97 104 118 138 160 185 195 195 183 173 167 159 150 142 134 133 133 135 133 136 139 137 139 142 143 144 145 145 148 151 155 157 159 156 157 156 157 160 160 160 162 163 166 164 165 165 162 163 162 162 161 160 159 160 161 163 167 174 200 225 249 248 246 213 168 156 141 130 131 129 130 128 127 127 129 131 132 131 132 133 133
  89  90  90  91  91  92  93  96  92  94  93  96 111 111 131 167 184 188 187 177 166 163 158 153 142 133 133 134 137 136 137 138 139 141 144 146 145 147 147 149 149 156 157 157 160 154 151 150 155 160 162 163 166 167 167 167 167 164 167 162 163 161 162 162 160 160 162 164 172 189 213 237 244 235 205 168 142 141 129 127 126 128 128 126 127 128 127 129 130 130 131 131
  90  89  90  91  90  93  93  93  93  93  94  99 114 111 136 169 180 182 180 169 162 161 158 149 138 134 130 134 134 136 138 140 140 142 144 147 147 148 147 151 150 155 156 156 156 155 156 154 158 160 163 165 167 171 168 168 169 166 165 163 161 160 162 160 159 160 162 164 172 186 200 224 239 226 203 169 142 135 128 130 126 125 125 126 126 126 128 128 127 127 129 128
  92  89  88  89  90  90  93  93  91  92  95 103 111 118 143 165 172 175 172 166 163 161 154 145 136 133 133 136 135 136 140 141 141 142 141 141 144 146 150 148 151 154 154 156 157 156 156 157 157 160 161 163 167 171 169 168 166 163 164 163 163 160 160 161 161 158 161 164 171 183 193 214 227 223 202 204 154 130 125 126 125 124 125 125 124 125 126 126 126 126 126 126
  86  88  88  89  91  89  93  92  92  93  96 102 102 108 138 157 165 172 170 164 165 157 155 147 140 132 132 135 134 137 138 140 140 142 140 141 141 144 142 145 147 147 150 154 154 154 153 155 154 157 160 162 163 168 165 163 163 160 160 160 160 160 161 161 160 160 161 164 170 183 195 211 223 217 201 186 148 131 130 134 130 124 123 122 123 124 125 123 124 124 126 126
  88  89  90  88  88  89  92  91  91  91  93  97  94 105 129 153 160 163 164 163 162 156 157 148 141 132 133 134 136 137 136 137 136 139 137 137 137 136 136 138 145 145 145 145 148 147 148 148 151 153 156 159 158 158 158 157 156 157 156 159 160 161 160 159 159 162 164 167 173 184 191 203 212 209 199 184 162 164 160 143 128 122 120 120 121 122 123 123 124 122 124 125
  87  88  89  88  88  88  91  90  89  90  93  98  91 103 129 151 151 156 162 160 160 158 155 150 144 135 137 138 139 140 138 136 133 134 134 132 131 129 133 133 136 140 141 143 146 144 146 146 146 147 148 150 148 150 151 150 149 151 153 157 160 162 160 162 164 163 167 176 178 185 188 197 211 207 193 174 174 142 143 159 144 121 119 121 122 119 119 122 122 121 119 121
  87  87  88  89  88  88  91  90  89  91  91  97  98 104 125 140 148 149 154 158 158 157 158 152 146 142 140 140 138 137 135 136 130 126 123 120 122 122 124 124 129 132 137 138 139 143 143 139 140 142 139 140 136 139 141 144 150 151 155 159 161 163 163 167 172 177 186 192 191 190 193 196 205 203 185 160 137 130 124 120 128 124 118 119 119 119 119 121 119 119 119 120
  87  87  88  89  87  89  90  91  88  91  91  94  95  93 121 133 146 146 154 159 157 156 158 157 148 140 134 131 126 122 117 117 113 110 109 103 103 110 109 113 121 127 132 133 131 134 137 137 132 134 133 128 123 125 131 137 142 147 154 153 158 160 161 168 176 187 203 205 209 205 200 197 202 201 180 153 132 127 119 119 119 120 118 117 118 117 118 119 119 117 118 118
  86  85  88  88  89  88  89  90  89  89  90  92  89  88 117 140 147 147 152 158 158 159 161 156 141 131 123 113 104 102  96  92  94  92  93  89  91  96  97 105 110 118 125 126 128 130 130 129 128 126 126 122 120 119 121 126 132 141 142 139 140 141 143 154 170 180 202 213 227 225 210 201 198 193 172 150 128 122 116 117 118 117 118 118 117 118 118 117 118 118 118 118
  87  87  87  87  87  88  88  89  89  89  90  90  91  88 109 142 149 146 152 159 161 164 162 148 125 108  97  88  84  81  81  78  81  82  86  83  83  89  92  93 102 110 114 118 122 125 126 126 122 119 115 114 113 113 112 112 115 117 121 125 126 129 131 131 133 152 182 200 234 240 223 209 200 195 160 150 122 118 115 117 118 117 117 117 118 116 116 116 117 117 117 116
  87  86  86  87  87  88  88  88  89  88  89  87  86  86 115 147 149 149 151 162 163 164 147 117 101  85  77  79  76  74  73  72  72  76  83  82  78  82  86  85  93  98 106 112 117 120 123 123 118 114 110 110 106 105 103  99  99  99  99 102 105 106 108 109 115 126 139 157 205 236 236 217 200 196 148 151 128 118 117 117 115 116 116 115 115 116 116 117 117 116 115 115
  88  87  87  88  86  88  88  88  90  91  91  90  89  89 118 142 146 151 155 162 165 149 110  89  87  86  81  83  84  82  81  80  81  78  79  81  78  79  83  85  88  92 100 107 113 120 120 120 112 110 102 102 100  99  93  91  90  91  90  90  90  93  95  97 102 106 114 122 149 189 222 221 205 201 145 147 129 118 117 116 117 116 115 116 113 115 116 115 116 115 115 115
  86  85  85  87  86  89  88  87  89  89  90  90  90  85 108 140 148 150 155 158 150 130 103  94  92  95  90  86  87  86  86  84  84  83  84  86  86  84  82  84  86  90  96 100 108 118 119 115 109 105 101  97  97  92  89  88  88  90  89  90  95  98 100 102 104 106 109 112 118 142 190 223 213 204 138 133 120 118 117 116 116 115 115 116 114 115 115 114 114 115 116 115
  87  85  88  87  87  88  87  88  89  90  89  88  82  76 102 141 149 151 155 154 138 113 105 103 100  97  91  89  88  87  84  85  84  84  83  85  85  86  87  88  90  90  93  97 105 113 120 118 111 104  96  96  94  92  93  93  97  97  98  98 101 101 100 101 104 106 109 110 113 124 169 211 219 198 135 133 120 116 114 116 114 115 116 114 114 115 114 113 114 116 116 116
  86  86  89  87  87  88  88  88  88  91  91  88  84  72  91 134 151 154 156 141 119 109 107 102  98  94  93  90  88  86  85  85  83  81  82  80  81  81  84  86  89  91  94  98 105 113 118 118 114 105  97  96  94  94  97  94  93  94  92  95  95  95  99 101 106 107 111 112 113 119 140 199 223 198 142 132 122 119 119 119 120 120 120 118 119 120 118 119 120 121 120 119
  87  87  88  89  89  90  91  89  91  91  90  89  88  75  87 132 157 153 149 135 116 110 103  99  96  91  90  86  82  80  78  75  72  71  68  69  72  75  75  81  85  89  93  98 106 113 119 122 119 106 100  96  94  91  90  89  87  86  84  83  86  89  91  95 102 107 109 109 111 115 129 189 223 207 138 127 123 123 122 121 123 122 120 120 122 121 120 121 121 119 120 118
  87  88  89  88  89  90  91  91  92  93  92  91  91  77  86 130 155 149 144 128 114 107  97  93  93  86  84  83  83  85  81  74  68  66  63  61  61  66  68  73  79  87  95 103 108 115 124 127 121 107  99  92  87  85  84  80  76  78  80  82  85  91 101 107 106 101 104 104 107 110 123 170 220 213 139 127 123 124 123 121 120 120 120 119 119 121 119 119 120 119 118 118
  95  96  97  96  99  97  98 101 100  98 101 102 100  88  88 132 154 149 143 129 115 103  93  87  85  86  91  92  85  81  76  70  63  60  59  60  59  59  61  65  73  83  93 107 113 123 132 138 128 114  96  86  82  75  73  74  77  79  78  79  82  93 102 113 115 112 102 101 105 110 123 168 220 226 146 130 132 132 126 122 120 118 118 120 119 119 118 118 117 119 118 118
 100 100 100  99 100 100 101 102 103 103 106 105 104  96  91 128 155 150 141 128 113  99  89  85  87 100  91  82  75  68  57  49  43  42  49  52  56  58  62  64  68  78  90 107 118 130 140 141 141 123  93  78  73  74  76  76  82  81  81  71  65  62  73  86  98 104 104  98 103 108 121 164 217 234 167 199 239 228 158 125 120 119 118 118 118 117 118 118 118 118 118 118
  98  98 100 100 100 102 102 104 122 132 122 103 100 108  89 130 155 150 139 124 110  96  87  84  89  87  84  80  75  77  55  48  41  40  49  53  58  49  55  67  69  77  92 109 126 135 144 151 150 136  94  77  77  72  70  73  80  89  86  72  59  54  57  68  84  94  94  94 100 106 119 162 214 233 230 205 204 231 209 129 119 118 117 118 118 118 117 116 117 117 118 118
  97  98  99 101  98 101 104 117 148 116 107  97 100 110 111 136 154 150 138 125 112  95  86  85  86  88  75  74  86  90  67  50  44  47  47  56  54  51  55  66  72  83  98 113 134 140 147 158 154 143 100  79  72  67  68  68  77  94  96  75  64  66  63  69  82  82  90  95  99 104 120 167 210 233 186 155 143 150 198 145 120 116 116 117 117 116 116 116 117 117 116 116
  96 100  98 100 100 101 103 113  94  80  75  82  93 103 108 139 156 149 139 126 112  96  88  92 108 105  87  79  79  85  81  56  50  49  54  57  58  56  64  68  80  90 103 118 138 143 153 162 161 148 115  81  71  73  71  70  74  79  88  81  69  69  70  79  85  95  95 104 105 111 127 158 212 240 160 127 125 124 143 135 118 116 117 117 116 115 117 116 116 116 116 116
  99  98  98  99 100 102 104 102  75  65  65  70  84  96 100 137 155 150 136 125 115 105 108 123 132 122  98  85  75  71  70  68  63  65  62  62  60  61  65  74  92  99 113 127 140 144 150 162 164 150 133  96  76  73  74  75  76  79  80  81  80  77  84  91  95 104 109 114 122 126 136 160 206 237 141 111 117 120 129 122 118 115 115 116 116 115 113 116 116 115 116 116
  97  99 100 102 101 102 104  94  70  64  64  70  80  80  95 126 152 148 137 126 119 116 122 132 132 122 106  94  85  79  76  73  72  68  65  64  61  62  69  86  99 111 120 131 141 145 149 161 163 151 139 123  90  76  73  75  79  82  84  86  89  88  91  97 101 110 119 125 131 136 144 163 199 232 124 108 112 112 130 117 117 114 115 116 116 114 115 114 114 115 114 115
  96  97 100 100 100 102 104  90  68  62  66  74  87  91  94 115 151 149 142 134 129 127 129 135 131 118 105  97  90  85  83  78  73  70  66  66  66  71  86  93 105 117 123 134 142 143 150 159 156 148 141 136 112  91  78  75  78  83  87  90  92  96 100 101 104 113 129 136 137 144 148 162 191 225 129 109 104 108 130 116 115 114 115 115 114 114 114 114 115 114 114 113
  99  99 100 100 101 103 103 100  71  60  61  86  99  94  74  98 144 148 142 138 137 135 134 130 125 113 104  97  93  90  85  80  74  70  69  72  78  87  96 103 108 115 123 130 140 147 154 159 153 141 138 137 129 113  97  85  84  83  83  86  92  95  98 100 109 126 140 144 147 149 155 163 184 210 126 114 107 113 125 114 112 114 115 115 115 112 113 114 112 112 113 111
  98  97  99 101 100 100 102 104  77  61  66  97  96  80  62  75 141 149 145 143 141 139 133 125 120 113 106 104  95  91  87  85  80  74  75  82  92  97 102 104 107 116 124 132 138 148 159 165 152 139 134 135 132 125 116 103  94  86  84  89  94  94 100 108 121 137 146 148 148 148 153 166 185 189 118 115 114 123 119 114 114 112 114 112 113 115 112 112 111 111 113 112
  98  99  98  98  99 101 101 103  96  72  72  98  88  76  63  70 140 150 146 142 140 137 126 121 114 109 107 103  99  93  90  86  83  81  84  91 100 101 104 105 112 120 130 134 142 149 160 164 152 140 136 133 132 130 126 118 110  94  90  91  96 101 107 119 127 140 145 145 145 147 153 162 191 177 107 112 123 131 114 112 114 111 113 112 112 112 112 111 111 112 111 110
  98  99  99 100 100 102 102 101 103  83  72  95  81  70  60  76 137 150 143 139 140 128 119 113 108 104 102  98  96  94  88  86  87  89  94  98 104 104 103 106 113 128 134 139 144 150 159 162 153 143 136 130 130 129 129 126 121 111 103  98 101 106 115 126 133 138 141 142 143 142 146 158 194 146 101 114 130 126 114 113 113 113 113 111 111 110 112 111 110 110 110 110
  99  98  98 100  98 102 101 102 102  97  79  93  79  63  60  73 131 150 142 137 136 123 113 111 107 102  99  97  93  92  87  91  94  99 102 102 105 104 105 109 124 141 144 143 145 149 163 163 152 143 137 132 128 127 127 129 127 122 115 112 108 113 120 128 134 136 135 135 137 136 141 153 189 125 105 121 134 119 112 111 112 111 110 110 110 110 111 109 111 110 109 110
  97  97  98 100  99 101 102 102 101 104  90  94  80  61  57  64 110 146 140 133 124 116 110 107 102  99  97  94  96  93  93  98 100 101 102 103 103 101 101 115 139 158 156 146 148 155 166 165 155 144 135 132 126 123 125 129 129 128 122 120 116 117 122 126 128 129 128 128 128 130 136 160 188 131 134 129 129 112 111 110 110 110 110 110 111 110 109 109 110 110 110 110
  97  96  98  99  99 102 102 102 101 102  99  95  94  77  65  65 104 144 138 129 120 110 105 101  98  97  94  94  96  97  98 100 102 102 104 103  99  99 100 128 162 173 161 148 150 155 164 165 156 148 139 132 123 112 118 124 128 132 129 127 124 124 123 122 122 120 123 123 123 124 132 163 178 147 133 128 121 110 110 110 109 109 109 109 109 109 109 109 108 110 110 110
  97  95  98 100 100  98 101 102 100 102 103  99  92  93 101 116 110 139 138 127 118 106 101  98  96  96  95  92  95  97  98 101 104 103 102 102  97  93 102 156 182 189 168 154 147 147 158 162 159 150 142 137 126 107 114 120 124 132 131 131 131 129 128 125 121 120 120 121 120 119 127 165 169 134 121 133 124 116 110 108 109 108 109 107 108 108 110 109 109 108 109 106
  96  96  98  97 100  99 100 101 102 100 102 105  98  88 102 125 110 133 135 126 119 107 100  97  95  96  98  94  96  98 100 101 105 106 103  99  95  93 119 173 193 187 162 149 142 138 140 149 149 148 142 139 132 107 110 116 125 132 134 131 128 128 126 124 120 120 120 118 118 119 125 170 174 157 150 140 114 105 108 109 109 107 108 109 108 108 107 108 108 109 107 107
  96  97  98  98 100  99 100  98 100 100  99 104 111 123 138 124 110 128 136 126 117 109 101  98  96  97  96  96  99 100 101 100 103 105 105  98  89  90 135 167 174 160 147 137 129 126 131 137 140 143 141 138 135 115 106 111 122 129 130 131 129 130 127 124 123 123 121 117 115 114 130 182 163 153 160 142 120 103 107 108 107 107 107 106 108 108 107 108 108 108 107 106
  94  96  97  98  97  98  98  99  99  99 100 101 108 124 118 112 109 118 137 129 118 110 102  96  97  95  96  98  99 100 103 103 103 104  99  93  87  88 129 137 138 135 126 122 122 120 122 127 132 137 137 134 131 121 106 110 118 123 126 128 130 129 126 125 125 123 121 118 115 116 138 164 153 143 124 106 103 101 106 105 105 107 107 106 105 103 104 107 108 107 105 104
  96  96  97  99  97  98 100  99  97  99  99  97 100 108 109 107 104 107 132 130 120 111 105  99  93  95  96  99 101 103 104 107 106 103  99  93  86  85 124 120 116 114 109 109 111 109 109 115 120 126 128 122 119 118 112 110 116 121 126 128 128 128 126 125 124 123 122 120 115 116 138 153 139 127  89  79  78  92 106 106 105 106 107 104 106 106 106 105 106 105 104 104
  95  96  97  97  98  98  96  96  96  98  98  94  95  95  98 102 100  96 124 128 120 110 101  98  95  95  98 100 104 106 105 107 106 106 101  94  88  87 109 110 105 108 102  98  99  98 100 104 110 113 116 108 105 117 120 117 115 119 126 128 129 126 124 124 123 122 123 121 116 118 142 136 120 102  92  82  66  79 102 105 105 104 105 104 104 105 104 104 104 106 104 104
  94  95  96  96  97  95  97  95  96  96  97  92  56  36  41  75  94  89 108 124 121 109 106 103  99  98 101 104 105 107 108 111 109 108 102  96  92  87  89  90  86  96 100  91  90  90  91  94  98  98  96  92 101 120 127 127 121 122 125 126 129 126 124 123 123 123 121 121 119 125 139 118  97  91 102  88  60  96 109 104 103 104 103 104 103 102 104 104 104 103 103 104
  95  95  96  96  94  94  97  95  95  96  83  41  31  30  29  30  58  79  91 120 122 110 106 103 102 104 104 108 110 112 114 115 112 107 103  98  93  89  87  84  73  71  90  90  87  89  90  89  88  86  72  78 121 137 138 137 131 127 129 127 130 133 127 126 123 122 120 121 120 127 142  99  77  73  81  91  67 215 158 110 104 104 103 102 102 102 103 102 103 103 102 102
  94  94  96  94  94  94  96  96  94  87  40  27  28  27  26  26  28  31  42 117 121 112 110 106 104 107 109 112 115 119 122 121 112 108 107 103  97  91  90  87  82  78  77  82  85  86  86  85  80  69  61  78 126 141 144 139 136 132 131 133 133 133 128 125 124 122 119 122 123 134 133  85  66  70  78  87  90 195 236 125 106 103 102 101 100 100 101 102 101 102 102 102
  94  94  93  95  93  94  95  93  82  37  28  25  26  23  23  25  25  25  29 107 122 115 109 108 110 110 114 121 125 125 126 118 111 112 111 105  96  92  88  84  83  81  81  81  78  79  79  74  69  65  62  82 121 139 142 141 138 137 135 136 135 132 130 126 125 121 116 120 123 132 101  66  66  78  78  97 114 234 241 125 105 102 102 102  99 100 101 103 103 101 100 101
  94  94  94  95  94  94  93  91  46  28  26  23  27  24  26  28  28  25  29  79 124 119 113 112 113 117 121 126 129 132 126 120 114 115 112 103  93  90  83  77  73  73  72  77  76  73  72  70  65  62  65  84 108 127 137 137 135 136 136 136 138 138 134 128 127 123 119 118 122 135  81  64  65  66  71  81  94 162 157  94  81  80  89  90  89  94  94 101 114  99  98  98
  94  94  95  95  92  94  93  89  44  27  24  27  26  31  42  44  42  27  27  56 124 121 115 114 117 120 124 130 131 133 123 119 117 116 106  95  87  83  82  72  65  65  66  68  72  75  72  67  62  62  69  80  91 104 115 123 124 127 132 133 136 137 136 130 129 123 118 115 121 128  60  49  49  47  47  47  51  58  61  55  51  50  48  48  48  50  49  49  49  48  89  97
  92  93  93  93  92  92  93  90  64  28  35  39  41  49  56  52  47  30  27  39 120 122 116 117 120 125 124 133 134 128 121 112 109 109  99  88  83  77  76  67  61  60  63  65  65  70  71  65  62  67  72  78  83  94 105 107 105 112 117 125 132 137 135 129 124 120 119 115 124 117  59  49  48  49  49  48  49  50  50  48  47  46  46  46  45  45  45  45  45  42  83  96
  91  90  93  93  91  92  93  91  87  44  59  60  58  60  57  53  49  37  27  30 105 123 120 120 124 129 132 134 133 128 120 100  95  90  86  77  74  69  71  66  56  56  60  63  63  66  64  64  70  71  73  72  72  78  93  98  97  90  94 112 129 134 134 130 126 121 118 117 128  96  56  48  49  48  48  47  48  48  46  46  46  46  45  45  44  43  45  43  44  39  81  95
  90  91  91  90  91  92  92  91  89  66  61  63  62  60  49  43  43  43  31  43  85 125 121 123 126 130 134 134 133 123 110  92  84  74  72  71  68  64  64  58  54  60  60  62  60  65  59  62  71  76  75  71  71  71  83  85  80  72  70  86 111 130 134 131 128 124 122 123 132  78  52  48  48  47  46  45  46  46  46  45  45  44  44  44  44  43  43  41  41  39  78  94
  89  90  90  90  89  89  89  90  90  81  42  46  56  46  35  39  43  44  34  45  69 124 120 121 126 131 133 134 130 118  99  87  74  74  68  70  63  60  57  54  57  62  61  59  60  59  56  59  71  81  78  76  74  68  72  75  72  66  62  68  88 120 130 129 125 124 124 126 122  63  49  47  48  46  46  45  47  46  45  44  45  43  44  43  43  41  44  41  43  40  77  94
  88  89  89  88  89  90  90  90  90  82  51  44  50  45  42  45  48  45  35  47  80 121 123 123 124 130 132 132 127 107  86  74  63  64  60  62  67  65  59  61  63  68  68  63  59  50  54  61  67  80  80  81  80  72  68  76  72  70  66  72  86 112 128 128 124 122 124 132 100  58  48  48  46  46  45  46  46  45  45  44  43  42  43  41  41  41  41  43  41  39  77  93
  87  88  87  88  86  89  89  88  89  84  61  55  53  47  51  55  50  43  33  62  87 112 124 121 125 127 130 133 132 109  90  74  70  68  69  74  74  74  69  68  68  71  72  71  66  62  63  71  77  78  79  81  81  79  78  78  76  81  78  84  97 114 128 129 121 115 124 129  84  52  50  47  45  45  45  45  45  45  43  45  44  42  44  43  42  40  40  42  40  40  74  93
  89  89  89  89  87  88  88  87  89  83  68  62  61  54  55  55  48  37  34  73  85  98 129 119 124 129 130 130 124 105  90  83  79  73  69  66  69  71  67  68  69  67  70  70  70  70  69  71  73  70  66  65  61  61  56  52  64  74  78  84  99 112 126 133 122 111 121 126  70  50  48  45  45  44  45  44  46  44  44  42  41  41  43  43  41  40  41  40  39  39  72  92
  87  87  83  83  80  80  76  78  78  75  73  71  71  68  68  59  36  29  38  55  82  90 120 113 122 126 128 126 120 102  89  79  73  63  54  49  47  47  47  48  47  49  51  55  56  58  58  55  53  53  50  51  54  57  58  66  69  71  74  81  91 102 118 128 118 114 123 113 112  66  48  45  42  44  44  42  44  41  43  43  41  42  42  40  40  40  39  39  41  38  70  90
  66  66  63  62  58  59  59  57  55  56  55  57  56  56  60  57  31  26  41  48  71  86 112 109 117 117 127 124 118  97  83  75  71  65  67  67  64  63  69  68  66  60  51  49  49  48  50  49  54  60  67  73  74  79  82  83  81  78  82  85  93 104 114 118 114 111 116 105 107 110  83  46  45  45  43  42  45  41  42  44  43  40  41  40  39  38  40  39  40  39  68  88
  58  55  53  55  55  53  51  53  53  52  51  51  50  53  55  51  26  33  41  47  49  60 105 113 116 111 126 124 117  92  79  78  77  78  83  84  85  82  78  75  72  69  65  63  65  62  62  69  72  78  83  86  92 101 100  96  90  91  93  93  91 105 108 111 108 116 112  89  80  99 114  86  47  44  43  41  44  44  43  42  41  41  41  41  40  39  41  39  37  38  63  89
  45  45  47  49  51  51  51  50  50  50  50  49  51  51  55  50  34  40  45  42  27  31  87 113 109 112 120 122 106  93  84  80  82  85  87  88  86  86  84  82  77  74  71  72  74  74  75  77  83  88  90  96 103 104 108 109 106 107 100  93  89  99 106 104 106 109 110  84  58  70  84 140  69  47  44  44  46  43  44  41  40  40  41  40  39  38  39  37  38  38  61  88
  45  46  47  52  52  51  51  51  48  48  48  50  50  53  54  53  43  45  40  28  22  29  76  98 106 107 111 114 103  92  85  80  84  85  85  86  85  87  88  85  81  81  78  76  79  83  82  83  87  92  95  96  99 105 113 118 116 117 102  92  84  92 100  94  94  92  92  72  50  54  65  95 173  64  47  45  46  44  44  42  41  41  39  38  40  39  38  38  37  36  63  88
  44  46  49  53  53  53  53  51  48  49  50  49  51  53  56  54  42  35  22  21  22  24  74  89 104  92  97 106 104  87  82  75  77  83  87  88  87  88  91  89  85  83  82  80  79  80  80  78  83  88  94  94 101 110 116 120 115 107  95  84  82  82  86  87  84  83  94  70  48  46  57  71 126 148  56  52  52  50  47  48  45  43  42  40  40  40  38  38  37  37  60  87
  46  53  55  54  53  55  55  55  51  51  52  51  53  54  58  52  24  22  20  20  22  63 120  83  76  84  84 102 103  85  71  72  72  77  84  89  89  88  90  88  83  80  79  72  69  70  67  68  73  80  89  94 102 108 112 112 112 104  84  72  66  68  73  78  74  75 100  74  50  44  46  65 106 188 216 186 183 161 158  99  54  48  44  41  41  39  38  38  38  36  61  87
  50  51  56  55  55  56  58  56  53  56  55  56  57  58  60  55  22  19  20  23  58 108  99  88  67  78  84  94  96  78  70  64  67  68  78  85  89  88  86  86  80  75  70  61  57  60  56  59  66  73  84  91  99 103 106 104 102  93  76  68  61  60  61  65  67  71 114  60  42  39  43  52  67 191 241 239 251 223 217 180 208 137  60  49  43  40  39  38  39  37  59  87
  48  54  57  55  56  56  56  58  57  60  62  65  63  65  67  59  23  19  21  27 116  97  89  84  66  64  84  88  90  75  62  58  59  62  70  79  82  80  82  81  75  71  65  56  51  52  50  54  61  69  81  86  94 102 103  97  85  75  69  61  56  55  56  60  57  77 130  85  47  39  40  47  59  97 214 246 234 245 212 228 149 208 187 141  58  47  43  41  39  37  61  87
  52  52  54  55  56  58  60  64  65  72  71  74  72  74  75  62  24  21  24 101 136  81  68  96  61  57  67  78  85  75  57  56  58  59  61  69  74  76  78  73  71  70  63  55  53  52  52  55  61  68  83  95 100 103 104  93  74  66  62  54  48  49  53  54  54  84 132  87  53  41  39  42  53  85 224 234 226 252 236 210 121 133 164 220 210 145  55  47  42  38  58  87
  51  53  53  55  55  57  58  56  79  85  84  83  83  83  80  66  27  25  46 148  96  57  52 111  69  56  55  72  78  72  60  54  54  55  56  61  69  73  76  75  75  69  67  60  56  54  56  63  68  72  94 109 111 107 108  88  70  63  55  49  46  47  52  48  59 105 142 112  55  45  41  38  42  60 169 213 226 227 240 194 182 125 156 119 188 180 233 149  54  45  46  75
  49  51  54  54  56  56  54  56  83  99  94  90  89  90  91  77  45  50 106 103  96  48  44 128  83  55  56  63  66  64  53  52  52  54  55  54  61  69  73  77  77  74  75  74  61  62  72  85  81  82 101 111 114 108  98  83  64  57  52  46  44  43  52  52  65 118 152 128  67  48  46  43  42  49 124 219 219 218 213 220 187 111 103 105 145 163 191 209 211  80  58  69
  49  50  54  54  54  54  55  56  90  98 100 101  97  96  96 103 153 116 155 126  73  40  44 120 104  76  54  53  59  62  60  50  54  49  50  48  53  63  69  73  76  79  85  83  75  75  86 102  92  95 100 105 107  97  87  73  58  51  47  44  41  40  45  54  85 126 154 133  78  51  48  44  46  48  83 213 215 226 209 246 171 159 121 141  99 115 107 173 169 244 177 156
  51  52  56  54  53  55  56  55 100 102 102 100 105 111 157 159 144  93  94 130  57  38  36 114 112  89  57  50  49  49  51  53  53  49  48  45  54  63  67  71  76  85  85  79  77  82  91 104 100  92  97 105  97  85  81  69  53  48  44  41  39  42  47  61  99 127 150 132  93  54  49  47  44  47  71 193 209 218 233 217 197 206 111 124  92 134 148 182 203 227 203 248
  77  55  54  54  56  56  57  63 101 101 112 161 145 181 118  68  61  86 118 120  54  36  35  97 122 106  73  47  43  43  47  51  47  44  44  48  57  59  63  68  76  85  82  78  75  83  92 101  94  86  89  99  99  88  81  65  51  47  42  38  37  42  55  72 101 126 144 124 101  64  51  46  43  47  71 182 218 202 210 219 236 163 155 146 143 125 165 148 201 176 245 224
 127  82  58  57  56  57  56  70 123 166 163 202  98  93  74  69  71 101 134 105  48  33  34 100 124 113  89  55  39  36  41  46  42  41  41  49  50  54  61  67  72  81  81  74  70  77  85  90  83  82  87  88  98  82  69  52  48  41  41  40  37  41  50  84 109 126 137 119 101  75  53  49  46  47  77 129 201 172 207 219 217 169 217 114 126  89 115 134 178 192 242 198
  78  72  61  61  62  70 154 173 210 201 142 162 114 109 119 118  97  88 129  85  39  32  32  95 124 116  95  72  41  37  39  39  38  38  40  46  47  50  56  67  70  75  72  67  65  72  84  82  78  76  80  82  82  76  62  48  44  39  38  37  35  42  57 103 115 124 133 116 103  81  55  48  47  49  86 138 214 189 155 203 221 199 170 131 151 129 123 194 187 228 199 224
 125  63  64  95 123 194 214 189 179 186 123 141  98  88 123 147 131 131 106  73  37  30  30  81 125 118 104  65  46  38  36  33  35  35  38  44  44  46  53  59  62  67  61  54  63  73  82  81  75  72  73  77  68  58  51  44  43  36  35  35  36  50  82 112 120 123 126 111 101  89  60  47  47  47  77 105 192 186 199 182 221 224 175 206 123 128 119 143 139 184 161 247
 130 135 180 182 166 179 200 163 160 136  65 102 159 139 188 132 125  98  84  68  38  28  26  71 124 119 107  84  61  41  36  34  31  36  37  40  44  45  48  53  54  54  51  52  61  69  70  73  67  62  64  62  56  50  46  39  37  35  34  36  45  76 103 112 120 121 120 110 102  95  64  49  46  48  69 166 184 207 170 181 210 218 182 168  98 119 119 113 165 178 198 191
 221 186 197 206 197 161 192 137 154 182 137 151 193 133 181 197 123  81  70  56  37  26  28  55 122 117 109  94  74  48  36  34  37  32  34  38  41  42  43  46  47  45  48  48  55  63  60  60  58  51  52  51  47  45  44  37  36  34  35  38  60  93 106 112 117 117 115 107 100  94  68  50  46  48  62 121 177 173 206 194 174 201 162 166 148 126 153 109 155 124 169 151
 223 196 186 172 207 131 201 148 177 159 130 145 180 131 133 147 142  49  63  50  34  26  26  52 115 119 110 102  89  67  47  36  32  32  31  36  33  35  36  38  40  38  42  46  44  53  52  50  44  44  41  39  39  39  38  38  35  37  36  55  86 101 109 111 112 111 109 106  99  96  72  49  46  46  51 178 198 213 189 190 207 211 222 124 146  85  87  90 160 114 163  78
 191 215 161 124 182 119 130  91 114 171 147 157 133 123 136  96  79  52  56  45  32  26  26  49  96 115 110 106  96  82  68  44  33  33  32  32  30  30  33  32  30  30  33  36  37  42  45  39  38  34  35  32  32  35  32  35  38  40  51  83  98 106 108 109 110 109 106 102 101  95  72  49  45  46  54  98 162 196 202 206 177 192 192 125 169  67 156 109 181 172 191 142
 174 197 164 144 120 152 167  95 115 187 129 163 106 127 144 133  84  60  47  41  32  26  26  48  80 107 109 104  98  89  81  68  49  38  33  30  30  32  31  30  28  29  30  30  32  35  38  35  33  32  33  32  32  34  37  40  48  57  76  96 100 107 106 108 106 103 102 100 100  94  71  48  45  46  56 111 222 220 190 169 207 219 207  89 117 116 163 179 163 148 100  90
 186 172 129 146 178 182 132 206 114 191  91  70  68 107  68  84  42  62  46  37  32  25  26  42  71  89 105 103  98  89  86  84  78  69  56  42  35  34  31  31  29  28  27  30  31  32  34  35  32  32  34  36  39  48  63  68  70  81  86  97 103 104 103 104 103 101 100  99  96  93  73  47  45  46  56  68 159 173 192 210 182 182 199 173 116 151 142 202 146 200 120 134
 165 156 188 142 135 123 215 127 197 143 112 124  80 138  60 125  79  65  48  40  34  25  27  38  64  76  90  98  92  89  87  86  87  80  78  74  66  53  47  43  43  45  37  41  39  38  39  42  38  39  45  50  60  70  74  75  79  87  92  98 100 101 101  99  99  99  96  98  98  93  73  49  45  44  56  67 209 208 204 172 205 213 204 197 111 176 130 198 103 108  69  92
 146 173 117 142 128 209 152 190 163 127 141  69  94 117  44  88  60  57  47  42  34  25  28  35  59  72  80  92  91  90  87  85  87  84  83  82  78  72  71  70  74  70  74  69  71  65  65  64  64  60  60  65  75  77  80  82  85  91  95  98  97  99  94  95  95  96  97  96  98  92  71  48  45  47  58  74 133 183 191 222 195 168 172 215 135 176 146 164 148 125  89 117
 100  98 178 134 155 162 179 175 142 138  64  85 123  85  81  91  93  54  48  43  33  25  27  33  52  68  73  81  89  89  91  88  88  87  88  86  85  80  81  79  81  79  79  80  82  79  80  79  78  71  76  78  79  80  83  85  87  90  93  95  93  93  93  94  93  95  96  96  98  92  70  50  45  45  58  77 129 220 203 176 194 216 233 221 183 163 183  96 104  87  68  95
 149 136  99 129 148 161 187 140 124 104  90  97 144  75  71  86  53  53  51  44  34  24  28  32  44  66  70  74  82  86  87  86  90  87  90  90  87  85  86  81  80  80  83  81  81  84  83  84  83  81  84  82  82  82  85  85  89  90  92  93  92  92  92  92  92  94  95  95 100  90  69  50  46  46  61  96  95 211 190 214 203 196 199 175 206 107 175 102 103 114  90  98
