P2
# Generated by OpenCV 3.4.0
92 112
255
 109 108 110 110 110 111 111 112 112 113 113 113 113 112 114 113 114 116 114 114 116 114 114 114 116 119 116 118 118 122 133 120 124 125 133 139 142 144 150 168 159 156 161 159 158 150 153 167 172 162 178 168 160 144 151 145 142 144 144 145 147 149 150 151 155 156 156 159 161 163 165 165 168 171 172 174 176 177 179 183 185 188 190 191 194 198 202 206 209 209 213 214
 110 109 108 112 111 110 111 111 110 113 113 112 114 113 113 114 114 114 116 115 114 115 116 114 118 117 118 118 118 120 129 123 130 129 140 153 154 155 151 161 173 181 187 211 209 188 191 211 195 186 200 214 188 164 149 147 143 145 145 146 148 148 150 150 154 156 156 158 159 162 163 166 168 168 171 172 175 177 180 179 183 185 187 190 193 195 200 202 206 206 209 212
 109 110 110 111 110 111 110 111 112 114 113 111 113 113 113 114 114 114 114 114 114 117 117 117 116 116 118 120 120 121 124 132 138 139 156 150 149 156 162 159 164 183 184 198 230 225 221 208 212 215 218 218 234 222 213 165 155 156 151 146 146 147 148 152 153 154 156 156 159 161 161 165 165 168 170 170 172 175 177 180 182 183 187 188 190 192 196 198 201 203 206 207
 108 110 110 111 110 109 110 112 113 113 113 111 112 114 112 113 114 115 115 114 115 117 117 115 115 118 119 120 122 127 135 142 140 142 156 152 143 140 148 145 155 180 188 182 202 239 232 193 208 234 252 235 250 223 225 200 196 177 180 149 146 147 149 149 151 152 154 156 158 159 160 162 165 168 170 172 172 174 176 178 178 181 183 184 189 190 192 193 197 198 202 204
 107 110 109 108 107 108 110 110 111 112 111 111 111 112 112 112 114 114 115 115 116 114 116 116 115 117 124 123 124 126 137 138 134 129 130 134 126 124 136 136 143 164 168 174 190 231 229 216 215 235 249 248 251 239 230 248 252 229 200 185 148 146 148 148 150 152 153 156 155 159 162 164 164 168 181 172 169 171 174 175 175 177 180 180 185 187 188 190 192 194 196 198
 108 109 109 110 109 109 109 111 109 110 113 112 112 112 112 113 113 111 111 114 116 115 116 121 125 121 122 124 134 131 137 133 133 131 128 132 127 123 133 138 142 156 165 164 185 213 234 220 228 240 238 251 251 246 225 251 252 252 249 209 156 148 146 147 148 150 151 153 152 152 153 155 160 162 160 160 160 160 161 162 165 164 166 167 170 172 174 176 177 180 183 184
 108 107 108 107 109 110 109 109 110 110 112 110 112 110 109 111 112 114 113 115 120 116 118 122 125 122 121 128 137 126 122 123 128 130 126 130 132 126 132 148 144 153 175 157 175 193 204 231 228 215 227 248 242 244 244 246 252 252 250 223 157 155 147 136 133 134 139 139 136 137 137 139 143 165 148 146 148 150 150 152 154 155 157 159 162 164 167 170 172 174 176 176
 107 108 108 108 108 108 109 108 110 109 110 108 110 110 109 110 112 114 113 113 118 128 122 121 124 122 122 129 140 125 115 114 123 128 130 124 132 130 130 148 146 152 168 151 167 174 178 206 196 185 205 225 227 234 251 233 250 252 251 238 171 144 182 165 168 159 148 155 140 133 131 133 136 138 144 140 141 143 143 146 147 149 149 151 152 154 158 159 162 161 166 168
 106 108 108 108 107 108 106 107 109 109 109 111 110 110 110 111 112 111 113 114 114 146 123 118 120 122 124 138 133 122 115 114 121 122 131 127 124 132 128 132 144 144 151 149 150 153 152 172 163 165 168 188 209 209 235 203 240 251 251 250 214 216 221 187 135 124 150 172 208 138 125 123 126 128 133 133 134 137 138 140 143 146 148 150 154 155 157 160 162 164 167 169
 107 107 108 107 107 107 106 107 108 108 109 110 110 109 110 111 112 112 114 115 116 130 124 123 119 120 120 130 126 117 114 115 115 123 128 129 121 127 127 132 134 138 139 143 143 138 145 153 151 155 152 168 186 183 192 204 239 252 251 251 252 249 213 202 145 127 125 129 150 229 158 132 132 134 136 135 136 139 139 140 141 144 144 147 150 151 152 154 156 156 158 162
 106 106 107 107 106 107 108 107 108 108 110 110 110 109 110 110 113 112 113 119 126 122 127 127 123 123 117 120 124 113 112 115 120 122 124 125 122 124 129 132 128 134 133 136 134 134 141 143 150 150 150 155 162 169 175 185 209 236 218 235 251 252 251 240 180 143 124 120 122 161 187 136 132 131 129 127 132 132 134 138 138 141 141 144 148 151 152 153 156 157 159 161
 106 105 106 107 106 107 106 108 107 107 108 108 107 110 107 108 111 114 118 122 127 123 127 121 119 116 119 115 116 114 106 112 122 125 122 126 121 122 127 131 132 133 133 132 131 134 138 142 146 147 151 152 158 160 154 156 177 181 206 198 249 252 252 251 231 192 151 132 129 139 174 149 138 153 139 144 139 134 134 136 139 140 143 145 146 148 150 151 154 156 157 159
 106 106 107 106 104 107 106 107 107 107 108 108 106 109 107 108 111 117 123 124 136 127 121 112 110 111 112 107 101 108 106 107 117 120 123 127 130 125 126 130 133 134 136 134 132 135 136 141 143 147 152 160 162 148 150 153 159 157 168 205 229 247 251 252 252 230 174 182 135 130 145 153 142 150 145 142 146 149 140 141 142 145 147 150 152 154 157 158 159 163 164 166
 106 106 106 106 104 106 107 108 107 108 107 106 107 107 110 112 111 124 143 173 175 128 118 113 110 107 108 107 104 105 106 109 118 119 120 124 126 128 126 133 135 134 138 136 134 140 138 139 146 150 158 166 156 149 148 148 155 158 173 183 205 213 239 252 252 245 222 209 180 151 155 167 166 160 155 148 149 150 152 154 153 158 160 160 162 167 180 172 168 170 172 172
 104 104 104 105 105 106 106 107 106 105 105 106 106 110 111 118 119 122 128 133 140 123 112 110 108 101 107 106 109 113 118 118 123 126 127 128 126 128 132 134 136 138 141 143 141 140 139 142 147 154 162 162 158 153 155 161 167 177 180 189 203 209 219 250 252 252 249 226 204 191 163 163 194 173 165 156 153 154 154 155 156 157 160 168 173 173 170 167 168 169 171 171
 104 104 103 105 105 103 105 105 104 106 105 106 107 114 115 120 120 116 121 124 129 116 112 112 104 104 114 119 126 131 133 132 134 137 139 140 137 137 139 140 141 144 146 149 149 147 146 146 149 155 158 159 154 163 158 164 173 181 184 194 210 215 231 245 251 252 252 247 233 182 201 173 192 173 201 164 154 152 154 154 158 161 162 161 163 163 165 164 166 167 168 168
 104 103 104 104 104 101 104 102 104 107 104 107 111 114 114 114 117 120 124 130 114  99 114 116 112 108 119 128 141 145 152 151 148 146 148 148 150 148 150 149 151 153 154 154 155 154 155 152 149 148 148 156 162 160 166 172 177 180 193 206 215 231 247 251 251 252 252 250 236 187 191 177 171 178 179 194 154 152 158 155 155 156 156 157 159 159 159 161 164 166 167 167
 103 101 101 104 103 105 104 102 103 105 104 107 114 116 113 114 114 118 123 132 119 126 123 120 124 125 130 138 144 155 163 159 155 152 153 154 156 157 160 160 158 159 160 161 162 162 160 161 157 155 159 162 165 171 179 182 180 186 191 204 218 244 252 252 252 252 252 252 251 231 201 198 174 172 160 166 158 153 153 151 151 154 153 155 156 156 158 158 160 162 164 163
 101 100 101 101 101 103 104 103 103 101 107 108 119 117 115 115 116 127 126 119 117 124 123 123 126 132 139 143 149 151 160 158 154 151 151 155 158 160 160 160 160 163 166 167 167 166 165 165 163 164 165 170 174 179 183 188 193 197 197 201 214 244 252 252 252 252 252 252 252 246 224 205 178 203 160 158 161 153 148 150 150 151 153 153 155 156 157 157 158 159 159 160
 100 100 101 101 101 100 103 102 101 101 103 108 131 118 114 118 125 125 116 110 122 127 129 132 135 140 145 146 152 150 153 152 148 151 152 152 155 160 161 161 163 165 168 167 169 171 167 170 166 164 171 177 181 184 186 191 198 199 197 200 206 225 251 252 252 252 252 252 252 252 251 225 202 179 179 204 165 151 154 150 146 150 153 152 154 154 154 156 156 156 157 158
 100  99  99 100 100 100 102 101 102 103 102 111 140 120 112 118 127 114 110 120 128 134 138 141 142 146 149 146 147 147 148 147 147 148 148 151 154 159 160 164 165 166 168 168 170 170 169 171 169 169 178 184 183 185 184 187 193 204 199 199 202 212 240 252 252 252 252 252 252 252 252 244 208 171 168 197 199 162 156 150 147 148 148 151 151 151 153 154 154 154 155 156
  98  98  98  98  98 101 101  98  99 102 103 116 147 121 112 117 119 109 122 135 142 145 147 145 146 148 149 148 148 149 148 148 144 145 147 147 150 157 160 161 162 163 165 167 167 167 170 168 168 168 172 179 182 187 184 185 188 189 200 208 202 206 221 252 252 252 252 252 252 252 252 249 214 169 176 185 179 201 182 162 152 146 147 147 150 149 150 151 151 152 154 154
  98  99  99  99  99 100 100  99 100 101 104 116 145 115 114 119 115 113 135 143 149 150 150 150 152 152 149 149 149 150 147 147 144 144 147 146 148 152 158 159 159 160 165 165 161 163 165 166 164 165 168 175 178 181 179 181 182 182 185 188 206 215 210 235 251 252 252 252 252 252 252 251 222 176 165 165 169 184 158 153 153 157 147 146 148 148 149 151 152 152 152 151
 100  99  99  99 100  99  97 100 100 100 101 118 135 112 116 120 113 129 144 150 160 154 155 156 153 155 153 150 153 152 146 143 145 146 144 144 146 149 148 150 156 160 160 160 159 161 162 161 161 160 163 168 169 168 166 169 175 179 181 182 180 187 203 211 230 250 252 252 252 252 252 252 233 168 159 164 159 153 147 147 144 145 148 146 146 146 149 149 148 148 149 149
  96  97  99  98  96  97  97  99  99  99 103 120 140 119 121 117 126 145 150 168 184 168 160 158 154 155 153 150 150 148 147 142 142 141 138 140 142 146 147 147 154 156 157 158 157 161 160 158 159 159 159 160 160 153 153 160 168 173 178 181 180 178 180 187 201 220 243 251 252 252 252 252 248 192 167 192 159 145 141 144 141 141 145 142 143 145 144 146 147 147 147 147
  94  95  96  96  97  97  97  98  97  98 104 121 143 123 119 123 149 144 160 191 208 182 165 159 154 153 152 148 149 147 143 138 138 137 137 138 140 146 147 148 149 150 152 154 155 156 156 158 156 155 155 154 158 153 152 160 166 171 172 178 177 176 172 178 184 196 216 241 251 252 252 252 252 229 188 166 155 141 139 146 156 151 146 143 141 141 141 142 144 145 146 146
  96  96  95  95  96  97  95  97  98 100 102 121 139 124 123 139 150 154 177 213 224 198 171 161 154 152 150 147 143 141 138 134 135 136 134 135 135 138 142 142 142 145 148 149 150 152 152 152 154 155 154 156 157 157 156 160 163 166 166 170 172 169 169 170 176 185 196 213 241 251 252 252 252 250 214 166 146 143 141 147 144 150 141 140 140 140 140 140 143 142 142 144
  94  94  94  94  94  94  96  96  97  99 100 117 135 127 130 149 156 162 196 224 214 193 176 162 154 153 148 143 139 139 134 134 132 132 134 134 133 138 140 143 146 146 150 152 157 156 154 156 158 158 158 160 158 156 157 153 158 160 163 163 162 160 162 165 169 177 185 192 225 248 251 252 252 250 231 172 145 139 137 141 141 139 139 137 139 138 138 140 141 141 140 142
  95  93  93  93  94  95  96  96  96  97  96 117 137 129 148 156 160 173 201 217 205 188 177 166 150 146 142 140 136 132 128 128 125 125 126 127 131 137 140 140 142 143 146 148 153 152 153 154 156 152 151 152 154 157 157 155 156 155 158 160 160 156 157 161 164 171 176 183 198 229 249 251 252 252 233 180 146 139 134 135 139 138 137 135 137 136 137 139 138 137 139 140
  92  93  93  94  95  94  95  95  95  95 100 117 143 129 157 156 172 188 198 205 199 186 177 163 147 144 140 135 132 129 128 125 124 126 128 129 130 134 139 142 140 138 142 150 151 153 153 150 150 149 150 153 153 157 159 154 154 153 155 152 154 156 156 157 156 161 168 173 183 206 235 248 252 252 247 197 194 170 143 149 149 158 140 133 135 133 136 135 137 136 138 139
  91  92  94  93  94  95  94  94  94  95  98 120 136 132 149 153 179 193 194 198 187 173 169 158 146 140 131 131 127 123 124 125 124 124 128 130 132 133 134 138 138 144 148 151 150 154 154 151 151 151 153 154 156 158 158 156 156 155 154 152 152 153 151 151 153 157 164 167 176 192 212 236 251 252 249 181 166 160 143 135 137 134 133 132 134 132 134 133 133 133 136 136
  92  94  94  94  96  97  93  94  93  96 102 121 121 135 149 157 184 196 189 189 180 172 166 157 147 138 131 130 127 123 123 123 124 124 130 130 129 133 134 141 143 145 147 150 150 152 155 154 153 153 152 152 154 154 155 157 155 157 156 155 154 154 156 156 154 156 162 168 172 182 200 227 251 252 251 202 155 141 136 131 130 131 131 130 131 130 131 132 132 132 133 134
  91  91  92  91  95  92  94  91  93  96 110 118 114 134 148 164 184 189 185 179 171 164 160 152 143 135 129 128 129 128 127 130 132 135 134 135 137 139 139 145 146 146 148 148 151 151 152 152 150 151 154 155 154 156 159 158 160 161 160 160 160 156 155 156 160 157 155 161 164 174 186 212 243 251 249 201 163 137 130 129 130 130 129 128 127 129 129 130 132 132 132 132
  91  92  92  92  92  92  92  92  93  96 118 109 109 125 144 168 180 182 180 173 166 160 155 149 142 135 131 128 129 129 129 130 133 137 136 139 140 140 139 145 148 147 149 151 153 155 154 153 158 161 160 161 158 161 162 163 164 163 163 163 160 159 156 157 159 160 156 159 161 166 178 202 233 251 249 204 158 139 129 129 129 130 128 127 126 127 128 129 130 131 130 130
  89  89  89  90  90  92  92  92  94  98 118 105 118 129 150 170 178 177 173 168 159 154 151 147 141 136 132 129 131 131 132 131 135 137 138 140 142 141 141 146 146 148 150 152 158 160 159 156 156 158 160 161 160 162 162 161 164 164 164 163 161 161 159 160 161 160 158 158 160 163 170 193 221 247 244 208 158 133 127 128 126 126 126 126 126 127 126 128 128 131 130 128
  88  88  89  90  89  90  92  92  95 102 120 103 122 142 153 167 169 170 168 163 151 150 149 150 144 133 127 128 129 134 135 136 135 137 138 142 145 143 144 147 147 148 149 153 156 158 156 157 154 151 149 156 159 162 163 163 164 166 167 164 162 162 162 161 160 159 160 159 159 163 170 187 213 239 240 209 155 129 127 127 125 123 124 124 126 126 127 126 126 127 127 126
  87  88  89  90  89  89  92  91  95  97 106  97 111 133 147 160 163 165 162 158 152 150 148 147 141 132 127 127 129 132 133 135 137 138 137 142 144 147 146 148 146 150 151 149 153 157 155 157 154 152 151 154 159 162 164 164 167 169 167 165 165 163 160 159 158 161 159 161 161 162 170 186 204 228 236 206 151 131 130 130 128 122 123 124 123 124 124 124 125 125 126 126
  87  87  89  91  90  90  91  90  90  97 101  92 108 125 142 153 154 160 161 158 154 149 146 146 138 131 127 126 128 133 133 133 136 140 139 142 143 143 146 147 146 147 150 152 155 156 153 154 155 155 154 157 160 160 163 165 167 169 166 166 163 162 162 160 158 160 159 160 161 164 173 185 200 222 234 208 162 165 158 140 131 123 119 121 122 122 123 124 122 122 123 125
  86  87  89  90  91  87  89  89  90  96 101  95 108 121 140 153 151 150 155 155 152 147 146 148 142 134 128 125 125 130 131 132 134 136 136 140 141 140 142 142 144 144 146 147 149 153 154 154 154 154 154 155 155 159 163 166 166 166 164 161 160 161 160 158 160 161 160 160 160 164 170 186 201 219 224 207 192 150 149 157 125 119 119 118 120 122 119 119 120 120 123 121
  87  86  87  88  89  89  87  88  89  90  98  95 110 125 138 148 145 147 150 150 149 149 147 147 140 132 127 125 126 129 131 132 131 131 132 135 135 136 138 137 138 136 142 145 146 148 149 150 149 148 148 152 152 155 158 158 161 160 160 159 160 157 158 157 158 159 159 159 162 165 174 187 201 213 220 202 156 125 121 126 129 118 120 118 119 120 119 118 120 120 119 120
  86  88  86  87  88  88  88  88  89  89  94  91  97 118 130 134 142 141 144 148 149 146 148 147 141 136 129 128 130 132 133 135 133 132 128 131 132 131 132 133 131 131 136 140 141 142 143 145 143 143 143 147 149 150 152 152 153 156 156 154 154 154 157 157 159 159 160 162 163 174 182 188 199 210 218 194 146 121 119 119 122 119 118 117 118 118 118 118 119 119 118 118
  87  88  87  88  87  87  87  87  89  89  94  86  93 116 129 134 143 140 143 148 149 146 148 146 142 136 135 134 135 134 134 136 135 134 131 128 126 126 125 124 125 128 127 130 137 139 138 140 143 142 142 142 141 142 144 142 144 146 147 148 150 153 156 159 160 161 165 171 175 186 194 198 202 207 217 188 142 123 117 118 118 119 117 117 117 117 118 118 118 117 117 118
  87  85  87  88  87  88  89  89  89  89  92  86  91 109 122 141 140 140 143 148 150 148 148 149 147 143 139 135 131 129 126 127 126 128 126 121 117 113 108 112 119 118 120 125 132 132 132 135 138 139 136 136 136 136 135 131 134 138 142 147 150 156 157 159 159 161 169 180 193 206 213 218 212 210 213 179 132 120 117 117 117 117 116 116 117 116 117 117 118 118 117 116
  87  86  87  87  88  88  89  89  89  87  90  84  90 105 124 148 145 141 142 148 150 150 154 155 152 142 133 128 122 119 115 109 107 102 100 101 100  98  96  99 106 106 111 118 124 126 128 128 132 133 130 130 129 129 127 121 123 128 133 141 145 150 149 155 155 160 167 178 191 213 226 231 223 216 211 175 129 119 117 116 116 116 116 116 115 116 117 118 117 117 116 115
  88  85  86  87  87  88  89  90  88  89  88  88  92 111 132 146 140 141 144 150 155 157 159 160 150 133 118 111 104  93  88  87  87  82  84  86  87  87  86  90  94  94 102 107 114 119 123 125 126 126 126 124 123 122 119 117 116 117 123 127 135 139 137 134 136 137 144 155 176 199 221 243 238 224 214 156 125 116 115 116 116 117 116 113 115 115 116 116 117 116 115 115
  88  86  87  86  87  87  87  90  89  90  87  87  93 104 129 143 143 145 146 154 156 159 164 151 129 111  96  86  82  78  76  73  73  73  74  76  83  85  81  84  89  91  90 102 105 109 115 119 122 123 124 117 116 112 113 109 109 107 109 111 113 116 120 124 127 125 122 131 151 174 207 240 248 232 220 148 121 114 115 114 115 116 115 114 116 114 115 116 116 113 115 115
  86  86  88  86  88  87  87  90  90  89  84  77  79 100 128 144 142 146 149 152 156 164 154 120  97  87  86  83  79  79  78  75  73  75  74  75  78  82  80  80  83  86  85  91  97 104 110 114 117 121 120 114 110 107 106 104 104 100  97  97  96  96 100 101 105 102 102 108 118 131 148 191 237 238 225 140 120 115 114 114 115 117 115 114 114 114 113 114 115 115 115 114
  88  87  86  87  88  88  88  89  89  90  87  76  73  89 123 144 145 146 149 150 156 148 129 106  91  86  89  89  86  85  84  85  84  83  85  85  82  82  84  81  80  83  85  88  92  99 104 109 117 117 117 110 107 100  99  97  94  93  89  87  87  87  86  88  92  94  97 102 105 110 121 144 185 235 220 138 121 118 118 120 120 118 118 117 120 118 118 120 120 120 119 118
  87  87  87  89  89  89  90  89  89  89  89  79  70  84 118 144 149 146 150 152 150 134 111 100 100  98  97  93  90  87  87  87  86  84  86  86  84  86  86  86  86  86  86  90  91  97  98 105 112 114 114 108 102  98  94  96  91  88  88  86  88  90  93  98 101 101 100 102 107 108 109 119 169 231 213 138 124 123 123 122 122 119 121 120 123 119 120 122 120 120 118 118
  88  89  89  89  90  91  90  90  93  93  91  84  71  84 113 150 151 147 149 149 133 112 103 102 102  99  95  92  93  88  87  86  85  84  84  85  83  82  82  84  86  88  89  90  90  93  95 102 110 118 115 106 101  94  96  95  91  91  92  94  94  95 100 101 101  99 100 101 106 107 109 115 146 229 211 136 124 124 123 122 120 120 119 119 121 122 120 121 121 121 119 119
  95  95  95  95  96  99  99 102 101 100 100  93  80  87 114 146 148 145 146 136 124 110 105 102  99  97  93  90  91  87  86  82  80  79  75  74  74  74  76  79  81  83  85  89  92  95  97 102 108 114 115 112 103  99  95  94  93  91  90  89  88  88  90  93  94  98 100 103 108 107 110 114 132 228 213 137 127 127 122 120 119 120 119 118 118 119 118 119 119 118 119 118
  99 100  98  99 100 102 103 105 107 104 102  98  87  90 116 152 148 143 142 131 120 109 105  98  92  93  90  84  79  78  75  76  73  69  67  66  63  60  64  70  72  75  78  84  91  92  94 101 108 115 117 114 102  97  91  87  87  85  79  77  77  79  80  81  84  89  92  96 103 104 106 110 132 225 222 188 205 161 128 119 118 118 118 118 119 118 118 118 117 118 117 117
  96  99  98 100  98 102 134 131 118 101  96 100 103  86 112 149 149 147 139 127 121 110 100  93  87  84  80  82  86  87  84  78  74  68  66  62  62  62  60  60  65  69  74  81  87  92  97 103 112 119 123 116 104  93  85  80  76  73  73  74  76  78  78  82  87  96 103  99  97 103 105 111 137 228 237 237 243 240 141 122 118 117 117 118 117 117 116 117 118 116 117 116
  97  98  99 101 100 122 130 104 102  94  95  97 104  96 116 149 151 145 138 127 117 106  96  89  83  82  85  88  87  83  75  70  61  52  49  50  52  59  59  60  61  63  67  76  82  92 103 108 119 126 129 124 107  88  78  72  72  75  79  79  79  73  67  71  77  90 101 102 102  97 103 110 139 215 231 164 162 207 171 122 118 119 118 117 116 116 117 116 116 115 116 118
  99 100 101  99 101 113  91  78  75  81  89  95 100 107 127 153 148 144 135 124 113 104  91  87  83  83  84  81  82  77  71  61  49  43  40  44  50  58  54  54  59  65  66  72  80  90 105 115 128 136 137 133 112  82  72  75  73  74  77  83  81  70  60  53  56  67  78  92  94  93 100 107 139 214 217 142 130 148 154 120 118 118 116 116 117 116 116 116 116 116 114 116
  98 100  98 100 104  98  74  64  66  69  81  90  97  99 126 153 151 145 133 123 115 101  90  83  82  80  81  74  72  78  88  70  52  43  42  46  49  61  52  52  53  63  68  69  81  94 111 124 133 142 147 144 123  82  75  65  63  68  77  87  85  71  56  54  56  64  81  83  91  94  98 108 143 210 201 129 122 128 125 117 115 116 115 115 115 115 115 116 115 115 116 114
 100  99 100 100 104  90  70  63  64  69  79  78  89  93 121 156 151 143 134 120 115 103  92  85  86  95  98  83  75  82  93  85  56  50  50  49  54  57  55  54  61  65  69  74  86 101 118 131 137 147 153 149 134  86  75  71  68  68  69  80  89  74  65  66  65  67  80  83  93 106 112 115 143 211 201 121 114 129 118 115 116 114 115 116 116 113 114 114 116 114 113 115
  97  95  99  99 104  86  66  62  63  70  82  83  87  89 106 154 149 143 133 118 112 105  99  98 104 112 115  96  85  79  75  76  67  53  51  56  59  59  59  58  62  66  72  84  93 108 123 137 141 151 156 156 143  98  74  72  71  72  72  73  77  75  69  67  70  83  88  97 102 110 124 129 149 199 197 115 109 126 117 115 114 113 114 115 113 113 113 114 112 113 113 114
  98  98  98 100 101  95  66  60  63  80  97  99  82  74  95 147 143 142 136 124 117 110 106 110 114 121 118 106  92  83  72  72  68  67  64  64  64  60  60  58  59  68  84  98 105 119 131 140 143 152 160 158 146 119  82  73  72  72  73  75  77  78  76  79  82  90  93 100 110 116 126 139 156 195 192 115 110 128 113 114 114 114 115 114 113 114 113 112 112 112 112 112
  96  98  99 100 102 101  76  59  64  93  97  84  66  60  78 136 142 144 137 128 124 119 116 117 118 120 114 105  97  92  83  81  76  72  72  69  63  60  61  63  67  80  92 106 117 124 134 142 143 150 163 160 146 136  99  78  74  72  75  80  83  84  86  88  91  97  99 108 118 126 134 144 159 191 180 119 124 120 114 114 112 114 112 112 115 112 112 113 112 111 110 111
  96  98 100 101 101 102  92  69  70  96  90  78  64  59  77 128 140 144 137 131 128 125 123 119 116 115 110 101  98  93  87  84  82  75  71  66  66  66  67  71  82  90  98 110 119 127 132 142 142 149 156 154 147 140 125  92  79  74  76  77  83  86  91  95  99  98 101 116 129 138 145 152 164 192 165 126 129 116 112 110 113 112 112 111 111 110 112 111 112 110 110 111
  97  98  99  99 100 101 102  80  71  94  84  72  61  62  88 125 139 144 138 133 130 128 123 120 115 112 108 104 100  94  90  87  83  77  72  69  69  69  75  84  91  98 104 110 120 126 130 138 142 151 154 147 140 138 133 110  94  86  82  79  82  86  90  94  96 100 111 125 139 144 148 154 167 202 148 131 130 113 110 111 111 111 111 111 111 111 112 111 111 110 109 111
  98 100  98 100  99 101 102  96  76  92  81  65  58  62  86 119 140 146 141 134 132 132 124 115 112 108 105 105 101  97  93  88  85  81  77  72  74  79  86  90  95 102 106 109 117 124 130 134 145 152 156 142 136 133 131 121 110 100  92  82  83  86  89  94  98 108 119 135 141 144 146 152 164 205 135 137 123 111 111 111 111 111 111 110 109 109 111 109 110 110 109 108
  98  98  98  98  99 102 101 105  85  87  82  61  55  57  71 111 137 145 139 130 129 126 117 110 105 103 101 101  99  97  93  88  85  82  80  82  84  87  92  95  99 100 106 110 118 124 130 136 139 153 154 144 136 131 128 125 119 112 105  93  88  87  91  96 103 116 123 132 140 142 142 147 161 204 136 135 104 111 112 110 109 110 110 110 110 108 110 109 110 110 110 110
  98  99 100  99  98 102 103 103  97  89  93  72  59  52  62  85 134 143 138 129 127 123 112 105 103 103  99  94  93  92  90  88  85  85  86  89  92  93  97  98  99 102 105 111 121 128 133 138 148 156 152 146 140 132 127 124 121 118 114 106  99  95  95 101 108 121 129 131 134 136 138 140 162 196 135 137 108 109 110 110 109 107 109 109 110 109 109 109 111 109 110 108
  98  99  97 100  99 100 101 102 102  96  91  92  91  93  93  82 131 140 138 128 122 113 105 106 104 100  97  94  95  91  90  87  88  91  94  94  96  99  98  98 101 103 108 114 122 130 135 140 144 151 155 149 143 134 128 124 121 120 117 115 112 108 104 108 114 120 125 126 127 125 128 135 170 178 139 120 121 113 108 109 108 108 110 108 109 109 110 109 109 108 110 108
  97  96  98  99  99 100  99 100 101 104  93  83  90 106 109  90 124 140 136 126 120 109 101 100  96  96  95  95  94  90  91  91  91  93  98  96  98  98  97  97  98 100 109 119 129 134 138 140 145 158 160 150 142 135 128 120 116 120 121 121 118 115 114 114 114 118 121 121 120 119 123 132 184 169 144 106 108 105 109 109 108 108 108 108 108 107 108 108 107 106 109 107
  97  98  98  98  98  98  99  99 100 103 106 100 111 120 110 102 119 136 135 124 118 108  99  96  95  96  92  92  93  90  92  92  94  96  98  99  98  97  95  95  94  99 116 131 138 138 141 143 152 163 160 152 144 137 130 113 110 114 120 123 125 123 119 119 121 118 118 116 117 116 118 126 189 179 143 126 112 100 107 108 107 106 107 106 107 107 108 108 107 106 108 107
  95  98 101  99  96  97  98 100  99 100 106 120 128 114 106 100 112 136 132 123 117 108  99  93  92  91  92  93  93  92  94  93  94  97  99  99  98  95  92  90  92 107 136 152 151 144 142 146 150 157 166 156 149 141 134 111 108 112 117 124 127 127 123 124 124 123 119 118 116 117 118 127 198 159 106 107 107 104 107 107 107 107 108 106 107 106 106 106 106 106 105 106
  96  95  99  96  96  98  98 101  99  99 100 106 112 102 103 100 102 132 133 123 115 109 101  94  92  93  92  94  95  92  94  93  96  98  98 100  99  95  90  88  91 126 156 167 162 152 148 142 142 146 153 155 147 142 133 118 104 109 119 124 126 126 124 125 123 121 117 118 118 116 116 140 179 119  86  83  81  93 104 105 104 104 104 105 106 105 105 103 104 105 104 103
  96  96  97  95  95  98  97  96  98  98  97  99 104 100 100  97  92 123 132 125 117 107 103  94  94  94  93  93  94  94  95  97  99  98  99  98  98  92  84  84  98 142 162 167 159 150 142 136 133 134 139 140 142 139 136 129 102 106 116 121 125 125 126 125 122 121 120 121 118 115 115 155 147  98  89  79  68  82 103 106 104 104 104 104 106 104 105 104 104 104 104 103
  95  95  96  97  95  94  96  96  97  96  96  97  72  80  97  93  89 106 128 128 118 111 104  96  94  92  92  95  96  97  97 100  98 100 100  98  92  88  83  82 101 132 141 146 138 133 129 126 124 123 130 135 138 140 135 131 111 106 112 118 122 122 125 124 124 123 121 119 116 114 115 163 110  97 100  81  62  90 106 105 103 103 104 103 102 102 101 105 104 105 102 104
  96  96  96  96  95  96  96  96  96  94  85  48  30  34  73  88  87  91 123 123 119 108 102  98  93  91  92  93  94  98  96 101 101 101 100  98  91  88  84  79  98 116 117 122 122 118 118 117 117 118 122 127 131 135 132 129 119 107 110 116 122 124 124 124 124 122 120 120 119 116 123 143  87  78  88  89  64 222 148 110 105 102 102 103 102 102 102 102 102 102 102 101
  95  96  96  95  95  96  95  95  95  92  42  30  27  28  30  53  61  57 110 121 120 107 101  98  94  92  93  95  96  99 102 101 103 103 100 101  97  89  85  83  92 109 108 106 108 104 106 108 109 106 111 117 120 126 123 118 121 115 111 114 121 122 124 123 121 122 119 122 121 119 136 110  68  68  77  81  81 197 229 120 106 102 102 102 101 103 101 102 101 101 103 101
  93  94  95  94  94  94  96  95  89  55  32  25  24  24  25  26  27  27  88 119 120 109 103  98  95  95  96  98  98 100 104 103 105 107 104 103  97  92  89  84  84  94  93  93 101  98  95  95  97  97 100 105 110 114 111 113 124 127 121 118 123 121 124 125 123 122 120 119 119 124 144  80  62  69  74  88 111 235 234 123 104 102 102  99 101 102 102 103 102 101  98  99
  93  94  93  93  94  94  94  90  44  34  25  23  24  23  23  23  24  27  72 119 120 110 105 103  98  99 101 102 102 103 106 107 109 110 106 103 101  97  93  86  85  82  78  68  82  93  90  90  88  88  91  95  97  97 110 134 138 134 132 125 125 124 126 130 125 123 121 118 120 128 143  78  62  69  71  84  95 172 161  93  84  84  86  91  90  96 101 104 121 101  97  97
  94  94  92  94  93  93  95  81  36  30  24  23  23  23  26  30  28  27  53 119 119 114 105 103 102 100 100 105 106 107 107 110 112 111 107 103 105 100  96  89  87  85  81  72  70  81  87  86  86  86  86  86  85  76 111 137 142 140 135 132 129 131 127 128 125 124 123 115 120 131 113  58  48  47  47  48  52  60  65  56  50  48  49  51  48  49  49  51  49  50  89  96
  91  94  93  92  92  92  92  78  44  27  25  25  26  36  44  45  40  29  31 112 121 116 110 105 103 103 105 106 111 113 113 117 115 109 106 108 108 103  95  88  85  84  82  80  77  74  79  83  85  84  81  75  65  69 104 135 142 141 139 135 131 133 132 132 128 126 122 116 121 133  95  55  51  49  48  47  49  49  51  49  46  46  46  46  46  45  45  45  45  43  84  97
  90  92  93  93  92  92  92  89  64  34  38  37  46  53  56  54  45  28  29  97 121 119 111 108 107 107 112 113 117 119 120 119 116 110 108 111 111 102  94  86  79  76  72  69  69  72  75  74  75  74  71  64  61  66  97 125 133 136 135 132 134 134 135 134 129 126 124 121 122 135  78  54  50  48  46  46  48  48  48  48  46  46  46  45  45  45  42  42  44  42  81  97
  90  91  91  92  90  91  92  94  89  55  59  61  59  59  58  52  47  35  29  71 120 120 115 110 109 112 116 114 120 125 124 119 112 109 112 112 105  94  86  81  72  70  62  60  62  68  72  73  73  70  67  61  58  66  83 101 114 123 124 124 127 130 133 132 130 126 123 120 123 129  66  51  47  48  46  46  47  47  46  46  45  45  44  44  45  44  41  42  42  39  78  94
  89  88  89  89  89  91  91  93  88  69  60  65  63  61  47  42  45  41  33  55 120 121 118 112 114 117 119 120 126 126 124 117 109 103 106 106  97  88  76  70  68  61  56  55  59  63  65  67  71  67  62  59  62  68  80  89 104 108 104 106 113 121 129 133 133 125 121 120 128 119  59  49  47  47  47  46  46  45  45  45  43  44  45  44  42  40  43  42  41  38  76  93
  87  89  89  89  89  90  89  89  90  72  43  49  55  40  40  39  45  42  36  51 108 122 119 117 119 121 123 125 126 126 123 118 108  91  88  85  82  72  68  64  64  57  58  52  56  60  62  62  67  65  59  59  63  67  70  78  89  97  92  84  88 104 122 132 135 128 123 127 135  89  53  47  46  45  46  45  45  45  46  44  43  43  44  42  43  40  42  40  41  39  77  95
  88  88  89  89  89  87  87  88  87  79  51  47  52  44  46  48  50  42  35  62 107 123 117 115 118 120 122 125 127 123 119 113  96  83  80  73  72  66  66  61  57  58  52  52  56  60  62  62  63  58  62  65  68  66  67  72  77  85  80  71  66  78 102 126 132 128 128 130 133  71  49  45  46  45  46  46  45  45  46  42  43  41  43  41  42  40  40  40  39  36  73  92
  87  89  89  89  86  88  89  87  86  82  64  62  60  54  62  56  48  39  37  76 106 127 120 115 119 122 124 124 125 126 118 106  85  77  67  69  65  67  62  60  51  52  52  57  60  59  58  61  59  55  60  71  73  70  68  68  66  70  69  65  60  64  85 119 128 128 124 132 133  64  47  45  44  44  44  45  44  43  43  42  42  40  43  41  41  39  40  39  39  38  71  90
  90  88  87  84  80  82  82  78  78  76  72  73  70  70  69  63  43  33  38  58  99 128 123 112 117 119 122 124 124 125 113  94  82  71  63  65  61  62  62  61  52  52  55  60  62  63  58  56  53  54  60  71  77  73  73  71  68  71  72  69  62  72  86 112 129 128 117 129 107  61  47  44  44  43  44  45  44  43  42  42  43  43  43  40  41  39  40  39  39  37  68  88
  67  66  64  60  61  57  59  57  57  57  56  56  56  56  58  55  32  28  39  49  80 126 130 115 115 120 124 123 122 126 116  94  81  68  66  64  66  70  70  71  64  61  63  67  70  68  64  55  55  60  67  69  78  76  80  77  74  75  75  78  76  85  98 118 133 132 116 127 137  86  49  44  44  44  42  43  43  42  44  41  41  42  40  40  40  39  39  39  40  37  68  90
  56  56  53  54  54  52  54  52  52  53  53  53  51  53  56  52  27  32  40  48  58 122 124 112 110 118 126 122 122 124 111  95  84  81  76  74  69  70  72  75  71  70  70  68  71  71  71  68  69  70  73  73  71  70  66  61  56  57  66  72  76  84  96 111 131 130 120 124  95 118  98  50  45  44  44  43  44  44  42  41  42  39  40  40  39  39  39  39  38  37  64  88
  44  45  47  50  51  51  50  50  50  49  50  51  50  51  54  49  30  38  44  42  33 122 120 107 108 112 119 122 121 118 106  93  84  78  70  60  49  44  46  48  47  50  54  55  59  62  64  66  66  64  60  59  52  50  50  55  59  68  70  71  75  81  92 105 122 123 117 113  88  85 115 117  51  47  43  42  43  41  42  41  41  40  41  40  39  39  39  39  38  38  62  88
  44  47  51  51  51  51  51  49  48  48  49  49  50  52  54  52  38  44  40  30  24 113 115 106 110 107 111 118 119 115 101  86  78  72  67  62  62  60  53  51  55  58  55  52  45  46  48  48  48  46  48  52  56  63  67  73  78  80  77  79  81  85  94 105 114 111 118 100  71  69  89 124  97  49  46  44  45  44  43  40  40  39  40  40  39  38  38  38  38  36  61  87
  45  48  52  55  53  56  55  50  48  49  51  51  52  54  56  55  41  36  25  22  22 105 108 103 115 101 106 116 115 112  97  82  75  76  73  74  78  78  77  71  70  70  69  67  59  56  55  53  54  55  61  66  71  76  83  93  92  89  85  89  88  90  87 104 106 110 113 104  72  55  68 103 149  71  52  53  52  48  47  44  41  42  41  40  38  38  39  39  37  37  62  87
  52  55  56  57  54  56  56  54  51  50  52  53  53  54  59  52  26  21  20  22  33 122 104  93 107 102 109 111 113 108  94  83  78  77  79  83  84  84  85  84  80  74  73  70  68  65  63  64  63  64  70  76  81  86  93  98  99 100  97 101  93  88  85 100 102 101  97  79  59  48  57  69 166 199 179 157 159 145 114  56  47  43  42  39  40  39  39  39  37  36  60  87
  53  54  56  56  56  58  56  55  54  55  54  56  57  60  61  55  21  22  21  24  93 128 107  83  94 102  96 102 107 100  90  84  77  76  80  82  83  86  86  85  87  85  81  76  74  71  71  74  74  73  80  84  89  89  92  98 106 109 107 108  94  83  81  91  92  87  81  75  54  46  49  62  85 197 235 247 239 233 179 189 140  68  48  44  41  41  40  38  38  38  59  87
  52  56  55  56  55  58  56  55  59  62  61  60  63  65  68  58  24  21  22  88 128  98 112  81  77  87  87  91  98 100  86  80  74  73  77  83  84  86  86  88  88  86  85  83  82  80  78  79  80  80  82  85  90  90  95 102 107 112 108  99  85  73  75  78  79  78  78  78  64  49  45  53  67 190 233 251 230 242 194 192 156 224 141  83  47  43  42  41  38  38  58  87
  52  54  55  54  56  58  62  59  66  68  72  72  73  74  74  62  25  23  66 154  78  88 119  79  69  71  82  80  94 100  82  71  68  69  72  78  84  87  88  86  88  88  83  82  80  75  70  75  70  71  72  79  86  91  96 103 109 107 105  94  77  67  62  65  68  70  79  66  51  41  40  47  65 128 226 237 231 236 244 152 122 120 199 218 176  95  49  46  42  38  49  86
  51  53  53  54  53  54  58  65  79  84  84  83  82  84  83  66  27  25 110 111  69  76 124  88  68  61  73  83  91  90  81  70  65  62  64  70  79  84  86  86  84  86  78  75  73  64  59  61  55  58  63  72  79  89  94 100 105  99  91  80  66  61  55  57  58  63  95  63  51  48  40  40  50  88 195 235 220 239 239 160 166 124 153 134 195 199 209  95  46  41  43  73
  48  53  52  54  54  56  57  58  94  94  93  91  90  89  90  78  48  98 155  96  52  62 122 100  66  55  61  78  83  88  75  64  56  56  58  63  71  80  84  83  81  80  76  71  65  57  50  52  50  52  58  67  76  83  92  96  99  89  78  70  63  53  50  54  54  55 120  71  52  51  45  42  41  63 212 214 225 194 207 225 132 112  90 129 145 192 185 225 162  56  52  66
  51  53  53  55  55  55  54  56 100 103 101  98  95  98  99 150 121 174 106  87  42  53 122 108  65  55  51  60  72  81  72  60  55  55  57  58  62  72  74  76  74  73  71  68  60  54  50  49  48  51  57  66  79  86  95 103 100  85  68  61  55  49  46  50  52  70 134  89  54  48  47  44  44  53 118 208 214 211 233 225 136 160 107 137  84 112 100 182 185 230 131 133
  54  54  54  54  54  55  55  63 101 102 103 106 111 158 164 152  78 103 131  65  39  36 118 120  79  57  49  53  70  70  70  58  52  52  51  54  56  64  67  72  74  73  72  69  62  57  52  48  49  56  62  69  86 100 107 102 101  81  65  56  50  46  44  50  56  85 143 103  63  48  46  45  44  53 119 225 217 228 215 201 203 157 100 112 106 133 175 177 204 213 208 243
  71  55  55  55  56  56  57  76  98 103 134 137 186 112  79  70  95 108 124  56  36  31 112 122 102  67  51  55  59  61  59  53  48  47  50  50  51  50  61  67  70  75  72  70  67  64  57  53  62  72  73  78  93 103 109 103  96  75  60  51  47  44  41  45  65 110 138 105  77  53  48  46  44  49  68 195 212 205 232 212 211 125 171 125 144 102 161 133 198 196 241 214
 126  76  59  56  58  58  60  89 142 164 201 102 111  82  74  80  90  97 111  50  34  34 101 124 105  82  62  47  50  54  60  53  50  49  48  47  48  48  54  61  64  72  73  73  76  74  66  67  76  91  84  90  94 102 103  90  85  67  54  48  42  38  41  49  66 116 135 107  88  57  50  45  48  50  88 198 194 204 211 221 196 174 170  95 117  99 122 166 187 203 230 200
  72  66  58  59  64 118 150 211 210 157 181 126 116 103 102  94  94 138  97  41  31  33  93 124 112  98  75  52  50  47  49  49  48  50  46  45  44  44  51  58  62  68  71  78  79  76  72  75  83  96  95  91  95 103  93  85  78  63  50  47  42  39  39  51  74 111 130 107  95  65  50  47  46  47  76 141 200 139 193 235 193 177 138 152 142 146 116 203 162 217 195 231
 120  61  77 108 174 205 184 179 192 127 131  81  77 129 136 134 103 106  75  37  31  30  83 120 114 104  93  67  49  39  42  39  45  48  44  44  42  47  52  55  58  62  71  79  78  75  71  79  87  94  92  86  88  96  96  82  73  58  45  43  40  36  41  58  92 114 122 104 100  73  52  47  47  48 106 156 202 192 169 189 215 221 159 177  93 113 108 130 154 200 194 242
 136 155 167 157 177 213 173 158 126  75 117 157 142 197 123 134 100  95  67  38  29  27  75 122 117 106  95  75  52  38  34  34  43  41  39  40  42  45  48  50  56  62  69  76  76  70  71  76  82  86  81  80  85  86  94  77  62  51  43  37  40  37  43  61 107 119 116 104 101  77  53  47  48  48  81 105 207 165 179 198 230 209 168 146 113 119 148 124 204 172 175 191
 182 193 203 192 167 198 154 169 196 109 127 159 124 172 148 126 109  71  55  38  28  26  66 122 118 108  96  80  57  39  35  34  37  34  36  37  40  43  46  47  53  62  69  72  70  65  64  68  80  78  75  76  76  79  81  72  57  44  40  36  38  38  46  85 115 117 111 105  98  83  56  47  47  50  93 171 195 215 181 159 203 166 183 153 132 107 133  99 139 118 195 169
 191 188 191 213 136 168 119 153 142 110 143 169 131 110 166 106  60  62  48  34  27  26  50 119 116 110 100  90  64  47  34  35  35  34  35  36  38  41  43  46  51  58  63  68  60  55  61  71  78  77  73  68  69  74  63  55  47  42  41  36  35  43  67 106 111 113 109 104 100  87  60  49  46  49  63 117 190 182 191 211 183 194 182  97 131  91 106 111 145 142 139  96
 206 171 132 180 110 156 114 144 201 164 177 134 137 135 113 148  50  58  43  32  24  26  54 104 116 109 103  94  77  59  40  35  32  30  34  36  35  40  42  45  47  53  55  54  53  50  60  68  68  71  67  63  61  58  52  49  43  37  36  34  36  47  87 107 110 108 107 103  99  88  61  45  46  46  59 203 188 220 205 182 189 214 161 154 156  74 120 108 165 128 180 102
 212 141 114 149 148 172  89 108 167 107 155 104 124 129  71  85  44  53  41  32  26  25  48  90 112 109 105  97  88  72  50  34  33  29  36  34  34  38  38  41  43  47  48  46  49  48  54  61  59  61  56  50  50  47  47  44  42  36  36  35  46  79  99 104 108 104 103 101  98  89  62  46  45  47  54 102 169 188 192 215 191 183 167  87 118  96 170 133 211 149 142 100
 182 162 181 143 162 131 161 122 163  98  70  66 102  97 108  86  62  49  38  32  26  26  44  75 100 107 102  96  88  87  65  54  37  33  30  31  31  36  33  35  38  39  37  36  44  46  48  52  52  47  43  42  41  38  37  36  36  37  36  41  70  98 101 102 102 101 101  98  98  86  62  47  44  46  55 140 219 207 201 172 180 212 220 115 138 108 180 158 141 147 111  93
 171 157 101 147 150 168 184 137 171 110 116  56 129  71  91  50  56  51  37  32  25  26  42  67  83 101 100  94  89  87  81  70  52  36  32  32  30  32  31  31  31  32  30  30  33  35  38  39  42  35  36  36  35  31  34  34  35  41  54  67  91 100 100  99 100  98  97  99  98  88  64  47  45  45  60  67 154 186 166 202 206 187 190 132 118 159 141 213 118 143  98 102
 131 136 164 138 150 202 129 179 134 111  65  82 112  39 117  72  73  52  44  33  26  26  36  63  76  86  95  91  89  85  84  83  72  59  49  38  31  31  33  31  30  29  28  28  30  32  35  35  40  33  32  33  34  33  34  42  58  65  77  90  89  97  96  96  96  97  96  96  96  87  65  48  45  46  61  75 223 203 206 168 179 208 206 212 107 204 111 164 100 111  81  88
 170 150 125 103 223 119 203 149  95  99  82 112 135  51  93  67  55  50  40  33  26  26  33  54  70  76  87  91  89  87  83  85  81  77  74  66  56  44  37  34  31  30  30  28  31  33  34  36  36  34  32  35  38  43  51  71  75  82  90  91  92  93  92  95  93  97  96  97  98  87  63  48  46  47  65  72 138 181 192 215 215 186 173 205 133 166 163 144 112 101  97 103
  83 131 120 181 124 202 159  99 137  72  85 111  72  61  90  88  56  44  46  32  26  27  32  45  66  69  76  87  89  88  86  86  85  85  84  84  75  71  66  51  50  49  52  49  50  49  45  48  49  46  42  50  54  57  75  82  82  88  90  92  90  90  93  94  94  94  95  98  99  85  64  48  46  47  63  77 149 214 214 178 182 192 221 231 172 139 129  79  85  84  83  71
