P2
# Generated by OpenCV 3.4.0
92 112
255
 109 110 111 111 112 111 110 111 112 113 112 110 113 114 115 114 115 115 114 115 115 116 115 116 118 120 120 118 119 120 123 141 132 139 140 135 143 144 139 139 135 148 155 169 159 154 155 162 145 145 136 137 138 138 140 141 141 144 145 145 147 150 149 151 153 156 156 158 161 163 164 167 169 169 170 174 176 177 180 183 185 188 189 191 192 197 202 204 206 210 213 215
 110 111 110 109 110 110 111 111 113 113 112 112 113 114 114 114 113 114 116 115 115 114 116 116 117 118 121 118 120 122 134 151 149 165 186 167 182 199 176 193 197 196 172 189 199 200 193 195 175 155 143 147 139 141 138 140 141 143 144 145 146 147 149 151 152 154 155 158 158 161 163 166 168 168 170 174 176 176 178 181 184 186 186 190 192 195 199 200 204 206 208 212
 109 110 110 110 111 112 112 111 112 112 112 111 113 114 113 114 115 115 116 114 115 114 114 117 118 118 127 120 122 131 149 150 158 171 180 188 194 220 204 227 232 224 195 219 224 244 194 226 225 220 213 171 145 145 142 141 142 142 143 145 146 147 150 152 155 162 160 156 157 160 163 164 167 167 170 171 172 175 176 179 181 184 185 188 190 192 196 197 200 203 205 208
 110 110 108 109 109 112 111 113 112 112 112 112 111 112 112 113 114 115 114 114 116 115 115 118 118 120 126 136 133 137 151 158 163 177 169 187 204 201 179 193 206 202 219 219 222 235 225 243 234 240 228 220 215 208 156 143 141 142 143 144 147 146 148 151 153 155 155 154 158 161 163 163 164 168 168 171 172 172 175 177 179 179 182 184 186 189 192 194 197 200 201 203
 109 107 109 110 107 110 110 110 110 110 112 112 112 112 110 113 114 115 114 112 114 117 120 122 120 121 132 137 150 149 146 152 159 176 152 181 193 190 182 175 177 197 214 228 205 226 243 226 229 235 246 240 251 251 237 165 145 142 144 145 145 146 147 151 152 151 153 155 156 160 168 180 166 164 167 168 170 172 172 175 175 177 178 180 183 185 188 190 193 194 196 197
 109 108 108 108 108 109 110 110 110 109 110 111 111 112 111 113 113 113 115 114 123 120 122 130 130 124 130 131 132 137 139 132 142 155 140 165 185 194 203 180 179 200 213 224 242 241 239 242 205 194 224 215 218 241 251 216 155 150 153 144 144 144 146 148 149 148 149 151 151 151 153 158 166 153 156 157 156 159 160 161 164 164 165 167 168 172 175 176 178 180 182 184
 107 109 107 107 109 107 109 110 110 110 109 110 110 111 113 113 111 113 116 118 128 127 127 136 139 129 129 126 127 132 133 128 133 156 143 152 163 169 188 161 173 194 192 197 238 210 185 233 191 181 196 206 230 252 251 244 205 146 135 134 138 145 140 132 132 132 134 134 136 134 137 138 145 142 142 145 147 149 151 152 154 155 157 158 160 164 167 169 171 174 176 177
 105 109 108 108 107 108 109 108 109 111 111 110 110 110 110 112 112 114 120 125 137 132 132 140 149 140 130 127 122 126 132 132 131 147 137 142 144 150 168 148 157 180 171 170 200 193 163 198 206 164 171 204 208 240 251 251 238 193 154 144 127 125 137 147 167 152 132 132 147 132 133 133 138 138 136 139 139 142 143 143 146 146 149 151 153 155 156 159 161 162 165 167
 107 107 110 107 108 107 107 106 107 109 109 111 110 110 110 113 115 114 118 122 140 140 129 130 140 139 136 129 124 123 128 129 133 138 136 131 130 134 141 142 148 163 150 155 166 172 164 189 192 164 198 237 237 251 252 252 251 246 224 197 140 120 119 115 116 148 174 129 139 130 124 124 127 128 130 132 133 135 139 140 143 145 147 148 153 154 158 159 164 164 168 169
 107 107 107 108 107 107 108 107 107 108 109 111 108 110 110 115 117 114 113 122 140 144 128 126 132 132 140 130 124 122 124 125 127 130 131 125 125 130 136 134 141 142 142 145 148 147 160 184 189 168 186 183 189 248 252 252 250 252 252 251 209 147 136 129 125 123 136 161 133 161 137 141 142 135 134 135 136 137 140 141 142 142 144 146 150 152 152 155 157 156 160 161
 107 106 106 107 107 107 107 106 107 107 107 109 108 109 111 116 119 113 114 116 136 141 128 127 130 131 133 126 125 125 123 122 126 128 127 123 122 128 134 133 135 134 137 138 147 147 150 160 184 165 161 158 165 226 244 246 244 252 252 252 247 198 185 183 154 131 127 134 132 151 139 124 147 151 132 140 137 131 134 135 137 140 144 145 148 148 153 155 157 158 158 161
 106 107 108 106 107 107 107 107 109 108 107 108 107 108 112 114 115 114 116 114 121 132 128 123 128 133 131 121 124 123 125 123 126 128 122 122 123 126 128 129 133 132 137 147 143 140 147 149 159 159 155 161 200 181 218 232 251 252 252 252 252 252 233 185 194 154 131 127 146 128 151 138 137 143 132 133 136 132 134 135 138 140 143 145 149 158 166 157 153 156 157 159
 106 106 107 105 106 108 107 107 108 107 108 109 107 108 113 115 120 114 120 118 116 128 121 115 128 137 131 125 120 125 127 127 128 124 122 125 128 123 125 127 129 136 149 147 142 144 148 144 150 158 153 153 196 209 213 209 234 251 252 252 252 252 251 228 219 174 138 135 139 140 135 147 164 142 136 136 135 137 137 141 141 144 147 153 157 158 158 160 162 162 163 167
 106 105 105 104 106 104 107 106 107 106 106 107 105 110 113 113 116 127 127 125 117 118 118 114 122 137 129 133 127 123 129 130 128 127 125 127 126 125 131 129 135 138 145 148 149 149 144 144 152 150 156 165 179 205 206 203 190 228 238 251 252 252 252 251 231 211 164 145 143 154 155 150 188 166 149 146 148 150 151 152 155 157 160 161 162 164 167 169 169 170 170 172
 105 105 105 105 105 105 105 105 105 107 108 105 107 111 113 113 112 120 135 128 125 114 115 114 125 132 132 136 130 127 131 130 127 130 130 130 128 128 128 131 134 139 143 150 145 142 138 146 146 157 159 166 172 170 186 187 192 215 233 237 244 251 252 252 251 227 204 189 168 163 168 167 192 210 157 153 151 153 154 155 156 157 157 160 162 164 166 168 168 169 170 170
 104 104 106 104 104 103 105 106 103 104 105 106 106 109 116 111 111 113 119 118 112 114 115 119 134 138 137 134 131 131 134 132 132 135 136 134 133 134 133 131 136 135 139 136 130 138 140 143 152 159 162 165 167 175 183 197 200 211 227 225 233 234 249 252 252 241 242 205 196 194 190 171 173 206 176 153 151 156 154 154 154 155 156 158 161 160 162 163 164 166 168 168
 102 104 103 103 102 103 103 104 103 104 104 107 106 107 111 111 109 115 124 118 123 123 127 133 140 143 142 141 138 137 141 139 138 141 140 141 141 141 137 136 133 136 135 139 148 150 150 155 160 166 168 168 175 177 183 191 197 200 209 211 227 240 251 252 252 250 217 219 193 176 202 189 182 168 179 159 153 153 151 153 152 154 156 157 158 159 159 161 161 164 164 165
 102 101 102 103 102 102 103 104 105 105 104 106 109 113 116 124 118 119 120 118 133 144 151 154 152 147 147 147 146 145 147 147 146 145 146 144 147 144 141 142 141 145 147 155 159 164 164 171 176 177 181 182 182 186 191 200 208 221 237 235 239 250 252 252 252 252 252 240 220 181 197 190 175 164 165 156 153 149 149 149 151 153 155 154 156 157 157 159 159 161 162 163
 101 102 102 100 101 101 103 102 104 103 104 107 114 117 117 125 122 121 127 134 138 156 165 161 155 149 149 149 148 149 149 151 153 149 149 147 148 150 149 151 154 158 160 164 166 172 175 179 179 183 186 192 192 192 196 200 208 225 248 251 252 252 252 252 252 252 252 252 243 219 205 197 189 212 182 174 155 154 148 148 149 151 152 153 154 154 156 157 157 158 158 160
 100 101 100 101 100 102 102 101 102 102 105 108 112 123 118 119 124 123 131 140 147 159 162 159 153 152 152 150 150 151 152 153 154 153 152 151 152 150 151 157 161 163 163 167 171 175 177 179 181 184 189 196 198 196 196 198 205 228 245 252 252 252 252 252 252 252 252 252 252 239 211 200 203 200 211 200 158 168 155 153 149 149 151 152 153 154 154 154 154 157 157 157
 101 100 101  99 100 102 101 103 101 102 105 105 113 130 121 124 130 127 140 148 154 159 156 153 150 146 147 153 153 153 153 156 156 156 155 153 154 152 154 163 166 169 169 169 172 176 177 178 182 186 191 194 199 199 197 197 204 221 244 252 252 252 252 252 252 252 252 252 252 251 231 203 209 202 193 190 189 192 203 168 160 163 151 148 150 151 152 152 154 156 156 155
 100 100 100  99  99 102 101 101 101 102 103 106 120 132 125 124 132 139 150 155 157 156 153 151 147 145 147 148 151 152 153 152 154 156 156 154 155 153 158 163 165 170 170 170 172 173 174 177 177 182 188 192 194 197 193 192 196 209 229 246 252 252 252 252 252 252 252 252 251 250 235 231 207 177 182 173 189 173 148 149 149 169 158 147 148 148 149 151 154 155 153 153
  98 100 100  99  99 100 100  99 101 101 102 109 131 137 126 121 141 150 155 161 161 158 152 150 146 142 145 147 150 150 150 152 150 148 152 152 153 152 154 161 162 162 162 165 168 167 168 170 171 175 183 186 190 190 187 186 189 196 212 234 247 252 252 252 252 252 250 250 240 230 237 248 200 165 173 165 163 161 146 143 148 147 149 147 147 147 148 150 149 152 151 150
  99  98  98  99  98  99 100  98 100 102 102 117 137 143 127 127 154 160 170 177 165 159 153 151 147 143 143 144 144 145 150 150 148 148 150 150 150 151 152 154 155 150 146 157 160 164 165 169 170 170 174 178 179 179 179 178 181 188 197 212 231 247 251 252 252 252 249 234 243 238 247 247 214 178 186 200 171 147 146 144 145 147 146 145 145 146 147 148 147 149 150 150
  98  98  98  98  98  98  99  98  99  99 101 115 138 154 127 145 161 171 178 180 171 161 154 149 144 141 139 138 140 145 147 146 146 148 147 146 148 147 144 146 144 140 139 145 151 158 161 166 169 171 173 175 174 173 171 174 176 179 186 201 213 234 247 251 252 252 252 244 242 251 250 251 239 202 188 185 181 163 156 151 145 148 161 146 147 146 145 147 146 146 147 148
  95  96  94  97  96  98  97  97  96  98 101 114 138 162 137 168 175 179 183 182 169 156 150 144 140 137 138 138 140 144 144 145 145 147 148 145 146 145 142 142 141 140 144 147 153 158 160 162 166 169 170 171 170 168 167 170 171 175 179 193 200 217 226 239 248 251 252 251 252 252 252 252 251 225 194 180 160 146 142 142 142 147 150 145 142 142 144 144 145 145 145 146
  94  97  96  96  95  97  97  97  96  97  99 107 135 157 156 191 188 185 187 183 170 149 144 138 137 134 137 135 135 138 140 139 140 141 141 142 142 144 142 144 145 144 146 148 153 154 157 159 162 163 164 164 164 164 164 167 170 170 172 178 186 193 204 214 224 237 251 252 252 252 250 251 251 226 189 175 154 151 142 141 140 140 148 141 140 140 141 140 141 141 142 144
  95  94  95  93  94  95  95  96  96  97 100 105 137 161 183 219 201 189 182 176 159 142 139 133 131 126 131 132 132 134 139 140 142 143 143 145 145 146 149 147 145 144 146 142 147 149 152 155 154 154 157 159 162 160 160 163 166 169 170 175 181 185 190 196 202 220 247 252 252 251 245 232 240 219 187 183 157 160 152 138 135 137 144 144 140 139 140 140 140 140 140 143
  94  92  95  94  93  95  95  94  96  99  99 103 132 166 198 219 200 185 174 174 154 138 131 129 128 128 132 133 134 135 139 139 143 141 143 144 144 142 144 143 143 146 147 144 145 144 146 150 151 148 151 153 155 152 157 161 163 168 167 169 174 181 187 188 194 206 232 250 251 247 236 219 227 244 199 179 174 156 163 155 146 148 148 152 166 144 138 138 139 138 140 140
  93  93  94  95  94  93  95  95  96  97  99 101 141 173 201 213 200 178 167 161 146 130 122 123 123 126 131 132 132 130 136 140 141 141 140 141 139 139 143 142 145 145 147 146 143 143 144 143 146 148 148 148 148 147 150 153 162 162 162 166 169 172 179 186 190 202 212 241 246 248 227 214 215 248 213 172 168 155 168 169 160 145 142 142 136 136 135 137 137 138 137 137
  93  92  94  92  92  92  93  93  95  94  97 106 157 192 200 203 193 170 159 150 137 126 123 125 124 125 129 131 130 132 134 139 141 143 140 139 140 140 141 143 146 147 149 147 145 146 144 143 144 144 144 144 146 147 147 153 159 162 163 165 164 167 171 177 186 195 207 220 239 229 224 204 203 242 238 198 166 145 147 158 153 143 134 135 133 134 132 133 135 134 134 134
  91  92  93  93  91  91  92  93  94  95  99 119 160 198 193 192 183 161 149 138 132 125 121 124 124 123 122 128 130 135 138 139 138 142 143 141 143 143 142 146 144 144 147 145 144 144 144 146 147 148 145 148 150 150 153 153 156 159 160 162 163 163 167 172 183 189 194 198 207 209 206 199 199 237 251 217 168 148 139 140 146 141 132 132 133 132 131 132 133 132 133 134
  90  90  91  91  92  92  92  92  94  96 100 121 176 197 188 188 178 156 141 136 132 129 129 130 128 130 130 135 135 135 136 138 139 140 141 140 141 142 142 142 146 146 148 150 151 149 151 151 151 149 148 148 147 153 154 150 150 154 155 157 159 158 161 166 173 185 187 190 191 193 194 195 201 209 230 221 180 148 135 132 132 135 130 130 131 130 131 131 132 132 132 131
  89  89  90  90  90  90  92  94  93  94  97 117 175 191 181 178 169 154 140 137 136 139 138 133 134 132 131 137 136 135 136 136 140 139 143 144 146 148 147 146 151 152 155 156 153 154 154 157 156 153 151 151 154 154 157 151 149 152 153 154 156 157 157 162 166 175 182 186 183 185 186 188 197 212 219 206 170 149 139 131 132 130 131 129 127 126 127 130 131 130 130 130
  89  89  89  90  92  91  92  92  93  93  97 115 178 184 175 173 168 152 140 140 139 140 140 137 139 136 134 136 136 139 139 143 146 145 143 147 149 152 149 148 151 153 155 155 156 155 156 157 156 156 155 155 155 156 155 154 152 154 154 153 153 153 154 160 165 166 176 182 179 181 178 174 171 177 207 231 179 151 155 160 140 130 127 126 125 126 126 127 128 129 129 128
  88  91  88  89  89  89  89  90  92  92  95 124 177 175 170 170 164 149 143 142 143 143 139 137 142 140 139 138 135 139 140 143 145 147 147 145 141 142 146 146 149 153 156 155 158 158 159 158 156 158 158 159 158 155 157 155 157 155 153 156 153 153 153 153 158 163 170 177 179 174 171 168 163 154 177 241 216 190 155 139 148 134 126 124 125 124 125 126 126 127 126 127
  88  88  89  89  89  91  89  90  91  94  99 130 174 169 168 166 157 149 144 140 144 142 139 141 142 141 139 138 140 138 139 141 145 145 144 141 140 140 144 147 152 154 156 159 160 162 161 161 160 158 157 155 154 152 155 155 152 155 154 154 152 152 153 154 155 161 164 170 174 171 169 164 153 140 152 236 233 178 146 145 136 141 130 124 121 121 124 126 124 126 124 125
  89  88  89  89  89  90  88  89  90  93  94 129 168 168 168 163 157 149 146 146 147 147 146 145 144 141 140 137 140 140 141 142 141 140 141 143 144 142 145 147 151 154 158 158 161 162 160 160 159 159 161 159 159 154 156 157 154 152 152 153 151 151 151 150 154 158 162 166 168 170 166 163 151 136 138 221 237 170 151 158 160 182 156 127 122 120 123 122 123 123 124 122
  88  88  88  88  88  88  89  91  90  92  95 129 166 167 169 163 160 153 150 150 149 150 146 145 140 136 138 137 139 138 136 139 140 142 143 143 144 144 145 144 150 154 156 157 161 158 158 158 160 158 159 158 158 159 158 153 152 151 150 151 152 152 151 154 153 155 159 163 164 164 164 160 150 135 151 229 207 161 141 134 132 128 158 155 122 119 121 120 120 120 122 120
  88  88  87  88  88  87  89  89  90  92  95 128 162 165 165 165 160 154 155 154 154 149 148 144 135 132 133 134 133 136 133 138 139 140 140 139 140 140 141 143 148 149 150 153 156 154 150 154 157 157 162 162 160 161 158 155 155 154 153 150 150 154 152 155 152 151 155 159 162 162 160 156 146 134 133 189 173 148 139 136 136 124 121 126 128 120 119 118 120 121 120 120
  87  87  87  88  87  88  88  89  90  92  95 129 162 163 164 160 161 157 160 156 153 149 143 137 131 129 129 127 127 130 131 131 134 133 135 132 135 137 139 140 143 143 144 148 148 148 145 148 154 154 159 161 162 161 160 158 157 153 152 153 151 153 153 155 151 150 154 158 160 159 155 152 144 133 126 183 184 140 132 125 131 121 118 117 120 118 118 118 118 118 118 119
  87  86  86  88  88  88  87  88  89  90  95 115 156 159 162 159 162 162 161 156 148 142 136 131 127 127 124 123 125 124 124 128 128 130 131 132 133 133 134 134 134 136 134 137 139 138 140 140 147 152 156 158 160 160 159 161 161 160 155 155 153 151 153 152 151 151 150 153 154 155 150 144 140 139 126 171 177 131 121 119 121 118 117 118 118 120 118 116 117 117 116 116
  86  87  87  87  87  88  87  88  88  91  93 113 156 161 160 160 161 155 146 138 131 128 124 116 113 113 113 115 116 118 119 124 125 125 128 131 128 127 129 128 126 126 121 125 128 133 139 137 143 145 147 151 155 153 159 163 162 165 164 160 156 155 156 154 150 149 149 152 150 150 148 140 128 121 119 156 179 153 122 118 118 117 116 116 117 116 116 115 116 117 116 117
  86  86  86  88  87  89  88  89  90  90  90 101 156 161 161 160 147 136 126 113 103 100 101 101  96  93  97 100 105 109 113 118 119 120 119 122 122 120 122 122 120 116 110 114 120 126 129 130 134 134 134 138 136 142 152 153 157 165 164 161 162 160 159 155 153 152 149 150 148 145 147 141 122 112 121 150 158 150 139 125 120 118 115 115 117 115 116 116 115 116 115 116
  85  86  87  88  87  87  88  91  91  91  92 100 156 161 162 154 133 109  96  90  84  82  84  86  84  83  88  86  92  99 105 110 112 114 117 116 117 115 117 115 111 108 108 107 113 116 117 121 122 121 121 121 125 125 132 137 142 150 156 150 160 167 164 160 158 156 150 148 148 146 143 134 116 108 110 138 168 131 141 128 118 115 113 115 116 116 117 115 116 116 116 116
  88  87  88  87  87  86  88  89  89  89  92  99 149 158 148 123  99  86  77  71  71  70  72  79  80  75  80  80  84  90  96 100 103 107 110 112 111 110 109 107 105 102 101 101 103 103 103 101 101 105 107 108 110 115 118 122 127 133 142 146 155 169 172 166 159 156 153 149 146 147 144 127 114 108 107 132 152 123 120 119 115 114 114 114 116 115 113 113 114 113 114 113
  86  86  87  87  86  86  88  90  90  89  91  97 141 152 120  96  85  79  75  72  68  68  69  72  75  73  72  76  77  83  88  94  98 103 106 108 109 108 103 100 100  96  95  95  90  90  90  86  86  88  89  88  92  95  97 100 108 115 119 118 126 142 157 169 164 161 157 151 148 146 144 126 111 105 103 126 134 130 129 117 116 115 114 113 115 117 116 113 115 113 115 114
  86  86  88  88  87  88  88  89  88  91  91  95 134 136 110  95  95  86  83  84  82  79  77  76  74  74  71  73  77  79  84  89  94  99 103 105 106 101  99  96  91  91  89  89  85  84  84  82  83  80  81  83  87  88  92  95  99 101 105 107 113 118 126 142 160 164 159 154 149 146 142 124 108 100 105 120 133 134 134 122 119 120 118 118 120 119 121 119 119 119 118 119
  87  89  88  89  87  90  89  90  91  92  90  94 132 129 121 117 105  95  90  89  85  82  82  82  79  79  79  79  78  80  84  88  92  94 102 104 104  99  96  91  87  87  88  84  84  84  84  85  83  86  87  92  94  95  97  96  98 102 104 105 105 109 114 131 148 155 156 154 151 150 144 122 105 100 106 127 136 125 126 124 122 121 120 118 120 120 121 121 122 120 119 118
  88  88  88  89  89  90  90  91  90  92  93  96 130 127 131 117 102  93  87  84  79  78  76  80  79  79  79  81  81  82  82  85  89  91  98 104 104  98  94  91  87  87  88  86  86  88  89  90  89  91  92  92  94  94  96  98  98 101 104 106 108 110 114 121 132 143 150 154 152 154 149 123 105 100 104 135 131 124 122 123 119 120 119 121 120 120 119 118 118 118 118 118
  95  95  96  98  97  97  99 100  99 100 102 105 127 131 127 110  92  82  73  67  64  61  58  62  64  66  73  78  81  81  83  85  91  94  99 106 105 100  96  93  89  90  88  86  88  89  85  83  80  79  80  82  83  87  91  95  98 101 104 106 109 111 112 114 117 134 142 152 156 160 156 129 109 102 109 136 125 123 123 123 120 119 118 119 118 120 120 118 117 118 118 118
  99  99  97  99 100 102 101 101 103 103 106 109 129 134 124 102  83  67  62  61  60  60  58  59  60  60  59  64  72  75  79  83  90  98 103 105 106 104  99  92  91  89  87  84  82  77  73  69  66  66  66  70  71  75  75  79  84  93  98  98 101 106 108 110 115 124 136 149 157 162 164 138 114 106 122 139 133 132 140 130 121 118 117 118 116 117 118 116 118 118 117 118
  97  98 100  99 100 101 101 103 105 126 140 124 130 142 120  94  75  67  60  50  48  58  65  64  61  62  61  59  62  67  72  79  93 101 105 107 109 107 100  91  90  88  82  77  69  64  65  61  59  57  61  72  78  75  75  78  81  84  86  93  99 103 104 106 112 119 130 146 157 166 170 149 119 113 136 152 203 240 249 219 142 121 117 118 117 117 117 116 117 117 118 118
  98  98  99 100 100 100 100 103 113 146 133 112 136 146 120  89  69  66  54  44  39  59  78  76  68  66  63  63  62  61  64  70  91 105 108 114 119 113 104  93  89  82  76  68  63  63  59  54  50  47  52  68  85  87  86  85  84  85  85  88  93  96 102 106 110 119 126 142 156 167 175 159 123 126 208 199 177 178 196 213 206 126 118 117 116 116 116 115 115 116 116 117
  97  99  98 100 100  99 100 103 114 102  84  84 122 146 124  94  79  78  64  52  55  74  93  93  86  75  67  62  64  62  64  65  83 105 114 123 124 121 112  98  87  77  70  63  65  54  51  52  47  48  57  71  91  97  95  93  87  84  85  86  88  93  99 103 105 114 126 141 157 169 173 161 127 130 160 152 139 136 136 140 183 151 119 116 115 115 116 116 115 116 115 115
  97  98  98 100 100 102 102 104 109  84  69  73 106 148 133 104  88  95 109  64  74  89 101  99  90  80  65  57  58  56  61  72  84 108 120 129 131 129 123 105  85  74  69  67  58  51  52  52  53  55  61  86 103 106 104  98  91  83  84  85  85  89  93  99 104 112 128 142 157 168 177 172 136 128 135 128 118 113 121 120 129 148 117 114 115 114 115 115 115 114 114 114
  98  97 101 100  98 101 100 104 106  81  69  72 105 152 136 113 106 115 123  92  84  90  88  82  78  71  65  63  60  63  69  80  92 112 126 132 136 139 134 115  87  72  68  68  62  59  59  58  56  61  78  98 104 111 107  94  88  89  89  87  84  85  88  98 105 117 130 140 160 170 177 179 151 124 117 111 108 104 114 118 119 128 116 115 116 115 114 114 115 113 114 114
  97 100  99  98 101 100 103 102 103  81  68  70 108 153 140 131 131 145 122  95  84  80  76  73  70  66  64  63  65  64  71  87  95 116 133 137 142 151 143 126  95  74  67  64  65  63  64  65  66  69  76  81  87  92  92  95  99  97  96  95  95  93  93 104 112 122 130 141 160 176 182 184 151 117 103  98 102 102 107 108 119 125 115 113 114 112 113 112 114 112 114 112
  97  98 100 100 100 101 100 102 107  87  66  67 109 158 148 140 145 155 138 106  90  84  78  73  70  66  65  64  65  68  83  94 104 127 137 140 146 155 149 135 108  82  69  64  64  63  66  67  70  72  77  80  82  86  90  93  99 101 107 111 113 110 111 119 126 128 133 139 156 173 178 183 144 109 105 102 104 102 102 100 122 120 113 111 113 113 113 112 113 112 113 112
  99  99  98 100 101 102 103 102 104  97  72  71 120 163 155 153 157 156 143 117  95  87  83  76  72  70  68  68  69  79  92 103 121 135 140 139 145 157 151 139 126  97  77  70  65  64  65  69  73  77  82  85  87  93  96  99 102 106 112 118 120 119 123 128 134 134 136 140 150 165 174 176 130 101 101 108 109 110  99 100 125 115 112 111 112 112 112 112 111 110 112 111
  98  98  97 101 102 103 103 103 103 105  87  76 120 161 158 160 158 154 140 120 101  93  86  79  73  69  69  73  83  93  98 119 136 140 139 139 144 151 148 143 136 117  92  78  70  67  65  68  74  76  82  87  92  95  98 101 102 104 112 117 121 126 132 133 136 136 134 135 143 159 164 158 120 111 100 101 109 116  97 106 122 112 112 111 111 110 112 111 111 110 110 111
  99 100 100 100 100 101 100 101 103 103  99  82 117 162 160 159 154 149 135 118 102  91  87  81  74  72  77  86  95  99 116 142 146 141 139 138 140 145 141 140 138 127 108  92  81  74  70  71  73  75  82  87  92  95  98  99  99 105 110 115 124 133 138 137 135 135 134 135 141 152 155 143 115 109 106  97 100 116 105 119 117 110 111 111 110 112 112 111 111 110 110 110
  96  98  98 101 100 101 101 101 101 102 106  95 116 159 157 148 145 136 127 117 106  93  88  84  82  80  87  96  97 105 135 155 148 142 141 141 141 140 135 134 134 130 117 102  94  86  80  77  75  74  80  86  91  92  95 100 100 104 111 122 130 137 140 138 137 135 132 132 141 148 143 134 117 106 100  91  95 114 118 124 112 110 111 110 110 110 111 110 111 108 108 109
  99  98 100  99 100 100 102 101 102 103 105 103 115 158 152 142 134 128 121 113 104  98  89  87  89  93  98 102 103 118 152 161 149 138 141 146 142 137 130 125 126 129 121 112 103  97  90  88  81  76  78  83  88  92  94  97 101 109 122 130 134 137 138 136 133 132 129 131 140 143 137 126 109  96  88  82  96 116 126 119 109 108 110 111 110 110 110 110 109 109 109 109
  99  97 100  98  98 101 103 101 102 103 102 108 112 149 145 136 133 124 114 109 102  99  90  93  96 100 103 105 110 140 167 165 150 143 142 141 141 136 129 126 124 124 122 117 107 103  98  95  87  83  80  82  87  90  94 103 110 118 126 132 134 134 136 132 129 126 124 127 138 139 131 117  95  84  80  93 111 119 125 112 110 109 108 109 110 109 109 110 109 109 110 108
  96  98  98  98  99 102 101 102 101 103 103 105 110 143 138 131 123 120 110 106 102  96  96  98 102 103 106 109 119 156 176 170 153 145 145 146 145 140 131 128 125 123 122 116 110 106 103 102  98  94  89  88  87  95 101 108 118 125 127 126 130 130 131 127 126 125 123 126 135 133 124 115 120 105 110 129 123 119 117 110 108 109 109 107 110 109 109 109 108 107 106 108
  97  99  99  98 100 100 100 100 102 101 101 103 110 137 134 124 117 115 109 104 102 101 100 104 103 102 104 108 126 167 186 172 154 147 147 147 142 140 131 129 128 124 123 119 111 107 105 108 107 106 100 102  98 104 108 114 117 122 125 124 123 121 123 121 120 121 124 127 133 125 122 127 143 133 127 116 113 120 111 108 109 107 107 108 108 109 107 109 107 108 107 108
  97  97  98  99  99  99 100  99 101 100 101 101 105 129 131 122 116 112 109 105 104 102 102 104 103 102 101 104 123 180 194 174 159 152 153 155 150 139 134 130 127 124 119 110 105 103 106 109 112 113 111 110 110 113 114 116 116 116 117 117 116 117 120 118 119 120 120 123 125 120 121 139 144 139 122 119 125 112 107 108 108 106 107 107 107 107 108 106 106 106 106 106
  95  96  97  99  98  99  99  98  98  99  99 101 102 116 135 124 116 115 114 109 107 105 103 103 102  99  98  98 130 192 193 170 160 154 148 149 154 147 139 133 131 129 117 105 100 100 104 108 113 117 116 118 119 121 120 119 114 114 114 112 115 117 115 116 116 115 116 120 120 120 120 137 140 144 142 133 127 109 107 105 106 104 106 106 105 106 106 106 104 105 106 106
  95  96  95  97  97  98  98  98  97  97  98  97 100 105 134 124 117 119 116 112 108 106 105 104 102  99  97  94 161 206 196 164 151 144 144 151 155 149 138 135 135 130 123 105  93  99 104 104 109 117 117 120 119 123 122 122 118 116 117 113 116 116 116 117 112 113 113 119 120 118 118 135 141 138 135 127  97  94 104 105 106 104 104 104 104 104 105 105 104 104 105 105
  97  95  95  96  97  97  98  96  98  98  99  98  96  98 122 126 117 116 113 109 108 108 107 103  98  97  90  98 184 214 180 155 143 133 135 140 147 147 138 135 133 133 128 110  91  92  98 106 110 116 118 120 116 119 119 118 118 117 117 118 117 116 115 116 110 110 114 118 117 114 124 135 139 133 121  98  72  82 101 103 105 103 104 103 105 103 105 105 104 102 104 104
  96  95  95  96  97  96  95  96  97  95  94  90  61  50  81 124 117 113 111 109 109 108 107 102  97  92  88 113 166 166 145 135 126 122 128 129 138 142 140 135 132 131 128 118  89  89  93 104 108 114 116 118 120 119 119 117 117 118 118 120 118 116 113 112 110 110 112 114 113 112 121 124 128 120 110  88  61  88 108 105 102 102 103 102 103 103 104 103 102 102 103 105
  95  95  96  96  95  96  95  96  95  95  81  44  30  30  58 123 117 111 108 108 109 111 110 100  97  91  88 116 140 137 127 122 113 118 120 124 132 135 137 134 128 127 123 118  90  91  92  96 104 109 113 115 118 118 118 116 118 119 117 119 116 117 113 111 109 106 112 113 108 104 107 110 112  92  90  89  65 215 156 111 103 101 102 101 103 104 104 102 102 102 103 102
  95  94  95  94  94  95  94  95  94  88  35  29  26  26  34 120 116 112 110 109 109 111 107 103  96  91  88 112 130 120 113 109 106 106 112 112 120 123 128 123 117 115 115 111  94  97  94  97 103 107 112 115 115 118 119 116 119 115 115 118 118 115 114 109 107 105 111 110 103  98  99  97  81  72  81  88  84 193 234 120 103 103 101 100 102 100  99 102 101 100 101 102
  93  93  95  92  94  95  93  94  85  41  29  26  24  25  27 106 114 111 112 113 115 116 113 109  95  90  89  95 120 115 100  96  92  95  98 106 111 114 113 105 102 100  99 101 102 105 104  99 102 107 110 115 116 117 111 112 116 115 116 117 119 117 113 110 107 108 110 105 100  85  69  55  59  70  78  94 100 232 237 125 104 101 102 101 100 100  99 100 101 101 100 100
  92  94  93  92  92  93  94  87  40  28  25  24  24  24  28  80 114 111 112 115 120 122 121 109  94  91  91  93  96 111  98  89  89  87  88  91  99 102  94  87  83  85  88 106 112 112 115 108 103 108 111 113 117 116 114 112 114 114 111 115 116 116 113 111 108 111 109 107  97  66  58  59  61  67  68  86  90 161 158  93  82  80  84  87  89  94  95 101 116 100  98 100
  92  93  93  93  93  93  91  67  28  25  23  23  24  24  30  70 114 112 113 121 129 126 121 104  94  94  94  95  93  99 100  88  84  85  84  84  87  85  79  64  56  62  91 122 124 123 121 118 109 110 114 114 117 120 119 116 116 113 112 111 111 111 110 110 109 112 112 107  88  53  48  46  46  47  46  50  54  56  59  53  48  46  47  47  48  49  48  48  47  50  87  97
  90  93  93  93  93  93  92  66  35  24  24  25  29  38  51  65 117 116 120 126 134 132 116  99  96  98  95  97  97  98 103  95  87  86  83  82  80  75  66  59  55  65 109 129 129 128 123 121 115 116 117 119 118 120 118 116 117 113 110 109 109 109 111 107 108 110 109 105  87  53  49  47  47  48  47  48  51  50  49  48  46  46  46  47  44  44  46  44  46  42  82  95
  91  91  90  93  91  92  91  86  50  34  37  37  48  59  63  60 111 121 124 132 139 128 110 102 103 100  95  99 102 102 101 100  93  83  76  74  71  64  60  58  55  77 115 128 130 129 124 122 120 118 120 123 122 122 120 118 117 116 112 109 108 108 104 105 108 110 109 112  75  52  48  48  47  48  48  47  49  47  47  46  46  45  45  44  42  43  42  42  44  40  80  95
  92  91  90  91  90  93  89  90  83  57  60  59  62  67  58  57  99 124 128 137 139 123 110 107 108  99  94  97 102  89  88  85  83  79  73  71  68  63  59  56  61  82 107 122 124 128 124 120 118 118 117 123 125 128 125 121 120 119 115 111 109 105 102 102 106 108 109 130  67  51  47  47  47  46  47  46  47  46  46  44  46  45  45  45  43  43  43  42  43  41  78  93
  90  89  92  91  91  91  89  91  88  67  63  63  66  60  48  47  89 126 135 139 138 123 107  96  97  93  90  96  94  82  79  74  74  72  69  71  63  60  55  55  63  76  90  99 108 116 118 116 117 120 117 120 124 128 126 124 121 120 114 108 107 104 101 102 105 106 109 139  58  49  47  46  47  45  45  47  46  44  46  44  44  44  44  42  42  41  40  39  40  39  77  93
  88  89  89  89  89  89  88  87  87  59  45  51  55  38  40  44  79 128 137 140 137 120  99  87  82  82  87  90  88  75  65  66  68  66  66  69  62  56  54  57  69  77  78  87  98 103  98 102 108 108 113 117 120 125 127 125 122 118 117 109 106 100 100 102 106 105 120 123  59  48  46  45  45  45  45  46  44  45  44  44  43  43  41  41  43  40  40  40  40  37  72  92
  86  88  87  87  88  87  88  88  87  76  50  48  51  44  47  52  70 128 135 140 130 102  96  82  77  80  82  80  76  61  65  64  65  64  63  64  61  57  56  59  62  69  72  81  88  91  93  88  88  93 102 114 120 127 129 126 125 121 115 110 106 103 101 103 104 108 137 110  56  49  46  44  45  45  46  45  45  44  44  40  42  43  42  42  41  40  39  40  40  38  72  93
  88  90  88  88  89  88  87  87  87  80  64  64  59  57  61  57  61 117 137 140 124  93  79  68  73  70  67  65  62  62  66  66  62  62  60  59  61  62  64  61  62  66  67  71  78  84  78  77  67  70  80  98 113 123 128 125 124 121 120 112 108 104 104 103 104 111 150 110  54  48  46  44  44  45  46  42  43  44  42  42  42  42  43  40  40  40  39  40  38  39  70  90
  89  87  86  84  85  79  79  78  76  76  72  72  69  70  69  65  56 111 137 142 126  96  74  63  59  62  66  63  63  65  68  68  63  60  53  53  58  67  71  70  64  67  64  63  70  74  70  68  59  57  65  78  96 118 127 127 124 120 115 111 106 103 104 100 101 121 153 121 105  55  45  46  45  45  43  41  43  43  43  42  42  41  39  39  41  40  39  39  39  38  70  90
  67  65  63  61  58  58  59  58  57  56  56  56  58  58  59  57  53  99 134 140 124 100  81  70  67  65  66  70  72  70  74  73  68  61  51  52  59  63  73  72  71  75  69  65  66  76  70  68  63  58  66  75  94 109 122 127 124 117 110 108 100 105 104 101 105 136 148 111  91 130  73  47  44  43  43  42  41  41  43  41  40  40  42  41  41  40  40  39  38  37  67  88
  56  55  54  54  53  53  52  52  50  52  53  52  52  52  55  52  37  76 123 137 121  98  81  72  61  54  48  56  61  62  69  71  71  69  61  64  69  70  72  72  74  77  76  74  73  79  76  68  68  69  75  82  95 109 120 123 121 117 105  98  97 101 100  99 108 134 150  89  82  98 107  96  47  43  43  41  42  43  41  41  43  39  40  40  39  40  39  38  38  36  63  89
  46  43  47  49  51  52  52  50  49  51  52  51  50  54  55  50  39  74 111 136 120  92  76  70  61  62  64  57  55  50  50  53  62  64  64  66  66  68  66  66  64  62  56  56  55  55  48  52  60  67  72  80  93 104 116 120 121 113 103  89  98 100  95  99 107 125 150  76  63  72  89 100 105  48  44  43  44  42  42  43  42  40  40  39  38  39  39  38  37  37  63  87
  47  47  51  50  52  52  51  51  49  50  50  51  50  53  55  54  45  69 100 132 122  90  76  75  74  80  82  79  78  74  67  56  44  46  48  51  50  49  47  45  43  42  46  50  52  54  57  65  65  66  70  75  84  92 102 114 117 108  96  92  96  95  91  97 103 122 151  78  52  55  70  86 115  81  48  43  44  43  44  42  43  40  40  40  38  38  37  37  39  37  63  86
  45  49  54  55  55  55  52  52  48  49  52  52  52  55  55  56  44  65  96 124 115  94  80  77  84  89  90  89  85  82  81  76  65  58  53  50  48  46  47  52  62  64  66  69  69  70  74  74  71  70  75  76  84  92  99 107 105 102  93  87  88  83  88  95 102 116 156  73  49  46  56  72 104 162  65  51  51  50  48  47  44  41  40  40  39  39  38  37  38  37  63  88
  51  54  57  56  56  55  56  55  51  52  57  53  54  56  59  53  29  53  81 108 114  97  86  81  86  88  92  93  91  84  78  76  70  69  66  65  60  60  63  69  75  77  80  88  91  89  84  79  80  80  82  86  85  91  96  97  98  89  85  86  82  77  82  96 104 119 146  70  48  44  48  58  74 135 188 160 144 151 126 103  49  47  43  41  39  38  38  38  39  37  61  87
  49  54  57  55  57  57  58  56  54  56  63  58  57  60  61  57  28  47  62  83 111  95  82  76  84  89  94  97  97  88  80  76  71  72  70  70  70  72  73  75  79  82  88  98  95  95  93  90  90  90  86  86  81  87  95  92  93  87  81  83  77  72  80  90 104 118 149  61  47  40  43  49  64  90 182 238 246 242 230 170 191 142  64  47  43  41  40  37  38  38  60  87
  50  56  55  59  56  59  56  57  58  61  63  68  63  67  66  58  25  32  53  68 103  93  78  74  80  89  94  95 103  97  86  81  78  75  74  74  73  74  76  79  83  85  87  90  94 101 103 100 104  98  89  84  75  81  88  89  83  80  76  71  67  68  76  96 109 118 154  67  44  37  39  44  54  63 194 233 250 225 243 197 190 158 220 129  75  50  45  43  41  38  57  86
  53  52  55  57  56  60  58  57  66  72  73  77  75  74  76  63  26  27  54  59  82  84  73  69  73  84  92  99 101 101  88  85  81  75  78  76  75  76  80  81  83  85  86  91  99 104 109 106 102  95  83  80  72  76  78  79  76  74  67  65  61  67  75  99 109 120 155  85  49  42  39  42  46  63  94 217 240 228 240 237 145 124 132 210 220 166  75  48  42  39  51  84
  49  52  53  55  55  59  56  57  75  84  83  83  86  86  84  67  27  34  46  56  78  85  65  64  69  78  88  94  93  90  83  81  73  66  70  65  66  67  72  73  80  82  87  95 100 106 105 103 100  87  72  66  64  64  62  71  69  67  61  58  54  65  82 101 111 121 163 103  62  46  43  39  41  49  79 212 231 230 244 242 160 166 114 141 131 198 204 188  75  45  45  73
  49  51  53  54  55  56  58  56  88  92  91  92  90  97  92  78  48  42  91  83  68  80  63  63  64  69  80  88  87  86  82  73  65  55  58  53  52  57  61  66  76  81  85  91  98 100  98  96  92  81  67  63  54  57  53  58  64  58  53  51  50  69  94 109 114 122 162 113  76  51  46  44  40  43  58 162 211 228 200 210 213 119 103  99 139 152 194 188 220 128  55  67
  51  52  55  55  51  54  57  58  99  99  97  96  96  98  95  98 144 118 169  80  70  71  69  62  62  66  72  80  82  82  75  69  62  55  50  49  46  51  54  61  71  75  83  88  93  94  87  80  72  64  58  58  51  48  49  52  58  53  50  47  49  77  99 111 120 125 163 120  90  58  48  46  44  45  53 114 218 211 210 229 220 137 160 101 127  81 107  94 182 188 227 125
  53  53  55  56  55  55  55  62 102 102  99  99 102 111 151 169 140  76 106 107  67  68  61  59  62  64  67  71  82  82  79  74  60  56  50  48  46  49  55  57  69  74  85  91  95  95  85  71  64  60  56  50  44  44  47  50  56  50  45  46  59  89 104 112 122 130 154 125 100  66  50  47  45  46  48  83 216 215 223 215 207 188 144  95 115 106 137 171 173 200 214 211
  71  56  55  55  54  54  55  74  98 102 107 141 139 193 112  72  55  68 111 111  63  65  62  60  60  64  59  66  72  80  80  75  68  64  50  47  50  54  57  61  74  87  96  98  96  96  80  67  58  57  49  45  43  42  42  49  51  45  42  50  71  97 109 112 120 133 151 124 103  76  52  46  46  45  47  68 179 209 207 236 203 199 131 162 118 130  97 149 125 192 196 238
 126  71  58  56  56  56  58  81 104 151 169 200 108 107  84  71  78  93  86 111  53  50  53  64  57  53  51  59  69  74  79  76  77  73  61  56  62  68  68  71  87  95 103 104  97  90  78  61  54  53  46  42  39  39  40  46  45  40  38  51  82 101 112 115 120 131 147 118 107  88  57  49  46  45  48  69 169 207 204 197 220 210 159 157  88 122  96 123 161 185 197 230
  75  66  58  59  59  61 134 157 217 200 166 173 125 123 110 100 101 103 131  91  52  42  54  59  54  50  49  61  66  71  75  78  81  77  73  68  79  84  78  82  91  98 104  99  89  81  64  54  48  47  43  42  38  39  38  41  40  41  42  66  88 103 111 115 120 128 140 115 107  96  67  51  47  45  45  80 123 199 155 200 230 188 165 149 146 142 134 115 193 154 211 193
 118  65  64  85 110 186 204 179 188 178 136 132  85  77 129 129 138 100 113  82  55  43  48  47  49  48  50  58  58  64  73  79  81  75  72  74  86  91  89  85  94 102  97  91  79  73  62  49  48  42  41  38  36  38  35  37  37  41  52  78  96 109 112 117 121 127 134 114 106 103  75  53  47  47  47  77 121 215 196 157 191 210 226 151 157  83 109  97 130 151 204 194
 121 122 154 168 155 178 218 156 168 117  81 117 149 140 208 110 146 100 103  76  47  45  42  38  42  41  47  52  54  66  70  78  77  77  69  80  89  89  87  84  86  93  96  86  84  69  57  49  45  38  36  35  34  35  36  35  41  44  64  92 102 111 113 115 119 123 128 110 107 106  81  56  48  48  47  73 107 187 179 190 188 218 213 146 161 109 128 144 127 202 167 168
 221 171 206 204 190 163 208 141 180 187 131 141 155 134 171 145 123 126  74  60  42  40  35  37  37  40  44  47  55  64  68  74  77  72  69  77  83  84  80  76  82  86  96  88  72  64  50  44  39  37  37  33  32  38  35  36  43  56  82  97 106 112 114 115 118 122 121 107 105 110  87  59  47  47  49  63 152 176 211 176 165 199 171 183 158 118 105 126  87 136 112 196
 227 186 190 188 207 134 183 115 168 140 109 155 160 146 106 162 118  70  68  51  40  41  38  36  40  38  40  43  52  57  60  69  67  62  64  70  78  74  72  73  76  79  83  76  68  54  44  40  37  35  34  32  32  33  34  39  50  77  92 102 108 110 114 114 115 116 114 106 105 106  92  64  49  48  48  62 128 166 173 198 206 175 192 172  96 135  93 111 113 142 137 143
 212 194 176 140 169 121 155 100 156 184 158 184 122 147 115 136 133  68  58  47  36  35  39  42  35  36  40  40  45  49  53  59  58  53  62  68  77  76  70  66  70  72  70  65  58  50  43  38  35  34  34  30  31  34  35  50  71  90  98 102 105 107 111 112 113 112 112 107 103 107  96  66  48  47  47  52 143 183 215 186 183 200 217 176 146 157  71 110 106 160 117 174
 189 203 148 110 145 137 186  89 112 157 123 152 110 123 130  70  95  41  55  42  34  35  40  34  34  39  40  34  40  44  46  47  46  47  58  66  67  69  68  60  62  60  59  54  48  43  40  36  34  32  32  31  30  35  49  73  84  94 102 103 107 111 108 109 110 110 108 105 105 107  95  67  50  46  46  55 101 157 189 192 213 184 174 177  91 111  86 166 124 213 152 139
 176 171 161 179 150 173 124 168 128 160 115  66  69  88 117  81 125  60  53  38  32  30  33  38  36  38  31  29  36  35  37  38  40  44  47  55  59  59  57  51  49  49  49  47  45  37  34  33  31  30  31  30  32  45  70  83  90  93 100 106 108 108 108 110 108 106 104 103 103 106  95  67  51  44  46  57  84 201 216 197 162 194 218 214 105 132 105 165 158 127 138 101
 190 188 159 108 137 145 176 180 146 168 116 124  64 108 102  74  57  55  55  39  32  25  29  41  50  37  36  30  29  29  30  29  34  39  42  44  49  51  46  43  41  40  38  39  39  35  34  34  31  31  31  36  47  57  79  85  92  98 103 107 109 108 105 104 104 104 102 102 100 105  95  70  51  45  45  55  63 173 167 185 209 190 179 177 144 100 160 133 219 122 151  99
 142 119 136 143 151 145 199 144 173 146 111  72  75 114  52 115  66  76  55  45  32  25  28  39  60  57  47  36  30  28  27  27  28  29  33  35  39  40  36  35  34  32  32  33  34  32  34  32  30  32  39  54  69  77  85  88  92  99 104 106 105 104 104 102 101  99 100 102 102 104  95  70  50  46  47  54  55 158 198 206 167 192 207 209 211 104 186 115 153  93  97  75
 127 174 146 154  89 215 137 182 173  96 106  76 112 150  49  83  68  51  52  45  34  24  24  34  56  66  69  59  41  32  30  29  28  26  32  31  36  34  34  35  34  30  31  31  35  32  33  38  39  45  60  74  81  85  87  90  93 101 102 102  99  99  98  97  95  99 100 101 102 104  92  69  50  47  46  58  74 137 190 189 215 200 170 159 199 130 158 153 145 117 103 100
 117  81 121 109 171 135 183 186  91 142  80  87 103  91  38 108  92  58  50  43  35  26  26  33  47  66  70  72  69  68  55  49  39  36  34  33  34  36  36  33  32  34  33  36  44  52  64  69  65  70  75  79  84  87  89  92  95 101 100  99  94  94  96  94  95  97  99  98 100 101  92  68  51  46  46  56  71  85 201 198 171 187 206 235 228 180 142 139  69  85  76  83
