P2
# Generated by OpenCV 3.4.0
92 112
255
 108 112 110 112 112 112 113 112 113 113 112 112 113 114 113 113 115 113 115 115 115 115 116 117 116 116 117 118 121 118 120 122 121 122 123 126 128 132 161 146 148 142 149 150 145 143 145 146 156 155 164 160 152 143 163 147 143 144 144 146 147 149 151 151 153 155 156 158 161 163 165 164 167 170 171 174 176 178 180 183 186 186 191 193 195 198 202 205 208 212 214 214
 109 110 110 113 111 111 112 112 112 113 112 112 114 114 114 113 114 114 114 114 116 115 115 116 117 118 116 117 117 121 119 132 125 123 128 143 150 149 149 159 172 175 178 190 184 175 171 186 184 191 192 200 181 155 145 146 143 144 145 145 147 149 150 150 152 154 158 159 161 161 162 165 167 169 172 173 175 177 178 182 184 185 188 190 193 194 199 201 206 208 210 210
 108 109 110 109 110 111 112 110 113 113 113 113 114 113 113 113 113 113 114 115 115 116 116 116 116 116 117 117 118 121 118 129 130 132 132 153 151 154 157 158 163 178 186 199 227 220 219 203 209 206 202 226 217 216 195 157 149 154 150 145 147 147 150 150 152 154 155 158 161 161 161 164 167 168 171 172 175 175 177 179 182 184 184 187 190 192 195 198 201 202 206 208
 109 110 109 110 111 112 112 111 110 112 112 112 112 113 114 114 114 112 114 114 114 114 116 117 116 116 118 117 120 122 124 129 140 142 148 155 149 151 160 160 157 177 189 189 203 232 240 204 212 228 245 228 247 237 231 206 177 175 180 148 148 147 148 148 152 154 154 156 156 159 162 164 167 170 170 171 173 173 175 177 179 181 182 185 187 190 192 194 196 199 202 204
 109 110 108 110 112 113 109 109 111 111 112 112 111 112 113 113 112 113 114 114 115 115 115 118 116 117 119 123 123 123 128 138 140 138 135 141 140 133 138 142 146 166 175 177 185 225 231 220 199 228 250 248 251 245 216 231 241 227 200 180 150 147 147 148 151 152 153 153 156 158 161 163 164 168 181 171 170 171 174 174 176 178 180 181 184 186 189 191 193 194 197 198
 109 109 107 109 110 110 110 111 111 112 110 110 113 111 113 113 112 113 114 115 116 116 116 116 118 120 122 127 129 130 128 141 137 138 130 134 131 125 126 142 145 154 163 164 184 212 233 224 215 236 239 251 252 250 233 247 252 251 244 212 158 147 146 147 148 149 149 152 153 154 153 154 154 158 159 158 159 161 161 162 164 164 167 169 169 172 174 177 179 181 182 184
 108 109 109 108 108 108 109 109 109 110 110 111 113 111 111 114 112 114 114 113 114 114 116 116 122 129 122 122 130 135 131 133 132 134 131 131 134 129 127 145 148 149 174 164 172 191 204 223 227 219 229 250 249 249 241 240 252 252 252 236 165 153 143 136 132 133 142 140 135 137 137 140 143 163 161 147 147 149 151 152 154 156 157 160 161 165 167 170 172 173 175 179
 107 110 108 108 107 108 109 109 110 110 110 110 110 110 108 110 111 112 113 114 115 119 118 120 122 124 124 124 132 137 124 122 122 127 132 127 130 132 129 140 148 146 164 158 158 173 177 205 203 187 206 231 226 235 251 231 251 252 252 251 178 140 173 157 150 136 140 159 134 132 132 134 137 139 145 141 140 141 146 145 146 148 150 151 153 155 158 160 160 164 166 168
 108 106 107 108 107 107 108 107 110 109 110 109 110 110 110 111 111 112 112 114 115 117 135 123 121 123 127 126 135 134 127 119 116 122 128 131 124 131 127 135 142 141 151 156 148 152 154 174 171 166 170 189 208 209 237 201 239 250 251 251 218 194 210 191 154 152 158 187 174 134 126 126 125 129 134 134 135 136 138 140 143 145 148 149 152 154 156 160 164 165 166 170
 108 108 107 107 106 107 108 108 109 108 110 109 111 110 109 110 111 113 110 112 114 115 129 132 122 120 121 124 135 127 118 115 118 119 128 132 124 124 128 130 131 138 138 145 141 136 141 154 153 155 152 164 184 180 192 197 235 251 251 251 251 246 222 209 149 127 125 128 189 208 170 132 130 135 137 138 138 138 139 141 142 144 144 147 149 151 154 154 157 158 160 162
 106 106 107 107 107 108 108 106 108 108 107 109 108 109 110 110 110 110 111 113 118 119 120 127 120 122 121 117 127 120 113 114 118 120 125 128 123 122 126 131 128 133 136 135 135 132 140 144 150 150 151 153 161 166 175 186 207 243 224 235 251 252 252 242 188 130 120 124 124 169 187 138 128 127 131 132 130 134 135 136 138 141 141 144 147 150 151 154 154 158 159 161
 106 106 107 106 107 106 107 105 106 108 107 108 108 108 110 109 110 109 112 114 122 127 119 124 129 125 119 119 117 118 110 111 120 127 124 126 122 121 126 130 131 132 134 131 129 135 138 142 148 148 149 153 159 160 155 157 175 181 208 192 242 252 252 251 235 184 146 135 127 153 145 167 138 147 137 134 135 135 136 137 138 140 142 144 146 149 151 153 154 156 157 159
 106 105 105 107 106 106 106 106 108 106 107 109 106 108 108 108 108 110 111 119 120 129 133 126 118 111 112 113 105 108 111 109 115 122 123 125 131 125 126 129 132 135 136 133 132 135 137 142 144 146 151 160 161 149 148 151 158 158 168 199 223 248 252 252 252 235 178 183 137 133 142 156 138 143 156 150 149 149 141 140 143 144 147 149 151 154 157 158 160 163 164 168
 105 105 106 106 105 105 106 107 105 106 107 108 107 106 108 109 111 112 114 128 134 159 136 127 115 112 112 111 107 106 106 107 113 119 122 123 126 127 129 130 134 137 136 137 136 139 137 139 144 150 158 165 152 149 149 151 157 161 176 181 202 213 234 250 252 251 225 205 189 152 156 156 168 156 155 152 149 154 153 153 153 156 159 161 162 164 171 175 170 171 172 173
 104 105 105 105 107 105 104 105 106 106 107 107 108 107 107 109 113 114 119 132 154 153 129 117 111 111 106 109 108 111 112 120 122 127 128 130 127 129 131 135 138 139 140 143 142 143 138 141 146 153 160 165 158 158 157 163 170 176 179 188 202 206 214 248 251 252 250 232 213 185 163 156 174 180 169 157 154 153 155 156 157 159 160 162 167 172 174 169 169 170 170 170
 103 104 103 105 105 105 104 104 106 105 107 106 107 107 109 112 118 122 116 118 124 128 129 114 110 107 107 117 120 126 129 133 137 139 140 140 139 139 140 142 144 146 145 148 150 149 149 146 149 151 151 154 159 161 157 163 172 179 186 193 206 212 225 241 251 252 252 250 239 185 196 173 176 190 188 177 154 153 155 154 156 159 161 164 163 163 164 164 166 168 168 169
 103 104 101 103 104 104 105 104 104 104 105 105 105 107 113 112 120 121 120 126 124 129  99 112 117 111 113 124 132 144 153 155 153 149 147 149 149 150 152 151 151 155 156 155 156 156 157 153 151 148 153 159 160 160 169 174 177 179 192 203 209 227 246 251 251 252 252 252 236 202 179 179 177 182 173 200 162 152 153 153 156 156 157 158 158 160 163 161 164 163 164 166
 102 102 101 100 102 103 102 104 105 101 104 106 106 112 118 117 114 119 121 121 129 126 123 125 122 122 128 134 141 150 163 164 157 155 153 154 154 157 159 158 159 160 160 159 160 162 160 160 156 157 160 163 166 175 179 181 182 188 190 202 214 244 251 252 252 252 252 252 252 241 194 206 190 175 168 168 172 152 154 154 152 151 154 155 156 158 157 158 159 162 162 164
 101 102 101 101 102 100 103 101 102 102 103 105 107 112 117 112 116 119 123 122 126 124 125 125 123 128 136 141 148 151 158 157 156 154 152 153 156 160 160 161 160 162 166 167 166 165 164 164 163 162 165 173 177 178 182 188 194 197 196 201 210 239 252 252 252 252 252 252 252 251 228 201 189 203 165 155 160 156 149 147 148 150 153 154 154 156 155 157 157 161 161 161
 102 101 101 100  99 101 102 102 101 101 103 105 105 118 124 113 119 122 124 123 117 122 126 129 134 139 146 148 150 152 154 152 149 151 150 150 154 160 159 162 162 162 165 167 168 168 166 168 167 165 173 181 184 185 184 190 197 198 194 198 204 219 249 252 252 252 252 252 252 252 252 230 211 190 177 183 182 155 150 151 149 148 150 152 153 154 154 156 156 158 158 159
 100 100 100  99  99 100 100 101 101 101 102 105 107 123 129 116 116 126 119 115 119 127 134 140 142 145 148 148 147 147 149 148 146 149 148 150 150 157 158 161 164 164 165 168 168 170 168 168 167 170 178 183 184 184 182 187 190 199 203 199 201 209 235 251 252 252 252 252 252 252 252 247 225 189 166 171 218 172 153 150 149 147 150 150 150 153 153 153 154 155 157 158
 100 100 100  98 100 100  99 101 100 103 102 102 110 135 131 116 113 122 118 118 132 141 146 145 147 148 150 150 150 148 149 149 146 143 147 146 150 155 158 159 161 161 164 166 164 164 166 166 166 167 170 179 182 183 182 184 185 185 191 205 204 204 216 248 252 252 252 252 252 252 252 251 236 185 163 184 184 184 190 170 150 148 147 148 149 149 151 152 152 152 154 155
  99 100 101  99  99  99  99 100 101  98 101 104 112 140 128 113 116 120 113 133 144 150 150 150 152 151 152 150 150 150 148 147 148 146 146 145 147 152 155 157 157 159 162 161 161 161 163 162 163 163 168 172 172 172 172 177 179 180 183 183 196 206 215 230 248 252 252 252 252 252 252 252 243 193 168 168 168 180 183 162 156 157 148 146 147 149 149 149 151 150 151 152
  98  97  99  97  98  97 100  97  98  96  99 102 109 137 124 112 120 116 123 144 150 158 156 154 155 155 154 152 151 152 148 146 146 146 144 143 145 149 147 151 155 158 158 158 158 162 162 159 162 162 163 164 163 158 156 164 173 177 182 181 182 181 185 202 222 244 251 252 252 252 252 252 250 189 164 164 165 157 154 146 150 144 153 146 146 146 148 148 149 148 150 150
  95  96  97  98  97  98  99  98  97  98  98 100 108 138 127 116 121 117 142 149 169 178 165 158 156 153 156 154 152 149 147 144 143 141 139 141 143 146 149 149 153 156 155 157 157 160 158 157 158 157 156 156 156 151 153 163 169 175 178 180 181 177 176 182 194 218 240 251 252 252 252 252 252 224 171 166 177 149 144 142 144 141 144 144 142 144 148 146 147 147 148 148
  94  95  95  96  98  96  97  97  97  98  98  99 109 144 129 119 122 146 147 162 193 204 177 165 158 155 155 151 151 148 146 139 139 136 136 138 139 144 144 145 147 150 151 150 150 152 153 154 152 155 153 154 157 155 158 162 168 171 172 174 175 172 172 176 184 193 210 236 250 252 252 252 252 249 202 175 166 147 141 140 147 152 143 145 142 142 145 143 145 146 146 147
  96  95  95  95  95  96  97  97  97  99  97 102 109 138 127 126 134 149 155 177 216 218 189 170 161 155 156 150 147 142 139 136 136 135 133 136 133 137 140 140 142 146 149 153 154 153 155 154 157 156 160 160 158 158 156 156 161 164 165 167 166 165 166 169 172 184 192 208 241 251 252 252 252 251 231 191 162 149 142 139 145 152 151 142 140 141 141 141 145 143 144 146
  95  94  95  95  93  95  96  97  96  95  98 100 104 136 125 130 147 155 165 200 221 210 186 174 161 155 149 146 142 141 135 132 131 130 131 131 132 137 142 142 144 146 148 151 154 152 153 153 156 154 153 156 155 157 156 154 156 159 161 161 162 158 161 165 167 174 181 191 218 244 251 251 252 252 240 204 156 142 140 139 143 142 140 139 138 139 140 138 140 142 142 142
  93  93  93  94  93  94  95  95  96  96  96 100 105 134 126 144 160 161 178 203 215 201 191 180 161 149 147 141 137 133 133 128 127 127 129 130 131 136 141 142 140 140 145 149 152 152 153 153 152 148 148 154 155 157 157 155 155 153 157 155 156 158 157 158 161 168 172 179 194 223 245 248 252 252 250 202 161 145 136 136 136 141 136 137 138 137 136 137 138 139 141 140
  92  93  94  92  95  94  94  95  94  96  96  98 105 134 129 154 160 172 191 200 207 196 185 176 157 148 141 137 134 129 127 126 126 126 129 131 131 133 138 141 140 140 146 150 150 154 152 150 150 150 148 152 154 157 160 156 156 155 153 151 152 155 153 154 155 157 164 169 181 201 224 243 251 252 250 228 182 173 148 140 146 145 146 137 135 135 135 135 138 137 136 138
  91  90  92  92  93  94  91  94  96  97  97  97 106 134 132 149 154 183 196 196 198 184 178 169 157 145 135 137 130 125 126 125 121 125 128 130 130 131 133 139 139 145 146 150 150 152 157 152 152 153 152 152 155 153 156 157 154 156 156 153 151 150 155 153 155 158 163 166 175 189 204 226 250 252 251 220 170 173 160 138 138 146 142 135 132 132 134 134 134 134 135 136
  90  92  91  91  91  91  92  98  94  96  95  96 106 122 128 151 162 189 200 192 187 180 172 165 155 145 135 132 130 129 127 127 131 132 133 134 134 135 138 143 145 147 147 147 151 151 151 152 152 150 151 153 154 155 157 157 156 155 159 157 154 153 155 154 158 159 160 163 168 178 193 218 246 252 251 238 170 151 145 137 131 131 134 131 132 132 132 132 133 133 133 134
  91  90  92  91  90  92  95  95  93  94  94  97 114 115 126 148 166 188 192 189 182 172 166 161 154 142 135 134 130 131 130 130 134 138 137 136 137 137 138 142 147 145 145 147 151 152 154 152 155 157 159 159 158 160 160 163 164 165 163 162 159 156 154 156 157 158 158 159 161 170 182 206 234 248 250 227 185 154 136 132 129 129 131 129 129 130 132 130 128 131 131 132
  91  90  90  91  89  91  93  92  92  93  94 100 119 107 122 145 173 183 185 183 176 165 160 158 149 142 138 132 132 132 134 132 136 138 139 139 140 139 142 144 146 146 149 152 156 159 156 155 156 160 163 160 159 160 164 162 164 162 162 161 159 160 157 158 159 160 158 157 160 164 175 194 224 246 247 224 169 149 138 130 129 128 129 126 127 128 129 129 130 132 131 133
  89  90  90  90  89  92  92  92  90  91  95 106 114 112 127 152 172 178 179 177 170 161 157 156 154 145 134 129 130 134 136 136 134 135 136 139 144 142 144 146 145 147 150 152 155 157 157 158 153 153 154 156 158 161 162 160 164 163 163 161 160 161 162 161 160 159 159 159 158 163 168 186 212 238 242 219 171 146 133 128 126 127 128 127 127 126 126 127 128 130 131 131
  88  87  89  88  89  90  91  90  91  93 100 109 109 116 139 152 167 172 170 167 162 158 154 154 148 140 131 131 131 132 133 136 136 138 137 140 142 145 144 147 148 150 149 147 153 157 157 158 155 152 151 156 159 162 163 164 166 165 163 164 163 162 160 160 159 160 160 157 158 163 170 183 203 228 238 218 180 143 127 128 126 126 126 125 124 126 126 126 128 128 128 127
  87  88  89  88  88  89  90  91  91  92  96 104  98 106 129 150 162 166 169 165 160 158 154 152 146 138 132 131 132 136 135 135 140 141 141 142 144 144 145 148 146 149 151 152 155 155 154 156 156 156 154 158 158 162 164 165 167 168 165 164 163 163 162 157 158 158 159 157 159 162 169 180 196 217 230 214 183 137 126 126 125 124 123 123 125 124 125 125 125 126 126 126
  88  86  86  88  88  89  91  90  90  91  94  99  93 102 123 140 159 160 162 159 161 158 151 154 148 141 134 130 130 133 134 135 138 141 140 141 140 138 142 143 143 146 148 148 150 152 153 154 155 155 155 156 157 160 161 164 167 166 164 161 162 162 160 158 158 160 160 159 160 163 168 182 194 215 224 214 177 154 150 138 142 127 121 121 122 122 122 123 123 122 122 123
  86  87  86  88  89  90  92  92  89  90  91  98  96 104 119 144 155 153 156 157 157 158 153 151 148 142 135 129 130 133 134 137 136 137 138 141 138 138 137 139 139 139 144 145 148 149 151 149 150 151 152 155 155 157 158 160 162 159 159 157 160 160 161 160 160 162 159 160 162 162 169 184 196 210 218 210 187 170 160 169 150 126 120 119 120 121 119 123 123 124 121 122
  87  87  86  87  86  87  92  89  87  87  89  95  97 107 122 138 146 148 148 152 154 157 153 152 148 142 135 131 132 136 138 137 136 136 134 134 134 131 135 135 132 134 139 142 143 143 144 144 144 145 148 151 150 153 152 154 155 153 154 152 153 157 160 163 163 160 161 163 164 170 175 186 196 202 214 203 174 140 127 123 133 128 120 119 119 120 119 119 119 121 119 120
  87  87  87  88  86  87  88  88  89  89  87  91  92  92 112 131 134 145 143 147 153 153 152 151 149 145 138 137 138 138 139 138 137 134 133 130 130 129 126 128 127 129 133 133 138 138 141 143 144 143 143 144 144 145 144 144 145 147 145 148 147 154 158 161 163 163 166 169 168 176 183 187 195 203 212 200 163 135 122 120 121 122 120 117 118 118 118 117 119 119 118 119
  87  86  88  87  87  87  89  89  88  89  88  91  87  88 111 129 142 145 144 148 154 153 153 154 151 149 145 140 135 132 128 128 126 129 124 121 119 114 111 116 119 119 124 128 133 136 136 137 141 137 138 139 138 136 135 132 135 138 142 146 146 151 154 159 162 163 170 180 190 200 206 200 201 201 209 196 156 135 119 117 119 117 118 117 117 116 118 117 117 118 117 118
  86  87  89  87  87  88  88  89  89  89  88  91  89  87 105 123 148 146 143 145 153 153 155 157 154 151 139 130 123 119 113 108 104 100 101 102 101  96  98 100 108 107 116 121 126 129 128 127 132 132 131 130 131 131 127 124 123 129 134 138 140 143 143 148 152 157 169 179 193 213 219 215 211 207 206 188 151 123 117 117 118 117 117 118 118 118 116 117 118 117 116 116
  86  85  86  85  86  88  89  88  90  90  89  88  86  84 106 126 150 147 144 144 155 158 161 163 157 142 124 114 104  95  89  88  88  83  85  88  88  88  89  92  94  97 105 110 117 122 123 126 129 125 126 127 124 123 120 120 118 118 125 128 134 134 133 133 132 137 147 162 183 207 222 236 223 213 208 184 144 121 118 117 114 116 117 117 116 115 116 117 118 116 116 116
  87  87  89  87  86  87  87  88  89  90  89  89  88  92 109 133 148 146 146 147 158 160 165 159 143 118 101  89  82  80  78  75  76  72  75  79  85  85  81  86  90  91  97 104 109 114 119 120 125 124 125 120 116 116 112 111 112 112 112 109 110 114 120 122 122 123 123 134 159 188 222 240 234 220 208 172 142 122 117 116 117 117 116 115 116 116 116 116 116 116 116 115
  85  87  86  87  86  86  86  89  90  90  89  88  88  86 103 128 149 148 149 152 160 164 163 136 104  90  87  83  78  82  81  79  75  76  74  76  78  82  82  81  86  85  90  97 102 106 112 118 118 123 121 114 112 108 108 104 103 101  97  96  96  93  96 100 101 100 102 109 121 140 161 218 238 228 219 162 131 119 117 117 115 116 115 114 115 115 114 115 116 116 116 114
  85  85  86  87  86  88  89  90  89  89  90  85  79  77  94 132 149 148 149 153 155 158 142 120  96  88  90  91  87  85  85  86  85  84  84  84  82  84  82  82  84  84  87  90  95 102 107 112 117 116 115 110 108 102 100  98  93  93  90  90  88  87  86  92  93  94  99 102 106 112 126 159 200 226 227 153 122 117 116 116 115 115 115 116 116 114 114 116 115 115 115 116
  86  86  88  86  88  88  89  90  89  91  90  89  82  72  86 120 146 149 149 155 157 145 125 108 103 100 100  96  93  88  88  88  87  85  86  86  86  86  86  85  85  86  88  91  94  98 102 108 113 115 112 109 104  99  96  95  91  90  90  90  91  93  94  98 100 100 102 104 107 110 112 123 171 223 228 146 128 121 119 118 119 118 118 119 118 118 120 121 119 118 118 119
  86  88  88  88  87  88  90  90  90  92  89  90  86  71  83 116 149 154 152 156 149 124 109 106 104 102  99  97  94  90  89  86  86  85  86  84  84  84  85  84  86  90  91  92  94  97 100 105 112 115 114 109 103  95  96  93  92  92  94  94  98  98 100 100  99 100 103 104 106 108 110 118 156 219 230 148 129 124 121 119 119 118 121 122 121 123 121 120 121 120 119 118
  87  87  89  89  88  91  89  91  90  91  92  93  91  75  81 114 152 154 150 150 136 122 111 109 102 101  95  92  92  88  86  83  80  78  77  74  74  76  78  81  83  85  90  92  93  95  99 104 112 115 117 111 101  98  95  93  94  92  94  92  93  93  93  93  95 100 103 104 107 110 111 115 133 213 234 143 126 121 122 122 121 122 121 122 122 122 120 119 120 121 120 119
  95  95  96  97  96  98 100 100  99 101 101 102  97  85  89 115 154 152 148 144 126 119 111 104  98  97  93  87  82  78  76  78  74  70  67  66  61  60  65  72  75  79  82  89  94  97 100 107 114 118 118 113 103  98  93  91  90  90  85  82  79  82  81  85  86  90  96 102 105 107 107 112 129 210 236 147 129 124 123 120 118 119 118 118 118 120 120 118 118 118 118 119
  99  98  97 100 100 101 100 104 107 113 110 104 101  92  90 117 156 154 148 141 127 120 108  98  91  88  85  82  87  88  85  80  74  71  65  64  59  60  62  62  66  70  75  84  91  96 102 108 116 122 124 116 102  93  87  84  79  76  75  75  76  78  80  83  89  95  98  95  98 103 106 110 128 204 240 159 171 180 142 124 118 118 117 118 118 118 118 118 118 118 118 117
  99  98  99  99 100 100 103 130 142 122 103  92  94 105  91 114 153 156 147 138 125 115 104  95  87  85  86  90  88  83  76  70  61  52  47  47  51  55  58  62  63  65  70  81  87  99 107 114 126 133 131 122 103  87  78  74  71  74  79  79  80  76  72  75  80  92 101 100  97  99 104 109 132 202 241 222 245 250 216 134 119 117 117 117 117 118 118 119 119 118 117 117
  96  99  98 100 102 101 107 129  98  94  91  92  95 101 104 120 154 154 146 135 123 114 101  90  86  86  87  82  84  77  76  74  54  46  38  40  51  56  55  54  61  66  67  76  84 100 112 121 135 140 140 133 106  80  73  75  75  76  79  84  84  71  62  54  58  67  81  92  95  95 101 107 130 196 243 193 160 172 215 155 120 116 116 116 116 116 116 117 118 117 117 118
  99  97  98 100 101 101 110  97  72  65  71  78  92 101 107 129 154 150 146 134 124 113  98  89  84  82  84  75  70  82  91  85  57  47  41  45  51  57  53  52  54  65  68  72  86 104 118 130 139 146 148 142 110  79  73  67  65  70  78  89  89  73  58  53  55  64  82  85  91  94  98 107 134 194 236 161 132 130 154 155 120 116 116 115 117 115 117 116 116 116 115 117
  97  99  99  99 100 102 108  83  64  64  66  77  86  92 100 125 158 150 145 134 122 112 100  89  86  95 103  89  79  83  94  97  70  52  47  50  50  56  54  54  60  68  70  79  94 107 126 133 142 150 156 147 118  82  74  67  65  68  72  86  94  78  63  64  64  68  83  81  88  98 102 109 135 191 236 137 122 122 125 129 118 116 117 116 117 116 116 115 115 114 114 115
  96  98  99  99  98 102 102  78  63  63  67  76  81  79  95 115 158 150 145 132 121 111 104 100 108 122 124 107  89  80  74  76  73  59  54  58  59  59  58  58  63  68  76  90 100 112 132 138 143 156 158 149 133  85  75  74  74  74  73  74  82  79  70  69  69  82  88  96  95 104 117 119 140 184 235 128 115 113 126 120 115 114 115 114 114 114 114 113 114 113 115 114
  99  97  97  99  98 100 102  78  62  63  70  86  98 102  90 101 150 148 144 134 123 116 110 114 121 130 126 114  97  89  78  73  71  70  67  64  65  61  59  59  63  73  90 101 111 124 135 141 146 155 161 153 140 105  79  73  74  75  75  77  78  78  79  78  84  96  96 102 107 112 122 131 147 182 224 125 109 107 127 117 115 112 113 114 114 113 113 114 112 113 114 114
 100  99  99 100  98  99 106  84  62  60  76  99  99  81  62  87 141 147 145 138 129 122 121 121 129 130 124 113 104  96  88  85  79  75  72  69  66  62  60  63  69  86  97 110 120 130 139 142 147 154 164 155 141 126  94  77  72  74  77  81  84  84  87  88  91  96  99 107 116 122 129 140 151 180 219 126 106 107 130 115 113 111 112 113 114 112 112 112 113 112 112 111
  98  97  98 101 101 100 102  92  70  61  87  98  88  72  59  69 131 145 145 141 133 130 128 127 125 125 117 106 102  95  89  86  82  77  71  67  67  68  68  78  89  93 105 115 122 131 139 141 146 152 156 150 142 137 116  92  80  74  76  81  86  89  92  97  99  99 103 115 126 133 139 146 156 178 205 124 111 115 122 114 113 112 113 112 113 113 112 112 111 111 111 112
  98  98  99 101 102 102 100 103  84  70  88  92  81  67  60  74 130 144 147 141 136 134 133 128 120 119 114 106 104  97  92  87  85  79  73  69  69  70  78  90  95 102 109 115 124 129 135 140 148 153 152 144 138 137 129 110  94  85  83  82  85  87  91  96  97 100 110 124 136 141 144 150 158 181 189 123 118 126 115 113 113 111 112 110 113 112 111 110 111 110 111 112
  98  99  98 100  99 102 100 103  98  75  87  90  74  64  61  81 126 146 150 141 138 138 134 123 119 114 108 106 103 101  97  90  89  82  78  74  76  83  91  96 102 107 110 114 123 129 135 140 151 158 153 143 135 131 130 121 110 100  92  83  85  87  90  93  98 106 117 132 138 142 145 149 161 183 176 117 125 130 114 112 111 110 111 111 111 111 110 109 111 110 111 110
  99  98  98  99  99 100 100 101 104  88  85  90  67  58  60  76 122 144 150 139 136 135 124 118 112 107 103 102 102  99  95  90  85  84  83  85  90  93  97 101 104 106 110 117 126 131 136 139 150 156 152 141 133 128 128 126 121 115 106  93  88  87  92  94 102 113 123 134 137 139 142 146 156 188 149 118 132 124 112 110 110 110 110 111 112 109 108 109 112 109 109 110
  98  99  99  99  99 100 102 100 102 101  83  94  72  57  55  62 102 141 149 137 136 133 121 112 108 104 104  99  99  96  93  90  85  89  92  96  96 100 102 104 104 106 112 121 132 136 138 142 153 157 150 144 135 128 126 126 124 122 116 108  99  94  95 101 112 122 130 135 136 138 139 140 152 194 146 125 132 117 110 111 110 110 109 109 110 109 110 111 110 109 109 110
  97  99  99  99 100 101 101 101 102 102  93  93  91  79  70  80  92 143 147 138 132 122 111 110 107 102 101  98  98  96  92  89  92  96  99  99 100 103 103 103 102 106 118 126 134 138 139 142 150 158 152 144 137 132 126 124 122 124 121 117 114 109 104 110 118 126 130 130 130 131 133 134 153 195 153 128 122 112 112 110 110 110 108 109 109 108 109 109 110 110 110 109
  96  99  98  98  99  99 101 100  99 100 101  93  87  92 103 108  93 139 144 136 129 118 106 106 100  98  97  97  96  94  93  96  97  98 103 101 103 102  99 100 100 107 126 137 141 142 142 147 156 164 156 144 137 130 126 120 118 121 125 124 121 117 112 114 118 123 123 124 124 123 125 130 158 190 124 130 125 112 109 109 111 110 108 109 108 109 109 108 110 108 108 107
  95  97  99  98  98 101 100 101 101  98 101 106  92  87 110 114 102 130 140 133 125 118 106 101  99  96  95  95  95  93  96  98  97  99 103 102 100  99  96  96  98 114 142 151 148 143 146 148 159 164 154 148 140 134 126 113 112 119 123 126 127 124 122 120 122 122 119 119 120 120 120 127 164 178 141 134 113 106 109 109 109 108 106 109 108 107 108 108 107 108 106 108
  95  95  97  99 100  99 100  98  99  99 100 104 110 128 124 111 105 122 138 133 123 117 106  99  96  94  95  97  95  93  95  96  97 100 100 101  97  96  92  91  99 135 161 168 157 148 148 146 152 162 159 151 142 136 127 107 108 114 120 124 129 128 125 124 125 123 118 119 119 118 119 124 179 175 160 144 116  99 106 108 107 106 107 106 106 106 108 106 106 106 106 107
  94  96  98  96  97  98  99  99 100 100  99 101 110 121 109 106 105 112 136 136 124 117 108 100  95  95  96  98  98  96  99  97 100 103 101 102 100  94  90  90 111 158 174 182 163 150 144 140 144 148 151 147 143 137 134 110 106 111 119 125 127 127 124 123 124 123 119 120 118 118 119 120 189 158 146 117 107 104 108 107 105 106 108 107 107 106 107 107 106 106 107 106
  94  97  97  96  96  98  98  98  97  97  98  97 101 110 104 102 100 101 131 135 126 117 111 102  98  98  96  97  94  98  98 100 101 102 100  99  93  90  85  86 125 156 168 169 152 144 136 134 130 135 140 139 140 139 135 117 101 108 117 123 125 125 125 123 122 123 122 122 121 117 115 129 178 145 110  86  82  94 103 104 106 104 106 105 104 107 106 105 105 105 106 105
  95  95  96  96  97  97  96  97  96  97  96  96  97  97 100 100  97  94 119 134 131 121 112 104  99  97  98  96  97 100  99 101 103 101 100  98  92  86  82  85 121 136 142 143 134 130 126 124 121 129 133 137 139 139 135 125 104 106 112 118 123 124 124 124 122 123 122 121 120 119 116 140 151 124  99  82  68  83 103 104 105 105 104 103 105 103 105 103 104 104 105 104
  95  94  97  96  97  97  95  96  96  95  94  88  58  43  36  88  91  87 105 127 130 120 111 103  99  97  98  98  99 101 101 102 103 102 100  97  90  85  82  84 115 119 118 122 119 116 117 115 113 118 121 127 132 132 127 122 110 107 110 117 120 122 122 124 123 121 120 121 122 119 118 150 127 103 104  82  61  90 107 104 103 105 105 102 104 104 103 104 103 103 103 104
  95  95  96  97  97  96  97  95  96  95  72  38  31  29  29  35  66  80  89 119 127 117 110 105 101  97  98  98 101 100 102 102 101 102 103  99  91  85  86  83 102 110 108 108 106 103 105 103 105 106 111 119 122 119 112 114 119 111 110 116 120 122 122 122 119 121 120 122 122 121 125 148  92  82  92  91  64 222 150 110 104 105 102 101 103 101 103 101 102 103 103 104
  94  94  93  94  95  95  94  95  94  77  30  30  28  25  25  27  28  33  46 111 126 119 109 102  99  97  99  98 102 104 104 105 106 106 104  96  91  89  88  84  85  93  89  97 102  96  93  93  92  95 101 106 109 104 106 117 124 121 116 118 121 120 121 121 119 121 118 119 120 120 133 122  72  67  78  86  81 196 230 120 106 103 101  99 101 101 100 102 101 102 102 102
  92  93  94  94  94  94  94  92  84  36  26  27  24  24  24  24  25  25  28  91 125 120 111 104  99  98 100 102 103 104 107 111 111 106  99  96  94  92  90  87  85  82  74  70  92  92  88  89  88  89  92  93  92  84 119 130 131 129 123 120 121 121 124 126 123 121 119 117 117 122 141 104  65  71  78  89 108 235 235 126 105 101 100  99  99 101 102 102 101 100 100  99
  93  94  95  94  93  94  94  82  34  26  25  26  23  23  23  24  23  23  27  67 123 120 111 106 101  99 100 102 106 111 112 115 114 106 100 101 100  95  90  89  86  84  83  76  74  87  86  87  86  85  85  85  71  78 124 135 137 133 129 123 125 125 125 126 123 121 118 113 114 124 144  82  70  70  71  87  96 174 162  94  81  83  87  89  91  94 104 108 121 102  99  98
  93  93  93  94  94  93  91  52  28  24  25  23  21  24  28  29  25  23  26  43 127 124 112 106 104 102 104 107 111 117 117 116 111 104 102 104 102  97  90  87  83  80  77  76  76  77  79  83  80  79  74  68  62  78 120 134 136 134 130 126 125 128 128 127 124 122 120 112 111 122 124  58  52  48  47  49  51  57  61  53  49  47  48  48  47  48  50  50  46  50  88  96
  93  93  93  93  93  92  90  51  29  24  26  24  30  39  46  43  30  24  25  30 114 123 116 106 106 107 110 113 119 123 122 115 108 106 107 107 102  94  86  82  73  73  66  67  71  74  74  74  73  70  67  62  60  81 112 128 134 132 127 125 124 127 131 131 127 123 119 115 111 121 102  57  52  50  50  48  48  48  49  49  47  46  46  46  45  45  45  45  44  43  81  97
  91  93  92  92  91  92  91  73  38  35  34  40  49  55  55  48  33  25  25  30 105 124 117 107 109 112 113 114 126 127 120 110 103 103 106 102  95  87  79  73  73  64  59  60  64  68  70  72  71  67  63  59  60  74  93 107 122 126 123 125 124 124 128 130 127 123 119 114 113 126  90  54  49  48  47  47  47  47  48  46  46  46  46  45  45  43  44  44  40  41  81  94
  89  90  93  90  90  92  89  87  75  63  57  59  60  58  54  49  42  28  29  44  86 128 121 113 114 115 121 126 127 125 118 109  99  92  94  89  87  76  68  68  67  61  54  58  60  63  64  68  68  63  61  57  61  76  84  98 109 110 109 113 117 122 125 129 128 125 117 115 114 128  69  51  47  47  48  47  46  47  46  46  45  45  44  45  45  44  44  44  42  40  78  95
  89  89  89  91  88  89  91  91  87  65  63  64  63  54  43  43  43  34  38  47  82 125 122 118 119 118 124 127 128 124 117 109  91  81  79  75  72  67  66  63  66  57  51  55  56  63  62  65  64  60  60  60  66  68  75  86  98  97  91  89 101 114 123 129 131 125 119 118 121 123  62  52  47  47  46  45  46  46  45  45  44  45  44  43  43  42  43  42  41  39  73  95
  88  89  90  88  90  89  90  89  87  52  45  54  49  36  38  42  45  36  40  51  86 120 122 118 119 122 126 128 129 126 114 100  81  73  69  69  65  67  64  58  60  51  52  58  61  59  59  63  58  57  63  63  65  66  68  70  84  82  76  67  76  91 112 128 132 128 125 124 127 100  56  48  45  46  45  45  46  45  46  45  43  43  42  40  42  40  41  42  40  38  74  94
  87  88  89  87  89  88  90  88  87  72  46  50  48  44  45  49  46  36  39  71  87 111 124 117 118 121 127 130 129 122 110  89  81  67  62  62  64  61  61  57  54  53  57  61  59  57  59  56  53  56  68  71  67  67  67  66  70  73  69  62  61  72  97 123 129 128 124 124 130  83  53  46  46  45  45  46  45  44  45  43  43  42  41  43  41  42  42  41  40  38  72  92
  89  89  89  88  89  89  88  88  87  76  64  60  54  57  61  55  47  34  40  75  86 103 129 118 117 120 125 126 127 121 107  84  72  60  59  57  62  64  67  62  58  60  64  66  64  61  55  51  53  58  66  75  71  73  72  65  68  73  70  66  63  74  93 116 127 127 119 123 122  72  47  45  45  44  44  46  44  42  43  42  43  40  42  42  41  39  41  39  39  38  67  91
  90  87  86  86  83  81  79  80  77  76  72  71  69  70  69  64  40  29  40  56  82  96 128 120 117 124 128 125 128 120 102  85  74  71  68  68  68  71  73  70  69  67  69  71  72  68  61  56  62  68  70  74  73  79  80  76  71  71  72  75  76  86 102 120 130 130 112 119 126  74  49  44  44  45  44  46  43  41  44  42  41  41  40  40  39  40  40  39  38  38  68  91
  67  66  65  62  62  58  58  59  57  56  56  56  55  57  58  55  29  28  41  48  69  88 118 113 113 119 127 124 125 114  97  86  79  75  62  51  45  47  53  55  57  61  65  68  70  68  69  69  68  71  72  70  67  65  61  59  53  56  66  71  76  85  99 111 127 130 116 124 116 120  76  46  45  44  42  44  42  42  42  40  42  40  41  40  40  40  41  39  39  36  66  91
  57  54  54  54  53  53  52  52  51  51  52  52  53  52  55  52  25  32  41  48  47  63 116 108 111 112 117 124 120 113  92  81  75  66  59  58  59  50  50  53  54  49  46  48  53  54  57  59  59  57  53  51  47  49  55  57  60  68  68  69  74  82  94 106 119 122 116 118  96  86 124  84  47  45  44  43  43  41  44  41  42  40  42  40  39  39  39  40  39  38  64  88
  45  44  49  51  51  50  51  49  50  49  50  49  51  53  54  50  31  37  43  40  28  30 106 111 114 109 111 123 122 107  86  73  71  69  66  70  73  72  70  72  72  69  63  55  46  46  44  46  47  45  49  55  62  71  73  78  79  79  76  77  82  85  95 103 112 111 111 100  77  74  85 148  79  50  43  44  41  42  41  41  40  40  40  39  39  38  39  38  38  37  62  87
  45  47  48  52  51  51  52  48  49  50  50  49  49  51  53  53  40  43  39  27  22  27  94 108 118 102 110 117 119 105  88  77  72  73  74  78  83  84  84  80  74  72  71  66  61  59  58  57  57  61  67  75  78  84  90  97  94  90  88  88  88  89  92 103 104 104 111 108  76  52  66  82 161  74  49  45  44  45  43  43  41  41  40  39  39  39  39  38  38  37  62  87
  43  47  52  55  54  52  53  51  48  49  49  50  52  53  56  54  39  34  25  22  22  25  86  94 108 106 106 109 111  99  86  81  72  76  79  81  85  84  87  87  84  78  71  68  68  68  69  68  67  72  76  82  84  88  97  99 103 105 103 102  95  88  88 100  98  96  97  85  67  53  55  68 111 145  57  48  50  48  48  48  44  41  41  42  40  40  38  37  38  37  60  88
  46  53  55  57  56  56  57  56  52  50  51  53  53  54  56  52  25  20  20  20  23  42 128  92  91 102  91  99 104  96  84  82  73  74  80  84  85  88  90  90  86  82  78  75  70  72  74  74  74  77  80  86  87  89  92 101 110 114 112 107  93  85  82  91  86  85  90  79  56  47  47  62  86 195 206 184 176 163 150 100  48  46  45  42  40  39  39  38  38  38  57  88
  48  52  55  57  58  55  58  56  54  54  55  56  57  60  61  55  21  20  19  21  38 112 112  95  76  82  87  86  99 100  84  72  71  69  76  84  88  89  88  91  90  88  82  83  79  78  78  80  78  79  83  86  85  88  96 107 113 118 108  97  83  76  74  78  79  76  87  85  63  46  44  50  69 129 232 234 252 221 229 158 195 119  58  48  42  41  40  37  38  37  61  86
  49  53  54  55  55  55  57  57  56  60  62  61  63  65  68  60  21  20  20  20  96 119  94  98  73  70  80  81  94  96  81  70  69  66  70  78  87  86  91  91  88  85  79  77  74  68  72  69  69  70  74  80  86  93 101 108 112 111 107  92  74  65  61  64  65  67  80  83  51  45  44  46  60  93 196 244 241 237 218 202 152 200 193 138  63  48  43  41  39  36  59  88
  52  52  54  56  56  56  57  63  68  69  72  71  72  74  75  60  22  20  24  74 173  81  74 108  72  62  72  83  86  88  76  65  60  62  63  71  81  88  88  85  86  81  74  72  66  55  60  55  56  59  67  75  85  92  98 103 106 100  90  78  67  61  57  58  60  62  89  86  56  44  40  42  51  63 212 231 225 249 228 228 122 123 132 212 210 164  66  48  44  38  54  84
  51  53  52  54  56  58  59  58  74  88  83  82  82  83  83  66  24  23  26 144 105  67  52 116  74  58  57  71  82  88  72  61  58  57  60  63  72  79  80  82  78  75  70  66  59  51  47  51  50  55  62  74  81  91  98 102 100  88  76  68  59  53  51  53  54  56 101  93  57  55  43  40  42  58 117 205 229 229 238 206 163 131 149 124 175 179 226 182  70  48  46  76
  49  53  52  54  55  58  56  56  81  95  95  93  91  90  87  78  45  56 111 122 106  53  48 119  83  61  55  59  70  79  73  60  57  59  57  60  63  71  75  77  74  71  69  63  56  52  48  50  49  55  60  75  85  95 104 105  99  81  66  62  54  49  46  47  49  59 122 121  67  50  47  43  40  48  97 233 210 222 211 204 213 106 113  87 147 137 204 178 236 108  61  67
  50  51  52  54  54  56  57  56  89  98  98 101 102  97  94 103 157 109 168 113  91  42  46 114 102  65  49  52  67  71  68  58  52  53  54  58  59  65  70  74  75  73  71  62  59  55  50  51  54  61  64  83  98 108 108 106  95  75  64  57  49  47  44  49  51  73 140 133  81  52  48  45  46  45  55 170 218 217 204 246 180 141 131 130 116 102 103 149 171 222 206 139
  53  54  54  53  54  55  55  55 100 102  99 102 106 115 160 159 140  79 103 134  65  39  32 110 116  85  57  55  55  59  63  54  51  51  51  51  51  56  65  66  72  74  74  71  69  63  52  61  73  76  76  93 102 112 108 100  89  68  59  51  44  44  42  46  59  92 141 138  92  58  50  46  45  46  61 172 214 216 226 225 178 215 118 123  84 132 124 198 177 234 192 242
  69  58  56  56  55  54  56  63  99 103 108 156 143 185 115  68  62  83 109 125  61  35  34 101 120  90  68  50  52  52  55  54  51  53  48  48  48  47  57  64  68  72  74  79  80  75  67  74  95  93  86  96 103 107 102  89  80  61  52  47  42  40  40  46  66 107 140 129 103  68  51  48  45  48  58 117 211 205 208 221 223 175 130 162 127 139 138 149 179 184 222 239
 126  75  56  55  56  57  59  73 117 165 167 203  98  97  81  74  78 108 112 107  50  33  34  94 122 112  87  57  48  46  46  46  50  52  47  46  43  47  58  60  66  69  75  82  81  75  78  81 101 105  94  93 100 104  92  82  75  56  48  47  39  38  39  50  66 103 136 122 105  77  52  49  47  48  65 109 206 185 209 214 224 159 211 128 116  94 120 110 187 171 242 197
  78  67  60  60  61  68 144 170 214 200 152 172 124 117 120 123 105  87 129  90  42  33  32  85 123 116 103  79  47  39  38  43  49  48  46  44  43  51  52  56  63  70  79  85  78  78  76  90  99  99  93  88  93 102  95  81  70  54  45  42  37  36  40  53  83 104 129 120 104  87  56  49  49  47  55 100 188 186 154 209 228 180 177 114 168 116 138 162 191 209 213 200
 124  63  62  94 117 191 211 184 185 184 131 142 100  82 133 142 141 122 115  78  40  31  28  75 125 119 106  81  62  39  36  38  43  40  41  39  44  47  50  56  62  70  77  84  76  73  74  83  90  90  82  83  86  97  92  73  56  46  41  38  36  36  41  54 100 121 124 116 102  94  62  50  49  49  56 124 184 175 197 181 220 215 188 179 147 110 108 145 116 192 157 234
 126 130 170 182 163 178 208 164 162 133  70 102 152 136 193 120 122 104  79  65  39  29  26  62 125 121 110  92  57  41  36  39  35  37  38  38  42  45  45  52  59  69  72  77  71  67  68  78  86  79  77  78  79  85  78  68  52  45  40  38  38  35  43  71 110 117 116 112 102  99  71  50  47  49  55 116 161 192 172 184 212 230 172 177 106 124 102 137 140 200 166 204
 229 178 204 212 194 160 201 142 158 183 138 156 180 135 165 183 134 100  66  53  41  28  27  50 123 121 113 100  73  50  38  35  33  35  33  37  40  43  43  49  56  60  66  67  62  62  66  77  82  77  75  70  72  74  62  56  47  43  36  36  37  40  64 101 114 118 114 108 101 100  76  51  48  48  56 127 164 180 206 186 172 214 143 182 131 138 137 111 139 123 154 166
 223 191 189 182 211 126 197 133 179 160 114 154 165 140 122 150 126  64  62  47  36  27  27  48 113 119 113 103  83  66  44  36  35  32  37  33  39  42  44  47  51  53  57  54  51  56  65  72  68  74  62  62  60  58  54  49  40  37  34  36  35  46  88 108 110 113 110 107 101  98  78  52  47  48  53  95 164 230 175 182 206 206 213 141 124  98  97  73 153 112 168  94
 196 205 165 129 191 116 136  89 129 174 151 162 128 131 125  96 116  49  60  46  33  26  26  45  96 118 113 107  93  80  53  38  37  34  30  33  34  39  37  40  43  46  46  46  49  51  58  63  62  61  54  50  48  46  46  42  41  36  34  36  44  72 101 108 111 110 107 103 101  99  78  54  47  47  52  94 181 187 213 201 168 195 205 130 174  89 118 126 144 174 168 159
 181 198 161 118 129 144 184  92 115 173 128 150 103 118 148  88 109  52  54  41  32  26  26  47  80 109 111 104 100  87  74  58  39  33  30  30  34  32  32  35  37  39  36  43  45  46  49  53  52  47  42  44  38  37  37  36  37  38  38  38  66  94 105 107 108 104 105 103  99  97  82  53  46  47  53  62 174 200 196 184 209 204 190 112  95 124 126 183 156 185  89 116
 180 169 134 167 162 184 123 200 122 174  96  66  68  95  82  89  58  61  54  39  33  26  26  41  71  91 107 103  99  90  84  77  58  37  32  31  32  30  31  29  31  31  30  32  35  38  38  41  40  34  36  36  33  32  33  35  34  42  50  64  94 102 104 105 104 101 101 100  99  96  81  55  46  46  48  62 163 189 199 211 184 180 199 192 106 146 121 198 135 185 112 140
 181 170 193 127 138 118 210 149 175 157 101 128  69 135  79 114  66  67  54  41  33  25  27  37  65  77  91 100  95  92  85  86  77  67  52  41  32  31  32  30  28  28  29  30  30  31  33  35  34  33  32  35  32  33  34  42  55  58  73  86  96 101 101 101  99  99  99 100 100  98  81  58  46  46  50  56 113 188 188 176 205 201 188 202 109 158 139 189 144 114  87 107
 145 159 106 143 128 196 164 171 170 129 136  66  87 116  38  89  57  61  53  44  33  26  26  35  58  72  83  90  92  92  87  85  86  81  73  69  59  46  37  33  33  31  30  29  32  31  31  36  35  34  33  36  40  44  55  69  71  78  90  91  94  96  98  95  96  97  97  97  99  97  79  57  46  46  49  77 116 217 189 210 186 176 192 221 152 150 162 135 158 105  87 112
 108 123 182 147 125 188 158 182 146 126  74  80 119 114  51 124 101  57  51  43  33  27  28  32  51  68  75  82  91  92  90  88  87  85  84  83  80  74  61  54  54  56  57  52  49  49  44  46  47  46  43  49  54  60  76  78  83  87  91  93  93  93  93  95  95  95  95  95 100  96  77  55  46  46  50  70  62 182 193 165 207 220 222 191 195 122 214 108 126  87  71 109
 146 104 108 111 163 148 187 156 112 115  82  93 121  87  55  74  61  46  51  45  36  26  27  31  44  63  69  76  83  88  88  90  88  87  88  90  84  82  78  76  73  79  78  79  79  75  73  72  66  74  68  63  70  72  82  82  86  89  90  91  93  92  91  93  94  92  94  96 100  95  79  56  48  47  51  84  94 212 219 217 189 188 189 191 222 129 146 108  98 106  76 105
