P2
# Generated by OpenCV 3.4.0
92 112
255
 164 165 164 165 165 166 165 165 164 164 164 164 164 163 164 164 166 165 165 164 164 164 163 163 163 163 162 160 160 151  80  50  41  37  42  44  47  45  43  41  37  36  36  38  36  37  38  38  41  40  35  31  31  34  34  32  35  31  26  24  22  21  20  27  31  23  17  17  20  19  20  18  22  21  24  23  24  25  25  28  34  36  36  78 149 150 152 152 153 153 153 152
 164 163 163 165 165 165 163 164 163 165 164 164 164 164 164 165 166 165 164 164 165 163 163 162 163 162 162 162 158  98  54  47  41  45  46  44  47  46  41  39  37  36  35  37  37  37  36  36  36  40  38  33  30  31  35  36  35  34  32  27  26  26  24  25  26  26  18  15  15  19  21  21  22  22  24  22  24  24  24  26  28  32  36  36 117 151 152 152 153 152 152 152
 163 162 163 163 165 163 164 163 163 164 164 163 164 164 165 165 165 165 164 164 164 164 164 162 162 163 162 158 122  58  50  45  44  47  49  51  48  43  37  37  32  30  31  34  32  34  36  34  30  30  32  35  33  29  31  36  35  32  30  28  26  25  21  21  23  24  21  17  16  18  16  16  17  19  22  21  20  22  23  23  25  29  33  37  56 139 151 153 152 153 153 152
 161 163 163 164 163 164 164 164 164 164 165 165 165 165 165 165 164 165 165 163 164 163 164 161 163 162 157 132  62  48  45  41  41  40  45  46  41  35  36  36  34  29  29  31  31  31  35  36  33  28  26  32  30  30  30  29  30  31  27  24  24  23  19  18  17  19  22  20  17  18  16  16  17  17  17  16  16  19  22  24  28  30  29  32  39  93 149 154 153 153 154 153
 161 162 163 163 164 163 163 165 164 165 165 165 166 165 164 165 164 164 164 163 164 163 162 162 162 161 151  68  49  44  47  48  49  49  48  46  38  35  36  36  35  34  33  38  40  34  31  32  31  30  30  31  30  30  28  24  24  26  26  22  18  19  19  17  15  15  18  22  21  19  15  16  16  17  16  17  16  17  23  27  32  27  28  26  39  50 140 152 153 153 154 154
 162 162 163 164 164 163 164 164 164 165 165 165 165 164 165 164 164 164 163 164 164 164 162 161 161 160  95  52  44  43  45  45  47  47  44  43  41  38  37  34  32  31  32  40  37  32  31  32  32  28  29  29  27  26  27  24  24  21  18  19  17  17  17  15  16  14  16  18  19  23  17  16  15  13  14  15  16  16  22  28  28  28  25  23  34  39 105 149 154 153 153 153
 164 163 164 165 164 164 164 163 164 165 164 165 166 164 164 164 164 162 164 163 164 164 162 162 159 129  57  46  42  42  38  36  36  38  39  41  38  36  33  31  30  30  30  33  35  35  32  30  27  26  25  25  25  25  25  23  22  22  19  16  16  15  14  15  15  15  14  16  16  19  21  17  16  15  13  13  13  16  22  28  29  25  22  24  32  35  60 141 152 155 154 155
 164 165 165 165 164 164 165 164 166 165 165 165 166 164 164 164 163 163 163 163 161 163 163 162 158  85  53  45  41  37  33  33  38  40  38  38  40  38  34  31  30  32  31  32  33  36  34  30  26  25  24  22  21  22  23  20  19  18  18  17  16  14  14  13  15  14  13  17  15  17  16  16  17  17  14  12  13  17  22  26  24  20  20  23  30  35  52 103 151 155 154 154
 164 164 165 165 163 164 164 165 166 166 166 166 164 163 165 164 163 164 164 163 164 164 163 160 135  58  48  43  37  31  29  33  37  44  44  42  36  37  37  35  33  33  33  29  31  34  32  29  25  24  22  21  18  18  19  17  18  17  18  16  15  13  12  13  13  14  14  15  16  15  15  14  16  17  17  15  16  20  22  21  16  16  23  25  30  35  42  82 152 154 154 154
 164 165 166 164 164 165 165 166 166 165 165 164 164 163 163 164 164 164 164 163 163 163 162 159  87  56  48  42  35  32  33  36  45  42  38  40  38  34  35  35  31  29  25  24  27  30  28  27  26  24  23  20  17  17  18  16  17  16  17  15  15  15  13  12  12  12  12  15  13  14  12  11  13  15  17  18  18  17  17  18  16  18  24  25  29  34  37  85 151 154 155 155
 165 164 164 165 166 165 166 166 165 165 166 166 165 164 164 165 163 163 163 164 164 164 162 149  62  55  48  42  40  43  43  39  43  43  41  38  37  36  36  32  30  27  25  25  24  26  28  27  24  22  22  21  16  18  16  16  16  15  15  15  15  13  13  12  12  12  12  13  13  14  12  10  11  11  12  14  16  16  17  17  21  23  25  26  28  28  34  55 146 156 155 155
 164 164 163 164 165 165 165 165 165 165 166 165 165 164 164 164 164 164 164 164 165 164 161 119  57  55  50  48  46  41  40  38  39  39  37  36  36  35  33  31  34  33  32  29  25  21  23  28  28  25  20  17  16  19  20  16  15  14  14  14  14  13  12  12  12  12  11  11  11  12  11  11  11  11  12  12  12  15  16  20  22  25  27  26  28  27  33  40  86 154 155 156
 164 165 164 165 166 165 165 165 165 164 164 165 165 165 164 164 165 163 163 164 164 164 157  79  64  64  59  55  45  36  35  33  34  34  31  27  26  27  30  34  35  35  35  32  29  24  19  24  27  27  22  19  16  15  18  17  16  15  13  13  14  14  12  13  12  11  12  12  11  12  11  10  10  10  11  12  13  15  17  20  20  26  26  24  18  25  31  34  56 147 155 157
 165 166 164 165 164 164 165 164 165 164 165 164 164 164 165 164 165 164 164 163 164 161 107  63  60  66  75  55  41  38  40  40  41  35  32  29  29  31  34  33  34  35  33  30  28  25  24  23  21  24  26  23  19  15  15  15  15  15  13  12  13  14  13  13  13  10  13  12  11  12  11  11  10  11  11  12  13  15  17  17  20  25  24  19  17  23  30  38  73 150 155 155
 166 165 165 165 164 164 165 164 165 165 165 164 165 165 166 165 165 164 164 164 163 133  60  56  57  76  84  49  44  48  47  47  44  40  38  35  35  35  35  36  37  39  38  37  33  28  23  20  17  18  23  24  20  17  15  14  15  14  13  12  12  13  13  14  14  12  11  11  12  12  11  11  11  10  11  11  12  15  14  16  20  23  19  15  16  20  27  33  49 142 154 155
 164 165 165 164 164 164 165 166 166 166 165 166 166 166 166 165 165 165 164 163 161  81  53  55  69  98  81  51  52  53  49  49  49  46  43  39  36  39  41  43  40  39  37  33  32  30  27  26  23  17  19  20  18  18  16  15  14  15  13  13  13  13  14  14  14  13  11  12  13  12  11  11  10  11  10  10  11  12  13  15  20  19  18  19  18  17  22  31  40  81 154 156
 165 166 166 166 165 165 166 167 167 166 166 166 166 165 165 166 165 165 165 164 144  58  53  61  80 119  86  65  76  63  58  55  50  51  48  44  45  44  38  34  35  33  33  33  32  30  29  29  27  23  21  18  17  17  17  16  15  14  13  14  13  13  14  13  13  12  13  13  13  14  12  12  11  12  12  12  11  13  13  15  16  14  19  22  24  18  17  25  34  44 146 154
 166 166 165 165 165 166 166 167 168 167 167 166 166 164 165 164 164 165 165 163  88  59  61  71 101 133 101  85  73  70  67  59  55  51  49  48  49  44  38  36  34  32  30  31  30  30  29  28  26  24  21  17  16  16  16  16  16  16  14  15  14  13  12  14  13  12  14  12  12  14  12  12  12  13  13  12  12  12  13  14  15  16  18  19  18  16  18  22  33  37 125 155
 166 167 165 164 165 168 167 168 168 169 167 167 167 165 166 165 164 165 165 151  59  62  64  78 120 134 119  98  75  76  72  66  61  55  51  48  47  44  43  40  37  36  36  34  33  30  28  27  28  25  22  17  16  16  16  16  16  16  15  15  15  14  11  13  13  11  12  12  12  13  13  13  13  15  14  14  14  12  12  12  14  16  17  16  16  16  21  25  31  36 123 153
 166 166 166 166 165 168 168 169 168 170 170 168 169 168 166 165 168 166 164 117  60  59  62  93 134 137 130 110  93  85  79  72  68  62  58  54  51  47  46  45  43  42  41  40  37  35  33  30  28  25  23  22  19  17  17  16  16  17  15  14  14  15  12  13  11  11  11  11  12  13  12  12  13  12  12  14  13  13  14  14  16  16  18  15  15  17  25  26  29  44 140 154
 168 169 169 168 166 168 168 170 169 171 171 171 168 168 170 168 167 167 162  81  56  55  69 115 137 138 132 118 106  96  85  80  72  71  67  63  60  55  52  49  47  45  44  44  42  40  35  32  31  29  28  24  23  23  22  19  19  18  16  16  15  15  14  12  12  12  12  12  12  12  13  13  13  11  12  14  15  14  13  13  14  14  20  17  15  20  28  24  27  32  92 152
 171 171 171 171 169 171 171 170 170 172 172 173 172 171 171 171 169 167 148  59  52  60  84 130 139 136 128 122 114 102  90  85  82  77  73  70  67  60  55  52  50  50  46  46  44  40  38  34  34  32  31  29  28  25  26  24  24  23  20  19  17  16  15  14  14  13  11  13  12  13  12  13  13  13  12  13  14  14  12  12  14  18  20  15  16  23  33  28  27  31  61 147
 172 172 172 173 173 174 175 175 174 175 174 174 173 173 173 173 173 168 126  53  52  64 102 134 138 135 129 122 117 110 100  91  86  81  78  74  70  66  64  59  56  52  49  48  46  43  42  39  38  36  34  34  31  30  29  29  28  28  26  24  22  19  16  16  15  14  13  12  11  12  12  12  12  12  12  15  14  14  14  15  16  21  17  15  18  24  31  30  27  32  42 139
 176 177 177 177 179 180 180 180 178 180 180 180 180 180 180 179 176 171 106  55  52  72 119 137 137 136 131 125 118 112 104  98  92  87  84  78  74  73  70  65  62  56  53  52  49  48  44  43  42  41  38  37  34  33  32  31  31  30  29  27  26  24  21  18  16  16  14  12  13  13  12  12  12  13  12  13  14  14  14  14  17  15  16  16  20  25  30  34  27  30  42 137
 181 184 184 182 184 186 190 185 189 187 186 189 189 191 188 188 187 187  88  54  57  90 128 137 136 136 132 127 122 116 109 104  98  94  90  85  79  75  72  68  65  62  59  57  55  53  51  48  47  44  42  41  39  37  36  34  33  33  31  30  29  28  25  24  21  18  16  15  14  14  14  14  13  14  15  15  15  14  14  13  15  14  15  16  20  26  29  34  27  35  57 144
 193 191 192 191 194 195 196 196 198 199 197 201 203 202 203 202 202 201  66  54  63 109 134 137 136 137 132 129 127 122 115 109 104  97  91  88  84  79  75  72  69  67  64  63  59  58  56  53  50  48  46  45  42  41  41  39  38  36  36  34  31  30  28  27  25  24  20  16  16  16  15  15  15  15  15  15  16  15  14  14  13  16  16  18  21  26  30  31  26  34  61 143
 197 197 197 195 197 200 199 199 202 203 202 204 205 203 204 203 201 183  57  52  67 126 138 138 138 137 134 130 127 123 119 112 106  99  95  91  84  81  78  74  72  71  69  68  65  65  60  57  55  52  49  48  47  45  44  44  42  41  40  36  34  32  30  30  28  26  24  22  20  17  16  15  16  16  16  17  16  16  15  14  14  18  16  19  23  25  30  31  27  35  87 150
 190 191 192 194 192 192 196 198 197 196 195 197 199 197 192 193 192 154  53  50  90 133 138 139 139 137 133 130 127 122 120 114 110 103  97  92  86  84  80  77  74  71  70  69  68  66  64  62  59  56  55  52  50  49  47  48  46  44  43  42  40  36  34  34  32  28  27  26  23  22  20  19  18  17  19  17  17  16  16  15  16  19  17  19  21  25  30  30  28  38  69 153
 185 185 184 183 184 186 186 187 185 186 185 185 186 186 185 184 182 128  49  47 119 137 141 141 138 136 131 129 125 122 119 113 108 103  98  92  91  85  82  81  76  74  73  71  69  68  66  63  60  59  58  56  54  52  50  50  49  47  46  44  42  41  38  34  35  32  29  27  26  23  23  22  22  22  20  18  16  16  16  16  18  19  19  18  21  24  30  30  31  43  87 153
 177 176 177 178 179 180 179 178 180 179 179 179 179 180 179 178 174 109  46  62 137 141 143 139 136 135 131 128 125 121 115 112 106 103  98  94  91  87  83  83  79  78  77  76  73  72  69  65  63  62  61  60  58  56  52  51  50  51  48  47  46  45  42  38  36  33  32  30  29  28  28  27  26  24  22  19  17  16  16  18  19  19  18  18  22  25  28  28  33  44  98 152
 174 172 173 174 175 174 174 173 173 175 175 174 173 173 172 173 165  85  45  91 139 142 142 139 135 131 128 125 122 118 112 108 103 100  98  94  90  86  84  84  79  80  81  79  76  73  70  69  67  63  62  61  59  58  54  53  53  52  50  50  48  46  44  42  41  37  36  35  33  32  31  29  28  27  22  20  19  17  18  19  17  19  17  21  23  25  24  29  32  35 107 153
 171 171 172 173 171 172 173 172 172 172 172 172 172 172 169 166 147  64  44 121 140 139 137 134 131 127 122 121 117 113 108 104 100  98  96  92  90  89  85  85  82  81  80  77  76  73  70  70  68  65  63  64  60  60  60  58  54  54  51  50  48  47  46  44  42  40  38  36  34  32  32  31  31  28  24  22  18  18  18  15  16  17  18  21  21  24  22  28  32  46  93 154
 169 168 169 171 172 170 171 171 171 169 168 169 169 167 166 153 116  52  67 138 136 129 125 123 122 120 118 116 112 106 104  99  97  95  94  92  89  86  84  82  83  82  79  76  74  70  71  68  67  64  65  66  62  62  60  59  57  55  53  52  51  49  47  45  44  42  40  40  40  39  36  34  31  28  25  21  19  19  16  15  16  17  19  17  20  24  25  29  30  42 103 154
 166 166 167 168 169 169 170 168 167 164 163 165 165 165 162 140 113  75 103 127 112  93  91  96  98 104 105 105 104 101  98  95  93  91  92  90  90  88  85  84  81  79  78  74  72  71  71  69  69  66  65  67  65  64  62  60  59  55  54  53  51  49  48  47  46  45  43  42  41  41  39  36  31  29  25  22  22  18  16  16  17  19  20  16  20  24  26  29  28  39 127 154
 166 166 167 165 167 168 169 168 167  89  92 106 129 145 153 116  89  74  87  82  68  60  64  70  67  67  75  84  91  94  94  92  92  91  91  90  89  88  84  82  79  77  73  73  73  71  71  70  68  68  67  67  66  65  62  60  60  57  55  54  52  50  48  48  47  46  45  44  42  41  40  36  32  29  26  23  22  20  17  17  20  22  19  16  20  24  27  28  27  76 147 158
 166 166 166 165 166 169 168 167 162  50  84  45  45  48  56  62  62  67  64  58  53  50  48  46  46  44  46  56  68  77  83  88  86  87  86  85  85  83  83  83  80  75  71  73  73  73  72  71  70  69  68  69  68  63  62  62  61  58  56  57  54  52  51  50  48  47  46  45  43  42  40  38  36  33  29  27  23  21  16  18  21  19  17  18  20  23  25  28  31 132 152 157
 167 166 165 166 165 166 168 167 165 110  43  39  39  38  44  53  58  57  47  44  43  44  42  37  35  34  32  34  38  46  60  74  80  83  84  83  80  81  82  82  78  75  71  73  72  72  70  71  70  70  70  71  68  65  64  62  61  61  59  57  54  53  53  51  49  48  48  46  46  44  42  40  39  34  31  27  24  22  17  18  20  16  17  18  21  24  26  30  60 145 155 156
 165 165 165 166 165 165 166 166 164 163  83  38  36  95 150 149  79  92  90  86  66  48  34  33  33  34  33  29  30  32  39  52  68  76  79  79  77  79  80  79  77  74  73  72  72  69  69  71  71  71  71  69  68  66  63  62  62  60  59  58  57  54  53  52  51  50  48  46  46  45  43  42  40  38  35  28  24  21  17  21  19  17  18  19  23  23  27  32  91 151 156 157
 165 164 165 165 165 165 165 165 165 163  74  36 100 160 162 145  87 107  96  91  84  80  73  58  41  31  31  32  29  29  29  37  49  61  69  73  74  75  76  75  73  72  72  69  69  68  70  73  73  72  71  71  69  66  63  62  61  60  59  58  56  56  54  53  52  50  48  47  46  47  46  43  43  40  34  30  23  19  16  23  18  17  19  19  21  23  30  29 132 153 156 159
 164 164 164 165 165 164 165 165 164 160  45  58 158 161 162 127  98 109  93  82  74  72  72  68  61  54  40  29  26  28  28  30  37  46  55  60  65  70  70  69  70  69  71  69  68  68  72  75  73  72  71  68  66  63  63  62  61  60  58  56  56  54  53  53  53  50  50  50  48  48  46  47  46  43  36  28  24  18  18  24  17  17  17  20  20  25  30  63 148 157 159 159
 164 164 164 165 165 165 164 164 164 148  32 110 160 161 163 114 110 108  86  66  59  57  62  62  60  58  53  47  36  26  25  27  31  38  43  49  59  63  64  66  67  69  68  66  66  66  71  74  72  70  68  65  63  62  62  61  61  60  59  57  55  53  53  52  52  51  50  50  49  48  48  48  47  44  36  27  23  18  19  20  19  17  19  21  22  28  33 117 150 156 158 158
 164 164 165 164 166 165 165 165 165 120  42 149 161 161 162 111 117  96  67  47  42  36  37  39  41  46  49  48  46  42  31  25  25  28  35  41  49  56  62  65  67  65  64  64  63  65  70  70  69  65  63  61  61  61  61  61  60  59  60  57  55  54  53  53  52  51  51  50  48  49  48  48  47  45  36  27  23  18  18  19  20  19  20  23  24  27  68 143 155 156 158 157
 163 164 166 165 165 165 165 165 163  97  67 160 162 162 155 108 111  86  54  40  33  34  36  34  31  27  28  35  39  42  42  38  30  23  27  33  42  50  61  63  65  62  63  63  62  66  71  68  64  61  60  61  60  60  59  58  55  55  57  55  54  53  54  52  52  50  50  50  49  52  50  50  48  46  36  27  22  16  17  22  20  20  22  23  25  31 111 149 155 157 158 156
 164 165 165 164 165 166 165 165 165  80  96 160 163 162 149 122 117  88  62  52  47  58  60  57  48  34  23  22  25  30  36  39  40  33  23  24  31  44  56  62  64  63  63  60  60  68  68  62  60  56  56  58  57  58  58  56  56  56  54  55  54  53  52  53  51  51  50  48  49  51  50  48  49  47  36  27  21  17  16  22  21  20  23  21  29  63 144 152 155 157 157 157
 164 166 165 164 164 165 165 165 165  69 108 160 163 163 144 131 121 107  89  74  59  70  73  57  30  36  25  18  18  22  30  35  38  40  36  22  21  30  47  59  65  63  60  61  62  66  62  55  52  50  51  53  52  53  51  51  51  52  52  54  53  51  53  52  52  52  51  49  50  51  50  49  48  45  34  24  19  16  17  21  19  23  23  22  32 122 152 155 157 157 156 157
 162 165 164 164 164 165 164 164 163  59 120 160 162 162 150 134 126 119 110  82  69  70  76  63  27  24  30  23  21  26  32  34  36  38  44  32  20  20  26  40  54  58  55  58  62  59  51  46  42  41  42  43  45  44  40  42  40  37  39  44  48  51  52  52  50  51  52  50  49  50  51  50  49  45  33  22  18  16  18  20  20  23  22  26  63 143 152 157 157 156 156 156
 164 163 164 163 163 165 165 164 162  57 125 160 162 159 148 137 131 124 109  86  71  69  76  73  32  26  23  22  26  32  42  35  34  37  41  42  21  20  20  20  23  32  39  49  52  48  42  36  33  33  32  32  34  31  31  30  28  27  28  29  33  38  41  43  48  50  50  49  48  51  49  49  49  44  30  19  17  17  22  21  22  21  21  27 119 149 154 157 157 156 157 157
 164 164 166 164 164 166 166 165 165  66 122 160 160 159 144 136 133 125 108  89  76  71  72  75  58  33  25  27  32  45  45  36  33  40  44  44  20  20  19  18  21  24  20  19  24  26  27  27  26  26  25  25  26  24  23  22  21  22  20  20  20  21  25  29  36  41  44  46  48  48  48  49  49  43  27  18  16  17  20  21  20  23  26  58 146 153 156 157 157 156 157 157
 164 164 165 164 164 166 167 166 164  79 111 161 162 159 142 134 130 122 106  86  75  74  68  65  68  58  47  42  44  44  38  34  34  43  52  43  20  20  22  24  24  24  19  18  20  20  20  20  22  22  23  25  22  21  20  18  18  18  18  17  17  16  16  19  23  29  30  36  45  48  49  49  49  42  23  16  16  18  19  21  21  25  29 106 151 155 156 157 159 157 157 156
 165 164 165 164 164 167 167 167 164  98  98 159 163 155 138 131 125 120 106  89  73  70  69  63  59  56  54  50  49  47  46  46  48  55  58  36  20  24  39  51  49  36  22  19  20  20  25  30  32  32  31  32  32  33  31  30  28  27  22  20  16  16  16  16  16  21  21  25  39  49  51  49  49  40  22  16  16  17  19  18  22  27  49 137 154 157 157 156 156 157 156 156
 164 164 165 165 166 167 167 167 165 130  64 160 161 152 134 130 125 116 105  92  80  74  66  59  55  50  49  50  50  53  57  58  63  65  60  28  22  37  79  86  79  60  36  20  19  26  32  33  32  33  32  34  34  35  33  33  36  36  37  36  34  29  22  18  15  17  16  20  27  41  50  50  50  41  21  16  16  18  20  19  24  26 104 149 156 156 156 156 156 157 155 156
 164 164 165 165 166 168 167 167 167 160  52 143 161 143 131 128 124 112 101  92  86  83  78  70  64  62  59  59  59  57  61  60  66  68  46  23  28  85  99  95  85  68  46  21  21  31  32  32  30  31  31  31  32  32  31  32  33  37  40  41  41  39  36  32  28  21  14  16  19  28  39  49  50  41  20  15  16  21  20  18  22  51 142 152 158 157 157 156 155 156 156 156
 164 165 165 165 165 167 167 166 166 165  97  89 158 138 130 127 119 108 101  96  90  86  84  80  73  70  67  65  65  64  68  72  76  62  27  28  91 107 103  95  84  71  50  20  21  32  31  30  30  30  30  29  29  29  26  27  28  32  36  40  43  42  42  40  37  33  26  20  15  17  25  44  48  41  21  15  15  20  18  20  24  78 151 154 157 155 156 157 156 155 155 155
 165 164 166 166 166 167 166 166 168 167 158  53 126 131 124 120 116 108 103  98  93  90  89  84  79  78  74  73  75  81  82  84  74  36  25  86 109 106 102  94  83  72  50  19  22  30  30  31  32  30  29  28  28  28  27  24  18  18  21  26  32  36  39  39  38  34  31  30  25  18  15  18  31  39  18  14  16  17  17  22  24 113 151 155 156 155 155 156 157 156 154 155
 164 166 164 166 166 166 166 167 167 166 164 135  49 108 122 118 114 106 105 102 102  99  96  93  91  88  90  90  90  90  89  83  38  22  84 108 110 104  98  89  82  71  49  19  22  29  31  32  33  28  26  28  31  36  36  23  28  18  15  16  16  21  28  32  35  34  34  33  32  33  21  14  14  16  15  16  17  15  17  22  52 139 153 156 156 156 156 156 155 156 156 155
 163 165 166 166 166 167 167 167 167 166 166 163 103  47  89 113 115 109 107 108 110 108 105 100  99  97  98  95  93  93  88  44  20  68 107 114 111 106  98  86  80  69  47  19  21  26  30  32  34  31  28  28  33  43  37  19  18  20  16  15  16  19  17  21  28  32  35  35  37  42  42  17  14  14  17  18  20  19  19  27  48  90 143 153 157 154 156 157 154 156 157 154
 164 164 165 165 165 167 167 166 165 166 166 163 131 109  54  57  96 109 111 110 111 111 108 104 103 101 100  98  97  90  44  20  52 101 112 120 113 104  97  85  75  63  44  18  20  25  32  31  35  37  35  32  33  41  46  21  17  17  16  16  18  27  23  16  20  26  32  35  42  46  49  28  13  12  18  24  23  28  30  38  48  57  90 149 155 154 155 155 155 155 155 154
 164 164 166 166 167 166 167 166 165 165 166 162 132 127 124  88  49  50  82 102 113 111 106 106 105 102  98  97  71  30  24  38  96 105 116 118 111 103  92  82  72  57  42  18  21  25  34  33  33  36  36  36  37  42  44  30  20  18  18  19  26  33  29  21  18  23  28  34  42  45  49  37  14  14  17  18  26  32  37  43  46  47  60 145 152 155 155 156 155 154 153 153
 166 166 167 166 166 166 166 166 168 167 166 159 130 127 128 125 120  95  68  44  52  64  73  78  78  69  56  33  27  42  38  83 103 111 120 123 115 103  90  77  64  50  38  20  21  25  39  37  35  37  37  37  38  42  43  41  33  28  27  32  38  35  30  26  22  22  28  34  41  45  48  35  15  22  19  24  28  36  39  36  34  34  52 146 154 155 155 155 155 155 153 154
 167 166 165 166 166 166 167 167 167 168 167 160 129 125 124 126 123 119 113 108  91  76  58  53  51  52  60  71  74  59  81 102 111 118 123 125 113 103  88  72  60  46  37  20  20  25  41  41  40  41  40  40  40  40  41  43  43  42  42  39  37  36  32  30  29  28  29  35  41  44  49  33  16  30  21  27  31  33  32  30  32  34  78 149 154 153 156 154 155 154 154 153
 165 164 166 166 165 166 168 168 166 167 167 158 130 126 124 122 119 116 112 109 107 105 101  93  89  86  84  76  72  83 100 110 117 124 130 127 114 101  83  68  55  44  37  24  18  26  41  44  45  43  44  44  44  43  42  42  45  45  48  45  41  41  38  37  38  38  38  38  42  47  51  26  27  31  24  30  33  34  33  32  33  36 124 152 154 154 154 153 154 154 155 153
 166 166 167 166 166 166 166 167 167 167 166 156 130 126 122 117 113 112 109 105 103 100  96  90  85  79  78  75  81  98 111 116 125 133 139 129 115  95  78  64  53  44  37  28  16  26  39  42  46  45  46  45  45  46  46  44  43  42  43  44  42  42  41  41  42  44  45  45  45  50  50  20  41  29  26  32  36  38  34  33  36  63 147 151 154 154 153 152 153 154 154 154
 166 167 166 166 166 167 166 166 166 166 166 155 128 124 117 115 110 108 106  97  95  91  88  86  80  77  76  84  93 108 117 124 134 141 140 129 111  91  76  63  52  46  39  31  19  22  38  42  46  48  48  48  48  48  48  48  49  47  44  42  42  41  41  42  44  47  48  48  50  51  40  22  47  26  27  32  39  41  35  35  40 113 149 153 154 154 154 152 153 155 155 153
 166 165 165 166 166 166 166 167 166 166 166 151 126 121 113 112 109 104 100  96  92  88  83  79  74  74  88 108 116 117 121 130 141 142 139 127 110  90  75  63  52  45  41  36  25  17  35  43  47  47  50  51  50  52  49  49  50  51  49  47  47  47  46  47  47  48  50  50  51  49  26  37  44  26  28  32  40  45  39  41  77 147 151 153 153 153 154 153 153 153 153 153
 166 165 166 166 166 167 166 166 167 167 167 144 123 117 111 112 107 100  98  94  90  83  78  74  74  84 115 122 123 123 128 136 141 140 136 124 104  86  73  61  52  46  42  39  32  24  23  42  46  47  50  53  55  56  53  52  53  50  50  50  49  47  48  48  48  50  52  52  51  43  23  50  38  28  30  31  41  44  42  64 141 152 153 154 153 154 154 153 154 154 152 152
 166 166 166 166 166 165 166 166 167 167 165 137 124 115 111 108 101  96  92  89  85  81  77  74  80 109 119 125 127 126 132 137 140 141 133 119  98  82  70  58  49  46  43  40  34  31  22  29  46  49  51  54  58  58  56  56  58  56  53  53  51  49  48  49  49  49  51  51  50  25  40  53  32  32  32  33  42  46  58 138 149 153 153 154 154 153 153 154 152 153 153 153
 165 165 166 166 166 166 166 165 167 167 163 137 121 114 107 101  97  92  91  86  81  79  80  80  91 110 118 125 127 130 134 136 137 139 126 112  92  77  66  57  49  45  42  41  37  32  34  24  25  48  51  56  58  59  60  60  61  61  58  55  54  52  51  52  51  51  51  52  37  31  52  49  37  32  31  35  46  48 117 147 150 152 152 152 153 152 152 154 152 152 153 152
 165 165 167 166 165 166 167 166 167 168 165 141 118 108 106 100  90  86  85  83  81  82  83  86  94 100 106 114 124 130 134 136 140 134 121 104  88  72  61  56  50  45  44  44  39  31  34  42  33  22  40  55  58  61  61  61  61  59  60  56  55  52  51  50  53  53  52  41  26  51  55  44  34  30  32  40  48  71 143 149 151 151 150 152 152 152 153 152 153 154 153 152
 166 165 165 166 165 166 166 167 166 167 165 140 116 108 104  97  90  82  81  83  84  85  89  93  90  82  81  93 111 124 132 136 134 126 114  99  84  69  60  53  50  48  51  50  45  34  34  42  47  44  27  24  44  59  62  62  61  61  60  55  54  52  50  45  51  52  41  26  47  57  50  33  33  36  42  46  48 114 147 150 151 151 150 150 152 151 151 151 150 152 151 151
 166 165 165 166 166 166 166 166 167 166 165 138 112 108 103  95  92  85  85  85  87  91  94  96  91  74  56  59  87 110 124 128 126 119 107  92  76  64  54  51  50  52  57  57  52  38  35  42  46  49  53  47  33  23  32  48  57  60  61  55  53  53  51  49  46  32  28  46  54  54  38  35  45  46  42  44  67 142 148 149 148 148 147 147 148 148 150 149 149 151 149 150
 164 164 164 165 166 166 165 166 167 166 163 137 112 108 101  92  92  88  84  86  90  94  98  95  95  86  70  49  54  92 112 118 113 104  95  81  67  58  50  48  48  54  58  56  51  42  35  41  47  49  51  55  57  57  45  33  26  26  32  36  36  34  32  27  26  40  49  52  56  54  42  46  51  48  44  48 108 144 147 148 148 147 148 147 149 149 149 149 150 150 150 149
 165 164 165 165 166 166 165 166 166 167 165 139 111 107  98  92  91  86  84  86  90  95  98  96  94  88  79  64  53  68  93  94  91  84  82  70  58  50  46  45  46  51  53  53  48  41  34  43  47  49  51  53  59  60  59  57  57  55  48  44  40  39  41  46  49  51  52  54  58  50  47  47  51  53  55  69 138 145 148 146 147 147 147 147 148 149 148 150 149 149 149 149
 164 165 164 165 165 166 166 166 166 166 166 140 110 104  96  92  86  84  84  84  88  92  98  98  93  90  84  73  62  60  76  76  72  66  62  54  47  41  39  38  40  43  44  44  44  38  34  44  48  49  51  53  57  59  56  55  55  55  53  54  54  53  51  51  51  51  52  56  53  47  47  49  50  53  62 116 143 146 147 147 148 146 147 147 148 148 149 147 148 147 148 150
 165 165 164 165 166 167 168 168 168 168 166 144 110 102  94  89  87  85  85  87  92  92  98 100  96  94  91  82  71  65  64  63  57  53  48  44  40  33  28  26  26  31  36  37  39  36  36  45  48  50  52  54  54  55  54  55  54  55  54  53  52  51  51  51  50  51  52  57  48  46  46  49  51  54  88 140 144 146 146 146 147 146 146 145 146 147 147 147 146 147 148 148
 166 166 165 168 169 169 169 169 170 169 168 149 112 101  94  84  85  84  82  88  93  97  99 100 100 102  96  88  78  72  64  57  50  44  41  39  32  27  25  25  26  28  30  34  33  35  40  46  49  50  54  54  54  54  54  52  52  52  52  51  51  49  52  51  50  51  55  54  47  47  46  47  49  55 127 144 145 146 146 146 144 144 147 147 147 146 144 144 146 147 146 146
 166 165 168 169 170 170 170 170 169 169 168 158 110 101  88  83  85  77  73  78  87  95 100 100 102 103 100  93  82  77  66  58  48  39  37  34  32  29  26  26  25  27  28  31  32  36  41  48  50  53  53  53  54  55  54  51  51  49  50  49  49  47  51  52  51  53  59  48  46  45  46  47  48  88 140 145 145 145 145 147 144 145 145 146 146 145 147 145 145 146 146 147
 169 167 168 170 171 170 171 170 170 170 169 164 113  99  85  79  79  69  62  67  80  90  96 100 102 102  99  95  87  79  68  57  49  42  38  35  34  31  30  29  30  31  32  32  35  40  44  48  51  50  51  53  53  54  53  51  50  48  48  48  48  48  50  50  52  58  68  54  44  45  46  45  81 135 143 145 145 145 146 144 144 144 144 145 145 145 145 143 144 146 145 145
 167 167 169 170 170 171 170 171 172 171 170 168 120  99  86  78  71  59  52  53  68  84  92  96 100 100  98  95  91  78  66  56  50  46  47  45  40  36  35  35  34  36  36  37  40  42  46  48  50  52  52  53  52  50  50  51  49  48  48  48  48  48  50  51  55  61  95 133  85  67  82 114 138 142 144 145 145 145 144 144 144 144 145 144 144 144 145 145 146 144 144 144
 169 168 169 170 170 172 172 171 171 170 171 168 131  99  87  77  68  55  47  39  47  61  74  84  88  88  90  92  87  75  64  56  53  52  54  52  47  42  41  39  38  40  37  37  42  43  46  47  49  51  50  51  52  52  50  49  49  48  48  48  48  47  48  52  59  62 114 141 142 141 141 142 143 144 146 146 144 144 145 145 144 143 144 144 144 144 144 144 144 144 145 146
 168 168 169 169 169 170 171 171 171 170 171 169 140  99  86  76  68  60  54  53  52  40  47  56  61  66  68  73  75  74  68  61  56  58  59  55  50  46  44  43  41  42  40  40  42  43  46  45  47  49  51  51  51  49  49  49  47  48  47  48  46  47  48  54  60  61 124 142 143 144 143 143 144 144 144 146 144 144 144 144 144 144 144 143 144 144 145 145 146 145 144 144
 168 167 168 169 168 170 170 169 170 169 170 168 153  99  85  75  70  66  64  68  68  54  48  48  49  50  51  52  56  65  70  67  63  66  63  59  53  48  47  46  42  42  41  41  43  43  43  44  44  46  49  50  51  49  48  46  47  48  46  47  47  48  51  58  58  62 130 143 144 144 143 143 144 145 144 144 143 145 145 144 144 143 144 142 143 143 144 144 144 145 144 144
 165 166 168 168 169 169 169 170 170 169 169 168 163 104  85  77  72  69  73  77  78  69  60  53  44  42  44  47  46  47  57  63  64  64  60  57  53  49  47  47  45  45  44  44  45  45  43  45  47  47  48  48  50  49  48  46  45  44  45  46  47  50  54  59  56  74 136 142 143 143 142 142 143 144 144 144 143 144 144 142 143 143 144 142 144 143 144 144 144 144 144 143
 164 165 167 167 168 169 170 169 170 168 168 167 165 116  88  79  75  73  80  80  85  76  69  65  57  43  35  41  43  42  42  47  48  46  46  45  46  47  46  47  47  45  44  46  45  45  44  45  50  49  48  50  50  49  47  45  45  44  45  44  48  50  55  56  58  86 135 140 142 141 142 141 142 142 143 143 143 143 142 141 142 143 143 142 143 144 144 144 143 144 144 144
 163 164 166 165 168 169 169 169 167 166 166 166 164 130  88  76  78  79  81  80  86  85  74  70  71  68  52  39  36  38  41  38  35  33  33  35  35  36  40  44  46  44  45  45  44  43  42  44  49  50  50  49  49  49  47  44  45  44  43  45  48  53  57  54  59  98 136 141 140 139 140 139 138 141 140 141 142 142 141 141 139 142 141 141 141 140 142 142 144 144 144 143
 164 163 163 164 165 164 165 165 166 165 164 164 162 145  91  79  80  83  84  73  82  88  81  71  68  72  72  69  52  35  33  32  31  30  30  30  30  30  30  34  36  37  39  40  40  39  38  41  46  50  52  48  48  47  46  42  41  43  42  46  49  55  55  52  59 108 134 137 136 137 137 136 135 137 139 138 139 139 140 138 139 137 139 139 140 141 142 141 142 143 144 143
 163 160 162 162 162 162 163 163 164 162 162 162 161 156 100  82  81  86  85  83  85  89  84  77  67  68  72  71  69  59  44  38  30  26  26  25  23  24  25  26  25  25  25  25  26  26  25  32  42  48  50  48  49  47  44  42  41  42  45  47  50  52  52  54  61 116 133 136 134 134 134 133 133 135 135 136 137 137 137 137 136 137 139 137 139 139 139 140 141 142 141 142
 160 161 162 161 161 162 162 162 163 161 160 161 160 159 118  87  84  87  88  88  86  86  84  79  70  61  64  65  65  64  60  58  51  41  36  31  28  28  26  24  24  24  24  23  26  30  31  34  42  47  48  48  48  46  42  43  44  44  46  47  50  49  51  56  69 123 130 131 130 132 131 130 131 132 133 136 135 136 136 136 135 135 135 138 136 139 140 139 140 142 141 141
 158 159 160 161 160 160 162 160 161 160 158 159 160 159 134  90  86  88  88  85  85  85  81  78  71  62  55  53  54  56  60  62  57  53  46  41  38  37  33  30  29  29  30  32  37  36  38  42  46  49  49  48  48  44  43  42  42  44  47  48  49  49  52  57  74 125 130 130 130 129 128 128 129 130 132 134 134 133 134 134 135 136 133 136 136 137 138 137 138 140 139 141
 158 157 158 157 158 158 160 159 158 158 158 156 157 156 147  96  87  83  87  88  86  83  78  74  70  66  59  54  50  49  50  53  52  51  46  43  39  36  34  31  32  33  37  39  41  41  39  43  50  50  49  49  47  43  44  43  43  44  47  48  49  50  52  57  86 128 128 129 129 127 126 126 128 129 130 131 131 131 132 131 132 134 134 134 135 136 135 136 136 138 139 140
 155 155 156 155 155 156 156 156 156 156 155 156 156 153 151 108  90  82  86  87  87  83  79  72  68  66  58  54  51  49  47  45  44  42  40  36  34  33  33  34  38  41  41  41  41  41  39  43  51  51  49  47  43  42  43  42  42  44  46  48  48  50  52  59  99 127 127 127 127 125 126 125 125 127 129 129 129 130 130 130 131 131 132 133 133 135 134 136 137 137 137 137
 152 152 153 152 153 154 154 154 155 154 154 153 153 151 150 125  91  89  86  88  85  83  78  72  69  62  59  56  53  50  47  46  45  44  42  40  39  39  41  42  43  42  43  42  43  43  39  45  50  48  47  43  41  42  42  41  44  45  47  47  48  51  54  63 107 126 127 127 125 124 124 124 126 127 128 128 127 129 129 129 130 129 130 130 133 133 134 135 136 136 135 137
 151 150 150 152 152 152 152 152 153 152 151 151 151 150 149 139  91  92  90  89  84  79  75  73  69  63  60  57  53  50  48  47  46  45  44  42  42  42  42  43  42  44  43  42  45  46  46  46  47  45  43  42  41  41  42  42  43  45  47  47  48  52  54  63 119 125 127 124 123 125 124 123 125 125 128 127 127 128 127 128 127 128 130 130 130 131 131 132 133 135 133 136
 150 150 149 150 150 151 150 150 149 150 149 149 149 151 148 145  97  94  92  93  90  83  79  77  74  68  61  58  55  51  50  50  51  46  44  42  43  42  43  42  43  45  43  42  45  47  47  48  45  41  39  40  40  41  39  39  43  45  46  48  50  53  56  74 121 125 124 124 124 124 123 123 124 124 125 125 127 125 126 126 126 126 127 128 128 130 131 131 132 133 134 135
 148 149 149 150 151 149 149 149 148 149 148 148 148 147 146 143 105  91  91  93  91  85  83  81  81  77  68  64  60  56  54  53  51  48  45  44  43  44  45  42  42  44  46  43  45  46  46  46  45  41  41  40  39  39  40  41  44  46  47  48  51  52  56  84 123 124 124 125 123 122 123 124 124 124 124 124 124 124 124 124 125 124 125 125 127 128 130 130 131 132 132 133
 147 148 147 149 149 148 149 147 148 146 147 146 147 147 147 137 110  89  88  92  89  84  84  84  81  82  77  74  73  67  63  57  53  51  48  47  46  44  44  41  42  44  45  43  44  43  43  43  41  39  37  38  37  40  40  42  43  45  47  49  49  52  57  92 124 124 123 124 122 122 121 121 123 123 123 123 123 123 123 122 124 122 124 124 126 127 127 128 128 131 130 132
 146 147 147 147 147 146 147 147 146 145 146 146 145 145 145 131 113  93  91  90  89  80  81  90  90  86  83  78  76  71  69  65  59  55  51  48  48  45  44  43  45  44  45  45  44  44  44  43  39  37  35  38  38  39  41  42  43  47  48  49  50  52  56  98 122 123 123 123 122 122 123 122 121 121 123 122 123 123 122 121 122 123 122 122 123 125 125 127 127 129 130 131
 146 146 145 145 144 146 148 145 145 145 145 144 143 144 142 126 114  95  89  86  84  76  83  85  92  87  83  78  74  72  72  71  67  60  54  50  48  48  47  47  47  46  45  45  43  43  42  40  38  38  38  39  39  40  41  41  44  48  48  50  51  52  59 107 122 121 122 122 122 122 121 121 122 122 119 121 123 122 122 121 121 121 121 121 122 123 124 125 126 128 129 129
 143 144 145 146 145 146 145 144 144 143 143 141 142 142 135 122 112 100  84  79  79  74  82  87  87  82  81  77  71  70  70  70  69  61  53  51  50  48  47  47  46  44  46  44  45  43  41  37  36  37  40  40  41  40  40  42  46  48  49  50  52  52  58  88 117 120 122 123 119 121 121 121 122 121 120 122 121 120 119 122 120 120 120 121 122 122 124 124 126 126 128 128
 144 142 143 142 142 143 143 130 124 116 112 107 124 142 132 119 111 106  80  74  79  72  82  83  79  76  78  77  71  69  70  68  66  59  53  52  52  49  48  48  47  45  46  42  40  39  38  38  38  40  38  40  41  41  41  44  47  49  50  51  52  54  54  47  63  92 117 120 119 118 118 119 121 121 119 121 119 119 120 120 120 119 120 121 121 120 122 123 124 125 127 128
 143 143 143 141 138 117  82  62  55  46  46  52 129 138 128 118 109 107  87  70  72  74  75  74  72  69  69  66  65  68  67  66  60  56  56  52  49  49  47  47  45  43  44  40  38  38  36  34  37  41  40  41  39  41  44  46  49  50  50  50  51  53  48  36  45  52  52  66  92 114 116 117 118 119 117 119 119 118 118 119 118 117 118 120 120 121 121 122 124 124 124 126
 143 141 139 127 107  66  45  38  34  30  38 122 141 135 124 114 107 104  98  65  67  69  68  65  67  66  63  58  61  64  63  62  57  54  54  52  49  48  47  44  43  39  41  38  38  36  36  36  39  40  40  40  39  42  45  47  49  50  50  50  50  52  48  29  35  40  42  36  33  49  94 115 116 117 116 117 117 118 117 117 118 118 118 117 121 121 122 120 123 124 124 125
 132 121 115  96  86  38  26  31  30  57 131 139 138 130 123 114 107 103 100  83  62  62  61  60  63  61  62  58  57  58  58  56  53  51  51  49  47  45  45  42  41  40  38  37  36  38  38  39  40  39  38  38  41  43  47  49  49  50  49  49  51  52  50  29  33  36  38  37  31  35  36  62 104 117 116 116 116 116 116 116 116 116 118 117 118 119 118 121 121 122 123 124
  94  94  94  87  76  27  50  48  99 138 141 138 134 125 120 111 106 104 100  94  77  52  55  55  55  55  56  54  53  52  52  51  50  50  47  44  43  41  41  39  39  38  36  37  36  39  39  39  37  37  38  41  43  47  46  48  48  49  48  50  51  51  49  27  32  32  34  37  31  29  30  33  33  57  75  88 105 111 114 115 115 116 116 117 117 117 118 119 120 121 121 122
  89  86  85  86  72  60  44 108 135 139 139 136 130 122 114 112 108 103  99  95  93  71  50  51  47  48  50  50  49  50  51  50  48  44  42  38  38  38  38  36  36  36  37  37  38  37  36  37  36  39  41  43  45  47  47  46  48  49  49  50  51  52  46  29  29  30  34  35  30  27  29  30  30  32  36  37  39  52  71  99 112 115 115 115 118 116 117 118 120 119 120 123
  82  85  78  78  73  62  86 127 132 136 135 132 124 117 113 108 107 104  98  94  90  88  80  54  44  43  42  43  44  46  46  46  43  40  37  35  35  34  35  34  34  34  35  35  36  36  36  36  39  42  42  43  44  46  46  48  48  49  48  50  50  49  42  28  28  31  31  34  29  25  27  29  29  27  28  30  32  35  37  37  56  85 110 113 114 114 115 116 118 118 118 121
  77  79  74  75  72  61  94 120 123 127 128 125 121 116 112 107 108 105  98  92  91  90  88  82  69  55  46  39  38  39  40  40  36  35  33  32  32  31  31  34  33  34  35  34  35  37  37  40  42  42  43  45  45  48  48  48  47  48  47  48  49  49  38  29  28  30  28  30  25  22  24  24  24  26  25  27  30  31  31  33  36  37  44  74 104 114 114 116 116 117 117 120
  73  72  68  75  77  66  88 112 114 117 121 122 116 112 108 105 107 105  98  94  91  88  85  83  78  72  66  59  52  44  41  38  32  32  32  31  32  33  33  34  35  36  37  37  37  39  39  41  42  44  45  46  48  48  47  48  48  49  49  49  49  48  32  30  27  28  27  28  22  19  21  22  23  23  24  24  26  29  30  31  32  35  34  39  38  59  87 108 114 116 117 119
  67  72  65  66  75  70  81  98 105 106 112 114 113 110 108 105 106 104 100  94  88  88  86  84  79  74  69  68  65  63  58  56  51  46  45  45  44  43  41  40  40  40  41  41  43  42  42  42  44  47  47  48  48  49  48  49  50  49  48  48  48  45  28  29  26  28  27  26  17  18  18  19  23  24  24  25  25  26  29  30  30  31  30  32  35  33  41  43  65  93 109 114
  67  75  62  62  66  69  70  86  95  94 100 105 108 100 108 106 107 106  96  95  90  86  86  83  80  75  71  67  68  63  62  61  58  54  54  52  49  49  48  46  46  46  43  43  44  44  46  47  48  48  48  50  49  49  49  49  47  49  49  47  47  37  29  27  26  27  28  24  16  18  19  21  23  23  23  24  25  24  27  29  29  30  30  33  35  31  32  34  38  43  47  48
  65  63  62  61  60  65  65  72  84  85  89  97 105 105 107 106 106 105  98  94  90  86  83  82  80  76  73  69  66  65  64  62  59  57  55  54  52  51  51  49  48  48  47  48  48  47  47  48  49  50  50  50  50  51  49  48  48  48  48  48  44  29  28  27  26  25  26  21  16  20  22  19  20  23  24  25  26  25  26  27  27  30  31  31  32  31  32  31  33  37  38  39
  62  62  62  58  55  55  66  72  79  79  83  91  96 101 105 107 105 106 101  93  87  84  82  81  80  76  74  71  68  64  62  62  60  57  55  55  54  52  52  52  51  49  50  50  49  48  48  50  50  52  50  51  50  51  49  48  48  48  46  48  33  30  26  26  26  27  27  18  16  21  21  19  20  21  22  26  27  25  26  28  26  26  29  29  28  29  30  31  32  32  36  36
  52  63  59  55  55  54  58  62  72  74  81  86  89  93 103 106 106 104 101  95  88  84  81  82  80  75  75  71  68  65  65  61  59  59  57  55  54  54  53  53  52  52  51  50  49  49  50  51  51  52  53  52  51  51  49  47  48  49  48  38  30  30  26  26  24  25  25  20  19  20  19  19  22  22  22  23  26  24  26  28  28  27  30  30  29  30  27  26  30  30  33  36
