P2
# Generated by OpenCV 3.4.0
92 112
255
 164 164 164 162 164 164 164 165 164 164 164 164 163 162 164 163 163 162 160 109  52  45  47  50  53  56  54  47  45  40  36  38  39  35  30  30  29  29  26  24  24  25  27  26  26  26  22  16  15  17  21  24  27  19  16  15  16  18  21  20  18  22  18  17  18  18  25  30  35  38  28  27  37  45  51 102 155 159 159 159 160 159 159 159 157 156 156 157 156 155 157 155
 163 162 162 163 163 164 164 164 164 164 164 164 164 162 161 162 163 160 153  80  53  50  54  57  52  50  52  46  42  34  33  34  36  37  31  25  23  25  28  29  28  28  25  27  27  24  23  18  17  17  20  24  27  29  18  14  15  17  16  17  19  18  19  19  17  18  21  28  36  35  27  28  35  44  44  71 152 158 160 158 158 159 159 160 158 158 158 156 158 156 156 156
 162 161 161 161 164 164 163 164 162 162 162 163 163 163 163 161 162 157  95  69  59  52  49  47  51  53  52  50  46  39  35  32  35  36  35  30  25  22  25  25  26  25  25  24  25  25  23  24  22  21  21  19  24  24  24  19  17  17  18  16  15  16  16  16  15  16  20  26  33  26  25  30  32  34  39  49 136 155 159 159 159 160 161 159 158 158 159 157 158 155 155 155
 162 161 161 161 161 160 162 163 161 162 163 164 163 164 163 161 160 114  69  65  58  47  47  53  50  51  53  52  49  44  40  33  30  32  30  30  30  28  27  30  32  32  30  28  28  29  28  29  26  27  25  24  23  22  21  21  20  21  18  16  15  16  13  14  13  15  19  28  28  23  25  30  30  34  36  44  61 138 156 154 156 159 160 160 156 158 158 158 157 157 156 156
 160 160 161 160 160 160 163 163 162 163 162 163 163 164 163 161 145  65  65  56  50  48  51  52  50  50  48  45  42  39  37  33  32  26  29  28  27  28  29  29  29  30  32  30  31  32  34  32  31  29  26  22  18  17  16  16  19  22  24  23  21  17  16  16  15  16  20  24  22  24  27  31  31  31  31  36  44  81 151 154 158 160 158 160 158 158 160 157 158 156 156 155
 160 161 161 162 159 161 163 164 163 163 160 162 163 164 163 156  89  64  57  54  48  45  48  50  47  40  36  36  34  34  34  35  32  31  32  30  34  35  33  28  27  26  26  29  32  32  31  30  30  28  26  24  19  16  14  13  16  17  20  21  23  21  20  19  16  17  18  17  21  26  28  33  31  26  24  32  40  44 121 156 156 160 158 158 158 160 160 158 158 155 156 156
 162 161 163 164 162 162 163 163 161 162 162 164 163 163 161 120  67  59  51  53  40  36  36  36  35  33  30  30  32  32  29  31  30  32  32  32  32  34  36  33  30  27  27  26  30  31  29  27  24  22  22  22  20  17  14  13  12  15  15  15  15  15  17  18  18  18  18  19  21  26  27  30  30  24  20  24  30  45  89 155 158 160 157 156 155 159 159 157 157 155 156 157
 160 162 161 163 163 164 163 161 161 163 162 163 163 163 159  78  64  51  50  44  33  31  30  30  31  34  38  39  38  35  35  34  33  32  33  32  31  31  33  33  33  32  30  28  27  28  28  27  25  21  18  16  17  16  15  15  12  14  13  13  13  13  14  14  13  15  16  16  19  25  28  29  30  24  23  18  23  35  72 142 154 155 157 157 157 158 159 158 159 157 158 157
 162 163 161 162 163 163 163 162 162 163 163 165 162 161 142  60  55  52  48  35  30  30  28  31  32  35  39  39  40  39  38  38  36  35  33  35  30  29  26  24  25  28  27  27  27  27  24  21  22  20  17  16  14  14  15  15  14  13  13  13  12  11  12  12  12  12  12  15  19  24  25  26  27  23  25  25  24  33  44  90 152 156 159 157 159 157 159 158 158 157 159 158
 162 163 163 163 162 161 161 162 161 164 163 163 163 160 102  58  50  48  45  34  29  25  25  26  30  34  34  33  33  32  33  32  30  32  29  29  29  29  27  25  20  22  25  27  26  24  24  22  18  15  15  16  14  13  13  13  13  14  14  13  13  11  11  11  10  12  12  15  20  20  22  23  21  23  26  25  28  34  36  49 132 155 158 158 158 157 158 157 157 156 157 155
 161 161 161 161 160 161 160 161 162 161 162 163 162 154  62  49  44  45  36  29  30  26  26  28  30  32  35  35  31  31  32  28  27  26  27  25  29  32  29  26  25  25  26  24  23  25  22  19  20  16  16  15  14  13  12  11  12  12  12  13  12  12  12  12  10  11  12  16  17  18  19  20  19  24  24  23  25  33  36  42  94 147 155 155 156 157 157 157 157 157 158 157
 161 160 161 161 161 161 160 162 162 160 160 160 159 132  52  46  41  38  33  33  30  28  28  30  29  31  33  33  31  29  26  26  25  25  28  30  27  26  25  27  26  26  23  22  20  22  20  16  16  16  15  15  13  12  11  11  12  11  10  11  12  11  11  10  11  11  12  13  15  16  15  16  20  22  21  21  26  36  37  39  88 148 154 155 155 159 159 157 160 159 157 156
 160 160 160 161 161 161 159 160 161 160 160 159 156 102  47  44  38  36  32  31  29  28  28  30  34  35  32  29  29  31  30  29  27  29  31  34  30  28  27  30  25  23  21  17  17  18  17  16  14  15  14  14  11  12  13  12  11  11  11  10  11  11  11  11  11  11  12  11  11  15  14  15  17  19  22  22  26  35  37  37  66 149 154 155 156 156 158 159 157 155 157 159
 160 160 161 161 161 162 161 160 160 160 160 160 156  72  48  41  40  34  28  29  27  28  28  27  29  30  28  25  25  29  30  31  31  31  31  32  28  26  24  24  23  21  19  16  15  16  15  15  14  14  13  13  12  13  11  11  11  11  11  11  11  11  11  11  12  11  12  12  12  14  14  15  17  18  24  23  26  31  39  36  58 145 157 158 159 158 158 157 156 158 159 156
 160 161 160 160 162 161 160 159 160 160 160 159 137  48  43  37  36  29  27  28  30  30  31  34  39  37  32  27  26  28  28  26  24  22  25  29  29  28  29  26  21  21  22  19  16  15  14  14  14  13  13  12  13  12  11  11  11  11  11  11  11  11  11  12  11  11  12  13  13  15  14  15  16  18  26  20  24  30  38  37  48 136 156 159 160 159 155 157 159 157 158 158
 162 161 160 160 161 162 161 160 159 160 160 158 102  49  37  36  34  31  28  29  32  31  31  33  36  35  31  28  28  30  27  24  24  21  24  24  25  26  29  26  24  22  21  17  18  16  15  14  14  13  12  12  12  12  12  11  11  12  11  11  11  12  11  12  12  12  13  13  13  14  16  15  16  19  25  20  23  28  35  39  44 118 153 155 157 158 156 156 157 157 157 158
 162 161 161 162 162 162 162 161 160 161 160 159  64  49  34  36  33  30  30  30  30  29  27  28  26  27  30  30  30  27  23  22  23  26  28  26  24  24  24  23  23  22  21  20  20  17  17  18  16  15  14  13  11  11  12  12  12  13  12  11  11  11  12  12  12  12  12  13  15  15  14  15  17  22  24  20  21  26  35  40  43  98 151 155 155 155 156 158 159 159 158 158
 163 163 162 161 161 161 160 161 162 160 161 146  49  43  36  35  35  31  30  30  28  25  23  24  26  26  27  29  30  30  30  29  29  29  25  20  18  19  22  20  21  18  18  16  15  14  15  15  15  14  13  14  11  11  11  12  12  12  12  11  11  11  11  12  12  12  12  12  15  15  15  14  17  20  21  21  22  26  32  42  44  70 155 158 159 159 156 159 159 156 159 160
 163 161 163 162 162 162 161 160 163 162 162 152  44  38  36  38  35  31  31  30  26  24  22  23  27  29  30  30  28  27  27  26  25  22  19  17  17  17  18  17  21  22  21  20  18  19  17  15  14  14  14  12  12  12  11  11  12  12  11  11  12  12  12  11  11  12  13  13  15  16  15  15  16  16  18  22  21  25  31  37  40  53 139 159 160 160 159 160 160 160 160 158
 165 163 164 164 163 164 164 162 162 162 163 149  41  41  41  38  36  36  31  28  25  25  23  23  26  29  27  29  29  26  26  25  23  21  21  20  21  19  17  16  16  20  21  23  21  20  19  16  16  15  13  14  12  12  12  11  12  12  11  11  11  11  12  11  12  12  12  13  14  14  16  15  15  15  19  24  21  24  29  35  37  48 124 155 157 158 157 158 158 158 159 157
 165 165 164 165 165 165 166 165 166 164 164 152  41  42  36  38  42  37  31  29  28  28  26  24  27  30  29  28  27  27  26  26  24  22  25  25  25  25  21  17  17  17  16  20  21  23  21  20  18  15  14  14  12  12  12  11  12  12  11  12  12  12  12  12  12  12  12  12  14  16  16  16  15  16  21  24  23  24  27  30  35  44 121 155 159 159 161 160 159 157 159 160
 167 166 167 166 166 167 168 169 169 168 168 148  45  45  40  45  44  38  34  35  36  31  30  27  26  29  30  29  29  27  25  24  23  24  26  25  24  22  20  22  22  18  16  16  17  18  18  18  19  18  17  17  16  15  13  13  12  12  11  12  12  12  11  12  12  13  12  13  14  16  17  15  16  17  23  26  24  26  28  29  34  36 136 156 158 160 161 160 160 159 160 160
 169 170 172 171 172 172 173 174 173 172 173 145  43  42  42  46  48  49  46  47  40  31  28  27  28  28  25  24  23  21  21  22  26  26  26  25  26  26  28  28  23  21  22  20  19  18  17  18  18  19  17  18  16  16  16  15  15  14  13  14  13  12  12  12  13  14  14  14  16  16  16  16  17  18  26  26  25  26  28  29  36  51 151 156 158 160 160 160 160 161 160 160
 178 180 182 178 180 178 179 179 182 186 180 150  43  42  39  42  49  60  65  62  44  30  25  27  28  29  29  28  27  26  25  26  27  26  26  29  31  30  28  26  26  24  24  25  24  21  19  20  20  20  19  20  20  18  17  18  18  16  16  16  16  15  15  15  14  15  15  16  16  19  19  16  20  21  24  25  24  25  26  29  36  59 149 157 159 160 159 159 159 159 159 160
 187 188 188 188 189 188 187 188 190 190 187 165  41  41  38  42  54  69  79  76  35  29  30  31  30  31  30  30  31  30  30  29  28  29  30  30  29  26  27  28  26  25  26  24  25  25  23  24  22  22  23  24  24  24  23  23  23  21  21  21  18  17  17  17  16  17  19  18  18  21  19  17  21  25  23  22  24  23  23  28  34  72 149 158 160 161 161 161 160 160 160 161
 189 192 191 192 194 192 191 191 195 194 191 162  44  39  36  43  57  81  92  78  37  36  41  35  32  32  31  31  32  32  30  31  30  29  29  29  26  27  28  28  28  28  28  27  28  28  25  27  25  26  26  25  25  25  24  24  25  24  23  23  22  22  22  21  22  22  23  23  23  24  23  21  21  25  24  22  25  24  23  28  33  67 153 159 160 160 161 160 160 160 161 161
 184 185 186 186 187 188 188 188 189 190 188 142  44  36  38  46  62  89 101  81  43  44  39  33  32  34  36  37  37  36  34  34  31  29  30  30  30  31  32  31  31  31  31  30  30  30  28  30  29  28  29  29  28  29  28  28  29  27  26  27  27  25  25  26  25  25  26  27  27  27  24  24  22  23  20  21  25  26  24  28  33  72 155 160 161 161 161 161 161 161 162 161
 178 179 180 180 179 180 180 180 181 182 181 128  40  37  40  47  68  95 108 101  50  51  44  38  37  40  42  42  41  38  37  36  37  35  34  36  36  35  35  36  35  34  35  35  34  34  33  32  32  32  31  32  30  30  30  29  30  29  29  29  30  29  27  29  29  27  28  30  29  29  27  25  21  22  19  22  25  25  26  27  34  80 152 159 160 162 161 161 161 161 161 161
 172 172 173 173 173 173 173 175 175 173 170 103  40  40  41  49  66  94 112 106  81  64  54  47  48  50  50  49  47  44  44  42  41  40  41  41  40  40  40  38  39  36  39  38  37  36  35  36  34  33  33  34  33  34  32  32  32  32  32  29  30  30  29  30  31  32  33  32  32  30  27  24  24  24  20  22  24  23  28  27  34  98 152 160 162 162 161 162 162 162 162 162
 169 168 169 170 170 171 172 172 172 171 167  82  42  42  42  49  68  98 113 112  98  84  68  66  62  61  61  57  54  52  51  51  50  48  45  45  44  43  44  43  43  44  42  42  42  41  38  38  37  36  36  38  38  38  37  35  35  35  35  35  34  33  35  35  34  34  33  34  34  33  29  25  26  25  20  20  25  24  27  27  33 115 151 158 160 160 161 162 162 161 161 160
 166 167 167 166 168 167 170 169 170 169 162  76  45  39  42  47  69 100 114 114 107  97  85  81  76  70  68  64  59  58  56  56  54  50  52  50  49  46  45  45  46  46  45  44  45  44  42  42  41  40  41  41  41  41  41  39  40  39  38  39  40  38  38  37  38  38  38  38  36  35  31  28  28  24  21  20  26  23  25  28  39 136 154 161 162 162 162 162 162 161 161 161
 165 165 166 166 166 165 168 168 169 167 161  80  46  39  39  48  68 101 114 115 108 102  90  87  83  78  74  70  68  65  60  58  59  55  57  54  52  49  48  47  48  48  48  49  47  48  45  43  43  45  43  44  42  43  43  42  43  43  41  41  40  40  39  40  40  39  39  39  39  38  34  32  29  25  22  20  25  23  24  29  48 148 160 162 163 163 162 162 161 161 162 161
 165 165 165 165 164 165 167 166 167 165 160  87  43  36  37  47  69  99 112 113 110 102  92  90  86  85  81  78  76  73  70  67  65  63  59  56  55  53  53  51  52  52  52  50  49  47  47  47  47  47  46  46  44  45  46  46  45  45  43  44  42  42  41  41  41  40  41  41  41  40  36  36  31  26  21  21  23  22  27  30  65 156 160 162 164 163 162 162 162 161 163 161
 164 164 164 165 165 164 164 166 166 165 160  94  43  38  38  47  69  98 111 114 110 104 100  94  88  88  86  84  82  79  76  72  69  67  64  63  60  56  58  57  55  56  56  54  52  50  50  50  50  50  49  48  47  48  47  46  47  46  45  43  42  44  45  43  42  43  43  43  44  41  40  40  33  26  22  22  25  22  28  31  84 154 162 162 163 163 163 162 162 162 163 162
 163 162 164 164 166 165 164 165 165 164 160 105  44  39  35  45  70 100 112 114 111 108 105 101  94  90  88  87  85  81  79  76  74  71  66  66  66  63  63  60  59  58  58  57  55  54  53  53  54  53  51  50  49  50  48  47  47  48  47  45  45  45  45  44  44  44  44  45  45  43  43  42  36  28  24  21  23  26  28  28 111 152 159 161 162 163 163 161 161 161 162 162
 164 164 165 165 166 165 164 164 165 164 163 125  45  40  36  47  73 102 112 113 113 110 106 103 100  95  92  91  88  85  80  78  76  73  71  70  68  66  66  65  65  64  62  60  60  57  57  56  55  53  54  52  52  53  49  49  48  49  49  48  46  46  45  46  46  45  46  46  46  46  47  46  39  28  25  21  22  26  29  28 133 156 163 163 161 162 161 162 163 161 161 162
 162 163 165 164 164 166 164 165 165 165 162 133  44  38  37  48  77 104 112 113 113 110 107 106 102  98  97  95  92  89  85  82  78  75  73  70  71  70  69  68  67  66  64  63  63  61  60  58  57  56  57  55  54  53  52  52  52  49  51  50  49  48  47  48  48  47  47  47  47  48  48  47  42  29  23  21  22  25  28  40 146 160 162 163 162 162 162 162 162 162 161 161
 163 164 164 164 164 164 165 164 163 163 162 141  46  41  38  44  80 106 113 114 114 113 112 109 106 102  98  97  94  90  89  86  80  78  76  73  71  70  71  68  69  68  66  66  63  62  62  61  58  59  58  59  56  54  56  53  53  52  52  52  49  49  48  49  48  48  49  49  49  48  49  50  45  33  25  21  22  26  30  54 152 161 163 163 162 161 162 163 162 162 162 161
 163 163 162 162 164 164 163 164 164 164 162 152  48  40  35  47  88 108 115 115 114 114 113 111 109 106 101  99  97  93  89  87  84  82  78  76  71  72  70  69  70  68  66  64  64  65  63  61  61  61  61  61  59  59  60  58  57  56  54  53  52  52  51  50  50  49  50  49  49  49  49  51  48  33  25  21  22  27  30  69 150 162 163 163 163 163 162 162 162 162 162 161
 162 162 161 162 163 163 163 164 164 164 159 146  45  38  35  48  96 112 114 117 117 115 114 114 110 107 105 102  98  96  91  87  84  81  79  76  74  74  72  70  70  70  66  65  65  65  64  63  62  63  64  65  63  61  61  59  58  57  55  53  52  52  51  50  51  50  51  51  50  50  52  52  50  35  24  22  25  27  31  94 156 163 162 161 163 163 161 162 162 162 162 161
 163 162 163 164 163 164 163 163 164 163 159 145  43  39  34  47 100 112 116 120 119 116 114 113 109 108 105 101  97  94  90  86  85  83  79  78  77  76  73  72  71  68  65  64  66  66  65  65  65  65  66  67  62  62  60  58  58  57  55  54  53  51  51  51  51  50  50  51  51  53  54  52  50  38  24  22  24  25  31 105 157 161 162 163 162 162 162 162 162 161 162 162
 162 160 162 164 163 164 164 164 164 162 158 129  53  40  32  43 105 114 119 121 120 117 112 112 107 107 104 100  97  94  87  84  83  83  80  78  77  75  72  71  69  66  64  65  66  66  65  64  67  67  67  66  64  62  61  60  59  54  54  57  54  52  51  51  51  51  51  50  52  53  54  54  52  39  24  23  23  26  29 100 157 162 161 162 161 162 162 162 162 161 160 162
 163 163 163 163 163 164 164 164 162 160 148 113  63  56  36  52 111 116 120 121 120 116 113 110 106 104 102  97  94  90  86  84  83  81  80  78  76  74  71  70  70  65  64  65  64  63  62  65  68  68  68  67  62  61  57  56  56  54  54  53  53  51  51  50  49  51  53  51  52  53  54  55  54  44  24  23  25  28  28  91 158 160 162 163 162 163 161 162 161 162 161 161
 164 163 163 162 164 164 164 163 161 153 116 101  54  71  42  61 113 120 122 121 119 114 110 106 104 102  97  94  90  87  84  83  81  79  77  76  73  72  71  71  68  65  64  65  64  63  61  66  68  68  65  63  60  60  55  56  55  54  53  53  52  50  51  51  49  51  53  53  52  53  54  56  56  48  21  20  25  26  29  93 152 159 161 162 161 162 162 162 159 159 161 160
 162 161 163 162 162 162 163 160 162 148  89  86  65  66  46  69 115 121 121 117 106  95  95  91  88  86  87  84  83  83  82  81  77  76  75  74  72  69  70  68  66  64  64  62  61  61  60  66  67  64  63  59  56  56  54  52  52  54  51  51  49  48  49  49  49  50  52  52  51  52  55  57  57  52  24  17  23  25  35  59  81 137 160 161 161 161 161 161 160 160 160 160
 162 161 162 161 162 161 160 161 161 147  69  63  71  72  43  78 116 115 110  97  77  65  66  65  59  55  55  61  64  67  69  71  71  71  72  72  68  67  68  67  65  62  62  61  60  59  57  62  62  61  58  54  52  53  52  50  51  48  46  45  42  42  43  42  41  41  44  43  42  46  54  58  57  56  31  17  23  29  42  58  65  85 156 160 162 160 162 160 160 158 161 160
 161 162 162 162 164 162 162 161 161 150  67  51  60  49  28  83 110  88  74  65  48  44  48  44  37  36  32  32  34  37  40  48  55  64  65  65  64  63  63  61  60  58  59  58  57  56  54  60  62  59  54  50  50  50  51  47  44  41  37  30  28  28  27  26  26  26  28  29  28  31  43  51  55  56  37  17  22  33  47  55  48  59 150 159 160 160 161 161 160 158 159 159
 161 161 163 163 162 162 164 164 162 150  69  54  52  52  48  81  96  66  55  47  43  39  35  31  29  28  26  25  24  26  28  29  33  42  48  53  54  53  56  55  55  55  56  54  54  53  54  60  59  56  50  46  46  46  44  41  34  32  26  22  21  19  19  17  17  17  19  21  22  24  27  33  44  53  41  18  17  28  45  40  37  59 151 159 160 160 161 160 159 157 158 158
 160 160 162 162 162 162 163 163 161 157  79  58  53  60  50  83  96  69  64  59  55  53  46  42  33  31  28  28  26  25  26  24  24  28  36  38  40  44  48  51  54  55  54  53  53  52  53  57  56  50  46  40  37  37  34  32  26  24  21  17  18  17  18  18  17  18  19  21  23  24  25  27  32  48  45  21  26  24  32  34  37  76 152 158 161 160 158 159 160 160 157 158
 161 161 162 160 161 162 163 164 163 117  71  54  53  51  47  40  32  34  28  21  22  25  24  24  22  23  22  24  25  24  25  25  24  24  27  29  32  33  38  45  50  53  53  53  52  52  52  55  51  43  37  33  30  27  25  24  22  21  20  18  18  19  18  19  19  17  19  18  18  18  19  20  23  30  36  23  27  31  33  44  43  92 153 158 160 159 160 160 159 157 155 156
 161 161 162 161 162 162 162 164 162  73  51  38  27  25  26  23  40  63  70  75  73  71  68  63  56  53  48  42  35  30  27  23  22  21  21  22  25  28  31  38  45  51  51  54  52  50  52  53  46  37  30  28  25  22  21  20  18  16  17  18  21  24  25  28  28  31  32  31  31  28  28  28  24  15  17  17  16  17  20  23  37 114 154 158 159 159 159 158 157 157 157 156
 162 161 162 161 162 162 162 161 160 100  32  26  25  25  30  62 100  86  85  76  66  59  53  49  46  45  44  42  38  38  36  36  35  34  31  25  20  20  20  25  32  42  50  51  48  46  48  44  36  29  24  21  18  17  18  21  27  31  30  29  32  34  35  37  38  40  38  38  36  37  40  44  50  47  27  16  15  16  23  22  37 143 156 158 158 158 156 155 156 154 154 155
 162 160 162 162 163 162 163 162 161 160 155  75  25  24  54  65 103  88  80  66  51  42  35  29  27  25  26  26  22  23  23  25  28  31  33  31  31  26  19  17  18  20  24  27  28  26  23  21  20  19  18  16  19  23  28  27  29  29  29  27  27  26  26  26  26  29  29  31  33  37  41  46  50  56  50  24  15  15  21  32  84 150 155 158 158 156 155 155 156 156 155 154
 161 161 161 160 161 162 163 163 163 162 160 129  24  53  72  72 105  92  77  56  39  32  25  27  33  34  32  25  21  19  19  19  22  28  29  30  30  31  31  20  17  17  18  18  19  16  14  14  16  16  18  26  25  25  25  24  26  25  23  21  16  14  14  14  14  17  17  19  25  30  36  42  47  57  55  30  18  16  40  44 140 153 156 156 158 158 154 155 156 155 155 156
 162 162 160 162 162 161 163 164 163 163 160 144  25  88 101  72 109  97  80  55  38  35  38  47  49  52  36  24  27  26  19  19  24  30  26  25  31  32  35  31  16  17  17  17  18  16  13  14  14  16  26  28  26  25  24  24  24  27  32  27  20  18  15  14  14  21  25  18  18  25  29  40  46  55  57  29  22  19  46  70 150 154 155 156 158 156 155 154 155 154 155 154
 161 161 161 162 162 161 161 163 163 162 160 150  28 102 124  74 111 104  93  78  67  56  47  49  51  58  46  23  22  19  18  23  28  33  27  25  28  39  40  42  17  16  19  31  37  38  27  16  14  17  28  27  27  27  24  25  29  35  38  29  21  18  15  15  15  26  28  22  23  25  30  38  46  55  58  30  27  22  48  96 150 154 154 154 156 156 156 156 154 153 153 153
 161 162 162 161 162 162 161 163 163 162 162 157  35 105 140  89 111 107 103  98  86  71  55  52  52  62  64  34  24  22  23  26  32  30  27  30  35  47  47  47  18  17  32  58  70  64  48  26  15  20  28  28  29  24  24  25  28  35  42  35  20  16  16  17  22  30  27  27  30  33  36  43  49  55  58  37  31  26  50 110 151 155 154 155 155 155 155 154 153 153 152 153
 162 162 161 162 163 162 162 163 162 163 164 160  51  97 152 110 113 112 110 108  97  81  62  54  54  58  63  57  40  32  33  36  37  35  37  44  51  53  52  42  18  20  53  89  90  80  64  40  16  20  29  28  30  29  28  27  27  31  37  39  29  20  19  24  28  30  29  31  35  39  44  49  52  56  57  42  32  29  47 125 152 153 154 156 154 154 155 154 153 154 153 152
 162 163 161 162 163 162 162 160 161 162 164 160  73  85 154 122 115 113 110 110 101  86  71  61  57  56  53  53  51  46  43  39  38  39  45  48  51  54  54  32  17  25  85 102  99  86  74  56  22  19  27  29  29  31  32  31  30  32  33  34  34  33  32  33  33  33  35  37  40  44  48  52  54  58  58  45  30  31  54 142 152 154 154 154 154 154 154 153 153 154 152 153
 163 163 163 163 162 163 162 164 164 163 162 161 104  62 154 134 119 112 109 112 106  91  74  63  59  58  56  53  50  45  39  39  40  44  46  48  54  57  45  26  15  62 109 109 101  92  82  67  33  17  21  30  29  30  29  31  31  31  32  31  33  34  35  39  39  37  37  38  41  47  51  56  57  60  55  44  27  39  71 147 153 154 154 155 154 154 154 152 153 153 153 151
 162 162 162 163 164 163 164 162 162 162 163 162 132  36 148 142 122 114 111 109 105  95  84  71  61  57  56  52  48  47  47  50  50  52  51  57  63  67  33  25  25 100 111 107 101  91  83  71  44  16  18  30  33  31  33  33  35  34  33  33  33  33  33  35  35  37  39  42  45  48  52  57  57  59  59  51  22  51  88 146 154 154 153 153 153 154 153 152 153 153 152 152
 162 162 163 163 162 162 162 163 162 162 162 162 158  45 118 143 122 114 110 108 106  97  89  80  72  70  67  64  62  59  56  55  56  59  65  71  73  70  29  18  59 104 111 106 103  91  83  72  52  20  18  24  35  37  36  37  38  36  36  37  38  38  38  40  42  42  43  45  47  48  51  56  58  60  58  48  31  66 109 149 154 153 153 154 153 154 153 153 153 152 153 152
 161 162 162 162 163 162 164 162 162 163 163 162 160  92  69 142 118 112 109 108 105  99  92  86  79  74  72  71  67  64  63  64  68  72  78  79  79  50  33  22  92 108 110 108 105  96  84  71  54  30  16  21  35  39  40  41  42  42  42  42  42  43  44  44  44  46  46  47  48  51  52  55  56  59  57  35  43  65 135 151 153 153 153 153 153 153 153 154 152 152 152 152
 163 163 162 162 162 162 164 163 162 163 162 163 161 135  35 122 113 112 109 105 107 102  96  90  84  78  75  74  73  72  75  80  85  86  85  85  79  40  23  51  96 107 114 108 102  96  84  72  54  39  15  20  32  41  42  42  44  44  47  45  44  44  45  45  48  49  49  49  50  51  53  55  56  60  54  28  54  64 143 151 152 152 153 154 153 153 154 152 153 153 153 152
 163 164 164 164 162 163 163 161 163 163 164 164 163 152  62  60 121 111 108 106 104 102  98  94  89  86  86  85  86  87  89  93  93  90  87  86  65  33  20  80  94 105 111 108 104  94  82  68  54  40  24  16  25  38  40  42  45  47  47  48  48  47  48  51  51  51  51  51  49  48  51  53  55  60  38  40  59  72 146 151 152 154 154 154 154 153 153 153 153 153 153 152
 163 161 163 162 162 163 162 162 162 162 163 164 164 161 117  38  82 113 105 100 100  98  96  94  93  93  94  94  95  94  95  96  94  91  89  83  42  20  43  92  97 105 110 111 105  96  85  70  54  42  32  18  17  32  39  42  45  46  48  51  51  50  50  50  50  49  49  50  49  49  50  52  56  50  30  49  56  91 147 152 153 154 153 154 153 152 152 152 152 152 152 151
 162 162 162 163 163 163 163 164 164 162 162 164 164 162 154  91  33  70 101 101  97  97  97  96  94  96  99  99  99  99  98  96  94  91  88  43  20  33  72  96 101 105 110 112 107  98  87  72  57  45  37  26  16  19  37  40  43  44  48  50  50  51  51  52  51  51  50  49  49  51  51  51  45  31  46  53  59 137 151 153 152 152 152 154 153 153 153 152 152 152 153 152
 162 162 163 163 163 162 164 164 164 163 163 164 164 164 160 158 125  42  49  87 100  97  97  98  98  97 101 102 102  97  97  95  89  68  32  26  41  52  89 100 104 106 110 113 108 100  86  74  61  50  43  36  26  20  18  36  43  45  47  50  51  53  53  54  53  52  50  50  49  50  48  36  31  50  49  54 121 149 152 152 152 152 151 153 153 152 153 152 152 152 152 152
 163 162 162 161 162 163 163 164 164 163 164 164 164 165 165 163 160 114  66  35  41  70  87 100 104 100 105 103 101  92  76  56  25  23  45  57  51  75  96 102 105 107 112 115 111 101  87  76  64  53  48  43  34  30  29  18  21  37  44  47  52  52  53  53  52  52  51  48  42  34  29  38  54  72  88 132 148 151 151 151 152 151 151 151 151 150 152 152 152 152 152 152
 164 163 162 163 163 163 163 165 165 163 164 164 165 165 165 164 162 132 106 103  84  62  44  33  31  31  31  31  30  30  36  46  56  66  60  53  61  84  99 104 107 109 113 118 112 103  90  80  68  61  51  45  40  31  33  36  35  26  22  22  24  31  31  33  30  26  25  28  31  43  48  52  58 121 145 148 150 150 151 149 150 150 150 151 151 150 151 152 150 151 150 151
 163 162 163 163 163 163 165 165 165 166 166 164 165 165 165 163 163 138 107 105 103 101 100 100  93  84  80  78  77  75  71  66  65  60  57  56  71  90 103 105 108 112 113 118 114 107  95  82  71  62  54  48  44  36  29  34  40  43  45  47  46  44  43  43  45  48  50  51  50  50  52  54  65 135 147 150 149 148 149 149 148 149 148 147 148 148 149 148 150 150 150 151
 162 162 162 163 164 163 165 166 166 164 164 164 167 165 166 166 163 151 109 106 103 102 103 100  96  90  86  79  76  73  70  69  65  59  59  68  89 101 105 106 108 113 116 117 115 108  96  82  72  63  56  50  51  49  36  32  40  45  47  50  50  53  51  51  50  50  51  51  49  50  51  54  84 142 147 149 149 148 149 149 149 148 147 149 150 150 150 150 151 149 151 150
 163 163 163 164 164 165 168 166 166 167 168 168 167 167 168 168 165 161 121 108 106 102  98  96  93  89  87  79  76  74  70  67  64  61  66  88 102 106 107 106 108 110 116 117 118 109  96  83  72  63  58  56  60  58  51  36  37  44  48  51  54  56  54  54  54  50  50  50  51  50  51  57  96 144 148 149 148 149 150 147 148 148 149 148 149 149 148 150 150 151 151 151
 164 164 166 166 164 168 168 169 168 168 168 169 169 169 168 167 168 164 133 108 104  99  94  93  91  88  84  80  77  74  70  67  63  65  74  99 105 111 108 106 108 111 113 115 116 107  96  82  70  63  59  60  65  62  55  43  36  40  45  48  53  55  54  54  55  50  51  50  50  52  52  57 110 144 147 148 148 148 148 148 149 147 146 147 147 148 149 149 148 149 149 149
 165 166 166 166 166 169 170 169 169 171 170 170 170 170 169 169 169 165 143 108 102  97  91  90  90  87  83  80  77  74  70  64  64  68  79  98 103 109 110 108 107 108 112 118 117 107  96  83  70  65  58  59  65  64  55  46  37  42  45  48  50  52  52  54  52  51  52  50  50  50  52  57 127 144 148 148 148 148 148 148 148 148 148 147 148 147 148 149 149 149 150 149
 164 166 167 166 168 169 170 170 170 170 169 170 169 169 169 168 169 167 154 104 100  95  90  90  90  87  80  77  74  72  68  66  67  72  81  94  99 104 106 108 106 107 112 117 117 106  95  83  68  61  56  55  60  56  50  43  38  42  46  49  49  49  52  52  52  51  49  50  49  49  51  67 134 145 147 147 149 149 147 147 147 148 147 148 148 148 148 148 148 147 148 149
 166 166 168 169 169 171 170 170 170 171 171 170 170 170 169 169 170 168 158 104 102  96  91  88  88  82  76  76  73  71  68  68  70  74  77  85  87  89  95  99 102 105 111 114 111 104  95  82  66  58  50  48  46  43  41  39  39  43  48  47  48  48  49  50  49  48  47  48  48  49  53  77 140 145 146 147 148 146 148 148 148 147 148 148 148 148 148 148 150 149 149 148
 165 167 168 167 170 169 170 171 170 170 170 170 170 169 170 170 170 167 165 119 102  96  91  85  82  80  78  73  72  70  71  72  74  78  76  73  67  64  71  80  90  97 105 108 105 100  91  75  60  52  43  36  30  33  33  34  42  45  48  48  48  49  49  49  49  47  45  47  48  50  57  93 141 144 147 147 147 147 146 147 147 147 148 148 146 147 147 148 148 148 148 149
 166 167 168 168 168 170 170 170 169 170 170 170 168 169 169 168 168 168 164 139 101  95  89  85  83  78  74  70  70  71  73  76  79  82  82  77  65  57  47  50  66  80  91  98  96  87  78  67  53  43  31  24  26  29  31  36  42  46  47  48  49  49  48  49  48  47  46  46  47  51  57 111 141 144 146 146 147 148 146 148 147 146 146 147 147 147 147 147 148 148 148 148
 166 166 166 167 168 169 169 169 168 168 168 167 167 165 166 167 167 166 163 152 102  92  88  85  84  81  79  75  73  72  75  78  82  85  85  80  73  66  59  51  51  61  75  80  79  69  63  53  44  33  26  26  27  30  34  40  43  47  47  48  47  48  48  48  48  48  46  46  48  51  60 129 143 144 146 147 146 148 147 147 146 146 147 147 147 147 147 146 147 147 147 147
 165 166 165 166 166 167 169 169 167 166 167 167 167 166 166 166 164 165 164 160 111  91  90  87  86  81  80  78  75  74  75  80  85  89  87  85  76  70  69  65  61  57  58  65  61  55  49  44  38  31  28  30  32  34  36  39  43  44  45  44  44  47  47  46  47  47  47  47  48  51  71 135 143 146 146 146 147 146 146 146 146 145 146 145 146 148 147 146 147 147 147 148
 164 165 165 165 166 166 167 167 167 167 166 166 165 165 165 164 163 163 164 161 128  95  90  88  85  82  80  78  74  72  74  76  81  85  88  87  77  76  74  71  68  64  59  54  52  46  41  38  36  34  33  33  35  37  38  41  42  44  44  44  41  44  47  45  47  47  46  47  48  54  88 137 142 142 143 145 145 145 146 144 144 146 145 146 146 146 146 146 147 147 148 147
 163 164 165 164 165 165 166 165 166 166 165 164 164 163 164 164 163 164 162 159 142  98  90  86  86  82  79  76  75  75  77  81  83  86  88  89  86  82  80  76  73  70  64  56  49  44  39  40  40  38  38  36  37  41  41  41  41  42  42  45  46  43  46  46  47  47  46  47  48  54 112 137 140 141 142 143 144 144 145 145 145 144 145 145 145 144 146 145 145 145 146 147
 162 163 163 163 163 162 163 163 162 163 163 161 160 162 161 161 160 160 162 158 153 110  92  86  86  82  78  76  76  77  77  84  88  89  90  90  88  86  81  79  76  73  67  57  50  46  47  49  48  44  42  42  41  41  42  43  44  45  43  43  46  47  47  45  47  47  46  48  49  63 130 136 138 139 140 141 142 144 143 143 144 144 143 143 143 144 146 145 145 147 146 147
 160 162 161 161 161 162 161 161 161 162 162 160 159 160 160 158 158 160 161 158 154 129  93  90  87  83  77  74  76  72  68  71  77  81  87  88  88  87  82  79  78  75  65  57  50  50  52  56  55  50  44  43  42  43  44  45  44  44  42  41  43  46  47  47  47  47  45  48  51  92 130 134 135 137 137 139 140 141 140 141 142 143 142 142 143 144 145 144 144 146 146 144
 157 159 159 158 159 159 158 160 157 160 159 157 158 157 157 157 157 157 158 156 154 141  97  89  88  81  75  75  74  65  59  57  63  72  78  81  83  84  81  78  78  75  67  59  54  53  54  58  57  53  47  44  43  44  42  42  42  40  40  38  40  44  46  48  48  46  46  49  58 110 129 132 133 135 136 137 138 140 140 140 140 140 140 141 141 142 144 144 144 144 145 145
 156 156 157 157 156 156 156 156 156 157 157 157 156 156 156 156 156 155 155 154 153 143 106  89  87  80  74  74  69  57  48  43  44  54  60  68  69  70  70  65  64  63  58  57  58  54  57  58  53  47  45  40  40  41  39  39  36  33  29  28  34  40  44  47  46  46  45  49  64 117 129 129 130 131 134 136 137 138 138 139 137 138 139 139 140 141 142 142 142 142 143 143
 155 155 154 154 154 155 155 154 154 156 155 154 154 153 152 154 154 153 153 151 152 143 111  92  88  83  77  73  65  53  46  43  47  45  41  41  44  46  48  46  46  44  44  45  48  49  47  43  37  33  32  31  30  31  29  24  23  27  30  31  36  41  46  46  47  45  48  51  67 120 126 128 129 130 133 134 135 136 137 138 136 137 137 137 139 140 141 140 141 142 142 143
 153 153 151 152 152 152 152 151 152 152 153 152 152 153 152 150 150 150 150 148 147 143 113 102  87  83  78  72  67  57  53  57  62  63  55  49  46  45  43  39  39  39  38  37  36  37  34  30  29  28  28  25  23  22  22  23  27  36  34  36  40  45  46  46  45  44  47  56  73 121 124 126 126 130 131 131 134 135 135 137 136 135 137 135 137 139 139 139 140 141 141 141
 151 151 150 150 150 149 150 148 150 148 148 148 147 149 149 147 147 146 146 146 145 142 115 107  90  81  77  73  68  62  62  66  72  75  70  61  58  56  59  50  37  35  36  34  35  33  29  28  24  23  22  24  24  26  26  30  36  39  39  38  41  46  47  44  44  44  51  60  78 120 124 124 125 127 129 131 131 131 133 134 134 134 135 135 136 136 138 137 138 139 140 140
 147 146 147 147 148 147 148 148 147 146 146 147 146 146 145 146 146 144 146 145 144 142 117 107  95  81  76  72  68  67  66  72  75  83  79  71  65  59  60  63  58  55  48  42  37  36  35  33  31  32  32  30  28  27  30  37  42  41  42  40  42  47  45  42  43  45  54  61  80 120 123 124 124 124 125 129 129 131 131 132 132 131 134 134 134 134 136 136 137 138 138 138
 146 147 146 146 146 147 147 147 146 146 145 144 145 145 144 144 144 145 143 143 143 141 116 107  99  84  75  72  70  68  70  78  78  69  82  82  74  68  58  56  57  59  57  53  49  47  50  45  41  37  32  28  27  31  38  41  41  41  44  44  44  47  43  41  42  46  53  59  84 119 122 122 123 124 123 125 128 129 129 130 130 129 132 132 131 132 133 135 136 136 137 138
 145 145 144 145 144 144 147 144 145 144 144 144 142 144 145 143 142 144 144 142 142 140 117 106 102  91  78  72  69  71  74  79  79  66  77  81  80  76  68  60  54  51  50  47  46  45  45  42  38  34  29  31  33  39  41  41  41  43  45  47  47  45  43  43  41  48  54  59  86 119 122 120 121 123 121 124 126 126 128 128 129 129 131 130 130 131 132 132 134 135 135 135
 143 144 144 144 144 143 143 143 144 144 143 144 143 142 142 142 141 143 141 141 139 136 118 108 101  96  80  73  70  70  74  78  78  78  77  76  76  76  74  67  61  55  50  47  45  43  40  39  37  35  36  38  41  42  39  40  42  44  46  47  46  44  43  42  43  48  51  58  87 118 120 119 118 122 123 122 125 126 128 125 126 128 127 128 129 129 131 130 132 134 133 135
 141 143 144 142 141 143 143 142 143 142 142 141 141 141 142 142 139 140 138 138 137 135 116 106 102 100  88  75  71  71  74  77  79  77  75  75  72  71  70  68  65  60  53  51  46  45  43  42  42  41  40  42  39  39  40  40  45  46  45  46  44  44  42  40  44  47  51  58  88 117 119 118 119 120 121 122 124 124 124 124 125 126 127 126 127 128 130 129 131 132 132 133
 138 141 141 142 141 142 141 143 142 140 140 138 140 139 141 138 140 138 138 137 136 136 116 107 105  98  93  79  72  71  73  75  77  75  72  75  70  69  66  59  61  57  53  52  46  44  44  44  44  41  38  38  38  40  39  40  44  46  46  44  44  42  40  42  44  47  50  58  88 119 119 119 120 118 119 119 121 122 123 124 123 124 124 124 125 127 127 127 129 129 132 131
 140 139 138 138 138 141 140 140 141 138 139 138 137 138 137 135 135 134 134 131 135 135 115 109 104 101  95  85  75  71  72  66  72  73  73  74  71  69  66  60  57  54  53  50  46  45  44  44  43  42  39  38  38  41  41  43  44  45  46  43  43  41  39  42  45  48  51  58  84 115 118 118 117 117 118 119 118 119 120 120 122 123 123 124 124 124 125 127 127 128 130 129
 138 139 141 139 137 139 138 138 139 139 138 137 136 129 113  93  87  79  73  81 131 131 111 110 105 102  98  89  78  73  71  70  71  73  73  72  69  67  64  62  57  53  52  50  49  46  46  47  45  44  43  42  42  43  44  44  43  43  44  42  41  36  40  42  45  48  51  56  61  79 113 118 116 116 116 118 117 118 118 119 121 120 120 120 122 124 124 126 126 128 128 128
 137 137 138 137 137 138 137 136 136 136 136 130 111  74  55  43  38  35  33  89 139 128 113 108 107 104  97  92  83  76  70  70  74  74  75  74  71  69  67  68  66  63  58  57  56  55  54  53  50  49  48  47  45  46  46  45  43  42  43  40  39  36  40  42  45  49  52  56  59  46  62  97 114 116 117 118 117 117 118 120 119 119 119 122 122 123 124 124 125 126 128 128
 135 136 137 136 136 137 136 136 133 127 117 100  91  45  33  28  26  23  91 140 135 124 113 110 110 103 100  94  87  79  70  68  74  76  78  80  78  74  71  71  72  72  70  68  66  64  62  61  58  57  53  49  49  48  47  45  43  42  41  37  36  39  41  44  46  48  52  55  62  45  46  57  66  93 111 115 116 116 118 119 118 118 121 121 120 121 122 124 124 126 126 126
 136 136 135 136 135 134 133 120  98  95  97  88  71  25  31  37  43 113 140 140 133 120 114 111 109 107 103  96  92  86  75  71  73  73  75  80  80  74  74  78  79  79  80  76  72  69  67  65  64  61  51  48  49  48  48  45  43  41  39  37  37  40  41  45  47  50  52  56  60  50  38  44  49  47  46  79 112 115 116 118 117 118 119 118 119 119 120 123 124 123 123 125
 135 134 133 135 134 110  84  88  90  86  88  84  70  44  37  60 119 134 139 134 130 118 113 113 111 108 105 100  96  89  80  72  69  74  75  78  79  75  72  78  80  85  79  77  75  68  65  64  63  58  52  50  49  46  46  43  42  38  37  35  38  40  42  45  47  50  52  54  58  55  35  38  43  44  36  38  52  97 114 116 115 118 117 117 117 118 120 122 123 122 122 123
 133 133 133 119  68  60  71  79  80  84  78  82  72  48  54 112 124 132 134 135 127 117 112 111 109 109 104 100  95  92  84  77  68  69  76  77  77  73  67  73  79  83  80  77  75  71  66  64  62  56  51  49  48  45  43  41  38  36  34  35  38  41  43  47  49  49  50  54  54  52  35  38  38  41  40  32  33  37  67 101 113 115 115 115 117 117 118 120 119 121 123 124
 132 128 104  61  54  54  73  80  80  85  77  75  74  48  83 114 119 127 130 131 124 114 110 109 107 107 105 103  98  94  89  83  74  67  69  74  70  69  65  72  76  75  71  72  69  62  61  59  57  53  48  48  45  41  40  38  35  35  35  36  39  41  46  48  49  50  50  52  55  50  33  31  34  38  40  31  31  32  33  40  54  68  86 107 114 116 117 119 120 121 121 122
  93  64  52  54  50  55  68  72  76  72  70  76  72  58  81 106 112 119 124 127 120 113 110 106 108 106 103 103  99  96  90  87  82  72  65  65  67  66  68  69  70  71  65  61  57  54  54  53  50  49  46  45  40  36  36  34  33  34  35  38  41  45  47  47  49  49  49  50  54  47  33  30  32  33  40  30  29  30  31  32  32  36  43  45  62  92 112 116 117 118 119 121
  58  52  47  49  49  46  56  73  67  73  67  70  74  64  73  94 104 109 114 119 116 113 108 106 107 105 101 101  98  98  93  89  84  78  71  62  59  61  64  63  62  59  60  57  54  51  49  48  46  46  44  40  35  32  32  32  32  35  38  42  45  46  47  48  50  49  49  49  52  42  31  30  31  31  33  26  28  28  29  29  28  31  35  36  39  40  48  80 110 117 117 118
  47  45  50  48  48  46  45  68  70  76  71  69  73  72  70  83  93 100 105 110 110 108 106 106 105 105 103 102  99  99  96  91  87  80  75  72  59  54  57  57  57  54  54  52  50  48  46  45  44  42  39  36  32  30  31  33  36  38  41  45  46  47  48  48  50  49  48  48  50  36  32  29  29  29  31  24  24  28  25  26  26  27  29  32  34  37  39  41  42  74 105 116
  48  49  43  39  43  45  44  59  70  70  66  65  62  66  67  76  86  92  96  97 102 107 107 105 104 103 101 100  99  98  98  92  89  84  77  75  70  62  52  48  48  49  46  44  43  42  40  41  39  35  32  31  30  32  34  36  37  42  43  45  47  48  50  49  48  47  48  49  47  34  32  27  30  28  29  21  23  22  25  25  27  28  27  30  31  32  34  35  36  43  43  67
  45  36  34  41  42  42  48  48  63  62  66  63  62  54  64  66  79  86  87  86  94 102 106 106 104 103  99  99  98  99  97  93  90  85  80  77  72  70  66  56  45  41  37  36  35  34  32  32  32  32  31  32  33  36  38  38  42  44  45  46  48  48  50  49  48  47  47  48  36  33  30  28  29  32  26  20  22  22  24  25  25  25  27  28  30  31  32  33  32  36  38  34
  44  39  36  44  46  45  49  50  57  68  66  58  63  59  61  63  80  76  79  79  79  92 100 105 104 102  98  99  98  98  97  95  91  88  82  78  74  72  69  66  61  55  46  42  39  37  35  36  36  36  37  39  40  40  42  43  45  45  45  49  48  48  50  48  49  48  47  41  34  32  29  28  29  29  23  20  24  25  22  24  25  25  29  28  28  30  31  31  32  34  38  33
  43  35  42  44  45  40  43  48  48  62  60  57  54  54  56  58  59  62  71  75  74  83  93 101 106 101  99  97  95  97  96  94  92  87  82  78  75  73  70  68  65  62  59  55  53  51  48  45  45  44  45  45  42  44  44  44  45  45  46  48  50  49  48  48  47  47  43  33  32  29  29  26  28  30  21  20  23  24  24  23  24  28  30  28  29  30  30  31  34  32  32  33
  36  32  39  43  44  41  44  40  45  48  58  57  53  61  50  53  56  53  68  70  71  77  82  93 102 100  96  97  94  93  94  93  90  88  86  81  75  73  72  68  66  64  62  57  55  54  53  52  51  49  49  47  46  45  45  45  46  48  49  49  49  48  48  48  47  44  35  32  31  28  28  25  26  28  24  23  22  24  25  24  24  27  30  29  28  31  31  30  31  31  31  31
