P2
# Generated by OpenCV 3.4.0
92 112
255
 166 166 167 167 166 164 128  74  51  48  51  49  48  46  43  45  44  40  40  36  37  38  36  32  30  26  29  32  32  32  35  38  37  34  31  27  25  24  24  23  20  21  23  22  20  24  22  24  24  23  24  22  19  18  17  18  19  17  19  17  17  21  21  21  21  24  25  27  31  46 131 161 162 162 163 164 163 163 161 162 161 161 161 160 162 162 161 161 159 160 161 160
 167 166 167 168 166 163 100  56  48  46  50  45  46  43  43  42  36  38  42  39  37  32  30  32  31  34  37  38  38  38  33  29  27  23  25  26  28  31  27  24  23  25  24  26  25  20  16  18  19  22  23  22  18  17  16  16  18  18  20  18  18  18  21  24  23  24  27  26  30  47 103 158 162 163 163 164 164 163 162 163 162 162 162 161 163 163 161 161 161 161 160 160
 167 167 167 166 164 149  66  51  47  49  45  44  43  38  38  37  38  44  40  33  26  27  28  28  32  34  32  34  35  29  23  22  21  21  22  23  24  25  23  24  24  25  24  23  20  18  15  16  16  16  18  20  22  23  21  18  18  18  18  19  20  18  18  22  25  25  28  29  31  44 100 155 161 164 164 164 165 164 163 162 162 163 162 163 162 162 162 162 162 162 161 161
 168 165 167 165 164 111  54  51  50  46  42  40  38  35  35  35  36  35  30  22  24  23  22  29  31  32  30  30  28  23  23  21  23  25  27  27  25  25  25  23  22  23  22  20  20  19  19  19  16  15  16  16  18  21  22  22  23  19  20  18  18  19  19  21  23  25  27  30  33  40  85 156 162 163 164 164 165 165 164 163 164 163 164 163 162 163 162 161 160 162 161 161
 168 167 166 165 157  64  49  48  48  41  39  38  33  31  32  32  33  29  24  24  23  22  25  25  26  29  29  27  23  20  22  23  25  26  26  25  25  25  22  22  23  24  22  21  24  25  24  23  22  18  18  19  18  17  18  20  21  21  21  20  19  18  19  19  21  25  26  29  32  38  55 154 162 164 165 164 165 164 163 163 164 164 163 162 162 162 161 162 161 162 162 161
 166 166 167 165 115  56  50  49  44  39  39  36  28  29  28  29  28  25  24  24  22  20  22  23  26  25  24  20  19  19  23  25  27  28  28  26  26  24  25  25  24  21  21  22  25  24  24  24  22  22  22  24  18  18  18  17  18  20  21  22  24  22  20  20  19  24  26  27  29  38  43 122 161 165 164 163 165 165 164 163 163 163 164 164 163 163 162 162 163 162 163 162
 164 166 167 164  86  55  50  44  39  38  38  31  26  26  22  29  27  23  22  22  19  21  23  23  23  22  21  22  22  25  31  31  30  30  28  24  22  20  19  16  16  17  19  22  24  21  24  25  27  27  24  23  23  23  21  20  20  22  19  21  20  22  22  22  22  22  26  27  29  35  44  87 158 165 165 165 165 165 162 164 164 164 164 164 163 164 164 162 163 162 162 163
 165 166 167 163  75  53  46  38  36  38  35  27  25  21  24  30  25  23  22  21  21  23  22  21  22  23  24  25  29  32  34  32  29  25  23  19  19  18  16  17  16  17  22  22  21  25  27  30  27  25  25  25  22  23  24  21  22  22  19  15  17  18  19  21  23  24  24  27  28  31  43  73 155 165 166 166 165 164 162 164 165 164 164 163 163 164 163 161 162 163 163 164
 167 166 166 137  59  50  41  37  34  34  30  24  22  23  27  27  23  23  24  24  22  24  24  23  25  27  25  25  28  29  26  26  24  24  23  22  20  19  20  19  21  22  21  23  27  30  28  28  25  24  25  24  23  21  22  22  23  19  16  17  17  16  17  18  20  23  25  27  28  31  44  60 155 163 165 164 166 164 164 165 165 166 164 164 164 165 164 163 163 163 162 162
 166 168 163  97  54  42  37  33  29  29  27  25  26  28  31  28  28  31  29  27  27  28  28  29  32  31  25  28  28  29  30  28  28  26  25  24  23  24  24  24  22  23  23  28  27  27  25  23  23  23  22  21  21  21  22  25  23  22  20  21  20  20  18  20  19  19  25  26  28  30  39  64 152 162 166 166 167 164 164 164 165 165 164 164 163 165 164 164 164 164 163 163
 167 168 143  66  45  34  34  30  26  25  29  31  31  30  34  37  39  32  30  33  38  37  38  39  42  34  26  26  27  33  33  31  30  29  28  27  27  26  26  25  25  27  28  27  26  26  24  25  25  24  23  23  24  23  24  25  25  24  23  23  24  24  23  23  23  22  24  28  29  31  39  58 150 162 165 165 164 163 162 165 163 163 163 163 163 163 163 162 164 163 164 164
 167 164  94  55  38  31  30  27  25  30  31  34  33  40  45  47  42  39  42  49  48  51  58  56  49  31  26  26  33  38  34  31  31  30  30  30  30  29  30  30  29  28  28  26  27  25  26  26  25  25  25  26  26  25  28  27  27  27  27  26  26  26  26  25  25  27  27  29  27  30  36  48 141 160 163 164 164 164 164 165 165 164 163 163 163 163 164 164 164 165 164 164
 164 149  53  46  36  32  28  25  29  30  34  39  47  53  60  61  60  60  61  64  65  71  75  71  51  30  27  35  39  36  32  33  32  31  33  31  31  31  30  30  29  29  29  29  29  29  29  29  28  28  28  29  28  30  28  29  30  30  29  29  29  29  29  30  29  30  31  31  27  28  35  38 117 161 164 166 167 165 166 165 165 166 166 166 164 164 165 164 165 164 165 163
 166 112  50  40  36  34  29  30  29  37  38  46  50  53  60  65  71  73  76  79  82  88  86  79  53  31  33  41  40  37  34  35  34  37  37  36  37  36  33  32  33  32  33  32  32  29  30  30  29  28  30  30  30  32  30  31  32  32  32  32  32  34  33  33  33  36  36  36  32  30  32  41  89 156 163 165 166 167 166 164 164 165 166 165 164 164 164 164 165 165 164 164
 164  84  48  35  37  30  33  34  35  35  42  52  51  53  56  64  74  84  89  91  95  94  91  85  49  36  46  46  43  40  37  38  41  42  43  44  44  42  39  37  37  37  35  35  34  33  35  33  33  33  33  33  35  34  33  33  35  34  34  36  36  38  39  40  39  40  40  41  39  31  33  41  88 155 163 164 165 164 165 163 163 164 163 163 163 162 162 163 163 163 163 164
 159  73  42  32  36  30  31  32  32  34  40  47  47  49  57  67  83  91  96  99 102 103  97  90  68  54  58  51  50  47  47  50  49  48  49  50  48  46  43  43  41  41  38  38  38  36  37  36  36  37  37  37  35  36  35  36  38  39  39  39  41  41  42  43  43  42  44  47  45  33  35  40  81 157 164 166 165 166 166 164 165 165 165 165 165 164 164 165 165 165 163 166
 152  75  40  33  33  30  30  32  29  33  35  35  41  51  58  74  87  92 100 103 106 108 104  97  86  77  73  66  67  63  63  61  59  56  55  55  51  49  48  46  44  44  44  42  41  40  40  40  41  40  40  41  38  39  40  40  41  43  43  43  44  44  45  47  47  47  47  48  48  38  32  38  73 154 161 165 166 166 165 163 165 165 164 164 165 165 165 164 165 164 164 165
 156 109  40  33  32  31  29  31  30  31  32  33  42  54  64  74  85  93  98 102 107 109 109 105 101  93  85  81  78  75  75  74  69  65  62  63  61  57  54  52  51  49  48  47  43  44  42  42  43  43  44  42  42  41  42  42  42  46  45  45  46  47  48  48  49  50  50  54  55  45  33  39  81 154 163 164 165 166 164 165 166 165 165 165 164 164 165 164 166 165 162 163
 175 134  41  36  33  29  29  30  32  29  31  36  48  58  60  70  78  88  96 104 108 111 112 109 107 100  94  89  83  84  84  79  74  72  69  69  68  64  60  58  56  54  51  49  48  47  46  46  47  47  46  45  43  46  45  44  46  47  47  47  48  48  50  50  51  53  53  59  58  52  37  44  82 157 164 166 166 167 166 166 165 165 166 166 164 164 163 163 164 164 163 164
 189 171  46  38  33  27  29  30  28  28  32  42  52  54  63  69  72  86  97 105 108 111 111 111 109 105  96  90  88  91  86  83  79  75  75  74  72  69  66  61  60  57  54  52  52  50  49  48  48  48  47  46  46  46  47  47  47  48  49  49  49  49  51  53  52  55  57  60  61  58  40  46  70 157 164 166 166 167 166 165 164 165 165 165 165 164 164 164 163 164 164 164
 193 191  56  40  33  28  27  28  25  30  35  43  46  52  57  63  76  88  98 105 108 112 110 110 108 107 101  97  95  93  90  88  84  81  79  78  76  73  69  67  64  60  56  58  54  53  52  52  52  51  50  50  48  48  48  49  48  48  49  50  50  50  52  54  54  57  60  62  62  63  46  47  65 158 165 165 166 167 166 166 166 166 165 165 165 165 164 165 164 164 164 164
 190 187  66  40  30  28  28  26  26  32  38  38  41  48  52  65  73  84  96 105 106 107 109 109 108 107 105 104 102  98  94  94  91  88  86  84  79  75  73  70  66  64  61  59  57  54  54  53  52  53  52  51  50  50  50  49  51  51  51  52  51  53  53  55  58  57  60  63  64  67  56  46  61 156 166 165 165 164 165 166 166 165 164 165 165 165 165 165 165 165 164 164
 185 173  49  37  29  29  28  24  27  33  36  34  37  44  54  65  71  81  91 100 104 107 107 109 108 108 106 107 104 102 100  99  96  91  90  87  84  80  79  74  69  68  66  61  59  58  58  56  55  54  54  53  52  52  52  51  51  52  53  54  53  54  54  57  58  62  63  64  66  68  63  45  66 155 164 164 164 164 166 166 166 165 165 166 165 165 164 164 164 163 164 163
 178 157  43  35  31  30  28  25  30  31  32  30  34  46  53  61  66  79  92  99 105 108 108 107 109 107 107 106 106 106 103 103 100  95  92  89  85  82  79  76  73  71  69  67  63  62  59  58  58  56  56  54  53  54  53  53  52  53  54  53  53  57  56  59  61  63  64  66  68  69  69  47  77 157 164 165 165 165 165 164 167 166 167 166 166 167 165 164 165 164 164 163
 173 137  46  36  33  30  27  25  29  28  27  30  34  42  48  55  65  79  90  98 106 107 108 109 108 108 109 108 107 106 106 104 100  97  94  93  87  85  80  76  73  71  71  69  66  64  62  60  60  59  57  57  56  55  54  54  53  53  56  57  58  58  59  60  61  64  66  66  68  71  74  55  84 159 165 166 166 164 164 164 165 164 165 164 166 166 164 165 164 164 163 164
 169 126  45  35  34  28  26  27  30  29  26  28  32  37  42  51  67  81  90  97 103 106 108 109 109 110 111 111 107 106 106 104 104 100  99  96  92  86  81  75  72  71  69  69  67  66  65  64  63  61  58  56  57  56  56  54  54  58  58  57  58  58  58  59  61  62  65  66  69  72  76  64  97 160 165 166 167 165 163 163 164 164 165 165 166 166 164 164 164 165 164 164
 167 132  36  33  32  29  27  27  29  27  25  26  30  31  38  51  64  77  90  98 101 105 110 112 110 112 112 111 108 106 106 104 102 100  99  96  92  85  80  78  76  72  70  68  67  68  66  65  62  60  58  57  58  56  56  54  57  59  56  58  58  58  58  60  58  62  62  65  67  70  75  71 106 160 166 168 166 166 168 168 167 166 167 167 166 165 165 165 165 165 165 164
 168 134  33  34  33  29  25  22  25  24  23  24  27  30  36  48  64  78  92  99 103 106 109 115 114 114 113 112 108 106 105 103 100  98  95  93  91  84  79  77  75  72  71  70  68  66  64  62  62  60  56  58  57  55  53  54  56  57  58  57  54  54  57  58  59  62  62  63  66  69  74  76 123 162 166 167 167 166 166 167 167 166 165 166 166 165 164 165 165 165 165 164
 168 141  39  34  32  27  25  21  24  24  24  24  26  27  32  46  64  86  95 100 105 106 109 114 114 113 114 111 108 107 103 100  97  94  92  88  84  80  78  74  72  72  70  69  66  64  64  62  61  59  58  55  56  53  52  54  58  58  56  54  53  52  54  56  57  57  59  61  64  69  73  80 140 164 165 166 166 166 166 166 166 166 167 167 167 166 165 164 165 166 165 164
 168 156  52  35  31  27  26  20  24  24  23  24  25  25  32  48  70  88  93  99 105 106 109 113 114 113 113 111 107 106 100  96  94  92  88  85  79  77  75  73  71  70  68  67  63  62  60  61  60  58  56  55  53  53  52  55  56  56  54  52  50  51  51  53  54  54  56  60  63  68  71  84 150 165 167 166 167 168 168 167 166 166 166 166 167 165 165 164 165 166 165 165
 169 162  77  36  30  26  25  21  24  24  22  22  23  24  33  54  77  91  94  99 104 107 111 112 112 113 112 108 102  98  90  86  82  76  75  69  70  68  67  69  67  68  66  66  62  60  60  60  59  56  52  53  52  52  49  52  55  54  52  50  49  51  50  51  50  50  47  53  56  61  66  78 144 166 167 168 168 167 167 166 167 167 167 166 166 165 164 165 166 164 164 165
 168 164  93  40  29  27  26  22  25  24  23  22  21  26  40  62  84  95  97 102 104 110 112 114 114 112 102  90  80  73  69  62  51  47  46  45  50  47  49  52  55  58  60  60  60  58  56  57  56  54  52  52  50  48  48  51  54  52  49  47  48  48  46  44  41  38  33  36  38  40  46  57 110 162 166 166 167 166 167 166 166 167 166 165 165 166 164 165 165 164 165 164
 168 162 107  41  28  27  25  23  24  25  24  20  23  32  51  75  90  98 100 104 107 112 113 114 113 106  85  65  53  51  49  40  34  32  29  26  25  26  28  34  37  42  50  50  53  53  51  52  50  50  49  51  48  49  47  50  53  49  47  45  43  43  41  34  32  26  25  24  24  26  28  37  59 154 165 166 165 165 165 166 167 166 166 166 166 166 167 165 165 166 165 163
 167 162 111  39  26  29  24  23  24  24  24  19  25  37  64  83  94 102 104 105 110 114 114 111  96  82  61  45  39  35  32  28  26  24  24  23  21  22  24  24  25  31  36  38  42  39  45  48  47  49  49  48  47  47  47  50  49  47  44  40  38  33  31  27  25  23  22  23  22  23  25  28  32  80 116 130 141 158 166 164 164 165 166 166 166 167 166 164 165 164 165 165
 167 162 117  44  29  30  24  25  24  24  22  18  29  52  77  92 100 102 104 108 113 108  93  78  64  55  46  39  36  31  29  28  26  26  24  23  22  22  22  22  20  24  27  32  31  34  37  40  43  48  48  48  47  46  46  48  48  43  37  33  30  27  25  23  24  23  20  20  20  26  32  39  48  49  56  45  31  34  47  72  96 118 148 163 165 166 165 165 165 164 165 165
 167 164 134  45  34  28  24  25  25  24  20  22  36  67  86 100 102 104 107 109 107  89  70  57  55  51  46  40  34  28  24  24  20  20  18  17  18  17  16  17  17  17  19  22  23  27  30  34  39  45  46  48  47  46  46  47  43  38  31  27  25  24  22  20  20  22  29  34  39  43  44  48  51  77 156 161 144  95  40  32  32  38  51 164 165 166 166 166 165 164 165 165
 167 165 144  46  41  32  24  27  26  21  23  26  45  78  94 101 104 103 104 103  87  61  50  44  35  27  23  23  29  39  46  52  52  50  47  43  38  34  32  29  26  24  23  20  17  17  19  23  31  40  42  46  47  44  44  42  38  30  26  22  18  16  22  28  32  33  35  40  42  46  48  51  56 100 155 129  98  61  44  34  28  28  45 161 164 166 165 165 164 165 164 164
 167 165 160  60  45  30  25  29  27  23  24  28  56  90  99  97  76  54  40  27  23  24  22  24  23  30  50  65  73  73  69  66  58  54  52  47  40  36  34  33  32  33  32  31  31  29  23  17  17  18  22  28  30  29  28  26  22  18  17  15  20  28  30  31  31  33  35  38  41  44  47  52  62  59  41  40  41  60  77  66  31  66 154 163 165 166 165 164 165 165 164 164
 164 164 159  85  41  26  26  27  27  26  25  32  64  86  88  82  52  38  55  36  24  22  22  24  51  74  74  71  65  60  58  56  49  43  41  37  35  33  32  31  31  31  32  32  32  33  34  34  21  15  16  16  17  16  16  16  16  15  16  22  29  29  30  30  29  28  28  28  29  32  39  49  68 103 124 142 161 161 156 141  36  94 160 164 166 164 166 164 165 164 163 164
 162 157 156 113  37  27  27  24  24  28  34  55  73  80  83  78  51  31  24  22  23  23  24  63  70  68  64  57  51  43  39  34  30  24  23  22  23  22  24  26  28  29  30  31  32  35  38  40  38  18  16  16  16  16  16  16  16  15  17  27  27  28  25  25  21  20  18  20  24  24  27  44  91 158 160 160 159 161 160 159  46  95 161 164 164 165 165 164 164 165 164 163
 122 122 128 102  46  34  26  26  26  30  39  49  62  75  82  76  67  83  75  39  23  21  49  67  63  55  47  37  34  29  26  25  29  20  18  17  16  18  20  22  24  25  28  29  31  34  39  46  50  28  16  17  21  26  26  20  17  15  19  25  25  27  26  25  20  18  18  20  30  28  24  32  97 152 162 163 161 161 160 160  60  98 161 165 165 166 166 164 164 164 164 165
  87  87 100  99  70  64  47  38  30  29  30  41  65  86  89  87  83  83  77  58  24  27  63  62  54  44  34  34  30  27  36  46  43  25  23  18  17  18  26  26  24  26  26  27  31  35  42  50  53  35  17  21  36  50  50  37  25  16  20  25  24  29  34  28  21  18  19  23  41  34  29  35 117 152 160 162 162 161 160 160  62 106 160 164 165 166 165 163 164 165 164 164
  53  50  58  81  77  68  63  57  44  33  36  47  77  93  98  95  94  90  83  68  24  33  65  58  45  36  34  29  32  54  59  61  43  27  24  19  20  21  26  30  24  25  29  30  32  36  44  53  52  27  18  30  59  79  79  65  34  18  23  25  26  32  42  33  24  20  21  26  52  38  40  64 138 153 161 163 163 162 160 159  64 117 164 164 164 164 164 162 164 164 163 163
  48  43  46  56  71  70  71  58  45  37  39  52  81  96 101  99  96  95  89  81  22  43  65  54  42  37  37  42  51  56  61  64  51  29  26  18  19  22  28  32  23  24  28  34  41  40  47  58  32  27  18  44  89 100  96  85  54  19  23  26  27  32  41  36  24  22  23  30  42  42  48  69 141 147 160 162 162 162 162 159  56 133 163 165 164 164 165 164 164 163 163 163
  45  42  48  63  69  68  67  55  49  37  39  55  87 101 103 102  98  94  91  85  25  51  68  58  52  51  54  53  56  60  66  70  65  35  25  22  24  26  33  32  25  27  31  41  47  47  52  53  19  30  19  64 109 107 101  94  86  36  21  30  29  30  36  36  30  28  29  35  41  48  62  79 140 153 159 162 162 162 160 157  44 147 163 164 165 164 164 163 163 164 163 162
  44  43  55  74  77  67  64  56  52  41  38  57  90 104 106 103 100  98  94  92  29  49  79  76  74  75  70  68  66  60  61  67  72  61  35  26  27  32  37  34  32  36  43  47  50  55  62  34  20  30  25  99 114 109 104  99  90  76  18  32  33  34  36  35  34  35  36  41  48  55  68  87 149 158 160 162 161 160 160 140  46 158 164 165 164 165 163 163 161 164 162 162
  44  46  61  83  85  73  70  68  55  41  37  56  92 109 109 104 102  99  99 100  42  46  97  98  99  94  89  85  72  68  59  63  66  64  56  49  46  41  41  38  39  43  45  48  56  65  68  18  22  26  49 108 114 113 107 103  95  88  39  28  35  34  34  34  34  35  40  43  48  54  67  89 144 160 160 162 161 160 158 115  68 160 164 165 164 164 163 164 161 162 161 160
  47  51  68  92  91  81  82  75  58  40  34  55  94 110 113 110 106 104 104 108  62  38 107 108 106 101  94  88  77  75  70  65  65  58  55  49  46  41  40  39  42  44  48  55  66  76  52  20  28  19  87 114 116 114 112 108 101  92  70  21  36  36  37  38  37  38  41  43  47  55  68  87 137 158 161 161 161 161 158  86 107 161 164 164 164 165 163 163 162 163 161 160
  52  59  75  95  87  75  67  51  45  43  35  54  96 109 112 110 108 105 108 111  82  26 104 111 109 103  94  87  78  75  67  65  63  57  53  47  41  41  45  47  48  48  56  68  80  86  38  22  29  31 104 114 118 120 113 108 103  96  84  26  36  43  41  41  42  45  47  50  53  59  66  80 127 158 160 160 160 158 151  52 147 163 163 164 164 163 164 162 162 161 161 161
  64  64  81  94  74  61  53  48  46  45  38  50  95 107 112 112 108 102 109 112 108  24  88 114 110 106  97  89  82  75  67  62  59  56  52  51  51  54  54  53  55  60  72  84  89  84  25  28  23  61 104 110 115 116 117 113 108 100  88  40  26  49  49  46  44  46  48  50  54  59  66  75 118 156 158 160 159 158 109  81 160 164 164 163 163 163 163 162 162 162 160 160
  76  73  88  96  68  52  48  50  52  54  40  46  91 105 109 110 110 108 111 113 111  48  59 114 111 107 102  98  95  89  83  76  74  72  70  67  65  63  61  63  70  81  91  92  87  72  22  34  23  92 107 110 114 120 119 118 113 106  95  56  19  35  55  54  51  50  51  53  57  62  66  75 107 155 158 159 158 146  52 138 161 164 165 164 164 162 161 161 161 161 161 160
 110  82  89  92  62  49  51  61  70  79  54  43  86 104 109 111 109 108 109 111 110  82  28 106 110 107 105 104 101  95  90  87  82  80  77  74  68  68  72  79  86  91  91  88  83  51  33  25  45 103 109 111 116 118 121 120 118 112 100  80  24  19  43  58  57  57  57  59  60  64  68  72  96 153 158 156 151  64 105 160 163 164 163 164 163 162 161 160 160 160 160 160
 154  94  91  92  58  49  58  78  88 105  96  44  78 103 106 109 111 111 110 111 112 109  36  67 108 108 106 104 101  97  92  89  84  79  79  75  76  80  87  91  92  90  86  86  81  40  28  31  77 108 111 115 118 121 123 126 123 119 106  93  55  34  17  44  60  61  62  63  66  67  68  72  92 151 156 130  55  98 158 163 163 164 162 161 162 161 161 160 161 160 159 158
 168 122  92  91  61  52  61  79  87 107 109  78  77 101 105 110 113 112 109 109 110 108  83  25  98 109 108 105 103  99  93  89  88  86  85  85  85  90  93  92  91  88  85  83  65  32  27  48  91 108 114 118 119 123 125 129 126 120 113 100  81  56  41  18  32  54  66  67  67  69  70  73  90 118  75  57 126 159 160 163 164 162 162 162 161 160 160 160 160 159 157 158
 171 145  97  93  75  59  64  78  87 102 104 101  92 102 105 108 108 107 110 110 108 111 110  55  36 103 107 106 104  99  94  91  93  92  92  93  93  93  93  92  89  85  84  62  26  33  41  66 101 110 114 118 121 124 128 128 130 125 119 107  96  64  59  59  40  26  21  30  38  44  38  29  29  78 127 159 160 162 163 163 163 163 162 162 162 161 160 160 159 157 157 156
 172 164 107  90  96  81  69  73  81  88  99 106 102 105 106 107 108 109 110 107 108 110 109 105  47  34  92 106 104  99  96  95  96  96  94  97  94  93  91  91  86  70  36  22  48  50  53  83 104 111 114 117 121 124 129 130 129 123 122 111  99  84  55  60  63  68  67  61  61  63  64  71  85 150 157 159 162 163 163 162 162 164 164 162 161 160 160 159 160 158 157 157
 172 169 129  96  91  99  97  88  75  78  89 102 105 104 104 104 107 108 107 106 107 108 106 106 104  59  21  54  85 100  98  95  99  92  93  95  93  91  78  57  30  25  45  63  58  50  61  89 106 110 114 116 121 123 126 130 128 127 123 113 102  90  63  54  59  64  68  73  73  75  76  80  88 151 158 161 161 162 161 160 161 163 163 161 160 159 158 159 158 157 156 157
 173 170 155 107  94  93 108 115  91  74  76  98 107 106 104 103 104 107 106 106 107 104 104 105 103 100  89  53  28  21  36  46  52  50  48  45  28  22  30  49  65  73  68  61  53  54  71  94 106 108 114 115 120 122 127 127 125 127 125 114 105  94  84  67  54  59  66  70  71  71  76  80  90 149 159 160 160 160 162 162 162 161 162 160 159 159 159 158 158 157 156 156
 172 170 169 125 110 111 116 109  97  88  90  97 107 108 107 104 105 104 103 104 105 103 104 105 104 102 101  96  98  97  84  76  78  74  78  80  87  91  85  77  72  68  62  56  53  65  92 105 110 114 114 114 115 118 123 126 124 125 125 116 106  97  87  82  64  57  62  67  68  71  74  78  89 149 157 158 160 159 160 160 160 160 161 160 159 158 159 158 157 157 155 154
 171 172 169 155 117 125 122 111  96  98 108 107 107 106 105 106 104 102 104 105 105 104 100 105 106 105 104 102 103 109 110 110 110 106 101  98  90  85  79  72  68  63  60  56  61  85 104 110 117 118 117 114 114 115 119 122 123 124 122 113 106  97  86  80  78  56  60  64  66  69  68  75  91 148 156 159 160 160 160 160 159 160 160 160 159 159 158 157 157 156 154 153
 171 170 171 168 136 124 124 120 114 108 105 107 109 104 106 104 103 103 100  99 102 103 101 105 106 106 108 107 108 112 113 114 108 102  98  90  84  79  74  68  64  60  59  62  74  97 107 110 113 112 117 112 111 111 115 118 123 125 116 108 103  92  81  74  70  57  59  62  65  66  67  72  92 152 157 159 160 159 159 159 159 159 159 159 158 157 158 157 155 154 154 152
 170 171 172 170 163 126 119 120 116 110 107 109 105 104 104 104 103 101  98  99  98 103 101 106 104 103 103 104 108 110 110 108 104  99  94  86  78  76  73  68  64  61  63  66  78  95 103 104 104 105 107 104 104 103 105 107 113 111 108 101  89  81  75  61  56  55  58  60  62  65  66  71  91 152 158 157 159 158 159 159 159 160 160 158 158 158 158 156 154 153 153 152
 170 170 171 170 168 141 112 113 114 110 113 114 103 103 104 105 105 101  97 101  97  99 100 102 102 100  97 101 106 106 104 100  95  95  91  86  82  78  72  68  63  61  65  65  74  87  90  91  89  88  86  86  86  86  88  88  95  98  92  84  72  65  60  44  48  53  56  58  60  62  65  69  96 151 156 156 157 157 158 157 157 158 158 158 157 157 156 156 154 152 151 151
 172 171 172 171 170 164 109 105 107 112 114 113 101 100 104 107 104 103  99  98  97  96  98 104 101 102 104 104 102 101  98  96  96  93  89  85  82  78  71  65  62  64  68  66  65  76  78  76  72  64  59  56  59  66  68  71  76  76  75  69  57  53  47  41  51  54  54  57  59  61  64  68 102 151 155 155 158 158 156 158 159 157 159 157 158 156 156 156 154 152 152 150
 172 171 171 171 171 170 154 104  96 100 101  94  80  88 103 107 106 105 102  93  93  96  98 104 103 104 103 102  98  97  96  98  97  92  87  84  80  74  70  66  65  69  71  71  64  63  63  58  49  41  33  27  29  34  42  52  63  66  62  53  48  48  42  48  53  55  53  53  57  61  62  67 107 152 155 156 156 156 156 157 157 156 156 156 157 155 154 154 153 151 151 152
 170 171 171 174 173 172 169 158 114  82  75  75  93  81 106 108 108 106 102  92  90  99 103 102 105 105 103 102  98  95  97  98  95  91  85  82  78  73  69  68  69  73  78  80  75  63  55  48  38  34  36  37  39  41  44  48  52  58  52  46  43  44  45  49  53  55  54  53  57  60  62  66 118 151 154 156 156 154 156 157 157 156 155 155 154 153 154 152 151 152 150 150
 171 170 170 172 172 171 171 169 169 167 159 162 155 103 104 107 108 106 105  97  92  98 101 101 101 101 102 101  98  94  96  96  95  89  84  81  77  72  70  71  75  82  86  88  85  76  70  63  55  50  50  51  50  52  52  55  59  57  47  42  43  44  47  49  54  53  51  52  54  58  63  66 134 151 154 154 156 155 155 155 154 152 154 155 154 154 155 154 152 152 151 149
 170 170 172 173 173 172 172 171 171 170 170 170 165 129 105 107 108 106 104 100  95 101  99 100  95  97 100 101  99  96  95  92  92  88  84  74  73  70  72  76  83  89  92  93  90  83  75  72  68  66  65  63  58  55  51  49  50  48  46  44  45  46  50  52  53  52  48  49  54  58  63  71 143 151 154 155 153 153 154 155 154 156 155 155 154 155 154 154 152 153 152 150
 173 173 174 174 176 172 173 174 174 174 174 172 170 148 108 108 108 108 105 105  99 101  98  96  98  98  99 103 101  97  92  89  90  85  80  76  76  76  80  87  90  95  96  94  93  88  80  79  76  73  72  72  68  60  53  48  45  42  45  46  47  48  51  56  54  52  51  49  52  57  63  89 148 152 154 154 154 153 153 153 155 156 155 155 156 154 154 155 152 152 151 150
 175 173 175 176 175 176 174 174 175 175 174 172 172 165 121 108 105 107 108 106 103 100  93  96 102 100  98  99  98  95  92  91  87  89  88  85  83  84  87  91  93  96  96  96  93  88  87  87  82  81  78  77  72  62  53  46  43  45  49  48  50  53  55  60  58  56  52  52  52  59  66 108 150 153 154 154 153 153 155 156 156 154 155 153 154 154 156 153 152 151 150 148
 175 172 175 175 176 177 175 176 175 174 174 174 173 168 133 108 108 106 106 105 105  99  92  94 103 101  99  96  94  95  92  94  88  91  91  91  89  87  90  89  91  91  92  94  95  94  91  93  88  87  84  80  74  65  52  46  47  51  51  53  53  53  58  63  61  56  50  51  54  58  65 129 151 152 152 156 154 154 154 156 155 155 156 155 154 154 153 152 152 151 150 150
 174 174 175 175 176 176 177 176 175 174 175 175 173 170 144 108 107 107 106 107 107 104  98  94 100  99 100  96  92  95  92  92  92  89  92  91  90  89  87  85  87  89  90  93  93  94  96  97  92  90  87  85  78  66  55  51  50  55  56  56  55  55  61  64  64  55  48  49  55  59  70 145 151 152 153 153 154 154 153 155 154 155 155 154 156 154 153 152 150 150 149 149
 174 174 176 175 177 176 177 176 175 174 176 176 174 174 154 112 107 106 105 105 105 104 103  99  96  96  92  93  95  94  93  93  92  91  91  91  91  90  88  87  89  90  92  93  94  98  98  97  97  95  92  87  78  68  61  59  59  62  59  53  50  49  55  61  63  50  42  48  56  63  93 147 152 152 152 154 153 152 154 154 153 156 154 155 154 153 153 153 152 151 150 148
 174 174 175 176 175 176 174 174 174 174 174 175 175 174 165 119 106 107 105 105 105 103 103 101  98  93  88  91  93  94  94  92  93  93  90  90  91  90  86  83  82  83  87  90  95  98  97  96  95  90  83  77  67  63  62  60  58  55  48  41  38  40  43  48  50  39  42  47  54  64 111 147 150 151 151 153 151 153 153 154 154 153 154 155 154 154 152 153 152 150 150 149
 174 174 175 174 174 175 175 175 175 173 173 172 172 171 166 132 109 108 106 104 104 105 104 100  98  95  92  94  90  90  92  93  93  92  89  89  88  86  75  71  68  74  79  87  92  92  92  87  79  68  57  53  49  46  45  44  45  39  35  34  35  35  38  38  35  36  44  49  55  67 132 148 150 151 151 151 151 151 153 152 154 154 154 153 154 153 153 152 151 151 151 151
 172 173 174 174 173 175 174 174 173 172 172 171 172 171 165 135 112 108 106 102 103 104 102  99  97  98  95  93  92  86  91  92  90  90  86  86  88  75  63  54  54  63  71  76  76  70  62  57  52  46  46  46  42  40  37  35  33  32  31  31  30  32  33  34  41  42  46  50  57  79 141 146 148 150 150 150 150 152 151 153 152 153 153 153 154 154 154 152 152 151 151 149
 171 172 172 172 173 174 172 173 172 172 171 171 171 170 165 143 117 110 106 102 100 100  99 100  98  98  95  96  94  90  92  94  92  88  83  85  77  63  51  38  34  42  46  47  47  45  46  44  41  38  38  38  37  34  30  30  27  26  25  24  26  30  38  40  48  44  49  52  59 101 142 147 147 147 148 149 151 151 151 152 152 152 153 153 153 153 154 152 152 152 150 148
 170 171 171 172 173 173 172 171 170 170 171 170 169 168 165 147 121 111 108 103  98  98  98  98  97  97  93  95  96  96  95  94  88  84  80  80  69  54  40  29  28  30  34  40  40  42  39  35  32  29  30  31  32  30  28  27  28  28  30  31  34  40  45  48  50  44  49  55  62 127 144 145 147 146 148 150 148 148 149 151 152 152 152 152 152 152 153 151 152 151 150 150
 171 170 171 171 170 171 170 170 170 169 169 168 167 166 167 150 123 112 108 103  98  98  95  97  95  96  94  94  95  95  95  93  88  85  79  75  63  49  42  45  56  59  55  55  60  63  63  61  64  59  54  51  50  44  42  43  46  46  44  44  45  46  47  55  54  49  52  57  77 137 143 144 144 145 147 147 147 149 148 150 150 150 152 151 152 152 152 152 152 150 149 149
 168 168 169 169 168 168 168 169 168 165 166 166 166 164 161 150 130 113 109 103  99  96  94  94  94  94  93  93  94  95  95  94  90  85  80  74  62  53  52  61  78  84  80  73  71  73  74  76  76  75  70  68  65  60  58  54  58  54  48  45  41  42  48  56  56  53  54  58  99 139 143 143 144 145 146 146 147 147 146 148 149 150 150 151 151 152 152 151 152 151 150 148
 167 167 166 167 166 166 165 166 166 165 165 165 165 164 160 155 140 116 110 106 100  94  92  93  91  91  90  90  92  94  95  94  90  86  82  73  66  60  63  73  88  94  91  86  80  77  73  72  72  71  68  66  63  59  55  52  50  48  44  40  39  41  50  57  56  58  60  62 118 138 141 142 143 144 145 145 146 146 146 148 149 149 149 150 151 152 151 150 150 150 150 149
 164 165 165 166 166 164 164 165 164 164 164 162 164 162 161 157 141 118 112 106 101  94  91  91  90  90  88  89  89  94  94  92  90  87  80  73  68  65  73  81  85  91  94  92  92  85  79  74  70  68  62  58  54  50  47  44  43  41  38  36  40  45  51  56  58  59  61  76 134 138 139 141 143 143 144 144 144 146 146 147 148 149 150 149 150 150 151 150 151 150 150 149
 163 163 164 164 163 164 163 162 162 162 162 161 161 161 160 157 143 120 113 108 104  98  91  90  90  89  88  86  88  89  90  90  89  86  79  73  71  70  78  87  85  71  82  89  90  89  83  79  72  66  61  57  52  47  44  42  40  39  38  40  42  47  50  57  58  59  62 101 136 138 139 141 142 143 142 144 144 143 145 146 147 147 148 148 150 149 150 149 150 150 149 148
 161 160 162 162 160 161 161 160 160 161 159 158 159 159 156 156 147 123 114 109 105 100  94  90  89  88  86  84  83  85  88  88  86  86  77  75  75  75  82  86  86  70  75  87  86  86  81  76  72  67  60  54  50  46  43  41  40  40  41  40  44  47  47  56  60  61  66 121 135 138 138 139 140 141 142 143 143 144 144 146 144 146 147 148 148 148 150 149 149 150 149 148
 157 156 157 158 158 158 156 157 156 155 157 157 157 156 155 154 148 124 115 110 106 103  96  91  88  88  88  86  83  84  81  82  83  83  76  74  77  78  84  87  85  84  82  84  81  79  74  73  69  63  59  54  49  47  43  41  41  42  44  43  46  49  51  57  60  63  82 128 135 136 138 139 140 141 140 143 143 142 142 144 145 146 146 148 148 149 151 150 150 149 150 147
 156 156 156 155 156 155 155 155 155 154 154 155 154 154 152 153 149 127 116 110 108 105 100  93  89  85  84  86  83  81  81  80  81  80  76  76  78  81  86  88  86  87  84  80  80  75  74  72  66  61  57  52  50  49  46  44  45  46  47  47  49  52  56  61  62  65 101 131 134 136 137 138 139 140 139 140 141 142 142 143 144 145 145 146 146 148 148 148 149 148 147 147
 155 154 153 154 154 154 154 155 153 154 153 152 153 153 152 150 148 128 116 110 109 106 103  96  90  86  82  82  83  81  78  78  78  77  77  79  79  84  86  87  86  83  83  82  83  76  75  73  67  64  58  54  52  49  51  49  51  50  52  51  53  55  60  62  62  62 120 130 133 136 136 136 138 139 139 139 139 140 141 143 142 144 144 145 145 146 145 147 147 148 148 148
 154 153 152 153 153 154 153 151 152 151 149 151 151 150 151 151 147 127 118 112 108 106 104  99  95  89  83  81  81  81  78  77  77  77  78  80  82  83  84  86  87  85  84  83  82  79  76  72  69  66  63  60  58  58  59  58  58  56  55  57  58  61  62  62  64  77 126 130 132 133 132 136 137 136 136 137 137 140 140 140 142 142 144 144 145 145 146 145 146 147 148 148
 153 153 152 152 152 152 151 152 151 151 150 153 151 149 148 150 147 128 117 112 107 107 104 102  97  92  84  80  80  80  80  79  77  79  78  82  84  82  76  81  85  86  83  82  80  78  75  74  75  76  76  74  70  69  68  66  62  62  63  61  59  64  65  63  64  98 127 130 131 132 132 134 135 135 136 138 137 138 140 141 142 141 143 143 144 144 145 146 147 147 147 146
 151 151 151 150 149 150 151 150 148 150 148 148 149 149 148 148 146 128 118 115 111 108 106 102  99  95  88  84  79  77  78  79  78  77  78  81  85  85  76  78  85  87  86  85  84  81  80  79  78  81  82  83  83  80  75  71  68  68  67  62  59  64  65  65  66 116 127 130 130 131 130 132 135 134 135 137 136 137 138 139 139 139 141 143 144 143 144 144 145 145 145 145
 149 150 149 150 148 149 148 148 147 147 147 146 146 146 146 145 143 128 118 115 112 110 107 106 101  97  92  86  79  77  77  77  76  77  78  80  81  84  85  85  85  88  91  89  90  88  83  83  86  88  87  88  85  80  75  70  68  68  66  64  62  63  64  62  75 124 129 128 129 131 131 131 134 135 135 136 136 136 136 137 138 139 139 142 142 142 143 143 144 144 144 144
 147 148 149 148 148 147 147 147 146 145 146 144 145 144 145 143 141 127 120 114 112 113 108 108 106 102  95  90  83  78  77  78  76  75  76  77  78  80  84  88  88  89  91  94  92  88  82  77  84  90  92  92  84  80  77  72  70  68  65  62  62  61  61  62  95 124 126 128 128 129 129 130 132 132 134 134 134 135 135 135 137 137 139 139 140 141 141 142 143 143 143 143
 145 146 146 145 146 146 145 144 145 144 144 144 143 144 143 143 139 125 120 114 111 111 111 109 108 105 100  94  87  80  76  74  75  73  74  75  77  76  80  86  84  82  88  93  92  91  83  74  78  88  85  86  82  78  74  67  64  63  61  59  56  58  56  60 103 124 126 126 128 128 130 130 132 131 132 132 132 132 132 136 136 135 138 138 138 138 141 141 142 142 142 142
 145 146 144 144 143 144 143 143 143 142 143 143 143 140 138 143 135 124 121 116 113 111 110 111 108 105 104  98  93  87  77  73  73  71  71  72  74  76  82  85  83  81  84  89  91  88  81  72  73  86  85  81  72  68  63  58  58  58  56  54  53  51  50  61  84 112 124 125 124 126 129 129 130 131 130 132 131 133 132 134 134 135 136 136 138 137 138 140 140 140 141 142
 143 144 144 143 143 143 142 142 136 119  96  93  83  77  91 139 130 124 121 117 116 114 111 111 112 109 104 100  96  91  86  78  73  71  70  70  71  71  77  80  85  88  87  88  85  81  77  68  72  79  80  74  67  62  58  53  52  52  51  49  48  48  49  64  68  61  90 109 123 124 126 127 128 130 131 130 131 130 131 131 132 133 134 135 137 137 136 138 140 139 140 139
 142 141 141 140 141 140 134 116  79  61  45  40  37  48 132 140 129 123 119 118 116 115 113 111 112 110 106 100  98  93  90  84  76  71  67  67  67  68  68  74  79  83  83  81  76  74  77  72  72  74  70  68  61  57  55  51  48  48  48  48  44  43  53  66  65  50  58  63  70  90 117 124 126 128 128 129 128 129 129 130 131 133 133 132 134 135 136 137 136 137 138 138
 140 138 139 137 134 117 108  85  48  33  29  25  49 129 144 137 128 122 119 116 114 116 114 112 111 109 106 103  97  96  92  88  81  76  70  66  64  64  62  64  72  73  75  75  73  67  70  72  72  66  62  59  57  54  52  47  46  45  43  40  40  45  60  67  68  43  49  51  53  46  46  76 114 122 127 127 129 128 129 128 130 131 131 131 131 134 135 134 135 136 136 137
 139 138 121 105 107  99  92  58  26  31  31  82 140 146 141 136 128 122 119 116 115 114 113 113 113 111 108 106 102  98  96  91  85  81  75  68  63  60  59  59  61  64  65  68  68  64  66  65  62  63  57  53  50  47  46  42  41  42  39  37  46  55  62  65  66  45  43  47  49  49  39  40  48  90 122 125 127 127 127 128 127 129 131 131 132 131 133 135 135 135 136 136
 124  99  88  91  90  90  85  54  49  43 106 134 143 144 139 132 128 120 118 115 116 116 115 112 112 111 109 108 104 100  96  95  89  84  78  73  68  61  60  55  55  54  55  56  56  56  58  56  54  53  51  48  43  41  38  35  36  38  39  48  52  58  61  63  67  52  42  46  46  49  40  36  35  38  54  82 104 119 124 126 127 128 129 129 130 130 131 133 134 134 136 134
  59  80  81  82  85  84  85  62  49  82 122 135 142 141 138 129 123 120 117 115 115 114 115 114 113 111 108 105 106 102  97  93  90  87  82  77  73  68  62  56  54  52  50  48  48  48  48  47  46  44  42  39  37  34  35  36  40  45  48  50  54  58  60  63  65  53  38  38  42  44  42  33  35  34  35  41  44  47  60  84 110 124 127 128 128 128 130 130 131 133 134 134
  59  82  71  88  84  75  82  62  55  99 120 131 138 136 135 127 121 115 113 116 114 113 116 113 111 110 108 105 104 100  97  95  92  89  86  81  75  70  66  60  57  52  50  46  45  43  41  39  38  37  34  36  37  41  42  45  47  49  50  52  54  58  60  61  65  52  38  35  38  42  43  29  32  34  33  32  33  36  42  44  46  64  93 121 126 126 128 128 130 131 131 131
  60  80  74  82  82  74  80  66  58  96 115 124 130 134 131 125 118 114 111 112 113 111 112 113 109 109 110 106 102 100  99  96  94  90  88  81  77  73  70  67  61  56  53  51  47  44  39  38  39  40  41  43  44  44  46  49  48  48  50  53  54  57  57  59  62  47  34  33  36  38  37  28  30  30  30  29  30  32  35  37  37  42  44  51  76 110 123 127 129 130 128 128
  53  72  69  74  75  67  76  74  61  89 106 117 123 130 128 124 115 112 110 109 108 109 111 111 109 108 108 106 104 100  98  96  94  91  88  85  78  76  72  69  64  60  54  51  48  45  42  42  43  45  45  44  46  47  48  48  48  51  52  53  55  56  55  59  60  39  36  32  33  34  35  25  26  32  29  27  28  29  31  34  36  37  40  41  42  45  65  97 120 126 127 128
  48  72  65  71  76  68  67  77  61  78  97 106 113 122 121 119 115 108 108 109 107 108 110 109 107 106 106 106 104 101 100  97  96  92  89  88  83  78  75  71  68  63  57  54  52  48  48  47  47  48  47  48  48  48  49  49  50  50  51  54  53  54  55  58  54  36  33  30  34  34  30  24  26  25  28  29  29  29  30  31  34  36  37  36  36  40  43  38  50  80 111 126
  41  58  68  69  74  68  64  76  68  70  85  97 102 107 113 113 112 111 108 107 107 108 108 107 107 106 107 105 105 103  99  97  95  94  91  88  87  83  77  72  68  65  57  54  54  52  50  49  48  50  48  49  50  50  50  50  50  50  50  52  54  54  55  55  44  33  31  30  33  35  28  25  25  26  28  29  28  29  29  29  32  35  35  36  34  38  42  36  39  44  46  59
  44  48  69  71  64  63  67  64  67  66  76  86  93  95 102 107 109 109 106 107 106 106 108 106 105 106 104 104 104 102  99  97  95  94  91  89  85  82  80  76  71  67  63  61  57  55  53  51  50  51  51  50  49  50  50  50  52  53  52  52  52  54  53  48  36  34  30  31  30  33  25  22  26  28  24  27  28  30  31  30  30  32  32  35  36  35  37  36  37  37  41  46
  48  49  54  66  64  63  65  59  59  65  66  78  84  85  88  96 103 105 106 106 106 106 107 106 103 105 104 105 104 103  99  97  95  93  91  90  87  84  80  76  73  69  67  63  60  57  54  54  51  52  52  50  50  50  50  50  50  52  51  51  51  52  50  40  36  32  30  30  31  33  25  23  26  27  26  26  28  32  32  30  30  33  31  31  35  35  32  33  34  36  36  38
  48  50  52  64  63  60  59  61  59  65  68  78  76  78  81  85  92 100 105 108 104 105 105 105 106 103 103 104 102 102  99  98  96  91  89  89  87  84  81  75  73  68  68  62  59  57  56  54  52  53  52  52  51  51  51  51  50  53  52  52  51  50  42  35  34  29  29  26  28  28  25  26  25  25  27  26  25  28  30  30  30  32  33  31  32  33  32  34  31  31  33  35
  40  46  49  52  60  58  60  56  53  60  57  61  64  69  73  69  84  91 100 104 107 104 104 104 103 101 100 101 101 100  98  98  95  92  91  89  86  84  82  78  74  70  68  66  62  59  56  54  52  52  52  51  50  52  50  51  51  53  51  50  49  43  35  33  31  29  32  28  29  30  23  24  24  26  27  27  26  28  30  30  30  31  31  32  33  34  35  36  31  33  33  34
  40  46  41  44  52  61  56  53  59  54  55  56  56  64  68  69  75  81  92 101 107 107 104 102 103 101  99 100  99  98  98  96  95  93  90  89  85  84  81  77  74  70  69  68  62  60  58  57  55  55  53  52  52  52  51  52  52  52  50  47  42  35  31  30  29  27  32  28  28  32  28  27  26  24  24  25  25  29  31  29  31  30  31  30  31  33  35  37  37  34  37  36
  38  40  42  45  45  50  65  57  51  47  50  48  51  61  66  64  70  75  80  90  99 102 105 100  99  99  98  97  97  96  96  95  94  90  90  89  86  84  81  77  75  73  70  67  66  63  61  58  57  56  54  53  53  54  54  53  51  50  45  37  31  31  28  28  26  27  30  29  27  33  35  36  34  33  29  26  25  28  31  30  30  30  32  31  32  30  31  34  33  30  33  34
  41  41  45  43  41  42  53  49  54  54  52  52  48  48  50  58  62  70  72  76  85  94  98 101  99  96  95  95  95  96  97  95  93  91  91  88  86  85  81  78  75  73  72  69  69  66  60  59  58  55  54  54  54  54  53  51  49  45  36  31  30  30  27  27  26  28  28  29  29  31  34  37  39  41  36  36  30  26  28  30  30  28  31  30  31  31  31  31  31  29  30  33
