P2
# Generated by OpenCV 3.4.0
92 112
255
 173 173 172 174 173 175 174 174 173 171 170 170 166  87  52  58  64  64  64  61  55  49  46  43  43  42  42  42  43  42  42  44  43  43  40  36  34  36  37  37  35  32  28  26  25  24  23  22  22  24  25  26  25  26  24  22  26  33  34  32  40  51 102 157 161 164 164 164 165 164 164 163 163 163 163 163 162 162 162 160 161 161 161 161 160 160 160 160 159 157 159 159
 171 169 172 171 172 172 173 172 169 169 168 167 135  64  59  58  57  58  53  46  41  41  43  45  43  41  42  42  43  43  39  37  35  35  34  34  34  33  33  31  29  27  27  24  23  20  21  22  22  22  22  22  23  23  24  25  28  30  32  33  36  43  68 143 158 162 164 164 166 164 163 163 163 162 162 163 162 162 162 161 161 161 160 160 161 162 161 160 160 160 161 161
 170 171 171 171 171 171 171 168 167 168 167 164 103  64  59  50  46  46  41  39  46  51  50  51  48  46  44  42  40  38  37  37  35  30  28  31  32  33  32  31  28  27  24  23  23  21  18  18  20  19  22  20  19  18  19  19  21  24  26  31  36  41  49 104 153 161 165 164 164 164 163 164 163 164 163 164 163 163 163 161 162 160 160 161 162 161 161 160 160 160 161 160
 168 170 169 170 171 170 168 167 166 166 166 155  89  68  50  39  39  37  38  41  44  45  43  45  45  43  38  35  35  33  34  38  37  33  34  33  31  29  28  28  29  26  24  24  22  19  17  17  18  18  18  21  19  18  17  16  18  19  22  27  34  37  43  59 133 159 163 165 164 165 164 164 164 164 164 164 163 163 163 163 163 161 161 162 161 162 160 160 160 161 161 160
 166 168 169 167 167 169 166 166 167 165 162 130  79  61  41  35  34  35  34  36  41  45  44  42  41  35  33  33  34  40  38  34  33  36  33  30  29  27  27  26  25  23  21  22  20  18  18  17  17  18  17  18  19  18  16  16  17  18  22  28  30  34  37  47 117 153 160 162 163 164 164 164 164 164 164 164 163 162 162 162 163 162 161 160 162 163 161 162 160 161 161 159
 165 167 166 167 165 166 165 164 165 163 142  82  68  54  36  30  31  32  32  34  39  43  39  39  39  39  40  39  41  43  38  33  30  30  30  28  27  26  24  24  23  22  19  19  19  18  17  17  16  17  17  17  17  18  17  17  16  18  21  25  26  30  33  39  64 133 159 164 165 163 164 164 163 164 164 165 163 162 164 163 162 163 162 163 162 162 162 161 161 160 160 161
 165 165 166 164 165 165 165 164 164 155  92  67  61  43  32  30  32  37  38  42  43  37  32  33  36  38  40  37  34  34  34  36  36  35  32  29  26  26  24  22  21  20  18  18  18  16  18  16  16  16  16  17  17  16  16  16  18  18  19  21  25  27  29  36  47  66 140 161 165 164 162 161 163 163 164 164 164 163 164 161 161 161 162 163 164 162 162 162 161 161 161 160
 164 165 164 165 165 166 166 165 162 117  72  60  50  34  33  32  33  36  38  37  40  36  33  35  37  35  32  30  29  29  29  32  34  32  29  29  28  26  24  22  24  23  21  20  18  16  16  16  16  17  17  17  17  17  17  18  18  18  18  20  22  23  26  32  33  41  96 152 161 164 162 162 162 164 163 164 164 162 164 164 162 161 161 163 163 161 161 161 161 162 161 160
 163 165 164 164 164 165 165 164 142  77  60  55  42  37  37  30  31  33  40  48  49  42  36  35  32  29  28  30  34  34  28  26  26  26  27  26  25  25  23  21  20  22  22  21  19  16  15  15  16  16  18  17  17  18  18  17  19  19  18  20  20  22  25  29  30  35  65 138 157 162 164 164 164 163 164 163 163 163 163 162 163 163 160 162 163 162 162 161 162 162 160 160
 163 165 164 164 164 164 165 161 101  65  56  49  40  36  33  34  36  39  42  38  36  39  42  42  37  34  36  35  33  28  23  21  22  22  24  27  30  30  28  25  24  20  18  18  19  16  15  15  16  16  18  17  18  18  17  19  20  20  21  22  22  23  25  26  30  31  51 130 157 162 164 164 164 163 165 164 164 163 164 164 163 163 161 162 162 162 164 163 162 161 161 160
 166 165 164 163 164 165 164 150  66  55  49  44  35  32  34  36  36  33  30  30  31  33  34  34  34  33  32  29  27  25  25  25  22  20  19  22  26  28  28  28  26  24  22  18  16  16  16  16  17  16  17  17  18  18  17  17  18  20  20  21  22  22  24  25  30  31  45  97 153 162 164 164 164 165 164 164 164 164 164 163 162 161 161 162 163 163 162 162 161 161 162 161
 165 165 164 163 164 165 163 122  58  50  45  36  30  31  33  33  30  27  29  31  33  36  35  34  32  29  30  28  28  29  31  30  28  23  22  22  21  19  21  25  24  24  22  21  19  16  16  16  16  15  16  17  16  17  17  17  17  19  19  20  22  21  23  25  31  30  40  57 131 161 164 165 164 164 164 165 163 162 162 163 162 161 161 162 162 163 162 162 161 162 161 162
 165 165 164 165 165 164 157  81  51  45  40  30  30  29  30  28  25  24  25  31  34  32  33  31  32  32  29  28  30  31  33  31  30  29  27  23  19  20  18  18  20  23  19  20  20  19  18  18  16  17  15  16  16  16  16  16  17  18  18  21  22  23  23  27  30  30  35  49  87 154 163 164 163 162 164 164 164 163 163 164 163 161 162 163 163 161 163 162 162 163 163 162
 165 163 165 164 163 163 143  59  47  40  34  29  28  28  27  25  22  23  27  33  35  36  34  34  30  25  25  28  30  30  31  33  38  33  29  27  25  23  23  23  22  18  17  16  15  15  16  17  16  16  16  16  16  16  16  16  16  16  17  17  18  23  23  26  28  28  33  45  68 147 161 164 162 163 164 164 164 163 162 163 163 163 163 163 163 164 163 162 162 161 162 161
 162 164 164 164 164 162 116  54  42  36  32  30  27  29  26  23  24  29  30  33  34  29  26  21  20  21  25  28  28  32  35  36  33  30  30  26  27  26  23  23  19  16  16  16  16  16  15  15  16  16  16  16  16  18  16  17  17  18  17  19  20  23  24  22  25  27  31  39  58 120 156 163 162 162 164 165 164 162 162 162 162 161 163 163 164 164 162 163 162 162 162 162
 163 163 163 164 164 160  88  51  35  33  32  28  28  28  25  25  27  29  29  28  27  27  26  22  24  24  26  29  33  35  32  30  29  27  27  26  22  22  24  21  16  16  16  17  16  17  16  17  17  16  16  16  17  17  16  16  16  18  17  18  21  25  24  21  23  29  29  37  55 114 157 164 163 164 164 165 164 163 162 164 163 163 163 164 163 164 163 162 163 163 163 161
 162 162 164 163 161 148  58  47  32  33  32  29  28  27  28  32  29  25  25  28  29  29  27  27  27  26  26  32  32  30  27  26  25  25  22  22  23  24  24  20  21  19  21  22  20  22  21  21  20  20  20  19  18  20  19  19  18  18  18  22  21  23  23  23  25  30  31  36  49  90 156 164 164 163 165 165 165 164 162 162 164 162 164 163 162 162 163 163 164 163 162 162
 164 163 164 162 160 117  48  40  32  34  33  31  30  30  34  33  29  26  29  31  31  32  32  31  29  28  31  32  29  29  28  26  26  27  26  26  27  25  24  24  24  25  25  24  24  25  26  25  24  23  24  25  23  23  22  21  22  23  22  24  23  24  23  25  27  32  30  32  43  68 146 162 163 163 163 163 163 164 161 161 163 163 163 164 164 164 164 163 164 162 162 163
 163 162 162 161 158  80  43  36  35  37  36  35  34  37  40  33  28  30  32  32  34  35  35  35  35  35  35  33  32  30  30  30  31  30  30  30  30  28  27  28  28  28  28  29  29  29  29  28  27  27  28  27  26  27  27  26  26  25  26  26  27  26  24  26  27  31  32  32  40  55 128 157 161 162 163 163 163 163 162 163 161 163 164 164 164 164 163 164 163 163 162 162
 164 161 162 161 152  59  41  38  36  40  46  40  44  48  48  33  31  35  34  35  34  35  35  36  34  35  34  33  34  34  35  35  34  34  33  33  32  32  32  32  30  30  30  31  31  31  31  31  31  30  31  31  29  30  30  30  29  29  30  31  31  30  24  27  30  32  33  34  37  49 101 158 164 165 165 164 164 163 163 163 162 163 163 164 164 163 164 163 164 164 162 161
 161 161 162 162 148  54  42  43  44  49  52  55  58  64  60  35  35  41  40  36  36  40  39  40  39  41  38  40  40  39  39  38  38  38  37  36  35  34  34  36  34  35  34  33  34  36  34  36  36  34  35  34  34  34  35  33  33  34  37  38  35  32  28  28  31  32  31  34  35  44  74 154 163 164 164 163 164 165 163 161 164 164 164 164 164 164 163 163 164 164 164 163
 162 161 162 162 148  54  43  42  47  50  54  65  73  81  73  41  48  51  42  39  45  49  49  48  46  46  46  46  45  45  44  44  44  43  42  41  40  39  39  39  38  37  39  39  39  39  40  39  40  40  39  40  38  37  37  37  40  41  42  42  38  34  30  29  30  29  31  34  33  42  62 141 161 162 163 162 162 163 162 160 163 162 163 164 164 162 163 164 164 164 163 161
 161 161 162 161 147  50  42  42  45  46  56  70  87  96  86  50  56  49  45  49  52  54  53  52  52  52  53  51  50  49  49  48  47  46  46  45  43  43  43  43  42  41  42  42  43  42  42  43  43  42  42  42  42  42  43  45  45  44  43  44  42  39  32  29  29  27  30  34  33  40  60 141 161 164 164 163 164 164 164 164 163 164 165 165 164 164 164 164 164 164 163 164
 164 163 163 161 148  50  40  41  40  47  62  81  97 104  97  69  63  56  59  62  63  63  61  60  59  59  57  56  57  57  54  51  50  49  48  49  48  48  47  47  46  44  46  46  46  46  45  47  46  46  47  47  46  47  47  47  47  48  48  49  46  42  35  31  32  29  31  33  33  38  61 147 162 164 164 164 164 164 164 164 165 164 164 164 164 164 164 163 163 163 164 162
 164 164 164 163 140  51  40  38  39  49  65  86 102 110 103  87  79  74  75  77  74  72  71  70  69  66  66  65  64  61  59  55  55  54  50  52  51  51  51  49  50  48  48  48  49  48  48  48  49  49  49  50  50  50  50  50  50  50  51  50  48  45  39  34  32  29  30  32  33  36  60 146 162 164 164 164 163 164 165 164 164 163 163 163 164 164 163 164 164 164 164 163
 165 165 165 164 148  53  39  37  40  52  67  88 105 112 108 100  92  86  87  87  83  81  80  78  76  74  71  68  67  65  63  62  59  57  55  55  56  55  53  52  52  52  52  51  50  51  51  50  51  51  51  52  52  53  51  51  51  52  52  53  50  48  44  39  34  30  30  30  33  36  52 141 163 165 165 165 164 165 164 165 165 164 162 164 164 163 163 163 163 163 163 162
 167 168 169 167 148  52  36  37  44  52  65  84 104 114 112 107 101  93  92  90  90  88  84  83  82  79  74  73  71  70  68  65  63  61  58  57  57  58  57  56  54  55  55  54  53  54  54  53  54  51  53  53  53  52  52  54  54  53  54  55  54  51  46  43  35  31  30  31  31  35  44 130 160 165 164 166 165 165 165 164 164 165 165 165 166 164 163 164 164 162 164 163
 168 171 172 170 149  45  35  40  45  51  64  84 107 114 114 109 103  96  94  93  93  90  89  88  85  82  79  77  74  72  70  68  67  65  63  61  61  61  60  60  60  58  57  56  56  56  55  55  53  54  56  55  53  54  53  52  55  57  56  57  58  53  48  48  39  32  29  32  31  34  42 130 159 164 163 166 166 166 164 164 164 164 165 166 165 165 164 164 164 164 164 162
 173 174 176 174 144  45  36  40  42  48  63  86 108 112 113 110 107 102  99  96  93  94  93  92  91  87  84  82  79  77  74  73  70  69  68  66  63  63  62  61  61  62  60  59  59  59  60  57  55  56  57  56  55  55  55  55  57  58  58  58  58  58  56  53  40  31  29  30  29  34  48 136 161 165 164 164 165 166 165 166 166 164 166 166 165 165 165 165 164 163 163 164
 182 183 183 181 146  44  38  39  40  47  62  87 107 113 112 110 108 108 105 102 101 100  98  97  93  90  87  85  84  82  78  75  73  72  69  67  66  65  64  62  63  62  61  59  60  59  59  58  57  58  56  55  56  57  58  57  58  58  58  58  60  60  59  57  45  33  29  29  30  36  54 140 162 166 165 165 165 166 167 166 167 165 165 166 164 165 164 165 164 162 164 164
 191 190 189 188 157  43  39  36  36  45  60  84 104 111 111 110 112 108 107 105 105 102 102  98  94  92  90  87  84  84  82  78  77  73  70  68  66  64  64  62  65  64  62  61  60  61  60  56  58  58  58  56  58  59  60  59  60  59  61  61  61  61  62  62  51  37  30  29  31  34  54 143 161 164 164 166 166 164 166 166 166 166 166 165 164 165 165 164 165 164 164 165
 189 189 190 188 155  44  39  33  36  42  58  85 105 112 111 111 112 110 109 107 107 103 102 100  96  94  91  88  85  83  84  80  78  74  70  68  68  65  65  64  63  66  62  62  62  62  61  60  59  59  57  57  58  58  59  61  61  60  62  62  62  64  63  63  56  39  32  29  32  37  59 144 161 163 162 164 164 164 165 166 166 166 166 166 164 165 164 165 164 164 165 164
 183 185 184 181 160  44  39  35  35  40  58  88 106 112 116 115 113 112 109 108 107 106 104 101  99  96  92  89  86  83  81  80  77  74  72  68  68  65  65  66  66  64  64  63  62  63  61  61  58  58  58  59  59  58  59  60  61  61  62  64  64  66  64  66  62  43  33  28  31  37  64 152 162 164 167 167 168 167 167 167 167 166 168 166 166 166 165 165 164 164 164 164
 178 177 178 175 148  45  38  36  34  39  59  91 110 115 118 117 116 112 108 108 108 106 105 103  98  93  89  88  86  82  80  79  76  74  71  67  65  63  64  66  65  64  63  64  62  62  62  61  58  58  57  58  58  60  58  59  59  61  62  64  66  68  68  69  66  48  34  29  31  36  68 154 163 166 167 167 167 166 167 167 167 165 166 165 165 165 165 165 164 165 165 164
 172 173 174 170 148  44  36  34  34  40  59  95 114 120 120 120 117 113 109 107 107 106 105 103  97  91  87  84  85  82  78  78  76  72  71  68  63  61  63  64  63  62  64  66  64  63  61  60  57  56  58  59  58  60  60  60  60  60  62  63  65  68  70  71  70  53  35  30  31  36  76 156 165 166 166 167 167 166 167 168 167 166 167 166 166 165 166 166 166 165 164 164
 168 171 171 170 154  46  36  33  34  38  62 100 116 122 124 119 117 114 109 106 106 106 102  97  91  87  86  85  82  81  78  76  75  73  72  69  65  62  62  62  61  62  65  65  65  64  60  58  56  54  57  56  56  56  59  59  58  59  60  62  64  69  74  75  73  58  35  31  33  37  94 158 166 167 167 168 168 167 168 167 167 167 167 166 165 165 167 166 167 167 166 165
 166 166 169 167 153  47  36  33  33  36  62 103 118 123 123 120 118 115 112 108 107 103  98  92  90  86  84  83  82  80  78  76  73  72  72  68  66  64  62  61  60  60  64  65  63  61  59  55  54  54  54  54  55  58  59  59  60  62  62  64  67  70  74  77  75  63  35  31  32  38  96 160 167 168 168 168 168 167 167 167 168 166 166 166 166 167 167 166 166 167 165 165
 166 166 167 167 149  48  35  32  30  35  66 106 116 120 121 122 118 114 107 104  99  92  88  85  83  83  82  80  80  78  76  74  72  71  70  68  64  64  64  62  60  59  60  60  61  59  56  54  54  54  52  53  52  54  52  54  60  64  64  67  71  73  75  75  76  69  36  30  31  37 101 161 165 168 167 168 168 167 169 168 167 167 167 167 166 166 167 167 166 166 165 166
 166 166 168 167 144  49  34  32  29  35  71 105 115 118 116 112 102  94  84  72  64  59  59  59  56  56  60  61  69  70  70  71  69  68  67  63  63  63  62  60  60  56  59  62  61  56  54  52  51  49  49  46  44  41  37  38  41  45  49  54  62  66  66  67  73  67  37  29  31  37 104 161 166 168 168 168 167 168 168 168 167 168 167 168 167 166 167 167 166 165 166 165
 167 167 167 166 142  43  32  33  29  34  75 105 112 112 104  83  69  64  59  48  42  38  34  33  33  35  38  42  47  54  55  58  57  60  61  60  59  61  58  58  59  57  59  59  57  55  52  47  46  43  42  37  35  31  29  27  26  26  26  29  34  42  42  50  65  68  37  28  31  35  97 162 168 169 168 168 168 168 168 167 168 166 167 167 167 166 165 167 166 166 165 165
 167 167 166 164 127  38  31  32  28  34  80 106 111 102  81  56  48  47  45  37  33  30  28  27  28  28  26  29  32  37  42  44  46  50  52  56  57  55  54  55  54  54  56  56  53  49  45  40  37  34  32  28  27  27  25  23  23  23  20  20  21  21  23  22  27  32  26  25  28  33  89 164 167 167 168 167 168 167 168 168 167 167 167 167 166 167 166 167 166 166 165 166
 166 166 165 159 107  42  32  31  30  37  87 104  90  63  49  42  35  34  32  29  29  27  28  26  25  25  23  24  24  25  28  30  34  36  43  51  53  51  50  49  50  49  51  50  47  44  38  32  30  26  24  21  21  21  23  26  26  27  27  28  29  29  32  31  31  30  26  21  20  22  19  29  55 123 165 167 168 168 169 168 168 168 167 166 167 166 167 166 164 167 166 165
 165 166 163 154  86  51  49  44  42  43  42  30  25  30  37  43  50  59  60  60  55  52  51  47  42  39  36  33  28  24  22  21  22  24  29  38  42  43  43  44  43  43  45  44  42  35  30  24  21  20  23  28  31  32  33  33  35  35  36  35  34  35  35  35  36  36  30  30  27  22  23  30  38  92 163 168 168 168 167 167 168 167 166 166 167 166 167 166 166 167 166 165
 164 162 163 147  71  62  62  53  31  28  29  27  47  53  55  62  70  73  72  68  63  60  55  50  46  44  39  37  36  36  35  32  26  22  19  19  22  26  29  30  29  28  27  24  23  22  18  20  25  28  30  32  34  35  36  37  40  42  43  43  44  43  41  39  41  44  33  25  27  26  23  31  83 136 166 167 166 168 167 167 167 167 166 165 166 166 166 166 166 166 166 166
 164 165 159 119  68  52  32  27  27  26  30  72  67  62  66  67  71  71  71  71  67  64  60  53  50  45  41  36  35  36  36  35  35  34  27  19  17  18  19  19  17  17  16  16  17  18  24  29  30  31  32  32  34  34  37  39  42  44  44  46  46  45  43  43  45  49  40  26  36  44  27  54 148 164 166 167 167 167 167 166 167 166 166 166 166 166 167 165 166 165 165 164
 166 162 141  90  67  84  67  38  27  30  61  94  75  68  68  68  65  64  66  65  63  59  54  52  49  46  44  41  37  36  35  35  37  38  40  28  17  17  20  19  17  17  16  15  17  22  29  31  30  31  31  33  34  35  36  39  40  39  40  40  41  41  43  46  48  55  57  36  52  58  32  46 114 162 167 168 166 167 166 166 167 166 166 165 168 166 165 165 165 165 164 164
 166 162 131  63  57  75  76  50  28  38  68  93  82  71  69  64  55  52  50  47  45  43  42  39  38  37  34  35  35  34  35  35  35  37  43  40  20  18  20  26  31  28  21  17  18  27  30  30  31  31  30  30  31  31  30  31  29  28  28  30  30  33  36  41  46  56  68  44  51  49  32  36  94 162 166 165 167 167 167 167 166 166 166 165 166 166 164 165 166 164 163 165
 165 163 135  61  52  50  62  52  30  44  83 103  89  80  68  54  41  35  34  34  32  30  29  27  26  27  28  30  32  31  31  31  32  36  42  44  23  20  35  60  70  67  46  25  18  27  30  29  28  27  26  27  25  22  19  19  19  18  19  22  22  25  26  30  41  54  68  49  42  39  32  33  99 162 166 165 165 166 165 166 165 166 165 164 164 164 164 164 164 164 162 163
 164 163 137  62  48  48  55  54  31  49  95 108  95  83  61  38  28  25  25  27  32  27  24  26  26  23  24  30  31  29  29  30  32  36  42  44  23  22  58  90  92  85  68  39  20  25  27  26  25  26  25  26  25  18  21  20  18  17  22  27  21  19  20  23  32  47  65  54  42  41  33  37 112 162 165 166 166 166 165 166 165 165 164 164 164 164 164 164 163 164 163 163
 164 162 134  62  46  51  59  56  32  52 103 105  92  77  49  33  30  28  30  32  38  30  26  26  25  25  27  36  36  28  23  24  32  42  47  39  23  28  86 104 101  91  76  52  23  24  27  28  25  23  23  28  29  19  18  18  18  18  25  28  29  29  32  35  35  44  58  61  41  43  34  36 121 161 164 165 166 165 165 166 166 165 164 165 164 164 162 164 164 162 164 161
 164 163 140  63  49  54  66  60  33  49 106 106  91  71  54  61  66  57  55  53  49  45  39  35  33  34  35  37  35  32  31  32  40  48  49  31  23  43 104 110 107  94  83  65  31  22  27  29  26  25  25  26  29  30  29  30  28  32  35  38  40  41  44  46  51  55  61  62  43  43  33  43 134 161 163 165 165 165 166 166 165 164 164 164 164 164 162 164 162 161 163 161
 162 162 151  76  56  64  80  59  36  47 102  92  81  76  86  89  79  69  69  71  71  65  60  53  51  48  45  43  41  42  43  44  47  53  48  29  23  73 111 111 104  95  85  75  44  21  27  30  31  33  32  32  33  34  35  36  37  41  42  44  43  43  47  51  56  64  73  70  45  45  34  55 149 162 164 165 164 164 165 165 164 164 164 163 161 161 163 163 161 162 161 161
 162 162 160 103  69  72  85  57  39  40 104  98  97 110 107  93  79  71  67  65  64  61  59  53  49  46  44  43  44  44  43  45  53  61  41  28  29  94 112 110 106  97  89  82  62  26  25  34  33  33  33  35  35  34  35  35  36  37  39  40  41  42  45  51  61  62  71  75  49  48  34  83 156 162 163 162 164 164 164 164 164 163 164 163 162 162 161 162 161 161 160 159
 163 164 162 143  85  79  90  57  40  37 101 124 121 108  93  90  90  86  74  67  61  58  53  48  46  45  45  45  45  47  54  61  68  67  37  26  57 104 115 114 109 101  92  85  72  38  22  37  41  39  38  39  40  40  40  39  37  39  40  42  43  46  47  49  55  64  69  74  60  47  37 124 158 163 164 161 164 163 164 164 163 163 164 162 161 160 162 162 161 160 159 159
 163 162 162 162 122  86  90  58  50  50  75 120 107  97 103 108  90  77  66  59  57  55  54  52  47  48  48  51  57  66  73  76  79  66  36  25  86 108 120 117 109 103  94  86  74  50  22  31  44  45  45  46  45  45  43  41  42  42  43  45  46  50  55  60  63  67  72  71  65  43  53 142 160 162 161 162 162 163 162 162 163 163 164 162 161 160 161 160 160 159 160 159
 163 164 165 163 150 101  92  60  53  74  48 105 102 112 120 112 105  94  83  76  68  63  61  61  61  63  68  73  75  78  81  83  81  58  31  43  97 104 115 115 110 104  96  85  74  57  31  22  42  48  48  49  48  48  48  47  47  48  50  54  56  60  64  66  68  67  68  73  61  41  70 152 162 161 161 163 163 162 162 162 162 160 163 162 161 160 162 160 160 159 159 159
 164 164 164 164 158 116  93  63  59  97  44  87 113 118 115 108 100  97  92  90  89  81  80  77  77  77  80  84  84  84  84  83  75  45  26  76  97 101 109 117 115 108 101  90  78  60  42  20  29  47  52  53  53  54  54  56  56  58  60  61  61  65  69  70  70  70  69  70  41  49  74 152 160 162 162 162 161 160 160 162 161 162 161 161 160 159 159 159 160 158 157 158
 162 163 165 165 162 130 100  77  67 100  77  54 112 112 107 104 101  99  99 102  97  92  88  85  82  83  84  84  85  85  86  84  60  27  40  91  96 100 106 113 114 111 103  93  82  65  49  31  18  32  52  58  59  58  57  59  62  65  64  65  66  69  72  72  74  73  71  42  45  55  77 154 159 160 161 161 160 158 160 160 161 161 161 160 160 160 159 158 159 158 157 157
 163 164 164 164 163 139 104  99  82  94 108  52  65 105 102 102 104 100 103 105 100  98  93  86  83  82  84  85  87  88  86  62  22  29  66  93  98 100 107 114 118 117 107  96  84  70  57  46  30  21  31  51  57  60  60  61  62  65  65  67  68  68  70  74  76  62  32  47  68  58  86 151 159 159 160 160 160 161 160 159 160 159 160 160 160 160 159 160 158 158 157 156
 163 163 164 164 165 147 109  99 111 105 110  99  48  64 100 101 102 103 109 109 105 102  96  88  86  86  87  84  86  83  49  23  31  48  81  94  97 100 106 116 122 120 109  99  88  75  64  55  43  31  26  23  32  49  56  58  60  61  66  66  68  68  64  51  32  28  57  76  76  68  95 152 158 159 160 160 161 160 160 160 159 160 159 159 159 159 158 158 158 158 156 155
 163 163 164 163 164 155 121 111 117 103 109 113 100  46  47  87 104 105 109 110 104  99  92  90  87  87  87  76  53  25  31  40  45  71  90  97  98 100 106 117 126 123 116 104  91  82  68  59  50  40  34  33  29  24  22  28  32  39  37  36  32  25  28  39  53  66  69  75  78  77 108 154 158 159 160 159 160 159 159 160 159 161 158 160 160 159 159 157 157 156 154 154
 163 164 164 163 164 160 133 131 114 104 110 114 116 112  79  42  41  64  80  83  83  80  76  69  58  48  32  24  35  44  43  43  57  82  97 101 103 104 110 120 125 124 117 105  93  84  72  61  57  50  41  37  34  37  40  43  43  43  46  50  55  55  56  61  62  64  66  71  76  74 123 153 158 159 159 160 159 158 160 159 159 158 159 158 159 158 159 158 156 156 154 154
 163 164 162 163 164 162 144 134 122 111 108 112 116 114 110 105  88  64  45  36  31  28  31  33  38  42  47  47  44  43  47  61  82  93 101 104 102 106 114 123 125 124 116 104  94  85  73  64  64  67  63  50  37  34  36  40  43  47  49  52  53  54  56  58  59  60  62  66  73  73 120 152 158 159 159 159 158 158 158 159 159 158 157 156 157 158 158 157 157 154 154 153
 163 164 164 164 163 163 149 132 127 118 110 113 114 108 107  99  93  83  72  65  57  52  51  51  50  48  44  41  42  48  69  92 100 104 104 105 105 107 115 122 125 121 114 102  91  80  72  66  69  78  76  66  45  32  34  37  41  46  48  51  54  54  55  53  53  55  60  64  70  69 121 154 157 157 157 157 157 158 156 158 158 158 156 158 158 158 157 156 154 156 153 154
 163 163 164 164 163 162 147 122 122 118 114 114 113 106 100  92  88  81  75  75  68  60  56  53  48  45  40  38  44  55  86 102 106 107 108 105 104 106 113 120 124 121 109 100  90  80  71  66  70  80  79  72  52  34  33  35  38  44  47  50  50  52  50  49  52  53  58  63  68  74 137 154 156 158 157 159 159 159 158 160 159 159 157 158 158 159 158 155 154 155 155 152
 162 161 163 162 162 161 154 116 116 119 118 112 110 100  93  87  83  79  75  72  66  61  55  49  44  39  37  40  47  58  88 101 104 107 107 106 104 106 110 117 124 121 110 101  89  78  69  66  69  77  76  67  53  34  35  35  37  41  43  46  48  49  49  48  49  51  57  62  69 117 151 155 158 158 158 158 159 157 157 159 157 157 157 157 157 157 158 156 155 154 153 153
 163 162 164 163 162 164 160 130 103 107 106 108 106  95  88  82  80  78  73  66  61  56  50  45  39  37  39  43  51  58  78  93  97 100 105 105 102 103 108 115 119 113 107  99  86  73  66  63  63  64  62  56  45  37  38  37  36  37  39  43  46  46  47  48  48  50  53  60  97 151 156 158 157 157 158 157 158 158 157 158 158 158 156 156 158 155 157 155 155 154 152 152
 163 164 162 163 163 163 164 159 119  89  83 101 102  92  82  81  81  76  69  60  54  48  44  39  36  40  42  47  56  60  68  80  87  89  91  96  96  98 102 108 112 110 102  91  80  68  61  54  51  49  47  45  39  38  39  38  36  35  36  39  43  45  45  45  46  48  53  61 110 152 155 157 156 156 156 156 157 157 156 157 156 156 157 156 157 156 157 155 154 155 153 153
 162 163 163 162 163 162 162 163 160 152 132 132 102  89  81  76  77  73  63  55  49  44  38  36  37  42  47  55  64  67  66  65  69  72  73  79  81  85  88  96 101 100  88  78  70  60  52  47  40  37  37  37  37  38  40  37  36  35  34  35  39  43  44  44  45  46  52  62 118 151 154 154 154 154 154 156 154 153 155 155 155 154 156 155 155 155 156 154 154 154 153 153
 163 163 163 164 163 163 164 164 162 163 161 148 106  90  81  75  69  65  56  49  42  36  35  37  39  43  53  62  68  71  68  65  61  56  50  48  54  63  72  76  82  82  70  60  54  49  43  33  29  33  34  35  38  40  40  39  35  34  34  34  35  40  42  43  45  47  53  64 128 150 154 153 153 154 154 153 154 154 154 154 152 154 154 153 154 154 153 154 152 154 152 151
 163 163 163 163 163 163 165 165 164 164 163 153 110  90  81  73  68  60  52  45  38  33  35  38  40  46  57  68  73  73  75  75  69  62  60  51  45  46  50  59  64  62  54  48  44  41  34  31  31  34  36  39  40  40  40  39  37  35  36  35  34  35  40  44  46  49  56  66 133 151 153 153 153 152 152 153 153 152 151 152 151 153 152 151 153 154 153 154 153 153 152 151
 163 162 163 165 163 164 165 163 164 163 162 156 115  92  81  72  67  57  51  44  37  35  36  41  48  54  66  73  76  79  85  86  78  72  69  63  61  54  50  53  55  51  45  41  41  38  34  33  34  38  40  44  44  45  42  42  40  38  38  37  36  33  39  45  47  50  55  74 142 152 153 153 152 153 152 152 153 152 153 153 154 153 153 153 154 154 155 155 153 151 150 151
 162 162 163 162 162 163 165 164 163 163 163 159 126  93  84  76  68  58  46  38  34  41  43  49  57  67  75  81  84  90  93  90  86  83  76  72  68  60  56  52  50  48  41  38  38  38  38  38  38  42  43  47  49  48  46  43  41  38  38  39  39  33  38  45  48  52  55  85 147 152 151 153 152 152 151 152 152 152 153 153 153 153 154 154 154 154 153 154 152 152 151 151
 162 162 164 162 163 164 163 164 164 163 163 160 136  97  85  79  69  56  46  34  36  44  47  52  59  69  77  84  90  92  95  95  93  89  82  76  71  64  58  52  47  43  41  38  40  40  40  40  42  43  45  48  51  52  48  44  40  37  37  38  40  36  43  47  50  53  59 107 147 152 152 152 153 152 152 152 152 151 153 153 152 153 154 153 154 153 154 154 153 152 151 152
 162 162 162 162 163 164 164 165 163 165 164 162 146 101  87  81  72  59  48  35  39  47  47  49  55  67  75  83  88  91  95  96  95  93  88  80  73  66  60  53  50  45  44  44  43  44  45  44  45  46  46  48  48  48  46  40  30  30  34  39  43  39  47  49  50  52  62 122 149 153 152 152 153 152 152 152 152 153 154 153 152 152 153 154 154 154 153 153 153 152 151 150
 163 163 163 164 164 163 164 164 163 165 163 163 155 109  89  82  73  64  51  40  41  48  45  42  45  49  55  62  65  71  73  82  82  78  81  74  71  68  65  58  54  51  52  51  50  47  44  43  41  39  41  41  40  38  29  19  19  29  39  41  43  44  49  50  52  56  70 136 150 153 154 153 153 152 152 152 154 153 154 154 153 153 153 153 152 153 152 152 152 152 151 149
 162 163 164 165 165 164 164 164 166 165 163 164 159 121  93  84  73  68  58  45  41  52  46  43  34  22  21  24  36  44  49  51  51  53  54  55  56  56  57  56  54  52  49  46  44  41  37  35  33  33  33  32  29  21  16  17  27  35  42  46  46  48  51  51  53  57  93 145 151 153 153 152 153 152 151 153 152 153 152 154 153 154 154 152 154 154 152 152 152 152 150 150
 162 164 166 167 165 166 166 165 166 165 164 164 163 141  95  86  80  73  65  53  46  52  54  53  46  30  22  17  29  45  59  55  60  50  44  44  43  41  42  42  42  40  36  35  32  32  31  30  32  30  37  39  28  16  18  25  37  43  43  48  48  52  51  51  54  62 117 148 152 153 153 153 152 153 153 152 152 152 152 152 154 154 153 152 153 154 154 153 153 152 151 149
 166 167 168 168 166 168 166 168 168 166 166 166 166 161 108  86  82  76  70  62  55  54  59  58  59  54  39  28  28  44  68  72  78  69  60  66  51  40  48  48  41  35  32  35  42  45  38  37  45  42  46  43  25  20  24  35  44  44  44  48  48  54  51  52  55  73 139 150 152 152 152 152 153 151 151 152 152 152 152 152 153 153 153 152 153 154 155 154 153 152 152 151
 168 168 170 169 167 168 169 169 170 168 168 168 167 166 133  91  84  79  75  70  64  60  58  60  65  68  62  47  39  39  60  70  83  74  76  90  78  59  79  87  78  59  42  58  66  66  54  52  56  49  46  38  22  26  32  43  48  46  44  48  50  53  51  52  59 105 146 150 151 151 151 151 152 151 150 152 152 151 152 152 153 152 154 153 154 154 153 153 153 153 152 151
 166 168 170 169 170 170 169 168 169 168 168 169 168 166 158 100  85  80  78  74  69  64  60  63  67  69  72  68  57  50  44  42  81  74  83  95  90  78  94 100  94  78  62  78  79  72  60  60  60  44  35  31  31  34  42  49  50  48  49  50  50  51  51  53  68 135 145 148 148 149 150 150 151 151 151 151 151 152 152 152 152 152 152 152 153 153 154 154 153 152 151 150
 169 168 170 170 170 170 170 169 169 169 169 168 166 167 164 131  88  83  81  76  73  67  63  65  67  72  75  80  73  64  57  48  65  55  62  93  89  81  92  93  90  83  73  82  79  70  54  51  51  32  29  34  37  41  47  49  51  50  52  53  52  51  51  58 103 143 144 146 145 147 148 150 149 150 151 150 150 150 150 151 152 151 152 152 153 153 153 153 153 152 152 151
 166 167 170 170 170 169 170 170 170 170 171 168 168 168 166 153 104  83  78  78  76  70  69  67  71  76  75  86  84  76  69  66  62  51  50  66  66  57  80  86  82  76  64  74  71  60  41  29  27  29  33  41  43  46  50  52  52  53  54  55  55  51  52  75 133 142 144 145 146 146 146 147 147 149 149 149 148 149 151 151 151 151 152 152 152 153 154 154 152 153 151 149
 166 168 170 170 170 170 169 170 170 169 170 167 168 169 168 158 130  87  78  76  76  75  73  70  72  78  79  83  87  85  77  74  76  71  61  52  39  42  58  61  62  56  40  43  43  34  30  31  34  38  41  41  41  48  49  52  53  54  55  57  52  51  58 117 136 140 141 143 143 144 145 146 146 146 146 147 147 147 148 149 151 150 150 151 152 152 152 153 152 152 151 149
 167 168 169 170 170 169 168 169 169 168 167 167 165 166 166 160 141 101  78  75  75  75  72  70  75  79  83  74  75  84  82  75  78  82  78  74  65  53  54  51  46  45  41  44  46  44  42  42  44  42  41  41  44  49  50  49  51  54  56  56  51  53  87 132 136 138 138 139 141 142 143 143 144 144 146 146 146 146 147 146 147 149 150 150 151 152 152 152 151 151 149 150
 166 167 167 168 168 168 166 167 166 165 164 165 163 163 164 160 145 111  90  76  73  73  74  74  76  82  84  80  75  84  87  81  76  79  83  80  75  72  68  63  58  56  54  59  58  52  49  46  43  41  40  42  47  49  51  50  52  55  57  54  50  60 112 133 135 137 137 137 138 139 142 142 144 144 143 144 144 144 146 146 146 147 147 150 150 151 151 151 150 151 149 149
 163 165 164 165 165 165 164 164 163 161 161 162 162 162 162 159 148 114 100  80  74  72  75  80  80  84  87  88  87  85  86  86  79  73  73  73  68  68  68  66  62  60  55  54  54  49  47  42  40  40  41  45  47  48  51  52  54  56  57  52  52  67 118 133 134 133 135 137 137 138 139 140 141 142 143 143 143 143 145 144 145 147 147 148 148 149 151 150 151 150 149 149
 163 163 163 164 163 163 163 163 163 162 160 161 160 161 161 159 148 118 103  88  74  71  74  79  81  84  88  89  89  86  84  84  79  75  70  66  62  59  59  57  54  52  50  47  46  45  42  42  40  41  44  45  46  48  50  54  54  57  55  53  56  71 118 131 131 133 133 134 135 136 137 138 140 140 141 142 143 142 143 143 144 145 145 147 147 148 150 149 150 148 148 149
 161 159 162 161 160 161 161 160 160 159 159 159 159 159 159 158 150 117 106  97  85  71  72  75  83  85  88  90  88  81  83  80  78  74  73  71  65  62  57  54  52  51  48  46  45  44  44  44  43  43  42  43  46  48  53  53  54  55  53  50  59  74 122 131 132 132 132 132 133 135 135 136 137 139 139 139 140 141 142 142 143 144 144 145 146 145 146 148 148 148 147 147
 158 159 159 158 159 158 160 159 158 158 158 157 158 158 158 158 150 117 105  99  93  78  71  73  80  86  81  84  88  87  87  80  76  74  71  68  67  65  59  55  54  52  50  48  47  45  45  44  43  42  42  44  45  48  53  54  53  52  51  54  62  74 121 131 130 130 131 130 131 133 134 135 137 137 138 138 140 139 140 140 141 143 143 144 144 145 145 145 146 146 146 145
 156 156 156 157 156 156 156 156 156 156 155 156 155 156 156 156 150 119 107 101  95  87  75  72  76  84  84  82  89  87  88  84  79  75  68  66  65  62  57  54  53  52  49  46  46  45  45  43  41  42  42  44  47  51  54  52  51  49  51  54  60  74 121 129 129 128 130 130 130 132 132 133 135 134 136 136 136 138 139 140 140 141 142 143 143 143 144 146 145 145 144 144
 154 155 154 155 155 155 155 155 155 155 155 153 154 155 155 154 149 118 108 102  97  91  82  73  73  79  85  86  87  88  88  88  84  77  73  70  66  62  58  57  53  52  49  45  46  46  46  47  45  44  45  48  50  55  55  53  51  48  48  54  61  75 120 129 130 129 128 129 129 130 130 132 133 134 135 135 135 136 137 137 137 138 140 141 142 142 142 143 144 144 144 143
 154 154 152 153 154 155 154 153 153 154 154 153 153 153 152 152 145 118 109 103  98  92  85  76  72  73  81  87  89  91  89  86  86  81  77  75  71  65  62  60  56  54  52  51  53  54  52  51  51  50  51  53  56  59  55  51  51  48  50  53  59  72 120 129 129 128 128 128 128 129 130 131 131 132 133 134 135 135 136 136 136 136 138 139 139 141 142 141 143 144 143 143
 151 152 152 153 151 152 152 150 151 151 151 149 151 152 151 150 144 117 110 106  98  94  90  83  74  73  76  81  89  91  92  92  89  86  84  84  78  76  75  72  69  69  67  67  66  64  61  61  58  55  56  58  59  59  53  49  49  50  50  54  61  73 118 128 128 127 127 126 126 128 128 129 130 131 132 134 134 132 134 134 135 136 136 137 138 139 142 142 143 141 142 142
 151 150 150 147 148 149 150 148 149 148 148 148 150 150 149 147 141 117 109 107 102  95  93  86  76  70  73  79  86  90  94  96  94  91  88  87  88  86  88  84  81  82  78  74  71  71  70  67  59  56  56  59  61  58  53  49  48  49  51  55  61  72 115 127 129 126 125 126 127 126 126 128 129 129 131 131 131 132 132 133 132 135 134 136 137 138 138 139 139 140 141 141
 148 147 147 145 146 147 145 145 146 146 145 146 146 145 146 144 138 118 111 106 102  99  94  89  82  76  72  76  84  85  90  96  95  91  89  91  92  89  91  92  90  85  81  76  73  72  70  67  59  54  55  56  57  55  50  48  48  49  52  56  62  71 113 126 128 125 126 125 126 127 125 127 128 129 130 129 129 129 130 131 132 133 134 134 136 136 138 137 137 139 140 140
 146 143 143 144 145 144 144 143 144 144 143 143 143 143 143 143 133 115 111 106 104 101  98  92  87  78  73  70  79  86  89  94  95  91  87  87  93  93  95  91  89  86  83  77  74  72  68  64  60  57  58  55  55  52  48  46  47  50  52  57  61  67  74 106 125 124 125 124 123 125 126 126 128 127 129 128 129 129 130 129 131 131 131 132 133 135 136 137 136 137 138 137
 142 141 142 142 144 142 142 142 143 140 141 141 139 136 135 136 128 114 111 108 105 103 100  96  89  84  77  71  72  81  87  89  92  90  84  83  87  88  92  88  86  86  82  74  71  70  69  62  59  56  54  54  50  48  44  45  47  49  54  57  61  66  60  52  88 114 121 123 123 125 124 125 125 125 127 127 128 128 129 128 129 130 131 132 132 133 136 136 135 137 136 137
 143 139 140 140 142 142 140 137 118  92  71  63  59  61  82 135 123 114 110 109 107 103 101  98  93  86  81  76  70  72  79  84  83  84  76  77  85  86  85  83  82  78  72  69  69  65  64  61  55  53  53  48  45  43  43  45  48  50  53  57  60  65  66  43  53  64  75  97 117 122 122 125 124 125 125 125 126 126 128 128 128 130 130 130 132 133 132 133 134 135 136 133
 140 138 137 139 139 138 121 100  58  47  37  33  34  43 130 132 123 114 110 108 106 106 103  99  95  90  86  80  72  70  71  75  75  76  72  72  79  80  80  73  72  70  65  63  63  62  58  55  52  50  47  42  42  41  44  46  48  51  55  58  61  64  67  50  42  49  52  50  46  71 110 121 123 123 124 124 126 125 125 126 127 128 128 130 130 131 131 132 133 133 133 134
 140 138 136 130 125 110  97  78  37  27  25  23  49 129 137 129 120 114 111 109 109 108 104 103  98  94  91  84  78  70  67  67  70  68  72  70  72  73  73  70  67  64  61  57  55  53  51  50  47  45  42  38  38  41  46  47  50  52  55  57  61  63  66  52  37  43  47  46  39  41  40  74 114 122 123 124 122 124 126 125 125 125 127 128 130 131 131 131 131 131 133 132
 136 134 106  93  93  93  86  67  26  40  37  79 133 140 137 127 117 113 110 110 109 107 106 105 103  99  96  90  84  77  70  62  61  60  65  66  68  64  59  62  58  59  55  52  50  48  48  47  44  39  36  37  41  43  45  47  50  53  54  56  60  62  64  54  36  42  43  45  41  35  34  34  46  78 102 114 121 121 124 123 123 124 127 127 127 128 129 130 130 132 130 131
  88  75  84  86  84  86  84  63  50  32  89 126 136 137 133 123 116 110 111 110 109 109 108 105 102 100  97  92  88  83  75  68  61  53  56  54  55  56  54  53  51  49  49  47  44  44  41  40  37  34  34  40  43  44  46  48  52  53  54  57  59  61  63  54  36  36  36  41  43  33  32  33  32  38  42  44  54  73  91 115 121 122 125 125 127 126 128 129 130 130 130 130
  57  75  76  82  85  76  78  68  44  69 111 124 131 133 130 121 113 108 109 109 110 111 107 104 103 100  98  96  93  88  82  76  70  59  53  49  49  48  48  45  43  40  40  38  36  37  36  35  33  36  42  44  45  47  48  49  53  54  55  56  58  60  62  52  36  33  35  36  42  32  31  32  32  33  30  34  36  41  44  48  68  98 119 122 125 126 127 128 129 129 130 128
  56  73  73  76  79  74  76  72  48  82 107 118 124 128 128 120 112 108 106 109 110 110 108 106 105 103 100  95  94  90  84  79  74  68  63  56  51  45  42  38  38  36  35  34  34  34  36  37  40  42  45  45  46  49  49  50  52  54  54  56  56  56  60  46  32  32  33  34  37  30  28  29  30  28  29  29  33  37  37  38  43  43  47  78 110 124 125 125 128 128 128 129
  50  64  70  71  72  66  74  73  58  78  99 112 118 125 124 117 109 107 105 106 109 110 108 106 105 104 100  97  93  90  88  84  78  73  70  66  60  56  53  49  45  44  42  42  41  41  41  44  43  43  47  47  47  49  49  52  52  54  54  54  54  55  59  41  34  31  31  31  33  26  26  28  28  27  28  28  30  31  34  37  37  37  39  44  44  58  85 112 124 126 125 127
  44  59  69  67  74  69  67  70  67  71  89 102 108 115 115 112 108 107 107 107 109 109 106 107 107 104 102  97  93  91  88  85  82  77  73  70  67  63  60  58  57  53  52  52  49  48  46  45  45  46  47  47  47  50  51  52  52  53  52  53  52  55  52  35  33  29  33  31  30  22  24  23  26  27  29  28  27  30  31  35  34  35  34  36  42  37  42  45  60  94 121 124
  42  44  63  65  73  64  63  66  66  65  78  91 100 100 104 108 107 106 104 105 108 108 107 107 105 105 102  97  94  90  88  85  82  79  76  72  69  68  64  62  62  59  58  56  54  50  47  47  45  47  48  47  48  50  51  51  53  51  51  51  51  54  43  34  30  29  31  32  28  23  25  25  26  28  27  27  29  28  29  33  32  33  35  34  38  35  36  38  41  47  47  65
  43  45  58  67  64  61  65  60  61  62  66  82  90  92  93  97 103 104 105 105 108 107 105 104 103 101  99  96  92  89  87  82  78  76  75  72  70  68  66  64  65  64  63  62  58  52  49  45  45  47  46  48  50  51  52  51  50  51  50  49  50  48  36  35  31  30  30  30  25  21  26  28  26  25  27  30  32  30  30  31  31  31  36  33  35  34  36  36  37  39  43  43
  43  50  47  60  64  64  59  59  57  63  67  77  81  81  80  87  94 102 104 105 106 105 102 102 101 100  98  95  90  87  83  80  78  76  73  72  69  68  67  65  65  64  64  61  55  49  46  45  45  46  47  48  49  51  51  50  50  50  48  49  47  37  35  31  30  30  31  32  24  23  26  24  26  27  26  28  31  30  30  32  33  30  32  34  33  32  33  32  35  36  38  42
  42  44  49  51  62  57  57  58  54  59  60  68  69  71  74  79  86  97 104 105 104 102 101  98  98  97  94  91  88  84  80  78  77  74  74  71  68  65  66  66  68  68  65  62  52  47  44  45  44  45  47  48  49  50  50  49  49  49  47  47  41  34  33  29  29  27  29  29  25  24  25  25  26  28  26  27  29  30  29  32  33  31  33  33  34  34  32  32  32  33  35  40
  39  44  46  45  51  57  55  54  53  51  51  53  58  64  68  66  81  88  99 105 102 100  98  94  93  94  91  89  88  84  80  77  75  74  73  72  69  66  66  65  66  66  65  61  52  45  44  45  44  46  48  50  50  50  50  49  48  46  45  40  32  31  31  29  31  29  28  29  21  24  24  24  24  25  25  28  29  29  30  31  31  30  31  33  33  37  35  36  36  34  33  37
