P2
# Generated by OpenCV 3.4.0
92 112
255
 125 125 125 123 122 124 126 124 126 123 126 124 127 125 125 126 126 126 127 127 125 127 125 126 126 127 126 125 125 126 126 127 127 127 125 127 127 127 127 128 129 126 126 127 126 124 119 106  85 105 103 104 110 105 107 113 109 111 121 125 128 141 152 147 140 131 129 115 122 126 127 132 136 110 100 101  99  96  84  43  27  25  28  28  34  62  89  94  96  99 101 104
 124 123 125 124 121 124 125 124 126 126 127 126 127 126 125 125 125 127 127 126 125 126 127 127 127 128 126 128 127 126 126 127 127 126 126 128 128 127 127 127 130 129 127 128 124 121 115  93 105 106 102  95 100 104 109 114 116 113 116 127 138 139 137 147 157 145 152 151 145 138 136 140 122 120 104  96  98  97  86  29  25  24  32  27  28  46  92  96  98 100 103 105
 124 123 124 126 124 126 126 126 127 126 127 128 126 127 127 126 127 128 124 126 127 127 128 129 129 128 125 126 126 125 126 126 126 127 127 127 127 128 128 127 129 129 127 124 123 120 109  97 113 113 103  95 101  99 105 108 103 106 107 115 114 124 132 129 144 157 149 148 140 126 119 123 121 104  95  85  93 100  90  30  25  20  23  24  25  33  92  97 101 103 104 108
 125 126 125 124 124 126 128 126 127 126 126 127 128 125 126 127 127 127 127 126 127 126 126 128 129 127 126 127 126 128 127 127 128 127 127 127 128 126 127 126 127 128 130 129 126 124 106 111 114 111 100  91  88  93  88  83  78  79  89  92  94  95 105 110 116 112 124 141 137 112 105  99  95  99  83  76  74  95 103  36  25  18  18  20  24  25  91 100 102 103 108 109
 127 126 127 124 125 127 126 126 127 125 126 127 127 128 129 127 127 127 128 127 128 127 127 127 128 128 128 128 127 128 128 128 129 128 128 129 128 124 126 126 125 126 124 130 128 113  99 107 116 111 100  86  75  83  74  62  65  69  67  70  89  96  81  95  93  91  86  88  89  94  94  81  80  81  82  72  66  72 105  61  33  22  18  18  23  36  85 103 105 106 110 110
 127 128 126 126 126 126 128 127 127 128 129 129 128 127 127 128 128 129 129 127 127 128 128 128 128 128 127 127 127 127 129 128 127 126 127 128 128 125 121 124 122 119 120 118 105 110 104 104  99 104  99  86  75  76  68  56  51  60  62  64  66  73  72  72  82  87  84  79  70  67  68  66  69  63  68  71  63  60  78  71  24  22  24  25  24  25  74 105 108 109 110 111
 126 127 128 126 126 127 126 128 127 126 126 128 127 128 127 128 129 128 127 128 127 128 129 129 129 128 128 127 128 127 128 127 126 125 125 119 115 114 101  95  97  99 100  81  83  85  93 106 108 105  92  83  76  76  68  63  43  47  59  62  53  62  64  56  58  61  70  66  59  54  57  56  52  54  57  62  63  60  57  66  30  23  24  24  25  23  62 109 111 112 113 114
 128 128 127 126 128 127 129 129 127 126 129 129 128 129 128 127 130 129 129 128 128 127 127 128 129 127 128 129 128 130 129 129 125 124 120  97  82  78  78  73  67  70  71  69  70  82  92  96 105 118 107  97  79  70  64  62  51  41  46  54  47  42  50  58  45  44  49  52  53  49  52  53  52  50  51  52  67  63  56  53  43  24  24  25  24  25  55 109 114 115 114 116
 127 128 129 127 128 128 131 129 128 128 128 128 128 128 128 129 129 129 129 128 128 128 130 129 129 127 129 128 130 129 128 127 121 109  96  82  74  75  80  76  67  71  78  84  82  79  84  87  82  85  96 116  94  79  64  54  54  47  42  47  52  38  34  46  53  45  44  43  45  46  46  42  40  42  40  49  53  60  52  53  56  34  27  36  24  33  57 113 115 116 117 116
 127 129 129 129 128 129 128 128 129 128 129 128 129 128 129 128 131 129 130 128 128 129 129 130 129 129 128 129 129 130 128 125 109  86  74  63  61  63  67  69  69  66  76  84  89  97  97  96  85  78  74  82  83  83  72  62  56  51  42  37  42  46  37  36  40  44  42  39  36  36  36  35  33  36  34  40  46  51  52  56  54  58  53  53  55  58  76 117 117 118 118 117
 128 129 129 130 128 129 128 128 129 129 129 129 130 128 130 129 128 129 130 128 129 128 129 128 129 130 129 129 130 129 130 112  78  60  64  56  47  50  49  55  72  81  81  88  95  92 112 109  94  76  65  61  62  61  70  67  58  55  60  49  40  44  48  39  34  35  40  37  34  34  32  33  32  32  33  35  39  45  58  55  53  72 106 112 115 115 115 117 118 118 119 118
 130 128 130 130 128 130 131 128 128 130 131 128 131 130 129 129 131 129 129 129 129 130 131 130 130 130 129 129 131 128 126  90  58  51  50  47  46  48  49  46  54  73  83  93 104  92  89 107  98  87  73  59  54  56  62  66  83  79  70  75  82  76  68  62  52  35  33  34  31  32  30  30  28  30  31  31  34  40  51  49  52  56  90 108 117 118 117 118 121 121 120 120
 129 129 129 128 130 131 129 128 129 129 129 129 130 130 129 129 129 130 129 129 130 129 128 129 130 131 130 129 128 126  98  57  50  47  45  43  44  48  49  46  48  61  80  98 108 116 100  90 100  91  68  62  48  44  44  44  55  70  75  74  72  80  78  66  59  56  49  37  30  29  29  27  24  27  27  30  33  38  47  45  47  51  72 102 115 118 119 121 119 121 120 119
 129 130 129 130 129 129 130 129 129 128 130 130 128 129 129 129 129 128 130 129 129 130 130 132 129 130 130 131 129 117  68  49  44  39  35  36  40  46  55  57  54  63  70  84  97 113 123 108 100  92  86  56  40  34  39  45  46  50  65  79  77  79  60  63  64  56  46  37  34  32  30  31  25  24  23  29  32  34  40  39  47  50  54  87 106 117 120 119 120 121 121 122
 129 130 131 130 131 131 131 128 129 130 128 130 129 128 130 129 132 129 130 130 130 130 129 131 130 131 130 130 125  75  52  39  39  36  31  31  32  34  40  40  52  60  69  82  93 104 118 127 120 105  97  95  77  55  42  34  33  39  37  28  28  42  60  71  66  68  72  56  54  42  34  33  30  23  20  28  30  33  34  35  41  45  52  68  90 116 118 121 124 123 121 123
 129 130 129 129 130 130 130 128 130 130 130 130 130 128 128 130 132 130 131 129 130 130 131 129 127 128 129 129 104  54  41  34  34  32  32  31  32  33  36  41  45  53  56  73  86  99 110 112 129 123 103  97  94  86  68  57  46  41  39  43  42  38  44  51  56  60  62  59  62  49  39  36  36  35  25  28  30  29  27  32  35  41  46  61  71 109 117 122 123 122 123 120
 129 130 130 129 129 129 129 129 127 131 129 128 129 130 129 130 130 130 130 130 129 130 125 130 128 128 127 116  72  45  37  34  32  32  34  34  32  31  32  35  42  47  48  55  66  76  83  96 110 128 125 105 105 100  85  73  60  48  42  40  43  40  37  34  33  33  33  35  33  32  33  33  30  30  35  34  30  23  23  29  30  37  42  51  60  84 101 106 105 103 103 101
 128 126 129 127 127 127 127 128 127 127 128 126 127 127 126 127 127 126 128 125 127 126 113 126 124 124 120 103  54  47  45  39  36  35  35  36  39  36  34  34  36  41  45  49  49  56  67  79  90 108 114 134 115 101  86  79  69  58  58  49  45  39  34  33  30  26  29  32  31  29  28  30  29  29  30  27  31  26  24  28  30  33  36  44  50  61  68  79  81  81  83  87
  95  95  98  92  98  94  94  92  91  91  90  86  88  88  88  86  87  86  86  88  80  86  79  85  82  82  78  68  44  41  45  40  38  36  35  33  33  30  29  28  27  30  36  44  46  42  49  61  68  75  90  96 110 113 101  85  81  66  57  50  43  40  35  33  32  31  28  26  24  25  28  34  29  32  32  28  22  25  24  25  29  30  34  37  45  53  74 100 113 114 116 116
  95  99  98  99 101 102 101 103 104 103 104 105 105 104 104 103 107 109 110 110 108 108 108 109 111 107 105  71  45  38  39  42  32  31  31  29  26  22  25  27  29  30  29  33  43  51  52  55  63  72  75  79  83  89 100  97  88  76  68  62  55  51  41  37  34  34  31  28  26  30  34  28  27  31  31  30  25  21  22  24  26  28  31  35  39  49  57  86 116 123 124 123
 122 122 120 121 123 123 123 125 123 126 125 126 125 126 126 130 125 126 127 128 128 128 126 127 126 123 113  76  44  32  29  29  29  28  26  26  23  26  31  32  30  31  33  32  34  38  49  56  61  66  64  63  66  71  76  87  85  85  79  66  57  55  47  46  46  51  54  49  46  42  34  30  30  30  24  24  26  26  22  21  23  25  27  31  35  44  50  60 107 118 122 126
 130 129 129 128 128 130 130 131 132 128 129 131 129 131 130 131 131 130 131 131 131 130 132 131 129 125 118  56  38  28  27  25  25  24  28  25  28  32  35  35  34  35  37  39  39  39  40  40  49  54  57  57  57  55  51  50  59  67  66  67  66  67  58  49  45  36  33  34  33  30  36  38  40  36  33  28  26  25  24  21  21  23  27  30  32  37  45  53  78 102 119 125
 129 130 131 129 130 130 130 130 131 132 133 133 133 132 130 132 132 133 134 133 133 131 131 131 132 127 117  75  49  31  28  25  22  25  25  30  36  38  41  41  41  40  43  44  44  44  44  44  46  46  48  52  55  54  51  49  47  43  41  50  52  55  49  44  38  36  35  44  39  36  31  32  31  30  33  31  30  30  28  23  19  22  23  27  28  33  39  44  52  78 107 118
 129 130 130 131 131 130 130 129 131 132 132 133 131 131 131 131 132 131 132 130 132 132 131 131 132 129 116 102  63  32  27  22  24  26  30  39  43  45  46  48  46  49  50  50  51  50  51  51  51  49  50  49  49  50  48  46  44  48  49  51  54  53  50  47  47  45  49  40  37  36  34  32  32  33  29  29  27  27  24  22  19  19  22  24  26  28  32  35  41  52  77  97
 131 130 130 129 132 132 131 132 132 134 132 131 133 130 134 131 132 132 132 134 134 131 130 132 134 130 124 113  56  31  28  25  25  27  38  47  49  50  52  55  54  57  56  57  57  56  58  58  57  56  54  55  54  55  55  54  52  55  55  52  51  51  49  45  46  45  44  48  43  42  41  39  41  38  42  34  31  28  27  27  25  22  19  23  24  24  26  30  36  42  58  77
 133 130 130 131 130 133 132 132 133 132 133 132 133 131 134 132 131 134 134 135 135 132 132 134 133 133 127 114  53  30  27  28  28  35  50  55  58  59  61  62  64  64  64  64  65  65  65  65  61  60  60  60  60  60  61  61  61  62  62  57  55  57  57  57  56  56  61  63  59  56  51  46  46  44  40  37  36  37  35  31  27  26  24  24  26  25  24  26  32  38  45  57
 131 131 131 132 130 132 134 132 132 132 132 134 132 134 133 134 135 134 134 136 134 132 133 134 135 133 134 114  51  29  30  31  34  50  61  63  63  64  66  69  69  70  70  72  69  68  68  66  66  65  62  62  64  64  65  64  60  62  63  61  59  58  57  58  62  62  63  77  63  59  57  54  52  51  47  44  46  47  43  39  35  34  43  30  26  29  29  29  28  33  38  46
 130 130 131 133 131 131 131 131 132 133 133 133 132 134 134 132 135 134 135 134 135 133 132 134 136 134 135 119  40  32  30  33  42  63  70  68  68  72  74  75  76  74  76  78  76  75  74  71  69  66  67  68  66  68  68  68  66  66  66  67  66  66  64  62  63  66  68  70  65  64  63  62  62  60  58  53  50  52  51  48  47  43  37  57  34  28  27  25  26  32  35  40
 130 132 133 133 133 132 132 132 132 134 132 135 134 135 133 132 134 133 136 135 134 134 134 135 135 135 135 125  42  32  31  35  52  73  77  77  77  78  80  79  81  80  79  80  79  75  76  75  74  73  72  73  70  70  70  72  71  69  70  69  68  69  70  69  68  70  70  71  70  69  67  67  66  66  65  64  63  63  61  59  53  47  47  46  56  32  25  22  24  25  29  32
 134 132 133 134 133 132 132 135 134 134 134 134 133 134 133 134 135 135 134 134 134 135 134 134 134 134 135 123  44  32  32  40  64  79  80  82  84  83  86  84  82  83  83  82  82  83  82  80  77  77  78  77  76  73  71  72  75  75  72  72  72  73  70  72  71  73  72  76  77  76  76  73  71  71  73  70  73  72  74  67  56  51  52  52  43  38  28  23  22  24  25  29
 133 132 133 134 131 132 133 134 134 135 136 133 133 135 135 136 134 134 135 134 135 135 135 135 134 134 135 118  41  32  33  43  72  83  85  86  88  88  88  84  85  85  85  85  86  83  82  81  78  78  77  79  78  76  74  76  77  78  78  76  76  75  73  75  77  76  77  80  80  82  82  79  80  79  82  78  78  79  82  76  67  65  66  53  43  33  34  31  27  23  21  26
 132 133 132 133 134 133 133 134 134 134 135 132 134 135 136 138 135 135 135 135 136 137 137 135 135 135 135 100  36  33  34  51  80  86  88  88  88  85  87  87  85  86  86  87  86  84  82  82  81  81  80  81  81  79  79  80  79  77  77  77  79  79  79  79  78  76  81  83  84  83  85  84  86  85  88  88  88  91  92  88  80  77  75  63  50  40  36  35  26  20  18  20
 132 132 134 134 135 134 134 133 136 135 135 135 134 135 134 136 135 135 136 135 135 137 135 136 137 136 134  79  34  31  37  65  86  89  88  88  89  87  89  86  87  87  85  86  86  86  85  82  82  82  81  82  83  81  84  82  81  80  80  79  80  79  77  80  78  78  81  84  86  87  86  89  90  91  91  93  96 101 103 100  96  91  82  69  54  42  35  33  31  22  18  19
 134 133 134 133 134 135 133 134 136 135 135 135 134 136 135 135 135 137 136 135 134 138 135 136 135 135 133  54  34  31  43  75  86  88  90  89  90  88  89  86  87  88  87  85  84  84  84  82  83  83  84  83  82  82  83  84  82  81  81  81  82  80  81  79  81  82  83  84  86  85  87  90  91  93  93  97 102 106 107 107 105  99  86  77  63  43  40  36  29  23  20  21
 133 132 133 134 132 136 136 134 135 134 136 136 135 136 136 135 135 137 135 138 137 137 135 137 138 137 127  45  36  32  52  79  87  89  90  90  91  91  90  88  88  87  86  88  87  85  85  84  84  85  85  84  82  85  86  83  82  82  81  81  82  82  81  82  83  84  85  86  87  88  91  91  91  94  95 101 105 107 108 107 108 105  96  89  72  49  38  28  23  26  26  27
 134 134 132 134 134 134 136 135 134 135 136 136 136 136 136 136 135 136 137 136 136 138 136 137 137 137 121  47  32  32  64  83  85  85  87  88  89  91  93  91  90  88  87  88  86  84  85  86  86  84  85  84  87  85  88  85  83  82  82  82  82  84  84  82  84  85  88  86  88  89  91  91  94  94  97 103 106 107 109 108 109 107 102  94  80  52  35  25  22  28  27  42
 134 134 134 135 135 137 136 136 135 136 136 135 134 135 136 135 136 136 138 136 137 137 137 139 137 136 119  40  30  33  74  82  79  76  81  83  83  89  91  89  90  91  90  89  86  86  87  88  89  88  87  86  88  89  86  86  82  84  83  82  83  85  88  87  86  86  90  92  92  92  92  95  95  97  99 102 105 107 109 109 108 107 103  94  78  50  34  27  25  26  29  51
 135 135 134 134 135 135 136 134 134 137 135 136 135 136 138 136 137 137 137 137 139 137 136 138 138 135 110  35  31  39  76  65  57  57  67  74  81  85  89  91  91  94  93  90  89  89  89  88  88  88  88  89  88  88  87  87  87  86  85  85  87  87  86  88  89  90  92  93  95  94  93  95 100 100 102 105 107 109 108 108 107 105  99  91  74  53  37  29  28  27  28  29
 135 135 135 135 134 134 137 135 135 136 136 136 135 138 137 138 137 137 139 140 139 140 138 136 138 133 100  33  29  48  53  46  47  47  55  63  67  73  83  89  92  91  93  90  88  88  88  88  90  88  88  89  89  87  86  87  89  88  88  88  90  89  91  92  94  96  98  96  98  98  97 100  99 100 104 106 108 110 108 106 109 103  99  88  72  54  38  30  26  27  26  25
 133 136 136 134 136 136 136 136 136 137 138 136 136 137 137 138 139 139 139 138 137 138 137 137 136 134  87  30  31  46  44  41  49  48  48  54  53  55  64  77  84  86  90  91  89  89  87  88  88  85  89  88  89  86  88  89  90  89  89  92  92  93  97  98  98 100  99 100 102  99 101 103 102 104 105 104 106 108 106 103 106 102  98  87  72  55  39  31  28  28  27  28
 135 134 134 136 136 137 136 137 137 137 138 136 138 138 138 139 138 139 140 140 138 139 138 139 138 138  80  32  36  47  48  46  47  50  48  50  47  44  47  59  69  74  82  88  89  89  90  87  88  87  89  90  89  86  88  89  90  88  91  94  94  98 101 102 101 101 102 102 102 103 104 106 107 107 106 105 108 108 108 107 106  99  96  85  67  54  40  31  29  27  31  31
 134 135 136 136 137 137 136 135 136 137 138 139 137 137 138 138 139 140 140 140 141 138 139 138 138 136  69  32  45  50  52  51  54  58  54  47  49  43  40  45  55  58  68  79  83  85  87  85  88  89  87  86  88  87  88  88  90  88  90  93  95  99 100 101 100 100 101 104 103 105 105 106 108 110 109 110 109 107 108 106 101  96  91  78  61  50  37  32  30  27  33  34
 136 135 135 136 137 137 136 137 136 138 138 137 138 139 139 140 139 140 141 139 139 140 140 139 138 134  55  33  55  62  60  62  62  65  65  52  48  46  46  42  46  51  57  69  71  82  84  83  86  88  86  85  87  87  86  85  89  88  91  92  93  92  95  98  98  97  99 100 103 106 106 107 109 111 112 112 112 110 108 104  98  92  86  71  56  46  36  30  29  26  28  33
 136 136 137 135 135 136 137 137 137 137 138 138 139 139 140 140 140 141 141 139 140 140 140 142 140 129  38  34  66  69  69  70  70  70  64  63  62  60  53  51  48  48  52  62  67  80  79  79  84  85  85  85  87  84  86  86  88  89  90  85  85  88  90  92  93  94  94  97 100 106 106 109 109 109 110 113 112 108 106  99  95  90  83  67  50  42  35  28  26  27  27  32
 137 136 137 135 137 138 138 138 138 138 139 140 140 138 141 140 141 140 141 142 141 142 140 142 140 107  32  44  77  74  74  70  66  64  60  59  62  61  60  58  56  50  47  57  63  69  71  79  81  84  84  83  83  86  87  86  87  86  85  81  80  80  84  86  87  89  89  93  94  98 100 105 106 110 110 111 109 106 103  97  93  91  84  62  46  36  32  27  26  25  23  30
 136 136 138 138 137 138 138 141 139 139 139 141 142 140 140 140 141 143 143 142 144 143 141 141 139  67  35  65  88  78  70  61  53  45  45  43  43  41  48  54  58  59  51  55  60  64  67  76  78  83  84  82  80  83  85  85  84  84  80  74  73  69  74  78  79  81  79  82  86  90  91  97  99 101 102 107 106 106 100  96  94  92  83  61  43  32  29  27  25  24  23  30
 138 137 139 138 138 138 139 141 140 141 142 141 141 142 142 142 144 144 145 145 144 143 144 143 131  43  33  94  89  78  64  52  42  44  41  38  35  34  38  36  42  56  60  58  59  60  64  70  75  76  79  77  82  81  81  80  76  74  72  67  64  61  60  65  62  59  62  66  72  77  80  85  91  91  96  95 101 106 100  96  96  94  84  61  43  32  28  26  25  23  23  31
 138 138 139 139 140 140 140 141 142 144 142 144 142 144 146 143 145 146 144 145 144 146 146 145  97  35  53  96  87  74  57  42  34  26  33  42  39  27  29  31  36  38  52  62  61  58  60  69  74  76  77  78  77  78  75  72  69  68  60  56  56  49  51  50  46  50  50  47  49  55  58  61  68  72  73  74  82  99 102  97  98  95  85  65  41  31  28  25  25  23  24  32
 139 139 141 141 140 142 141 141 143 143 142 145 144 146 145 144 146 146 146 147 145 146 147 139  56  34  80  97  86  71  58  43  41  46  68  71  40  32  25  26  30  36  38  55  63  64  67  70  73  76  78  77  75  73  71  70  66  62  58  54  50  46  48  44  42  40  41  38  36  38  42  46  47  50  56  59  63  79  99  98  97  97  86  65  39  28  25  23  24  22  28  34
 140 140 141 142 143 144 142 143 143 145 145 145 145 146 146 146 146 148 149 147 147 148 145 110  56  42 100 100  87  74  67  62  51  54  75  74  37  33  26  24  31  38  43  45  58  64  69  69  73  78  80  77  73  72  71  67  65  60  54  52  47  47  42  43  38  36  35  36  34  32  33  38  41  46  51  55  54  60  78  97  93  91  86  62  36  26  23  25  24  24  30  33
 140 141 140 142 143 144 142 146 145 146 145 146 145 146 148 149 147 149 148 149 148 149 141 118  45  70 104 100  92  85  79  72  62  52  61  75  44  38  28  31  36  51  45  46  51  62  68  73  77  82  84  81  76  73  69  66  62  57  56  53  49  50  49  49  44  41  39  34  36  36  35  35  41  40  44  49  50  55  62  74  85  92  87  64  35  24  23  25  25  27  33  30
 142 141 143 143 143 145 145 145 146 147 147 146 147 148 150 150 149 151 151 149 150 148 144 112  52  95 105 102  99  91  82  79  68  58  51  55  54  37  33  34  46  52  44  47  52  61  66  76  83  86  87  85  79  73  70  68  62  56  57  56  55  55  54  52  50  51  51  50  47  48  44  44  42  37  39  42  49  62  70  74  82  92  89  66  31  22  22  24  26  32  30  30
 143 143 144 145 144 145 146 146 147 147 148 149 148 148 151 150 151 151 153 152 151 150 147 116  63 105 104 103  99  94  88  83  78  70  63  57  52  49  45  45  45  40  36  45  57  61  67  81  91  93  94  90  82  79  68  62  57  55  53  52  52  47  45  42  42  45  49  49  53  52  51  55  52  46  47  55  64  76  83  76  81  94  92  68  31  21  23  25  27  31  30  36
 142 142 144 145 145 146 146 147 149 149 150 149 150 152 152 152 153 154 154 154 154 153 149 120  90 108 108 107 104  99  92  86  81  75  70  66  60  55  52  50  49  51  57  59  61  62  72  87  96 100  98  93  88  83  67  59  55  51  48  44  39  33  33  33  34  32  31  35  39  46  51  54  56  53  57  66  72  82  83  81  90  94  94  66  30  20  22  24  29  30  32  43
 145 144 144 146 146 147 149 149 148 151 150 152 152 152 152 154 155 154 154 155 157 154 154 122 104 111 109 106 106 103  97  91  86  78  71  69  64  59  53  50  49  51  55  60  65  72  84  94  96  99  99  96  92  84  65  60  55  51  42  39  38  37  37  34  30  25  24  27  29  34  39  50  56  60  63  71  72  71  79  88  92  98  95  64  25  20  23  26  29  28  36  82
 146 147 146 148 148 148 150 151 151 151 152 152 152 153 153 155 157 155 156 157 157 158 157 131 110 112 111 108 107 105 100  94  89  85  80  73  70  62  58  56  56  57  60  68  76  82  90  99 101 101 103 102  94  83  67  61  55  55  45  42  39  40  47  49  32  26  21  24  23  25  34  38  47  54  61  70  72  75  82  85  96 100  95  59  27  22  24  26  30  30  51 128
 146 147 147 148 149 150 150 151 153 153 154 154 154 154 155 157 158 158 158 159 160 158 159 133 111 109 109 110 110 105 100  98  92  92  88  81  78  72  72  72  71  73  79  82  83  88  95 100 102 103 105 103  97  86  70  60  58  56  47  35  36  43  56  46  35  27  19  26  31  36  25  35  37  45  56  65  72  74  84  88  96 100  94  56  30  23  25  28  29  30  82 152
 146 148 150 149 150 153 153 154 154 154 154 155 156 157 159 159 159 161 162 161 161 162 161 127 107 107 108 109 109 104 100  96  94  91  91  87  85  84  84  86  86  88  89  88  88  91  99 102 101 101 102 106 103  89  73  64  62  57  52  45  36  36  49  52  35  28  25  29  36  57  40  25  37  38  46  58  71  79  87  91 100 100  93  53  29  26  28  28  28  31 134 166
 148 150 151 152 152 153 154 155 155 155 156 157 160 159 160 161 162 162 162 162 165 162 162 120 107 104 105 107 106 103 100  99  96  92  94  93  92  90  92  93  95  97  92  91  91  89 101 102 103 103 105 108  97  86  76  70  63  56  51  49  45  45  44  44  36  32  31  34  52  62  45  34  29  38  45  57  68  77  86  96 101  99  91  49  31  27  28  26  30  71 164 172
 150 151 154 155 154 154 156 156 156 157 159 159 161 162 163 161 162 163 164 165 166 165 163 110 103 104 103 103 103 102 103 103 100  98  98  97  95  95  95  96  96  96  93  94  92  90  99 103 106 108 111 110  93  89  79  77  69  62  53  48  45  46  47  46  46  42  40  45  50  48  48  48  46  41  48  56  66  77  88  98 104 103  88  44  29  29  31  27  28 119 171 175
 151 152 154 154 154 154 157 158 159 160 160 160 163 162 163 163 166 164 165 166 167 167 165 106 102 100 103 102 102 104 104 103 103 101  99  98  96  97  97  95  95  92  94  93  91  95  98 102 104 107 115 108  95  91  85  83  77  69  60  53  49  48  47  52  52  49  47  46  52  58  70  73  72  65  57  62  71  81  92  99 104 103  83  40  27  30  31  30  42 148 173 178
 152 153 154 155 155 155 157 158 161 161 161 162 163 163 163 163 166 166 168 167 169 168 160 105 101  99 100 100 103 104 105 106 104 101 101  98  97  97  98  95  93  91  93  90  93  96  98 102 104 110 114 104  95  96  89  88  87  76  70  64  57  53  51  52  52  54  55  58  65  72  83  89  92  89  81  79  81  88  98 102 108 103  76  39  27  29  31  35  76 115 168 178
 154 155 155 157 157 156 160 159 161 162 162 164 163 165 166 167 168 166 169 168 168 168 156 102  99  99 100 102 103 105 107 105 103 102 101  99  97  97  96  92  89  90  90  90  90  97 102 107 109 111 111 104  98  95  92  91  88  85  81  73  66  62  59  57  55  55  56  60  64  71  78  88  96  99  95  93  97 101 105 107 106 101  69  38  29  30  35  50  72  98 153 178
 153 156 156 159 157 160 160 160 162 164 164 166 166 166 168 167 169 170 170 170 170 170 151 102  98  98 100 100 103 104 104 103 103 104 100  98  97  99  96  91  85  86  89  92  94 100 107 113 114 110 107 105  98  97  94  94  92  89  88  84  78  75  68  67  65  66  67  67  71  76  85  90  95 102 100 100 104 108 108 110 108  99  65  37  32  30  43  48  52  73 144 180
 156 157 159 158 160 161 161 161 164 164 166 166 167 167 168 168 170 170 172 172 172 170 140 100  97  98 101 102 104 104 104 103 102 101 100  96  97  93  88  82  82  91  96  98 100 103 112 117 118 112 106 106 101  98  98  97  89  89  86  88  86  86  79  76  74  77  77  78  83  85  91  95  99 103 105 106 109 111 112 112 110  99  59  34  30  36  61  53  54  82 175 184
 158 159 159 160 162 162 163 162 165 165 166 168 168 168 170 170 170 172 174 171 172 173 138  98  96  99 103 102 102 102 104 104 103 100  96  95  92  88  83  81  89  98 100 102 104 112 119 118 116 116 112 112 104  98 100  99  94  92  87  89  91  91  90  85  84  85  84  88  91  93  97 103 106 106 110 111 112 108 114 113 110  96  53  34  30  45  80  63  60 157 183 185
 158 158 160 163 163 163 164 164 165 166 166 169 168 170 171 170 170 173 174 173 174 172 125  98  91  98 100 101 101 103 102 102 101  99  94  91  86  82  88  90  95  97  99 100 104 115 118 116 117 116 114 114 107  98  99 100  99  93  91  92  92  94  95  93  90  91  90  92  97 101 103 106 110 113 113 113 113 113 114 113 110  92  50  35  32  56  89  76  95 178 186 187
 160 161 162 166 163 165 166 167 167 168 169 170 170 171 172 172 173 173 174 175 175 169 113  96  91  98 101 104 101 101 100  98  98  94  92  88  84  86  89  89  93  97  98  99 103 110 111 118 119 117 118 117 112 101  96  95  96  96  92  93  94  97 100  96  96  94  94  97 102 104 107 110 111 114 115 113 114 113 114 113 107  83  45  35  38  63  88  82 135 185 188 189
 161 162 162 164 164 164 167 168 168 170 170 171 172 171 174 174 174 176 177 177 178 167 111  98  96  96  98 101 102 100 100 100  96  95  90  87  83  87  84  82  83  94  99  97  99 104 110 111 119 122 120 119 114 106  96  87  92  95  92  96  98 101 100 101 103  99 101 102 103 104 108 111 112 112 115 114 113 112 114 113 103  78  44  37  49  64  84  90 171 187 188 189
 162 163 164 166 167 168 168 168 169 170 171 174 173 174 174 176 176 175 179 180 178 162 103  96  95  96  97  98 100  98  98  97  94  89  88  86  80  82  76  73  77  84  94  92  93  92  96 109 115 116 119 118 114 106  97  82  85  90  91  93  96 101 102 102 103 103 103 105 102 104 106 110 111 111 111 114 114 112 112 111 101  69  44  41  49  61  86 123 187 190 190 190
 164 165 165 166 169 170 170 170 172 172 174 173 175 175 177 175 177 177 180 179 178 156  95  95  96  96  96  97  98 101  98  96  94  88  88  87  81  75  67  58  63  71  84  85  85  87  93  98 100  98  97 101 100 100 100  85  78  86  89  91  93 100 104 102 101 104 106 107 106 106 106 104 107 108 108 108 111 110 111 108  94  59  38  43  49  64  92 171 189 191 193 191
 164 166 167 169 169 170 170 170 171 173 173 174 176 176 177 177 178 180 179 181 181 153  94  92  95  95  96  96  98  99  97  96  90  89  88  86  78  67  58  48  38  55  71  73  74  78  83  83  82  77  76  82  85  96 101  91  79  81  85  88  90  95  97 100 102 105 106 108 109 109 108 105 104 106 106 107 106 107 109 105  81  47  40  46  53  79 129 188 193 193 194 193
 168 168 168 168 169 170 173 173 173 173 174 175 176 177 178 180 180 180 181 181 181 138  90  89  89  92  94  96  97  97  95  92  88  89  88  86  80  69  60  57  52  58  66  64  65  66  69  70  63  62  66  70  72  84  92  86  79  79  82  86  91  94  98 101 102 104 106 106 108 107 108 106 105 105 102 104 106 105 108 100  73  43  52  74  89 105 179 192 197 195 196 194
 168 167 169 171 170 173 173 174 175 174 176 177 177 179 180 180 181 185 185 185 180 132  92  87  87  89  94  95  95  94  91  88  88  88  87  86  76  71  66  61  61  65  64  62  62  58  57  50  43  32  39  55  68  73  83  81  78  82  84  86  90  92  95 102 102 104 105 106 107 110 108 107 106 104 101  98 103 106 104  89  73  58  63  92 109 141 191 193 196 198 197 196
 167 169 170 172 171 174 174 175 176 175 176 178 179 180 180 181 183 183 184 184 182 117  86  88  90  92  93  95  92  92  90  86  88  86  86  83  76  73  66  66  62  62  61  63  62  60  57  54  51  42  40  47  59  66  76  77  82  83  85  86  88  92  96  99 100 102 104 105 106 108 107 107 103 101  97  97 100 105  96  86  85  93  84 103 117 182 194 197 198 200 198 198
 169 170 172 172 172 174 175 175 176 178 177 180 180 180 180 183 185 185 186 185 182 126  87  88  90  92  94  96  90  88  85  82  78  78  80  82  75  69  65  62  58  61  62  59  61  60  58  56  54  54  51  50  55  64  67  81  85  83  82  87  89  90  94  96  97 100 102 103 104 104 104 102  98  97  96  97  98 101  92  84  87  97  96 113 152 192 197 199 198 198 200 200
 168 171 172 172 173 175 176 176 176 179 179 181 181 183 184 185 186 186 188 186 181 122  84  84  87  93  90  89  86  82  80  74  76  74  78  78  70  63  62  61  57  58  62  61  60  61  64  62  55  55  57  61  67  69  74  83  85  84  83  84  87  89  92  93  94  96 100 101 102 100 100  99  96  97  96  95  97  95  95  94  99  99  99 124 184 197 200 199 200 201 200 198
 169 171 173 173 174 174 176 176 178 179 179 180 181 183 184 185 186 187 186 187 182 126  90  88  88  90  89  89  84  78  74  75  76  74  71  71  68  64  64  68  64  62  60  58  57  56  61  59  56  61  68  74  74  75  81  83  86  85  84  84  86  90  91  93  93  94  96  97  99  98  97  96  97  98  96  98  96  91  89  91 104 108 112 138 191 199 200 200 200 201 201 200
 172 172 174 175 174 176 178 178 180 181 182 182 184 184 185 185 186 188 188 188 185 137  86  88  86  90  90  86  81  74  72  72  75  73  72  72  72  68  70  70  67  62  54  55  56  52  61  61  60  64  69  72  74  76  80  86  89  86  85  84  87  88  88  90  90  91  94  94  96  95  95  94  95  95  96  96  97  89  84  84  93 102 115 162 195 200 203 199 201 202 199 199
 172 173 175 175 176 177 177 179 179 179 182 184 185 184 185 187 187 188 188 188 187 120  85  86  85  89  90  86  76  69  64  67  70  75  78  79  77  70  73  73  65  56  49  49  51  53  62  67  67  68  65  68  73  75  80  87  88  89  86  84  87  88  88  90  91  91  92  92  94  94  95  96  95  94  95  98  95  87 118 124  93 100 147 192 197 200 200 201 200 202 200 202
 173 175 175 175 175 177 178 180 181 181 182 185 185 185 186 188 189 189 188 189 189 142  84  85  87  86  89  84  72  64  57  52  58  68  73  77  75  68  70  72  68  62  50  45  46  53  63  69  72  72  67  70  73  74  79  81  81  84  86  87  86  89  87  87  87  88  89  90  94  93  93  95  91  91  96  97  96 102 166 192 195 197 197 198 201 200 201 205 201 201 203 202
 174 174 176 175 176 177 179 181 181 184 183 184 185 186 187 188 190 189 189 189 188 144  82  81  82  88  90  85  74  64  57  52  42  46  52  56  57  56  58  60  60  64  63  60  60  63  68  71  72  73  74  74  72  73  74  76  74  78  84  88  86  89  90  90  89  89  88  88  90  94  94  94  95  95  95  92  90 139 191 198 198 200 198 200 202 201 200 204 202 202 202 202
 173 175 177 176 178 178 181 183 183 185 186 186 185 187 187 188 189 190 190 190 190 162  83  79  81  84  85  83  72  67  66  66  54  44  47  48  48  49  53  51  52  58  62  65  63  60  64  67  72  74  74  75  74  74  75  77  78  76  73  85  87  88  90  90  89  86  87  88  90  93  96  93  94  97  95  91 110 179 195 201 201 202 202 201 202 201 201 201 202 201 201 200
 175 176 177 178 178 180 182 183 183 186 185 185 187 189 188 189 190 190 192 190 192 171  95  77  84  85  83  83  76  72  73  72  69  56  56  55  44  40  40  41  46  50  57  55  54  52  53  58  58  65  74  79  74  76  75  75  74  78  79  79  85  87  88  87  87  88  88  89  91  93  93  92  91  96  97 100 151 193 198 200 201 201 201 201 202 202 202 202 204 202 199 201
 176 178 177 178 178 180 181 184 184 184 185 186 188 188 189 188 191 190 192 191 191 185 106  77  80  80  80  80  77  79  81  79  77  69  59  61  60  48  41  37  33  37  45  45  46  46  49  51  51  51  56  67  71  73  72  67  66  71  74  81  82  84  88  87  87  88  88  87  87  89  90  90  91  95  93 110 188 197 200 203 201 200 202 200 203 203 203 202 201 201 200 199
 175 177 177 180 179 182 182 185 184 186 186 188 189 187 190 190 190 189 193 192 192 190 156  72  76  78  78  76  76  76  84  84  83  79  70  63  63  58  52  46  41  37  38  34  32  32  35  40  45  46  46  49  52  60  59  57  62  65  69  77  83  86  88  86  84  84  81  84  85  88  90  91  94  95  84 131 194 200 201 202 202 202 202 202 203 202 202 202 202 202 201 200
 176 176 178 178 180 181 184 184 185 186 187 187 189 189 189 190 191 192 191 192 194 192 187  95  76  82  75  76  76  73  82  84  86  83  78  69  62  62  62  57  52  48  48  46  43  41  36  37  40  35  37  40  40  39  38  43  50  57  64  74  77  84  88  88  84  83  81  83  81  86  88  92 100  98 105 187 198 201 201 202 202 201 202 200 202 202 202 202 202 201 202 200
 177 178 178 180 180 181 183 184 184 186 187 188 187 188 190 190 191 192 191 192 192 192 190 112  74  78  74  77  76  73  79  82  83  80  78  72  67  64  62  59  58  57  57  54  53  50  54  56  55  53  55  50  46  42  41  45  50  54  59  71  77  83  86  84  85  85  82  80  83  84  87  87  93  91 162 194 198 202 202 202 202 202 202 202 203 203 200 202 201 199 201 201
 178 179 180 179 182 183 185 184 184 186 186 188 188 190 190 191 192 191 192 192 194 193 192 151  76  74  71  71  77  73  78  82  78  78  75  75  70  67  64  58  56  58  56  55  55  57  60  62  60  63  62  58  55  55  56  58  59  59  62  74  79  83  86  85  84  80  80  77  80  81  86  86  84 124 191 200 200 200 201 202 201 201 202 200 203 202 200 200 202 199 199 201
 179 179 182 180 184 184 186 184 187 186 186 188 189 189 192 192 193 192 192 194 192 193 194 185  98  71  68  68  74  75  80  82  81  77  75  73  70  68  66  60  56  55  57  54  53  54  54  57  58  60  66  66  68  68  66  68  66  66  72  76  83  84  86  86  83  78  78  80  83  81  85  81  88 170 196 202 202 201 202 204 204 203 203 202 201 203 201 199 200 201 199 200
 176 180 182 181 184 184 185 185 186 186 187 188 189 190 192 192 192 192 193 193 193 193 194 190 130  68  70  72  77  73  78  82  85  82  74  69  66  62  62  60  59  62  61  57  55  56  56  61  66  69  73  76  78  79  73  74  71  72  76  77  82  79  79  79  79  78  80  79  81  81  80  78 137 194 202 202 203 201 203 202 201 203 202 200 201 202 200 199 199 200 198 198
 180 180 183 184 184 186 186 187 188 188 186 188 188 190 191 191 192 193 194 196 193 193 197 194 173  69  62  70  78  78  78  82  83  82  80  76  70  62  57  53  53  53  56  61  63  63  64  66  70  73  75  79  81  81  77  76  74  76  73  78  79  78  75  76  76  76  76  74  81  81  79  83 190 199 202 202 203 203 202 202 203 202 202 202 201 202 200 201 201 200 199 199
 182 182 183 185 186 187 186 188 187 188 188 190 190 191 191 191 192 192 193 194 194 194 194 192 189  92  56  65  71  73  78  80  81  78  79  81  73  67  60  52  49  49  50  55  56  62  64  67  72  74  77  76  77  79  79  75  70  71  70  75  75  73  74  73  73  75  71  79  83  78  74 162 196 202 202 204 203 202 203 204 204 202 202 202 202 200 201 200 201 200 199 199
 181 182 184 185 185 186 187 188 189 188 189 189 189 190 191 192 192 193 193 195 194 196 196 195 192 153  57  66  72  71  73  79  83  78  80  80  78  70  63  53  49  45  48  52  55  61  63  67  71  72  73  73  74  77  76  70  65  65  67  68  73  72  69  64  68  69  71  75  74  68 101 194 199 202 202 203 202 202 203 202 201 202 202 200 200 201 200 200 201 200 199 200
 180 181 182 186 184 186 187 188 188 188 188 188 189 190 192 192 192 192 193 194 194 195 195 195 193 182  71  65  71  73  71  75  81  79  80  77  75  74  72  64  59  52  52  52  58  64  67  70  72  73  77  74  73  75  74  71  67  66  70  69  71  69  63  61  67  64  64  70  63  61 152 195 200 204 202 203 203 202 204 201 202 203 203 201 200 200 199 198 201 201 199 201
 181 179 182 183 184 184 185 186 186 187 188 190 188 190 191 191 193 191 192 193 191 193 193 196 171 101  65  55  65  70  69  75  81  80  81  82  75  72  70  69  69  64  60  61  64  69  72  72  73  75  74  73  70  72  71  73  69  67  69  71  70  61  66  59  60  57  62  57  55  87 185 199 200 200 202 203 203 202 200 199 202 202 200 199 201 199 201 201 200 199 199 198
 180 180 181 181 181 183 183 184 185 187 187 188 189 190 191 190 191 191 182 166 170 178 146  95  71  99 105  60  59  67  70  70  77  79  79  75  76  72  71  68  70  71  68  69  70  74  74  75  75  75  75  76  73  71  71  71  71  65  68  70  66  62  65  57  54  53  56  51  68 121 194 198 201 202 201 202 203 202 201 203 203 201 202 202 199 201 200 199 199 198 200 198
 179 178 180 179 180 180 181 180 186 170 133  99  86  83  72  66  81  68  50  52  49  46  43  76 143 135 117  62  54  63  72  71  74  77  75  74  71  65  70  68  73  76  74  76  75  78  79  81  78  74  77  77  77  73  72  71  74  69  65  65  61  59  63  51  53  49  49  59  80 158 195 200 201 200 200 200 200 199 201 202 201 202 202 201 202 200 202 200 198 199 198 197
 175 177 177 180 182 182 182 128  68  51  53  48  46  45  44  42  40  37  35  35  32  32  29 114 134 123 104  66  50  56  68  72  77  71  67  72  70  65  69  69  74  74  74  74  78  77  77  81  77  73  77  74  76  76  71  66  73  71  66  60  57  53  53  53  48  44  61  71  78  94 152 197 198 198 199 199 199 200 202 200 201 200 202 200 200 198 200 198 197 198 199 198
 140 125 111 101  86  71  52  51  46  41  40  37  38  37  37  35  34  31  28  26  24  24  27 118 123 109  95  68  45  50  59  65  71  61  64  68  69  68  68  71  72  74  74  75  77  74  76  76  76  74  74  71  72  73  73  67  66  60  55  50  54  51  44  45  43  55  70  75  72  48  41  63 140 169 190 198 200 199 198 200 199 200 201 200 199 198 198 198 197 197 198 197
  47  47  47  45  42  40  40  38  36  36  37  34  35  34  32  32  29  26  25  23  22  23  35 112 111  98  86  69  52  44  50  50  59  63  64  61  63  63  62  66  72  76  76  77  77  73  74  72  71  67  68  69  69  67  71  61  56  52  50  47  48  45  41  40  49  62  72  75  58  39  37  33  47  59  67  89 140 199 198 198 198 198 199 198 198 199 198 198 197 198 196 195
  40  38  37  36  35  32  34  34  33  31  31  29  30  30  29  27  28  25  21  20  18  20  40 100  99  91  80  67  64  46  42  48  52  54  56  50  55  61  59  55  59  66  68  68  68  68  69  70  65  62  65  65  63  61  60  52  52  47  42  48  46  37  40  47  57  68  75  79  82  33  34  30  32  43  50  51  56  70 101 129 172 193 197 197 197 196 197 198 196 197 197 196
  35  36  35  34  33  34  32  32  32  31  29  26  27  28  27  24  25  21  19  18  18  18  35  98  93  85  74  69  68  61  42  39  45  54  53  49  50  59  57  52  53  57  59  54  56  60  57  60  56  62  65  64  56  51  50  43  41  40  39  45  40  37  44  53  63  70  73  82  98  38  32  27  24  37  40  43  46  48  53  54  58  65  98 139 180 191 195 194 196 196 194 193
  32  33  31  30  29  31  32  31  31  29  27  26  25  26  25  23  23  21  18  16  16  18  36  91  88  82  70  68  67  65  52  37  36  47  49  44  47  52  51  53  48  53  55  51  54  54  53  52  53  58  57  55  47  48  40  36  34  39  37  38  39  42  50  60  66  71  77  87  93  55  30  27  21  30  37  38  40  41  42  45  46  50  52  53  57  67 108 187 194 193 194 192
  31  32  31  30  29  28  29  28  28  26  24  25  23  25  24  21  21  19  18  17  16  17  31  86  85  81  69  65  69  67  65  60  43  35  37  42  42  42  45  48  46  51  52  49  49  51  51  52  51  52  53  48  38  41  37  36  35  35  31  40  48  54  61  62  66  75  84  88  87  61  29  24  20  28  36  36  36  38  38  39  42  44  45  46  49  45  49  60 107 101  89  93
  29  30  31  29  27  26  29  26  25  25  24  23  23  23  22  20  20  19  18  16  16  16  26  78  79  76  68  65  67  68  69  69  66  48  40  39  37  38  40  39  38  42  40  45  44  44  44  45  48  42  41  38  31  34  32  34  34  37  38  47  53  58  60  66  70  80  85  90  86  66  27  25  20  25  33  33  35  34  35  37  38  38  39  41  43  42  41  47  53  53  49  48
  28  28  27  28  28  24  25  25  25  24  24  21  21  21  19  18  19  18  16  16  15  14  20  72  75  71  67  64  67  69  69  71  69  65  60  55  45  34  33  34  33  34  37  40  38  39  41  37  37  34  31  29  28  30  34  37  43  44  51  56  58  58  65  71  78  83  86  91  87  68  27  20  18  23  31  33  34  32  33  34  36  36  38  39  40  39  36  40  44  44  41  38
  27  26  28  28  25  23  25  24  24  23  23  20  21  20  20  18  18  16  15  15  15  15  19  60  75  72  64  63  64  68  71  69  69  68  64  63  60  51  43  35  32  31  32  32  32  31  32  30  30  30  33  34  39  42  41  46  51  53  58  58  58  58  69  77  80  84  86  90  87  63  26  21  17  21  29  33  32  30  30  34  35  33  36  36  38  36  36  39  41  38  37  38
  26  26  27  26  26  24  23  24  22  22  22  21  19  20  18  17  17  16  14  15  14  15  16  51  72  69  67  64  64  68  68  70  71  67  69  66  63  59  55  53  47  46  42  40  40  38  42  42  37  36  37  43  46  46  47  51  52  55  59  60  62  66  74  77  82  88  86  91  90  56  24  21  18  20  27  29  30  29  29  32  33  34  35  35  35  35  37  38  37  36  36  38
  25  24  24  23  23  22  22  24  20  20  20  18  17  18  17  16  17  16  13  13  13  11  16  43  71  68  65  66  64  65  69  70  70  69  69  68  67  63  58  54  51  50  47  46  46  42  48  48  48  42  40  45  46  46  45  52  55  56  60  61  69  73  77  81  85  89  87  90  88  54  22  18  16  19  27  28  30  26  31  31  32  31  34  34  33  34  35  36  34  34  32  35
  24  24  24  20  21  20  22  20  20  20  17  18  18  18  17  13  17  17  13  14  12  13  13  36  68  67  66  67  63  65  67  68  71  69  69  67  65  64  61  56  53  53  54  50  47  45  48  47  51  47  45  45  47  48  52  55  57  63  69  71  73  75  76  83  85  88  89  90  85  50  22  19  16  19  26  28  27  27  30  32  33  31  32  32  30  34  34  34  34  34  32  35
  23  23  23  22  19  18  19  18  18  18  19  16  17  16  16  16  16  14  12  12  12  13  14  20  67  68  65  67  66  66  68  67  67  66  69  70  66  64  66  64  60  55  54  54  51  47  49  48  49  50  52  53  53  54  56  62  68  68  70  71  74  77  80  82  88  89  91  92  82  50  21  19  16  18  24  27  27  25  26  30  32  32  31  30  28  31  32  33  34  32  31  35
