P2
# Generated by OpenCV 3.4.0
92 112
255
 133 132 132 133 131 134 134 133 133 134 134 134 135 133 135 135 135 134 135 134 136 133 134 135 133 134 135 134 135 134 136 134 132 132 135 136 137 134 132 127 126 132 135 146 142 135 132 112  93 115 114 105 106 101 111 115 114 111 107 107 110 115 114 112 111 105 101 101  98  94  85 104 109 110 109 109 107 108  98  48  32  29  37  31  37  55  96 101 105 109 111 112
 134 132 132 133 131 134 133 133 132 134 134 135 135 135 134 135 135 132 133 136 135 134 136 132 134 134 135 135 136 145 137 134 133 133 134 135 134 130 126 119 113 112 117 134 151 156 143 103 113 118 117 103 101 103 112 117 117 115 113 113 114 114 114 113 112 108 101 101 102  96  88  94 107 110 110 109 112 109 104  40  29  27  31  30  31  34 101 108 108 110 113 115
 135 135 133 133 134 132 136 136 134 134 134 137 136 135 137 136 134 138 136 134 136 137 134 135 133 134 136 135 136 138 140 137 131 132 131 127 123 118 112 114 119 115 127 133 142 143 137 133 123 120 115 110 114 114 117 118 119 108  96  90 110 107 106 114 114 108 104 105 103  98  91  87 104 111 113 113 113 112 106  50  30  28  28  29  33  29  93 108 110 111 113 116
 135 135 135 135 135 135 136 134 134 137 134 136 135 135 135 137 136 135 134 135 136 134 136 135 134 135 135 136 133 133 129 129 123 114 108 106 102 100 111 117 122 137 144 143 139 140 138 129 123 112 111 106 117 118 116 116 116 109  78  67  96 106 112 116 116 114 114 104  92  98  93  79 101 112 113 115 115 115 110  61  31  26  24  24  28  31  82 109 111 113 116 118
 136 137 135 134 135 136 137 136 135 135 135 136 136 137 136 135 136 135 136 136 137 139 137 136 136 136 133 133 127 121 102  96  86  89  91  88  98  96  96 103 103 119 132 143 144 146 143 134 120 108 100 112 120 117 115 112 111 111  86  58  72 106 115 118 117 116 115 110  90  99  96  82 101 111 116 117 117 117 115  78  40  26  25  24  28  39  73 110 114 117 119 118
 133 135 134 134 135 135 137 135 137 136 135 138 138 137 135 136 138 136 136 136 136 139 136 135 134 133 129 125 110  92  73  76  76  89  87  85  84  83  89 100 103 106 114 124 128 137 132 113 102  97  91  91 113 116 114 117 118 117  79  84  87  78 110 116 117 117 115 111 105 102  93  77 100 113 119 121 122 120 118  88  29  29  30  32  32  28  60 114 117 118 120 122
 135 135 134 137 135 136 135 136 135 138 136 139 137 138 136 136 138 136 136 135 136 137 136 134 132 125 109  97  86  81  79  76  79  79  80  87  92 104 105 104 108 110 109 122 117  99  92  94  98  92  94  80  86 107 112 117 118 118  73 104 115  97  84 110 118 117 103 113 112 102  95  75 104 115 122 121 123 122 120 101  30  28  31  31  30  30  45 118 120 123 123 123
 133 135 136 137 135 138 137 136 136 135 137 137 136 139 134 137 136 137 138 136 137 137 136 132 128 123 106  86  80  87  79  75  73  80  90  97  93  87  91  98 110 113 101  94  94  89  82  74  69  70  75  77  76  80  98 118 119 114  83 112 118 117 105  88 109 113 100 109 113 102  83  87 109 117 120 123 124 124 123 115  32  27  27  34  28  29  46 116 124 125 124 127
 138 136 137 136 136 138 137 135 137 136 138 139 137 138 137 137 135 136 139 136 136 136 135 126 122 112  90  73  71  88  94  80  70  64  79  91  95  89  88  86  97 102  95  90  78  71  60  54  50  45  55  61  70  68  71  98 109 113 110 116 118 118 113 100  98 116 110 112 110  99  74  98 113 119 125 126 126 127 127 123  54  35  30  37  31  32  45 117 126 126 128 128
 136 137 136 136 139 138 137 136 137 137 137 138 138 137 138 138 135 136 136 134 134 131 134 127 123 102  80  74  71  81  75  75  72  74  70  74  71  76  80  81  85  88  87  79  64  58  48  45  43  42  44  51  57  57  65  71  95 107 107 106 118 119 116 106 109 117 118 117 106  68  86 108 117 125 128 126 129 127 126 127 110  95  99  99  98 101 107 127 127 129 128 127
 135 136 138 139 139 137 139 139 136 138 138 137 138 137 139 137 136 137 136 134 134 132 128 114  98  81  86  79  71  78  73  73  54  59  73  72  73  58  55  66  77  78  77  72  63  50  45  39  36  37  42  53  54  52  55  61  69  93  93 106 114 119 116 111 112 117 117 103  62  79 104 118 124 128 129 130 131 129 130 130 129 129 128 128 128 128 128 129 129 129 128 130
 136 135 138 137 138 139 140 138 137 137 136 138 136 136 138 138 137 135 135 134 133 130 110  90  74  68  68  68  81  84  69  71  71  54  53  63  67  74  73  56  57  58  66  62  56  52  46  37  34  38  37  50  47  44  48  53  60  70  89 100 116 120 121 119 116 113  85  62  81 106 118 122 127 128 129 130 131 130 131 133 131 130 131 130 130 130 130 129 131 130 131 132
 137 136 137 137 139 137 136 138 138 138 139 140 137 137 136 137 138 134 132 128 124 102  75  65  64  69  80  83  86  91  82  74  71  68  60  56  57  60  76  82  81  76  78  70  68  70  62  60  51  37  30  39  38  36  39  43  54  58  67  76 100 117 118 107  84  61  67  90 109 120 125 126 129 132 131 132 131 130 132 131 131 131 130 132 132 131 132 132 131 131 132 131
 138 138 140 140 140 140 139 137 138 138 138 139 138 137 137 137 133 127 120 100  82  59  52  51  51  55  61  74  85  99  97  98  87  82  73  74  71  76  87  88  84  85  83  82  81  74  80  73  68  58  56  49  44  39  38  44  44  48  56  65  70  74  61  58  72  91 106 118 123 128 131 129 130 131 133 132 132 133 132 132 132 132 131 131 130 130 132 131 132 132 131 132
 140 137 140 138 139 139 139 137 140 140 138 137 136 137 133 125 113  92  72  59  54  50  47  46  49  50  51  59  67  64  66  74  72  74  79  85  89  88  86  92  97  97 101 103 110 102  94  74  60  47  39  39  36  37  37  36  40  44  49  53  63  68  74  94 110 117 124 129 131 130 134 133 132 133 134 133 134 133 134 133 132 130 131 131 132 130 131 132 132 132 131 131
 138 137 137 140 139 139 137 137 136 138 137 136 132 121  99  74  55  56  59  54  51  53  53  50  50  55  55  59  59  58  58  60  59  56  56  56  59  60  57  52  48  57  64  59  60  56  53  50  49  49  48  43  37  32  32  33  34  42  44  46  52  57  64  70 105 116 124 129 132 132 133 132 133 131 132 131 131 131 132 132 129 122 123 131 132 130 130 131 130 129 130 128
 136 139 137 136 137 139 139 135 136 135 134 132 115  79  62  58  55  55  54  55  49  46  48  49  49  57  60  71  76  71  68  56  53  49  44  48  46  43  43  41  46  47  44  40  44  48  48  45  58  41  42  42  37  38  37  31  30  36  40  43  42  48  54  57  66  84 100 116 119 119 119 120 114 115 114 112 110 104 106 102 102  98 100  95  97  94  92  91  94  91  90  89
 132 133 135 132 135 135 135 132 134 128 128 119  93  70  61  51  51  52  48  48  48  49  50  56  60  60  58  63  76  77  76  58  56  47  44  50  47  49  52  50  48  48  46  40  40  36  33  33  46  37  42  40  38  40  40  38  34  31  35  38  37  40  42  46  52  63  66  75  85  88  92  89  92  94  94  93  97  98  99  95  98  99 102 100 105 104 108 110 109 110 109 111
  88  84  83  82  82  81  91  92  85  85  80  80  63  53  50  46  42  40  42  38  40  43  47  52  58  69  76  82  83  83  93 103 109  97  88  81  71  66  65  62  61  54  47  44  46  51  50  64  63  71  66  59  58  52  47  42  35  33  31  32  37  40  35  39  50  49  54  62  89 117 123 125 123 124 126 125 128 128 128 128 132 130 132 130 129 132 132 132 132 132 132 133
 118 117 119 118 119 121 119 120 120 118 106  72  48  48  46  42  37  37  36  41  36  36  38  46  50  56  70  84 103 106 105 104 104 112 108  96  88  78  73  70  70  63  58  53  51  49  38  36  45  46  44  42  36  36  39  40  41  41  38  43  42  42  42  39  34  41  44  48  59 102 130 136 136 137 138 137 136 135 137 137 138 137 137 137 137 136 136 136 136 137 136 137
 135 136 137 133 136 136 137 138 137 133 105  57  44  43  42  37  37  36  37  37  37  38  40  45  49  54  59  74  85 102 118 122 122 116 111 102 105 103  98  90  82  68  61  60  52  40  42  49  44  44  46  42  45  49  48  56  59  52  52  63  51  46  43  39  35  35  42  43  47  64 115 135 138 139 138 137 138 137 136 137 137 137 139 138 137 137 138 136 137 137 136 135
 137 138 139 139 140 140 138 139 139 136  92  51  43  40  36  32  33  31  33  32  31  33  37  38  42  45  50  57  65  71  81  89 100 106 116 124 121 118 109 104  95  90  85  72  52  48  43  43  43  46  53  57  56  58  69  81  79  72  78  79  72  66  54  41  32  34  33  34  40  55  87 132 139 139 141 141 139 139 138 138 138 138 139 139 138 138 137 138 137 136 138 137
 140 139 139 138 139 138 139 136 136 131  67  45  40  36  30  28  31  27  29  29  31  31  34  38  37  37  39  44  51  54  62  62  70  78  82  84  86  91  90  85  81  76  71  54  48  47  46  51  60  71  69  68  69  74  76  83  85  80  86  86  81  80  62  48  44  41  31  25  32  50  70 120 135 139 140 138 138 138 138 138 138 137 139 138 138 138 138 137 138 137 137 137
 138 138 138 137 140 140 141 139 136 111  52  41  36  33  31  29  38  29  31  31  31  30  30  32  35  37  39  41  44  48  52  53  55  55  52  54  50  59  58  53  54  64  63  56  55  58  64  73  76  78  79  77  77  82  83  86  95  98 101  96  94  94  68  59  57  47  34  28  32  49  71 102 129 140 139 140 141 140 139 138 141 140 139 139 140 139 139 139 138 139 138 138
 139 139 139 138 139 141 142 141 136  90  50  37  31  28  29  29  31  34  33  32  29  27  25  26  28  34  37  42  46  46  47  48  50  51  49  50  48  47  49  51  55  56  60  61  64  69  77  84  87  87  87  85  83  88  91  98 104 110 113 111 108 104  82  69  56  57  45  38  39  46  80  92 115 137 139 140 141 139 140 140 140 141 140 139 141 140 139 139 138 138 138 138
 138 139 138 140 141 141 142 138 137  72  44  36  31  33  33  34  33  33  33  30  27  26  27  29  32  33  36  38  41  42  44  46  49  49  51  52  53  56  56  62  61  61  61  66  70  73  81  87  88  89  89  90  90  94 103 109 118 122 122 120 116 114  98  81  59  49  38  44  56  65  80  86 119 134 141 142 142 140 142 141 141 141 141 142 143 140 140 138 141 141 138 139
 141 140 139 140 140 141 140 139 124  62  43  37  35  35  33  33  30  30  28  26  30  30  32  33  38  40  42  42  44  46  48  50  52  53  58  58  61  62  65  67  67  68  71  73  76  79  85  91  91  91  90  94  95 104 112 117 125 129 126 129 125 119 112 103  74  47  38  36  54  71  57  85 112 134 141 142 142 142 141 141 141 140 142 141 142 141 141 140 140 141 140 141
 139 140 142 140 142 141 140 137 119  55  37  34  33  32  30  31  29  27  25  28  32  35  37  40  45  47  46  49  51  53  55  57  58  58  60  63  66  67  68  70  72  73  75  80  82  82  87  91  91  90  93 100 103 107 115 122 129 132 132 132 130 128 125 114  89  54  45  52  48  40  45  80 116 134 141 142 142 143 144 143 141 141 143 143 141 141 141 142 140 143 140 141
 141 141 140 141 141 142 142 132 120  48  38  33  31  28  25  27  26  28  29  34  37  39  42  44  50  53  52  55  56  58  61  61  62  63  66  67  72  74  75  74  77  78  80  83  82  85  88  90  91  92  96 102 104 111 118 127 133 137 137 134 138 141 138 125 104  70  51  49  43  36  43  67 110 131 141 142 143 144 142 142 142 142 142 142 140 141 143 143 141 143 141 142
 140 141 142 141 143 141 140 136 119  54  37  29  27  25  25  24  25  29  34  39  42  45  51  51  57  61  61  61  62  66  63  64  68  68  70  72  75  75  78  80  80  81  86  85  86  88  89  90  90  95  98 102 106 113 121 129 136 138 137 138 144 149 151 137 117  84  56  46  36  36  40  57  82 132 139 145 144 141 143 142 143 144 143 142 142 142 144 143 143 142 141 141
 140 141 142 143 142 142 140 138 126  73  35  30  28  26  24  23  25  32  41  43  46  53  54  59  64  66  68  68  69  69  70  69  72  72  75  76  79  78  80  83  81  84  84  86  85  87  90  90  95  98 100 103 108 114 125 134 139 141 143 143 149 153 157 146 125  91  62  45  37  37  46  55  81 122 141 143 144 143 143 143 144 143 144 145 144 141 143 143 143 142 141 141
 141 141 142 143 142 142 140 140 133  83  49  32  27  26  24  23  26  38  47  49  54  60  61  65  67  68  71  74  73  74  76  76  77  78  78  80  81  82  83  83  83  84  85  87  89  90  91  95  98  99 101 104 110 123 132 138 145 146 146 149 155 156 158 152 129  96  69  49  40  38  44  50  69 107 135 143 145 146 145 145 145 143 143 142 144 143 144 144 144 143 144 143
 142 142 142 142 144 142 144 140 136 102  72  37  30  27  27  25  27  45  52  55  58  64  67  69  74  72  77  77  79  81  80  81  81  80  82  85  85  87  85  87  86  85  85  89  91  91  95  98 103 104 109 111 119 131 142 146 148 150 151 155 158 161 159 150 130  97  71  51  39  42  44  46  62  94 130 143 144 145 145 145 144 144 146 145 145 146 146 145 144 146 146 145
 142 143 142 141 144 143 142 141 136 120  97  34  28  25  26  24  30  48  57  61  62  65  70  74  75  76  79  80  83  83  83  82  81  83  84  85  87  87  88  88  87  85  86  88  92  94 100 103 107 109 112 116 126 141 152 156 159 159 158 159 162 165 160 147 126  96  72  54  39  37  38  38  56  68 123 144 145 145 145 147 146 144 146 146 145 145 146 146 146 145 145 144
 142 142 143 143 144 142 141 141 139 135 110  39  28  26  26  28  36  54  64  66  69  71  76  78  79  81  84  82  84  84  84  83  84  84  86  88  89  87  88  88  88  88  88  90  96 100 104 106 107 112 119 126 139 153 161 166 168 170 169 170 170 169 161 143 124  99  70  58  45  39  38  33  50  65 109 140 147 146 147 147 146 146 145 145 146 147 145 146 147 146 145 145
 144 143 143 142 142 143 141 141 143 140 114  41  28  29  29  31  39  57  70  73  75  76  78  80  81  82  83  82  85  86  84  83  84  86  88  88  91  90  88  90  89  88  88  94  96 103 106 110 114 118 123 133 150 162 168 171 175 176 176 172 174 171 159 143 131 103  69  53  46  40  37  35  44  57  99 139 146 147 147 146 147 147 145 145 146 147 147 145 147 146 147 146
 142 144 144 144 144 143 143 143 145 142 131  53  31  29  28  31  40  61  72  73  78  78  79  76  81  84  85  84  83  84  85  84  87  87  90  91  90  90  90  89  88  90  91  96  99 104 109 117 120 124 127 134 152 164 169 171 173 172 172 174 173 170 163 149 136 111  74  51  43  38  36  34  43  52  81 138 146 147 146 148 147 148 147 147 147 146 146 147 147 148 148 145
 143 142 142 144 143 144 144 144 144 143 139  68  33  31  31  31  42  62  75  78  80  79  80  80  83  85  83  86  83  87  87  86  87  90  92  94  94  91  91  91  90  92  93  96 101 106 111 116 119 121 126 132 139 150 160 166 167 169 171 173 174 173 167 159 145 122  88  57  41  37  35  34  43  49  74 136 147 148 149 149 149 149 148 148 147 147 148 148 148 147 147 147
 142 143 145 145 145 144 144 145 144 143 142  96  34  33  30  32  38  60  76  81  81  83  84  84  84  84  88  88  86  89  88  88  89  91  93  96  96  93  92  91  91  92  94  92  97 102 107 108 112 119 122 126 130 137 141 146 152 153 154 165 163 168 174 166 154 134  99  58  41  38  36  34  47  46  65 136 147 150 150 150 149 149 149 149 147 149 149 148 148 148 148 146
 143 143 145 143 144 144 144 144 144 144 144 126  42  32  31  31  40  65  80  83  83  84  84  85  87  87  88  90  90  90  90  88  89  91  91  94  90  95  93  92  90  90  94  91  96 100 102 103 104 106 111 114 112 118 124 127 126 135 132 132 139 140 163 170 158 139 110  66  39  36  36  36  46  46  66 135 150 150 149 149 149 148 149 150 150 149 148 148 148 148 148 148
 143 143 144 144 144 145 146 144 146 145 145 139  63  33  32  33  41  69  82  82  84  86  84  84  85  88  88  89  92  91  92  89  90  90  93  92  91  94  93  91  91  91  90  92  92  94  93  94  96  97  96  95  92  92  97 101  99 102 103 101 106 112 110 137 153 137 117  77  42  33  36  38  44  47  82 137 151 150 149 149 151 150 150 151 152 151 150 150 149 150 150 149
 144 145 146 146 146 145 145 147 146 145 145 144  77  33  32  32  40  69  81  83  82  80  79  76  77  82  88  89  90  91  91  90  90  90  90  89  92  92  90  91  93  89  89  91  90  91  89  87  80  80  84  75  69  66  63  62  66  69  76  84  90 100 104 120 135 128 121  89  40  34  36  38  44  47 100 144 154 154 152 151 150 150 150 151 150 148 150 151 152 151 151 149
 144 145 144 144 145 146 146 145 145 146 145 143  84  34  31  33  41  72  81  82  75  63  65  66  67  71  76  81  84  81  86  89  89  88  91  87  90  91  89  91  90  91  91  90  92  88  84  79  71  65  66  58  56  54  51  46  45  51  56  64  67  76  88 116 127 130 124 107  48  36  35  38  44  52 121 155 161 159 156 154 153 152 152 153 153 151 152 153 152 151 150 149
 143 145 146 147 146 145 146 146 146 147 145 145  92  38  34  30  42  72  82  71  55  50  51  55  57  53  55  56  63  65  68  74  78  80  87  83  88  87  90  90  86  89  90  89  87  81  76  67  66  56  58  55  48  47  45  43  46  47  53  54  55  69  88 109 129 130 133 121  58  38  36  39  42  53 135 162 168 162 160 156 154 154 154 152 153 152 154 152 153 152 153 153
 145 144 146 146 146 146 146 147 146 147 146 146 108  36  34  30  40  76  69  49  48  46  45  49  50  45  43  42  45  51  54  58  64  72  80  79  83  84  87  88  84  88  86  85  80  76  70  64  63  58  54  54  50  52  52  54  57  63  67  70  66  75  90 103 110 127 133 125  82  42  39  39  43  51 150 169 168 167 163 159 156 155 155 154 155 154 154 154 155 154 155 155
 147 145 148 147 146 147 148 147 148 148 148 145 122  36  33  29  34  74  54  44  41  47  49  49  46  48  45  44  45  46  50  50  57  65  70  72  78  80  82  84  83  86  83  83  80  72  69  65  64  60  62  65  64  64  67  65  67  68  70  74  76  85  93  96 101 120 138 130  97  49  42  40  40  53 160 172 171 167 165 161 156 157 159 157 158 156 156 156 157 156 156 156
 147 147 149 147 149 148 148 150 149 149 150 147 128  40  34  28  32  67  48  47  46  48  52  58  54  50  51  53  52  54  54  50  52  60  63  68  71  76  79  84  83  84  83  83  78  73  69  68  69  68  67  65  62  63  61  59  60  63  66  72  78  84  94  98 102 117 134 136 113  53  46  44  42  56 167 172 170 170 169 164 161 162 162 161 160 160 161 162 160 161 160 161
 148 149 149 148 149 152 151 150 152 152 151 147 137  53  32  27  32  68  52  50  53  55  62  66  64  62  64  63  62  62  62  61  60  61  62  62  64  71  78  82  84  84  86  85  78  75  71  71  70  66  61  52  46  44  43  46  48  54  57  60  63  74  86  94 105 116 133 140 128  67  45  48  46  64 171 173 174 171 169 168 164 166 163 165 163 164 164 164 162 162 164 163
 150 149 149 151 151 152 152 151 153 151 152 150 146  70  35  27  31  71  55  57  60  65  69  67  64  59  58  56  52  48  49  53  59  62  64  65  70  73  76  83  89  89  91  90  87  81  73  68  62  55  46  44  43  38  31  28  30  33  36  55  69  58  71  87 103 114 137 146 138  80  46  45  47 103 190 179 175 172 170 168 166 168 167 166 168 166 167 165 165 165 165 166
 150 151 151 151 151 151 152 153 151 154 153 151 152 106  33  28  34  72  64  67  68  70  68  62  54  50  49  48  46  43  37  36  41  51  60  66  69  72  76  83  89  94  99 101 100  84  73  64  56  46  45  45  46  38  33  28  31  46  58  40  40  57  60  79  98 115 136 149 146 100  53  45  51 116 185 190 178 174 171 170 169 168 168 170 170 170 169 169 170 168 168 167
 151 150 152 151 152 152 154 153 152 153 155 155 151 138  35  31  34  80  71  69  72  67  62  49  48  53  39  31  28  26  30  35  39  42  50  58  66  71  79  85  92 101 105 108 108  86  75  67  57  50  44  42  61  45  37  31  34  44  64  53  57  59  62  74  96 119 142 151 156 118  59  48  53  89 106 143 176 176 174 172 173 172 172 171 172 173 173 172 172 171 171 169
 153 152 153 153 153 154 154 155 155 156 156 154 151 148  60  32  32  85  85  77  73  66  52  52  46  28  37  30  27  23  27  33  42  41  47  51  63  67  76  86  93 102 107 110 111  94  77  70  64  44  38  41  46  47  44  42  45  51  59  79  95  97  89  90 106 135 153 161 159 137  58  48  52  71  82 114 171 176 175 175 173 174 176 175 175 176 175 174 174 175 172 171
 153 152 154 154 155 154 155 155 157 156 157 155 154 148  71  33  35  89  89  83  74  63  50  42  28  46  75  39  33  26  28  34  44  36  38  55  65  65  76  86  91  99 106 111 114 104  84  74  69  63  55  51  52  53  57  57  59  65  81  94 105 103 104 110 126 149 164 171 168 154  77  47  52  83  81 126 174 176 177 177 176 177 177 177 177 176 176 175 176 176 175 174
 153 154 154 155 156 157 157 156 159 160 159 159 159 153  86  36  34  91  91  84  72  62  47  35  39  42  50  45  40  38  41  44  44  45  54  62  68  70  78  90  99 102 108 115 120 112  97  82  72  63  56  54  54  58  64  68  70  76  81  92  97 103 112 121 140 158 166 176 172 164  92  50  49 106  92 136 176 178 179 181 181 180 177 179 178 179 179 177 179 179 178 178
 154 155 155 158 158 159 160 159 161 161 160 161 160 153 104  33  34  91  92  88  76  68  62  62  59  56  56  53  55  54  52  54  49  50  57  65  70  75  83  93 103 109 116 124 125 117 107  96  82  70  67  63  60  60  59  65  67  73  81  89  98 108 119 137 153 167 172 178 176 165 114  57  51 101 115 136 177 180 183 181 180 183 182 182 182 181 182 181 178 178 180 180
 156 159 156 159 160 159 161 161 161 162 161 161 161 159 112  34  34  94  94  90  82  79  76  74  72  73  69  70  68  62  57  54  50  53  59  66  73  76  84  95 110 116 127 139 135 123 115 108  99  93  88  81  78  77  74  76  78  83  87  96 103 113 133 152 168 172 176 181 178 169 125  63  59  91 121 137 178 182 183 184 183 184 186 185 184 183 183 183 182 182 183 184
 159 157 159 160 159 161 162 162 163 165 163 163 164 163 102  34  35  93  96  95  89  87  85  81  79  76  72  69  67  63  61  60  57  61  65  74  79  82  86  91 111 122 141 154 143 125 118 116 114 110 106 100  98  96  91  91  92  92  95 104 111 123 143 161 175 180 179 180 179 170 136  73  60  78 113 144 182 184 186 187 186 186 186 187 186 187 187 187 186 186 184 185
 158 158 160 161 162 162 164 163 164 165 165 166 166 163  96  39  39  96  98  96  91  90  91  89  87  83  79  73  71  68  68  69  70  73  77  82  84  87  86  89 108 126 151 162 149 129 121 122 121 120 110 106 101 101  98  99  97 101 102 107 116 132 156 170 177 178 184 182 177 170 142  78  59  74 109 157 186 189 188 190 190 188 190 189 190 188 189 188 187 187 187 190
 160 161 162 162 164 165 165 165 166 166 166 168 167 159 132  35  43  97  98  96  94  94  94  93  93  88  85  83  81  76  77  77  80  83  83  87  87  87  87  90 109 127 159 172 158 136 123 121 121 118 110 104 101 102 101 104 103 105 108 115 130 145 162 172 180 181 180 180 172 169 140  79  59  74 115 164 187 190 190 190 189 191 192 191 192 192 192 190 190 190 189 190
 161 162 164 163 165 164 166 168 166 166 168 168 167 163 153  54  43  99 100 100  99  98 100  98  95  92  87  87  88  85  86  84  85  87  87  86  85  86  87  92 109 133 171 183 167 148 134 122 122 117 111 104 100  99 102 105 104 107 114 127 143 159 166 174 181 180 179 176 170 165 140  78  59  81 146 177 191 192 191 192 192 191 192 191 192 193 193 194 193 192 191 190
 161 162 165 167 166 166 168 168 168 169 171 171 172 168 169  86  51  99 102 103 104 104 102 103  97  93  93  93  91  92  91  92  88  88  88  89  86  87  89  98 114 133 176 197 186 171 160 139 119 119 112 107  99  99 102 105 106 109 119 133 149 162 170 177 183 180 178 169 165 158 138  79 105 175 159 185 194 194 192 194 195 194 193 193 194 193 193 193 194 193 193 192
 164 164 166 167 168 167 168 169 169 169 170 172 171 171 170 114  56  97 102 106 104 104 105 104 100  98 100  97  97  97  94  94  93  92  90  88  86  86  98 107 123 137 170 197 195 186 180 162 136 118 112 104  99 100 100 103 106 112 123 137 149 159 170 178 181 180 174 165 155 151 136 105 139 187 168 191 195 195 195 196 196 195 196 196 197 196 195 195 196 194 194 193
 166 167 167 169 170 170 171 170 172 171 172 173 173 173 172 139  58  99 103 103 102 103 106 104 101 101 101 100 101 100  95  97  93  95  90  86  83  88 105 112 124 143 166 193 206 193 188 180 164 129 102  96  95  96  98 100 106 115 125 137 144 156 163 171 175 176 169 156 148 146 133 128 172 159 173 192 199 197 198 199 198 198 198 198 200 198 195 198 197 197 197 194
 168 168 168 169 170 171 170 172 173 172 175 175 174 175 175 168  72  93 100 101 101 101 102  99 102 102 102 103 101 101  97  96  95  94  88  83  83  95 104 111 120 129 150 172 193 193 184 182 175 162 126  90  88  90  92  98 105 112 123 129 137 146 156 161 165 165 157 151 142 138 130 124 143 144 182 196 200 199 201 200 200 200 199 201 201 200 200 200 200 199 198 198
 169 168 170 170 170 173 172 174 173 173 175 175 175 177 177 176  99  89  99  99  99  98 100 100 101 102 103 100 102 101  98  95  92  90  83  80  87  97 100 105 108 118 130 144 163 172 169 168 162 157 158 117  83  85  89  93  99 108 117 122 127 132 142 148 152 154 149 144 140 136 128 149 165 165 188 200 202 202 201 202 202 200 202 202 201 202 202 201 202 200 200 199
 170 170 170 170 170 173 173 175 176 176 177 176 177 179 178 177 128  99  96  98  99  97  98  98 100 104 103 102 101 101  98  95  92  87  82  85  88  92  92  98 100 101 108 111 124 144 134 121 119 125 142 139  90  83  85  87  95 101 106 114 118 121 127 134 138 141 141 135 137 138 125 137 174 182 193 202 202 204 204 204 203 202 203 204 204 203 202 201 202 200 199 201
 170 170 170 172 172 172 175 174 177 176 177 177 177 179 181 181 148 101  98  96  98  97  96  99 102 102 103 100 100  98  96  92  90  84  81  86  83  81  84  88  92  89  91  94 103 109 102  90  94  96 105 113  92  83  83  82  90  95 100 106 111 112 115 121 126 133 134 135 137 139 123 118 130 150 192 205 204 204 206 205 203 204 204 206 205 205 205 204 204 204 204 203
 172 172 173 175 174 174 175 175 179 179 179 181 181 184 183 183 170 102  95  93  96  96  96  96 100  98  99 100 101  99  98  94  87  82  82  83  80  74  73  72  80  81  81  79  85  87  65  53  55  69  82  91  88  88  83  80  83  91  96 101 107 111 111 113 118 125 129 130 133 140 130 148 173 193 201 206 207 205 205 206 206 206 204 207 206 205 207 206 207 205 204 206
 174 173 176 174 177 178 178 179 179 180 181 181 185 184 185 183 176 101  93  92  91  93  98  97  98  97  97  99  98  97  96  91  86  82  79  77  73  60  49  52  64  70  70  70  71  69  55  44  50  57  72  82  89  90  85  80  77  82  89  98 105 108 110 110 112 117 126 132 135 138 133 185 201 204 206 207 207 206 208 206 207 207 207 206 207 207 208 207 205 204 204 206
 175 175 176 175 176 179 178 180 181 181 182 183 186 185 186 186 182 106  88  90  89  93  96  97  98  99 100  98  97  96  94  90  87  79  74  72  64  49  39  41  58  65  69  71  74  80  73  76  75  71  78  87  94  95  91  86  77  73  76  87 101 108 109 109 111 113 121 129 132 137 139 196 207 208 209 208 209 208 209 208 208 209 210 209 209 208 207 209 208 207 206 206
 176 176 176 177 179 179 183 183 184 185 185 184 186 187 188 188 185 124  92  92  87  88  95  94  97  98  97  94  94  95  94  88  87  84  74  67  60  56  57  61  64  65  65  70  73  75  72  80  83  82  85  91  94  96  95  88  85  78  68  69  89 104 110 111 110 115 120 126 128 140 148 201 208 211 211 212 210 209 211 210 210 210 211 210 212 209 209 209 210 210 207 207
 176 177 177 179 181 181 184 185 186 186 184 186 188 188 189 190 189 180 122  95  90  85  89  91  97  97  96  96  95  95  90  86  86  86  76  70  64  58  60  61  64  64  65  66  69  73  73  73  76  80  81  94  95  98  96  91  87  80  76  66  71  95 110 112 110 113 117 122 128 141 159 204 210 211 212 210 210 211 211 212 213 212 211 212 212 211 210 209 212 211 209 211
 177 177 180 181 181 182 184 187 186 187 188 187 188 189 191 192 191 189 165  95  89  90  90  91  93  93  93  94  96  94  90  86  87  82  77  74  70  64  61  59  59  63  66  65  63  60  67  68  76  78  83  94 103 101  99  99  94  89  85  75  60  85 107 111 108 108 114 125 131 135 152 206 211 211 212 212 213 212 213 212 212 211 211 212 212 213 212 209 211 212 210 210
 178 179 179 182 184 183 186 187 188 187 189 188 189 192 193 194 192 193 179 103  91  90  88  88  91  88  92  94  91  91  88  86  82  80  76  74  71  69  63  57  55  60  62  60  60  51  62  70  75  82  96 104 110 110 106 102  92  85  81  80  65  77 101 107 106 108 114 122 131 137 157 206 211 212 213 213 213 214 213 214 213 213 213 212 213 214 213 212 211 213 212 211
 180 183 184 184 186 185 187 187 189 189 189 190 190 192 193 193 194 195 191 115  90  88  88  88  89  87  88  92  92  89  84  84  81  79  72  70  69  62  63  64  62  64  60  53  54  50  54  68  81  93 108 115 118 115 111 105  90  75  69  74  68  74 100 109 110 107 111 118 124 132 186 211 213 216 215 215 213 214 214 214 213 214 214 214 213 213 213 213 213 213 213 213
 181 182 183 184 185 185 188 188 190 190 189 192 191 193 194 195 196 196 195 137  87  86  87  86  85  86  88  90  90  86  82  78  76  74  71  67  62  60  62  67  69  65  56  50  46  50  62  77  83  90  99 103 105 106 104  96  70  60  64  70  72  78 100 108 110 106 111 115 120 120 193 213 214 216 217 215 217 215 216 216 215 215 216 213 213 213 215 215 215 214 214 214
 184 185 184 184 186 186 189 190 190 191 191 191 192 195 196 196 197 196 196 163  91  81  82  81  82  86  90  90  88  84  81  73  73  72  67  66  64  66  63  68  72  70  67  66  67  67  71  70  70  75  75  73  70  71  71  58  50  68  71  77  78  84 104 108 106 105 107 112 117 125 202 214 217 217 218 215 218 217 217 217 217 216 217 215 215 215 216 216 214 212 214 213
 184 184 184 186 188 190 190 190 190 190 192 191 194 194 196 196 198 198 196 188 101  88  81  82  85  86  88  89  86  80  78  74  72  72  69  70  69  71  69  69  66  64  62  62  65  66  64  61  59  58  59  58  59  61  59  62  81  82  80  87  84  89 103 108 108 106 107 112 112 128 209 215 217 216 215 217 217 219 215 218 218 216 216 216 215 215 216 215 215 214 214 213
 185 187 187 187 189 189 190 191 192 192 192 193 194 196 196 198 198 199 199 195 108  82  81  83  87  88  89  85  83  79  76  71  71  69  72  75  73  68  63  60  59  56  53  53  56  59  53  49  46  48  54  61  68  72  76  86  92  89  85  89  87  91 100 102 104 104 104 113 115 159 210 215 216 218 216 218 217 218 217 218 217 217 218 217 216 216 215 215 214 214 214 213
 187 186 186 188 189 190 191 192 192 194 194 196 195 196 199 200 201 201 202 198 139  84  82  82  82  86  88  87  83  76  70  65  61  62  64  60  57  53  54  51  50  49  44  40  45  41  42  45  53  63  66  78  87  90  92  95  94  93  89  89  89  94  96 100 101 101 100 113 112 169 212 215 217 217 217 218 216 217 218 218 217 217 218 216 216 215 215 216 215 215 213 214
 187 188 187 190 189 191 191 193 193 194 196 196 197 198 199 201 202 202 203 201 185  87  80  82  83  87  88  88  80  76  63  54  45  39  44  45  44  44  41  42  40  41  40  44  49  52  56  62  74  81  81  90  92  97 101  99  96  90  87  87  90  93  95  95  99  97 103 112 100 201 214 217 218 218 218 218 218 218 218 218 219 218 218 217 217 217 217 216 218 216 215 214
 187 188 188 190 191 192 193 194 193 195 197 197 197 199 200 200 200 202 204 203 196 103  84  83  85  82  85  89  84  77  68  58  55  53  48  49  54  54  51  50  51  52  52  54  64  66  73  75  85  86  84  87  95  98 104 102  98  90  84  86  84  93  94  87  94  97  98 103 120 212 217 218 219 219 218 219 218 218 218 218 218 217 217 217 217 217 217 217 216 215 214 214
 188 189 189 190 191 192 194 194 196 195 199 198 196 199 199 202 203 204 204 204 202 137  85  83  84  84  85  86  87  79  70  67  67  68  63  59  63  62  62  61  58  57  59  66  69  71  74  75  75  75  78  85  94  99  99  97  96  88  79  84  90  94  90  88  89  91  94  94 164 212 217 218 219 220 219 219 218 217 219 218 218 218 219 218 216 217 216 216 216 216 215 214
 187 190 192 192 192 192 193 193 196 196 197 198 201 201 201 202 203 205 205 203 202 180  79  78  80  82  84  84  85  79  75  72  72  72  72  70  66  62  62  62  64  66  64  67  67  67  65  64  69  73  80  88  94  96  94  96  97  93  88  87  91  95  88  91  88  85  87  78 191 213 217 218 219 219 219 219 218 218 220 219 219 219 219 217 216 217 216 217 217 218 216 214
 188 190 191 192 193 193 194 195 196 196 198 198 199 201 201 202 205 205 206 206 205 200 125  77  78  80  80  81  83  81  76  76  78  74  77  76  71  66  60  62  62  60  57  58  62  63  64  68  70  74  79  86  90  96  92  92  93  92  88  89  92  95  94  91  87  86  86  94 207 215 217 219 219 220 218 218 218 219 220 219 219 219 220 217 218 217 218 216 217 218 216 214
 189 191 190 193 195 195 195 198 198 198 198 199 200 202 202 202 204 205 206 207 206 204 172  78  73  74  81  83  81  76  75  72  74  78  76  76  73  70  69  65  63  65  62  61  59  56  62  64  67  71  77  86  92  96  93  91  93  92  91  89  92  90  90  89  85  86  81 117 208 218 220 220 219 220 220 220 219 219 217 218 219 220 219 216 217 216 215 216 214 217 215 213
 191 191 192 193 195 196 196 199 199 198 198 201 201 200 204 203 205 205 205 205 206 206 204 118  67  70  76  78  79  74  73  71  68  73  75  73  72  70  66  66  62  62  61  56  52  54  54  61  66  74  84  91  92  92  96  95  96  91  91  96  94  90  86  82  84  83  81 133 210 215 219 218 218 220 219 218 219 218 219 219 218 219 219 218 217 215 216 215 216 216 216 214
 192 192 192 193 194 197 195 197 199 199 200 201 202 202 204 205 206 205 207 206 208 207 206 191  73  65  69  73  76  72  71  73  67  68  71  75  74  71  69  68  68  66  61  53  49  50  53  62  69  78  87  92  92  95  97 100  98  90  91  93  92  87  81  80  78  77  95 156 213 214 219 218 218 218 218 219 219 219 220 219 218 218 219 217 217 215 218 215 217 215 216 215
 193 192 193 194 196 197 197 198 198 200 200 203 202 202 204 206 205 206 206 207 209 207 207 206 168  65  67  68  73  72  67  70  71  68  70  72  76  73  74  72  74  68  63  60  60  64  70  76  84  90  95  97  96  93  97  95  99  97  94  89  82  76  78  79  77  85 100 162 212 217 218 218 219 220 219 219 219 219 220 218 219 219 219 219 216 216 217 216 216 217 214 214
 193 193 195 194 196 197 200 199 200 199 201 202 203 204 205 205 205 206 206 208 207 208 208 207 203 113  65  60  68  71  65  61  69  65  66  71  74  73  71  72  71  70  70  69  72  76  84  87  88  92  97 100 102  95  96  93  94  93  92  82  79  75  75  74  72  91 109 169 214 218 217 217 219 218 219 219 219 218 219 219 219 217 218 217 217 215 215 217 216 216 215 214
 193 194 196 195 197 198 199 200 200 201 202 203 202 203 205 205 205 207 208 207 209 210 209 209 207 172  51  55  62  64  63  66  69  68  71  71  72  73  70  71  72  73  70  73  70  77  87  88  87  92  96  97  95  92  88  89  88  90  86  78  77  69  78  67  75  97 108 179 214 218 218 220 219 219 221 219 219 219 218 220 217 218 217 217 216 216 217 216 216 213 215 214
 195 196 195 198 199 199 199 200 200 202 202 204 203 204 206 205 206 207 208 209 208 209 209 210 210 201  74  46  56  58  58  61  64  67  68  68  68  74  72  74  76  76  75  73  73  74  81  84  86  93  97  99  93  89  85  89  88  81  80  74  69  68  68  66  77  99 109 190 215 218 219 219 219 219 219 221 220 220 220 218 218 219 218 216 216 216 217 217 216 214 215 214
 196 197 197 199 198 200 201 200 202 202 202 204 205 205 206 205 207 208 208 211 212 210 209 211 210 202 105  56  48  48  49  54  62  67  68  68  65  73  73  75  76  76  75  70  74  77  82  85  87  91  92  89  85  83  83  88  86  76  72  66  61  65  59  70  86  97 117 198 214 218 219 219 219 219 220 218 219 219 218 219 218 218 216 217 218 216 217 216 216 215 214 214
 196 196 196 198 200 200 202 201 204 204 203 205 205 205 207 207 209 209 208 209 211 209 210 209 211 206 125  68  44  41  44  46  57  62  66  70  68  66  74  78  74  74  75  73  72  75  77  78  79  82  77  82  76  73  76  82  83  73  68  59  62  59  67  78  91 100 122 202 216 219 219 217 218 219 218 219 219 217 219 218 217 217 218 216 216 216 216 215 214 216 213 214
 196 196 197 200 199 200 200 201 200 202 202 204 204 205 206 207 206 207 208 208 210 209 210 210 211 208 145  68  54  38  40  41  48  52  62  64  70  70  73  75  67  70  68  71  68  67  66  71  72  71  72  75  72  70  73  81  79  66  64  59  58  63  73  83  90  97 126 207 216 217 218 218 217 219 219 219 219 219 218 218 219 218 217 217 218 216 217 214 214 215 215 212
 196 196 196 198 198 199 200 200 201 203 203 206 204 205 207 206 208 208 208 207 210 211 211 212 210 208 177  68  61  48  37  37  41  47  55  56  63  71  71  74  67  68  60  64  69  68  63  64  66  70  69  70  69  68  72  74  72  60  58  56  59  74  81  87  88 106 132 208 216 217 218 219 218 219 219 220 218 218 218 218 218 217 216 215 216 216 216 215 215 214 214 214
 196 196 197 198 198 198 201 202 202 202 202 206 207 206 207 207 207 208 208 208 209 210 211 210 210 170 134  67  59  58  44  35  37  39  47  53  55  63  61  63  60  64  54  56  64  68  64  62  61  66  65  59  61  65  66  63  55  50  48  54  67  76  83  87  92 110 139 213 215 216 217 216 218 219 218 218 217 217 216 216 216 218 218 216 216 214 216 215 217 214 213 214
 197 196 196 198 198 199 200 201 201 204 205 204 206 206 206 205 206 205 206 207 207 207 211 181 103  66  82  72  60  57  52  41  33  36  39  42  50  56  53  55  54  65  57  52  60  56  58  55  55  54  56  57  56  61  57  57  50  44  51  70  80  80  86  90  98 114 127 148 210 214 216 216 217 218 217 217 218 216 218 216 217 217 216 217 216 216 215 216 215 214 214 214
 196 196 197 197 199 199 201 200 202 205 203 203 203 205 210 192 183 195 179 151 131 116  70  34  58  81  82  75  64  55  53  52  39  34  36  35  38  45  46  49  50  58  54  51  52  51  51  49  48  48  52  50  50  53  46  45  46  57  69  77  80  77  86  95 104 118 132 109  80 138 176 197 216 213 216 216 216 218 217 217 217 216 217 216 216 215 214 214 214 214 216 214
 196 196 198 198 199 199 201 200 201 200 203 192 144 102  55  39  42  41  35  34  36  33  30  28  61  80  78  73  69  63  59  58  54  46  34  32  32  34  41  41  44  47  47  47  48  47  44  46  46  48  47  47  44  40  41  43  55  72  75  80  78  83  91 102 109 117 136 187  92  68  65  62  82 174 214 214 215 215 216 216 216 215 216 216 216 215 215 215 215 213 214 212
 195 195 198 198 198 200 200 201 188 134  88  50  40  39  34  31  30  30  26  23  23  22  20  24  65  76  73  72  70  69  65  61  59  54  50  40  32  29  31  33  35  38  39  44  44  41  38  39  39  38  39  39  38  40  50  60  67  72  76  82  87  88  97 105 113 122 129 190 172  60  54  50  46  65 103 154 191 216 213 214 215 215 215 214 214 213 214 214 214 213 212 213
 193 195 202 202 173 156 130  86  42  44  35  32  28  27  24  24  23  24  21  18  18  19  20  26  67  75  74  70  72  71  70  66  64  59  55  52  45  39  31  30  29  30  32  34  35  38  34  34  34  34  32  35  42  57  66  70  70  78  78  82  85  94 100 108 117 122 130 186 189 100  54  46  40  50  62  65  68  86 140 179 209 216 213 213 213 213 215 214 213 213 211 213
 104  82  61  49  41  40  38  34  30  27  26  23  22  23  20  20  20  21  17  17  17  17  17  23  65  76  74  69  71  71  70  70  67  63  58  55  53  50  42  41  40  38  36  35  35  36  37  38  41  46  47  48  49  60  70  68  71  78  86  91  96 100 103 111 120 128 131 177 193 142  53  44  39  44  53  55  56  58  59  65  72  97 136 168 199 217 213 211 211 210 211 212
  36  36  35  31  29  27  26  25  24  22  20  20  19  18  17  17  18  19  18  16  17  16  16  21  63  75  72  71  74  70  64  70  68  67  65  61  56  56  57  53  50  49  46  48  50  50  50  48  50  55  60  61  60  64  69  73  78  84  91  94  97  99 104 114 119 126 129 158 198 161  53  45  38  40  51  51  49  50  50  52  59  58  60  62  65  92 123 152 176 202 209 213
  29  27  28  25  22  22  22  21  20  19  18  19  18  16  16  16  17  18  16  16  16  16  16  19  59  73  72  70  72  75  70  75  72  69  68  64  60  60  61  59  57  55  50  52  54  52  53  52  53  57  62  68  66  71  77  79  85  91  94  96  96 100 109 116 121 126 130 145 181 164  54  42  36  39  50  49  48  48  45  48  50  50  51  51  53  57  57  61  63  60  72  81
  25  24  23  22  20  20  19  19  18  18  17  18  18  17  16  16  18  18  16  14  15  16  16  19  53  74  70  69  72  74  74  76  74  72  70  68  61  62  58  55  54  56  58  59  56  56  56  54  58  59  64  68  74  79  84  85  91  91  91  95  99 103 111 118 122 125 131 143 172 166  55  40  34  37  49  50  49  45  42  43  46  48  45  47  50  49  50  51  49  52  53  53
  22  21  21  19  18  18  18  17  18  18  17  16  16  16  16  16  16  18  15  14  16  16  15  18  46  74  67  69  73  75  79  79  79  76  73  70  68  65  64  60  58  59  57  60  61  60  61  60  63  64  70  77  78  85  86  88  90  91  94  97 100 105 111 118 123 124 129 142 165 161  53  38  34  36  46  47  46  46  41  44  44  46  44  43  48  46  47  46  49  48  48  48
  19  18  19  17  17  17  18  16  16  16  16  15  16  18  15  16  17  16  16  14  15  15  15  16  36  72  69  69  71  75  78  79  79  79  76  71  69  66  65  65  60  61  61  62  65  62  64  66  69  71  73  80  81  86  86  87  88  92  94  96  97 106 113 117 122 123 129 142 173 152  46  37  32  36  45  47  44  44  42  47  43  42  40  41  43  42  43  43  45  45  45  44
  18  17  18  17  16  15  16  15  15  16  15  14  15  16  15  16  16  16  16  14  15  16  15  15  34  74  69  68  71  73  77  79  78  77  77  73  71  70  69  65  65  64  63  62  64  65  66  71  71  72  74  77  77  81  84  89  89  91  94  98  98 106 112 116 120 121 126 143 178 140  43  35  32  33  42  44  44  42  40  39  42  42  42  40  41  42  42  41  42  42  41  39
  16  16  16  16  12  14  16  15  16  16  15  14  14  14  15  15  16  16  15  13  13  14  15  16  25  68  69  70  71  74  77  76  76  78  79  78  75  69  69  69  69  67  66  66  65  64  64  66  70  72  72  76  78  78  85  88  89  92  94  96 100 107 112 115 115 120 126 140 178 123  37  35  32  36  41  43  41  40  39  41  41  42  41  39  39  40  41  41  41  42  38  37
  16  16  17  14  14  16  16  15  15  14  14  13  15  16  15  14  15  15  14  13  13  16  16  14  16  60  70  71  72  72  74  75  75  76  76  74  76  75  73  71  68  65  69  70  70  70  68  67  68  69  73  78  80  81  84  87  87  90  94  97 102 107 110 112 115 119 131 142 178  88  35  32  29  36  42  40  39  38  39  40  41  40  41  39  38  39  39  39  40  37  36  36
  16  15  16  13  14  15  15  14  14  13  12  12  14  14  14  14  16  14  15  13  12  14  13  14  16  46  64  70  72  72  73  76  75  76  75  76  77  76  75  73  68  67  72  74  73  72  73  75  73  72  75  77  79  84  85  86  88  90  93 100 103 106 104 109 113 122 130 136 160  50  34  30  29  36  38  40  36  38  38  40  40  39  38  38  36  39  38  36  38  37  35  35
