P2
# Generated by OpenCV 3.4.0
92 112
255
 131 131 133 132 133 133 132 133 133 132 135 135 134 134 136 135 136 135 134 134 134 134 135 136 135 135 134 134 135 134 134 134 133 135 135 136 134 133 133 135 134 136 133 134 131 130 128 114 100 117 120 106 106 106 113 115 114 113 103 105 109 115 113 109 110 105  99 100  98  94  85 103 109 110 109 110 109 107  99  47  30  29  37  33  37  53  95 102 104 106 109 111
 134 133 133 131 132 134 134 133 135 133 134 134 136 134 135 136 135 135 135 135 134 135 136 135 136 138 134 135 135 134 136 134 134 136 138 143 135 137 134 134 134 135 136 134 131 128 122 101 114 131 140 128 112 108 115 117 117 114 111 112 113 115 115 114 112 107 102 101 101  97  88  94 108 111 111 112 111 110 103  39  28  27  30  29  31  31 100 105 109 109 112 114
 131 134 136 132 134 137 133 135 134 135 137 136 138 136 134 134 136 134 137 137 136 136 136 134 137 136 135 136 136 134 135 135 134 134 135 138 144 137 134 133 133 132 132 126 125 121 110 111 124 132 136 149 153 132 121 120 118 111  98  87 110 108 107 112 113 109 100 103 102  97  91  86 104 110 112 114 113 111 107  51  30  25  26  28  29  29  96 108 109 111 113 116
 135 135 136 133 136 135 134 135 135 136 136 136 136 137 136 134 136 136 135 135 139 137 138 135 136 136 135 134 136 135 137 138 136 136 134 135 136 133 131 129 127 125 126 123 125 124 133 141 139 138 143 136 132 135 128 120 117 109  79  67  97 106 111 115 116 114 112 101  91  99  93  81 102 113 115 116 115 113 112  60  32  27  25  24  27  30  86 110 113 115 115 118
 136 138 136 135 136 136 137 136 135 136 136 138 138 137 137 137 137 136 136 136 136 138 136 137 136 135 136 134 135 137 135 135 135 135 132 129 119 110 104 100 100 101  95  95 102 107 121 136 145 145 144 144 136 121 120 117 110 113  84  58  73 107 115 117 117 116 113 106  90  97  94  78 101 113 116 118 118 118 115  74  40  27  25  25  28  37  76 112 115 116 118 119
 133 136 135 135 136 136 137 136 136 136 139 138 138 139 136 135 135 136 139 137 136 139 136 137 136 134 138 135 136 135 136 132 127 123 117 104 100  92  84  84  84  86  89  89 103 107 102 125 133 140 145 130 119 111 104 102  96 107  90  89  86  78 109 116 118 117 115 110 105  99  95  80 101 113 117 120 122 122 118  84  31  29  31  34  31  29  63 114 118 119 121 121
 136 135 136 137 137 135 139 135 136 139 136 137 137 137 137 136 139 137 138 139 137 137 136 137 139 135 134 137 136 137 136 131 122 107  99  96  83  80  83  85  91 100 100 106 104 106 112 119 122 114  98 102 104  96  93  94  88  80  90 114 111  94  80 111 116 115 105 112 110 101  93  76 103 115 119 123 121 124 122 101  32  30  31  30  31  29  49 118 120 123 124 125
 137 136 135 135 136 137 137 136 136 138 137 138 137 135 139 139 136 138 136 138 138 136 139 139 139 138 137 139 137 135 127 121 108 101 102 103  82  76  82  91 100 104  90  96 103 110 112 101  98  98  98  90  85  84  81  87  86  74  76  99 113 112 103  88 111 111  98 110 112 103  81  86 108 118 121 123 124 125 125 113  33  26  27  31  28  29  42 120 123 124 125 124
 135 135 137 134 139 137 138 137 138 138 138 138 137 136 136 137 138 137 136 137 138 136 139 140 140 136 134 133 133 130 128 128 122 113 100  93  90  84  71  80  85  96  95  91  86 100 101  96  89  80  76  75  63  54  60  63  75  72  72  69  89 118 115  98 101 116 110 112 113 102  71  97 115 122 124 125 125 127 128 124  56  33  29  40  29  33  50 118 125 127 126 127
 136 136 137 140 138 138 139 139 138 137 138 139 138 138 139 137 137 137 139 136 139 137 138 139 139 134 132 133 127 121 120 122 115 101  88  82  76  66  78  75  76  70  81  88  82  86  93  92  79  68  62  55  53  48  47  47  53  65  62  68  64  92 107 105 108 116 117 116 107  70  86 108 120 124 125 128 129 129 127 126 106  93  96  96  99 102 109 125 129 127 129 128
 137 140 137 141 141 138 140 138 140 139 140 140 141 139 137 137 138 138 139 138 140 138 139 138 135 137 133 125 112 120 119 114  99  94  86  75  80  62  58  73  76  75  59  59  72  79  85  85  79  63  54  46  45  44  48  52  53  58  54  61  64  67  87 100 112 117 117 103  64  81 104 118 125 127 128 128 129 129 128 129 129 127 126 127 127 128 129 127 129 130 129 130
 137 136 136 140 138 138 139 135 138 138 139 137 136 137 137 138 137 137 138 138 136 138 137 137 135 130 122 113 110 104 102  94  84  90  85  82  80  75  61  58  67  75  86  79  72  68  70  79  71  61  51  42  37  40  42  51  46  52  48  53  60  60  73  82 102 113  90  61  79 105 118 122 128 129 130 131 130 131 131 134 130 131 130 130 130 130 128 130 130 129 130 131
 137 136 138 140 138 138 141 139 138 139 139 136 139 137 139 139 140 139 139 138 139 136 134 132 127 120  92  86  75  66  66  76  85  98 104 102  97  87  74  73  72  81  83  88  92  88  83  85  80  74  72  67  46  32  33  39  38  41  40  45  53  56  60  74  79  67  65  91 110 120 126 126 129 130 131 133 131 131 134 132 131 130 130 131 131 131 131 130 132 131 132 131
 138 138 140 139 139 138 139 139 136 139 137 139 137 138 137 139 141 140 141 139 138 134 128 122 109  87  71  61  54  56  56  62  70  72  76  84  91  91  95  98  91  90 106 106 105 101 107 112 104 103  87  74  64  59  50  43  41  36  37  40  46  52  56  61  64  70  87 111 122 128 130 132 132 132 132 132 133 131 133 134 131 132 131 132 132 132 133 132 132 133 131 132
 139 137 140 139 138 137 139 139 135 139 138 139 138 139 139 138 138 139 137 136 133 125 108  98  68  63  60  56  56  60  64  65  64  65  62  66  70  67  68  70  68  69  68  76  80  87  84  85  87  79  74  63  48  38  37  39  40  40  37  38  41  43  48  52  55  62  76 103 121 129 131 133 132 133 132 132 131 132 134 132 131 132 132 132 133 132 132 133 131 132 133 133
 140 138 139 140 139 139 139 139 138 139 141 139 139 139 138 140 139 136 134 131 116  83  67  62  58  51  53  54  51  57  61  75  78  71  71  58  59  52  53  50  52  47  49  50  49  48  52  59  58  58  58  59  50  45  42  40  33  31  32  34  34  40  43  48  51  54  63  69 101 119 128 130 133 132 132 132 131 131 133 132 130 122 123 130 130 130 134 130 130 129 130 130
 139 139 138 139 139 138 139 139 138 139 141 139 138 138 136 137 138 134 129 118  85  59  49  45  46  49  51  58  64  64  65  68  75  85  79  70  53  51  50  49  49  52  54  52  50  47  41  38  44  48  52  42  39  38  39  40  37  34  34  32  31  35  40  43  45  50  54  64  71  91 104 114 119 117 115 113 112 108 105 104 102  98  98  95  97  98  96  93  92  91  90  86
 136 134 133 134 136 135 135 135 134 131 134 133 131 132 132 130 128 125 109  81  54  47  46  43  41  43  47  49  57  72  80  89  91  93 106 112 109  99  96  82  72  70  66  65  54  53  49  46  60  58  59  49  41  39  39  38  35  37  35  33  31  32  34  39  40  43  50  51  55  60  82  81  86  85  91  93  94  98  97  96  96  98  99 100 102 104 107 107 109 110 109 110
  90  88  86  86  87  88  85  87  86  84  87  86  87  84  83  89  87  84  74  59  48  42  43  42  44  43  45  47  52  60  74  92 107 111 110 109 115 109 104 103  91  82  79  72  67  62  58  61  56  45  46  65  54  53  55  62  48  47  46  36  33  29  30  32  37  38  37  38  46  49  56  68  80  93 115 122 127 126 130 128 130 131 130 131 132 131 133 132 130 132 132 132
 116 117 118 116 121 119 118 118 120 120 119 117 117 120 120 121 118 107  64  48  39  38  39  38  38  38  40  43  47  52  61  79  90 107 110 116 124 120 114 112 106 100  96  80  74  70  59  53  52  47  40  33  39  35  33  34  37  37  38  32  35  31  30  30  33  34  33  33  37  47  52  54  61  74  91 119 134 136 136 136 137 137 136 135 137 136 136 136 136 137 136 134
 137 135 135 137 137 137 138 136 137 136 138 136 136 136 137 138 135  97  56  42  34  33  31  33  35  34  36  41  44  46  52  57  60  66  81  89  99 120 126 120 116 113 113  99  90  73  68  57  45  38  37  34  36  37  39  42  39  36  43  46  41  35  34  43  42  35  37  39  36  35  41  48  50  55  69  90 134 138 137 137 139 139 139 137 137 137 136 136 136 137 137 136
 140 137 137 140 138 140 140 141 139 140 138 140 140 139 138 140 131  67  48  36  34  34  31  30  33  33  35  39  42  38  43  48  52  58  63  71  74  73  77  75  80  84  86  85  76  58  52  42  35  38  39  44  46  48  49  47  47  54  64  60  51  52  50  59  49  43  41  38  33  31  35  38  40  44  50  69 105 136 138 138 138 138 138 138 137 137 138 138 136 137 138 136
 139 138 139 138 138 140 141 140 139 141 141 140 139 142 140 135 114  54  38  36  32  36  36  34  35  30  28  27  29  36  40  43  46  48  47  49  48  48  49  51  47  49  50  56  57  56  50  42  45  51  50  55  59  61  63  66  66  66  72  74  69  69  70  71  65  61  52  43  35  29  31  37  36  38  41  52  69 122 138 139 138 138 139 139 137 137 138 137 138 139 137 137
 142 139 140 139 140 141 141 140 141 142 140 142 140 140 140 136  97  46  39  35  36  37  35  33  27  22  22  22  24  28  33  36  40  39  41  44  45  46  46  44  45  50  50  53  55  52  49  57  58  62  67  70  71  75  71  69  68  64  70  77  78  80  73  69  72  77  65  50  36  33  36  31  28  31  37  40  55  94 134 138 139 140 139 139 139 138 140 138 138 138 138 137
 139 141 141 140 140 139 139 142 143 141 141 140 139 139 139 134  75  49  40  35  34  34  32  25  22  20  25  27  30  33  36  41  43  45  46  48  50  52  54  54  53  52  52  53  54  52  55  62  65  67  76  80  82  81  80  76  74  73  80  85  88  90  84  84  88  86  74  64  53  48  42  32  26  24  29  45  56  69 133 140 139 140 140 140 140 138 140 140 140 138 139 138
 139 141 141 142 141 140 142 142 142 142 141 141 139 138 140 122  65  43  40  35  32  31  28  21  19  22  29  33  36  40  43  47  48  50  53  54  56  56  60  61  61  61  60  62  64  64  66  70  69  76  82  83  84  84  84  82  82  86  89  94  97 103 100 101 102  97  86  71  60  54  49  41  30  26  31  53  76  68 117 138 140 141 140 141 139 140 140 141 139 138 139 139
 142 140 142 139 141 142 141 141 143 142 140 140 142 140 138 117  54  40  32  31  30  28  24  21  22  29  35  39  42  47  51  53  54  55  59  59  61  63  64  66  66  67  67  70  68  70  73  74  76  79  85  87  87  88  87  88  89  96  98 104 109 114 113 111 111 104  99  82  66  61  46  38  38  37  38  71  77  62  84 137 140 140 140 141 141 142 138 140 139 139 140 140
 141 140 141 140 141 142 142 141 141 141 141 143 142 141 137 118  48  35  29  28  26  27  23  21  29  35  42  47  51  55  59  61  63  64  66  66  68  65  68  70  72  72  71  73  71  74  76  81  81  84  86  90  92  91  92  93  95  99 103 111 116 121 120 121 121 112 109 103  83  65  44  35  48  42  61  71  55  55  68 133 140 140 142 142 142 141 140 140 141 141 140 140
 141 141 141 142 142 140 140 142 142 142 142 143 142 142 136 120  53  36  30  29  26  26  20  23  38  44  51  57  60  65  66  67  69  69  68  72  71  71  73  74  75  78  78  78  76  79  81  80  83  87  89  92  92  94  95  97 101 104 110 116 120 125 123 122 123 118 117 112  96  71  45  38  38  47  61  47  50  68  80 120 141 143 141 143 143 142 141 141 141 140 139 140
 139 141 140 142 142 143 142 142 143 143 143 143 142 142 136 128  62  49  36  29  29  24  22  32  46  52  58  64  68  72  76  78  78  77  78  77  77  76  78  77  78  79  82  83  82  85  84  84  85  87  88  92  92  94  97 100 104 106 111 118 127 126 125 125 126 124 123 117 106  79  54  43  43  43  35  34  45  87  84 118 139 141 144 144 144 142 142 143 142 141 141 141
 142 142 140 141 141 142 143 144 143 143 143 144 143 143 140 133 100  69  41  31  26  25  26  43  52  59  67  69  75  78  83  84  81  82  83  82  82  82  82  82  84  84  84  84  85  88  86  86  86  88  90  93  92  95  97 101 104 108 113 120 124 126 125 127 127 131 133 124 113  89  64  47  39  42  36  33  48  78  96 111 139 143 143 143 144 142 142 143 143 143 143 143
 142 142 142 142 143 142 143 143 143 144 142 144 143 144 140 136 122 106  45  31  26  25  31  54  62  67  73  76  80  81  86  88  86  87  86  84  85  82  86  85  85  86  84  86  86  87  89  88  88  92  95  94  96  98 100 103 106 111 118 122 124 127 128 130 131 134 140 133 116  96  70  49  40  36  35  34  46  62  88 102 132 142 144 145 144 144 144 144 143 144 144 142
 142 142 143 144 141 144 144 143 144 142 144 143 144 142 143 139 136 126  54  32  29  29  38  63  70  74  78  82  82  85  89  89  88  88  87  86  87  86  88  88  88  89  88  86  86  90  89  91  91  95  98 100 101 102 102 105 109 117 121 128 127 129 130 130 133 138 142 138 120  96  75  53  43  36  36  38  40  58  80 106 131 142 145 146 146 144 145 145 145 145 144 145
 141 143 143 143 142 144 144 143 145 144 142 144 144 144 144 142 141 130  78  34  31  33  47  71  77  80  82  85  86  87  88  90  89  88  88  87  87  87  90  88  87  87  86  86  89  91  90  95  97  99 100 102 104 105 107 107 114 122 124 126 130 131 133 136 137 140 140 136 118  94  74  54  45  37  35  35  43  53  78  99 127 142 144 144 146 146 145 145 145 146 144 146
 143 143 143 143 143 144 145 143 144 144 144 145 144 145 145 144 144 140 100  36  36  36  54  79  83  84  87  86  88  92  89  88  89  88  87  88  88  90  88  88  89  90  91  89  89  94  97 101 102 101 103 107 108 110 112 116 122 131 135 135 136 136 138 142 143 142 137 130 114  94  72  57  42  36  35  35  39  49  69  79 105 137 145 147 146 147 146 146 146 144 144 144
 143 144 144 144 145 143 142 144 144 145 145 144 144 144 145 146 146 143 122  45  36  38  59  85  88  89  88  89  93  93  91  89  90  88  88  91  89  90  90  91  93  92  93  94  93  95  98 101 104 106 108 110 114 117 120 122 132 140 142 147 148 144 145 145 146 141 135 123 112  91  69  56  45  34  34  34  35  48  60  54  85 135 145 146 146 147 147 145 146 148 144 145
 144 144 144 143 143 144 146 145 145 145 144 144 144 144 145 146 146 145 137  64  38  38  63  86  90  88  94  95  95  97  91  91  93  89  91  94  95  94  94  91  95  92  91  94  97  98  98 103 109 111 115 118 118 121 125 134 140 144 148 151 151 149 149 151 149 143 133 122 115  93  69  58  48  40  35  34  32  42  54  56  68 125 145 147 147 148 147 147 147 146 145 146
 144 144 143 142 144 144 146 146 145 146 145 145 145 145 146 146 147 148 142  72  38  40  69  88  90  90  95  95  97  98  95  94  95  93  93  97  97  98  97  94  94  96  94  94  95  98 102 104 108 115 115 118 118 120 126 134 143 147 148 149 149 153 154 152 153 141 133 126 118  97  69  53  46  40  35  33  31  39  52  50  60 117 143 146 148 147 147 148 148 147 146 146
 144 145 144 144 143 144 144 144 145 144 144 145 145 147 147 146 145 145 143  80  39  39  72  89  91  91  94  95  97  98  98 100  96  94  95  96  97  95  95  98  96  94  95  95  94  97 102 103 106 109 113 115 113 115 122 128 136 141 145 147 149 154 152 153 150 143 137 132 123 103  75  55  41  38  36  33  30  38  49  46  61 110 143 147 149 148 147 148 146 149 147 148
 145 145 145 144 144 147 147 146 146 146 146 145 147 146 146 147 147 146 144  81  40  40  74  88  86  84  85  89  94  97  96 100  98  95  95  94  96  94  96  95  97  94  95  96  98  98 101  99 100 101 102 104 106 106 114 116 123 126 134 134 139 147 148 152 154 150 145 135 128 110  87  61  45  39  34  33  30  38  47  43  58 104 144 148 150 149 149 150 150 148 148 147
 143 142 145 144 146 146 146 146 146 147 146 146 146 147 147 148 149 148 144  83  42  39  77  82  73  76  76  83  86  91  90  94  94  94  94  94  94  95  97  96  94  95  95  90  94  96  94  93  90  92  90  93  94  91  94  96 105 109 114 122 119 123 127 130 150 158 148 144 132 115  96  63  42  36  33  30  32  40  44  41  52  97 144 149 151 148 149 151 151 149 148 150
 143 142 145 144 144 143 147 147 144 146 146 148 146 146 146 146 148 147 145  87  41  40  75  61  56  58  64  62  66  71  77  78  84  88  90  90  94  92  96  93  95  94  94  92  93  93  91  89  83  78  79  80  74  69  72  72  76  81  84  87  91  90 100 104 110 138 155 142 131 118 104  70  42  34  33  32  34  40  39  39  50 104 145 150 150 150 151 151 151 150 150 150
 145 145 145 146 145 146 146 146 146 147 146 147 146 147 147 147 149 147 146  94  42  40  52  52  48  49  56  51  47  48  57  61  66  73  77  88  88  87  90  94  92  91  93  94  94  92  88  84  76  67  65  64  57  58  57  52  50  52  59  60  71  77  86  91  97 114 128 135 130 120 109  82  45  33  31  32  34  38  38  37  49 110 147 151 152 152 151 151 153 152 152 152
 146 144 144 146 146 147 146 146 149 147 148 148 148 150 149 147 149 149 146 125  42  40  44  46  51  52  50  51  48  44  44  52  55  60  70  80  80  84  87  89  90  88  90  90  87  84  80  74  68  62  58  58  55  49  47  46  44  42  44  50  57  61  66  77  86 108 119 128 121 120 115  93  50  35  33  33  33  39  37  38  53 126 149 153 153 154 154 154 153 152 152 151
 146 146 147 149 148 148 146 148 148 148 149 149 149 147 148 149 151 150 146 137  42  44  49  49  55  61  54  50  49  51  51  50  52  53  65  70  74  81  84  87  87  85  86  83  82  76  74  69  65  60  57  54  52  49  49  46  43  47  48  48  51  50  54  67  84 107 118 117 122 121 119 109  61  35  30  32  34  38  37  40  64 136 155 154 154 154 155 155 155 154 154 154
 147 146 148 148 149 147 148 149 150 151 150 150 151 149 150 150 152 151 149 140  44  47  50  58  61  68  70  64  64  66  62  63  58  51  59  64  68  72  79  82  85  84  86  82  81  74  72  69  65  59  59  59  61  58  54  56  60  62  61  61  65  57  64  74  90 102 115 113 123 123 120 114  73  39  32  32  34  38  36  43  88 142 157 157 158 158 156 155 156 155 157 156
 147 146 149 148 149 148 149 151 151 151 151 150 152 151 153 151 152 152 152 143  52  52  64  68  74  74  71  68  69  68  65  64  64  65  64  64  61  66  74  81  83  84  84  82  81  75  71  68  67  67  65  66  64  64  64  65  65  66  66  68  69  69  69  82  91  89  95 107 117 124 122 118  83  43  33  34  35  37  36  44 109 151 159 161 161 161 160 160 162 160 160 160
 149 148 150 151 149 151 150 151 150 153 152 152 153 153 153 152 152 153 152 150  62  53  73  76  76  72  68  58  56  52  50  49  50  57  63  66  66  71  77  79  84  88  87  85  82  76  71  69  70  69  63  63  57  56  56  58  57  59  60  64  68  70  71  80  86  88  95 101 112 125 124 120  95  48  36  36  36  35  35  48 132 158 162 164 164 163 163 164 163 163 163 163
 149 149 150 150 151 152 154 152 151 153 152 154 154 154 153 154 154 153 155 152  58  54  78  80  72  62  53  51  53  52  53  47  44  45  47  59  68  71  76  78  86  89  89  88  83  80  73  68  67  60  55  50  43  43  45  48  49  54  54  55  56  62  68  73  83  91  93 101 109 123 124 120 102  52  39  38  38  35  36  49 149 162 165 166 165 165 167 167 164 164 165 165
 150 150 152 151 151 153 154 153 152 155 154 155 156 154 154 156 156 156 155 148  60  58  87  80  67  52  59  55  39  32  32  33  38  45  47  49  59  65  76  81  88  93  96  94  91  83  72  69  62  52  46  44  43  43  39  35  34  37  44  55  66  65  54  60  73  85  93 101 111 123 125 120 108  61  41  40  37  35  36  59 158 167 169 168 169 169 169 169 169 168 167 169
 152 151 152 152 154 154 153 154 154 154 157 155 155 155 155 156 159 160 159 150  53  65  90  78  65  54  40  32  43  32  27  27  34  45  49  51  55  65  70  82  91  99 102  99  97  88  74  69  64  52  45  46  42  42  35  29  27  31  35  40  35  54  65  59  61  74  88  99 113 128 126 123 110  66  38  40  40  34  38  78 160 169 171 171 172 170 171 171 170 171 171 171
 151 153 152 153 155 156 156 155 155 156 158 157 157 158 158 158 159 160 160 147  47  72  92  75  58  38  37  51  63  41  33  29  37  54  57  49  53  66  70  86  97 100 106 107 105  91  73  70  69  57  47  40  42  54  38  34  30  35  48  68  47  34  41  52  60  69  84  97 115 127 130 128 113  68  37  38  40  37  40 122 168 174 173 175 173 173 175 172 174 174 173 174
 154 154 154 154 156 156 156 155 157 159 160 160 160 160 161 161 162 161 159 135  40  78  95  78  66  60  53  48  54  44  35  35  39  50  47  46  57  66  73  94 102 104 109 112 109  98  79  70  69  63  51  40  38  45  41  34  32  37  50  58  53  63  79  73  66  70  85 101 120 133 134 133 117  76  41  35  39  39  54 141 180 184 177 176 176 175 177 175 176 176 173 175
 154 154 153 155 156 157 157 159 159 160 160 161 161 162 162 163 162 163 162 114  40  93  96  85  84  78  70  59  53  53  51  50  52  51  52  60  63  69  84  99 107 109 112 119 118 108  90  77  70  64  58  52  48  49  49  53  50  52  49  60  74  88  98  98  92  90  99 115 131 141 140 135 123  83  46  39  42  41  69 107 130 169 177 177 178 178 179 178 176 178 178 178
 155 155 155 155 157 160 160 158 160 161 160 161 162 164 164 164 165 163 160  95  43 103 100  95  89  86  81  77  70  65  60  56  53  52  54  60  69  80  88 101 110 116 121 128 123 113 100  88  78  68  59  53  50  52  53  55  58  59  65  72  81  89  96 101 106 106 114 131 144 150 144 138 126  90  50  40  43  53  70  72  82 107 172 178 181 180 179 181 180 181 182 179
 156 155 157 157 160 160 160 161 161 162 162 164 164 165 165 165 166 165 155 100  58 106 102  98  96  92  86  81  74  69  64  61  60  60  65  77  85  86  89 106 117 124 135 137 124 117 110 100  93  83  74  69  63  58  57  55  57  62  66  70  77  87  95 101 110 114 122 137 149 154 148 143 133 100  50  39  39  59  80  72  74 105 177 183 184 182 184 184 184 184 184 183
 159 159 158 158 161 161 161 163 164 163 164 164 164 165 167 166 168 168 158 120  84 106 103 103 102  99  94  89  84  79  73  72  74  80  84  91  89  89  90 107 118 132 141 139 125 120 118 112 106  97  92  86  81  78  70  70  67  72  73  80  83  90 101 109 116 123 135 144 149 154 153 145 138 111  54  42  39  68 118 100  80 121 181 186 187 187 188 186 186 185 184 185
 158 159 161 161 162 164 165 165 165 165 166 167 167 168 168 168 169 169 165 150  92 108 108 105 106 101  97  93  92  90  84  85  86  90  93  94  91  92  94 107 123 141 143 137 127 122 121 117 112 106 101  99  95  93  89  86  86  85  86  91  95 101 108 114 121 132 141 146 155 156 154 149 139 113  59  48  42  65 112 133  93 138 184 188 189 188 188 190 189 188 188 189
 161 162 162 163 163 165 165 166 167 166 168 168 169 171 172 172 172 170 167 163 113 108 110 109 108 102  99  96  97  96  95  94  92  94  95  93  92  90  97 114 135 154 144 134 128 121 120 120 118 111 104  98  99  97  95  94  93  96  97 100 103 108 112 118 126 139 148 149 155 156 155 150 138 116  64  51  48  67  92 119 106 145 186 189 191 190 190 191 190 189 189 189
 162 162 164 164 165 167 168 168 168 166 170 169 170 171 172 173 174 173 173 171 124 110 110 110 108 105 102 101  99 100  97  98  98  95  93  93  90  96 106 122 147 164 152 138 132 126 119 120 120 114 106 101 100  96 101 100  98  98 100 104 108 111 115 122 132 141 147 154 157 154 153 150 138 117  77  50  52  65  79 100 110 155 190 193 191 191 192 192 192 191 192 192
 162 162 162 165 166 167 169 169 170 169 169 172 171 172 173 174 174 174 174 173 127 109 109 109 105 104 107 104 103 103 101 102 101 100  96  91  92 105 117 130 155 171 161 149 144 135 122 115 121 116 108 103 101 100 103 103 102 104 104 106 109 113 118 126 136 141 143 149 152 154 152 146 135 114  72  54  56  62  70  88 104 173 192 194 195 194 194 194 192 192 192 193
 165 165 166 167 167 168 169 170 170 172 173 173 173 174 174 175 176 176 178 175 125 108 105 106 104 107 108 107 106 104 102 103 102  97  92  89 101 112 124 138 160 175 167 158 156 143 131 114 116 113 109 102  98 100 104 104 104 106 106 109 114 116 122 129 135 141 143 142 146 146 144 142 133 109  72  58  65  60  63  85 113 186 193 196 198 196 197 195 194 195 195 194
 165 167 167 167 169 169 170 170 172 173 173 174 174 174 176 178 177 178 180 177 128 104 103 103 105 106 107 107 107 105 103 101 102  98  88  93 106 114 122 133 150 171 175 164 160 153 145 129 112 106 102  99  97  99 103 105 105 106 108 112 116 120 127 135 138 140 140 139 140 141 140 136 130 108  67  57  80  61  67  96 138 190 195 199 199 199 198 198 198 196 196 196
 168 168 169 170 169 171 171 172 173 175 175 174 175 177 179 177 180 181 181 179 136 104 101 102 104 107 108 106 106 106 102  98  97  94  94 100 104 111 117 124 135 151 160 157 158 156 154 143 127 103  93  95  95  97  99 102 104 106 110 113 119 125 132 137 142 142 140 137 131 132 133 130 122 105  70  84  79  83  97 117 163 195 200 201 200 200 200 199 199 199 199 198
 169 169 170 172 172 172 174 174 174 175 176 177 177 177 179 179 182 182 183 182 149 104 102 102 104 105 106 105 106 101 100  98  93  90  92  92  98 103 103 106 109 122 138 132 137 139 138 142 141 122  93  88  90  93  96 100 104 107 111 115 122 126 135 140 144 143 136 131 125 125 128 125 119 106  95 100  87 129 149 124 183 200 200 202 201 200 201 202 201 202 200 200
 170 170 170 172 171 174 174 174 175 176 178 178 180 179 180 181 182 182 184 186 152 104 101 101 103 104 104 105 105 102 100  96  90  87  84  83  84  92  93  92  97 102 107 103  95  97 101 111 128 129 100  87  88  90  95  97 102 107 109 115 122 127 133 137 138 137 131 129 124 120 120 121 113 104 104 121 124 136 142 136 195 203 202 202 203 203 202 202 201 203 202 201
 171 170 172 172 174 174 174 176 176 178 178 180 183 183 182 183 183 185 187 186 160 105 101 102 101 103 104 103 103 102 100  95  90  83  76  72  71  79  82  80  82  86  87  81  74  73  77  84  95 108 100  86  87  90  92  96 101 108 108 114 119 124 130 133 134 131 126 124 119 117 118 116 115 112 112 122 128 125 146 172 200 205 205 204 204 203 203 204 204 204 202 203
 170 173 174 174 175 174 176 178 177 179 181 181 183 184 186 185 186 186 188 187 164 106  99 100 100 102 101  99  99  98  97  92  87  78  68  50  47  56  72  70  71  73  65  50  39  28  38  60  76  87  91  86  87  90  92  96  99 106 108 113 115 118 122 126 126 124 123 122 118 117 117 116 115 113 118 128 129 128 151 191 203 205 206 205 205 206 207 207 206 206 203 205
 171 174 175 174 174 176 177 179 179 181 182 184 183 186 186 186 188 188 190 188 175 106  95  98 100 101 101 101 101  99  95  90  87  78  65  56  50  50  68  68  69  68  63  61  54  42  44  53  67  77  83  90  90  89  90  94 100 103 104 108 108 113 118 120 121 120 118 117 117 118 117 117 113 107 112 139 152 156 164 200 205 205 207 208 207 207 207 207 206 206 206 207
 176 176 176 176 176 178 178 180 183 184 183 187 187 188 187 189 190 190 190 189 174 107  97  96  99 102  99 101 100  97  94  93  88  79  71  61  60  66  67  68  66  71  71  68  66  69  66  61  67  72  83  92  94  90  90  93  98  99 103 104 104 109 112 115 116 118 116 116 116 117 119 117 106 106 108 117 127 146 176 205 209 209 208 209 209 210 210 210 209 207 207 206
 175 177 177 178 178 180 181 183 184 186 184 188 188 188 190 189 189 191 190 191 175 106  99  95  96  97 100 101 100  96  95  94  88  81  76  67  63  63  66  67  67  69  69  69  69  74  74  73  76  80  89  93  94  92  90  92  98  99 101 103 104 106 107 111 113 116 117 114 115 116 121 119 112 105 156 142 139 165 202 209 209 210 209 210 210 210 210 209 210 211 208 207
 176 177 179 178 180 182 182 185 185 186 186 187 188 189 191 190 191 193 193 194 187 111  98  95  95  94  98 101  99  96  93  90  87  81  80  73  66  62  64  69  68  67  68  69  70  71  79  77  78  85  90  92  94  95  92  90  93 101 102 100 102 104 106 110 111 114 119 116 117 119 117 114 110 135 200 206 205 207 210 211 211 212 211 211 210 210 210 210 213 210 208 209
 178 178 181 182 184 185 186 186 187 188 188 188 189 191 191 192 193 193 194 194 184 103  97  96  95  94  96  98  95  92  90  88  83  80  76  70  70  63  65  64  63  64  59  66  69  70  74  74  78  86  89  93  90  90  93  95  93  98 103 104 102 103 104 107 111 114 118 116 116 122 119 114 114 160 205 211 211 212 211 212 212 212 212 213 212 212 212 212 213 212 210 210
 179 182 182 183 185 185 187 186 189 188 190 189 191 192 194 193 195 196 196 195 193 114  93  90  90  93  94  96  93  89  87  84  80  77  71  65  71  70  70  64  58  62  54  66  71  74  79  77  82  88  89  88  88  86  85  90  96  94 101 104 105 103 104 106 110 112 113 113 115 119 120 119 110 186 208 213 213 212 213 212 213 214 213 214 214 213 214 213 212 211 212 212
 179 183 184 183 185 186 188 189 189 190 190 193 192 191 193 193 197 197 198 198 193 117  91  87  91  92  95  94  89  83  81  81  75  71  67  70  73  75  69  58  51  51  53  63  73  81  85  87  90  91  88  88  89  89  86  88  92  93  96 106 105 105 105 105 106 108 114 112 115 124 118 115 120 200 212 216 214 213 214 214 213 213 215 214 214 213 214 214 215 214 213 213
 183 185 184 185 186 188 190 190 189 190 191 193 194 195 197 196 198 199 199 198 193 131  90  93  93  94  95  92  83  78  78  80  74  71  72  70  73  78  71  65  55  55  60  71  78  84  86  89  93  96  91  89  90  86  84  87  91  95  92 104 106 104 101 100 101 105 111 111 117 122 115 109 136 205 214 215 215 216 216 217 215 215 217 214 214 214 216 214 215 215 214 213
 183 184 184 188 187 187 190 190 190 192 192 192 196 195 197 197 200 199 201 201 196 133  91  90  90  95  92  89  84  79  77  78  75  77  80  73  70  70  68  67  70  70  70  68  70  72  75  84  91  98  95  95  87  80  76  80  86  96  91 101 106 104 101  99 102 104 108 112 115 123 115 105 148 208 215 218 218 216 215 216 215 215 215 215 215 215 215 215 215 214 214 212
 184 185 187 188 188 189 190 191 193 193 193 195 195 196 196 198 200 200 202 202 199 159  89  87  91  95  94  87  83  74  72  72  75  73  69  63  62  61  57  59  65  65  61  59  60  59  63  63  66  73  77  80  78  70  68  70  76  89  92 100 107 104 103  99  99 103 103 111 113 114 113 107 182 212 215 218 218 218 215 218 217 216 218 216 216 215 216 216 214 214 213 213
 185 185 187 187 188 189 189 192 193 194 195 196 196 197 198 202 199 203 202 203 202 183  99  89  90  93  94  88  80  67  62  57  56  56  54  56  54  52  49  49  52  57  51  53  53  49  50  54  55  56  57  58  53  45  52  59  69  83  92  98 106 104 101  98  98 102 102 109 109 108 110 106 203 215 217 218 216 218 216 218 218 219 218 216 216 214 217 216 216 216 214 215
 185 185 188 189 189 190 191 192 193 195 197 197 198 198 200 202 201 202 204 203 203 192 109  91  88  89  92  92  78  66  59  52  42  46  48  49  45  40  33  31  34  36  37  37  36  34  36  42  46  51  56  51  46  53  62  67  69  83  92  98 107 103  99  97  98 101  99 105 105 108 103 130 206 213 216 216 219 220 218 218 217 218 217 215 216 215 217 216 216 216 216 216
 187 187 188 191 192 191 191 193 194 195 196 196 198 200 198 202 203 201 203 204 204 200 141  87  87  89  92  89  80  71  67  69  59  55  58  55  50  48  44  43  40  43  42  41  43  47  56  59  70  72  70  69  71  77  79  77  80  88  93  95 100  99  98  97  98  97 104 104 104  99  94 152 210 216 218 219 218 219 219 219 218 218 217 216 217 217 216 215 217 216 215 215
 186 189 188 191 192 192 193 193 195 196 196 197 198 200 200 203 203 204 205 204 204 202 157  88  84  85  89  90  81  76  78  78  75  68  63  62  64  57  57  53  50  55  58  58  58  72  72  77  80  80  82  86  88  88  89  85  84  90  91  96  94  93  94  94  92  94 104 101 106  94  89 188 213 218 219 217 219 218 217 218 216 218 219 218 217 216 217 218 217 216 216 215
 187 188 188 191 194 193 193 193 196 197 197 200 199 199 202 203 202 204 206 205 206 205 187  96  84  82  85  87  84  81  82  82  82  78  69  66  65  65  66  61  65  64  66  68  69  72  72  72  76  85  89  94  98  92  88  87  86  87  91  93  95  92  92  91  90  95 106 101 101  84  85 200 216 218 218 218 219 218 218 219 218 219 220 220 217 216 218 218 216 216 215 215
 188 188 190 190 193 195 195 195 197 198 200 198 200 201 202 203 204 206 205 206 206 206 201 140  77  80  85  82  80  78  79  81  84  82  80  72  68  65  64  62  62  65  65  64  65  65  70  76  83  90  95  97  97  94  92  84  80  83  86  91  91  86  87  89  89  93 101  96  90  78 109 208 216 218 219 218 218 218 219 218 219 219 218 217 217 217 217 216 216 216 215 214
 189 192 192 191 193 195 195 195 199 201 200 200 200 201 204 205 205 206 206 205 206 206 204 178  82  80  79  80  80  80  75  81  81  83  82  79  72  70  69  65  63  65  65  66  66  71  74  80  87  92  94  91  91  93  86  80  75  82  84  91  88  79  79  86  83  87  93  89  82  81 128 208 216 219 218 218 217 218 218 220 219 219 217 216 220 219 218 216 217 216 216 215
 190 192 193 193 193 195 196 197 199 200 200 202 201 202 203 205 206 206 205 207 208 207 208 202 133  69  75  80  78  81  76  77  80  81  79  79  76  70  71  69  66  65  64  69  71  72  76  79  84  88  89  88  86  89  87  86  82  85  88  93  83  83  82  82  79  86  85  78  74  91 153 212 217 219 219 219 219 220 219 219 219 218 219 219 217 219 219 218 216 218 215 216
 191 193 193 193 194 195 198 198 198 199 201 202 202 202 204 206 205 205 206 206 207 208 209 207 202 117  77  79  75  77  79  77  81  83  82  77  74  67  67  63  61  56  56  62  65  66  73  76  83  85  88  87  85  86  85  86  83  85  91  90  83  85  81  76  74  82  78  73  73  95 170 214 217 219 220 219 218 219 218 218 219 219 219 219 219 218 216 214 215 217 215 215
 191 193 193 194 194 197 198 198 199 200 201 202 202 205 206 206 206 207 207 209 209 209 209 210 206 163  73  73  73  72  79  77  82  85  84  82  80  74  71  66  58  53  55  58  65  69  74  79  82  84  88  86  87  88  86  86  87  83  87  84  87  81  81  74  79  76  75  76  91 104 184 213 218 219 219 218 218 219 218 219 219 218 217 219 218 216 217 217 217 216 216 216
 191 193 194 194 197 198 199 199 200 200 202 202 204 202 206 206 206 207 207 208 209 209 210 210 211 206 115  72  71  76  80  76  81  82  82  82  83  81  74  69  61  57  54  59  65  71  77  85  86  87  88  88  89  90  86  85  87  90  86  86  80  78  81  76  78  73  72  81  94 108 189 216 218 220 219 220 218 220 220 219 219 219 219 217 216 218 215 216 216 217 215 214
 193 194 196 196 198 199 199 201 200 200 203 202 204 205 205 205 208 207 208 209 209 211 209 212 211 209 186  81  67  68  75  80  81  81  82  79  82  82  79  78  72  74  75  76  77  81  83  87  88  88  88  91  91  95  89  84  88  90  89  81  76  75  73  77  75  70  78  86  98 115 206 218 219 219 218 217 219 221 220 220 219 219 219 217 218 217 217 217 215 216 215 214
 192 194 196 199 198 199 201 201 200 201 202 205 204 205 207 206 207 208 209 209 209 212 211 212 213 211 208 145  66  60  70  74  73  75  82  80  81  82  77  77  75  77  82  85  84  85  87  92  90  89  87  91  87  92  91  88  85  86  76  72  72  74  73  71  66  70  82  88 101 129 210 217 219 219 219 219 220 219 219 219 219 217 218 217 217 217 217 216 216 215 215 216
 195 197 198 200 200 200 201 203 204 204 204 204 205 206 206 207 207 209 208 210 211 212 212 211 213 212 212 208  92  58  68  74  76  73  81  81  83  82  80  80  81  77  84  87  87  87  90  91  91  91  87  86  85  84  83  88  81  76  73  71  70  73  69  67  66  75  87  96 104 137 214 218 218 219 220 220 220 220 220 219 218 218 218 218 219 218 217 218 217 215 215 214
 196 197 199 200 201 201 202 203 203 203 204 204 205 206 208 208 209 209 210 210 211 211 212 212 212 212 211 210 195  56  62  67  72  73  76  81  84  83  79  72  79  76  80  84  84  88  89  88  89  87  82  78  81  82  82  81  78  75  72  68  71  72  61  62  68  78  91  99 106 157 211 217 218 220 218 218 220 219 219 218 218 218 219 218 217 217 218 216 216 216 215 214
 197 199 199 201 200 201 202 204 203 206 206 205 206 207 206 207 208 209 209 210 210 211 211 213 209 211 213 213 209 112  50  62  69  72  75  82  79  77  78  75  76  76  81  83  86  87  87  84  85  83  76  78  83  84  74  70  71  65  63  61  68  69  55  64  72  76  95 100 106 173 214 218 219 219 220 219 220 219 218 217 218 219 216 218 218 215 216 216 217 215 214 214
 197 197 198 199 201 201 201 203 205 205 204 205 205 207 207 207 207 210 210 211 212 211 211 212 211 212 212 213 211 159  49  55  64  73  76  81  70  71  70  74  72  74  73  78  79  78  75  76  76  75  72  78  80  75  69  67  60  56  56  66  63  60  56  66  71  83  95  99 107 179 214 218 219 220 220 220 219 219 219 219 217 219 218 218 217 216 218 216 215 214 215 214
 195 197 198 199 199 200 201 202 203 205 205 204 204 208 208 209 208 210 211 212 209 211 212 212 212 212 212 213 212 174  66  46  54  61  68  70  69  69  66  67  70  67  63  69  68  66  67  70  68  67  63  72  76  74  63  62  58  53  57  62  57  57  61  68  76  86  95 102 115 191 215 217 217 219 219 219 218 219 218 218 216 218 217 216 216 216 217 216 214 214 215 215
 197 197 198 199 201 199 202 203 203 202 206 205 206 207 208 208 209 210 211 211 210 211 213 212 212 212 212 214 210 180  77  52  44  53  55  58  61  64  56  59  69  66  63  60  62  65  64  66  68  63  65  69  71  69  56  55  56  56  59  59  54  59  65  74  83  89  92 100 114 201 215 217 217 216 219 218 218 217 218 218 218 219 217 217 219 217 216 216 215 215 214 214
 195 197 198 200 200 200 202 202 202 203 206 206 206 207 207 207 208 209 209 210 210 211 211 211 211 213 162  90 120 119  82  63  44  41  45  53  55  66  56  54  62  60  63  57  61  62  58  60  60  62  63  63  57  56  50  47  52  53  55  53  56  68  75  84  84  85  92 105 118 204 214 217 217 217 219 218 217 215 216 218 217 216 218 216 217 217 217 214 215 216 216 214
 197 198 198 198 199 200 201 205 203 204 205 204 207 207 207 206 208 207 206 208 210 211 214 216 181  96  55  77  92  89  80  72  63  43  38  43  48  58  55  53  54  53  56  52  53  53  54  53  54  55  53  58  50  46  46  43  46  53  53  55  62  72  78  84  83  86  94 106 118 153 216 217 214 217 218 217 217 217 215 217 218 217 217 217 216 217 216 216 215 214 214 214
 197 197 198 198 200 200 202 204 204 204 204 205 206 205 208 196 169 149 149 145 120  94  75  55  36  39  79  88  88  83  77  74  70  60  48  36  37  42  46  46  48  49  46  46  46  46  51  47  49  45  48  45  45  46  46  44  46  55  54  62  74  78  82  82  86  91 101 110 117 115  78 133 151 174 211 215 216 217 217 217 216 216 217 216 216 216 216 216 214 215 213 214
 196 197 198 198 200 200 202 203 204 203 204 204 169 128  81  56  45  46  44  38  34  34  32  28  29  34  80  85  83  82  78  77  74  67  64  54  39  35  33  37  43  42  39  41  41  42  44  43  41  39  39  39  39  39  38  44  52  59  68  73  77  83  78  81  89  97 106 109 118 162  87  62  60  52  85 195 215 214 214 215 216 214 216 217 216 215 214 215 213 215 214 213
 194 197 197 198 196 197 199 209 198 152 103  54  50  45  40  36  33  31  31  28  24  24  23  23  23  34  78  81  82  77  76  77  73  72  68  63  56  50  45  36  33  34  34  32  35  36  38  34  35  36  33  33  34  37  46  58  60  68  75  75  78  79  77  86  92 101 105 108 117 156 157  56  49  45  48  65 104 153 196 215 213 213 214 214 214 215 214 214 214 213 213 213
 195 196 187 174 154 127 100  70  47  45  41  37  32  31  28  28  26  25  25  23  19  20  20  19  22  38  76  82  82  77  75  75  70  70  73  70  62  55  52  51  48  45  41  42  40  38  36  33  35  34  35  37  47  56  57  64  66  71  73  76  81  80  83  91  99 105 108 111 115 151 166  92  47  43  37  50  58  63  66 101 147 181 209 215 212 213 214 214 213 213 213 211
  83  67  52  47  45  42  40  36  36  34  30  27  26  25  25  23  23  22  21  21  17  18  18  17  19  30  74  82  82  72  76  78  73  71  73  71  67  63  61  61  55  52  50  50  51  52  51  51  54  51  47  48  49  58  65  66  67  71  75  75  78  80  88  98 102 105 109 110 114 150 175 118  44  39  36  44  55  54  54  57  56  64  74 111 143 178 209 214 209 212 211 210
  41  39  39  38  35  32  29  29  29  28  26  25  24  22  22  21  19  19  20  20  16  17  17  17  20  31  76  83  81  72  77  79  80  78  78  74  70  67  64  60  60  57  53  50  55  56  56  53  54  56  59  58  54  59  65  62  64  71  74  81  87  90  93  99 100 108 110 113 114 139 186 133  48  41  35  42  50  50  49  48  49  52  54  55  59  63  69 102 135 164 192 200
  34  31  30  32  30  27  28  26  27  26  24  22  22  22  22  18  20  17  19  18  17  16  17  16  17  29  70  82  78  72  75  77  79  80  77  79  74  70  68  63  56  56  59  57  53  56  53  55  55  59  60  63  60  61  65  68  72  76  83  88  92  92  94  98 104 110 110 111 115 134 163 142  43  39  32  40  48  47  46  42  44  48  49  49  48  51  54  57  61  62  59  65
  30  28  29  26  27  25  26  26  25  23  21  19  19  18  17  17  19  19  20  18  16  17  16  16  16  22  64  78  76  70  73  78  81  81  80  80  78  73  69  69  66  63  63  58  59  58  57  57  59  60  61  63  66  69  74  76  77  81  88  88  90  94  98 102 106 108 110 111 114 130 154 134  40  35  33  38  44  47  47  40  42  44  46  44  46  47  47  49  49  51  51  53
  28  28  28  25  24  25  24  22  20  23  21  18  18  20  18  17  18  17  17  17  16  16  16  16  16  20  55  79  76  73  73  76  79  82  82  84  80  75  73  72  69  66  63  61  63  61  61  60  63  63  62  68  72  75  80  80  79  84  87  89  92  98 100 103 107 111 113 110 114 126 155 125  40  34  32  36  43  43  45  41  43  43  43  43  43  44  42  45  49  48  49  47
  25  25  25  24  21  22  20  19  19  20  19  17  17  16  18  16  16  16  18  18  16  14  16  16  16  18  41  77  83  71  72  74  79  79  82  83  83  76  74  75  73  68  65  65  67  63  60  65  64  65  66  70  74  77  81  80  80  83  86  91  93  97 100 103 107 110 112 111 116 129 153 114  40  33  30  35  41  42  42  41  45  42  42  41  41  41  41  41  45  45  46  42
  24  23  24  20  21  21  20  20  18  18  19  17  16  16  16  16  17  16  18  17  16  15  15  16  16  16  34  74  82  73  72  74  79  80  78  80  79  82  80  74  72  71  70  71  68  64  65  64  66  67  68  69  72  74  76  78  80  86  89  91  94  97  98 102 108 108 111 110 117 132 154  93  35  31  29  35  40  40  39  40  40  41  41  41  40  39  38  41  41  40  44  40
  25  20  21  19  19  18  20  19  19  18  18  16  14  15  15  15  16  14  16  17  15  13  14  16  15  15  23  71  75  73  74  74  76  78  79  80  79  81  79  77  73  70  67  72  73  71  68  68  67  68  69  72  70  74  76  82  84  86  86  90  92  95  99 103 108 111 109 109 115 132 152  77  33  29  29  34  39  38  38  39  39  40  42  37  38  38  37  40  40  39  39  40
  22  21  19  18  18  19  19  17  19  17  16  16  16  15  15  15  16  16  16  16  15  13  14  13  15  16  18  59  73  74  75  75  72  77  78  80  81  82  81  79  76  76  71  73  74  75  73  74  74  73  71  74  76  79  78  82  83  85  90  90  93  95  97 103 106 109 108 112 117 131 145  50  31  27  27  36  38  36  36  36  38  37  40  39  36  36  39  37  37  37  36  35
