P2
# Generated by OpenCV 3.4.0
92 112
255
 158 157 150 100  41  30  26  28  31  33  28  26  25  27  31  27  27  29  29  31  32  32  34  32  31  31  31  31  29  26  23  20  22  21  21  20  21  23  24  26  25  24  19  18  17  15  16  18  19  22  21  17  16  18  19  22  23  24  24  25  26  27  29  30  31  38 100  90  73  87 133 154 158 163 165 163 164 164 163 162 163 164 161 161 163 162 161 159 160 162 162 160
 159 163 145  77  36  31  30  30  27  26  25  24  25  24  26  29  32  35  37  36  33  30  29  28  28  28  25  24  24  23  23  23  23  23  21  20  17  17  16  15  18  21  24  21  18  16  14  16  18  18  21  19  15  17  17  19  20  22  23  24  24  25  26  28  29  31  74  77  62  64 117 138 142 158 164 164 165 163 164 164 162 163 163 163 164 163 162 162 162 163 163 161
 164 162 122  53  37  29  26  24  25  25  24  25  28  29  30  35  37  38  34  32  30  29  26  25  22  20  18  18  17  16  17  18  19  22  22  23  22  21  18  17  17  16  17  20  21  21  17  15  17  18  19  20  17  16  16  17  18  20  22  22  23  24  24  25  25  29  51  51  56  64  84 105 112 150 160 165 164 164 163 165 164 163 166 164 163 162 164 164 163 162 162 161
 164 157  57  44  32  30  26  29  30  29  33  38  38  36  35  34  32  31  26  24  23  23  23  22  20  19  18  18  18  17  17  17  17  17  17  18  18  20  23  22  19  17  16  17  18  19  20  18  17  18  18  19  18  16  16  17  18  18  19  22  20  23  21  22  23  25  31  35  46  54  79  86  98 148 156 163 164 165 163 164 165 165 164 164 165 164 164 164 163 163 163 163
 163 123  57  36  32  28  27  28  27  27  29  32  35  32  31  30  30  27  25  23  21  22  20  21  22  21  23  23  21  20  18  18  18  17  17  16  17  17  19  19  20  20  19  19  19  18  20  21  19  19  19  19  19  17  16  15  18  17  18  19  19  20  20  19  21  24  27  30  35  58  63  65  87 139 153 158 160 165 165 163 164 164 164 165 163 164 164 165 164 164 165 163
 161 118  70  35  31  32  26  23  24  24  28  34  37  34  32  27  24  20  19  19  19  19  19  19  19  19  19  20  19  20  18  18  18  18  19  19  18  17  18  20  22  23  23  24  24  23  24  24  23  22  22  21  19  20  18  16  17  17  19  19  19  18  18  18  19  21  23  26  29  49  45  53  86 128 136 143 155 164 165 165 166 163 166 163 164 164 163 164 164 163 162 164
 163 138  64  38  36  28  24  26  31  34  36  28  25  21  21  19  20  19  20  20  22  23  22  22  19  18  20  20  19  20  18  19  19  18  18  18  20  20  22  25  26  28  30  31  32  31  31  30  27  26  25  25  24  23  23  21  19  19  19  17  18  18  18  18  18  20  23  23  26  40  37  43  85 122 123 144 150 158 164 165 166 165 167 165 166 165 165 164 164 164 164 164
 162 113  42  37  34  30  27  26  23  21  21  25  27  26  24  23  22  19  19  18  19  20  22  21  22  23  24  25  24  24  22  24  24  22  21  21  23  25  28  32  37  41  41  42  43  40  42  40  38  34  33  30  29  29  27  25  24  23  21  20  19  17  18  18  16  20  20  21  24  31  34  46  84 110 114 125 143 161 164 165 167 166 165 165 166 165 167 165 164 164 165 165
 162  92  43  36  31  30  28  30  30  34  39  38  34  28  25  22  20  20  22  22  24  24  27  27  32  33  35  37  36  31  30  32  31  31  29  30  31  34  38  44  48  51  54  57  55  53  52  51  49  45  42  39  38  36  33  30  29  28  26  24  22  18  19  18  18  20  18  19  24  28  32  49  75  91 103 123 155 164 166 165 167 165 165 165 167 166 167 166 166 166 165 166
 146  55  38  36  34  32  35  37  40  40  37  31  27  24  22  23  22  23  26  28  29  34  39  44  48  49  50  52  51  51  49  49  46  44  44  44  44  49  52  57  62  67  67  71  70  68  68  66  60  55  52  49  47  45  45  40  36  32  31  28  26  24  21  22  20  19  21  23  24  26  32  54  72  78  94 130 154 162 167 166 168 167 165 166 167 167 167 165 166 166 164 165
 135  48  40  34  29  30  32  38  37  31  30  30  26  24  24  25  28  31  34  38  44  49  57  62  63  64  66  66  64  64  64  64  62  59  57  59  59  62  67  70  77  76  78  81  80  80  75  75  71  68  64  61  59  55  53  50  46  42  40  37  33  29  25  24  22  22  21  22  23  26  32  44  56  74 110 151 161 164 164 165 167 167 166 167 168 167 168 166 166 166 165 166
 106  49  31  29  32  32  35  34  31  30  32  29  28  27  29  32  36  40  46  57  64  71  75  75  77  78  78  78  76  76  76  77  75  74  72  72  75  78  81  83  88  87  89  88  87  86  82  82  78  75  74  68  66  63  62  57  54  50  47  47  46  39  29  26  23  23  21  23  24  27  28  36  50  74 143 162 166 165 164 166 168 168 168 168 168 167 169 166 166 166 166 166
  99  42  28  38  32  34  36  35  33  35  32  31  30  32  37  44  48  55  64  73  81  86  88  87  86  88  87  86  83  84  86  84  83  84  83  82  86  88  89  91  91  93  92  91  91  91  90  86  82  82  79  76  73  69  67  66  61  57  53  56  54  48  38  31  27  25  24  25  25  26  29  32  49 103 151 163 166 165 164 166 168 167 168 168 167 168 168 166 167 167 165 166
 110  46  35  30  27  30  30  30  30  31  32  33  35  40  49  56  63  72  79  86  94  97  96  95  95  93  92  91  90  91  91  90  88  91  91  91  92  93  94  93  93  92  94  94  96  92  92  89  87  84  81  80  81  75  72  72  67  64  61  61  60  57  47  36  30  25  24  24  24  24  26  31  62 117 151 158 164 167 167 168 168 168 169 169 168 168 168 167 167 167 165 167
  95  51  36  28  26  28  30  32  34  33  39  41  46  54  65  74  79  86  95 101 108 108 105 105 104 101  99  96  96  96  97  97  98  95  93  92  94  95  96  97  96  96  97  99  98  95  93  91  91  87  84  84  84  81  78  76  72  69  68  68  67  63  55  44  32  27  24  24  24  24  25  26  47  98 144 159 163 165 166 167 168 168 168 168 168 169 168 168 166 168 166 166
  85  48  33  28  25  31  32  35  34  38  44  50  58  68  78  85  93  99 106 110 113 114 110 110 110 109 109 105 104 103 105 106 106  99  95  95  96  98  99 100 102 105 103 102 102  97  92  93  89  86  86  88  87  84  81  77  78  76  73  74  74  69  62  50  36  28  25  24  24  24  24  26  34  68 139 157 161 164 163 165 168 167 169 169 168 167 167 167 167 167 167 166
  75  37  28  29  28  34  35  36  36  43  53  63  70  80  88  94 102 106 113 115 117 118 118 114 113 113 111 110 110 110 110 109 108 103 100  98 100 103 105 106 107 108 108 105 100  96  94  94  91  89  89  90  90  89  86  83  81  80  77  77  76  72  68  55  41  30  25  24  23  22  23  25  31  60 140 156 160 163 164 166 166 167 168 168 168 168 168 167 168 168 166 166
  61  38  32  30  31  35  37  37  42  54  67  76  84  92  97 104 109 111 117 118 119 119 119 117 116 113 112 112 112 111 111 110 110 110 107 105 103 107 107 108 108 108 106 103  98 100  99  94  93  90  90  90  89  89  90  89  84  84  82  81  79  77  70  60  47  34  27  24  24  23  22  23  27  37 102 157 162 162 166 166 168 169 168 167 168 167 168 167 168 166 166 165
  90  43  33  32  33  34  36  38  48  64  80  84  97 104 105 111 115 117 119 118 119 117 118 116 114 113 111 111 113 113 112 112 111 111 110 107 109 110 110 110 106 107 106 104 100 100 100 100  99  94  90  91  91  92  91  88  84  86  87  85  81  77  72  64  55  41  29  25  24  24  24  23  23  33  69 148 163 164 165 167 168 169 168 167 168 168 168 167 168 167 167 165
  87  46  35  35  32  32  37  40  56  74  86  94 103 110 111 114 118 119 119 120 118 116 117 116 114 114 113 115 115 112 112 111 113 114 112 110 110 111 111 110 108 108 108 104 102 103 104 106 103  99  95  96  95  95  95  91  87  87  90  88  84  77  72  67  61  47  33  26  24  23  23  22  22  30  52 129 162 165 166 168 169 168 168 168 169 168 168 167 164 166 166 166
  88  43  35  34  32  31  37  44  60  79  85  98 105 110 115 118 118 119 120 119 120 118 115 116 116 115 117 116 116 113 114 114 117 112 110 109 111 112 111 113 110 109 104  97  98 104 107 109 107 101  98 100 102 100  98  96  93  90  89  87  84  78  72  64  62  51  37  28  24  21  23  21  21  28  67 118 156 164 166 168 169 168 167 167 168 168 168 166 167 166 165 166
  97  44  39  31  30  34  38  49  69  84  92  96 106 111 114 117 117 119 119 121 121 119 117 119 117 117 120 116 115 117 117 117 116 114 112 112 112 114 114 114 110 110 108 104 107 110 112 113 110 108 105 105 105 103 102 100  93  94  90  88  84  82  74  65  62  53  40  28  23  23  22  21  21  28  71 140 156 165 167 168 169 167 167 168 167 167 166 166 167 166 164 165
  85  47  37  31  32  35  40  54  72  85  95  97 104 111 116 116 118 120 122 122 123 125 123 122 121 120 119 121 121 122 119 120 117 116 116 113 112 114 114 114 115 116 116 118 117 118 119 118 115 113 112 110 108 106 103 103  98  97  92  89  85  79  74  70  63  55  43  30  24  21  19  20  21  30  64 137 159 164 165 166 168 166 167 168 167 168 168 166 166 167 164 165
  68  42  32  33  33  35  43  54  74  87  98 100 102 110 116 118 119 120 122 124 126 125 122 112 112 119 121 122 123 126 124 124 121 118 116 115 115 115 121 119 124 124 125 126 124 123 122 122 120 120 115 111 112 109 106 104  98  96  93  88  80  76  76  71  64  56  46  32  25  21  21  20  21  29  70 137 160 164 167 168 166 166 166 167 168 168 167 165 166 168 166 166
  88  39  35  32  32  34  43  59  79  88  99 105 110 112 118 120 119 118 120 125 125 127 121 100 103 117 123 123 123 121 125 123 118 119 118 116 118 122 127 128 130 128 126 127 126 125 125 123 121 119 117 117 112 109 109 102 100  97  94  88  79  71  72  70  64  59  51  35  25  21  19  21  22  28  62 143 159 165 165 166 166 167 167 166 167 166 167 165 166 165 165 165
  93  42  36  33  31  35  45  66  84  93 103 108 112 118 119 120 118 122 123 126 127 130 128 123 122 126 128 125 124 121 122 122 122 121 122 121 122 125 128 130 129 123 125 125 122 123 124 124 121 118 116 112 108 105 104 100  97  96  95  90  83  75  70  67  67  62  53  40  27  20  18  22  23  27  50 140 160 164 165 164 164 164 165 166 166 166 167 164 165 164 164 164
 103  43  36  32  31  36  50  68  89  95 104 109 113 114 117 119 123 125 126 130 132 131 132 133 131 129 130 128 124 123 122 122 125 123 125 125 125 128 128 130 129 123 121 123 126 124 123 117 114 112 110 109 101  95  96  96  95  93  90  87  83  77  69  68  67  63  57  43  30  22  19  23  24  27  54 133 161 166 168 166 166 165 164 166 167 166 167 164 164 165 166 164
 117  42  36  30  31  39  55  71  89  98 105 109 110 113 116 118 120 123 127 130 129 132 134 134 134 133 130 128 123 126 124 122 123 123 124 125 124 126 124 126 124 123 121 121 121 119 116 111 105 101 100  97  93  90  90  88  89  87  88  84  81  78  73  68  65  63  59  48  32  22  18  20  24  26  57 144 162 165 166 166 167 165 164 166 168 166 167 168 166 166 164 164
 137  45  35  30  31  38  54  73  90 100 106 109 110 114 118 117 122 125 126 129 129 132 131 132 129 128 127 128 128 123 122 121 121 122 121 121 121 121 122 118 120 115 117 116 110 111 110  99  95  93  89  85  80  74  70  70  71  71  69  67  65  69  70  68  63  61  58  49  33  22  17  21  24  28  72 154 161 163 165 164 166 166 167 167 165 166 168 167 166 165 165 165
 152  55  36  30  31  36  52  74  91  97 103 108 111 119 120 122 124 122 123 122 119 120 122 124 122 118 118 118 119 118 118 119 118 118 119 117 117 117 116 114 112 108 105 101  91  97  92  88  83  74  73  69  62  59  54  49  51  47  46  48  49  49  54  63  63  61  60  52  37  23  17  21  25  30  76 159 164 164 166 165 166 165 165 166 166 167 166 166 166 164 163 165
 162  78  35  30  32  34  54  79  93 100 104 107 113 118 120 115 110 111 110 112 110 109 108 112 111 110 112 110 110 111 107 112 114 112 114 115 113 113 112 111 108 101  96  90  84  79  73  69  63  55  48  46  40  35  35  33  33  32  33  33  34  35  39  44  50  55  57  56  40  25  16  20  27  33 105 160 164 166 167 166 168 167 166 165 166 164 165 166 164 164 164 162
 162  92  38  32  31  33  55  80  95  97 102 108 111 107 100  96  97  98  95  96  99  98 100  99  98 102 100 100 102  99  97 100  96 106 108 107 107 110 108 107 104  91  83  80  71  61  49  40  35  34  33  30  28  27  28  28  28  27  27  27  28  28  30  31  33  44  56  55  45  26  18  20  28  41 125 163 166 168 166 167 166 166 168 165 168 167 166 163 164 165 163 163
 161 109  41  32  30  32  58  86  96  99 100  99  85  70  68  69  76  75  73  77  79  73  73  71  69  72  75  76  79  80  82  87  92  93  96  95  97  97  95  96  96  88  69  67  55  42  30  25  24  23  22  21  21  21  22  21  21  22  24  23  24  25  25  27  29  34  48  56  49  30  18  19  26  42 139 162 165 164 165 166 166 167 167 166 166 167 166 165 164 162 164 164
 167 140  47  34  30  31  60  85  95  94  88  68  58  53  54  53  50  45  48  50  46  42  43  44  42  38  40  46  50  56  62  70  77  82  86  91  93  90  88  85  87  81  60  53  44  30  24  20  18  17  16  17  16  15  16  17  17  18  18  19  20  20  22  24  27  33  41  54  52  34  19  20  27  60 152 165 167 167 167 167 167 167 167 166 166 166 166 165 163 165 166 164
 169 157  88  38  32  32  60  85  93  86  73  63  51  47  47  43  39  35  36  33  31  29  27  26  27  26  27  29  32  37  46  57  66  74  79  86  89  87  82  78  76  70  52  45  33  26  22  18  16  15  14  15  14  15  16  17  20  21  21  20  21  23  25  26  27  30  38  49  54  39  22  21  27  79 155 164 166 168 167 166 167 167 167 166 165 166 167 166 165 165 166 163
 168 162 126  40  32  33  61  88  93  77  61  45  39  39  36  34  31  31  29  27  24  24  22  21  20  20  18  21  23  24  31  43  52  64  72  78  81  85  80  76  73  63  48  41  31  23  21  19  17  16  16  16  19  23  26  27  28  30  30  30  30  29  27  27  27  29  36  47  54  43  23  22  28 120 159 166 167 168 168 167 168 167 167 167 166 166 167 167 165 165 165 165
 170 166 150  51  35  34  65  92  84  66  58  52  46  46  46  43  44  41  40  40  38  35  32  29  28  27  25  22  21  23  24  30  40  49  63  71  77  78  72  72  66  57  41  32  26  24  24  23  22  22  26  30  28  28  26  24  24  23  20  21  19  21  20  19  18  19  20  22  28  29  23  23  32 132 160 165 167 167 167 167 168 167 167 167 166 167 168 166 165 166 166 166
 169 167 161  69  48  48  61  67  58  51  45  37  39  41  38  36  32  31  30  30  27  27  26  26  26  25  27  28  28  29  30  31  37  44  54  69  75  72  68  63  57  45  35  30  27  29  28  26  23  21  20  19  19  22  22  24  26  25  27  28  31  35  38  38  38  36  34  30  19  17  17  18  20  18 139 165 167 168 166 168 167 167 166 164 165 166 166 164 165 166 166 165
 169 155  45  37  34  30  28  29  35  49  51  54  54  47  45  41  38  37  37  37  35  35  34  33  31  30  31  30  29  26  23  20  21  25  32  49  51  51  50  44  38  30  25  25  22  20  19  20  22  23  24  24  25  27  28  29  30  29  28  26  26  32  36  37  38  40  43  55  49  28  18  17  18  22 120 164 168 166 167 167 167 168 166 167 167 167 167 165 165 166 165 164
 168 132  35  29  25  24  32  44  74  73  57  52  55  53  50  46  42  40  36  34  33  32  31  31  31  32  32  33  36  37  36  31  21  18  20  28  24  21  19  18  18  17  19  18  19  25  28  28  26  24  24  25  27  29  29  30  32  34  34  32  27  26  31  35  38  39  42  52  49  39  33  17  18  21 118 163 166 167 167 167 168 168 167 166 167 166 168 166 165 164 164 162
 169 134  31  26  24  27 124  48  80  74  60  57  57  54  49  44  39  35  37  43  45  41  37  33  32  29  27  28  32  37  39  40  36  21  20  22  21  21  18  16  17  18  18  20  29  29  29  27  24  24  24  23  21  19  18  18  19  25  28  32  32  28  29  32  36  40  42  48  49  33  40  20  18  21 112 163 167 167 168 167 167 167 168 167 167 166 167 167 165 166 166 165
 169 132  33  25  25  41  95  91  87  78  61  56  55  50  44  36  35  46  50  51  48  37  33  29  29  28  26  25  29  34  38  40  42  32  20  20  20  20  18  16  17  18  18  27  29  29  28  25  25  23  21  19  16  17  16  16  17  24  22  21  26  30  28  32  37  41  43  47  47  25  33  22  18  21  90 159 167 168 168 167 169 168 168 168 166 166 166 167 165 166 165 166
 170 137  29  27  25  41  46  51  72  74  61  57  52  45  36  34  44  47  36  29  25  21  21  20  20  21  24  26  28  30  35  39  42  39  19  20  22  23  19  17  17  17  20  29  30  28  26  25  24  21  27  23  19  15  14  16  19  24  30  24  21  24  28  32  37  42  45  48  48  28  35  25  19  31  80 124 163 167 167 166 168 167 167 167 166 167 166 167 166 166 166 165
 170 164  72  28  27  42  35  29  51  68  60  56  48  39  34  39  39  29  28  33  24  27  19  17  16  18  24  24  25  30  33  40  44  41  21  21  22  28  29  24  18  18  21  29  29  29  28  25  24  27  35  25  18  17  17  17  19  24  36  29  24  22  24  29  37  42  47  51  54  37  42  29  18  60  62  91 162 166 168 168 167 166 166 167 168 166 167 167 166 165 164 165
 171 169 167  54  30  40  31  26  49  66  63  54  47  39  35  38  26  29  43  44  25  26  20  19  19  21  32  34  30  29  38  40  46  39  24  23  30  53  60  42  27  20  21  31  32  33  30  24  26  31  38  34  20  19  17  20  20  30  35  30  28  27  27  30  35  42  50  55  60  49  50  31  28  54  52  89 161 166 168 168 166 168 168 167 167 166 166 166 165 166 165 164
 170 170 168 108  31  82  90  44  60  70  66  54  46  39  35  29  29  40  53  54  25  26  27  24  26  27  40  41  36  31  39  50  58  43  25  25  83 112 109  92  42  22  20  34  39  41  32  30  28  30  36  40  32  23  23  23  27  37  34  31  29  30  33  36  40  45  53  58  64  61  59  32  33  49  49  72 159 167 168 168 166 167 166 166 167 165 166 165 164 164 164 165
 170 171 169 120  30  86 156 106  76  80  74  62  50  39  34  33  37  44  54  56  38  27  25  25  27  32  45  42  36  36  40  52  65  39  22  79 130 138 137 132  97  25  20  32  39  43  36  34  32  31  32  35  34  32  30  33  36  36  36  33  32  33  37  42  48  51  58  61  64  66  80  27  34  53  52  63 143 165 167 167 166 167 166 167 166 166 164 165 164 164 163 163
 171 171 165  94  36  63 155  80  92  93  83  72  59  48  45  44  43  46  52  59  57  39  30  29  31  41  45  44  45  49  53  59  62  31  43 133 148 149 148 142 117  56  20  28  37  40  39  37  35  32  31  31  32  33  35  38  36  35  35  36  36  36  41  46  51  55  59  64  65  68  87  25  38  61  55  61 124 163 165 167 168 167 167 167 165 165 164 164 165 164 163 163
 172 171 167  94  45  42 160  92 103 101  95  85  73  65  61  54  52  47  49  54  56  55  50  50  46  46  46  45  46  50  57  64  54  27  64 140 156 154 147 142 119  80  22  22  41  41  38  37  34  32  31  34  37  38  40  42  42  40  38  37  39  42  45  51  56  60  64  67  67  69  89  35  45  64  62  56 104 161 166 167 166 165 166 165 165 166 164 163 164 163 162 161
 173 173 170 117  57  31 129 110 107 105 104  97  88  80  71  65  61  59  60  54  51  54  51  48  46  47  45  45  47  53  59  66  49  24  86 140 153 153 147 139 112  86  46  21  35  47  43  36  35  34  34  36  37  40  44  44  44  46  45  43  45  47  50  56  59  63  67  70  67  75  75  48  46  62  70  55  99 160 164 166 166 164 165 164 163 163 165 164 163 162 163 161
 173 173 171 126  68  35  82 118 110 107 107 105 100  92  81  72  67  65  67  62  62  60  57  53  51  50  48  52  58  60  68  72  36  31 109 141 154 154 151 140 109  84  66  22  26  45  50  48  41  37  38  40  40  42  44  45  47  49  47  47  49  52  58  63  66  67  69  69  67  87  34  60  49  56  64  70 109 159 164 165 164 164 164 164 164 163 164 164 162 162 162 163
 173 173 170 137  72  46  40 113 113 109 107 109 108 102  91  81  77  69  67  65  61  61  57  53  54  57  63  68  73  76  85  60  29  52 114 139 155 153 151 136 107  82  72  40  20  41  49  50  55  48  46  44  44  44  46  50  52  54  55  58  60  65  67  69  72  71  70  69  68  61  35  66  51  50  58  75 123 160 165 163 164 163 162 162 163 163 162 161 161 159 161 160
 172 173 171 138  79  68  30  72 115 110 110 110 112 109 100  92  87  79  73  71  67  66  67  68  68  72  77  82  87  94  87  43  23  79 116 138 153 156 148 128 105  83  72  66  21  25  51  50  52  57  59  57  55  52  52  55  59  60  63  68  70  72  79  80  80  76  72  67  65  30  52  67  51  47  52  72 133 160 163 164 165 164 163 162 161 161 162 162 161 160 160 159
 171 172 172 145  98  99  52  36 106 107 108 110 111 110 103  98  93  89  81  80  80  79  81  82  80  82  88  93  96  95  59  35  37 103 121 137 155 158 149 123 101  84  75  71  43  19  35  53  54  55  61  66  68  68  67  70  71  70  72  76  77  81  86  86  84  80  74  62  40  37  63  67  55  48  52  73 144 160 163 162 163 161 162 162 162 161 161 161 160 159 158 159
 173 172 171 153 108  99 101  38  51 100 105 109 114 111 106  98  93  90  87  88  85  83  85  86  88  91  93  98  95  71  34  48  63 108 121 138 152 156 147 122 101  85  75  70  68  31  19  37  52  58  60  64  66  68  72  74  76  77  76  81  85  88  90  88  76  57  42  29  34  62  65  66  58  48  61  80 153 160 162 161 162 162 163 162 161 161 160 159 158 160 160 159
 172 172 171 166 119  91 109 100  43  39  72 100 110 112 108 102  98  92  90  90  89  90  93  93  95 100  87  70  53  36  52  65  87 111 123 137 151 155 146 121  98  84  74  69  70  52  26  20  29  41  50  56  68  71  74  74  75  76  70  60  60  58  52  39  29  25  25  48  64  66  67  65  58  52  66  89 153 161 161 160 161 161 161 160 161 159 160 159 158 157 158 158
 173 173 172 170 125  82 100 114 109  78  43  32  50  69  76  83  79  79  78  79  78  75  69  70  62  46  42  32  30  68  83  64 102 114 127 139 150 155 144 122 103  89  81  74  71  63  41  37  26  20  28  35  36  40  42  38  37  35  35  35  31  26  19  29  41  56  69  69  66  66  66  65  57  57  78  86 153 161 161 160 160 160 160 160 160 157 159 158 158 157 157 156
 173 173 173 170 127  88  93 115 112 113 111  93  68  59  45  35  32  31  35  38  37  33  28  27  32  43  57  86  99  88  71  77 107 119 132 145 152 152 142 122 110  94  83  75  69  65  50  42  53  56  43  37  30  28  26  28  29  36  43  49  57  74  83  84  78  73  69  68  64  64  66  65  73  81  85  79 150 158 160 160 160 159 159 161 158 158 158 157 158 157 156 156
 172 172 172 170 144 103  89 115 114 113 111 112 113 115 118 112 106  96  90  88  84  88  92 101 102 101  99  95  90  78  70  89 107 120 130 145 148 146 137 127 112  95  82  74  68  64  53  44  49  59  66  71  76  79  82  85  88  89  90  91  90  88  87  84  78  72  66  64  64  62  66  66  79  87  72  80 148 157 159 159 158 159 158 159 158 157 158 156 158 157 156 154
 171 171 171 171 160 125  99 114 116 112 112 113 115 118 118 118 116 110 109 108 105 103 102  99  97  96  92  87  79  74  76  95 103 118 131 144 148 146 137 127 116  95  81  73  69  61  53  49  49  57  63  68  71  78  82  84  87  87  90  89  89  86  85  82  76  70  66  62  62  61  63  64  75  79  83  94 145 157 158 159 158 158 158 157 157 157 158 157 157 155 156 154
 170 171 171 170 168 135 126 118 115 111 113 114 113 116 119 120 118 115 110 105 103 102  99  95  93  92  89  87  81  75  83  95 102 117 129 144 147 140 135 126 115  98  81  75  74  68  57  50  50  55  61  65  70  74  80  81  83  84  86  85  84  82  80  77  70  67  64  61  60  60  60  57  68  72  88  98 144 157 157 157 157 156 156 157 156 156 157 157 156 156 155 155
 171 170 172 170 169 136 126 128 114 111 108 112 113 113 117 118 117 116 111 109 106 104 100  99  97  94  92  91  88  80  87  96 102 118 129 140 140 133 125 122 113 100  86  78  77  78  72  54  50  54  59  65  71  74  76  80  82  83  83  82  78  76  72  71  67  63  61  59  56  58  62  62  70  75  86  98 134 154 156 156 156 156 155 155 155 155 156 155 156 154 154 154
 170 170 170 170 168 140 130 126 112 109 108 114 113 109 114 114 114 113 110 112 112 112 107 103 102  98  98  96  92  89  91 100 109 122 129 135 132 123 119 115 108  99  89  81  79  82  81  68  51  54  59  64  70  74  75  78  82  84  83  83  79  74  71  67  64  60  59  57  55  58  62  69  78  85  91  92 119 152 155 156 154 154 155 154 155 155 154 154 155 152 152 152
 170 169 170 170 168 144 138 115 109 107 108 110 109 108 111 111 112 112 112 114 114 113 110 107 106 103  98  98  94  91  93 108 114 124 126 130 126 116 111 109 102  97  88  82  80  83  82  87  64  57  60  64  70  72  74  76  80  81  80  80  78  74  71  66  60  58  56  54  56  58  63  71  78  84  85  80 124 153 155 154 155 155 154 154 154 154 153 151 153 151 151 152
 168 167 170 169 167 150 139 112 107 106 105 105 103 104 108 107 110 109 109 112 113 109 107 105 104 101  99  98  94  92  96 111 116 120 124 124 122 112 107 105  98  89  84  79  78  79  79  85  80  59  60  67  70  72  71  72  75  76  75  76  74  70  66  63  60  58  55  54  55  57  56  66  73  77  76  81 145 153 155 154 155 155 154 153 153 153 152 151 152 151 151 150
 168 168 169 169 167 152 138 126 113 105 103 104 101 100 101 100 102 105 102 107 109 108 108 107 103  98 100 100  99  95 104 113 113 112 115 114 113 108 104 101  93  85  76  66  64  65  67  75  77  64  60  68  73  75  75  74  74  74  73  71  70  68  63  58  58  56  54  54  54  57  55  58  64  67  68 133 153 154 154 153 154 154 153 154 153 152 152 151 154 150 149 150
 166 168 168 167 166 144 138 136 121 103 102 100 100 101  98  99  99 102 105 108 109 112 111 110 108 104 103 105 103  97 107 110 104  99  98 101 100  97  95  96  87  77  62  49  46  50  56  59  61  59  61  68  73  77  79  79  79  78  72  71  68  64  61  55  54  54  53  55  54  60  54  50  53  64 122 152 154 153 153 152 153 154 152 151 150 151 150 151 150 148 148 148
 166 166 167 166 165 141 124 128 118 103  99  98  99  98  97  97  98 100 104 108 111 115 113 110 107 104 102 104 106 100 102 101  91  80  76  84  85  84  83  87  79  64  48  40  35  36  41  45  48  52  61  68  72  74  77  77  74  72  72  70  63  61  60  54  54  53  52  54  56  62  96 127 126 147 153 154 153 153 153 153 153 152 151 150 150 150 149 149 149 147 148 147
 165 164 165 164 164 157 116 111 109 102  97  97  98  95  94  95  97 100 105 105 108 112 110 109 106 104 104 105 106 100  95  83  70  56  54  67  75  73  71  71  64  52  42  26  18  23  26  34  38  44  59  68  71  74  75  76  73  71  69  67  63  60  56  55  52  51  53  54  56  61 114 150 154 154 155 154 154 153 152 152 153 152 151 149 149 148 149 148 148 147 147 147
 163 164 163 164 164 161 151 102  91 100  98  96  96  94  93  96  98 100 100 104 108 110 108 107 103  99 103 108 109 102  91  74  50  39  37  41  66  66  61  57  52  46  34  26  25  28  29  30  37  44  56  63  68  71  72  72  72  68  60  62  63  60  55  53  51  52  53  53  54  59 125 153 155 156 155 153 154 152 152 151 152 151 150 148 149 147 149 150 149 147 146 146
 163 163 163 161 164 164 161 148 106  99  98  97  93  92  94  95  96  98 101 103 107 107 107 105 100  99 101 109 108 103  95  83  65  52  53  51  54  56  53  47  45  40  33  30  30  30  30  31  39  47  52  61  65  68  71  69  71  65  60  61  61  57  55  54  51  51  51  52  54  61 134 152 156 155 154 153 154 152 152 151 148 150 149 149 149 148 147 148 148 148 147 146
 161 161 162 163 162 162 163 161 158 135 100  98  94  91  94  93  96  98 102 104 107 106 107 104  99  97 102 108 109 102  95  88  76  65  58  57  53  51  52  46  40  36  36  33  30  30  31  34  39  45  50  58  61  63  65  66  67  67  62  60  58  54  54  52  50  50  53  53  55  64 130 150 152 154 153 151 152 150 151 150 149 149 150 147 148 147 149 148 149 146 146 146
 160 161 162 163 162 162 161 161 160 149 104  97  95  93  93  91  93  96  99 101 106 107 106 103  97  99 104 108 107  98  92  85  73  68  58  54  52  48  45  41  38  36  35  30  26  25  26  28  32  39  50  53  55  59  59  60  63  64  62  58  55  54  52  51  49  50  51  53  55  67 139 152 153 154 154 153 151 151 150 150 149 149 148 147 148 148 148 147 148 146 146 145
 160 162 162 162 161 161 160 161 159 152 109  97  97  96  94  93  94  97  99 101 105 107 106 100  97  98 105 108 103  94  89  81  65  55  45  39  42  42  40  39  38  38  32  25  24  21  23  25  26  31  42  50  51  52  51  51  57  59  57  53  52  53  51  50  50  49  49  51  53  72 144 153 153 154 153 153 152 152 150 149 150 149 147 149 149 147 147 148 147 146 146 145
 160 160 161 161 159 159 161 162 160 156 124  99  98  95  92  91  94  97 101 104 105 106 104  97  96  95  95  96  93  80  73  72  58  44  34  27  30  33  30  30  34  37  28  22  24  20  20  22  23  27  34  46  47  46  44  43  46  49  51  48  49  50  49  49  51  50  52  52  55  80 149 154 155 154 153 154 152 151 150 149 149 149 148 148 148 147 148 147 146 146 145 145
 159 160 160 160 159 160 160 159 159 157 137  99  97  94  92  90  93  96 100 104 104 105 100  94  93  90  84  82  81  75  60  55  47  36  27  24  25  24  21  22  25  28  26  19  21  19  18  18  20  24  28  34  36  37  35  30  33  36  42  42  47  50  49  48  51  51  50  52  57  92 148 151 153 155 154 154 152 152 150 149 150 148 148 148 147 148 147 146 146 146 145 145
 158 159 159 159 158 159 158 158 159 158 151 105  96  95  92  90  91  96 100 101 102 100  96  90  84  76  70  75  72  65  49  47  43  31  23  23  22  19  18  18  21  22  21  18  18  20  18  18  18  22  25  26  29  28  27  24  25  27  30  36  42  50  49  49  51  50  50  51  57 100 148 153 153 153 152 152 152 150 151 149 148 148 148 147 148 147 148 145 147 147 145 144
 157 158 158 158 157 158 158 157 159 158 154 113  94  92  91  89  90  94  96  99 100  96  88  74  63  60  52  59  57  50  41  39  37  28  25  24  22  20  20  18  18  20  18  18  18  22  20  17  18  22  23  24  26  25  23  21  19  22  24  28  35  48  48  49  50  50  50  52  55 123 150 153 151 152 152 151 149 149 150 150 149 148 147 147 148 145 146 146 146 146 145 145
 158 158 159 158 156 158 157 157 157 157 155 130  95  92  90  86  89  92  96  96  97  90  72  50  44  43  37  43  43  40  39  36  36  29  26  23  23  23  20  18  16  18  18  18  20  24  24  22  20  19  21  22  24  23  19  19  18  19  20  24  30  45  48  49  50  50  50  52  60 140 148 150 149 152 152 151 150 150 149 149 148 146 147 147 148 146 146 145 146 145 145 142
 157 157 157 157 156 157 158 156 156 158 155 141  96  91  90  87  89  90  95  95  92  82  56  38  34  35  28  34  36  39  38  34  34  32  27  23  26  23  22  19  17  20  24  21  22  26  27  26  23  21  22  24  23  22  17  17  18  19  22  25  31  45  48  49  50  50  50  50  77 145 148 149 150 150 151 150 149 148 149 148 146 145 146 147 146 145 144 144 146 144 146 143
 156 155 156 156 155 155 156 155 156 156 156 151 111  87  88  88  87  87  88  91  86  68  44  31  29  29  25  28  31  36  35  37  36  38  34  26  29  28  23  24  23  26  34  31  30  31  30  31  28  28  28  28  26  24  20  19  21  24  27  35  40  48  50  51  52  50  50  51 106 146 148 149 148 149 149 148 148 149 149 147 146 146 146 146 144 144 144 144 143 143 142 143
 154 156 156 156 156 154 156 155 155 154 154 152 126  88  87  86  86  86  87  86  84  61  38  31  27  24  25  25  28  34  36  40  40  43  38  33  33  33  31  33  34  36  41  40  32  31  29  28  28  28  28  26  24  23  28  30  29  31  35  43  48  48  49  50  50  49  51  56 135 146 146 148 148 149 147 148 148 147 147 146 146 145 146 143 144 143 142 141 143 142 142 142
 153 154 154 153 153 153 154 152 152 152 152 151 143  93  87  83  83  84  86  85  84  62  38  31  27  22  25  26  28  33  34  37  38  37  35  35  33  31  31  32  37  40  34  31  27  27  26  27  25  24  24  24  26  31  37  38  38  36  40  46  49  48  48  49  50  48  49  92 143 147 146 146 146 147 148 148 146 146 146 145 145 144 144 144 143 143 143 142 143 142 142 140
 153 153 153 153 153 152 152 152 151 152 151 152 148 109  86  85  83  84  86  84  80  74  53  40  32  29  31  35  37  37  38  43  40  38  34  32  31  30  29  27  30  29  25  25  25  24  25  26  26  28  28  30  34  40  43  44  42  42  46  47  48  48  48  47  49  49  54 128 144 146 147 146 146 146 146 146 146 146 145 145 144 144 143 142 142 141 142 141 140 139 139 139
 152 153 154 153 151 151 152 151 151 152 151 151 149 131  88  84  81  82  84  82  81  78  67  52  42  41  45  54  60  61  53  53  54  55  55  52  44  36  34  32  37  32  28  32  34  36  38  35  34  35  34  37  40  42  46  46  43  45  44  47  48  46  47  48  48  48  99 143 146 145 145 145 145 146 145 145 146 144 144 144 142 143 142 141 140 141 140 140 140 139 140 139
 153 152 152 152 151 151 152 150 151 151 150 150 148 144 104  82  80  80  81  82  81  77  73  64  54  54  63  72  74  73  69  58  56  55  56  56  55  47  47  45  46  44  40  45  46  44  43  40  37  36  39  43  41  43  44  44  45  45  42  46  46  46  45  48  48  70 136 146 145 146 145 146 144 145 145 144 144 144 143 143 143 143 141 141 140 140 140 140 139 139 138 136
 152 151 152 152 151 152 151 150 150 148 149 150 148 146 128  83  80  80  79  82  80  77  76  72  63  64  70  76  78  79  78  69  59  56  51  52  51  49  50  50  50  48  47  50  49  46  42  40  39  40  42  43  42  41  43  42  43  43  43  44  45  45  47  49  53 127 143 144 145 146 146 145 144 144 144 144 145 143 143 143 141 142 141 140 140 139 139 139 138 137 136 136
 150 149 151 152 151 150 150 149 149 148 148 148 148 146 142  98  80  78  80  82  79  78  77  73  68  68  72  76  77  78  79  77  69  60  56  52  50  50  51  50  49  48  44  46  44  44  40  38  40  42  40  42  43  41  41  39  40  42  43  44  43  44  44  47  89 141 145 144 145 145 145 144 144 143 143 144 142 143 143 142 143 141 140 140 137 138 139 136 135 135 135 134
 151 151 150 150 150 148 150 148 148 147 147 147 148 146 144 135  76  78  77  78  75  76  77  77  69  69  71  74  73  74  76  75  73  67  64  58  53  49  46  44  41  41  40  40  39  38  38  38  39  39  39  41  42  40  39  39  41  42  43  43  43  43  44  55 131 144 144 144 145 146 145 144 144 143 143 143 141 143 142 143 141 140 138 139 137 137 137 136 136 134 134 134
 151 151 150 149 149 149 148 149 148 146 146 146 145 146 145 144 121  80  75  74  73  75  75  75  75  71  68  73  71  72  71  72  71  68  65  61  57  52  48  43  39  38  39  39  37  36  34  33  33  35  36  39  42  43  42  43  42  42  45  43  43  42  45  66 138 143 143 144 145 145 143 144 144 143 142 144 143 143 142 141 140 140 139 138 135 135 135 134 135 133 132 133
 149 149 149 149 148 149 148 147 147 144 147 146 144 144 143 143 140 117  77  74  73  73  74  72  77  74  72  72  72  69  70  70  69  67  63  57  55  51  47  39  34  35  36  33  31  28  27  28  29  35  40  41  45  47  44  46  43  43  43  42  42  42  46  65 138 143 144 144 143 143 144 142 143 142 143 143 141 140 141 141 140 139 138 135 135 135 135 135 134 134 133 133
 146 147 148 147 146 146 146 147 145 144 144 144 142 143 141 141 140 133 113  78  74  72  74  74  75  76  75  74  75  72  68  65  70  69  62  57  53  49  44  31  25  27  26  24  25  25  24  26  31  42  46  48  49  48  48  48  46  46  46  42  40  41  47  62 135 139 142 142 142 143 142 142 143 143 142 141 141 140 141 140 140 138 137 136 136 133 134 133 132 131 132 132
 147 148 145 147 144 144 143 144 143 143 143 141 140 141 139 139 141 135 132 107  77  72  74  76  75  76  74  71  76  75  73  68  69  70  66  61  56  51  42  29  25  24  19  20  22  24  26  28  35  46  50  52  54  53  54  50  47  47  44  39  38  42  47  52  58  70  79  92 109 121 132 140 140 140 140 140 142 140 139 141 140 137 138 138 135 133 133 133 131 130 132 131
 145 147 146 146 144 143 144 144 142 143 141 137 125 110 102  97  87  80  75  84  81  74  73  76  76  75  78  79  80  77  79  75  75  74  72  71  66  57  50  36  28  25  20  17  20  23  28  33  40  48  53  57  59  59  56  54  50  47  40  35  36  42  47  49  43  41  46  48  51  50  53  59  81 102 128 138 138 139 140 139 138 135 136 134 134 133 133 132 131 132 131 130
 148 146 147 147 145 143 144 142 137 118  94  78  65  58  56  52  50  44  48  65  83  75  73  73  76  79  83  84  80  78  84  81  81  81  80  79  75  64  53  38  31  26  22  19  22  24  32  36  42  49  57  63  64  60  57  53  50  47  39  32  38  43  47  47  34  31  32  34  32  36  40  40  43  47  50  75 108 133 136 137 137 135 134 134 134 132 133 132 130 131 130 131
 146 147 146 146 145 144 128  98  70  64  57  52  47  44  40  39  38  32  38  69  87  78  77  71  73  77  82  86  86  84  93  92  87  84  85  82  78  67  55  43  35  28  28  24  26  32  32  33  38  48  59  69  68  62  57  52  45  40  37  33  40  45  48  47  28  25  26  28  30  32  32  34  34  37  39  41  44  58 101 133 134 135 135 134 132 132 133 131 129 129 128 128
 145 145 145 144 130  97  70  65  60  54  42  38  36  33  30  24  25  49  75  79  90  83  80  77  68  68  75  84  89  85  93  97  92  93  95  89  83  70  60  48  41  33  32  32  32  40  38  35  37  49  56  66  64  59  54  50  42  32  30  33  42  45  48  48  42  28  20  21  22  26  26  27  29  30  31  32  38  42  43  64 120 134 134 132 132 132 132 130 130 129 129 128
 144 144 141 110  70  63  57  55  48  43  31  25  25  24  28  33  65  79  55  58  92  87  86  80  72  61  66  77  83  84  94  98 100  94  92  88  80  72  71  53  49  37  32  35  38  42  44  42  38  46  51  54  53  54  51  40  34  26  23  34  45  46  49  48  42  47  41  31  23  19  17  18  20  25  28  29  32  35  38  40  49 103 130 131 132 131 130 128 128 129 128 128
 143 131  83  67  62  58  43  37  33  24  28  36  46  53  66  71  81  77  38  94  92  89  86  83  76  64  62  72  75  86  83  94  98  87  81  78  71  77  77  62  56  38  37  42  45  46  44  47  41  37  40  44  44  45  46  35  24  21  21  37  45  47  49  48  35  42  43  42  46  48  41  34  24  18  22  24  27  29  34  36  38  40  82 119 129 128 128 127 127 128 126 125
 117  75  66  63  51  41  29  25  38  52  56  55  59  74  69  80  82  54  68 109  95  90  87  83  79  73  60  60  68  72  76  80  82  65  63  62  67  73  79  67  55  41  42  44  44  48  42  45  42  34  38  41  36  32  34  28  23  17  22  41  46  48  48  47  30  42  42  41  36  42  44  44  46  44  32  23  22  26  29  33  36  37  40  47  74 104 124 125 125 126 125 125
  72  64  55  53  38  27  41  55  61  63  61  62  74  72  71  80  76  40 108 107  94  92  89  88  80  70  62  55  50  57  61  69  68  49  47  53  56  68  72  62  57  46  43  41  41  44  40  39  35  32  35  38  32  26  24  22  16  16  31  41  46  49  50  47  28  34  40  41  35  34  38  47  66  68  58  56  37  22  25  30  32  35  34  36  37  43  66  97  95  90  80  79
  66  55  50  42  30  64  61  65  64  54  57  71  78  69  72  78  65  47 123 104  93  92  92  88  84  76  60  43  39  44  53  58  57  39  41  43  46  59  60  59  55  48  42  38  36  36  34  33  29  30  29  32  27  22  18  15  15  23  37  45  49  50  49  48  31  29  36  37  42  32  30  34  47  61  75  82  72  57  30  24  29  30  32  35  34  34  39  43  47  50  48  45
  61  55  38  33  75  75  64  55  47  48  63  73  71  73  77  74  58  65 122 101  94  93  92  89  87  78  60  42  35  33  38  44  43  34  38  35  39  46  47  47  50  38  35  33  32  31  29  31  28  26  25  26  22  17  15  13  20  32  40  47  48  48  50  48  42  24  32  33  36  43  30  29  35  40  41  44  79  82  69  42  23  28  32  32  34  33  35  35  36  37  33  29
  57  40  37  91  87  91  55  36  36  61  63  77  70  82  77  71  46  85 118 101  93  94  92  91  89  82  75  61  36  26  28  34  36  32  35  33  32  37  38  35  34  28  27  29  27  26  26  26  26  23  20  20  18  15  13  16  27  38  44  48  48  48  49  48  47  23  31  32  33  40  39  29  28  31  35  34  48  70  85  80  64  26  29  30  30  31  33  35  32  33  33  23
  41  42 107  93 101  85  51  30  59  61  74  75  70  75  72  65  42 103 116  98  92  94  93  92  88  85  82  78  59  30  25  25  29  29  28  31  25  30  28  26  23  21  22  23  20  19  20  20  21  19  16  17  14  15  22  25  38  44  46  46  47  48  49  48  48  30  28  31  30  31  37  36  25  26  30  33  33  51  74 102 100  92  29  26  29  30  32  33  31  32  29  31
  39 119 111 119  88  87  38  50  64  58  78  71  69  69  64  60  41 113 113  98  92  95  94  94  89  86  86  82  68  53  36  24  25  22  24  26  21  24  20  18  16  17  17  16  12  14  14  16  16  14  14  15  16  19  31  39  42  45  46  46  48  47  48  47  48  39  27  30  30  29  34  37  33  23  24  29  37  32  65  92 116 117 102  29  26  28  32  34  31  31  26  30
 124 124 148 103 106  74  36  62  52  67  76  62  70  61  67  63  41 116 111  98  92  93  95  94  92  88  86  82  79  73  47  30  29  20  22  22  18  19  17  13  11  12  15  14  10  12  12  13  14  13  16  18  24  28  36  43  45  45  47  47  49  48  49  46  47  41  26  30  29  29  30  27  35  27  24  24  36  35  44 100 110 125 124 104  29  27  30  32  32  30  27  26
 133 158 136 137 116  44  49  53  48  73  69  60  68  61  68  64  42 117 109  99  92  93  95  93  92  90  88  84  80  77  67  54  42  26  25  24  21  21  20  14  12  14  16  15  11  13  15  17  20  20  25  30  34  38  42  44  44  45  46  48  47  46  48  47  48  46  24  30  30  25  26  26  31  33  26  23  28  38  40  90 121 121 132 130 106  26  30  28  30  32  30  26
 161 155 156 143 112  42  50  44  50  72  67  60  65  60  68  62  42 117 104  95  94  92  93  92  91  90  90  84  81  78  75  65  51  44  47  39  32  31  27  24  18  29  30  28  19  24  29  30  32  36  37  36  38  41  43  44  46  48  48  49  47  46  48  47  49  45  23  29  30  29  30  23  32  37  35  28  24  31  40  70 117 132 130 135 131  94  25  29  28  28  29  27
 163 165 158 136  75  32  41  37  59  70  66  62  65  61  65  59  41 110 104  96  93  92  92  92  90  90  89  87  83  80  79  73  71  71  68  64  55  49  45  45  46  51  48  45  40  40  40  40  39  39  38  39  39  42  44  45  46  48  48  46  45  47  45  46  47  44  24  29  32  30  30  24  24  36  39  41  30  24  33  38 100 128 138 136 139 132  71  28  28  26  27  26
 170 169 155 127  31  30  33  38  65  69  73  63  57  61  63  60  42 102 103  94  94  93  92  90  91  90  89  86  83  81  79  75  74  72  73  70  66  64  62  59  58  56  50  47  46  44  42  41  41  39  39  39  39  43  46  46  46  48  46  45  45  45  46  48  47  44  23  27  30  28  32  33  27  26  33  33  37  30  26  25  72 116 137 142 140 141 136  44  29  24  24  27
 176 164 150  81  24  26  32  52  71  71  72  56  61  63  61  60  44  88 101  95  94  93  91  90  90  88  88  86  83  81  79  79  75  74  73  71  68  65  65  63  60  59  56  50  47  46  45  43  41  39  39  39  42  46  48  48  47  47  46  44  45  46  47  47  45  44  21  25  30  30  32  33  34  22  29  35  30  39  34  29  54  97 128 141 146 146 142 128  32  30  26  25
