P2
# Generated by OpenCV 3.4.0
92 112
255
 172 173 173 173 172 166 162 151  75  37  31  30  30  30  33  34  31  29  29  34  40  42  38  33  32  30  29  29  25  29  29  27  27  26  25  24  23  22  19  18  20  19  22  25  27  27  24  23  21  20  18  18  18  18  22  20  20  19  21  22  25  27  29  30  31  32  33  39  52  72 118 149 157 163 156 134 163 171 170 171 171 170 170 171 171 171 170 170 169 170 170 169
 172 170 171 173 172 171 161 129  51  33  32  33  32  30  29  28  26  25  28  34  33  32  31  32  32  31  31  31  32  35  33  32  30  30  31  33  31  30  26  25  27  28  29  29  29  33  30  27  24  22  19  19  18  18  19  22  23  20  19  20  23  25  27  29  30  30  31  36  39  49  61 139 134 155 142 129 147 168 170 171 172 170 170 170 171 171 170 171 171 171 170 170
 171 170 173 173 172 170 145  69  39  35  31  29  25  27  28  26  24  27  28  28  29  32  36  36  43  41  37  34  32  31  30  32  34  30  30  29  27  26  23  22  22  23  20  18  18  17  18  22  23  25  23  20  17  16  17  20  22  24  20  18  20  23  24  25  28  26  29  33  36  41  44  89 122 137 113 109 125 164 171 172 172 171 172 170 171 170 171 171 170 170 170 170
 171 170 170 171 171 170  75  46  40  34  30  26  29  32  31  30  34  36  36  36  38  40  42  41  41  38  34  31  29  26  27  26  24  23  20  19  19  21  22  23  23  25  24  24  20  18  16  16  17  20  23  24  20  17  15  16  21  24  23  18  17  19  22  23  25  25  27  29  30  34  38  56 110 113  93  87 115 163 169 168 171 171 171 170 172 172 171 171 171 170 171 170
 170 172 173 170 170 121  57  39  34  30  28  28  31  30  30  32  37  42  41  41  38  38  35  33  29  27  26  25  24  23  20  22  22  21  20  17  18  18  17  17  18  20  21  22  23  23  21  18  16  17  18  21  22  21  18  16  18  23  23  22  17  17  19  20  24  24  26  26  28  30  32  36  61 104  81  64  96 154 150 163 170 170 171 170 172 171 170 170 169 171 172 172
 170 172 171 171 167 118  70  33  30  30  31  29  25  25  28  26  27  33  38  33  29  28  30  29  27  25  23  22  24  24  22  23  23  22  21  19  19  19  19  18  17  17  17  18  18  21  21  23  21  19  19  18  19  22  22  18  17  19  22  23  20  18  18  18  21  22  25  26  27  28  28  31  40  98  51  60  76 111 131 149 166 170 171 172 171 171 170 171 171 171 170 172
 172 174 171 172 165 115  39  33  34  34  30  24  24  25  29  34  39  38  35  33  32  28  25  23  21  20  20  20  20  20  21  20  21  21  22  22  20  20  19  19  20  19  18  18  17  18  19  20  22  22  22  20  19  20  21  22  19  19  20  22  22  19  19  18  20  21  24  25  24  26  27  27  31  68  44  59  76  90 100 134 162 169 173 171 172 173 173 171 172 172 171 171
 174 174 174 173 155  57  40  35  32  28  28  27  27  30  30  30  25  24  22  23  21  21  19  20  21  22  23  23  22  23  23  22  19  21  21  19  20  20  21  20  20  21  20  19  20  19  20  23  23  23  24  24  24  23  23  24  23  22  20  21  21  19  18  18  20  21  23  24  23  25  25  25  30  44  43  52  76  78  90 126 156 168 172 170 171 171 172 171 171 172 172 173
 175 174 173 170 115  41  38  33  34  32  29  28  30  27  23  25  31  31  32  31  30  24  23  22  20  21  20  22  24  25  23  22  23  23  24  23  23  22  23  23  21  20  20  21  24  24  25  26  28  30  30  29  29  29  28  27  25  25  24  24  24  21  19  19  19  21  21  21  23  24  24  23  27  32  39  42  49  59  93 116 150 163 165 170 173 172 172 172 172 173 173 172
 175 176 174 163  74  43  37  33  34  34  40  40  37  39  42  45  43  36  31  28  24  24  21  21  23  25  25  25  26  28  30  31  32  32  31  28  25  26  27  27  26  24  24  25  27  29  32  36  40  41  41  42  41  40  39  36  32  30  29  28  28  26  23  21  21  21  21  19  20  20  21  22  27  30  32  38  49  48  77 120 135 143 160 171 174 173 173 173 173 173 172 172
 175 174 173 160  65  45  38  36  30  30  31  37  42  45  42  35  32  30  28  24  25  24  26  26  28  31  32  35  38  41  44  46  46  47  47  42  38  38  37  36  34  33  33  33  35  39  45  49  53  54  55  56  54  52  51  48  43  38  36  35  34  29  27  26  24  23  21  18  20  19  19  21  25  26  31  39  38  49  83 118 130 146 152 164 172 173 173 174 174 174 174 174
 175 174 173 135  58  40  30  25  26  30  32  39  39  34  32  29  31  30  28  27  27  29  32  34  38  41  45  48  54  61  63  61  60  62  60  58  58  53  53  50  47  46  46  47  49  52  57  61  64  66  68  69  67  66  64  58  52  50  47  44  44  41  36  32  29  26  23  20  21  20  21  22  24  25  30  34  37  58  92 104 114 130 155 169 172 174 174 173 175 175 174 173
 175 175 172 146  58  35  26  26  39  34  34  34  33  30  31  34  35  31  32  31  34  39  42  44  49  58  64  69  74  76  78  75  75  74  74  72  72  69  68  66  63  60  59  61  64  66  69  71  75  78  83  82  81  76  75  70  66  61  58  55  53  50  46  40  36  32  28  25  24  24  23  23  24  26  29  32  41  66  89  95 112 137 163 170 172 173 174 175 176 174 176 175
 175 176 175 152  53  38  34  33  31  31  34  35  35  36  35  37  36  34  36  40  46  52  58  64  71  77  84  88  89  88  89  89  89  86  83  82  81  81  81  78  75  73  73  75  76  79  81  85  88  91  90  92  88  82  81  79  74  71  67  66  64  60  57  52  47  42  38  32  28  26  24  25  25  25  28  31  45  65  71  91 109 142 162 169 173 174 175 175 175 175 175 174
 178 178 175 117  53  44  33  29  27  30  31  31  31  32  38  38  37  40  47  53  61  67  74  78  86  91  95  99  97  96  96  97  95  93  91  90  90  88  87  87  86  86  83  86  88  89  91  93  95  97  96  93  90  90  87  84  81  79  76  72  70  69  67  63  57  54  51  44  35  29  26  25  25  25  28  31  38  47  69  82 141 166 171 173 174 174 175 175 175 176 175 175
 180 179 174 106  55  42  33  28  26  29  32  33  36  39  43  47  48  53  62  69  76  82  89  96 102 106 109 111 109 108 107 102 100  96  95  96  96  93  92  91  92  91  92  92  93  92  96  98  99  98  96  93  92  92  90  87  86  82  81  80  78  76  74  70  66  62  62  55  44  33  30  27  26  27  28  30  36  44  70 109 162 172 174 174 174 174 174 175 177 176 176 175
 184 183 180  91  45  32  28  29  30  32  36  37  39  40  49  53  58  68  75  83  93  98 103 108 112 117 119 119 116 114 113 110 108 103 100 102  99 100 102 100  96  94  94  95  94  94  96  97  98  98  99  99  98  94  93  91  89  86  86  85  83  80  77  74  70  69  68  67  55  41  32  27  26  27  28  29  35  56 100 136 165 170 174 174 174 175 176 175 175 176 176 174
 188 185 178  67  39  32  30  31  33  37  38  39  41  44  56  64  73  80  87  96 104 108 109 115 122 126 124 124 121 118 117 116 115 112 111 108 108 108 108 106  98  94  96  96  99  98 100 103 105 106 107 106 104 100  96  92  92  91  90  89  87  83  80  79  78  76  74  74  67  51  34  29  26  27  27  28  33  54 103 149 165 170 173 174 173 177 175 176 176 175 175 175
 200 197 169  69  40  35  32  32  36  38  38  40  45  55  70  80  86  92 102 107 112 115 117 121 127 129 129 126 126 123 121 118 117 116 115 113 115 114 112 110 108 104 101 103 106 108 109 113 113 113 111 109 105 102  97  95  97  97  96  93  93  90  86  82  81  80  78  77  74  60  39  29  26  27  26  27  31  44  96 153 167 172 172 176 176 176 177 175 175 176 175 174
 204 203 168  69  42  35  33  35  35  35  38  43  47  61  75  91  94 104 112 116 119 123 124 126 129 129 126 125 126 124 123 119 119 115 116 116 114 115 112 112 112 109 106 108 111 112 114 114 113 111 108 105 104 104 101 102  97  94  96  96  96  97  92  87  85  84  82  81  77  66  44  32  28  26  26  27  30  36  78 145 165 171 172 174 174 176 176 176 176 175 176 176
 204 202 170  55  41  33  32  34  34  34  39  45  51  72  88  96 101 114 118 120 121 126 128 130 130 130 130 125 123 124 123 119 117 118 116 120 116 115 115 114 114 111 111 113 112 113 114 112 112 110 108 105 105 104 108 107 103  97  95  96  96  93  93  90  89  90  87  85  80  71  53  38  30  27  27  27  28  33  61 141 166 170 172 173 176 176 176 176 175 176 176 176
 193 192 162  51  39  39  37  34  34  36  42  47  63  77  95 100 106 113 119 123 127 127 130 131 130 128 129 125 124 124 122 120 122 122 121 118 116 118 115 118 114 114 113 114 114 116 117 113 112 108 100  99 103 103 106 104  99  96  94  93  93  95  95  91  90  95  92  87  83  76  62  44  32  27  27  30  29  30  40  95 167 172 172 175 176 177 177 177 176 176 176 174
 189 188 158  48  43  40  35  31  33  36  43  49  69  86  97 103 108 114 121 125 125 128 127 129 131 129 129 127 124 124 124 122 124 124 122 120 121 122 122 121 116 115 113 115 118 118 119 114 111 102  94  95 104 108 111 112 111 108 109 108 104 106 105 100  99  98  96  90  87  79  68  53  34  29  27  29  29  28  37  65 152 170 175 174 177 177 178 177 176 176 176 175
 185 180 124  51  43  36  35  35  36  39  45  57  73  90  98 108 108 113 120 122 126 129 130 130 131 132 130 130 128 127 127 125 126 124 125 124 125 122 122 120 119 118 117 116 120 120 116 113 112 110 109 115 118 122 124 124 125 122 119 115 111 110 110 107 104 102  99  94  89  83  72  57  38  29  26  28  29  27  38  56 126 172 175 176 176 176 176 177 176 176 176 175
 182 178 114  48  38  31  34  34  37  40  48  58  75  91 102 109 108 111 118 124 127 128 132 134 134 134 134 134 131 124 123 128 128 127 128 130 128 125 125 123 122 121 119 120 122 120 118 121 121 124 124 126 124 130 129 126 127 122 118 115 115 115 112 109 109 106 101  94  88  84  75  66  45  30  28  27  28  27  36  91 133 164 175 176 177 177 177 178 176 175 177 177
 181 174 133  50  37  36  33  35  37  41  49  62  82  95 102 111 115 115 119 126 129 130 132 130 133 135 135 135 128 106 110 122 128 128 129 130 131 130 128 127 126 124 123 122 124 125 128 130 131 130 129 128 128 129 130 131 125 121 119 116 112 111 108 104 103 103 103  94  85  84  78  68  49  32  27  27  28  28  34  96 158 170 175 176 176 176 177 177 177 176 177 177
 179 174 142  61  39  37  33  35  36  41  52  68  90 101 109 115 118 123 127 131 131 131 131 129 132 136 136 138 134 120 117 125 129 130 130 127 127 131 128 127 125 125 123 124 127 131 135 133 129 128 127 126 130 133 131 123 118 118 119 112 107 106 105  99  94  90  94  96  88  81  77  71  56  36  28  27  28  29  38 103 160 173 175 175 176 176 177 176 176 177 176 177
 182 175 144  65  41  35  33  34  36  45  59  73  95 104 111 117 121 126 130 130 131 132 134 134 136 137 138 139 140 137 136 134 135 134 130 131 129 128 129 130 128 126 128 124 129 133 135 134 127 125 128 132 135 130 124 120 116 117 114 105  99  97  95  92  92  89  83  84  87  81  79  75  62  40  29  27  28  29  39 129 161 174 176 177 177 177 178 177 176 176 177 177
 182 176 163  65  39  35  32  32  37  48  63  79  96 105 112 116 123 126 127 128 132 133 134 135 135 138 139 141 142 142 142 140 139 136 131 129 131 130 128 127 127 130 129 129 132 130 130 129 126 128 132 131 129 126 117 114 110 105  96  86  78  72  71  72  72  72  72  72  76  82  81  76  64  44  29  26  29  30  39 119 166 174 176 177 177 177 177 178 178 178 177 177
 181 178 175  71  41  33  31  33  39  48  64  82  98 108 113 118 121 125 128 130 128 131 133 137 136 140 139 143 143 144 142 141 140 134 134 134 132 130 128 128 129 128 128 128 129 130 125 126 126 128 126 117 114 110 106  96  84  77  74  66  59  55  50  49  48  48  54  59  68  80  81  77  72  51  31  25  27  32  46 115 165 173 175 176 176 176 177 177 177 178 177 178
 178 179 173 115  45  33  30  34  35  46  64  83 102 108 114 116 121 125 132 132 131 134 136 136 135 135 134 139 139 141 138 134 132 132 134 131 130 129 128 128 128 128 127 127 127 125 123 124 122 120 110 101  99  92  79  72  63  54  49  43  37  35  33  32  31  34  36  42  49  68  78  76  72  55  32  25  26  31  45 115 165 175 176 176 176 175 176 176 176 176 177 177
 178 178 177 130  48  32  29  32  35  43  66  87 103 108 113 117 121 126 134 136 138 134 130 130 129 127 124 127 125 129 128 127 126 126 124 124 123 124 126 125 125 125 123 125 124 123 123 123 115 111  99  92  77  65  50  42  37  37  35  32  31  30  29  28  28  28  28  31  37  48  60  71  72  56  33  25  26  32  48 149 170 175 176 176 176 175 176 176 176 176 176 177
 178 176 175 138  48  34  32  32  36  45  70  93 107 112 112 117 124 130 130 125 125 117 116 116 116 116 116 117 119 118 115 114 118 118 117 117 114 113 119 119 118 119 120 121 122 122 120 118 107  98  82  76  56  42  32  29  27  25  23  23  22  24  23  24  24  25  26  27  30  37  42  56  67  61  32  24  27  34  51 154 174 176 176 176 176 176 176 176 177 177 177 176
 177 175 173 148  51  37  33  33  32  47  76  97 109 111 112 119 123 119 107  96  91  92 101 102  97 100 104 101 101 104 102 103 101 102 105 103 100 104 106 102 109 112 113 115 115 111 110 110 101  85  68  60  44  31  26  23  21  19  20  20  18  19  19  20  24  24  24  26  26  31  35  47  64  60  34  24  26  37  61 166 175 175 178 176 177 176 177 176 176 177 177 176
 178 176 174 155  74  42  33  31  31  50  84 100 109 110 112 113  98  78  69  68  66  71  71  67  66  77  73  69  65  66  61  60  63  70  71  77  80  85  93  95  97 100 103 105 104 102  99 101  93  77  60  46  34  28  25  21  19  19  20  20  19  21  24  28  28  27  27  29  28  31  34  42  58  66  35  24  26  39 101 170 175 176 176 177 176 175 178 177 176 177 177 175
 178 177 176 162  93  42  34  32  33  55  89 102 108 104 101  88  67  60  56  58  57  52  49  46  47  48  44  40  38  38  40  38  37  42  47  55  59  68  78  84  88  91  96  99  95  92  93  93  85  68  52  44  33  29  25  24  22  20  21  24  29  33  38  41  42  43  41  41  39  37  36  40  53  66  38  24  28  43 140 170 176 175 176 177 177 176 176 177 177 177 175 176
 177 177 177 172 112  43  35  32  33  59  91 104 107 100  89  80  66  53  47  46  43  41  37  34  34  32  30  29  28  27  26  30  26  28  31  31  39  53  66  74  80  87  90  92  93  92  87  87  79  62  51  41  32  29  27  25  24  23  28  33  39  43  46  49  51  53  53  53  53  49  42  42  51  63  41  24  29  58 148 174 177 176 176 175 177 177 176 176 176 177 175 176
 179 178 177 174 138  44  36  33  35  67  97 108 107  89  78  64  49  46  45  44  48  46  43  43  36  33  28  25  25  24  22  22  22  22  25  27  29  37  49  60  68  81  85  88  92  88  90  84  77  56  45  37  32  30  29  30  28  31  34  36  40  43  45  46  48  49  49  53  58  62  56  50  54  66  46  27  31  82 162 174 176 176 176 176 178 177 177 175 177 176 176 176
 177 177 177 175 158  64  40  43  50  68  80  78  70  64  58  49  47  41  37  34  30  32  33  32  35  35  36  36  34  35  32  32  29  29  25  25  29  31  39  49  57  72  79  86  87  83  83  79  68  51  43  36  35  33  33  33  32  33  34  33  34  35  35  38  40  41  44  47  52  60  63  54  56  70  53  28  31 115 167 174 176 176 176 176 176 176 175 175 176 176 176 176
 177 177 177 176 170 101  43  40  34  30  29  29  30  29  40  46  52  54  50  44  44  37  36  37  41  37  35  33  31  30  28  27  27  27  30  33  35  36  38  45  52  65  75  82  79  78  74  69  58  47  42  36  34  35  34  32  35  34  34  34  29  28  29  30  27  26  26  26  28  30  32  36  40  53  49  30  41 135 170 174 175 174 177 176 175 176 175 176 176 177 176 176
 176 177 178 176 174 136  40  30  26  24  25  27  62  73  63  55  55  52  51  48  45  42  39  39  39  39  38  36  36  34  36  34  35  36  36  29  24  24  28  32  37  51  66  74  76  74  70  59  48  42  38  36  33  32  30  26  24  23  23  23  25  28  32  33  31  28  31  35  37  39  39  34  25  24  23  24  28  71 105 130 165 172 174 175 176 175 176 176 176 176 175 175
 177 177 177 176 175 154  44  30  26  24  30  71  96  84  67  56  52  56  54  50  48  44  40  35  33  32  33  30  28  26  27  31  37  39  41  42  42  35  25  21  20  28  34  32  34  33  31  26  23  24  22  20  19  22  25  24  26  28  31  32  32  33  32  38  36  29  28  34  39  44  49  54  60  55  51  26  24  25  28  28  38 166 175 176 176 175 176 176 176 175 176 175
 176 177 176 178 177 169  63  30  26  25  40  88  95  76  61  57  54  54  52  48  43  37  34  37  36  38  36  32  30  27  27  27  28  33  39  43  44  45  46  28  19  24  26  24  21  19  19  19  19  19  19  24  29  29  27  26  28  27  26  24  24  26  26  30  33  35  32  31  37  42  48  53  62  59 109 155  52  25  24  25  27 165 174 175 176 176 176 176 175 175 176 175
 178 179 177 178 177 173  86  30  26  27  41  65  89  72  59  57  55  53  48  41  33  37  42  35  28  27  25  24  23  23  24  26  27  29  34  40  44  46  49  44  22  23  24  23  20  18  18  18  20  19  27  31  31  28  25  25  23  25  23  21  23  30  38  33  26  25  32  30  34  41  47  53  60  60  80  69  42  30  23  24  28 164 173 175 176 175 175 176 174 175 176 174
 178 177 177 178 177 175 118  33  26  28  34  52  76  64  57  56  52  48  42  33  36  35  28  33  42  34  24  23  20  21  27  24  25  29  31  36  42  46  49  55  26  22  22  24  22  18  18  18  20  23  33  31  29  28  26  26  31  24  20  22  22  21  34  47  37  28  24  28  32  39  47  52  55  50  26  26  31  42  23  24  30 165 175 175 176 176 176 176 176 176 175 175
 178 176 176 177 175 171 148  55  28  29  33  47  71  66  58  55  48  44  37  31  34  26  33  54  54  35  32  23  19  18  22  34  31  28  32  34  40  46  51  56  28  23  23  25  24  22  19  18  19  27  32  30  29  28  28  34  34  21  22  17  16  20  23  44  45  34  28  25  29  39  47  50  52  46  24  24  28  48  25  25  36 167 174 175 176 175 175 176 176 175 174 175
 178 177 178 176 162 146 138  73  34  29  50  57  77  71  64  56  48  43  36  32  28  32  48  62  49  29  31  24  22  22  25  40  42  38  35  41  43  49  54  60  28  26  26  35  38  34  25  20  20  29  35  36  32  27  31  37  36  22  19  20  17  21  23  41  45  36  30  28  30  37  44  51  57  54  30  23  24  53  27  26 128 171 175 175 176 176 175 176 174 175 175 175
 177 177 179 172 123 123 115  84  42  31  61  81  90  83  74  65  55  46  36  33  34  38  52  68  54  30  29  32  28  29  31  47  48  43  38  43  53  59  66  61  29  24  34  61  81  66  37  24  22  34  45  44  36  31  34  38  42  25  22  19  21  25  26  43  43  38  34  34  36  43  48  55  62  64  46 108 163  96  31  82 170 174 175 174 175 175 176 176 176 175 176 175
 178 178 179 168  88  80  97  69  50  30  62  99 102  95  87  74  63  51  45  43  44  47  49  57  60  35  32  29  29  32  37  49  45  39  38  43  53  69  69  55  29  27  85 124 126 115  73  28  23  32  45  43  35  34  33  34  38  31  27  24  25  27  35  45  44  41  42  41  43  50  54  61  66  74  57 139 167 106  33 131 170 175 175 175 175 176 175 175 175 175 175 175
 178 178 178 173  91  70  82  68  62  28  62 110 107 102  98  92  79  70  66  60  63  60  64  60  62  58  57  52  52  46  48  49  49  48  48  50  60  71  69  46  23  88 139 146 148 144 120  54  24  29  44  45  44  43  39  36  37  37  40  40  45  43  40  42  47  49  46  47  49  58  60  67  73  79  68 122 165 110  41 162 172 175 175 175 175 175 174 175 176 176 175 174
 177 178 178 174  98  70  79  72  73  37  49 118 110 107 108 105  97  88  78  71  75  77  80  77  73  67  66  61  56  52  52  51  50  48  49  53  64  73  70  35  41 140 154 156 154 150 136  94  24  24  44  45  43  41  39  36  36  37  41  42  46  47  48  46  45  47  48  51  54  62  66  72  79  83  77 110 164  97  63 169 172 175 176 175 176 175 174 175 175 173 174 174
 178 179 178 176 101  70  90  76  80  66  36 109 112 111 113 110 109 101  91  78  71  72  82  85  78  80  75  70  67  60  56  52  49  49  51  56  67  74  65  28  68 139 158 161 156 151 140 105  45  23  42  47  42  41  40  37  37  39  45  49  52  52  52  52  52  50  51  53  60  70  75  80  81  84  83  98 164  79  64 167 174 174 174 174 175 175 174 174 174 173 174 173
 179 178 179 175 103  71 109  87  94  95  30  88 114 113 115 116 117 114 104  94  83  69  68  72  75  75  71  66  60  54  52  52  55  58  59  67  77  83  48  25 103 142 158 160 159 155 132 107  67  22  35  56  48  43  43  41  40  41  44  47  51  51  52  50  48  47  49  58  68  75  80  84  86  85  83  89 162  47  71 164 173 174 175 173 175 174 174 175 174 173 175 172
 179 179 180 174 104  88 120  93  97 126  39  54 115 114 116 117 117 111 104  94  90  83  73  66  63  63  60  56  55  56  60  66  68  73  78  89  93  76  33  51 119 146 161 160 161 155 131 107  82  31  26  54  59  55  49  47  46  46  46  47  49  48  48  48  49  54  60  71  77  80  82  82  85  85  86  96 121  44  83 166 171 173 175 174 174 175 174 174 174 173 173 173
 179 178 178 176 117 109 113  94 102 127  74  34  93 111 113 113 118 112 106 103  95  86  79  72  71  71  71  72  73  73  76  79  87  96 101 101  93  48  25  83 124 144 161 162 161 151 129 106  86  52  24  46  61  61  61  58  57  56  55  54  58  58  58  61  65  72  77  85  86  85  83  80  82  84  87 107  63  61 106 168 174 174 175 174 175 174 173 174 173 173 172 172
 180 179 179 177 127 111  97  90 104 128 121  40  46 109 113 116 114 112 111 110 107  96  89  90  90  90  86  88  87  89  92  92 103 109 104 101  73  36  33 111 125 144 158 163 161 142 126 107  88  76  23  28  61  63  65  70  73  71  69  70  71  72  73  78  82  87  96 100  95  91  85  83  81  82  84  88  38  71 116 169 174 174 174 174 175 174 175 175 173 172 173 173
 179 180 180 177 158 110  84  79 100 130 128 101  36  57 103 113 111 118 117 117 112 102  97  99  95  96  96  99 100  99 101 104 107 109 105  80  45  39  68 120 127 141 156 163 160 140 123 106  92  82  47  21  44  67  66  68  74  79  81  83  87  86  92  95  99 103 103 104 101  93  87  85  83  82  82  43  47  67 127 170 172 172 173 174 174 173 173 173 172 172 173 172
 179 178 179 178 166 108  78  71  93 129 133 126 101  44  37  72 101 118 126 121 117 112 112 109 108 106 108 110 108 109 110 112 111  90  65  46  45  55 100 123 129 140 155 162 159 141 119 108  92  86  75  24  20  53  71  69  72  78  82  88  88  89  96  97  97 100 102 101 101  98  94  89  84  72  52  39  62  72 138 169 172 172 174 174 174 174 172 173 173 172 172 172
 179 179 179 178 173 113  80  69  92 129 134 130 123 115  81  43  34  50  68  79  91  92  95  91  94  97  96  91  89  83  77  68  54  44  32  56  79  73 116 124 132 143 155 163 159 139 120 105  91  85  82  56  25  26  46  59  76  81  85  88  89  91  96  97  98 100  99  99 101 100  84  64  48  35  37  77  69  82 145 169 172 173 173 172 173 172 173 172 173 174 171 172
 178 178 180 180 175 135  97  76  93 131 136 132 125 123 121 121 114  88  62  44  32  38  43  49  52  52  50  48  44  42  38  28  34  53  81  88  70  99 122 128 138 145 156 161 157 135 117 105  95  88  84  74  44  36  20  32  36  52  57  64  69  77  74  76  73  66  62  58  49  40  35  28  28  52  79  85  75  89 144 169 171 172 172 173 172 172 174 173 172 171 172 171
 178 179 180 179 178 153 123  85  92 128 136 130 124 122 121 131 135 140 137 131 117  99  85  69  59  54  50  52  60  69  79  92 102 100  90  80  83 116 126 134 142 153 160 161 155 132 119 107  98  93  87  79  63  53  61  38  21  22  30  36  37  36  37  36  34  33  28  24  30  39  56  78  91  89  87  86  88  93 146 170 171 171 171 173 172 172 173 171 171 170 170 170
 179 179 180 179 178 163 128 121 109 128 132 130 125 122 127 141 142 143 137 130 121 115 109 104 100  94  93  91  92  95  94  94  92  87  82  78  99 115 123 136 142 156 160 157 148 133 123 110 100  90  83  81  68  56  67  77  80  76  62  60  56  55  56  59  66  74  80  92  97 102  98  99  94  91  91  86  93  86 138 168 171 171 170 171 171 172 171 171 170 172 170 169
 178 179 178 178 177 161 126 134 152 132 131 130 127 129 135 141 141 135 133 128 120 115 111 103  97  94  91  89  89  91  90  90  86  82  81  86 105 113 123 137 145 155 158 153 143 132 122 112  97  87  83  76  69  59  63  71  79  83  85  89  93  93  93  94  95  97  95  94  96  96  94  93  93  91  89  85  93  91 142 167 170 170 171 171 172 170 170 171 172 170 171 170
 178 179 178 178 178 162 133 139 150 134 131 131 127 133 143 138 136 131 130 125 117 114 112 105 101  95  93  93  94  92  94  94  91  89  87  94 108 109 123 137 148 155 156 148 141 129 121 110  95  84  82  77  70  63  62  66  71  75  80  81  85  86  84  85  85  86  88  87  87  88  86  85  89  91  90  83  93 107 141 167 170 170 169 170 171 169 171 170 170 171 170 171
 177 177 177 177 177 164 146 144 131 125 127 128 126 139 145 136 130 130 128 123 115 113 112 107 101  96  95  95  97  97  97  96  96  95  92 103 112 115 128 140 148 153 149 142 135 126 120 113  95  84  85  86  81  68  64  62  65  70  74  76  76  77  77  81  81  82  82  83  84  84  85  82  84  90  90  83  88 104 134 165 169 170 170 169 169 171 170 169 170 169 169 168
 176 176 178 176 176 167 156 142 119 120 125 125 128 144 142 132 128 128 129 124 120 115 110 105 101  98  98  97  99  99 101 100  99  98  98 113 122 124 134 141 146 147 142 134 127 124 115 107  98  86  86  92  97  87  67  66  65  68  71  73  73  75  79  82  82  83  83  84  84  82  82  80  81  87  91  87  90 100 114 160 168 170 170 170 170 170 170 169 170 170 170 168
 176 176 178 177 177 170 155 144 133 127 126 121 130 141 139 132 128 130 129 128 124 121 114 109 104 100  97  94  96  97  98  99  98  99 110 129 127 130 137 142 144 143 133 123 121 119 109 102  96  88  91  96 100 100  83  68  66  67  71  73  73  74  77  78  80  80  82  82  82  82  79  76  77  82  89  87  92  96 104 152 168 168 169 170 170 169 169 169 169 168 169 168
 174 175 175 176 175 166 151 149 147 139 124 118 134 139 134 133 130 130 130 131 126 124 122 114 107 101  95  93  92  92  96  98  98 100 123 132 127 132 135 142 144 139 128 119 115 112 105  98  92  90  92  95 100 106  99  71  66  65  67  71  70  72  72  75  78  80  81  79  79  78  74  71  73  80  88  84  87  91  98 159 167 169 168 170 169 170 169 168 169 169 169 168
 174 175 174 176 175 167 143 147 145 140 124 117 133 136 131 129 128 129 125 123 119 119 117 112 104  98  92  89  90  93  98 104 102 110 130 131 127 127 130 136 141 136 123 116 114 110 101  90  88  87  91  91  98 102 100  80  64  68  67  68  69  70  72  74  74  76  76  78  76  75  73  70  70  75  86  84  84  86 131 163 168 169 169 169 168 168 168 168 168 168 168 168
 173 174 174 175 174 170 138 131 134 133 123 119 131 133 127 123 123 123 121 116 116 114 110 107  97  91  86  86  92 101 107 109 107 110 121 123 118 114 115 120 126 120 113 111 111 104  92  85  80  77  81  80  86  92  91  80  64  69  69  69  69  68  70  72  72  72  76  74  74  73  72  71  70  72  85  77  73 101 161 167 168 168 169 168 168 169 169 168 169 168 167 168
 172 173 173 174 174 173 162 121 117 115 117 119 128 129 120 118 118 118 118 115 112 108 101  93  87  79  73  80  97 109 114 113 105 103 104 103  99  96  89  95 108 106 103 102 104  98  87  75  67  61  65  71  73  73  74  68  64  70  70  70  66  65  65  68  66  66  68  71  72  73  72  72  69  72  85  76 107 158 166 168 168 168 168 168 168 168 169 168 168 168 167 168
 173 172 172 173 173 174 170 152 100  95 108 120 126 126 115 112 114 113 111 111 107 100  92  81  73  67  66  80  95 109 114 110 111 106  92  77  65  65  65  76  89  95  89  91  95  91  79  63  53  50  52  51  53  56  58  54  62  69  67  66  62  57  55  58  58  54  58  63  68  71  70  71  65  70  89 149 163 167 168 168 168 168 167 167 168 167 168 168 168 168 167 167
 171 173 172 172 173 173 172 171 158 119 113 122 126 121 110 108 110 108 104 101  95  87  76  69  60  55  63  82  97 104 107 105 107 108  95  78  62  58  58  60  81  88  81  78  82  77  66  55  44  34  35  36  38  44  49  53  58  64  64  62  56  52  47  47  49  51  54  59  61  66  68  69  62  67  88 154 166 168 168 168 168 167 166 167 167 167 166 167 167 166 166 167
 170 170 172 172 171 174 172 172 171 169 160 126 126 115 102 105 103 102  98  94  86  74  64  55  49  51  64  83  95 100  97  96  99  98  90  85  73  67  70  68  69  79  75  67  68  66  58  45  42  38  40  38  41  45  48  51  54  57  57  55  51  48  41  40  40  43  49  50  55  62  66  67  57  69  98 158 166 167 167 167 166 167 166 166 166 165 165 166 166 166 166 167
 169 170 170 171 170 172 172 172 171 170 163 133 123 110  96 103 103 100  93  83  72  60  49  43  44  48  61  77  86  91  88  92  93  88  79  76  69  64  64  69  66  66  68  60  58  55  48  41  43  41  39  39  39  41  44  46  51  52  52  52  49  43  36  33  33  35  41  43  48  55  62  62  58  69 105 160 166 167 167 166 167 165 165 166 164 164 167 167 166 166 166 166
 170 170 170 169 170 170 170 171 169 170 166 137 122 108  91  99 102  95  84  72  55  40  35  37  44  48  62  76  83  84  82  76  80  76  71  61  53  51  48  54  54  56  61  56  49  45  42  41  37  34  31  30  30  31  34  38  40  49  48  45  41  36  29  27  25  27  30  36  42  53  62  59  61  70 117 161 167 167 166 166 166 166 166 166 163 167 165 165 164 165 166 164
 169 170 170 168 168 168 170 169 169 170 167 144 120 108  88  93  99  90  76  60  37  30  29  36  41  47  53  70  76  77  73  65  67  62  55  46  42  39  38  43  42  44  47  46  44  42  37  31  27  27  25  26  25  26  27  31  34  38  40  37  31  28  26  21  21  23  25  31  40  53  61  55  65  73 133 164 166 168 168 167 166 166 166 164 164 164 164 165 167 163 164 164
 168 170 169 167 167 168 169 168 168 167 167 149 119 109  90  85  94  85  69  48  27  26  26  30  34  37  41  55  58  62  61  54  57  55  51  39  35  30  30  34  30  29  34  40  43  43  32  23  23  24  21  21  23  22  23  25  32  30  33  32  28  24  22  21  20  22  22  26  42  56  60  58  67  81 150 162 165 167 166 165 165 165 165 165 163 163 164 164 164 164 164 162
 166 167 167 167 166 167 168 167 167 167 165 154 115 105  92  80  91  83  68  44  26  25  24  25  29  26  37  43  45  50  48  48  45  48  42  33  29  27  26  26  23  23  26  29  35  34  25  19  19  20  20  18  18  19  21  25  28  26  29  29  27  20  19  21  23  23  23  28  41  56  54  60  69 102 158 163 165 163 163 162 163 164 164 162 162 162 162 163 163 164 163 162
 166 165 165 165 166 166 165 165 165 166 164 160 117 104  94  79  84  82  70  47  27  25  24  22  22  23  32  32  37  41  48  43  42  43  39  34  31  28  24  25  24  22  23  25  28  27  22  16  18  19  22  18  17  18  22  24  25  25  25  27  24  22  27  29  31  31  34  39  47  52  55  64  72 134 157 162 163 164 163 162 160 160 161 162 161 161 163 163 163 162 162 160
 166 165 165 165 165 165 166 165 165 165 165 161 129 104  96  83  75  81  73  54  39  30  29  24  25  25  28  28  35  39  42  41  42  43  40  33  31  28  26  26  22  23  22  22  24  24  20  19  19  21  24  24  22  20  23  24  27  28  27  23  22  27  37  41  38  39  48  53  53  54  60  67  88 151 160 162 162 162 163 161 161 160 161 160 161 160 161 160 163 163 162 161
 164 164 164 164 163 162 163 164 162 164 164 161 143 100  95  86  75  76  74  64  54  45  42  38  36  39  42  40  37  36  37  40  41  41  41  34  29  28  32  26  20  25  21  22  25  27  26  21  18  23  27  27  27  24  24  25  29  26  22  24  28  40  46  48  45  47  53  55  52  54  64  70 123 156 159 162 163 161 162 161 161 161 160 161 159 157 158 160 160 161 161 161
 162 162 162 161 161 162 161 162 162 161 162 160 156 106  95  86  79  70  71  70  61  57  58  52  49  62  69  68  57  43  36  37  37  40  41  39  32  29  34  32  24  28  25  28  30  31  36  32  25  27  30  30  30  29  29  28  22  23  26  32  41  50  52  52  49  52  53  57  52  58  66  76 149 157 160 161 161 161 162 161 160 158 159 161 160 159 160 158 157 158 158 159
 161 161 160 160 161 161 161 161 161 160 160 159 157 120  92  86  83  75  70  72  69  63  67  64  62  76  85  84  80  75  58  50  45  38  36  44  43  40  37  35  29  33  33  35  37  36  40  38  33  32  31  33  34  34  38  24  25  31  36  45  52  56  59  54  52  55  58  60  56  62  67 101 153 157 159 160 160 160 161 161 161 159 160 160 159 159 159 158 158 158 156 157
 159 159 160 161 160 159 160 159 161 160 159 159 158 141  93  86  86  80  71  71  76  73  72  67  73  82  92  95  94  88  84  73  65  56  43  48  57  56  65  61  53  47  47  42  40  36  37  42  43  45  42  44  36  30  32  31  34  38  44  53  57  60  62  56  52  54  60  57  57  63  66 134 155 158 159 160 159 158 158 160 160 158 158 159 159 159 158 157 157 156 158 157
 158 159 159 159 159 159 158 158 159 160 158 158 157 152 102  86  82  81  77  73  78  81  76  76  77  84  91  98  98  97  96  91  76  70  66  59  52  42  69  78  73  74  77  71  64  55  62  65  65  61  44  36  29  28  34  39  41  46  49  53  60  62  60  55  54  55  60  56  61  64  91 150 156 156 157 157 157 157 158 158 158 157 159 157 157 157 155 156 156 157 157 157
 159 158 158 158 159 158 159 159 158 158 158 158 157 156 124  87  80  79  82  79  75  84  84  80  80  85  89  96  99 100 103 100  90  78  75  73  64  50  48  61  61  63  73  72  61  51  60  65  60  51  34  33  35  40  44  45  48  55  56  57  62  60  60  56  57  60  57  55  61  67 133 154 156 157 157 155 156 158 158 158 159 156 157 157 157 157 156 155 156 156 155 155
 157 158 158 159 159 159 159 158 158 157 157 157 158 156 144  93  83  79  80  85  80  78  87  87  83  85  90  98  99  98 101 104 103  89  81  82  79  72  66  58  53  53  53  49  46  44  46  47  47  48  47  47  47  50  50  49  53  60  57  60  60  56  56  54  56  61  55  57  63 101 150 155 154 155 154 156 156 156 157 155 157 158 157 156 158 156 155 154 154 155 154 156
 158 158 158 158 157 157 158 157 157 157 157 158 157 156 153 117  88  81  79  81  79  76  80  88  90  82  86  95  97  94 100 104 102 101  91  85  86  85  80  76  70  64  60  58  58  60  60  62  60  60  57  55  50  51  49  53  59  60  58  59  58  54  56  56  59  57  55  59  80 144 153 155 154 156 155 156 156 156 155 157 156 157 157 155 156 155 156 155 156 154 155 155
 158 157 158 156 158 157 157 158 156 157 158 156 157 155 155 145  91  85  81  76  77  76  76  86  95  94  93  93  95  96  99 100 100 100  98  91  83  80  78  77  78  75  70  66  65  64  66  67  65  59  55  50  48  50  57  56  60  60  60  59  56  52  55  61  60  53  57  63 128 152 155 155 154 155 154 155 156 156 155 156 156 156 157 156 155 155 155 155 155 154 155 154
 156 157 155 156 157 157 156 157 157 156 155 155 152 154 154 152 123  78  81  78  72  74  75  80  95  96  93  95  97  97  94  97  97  97  98  97  92  83  72  67  68  67  64  60  59  58  60  62  58  54  53  53  53  55  61  61  58  59  60  58  53  54  56  60  57  54  56 104 150 154 155 155 155 155 155 155 155 155 156 156 155 154 155 154 154 154 155 154 153 153 155 154
 157 156 155 156 155 153 155 154 155 153 154 153 152 152 153 152 150 106  80  82  78  76  77  80  84  97  97  95  93  96  92  96  98  95  95  95  92  88  81  72  69  66  64  63  65  64  64  66  61  59  59  57  55  57  57  57  56  57  56  59  58  58  57  63  56  54  76 143 152 154 154 154 154 154 154 154 154 155 155 155 155 155 155 155 155 154 155 154 154 153 153 154
 155 153 153 154 153 153 155 154 154 152 152 154 152 152 152 151 151 145 104  82  79  77  75  82  82  92  93  94  94  97  93  92  91  93  91  88  85  87  85  79  74  73  71  68  69  67  66  66  61  59  56  52  51  50  55  53  53  56  56  60  61  62  62  61  51  58 118 149 153 154 154 154 154 155 154 154 153 156 155 154 155 154 155 155 155 154 154 152 154 152 153 152
 152 153 155 154 156 156 157 154 154 153 153 153 152 152 152 152 153 151 140 103  79  80  77  79  85  89  96 101 103  99  95  92  87  93  90  87  81  77  76  76  74  68  63  61  61  62  59  58  56  52  48  45  44  41  49  50  52  53  58  62  66  67  64  58  52  64 128 150 152 152 152 154 153 153 153 153 154 155 154 154 154 154 154 154 153 153 154 152 151 152 151 151
 152 153 155 157 155 157 158 157 155 156 154 154 153 154 153 153 154 152 148 133  89  78  81  79  86  87  97 105 105 100  98  97  88  91  89  87  82  79  75  72  66  55  50  47  51  50  48  47  44  42  38  36  39  38  47  54  55  58  61  64  69  69  64  53  52  68 128 148 150 150 150 151 152 150 150 151 153 154 154 152 154 153 154 153 153 154 154 153 150 150 151 151
 150 152 154 155 156 156 155 155 157 153 155 153 156 154 154 152 152 150 147 138  98  85  82  83  86  89  93 102 104 106 102 102  97  94  89  86  84  81  76  72  63  48  38  36  40  36  35  35  35  36  36  33  35  40  51  53  57  62  64  67  72  70  62  49  53  69  97 116 129 139 148 148 149 148 151 150 150 150 152 153 152 154 153 154 152 151 152 151 150 151 151 150
 151 151 152 153 154 154 155 155 153 152 152 152 152 151 151 148 146 145 142 138  99  88  83  80  80  84  81  91 106 112 108 111 102  97  95  89  88  87  83  72  65  51  39  35  34  31  28  28  30  35  38  39  36  39  52  58  61  68  68  71  73  68  60  50  57  70  58  53  54  61  70  84  95 115 130 145 147 148 149 149 151 152 153 153 151 150 151 152 150 150 150 149
 148 150 151 155 153 154 153 154 152 152 152 149 150 138 125 112 103  97  84  82  96  84  83  81  81  80  76  80  92 106 100 112 113 104  99  94  92  89  85  76  70  57  41  36  35  30  25  24  29  30  36  38  42  46  52  59  65  71  67  73  69  61  53  49  61  68  47  38  39  42  41  44  47  51  51  64  90 119 147 148 150 148 151 151 151 150 151 151 148 150 149 149
 147 149 152 153 152 152 152 152 151 150 133 108  86  72  61  60  57  55  48  53  97  87  80  84  82  78  75  73  87 100  97 108 115 108  99  96  93  92  89  80  71  59  46  38  37  36  28  26  32  33  34  42  47  52  57  66  69  73  71  76  69  57  45  47  62  67  44  30  30  33  34  35  35  40  41  42  45  50  62 100 138 147 149 149 149 150 148 149 148 150 148 148
 148 149 151 151 152 152 151 143 111  82  66  64  60  51  48  44  43  41  37  38  99  92  85  85  82  76  73  68  77  86 104 109 112 115 105 104 101  97  92  85  74  62  52  46  41  39  38  29  34  42  39  41  41  50  60  71  75  75  72  70  62  54  38  46  60  67  48  25  25  28  29  32  32  33  33  35  38  40  41  47  54  98 141 146 149 149 147 147 149 147 147 147
 146 145 150 150 150 145 120  81  70  65  58  50  44  41  37  34  31  29  35  75  99  95  91  90  86  78  74  67  67  82  91  93 102 111 109  97  97  97  89  90  75  75  56  56  46  43  38  40  42  51  48  46  43  51  62  69  76  73  72  69  55  40  31  47  59  67  54  45  28  20  20  22  26  25  28  30  31  32  34  38  45  45  65 127 144 147 148 147 146 147 146 148
 145 146 149 149 124  85  66  64  64  58  50  38  32  28  25  24  27  48  81  81 101  97  93  91  89  80  73  62  62  64  70  84  93 100 100  86  86  84  77  86  85  82  64  67  43  42  43  45  50  52  49  55  47  48  56  63  65  64  63  62  46  30  26  52  62  66  50  48  53  46  38  29  24  19  19  22  27  29  31  34  38  41  46  50 108 142 146 144 145 146 146 146
 145 141 139 101  73  67  62  52  45  38  30  26  31  41  50  58  74  82  88  54 100  97  94  93  91  86  81  68  54  46  57  67  78  86  80  66  64  69  71  78  90  89  72  64  48  44  51  50  54  59  45  56  54  46  46  49  51  54  51  53  37  24  31  49  62  66  51  45  46  51  50  50  48  46  38  28  21  25  26  30  34  37  41  44  47  89 134 143 144 146 144 147
 140 128  88  66  67  62  48  34  30  34  45  56  58  55  64  79  76  89  74  57 101 100  98  95  93  91  85  65  46  41  44  59  68  77  69  54  54  59  67  70  85  84  72  65  54  48  49  50  53  56  46  55  51  47  43  49  51  48  41  35  27  26  41  54  62  66  49  39  45  48  45  42  50  52  48  51  47  36  24  25  29  33  36  41  43  45  56  84 119 141 142 143
 115  77  68  63  60  45  31  28  47  65  67  65  59  67  83  71  84  85  59  97 102  99  99  96  97  92  88  74  54  38  36  43  52  64  54  42  45  50  51  62  71  70  68  65  54  54  48  46  49  49  46  44  43  40  42  44  47  41  36  27  24  30  50  61  65  65  52  35  45  44  49  39  38  45  52  67  68  62  57  37  26  29  34  38  42  43  43  47  48  75 105  98
  73  72  60  58  49  33  49  68  69  75  70  55  65  81  78  80  81  77  51 118 103  98  99  98  96  94  91  87  79  47  36  35  45  46  48  40  47  46  44  52  59  58  58  58  51  45  40  39  40  39  38  37  39  33  37  38  37  32  28  24  24  44  56  64  66  66  56  29  44  46  45  45  32  36  43  51  61  79  87  72  55  29  28  33  37  38  41  41  39  47  51  55
  65  68  55  50  34  70  79  71  70  60  47  63  72  84  73  84  83  71  70 121 103 100 100  98 100  98  96  91  89  74  40  27  34  34  40  40  41  42  41  39  49  47  47  47  38  36  33  34  35  34  36  34  37  33  35  32  30  26  23  22  32  53  61  64  67  66  63  26  41  43  41  48  42  33  38  47  45  44  54  88  82  69  34  27  32  35  40  43  40  44  45  41
  61  69  47  35  82  90  96  65  50  39  59  66  82  80  86  86  81  56  80 118 102 102 103 101 100  98  94  92  89  80  61  47  30  29  34  37  39  41  36  35  38  34  31  30  27  26  28  29  30  31  33  28  33  31  29  24  24  20  23  29  47  59  65  67  67  65  65  31  36  39  40  41  47  37  34  37  42  43  38  56  84  88  79  48  27  36  37  40  41  42  42  43
  69  49  34 106  98 113  93  52  32  50  67  73  83  74  87  81  76  51 105 117 103 100 106 102 102  98  97  95  91  87  82  57  38  29  30  27  31  36  31  29  30  26  23  21  20  21  23  22  22  25  26  23  26  23  24  22  20  23  33  47  57  63  64  65  68  68  66  43  32  41  38  39  45  47  37  31  35  41  39  37  60  81 104  95  69  26  34  35  38  40  39  38
  51  35 113 109 120 104  99  39  41  70  61  76  84  73  78  74  70  47 115 113 103 101 104 106 103 100  99  96  95  93  89  73  50  46  34  29  28  29  25  26  26  21  18  16  17  20  18  16  17  19  20  19  22  18  20  19  25  35  47  56  60  64  65  67  66  68  67  56  25  41  38  34  37  45  46  32  30  34  40  38  38  76 100 122 112  85  26  32  37  40  39  40
  39 103 130 145 112 108  94  34  67  58  60  86  75  70  70  74  73  46 120 114 103 101 104 105 104 102  98  99  96  94  91  84  74  60  41  31  34  30  26  26  27  19  17  16  18  19  17  16  17  17  18  20  26  21  22  31  40  49  57  58  61  64  67  67  65  66  66  64  28  39  40  34  34  42  45  46  29  29  34  42  36  51 102 117 132 124  78  29  32  37  40  39
  89 144 162 148 126 119  62  50  61  49  70  81  68  77  69  79  73  49 119 112 106 103 102 105 104 102 101 100  96  92  89  87  83  72  68  64  60  43  36  37  35  27  20  21  26  26  23  17  20  19  24  31  35  35  41  48  51  55  60  60  64  65  67  66  68  70  66  64  36  37  39  36  33  36  34  42  34  28  29  40  45  39  98 121 126 138 132  76  30  35  38  40
