P2
# Generated by OpenCV 3.4.0
92 112
255
 173 174 174 170 155 126  83  52  45  38  35  35  36  36  39  42  44  41  38  32  30  28  28  29  30  30  32  32  34  29  25  24  21  19  18  19  22  24  26  25  22  20  21  19  19  20  22  23  20  18  19  20  20  21  24  24  23  22  23  25  24  23  21  24  24  23  23  23  25  29  30  35  44  69  74  89 135 116 159 166 170 170 171 171 172 171 171 171 170 169 170 170
 173 173 172 168 158 152  85  45  39  36  38  40  38  39  40  39  38  35  30  27  26  23  21  19  21  21  23  25  27  28  29  34  31  25  22  20  19  21  22  22  26  22  22  23  19  19  20  24  21  20  18  19  21  20  21  21  23  21  19  24  22  21  23  24  22  22  19  21  24  26  26  30  34  45  57  78 125  98 152 161 161 170 172 170 172 172 171 172 171 171 171 171
 172 173 172 172 170 156  66  41  41  38  39  40  39  38  33  30  29  28  26  24  25  26  25  24  23  23  23  22  19  19  21  22  24  25  24  24  23  22  23  23  24  25  25  24  25  22  23  23  24  21  20  20  20  21  20  21  20  21  19  20  22  19  18  21  22  21  20  20  24  24  25  26  30  37  42  68  80  97 142 148 151 169 168 171 171 171 171 170 171 170 170 171
 172 174 174 172 172 117  74  52  47  44  43  39  34  31  29  28  29  30  30  30  30  30  28  26  24  25  25  23  21  20  20  19  19  20  23  24  25  25  27  27  27  29  29  28  29  26  27  25  25  25  25  24  24  24  23  23  20  22  22  19  23  20  17  19  21  20  20  19  22  22  23  24  28  30  36  54  66  91 132 133 150 163 168 171 171 172 172 172 171 170 172 171
 175 174 176 175 170 129  54  56  46  40  39  37  36  33  30  27  27  26  26  27  26  26  26  25  25  24  24  24  23  22  22  22  21  23  25  26  30  31  34  33  34  37  37  35  34  33  32  30  30  28  29  30  28  26  26  25  23  23  22  22  23  20  18  19  19  20  19  18  19  20  21  24  24  26  31  44  64  76 117 127 146 161 170 171 171 172 171 173 172 171 171 171
 176 177 176 175 168 135  68  43  43  44  45  42  33  30  28  26  28  25  24  24  26  25  24  24  25  24  24  24  23  22  24  24  26  28  32  39  44  48  49  51  50  49  51  50  47  44  42  40  38  37  37  36  34  32  32  29  29  27  26  25  24  22  20  19  18  19  19  19  18  19  21  24  24  25  30  39  56  74 103 119 153 168 172 172 170 172 172 173 172 173 172 172
 176 177 177 175 172 142  55  45  41  40  37  33  29  27  27  25  23  24  24  23  25  26  27  27  28  27  29  29  28  27  29  30  34  42  50  56  63  68  69  68  69  67  66  62  59  55  52  50  50  48  48  45  43  40  40  38  38  36  31  32  29  26  24  22  20  20  19  20  21  23  23  23  23  25  28  35  46  69  94 117 161 171 172 173 173 174 173 172 172 173 172 174
 177 178 177 175 167 142  46  52  40  38  38  38  34  30  26  25  24  24  26  27  31  34  38  41  41  36  39  41  42  40  42  47  50  59  70  79  83  84  85  85  84  85  83  79  74  70  66  63  63  61  61  56  55  49  47  46  46  44  39  38  36  30  28  26  24  24  21  22  23  24  24  23  23  24  26  33  42  57  74 134 163 167 171 173 174 173 174 173 172 172 173 174
 179 177 174 172 152 149  76  53  45  49  44  37  32  27  26  25  26  30  32  39  46  52  58  60  62  60  60  60  59  61  63  66  73  82  88  93  93  93  97  97  98  94  93  92  91  86  83  78  75  76  74  69  66  61  55  53  51  51  48  46  43  40  35  29  25  24  23  22  24  24  25  21  23  24  28  33  40  42  70 148 166 172 173 174 174 174 174 173 172 174 175 174
 178 174 173 173 154 124  57  53  51  47  41  33  29  28  29  29  33  40  49  61  68  73  76  76  78  79  77  79  78  80  82  86  92  96 101 102 105 105 103 105 105  99 101 101  99  97  93  88  85  82  83  80  75  70  67  63  60  58  58  56  54  49  42  34  29  27  25  24  25  25  23  21  24  25  27  32  30  31  47 135 163 174 174 174 173 175 175 174 175 176 175 175
 178 175 178 171 142  68  52  51  50  44  36  32  30  28  30  39  47  60  73  81  86  88  91  89  90  94  93  94  93  93  95  99 102 104 106 106 108 111 111 113 113 113 108 105 103  99  97  96  95  90  88  87  84  79  75  69  68  68  68  66  65  55  48  43  37  31  28  26  26  25  22  23  24  24  26  26  24  27  48 105 155 168 173 173 174 174 174 174 175 176 174 174
 180 178 179 162 150  53  48  49  47  44  39  33  32  33  41  55  72  83  91  94  97  98  97  99 100 101 101 102 104 104 105 107 109 110 112 112 115 118 119 118 117 115 112 108 104 101  99 101 100  97  95  94  89  85  83  80  77  77  77  73  71  64  57  50  43  37  31  29  27  25  24  24  24  24  24  22  21  27  45 102 144 166 172 174 174 175 175 174 176 175 174 176
 183 179 178 152 100  54  49  46  43  41  36  35  36  47  61  77  89 100 102 105 106 107 106 107 108 110 111 110 112 112 113 116 114 116 119 121 119 122 120 117 116 114 113 112 108 103 104 103 102 100  97  96  92  90  88  87  87  89  85  82  79  72  66  58  47  40  34  30  28  26  24  24  24  24  25  22  20  22  31  57 126 155 171 174 173 174 175 176 176 175 174 176
 184 183 179 143  82  62  46  40  42  40  36  37  48  66  82  96 105 110 113 115 116 116 114 116 118 117 118 116 116 117 120 120 119 120 123 123 121 121 122 117 117 114 113 111 107 106 108 108 105 101 100  96  94  93  94  93  94  97  95  90  85  79  72  63  52  43  36  30  27  26  24  23  22  24  24  22  19  20  26  38  86 142 162 170 171 174 174 175 176 174 175 176
 190 186 186 183 105  56  44  45  43  39  40  45  63  84 100 109 114 117 121 120 124 123 122 123 125 125 127 121 112 114 120 123 123 123 126 126 124 124 122 120 117 116 116 112 110 111 112 110 109 106 103 100  98  98  97  95  97  99  98  96  92  86  78  68  57  47  37  30  28  27  24  24  23  23  22  23  24  23  25  37  61 127 157 167 172 173 175 176 176 175 175 176
 196 194 193 190 120  70  47  45  43  41  45  61  84 103 112 117 123 125 127 126 129 129 128 128 128 130 129 128 122 121 123 125 128 129 129 126 127 125 122 121 120 117 116 115 114 113 111 110 110 110 110 108 102 102 100  99 103 100  97  94  93  88  82  71  62  49  42  36  31  29  26  24  24  23  22  23  24  27  27  31  45 110 156 169 173 173 175 175 175 176 175 175
 205 205 204 203 174  96  52  46  44  45  53  82 102 112 119 126 127 130 130 130 131 130 131 131 129 130 131 129 127 125 126 128 130 130 127 128 127 123 119 122 122 121 122 118 112 113 112 111 111 112 111 109 104 106 107 107 108 102  99  98  94  90  83  77  67  57  44  37  32  29  25  25  24  24  23  22  23  25  30  32  40  73 154 169 171 174 174 176 176 175 176 174
 207 207 210 211 209  96  53  47  46  51  77 100 114 121 125 128 131 132 133 133 132 132 133 133 131 131 130 131 128 126 129 130 129 127 123 125 125 124 123 123 124 125 124 119 115 115 117 116 116 115 113 110 106 106 110 111 110 106 100  96  93  88  85  83  74  64  50  41  33  30  26  25  24  23  23  22  20  23  29  36  41  50 143 166 171 174 176 175 177 175 175 176
 204 206 206 205 201 127  53  46  50  64  99 113 122 126 130 130 129 132 134 132 133 133 133 133 130 129 130 131 127 128 130 130 131 129 127 126 124 123 122 127 128 126 129 125 120 120 122 120 120 117 118 115 111 109 111 112 109 102  97  94  90  83  84  81  75  66  53  43  35  30  26  25  24  23  23  22  21  20  26  36  42  49 112 166 174 174 175 175 175 175 175 175
 193 194 195 196 175 107  54  46  50  84 113 122 126 130 134 132 131 132 133 134 135 134 134 132 132 131 133 129 127 127 129 130 131 129 128 126 118 117 121 125 130 130 130 126 123 123 126 126 125 122 121 118 112 114 112 108 109 103 102  96  90  82  82  82  77  68  58  46  38  31  27  25  24  23  22  19  20  22  26  31  39  45  83 156 173 174 174 175 176 175 174 173
 188 191 191 191 170  66  51  46  56 100 120 127 128 131 133 134 134 133 135 134 137 136 134 134 136 133 132 131 130 130 132 131 131 129 129 132 127 125 129 132 134 133 132 130 129 130 130 129 126 125 125 119 113 116 113 111 109 105 103  98  92  86  82  79  78  71  59  47  38  30  26  23  24  24  22  19  20  23  27  29  34  40  75 156 171 174 176 175 175 174 176 175
 186 186 189 186 163  72  48  47  66 112 123 129 130 133 136 137 137 140 138 140 139 139 139 139 136 135 136 134 133 130 131 131 130 132 136 136 136 137 136 137 138 136 135 134 134 132 132 131 128 126 126 123 119 117 112 110 108 103  99  96  95  90  87  81  77  70  62  48  37  31  27  24  23  22  23  19  20  24  27  28  34  37  54 141 167 172 174 175 175 175 173 174
 184 184 184 185 160  88  49  49  81 115 125 130 132 137 140 142 141 138 137 143 140 142 142 142 140 138 138 135 133 132 132 135 134 140 140 142 142 141 140 141 141 140 139 137 134 133 134 133 130 129 126 124 121 116 113 110 102  92  95  96  94  90  86  80  77  72  65  52  38  32  27  24  23  23  22  19  20  25  26  28  32  36  49 138 169 175 175 176 176 175 174 175
 183 184 184 184 175  81  52  54  91 116 125 133 135 140 143 143 138 118 127 140 145 142 141 144 142 139 138 136 133 134 137 142 143 143 142 142 142 141 141 142 141 139 137 134 136 136 134 132 131 128 125 121 122 118 117 111 101  92  89  90  89  88  85  82  80  76  70  60  44  33  27  24  23  22  22  18  18  23  26  26  31  36  55 135 169 175 175 175 176 174 175 176
 183 183 183 183 180  94  52  57  99 124 129 136 137 136 144 145 141 132 137 144 145 144 140 142 142 141 140 137 136 137 140 144 144 140 138 141 141 139 138 140 141 138 136 134 134 129 127 129 127 125 123 118 119 120 118 111 103  97  90  86  86  86  86  84  82  77  73  62  48  36  28  23  23  24  23  21  18  20  23  25  31  37  48 130 166 172 174 174 174 174 174 176
 182 183 182 182 179 100  54  63 109 128 134 135 138 142 145 146 150 148 148 149 148 144 144 143 142 141 141 142 141 141 144 143 144 141 136 139 140 141 141 141 134 132 131 132 131 125 119 115 120 121 121 119 116 112 112 108 104  99  93  85  87  85  87  84  81  78  75  65  51  40  29  22  22  24  23  23  20  19  22  25  29  37  50 114 162 174 174 175 174 174 175 174
 181 181 181 181 177 101  56  70 116 128 133 137 142 145 147 148 150 152 153 151 149 145 148 142 141 139 141 143 144 141 142 141 142 140 140 140 140 139 137 133 131 125 122 123 120 116 111 111 110 110 111 114 112 111 106 101 100  98  93  90  86  86  86  83  80  79  74  66  55  42  31  25  20  22  22  20  20  20  21  24  25  35  48 124 162 172 172 174 175 175 176 176
 182 183 183 180 179  94  57  76 120 128 132 136 143 144 146 151 147 149 151 149 148 146 144 140 140 141 140 141 141 140 139 136 137 133 136 135 129 130 131 124 121 118 112 112 105  99  96  91  91  90  90  93  90  90  85  83  89  91  91  93  87  84  82  78  76  77  69  68  59  46  33  26  22  22  21  21  19  22  21  21  27  33  52 122 163 173 174 175 176 175 174 175
 181 181 180 179 177 101  56  77 123 131 134 139 142 140 140 145 144 144 144 141 142 142 140 139 140 141 140 137 138 136 136 132 132 129 124 120 113 116 116 112 109  99  92  92  87  84  79  75  72  68  68  67  64  62  64  67  67  71  82  89  89  84  82  80  80  78  74  71  63  49  35  27  22  22  22  22  21  23  23  22  29  32  47 127 166 173 174 176 174 175 175 174
 178 178 179 178 176 123  58  80 124 133 136 136 134 129 127 131 134 134 138 135 131 132 130 134 136 135 135 134 134 136 134 131 127 121 115 108 105  99  98  90  87  77  68  65  63  54  50  52  49  46  45  43  44  47  47  48  50  54  58  66  76  78  79  77  77  78  79  75  68  54  41  28  24  20  21  23  22  24  24  23  29  31  46 145 169 175 174 174 175 175 175 173
 178 177 176 177 177 134  60  83 122 126 121 118 119 118 120 121 120 120 125 125 124 124 122 120 123 129 128 130 129 132 130 129 122 107 103  97  87  83  69  56  51  50  47  42  41  37  36  36  39  40  36  36  36  37  37  40  39  42  47  44  50  61  73  75  75  76  80  79  71  60  47  33  25  20  22  21  22  24  24  25  28  30  52 140 169 175 175 175 175 175 174 174
 178 177 177 178 177 138  60  82 104 101 100 100  98 102 101 101 106 107 105 107 108 107 106 112 112 120 120 119 120 121 118 120 117  98  85  81  72  56  43  35  32  31  28  27  27  27  27  28  30  30  30  30  30  32  31  31  31  35  38  41  40  45  55  68  75  75  78  78  74  65  52  39  27  23  22  19  21  24  25  26  26  29  48 135 171 175 175 175 175 175 174 174
 178 178 177 177 176 157  61  69  72  73  74  73  73  72  70  69  65  62  63  68  73  81  86  94 100 106 107 113 112 110 108 108 107  92  75  69  57  41  30  28  24  23  22  22  21  20  20  21  22  22  24  26  26  26  27  25  26  26  28  32  36  40  42  54  68  73  77  78  74  66  58  46  32  23  19  20  20  24  25  25  24  27  49 135 170 175 175 176 176 175 175 174
 179 178 177 177 176 172  75  60  64  61  53  53  52  48  43  42  43  41  40  44  48  57  67  79  90  98 100 107 109 106 104 101  96  85  65  56  45  32  29  25  22  19  17  18  18  18  18  18  18  18  21  23  22  24  23  24  25  27  27  32  33  37  41  48  59  68  77  77  75  70  63  52  37  23  20  19  18  24  26  24  24  30  69 143 169 173 175 174 176 176 175 174
 178 178 178 178 178 168  88  56  52  48  42  40  39  36  35  32  31  30  28  31  32  35  46  60  74  87  93  98 103 104 100  93  90  77  59  53  40  30  27  24  22  19  18  19  19  20  20  22  24  26  29  29  29  30  28  28  30  31  30  31  35  35  37  42  50  61  69  72  73  73  68  58  44  27  20  18  18  23  25  22  25  29 101 164 171 174 176 175 175 174 175 175
 178 177 177 176 176 155  79  52  49  48  51  55  55  52  47  45  36  29  27  25  27  28  33  44  58  72  84  92  95  99  94  93  88  73  55  47  34  28  26  26  25  27  27  33  35  37  37  36  35  35  31  29  28  27  26  26  28  28  29  30  31  32  36  40  45  50  62  71  72  74  70  60  50  31  21  18  18  23  25  23  28  34 125 168 173 174 176 175 175 173 173 174
 175 156 125 105  78  56  47  48  50  56  57  62  63  60  55  51  53  51  52  50  45  40  36  37  46  58  75  87  93  92  87  85  79  65  49  40  35  36  35  33  31  29  26  23  25  27  27  29  28  29  29  30  31  34  36  37  35  34  32  28  23  19  19  17  19  23  25  32  34  68  71  64  54  35  21  19  19  23  24  24  30  55 142 169 174 174 174 175 175 175 174 175
  44  35  37  50  79 101  90 101  84  77  67  55  85  60  53  54  46  44  39  38  42  48  54  49  51  52  66  84  85  76  72  64  56  50  44  39  34  29  24  25  27  30  31  32  34  33  32  33  35  37  37  38  36  38  38  41  43  44  44  45  44  40  31  22  17  16  16  16  16  58  72  69  61  41  24  22  21  24  23  24  31  79 153 172 175 176 174 175 174 174 174 175
  35  68 137 168 171 158 101 106  77  81  67  52  68  60  55  58  52  51  45  46  42  37  37  47  53  41  51  53  39  30  27  23  26  32  30  26  26  29  32  36  37  36  35  35  35  35  37  43  45  46  47  47  42  39  35  33  36  41  42  44  44  46  47  42  25  17  16  16  16  58  52  61  73  55  28  23  23  24  23  25  28 104 161 173 174 175 175 174 175 175 175 175
  45  49 122 172 168 166 126  94  75  84  70  58  58  55  49  50  47  46  42  40  39  40  42  34  41  36  38  37  29  24  23  20  25  27  26  34  37  38  39  38  37  35  33  33  38  41  42  46  48  46  51  52  49  48  45  41  32  32  37  42  45  46  47  45  40  19  16  16  16  55  57  58  69  76  54  28  25  24  21  25  34 131 168 173 175 176 176 175 176 176 175 176
  38  39  49  82 135 173 156  91  68  71  61  51  51  51  55  61  54  49  43  39  36  35  37  40  32  31  32  31  26  23  21  20  26  25  38  43  42  39  38  37  36  33  33  35  39  40  39  35  33  26  29  30  33  36  40  42  41  34  31  37  43  43  48  48  49  24  17  16  16  51  54  57  66  71  71  61  39  25  22  24  44 153 172 174 175 176 176 176 176 175 176 176
  38  37  42  45  48  65 115 114  69  60  51  45  56  64  65  63  54  45  42  37  34  33  34  37  29  28  26  25  23  22  20  21  25  29  44  44  39  38  39  37  35  34  35  34  33  30  27  32  25  22  22  20  20  20  24  31  37  39  35  36  42  44  48  51  51  30  18  17  19  47  51  54  65  70  68  67  64  42  22  22  38 151 170 174 175 175 175 174 175 176 176 175
  36  38  41  42  43  45  47  50  70  57  48  51  63  62  49  41  31  27  25  24  25  28  33  36  28  26  21  25  28  26  22  22  24  32  44  43  39  37  37  36  35  34  34  29  26  32  47  47  28  26  19  18  19  19  24  25  26  31  34  37  42  45  48  49  50  35  17  18  41  55  58  65  69  70  68  67  66  54  27  28  44 141 143 157 171 174 175 176 177 176 176 175
  49  39  43  39  40  41  41  40  65  58  48  56  43  35  39  47  34  36  21  20  20  23  29  35  27  23  23  33  43  47  34  24  22  32  44  43  41  38  37  38  36  38  31  29  38  48  57  49  24  21  22  18  19  22  29  33  27  25  29  35  41  45  46  50  52  40  19  28  63  65  66  64  57  58  63  61  39  39  26  39  66 102 106 110 126 164 174 176 176 176 176 176
 165 151 114  74  39  39  37  35  62  60  48  43  33  46  60  57  34  31  23  20  21  24  30  34  25  24  23  65 100  93  66  32  23  31  42  43  41  38  40  41  40  33  32  31  42  52  60  56  26  24  20  20  23  23  33  38  30  29  28  31  37  43  47  51  54  41  21  41  68  70  70  68  59  46  34  35  28  25  26  56  85  92  92  84  81 121 171 175 176 175 174 175
 161 168 170 171 171 130  82  37  64  63  44  36  42  63  72  66  30  26  25  23  23  26  32  35  24  24  91 140 141 132 108  44  25  28  41  45  43  41  43  47  40  31  35  32  36  48  57  61  41  26  24  24  25  29  37  37  34  33  35  37  39  43  48  52  59  46  20  55  71  74  75  75  69  55  40  34  30  26  43  70  79  78  68  54  59  75 167 174 175 175 174 175
 164 170 172 173 172 172 172 162 103  70  48  48  51  74  75  70  43  28  25  24  26  28  39  35  23  85 164 175 170 159 134  73  25  25  37  45  47  44  46  48  44  39  40  39  41  47  52  57  56  42  32  28  34  45  45  38  38  38  40  45  48  50  53  58  66  44  22  70  77  81  81  78  74  63  45  33  31  30  49  68  70  68  57  52  56  64 150 172 174 175 175 175
 164 171 173 172 175 176 175 169 125  83  62  58  55  63  71  73  67  41  31  32  35  43  50  40  42 157 176 179 174 160 127  95  34  24  36  46  48  48  49  51  48  48  47  46  46  46  46  50  50  53  54  52  49  53  50  47  46  45  47  51  59  63  64  67  73  35  33  80  80  82  81  78  78  69  53  36  32  31  52  65  66  62  65  55  55  64 121 172 175 175 174 175
 150 170 176 174 177 176 178 171 132  98  76  71  62  57  63  66  66  62  54  52  50  52  53  39  85 165 179 178 166 146 118  98  57  24  33  42  49  49  53  52  51  49  48  46  46  46  47  50  47  51  51  48  46  50  51  48  48  49  52  56  64  70  71  74  76  27  50  84  82  82  81  80  81  77  62  40  33  36  54  69  60  64  71  59  59  64  94 169 173 175 174 174
 127 170 176 175 176 177 178 174 133 110  91  80  77  69  62  62  60  57  53  52  51  50  53  33 133 170 181 175 162 134 112  97  79  24  27  42  53  53  55  56  56  52  52  51  49  50  51  54  56  58  55  52  50  51  50  50  52  57  61  66  71  75  76  79  69  23  75  86  85  83  82  82  82  81  70  44  35  40  57  65  57  66  79  69  62  61  79 161 174 174 173 173
  94 170 175 175 176 178 177 172 130 117 101  87  82  77  73  72  68  65  61  58  56  60  59  51 159 176 181 173 155 123 106  95  90  48  23  38  52  62  58  59  63  61  59  60  61  59  59  58  64  65  61  60  59  59  58  58  63  67  70  74  79  83  84  83  56  32  87  88  87  85  83  82  82  84  75  49  35  40  55  62  64  72  82  82  62  59  75 140 171 174 174 174
  63 163 173 175 177 178 179 168 129 121 110  92  84  78  77  76  73  69  66  67  71  76  47  94 169 180 174 165 144 118 101  95  91  77  25  30  42  67  69  65  65  68  67  70  72  71  70  69  70  72  71  69  70  69  70  70  74  76  81  85  85  85  85  85  34  58  89  86  85  85  83  83  82  83  76  52  35  43  55  65  74  77  82  92  67  60  70 130 170 174 174 174
  51 138 171 176 177 177 177 166 131 125 115 100  91  84  81  79  77  76  77  80  85  77  33 135 172 176 165 153 131 111 101  95  94  88  47  23  36  51  72  72  73  71  70  70  72  73  73  74  74  77  79  78  80  82  83  82  85  87  91  91  92  92  93  62  26  81  88  88  86  83  81  80  80  81  78  54  39  49  51  54  66  70  72  82  82  62  77 135 170 174 174 173
 113  80 162 174 176 178 177 161 130 123 116 102  97  92  90  92  92  89  89  90  90  53  52 155 173 170 161 141 123 107 100  96  94  90  80  29  27  38  63  71  75  78  78  78  76  75  74  76  76  78  77  79  79  83  86  86  89  93  95  99  99  98  83  29  55  90  89  87  85  83  80  78  78  78  78  58  42  67  57  43  51  59  64  75  84  71  90 156 171 172 174 174
 178  80  85 160 177 177 177 156 127 123 115 102 101  98  97  98  97  97  97  97  59  35  94 164 173 166 153 134 121 106  98  95  93  91  86  63  27  34  45  64  71  76  84  87  89  88  87  88  85  84  82  83  81  84  86  86  88  90  96  98  98  80  33  36  88  91  88  84  82  81  81  80  78  77  75  62  46  77  92  49  49  54  58  63  81  82 101 164 171 173 171 172
 179 174  89  69 111 147 167 150 127 122 115 108 108 109 107 107 106 104  87  56  35  69 141 167 171 164 147 129 116 105  97  91  91  90  90  79  50  24  34  46  59  74  81  85  90  94  96  99 100  98  93  92  91  92  94  90  94  99  95  83  61  29  32  83  91  89  87  84  81  77  78  80  77  74  73  66  55  86  92  57  50  53  55  60  76  87 118 168 172 172 171 172
 182 180 183 135  82  54  66  86 102 105 109 102  97  93  88  87  71  51  36  38  89 129 159 170 167 155 144 131 117 108 102  94  92  91  90  86  68  42  28  30  43  48  60  69  81  89  94  95 103 101  95  94  88  86  82  78  69  53  43  33  30  56  86  87  87  87  84  82  80  75  76  76  76  73  73  68  68  84  89  64  52  54  54  60  78  90 136 169 171 171 172 172
 181 180 181 180 181 170 120  73  56  46  42  39  38  36  40  40  51  65  92 120 121 148 167 168 162 154 147 133 115 107 101  96  92  89  90  85  76  58  46  43  29  29  46  50  56  61  63  57  57  60  54  53  50  46  41  32  30  32  46  74  94  92  88  84  84  83  79  80  79  76  74  74  74  71  70  70  74  81  88  73  61  58  56  70  90  93 157 170 171 172 171 172
 183 183 183 183 182 178 162 130 125 124 114 110 109 114 117 118 119 116 116 115 125 161 166 164 160 156 141 123 111 102  97  93  89  87  87  85  79  67  58  58  68  63  51  46  37  33  31  33  32  35  41  46  50  61  71  85  99 104 102  99  97  91  88  85  80  77  76  78  76  73  72  74  72  70  69  70  80  82  82  77  65  57  62  80  99 105 164 169 171 171 171 171
 181 182 182 182 182 179 166 132 129 127 123 120 119 121 119 117 116 114 113 110 144 164 165 162 158 151 135 114 102  95  92  89  87  85  81  79  76  72  68  64  68  76  81  84  88  89  91  94 100 107 106 107 108 108 109 106 108 104 102  98  93  90  86  85  81  76  73  74  75  73  73  71  70  69  70  71  80  83  77  75  67  57  72  94  97 118 164 170 170 170 170 170
 180 183 181 182 182 181 166 133 129 127 126 125 124 122 120 123 120 116 115 118 155 160 161 160 156 145 130 113 100  92  89  88  88  85  81  78  76  73  70  69  70  72  79  85  88  91  93  99 102 105 108 108 107 106 106 105 103 101  98  93  89  88  85  82  79  76  71  71  72  71  73  71  68  68  70  72  80  82  71  81  94  88 101 102  84 127 166 169 171 170 169 170
 180 181 182 182 181 179 170 132 128 127 126 126 126 126 125 123 122 120 119 138 151 157 155 155 149 139 125 111 101  93  88  90  93  89  84  81  78  76  71  71  74  74  77  81  85  90  93  99 100 103 105 107 107 106 104 103 101  99  96  90  89  87  82  77  76  74  71  70  72  72  70  70  68  70  70  74  76  77  75  94 108 104  91  76  89 137 166 170 170 169 169 170
 179 180 181 181 180 180 174 136 131 123 126 124 125 128 128 128 126 125 126 144 151 152 151 149 141 131 120 112 104  98  93  96  99  94  93  92  90  81  74  71  78  78  77  80  86  90  92  98  99 101 101 104 103 101  99  99  97  97  90  86  85  82  78  76  71  73  71  71  70  69  70  70  70  71  72  72  71  77  90  99  97  99  74  85 100 149 167 169 169 168 169 169
 179 179 180 180 180 179 175 142 129 126 121 121 124 127 129 129 126 122 129 142 150 152 146 142 133 126 118 109 104  99  95 102 102  97  98  98  97  89  75  70  74  77  81  84  89  91  92 100 103 106 104 104 102 100  97  96  94  92  86  83  80  76  76  75  69  70  70  68  69  68  69  69  70  71  71  72  68  70  81  85  88 100 100 108 114 157 167 169 169 169 168 169
 179 178 179 179 178 179 177 148 125 123 120 121 123 126 126 124 124 124 137 142 147 147 139 136 126 116 111 105 102  99 101 105 101  98 100 103 100  94  79  67  74  81  83  87  90  92  92  98  99 104 107 107 106 104 100  98  94  89  85  80  75  72  73  73  70  69  69  67  67  68  66  68  70  72  72  72  67  68  77  82  84  97 109 112 128 161 168 167 168 166 168 167
 177 178 178 178 178 179 177 158 127 121 119 119 124 128 129 128 127 127 132 133 137 134 132 129 118 108 101  92  90  90  95  96  94  92 100 105 103  98  89  70  70  80  85  93  98  98  96  97 101 104 105 106 105 105 101  96  93  87  83  79  75  74  70  70  68  66  68  67  66  70  68  68  70  72  71  70  71  76  85  88  93 103 109 112 134 164 168 167 166 167 167 166
 177 176 176 177 178 178 177 167 127 120 118 119 123 129 132 132 130 126 122 116 114 119 121 118 110  98  86  76  70  68  74  77  77  83  91  95  96  97  91  69  66  73  84  92  99 100 101  99 104 104 104 102 101 100  98  94  90  85  78  76  74  72  69  69  66  66  68  68  67  68  69  70  70  70  70  69  76  86  94  98 102 105 106 102 141 163 166 167 167 167 167 166
 177 176 175 177 177 176 176 169 131 120 119 121 125 130 132 133 128 121 121 110 103 103 107 106  99  82  66  57  51  50  57  61  65  69  76  80  82  87  83  69  60  70  81  90  98 100  99  98 100 104 105 103  99  97  93  88  85  83  77  73  72  70  69  66  67  65  68  67  67  69  69  70  69  64  68  67  77  85  93  95  98  97  94  95 154 165 167 167 166 167 164 166
 176 175 175 175 175 175 175 172 141 121 119 121 126 126 127 126 120 116 113 108  96  92  92  93  83  70  59  50  46  43  43  43  48  54  58  62  67  68  69  61  56  69  80  88  96  98  96  97 101 102 102 103  99  97  92  87  82  77  74  72  71  68  68  67  65  64  66  66  66  66  66  68  69  65  66  61  70  78  85  89  90  87  81 137 161 166 165 165 165 166 165 165
 175 174 174 175 175 175 176 173 152 122 118 121 122 124 125 120 117 111 110 106  93  87  80  80  72  62  55  45  34  29  28  22  22  25  33  44  52  58  57  52  58  72  80  87  92  96  96  98  99  98  98 101 100  98  94  86  80  74  73  70  71  67  65  64  64  65  64  65  66  66  69  70  70  68  74  61  64  70  74  79  76  77 131 160 163 165 164 166 164 166 164 164
 174 174 175 174 174 175 174 172 161 125 118 121 121 122 122 120 113 108 109 108 102  89  74  67  61  56  51  36  28  33  35  32  29  31  33  35  40  44  45  49  61  71  80  88  91  92  94  96  93  93  93  94  95  94  91  86  81  76  71  69  67  64  63  63  64  64  64  63  66  69  71  70  69  69  90 125  67  61  64  66  74 130 161 163 165 165 165 166 163 164 163 163
 174 174 174 174 174 174 174 172 170 132 120 122 121 121 120 118 111 108 109 109 104  92  79  65  57  53  49  40  39  40  43  39  38  38  37  36  35  37  43  52  68  76  81  86  90  92  93  94  94  91  89  92  91  91  90  87  84  77  71  69  68  67  65  64  64  64  64  64  67  71  71  70  68  73 102 152 156 127 114 129 155 161 164 165 165 166 166 166 164 164 165 164
 173 173 174 173 173 173 174 173 172 147 121 120 120 121 119 118 109 109 112 108  98  83  72  72  67  52  47  44  42  42  44  42  39  38  37  38  39  41  47  56  67  77  81  85  90  91  91  92  95  88  79  85  89  89  90  88  83  79  73  69  68  65  64  64  63  63  63  65  66  69  70  69  71  73 116 157 163 164 161 163 162 164 164 165 166 164 163 165 165 165 165 164
 174 173 171 174 174 173 174 174 172 154 121 119 122 121 119 117 111 111 112 104  92  71  54  54  64  61  51  46  45  43  41  38  35  36  37  40  40  44  49  58  65  77  82  85  87  88  89  90  90  86  77  82  86  87  88  89  84  80  72  70  69  67  65  62  64  64  64  63  63  69  69  71  74  78 137 163 164 166 166 166 165 165 164 163 164 162 164 164 164 164 162 164
 173 173 173 172 172 172 173 172 172 166 127 121 120 121 119 115 112 109 107  93  72  51  40  42  48  52  55  52  48  39  36  34  30  29  29  32  32  40  45  56  65  75  82  85  85  86  88  90  90  88  84  85  86  85  84  82  83  80  73  70  69  67  65  64  65  64  65  66  60  68  67  70  74  82 147 165 167 167 168 167 166 167 164 164 165 165 165 162 163 164 163 163
 172 173 173 174 173 172 172 173 172 168 133 120 122 119 117 109 106  98  91  75  54  39  31  33  35  35  43  49  49  33  30  31  26  25  26  26  26  34  40  49  63  68  76  82  81  81  83  86  87  87  86  86  85  84  82  80  82  76  72  70  67  67  65  64  65  65  65  64  62  67  69  72  74  85 152 163 166 168 167 168 166 166 164 164 163 163 165 164 163 163 163 163
 172 172 172 172 171 171 173 173 172 169 147 121 120 120 115 106  97  82  78  62  45  33  30  29  24  26  32  37  40  30  25  29  24  21  23  23  25  28  34  45  59  64  69  72  72  69  68  76  80  84  86  84  82  83  82  79  77  72  71  69  66  64  64  65  64  65  64  65  66  67  67  70  72  92 158 164 164 164 165 166 165 166 166 164 164 164 164 163 163 164 163 162
 172 173 171 171 171 171 171 171 170 168 160 122 121 117 106  94  76  67  61  47  38  31  30  26  26  26  25  28  30  24  22  24  24  19  20  21  23  25  33  38  48  54  54  58  60  54  54  59  66  74  80  79  78  77  76  74  75  72  69  66  66  66  63  64  62  65  64  65  67  67  68  70  74 109 159 164 165 164 164 164 164 165 165 163 164 164 163 163 162 162 162 163
 171 172 171 170 171 171 172 172 170 170 163 129 120 115 100  71  57  46  46  42  37  31  28  28  27  24  24  24  26  22  21  21  23  21  20  21  25  28  32  31  39  42  42  41  45  43  40  46  51  62  70  71  72  71  72  70  71  69  65  65  64  64  63  62  64  65  65  65  64  67  69  72  75 120 158 163 164 164 166 165 164 163 161 162 162 164 163 162 162 161 162 162
 171 169 171 170 170 171 170 170 170 169 167 142 119 110  86  52  44  38  40  38  36  33  30  31  27  26  22  21  26  23  24  23  26  27  24  23  25  27  29  27  34  35  42  32  34  36  28  34  35  49  55  58  62  69  69  69  70  66  62  63  63  65  64  63  64  64  65  67  66  69  71  72  76 135 159 161 164 163 163 163 163 163 164 162 162 161 162 161 160 162 161 160
 172 171 171 172 170 170 171 168 168 167 166 152 119 110  69  44  37  34  35  38  41  40  34  35  28  27  24  24  30  29  23  27  30  32  31  28  26  27  27  25  30  32  34  31  28  28  26  25  29  35  38  48  51  61  66  65  67  65  61  61  62  63  64  62  62  64  64  65  66  69  71  72  81 146 160 161 162 162 163 164 163 162 164 162 162 160 161 160 160 161 161 161
 169 170 168 169 168 168 170 168 168 169 165 160 126 103  57  36  32  31  32  41  54  51  46  46  36  38  36  36  40  45  35  38  38  40  42  30  33  29  32  29  29  30  30  30  24  24  24  22  26  29  32  39  42  53  60  64  63  64  62  62  62  63  63  62  62  63  63  67  66  68  70  71  94 152 158 161 162 161 161 162 163 163 162 162 160 161 160 160 159 159 159 159
 167 168 167 168 167 168 167 167 166 168 166 164 143  94  52  36  30  27  32  49  58  55  52  49  45  52  54  54  59  62  51  46  42  41  42  38  38  39  40  38  37  34  31  31  24  22  22  23  25  27  28  31  35  42  57  62  64  63  63  57  61  63  63  62  63  61  64  66  65  65  68  72 114 154 157 159 160 160 159 161 162 161 161 161 161 161 161 160 158 159 158 159
 167 167 166 167 167 167 168 166 166 166 166 164 149  94  52  38  33  28  35  45  48  46  46  47  46  46  53  60  60  51  43  40  39  38  37  36  34  36  36  35  36  35  33  32  28  24  24  24  24  26  28  28  29  35  49  61  64  61  60  58  58  62  63  63  61  62  63  63  63  65  66  72 137 156 157 158 159 159 159 160 161 162 160 160 160 160 159 159 158 158 159 158
 166 166 167 166 166 166 166 165 167 165 165 164 159 120  69  46  37  34  35  35  39  38  34  25  26  26  29  39  40  38  38  38  38  38  37  36  32  28  28  27  26  26  25  24  21  22  24  26  27  27  29  29  29  36  45  56  58  60  60  58  61  62  63  63  62  63  63  62  58  61  65  82 150 156 158 158 160 158 160 160 161 161 159 160 160 159 159 156 158 158 158 158
 166 166 166 166 166 166 165 166 164 166 165 163 161 149  93  57  46  40  41  52  58  53  39  28  17  12  15  24  39  42  39  44  41  41  39  30  22  21  23  26  28  29  30  30  29  31  33  34  32  33  32  32  36  47  53  55  56  58  58  60  61  62  63  62  63  63  63  63  57  57  64 116 154 157 158 157 158 158 158 159 161 160 160 160 158 158 157 159 156 156 156 157
 164 164 164 166 165 165 166 165 164 165 164 163 162 158 120  82  61  53  54  71  72  70  63  45  30  20  17  20  38  41  37  47  41  39  35  31  33  35  42  40  41  40  41  41  42  44  46  47  44  41  38  41  46  54  57  57  57  56  59  58  61  62  61  61  63  62  62  61  55  59  76 143 155 157 157 157 157 158 158 159 160 158 157 157 158 157 157 157 156 155 156 156
 165 165 165 165 165 164 164 163 161 161 161 161 161 158 147  95  74  64  69  79  78  74  78  66  49  37  31  26  32  37  35  40  37  37  41  44  48  51  53  50  47  48  47  49  50  51  53  54  52  47  45  48  50  57  57  57  57  57  56  57  60  61  59  60  61  58  58  57  55  61 110 151 155 156 156 156 157 158 157 158 157 159 158 159 158 157 156 156 155 156 156 155
 162 163 163 162 161 161 162 162 160 160 160 160 160 158 155 121  83  71  73  82  80  74  80  85  71  60  52  46  46  44  46  50  56  60  67  62  60  58  55  50  49  48  50  49  49  54  55  55  54  51  50  51  52  54  55  55  57  56  54  58  57  58  56  59  57  55  55  55  56  72 134 154 155 156 156 156 157 157 156 156 157 157 158 157 156 156 157 156 155 156 155 155
 160 161 161 160 160 160 160 160 159 160 158 159 158 158 156 145  93  76  74  80  79  68  69  81  78  74  72  69  65  66  59  72  74  75  76  67  59  55  51  50  51  52  50  46  52  56  55  56  56  54  52  51  52  52  54  54  55  54  55  57  58  56  57  56  55  53  54  54  57  81 143 154 155 156 156 156 156 155 157 157 157 157 158 157 156 156 156 155 155 156 155 154
 161 159 161 161 160 158 159 160 159 158 158 158 157 157 157 155 115  80  74  80  77  68  64  65  69  74  74  71  69  68  67  71  71  68  67  59  55  50  49  50  52  51  49  50  54  55  54  53  54  54  52  47  47  50  50  52  52  53  55  57  58  60  56  54  52  51  52  54  62  86 145 154 155 155 157 156 155 154 156 156 155 157 157 156 157 155 156 155 156 154 154 153
 159 159 160 161 161 161 160 159 160 158 158 159 159 158 157 156 137  88  75  75  76  74  62  57  57  61  64  64  64  64  65  66  63  60  56  49  47  46  49  48  50  50  51  52  53  53  53  49  50  52  50  48  50  47  51  52  54  55  57  57  61  60  58  55  52  50  52  58  66  88 147 153 154 155 155 154 155 155 156 155 156 156 155 155 155 155 155 154 155 154 154 154
 159 161 162 162 162 162 160 161 159 161 160 159 159 158 159 159 153 105  78  73  75  76  72  59  50  50  50  50  51  49  50  51  49  47  43  41  42  46  46  46  47  48  52  53  53  52  50  48  48  50  48  48  50  48  51  50  53  58  58  56  57  57  56  54  50  50  54  62  66  88 144 152 152 154 155 155 154 154 155 155 154 156 155 155 156 155 155 155 154 154 152 152
 158 159 160 161 161 160 161 160 159 159 159 159 159 159 158 161 157 130  88  80  80  76  74  70  56  48  44  41  40  39  40  39  36  34  35  35  37  38  41  43  45  50  53  53  53  54  49  50  48  50  49  50  52  51  50  50  53  60  58  54  55  55  52  50  50  52  59  63  65  89 143 151 154 154 153 154 154 153 154 154 153 155 155 154 156 156 155 154 153 153 153 152
 157 158 161 161 160 160 160 160 159 160 158 158 158 158 159 157 156 144  99  80  74  78  74  73  65  54  48  39  31  28  27  28  26  24  25  26  28  32  41  45  49  51  54  53  55  56  50  54  54  50  50  52  54  54  48  48  54  62  56  51  51  54  51  51  51  55  61  63  66  86 141 148 149 149 150 151 152 153 154 153 154 153 153 153 154 154 153 154 153 152 153 153
 156 157 158 159 160 161 159 161 159 158 158 158 158 157 156 152 151 145 112  83  78  79  81  76  72  65  59  43  31  24  23  21  20  20  23  24  27  34  47  53  56  58  61  62  61  58  56  60  57  52  51  57  59  56  52  54  58  58  54  50  51  51  52  54  55  57  62  63  63  71  72  86 100 116 132 143 148 149 151 150 152 154 153 154 153 153 152 153 151 150 150 151
 155 156 158 158 159 160 159 159 160 158 157 156 155 151 146 128 111  92  75  89  85  83  86  80  79  74  68  58  41  29  24  20  20  20  21  26  29  37  49  57  62  65  70  70  69  67  66  65  59  57  57  64  61  54  53  56  55  52  50  50  50  51  52  54  58  60  63  65  64  65  44  46  51  55  56  56  80  94 122 142 148 151 151 153 152 152 151 152 152 151 152 152
 155 155 158 158 158 158 158 158 157 157 154 152 131 100  79  72  66  57  55  80  90  86  92  86  81  80  77  65  47  34  27  25  19  21  24  28  36  44  53  62  70  74  76  76  77  73  75  67  62  60  60  64  59  53  52  50  50  51  49  49  50  51  53  56  55  59  62  64  64  62  38  34  35  38  38  39  42  46  49  58  87 125 147 149 150 151 151 150 149 150 149 149
 153 152 157 158 157 158 157 155 155 148 121  84  68  64  60  52  47  45  40  56  94  90  97  93  89  85  80  65  50  42  32  31  25  24  33  34  40  47  54  65  78  82  83  84  81  74  75  71  66  65  63  61  55  50  47  49  47  49  49  49  50  52  54  55  57  60  63  63  64  61  32  30  30  33  33  33  36  38  38  40  48  53  69 113 149 148 150 149 148 149 148 148
 150 152 153 154 156 155 155 151 126  88  74  67  63  54  45  40  37  33  30  35  84  88  99  98  95  90  81  64  58  49  39  36  36  32  42  45  45  42  53  66  80  86  88  84  79  73  74  66  68  65  64  56  51  48  45  45  44  44  45  49  51  53  53  56  58  59  63  63  64  61  35  24  25  25  28  31  31  33  35  36  38  40  42  48  68 128 147 147 147 148 147 147
 150 150 150 150 150 152 141 101  75  65  61  59  52  44  34  29  24  30  36  49  73  90  96  96  92  86  78  72  66  57  46  40  42  42  55  52  56  51  55  70  74  82  86  81  74  69  73  70  59  54  54  52  53  44  39  39  45  46  49  51  52  54  56  57  58  61  61  64  64  61  41  43  26  20  19  21  22  24  26  30  31  32  35  41  43  50  96 144 146 147 146 146
 149 147 148 146 145 122  79  71  68  60  48  41  35  27  31  41  52  54  67  73  66  76  88  88  78  74  74  82  76  64  52  44  49  49  63  56  65  54  50  65  66  73  69  68  70  66  66  66  57  51  47  43  44  40  37  35  43  48  52  53  55  57  57  57  56  61  60  63  64  59  36  53  58  51  42  37  29  21  20  25  28  29  33  36  39  44  48  73 138 145 146 146
 145 143 143 138 107  78  68  65  56  43  31  27  40  54  59  56  55  77  77  72  57  59  70  70  55  63  70  82  82  66  48  53  53  53  63  50  64  58  45  53  52  58  56  58  59  65  58  54  46  42  39  33  32  33  31  37  46  51  51  52  54  55  56  57  59  62  62  64  64  59  30  47  49  51  50  49  46  49  43  24  24  25  29  31  34  38  42  44  60 118 142 143
 143 141 127  92  75  67  61  54  40  29  35  58  66  67  62  58  75  83  70  64  45  51  63  56  45  55  62  76  74  64  50  54  47  50  58  52  60  57  49  48  51  53  51  47  50  57  51  48  35  33  29  26  25  26  28  41  48  51  51  54  55  56  56  58  62  63  63  65  65  60  24  41  51  52  42  48  56  55  56  60  50  32  24  26  31  33  40  42  44  48  69 110
 116  91  74  71  69  58  55  47  28  56  65  67  72  57  52  71  81  72  75  61  44  39  47  40  41  48  58  66  66  63  55  52  48  48  49  46  50  48  43  44  44  50  49  39  40  42  40  37  30  27  24  21  23  25  35  45  49  51  51  55  55  55  57  59  61  64  63  64  63  63  34  39  47  46  49  39  43  48  65  82  74  68  49  28  27  30  36  36  42  42  44  46
  77  72  68  64  69  53  49  32  74  73  68  61  47  46  66  74  82  71  83  66  51  29  36  38  39  42  44  51  56  58  54  47  44  40  39  38  40  39  36  40  36  44  43  34  33  34  30  30  26  21  19  20  24  32  46  48  50  52  53  54  55  56  58  60  62  64  64  63  62  63  49  32  45  46  48  45  38  40  49  50  71  87  81  67  39  25  30  34  35  38  41  39
  64  64  60  64  68  44  33  81  88  87  56  39  38  60  65  79  81  75  82  74  55  28  36  35  34  37  35  42  45  48  46  38  36  35  35  33  37  34  34  34  31  37  36  29  27  28  23  24  19  18  19  23  28  41  48  50  50  51  52  54  55  57  59  60  62  62  63  63  62  63  60  27  44  45  42  52  41  37  42  48  42  41  74  89  71  54  24  30  34  37  41  39
  65  62  63  69  46  33 103  91 108  83  42  33  58  65  68  83  69  82  78  71  51  32  35  32  29  36  32  34  36  36  32  30  30  30  32  30  30  34  31  30  27  27  29  25  22  23  20  18  16  17  26  33  39  47  48  50  52  51  52  56  55  54  58  61  60  62  63  63  61  63  64  31  40  43  40  46  49  39  36  39  44  37  42  71  89  79  71  29  32  34  37  39
  61  67  61  48  35 118 104 116  94  87  33  47  69  57  75  81  68  74  71  64  49  53  49  31  31  28  27  30  27  26  22  23  23  24  23  22  24  26  27  26  21  22  22  22  19  17  18  19  16  22  35  42  44  48  51  51  51  53  54  55  54  56  58  62  63  62  62  63  62  63  65  39  35  41  39  42  48  49  34  32  37  42  35  47  71  96  98  89  36  29  35  37
  67  67  56  39 104 121 141 105 102  81  32  64  53  55  84  72  65  68  70  65  54  70  65  46  40  29  25  26  24  18  16  18  19  20  17  17  18  18  21  18  18  18  18  18  18  15  18  28  24  35  42  46  48  49  49  50  52  54  54  54  55  56  59  60  62  62  62  62  63  63  66  44  31  43  37  35  41  47  44  31  30  36  38  34  59  85 115 113 108  38  28  34
  64  61  42  88 139 154 141 122 113  53  52  55  45  64  77  67  66  65  72  68  52  80 100  89  59  41  36  30  30  19  16  17  19  18  18  15  16  15  17  18  17  18  20  21  21  18  34  39  38  45  47  49  49  50  52  51  51  54  54  54  56  57  58  58  61  62  62  62  62  63  64  48  30  41  39  34  37  43  46  36  27  31  36  39  36  89 109 128 126 109  37  30
  59  48  56 149 158 161 147 142 110  46  56  46  44  73  73  68  65  62  73  71  48  87 108  96  76  76  68  42  42  38  24  24  24  27  29  17  20  18  26  29  25  28  30  31  38  36  43  47  48  48  49  50  51  53  54  52  52  54  54  56  57  57  58  58  61  63  62  61  62  62  64  52  29  38  39  33  35  34  35  41  31  28  33  43  40  76 118 119 136 133 111  35
