P2
# Generated by OpenCV 3.4.0
92 112
255
 176 174 177 176 176 176 177 177 176 174 171 168 158 104  45  35  32  33  33  35  35  30  26  27  35  38  36  35  38  40  44  43  42  39  39  38  37  39  37  35  33  28  24  24  24  25  24  22  19  18  17  18  20  23  25  23  24  21  19  18  19  23  25  25  20  22  22  24  26  30  30  30  34  44  50  59 125 139 152 155 126 147 160 175 174 174 176 176 174 175 174 174
 176 175 176 175 175 176 177 176 176 175 173 174 144  57  37  33  33  32  31  29  29  26  27  30  34  33  37  40  43  44  40  39  37  33  28  28  29  29  25  24  24  23  23  24  23  22  24  25  23  23  22  18  17  18  20  22  23  25  22  18  18  18  23  26  25  20  20  23  25  27  29  28  32  35  38  44  67 119 129 146  87 126 153 174 175 175 176 174 175 175 176 175
 174 175 175 176 175 176 177 177 177 175 175 160 114  45  38  33  30  28  29  31  33  36  38  45  44  44  42  41  41  39  36  33  31  29  27  28  26  25  24  22  20  18  18  19  18  19  22  22  23  24  24  24  22  20  17  18  18  23  23  23  18  18  20  24  24  23  20  20  24  24  26  27  31  31  34  39  45  79 117 126  64 104 148 171 171 173 174 175 176 176 175 175
 175 174 173 175 175 175 176 176 177 176 174 119  47  41  34  31  29  32  33  30  31  36  40  38  38  39  36  32  35  32  27  26  24  21  24  23  24  23  23  24  23  21  19  19  18  18  17  19  19  18  20  23  22  22  22  20  19  19  20  22  22  18  17  21  24  24  19  19  20  23  24  25  28  30  31  34  32  48 104 114  57  76 125 152 160 169 173 174 176 176 174 175
 174 174 175 175 175 174 175 174 175 175 158  64  44  36  34  31  30  28  28  30  29  37  44  48  42  36  32  25  22  22  20  21  20  21  21  22  20  19  19  19  20  22  22  19  19  20  19  18  18  18  18  18  18  19  19  20  22  19  18  20  22  20  18  18  20  24  20  19  20  21  22  23  27  28  29  31  29  38  84  95  55  75 100 113 150 158 172 174 176 175 174 175
 174 173 174 173 175 175 175 176 175 172 118  63  36  33  33  34  28  26  33  40  41  43  33  29  26  24  22  22  20  19  20  22  20  23  23  26  22  20  20  20  20  19  20  20  22  20  18  20  19  17  17  18  18  19  20  19  22  22  21  20  20  23  19  19  20  23  23  19  19  20  22  23  24  25  28  29  30  33  72  59  64  69  85  88 116 156 170 174 177 176 176 177
 174 175 174 175 175 175 176 176 175 167 128  56  35  34  36  33  32  32  32  27  25  26  29  30  26  25  23  21  20  19  20  19  20  21  21  21  19  19  20  23  21  20  19  19  21  20  19  19  20  20  20  20  22  22  24  25  26  26  25  24  25  25  23  22  21  22  24  19  19  21  24  22  23  24  24  25  26  30  45  45  59  65  70  73 104 151 166 172 175 175 175 175
 176 175 175 176 175 176 177 177 173 164  95  39  38  35  31  30  30  24  28  33  40  42  43  38  32  29  25  23  22  21  21  21  22  23  23  24  23  24  24  24  25  23  22  22  23  22  22  22  22  23  24  25  27  31  33  34  36  37  36  36  34  31  28  26  25  25  24  22  19  21  22  21  22  23  24  23  24  26  32  37  47  50  54  73  91 145 157 168 170 176 176 175
 174 175 176 176 176 176 177 177 174 146  51  42  37  31  32  32  35  42  47  49  46  39  33  30  25  24  23  22  23  23  24  25  27  28  30  33  36  38  39  35  34  30  27  29  28  28  27  26  26  27  31  36  40  46  50  51  52  51  49  49  47  43  37  35  33  31  29  26  23  22  23  20  21  21  22  22  23  25  30  32  39  43  50  58  99 133 150 151 169 174 175 176
 176 177 176 176 176 176 176 176 174  98  40  39  34  34  35  36  39  43  46  39  34  31  31  26  24  23  23  26  28  29  33  34  36  41  47  52  54  55  55  55  52  45  44  44  43  40  38  37  38  40  43  50  56  60  63  66  68  68  67  66  60  54  51  46  44  41  37  33  30  26  24  21  20  21  19  21  24  25  26  30  37  39  45  68 108 130 134 150 161 173 174 175
 176 176 176 176 178 176 177 177 167  72  44  38  31  33  35  38  45  41  35  32  31  33  30  27  26  27  30  32  35  40  45  49  53  59  68  72  72  72  71  69  69  68  64  62  62  58  56  56  55  59  62  66  70  74  77  80  86  85  81  80  76  70  65  59  54  53  50  46  40  35  29  24  22  23  24  23  24  25  28  30  35  36  47  76 106 118 125 143 164 174 176 176
 174 175 176 178 176 177 177 176 157  57  45  31  28  39  36  39  42  37  37  34  35  31  28  29  31  32  38  44  49  55  64  72  76  81  83  83  83  86  83  83  82  81  80  80  78  79  74  74  73  76  79  84  85  90  93  95  95  95  91  87  86  84  79  73  67  63  61  58  52  47  41  32  28  25  24  24  24  26  26  30  34  37  50  82  98 103 127 148 171 176 176 176
 176 177 175 176 176 177 177 174 131  62  38  28  33  31  33  32  29  27  29  31  30  31  33  35  39  45  54  60  69  76  82  86  93  96  94  94  95  94  93  92  91  91  91  90  89  90  89  89  87  91  90  92  92  94  96  96  96  95  92  90  90  87  84  84  80  74  71  68  63  59  53  48  40  31  28  26  25  25  24  27  35  41  62  72  82 107 122 155 170 174 175 175
 177 176 177 178 178 178 176 175 150  54  39  33  32  29  30  31  31  29  33  35  35  38  39  44  53  60  70  79  87  93  98 105 108 108 105 103 102 100  99  96  96  94  94  91  89  90  90  91  90  92  91  91  91  93  94  94  95  94  92  90  88  86  84  83  84  82  79  77  73  70  64  58  54  44  33  29  29  27  26  29  32  37  49  57  79  95 151 166 172 174 174 176
 178 178 180 180 180 180 178 175 146  54  43  36  30  28  28  32  32  36  38  41  42  44  49  61  69  80  89  95 103 108 112 115 117 113 112 110 108 104 102 101 101  99  98  97  96  94  95  91  92  93  93  93  94  95  92  94 101 103 104 103  99  94  87  84  82  80  82  78  76  76  71  70  66  59  43  35  32  29  28  28  29  33  41  61  83 132 168 173 174 175 177 177
 181 181 181 180 180 180 179 172 108  54  43  32  28  27  34  36  36  39  39  44  49  55  64  75  85  96 103 106 110 116 122 121 122 120 119 118 119 117 115 113 111 108 109 107 106 101  96  96  97  99 100 102 106 113 118 120 122 121 119 118 116 111 107 104 101  97  93  84  79  79  75  74  72  69  54  39  32  28  27  27  29  34  41  69 110 149 168 172 175 176 176 176
 184 184 184 184 184 183 183 173 106  53  34  28  29  31  36  39  39  39  42  49  59  68  78  87  99 107 109 113 117 124 130 130 128 127 126 127 125 124 123 123 121 119 118 116 113 112 110 108 112 115 119 122 124 125 125 122 119 114 114 115 114 113 109 105 103 103 103 102  94  87  84  79  77  76  65  45  33  29  26  28  28  31  42  98 131 160 171 173 172 175 175 175
 189 189 189 188 187 191 186 181  82  43  33  28  31  35  39  39  40  42  48  61  72  82  91 101 109 114 119 122 125 129 129 129 127 128 128 127 123 121 122 124 124 121 120 120 118 120 119 118 122 122 123 123 120 115 113 108 103  99  98 100 100 102  96  92  92  95  94  94  94  92  89  88  83  80  72  55  36  30  28  27  27  31  38  72 142 158 170 173 175 176 176 177
 202 197 198 199 199 198 194 181  66  40  33  30  33  36  38  38  40  44  58  72  87  92 104 111 116 118 123 126 128 130 130 129 125 122 120 118 113 114 115 115 113 112 112 112 114 114 114 112 112 111 111 112 110 103  97  91  88  84  84  84  83  82  77  77  80  80  79  79  80  82  85  90  89  85  77  62  44  31  29  28  25  27  32  51 123 159 168 173 174 174 175 176
 203 202 204 204 204 207 208 178  67  44  36  34  37  36  36  36  42  48  67  84  94 101 111 115 119 124 126 127 130 128 125 124 119 112 109 106 105 105 105 108 106 106 108 108 107 105 101  99  97 101 103 102  97  88  84  74  71  73  74  82  89  95  95  99 101  99 100 100 103  98  94  93  93  89  83  70  52  35  30  29  29  28  30  44 114 164 166 170 172 174 175 176
 195 197 201 202 204 205 203 171  64  43  34  36  36  36  36  39  44  57  74  92 100 110 113 119 122 125 126 128 129 127 126 123 122 121 122 120 118 114 113 113 116 115 115 110 108 107 103 101 103 106 105 104 105 113 117 120 120 126 130 130 130 129 124 119 117 115 114 113 112 109 107 105 100  94  87  76  61  42  30  26  28  30  30  32  60 150 171 170 172 175 176 176
 189 191 193 194 194 193 192 157  56  40  38  36  32  34  36  39  47  63  82  95 106 110 112 117 123 126 127 129 131 133 134 135 134 130 122 117 124 125 128 129 129 130 129 129 125 123 122 120 118 122 126 130 135 136 132 128 122 119 117 116 116 116 110 103  98  95  95  99 102 103 104 101  98  93  87  81  67  48  32  28  27  29  29  30  38 108 166 174 174 174 175 174
 183 184 184 186 188 188 187 153  50  44  40  34  32  35  39  44  52  69  84  99 110 109 111 119 126 128 130 131 130 131 133 134 132 129 111 102 116 123 127 127 128 129 130 133 127 125 124 125 124 128 130 133 129 124 118 108 102  98 110 120 118 101  93  92  95  93  89  90  90  91  93  96  96  87  84  84  75  57  37  28  28  28  29  30  43  77 155 174 177 176 176 174
 181 181 181 182 183 184 184 145  52  42  36  34  36  37  39  45  58  75  92 102 111 115 118 123 130 132 133 131 128 126 131 132 132 131 126 123 122 122 124 125 125 122 124 123 123 122 122 123 121 121 123 125 122 118 108 103 114 125 125 113 103 102 109 113 111 107 104 100  99  92  88  84  90  87  81  78  76  63  42  30  27  28  29  29  51 103 136 170 175 176 177 176
 177 179 179 180 181 182 177 124  51  40  31  36  36  37  41  48  60  79  94 103 112 119 124 129 132 132 133 133 133 132 134 135 135 138 138 136 135 131 130 127 123 120 120 120 125 123 124 127 124 125 126 126 125 119 116 125 132 124 120 117 113 115 108 102  93  87  82  82  84  85  86  86  78  83  82  76  76  71  48  31  26  25  27  30  50 124 161 173 175 176 176 176
 178 179 178 179 180 181 174 112  50  37  36  35  36  39  41  50  64  87 100 109 116 120 125 129 129 131 133 134 135 133 135 135 139 141 141 144 144 141 138 136 131 130 128 124 125 124 126 127 127 126 125 127 125 120 124 126 116 107 108 106  98  86  78  76  72  65  60  61  61  65  67  67  67  69  77  80  80  73  58  35  28  27  27  30  49 130 163 173 175 176 175 176
 177 178 179 179 178 181 172 135  50  38  37  34  37  36  42  55  68  93 104 110 115 122 125 126 129 130 131 134 134 134 137 136 135 139 140 142 138 135 134 136 136 134 131 130 125 127 123 125 124 125 128 124 122 119 122 112  98  94  91  78  71  61  55  52  52  46  40  41  41  42  41  44  51  61  73  82  83  75  64  39  27  26  28  31  50 136 166 175 176 176 176 177
 177 178 180 179 179 179 173 141  61  41  37  34  34  37  44  60  75  95 108 114 118 122 125 126 130 131 133 131 129 131 131 132 133 133 132 133 130 131 133 129 127 125 124 125 126 123 124 123 125 124 125 122 122 117 112  98  91  79  67  50  42  37  34  33  30  29  28  30  31  32  30  33  37  44  55  74  80  75  69  46  28  24  28  32  48 144 168 175 176 176 177 177
 178 178 178 177 179 178 174 147  60  41  36  33  32  38  47  63  82  98 107 113 118 120 122 127 131 131 126 118 118 117 119 120 119 119 118 115 116 116 116 117 120 117 114 116 120 119 120 123 123 122 124 120 121 118 105  83  79  63  49  35  30  26  24  22  24  24  22  23  24  26  26  28  30  34  40  53  68  73  70  49  30  25  26  33  50 134 169 175 176 178 176 177
 178 178 179 179 177 177 174 161  68  42  33  30  32  37  47  62  80 102 109 114 118 120 124 127 125 117 106 101 104 102  99 101 101  91  94  92  84  88  89  90  95  98  99 103 106 107 116 118 119 120 117 112 115 116 102  74  70  54  40  32  26  24  23  23  24  23  22  21  19  22  24  25  26  29  32  37  46  63  67  52  31  24  26  32  62 132 169 174 177 176 178 178
 178 178 178 179 178 178 178 171  84  43  34  30  33  37  45  61  85 103 111 116 116 119 121 118 100  83  74  77  75  70  74  69  62  56  53  53  49  43  46  54  59  68  76  83  93  99 108 108 113 109 106 104 108 110 100  74  60  47  37  32  28  25  24  24  24  23  21  20  21  23  24  24  25  25  27  32  38  53  65  54  29  24  26  33  71 153 172 177 178 178 177 177
 178 179 178 178 178 178 178 174 129  44  34  28  33  35  42  64  90 106 113 113 116 119 113  85  66  62  61  56  53  50  50  44  38  34  31  32  32  30  30  34  38  42  55  70  83  93 101 106 110 107 100 102 107 106  91  70  62  46  38  34  33  30  26  24  24  26  28  32  34  37  36  32  29  29  27  30  36  45  61  59  31  24  26  35  63 163 175 178 178 178 178 178
 178 178 179 178 176 179 179 177 139  49  33  30  34  34  42  68  95 110 116 114 114 107  71  57  53  53  52  46  43  38  36  34  31  29  30  29  27  28  27  26  30  33  39  60  72  89  96 103 107 104 102 104 103 103  92  73  63  47  40  39  36  32  28  27  28  35  40  46  52  55  56  54  50  45  40  37  36  43  56  62  32  24  26  37  73 165 177 179 179 178 178 179
 177 178 177 177 177 177 177 174 151  53  35  32  33  32  45  74  99 110 112 108 100  82  67  54  47  44  43  39  38  34  29  28  24  24  25  26  25  27  28  27  28  32  35  49  66  79  92 104 102 103 106 106 108 106  92  69  60  48  43  43  39  37  33  32  38  47  51  58  61  63  65  68  70  67  62  49  40  40  52  61  36  24  27  40  91 172 177 179 180 180 179 180
 178 176 178 178 178 176 179 177 158  57  38  32  33  31  46  80 101 109 109 103  88  70  52  41  40  40  42  35  34  30  26  26  26  25  24  25  27  27  29  30  32  35  38  43  61  72  85  99 103 103 105 103 106  99  84  68  60  51  47  46  44  42  38  41  46  48  53  58  61  62  65  66  68  71  75  73  57  46  52  64  37  24  28  40 139 174 178 178 179 179 179 179
 176 177 178 179 178 179 179 179 168  84  43  34  32  32  48  85 100 111 109  93  77  62  53  48  45  43  41  39  37  38  42  39  37  35  32  28  31  33  35  36  38  40  43  49  58  75  79  95 101 100  97 102  99  91  80  68  60  50  47  46  44  41  39  43  44  45  47  50  52  52  53  56  57  62  70  79  75  58  55  65  43  24  30  60 146 175 178 178 181 180 178 179
 177 178 179 180 181 181 180 179 167 108  45  37  32  32  51  86 106 112 102  82  70  54  57  54  51  55  53  50  51  54  54  53  51  49  46  43  39  42  44  44  46  46  48  52  54  76  77  89  97  96  95  97  94  84  74  64  53  46  46  43  43  40  39  38  37  40  41  42  43  42  41  42  44  49  54  59  65  59  54  69  48  27  30  78 158 175 179 179 180 181 179 180
 178 179 179 178 181 179 181 179 176 130  43  39  33  33  56  93 108 108  93  74  70  65  61  58  54  52  50  42  43  41  43  41  42  40  41  41  42  44  44  48  49  52  51  54  55  70  74  84  91  95  96  96  88  72  64  54  46  44  43  41  38  38  38  40  36  34  32  28  27  27  26  24  24  25  24  23  24  24  25  28  29  26  31  80 155 178 177 177 178 179 178 178
 177 179 179 181 180 180 180 178 176 153  53  40  38  48  64  74  68  59  55  48  39  32  32  43  45  46  48  48  49  51  46  38  35  32  33  33  33  31  32  30  30  34  39  44  50  59  68  77  86  91  90  91  81  65  53  47  43  42  39  37  34  30  26  23  22  24  26  30  34  34  32  31  32  38  44  49  54  57  50  37  31  21  26  25  24  28  54 127 175 178 178 178
 178 178 178 178 178 179 180 180 178 166  82  41  45  39  32  30  29  32  29  50  63  74  81  88  81  79  73  58  49  43  38  36  36  35  36  38  38  42  45  45  45  39  32  28  29  30  32  44  51  53  60  55  46  37  30  31  29  27  23  24  24  26  27  30  33  39  38  41  36  37  37  30  30  36  42  46  53  65  66  56  53 112  50  26  24  26  30  76 174 178 179 178
 177 178 179 180 180 180 180 181 179 175 127  40  38  29  27  26  26  48  91  86  84  90  84  87  72  66  58  45  37  36  42  50  51  46  42  41  39  41  46  48  52  52  52  48  35  26  26  30  33  26  26  23  22  21  21  24  22  23  28  33  32  29  31  35  34  34  29  29  30  34  39  40  33  33  39  45  50  60  67  62  82 163 165  48  26  24  26  72 174 178 179 179
 178 178 179 178 181 183 181 182 181 179 169  50  36  28  26  27  38 105 101  82  81  86  82  75  60  51  42  34  45  51  48  55  46  39  38  40  41  38  38  44  48  50  49  51  51  38  24  26  29  25  24  21  19  19  21  21  24  34  35  30  29  31  30  28  32  35  39  43  40  34  30  28  31  31  36  42  48  58  66  63 104 150  79  51  30  24  27  66 173 178 179 178
 178 178 179 179 178 181 182 181 181 182 173  88  40  28  26  27  65 114 107  90  81  79  72  63  51  41  36  47  53  37  32  37  38  38  37  34  29  33  38  37  42  48  49  51  53  54  24  25  26  25  22  19  20  20  21  21  32  34  32  30  30  28  28  38  32  27  27  35  52  56  42  29  28  31  33  40  46  57  62  60  57  32  35  44  37  25  27  62 172 178 179 179
 178 178 178 179 181 182 182 181 182 181 178 116  41  28  26  31  73 109 100  83  78  71  63  52  42  35  43  42  33  40  53  54  40  36  38  47  41  32  32  37  39  45  49  51  55  60  30  25  25  25  22  20  19  19  20  26  35  34  32  32  28  29  43  29  26  27  28  24  31  62  53  39  30  26  28  36  46  53  58  52  29  26  30  38  47  26  24  96 174 178 178 179
 178 178 180 180 181 181 182 183 180 182 180 151  47  31  25  33  58  87  86  76  74  68  56  49  41  36  39  35  44  74  74  40  48  42  29  29  49  47  39  36  42  44  49  54  61  66  34  24  25  29  32  31  24  21  20  28  36  35  36  29  30  39  41  24  25  19  19  22  25  44  54  46  37  30  33  38  46  52  58  55  28  25  30  29  56  29  73 173 177 179 179 179
 180 178 178 178 179 179 179 182 180 182 181 175  54  40  27  33  42  72  80  73  72  64  54  47  40  39  34  38  66  85  44  52  34  27  26  28  37  54  48  42  40  50  54  60  66  70  32  23  30  41  55  51  36  24  21  27  40  42  34  28  32  40  42  24  20  19  18  23  26  40  51  47  40  36  34  40  46  54  63  62  39  33  85 135  86  33 127 174 178 179 179 179
 177 177 178 178 178 178 180 182 181 180 179 178  84  40  28  34  38  67  77  76  71  62  52  46  40  36  39  49  71  80  35  31  23  22  22  27  35  57  53  47  43  50  62  73  73  69  30  25  41  87 111 102  69  29  23  27  46  46  35  31  33  40  45  28  23  21  22  26  26  44  50  46  46  40  39  43  49  57  65  70  60 132 171 169 110  34 164 177 178 178 179 178
 178 179 180 179 180 180 182 182 181 180 179 171 129  40  34  32  53  76  82  82  77  68  56  48  43  40  48  58  73  79  45  34  31  29  29  33  44  62  57  50  52  62  66  81  80  65  29  30 105 139 144 143 125  66  24  24  47  47  44  39  37  39  44  40  28  26  27  26  34  48  54  53  45  43  46  49  54  63  71  80  75 122 173 170 109  54 171 176 178 179 179 177
 179 178 180 179 180 180 182 181 181 175 155 153 137  56  52  30  71  95  97  93  87  76  62  55  50  51  56  65  71  76  61  36  36  34  36  36  56  64  57  53  59  66  72  81  83  55  25  91 151 158 159 157 148 118  35  24  42  48  47  46  44  44  45  48  49  44  42  42  48  50  50  48  45  46  50  56  63  69  79  84  83 110 172 171  92  87 173 176 177 178 177 178
 179 180 180 179 179 182 183 182 180 152 128 128 109  67  69  28  70 109 108 104  98  88  74  71  67  64  61  62  65  77  79  65  44  43  47  58  67  68  62  57  63  68  77  85  85  44  29 131 164 165 161 157 155 132  66  24  36  48  44  44  41  39  40  41  44  44  45  47  45  44  45  46  46  48  55  63  70  76  83  86  89 102 167 176  69 128 174 177 177 177 177 176
 178 179 180 178 178 182 182 182 182 121  82 104  90  65  95  37  55 113 112 111 109 102  93  87  80  74  69  66  65  68  70  72  74  69  66  61  61  60  56  54  61  71  81  91  80  34  48 134 162 164 163 160 156 129  95  27  27  54  48  44  44  41  41  42  46  47  48  49  49  48  46  48  49  53  61  67  74  82  86  88  92 110 167 157  55 158 176 176 177 176 176 176
 179 179 179 181 179 180 181 182 181 133  77  81  95  67 104  65  36 109 114 114 115 110 105  96  91  81  77  74  73  70  68  66  68  64  62  60  60  59  58  63  72  82  90  95  61  28  81 139 160 166 163 162 152 127  99  52  24  48  60  53  50  48  47  48  49  51  52  52  53  53  52  51  57  61  66  72  79  84  88  87  90 103 163 114  71 167 175 176 176 176 176 175
 178 178 180 179 181 181 181 181 179 140  81  74  91  68 110  96  30  85 117 116 118 115 112 107  98  90  85  80  78  77  74  74  72  69  68  64  63  67  72  78  85  92 100  91  41  34 113 139 158 165 162 161 151 127 103  78  25  32  63  66  61  56  55  55  53  56  57  56  58  57  57  59  65  68  74  79  81  88  89  87  89 103 156  66  71 169 175 176 176 175 175 176
 177 178 177 179 181 181 180 182 180 144  83  83 103  75 119 127  41  50 113 117 120 119 119 115 108  99  94  90  83  82  82  79  78  74  70  72  76  81  85  90  95 102 101  67  32  57 120 138 157 166 166 161 148 128 103  86  44  25  50  71  68  64  61  59  58  58  63  64  65  67  66  68  72  75  85  88  92  92  91  89  88 105 112  39  96 170 175 176 176 176 175 176
 177 179 180 179 180 180 180 182 180 148  86  95 114  82 122 131  85  32  84 119 122 124 125 120 113 107 101  98  92  87  89  86  85  81  80  83  83  88  91  96 104 107  89  43  30  93 124 138 151 166 167 162 146 126 106  90  74  23  26  71  73  70  69  67  66  66  65  67  71  74  76  78  84  85  91  96  98  94  90  86  85  90  48  56 120 170 174 176 175 176 174 174
 178 179 178 179 179 181 180 180 179 152  89 114 127  88 124 131 125  50  40 106 119 124 126 123 118 110 106 101  96  90  92  93  91  90  88  87  87  93 101 109 113 100  59  39  46 115 128 138 149 166 166 162 145 123 107  91  83  42  22  35  78  78  77  76  74  72  72  71  77  78  80  84  86  91 100 101 101  98  90  85  73  55  38  72 129 171 173 175 175 174 173 174
 179 178 178 178 180 180 180 180 179 158 107 123 118  99 120 128 127 109  41  46  91 119 126 125 118 109 103 102  98  94  94  95  92  94  94  95 101 104 114 116  86  60  38  55  81 119 130 137 150 165 167 161 143 121 108  91  85  70  27  21  45  73  85  85  83  83  82  77  80  80  82  84  85  92  99 101 101  86  67  55  39  33  72  72 134 170 175 174 174 174 173 173
 179 179 179 179 179 180 182 180 179 164 118 112 101  91 117 129 124 118 109  58  34  55  85 103 109 110 107 106 102 100 103 102 103 106 108 104 101  91  79  58  46  36  79  63 104 123 133 139 148 165 164 159 145 125 109  97  88  81  56  34  22  36  46  60  74  80  86  83  83  85  79  77  71  68  68  58  47  38  33  27  49  76  80  78 132 169 174 173 174 174 173 172
 180 180 179 179 179 179 182 181 180 175 133 103  87  84 110 126 125 122 124 123 101  63  40  33  47  56  67  72  76  78  78  77  75  71  62  54  51  47  35  35  65  97  82  79 115 124 138 140 154 166 164 156 145 129 114 100  90  87  74  50  52  34  18  32  40  40  42  44  40  38  40  37  38  33  30  23  27  38  55  76  78  83  80  84 134 169 172 171 173 174 173 172
 177 178 178 179 179 179 179 180 180 178 143  96  76  75 104 124 125 124 127 125 121 118 120 115  89  81  60  46  40  36  34  32  33  36  42  46  60  77  99 109 103  89  73  99 120 129 139 141 152 166 162 155 146 136 118 102  91  87  80  62  58  76  82  60  47  38  30  31  34  34  36  43  50  60  70  81  88  82  80  79  80  83  79  87 133 169 171 171 171 172 172 173
 177 177 179 178 179 179 181 181 180 178 145 101  76  78 106 125 126 126 124 123 118 119 124 128 131 126 122 120 113 113 111 111 111 112 113 111 110 109 107 101  95  84  83 110 120 127 137 144 155 162 162 156 147 139 121 102  91  87  83  70  60  66  80  90  92  94  96 100 101  99  98  96  97  96  94  92  90  85  81  80  80  83  90  97 128 167 173 172 172 170 170 172
 178 177 178 178 177 178 178 180 180 179 157 119  85  84 110 124 123 126 121 120 118 119 124 126 128 127 124 119 117 113 114 111 109 109 109 108 107 104 100  96  92  84  95 114 118 127 138 143 156 161 158 154 149 137 123 104  92  87  81  71  62  62  69  78  85  90  94  98 101 101 100  99  99  96  93  91  87  85  80  78  79  84  94  93 120 167 170 170 171 171 171 171
 178 177 178 178 178 179 177 179 180 179 172 141 106  82 108 123 125 125 119 118 118 119 123 125 125 126 125 124 122 119 115 112 113 111 110 109 107 105 101  99  90  87 102 113 113 129 137 146 155 157 153 149 144 135 122 109  94  89  85  74  65  65  63  69  74  82  88  90  91  95  97  96  96  94  92  88  86  83  81  76  80  84  93  97 122 166 169 171 171 170 170 170
 177 178 178 178 178 178 177 179 179 180 177 146 136 113 117 118 123 122 117 118 116 120 119 124 122 123 124 123 124 120 117 112 113 111 110 111 110 108 108 103  95  96 105 113 116 134 140 146 149 151 147 142 137 130 120 111  98  91  92  86  68  68  65  66  70  75  79  82  84  87  89  90  90  88  88  84  82  79  78  78  79  82  85 103 120 163 169 170 171 170 171 171
 177 179 178 177 178 178 178 180 180 179 177 147 129 149 140 120 120 120 117 114 116 121 120 116 116 120 120 123 122 118 120 118 121 118 118 120 117 114 114 109  99 104 110 119 130 137 139 144 146 147 141 133 131 124 114 108 101  94  96  97  80  68  66  69  71  72  76  80  83  85  87  87  85  85  83  82  77  74  76  75  79  80  82  95 111 153 167 170 170 170 170 170
 179 178 178 178 179 180 180 180 180 179 176 152 132 144 144 132 118 119 116 113 114 120 120 115 115 120 119 120 122 122 126 128 127 126 124 124 122 118 113 110 108 108 118 126 137 138 138 144 145 141 133 129 123 120 110 102 102  96  97  96  97  76  69  70  74  73  73  78  82  85  87  88  87  85  85  79  74  74  73  74  79  82  88  96 105 134 165 169 170 170 169 169
 178 179 180 178 179 180 180 180 181 180 178 155 149 137 120 118 117 116 116 113 113 115 114 114 117 121 120 122 123 122 127 127 128 125 125 124 124 118 115 116 113 111 125 126 132 132 130 137 139 134 125 122 119 114 103  95  92  91  95  95 100  93  74  76  79  76  76  77  81  83  82  84  85  84  81  75  74  73  71  73  79  86  91  96 100 120 165 170 170 170 168 169
 180 180 181 180 181 182 182 182 181 182 180 164 157 131 114 115 115 114 117 114 113 114 112 110 115 116 116 120 121 120 125 129 125 128 125 126 124 120 119 118 114 118 128 126 120 115 111 112 118 116 115 113 113 111  97  87  78  75  82  86  91  95  80  78  82  84  83  83  84  82  81  81  82  80  79  76  74  72  72  73  79  84  88  89  93 127 165 169 169 169 170 169
 182 183 182 183 184 183 186 184 183 183 182 168 155 141 133 128 120 115 115 114 113 114 111 113 113 113 114 115 118 119 123 129 130 134 131 129 125 122 120 118 114 118 123 119 107  96  88  89  99 101 101 103 106 102  90  77  65  58  66  73  78  84  81  79  85  85  84  85  86  89  86  84  82  79  76  74  72  73  73  74  76  76  84  84  95 160 168 168 169 169 169 168
 184 184 184 186 185 188 187 186 186 186 184 163 154 149 148 139 123 115 113 113 114 113 110 113 112 112 113 117 121 124 128 134 135 134 132 132 126 125 124 121 115 111 108 100  89  80  72  77  85  92  89  90  92  90  78  66  57  49  51  56  61  69  74  80  84  87  86  88  89  89  87  85  82  78  74  71  72  71  72  74  75  67  72  78 140 166 168 169 170 169 169 169
 184 184 184 186 188 186 187 187 188 189 187 165 140 142 143 140 128 115 112 112 111 109 110 111 111 112 114 117 122 126 132 134 135 134 132 128 125 125 122 119 116 100  87  72  53  39  33  45  78  85  82  78  78  76  67  61  39  26  28  34  45  57  70  78  83  86  86  86  85  85  85  84  82  77  72  72  72  72  72  76  80  67  87 138 165 169 169 169 169 169 169 168
 184 184 184 185 186 186 186 188 189 189 187 180 134 128 132 133 123 117 112 110 111 112 110 111 108 115 115 118 122 127 128 130 133 131 130 129 125 126 127 123 115  96  72  55  42  38  34  40  59  75  75  69  64  62  60  48  29  30  33  37  43  59  76  83  86  87  86  86  85  83  84  84  83  79  74  74  72  72  73  78 105 161 164 166 169 169 169 169 169 170 169 170
 183 182 184 185 185 185 186 186 188 187 187 186 174 124 113 111 109 116 111 111 112 111 110 112 110 112 113 120 123 121 126 130 131 131 130 129 126 126 129 126 118 102  75  58  53  60  63  63  63  62  70  61  55  54  53  43  38  40  38  38  46  64  80  87  91  89  88  88  84  78  76  82  82  81  78  74  73  72  73  76 118 165 169 169 169 169 169 169 170 169 169 168
 184 184 184 186 187 187 185 186 184 184 185 186 183 168 106  94  92 112 113 109 112 108 110 109 110 112 114 118 122 124 127 130 130 128 131 128 125 127 130 126 122 108  90  72  61  65  71  72  69  65  68  60  51  51  48  46  44  41  41  41  45  62  78  86  94  94  92  91  88  79  76  80  81  82  80  74  74  72  73  77 124 165 169 169 168 168 168 168 170 169 169 169
 183 183 183 185 188 187 185 184 184 186 186 185 184 183 176 152 142 126 114 111 112 111 109 110 112 111 114 118 121 124 127 130 130 129 131 128 125 128 128 126 122 113  99  86  75  70  69  72  71  63  59  54  47  46  46  44  41  37  40  40  43  55  71  84  89  94  95  95  92  88  83  81  80  77  78  74  74  72  76  78 141 166 169 170 169 170 169 169 169 168 169 170
 182 182 183 185 187 186 185 185 185 185 185 185 184 184 182 182 180 153 115 111 112 110 104 112 112 111 111 117 120 123 126 130 129 130 129 127 126 124 126 126 121 110 100  87  76  69  61  59  66  62  60  54  48  45  41  37  33  29  29  30  35  48  64  73  85  87  88  90  91  90  86  81  78  75  76  74  73  73  75  82 150 169 170 171 170 169 170 169 169 168 169 169
 182 181 183 185 184 185 184 183 183 184 184 184 183 183 182 183 182 163 116 112 109 112 110 112 112 113 113 117 118 121 126 128 130 129 128 126 124 125 125 123 114 100  97  82  66  51  44  47  52  49  50  51  48  46  35  32  28  24  25  25  27  38  53  66  71  75  75  72  81  87  86  78  76  75  77  74  72  72  77  84 160 168 171 169 170 172 169 169 168 169 168 169
 181 182 182 182 183 184 183 182 184 183 183 183 184 183 182 182 183 173 119 111 111 112 111 111 110 111 113 115 117 121 126 127 125 125 124 121 118 115 116 113 104  92  82  70  55  42  34  36  39  35  36  40  41  40  30  26  26  23  21  23  24  31  42  53  55  58  55  54  59  72  81  77  75  73  75  72  70  72  76  93 159 167 169 170 170 169 169 169 169 168 168 169
 180 180 182 181 181 182 181 182 183 181 182 182 181 181 182 181 181 176 132 113 110 111 111 108 105 108 112 116 117 122 124 125 125 122 115 113 104 101  96  97  88  76  62  58  45  33  30  30  30  26  25  28  30  31  26  22  24  22  19  19  21  27  33  38  40  41  42  37  43  54  67  70  71  72  73  72  72  72  78 102 161 167 169 169 169 169 169 168 168 168 167 168
 178 179 180 179 180 181 181 180 181 181 181 181 181 179 180 181 180 176 147 113 108 109 108 107 106 107 110 114 117 120 121 120 118 113 106  98  87  80  86  85  76  60  53  49  38  29  25  29  25  24  22  23  24  23  21  19  21  22  19  19  21  28  28  30  35  32  31  31  30  36  47  59  66  71  72  71  72  73  75 111 164 166 168 169 167 166 166 167 166 167 167 168
 178 177 178 180 180 180 179 180 180 180 181 180 180 179 180 179 178 176 161 114 109 108 108 103 105 102 106 112 114 115 118 115 110  99  83  76  69  63  70  70  59  48  45  42  34  30  27  24  26  25  22  21  20  20  19  20  23  25  24  22  23  26  27  27  30  29  26  28  27  30  36  47  60  69  71  72  72  73  77 125 163 167 167 168 169 167 166 168 167 165 166 166
 175 176 176 178 180 178 178 178 178 178 179 179 177 176 178 176 178 175 165 112 108 106 107 103 104 102 105 109 111 113 113 112 101  77  59  55  50  45  52  51  44  43  39  38  33  29  28  25  26  24  21  17  18  20  19  19  25  27  26  27  25  25  26  28  29  27  23  24  24  28  29  36  50  67  70  72  73  73  76 140 163 166 165 167 166 167 165 166 166 165 164 164
 174 174 174 175 175 175 175 176 176 175 176 176 176 176 175 175 175 173 169 125 105 105 105 103 102 103 102 106 110 108 108 105  86  58  46  41  40  34  40  41  41  41  38  38  36  31  25  28  28  23  22  18  20  24  28  24  29  31  33  34  30  32  33  33  30  28  24  24  23  27  28  32  42  63  68  70  72  72  85 155 163 165 165 165 166 166 164 164 165 165 164 163
 171 170 173 172 171 173 172 174 173 174 174 174 174 173 174 171 171 170 167 137 103 104 104 102 101 102 101 102 106 106 102  92  66  44  35  36  33  31  33  36  39  40  39  41  40  36  28  32  32  26  26  24  26  33  46  36  36  35  35  36  34  38  38  37  32  28  25  24  25  28  30  31  40  58  69  72  73  72  97 158 163 164 165 164 166 165 164 164 164 164 164 164
 167 168 167 169 170 170 169 168 169 170 171 171 170 170 170 169 168 169 167 153 103  98  98 100 100 101  99  99 101 102  92  80  50  42  31  32  27  30  28  32  36  40  44  43  44  40  36  34  36  30  34  35  38  44  50  40  34  34  33  33  32  32  31  29  25  23  25  27  30  32  34  41  45  62  71  73  73  73 125 158 162 163 164 164 164 164 164 164 164 164 164 163
 166 168 166 166 167 166 167 168 167 167 167 168 168 167 168 166 167 168 166 164 112  98  97  98  99  99  99  98  97  98  94  73  46  40  33  27  25  27  28  33  37  40  44  43  40  37  35  35  33  31  34  38  43  42  36  32  32  33  31  29  29  32  30  29  28  32  37  38  40  39  42  49  57  66  71  72  72  77 148 160 161 162 164 163 163 163 163 162 163 163 163 162
 166 166 168 167 167 166 166 167 166 168 167 168 167 167 165 166 166 166 165 162 131 100  97  96  95  96  99  99  98  98  95  73  49  42  36  29  28  29  31  32  33  34  37  40  36  36  33  34  33  29  29  30  31  30  26  28  30  33  36  37  40  43  40  39  41  46  50  51  50  47  49  55  63  68  71  72  71 105 157 161 162 163 163 164 163 162 163 162 162 161 159 159
 166 165 166 165 166 166 165 166 166 167 166 166 166 166 166 163 164 165 164 161 150 102  96  95  91  94  96  96  95  96  92  81  64  48  41  38  39  43  49  52  52  49  50  52  53  53  56  55  48  44  42  40  37  38  39  46  50  52  50  48  48  47  47  49  50  52  56  56  53  50  51  56  66  69  71  71  72 140 158 160 160 164 162 163 162 161 162 163 162 160 158 158
 165 165 165 166 163 163 164 164 164 166 164 165 164 165 165 165 164 164 162 163 156 117  96  94  94  93  93  94  92  92  93  89  78  67  53  51  55  65  72  74  74  73  63  60  59  60  62  64  62  62  58  54  54  53  56  59  58  56  52  49  49  49  50  54  53  56  58  59  56  53  54  58  65  69  69  70 104 153 158 158 160 160 161 161 161 161 161 160 160 160 159 159
 164 162 163 164 164 163 163 163 164 164 165 163 161 163 162 163 164 163 162 163 158 139  96  90  90  90  90  91  90  91  88  88  81  75  64  62  73  78  84  84  84  85  80  69  67  64  63  61  63  64  63  61  60  59  60  59  56  52  48  48  50  49  54  54  56  56  56  56  56  52  51  57  63  66  68  74 141 157 159 160 158 161 161 159 161 162 162 161 160 159 160 160
 161 162 163 162 160 162 162 161 162 161 160 161 161 162 160 161 160 160 159 158 158 153 106  93  90  89  90  92  90  88  86  86  83  79  71  71  79  84  86  88  90  91  89  82  76  72  68  63  60  59  58  56  55  54  54  52  50  47  47  47  51  53  52  54  55  54  52  52  52  49  52  57  64  66  70 115 152 155 157 158 159 159 158 158 160 158 158 160 158 159 158 158
 159 162 161 160 160 160 158 160 159 159 158 159 159 160 159 159 160 158 157 157 158 157 135  92  88  88  90  90  90  87  84  83  83  78  74  73  77  81  85  85  88  88  84  81  79  78  73  68  60  56  53  50  50  49  49  48  45  46  46  48  50  50  51  52  53  51  49  49  50  51  52  58  62  63  78 147 155 156 156 158 159 158 157 158 159 159 159 158 158 157 155 157
 160 159 159 159 158 159 159 159 159 159 159 161 160 158 159 159 159 158 158 158 158 156 153 108  86  86  87  88  84  83  84  84  84  82  75  73  76  79  83  80  82  82  81  77  75  73  66  63  59  54  50  42  42  42  39  38  39  37  38  41  42  45  50  51  52  49  46  47  48  49  52  56  63  66 118 153 156 157 155 156 156 158 156 157 158 157 158 155 156 157 155 155
 158 159 159 158 157 158 158 159 161 160 160 160 160 159 159 160 159 158 157 158 159 158 157 150  97  83  83  81  78  79  81  82  79  80  74  75  74  77  78  78  78  79  80  76  73  68  62  56  51  47  39  32  28  29  28  27  28  27  30  32  42  45  49  51  53  50  48  47  47  52  53  53  60  88 147 153 155 155 154 155 156 154 156 155 156 156 157 157 155 157 156 156
 158 158 157 157 156 158 159 158 161 162 160 159 160 159 158 159 159 159 158 158 158 158 158 156 146  97  79  78  78  77  78  79  77  78  78  74  68  74  74  76  74  74  71  74  74  70  61  54  51  44  35  26  22  22  21  22  24  25  28  35  46  50  51  52  52  48  50  49  46  52  54  56  59 114 149 153 154 154 155 156 155 156 154 154 155 156 155 154 155 155 155 154
 154 156 155 156 156 156 159 158 159 160 159 159 159 159 159 159 159 159 159 158 157 157 155 154 149 138  95  78  77  77  75  79  75  79  82  77  75  74  73  76  74  73  68  72  71  67  66  63  58  49  36  28  24  20  18  20  23  28  29  38  49  53  55  54  52  53  54  51  52  57  52  57  61 133 149 150 152 152 152 154 153 154 154 153 155 154 155 155 155 154 154 154
 153 153 153 154 154 154 156 158 158 159 159 159 157 158 158 158 158 158 158 157 154 151 150 151 149 145 114  87  79  76  74  78  78  78  79  75  73  71  69  74  73  79  75  75  73  71  71  70  64  54  41  29  24  21  17  20  22  29  35  41  54  56  59  60  59  58  56  53  55  57  53  53  64 114 135 142 148 148 149 150 150 151 151 153 154 153 153 154 154 153 154 153
 154 154 155 154 152 152 156 158 158 158 159 157 156 155 158 156 156 156 154 150 150 148 146 143 137 130 111  94  84  77  76  76  80  82  81  77  78  79  80  76  75  81  81  80  80  75  74  73  69  56  43  36  29  28  20  23  26  27  32  41  52  61  62  63  58  61  58  56  56  52  49  51  68  57  59  63  77  94 111 128 144 148 148 149 151 152 151 153 152 152 153 152
 153 151 152 152 151 154 155 158 155 157 157 157 156 156 156 153 153 151 147 129 112  93  81  76  64  65  89  92  85  83  76  75  77  82  85  82  85  85  81  81  79  89  92  89  88  86  88  83  73  58  47  38  32  29  27  29  36  33  32  39  51  61  65  62  58  62  57  57  57  51  45  53  68  47  39  43  45  47  53  51  57  72  97 131 146 148 150 150 150 151 152 152
 149 149 148 149 150 150 154 155 154 154 154 154 154 152 151 149 128 101  77  72  64  57  56  52  47  45  78  92  80  85  81  75  74  79  83  87  88  88  91  89  83  92  96  92  94  91  94  84  82  66  58  46  38  32  33  30  41  40  38  37  49  57  61  58  56  58  58  50  50  50  47  60  68  46  31  31  33  37  36  38  41  42  45  49  67 102 136 146 147 150 149 149
 149 149 149 147 150 151 152 153 154 154 153 154 152 150 118  86  72  62  59  53  48  43  41  39  37  36  75  94  88  85  85  79  71  73  73  76  79  88  95  86  84  89  98  98  91  87  87  74  76  78  66  53  40  34  40  41  45  44  44  39  40  46  50  51  54  55  52  49  44  43  46  63  67  43  27  28  29  31  31  32  35  36  36  39  43  47  54  90 138 146 147 148
 149 147 148 146 147 148 150 152 151 154 152 151 130  92  72  63  62  54  44  40  38  34  30  27  32  70  94  98  93  87  87  83  77  70  63  69  70  82  89  89  94  84  90  92  76  66  67  63  71  80  75  57  44  39  46  45  51  41  45  43  34  39  42  42  48  51  43  40  34  34  50  62  70  56  38  24  23  24  26  29  30  31  33  34  36  37  41  49  50 111 145 146
 148 146 147 146 147 145 147 147 148 148 142 101  78  63  61  60  52  42  34  30  25  30  33  47  75  88  89 100  94  92  89  85  83  77  66  61  70  75  77  81  82  77  77  77  60  52  50  56  64  77  71  60  45  41  45  43  48  43  42  42  35  38  40  36  33  43  39  31  26  29  54  63  68  54  51  49  32  23  18  20  20  23  26  29  30  32  36  38  42  44  75 136
 147 144 146 146 144 144 142 144 145 129  85  70  66  58  51  43  37  30  30  41  52  58  73  77  87  75  76  98  96  94  93  90  82  81  75  63  60  67  67  64  64  69  70  66  48  40  47  48  58  65  65  64  48  44  42  42  45  38  37  34  32  34  36  33  29  30  30  27  24  31  57  65  67  55  49  48  47  51  49  41  33  24  20  24  28  30  33  36  39  43  47  59
 145 144 142 145 142 142 141 141 112  78  65  66  57  42  31  28  40  51  60  57  56  77  74  86  83  51  91 100  97  94  93  92  88  83  73  61  58  53  47  52  55  57  61  54  39  40  42  40  50  55  54  54  47  43  39  39  39  34  34  32  30  30  32  28  26  25  24  20  24  41  55  66  65  52  44  45  48  40  44  49  49  52  46  30  22  26  28  31  35  38  41  45
 144 143 143 142 141 141 136 100  74  68  65  56  42  31  32  56  67  66  61  60  76  75  77  83  76  56 112 101  98  98  96  94  92  85  80  68  55  41  39  39  41  44  46  43  37  37  36  33  42  46  45  47  40  38  34  34  33  34  30  30  29  26  26  25  21  22  20  19  28  52  61  67  66  51  40  48  46  47  35  41  53  56  59  58  49  35  24  28  33  35  40  42
 143 141 142 141 130 109  82  72  66  59  56  46  30  52  69  69  75  62  57  76  81  75  79  82  64  78 111 101  98 100  98  95  91  90  83  71  50  38  36  33  34  35  35  37  34  34  34  30  35  35  33  33  30  30  30  30  28  28  26  29  28  24  24  22  19  18  18  23  46  58  64  66  65  53  36  44  44  48  40  34  39  47  63  80  76  65  52  30  28  31  35  38
 140 140 129 101  79  76  70  67  66  54  51  34  72  74  70  68  51  52  71  81  75  83  83  82  53 101 112 101 100  98  99  97  94  92  90  84  70  59  36  30  29  31  30  35  31  34  33  27  32  28  26  26  25  26  25  23  22  22  22  25  22  19  19  19  17  18  23  35  52  61  64  66  65  61  28  43  44  43  50  32  34  38  48  46  70  86  85  69  41  25  30  34
 128 102  82  73  68  70  61  63  68  47  36  77  89  86  60  44  45  67  74  84  76  90  82  74  45 117 109 100  99 101  99  98  97  94  92  88  84  77  61  33  27  26  25  28  26  31  27  26  26  21  19  19  21  20  19  17  19  17  18  20  17  16  17  18  18  28  33  51  57  63  65  66  66  66  28  38  40  40  45  45  32  34  41  45  41  41  80  93  76  55  27  30
  80  75  74  63  62  61  63  71  52  35  99  95 113  85  41  35  66  65  82  80  81  83  79  67  58 123 109 102 104 104 101 100  97  93  92  89  86  82  68  56  42  28  26  25  23  26  23  22  23  19  15  15  18  17  15  14  15  15  16  16  18  18  17  22  28  47  50  59  63  64  66  68  68  66  39  35  41  39  42  49  43  31  34  38  45  38  48  76  96  85  71  28
  73  67  63  65  63  67  64  52  36 112 109 116 102  87  30  54  68  62  86  74  85  79  71  63  70 123 108 101 104 105 103 100  97  95  93  90  89  82  75  77  54  41  35  27  25  27  26  22  22  19  16  15  16  16  14  13  16  15  17  20  20  21  30  36  45  53  56  63  65  66  66  65  67  66  51  30  42  35  36  42  47  40  31  31  38  41  36  52  75 104 102  92
  65  63  56  64  64  67  56  38  95 128 139 114 106  73  37  69  55  78  85  67  79  74  72  66  73 120 108 103 104 105 105 102  99  94  96  94  91  87  81  81  74  66  46  36  37  36  30  26  28  22  17  19  21  21  17  15  19  23  25  35  35  38  44  50  55  56  58  62  64  64  64  66  67  67  63  26  40  40  34  36  43  48  35  27  28  36  40  34  62  90 122 116
