P2
# Generated by OpenCV 3.4.0
92 112
255
  78  78  78  78  80  81  83  82  83  82  83  83  84  84  84  85  85  85  85  86  86  86  86  87  87  85  86  88  88  88  88  89  88  88  89  87  86  88  87  85  86  84  84  83  83  81  80  80  82  81  85  81  83  82  83  87  87  90  95  97 101 102 106 108 108 108 111 110 110 110 110 111 110 112 111 110 110 110 109 109 108 109 110 109 110 110 109 108 109 110 110 109
  76  79  79  80  79  83  82  82  83  84  84  84  85  85  86  85  86  86  87  86  87  86  86  85  87  86  87  86  84  86  85  84  84  83  82  81  82  82  84  84  85  82  83  85  87  86  88  92  97  99 103 103 106 107 108 109 111 112 112 111 113 112 113 113 114 113 114 113 114 112 112 112 113 112 112 112 112 112 111 111 111 110 110 112 110 110 110 111 110 110 109 109
  78  79  78  80  81  83  82  83  83  82  84  83  83  84  84  84  84  84  84  84  83  82  80  80  80  77  80  80  82  83  83  85  85  86  89  92  94  95  97 100 102 104 105 110 111 109 110 111 112 112 112 113 113 114 114 115 115 115 114 115 113 114 114 113 114 115 115 114 115 112 112 114 112 113 113 112 114 113 112 112 111 111 112 111 112 111 111 110 110 110 109 109
  76  78  79  78  78  81  80  80  80  81  80  78  78  78  78  78  76  76  79  79  79  77  80  86  88  91  92  94 100  99  98 104 108 109 110 110 112 111 112 113 111 113 113 113 112 114 114 113 116 116 115 115 114 113 114 113 114 114 115 116 115 114 115 114 115 115 113 115 115 114 115 115 113 114 115 114 114 112 112 111 113 112 112 112 112 111 110 110 110 110 110 111
  74  74  76  73  73  71  74  74  74  75  77  79  80  85  86  87  90  93  96  97 100 103 104 107 107 110 110 109 111 108  93 109 112 112 114 114 114 114 113 113 115 116 115 114 115 116 116 116 115 115 114 115 115 114 117 113 115 115 116 116 116 115 115 116 115 115 115 114 114 116 114 114 114 115 114 113 113 114 114 112 113 112 113 114 113 113 111 110 111 110 111 110
  71  71  76  79  85  89  89  91  97  94  98 103 104 104 106 107 107 109 110 107 108 111 110 111 110 112 113 112 113 114 114 114 114 114 115 115 116 115 113 115 115 117 115 116 117 120 117 116 115 115 115 115 116 117 115 115 115 116 115 114 116 115 114 116 115 115 113 115 115 116 114 114 115 115 114 114 113 113 114 114 114 113 114 113 112 111 113 112 113 111 111 113
  96  96  99 100 101 102 102 104 104 105 107 106 107 106 109 109 108 110 111 110 110 112 112 112 113 113 113 114 113 115 116 115 115 116 118 121 119 116 116 117 122 127 120 118 118 119 120 116 114 117 118 117 114 117 116 115 116 116 116 117 117 116 116 116 116 116 116 115 116 116 115 114 116 115 115 116 114 114 115 114 114 113 114 113 112 111 113 113 112 112 112 110
  99  99 102 103 103 105 105 106 107 105 106 107 106 107 108 110 110 112 110 111 113 113 111 113 114 115 114 114 113 115 121 118 116 118 126 123 129 127 127 124 131 137 124 121 121 119 115 114 118 116 121 117 115 115 114 114 118 118 117 117 116 116 117 116 116 116 116 115 116 116 116 115 116 115 116 116 114 115 115 115 114 114 114 113 112 113 113 114 113 112 111 111
 102 102 102 102 103 105 105 105 105 107 108 109 109 110 110 111 111 111 113 113 114 113 111 111 114 115 114 116 115 117 118 118 122 123 137 126 139 157 156 144 155 150 126 123 131 126 117 118 106 110 111 103 107 111 115 114 116 118 116 116 117 118 118 117 116 116 116 117 116 117 116 115 114 115 116 116 116 114 114 115 115 114 114 114 114 112 113 113 112 112 112 112
 103 101 104 104 105 103 105 105 107 107 108 109 108 109 111 110 112 112 112 112 113 114 114 112 114 114 114 116 115 115 121 125 142 142 154 160 169 181 173 163 170 147 133 130 134 125 121 118 106 113 100  93  94  93  93  95 106 112 115 115 115 116 117 116 116 116 115 116 116 118 116 114 117 115 116 116 114 117 115 114 114 114 114 114 115 114 114 112 113 114 112 111
 102 103 106 105 105 105 107 106 108 110 110 109 108 109 111 110 114 113 114 112 114 114 115 115 115 117 116 116 118 131 146 158 179 178 183 189 178 178 175 174 167 153 147 140 135 123 128 110 113 116 100  99  88  86  82  79  77  86 101 113 115 117 118 118 117 116 116 117 116 117 116 116 116 115 117 116 116 116 115 115 115 114 114 114 115 114 114 114 114 114 112 112
 103 104 105 106 104 106 108 107 108 108 109 110 110 111 110 112 112 113 113 114 115 114 116 115 115 117 117 115 136 150 158 174 182 175 174 174 173 174 180 180 171 169 158 150 137 134 130 114 119 121 106  93  88  87  93  87  81  79  81  92 108 113 116 118 117 117 117 117 116 117 117 118 117 116 116 117 116 116 116 117 116 115 116 116 117 116 115 114 115 114 115 113
 104 105 105 105 105 107 108 107 107 110 108 111 111 111 111 112 114 113 112 114 115 115 115 116 116 118 115 131 155 152 157 167 160 165 163 174 176 175 188 192 185 181 173 162 154 140 128 120 121 118 108 102 100 104 100  88  80  82  85  86  87  99 111 116 117 116 118 117 117 116 118 116 117 117 117 119 118 116 115 117 117 116 115 115 115 115 114 113 115 114 114 114
 105 105 106 107 105 107 107 109 111 112 109 111 111 112 112 112 112 114 114 115 115 116 115 117 119 117 114 142 151 151 154 156 162 163 172 183 181 185 195 195 193 193 177 165 161 140 130 133 133 121 114 106 109 107 104  96  92  92  90  84  80  83  94 110 115 116 120 120 118 117 120 117 116 118 118 118 118 118 117 117 117 117 117 115 116 117 116 116 117 116 115 116
 104 107 106 108 107 107 108 108 109 110 111 111 112 112 112 113 113 115 116 116 116 116 115 118 124 120 121 153 153 156 166 169 177 187 198 202 200 198 200 203 204 189 178 166 153 142 137 138 130 128 121 116 113 114 108 103  99  90  85  82  81  81  80  91 108 116 119 120 118 119 121 119 119 118 118 118 120 118 118 117 117 118 116 115 117 118 117 117 117 118 117 116
 105 108 105 108 108 107 108 109 110 110 111 112 112 112 113 115 114 114 115 115 117 118 120 122 126 135 168 172 171 184 198 204 211 220 232 227 219 208 201 198 194 182 167 159 151 145 146 149 146 141 142 139 131 126 117 104  96  89  79  80  80  76  80  80  90 108 116 119 121 120 122 120 120 121 122 121 122 122 121 120 120 120 121 118 120 119 119 118 117 117 116 115
 105 107 106 107 106 109 111 110 110 111 111 112 112 112 113 114 115 115 117 117 117 120 122 122 126 167 221 206 206 218 230 236 240 242 248 242 232 219 204 193 187 176 164 161 160 162 168 174 173 169 166 157 150 142 133 127 120 116 109  93  79  75  73  70  75  85 107 117 122 122 121 121 122 123 121 120 121 120 120 121 120 119 120 121 120 119 118 119 119 118 118 118
 106 106 107 108 108 111 109 112 112 111 112 114 113 115 117 116 116 116 117 116 120 120 123 123 134 201 222 218 224 237 244 246 248 247 244 238 231 217 201 192 187 183 180 179 186 186 186 188 183 180 174 168 160 153 146 138 131 131 128 120 102  81  77  83  73  78  82 109 122 122 121 123 122 122 122 122 123 122 122 122 121 122 122 121 121 122 121 122 119 121 118 118
 108 109 110 107 109 110 111 114 113 115 116 116 115 117 119 119 120 118 120 119 121 123 123 127 166 214 212 218 227 238 239 237 237 237 232 230 222 212 197 195 198 194 190 188 190 190 186 183 183 175 171 164 159 158 151 146 143 139 138 134 126 110  88  76  88  74  73  88 115 122 122 123 123 123 123 122 123 123 123 122 121 121 122 123 123 122 121 121 122 122 119 120
 109 108 110 109 110 111 112 114 114 115 120 118 119 119 120 120 121 121 120 122 124 124 125 142 202 205 206 215 222 227 227 228 227 225 220 208 207 202 190 191 195 189 190 187 188 188 183 181 176 167 158 155 150 148 148 148 146 145 141 139 133 129 117  90  84  86  71  72  92 119 122 124 125 124 123 123 124 124 123 123 123 122 123 123 122 123 123 121 121 121 121 120
 111 110 112 112 112 114 115 116 118 119 118 121 120 120 121 122 122 122 124 125 126 125 128 177 201 204 207 212 219 223 220 220 218 216 207 200 194 189 184 183 183 182 182 173 178 182 177 175 169 159 149 143 141 140 142 144 146 149 147 143 138 139 133 125  97  85  77  67  70 107 123 126 127 126 126 126 124 124 124 125 125 124 123 122 123 124 122 123 124 122 123 122
 113 113 113 114 116 116 118 119 120 121 121 121 121 123 123 126 125 124 126 127 129 130 160 199 205 204 208 209 212 218 213 211 208 203 197 192 183 180 179 174 175 177 173 171 174 174 168 166 159 150 142 137 135 136 137 137 140 141 145 144 145 144 141 137 125 100  85  67  64  81 113 124 128 128 128 127 126 126 125 126 125 125 124 125 125 124 124 124 124 124 124 124
 115 116 116 116 117 118 120 121 122 122 123 124 125 126 126 126 127 127 128 128 130 148 194 200 202 203 203 203 204 208 203 197 193 188 182 177 175 174 177 177 176 171 167 161 162 162 159 153 142 134 129 128 127 128 130 132 137 139 139 143 142 142 139 133 126 116  93  78  64  68  92 119 128 128 128 127 127 126 125 127 128 126 126 125 127 126 125 126 125 124 125 124
 120 119 120 119 120 121 121 123 124 127 127 128 128 126 128 128 130 131 131 132 138 184 200 200 198 199 197 194 191 192 184 186 189 187 184 181 177 178 176 173 166 164 158 150 157 149 145 137 131 125 121 119 118 119 124 128 133 137 139 141 141 137 131 127 122 120 112  95  75  63  68 100 123 128 129 129 129 127 127 128 127 128 127 128 128 128 127 127 126 126 125 126
 122 122 123 123 123 124 126 126 127 127 128 129 131 129 131 133 131 133 134 137 163 199 201 200 195 194 190 187 186 184 183 185 181 181 177 172 171 169 164 164 161 155 149 146 148 139 134 125 119 118 112 108 111 113 118 120 125 130 131 136 136 132 126 122 121 120 120 110  97  75  63  76 109 124 129 130 129 129 128 128 128 129 129 128 129 129 128 129 129 129 127 128
 126 124 126 126 125 127 127 127 128 129 131 131 130 131 132 133 133 135 136 142 193 201 201 197 191 184 182 181 180 181 181 174 177 181 178 172 166 164 163 163 158 154 147 145 146 140 132 124 116 111 108 107 109 109 112 118 121 125 127 130 128 126 122 118 119 119 119 119 109  97  70  65  86 117 129 131 130 130 130 130 130 130 130 130 130 129 130 129 130 130 130 129
 127 127 129 129 128 128 129 130 130 132 133 133 133 134 135 135 136 140 140 160 195 204 198 192 186 184 183 180 178 178 179 183 184 181 176 172 166 164 166 162 155 145 144 146 146 138 132 126 117 112 108 105 105 109 111 115 122 122 124 124 123 120 117 118 120 119 119 122 115 111  87  67  71 107 128 131 133 131 132 133 132 131 130 132 132 133 132 131 130 131 132 130
 130 130 131 131 132 133 131 132 132 133 134 135 135 136 137 140 138 141 142 172 195 198 191 188 184 181 182 181 182 183 183 183 179 178 169 165 166 169 175 170 161 160 158 161 158 151 142 130 121 115 111 109 108 110 110 110 116 118 117 118 117 113 113 115 118 117 117 121 114 104  94  75  68  88 122 131 135 133 134 133 133 132 133 133 134 133 133 133 133 134 132 131
 133 132 134 134 134 134 133 134 136 136 136 137 138 138 140 138 140 143 149 182 193 191 188 189 189 191 189 186 188 188 187 184 182 176 177 173 178 190 190 178 168 167 169 165 160 151 141 133 128 123 118 116 117 116 111 113 115 113 112 114 112 110 110 115 116 116 117 116 111 103  88  79  68  77 114 133 136 136 136 134 135 135 135 134 135 135 135 134 135 135 133 133
 137 137 136 136 138 137 137 137 138 137 139 141 140 138 140 142 143 144 159 185 192 193 191 190 192 196 194 194 193 193 187 188 185 186 181 182 181 181 166 166 168 172 172 169 163 154 145 137 132 130 126 126 118 115 117 118 114 112 110 110 110 109 109 113 114 113 115 113 112 102  89  78  70  74 105 132 136 137 137 136 136 136 136 137 137 136 136 136 136 135 136 135
 136 140 139 141 141 141 139 140 142 140 142 142 141 142 143 145 143 146 172 185 191 194 195 194 194 196 196 200 199 197 194 189 185 180 181 177 173 168 161 168 173 177 179 172 166 158 152 145 138 135 130 125 119 119 121 118 117 114 111 111 110 110 109 113 113 113 114 113 110 103  88  72  70  73  99 129 136 138 139 140 139 137 138 138 139 138 138 137 137 137 136 136
 141 143 142 144 143 142 141 143 142 143 144 144 145 144 145 145 146 151 181 184 188 192 197 198 199 202 202 205 204 198 193 188 178 175 173 170 171 170 171 172 173 178 179 174 163 155 147 144 139 137 136 135 127 125 122 120 116 112 110 110 110 109 110 111 110 110 113 111 112 104  92  72  65  66  96 130 137 139 139 140 139 139 139 138 138 140 139 138 138 137 138 138
 144 144 144 146 144 144 144 143 145 144 145 146 146 147 145 148 149 155 183 184 187 193 198 202 205 205 203 198 197 191 188 178 173 169 169 167 166 167 171 170 171 175 168 163 153 144 142 142 140 143 139 130 128 127 124 118 118 111 109 110 109 109 109 112 111 111 112 110 110 106  96  74  62  59  77 133 138 140 141 142 142 141 140 140 142 142 140 140 140 139 139 139
 146 147 146 148 147 147 146 146 147 147 149 149 148 148 150 149 148 154 181 183 188 194 200 203 205 204 198 191 185 178 169 166 162 162 161 160 155 158 167 168 164 162 156 146 141 138 136 138 142 137 137 134 131 127 122 119 115 113 110 109 110 110 109 111 110 109 111 111 112 107 100  81  62  56  56 117 138 140 143 143 143 143 142 142 142 142 141 141 141 142 139 140
 149 148 151 150 150 151 149 148 148 149 150 151 150 151 153 151 151 160 181 185 189 195 199 199 200 195 190 180 170 162 157 156 150 147 149 149 144 152 160 154 145 143 136 130 127 128 132 130 131 137 134 134 132 127 125 124 117 114 112 110 110 110 109 109 108 109 110 111 112 111 101  88  68  56  53  91 137 142 144 144 144 145 143 144 144 144 144 144 143 143 142 143
 152 152 152 152 153 153 149 150 151 150 151 152 152 151 154 156 154 165 182 186 190 194 198 196 191 179 169 159 152 146 145 140 137 141 140 141 143 145 147 139 128 124 120 118 116 119 120 127 125 125 127 127 122 121 122 121 121 117 114 109 109 109 109 110 110 110 111 110 112 109 102  91  70  58  55  75 132 142 146 145 145 145 144 144 146 144 145 144 143 144 144 144
 154 156 155 156 155 155 154 153 153 153 154 153 155 155 156 159 156 171 183 184 186 189 184 175 161 146 135 125 128 125 127 127 126 126 129 132 130 129 129 125 117 112 110 105 106 107 111 116 115 113 106 103 101 105 108 111 118 117 111 110 110 108 108 108 107 109 110 109 110 109 102  93  75  59  55  76 135 143 144 145 145 146 146 146 145 144 146 145 144 144 144 144
 158 158 159 160 159 155 157 156 156 157 156 157 157 158 158 158 150 168 179 176 172 170 154 130 117 113 105 100 107 108 107 114 118 117 118 119 118 119 120 115 108 102 100  97  93  95  99 102 104 102  91  88  84  85  93  95 108 109 107 108 110 109 106 108 108 109 111 110 110 108 101  93  81  61  56  64 131 142 144 146 145 146 147 147 147 146 148 147 147 147 146 145
 159 160 160 161 160 158 159 157 157 158 158 158 159 160 161 159 152 168 174 159 144 128 112  96  88  89  92  86  91  88  95 103 109 109 111 113 113 111 109 105 100  93  91  88  80  88  80  73  74  75  69  63  64  65  63  73  79  84  87 100 107 109 106 109 109 108 112 111 110 110 102  94  84  63  53  61 116 142 146 149 149 150 148 147 149 149 150 147 148 147 147 147
 162 161 163 163 162 160 159 159 159 159 159 159 159 161 162 160 145 168 159 134 112 102  86  76  73  78  85  81  79  81  85  91  99 103 109 109 108 104 101  98  93  86  82  76  68  66  64  62  60  58  56  56  56  60  65  70  75  79  83  84  87  97 106 107 109 108 109 110 110 112 106  90  81  65  50  57 105 139 147 148 150 151 151 150 149 150 150 149 150 151 149 148
 164 165 165 165 164 162 160 161 161 162 162 162 163 161 164 163 151 163 128 119 104  98  91  84  82  82  82  82  80  80  81  85  92 100 106 108 105 100  94  93  86  79  77  70  64  62  63  63  63  64  68  70  72  76  78  79  84  85  85  79  83  85  92 104 109 109 109 112 111 110 103  90  78  67  53  54  92 138 147 150 152 150 150 150 152 149 151 152 151 151 150 151
 165 165 167 169 167 165 164 163 164 164 163 162 164 163 165 163 149 151 126 123 116 107 101  96  92  90  88  89  91  88  86  89  93  98 102 108 106  97  91  89  84  79  76  71  69  72  72  72  71  72  75  76  77  79  81  83  87  89  91  92  93  97  90  99 107 110 110 109 111 112 101  86  74  67  56  54  80 134 149 150 150 151 151 153 152 152 152 152 151 151 152 152
 167 167 168 168 166 165 165 164 165 165 165 165 165 165 165 164 151 144 142 131 119 107  99  91  86  84  84  87  88  90  92  93  96 102 110 115 109  97  89  86  82  78  76  73  73  70  69  69  70  68  67  67  68  70  75  79  85  88  91  94  98 100  98  94 103 108 108 109 110 112 104  85  72  67  56  51  68 135 148 152 153 153 154 154 153 153 153 152 154 152 153 152
 170 170 170 169 168 167 167 167 166 166 168 167 166 166 165 162 154 140 143 128 113  99  83  74  64  58  60  66  79  85  87  90  99 109 117 119 111 100  93  88  84  81  76  70  68  64  62  56  49  43  43  44  46  52  58  64  78  83  87  91  95  99  96  90  99 104 108 110 111 111 102  89  73  63  56  50  62 134 150 154 155 157 157 154 154 156 155 154 154 153 154 154
 173 171 172 172 172 170 168 167 168 168 168 170 169 169 169 163 161 134 134 118  97  75  61  57  55  51  50  49  49  64  79  84  90 110 120 121 119 107  97  90  86  80  70  62  60  54  47  43  43  41  36  35  40  48  51  54  59  66  73  83  88  94  98  99  97 102 110 110 111 113  99  88  74  65  56  52  64 127 149 156 155 157 159 157 156 158 156 156 155 154 154 155
 173 174 174 173 172 170 171 170 171 172 171 172 172 171 171 167 165 144 125 109  82  64  58  46  44  44  47  52  55  54  58  70  82 102 123 133 130 113 101  91  83  74  64  56  49  43  42  45  45  36  36  38  38  51  56  52  59  60  64  76  83  88  93 101 102 104 108 109 111 113 101  84  76  67  59  53  63 121 147 154 156 157 159 159 157 158 157 156 156 156 156 155
 174 175 176 176 174 171 172 173 171 172 173 173 172 172 173 171 170 154 121 100  71  61  60  66  34  38  53  69  63  59  59  58  68  91 128 143 142 116 103  91  82  70  60  49  44  44  42  44  44  40  28  25  36  51  84  69  52  63  61  66  76  82  90  99 103 105 107 109 112 113 103  87  76  70  63  52  66 128 147 153 157 159 159 160 159 159 159 158 158 156 156 157
 175 176 176 177 176 173 173 173 174 173 172 173 173 173 173 174 171 164 125  97  70  68  71  59  26  33  61  82  78  58  56  66  67  84 131 154 150 130 108  95  80  68  59  46  47  41  35  46  48  43  34  30  41  61  94  85  68  56  60  63  69  79  86  96 102 104 109 110 112 116 109  96  77  71  58  51  68 135 149 155 159 160 160 160 160 160 160 158 159 159 159 158
 178 179 178 177 177 175 175 174 174 174 175 174 174 175 174 175 174 166 126 103  82  84  95  57  61  63  78  91  82  67  52  54  74  96 147 166 160 141 119 100  81  67  60  55  46  38  38  50  64  52  48  46  56  93  99  87  70  66  64  63  67  75  83  89  98 104 108 110 112 116 113  97  81  73  56  50  72 139 152 153 159 160 160 160 162 161 161 161 161 161 160 160
 177 179 179 180 176 176 176 176 174 176 176 177 175 176 176 176 173 167 130 108  92  94 114  95  81  84  89  86  78  68  61  69  88 115 169 176 168 153 131 109  86  73  64  60  55  52  51  55  59  65  64  65  79  88  89  80  80  82  78  66  68  73  81  87  98 104 109 111 114 114 111  96  79  68  54  51  85 143 150 151 156 160 161 161 162 160 162 162 161 159 160 160
 181 182 181 180 179 178 178 176 176 176 179 178 176 177 177 175 174 171 141 113 105 107 102  98  89  86  81  78  73  68  69  78 100 152 186 185 180 162 138 116 100  80  73  65  57  54  54  55  61  62  65  72  73  75  76  75  81  88  95  85  79  76  82  89  99 105 110 111 114 115 109 100  85  71  58  60  94 120 128 145 156 160 160 161 162 163 161 162 163 162 161 161
 181 182 182 182 181 181 180 177 178 179 179 180 179 177 178 179 186 176 149 125 123 122 113 105  94  86  81  72  70  68  72  88 130 181 188 187 175 156 135 119 107  91  79  71  63  56  52  55  62  66  70  72  73  79  82  83  90  96 101 102  96  92  90  95 100 104 107 112 115 116 112 101  91  92 100  96 101 108 110 114 148 162 161 162 162 164 163 162 162 162 163 163
 181 183 183 182 182 180 180 180 180 180 179 180 180 179 181 184 192 178 161 146 140 136 121 110 103  91  84  78  72  75  90 111 165 181 185 184 167 144 123 114 108  97  87  79  74  64  55  54  57  62  70  74  78  83  85  87  93  98 101 104 102 100  98 101 104 105 108 112 116 118 117 104  99 105 106 100  95  91  97  99 114 160 162 164 164 163 164 164 164 164 164 164
 182 184 183 182 180 180 180 180 180 181 182 181 180 180 178 146 127 168 172 167 155 143 127 117 107  95  88  81  82  94 112 136 176 180 183 178 159 134 115 108 107 103  96  85  82  74  65  63  62  62  67  74  78  83  86  88  92  98 100 104 103 102 101 104 106 105 109 110 115 117 118 106 103 103 100  92  77  65  69  76  87 152 164 164 167 164 165 165 165 165 162 164
 183 182 182 182 182 180 182 181 181 181 180 182 181 180 158 100  94 164 182 179 168 149 133 120 111 104  94  91  96 113 123 154 179 183 187 170 150 125 108 104 103 101  97  91  86  82  77  71  67  64  70  73  75  80  85  89  95 100 104 104 106 107 105 105 107 104 106 108 112 118 115 105 104  98  88  74  77  69  65  62  74 146 163 166 166 164 166 166 164 165 165 165
 185 183 183 183 182 181 181 182 181 181 182 181 182 179 142  93  90 166 186 184 176 158 140 124 112 108 102 102 112 125 130 168 183 186 184 166 140 117 105 101 102 101  98  95  90  88  85  80  73  68  72  78  82  84  88  90  94 104 105 106 107 109 105 108 106 105 104 107 111 115 110 104  98  90  76  69  79  78  64  60  76 144 165 166 165 166 166 166 166 166 165 166
 186 185 185 183 182 181 182 181 181 183 182 183 182 180 137  90  83 161 186 184 173 162 145 132 115 108 111 120 124 131 140 178 189 195 189 161 132 110 103 103 102 101 100  97  92  90  88  89  82  80  76  80  84  87  93  95  98 103 105 107 105 108 107 107 108 103 103 104 109 114 107  97  88  72  73  90  97  97  68  59  80 156 166 167 167 167 167 167 167 166 167 167
 185 185 185 185 182 182 183 181 181 182 183 183 182 181 147  90  80 158 177 176 169 158 145 134 120 113 121 129 132 135 155 186 194 197 183 159 139 123 108 104 104 101  99  95  94  91  91  91  89  89  88  89  91  94  93 100 101 103 102 105 105 105 103 105 104 102 103 103 109 113 106  99  85  54  50  71  92 105  77  62  92 161 165 166 168 167 168 167 167 166 166 166
 185 185 185 186 183 182 182 182 183 181 182 184 183 182 173  98  81 152 170 167 164 151 143 136 124 124 130 133 136 136 170 190 195 188 176 160 149 134 119 108 106 100  92  88  88  93  93  97  96  99  99  95  93  96  97 101 102 104 102 102 104 104 102 104 103 102 102 105 109 113 107  98  92  56  50  62  77  98  85  69 117 162 168 167 167 167 168 167 167 167 167 168
 186 186 185 186 184 183 183 183 184 183 183 184 183 182 179 137  95 145 160 158 150 147 137 134 132 132 135 137 135 145 184 189 186 174 159 143 138 136 127 117 108  99  92  83  84  89  92  98 102 102 102  99  99  99  97  96  98  99  98  98  99 102 102 103 102 102 101 104 108 110 108 107  97  58  50  56  65  88  89  86 145 166 168 168 168 169 168 168 168 168 168 167
 186 187 186 184 185 183 184 183 184 185 185 183 183 183 182 167 107 142 152 146 142 137 134 135 137 138 138 137 133 168 181 182 167 151 141 133 130 131 129 121 114 104  94  82  81  88  91  96 102 105 105 105 103 101  99  96  95  94  94  96  98  99 100 100 101 102 103 105 109 110 107 107  90  60  52  50  58  82  91 109 162 167 169 168 170 170 169 169 168 168 168 167
 186 188 186 186 185 186 185 184 183 183 184 182 183 182 183 181 135 140 147 137 136 136 139 141 141 142 140 138 136 174 174 164 144 130 122 116 112 113 118 112 110 103  97  85  76  83  90  96 101 102 104 104 102 100  99  97  93  94  93  95  95  96  96  97  98 100 102 104 107 108 106  99  67  57  51  49  56  83  96 136 166 168 169 168 169 172 171 169 170 169 169 169
 187 186 185 185 185 185 186 185 186 185 183 183 185 184 185 183 162 138 146 137 137 139 143 143 145 147 142 137 137 159 152 139 120 112 103 102 100 102 102  98  97  97  95  88  74  79  86  94  99 102 101 101 101  96  97  94  93  92  93  94  93  95  96  96  98 100 102 105 105 107 103  80  69  59  48  52  72  92 105 160 168 170 169 170 170 171 172 170 171 169 169 168
 187 186 185 185 185 186 186 185 186 186 184 184 184 185 184 183 182 148 147 141 140 143 145 145 148 149 142 133 130 136 127 118 105  97  94  92  90  92  89  87  87  90  93  88  70  78  86  92  96  98  97  99 100  97  94  91  95  97  98  95  92  95  96  94  97 101 102 105 105 107  99  73  95 107  93  93  96  94 131 166 170 170 170 172 172 171 170 172 172 171 170 170
 186 186 187 187 186 185 184 185 186 185 185 185 184 184 182 183 182 166 150 143 139 141 144 147 150 150 141 131 122 119 116 107  98  91  89  86  83  80  77  68  75  81  84  79  69  80  85  88  92  96  97  97  97  97  92  94  93  94  96  93  93  95  93  94  97 101 104 105 108 107  99 103 109 112 101  86  88 108 163 169 171 172 173 172 169 171 172 172 173 172 171 171
 186 187 187 187 187 186 186 187 187 186 186 184 185 185 185 186 185 180 157 140 138 140 143 150 153 150 144 132 123 123 118 106  95  87  84  80  76  72  61  47  57  73  74  69  71  79  84  85  90  96  98  97  95  95  94  92  92  94  96  95  94  92  91  93  96  99 104 106 107 103  95  98 108 110 110 104 106 145 170 171 171 171 173 172 171 170 170 172 172 170 170 170
 187 187 187 187 187 188 187 187 186 187 186 186 185 186 186 186 187 185 168 141 141 144 148 154 159 157 148 132 130 134 133 119  99  88  83  80  73  64  56  52  49  52  63  72  78  84  87  88  91  94  97  98  95  93  90  93  93  94  97  97  95  94  94  95  96 101 104 105 105 102  86  94 106 108 109 115 130 166 171 170 171 171 173 172 171 172 172 172 171 171 171 171
 188 187 187 187 187 188 188 187 187 187 185 186 186 186 186 187 187 187 175 145 143 146 148 160 167 164 149 140 142 146 147 131 101  97  88  75  66  61  56  54  55  70  78  83  87  91  92  92  93  98  97  98  99  98  94  94  93  96  96  96  96  99  98  98  99 101 101 102 100  97  81  92 103 107 108 135 163 170 172 173 171 173 171 172 171 172 173 173 171 172 171 171
 187 187 187 187 187 187 188 186 186 187 187 186 185 186 187 184 187 187 185 154 141 148 153 162 172 168 153 154 157 157 150 115  88  88  84  73  70  63  59  59  62  72  80  85  89  93  96  94  95  97 100 102 102 100  98  96  95  96  95  95  97  97  98  98 100  99 100  99  94  86  78  87  97 104 137 166 171 172 173 172 171 172 172 172 172 173 173 173 171 172 172 172
 187 187 187 185 186 187 186 188 188 187 186 185 185 185 186 186 186 186 186 164 142 148 161 171 176 166 159 164 161 157 140 109  79  75  75  73  72  64  61  58  54  61  70  80  87  91  94  97  99  99 101 103 102 100  99  96  97  96  92  93  96  99  97  98 101 104 102 100 102  86  77  84  97 145 167 171 172 172 173 173 172 172 172 172 172 172 171 173 172 172 171 172
 186 187 187 186 186 187 188 187 187 187 186 186 186 186 186 186 188 186 186 170 146 154 167 176 175 167 167 162 156 138 115  94  75  70  66  65  70  61  56  51  49  50  55  66  75  84  91  93 100  99 104 105 105 103 101 100  99  97  92  91  94  99  97  99 102 104 105 103 102 118 124 132 160 166 171 173 173 172 172 172 173 171 172 173 172 171 173 173 173 171 171 171
 186 186 186 186 186 186 187 186 187 187 187 186 186 185 186 186 187 187 187 177 150 157 170 180 173 159 153 147 138 117  98  87  77  71  62  61  62  64  55  47  47  45  48  58  66  71  79  84  91  96 102 106 108 108 105 101 100  99  97  94  93  95  97 100  99 101 102 104 102 116 141 159 164 164 169 172 173 172 172 173 173 172 171 172 172 172 172 173 172 172 172 171
 186 186 187 187 187 186 186 187 187 186 187 187 187 186 186 187 188 187 188 183 149 157 172 179 158 127 125 120 108  95  87  88  81  69  59  57  60  63  61  53  48  45  49  57  64  64  69  69  79  85  98 104 108 109 105 102 102 101  97  96  92  94  95  99 101 102 104 104  99 119 141 142 151 166 171 172 171 172 173 172 172 173 172 172 172 172 173 172 172 173 173 172
 186 186 186 186 186 186 187 187 188 186 186 187 185 186 186 186 187 188 187 182 155 158 172 167 120 111 102  89  87  83  89  95  95  74  58  54  56  61  60  59  54  50  49  53  61  58  58  56  62  71  92 102 108 110 107 105 106 102  96  98  95  92  92  97  99 101 104 102  93  94  99 133 160 169 172 172 173 173 173 172 171 172 173 172 172 172 173 172 172 173 173 171
 186 186 186 184 185 186 187 188 187 187 185 185 185 185 186 187 187 186 187 184 159 159 172 150 116  96  79  80  86  82  93 104 105  84  64  54  59  71  71  64  65  62  55  58  67  61  53  47  47  54  74  94 104 108 108 107 107 102  99  96  91  90  94  97  99 101 103  99  97 107 125 147 164 170 172 173 173 173 173 171 171 172 171 172 173 173 172 171 171 173 174 174
 186 187 185 185 185 185 188 187 187 186 185 185 185 186 186 186 187 186 187 185 166 156 171 153 103  80  73  85  95 100  92  90  96  91  84  76  78  84  74  66  71  71  64  69  74  67  59  52  44  49  58  79  98 107 108 108 105 103  98  98  93  89  93  94  98 102 101  96 104 139 152 159 165 170 172 173 173 172 173 172 172 173 172 170 172 172 172 172 172 172 172 173
 186 185 185 185 185 184 186 186 187 186 186 184 186 184 185 185 187 186 185 184 170 151 170 161 114  87  86  88  97 104  85  80  84  85  82  81  76  68  63  60  63  64  68  72  76  74  69  65  57  57  68  78  94 102 110 110 104 102  98  92  91  93  92  93  97  99  99  95  99 105 119 130 152 167 172 173 173 173 172 173 171 172 173 172 172 172 172 172 171 172 170 174
 185 185 184 185 185 185 184 184 186 184 184 186 184 186 185 186 187 186 186 184 174 151 165 151 119  99  88  76  81  77  66  60  66  70  67  66  62  58  58  57  53  50  51  55  61  66  66  68  72  74  78  88  99 105 110 108 104 100  97  92  89  94  93  92  97  99  96  95  94  77  97 129 158 169 172 173 172 172 172 173 171 172 172 172 172 172 173 173 171 170 173 174
 185 184 184 184 183 183 184 185 183 184 183 184 184 184 186 187 185 186 185 183 175 152 155 147 118  96  77  62  54  56  54  51  45  41  41  44  41  40  35  32  31  30  31  32  39  41  39  44  59  70  78  89  94 106 108 105 103  95  91  88  90  92  94  90  92  95  93 100  86  74  98 131 158 169 172 172 172 172 172 172 171 172 173 173 172 172 174 173 172 171 172 172
 183 183 183 183 183 184 184 184 183 184 184 183 183 183 185 184 183 186 184 182 167 140 143 142 113  95  84  90  90  91  93  94  79  66  67  61  56  49  45  47  48  54  49  49  49  48  48  57  59  68  75  82  86  96 103 105 105  98  91  89  93  96  92  86  88  88  90 100  83  74  91 127 159 170 172 173 172 173 172 172 171 172 173 171 172 171 173 171 172 173 172 172
 184 183 184 184 183 183 184 183 183 183 183 182 182 183 184 183 185 185 184 181 168 127 139 137 110 100 102 108 110 110 114 111  98  89  88  82  80  78  77  74  77  77  76  75  71  70  78  80  77  75  77  78  86  94 102 102  99  97  90  84  89  92  89  84  82  82  92 101  77  60  99 146 166 172 172 172 173 173 172 172 171 172 171 171 171 172 170 171 172 171 173 171
 182 183 183 183 183 182 182 182 182 183 184 184 183 183 184 184 185 184 183 182 170 138 134 132 118 104 108 113 113 117 121 112 101  91  87  86  82  82  80  77  76  76  79  80  81  86  85  85  85  83  81  75  82  91  92  96  89  92  87  83  85  91  86  85  83  82  92 101  96 121 150 163 170 171 172 172 172 172 172 172 169 171 170 171 171 171 171 170 172 171 171 172
 181 182 181 181 183 182 181 182 182 183 182 183 183 184 182 183 183 183 185 183 172 135 127 128 114 106 109 112 111 116 112 102  93  85  82  83  81  79  75  74  71  72  79  83  82  84  85  84  83  81  77  74  72  87  92  89  84  80  80  79  82  82  85  82  78  86  97 103 130 157 167 170 174 173 170 170 168 169 170 173 174 170 169 169 169 171 170 170 172 174 173 173
 180 180 180 181 182 181 182 181 182 182 181 182 182 182 182 183 183 182 184 182 169 126 116 115 104 102 108 111 115 118 111 101  92  86  82  86  84  78  78  77  72  72  77  80  79  84  84  84  82  80  74  70  65  74  87  83  77  72  69  71  78  79  81  74  74  86  95 102 100  98  86  69  56  54  48  48  50  48  51  49  56  64  84 105 136 167 172 169 171 170 171 171
 180 180 180 180 180 180 182 181 181 180 181 181 182 183 182 181 182 182 183 182 171 122  97 110  97  93  98 111 115 117 115  99  93  85  72  77  68  70  69  73  75  74  79  80  80  82  83  82  78  76  70  65  59  63  81  80  70  70  67  69  74  77  66  65  77  87  93 100  49  34  30  30  30  30  28  28  29  30  29  29  28  30  35  39  43  49  79 134 164 169 170 171
 180 178 178 180 181 178 180 178 180 180 180 182 180 182 183 181 182 182 183 180 170 137  84 100  92  85  88 102 113 112 107  95  87  73  64  62  54  55  56  62  70  72  79  78  81  80  77  77  73  65  60  55  51  50  60  73  63  59  56  63  64  66  54  67  78  86  94  98  44  23  19  18  17  16  16  16  17  18  18  18  18  19  21  24  27  30  38  44  62 116 168 170
 180 179 177 180 178 177 177 177 179 180 180 180 181 181 181 182 182 181 176 172 170  94  73  90  85  80  79  91 107 106 101  92  84  74  64  55  45  44  49  54  62  68  73  74  76  77  73  71  66  56  52  48  46  44  45  62  58  56  54  54  54  52  50  71  79  89  93  96  40  19  15  13  12  12  12  12  13  13  13  13  12  14  17  16  18  22  25  28  35  40  64 141
 181 181 180 180 180 179 176 178 178 179 180 179 180 181 180 180 179 178 165 145  88  64  60  79  80  74  80  84  99 104 103  97  86  78  67  54  45  43  48  53  60  67  70  75  75  74  66  59  54  48  47  42  38  38  41  51  58  50  53  54  45  41  56  73  83  91  93  92  28  17  16  14  12  10  11  11  11  10  12  12  11  11  13  11  15  18  18  19  24  29  36  42
 179 179 178 179 179 178 177 176 177 177 177 178 178 179 178 182 154 108  84  71  55  48  57  69  71  73  78  85  98 105 107 104  96  85  76  57  53  48  53  62  65  71  77  79  81  77  65  51  48  44  43  40  34  34  35  46  56  51  42  43  36  43  68  83  88  91  93  94  55  18  13  13  16  13  10  10  10  10  10  10  11  10  10  11  12  13  12  14  19  22  28  35
 178 177 180 178 177 176 176 177 176 175 175 176 178 177 176 121  76  71  70  56  47  45  48  54  62  66  72  85  95 107 109 109 100  93  86  66  65  62  68  71  72  77  82  84  81  75  65  47  44  39  38  39  34  32  38  47  51  47  39  32  31  47  71  86  89  91  94  95  94  62  20  12  15  16  14  11  10  10   9  10   9  10  10  10  12  12  11  12  16  18  23  26
 177 177 177 176 176 174 177 176 177 174 175 176 175 175 105  69  64  62  56  46  38  39  42  49  58  64  75  82  91 105 109 106 102  96  90  79  77  80  81  78  78  80  84  85  80  67  59  43  38  35  33  33  34  32  35  43  48  44  30  29  39  59  78  90  92  91  93  94  96  95  56  18  13  15  15  14  16  14  12  11  10  10   9   9  10   9   9  11  14  17  18  21
 176 176 176 175 176 176 176 176 176 176 176 176 175 120  63  59  57  55  45  35  29  21  34  48  54  57  65  72  82 100 101 102 105  98  89  78  86  89  85  79  77  82  84  81  66  59  51  41  36  33  34  34  32  31  32  35  40  34  25  34  57  72  80  89  92  93  94  97 100 103  91  37  20  16  16  13  14  15  15  16  16  14  13  10  11   9  10  11  13  15  17  20
 175 175 176 176 175 176 175 174 174 173 174 174 154  65  57  54  55  49  38  29  24  14  34  42  44  47  58  63  79  88  93  99 104 100  85  73  86  87  80  74  71  74  82  76  65  53  46  41  34  31  32  32  30  31  29  29  29  26  31  54  72  85  89  91  96  97  95  95 100 105  98  63  29  17  16  15  13  13  15  15  15  16  16  14  14  11  10  10  12  14  15  18
 174 174 175 174 172 173 172 160 131 111 102  90  73  53  53  54  50  41  30  25  20  17  39  39  39  42  46  62  70  73  82  91  95  91  76  74  80  78  74  67  68  71  77  74  65  51  43  36  34  29  30  29  26  27  26  26  24  27  50  68  76  85  90  92  95  96  95  95  99 105 101  83  41  21  15  16  14  13  15  15  14  13  14  14  15  14  14  12  11  11  12  15
 173 173 172 161 118  88  60  53  51  50  49  54  54  50  52  52  44  33  24  20  14  24  37  36  34  34  39  53  57  65  68  76  81  80  68  66  72  74  68  67  65  71  70  67  64  45  37  33  32  30  29  28  26  26  24  20  23  40  64  74  80  85  90  92  94  95  95  94  96 102 101  94  53  26  17  15  14  13  12  15  14  12  14  13  15  16  15  13  13  12  11  13
 171 161 100  54  52  45  39  34  34  38  40  47  49  48  55  46  37  27  19  18  14  30  33  35  33  31  36  44  49  57  59  67  72  69  61  62  72  73  70  69  65  66  64  57  52  41  35  30  27  27  28  25  23  24  21  22  34  64  71  80  82  86  92  92  94  95  93  95  95 101 102  98  63  31  20  16  14  13  13  14  13  12  14  12  13  15  16  16  14  13  12  13
 132  66  54  46  44  39  35  32  30  29  39  48  47  50  48  39  30  21  15  15  22  32  32  31  27  29  34  38  42  45  49  55  56  57  54  58  64  65  66  61  57  59  55  50  45  38  31  29  25  25  22  23  20  21  24  35  61  71  75  81  83  87  91  94  96  96  94  94  94 101 102  99  73  36  22  16  15  13  12  13  13  11  11  12  12  14  15  15  14  13  12  12
  54  48  48  45  40  36  33  30  30  36  44  47  46  50  43  34  24  17  12  15  27  32  30  23  18  41  33  31  31  34  39  40  44  46  49  50  57  59  56  52  48  46  43  42  39  33  28  27  26  23  21  20  17  20  41  58  70  74  76  81  84  88  90  92  93  95  93  92  93  99 100 100  77  39  24  16  15  12  12  13  15  12  12  12  11  13  14  15  13  12  12  12
  43  42  45  42  37  33  30  27  28  37  44  48  50  46  38  29  21  13  10  17  30  32  28  19  17  56  56  28  25  27  31  31  32  32  39  42  45  50  50  41  38  35  33  32  29  27  24  24  22  22  18  19  20  38  62  70  74  78  74  80  84  86  86  91  93  93  92  93  93  97  97  99  81  43  26  17  14  12  11  13  13  11  11  12  12  12  14  14  13  12  12  12
  37  41  43  42  37  33  28  26  28  34  45  47  49  42  35  28  18  11  11  20  32  26  23  16  17  56 107  48  32  25  24  23  23  25  26  29  30  34  35  31  29  28  26  26  25  23  19  23  19  19  20  22  37  58  67  73  75  76  76  80  83  83  84  88  90  91  93  94  92  96  98  98  84  46  26  17  14  11  11  12  14  11  11  10  12  13  13  12  12  12  10  11
  34  41  42  41  36  33  29  27  29  37  44  48  45  38  29  20  14  10  12  25  29  24  18  15  16  57 116 104  67  50  28  23  20  22  23  22  25  26  24  25  25  25  22  23  22  21  22  22  20  24  31  40  50  60  66  69  71  77  78  80  81  82  84  88  91  89  93  94  92  93  95  95  84  50  27  15  14  11  12  13  13  12  10  11  12  12  13  12  12  12  11  10
  34  40  41  38  35  32  28  27  32  35  40  47  41  33  21  14  11   9  14  26  26  23  19  14  15  48 117 115  96  83  73  36  29  22  22  21  24  24  21  22  24  25  22  22  24  31  42  42  46  44  54  60  61  66  67  69  72  74  75  77  79  83  86  87  88  88  90  92  91  93  94  93  81  46  26  16  12  11  10  13  12  10  10  10  12  12  12  12  12  10   9  10
  35  40  40  35  32  31  29  26  30  34  37  46  38  30  21  13  10   9  19  28  24  20  18  14  14  28 110 106 100  96  95  84  62  57  52  33  25  26  24  31  39  43  36  35  45  55  62  61  58  57  62  64  65  68  69  71  72  74  77  79  82  83  84  86  88  87  88  90  91  90  94  90  78  45  26  16  13  11  11  12  12  10  10  10  12  12  11  12  10  10   9   9
  35  39  37  34  30  29  28  28  32  32  36  46  34  26  18  14  10   8  20  26  23  20  19  14  12  22  89 101 102 101  94  93  81  72  70  67  65  58  53  62  66  66  61  59  70  66  69  64  62  62  62  65  66  68  70  72  72  75  76  80  81  82  81  83  85  85  86  88  90  90  92  88  76  40  24  13  12  11  10  12  12  12   9  10  12  12  12  11  10   9   9   9
  33  36  36  32  29  28  28  30  30  28  34  40  30  23  16  14  10   9  20  24  22  22  19  13  10  21  56  97  95  96  94  96  88  81  78  74  76  77  75  75  76  74  71  72  72  71  69  64  64  63  62  65  65  71  72  72  73  77  81  81  81  80  82  81  82  82  86  87  88  90  90  86  68  37  21  14  12  11  11  12  12   9  10  10  12  12  11  11  11  10   9   9
  30  32  34  31  29  27  28  28  26  30  35  38  32  24  17  12   8  10  22  24  20  21  17  13  11  17  30  82  93  91  94  91  91  85  83  77  80  83  79  78  77  76  75  74  73  70  68  63  62  63  61  66  68  71  71  71  73  76  78  78  76  78  76  78  79  80  85  86  87  88  87  79  60  31  19  14  12  12  12  12  13   9  10  11  12  12  11  11  10   9   9  10
  28  33  35  30  31  29  27  27  28  30  35  36  31  21  18  14  18  36  45  27  21  20  18  15  13  13  23  42  87  90  90  91  90  87  85  82  80  82  82  80  76  76  75  72  70  69  63  60  62  63  62  67  68  70  70  72  72  75  74  75  73  75  74  76  77  80  83  86  86  86  84  74  51  28  17  12  12  12  12  12  12  10   9  10  12  11  11  12  10  10  10  11
  30  32  33  31  31  30  28  25  29  31  36  35  28  22  19  11   8  13  21  19  19  18  18  15  14  12  14  25  52  85  88  86  87  87  88  83  83  79  82  82  80  76  74  71  66  63  61  61  63  65  63  66  66  72  69  72  72  73  70  72  72  72  74  76  76  80  80  82  85  84  78  64  41  25  16  13  12  10  12  12  11  10  10   9  11  11  11  10  11   9   8   9
  30  33  32  31  30  31  28  26  28  29  33  31  29  23  14  11   6  12  16  17  18  17  18  16  17  14  12  17  27  60  84  85  83  86  84  82  80  78  81  82  80  76  73  72  68  66  65  62  63  62  65  67  66  70  69  71  71  72  72  70  72  72  72  74  73  76  78  79  80  78  71  58  33  22  13  12  11  11  12  12  11  11  10   9  11  11  10  11  10   8  10  10
  29  33  31  30  28  29  28  26  26  27  33  30  28  18  14  10   8  10  13  14  16  16  15  14  17  14  12  12  19  26  58  78  83  84  82  81  78  78  77  80  79  76  72  70  68  67  65  61  60  64  65  66  65  68  68  71  70  70  70  70  73  72  72  72  73  75  73  77  75  72  63  48  28  19  12  12  12  11  12  12  12  11   9  10  12  12  10  10  10   8   9  10
  30  31  31  29  28  27  25  25  23  25  31  30  21  18  18  11   9  10  12  14  14  14  14  13  16  13  12  11  13  20  29  61  78  80  80  78  77  76  76  80  77  73  70  68  67  67  64  62  58  62  63  62  65  65  66  67  66  70  70  69  71  72  71  72  74  72  73  72  70  65  55  38  24  14  12  10  11  12  12  12  11  10   9  10  12  11   9   9  10   9  10  11
  30  30  30  28  27  27  25  24  21  23  31  27  22  22  19  13   8   8  10  12  12  13  13  13  13  12  10  11  12  13  19  29  55  77  80  79  78  75  76  77  72  73  69  68  66  64  61  59  60  61  61  64  63  65  65  68  65  69  68  68  69  72  73  72  72  72  71  68  65  59  45  29  18  13  11  12  11  12  13  10  11  11  11  11  12  12   9   9   9  10  10  11
