P2
# Generated by OpenCV 3.4.0
92 112
255
  75  76  77  78  78  79  78  79  80  80  82  81  82  83  82  83  84  83  82  83  83  84  84  84  84  83  84  84  83  84  85  85  84  85  86  84  84  84  84  83  83  83  82  90  99 105 108 113 112 107  91  87  84  86  84  83  85  88  88  91  94  96 102 103 104 104 103 105 106 106 107 106 106 107 106 106 106 105 106 105 105 103 104 105 106 106 106 105 105 104 105 104
  75  76  79  78  78  78  78  79  80  81  82  80  82  81  82  84  84  84  82  84  83  82  82  84  83  83  83  82  82  81  81  79  80  80  78  79  79  82  83  94  97  98 111 131 136 142 141 128 112 114 120 113 111 107 113 113 110 108 109 107 107 107 108 109 108 107 109 108 107 108 107 109 107 108 108 107 107 107 107 106 107 106 107 107 107 105 109 107 107 106 106 107
  76  76  76  78  79  78  80  79  80  80  80  80  80  81  80  83  80  80  81  80  80  79  78  78  75  76  78  77  78  80  82  81  83  83  86  89  98 107 115 114 133 148 139 150 168 170 160 138 135 119 112 116 116 105 115 113 116 108 108 110 109 110 109 109 109 108 109 109 109 110 110 109 107 108 108 108 107 108 107 107 107 106 106 107 108 106 106 107 108 106 106 106
  76  76  77  77  77  79  79  78  78  77  78  75  76  75  74  73  74  75  76  75  75  76  78  81  85  86  89  90  94  96  98 110 106 106 112 121 137 140 143 150 166 171 163 164 184 172 172 154 139 141 129 116 129 126 128 108 114  98  99  98 103 107 108 109 109 109 109 110 110 109 109 110 110 109 109 109 110 107 108 107 107 106 108 107 108 108 107 106 107 108 108 107
  72  72  73  71  71  71  73  71  72  72  75  77  77  81  81  83  87  91  93  95  97  98 101 103 105 104 106 107 107 107  89 111 121 113 132 141 150 148 149 172 182 187 172 173 182 179 166 158 143 153 164 131 137 152 128 121 128  98 100  92  99  93  90  96 103 106 108 109 109 112 110 109 109 110 109 109 110 108 108 109 109 107 108 108 108 107 107 108 107 108 108 108
  69  70  73  79  81  83  85  87  91  92  95  98  99 100 100 101 103 105 106 107 104 107 107 108 108 109 107 110 111 114 117 120 130 145 152 166 166 166 157 176 180 168 171 173 175 169 169 158 144 166 175 153 138 173 132 130 130 113 110  96  99  82  75  76  80  92 104 107 110 111 109 110 109 110 110 110 110 109 109 110 108 109 110 109 107 108 108 109 109 108 107 107
  91  94  94  96  97  99  98 100 101 101 103 103 103 104 106 106 105 106 105 108 107 107 108 108 108 110 109 111 111 117 132 152 162 175 188 183 182 184 174 168 169 154 159 165 165 162 162 146 140 170 166 155 138 166 133 141 128 126 103 105  91  83  82  74  69  73  85  96 107 109 111 110 110 109 110 111 110 109 110 110 108 108 109 108 108 108 109 109 109 108 107 108
  96  97  99  99 101 102 100 102 103 104 105 106 104 105 106 106 106 107 107 109 109 109 109 108 110 108 109 111 121 130 135 142 155 165 172 175 167 171 168 148 156 148 154 150 160 173 156 149 135 161 161 146 137 165 130 148 137 110 107 104  83  87  71  64  64  66  70  78  90 106 108 110 112 110 110 110 110 110 110 109 109 108 110 109 109 108 108 108 108 108 107 109
  97  97  98 101 100 102 101 103 103 105 104 107 107 105 107 107 108 110 108 109 110 110 109 110 110 109 107 115 138 149 133 138 150 157 156 164 147 155 153 140 159 149 143 146 159 173 145 149 134 160 153 135 129 152 122 144 136 104 110  95  89  78  72  75  72  70  71  70  74  91 105 110 110 110 112 113 111 110 111 109 110 110 110 109 110 108 110 110 110 108 107 107
 100 100 101 101 101 102 103 105 104 105 106 108 106 106 108 108 108 108 109 108 108 109 110 113 110 108 116 136 140 146 141 145 144 152 145 143 140 144 141 135 144 154 145 154 157 151 143 145 150 152 143 128 142 142 117 132 124 109 114  87  87  85  83  87  89  73  86  75  73  78  88 103 109 110 111 112 111 111 111 110 110 110 108 109 109 109 110 110 109 110 109 108
 100 100 104 103 103 106 104 105 105 104 107 108 108 109 107 108 108 109 110 109 110 112 112 113 113 109 122 141 147 141 140 132 129 133 129 126 135 140 137 134 135 144 145 149 152 148 142 147 156 141 151 133 144 131 115 127 126 115 101  87  90  91  92  86  78  77  83  82  74  82  78  90 105 109 111 111 111 112 112 113 111 110 109 111 111 110 109 110 110 109 110 110
 100 100 100 102 103 103 104 104 104 104 106 105 108 109 107 108 109 108 109 111 112 111 112 113 112 113 125 141 141 125 124 117 113 119 113 122 127 131 138 135 139 135 141 149 153 154 141 152 143 145 158 133 134 118 110 117 112 108  97  94  93  90  89  83  74  78  81  89  89  77  73  80  87 103 110 111 113 113 111 112 110 110 111 112 111 110 110 111 111 109 110 109
 100 101 101 103 103 106 106 106 106 105 107 106 108 109 109 110 111 109 110 111 111 111 112 113 114 115 134 147 125 122 120 117 116 119 112 120 124 130 139 137 139 134 140 147 159 138 151 147 141 166 141 134 122 112 101 108 109 105 100  90  89  86  82  82  85  88 101 100  89  76  76  73  70  81 106 112 112 113 112 112 112 112 113 111 113 112 112 111 113 112 111 110
 102 102 102 103 104 104 106 106 106 106 108 107 108 108 110 111 110 111 110 110 111 112 114 116 123 150 161 146 129 125 129 132 135 129 126 129 128 136 140 142 142 139 144 156 152 152 152 132 172 140 131 144 124  96 101 108 118 104  93  90  97  97 100  99  97  97  95  89  85  74  68  71  73  72  81 108 113 114 115 113 113 113 112 114 114 114 113 112 113 112 111 112
 102 102 103 104 104 106 106 104 105 107 106 109 108 108 109 109 111 111 113 112 111 115 114 115 150 155 170 171 151 147 149 146 150 142 139 136 136 142 145 149 146 143 158 147 144 144 140 159 143 130 124 126 110 103 104 108 102  95  99  95  99 100  99 100  95  93  86  85  82  74  71  72  71  68  73  97 111 114 114 114 114 113 114 115 114 113 112 112 113 113 112 112
 103 103 102 103 105 105 106 107 106 109 107 108 108 109 109 112 111 111 113 113 115 114 106 111 151 173 175 191 174 173 171 168 166 164 159 156 155 153 156 153 150 146 139 140 148 151 159 149 124 127 128 112 103 103 103 102  98  98  98 101 104 104 107 110 107 105 108  98  84  82  75  75  67  62  71  77 105 112 115 115 116 115 114 114 115 116 114 114 113 113 113 112
 103 104 104 103 104 105 107 108 107 108 109 109 109 110 110 111 111 112 111 113 112 109 116 130 163 178 198 206 196 195 192 190 190 185 178 181 182 178 170 159 148 141 144 147 149 146 142 129 130 128 110 108 102 105 103 101 102 105 111 111 111 115 114 117 113 115 116 114 106  91  78  76  79  67  67  67  86 109 115 117 120 117 115 116 115 115 115 116 116 114 114 113
 104 104 105 104 104 104 107 109 107 109 111 112 110 112 113 111 113 114 112 115 112 108 125 167 183 190 204 205 200 206 206 210 205 204 195 192 190 188 189 172 160 154 146 146 162 139 139 133 118 111 107 106 107 108 107 108 109 112 113 112 117 123 124 125 124 125 123 123 119 109  94  77  75  77  67  62  70  97 115 120 124 119 116 116 116 117 116 115 116 118 115 114
 105 104 105 106 106 109 109 109 110 110 110 113 114 112 113 111 114 114 115 118 113 118 152 192 203 199 204 200 197 202 210 218 221 217 208 207 199 195 192 184 170 162 150 139 137 142 129 114 110 106 104 105 105 107 109 110 112 114 116 118 123 126 129 130 131 130 129 128 125 121 114 102  83  77  76  66  62  76 109 118 117 118 117 117 118 117 118 117 117 115 117 114
 106 107 108 107 109 110 111 111 114 113 114 114 114 114 115 115 117 121 119 120 119 146 185 198 199 197 199 190 191 199 209 212 218 211 207 205 197 192 186 182 177 166 157 142 127 118 120 115 110 108 106 106 108 109 111 113 117 120 121 121 123 125 130 132 132 135 135 130 130 126 122 117 109  88  79  74  62  62  87 111 121 124 120 118 119 120 117 118 118 117 116 117
 108 109 108 109 113 112 112 112 113 114 115 115 117 117 118 119 119 120 121 120 134 179 195 196 192 190 188 186 186 193 201 202 206 204 203 192 188 183 179 175 174 165 153 140 130 124 120 120 114 111 109 107 109 111 113 117 120 124 126 126 124 126 130 131 132 134 133 132 127 125 126 121 119 114  91  78  65  60  73  98 119 132 123 118 120 121 117 119 118 118 118 118
 110 111 111 112 112 114 113 114 116 116 118 117 118 119 119 121 121 122 121 124 163 189 194 190 186 185 183 182 183 185 186 194 194 188 190 190 174 176 171 168 169 155 146 136 128 122 120 118 114 113 112 110 111 112 114 116 121 122 124 127 123 125 128 129 130 128 129 130 126 126 127 127 124 119 105  86  72  62  65  74 111 120 122 121 119 120 122 119 118 119 120 118
 113 112 114 114 115 115 116 117 117 118 119 120 121 123 122 124 125 130 126 141 184 189 189 188 188 185 184 183 177 177 177 179 176 177 176 171 166 162 158 158 145 142 140 130 120 119 120 117 114 112 112 111 113 114 112 113 116 117 119 117 117 118 120 123 124 127 127 127 125 123 126 128 125 120 113 101  83  67  63  65  92 114 121 123 123 121 123 121 122 122 121 119
 115 116 116 117 117 119 120 121 121 122 123 123 124 123 126 128 128 130 129 164 187 189 187 183 185 184 180 182 179 174 172 172 169 166 166 157 157 155 151 147 133 134 130 118 115 116 117 116 112 112 113 112 111 113 111 112 113 114 110 110 112 113 115 119 121 122 124 124 124 122 127 128 125 120 115 113 102  86  70  64  74 108 123 125 123 122 123 122 122 122 124 122
 119 121 122 121 120 121 123 123 124 125 126 125 127 126 129 129 130 127 144 180 188 187 186 184 184 180 174 175 175 166 167 164 160 158 153 150 148 143 142 132 126 123 117 113 110 109 108 109 110 107 105 106 106 110 109 108 110 111 109 106 108 110 111 114 116 118 117 118 121 121 122 123 121 118 114 116 112 100  85  69  71 102 125 126 124 123 124 125 124 124 123 125
 123 123 124 123 125 125 124 123 127 128 128 128 129 129 130 130 134 131 164 184 187 184 184 180 177 174 169 167 162 158 157 154 153 154 144 142 139 135 126 122 122 118 109 108 106 104 101 103 106 103 103 103 105 106 106 106 108 106 104 104 106 110 110 112 113 114 116 117 116 119 121 120 115 116 116 117 115 106  97  79  71  99 132 128 126 126 128 126 126 126 125 125
 125 126 126 126 127 127 127 127 129 128 130 131 131 131 132 134 130 145 178 184 185 182 182 178 173 169 164 163 152 148 143 144 145 140 140 130 125 124 119 114 111 107 106 102 102 102 103 102 102 101 102 100 101 102  99 101 102  99  98  97 101 104 104 107 110 111 112 115 120 121 121 119 116 115 117 116 117 111 102  89  73  96 121 127 129 127 129 128 126 128 127 127
 127 128 129 129 128 130 130 130 131 130 131 132 133 134 134 135 133 166 179 181 182 181 180 174 169 164 155 150 147 139 135 134 128 126 116 110 118 115 110 104 107 105 103 101 103 104 107 107 102 101  99  92  95  98  99  97  94  92  91  93  98 100  99 104 105 107 110 112 115 118 121 119 116 114 116 117 116 115 101  88  76  77 109 125 130 128 129 129 130 130 130 128
 129 130 132 131 131 130 132 132 133 135 133 135 134 135 135 135 144 174 175 175 177 180 178 169 164 155 149 143 137 136 130 121 124 115 116 119 119 116 115 117 117 108 106 102 106 104 102 101 100  97  94  90  92  91  90  91  90  90  90  89  94  99  96 100 102 103 105 106 112 113 116 116 116 117 117 116 116 113 100  86  77  78 108 124 130 130 131 129 131 131 131 131
 133 134 137 134 135 135 136 134 134 135 135 137 136 138 146 139 155 179 172 175 175 177 173 166 158 152 141 132 126 123 121 117 120 114 114 118 121 112 112 113 106 104 104 102 101 100  97  99  95  95  93  91  90  86  88  88  86  87  89  90  92  98  96  95 100 100 101 106 109 112 113 112 112 116 118 116 113 112 103  89  74  70  99 125 132 133 131 132 132 131 131 130
 135 137 138 138 136 136 136 137 136 139 138 139 139 142 141 134 160 178 171 171 170 173 165 160 153 147 133 124 121 122 121 117 116 117 115 114 107 110 111 111 105 104 100  98  94  97  97  95  94  93  93  90  89  88  87  86  87  88  88  91  91  93  93  94  97  99 101 105 106 110 110 112 113 116 115 113 113 111 103  90  74  65  74 121 131 134 135 132 133 132 132 134
 139 140 142 140 141 139 139 139 139 142 139 142 142 142 137 129 167 176 170 168 166 164 156 152 142 137 130 125 120 122 120 117 118 118 114 114 110 114 115 112 108 105  99  98  97  99  98  97  95  92  91  89  90  89  88  88  88  88  90  91  92  91  96  95  94  95 100 103 106 108 108 109 112 111 113 113 116 113 106  92  76  65  63  97 129 136 135 135 134 134 133 135
 142 143 144 143 143 143 142 142 143 142 141 143 143 144 123 130 168 175 168 165 165 162 153 146 136 135 129 123 118 123 123 119 118 114 121 119 120 121 120 112 109 105 101  99 100 101  99  98  92  90  89  92  91  88  88  88  90  90  89  90  90  89  92  92  93  92  97 102 100 105 106 107 109 111 112 114 113 113 109  95  76  63  59  67 127 136 135 136 136 135 136 134
 145 144 145 147 145 144 144 143 144 143 144 144 145 145 105 131 166 171 165 161 159 156 150 146 144 137 138 136 135 133 127 127 125 127 128 122 121 117 115 108 103 100  98  99 100 104 101  96  96  94  91  96  97  96  96  94  91  91  92  89  91  93  95  95  94  92  98  99 101 104 107 106 110 111 112 114 116 114 111  99  83  65  58  59 113 135 136 136 136 136 138 136
 144 145 146 148 147 147 144 145 145 146 146 147 147 150 103 130 160 165 162 158 157 152 149 148 143 140 143 144 140 138 134 132 132 132 131 125 120 117 110 102 100 101 102 109 117 117 111 103 101  99 102 101 101 101  97  94  95  94  94  90  93  97  98  97  97  95 100 101 103 105 106 107 109 109 111 111 115 112 111 103  90  67  58  60 119 136 137 137 137 138 137 138
 148 148 150 150 149 147 146 148 148 149 149 150 149 153 104 135 158 163 158 156 156 154 150 151 144 144 144 145 146 142 141 140 136 133 131 128 127 122 119 114 110 106 107 119 133 129 113 106 104 103 104 104 102 100 100  98  96  96  98  98  97  97  97  98 100  99 102 102 104 105 106 108 109 109 110 111 114 112 110 105  95  74  59  61 123 132 138 137 137 138 139 140
 151 152 152 153 153 150 150 150 150 150 151 150 150 155 102 134 156 158 156 155 156 152 143 146 147 148 149 150 149 142 149 147 142 141 131 129 129 128 124 117 112 113 114 115 117 108 104 104 104 107 108 107 104 104 102 102  99  96  99  99  95  96  97  98 100 100 103 104 105 105 106 107 109 109 111 112 115 112 112 107  99  86  67  60 118 135 140 140 142 140 140 139
 155 154 154 155 155 152 152 152 152 153 151 152 153 158 109 134 151 155 156 157 155 148 144 144 146 150 150 149 151 149 154 150 143 142 136 135 130 129 119 114 113 113 110 107 103  94 100 104 109 111 113 112 112 109 106 104 102 101  97 100  99  96  98 100 101 103 104 104 105 107 106 107 108 109 110 111 112 115 112 109  98  82  67  60 114 136 140 142 142 143 142 140
 157 156 156 158 156 154 153 153 153 154 153 154 153 153 103 132 151 151 155 157 150 145 146 146 151 154 159 158 160 160 155 154 147 144 135 136 127 116 110 111 110 108 103 104 102  99 101 105 111 112 113 112 112 110 109 106 102 102 100 101 100 101 102 103 104 105 106 104 105 106 106 107 108 110 110 111 112 114 111 108 100  85  66  61 110 139 142 143 144 144 143 142
 159 160 160 161 158 156 156 156 155 156 156 157 155 150  96 131 148 148 156 158 151 148 146 146 153 153 156 161 157 156 151 142 139 137 134 126 122 115 111 106 106 104 103 105 106 107 106 107 109 110 113 113 109 109 105 104 103 101  98 100  98 100 102 103 104 105 106 106 105 104 105 107 110 109 107 111 111 114 111 108  98  84  66  57 100 138 144 144 144 144 145 145
 162 161 162 163 160 159 158 157 156 159 157 158 156 142  92 123 144 150 155 159 156 149 146 147 152 157 159 158 154 152 146 137 132 127 127 122 114 107 106 103 102 101 100 100 102 105 103 106 107 106 106 107 105 104 101 101 103 100  98  99 100 101 103 102 105 108 105 106 105 107 106 106 109 110 110 111 113 111 112 107  99  85  65  55  93 138 145 145 143 144 144 144
 163 165 164 165 162 159 160 160 160 160 160 160 159 139  93 118 141 148 153 158 154 151 148 152 152 158 154 149 148 145 138 132 124 120 116 108 105 102 100 100 100  98  97  95  97 102 102 104 101 102 100 100  98  99  98  98 100 100  95  97  99 101 101 102 105 109 107 104 104 106 105 105 108 110 110 111 114 114 113 110  98  82  64  55  87 139 147 147 147 148 148 148
 165 165 166 165 164 161 162 160 161 161 161 160 156 152  99 111 136 147 146 154 153 152 148 155 159 160 154 148 142 138 132 124 117 109 107 101 101  97  95  93  92  92  92  88  91  97 100  98 100  98  94  93  93  94  94  93  95  97  97  99  99 100 102 103 105 105 106 106 107 108 107 107 107 109 108 109 114 115 114 111  95  77  66  56  91 136 148 150 149 150 150 149
 167 168 168 167 166 165 165 163 163 164 163 160 159 155 119 111 135 146 150 153 151 149 154 157 159 158 152 144 139 131 121 119 107 100  99  98  96  90  91  91  92  92  90  89  90  92  93  92  91  92  89  89  89  88  89  92  90  93  95  96  98  95  92  94  95  99  99 105 104 106 109 109 108 108 109 110 113 114 114 108  90  74  62  58 103 138 148 151 150 151 151 150
 169 169 170 169 167 166 166 165 166 165 165 164 162 161 148 104 134 145 153 152 154 153 154 154 155 150 145 138 128 115 107  99  95  93  91  90  92  90  88  88  90  89  91  90  87  88  90  89  86  86  85  85  85  83  85  86  89  90  91  90  90  85  82  84  83  85  92  96  92  97 103 110 109 108 110 111 111 114 117 111  89  70  60  60 125 141 148 151 151 150 152 151
 171 170 172 170 169 167 168 167 167 168 167 168 166 164 156 110 135 144 154 156 157 148 147 144 138 136 127 110 101  94  88  84  80  83  85  84  86  89  86  86  87  88  88  87  86  87  88  86  84  82  82  81  78  77  80  82  83  83  78  77  73  72  70  71  71  73  79  86  85  88  96 105 108 108 107 112 112 114 117 112  89  67  60  71 130 141 146 151 151 152 152 153
 172 173 172 172 171 169 170 168 169 168 168 168 167 167 165 110 135 144 153 155 152 139 125 118 110 100  90  76  78  76  74  73  70  73  76  78  78  80  84  84  83  86  86  84  84  85  86  83  80  79  78  76  71  69  69  71  71  72  71  68  65  62  57  58  60  64  66  70  71  75  84  91  96 105 109 111 113 114 116 109  87  70  62  80 143 142 146 151 152 152 152 153
 173 173 174 174 172 170 170 171 171 170 170 171 171 168 165 125 134 150 155 142 128 120 103  94  79  68  66  61  57  64  66  66  63  64  66  68  71  75  80  82  81  83  83  84  82  83  82  82  79  76  72  69  68  63  59  58  57  56  53  54  55  49  52  51  49  53  58  61  69  73  76  75  79  92 104 110 112 116 117 107  85  73  62  97 143 145 149 151 153 153 154 153
 173 174 175 174 174 171 172 170 171 172 171 172 172 171 167 139 132 149 153 115 102  97  84  72  68  64  58  54  51  55  62  63  57  57  60  61  63  68  75  78  82  82  83  82  81  80  78  77  74  70  68  65  61  55  55  51  51  49  48  47  45  44  49  52  57  65  69  69  76  76  76  83  87  89  99 108 112 117 119 106  81  71  60 116 139 144 150 149 151 154 154 155
 174 175 176 175 174 173 172 172 172 172 172 172 173 172 168 154 128 152 138 117  99  93  92  82  77  75  72  69  65  62  62  61  62  60  57  61  62  64  69  75  80  83  83  81  78  76  72  72  70  65  60  62  58  53  51  50  48  48  48  49  55  59  60  64  65  67  72  75  81  83  86  91  94  93  94 106 112 116 117 110  87  71  79 133 143 152 156 153 155 154 155 155
 175 176 178 175 175 174 174 173 173 174 173 174 174 172 170 165 138 152 132 116 109  98  95  90  81  80  78  73  71  71  70  70  68  67  67  64  66  67  69  74  78  82  82  80  77  73  71  70  65  61  63  62  58  54  53  56  58  59  59  62  62  62  61  63  68  69  71  77  81  85  88  94  95  95  93  99 110 117 117 112  91  69 108 144 137 135 141 153 154 155 154 156
 179 179 179 176 175 174 175 174 174 174 173 174 176 178 183 175 149 151 117 110 106 100  95  90  84  79  73  67  67  64  63  62  65  68  70  70  70  71  72  74  79  80  82  80  75  71  69  69  65  65  65  64  61  61  62  60  59  56  48  44  44  46  48  54  62  64  70  74  78  84  87  90  95  97  98 104 112 114 117 113  90  73 111 100 102 113 111 129 153 156 155 156
 178 179 180 178 177 176 176 176 175 175 177 176 182 193 206 200 171 152 126 108 102  96  87  82  75  64  56  49  45  38  36  33  35  43  56  65  68  71  73  78  81  82  83  81  78  72  70  70  67  68  68  65  61  59  56  47  38  32  32  34  36  36  36  42  44  47  54  63  68  76  82  87  89  97 104 107 111 115 116 114  90  87 101  95  97 103 107 108 138 155 155 158
 178 180 181 180 178 176 176 175 176 175 175 168 150 154 162 178 169 153 134 106  99  90  78  63  59  55  54  48  43  37  35  34  36  34  34  43  55  63  70  80  84  85  84  80  77  73  71  72  72  71  67  61  52  46  37  31  33  34  35  34  32  29  31  38  41  48  54  57  56  66  75  80  84  94 102 107 111 114 118 113  95  99 101  96  93  88  95  94 125 155 158 159
 181 181 181 179 177 178 178 176 176 175 174 140 101  96 104 130 152 152 132 107  95  83  71  65  67  52  48  50  34  28  27  29  31  37  38  37  39  48  60  76  86  88  86  82  80  76  75  75  77  71  62  50  41  34  31  34  37  36  39  31  28  29  33  30  44  45  49  60  62  61  67  72  81  87  99 107 110 112 118 111  99 103 101  92  76  66  60  68 120 156 159 160
 181 181 183 180 179 178 178 178 177 178 177 113  81  75  79  89 135 147 127 106  94  82  68  63  50  72  83  61  33  22  18  25  31  37  38  40  40  38  50  66  86  86  87  86  84  80  79  78  76  67  54  43  33  31  34  34  35  44  40  31  24  18  21  30  47  75  61  49  59  61  64  68  78  84  94 105 112 114 117 114 102 100  93  83  76  61  54  66 132 157 161 161
 181 182 182 180 178 180 177 178 180 177 175 108  76  71  72  83 120 148 129 107  94  82  66  58  75  95  94  53  36  19  15  22  33  40  42  32  36  47  47  57  79  92  93  93  89  84  83  81  77  63  52  38  36  36  31  30  38  47  41  36  20  14  19  31  41  84  85  60  59  58  61  68  73  81  93 105 111 115 118 115 102  95  75  80  83  60  53  71 144 159 162 161
 182 182 183 181 180 179 179 177 179 180 174 116  73  66  69  85 116 145 130 111  96  84  75  79  77 100 101  63  46  32  22  30  36  46  44  32  31  37  53  55  76  94  96  94  91  84  84  81  76  62  51  43  40  29  28  29  40  52  49  37  32  22  28  39  53  89  80  66  70  63  64  70  73  82  93 104 109 114 118 118  97  80  86  92  98  69  57  84 153 161 162 162
 182 183 182 182 181 181 180 180 181 178 176 145  79  64  64  93 116 143 128 114  99  87  83  84  80  86 106  93  53  39  37  36  45  44  36  30  33  39  52  59  75  95  98  95  90  86  86  84  76  62  51  49  40  32  30  30  35  47  57  48  38  34  35  48  82  83  71  74  81  75  73  75  78  85  96 104 108 112 118 116  78  53  70  90 100  80  65 109 158 162 161 162
 182 183 183 182 181 180 180 181 180 181 178 175 105  71  64 106 110 140 132 118 107  98  96  95  87  77  79  81  77  60  52  50  48  44  40  37  40  48  55  64  80  98 100  96  90  86  86  86  76  66  55  49  41  38  34  34  38  43  48  52  52  50  55  69  71  68  73  81  93  94  90  89  87  91  98 103 108 112 117 114  64  51  57  71  91  92  74 137 161 163 163 164
 184 183 182 180 181 182 181 181 181 181 180 179 161  84  74 103 103 136 134 124 115 108 106 105  92  81  75  71  68  64  59  55  49  46  42  41  43  46  62  73  86  99 101  95  90  86  85  85  78  68  61  52  44  37  36  34  37  42  45  47  50  52  55  61  66  68  72  86  99 100  94  93  91  95  99 104 107 108 114 108  62  47  49  61  81  93  98 158 162 162 164 163
 183 183 183 181 181 182 182 182 182 182 180 181 177 124  78 101  92 127 139 135 131 117 112 111 102  93  86  76  72  64  62  53  51  48  42  44  48  59  75  81  89 101  99  94  90  87  89  89  83  73  67  61  53  43  37  34  37  43  46  48  51  54  58  63  70  76  84  94 102 101  98  95  92  98 100 103 104 105 114 109  59  45  48  55  75  95 125 160 165 165 163 163
 183 183 182 183 181 182 180 181 182 182 182 182 180 167  90  96  87 115 143 143 140 127 116 110 106  98  90  84  78  69  62  58  53  50  50  55  64  77  85  88  94  99  97  92  88  89  92  93  89  82  73  66  62  52  44  37  38  44  48  51  53  60  64  70  76  82  88  96 101 100 100  99  98  99 102 103 104 108 113 101  54  42  44  52  79  97 148 164 165 167 163 165
 184 186 183 183 182 183 183 182 182 182 182 182 182 177 127  97  88 106 143 146 145 136 121 111 105  99  93  87  82  72  65  59  57  56  62  70  84  86  87  92  97 101  96  91  90  91  95  99  95  90  79  72  69  63  54  44  44  44  47  50  55  62  68  72  80  83  87  94  97 100  99 102 100 103 103 104 105 108 114  96  51  43  47  63  88 109 160 165 166 167 166 166
 183 185 183 183 181 182 183 182 182 182 182 182 182 180 169  99 101 114 141 145 147 136 126 114 107 102  94  88  81  75  71  66  66  68  73  85  91  91  93  98 102 101  94  92  91  89  94  99  99  95  84  77  73  71  64  55  50  47  46  50  56  62  66  71  78  83  88  93  98 100  99 101 102 104 104 104 104 108 114  97  71  64  76  90  90 137 163 166 167 167 167 166
 183 184 184 183 184 185 183 183 182 183 183 183 183 182 181 146 100 112 140 142 142 133 126 114 108 103  94  90  84  78  75  72  72  77  88  92  93  95  97 102 102  98  95  96  93  90  89  95  97  98  90  82  76  76  70  66  61  52  49  53  57  63  65  71  79  82  84  92  96  98  98  99 101 101 102 101 104 109 111 102 110 101  89  84 104 159 167 167 167 168 167 165
 184 184 185 183 185 184 183 183 184 183 184 183 184 184 183 177 113  93 135 139 136 131 120 111 104 100  94  89  85  77  78  80  83  89  93  96  96  97  98 100 102  96  94  94  95  91  90  91  93  95  91  86  80  77  74  70  69  63  58  58  60  64  69  70  78  82  84  88  92  94  96  96  99 100 102 103 103 109 110 105 113  96  83  94 136 165 168 167 168 166 167 168
 185 185 184 183 184 182 183 184 183 183 183 183 183 184 182 181 159 105 135 131 127 125 117 110 102  96  93  89  83  77  80  88  92  94  95  99  95  98  99 102 103  96  94  94  96  92  91  92  95  96  92  89  82  78  77  73  74  69  68  64  61  65  70  72  74  83  88  91  89  92  93  95  99 100 103 102 105 110 108 106 112 110 108 116 161 166 169 169 168 167 167 167
 184 185 184 184 184 184 183 183 183 184 183 184 183 183 183 182 180 131 134 126 118 117 111 106 102  98  96  93  86  86  90  93  95  96  99  99  98  99 102 107 105 103 103 102  95  93  91  91  94  96  96  91  84  82  76  73  75  75  74  73  74  72  76  78  79  81  85  90  89  89  88  93  97  99  99 103 105 108 104 103 109 110 120 146 166 167 168 170 169 167 168 168
 186 184 183 183 183 184 184 184 184 184 184 183 183 184 182 184 182 160 126 124 111 108 105 103  99  98  94  93  91  92  93  94  95  94  97  97  98  99 102 105 108 108 108 105  97  95  90  91  94  98  99  93  87  81  78  78  78  79  81  80  82  80  78  81  80  81  81  84  86  87  87  92  94  97  98 102 104 107 100 102 106 106 133 164 167 168 169 169 167 168 167 167
 186 185 183 182 182 183 184 184 183 184 184 183 183 184 184 184 183 180 130 124 110 102 102 100  95  94  93  92  94  94  95  97  94  95  94  94  95  98 104 110 112 113 110 107 101  91  88  89  93  96  98  93  84  80  76  77  79  82  84  84  85  85  84  82  82  82  82  82  83  85  88  89  94  96  99 103 107 106  92  98 105 114 156 166 168 168 169 168 168 168 168 168
 184 184 184 182 184 184 184 184 184 183 183 183 184 184 182 184 184 182 161 125 109 101  97  97  96  97  95  93  93  95  95  96  92  91  93  91  93  96 108 116 121 119 116 112 104  93  89  90  92  98  99  93  82  77  75  75  79  83  85  88  89  91  89  89  87  84  83  83  82  85  87  89  93  93  99 103 107 102  86  93 104 148 166 168 168 168 168 169 169 169 167 166
 183 184 183 183 183 184 184 184 184 184 185 184 185 184 185 185 185 183 181 140 113 104  97  97  97  98  95  95  95  94  97  99  94  89  90  87  88 102 115 122 126 123 120 113 105  99  99  96  96 100 102  93  80  72  73  74  78  82  84  85  90  91  90  88  88  85  82  83  85  88  89  90  96  94  98 104 106  90  82  92 139 165 170 170 169 170 169 168 169 168 169 169
 184 183 183 183 183 183 184 184 184 182 183 183 183 184 184 184 185 185 183 167 120 106  97  98  98  97  96  97  97  99  98  97  93  90  86  83  93 114 124 132 131 127 121 111 105 105 102 100 102 101 100  94  81  69  70  72  78  80  84  86  88  87  88  86  86  84  85  86  88  89  88  92  93  95  98 105 104 111 125 148 167 168 169 169 168 169 169 169 168 169 168 167
 184 183 183 183 184 183 184 184 184 185 184 183 183 183 182 183 185 183 183 177 127 106  99  96  96  98  99  98  98  99  98  95  91  87  84  80 103 124 134 136 129 124 115 108 102 103 102 103 100 100 100  99  86  66  63  68  75  79  82  83  85  87  88  85  85  85  85  86  89  90  90  92  93  95  99 102 101 152 164 169 169 169 169 170 170 169 170 170 168 169 168 167
 182 184 183 182 183 182 184 184 184 181 182 183 182 181 183 183 185 183 182 181 148 105  99  96  97  97  98  99 100  98  99  94  89  86  81  82 115 131 136 132 125 118 108  99  92  93  98 100 102 101  97  98  91  64  62  66  70  76  80  80  82  86  87  86  84  86  86  87  90  91  91  95  96  98 100  99 122 159 167 170 170 171 170 169 169 168 170 170 169 169 168 168
 184 183 182 182 182 183 183 183 184 182 184 182 183 183 183 183 184 184 183 182 161 112 101  97  99  98  99 101 103 101  98  93  89  83  76  81 114 127 131 125 117 107  96  90  88  89  92  97 100  99  96  98  91  62  60  63  69  73  77  82  83  84  85  86  85  87  87  88  91  93  94  96  98 100 101 105 136 167 170 170 170 170 170 169 171 169 169 168 169 168 168 168
 182 183 182 181 182 182 183 183 183 182 183 183 183 183 183 184 183 184 185 182 175 123 102  99 100 100 101 101 104 101 100  94  88  80  76  82 107 120 124 115 106  94  86  83  82  84  88  93  97  96  92  94  89  60  62  63  67  71  76  81  82  84  86  85  82  86  88  89  92  97  97  97  97 101 105 112 150 169 170 170 170 170 170 170 171 170 170 169 169 169 168 167
 182 183 182 181 182 182 183 181 182 182 182 183 183 183 183 183 184 184 184 183 176 146 105 100 102 102 102 103 107 108 103  94  85  78  78  81  93 102 110 102  93  84  76  74  74  79  84  87  90  89  87  86  75  59  63  66  68  71  76  79  82  85  83  85  84  88  88  88  91  94  94  97  98 100 103 113 151 169 171 170 171 170 170 170 170 170 169 169 169 169 168 168
 182 181 182 181 181 182 182 181 182 182 182 181 182 183 184 183 184 184 182 184 181 161 108 100 101 102 105 107 110 111 104  93  84  79  79  82  81  86  93  90  84  77  72  70  71  73  78  84  83  76  72  70  65  66  66  71  70  70  77  81  83  84  88  89  88  88  89  89  90  92  94  99  98 100 103 130 163 170 171 170 171 171 170 170 170 170 170 169 170 169 168 168
 182 181 181 180 179 179 181 180 182 181 182 182 182 183 183 182 184 182 183 184 182 169 116 103 106 106 108 112 113 114 106  92  83  83  82  81  84  81  79  83  79  74  69  69  68  70  75  77  66  52  58  67  70  72  73  74  76  73  76  81  84  86  90  90  88  89  92  91  90  89  91  97  98 100 103 135 166 169 171 169 170 170 170 171 170 171 170 170 169 170 169 169
 181 181 180 180 179 181 180 181 180 180 180 182 182 181 182 182 182 183 183 184 182 171 126 105 108 111 115 115 117 114 102  90  88  86  83  83  82  77  70  72  74  70  68  68  69  67  69  61  51  55  69  75  73  73  76  79  81  80  78  81  84  88  89  91  90  93  94  90  92  92  93  93  95  98 107 155 168 170 170 169 170 169 170 168 170 170 170 170 170 169 170 169
 180 178 178 179 178 181 180 179 180 179 180 182 181 182 181 182 183 183 183 183 182 178 139 108 111 114 117 121 121 111 102  92  91  87  81  81  77  70  62  56  65  68  67  67  65  61  56  49  48  59  68  71  74  74  75  78  80  82  80  81  86  88  93  95  94  95  94  94  93  93  92  92  91  96 106 157 168 169 168 169 169 168 170 169 170 169 169 170 170 168 169 168
 179 179 178 178 178 180 180 179 179 179 180 180 180 181 182 182 182 181 182 182 181 181 154 111 112 115 122 124 120 108  98  95  93  84  78  76  70  64  53  47  50  55  56  53  52  51  48  48  51  52  59  62  71  70  73  75  79  80  83  81  83  89  93  98  96  95  97  96  90  93  92  90  93  93  66  57 103 109 101 104 112 115 128 140 152 161 172 169 169 168 167 169
 178 177 178 178 178 177 179 179 177 179 178 179 179 181 182 181 181 181 183 182 182 180 163 113 111 119 124 127 120 108  94  87  84  77  72  68  60  56  47  44  45  48  52  50  52  50  48  50  52  45  44  50  57  61  67  68  72  76  78  79  82  86  92  98  98  97  97  97  93  91  88  90  92  86  36  30  32  34  32  34  37  38  40  43  43  46  54  69  89 109 125 155
 177 176 176 177 176 177 175 176 177 177 177 178 179 179 181 182 181 182 182 182 180 179 131 108 112 122 125 127 119 103  78  73  69  66  62  57  53  48  44  42  42  43  46  44  49  50  46  46  45  41  42  42  49  55  62  57  62  65  70  78  84  84  91  99 100 100 100  98  93  93  91  89  90  67  27  19  19  20  18  20  22  21  21  24  28  28  30  32  35  40  40  41
 177 177 176 176 177 176 174 175 176 178 177 176 178 179 180 180 180 182 179 178 149 110  66  96 108 118 125 123 112  79  65  61  62  53  53  50  47  45  39  41  45  44  44  42  43  46  48  43  37  38  39  41  46  54  53  56  53  52  58  64  80  84  89  98 101 102 100  99  93  88  88  91  87  62  21  16  15  12  12  13  14  13  14  16  16  17  18  19  21  22  24  30
 176 177 176 176 176 177 176 175 176 176 176 175 178 179 180 179 179 174 134  90  71  59  50  77 104 116 126 127 104  78  61  55  52  50  50  45  42  42  42  44  46  47  43  38  41  44  47  44  42  37  38  38  44  49  52  48  50  43  41  50  60  75  80  95 100 101  98  94  90  86  84  87  79  59  21  12  11  11  10  10  10  10  11  11  14  13  14  13  14  16  17  19
 177 177 176 176 176 176 175 175 176 175 175 176 176 177 177 178 164  94  71  65  52  47  39  74 107 114 122 122 102  72  55  48  46  47  47  46  43  43  44  48  50  48  44  38  37  41  44  44  46  41  41  39  42  46  47  44  43  39  34  40  48  60  78  91 100 100  96  90  85  84  87  86  76  46  17  12  10   9   9   9   9   9  10   9  10  10  10  10  11  12  13  14
 175 176 176 177 175 175 174 174 174 173 175 175 175 176 174 152  78  65  61  51  40  34  35  49  90 112 118 119 107  73  54  50  46  49  55  53  52  47  49  53  55  49  44  37  35  36  41  44  46  47  45  43  41  50  56  48  47  43  37  40  46  57  76  90  96  99  95  88  82  86  88  80  74  38  15  11  10   8   9   9   8   9   9   9   9   9   9  10  10  11  10  10
 173 175 175 175 174 174 174 173 170 167 152 142 134 129 121  69  63  57  50  40  31  25  22  34  74  98 110 109  92  78  66  60  55  50  51  60  64  56  56  57  63  57  51  41  38  42  47  50  49  49  52  50  49  54  63  59  50  48  48  49  59  67  82  92  99  98  97  89  81  80  83  71  70  25  12  11  12  12  11   9   8   8   9   9   9   9   9   9  10   9   9   9
 173 174 173 174 173 164 125  91  69  57  46  44  44  47  59  55  58  50  39  30  22  17  15  32  69  87 105 103  92  76  64  55  46  40  35  35  43  43  44  50  55  57  56  52  48  49  52  51  49  49  50  49  46  45  45  35  31  39  46  51  57  67  78  84  94  95  95  88  80  77  75  69  71  28  14  10  11  12  13  13  11  10   9   8   9   9   8   8   9   9   9   9
 172 172 171 173 115  55  49  38  33  34  33  33  35  47  48  51  50  42  33  24  15  12  15  35  63  82  97  98  91  71  61  53  50  55  50  43  42  41  38  31  36  44  47  49  50  47  44  43  38  31  29  28  30  32  32  32  40  43  43  48  50  60  68  77  89  92  84  83  76  72  65  65  79  66  22  13  10  10  10  13  15  13  13  11  10   9   8   8   8   9   8   8
 171 170 166  81  56  46  40  33  33  22  25  30  39  49  49  51  42  34  26  17  13  11  18  35  55  74  92  94  83  71  62  62  60  67  68  61  57  56  51  44  38  33  31  30  30  32  26  25  27  28  31  37  39  40  40  48  56  53  50  51  54  58  69  76  83  87  78  69  66  67  62  65  82  91  54  23  13  10   9  12  14  13  15  16  14  13  14  12  10   8   9   9
 170 161  80  54  44  39  36  30  29  21  20  28  45  46  49  43  36  27  19  13  11  13  26  35  54  71  85  92  83  76  68  64  71  74  77  75  65  63  61  58  54  48  43  37  36  38  34  34  36  40  44  46  46  47  52  60  63  59  55  55  57  56  63  75  81  81  74  64  60  56  59  67  89  99  83  40  21  13  11  10  13  14  13  14  15  15  16  17  15  14  13  10
 152  67  46  41  39  35  31  27  27  20  21  33  44  46  46  39  29  20  14  10  11  17  30  33  45  49  66  83  80  73  66  70  74  78  75  76  70  66  66  64  59  56  51  50  48  45  44  44  42  46  49  50  53  59  63  67  67  62  60  58  57  57  56  71  81  73  66  60  54  47  61  77  88 100  93  69  34  19  14  11  10  12  13  11  14  15  15  15  15  17  16  17
  54  42  36  34  34  34  30  26  24  21  27  39  43  46  38  32  23  15  10  10  12  24  30  37  35  40  50  74  79  66  61  64  72  74  75  78  76  73  69  61  59  56  54  53  51  50  49  47  46  48  50  56  64  68  69  70  68  66  63  62  58  56  51  57  73  68  54  49  46  43  75  79  90  99  93  78  43  26  18  12  11   9  14  12  10  14  15  13  13  15  15  17
  40  30  28  34  36  36  28  25  21  20  28  39  46  40  33  26  16  11   9  11  16  28  30  26  24  32  40  64  69  60  59  60  65  73  78  80  79  74  70  64  61  58  57  57  55  54  52  51  52  53  57  62  65  70  68  71  68  64  60  58  52  52  48  47  59  62  49  43  37  44  72  85  90  96  92  83  52  32  22  16  13  11  12  13  12  12  14  15  13  14  14  14
  31  25  25  33  35  32  28  24  20  18  30  42  42  34  28  19  12  10  10  11  21  28  27  19  16  24  38  51  68  59  53  53  56  65  75  78  78  76  73  67  65  62  57  59  57  56  54  56  56  60  60  65  68  71  66  66  65  62  56  50  46  43  44  39  44  51  44  36  34  49  68  86  91  97  93  88  57  38  26  19  15  12  12  13  12  11  14  13  13  12  12  13
  25  20  27  35  34  33  28  23  18  17  31  42  37  31  23  16  11   8   9  13  26  30  25  17  13  21  32  43  62  58  45  47  50  56  69  75  74  71  69  63  61  57  47  51  49  46  47  47  51  59  60  63  65  65  67  63  59  55  51  45  39  37  37  38  37  44  41  30  34  56  73  85  91  95  93  87  61  41  30  22  18  14  13  13  12  12  14  13  12  13  12  12
  19  19  28  34  33  31  25  20  18  21  34  41  33  27  20  13  10   8  10  19  26  25  20  16  14  23  40  44  52  51  44  45  46  50  64  70  71  69  64  60  53  48  41  40  39  37  39  41  43  50  55  54  59  60  59  57  49  47  40  38  34  32  30  32  35  36  30  27  49  77  84  86  90  93  93  88  63  41  30  23  20  16  14  13  13  11  12  12  12  11  11  12
  15  17  27  35  32  28  23  19  18  24  38  36  30  20  14  11   9   9  12  23  26  21  17  13  10  16  47  49  43  44  41  46  48  51  54  64  67  66  60  54  48  47  38  35  33  30  34  38  39  47  50  50  55  57  56  54  42  41  38  35  33  30  28  27  29  33  28  34  59  82  91  88  89  92  91  88  66  44  34  28  20  17  15  13  13  11  12  13  12  12  12  12
  13  17  29  34  29  26  20  19  18  26  35  31  24  15  12   8   8   9  16  25  24  17  12   9   9  16  43  49  37  42  35  40  44  45  51  58  64  65  63  59  53  46  39  36  32  31  32  37  41  45  49  52  56  56  57  51  41  35  34  31  31  31  28  27  27  29  36  62  77  86  90  90  89  89  88  86  67  46  37  29  22  18  16  13  12  12  12  13  12  12  10  10
  12  19  29  32  28  24  19  19  18  29  34  29  20  13  11   7   8   9  20  25  21  18  13   9   8  16  43  42  33  32  34  35  36  39  47  52  59  60  63  63  57  51  45  38  36  37  36  42  44  47  52  56  60  57  53  49  38  31  30  30  31  28  27  26  26  27  42  67  80  85  87  90  87  88  88  86  69  45  36  28  24  19  16  14  12  12  12  13  12  10  10  10
  11  20  26  29  26  24  20  18  18  33  32  26  18  13   9   7   8  12  22  22  17  12  11   8   7  13  38  52  32  28  32  34  35  40  44  48  52  58  62  66  59  58  54  46  41  44  43  46  51  55  61  61  62  58  50  43  34  28  27  28  29  27  26  24  23  25  37  69  78  85  86  87  90  87  88  84  70  46  37  30  24  18  17  14  12  11  11  12  12  10   9   9
  10  21  27  26  24  25  20  18  19  34  27  21  14  12   9   8   8  13  22  19  15  12  10   8   7  12  23  63  33  26  30  30  32  37  39  42  51  55  55  58  61  62  60  51  46  51  52  55  57  58  63  62  62  51  41  39  33  27  26  27  26  24  22  22  23  28  51  70  80  84  84  87  89  87  86  81  70  47  36  30  24  19  17  14  12  10  10  12  12  10  10  10
  12  21  26  24  22  23  19  19  20  31  27  20  15  10   8   6   8  15  20  18  14  13  10   8   7  11  19  67  39  26  25  27  30  33  35  45  49  49  51  58  63  62  58  52  51  57  59  59  57  56  62  61  58  50  39  35  32  29  26  24  24  22  19  21  26  53  68  74  79  83  84  86  88  84  85  81  69  48  37  28  24  20  20  13  12  11  11  12  12  10  10  10
  10  23  26  24  23  23  19  17  22  31  28  19  12   8   5   6   9  16  19  16  15  12   9   6   7   9  20  44  62  29  22  24  27  27  35  41  46  46  49  56  61  62  54  48  50  60  58  57  55  54  54  59  55  50  43  32  31  28  27  21  23  23  19  24  41  65  72  77  79  82  82  85  87  86  83  80  68  47  36  28  24  21  18  12  12   8  10  12  11  10   8   9
  11  22  26  26  24  20  19  17  27  30  25  17  13   9   4   6  10  16  16  15  14  11   9   7   6   8  16  26  63  39  24  19  22  25  33  40  38  41  47  54  55  58  53  48  51  56  54  54  49  50  51  52  53  49  39  29  27  25  24  23  23  19  21  30  58  68  73  74  77  79  82  83  86  84  83  78  68  44  35  28  24  21  18  12  12  10  10  12   9   9   8   8
  11  25  26  25  21  20  19  18  29  28  21  18  13   9   4   6  12  16  14  14  12  10  10   8   7   8  13  18  41  53  35  19  19  22  28  32  35  38  45  48  50  52  47  42  45  51  50  51  48  47  48  50  46  43  36  28  24  22  20  21  20  20  23  47  63  68  75  74  76  76  82  85  84  83  80  78  66  44  34  27  22  21  18  12  12   9  10  11  11   8   7   8
  13  24  24  23  22  19  19  18  27  22  22  17   9   8   4   6  12  15  15  14  12  11  10   8   9   9  12  14  20  53  53  32  21  19  23  28  32  32  37  39  45  47  42  37  43  50  52  49  47  46  45  48  43  35  31  24  22  22  20  20  18  20  39  60  68  71  72  74  75  77  80  82  82  79  78  76  64  46  35  28  23  20  15  11  11  10  11  11  10   9   8   9
  14  23  23  22  20  19  18  18  28  22  18  13  12   7   4   5   9  11  12  12  11  10   9   9   7   9  11  12  14  28  58  54  32  21  21  24  22  25  30  32  36  36  35  35  39  46  45  45  43  40  40  38  36  30  28  23  18  20  18  20  20  33  53  66  70  69  70  71  73  74  78  81  80  77  74  71  62  43  35  27  22  16  13  11  10   9  12  11  10   8   6   8
