P2
# Generated by OpenCV 3.4.0
92 112
255
  79  80  79  81  82  83  83  83  83  85  85  86  85  84  87  86  86  87  86  88  89  88  88  89  89  90  89  88  89  89  91  92  91  90  89  90  89  88  88  86  87  87  85  86  85  85  82  83  84  84  85  86  83  85  86  89  94  96  96 100 104 106 107 112 112 112 113 114 114 113 112 113 112 113 114 113 113 112 113 112 110 111 111 111 114 112 112 110 111 111 114 111
  79  81  81  82  83  83  83  82  82  83  84  85  85  84  86  88  86  87  88  87  87  86  87  88  89  89  88  87  89  89  89  86  84  86  84  83  83  84  85  85  88  87  86  87  87  90  94  98  98 103 105 106 110 112 113 114 114 114 113 116 115 114 114 114 115 114 115 117 114 115 116 115 115 115 116 116 114 113 113 114 114 113 114 114 113 114 113 113 113 112 112 112
  82  81  80  82  81  82  83  84  84  82  85  85  84  83  84  85  87  86  85  84  83  82  82  82  82  82  82  82  84  86  84  83  88  90  92  95  96  98 102 104 106 109 109 113 113 113 116 116 117 120 117 118 117 116 117 116 116 118 115 116 116 117 117 115 117 117 116 116 116 117 115 115 116 117 116 116 117 114 115 115 115 115 114 114 114 113 114 113 111 112 112 111
  81  79  78  80  80  82  81  81  82  80  81  81  78  78  78  78  77  79  77  80  81  81  84  89  90  93  95 100 101 102  99 107 111 117 119 114 116 114 115 118 119 123 124 129 124 123 126 130 129 131 123 121 118 117 117 117 117 118 117 117 117 117 117 117 118 118 117 117 117 117 116 116 116 118 116 117 116 116 114 114 114 114 116 114 116 113 115 115 114 112 113 113
  76  74  75  73  74  74  73  74  76  77  76  80  84  85  86  91  92  96  97 100 104 105 107 110 109 112 113 113 114 113  92 114 115 118 119 120 119 124 131 138 136 149 164 163 172 177 160 150 136 123 122 121 122 119 118 118 118 118 117 118 118 118 117 118 117 116 116 117 117 116 116 117 117 118 116 116 116 117 116 115 116 116 116 116 116 115 115 116 116 114 113 114
  74  73  76  81  86  87  91  96  95  99 102 103 105 104 108 110 110 111 112 111 113 113 113 115 114 115 114 115 116 116 116 119 118 118 121 130 138 144 152 158 153 156 172 178 169 168 157 161 159 146 137 127 126 126 126 119 119 120 120 119 118 118 119 119 118 119 118 118 117 119 118 117 117 117 117 119 117 118 117 116 116 116 116 116 116 114 116 116 116 115 115 114
  97  98 101 103 104 104 105 105 106 107 108 111 109 109 111 112 110 112 111 112 114 114 113 113 114 114 115 115 117 118 118 120 125 135 144 155 167 170 170 170 168 172 174 176 166 167 147 148 159 153 154 158 143 140 131 130 123 121 120 121 120 119 120 119 120 119 118 118 118 119 119 116 118 118 117 117 117 116 117 117 117 115 115 116 116 117 116 115 116 116 114 114
 102 104 104 104 106 106 107 106 108 108 108 110 111 111 112 111 110 114 112 113 114 115 113 113 115 115 116 116 117 118 120 127 140 148 156 163 172 178 181 179 168 175 169 170 168 163 155 149 160 137 134 141 143 133 142 135 132 124 121 120 120 120 120 119 118 118 120 120 118 119 118 118 117 118 117 117 118 116 117 117 115 117 117 117 116 116 115 116 117 115 115 116
 102 103 105 106 107 106 106 108 110 109 111 111 110 111 111 111 114 112 114 113 115 115 114 115 115 117 117 118 117 119 128 144 155 152 153 161 166 169 169 164 169 167 162 167 175 164 159 159 142 129 131 141 126 115 132 130 126 120 118 118 118 117 119 120 119 120 118 118 118 118 119 119 117 118 117 119 118 117 116 117 117 115 117 117 116 115 115 116 116 115 115 116
 103 106 106 105 108 108 106 107 110 110 111 110 110 111 112 112 112 113 115 116 116 114 116 115 116 116 117 116 116 125 143 154 158 155 158 152 149 160 156 157 164 162 164 166 176 169 164 156 146 136 144 152 128 123 124 116 124 111 102 105 116 120 120 120 119 117 118 119 120 121 120 116 118 118 118 119 117 118 118 117 117 116 116 116 117 116 116 116 116 115 113 115
 104 104 107 107 108 107 109 109 110 110 111 113 111 112 114 112 113 114 114 116 116 115 116 117 117 116 119 114 123 136 148 158 150 140 139 140 129 149 143 156 162 162 169 172 172 175 174 163 154 148 149 141 135 136 126 119 118 117  96  88 100 113 119 120 121 120 121 119 119 121 120 119 119 119 118 120 118 118 117 117 117 118 116 116 117 116 117 117 115 115 115 115
 105 105 107 107 106 108 108 108 110 111 111 111 113 112 113 114 114 115 114 115 117 117 118 118 119 120 123 117 127 150 148 136 134 137 142 148 146 153 153 164 165 170 176 181 178 181 185 170 166 159 153 151 134 136 130 115 118 127 116  98  94  94 105 116 118 120 121 122 120 121 120 119 120 121 120 120 120 120 117 117 117 118 117 116 118 117 118 117 117 116 116 116
 105 105 108 107 107 108 109 109 108 111 112 113 114 113 112 112 116 115 115 116 116 117 119 118 121 121 122 130 151 163 145 140 144 160 166 173 177 177 183 182 183 187 197 195 186 187 183 178 177 174 188 156 141 140 128 123 127 131 123 121 116 102  96 108 116 120 119 122 121 122 120 121 121 120 120 121 118 121 119 120 120 119 120 119 119 119 117 118 118 118 117 118
 106 107 107 106 107 109 110 111 111 111 113 114 114 115 114 114 115 116 117 118 116 119 120 118 120 121 133 166 179 169 174 188 194 200 202 211 214 213 216 217 216 217 216 211 202 192 187 182 177 177 173 149 145 140 133 131 129 129 125 130 129 119 102  96 101 108 119 122 122 123 123 123 121 122 122 123 123 122 121 122 121 119 121 120 119 119 119 118 120 120 119 118
 106 106 107 107 110 111 110 111 111 112 114 114 114 115 114 114 115 116 117 117 117 119 120 122 120 119 145 179 189 189 214 233 237 238 241 245 244 244 243 236 238 231 224 221 215 200 192 182 177 175 161 149 143 140 136 141 140 141 139 139 137 126 114 102  84  85 108 120 121 124 123 122 122 122 122 122 121 122 122 120 120 120 121 121 120 120 120 122 122 120 118 118
 106 107 108 108 109 111 110 110 110 111 113 114 115 115 116 116 117 116 118 119 120 121 121 119 113 138 164 185 197 213 234 239 248 248 248 248 248 246 242 238 237 228 220 216 213 205 197 184 170 162 159 156 147 143 140 143 149 154 156 158 156 145 133 117  99  78  85 113 122 124 123 122 123 123 123 123 123 123 122 122 122 122 123 123 123 122 121 123 120 120 120 119
 107 106 109 107 108 110 111 111 111 112 114 115 116 115 117 117 118 120 120 119 121 121 115 117 127 164 188 206 216 220 226 234 248 248 248 248 241 236 230 228 225 216 210 207 204 200 190 180 169 164 161 157 154 151 152 155 158 162 162 166 165 161 151 137 123 105  84  99 119 122 122 123 123 125 124 124 124 124 124 123 123 122 123 123 123 122 122 123 122 122 121 118
 109 109 108 109 110 110 111 112 113 113 115 115 117 118 119 120 120 120 117 120 120 114 117 133 155 190 214 216 212 215 216 225 241 245 244 239 233 223 213 212 208 198 198 195 192 183 174 175 164 156 158 161 160 156 157 158 159 160 160 161 161 164 158 151 137 126 100  88 110 122 124 125 125 124 125 124 124 123 123 123 123 125 124 123 124 123 123 124 123 121 121 122
 109 110 111 111 110 111 114 114 113 114 116 117 121 122 120 121 121 121 121 122 118 118 137 158 203 213 212 208 207 208 211 219 227 237 235 235 234 218 204 200 196 186 186 184 180 173 166 163 159 153 152 153 153 153 152 154 156 157 155 156 155 154 153 150 144 135 124  97 101 122 124 123 126 126 127 126 125 127 125 124 125 124 124 124 124 124 124 124 123 122 123 124
 111 110 112 112 112 113 114 115 117 117 117 120 121 120 121 121 122 123 123 124 117 141 162 201 208 212 208 207 205 206 207 211 215 226 228 218 215 205 194 191 184 181 179 176 167 166 163 158 153 148 142 143 145 148 146 147 150 153 151 152 151 149 147 143 139 137 135 121  97 116 124 125 128 126 127 124 126 127 124 124 127 125 125 126 125 125 125 124 124 124 124 125
 112 113 115 113 114 114 117 118 121 119 120 122 122 122 123 124 124 127 125 123 140 160 197 205 206 207 207 207 203 205 203 205 206 209 204 197 195 188 185 180 174 167 165 164 156 153 148 147 143 140 140 140 144 143 142 143 142 145 142 146 144 142 139 138 135 134 133 132 121 106 125 129 128 127 127 127 128 128 128 127 125 126 127 126 126 125 125 127 125 125 125 124
 114 115 116 116 115 119 120 119 122 121 122 122 124 124 126 126 127 128 122 133 157 186 204 205 206 205 204 204 200 197 196 194 196 194 190 184 181 178 166 165 157 150 156 155 153 153 155 151 145 144 146 149 144 141 139 133 131 136 135 136 132 132 132 130 128 129 130 132 131 119 120 128 128 128 129 129 130 128 128 128 128 128 126 129 127 127 127 127 127 129 126 126
 118 119 118 117 119 120 121 122 123 125 125 126 125 126 127 128 129 128 121 145 174 199 204 205 206 202 201 200 197 193 191 184 182 180 176 172 170 162 161 157 151 152 157 157 149 151 147 144 141 143 139 136 134 134 132 130 126 129 127 127 127 126 124 124 121 124 128 132 132 131 115 127 130 131 131 130 132 129 130 129 130 128 129 128 129 130 129 129 128 129 128 128
 122 122 120 121 122 123 124 126 125 128 127 127 129 129 130 130 133 127 135 168 193 200 204 205 203 200 202 200 194 190 186 177 174 168 161 156 152 152 152 150 148 147 144 139 147 147 145 142 137 136 129 131 131 128 128 126 126 124 123 121 118 119 122 119 118 121 122 128 130 131 122 126 133 133 133 132 132 132 131 131 131 130 130 129 130 130 130 130 128 129 129 127
 123 124 125 126 125 126 127 127 128 129 130 131 132 130 132 135 131 127 165 188 198 195 198 199 198 196 199 196 192 187 179 172 165 157 153 153 151 151 148 148 144 143 146 149 151 148 144 144 139 133 133 135 134 131 127 122 124 125 122 119 119 118 119 119 117 119 121 124 125 126 123 124 132 133 134 133 133 133 132 133 133 132 132 131 131 131 131 131 131 131 130 130
 128 127 127 128 129 129 129 130 129 132 131 133 133 134 135 133 123 155 180 199 199 193 192 194 196 193 193 191 184 180 171 165 160 152 150 148 152 150 152 150 146 155 152 154 150 152 144 139 135 135 133 134 133 129 124 123 126 127 123 121 122 120 118 117 117 120 121 123 126 123 121 122 131 133 135 135 136 135 134 134 132 134 134 134 133 133 134 132 131 132 131 131
 129 130 130 130 130 131 130 131 131 133 135 135 136 137 137 131 135 169 196 203 197 190 188 190 189 187 187 183 178 173 166 165 162 161 163 167 164 161 161 159 162 165 158 155 150 143 136 137 137 141 146 150 145 139 134 134 135 133 132 130 127 123 118 118 115 118 118 119 122 121 119 122 125 135 136 137 136 137 136 134 136 135 135 135 136 136 135 135 134 134 135 134
 130 131 133 133 134 133 132 134 134 135 136 136 137 137 136 124 161 180 196 200 196 190 186 186 185 185 185 179 176 174 171 169 170 173 176 175 170 169 169 166 166 166 161 160 154 152 152 150 148 149 160 167 152 143 142 142 140 138 135 132 130 127 124 121 120 120 119 119 121 116 117 118 119 128 137 137 136 137 135 136 137 137 137 136 136 136 135 136 136 136 136 135
 134 136 135 136 137 135 135 136 136 137 139 138 139 139 132 142 176 188 196 197 192 190 185 182 179 179 179 175 174 174 173 173 172 172 178 180 174 176 178 173 174 173 165 165 162 161 154 154 154 155 151 142 134 141 144 146 146 144 141 139 136 131 128 126 123 120 120 122 121 119 117 117 117 112 133 137 139 139 139 138 138 138 137 138 137 136 138 137 137 137 137 136
 136 139 138 139 139 138 139 139 140 140 142 142 143 142 126 161 175 188 196 193 191 187 183 179 175 178 178 178 172 173 174 175 179 177 180 179 178 183 180 180 177 176 173 169 164 153 148 153 151 146 145 140 136 140 149 151 152 149 148 145 140 136 131 129 125 122 122 122 120 119 117 118 117 107 122 138 139 140 140 140 138 138 140 139 139 138 139 138 138 137 137 138
 141 143 140 142 141 142 139 142 142 143 143 142 143 141 132 160 171 186 191 190 187 182 177 175 171 174 175 173 168 171 172 176 181 183 183 186 187 186 187 182 179 177 173 166 159 152 148 147 145 145 147 146 144 145 148 150 154 153 150 144 140 137 134 134 132 128 125 123 120 119 117 117 118 109 104 136 139 141 142 142 142 140 142 140 140 139 140 140 139 138 138 138
 144 145 142 145 145 145 143 143 142 144 145 146 149 134 137 151 170 188 185 185 183 178 176 173 172 173 173 167 170 169 178 182 185 188 188 189 188 188 182 173 171 171 166 160 150 144 141 140 143 139 141 141 140 144 148 148 146 144 140 138 136 136 139 139 138 132 129 126 123 120 119 118 117 114  99 130 140 142 143 143 143 144 142 142 142 142 141 141 140 139 138 141
 145 147 147 146 148 147 145 145 146 148 149 149 158 125 129 143 164 181 184 180 179 174 172 172 174 170 169 170 171 172 178 183 190 191 188 187 191 185 176 171 165 159 154 143 139 135 133 134 134 131 131 130 134 139 140 142 140 135 130 133 133 133 137 139 140 135 131 125 121 118 116 117 117 116  97 120 142 143 143 144 143 143 143 143 143 143 142 142 142 140 141 141
 147 149 150 150 150 149 147 148 148 156 151 151 154 113 125 145 169 182 182 175 173 173 173 174 176 170 171 173 172 176 182 185 190 186 185 183 179 174 166 161 150 142 137 131 130 126 124 124 125 126 122 123 127 131 130 128 127 126 123 123 127 130 131 135 137 135 133 125 122 117 118 117 118 117  97 114 142 145 144 145 145 145 145 144 145 143 143 143 143 144 144 143
 149 149 151 152 152 150 150 149 150 152 151 157 138 102 117 144 166 177 177 173 171 172 172 173 174 174 173 175 175 179 185 187 185 180 175 170 160 150 143 138 128 129 121 121 122 119 117 120 119 119 120 121 122 122 122 118 114 114 112 114 117 123 125 127 126 125 126 122 122 117 116 116 118 117 105 115 143 146 146 147 147 147 145 146 146 147 143 145 145 145 144 144
 153 152 154 156 155 152 152 152 153 152 155 158 128  98 121 144 166 175 179 175 169 169 170 172 173 174 172 175 180 181 184 178 173 165 160 144 129 121 112 110 100 104 108 105 108 110 111 111 111 111 114 112 114 112 110 107 107 105 104 106 108 110 114 115 112 110 108 110 112 115 116 115 116 117 110 123 145 147 148 149 149 147 147 148 147 148 146 147 146 145 144 146
 155 155 157 157 157 155 154 155 157 155 157 153 110 100 122 144 163 172 174 171 168 166 168 170 172 172 169 174 182 178 166 159 155 142 120  98  95  94  94  90  85  89  95  94  94  99 103 106 103 106 106 106 103 104 103 101 101  97  96  95  92  95  99  98  99  94  92  95  98 105 110 107 113 118 113 130 147 149 150 149 149 151 150 148 148 148 149 150 149 148 148 147
 159 159 159 160 160 157 156 157 159 162 164 149  94 102 125 142 160 166 170 169 169 166 164 167 169 169 177 177 169 153 145 130 113  95  84  75  75  75  79  79  72  76  81  82  86  92  95 100  98 101  99 102 100  99  96  95  93  90  86  85  81  83  79  73  74  74  72  72  75  82  90  92 104 115 115 127 148 150 151 150 152 150 151 150 149 150 150 149 148 148 150 148
 162 160 162 163 160 158 158 158 159 161 158 118  92 102 120 138 153 158 168 164 165 170 167 168 167 173 177 169 153 128 110  98  82  69  66  65  62  66  74  78  67  68  71  75  76  84  89  93  93  97  98  97  96  96  92  91  86  84  79  76  68  68  65  60  60  59  58  60  61  68  76  81  91 112 117 129 149 152 152 151 152 152 151 151 151 150 151 152 152 150 151 150
 163 162 164 165 163 162 161 161 161 160 152 109  90 102 118 135 146 157 165 163 165 171 170 169 172 173 153 131 115  98  84  80  77  71  69  69  66  67  72  74  70  69  70  70  72  77  83  88  91  93  94  94  93  92  89  87  79  77  75  68  61  62  60  59  57  61  64  66  76  82  86  91  87  98 116 130 152 153 153 153 153 153 153 153 153 154 154 153 152 153 151 153
 164 165 166 165 165 163 163 161 162 161 147  94  85  95 115 133 147 154 157 159 164 170 172 172 173 152 129 114 106 100  93  86  82  82  81  77  80  79  77  79  80  75  74  72  73  79  80  86  89  92  94  94  92  90  87  84  76  76  72  67  65  70  71  71  72  78  78  80  85  92  99 102  95  94 113 133 152 154 154 154 153 153 153 153 153 154 153 154 154 154 153 152
 168 168 168 167 167 165 165 164 163 160 124  85  79  89 111 128 147 157 158 158 162 168 169 172 157 140 129 113 111 109 101  92  90  85  82  79  78  77  78  80  81  81  81  81  82  81  84  85  89  92  93  95  93  88  88  84  78  77  75  73  73  74  73  74  72  71  74  78  82  89  96 102 109 105 108 135 151 153 154 153 154 154 156 156 155 157 155 154 154 155 153 155
 168 170 169 169 170 167 166 164 165 158 118  73  69  83 105 126 150 157 157 159 164 169 169 171 145 137 131 123 116 106  98  91  85  79  72  71  69  68  69  75  77  79  81  84  87  87  88  89  92  95  99  99  94  92  90  86  81  81  77  76  72  68  57  50  48  49  53  58  66  79  90 102 108 113 106 142 154 154 155 155 157 157 158 158 159 159 157 157 157 156 155 157
 169 172 173 171 171 167 167 165 168 149 104  70  63  80 102 125 145 154 158 162 167 170 173 160 136 133 128 118 109 100  92  82  71  57  49  43  39  38  41  50  65  73  76  78  82  88  92  95  96 100 100  99  96  95  94  90  84  76  72  69  58  46  41  42  41  37  38  41  45  62  79  92 104 111 106 141 154 159 157 159 160 159 159 160 160 159 159 159 159 156 156 157
 172 174 174 173 172 170 169 169 165 155 106  65  61  86 103 120 145 154 159 164 168 170 168 141 129 131 123 111 100  87  74  56  46  47  47  42  35  35  37  40  43  56  64  72  75  81  92 100 105 100 102 104 105 104 102  93  80  70  64  50  46  49  49  49  42  38  38  38  42  49  61  80  99 110 111 148 158 161 161 160 161 161 161 161 160 160 161 160 160 159 159 158
 174 174 176 174 174 172 169 170 168 154 100  65  63  85 100 119 147 155 161 165 170 169 156 132 128 120 113 104  90  71  53  51  52  61  58  38  37  33  34  41  43  43  50  59  68  75  88  99 109 109 111 113 114 115 111  92  68  60  50  50  52  53  63  64  45  39  44  46  46  50  54  76  93 109 120 146 160 161 161 161 160 162 161 161 161 161 161 162 161 160 160 159
 176 176 177 175 174 172 171 170 169 161 107  69  71  80  96 120 145 156 160 163 167 166 152 139 126 114 103  93  77  58  53  61  83 102  69  48  28  28  34  39  45  46  44  50  59  70  82  97 110 116 118 121 119 120 117  89  59  50  53  54  54  60  71  73  57  37  27  43  50  56  57  71  90 110 125 148 159 162 162 162 162 163 162 162 161 161 161 163 161 161 162 161
 177 176 179 178 176 174 173 172 172 168 135  77  67  71  87 110 139 158 163 165 165 164 153 132 122 110  95  83  64  60  62  99 124 119  78  46  29  24  40  44  50  41  49  50  52  61  79  92 111 120 120 123 122 124 124  89  54  59  52  47  57  71  82  89  79  61  50  50  63  68  62  70  88 107 126 152 163 164 164 164 163 164 163 162 162 164 163 163 162 161 161 163
 176 178 179 178 177 175 174 173 173 171 157  80  69  71  84 108 136 159 169 170 170 162 145 128 117 104  89  72  70  70  98 126 130 125 109  65  50  47  48  57  59  38  39  49  54  56  77  94 112 125 125 127 126 125 124  93  66  58  50  48  55  67  83  92  94  86  75  69  94  77  70  75  89 105 123 148 163 166 165 164 164 164 164 165 164 165 164 163 165 162 163 163
 179 180 180 179 179 176 177 174 173 172 154  74  62  70  82 108 137 161 167 167 170 156 139 120 113  99  84  71  80  84 101 122 124 127 121 104  78  67  68  70  59  46  44  48  64  67  84 101 114 125 129 133 130 129 130 110  74  66  59  55  58  65  72  80  87  89  93  89  91  90  78  81  90 104 123 148 160 164 166 166 165 166 166 165 165 165 166 163 165 164 163 163
 180 181 181 181 180 175 177 178 178 174 163  93  63  79  90 104 136 164 167 169 165 150 131 120 109  98  86  84  96 102 100 100 102 104  99  91  81  78  71  68  64  59  60  64  68  78  91 104 115 126 136 137 131 132 134 119  91  66  61  58  56  58  64  69  74  79  85  87  88  93  96  91  96 108 121 121 125 156 165 165 166 166 167 166 167 165 164 165 166 165 164 165
 180 182 182 182 180 179 178 179 179 178 171 101  70  82  90 106 130 162 169 170 164 150 131 120 109  97  94 103 117 116 108 103  92  88  82  80  74  70  66  63  60  58  58  64  75  90 101 107 118 134 146 144 140 139 137 128 109  81  64  57  56  59  63  68  70  78  82  91  98 104 112 104 105 112 118 120 118 136 162 166 165 166 168 166 166 167 166 166 166 166 166 166
 182 182 182 182 181 181 181 180 181 186 188 145  77  76  86 106 135 166 168 170 164 149 134 121 112 105 111 125 131 129 118 113 105  97  90  83  75  74  67  62  57  56  60  70  87 101 109 113 125 143 151 148 145 140 138 129 114 105  80  59  54  58  63  67  72  79  87  92  99 111 117 112 112 116 118 103  84 117 162 167 169 168 168 168 168 168 167 167 167 167 167 166
 182 182 183 182 181 181 181 184 191 198 200 199 169  98  94 113 138 169 169 169 165 148 138 124 119 117 124 132 134 131 123 117 108  98  93  86  79  71  68  63  56  62  71  85  97 106 113 122 136 146 144 144 150 144 140 131 115 111 104  80  65  61  62  65  71  81  88  95 102 111 116 114 112 117 119  98  66 101 163 168 170 168 168 168 168 169 169 168 168 167 168 168
 182 183 184 182 181 182 181 168 148 139 142 151 154 136 123 119 135 166 168 169 166 154 143 135 128 126 128 134 136 130 122 115 108 101  94  86  79  72  67  64  66  74  87  98 105 115 120 130 142 148 147 143 148 148 142 134 117 110 108 100  81  71  67  69  73  81  83  92 102 111 115 117 116 117 118 101  71 109 164 168 167 169 168 170 168 168 168 168 168 168 168 168
 184 184 183 182 182 182 164 119  95  94  95 106 128 132 128 128 139 165 168 166 165 160 154 151 143 136 134 135 133 126 119 113 103  98  91  87  78  71  69  70  75  88  97 105 111 118 123 136 145 151 152 153 157 150 144 135 116 109 109 110 101  86  74  74  78  83  90 100 102 114 118 117 117 118 117 101  72 123 164 169 169 171 170 170 169 169 169 169 169 168 168 168
 186 184 185 182 182 180 126  86  80  81  87  98 103 121 123 129 140 166 166 164 166 165 164 163 158 150 140 137 130 126 118 113 103  94  88  85  83  77  75  79  90  98 103 109 114 119 124 137 149 158 158 158 157 153 147 129 113 110 109 111 110 104  94  88  86  91  99 103 108 112 116 117 116 116 118 101  78 136 166 169 169 172 169 169 170 168 170 171 169 168 169 168
 186 184 186 184 183 168 106  79  76  77  88 103  93 102 116 120 138 162 165 165 166 166 166 168 167 160 147 139 130 123 121 113 109 101  93  87  84  85  88  93  99 104 110 113 116 120 128 140 154 161 166 169 166 160 150 128 112 106 109 113 113 113 110 107 102 102 103 104 112 115 112 111 114 114 117 112  86 146 168 169 169 171 171 169 170 172 172 169 170 170 169 169
 185 185 185 184 183 161 100  75  74  76  96 115 114 111 110 112 130 157 161 161 163 165 165 167 167 162 152 142 133 125 122 115 108 101  93  87  89  93 100 101 104 108 113 115 121 122 133 146 163 167 175 180 172 161 151 135 120 110 109 111 112 117 115 115 113 110 110 111 110 112 114 113 114 115 118 117 105 160 169 171 171 170 172 172 172 170 171 170 171 171 171 170
 184 186 185 184 182 165  96  72  68  78 114 129 119  74  66 101 124 150 157 159 159 158 162 164 161 158 152 146 141 131 119 115 109 105  96  95  99 102 104 104 108 112 114 117 116 121 135 154 165 176 184 181 172 160 152 144 131 118 108 105 109 112 117 118 116 115 115 114 115 115 114 112 115 116 119 119 122 164 171 171 171 171 173 172 171 172 173 172 171 170 170 170
 185 185 186 185 184 180 110  73  65  82 130 124  96  65  60  79 131 147 153 154 157 151 157 161 158 153 151 145 138 132 123 116 113 106 101 104 106 105 107 105 108 110 113 115 111 120 143 164 174 183 185 174 164 153 143 141 137 124 113 103 104 107 112 116 117 118 118 117 117 112 113 113 112 113 115 117 132 169 172 172 171 172 173 173 172 172 173 174 172 172 171 172
 186 186 185 184 183 181 148  88  70  97 128 110  87  69  62  82 142 144 148 150 152 150 152 150 143 148 145 140 135 130 123 115 111 107 108 105 107 106 106 107 107 108 109 110 112 129 154 171 176 176 171 162 149 137 130 128 134 128 120 108 102 104 108 112 114 115 118 114 116 115 114 113 114 115 115 116 142 170 173 173 173 173 173 173 173 174 174 173 173 173 173 173
 186 187 185 184 184 184 180 113  85  99 121  95  80  68  67  93 146 142 144 148 150 149 145 144 137 140 138 134 131 124 121 114 110 110 108 106 107 107 105 105 104 107 105 105 115 143 161 170 172 166 154 142 128 120 117 117 120 121 121 113  96  99 104 108 111 112 112 112 111 111 112 116 115 116 116 114 156 170 173 174 174 173 174 174 173 174 174 173 174 174 173 173
 186 186 186 186 184 183 183 150  94  96 119  89  72  67  70  85 134 141 142 148 151 145 143 140 136 132 130 130 127 123 122 118 112 112 108 107 109 109 107 105 105 103  99 100 119 142 153 156 159 153 136 124 110 104 101 102 107 109 112 112  94  93 100 103 107 107 109 109 108 110 112 116 118 117 113 114 167 173 174 174 173 174 175 174 174 174 174 174 174 174 174 174
 187 186 186 188 186 184 185 179 117  94 117  89  68  65  68  75 107 132 139 146 146 141 136 136 131 129 129 126 128 123 122 118 114 112 109 110 110 108 106 104 102  98  93  96 120 137 132 130 133 130 118 109 100  93  91  94 100 103 105 105  94  90  95 100 102 104 107 107 106 108 109 112 116 118 116 132 170 173 174 175 175 174 174 174 175 175 174 174 176 175 174 174
 187 188 187 187 187 185 186 184 155 103 115 104  79  69  68  83  87 113 135 142 143 138 132 132 133 126 126 125 126 124 121 114 114 112 112 111 110 108 105 102 100 100  90  91 113 126 117 111 108 111 106  98  90  86  84  89  93  97  99  98  90  86  91  96 101 104 104 105 107 107 105 109 114 117 121 147 172 174 175 175 175 174 174 174 174 175 174 174 175 174 174 174
 187 187 188 186 187 188 188 187 181 125 111 118 113 106 120 126  98  93 135 136 138 136 131 129 131 126 123 123 123 121 117 114 112 112 112 112 112 108 105 101  98  95  90  88 102 112 102  85  81  98 101  93  86  85  82  84  86  88  89  91  90  89  88  93  97 101 104 104 101 102 107 109 113 117 121 163 174 175 174 175 175 176 175 175 174 175 175 174 175 176 176 175
 187 188 187 187 187 187 188 188 186 174 122 106 106 114 136 142 128 124 131 140 140 136 130 129 128 126 120 117 120 117 113 112 112 110 113 112 112 107 108 104  97  93  93  90  85  94  88  71  58  81  96  93  86  82  80  78  80  81  90  95  95  95  91  92 100  99 102 102 104 103 105 106 112 118 130 169 175 175 175 175 175 175 174 176 175 175 176 175 175 174 175 176
 187 187 188 187 188 187 186 187 186 185 166 121 112 128 149 140 133 128 120 135 139 137 132 128 123 121 121 115 117 116 111 112 112 111 112 112 113 112 109 101  96  95  96  92  90  84  80  73  72  78  86  92  85  84  79  75  66  82  97 101 104 101  96  93  98  99 102 106 103 106 105 104 110 117 151 171 174 174 175 175 174 175 176 176 175 175 175 174 176 174 176 175
 187 187 187 186 187 187 187 188 187 186 184 157 134 151 148 141 136 121 109 125 136 135 132 125 119 119 119 116 117 115 112 113 113 116 116 117 118 115 106 100 100 100  99  99 100  94  86  88  89  85  78  79  78  74  69  63  71  80  91  98 103 104 102  99 100 103 102 105 103 104 104 104 107 126 167 174 175 175 174 175 175 175 176 176 176 176 176 176 175 175 175 175
 186 187 187 187 188 187 186 187 188 187 186 181 159 140 141 144 140 124 107 112 131 127 130 124 119 119 115 115 115 113 113 113 115 118 120 124 124 121 106 104 105 102 102 102 100  97  91  84  78  76  78  70  69  68  69  69  72  71  75  84  93 102 102 102 101 103 105 108 106 104 103 103 108 143 171 174 175 175 175 174 175 176 175 176 175 175 174 176 176 175 175 176
 187 187 188 188 188 186 185 188 188 187 186 185 184 158 135 144 141 126 111 102 125 122 130 127 119 118 116 115 115 117 116 117 119 122 125 132 128 116 109 110 108 105 104 100  95  90  84  73  64  66  67  68  69  69  70  73  68  62  58  65  75  89  96 103 103 103 105 109 110 108 105 105 111 139 171 174 174 175 175 175 175 176 175 175 174 175 176 175 176 176 175 175
 186 187 188 187 187 186 188 189 188 187 185 185 184 181 160 135 128 116 106  94 119 124 132 126 121 116 114 114 114 117 117 120 124 128 132 134 127 116 116 113 110 101 100  97  87  82  78  66  60  61  61  60  61  63  66  66  60  55  51  53  63  74  76  84  91  99 102 109 111 108 107 105 113 154 174 175 176 176 175 175 175 175 175 174 175 176 174 175 177 176 175 174
 186 186 187 187 188 187 188 188 188 188 185 185 184 183 183 163 116 105  96 118 114 126 132 127 117 114 112 115 116 121 124 124 128 131 136 133 125 118 116 111 103  97  93  85  75  74  70  58  55  55  56  60  57  58  57  63  56  52  49  48  56  69  70  69  73  88 102 109 113 113 111 107 114 160 174 175 175 175 175 174 175 175 176 174 176 176 175 176 176 177 177 176
 187 186 186 186 185 187 187 188 188 188 186 186 183 184 186 183 174 154 170 175 122 130 128 125 120 116 114 116 119 121 122 126 131 134 136 133 123 110 108  99  93  85  80  73  67  62  63  55  56  56  57  62  59  55  54  59  60  55  54  48  51  63  66  59  55  64  88 106 112 113 113 108 118 159 173 175 175 174 176 175 175 176 176 175 176 177 176 175 176 176 178 177
 185 184 186 188 187 186 188 188 188 187 186 186 183 183 186 186 184 181 181 182 145 128 131 128 121 116 113 115 120 123 120 127 132 136 138 135 114  95  91  89  80  71  70  70  60  58  56  55  56  60  57  58  58  51  49  53  58  58  58  56  56  61  67  57  47  48  63  89 111 113 112 109 124 166 174 175 174 175 176 175 175 175 175 175 176 176 176 177 176 176 177 176
 186 184 184 186 187 185 188 188 186 185 185 185 184 185 184 186 186 182 182 176 152 128 132 128 121 116 115 119 123 125 126 131 140 138 138 125  97  86  76  77  68  64  65  67  61  59  55  56  63  70  66  62  54  49  50  53  61  64  65  67  65  66  71  62  55  51  67  91 107 112 111 105 127 168 175 175 176 175 175 175 174 175 175 175 176 176 175 176 175 176 176 176
 185 183 184 185 185 184 188 187 185 185 183 184 185 185 184 185 186 185 184 180 164 131 131 128 124 117 117 121 124 125 129 133 137 140 140 114  91  75  68  63  60  63  66  70  70  64  62  64  73  75  76  70  62  59  63  66  71  67  68  73  74  76  77  67  66  70  81 100 112 114 110 103 128 169 174 175 176 174 175 175 174 175 175 175 176 176 176 174 177 177 175 177
 185 184 185 185 184 185 186 185 185 185 184 184 186 186 185 184 185 184 184 182 171 130 126 126 124 121 117 121 124 126 131 134 137 139 136 112  87  66  58  55  59  66  76  78  81  77  69  70  70  72  76  76  77  75  73  69  67  63  61  60  60  58  41  49  66  71  82  96 113 114 104 100 135 170 175 175 175 175 174 174 174 175 174 174 176 177 176 176 176 175 176 177
 184 184 184 186 184 185 185 183 183 183 184 183 184 185 184 186 185 184 185 184 179 133 122 126 125 121 120 122 126 127 130 136 139 139 134 112  84  70  66  66  68  73  77  84  82  79  70  68  68  67  68  67  65  64  64  61  58  51  40  29  22  29  40  52  64  70  78  87 105 114 108  98 138 166 172 175 176 174 175 175 175 175 175 174 175 176 175 175 175 176 176 176
 183 184 184 183 186 186 186 184 183 183 184 184 184 185 186 185 185 183 184 184 180 137 120 127 125 119 118 122 119 124 130 136 139 140 132 107  87  77  72  66  57  59  64  61  51  48  51  51  54  54  55  51  48  46  42  33  27  29  23  26  33  46  63  78  76  77  79  92 103 113 106  99 127 158 170 172 175 175 175 174 174 174 174 175 175 174 176 176 175 176 176 177
 183 183 183 183 184 185 185 183 182 183 182 182 184 183 183 185 184 182 184 183 181 143 120 124 125 119 119 119 121 124 133 136 136 134 120 106  89  77  66  49  38  35  33  27  21  23  31  28  30  33  32  31  23  26  26  28  32  42  47  54  67  74  88  98  88  81  80  93 100 106  96  95 128 160 174 173 175 174 175 174 174 174 174 174 174 174 176 175 175 176 176 176
 183 182 184 184 183 183 184 183 183 182 183 182 183 182 183 183 182 183 184 183 183 152 124 122 124 123 119 115 119 129 135 131 132 130 121 103  87  74  63  55  59  55  51  56  53  56  60  58  50  45  47  46  45  46  52  54  61  71  81  84  86  86  98  99  95  87  83  89  99 100  92  95 138 167 174 175 175 173 174 173 172 173 175 175 174 174 174 174 176 175 176 176
 181 182 183 182 182 183 184 182 183 183 182 181 182 182 182 182 184 184 183 184 183 163 126 117 119 122 115 110 116 125 126 124 129 126 119 100  85  78  73  75  82  87  82  81  81  87  87  86  84  75  74  77  76  77  82  84  86  90  91  88  89  94 100  98  95  86  80  80  94  91  79  75  79  82  81  75  80  85  90  90 105 112 127 149 171 175 174 174 174 176 177 176
 180 181 183 181 182 183 184 182 182 183 182 181 182 182 182 184 183 184 184 184 183 167 126 114 114 118 111 108 115 115 117 118 124 124 117 101  88  83  84  88  95  99  99  97  92  92  91  89  89  85  83  87  85  83  85  87  87  87  85  84  91  97 101 100  96  84  76  72  87  90  75  58  49  40  35  35  36  37  36  36  38  40  43  44  54  89 132 167 172 175 175 175
 180 180 178 180 181 181 180 180 182 182 181 181 181 183 182 182 183 182 182 184 169  97 122 115 112 111 105 108 112 112 118 114 119 122 113 103  94  87  90  94  96  99  96 102 101  98  94  89  86  85  81  81  81  79  79  80  79  83  82  86  93 100 102  96  89  82  72  68  80  79  66  50  36  24  22  19  22  23  24  24  23  25  27  30  33  40  44  56 109 166 172 174
 180 181 179 182 180 181 179 180 180 181 181 182 183 182 181 182 183 182 181 170  84  63 118 117 115 104 102 109 112 112 114 117 115 120 115 105  99  89  94  95  96  97  95 102 103 100  95  90  87  82  77  78  80  81  78  78  80  82  84  88  96 100 102  96  87  75  64  59  57  63  53  41  26  17  15  13  14  15  15  14  15  14  18  20  22  26  31  38  45  49 111 168
 181 179 180 181 180 180 177 178 178 180 180 180 182 180 180 180 181 180 161  72  54  42 110 117 117 104  95 106 106 105 105 109 111 111 108  97  93  85  88  94  98  99 102 102 105 101  97  90  87  86  81  78  80  78  76  73  76  82  89  91  93  99 100  93  81  68  56  51  49  51  46  36  21  15  11  11  11  12  12  12  11  12  15  14  16  19  24  27  30  36  41  63
 181 179 180 181 181 178 176 181 179 178 179 179 179 179 178 180 163 140  74  54  39  32  93 117 117 104  90 103 104  98  95 103 108 110 106  91  83  82  82  87  92 100 101 101 102  99  97  87  84  85  79  66  69  67  62  66  63  74  81  90  92  94  94  84  72  59  50  45  44  48  41  31  21  13   9   9  10  10  10  11  11  12  12  12  13  17  19  18  21  28  31  39
 178 180 181 180 178 178 176 177 176 176 177 179 178 174 142  96  81  68  52  38  29  24  80 120 117 102  81  86  93  89  87  95 102 110 105  90  81  81  79  80  84  95  98 100 101  94  94  84  76  73  65  54  54  54  50  53  61  66  75  84  90  89  89  72  58  52  49  44  36  38  34  28  22  14   9   9   9   9  10  10  10  11  11  11  11  13  13  13  17  22  25  30
 176 178 179 178 179 177 175 178 178 177 176 177 168 104  84  72  64  50  39  28  21  21  75 120 115 104  80  73  84  83  81  88 102 109 102  91  79  73  71  73  75  85  99  96  92  90  87  80  73  67  59  52  48  46  44  50  58  65  75  83  91  92  89  69  52  48  47  44  37  35  29  22  19  15  15  13  11  10   9   9   9   9  10  10  10  11  11  11  15  18  22  27
 177 178 178 178 178 177 175 176 177 177 175 168 102  86  67  65  52  41  32  21  17  31  71 119 115 105  86  62  72  75  76  85 101 103 101  91  72  70  69  65  68  78  89  90  90  88  82  76  72  69  60  53  48  43  43  52  60  68  76  88  94  94  91  67  50  46  45  42  36  34  27  24  19  15  15  17  19  16  16  14  12  11  10  10   9  10  11  11  14  17  22  24
 177 177 176 177 176 178 176 174 173 175 171  95  78  60  62  53  44  34  25  16  22  39  64 118 117 109  92  60  58  66  69  82  92 107 104  85  69  65  70  67  70  71  81  87  88  88  85  80  75  69  63  55  50  48  49  56  67  75  84  91  98  96  91  70  49  42  38  39  33  36  32  21  18  14  13  13  17  17  17  19  19  18  16  12  10  10  10  10  13  16  19  20
 174 174 174 173 173 175 175 173 169 164 104  65  56  56  53  45  34  25  17  16  32  40  47 123 116 109 102  75  53  51  61  72  80  87  83  77  70  62  66  67  69  66  74  78  85  87  89  87  84  75  73  65  57  58  63  65  78  83  85  90  96  92  78  60  44  43  37  36  33  40  46  26  17  15  13  13  12  15  16  17  18  19  20  19  18  14  12  10  11  14  17  19
 172 175 162 139 118 100  81  65  55  60  59  54  52  53  44  34  26  17  13  22  37  37  32 124 114 111 108  95  58  44  49  66  69  72  76  72  67  62  60  59  58  67  67  72  78  82  84  88  84  83  83  75  68  70  77  82  85  86  86  92  93  81  64  54  45  41  36  35  29  41  61  38  20  14  15  15  12  14  17  16  17  17  19  17  18  17  18  15  12  12  13  17
  90  54  41  42  45  43  40  42  44  54  52  49  54  49  40  30  20  14  14  33  36  32  25 124 112 113 113 106  92  51  44  44  64  62  62  51  58  57  58  55  56  61  63  66  75  81  81  83  85  84  82  77  74  79  86  89  87  83  81  88  91  79  62  50  44  37  31  32  29  45  75  50  26  17  14  15  11  12  14  16  15  15  17  18  18  18  18  17  16  14  12  14
  49  46  40  34  31  33  36  37  46  52  50  52  50  41  32  22  16  12  22  36  34  28  26 104 114 115 113 110 100  75  44  39  48  51  52  47  51  56  59  53  53  61  58  62  74  74  75  78  83  88  83  77  70  75  87  84  80  78  75  78  86  81  61  46  38  35  32  30  34  52  91  62  33  20  15  16  14  12  13  14  15  15  15  16  16  17  18  18  17  17  15  13
  43  41  37  31  28  24  27  32  46  49  48  50  43  35  26  18  13  12  30  37  30  24  18  93 113 115 113 110 102  91  53  39  36  45  43  40  45  50  52  51  54  56  54  60  69  70  73  80  80  84  80  74  67  72  78  76  72  68  70  77  80  79  58  44  35  32  30  29  38  77  97  71  40  23  18  15  14  11  12  13  13  13  13  13  14  17  17  17  17  16  15  14
  42  38  35  28  28  26  28  37  48  48  50  47  38  30  20  13  10  20  34  33  26  21  18  86 114 112 112 108  99  92  78  61  34  38  36  35  37  46  44  42  48  48  54  60  62  64  71  75  75  77  74  69  64  68  71  69  71  64  68  71  71  67  54  38  31  29  28  29  48  94  97  83  45  28  18  14  14  13  12  14  14  11  13  12  12  14  15  15  16  15  17  16
  40  37  32  28  25  27  33  40  47  47  50  41  32  24  15  11  10  27  34  29  22  16  16  78 116 112 111 106  99  97  93  83  54  39  28  32  30  38  37  41  40  39  47  57  52  55  63  67  69  70  68  64  62  60  66  68  68  68  69  64  64  55  43  35  29  28  28  33  72  91  99  87  51  30  18  14  12  11  11  13  13  11  12  11  12  15  16  16  16  14  15  16
  39  36  31  27  24  26  32  41  44  48  46  36  28  18  11  10  14  30  32  28  20  14  17  69 113 114 108 105 102 101  97  88  82  53  29  30  28  30  34  34  36  37  44  49  49  53  55  61  63  64  60  55  56  57  66  66  64  62  62  59  54  50  38  32  24  26  28  39  84  94  99  93  57  32  20  14  13  11  11  12  13  12  12  12  12  13  13  15  16  13  12  14
  41  34  31  26  21  24  31  41  43  46  38  31  23  15  11  10  19  31  28  24  17  14  19  61 115 113 109 105 103 100  96  92  86  72  40  31  26  29  30  31  33  37  36  44  48  48  47  53  57  55  54  52  55  55  58  60  61  54  49  46  42  40  33  27  24  24  29  72  92  93  99  94  64  34  21  14  14  10  12  14  14  10  11  11  12  13  13  13  13  12  11  13
  40  35  31  26  21  23  32  41  46  44  38  29  18  15   9  10  25  30  26  21  16  13  19  55 112 112 112 105  99  99  92  91  92  87  62  39  28  26  26  30  30  32  32  41  41  40  41  45  48  47  50  48  50  52  55  53  48  44  39  35  30  30  27  23  24  29  53  81  93  91  97  96  70  36  24  17  14  10  10  13  14  11  11  11  11  12  13  12  12  12   9  11
  36  34  30  25  22  26  35  41  45  40  32  22  16  12  10  13  28  28  23  17  14  12  20  51 112 110 111 106 100 100  94  91  96  91  79  57  30  25  24  24  28  28  27  31  31  32  33  36  36  34  40  43  42  46  48  43  35  34  30  29  25  25  24  23  34  49  71  86  94  93  97  94  72  39  23  15  13  12  10  14  13  11  10  10  12  13  12  12  11  11  10  11
  35  32  28  26  25  28  38  41  42  35  27  16  12   9  10  20  29  26  21  18  14  11  19  49 111 108 108 107 103 101  98  95  93  91  84  86  61  34  27  26  23  25  24  25  26  28  28  28  27  27  29  32  34  33  34  31  29  28  26  25  22  23  30  47  61  75  86  88  92  91  94  90  72  40  23  15  13  12  11  12  13  11  10  10  11  12  12  11  11  11  11  11
  34  31  27  26  24  28  35  38  37  32  23  14  10   8  10  22  28  22  18  18  13  10  20  42 110 108 106 104 102  96  97  97  92  86  84  83  75  63  50  30  23  22  24  22  23  25  23  25  22  23  23  24  24  25  27  25  22  25  22  24  25  36  60  78  80  85  90  88  93  92  93  90  72  38  22  16  13  12  11  12  13  12  10  11  12  12  12  12  11  10  10  10
  33  29  27  25  27  30  33  42  38  29  20  14  10   6  10  23  28  22  17  17  14  11  17  35 110 107 106 103  99  99  97  94  94  92  86  82  79  77  77  68  48  44  34  24  24  24  22  21  20  22  21  23  20  23  24  24  26  28  27  31  33  64  79  82  87  88  88  85  90  91  90  87  70  37  22  15  13  12  12  12  13  11  10   9  12  12  12  11  11  10  10  10
  29  27  27  27  28  28  31  41  33  24  18  13  10   7  12  24  24  22  20  17  13  10  16  24 100 102 104 104 101  98  97  92  93  91  88  81  76  74  80  80  76  70  65  55  39  36  30  23  22  22  21  23  25  27  34  41  47  45  44  56  64  79  82  86  88  88  87  87  91  90  90  85  65  34  20  14  12  11  12  12  12  10   9  10  11  12  11  10  10  11  10  10
  28  28  26  26  26  26  32  37  29  22  16  13  10   7  13  23  22  22  20  15  13  11  13  24  71  99 100  99  98  98  95  89  87  83  83  81  82  81  81  81  78  74  75  75  63  61  53  46  43  47  37  34  41  48  57  61  65  63  62  76  81  78  80  85  86  84  87  86  88  90  86  79  54  30  18  15  14  12  12  12  11   9   8   8  12  12  11  12  12  10  10   9
  30  29  27  27  26  27  32  36  32  23  19  13   8   7  14  19  19  20  19  15  14  12  12  21  41  93  95  96  96  96  94  90  86  80  80  77  80  84  83  80  80  76  77  76  74  74  70  62  63  62  62  58  58  64  65  65  70  75  75  77  82  82  80  81  83  84  84  86  88  88  86  73  49  27  17  13  12  11  11  11  12  11   9  10  11  12  12  11  12  11  10  10
  30  31  28  27  28  29  34  35  30  21  16  13  17  23  23  20  18  18  19  17  15  14  12  16  26  67  92  91  90  93  92  92  89  83  80  80  77  81  81  76  78  78  77  77  78  71  72  71  67  64  63  64  60  64  67  69  72  76  78  79  79  78  80  80  81  82  84  85  86  87  81  67  41  26  17  14  12  11  11  12  11  10   9   9  11  12  10  10   9  10  10  10
  29  28  30  28  27  28  36  34  28  21  17  12   7   8  19  23  20  19  18  18  16  15  13  14  20  31  81  88  88  90  92  91  90  86  86  81  79  82  84  79  76  75  73  75  77  71  69  70  64  61  61  62  64  66  67  71  73  75  78  78  77  80  78  77  79  79  81  82  83  83  74  59  35  23  16  12  11  12  12  12  12  10   9   9  10  12  12  10  11  10   9   8
