P2
# Generated by OpenCV 3.4.0
92 112
255
  77  78  78  81  79  81  80  82  82  83  84  84  83  83  84  84  86  84  85  85  84  86  87  87  87  87  87  87  85  86  87  89  88  86  87  86  86  87  85  85  83  84  82  82  82  81  81  80  81  80  83  82  82  85  86  88  95  94  96  99 101 104 108 109 108 109 110 111 110 112 110 110 110 111 111 111 111 111 110 110 109 108 110 110 109 109 109 111 111 110 111 109
  77  76  79  81  82  81  82  81  82  83  84  83  82  84  86  84  85  84  84  84  85  85  85  85  85  86  86  83  84  84  85  83  82  81  82  80  81  83  84  84  85  86  85  85  86  88  91  94  96 101 101 104 107 109 109 110 111 112 113 112 112 113 113 113 113 113 114 114 114 113 113 113 112 113 113 112 112 112 112 111 112 110 110 111 111 110 112 111 112 111 110 108
  78  78  78  80  80  80  82  81  82  83  83  83  82  82  83  83  83  83  84  83  81  81  80  81  80  78  80  80  81  83  81  84  85  88  90  91  94  97  99 102 102 104 108 110 110 109 111 112 112 112 112 114 113 114 113 114 115 116 113 115 115 114 115 114 115 113 113 115 114 114 114 113 114 114 114 113 112 113 112 111 112 112 111 113 111 110 111 111 111 110 111 108
  78  77  77  79  79  79  80  80  80  78  79  78  76  77  77  77  78  76  79  77  78  79  84  86  88  91  94  96  99 100  96 104 107 107 110 111 113 112 113 112 113 113 112 113 114 115 114 114 115 116 115 115 113 114 114 114 114 114 115 114 115 115 114 115 114 115 114 114 114 114 116 115 114 113 114 114 113 114 113 112 113 111 112 112 111 111 111 111 111 110 111 110
  73  71  72  71  71  72  72  74  75  78  77  79  82  85  88  88  92  96  97  98 103 103 106 106 108 111 111 110 111 110  89 109 111 113 113 113 114 111 113 113 114 116 115 115 116 115 115 117 117 118 118 116 116 115 115 115 116 115 116 116 116 115 115 114 115 115 114 114 115 115 115 114 114 114 114 113 114 114 114 114 114 113 114 113 111 111 112 112 111 111 112 112
  72  72  77  83  85  88  91  93  95  96 100  99 101 103 103 103 107 108 108 109 111 109 111 112 111 113 111 114 112 111 112 113 113 115 116 114 115 114 115 116 116 118 117 117 118 122 123 123 122 122 130 125 116 115 117 116 116 116 116 117 117 115 115 115 115 114 114 115 116 117 114 116 115 115 114 114 114 114 115 115 114 114 114 113 112 112 113 113 111 112 111 112
  94  97  99 102 101 103 104 104 103 105 106 107 107 106 108 108 108 109 110 110 110 111 112 111 112 112 113 113 114 113 115 115 116 114 118 122 115 117 121 126 128 133 139 136 138 149 156 149 138 122 118 119 118 116 117 117 117 117 116 117 117 115 116 115 116 116 116 115 115 117 115 115 115 115 115 115 115 114 114 114 114 114 114 114 114 113 112 113 113 113 112 111
 100 102 101 103 103 105 106 106 106 106 106 107 108 108 109 108 108 110 111 112 112 112 113 113 113 113 116 114 113 115 116 116 119 116 117 120 122 129 134 149 150 154 165 174 159 153 164 161 158 135 124 122 121 122 123 122 119 116 116 116 116 115 116 118 117 116 115 114 115 118 116 115 114 116 117 115 115 115 114 114 115 114 115 113 115 113 113 114 113 114 112 112
 101 102 103 104 104 106 105 105 107 107 108 106 108 108 110 110 110 110 111 113 112 110 112 114 112 111 114 113 115 115 118 117 121 122 127 135 145 151 160 159 156 156 174 179 168 163 153 155 153 149 142 142 131 132 130 125 128 120 116 116 116 117 117 116 116 116 115 117 117 116 116 116 115 114 115 116 116 114 114 115 114 115 114 112 115 114 114 114 114 113 114 112
 102 104 104 104 104 105 106 106 107 108 109 110 110 110 110 111 112 112 113 112 112 113 112 112 115 114 116 115 115 116 118 122 126 137 147 159 170 178 171 171 169 172 171 173 165 164 149 152 156 151 139 155 147 133 142 132 123 127 118 117 116 117 116 117 116 117 117 118 117 116 116 115 115 116 116 116 116 115 115 115 114 116 116 115 115 113 114 114 111 113 114 114
 102 102 103 105 105 106 106 107 106 107 108 110 109 110 111 110 111 111 112 112 113 115 114 114 113 114 116 116 117 117 121 130 143 149 152 160 167 173 178 168 166 176 163 162 165 165 153 157 166 144 136 138 145 128 138 127 131 114 111 108 112 115 116 118 117 119 117 117 116 117 116 116 117 116 116 116 116 116 115 115 116 115 116 116 116 115 113 114 115 114 114 114
 102 103 105 106 104 107 108 106 108 109 107 110 109 110 110 111 112 110 113 112 113 114 114 113 115 116 114 115 114 118 130 143 156 153 153 154 161 167 165 159 163 163 156 159 166 160 160 166 155 138 137 150 136 118 133 121 129 110 101  87  91 106 115 116 118 117 117 117 116 117 117 116 116 117 118 117 116 116 116 116 115 114 116 116 115 116 116 114 115 115 114 113
 103 104 105 105 107 106 108 108 109 109 109 109 110 110 112 113 112 112 112 113 114 116 115 115 117 117 117 112 114 124 140 160 154 152 153 146 147 154 149 155 162 158 156 159 169 160 160 153 145 137 151 137 135 122 132 115 119 119 103  84  79  75  97 112 115 117 119 119 117 117 117 117 117 118 116 118 117 117 117 116 115 116 116 115 119 116 117 116 116 114 114 115
 104 103 104 106 106 107 107 107 109 109 110 110 110 111 114 112 112 112 115 115 114 115 116 116 118 119 125 119 118 135 154 148 140 134 136 132 130 138 142 152 156 159 163 165 175 164 164 154 144 147 145 140 139 128 128 116 119 124 108  82  79  82  84  95 110 116 120 119 118 118 120 118 118 119 118 118 118 118 117 116 116 117 117 117 118 117 117 117 117 115 115 115
 103 103 105 106 108 108 108 109 110 110 110 112 111 111 113 113 114 113 114 114 114 116 116 119 120 120 119 121 134 155 156 139 131 142 148 144 148 141 152 156 156 163 165 164 163 168 168 161 153 156 144 146 136 139 127 113 113 124 114 100  94  89  82  78 100 108 116 120 121 122 120 119 121 121 120 119 118 120 118 120 118 117 118 118 119 118 118 117 115 117 117 116
 103 104 107 107 106 108 107 108 109 110 111 112 112 112 112 114 114 115 115 116 115 117 119 118 118 116 120 144 169 172 166 161 158 167 170 172 172 166 166 163 168 172 177 169 168 177 171 162 164 155 160 140 133 132 119 111 117 128 113 108 110 106  94  85  86  97 104 112 118 121 121 119 121 121 121 120 121 121 120 120 120 119 119 118 118 119 120 118 118 117 118 118
 105 105 107 109 106 109 108 110 110 110 112 113 112 114 114 115 116 116 117 115 116 119 120 122 116 110 122 171 185 184 203 205 198 199 200 200 200 195 193 186 183 184 182 174 171 169 167 169 188 203 159 142 141 124 120 116 119 113 108 109 111 111 108 100  96  85  86  99 114 121 121 121 122 122 122 122 122 120 122 122 121 119 121 122 120 119 119 119 119 121 119 118
 106 106 106 108 108 110 110 110 111 112 112 113 113 115 116 116 116 119 117 117 119 120 124 121 113 120 151 182 193 206 228 225 225 226 226 228 227 223 211 208 203 193 188 179 171 171 169 167 169 159 145 136 128 126 120 117 112 115 113 118 119 116 110 101  93  83  72  76 104 118 121 122 122 123 121 123 123 122 122 123 122 121 122 121 121 122 121 121 119 121 120 118
 108 106 109 108 109 110 110 112 112 113 116 116 115 116 117 118 117 120 119 120 122 122 120 113 122 144 181 200 208 214 219 226 232 233 236 232 229 223 221 221 209 199 198 192 181 173 164 158 158 150 131 124 121 125 121 122 122 125 125 127 128 127 121 115 105  92  76  64  77 107 119 122 123 123 122 123 124 124 123 122 122 122 123 122 123 123 122 123 120 120 120 120
 108 108 110 110 111 112 113 114 115 114 115 116 118 117 119 120 119 120 121 121 125 124 114 122 146 184 211 215 213 213 215 221 230 232 230 221 221 216 215 209 203 197 193 189 184 181 170 159 145 136 130 123 121 120 121 125 130 133 136 138 138 137 131 125 122 112  95  75  68  85 114 121 124 124 123 124 124 123 124 123 122 123 123 122 123 124 123 122 122 122 120 122
 110 110 112 112 112 112 114 116 118 119 118 119 120 121 122 121 121 122 125 125 127 119 129 155 195 210 212 208 206 201 203 206 207 210 206 210 208 201 197 191 183 180 178 178 172 166 162 153 144 135 128 122 118 116 118 120 125 132 137 141 144 139 136 132 125 122 114  92  77  77 102 121 124 126 124 127 125 125 125 124 124 124 124 124 124 124 124 124 124 123 122 123
 114 113 114 115 116 115 117 118 119 120 121 121 121 121 124 123 124 124 126 125 126 129 156 196 208 210 206 205 201 199 200 207 215 215 219 214 196 190 184 178 172 171 169 166 154 153 148 136 131 134 134 129 132 133 133 136 138 141 141 140 142 137 134 132 125 122 120 114  88  81  88 119 126 126 127 127 127 126 126 127 126 124 125 127 125 126 124 125 126 124 123 124
 116 114 116 117 118 120 119 121 121 122 123 124 124 123 125 128 128 128 128 128 130 153 187 208 206 205 201 198 200 201 198 198 199 192 193 191 189 188 182 178 178 172 163 160 156 147 138 131 130 127 127 131 134 135 136 140 142 142 145 148 146 143 134 125 119 120 121 120 114  88  82 106 125 130 128 127 127 128 128 128 126 126 127 126 125 126 127 126 126 127 126 124
 117 118 120 120 122 122 123 123 123 125 126 126 126 126 128 129 129 130 132 132 143 174 202 207 204 200 200 197 194 187 179 175 172 169 179 177 176 170 156 145 136 129 121 116 114 113 106 103 102 100 104 111 121 120 119 123 127 126 128 131 130 130 132 130 123 115 115 119 118 109  89  90 120 132 127 128 130 128 129 128 128 128 129 127 127 128 129 127 126 127 127 127
 121 121 122 122 124 124 125 126 126 129 128 128 128 130 131 131 132 133 133 129 164 191 202 205 199 199 198 190 183 180 180 181 187 187 183 176 172 164 156 145 145 146 142 143 138 128 123 125 129 141 151 156 148 143 130 128 129 126 122 115 114 114 117 118 122 122 116 115 117 120 105  85  98 125 129 132 132 132 131 130 129 131 130 130 128 129 128 130 129 128 128 127
 125 127 126 126 126 127 129 128 128 128 130 130 130 131 133 133 133 135 126 154 184 195 200 200 200 198 190 183 185 183 184 182 179 180 182 177 174 165 164 164 152 158 167 167 159 152 150 152 146 146 144 138 131 124 121 122 121 122 123 121 118 115 113 110 111 115 121 119 114 117 114  91  86 120 129 135 132 133 133 131 131 132 133 132 130 132 132 131 130 131 129 129
 128 127 128 128 129 128 128 129 130 134 134 133 134 134 135 136 135 128 145 177 193 190 192 194 193 195 192 188 185 181 166 150 145 141 139 130 126 127 122 130 141 150 154 145 139 130 122 119 117 117 115 112 107 106 106 108 106 103 103 104 108 110 110 112 111 110 112 112 115 116 114 103  83 110 131 133 134 134 134 132 133 133 134 134 134 133 132 134 134 133 131 131
 128 129 131 132 132 132 132 132 134 134 135 135 136 136 137 137 134 134 169 193 197 191 188 186 188 191 188 183 164 150 135 130 127 127 126 130 143 154 166 166 151 143 132 118 108 102  98  97  97  95  94  96  94  99 104 107 105 101 101 100  99  98 100 104 109 113 117 115 112 115 114 113  92 100 126 135 135 136 136 135 134 135 135 135 135 135 133 135 134 134 133 134
 132 136 133 134 135 134 133 136 136 136 137 137 138 138 138 140 134 153 183 197 194 190 186 185 186 184 170 154 159 170 184 200 203 201 201 194 186 174 168 154 147 141 135 126 111 104 102 118 144 148 148 139 127 123 124 128 127 124 121 116 111 106 103 104 104 103 105 113 112 112 113 115 106  95 123 135 138 137 137 137 137 136 137 136 136 136 134 135 136 135 135 136
 136 136 136 136 139 137 136 136 140 138 139 137 140 139 141 140 143 173 188 196 192 187 183 182 181 172 176 185 181 177 173 175 178 169 161 152 147 146 141 140 152 160 156 148 143 139 138 146 147 134 126 120 121 119 117 113 111 112 113 112 112 111 113 113 112 110 106 108 108 110 110 113 114 101 112 133 137 138 137 137 136 137 137 137 138 136 137 135 136 136 136 136
 138 140 139 139 140 141 139 141 141 140 142 142 144 141 144 141 163 177 190 191 188 183 179 175 176 181 179 176 172 165 160 155 149 148 147 146 140 141 142 151 157 150 137 134 133 133 129 125 119 116 119 125 129 130 128 120 114 109 106 105 104 105 103 104 106 109 111 110 108 108 108 111 113 107 103 132 139 139 138 137 136 138 139 138 139 139 139 138 137 138 136 137
 140 143 143 143 144 142 142 142 144 142 142 143 143 144 145 142 159 180 189 187 182 177 176 174 181 178 170 168 170 178 188 194 200 195 195 188 179 174 166 162 153 144 130 122 123 126 129 135 141 142 140 136 130 127 125 122 121 116 114 112 111 112 112 112 110 111 111 110 109 109 109 110 114 107  93 112 136 139 140 139 140 140 140 140 140 140 139 140 139 138 139 138
 144 144 145 146 146 144 143 143 145 146 145 147 155 147 150 140 154 180 184 182 179 175 172 178 175 169 175 181 186 191 191 188 186 186 182 173 168 162 155 145 135 129 121 115 119 127 129 135 137 136 127 119 117 117 117 121 126 126 126 126 126 122 122 118 116 116 115 112 110 109 110 110 111 109  94  87 131 140 141 141 143 142 141 141 141 141 141 140 139 139 141 139
 146 148 148 149 148 147 146 147 146 147 148 152 153 151 134 128 151 180 182 179 176 172 175 173 169 172 180 185 190 190 184 183 182 178 175 170 164 157 146 132 122 116 107 109 111 112 114 111 112 114 113 109 109 111 112 114 120 124 125 122 123 122 122 119 115 112 111 110 109 110 110 111 111 110  97  79 104 140 141 142 144 143 143 142 143 143 142 143 142 142 142 142
 149 149 150 151 151 150 149 149 150 150 150 150 153 153 113 126 159 182 180 177 173 174 175 171 172 177 182 190 189 185 182 177 172 162 155 152 146 143 138 132 122 114 107 103 107 109 109 109 106 104 105 104 101 106 108 109 114 119 122 120 121 122 118 115 114 112 111 109 110 108 109 110 114 111 104  80  89 134 143 144 144 143 143 144 143 145 145 144 144 144 143 143
 151 152 153 154 153 150 152 151 151 151 152 149 154 144  98 126 160 178 178 174 173 173 174 174 173 179 185 188 180 173 166 161 148 136 125 123 112 117 122 121 122 117 112 108 109 109 108 108 103 103 104 104 103 106 109 110 112 114 115 115 113 108 107 107 106 107 110 109 107 108 110 110 113 112 102  80  81 120 144 145 145 146 146 146 145 146 146 145 145 145 145 145
 154 153 155 156 155 153 153 154 153 152 153 157 159 123 102 132 163 179 181 174 172 175 175 174 172 178 180 175 164 154 145 118 106 102 102 100  96  96 108 107 107 109 111 110 108 108 106 104 103 105 105 102 105 104 107 106 104 104 105 107 105 104  98  94  95  96  98 104 108 110 109 111 113 113 105  83  75 111 145 147 147 146 147 146 147 147 146 146 145 145 145 144
 157 157 158 159 157 155 155 155 155 156 157 162 161 109 106 135 161 173 174 173 171 172 174 172 167 170 164 152 132 116  98  86  78  82  84  88  82  86  89  91  95 101 105 107 106 105 104 103 103 105 105 105 104  98  97  96  94  93 101  92  84  85  82  80  82  84  87  96 102 104 108 112 112 114 110  88  72 102 144 148 149 149 149 149 148 147 147 146 147 148 146 147
 159 160 160 160 161 160 157 159 157 157 157 160 143  92 104 131 157 169 173 171 170 169 172 168 169 156 133 115 103  86  76  71  65  68  76  84  76  74  79  81  82  90  95  98  96  98  98  97 100 101 100  98  95  92  88  87  82  78  78  72  66  64  61  60  62  66  74  81  90  93 107 109 115 115 110  93  76 116 147 150 149 150 151 149 149 149 150 148 150 149 148 148
 161 162 163 163 162 160 159 159 160 159 160 161 133  91 103 130 151 166 168 170 173 171 169 165 159 136 106  86  80  75  74  70  70  70  74  78  79  74  72  76  77  82  88  89  91  93  93  94  93  93  92  91  88  83  80  77  72  66  64  60  57  58  56  56  59  60  65  70  71  77  99 106 111 114 110  93  75 129 149 152 151 152 152 152 152 152 150 151 152 151 149 150
 163 164 164 165 165 161 161 160 161 161 162 160 116  88  99 124 148 163 168 171 175 174 171 149 124 109  99  90  87  83  84  84  84  84  83  83  84  80  77  75  76  77  82  85  89  91  92  93  91  87  86  85  81  74  76  72  67  66  65  66  65  67  70  71  70  74  76  76  76  82  90 104 111 115 112  96  76 130 150 152 153 153 153 153 153 154 153 152 153 152 152 152
 165 166 166 166 166 164 163 163 163 162 162 157 102  83  95 124 149 159 163 171 175 176 163 132 118 108 111 103  96  93  91  86  86  87  86  86  88  88  86  81  80  80  80  83  86  89  90  91  88  85  84  83  78  75  76  71  70  74  76  78  76  76  79  80  81  83  86  90  89  85  79  96 110 116 112  95  79 131 152 154 155 155 153 153 153 155 154 153 153 153 153 153
 167 167 168 168 167 165 165 165 165 165 163 146  87  72  93 120 151 161 163 171 177 173 142 140 126 118 113 106  97  93  89  86  86  86  85  84  85  86  86  91  87  84  83  84  86  87  90  90  88  84  84  81  78  76  76  75  78  79  76  75  75  77  78  79  81  86  90  94  99  98  90  87 108 115 114  96  81 136 154 156 155 156 154 153 154 155 155 154 153 154 155 154
 168 169 172 171 169 168 167 167 166 166 163 139  87  63  86 120 155 161 166 175 179 164 145 141 132 120 112 104  96  88  84  80  78  79  80  81  82  84  86  88  92  91  87  88  91  91  91  88  89  84  84  81  79  81  78  77  76  74  73  73  75  74  72  73  74  80  86  95 100 105 105  95 106 114 114  92  76 136 152 155 157 156 157 156 155 157 158 157 155 155 155 158
 171 173 173 174 172 171 169 168 169 167 163 149  83  62  89 121 151 162 170 177 178 150 141 134 126 114 103  93  85  78  70  65  61  59  62  74  75  80  84  84  88  93  92  92  94  94  94  91  87  85  83  82  81  79  77  75  71  70  68  66  66  64  64  68  73  77  81  90  96 104 110 105 101 113 113  86  78 140 155 157 156 158 157 157 158 159 157 158 159 158 157 158
 173 173 174 174 172 171 170 171 168 170 168 161  89  69  90 115 152 162 172 175 167 137 135 129 121 108  93  83  68  52  44  43  43  42  42  45  58  73  75  76  82  88  92  96 101  98  94  93  91  89  89  87  84  76  70  68  66  63  56  45  40  39  41  47  55  64  73  83  89  99 106 106 101 111 111  82  83 146 156 157 159 160 162 160 160 160 160 160 158 160 160 158
 175 174 175 175 174 172 172 171 171 171 172 166 116  74  84 115 152 166 172 170 155 138 131 118 111  99  80  60  52  54  53  50  47  46  46  46  45  53  67  74  76  78  89  98 107 103  98 100  96  93  92  85  77  69  62  62  60  49  43  44  44  45  43  47  51  50  60  74  78  90 102 109 100 113 109  78 102 150 160 161 162 161 163 161 160 161 162 161 160 161 161 160
 176 177 176 176 174 174 173 173 173 173 172 170 136  74  76 109 151 166 170 168 155 137 124 110 103  87  66  56  58  67  60  42  41  41  52  50  50  48  53  64  68  72  85  96 109 111 110 108 103 101  96  84  70  61  56  54  45  47  47  45  41  38  38  45  45  48  56  64  78  87  98 108 109 113 105  75 120 152 161 163 163 162 162 162 161 162 162 161 161 161 160 161
 178 179 178 178 176 175 177 173 174 173 173 172 138  72  76 105 152 169 170 166 153 131 120 106  93  74  63  59  79 101  62  57  36  50  48  69  54  53  51  52  59  67  81  94 109 117 116 114 107 107 102  79  63  54  51  47  49  50  52  51  38  40  42  52  62  52  53  59  71  83  92 107 111 114 102  76 126 151 160 163 165 165 163 164 164 163 163 163 162 162 164 161
 179 180 179 178 175 175 176 174 174 174 174 172 149  70  70 103 152 171 171 166 150 129 115 101  85  66  70  77 121 102  60  32  26  37  54  70  65  49  53  54  55  61  77  95 111 119 117 116 113 113 108  76  59  51  50  51  49  52  61  48  44  29  34  43  62  76  56  59  65  77  89 104 112 117 101  82 148 152 163 164 164 164 162 165 164 164 163 163 162 165 162 162
 180 180 180 180 179 176 177 177 175 175 175 172 163  75  80 104 152 170 169 158 144 124 113  96  79  73  84 107 130  98  56  44  39  51  60  80  72  52  44  54  63  61  76 100 115 125 124 121 116 117 109  74  58  55  51  42  46  55  63  50  46  26  27  40  58  99  69  63  62  76  88 102 111 117 102  98 152 155 163 165 165 166 165 166 165 165 165 165 164 164 164 165
 180 181 180 181 178 177 178 179 178 175 177 175 171 101  85 102 152 173 168 155 136 122 110  95  83  88  95 103 129 126  81  58  51  61  79  84  71  55  50  53  64  79  85 104 117 126 126 126 122 123 116  84  67  61  46  42  46  59  74  68  57  47  49  51  72 106  79  72  65  74  87  98 110 118 103 120 155 156 160 164 166 166 165 165 165 165 165 165 165 164 165 165
 181 181 181 182 180 180 176 179 179 178 181 189 179 147  79 102 153 173 169 158 138 124 109  95  95 104 107 105 108 111 103  85  75  75  78  74  68  62  58  66  70  82  96 105 118 131 136 130 128 128 120 100  71  62  56  50  52  56  66  73  68  56  63  78  96  96  86  82  73  78  87  98 109 118 102 130 150 156 161 164 166 167 167 166 167 166 165 165 167 166 165 165
 182 181 184 183 180 181 180 180 182 188 201 202 210 199 115 111 159 172 170 158 142 125 111 102 111 122 119 113 104  94  88  84  78  73  69  67  63  60  60  62  73  94 108 110 126 141 144 135 132 134 125 112  87  65  55  54  54  56  61  66  69  72  80  83  92  91  90  93  83  83  88  99 109 119 106 114 119 132 150 163 166 167 167 166 166 168 167 166 167 166 166 166
 182 183 184 182 181 181 179 181 174 152 148 150 164 174 150 128 160 172 168 156 146 130 120 121 127 133 131 120 112 103  97  86  78  72  68  66  60  57  58  69  86 107 112 119 143 155 151 143 136 135 132 117 103  84  57  52  53  55  58  63  66  70  75  78  85  88  93 103 102  94  94 102 111 118 110 108 109 114 122 157 166 168 168 167 168 167 169 169 167 168 167 167
 182 183 182 182 182 180 180 173 127 100  93  97 116 143 144 138 159 172 168 160 152 145 134 132 134 138 137 127 117 106  99  92  82  74  68  65  60  60  72  84 102 109 118 138 157 160 156 150 143 136 129 117 108 101  80  58  52  53  59  62  66  70  76  84  89  95 103 110 109 104 102 105 110 117 115 109 102  97 108 137 165 167 169 168 169 167 169 167 167 168 169 168
 182 183 184 184 181 181 181 145  95  82  82  85 101 115 131 134 164 171 168 164 164 162 154 145 144 140 132 125 116 110 101  91  83  74  69  65  66  74  89 106 111 118 130 150 158 154 149 149 144 136 124 114 109 105  97  75  62  57  56  60  67  72  80  86  90  96 104 110 109 106 106 110 112 118 114 100  75  68  76 124 165 168 169 168 170 169 170 169 169 169 168 170
 183 183 184 183 181 181 179 126  86  77  78  85 108 102 116 126 162 170 168 167 172 172 167 160 151 142 132 124 113 104  95  89  83  74  72  73  81  92 104 113 118 125 142 156 161 156 151 150 144 137 122 111 106 105 102  92  75  65  60  62  65  72  79  86  92  95 103 108 111 108 108 109 112 114 108  86  72  66  68 126 166 168 168 169 170 171 169 170 169 168 168 169
 183 184 183 183 181 181 179 115  81  73  76  94 122 121 116 117 161 168 168 170 175 178 175 167 159 147 134 124 114 104  94  91  86  84  81  87  97 107 112 116 122 131 148 162 165 162 163 157 148 139 120 109 106 107 104 100  88  76  64  67  70  71  76  84  91  96 105 109 109 110 110 110 110 112 101  86  79  64  70 135 168 170 170 168 170 170 170 169 169 168 169 169
 184 185 185 183 183 182 180 124  79  69  72 113 132 120  84  84 154 167 168 171 174 179 174 169 159 146 133 126 116 110 101  94  89  91  97 104 108 114 120 120 126 138 153 164 168 167 169 161 150 133 114 105 105 105 104 102  98  89  76  72  73  78  84  90  98 100 107 110 111 112 111 111 111 114 108 106  99  66  73 151 170 170 172 172 170 171 171 171 169 170 169 170
 183 186 184 183 183 183 182 151  89  69  79 131 125  95  69  72 141 165 167 168 171 173 169 162 155 145 134 125 117 109 103  95  96 101 106 110 113 116 121 123 128 143 159 168 173 178 176 166 153 131 110 103 103 104 104 102 101 100  91  85  83  86  90  95 100 102 105 109 110 111 111 111 109 113 100  96 109  71  91 162 171 171 171 173 172 172 173 172 171 172 170 170
 185 186 185 183 183 184 182 178 110  80  92 127 109  89  71  70 147 164 164 164 168 169 162 158 154 145 132 125 119 114 106 101 106 109 113 113 116 118 117 122 130 150 167 175 180 184 181 165 149 136 119 106 104 104 102 101 102 102  99 100  98  94  97  98 101 107 109 106 108 110 110 110 111 113  88  84 103  80 112 167 172 173 173 172 172 173 172 172 173 173 173 172
 186 186 186 184 184 184 182 181 149  91  96 123  95  79  70  79 153 161 160 161 162 153 152 148 142 136 130 123 117 115 109 111 111 113 113 114 115 116 115 119 131 160 175 185 192 186 176 162 148 143 128 112 106 104  98  98 100 102 103 104 103 101 102 103 102 105 108 106 107 108 110 111 112 116  76  74  96  95 142 169 172 172 173 172 173 172 173 173 173 172 173 174
 186 185 185 185 185 183 183 183 174 105  95 120  88  71  68  81 139 157 159 157 154 144 144 139 134 130 127 120 115 115 115 114 115 115 114 113 113 112 112 116 143 175 183 188 189 177 165 154 140 137 134 120 109 103  94  94  96 100 103 105 107 105 106 106 105 105 105 105 105 106 109 110 112 112  65  70  96 107 164 172 173 174 174 173 174 173 173 174 174 175 174 174
 186 186 187 185 186 185 184 185 181 137  98 118  87  69  67  74 107 154 156 151 147 141 133 131 130 126 125 124 119 119 118 117 115 115 113 110 110 109 107 120 162 178 183 181 173 163 149 134 129 126 129 123 115 106  95  91  94  99 102 104 106 108 109 108 107 104 104 104 106 108 108 107 112 103  60  67  96 125 169 173 174 174 174 173 175 175 174 175 174 174 174 174
 186 186 187 186 187 185 186 186 185 171 112 121 110  87  72  81 103 151 150 144 141 137 131 130 128 128 128 127 124 122 121 119 120 118 115 111 108 103 103 132 167 174 176 171 156 141 127 119 115 114 116 119 114 108  96  84  90  97 101 103 106 107 108 104 104 104 104 104 106 108 110 108 112  92  69  86 103 144 171 174 174 175 174 174 174 173 174 174 174 174 173 173
 185 186 187 184 185 185 186 185 186 184 144 112 118 117 127 147 130 143 149 139 139 138 132 131 131 130 128 126 124 124 122 124 122 118 114 112 104  98  96 138 152 154 157 152 137 119 109 103 101 100 104 105 108 105  97  80  86  94 100 102 102 102 104 102 103 103 103 107 108 110 111 110 114 106 102 104 108 161 172 174 174 175 175 176 175 174 175 174 175 174 173 174
 186 187 186 186 186 186 186 186 186 184 179 133 112 110 138 158 148 147 146 139 135 137 134 132 132 130 128 125 123 124 125 124 123 117 113 108 103  97  92 131 134 129 129 125 116 104  97  92  92  94  98 100 102 102  98  81  83  90  96  98  99 102 103 101 101 104 105 110 110 109 111 110 117 113  98  96 132 170 174 174 174 174 175 175 176 175 175 174 174 174 174 175
 186 186 186 186 185 186 185 186 183 186 185 170 132 142 165 157 148 142 147 140 137 136 132 129 129 128 126 124 123 123 125 125 123 115 113 107  98  93  92 114 115 109 109 111 106  95  91  85  88  88  92  95  92  94  91  80  84  88  92  97  98  97  99 101  99 102 103 107 109 110 110 111 116 117 114 113 158 173 174 175 175 176 175 174 175 175 176 175 176 175 176 175
 186 186 187 184 186 185 186 186 186 187 186 183 160 158 164 160 155 136 141 142 136 131 129 129 125 126 122 121 123 124 124 125 123 118 115 103  95  95  94  95 101  85  70  99 100  92  86  84  84  85  85  83  82  85  82  83  84  86  90  95  98  99  99  99  99 100 101 104 109 109 110 111 114 117 118 137 170 173 175 176 175 174 175 175 176 175 174 176 176 175 175 174
 186 186 186 186 187 187 186 187 187 186 186 184 179 158 155 162 157 137 136 136 135 130 127 125 125 125 123 124 123 126 127 128 129 122 112 101  98 100  97  93  89  83  71  82  97  93  85  82  79  78  77  62  70  76  83  84  89  87  88  94  96  97  97  96  95  97 101 103 107 110 111 111 108 116 122 161 173 175 174 175 174 175 176 176 178 175 175 177 176 175 175 174
 186 185 185 186 186 188 187 187 186 187 186 186 185 178 147 155 150 135 124 130 134 129 124 123 123 122 122 124 125 133 134 137 136 122 108 104 105 104 104 105  97  86  83  86  87  92  86  83  80  72  59  58  75  84  91  91  93  93  89  95  95  97  99 100  98  98  99 101 103 109 112 111 100 113 146 171 175 174 174 175 175 174 175 176 176 177 176 176 175 175 174 174
 185 185 186 186 185 186 186 187 187 186 186 185 185 183 172 140 129 120 115 128 135 128 123 121 122 122 122 124 127 134 139 145 139 122 113 112 112 111 112 110 107  96  89  89  88  84  76  71  68  61  63  70  84  89  93  96  97  97  92  93  96  97  99 102  98 100 100 100 102 106 112 107  97 134 169 174 174 174 174 175 176 175 175 177 176 175 176 176 177 174 175 174
 184 184 185 186 186 185 185 186 188 186 186 185 185 184 183 170 127 106 112 130 135 128 119 120 119 121 124 131 135 140 148 147 133 121 123 122 120 119 115 112 108  92  78  74  77  73  68  66  63  63  66  70  78  85  89  92  98  99  97  95  98  99 100 100  97  98  98  98  98 106 113 116 139 169 174 175 175 176 176 175 176 176 175 176 174 175 176 177 177 176 175 175
 184 185 185 185 188 185 186 187 187 187 185 185 184 184 183 184 182 180 174 139 138 127 121 119 123 125 128 133 140 148 152 146 132 129 131 126 121 118 115 105 104  87  67  68  68  66  65  65  66  66  69  63  62  71  78  87  95  96  97  96  99 102 102 102 100  99 100  98  99 104 112 139 169 173 175 175 175 176 175 177 178 175 176 176 174 176 176 177 176 176 176 178
 184 184 183 184 186 185 186 187 186 186 184 184 185 185 184 184 185 185 180 147 139 129 123 121 124 128 133 139 148 153 150 140 134 136 132 121 114 113 102  97  93  78  68  63  59  58  58  60  66  64  58  56  53  54  65  71  83  88  92  96  96  97 101 104 102 100 100 100 103 105 112 150 172 176 175 175 175 175 175 175 176 176 176 176 176 176 176 176 175 177 177 177
 183 184 184 184 184 185 186 185 185 184 185 184 185 185 185 183 185 186 182 161 142 131 121 119 124 130 132 143 153 153 148 140 125 128 116 112 108 100  90  82  80  70  61  59  56  58  55  54  57  60  53  47  46  47  55  66  68  72  77  86  92  97  99 103 104 101 102  98 102 106 117 163 173 175 174 175 175 175 175 176 175 176 176 175 176 176 176 177 176 176 176 177
 183 183 183 184 184 184 184 184 184 184 184 183 185 184 186 184 182 184 183 168 140 135 124 122 126 132 140 149 156 153 148 126 109 103 106  95  90  92  75  71  68  64  63  59  56  57  54  51  53  60  55  50  47  43  49  62  63  68  65  70  82  96  98 105 106 104 103 101 102 104 122 165 174 175 175 176 176 174 175 175 176 175 176 176 176 176 175 175 176 175 178 177
 183 184 184 184 184 183 185 184 184 185 182 182 183 184 185 185 184 183 184 172 144 136 125 125 131 134 142 151 155 153 131 106  97  89  85  78  76  76  70  65  63  59  65  65  59  54  52  49  50  55  56  54  51  47  49  57  63  59  53  49  61  83  95 104 106 106 105 103 101 108 135 169 175 175 175 175 176 175 174 174 176 176 176 175 176 177 176 176 176 176 175 176
 183 184 184 184 184 183 184 184 184 184 183 182 184 184 184 185 189 187 183 178 145 136 130 127 134 137 146 150 155 155 121 101  83  74  67  67  67  74  72  63  66  67  76  73  65  57  50  47  49  54  56  55  56  53  52  56  65  54  47  43  48  60  84 100 106 106 104 101  99 106 146 172 175 175 175 175 175 174 175 174 176 175 175 175 175 175 176 176 177 176 177 176
 183 183 184 183 183 183 183 183 183 183 182 183 183 184 183 183 185 185 185 181 149 136 130 131 135 142 147 154 157 147 123  88  69  61  60  64  75  80  81  76  70  71  76  80  75  65  55  57  59  65  68  65  65  68  60  61  69  59  54  46  50  61  80  97 105 107 104  99 100 108 157 173 175 175 176 174 176 175 175 174 174 175 176 175 176 175 176 178 175 176 176 178
 183 182 182 182 184 182 182 182 182 182 183 183 184 183 184 184 184 183 183 182 151 136 129 130 132 138 148 153 153 147 118  86  73  67  69  72  77  82  87  86  74  72  71  75  76  75  71  71  68  68  65  64  64  68  68  67  72  57  58  60  65  73  89 100 108 106 102  98  97 115 163 175 175 175 174 175 175 175 175 174 175 175 175 176 176 176 176 177 176 176 177 178
 181 180 181 182 183 182 183 182 183 182 181 183 183 181 182 182 184 183 183 183 159 134 130 126 130 137 149 150 149 136 111  88  78  68  62  54  64  70  70  66  65  66  66  68  67  66  69  66  63  60  59  57  54  51  48  45  37  36  46  58  65  73  83 103 107 104  96  92  98 123 166 175 175 174 176 176 176 176 174 174 174 175 176 175 176 176 176 176 178 177 178 177
 181 180 182 180 181 182 183 182 181 182 181 182 183 183 183 183 184 183 183 183 160 129 130 125 130 145 146 144 141 125 109  88  74  58  50  38  39  43  42  41  40  42  41  46  47  48  50  48  45  43  40  35  36  35  39  41  42  53  54  58  63  69  77  97 106 106  96  91  98 131 162 171 170 168 170 174 171 176 178 176 174 173 174 174 176 176 176 176 177 176 177 178
 179 181 179 180 181 181 181 181 182 182 182 180 180 181 183 183 183 184 183 180 154 122 123 118 128 135 134 140 135 126 102  82  73  62  66  70  65  68  68  76  71  68  54  48  46  42  39  38  39  41  46  53  60  63  62  62  65  75  71  70  70  73  83  96 105 102  95  88  86  68  56  51  49  48  49  50  53  55  62  72  93 117 151 172 173 174 176 176 176 176 176 176
 178 176 177 178 179 180 179 179 181 182 181 181 181 181 183 183 183 183 182 151 115 119 115 114 121 127 128 133 132 121  97  83  79  79  88  98  95  88  89  93  92  92  82  74  72  68  61  65  66  66  70  78  78  78  79  82  86  87  87  80  75  73  86  93  98  92  89  86  71  44  33  33  30  30  30  31  30  30  32  36  39  39  48  66 108 161 175 175 176 176 176 177
 178 180 178 179 180 179 178 180 178 180 180 181 182 182 182 182 181 181 129  71  80 114 108 113 117 122 122 129 130 116 103  90  86  92  97 102 103 101  96  96  94  92  86  81  79  76  72  72  74  76  75  78  78  83  86  88  93  90  89  83  77  75  83  93  91  85  82  80  52  28  20  18  18  17  19  20  20  18  20  22  25  26  31  35  41  44  94 158 172 175 176 177
 179 179 179 178 178 179 178 178 179 178 178 179 180 180 181 180 180 128  66  53  68 114 107 113 115 118 123 124 126 119 107  95  90  95  98 102  98 104 102 103  95  88  84  80  77  74  73  71  74  73  76  74  78  84  90  93  93  93  88  82  75  69  76  88  85  78  70  63  38  22  16  13  13  12  13  14  12  12  13  16  17  17  21  25  30  35  41  43 107 170 175 176
 178 178 181 179 177 176 176 175 177 176 177 178 179 176 176 179 114  58  55  36  63 115 102 106 108 108 113 120 120 108 102  92  93  98 101 101 102 104 106 103  94  88  84  80  76  77  78  72  73  75  77  78  80  87  92  91  94  89  86  82  73  66  66  82  81  75  70  57  31  19  11  10  10  11  11  11  11  10  11  12  12  13  17  20  20  22  30  36  41  71 160 173
 177 178 178 178 178 175 175 176 175 174 177 175 178 171 146 109  61  59  37  28  48 119 100  89 102  93 105 113 115 107  93  87  86  92  99 102 104 106 110 105  97  90  87  84  75  76  75  75  71  74  76  84  83  91  92  94  92  87  80  73  66  60  57  76  74  61  59  46  25  16  10   9  10   9   9  10  10  10   9  11  11  12  16  15  14  17  22  26  32  37  56 152
 176 176 178 177 177 174 174 175 175 174 175 163 113  81  75  59  61  40  25  22  50 119  97  81  84  87  96 108 114 102  89  86  86  86  92 101 103 107 105 103  96  86  85  78  63  69  65  61  65  65  71  79  84  88  88  89  89  84  78  65  59  52  48  54  57  56  47  36  21  18  14  10  10  10   9  10  10   9  10  10  10  10  12  12  12  14  17  22  26  32  39  54
 177 176 177 175 176 175 175 176 176 173 141  76  72  70  56  53  41  26  19  28  63 119  98  73  75  81  89 111 113  98  87  82  75  77  83  93  98 102  98  97  89  82  75  66  56  55  52  49  54  57  63  72  76  81  82  83  83  78  69  59  51  47  45  45  51  50  43  32  18  16  16  15  16  14  12  11  10  10  10  10  10   9  11  11  10  13  17  20  22  25  30  38
 176 174 175 175 174 175 174 174 174 131  69  64  67  56  47  38  27  18  21  42  57 123 103  78  66  69  87 102 105  99  82  72  73  70  74  87  95  96  91  91  83  76  70  62  54  50  46  44  47  52  57  67  71  77  81  81  77  61  56  53  48  40  41  41  49  43  43  33  22  16  14  14  15  17  17  17  18  16  14  12  11   9  11  10   9  12  16  18  19  22  24  29
 173 173 174 174 173 175 171 171 139  66  62  59  59  49  38  28  20  17  36  40  62 124 114  88  54  57  76  92 108  98  75  71  72  71  73  80  88  88  90  86  82  73  71  64  55  50  43  43  49  54  59  67  72  80  81  81  74  54  49  48  45  42  35  36  44  36  46  42  22  16  14  15  13  14  15  16  17  17  17  18  17  13  12   9  10  10  13  17  18  21  21  25
 172 171 172 173 167 158 147 133  67  58  55  57  48  37  28  20  16  23  41  37  54 126 117 111  65  52  62  78  83  82  74  65  71  71  72  72  83  87  88  88  85  81  73  66  60  50  47  45  50  59  66  73  80  84  83  83  70  52  46  44  40  39  33  36  39  30  52  56  30  17  13  14  13  12  14  14  15  16  17  18  17  18  17  15  13  10  12  15  17  18  22  25
 131 108  86  62  50  48  46  64  55  52  54  50  39  30  21  14  17  38  38  33  46 126 121 118  88  58  50  68  79  76  70  64  66  65  66  73  78  84  88  89  87  85  76  76  66  55  56  57  56  70  71  76  82  87  84  79  70  51  41  39  36  33  33  34  33  31  71  72  39  22  16  13  15  12  11  15  15  15  15  17  17  16  16  17  17  14  13  12  13  16  19  20
  40  43  40  40  41  41  48  53  49  51  51  41  33  24  17  13  26  38  34  28  34 127 121 119 109  68  52  54  58  52  60  63  62  62  65  74  75  83  87  86  89  84  81  82  74  66  64  69  70  74  80  80  82  86  80  71  58  43  41  37  34  32  32  31  36  54  87  84  51  28  20  14  15  14  11  11  13  14  13  14  14  15  16  17  16  14  16  14  12  16  16  18
  35  32  29  31  35  38  49  50  50  51  43  35  26  17  13  15  35  33  30  25  30 126 124 122 115  80  46  48  53  49  53  62  61  57  64  69  71  82  85  83  82  85  82  80  75  72  72  80  80  77  77  80  81  82  68  58  52  44  38  37  33  31  29  30  41  70  91  90  61  33  21  16  13  15  11  12  13  13  14  13  13  13  14  17  18  16  15  14  14  15  16  17
  33  31  29  24  26  39  48  46  51  47  40  28  19  13  11  24  35  31  26  20  24 124 122 120 111  98  57  45  43  40  48  56  54  58  63  63  65  78  78  76  78  84  86  82  74  68  76  85  78  75  73  72  75  78  66  56  49  41  36  33  30  29  26  29  52  79  93  94  72  41  24  17  15  14  11  12  13  12  11  11  11  12  13  16  16  16  14  13  13  16  16  16
  31  29  28  29  34  44  47  47  49  40  31  23  16  11  12  31  33  28  21  16  18 127 121 116 110 104  85  49  37  35  40  45  46  51  52  55  65  68  72  73  79  80  85  77  72  66  73  79  72  67  68  69  70  77  70  55  42  38  34  32  28  28  27  28  61  90  92  95  79  44  27  18  15  14  11  11  12  13  11   9  10  11  12  14  14  14  13  13  13  14  15  15
  29  27  24  30  37  44  48  50  43  35  25  17  13  10  19  34  32  23  18  14  17 124 123 114 111 106  94  71  37  33  34  38  41  44  43  56  63  61  65  70  75  75  76  75  66  64  69  68  69  65  61  67  68  70  66  52  39  35  31  29  28  26  29  47  88  90  89  95  85  48  30  21  15  13  11  11  12  12  12   9  10  10  12  13  13  14  13  12  12  13  14  15
  28  25  24  29  35  43  47  46  37  29  20  13  11  10  26  34  30  25  15  13  22 118 122 116 111 105 100  88  48  31  29  32  34  37  38  46  55  51  56  62  66  67  70  65  61  57  60  68  65  63  63  63  67  60  57  45  35  30  28  27  26  24  33  75  89  92  90  92  87  56  33  22  16  13  10  10  13  13  12  10  11  11  12  13  14  13  13  12  11  12  13  14
  28  24  23  28  36  42  46  39  31  25  17  11   8  13  30  29  26  20  15  12  25 115 117 116 112 106 100  89  64  37  31  28  31  34  37  41  46  49  52  55  59  64  62  57  53  54  62  67  65  63  61  59  58  55  48  39  32  28  27  26  24  31  60  85  89  91  88  92  89  62  35  23  16  12  11  11  12  12  11  10  10  11  11  13  12  12  11  11  11  12  12  12
  28  23  22  28  36  43  45  37  30  20  16  10   9  19  32  27  19  14  13  12  23 112 114 116 112 105 101  95  75  53  30  24  28  31  33  35  44  45  46  49  50  55  52  52  54  52  57  57  59  57  52  52  51  47  44  33  29  25  26  25  25  41  76  88  92  91  88  91  91  68  37  22  14  12  10  10  12  12  12  10  10  11  12  12  11  12  12  10  10  10  12  13
  26  24  26  32  37  45  40  34  24  16  12  10  10  24  28  22  18  14  12  14  21 112 112 110 112 104 103  97  89  82  46  26  25  28  29  30  35  34  38  38  43  46  45  48  50  50  54  52  52  50  43  42  38  37  36  28  24  24  24  25  35  66  86  90  90  93  88  90  90  70  39  24  15  13  12  10  12  13  11   9  10  10  12  12  12  11  11   9  10  11  11  11
  26  25  27  30  35  43  37  30  17  12   9   8  12  28  26  22  19  16  11  13  22 108 112 108 109 106 101  98  94  90  78  45  32  26  26  27  27  29  30  32  34  32  34  39  45  41  47  50  46  38  34  34  30  28  28  24  20  23  23  36  52  77  88  89  89  92  90  90  88  69  37  22  15  12  12  10  12  13  11   9  10  11  12  11  10  10  10   8  10  10  11  12
  24  25  27  29  34  41  34  23  14  11   7   8  17  27  24  17  17  15  11  12  22 104 112 110 106 104 103 100  94  93  86  73  57  35  25  26  25  25  26  27  25  25  26  28  32  32  37  36  33  27  27  26  25  23  24  22  22  30  38  52  64  77  86  87  91  90  90  87  85  69  37  22  15  13  12  10  12  12  12  10  10  11  12  11  11  11  10   9  10  10  10  11
  26  26  28  28  37  38  31  22  16  12   7   9  19  25  22  17  16  15  11  12  24  92 107 105 105 104 100  99  94  89  89  84  76  60  47  36  24  24  23  21  21  21  23  23  23  25  27  28  24  22  26  24  22  22  24  30  41  58  61  74  80  83  87  85  87  88  88  86  85  68  34  21  14  13  11  11  12  11  11   9  10  10  11  11  10  10   9   9   9   9  10  10
  26  26  28  29  40  34  26  18  15  10   6  10  20  25  21  20  16  13  10  11  26  69 103 100  99 100 100  96  93  88  84  84  79  78  73  69  56  37  30  24  20  21  23  22  21  23  24  24  24  25  26  23  24  28  46  58  67  72  73  80  82  83  86  84  86  88  86  86  83  63  31  19  13  13  12  12  12  12  11  10   9  11  12  11  10  11  10  10   9  10  11  12
  26  27  26  31  38  32  25  19  15  10   7  10  22  24  18  19  17  13  10  10  24  45  97  95  96 100  97  95  89  85  80  80  76  81  78  76  74  63  60  49  38  30  30  25  22  24  25  32  35  39  35  32  38  46  64  67  72  77  80  81  80  82  82  81  86  87  86  84  78  54  28  16  13  12  10  10  12  12  11  10   9  11  12  11  10  10   9   9   8  11  10  12
  27  25  28  30  34  32  23  16  11   8   7  11  21  20  19  18  16  14  12  11  17  28  76  92  93  92  92  93  92  91  84  79  79  76  78  79  74  75  76  68  67  63  60  53  44  43  46  51  55  53  50  49  60  58  69  71  74  81  81  81  80  78  79  78  83  84  84  79  73  45  25  15  12  11  11  11  12  11  10  10   9  10  12  10  10  10   9  10   8  10  11  13
  27  27  28  32  34  29  24  18  12   7   6  12  20  17  20  17  15  16  14  13  14  24  38  87  90  88  92  91  91  91  88  84  80  80  83  82  77  76  77  74  74  74  71  74  70  63  63  60  55  57  59  60  65  67  71  72  73  79  78  77  75  75  77  78  82  82  83  75  63  39  23  14  11  11  11  11  12  11  10  10  10  10  12  12  10  10  10  10   9   9  10  11
